<?xml version="1.0" encoding="UTF-8"?>
<svg width="180" height="18" version="1.1" viewBox="0 0 47.624999 4.7625001" xmlns="http://www.w3.org/2000/svg"><path d="m47.854 2.6787c-0.04863 0.32647-0.0973 0.63135-0.14594 0.85701-0.04863 0.22566-0.09729 0.37045-0.14594 0.40741-0.04863 0.036955-0.09728-0.034719-0.14594-0.20086-0.04863-0.16614-0.09729-0.42637-0.14594-0.7309-0.04863-0.30453-0.09729-0.65197-0.14594-0.97629-0.04863-0.32431-0.09729-0.62365-0.14594-0.84144-0.04863-0.21779-0.09729-0.35245-0.14594-0.3789-0.04863-0.026454-0.09729 0.056022-0.14594 0.23121-0.04863 0.17519-0.09729 0.44267-0.14594 0.75128-0.04863 0.30861-0.09729 0.65692-0.14594 0.97875-0.04863 0.32183-0.09729 0.61532-0.14594 0.82504-0.04863 0.20972-0.09729 0.33408-0.14594 0.35001-0.04863 0.015926-0.0973-0.07727-0.14594-0.26134-0.04863-0.18407-0.09729-0.45853-0.14594-0.7709-0.04863-0.31237-0.09729-0.66121-0.14594-0.98023-0.04863-0.31902-0.0973-0.60637-0.14594-0.8078-0.04863-0.20142-0.09729-0.31538-0.14594-0.32076-0.04863-0.005383-0.09729 0.098438-0.14594 0.2912-0.04863 0.19276-0.0973 0.47392-0.14594 0.78975-0.04863 0.31583-0.0973 0.66483-0.14594 0.98072-0.04863 0.31589-0.09729 0.59682-0.14594 0.78975-0.04863 0.19293-0.0973 0.29636-0.14594 0.2912-0.04863-0.00518-0.0973-0.11951-0.14594-0.32076-0.04863-0.20126-0.0973-0.48884-0.14594-0.8078-0.04863-0.31896-0.09729-0.66778-0.14594-0.98023-0.04863-0.31245-0.09729-0.58666-0.14594-0.7709-0.04863-0.18424-0.09729-0.27705-0.14594-0.26134-0.04863 0.015714-0.09729 0.14046-0.14594 0.35001-0.04863 0.20955-0.09729 0.50326-0.14594 0.82504-0.04863 0.32178-0.0973 0.67007-0.14594 0.97875-0.04863 0.30868-0.0973 0.57591-0.14594 0.75128-0.04863 0.17537-0.0973 0.25746-0.14594 0.23122-0.04863-0.026247-0.09729-0.16126-0.14594-0.3789-0.04863-0.21764-0.097291-0.51718-0.14594-0.84145-0.048629-0.32427-0.09729-0.67167-0.14594-0.97628-0.04863-0.30461-0.09729-0.56458-0.14594-0.7309-0.04863-0.16632-0.09729-0.2376-0.14594-0.20086-0.04863 0.036743-0.0973 0.18191-0.14594 0.40741-0.04863 0.2255-0.09729 0.53057-0.14594 0.857-0.04863 0.32643-0.0973 0.6726-0.14594 0.97283-0.04863 0.30023-0.0973 0.55268-0.14594 0.70978-0.04863 0.15711-0.09729 0.21751-0.14594 0.1703-0.04863-0.047208-0.09729-0.20237-0.14594-0.4355-0.04863-0.23314-0.09729-0.54344-0.14594-0.8717-0.04863-0.32827-0.0973-0.67285-0.14594-0.96841-0.04863-0.29555-0.09729-0.54022-0.14594-0.68795-0.04863-0.14773-0.09729-0.1972-0.14594-0.13957-0.04863 0.057627-0.0973 0.22263-0.14594 0.46317-0.04863 0.24054-0.09729 0.55575-0.14594 0.88552-0.04863 0.32977-0.09729 0.67243-0.14594 0.963-0.04863 0.29057-0.09729 0.52723-0.14594 0.66543-0.04863 0.1382-0.09729 0.17669-0.14594 0.1087-0.04863-0.067985-0.09729-0.24266-0.14594-0.49036-0.04863-0.2477-0.0973-0.5675-0.14594-0.89845-0.04863-0.33094-0.09729-0.67133-0.14594-0.95663-0.04863-0.2853-0.0973-0.5137-0.14594-0.64224-0.04863-0.12854-0.09729-0.156-0.14594-0.077722-0.04863 0.078276-0.09729 0.26245-0.14594 0.51706-0.04863 0.25461-0.09729 0.57869-0.14594 0.91047-0.04863 0.33178-0.09729 0.66955-0.14594 0.94929-0.04863 0.27974-0.0973 0.49965-0.14594 0.6184-0.04863 0.11875-0.0973 0.13515-0.14594 0.046665-0.04863-0.08849-0.0973-0.28198-0.14594-0.54324-0.04863-0.26127-0.09729-0.58929-0.14594-0.92158-0.04863-0.33229-0.09729-0.6671-0.14594-0.941-0.04863-0.2739-0.09729-0.4851-0.14594-0.59393-0.04863-0.10884-0.0973-0.11418-0.14594-0.015553-0.04863 0.098612-0.0973 0.30122-0.14594 0.56888-0.04863 0.26766-0.09729 0.5993-0.14594 0.93176h-3.3054" color="#000000" color-rendering="auto" fill="none" image-rendering="auto" shape-rendering="auto" solid-color="#000000" stroke="#555" stroke-width=".15241" style="isolation:auto;mix-blend-mode:normal" title="sin(-10*x)"/><ellipse transform="scale(-1,1)" cx="-34.718" cy="2.3813" rx="1.8498" ry="1.8546" color="#000000" color-rendering="auto" fill="#727272" image-rendering="auto" shape-rendering="auto" solid-color="#000000" style="isolation:auto;mix-blend-mode:normal"/></svg>
