<?xml version="1.0" encoding="UTF-8"?>
<svg width="180" height="18" version="1.1" viewBox="0 0 47.625 4.7625" xmlns="http://www.w3.org/2000/svg">
 <g fill="none" stroke="#b0bbd4" stroke-width=".19606">
  <path d="m45.369 0.37368-0.13543 0.13525-0.27082 0.2705-0.13543 0.13525-0.13541 0.13524-0.27082 0.2705-0.13543 0.13525-0.13541 0.13525-0.13541 0.13524-0.13543 0.13525-0.13541 0.13525-0.05864 0.05858" style="font-variant-east_asian:normal"/>
  <path d="m40.805 3.3107 0.17671-0.077014 0.17671-0.077033 0.17671-0.077014 0.17671-0.077033 0.17671-0.077014 0.17671-0.077033 0.17671-0.077014 0.35342-0.15407 0.17671-0.077014 0.17671-0.077032 0.17671-0.077016 0.17671-0.077033 0.17671-0.077014 0.17671-0.077032 0.22981-0.10016 0.10396 0.161 0.10396 0.16103 0.10396 0.161 0.10394 0.16103 0.10396 0.161 0.10395 0.16103 0.20792 0.322 0.10396 0.16103 0.10395 0.161 0.10396 0.16103 0.10396 0.161 0.10395 0.16103 0.2079 0.32203 0.10396 0.161 0.10395 0.16103 0.20792 0.322 0.10395 0.16103 0.10396 0.161 0.10176 0.15762" style="font-variant-east_asian:normal"/>
  <path d="m42.402 1.879-0.57072 0.51144-0.14266 0.12785-0.7134 0.6393-0.14268 0.12785-0.02819 0.025285 0.42888 0.6358 0.10722 0.15896 1.2866 1.9074 0.10722 0.15896 0.12124 0.17971 0.18784-0.045678 0.18783-0.045699 0.37566-0.091357 0.18784-0.045678 0.18783-0.045699 0.37566-0.091358 0.18784-0.045696 0.37566-0.091358 0.18784-0.045696 0.18782-0.04568 0.37566-0.091358 0.18784-0.045696 0.10887-0.026477 0.10357-0.16011 0.20714-0.32024 0.10357-0.16011 0.31071-0.48036 0.10357-0.16011 0.20714-0.32024 0.02811-0.043467 0.18222-0.2817 0.10357-0.16011 0.0032-0.00479-0.10145-0.16251-0.10148-0.16252-0.10149-0.16252-0.40592-0.65008-0.10148-0.16251-0.30444-0.48756-0.10149-0.16252-0.71036-1.1376-0.02584-0.041376-0.17388 0.082975-0.17386 0.082957-0.17387 0.082978-0.17388 0.082956-0.34774 0.16595-0.17388 0.082956-0.17387 0.082976-0.17386 0.082959-0.17387 0.082975-0.17388 0.082957-0.17387 0.082978-0.17387 0.082975-0.17388 0.082957-0.17387 0.082978-0.14424 0.068831-0.0277 0.024797z" style="font-variant-east_asian:normal"/>
  <path d="m35.69 1.2895 0.12871-0.044844 0.20205-0.065862 0.37253-0.12142 0.5518-0.16668 0.41008-0.11282 0.10558-0.02904 0.20676-0.050057 0.20677-0.050057 0.05228-0.012652 0.40159-0.079438 0.21119-0.027438 0.11102-0.01442 0.21314-2.8382e-4 0.01421-1.817e-5 0.11698 0.044699 0.07001 0.19722 0.06999 0.19721 0.14002 0.39444 0.06257 0.1763 0.0032 0.12084-0.12847 0.16615-3e-3 0.00358-0.2724 0.21576-0.17997 0.1113-0.17998 0.1113-0.05357 0.033127-0.18768 0.098397-0.18767 0.098418-0.17006 0.089162-0.3853 0.17758-0.19263 0.088767-0.07949 0.036641-0.19632 0.080737-0.1963 0.080717-0.19632 0.080737-0.14968 0.061573-0.78007 0.28688-0.2021 0.065773-0.20207 0.065798-0.20209 0.065773-0.16997 0.055337-0.4095 0.11477-0.20476 0.057367-0.11236 0.031479-0.41508 0.093833-0.20755 0.046917-0.0134 0.00304-0.2105 0.032098-0.2105 0.032071-0.09233 0.014078-0.21299 7e-3 -0.1571 0.00518" style="font-variant-east_asian:normal"/>
  <path d="m32.056 3.0032 0.05488 0.075625 0.20773 0.021483 0.36303-0.038414 0.41766-0.082367 0.09257-0.018242 0.20625-0.052077 0.4125-0.10415 0.01841-0.00468 0.20406-0.059703 0.20406-0.059683 0.32396-0.094783 0.20207-0.065837 0.20207-0.065817 0.20207-0.065837 0.17938-0.058428 0.20011-0.071321 0.20011-0.071341 0.20009-0.071326 0.1923-0.068535 0.75337-0.29216 0.19546-0.082731 0.19543-0.082732 0.19546-0.08273 0.08697-0.03681 0.19207-0.089929 0.36942-0.17296 0.37382-0.1996 0.05516-0.029425 0.17713-0.11558 0.10943-0.071404 0.14375-0.14035 0.0073-0.092143" style="font-variant-east_asian:normal"/>
  <path d="m36.62 4.8122 0.07731 0.19462 0.15462 0.3892 0.05733 0.14435 0.01086 0.00823 0.17362 0.12141 0.12662 0.08856 0.04292-0.20426 0.03474-0.1654-0.0042-0.011019-0.07647-0.19493-0.07649-0.19491-0.07648-0.19493-0.05206-0.13276" style="font-variant-east_asian:normal"/>
  <path d="m34.872 0.41267 0.12708 0.31978 0.07729 0.1946 0.07731 0.19462 0.07731 0.1946 0.04644 0.11688 0.07731 0.1946 0.05962 0.15013 0.0088 0.00216 0.0164-8.195e-4 0.02339-0.00374 0.0295-0.00657 0.03448-0.00918 0.03806-0.011354 0.0402-0.013077 0.04073-0.014349 0.03965-0.015016 0.03701-0.015088 0.03291-0.014595 0.02755-0.013481 0.02114-0.011915 0.01398-0.00984 0.0063-0.0074-0.0016-0.00475-0.07647-0.19491-0.05668-0.14444-0.07647-0.19493-0.07648-0.19493-0.07649-0.19491c-0.01819-0.047683-0.15088-0.40989-0.1579-0.42765-0.14866 0.033866-0.30038 0.090369-0.43038 0.13553z" style="font-variant-east_asian:normal"/>
  <path d="m39.34 1.6453-0.1459 0.189-0.12835 0.16623-0.12834 0.16623-0.2567 0.33246-0.12834 0.16625-0.5134 0.66492-0.12834 0.16625-0.5134 0.66492-0.12833 0.16624-0.12835 0.16625-0.12835 0.16623-0.0061 0.00782-0.01146 0.01482-0.0185 0.016516-0.0249 0.017564-0.03036 0.017935-0.03463 0.017626-0.03756 0.016597-0.03899 0.014928-0.03893 0.012652-0.03727 0.00988-0.03422 0.00672-0.02976 0.0033-0.02419-1.514e-4 -0.02562-0.00438-0.05985-0.010207-0.21004-0.03585-0.21002-0.035851-0.63012-0.10756-0.42009-0.071706-0.21004-0.035876-0.42008-0.071706-0.42009-0.071706-0.42008-0.071706-0.42008-0.071706-0.42009-0.071706-0.01027-0.00238-0.20763-0.047619-0.0675-0.10493-0.01708-0.039022-0.08411-0.1919-0.08408-0.1919-0.16822-0.3838-0.08408-0.1919 0.08733-0.12183 0.04421-0.032949 0.16938-0.12621 0.13827-0.08065 0.18287-0.10672 0.03069-0.015539 0.18913-0.095722 0.18913-0.09572 0.09184-0.042046 0.19285-0.088336 0.19283-0.088337 0.13712-0.058046 0.19546-0.082711 0.19543-0.082732 0.36428-0.14403 0.19745-0.078082 0.38096-0.14136 0.19912-0.073886 0.04315-0.015036" style="font-variant-east_asian:normal"/>
 </g>
</svg>
