<?xml version="1.0" encoding="UTF-8"?>
<svg width="180" height="18" version="1.1" viewBox="0 0 47.624999 4.7625001" xmlns="http://www.w3.org/2000/svg"><g fill="#b0bbd4"><path d="m32.217 4.2515-1.1836-0.88773-0.06564 0.24381-0.77833-0.99401 1.1722 0.46887-0.21568 0.13128 1.1836 0.88773-0.11253 0.15004" clip-path="url(#p75e85dd5f0)" style="font-variant-east_asian:normal"/><path d="m34.117 4.2428-0.76721-0.76721-0.09946 0.23208-0.62993-1.0941 1.0941 0.62993-0.23208 0.099463 0.76721 0.76721-0.13262 0.13262" clip-path="url(#p75e85dd5f0)" style="font-variant-east_asian:normal"/><path d="m36.016 4.2285-0.41774-0.62661-0.14305 0.20807-0.40313-1.1964 0.94931 0.83227-0.24708 0.052017 0.41774 0.62661-0.15605 0.10403" clip-path="url(#p75e85dd5f0)" style="font-variant-east_asian:normal"/><path d="m37.924 4.2032-0.20037-0.60112-0.17366 0.14694-0.06679-1.1354 0.62784 0.94843-0.22709-0.013359 0.20037 0.60112-0.1603 0.053433" clip-path="url(#p75e85dd5f0)" style="font-variant-east_asian:normal"/><path d="m39.834 4.1765v-0.60112l-0.20037 0.080149 0.28052-1.0419 0.28052 1.0419-0.20037-0.080149v0.60112h-0.1603" clip-path="url(#p75e85dd5f0)" style="font-variant-east_asian:normal"/><path d="m41.744 4.1498 0.20037-0.60112-0.22709 0.013359 0.62784-0.94843-0.06679 1.1354-0.17366-0.14694-0.20037 0.60112-0.1603-0.053433" clip-path="url(#p75e85dd5f0)" style="font-variant-east_asian:normal"/><path d="m43.657 4.1245 0.41774-0.62661-0.24708-0.052017 0.94931-0.83227-0.40313 1.1964-0.14305-0.20807-0.41774 0.62661-0.15605-0.10403" clip-path="url(#p75e85dd5f0)" style="font-variant-east_asian:normal"/><path d="m45.579 4.1102 0.76721-0.76721-0.23208-0.099463 1.0941-0.62993-0.62993 1.0941-0.09946-0.23208-0.76721 0.76721-0.13262-0.13262" clip-path="url(#p75e85dd5f0)" style="font-variant-east_asian:normal"/><path d="m32.207 2.2626-1.2882-1.2882-0.09946 0.23208-0.62993-1.0941 1.0941 0.62993-0.23208 0.099463 1.2882 1.2882-0.13262 0.13262" clip-path="url(#p75e85dd5f0)" style="font-variant-east_asian:normal"/><path d="m34.109 2.2525-0.88773-1.1836-0.13128 0.21568-0.46887-1.1722 0.99401 0.77833-0.24381 0.065642 0.88773 1.1836-0.15004 0.11253" clip-path="url(#p75e85dd5f0)" style="font-variant-east_asian:normal"/><path d="m36.01 2.2382-0.53869-1.0774-0.16775 0.18872-0.25162-1.2371 0.83875 0.94359-0.25162 0.020969 0.53869 1.0774-0.16775 0.083874" clip-path="url(#p75e85dd5f0)" style="font-variant-east_asian:normal"/><path d="m37.913 2.219-0.24804-0.99218-0.20469 0.14783 0.02274-1.2623 0.61408 1.1031-0.25018-0.034115 0.24805 0.99218-0.18195 0.045487" clip-path="url(#p75e85dd5f0)" style="font-variant-east_asian:normal"/><path d="m39.821 2.1963v-0.95858l-0.23444 0.093775 0.32821-1.2191 0.32821 1.2191-0.23444-0.093775v0.95858h-0.18755" clip-path="url(#p75e85dd5f0)" style="font-variant-east_asian:normal"/><path d="m41.734 2.1735 0.24804-0.99218-0.25018 0.034115 0.61408-1.1031 0.02274 1.2623-0.20469-0.14783-0.24805 0.99218-0.18195-0.045487" clip-path="url(#p75e85dd5f0)" style="font-variant-east_asian:normal"/><path d="m43.651 2.1543 0.53869-1.0774-0.25162-0.020969 0.83874-0.94359-0.25162 1.2371-0.16775-0.18872-0.53869 1.0774l-0.16775-0.083874" clip-path="url(#p75e85dd5f0)" style="font-variant-east_asian:normal"/><path d="m45.57 2.14 0.88773-1.1836-0.24381-0.065642 0.99401-0.77833-0.46887 1.1722-0.13128-0.21568-0.88773 1.1836-0.15004-0.11253" clip-path="url(#p75e85dd5f0)" style="font-variant-east_asian:normal"/></g></svg>
