<?xml version="1.0" encoding="UTF-8"?>
<svg width="180" height="18" version="1.1" viewBox="0 0 47.624999 4.7625001" xmlns="http://www.w3.org/2000/svg"><g fill="#555" stroke-width=".88631"><path d="m33.483 2.3078c0.01057-0.021925 0.02628-0.052556 0.0269-0.061573 3.1e-4 -0.0045 0.0035-0.049594-0.05069-0.053317-0.04058-0.00279-0.05145 0.023639-0.06233 0.05007-0.339 0.64712-0.5266 0.93772-1.2976 0.88466l-0.65827-0.045305c-0.06312-0.00434-0.07214-0.00496-0.09888-0.011337-0.04478-0.00761-0.05799-0.013051-0.05551-0.049121 8.86e-4 -0.013528 0.0016-0.022545 0.02969-0.10215l0.39131-1.2098 0.44636 0.03072c0.38324 0.026376 0.37673 0.12106 0.36897 0.23377-0.0022 0.031563-0.0059 0.085667-0.04677 0.21875-0.01056 0.021925-0.01602 0.035141-0.01695 0.048666-0.0016 0.022545 0.01461 0.050838 0.0552 0.053631 0.03606 0.00248 0.05115-0.019132 0.07384-0.085522l0.3296-1.0373c0.0019-0.027056-0.01914-0.051149-0.0507-0.053321-0.04058-0.00279-0.05146 0.023639-0.06871 0.076811-0.11827 0.33614-0.20656 0.43426-0.62137 0.40571l-0.42382-0.029169 0.34531-1.068c0.05143-0.15502 0.05718-0.17273 0.25558-0.15908l0.63573 0.043753c0.55006 0.037857 0.67633 0.17792 0.65088 0.54763-0.0074 0.10821-0.0081 0.11722-0.03448 0.23772-0.0019 0.027052-0.0085 0.058305-0.01008 0.08085-0.0016 0.022545 0.0098 0.055036 0.05038 0.057828 0.04959 0.00341 0.05596-0.023329 0.07088-0.10838l0.14387-0.7738c0.02192-0.1208-6.34e-4 -0.12236-0.11336-0.13011l-2.2769-0.1567c-0.09017-0.006206-0.13526-0.009309-0.14146 0.080864-0.0035 0.049597 0.03716 0.05239 0.12282 0.058286 0.16682 0.011481 0.29307 0.02017 0.28748 0.10132-0.0012 0.018035-0.0019 0.027052-0.03 0.10666l-0.7593 2.3441c-0.05719 0.17273-0.06869 0.20819-0.42488 0.18367-0.07665-0.00527-0.12625-0.00869-0.13214 0.076977-0.0037 0.054105 0.03685 0.056898 0.12252 0.062793l2.34 0.16105c0.1037 0.00713 0.10852 0.00293 0.14504-0.067029z"/><path d="m38.246 2.2098c0.06764 0.00465 0.1533 0.010551 0.1595-0.079623 0.0062-0.090173-0.07946-0.096076-0.14258-0.10042l-2.7007-0.18587c-0.06312-0.00434-0.14878-0.01024-0.155 0.079937-0.0062 0.090173 0.07946 0.096067 0.14709 0.10072zm-0.05567 0.875c0.06312 0.00434 0.14878 0.01024 0.15499-0.079933 0.0062-0.090173-0.07946-0.096067-0.14709-0.10072l-2.6917-0.18525c-0.06763-0.00465-0.1533-0.010551-0.1595 0.079623-0.0062 0.090173 0.07946 0.096067 0.14258 0.10041z"/><path d="m40.208 3.559c-0.0182 0.066699-0.05237 0.16854-0.05392 0.19108-0.0056 0.081157 0.05475 0.12608 0.12238 0.13073 0.0541 0.00372 0.13774-0.02676 0.17551-0.11476 0.0051-0.0087 0.07382-0.21689 0.10863-0.32775l0.12711-0.39896c0.03387-0.097326 0.06776-0.19466 0.09744-0.29681 0.0233-0.075408 0.06838-0.20367 0.07413-0.2214 0.07725-0.13512 0.34445-0.52896 0.77278-0.49948 0.2029 0.013964 0.23199 0.18358 0.22175 0.33237-0.0078 0.11272-0.04801 0.2368-0.09339 0.36957l-0.16224 0.51433-0.11376 0.33645c-0.02423 0.088933-0.07537 0.23944-0.07691 0.26198-0.0056 0.081157 0.05474 0.12608 0.12237 0.13073 0.13977 0.00962 0.17459-0.10123 0.22058-0.24304 0.08049-0.24814 0.29262-0.89491 0.34531-1.068 0.01758-0.057683 0.29376-0.58228 0.78521-0.54846 0.19387 0.013343 0.23292 0.17006 0.22175 0.33237-0.01769 0.257-0.24243 0.75796-0.34905 0.99072-0.04803 0.10542-0.06948 0.15378-0.07568 0.24395-0.01459 0.21191 0.13236 0.38057 0.34427 0.39516 0.42382 0.029168 0.63596-0.61763 0.63844-0.65369 0.0031-0.045087-0.03747-0.04788-0.05101-0.048811-0.04509-0.0031-0.04602 0.010421-0.07322 0.076501-0.08408 0.23431-0.25038 0.5445-0.49836 0.52744-0.07665-0.00527-0.10511-0.052534-0.09797-0.15624 0.0078-0.11272 0.05578-0.21813 0.10318-0.31453 0.1018-0.22856 0.32561-0.716 0.3433-0.97299 0.02017-0.29307-0.14714-0.49485-0.4853-0.51812-0.33816-0.023273-0.58176 0.15928-0.76502 0.38677-4.54e-4 -0.058923-0.0035-0.21315-0.12224-0.33005-0.1062-0.10244-0.24893-0.13491-0.36165-0.14267-0.40578-0.027928-0.64656 0.24543-0.73036 0.34385-0.0049-0.25856-0.18491-0.40684-0.38781-0.4208-0.2074-0.014274-0.30517 0.15567-0.35133 0.23403-0.09202 0.15222-0.16894 0.4142-0.16987 0.42773-0.0031 0.045087 0.04199 0.04819 0.051 0.04881 0.04509 0.0031 0.04991-0.00109 0.08378-0.098425 0.09867-0.31484 0.20374-0.52505 0.36606-0.51388 0.07214 0.00496 0.13729 0.045688 0.12549 0.21702-0.0066 0.094685-0.02347 0.14334-0.0982 0.37377z"/><path d="m45.64 2.4786c-0.07215-0.00496-0.13526-0.00931-0.20273 0.049468-0.07679 0.062667-0.09109 0.13869-0.09326 0.17025-0.0074 0.10821 0.07029 0.16339 0.15596 0.16929 0.13075 9e-3 0.25994-0.090829 0.27235-0.27118 0.01521-0.22092-0.18522-0.40233-0.50534-0.42437-0.60868-0.041892-1.2527 0.56159-1.2965 1.1973-0.02793 0.40579 0.20906 0.77997 0.67798 0.81224 0.64475 0.044373 1.0564-0.40748 1.0601-0.46159 0.0019-0.027052-0.02301-0.060476-0.05007-0.062338-0.02256-0.00155-0.03219 0.00684-0.06171 0.041052-0.38691 0.42185-0.87836 0.38803-0.93249 0.3843-0.28405-0.019549-0.39058-0.24886-0.37197-0.51938 0.01272-0.18486 0.133-0.616 0.30553-0.88498 0.15746-0.24738 0.41878-0.42419 0.66676-0.40712 0.1533 0.010551 0.3206 0.080957 0.37534 0.20703z"/><path d="m47.442 1.8766-0.10731-0.00738c-0.01424 0.068783-0.05862 0.25282-0.10183 0.28155-0.02654 0.0172-0.26957 4.73e-4 -0.31375-0.00257l-0.58072-0.03997c0.35159-0.27071 0.46813-0.35149 0.66771-0.48678 0.24637-0.17014 0.47761-0.35083 0.49824-0.65066 0.02628-0.38189-0.29219-0.63846-0.69617-0.66627-0.39136-0.026934-0.67537 0.2294-0.69536 0.51976-0.01108 0.16096 0.12355 0.18608 0.15511 0.18825 0.07574 0.00521 0.17097-0.042139 0.17879-0.15576 0.0039-0.056812-0.01058-0.1688-0.1747-0.18009 0.11327-0.21735 0.33266-0.27201 0.48099-0.26181 0.31561 0.021722 0.46279 0.27919 0.4452 0.53484-0.0189 0.27458-0.22956 0.47888-0.33838 0.58555l-0.81232 0.6988c-0.03352 0.026233-0.03395 0.032546-0.04003 0.12092l1.3003 0.089491z"/></g></svg>
