<?xml version="1.0" encoding="UTF-8"?>
<svg width="180" height="18" version="1.1" viewBox="0 0 47.624999 4.7625001" xmlns="http://www.w3.org/2000/svg"><path d="m47.304 2.8235c-0.08707 0.40035-0.17435 0.76543-0.26161 1.0263-0.08728 0.2609-0.17435 0.41559-0.2616 0.4354-0.08728 0.020346-0.17435-0.096027-0.2616-0.3251-0.08728-0.22898-0.17435-0.57041-0.2616-0.95897-0.08728-0.38859-0.17435-0.82252-0.26162-1.2194-0.08728-0.39684-0.17435-0.75431-0.2616-1.0049-0.08728-0.25058-0.17435-0.39234-0.2616-0.39902-0.08728-0.008138-0.17435 0.12247-0.2616 0.36224-0.08728 0.23977-0.17435 0.58955-0.26161 0.98241-0.08728 0.39288-0.17435 0.82705-0.2616 1.22-0.08728 0.39298-0.17435 0.74244-0.26162 0.98243-0.08728 0.24-0.17435 0.36865-0.26161 0.36224-0.08728-0.00609-0.17435-0.14872-0.2616-0.39902-0.08728-0.25035-0.17435-0.60811-0.26162-1.0049-0.08707-0.39679-0.17435-0.83071-0.2616-1.2194-0.08728-0.38867-0.17435-0.72981-0.2616-0.95897-0.08728-0.2292-0.17435-0.34465-0.2616-0.3251-0.08728 0.020346-0.17435 0.17476-0.2616 0.4354-0.08728 0.26067-0.17435 0.62602-0.26162 1.0263-0.08728 0.40029-0.17435 0.83356-0.2616 1.2176-0.08728 0.38398-0.17435 0.7164-0.2616 0.93457-0.08728 0.21814-0.17435 0.32026-0.26161 0.28763-0.087281-0.03278-0.17435-0.20059-0.26162-0.47135-0.087073-0.27072-0.17435-0.64334-0.26159-1.0467-0.087281-0.40338-0.17435-0.83555-0.26162-1.2145-0.087281-0.37892-0.17435-0.70231-0.26162-0.90921-0.087281-0.20691-0.17435-0.29558-0.2616-0.24987-0.08728 0.045753-0.17435 0.22628-0.2616 0.50679-0.08728 0.28053-0.17435 0.66002-0.2616 1.0661-0.08727 0.40606-0.17435 0.83668-0.2616 1.2102-0.08728 0.37349-0.17435 0.68753-0.2616 0.88297-0.08728 0.19551-0.17435 0.27056-0.2616 0.21184-0.08728-0.058795-0.17435-0.25173-0.26162-0.54176-0.08728-0.29002-0.17435-0.67603-0.2616-1.0844-0.08728-0.40836-0.17435-0.83702-0.2616-1.2047-0.08727-0.36766-0.17435-0.67202-0.26162-0.85578-0.08728-0.1837-0.17435-0.24531-0.2616-0.17354-0.08728 0.071611-0.17435 0.27694-0.2616 0.57617-0.08728 0.29922-0.17435 0.69135-0.2616 1.1016-0.08728 0.41021-0.17435 0.83647-0.2616 1.198-0.08728 0.36146-0.17435 0.65585-0.2616 0.82776-0.08728 0.17191-0.17435 0.21979-0.26162 0.13529-0.08728-0.084631-0.17435-0.30186-0.2616-0.61-0.08728-0.30813-0.17435-0.70596-0.2616-1.1177-0.08728-0.41168-0.17435-0.8351-0.2616-1.19-0.08728-0.3549-0.17434-0.63902-0.26162-0.79893-0.08728-0.1599-0.17435-0.19409-0.2616-0.096636-0.08728 0.097447-0.17435 0.32648-0.2616 0.64319-0.08728 0.31673-0.17435 0.71987-0.2616 1.1326-0.08728 0.41272-0.17435 0.8329-0.2616 1.1809-0.08728 0.34798-0.17435 0.62155-0.26162 0.76928-0.08728 0.14769-0.17435 0.16804-0.2616 0.057976-0.08728-0.11006-0.17435-0.35077-0.2616-0.67577-0.08727-0.32502-0.17435-0.73306-0.26162-1.1464-0.087281-0.41335-0.17435-0.82986-0.26159-1.1705-0.08728-0.34072-0.17435-0.60347-0.26162-0.73884-0.08728-0.13549-0.17435-0.142-0.2616-0.018309-0.08728 0.12267-0.17435 0.37471-0.2616 0.70769-0.08728 0.33295-0.17435 0.74551-0.2616 1.1591" color="#000000" color-rendering="auto" fill="none" image-rendering="auto" shape-rendering="auto" solid-color="#000000" stroke="#555" stroke-width=".23178" style="isolation:auto;mix-blend-mode:normal" title="sin(-10*x)"/></svg>
