<?xml version="1.0" encoding="UTF-8"?>
<svg width="180" height="18" version="1.1" viewBox="0 0 47.624999 4.7625001" xmlns="http://www.w3.org/2000/svg"><defs><marker id="marker1255" overflow="visible" orient="auto"><path transform="scale(.8) rotate(180) translate(12.5)" d="m0 0l5-5-17.5 5 17.5 5-5-5z" fill="#b0bbd4" fill-rule="evenodd" stroke="#b0bbd4" stroke-width="1pt"/></marker></defs><g fill="none"><g fill="none" stroke="#798cb6" stroke-width=".13838"><path d="m46.315-7.6513-1.1129 0.40468-1.1255 0.50584-1.1634 0.6576-1.1761 0.79671-1.1887 0.96111-1.2014 1.0749-1.1887 1.1508-1.1887 1.1761-1.1634 1.1508-1.1635 1.1129-1.1381 1.0243-1.1382 0.91052-1.1382 0.77141-1.1382 0.64496-1.1634 0.55643-1.1635 0.45527" style="font-variant-east_asian:normal"/><path d="m27.953 6.0571 1.2014-0.45526 1.1887-0.53114 1.1761-0.6323 1.1635-0.74613 1.1634-0.88523 1.1761-0.97376 1.2014-1.0623 1.2014-1.1129 1.214-1.1129 1.2267-1.1002 1.2267-1.0243 1.214-0.91053 1.2014-0.75876 1.1761-0.63231 1.1382-0.4932 1.1129-0.39203" style="font-variant-east_asian:normal"/><path d="m47.58-5.7544-1.1129 0.37938-1.1508 0.48056-1.1887 0.59437-1.214 0.72083-1.252 0.84729-1.252 0.94846-1.252 1.0243-1.252 1.037-1.252 1.037-1.2267 0.98641-1.214 0.92317-1.2014 0.82199-1.2014 0.70819-1.214 0.60702-1.214 0.53114-1.2267 0.44261" style="font-variant-east_asian:normal"/><path d="m28.37 6.563 1.252-0.44262 1.252-0.50584 1.2393-0.56908 1.2393-0.67025 1.2393-0.75876 1.2646-0.84729 1.2646-0.91053 1.2773-0.94846 1.2899-0.93582 1.2899-0.92318 1.2899-0.87259 1.2646-0.77141 1.2393-0.6576 1.1887-0.55643 1.1635-0.44262 1.1255-0.37938" style="font-variant-east_asian:normal"/><path d="m48.933-3.4149-1.1382 0.34145-1.1634 0.42997-1.2014 0.49319-1.252 0.60703-1.2899 0.68289-1.3152 0.77141-1.3152 0.822-1.3278 0.83464-1.3278 0.84729-1.3152 0.80935-1.3026 0.75877-1.2773 0.69554-1.2773 0.61966-1.2773 0.53114-1.2773 0.48055-1.2899 0.42997" style="font-variant-east_asian:normal"/><path d="m28.813 6.8918 1.3152-0.40468 1.3152-0.45525 1.3152-0.4932 1.3152-0.55643 1.3278-0.61967 1.3405-0.68289 1.3658-0.70819 1.3531-0.72083 1.3658-0.73348 1.3658-0.70818 1.3278-0.67025 1.3152-0.60701 1.2646-0.53114 1.214-0.45526 1.1634-0.39203 1.1382-0.3288" style="font-variant-east_asian:normal"/><path d="m50.298-0.92356-1.1255 0.31616-1.1761 0.36674-1.2267 0.40468-1.2773 0.4679-1.3278 0.51849-1.3531 0.56908-1.3911 0.60702-1.4037 0.60701-1.4037 0.61967-1.4037 0.60702-1.3911 0.58172-1.3658 0.54379-1.3658 0.4932-1.3405 0.45526-1.3405 0.42996-1.3531 0.39203" style="font-variant-east_asian:normal"/><path d="m29.293 7.2585 1.3911-0.37939 1.3784-0.40467 1.3784-0.41732 1.4037-0.42997 1.4164-0.48055 1.429-0.48055 1.4417-0.50584 1.4417-0.51849 1.4417-0.50585 1.4164-0.50584 1.3911-0.46791 1.3405-0.44261 1.2899-0.40468 1.2267-0.36673 1.1887-0.34145 1.1255-0.30351" style="font-variant-east_asian:normal"/><path d="m51.702 1.4919-1.1382 0.29086-1.1887 0.31615-1.2393 0.3288-1.3026 0.35409-1.3531 0.36674-1.4164 0.39203-1.4417 0.40468-1.4796 0.41732-1.4796 0.41732-1.4796 0.41732-1.4796 0.40468-1.4543 0.40467-1.4417 0.39203-1.429 0.37939-1.4164 0.36674-1.4037 0.36673" style="font-variant-east_asian:normal"/><path d="m29.824 7.8655 1.4417-0.3541 1.4543-0.35409 1.467-0.35409 1.4796-0.34145 1.4922-0.34145 1.5175-0.34144 1.5302-0.34145 1.5175-0.34145l1.5049-0.32879 1.467-0.3288 1.4417-0.31616 1.3784-0.31616 1.3152-0.30351 1.2393-0.3035 1.2014-0.29087 1.1382-0.29086" style="font-variant-east_asian:normal"/><path d="m53.131 3.6543-1.1382 0.29087-1.2014 0.27821-1.2646 0.27822-1.3278 0.27822-1.4037 0.27822-1.4543 0.26557-1.5049 0.26557-1.5302 0.27822l-1.5555 0.26557-1.5555 0.27822-1.5681 0.29086-1.5302 0.30351-1.5175 0.30351-1.5049 0.3288-1.4796 0.3541-1.4922 0.35409" style="font-variant-east_asian:normal"/></g><path d="m36.287 1.5009 8.4945 1.4298" marker-end="url(#marker1255)" stroke="#b0bbd4" stroke-miterlimit="100" stroke-width=".1614"/></g></svg>
