<?xml version="1.0" encoding="UTF-8"?>
<svg width="180" height="18" version="1.1" viewBox="0 0 47.624999 4.7625001" xmlns="http://www.w3.org/2000/svg"><path d="m39.064 0.077273c-0.70577 1.1292-0.88222 2.5055-0.49404 3.7406 0.70577 2.3996 3.2466 3.7759 5.6815 3.0348 2.3996-0.74106 3.7406-3.2818 2.9995-5.6815-0.10587-0.38818-0.28231-0.74106-0.49404-1.0939z" fill="#727272" stroke="#000" stroke-width=".03519" style="font-variant-east_asian:normal"/><g fill="#acacac" stroke="#000"><path transform="scale(.26458)" d="m162.22 0.29297c0.17165 0.094038 0.33988 0.15209 0.49414 0.13281 2.2674-0.26675 0.66735 3.4674 2.668 3.334 2.134-0.26675 2.4 1.0668 4.8008-1.334 1.8672-1.7339 2.402 0.93413 3.8691 1.7344 1.7339 0.80025-0.40068 2.7999 0.13281 4.4004 0.26675 1.2004 0.93443 2.135 1.2012 3.4688 0.37062 2.965 3.3673 0.32416 3.9141-1.3535 0.14098-2.0525-0.07088-4.1648-0.71485-6.25-0.40012-1.4671-1.0669-2.7991-1.8672-4.1328h-14.498z" stroke-miterlimit="100" stroke-width=".133"/><path transform="scale(.26458)" d="m147.64 0.29297c-1.1374 1.8198-1.8875 3.8119-2.2871 5.8574 0.00853 0.71606-0.04976 1.4457-0.11328 2.1445-0.13338 1.4671 0.93273 0.80049 1.5996 1.334 0.26675 0.26675 0.66711-1.0681 1.334-0.66797 0.93362 0.40012 0.80022 2.4007 0.9336 2.8008 0 0.26675 0.93305 0.93442 0.13281 1.2012-0.66687 0.26675 1.0664 2.8014 2 1.7344 0.66687-0.5335 1.0672-0.93469 1.334-1.6016 0-0.40012-0.26619-1.4673-0.13281-2.2676 0.26675-0.93362 0.93469-1.733 1.6016-2.5332 0.80025-1.3337-0.53486-0.9333-1.0684-1.4668-0.52666-0.35111-0.75375-1.3325-0.47461-2.0801-0.20067 0.12919-0.4075 0.25355-0.59179 0.3457-1.067 0.40012-0.53404 0.80081-0.80078-0.13281-0.26675-0.66687 0.26701-1.3351 0.40039-2.002 0.13337-0.40012-0.26619-1.7341-0.13282-2.2676 0.10624-0.21246 0.12835-0.30465 0.15821-0.39844h-3.8926zm4.8594 4.4551c0.67069-0.43178 1.2856-0.95813 0.875-0.85547-0.45597 0.13679-0.72999 0.46713-0.875 0.85547z" stroke-width=".13337px"/><path transform="scale(.26458)" d="m166.85 16.807c-0.65645-0.00521-1.3651 0.2232-1.8652 0.55664-0.93362 0.66687-1.8672 1.7352-1.8672 2.9355-0.13337 0.40012 0.40069 1.8667-0.13281 1.0664-0.5335-0.80025-1.2006-2.1334-2.2676-2-1.7339 0.13338-0.26731 1.334 0.13281 2.2676l0.26758 0.26563c0.26675 0.13337 0.26563 0.40122 0.26563 0.66797 0 0.66687 0.26755 1.6002 1.2012 1.4668 0.93362 0 1.6007 0.13225 2.2676 0.26562 0.66687 0.26675 1.4659 0.26731 2.1328-0.13281 0.80025-0.26675 1.2006-0.66684 1.334-0.93359 0.26675-0.40012 0.26699-1.6007 1.334-1.334 0.40012 0 1.7335 2.95e-4 2.4004-0.5332 0.76751-0.51168 1.6595-0.16645 2.5547-0.019531 0.32267-0.33862 0.6349-0.68643 0.92773-1.0488-0.04719-0.13544-0.09631-0.27299-0.14648-0.39844-0.13338-1.067-0.66851-1.4665-1.4688-1.0664-1.067 0.40012-2.0005-2.66e-4 -2.8008-0.40039-0.66687-0.26675-1.3331-0.66685-2-0.93359-0.53349-0.13338-1.0678-0.26702-1.2012-0.40039-0.30009-0.20006-0.67449-0.28789-1.0684-0.29102z" stroke-miterlimit="1e5" stroke-width=".13337px" style="font-variant-east_asian:normal"/><path transform="matrix(.44111 0 0 .44111 38.358 .077273)" d="m7.7599 5.92c0.32 0.079999 0.16-0.079999 0.32-0.32 0.079999-0.32 0.4 0 0.4 0.24-0.079999 0.24 0.079999 0.48 0.24 0.71999 0.24 0.32 0.32 0.95999 0.71999 1.04 0.079999 0 0.48-0.16 0.4-0.079999-0.16 0.079999-0.16 0.4-0.4 0.4-0.32-0.08-0.56-0.24-0.71999-0.48-0.079999-0.16-0.32-0.32-0.4-0.32-0.16-0.079999-0.4-0.32-0.64-0.32-0.32 0.079999-0.56 0.079999-0.87999 0.16-0.24 0-0.48-0.079999-0.56 0-0.079999 0.08-0.32-0.24-0.16-0.32 0.079999-0.16 0.32-0.48 0.56-0.48 0.24 0.079999 0.32 0 0.56 0.079999 0.079999 0 0.16-0.24 0.24-0.079999 0.079999 0.079999 0.24-0.16 0.32-0.24z" stroke-width=".079999px"/></g></svg>
