<?xml version="1.0" encoding="UTF-8"?>
<svg width="180" height="18" version="1.1" viewBox="0 0 47.624999 4.7625001" xmlns="http://www.w3.org/2000/svg"><g fill="none" stroke="#555"><rect transform="rotate(64.721)" x="17.567" y="-41.698" width="1.5296" height="27.532" rx="1.0329" ry="1.0329" stroke-width=".11511"/><path d="m38.488 3.7717 1.0347 2.191" stroke-width=".17166"/><path d="m46.339 0.063702 1.0347 2.191" stroke-width=".17166"/><g transform="matrix(1.0401 0 0 1.0401 -1.9012 .066486)" stroke-width=".1899"><path d="m42.607 1.7799 0.85508 1.8106"/><path d="m45.627 0.35384 0.5087 1.0772"/><path d="m41.852 2.1365 0.50869 1.0771"/><path d="m38.078 3.9191 0.50869 1.0771"/><path d="m44.872 0.71037 0.5087 1.0771"/><path d="m41.097 2.493 0.50868 1.0772"/><path d="m37.323 4.2756 0.50868 1.0772"/><path d="m44.117 1.0669 0.5087 1.0772"/><path d="m40.342 2.8495 0.50867 1.0771"/><path d="m36.568 4.6321 0.5087 1.0771"/><path d="m43.362 1.4234 0.50869 1.0771"/><path d="m39.587 3.206 0.50868 1.0772"/><path d="m35.813 4.9886 0.50869 1.0771"/></g><path d="m27.663 7.1971 11.41-5.3884" stroke-miterlimit="100" stroke-width=".43703"/></g></svg>
