<?xml version="1.0" encoding="UTF-8"?>
<svg width="180" height="18" version="1.1" viewBox="0 0 47.624999 4.7625001" xmlns="http://www.w3.org/2000/svg"><g transform="matrix(.87358 0 0 .87358 6.0191 .019119)" fill="#b0bbd4"><path d="m31.62 4.4817c0.02806 0.17314 0.02702 0.2276-0.34331 0.28763l-0.11543 0.018709 0.02416 0.14909 2.775-0.4498 8.76e-4 -1.2736-0.12024 0.019489c-1.87e-4 0.76014-0.0539 1.1291-0.88112 1.2632l-0.63965 0.10368c-0.22605 0.036639-0.24112 0.00453-0.26684-0.15418l-0.20813-1.2841 0.43286-0.070159c0.46652-0.075615 0.54436 0.069714 0.61063 0.47852l0.12024-0.019489-0.20658-1.2745-0.12024 0.019489c0.06704 0.41361 0.0383 0.57128-0.42822 0.64689l-0.43284 0.070159-0.18709-1.1543c-0.02572-0.15871-0.02157-0.19393 0.20448-0.23057l0.62042-0.10056c0.73584-0.11927 0.90857 0.1242 1.0939 0.78025l0.12023-0.019488-0.31006-1.0603-2.7077 0.43888 0.02416 0.14909 0.11543-0.018709c0.37033-0.060025 0.38852-0.00869 0.41659 0.16446z"/><path d="m34.548 2.694 0.20892 1.2889c0.03507 0.21642-0.01783 0.225-0.34006 0.27723l0.02416 0.14909c0.16755-0.032095 0.41128-0.08147 0.54113-0.10252 0.12505-0.020268 0.37669-0.051185 0.541-0.072879l-0.02417-0.14909c-0.32224 0.052229-0.37514 0.060803-0.41022-0.15562l-0.14344-0.88493c-0.08107-0.50019 0.21674-0.82486 0.52454-0.87475 0.303-0.049112 0.398 0.20203 0.44243 0.47617l0.18164 1.1206c0.03509 0.21642-0.01782 0.225-0.34006 0.27723l0.02417 0.14909c0.16755-0.032095 0.41128-0.081471 0.54113-0.10252 0.12505-0.020268 0.37669-0.051185 0.54099-0.072878l-0.02416-0.14909c-0.25009 0.040535-0.37032 0.060024-0.39852-0.083479l-0.14889-0.91861c-0.06704-0.41361-0.0912-0.56271-0.26836-0.71168-0.08058-0.070848-0.25489-0.14131-0.53384-0.096097-0.35109 0.056906-0.54362 0.30035-0.62995 0.62036l-0.08186-0.505-0.66955 0.16282 0.02417 0.14909c0.33666-0.054568 0.38059-0.027136 0.41879 0.20853z"/><path d="m37.336 1.9657 0.68775-0.11148-0.02416-0.14909-0.68775 0.11148-0.14344-0.88493-0.12024 0.019488c0.0591 0.39516-0.0017 0.93315-0.46996 1.0288l0.01715 0.10581 0.40881-0.066261 0.21516 1.3274c0.09588 0.59156 0.55252 0.57678 0.72565 0.54871 0.34147-0.055348 0.42078-0.41864 0.3709-0.72645l-0.04443-0.27414-0.12024 0.019489 0.04287 0.26452c0.05768 0.3559-0.05698 0.56205-0.23493 0.59089-0.32224 0.052229-0.39318-0.38543-0.40642-0.46719z"/><path d="m39.224 1.9955-0.08575-0.52904-0.65993 0.16126 0.02416 0.14909c0.33666-0.054568 0.38059-0.027136 0.41879 0.20853l0.20891 1.2889c0.03508 0.21642-0.01782 0.225-0.34006 0.27723l0.02416 0.14909c0.18679-0.035214 0.41128-0.08147 0.54594-0.1033 0.19238-0.031181 0.41842-0.06782 0.61314-0.084571l-0.02416-0.14909-0.101 0.016371c-0.3559 0.057686-0.37409 0.00634-0.40215-0.1668l-0.12003-0.74065c-0.07718-0.47613 0.05544-0.93692 0.42096-0.99617 0.03367-0.00546 0.04329-0.00701 0.05369-0.00377-0.01366 0.00715-0.10048 0.080454-0.08022 0.2055 0.02183 0.13466 0.13452 0.19043 0.24033 0.17328 0.08657-0.014032 0.19746-0.091233 0.1725-0.24514-0.02494-0.1539-0.19664-0.26921-0.40345-0.23569-0.35109 0.056906-0.472 0.40721-0.50581 0.62492z"/><path d="m42.655 2.0219c-0.09978-0.61561-0.66335-1.0475-1.2453-0.95313-0.60118 0.097442-0.98272 0.69729-0.88528 1.2984 0.10056 0.62041 0.67558 1.0011 1.2383 0.90985 0.58195-0.094324 0.9913-0.64438 0.89229-1.2552zm-0.90698 1.1342c-0.2068 0.03352-0.43479-0.033179-0.6005-0.23337-0.15454-0.19213-0.20209-0.4855-0.23015-0.65865-0.03041-0.18757-0.07249-0.44728 0.0087-0.6776 0.094-0.24228 0.30368-0.37992 0.49605-0.41109 0.21161-0.034299 0.43558 0.037986 0.59413 0.22452 0.15857 0.18654 0.20378 0.46549 0.23341 0.64825 0.02806 0.17314 0.07016 0.43286-0.0014 0.66162-0.07073 0.23357-0.25973 0.40734-0.50021 0.44633z"/><path d="m43.486 1.0874-0.05145-0.31743-0.68399 0.16515 0.02416 0.14909c0.34147-0.055348 0.37982-0.031948 0.41411 0.17967l0.36483 2.2509c0.03507 0.21642-0.01782 0.225-0.34006 0.27723l0.02416 0.14909c0.16274-0.031312 0.41128-0.081467 0.53632-0.10173 0.12986-0.021048 0.3767-0.051186 0.54581-0.073663l-0.02416-0.14909c-0.32224 0.052229-0.37514 0.060804-0.41022-0.15562l-0.13096-0.80799-0.0071-0.043286c0.03653 0.073052 0.28062 0.30002 0.64613 0.24078 0.57233-0.092766 0.99611-0.64516 0.89555-1.2656-0.099-0.6108-0.64269-1.0113-1.1814-0.924-0.37514 0.060803-0.54283 0.30515-0.62187 0.42656zm0.21868 1.2578-0.17384-1.0725c0.09972-0.26789 0.31278-0.44557 0.55805-0.48532 0.35109-0.056906 0.71306 0.31878 0.80115 0.86224 0.09432 0.58195-0.17685 1.0405-0.53276 1.0982-0.19238 0.031181-0.39072-0.035385-0.55255-0.21153-0.08371-0.090084-0.08449-0.094896-0.10007-0.19108z"/><path d="m47.214 0.68062c0.07593-0.32326 0.32044-0.36783 0.3974-0.3803l-0.02416-0.14909c-0.10906 0.027549-0.24775 0.054967-0.35837 0.072896-0.08658 0.014032-0.31418 0.041052-0.42076 0.05339l0.02417 0.14909c0.14987-0.019355 0.24007 0.049935 0.25956 0.17017 0.0078 0.048097 0.0046 0.058492-0.01017 0.12011l-0.29396 1.2618-0.74354-1.2072c-0.02702-0.044977-0.03975-0.062656-0.04287-0.081894-0.02027-0.12505 0.15768-0.15389 0.24906-0.1687l-0.02417-0.14909c-0.12426 0.025079-0.44013 0.086148-0.52189 0.0994-0.12986 0.021048-0.32302 0.047418-0.46885 0.061185l0.02417 0.14909c0.23085-0.037418 0.32223-0.052229 0.41684 0.10519l1.0059 1.6385c-0.01392 0.066422-0.05552 0.23604-0.07424 0.30325-0.06293 0.28167-0.14381 0.63536-0.45162 0.68524-0.02405 0.0039-0.13466 0.021826-0.24007-0.049934 0.14597-0.043403 0.1673-0.15544 0.15483-0.2324-0.02026-0.12505-0.12413-0.18718-0.23474-0.16926-0.09618 0.01559-0.19185 0.095264-0.16848 0.23954 0.03509 0.21642 0.26514 0.35683 0.50561 0.31784 0.303-0.049112 0.45575-0.35521 0.52675-0.64806z"/></g></svg>
