<?xml version="1.0" encoding="UTF-8"?>
<svg width="180" height="18" version="1.1" viewBox="0 0 47.624999 4.7625001" xmlns="http://www.w3.org/2000/svg"><g fill="none"><g stroke="#8e8e8e" stroke-width=".087363"><path d="m52.347 7.0138-0.80688-0.88253-0.76906-0.92035-0.75646-0.9834-0.71863-1.0338-0.70603-1.1221-0.70602-1.1851-0.69342-1.2229-0.68081-1.2481-0.68081-1.2355-0.68082-1.2103-0.6682-1.1221l-0.64298-1.0086-0.61777-0.88253-0.60516-0.74384-0.56734-0.64298-0.54214-0.52952"/><path d="m40.445-8.5565 0.52952 0.52952 0.55474 0.63037 0.57995 0.75646 0.61777 0.86992 0.64299 0.99599 0.65559 1.1221 0.6682 1.1725 0.68081 1.2229 0.69342 1.2355 0.69342 1.2103 0.69342 1.1725 0.70603 1.1221 0.71863 1.0338 0.73123 0.97078 0.76907 0.93296 0.78167 0.89515"/><path d="m49.926 7.5938-0.76906-0.89514-0.75646-0.93296-0.71864-0.97079-0.71863-1.0212-0.69341-1.0969-0.69342-1.1473-0.68081-1.1851-0.68081-1.2103-0.68082-1.1851-0.6682-1.1599-0.64298-1.0843-0.63038-0.98339-0.60516-0.85732-0.56734-0.73124-0.54213-0.63037-0.51691-0.54213"/><path d="m38.264-7.3714 0.4917 0.54212 0.5169 0.61778 0.55474 0.73123 0.59255 0.83211 0.61777 0.94556 0.64298 1.0464 0.6556 1.0969 0.6682 1.1473 0.6682 1.1599 0.68082 1.1473 0.68081 1.1095 0.69341 1.0716 0.69342 0.996 0.70603 0.95818 0.73123 0.92036 0.76907 0.90775"/><path d="m47.241 8.0981-0.73124-0.89514-0.71863-0.90774-0.69342-0.94557-0.68081-0.97079-0.68082-1.0212-0.6682-1.059-0.6682-1.0843-0.65559-1.0969-0.65559-1.0716-0.64299-1.0464-0.61777-0.98339-0.60516-0.90775-0.56735-0.79427-0.52952-0.70602-0.5043-0.60517-0.46648-0.54213"/><path d="m36.033-5.5307 0.44127 0.52952 0.47909 0.59254 0.5169 0.68082 0.54213 0.74384 0.56734 0.84471 0.60516 0.90774 0.61778 0.95818 0.63037 0.99599 0.64299 1.0086 0.65559 1.0086 0.65559 0.98339 0.65559 0.97079 0.6556 0.93296 0.68081 0.90774 0.69342 0.89515 0.70602 0.89514"/><path d="m44.253 8.5141-0.68081-0.88253-0.6682-0.86992-0.65559-0.86992-0.64298-0.88252-0.63039-0.89515-0.63037-0.90774-0.61778-0.90775-0.61777-0.90775-0.61778-0.89514-0.59255-0.85732-0.56734-0.8321-0.54213-0.76906-0.51691-0.69342-0.47909-0.64298-0.45387-0.57995-0.42865-0.51691"/><path d="m33.814-3.1857 0.39084 0.5169 0.42866 0.55474 0.45387 0.60517 0.47909 0.64298 0.51691 0.69342 0.52951 0.73124 0.56734 0.75646 0.56734 0.78166 0.59255 0.80689 0.59256 0.80687 0.60516 0.80689 0.60516 0.8195 0.41605 0.57994 0.8195 1.0717 0.63038 0.8447 0.65559 0.86992"/><path d="m41.038 8.8797-0.61777-0.8447-0.60516-0.8195-0.59255-0.78167-0.57995-0.76907-0.57994-0.73123-0.56735-0.71863-0.55473-0.70603-0.55474-0.68081-0.52952-0.68081-0.52952-0.65559-0.4917-0.63038-0.47909-0.61777-0.45387-0.57996-0.41605-0.56734-0.40344-0.54212-0.36562-0.50431"/><path d="m31.645-0.73984 0.34041 0.50431 0.36562 0.52951 0.39084 0.51691 0.41605 0.54213 0.42866 0.54212 0.46648 0.54213 0.47909 0.55474 0.50431 0.55473 0.5043 0.57995 0.5169 0.60517 0.52952 0.61777 0.54213 0.65559 0.54213 0.69342 0.55473 0.74384 0.56734 0.78168 0.59255 0.8447"/><path d="m37.722 9.258-0.55473-0.8195-0.52952-0.75645-0.5169-0.70603-0.51691-0.63038-0.4917-0.57995-0.4917-0.52951-0.47909-0.5043-0.46648-0.47909-0.45387-0.45387-0.42866-0.45387-0.42865-0.46648-0.40345-0.46649-0.37823-0.4917-0.35301-0.49169-0.3278-0.5043-0.3278-0.4917"/><path d="m29.527 1.4917 0.28997 0.5043 0.30259 0.47909 0.3278 0.46649 0.3404 0.44126 0.36562 0.41605 0.37823 0.39084 0.39083 0.36562 0.41605 0.37822 0.41606 0.37822 0.44126 0.40345 0.44126 0.45387 0.45387 0.5169 0.46648 0.57995 0.4917 0.65559 0.4917 0.74384 0.5169 0.80689"/><path d="m28.468 2.4373 0.27737 0.4917 0.27737 0.47909 0.28997 0.44126 0.31519 0.41605 0.3278 0.35301 0.34041 0.3278 0.35301 0.30259 0.36562 0.30258 0.37822 0.30257 0.39084 0.34041 0.40344 0.37822 0.41606 0.45387 0.42865 0.54213 0.44127 0.63038 0.45386 0.71863 0.47909 0.79427"/><path d="m32.793 9.9892-0.45387-0.79428-0.41605-0.70603-0.40344-0.61777-0.39084-0.5043-0.37823-0.40345-0.36562-0.3404-0.35301-0.27737-0.3278-0.23954-0.3278-0.23954-0.31518-0.25216-0.30258-0.28997-0.28998-0.31518-0.28997-0.39084-0.26476-0.42865-0.25215-0.46649-0.23955-0.5043"/><path d="m26.35 3.8745 0.22694 0.5043 0.22693 0.46649 0.23954 0.41605 0.25216 0.37822 0.25215 0.28998 0.27737 0.25215 0.27737 0.21433 0.28997 0.20173 0.30258 0.20172 0.31518 0.23954 0.31519 0.30258 0.3404 0.37822 0.35302 0.47909 0.36561 0.60517 0.39084 0.70602 0.40345 0.79428"/><path d="m25.266 4.4167 0.20172 0.5043 0.20173 0.46649 0.21433 0.42865 0.22693 0.35302 0.22693 0.28997 0.23955 0.22693 0.25215 0.18912 0.25216 0.1765 0.27736 0.1765 0.27737 0.21433 0.27737 0.26477 0.30258 0.36561 0.3278 0.4791 0.3278 0.59255 0.35301 0.69342 0.36562 0.81949"/><path d="m24.156 4.8705 0.18912 0.5043 0.1765 0.47909 0.20172 0.41606 0.18912 0.35301 0.20172 0.27736 0.21433 0.22694 0.21433 0.1765 0.22693 0.15129 0.23954 0.16389 0.23955 0.20173 0.26475 0.25215 0.26477 0.35302 0.27737 0.47909 0.30257 0.59255 0.31519 0.70602 0.3278 0.83211"/><path d="m28.002 11.036 1.5886-0.37823 1.5886-0.35301 1.6138-0.31518 1.6138-0.27738 1.6516-0.23953 1.6642-0.21433 1.6642-0.18912 1.6516-0.18912 1.6264-0.1765 1.5886-0.18911 1.5255-0.18912 1.4625-0.22694 1.3868-0.23953 1.2986-0.26477 1.2355-0.27736 1.1851-0.30258"/><path d="m51.54 6.1313-1.1599 0.28997-1.2229 0.27737-1.2986 0.25216-1.349 0.25215-1.4373 0.22694-1.5003 0.20172-1.5633 0.20172-1.5886 0.20173-1.6264 0.18912-1.6264 0.21432-1.6264 0.22693-1.6138 0.25216-1.5886 0.27737-1.5633 0.31518-1.5507 0.32781-1.5507 0.36561"/><path d="m27.359 9.4975 1.5129-0.35301 1.5129-0.34041 1.5381-0.31519l1.5507-0.28997 1.5759-0.27737 1.5886-0.23953 1.5886-0.23955 1.8659-0.25215 1.286-0.20172 1.5255-0.22694 1.4751-0.22694 1.412-0.23953 1.3364-0.26477 1.2734-0.26476 1.2103-0.27737 1.1599-0.27736"/><path d="m50.015 4.2275-1.1347 0.28998-1.1977 0.27736-1.2608 0.27737-1.3238 0.27737-1.3994 0.27737-1.4499 0.26476-1.5003 0.26476-1.5255 0.27737-1.5507 0.26476-1.5507 0.27737-1.5634 0.28997-1.5255 0.30258-1.5129 0.30258-1.5003 0.3278-1.4751 0.35302-1.4877 0.35301"/><path d="m26.779 8.4259 1.4373-0.35302 1.4499-0.35301 1.4625-0.35301 1.4751-0.34041 1.4877-0.34041 1.5129-0.3404 1.5255-0.34041 1.5129-0.34041 1.5003-0.32779 1.4625-0.3278 1.4373-0.31519 1.3742-0.31519 1.3112-0.30258 1.2355-0.30257 1.1977-0.28998 1.1347-0.28997"/><path d="m48.59 2.0717-1.1347 0.28997-1.1851 0.31518-1.2355 0.3278-1.2986 0.35301-1.349 0.36562l-1.412 0.39084-1.4373 0.40345-1.4751 0.41605-1.4751 0.41605-1.4751 0.41605-1.4751 0.40345-1.4499 0.40344-1.4373 0.39084-1.4247 0.37823-1.412 0.36562-1.3994 0.36561"/><path d="m26.249 7.8207 1.3868-0.37823 1.3742-0.40344 1.3742-0.41605 1.3994-0.42866 1.412-0.47909 1.4247-0.47909 1.4373-0.5043 1.4373-0.51691 1.4373-0.50431 1.412-0.50429 1.3868-0.46649 1.3364-0.44126 1.286-0.40345 1.2229-0.36561 1.1851-0.34041 1.1221-0.30258"/><path d="m47.19-0.3364-1.1221 0.31519-1.1725 0.36562-1.2229 0.40345-1.2734 0.46648-1.3238 0.51691-1.349 0.56734-1.3868 0.60517-1.3994 0.60516-1.3994 0.61778-1.3994 0.60517-1.3868 0.57994-1.3616 0.54213-1.3616 0.4917-1.3364 0.45387-1.3364 0.42865-1.349 0.39084"/><path d="m25.77 7.4551 1.3112-0.40345 1.3112-0.45386 1.3112-0.4917 1.3112-0.55473 1.3238-0.61778 1.3364-0.68081 1.3616-0.70603 1.349-0.71863 1.3616-0.73124 1.3616-0.70602 1.3238-0.6682 1.3112-0.60516l1.2608-0.52952 1.2103-0.45387 1.1599-0.39084 1.1347-0.3278"/><path d="m45.829-2.8201-1.1347 0.34041-1.1599 0.42866-1.1977 0.49169-1.2481 0.60517-1.286 0.68081-1.3112 0.76906-1.3112 0.8195-1.3238 0.8321-1.3238 0.84471-1.3112 0.80688-1.2986 0.75646-1.2734 0.69342-1.2734 0.61777-1.2734 0.52951-1.2734 0.47909-1.286 0.42866"/><path d="m25.329 7.1273 1.2482-0.44127 1.2481-0.5043 1.2355-0.56734 1.2355-0.6682 1.2355-0.75645 1.2607-0.84471 1.2608-0.90775 1.2734-0.94556 1.286-0.93296 1.286-0.92036 1.286-0.86992 1.2608-0.76906 1.2355-0.65559 1.1851-0.55473 1.1599-0.44127 1.1221-0.37822"/><path d="m44.48-5.1525-1.1095 0.37822-1.1473 0.4791-1.1851 0.59255-1.2103 0.71863-1.2482 0.84471-1.2481 0.94556-1.2481 1.0212-1.2482 1.0338-1.2481 1.0338-1.2229 0.9834-1.2103 0.92035-1.1977 0.81949-1.1977 0.70603-1.2103 0.60517-1.2103 0.52951-1.2229 0.44126"/><path d="m24.913 6.623 1.1977-0.45387 1.1851-0.52952 1.1725-0.63037 1.1599-0.74385 1.1599-0.88252 1.1725-0.97079 1.1977-1.059 1.1977-1.1095 1.2103-1.1095 1.2229-1.0969 1.2229-1.0212 1.2103-0.90775 1.1977-0.75645 1.1725-0.63038 1.1347-0.4917 1.1095-0.39084"/><path d="m43.219-7.0436-1.1095 0.40345-1.1221 0.5043-1.1599 0.65559-1.1725 0.79428-1.1851 0.95818-1.1977 1.0716-1.1851 1.1473-1.1851 1.1725-1.1599 1.1473-1.1599 1.1095-1.1347 1.0212-1.1347 0.90774-1.1347 0.76906-1.1347 0.64299-1.1599 0.55473-1.1599 0.45388"/><path d="m24.522 5.8539 1.1473-0.46648 1.1347-0.54213 1.1095-0.65559 1.1095-0.78167 1.0969-0.93296 1.1095-1.0464 1.1221-1.1347 1.1347-1.1977 1.1473-1.2103 1.1599-1.1851 1.1599-1.1095 1.1725-0.98338 1.1473-0.8195 1.1473-0.6556 1.1095-0.52952 1.0843-0.39084"/><path d="m42.047-8.4305-1.0716 0.40345-1.0969 0.52951-1.1221 0.66819-1.1347 0.8321-1.1473 0.99601-1.1347 1.1221-1.1347 1.2103-1.1221 1.2229-1.0969 1.2103-1.0843 1.1599-1.0843 1.0716-1.0716 0.93296-1.0842 0.79427-1.0843 0.65559-1.1095 0.54213-1.1221 0.45387"/><path d="m24.156 4.8705 1.1095-0.45387 1.0843-0.54213 1.0716-0.65559 1.0464-0.78167 1.059-0.94556 1.0464-1.059 1.0716-1.1725 1.0716-1.2103 1.0969-1.2355 1.0969-1.2103 1.1221-1.1347 1.1221-1.0086 1.1095-0.83209 1.0969-0.6682 1.0843-0.51691 1.059-0.40345"/><path d="m31.645-0.73984-0.31518 0.34041-0.30258 0.3278-0.30258 0.34041-0.15129 0.16389-0.31518 0.31519-0.31518 0.3278-0.31519 0.31518-0.10086 0.10086-0.3404 0.30258-0.34041 0.30257-0.34041 0.30259-0.03779 0.037789-0.35301 0.26476-0.36562 0.27737-0.3278 0.23954-0.39084 0.23954-0.39084 0.23954-0.28997 0.1765-0.40345 0.20172-0.41604 0.20173-0.26477 0.13868-0.41605 0.1765-0.42866 0.1639-0.26476 0.11347 0.15129 0.42866 0.03779 0.075668 0.16389 0.42866 0.01266 0.050446 0.18911 0.40345 0.01266 0.012657 0.18912 0.35301 0.20172 0.27736 0.21433 0.22694 0.21433 0.1765 0.22693 0.15129 0.23954 0.16389 0.23954 0.20173 0.26476 0.25215 0.26477 0.35301 0.22693 0.39084 0.05045 0.088234 0.20172 0.40344 0.10086 0.18911 0.1765 0.41606 0.13869 0.28997 0.16389 0.42866 0.1639 0.40345 0.44126-0.11348 0.44127-0.10086 0.44126-0.10086 0.26476-0.06301 0.44126-0.10086 0.44127-0.10085 0.45386-0.08823 0.25216-0.06301 0.45387-0.08823 0.44126-0.08823 0.44126-0.07567l0.27737-0.063011 0.44127-0.075669 0.44125-0.075668 0.45388-0.075669 0.27736-0.050446 0.45387-0.063011 0.45387-0.063011 0.44127-0.063011 0.30257-0.050446 0.45387-0.063011 0.45387-0.050446 0.44126-0.063011 0.31519-0.037788 0.45387-0.050446 0.45386-0.050446 0.44127-0.063011 0.31518-0.025223 0.45387-0.050446 0.45387-0.050446 0.45386-0.050446 0.28998-0.037788 0.45387-0.050446 0.45387-0.050446 0.45387-0.050446 0.26476-0.025223 0.45387-0.050446 0.45386-0.063011 0.45388-0.050446 0.22693-0.025223 0.45387-0.050446 0.44126-0.063011 0.45387-0.063011 0.1765-0.012657 0.45387-0.075669 0.45387-0.063011 0.44126-0.063011 0.11347-0.025223 0.45387-0.075669 0.44126-0.075668 0.44127-0.075669 0.05045-0.012657 0.44127-0.088234 0.44126-0.088234 0.41605-0.088234 0.44126-0.10086 0.44127-0.10085 0.35301-0.075668 0.44125-0.11348 0.44127-0.11348 0.30257-0.075668-0.30257-0.3278-0.30258-0.34041-0.20172-0.21432-0.28998-0.35302-0.28997-0.3404-0.18912-0.22694-0.27736-0.36562-0.27738-0.35301-0.20172-0.26476-0.25215-0.36562-0.26477-0.37822-0.20172-0.28998-0.23954-0.37822-0.25216-0.39084-0.21432-0.35301-0.23954-0.39084-0.22694-0.39084-0.22693-0.39084-0.012658-0.012657-0.21433-0.39084-0.22694-0.39084-0.22693-0.40345-0.02522-0.037788-0.21433-0.40344-0.21433-0.39084-0.22693-0.40345-0.02522-0.050446-0.22694-0.40345-0.21433-0.39084-0.21433-0.40344-0.02522-0.050446-0.22693-0.39084-0.22694-0.39084-0.21433-0.39084-0.01266-0.025223-0.22694-0.39084-0.22694-0.37823-0.21433-0.35301-0.23953-0.37823-0.23954-0.37822-0.1639-0.25215-0.26476-0.37823-0.26476-0.36561-0.08823-0.13869-0.28998-0.35301-0.27736-0.35301-0.03779-0.037788-0.30258-0.34041-0.26476-0.30257-0.32781-0.31519-0.21433-0.21433-0.42865 0.1639-0.41605 0.15129-0.21433 0.088234-0.41605 0.18911-0.40345 0.20173-0.26476 0.12607-0.39083 0.23954-0.37823 0.22694-0.3278 0.20173-0.36562 0.27736-0.36562 0.26476-0.35301 0.27737-0.02522 0.012657-0.3404 0.30258-0.34041 0.30258-0.34041 0.30258-0.10086 0.10085-0.31518 0.31519-0.3278 0.3278-0.31518 0.3278-0.1639 0.16389-0.30259 0.32781-0.30257 0.3404-0.30258 0.3278-0.18912 0.21433-0.30258 0.3278-0.30258 0.34041-0.30257 0.34041-0.18912 0.22693-0.30258 0.34041-0.28998 0.3404-0.30257 0.3278-0.17652 0.20173"/></g><path d="m26.554 6.5713c11.271-7.7224 14.339-3.5451 20.451 0.019169" color="#000000" color-rendering="auto" image-rendering="auto" shape-rendering="auto" solid-color="#000000" stroke="#555" stroke-miterlimit="100" stroke-width=".27045" style="isolation:auto;mix-blend-mode:normal"/></g><circle cx="37.105" cy="2.1967" r=".68941" fill="#555"/></svg>
