<?xml version="1.0" encoding="UTF-8"?>
<svg width="180" height="18" version="1.1" viewBox="0 0 47.624999 4.7625001" xmlns="http://www.w3.org/2000/svg"><g fill="none"><g stroke="#798cb6" stroke-width=".18389"><path d="m53.584 7.0091-0.76016-0.83143-0.72453-0.86706-0.71266-0.92646-0.67702-0.97395-0.66515-1.0571-0.66514-1.1165-0.65327-1.1521-0.64139-1.1758-0.64139-1.164-0.6414-1.1402-0.62951-1.0571-0.60575-0.95021-0.582-0.83143-0.57012-0.70077-0.53449-0.60575-0.51075-0.49886"/><path d="m42.371-7.6597 0.49886 0.49886 0.52262 0.59387 0.54637 0.71266 0.582 0.81955 0.60576 0.93833 0.61763 1.0571 0.62951 1.1046 0.64139 1.1521 0.65327 1.164 0.65327 1.1402 0.65327 1.1046 0.66515 1.0571 0.67702 0.97395 0.68889 0.91458 0.72454 0.87894 0.73641 0.84332"/><path d="m51.303 7.5555-0.72453-0.84331-0.71266-0.87894-0.67703-0.91458-0.67702-0.96208-0.65326-1.0334-0.65327-1.0809-0.64139-1.1165-0.64139-1.1402-0.6414-1.1165-0.62951-1.0927-0.60575-1.0215-0.59388-0.92645-0.57012-0.80768-0.53449-0.6889-0.51074-0.59387-0.48698-0.51074"/><path d="m40.316-6.5432 0.46323 0.51073 0.48697 0.58201 0.52262 0.68889 0.55824 0.78393 0.582 0.89082 0.60575 0.98582 0.61764 1.0334 0.62951 1.0809 0.62951 1.0927 0.6414 1.0809 0.64139 1.0453 0.65326 1.0096 0.65327 0.93833 0.66515 0.9027 0.68889 0.86707 0.72454 0.85519"/><path d="m48.774 8.0306-0.6889-0.84331-0.67702-0.85518-0.65327-0.89082-0.64139-0.91458-0.6414-0.96208-0.62951-0.99769-0.62951-1.0215-0.61763-1.0334-0.61763-1.0096-0.60576-0.98582-0.582-0.92646-0.57012-0.85519-0.5345-0.74828-0.49886-0.66514-0.4751-0.57013-0.43947-0.51074"/><path d="m38.215-4.8091 0.41572 0.49886 0.45135 0.55823 0.48697 0.6414 0.51074 0.70077 0.53449 0.7958 0.57012 0.85518 0.58201 0.9027 0.59387 0.93833 0.60576 0.95021 0.61763 0.95021 0.61763 0.92645 0.61763 0.91458 0.61764 0.87894 0.64139 0.85518 0.65327 0.84332 0.66514 0.84331"/><path d="m45.959 8.4225-0.64139-0.83143-0.62951-0.81955-0.61763-0.81955-0.60575-0.83143-0.59389-0.84332-0.59387-0.85518-0.58201-0.85519-0.582-0.85519-0.58201-0.84331-0.55824-0.80768-0.53449-0.78392-0.51074-0.72453-0.48698-0.65327-0.45135-0.60575-0.42759-0.54637-0.40383-0.48698"/><path d="m36.124-2.5999 0.36821 0.48697 0.40384 0.52262 0.42759 0.57013 0.45135 0.60575 0.48698 0.65327 0.49885 0.6889 0.53449 0.71266 0.53449 0.7364 0.55824 0.76017 0.55825 0.76015 0.57012 0.76017 0.57012 0.77205 0.39196 0.54636 0.77205 1.0097 0.59388 0.79579 0.61763 0.81955"/><path d="m42.93 8.767-0.582-0.79579-0.57012-0.77205-0.55824-0.73641-0.54637-0.72454-0.54636-0.68889-0.5345-0.67702-0.52261-0.66515-0.52262-0.64139-0.49886-0.64139-0.49886-0.61763-0.46323-0.59388-0.45135-0.582-0.42759-0.54638-0.39196-0.53449-0.38008-0.51073-0.34445-0.47511"/><path d="m34.081-0.29563 0.3207 0.47511 0.34445 0.49885 0.36821 0.48698 0.39196 0.51074 0.40384 0.51073 0.43947 0.51074 0.45135 0.52262 0.47511 0.52261 0.4751 0.54637 0.48697 0.57013 0.49886 0.582 0.51074 0.61763 0.51074 0.65327 0.52261 0.70077 0.53449 0.73642 0.55824 0.79579"/><path d="m39.806 9.1234-0.52261-0.77205-0.49886-0.71265-0.48697-0.66515-0.48698-0.59388-0.46323-0.54637-0.46323-0.49885-0.45135-0.4751-0.43947-0.45135-0.42759-0.42759-0.40384-0.42759-0.40383-0.43947-0.38009-0.43948-0.35633-0.46323-0.33257-0.46322-0.30882-0.4751-0.30882-0.46323"/><path d="m32.085 1.8067 0.27318 0.4751 0.28507 0.45135 0.30882 0.43948 0.32069 0.41571 0.34445 0.39196 0.35633 0.36821 0.3682 0.34445 0.39196 0.35632 0.39197 0.35632 0.41571 0.38009 0.41571 0.42759 0.42759 0.48697 0.43947 0.54637 0.46323 0.61763 0.46323 0.70077 0.48697 0.76017"/><path d="m31.088 2.6976 0.26131 0.46323 0.26131 0.45135 0.27318 0.41571 0.29694 0.39196 0.30882 0.33257 0.3207 0.30882 0.33257 0.28507 0.34445 0.28506 0.35632 0.28505 0.36821 0.3207 0.38008 0.35632 0.39197 0.42759 0.40383 0.51074 0.41572 0.59388 0.42758 0.67702 0.45135 0.74828"/><path d="m35.162 9.8122-0.42759-0.74829-0.39196-0.66515-0.38008-0.582-0.36821-0.4751-0.35633-0.38009-0.34445-0.32069-0.33257-0.26131-0.30882-0.22567-0.30882-0.22567-0.29693-0.23756-0.28506-0.27318-0.27319-0.29693-0.27318-0.36821-0.24943-0.40383-0.23755-0.43948-0.22568-0.4751"/><path d="m29.092 4.0516 0.2138 0.4751 0.21379 0.43948 0.22567 0.39196 0.23756 0.35632 0.23755 0.27319 0.26131 0.23755 0.26131 0.20192 0.27318 0.19005 0.28506 0.19004 0.29693 0.22567 0.29694 0.28506 0.32069 0.35632 0.33258 0.45135 0.34444 0.57013 0.36821 0.66514 0.38009 0.74829"/><path d="m28.071 4.5624 0.19004 0.4751 0.19005 0.43948 0.20192 0.40383 0.21379 0.33258 0.21379 0.27318 0.22568 0.21379 0.23755 0.17817 0.23756 0.16628 0.2613 0.16628 0.26131 0.20192 0.26131 0.24944 0.28506 0.34444 0.30882 0.45136 0.30882 0.55824 0.33257 0.65327 0.34445 0.77204"/><path d="m27.025 4.9899 0.17817 0.4751 0.16628 0.45135 0.19004 0.39197 0.17817 0.33257 0.19004 0.2613 0.20192 0.2138 0.20192 0.16628 0.21379 0.14253 0.22567 0.1544 0.22568 0.19005 0.24942 0.23755 0.24944 0.33258 0.26131 0.45135 0.28505 0.55824 0.29694 0.66514 0.30882 0.78393"/><path d="m30.649 10.798 1.4966-0.35633 1.4966-0.33257 1.5204-0.29693 1.5204-0.26132 1.556-0.22566 1.5678-0.20192 1.5678-0.17817 1.556-0.17817 1.5322-0.16628 1.4966-0.17816 1.4372-0.17817 1.3778-0.2138 1.3065-0.22566 1.2234-0.24944 1.164-0.2613 1.1165-0.28506"/><path d="m52.824 6.1777-1.0927 0.27318-1.1521 0.26131-1.2234 0.23756-1.2709 0.23755-1.3541 0.2138-1.4134 0.19004-1.4728 0.19004-1.4966 0.19005-1.5322 0.17817-1.5322 0.20191-1.5322 0.21379-1.5204 0.23756-1.4966 0.26131-1.4728 0.29693-1.4609 0.30883-1.4609 0.34444"/><path d="m30.043 9.349 1.4253-0.33257 1.4253-0.3207 1.449-0.29694 1.4609-0.27318 1.4847-0.26131 1.4966-0.22566 1.4966-0.22568 1.7579-0.23755 1.2115-0.19004 1.4372-0.2138 1.3897-0.2138 1.3302-0.22566 1.259-0.24944 1.1997-0.24943 1.1402-0.26131 1.0927-0.2613"/><path d="m51.387 4.3841-1.069 0.27319-1.1284 0.2613-1.1878 0.26131-1.2472 0.26131-1.3184 0.26131-1.366 0.24943-1.4134 0.24943-1.4372 0.26131-1.4609 0.24943-1.4609 0.26131-1.4729 0.27318-1.4372 0.28506-1.4253 0.28506-1.4134 0.30882-1.3897 0.33258-1.4016 0.33257"/><path d="m29.496 8.3394 1.3541-0.33258 1.366-0.33257 1.3778-0.33257 1.3897-0.3207 1.4016-0.3207 1.4253-0.32069 1.4372-0.3207 1.4253-0.3207 1.4134-0.30881 1.3778-0.30882 1.3541-0.29694 1.2946-0.29694 1.2353-0.28506 1.164-0.28505 1.1284-0.27319 1.069-0.27318"/><path d="m50.045 2.3531-1.069 0.27318-1.1165 0.29693-1.164 0.30882-1.2234 0.33257-1.2709 0.34445-1.3302 0.36821-1.3541 0.38009-1.3897 0.39196-1.3897 0.39196-1.3897 0.39196-1.3897 0.38009-1.366 0.38008-1.3541 0.36821-1.3422 0.35633-1.3302 0.34445-1.3184 0.34444"/><path d="m28.997 7.7693 1.3065-0.35633 1.2946-0.38008 1.2946-0.39196 1.3184-0.40384 1.3302-0.45135 1.3422-0.45135 1.3541-0.4751 1.3541-0.48698 1.3541-0.47511 1.3302-0.47509 1.3065-0.43948 1.259-0.41571 1.2115-0.38009 1.1521-0.34444 1.1165-0.3207 1.0571-0.28506"/><path d="m48.726 0.084454-1.0571 0.29694-1.1046 0.34445-1.1521 0.38009-1.1997 0.43947-1.2472 0.48698-1.2709 0.53449-1.3065 0.57013-1.3184 0.57012-1.3184 0.58201-1.3184 0.57013-1.3065 0.54636-1.2828 0.51074-1.2828 0.46323-1.259 0.42759-1.259 0.40383-1.2709 0.36821"/><path d="m28.546 7.4249 1.2353-0.38009 1.2353-0.42758 1.2353-0.46323 1.2353-0.52261 1.2472-0.58201 1.259-0.64139 1.2828-0.66515 1.2709-0.67702 1.2828-0.6889 1.2828-0.66514 1.2472-0.62951 1.2353-0.57012 1.1878-0.49886 1.1402-0.42759 1.0927-0.36821 1.069-0.30882"/><path d="m47.443-2.2554-1.069 0.3207-1.0927 0.40384-1.1284 0.46322-1.1758 0.57013-1.2115 0.64139-1.2353 0.72453-1.2353 0.77205-1.2472 0.78392-1.2472 0.7958-1.2353 0.76016-1.2234 0.71266-1.1997 0.65327-1.1997 0.582-1.1997 0.49885-1.1997 0.45135-1.2115 0.40384"/><path d="m28.13 7.116 1.1759-0.41572 1.1758-0.4751 1.164-0.53449 1.164-0.62951 1.164-0.71265 1.1877-0.7958 1.1878-0.85519 1.1997-0.89082 1.2115-0.87894 1.2115-0.86707 1.2115-0.81955 1.1878-0.72453 1.164-0.61763 1.1165-0.52261 1.0927-0.41572 1.0571-0.35632"/><path d="m46.173-4.4528-1.0453 0.35632-1.0809 0.45136-1.1165 0.55824-1.1402 0.67702-1.1759 0.7958-1.1758 0.89082-1.1758 0.96208-1.1759 0.97395-1.1758 0.97395-1.1521 0.92646-1.1402 0.86706-1.1284 0.77204-1.1284 0.66515-1.1402 0.57013-1.1402 0.49885-1.1521 0.41571"/><path d="m27.738 6.6409 1.1284-0.42759 1.1165-0.49886 1.1046-0.59387 1.0927-0.70078 1.0927-0.83142 1.1046-0.91458 1.1284-0.99769 1.1284-1.0453 1.1402-1.0453 1.1521-1.0334 1.1521-0.96208 1.1402-0.85519 1.1284-0.71265 1.1046-0.59388 1.069-0.46323 1.0453-0.36821"/><path d="m44.985-6.2344-1.0453 0.38009-1.0571 0.4751-1.0927 0.61763-1.1046 0.74829-1.1165 0.9027-1.1284 1.0096-1.1165 1.0809-1.1165 1.1046-1.0927 1.0809-1.0927 1.0453-1.069 0.96208-1.069 0.85518-1.069 0.72453-1.069 0.60576-1.0927 0.52261-1.0927 0.4276"/><path d="m27.37 5.9164 1.0809-0.43947 1.069-0.51074 1.0453-0.61763 1.0453-0.73641 1.0334-0.87894 1.0453-0.98582 1.0571-1.069 1.069-1.1284 1.0809-1.1402 1.0927-1.1165 1.0927-1.0453 1.1046-0.92645 1.0809-0.77205 1.0809-0.61764 1.0453-0.49886 1.0215-0.36821"/><path d="m43.88-7.541-1.0096 0.38009-1.0334 0.49885-1.0571 0.6295-1.069 0.78392-1.0809 0.93834-1.069 1.0571-1.069 1.1402-1.0571 1.1521-1.0334 1.1402-1.0215 1.0927-1.0215 1.0096-1.0096 0.87894-1.0214 0.74828-1.0215 0.61763-1.0453 0.51074-1.0571 0.42759"/><path d="m27.025 4.9899 1.0453-0.42759 1.0215-0.51074 1.0096-0.61763 0.98582-0.73641 0.99769-0.89082 0.98582-0.99769 1.0096-1.1046 1.0096-1.1402l1.0334-1.164 1.0334-1.1402 1.0571-1.069 1.0571-0.95021 1.0453-0.78391 1.0334-0.62951 1.0215-0.48698 0.99769-0.38009"/><path d="m34.081-0.29563-0.29693 0.3207-0.28506 0.30882-0.28506 0.3207-0.14253 0.1544-0.29693 0.29694-0.29693 0.30882-0.29694 0.29693-0.09502 0.09502-0.32069 0.28506-0.3207 0.28505-0.3207 0.28507-0.03561 0.035601-0.33257 0.24943-0.34445 0.26131-0.30882 0.22567-0.36821 0.22567-0.36821 0.22567-0.27318 0.16628-0.38009 0.19004-0.39195 0.19005-0.24944 0.13065-0.39196 0.16628-0.40384 0.15441-0.24943 0.1069 0.14253 0.40384 0.03561 0.071288 0.1544 0.40384 0.01193 0.047525 0.17816 0.38009 0.01193 0.011924 0.17817 0.33257 0.19004 0.2613 0.20192 0.2138 0.20192 0.16628 0.21379 0.14253 0.22567 0.1544 0.22567 0.19005 0.24943 0.23755 0.24944 0.33257 0.21379 0.36821 0.04753 0.083126 0.19004 0.38008 0.09502 0.17816 0.16628 0.39197 0.13066 0.27318 0.1544 0.40384 0.15441 0.38009 0.41571-0.10691 0.41572-0.09502 0.41571-0.09502 0.24943-0.05936 0.41571-0.09502 0.41572-0.09501 0.42758-0.08312 0.23756-0.05936 0.42759-0.08312 0.41571-0.08312 0.41571-0.071292 0.26131-0.059363 0.41572-0.071292 0.4157-0.071283 0.4276-0.071292 0.2613-0.047525 0.42759-0.059363 0.42759-0.059363 0.41572-0.059363 0.28505-0.047525 0.42759-0.059363 0.42759-0.047525 0.41571-0.059363 0.29694-0.035596 0.42759-0.047525 0.42758-0.047525 0.41572-0.059363 0.29693-0.023763 0.42759-0.047525 0.42759-0.047525 0.42758-0.047525 0.27319-0.0356 0.42759-0.047525 0.42759-0.047525 0.42759-0.047525 0.24943-0.023763 0.42759-0.047525 0.42758-0.059362 0.4276-0.047525 0.21379-0.023762 0.42759-0.047525 0.41571-0.059362 0.42759-0.059362 0.16628-0.011924 0.42759-0.071288 0.42759-0.059363 0.41571-0.059362 0.1069-0.023763 0.42759-0.071288 0.41571-0.071288 0.41572-0.071288 0.04753-0.011924 0.41572-0.083126 0.41571-0.083126 0.39196-0.083126 0.41571-0.09502 0.41572-0.095011 0.33257-0.071287l0.4157-0.10691 0.41572-0.10691 0.28505-0.071287-0.28505-0.30883-0.28506-0.3207-0.19004-0.20191-0.27319-0.33258-0.27318-0.32069-0.17817-0.2138-0.2613-0.34445-0.26132-0.33257-0.19004-0.24943-0.23755-0.34445-0.24944-0.35632-0.19004-0.27319-0.22567-0.35632-0.23756-0.36821-0.20191-0.33257-0.22567-0.36821-0.2138-0.36821-0.21379-0.36821-0.011927-0.011924-0.20192-0.36821-0.2138-0.36821-0.21379-0.38009-0.02376-0.0356-0.20192-0.38008-0.20192-0.36821-0.21379-0.38009-0.02376-0.047525-0.2138-0.38009-0.20192-0.36821-0.20192-0.38008-0.02376-0.047525-0.21379-0.36821-0.2138-0.36821-0.20192-0.36821-0.01193-0.023763-0.2138-0.36821-0.2138-0.35633-0.20192-0.33257-0.22566-0.35633-0.22567-0.35632-0.15441-0.23755-0.24943-0.35633-0.24943-0.34444-0.08312-0.13066-0.27319-0.33257-0.2613-0.33257-0.03561-0.0356-0.28506-0.3207-0.24943-0.28505-0.30883-0.29694-0.20192-0.20192-0.40383 0.15441-0.39196 0.14253-0.20192 0.083126-0.39196 0.17816-0.38009 0.19005-0.24943 0.11877-0.3682 0.22567-0.35633 0.2138-0.30882 0.19005-0.34445 0.2613-0.34445 0.24943-0.33257 0.26131-0.02376 0.011924-0.32069 0.28506-0.3207 0.28506-0.3207 0.28506-0.09502 0.095011-0.29693 0.29694-0.30882 0.30882-0.29693 0.30882-0.15441 0.1544-0.28507 0.30883-0.28505 0.32069-0.28506 0.30882-0.17817 0.20192-0.28506 0.30882-0.28506 0.3207-0.28505 0.3207-0.17817 0.21379-0.28506 0.3207-0.27319 0.32069-0.28505 0.30882-0.1663 0.19005"/></g><path d="m29.59 6.0727c10.618-7.2753 13.509-3.3399 19.267 0.018059" color="#000000" color-rendering="auto" image-rendering="auto" shape-rendering="auto" solid-color="#000000" stroke="#b0bbd4" stroke-miterlimit="100" stroke-width=".25479" style="isolation:auto;mix-blend-mode:normal"/></g><circle cx="39.53" cy="1.9514" r=".6495" fill="#b0bbd4" stroke-width=".9421"/></svg>
