<?xml version="1.0" encoding="UTF-8"?>
<svg width="288" height="74" version="1.1" viewBox="0 0 76.19904 19.57892" xmlns="http://www.w3.org/2000/svg"><g fill="#fff"><path d="m22.487 11.49-0.25611-0.20435q0.44684-0.48226 0.82011-1.2697 0.37327-0.78741 0.51495-1.5639h-0.39234q-0.24794 0.5313-0.52858 0.90457l-0.30243-0.18255q0.53947-0.78469 0.76834-1.8609l0.41686 0.057217q-0.07901 0.40324-0.23432 0.78469h2.2941v1.7655q0 0.65118-0.05722 1.1471-0.05449 0.49316-0.13351 0.69205-0.07629 0.1989-0.21524 0.30516-0.13896 0.10898-0.26974 0.13896-0.12806 0.02997-0.63211 0.02997-0.12806 0-0.20707-0.0027l-0.06267-0.3651h0.56944q0.19617 0 0.32968-0.14168 0.13623-0.14168 0.19617-0.64301 0.06267-0.50405 0.06267-1.1743v-1.455h-0.28608q-0.14168 1.2315-0.60486 2.2396-0.46046 1.0081-1.0462 1.5285l-0.26156-0.22342q0.564-0.56944 0.98903-1.5667 0.42504-0.99721 0.53402-1.9781h-0.53675q-0.12261 0.74927-0.5204 1.6048-0.39507 0.85553-0.94816 1.4331zm-1.7982-0.76834-0.12533-0.35147q0.28608-0.06267 1.0245-0.31333v-1.2751h-0.48498q-0.08991 0.48498-0.22887 0.80104l-0.34058-0.10626q0.10898-0.28064 0.19617-0.79559 0.08719-0.51768 0.08991-1.0326l0.40324 0.00545q-0.01635 0.41959-0.07084 0.81466h0.43594v-1.128h0.41414v1.128h0.43866v0.31333h-0.43866v1.1307q0.3433-0.12261 0.5531-0.2098l0.08446 0.30243q-0.16348 0.09809-0.63756 0.27791v2.0162h-0.41414v-1.8664q-0.54765 0.188-0.89912 0.28881z"/><path d="m29.457 11.836v-0.76834h-1.3705v-0.34603h1.3705v-0.66753h-1.2342v-2.5611h2.9099v2.5611h-1.2424v0.66753h1.3787v0.34603h-1.3787v0.76834h1.5993v0.3542h-3.7055v-0.3542zm-0.80648-3.215h0.80648v-0.80921h-0.80648zm1.2397 0h0.81466v-0.80921h-0.81466zm0.81466 0.31333h-0.81466v0.79559h0.81466zm-1.2479 0h-0.80648v0.79559h0.80648zm-3.305 2.5339-0.09809-0.37055q0.37327-0.07629 0.76289-0.16893v-1.5094h-0.59124v-0.3324h0.59124v-1.1879h-0.59124v-0.32423h1.6102v0.32423h-0.58579v1.1879h0.52857v0.3324h-0.52857v1.4004q0.34875-0.09264 0.5531-0.1662l0.04359 0.34058q-0.188 0.07629-0.75199 0.23432-0.564 0.15803-0.94272 0.23977z"/><path d="m32.857 8.1738q-0.23977-0.44956-0.37055-0.67298l0.39507-0.11443q0.15803 0.27246 0.43594 0.78741h0.96996q-0.092637-0.22069-0.38145-0.78741l0.37327-0.10626q0.27246 0.49043 0.43321 0.89367h0.74927q0.32423-0.52313 0.44684-0.84463l0.44411 0.11443q-0.1771 0.31605-0.45228 0.7302h0.8964v0.88005h-0.40052v-0.54492h-4.0569v0.54492h-0.3869v-0.88005zm1.2697 4.0924h-0.80921l-0.05722-0.38144h0.68933q0.10354 0 0.17438-0.05994t0.07084-0.14168v-0.99993h-2.3323v-0.33513h2.3323v-0.53675h0.25066q0.40052-0.17165 0.92637-0.51768h-2.6292v-0.32423h3.1714l0.1989 0.2098q-0.55037 0.47408-1.4849 0.88822v0.28064h2.2751v0.33513h-2.2751v1.1498q0 0.188-0.1444 0.31061-0.14168 0.12261-0.35692 0.12261z"/><path d="m40.083 12.048-0.10626-0.36782q0.87732-0.07901 1.4985-0.5095 0.62394-0.43049 0.62394-1.286 0-0.76289-0.50405-1.1798-0.50133-0.41687-1.4004-0.44139-0.02997 1.4658-0.52585 2.4467-0.49588 0.98086-1.2424 0.98086-0.46318 0-0.7302-0.39234-0.26429-0.39507-0.26429-0.96179 0-0.93454 0.80648-1.6784 0.80648-0.74654 1.91-0.74654 1.0381 0 1.7111 0.5204 0.67298 0.51768 0.67298 1.4168 0 1.0245-0.67843 1.5667t-1.771 0.63211zm-0.31606-3.7491q-0.79014 0.11988-1.3596 0.71657-0.56944 0.59397-0.56944 1.3432 0 0.39779 0.1662 0.6757 0.1662 0.27519 0.46318 0.27519 0.5095 0 0.88822-0.95089 0.37872-0.95361 0.41142-2.0598z"/><path d="m43.034 12.28-0.10081-0.31333q0.6866-0.08991 1.1498-0.43049 0.46318-0.3433 0.52312-0.98631h-0.92909v-3.1033h3.779v3.1033h-1.1716v1.0817q0 0.11988 0.09264 0.17438 0.09536 0.05177 0.54492 0.05177 0.04359 0 0.26974-0.0109 0.22614-0.01362 0.28336-0.03269t0.10081-0.07901q0.04632-0.05994 0.07084-0.21797 0.02725-0.16075 0.02725-0.51223l0.35692 0.05722v0.65936q0 0.20707-0.13896 0.3215t-0.41414 0.13351q-0.27519 0.01907-0.5095 0.01907-0.16075 0-0.43594-0.0109-0.27246-0.0109-0.34603-0.02725-0.07084-0.01635-0.14985-0.07629-0.07629-0.05722-0.12261-0.15258-0.04359-0.09536-0.04359-0.22342v-1.1552h-0.83102q-0.06267 0.50678-0.26974 0.82556-0.20435 0.31606-0.65663 0.56944-0.44956 0.25611-1.0789 0.33513zm1.049-3.8989h2.9698v-0.62121h-2.9698zm0 0.91002h2.9698v-0.60759h-2.9698zm2.9698 0.29153h-2.9698v0.65936h2.9698z"/><path d="m49.929 11.874-0.06812-0.38417q1.7982-0.04904 2.5584-0.47136 0.76017-0.42504 0.76289-1.2125 0-0.61576-0.37055-0.96179-0.37055-0.34875-1.0081-0.35147-0.40869 0-1.3487 0.12806-0.93727 0.12806-1.7655 0.29153l-0.05994-0.40324q2.4249-0.38962 3.1279-0.38962 0.87732 0.00272 1.3732 0.43866 0.4986 0.43594 0.4986 1.237 0 0.97541-0.81466 1.5013-0.81193 0.52313-2.8854 0.57762z"/><path d="m56.836 12.176-0.17165-0.31878q0.59669-0.22614 0.8746-0.65118t0.27791-1.1334v-0.99448h-1.8173v-0.36782h1.8173v-1.098h0.42776v1.098h1.0926v0.36782h-1.0926v1.0381q0 1.5939-1.4086 2.0598zm-0.90185-1.6402q-0.66753 1.0272-0.76017 1.444l-0.33513-0.0218q-0.32968-0.91547-0.32968-1.9508 0-0.97541 0.31333-2.2778l0.43049 0.076289q-0.3324 1.316-0.3324 2.1824 0 0.70022 0.13078 1.3242 0.33785-0.56944 0.58579-0.94544z"/><path d="m61.673 9.7322q-0.29698 1.6756-1.8309 2.493l-0.21524-0.28064q0.47953-0.27791 0.79286-0.60486 0.31333-0.32968 0.48226-0.66208t0.24249-0.59942q0.07629-0.26701 0.12261-0.51768 0.04632-0.25339 0.06267-1.019h-1.5394v-0.34603h2.2369v-0.83101h0.44411v0.83101h2.3513v0.34603h-3.0461q-0.0054 0.52585-0.04904 0.86098h2.4576v0.71657q0 0.46591-0.0327 0.81738t-0.10354 0.59396q-0.06812 0.24249-0.19345 0.38145-0.12261 0.13896-0.29153 0.1989-0.16893 0.06267-0.28608 0.06812-0.11716 0.0054-0.56944 0.0054h-0.35692l-0.05994-0.38145h0.71112q0.49316 0 0.61849-0.40052 0.12533-0.40047 0.12533-1.1933v-0.47681z"/></g><g shape-rendering="auto"><path d="m11.817 4.3484c3.0167 0 5.4411 2.4243 5.4411 5.441s-2.4243 5.441-5.4411 5.441c-3.0167 0-5.4411-2.4243-5.4411-5.441s2.4243-5.441 5.4411-5.441z" color="#000000" color-rendering="auto" fill="none" image-rendering="auto" solid-color="#000000" stroke="#fff" stroke-width="1.3632" style="isolation:auto;mix-blend-mode:normal;text-decoration-color:#000000;text-decoration-line:none;text-decoration-style:solid;text-indent:0;text-transform:none;white-space:normal"/><path d="m11.817 3.8854c-3.2514 0-5.904 2.6526-5.904 5.904s2.6526 5.904 5.904 5.904 5.904-2.6526 5.904-5.904-2.6526-5.904-5.904-5.904z" color="#000000" color-rendering="auto" fill="#20386f" image-rendering="auto" solid-color="#000000" style="isolation:auto;mix-blend-mode:normal;text-decoration-color:#000000;text-decoration-line:none;text-decoration-style:solid;text-indent:0;text-transform:none;white-space:normal"/><g fill="#fff"><path d="m11.817 5.4598c2.4005 0 4.3296 1.9291 4.3296 4.3296s-1.9291 4.3296-4.3296 4.3296-4.3296-1.9291-4.3296-4.3296 1.9291-4.3296 4.3296-4.3296z" color="#000000" color-rendering="auto" image-rendering="auto" solid-color="#000000" style="isolation:auto;mix-blend-mode:normal;text-decoration-color:#000000;text-decoration-line:none;text-decoration-style:solid;text-indent:0;text-transform:none;white-space:normal"/><path d="m6.5694 9.7895h10.496" color="#000000" color-rendering="auto" image-rendering="auto" solid-color="#000000" stroke="#20386f" stroke-width="1.5744" style="isolation:auto;mix-blend-mode:normal"/><path d="m11.817 4.5414v10.496" color="#000000" color-rendering="auto" image-rendering="auto" solid-color="#000000" stroke="#20386f" stroke-width="1.5744" style="isolation:auto;mix-blend-mode:normal"/></g><path d="m11.817 5.8619c2.1776 0 3.9276 1.75 3.9276 3.9276s-1.75 3.9276-3.9276 3.9276-3.9276-1.75-3.9276-3.9276 1.75-3.9276 3.9276-3.9276z" color="#000000" color-rendering="auto" fill="none" image-rendering="auto" solid-color="#000000" stroke="#fff" stroke-width=".98401" style="isolation:auto;mix-blend-mode:normal;text-decoration-color:#000000;text-decoration-line:none;text-decoration-style:solid;text-indent:0;text-transform:none;white-space:normal"/></g></svg>
