<?xml version="1.0" encoding="UTF-8"?>
<svg width="220" height="75" version="1.1" viewBox="0 0 58.208331 19.84375" xmlns="http://www.w3.org/2000/svg"><g fill="#fff" stroke-dasharray="0.10753563, 0.05376781"><g stroke-width=".053768"><path d="m23.907 5.8569-0.27176-0.21683q0.47414-0.51172 0.87022-1.3472 0.39608-0.83553 0.54642-1.6595h-0.41632q-0.26309 0.56376-0.56087 0.95984l-0.32091-0.1937q0.57244-0.83263 0.81529-1.9746l0.44234 0.060713q-0.08384 0.42788-0.24863 0.83263h2.4343v1.8734q0 0.69097-0.06071 1.2172-0.05782 0.52329-0.14166 0.73434-0.08095 0.21105-0.2284 0.3238-0.14745 0.11564-0.28622 0.14745-0.13588 0.031802-0.67073 0.031802-0.13588 0-0.21972-0.00289l-0.0665-0.38741h0.60424q0.20816 0 0.34982-0.15034 0.14456-0.15034 0.20816-0.6823 0.06649-0.53485 0.06649-1.2461v-1.5438h-0.30356q-0.15034 1.3068-0.64182 2.3765-0.48859 1.0697-1.1102 1.6219l-0.27754-0.23707q0.59846-0.60424 1.0495-1.6624 0.45101-1.0581 0.56666-2.0989h-0.56955q-0.1301 0.79505-0.5522 1.7029-0.41921 0.9078-1.0061 1.5207zm-1.9081-0.81529-0.13299-0.37295q0.30356-0.066495 1.0871-0.33248v-1.353h-0.51462q-0.09541 0.51461-0.24285 0.84998l-0.36139-0.11275q0.11564-0.29778 0.20816-0.8442 0.09252-0.54931 0.09541-1.0957l0.42788 0.00578q-0.01735 0.44523-0.07517 0.86444h0.46258v-1.1969h0.43945v1.1969h0.46547v0.33248h-0.46547v1.1998q0.36428-0.1301 0.58689-0.22261l0.08962 0.32091q-0.17346 0.10408-0.67652 0.29489v2.1394h-0.43945v-1.9804q-0.58111 0.19949-0.95406 0.30646z"/><path d="m31.302 6.2241v-0.81529h-1.4542v-0.36717h1.4542v-0.70832h-1.3097v-2.7176h3.0877v2.7176h-1.3183v0.70832h1.4629v0.36717h-1.4629v0.81529h1.6971v0.37584h-3.9319v-0.37584zm-0.85576-3.4115h0.85576v-0.85865h-0.85576zm1.3154 0h0.86444v-0.85865h-0.86444zm0.86444 0.33248h-0.86444v0.8442h0.86444zm-1.3241 0h-0.85576v0.8442h0.85576zm-3.5069 2.6887-0.10408-0.39319q0.39608-0.080951 0.80951-0.17925v-1.6017h-0.62737v-0.35271h0.62737v-1.2605h-0.62737v-0.34404h1.7086v0.34404h-0.62158v1.2605h0.56087v0.35271h-0.56087v1.486q0.37006-0.098297 0.58689-0.17636l0.04626 0.36139q-0.19948 0.080951-0.79794 0.24863-0.59846 0.16768-1.0003 0.25442z"/><path d="m34.91 2.3384q-0.25442-0.47703-0.39319-0.7141l0.41921-0.12143q0.16768 0.28911 0.46258 0.83553h1.0292q-0.0983-0.23418-0.40475-0.83553l0.39608-0.11275q0.28911 0.5204 0.45968 0.94828h0.79505q0.34404-0.55509 0.47414-0.89624l0.47125 0.12143q-0.18792 0.33537-0.47992 0.77481h0.95117v0.93382h-0.42499v-0.57822h-4.3048v0.57822h-0.41054v-0.93382zm1.3472 4.3424h-0.85866l-0.06071-0.40475h0.73145q0.10986 0 0.18503-0.063604t0.07517-0.15034v-1.061h-2.4748v-0.3556h2.4748v-0.56955h0.26598q0.42499-0.18214 0.98297-0.54931h-2.7899v-0.34404h3.3652l0.21105 0.22261q-0.584 0.50305-1.5756 0.9425v0.29778h2.4141v0.3556h-2.4141v1.22q0 0.19949-0.15323 0.32958-0.15034 0.1301-0.37873 0.1301z"/></g><path d="m41.638 6.4135-0.07844-0.27152q0.64761-0.058325 1.1062-0.3761 0.46057-0.31777 0.46057-0.9493 0-0.56314-0.37208-0.87086-0.37006-0.30772-1.0338-0.32582-0.02212 1.082-0.38817 1.8061-0.36604 0.72404-0.91712 0.72404-0.34191 0-0.53901-0.28962-0.19509-0.29163-0.19509-0.70996 0-0.68985 0.59532-1.2389 0.59532-0.55107 1.4099-0.55107 0.76628 0 1.263 0.38414 0.49677 0.38213 0.49677 1.0458 0 0.75622-0.50079 1.1565-0.5008 0.40023-1.3073 0.4666zm-0.2333-2.7674q-0.58325 0.088494-1.0036 0.52895-0.42034 0.43845-0.42034 0.99153 0 0.29364 0.12268 0.49878 0.12268 0.20313 0.34191 0.20313 0.3761 0 0.65566-0.70192 0.27956-0.70393 0.30369-1.5205z"/><path d="m34.098 14.097-0.10697-0.33248q0.72856-0.09541 1.22-0.45679 0.49149-0.36428 0.55509-1.0466h-0.98586v-3.293h4.0099v3.293h-1.2432v1.1478q0 0.12721 0.0983 0.18503 0.10119 0.05493 0.57822 0.05493 0.04626 0 0.28622-0.01156 0.23996-0.01445 0.30067-0.03469t0.10697-0.08384q0.04915-0.0636 0.07517-0.23129 0.02891-0.17058 0.02891-0.54353l0.37873 0.06071v0.69964q0 0.21972-0.14744 0.34115-0.14745 0.12143-0.43945 0.14166-0.292 0.02024-0.54063 0.02024-0.17058 0-0.46258-0.01156-0.28911-0.01156-0.36717-0.02891-0.07517-0.01735-0.15901-0.08095-0.08095-0.06071-0.1301-0.1619-0.04626-0.10119-0.04626-0.23707v-1.2258h-0.88178q-0.06649 0.53774-0.28622 0.876-0.21683 0.33537-0.69675 0.60424-0.47703 0.27176-1.1449 0.3556zm1.1131-4.1372h3.1513v-0.65917h-3.1513zm0 0.96563h3.1513v-0.64471h-3.1513zm3.1513 0.30935h-3.1513v0.69964h3.1513z"/><path d="m41.415 13.666-0.07228-0.40764q1.9081-0.05204 2.7147-0.50016 0.80662-0.45101 0.80951-1.2865 0-0.65339-0.39319-1.0206-0.39319-0.37006-1.0697-0.37295-0.43366 0-1.4311 0.13588-0.99454 0.13588-1.8734 0.30935l-0.0636-0.42788q2.5731-0.41343 3.319-0.41343 0.93093 0.00289 1.4571 0.46547 0.52907 0.46258 0.52907 1.3126 0 1.035-0.86444 1.593-0.86155 0.55509-3.0617 0.61291z"/><path d="m48.744 13.987-0.18214-0.33826q0.63315-0.23996 0.92804-0.69097t0.29489-1.2027v-1.0552h-1.9284v-0.3903h1.9284v-1.1651h0.4539v1.1651h1.1593v0.3903h-1.1593v1.1015q0 1.6913-1.4947 2.1857zm-0.95695-1.7404q-0.70832 1.0899-0.80662 1.5323l-0.3556-0.02313q-0.34982-0.97141-0.34982-2.07 0-1.035 0.33248-2.417l0.45679 0.080951q-0.35271 1.3964-0.35271 2.3158 0 0.74301 0.13877 1.4051 0.3585-0.60424 0.62158-1.0032z"/><path d="m53.876 11.393q-0.31513 1.778-1.9428 2.6454l-0.2284-0.29778q0.50883-0.29489 0.84131-0.64182 0.33248-0.34982 0.51172-0.70254 0.17925-0.35271 0.25731-0.63604 0.08095-0.28333 0.1301-0.54931 0.04915-0.26887 0.06649-1.0813h-1.6335v-0.36717h2.3736v-0.88178h0.47125v0.88178h2.495v0.36717h-3.2322q-0.0058 0.55798-0.05204 0.91359h2.6078v0.76036q0 0.49438-0.03469 0.86733t-0.10986 0.63026q-0.07228 0.25731-0.20527 0.40475-0.1301 0.14745-0.30935 0.21105-0.17925 0.0665-0.30356 0.07228-0.12432 0.0058-0.60424 0.0058h-0.37873l-0.0636-0.40475h0.75458q0.52329 0 0.65628-0.42499t0.13299-1.2663v-0.50594z"/></g><g shape-rendering="auto"><path d="m10.558 1.4194c4.7141 0 8.5025 3.7884 8.5025 8.5025s-3.7884 8.5025-8.5025 8.5025-8.5025-3.7884-8.5025-8.5025 3.7884-8.5025 8.5025-8.5025z" color="#000000" color-rendering="auto" fill="none" image-rendering="auto" solid-color="#000000" stroke="#fff" stroke-width="2.1302" style="isolation:auto;mix-blend-mode:normal;text-decoration-color:#000000;text-decoration-line:none;text-decoration-style:solid;text-indent:0;text-transform:none;white-space:normal"/><path d="m10.558 0.69589c-5.0808 0-9.226 4.1452-9.226 9.226s4.1452 9.226 9.226 9.226 9.226-4.1452 9.226-9.226-4.1452-9.226-9.226-9.226z" color="#000000" color-rendering="auto" fill="#20386f" image-rendering="auto" solid-color="#000000" style="isolation:auto;mix-blend-mode:normal;text-decoration-color:#000000;text-decoration-line:none;text-decoration-style:solid;text-indent:0;text-transform:none;white-space:normal"/><g fill="#fff"><path d="m10.558 3.1561c3.7512 0 6.7657 3.0145 6.7657 6.7657s-3.0145 6.7657-6.7657 6.7657-6.7657-3.0146-6.7657-6.7657c0-3.7512 3.0145-6.7657 6.7657-6.7657z" color="#000000" color-rendering="auto" image-rendering="auto" solid-color="#000000" style="isolation:auto;mix-blend-mode:normal;text-decoration-color:#000000;text-decoration-line:none;text-decoration-style:solid;text-indent:0;text-transform:none;white-space:normal"/><path d="m2.357 9.9219h16.402" color="#000000" color-rendering="auto" image-rendering="auto" solid-color="#000000" stroke="#20386f" stroke-width="2.4603" style="isolation:auto;mix-blend-mode:normal"/><path d="m10.558 1.721v16.402" color="#000000" color-rendering="auto" image-rendering="auto" solid-color="#000000" stroke="#20386f" stroke-width="2.4603" style="isolation:auto;mix-blend-mode:normal"/></g><path d="m10.558 3.7844c3.4028 0 6.1375 2.7346 6.1375 6.1375s-2.7346 6.1375-6.1375 6.1375-6.1375-2.7346-6.1375-6.1375 2.7346-6.1375 6.1375-6.1375z" color="#000000" color-rendering="auto" fill="none" image-rendering="auto" solid-color="#000000" stroke="#fff" stroke-width="1.5377" style="isolation:auto;mix-blend-mode:normal;text-decoration-color:#000000;text-decoration-line:none;text-decoration-style:solid;text-indent:0;text-transform:none;white-space:normal"/></g></svg>
