<?xml version="1.0" encoding="UTF-8"?>
<svg width="22" height="22" version="1.1" viewBox="0 0 5.8208332 5.8208335" xmlns="http://www.w3.org/2000/svg"><g transform="matrix(.81662 0 0 .81662 .10722 .92238)" shape-rendering="auto"><path d="m3.4327-0.62492c1.6962 0 3.0594 1.3631 3.0594 3.0594 0 1.6962-1.3631 3.0594-3.0594 3.0594-1.6962 0-3.0594-1.3631-3.0594-3.0594 0-1.6962 1.3631-3.0594 3.0594-3.0594z" color="#000000" color-rendering="auto" fill="none" image-rendering="auto" solid-color="#000000" stroke="#fff" stroke-width=".76649" style="isolation:auto;mix-blend-mode:normal;text-decoration-color:#000000;text-decoration-line:none;text-decoration-style:solid;text-indent:0;text-transform:none;white-space:normal"/><path d="m3.4327-0.88525c-1.8282 0-3.3197 1.4915-3.3197 3.3197 0 1.8282 1.4915 3.3197 3.3197 3.3197 1.8282 0 3.3197-1.4915 3.3197-3.3197 0-1.8282-1.4915-3.3197-3.3197-3.3197z" color="#000000" color-rendering="auto" fill="#20386f" image-rendering="auto" solid-color="#000000" style="isolation:auto;mix-blend-mode:normal;text-decoration-color:#000000;text-decoration-line:none;text-decoration-style:solid;text-indent:0;text-transform:none;white-space:normal"/><g fill="#fff"><path d="m3.4327 2.978e-7c1.3498 0 2.4344 1.0847 2.4344 2.4344 0 1.3497-1.0847 2.4344-2.4344 2.4344s-2.4344-1.0847-2.4344-2.4344c0-1.3498 1.0847-2.4344 2.4344-2.4344z" color="#000000" color-rendering="auto" image-rendering="auto" solid-color="#000000" style="isolation:auto;mix-blend-mode:normal;text-decoration-color:#000000;text-decoration-line:none;text-decoration-style:solid;text-indent:0;text-transform:none;white-space:normal"/><path d="m0.48182 2.4344h5.9017" color="#000000" color-rendering="auto" image-rendering="auto" solid-color="#000000" stroke="#20386f" stroke-width=".88525" style="isolation:auto;mix-blend-mode:normal"/><path d="m3.4327-0.51639v5.9017" color="#000000" color-rendering="auto" image-rendering="auto" solid-color="#000000" stroke="#20386f" stroke-width=".88525" style="isolation:auto;mix-blend-mode:normal"/></g><path d="m3.4327 0.22607c1.2244 0 2.2084 0.98397 2.2084 2.2084 0 1.2244-0.98398 2.2084-2.2084 2.2084-1.2244 0-2.2084-0.98397-2.2084-2.2084 0-1.2244 0.98397-2.2084 2.2084-2.2084z" color="#000000" color-rendering="auto" fill="none" image-rendering="auto" solid-color="#000000" stroke="#fff" stroke-width=".55328" style="isolation:auto;mix-blend-mode:normal;text-decoration-color:#000000;text-decoration-line:none;text-decoration-style:solid;text-indent:0;text-transform:none;white-space:normal"/></g></svg>
