<?xml version="1.0" encoding="UTF-8"?>
<svg width="151.26" height="46.442" version="1.1" viewBox="0 0 40.02 12.288" xmlns="http://www.w3.org/2000/svg">
 <g transform="translate(-3.8026 -3.6457)" fill="#20386f" stop-color="#000000" style="font-variation-settings:normal">
  <g stop-color="#000000" style="font-variation-settings:normal">
   <path d="m18.806 8.3805-0.20301-0.16197q0.35418-0.38226 0.65005-1.0064 0.29588-0.62414 0.40818-1.2396h-0.31099q-0.19653 0.42114-0.41897 0.717l-0.23972-0.1447q0.42762-0.62198 0.60903-1.475l0.33042 0.045353q-0.06263 0.31963-0.18573 0.62198h1.8184v1.3994q0 0.51616-0.04535 0.90922-0.04319 0.3909-0.10582 0.54855-0.06047 0.15766-0.17062 0.24188-0.11014 0.086386-0.21381 0.11014-0.10151 0.023756-0.50104 0.023756-0.10151 0-0.16414-0.00216l-0.04967-0.28938h0.45137q0.15549 0 0.26132-0.1123 0.10798-0.1123 0.15549-0.50968 0.04967-0.39953 0.04967-0.93081v-1.1533h-0.22677q-0.1123 0.97616-0.47944 1.7752-0.36498 0.79907-0.8293 1.2116l-0.20733-0.1771q0.44704-0.45137 0.78396-1.2418 0.3369-0.79044 0.42329-1.5679h-0.42545q-0.09718 0.5939-0.41249 1.272-0.31315 0.67814-0.75156 1.136zm-1.4253-0.60903-0.099343-0.27859q0.22677-0.049672 0.81203-0.24836v-1.0107h-0.38441q-0.07127 0.38442-0.18141 0.63494l-0.26996-0.084226q0.08638-0.22244 0.15549-0.63062 0.06911-0.41033 0.07127-0.81851l0.31963 0.00432q-0.01296 0.33259-0.05615 0.64574h0.34555v-0.8941h0.32827v0.89409h0.3477v0.24836h-0.3477v0.89626q0.27211-0.097185 0.43841-0.16629l0.06695 0.23973q-0.12958 0.077748-0.50536 0.22029v1.5981h-0.32828v-1.4793q-0.43409 0.14901-0.71268 0.22892z" stop-color="#000000" style="font-variation-settings:normal"/>
   <path d="m24.331 8.6547v-0.60903h-1.0863v-0.27427h1.0863v-0.52911h-0.97833v-2.0301h2.3065v2.0301h-0.98481v0.52911h1.0928v0.27427h-1.0928v0.60903h1.2677v0.28075h-2.9371v-0.28075zm-0.63926-2.5484h0.63926v-0.64141h-0.63926zm0.98264 0h0.64574v-0.64141h-0.64574zm0.64574 0.24836h-0.64574v0.63062h0.64574zm-0.98912 0h-0.63926v0.63062h0.63926zm-2.6197 2.0085-0.07775-0.29371q0.29587-0.06047 0.6047-0.1339v-1.1965h-0.46864v-0.26348h0.46864v-0.9416h-0.46864v-0.257h1.2764v0.257h-0.46433v0.9416h0.41897v0.26348h-0.41897v1.1101q0.27644-0.073429 0.43841-0.13174l0.03456 0.26996q-0.14901 0.06047-0.59607 0.18573-0.44705 0.12526-0.74724 0.19005z" stop-color="#000000" style="font-variation-settings:normal"/>
   <path d="m27.026 5.7521q-0.19005-0.35634-0.29371-0.53344l0.31315-0.090705q0.12526 0.21596 0.34555 0.62414h0.76884q-0.07343-0.17493-0.30236-0.62414l0.29588-0.084226q0.21597 0.38874 0.34338 0.70837h0.5939q0.257-0.41466 0.35418-0.66949l0.35203 0.090705q-0.14038 0.25052-0.35851 0.57878h0.71052v0.69756h-0.31747v-0.43193h-3.2157v0.43193h-0.30667v-0.69756zm1.0064 3.2439h-0.64141l-0.04536-0.30236h0.5464q0.08207 0 0.13822-0.047512t0.05615-0.1123v-0.79259h-1.8487v-0.26564h1.8487v-0.42545h0.19868q0.31747-0.13606 0.73429-0.41033h-2.0841v-0.257h2.5139l0.15766 0.16629q-0.43625 0.37578-1.177 0.70404v0.22244h1.8033v0.26564h-1.8033v0.91137q0 0.14901-0.11446 0.2462-0.1123 0.097185-0.28292 0.097185z" stop-color="#000000" style="font-variation-settings:normal"/>
  </g>
  <g stop-color="#000000" style="font-variation-settings:normal">
   <path d="m32.051 8.7962-0.0586-0.20282q0.48377-0.043569 0.82632-0.28094 0.34405-0.23738 0.34405-0.70913 0-0.42067-0.27794-0.65053-0.27644-0.22987-0.77222-0.24339-0.01653 0.80828-0.28996 1.3491-0.27343 0.54086-0.68509 0.54086-0.25541 0-0.40264-0.21634-0.14573-0.21785-0.14573-0.53035 0-0.51532 0.44471-0.92547 0.44471-0.41165 1.0532-0.41165 0.57241 0 0.94349 0.28696 0.37108 0.28545 0.37108 0.78125 0 0.56489-0.37409 0.86387t-0.97656 0.34856zm-0.17428-2.0673q-0.43569 0.066105-0.74969 0.39512-0.31399 0.32752-0.31399 0.74068 0 0.21935 0.09165 0.37259 0.09165 0.15174 0.25541 0.15174 0.28094 0 0.48978-0.52433 0.20884-0.52584 0.22686-1.1358z" stop-color="#000000" style="font-variation-settings:normal"/>
   <path d="m26.419 14.535-0.07991-0.24836q0.54423-0.07127 0.91137-0.34123 0.36714-0.27211 0.41466-0.78179h-0.73644v-2.4598h2.9955v2.4598h-0.92866v0.85738q0 0.09503 0.07343 0.13822 0.07559 0.04103 0.43193 0.04103 0.03455 0 0.21381-0.0087 0.17925-0.01082 0.2246-0.02592 0.04536-0.01512 0.0799-0.06263 0.03671-0.04751 0.05615-0.17277 0.0216-0.12742 0.0216-0.40601l0.28292 0.04535v0.52263q0 0.16414-0.11014 0.25484-0.11014 0.09071-0.32827 0.10582-0.21812 0.01512-0.40385 0.01512-0.12742 0-0.34555-0.0087-0.21597-0.0087-0.27427-0.0216-0.05615-0.01296-0.11878-0.06047-0.06047-0.04536-0.09718-0.12094-0.03456-0.07559-0.03456-0.1771v-0.91564h-0.65869q-0.04967 0.4017-0.21381 0.65437-0.16197 0.25052-0.52048 0.45137-0.35634 0.20301-0.85522 0.26564zm0.83146-3.0905h2.354v-0.4924h-2.354zm0 0.72133h2.354v-0.4816h-2.354zm2.354 0.23108h-2.354v0.52263h2.354z" stop-color="#000000" style="font-variation-settings:normal"/>
   <path d="m31.885 14.214-0.05399-0.30451q1.4253-0.03888 2.0279-0.37362 0.60255-0.3369 0.6047-0.96104 0-0.48808-0.29371-0.76236-0.29371-0.27644-0.79907-0.2786-0.32395 0-1.069 0.10151-0.74292 0.10151-1.3994 0.23108l-0.04751-0.31963q1.9221-0.30883 2.4793-0.30883 0.69541 0.0021 1.0885 0.3477 0.39522 0.34555 0.39522 0.98048 0 0.77315-0.64574 1.1899-0.64358 0.41466-2.287 0.45785z" stop-color="#000000" style="font-variation-settings:normal"/>
   <path d="m37.359 14.453-0.13606-0.25268q0.47296-0.17925 0.69325-0.51616 0.22029-0.3369 0.22029-0.89841v-0.78827h-1.4404v-0.29155h1.4404v-0.87034h0.33907v0.87034h0.86602v0.29155h-0.86602v0.82282q0 1.2634-1.1165 1.6327zm-0.71485-1.3002q-0.52911 0.81419-0.60255 1.1446l-0.26564-0.01727q-0.26132-0.72564-0.26132-1.5463 0-0.77315 0.24836-1.8054l0.34123 0.06047q-0.26348 1.0431-0.26348 1.7299 0 0.55503 0.10366 1.0496 0.26779-0.45137 0.46433-0.7494z" stop-color="#000000" style="font-variation-settings:normal"/>
   <path d="m41.194 12.516q-0.2354 1.3282-1.4513 1.976l-0.17062-0.22244q0.3801-0.22029 0.62846-0.47944 0.24836-0.26132 0.38226-0.52479t0.19221-0.47512q0.06047-0.21164 0.09718-0.41033 0.03671-0.20085 0.04967-0.80771h-1.2203v-0.27427h1.7731v-0.6587h0.35203v0.6587h1.8638v0.27427h-2.4145q-0.0043 0.41681-0.03888 0.68245h1.948v0.56799q0 0.3693-0.02592 0.64789t-0.08207 0.47081q-0.05399 0.1922-0.15334 0.30236-0.09718 0.11014-0.23108 0.15766-0.1339 0.04967-0.22677 0.05399-0.09286 0.0043-0.45137 0.0043h-0.28292l-0.04751-0.30236h0.56367q0.3909 0 0.49024-0.31746 0.09934-0.31747 0.09934-0.94593v-0.37794z" stop-color="#000000" style="font-variation-settings:normal"/>
  </g>
 </g>
 <g transform="translate(-3.8026 -3.6457)" shape-rendering="auto">
  <path d="m9.9465 4.4472c2.962 0 5.3423 2.3803 5.3423 5.3423s-2.3803 5.3423-5.3423 5.3423-5.3424-2.3803-5.3424-5.3423 2.3803-5.3423 5.3424-5.3423z" color="#000000" color-rendering="auto" fill="none" image-rendering="auto" solid-color="#000000" stroke="#fff" stroke-width="1.3385" style="isolation:auto;mix-blend-mode:normal;text-decoration-color:#000000;text-decoration-line:none;text-decoration-style:solid;text-indent:0;text-transform:none;white-space:normal"/>
  <path d="m9.9465 3.9926c-3.1924 0-5.7969 2.6045-5.7969 5.7969s2.6045 5.7969 5.7969 5.7969 5.7969-2.6045 5.7969-5.7969-2.6045-5.7969-5.7969-5.7969z" color="#000000" color-rendering="auto" fill="#20386f" image-rendering="auto" solid-color="#000000" style="isolation:auto;mix-blend-mode:normal;text-decoration-color:#000000;text-decoration-line:none;text-decoration-style:solid;text-indent:0;text-transform:none;white-space:normal"/>
  <g fill="#fff">
   <path d="m9.9465 5.5385c2.357 0 4.2511 1.8941 4.2511 4.2511 0 2.3569-1.8941 4.2511-4.2511 4.2511s-4.2511-1.8941-4.2511-4.2511 1.8941-4.2511 4.2511-4.2511z" color="#000000" color-rendering="auto" image-rendering="auto" solid-color="#000000" style="isolation:auto;mix-blend-mode:normal;text-decoration-color:#000000;text-decoration-line:none;text-decoration-style:solid;text-indent:0;text-transform:none;white-space:normal"/>
   <path d="m4.7938 9.7896h10.306" color="#000000" color-rendering="auto" image-rendering="auto" solid-color="#000000" stroke="#20386f" stroke-width="1.5458" style="isolation:auto;mix-blend-mode:normal"/>
   <path d="m9.9465 4.6368v10.306" color="#000000" color-rendering="auto" image-rendering="auto" solid-color="#000000" stroke="#20386f" stroke-width="1.5458" style="isolation:auto;mix-blend-mode:normal"/>
  </g>
  <path d="m9.9465 5.9333c2.1381 0 3.8563 1.7182 3.8563 3.8563s-1.7182 3.8563-3.8563 3.8563-3.8563-1.7182-3.8563-3.8563 1.7182-3.8563 3.8563-3.8563z" color="#000000" color-rendering="auto" fill="none" image-rendering="auto" solid-color="#000000" stroke="#fff" stroke-width=".96616" style="isolation:auto;mix-blend-mode:normal;text-decoration-color:#000000;text-decoration-line:none;text-decoration-style:solid;text-indent:0;text-transform:none;white-space:normal"/>
 </g>
</svg>
