<svg xmlns="http://www.w3.org/2000/svg" xml:space="preserve" width="152.287" height="111.797" viewBox="0 0 40.293 29.58"><path d="M193.804-53.503v-3.691l-.692.23.923-2.306.922 2.306-.692-.23v3.69zm7.689 0v-3.691l-.692.23.923-2.306.923 2.306-.692-.23v3.69zm7.69 0v-3.691l-.692.23.923-2.306.922 2.306-.692-.23v3.69zm7.689 0v-3.691l-.692.23.923-2.306.923 2.306-.692-.23v3.69zm7.69 0v-3.691l-.692.23.922-2.306.923 2.306-.692-.23v3.69zm7.689 0v-3.691l-.692.23.923-2.306.923 2.306-.692-.23v3.69zm-38.447-7.937v-3.692l-.692.231.923-2.307.922 2.307-.692-.23v3.69zm7.689 0v-3.692l-.692.231.923-2.307.923 2.307-.692-.23v3.69zm7.69 0v-3.692l-.692.231.923-2.307.922 2.307-.692-.23v3.69zm7.689 0v-3.692l-.692.231.923-2.307.923 2.307-.692-.23v3.69zm7.69 0v-3.692l-.692.231.922-2.307.923 2.307-.692-.23v3.69zm7.689 0v-3.692l-.692.231.923-2.307.923 2.307-.692-.23v3.69zm-38.447-7.938v-3.691l-.692.23.923-2.306.922 2.306-.692-.23v3.69zm7.689 0v-3.691l-.692.23.923-2.306.923 2.306-.692-.23v3.69zm7.69 0v-3.691l-.692.23.923-2.306.922 2.306-.692-.23v3.69zm7.689 0v-3.691l-.692.23.923-2.306.923 2.306-.692-.23v3.69zm7.69 0v-3.691l-.692.23.922-2.306.923 2.306-.692-.23v3.69zm7.689 0v-3.691l-.692.23.923-2.306.923 2.306-.692-.23v3.69zm-38.447-7.938v-3.69l-.692.23.923-2.307.922 2.307-.692-.23v3.69zm7.689 0v-3.69l-.692.23.923-2.307.923 2.307-.692-.23v3.69zm7.69 0v-3.69l-.692.23.923-2.307.922 2.307-.692-.23v3.69zm7.689 0v-3.69l-.692.23.923-2.307.923 2.307-.692-.23v3.69zm7.69 0v-3.69l-.692.23.922-2.307.923 2.307-.692-.23v3.69zm7.689 0v-3.69l-.692.23.923-2.307.923 2.307-.692-.23v3.69z" style="fill:red;stroke-width:.330728;stroke-linejoin:round;stroke-miterlimit:100000" transform="translate(-193.112 83.083)"/></svg>