<svg xmlns="http://www.w3.org/2000/svg" xmlns:xlink="http://www.w3.org/1999/xlink" xml:space="preserve" id="svg5" width="170.714" height="134.004" viewBox="0 0 45.168 35.455"><defs id="defs2"><marker id="Arrow1Lend-3-1-1" markerHeight="10.156" markerWidth="17.774" orient="auto" overflow="visible" preserveAspectRatio="xMidYMid" refX="0" refY="0" viewBox="0 0 17.774 10.156"><path id="path684" fill-rule="evenodd" stroke="#000" stroke-width="1pt" d="m0 0 5-5-17.5 5L5 5Z" transform="translate(-10)scale(-.8)"/></marker><marker id="marker5660-7-4" markerHeight="10.156" markerUnits="strokeWidth" markerWidth="17.774" orient="auto" overflow="visible" preserveAspectRatio="xMidYMid" refX="0" refY="0" viewBox="0 0 17.774 10.156"><path id="path5745-1-2" fill="context-stroke" fill-rule="evenodd" stroke="context-stroke" stroke-width="1pt" d="m0 0 5-5-17.5 5L5 5Z" transform="translate(-10)scale(-.8)"/></marker><marker id="Arrow1Lstart-1-2" orient="auto" overflow="visible"><path id="path455-1-7" fill="context-stroke" fill-rule="evenodd" stroke="context-stroke" stroke-width="1pt" d="m0 0 5-5-17.5 5L5 5Z" transform="translate(10)scale(.8)"/></marker><marker id="Arrow1Lend-2-7" orient="auto" overflow="visible"><path id="path452-3-9" fill="context-stroke" fill-rule="evenodd" stroke="context-stroke" stroke-width="1pt" d="m0 0 5-5-17.5 5L5 5Z" transform="translate(-10)scale(-.8)"/></marker><path id="g0-118" d="M6.468-4.328c0-1.088-.801-1.088-.813-1.088-.478 0-.909.502-.909.909 0 .335.251.478.359.538.502.299.598.514.598.753 0 .263-.694 2.881-2.093 2.881-.86 0-.86-.717-.86-.932 0-.694.334-1.566.717-2.523.096-.239.132-.346.132-.538 0-.693-.694-1.076-1.351-1.076C.98-5.404.383-3.778.383-3.539c0 .168.179.168.286.168.144 0 .228 0 .275-.156.383-1.29 1.017-1.446 1.232-1.446.084 0 .203 0 .203.25 0 .276-.143.622-.18.718-.55 1.387-.729 1.925-.729 2.499C1.47-.24 2.5.096 3.54.096c2.056 0 2.929-3.396 2.929-4.424"/><path id="g1-84" d="M6.235-5.657H.577L.402-3.732h.284c.117-1.448.36-1.624 1.649-1.624.167 0 .41 0 .494.008.184.034.184.126.184.318v4.344c0 .276 0 .385-.87.385H1.79V0c.41-.033 1.188-.033 1.623-.033S4.62-.033 5.03 0v-.301h-.352c-.87 0-.87-.11-.87-.385V-5.03c0-.192 0-.284.184-.318.084-.008.326-.008.494-.008.468 0 .828 0 1.121.167.377.226.435.762.444.804l.075.653h.284z"/><style id="style147418" type="text/css">*{stroke-linejoin:round;stroke-linecap:butt}</style></defs><g id="layer1" transform="translate(225.726 -165.127)"><path id="path14602-8-6" fill="none" stroke="#000" stroke-dasharray="2, 2" stroke-width=".132" d="m-199.623 166.357 6.228 23.244" style="font-variation-settings:normal;vector-effect:none;fill:none;fill-opacity:1;stroke:#000;stroke-width:.132291;stroke-linecap:butt;stroke-linejoin:miter;stroke-miterlimit:4;stroke-dasharray:.529164,.529164;stroke-dashoffset:0;stroke-opacity:1;-inkscape-stroke:none;stop-color:#000"/><path id="path15604" fill="none" stroke="#000" stroke-dasharray="2, 2" stroke-width=".132" d="m-225.466 191.62 1.643 6.134" style="font-variation-settings:normal;vector-effect:none;fill:none;fill-opacity:1;stroke:#000;stroke-width:.132291;stroke-linecap:butt;stroke-linejoin:miter;stroke-miterlimit:4;stroke-dasharray:.529164,.529164;stroke-dashoffset:0;stroke-opacity:1;-inkscape-stroke:none;stop-color:#000"/><path id="path29848" d="m-195.84 180.473 2.891-.788.764 2.898" style="font-variation-settings:normal;opacity:1;vector-effect:none;fill:none;fill-opacity:1;stroke:#000;stroke-width:.132;stroke-linecap:butt;stroke-linejoin:miter;stroke-miterlimit:4;stroke-dasharray:none;stroke-dashoffset:0;stroke-opacity:1;-inkscape-stroke:none;stop-color:#000;stop-opacity:1"/><use xlink:href="#g0-118" id="use122641" x="230.001" y="88.26" style="fill:#000;fill-opacity:1;stroke-width:.833333" transform="rotate(-15 441.458 1256.7)scale(.42333)"/><path id="path744-8-6" fill="none" stroke="#000" stroke-linecap="round" stroke-miterlimit="100000" stroke-width=".265" marker-end="url(#Arrow1Lend-6-3)" d="m-225.604 191.658 44.933-12.04" color="#000" style="font-variation-settings:normal;fill:none;fill-opacity:1;stroke:#00f;stroke-width:.211667;stroke-linecap:butt;stroke-linejoin:round;stroke-miterlimit:4;stroke-dasharray:none;stroke-dashoffset:0;stroke-opacity:1;marker-end:url(#marker5660-7-4);stop-color:#000"/><path id="path136257" fill="none" stroke="#000" stroke-linecap="round" stroke-miterlimit="100000" stroke-width=".265" marker-end="url(#Arrow1Lend-6-3)" d="m-225.594 191.655 25.54-24.922" color="#000" style="font-variation-settings:normal;opacity:1;vector-effect:none;fill:none;fill-opacity:1;stroke:#000;stroke-width:.264583;stroke-linecap:round;stroke-linejoin:miter;stroke-miterlimit:4;stroke-dasharray:none;stroke-dashoffset:0;stroke-opacity:1;-inkscape-stroke:none;marker-end:url(#Arrow1Lend-3-1-1);stop-color:#000;stop-opacity:1"/><path id="path172247" fill="none" stroke="#000" stroke-linecap="round" stroke-miterlimit="100000" stroke-width=".265" marker-end="url(#Arrow1Lend-6-3)" d="m-225.466 191.62 29.931-8.02" color="#000" style="font-variation-settings:normal;opacity:1;vector-effect:none;fill:none;fill-opacity:1;stroke:#000;stroke-width:.264583;stroke-linecap:round;stroke-linejoin:miter;stroke-miterlimit:4;stroke-dasharray:none;stroke-dashoffset:0;stroke-opacity:1;-inkscape-stroke:none;marker-end:url(#Arrow1Lend-3-1-1);stop-color:#000;stop-opacity:1"/><path id="path499-3-8" fill="none" stroke="red" stroke-width=".132" marker-end="url(#Arrow1Lend-2)" marker-start="url(#Arrow1Lstart-1)" d="m-223.747 195.954 29.658-7.947" stop-color="#000" style="font-variation-settings:normal;opacity:1;vector-effect:none;fill:none;fill-opacity:1;stroke:#f0f;stroke-width:.132292;stroke-linecap:butt;stroke-linejoin:miter;stroke-miterlimit:4;stroke-dasharray:none;stroke-dashoffset:0;stroke-opacity:1;-inkscape-stroke:none;marker-start:url(#Arrow1Lstart-1-2);marker-end:url(#Arrow1Lend-2-7);stop-color:#000;stop-opacity:1"/><g id="g20" transform="rotate(-15 -176.091 153.965)"><path id="path19" d="m-190.115 170.778-.678.689.091.09.587-.515.582.516.091-.091z" style="font-variation-settings:normal;vector-effect:none;fill:#00f;fill-opacity:1;stroke-width:.396875;stroke-linecap:butt;stroke-linejoin:round;stroke-miterlimit:4;stroke-dasharray:none;stroke-dashoffset:0;stroke-opacity:1;-inkscape-stroke:none;stop-color:#000"/><path id="path20" d="M-190.502 172.458c-.07-.253-.35-.385-.622-.385-.188 0-.33.107-.44.289a1.6 1.6 0 0 0-.193.5c0 .072.076.072.121.072.056 0 .076 0 .102-.026.01-.01.01-.02.04-.146.101-.395.213-.507.344-.507.076 0 .117.051.117.188 0 .086-.02.167-.071.37a24 24 0 0 0-.112.455l-.182.708c-.015.07-.04.167-.04.202 0 .107.08.223.238.223.263 0 .323-.233.359-.384.05-.188.091-.35.142-.567.02-.066.146-.587.157-.603.005-.03.146-.258.313-.394a.82.82 0 0 1 .522-.198c.131 0 .252.051.252.3 0 .287-.222.88-.318 1.133-.056.136-.071.172-.071.258 0 .293.293.455.572.455.536 0 .79-.688.79-.79 0-.07-.077-.07-.122-.07-.061 0-.096 0-.117.066-.167.561-.44.612-.52.612-.036 0-.087 0-.087-.106 0-.117.05-.243.101-.37.081-.207.314-.8.314-1.083 0-.465-.39-.587-.754-.587-.106 0-.476 0-.835.385" style="font-variation-settings:normal;vector-effect:none;fill:#00f;fill-opacity:1;stroke-width:.396875;stroke-linecap:butt;stroke-linejoin:round;stroke-miterlimit:4;stroke-dasharray:none;stroke-dashoffset:0;stroke-opacity:1;-inkscape-stroke:none;stop-color:#000"/></g><g id="g21" style="fill:#f0f;fill-opacity:1;stroke-linecap:butt;stroke-linejoin:round"><use xlink:href="#g1-84" id="use181745" x="222.578" y="82.416" style="font-variation-settings:normal;vector-effect:none;fill-opacity:1;stroke-width:.833333;stroke-linecap:butt;stroke-linejoin:round;stroke-miterlimit:4;stroke-dasharray:none;stroke-dashoffset:0;stroke-opacity:1;-inkscape-stroke:none;stop-color:#000" transform="rotate(-15 559.936 1266.714)scale(.42333)"/><use xlink:href="#g0-118" id="use181747" x="230.001" y="88.26" style="font-variation-settings:normal;vector-effect:none;fill-opacity:1;stroke-width:.833333;stroke-linecap:butt;stroke-linejoin:round;stroke-miterlimit:4;stroke-dasharray:none;stroke-dashoffset:0;stroke-opacity:1;-inkscape-stroke:none;stop-color:#000" transform="rotate(-15 559.936 1266.714)scale(.42333)"/><g id="g18" style="font-variation-settings:normal;vector-effect:none;fill:#f0f;fill-opacity:1;stroke-width:.352778;stroke-linecap:butt;stroke-linejoin:round;stroke-miterlimit:4;stroke-dasharray:none;stroke-dashoffset:0;stroke-opacity:1;-inkscape-stroke:none;stop-color:#000" transform="rotate(-15 -101.646 262.234)"><path id="path1" d="m-190.115 170.778-.678.689.091.09.587-.515.582.516.091-.091z" style="font-variation-settings:normal;vector-effect:none;fill-opacity:1;stroke-width:.352778;stroke-linecap:butt;stroke-linejoin:round;stroke-miterlimit:4;stroke-dasharray:none;stroke-dashoffset:0;stroke-opacity:1;-inkscape-stroke:none;stop-color:#000"/><path id="path2-1" d="M-190.502 172.458c-.07-.253-.35-.385-.622-.385-.188 0-.33.107-.44.289a1.6 1.6 0 0 0-.193.5c0 .072.076.072.121.072.056 0 .076 0 .102-.026.01-.01.01-.02.04-.146.101-.395.213-.507.344-.507.076 0 .117.051.117.188 0 .086-.02.167-.071.37a24 24 0 0 0-.112.455l-.182.708c-.015.07-.04.167-.04.202 0 .107.08.223.238.223.263 0 .323-.233.359-.384.05-.188.091-.35.142-.567.02-.066.146-.587.157-.603.005-.03.146-.258.313-.394a.82.82 0 0 1 .522-.198c.131 0 .252.051.252.3 0 .287-.222.88-.318 1.133-.056.136-.071.172-.071.258 0 .293.293.455.572.455.536 0 .79-.688.79-.79 0-.07-.077-.07-.122-.07-.061 0-.096 0-.117.066-.167.561-.44.612-.52.612-.036 0-.087 0-.087-.106 0-.117.05-.243.101-.37.081-.207.314-.8.314-1.083 0-.465-.39-.587-.754-.587-.106 0-.476 0-.835.385" style="font-variation-settings:normal;vector-effect:none;fill-opacity:1;stroke-width:.352778;stroke-linecap:butt;stroke-linejoin:round;stroke-miterlimit:4;stroke-dasharray:none;stroke-dashoffset:0;stroke-opacity:1;-inkscape-stroke:none;stop-color:#000"/></g></g><g id="g3-9" style="stroke-width:.833333" transform="rotate(165 -158.352 230.936)scale(-.42333 .42333)"><path id="path1-5" d="M288.947 685.407h2.032c1.698 0 3.36 1.244 3.36 2.583 0 .92-.79 1.805-2.356 1.805h-3.873c-.227 0-.358 0-.358-.228 0-.143.107-.143.346-.143.156 0 .371-.012.514-.024.192-.024.263-.06.263-.191 0-.048-.012-.084-.048-.227l-1.601-6.42c-.12-.466-.144-.561-1.088-.561-.203 0-.335 0-.335-.228 0-.143.144-.143.18-.143.334 0 1.183.036 1.518.036.25 0 .514-.012.765-.012.263 0 .526-.024.777-.024.083 0 .239 0 .239.239 0 .131-.108.131-.335.131-.442 0-.777 0-.777.215 0 .072.024.132.036.204zm.86 3.563c.108.418.132.454.646.454h1.148c.992 0 1.626-.323 1.626-1.147 0-.467-.24-1.495-.706-1.925-.597-.538-1.315-.634-1.84-.634h-1.686z" style="stroke-width:.833333"/><path id="path2-4" d="M298.603 692.048c0 .125 0 .326-.201.326-.21 0-.21-.193-.21-.326v-5.072h-2.552c-.125 0-.335 0-.335-.2 0-.21.193-.21.335-.21h5.515c.134 0 .335 0 .335.2 0 .21-.192.21-.335.21h-2.552z" style="stroke-width:.833333"/><path id="path3" d="M309.197 685.957c0 1.088-.8 1.088-.813 1.088-.478 0-.908-.502-.908-.908 0-.335.25-.479.358-.538.503-.299.598-.514.598-.753 0-.263-.693-2.881-2.092-2.881-.86 0-.86.717-.86.932 0 .693.334 1.566.717 2.522.095.24.131.347.131.538 0 .694-.693 1.076-1.35 1.076-1.268 0-1.865-1.626-1.865-1.865 0-.167.179-.167.286-.167.144 0 .228 0 .275.156.383 1.29 1.016 1.446 1.232 1.446.083 0 .203 0 .203-.251 0-.275-.144-.622-.18-.717-.55-1.387-.729-1.925-.729-2.499 0-1.267 1.028-1.602 2.068-1.602 2.056 0 2.93 3.395 2.93 4.423" style="stroke-width:.833333"/></g></g></svg>