<svg xmlns="http://www.w3.org/2000/svg" xml:space="preserve" id="svg5" width="204.218" height="62.168" viewBox="0 0 54.033 16.449"><defs id="defs2"><marker id="marker10329" orient="auto" overflow="visible"><path id="path10756" fill="red" fill-rule="evenodd" stroke="red" stroke-width="1pt" d="m0 0 5-5-17.5 5L5 5Z" transform="translate(-4)scale(-.4)"/></marker><marker id="marker12683-4" orient="auto" overflow="visible"><path id="path10759-8" fill="#00f" fill-rule="evenodd" stroke="#00f" stroke-width="1pt" d="m0 0 5-5-17.5 5L5 5Z" transform="translate(-4)scale(-.4)"/></marker><style id="style147418" type="text/css">*{stroke-linejoin:round;stroke-linecap:butt}</style></defs><g id="layer1" transform="translate(-418.67 -240.713)"><path id="path11567" fill="#f4ff00" stroke="#c2c216" stroke-miterlimit="5" stroke-width=".337" d="m443.047 250.234 1.384-.403-.88-1.132 1.36.479-.04-1.427.815 1.178.815-1.178-.04 1.427 1.36-.478-.88 1.13 1.384.404-1.384.403.88 1.131-1.36-.478.04 1.426-.815-1.177-.816 1.177.04-1.426-1.36.478.88-1.13z" color="#000" color-rendering="auto" image-rendering="auto" style="isolation:auto;mix-blend-mode:normal;shape-rendering:auto"/><path id="path10804-4" stroke="#00f" marker-end="url(#marker12683-4)" d="M471.115 247.588h-18.847" color="#000" color-rendering="auto" image-rendering="auto" style="isolation:auto;mix-blend-mode:normal;fill:none;stroke-width:.529166;stroke-linecap:butt;stroke-linejoin:round;marker-end:url(#marker12683-4);shape-rendering:auto"/><path id="path43" stroke="#00f" marker-end="url(#marker12683-4)" d="M420.257 252.88h18.846" color="#000" color-rendering="auto" image-rendering="auto" style="isolation:auto;mix-blend-mode:normal;fill:none;stroke:red;stroke-width:.529166;stroke-linecap:butt;stroke-linejoin:round;marker-end:url(#marker10329);shape-rendering:auto"/><ellipse id="ellipse11573" cx="180.136" cy="458.63" fill="#dcdcdc" stroke="#555" color="#000" color-rendering="auto" image-rendering="auto" rx="3.968" ry="4.05" style="isolation:auto;mix-blend-mode:normal;stroke-width:.529166;shape-rendering:auto" transform="rotate(-37.672)skewX(.01)"/><ellipse id="ellipse41" cx="219.386" cy="482.254" fill="#dcdcdc" stroke="#555" color="#000" color-rendering="auto" image-rendering="auto" rx="3.968" ry="4.05" style="isolation:auto;mix-blend-mode:normal;stroke-width:.529166;shape-rendering:auto" transform="rotate(-37.672)skewX(.01)"/><g id="g1" style="fill:red;stroke-linecap:butt;stroke-linejoin:round;stroke-miterlimit:100000" transform="translate(.081 18.83)"><path id="path1-48" d="M430.251 227.444a.27.27 0 0 0-.541 0 .27.27 0 0 0 .541 0" style="fill:red;stroke-width:.352778;stroke-linecap:butt;stroke-linejoin:round;stroke-miterlimit:100000"/><path id="path2-82" d="M431.027 228.602a.38.38 0 0 0-.273.35c0 .11.086.232.253.232.177 0 .364-.147.364-.394 0-.269-.268-.446-.577-.446-.288 0-.476.218-.541.309-.127-.213-.41-.309-.699-.309-.637 0-.981.623-.981.79 0 .07.075.07.121.07.06 0 .096 0 .116-.065.147-.46.511-.613.719-.613.192 0 .283.091.283.253 0 .097-.07.375-.116.557l-.172.693c-.076.309-.258.46-.43.46-.026 0-.142 0-.243-.075a.38.38 0 0 0 .273-.35c0-.11-.086-.232-.253-.232-.177 0-.364.147-.364.395 0 .268.268.445.577.445.288 0 .475-.218.541-.309.127.213.41.309.698.309.638 0 .982-.622.982-.79 0-.07-.076-.07-.121-.07-.061 0-.096 0-.117.066-.146.46-.51.612-.718.612-.193 0-.284-.091-.284-.253 0-.106.066-.375.112-.562.035-.131.152-.607.177-.688.076-.304.253-.46.43-.46a.4.4 0 0 1 .243.075" style="fill:red;stroke-width:.352778;stroke-linecap:butt;stroke-linejoin:round;stroke-miterlimit:100000"/><path id="path3-4" d="M432.837 229.138c0-.096-.007-.1-.106-.1-.227.224-.55.227-.695.227v.128c.086 0 .32 0 .514-.1v1.808c0 .116 0 .163-.354.163h-.135v.127c.064-.003.5-.014.63-.014.11 0 .557.01.635.014v-.127h-.135c-.354 0-.354-.046-.354-.163z" style="fill:red;stroke-width:.352778;stroke-linecap:butt;stroke-linejoin:round;stroke-miterlimit:100000"/><path id="path4-5" d="M434.415 231.334a.82.82 0 0 1-.276.649c-.014.014-.025.025-.025.042 0 .025.028.05.05.05.049 0 .35-.284.35-.705 0-.22-.085-.386-.248-.386a.2.2 0 0 0-.202.202.2.2 0 0 0 .206.205c.085 0 .141-.057.145-.057" style="fill:red;stroke-width:.352778;stroke-linecap:butt;stroke-linejoin:round;stroke-miterlimit:100000"/><path id="path5-5" d="M435.617 229.205a.205.205 0 0 0-.205-.202.2.2 0 0 0-.202.202.203.203 0 1 0 .407 0m-.538.663v.127c.223 0 .255.021.255.195v.921c0 .152-.036.152-.266.152v.128c.007 0 .255-.014.397-.014q.187-.001.376.014v-.128c-.206 0-.241 0-.241-.148v-1.286zm2.76.45c0-.309-.153-.49-.532-.49-.29 0-.478.16-.577.344h-.003v-.343l-.521.039v.127c.237 0 .266.025.266.198v.918c0 .152-.036.152-.266.152v.128c.007 0 .255-.014.404-.014.13 0 .375.01.407.014v-.128c-.23 0-.266 0-.266-.152v-.638c0-.372.295-.545.528-.545.248 0 .28.195.28.375v.808c0 .152-.035.152-.265.152v.128c.007 0 .255-.014.403-.014.131 0 .376.01.408.014v-.128c-.23 0-.266 0-.266-.152z" style="fill:red;stroke-width:.352778;stroke-linecap:butt;stroke-linejoin:round;stroke-miterlimit:100000"/></g><g id="g5" style="fill:#00f;stroke-linecap:butt;stroke-linejoin:round" transform="translate(3.805 13.538)"><path id="path8-1" d="M451.125 227.444a.27.27 0 0 0-.541 0 .27.27 0 0 0 .541 0" style="fill:#00f;stroke-width:.352778;stroke-linecap:butt;stroke-linejoin:round"/><path id="path9-1" d="M451.9 228.602a.38.38 0 0 0-.273.35c0 .11.086.232.253.232.177 0 .364-.147.364-.394 0-.269-.268-.446-.577-.446-.288 0-.475.218-.541.309-.127-.213-.41-.309-.698-.309-.638 0-.982.623-.982.79 0 .07.076.07.121.07.061 0 .096 0 .117-.065.146-.46.51-.613.718-.613.192 0 .284.091.284.253 0 .097-.071.375-.117.557l-.172.693c-.076.309-.258.46-.43.46-.025 0-.142 0-.243-.075a.38.38 0 0 0 .273-.35c0-.11-.086-.232-.253-.232-.177 0-.364.147-.364.395 0 .268.268.445.577.445.288 0 .476-.218.541-.309.127.213.41.309.699.309.637 0 .982-.622.982-.79 0-.07-.076-.07-.122-.07-.06 0-.096 0-.116.066-.147.46-.511.612-.719.612-.192 0-.283-.091-.283-.253 0-.106.065-.375.111-.562.035-.131.152-.607.177-.688.076-.304.253-.46.43-.46a.4.4 0 0 1 .243.075" style="fill:#00f;stroke-width:.352778;stroke-linecap:butt;stroke-linejoin:round"/><path id="path10-5" d="M454.312 230.746h-.12c-.01.078-.046.287-.092.323-.029.02-.301.02-.351.02h-.652c.372-.329.496-.428.709-.594.262-.21.506-.429.506-.766 0-.428-.375-.69-.829-.69-.439 0-.737.308-.737.634 0 .18.153.198.188.198.085 0 .188-.06.188-.188 0-.063-.025-.187-.21-.187a.56.56 0 0 1 .518-.33c.354 0 .539.276.539.563 0 .309-.22.553-.333.68l-.854.844c-.036.032-.036.039-.036.138h1.46z" style="fill:#00f;stroke-width:.352778;stroke-linecap:butt;stroke-linejoin:round"/><path id="path11-2" d="M455.288 231.334a.82.82 0 0 1-.276.649c-.014.014-.025.025-.025.042 0 .025.028.05.05.05.05 0 .35-.284.35-.705 0-.22-.085-.386-.248-.386a.2.2 0 0 0-.202.202.2.2 0 0 0 .206.205c.085 0 .142-.057.145-.057" style="fill:#00f;stroke-width:.352778;stroke-linecap:butt;stroke-linejoin:round"/><path id="path12-7" d="M456.49 229.205a.205.205 0 0 0-.205-.202.2.2 0 0 0-.202.202.203.203 0 1 0 .407 0m-.538.663v.127c.223 0 .255.021.255.195v.921c0 .152-.036.152-.266.152v.128c.007 0 .255-.014.397-.014q.187-.001.375.014v-.128c-.205 0-.24 0-.24-.148v-1.286zm2.76.45c0-.309-.153-.49-.532-.49-.29 0-.478.16-.577.344h-.003v-.343l-.521.039v.127c.237 0 .266.025.266.198v.918c0 .152-.036.152-.266.152v.128c.007 0 .255-.014.404-.014.13 0 .375.01.407.014v-.128c-.23 0-.266 0-.266-.152v-.638c0-.372.294-.545.528-.545.248 0 .28.195.28.375v.808c0 .152-.035.152-.266.152v.128c.007 0 .255-.014.404-.014.131 0 .376.01.408.014v-.128c-.23 0-.266 0-.266-.152z" style="fill:#00f;stroke-width:.352778;stroke-linecap:butt;stroke-linejoin:round"/></g></g></svg>