<svg width="174.284" height="138.5" xmlns="http://www.w3.org/2000/svg">
<g transform="translate(-24.985 -256.24)">
<path d="M153.254 319.927c-47.989 39.324-31.163 59.272-59.828 59.567-28.738.296-43.907-8.625-52.038-51.811-5.295-28.125 22.888-52.765 51.628-52.765s85.78 24.078 60.238 45.009z" fill="#ffd3d3" stroke="red" stroke-linejoin="round" stroke-miterlimit="100"/>
<path d="M151.337 362.886c-12.194 18.583-33.215 30.855-57.103 30.855-37.693 0-68.25-30.557-68.25-68.25s30.557-68.25 68.25-68.25c37.694 0 68.25 30.556 68.25 68.25 0 8.27-1.47 16.196-4.165 23.53" fill="none" stroke="#000002" stroke-dasharray="2, 2" stroke-linejoin="round" stroke-miterlimit="100"/>
<circle transform="rotate(-30.691)" cx="-85.098" cy="327.997" r="1.965"/>
<g stroke-linejoin="round">
<path d="M62.99 348.449a38.597 38.597 0 0 1-7.525-22.959c0-21.412 17.358-38.77 38.77-38.77 21.412 0 38.77 17.358 38.77 38.77s-17.358 38.77-38.77 38.77a38.618 38.618 0 0 1-16.712-3.776" fill="none" stroke="#000002" stroke-dasharray="2, 2" stroke-miterlimit="100"/>
<g stroke-miterlimit="100000" stroke-width="1.333">
<path d="M129.704 355.087c-.057.287-.172.727-.172.823 0 .344.268.516.555.516.23 0 .573-.153.707-.536.039-.076.689-2.678.765-3.022.153-.631.498-1.97.613-2.487.076-.248.612-1.147 1.07-1.568.154-.134.708-.631 1.531-.631.497 0 .784.23.803.23-.573.095-.994.554-.994 1.051 0 .306.21.67.727.67s1.052-.44 1.052-1.129c0-.67-.612-1.243-1.588-1.243-1.243 0-2.085.937-2.448 1.473-.153-.861-.842-1.473-1.741-1.473-.88 0-1.243.746-1.416 1.09-.344.65-.593 1.798-.593 1.856 0 .19.192.19.23.19.191 0 .21-.018.325-.439.325-1.358.708-2.276 1.397-2.276.325 0 .592.153.592.88 0 .401-.057.612-.306 1.606zM147.625 355.028c0-1.165-.576-1.848-2.008-1.848-1.058 0-1.781.576-2.143 1.245-.268-.95-.99-1.245-1.968-1.245-1.098 0-1.808.603-2.183 1.299h-.013v-1.299l-1.968.148v.482c.897 0 1.004.093 1.004.75v3.467c0 .576-.134.576-1.004.576v.482c.026 0 .964-.053 1.526-.053.496 0 1.42.04 1.54.053v-.482c-.87 0-1.004 0-1.004-.576v-2.41c0-1.406 1.111-2.062 1.995-2.062.937 0 1.058.737 1.058 1.42v3.052c0 .576-.134.576-1.005.576v.482c.027 0 .964-.053 1.527-.053.495 0 1.42.04 1.54.053v-.482c-.87 0-1.005 0-1.005-.576v-2.41c0-1.406 1.112-2.062 1.995-2.062.938 0 1.058.737 1.058 1.42v3.052c0 .576-.134.576-1.004.576v.482c.027 0 .964-.053 1.526-.053.496 0 1.42.04 1.54.053v-.482c-.87 0-1.004 0-1.004-.576zM151.963 350.824a.774.774 0 0 0-.777-.763.763.763 0 0 0-.763.763c0 .482.388.777.763.777a.769.769 0 0 0 .777-.777zm-2.035 2.504v.482c.843 0 .964.08.964.736v3.482c0 .575-.134.575-1.004.575v.483c.026 0 .964-.054 1.5-.054.468 0 .95.013 1.419.054v-.483c-.777 0-.91 0-.91-.562v-4.86zM160.348 355.028c0-1.165-.576-1.848-2.008-1.848-1.098 0-1.808.603-2.183 1.299h-.013v-1.299l-1.969.148v.482c.897 0 1.005.093 1.005.75v3.467c0 .576-.134.576-1.005.576v.482c.027 0 .964-.053 1.527-.053.495 0 1.42.04 1.54.053v-.482c-.87 0-1.005 0-1.005-.576v-2.41c0-1.406 1.112-2.062 1.995-2.062.938 0 1.058.737 1.058 1.42v3.052c0 .576-.134.576-1.004.576v.482c.027 0 .964-.053 1.526-.053.496 0 1.42.04 1.54.053v-.482c-.87 0-1.004 0-1.004-.576zM164.053 305.527c-.057.287-.172.727-.172.823 0 .344.268.516.555.516.23 0 .573-.153.707-.536.039-.076.689-2.678.765-3.022.153-.631.498-1.97.613-2.487.076-.248.612-1.147 1.07-1.568.154-.134.708-.631 1.531-.631.497 0 .784.23.803.23-.573.095-.994.554-.994 1.051 0 .306.21.67.727.67.516 0 1.052-.44 1.052-1.129 0-.67-.612-1.243-1.588-1.243-1.243 0-2.085.937-2.448 1.473-.153-.861-.842-1.473-1.741-1.473-.88 0-1.243.746-1.416 1.09-.344.65-.593 1.798-.593 1.856 0 .19.192.19.23.19.191 0 .21-.018.325-.439.325-1.358.708-2.276 1.397-2.276.325 0 .593.153.593.88 0 .401-.058.612-.307 1.606zM181.974 305.467c0-1.165-.576-1.848-2.008-1.848-1.058 0-1.781.576-2.143 1.245-.268-.95-.99-1.245-1.968-1.245-1.098 0-1.808.603-2.183 1.299h-.013v-1.299l-1.968.148v.482c.897 0 1.004.093 1.004.75v3.467c0 .576-.134.576-1.004.576v.482c.026 0 .964-.053 1.526-.053.495 0 1.42.04 1.54.053v-.482c-.87 0-1.004 0-1.004-.576v-2.41c0-1.406 1.111-2.062 1.995-2.062.937 0 1.058.737 1.058 1.42v3.052c0 .576-.134.576-1.005.576v.482c.027 0 .964-.053 1.527-.053.495 0 1.42.04 1.54.053v-.482c-.87 0-1.005 0-1.005-.576v-2.41c0-1.406 1.112-2.062 1.995-2.062.938 0 1.058.737 1.058 1.42v3.052c0 .576-.134.576-1.004.576v.482c.027 0 .964-.053 1.526-.053.496 0 1.42.04 1.54.053v-.482c-.87 0-1.004 0-1.004-.576zM189.458 305.936c0-.71 0-1.218-.616-1.714-.549-.455-1.192-.67-1.982-.67-1.272 0-2.169.483-2.169 1.3 0 .428.295.656.643.656.361 0 .63-.268.63-.63a.615.615 0 0 0-.47-.616c.483-.334 1.26-.334 1.34-.334.75 0 1.566.495 1.566 1.62v.415c-.736.026-1.62.067-2.597.428-1.205.442-1.58 1.179-1.58 1.781 0 1.152 1.392 1.486 2.343 1.486 1.071 0 1.7-.602 1.981-1.124.054.549.416 1.057 1.032 1.057.026 0 1.325 0 1.325-1.272v-.736h-.455v.723c0 .134 0 .777-.496.777-.495 0-.495-.63-.495-.804zm-1.058 1.7c0 1.286-1.125 1.647-1.727 1.647-.683 0-1.326-.455-1.326-1.11 0-.737.643-1.768 3.053-1.862zM195.622 306.525a.903.903 0 0 1-.107-.134c0-.04.884-.99 1.004-1.111.469-.522.937-1.031 1.995-1.045v-.482c-.375.027-.763.054-1.125.054-.401 0-.923-.013-1.325-.054v.482c.227.04.268.188.268.308 0 .027 0 .228-.201.456l-.937 1.057-1.112-1.272c-.134-.147-.147-.214-.147-.267 0-.201.187-.282.361-.282v-.482c-.495.04-1.004.054-1.5.054-.4 0-.91-.013-1.298-.054v.482c.616 0 .964 0 1.312.402l1.674 1.928c.013.013.107.12.107.134 0 .04-1.004 1.138-1.138 1.286-.496.535-.95 1.03-2.022 1.057v.482c.402-.026.696-.053 1.111-.053.402 0 .938.013 1.34.053v-.482c-.161-.026-.268-.12-.268-.308 0-.254.147-.428.361-.656l.937-1.03 1.165 1.325c.255.281.255.308.255.388 0 .268-.308.281-.362.281v.482c.12-.012 1.085-.053 1.513-.053s.857.013 1.286.053v-.482c-.898 0-1.005-.08-1.313-.428z"/>
</g>
</g>
<path d="M69.584 361.59c.52 0 1.103 0 1.103-.552 0-.454-.389-.454-.94-.454H64.49c.779-2.757 2.595-4.639 5.548-4.639h1.005c.552 0 1.07 0 1.07-.551 0-.454-.42-.454-.972-.454h-1.136c-4.217 0-8.564 3.244-8.564 8.207 0 3.569 2.433 6.132 5.872 6.132 2.108 0 4.217-1.298 4.217-1.655 0-.097-.033-.454-.325-.454-.064 0-.13 0-.421.194-1.006.65-2.206 1.2-3.407 1.2-1.881 0-3.503-1.362-3.503-4.217 0-1.135.26-2.368.357-2.757z" fill="#ef0000"/>
<path d="M159.248 305.467 94.235 325.49l31.227 22.685" fill="none" stroke="#000" stroke-miterlimit="100000"/>
<path d="M87.88 321.869c0-3.08-2.028-5.146-4.878-5.146-4.132 0-8.34 4.343-8.34 8.8 0 3.175 2.142 5.107 4.897 5.107 4.055 0 8.32-4.19 8.32-8.761zm-8.207 8.263c-1.893 0-3.232-1.549-3.232-4.074 0-.842.267-3.634 1.74-5.872 1.32-1.99 3.195-2.984 4.706-2.984 1.568 0 3.29 1.07 3.29 3.921 0 1.377-.517 4.361-2.41 6.714-.918 1.167-2.487 2.295-4.094 2.295z"/>
</g>
</svg>
