<svg width="185.121" height="105.901" xmlns="http://www.w3.org/2000/svg">
<g transform="translate(21.132 -280.076)">
<path d="m45.743 333.036 58.787 33.941" fill="none" stroke="#000002" stroke-dasharray="2, 2" stroke-linejoin="round" stroke-miterlimit="100"/>
<g fill="red" stroke-linejoin="round" stroke-miterlimit="100000" stroke-width="1.484">
<path d="M11.183 283.186c0-.287 0-.574-.32-.574s-.318.287-.318.574v14.793c0 .286 0 .573.319.573s.319-.287.319-.574zM19.914 288.239h1.865c.303 0 .59 0 .59-.462 0-.287-.27-.287-.542-.287h-1.785l.526-2.885c.048-.287.048-.32.207-.463.207-.19.383-.19.462-.19.224 0 .367.031.558.11-.382.192-.67.606-.67 1.037 0 .478.383.733.782.733.653 0 1.148-.574 1.148-1.18 0-.812-.83-1.275-1.818-1.275-.749 0-1.641.303-2.2 1.196-.366.59-.462 1.211-.764 2.917H16.71c-.302 0-.573 0-.573.462 0 .287.27.287.526.287h1.466l-1.211 6.79c-.032.144-.208 1.148-.287 1.371-.032.08-.287.813-.797.813-.303 0-.43-.048-.542-.095.398-.192.701-.606.701-1.052 0-.478-.382-.734-.781-.734-.654 0-1.148.574-1.148 1.18 0 .86.909 1.275 1.738 1.275 1.195 0 2.024-1.18 2.152-1.387.685-1.052 1.052-3.076 1.1-3.347zM26.425 283.186c0-.287 0-.574-.319-.574s-.318.287-.318.574v14.793c0 .286 0 .573.319.573s.318-.287.318-.574z"/>
</g>
<g stroke-linejoin="round" stroke-miterlimit="100000" stroke-width="1.333">
<path d="M43.698 289.355c.239 0 .542 0 .542-.319s-.303-.319-.526-.319h-9.549c-.223 0-.526 0-.526.32 0 .318.303.318.542.318zm.016 3.092c.223 0 .526 0 .526-.318s-.303-.32-.542-.32H34.18c-.239 0-.542 0-.542.32s.303.318.526.318zM52.124 287.282c-.734-.478-.797-1.02-.797-1.291 0-.973 1.036-1.642 2.168-1.642 1.163 0 2.183.829 2.183 1.977 0 .908-.621 1.673-1.578 2.231zm2.327 1.514c1.148-.59 1.929-1.418 1.929-2.47 0-1.467-1.419-2.376-2.87-2.376-1.594 0-2.885 1.18-2.885 2.663 0 .286.032 1.004.702 1.753.175.191.765.59 1.163.86-.924.463-2.295 1.356-2.295 2.934 0 1.69 1.626 2.757 3.3 2.757 1.8 0 3.315-1.323 3.315-3.028 0-.574-.175-1.291-.78-1.96-.304-.336-.559-.495-1.579-1.133zm-1.594.67 1.96 1.243c.447.303 1.196.781 1.196 1.754 0 1.18-1.195 2.008-2.502 2.008-1.371 0-2.519-.988-2.519-2.311 0-.925.51-1.945 1.865-2.694zM60.527 293.722c0-.462-.382-.845-.845-.845s-.844.383-.844.845c0 .462.382.845.844.845s.845-.383.845-.845zM67.728 289.498v.51c0 3.73-1.658 4.463-2.583 4.463-.27 0-1.132-.032-1.562-.573.701 0 .829-.463.829-.734 0-.494-.383-.733-.733-.733-.255 0-.734.143-.734.765 0 1.068.861 1.722 2.216 1.722 2.056 0 4.001-2.168 4.001-5.595 0-4.288-1.833-5.372-3.252-5.372-.876 0-1.657.287-2.343 1.004-.653.717-1.02 1.387-1.02 2.582 0 1.993 1.403 3.555 3.188 3.555.972 0 1.626-.67 1.993-1.594zm-1.977 1.227c-.255 0-.988 0-1.483-1.004-.286-.59-.286-1.387-.286-2.168 0-.86 0-1.61.334-2.2.43-.796 1.036-1.004 1.594-1.004.734 0 1.26.542 1.53 1.26.192.51.256 1.514.256 2.247 0 1.323-.542 2.87-1.945 2.87zM72.416 287.282c-.734-.478-.797-1.02-.797-1.291 0-.973 1.036-1.642 2.168-1.642 1.163 0 2.183.829 2.183 1.977 0 .908-.621 1.673-1.578 2.231zm2.327 1.514c1.148-.59 1.929-1.418 1.929-2.47 0-1.467-1.419-2.376-2.87-2.376-1.594 0-2.885 1.18-2.885 2.663 0 .286.032 1.004.702 1.753.175.191.765.59 1.163.86-.924.463-2.295 1.356-2.295 2.934 0 1.69 1.626 2.757 3.3 2.757 1.8 0 3.315-1.323 3.315-3.028 0-.574-.175-1.291-.78-1.96-.304-.336-.559-.495-1.579-1.133zm-1.594.67 1.96 1.243c.447.303 1.196.781 1.196 1.754 0 1.18-1.195 2.008-2.503 2.008-1.37 0-2.518-.988-2.518-2.311 0-.925.51-1.945 1.865-2.694zM80.357 287.282c-.733-.478-.797-1.02-.797-1.291 0-.973 1.036-1.642 2.168-1.642 1.164 0 2.184.829 2.184 1.977 0 .908-.622 1.673-1.578 2.231zm2.327 1.514c1.148-.59 1.929-1.418 1.929-2.47 0-1.467-1.419-2.376-2.87-2.376-1.593 0-2.884 1.18-2.884 2.663 0 .286.032 1.004.701 1.753.175.191.765.59 1.164.86-.925.463-2.296 1.356-2.296 2.934 0 1.69 1.626 2.757 3.3 2.757 1.801 0 3.315-1.323 3.315-3.028 0-.574-.175-1.291-.78-1.96-.304-.336-.559-.495-1.579-1.133zm-1.594.67 1.96 1.243c.447.303 1.196.781 1.196 1.754 0 1.18-1.195 2.008-2.502 2.008-1.371 0-2.519-.988-2.519-2.311 0-.925.51-1.945 1.865-2.694zM91.415 290.582c0-.462-.382-.845-.845-.845s-.844.383-.844.845c0 .462.382.845.844.845s.845-.383.845-.845zM98.483 290.582a.85.85 0 0 0-.845-.845.85.85 0 0 0-.844.845.85.85 0 0 0 .844.845.85.85 0 0 0 .845-.845zM105.551 290.582a.85.85 0 0 0-.845-.845.85.85 0 0 0-.845.845.85.85 0 0 0 .845.845.85.85 0 0 0 .845-.845zM116.696 290.136l-3.188-3.172c-.191-.191-.223-.223-.35-.223a.33.33 0 0 0-.32.319c0 .111.032.143.208.318l3.188 3.204-3.188 3.204c-.176.176-.208.208-.208.32 0 .174.16.318.32.318.127 0 .159-.032.35-.223l3.172-3.172 3.3 3.3c.032.015.143.095.239.095a.31.31 0 0 0 .319-.319c0-.032 0-.096-.048-.175-.016-.032-2.55-2.535-3.348-3.348l2.917-2.917c.08-.095.32-.303.399-.398.016-.032.08-.096.08-.207a.31.31 0 0 0-.32-.32c-.127 0-.19.064-.366.24zM131.075 284.365c0-.383 0-.414-.367-.414-.988 1.02-2.39 1.02-2.9 1.02v.494c.318 0 1.259 0 2.087-.415v8.257c0 .574-.047.766-1.482.766h-.51v.494c.558-.048 1.945-.048 2.582-.048.638 0 2.025 0 2.583.048v-.494h-.51c-1.435 0-1.483-.176-1.483-.766zM141.661 289.466c0-1.275-.08-2.55-.638-3.73-.733-1.53-2.04-1.785-2.71-1.785-.956 0-2.12.414-2.773 1.897-.51 1.1-.59 2.343-.59 3.618 0 1.196.064 2.63.717 3.842.686 1.29 1.85 1.61 2.63 1.61.861 0 2.073-.335 2.774-1.85.51-1.1.59-2.343.59-3.602zm-3.363 5.1c-.622 0-1.563-.398-1.85-1.928-.175-.956-.175-2.423-.175-3.363 0-1.02 0-2.073.128-2.933.303-1.897 1.498-2.04 1.897-2.04.526 0 1.578.286 1.88 1.864.16.893.16 2.104.16 3.109 0 1.195 0 2.28-.175 3.3-.24 1.514-1.148 1.992-1.865 1.992zM146.934 284.66c0 2.767-1.372 3.191-2.042 3.191-.245 0-.837-.022-1.138-.368.457-.045.49-.424.49-.524 0-.28-.189-.525-.524-.525-.334 0-.535.223-.535.547 0 .759.636 1.227 1.718 1.227 1.596 0 3.102-1.506 3.102-3.894 0-2.767-1.227-3.738-2.533-3.738-.368 0-1.138.056-1.774.68-.38.369-.826.804-.826 1.808a2.438 2.438 0 0 0 2.433 2.466c.893 0 1.372-.591 1.629-1.093zm-1.573.558c-.435 0-.848-.145-1.16-.658-.257-.413-.257-.882-.257-1.496 0-.647 0-1.093.323-1.54.268-.39.636-.624 1.216-.624.57 0 .904.357 1.083.647.301.469.335 1.25.335 1.64 0 1.45-.837 2.03-1.54 2.03zM155.774 283.887c-.143-.191-.16-.207-.462-.207h-2.71v.494h.462c.24 0 .558.016.797.032.367.048.383.064.383.366v8.321c0 .43 0 1.18-1.642 1.18v.494c.558-.016 1.339-.048 1.865-.048s1.307.032 1.865.048v-.494c-1.642 0-1.642-.75-1.642-1.18v-8.289c.08.08.096.096.16.192l6.503 9.564c.144.191.16.207.271.207.223 0 .223-.112.223-.414v-8.8c0-.43 0-1.18 1.642-1.18v-.493c-.558.016-1.339.048-1.865.048s-1.307-.032-1.865-.048v.494c1.642 0 1.642.75 1.642 1.18v6.806zM77.434 330.425c.192-.331.208-.359-.11-.542-1.366.39-2.58-.312-3.022-.567l-.248.428c.276.16 1.091.63 2.016.685l-4.128 7.15c-.287.498-.424.64-1.667-.078l-.442-.255-.247.428c.507.237 1.708.93 2.26 1.25.553.318 1.754 1.012 2.213 1.332l.247-.428-.442-.255c-1.242-.717-1.196-.893-.9-1.404zM81.713 338.343l-2.136 3.7c-.359.62-.51.533-1.436 0l-.247.427c.491.265 1.211.644 1.584.86.359.206 1.06.649 1.522.933l.247-.428c-.925-.534-1.077-.621-.718-1.242l1.467-2.54c.829-1.436 2.255-1.643 3.138-1.133.87.502.592 1.335.137 2.122l-1.857 3.216c-.358.622-.51.534-1.435 0l-.247.428c.491.265 1.211.644 1.584.859.359.207 1.06.65 1.522.934l.247-.428c-.925-.534-1.077-.622-.718-1.243l1.466-2.54c.83-1.435 2.256-1.643 3.14-1.133.869.503.59 1.336.136 2.123l-1.857 3.216c-.359.621-.51.534-1.435 0l-.247.427c.49.266 1.21.644 1.583.86.36.207 1.061.649 1.523.934l.247-.428c-.718-.415-1.063-.614-.838-1.036l1.522-2.637c.686-1.187.933-1.615.792-2.359-.058-.346-.354-.885-1.155-1.347-1.16-.67-2.245-.192-2.783.197.5-1.313-.433-2.054-1.055-2.413-1.007-.582-1.999-.363-2.88.27l.837-1.45-2.034-.972-.247.428c.967.558 1.021.719.63 1.395zM33.122 341.416c0-.383 0-.414-.367-.414-.988 1.02-2.391 1.02-2.901 1.02v.494c.319 0 1.26 0 2.088-.415v8.257c0 .574-.048.766-1.482.766h-.51v.494c.557-.048 1.944-.048 2.582-.048s2.024 0 2.582.048v-.494h-.51c-1.435 0-1.482-.176-1.482-.766zM39.924 346.167c0 3.3 2.582 5.802 5.547 5.802 2.598 0 4.16-2.215 4.16-4.064 0-.16 0-.271-.207-.271-.175 0-.175.095-.191.254-.128 2.28-1.833 3.587-3.57 3.587-.973 0-4.097-.542-4.097-5.292 0-4.766 3.108-5.308 4.08-5.308 1.738 0 3.157 1.45 3.475 3.778.032.223.032.27.255.27.256 0 .256-.047.256-.382v-3.778c0-.27 0-.382-.176-.382-.064 0-.127 0-.255.191l-.797 1.18c-.59-.574-1.403-1.371-2.933-1.371-2.98 0-5.547 2.534-5.547 5.786zM92.16 374.925c0-.383 0-.414-.367-.414-.989 1.02-2.391 1.02-2.901 1.02v.494c.318 0 1.259 0 2.088-.415v8.257c0 .574-.048.766-1.483.766h-.51v.494c.558-.048 1.945-.048 2.583-.048s2.024 0 2.582.048v-.494h-.51c-1.435 0-1.483-.176-1.483-.766zM98.962 379.675c0 3.3 2.582 5.802 5.547 5.802 2.598 0 4.16-2.215 4.16-4.064 0-.16 0-.271-.207-.271-.175 0-.175.096-.191.255-.128 2.279-1.833 3.586-3.57 3.586-.973 0-4.098-.542-4.098-5.292 0-4.766 3.109-5.308 4.081-5.308 1.738 0 3.156 1.45 3.475 3.778.032.223.032.27.255.27.255 0 .255-.047.255-.382v-3.778c0-.27 0-.382-.175-.382-.064 0-.128 0-.255.191l-.797 1.18c-.59-.574-1.403-1.371-2.933-1.371-2.981 0-5.547 2.534-5.547 5.786z"/>
</g>
<ellipse transform="rotate(-.706) skewX(-.032)" cx="41.814" cy="333.576" rx="4.655" ry="4.656" fill="#ef0000"/>
<ellipse transform="rotate(-.706) skewX(-.032)" cx="100.453" cy="367.81" rx="4.655" ry="4.656" fill="#ef0000"/>
<path d="m46.352 331.982-48.271-27.87 3.635-2.86-22.348-5.96 16.335 16.375.66-4.579 48.27 27.87 1.719-2.976" clip-path="url(#p2985508f7a)" fill="red"/>
</g>
</svg>
