<svg width="90.048" height="116.051" xmlns="http://www.w3.org/2000/svg">
<defs>
<marker id="a" overflow="visible" orient="auto">
<path d="m-10 0-4 4L0 0l-14-4z" fill-rule="evenodd" stroke="#000" stroke-width=".8pt"/>
</marker>
<marker id="b" overflow="visible" orient="auto">
<path d="m-10 0-4 4L0 0l-14-4z" fill-rule="evenodd" stroke="#000" stroke-width=".8pt"/>
</marker>
</defs>
<g transform="translate(-44.976 -260.716)">
<path d="m88.13 354.696-38-85" fill="none" marker-end="url(#a)" stroke="#000" stroke-miterlimit="100"/>
<path d="M83.124 365.616c0-3.744-2.028-6.256-4.878-6.256-4.132 0-8.34 5.28-8.34 10.698 0 3.86 2.142 6.209 4.897 6.209 4.055 0 8.32-5.093 8.32-10.651zm-8.206 10.046c-1.894 0-3.233-1.884-3.233-4.953 0-1.023.268-4.419 1.74-7.14 1.32-2.418 3.195-3.627 4.706-3.627 1.569 0 3.29 1.302 3.29 4.767 0 1.674-.516 5.302-2.41 8.163-.918 1.418-2.487 2.79-4.093 2.79z"/>
<circle transform="rotate(-30.691)" cx="-105.255" cy="349.997" r="3.732"/>
<path d="M110.229 337.745c-.057.287-.172.727-.172.823 0 .344.268.516.555.516.23 0 .573-.153.707-.536.039-.076.689-2.678.765-3.022.153-.631.498-1.97.613-2.487.076-.248.612-1.147 1.07-1.568.154-.134.708-.631 1.531-.631.497 0 .784.23.803.23-.573.095-.994.554-.994 1.051 0 .306.21.67.727.67.516 0 1.052-.44 1.052-1.129 0-.67-.612-1.243-1.588-1.243-1.243 0-2.085.937-2.448 1.473-.153-.861-.842-1.473-1.741-1.473-.88 0-1.243.746-1.416 1.09-.344.65-.593 1.798-.593 1.856 0 .19.192.19.23.19.191 0 .21-.018.325-.439.325-1.358.708-2.276 1.397-2.276.325 0 .593.153.593.88 0 .401-.058.612-.307 1.606zM93.12 316.184c0-1.262-.343-3.921-2.294-3.921-2.66 0-5.605 5.394-5.605 9.774 0 1.798.555 3.922 2.295 3.922 2.697 0 5.605-5.49 5.605-9.775zm-5.871 2.62c.325-1.224.707-2.754 1.472-4.112.517-.937 1.225-2.008 2.085-2.008.938 0 1.052 1.224 1.052 2.314 0 .937-.153 1.913-.612 3.807zm3.825.613c-.21.88-.612 2.505-1.339 3.883-.67 1.3-1.396 2.238-2.219 2.238-.63 0-1.033-.555-1.033-2.334 0-.803.115-1.913.612-3.787z"/>
<path d="m88.13 354.696 28.935-56.83" fill="none" marker-end="url(#b)" stroke="#000" stroke-dasharray="1.6, 1.6" stroke-miterlimit="100" stroke-width=".8"/>
<g stroke-linejoin="round" stroke-miterlimit="100000" stroke-width=".833">
<path d="M72.19 262.191a1.429 1.429 0 0 0-1.034 1.32c0 .42.325.88.957.88.67 0 1.377-.555 1.377-1.492 0-1.014-1.014-1.684-2.18-1.684-1.091 0-1.799.823-2.047 1.167-.479-.803-1.55-1.167-2.64-1.167-2.41 0-3.711 2.353-3.711 2.984 0 .268.287.268.46.268.229 0 .363 0 .439-.248.555-1.741 1.932-2.315 2.716-2.315.727 0 1.071.344 1.071.956 0 .364-.267 1.416-.44 2.105l-.65 2.62c-.287 1.167-.975 1.74-1.626 1.74-.095 0-.535 0-.918-.286a1.429 1.429 0 0 0 1.033-1.32c0-.42-.325-.88-.956-.88-.67 0-1.378.555-1.378 1.492 0 1.014 1.014 1.683 2.18 1.683 1.091 0 1.799-.822 2.048-1.166.478.803 1.55 1.166 2.64 1.166 2.41 0 3.71-2.352 3.71-2.984 0-.267-.287-.267-.459-.267-.23 0-.363 0-.44.248-.554 1.741-1.932 2.315-2.716 2.315-.727 0-1.071-.344-1.071-.957 0-.401.249-1.415.42-2.123.135-.497.575-2.295.67-2.601.287-1.148.957-1.74 1.626-1.74.096 0 .536 0 .918.286zM128.167 286.752a1.428 1.428 0 0 0-1.033 1.32c0 .42.325.88.956.88.67 0 1.378-.555 1.378-1.492 0-1.014-1.014-1.684-2.18-1.684-1.091 0-1.799.823-2.048 1.167-.478-.803-1.549-1.167-2.64-1.167-2.41 0-3.71 2.353-3.71 2.984 0 .268.287.268.459.268.23 0 .363 0 .44-.248.555-1.741 1.932-2.315 2.716-2.315.727 0 1.071.344 1.071.956 0 .364-.268 1.416-.44 2.105l-.65 2.62c-.287 1.167-.976 1.74-1.626 1.74-.096 0-.536 0-.918-.286a1.429 1.429 0 0 0 1.033-1.32c0-.42-.325-.88-.957-.88-.67 0-1.377.555-1.377 1.492 0 1.014 1.014 1.683 2.18 1.683 1.091 0 1.799-.822 2.047-1.166.479.803 1.55 1.166 2.64 1.166 2.41 0 3.711-2.352 3.711-2.984 0-.267-.287-.267-.459-.267-.23 0-.363 0-.44.248-.555 1.741-1.932 2.315-2.716 2.315-.727 0-1.071-.344-1.071-.957 0-.401.248-1.415.42-2.123.134-.497.574-2.295.67-2.601.287-1.148.956-1.74 1.626-1.74.096 0 .535 0 .918.286zM134.403 280.204c.107-.228.12-.335.12-.428 0-.416-.374-.737-.79-.737-.508 0-.669.415-.736.63l-1.767 5.797a2.03 2.03 0 0 0-.067.214c0 .161.415.295.522.295.094 0 .107-.027.2-.228z"/>
</g>
<path d="M79.926 336.355a20.092 20.092 0 0 1 17.119.335" fill="none" stroke="#000" stroke-linejoin="round" stroke-miterlimit="100"/>
<ellipse transform="rotate(-30.707) skewX(-.032)" cx="-94.476" cy="257.481" rx="4.655" ry="4.656" fill="#ef0000"/>
</g>
</svg>
