<svg width="164.291" height="112.8" xmlns="http://www.w3.org/2000/svg">
<defs>
<marker id="a" overflow="visible" orient="auto">
<path d="m-10 0-4 4L0 0l-14-4z" fill-rule="evenodd" stroke="#000" stroke-width=".8pt"/>
</marker>
</defs>
<g transform="translate(-23.569 -270.912)">
<g stroke-linejoin="round" stroke-miterlimit="100000">
<path d="M33.723 274.073a1.429 1.429 0 0 0-1.033 1.32c0 .42.325.88.956.88.67 0 1.378-.555 1.378-1.492 0-1.014-1.014-1.684-2.181-1.684-1.09 0-1.798.823-2.047 1.167-.478-.803-1.55-1.167-2.64-1.167-2.41 0-3.71 2.353-3.71 2.984 0 .268.287.268.459.268.23 0 .363 0 .44-.248.554-1.741 1.932-2.315 2.716-2.315.727 0 1.071.344 1.071.956 0 .364-.268 1.416-.44 2.105l-.65 2.62c-.287 1.167-.976 1.74-1.626 1.74-.096 0-.536 0-.918-.286a1.429 1.429 0 0 0 1.033-1.32c0-.42-.326-.88-.957-.88-.67 0-1.377.555-1.377 1.492 0 1.014 1.014 1.683 2.18 1.683 1.09 0 1.799-.822 2.047-1.166.479.803 1.55 1.166 2.64 1.166 2.41 0 3.71-2.352 3.71-2.984 0-.267-.286-.267-.458-.267-.23 0-.364 0-.44.248-.555 1.741-1.932 2.315-2.716 2.315-.727 0-1.071-.344-1.071-.957 0-.401.248-1.415.42-2.123.134-.497.574-2.295.67-2.601.287-1.148.956-1.74 1.626-1.74.095 0 .535 0 .918.286z"/>
<path d="M85.51 293.073a1.429 1.429 0 0 0-1.033 1.32c0 .42.326.88.957.88.67 0 1.377-.555 1.377-1.492 0-1.014-1.014-1.684-2.18-1.684-1.09 0-1.799.823-2.047 1.167-.478-.803-1.55-1.167-2.64-1.167-2.41 0-3.71 2.353-3.71 2.984 0 .268.286.268.458.268.23 0 .364 0 .44-.248.555-1.741 1.932-2.315 2.716-2.315.727 0 1.072.344 1.072.956 0 .364-.268 1.416-.44 2.105l-.65 2.62c-.288 1.167-.976 1.74-1.627 1.74-.095 0-.535 0-.918-.286a1.429 1.429 0 0 0 1.033-1.32c0-.42-.325-.88-.956-.88-.67 0-1.377.555-1.377 1.492 0 1.014 1.013 1.683 2.18 1.683 1.09 0 1.798-.822 2.047-1.166.478.803 1.55 1.166 2.64 1.166 2.41 0 3.71-2.352 3.71-2.984 0-.267-.286-.267-.459-.267-.23 0-.363 0-.44.248-.554 1.741-1.932 2.315-2.716 2.315-.727 0-1.071-.344-1.071-.957 0-.401.249-1.415.42-2.123.135-.497.575-2.295.67-2.601.287-1.148.957-1.74 1.626-1.74.096 0 .536 0 .918.286zM94.169 294.843c0-.2 0-.522-.321-.522-.335 0-.335.308-.335.522v8.114h-4.084c-.2 0-.536 0-.536.322 0 .334.308.334.536.334h8.824c.214 0 .535 0 .535-.321 0-.335-.307-.335-.535-.335h-4.084z" fill="red"/>
</g>
<g fill="none">
<path d="M90.672 342.631 51.62 276.795" marker-end="url(#a)" stroke="#000" stroke-dasharray="1.99999997, 1.99999997" stroke-miterlimit="100"/>
<path d="m84.24 331.788 11.372-6.754 6.75 11.38" stroke="#000" stroke-linejoin="round" stroke-width=".624"/>
<path d="M183.957 287.861 24.579 382.353" color="#000" stroke="red" stroke-linejoin="round" stroke-miterlimit="100" stroke-width="2" style="isolation:auto;mix-blend-mode:normal"/>
</g>
<ellipse transform="rotate(-30.707) skewX(-.032)" cx="-96.817" cy="263.501" rx="4.655" ry="4.656" fill="#ef0000"/>
<path d="m131.712 336.789-.51-.857 5.54-3.293-3.16-5.315-5.011 2.979-.498-.838 11.086-6.588.497.837-4.998 2.971 3.159 5.315 5.605-3.331.51.857-5.606 3.332 2.556 4.3-1.075.638-2.556-4.3zm8.48-7.039-1.07.243q-.047-1.926-.547-4.404l1.263-.323q.38 2.862.354 4.484zm-6.572 3.853q-1.919-1.546-3.404-2.529l.784-.948q1.18.754 3.425 2.534zM157.889 326.059l-8.857 5.264.361.607-1.002.595-5.198-8.744 4.26-2.532q-.188-1.039-.472-2.057l-5.434 3.23-.475-.798 12.121-7.204.475.798-5.547 3.296q.206 1.127.322 2.147l5.605-3.332 5.197 8.745-.995.592zm-9.315 4.492 2.084-1.238-3.931-6.615-2.084 1.239zm6.575-3.907 2.281-1.357-3.93-6.614-2.283 1.356zm-7.46-4.518 1 1.682 2.559-1.521-1-1.682zm1.427 2.4.976 1.643 2.559-1.521-.976-1.642zm2.505 4.215 2.558-1.521-1.105-1.86-2.559 1.52zM167.923 311.26l-1.266-2.13-4.57 2.716 1.61 2.71-1.008.6-1.611-2.71-4.352 2.587 1.266 2.13-.91.54-1.67-2.809 5.262-3.127-.505-.851-4.419 2.626-.42-.706 9.92-5.895.432.698-4.504 2.677.505.85 5.507-3.272 1.67 2.81zm-9.508 4.482-.338-.567 2.414-1.434.337.567zm5.44-3.233-.337-.567 2.578-1.533.338.567zm-4.696 4.486-.337-.567 2.414-1.434.337.567zm5.44-3.233-.336-.567 2.578-1.533.337.567zm-2.726 8.01.337.567-.936.557-2.716-4.57 10.056-5.978 2.38 4.003-4.59 2.728.345.58q.145.244.359.305.214.06.478-.052.27-.116.837-.409.563-.299 1.123-.632.66-.392 1.362-.862.708-.475.881-.605.176-.14.248-.334.078-.198.015-.455-.057-.26-.71-1.435l.938-.388.874 1.47q.165.278.158.567 0 .286-.136.536-.133.258-.332.448-.193.186-1.22.831-1.015.649-1.905 1.178-1.669.992-2.237 1.222-.564.237-.949.1-.38-.13-.663-.605l-.501-.844zm-1.332-2.332 3.456-2.054-.616-1.035-3.455 2.054zm4.478-2.661 3.62-2.152-.615-1.035-3.62 2.152zm3.996-1.519-3.62 2.152.596 1.002 3.62-2.151zm-4.642 2.76-3.456 2.053.596 1.003 3.456-2.054zM177.581 301.594l.525.884-1.035.615-.525-.884-3.43 2.038.541.91-1.022.608-.54-.91-3.39 2.015-.502-.844 3.39-2.015-.573-.963 1.023-.607.572.962 3.429-2.038-.572-.963 1.035-.615.572.963 3.443-2.046.501.844zm-1.214 14.518-3.03-5.097q-.088 1.533-.407 2.678l-.924-.173q.31-1.657.307-3.717 0-2.071-.328-3.375l1.145-.341q.252 1.43.244 3.353l.283-.168 3.712 6.245zm8.547-5.213-1.998 1.187-.695-.854 1.767-1.05q.508-.302.237-.757l-3.7-6.225-6.172 3.668-.518-.87 8.422-5.005.517.87-1.2.713 3.896 6.555q.298.502.133.974-.155.476-.69.794zm-6.364.614.24.402-.977.58-2.579-4.34 4.379-2.602 2.34 3.937zm.5-4.625-2.4 1.426 1.434 2.414 2.4-1.427z"/>
</g>
</svg>
