<svg width="164.291" height="112.8" xmlns="http://www.w3.org/2000/svg">
<defs>
<marker id="a" overflow="visible" orient="auto">
<path d="m-10 0-4 4L0 0l-14-4z" fill-rule="evenodd" stroke="#000" stroke-width=".8pt"/>
</marker>
</defs>
<g transform="translate(-32.14 -273.77)">
<g stroke-linejoin="round" stroke-miterlimit="100000">
<path d="M42.294 276.93a1.429 1.429 0 0 0-1.033 1.32c0 .42.326.88.957.88.67 0 1.377-.555 1.377-1.492 0-1.014-1.014-1.684-2.18-1.684-1.09 0-1.799.823-2.047 1.167-.479-.803-1.55-1.167-2.64-1.167-2.41 0-3.71 2.353-3.71 2.984 0 .268.286.268.458.268.23 0 .364 0 .44-.248.555-1.741 1.932-2.315 2.716-2.315.727 0 1.072.344 1.072.956 0 .364-.268 1.416-.44 2.105l-.65 2.62c-.288 1.167-.976 1.74-1.627 1.74-.095 0-.535 0-.918-.286a1.429 1.429 0 0 0 1.033-1.32c0-.42-.325-.88-.956-.88-.67 0-1.378.555-1.378 1.492 0 1.014 1.014 1.683 2.181 1.683 1.09 0 1.798-.822 2.047-1.166.478.803 1.55 1.166 2.64 1.166 2.41 0 3.71-2.352 3.71-2.984 0-.267-.287-.267-.459-.267-.23 0-.363 0-.44.248-.554 1.741-1.932 2.315-2.716 2.315-.727 0-1.071-.344-1.071-.957 0-.401.249-1.415.42-2.123.135-.497.575-2.295.67-2.601.287-1.148.957-1.74 1.626-1.74.096 0 .536 0 .918.286z"/>
<path d="M94.082 295.93a1.429 1.429 0 0 0-1.033 1.32c0 .42.325.88.956.88.67 0 1.378-.555 1.378-1.492 0-1.014-1.014-1.684-2.181-1.684-1.09 0-1.798.823-2.047 1.167-.478-.803-1.55-1.167-2.64-1.167-2.41 0-3.71 2.353-3.71 2.984 0 .268.287.268.459.268.23 0 .363 0 .44-.248.554-1.741 1.932-2.315 2.716-2.315.727 0 1.071.344 1.071.956 0 .364-.268 1.416-.44 2.105l-.65 2.62c-.287 1.167-.976 1.74-1.626 1.74-.096 0-.536 0-.918-.286a1.429 1.429 0 0 0 1.033-1.32c0-.42-.326-.88-.957-.88-.67 0-1.377.555-1.377 1.492 0 1.014 1.014 1.683 2.18 1.683 1.09 0 1.799-.822 2.047-1.166.478.803 1.55 1.166 2.64 1.166 2.41 0 3.71-2.352 3.71-2.984 0-.267-.286-.267-.458-.267-.23 0-.364 0-.44.248-.555 1.741-1.932 2.315-2.716 2.315-.727 0-1.072-.344-1.072-.957 0-.401.25-1.415.421-2.123.134-.497.574-2.295.67-2.601.287-1.148.956-1.74 1.626-1.74.095 0 .535 0 .918.286zM102.74 297.7c0-.2 0-.522-.321-.522-.335 0-.335.308-.335.522v8.114H98c-.2 0-.536 0-.536.322 0 .334.308.334.536.334h8.824c.214 0 .535 0 .535-.321 0-.335-.307-.335-.535-.335h-4.084z" fill="red"/>
</g>
<g fill="none">
<path d="m99.243 345.488-39.052-65.836" marker-end="url(#a)" stroke="#000" stroke-dasharray="1.99999997, 1.99999997" stroke-miterlimit="100"/>
<path d="m92.811 334.645 11.372-6.754 6.75 11.38" stroke="#000" stroke-linejoin="round" stroke-width=".624"/>
<path d="M192.528 290.718 33.15 385.21" color="#000" stroke="red" stroke-linejoin="round" stroke-miterlimit="100" stroke-width="2" style="isolation:auto;mix-blend-mode:normal"/>
</g>
<ellipse transform="rotate(-30.707) skewX(-.032)" cx="-90.902" cy="270.334" rx="4.655" ry="4.656" fill="#ef0000"/>
<path d="m145.18 339.538-3.994-6.72 2.255-1.34-.705-1.187-5.77 3.43-.475-.799 5.77-3.43-.595-1.002 1.075-.639.596 1.003 5.196-3.089.474.798-5.196 3.089.705 1.187 3.871-2.3 3.994 6.719zm3.328-8.484-.686-1.154-5.196 3.089.686 1.154zm-4.009 5.087 5.197-3.089-.768-1.292-5.197 3.088zm1.212 2.038 5.196-3.089-.792-1.332-5.196 3.088zm-2.103 5.185-5.068-8.527.996-.592 4.354 7.327 10.452-6.212.475.797-10.453 6.213.24.402zM164.269 331.084l-1.339.796-.612-.805.996-.592q.494-.294.232-.736l-2.971-4.999-2.697 1.603-2.795-4.702 2.321-1.38-.294-1.35 1.124-.392.093 1.194 3.225-1.917 2.795 4.702-2.75 1.635.408.686q.714.601 1.784 1.125.764-1.703 1.033-2.782l1.051.178q-.293.978-1.295 2.956 1.922.786 3.932.939l-.24 1.07q-2.836-.269-5.31-1.877l1.812 3.046q.25.422.101.877t-.604.725zm-7.06-7.959 4.584-2.724-.76-1.28-4.584 2.725zm5.003-2.018-4.583 2.724.745 1.253 4.583-2.724zm-4.09 13.747-3.29-5.533-1.903 1.346-.616-.75.688-.435q.132-.918.26-2.279-.519-.138-2.93-.712l.235-.925.381.086q.121-1.598-.016-2.82l1.072-.209q.013 1.644-.16 3.245l1.504.383q.142-1.923.061-2.99l1.12-.157q-.073 2.684-.551 5.753 1.376-.898 2.21-1.492l-.892-.809.669-.692q1.088.96 1.924 1.766l-.682.7q-.1-.11-.422-.41-.472.362-1.058.772l3.331 5.606zm2.498-1.967-.84-.286q.637-1.36.664-2.742.034-1.385-.369-2.378l-1.464.87-.423-.712 2.315-1.375.332.079q.68 1.46.624 3.332-.05 1.868-.84 3.212zm-1.864-1.409q-.67-.735-1.7-2.05l.705-.57q.641.778 1.705 2.028zm-2.735 3.205-.851.265q-.577-2.2-1.294-3.648l.923-.46q.381.898.757 2.085.375 1.187.465 1.758zM176.495 314.117l-1.266-2.13-4.57 2.716 1.61 2.71-1.008.6-1.611-2.71-4.352 2.587 1.266 2.13-.91.54-1.67-2.809 5.262-3.127-.505-.851-4.419 2.626-.42-.706 9.92-5.895.432.698-4.504 2.677.505.85 5.507-3.272 1.67 2.81zm-9.508 4.482-.338-.567 2.414-1.434.337.567zm5.44-3.233-.337-.567 2.578-1.533.338.567zm-4.696 4.486-.337-.567 2.414-1.434.337.567zm5.44-3.233-.336-.567 2.578-1.533.337.567zm-2.726 8.01.337.567-.936.557-2.716-4.57 10.056-5.978 2.38 4.003-4.59 2.728.345.58q.145.244.359.305.214.06.478-.052.27-.116.837-.409.563-.299 1.123-.632.66-.392 1.362-.862.708-.475.881-.604.176-.14.248-.335.078-.198.015-.455-.057-.26-.71-1.434l.938-.389.874 1.471q.165.277.158.566 0 .286-.136.537-.133.257-.332.447-.193.186-1.22.832-1.015.648-1.905 1.177-1.669.992-2.237 1.222-.564.237-.949.1-.38-.13-.663-.605l-.501-.844zm-1.332-2.332 3.456-2.054-.616-1.035-3.455 2.054zm4.478-2.661 3.62-2.152-.615-1.035-3.62 2.152zm3.996-1.519-3.62 2.152.596 1.002 3.62-2.151zm-4.642 2.76-3.456 2.053.596 1.003 3.456-2.054zM186.153 304.451l.525.884-1.035.615-.525-.884-3.43 2.038.541.91-1.022.608-.54-.91-3.39 2.015-.502-.844 3.39-2.015-.573-.963 1.023-.607.572.962 3.429-2.038-.572-.963 1.035-.615.572.963 3.443-2.046.501.844zm-1.214 14.518-3.03-5.097q-.088 1.533-.407 2.678l-.924-.173q.31-1.657.307-3.717 0-2.071-.328-3.375l1.145-.341q.252 1.43.244 3.353l.283-.168 3.712 6.245zm8.547-5.213-1.998 1.187-.695-.854 1.767-1.05q.508-.302.237-.757l-3.7-6.225-6.172 3.668-.518-.87 8.422-5.005.517.87-1.2.713 3.896 6.555q.298.502.133.974-.155.476-.69.794zm-6.364.614.24.402-.977.58-2.579-4.34 4.379-2.602 2.34 3.937zm.5-4.625-2.4 1.426 1.434 2.414 2.4-1.427z"/>
</g>
</svg>
