<svg width="205.767" height="128" xmlns="http://www.w3.org/2000/svg">
<g transform="translate(-15.304 -267.551)">
<path d="M138.277 309.338a62.86 62.86 0 0 1 4.028 22.213c0 34.794-28.206 63-63 63s-63-28.206-63-63 28.206-63 63-63c8.885 0 17.34 1.84 25.006 5.158v35.629z" fill="#fff8f8"/>
<circle cx="79.304" cy="331.551" r="32" fill="#ffd7d7" stroke="red" stroke-linejoin="round" stroke-miterlimit="100"/>
<circle transform="rotate(-30.691)" cx="-101.031" cy="325.589" r="1.965"/>
<ellipse transform="rotate(-30.707) skewX(-.032)" cx="-100.002" cy="293.598" rx="4.655" ry="4.656" fill="#ef0000"/>
<path d="M68.34 289.501a1.429 1.429 0 0 0-1.032 1.32c0 .42.325.88.956.88.67 0 1.377-.555 1.377-1.492 0-1.014-1.013-1.684-2.18-1.684-1.09 0-1.798.823-2.047 1.167-.478-.803-1.55-1.167-2.64-1.167-2.41 0-3.71 2.353-3.71 2.984 0 .268.286.268.459.268.23 0 .363 0 .44-.248.554-1.741 1.931-2.315 2.716-2.315.727 0 1.07.344 1.07.956 0 .364-.267 1.416-.439 2.105l-.65 2.62c-.287 1.167-.976 1.74-1.626 1.74-.096 0-.536 0-.918-.286a1.429 1.429 0 0 0 1.032-1.32c0-.42-.325-.88-.956-.88-.67 0-1.377.555-1.377 1.492 0 1.014 1.014 1.683 2.18 1.683 1.09 0 1.798-.822 2.047-1.166.478.803 1.55 1.166 2.64 1.166 2.41 0 3.71-2.352 3.71-2.984 0-.267-.286-.267-.458-.267-.23 0-.364 0-.44.248-.555 1.741-1.932 2.315-2.716 2.315-.727 0-1.072-.344-1.072-.957 0-.401.249-1.415.421-2.123.134-.497.574-2.295.67-2.601.287-1.148.956-1.74 1.626-1.74.095 0 .535 0 .918.286z"/>
<path d="M101.907 336.161c2.965-1.129 5.777-4.533 5.777-8.225 0-3.08-2.028-5.146-4.878-5.146-4.132 0-8.34 4.342-8.34 8.8 0 3.175 2.142 5.107 4.897 5.107.478 0 1.129-.077 1.875-.287-.077 1.186-.077 1.224-.077 1.473 0 .612 0 2.104 1.588 2.104 2.276 0 3.194-3.5 3.194-3.711 0-.134-.134-.192-.21-.192-.153 0-.192.096-.23.21-.459 1.359-1.568 1.837-2.238 1.837-.88 0-1.167-.516-1.358-1.97zm-3.615-.153c-1.492-.593-2.143-2.085-2.143-3.806 0-1.32.498-4.037 1.951-6.102 1.397-1.951 3.195-2.831 4.591-2.831 1.913 0 3.31 1.492 3.31 4.055 0 1.913-.976 6.389-4.19 8.187-.095-.67-.287-2.066-1.683-2.066-1.014 0-1.951.956-1.951 1.95 0 .384.115.594.115.613zm1.186.21c-.268 0-.88 0-.88-.822 0-.765.727-1.53 1.53-1.53s1.167.459 1.167 1.626c0 .287-.02.306-.21.382a4.25 4.25 0 0 1-1.607.344z" fill="#ef0000"/>
<path d="M116.845 287.066v-7.3q-1.17-1.058-1.594-1.698l.62-.627q.431.536.974 1.065v-4.203h1.12v5.178q1.789 1.42 3.605 2.275l-.626.933q-1.427-.759-2.979-1.984v6.361zm-7.996-.042-.578-.689q2.506-1.433 4.05-4.307-1.517-1.183-2.686-1.942-.57.995-1.176 1.705l-.744-.515q1.183-1.65 1.941-3.57.766-1.92 1.03-3.375l1.072.118q-.09.647-.41 1.67h3.52q-.027 3.897-1.795 6.779-1.76 2.874-4.224 4.126zm3.918-5.929q.884-2.164.884-4.106h-2.596q-.445 1.225-1.002 2.325 1.239.758 2.714 1.781zM125.989 274.463q-.431 1.858-1.475 4.008h.452v8.553h-1.044v-7.335q-.71 1.44-1.336 2.172l-.668-.599q.967-1.315 1.816-3.32.85-2.01 1.162-3.653zm9.318 11.364q0 .453-.375.731-.376.278-.759.278h-1.726l-.174-.96h1.35q.258 0 .439-.16.188-.16.188-.397V274.4h1.057zm-4.899-2.15h-4.203v-8.943h4.203zm-.988-6.208v-1.948h-2.22v1.948zm0 2.63V278.2h-2.22v1.9zm0 .746h-2.22v2.032h2.22zm3.375 2.7h-1.05v-8.122h1.05zm-1.573 2.749-.87.522q-.278-.32-.8-1.135-.515-.821-.696-1.232l.87-.361q.452.925 1.496 2.206zm-3.444-1.803q-.244.48-.836 1.274-.591.786-.98 1.127l-.725-.536q.383-.348.905-1.065.529-.716.738-1.162zM143.506 286.426l-.271-.94q2.24-.201 3.827-1.3 1.594-1.1 1.594-3.286 0-1.948-1.288-3.013-1.28-1.065-3.577-1.127-.076 3.744-1.343 6.249-1.266 2.505-3.173 2.505-1.183 0-1.865-1.002-.675-1.009-.675-2.456 0-2.387 2.06-4.287 2.06-1.907 4.878-1.907 2.651 0 4.37 1.33 1.72 1.321 1.72 3.618 0 2.617-1.734 4.001-1.732 1.385-4.523 1.615zm-.807-9.576q-2.018.306-3.473 1.83-1.454 1.518-1.454 3.431 0 1.016.424 1.726.425.703 1.183.703 1.302 0 2.269-2.429.967-2.435 1.05-5.26zM162.504 279.369v-2.248h-4.823v2.86h-1.064v-2.86h-4.593v2.248h-.96v-2.965h5.553v-.897h-4.663v-.745h10.467l.013.745h-4.753v.897h5.811v2.965zm-9.492-.912v-.598h2.547v.598zm5.741 0v-.598h2.721v.598zm-5.741 1.323v-.599h2.547v.599zm5.741 0v-.599h2.721v.599zm-5.839 4.982v.599h-.988v-4.823h10.613v4.224h-4.844v.613q0 .257.14.403.139.147.396.181.265.035.842.07.578.028 1.17.028.695 0 1.46-.042.773-.042.968-.063.202-.027.348-.146.153-.118.223-.348.076-.23.111-1.447l.912.132v1.552q0 .292-.14.515-.132.223-.354.355-.223.139-.467.195-.236.055-1.336.083-1.092.035-2.032.035-1.76 0-2.31-.084-.55-.076-.787-.361-.236-.279-.236-.78v-.89zm.042-2.435h3.647v-1.093h-3.647zm4.725 0h3.82v-1.093h-3.82zm3.82.668h-3.82v1.058h3.82zm-4.898 0h-3.647v1.058h3.647zM174.516 276.307v.933h-1.093v-.933h-3.618v.96h-1.079v-.96h-3.577v-.89h3.577V274.4h1.079v1.016h3.618V274.4h1.093v1.016h3.633v.891zm-7.676 10.759v-5.38q-.78 1.156-1.559 1.9l-.64-.563q1.009-1.149 1.962-2.756.96-1.615 1.309-2.784l1.05.265q-.466 1.231-1.363 2.728h.299v6.59zm9.082-.104h-2.109l-.146-.989h1.865q.536 0 .536-.48v-6.57h-6.514v-.918h8.887v.919h-1.267v6.917q0 .529-.348.821-.34.3-.904.3zm-5.247-2.471v.425h-1.03v-4.58h4.62v4.155zm2.533-3.375h-2.533v2.547h2.533zM183.618 276.133q0 .626-.063 1.427h2.673q.988 0 1.545.71.563.702.563 1.844 0 2.804-.591 4.648t-2.074 1.845q-.863 0-2.422-.822l.341-.883q.376.18 1.044.403.675.216.926.216.57.007.904-.599.341-.612.557-1.712.223-1.106.223-2.623 0-1.385-.376-1.747-.369-.369-.981-.369h-2.422q-.244 2.366-1.127 4.538-.877 2.17-2.22 3.674l-.787-.57q.905-1.072 1.796-2.98.897-1.913 1.21-4.516h-2.72v-.932h2.832q.049-.487.049-2.805h1.12zm8.539 5.77-1.086.284q-.946-3.486-2.763-5.428l.815-.556q.953.974 1.83 2.637.877 1.656 1.204 3.062zm.73-5.986-.8.327q-.466-1.078-.995-1.927l.738-.355q.48.744 1.058 1.955zm-1.997.286-.8.355q-.501-1.12-1.01-1.949l.753-.348q.605.94 1.057 1.942zM211.065 286.28l-.995.23q-.717-2.29-.717-4.97 0-2.922.953-6.304l1.072.188q-.96 3.166-.96 6.172 0 2.471.647 4.684zm9.423-9.193q-1.107-.02-2.088-.02-1.44 0-5.212.194 0-.313-.042-.94 3.584-.208 5.825-.208 1.113 0 1.482.02v.063q0 .32.035.89zm.083 8.852q-1.454.153-2.846.153-1.935 0-2.895-.223-.954-.23-1.448-.751t-.494-1.343q0-1.197 1.044-2.526l.807.431q-.856.94-.856 2.032 0 .543.46.877.466.334 1.238.445.78.105 2.207.105 1.447 0 2.783-.167zM115.669 304.763v-9.374h-1.05q-.954 2.15-2.235 3.702l-.772-.55q1.169-1.496 1.914-3.27.744-1.775 1.036-3.125l1.12.188q-.291 1.12-.723 2.227h6.41v.828h-4.607v2.15h4.182v.842h-4.182v2.095h4.259v.856h-4.26v3.431zm-5.727.118v-7.098q-.703 1.176-1.538 2.185l-.717-.57q1.106-1.413 2.171-3.543 1.072-2.136 1.378-3.681l1.12.202q-.375 1.503-1.607 3.925h.236v8.58zM130.854 303.448q2.61-.626 2.61-2.686 0-1.274-.96-1.97-.961-.696-2.562-.696-1.1 0-2.15.279-1.044.278-2.408 1.134-1.357.856-1.893 1.308l-.515-.856q4.238-2.734 8.282-5.755l-7.043.028v-.926h8.497l.487.71-4.906 3.396.056.084q.849-.258 1.69-.258 1.998 0 3.279.919 1.287.919 1.287 2.54 0 1.9-1.573 2.902-1.573.995-4.217.995-3.633 0-3.633-1.997 0-.786.752-1.322t1.65-.536q1.259 0 2.157.703.897.703 1.113 2.004zm-1.023.18q-.404-1.996-2.171-1.996-.564 0-1.016.278-.446.278-.446.738 0 1.064 2.464 1.064.536 0 1.169-.083zM148.252 297.185v-2.248h-4.823v2.86h-1.064v-2.86h-4.593v2.248h-.96v-2.965h5.553v-.897h-4.663v-.745h10.467l.013.745h-4.753v.897h5.811v2.965zm-9.492-.912v-.598h2.547v.598zm5.741 0v-.598h2.721v.598zm-5.741 1.323v-.599h2.547v.599zm5.741 0v-.599h2.721v.599zm-5.839 4.982v.599h-.988v-4.823h10.613v4.224h-4.844v.613q0 .257.14.403.139.147.396.181.265.035.842.07.578.028 1.17.028.695 0 1.46-.042.773-.042.968-.063.202-.027.348-.146.153-.118.223-.348.076-.23.111-1.447l.912.132v1.552q0 .292-.14.515-.132.223-.354.355-.223.139-.467.195-.236.055-1.336.083-1.092.035-2.032.035-1.76 0-2.31-.084-.55-.076-.787-.361-.236-.279-.236-.78v-.89zm.042-2.435h3.647v-1.093h-3.647zm4.725 0h3.82v-1.093h-3.82zm3.82.668h-3.82v1.058h3.82zm-4.898 0h-3.647v1.058h3.647zM150.771 301.959l-.306-.919q.717-.146 2.018-.5v-4.629h-1.566v-.828h1.566v-2.79h1.079v2.79h1.378v.828h-1.378v4.322q.807-.243 1.28-.424l.098.737q-.836.446-4.169 1.413zm5.17-5.073v-4.336h7.036v4.336zm1.051-2.506h4.928v-1.057h-4.928zm4.928.731h-4.928v1.03h4.928zm-7.113 9.409-.536-.612q2.27-1.378 3.696-3.431h-1.427q-.884.988-1.976 1.698l-.508-.592q1.802-1.315 2.616-2.937h-1.934v-.786h9.29v.786h-6.235q-.279.543-.627 1.044h6.278v.515q0 1.65-.09 2.36-.126.967-.363 1.42-.153.291-.515.514-.362.223-.793.265-.111.013-1.642.013l-.16-.897h1.169q.438 0 .751-.21.313-.208.453-1.057.146-.856.146-1.962v-.174h-.8q-1.378 2.749-3.898 4.314l-.55-.535q2.165-1.538 3.376-3.78h-1.476q-.744 1.219-1.934 2.304-1.183 1.086-2.31 1.74zM178.503 302.69l-.626.856q-.675-.612-2.408-1.726v.425q0 1.057-.703 1.586-.696.522-2.373.522-1.134 0-1.949-.55-.807-.55-.807-1.475 0-.946.773-1.53.772-.592 1.865-.592 1.071 0 2.087.257v-4.113h-4.892v-.94h4.892v-2.553h1.093v2.554h2.596v.94h-2.596v4.495q1.621.654 3.048 1.844zm-4.078-.445v-.842q-.835-.355-2.13-.355-.723.007-1.19.334-.459.32-.459.89 0 .564.536.884.536.313 1.273.313 1.97 0 1.97-1.224zm-6.583 1.85-1.037.23q-.71-2.29-.71-4.968 0-2.923.953-6.305l1.065.187q-.953 3.146-.953 6 0 2.518.682 4.857zM192.359 295.292q-1.67 2.958-4.134 4.857l-.758-.695q1.941-1.56 3.236-3.703l-7.085 1.058v4.37q0 .982.487 1.469.495.48 1.852.48h5.929v1.03h-6.229q-3.222 0-3.222-2.895v-4.28l-2.964.445-.126-1.023 3.146-.445v-3.236h1.21v3.07l7.941-1.114zm.3-1.795-.801.327q-.466-1.086-.995-1.921l.724-.348q.563.87 1.071 1.942zm-2.026.424-.8.362q-.508-1.155-1.01-1.956l.752-.34q.62.96 1.058 1.934zM205.713 304.102h-11.107v-10.133h11.107zm-1.183-.974v-8.233h-8.769v8.233zM204.892 278.773a1.429 1.429 0 0 0-1.033 1.32c0 .42.325.88.956.88.67 0 1.378-.555 1.378-1.492 0-1.014-1.014-1.684-2.18-1.684-1.091 0-1.799.823-2.048 1.167-.478-.803-1.549-1.167-2.64-1.167-2.41 0-3.71 2.353-3.71 2.984 0 .268.287.268.459.268.23 0 .363 0 .44-.248.555-1.741 1.932-2.315 2.716-2.315.727 0 1.071.344 1.071.956 0 .364-.268 1.416-.44 2.105l-.65 2.62c-.287 1.167-.976 1.74-1.626 1.74-.096 0-.536 0-.918-.286a1.429 1.429 0 0 0 1.033-1.32c0-.42-.325-.88-.957-.88-.67 0-1.377.555-1.377 1.492 0 1.014 1.014 1.683 2.18 1.683 1.091 0 1.799-.822 2.047-1.166.479.803 1.55 1.166 2.64 1.166 2.41 0 3.711-2.352 3.711-2.984 0-.267-.287-.267-.459-.267-.23 0-.363 0-.44.248-.555 1.741-1.932 2.315-2.716 2.315-.727 0-1.071-.344-1.071-.957 0-.401.248-1.415.42-2.123.134-.497.574-2.295.67-2.601.287-1.148.956-1.74 1.626-1.74.096 0 .535 0 .918.286z"/>
<path d="M138.277 309.338a62.86 62.86 0 0 1 4.028 22.213c0 34.794-28.206 63-63 63s-63-28.206-63-63 28.206-63 63-63c8.885 0 17.34 1.84 25.006 5.158" fill="none" stroke="#ff9494" stroke-linejoin="round" stroke-miterlimit="100"/>
</g>
</svg>
