<svg width="198.996" height="117.161" xmlns="http://www.w3.org/2000/svg">
<defs>
<marker id="a" overflow="visible" orient="auto">
<path d="m-10 0-4 4L0 0l-14-4z" fill-rule="evenodd" stroke="#000" stroke-width=".8pt"/>
</marker>
<marker id="b" overflow="visible" orient="auto">
<path d="m-10 0-4 4L0 0l-14-4z" fill="#0d0000" fill-rule="evenodd" stroke="#0d0000" stroke-width=".8pt"/>
</marker>
<marker id="c" overflow="visible" orient="auto">
<path d="m-10 0-4 4L0 0l-14-4z" fill-rule="evenodd" stroke="#000" stroke-width=".8pt"/>
</marker>
<marker id="d" overflow="visible" orient="auto">
<path d="m-10 0-4 4L0 0l-14-4z" fill-rule="evenodd" stroke="#000" stroke-width=".8pt"/>
</marker>
</defs>
<g transform="translate(-14.788 -280.16)">
<g stroke-linejoin="round" stroke-miterlimit="100000" stroke-width=".833">
<path d="M49.649 357.742a1.429 1.429 0 0 0-1.033 1.32c0 .42.325.88.956.88.67 0 1.378-.555 1.378-1.492 0-1.014-1.014-1.684-2.18-1.684-1.091 0-1.799.823-2.048 1.167-.478-.803-1.549-1.167-2.64-1.167-2.41 0-3.71 2.353-3.71 2.984 0 .268.287.268.459.268.23 0 .363 0 .44-.248.555-1.741 1.932-2.315 2.716-2.315.727 0 1.071.344 1.071.956 0 .364-.268 1.416-.44 2.105l-.65 2.62c-.287 1.167-.976 1.74-1.626 1.74-.096 0-.536 0-.918-.286a1.429 1.429 0 0 0 1.033-1.32c0-.42-.325-.88-.957-.88-.67 0-1.377.555-1.377 1.492 0 1.014 1.014 1.683 2.18 1.683 1.091 0 1.799-.822 2.047-1.166.479.803 1.55 1.166 2.64 1.166 2.41 0 3.711-2.352 3.711-2.984 0-.267-.287-.267-.459-.267-.23 0-.363 0-.44.248-.555 1.741-1.932 2.315-2.716 2.315-.727 0-1.071-.344-1.071-.957 0-.401.248-1.415.42-2.123.134-.497.574-2.295.67-2.601.287-1.148.956-1.74 1.626-1.74.096 0 .535 0 .918.286zM55.886 351.194c.107-.228.12-.335.12-.428 0-.416-.375-.737-.79-.737-.509 0-.67.415-.736.63l-1.768 5.797a2.03 2.03 0 0 0-.067.214c0 .161.415.295.523.295.093 0 .107-.027.2-.228zM75.49 281.636a1.429 1.429 0 0 0-1.033 1.32c0 .42.326.88.957.88.67 0 1.377-.555 1.377-1.492 0-1.014-1.014-1.684-2.18-1.684-1.09 0-1.799.823-2.047 1.167-.479-.803-1.55-1.167-2.64-1.167-2.41 0-3.71 2.353-3.71 2.984 0 .268.286.268.458.268.23 0 .364 0 .44-.248.555-1.741 1.932-2.315 2.716-2.315.727 0 1.072.344 1.072.956 0 .364-.268 1.416-.44 2.105l-.65 2.62c-.288 1.167-.976 1.74-1.627 1.74-.095 0-.535 0-.918-.286a1.429 1.429 0 0 0 1.033-1.32c0-.42-.325-.88-.956-.88-.67 0-1.378.555-1.378 1.492 0 1.014 1.014 1.683 2.181 1.683 1.09 0 1.798-.822 2.047-1.166.478.803 1.55 1.166 2.64 1.166 2.41 0 3.71-2.352 3.71-2.984 0-.267-.287-.267-.459-.267-.23 0-.363 0-.44.248-.554 1.741-1.932 2.315-2.716 2.315-.727 0-1.071-.344-1.071-.957 0-.401.249-1.415.42-2.123.135-.497.575-2.295.67-2.601.287-1.148.957-1.74 1.626-1.74.096 0 .536 0 .918.286z"/>
</g>
<g stroke-linejoin="round" stroke-miterlimit="100000" stroke-width="1.333">
<path d="M137.278 295.636a1.429 1.429 0 0 0-1.033 1.32c0 .42.325.88.956.88.67 0 1.378-.555 1.378-1.492 0-1.014-1.014-1.684-2.18-1.684-1.091 0-1.799.823-2.048 1.167-.478-.803-1.549-1.167-2.64-1.167-2.41 0-3.71 2.353-3.71 2.984 0 .268.287.268.459.268.23 0 .363 0 .44-.248.555-1.741 1.932-2.315 2.716-2.315.727 0 1.071.344 1.071.956 0 .364-.268 1.416-.44 2.105l-.65 2.62c-.287 1.167-.976 1.74-1.626 1.74-.096 0-.536 0-.918-.286a1.429 1.429 0 0 0 1.033-1.32c0-.42-.325-.88-.957-.88-.67 0-1.377.555-1.377 1.492 0 1.014 1.014 1.683 2.18 1.683 1.091 0 1.799-.822 2.047-1.166.479.803 1.55 1.166 2.64 1.166 2.41 0 3.711-2.352 3.711-2.984 0-.267-.287-.267-.459-.267-.23 0-.363 0-.44.248-.555 1.741-1.932 2.315-2.716 2.315-.727 0-1.071-.344-1.071-.957 0-.401.248-1.415.42-2.123.134-.497.574-2.295.67-2.601.287-1.148.956-1.74 1.626-1.74.096 0 .535 0 .918.286zM145.936 297.405c0-.2 0-.522-.321-.522-.335 0-.335.308-.335.522v8.114h-4.084c-.2 0-.536 0-.536.322 0 .334.308.334.536.334h8.824c.214 0 .535 0 .535-.321 0-.335-.307-.335-.535-.335h-4.084z"/>
<path d="M181.583 298.314c-.191.746-.23.899-1.74.899-.326 0-.536 0-.536.363 0 .23.172.23.535.23h6.332c3.978 0 7.747-4.036 7.747-8.225 0-2.697-1.626-4.84-4.495-4.84h-6.428c-.363 0-.573 0-.573.364 0 .23.172.23.554.23.249 0 .593.019.823.038.306.038.42.095.42.306 0 .076-.018.134-.076.363zm4.132-10.253c.172-.67.21-.727 1.033-.727h2.046c1.875 0 3.463 1.014 3.463 3.54 0 .936-.383 4.073-2.009 6.177-.555.708-2.066 2.162-4.419 2.162h-2.161c-.268 0-.306 0-.42-.02-.192-.018-.25-.037-.25-.19 0-.058 0-.096.096-.44z" fill="red"/>
<path d="M28.506 315.966c0-3.08-2.028-5.146-4.878-5.146-4.132 0-8.34 4.343-8.34 8.8 0 3.175 2.142 5.107 4.897 5.107 4.055 0 8.32-4.19 8.32-8.761zm-8.207 8.263c-1.893 0-3.232-1.549-3.232-4.074 0-.842.268-3.634 1.74-5.872 1.32-1.99 3.195-2.984 4.706-2.984 1.569 0 3.29 1.07 3.29 3.921 0 1.377-.516 4.361-2.41 6.714-.918 1.167-2.487 2.295-4.094 2.295z"/>
</g>
<g fill="none">
<path d="m137.917 338.174-31.321-52.769" marker-end="url(#a)" stroke="#000" stroke-dasharray="1.6, 1.6" stroke-miterlimit="100" stroke-width=".8"/>
<path d="m38.826 316.611 67.424-31.787" marker-end="url(#b)" stroke="#0d0000" stroke-miterlimit="100000"/>
<path d="m38.826 316.611 44.565 54.509" marker-end="url(#c)" stroke="#000" stroke-dasharray="1.6, 1.6" stroke-miterlimit="100" stroke-width=".8"/>
<path d="m132.758 329.484 9.12-5.414 5.415 9.121" stroke="#000" stroke-linejoin="round" stroke-width=".624"/>
<path d="M212.773 294.325 41.537 395.962" color="#000" stroke="red" stroke-linejoin="round" stroke-miterlimit="100" stroke-width="2" style="isolation:auto;mix-blend-mode:normal"/>
</g>
<circle transform="rotate(-30.691)" cx="-54.009" cy="299.16" r="3.732" fill="#ef0000"/>
<circle transform="rotate(-30.691)" cx="-128.214" cy="292.081" r="3.732"/>
<g stroke-linejoin="round" stroke-miterlimit="100000" stroke-width=".833">
<path d="M121.356 371.377a1.429 1.429 0 0 0-1.033 1.32c0 .42.325.88.956.88.67 0 1.378-.555 1.378-1.492 0-1.014-1.014-1.684-2.18-1.684-1.091 0-1.799.823-2.048 1.167-.478-.803-1.549-1.167-2.64-1.167-2.41 0-3.71 2.353-3.71 2.984 0 .268.287.268.459.268.23 0 .363 0 .44-.248.555-1.741 1.932-2.315 2.716-2.315.727 0 1.071.344 1.071.956 0 .364-.268 1.416-.44 2.105l-.65 2.62c-.287 1.167-.976 1.74-1.626 1.74-.096 0-.536 0-.918-.286a1.429 1.429 0 0 0 1.033-1.32c0-.42-.325-.88-.957-.88-.67 0-1.377.555-1.377 1.492 0 1.014 1.014 1.683 2.18 1.683 1.091 0 1.799-.822 2.047-1.166.479.803 1.55 1.166 2.64 1.166 2.41 0 3.711-2.352 3.711-2.984 0-.267-.287-.267-.459-.267-.23 0-.363 0-.44.248-.555 1.741-1.932 2.315-2.716 2.315-.727 0-1.071-.344-1.071-.957 0-.401.248-1.415.42-2.123.134-.497.574-2.295.67-2.601.287-1.148.956-1.74 1.626-1.74.096 0 .535 0 .918.286zM127.592 364.829c.107-.228.12-.335.12-.428 0-.416-.374-.737-.79-.737-.508 0-.669.415-.736.63l-1.767 5.797c-.013.027-.067.201-.067.214 0 .161.415.295.522.295.094 0 .107-.027.2-.228zM131.986 364.829c.107-.228.12-.335.12-.428 0-.416-.374-.737-.79-.737-.508 0-.669.415-.736.63l-1.767 5.797a2.03 2.03 0 0 0-.067.214c0 .161.415.295.522.295.094 0 .107-.027.2-.228z"/>
</g>
<path d="m140.214 342.044-54.502 32.35" fill="none" marker-end="url(#d)" stroke="#000" stroke-dasharray="1.6, 1.6" stroke-miterlimit="100" stroke-width=".8"/>
</g>
</svg>
