<svg width="226.588" height="116.292" xmlns="http://www.w3.org/2000/svg">
<g stroke-linejoin="round">
<path d="M36.006 24.801h72.125" fill="none" stroke="#000002" stroke-dasharray="2, 2" stroke-miterlimit="100"/>
<g stroke-miterlimit="100000">
<path d="M5.169 19.091c0-.46 0-.497-.44-.497-1.186 1.224-2.87 1.224-3.481 1.224v.593c.382 0 1.51 0 2.505-.498v9.909c0 .689-.057.918-1.779.918h-.612v.593c.67-.057 2.334-.057 3.1-.057.764 0 2.428 0 3.098.057v-.593h-.612c-1.722 0-1.78-.21-1.78-.918zM13.332 24.791c0 3.96 3.098 6.963 6.656 6.963 3.118 0 4.993-2.66 4.993-4.878 0-.191 0-.325-.249-.325-.21 0-.21.115-.23.306-.153 2.735-2.2 4.304-4.284 4.304-1.167 0-4.916-.65-4.916-6.35 0-5.72 3.73-6.37 4.897-6.37 2.085 0 3.787 1.74 4.17 4.533.038.268.038.325.306.325.306 0 .306-.057.306-.46v-4.532c0-.326 0-.46-.21-.46-.077 0-.154 0-.307.23l-.956 1.416c-.708-.69-1.684-1.645-3.52-1.645-3.577 0-6.656 3.04-6.656 6.943z"/>
<g stroke-width="1.333">
<path d="m120.837 75.388 2.028-1.97c2.984-2.64 4.132-3.673 4.132-5.586 0-2.18-1.722-3.71-4.056-3.71-2.161 0-3.576 1.76-3.576 3.462 0 1.07.956 1.07 1.013 1.07.325 0 .995-.229.995-1.013 0-.497-.344-.995-1.014-.995-.153 0-.191 0-.248.02.44-1.244 1.472-1.952 2.582-1.952 1.74 0 2.563 1.55 2.563 3.118 0 1.53-.956 3.042-2.008 4.228l-3.673 4.093c-.21.21-.21.249-.21.708h7.096l.536-3.329h-.479c-.095.574-.229 1.416-.42 1.703-.134.153-1.397.153-1.818.153z" fill="red"/>
<path d="M136.142 69.267h2.238c.364 0 .708 0 .708-.555 0-.344-.325-.344-.65-.344h-2.143l.631-3.462c.058-.344.058-.383.249-.555.249-.23.46-.23.555-.23.268 0 .44.039.67.134-.46.23-.804.727-.804 1.244 0 .574.459.88.937.88.784 0 1.377-.689 1.377-1.416 0-.975-.994-1.53-2.18-1.53-.9 0-1.97.363-2.64 1.435-.44.707-.555 1.453-.918 3.5h-1.875c-.363 0-.688 0-.688.555 0 .344.325.344.63.344H134l-1.453 8.149c-.038.172-.249 1.377-.344 1.645-.039.096-.345.975-.957.975-.363 0-.516-.057-.65-.114.478-.23.842-.727.842-1.263 0-.574-.46-.88-.938-.88-.784 0-1.377.689-1.377 1.416 0 1.033 1.09 1.53 2.085 1.53 1.435 0 2.43-1.416 2.582-1.664.823-1.263 1.263-3.692 1.32-4.017zM136.142 6.334h2.238c.364 0 .708 0 .708-.555 0-.344-.325-.344-.65-.344h-2.143l.631-3.462c.058-.344.058-.383.249-.555.249-.23.46-.23.555-.23.268 0 .44.039.67.134-.46.23-.804.727-.804 1.244 0 .574.459.88.937.88.784 0 1.377-.689 1.377-1.416 0-.975-.994-1.53-2.18-1.53-.9 0-1.97.363-2.64 1.435-.44.707-.555 1.453-.918 3.5h-1.875c-.363 0-.688 0-.688.555 0 .344.325.344.63.344H134l-1.453 8.149c-.038.172-.249 1.377-.344 1.645-.039.096-.345.975-.957.975-.363 0-.516-.057-.65-.114.478-.23.842-.727.842-1.263 0-.574-.46-.88-.938-.88-.784 0-1.377.689-1.377 1.416 0 1.033 1.09 1.53 2.085 1.53 1.435 0 2.43-1.416 2.582-1.664.823-1.263 1.263-3.692 1.32-4.017zM28.782 47.791c-.765 1.282-1.51 1.55-2.352 1.607-.23.019-.402.019-.402.382 0 .115.096.21.249.21.516 0 1.109-.056 1.645-.056.63 0 1.3.057 1.912.057.115 0 .364 0 .364-.364 0-.21-.172-.23-.306-.23-.44-.037-.9-.19-.9-.669 0-.23.116-.44.269-.707l1.453-2.449h4.802c.038.402.306 3.003.306 3.195 0 .573-.995.63-1.378.63-.267 0-.459 0-.459.383 0 .21.23.21.268.21.784 0 1.607-.056 2.391-.056.478 0 1.683.057 2.162.057.114 0 .344 0 .344-.383 0-.21-.191-.21-.44-.21-1.186 0-1.186-.134-1.243-.689L36.3 36.754c-.038-.383-.038-.46-.364-.46-.306 0-.382.135-.497.326zm2.296-2.812 3.768-6.312.612 6.312zM44.137 44.344c0-.361-.027-.375-.402-.375-.857.844-2.075.857-2.624.857v.482c.321 0 1.205 0 1.941-.375v6.829c0 .442 0 .616-1.339.616h-.509v.482c.241-.013 1.888-.054 2.384-.054.415 0 2.102.04 2.397.054v-.482h-.51c-1.338 0-1.338-.174-1.338-.616zM28.568 110.724c-.765 1.282-1.51 1.55-2.353 1.607-.23.019-.401.019-.401.382 0 .115.095.21.248.21.517 0 1.11-.056 1.645-.056.632 0 1.301.057 1.913.057.115 0 .364 0 .364-.364 0-.21-.172-.23-.306-.23-.44-.037-.9-.19-.9-.669 0-.23.115-.44.268-.707l1.454-2.449h4.801c.039.402.306 3.003.306 3.195 0 .573-.994.63-1.377.63-.268 0-.459 0-.459.383 0 .21.23.21.268.21.784 0 1.607-.056 2.39-.056.48 0 1.684.057 2.162.057.115 0 .345 0 .345-.383 0-.21-.192-.21-.44-.21-1.186 0-1.186-.134-1.244-.689l-1.166-11.955c-.039-.383-.039-.46-.364-.46-.306 0-.382.135-.497.326zm2.296-2.812 3.768-6.312.612 6.312zM46.199 113.356h-.455c-.04.295-.175 1.085-.349 1.219-.107.08-1.138.08-1.325.08h-2.464c1.406-1.246 1.875-1.62 2.678-2.25.99-.79 1.915-1.62 1.915-2.892 0-1.62-1.42-2.611-3.133-2.611-1.66 0-2.785 1.165-2.785 2.397 0 .682.575.75.71.75.32 0 .709-.228.709-.71 0-.241-.094-.71-.79-.71.415-.95 1.325-1.245 1.955-1.245 1.339 0 2.035 1.044 2.035 2.129 0 1.165-.83 2.089-1.259 2.57l-3.227 3.187c-.133.12-.133.148-.133.523h5.516zM103.56 47.792c-.192.746-.23.9-1.741.9-.325 0-.517 0-.517.382 0 .21.173.21.517.21h6.829c3.022 0 5.279-2.257 5.279-4.132 0-1.377-1.11-2.486-2.965-2.697 1.99-.363 3.998-1.779 3.998-3.596 0-1.415-1.263-2.64-3.558-2.64h-6.427c-.363 0-.555 0-.555.383 0 .21.172.21.536.21.038 0 .402 0 .727.038.344.038.516.057.516.306 0 .076-.019.134-.076.364zm2.888-5.509 1.186-4.744c.172-.67.21-.727 1.033-.727h2.467c1.684 0 2.085 1.129 2.085 1.97 0 1.684-1.645 3.501-3.978 3.501zm-.86 6.408c-.269 0-.307 0-.422-.019-.191-.019-.248-.038-.248-.191 0-.057 0-.096.095-.44l1.32-5.337h3.615c1.837 0 2.2 1.416 2.2 2.238 0 1.894-1.702 3.75-3.96 3.75z"/>
<path d="M1.973 92.793 4 90.823c2.984-2.64 4.132-3.673 4.132-5.586 0-2.18-1.721-3.71-4.055-3.71-2.162 0-3.577 1.76-3.577 3.462 0 1.07.956 1.07 1.014 1.07.325 0 .994-.229.994-1.013 0-.497-.344-.995-1.013-.995-.153 0-.192 0-.249.02.44-1.244 1.473-1.952 2.582-1.952 1.741 0 2.564 1.55 2.564 3.118 0 1.53-.957 3.042-2.009 4.227L.71 93.558c-.21.21-.21.249-.21.708h7.097l.535-3.329h-.478c-.096.574-.23 1.416-.42 1.703-.135.153-1.397.153-1.818.153z" fill="red"/>
<path d="M13.332 87.724c0 3.96 3.098 6.963 6.656 6.963 3.118 0 4.993-2.66 4.993-4.878 0-.191 0-.325-.249-.325-.21 0-.21.115-.23.306-.153 2.735-2.2 4.304-4.284 4.304-1.167 0-4.916-.65-4.916-6.35 0-5.72 3.73-6.37 4.897-6.37 2.085 0 3.787 1.74 4.17 4.533.038.268.038.325.306.325.306 0 .306-.057.306-.46V81.24c0-.326 0-.46-.21-.46-.077 0-.154 0-.307.23l-.956 1.415c-.708-.688-1.684-1.645-3.52-1.645-3.577 0-6.656 3.042-6.656 6.944z"/>
</g>
</g>
</g>
<g transform="translate(84.723 -246.309)">
<path d="M23.409 270.283h43.054l-1.327-3.318 17.251 4.645-17.251 4.644 1.327-3.317H23.409v-2.654" clip-path="url(#p2985508f7a)"/>
<ellipse transform="rotate(-.706) skewX(-.032)" cx="-51.908" cy="270.488" rx="4.655" ry="4.656"/>
<ellipse transform="rotate(-.706) skewX(-.032)" cx="20.212" cy="271.378" rx="4.655" ry="4.656"/>
</g>
<path d="M36.006 87.733h72.125" fill="none" stroke="#000002" stroke-dasharray="2, 2" stroke-linejoin="round" stroke-miterlimit="100"/>
<path d="M103.56 110.724c-.192.746-.23.9-1.741.9-.325 0-.517 0-.517.382 0 .21.173.21.517.21h6.829c3.022 0 5.279-2.257 5.279-4.132 0-1.377-1.11-2.486-2.965-2.697 1.99-.363 3.998-1.779 3.998-3.596 0-1.415-1.263-2.64-3.558-2.64h-6.427c-.363 0-.555 0-.555.383 0 .21.172.21.536.21.038 0 .402 0 .727.038.344.038.516.057.516.306 0 .077-.019.134-.076.364zm2.888-5.509 1.186-4.744c.172-.67.21-.727 1.033-.727h2.467c1.684 0 2.085 1.129 2.085 1.97 0 1.684-1.645 3.501-3.978 3.501zm-.86 6.408c-.269 0-.307 0-.422-.019-.191-.019-.248-.038-.248-.191 0-.057 0-.096.095-.44l1.32-5.337h3.615c1.837 0 2.2 1.416 2.2 2.238 0 1.894-1.702 3.75-3.96 3.75z"/>
<g transform="translate(84.723 -246.309)">
<path d="M23.344 333.216h102.098l-1.327-3.318 17.25 4.645-17.25 4.644 1.327-3.317H23.344v-2.654" clip-path="url(#p2985508f7a)"/>
<ellipse transform="rotate(-.706) skewX(-.032)" cx="-52.65" cy="333.416" rx="4.655" ry="4.656"/>
<ellipse transform="rotate(-.706) skewX(-.032)" cx="19.47" cy="334.306" rx="4.655" ry="4.656"/>
</g>
</svg>
