<svg width="128.988" height="132.883" xmlns="http://www.w3.org/2000/svg">
<g fill="red" stroke-linejoin="round" stroke-miterlimit="100000" stroke-width="1.484">
<path d="m21.074 393.638.985-.985-.46-.197 2.167-1.248-1.248 2.167-.197-.46-.985.986-.262-.263M35.997 394.201l1.07-1.427-.618-.166 2.52-1.974-1.188 2.973-.333-.547-1.07 1.426-.38-.285M51.11 394.948l.996-1.994-.797-.066 2.658-2.99-.797 3.92-.532-.598-.997 1.994-.531-.266M66.598 395.711l.636-2.544-.933.127 2.29-4.113.085 4.707-.763-.552-.636 2.545-.679-.17M82.486 396.111v-2.786l-.93.371 1.301-4.83 1.3 4.83-.928-.371v2.786h-.743M98.438 395.881l-.636-2.544-.764.551.085-4.707 2.29 4.113-.933-.127.636 2.544-.678.17M114.073 395.213l-.997-1.994-.532.598-.797-3.92 2.658 2.99-.797.066.997 1.994-.532.266M129.336 394.486l-1.07-1.427-.333.547-1.189-2.972 2.52 1.974-.618.166 1.07 1.427-.38.285M144.378 393.901l-.985-.985-.197.46-1.248-2.168 2.167 1.248-.46.197.986.985-.263.263M20.488 378.11l1.427-1.07-.547-.333 2.972-1.189-1.973 2.52-.167-.618-1.426 1.07-.286-.38M35.068 378.952l1.752-1.751-.818-.35 3.853-2.219-2.218 3.853-.35-.817-1.752 1.751-.467-.467M49.818 380.365l1.902-2.853-1.205-.254 4.63-4.058-1.966 5.833-.698-1.014-1.902 2.853-.761-.507M65.368 382.219l1.41-4.23-1.598.094 4.417-6.673-.47 7.99-1.222-1.035-1.41 4.23-1.127-.376M82.205 383.348v-5.055l-1.63.652 2.282-8.476 2.282 8.476-1.63-.652v5.055h-1.304M99.219 382.595l-1.41-4.23-1.222 1.034-.47-7.988 4.418 6.673-1.598-.094 1.41 4.23-1.128.375M115.135 380.872l-1.902-2.853-.698 1.014-1.965-5.834 4.628 4.059-1.204.253 1.902 2.854-.761.507M130.179 379.419l-1.751-1.751-.35.817-2.219-3.853 3.853 2.218-.817.35 1.751 1.752-.467.467M144.941 378.49l-1.427-1.07-.166.618-1.974-2.52 2.973 1.189-.547.333 1.426 1.07-.285.38M19.76 362.359l1.995-.997-.599-.532 3.922-.797-2.991 2.658-.067-.797-1.993.997-.266-.532M33.615 363.422l2.854-1.902-1.015-.698 5.834-1.965-4.058 4.628-.254-1.204-2.853 1.902-.508-.761M47.088 365.991l4.713-4.713-1.614-.691 7.607-4.38-4.38 7.607-.691-1.614-4.713 4.713-.922-.922M61.997 371.405l6.869-13.737-1.75-.146 5.832-6.56-1.75 8.601-1.166-1.312-6.868 13.737-1.167-.583" clip-path="url(#p2985508f7a)" transform="translate(-18.363 -263.728)"/>
<path d="M82.205 375.818v-21.154l-1.63.652 2.282-8.476 2.282 8.476-1.63-.652v21.154h-1.304M102.551 371.988l-6.869-13.737-1.166 1.312-1.75-8.602 5.832 6.56-1.75.147 6.87 13.737-1.167.583M117.705 366.913l-4.713-4.713-.691 1.614-4.38-7.607 7.607 4.38-1.614.691 4.713 4.713-.922.922M131.592 364.183l-2.853-1.902-.254 1.204-4.058-4.628 5.833 1.965-1.014.698 2.853 1.902-.507.761M145.688 362.891l-1.994-.997-.066.798-2.99-2.659 3.92.798-.598.531 1.994.997-.266.532M19.093 346.237l2.545-.636-.552-.763 4.707.085-4.113 2.29.127-.934-2.544.637-.17-.679M31.892 347.018l4.23-1.41-1.034-1.222 7.989-.47-6.673 4.418.094-1.598-4.23 1.41-.376-1.128M42.012 350.35l13.737-6.869-1.312-1.166 8.602-1.75-6.56 5.832-.147-1.75-13.737 6.87-.583-1.167M123.119 351.516l-13.737-6.869-.146 1.75-6.56-5.832 8.601 1.75-1.312 1.166 13.737 6.869-.583 1.166M133.446 348.146l-4.23-1.41.094 1.598-6.673-4.417 7.99.47-1.035 1.221 4.23 1.41-.376 1.128M146.451 346.915l-2.544-.636.127.933-4.113-2.29 4.707-.085-.552.764 2.545.636-.17.678M18.863 329.798h2.787l-.372-.929 4.83 1.3-4.83 1.3.372-.928h-2.787v-.743M31.139 329.518h5.055l-.652-1.63 8.476 2.282-8.476 2.282.652-1.63h-5.055v-1.304" clip-path="url(#p2985508f7a)" transform="translate(-18.363 -263.728)"/>
<path d="M38.182 329.518h21.154l-.652-1.63 8.477 2.282-8.477 2.282.652-1.63H38.182v-1.304M127.532 330.822h-21.154l.652 1.63-8.476-2.282 8.476-2.282-.652 1.63h21.154v1.304" clip-path="url(#p2985508f7a)" transform="translate(-18.363 -263.728)"/>
<path d="M134.575 330.822h-5.055l.652 1.63-8.476-2.282 8.476-2.282-.652 1.63h5.055v1.304M146.851 330.541h-2.786l.371.929-4.83-1.3 4.83-1.3-.371.928h2.786v.743M19.263 313.424l2.544.636-.127-.933 4.113 2.29-4.707.085.552-.764-2.545-.636.17-.678M32.268 312.193l4.23 1.41-.094-1.598 6.673 4.417-7.99-.47 1.035-1.221-4.23-1.41.376-1.128M42.595 308.823l13.737 6.869.146-1.75 6.561 5.832-8.602-1.75 1.312-1.166-13.737-6.869.583-1.166M123.702 309.989l-13.737 6.869 1.312 1.166-8.602 1.75 6.56-5.832.147 1.75 13.737-6.87.583 1.167M133.822 313.321l-4.23 1.41 1.034 1.222-7.988.47 6.673-4.418-.094 1.598 4.23-1.41.375 1.128M146.621 314.102l-2.544.636.551.763-4.707-.084 4.113-2.29-.127.933 2.544-.636.17.678M20.027 297.448l1.993.997.067-.798 2.99 2.659-3.92-.798.598-.531-1.994-.997.266-.532M34.123 296.157l2.853 1.902.254-1.204 4.058 4.628-5.834-1.965 1.015-.698-2.854-1.902.508-.761M48.01 293.426l4.713 4.713.691-1.614 4.38 7.607-7.607-4.38 1.613-.691-4.712-4.713.922-.922M63.164 288.351l6.868 13.737 1.166-1.312 1.75 8.602-5.832-6.56 1.75-.147-6.869-13.737 1.167-.583M83.51 284.521v21.154l1.63-.652-2.283 8.476-2.282-8.476 1.63.652v-21.154h1.304M103.717 288.934l-6.869 13.737 1.75.146-5.832 6.56 1.75-8.601 1.166 1.312 6.869-13.737 1.166.583M118.627 294.348l-4.713 4.713 1.614.691-7.607 4.38 4.38-7.607.691 1.614 4.713-4.713.922.922M132.099 296.918l-2.853 1.902 1.014.698-5.834 1.965 4.059-4.628.253 1.204 2.854-1.902.507.761M145.953 297.98l-1.994.997.598.532-3.92.797 2.99-2.658.066.797 1.994-.997.266.532M20.774 281.849l1.426 1.07.167-.618 1.973 2.52-2.972-1.189.547-.333-1.427-1.07.286-.38M35.535 280.92l1.752 1.751.35-.817 2.218 3.853-3.853-2.218.818-.35-1.752-1.752.467-.467M50.579 279.467l1.902 2.853.698-1.014 1.965 5.834-4.629-4.059 1.205-.253-1.902-2.854.76-.507M66.495 277.744l1.41 4.23 1.222-1.034.47 7.988-4.417-6.673 1.597.094-1.41-4.229 1.128-.376" clip-path="url(#p2985508f7a)" transform="translate(-18.363 -263.728)"/>
<path d="M83.51 276.991v5.055l1.63-.652-2.283 8.476-2.282-8.476 1.63.652v-5.055h1.304M100.347 278.12l-1.41 4.23 1.598-.095-4.417 6.674.47-7.99 1.221 1.034 1.41-4.229 1.128.376M115.896 279.975l-1.902 2.853 1.204.254-4.628 4.058 1.965-5.833.698 1.014 1.902-2.853.761.507M130.646 281.387l-1.751 1.751.817.35-3.853 2.219 2.218-3.853.35.817 1.752-1.751.467.467M145.226 282.23l-1.427 1.07.547.333-2.972 1.189 1.974-2.52.166.618 1.427-1.07.285.38M21.336 266.439l.985.985.197-.46 1.248 2.168-2.167-1.248.46-.197-.985-.985.262-.263M36.378 265.853l1.07 1.427.333-.547 1.189 2.972-2.52-1.974.617-.166-1.07-1.427.38-.285M51.641 265.126l.997 1.994.532-.598.797 3.92-2.658-2.99.798-.066-.997-1.994.531-.266M67.277 264.458l.636 2.544.763-.551-.085 4.707-2.29-4.113.933.127-.636-2.544.679-.17M83.229 264.228v2.786l.928-.371-1.3 4.83-1.3-4.83.929.371v-2.786h.743M99.116 264.628l-.636 2.544.933-.127-2.29 4.113-.085-4.707.764.552.636-2.545.678.17M114.605 265.392l-.997 1.994.798.066-2.659 2.99.798-3.92.531.598.997-1.994.532.266M129.717 266.139l-1.07 1.427.618.166-2.52 1.974 1.189-2.973.333.547 1.07-1.426.38.285M144.641 266.701l-.985.985.46.197-2.168 1.248 1.248-2.167.197.46.985-.986.263.263" clip-path="url(#p2985508f7a)" transform="translate(-18.363 -263.728)"/>
</g>
</svg>
