<svg width="230.272" height="136.199" xmlns="http://www.w3.org/2000/svg">
<g transform="translate(-7.721 -264.927)" color="#000">
<path d="M121.857 273.499v127.127" fill="none" stroke="#000" stroke-linejoin="round" stroke-miterlimit="100" style="isolation:auto;mix-blend-mode:normal"/>
<circle cx="121.857" cy="273.499" r="5.672" fill="#5f5f5f" style="isolation:auto;mix-blend-mode:normal"/>
<path d="M206.107 363.338v37.289" fill="none" stroke="#000" stroke-linejoin="round" stroke-miterlimit="100" style="isolation:auto;mix-blend-mode:normal"/>
<circle cx="206.107" cy="362.62" r="5.672" fill="#5f5f5f" style="isolation:auto;mix-blend-mode:normal"/>
<path d="M37.607 363.338v37.289" fill="none" stroke="#000" stroke-linejoin="round" stroke-miterlimit="100" style="isolation:auto;mix-blend-mode:normal"/>
<circle cx="37.607" cy="362.62" r="5.672" fill="#5f5f5f" style="isolation:auto;mix-blend-mode:normal"/>
<circle cx="25.943" cy="362.62" r="4.93" fill="red" style="isolation:auto;mix-blend-mode:normal"/>
<path d="M25.948 358.187c-.348 0-.788.333-.892.604s-.078.432-.078.51v2.347H22.63c-.077 0-.24-.026-.51.078s-.605.546-.605.895c0 .348.335.788.605.892.27.104.433.078.51.078h2.348v2.348c0 .077-.026.24.078.51s.544.605.892.605c.349 0 .791-.335.895-.605.104-.27.076-.433.076-.51v-2.348h2.338c.077 0 .24.026.51-.078s.605-.544.605-.892-.335-.791-.605-.895c-.27-.104-.433-.078-.51-.078h-2.338V359.3c0-.077.028-.24-.076-.51s-.546-.603-.895-.603z" fill="#fff" style="isolation:auto;mix-blend-mode:normal;text-decoration-color:#000;text-decoration-line:none;text-decoration-style:solid;text-indent:0;text-transform:none;white-space:normal"/>
<circle cx="49.271" cy="362.62" r="4.93" fill="red" style="isolation:auto;mix-blend-mode:normal"/>
<path d="M49.276 358.187c-.348 0-.788.333-.892.604s-.078.432-.078.51v2.347h-2.348c-.077 0-.24-.026-.51.078s-.605.546-.605.895c0 .348.335.788.605.892.27.104.433.078.51.078h2.348v2.348c0 .077-.026.24.078.51s.544.605.892.605c.349 0 .791-.335.895-.605.104-.27.076-.433.076-.51v-2.348h2.338c.078 0 .24.026.51-.078s.605-.544.605-.892-.335-.791-.605-.895c-.27-.104-.432-.078-.51-.078h-2.338V359.3c0-.077.028-.24-.076-.51s-.546-.603-.895-.603z" fill="#fff" style="isolation:auto;mix-blend-mode:normal;text-decoration-color:#000;text-decoration-line:none;text-decoration-style:solid;text-indent:0;text-transform:none;white-space:normal"/>
<path d="M133.11 313.485c8.406-4.183 13.709-12.673 13.71-21.955.002-13.587-11.175-24.602-24.961-24.603-13.788 0-24.966 11.015-24.965 24.603.012 9.293 5.336 17.786 13.763 21.955" fill="none" stroke="#5f5f5f" stroke-linejoin="round" stroke-miterlimit="100" stroke-width="3" style="isolation:auto;mix-blend-mode:normal"/>
<circle cx="95.401" cy="308.837" r="4.93" fill="red" style="isolation:auto;mix-blend-mode:normal"/>
<path d="M95.406 304.404c-.348 0-.788.333-.892.604s-.078.432-.078.51v2.347h-2.348c-.077 0-.24-.026-.51.078s-.605.546-.605.895c0 .348.335.788.605.892.27.104.433.078.51.078h2.348v2.348c0 .077-.026.24.078.51s.544.605.892.605c.349 0 .791-.335.895-.605.104-.27.076-.433.076-.51v-2.348h2.338c.077 0 .24.026.51-.078s.605-.544.605-.892-.335-.791-.605-.895c-.27-.104-.433-.078-.51-.078h-2.338v-2.348c0-.077.028-.24-.076-.51s-.546-.603-.895-.603z" fill="#fff" style="isolation:auto;mix-blend-mode:normal;text-decoration-color:#000;text-decoration-line:none;text-decoration-style:solid;text-indent:0;text-transform:none;white-space:normal"/>
<circle cx="148.313" cy="308.837" r="4.93" fill="red" style="isolation:auto;mix-blend-mode:normal"/>
<path d="M148.318 304.404c-.348 0-.789.333-.893.604s-.078.432-.078.51v2.347H145c-.078 0-.24-.026-.51.078s-.606.546-.606.895.336.788.606.892.432.078.51.078h2.347v2.348c0 .077-.025.24.078.51.104.27.545.605.893.605s.79-.335.895-.605c.104-.27.076-.433.076-.51v-2.348h2.338c.077 0 .239.026.51-.078.27-.104.605-.544.605-.892s-.335-.791-.606-.895c-.27-.104-.432-.078-.51-.078h-2.337v-2.348c0-.077.028-.24-.076-.51s-.547-.603-.895-.603z" fill="#fff" style="isolation:auto;mix-blend-mode:normal;text-decoration-color:#000;text-decoration-line:none;text-decoration-style:solid;text-indent:0;text-transform:none;white-space:normal"/>
<circle cx="97.401" cy="271.42" r="4.93" fill="red" style="isolation:auto;mix-blend-mode:normal"/>
<path d="M97.406 266.987c-.348 0-.788.333-.892.604s-.078.432-.078.51v2.347h-2.348c-.077 0-.24-.026-.51.078s-.605.546-.605.895c0 .348.335.788.605.892.27.104.433.078.51.078h2.348v2.348c0 .077-.026.24.078.51s.544.605.892.605c.349 0 .791-.335.895-.605.104-.27.076-.433.076-.51v-2.348h2.338c.077 0 .24.026.51-.078s.605-.544.605-.892-.335-.791-.605-.895c-.27-.104-.433-.078-.51-.078h-2.338V268.1c0-.077.028-.24-.076-.51s-.546-.603-.895-.603z" fill="#fff" style="isolation:auto;mix-blend-mode:normal;text-decoration-color:#000;text-decoration-line:none;text-decoration-style:solid;text-indent:0;text-transform:none;white-space:normal"/>
<circle cx="146.313" cy="271.42" r="4.93" fill="red" style="isolation:auto;mix-blend-mode:normal"/>
<path d="M146.318 266.987c-.348 0-.789.333-.893.604s-.078.432-.078.51v2.347H143c-.078 0-.24-.026-.51.078s-.606.546-.606.895.336.788.606.892.432.078.51.078h2.347v2.348c0 .077-.025.24.078.51.104.27.545.605.893.605s.79-.335.895-.605c.104-.27.076-.433.076-.51v-2.348h2.338c.077 0 .239.026.51-.078.27-.104.605-.544.605-.892s-.335-.791-.606-.895c-.27-.104-.432-.078-.51-.078h-2.337V268.1c0-.077.028-.24-.076-.51s-.547-.603-.895-.603z" fill="#fff" style="isolation:auto;mix-blend-mode:normal;text-decoration-color:#000;text-decoration-line:none;text-decoration-style:solid;text-indent:0;text-transform:none;white-space:normal"/>
<path d="M48.86 313.485c8.406-4.183 13.708-12.673 13.71-21.955.001-13.587-11.175-24.602-24.962-24.603-13.787 0-24.965 11.015-24.964 24.603.012 9.293 5.336 17.786 13.763 21.955" fill="none" stroke="#5f5f5f" stroke-linejoin="round" stroke-miterlimit="100" stroke-width="3" style="isolation:auto;mix-blend-mode:normal"/>
<circle cx="13.151" cy="271.42" r="4.93" fill="red" style="isolation:auto;mix-blend-mode:normal"/>
<path d="M13.156 266.987c-.348 0-.788.333-.892.604s-.078.432-.078.51v2.347H9.838c-.077 0-.24-.026-.51.078s-.605.546-.605.895c0 .348.335.788.605.892.27.104.433.078.51.078h2.348v2.348c0 .077-.026.24.078.51s.544.605.892.605c.349 0 .791-.335.895-.605.104-.27.076-.433.076-.51v-2.348h2.338c.077 0 .24.026.51-.078s.605-.544.605-.892-.335-.791-.605-.895c-.27-.104-.433-.078-.51-.078h-2.338V268.1c0-.077.028-.24-.076-.51s-.546-.603-.895-.603z" fill="#fff" style="isolation:auto;mix-blend-mode:normal;text-decoration-color:#000;text-decoration-line:none;text-decoration-style:solid;text-indent:0;text-transform:none;white-space:normal"/>
<circle cx="62.063" cy="271.42" r="4.93" fill="red" style="isolation:auto;mix-blend-mode:normal"/>
<path d="M62.069 266.987c-.349 0-.79.333-.893.604s-.078.432-.078.51v2.347H58.75c-.077 0-.24-.026-.51.078s-.605.546-.605.895c0 .348.335.788.605.892.27.104.433.078.51.078h2.348v2.348c0 .077-.026.24.078.51s.544.605.892.605c.349 0 .791-.335.895-.605.104-.27.076-.433.076-.51v-2.348h2.338c.078 0 .24.026.51-.078s.605-.544.605-.892-.335-.791-.605-.895c-.27-.104-.432-.078-.51-.078H63.04V268.1c0-.077.028-.24-.076-.51s-.546-.603-.895-.603z" fill="#fff" style="isolation:auto;mix-blend-mode:normal;text-decoration-color:#000;text-decoration-line:none;text-decoration-style:solid;text-indent:0;text-transform:none;white-space:normal"/>
<path d="M217.36 313.485c8.406-4.183 13.709-12.673 13.71-21.955.002-13.587-11.175-24.602-24.961-24.603-13.788 0-24.966 11.015-24.965 24.603.012 9.293 5.336 17.786 13.763 21.955" fill="none" stroke="#5f5f5f" stroke-linejoin="round" stroke-miterlimit="100" stroke-width="3" style="isolation:auto;mix-blend-mode:normal"/>
<circle cx="179.651" cy="308.837" r="4.93" fill="red" style="isolation:auto;mix-blend-mode:normal"/>
<path d="M179.656 304.404c-.348 0-.789.333-.893.604-.104.27-.078.432-.078.51v2.347h-2.347c-.078 0-.24-.026-.51.078s-.606.546-.606.895.335.788.606.892.432.078.51.078h2.347v2.348c0 .077-.026.24.078.51s.545.605.893.605.79-.335.894-.605c.104-.27.077-.433.077-.51v-2.348h2.338c.077 0 .239.026.51-.078.27-.104.605-.544.605-.892s-.335-.791-.606-.895c-.27-.104-.432-.078-.51-.078h-2.337v-2.348c0-.077.027-.24-.077-.51-.103-.27-.546-.603-.894-.603z" fill="#fff" style="isolation:auto;mix-blend-mode:normal;text-decoration-color:#000;text-decoration-line:none;text-decoration-style:solid;text-indent:0;text-transform:none;white-space:normal"/>
<circle cx="232.563" cy="308.837" r="4.93" fill="red" style="isolation:auto;mix-blend-mode:normal"/>
<path d="M232.568 304.404c-.348 0-.789.333-.893.604-.104.27-.078.432-.078.51v2.347h-2.347c-.078 0-.24-.026-.51.078s-.606.546-.606.895.336.788.606.892.432.078.51.078h2.347v2.348c0 .077-.025.24.078.51.104.27.545.605.893.605s.79-.335.895-.605c.104-.27.076-.433.076-.51v-2.348h2.338c.077 0 .239.026.51-.078.27-.104.605-.544.605-.892s-.335-.791-.606-.895c-.27-.104-.432-.078-.51-.078h-2.337v-2.348c0-.077.028-.24-.076-.51s-.547-.603-.895-.603z" fill="#fff" style="isolation:auto;mix-blend-mode:normal;text-decoration-color:#000;text-decoration-line:none;text-decoration-style:solid;text-indent:0;text-transform:none;white-space:normal"/>
<circle cx="181.651" cy="271.42" r="4.93" fill="red" style="isolation:auto;mix-blend-mode:normal"/>
<path d="M181.656 266.987c-.348 0-.789.333-.893.604-.104.27-.078.432-.078.51v2.347h-2.347c-.078 0-.24-.026-.51.078s-.606.546-.606.895.335.788.606.892.432.078.51.078h2.347v2.348c0 .077-.026.24.078.51s.545.605.893.605.79-.335.894-.605c.104-.27.077-.433.077-.51v-2.348h2.338c.077 0 .239.026.51-.078.27-.104.605-.544.605-.892s-.335-.791-.606-.895c-.27-.104-.432-.078-.51-.078h-2.337V268.1c0-.077.027-.24-.077-.51-.103-.27-.546-.603-.894-.603z" fill="#fff" style="isolation:auto;mix-blend-mode:normal;text-decoration-color:#000;text-decoration-line:none;text-decoration-style:solid;text-indent:0;text-transform:none;white-space:normal"/>
<circle cx="230.563" cy="271.42" r="4.93" fill="red" style="isolation:auto;mix-blend-mode:normal"/>
<path d="M230.568 266.987c-.348 0-.789.333-.893.604-.104.27-.078.432-.078.51v2.347h-2.347c-.078 0-.24-.026-.51.078s-.606.546-.606.895.336.788.606.892.432.078.51.078h2.347v2.348c0 .077-.025.24.078.51.104.27.545.605.893.605s.79-.335.895-.605c.104-.27.076-.433.076-.51v-2.348h2.338c.077 0 .239.026.51-.078.27-.104.605-.544.605-.892s-.335-.791-.606-.895c-.27-.104-.432-.078-.51-.078h-2.337V268.1c0-.077.028-.24-.076-.51s-.547-.603-.895-.603z" fill="#fff" style="isolation:auto;mix-blend-mode:normal;text-decoration-color:#000;text-decoration-line:none;text-decoration-style:solid;text-indent:0;text-transform:none;white-space:normal"/>
<path d="m37.607 324.441-10.514 13.365 6.306-2.29v11.82h8.416v-11.82l6.306 2.29zM206.107 347.337l10.514-13.365-6.306 2.29v-11.82H201.9v11.82l-6.306-2.29z" fill="#ff1900" style="isolation:auto;mix-blend-mode:normal;text-decoration-color:#000;text-decoration-line:none;text-decoration-style:solid;text-indent:0;text-transform:none;white-space:normal"/>
</g>
</svg>
