<svg width="166.058" height="83.526" xmlns="http://www.w3.org/2000/svg">
<g fill="none" stroke-linejoin="round" stroke-miterlimit="100">
<path d="m77.4 294.656 1.453 6.524.099.441 2.544-2.53 6.028 2.953 5.734 2.808 5.18-2.526-6.06-2.891-5.713-2.727 5.21-1.086-6.706-.447-6.704-.448-1.065-.071M133.957 309.033l-.16-.098-.127-.157-.088-.211-.046-.257-.002-.292.042-.317.085-.328.123-.328.159-.315.186-.288.208-.253.22-.205.225-.152.221-.09.208-.028.187.037m.416 1.019v-.29l-.045-.258-.087-.211-.125-.16-.159-.1-3.982-1.772-6.134-2.73-1.801-.803-6.134-2.73-6.134-2.73-6.134-2.73-6.133-2.73-6.134-2.731-6.133-2.73-2.517-1.12-6.134-2.73-1.457-.65-6.134-2.73-6.133-2.73-.365-.162-.2-.05-.216.005-.222.059-.221.112-.211.16-.193.204-.167.237-.136.263-.098.277-.056.282-.013.275.03.258.074.23.113.195.148.151.178.102 6.113 2.775 3.766 1.71 6.113 2.775 1.47.668 6.112 2.775 6.113 2.776 6.113 2.775 6.113 2.776 6.113 2.775 6.113 2.775 2.636 1.197 6.113 2.775 1.83.832 6.113 2.775.377.171.188.034.208-.029.22-.092.224-.153.22-.205.205-.252.186-.286.156-.313.124-.325.084-.326.043-.316" color="#000" stroke="#00f" style="isolation:auto;mix-blend-mode:normal" transform="translate(20.172 -271.264)"/>
<g stroke="#000">
<path d="m151.588 32.715 5.921-3.16 5.921-3.16.688-.368.364-.3.284-.396.194-.48.097-.543-.006-.587-.107-.607-.206-.603-.296-.576-.373-.527-.437-.455-.484-.368-.51-.265-.519-.153-.505-.036-.473.083-.424.199-5.97 3.068-5.97 3.068-5.124 2.634M56.355 74.047l.357-.159.42-.012.47.137.5.28.51.414.503.53.473.63.426.701.362.747.283.763.194.748.096.704-.004.634-.105.537-.488.709-.364.146-.426-.002-.47-.148-.497-.289-.505-.417-.494-.53-.464-.623-.418-.69-.355-.735-.278-.749-.193-.736-.1-.696v-.63l.096-.538.191-.427.28-.299 5.97-3.068 5.97-3.068 5.97-3.069 5.97-3.067 5.97-3.069 5.969-3.067 5.97-3.069 5.97-3.068 5.97-3.068 5.97-3.068 5.97-3.068 5.97-3.068 5.97-3.068 5.732-2.946"/>
<path d="m60.352 81.41 5.921-3.16 5.92-3.16 5.922-3.16 5.92-3.16 5.922-3.161 5.921-3.16 5.921-3.16 5.921-3.16 5.921-3.161 5.922-3.16 5.92-3.16 5.922-3.16 5.92-3.16 5.922-3.161 4.392-2.345M104.334 11.681l6.176-2.634 6.032-2.573.324-.195.27-.292.201-.377.128-.448.049-.503-.034-.536-.114-.55-.19-.543-.26-.513-.317-.464-.364-.396-.395-.315-.412-.218-.412-.116-.397-.01-.365.099-6.21 2.555-6.21 2.555-5.092 2.095M12.033 43.158l.297-.057.342.072.374.202.39.323.393.432.379.524.35.596.308.644.254.668.189.665.117.636.041.582-.035.505-.296.708-.247.175-.301.047-.344-.083-.372-.209-.387-.326-.388-.432-.372-.52-.345-.588-.302-.635-.25-.657-.189-.655-.118-.63-.045-.577.031-.506.106-.414.178-.305.242-.185 6.209-2.555 6.21-2.556 6.209-2.554 6.21-2.555 6.21-2.556 6.209-2.554 6.21-2.555 6.209-2.556 6.21-2.555 6.209-2.554 6.209-2.556 6.21-2.555L92.8 9.924"/>
<path d="m14.889 49.833 6.176-2.634 6.176-2.634 6.176-2.634 6.176-2.635 6.175-2.634 6.176-2.634 6.176-2.635 6.176-2.634 6.176-2.634 6.176-2.634 6.176-2.635L89 18.222l6.176-2.634 5.206-2.22"/>
</g>
</g>
<g color="#000">
<path d="M110.546 277.972c-2.242.538-3.981 2.87-3.981 5.04 0 1.72 1.148 3.012 2.833 3.012 2.098 0 3.587-2.816 3.587-5.29 0-1.632-.717-2.529-1.327-3.336-.646-.807-1.704-2.152-1.704-2.94 0-.395.359-.826.987-.826.538 0 .896.233 1.273.484.358.216.717.449.986.449.448 0 .717-.43.717-.718 0-.394-.287-.448-.932-.591-.933-.198-1.184-.198-1.47-.198-1.4 0-2.045.772-2.045 1.848 0 .968.52 1.972 1.076 3.066zm.215.395c.449.824.987 1.793.987 3.084 0 1.184-.682 4.178-2.35 4.178-.986 0-1.721-.753-1.721-2.116 0-1.13.663-4.5 3.084-5.146zM122.339 274.727c.072-.305.09-.323.448-.359.27-.018.502-.018.771-.018h.377c.377 0 .395-.018.484-.09.108-.071.162-.322.162-.43 0-.215-.18-.323-.395-.323-.448 0-.915.036-1.363.036-.466 0-.95.018-1.434.018-.503 0-1.005-.018-1.489-.018-.466 0-.95-.036-1.399-.036-.197 0-.52 0-.52.52 0 .323.287.323.61.323h.377c.161 0 .591.018.95.036l-2.564 10.222c-.072.287-.09.305-.43.323-.216.036-.539.036-.772.036h-.376c-.36 0-.664 0-.664.52 0 .233.197.322.395.322.448 0 .914-.035 1.362-.035.485 0 .969-.018 1.453-.018.502 0 .986.018 1.488.018.467 0 .933.035 1.381.035.18 0 .538 0 .538-.52 0-.322-.305-.322-.61-.322h-.376c-.126 0-.717-.018-.95-.036z" fill="#00f" style="isolation:auto;mix-blend-mode:normal" transform="translate(20.172 -271.264)"/>
<g fill="none">
<path d="M-6.967 317.826c-11.676 5.094-12.017 18.704-7.535 25.644M38.11 349.293c-18.519 7.637-44.938 5.206-50.292-1.261" stroke="#000" stroke-linejoin="round" stroke-width=".5" style="isolation:auto;mix-blend-mode:normal" transform="translate(20.172 -271.264)"/>
<path d="m-10.149 341.559-7.666 3.986" stroke="#2b2b2b" stroke-width="2" style="isolation:auto;mix-blend-mode:normal" transform="translate(20.172 -271.264)"/>
<path d="m-4.253 343.71-15.187 7.897" stroke="#2b2b2b" style="isolation:auto;mix-blend-mode:normal" transform="translate(20.172 -271.264)"/>
</g>
</g>
</svg>
