<svg width="136.009" height="88.896" xmlns="http://www.w3.org/2000/svg">
<g color="#000">
<g fill="none" stroke="#555">
<path d="M-5.529 329.81v8.64" stroke-width="2" style="isolation:auto;mix-blend-mode:normal" transform="translate(33.719 -254.293)"/>
<path d="M-.9 325.572v17.117M-.775 334.13H25.79v-45.1h-58.509v45.1h27.503" style="isolation:auto;mix-blend-mode:normal" transform="translate(33.719 -254.293)"/>
</g>
<g transform="translate(33.719 -254.293)">
<circle cx="-3.464" cy="266.648" r="11.355" fill="#fff100" stroke="#ff7300" style="isolation:auto;mix-blend-mode:normal"/>
<path d="m-2.007 276.268 4.07-6.253v-3.333l-1.4.021c-.018-.228.006-.478-.014-.7a35.433 35.433 0 0 0-.14-1.417c-.046-.36-.092-.575-.139-.602-.046-.027-.093.132-.14.45-.046.316-.093.787-.139 1.324-.047.537-.093 1.137-.14 1.685a31.665 31.665 0 0 1-.14 1.389c-.046.345-.092.542-.139.55-.046.01-.093-.168-.14-.5a28.352 28.352 0 0 1-.14-1.357c-.046-.543-.092-1.143-.139-1.686a28.275 28.275 0 0 0-.14-1.357c-.046-.332-.092-.51-.139-.5-.046.008-.093.204-.14.55-.046.347-.093.84-.14 1.389-.046.548-.092 1.148-.139 1.685a25.2 25.2 0 0 1-.14 1.325c-.046.316-.093.477-.139.45-.047-.028-.093-.242-.14-.602-.046-.36-.093-.865-.14-1.419-.046-.553-.092-1.151-.139-1.682-.046-.53-.093-.99-.14-1.291-.046-.301-.093-.443-.14-.398-.046.046-.092.277-.139.652-.046.374-.093.888-.14 1.446-.046.557-.092 1.155-.139 1.678-.046.523-.093.97-.14 1.256-.046.286-.093.41-.14.346-.046-.064-.092-.313-.139-.7a44.35 44.35 0 0 1-.14-1.474c-.046-.56-.093-1.156-.14-1.672-.046-.516-.092-.95-.139-1.22-.046-.27-.093-.374-.14-.293-.046.082-.092.348-.139.749-.046.4-.093.934-.14 1.498-.046.565-.093 1.157-.14 1.665-.046.508-.092.929-.139 1.182-.046.254-.093.34-.14.24-.046-.1-.093-.382-.139-.796a55.393 55.393 0 0 1-.14-1.522c-.046-.567-.093-1.156-.14-1.655-.046-.5-.092-.907-.139-1.144-.046-.237-.093-.304-.14-.187-.046.117-.093.417-.14.843-.046.426-.092.975-.139 1.544-.046.57-.093 1.154-.14 1.645-.046.49-.092.883-.139 1.104-.046.22-.093.268-.14.133-.046-.135-.093-.45-.14-.889a69.762 69.762 0 0 1-.139-1.565c-.046-.57-.093-1.15-.14-1.631-.046-.481-.093-.86-.14-1.063-.046-.204-.092-.233-.139-.08-.046.152-.093.484-.14.933-.046.45-.092 1.013-.139 1.584-.046.572-.093 1.147-.14 1.618-.046.47-.093.834-.14 1.02-.046.187-.092.197-.139.027-.046-.17-.093-.517-.14-.977a89.1 89.1 0 0 1-.139-1.602h-1.403v3.333l4.07 6.253" fill="none" stroke="#ff7300" style="isolation:auto;mix-blend-mode:normal"/>
<path d="M.54 294.962h-8.008l-1.356-2.655-1.7-1.622-1.012-11.83-2.537-1.268v-3.392H7.144v3.392l-2.537 1.269-1.012 11.829-1.7 1.622z" fill="#c9c7c7" stroke="#717171" stroke-linejoin="round" stroke-miterlimit="100" stroke-width="1.5" style="isolation:auto;mix-blend-mode:normal"/>
</g>
<g fill="none" stroke-linejoin="round" stroke-miterlimit="100000">
<path d="M-1.16 282.153h3.07" stroke="#828282" style="isolation:auto;mix-blend-mode:normal" transform="translate(33.719 -254.293)"/>
<path d="M-8.84 282.153h3.072" stroke="#ededed" style="isolation:auto;mix-blend-mode:normal" transform="translate(33.719 -254.293)"/>
<path d="M-1.16 285.626h3.07" stroke="#828282" style="isolation:auto;mix-blend-mode:normal" transform="translate(33.719 -254.293)"/>
<path d="M-8.84 285.626h3.072" stroke="#ededed" style="isolation:auto;mix-blend-mode:normal" transform="translate(33.719 -254.293)"/>
<path d="M-1.16 289.098h3.07" stroke="#828282" style="isolation:auto;mix-blend-mode:normal" transform="translate(33.719 -254.293)"/>
<path d="M-8.84 289.098h3.072" stroke="#ededed" style="isolation:auto;mix-blend-mode:normal" transform="translate(33.719 -254.293)"/>
</g>
<path d="M-9.84 278.681H2.91" fill="#afafaf" stroke="#717171" stroke-linejoin="round" stroke-miterlimit="100000" style="isolation:auto;mix-blend-mode:normal" transform="translate(33.719 -254.293)"/>
<g fill="#5f5f5f">
<path d="M-7.818 317.808h-1.45q-1.1-1.31-1.733-2.772-.627-1.462-.627-3.455 0-1.949.62-3.43.627-1.487 1.74-2.797h1.45v.064q-.513.461-.98 1.069-.463.601-.862 1.405-.38.778-.62 1.715-.234.936-.234 1.974 0 1.082.228 1.98.234.9.626 1.71.38.778.867 1.404.488.633.975 1.07zM-7.413 315.2l3.177-9.423h1.544L.484 315.2H-.838l-.854-2.632h-3.601l-.854 2.632zm5.373-3.702-1.456-4.442-1.45 4.442zM4.699 311.581q0 1.955-.626 3.436t-1.734 2.79H.889v-.062q.488-.437.981-1.076.494-.633.861-1.399.392-.816.62-1.721.234-.911.234-1.968 0-1.044-.234-1.974-.234-.93-.62-1.715t-.873-1.411q-.488-.627-.969-1.064v-.063h1.45q1.1 1.31 1.727 2.784.633 1.475.633 3.443z" style="isolation:auto;mix-blend-mode:normal;text-decoration-line:none;text-indent:0;text-transform:none" transform="translate(33.719 -254.293)"/>
</g>
<g fill="none" stroke="#555">
<path d="M65.385 329.81v8.64" stroke-width="2" style="isolation:auto;mix-blend-mode:normal" transform="translate(33.719 -254.293)"/>
<path d="M70.014 325.572v17.117" style="isolation:auto;mix-blend-mode:normal" transform="translate(33.719 -254.293)"/>
<path d="M74.557 329.81v8.64" stroke-width="2" style="isolation:auto;mix-blend-mode:normal" transform="translate(33.719 -254.293)"/>
<path d="M79.186 325.572v17.117M79.174 334.13h22.116v-45.1H42.781v45.1h22.604" style="isolation:auto;mix-blend-mode:normal" transform="translate(33.719 -254.293)"/>
</g>
<g transform="translate(33.719 -254.293)">
<circle cx="88.229" cy="266.648" r="11.355" fill="#fff100" stroke="#ff7300" style="isolation:auto;mix-blend-mode:normal"/>
<path d="m89.686 276.268 4.07-6.253v-3.333l-1.4.021c-.018-.228.005-.478-.014-.7a35.433 35.433 0 0 0-.14-1.417c-.046-.36-.092-.575-.139-.602-.046-.027-.093.132-.14.45-.046.316-.093.787-.14 1.324-.046.537-.092 1.137-.139 1.685a31.665 31.665 0 0 1-.14 1.389c-.046.345-.092.542-.139.55-.046.01-.093-.168-.14-.5a28.352 28.352 0 0 1-.14-1.357c-.046-.543-.092-1.143-.139-1.686a28.275 28.275 0 0 0-.14-1.357c-.046-.332-.093-.51-.139-.5-.047.008-.093.204-.14.55-.046.347-.093.84-.14 1.389-.046.548-.092 1.148-.139 1.685a25.2 25.2 0 0 1-.14 1.325c-.046.316-.093.477-.14.45-.046-.028-.092-.242-.139-.602-.046-.36-.093-.865-.14-1.419-.046-.553-.092-1.151-.139-1.682-.046-.53-.093-.99-.14-1.291-.046-.301-.093-.443-.14-.398-.046.046-.092.277-.139.652-.046.374-.093.888-.14 1.446-.046.557-.093 1.155-.14 1.678-.046.523-.092.97-.139 1.256-.046.286-.093.41-.14.346-.046-.064-.092-.313-.139-.7a44.35 44.35 0 0 1-.14-1.474c-.046-.56-.093-1.156-.14-1.672-.046-.516-.092-.95-.139-1.22-.046-.27-.093-.374-.14-.293-.046.082-.092.348-.139.749-.047.4-.093.934-.14 1.498-.046.565-.093 1.157-.14 1.665-.046.508-.092.929-.139 1.182-.046.254-.093.34-.14.24-.046-.1-.093-.382-.14-.796a55.393 55.393 0 0 1-.139-1.522c-.046-.567-.093-1.156-.14-1.655-.046-.5-.092-.907-.139-1.144-.046-.237-.093-.304-.14-.187-.046.117-.093.417-.14.843-.046.426-.092.975-.139 1.544-.046.57-.093 1.154-.14 1.645-.046.49-.093.883-.139 1.104-.047.22-.093.268-.14.133-.046-.135-.093-.45-.14-.889a69.762 69.762 0 0 1-.139-1.565c-.046-.57-.093-1.15-.14-1.631-.046-.481-.093-.86-.14-1.063-.046-.204-.092-.233-.139-.08-.046.152-.093.484-.14.933-.046.45-.092 1.013-.139 1.584-.046.572-.093 1.147-.14 1.618-.046.47-.093.834-.14 1.02-.046.187-.092.197-.139.027-.046-.17-.093-.517-.14-.977a89.1 89.1 0 0 1-.14-1.602h-1.402v3.333l4.069 6.253" fill="none" stroke="#ff7300" style="isolation:auto;mix-blend-mode:normal"/>
<path d="M92.233 294.962h-8.008l-1.356-2.655-1.7-1.622-1.012-11.83-2.537-1.268v-3.392h21.217v3.392l-2.537 1.269-1.012 11.829-1.7 1.622z" fill="#c9c7c7" stroke="#717171" stroke-linejoin="round" stroke-miterlimit="100" stroke-width="1.5" style="isolation:auto;mix-blend-mode:normal"/>
</g>
<g fill="none" stroke-linejoin="round" stroke-miterlimit="100000">
<path d="M90.532 282.153h3.072" stroke="#828282" style="isolation:auto;mix-blend-mode:normal" transform="translate(33.719 -254.293)"/>
<path d="M82.854 282.153h3.071" stroke="#ededed" style="isolation:auto;mix-blend-mode:normal" transform="translate(33.719 -254.293)"/>
<path d="M90.532 285.626h3.072" stroke="#828282" style="isolation:auto;mix-blend-mode:normal" transform="translate(33.719 -254.293)"/>
<path d="M82.854 285.626h3.071" stroke="#ededed" style="isolation:auto;mix-blend-mode:normal" transform="translate(33.719 -254.293)"/>
<path d="M90.532 289.098h3.072" stroke="#828282" style="isolation:auto;mix-blend-mode:normal" transform="translate(33.719 -254.293)"/>
<path d="M82.854 289.098h3.071" stroke="#ededed" style="isolation:auto;mix-blend-mode:normal" transform="translate(33.719 -254.293)"/>
</g>
<g transform="translate(33.719 -254.293)">
<path d="M81.854 278.681h12.75" fill="#afafaf" stroke="#717171" stroke-linejoin="round" stroke-miterlimit="100000" style="isolation:auto;mix-blend-mode:normal"/>
<circle cx="56.229" cy="266.648" r="11.355" fill="#fff100" stroke="#ff7300" style="isolation:auto;mix-blend-mode:normal"/>
<path d="m57.686 276.268 4.07-6.253v-3.333l-1.4.021c-.018-.228.005-.478-.014-.7a35.433 35.433 0 0 0-.14-1.417c-.046-.36-.092-.575-.139-.602-.046-.027-.093.132-.14.45-.046.316-.093.787-.14 1.324-.046.537-.092 1.137-.139 1.685a31.665 31.665 0 0 1-.14 1.389c-.046.345-.092.542-.139.55-.046.01-.093-.168-.14-.5a28.352 28.352 0 0 1-.14-1.357c-.046-.543-.092-1.143-.139-1.686a28.275 28.275 0 0 0-.14-1.357c-.046-.332-.093-.51-.139-.5-.047.008-.093.204-.14.55-.046.347-.093.84-.14 1.389-.046.548-.092 1.148-.139 1.685a25.2 25.2 0 0 1-.14 1.325c-.046.316-.093.477-.14.45-.046-.028-.092-.242-.139-.602-.046-.36-.093-.865-.14-1.419-.046-.553-.092-1.151-.139-1.682-.046-.53-.093-.99-.14-1.291-.046-.301-.093-.443-.14-.398-.046.046-.092.277-.139.652-.046.374-.093.888-.14 1.446-.046.557-.093 1.155-.14 1.678-.046.523-.092.97-.139 1.256-.046.286-.093.41-.14.346-.046-.064-.092-.313-.139-.7a44.35 44.35 0 0 1-.14-1.474c-.046-.56-.093-1.156-.14-1.672-.046-.516-.092-.95-.139-1.22-.046-.27-.093-.374-.14-.293-.046.082-.092.348-.139.749-.047.4-.093.934-.14 1.498-.046.565-.093 1.157-.14 1.665-.046.508-.092.929-.139 1.182-.046.254-.093.34-.14.24-.046-.1-.093-.382-.14-.796a55.393 55.393 0 0 1-.139-1.522c-.046-.567-.093-1.156-.14-1.655-.046-.5-.092-.907-.139-1.144-.046-.237-.093-.304-.14-.187-.046.117-.093.417-.14.843-.046.426-.092.975-.139 1.544-.046.57-.093 1.154-.14 1.645-.046.49-.093.883-.139 1.104-.047.22-.093.268-.14.133-.046-.135-.093-.45-.14-.889a69.762 69.762 0 0 1-.139-1.565c-.046-.57-.093-1.15-.14-1.631-.046-.481-.093-.86-.14-1.063-.046-.204-.092-.233-.139-.08-.046.152-.093.484-.14.933-.046.45-.092 1.013-.139 1.584-.046.572-.093 1.147-.14 1.618-.046.47-.093.834-.14 1.02-.046.187-.092.197-.139.027-.046-.17-.093-.517-.14-.977a89.1 89.1 0 0 1-.14-1.602h-1.402v3.333l4.069 6.253" fill="none" stroke="#ff7300" style="isolation:auto;mix-blend-mode:normal"/>
<path d="M60.233 294.962h-8.008l-1.356-2.655-1.7-1.622-1.012-11.83-2.537-1.268v-3.392h21.217v3.392l-2.537 1.269-1.012 11.829-1.7 1.622z" fill="#c9c7c7" stroke="#717171" stroke-linejoin="round" stroke-miterlimit="100" stroke-width="1.5" style="isolation:auto;mix-blend-mode:normal"/>
</g>
<g fill="none" stroke-linejoin="round" stroke-miterlimit="100000">
<path d="M58.532 282.153h3.072" stroke="#828282" style="isolation:auto;mix-blend-mode:normal" transform="translate(33.719 -254.293)"/>
<path d="M50.854 282.153h3.071" stroke="#ededed" style="isolation:auto;mix-blend-mode:normal" transform="translate(33.719 -254.293)"/>
<path d="M58.532 285.626h3.072" stroke="#828282" style="isolation:auto;mix-blend-mode:normal" transform="translate(33.719 -254.293)"/>
<path d="M50.854 285.626h3.071" stroke="#ededed" style="isolation:auto;mix-blend-mode:normal" transform="translate(33.719 -254.293)"/>
<path d="M58.532 289.098h3.072" stroke="#828282" style="isolation:auto;mix-blend-mode:normal" transform="translate(33.719 -254.293)"/>
<path d="M50.854 289.098h3.071" stroke="#ededed" style="isolation:auto;mix-blend-mode:normal" transform="translate(33.719 -254.293)"/>
</g>
<path d="M49.854 278.681h12.75" fill="#afafaf" stroke="#717171" stroke-linejoin="round" stroke-miterlimit="100000" style="isolation:auto;mix-blend-mode:normal" transform="translate(33.719 -254.293)"/>
<g fill="#5f5f5f">
<path d="M67.67 317.808h-1.45q-1.1-1.31-1.734-2.772-.626-1.462-.626-3.455 0-1.949.62-3.43.626-1.487 1.74-2.797h1.45v.064q-.513.461-.982 1.069-.462.601-.86 1.405-.38.778-.62 1.715-.234.936-.234 1.974 0 1.082.227 1.98.234.9.627 1.71.38.778.867 1.404.487.633.974 1.07zM76.522 310.499q0 1.29-.525 2.329-.519 1.038-1.398 1.62-.715.45-1.456.6-.734.153-1.88.153h-2.17v-9.423h2.145q1.33 0 2.082.203.76.196 1.291.544.912.601 1.411 1.601.5.993.5 2.373zm-1.303-.019q0-1.088-.36-1.854-.362-.772-1.07-1.202-.5-.304-1.07-.437-.57-.133-1.417-.133h-.956v7.271h.956q.835 0 1.462-.133.626-.133 1.145-.493.652-.443.98-1.178.33-.74.33-1.841zM81.199 311.581q0 1.955-.627 3.436-.626 1.481-1.734 2.79H77.39v-.062q.488-.437.981-1.076.494-.633.86-1.399.393-.816.62-1.721.235-.911.235-1.968 0-1.044-.234-1.974-.234-.93-.62-1.715t-.874-1.411q-.487-.627-.968-1.064v-.063h1.45q1.1 1.31 1.727 2.784.633 1.475.633 3.443z" style="isolation:auto;mix-blend-mode:normal;text-decoration-line:none;text-indent:0;text-transform:none" transform="translate(33.719 -254.293)"/>
</g>
</g>
</svg>
