<svg width="168.578" height="141.222" xmlns="http://www.w3.org/2000/svg">
<defs>
<marker id="a" overflow="visible" orient="auto">
<path d="m-4 0-2 2 7-2-7-2z" fill-rule="evenodd" stroke="#000" stroke-width=".4pt"/>
</marker>
<marker id="b" overflow="visible" orient="auto">
<path d="m-4 0-2 2 7-2-7-2z" fill="red" fill-rule="evenodd" stroke="red" stroke-width=".4pt"/>
</marker>
<marker id="c" overflow="visible" orient="auto">
<path d="M5.231 2.42-1.324.01 5.23-2.401C4.184-.978 4.19.969 5.231 2.42z" fill="#00f" fill-rule="evenodd" stroke="#00f" stroke-linejoin="round" stroke-width=".375"/>
</marker>
</defs>
<g fill="none" stroke-linejoin="round" stroke-width="1.2" color="#000">
<path d="M72.839 303.162v-77.49" marker-end="url(#a)" stroke="#000" style="isolation:auto;mix-blend-mode:normal" transform="translate(30.003 -222.416)"/>
<path d="m72.68 302.647-75.37-6.793" marker-end="url(#a)" stroke="#000" style="isolation:auto;mix-blend-mode:normal" transform="translate(30.003 -222.416)"/>
<path d="m72.68 302.647-40.428 32.244" marker-end="url(#b)" stroke="red" style="isolation:auto;mix-blend-mode:normal" transform="translate(30.003 -222.416)"/>
</g>
<path d="M117.42 21.754c-.56.074-.87.535-1.074.871-.125.172-.245.349-.36.527-.71 1.108-1.145 2.326-1.465 3.563-.936.514-2.24 1.42-3.38 4.053-.935 2.175-1.576 4.657-1.876 7.447a35.14 35.14 0 0 0-.193 4.069c.025 2.883.654 5.573 1.113 7.266.005.019.005.009.011.028.023.286-.019.391.023.805.263 2.619.907 6.77 1.319 10.975.055.565.106 1.128.149 1.69.031.405-.012.35.013.747.234-.15.268-.11.437-.231-.013-.217.013-.33-.002-.55a68.724 68.724 0 0 0-.144-1.7c-.318-3.24-1.183-8.812-1.45-10.666.205.632.495 1.599.514 1.593.06-.017-.203-.97-.606-2.755-.042-.186-.057-.583-.103-.792-.014-.22-.08-.605-.072-.763a.809.809 0 0 1 .106-.365c-.05.064-.089.102-.152.226-.327-1.619-.725-3.361-.72-5.511.002-1.31.062-2.657.208-4.017.297-2.755.9-5.19 1.78-7.35.925-2.293 2.102-3.39 2.999-4.066-.15.608-.33 1.215-.396 1.823-.331 3.013.19 5.884.722 7.963.297 1.304.66 2.286 1.594 2.54 1.266.31 1.603-.144 1.781-.43-.297.202-.853.475-1.727.226-.825-.21-1.013-1.105-1.347-2.408-.472-2.07-.942-4.915-.594-7.842.091-.763.286-1.525.51-2.28.006-.022.008-.045.014-.067.313-1.036.721-2.05 1.317-2.977.11-.17.224-.339.344-.503.28-.327.475-.727.73-.69.116-.083.206.237.357.494.589 1.495.662 3.246.805 4.774.278 3.036.377 5.445.398 7.47-.002 2.446-.586 3.596-.55 3.628.034.032.69-1.186.781-3.357.152 1.805.444 4.417 1.131 7.881.335 1.681.921 3.517 1.32 5.45-.142.115-.43.744-1.145 1.066a2.557 2.557 0 0 1-.234.103c-.95.367-2.04.385-2.033.504 0-.007.975.374 2.193-.085a2.74 2.74 0 0 0 .277-.121c.794-.438.933-.936.99-1.26.037.192.099.343.131.538.25 1.493.192 3.13.607 4.776.661 2.605 1.735 5.133 3.05 7.649.516.985 1.098 1.93 1.71 2.858.452.686.919 1.36 1.383 2.03.64.923 1.089 1.973 1.488 3.031.902 2.396 1.713 4.591 2.735 6.768 1.174 2.501 2.494 4.734 3.277 6.91.969 2.683 1.338 5.176 1.907 7.068.707 2.344 1.57 3.65 1.962 4.24-.257-.44-.997-1.67-1.728-4.307-.496-1.787-.869-4.169-1.712-6.742 1.182 2.264 2.566 4.756 4.218 7.161 1.531 2.219 3.381 3.597 5.383 5.68 1.89 1.966 3.403 4.152 5.153 6.393.563.72 1.139 1.428 1.743 2.113 5.384 6.096 4.918 5.42 8.73 9.293 4.015 4.082 6.271 6.322 6.307 6.287.046-.044-2.13-2.36-6.087-6.5-3.686-3.858-3.308-3.361-8.61-9.378a45.532 45.532 0 0 1-1.725-2.093c-1.74-2.226-3.27-4.428-5.195-6.42-2.04-2.11-3.876-3.45-5.372-5.601-2.762-3.954-5.188-8.757-6.393-11.091l-.002-.002c-.526-1.06-.953-2.051-1.478-3.185-1.001-2.164-1.796-4.347-2.693-6.75-.4-1.073-.867-2.156-1.538-3.13a118.54 118.54 0 0 1-1.375-2.024 32.596 32.596 0 0 1-1.688-2.817c-1.307-2.494-2.373-4.986-3.036-7.546-.409-1.563-.364-3.196-.632-4.738-.402-2.294-1.166-4.318-1.563-6.194-1.173-5.538-1.324-7.931-1.442-8.904a70.326 70.326 0 0 0-.229-6.688c-.12-1.518-.19-3.302-.802-4.9-.068-.307-.3-.723-.794-.78zm22.561 72.865c.052.09.22.392.213.396.035-.02-.06-.166-.213-.396zm-21.53-56.05c-.098-.09-.163.025-.257.175.146-.098.249-.183.257-.175zm-8.073 8.997a1.49 1.49 0 0 0 .09-.134c.005.011-.041.05-.09.134zm1.321 16.23c-.249.16-.853.313-1.185.487.34-.145.924-.276 1.185-.413-.002-.04.002-.035 0-.075zm0 .074c.143 2.36.08 2.663.075 4.454-.41.62-.477.796-1.124 1.55l-.04.049c-1.41 1.635-3.03 2.865-2.957 2.958.01.011 1.731-.853 3.298-2.663l.044-.048c.584-.688.465-.79.786-1.378-.02 2.54.05 6.626.108 6.629-.045-.002.222-3.186.273-7.298 0-.107-.004-.221-.002-.331.01-1.38.077-2.526-.024-4.164-.18.11-.19.112-.437.242zm-1.185.413c-.825.355-1.56.728-2.879 1.003-1.587.334-3.262.092-5.387-.517-2.198-.633-3.843-1.248-6.467-2.126-.966-.324-2.05-.677-3.175-.699-1.589-.027-3.456-.017-5.182-.156a130.236 130.236 0 0 1-10.43-1.27c-1.465-.238-2.913-.578-4.416-.956-1.6-.395-3.195-.055-4.812.048-4.784.29-10.043.593-15.16 1.244-2.548.308-5.57.428-7.55 2.334-.95.943-1.307 2.385-1.002 3.684.33 1.312 1.505 2.206 2.774 2.54 1.127.3 2.28.437 3.44.482 1.005.04 2.014.012 3.009-.03 1.614-.067 3.195-.324 4.758-.293 1.689.03 3.399.228 5.111.342 2.108.139 4.96.203 7.013.305 2.016.1 3.24.392 5.198.712 2.65.435 5.172.863 7.61 1.645 1.619.524 3.11 1.265 4.28 2.35-1.107.208-3.47.756-9.055 1.745-1.534.27-3.79.436-5.56 1.01-1.18.399-2.033 1.352-2.748 2.365-1.176 1.645-2.276 3.403-3.439 5.11l-.116.167c-.984 1.433-2.08 2.765-2.78 4.377-.496 1.148-.615 2.405-.458 3.583.145 1.149.547 2.265 1.36 3.044 1.112 1.038 2.735 1.553 3.878 2.064 1.47.662 2.48 1.142 3.46 1.54.137.214 1.668 1.65 4.352 4.04.091.082.239.185.334.27-.14.456-.261.56-.311 1.678-.03.62.087 1.42.606 2.067.74.899 1.638 1.404 2.712 2.154 1.19.836 2.802 1.963 3.992 2.799l.699.494c.737.53 1.462 1.17 2.426 1.341.931.145 1.868-.057 2.66-.218a51.45 51.45 0 0 0 3.476-.838c.696-.19.583-.19 1.072-.337.031-.009.038-.013.069-.023.871-.265 1.727-.525 1.969-.617a3.91 3.91 0 0 0 .992-.36c.028-.015.026-.063.054-.08.173.072.098.05.283.126 2.535 1.044 6.369 2.542 10.39 3.52.583.141 1.174.277 1.768.403 4.14.88 7.708 1.137 10.975.75.946-.113 1.7-.332 2.365-.575.825 1.102.884 1.404 2.81 3.36 1.72 1.746 4.227 4.103 6.081 6.366l.427.524c2.818 3.477 5.605 7.335 7.451 9.86 1.938 2.65 3.047 4.125 3.1 4.087.044-.031-.972-1.572-2.84-4.272-1.81-2.616-4.495-6.427-7.36-9.96l-.428-.527c-1.905-2.316-4.4-4.617-6.162-6.346-1.852-1.819-1.98-2.083-2.889-3.139 1.61-.624 2.427-1.474 2.792-1.799-.297.149-1.382.81-3.149 1.409-.052.017-.106.031-.16.048-.693.223-1.144.529-2.074.617-3.24.315-6.725.026-10.847-.848a69.259 69.259 0 0 1-1.755-.396c-3.965-.95-7.84-2.402-10.382-3.362-.146-.055-.09-.03-.229-.082.512-.382 1.023-.865 1.062-1.53a1.77 1.77 0 0 0-.02-.393c-.188-.737-.856-1.048-1.517-1.192-.05-.11-.005-.128-.077-.247-.073-.12-.11-.091-.183-.188.566-.473.885-1.201.89-1.946 0-.048-.034-.09-.037-.138.004.012.06.147.065.146-.094.014.223-.638-.422-1.655-.567-.872-1.445-1.433-2.789-2.092-.716-.358-1.512-.681-2.303-1.005-.361-2.148-.61-3.742-1.095-6.321l-.002-.01-.005-.024c-.42-2.228-.995-4.58-1.525-7.074-.049-.23 0-.482-.036-.717-.003-.02 0-.041-.002-.062-.128-.872-.212-1.758-.128-2.665.004-.053-.014-.104-.008-.157.005-.048-.014-.093-.008-.141.201-1.658.626-3.58.617-5.396-.006-1.497-.468-3.065-1.524-4.24-.058-.065-.145-.096-.206-.157-.012-.014-.03-.02-.043-.034-.153-.154-.35-.256-.514-.396.033-.22-.265-1.33-.173-2.783l.016-.224c.143-1.669.638-3.2.524-3.234-.017-.005-.806 1.303-.974 3.195-.007.08-.014.16-.018.24-.068 1.464.316 2.338.499 2.709-1.174-.957-2.545-1.676-4.028-2.152-2.474-.799-5.017-1.237-7.667-1.676-1.963-.325-3.204-.622-5.247-.727-2.074-.106-4.92-.174-7.002-.314-1.679-.112-3.395-.31-5.132-.344-1.618-.03-3.209.226-4.786.29-.991.04-1.988.066-2.974.029-1.136-.044-2.256-.171-3.34-.463-1.143-.314-2.211-1.097-2.451-2.208-.27-1.15.043-2.45.876-3.26 1.778-1.783 4.716-1.872 7.29-2.22 5.093-.656 10.349-.967 15.132-1.27 1.66-.1 3.21-.448 4.69-.072 1.508.375 2.967.713 4.45.949 3.687.585 7.18.98 10.466 1.228 1.748.132 3.617.112 5.203.129 1.062.008 2.122.351 3.09.666 2.61.853 4.293 1.462 6.492 2.074 2.142.599 3.867.822 5.488.463 1.363-.306 2.047-.754 2.843-1.173zm10.38-17.077c-.085-.052-.446.546-1.121.786a4.848 4.848 0 0 1-.458.152c-.942.265-1.904.407-1.89.524.008.057.91.223 2.014-.09.173-.049.341-.11.503-.182.955-.454.936-1.2.951-1.19zm-75.47 15.006c.008.013-.095.065-.17.108.116-.04.19-.073.17-.108zm-.17.108c-.463.163-1.876.487-3.26 1.963-.453.474-.791 1.145-.808 1.846-.008.335.059.668.216.98.575 1.035 1.696 1.556 2.45 1.842 1.22.473 1.961.29 1.96.296.007-.063-.757-.1-1.827-.607-.705-.34-1.75-.87-2.19-1.743a1.385 1.385 0 0 1-.17-.755c.025-.56.32-1.14.687-1.57 1.217-1.394 2.553-2.028 2.943-2.252zm12.192 2.277c-.099 0-.241.801-.17 1.876l.019.226c.105 1.16.369 2.061.478 2.047.138-.02.074-.954-.029-2.088l-.02-.22c-.095-1.037-.146-1.841-.278-1.841zm13.385.219c-.061-.011-.519 1.073-.509 2.544v.016c.019 1.467.503 2.53.563 2.519.116-.023-.1-1.23-.11-2.522v-.018c-.014-1.298.173-2.52.056-2.54zm16.478 10.157c.123.117.292.183.406.309.986 1.075 1.422 2.558 1.437 3.979.018 1.755-.398 3.664-.594 5.349-.01.093.024.18.016.272-1.077.313-1.43.487-3.545.861-1.476.262-2.775.366-4.416.574-.547.069-1.09.145-1.63.239-.85.138-1.696.43-2.243 1.107-.567.732-1.034 1.451-1.527 2.036-.88 1.046-.98 1.122-1.483 1.65-.142-.091-.3-.218-.44-.306-2.022-1.268-3.353-1.89-3.38-1.845-.056.093 1.202.844 3.167 2.172.12.082.26.193.383.278.036.024.076.057.113.082.106.073.222.162.329.236l.11.083c.717.501 1.431.99 2.185 1.58l.183.144c1.138.918 2.092 1.669 2.472 2.776.278.748.198 1.342.137 1.905-.16-.454-.408-.885-.738-1.2-1.388-1.353-3.012-2.026-4.239-2.324-1.557-.397-1.932.255-2.113.522.276-.184.946-.562 2.039-.247 1.173.351 2.713 1.045 4.012 2.35.61.628 1.05 1.645.602 2.398-.109.209-.26.39-.44.542-.12.101-.266.155-.419.193-.003 0-.002-.002-.005-.002-.056.004-.18.03-.306.061-.14.02-.28.035-.419.062-.086.017-.157.06-.244.07-.203.02-.37.177-.568.154-.286-.036-.523-.178-.794-.252-.26-.071-.517-.14-.761-.24-.885-.36-1.7-.817-2.319-1.344-.707-.608-.998-1.354-.982-1.981.026-1.125.492-1.643.458-1.671.017.013-.605.365-.707 1.658-.052.7.228 1.565.995 2.262.163.15.404.275.591.421-1.236-.48-2.248-.928-4.154-1.817-1.16-.546-2.755-1.064-3.75-2.033-.723-.684-1.072-1.718-1.216-2.807-.14-1.113-.023-2.293.442-3.352.668-1.537 1.754-2.839 2.75-4.298.04-.055.076-.113.114-.17 1.17-1.716 2.266-3.473 3.426-5.11.707-.983 1.476-1.884 2.52-2.217 1.685-.565 3.94-.753 5.495-1.049 5.727-1.087 8.013-1.781 9.05-2.059zM71.753 95.544c.05.042.088-.007.146-.092-.084.056-.137.1-.146.092zm28.852-17.142c-.034-.008-.28.77-.652 2.262-.338 1.35-.909 3.782-.962 6.241-.04 2.005.274 3.91.594 6.053.118.788.228 1.562.308 2.337.701 6.752.606 12.298.712 12.297-.095 0 .433-5.23-.267-12.34a47.344 47.344 0 0 0-.306-2.36c-.322-2.157-.645-4.017-.63-5.98.015-2.376.525-4.857.792-6.194.301-1.506.461-2.304.411-2.316zm-24.85 3.342c-.11.045.348 1.215.653 2.5l.036.15c.276 1.229.287 2.385.4 2.385.052 0 .334-1.07.04-2.48-.012-.053-.021-.107-.034-.16-.347-1.448-1.037-2.42-1.095-2.395zm12.826 3.316c-.066.896.01 1.77.142 2.63-1.15.154-3.607.455-7.915 1.711l-.048.013c-3.637 1.064-4.925 1.735-6.398 2.38-.163-.109-.331-.24-.491-.344.552-.47.677-.471 1.614-1.514.53-.591 1.02-1.31 1.584-2.013.426-.56 1.18-.78 1.989-.925a40.65 40.65 0 0 1 1.612-.231c1.6-.202 2.97-.329 4.436-.617 2.195-.433 2.446-.685 3.475-1.09zm.144 2.709c.037.228-.01.476.039.699.545 2.508 1.136 4.86 1.568 7.081l.013.072c-.445.21-1.517.922-3.216 1.764-.105.052-.21.102-.316.151-1.045.493-1.333.546-2.033.769-.49-.646-.457-.733-1.152-1.537-.366-.424-.733-.83-1.1-1.213-1.422-1.49-2.63-2.153-2.67-2.098-.056.075 1.069.95 2.356 2.388.355.395.705.793 1.072 1.218.653.755.704.754 1.214 1.347.052.06.073.08.123.139.604.7 1.271 1.469 1.496 1.66-.715-.105-1.545-.3-2.09-.298-1.01.007-1.547.064-1.547.106 0 .05.539.084 1.54.154.654.046 1.589.268 2.475.46.01.001.133.156.139.152.002-.002-.11-.14-.111-.147.41.09.681.074 1.144.21.99.295 2.008.634 3.05 1.03.293.11.545.234.829.349.092.037.178.078.27.115.688.283 1.392.562 2.03.861.542.26.71.521 1.098.748-.403-.132-.812-.277-1.185-.326-.677-.104-1.13.138-1.684.221-.076.012-.158.013-.231.028-.379.08-.881-.037-1.19.157-.588.39-.75 1.056-.784 1.427-.011.11-.019.209-.026.298V105.782l.002.014c.003.04.009.081.013.115.024.217.048.325.067.324.019 0 .033-.108.046-.326l.008-.116c0-.013 0-.013.002-.013s.002-.001.005-.005c.02-.087.04-.185.062-.293.07-.337.264-.935.756-1.2.28-.164.753-.042 1.095-.098.072-.012.156-.013.231-.02.508-.052.91-.244 1.565-.142 1.03.187 2.298.565 2.81 1.53.17.301.253.656.25 1.015-.008.621-.264 1.24-.72 1.614-.009.007-.021.004-.029.01-.032.027-.082.022-.116.047-.808.6-1.998.6-2.958.558-.036-.001-.08.004-.116.002-.039-.002-.044-.023-.082-.026-1.04-.082-1.794-.147-2.234-.699-.574-.663-.58-1.221-.568-1.534-.094.324-.224.894.355 1.701.52.674 1.396.865 2.5.936h.03c.055.005.13-.002.19.002a9.01 9.01 0 0 0 1.164.015c-.26.07-.571.07-.797.165-.069-.005-.247-.011-.334-.016l-.185-.008c-.675-.032-.838-.06-2.316-.108-1.355-.043-3.35-.093-5.162-.254-1.221-.11-2.466-.423-3.567-1.046a6.861 6.861 0 0 1-.33-.198c-1.768-1.129-3.466-2.667-4.862-3.864-.02-.017-.05-.037-.07-.053-.045-.04-.114-.09-.16-.129-2.654-2.262-4.204-3.54-4.515-3.717.554.222 1.103.425 1.72.602.74.426 1.56.778 2.498.905.8.11 1.673-.104 2.303-.638.218-.185.405-.407.55-.666.146-.292.066-.593.07-.894.314-.553.638-1.38.197-2.845-.404-1.245-1.405-2.113-2.552-3.01-.062-.05-.124-.096-.185-.144-.674-.528-1.32-.938-1.977-1.383 1.608-.541 3.017-1.06 6.385-2.044l.051-.013c4.042-1.178 6.605-1.74 7.789-2.066zm1.21 18.769c.053-.181.096-.306-.007-.304.013 0 .012.193.008.304zm23.797-16.826c-.052.017.082.639.391 1.73.3 1.058.78 2.604 1.49 4.012.217.427.452.836.708 1.229 1.372 2.078 3.086 2.52 3.547 2.704-.32-.221-1.993-1.037-3.177-2.94-.242-.383-.464-.78-.674-1.196-.678-1.343-1.218-2.902-1.588-3.91-.39-1.063-.635-1.65-.697-1.629zm6.136 9.675c.037.026.136.078.131.087.013-.025-.045-.053-.131-.087zm-29.51-3.694c.472 2.441.731 3.957 1.094 6.01-.198-.08-.37-.173-.573-.25a34.379 34.379 0 0 0-3.095-1.007c-.63-.173-1.026-.14-1.567-.224-.125-.23-.786-1.044-1.309-1.745.714-.116.958-.01 2.095-.532.11-.05.219-.103.327-.157 1.847-.917 2.688-1.758 3.027-2.095zm29.487 7.028c-.067-.089-1.848 1.412-4.288 2.347-.162.063-.325.122-.49.18-2.66.923-5.284 1.273-5.265 1.39-.004-.023 2.493.046 5.411-.964.17-.059.341-.121.509-.187 2.706-1.074 4.09-2.81 4.123-2.766zm-36.708.905c-.035-.011-.59.69-.573 1.822v.026c.045 1.128.65 1.772.681 1.76.11-.041-.211-.891-.228-1.776v-.02c-.027-.895.234-1.779.12-1.812zm-6.557.701c1.342 1.202 2.917 2.663 4.66 3.781.116.074.234.144.353.211 1.173.66 2.48.986 3.752 1.085 1.867.145 3.805.15 5.192.149 1.459-.001 1.605-.047 2.283-.08-.014.008-.042.005-.057.013-.644.345-.91.865-.99 1.206-.071.323.004.48.019.478.026-.002.018-.163.128-.434.119-.3.392-.713.977-.982.014-.007.042-.004.057-.011.043-.02.122-.01.167-.028a6.9 6.9 0 0 1 .784-.275 5.93 5.93 0 0 1 2.1-.209c.179.022.36.1.547.15.063.016.123.03.185.05.464.156.874.381.918.798.021.093.03.188.025.282-.026.557-.503 1.08-1.005 1.412-.027.018-.026.06-.054.077-.089.052-.196.009-.29.051-.825.375-1.791.482-2.542.458-.047-.002-.05-.023-.095-.026-.05-.004-.057-.028-.103-.03-.622-.048-1.101-.086-1.388-.392-.38-.37-.377-.735-.398-.825-.035.14-.147.487.23.972.342.406.912.553 1.64.612.042.002.05.03.093.033h.002c.384.035.834.048 1.303.011-.395.092-.829.196-1.238.293l-.078.018c-.496.118-.395.077-1.097.242a69.6 69.6 0 0 1-3.475.745c-.802.14-1.699.329-2.514.183-.804-.124-1.46-.743-2.239-1.283-.233-.165-.465-.33-.7-.494-1.364-.959-2.73-1.899-4.012-2.773-1.108-.76-1.972-1.208-2.68-2.036-.466-.528-.595-1.258-.597-1.835 0-1.015.065-1.115.136-1.596zm19.443 4.308c.034.079.013.099.059.185-.016 0-.033-.012-.05-.013-.41-.025-.64.167-1.01.21a3.28 3.28 0 0 0 1-.382zm-1.985.748h.031l-.051.005a.068.068 0 0 0 .02-.005zm-7.731 1.35c-.08-.017-.433.585-.445 1.473v.038c.006.88.37 1.457.445 1.44.113-.027 0-.723.007-1.44v-.033c.006-.779.156-1.443-.007-1.478zm39.576 3.824c-.032-.04-.103.008-.224.116.039-.02.22-.12.224-.116z"/>
<g stroke-linejoin="round">
<path d="M31.51 324.586A72.315 28.233 3.711 0 1 2 302.947" fill="none" marker-start="url(#c)" stroke="#00f" stroke-width="1.5" transform="translate(30.003 -222.416)"/>
<g stroke-miterlimit="100000" stroke-width="1.333">
<path d="M74.916 5.741c-2.391.574-4.247 3.06-4.247 5.375 0 1.836 1.224 3.214 3.022 3.214 2.239 0 3.826-3.004 3.826-5.643 0-1.74-.765-2.697-1.415-3.558-.689-.86-1.818-2.295-1.818-3.137 0-.421.383-.88 1.053-.88.573 0 .956.249 1.358.516.382.23.765.479 1.052.479.478 0 .765-.46.765-.765 0-.421-.306-.479-.995-.632C76.522.5 76.255.5 75.95.5c-1.492 0-2.181.822-2.181 1.97 0 1.033.555 2.104 1.148 3.271zm.23.42c.477.88 1.051 1.914 1.051 3.29 0 1.263-.727 4.458-2.506 4.458-1.052 0-1.836-.804-1.836-2.257 0-1.205.708-4.802 3.29-5.49zM87.266 6.506h2.237c.364 0 .708 0 .708-.555 0-.344-.325-.344-.65-.344h-2.142l.63-3.462c.058-.345.058-.383.25-.555.248-.23.458-.23.554-.23.268 0 .44.039.67.134-.46.23-.804.727-.804 1.244 0 .574.46.88.938.88.784 0 1.377-.689 1.377-1.416 0-.975-.995-1.53-2.18-1.53-.9 0-1.971.363-2.64 1.435-.44.707-.555 1.453-.919 3.5h-1.874c-.364 0-.689 0-.689.555 0 .344.325.344.631.344h1.76l-1.454 8.149c-.038.172-.248 1.377-.344 1.645-.038.095-.344.975-.956.975-.364 0-.517-.057-.65-.114.478-.23.841-.727.841-1.263 0-.574-.46-.88-.937-.88-.785 0-1.378.689-1.378 1.416 0 1.033 1.09 1.53 2.085 1.53 1.435 0 2.43-1.416 2.583-1.664.822-1.263 1.262-3.692 1.32-4.017zM4.747 69.38C2.355 69.954.5 72.44.5 74.755c0 1.836 1.224 3.214 3.022 3.214 2.238 0 3.826-3.004 3.826-5.643 0-1.74-.765-2.697-1.416-3.558-.688-.86-1.817-2.295-1.817-3.137 0-.421.383-.88 1.052-.88.574 0 .957.249 1.358.516.383.23.766.479 1.052.479.479 0 .766-.46.766-.766 0-.42-.306-.478-.995-.63-.995-.211-1.263-.211-1.569-.211-1.492 0-2.18.822-2.18 1.97 0 1.033.555 2.104 1.148 3.271zm.23.42c.477.88 1.051 1.914 1.051 3.29 0 1.263-.727 4.458-2.506 4.458-1.052 0-1.836-.804-1.836-2.257 0-1.205.708-4.802 3.29-5.49zM17.326 65.918c.076-.325.095-.344.478-.383.287-.019.536-.019.823-.019h.401c.402 0 .421-.019.517-.095.114-.077.172-.345.172-.46 0-.23-.191-.344-.421-.344-.478 0-.976.038-1.454.038-.497 0-1.014.02-1.53.02-.536 0-1.071-.02-1.588-.02-.497 0-1.013-.038-1.492-.038-.21 0-.554 0-.554.555 0 .344.306.344.65.344h.402c.172 0 .63.02 1.013.038l-2.735 10.903c-.076.307-.095.326-.459.345-.23.038-.574.038-.822.038h-.402c-.383 0-.708 0-.708.555 0 .248.21.344.42.344.48 0 .976-.038 1.455-.038.516 0 1.033-.02 1.55-.02.535 0 1.051.02 1.587.02.497 0 .994.038 1.473.038.19 0 .573 0 .573-.555 0-.344-.325-.344-.65-.344h-.402c-.134 0-.765-.02-1.013-.038z"/>
<path d="M44.83 128.077c-.077.306-.096.325-.44.363-.326.02-.708.02-1.015.02-.497 0-.535 0-.612.038-.23.134-.23.44-.23.516 0 .345.345.345.651.345h8.11c3.998 0 5.796-2.525 5.796-4.228 0-1.645-1.434-2.467-3.194-2.62 3.06-.555 4.15-2.334 4.15-3.616 0-1.568-1.376-2.658-4.073-2.658h-7.67c-.383 0-.709 0-.709.554 0 .345.249.345.804.345.401 0 .765.019 1.167.038zm5.126-10.597c.076-.287.095-.306.21-.325.172-.02.306-.02.516-.02h2.85c.383 0 1.933 0 1.933 1.665 0 1.339-1.072 3.385-3.673 3.385H48.77zm-2.277 10.98c-.287 0-.325 0-.459-.02l1.377-5.566h3.73c.498 0 2.105 0 2.105 1.951 0 1.473-.976 3.634-3.692 3.634z" fill="red"/>
</g>
</g>
</svg>
