<svg width="161.244" height="120.904" viewBox="0 0 161.244 120.903" xmlns="http://www.w3.org/2000/svg">
<g color="#000">
<path d="M10.95 314.201h155.244v66.977H10.95z" fill="#a9dddd" style="isolation:auto;mix-blend-mode:normal" transform="translate(-7.95 -264.004)"/>
<path d="M166.193 301.92v79.987H10.949V301.92" fill="none" stroke="#5a5a5a" stroke-linejoin="round" stroke-miterlimit="100" stroke-width="5" style="isolation:auto;mix-blend-mode:normal" transform="translate(-7.95 -264.004)"/>
<g fill="#2b2b2b">
<path d="M119.682 373.76q-3.125.563-6.25 1-.063.5-.313.188l-.374-1.625 2.062-.125v-8.063q-1.313.688-2.5 1.125l-.5-1.313q4.875-1.5 6.313-4.437l1.687.188q.25.25-.188.312v.188q2.188 2.437 6.563 3.5l-.75 1.312q-.813-.125-2.5-.875v4.875l.813-.813 1.124 1.125q.063.313-.312.188l-3 1.938q1.188.812 4.313 1.125l-.563 1.312q-5.438-.5-6.938-4.625h-2.312v2.813l3.625-.438zm-.125-3.5q.25.688 1.125 1.563l1.938-1.563zm2.125-1v-1.125h-5.625v1.125zm-5.625-2.125h5.625v-1.125h-5.625zm2.75-5.25q-1.375 1.813-3.75 3.125h3.25v-1.625h1.188q.5.063.062.375v1.25h3.125q-1.875-.875-3.875-3.125zM135.995 361.072q-.063.375-.563 1.188h5.876v1.187h-6.5q-.563 1.125-1.938 2.375l-.625-1.125q2.063-2.063 2.563-4.25l1.437.25q.438.063-.25.375zm-8.188 9.938q.75-.125 1.813-.375v-5h-1.625v-1.188h1.625v-3.563h1.188q.562 0 .062.375v3.188h1.188v1.188h-1.188v4.75l1.75-.5.125 1q-1 .437-4.125 1.375-.375.437-.438.187zm12.438-6.375v3.437h-6.063v-3.438zm-1.063 1h-3.937v1.437h3.938zm1.938 3.5v4.187h1v1.188h-10.625v-1.188h1.813v-4.188zm-5.5 1h-1.25v3.187h1.25zm2.188 0h-1.125v3.187h1.125zm1.062 0v3.187h1.188v-3.188zM157.432 373.76q-3.688-2.5-5.688-7.25v7.188q0 1-1 1h-1.5l-.25-1.188h1.25q.25 0 .25-.25v-12.563h1.188q.5.063.063.375v1.813q0 1.375 1.062 3.25 1.438-1 3.188-3.125l1.124 1.125q.313.5-.375.375-1.5 1.375-3.375 2.688 1.813 3.187 4.813 5.125zm-7.813-8.625q-1 5.938-5.187 8.625l-.688-1.313q3.438-1.937 4.5-6.937h-3.625v-1.188h3.625l.375-.5 1.063.75q.438.25-.063.563z" style="text-decoration-line:none;text-indent:0;text-transform:none" transform="translate(-7.95 -264.004)"/>
</g>
<path d="M51.473 309.252v-33.484h74.197v34.898" fill="none" stroke="#5a5a5a" stroke-linejoin="round" stroke-miterlimit="100" stroke-width="3" style="isolation:auto;mix-blend-mode:normal" transform="translate(-7.95 -264.004)"/>
<path d="M37.049 285.018c-.348 0-.789.333-.893.604-.104.27-.078.432-.078.51v2.347h-2.347c-.078 0-.24-.026-.51.078s-.606.546-.606.895.335.788.606.892.432.078.51.078h2.347v2.348c0 .077-.026.24.078.51s.545.605.893.605.79-.335.894-.605c.104-.27.077-.433.077-.51v-2.348h2.338c.077 0 .239.026.51-.078.27-.104.605-.544.605-.892s-.335-.791-.606-.895c-.27-.104-.432-.078-.51-.078H38.02v-2.348c0-.077.027-.24-.077-.51s-.546-.603-.894-.603zM139.133 288.48h-2.348c-.077 0-.24-.026-.51.078s-.605.547-.605.895.335.788.606.892.432.078.51.078h6.626c.078 0 .24.026.51-.078s.606-.544.606-.892-.336-.79-.606-.895c-.27-.104-.432-.078-.51-.078h-2.338z" fill="#ff1900" style="isolation:auto;mix-blend-mode:normal;text-decoration-color:#000;text-decoration-line:none;text-decoration-style:solid;text-indent:0;text-transform:none;white-space:normal" transform="translate(-7.95 -264.004)"/>
<path d="M51.473 295.503v55.468M125.67 294.183v55.468" fill="none" stroke="#5a5a5a" stroke-linejoin="round" stroke-miterlimit="100" stroke-width="20" style="isolation:auto;mix-blend-mode:normal" transform="translate(-7.95 -264.004)"/>
<g fill="#fff">
<path d="M46.035 340.971q.563 1.438.625 2.938l-1.125.25q-.312-1.875-.625-2.938zm4.5.188q-.187 1.562-.625 2.812l-1.062-.25q.437-1.438.625-3.063l1.25.188q.25.25-.188.313zm-.187-4.438q-1.438-1.875-2.313-2.563-.562 1.25-1.312 2.188h3v1.188h-1.5v1.437h2.437v1.188h-2.437v4.562l2.5-.5.25 1.063-5.563 1.25q-.062.437-.312.187l-.375-1.438 2.437-.375v-4.75h-2.25v-1.187h2.25v-1.438h-1.187l-.813.875-.687-1.187q2-2.125 3-4.75l1.312.25q.25.25-.187.313l-.063.125q1.25.812 2.563 2.312zm3.812 3.063v2.562h1.375v-2.563zm-1.062 4.687v-5.688h3.5v5.313h-1.063v-.75H54.16v1.125zm-.125-8.375h3.875v1.188h-3.875zm-1.75 10.875v-13.813h7.25v12.938q0 .875-.875.875h-1l-.125-1.188h.687q.25 0 .25-.25v-11.187h-5.125v12.625zM127.92 319.71h3.25v5.563h-1.25v-.438h-2v3h4.813v1.188h-14.125v-1.188h4.625v-3h-2v.5h-1.25v-5.625h3.25v-2.5h-3.938v-1.188h12.563v1.188h-3.938zm-1.25 8.125v-3h-2.188v3zm1.25-6.938v2.75h2v-2.75zm-3.438 0v2.75h2.188v-2.75zm-3.25 0v2.75h2v-2.75zm3.25-1.187h2.188v-2.5h-2.188zM122.733 332.147q1.875 1.438 2.688 2.313l-.876.875q-1.374-1.438-2.374-2.25-.75 1.5-1.688 2.562h3.438v1.188h-1.563v1.25h2v1.187h-2v3.938q.938-.188 2-.563v.938q-2.125.812-4.75 1.437-.25.563-.438.063l-.374-1.188q1.124-.125 2.312-.438v-4.187h-1.938v-1.188h1.938v-1.25h-1.5l-.438.438-.874-.875q2.312-2.313 3.437-5.188l1.313.563q.187.063-.313.375zm5.063.563q-.876 3.562-2.313 5.625l-1.125-.75q1.813-2.375 2.438-5.75l1.187.5q.188.062-.188.375zm4.312 5.812q-2.25-2.125-3.188-6.375l1.063-.375q.938 3.813 3.063 5.688zm-6.5.438h6.063v6.25h-1.25v-.625h-3.563v.937h-1.25zm1.25 4.437h3.563v-3.25h-3.563zm-2.563-3.313q-.25 1.125-.812 2.25l-.813-.437q.438-1.063.688-2.125zm-4.5 2.688q-.25-1.063-.874-2.25l.937-.438q.625 1 .938 2.313z" style="text-decoration-line:none;text-indent:0;text-transform:none" transform="translate(-7.95 -264.004)"/>
<path d="m103.394 275.768-13.365-10.514 2.29 6.306H73.75v8.416h18.57l-2.29 6.306z" stroke="#00f" stroke-linejoin="round" stroke-miterlimit="100" stroke-width="1.5" style="isolation:auto;mix-blend-mode:normal;text-decoration-color:#000;text-decoration-line:none;text-decoration-style:solid;text-indent:0;text-transform:none;white-space:normal" transform="translate(-7.95 -264.004)"/>
</g>
</g>
</svg>
