<svg width="195.122" height="133.437" xmlns="http://www.w3.org/2000/svg">
<g color="#000">
<path d="m132.485 238.237-3.712.13a.323.323 0 0 0-.024 0l-3.517.387a.323.323 0 0 0-.026.006l-3.198.629a.323.323 0 0 0-.032.008l-2.758.851a.323.323 0 0 0-.043.016l-2.215 1.045a.323.323 0 0 0-.057.036l-1.585 1.201a.323.323 0 0 0-.072.077l-.887 1.317a.323.323 0 0 0-.053.146l-.145 1.384a.323.323 0 0 0-.001.022l-.209 6.464-.208 6.465-.207 6.465-.207 6.465-.209 6.465-.207 6.464-.207 6.466-.209 6.464-.207 6.465-.023.716-.208 6.464-.207 6.466-.209 6.464-.207 6.465-.207 6.464-.208 6.465-.208 6.465-.207 6.465-.08 2.517a.323.323 0 0 0 .012.103l.548 1.816a.323.323 0 0 0 .044.092l1.235 1.761a.323.323 0 0 0 .053.058l1.88 1.637a.323.323 0 0 0 .049.036l2.46 1.446a.323.323 0 0 0 .042.02l2.948 1.197a.323.323 0 0 0 .038.012l3.317.892a.323.323 0 0 0 .035.008l3.555.552a.323.323 0 0 0 .033.003l3.649.187a.323.323 0 0 0 .033 0l3.59-.187a.323.323 0 0 0 .035-.004l3.385-.55a.323.323 0 0 0 .039-.01l3.04-.893a.323.323 0 0 0 .045-.016l2.574-1.196a.323.323 0 0 0 .053-.03l2.01-1.447a.323.323 0 0 0 .06-.054l1.37-1.639a.323.323 0 0 0 .053-.09l.686-1.76a.323.323 0 0 0 .022-.1l.385-6.456.385-6.455.387-6.457.385-6.457.387-6.457.385-6.456.387-6.457.385-6.457.164-2.754a.323.323 0 0 0 .001-.018l.387-6.456.385-6.457.385-6.455.387-6.457.385-6.457.386-6.456.386-6.457.386-6.457.386-6.457.06-1.018-.315-.019.316-.012-.053-1.397a.323.323 0 0 0-.044-.15l-.805-1.383a.323.323 0 0 0-.068-.08l-1.515-1.317a.323.323 0 0 0-.056-.038l-2.157-1.203a.323.323 0 0 0-.042-.018l-2.714-1.045a.323.323 0 0 0-.031-.01l-3.166-.852a.323.323 0 0 0-.027-.006l-3.496-.63a.323.323 0 0 0-.024-.005l-3.702-.386a.323.323 0 0 0-.021 0l-3.775-.13a.323.323 0 0 0-.023 0z" style="isolation:auto;mix-blend-mode:normal;text-decoration-color:#000;text-decoration-line:none;text-decoration-style:solid;text-indent:0;text-transform:none;white-space:normal" transform="translate(40.418 -237.737)"/>
<path d="m132.497 238.884 3.752.129 3.679.384 3.471.624 3.136.844 2.677 1.03 2.108 1.174 1.45 1.26.738 1.266.047 1.23-.643 1.224-1.385 1.197-2.102 1.086-2.739.908-3.26.683-3.646.423-3.878.142-3.95-.142-3.852-.423-3.595-.685-3.188-.912-2.652-1.1-2.008-1.229-1.289-1.284-.555-1.264.128-1.216.812-1.204 1.515-1.15 2.163-1.02 2.72-.84 3.167-.623 3.491-.383 3.688-.129z" fill="#fb6363" style="isolation:auto;mix-blend-mode:normal;text-decoration-color:#000;text-decoration-line:none;text-decoration-style:solid;text-indent:0;text-transform:none;white-space:normal" transform="translate(40.418 -237.737)"/>
<path d="m114.76 246.939.04.09a.323.323 0 0 0 .067.098l1.36 1.356a.323.323 0 0 0 .059.046l2.063 1.262a.323.323 0 0 0 .044.023l2.692 1.115a.323.323 0 0 0 .036.013l3.22.922a.323.323 0 0 0 .029.006l3.62.69a.323.323 0 0 0 .026.006l3.877.425a.323.323 0 0 0 .024 0l3.973.145a.323.323 0 0 0 .023 0l3.903-.145a.323.323 0 0 0 .026 0l3.673-.425a.323.323 0 0 0 .03-.006l3.293-.69a.323.323 0 0 0 .035-.009l2.78-.922a.323.323 0 0 0 .046-.02l2.16-1.116a.323.323 0 0 0 .062-.042l1.46-1.261a.323.323 0 0 0 .075-.095l.013-.024-.358 5.974-.385 6.456-.387 6.456-.385 6.457-.387 6.457-.385 6.457-.385 6.456-.386 6.457-.382 6.397-.652 1.473-1.347 1.399-2.024 1.26-2.626 1.053-3.124.79-3.49.492-3.711.167-3.775-.167-3.68-.491-1.718-.397-1.713-.396-1.525-.532-1.516-.527-1.27-.64-1.258-.635-1.912-1.429-1.233-1.503-.54-1.515.022-.654.207-6.465.207-6.464.209-6.465.207-6.465.207-6.465.209-6.465.207-6.464.208-6.465.162-5.038z" fill="#fb6363" style="isolation:auto;mix-blend-mode:normal;text-decoration-color:#000;text-decoration-line:none;text-decoration-style:solid;text-indent:0;text-transform:none;white-space:normal" transform="translate(40.418 -237.737)"/>
<path d="m112.859 306.12.005.014a.323.323 0 0 0 .056.096l1.293 1.578a.323.323 0 0 0 .057.054l1.967 1.468a.323.323 0 0 0 .048.03l1.284.647 1.287.65a.323.323 0 0 0 .039.017l1.537.535 1.54.536a.323.323 0 0 0 .034.01l1.73.4 1.734.4a.323.323 0 0 0 .03.006l3.71.495a.323.323 0 0 0 .028.003l3.803.168a.323.323 0 0 0 .03 0l3.739-.168a.323.323 0 0 0 .03-.003l3.523-.496a.323.323 0 0 0 .035-.006l3.162-.801a.323.323 0 0 0 .04-.013l2.673-1.072a.323.323 0 0 0 .05-.025l2.084-1.298a.323.323 0 0 0 .062-.05l1.413-1.467a.323.323 0 0 0 .037-.046l-.06.996-.385 6.457-.386 6.455-.386 6.457-.386 6.457-.386 6.456-.386 6.457-.385 6.457-.383 6.405-.648 1.665-1.31 1.565-1.953 1.405-2.526 1.172-2.996.88-3.348.546-3.555.185-3.614-.185-3.522-.547-3.282-.883-2.907-1.178-2.414-1.42-1.83-1.59-1.18-1.687-.518-1.716.079-2.463.208-6.465.207-6.465.209-6.465.207-6.465.207-6.463.209-6.466.207-6.464.153-4.755z" fill="#5f5fff" style="isolation:auto;mix-blend-mode:normal;text-decoration-color:#000;text-decoration-line:none;text-decoration-style:solid;text-indent:0;text-transform:none;white-space:normal" transform="translate(40.418 -237.737)"/>
</g>
<path d="m23.885 47.431-3.46 1.026-4.45 1.69-3.983 1.916-3.44 2.116-2.828 2.285-2.159 2.419-1.433 2.513-.662 2.567.132 2.572.945 2.532.584.81 1.174 1.63 2.551 2.305 3.32 2.114 4.034 1.88 4.667 1.602 5.22 1.29 1.717.286 2.078.348 1.873.312 1.968.19 1.43.139 1.348.13 1.255.122.752.024 5.457.172 6.286-.188 6.015-.55.213-.02-.001-.03-.001-.014-.01-.252-.012-.297-.012-.297-.002-.05-.01-.248-.012-.297-.012-.298-.012-.297-.012-.299-.012-.297-.012-.298-.012-.298-.012-.299-.012-.298-.012-.299-.012-.298-.012-.3v-.018l-.012-.28-.012-.3-.002-.044-.01-.254-.004-.096-.008-.204-.012-.3-.004-.086-.008-.213-.012-.3-.012-.3-.012-.3-.012-.3-.012-.3-.012-.301-.012-.3-.012-.301-.012-.3-.013-.302 1.017.348.998.316.984.29.982.29.98.289.716.21.262.078.274.08.704.208.955.264.743.187.006.002.033.008.144.037.925.233.312.078.612.154.735.186.186.047.92.232.898.214.024.005.83.177.852.181.85.18.85.181.846.18.826.17.764.132.761.133.76.132.757.131.756.132.743.127.662.091.66.092.66.09.657.092.656.09.652.091-.634.78-.636.78-.638.781-.637.783-.64.783-.64.785-.718.75-.731.747-.732.748-.732.748-.733.75-.735.75-.796.713-.815.705-.815.704-.817.705-.817.706-.767.663-.05.044-.86.672-.788.588-.092.069-.881.656-.881.658-.882.657-.42.313-.337.251-.125.094-.91.626-.929.603-.93.602-.854.554-.075.049-.504.326-.426.276-.931.603-.945.576-.96.543-.012-.288-.011-.29-.011-.289-.01-.216-.002-.073-.012-.289-.011-.289-.008-.188-.004-.102-.012-.29-.012-.289-.011-.279v-.011l-.013-.29-.011-.29-.01-.23-.002-.06-.012-.29-.011-.29-.012-.292-.012-.29-.011-.291-.012-.291-.012-.292-.011-.29-.012-.292-.01-.242-.003-.05-.011-.291-.012-.292-.01-.238-.002-.053-.012-.293-.011-.292v-.003l-.013-.289-.011-.292-.01-.268-.002-.025-.011-.292-1.033.097-4.134.388-1.017.095-6.241.193-.151-.005h-.016l-4.121-.134-1.879-.062-5.397-.536-.04-.005-.044-.004-.478-.048-.473-.08-.814-.14-2.592-.444-1.752-.3-5.185-1.316-4.639-1.636-4.009-1.916-3.302-2.157-2.538-2.35-1.752-2.492-.944-2.583m-.715-9.127.023.288.022.287.023.286.022.287.022.286.023.287.022.287.023.285.022.287.022.286.023.286.022.285.022.286.023.285.023.286.022.285.022.285.022.285.023.285.022.285.022.285.022.284.023.285.022.284.023.284.022.284.022.284.022.283.022.284.023.284.022.284.022.283m64.385-21.343 1.862.35 4.641 1.228 4.222 1.502 3.736 1.754-.005-.273-.006-.273-.005-.274-.006-.273-.005-.273-.006-.274-.005-.273-.006-.274-.005-.274-.006-.274-.006-.273-.005-.275-.006-.274-.005-.275-.006-.274-.005-.274-.006-.275-.006-.275-.005-.275-.006-.275-.005-.275-.006-.275-.006-.276-.005-.275-.006-.276-.005-.276-.006-.276-.006-.275-.005-.276-.006-.277-.005-.276-.006-.276-3.76-1.717-4.246-1.47-4.67-1.203-2.034-.373M3.13 69.877l1.12-2.027 2.14-2.47 2.805-2.332 3.414-2.16 3.954-1.957 4.418-1.727 3.592-1.094" fill="none" stroke="#00f" stroke-linejoin="round" stroke-width="1.94"/>
<path d="m62.194 117.658-.06.066m-.002-5.53-.174.19m-2.128-67.74-.863-.102m3.105 62.14-.19.208-.101.11m.236-5.873-.414.445m-.055-46.473-.029.05m.629 67.992-1.97 1.443m1.066-51.397-.165-.081m.323-23.916-.074.129m-.418 18.314-.252-.122-.001-.001m.6-24.278-.122.208m.097 29.567.109.083m-.773-11.057-.253-.12-.093-.045m1.437-.89-1.412 1.366m.867-25.122-.144.241-.03.048m-.052 29.853.167.127m-.837-11.103-.254-.12-.189-.088m1.84-1.122-1.557 1.482m.914-25.38-.146.24-.08.131m-1.279 82.023.246.135.237.13m.586-52.145.224.168.004.002m-.908-11.15-.563-.26m1.538-25.389-.148.239-.134.216m-1.528 82.745.551.3m.602-52.61.226.167.066.05M59.434 44.93l-.67-.307m1.93-25.747-.343.54m-.547 30.732.227.166.132.096m-.74-6.096.229.164.2.143m-.86 64.205-.689-.24m.73-70.157.502.356m-1.06 64.752c-.264-.09-.527-.182-.79-.273m1.307 4.994.158.055m-.68-5.378.264.093.24.085m-.43-70.608.255.116.035.016m-.81-6.11.624.277m-1.16-6.306.96.42m-4.172 60.764.182-.056.029-.008m0 .014-.028-.006m-.187-5.372-.711-.14m1.135-5.155-2.09-.409m-.698-17.586 2.295.445m-3.441-6.246 2.636.506m-7.787 47.86h-3.76M41.006 78.6l-.262-.025m-6.652-18.875.687-.2m1.11 17.455-1.63.521m-.501-23.383c.437-.124.874-.25 1.31-.375m1.142 17.6-1.876.586m1.939-16.864-1.766-.348m-.502-.67 1.472-.248m-2.059-5.333 2.108-.59m-1.564 51.06.219-.112m-.537-5.206.549-.273m.657 16.47-.247.133-.23.123m-1.109-32.943 1.057-.498m.568 27.804-.586.31m-.061 10.432.217-.178.023-.02m-1.278-43.46 1.196-.552m-.351 38.914.218-.176.086-.069m.215 5.772-1.442-1.02m.733-9.845.22-.174.15-.12m.02 5.771-1.604-1.115m.476-48.75.983-.434m-.415 39.429.376-.293m-.14 5.732c-.582-.4-1.167-.797-1.75-1.197m.927-48.988.696-.302m-.259 39.598.105-.081.122-.093m-.167 5.588-1.737-1.17m1.26-49.352.367-.155m-.139 6.052-2.54-.875m2.46 39.978-1.725-1.14m1.448-43.885-2.517-.846m2.22 61.22-.017-.02m-.946-27.06-.829-.53m1.47 22.198-.068-.088m-.048-26.689-1.678-1.05m1.472 22.37-.126-.155m-.012-26.872L30.253 70m1.472 22.546-.178-.217-.006-.008m.025-27.057c-.548-.33-1.095-.659-1.643-.987m1.29-4.817-1.623-.956m1.473 22.904-.181-.214-.13-.154m.104-27.434-1.6-.923m1.47 23.086-.378-.441m.147-27.626-1.579-.89m1.472 23.271-.452-.515m.11-5.218-.528-.59m.18-5.192-.606-.667m.257-5.164-.692-.745m.338-5.135c-.26-.276-.523-.55-.783-.827m.414-5.115L27.741 40m.944 12.021L28.679 52M26.943 9.29c.59-.323 1.179-.648 1.77-.971m-.463 26.6-.855-.864m.944 12.11-.028-.099m-.364-5.981-.007.005m.453-28.85-1.916-.935m1.392 18.566c-.274-.271-.549-.54-.823-.812m.944 12.198-.05-.168-.002-.008m-.1-5.945-.21.132m-.146-11.498c-.262-.253-.526-.505-.787-.76m.26.024.129-.128m.554 12.394c-.028-.085-.05-.17-.077-.255m.182-5.908-.24.146-.142.086m.228 5.77.026-.077m-1.021-18.034.2-.196.073-.071m.414 12.53c-.033-.112-.068-.223-.102-.335m.07.229.062-.187m-.206-11.374-1.074-1.013m.2-5.643.867-.825m-.175 13.088c-.045-.14-.088-.282-.132-.422m.115.37.05-.145.053-.153m-.279-11.453c-.354-.324-.705-.65-1.059-.975m.885 6.651-.16-.5m.168.508.142-.403m-.521-5.784-.087-.267-.076-.235m.207.543.096-.264.046-.126m33.406 98.868c-7.148 3.754-15.84 4.67-23.585 2.364l-2.199-.923m3.657-31.619c-1.908-.35-3.753-.816-5.535-1.596m22.183.206c-.767.22-1.519.503-2.296.682m-14.69-5.025c-1.9-.338-3.738-.805-5.52-1.562m5.179-4.22c-1.893-.33-3.724-.791-5.503-1.526m29.05-3.053c-2.61 1.867-5.615 2.99-8.697 3.806m-15.197-5.06c-1.888-.319-3.706-.761-5.483-1.487m29.172-3.05c-2.618 1.855-5.616 2.943-8.697 3.755m-18.984-17.57c-1.553-.447-3.03-.99-4.396-1.872m31.454-1.986c-1.696 1.117-3.51 1.96-5.412 2.665m-22.013-4.831c-1.544-.432-3.012-.962-4.375-1.822m4.003-4.255c-1.535-.415-2.991-.934-4.352-1.771m3.974-4.358c-1.522-.402-2.967-.914-4.326-1.72m3.943-4.464c-1.51-.384-2.943-.884-4.297-1.667m31.998-2.055a27.694 27.694 0 0 1-5.354 2.475m3.601-1.507c-4.918-1.577-10.097-2.089-15.243-2.011m15.776 8c-.47-.135-.94-.267-1.409-.401m-13.982 4.118h-.145m4.162 5.807c-2.744-.074-5.477.015-8.204.336m9.983 5.514c-3.681-.274-7.424-.154-11.065.467m12.618 5.34a45.727 45.727 0 0 0-13.603.588m5.156 4.987c-1.946.093-3.85.5-5.759.854m15.707-.67c-2.036-.185-4.064-.43-6.112-.352m-6.298 6.09c-1.199.25-2.434.359-3.603.733m17.009-.747c-1.282-.244-2.601-.26-3.897-.412m4.8 6.096c-1.06-.256-2.144-.322-3.227-.42m4.104 6.054c-.86-.148-1.707-.384-2.581-.427m9.35-53.879c-7.539-3.723-16.321-4.09-24.553-3.182-3.237.39-6.436 1.148-9.43 2.455m1.1 5.685c-.29.12-.603.195-.863.378m.855 5.703c-.228.055-.415.192-.614.307m30.98 4.935c-.378-.183-.8-.25-1.197-.38m1.659 6.291a4.828 4.828 0 0 0-.992-.365m1.44 6.226c-.267-.11-.523-.253-.795-.348M35.79 54.584l-.186.054-.134.04m2.251 5.181c-.995.17-1.98.354-2.935.689m2.073 5.056c-.794.122-1.543.43-2.313.645m.66 27.309c-.335.133-.699.196-1.014.372m.835 5.072c-.28.07-.531.208-.785.343m33.272-23.493c.158-.997-.445-1.91-.662-2.855m-40.57 4.543c-.26 1.122-.918 2.287-.467 3.441m39.67-5.628c1.782-2.246 2.496-5.312 1.177-7.971m-6.18 6.102c3.307-1.85 6.752-4.778 6.698-8.9.125-1-.486-1.916-.71-2.864M23.735 31.341c-1.583 2.27-.82 5.405 1.33 7.022.408.432.997.627 1.488.946m33.228 34.529c.529-.189.968-.54 1.443-.829m-35.256-1.076c-1.179 2.327-.547 5.185 1.38 6.91 1.617 1.553 3.73 2.392 5.815 3.126m-4.132 8.883c5.021 3.49 11.506 3.868 17.432 3.536 2.863-.207 5.73-.652 8.478-1.489M26.44 90.408c-.52 3.684 2.831 6.55 6.006 7.693 7.055 2.793 15.056 2.383 22.294.505l.267-.084.16-.05m-27.942-4.37c-1.397 3.006.226 6.546 2.976 8.121 5.134 3.342 11.638 3.677 17.586 3.204 6.773-.654 14.056-2.683 18.587-8.087 1.136-1.73 1.783-3.622 1.65-5.706m-40.486 7.902c-1.393 3.067.318 6.62 3.1 8.213 5.174 3.325 11.714 3.667 17.69 3.14 6.659-.691 13.807-2.76 18.219-8.118 1.52-2.284 2.227-5.177 1.045-7.767m-39.742 9.921c-1.394 3.125.414 6.701 3.226 8.31 5.817 3.638 13.129 3.716 19.744 2.853 5.963-1.057 12.348-3.163 16.08-8.23 1.402-2.225 1.969-4.98.871-7.461m-35.893 13.417c.543.24 1.089.474 1.633.711m-5.353-4.254c-1.319 3.043.336 6.563 3.055 8.19 5.533 3.672 12.618 3.864 19.026 3.135 6.236-.951 12.944-3.103 16.83-8.39 1.382-2.23 1.962-4.977.88-7.461m-39.485 9.83c-1.331 3.155.481 6.72 3.286 8.364 5.734 3.664 12.991 3.778 19.546 2.903 6-1.1 12.529-3.28 16.064-8.584 1.315-2.143 1.77-4.842.766-7.207m-21.012 21.564c6.695-.467 13.855-2.145 18.748-7.015 2.443-2.324 3.783-6.053 2.438-9.286M22.773 13.198c-1.724 2.124-1.08 5.365 1.118 6.894 4.234 3.113 9.814 3.486 14.905 3.668 7.791-.013 15.946-1.171 22.664-5.356 2.486-1.721 4.779-4.655 3.941-7.83-1.26-4.391-6.013-6.324-10.03-7.468C46.814.856 37.586.88 29.059 3.257c-3.285 1.036-7.428 2.833-7.725 6.773.362 3.877 4.442 5.57 7.744 6.395 4.11 1.053 8.394 1.186 12.618 1.074m-18.6 1.797c-1.642 2.129-1.033 5.299 1.107 6.85 4.152 3.181 9.72 3.568 14.775 3.786 7.806.01 15.983-1.163 22.69-5.403 2.482-1.746 4.748-4.706 3.92-7.887-.255-.634-.453-1.298-.736-1.918M23.417 25.342c-1.559 2.134-.989 5.235 1.096 6.805 4.065 3.247 9.606 3.666 14.622 3.908 7.904.021 16.263-1.143 22.946-5.634 2.622-1.845 4.868-5.333 3.4-8.55-.143-.366-.262-.745-.414-1.106m-39.712 17.86c5.308 3.42 11.948 3.628 18.066 3.435 6.631-.521 13.611-1.772 19.069-5.805 2.685-1.908 4.682-5.625 3.034-8.813l-.248-.683M24.054 37.278c-1.474 2.244-.818 5.3 1.265 6.926 4.185 3.293 9.843 3.768 14.986 3.935 7.665-.013 15.76-1.277 22.173-5.727 2.654-1.933 4.85-5.525 3.327-8.793-.108-.303-.215-.607-.326-.91M24.37 43.17c-1.392 2.253-.783 5.255 1.262 6.893 4.145 3.364 9.825 3.873 14.975 4.043 7.637 0 15.709-1.295 22.069-5.773 2.645-1.963 4.82-5.569 3.315-8.85-.103-.291-.2-.585-.31-.873m-40.988 10.41c-1.359 2.28-.718 5.254 1.305 6.916 4.362 3.52 10.34 4.015 15.749 4.085 7.332-.11 15.059-1.461 21.124-5.818 2.629-1.992 4.782-5.583 3.314-8.876-.103-.29-.196-.581-.305-.868M25.014 54.819c-1.274 2.241-.722 5.152 1.237 6.813 4.057 3.505 9.787 4.076 14.949 4.252 7.581.016 15.61-1.322 21.864-5.862 2.63-2.03 4.76-5.644 3.291-8.96-.094-.267-.178-.539-.278-.805M25.334 60.57c-1.296 2.339-.595 5.28 1.407 6.986 4.87 3.903 11.535 4.195 17.523 4.146 6.794-.503 14.02-1.847 19.395-6.298 2.668-2.1 4.326-5.933 2.698-9.154l-.056-.168-.028-.074M25.652 66.273c-1.237 2.333-.57 5.232 1.393 6.948 4.82 3.978 11.5 4.303 17.492 4.25 3.278-.248 6.562-.631 9.72-1.576M28.63 8.353c7.865-2.867 16.628-2.872 24.731-1.037l2.17.607m-19.695 4.639c6.602-.968 13.496-.677 19.886 1.325M34.7 18.708c4.366-.775 8.84-.995 13.253-.523m-13.742 6.61c4.997-1.135 10.204-1.225 15.282-.632m-15.638 6.644c1.486-.46 3.031-.618 4.56-.873m6.953-.294c1.766.043 3.544.217 5.29.48m-17.115 6.65c1.19-.327 2.373-.663 3.603-.807m10.544-.443c1.31.131 2.628.194 3.913.497M33.27 42.68c.956-.25 1.903-.545 2.865-.765m13.127-.555c1.102.054 2.174.302 3.255.504M55.47 7.898c.873.37 1.745.74 2.617 1.108m-2.393 4.869 2.32 1m-3.823 38.523.011.003.036.011m-1.409 5.26c.7.157 1.422.228 2.098.476m-21.771 6.678c.459-.193.901-.435 1.37-.601m19.195-.882c.616.099 1.21.255 1.796.469m-.934 5.157c.516.096 1.003.312 1.506.46m-10.312 30.64.14-.013.111-.001m-2.862 5.513c2.058-.283 4.11-.369 6.187-.318m-7.15 5.704c2.83-.54 5.75-.693 8.621-.453M57.81 8.826l1.929 1.256m-1.714 4.739.039.026m.174 5.918.212.143m0 5.752.197.136.178.122m-.166 5.589.532.37m-.37 70.145.153.083.182.097m.366-93.361c.371.41.74.828 1.113 1.236m-.2-.565.422 1.185m.08-.55-.17 1.166m-19.014.514c.16 1.468.376 3.401-.106 4.61-.23-1.492-.428-3.523.06-4.756l.046.146m19.283-.928c-.296.455-.59.91-.884 1.366m.15-.126-1.594 1.346m1.804 4.778c-.537.46-1.073.923-1.609 1.384m1.816 4.688-1.622 1.42m1.828 4.6-1.634 1.457m1.838 4.511-1.645 1.493m1.848 4.426-1.656 1.527m1.856 4.341-1.665 1.562m1.895 21.981c-.49.432-.875 1.002-1.446 1.33m1.309 27.556-2.172 1.514m2.364 3.905-2.181 1.54m2.372 3.833-2.191 1.567m2.38 3.764c-.733.532-1.467 1.062-2.2 1.593m-22.939 2.394c-1.216-.513-2.438-.97-3.447-1.853m26.76 4.675c-4.03 2.302-8.607 3.357-13.208 3.664M41.66 12.626c-4.57.154-9.224-.027-13.595-1.498m28.56 4.56c-7.998 3.277-17.062 4.03-25.537 2.444m27.96 2.433c-1.7 1.049-3.482 1.868-5.37 2.523m.044-.011c-7.178 2.141-14.93 2.716-22.294 1.228m27.837 2.354c-1.697 1.071-3.497 1.899-5.387 2.571m.084-.023c-7.145 2.165-14.865 2.743-22.198 1.22m27.714 2.275c-1.702 1.103-3.498 1.922-5.4 2.618m.122-.034c-7.107 2.19-14.807 2.768-22.103 1.21m22.338 4.817c-7.066 2.215-14.75 2.794-22.007 1.2m27.47 2.121c-1.693 1.14-3.515 1.988-5.42 2.71m.19-.055c-7.029 2.238-14.691 2.817-21.913 1.19m27.35 2.046c-6.57 4.304-14.824 5.226-22.502 4.615-1.536-.059-3.016-.48-4.522-.747m18.555 5.725c-4.942 1.102-10.046 1.419-15.075.781m15.318 5.053c-4.918 1.111-10.005 1.429-15.011.774m24.841.104c-2.505 2.746-6.217 3.918-9.684 4.925m.095-.018c-4.896 1.12-9.964 1.436-14.948.768m15.187 4.968c-4.875 1.127-9.92 1.45-14.885.76m17.503 15.524c-3.02 1.072-6.213 1.509-9.396 1.758m-3.614-.004c-3.06-.223-6.104-.734-8.902-2.044m22.135 5.83c-6.955 2.234-15.027 2.685-21.823-.317m26.199 4.013c-7.192 3.728-15.902 4.639-23.682 2.364l-2.208-.91m26.291 9.37c-7.102 3.78-15.783 4.71-23.489 2.366l-2.191-.935m25.878 3.917c-6.964 3.783-15.53 4.673-23.136 2.478m10.125 6.491c-.322 1.4-.326 3.041-.052 4.467" fill="none" stroke="#000" stroke-linejoin="round" stroke-width=".647"/>
<path d="M137.156 272.396h-1.653l-4.898-9.558v9.558h-1.377v-11.084h2.092l4.459 8.776v-8.776h1.377z" color="#000" fill="#fff" style="text-decoration-line:none;text-indent:0;text-transform:none" transform="translate(40.418 -237.737)"/>
<text x="58.661" y="317.214" color="#000" fill="#464646" font-family="Tahoma" letter-spacing="0" stroke-miterlimit="100000" word-spacing="0" style="line-height:0%;text-decoration-line:none;text-indent:0;text-transform:none" xml:space="preserve" transform="translate(40.418 -237.737)"><tspan x="58.661" y="317.214" font-size="43.577" stroke-linejoin="round" style="line-height:1.25">=</tspan></text>
<path d="M130.416 358.159q-1.206 0-2.055-.246-.84-.253-1.585-.618v-1.846h.104q.73.685 1.653 1.065.923.372 1.779.372 1.22 0 1.846-.506.625-.514.625-1.347 0-.663-.327-1.08-.328-.417-1.042-.618-.514-.149-.938-.245-.425-.097-1.065-.26-.573-.15-1.027-.38-.454-.231-.804-.604-.343-.364-.536-.856-.186-.498-.186-1.146 0-1.347 1.05-2.256 1.049-.915 2.68-.915.93 0 1.756.186.834.186 1.54.529v1.764h-.11q-.53-.484-1.356-.841-.826-.365-1.734-.365-1.027 0-1.66.484-.633.476-.633 1.258 0 .707.372 1.124t1.08.61q.469.127 1.146.29.678.157 1.124.29 1.147.35 1.675 1.058.529.707.529 1.742 0 .647-.268 1.28-.26.633-.737 1.072-.536.484-1.214.744-.67.261-1.682.261z" color="#000" fill="#fff" style="text-decoration-line:none;text-indent:0;text-transform:none" transform="translate(40.418 -237.737)"/>
</svg>
