<svg width="211.509" height="125.598" xmlns="http://www.w3.org/2000/svg">
<g color="#000">
<path d="M-8.993 349.58v8.64" fill="none" stroke="#555" stroke-width="2" style="isolation:auto;mix-blend-mode:normal" transform="translate(37.183 -261.656)"/>
<path d="M-4.364 345.342v17.117" fill="none" stroke="#555" style="isolation:auto;mix-blend-mode:normal" transform="translate(37.183 -261.656)"/>
<path d="M6.638 356.814c-.282 0-.639.27-.723.489-.084.219-.063.35-.063.413v1.901H3.95c-.063 0-.194-.02-.413.064-.219.084-.49.442-.49.724s.271.639.49.723c.22.084.35.064.413.064h1.902v1.901c0 .063-.021.194.063.413.084.219.44.49.723.49.282 0 .64-.271.724-.49.085-.219.062-.35.062-.413v-1.901h1.894c.063 0 .194.02.413-.064.219-.084.49-.44.49-.723s-.271-.64-.49-.724c-.22-.085-.35-.064-.413-.064H7.424v-1.901c0-.063.023-.194-.062-.413-.084-.22-.442-.489-.724-.489zM-22.012 359.618h-1.902c-.063 0-.194-.021-.413.063-.219.085-.49.443-.49.725s.271.639.49.723c.22.084.35.063.413.063h5.368c.063 0 .194.021.413-.063.219-.084.49-.441.49-.723s-.271-.64-.49-.725c-.22-.084-.35-.063-.413-.063h-1.894z" fill="red" style="isolation:auto;mix-blend-mode:normal;text-decoration-color:#000;text-decoration-line:none;text-decoration-style:solid;text-indent:0;text-transform:none;white-space:normal" transform="translate(37.183 -261.656)"/>
<path d="m-3.727 366.849 9.062 1.082-3.262 1.524 4.486 4.486-3.194 3.194-4.486-4.486-1.524 3.263z" fill="#5f5f5f" style="isolation:auto;mix-blend-mode:normal;text-decoration-color:#000;text-decoration-line:none;text-decoration-style:solid;text-indent:0;text-transform:none;white-space:normal" transform="translate(37.183 -261.656)"/>
<g transform="translate(37.183 -261.656)">
<path d="M-4.24 353.901h26.566v-45.1h-58.51v45.1H-8.68" fill="none" stroke="#555" style="isolation:auto;mix-blend-mode:normal"/>
<circle cx="-6.929" cy="286.419" r="11.355" fill="#fff100" stroke="#ff7300" style="isolation:auto;mix-blend-mode:normal"/>
<path d="m-5.47 296.038 4.068-6.253v-3.333l-1.399.021c-.018-.228.005-.478-.014-.7a35.433 35.433 0 0 0-.14-1.417c-.046-.36-.093-.575-.14-.602-.046-.027-.092.132-.139.45-.046.316-.093.787-.14 1.324-.046.537-.092 1.137-.139 1.685a31.665 31.665 0 0 1-.14 1.389c-.046.345-.093.542-.14.55-.046.01-.092-.168-.139-.5a28.352 28.352 0 0 1-.14-1.357c-.046-.543-.092-1.143-.139-1.686a28.275 28.275 0 0 0-.14-1.357c-.046-.332-.093-.51-.14-.5-.046.008-.092.204-.139.55-.046.347-.093.84-.14 1.389-.046.548-.093 1.148-.14 1.685a25.2 25.2 0 0 1-.139 1.325c-.046.316-.093.477-.14.45-.046-.028-.092-.242-.139-.602-.046-.36-.093-.865-.14-1.419-.046-.553-.093-1.151-.14-1.682-.046-.53-.092-.99-.139-1.291-.046-.301-.093-.443-.14-.398-.046.046-.093.277-.139.652-.047.374-.093.888-.14 1.446-.046.557-.093 1.155-.14 1.678-.046.523-.092.97-.139 1.256-.046.286-.093.41-.14.346-.046-.064-.093-.313-.14-.7a44.35 44.35 0 0 1-.139-1.474c-.046-.56-.093-1.156-.14-1.672-.046-.516-.092-.95-.139-1.22-.046-.27-.093-.374-.14-.293-.046.082-.093.348-.14.749-.046.4-.092.934-.139 1.498-.046.565-.093 1.157-.14 1.665-.046.508-.093.929-.14 1.182-.046.254-.092.34-.139.24-.046-.1-.093-.382-.14-.796a55.393 55.393 0 0 1-.139-1.522c-.047-.567-.093-1.156-.14-1.655-.046-.5-.093-.907-.14-1.144-.046-.237-.092-.304-.139-.187-.046.117-.093.417-.14.843-.046.426-.092.975-.139 1.544-.047.57-.093 1.154-.14 1.645-.046.49-.093.883-.14 1.104-.046.22-.092.268-.139.133-.046-.135-.093-.45-.14-.889a69.762 69.762 0 0 1-.14-1.565c-.046-.57-.092-1.15-.139-1.631-.046-.481-.093-.86-.14-1.063-.046-.204-.092-.233-.139-.08-.046.152-.093.484-.14.933-.046.45-.093 1.013-.14 1.584-.046.572-.092 1.147-.139 1.618-.046.47-.093.834-.14 1.02-.046.187-.093.197-.14.027-.046-.17-.092-.517-.139-.977a89.1 89.1 0 0 1-.14-1.602h-1.402v3.333l4.069 6.253" fill="none" stroke="#ff7300" style="isolation:auto;mix-blend-mode:normal"/>
</g>
<path d="M-2.924 314.732h-8.009l-1.355-2.655-1.7-1.622-1.012-11.83-2.537-1.268v-3.392H3.68v3.392l-2.537 1.269L.13 310.455l-1.7 1.622z" fill="#c9c7c7" stroke="#717171" stroke-linejoin="round" stroke-miterlimit="100" stroke-width="1.5" style="isolation:auto;mix-blend-mode:normal" transform="translate(37.183 -261.656)"/>
<g fill="none" stroke-linejoin="round" stroke-miterlimit="100000">
<path d="M-4.625 301.924h3.071" stroke="#828282" style="isolation:auto;mix-blend-mode:normal" transform="translate(37.183 -261.656)"/>
<path d="M-12.304 301.924h3.072" stroke="#ededed" style="isolation:auto;mix-blend-mode:normal" transform="translate(37.183 -261.656)"/>
<path d="M-4.625 305.396h3.071" stroke="#828282" style="isolation:auto;mix-blend-mode:normal" transform="translate(37.183 -261.656)"/>
<path d="M-12.304 305.396h3.072" stroke="#ededed" style="isolation:auto;mix-blend-mode:normal" transform="translate(37.183 -261.656)"/>
<path d="M-4.625 308.869h3.071" stroke="#828282" style="isolation:auto;mix-blend-mode:normal" transform="translate(37.183 -261.656)"/>
<path d="M-12.304 308.869h3.072" stroke="#ededed" style="isolation:auto;mix-blend-mode:normal" transform="translate(37.183 -261.656)"/>
</g>
<path d="M-13.304 298.451h12.75" fill="#afafaf" stroke="#717171" stroke-linejoin="round" stroke-miterlimit="100000" style="isolation:auto;mix-blend-mode:normal" transform="translate(37.183 -261.656)"/>
<g fill="#5f5f5f">
<path d="M22.692 384.442q-.062 2.313-2.062 2.313h-4.875q-1.125 0-1.125-1.063v-1.188h-3.25v1.063h-1.063v-6.125h10.188v5.063H15.88v.562q0 .5.437.5h4.125q.813 0 .875-1.375zm-11.312-.938h3.25v-1.062h-3.25zm0-2.062h3.25v-1h-3.25zm4.5 2.063h3.562v-1.063H15.88zm0-2.063h3.562v-1H15.88zm-5.25-4.375v-.75h3.437v.75zm3.437 1.5H10.63v-.75h3.437zm2.563 0v-.75h3.625v.75zm0-1.5v-.75h3.625v.75zm4.312-3.313h-5v1h6.25v3h-1.25v-2.25h-5v3.563h-1.25v-3.563H9.88v2.5H8.63v-3.25h6.062v-1h-5v-1h11.25zM27.38 381.692q-.688 2.188-1.938 4.438.063.687-.25.375l-1.187-1.125q1.312-2 2.312-4.563zm4.937 1.625q-.5 1.438-1.625 2.875l-1.062-.875q1.062-1.313 1.625-2.938l1.25.625q.25.25-.188.313zm5.313 2.625q-1.375-1.438-2.313-3l1.125-.688q1.188 1.813 2.125 2.563zm-5.813-6.563v1.313h4.375v-1.313zm0-2.25v1.25h4.375v-1.25zm1.688 4.75h-2.75v-5.937h2.187l.125-1.625h-3.5v7.25q0 2.938-1.75 5.188l-1-1.125q1.5-1.875 1.5-4.5v-8h9.875v1.187h-3.625l-.437 1.625h3.125v5.938h-2.5v3.812q0 1-1 1H32.63l-.25-1.188h.812q.313 0 .313-.375zm-8.25-5.375q1.312.625 2.25 1.625l-.938 1.313q-.937-1.063-2.125-1.688zm1.75-.687q-.938-1-2-1.625l.75-1.25q1.25.563 2.062 1.563z" style="isolation:auto;mix-blend-mode:normal;text-decoration-line:none;text-indent:0;text-transform:none" transform="translate(37.183 -261.656)"/>
<text x="-15.775" y="334.971" font-family="Tahoma" letter-spacing="0" stroke-linejoin="round" stroke-miterlimit="100" stroke-width="10" word-spacing="0" style="isolation:auto;line-height:0%;mix-blend-mode:normal;text-decoration-line:none;text-indent:0;text-transform:none" xml:space="preserve" transform="translate(37.183 -261.656)"><tspan x="-15.775" y="334.971" font-size="12.96" style="isolation:auto;line-height:1.25;mix-blend-mode:normal">(A)</tspan></text>
</g>
<g fill="none" transform="translate(37.183 -261.656)">
<g stroke="#555">
<path d="M142.007 349.58v8.64" stroke-width="2" style="isolation:auto;mix-blend-mode:normal"/>
<path d="M146.636 345.342v17.117M146.698 353.901h26.628v-45.1h-58.51v45.1h27.504" style="isolation:auto;mix-blend-mode:normal"/>
</g>
<circle cx="130.071" cy="286.419" r="11.355" stroke="#717171" stroke-linejoin="round" stroke-miterlimit="100" style="isolation:auto;mix-blend-mode:normal"/>
<path d="m131.529 296.038 4.069-6.253v-3.333l-1.399.021c-.018-.228.005-.478-.014-.7a35.433 35.433 0 0 0-.14-1.417c-.046-.36-.093-.575-.14-.602-.046-.027-.092.132-.139.45-.046.316-.093.787-.14 1.324-.046.537-.092 1.137-.139 1.685a31.665 31.665 0 0 1-.14 1.389c-.046.345-.093.542-.14.55-.046.01-.092-.168-.139-.5a28.352 28.352 0 0 1-.14-1.357c-.046-.543-.093-1.143-.14-1.686a28.275 28.275 0 0 0-.139-1.357c-.046-.332-.093-.51-.14-.5-.046.008-.092.204-.139.55-.046.347-.093.84-.14 1.389-.046.548-.093 1.148-.14 1.685a25.2 25.2 0 0 1-.139 1.325c-.046.316-.093.477-.14.45-.046-.028-.093-.242-.139-.602-.047-.36-.093-.865-.14-1.419-.046-.553-.093-1.151-.14-1.682-.046-.53-.092-.99-.139-1.291-.046-.301-.093-.443-.14-.398-.046.046-.093.277-.14.652-.046.374-.092.888-.139 1.446-.046.557-.093 1.155-.14 1.678-.046.523-.092.97-.139 1.256-.046.286-.093.41-.14.346-.046-.064-.093-.313-.14-.7a44.35 44.35 0 0 1-.139-1.474c-.046-.56-.093-1.156-.14-1.672-.046-.516-.093-.95-.14-1.22-.046-.27-.092-.374-.139-.293-.046.082-.093.348-.14.749-.046.4-.092.934-.139 1.498-.046.565-.093 1.157-.14 1.665-.046.508-.093.929-.14 1.182-.046.254-.092.34-.139.24-.046-.1-.093-.382-.14-.796a55.393 55.393 0 0 1-.139-1.522c-.047-.567-.093-1.156-.14-1.655-.046-.5-.093-.907-.14-1.144-.046-.237-.092-.304-.139-.187-.046.117-.093.417-.14.843-.046.426-.093.975-.14 1.544-.046.57-.092 1.154-.139 1.645-.046.49-.093.883-.14 1.104-.046.22-.092.268-.139.133-.046-.135-.093-.45-.14-.889a69.762 69.762 0 0 1-.14-1.565c-.046-.57-.092-1.15-.139-1.631-.046-.481-.093-.86-.14-1.063-.046-.204-.093-.233-.14-.08-.046.152-.092.484-.139.933-.046.45-.093 1.013-.14 1.584-.046.572-.092 1.147-.139 1.618-.046.47-.093.834-.14 1.02-.046.187-.093.197-.14.027-.046-.17-.092-.517-.139-.977a89.1 89.1 0 0 1-.14-1.602h-1.402v3.333l4.069 6.253" stroke="#ff7300" style="isolation:auto;mix-blend-mode:normal"/>
</g>
<path d="M134.076 314.732h-8.008l-1.356-2.655-1.7-1.622-1.011-11.83-2.538-1.268v-3.392h21.217v3.392l-2.537 1.269-1.012 11.829-1.7 1.622z" fill="#c9c7c7" stroke="#717171" stroke-linejoin="round" stroke-miterlimit="100" stroke-width="1.5" style="isolation:auto;mix-blend-mode:normal" transform="translate(37.183 -261.656)"/>
<g fill="none" stroke-linejoin="round" stroke-miterlimit="100000">
<path d="M132.375 301.924h3.071" stroke="#828282" style="isolation:auto;mix-blend-mode:normal" transform="translate(37.183 -261.656)"/>
<path d="M124.696 301.924h3.071" stroke="#ededed" style="isolation:auto;mix-blend-mode:normal" transform="translate(37.183 -261.656)"/>
<path d="M132.375 305.396h3.071" stroke="#828282" style="isolation:auto;mix-blend-mode:normal" transform="translate(37.183 -261.656)"/>
<path d="M124.696 305.396h3.071" stroke="#ededed" style="isolation:auto;mix-blend-mode:normal" transform="translate(37.183 -261.656)"/>
<path d="M132.375 308.869h3.071" stroke="#828282" style="isolation:auto;mix-blend-mode:normal" transform="translate(37.183 -261.656)"/>
<path d="M124.696 308.869h3.071" stroke="#ededed" style="isolation:auto;mix-blend-mode:normal" transform="translate(37.183 -261.656)"/>
</g>
<g transform="translate(37.183 -261.656)">
<path d="M123.696 298.451h12.75" fill="#afafaf" stroke="#717171" stroke-linejoin="round" stroke-miterlimit="100000" style="isolation:auto;mix-blend-mode:normal"/>
<circle cx="158.071" cy="286.419" r="11.355" fill="none" stroke="#717171" stroke-linejoin="round" stroke-miterlimit="100" style="isolation:auto;mix-blend-mode:normal"/>
<path d="m159.529 296.038 4.069-6.253v-3.333l-1.399.021c-.018-.228.005-.478-.014-.7a35.433 35.433 0 0 0-.14-1.417c-.046-.36-.093-.575-.14-.602-.046-.027-.092.132-.139.45-.046.316-.093.787-.14 1.324-.046.537-.092 1.137-.139 1.685a31.665 31.665 0 0 1-.14 1.389c-.046.345-.093.542-.14.55-.046.01-.092-.168-.139-.5a28.352 28.352 0 0 1-.14-1.357c-.046-.543-.093-1.143-.14-1.686a28.275 28.275 0 0 0-.139-1.357c-.046-.332-.093-.51-.14-.5-.046.008-.092.204-.139.55-.046.347-.093.84-.14 1.389-.046.548-.093 1.148-.14 1.685a25.2 25.2 0 0 1-.139 1.325c-.046.316-.093.477-.14.45-.046-.028-.093-.242-.139-.602-.047-.36-.093-.865-.14-1.419-.046-.553-.093-1.151-.14-1.682-.046-.53-.092-.99-.139-1.291-.046-.301-.093-.443-.14-.398-.046.046-.093.277-.14.652-.046.374-.092.888-.139 1.446-.046.557-.093 1.155-.14 1.678-.046.523-.092.97-.139 1.256-.046.286-.093.41-.14.346-.046-.064-.093-.313-.14-.7a44.35 44.35 0 0 1-.139-1.474c-.046-.56-.093-1.156-.14-1.672-.046-.516-.093-.95-.14-1.22-.046-.27-.092-.374-.139-.293-.046.082-.093.348-.14.749-.046.4-.092.934-.139 1.498-.046.565-.093 1.157-.14 1.665-.046.508-.093.929-.14 1.182-.046.254-.092.34-.139.24-.046-.1-.093-.382-.14-.796a55.393 55.393 0 0 1-.139-1.522c-.047-.567-.093-1.156-.14-1.655-.046-.5-.093-.907-.14-1.144-.046-.237-.092-.304-.139-.187-.046.117-.093.417-.14.843-.046.426-.093.975-.14 1.544-.046.57-.092 1.154-.139 1.645-.046.49-.093.883-.14 1.104-.046.22-.092.268-.139.133-.046-.135-.093-.45-.14-.889a69.762 69.762 0 0 1-.14-1.565c-.046-.57-.092-1.15-.139-1.631-.046-.481-.093-.86-.14-1.063-.046-.204-.093-.233-.14-.08-.046.152-.092.484-.139.933-.046.45-.093 1.013-.14 1.584-.046.572-.092 1.147-.139 1.618-.046.47-.093.834-.14 1.02-.046.187-.093.197-.14.027-.046-.17-.092-.517-.139-.977a89.1 89.1 0 0 1-.14-1.602h-1.402v3.333l4.069 6.253" fill="none" stroke="#ff7300" style="isolation:auto;mix-blend-mode:normal"/>
<path d="M162.076 314.732h-8.008l-1.356-2.655-1.7-1.622-1.011-11.83-2.538-1.268v-3.392h21.217v3.392l-2.537 1.269-1.012 11.829-1.7 1.622z" fill="#c9c7c7" stroke="#717171" stroke-linejoin="round" stroke-miterlimit="100" stroke-width="1.5" style="isolation:auto;mix-blend-mode:normal"/>
</g>
<g fill="none" stroke-linejoin="round" stroke-miterlimit="100000">
<path d="M160.375 301.924h3.071" stroke="#828282" style="isolation:auto;mix-blend-mode:normal" transform="translate(37.183 -261.656)"/>
<path d="M152.696 301.924h3.071" stroke="#ededed" style="isolation:auto;mix-blend-mode:normal" transform="translate(37.183 -261.656)"/>
<path d="M160.375 305.396h3.071" stroke="#828282" style="isolation:auto;mix-blend-mode:normal" transform="translate(37.183 -261.656)"/>
<path d="M152.696 305.396h3.071" stroke="#ededed" style="isolation:auto;mix-blend-mode:normal" transform="translate(37.183 -261.656)"/>
<path d="M160.375 308.869h3.071" stroke="#828282" style="isolation:auto;mix-blend-mode:normal" transform="translate(37.183 -261.656)"/>
<path d="M152.696 308.869h3.071" stroke="#ededed" style="isolation:auto;mix-blend-mode:normal" transform="translate(37.183 -261.656)"/>
</g>
<path d="M151.696 298.451h12.75" fill="#afafaf" stroke="#717171" stroke-linejoin="round" stroke-miterlimit="100000" style="isolation:auto;mix-blend-mode:normal" transform="translate(37.183 -261.656)"/>
<text x="135.288" y="334.971" fill="#5f5f5f" font-family="Tahoma" letter-spacing="0" stroke-linejoin="round" stroke-miterlimit="100" stroke-width="10" word-spacing="0" style="isolation:auto;line-height:0%;mix-blend-mode:normal;text-decoration-line:none;text-indent:0;text-transform:none" xml:space="preserve" transform="translate(37.183 -261.656)"><tspan x="135.288" y="334.971" font-size="12.96" style="isolation:auto;line-height:1.25;mix-blend-mode:normal">(C)</tspan></text>
<g fill="none" stroke="#555">
<path d="M61.921 349.58v8.64" stroke-width="2" style="isolation:auto;mix-blend-mode:normal" transform="translate(37.183 -261.656)"/>
<path d="M66.55 345.342v17.117" style="isolation:auto;mix-blend-mode:normal" transform="translate(37.183 -261.656)"/>
<path d="M71.093 349.58v8.64" stroke-width="2" style="isolation:auto;mix-blend-mode:normal" transform="translate(37.183 -261.656)"/>
<path d="M75.722 345.342v17.117M75.71 353.901h22.116v-45.1h-58.51v45.1h22.605" style="isolation:auto;mix-blend-mode:normal" transform="translate(37.183 -261.656)"/>
</g>
<g stroke="#ff7300" transform="translate(37.183 -261.656)">
<path transform="matrix(.824 .16929 -.1695 .82317 -296.691 358.483)" d="m427.577-154.959-9.552-3.634.794 10.19-7.248-7.206-3.42 9.631-3.69-9.53-7.041 7.408.504-10.207-9.445 3.903 4.613-9.12-10.217-.275 7.923-6.455-9.22-4.407 9.863-2.675-6.631-7.776 10.099 1.568-2.895-9.801 8.587 5.54 1.342-10.131 5.592 8.554 5.347-8.71 1.629 10.09 8.427-5.783-2.616 9.88 10.05-1.855-6.407 7.962 9.935 2.393-9.092 4.668 8.104 6.227-10.205.566z" fill="#fff100" stroke-width="1.189" style="isolation:auto;mix-blend-mode:normal"/>
<circle cx="68.764" cy="286.419" r="11.355" fill="#fff100" style="isolation:auto;mix-blend-mode:normal"/>
<path d="m70.222 296.038 4.069-6.253v-3.333l-1.399.021c-.018-.228.005-.478-.014-.7a35.433 35.433 0 0 0-.14-1.417c-.046-.36-.093-.575-.14-.602-.046-.027-.092.132-.139.45-.046.316-.093.787-.14 1.324-.046.537-.092 1.137-.139 1.685a31.665 31.665 0 0 1-.14 1.389c-.046.345-.093.542-.14.55-.046.01-.092-.168-.139-.5a28.352 28.352 0 0 1-.14-1.357c-.046-.543-.093-1.143-.14-1.686a28.275 28.275 0 0 0-.139-1.357c-.046-.332-.093-.51-.14-.5-.046.008-.092.204-.139.55-.046.347-.093.84-.14 1.389-.046.548-.093 1.148-.14 1.685a25.2 25.2 0 0 1-.139 1.325c-.046.316-.093.477-.14.45-.046-.028-.093-.242-.139-.602-.047-.36-.093-.865-.14-1.419-.046-.553-.093-1.151-.14-1.682-.046-.53-.092-.99-.139-1.291-.046-.301-.093-.443-.14-.398-.046.046-.093.277-.14.652-.046.374-.092.888-.139 1.446-.046.557-.093 1.155-.14 1.678-.046.523-.092.97-.139 1.256-.046.286-.093.41-.14.346-.046-.064-.093-.313-.14-.7a44.35 44.35 0 0 1-.139-1.474c-.046-.56-.093-1.156-.14-1.672-.046-.516-.093-.95-.14-1.22-.046-.27-.092-.374-.139-.293-.046.082-.093.348-.14.749-.046.4-.092.934-.139 1.498-.046.565-.093 1.157-.14 1.665-.046.508-.093.929-.14 1.182-.046.254-.092.34-.139.24-.046-.1-.093-.382-.14-.796a55.393 55.393 0 0 1-.139-1.522c-.047-.567-.093-1.156-.14-1.655-.046-.5-.093-.907-.14-1.144-.046-.237-.092-.304-.139-.187-.046.117-.093.417-.14.843-.046.426-.093.975-.14 1.544-.046.57-.092 1.154-.139 1.645-.046.49-.093.883-.14 1.104-.046.22-.092.268-.139.133-.046-.135-.093-.45-.14-.889a69.762 69.762 0 0 1-.14-1.565c-.046-.57-.092-1.15-.139-1.631-.046-.481-.093-.86-.14-1.063-.046-.204-.093-.233-.139-.08-.047.152-.093.484-.14.933-.046.45-.093 1.013-.14 1.584-.046.572-.092 1.147-.139 1.618-.046.47-.093.834-.14 1.02-.046.187-.093.197-.14.027-.046-.17-.092-.517-.139-.977a89.1 89.1 0 0 1-.14-1.602h-1.402v3.333l4.069 6.253" fill="none" style="isolation:auto;mix-blend-mode:normal"/>
</g>
<path d="M72.769 314.732H64.76l-1.355-2.655-1.7-1.622-1.012-11.83-2.537-1.268v-3.392h21.217v3.392l-2.537 1.269-1.012 11.829-1.7 1.622z" fill="#c9c7c7" stroke="#717171" stroke-linejoin="round" stroke-miterlimit="100" stroke-width="1.5" style="isolation:auto;mix-blend-mode:normal" transform="translate(37.183 -261.656)"/>
<g fill="none" stroke-linejoin="round" stroke-miterlimit="100000">
<path d="M71.068 301.924h3.071" stroke="#828282" style="isolation:auto;mix-blend-mode:normal" transform="translate(37.183 -261.656)"/>
<path d="M63.39 301.924h3.07" stroke="#ededed" style="isolation:auto;mix-blend-mode:normal" transform="translate(37.183 -261.656)"/>
<path d="M71.068 305.396h3.071" stroke="#828282" style="isolation:auto;mix-blend-mode:normal" transform="translate(37.183 -261.656)"/>
<path d="M63.39 305.396h3.07" stroke="#ededed" style="isolation:auto;mix-blend-mode:normal" transform="translate(37.183 -261.656)"/>
<path d="M71.068 308.869h3.071" stroke="#828282" style="isolation:auto;mix-blend-mode:normal" transform="translate(37.183 -261.656)"/>
<path d="M63.39 308.869h3.07" stroke="#ededed" style="isolation:auto;mix-blend-mode:normal" transform="translate(37.183 -261.656)"/>
</g>
<path d="M62.39 298.451h12.75" fill="#afafaf" stroke="#717171" stroke-linejoin="round" stroke-miterlimit="100000" style="isolation:auto;mix-blend-mode:normal" transform="translate(37.183 -261.656)"/>
<text x="59.712" y="334.971" fill="#5f5f5f" font-family="Tahoma" letter-spacing="0" stroke-linejoin="round" stroke-miterlimit="100" stroke-width="10" word-spacing="0" style="isolation:auto;line-height:0%;mix-blend-mode:normal;text-decoration-line:none;text-indent:0;text-transform:none" xml:space="preserve" transform="translate(37.183 -261.656)"><tspan x="59.712" y="334.971" font-size="12.96" style="isolation:auto;line-height:1.25;mix-blend-mode:normal">(B)</tspan></text>
</g>
</svg>
