<svg width="116.514" height="124.807" xmlns="http://www.w3.org/2000/svg">
<defs>
<linearGradient id="a" x1="337.355" x2="337.355" y1="2.9" y2="-7.448" gradientTransform="matrix(1.60809 0 0 1 -511.728 341.872)" gradientUnits="userSpaceOnUse">
<stop stop-color="#555" offset="0"/>
<stop stop-color="#fe9300" offset="1"/>
</linearGradient>
</defs>
<g transform="translate(9.685 -242.052)">
<rect x="-8.185" y="243.552" width="76" height="104.99" rx="19" ry="19" fill="none" stroke="#a1b3ff" stroke-linejoin="round" stroke-miterlimit="100" stroke-width="2"/>
<g color="#000">
<path d="M90.89 312.064h8.64M86.652 307.435h17.117" fill="none" stroke="#555" style="isolation:auto;mix-blend-mode:normal"/>
<path d="M102.745 295.263c-.282 0-.639.27-.723.489-.084.219-.063.35-.063.413v1.901h-1.902c-.063 0-.194-.02-.413.064-.219.084-.49.442-.49.724s.271.639.49.723c.22.084.35.064.413.064h1.902v1.901c0 .063-.021.194.063.413.084.219.441.49.723.49s.64-.271.725-.49c.084-.219.061-.35.061-.413v-1.901h1.894c.063 0 .194.02.413-.064.219-.084.49-.44.49-.723s-.271-.64-.49-.724c-.22-.085-.35-.064-.413-.064h-1.894v-1.901c0-.063.023-.194-.061-.413-.085-.22-.443-.489-.725-.489zM101.959 317.305h-1.902c-.062 0-.194-.021-.413.063-.219.085-.49.443-.49.725s.271.639.49.723c.22.084.35.063.413.063h5.368c.063 0 .194.021.413-.063.22-.084.49-.441.49-.723s-.27-.64-.49-.725c-.219-.084-.35-.063-.413-.063h-1.893z" style="isolation:auto;mix-blend-mode:normal;text-decoration-color:#000;text-decoration-line:none;text-decoration-style:solid;text-indent:0;text-transform:none;white-space:normal"/>
<path d="M45.445 263.776H95.21v43.901m0 4.5v43.546H50.127" fill="none" stroke="#555" style="isolation:auto;mix-blend-mode:normal"/>
<path d="M11.8 263.776H47.83" fill="none" stroke="#555" stroke-width="5" style="isolation:auto;mix-blend-mode:normal"/>
<path d="M29.815 310.27 19.3 296.905l6.306 2.29v-18.57h8.417v18.57l6.306-2.29z" fill="#fff" stroke="#00f" stroke-linejoin="round" stroke-miterlimit="100" stroke-width="1.5" style="isolation:auto;mix-blend-mode:normal;text-decoration-color:#000;text-decoration-line:none;text-decoration-style:solid;text-indent:0;text-transform:none;white-space:normal"/>
<path d="M-3.232 333.514.69 321.881h1.906l3.922 11.633H4.885l-1.055-3.25H-.615l-1.055 3.25zm6.632-4.57-1.796-5.485-1.79 5.485zM5.588 266.022q0 .867-.328 1.531t-.883 1.094q-.656.516-1.406.734-.75.211-1.938.211h-3.336V257.96H.783q1.242 0 1.86.085.625.079 1.195.383.625.336.914.883.29.54.29 1.273 0 .82-.438 1.47-.43.648-1.196 1.015v.062q1.04.282 1.61 1.032.57.742.57 1.859zm-2.156-5.219q0-.422-.14-.726-.142-.313-.454-.493-.375-.21-.836-.257-.46-.047-1.273-.047H-.756v3.406h1.758q.727 0 1.07-.07.344-.078.711-.313.352-.226.5-.594t.149-.906zm.547 5.281q0-.656-.188-1.078-.187-.43-.758-.726-.367-.195-.804-.25-.43-.055-1.227-.055H-.756v4.297H.502q1.016 0 1.602-.094t1.03-.398q.438-.305.641-.688.204-.39.204-1.007z" fill="red" style="font-feature-settings:normal;font-variant-alternates:normal;font-variant-caps:normal;font-variant-ligatures:normal;font-variant-numeric:normal;font-variant-position:normal;isolation:auto;mix-blend-mode:normal;shape-padding:0;text-decoration-color:#000;text-decoration-line:none;text-decoration-style:solid;text-indent:0;text-orientation:mixed;text-transform:none;white-space:normal"/>
<path d="M50.074 366.359v-38.86l-5.128.05c-.068-.52.017-1.087-.051-1.59-.17-1.256-.342-2.403-.512-3.22-.17-.818-.341-1.305-.512-1.367-.17-.061-.341.301-.512 1.02-.17.72-.341 1.79-.512 3.01-.17 1.22-.34 2.58-.511 3.826-.171 1.245-.342 2.367-.512 3.153s-.341 1.232-.512 1.252c-.17.02-.341-.384-.512-1.137-.17-.753-.341-1.85-.512-3.082s-.34-2.596-.511-3.829c-.171-1.232-.342-2.33-.512-3.082-.17-.753-.341-1.158-.512-1.137-.17.021-.341.466-.512 1.252-.17.786-.341 1.908-.512 3.153-.17 1.246-.34 2.607-.511 3.827-.171 1.219-.342 2.29-.512 3.009-.17.718-.342 1.082-.512 1.02-.17-.062-.341-.548-.512-1.366-.17-.82-.341-1.965-.512-3.22-.17-1.257-.34-2.617-.512-3.821s-.34-2.249-.511-2.933c-.171-.684-.342-1.006-.512-.902-.17.103-.341.629-.512 1.479-.17.85-.341 2.018-.512 3.284-.17 1.266-.341 2.622-.512 3.81-.17 1.19-.34 2.205-.511 2.854-.171.648-.342.928-.512.784-.17-.144-.341-.71-.512-1.59-.17-.881-.341-2.071-.512-3.346-.17-1.274-.341-2.625-.512-3.797s-.34-2.158-.512-2.77c-.17-.613-.34-.85-.511-.665-.17.185-.342.79-.512 1.7-.17.91-.341 2.12-.512 3.402-.17 1.282-.341 2.627-.512 3.78-.17 1.154-.34 2.11-.512 2.686-.17.576-.34.77-.511.545-.171-.226-.342-.869-.512-1.808-.17-.94-.341-2.17-.512-3.457-.17-1.287-.341-2.625-.512-3.759-.17-1.134-.341-2.059-.512-2.597-.17-.539-.34-.69-.511-.425-.171.267-.342.947-.512 1.914-.17.968-.341 2.216-.512 3.507-.17 1.292-.341 2.621-.512 3.735-.17 1.113-.341 2.005-.512 2.506-.17.501-.34.61-.511.304-.171-.307-.342-1.024-.512-2.018a99.857 99.857 0 0 1-.512-3.554c-.17-1.296-.341-2.614-.512-3.706-.17-1.091-.341-1.95-.512-2.414-.17-.462-.341-.528-.512-.182-.17.346-.34 1.1-.511 2.12-.171 1.021-.342 2.3-.512 3.598-.17 1.297-.341 2.604-.512 3.673-.17 1.069-.341 1.894-.512 2.318-.17.424-.341.447-.512.061-.17-.386-.34-1.175-.511-2.22-.171-1.046-.342-2.34-.512-3.637H9.556v38.859" fill="none" stroke="url(#a)" style="isolation:auto;mix-blend-mode:normal"/>
<path d="M52.283 355.723a2.21 2.21 0 0 1-2.21 2.21 2.21 2.21 0 0 1-2.21-2.21 2.21 2.21 0 0 1 2.21-2.21 2.21 2.21 0 0 1 2.21 2.21z" fill="#5f5f5f" style="isolation:auto;mix-blend-mode:normal"/>
</g>
</g>
</svg>
