<svg width="213.749" height="81.098" xmlns="http://www.w3.org/2000/svg">
<defs>
<linearGradient id="a" x1="639.855" x2="639.855" y1="-234.945" y2="-247.945" gradientTransform="matrix(0 .74006 -.74839 0 -179.961 -177.053)" gradientUnits="userSpaceOnUse">
<stop stop-color="#555" offset="0"/>
<stop stop-color="#fe9300" offset="1"/>
</linearGradient>
</defs>
<g transform="translate(32.589 -269.62)">
<path d="M55.437 299.414a2.042 2.042 0 0 1-2.04 2.043 2.042 2.042 0 0 1-2.041-2.043c0-1.129.913-2.043 2.04-2.043s2.04.914 2.04 2.043zm10.83-1.654c0 1.129-.914 2.044-2.04 2.044s-2.041-.915-2.041-2.044c0-1.128.913-2.043 2.04-2.043s2.04.915 2.04 2.043zm9.327-5.885a2.042 2.042 0 0 1-2.04 2.044 2.042 2.042 0 0 1-2.041-2.044c0-1.128.913-2.043 2.04-2.043s2.04.915 2.04 2.043zm9.806 3.274a2.042 2.042 0 0 1-2.04 2.043 2.042 2.042 0 0 1-2.041-2.043c0-1.129.914-2.043 2.04-2.043s2.04.914 2.04 2.043zm55.06-1.164a2.042 2.042 0 0 1-2.04 2.044 2.042 2.042 0 0 1-2.04-2.044c0-1.128.914-2.043 2.04-2.043s2.04.915 2.04 2.043zm18.229 2.475a2.042 2.042 0 0 1-2.04 2.044 2.042 2.042 0 0 1-2.041-2.044c0-1.128.914-2.043 2.04-2.043s2.04.915 2.04 2.043zm-11.51 2.122a2.042 2.042 0 0 1-2.041 2.043 2.042 2.042 0 0 1-2.04-2.043c0-1.129.913-2.044 2.04-2.044s2.04.915 2.04 2.044zm-40.306 0a2.042 2.042 0 0 1-2.04 2.043 2.042 2.042 0 0 1-2.04-2.043c0-1.129.913-2.044 2.04-2.044s2.04.915 2.04 2.044zm13.542 3.535a2.042 2.042 0 0 1-2.04 2.044 2.042 2.042 0 0 1-2.04-2.044c0-1.128.913-2.043 2.04-2.043s2.04.915 2.04 2.043zm9.312-7.699c0 1.129-.914 2.043-2.04 2.043s-2.041-.914-2.041-2.043.914-2.043 2.04-2.043 2.04.914 2.04 2.043z" color="#000" fill="#ffedd8" style="isolation:auto;mix-blend-mode:normal"/>
<rect x="-7.448" y="271.12" width="187.108" height="50.656" rx="19" ry="19" fill="none" stroke="#a1b3ff" stroke-linejoin="round" stroke-miterlimit="100" stroke-width="2"/>
<g color="#000">
<g fill="none">
<path d="M-32.089 305.772H7.827l-.037-2.36c.39-.031.813.008 1.19-.023.94-.079 1.798-.157 2.41-.236.612-.078.976-.157 1.022-.235.046-.08-.225-.157-.763-.236a43.338 43.338 0 0 0-2.252-.236c-.913-.078-1.932-.157-2.864-.235a54.387 54.387 0 0 1-2.36-.236c-.587-.078-.921-.157-.936-.235-.016-.079.287-.157.85-.236a48.388 48.388 0 0 1 2.307-.235c.923-.079 1.943-.157 2.865-.236a48.317 48.317 0 0 0 2.307-.235c.563-.079.867-.157.85-.236-.015-.078-.348-.157-.936-.235a54.504 54.504 0 0 0-2.36-.236c-.932-.079-1.95-.157-2.863-.235a43.245 43.245 0 0 1-2.252-.236c-.538-.078-.81-.157-.764-.236.047-.078.41-.157 1.023-.235.612-.079 1.47-.157 2.41-.236.94-.078 1.957-.157 2.859-.235a38.474 38.474 0 0 0 2.195-.236c.511-.078.752-.157.675-.235-.077-.079-.47-.157-1.107-.236a68.153 68.153 0 0 0-2.458-.235c-.947-.079-1.962-.157-2.852-.236-.89-.078-1.65-.157-2.135-.235-.485-.079-.695-.157-.587-.236.108-.079.531-.157 1.19-.235a75.58 75.58 0 0 1 2.504-.236c.954-.079 1.965-.157 2.842-.236.877-.078 1.615-.157 2.073-.235.459-.079.636-.157.498-.236-.139-.078-.591-.157-1.272-.235a84.45 84.45 0 0 0-2.547-.236c-.959-.078-1.966-.157-2.829-.235-.863-.079-1.579-.157-2.01-.236-.43-.078-.576-.157-.407-.235.169-.079.65-.157 1.353-.236a95.23 95.23 0 0 1 2.587-.235c.963-.079 1.964-.157 2.813-.236.848-.079 1.54-.157 1.944-.236.403-.078.516-.157.317-.235-.2-.079-.708-.157-1.432-.236a105.75 105.75 0 0 0-2.625-.235c-.967-.079-1.961-.157-2.794-.236-.834-.078-1.502-.157-1.877-.235-.374-.079-.456-.157-.227-.236.23-.078.767-.157 1.51-.235.745-.079 1.691-.157 2.66-.236.97-.078 1.957-.157 2.774-.235.817-.079 1.46-.157 1.806-.236.346-.079.396-.157.136-.235-.259-.079-.823-.157-1.586-.236-.764-.079-1.722-.157-2.693-.236-.97-.078-1.949-.157-2.748-.235-.8-.078-1.418-.157-1.736-.236-.317-.078-.334-.157-.045-.235.289-.079.88-.157 1.662-.236.782-.078 1.75-.157 2.722-.235v-2.367h-39.915" stroke="url(#a)" style="isolation:auto;mix-blend-mode:normal"/>
<path d="M41.25 299.669v15.59m0-37.622v15.591" stroke="#555" stroke-width="3" style="isolation:auto;mix-blend-mode:normal"/>
<path d="M41.25 312.735v28.926H18.847m-13.913 0h-23.106v-35.78" stroke="#555" style="isolation:auto;mix-blend-mode:normal"/>
</g>
<path d="M58.312 299.414a2.042 2.042 0 0 1-2.04 2.043 2.042 2.042 0 0 1-2.041-2.043c0-1.129.913-2.043 2.04-2.043s2.04.914 2.04 2.043zm10.83-1.654c0 1.129-.914 2.044-2.04 2.044s-2.041-.915-2.041-2.044c0-1.128.913-2.043 2.04-2.043s2.04.915 2.04 2.043zm9.327-5.885a2.042 2.042 0 0 1-2.04 2.044 2.042 2.042 0 0 1-2.041-2.044c0-1.128.913-2.043 2.04-2.043s2.04.915 2.04 2.043zm9.806 3.274a2.042 2.042 0 0 1-2.04 2.043 2.042 2.042 0 0 1-2.041-2.043c0-1.129.914-2.043 2.04-2.043s2.04.914 2.04 2.043zm55.06-1.164a2.042 2.042 0 0 1-2.04 2.044 2.042 2.042 0 0 1-2.04-2.044c0-1.128.914-2.043 2.04-2.043s2.04.915 2.04 2.043zm18.229 2.475a2.042 2.042 0 0 1-2.04 2.044 2.042 2.042 0 0 1-2.041-2.044c0-1.128.914-2.043 2.04-2.043s2.04.915 2.04 2.043zm-11.51 2.122a2.042 2.042 0 0 1-2.041 2.043 2.042 2.042 0 0 1-2.04-2.043c0-1.129.913-2.044 2.04-2.044s2.04.915 2.04 2.044zm-40.306 0a2.042 2.042 0 0 1-2.04 2.043 2.042 2.042 0 0 1-2.04-2.043c0-1.129.913-2.044 2.04-2.044s2.04.915 2.04 2.044zm13.542 3.535a2.042 2.042 0 0 1-2.04 2.044 2.042 2.042 0 0 1-2.04-2.044c0-1.128.913-2.043 2.04-2.043s2.04.915 2.04 2.043zm9.312-7.699c0 1.129-.914 2.043-2.04 2.043s-2.041-.914-2.041-2.043.914-2.043 2.04-2.043 2.04.914 2.04 2.043z" fill="#ffd29c" style="isolation:auto;mix-blend-mode:normal"/>
<g fill="#ff8a00">
<path d="M30.608 305.43a2.042 2.042 0 0 1-2.04 2.043c-1.128 0-2.041-.914-2.041-2.043a2.042 2.042 0 1 1 4.08 0zM36.008 284.82a2.042 2.042 0 0 1-2.04 2.043 2.042 2.042 0 0 1-2.041-2.043c0-1.129.914-2.043 2.04-2.043s2.04.914 2.04 2.043zM30.686 293.184a2.042 2.042 0 0 1-2.04 2.043 2.042 2.042 0 0 1-2.041-2.043c0-1.129.913-2.043 2.04-2.043s2.04.914 2.04 2.043zM23.277 300.391a2.042 2.042 0 0 1-2.04 2.043 2.042 2.042 0 0 1-2.04-2.043c0-1.129.913-2.043 2.04-2.043s2.04.914 2.04 2.043zM40.141 296.719a2.042 2.042 0 0 1-2.04 2.043c-1.127 0-2.04-.914-2.04-2.043a2.042 2.042 0 1 1 4.08 0zM18.661 303.693a2.042 2.042 0 0 1-2.04 2.043c-1.127 0-2.04-.914-2.04-2.043a2.042 2.042 0 1 1 4.08 0zM24.118 290.239a2.042 2.042 0 0 1-2.04 2.043c-1.127 0-2.04-.914-2.04-2.043a2.042 2.042 0 1 1 4.08 0zM19.185 293.322c0 1.129-.913 2.043-2.04 2.043s-2.04-.914-2.04-2.043a2.042 2.042 0 1 1 4.08 0z" style="isolation:auto;mix-blend-mode:normal"/>
</g>
<g fill="none" stroke="#555">
<path d="M4.888 337.34v8.64" stroke-width="2" style="isolation:auto;mix-blend-mode:normal"/>
<path d="M9.518 333.102v17.117" style="isolation:auto;mix-blend-mode:normal"/>
<path d="M14.06 337.34v8.64" stroke-width="2" style="isolation:auto;mix-blend-mode:normal"/>
<path d="M18.69 333.102v17.117" style="isolation:auto;mix-blend-mode:normal"/>
</g>
<path d="M-15.958 305.772a2.21 2.21 0 0 1-2.21 2.21 2.21 2.21 0 0 1-2.21-2.21 2.21 2.21 0 0 1 2.21-2.21 2.21 2.21 0 0 1 2.21 2.21z" fill="#5f5f5f" style="isolation:auto;mix-blend-mode:normal"/>
<path d="M61.187 299.414a2.042 2.042 0 0 1-2.04 2.043 2.042 2.042 0 0 1-2.041-2.043c0-1.129.913-2.043 2.04-2.043s2.04.914 2.04 2.043zm10.83-1.654c0 1.129-.914 2.044-2.04 2.044s-2.041-.915-2.041-2.044c0-1.128.913-2.043 2.04-2.043s2.04.915 2.04 2.043zm9.327-5.885a2.042 2.042 0 0 1-2.04 2.044 2.042 2.042 0 0 1-2.041-2.044c0-1.128.913-2.043 2.04-2.043s2.04.915 2.04 2.043zm9.806 3.274a2.042 2.042 0 0 1-2.04 2.043 2.042 2.042 0 0 1-2.041-2.043c0-1.129.914-2.043 2.04-2.043s2.04.914 2.04 2.043zm55.06-1.164a2.042 2.042 0 0 1-2.04 2.044 2.042 2.042 0 0 1-2.04-2.044c0-1.128.914-2.043 2.04-2.043s2.04.915 2.04 2.043zm18.229 2.475a2.042 2.042 0 0 1-2.04 2.044 2.042 2.042 0 0 1-2.041-2.044c0-1.128.914-2.043 2.04-2.043s2.04.915 2.04 2.043zm-11.51 2.122a2.042 2.042 0 0 1-2.041 2.043 2.042 2.042 0 0 1-2.04-2.043c0-1.129.913-2.044 2.04-2.044s2.04.915 2.04 2.044zm-40.306 0a2.042 2.042 0 0 1-2.04 2.043 2.042 2.042 0 0 1-2.04-2.043c0-1.129.913-2.044 2.04-2.044s2.04.915 2.04 2.044zm13.542 3.535a2.042 2.042 0 0 1-2.04 2.044 2.042 2.042 0 0 1-2.04-2.044c0-1.128.913-2.043 2.04-2.043s2.04.915 2.04 2.043zm9.312-7.699c0 1.129-.914 2.043-2.04 2.043s-2.041-.914-2.041-2.043.914-2.043 2.04-2.043 2.04.914 2.04 2.043z" fill="#ff8a00" style="isolation:auto;mix-blend-mode:normal"/>
</g>
</g>
</svg>
