<svg width="139.315" height="118.534" xmlns="http://www.w3.org/2000/svg">
<defs>
<marker id="a" overflow="visible" orient="auto">
<path d="m-10 0-4 4L0 0l-14-4z" fill-rule="evenodd" stroke="#000" stroke-width=".8pt"/>
</marker>
<marker id="b" overflow="visible" orient="auto">
<path d="m-10 0-4 4L0 0l-14-4z" fill-rule="evenodd" stroke="#000" stroke-width=".8pt"/>
</marker>
</defs>
<g transform="translate(-53.2 -299.474)">
<g stroke-linejoin="round">
<g stroke-miterlimit="100000" stroke-width="1.333">
<path d="M146.52 346.845c-.344-.708-.899-1.224-1.76-1.224-2.238 0-4.61 2.812-4.61 5.604 0 1.798 1.052 3.06 2.544 3.06.383 0 1.34-.076 2.487-1.434a1.74 1.74 0 0 0 1.74 1.435c.67 0 1.11-.44 1.416-1.052.325-.689.574-1.856.574-1.894 0-.191-.172-.191-.23-.191-.19 0-.21.076-.267.344-.325 1.244-.67 2.372-1.454 2.372-.517 0-.574-.497-.574-.88 0-.42.038-.574.249-1.415.21-.804.248-.995.42-1.722l.69-2.678c.133-.535.133-.574.133-.65 0-.325-.23-.517-.555-.517-.459 0-.746.421-.803.842zm-1.243 4.954c-.096.345-.096.383-.383.708-.842 1.052-1.626 1.358-2.161 1.358-.957 0-1.225-1.052-1.225-1.798 0-.956.613-3.31 1.052-4.19.593-1.128 1.454-1.835 2.22-1.835 1.243 0 1.51 1.568 1.51 1.683 0 .115-.038.23-.057.325zM161.532 349.676h5.337c.268 0 .631 0 .631-.383s-.363-.382-.631-.382h-5.337v-5.356c0-.268 0-.631-.383-.631s-.382.363-.382.631v5.356h-5.356c-.268 0-.631 0-.631.382 0 .383.363.383.631.383h5.356v5.356c0 .268 0 .631.382.631s.383-.363.383-.631zM177.832 345.717c-2.391.574-4.246 3.06-4.246 5.375 0 1.836 1.224 3.214 3.022 3.214 2.238 0 3.825-3.004 3.825-5.643 0-1.74-.765-2.697-1.415-3.558-.689-.86-1.817-2.295-1.817-3.137 0-.421.382-.88 1.052-.88.574 0 .956.249 1.358.516.383.23.765.479 1.052.479.478 0 .765-.46.765-.766 0-.42-.306-.478-.995-.63-.994-.211-1.262-.211-1.568-.211-1.492 0-2.18.822-2.18 1.97 0 1.033.554 2.104 1.147 3.271zm.23.42c.478.88 1.052 1.914 1.052 3.29 0 1.263-.727 4.458-2.506 4.458-1.052 0-1.837-.804-1.837-2.257 0-1.205.708-4.802 3.29-5.49zM189.111 346.845c-.344-.708-.899-1.224-1.76-1.224-2.238 0-4.61 2.812-4.61 5.604 0 1.798 1.052 3.06 2.544 3.06.383 0 1.34-.076 2.487-1.434a1.74 1.74 0 0 0 1.74 1.435c.67 0 1.11-.44 1.416-1.052.325-.689.574-1.856.574-1.894 0-.191-.172-.191-.23-.191-.19 0-.21.076-.267.344-.325 1.244-.67 2.372-1.454 2.372-.517 0-.574-.497-.574-.88 0-.42.038-.574.249-1.415.21-.804.248-.995.42-1.722l.69-2.678c.133-.535.133-.574.133-.65 0-.325-.23-.517-.555-.517-.459 0-.746.421-.803.842zm-1.243 4.954c-.096.345-.096.383-.383.708-.842 1.052-1.626 1.358-2.161 1.358-.957 0-1.225-1.052-1.225-1.798 0-.956.613-3.31 1.052-4.19.593-1.128 1.454-1.835 2.22-1.835 1.243 0 1.51 1.568 1.51 1.683 0 .115-.038.23-.057.325z"/>
</g>
<path d="M61.402 355.784c24.295-34.443 8.12-37.384 27.896-47.633 19.827-10.275 32.352-11.658 47.783 4.697 10.049 10.651-3.869 31.567-23.764 41.71-19.895 10.145-64.846 19.559-51.915 1.226z" fill="#ffd3d3" stroke="red" stroke-miterlimit="100"/>
</g>
<path d="M61.842 328.264c.52 0 1.103 0 1.103-.552 0-.454-.389-.454-.94-.454h-5.256c.779-2.757 2.595-4.639 5.547-4.639h1.006c.552 0 1.07 0 1.07-.551 0-.454-.421-.454-.973-.454h-1.135c-4.217 0-8.564 3.244-8.564 8.207 0 3.569 2.433 6.132 5.871 6.132 2.11 0 4.218-1.298 4.218-1.655 0-.097-.033-.454-.325-.454-.065 0-.13 0-.421.194-1.006.65-2.206 1.2-3.407 1.2-1.881 0-3.503-1.362-3.503-4.217 0-1.135.26-2.368.357-2.757z" fill="#ef0000"/>
<path d="m126.59 321.811-46.508 30.72" fill="none" stroke="#000" stroke-miterlimit="100000"/>
<circle cx="80.081" cy="352.53" r="3.377"/>
<circle cx="126.59" cy="321.811" r="3.377"/>
<path d="M96.383 374.984c-.345-.708-.9-1.224-1.76-1.224-2.238 0-4.61 2.812-4.61 5.604 0 1.798 1.052 3.06 2.544 3.06.383 0 1.34-.076 2.487-1.434a1.74 1.74 0 0 0 1.74 1.435c.67 0 1.11-.44 1.416-1.052.325-.689.574-1.856.574-1.894 0-.191-.172-.191-.23-.191-.191 0-.21.076-.267.344-.326 1.244-.67 2.372-1.454 2.372-.517 0-.574-.497-.574-.88 0-.42.038-.574.249-1.415.21-.804.248-.995.42-1.722l.689-2.678c.134-.535.134-.574.134-.65 0-.325-.23-.517-.555-.517-.459 0-.746.421-.803.842zm-1.244 4.954c-.095.345-.095.383-.382.708-.842 1.052-1.626 1.358-2.162 1.358-.956 0-1.224-1.052-1.224-1.798 0-.956.612-3.31 1.052-4.19.593-1.128 1.454-1.835 2.22-1.835 1.242 0 1.51 1.568 1.51 1.683 0 .115-.038.23-.057.325z"/>
<path d="m140.694 395.29-12.238-70.536" fill="none" marker-end="url(#a)" stroke="#000" stroke-dasharray="1.2, 1.2" stroke-miterlimit="100" stroke-width=".6"/>
<path d="M133.569 397.579 82.63 355.042" fill="none" marker-end="url(#b)" stroke="#000" stroke-dasharray="1.20000002, 1.20000002" stroke-miterlimit="100" stroke-width=".6"/>
<path d="m133.88 412.225-.334-1.129q1.056-.253 3.522-1.038v-4.136h-1.599q-.334 1.806-.758 2.7l-1.075-.343q.343-.786.623-2.447.28-1.662.28-3.739l1.3.018q-.027 1.526-.19 2.736h1.419v-3.81h1.381v3.81h1.68v1.075h-1.68v3.684q.93-.316 1.409-.514l.208 1.02q-.497.244-1.617.641v6.691h-1.381v-6.221q-1.319.433-3.188 1.002zm13.057 4.976h-2.32l-.208-1.247h1.96q.316 0 .55-.207.244-.208.244-.506v-4.172h-6.51v-1.129h6.51v-2.167h-6.854v-1.11h4.416v-2.61h-3.919v-1.11h3.92v-1.87h1.453v1.87h3.964v1.11h-3.964v2.61h4.777v1.11h-2.357v2.167h1.996v1.13h-1.996v4.586q0 .669-.479 1.102-.478.443-1.183.443zm-3.828-1.888q-1.237-1.878-2.23-3.07l1.21-.695q1.255 1.508 2.239 3.034zM156.934 412.614v-1.87h-3.81v-1.128h3.81v-1.662h-3.17v-6.24h14.169v6.24h-3.17v1.662h3.928v1.129h-3.928v1.869h4.57v1.147H152.41v-1.147zm3.215-8.299v-1.57h-5.04v1.57zm1.318-1.57v1.57h5.093v-1.57zm-1.318 4.135v-1.544h-5.04v1.544zm1.318-1.544v1.544h5.093v-1.544zm-3.115 2.618v1.662h5.002v-1.662zm0 2.79v1.87h5.002v-1.87zm-5.373 6.701-.57-1.02q3.342-.948 5.302-2.411l1.282.75q-1.066.749-2.872 1.561-1.806.813-3.142 1.12zm15.279.036q-1.174-.316-2.917-1.174-1.743-.867-2.592-1.562l1.165-.731q.876.623 2.411 1.327 1.544.704 2.745 1.048zM172.565 412.541v-5.842h5.68v-5.644h1.409v2.149h7.774v1.11h-7.774v2.385h6.474v5.842zm12.2-4.804H173.92v3.747h10.845zm1.869 9.482q-.686-1.337-2.258-3.64l1.337-.505q1.4 1.941 2.339 3.657zm-5.3-.037q-.579-1.806-1.283-3.485l1.363-.307q.804 1.67 1.427 3.476zm-9.446.326-1.246-.587q1.3-1.554 2.149-3.513l1.318.361q-.217.686-1.002 1.978-.777 1.291-1.22 1.76zm4.885-.172-.912-3.53 1.382-.227q.352 1.057 1.002 3.513zM143.758 370.699l-.922.213q-.664-2.121-.664-4.603 0-2.708.883-5.842l.993.174q-.89 2.934-.89 5.72 0 2.288.6 4.338zm8.73-8.517q-1.026-.019-1.935-.019-1.334 0-4.829.18 0-.29-.038-.87 3.32-.193 5.396-.193 1.031 0 1.373.02v.057q0 .297.032.825zm.077 8.201q-1.348.142-2.637.142-1.792 0-2.682-.206-.883-.213-1.341-.697-.458-.483-.458-1.244 0-1.109.967-2.34l.748.4q-.793.87-.793 1.882 0 .503.426.812.432.31 1.147.413.722.097 2.044.097 1.341 0 2.579-.155zM160.288 370.647l.239-.793q.78.297 1.65.297 1.206 0 1.895-.561t.69-1.606q0-1.14-.928-1.734-.928-.593-2.585-.593-1.11 0-2.147.245v3.875q0 1.237-1.876 1.237-1.077 0-1.896-.631-.812-.639-.812-1.612 0-1.07 1.012-2.012 1.019-.94 2.54-1.444v-2.218h-3.21v-.844h3.184v-2.089h1.058v1.992h3.365v.845h-3.365v2.037q1.05-.226 2.127-.226 1.934 0 3.25.826 1.315.825 1.315 2.295t-.922 2.295q-.916.825-2.489.825-1.315 0-2.095-.406zm-2.192-4.436q-1.109.439-1.863 1.116-.755.677-.755 1.392 0 .684.548 1.045.555.354 1.232.354.838 0 .838-.593zm8.452-2.798-.832.593q-1.263-1.566-3.159-2.875l.677-.6q.8.51 1.773 1.36.98.845 1.541 1.522zM173.885 371.137l-.406-.754q1.412-.535 2.07-1.541t.657-2.682v-2.353h-4.3v-.87h4.3v-2.599h1.012v2.598h2.585v.87h-2.585v2.457q0 3.772-3.333 4.874zm-2.134-3.881q-1.58 2.43-1.799 3.417l-.793-.052q-.78-2.166-.78-4.616 0-2.308.742-5.39l1.018.18q-.786 3.115-.786 5.165 0 1.657.31 3.133.799-1.347 1.385-2.237zM188.54 370.099q2.418-.58 2.418-2.489 0-1.18-.89-1.824t-2.373-.645q-1.018 0-1.992.258-.967.258-2.23 1.05-1.258.794-1.754 1.213l-.477-.793q3.926-2.534 7.672-5.332l-6.525.026v-.857h7.872l.452.657-4.546 3.146.052.078q.787-.239 1.567-.239 1.85 0 3.036.851 1.193.851 1.193 2.353 0 1.76-1.457 2.689-1.457.922-3.907.922-3.365 0-3.365-1.85 0-.729.696-1.225t1.528-.497q1.167 0 1.998.651t1.032 1.857zm-.948.168q-.374-1.85-2.011-1.85-.522 0-.942.257-.412.258-.412.684 0 .986 2.282.986.497 0 1.083-.077zM67.476 397.534l-.922.213q-.664-2.121-.664-4.603 0-2.708.883-5.842l.993.174q-.89 2.934-.89 5.72 0 2.288.6 4.338zm8.73-8.517q-1.025-.019-1.935-.019-1.334 0-4.828.18 0-.29-.04-.87 3.321-.193 5.397-.193 1.032 0 1.373.02v.057q0 .297.033.825zm.077 8.201q-1.347.142-2.637.142-1.792 0-2.682-.206-.883-.213-1.34-.697-.459-.483-.459-1.244 0-1.109.967-2.34l.748.4q-.793.87-.793 1.882 0 .503.426.812.432.31 1.147.413.722.097 2.044.097 1.341 0 2.579-.155zM84.007 397.482l.238-.793q.78.297 1.65.297 1.206 0 1.896-.561t.69-1.606q0-1.14-.928-1.734-.929-.593-2.586-.593-1.109 0-2.147.245v3.875q0 1.237-1.876 1.237-1.076 0-1.895-.631-.812-.639-.812-1.612 0-1.07 1.012-2.012 1.018-.94 2.54-1.444v-2.218h-3.21v-.844h3.184v-2.089h1.057v1.992h3.366v.845H82.82v2.037q1.051-.226 2.128-.226 1.934 0 3.25.826 1.315.825 1.315 2.295t-.922 2.295q-.916.825-2.489.825-1.315 0-2.095-.406zm-2.192-4.436q-1.11.439-1.864 1.116t-.754 1.392q0 .684.548 1.045.555.354 1.232.354.838 0 .838-.593zm8.452-2.798-.832.593q-1.263-1.566-3.159-2.875l.677-.6q.8.51 1.773 1.36.98.845 1.54 1.522zM97.604 397.972l-.406-.754q1.411-.535 2.07-1.541t.657-2.682v-2.353h-4.3v-.87h4.3v-2.599h1.012v2.598h2.585v.87h-2.585v2.457q0 3.772-3.333 4.874zm-2.134-3.881q-1.58 2.43-1.799 3.417l-.793-.052q-.78-2.166-.78-4.616 0-2.308.741-5.39l1.019.18q-.787 3.115-.787 5.165 0 1.657.31 3.133.8-1.347 1.386-2.237zM112.258 396.934q2.418-.58 2.418-2.489 0-1.18-.89-1.824-.89-.645-2.373-.645-1.018 0-1.992.258-.967.258-2.23 1.05-1.258.794-1.754 1.213l-.477-.793q3.926-2.534 7.672-5.332l-6.525.026v-.857h7.872l.452.657-4.546 3.146.052.078q.787-.239 1.567-.239 1.85 0 3.036.851 1.193.851 1.193 2.353 0 1.76-1.457 2.689-1.457.922-3.907.922-3.365 0-3.365-1.85 0-.729.696-1.225t1.528-.497q1.167 0 1.998.651t1.032 1.857zm-.948.168q-.374-1.85-2.011-1.85-.522 0-.942.257-.412.258-.412.684 0 .986 2.282.986.497 0 1.083-.077zM105.043 320.446a.193.193 0 0 0-.21-.191c-.058 0-.077.019-.287.23l-1.34 1.472c-.171-.268-1.051-1.702-3.175-1.702-4.265 0-8.57 4.227-8.57 8.665 0 3.156 2.258 5.241 5.185 5.241 1.664 0 3.118-.765 4.131-1.645 1.78-1.569 2.105-3.31 2.105-3.367 0-.19-.192-.19-.23-.19-.115 0-.21.037-.249.19-.172.555-.612 1.913-1.932 3.023-1.32 1.07-2.525 1.396-3.52 1.396-1.72 0-3.748-.995-3.748-3.979 0-1.09.401-4.189 2.314-6.427 1.167-1.358 2.965-2.314 4.667-2.314 1.952 0 3.08 1.473 3.08 3.691 0 .766-.057.785-.057.976s.21.191.287.191c.248 0 .248-.038.344-.382z"/>
</g>
</svg>
