<svg width="189.591" height="195.773" xmlns="http://www.w3.org/2000/svg">
<g fill="green" stroke-linejoin="round" stroke-miterlimit="100000" stroke-width="1.25">
<path d="m103.728 270.027-6.036-6.036-.466 1.087-2.952-5.127 5.127 2.952-1.088.466 6.036 6.037-.621.621M112.638 269.98l-4.16-5.547-.615 1.011-2.197-5.493 4.658 3.648-1.143.307 4.16 5.547-.703.527M121.548 269.913l-2.524-5.049-.786.885-1.18-5.798 3.93 4.422-1.178.098 2.524 5.049-.786.393M130.466 269.823l-1.162-4.65-.96.693.107-5.915 2.878 5.17-1.173-.16 1.163 4.649-.853.213M139.404 269.716v-4.492l-1.099.44 1.538-5.713 1.538 5.713-1.098-.44v4.492h-.879M148.368 269.609l1.162-4.65-1.172.16 2.878-5.168.106 5.915-.96-.693-1.161 4.65-.853-.214M157.353 269.52l2.524-5.049-1.179-.098 3.93-4.422-1.179 5.798-.786-.885-2.524 5.049-.786-.393M166.345 269.452l4.16-5.547-1.143-.307 4.658-3.647-2.197 5.492-.615-1.01-4.16 5.546-.703-.527M175.338 269.405l6.036-6.036-1.087-.466 5.127-2.952-2.952 5.127-.466-1.088-6.037 6.036-.621-.621M103.775 258.347l-5.547-4.16-.307 1.143-3.647-4.658 5.492 2.197-1.01.615 5.546 4.16-.527.703M112.679 258.306l-3.595-3.595-.466 1.087-2.952-5.126 5.127 2.951-1.088.466 3.595 3.596-.621.621M121.575 258.239l-1.958-2.936-.67.975-1.889-5.607 4.449 3.9-1.158.244 1.957 2.937-.731.487M130.516 258.121l-.939-2.817-.814.689-.313-5.321 2.942 4.444-1.064-.062.94 2.817-.752.25M139.468 257.995v-2.817l-.939.376 1.315-4.883 1.314 4.883-.939-.376v2.817h-.751M148.419 257.87l.939-2.817-1.064.063 2.942-4.445-.313 5.321-.814-.688-.939 2.816-.751-.25M157.38 257.752l1.958-2.936-1.158-.244 4.448-3.9-1.889 5.606-.67-.975-1.958 2.936-.731-.487M166.386 257.685l3.595-3.595-1.087-.466 5.126-2.952-2.951 5.127-.466-1.088-3.596 3.595-.621-.621M175.385 257.644l5.547-4.16-1.011-.615 5.493-2.197-3.648 4.658-.307-1.143-5.547 4.16-.527-.703M103.842 246.668l-5.049-2.524-.098 1.179-4.421-3.93 5.797 1.179-.885.786 5.049 2.524-.393.786M112.746 246.64l-2.936-1.958-.244 1.158-3.9-4.448 5.606 1.889-.975.67 2.936 1.958-.487.731M121.69 246.525l-1.878-1.878-.375.876-2.38-4.13 4.132 2.378-.876.375 1.878 1.878-.501.501M130.642 246.4l-.939-1.878-.5.563-.752-3.693 2.504 2.817-.751.063.939 1.878-.501.25M139.593 246.275v-1.878l-.626.25.876-3.254.877 3.255-.626-.25v1.877h-.501M148.544 246.15l.939-1.878-.751-.062 2.504-2.817-.752 3.693-.5-.564-.94 1.878-.5-.25M157.495 246.024l1.878-1.878-.876-.375 4.13-2.38-2.378 4.132-.375-.876-1.878 1.878-.501-.501M166.453 245.909l2.936-1.958-.975-.67 5.607-1.889-3.9 4.449-.244-1.158-2.936 1.957-.488-.731M175.452 245.882l5.049-2.524-.885-.786 5.798-1.18-4.422 3.93-.098-1.178-5.049 2.524-.393-.786M103.932 234.98l-4.65-1.162.16 1.172-5.168-2.878 5.915-.106-.693.96 4.65 1.161-.214.853M112.864 234.93l-2.817-.939.063 1.064-4.445-2.942 5.321.313-.688.814 2.816.939-.25.751M121.816 234.805l-1.878-.939-.062.751-2.817-2.504 3.693.752-.564.5 1.878.94-.25.5M157.621 234.304l1.878-.939-.563-.5 3.693-.752-2.817 2.504-.063-.751-1.878.939-.25-.501M166.572 234.179l2.817-.939-.689-.814 5.32-.313-4.443 2.942.062-1.064-2.817.94-.25-.752M175.542 234.128l4.65-1.162-.693-.96 5.915.107-5.17 2.878.16-1.173-4.649 1.163-.213-.853M104.038 223.273h-4.492l.44 1.099-5.713-1.538 5.713-1.538-.44 1.098h4.492v.879M112.989 223.209h-2.817l.376.939-4.883-1.315 4.883-1.314-.376.939h2.817v.751M121.941 223.084h-1.878l.25.626-3.254-.876 3.255-.877-.25.626h1.877v.501M157.746 222.583h1.878l-.25-.626 3.255.876-3.255.877.25-.626h-1.878v-.501M166.697 222.458h2.817l-.376-.939 4.883 1.315-4.883 1.314.376-.939h-2.817v-.751M175.648 222.394h4.492l-.44-1.099 5.713 1.538-5.713 1.538.44-1.098h-4.492v-.879M104.145 211.539l-4.65 1.162.693.96-5.915-.107 5.17-2.878-.16 1.173 4.649-1.163.213.853M113.115 211.488l-2.817.939.689.814-5.32.313 4.443-2.942-.062 1.064 2.817-.94.25.752M122.066 211.363l-1.878.939.563.5-3.693.752 2.817-2.504.063.751 1.878-.939.25.501M157.871 210.863l1.878.939.062-.751 2.817 2.504-3.693-.752.564-.5-1.878-.94.25-.5M166.822 210.737l2.817.939-.063-1.064 4.445 2.942-5.321-.313.688-.814-2.816-.939.25-.751M175.755 210.687l4.65 1.162-.16-1.172 5.168 2.878-5.915.106.693-.96-4.65-1.161.214-.853M104.235 199.785l-5.049 2.524.885.786-5.798 1.18 4.422-3.93.098 1.178 5.049-2.524.393.786M113.233 199.758l-2.936 1.958.975.67-5.607 1.889 3.9-4.449.244 1.158 2.937-1.957.487.731M122.191 199.643l-1.878 1.878.876.375-4.13 2.38 2.378-4.132.375.876 1.878-1.878.501.501M131.142 199.517l-.939 1.878.751.062-2.504 2.817.752-3.693.5.564.94-1.878.5.25M140.094 199.392v1.878l.626-.25-.876 3.254-.877-3.255.626.25v-1.877h.501M149.045 199.267l.939 1.878.5-.563.752 3.693-2.504-2.817.751-.063-.939-1.878.501-.25M157.996 199.142l1.878 1.878.375-.876 2.38 4.13-4.132-2.378.876-.375-1.878-1.878.501-.501M166.941 199.027l2.936 1.958.244-1.158 3.9 4.448-5.606-1.889.975-.67-2.936-1.958.487-.731M175.845 198.999l5.049 2.524.098-1.179 4.422 3.93-5.798-1.179.885-.786-5.049-2.524.393-.786M104.302 188.023l-5.547 4.16 1.011.615-5.493 2.197 3.648-4.658.307 1.143 5.547-4.16.527.703M113.3 187.982l-3.595 3.595 1.087.466-5.126 2.952 2.951-5.127.466 1.088 3.596-3.595.621.621M122.306 187.915l-1.958 2.936 1.158.244-4.448 3.9 1.889-5.606.67.975 1.958-2.936.731.487M131.268 187.797l-.939 2.817 1.064-.063-2.942 4.445.313-5.321.814.688.939-2.816.751.25M140.219 187.672v2.817l.939-.376-1.315 4.883-1.314-4.883.939.376v-2.817h.751M149.17 187.546l.939 2.817.814-.689.313 5.32-2.942-4.443 1.064.062-.94-2.817.752-.25M158.111 187.428l1.958 2.936.67-.975 1.889 5.606-4.449-3.9 1.158-.243-1.957-2.937.731-.487M167.008 187.361l3.595 3.595.466-1.087 2.952 5.126-5.127-2.951 1.088-.466-3.595-3.596.621-.621M175.912 187.32l5.547 4.16.307-1.143 3.647 4.658-5.492-2.197 1.01-.615-5.546-4.16.527-.703M104.349 176.262l-6.036 6.036 1.087.466-5.127 2.952 2.952-5.127.466 1.088 6.037-6.036.621.621M113.341 176.215l-4.16 5.547 1.143.307-4.658 3.647 2.197-5.492.615 1.01 4.16-5.546.703.527M122.334 176.148l-2.524 5.049 1.179.098-3.93 4.422 1.179-5.798.786.885 2.524-5.049.786.393M131.318 176.058l-1.162 4.65 1.172-.16-2.878 5.168-.106-5.915.96.693 1.161-4.65.853.214M140.283 175.951v4.492l1.099-.44-1.538 5.713-1.538-5.713 1.098.44v-4.492h.879M149.221 175.844l1.162 4.65.96-.693-.107 5.915-2.878-5.17 1.173.16-1.163-4.649.853-.213M158.139 175.755l2.524 5.049.786-.885 1.18 5.798-3.93-4.422 1.178-.098-2.524-5.049.786-.393M167.049 175.687l4.16 5.547.615-1.011 2.197 5.493-4.658-3.648 1.143-.307-4.16-5.547.703-.527M175.959 175.64l6.036 6.036.466-1.087 2.952 5.127-5.127-2.952 1.088-.466-6.036-6.037.621-.621" clip-path="url(#pe30911f7b6)" transform="translate(3.367 -175.14)"/>
</g>
<g fill="red" stroke-linejoin="round" stroke-miterlimit="100000" stroke-width="1.25">
<path d="m7.209 260.262-6.036 6.036 1.087.466-5.127 2.952 2.952-5.127.466 1.088 6.036-6.036.622.621M16.201 260.215l-4.16 5.547 1.143.307-4.658 3.647 2.197-5.492.615 1.01 4.16-5.546.703.527M25.194 260.148l-2.525 5.049 1.18.098-3.93 4.422 1.178-5.798.786.885 2.525-5.049.786.393M34.178 260.058l-1.162 4.65 1.172-.16-2.877 5.168-.107-5.915.96.693 1.162-4.65.852.214M43.143 259.951v4.492l1.098-.44-1.538 5.713-1.538-5.713 1.099.44v-4.492h.879M52.08 259.844l1.163 4.65.96-.693-.107 5.915-2.878-5.17 1.173.16-1.163-4.649.853-.213M60.999 259.755l2.524 5.049.786-.885 1.18 5.798-3.931-4.422 1.179-.098-2.524-5.049.786-.393M69.909 259.687l4.16 5.547.615-1.011 2.197 5.493-4.658-3.648 1.142-.307-4.16-5.547.703-.527M78.819 259.64l6.036 6.036.466-1.087 2.952 5.127-5.127-2.952 1.088-.466-6.037-6.037.622-.621M7.162 251.023l-5.547 4.16 1.011.615-5.493 2.197 3.647-4.658.308 1.143 5.547-4.16.527.703M16.16 250.982l-3.595 3.595 1.088.466-5.127 2.952 2.952-5.127.466 1.088 3.595-3.595.621.621M25.166 250.915l-1.957 2.936 1.158.244-4.449 3.9 1.89-5.606.67.975 1.957-2.936.731.487M34.127 250.797l-.938 2.817 1.064-.063-2.942 4.445.313-5.321.813.688.94-2.816.75.25M43.079 250.672v2.817l.939-.376-1.315 4.883-1.314-4.883.939.376v-2.817h.75M52.03 250.546l.939 2.817.814-.689.313 5.32-2.942-4.443 1.064.062-.94-2.817.752-.25M60.971 250.428l1.958 2.936.67-.975 1.89 5.606-4.45-3.9 1.159-.243-1.958-2.937.731-.487M69.868 250.361l3.595 3.595.466-1.087 2.952 5.126-5.127-2.951 1.087-.466-3.595-3.596.622-.621M78.772 250.32l5.546 4.16.308-1.143 3.647 4.658-5.493-2.197 1.011-.615-5.546-4.16.527-.703M7.095 241.785l-5.049 2.524.884.786-5.797 1.18 4.422-3.93.098 1.178L6.702 241l.393.786M16.093 241.758l-2.936 1.958.975.67-5.606 1.889 3.9-4.449.243 1.158 2.937-1.957.487.731M25.051 241.643l-1.878 1.878.877.375-4.132 2.38 2.379-4.132.375.876 1.878-1.878.501.501M34.002 241.517l-.939 1.878.752.062-2.504 2.817.75-3.693.502.564.939-1.878.5.25M42.954 241.392v1.878l.626-.25-.877 3.254-.876-3.255.626.25v-1.877h.5M51.905 241.267l.939 1.878.5-.563.752 3.693-2.504-2.817.751-.063-.939-1.878.5-.25M60.856 241.142l1.878 1.878.376-.876 2.378 4.13-4.131-2.378.876-.375-1.878-1.878.501-.501M69.8 241.027l2.937 1.958.244-1.158 3.9 4.448-5.607-1.889.975-.67-2.936-1.958.488-.731M78.705 240.999l5.048 2.524.099-1.179 4.421 3.93-5.797-1.179.884-.786-5.048-2.524.393-.786M7.005 232.539l-4.65 1.162.693.96-5.915-.107 5.17-2.878-.16 1.173 4.649-1.163.213.853M15.975 232.488l-2.817.939.688.814-5.32.313 4.444-2.942-.063 1.064 2.817-.94.25.752M24.926 232.363l-1.878.939.563.5-3.693.752 2.817-2.504.063.751 1.878-.939.25.501M60.73 231.863l1.879.939.062-.751 2.817 2.504-3.693-.752.563-.5-1.877-.94.25-.5M69.682 231.737l2.817.939-.063-1.064 4.445 2.942-5.321-.313.689-.814-2.817-.939.25-.751M78.615 231.687l4.65 1.162-.16-1.172 5.168 2.878-5.915.106.693-.96-4.65-1.161.214-.853M6.898 223.273H2.406l.44 1.099-5.713-1.538 5.713-1.538-.44 1.098h4.492v.879M15.85 223.209h-2.817l.375.939-4.882-1.315 4.882-1.314-.375.939h2.816v.751M24.8 223.084h-1.877l.25.626-3.255-.876 3.255-.877-.25.626H24.8v.501M60.606 222.583h1.878l-.25-.626 3.254.876-3.255.877.25-.626h-1.877v-.501M69.557 222.458h2.817l-.376-.939 4.883 1.315-4.883 1.314.376-.939h-2.817v-.751M78.508 222.394H83l-.44-1.099 5.713 1.538-5.712 1.538.44-1.098h-4.493v-.879M6.792 213.98l-4.65-1.162.16 1.172-5.169-2.878 5.915-.106-.693.96 4.65 1.161-.213.853M15.724 213.93l-2.817-.939.063 1.064-4.444-2.942 5.32.313-.688.814 2.817.939-.25.751M24.675 213.805l-1.877-.939-.063.751-2.817-2.504 3.693.752-.563.5 1.878.94-.25.5M60.48 213.304l1.878-.939-.563-.5 3.693-.752-2.817 2.504-.062-.751-1.878.939-.25-.501M69.432 213.179l2.817-.939-.689-.814 5.32-.313-4.444 2.942.063-1.064-2.817.94-.25-.752M78.402 213.128l4.649-1.162-.693-.96 5.915.107-5.169 2.878.16-1.173-4.65 1.163-.212-.853M6.702 204.668l-5.049-2.524-.098 1.179-4.422-3.93 5.797 1.179-.884.786 5.049 2.524-.393.786M15.606 204.64l-2.937-1.958-.243 1.158-3.9-4.448 5.606 1.889-.975.67 2.936 1.958-.487.731M24.55 204.525l-1.878-1.878-.375.876-2.379-4.13 4.132 2.378-.877.375 1.878 1.878-.5.501M33.502 204.4l-.94-1.878-.5.563-.751-3.693 2.504 2.817-.752.063.94 1.878-.501.25M42.453 204.275v-1.878l-.626.25.876-3.254.877 3.255-.626-.25v1.877h-.501M51.404 204.15l.939-1.878-.751-.062 2.504-2.817-.751 3.693-.501-.564-.94 1.878-.5-.25M60.355 204.024l1.878-1.878-.876-.375 4.131-2.38-2.378 4.132-.376-.876-1.878 1.878-.5-.501M69.313 203.909l2.936-1.958-.975-.67 5.607-1.889-3.9 4.449-.244-1.158-2.936 1.957-.488-.731M78.312 203.882l5.048-2.524-.884-.786 5.797-1.18-4.421 3.93-.099-1.178-5.048 2.524-.393-.786M6.635 195.347l-5.547-4.16-.308 1.143-3.647-4.658 5.493 2.197-1.01.615 5.546 4.16-.527.703M15.539 195.306l-3.595-3.595-.466 1.087-2.952-5.126 5.127 2.951-1.088.466 3.595 3.596-.621.621M24.435 195.239l-1.957-2.936-.67.975-1.89-5.607 4.449 3.9-1.158.244 1.957 2.937-.73.487M33.376 195.121l-.939-2.817-.813.689-.313-5.321 2.942 4.444-1.064-.062.939 2.817-.752.25M42.328 194.995v-2.817l-.94.376 1.315-4.883 1.315 4.883-.94-.376v2.817h-.75M51.279 194.87l.939-2.817-1.064.063 2.942-4.445-.313 5.321-.814-.688-.939 2.816-.751-.25M60.24 194.752l1.958-2.936-1.158-.244 4.448-3.9-1.889 5.606-.67-.975-1.958 2.936-.73-.487M69.246 194.685l3.595-3.595-1.087-.466 5.127-2.952-2.952 5.127-.466-1.088-3.595 3.595-.622-.621M78.245 194.644l5.546-4.16-1.01-.615 5.492-2.197-3.647 4.658-.308-1.143-5.546 4.16-.528-.703M6.587 186.027l-6.036-6.036-.466 1.087-2.952-5.127 5.127 2.952-1.087.466 6.036 6.037-.622.621M15.498 185.98l-4.16-5.547-.615 1.011-2.197-5.493 4.658 3.648-1.143.307 4.16 5.547-.703.527M24.408 185.913l-2.525-5.049-.786.885-1.179-5.798 3.93 4.422-1.179.098 2.525 5.049-.786.393M33.326 185.823l-1.163-4.65-.959.693.107-5.915 2.877 5.17-1.172-.16 1.162 4.649-.852.213M42.264 185.716v-4.492l-1.099.44 1.538-5.713 1.538 5.713-1.098-.44v4.492h-.88M51.228 185.609l1.162-4.65-1.172.16 2.878-5.168.106 5.915-.959-.693-1.162 4.65-.853-.214M60.213 185.52l2.524-5.049-1.18-.098 3.931-4.422-1.179 5.798-.786-.885L61 185.913l-.786-.393M69.205 185.452l4.16-5.547-1.142-.307 4.658-3.647-2.197 5.492-.616-1.01-4.16 5.546-.703-.527M78.198 185.405l6.036-6.036-1.088-.466 5.127-2.952-2.952 5.127-.466-1.088-6.036 6.036-.621-.621" clip-path="url(#p75e85dd5f0)" transform="translate(3.367 -175.14)"/>
</g>
<g fill="#00f" stroke-linejoin="round" stroke-miterlimit="100000" stroke-width="1.25">
<path d="m94.584 360.027 6.036 6.036.466-1.087 2.952 5.127-5.127-2.952 1.088-.466-6.036-6.037.621-.621M104.709 361.207l5.547 4.16.307-1.143 3.647 4.658-5.492-2.197 1.01-.615-5.546-4.16.527-.703M114.814 362.386l5.049 2.524.098-1.179 4.422 3.93-5.798-1.179.885-.786-5.049-2.524.393-.786M124.895 363.573l4.65 1.162-.16-1.172 5.168 2.878-5.915.106.693-.96-4.65-1.161.214-.853M134.961 364.781h4.492l-.44-1.099 5.713 1.538-5.713 1.538.44-1.098h-4.492v-.879M145.026 366.014l4.65-1.162-.693-.96 5.915.107-5.17 2.878.16-1.173-4.649 1.163-.213-.853M155.108 367.268l5.049-2.524-.885-.786 5.798-1.18-4.422 3.93-.098-1.178-5.049 2.524-.393-.786M165.213 368.53l5.547-4.16-1.011-.615 5.493-2.197-3.648 4.658-.307-1.143-5.547 4.16-.527-.703M175.338 369.792l6.036-6.036-1.087-.466 5.127-2.952-2.952 5.127-.466-1.088-6.037 6.036-.621-.621M95.845 349.574l4.16 5.547.615-1.011 2.198 5.493-4.658-3.648 1.142-.307-4.16-5.547.703-.527M105.976 350.747l3.595 3.595.466-1.087 2.952 5.126-5.127-2.951 1.088-.466-3.595-3.596.621-.621M116.081 351.913l2.936 1.958.244-1.158 3.9 4.448-5.606-1.889.975-.67-2.936-1.958.487-.731M126.135 353.124l2.817.939-.063-1.064 4.445 2.942-5.321-.313.688-.814-2.816-.939.25-.751M136.181 354.344h2.817l-.376-.939 4.883 1.315-4.883 1.314.376-.939h-2.817v-.751M146.228 355.565l2.817-.939-.689-.814 5.32-.313-4.443 2.942.062-1.064-2.817.94-.25-.752M156.281 356.796l2.936-1.958-.975-.67 5.607-1.889-3.9 4.449-.244-1.158-2.937 1.957-.487-.731M166.386 358.071l3.595-3.595-1.087-.466 5.126-2.952-2.951 5.127-.466-1.088-3.596 3.595-.621-.621M176.517 359.339l4.16-5.547-1.143-.307 4.658-3.647-2.197 5.492-.615-1.01-4.16 5.546-.703-.527M97.108 339.141l2.524 5.049.786-.885 1.179 5.798-3.93-4.422 1.179-.098-2.525-5.049.786-.393M107.252 340.314l1.958 2.936.67-.975 1.889 5.606-4.449-3.9 1.158-.243-1.957-2.937.731-.487M117.309 341.528l1.878 1.878.375-.876 2.38 4.13-4.132-2.378.876-.375-1.878-1.878.501-.501M127.355 342.749l1.878.939.062-.751 2.817 2.504-3.693-.752.563-.5-1.877-.94.25-.5M137.402 343.97h1.878l-.25-.626 3.254.876-3.255.877.25-.626h-1.877v-.501M147.449 345.19l1.878-.939-.563-.5 3.693-.752-2.817 2.504-.063-.751-1.878.939-.25-.501M157.495 346.411l1.878-1.878-.876-.375 4.13-2.38-2.378 4.132-.375-.876-1.878 1.878-.501-.501M167.552 347.638l1.958-2.936-1.158-.244 4.448-3.9-1.889 5.606-.67-.975-1.958 2.936-.731-.487M177.696 348.906l2.524-5.049-1.179-.098 3.93-4.422-1.179 5.798-.786-.885-2.524 5.049-.786-.393M98.361 328.731l1.163 4.65.959-.693-.107 5.915-2.877-5.17 1.172.16-1.162-4.649.852-.213M108.483 329.933l.939 2.817.814-.689.313 5.32-2.942-4.443 1.064.062-.94-2.817.752-.25M118.529 331.154l.939 1.878.5-.563.752 3.693-2.504-2.817.751-.063-.939-1.878.501-.25M158.716 336.036l.939-1.878-.751-.062 2.504-2.817-.752 3.693-.5-.564-.94 1.878-.5-.25M168.763 337.257l.939-2.817-1.064.063 2.942-4.445-.313 5.321-.814-.688-.939 2.816-.751-.25M178.884 338.496l1.162-4.65-1.172.16 2.878-5.168.106 5.915-.96-.693-1.161 4.65-.853-.214M99.595 318.337v4.492l1.099-.44-1.538 5.713-1.538-5.713 1.098.44v-4.492h.88M109.703 319.558v2.817l.939-.376-1.315 4.883-1.314-4.883.939.376v-2.817h.751M119.75 320.779v1.878l.626-.25-.876 3.255-.877-3.255.626.25v-1.878h.501M159.937 325.661v-1.878l-.626.25.876-3.255.877 3.255-.626-.25v1.878h-.501M169.983 326.882v-2.817l-.939.376 1.315-4.883 1.314 4.883-.939-.376v2.817h-.751M180.091 328.102v-4.492l-1.099.44 1.538-5.713 1.538 5.713-1.098-.44v4.492h-.879M100.803 307.944l-1.162 4.65 1.172-.16-2.878 5.168-.106-5.915.96.693 1.161-4.65.853.214M110.924 309.183l-.939 2.817 1.064-.063-2.942 4.445.313-5.321.814.688.939-2.816.751.25M120.97 310.404l-.939 1.878.751.062-2.504 2.817.752-3.693.5.564.94-1.878.5.25M161.157 315.286l-.939-1.878-.5.563-.752-3.693 2.504 2.817-.751.063.939 1.878-.501.25M171.204 316.507l-.939-2.817-.814.689-.313-5.321 2.942 4.444-1.064-.062.94 2.817-.752.25M181.325 317.709l-1.162-4.65-.96.693.107-5.915 2.878 5.17-1.173-.16 1.163 4.649-.853.213M101.99 297.534l-2.524 5.049 1.179.098-3.93 4.422 1.179-5.798.786.885 2.524-5.049.786.393M112.134 298.802l-1.958 2.936 1.158.244-4.448 3.9 1.889-5.606.67.975 1.958-2.936.731.487M122.191 300.029l-1.878 1.878.876.375-4.13 2.38 2.378-4.132.375.876 1.878-1.878.501.501M132.238 301.25l-1.878.939.563.5-3.693.752 2.817-2.504.063.751 1.878-.939.25.501M142.284 302.47h-1.878l.25.626-3.255-.876 3.255-.877-.25.626h1.878v.501M152.331 303.691l-1.878-.939-.062.751-2.817-2.504 3.693.752-.564.5 1.878.94-.25.5M162.378 304.912l-1.878-1.878-.375.876-2.38-4.13 4.132 2.378-.876.375 1.878 1.878-.501.501M172.434 306.126l-1.958-2.936-.67.975-1.889-5.607 4.449 3.9-1.158.244 1.957 2.937-.731.487M182.579 307.299l-2.524-5.049-.786.885-1.18-5.798 3.93 4.422-1.178.098 2.524 5.049-.786.393M103.169 287.101l-4.16 5.547 1.143.307-4.658 3.647 2.197-5.492.615 1.01 4.16-5.546.703.527M113.3 288.369l-3.595 3.595 1.087.466-5.126 2.952 2.951-5.127.466 1.088 3.596-3.595.621.621M123.405 289.644l-2.936 1.958.975.67-5.607 1.889 3.9-4.449.244 1.158 2.937-1.957.487.731M133.458 290.875l-2.817.939.689.814-5.32.313 4.443-2.942-.062 1.064 2.817-.94.25.752M143.505 292.096h-2.817l.376.939-4.883-1.315 4.883-1.314-.376.939h2.817v.751M153.552 293.316l-2.817-.939.063 1.064-4.445-2.942 5.321.313-.688.814 2.816.939-.25.751M163.605 294.527l-2.936-1.958-.244 1.158-3.9-4.448 5.606 1.889-.975.67 2.936 1.958-.487.731M173.71 295.693l-3.595-3.595-.466 1.087-2.952-5.126 5.127 2.951-1.088.466 3.595 3.596-.621.621M183.841 296.866l-4.16-5.547-.615 1.011-2.197-5.493 4.658 3.648-1.143.307 4.16 5.547-.703.527M104.349 276.648l-6.036 6.036 1.087.466-5.127 2.952 2.952-5.127.466 1.088 6.037-6.036.621.621M114.474 277.91l-5.547 4.16 1.011.615-5.493 2.197 3.648-4.658.307 1.143 5.547-4.16.527.703M124.578 279.172l-5.049 2.524.885.786-5.798 1.18 4.422-3.93.098 1.178 5.049-2.524.393.786M134.66 280.426l-4.65 1.162.693.96-5.915-.107 5.17-2.878-.16 1.173 4.649-1.163.213.853M144.726 281.659h-4.492l.44 1.099-5.713-1.538 5.713-1.538-.44 1.098h4.492v.879M154.791 282.867l-4.65-1.162.16 1.172-5.168-2.878 5.915-.106-.693.96 4.65 1.161-.214.853M164.873 284.054l-5.049-2.524-.098 1.179-4.422-3.93 5.798 1.179-.885.786 5.049 2.524-.393.786M174.978 285.233l-5.547-4.16-.307 1.143-3.647-4.658 5.492 2.197-1.01.615 5.546 4.16-.527.703M185.103 286.413l-6.036-6.036-.466 1.087-2.952-5.127 5.127 2.952-1.088.466 6.036 6.037-.621.621" clip-path="url(#pbed49c8f34)" transform="translate(3.367 -175.14)"/>
</g>
<g fill="red">
<path d="m19.131 122.179-.944.731q-1.821-1.874-4.979-4.534-3.304 3.178-6.575 4.481l-.505-.844q2.739-1.117 5.451-3.537 2.72-2.427 3.81-5.299H7.803v-.924h8.782l.273.246q-.93 2.82-2.985 5.146 2.034 1.589 5.258 4.534zM25.966 111.383v2.533h5.824v.512q0 2.313-.067 3.138-.066.818-.206 1.735-.133.917-.379 1.582-.24.658-.558 1.024-.313.366-.811.559t-1.37.192q-.93 0-2.367-.259l.027-1.01q1.197.245 2.214.245.478 0 .91-.152.44-.153.765-.812.326-.658.505-1.94.187-1.29.187-3.012l-.007-.851h-4.747q-.206 3.064-1.549 4.986t-3.517 3.071l-.558-.758q2.047-1.236 3.164-2.932 1.117-1.701 1.323-4.367H20.82v-.951h3.976v-2.533zM44.893 113.085h-9.872v-.93h9.872zm.459 2.353q-.073 1.197-.213 1.855-.14.658-.718 1.842-.572 1.177-1.655 1.988-1.084.804-2.7 1.25-1.615.452-3.809.511l-.193-.964q3.783-.086 5.751-1.436 1.975-1.356 2.327-4.108h-9.653v-.938zM58.974 117.885H47.978v-.984h10.996z"/>
</g>
<g fill="green">
<path d="m18.806 135.17-.698.924q-1.383-.924-3.304-1.815-1.922-.89-3.424-1.343v7.054h-1.184v-11.641h1.197v3.563q3.942 1.184 7.413 3.258zM32.594 133.614q-1.23 1.848-4.108 3.657-2.872 1.808-5.95 2.473l-.725-.559V128.92h1.13v9.607q2.686-.658 5.073-2.207 2.393-1.55 3.776-3.37zM45.359 134.904H34.362v-.984H45.36zM59.978 139.199l-.944.731q-1.822-1.874-4.98-4.534-3.304 3.178-6.575 4.481l-.505-.844q2.74-1.117 5.452-3.537 2.719-2.427 3.809-5.299h-7.586v-.924h8.783l.272.246q-.93 2.82-2.985 5.146 2.035 1.589 5.259 4.534zM73.44 133.614q-1.23 1.848-4.108 3.657-2.872 1.808-5.95 2.473l-.725-.559V128.92h1.13v9.607q2.686-.658 5.073-2.207 2.393-1.55 3.776-3.37zM87.209 139.199l-.944.731q-1.822-1.874-4.98-4.534-3.304 3.178-6.575 4.481l-.505-.844q2.739-1.117 5.451-3.537 2.72-2.427 3.81-5.299H75.88v-.924h8.783l.272.246q-.93 2.82-2.985 5.146 2.034 1.589 5.259 4.534zM73.28 148.586h-1.428v7.3q0 .472-.353.79-.346.327-.804.327h-2.108l-.113-.905h1.749q.232 0 .405-.14.18-.145.18-.358v-7.014H67.61v-.824h3.198v-2.733h1.044v2.733h1.429zm-6.208 6.123-.845.638q-.459-.651-1.562-1.875-1.41 2.287-3.41 3.65l-.546-.651q2.134-1.616 3.291-3.73-1.456-1.549-2.513-2.446l.685-.612q.744.605 2.273 2.12.752-1.834.778-3.676h-4.042v-.817h2.5v-2.128h1.004v2.128h2.273v.817h-.73q-.094 2.427-1.051 4.421 1.276 1.323 1.894 2.161zm2.446-1.682-.977.359q-.506-1.522-1.19-3.038l.897-.346q.652 1.363 1.27 3.025zM82.681 157.056H81.06l-.126-.93h1.29q.299 0 .485-.147.186-.153.186-.379v-7.572h-1.748q-.605 1.276-1.144 1.988l-.751-.46q.485-.664 1.07-2.027.585-1.37.865-2.566l1.05.166q-.186.778-.738 2.108h5.365v.79h-2.918V156q0 .472-.38.764-.372.293-.884.293zm-8.01-2.792-.612-.512q.671-.725 1.396-1.955.724-1.23 1.057-2.24h-1.968v-.791h2.001v-2.18q-1.01.192-1.974.318l-.193-.751q2.865-.386 4.54-1.01l.38.744q-.732.246-1.729.479v2.4h1.463v.79h-1.463v.839q.545.664 1.709 1.648l-.552.678q-.506-.452-1.157-1.163v5.611h-1.024v-5.611q-.977 1.815-1.875 2.706zm11.846.625q-.412-.885-.857-2.274-.446-1.39-.645-2.393l.957-.18q.552 2.4 1.53 4.461zm-6.581.013-.865-.399q.532-.877 1.03-2.16.5-1.284.666-2.248l.997.173q-.246 1.177-.778 2.546-.532 1.363-1.05 2.088z"/>
</g>
<g fill="#00f">
<path d="M13.514 171.788q-2.114 1.569-4.654 2.333l-.425-.73q2.453-.845 4.234-2.188-2.18-1.682-3.217-4.66H8.78v.192q0 4.508-2.027 7.207l-.698-.499q.578-.79 1.13-2.506.552-1.722.552-3.83v-4.314h10.67v.791H8.78v2.18h8.33l.333.293q-.446 1.423-1.29 2.812-.838 1.39-1.875 2.307 1.902 1.283 4.401 2.015l-.565.877q-1.98-.598-4.6-2.28zm-.087-1.203q.938-.858 1.67-1.955.73-1.103 1.003-2.087h-5.651q.878 2.5 2.978 4.042zM32.434 165.605h-1.429v7.3q0 .472-.352.79-.346.327-.805.327h-2.107l-.113-.905h1.748q.233 0 .406-.14.18-.145.18-.358v-7.014h-3.198v-.824h3.197v-2.733h1.044v2.733h1.43zm-6.209 6.123-.844.638q-.459-.651-1.563-1.875-1.409 2.287-3.41 3.65l-.545-.651q2.134-1.616 3.29-3.73-1.455-1.549-2.512-2.446l.684-.612q.745.605 2.274 2.12.751-1.834.778-3.676h-4.042v-.817h2.5V162.2h1.003v2.128h2.274v.817h-.731q-.093 2.427-1.05 4.421 1.276 1.323 1.894 2.161zm2.447-1.682-.978.359q-.505-1.522-1.19-3.038l.898-.346q.651 1.363 1.27 3.025zM41.835 174.075h-1.622l-.126-.93h1.29q.298 0 .485-.147.186-.153.186-.379v-7.572h-1.749q-.605 1.276-1.143 1.988l-.751-.46q.485-.664 1.07-2.027.585-1.37.864-2.566l1.05.166q-.186.778-.737 2.108h5.365v.79h-2.919v7.972q0 .472-.379.764-.372.293-.884.293zm-8.011-2.792-.612-.512q.672-.725 1.396-1.955.725-1.23 1.058-2.24h-1.968v-.791h2v-2.18q-1.01.192-1.974.318l-.193-.751q2.866-.386 4.541-1.01l.38.744q-.732.246-1.73.479v2.4h1.463v.79h-1.462v.839q.545.664 1.708 1.648l-.552.678q-.505-.452-1.156-1.163v5.611h-1.024v-5.611q-.978 1.815-1.875 2.706zm11.847.625q-.412-.885-.858-2.274-.445-1.39-.645-2.393l.958-.18q.552 2.4 1.529 4.461zm-6.582.013-.864-.399q.532-.877 1.03-2.16.5-1.284.665-2.248l.998.173q-.246 1.177-.778 2.546-.532 1.363-1.05 2.088z"/>
</g>
</svg>
