<svg width="209.67" height="140.854" xmlns="http://www.w3.org/2000/svg">
<defs>
<marker id="b" overflow="visible" orient="auto">
<path d="m4 0 2-2-7 2 7 2z" fill="#00f" fill-rule="evenodd" stroke="#00f" stroke-width=".4pt"/>
</marker>
<marker id="a" overflow="visible" orient="auto">
<path d="m-4 0-2 2 7-2-7-2z" fill="#00f" fill-rule="evenodd" stroke="#00f" stroke-width=".4pt"/>
</marker>
<marker id="d" overflow="visible" orient="auto">
<path d="m4 0 2-2-7 2 7 2z" fill="#00f" fill-rule="evenodd" stroke="#00f" stroke-width=".4pt"/>
</marker>
<marker id="c" overflow="visible" orient="auto">
<path d="m-4 0-2 2 7-2-7-2z" fill="#00f" fill-rule="evenodd" stroke="#00f" stroke-width=".4pt"/>
</marker>
<marker id="e" overflow="visible" orient="auto">
<path d="m-10 0-4 4L0 0l-14-4z" fill="#6d6d6d" fill-rule="evenodd" stroke="#6d6d6d" stroke-width=".8pt"/>
</marker>
<marker id="g" overflow="visible" orient="auto">
<path d="m4 0 2-2-7 2 7 2z" fill="red" fill-rule="evenodd" stroke="red" stroke-width=".4pt"/>
</marker>
<marker id="f" overflow="visible" orient="auto">
<path d="m-4 0-2 2 7-2-7-2z" fill="red" fill-rule="evenodd" stroke="red" stroke-width=".4pt"/>
</marker>
<marker id="i" overflow="visible" orient="auto">
<path d="m4 0 2-2-7 2 7 2z" fill="#00f" fill-rule="evenodd" stroke="#00f" stroke-width=".4pt"/>
</marker>
<marker id="h" overflow="visible" orient="auto">
<path d="m-4 0-2 2 7-2-7-2z" fill="#00f" fill-rule="evenodd" stroke="#00f" stroke-width=".4pt"/>
</marker>
<marker id="j" overflow="visible" orient="auto">
<path d="m-4 0-2 2 7-2-7-2z" fill="red" fill-rule="evenodd" stroke="red" stroke-width=".4pt"/>
</marker>
<marker id="k" overflow="visible" orient="auto">
<path d="m-4 0-2 2 7-2-7-2z" fill="#00f" fill-rule="evenodd" stroke="#00f" stroke-width=".4pt"/>
</marker>
</defs>
<g color="#000" transform="translate(-13.736 -261.171)">
<g stroke="#00f">
<path d="M143.115 285.791v39.73h39.73" fill="none" marker-end="url(#a)" marker-start="url(#b)" opacity=".4" style="isolation:auto;mix-blend-mode:normal"/>
<path d="M169.602 292.413v33.108m-6.622-33.108v33.108m-6.621-33.108v33.108m-6.622-33.108v33.108m-6.621-6.622h33.108m-33.108-6.621h33.108m-33.108-6.622h33.108m-33.108-6.621h33.108" fill="#fff" opacity=".4" stroke-width=".4" style="isolation:auto;mix-blend-mode:normal"/>
<path d="M105.025 307.941v39.73h39.73" fill="none" marker-end="url(#c)" marker-start="url(#d)" opacity=".2" style="isolation:auto;mix-blend-mode:normal"/>
<path d="M131.511 314.562v33.108m-6.622-33.108v33.108m-6.621-33.108v33.108m-6.622-33.108v33.108m-6.621-6.622h33.108m-33.108-6.621h33.108m-33.108-6.622h33.108m-33.108-6.621h33.108" fill="#fff" opacity=".2" stroke-width=".4" style="isolation:auto;mix-blend-mode:normal"/>
</g>
<path d="m16.776 398.986 164.43-95.615" fill="none" marker-end="url(#e)" stroke="#6d6d6d" style="isolation:auto;mix-blend-mode:normal"/>
<path d="M16.776 359.257v39.73h39.729" fill="none" marker-end="url(#f)" marker-start="url(#g)" stroke="red" style="isolation:auto;mix-blend-mode:normal"/>
<path d="M43.262 365.878v33.108m-6.622-33.108v33.108m-6.621-33.108v33.108m-6.622-33.108v33.108m-6.621-6.622h33.107m-33.107-6.621h33.107m-33.107-6.622h33.107M16.776 372.5h33.107" fill="#fff" stroke="red" stroke-width=".4" style="isolation:auto;mix-blend-mode:normal"/>
<path d="M181.206 263.642v39.73h39.73" fill="none" marker-end="url(#h)" marker-start="url(#i)" stroke="#00f" style="isolation:auto;mix-blend-mode:normal"/>
<path d="M207.693 270.263v33.108m-6.622-33.108v33.108m-6.621-33.108v33.108m-6.622-33.108v33.108m-6.621-6.622h33.108m-33.108-6.621h33.108m-33.108-6.622h33.108m-33.108-6.621h33.108" fill="#fff" stroke="#00f" stroke-width=".4" style="isolation:auto;mix-blend-mode:normal"/>
<path d="m16.776 398.986 149.952-25.543" fill="none" marker-end="url(#j)" stroke="red" stroke-linecap="round" stroke-width="3" style="isolation:auto;mix-blend-mode:normal"/>
<path d="m181.206 303.371-7.84 62.658" fill="none" marker-end="url(#k)" stroke="#00f" stroke-linecap="round" stroke-width="3" style="isolation:auto;mix-blend-mode:normal"/>
<circle cx="172.525" cy="372.003" r="5.952" stroke="#fff" style="isolation:auto;mix-blend-mode:normal"/>
</g>
<g stroke-linejoin="round" stroke-miterlimit="100000" stroke-width="1.5">
<path d="M14.548 89.858c-.018-.054-.09-.198-.09-.252 0-.018.018-.036.324-.27l1.746-1.368c2.412-1.872 3.204-2.502 4.446-2.61.126-.018.306-.018.306-.324 0-.108-.054-.198-.198-.198-.198 0-.414.036-.612.036h-.684c-.558 0-1.152-.036-1.692-.036-.126 0-.342 0-.342.324 0 .18.126.198.234.198.198.018.432.09.432.342 0 .36-.54.792-.684.9l-7.056 5.49 1.494-5.94c.162-.612.198-.792 1.476-.792.342 0 .504 0 .504-.342 0-.18-.18-.18-.27-.18-.324 0-.702.036-1.044.036h-2.124c-.324 0-.72-.036-1.044-.036-.144 0-.342 0-.342.342 0 .18.162.18.432.18 1.098 0 1.098.144 1.098.342 0 .036 0 .144-.072.414l-2.43 9.684c-.162.63-.198.81-1.458.81-.342 0-.522 0-.522.324 0 .198.162.198.27.198.342 0 .702-.036 1.044-.036h2.106c.342 0 .72.036 1.062.036.144 0 .342 0 .342-.342 0-.18-.162-.18-.432-.18-1.098 0-1.098-.144-1.098-.324 0-.126.108-.576.18-.864l.702-2.79 2.736-2.142c.522 1.152 1.476 3.456 2.214 5.22.054.108.09.216.09.342 0 .54-.72.558-.882.558s-.342 0-.342.342c0 .18.198.18.252.18.63 0 1.296-.036 1.926-.036h.864c.27 0 .576.036.846.036.108 0 .306 0 .306-.342 0-.18-.162-.18-.342-.18-.666-.018-.9-.162-1.17-.81z" fill="red"/>
<path d="M150.326 7.341c-.018-.054-.09-.198-.09-.252 0-.018.018-.036.324-.27l1.746-1.368c2.412-1.872 3.204-2.502 4.446-2.61.126-.018.306-.018.306-.324 0-.108-.054-.198-.198-.198-.198 0-.414.036-.612.036h-.684c-.558 0-1.152-.036-1.692-.036-.126 0-.342 0-.342.324 0 .18.126.198.234.198.198.018.432.09.432.342 0 .36-.54.792-.684.9l-7.056 5.49 1.494-5.94c.162-.612.198-.792 1.476-.792.342 0 .504 0 .504-.342 0-.18-.18-.18-.27-.18-.325 0-.703.036-1.045.036h-2.124c-.324 0-.72-.036-1.044-.036-.144 0-.342 0-.342.342 0 .18.162.18.432.18 1.098 0 1.098.144 1.098.342 0 .036 0 .144-.072.414l-2.43 9.684c-.162.63-.198.81-1.458.81-.342 0-.522 0-.522.324 0 .198.162.198.27.198.342 0 .702-.036 1.044-.036h2.106c.342 0 .72.036 1.062.036.144 0 .342 0 .342-.342 0-.18-.162-.18-.432-.18-1.097 0-1.097-.144-1.097-.324 0-.126.107-.576.18-.864l.702-2.79 2.735-2.142c.522 1.152 1.476 3.456 2.214 5.22.054.108.09.216.09.342 0 .54-.72.558-.882.558s-.342 0-.342.342c0 .18.198.18.252.18.63 0 1.296-.036 1.926-.036h.864c.27 0 .576.036.846.036.108 0 .306 0 .306-.342 0-.18-.162-.18-.342-.18-.666-.018-.9-.162-1.17-.81zM160.84 3.011a.783.783 0 0 0 .09-.314c0-.323-.287-.529-.556-.529-.367 0-.466.278-.51.413l-1.382 3.882c-.036.108-.036.135-.036.143 0 .144.377.234.386.234.08 0 .099-.045.152-.153z" fill="#00f"/>
<path d="M134.969 132.232c.107-.466.52-2.116 1.775-2.116.09 0 .52 0 .896.233-.502.09-.86.538-.86.968 0 .287.197.628.681.628a1 1 0 0 0 .969-1.04c0-.933-1.059-1.184-1.668-1.184-1.04 0-1.668.95-1.883 1.363-.448-1.183-1.417-1.363-1.937-1.363-1.865 0-2.887 2.314-2.887 2.762 0 .18.18.18.215.18.144 0 .197-.036.233-.198.61-1.9 1.794-2.35 2.403-2.35.341 0 .969.162.969 1.202 0 .556-.305 1.758-.969 4.268-.287 1.112-.914 1.865-1.703 1.865-.108 0-.52 0-.897-.233.448-.09.843-.466.843-.968 0-.484-.395-.628-.664-.628-.538 0-.986.467-.986 1.04 0 .825.897 1.184 1.686 1.184 1.183 0 1.829-1.255 1.883-1.363.215.664.86 1.363 1.936 1.363 1.847 0 2.87-2.313 2.87-2.762 0-.179-.162-.179-.216-.179-.161 0-.197.072-.233.197-.592 1.92-1.81 2.35-2.385 2.35-.7 0-.986-.574-.986-1.184 0-.395.108-.79.305-1.578z" fill="red"/>
</g>
<g stroke-linejoin="round" stroke-miterlimit="100000">
<path d="M53.025 91.681h1.656c.342 0 .522 0 .522-.324 0-.198-.108-.198-.468-.198H53.15l.666-2.628c.072-.252.072-.288.072-.414 0-.288-.234-.45-.468-.45-.144 0-.558.054-.702.63l-.702 2.862h-1.692c-.36 0-.522 0-.522.342 0 .18.126.18.468.18h1.602l-1.188 4.752c-.144.63-.198.81-.198 1.044 0 .846.594 1.62 1.602 1.62 1.818 0 2.79-2.628 2.79-2.754 0-.108-.072-.162-.18-.162-.036 0-.108 0-.144.072-.018.018-.036.036-.162.324-.378.9-1.206 2.16-2.25 2.16-.54 0-.576-.45-.576-.846 0-.018 0-.36.054-.576zM65.51 92.401c0-1.638-1.207-1.638-1.225-1.638-.72 0-1.368.756-1.368 1.368 0 .504.378.72.54.81.756.45.9.774.9 1.134 0 .396-1.044 4.338-3.15 4.338-1.296 0-1.296-1.08-1.296-1.404 0-1.044.504-2.358 1.08-3.798.144-.36.198-.522.198-.81 0-1.044-1.044-1.62-2.034-1.62-1.908 0-2.808 2.448-2.808 2.808 0 .252.27.252.432.252.216 0 .342 0 .414-.234.576-1.944 1.53-2.178 1.854-2.178.126 0 .306 0 .306.378 0 .414-.216.936-.27 1.08-.828 2.088-1.098 2.898-1.098 3.762 0 1.908 1.548 2.412 3.114 2.412 3.096 0 4.41-5.112 4.41-6.66z"/>
<path d="M198.7 346.589c-.648.18-.972.792-.972 1.242 0 .396.306.828.9.828.63 0 1.296-.522 1.296-1.404 0-.954-.954-1.584-2.052-1.584-1.026 0-1.692.774-1.926 1.098-.45-.756-1.458-1.098-2.484-1.098-2.268 0-3.492 2.214-3.492 2.808 0 .252.27.252.432.252.216 0 .342 0 .414-.234.522-1.638 1.818-2.178 2.556-2.178.684 0 1.008.324 1.008.9 0 .342-.252 1.332-.414 1.98l-.612 2.466c-.27 1.098-.918 1.638-1.53 1.638-.09 0-.504 0-.864-.27.648-.18.972-.792.972-1.242 0-.396-.306-.828-.9-.828-.63 0-1.296.522-1.296 1.404 0 .954.954 1.584 2.052 1.584 1.026 0 1.692-.774 1.926-1.098.45.756 1.458 1.098 2.484 1.098 2.268 0 3.492-2.214 3.492-2.808 0-.252-.27-.252-.432-.252-.216 0-.342 0-.414.234-.522 1.638-1.818 2.178-2.556 2.178-.684 0-1.008-.324-1.008-.9 0-.378.234-1.332.396-1.998.126-.468.54-2.16.63-2.448.27-1.08.9-1.638 1.53-1.638.09 0 .504 0 .864.27zM204.096 340.687c.06-.156.108-.24.108-.36 0-.396-.36-.66-.696-.66-.48 0-.612.42-.66.588l-1.524 5.172c-.048.144-.048.18-.048.192 0 .108.072.132.192.168.216.096.24.096.264.096.036 0 .108 0 .192-.204z" color="#000" fill="#00f" style="isolation:auto;mix-blend-mode:normal" transform="translate(-13.736 -261.171)"/>
</g>
</svg>
