<svg width="144.755" height="96.253" xmlns="http://www.w3.org/2000/svg">
<g transform="translate(-42.78 -282.414)">
<path d="M43.28 288.116h143.755" fill="none" stroke="#000" stroke-miterlimit="100" stroke-width="2.1"/>
<g fill="#f44">
<circle cx="68.527" cy="327.966" r="7.644" color="#000" style="isolation:auto;mix-blend-mode:normal"/>
<path d="M68.527 337.018a13.334 13.334 0 0 0-13.333 13.334H81.86a13.334 13.334 0 0 0-13.334-13.334z" color="#000" style="isolation:auto;mix-blend-mode:normal"/>
<path d="M51.953 326.825c-.018-.054-.09-.198-.09-.252 0-.018.018-.036.324-.27l1.746-1.368c2.412-1.872 3.204-2.502 4.446-2.61.126-.018.306-.018.306-.324 0-.108-.054-.198-.198-.198-.198 0-.414.036-.612.036h-.684c-.558 0-1.152-.036-1.692-.036-.126 0-.342 0-.342.324 0 .18.126.198.234.198.198.018.432.09.432.342 0 .36-.54.792-.684.9l-7.056 5.49 1.494-5.94c.162-.612.198-.792 1.476-.792.342 0 .504 0 .504-.342 0-.18-.18-.18-.27-.18-.324 0-.702.036-1.044.036h-2.124c-.324 0-.72-.036-1.044-.036-.144 0-.342 0-.342.342 0 .18.162.18.432.18 1.098 0 1.098.144 1.098.342 0 .036 0 .144-.072.414l-2.43 9.684c-.162.63-.198.81-1.458.81-.342 0-.522 0-.522.324 0 .198.162.198.27.198.342 0 .702-.036 1.044-.036H47.2c.342 0 .72.036 1.062.036.144 0 .342 0 .342-.342 0-.18-.162-.18-.432-.18-1.098 0-1.098-.144-1.098-.324 0-.126.108-.576.18-.864l.702-2.79 2.736-2.142c.522 1.152 1.476 3.456 2.214 5.22.054.108.09.216.09.342 0 .54-.72.558-.882.558s-.342 0-.342.342c0 .18.198.18.252.18.63 0 1.296-.036 1.926-.036h.864c.27 0 .576.036.846.036.108 0 .306 0 .306-.342 0-.18-.162-.18-.342-.18-.666-.018-.9-.162-1.17-.81z"/>
</g>
<circle cx="129.766" cy="327.966" r="7.644" color="#000" fill="#44f" style="isolation:auto;mix-blend-mode:normal"/>
<path d="M129.766 337.018a13.334 13.334 0 0 0-13.333 13.334H143.1a13.334 13.334 0 0 0-13.334-13.334z" color="#000" fill="#44f" style="isolation:auto;mix-blend-mode:normal"/>
<g fill="#00f" stroke-linejoin="round" stroke-miterlimit="100000">
<path d="M109.192 326.825c-.018-.054-.09-.198-.09-.252 0-.018.018-.036.324-.27l1.746-1.368c2.412-1.872 3.204-2.502 4.446-2.61.126-.018.306-.018.306-.324 0-.108-.054-.198-.198-.198-.198 0-.414.036-.612.036h-.684c-.558 0-1.152-.036-1.692-.036-.126 0-.342 0-.342.324 0 .18.126.198.234.198.198.018.432.09.432.342 0 .36-.54.792-.684.9l-7.056 5.49 1.494-5.94c.162-.612.198-.792 1.476-.792.342 0 .504 0 .504-.342 0-.18-.18-.18-.27-.18-.324 0-.702.036-1.044.036h-2.124c-.324 0-.72-.036-1.044-.036-.144 0-.342 0-.342.342 0 .18.162.18.432.18 1.098 0 1.098.144 1.098.342 0 .036 0 .144-.072.414l-2.43 9.684c-.162.63-.198.81-1.458.81-.342 0-.522 0-.522.324 0 .198.162.198.27.198.342 0 .702-.036 1.044-.036h2.106c.342 0 .72.036 1.062.036.144 0 .342 0 .342-.342 0-.18-.162-.18-.432-.18-1.098 0-1.098-.144-1.098-.324 0-.126.108-.576.18-.864l.702-2.79 2.736-2.142c.522 1.152 1.476 3.456 2.214 5.22.054.108.09.216.09.342 0 .54-.72.558-.882.558s-.342 0-.342.342c0 .18.198.18.252.18.63 0 1.296-.036 1.926-.036h.864c.27 0 .576.036.846.036.108 0 .306 0 .306-.342 0-.18-.162-.18-.342-.18-.666-.018-.9-.162-1.17-.81zM119.659 320.977c.06-.156.108-.24.108-.36 0-.396-.36-.66-.696-.66-.48 0-.612.42-.66.588l-1.524 5.172c-.048.144-.048.18-.048.192 0 .108.072.132.192.168.216.096.24.096.264.096.036 0 .108 0 .192-.204z"/>
<path d="M145.696 335.946h23.715l-.508-4.305 9.957 6.027-9.957 6.026.508-4.304h-23.715v-3.444" clip-path="url(#p2985508f7a)"/>
</g>
<g color="#000">
<circle cx="55.053" cy="287.844" r="4.93" fill="red" style="isolation:auto;mix-blend-mode:normal"/>
<path d="M55.059 283.411c-.349 0-.789.333-.893.604s-.078.432-.078.51v2.347H51.74c-.077 0-.24-.026-.51.078s-.605.546-.605.895c0 .348.335.788.605.892.27.104.433.078.51.078h2.348v2.348c0 .077-.026.24.078.51s.544.605.893.605c.348 0 .79-.335.894-.605.104-.27.076-.433.076-.51v-2.348h2.338c.078 0 .24.026.51-.078s.605-.544.605-.892-.335-.791-.605-.895c-.27-.104-.432-.078-.51-.078H56.03v-2.348c0-.077.028-.24-.076-.51s-.546-.603-.894-.603z" fill="#fff" style="isolation:auto;mix-blend-mode:normal;text-decoration-color:#000;text-decoration-line:none;text-decoration-style:solid;text-indent:0;text-transform:none;white-space:normal"/>
<circle cx="79.095" cy="287.844" r="4.93" fill="red" style="isolation:auto;mix-blend-mode:normal"/>
<path d="M79.1 283.411c-.348 0-.788.333-.892.604s-.079.432-.079.51v2.347h-2.347c-.078 0-.24-.026-.51.078s-.605.546-.605.895c0 .348.335.788.605.892.27.104.432.078.51.078h2.347v2.348c0 .077-.025.24.079.51.104.27.544.605.892.605s.79-.335.895-.605c.104-.27.076-.433.076-.51v-2.348h2.338c.077 0 .24.026.51-.078s.605-.544.605-.892-.335-.791-.605-.895c-.27-.104-.433-.078-.51-.078H80.07v-2.348c0-.077.028-.24-.076-.51s-.547-.603-.895-.603z" fill="#fff" style="isolation:auto;mix-blend-mode:normal;text-decoration-color:#000;text-decoration-line:none;text-decoration-style:solid;text-indent:0;text-transform:none;white-space:normal"/>
<circle cx="103.137" cy="287.844" r="4.93" fill="red" style="isolation:auto;mix-blend-mode:normal"/>
<path d="M103.142 283.411c-.348 0-.789.333-.893.604-.104.27-.078.432-.078.51v2.347h-2.347c-.078 0-.24-.026-.51.078s-.606.546-.606.895c0 .348.336.788.606.892.27.104.432.078.51.078h2.347v2.348c0 .077-.025.24.078.51.104.27.545.605.893.605s.79-.335.895-.605c.104-.27.076-.433.076-.51v-2.348h2.338c.077 0 .239.026.51-.078.27-.104.605-.544.605-.892s-.335-.791-.606-.895c-.27-.104-.432-.078-.51-.078h-2.337v-2.348c0-.077.028-.24-.076-.51s-.547-.603-.895-.603z" fill="#fff" style="isolation:auto;mix-blend-mode:normal;text-decoration-color:#000;text-decoration-line:none;text-decoration-style:solid;text-indent:0;text-transform:none;white-space:normal"/>
<circle cx="127.178" cy="287.844" r="4.93" fill="red" style="isolation:auto;mix-blend-mode:normal"/>
<path d="M127.184 283.411c-.348 0-.789.333-.893.604-.104.27-.078.432-.078.51v2.347h-2.347c-.078 0-.24-.026-.51.078s-.606.546-.606.895.336.788.606.892.432.078.51.078h2.347v2.348c0 .077-.025.24.078.51.104.27.545.605.893.605s.79-.335.895-.605c.104-.27.076-.433.076-.51v-2.348h2.338c.077 0 .239.026.51-.078.27-.104.605-.544.605-.892s-.335-.791-.606-.895c-.27-.104-.432-.078-.51-.078h-2.337v-2.348c0-.077.028-.24-.076-.51s-.547-.603-.895-.603z" fill="#fff" style="isolation:auto;mix-blend-mode:normal;text-decoration-color:#000;text-decoration-line:none;text-decoration-style:solid;text-indent:0;text-transform:none;white-space:normal"/>
<circle cx="151.22" cy="287.844" r="4.93" fill="red" style="isolation:auto;mix-blend-mode:normal"/>
<path d="M151.225 283.411c-.348 0-.789.333-.893.604-.104.27-.078.432-.078.51v2.347h-2.347c-.078 0-.24-.026-.51.078s-.606.546-.606.895.336.788.606.892.432.078.51.078h2.347v2.348c0 .077-.026.24.078.51s.545.605.893.605.79-.335.895-.605c.104-.27.076-.433.076-.51v-2.348h2.338c.077 0 .239.026.51-.078.27-.104.605-.544.605-.892s-.335-.791-.606-.895c-.27-.104-.432-.078-.51-.078h-2.337v-2.348c0-.077.028-.24-.076-.51s-.547-.603-.895-.603z" fill="#fff" style="isolation:auto;mix-blend-mode:normal;text-decoration-color:#000;text-decoration-line:none;text-decoration-style:solid;text-indent:0;text-transform:none;white-space:normal"/>
<circle cx="175.261" cy="287.844" r="4.93" fill="red" style="isolation:auto;mix-blend-mode:normal"/>
<path d="M175.267 283.411c-.348 0-.789.333-.893.604s-.078.432-.078.51v2.347h-2.347c-.078 0-.24-.026-.51.078s-.606.546-.606.895.336.788.606.892.432.078.51.078h2.347v2.348c0 .077-.025.24.078.51.104.27.545.605.893.605s.79-.335.895-.605c.104-.27.076-.433.076-.51v-2.348h2.338c.077 0 .239.026.51-.078.27-.104.605-.544.605-.892s-.335-.791-.606-.895c-.27-.104-.432-.078-.51-.078h-2.337v-2.348c0-.077.028-.24-.076-.51s-.547-.603-.895-.603z" fill="#fff" style="isolation:auto;mix-blend-mode:normal;text-decoration-color:#000;text-decoration-line:none;text-decoration-style:solid;text-indent:0;text-transform:none;white-space:normal"/>
</g>
<g stroke-linejoin="round" stroke-miterlimit="100000" stroke-width="1.333">
<path d="M108.993 376.675c-.076.306-.096.325-.44.363-.325.02-.708.02-1.014.02-.497 0-.535 0-.612.038-.23.134-.23.44-.23.516 0 .345.345.345.651.345h8.11c3.998 0 5.796-2.525 5.796-4.228 0-1.645-1.434-2.467-3.194-2.62 3.06-.555 4.15-2.334 4.15-3.616 0-1.568-1.377-2.658-4.074-2.658h-7.67c-.383 0-.708 0-.708.554 0 .345.249.345.804.345.401 0 .765.019 1.166.038zm5.126-10.597c.077-.287.096-.306.21-.325.173-.02.307-.02.517-.02h2.85c.383 0 1.932 0 1.932 1.665 0 1.339-1.07 3.385-3.672 3.385h-3.023zm-2.276 10.98c-.287 0-.325 0-.459-.02l1.377-5.566h3.73c.498 0 2.104 0 2.104 1.951 0 1.473-.975 3.634-3.691 3.634zM127.256 363.242c.107-.228.12-.335.12-.428 0-.416-.374-.737-.79-.737-.508 0-.669.415-.736.63l-1.767 5.797c-.014.027-.067.201-.067.214 0 .161.415.295.522.295.094 0 .107-.027.2-.228zM147.194 371.702c.287 0 .65 0 .65-.383s-.363-.382-.63-.382h-11.459c-.267 0-.63 0-.63.382 0 .383.363.383.65.383zm.02 3.71c.267 0 .63 0 .63-.382s-.363-.382-.65-.382h-11.42c-.287 0-.65 0-.65.382s.363.383.631.383zM164.308 371.855c0-1.855-.02-6.427-4.629-6.427-4.61 0-4.63 4.552-4.63 6.427 0 1.894.02 6.312 4.63 6.312 4.59 0 4.629-4.4 4.629-6.312zm-4.629 5.624c-.689 0-1.76-.421-2.009-1.817-.172-.995-.172-2.984-.172-4.037 0-1.377 0-2.62.153-3.615.23-1.702 1.569-1.893 2.028-1.893.708 0 1.492.363 1.855 1.205.326.707.326 2.735.326 4.303 0 1.072 0 2.812-.134 3.807-.268 1.779-1.473 2.047-2.047 2.047zM172.114 373.959l.746-8.723c0-.63-.516-.975-1.014-.975-.497 0-1.014.344-1.014.975l.746 8.704c.02.287.039.44.268.44.191 0 .249-.096.268-.421zm.746 2.984a1.02 1.02 0 0 0-1.014-1.014c-.555 0-1.014.46-1.014 1.014s.46 1.014 1.014 1.014a1.02 1.02 0 0 0 1.014-1.014zM178.977 373.194c0-2.41 1.855-3.768 2.525-4.266a2.354 2.354 0 0 0 .918-1.874c0-1.11-.765-2.582-3.615-2.582-2.066 0-3.252 1.3-3.252 2.544 0 .65.44.918.88.918.536 0 .88-.383.88-.88 0-.86-.804-.86-1.071-.86.593-1.015 1.702-1.302 2.505-1.302 2.085 0 2.085 1.301 2.085 2.047 0 1.129-.306 1.473-.65 1.817-1.262 1.377-1.683 3.137-1.683 4.304v.86c0 .345 0 .46.23.46.248 0 .248-.172.248-.517zm.765 3.75c0-.556-.459-1.015-1.014-1.015s-1.013.46-1.013 1.014.459 1.014 1.013 1.014 1.014-.46 1.014-1.014z"/>
</g>
</g>
</svg>
