<svg width="202.559" height="149.901" xmlns="http://www.w3.org/2000/svg">
<defs>
<marker id="a" overflow="visible" orient="auto">
<path d="m-10 0-4 4L0 0l-14-4z" fill="red" fill-rule="evenodd" stroke="red" stroke-width=".8pt"/>
</marker>
<marker id="b" overflow="visible" orient="auto">
<path d="m-10 0-4 4L0 0l-14-4z" fill-rule="evenodd" stroke="#000" stroke-width=".8pt"/>
</marker>
<marker id="c" overflow="visible" orient="auto">
<path d="m-10 0-4 4L0 0l-14-4z" fill="red" fill-rule="evenodd" stroke="red" stroke-width=".8pt"/>
</marker>
<marker id="d" overflow="visible" orient="auto">
<path d="m-10 0-4 4L0 0l-14-4z" fill="#00f" fill-rule="evenodd" stroke="#00f" stroke-width=".8pt"/>
</marker>
<marker id="e" overflow="visible" orient="auto">
<path d="m-10 0-4 4L0 0l-14-4z" fill="#00f" fill-rule="evenodd" stroke="#00f" stroke-width=".8pt"/>
</marker>
</defs>
<g transform="translate(-15.863 -258.076)">
<g fill="none" stroke-miterlimit="100">
<path d="m44.55 390.219 20.49-96.938" marker-end="url(#a)" stroke="red" stroke-width=".7"/>
<path d="m44.563 390.218 106.296-97.347" marker-end="url(#b)" stroke="#000" stroke-width="1.3"/>
<path d="M44.55 390.219h85.296" marker-end="url(#c)" stroke="red" stroke-width=".7"/>
</g>
<g stroke-linejoin="round" stroke-miterlimit="100000" stroke-width="1.333">
<path d="M22.209 393.885h3.251c2.717 0 5.376-1.99 5.376-4.132 0-1.473-1.263-2.888-3.769-2.888H20.87c-.364 0-.574 0-.574.363 0 .23.172.23.555.23.248 0 .593.02.822.038.306.038.42.096.42.306 0 .077-.018.134-.076.364l-2.563 10.271c-.191.746-.23.9-1.74.9-.326 0-.536 0-.536.363 0 .23.23.23.287.23.535 0 1.894-.058 2.43-.058.4 0 .822.02 1.223.02.421 0 .842.037 1.244.037.134 0 .382 0 .382-.382 0-.21-.172-.21-.535-.21-.708 0-1.244 0-1.244-.345 0-.115.039-.21.058-.325zm1.377-5.7c.172-.67.21-.727 1.033-.727h1.836c1.588 0 2.602.516 2.602 1.836 0 .746-.383 2.391-1.129 3.08-.956.86-2.104 1.014-2.946 1.014h-2.697zM33.134 394.283c0-.362-.027-.375-.402-.375-.857.844-2.076.857-2.624.857v.482c.32 0 1.205 0 1.941-.375v6.829c0 .442 0 .616-1.339.616h-.509v.482a101.66 101.66 0 0 1 2.384-.054c.415 0 2.102.04 2.396.054v-.482h-.508c-1.34 0-1.34-.174-1.34-.616zM166.652 282.471h3.252c2.716 0 5.375-1.99 5.375-4.132 0-1.473-1.263-2.888-3.768-2.888h-6.198c-.363 0-.574 0-.574.363 0 .23.172.23.555.23.249 0 .593.02.822.038.306.038.421.096.421.306 0 .077-.019.134-.076.364l-2.563 10.271c-.192.746-.23.9-1.741.9-.325 0-.536 0-.536.363 0 .23.23.23.287.23.536 0 1.894-.058 2.43-.058.401 0 .822.02 1.224.02.42 0 .841.037 1.243.037.134 0 .383 0 .383-.382 0-.21-.173-.21-.536-.21-.708 0-1.243 0-1.243-.345 0-.115.038-.21.057-.325zm1.377-5.7c.172-.67.21-.727 1.033-.727h1.836c1.588 0 2.602.516 2.602 1.836 0 .746-.383 2.391-1.129 3.08-.956.86-2.104 1.014-2.945 1.014h-2.697zM179.853 288.948h-.455c-.04.295-.174 1.085-.348 1.218-.108.08-1.139.08-1.326.08h-2.464c1.406-1.244 1.875-1.62 2.678-2.249.991-.79 1.915-1.62 1.915-2.892 0-1.62-1.42-2.61-3.133-2.61-1.66 0-2.785 1.164-2.785 2.396 0 .683.575.75.71.75.32 0 .709-.228.709-.71 0-.241-.094-.71-.79-.71.415-.95 1.326-1.245 1.955-1.245 1.339 0 2.035 1.045 2.035 2.13 0 1.164-.83 2.088-1.258 2.57l-3.227 3.187c-.134.12-.134.147-.134.522h5.516z"/>
</g>
<ellipse cx="44.563" cy="390.218" rx="3.922" ry="3.923"/>
<ellipse cx="150.858" cy="292.871" rx="3.922" ry="3.923"/>
<g fill="#00f" stroke-linejoin="round" stroke-miterlimit="100000" stroke-width="1.333">
<path d="M20.61 265.6c-2.391.574-4.247 3.06-4.247 5.375 0 1.836 1.224 3.214 3.023 3.214 2.238 0 3.825-3.004 3.825-5.643 0-1.74-.765-2.697-1.415-3.558-.689-.86-1.818-2.295-1.818-3.137 0-.421.383-.88 1.053-.88.573 0 .956.249 1.358.516.382.23.765.479 1.052.479.478 0 .765-.46.765-.765 0-.421-.306-.479-.995-.632-.995-.21-1.262-.21-1.568-.21-1.492 0-2.181.822-2.181 1.97 0 1.033.555 2.104 1.148 3.271zm.23.42c.477.88 1.051 1.914 1.051 3.29 0 1.263-.727 4.458-2.505 4.458-1.053 0-1.837-.804-1.837-2.257 0-1.205.708-4.802 3.29-5.49zM28.694 266.308h1.798c.382 0 .574 0 .574-.383 0-.21-.192-.21-.536-.21h-1.683c.688-2.716.784-3.099.784-3.214 0-.325-.23-.516-.555-.516-.057 0-.593.02-.765.689l-.746 3.041h-1.798c-.382 0-.574 0-.574.363 0 .23.153.23.536.23h1.683c-1.377 5.432-1.454 5.758-1.454 6.102 0 1.033.727 1.76 1.76 1.76 1.951 0 3.042-2.793 3.042-2.946 0-.191-.153-.191-.23-.191-.172 0-.191.057-.287.267-.822 1.99-1.836 2.449-2.486 2.449-.402 0-.593-.249-.593-.88 0-.46.038-.593.114-.918zM35.518 259.741c.107-.228.12-.335.12-.428 0-.416-.374-.737-.79-.737-.508 0-.669.415-.736.63l-1.767 5.797a1.9 1.9 0 0 0-.067.214c0 .161.415.295.522.295.094 0 .107-.027.2-.228zM41.248 269.789c1.281 0 2.525-.115 3.328-.383 1.626-.554 1.894-1.645 1.894-2.257 0-1.11-1.052-1.836-2.62-1.836-3.463 0-5.911 2.391-5.911 5.356 0 2.2 1.473 3.443 3.998 3.443.497 0 1.817-.02 2.964-.46 1.11-.439 1.875-1.223 1.875-1.453 0-.153-.306-.497-.478-.497-.115 0-.153.057-.287.21-1.033 1.09-2.525 1.511-4.017 1.511-1.377 0-1.875-.765-1.875-1.855 0-.363.077-.995.287-1.779zm-.67-.689c.345-1.396.804-1.912 1.129-2.218.67-.67 1.55-.88 2.142-.88.689 0 1.473.306 1.473 1.166 0 1.932-2.888 1.932-4.744 1.932zM50.884 271.54h1.366c.254 0 .428 0 .428-.295 0-.187-.174-.187-.401-.187h-1.272l.495-1.982c.013-.067.04-.134.04-.187 0-.241-.187-.429-.455-.429-.335 0-.536.228-.63.576-.093.335.081-.308-.508 2.022H48.58c-.254 0-.428 0-.428.295 0 .187.16.187.401.187h1.272l-.79 3.16c-.08.335-.2.817-.2.99 0 .79.669 1.273 1.432 1.273 1.486 0 2.33-1.875 2.33-2.049 0-.174-.174-.174-.214-.174-.16 0-.174.027-.281.255-.375.843-1.058 1.593-1.795 1.593-.28 0-.468-.174-.468-.656 0-.134.053-.415.08-.55zM56.79 268.555a.819.819 0 0 0 .096-.335c0-.344-.306-.564-.593-.564-.392 0-.498.296-.545.44l-1.473 4.141c-.039.115-.039.144-.039.153 0 .153.402.249.412.249.086 0 .105-.048.162-.163zM174.75 396.115c-2.391.574-4.246 3.06-4.246 5.375 0 1.836 1.224 3.214 3.022 3.214 2.238 0 3.825-3.004 3.825-5.643 0-1.74-.765-2.697-1.415-3.558-.689-.86-1.817-2.295-1.817-3.137 0-.421.382-.88 1.052-.88.574 0 .956.249 1.358.516.383.23.765.479 1.052.479.478 0 .765-.46.765-.765 0-.421-.306-.479-.995-.632-.994-.21-1.262-.21-1.568-.21-1.492 0-2.18.822-2.18 1.97 0 1.033.554 2.104 1.147 3.271zm.23.42c.478.88 1.052 1.914 1.052 3.29 0 1.263-.727 4.458-2.506 4.458-1.052 0-1.837-.804-1.837-2.257 0-1.205.708-4.802 3.29-5.49zM185.283 398.697c.115-.497.555-2.257 1.894-2.257.095 0 .554 0 .956.249-.535.095-.918.573-.918 1.032 0 .307.21.67.727.67.42 0 1.033-.344 1.033-1.11 0-.994-1.129-1.262-1.78-1.262-1.109 0-1.778 1.014-2.008 1.454-.478-1.263-1.51-1.454-2.066-1.454-1.989 0-3.08 2.468-3.08 2.946 0 .191.192.191.23.191.153 0 .21-.038.249-.21.65-2.028 1.913-2.506 2.563-2.506.364 0 1.033.172 1.033 1.281 0 .593-.325 1.875-1.033 4.553-.306 1.186-.975 1.99-1.817 1.99-.115 0-.555 0-.956-.25.478-.095.899-.497.899-1.032 0-.517-.421-.67-.708-.67-.574 0-1.052.498-1.052 1.11 0 .88.956 1.262 1.798 1.262 1.262 0 1.951-1.339 2.008-1.454.23.708.919 1.454 2.066 1.454 1.97 0 3.06-2.467 3.06-2.946 0-.19-.171-.19-.229-.19-.172 0-.21.076-.248.21-.632 2.046-1.932 2.505-2.544 2.505-.746 0-1.053-.612-1.053-1.262 0-.421.115-.842.326-1.683zM193.67 390.256c.107-.228.12-.335.12-.428 0-.416-.374-.737-.79-.737-.508 0-.669.415-.736.63l-1.767 5.797a1.9 1.9 0 0 0-.067.214c0 .161.415.295.522.295.094 0 .107-.027.2-.228zM199.4 400.304c1.282 0 2.525-.115 3.328-.383 1.626-.554 1.894-1.645 1.894-2.257 0-1.11-1.052-1.836-2.62-1.836-3.463 0-5.911 2.391-5.911 5.356 0 2.2 1.473 3.443 3.998 3.443.497 0 1.817-.02 2.964-.46 1.11-.439 1.875-1.223 1.875-1.453 0-.153-.306-.497-.478-.497-.115 0-.153.057-.287.21-1.033 1.09-2.525 1.511-4.017 1.511-1.377 0-1.875-.765-1.875-1.855 0-.363.077-.995.287-1.779zm-.67-.689c.345-1.396.804-1.912 1.13-2.218.669-.67 1.548-.88 2.141-.88.69 0 1.473.306 1.473 1.166 0 1.932-2.888 1.932-4.743 1.932zM209.076 405.924c-.134.455-.576 1.178-1.259 1.178-.04 0-.442 0-.723-.187a.798.798 0 0 0 .59-.737c0-.294-.228-.495-.536-.495-.375 0-.763.321-.763.817 0 .67.75.977 1.406.977.615 0 1.164-.388 1.5-.95.32.71 1.057.95 1.593.95 1.54 0 2.356-1.674 2.356-2.048 0-.174-.174-.174-.214-.174-.187 0-.2.066-.254.227-.282.924-1.085 1.62-1.835 1.62-.535 0-.817-.361-.817-.87 0-.348.322-1.567.697-3.053.267-1.03.87-1.366 1.312-1.366.027 0 .442 0 .723.188a.79.79 0 0 0-.59.736c0 .295.228.496.536.496.308 0 .75-.255.75-.817 0-.75-.857-.978-1.392-.978-.67 0-1.205.442-1.5.951-.241-.549-.857-.95-1.607-.95-1.5 0-2.356 1.646-2.356 2.048 0 .174.187.174.227.174.174 0 .188-.053.255-.228.334-1.044 1.178-1.62 1.834-1.62.442 0 .803.241.803.884 0 .268-.16.937-.28 1.393zM217.827 399.07a.819.819 0 0 0 .096-.335c0-.344-.306-.564-.593-.564-.392 0-.498.296-.545.44l-1.473 4.141c-.039.115-.039.144-.039.153 0 .153.402.249.412.249.086 0 .105-.048.162-.163z"/>
</g>
<g fill="red" stroke-linejoin="round" stroke-miterlimit="100000" stroke-width="1.333">
<path d="M74.678 305.32c-2.39.574-4.246 3.06-4.246 5.375 0 1.836 1.224 3.214 3.022 3.214 2.238 0 3.826-3.004 3.826-5.643 0-1.74-.765-2.697-1.416-3.558-.688-.86-1.817-2.295-1.817-3.137 0-.421.383-.88 1.052-.88.574 0 .957.249 1.358.516.383.23.766.479 1.053.479.478 0 .765-.46.765-.765 0-.421-.306-.479-.995-.632-.995-.21-1.262-.21-1.569-.21-1.492 0-2.18.822-2.18 1.97 0 1.033.555 2.104 1.147 3.271zm.23.42c.478.88 1.052 1.914 1.052 3.29 0 1.263-.727 4.458-2.506 4.458-1.052 0-1.836-.804-1.836-2.257 0-1.205.708-4.802 3.29-5.49zM82.763 306.028h1.798c.382 0 .574 0 .574-.383 0-.21-.192-.21-.536-.21h-1.683c.688-2.716.784-3.099.784-3.214 0-.325-.23-.516-.555-.516-.057 0-.593.02-.765.689l-.746 3.041h-1.798c-.383 0-.574 0-.574.363 0 .23.153.23.536.23h1.683c-1.377 5.432-1.454 5.758-1.454 6.102 0 1.033.727 1.76 1.76 1.76 1.951 0 3.041-2.793 3.041-2.946 0-.191-.153-.191-.23-.191-.171 0-.19.057-.286.267-.823 1.99-1.836 2.449-2.487 2.449-.401 0-.593-.249-.593-.88 0-.46.039-.593.115-.918zM89.95 309.509c1.282 0 2.525-.115 3.329-.383 1.626-.554 1.893-1.645 1.893-2.257 0-1.11-1.052-1.836-2.62-1.836-3.462 0-5.91 2.391-5.91 5.356 0 2.2 1.472 3.443 3.997 3.443.497 0 1.817-.02 2.965-.46 1.11-.439 1.874-1.223 1.874-1.453 0-.153-.306-.497-.478-.497-.115 0-.153.057-.287.21-1.033 1.09-2.525 1.511-4.017 1.511-1.377 0-1.874-.765-1.874-1.855 0-.363.076-.995.287-1.779zm-.67-.689c.345-1.396.804-1.912 1.13-2.218.669-.67 1.549-.88 2.142-.88.688 0 1.473.306 1.473 1.166 0 1.932-2.889 1.932-4.744 1.932zM99.587 311.259h1.365c.255 0 .429 0 .429-.295 0-.187-.174-.187-.402-.187h-1.272l.495-1.982c.014-.067.04-.134.04-.187 0-.241-.187-.429-.455-.429-.334 0-.535.228-.629.576-.094.335.08-.308-.509 2.022h-1.366c-.254 0-.428 0-.428.295 0 .187.16.187.402.187h1.272l-.79 3.16c-.08.335-.201.817-.201.99 0 .79.67 1.273 1.433 1.273 1.486 0 2.33-1.875 2.33-2.049 0-.174-.175-.174-.215-.174-.16 0-.174.027-.281.255-.375.843-1.058 1.593-1.794 1.593-.281 0-.469-.174-.469-.656 0-.134.054-.415.08-.55zM91.108 371.788c-2.391.574-4.247 3.06-4.247 5.375 0 1.836 1.225 3.214 3.023 3.214 2.238 0 3.825-3.004 3.825-5.643 0-1.74-.765-2.697-1.415-3.558-.689-.86-1.817-2.295-1.817-3.137 0-.421.382-.88 1.052-.88.574 0 .956.249 1.358.516.382.23.765.479 1.052.479.478 0 .765-.46.765-.765 0-.421-.306-.479-.995-.632-.994-.21-1.262-.21-1.568-.21-1.492 0-2.18.822-2.18 1.97 0 1.033.554 2.104 1.147 3.271zm.23.42c.478.88 1.052 1.914 1.052 3.29 0 1.263-.727 4.458-2.506 4.458-1.052 0-1.837-.804-1.837-2.257 0-1.205.708-4.802 3.29-5.49zM101.641 374.37c.115-.497.555-2.257 1.894-2.257.095 0 .554 0 .956.249-.535.095-.918.573-.918 1.032 0 .307.21.67.727.67.42 0 1.033-.344 1.033-1.11 0-.994-1.129-1.262-1.78-1.262-1.109 0-1.778 1.014-2.008 1.454-.478-1.263-1.51-1.454-2.065-1.454-1.99 0-3.08 2.468-3.08 2.946 0 .191.191.191.23.191.152 0 .21-.038.248-.21.65-2.028 1.913-2.506 2.563-2.506.364 0 1.033.172 1.033 1.281 0 .593-.325 1.875-1.033 4.553-.306 1.186-.975 1.99-1.817 1.99-.115 0-.555 0-.956-.25.478-.095.899-.497.899-1.032 0-.517-.421-.67-.708-.67-.574 0-1.052.498-1.052 1.11 0 .88.956 1.262 1.798 1.262 1.262 0 1.951-1.339 2.008-1.454.23.708.919 1.454 2.066 1.454 1.97 0 3.06-2.467 3.06-2.946 0-.19-.171-.19-.229-.19-.172 0-.21.076-.248.21-.632 2.046-1.932 2.505-2.544 2.505-.746 0-1.053-.612-1.053-1.262 0-.421.115-.842.326-1.683zM110.389 375.977c1.282 0 2.525-.115 3.328-.383 1.626-.554 1.894-1.645 1.894-2.257 0-1.11-1.052-1.836-2.62-1.836-3.463 0-5.911 2.391-5.911 5.356 0 2.2 1.473 3.443 3.998 3.443.497 0 1.817-.02 2.964-.46 1.11-.439 1.875-1.223 1.875-1.453 0-.153-.306-.497-.478-.497-.115 0-.153.057-.287.21-1.033 1.09-2.525 1.511-4.017 1.511-1.377 0-1.875-.765-1.875-1.855 0-.363.077-.995.287-1.779zm-.67-.689c.345-1.396.804-1.912 1.13-2.218.669-.67 1.548-.88 2.141-.88.69 0 1.473.306 1.473 1.166 0 1.932-2.888 1.932-4.743 1.932zM120.066 381.597c-.134.455-.576 1.178-1.259 1.178-.04 0-.442 0-.723-.187a.798.798 0 0 0 .59-.737c0-.294-.228-.495-.536-.495-.375 0-.763.321-.763.817 0 .67.75.977 1.406.977.615 0 1.164-.388 1.5-.95.32.71 1.057.95 1.593.95 1.54 0 2.356-1.674 2.356-2.048 0-.174-.174-.174-.214-.174-.187 0-.2.066-.254.227-.282.924-1.085 1.62-1.835 1.62-.535 0-.817-.361-.817-.87 0-.348.322-1.567.697-3.053.267-1.03.87-1.366 1.312-1.366.027 0 .442 0 .723.188a.79.79 0 0 0-.59.736c0 .295.228.496.536.496s.75-.255.75-.817c0-.75-.857-.978-1.392-.978-.67 0-1.205.442-1.5.951-.241-.549-.857-.95-1.607-.95-1.5 0-2.356 1.646-2.356 2.048 0 .174.187.174.227.174.174 0 .188-.053.255-.228.334-1.044 1.178-1.62 1.834-1.62.442 0 .803.241.803.884 0 .268-.16.937-.28 1.393z"/>
</g>
<g fill="none" stroke-miterlimit="100" stroke-width=".7">
<path d="M65.04 293.281h85.296l-20.49 96.938" stroke="red" stroke-dasharray="2.09999975, 2.09999975"/>
<g stroke="#00f">
<path d="m30.636 280.951 120.518 11.716 13.865 109.275" stroke-dasharray="2.09999987, 2.09999987"/>
<path d="m44.55 390.219 120.469 11.723" marker-end="url(#d)"/>
<path d="M44.55 390.219 30.636 280.951" marker-end="url(#e)"/>
</g>
</g>
</g>
</svg>
