<svg width="126.18" height="121.345" viewBox="0 0 33.385 32.106" xmlns="http://www.w3.org/2000/svg">
<g transform="translate(-5.1 -259.826)">
<g stroke-linejoin="round" stroke-miterlimit="100000">
<path d="M20.949 269.415h-3.733l.115.288-1.496-.403 1.496-.403-.115.288h3.733v.23M22.1 266.385l-2.64-2.64-.122.285-.773-1.342 1.342.773-.285.122 2.64 2.64-.163.162M25.062 265.072v-3.733l-.288.115.403-1.495.403 1.495-.288-.115v3.733h-.23M28.092 266.222l2.64-2.64-.285-.121 1.342-.773-.773 1.342-.122-.285-2.639 2.64-.163-.163M29.405 269.185h3.733l-.115-.288 1.496.403-1.496.403.115-.288h-3.733v-.23M28.255 272.215l2.64 2.64.121-.285.773 1.342-1.342-.773.285-.122-2.64-2.64.163-.162M25.292 273.528v3.733l.288-.115-.403 1.495-.403-1.495.288.115v-3.733h.23M22.262 272.378l-2.64 2.64.285.121-1.342.773.773-1.342.122.285 2.64-2.64.162.163" clip-path="url(#p2985508f7a)"/>
</g>
<path d="M25.391 270.529c.764-.29 1.488-1.167 1.488-2.118 0-.793-.522-1.325-1.256-1.325-1.064 0-2.148 1.118-2.148 2.266 0 .817.552 1.315 1.261 1.315.123 0 .29-.02.483-.074-.02.305-.02.315-.02.38 0 .157 0 .541.409.541.586 0 .823-.901.823-.955 0-.035-.035-.05-.055-.05-.04 0-.049.025-.059.054-.118.35-.404.473-.576.473-.227 0-.3-.133-.35-.507zm-.93-.04c-.385-.152-.552-.536-.552-.98 0-.34.128-1.039.502-1.57.36-.503.823-.73 1.182-.73.493 0 .852.385.852 1.045 0 .492-.25 1.645-1.078 2.108-.025-.173-.074-.532-.434-.532a.529.529 0 0 0-.502.502c0 .099.03.153.03.158zm.305.055c-.07 0-.227 0-.227-.212 0-.197.187-.394.394-.394s.3.118.3.419c0 .074-.004.078-.053.098a1.094 1.094 0 0 1-.414.089z"/>
<circle cx="25.364" cy="285.877" r="2.023" color="#000" fill="#44f" style="isolation:auto;mix-blend-mode:normal"/>
<path d="M25.364 288.272a3.528 3.528 0 0 0-3.528 3.528h7.056a3.528 3.528 0 0 0-3.528-3.528z" color="#000" fill="#44f" style="isolation:auto;mix-blend-mode:normal"/>
<path d="M19.92 285.575c-.005-.014-.024-.052-.024-.067 0-.005.005-.01.086-.071l.462-.362c.638-.495.848-.662 1.176-.69.034-.006.081-.006.081-.086 0-.029-.014-.053-.052-.053-.052 0-.11.01-.162.01h-.181c-.148 0-.305-.01-.448-.01-.033 0-.09 0-.09.086 0 .048.033.052.062.052.052.005.114.024.114.09 0 .096-.143.21-.18.239l-1.868 1.453.395-1.572c.043-.162.053-.21.391-.21.09 0 .133 0 .133-.09 0-.048-.047-.048-.071-.048-.086 0-.186.01-.276.01h-.562c-.086 0-.19-.01-.277-.01-.038 0-.09 0-.09.09 0 .048.043.048.114.048.29 0 .29.038.29.09 0 .01 0 .039-.018.11l-.643 2.563c-.043.166-.053.214-.386.214-.09 0-.138 0-.138.086 0 .052.043.052.071.052.09 0 .186-.01.277-.01h.557c.09 0 .19.01.28.01.039 0 .091 0 .091-.09 0-.048-.043-.048-.114-.048-.29 0-.29-.038-.29-.086 0-.033.028-.152.047-.228l.186-.739.724-.566c.138.305.39.914.586 1.38a.197.197 0 0 1 .023.091c0 .143-.19.148-.233.148-.043 0-.09 0-.09.09 0 .048.052.048.066.048.167 0 .343-.01.51-.01h.228c.072 0 .153.01.224.01.029 0 .081 0 .081-.09 0-.048-.043-.048-.09-.048-.177-.005-.238-.043-.31-.214zM22.69 284.028c.015-.041.028-.064.028-.095 0-.105-.095-.175-.184-.175-.127 0-.162.111-.175.156l-.403 1.368c-.013.038-.013.048-.013.05 0 .03.02.036.051.045.057.026.064.026.07.026.01 0 .029 0 .05-.054z" fill="#00f"/>
<g fill="#f44">
<circle cx="11.78" cy="285.877" r="2.023" color="#000" style="isolation:auto;mix-blend-mode:normal"/>
<path d="M11.78 288.272a3.528 3.528 0 0 0-3.528 3.528h7.056a3.528 3.528 0 0 0-3.528-3.528z" color="#000" style="isolation:auto;mix-blend-mode:normal"/>
<path d="M7.395 285.575c-.005-.014-.024-.052-.024-.067 0-.005.005-.01.086-.071l.462-.362c.638-.495.847-.662 1.176-.69.033-.006.081-.006.081-.086 0-.029-.014-.053-.052-.053-.053 0-.11.01-.162.01H8.78c-.148 0-.305-.01-.448-.01-.033 0-.09 0-.09.086 0 .048.033.052.061.052.053.005.115.024.115.09 0 .096-.143.21-.181.239l-1.867 1.453.395-1.572c.043-.162.053-.21.39-.21.091 0 .134 0 .134-.09 0-.048-.048-.048-.071-.048-.086 0-.186.01-.277.01H6.38c-.085 0-.19-.01-.276-.01-.038 0-.09 0-.09.09 0 .048.043.048.114.048.29 0 .29.038.29.09 0 .01 0 .039-.019.11l-.642 2.563c-.043.166-.053.214-.386.214-.09 0-.138 0-.138.086 0 .052.043.052.071.052.09 0 .186-.01.276-.01h.558c.09 0 .19.01.28.01.039 0 .091 0 .091-.09 0-.048-.043-.048-.114-.048-.29 0-.29-.038-.29-.086 0-.033.028-.152.047-.228l.186-.739.723-.566c.139.305.391.914.586 1.38a.197.197 0 0 1 .024.091c0 .143-.19.148-.233.148-.043 0-.09 0-.09.09 0 .048.052.048.066.048.167 0 .343-.01.51-.01h.228c.072 0 .152.01.224.01.028 0 .08 0 .08-.09 0-.048-.042-.048-.09-.048-.176-.005-.238-.043-.31-.214z"/>
</g>
<path d="M29.579 287.988h6.274l-.134-1.139 2.634 1.595-2.634 1.594.134-1.139H29.58v-.911" clip-path="url(#p2985508f7a)" fill="#00f"/>
</g>
</svg>
