<svg width="141.819" height="143.823" xmlns="http://www.w3.org/2000/svg">
<defs>
<marker id="a" overflow="visible" orient="auto">
<path d="m-10 0-4 4L0 0l-14-4z" fill-rule="evenodd" stroke="#000" stroke-width=".8pt"/>
</marker>
<marker id="b" overflow="visible" orient="auto">
<path d="m-4 0-2 2 7-2-7-2z" fill="red" fill-rule="evenodd" stroke="red" stroke-width=".4pt"/>
</marker>
<marker id="c" overflow="visible" orient="auto">
<path d="m-10 0-4 4L0 0l-14-4z" fill-rule="evenodd" stroke="#000" stroke-width=".8pt"/>
</marker>
</defs>
<path d="M18.162 370.069H157.04" fill="none" marker-end="url(#a)" stroke="#000" stroke-miterlimit="100000" transform="translate(-17.662 -246.829)"/>
<g stroke-linejoin="round" stroke-miterlimit="100000" stroke-width="1.333">
<path d="M136.219 135.465c.115-.497.555-2.257 1.894-2.257.095 0 .554 0 .956.249-.536.095-.918.573-.918 1.032 0 .307.21.67.727.67.42 0 1.033-.344 1.033-1.11 0-.994-1.129-1.262-1.78-1.262-1.109 0-1.778 1.014-2.008 1.454-.478-1.263-1.51-1.454-2.066-1.454-1.989 0-3.08 2.468-3.08 2.946 0 .191.192.191.23.191.153 0 .21-.038.249-.21.65-2.028 1.913-2.506 2.563-2.506.364 0 1.033.172 1.033 1.281 0 .593-.325 1.875-1.033 4.553-.306 1.186-.975 1.99-1.817 1.99-.115 0-.555 0-.956-.25.478-.095.899-.497.899-1.032 0-.517-.421-.67-.708-.67-.574 0-1.052.498-1.052 1.11 0 .88.956 1.262 1.798 1.262 1.262 0 1.95-1.339 2.008-1.454.23.708.918 1.454 2.066 1.454 1.97 0 3.06-2.467 3.06-2.946 0-.19-.171-.19-.229-.19-.172 0-.21.076-.249.21-.63 2.046-1.932 2.505-2.544 2.505-.746 0-1.052-.612-1.052-1.262 0-.421.115-.842.326-1.683zM7.595 8.153h1.798c.382 0 .573 0 .573-.383 0-.21-.19-.21-.535-.21H7.748c.688-2.716.784-3.099.784-3.214 0-.325-.23-.516-.555-.516-.057 0-.593.02-.765.689L6.466 7.56H4.668c-.383 0-.574 0-.574.363 0 .23.153.23.536.23h1.683c-1.377 5.432-1.454 5.758-1.454 6.102 0 1.033.727 1.76 1.76 1.76 1.951 0 3.041-2.793 3.041-2.946 0-.191-.153-.191-.23-.191-.171 0-.19.057-.286.267-.823 1.99-1.836 2.449-2.487 2.449-.401 0-.593-.249-.593-.88 0-.46.038-.593.115-.918zM15.967 132.919c0-3.08-2.028-5.146-4.878-5.146-4.132 0-8.34 4.343-8.34 8.8 0 3.175 2.143 5.107 4.897 5.107 4.055 0 8.32-4.19 8.32-8.761zm-8.206 8.263c-1.894 0-3.233-1.549-3.233-4.074 0-.842.268-3.634 1.74-5.872 1.32-1.99 3.195-2.984 4.706-2.984 1.569 0 3.29 1.07 3.29 3.921 0 1.377-.516 4.361-2.41 6.714-.918 1.167-2.486 2.295-4.093 2.295z"/>
</g>
<path d="M55.059 390.153v-23.147c0-7.716 0-15.431 4.793-23.147 4.794-7.716 14.382-15.431 23.97-23.147 9.588-7.716 19.176-15.431 23.97-23.147s4.794-15.431 4.794-23.147V251.27" fill="none" marker-end="url(#b)" stroke="red" stroke-miterlimit="100" stroke-width="2" transform="translate(-17.662 -246.829)"/>
<g fill="red">
<path d="M53.015 142.15h-1.507l-.113-.84h1.217q.443 0 .443-.416v-1.971h-2.169v-.787h2.169v-1.58l-2.526-.014v-.773l2.526.013v-1.488h-1.713v-.734h2.335q.74-1.005 1.051-1.74h-2.334q-.728 1.171-1.62 2.044l-.648-.456q1.468-1.686 2.129-3.412l.952.211q-.178.457-.397.88h2.996l.304.192q-.397.932-1.402 2.281h1.997v2.235l.675.007v.774l-.675-.007v2.85h-.998v-.496h-1.64v2.248q0 .457-.298.714-.29.265-.754.265zm1.052-7.856v1.495l1.64.007v-1.502zm0 2.268v1.574h1.64v-1.567zm-9.675-1.58v-.728h2.52v-.958h-2.063v-.701h2.063v-.9h-2.255v-.7h2.255v-.834h.965v.833h2.321v.701h-2.32v.9h1.957v.7h-1.958v.96h2.387v.727zm4.437 4.834h-2.995v2.38h-.94v-6.355h4.914v5.443q0 .383-.317.615-.318.238-.662.238h-1.282l-.113-.84h.913q.482 0 .482-.417zm0-2.348v-.965h-2.995v.965zm-2.995 1.673h2.995v-1.005h-2.995zM58.147 141.793v-.84h1.944v-7.942h1.065v7.942h3.108v-10.54h1.077v3.656h4.477v.834h-4.477v6.05h5.277v.84zM65.478 103.529q0 2.083-.648 4.14-.642 2.05-1.878 3.471l-.714-.529q1.064-1.263 1.633-3.16.575-1.898.575-4.147v-.853H62.76v-.8h1.686v-2.599h1.032v2.599h3.108v1.818l-.007 1.951q-.006 1.019-.08 2.11-.065 1.09-.237 1.818-.166.728-.384 1.019-.211.29-.542.45-.33.158-.734.158H65.16l-.119-.926h1.045q.37 0 .595-.086.225-.092.364-.297.139-.205.231-.596.1-.39.166-1.025.073-.634.092-1.263.02-.634.02-2.916v-1.415h-2.076zm8.127 6.408h-2.573v.978h-1.031V100.09h4.635v10.733h-1.031zm-2.573-.86h2.573v-8.16h-2.573zM88.728 108.046l-.503.787q-2.222-.893-3.835-2.566v3.148h-.985v-3.082q-1.627 1.64-3.63 2.447l-.371-.681q1.157-.51 2.242-1.376 1.09-.866 1.474-1.368h-2.942v-3.32h3.2v-1.104h-3.743v-.814h3.743v-.952h1.025v.952h3.822v.814h-3.822v1.104h3.234v3.32h-2.983q.675.773 1.832 1.534 1.164.76 2.242 1.157zm-2.09-3.386v-1.904h-2.235v1.904zm-3.26 0v-1.904H81.17v1.904zm-4.364-3.187-.926.549q-.595-1.058-1.587-2.268l.84-.523q1.038 1.283 1.673 2.242zm9.932 8.451-.192.9-3.69.013q-2.784 0-3.432-.06t-1.329-.212q-.68-.145-1.19-.489-.503-.35-.734-.76-1.098 1.124-2.169 1.646l-.357-.886q.364-.159 1.018-.588.662-.437.926-.695v-4.034h-1.752v-.82h2.79v4.246q0 .621.437 1.018.436.39 1.025.53.588.131 1.104.204.516.073 2.996.073 3.2 0 4.55-.086zM112.307 57.138v2.043q0 4.457-1.64 6.825l-.72-.443q1.394-2.348 1.394-5.886v-3.326h5.139v-2.255h1.051v2.255h2.903v.787h-2.877q.113 2.672.609 4.444.714-1.825.952-3.135l.939.252q-.423 1.864-1.514 4.066.264.734.661 1.449.403.707.622.707.072 0 .138-.092.067-.093.126-.953.06-.86.066-1.362l.787.132q0 2.037-.165 2.778-.166.747-.774.747-.278 0-.555-.198-.271-.192-.715-.86-.443-.675-.747-1.323-.754 1.263-1.739 2.394l-.668-.47q1.15-1.362 1.97-2.975-.8-2.222-.971-5.601zm6.976-1.065q-.35-.489-1.064-1.408l.68-.443q.536.562 1.118 1.355zm-9.363.814q-.543-.8-1.521-1.865l.747-.575q.582.621 1.547 1.805zm-.556 3.154q-.687-1.005-1.461-1.898l.774-.562q.535.628 1.487 1.838zm3.551-.913v-.72h3.26v.72zm1.012 5.066v.555h-.86v-4.272h3.148v3.717zm1.448-3.049h-1.448v2.374h1.448zm-6.546 4.795-.86-.516q.873-1.448 1.633-4.444l.814.291q-.82 3.234-1.587 4.669zM134.334 63.122l-.503.787q-2.222-.893-3.835-2.566v3.148h-.985v-3.082q-1.627 1.64-3.63 2.447l-.371-.681q1.157-.51 2.242-1.376 1.09-.866 1.474-1.368h-2.942v-3.32h3.2v-1.104h-3.743v-.814h3.743v-.952h1.025v.952h3.822v.814h-3.822v1.104h3.234v3.32h-2.983q.675.773 1.832 1.534 1.164.76 2.242 1.157zm-2.09-3.386v-1.904h-2.235v1.904zm-3.26 0v-1.904h-2.208v1.904zm-4.364-3.187-.926.549q-.595-1.058-1.587-2.268l.84-.523q1.038 1.283 1.673 2.242zM134.552 65l-.192.9-3.69.013q-2.784 0-3.432-.06t-1.329-.212q-.68-.145-1.19-.489-.503-.35-.734-.76-1.098 1.124-2.169 1.646l-.357-.886q.364-.159 1.018-.588.662-.437.926-.695v-4.034h-1.752v-.82h2.79v4.246q0 .621.437 1.018.436.39 1.025.53.588.131 1.104.204.516.073 2.996.073 3.2 0 4.55-.086z"/>
</g>
<g fill="none" stroke="#000" transform="translate(-17.662 -246.829)">
<path d="M38.162 390.069V251.192" marker-end="url(#c)" stroke-miterlimit="100000"/>
<circle cx="59.986" cy="346.312" r="15.203" stroke-dasharray="1.4, 1.4" stroke-width=".7"/>
<circle cx="107.784" cy="296.271" r="15.203" stroke-dasharray="1.4, 1.4" stroke-width=".7"/>
</g>
</svg>
