<svg width="172.845" height="140.761" xmlns="http://www.w3.org/2000/svg">
<defs>
<marker id="a" overflow="visible" orient="auto">
<path d="m-10 0-4 4L0 0l-14-4z" fill-rule="evenodd" stroke="#000" stroke-width=".8pt"/>
</marker>
<marker id="b" overflow="visible" orient="auto">
<path d="m-10 0-4 4L0 0l-14-4z" fill-rule="evenodd" stroke="#000" stroke-width=".8pt"/>
</marker>
<marker id="c" overflow="visible" orient="auto">
<path d="m-10 0-4 4L0 0l-14-4z" fill="#00f" fill-rule="evenodd" stroke="#00f" stroke-width=".8pt"/>
</marker>
<marker id="d" overflow="visible" orient="auto">
<path d="m-10 0-4 4L0 0l-14-4z" fill="#00f" fill-rule="evenodd" stroke="#00f" stroke-width=".8pt"/>
</marker>
<marker id="e" overflow="visible" orient="auto">
<path d="m-10 0-4 4L0 0l-14-4z" fill="red" fill-rule="evenodd" stroke="red" stroke-width=".8pt"/>
</marker>
<marker id="f" overflow="visible" orient="auto">
<path d="m-10 0-4 4L0 0l-14-4z" fill="red" fill-rule="evenodd" stroke="red" stroke-width=".8pt"/>
</marker>
<marker id="g" overflow="visible" orient="auto">
<path d="m-10 0-4 4L0 0l-14-4z" fill="red" fill-rule="evenodd" stroke="red" stroke-width=".8pt"/>
</marker>
<marker id="h" overflow="visible" orient="auto">
<path d="m-10 0-4 4L0 0l-14-4z" fill="red" fill-rule="evenodd" stroke="red" stroke-width=".8pt"/>
</marker>
</defs>
<g fill="none">
<path d="M.938 116.075a6.731 6.731 0 0 0 5.908 3.48h28.771a6.734 6.734 0 0 0 5.91-3.48" stroke="#00f" stroke-linejoin="round" stroke-miterlimit="100"/>
<path d="M45.508 116.075a6.731 6.731 0 0 0 5.908 3.48h64.113a6.731 6.731 0 0 0 5.909-3.48" stroke="#f90000" stroke-linejoin="round" stroke-miterlimit="100"/>
<path d="M69.229 366.584v-77.707" marker-end="url(#a)" stroke="#000" stroke-miterlimit="100000" transform="translate(-19.292 -265.503)"/>
<g stroke-miterlimit="100">
<path d="M69.229 366.584h77.707" marker-end="url(#b)" stroke="#000" transform="translate(-19.292 -265.503)"/>
<path d="m48.247 379.239 57.02-112.37" marker-end="url(#c)" stroke="#00f" stroke-width=".5" transform="translate(-19.292 -265.503)"/>
<path d="m26.764 379.239 57.02-112.37" marker-end="url(#d)" stroke="#00f" stroke-width=".5" transform="translate(-19.292 -265.503)"/>
</g>
<g stroke="red" stroke-miterlimit="100" stroke-width=".5">
<path d="M69.73 379.239c19.007-37.458 38.013-74.915 57.02-112.37" marker-end="url(#e)" transform="translate(-19.292 -265.503)"/>
<path d="m91.212 379.239 57.02-112.37" marker-end="url(#f)" transform="translate(-19.292 -265.503)"/>
<path d="m112.695 379.239 57.02-112.37" marker-end="url(#g)" transform="translate(-19.292 -265.503)"/>
<path d="m134.178 379.239 57.02-112.37" marker-end="url(#h)" transform="translate(-19.292 -265.503)"/>
</g>
</g>
<g stroke-linejoin="round" stroke-miterlimit="100000" stroke-width="1.333">
<path d="M137.576 106.331c1.282 0 2.525-.115 3.329-.383 1.625-.554 1.893-1.645 1.893-2.257 0-1.11-1.052-1.836-2.62-1.836-3.463 0-5.911 2.391-5.911 5.356 0 2.2 1.473 3.443 3.998 3.443.497 0 1.817-.02 2.965-.46 1.11-.439 1.874-1.223 1.874-1.453 0-.153-.306-.497-.478-.497-.115 0-.153.057-.287.21-1.033 1.09-2.525 1.511-4.017 1.511-1.377 0-1.874-.765-1.874-1.855 0-.363.076-.995.287-1.779zm-.67-.689c.345-1.396.804-1.912 1.13-2.218.669-.67 1.549-.88 2.142-.88.688 0 1.473.306 1.473 1.166 0 1.932-2.889 1.932-4.744 1.932zM147.254 111.951c-.134.455-.576 1.178-1.258 1.178-.04 0-.442 0-.724-.187a.798.798 0 0 0 .59-.737c0-.294-.228-.495-.536-.495-.375 0-.763.321-.763.817 0 .67.75.977 1.406.977.616 0 1.165-.388 1.5-.95.32.71 1.057.95 1.593.95 1.54 0 2.356-1.674 2.356-2.048 0-.174-.174-.174-.214-.174-.187 0-.2.066-.254.227-.281.924-1.085 1.62-1.835 1.62-.535 0-.816-.361-.816-.87 0-.348.32-1.567.696-3.053.268-1.03.87-1.366 1.312-1.366.027 0 .442 0 .723.188a.79.79 0 0 0-.589.736c0 .295.228.496.536.496s.75-.255.75-.817c0-.75-.858-.978-1.393-.978-.67 0-1.205.442-1.5.951-.24-.549-.857-.95-1.607-.95-1.5 0-2.356 1.646-2.356 2.048 0 .174.187.174.227.174.174 0 .188-.053.255-.228.335-1.044 1.178-1.62 1.834-1.62.442 0 .804.241.804.884 0 .268-.161.937-.282 1.393zM31.297 18.331c1.282 0 2.525-.115 3.329-.383 1.626-.554 1.893-1.645 1.893-2.257 0-1.11-1.052-1.836-2.62-1.836-3.462 0-5.91 2.391-5.91 5.356 0 2.2 1.472 3.443 3.997 3.443.497 0 1.817-.02 2.965-.46 1.11-.439 1.874-1.223 1.874-1.453 0-.153-.306-.497-.478-.497-.115 0-.153.057-.287.21-1.033 1.09-2.525 1.511-4.017 1.511-1.377 0-1.874-.765-1.874-1.855 0-.363.076-.995.287-1.779zm-.67-.689c.345-1.396.804-1.912 1.13-2.218.669-.67 1.549-.88 2.142-.88.688 0 1.473.306 1.473 1.166 0 1.932-2.889 1.932-4.744 1.932zM40.934 20.081h1.365c.255 0 .429 0 .429-.295 0-.187-.174-.187-.402-.187h-1.272l.496-1.982c.013-.067.04-.134.04-.187 0-.241-.188-.429-.456-.429-.334 0-.535.228-.629.576-.094.335.08-.308-.509 2.022h-1.365c-.255 0-.429 0-.429.295 0 .187.16.187.402.187h1.272l-.79 3.16c-.08.335-.201.817-.201.99 0 .79.67 1.273 1.433 1.273 1.486 0 2.33-1.875 2.33-2.049 0-.174-.175-.174-.215-.174-.16 0-.174.027-.28.255-.376.843-1.059 1.593-1.795 1.593-.281 0-.469-.174-.469-.656 0-.134.054-.415.08-.55z"/>
</g>
<g stroke-linejoin="round" stroke-miterlimit="100000" stroke-width="1.333">
<path d="M21.123 124.385c0-.363-.268-.689-.727-.689-.44 0-1.014.44-1.014 1.014 0 .383.268.689.708.689.517 0 1.033-.498 1.033-1.014zm-3.845 12.912c-.363 1.453-1.281 2.544-2.352 2.544-.115 0-.402 0-.746-.172.573-.134.86-.632.86-1.014 0-.306-.21-.67-.727-.67-.478 0-1.032.402-1.032 1.09 0 .766.765 1.186 1.683 1.186 1.339 0 3.118-1.013 3.596-2.907l1.76-7.001c.095-.383.095-.65.095-.708 0-1.09-.803-1.76-1.76-1.76-1.95 0-3.04 2.774-3.04 2.946 0 .192.19.192.229.192.172 0 .191-.02.344-.383.478-1.167 1.358-2.334 2.41-2.334.268 0 .612.077.612.88 0 .44-.057.65-.134.976zM24.711 137.79c-.134.455-.576 1.178-1.258 1.178-.04 0-.442 0-.723-.187a.798.798 0 0 0 .589-.737c0-.294-.228-.495-.536-.495-.375 0-.763.321-.763.817 0 .67.75.977 1.406.977.616 0 1.165-.388 1.5-.95.32.71 1.057.95 1.593.95 1.54 0 2.356-1.674 2.356-2.048 0-.174-.174-.174-.214-.174-.187 0-.2.066-.254.227-.281.924-1.085 1.62-1.835 1.62-.535 0-.816-.361-.816-.87 0-.348.32-1.567.696-3.053.268-1.03.87-1.366 1.312-1.366.027 0 .442 0 .723.188a.79.79 0 0 0-.589.736c0 .295.228.496.536.496s.75-.255.75-.817c0-.75-.858-.978-1.393-.978-.67 0-1.205.442-1.5.951-.24-.549-.857-.95-1.607-.95-1.5 0-2.356 1.646-2.356 2.048 0 .174.187.174.227.174.174 0 .188-.053.255-.228.335-1.044 1.178-1.62 1.834-1.62.442 0 .804.241.804.884 0 .268-.161.937-.282 1.393z" fill="#00f"/>
<path d="M79.016 139.439c-.058.23-.058.268-.058.306 0 .287.21.517.536.517.401 0 .631-.345.67-.402.095-.172.707-2.736 1.223-4.801.383.765.995 1.281 1.894 1.281 2.238 0 4.706-2.697 4.706-5.547 0-2.028-1.263-3.118-2.66-3.118-1.855 0-3.863 1.913-4.437 4.247zm4.246-3.52c-1.339 0-1.645-1.53-1.645-1.702 0-.077.096-.46.153-.708.536-2.142.727-2.83 1.148-3.596.822-1.396 1.779-1.817 2.372-1.817.707 0 1.32.555 1.32 1.875 0 1.052-.555 3.194-1.072 4.131-.63 1.205-1.55 1.817-2.276 1.817z" fill="red"/>
</g>
</svg>
