<svg width="144.755" height="117.485" xmlns="http://www.w3.org/2000/svg">
<g transform="translate(-33.337 -274.284)">
<path d="M33.837 302.103h143.755" fill="none" stroke="#000" stroke-miterlimit="100" stroke-width="2.1"/>
<g fill="#f44">
<circle cx="59.791" cy="340.753" r="7.644" color="#000" style="isolation:auto;mix-blend-mode:normal"/>
<path d="M59.79 349.805a13.334 13.334 0 0 0-13.332 13.334h26.667a13.334 13.334 0 0 0-13.334-13.334z" color="#000" style="isolation:auto;mix-blend-mode:normal"/>
<path d="M43.217 339.612c-.018-.054-.09-.198-.09-.252 0-.018.018-.036.324-.27l1.746-1.368c2.412-1.872 3.204-2.502 4.446-2.61.126-.018.306-.018.306-.324 0-.108-.054-.198-.198-.198-.198 0-.414.036-.612.036h-.684c-.558 0-1.152-.036-1.692-.036-.126 0-.342 0-.342.324 0 .18.126.198.234.198.198.018.432.09.432.342 0 .36-.54.792-.684.9l-7.056 5.49 1.494-5.94c.162-.612.198-.792 1.476-.792.342 0 .504 0 .504-.342 0-.18-.18-.18-.27-.18-.324 0-.702.036-1.044.036h-2.124c-.324 0-.72-.036-1.044-.036-.144 0-.342 0-.342.342 0 .18.162.18.432.18 1.098 0 1.098.144 1.098.342 0 .036 0 .144-.072.414l-2.43 9.684c-.162.63-.198.81-1.458.81-.342 0-.522 0-.522.324 0 .198.162.198.27.198.342 0 .702-.036 1.044-.036h2.106c.342 0 .72.036 1.062.036.144 0 .342 0 .342-.342 0-.18-.162-.18-.432-.18-1.098 0-1.098-.144-1.098-.324 0-.126.108-.576.18-.864l.702-2.79 2.736-2.142c.522 1.152 1.476 3.456 2.214 5.22.054.108.09.216.09.342 0 .54-.72.558-.882.558s-.342 0-.342.342c0 .18.198.18.252.18.63 0 1.296-.036 1.926-.036h.864c.27 0 .576.036.846.036.108 0 .306 0 .306-.342 0-.18-.162-.18-.342-.18-.666-.018-.9-.162-1.17-.81z"/>
</g>
<circle cx="121.03" cy="340.753" r="7.644" color="#000" fill="#44f" style="isolation:auto;mix-blend-mode:normal"/>
<path d="M121.03 349.805a13.334 13.334 0 0 0-13.333 13.334h26.667a13.334 13.334 0 0 0-13.334-13.334z" color="#000" fill="#44f" style="isolation:auto;mix-blend-mode:normal"/>
<g fill="#00f" stroke-linejoin="round" stroke-miterlimit="100000">
<path d="M100.456 339.612c-.018-.054-.09-.198-.09-.252 0-.018.018-.036.324-.27l1.746-1.368c2.412-1.872 3.204-2.502 4.446-2.61.126-.018.306-.018.306-.324 0-.108-.054-.198-.198-.198-.198 0-.414.036-.612.036h-.684c-.558 0-1.152-.036-1.692-.036-.126 0-.342 0-.342.324 0 .18.126.198.234.198.198.018.432.09.432.342 0 .36-.54.792-.684.9l-7.056 5.49 1.494-5.94c.162-.612.198-.792 1.476-.792.342 0 .504 0 .504-.342 0-.18-.18-.18-.27-.18-.324 0-.702.036-1.044.036h-2.124c-.324 0-.72-.036-1.044-.036-.144 0-.342 0-.342.342 0 .18.162.18.432.18 1.098 0 1.098.144 1.098.342 0 .036 0 .144-.072.414l-2.43 9.684c-.162.63-.198.81-1.458.81-.342 0-.522 0-.522.324 0 .198.162.198.27.198.342 0 .702-.036 1.044-.036h2.106c.342 0 .72.036 1.062.036.144 0 .342 0 .342-.342 0-.18-.162-.18-.432-.18-1.098 0-1.098-.144-1.098-.324 0-.126.108-.576.18-.864l.702-2.79 2.736-2.142c.522 1.152 1.476 3.456 2.214 5.22.054.108.09.216.09.342 0 .54-.72.558-.882.558s-.342 0-.342.342c0 .18.198.18.252.18.63 0 1.296-.036 1.926-.036h.864c.27 0 .576.036.846.036.108 0 .306 0 .306-.342 0-.18-.162-.18-.342-.18-.666-.018-.9-.162-1.17-.81zM110.923 333.764c.06-.156.108-.24.108-.36 0-.396-.36-.66-.696-.66-.48 0-.612.42-.66.588l-1.524 5.172c-.048.144-.048.18-.048.192 0 .108.072.132.192.168.216.096.24.096.264.096.036 0 .108 0 .192-.204z"/>
<path d="M136.96 348.733h23.715l-.508-4.305 9.957 6.027-9.957 6.026.508-4.304H136.96v-3.444" clip-path="url(#p2985508f7a)"/>
</g>
<g stroke-linejoin="round">
<path d="m146.523 302.588-13.365-10.514 2.29 6.306H64.906v8.416h70.544l-2.291 6.306z" color="#000" fill="#fff" stroke="#00f" stroke-miterlimit="100" stroke-width="1.5" style="isolation:auto;mix-blend-mode:normal;text-decoration-color:#000;text-decoration-line:none;text-decoration-style:solid;text-indent:0;text-transform:none;white-space:normal"/>
<g stroke-miterlimit="100000">
<path d="M110.152 275.702c0-.516-.383-.918-.937-.918-.708 0-1.358.67-1.358 1.32 0 .516.401.918.937.918.727 0 1.358-.67 1.358-1.32zm-4.706 13.237c-.306 1.243-1.205 2.295-2.218 2.295-.096 0-.192 0-.306-.038.669-.42.669-1.09.669-1.148 0-.42-.325-.88-.956-.88-.67 0-1.359.574-1.359 1.397 0 .784.766 1.358 1.952 1.358 1.205 0 3.768-.593 4.36-2.984l1.76-7.001c.058-.21.096-.383.096-.65 0-1.225-1.224-1.875-2.41-1.875-2.276 0-3.577 2.659-3.577 2.984 0 .268.287.268.46.268.324 0 .344-.02.477-.306.727-1.645 1.799-2.257 2.545-2.257.19 0 .459.038.459.707 0 .364-.058.574-.115.823z" fill="#00f"/>
<g stroke-width="1.333">
<path d="M98.02 390.447c-.058.23-.058.268-.058.306 0 .287.21.517.536.517.401 0 .63-.345.67-.402.095-.172.707-2.736 1.223-4.801.383.765.995 1.281 1.894 1.281 2.238 0 4.706-2.697 4.706-5.547 0-2.028-1.263-3.118-2.66-3.118-1.855 0-3.863 1.913-4.437 4.247zm4.246-3.52c-1.34 0-1.645-1.53-1.645-1.702 0-.077.096-.46.153-.708.535-2.142.727-2.83 1.148-3.596.822-1.396 1.779-1.817 2.371-1.817.708 0 1.32.555 1.32 1.875 0 1.052-.554 3.194-1.07 4.131-.632 1.205-1.55 1.817-2.277 1.817zM111.124 372.92c.107-.228.12-.335.12-.428 0-.416-.374-.737-.79-.737-.508 0-.669.415-.736.63l-1.767 5.797c-.014.027-.067.201-.067.214 0 .161.415.295.522.295.094 0 .107-.027.2-.228zM129.972 374.188c.153-.268.153-.306.153-.363 0-.134-.115-.383-.383-.383-.23 0-.286.115-.42.383l-8.589 16.699c-.153.267-.153.306-.153.363 0 .153.134.383.383.383.23 0 .287-.115.42-.383z"/>
<path d="M131.062 380.883c.287 0 .65 0 .65-.383s-.363-.382-.63-.382h-11.459c-.267 0-.63 0-.63.382 0 .383.363.383.65.383zm.02 3.71c.267 0 .63 0 .63-.382s-.363-.382-.65-.382h-11.42c-.287 0-.65 0-.65.382s.363.383.631.383zM146.854 381.016c0-1.53-.096-3.06-.765-4.476-.88-1.836-2.449-2.142-3.252-2.142-1.148 0-2.544.497-3.328 2.276-.612 1.32-.708 2.812-.708 4.342 0 1.435.076 3.156.86 4.61.823 1.55 2.22 1.932 3.157 1.932 1.033 0 2.487-.402 3.328-2.219.612-1.32.708-2.812.708-4.323zm-4.036 6.121c-.746 0-1.875-.478-2.219-2.314-.21-1.148-.21-2.908-.21-4.037 0-1.224 0-2.486.153-3.52.363-2.275 1.798-2.448 2.276-2.448.631 0 1.894.345 2.257 2.238.191 1.072.191 2.525.191 3.73 0 1.435 0 2.736-.21 3.96-.287 1.817-1.377 2.391-2.238 2.391zM154.512 383.14l.746-8.723c0-.63-.516-.975-1.014-.975s-1.014.344-1.014.975l.746 8.704c.02.287.039.44.268.44.191 0 .249-.096.268-.421zm.746 2.984c0-.555-.46-1.014-1.014-1.014s-1.014.46-1.014 1.014c0 .555.46 1.014 1.014 1.014s1.014-.46 1.014-1.014zM161.375 382.375c0-2.41 1.855-3.768 2.525-4.266a2.354 2.354 0 0 0 .918-1.874c0-1.11-.765-2.582-3.615-2.582-2.066 0-3.252 1.3-3.252 2.544 0 .65.44.918.88.918.536 0 .88-.383.88-.88 0-.86-.804-.86-1.071-.86.593-1.015 1.702-1.302 2.505-1.302 2.085 0 2.085 1.301 2.085 2.047 0 1.129-.306 1.473-.65 1.817-1.262 1.377-1.683 3.137-1.683 4.304v.86c0 .345 0 .46.23.46.248 0 .248-.172.248-.517zm.765 3.75c0-.556-.459-1.015-1.014-1.015s-1.013.46-1.013 1.014c0 .555.459 1.014 1.013 1.014s1.014-.46 1.014-1.014z"/>
</g>
</g>
</g>
</g>
</svg>
