<?xml version="1.0" encoding="UTF-8"?>
<svg width="128.988" height="132.883" version="1.1" viewBox="0 0 128.98758 132.88251" xmlns="http://www.w3.org/2000/svg"><g transform="translate(-18.3634 -263.728)" fill="#f00" stroke-linejoin="round" stroke-miterlimit="1e5" stroke-width="1.48378"><path d="m21.0736 393.638 0.985132-0.98513-0.459728-0.19703 2.16729-1.24783-1.24783 2.16729-0.197026-0.45974-0.985134 0.98515-0.262701-0.26271" clip-path="url(#p2985508f7a)"/><path d="m35.9973 394.201 1.06997-1.42663-0.618205-0.16644 2.52037-1.97349-1.18886 2.97212-0.332878-0.54686-1.06997 1.42661-0.380435-0.28531" clip-path="url(#p2985508f7a)"/><path d="m51.1096 394.948 0.996885-1.99378-0.797509-0.0665 2.65836-2.99065-0.797509 3.92108-0.531671-0.59814-0.996884 1.99378-0.531673-0.26584" clip-path="url(#p2985508f7a)"/><path d="m66.5982 395.711 0.636039-2.54418-0.932856 0.12716 2.28975-4.11308 0.08487 4.70672-0.763244-0.55124-0.636039 2.54417-0.678446-0.16961" clip-path="url(#p2985508f7a)"/><path d="m82.4856 396.111v-2.78639l-0.92879 0.37153 1.30031-4.82972 1.3003 4.82972-0.928789-0.37153v2.78639h-0.743035" clip-path="url(#p2985508f7a)"/><path d="m98.4376 395.881-0.63604-2.54417-0.763244 0.55124 0.08487-4.70673 2.28975 4.11308-0.932856-0.12716 0.63604 2.54417-0.678446 0.16963" clip-path="url(#p2985508f7a)"/><path d="m114.073 395.213-0.99689-1.99378-0.53167 0.59813-0.7975-3.92108 2.65836 2.99066-0.79752 0.0665 0.9969 1.99377-0.53168 0.26583" clip-path="url(#p2985508f7a)"/><path d="m129.336 394.486-1.06996-1.42663-0.33289 0.54688-1.18885-2.97214 2.52037 1.97349-0.6182 0.16645 1.06997 1.42662-0.38044 0.28533" clip-path="url(#p2985508f7a)"/><path d="m144.378 393.901-0.98513-0.98515-0.19702 0.45974-1.24784-2.16729 2.1673 1.24783-0.45974 0.19702 0.98513 0.98514-0.2627 0.26271" clip-path="url(#p2985508f7a)"/><path d="m20.4884 378.11 1.42662-1.06998-0.546874-0.33287 2.97214-1.18885-1.9735 2.52037-0.166444-0.6182-1.42662 1.06997-0.285324-0.38044" clip-path="url(#p2985508f7a)"/><path d="m35.0683 378.952 1.75135-1.75134-0.817295-0.35026 3.85296-2.21838-2.21837 3.85296-0.35027-0.8173-1.75135 1.75136-0.467027-0.46704" clip-path="url(#p2985508f7a)"/><path d="m49.818 380.365 1.90228-2.85342-1.20478-0.25364 4.62888-4.0582-1.96569 5.83366-0.697504-1.01455-1.90228 2.85342-0.760913-0.50727" clip-path="url(#p2985508f7a)"/><path d="m65.3676 382.219 1.4098-4.22942-1.59778 0.0939 4.41741-6.67308-0.469945 7.9889-1.22182-1.03386-1.40982 4.22943-1.12784-0.37595" clip-path="url(#p2985508f7a)"/><path d="m82.2051 383.348v-5.0551l-1.63003 0.652 2.28205-8.47615 2.28203 8.47615-1.63003-0.652v5.0551h-1.30402" clip-path="url(#p2985508f7a)"/><path d="m99.2188 382.595-1.4098-4.22943-1.22184 1.03387-0.46993-7.98892 4.41739 6.6731-1.59778-0.0939 1.4098 4.22943-1.12784 0.37594" clip-path="url(#p2985508f7a)"/><path d="m115.135 380.872-1.90229-2.85342-0.69749 1.01455-1.96569-5.83366 4.62887 4.0582-1.20477 0.25364 1.90228 2.85342-0.76091 0.50727" clip-path="url(#p2985508f7a)"/><path d="m130.179 379.419-1.75135-1.75136-0.35026 0.8173-2.21838-3.85296 3.85296 2.21838-0.81729 0.35026 1.75135 1.75135-0.46703 0.46703" clip-path="url(#p2985508f7a)"/><path d="m144.941 378.49-1.42663-1.06997-0.16644 0.6182-1.97351-2.52037 2.97214 1.18885-0.54686 0.33289 1.42661 1.06996-0.28531 0.38044" clip-path="url(#p2985508f7a)"/><path d="m19.7608 362.359 1.99377-0.9969-0.598133-0.53167 3.92108-0.7975-2.99065 2.65836-0.06646-0.79751-1.99377 0.99689-0.265834-0.53167" clip-path="url(#p2985508f7a)"/><path d="m33.6154 363.422 2.85342-1.90228-1.01455-0.69751 5.83366-1.96569-4.0582 4.62889-0.253637-1.20479-2.85342 1.90229-0.507276-0.76091" clip-path="url(#p2985508f7a)"/><path d="m47.0877 365.991 4.71288-4.71287-1.61365-0.69156 7.6072-4.37991-4.3799 7.6072-0.691562-1.61365-4.71288 4.71287-0.922083-0.92208" clip-path="url(#p2985508f7a)"/><path d="m61.9973 371.405 6.86853-13.7371-1.74953-0.14586 5.83176-6.56075-1.74953 8.60188-1.16634-1.31216-6.86854 13.7371-1.16634-0.58317" clip-path="url(#p2985508f7a)"/><path d="m82.2051 375.818v-21.1542l-1.63003 0.65201 2.28205-8.47616 2.28203 8.47616-1.63003-0.65201v21.1542h-1.30402" clip-path="url(#p2985508f7a)"/><path d="m102.551 371.988-6.86852-13.7371-1.16636 1.31214-1.74953-8.60187 5.83178 6.56075-1.74954 0.14586 6.86854 13.737-1.16636 0.58319" clip-path="url(#p2985508f7a)"/><path d="m117.705 366.913-4.71288-4.71287-0.69157 1.61365-4.37989-7.6072 7.60719 4.37991-1.61365 0.69156 4.71289 4.71287-0.92209 0.92208" clip-path="url(#p2985508f7a)"/><path d="m131.592 364.183-2.85342-1.90229-0.25364 1.20479-4.0582-4.62889 5.83366 1.96569-1.01455 0.69751 2.85342 1.90228-0.50727 0.76091" clip-path="url(#p2985508f7a)"/><path d="m145.688 362.891-1.99376-0.99689-0.0665 0.79751-2.99066-2.65836 3.92108 0.7975-0.59813 0.53168 1.99378 0.99689-0.26584 0.53167" clip-path="url(#p2985508f7a)"/><path d="m19.0934 346.237 2.54417-0.63604-0.551238-0.76326 4.70672 0.0849-4.11308 2.28976 0.12722-0.93287-2.54417 0.63606-0.169614-0.67845" clip-path="url(#p2985508f7a)"/><path d="m31.8923 347.018 4.22942-1.40981-1.03386-1.22183 7.98891-0.46995-6.67309 4.41741 0.094-1.59779-4.22942 1.40981-0.375948-1.12784" clip-path="url(#p2985508f7a)"/><path d="m42.0122 350.35 13.7371-6.86853-1.31215-1.16636 8.60186-1.74953-6.56074 5.83177-0.145797-1.74953-13.7371 6.86854-0.583177-1.16636" clip-path="url(#p2985508f7a)"/><path d="m123.119 351.516-13.7371-6.86854-0.14585 1.74953-6.56075-5.83177 8.60185 1.74953-1.31214 1.16636 13.7371 6.86853-0.58319 1.16636" clip-path="url(#p2985508f7a)"/><path d="m133.446 348.146-4.22942-1.40981 0.0939 1.59779-6.67308-4.41741 7.9889 0.46995-1.03386 1.22183 4.22943 1.40981-0.37595 1.12784" clip-path="url(#p2985508f7a)"/><path d="m146.451 346.915-2.54417-0.63603 0.12716 0.93285-4.11307-2.28975 4.70671-0.0847-0.55124 0.76324 2.54417 0.63606-0.16961 0.67844" clip-path="url(#p2985508f7a)"/><path d="m18.8634 329.798h2.78638l-0.371518-0.92879 4.82972 1.30031-4.82972 1.30031 0.371518-0.9288h-2.78638v-0.74303" clip-path="url(#p2985508f7a)"/><path d="m31.1389 329.518h5.05511l-0.652012-1.63004 8.47616 2.28205-8.47616 2.28204 0.652012-1.63003h-5.05511v-1.30402" clip-path="url(#p2985508f7a)"/><path d="m38.1822 329.518h21.1542l-0.652016-1.63004 8.47616 2.28205-8.47616 2.28204 0.652016-1.63003h-21.1542v-1.30402" clip-path="url(#p2985508f7a)"/><path d="m127.532 330.822h-21.1542l0.652 1.63003-8.47615-2.28204 8.47615-2.28205-0.652 1.63004h21.1542v1.30402" clip-path="url(#p2985508f7a)"/><path d="m134.575 330.822h-5.0551l0.65202 1.63003-8.47617-2.28204 8.47617-2.28205-0.65202 1.63004h5.0551v1.30402" clip-path="url(#p2985508f7a)"/><path d="m146.851 330.541h-2.78639l0.37153 0.9288-4.82972-1.30031 4.82972-1.30031-0.37153 0.92879h2.78639v0.74303" clip-path="url(#p2985508f7a)"/><path d="m19.263 313.424 2.54417 0.63604-0.127219-0.93286 4.11308 2.28975-4.70672 0.0848 0.551238-0.76325-2.54417-0.63604 0.169615-0.67845" clip-path="url(#p2985508f7a)"/><path d="m32.2682 312.193 4.22942 1.40981-0.094-1.59778 6.67309 4.4174-7.98891-0.46994 1.03386-1.22183-4.22942-1.40981 0.375948-1.12785" clip-path="url(#p2985508f7a)"/><path d="m42.5954 308.823 13.7371 6.86854 0.145797-1.74954 6.56076 5.83177-8.60188-1.74953 1.31215-1.16635-13.7371-6.86853 0.583178-1.16636" clip-path="url(#p2985508f7a)"/><path d="m123.702 309.989-13.7371 6.86853 1.31216 1.16635-8.60187 1.74953 6.56074-5.83177 0.14586 1.74953 13.7371-6.86853 0.58318 1.16636" clip-path="url(#p2985508f7a)"/><path d="m133.822 313.321-4.22941 1.40981 1.03385 1.22183-7.98892 0.46994 6.6731-4.4174-0.0939 1.59778 4.22943-1.40981 0.37594 1.12785" clip-path="url(#p2985508f7a)"/><path d="m146.621 314.102-2.54417 0.63605 0.55122 0.76325-4.70671-0.0848 4.11308-2.28975-0.12716 0.93286 2.54417-0.63604 0.16961 0.67844" clip-path="url(#p2985508f7a)"/><path d="m20.0267 297.448 1.99377 0.99689 0.06646-0.79751 2.99065 2.65836-3.92108-0.79751 0.598132-0.53167-1.99377-0.99689 0.265834-0.53167" clip-path="url(#p2985508f7a)"/><path d="m34.1227 296.157 2.85342 1.90228 0.253637-1.20477 4.0582 4.62888-5.83366-1.96569 1.01455-0.6975-2.85342-1.90228 0.507276-0.76092" clip-path="url(#p2985508f7a)"/><path d="m48.0097 293.426 4.71288 4.71288 0.691562-1.61365 4.3799 7.6072-7.6072-4.3799 1.61365-0.69157-4.71288-4.71287 0.922083-0.92209" clip-path="url(#p2985508f7a)"/><path d="m63.1636 288.351 6.86854 13.7371 1.16634-1.31215 1.74953 8.60186-5.83176-6.56074 1.74953-0.1458-6.86853-13.7371 1.16634-0.58317" clip-path="url(#p2985508f7a)"/><path d="m83.5092 284.521v21.1542l1.63003-0.65201-2.28203 8.47616-2.28205-8.47616 1.63003 0.65201v-21.1542h1.30402" clip-path="url(#p2985508f7a)"/><path d="m103.717 288.934-6.86854 13.7371 1.74954 0.1458-5.83178 6.56075 1.74953-8.60187 1.16636 1.31215 6.86852-13.7371 1.16636 0.58318" clip-path="url(#p2985508f7a)"/><path d="m118.627 294.348-4.71289 4.71287 1.61365 0.69157-7.60719 4.3799 4.37989-7.6072 0.69157 1.61365 4.71288-4.71288 0.92209 0.92209" clip-path="url(#p2985508f7a)"/><path d="m132.099 296.918-2.85342 1.90228 1.01455 0.6975-5.83366 1.96569 4.0582-4.62888 0.25364 1.20477 2.85342-1.90228 0.50727 0.76092" clip-path="url(#p2985508f7a)"/><path d="m145.953 297.98-1.99376 0.99689 0.59812 0.53167-3.92108 0.79751 2.99066-2.65836 0.0665 0.79751 1.99376-0.99689 0.26583 0.53167" clip-path="url(#p2985508f7a)"/><path d="m20.7737 281.849 1.42663 1.06997 0.166443-0.6182 1.9735 2.52037-2.97214-1.18886 0.546873-0.33288-1.42662-1.06997 0.285325-0.38043" clip-path="url(#p2985508f7a)"/><path d="m35.5353 280.92 1.75135 1.75135 0.35027-0.8173 2.21837 3.85297-3.85296-2.21838 0.817295-0.35027-1.75135-1.75134 0.467027-0.46703" clip-path="url(#p2985508f7a)"/><path d="m50.5789 279.467 1.90228 2.85342 0.697504-1.01455 1.96569 5.83366-4.62888-4.0582 1.20478-0.25363-1.90228-2.85342 0.760913-0.50728" clip-path="url(#p2985508f7a)"/><path d="m66.4954 277.744 1.40982 4.22943 1.22182-1.03386 0.469945 7.98891-4.41741-6.67309 1.59778 0.094-1.4098-4.22942 1.12784-0.37595" clip-path="url(#p2985508f7a)"/><path d="m83.5092 276.991v5.05511l1.63003-0.65202-2.28203 8.47616-2.28205-8.47616 1.63003 0.65202v-5.05511h1.30402" clip-path="url(#p2985508f7a)"/><path d="m100.347 278.12-1.4098 4.22942 1.59778-0.094-4.41739 6.67309 0.46993-7.98891 1.22184 1.03386 1.4098-4.22943 1.12784 0.37595" clip-path="url(#p2985508f7a)"/><path d="m115.896 279.975-1.90228 2.85342 1.20477 0.25363-4.62887 4.0582 1.96569-5.83366 0.69749 1.01455 1.90229-2.85342 0.76091 0.50728" clip-path="url(#p2985508f7a)"/><path d="m130.646 281.387-1.75135 1.75134 0.81729 0.35027-3.85296 2.21838 2.21838-3.85297 0.35026 0.8173 1.75135-1.75135 0.46703 0.46703" clip-path="url(#p2985508f7a)"/><path d="m145.226 282.23-1.42661 1.06997 0.54686 0.33288-2.97212 1.18886 1.97349-2.52037 0.16644 0.6182 1.42663-1.06997 0.28533 0.38043" clip-path="url(#p2985508f7a)"/><path d="m21.3363 266.439 0.985134 0.98513 0.197026-0.45972 1.24783 2.16729-2.16729-1.24784 0.459728-0.19702-0.985132-0.98514 0.262701-0.2627" clip-path="url(#p2985508f7a)"/><path d="m36.3778 265.853 1.06997 1.42663 0.332878-0.54688 1.18886 2.97214-2.52037-1.9735 0.618205-0.16644-1.06997-1.42663 0.380435-0.28532" clip-path="url(#p2985508f7a)"/><path d="m51.6413 265.126 0.996884 1.99377 0.531671-0.59813 0.797509 3.92107-2.65836-2.99065 0.797509-0.0665-0.996885-1.99377 0.531671-0.26583" clip-path="url(#p2985508f7a)"/><path d="m67.2766 264.458 0.636039 2.54417 0.763259-0.55124-0.08473 4.70672-2.28976-4.11308 0.93287 0.12722-0.636039-2.54417 0.678446-0.16961" clip-path="url(#p2985508f7a)"/><path d="m83.2287 264.228v2.78637l0.928789-0.37151-1.3003 4.82972-1.30031-4.82972 0.92879 0.37151v-2.78637h0.743035" clip-path="url(#p2985508f7a)"/><path d="m99.1161 264.628-0.636039 2.54417 0.932871-0.12722-2.28976 4.11308-0.08487-4.70672 0.763259 0.55124 0.636039-2.54417 0.678446 0.16961" clip-path="url(#p2985508f7a)"/><path d="m114.605 265.392-0.9969 1.99377 0.79752 0.0665-2.65836 2.99066 0.7975-3.92108 0.53167 0.59813 0.99689-1.99377 0.53168 0.26583" clip-path="url(#p2985508f7a)"/><path d="m129.717 266.139-1.06997 1.42662 0.6182 0.16644-2.52037 1.9735 1.18885-2.97213 0.33289 0.54687 1.06996-1.42663 0.38044 0.28533" clip-path="url(#p2985508f7a)"/><path d="m144.641 266.701-0.98513 0.98514 0.45974 0.19702-2.1673 1.24784 1.24784-2.16729 0.19702 0.45972 0.98513-0.98513 0.2627 0.26271" clip-path="url(#p2985508f7a)"/></g></svg>
