<?xml version="1.0" encoding="UTF-8"?>
<svg width="174.284" height="138.5" version="1.1" viewBox="0 0 174.28401 138.5" xmlns="http://www.w3.org/2000/svg"><g transform="translate(-24.9849 -256.24)"><path d="m153.254 319.927c-47.9885 39.3241-31.163 59.2721-59.8278 59.5671-28.7383 0.29576-43.9072-8.6248-52.0381-51.8114-5.29519-28.1248 22.8883-52.7646 51.6282-52.7646 28.7399 0 85.7802 24.0782 60.2378 45.0088z" fill="#ffd3d3" stroke="#f00" stroke-linejoin="round" stroke-miterlimit="100"/><path d="m151.337 362.886c-12.1943 18.5829-33.2153 30.8546-57.1026 30.8546-37.6934 0-68.25-30.5566-68.25-68.25s30.5566-68.25 68.25-68.25c37.6934 0 68.25 30.5566 68.25 68.25 0 8.26969-1.47079 16.1959-4.16507 23.5312" fill="none" stroke="#000002" stroke-dasharray="2, 2" stroke-linejoin="round" stroke-miterlimit="100"/><circle transform="rotate(-30.6912)" cx="-85.0983" cy="327.997" r="1.96471"/><g stroke-linejoin="round"><path d="m62.99 348.449c-4.73045-6.42698-7.52549-14.3664-7.52549-22.9586 2e-6 -21.4123 17.3581-38.7704 38.7704-38.7704 21.4123 0 38.7704 17.3581 38.7704 38.7704s-17.3581 38.7704-38.7704 38.7704c-5.98395 0-11.6513-1.35566-16.7116-3.77662" fill="none" stroke="#000002" stroke-dasharray="2, 2" stroke-miterlimit="100"/><g stroke-miterlimit="1e5" stroke-width="1.33333"><path d="m129.704 355.087c-0.0574 0.28693-0.17215 0.72688-0.17215 0.82253 0 0.3443 0.2678 0.51646 0.55472 0.51646 0.22954 0 0.57384-0.15296 0.70775-0.5356 0.0383-0.0765 0.68862-2.67795 0.76513-3.02225 0.15303-0.63123 0.49733-1.97023 0.6121-2.48669 0.0765-0.24866 0.61211-1.1477 1.07118-1.56851 0.15303-0.13392 0.70775-0.63123 1.53026-0.63123 0.49734 0 0.78427 0.22953 0.80339 0.22953-0.57384 0.0957-0.99467 0.55472-0.99467 1.05207 0 0.30604 0.21042 0.66948 0.72688 0.66948s1.05205-0.43995 1.05205-1.12857c0-0.66949-0.6121-1.24333-1.58765-1.24333-1.24333 0-2.08498 0.93728-2.44842 1.47286-0.15302-0.86076-0.84163-1.47286-1.74067-1.47286-0.8799 0-1.24333 0.746-1.41549 1.0903-0.34431 0.65037-0.59297 1.79807-0.59297 1.85544 0 0.19128 0.19128 0.19128 0.22954 0.19128 0.19128 0 0.21041-0.0192 0.32518-0.43995 0.32518-1.35809 0.70774-2.27625 1.39637-2.27625 0.32516 0 0.59297 0.15296 0.59297 0.8799 0 0.4017-0.0574 0.6121-0.30606 1.60677z"/><path d="m147.625 355.028c0-1.16491-0.57576-1.84779-2.00847-1.84779-1.05779 0-1.78085 0.57576-2.14236 1.24524-0.2678-0.95067-0.99085-1.24524-1.96829-1.24524-1.09797 0-1.80764 0.60254-2.18255 1.29881h-0.0134v-1.29881l-1.96829 0.14736v0.48203c0.89711 0 1.00423 0.0938 1.00423 0.74984v3.46795c0 0.57576-0.1339 0.57576-1.00423 0.57576v0.48203c0.0268 0 0.96407-0.0536 1.52644-0.0536 0.49542 0 1.41931 0.0402 1.53982 0.0536v-0.48203c-0.87033 0-1.00424 0-1.00424-0.57576v-2.41016c0-1.40594 1.11136-2.06203 1.99509-2.06203 0.93728 0 1.05779 0.73643 1.05779 1.41931v3.05288c0 0.57576-0.1339 0.57576-1.00424 0.57576v0.48203c0.0268 0 0.96407-0.0536 1.52643-0.0536 0.49543 0 1.41933 0.0402 1.53983 0.0536v-0.48203c-0.87034 0-1.00423 0-1.00423-0.57576v-2.41016c0-1.40594 1.11135-2.06203 1.99508-2.06203 0.93729 0 1.05779 0.73643 1.05779 1.41931v3.05288c0 0.57576-0.13389 0.57576-1.00423 0.57576v0.48203c0.0268 0 0.96407-0.0536 1.52643-0.0536 0.49543 0 1.41932 0.0402 1.53983 0.0536v-0.48203c-0.87034 0-1.00424 0-1.00424-0.57576z"/><path d="m151.963 350.824c0-0.38831-0.32136-0.76322-0.7766-0.76322-0.4017 0-0.76323 0.32136-0.76323 0.76322 0 0.48203 0.38831 0.77661 0.76323 0.77661 0.42846 0 0.7766-0.33474 0.7766-0.77661zm-2.03525 2.50389v0.48203c0.84356 0 0.96407 0.0803 0.96407 0.73645v3.48134c0 0.57576-0.13391 0.57576-1.00424 0.57576v0.48203c0.0268 0 0.96406-0.0536 1.49966-0.0536 0.46864 0 0.95067 0.0128 1.41931 0.0536v-0.48203c-0.7766 0-0.91049 0-0.91049-0.56237v-4.86049z"/><path d="m160.348 355.028c0-1.16491-0.57576-1.84779-2.00846-1.84779-1.09797 0-1.80763 0.60254-2.18254 1.29881h-0.0134v-1.29881l-1.96829 0.14736v0.48203c0.89711 0 1.00423 0.0938 1.00423 0.74984v3.46795c0 0.57576-0.13389 0.57576-1.00423 0.57576v0.48203c0.0268 0 0.96407-0.0536 1.52644-0.0536 0.49542 0 1.41931 0.0402 1.53982 0.0536v-0.48203c-0.87033 0-1.00424 0-1.00424-0.57576v-2.41016c0-1.40594 1.11136-2.06203 1.99509-2.06203 0.93728 0 1.05779 0.73643 1.05779 1.41931v3.05288c0 0.57576-0.1339 0.57576-1.00424 0.57576v0.48203c0.0268 0 0.96407-0.0536 1.52643-0.0536 0.49543 0 1.41933 0.0402 1.53983 0.0536v-0.48203c-0.87034 0-1.00423 0-1.00423-0.57576z"/><path d="m164.053 305.527c-0.0574 0.28693-0.17214 0.72688-0.17214 0.82253 0 0.3443 0.26779 0.51646 0.55472 0.51646 0.22953 0 0.57384-0.15296 0.70774-0.5356 0.0383-0.0765 0.68863-2.67795 0.76514-3.02225 0.15302-0.63123 0.49733-1.97023 0.61209-2.48669 0.0765-0.24866 0.61212-1.1477 1.07119-1.56851 0.15302-0.13392 0.70774-0.63123 1.53025-0.63123 0.49735 0 0.78428 0.22953 0.8034 0.22953-0.57384 0.0957-0.99468 0.55472-0.99468 1.05207 0 0.30604 0.21042 0.66948 0.72688 0.66948 0.51647 0 1.05205-0.43995 1.05205-1.12857 0-0.66949-0.61209-1.24333-1.58765-1.24333-1.24332 0-2.08497 0.93728-2.44841 1.47286-0.15303-0.86076-0.84163-1.47286-1.74067-1.47286-0.87991 0-1.24334 0.746-1.41549 1.0903-0.34431 0.65037-0.59298 1.79807-0.59298 1.85544 0 0.19128 0.19129 0.19128 0.22954 0.19128 0.19128 0 0.21041-0.0192 0.32518-0.43995 0.32518-1.35809 0.70775-2.27625 1.39637-2.27625 0.32517 0 0.59298 0.15296 0.59298 0.8799 0 0.4017-0.0574 0.6121-0.30607 1.60677z"/><path d="m181.974 305.467c0-1.16491-0.57576-1.84779-2.00846-1.84779-1.0578 0-1.78085 0.57576-2.14237 1.24524-0.26779-0.95067-0.99085-1.24524-1.96829-1.24524-1.09797 0-1.80763 0.60254-2.18254 1.29881h-0.0134v-1.29881l-1.9683 0.14736v0.48203c0.89711 0 1.00423 0.0938 1.00423 0.74984v3.46795c0 0.57576-0.13389 0.57576-1.00423 0.57576v0.48203c0.0268 0 0.96407-0.0536 1.52644-0.0536 0.49542 0 1.41931 0.0402 1.53982 0.0536v-0.48203c-0.87033 0-1.00423 0-1.00423-0.57576v-2.41016c0-1.40594 1.11135-2.06203 1.99508-2.06203 0.93728 0 1.05779 0.73643 1.05779 1.41931v3.05288c0 0.57576-0.1339 0.57576-1.00424 0.57576v0.48203c0.0268 0 0.96407-0.0536 1.52644-0.0536 0.49542 0 1.41932 0.0402 1.53982 0.0536v-0.48203c-0.87034 0-1.00422 0-1.00422-0.57576v-2.41016c0-1.40594 1.11134-2.06203 1.99507-2.06203 0.93729 0 1.05779 0.73643 1.05779 1.41931v3.05288c0 0.57576-0.13389 0.57576-1.00422 0.57576v0.48203c0.0268 0 0.96406-0.0536 1.52643-0.0536 0.49542 0 1.41931 0.0402 1.53982 0.0536v-0.48203c-0.87033 0-1.00424 0-1.00424-0.57576z"/><path d="m189.458 305.936c0-0.70967 0-1.21847-0.61592-1.71389-0.54899-0.45526-1.1917-0.66949-1.9817-0.66949-1.27203 0-2.16914 0.48203-2.16914 1.2988 0 0.42848 0.29458 0.6561 0.64271 0.6561 0.36152 0 0.62931-0.26779 0.62931-0.62931 0-0.22764-0.1071-0.50882-0.46864-0.61594 0.48203-0.33474 1.25864-0.33474 1.33898-0.33474 0.74984 0 1.56661 0.49543 1.56661 1.62016v0.41509c-0.73644 0.0267-1.62016 0.0669-2.59762 0.42847-1.20508 0.44187-1.57999 1.1783-1.57999 1.78084 0 1.15152 1.39253 1.48628 2.34321 1.48628 1.07118 0 1.70051-0.60255 1.98169-1.12476 0.0536 0.549 0.41507 1.0578 1.03101 1.0578 0.0268 0 1.32558 0 1.32558-1.27204v-0.73643h-0.45524v0.72306c0 0.13392 0 0.77661-0.49543 0.77661-0.49542 0-0.49542-0.62933-0.49542-0.8034zm-1.05779 1.70049c0 1.28543-1.12474 1.64695-1.72728 1.64695-0.68288 0-1.32559-0.45525-1.32559-1.11135 0-0.73643 0.64271-1.76745 3.05287-1.86118z"/><path d="m195.622 306.525c-0.0134-0.0128-0.10712-0.12048-0.10712-0.13392 0-0.0402 0.88372-0.99083 1.00424-1.11134 0.46864-0.52221 0.93728-1.03103 1.99507-1.0444v-0.48204c-0.37491 0.0267-0.76322 0.0536-1.12474 0.0536-0.40169 0-0.9239-0.0128-1.32558-0.0536v0.48204c0.22762 0.0402 0.26779 0.18745 0.26779 0.30795 0 0.0267 0 0.22763-0.20085 0.45526l-0.93728 1.05779-1.11136-1.27203c-0.1339-0.14736-0.14728-0.21424-0.14728-0.26779 0-0.20085 0.18746-0.28118 0.36152-0.28118v-0.48204c-0.49542 0.0402-1.00424 0.0536-1.49966 0.0536-0.40169 0-0.9105-0.0128-1.29881-0.0536v0.48204c0.61593 0 0.96407 0 1.3122 0.40168l1.67373 1.92814c0.0134 0.0128 0.10712 0.12048 0.10712 0.13392 0 0.0402-1.00424 1.13813-1.13813 1.28542-0.49542 0.53559-0.95068 1.03101-2.02186 1.0578v0.48203c0.40169-0.0267 0.69626-0.0536 1.11135-0.0536 0.40169 0 0.93728 0.0128 1.33897 0.0536v-0.48203c-0.16067-0.0267-0.26779-0.12048-0.26779-0.30797 0-0.2544 0.14728-0.42847 0.36152-0.6561l0.93728-1.03101 1.16491 1.32559c0.25442 0.28118 0.25442 0.30797 0.25442 0.3883 0 0.26779-0.30797 0.28119-0.36152 0.28119v0.48203c0.1205-0.0128 1.08456-0.0536 1.51304-0.0536s0.85694 0.0128 1.28542 0.0536v-0.48203c-0.89712 0-1.00424-0.0803-1.3122-0.42848z"/></g></g><path d="m69.5844 361.59c0.519051 0 1.10301 0 1.10301-0.55151 0-0.45417-0.389316-0.45417-0.940794-0.45417h-5.25547c0.778576-2.7575 2.59528-4.63908 5.54743-4.63908h1.00568c0.551505 0 1.07056 0 1.07056-0.55151 0-0.45417-0.421715-0.45417-0.973221-0.45417h-1.13544c-4.21734 0-8.56447 3.24412-8.56447 8.20762 0 3.56853 2.43308 6.13138 5.87185 6.13138 2.10866 0 4.21734-1.29765 4.21734-1.65451 0-0.0974-0.03243-0.45417-0.324407-0.45417-0.06488 0-0.129763 0-0.421743 0.19456-1.00568 0.64881-2.20599 1.20032-3.40631 1.20032-1.88159 0-3.50365-1.36251-3.50365-4.21734 0-1.13544 0.259526-2.36822 0.356861-2.7575z" fill="#ef0000"/><path d="m159.248 305.467-65.0131 20.0227 31.227 22.685" fill="none" stroke="#000" stroke-miterlimit="1e5" stroke-width="1px"/><path d="m87.8793 321.869c0-3.07966-2.02759-5.1455-4.8777-5.1455-4.13171 0-8.33993 4.34211-8.33993 8.79899 0 3.1753 2.14236 5.10725 4.89684 5.10725 4.05519 0 8.32079-4.18909 8.32079-8.76074zm-8.20602 8.26341c-1.8937 0-3.23269-1.54939-3.23269-4.07432 0-0.84165 0.267808-3.63437 1.74067-5.87238 1.31986-1.98935 3.19444-2.984 4.70557-2.984 1.56851 0 3.29005 1.07118 3.29005 3.92129 0 1.37723-0.51646 4.36123-2.41016 6.71402-0.91814 1.16681-2.48667 2.29539-4.09344 2.29539z" stroke-linejoin="round" stroke-miterlimit="1e5" stroke-width="1.33333"/></g></svg>
