<?xml version="1.0" encoding="UTF-8"?>
<svg width="189.591" height="195.773" version="1.1" viewBox="0 0 189.59074 195.77289" xmlns="http://www.w3.org/2000/svg"><g transform="translate(3.3668 -175.14)"><g fill="#008000" stroke-linejoin="round" stroke-miterlimit="1e5" stroke-width="1.25"><path d="m103.728 270.027-6.03636-6.03636-0.46608 1.08753-2.95184-5.12689 5.12689 2.95184-1.08752 0.46608 6.03636 6.03636-0.62144 0.62144" clip-path="url(#pe30911f7b6)"/><path d="m112.638 269.98-4.15989-5.54653-0.61519 1.01068-2.19713-5.49281 4.65791 3.64723-1.14251 0.30759 4.15989 5.54653-0.70308 0.52731" clip-path="url(#pe30911f7b6)"/><path d="m121.548 269.913-2.5243-5.0486-0.78607 0.88433-1.1791-5.79725 3.93034 4.42163-1.1791 0.0983 2.52429 5.0486-0.78606 0.39303" clip-path="url(#pe30911f7b6)"/><path d="m130.466 269.823-1.16233-4.64934-0.95919 0.69274 0.10658-5.91498 2.87756 5.16895-1.17234-0.15987 1.16233 4.64934-0.85261 0.21316" clip-path="url(#pe30911f7b6)"/><path d="m139.404 269.716v-4.4919l-1.09856 0.43942 1.53799-5.71252 1.53799 5.71252-1.09857-0.43942v4.4919h-0.87885" clip-path="url(#pe30911f7b6)"/><path d="m148.368 269.609 1.16234-4.64934-1.17234 0.15987 2.87756-5.16895 0.10657 5.91498-0.95918-0.69275-1.16234 4.64935-0.85261-0.21316" clip-path="url(#pe30911f7b6)"/><path d="m157.353 269.52 2.52429-5.04859-1.1791-0.0983 3.93034-4.42163-1.1791 5.79725-0.78607-0.88433-2.5243 5.0486-0.78606-0.39304" clip-path="url(#pe30911f7b6)"/><path d="m166.345 269.452 4.15989-5.54653-1.1425-0.30759 4.6579-3.64723-2.19713 5.49281-0.61519-1.01068-4.15989 5.54653-0.70308-0.52731" clip-path="url(#pe30911f7b6)"/><path d="m175.338 269.405 6.03635-6.03636-1.08752-0.46608 5.12689-2.95184-2.95184 5.12689-0.46608-1.08753-6.03636 6.03636-0.62144-0.62144" clip-path="url(#pe30911f7b6)"/><path d="m103.775 258.347-5.54652-4.15989-0.307598 1.14251-3.64723-4.65791 5.49281 2.19713-1.01068 0.61519 5.54652 4.15989-0.52731 0.70308" clip-path="url(#pe30911f7b6)"/><path d="m112.679 258.306-3.59511-3.59511-0.46608 1.08752-2.95184-5.12689 5.12689 2.95185-1.08752 0.46608 3.5951 3.5951-0.62144 0.62145" clip-path="url(#pe30911f7b6)"/><path d="m121.575 258.239-1.95751-2.93626-0.67031 0.975-1.88906-5.60624 4.44842 3.89999-1.15781 0.24375 1.95751 2.93627-0.73124 0.48749" clip-path="url(#pe30911f7b6)"/><path d="m130.516 258.121-0.93894-2.81683-0.81375 0.68856-0.31298-5.32068 2.94202 4.44433-1.06413-0.0626 0.93894 2.81683-0.75116 0.25038" clip-path="url(#pe30911f7b6)"/><path d="m139.468 257.995v-2.81682l-0.93894 0.37557 1.31452-4.8825 1.31452 4.88251-0.93894-0.37558v2.81682h-0.75116" clip-path="url(#pe30911f7b6)"/><path d="m148.419 257.87 0.93894-2.81682-1.06413 0.0626 2.94202-4.44433-0.31298 5.32067-0.81375-0.68856-0.93894 2.81683-0.75116-0.25038" clip-path="url(#pe30911f7b6)"/><path d="m157.38 257.752 1.95751-2.93627-1.15781-0.24375 4.44842-3.89999-1.88906 5.60624-0.67031-0.975-1.95751 2.93626-0.73124-0.48749" clip-path="url(#pe30911f7b6)"/><path d="m166.386 257.685 3.5951-3.5951-1.08752-0.46608 5.12689-2.95185-2.95184 5.12689-0.46608-1.08752-3.59511 3.59511-0.62144-0.62145" clip-path="url(#pe30911f7b6)"/><path d="m175.385 257.644 5.54652-4.15989-1.01067-0.61519 5.49281-2.19713-3.64723 4.65791-0.3076-1.14251-5.54652 4.15989-0.52731-0.70308" clip-path="url(#pe30911f7b6)"/><path d="m103.842 246.668-5.04859-2.52429-0.09826 1.1791-4.42163-3.93034 5.79725 1.1791-0.88433 0.78607 5.0486 2.5243-0.39304 0.78606" clip-path="url(#pe30911f7b6)"/><path d="m112.746 246.64-2.93626-1.95751-0.24375 1.15781-3.89999-4.44842 5.60623 1.88906-0.975 0.67031 2.93627 1.95751-0.4875 0.73124" clip-path="url(#pe30911f7b6)"/><path d="m121.69 246.525-1.87789-1.87788-0.37558 0.87635-2.37865-4.13135 4.13135 2.37865-0.87635 0.37558 1.87788 1.87788-0.50076 0.50077" clip-path="url(#pe30911f7b6)"/><path d="m130.642 246.4-0.93894-1.87788-0.50077 0.56336-0.75115-3.69317 2.50385 2.81683-0.75116 0.0626 0.93894 1.87788-0.50077 0.25039" clip-path="url(#pe30911f7b6)"/><path d="m139.593 246.275v-1.87789l-0.62596 0.25039 0.87635-3.255 0.87635 3.255-0.62597-0.25039v1.87789h-0.50077" clip-path="url(#pe30911f7b6)"/><path d="m148.544 246.15 0.93895-1.87789-0.75116-0.0626 2.50385-2.81683-0.75115 3.69317-0.50077-0.56336-0.93895 1.87788-0.50077-0.25038" clip-path="url(#pe30911f7b6)"/><path d="m157.495 246.024 1.87788-1.87788-0.87635-0.37558 4.13135-2.37865-2.37865 4.13135-0.37558-0.87635-1.87789 1.87788-0.50076-0.50077" clip-path="url(#pe30911f7b6)"/><path d="m166.453 245.909 2.93627-1.95751-0.975-0.67031 5.60623-1.88906-3.89999 4.44842-0.24375-1.15781-2.93626 1.95751-0.4875-0.73124" clip-path="url(#pe30911f7b6)"/><path d="m175.452 245.882 5.0486-2.5243-0.88433-0.78607 5.79725-1.1791-4.42163 3.93034-0.0983-1.1791-5.0486 2.52429-0.39303-0.78606" clip-path="url(#pe30911f7b6)"/><path d="m103.932 234.98-4.64934-1.16233 0.159863 1.17233-5.16895-2.87755 5.91498-0.10658-0.692745 0.95919 4.64934 1.16233-0.21316 0.85261" clip-path="url(#pe30911f7b6)"/><path d="m112.864 234.93-2.81683-0.93894 0.0626 1.06413-4.44433-2.94201 5.32067 0.31298-0.68855 0.81375 2.81682 0.93894-0.25038 0.75115" clip-path="url(#pe30911f7b6)"/><path d="m121.816 234.805-1.87789-0.93894-0.0626 0.75115-2.81683-2.50384 3.69317 0.75115-0.56336 0.50077 1.87788 0.93894-0.25038 0.50077" clip-path="url(#pe30911f7b6)"/><path d="m157.621 234.304 1.87788-0.93894-0.56336-0.50077 3.69317-0.75115-2.81683 2.50384-0.0626-0.75115-1.87788 0.93894-0.25039-0.50077" clip-path="url(#pe30911f7b6)"/><path d="m166.572 234.179 2.81682-0.93894-0.68855-0.81375 5.32067-0.31299-4.44433 2.94202 0.0626-1.06413-2.81682 0.93894-0.25039-0.75115" clip-path="url(#pe30911f7b6)"/><path d="m175.542 234.128 4.64934-1.16233-0.69274-0.95919 5.91498 0.10657-5.16895 2.87756 0.15987-1.17234-4.64934 1.16234-0.21316-0.85261" clip-path="url(#pe30911f7b6)"/><path d="m104.038 223.273h-4.4919l0.439425 1.09857-5.71252-1.53799 5.71252-1.53799-0.439425 1.09856h4.4919v0.87885" clip-path="url(#pe30911f7b6)"/><path d="m112.989 223.209h-2.81683l0.37558 0.93894-4.8825-1.31452 4.8825-1.31452-0.37558 0.93894h2.81683v0.75116" clip-path="url(#pe30911f7b6)"/><path d="m121.941 223.084h-1.87788l0.25038 0.62597-3.255-0.87635 3.255-0.87635-0.25038 0.62596h1.87788v0.50077" clip-path="url(#pe30911f7b6)"/><path d="m157.746 222.583h1.87788l-0.25038-0.62596 3.255 0.87635-3.255 0.87635 0.25038-0.62597h-1.87788v-0.50077" clip-path="url(#pe30911f7b6)"/><path d="m166.697 222.458h2.81683l-0.37558-0.93894 4.8825 1.31452-4.8825 1.31452 0.37558-0.93894h-2.81683v-0.75116" clip-path="url(#pe30911f7b6)"/><path d="m175.648 222.394h4.4919l-0.43943-1.09856 5.71253 1.53799-5.71253 1.53799 0.43943-1.09857h-4.4919v-0.87885" clip-path="url(#pe30911f7b6)"/><path d="m104.145 211.539-4.64934 1.16234 0.692745 0.95918-5.91498-0.10657 5.16895-2.87756-0.159863 1.17234 4.64934-1.16234 0.21316 0.85261" clip-path="url(#pe30911f7b6)"/><path d="m113.115 211.488-2.81682 0.93894 0.68855 0.81375-5.32067 0.31299 4.44433-2.94202-0.0626 1.06413 2.81682-0.93894 0.25039 0.75115" clip-path="url(#pe30911f7b6)"/><path d="m122.066 211.363-1.87788 0.93894 0.56336 0.50077-3.69317 0.75116 2.81683-2.50385 0.0626 0.75115 1.87788-0.93894 0.25039 0.50077" clip-path="url(#pe30911f7b6)"/><path d="m157.871 210.863 1.87789 0.93894 0.0626-0.75115 2.81682 2.50384-3.69317-0.75115 0.56337-0.50077-1.87789-0.93894 0.25039-0.50077" clip-path="url(#pe30911f7b6)"/><path d="m166.822 210.737 2.81683 0.93894-0.0626-1.06413 4.44433 2.94202-5.32068-0.31299 0.68856-0.81375-2.81683-0.93894 0.25039-0.75115" clip-path="url(#pe30911f7b6)"/><path d="m175.755 210.687 4.64934 1.16233-0.15987-1.17233 5.16895 2.87756-5.91498 0.10657 0.69275-0.95919-4.64935-1.16233 0.21316-0.85261" clip-path="url(#pe30911f7b6)"/><path d="m104.235 199.785-5.0486 2.5243 0.884329 0.78607-5.79725 1.1791 4.42163-3.93034 0.09826 1.1791 5.0486-2.52429 0.39303 0.78606" clip-path="url(#pe30911f7b6)"/><path d="m113.233 199.758-2.93627 1.95751 0.975 0.67031-5.60623 1.88906 3.89999-4.44842 0.24375 1.15781 2.93626-1.95751 0.4875 0.73124" clip-path="url(#pe30911f7b6)"/><path d="m122.191 199.643-1.87788 1.87789 0.87635 0.37558-4.13135 2.37865 2.37865-4.13135 0.37558 0.87635 1.87789-1.87789 0.50077 0.50077" clip-path="url(#pe30911f7b6)"/><path d="m131.142 199.517-0.93894 1.87789 0.75116 0.0626-2.50385 2.81682 0.75115-3.69317 0.50077 0.56336 0.93894-1.87788 0.50077 0.25038" clip-path="url(#pe30911f7b6)"/><path d="m140.094 199.392v1.87788l0.62597-0.25038-0.87635 3.255-0.87635-3.255 0.62596 0.25038v-1.87788h0.50077" clip-path="url(#pe30911f7b6)"/><path d="m149.045 199.267 0.93895 1.87788 0.50077-0.56336 0.75115 3.69317-2.50385-2.81683 0.75116-0.0626-0.93895-1.87788 0.50078-0.25039" clip-path="url(#pe30911f7b6)"/><path d="m157.996 199.142 1.87789 1.87789 0.37558-0.87635 2.37865 4.13135-4.13135-2.37865 0.87635-0.37558-1.87788-1.87789 0.50076-0.50077" clip-path="url(#pe30911f7b6)"/><path d="m166.941 199.027 2.93626 1.95751 0.24375-1.15781 3.89999 4.44842-5.60623-1.88906 0.975-0.67031-2.93627-1.95751 0.4875-0.73124" clip-path="url(#pe30911f7b6)"/><path d="m175.845 198.999 5.04859 2.52429 0.0983-1.1791 4.42163 3.93034-5.79724-1.1791 0.88432-0.78607-5.04859-2.5243 0.39303-0.78606" clip-path="url(#pe30911f7b6)"/><path d="m104.302 188.023-5.54652 4.15989 1.01068 0.6152-5.49281 2.19712 3.64723-4.6579 0.307598 1.1425 5.54652-4.15989 0.52731 0.70308" clip-path="url(#pe30911f7b6)"/><path d="m113.3 187.982-3.5951 3.59511 1.08752 0.46608-5.12689 2.95184 2.95184-5.12688 0.46608 1.08752 3.59511-3.59511 0.62144 0.62144" clip-path="url(#pe30911f7b6)"/><path d="m122.306 187.915-1.95751 2.93627 1.15781 0.24375-4.44842 3.89998 1.88906-5.60623 0.67031 0.975 1.95751-2.93626 0.73124 0.48749" clip-path="url(#pe30911f7b6)"/><path d="m131.268 187.797-0.93894 2.81682 1.06413-0.0626-2.94202 4.44433 0.31298-5.32067 0.81375 0.68856 0.93894-2.81683 0.75116 0.25038" clip-path="url(#pe30911f7b6)"/><path d="m140.219 187.672v2.81683l0.93894-0.37557-1.31452 4.88249-1.31452-4.88249 0.93894 0.37557v-2.81683h0.75116" clip-path="url(#pe30911f7b6)"/><path d="m149.17 187.546 0.93894 2.81683 0.81375-0.68856 0.31298 5.32067-2.94202-4.44432 1.06414 0.0626-0.93895-2.81683 0.75116-0.25038" clip-path="url(#pe30911f7b6)"/><path d="m158.111 187.428 1.95751 2.93626 0.67031-0.975 1.88906 5.60623-4.44842-3.89998 1.15781-0.24375-1.95751-2.93627 0.73124-0.48749" clip-path="url(#pe30911f7b6)"/><path d="m167.008 187.361 3.59511 3.59511 0.46608-1.08752 2.95184 5.12688-5.12689-2.95184 1.08753-0.46608-3.59511-3.59511 0.62144-0.62144" clip-path="url(#pe30911f7b6)"/><path d="m175.912 187.32 5.54652 4.15989 0.3076-1.1425 3.64723 4.6579-5.49281-2.19712 1.01067-0.6152-5.54652-4.15989 0.52731-0.70308" clip-path="url(#pe30911f7b6)"/><path d="m104.349 176.262-6.03636 6.03636 1.08752 0.46608-5.12689 2.95184 2.95184-5.12689 0.46608 1.08752 6.03636-6.03635 0.62144 0.62144" clip-path="url(#pe30911f7b6)"/><path d="m113.341 176.215-4.15989 5.54652 1.1425 0.3076-4.6579 3.64723 2.19713-5.49281 0.61519 1.01067 4.15989-5.54652 0.70308 0.52731" clip-path="url(#pe30911f7b6)"/><path d="m122.334 176.148-2.52429 5.04859 1.1791 0.0983-3.93034 4.42163 1.1791-5.79725 0.78607 0.88433 2.5243-5.0486 0.78606 0.39304" clip-path="url(#pe30911f7b6)"/><path d="m131.318 176.058-1.16233 4.64934 1.17234-0.15987-2.87756 5.16895-0.10658-5.91498 0.95919 0.69274 1.16234-4.64934 0.85261 0.21316" clip-path="url(#pe30911f7b6)"/><path d="m140.283 175.951v4.4919l1.09857-0.43943-1.53799 5.71253-1.53799-5.71253 1.09856 0.43943v-4.4919h0.87885" clip-path="url(#pe30911f7b6)"/><path d="m149.221 175.844 1.16234 4.64934 0.95919-0.69274-0.10658 5.91498-2.87756-5.16895 1.17234 0.15987-1.16233-4.64934 0.85261-0.21316" clip-path="url(#pe30911f7b6)"/><path d="m158.139 175.755 2.5243 5.0486 0.78607-0.88433 1.1791 5.79725-3.93034-4.42163 1.1791-0.0983-2.52429-5.0486 0.78606-0.39303" clip-path="url(#pe30911f7b6)"/><path d="m167.049 175.687 4.15989 5.54652 0.61519-1.01067 2.19713 5.49281-4.6579-3.64723 1.1425-0.3076-4.15989-5.54652 0.70308-0.52731" clip-path="url(#pe30911f7b6)"/><path d="m175.959 175.64 6.03636 6.03635 0.46608-1.08752 2.95184 5.12689-5.12689-2.95184 1.08753-0.46608-6.03636-6.03636 0.62144-0.62144" clip-path="url(#pe30911f7b6)"/></g><g fill="#f00" stroke-linejoin="round" stroke-miterlimit="1e5" stroke-width="1.25"><path d="m7.20892 260.262-6.03636 6.03636 1.08752 0.46608-5.12689 2.95184 2.95184-5.12689 0.46608 1.08753 6.03636-6.03636 0.62144 0.62144" clip-path="url(#p75e85dd5f0)"/><path d="m16.201 260.215-4.15989 5.54653 1.1425 0.30759-4.6579 3.64723 2.19712-5.49281 0.615195 1.01068 4.15989-5.54653 0.70308 0.52731" clip-path="url(#p75e85dd5f0)"/><path d="m25.1937 260.148-2.5243 5.04859 1.1791 0.0983-3.93034 4.42163 1.1791-5.79725 0.786068 0.88433 2.5243-5.0486 0.786068 0.39304" clip-path="url(#p75e85dd5f0)"/><path d="m34.1783 260.058-1.16234 4.64934 1.17234-0.15987-2.87756 5.16895-0.106575-5.91498 0.959186 0.69275 1.16234-4.64935 0.85261 0.21316" clip-path="url(#p75e85dd5f0)"/><path d="m43.1426 259.951v4.4919l1.09856-0.43942-1.53799 5.71252-1.53799-5.71252 1.09856 0.43942v-4.4919h0.87885" clip-path="url(#p75e85dd5f0)"/><path d="m52.0808 259.844 1.16234 4.64934 0.959186-0.69274-0.106575 5.91498-2.87756-5.16895 1.17234 0.15987-1.16234-4.64934 0.85261-0.21316" clip-path="url(#p75e85dd5f0)"/><path d="m60.9987 259.755 2.5243 5.0486 0.786068-0.88433 1.1791 5.79725-3.93034-4.42163 1.1791-0.0983-2.5243-5.0486 0.786068-0.39303" clip-path="url(#p75e85dd5f0)"/><path d="m69.9085 259.687 4.15989 5.54653 0.615195-1.01068 2.19712 5.49281-4.6579-3.64723 1.1425-0.30759-4.15989-5.54653 0.70308-0.52731" clip-path="url(#p75e85dd5f0)"/><path d="m78.8189 259.64 6.03636 6.03635 0.46608-1.08752 2.95184 5.12689-5.12689-2.95184 1.08752-0.46608-6.03636-6.03636 0.62144-0.62144" clip-path="url(#p75e85dd5f0)"/><path d="m7.16186 251.023-5.54652 4.15988 1.01068 0.6152-5.49281 2.19712 3.64723-4.6579 0.307598 1.1425 5.54652-4.15989 0.52731 0.70309" clip-path="url(#p75e85dd5f0)"/><path d="m16.1602 250.982-3.5951 3.59511 1.08752 0.46608-5.12689 2.95184 2.95184-5.12688 0.46608 1.08752 3.59511-3.5951 0.62144 0.62144" clip-path="url(#p75e85dd5f0)"/><path d="m25.1663 250.915-1.95751 2.93627 1.15781 0.24375-4.44842 3.89998 1.88906-5.60623 0.67031 0.975 1.95751-2.93626 0.731248 0.48749" clip-path="url(#p75e85dd5f0)"/><path d="m34.1275 250.797-0.938942 2.81682 1.06413-0.0626-2.94202 4.44433 0.312981-5.32067 0.81375 0.68856 0.938942-2.81683 0.751155 0.25038" clip-path="url(#p75e85dd5f0)"/><path d="m43.0788 250.672v2.81683l0.938942-0.37557-1.31452 4.88249-1.31452-4.8825 0.938942 0.37558v-2.81683h0.751154" clip-path="url(#p75e85dd5f0)"/><path d="m52.03 250.546 0.938941 2.81683 0.81375-0.68856 0.312981 5.32067-2.94202-4.44432 1.06413 0.0626-0.938942-2.81683 0.751155-0.25038" clip-path="url(#p75e85dd5f0)"/><path d="m60.9713 250.428 1.95751 2.93626 0.67031-0.975 1.88906 5.60623-4.44842-3.89998 1.15781-0.24375-1.95751-2.93627 0.731248-0.48749" clip-path="url(#p75e85dd5f0)"/><path d="m69.8677 250.361 3.59511 3.5951 0.46608-1.08752 2.95184 5.12688-5.12689-2.95184 1.08752-0.46608-3.5951-3.59511 0.62144-0.62143" clip-path="url(#p75e85dd5f0)"/><path d="m78.7719 250.32 5.54652 4.15989 0.307597-1.1425 3.64723 4.6579-5.49281-2.19712 1.01068-0.6152-5.54652-4.15988 0.52731-0.70309" clip-path="url(#p75e85dd5f0)"/><path d="m7.09472 241.785-5.04859 2.5243 0.884325 0.78607-5.79725 1.1791 4.42163-3.93034 0.098263 1.1791 5.0486-2.52429 0.393032 0.78606" clip-path="url(#p75e85dd5f0)"/><path d="m16.0932 241.758-2.93626 1.95751 0.974996 0.67031-5.60623 1.88906 3.89999-4.44842 0.243749 1.15781 2.93627-1.95751 0.487498 0.73124" clip-path="url(#p75e85dd5f0)"/><path d="m25.0511 241.643-1.87788 1.87789 0.876346 0.37558-4.13135 2.37865 2.37865-4.13135 0.375577 0.87635 1.87788-1.87789 0.50077 0.50077" clip-path="url(#p75e85dd5f0)"/><path d="m34.0023 241.517-0.938942 1.87789 0.751153 0.0626-2.50385 2.81682 0.751154-3.69317 0.500769 0.56336 0.938942-1.87788 0.50077 0.25038" clip-path="url(#p75e85dd5f0)"/><path d="m42.9536 241.392v1.87788l0.625961-0.25038-0.876346 3.255-0.876346-3.255 0.625961 0.25038v-1.87788h0.50077" clip-path="url(#p75e85dd5f0)"/><path d="m51.9048 241.267 0.938942 1.87788 0.500769-0.56336 0.751154 3.69317-2.50385-2.81683 0.751154-0.0626-0.938943-1.87788 0.50077-0.25039" clip-path="url(#p75e85dd5f0)"/><path d="m60.8561 241.142 1.87788 1.87789 0.375577-0.87635 2.37865 4.13135-4.13135-2.37865 0.876346-0.37558-1.87788-1.87789 0.50077-0.50077" clip-path="url(#p75e85dd5f0)"/><path d="m69.8007 241.027 2.93627 1.95751 0.243749-1.15781 3.89999 4.44842-5.60623-1.88906 0.974996-0.67031-2.93626-1.95751 0.487498-0.73124" clip-path="url(#p75e85dd5f0)"/><path d="m78.7047 240.999 5.0486 2.52429 0.09826-1.1791 4.42163 3.93034-5.79725-1.1791 0.884325-0.78607-5.0486-2.5243 0.393033-0.78606" clip-path="url(#p75e85dd5f0)"/><path d="m7.00478 232.539-4.64934 1.16233 0.692745 0.95919-5.91498-0.10657 5.16895-2.87756-0.159864 1.17234 4.64934-1.16234 0.213152 0.85261" clip-path="url(#p75e85dd5f0)"/><path d="m15.9746 232.488-2.81683 0.93894 0.688558 0.81375-5.32067 0.31299 4.44433-2.94202-0.0626 1.06413 2.81683-0.93894 0.250385 0.75115" clip-path="url(#p75e85dd5f0)"/><path d="m24.9259 232.363-1.87788 0.93894 0.563365 0.50077-3.69317 0.75116 2.81683-2.50385 0.0626 0.75115 1.87788-0.93894 0.250385 0.50077" clip-path="url(#p75e85dd5f0)"/><path d="m60.7309 231.863 1.87788 0.93894 0.0626-0.75115 2.81683 2.50384-3.69317-0.75115 0.563365-0.50077-1.87788-0.93894 0.250385-0.50077" clip-path="url(#p75e85dd5f0)"/><path d="m69.6821 231.737 2.81683 0.93894-0.0626-1.06413 4.44433 2.94201-5.32067-0.31298 0.688557-0.81375-2.81683-0.93894 0.250385-0.75115" clip-path="url(#p75e85dd5f0)"/><path d="m78.6148 231.687 4.64934 1.16233-0.159863-1.17233 5.16895 2.87755-5.91498 0.10658 0.692745-0.95919-4.64934-1.16233 0.213152-0.85261" clip-path="url(#p75e85dd5f0)"/><path d="m6.8982 223.273h-4.4919l0.439425 1.09857-5.71252-1.53799 5.71252-1.53799-0.439425 1.09856h4.4919v0.87885" clip-path="url(#p75e85dd5f0)"/><path d="m15.8494 223.209h-2.81683l0.375577 0.93894-4.8825-1.31452 4.8825-1.31452-0.375577 0.93894h2.81683v0.75116" clip-path="url(#p75e85dd5f0)"/><path d="m24.8007 223.084h-1.87788l0.250385 0.62597-3.255-0.87635 3.255-0.87635-0.250385 0.62596h1.87788v0.50077" clip-path="url(#p75e85dd5f0)"/><path d="m60.6057 222.583h1.87788l-0.250385-0.62596 3.255 0.87635-3.255 0.87635 0.250385-0.62597h-1.87788v-0.50077" clip-path="url(#p75e85dd5f0)"/><path d="m69.557 222.458h2.81683l-0.375578-0.93894 4.8825 1.31452-4.8825 1.31452 0.375578-0.93894h-2.81683v-0.75116" clip-path="url(#p75e85dd5f0)"/><path d="m78.5082 222.394h4.4919l-0.439425-1.09856 5.71252 1.53799-5.71252 1.53799 0.439425-1.09857h-4.4919v-0.87885" clip-path="url(#p75e85dd5f0)"/><path d="m6.79162 213.98-4.64934-1.16233 0.159864 1.17233-5.16895-2.87756 5.91498-0.10657-0.692745 0.95919 4.64934 1.16233-0.213152 0.85261" clip-path="url(#p75e85dd5f0)"/><path d="m15.7243 213.93-2.81683-0.93894 0.0626 1.06413-4.44433-2.94202 5.32067 0.31299-0.688558 0.81375 2.81683 0.93894-0.250384 0.75115" clip-path="url(#p75e85dd5f0)"/><path d="m24.6755 213.805-1.87788-0.93894-0.0626 0.75115-2.81683-2.50385 3.69317 0.75116-0.563365 0.50077 1.87788 0.93894-0.250385 0.50077" clip-path="url(#p75e85dd5f0)"/><path d="m60.4805 213.304 1.87788-0.93894-0.563364-0.50077 3.69317-0.75116-2.81683 2.50385-0.0626-0.75115-1.87788 0.93894-0.250385-0.50077" clip-path="url(#p75e85dd5f0)"/><path d="m69.4318 213.179 2.81683-0.93894-0.688557-0.81375 5.32067-0.31299-4.44433 2.94202 0.0626-1.06413-2.81683 0.93894-0.250385-0.75115" clip-path="url(#p75e85dd5f0)"/><path d="m78.4016 213.128 4.64934-1.16234-0.692745-0.95918 5.91498 0.10657-5.16895 2.87756 0.159863-1.17234-4.64934 1.16234-0.213152-0.85261" clip-path="url(#p75e85dd5f0)"/><path d="m6.70168 204.668-5.0486-2.52429-0.098259 1.1791-4.42163-3.93034 5.79725 1.1791-0.884325 0.78607 5.0486 2.5243-0.393032 0.78606" clip-path="url(#p75e85dd5f0)"/><path d="m15.6057 204.64-2.93627-1.95751-0.243749 1.15781-3.89999-4.44842 5.60623 1.88906-0.974996 0.67031 2.93626 1.95751-0.487498 0.73124" clip-path="url(#p75e85dd5f0)"/><path d="m24.5503 204.525-1.87788-1.87788-0.375577 0.87635-2.37865-4.13135 4.13135 2.37865-0.876346 0.37558 1.87788 1.87788-0.50077 0.50078" clip-path="url(#p75e85dd5f0)"/><path d="m33.5016 204.4-0.938942-1.87788-0.500769 0.56336-0.751154-3.69317 2.50385 2.81683-0.751154 0.0626 0.938943 1.87788-0.50077 0.25039" clip-path="url(#p75e85dd5f0)"/><path d="m42.4528 204.275v-1.87789l-0.625961 0.25039 0.876346-3.255 0.876346 3.255-0.625961-0.25039v1.87789h-0.50077" clip-path="url(#p75e85dd5f0)"/><path d="m51.4041 204.15 0.938942-1.87789-0.751153-0.0626 2.50385-2.81683-0.751154 3.69317-0.500769-0.56336-0.938942 1.87788-0.50077-0.25038" clip-path="url(#p75e85dd5f0)"/><path d="m60.3553 204.024 1.87788-1.87788-0.876346-0.37558 4.13135-2.37865-2.37865 4.13135-0.375577-0.87635-1.87788 1.87788-0.50077-0.50077" clip-path="url(#p75e85dd5f0)"/><path d="m69.3132 203.909 2.93626-1.95751-0.974996-0.67031 5.60623-1.88906-3.89999 4.44842-0.243749-1.15781-2.93627 1.95751-0.487498-0.73124" clip-path="url(#p75e85dd5f0)"/><path d="m78.3117 203.882 5.0486-2.5243-0.884325-0.78607 5.79725-1.1791-4.42163 3.93034-0.09826-1.1791-5.0486 2.52429-0.393033-0.78606" clip-path="url(#p75e85dd5f0)"/><path d="m6.63454 195.347-5.54652-4.15989-0.307598 1.14251-3.64723-4.65791 5.49281 2.19713-1.01068 0.61519 5.54652 4.15989-0.52731 0.70308" clip-path="url(#p75e85dd5f0)"/><path d="m15.5387 195.306-3.59511-3.59511-0.46608 1.08752-2.95184-5.12689 5.12689 2.95185-1.08752 0.46608 3.5951 3.5951-0.62144 0.62144" clip-path="url(#p75e85dd5f0)"/><path d="m24.4351 195.239-1.95751-2.93626-0.67031 0.97499-1.88906-5.60623 4.44842 3.89999-1.15781 0.24375 1.95751 2.93627-0.731248 0.48749" clip-path="url(#p75e85dd5f0)"/><path d="m33.3764 195.121-0.938942-2.81683-0.81375 0.68856-0.312981-5.32068 2.94202 4.44433-1.06413-0.0626 0.938942 2.81683-0.751154 0.25038" clip-path="url(#p75e85dd5f0)"/><path d="m42.3276 194.995v-2.81682l-0.938942 0.37558 1.31452-4.88251 1.31452 4.8825-0.938942-0.37557v2.81682h-0.751155" clip-path="url(#p75e85dd5f0)"/><path d="m51.2789 194.87 0.938942-2.81682-1.06413 0.0626 2.94202-4.44433-0.312981 5.32067-0.81375-0.68856-0.938942 2.81683-0.751155-0.25038" clip-path="url(#p75e85dd5f0)"/><path d="m60.2401 194.752 1.95751-2.93627-1.15781-0.24375 4.44842-3.89999-1.88906 5.60623-0.67031-0.97499-1.95751 2.93626-0.731248-0.48749" clip-path="url(#p75e85dd5f0)"/><path d="m69.2462 194.685 3.5951-3.5951-1.08752-0.46608 5.12689-2.95185-2.95184 5.12689-0.46608-1.08752-3.59511 3.5951-0.62144-0.62144" clip-path="url(#p75e85dd5f0)"/><path d="m78.2445 194.644 5.54652-4.15989-1.01068-0.61519 5.49281-2.19713-3.64723 4.65791-0.307597-1.14251-5.54652 4.15989-0.52731-0.70308" clip-path="url(#p75e85dd5f0)"/><path d="m6.58748 186.027-6.03636-6.03635-0.46608 1.08752-2.95184-5.12689 5.12689 2.95184-1.08752 0.46608 6.03636 6.03636-0.62144 0.62144" clip-path="url(#p75e85dd5f0)"/><path d="m15.4979 185.98-4.15989-5.54652-0.615195 1.01068-2.19712-5.49281 4.6579 3.64723-1.1425 0.30759 4.15989 5.54652-0.70308 0.52731" clip-path="url(#p75e85dd5f0)"/><path d="m24.4077 185.913-2.5243-5.0486-0.786068 0.88433-1.1791-5.79725 3.93034 4.42163-1.1791 0.0983 2.5243 5.0486-0.786068 0.39303" clip-path="url(#p75e85dd5f0)"/><path d="m33.3256 185.823-1.16234-4.64935-0.959186 0.69275 0.106576-5.91498 2.87756 5.16895-1.17234-0.15987 1.16234 4.64934-0.85261 0.21316" clip-path="url(#p75e85dd5f0)"/><path d="m42.2638 185.716v-4.4919l-1.09856 0.43942 1.53799-5.71252 1.53799 5.71252-1.09856-0.43942v4.4919h-0.87885" clip-path="url(#p75e85dd5f0)"/><path d="m51.2281 185.609 1.16234-4.64934-1.17234 0.15987 2.87756-5.16895 0.106575 5.91498-0.959186-0.69275-1.16234 4.64935-0.85261-0.21316" clip-path="url(#p75e85dd5f0)"/><path d="m60.2127 185.52 2.5243-5.04859-1.1791-0.0983 3.93034-4.42163-1.1791 5.79725-0.786068-0.88433-2.5243 5.0486-0.786068-0.39304" clip-path="url(#p75e85dd5f0)"/><path d="m69.2054 185.452 4.15989-5.54652-1.1425-0.30759 4.6579-3.64723-2.19712 5.49281-0.615195-1.01068-4.15989 5.54652-0.70308-0.52731" clip-path="url(#p75e85dd5f0)"/><path d="m78.1975 185.405 6.03636-6.03636-1.08752-0.46608 5.12689-2.95184-2.95184 5.12689-0.46608-1.08752-6.03636 6.03635-0.62144-0.62144" clip-path="url(#p75e85dd5f0)"/></g><g fill="#00f" stroke-linejoin="round" stroke-miterlimit="1e5" stroke-width="1.25"><path d="m94.584 360.027 6.03636 6.03635 0.46608-1.08752 2.95184 5.12689-5.12689-2.95184 1.08752-0.46608-6.03636-6.03636 0.62144-0.62144" clip-path="url(#pbed49c8f34)"/><path d="m104.709 361.207 5.54652 4.15989 0.3076-1.1425 3.64723 4.6579-5.49282-2.19712 1.01068-0.6152-5.54652-4.15989 0.52731-0.70308" clip-path="url(#pbed49c8f34)"/><path d="m114.814 362.386 5.04859 2.52429 0.0983-1.1791 4.42162 3.93034-5.79724-1.1791 0.88432-0.78607-5.04859-2.5243 0.39303-0.78606" clip-path="url(#pbed49c8f34)"/><path d="m124.895 363.573 4.64934 1.16233-0.15986-1.17233 5.16894 2.87755-5.91497 0.10658 0.69274-0.95919-4.64934-1.16233 0.21315-0.85261" clip-path="url(#pbed49c8f34)"/><path d="m134.961 364.781h4.4919l-0.43943-1.09857 5.71253 1.53799-5.71253 1.53799 0.43943-1.09857h-4.4919v-0.87884" clip-path="url(#pbed49c8f34)"/><path d="m145.026 366.014 4.64934-1.16234-0.69274-0.95918 5.91497 0.10657-5.16894 2.87756 0.15986-1.17234-4.64934 1.16234-0.21315-0.85261" clip-path="url(#pbed49c8f34)"/><path d="m155.108 367.268 5.0486-2.5243-0.88433-0.78607 5.79725-1.1791-4.42163 3.93034-0.0983-1.1791-5.0486 2.52429-0.39303-0.78606" clip-path="url(#pbed49c8f34)"/><path d="m165.213 368.53 5.54652-4.15989-1.01068-0.61519 5.49281-2.19713-3.64722 4.65791-0.3076-1.14251-5.54652 4.15989-0.52731-0.70308" clip-path="url(#pbed49c8f34)"/><path d="m175.338 369.792 6.03635-6.03636-1.08752-0.46608 5.12689-2.95184-2.95184 5.12689-0.46608-1.08753-6.03636 6.03636-0.62144-0.62144" clip-path="url(#pbed49c8f34)"/><path d="m95.8454 349.574 4.1599 5.54653 0.61519-1.01068 2.19713 5.49281-4.65791-3.64723 1.1425-0.30759-4.15989-5.54653 0.70308-0.52731" clip-path="url(#pbed49c8f34)"/><path d="m105.976 350.747 3.59511 3.59511 0.46608-1.08752 2.95184 5.12688-5.12689-2.95184 1.08752-0.46608-3.5951-3.59511 0.62144-0.62144" clip-path="url(#pbed49c8f34)"/><path d="m116.081 351.913 2.93627 1.95751 0.24375-1.15781 3.89999 4.44842-5.60623-1.88906 0.97499-0.67031-2.93626-1.95751 0.48749-0.73124" clip-path="url(#pbed49c8f34)"/><path d="m126.135 353.124 2.81683 0.93894-0.0626-1.06413 4.44433 2.94201-5.32068-0.31298 0.68856-0.81375-2.81683-0.93894 0.25039-0.75115" clip-path="url(#pbed49c8f34)"/><path d="m136.181 354.344h2.81683l-0.37558-0.93894 4.88251 1.31452-4.88251 1.31452 0.37558-0.93894h-2.81683v-0.75116" clip-path="url(#pbed49c8f34)"/><path d="m146.228 355.565 2.81682-0.93894-0.68855-0.81375 5.32067-0.31299-4.44433 2.94202 0.0626-1.06413-2.81682 0.93894-0.25039-0.75115" clip-path="url(#pbed49c8f34)"/><path d="m156.281 356.796 2.93626-1.95751-0.975-0.67031 5.60624-1.88906-3.89999 4.44842-0.24375-1.15781-2.93627 1.95751-0.48749-0.73124" clip-path="url(#pbed49c8f34)"/><path d="m166.386 358.071 3.5951-3.5951-1.08752-0.46608 5.12689-2.95185-2.95184 5.12689-0.46608-1.08752-3.59511 3.5951-0.62144-0.62144" clip-path="url(#pbed49c8f34)"/><path d="m176.517 359.339 4.1599-5.54653-1.14251-0.30759 4.65791-3.64723-2.19713 5.49281-0.61519-1.01068-4.1599 5.54653-0.70308-0.52731" clip-path="url(#pbed49c8f34)"/><path d="m97.1075 339.141 2.5243 5.0486 0.786069-0.88433 1.1791 5.79725-3.93034-4.42163 1.1791-0.0983-2.5243-5.0486 0.786068-0.39303" clip-path="url(#pbed49c8f34)"/><path d="m107.252 340.314 1.95751 2.93626 0.67031-0.97499 1.88906 5.60622-4.44843-3.89998 1.15781-0.24375-1.95751-2.93627 0.73125-0.48749" clip-path="url(#pbed49c8f34)"/><path d="m117.309 341.528 1.87788 1.87789 0.37558-0.87635 2.37865 4.13135-4.13135-2.37865 0.87635-0.37558-1.87788-1.87788 0.50077-0.50078" clip-path="url(#pbed49c8f34)"/><path d="m127.355 342.749 1.87788 0.93894 0.0626-0.75115 2.81683 2.50384-3.69317-0.75115 0.56336-0.50077-1.87788-0.93894 0.25038-0.50077" clip-path="url(#pbed49c8f34)"/><path d="m137.402 343.97h1.87788l-0.25038-0.62596 3.255 0.87635-3.255 0.87635 0.25038-0.62597h-1.87788v-0.50077" clip-path="url(#pbed49c8f34)"/><path d="m147.449 345.19 1.87789-0.93894-0.56337-0.50077 3.69317-0.75116-2.81682 2.50385-0.0626-0.75115-1.87789 0.93894-0.25038-0.50077" clip-path="url(#pbed49c8f34)"/><path d="m157.495 346.411 1.87788-1.87788-0.87635-0.37558 4.13135-2.37865-2.37865 4.13135-0.37558-0.87635-1.87789 1.87789-0.50076-0.50078" clip-path="url(#pbed49c8f34)"/><path d="m167.552 347.638 1.95751-2.93627-1.15781-0.24375 4.44842-3.89999-1.88905 5.60623-0.67031-0.97499-1.95751 2.93626-0.73125-0.48749" clip-path="url(#pbed49c8f34)"/><path d="m177.696 348.906 2.52429-5.04859-1.1791-0.0983 3.93034-4.42163-1.1791 5.79725-0.78607-0.88433-2.5243 5.0486-0.78606-0.39304" clip-path="url(#pbed49c8f34)"/><path d="m98.3614 328.731 1.16234 4.64934 0.959185-0.69274-0.10657 5.91498-2.87756-5.16895 1.17234 0.15987-1.16234-4.64934 0.85261-0.21316" clip-path="url(#pbed49c8f34)"/><path d="m108.483 329.933 0.93894 2.81683 0.81375-0.68856 0.31298 5.32067-2.94202-4.44432 1.06413 0.0626-0.93894-2.81683 0.75116-0.25038" clip-path="url(#pbed49c8f34)"/><path d="m118.529 331.154 0.93894 1.87788 0.50077-0.56336 0.75116 3.69317-2.50385-2.81683 0.75115-0.0626-0.93894-1.87788 0.50077-0.25039" clip-path="url(#pbed49c8f34)"/><path d="m158.716 336.036 0.93894-1.87789-0.75115-0.0626 2.50385-2.81683-0.75116 3.69317-0.50077-0.56336-0.93894 1.87788-0.50077-0.25038" clip-path="url(#pbed49c8f34)"/><path d="m168.763 337.257 0.93894-2.81682-1.06413 0.0626 2.94202-4.44433-0.31298 5.32067-0.81375-0.68856-0.93894 2.81683-0.75116-0.25038" clip-path="url(#pbed49c8f34)"/><path d="m178.884 338.496 1.16233-4.64934-1.17233 0.15987 2.87755-5.16895 0.10658 5.91498-0.95919-0.69274-1.16233 4.64934-0.85261-0.21316" clip-path="url(#pbed49c8f34)"/><path d="m99.5952 318.337v4.4919l1.09856-0.43942-1.53799 5.71252-1.53799-5.71252 1.09856 0.43942v-4.4919h0.87885" clip-path="url(#pbed49c8f34)"/><path d="m109.703 319.558v2.81683l0.93894-0.37558-1.31452 4.8825-1.31451-4.8825 0.93894 0.37558v-2.81683h0.75115" clip-path="url(#pbed49c8f34)"/><path d="m119.75 320.779v1.87789l0.62596-0.25039-0.87635 3.255-0.87635-3.255 0.62596 0.25039v-1.87789h0.50078" clip-path="url(#pbed49c8f34)"/><path d="m159.937 325.661v-1.87789l-0.62596 0.25039 0.87635-3.255 0.87635 3.255-0.62597-0.25039v1.87789h-0.50077" clip-path="url(#pbed49c8f34)"/><path d="m169.983 326.882v-2.81682l-0.93894 0.37557 1.31451-4.8825 1.31452 4.8825-0.93894-0.37557v2.81682h-0.75115" clip-path="url(#pbed49c8f34)"/><path d="m180.091 328.102v-4.4919l-1.09856 0.43942 1.53799-5.71252 1.53799 5.71252-1.09857-0.43942v4.4919h-0.87885" clip-path="url(#pbed49c8f34)"/><path d="m100.803 307.944-1.16234 4.64934 1.17234-0.15987-2.87756 5.16895-0.106575-5.91498 0.959186 0.69274 1.16234-4.64934 0.852609 0.21316" clip-path="url(#pbed49c8f34)"/><path d="m110.924 309.183-0.93894 2.81682 1.06413-0.0626-2.94202 4.44433 0.31298-5.32067 0.81375 0.68856 0.93894-2.81683 0.75116 0.25038" clip-path="url(#pbed49c8f34)"/><path d="m120.97 310.404-0.93894 1.87789 0.75115 0.0626-2.50384 2.81682 0.75115-3.69317 0.50077 0.56337 0.93894-1.87789 0.50077 0.25039" clip-path="url(#pbed49c8f34)"/><path d="m161.157 315.286-0.93894-1.87788-0.50077 0.56336-0.75116-3.69317 2.50385 2.81683-0.75115 0.0626 0.93894 1.87788-0.50077 0.25039" clip-path="url(#pbed49c8f34)"/><path d="m171.204 316.507-0.93894-2.81683-0.81375 0.68856-0.31298-5.32068 2.94202 4.44433-1.06413-0.0626 0.93894 2.81683-0.75116 0.25038" clip-path="url(#pbed49c8f34)"/><path d="m181.325 317.709-1.16234-4.64934-0.95918 0.69274 0.10657-5.91498 2.87756 5.16895-1.17234-0.15987 1.16234 4.64934-0.85261 0.21316" clip-path="url(#pbed49c8f34)"/><path d="m101.99 297.534-2.52429 5.04859 1.1791 0.0983-3.93034 4.42163 1.1791-5.79725 0.786068 0.88433 2.5243-5.0486 0.78606 0.39304" clip-path="url(#pbed49c8f34)"/><path d="m112.134 298.802-1.95751 2.93627 1.15781 0.24375-4.44842 3.89998 1.88905-5.60622 0.67031 0.97499 1.95751-2.93626 0.73125 0.48749" clip-path="url(#pbed49c8f34)"/><path d="m122.191 300.029-1.87788 1.87788 0.87635 0.37558-4.13135 2.37865 2.37865-4.13135 0.37558 0.87635 1.87789-1.87789 0.50077 0.50078" clip-path="url(#pbed49c8f34)"/><path d="m132.238 301.25-1.87789 0.93894 0.56337 0.50077-3.69318 0.75115 2.81683-2.50384 0.0626 0.75115 1.87789-0.93894 0.25038 0.50077" clip-path="url(#pbed49c8f34)"/><path d="m142.284 302.47h-1.87789l0.25039 0.62597-3.255-0.87635 3.255-0.87635-0.25039 0.62596h1.87789v0.50077" clip-path="url(#pbed49c8f34)"/><path d="m152.331 303.691-1.87788-0.93894-0.0626 0.75115-2.81683-2.50385 3.69317 0.75116-0.56336 0.50077 1.87788 0.93894-0.25038 0.50077" clip-path="url(#pbed49c8f34)"/><path d="m162.378 304.912-1.87788-1.87789-0.37558 0.87635-2.37865-4.13135 4.13135 2.37865-0.87635 0.37558 1.87788 1.87789-0.50077 0.50077" clip-path="url(#pbed49c8f34)"/><path d="m172.434 306.126-1.95751-2.93626-0.67031 0.975-1.88906-5.60624 4.44843 3.89999-1.15781 0.24375 1.95751 2.93627-0.73125 0.48749" clip-path="url(#pbed49c8f34)"/><path d="m182.579 307.299-2.5243-5.0486-0.78607 0.88433-1.1791-5.79725 3.93034 4.42163-1.1791 0.0983 2.52429 5.0486-0.78606 0.39303" clip-path="url(#pbed49c8f34)"/><path d="m103.169 287.101-4.1599 5.54653 1.1425 0.30759-4.6579 3.64723 2.19712-5.49281 0.615195 1.01068 4.1599-5.54653 0.70308 0.52731" clip-path="url(#pbed49c8f34)"/><path d="m113.3 288.369-3.5951 3.59511 1.08752 0.46608-5.12689 2.95184 2.95184-5.12688 0.46608 1.08752 3.59511-3.59511 0.62144 0.62144" clip-path="url(#pbed49c8f34)"/><path d="m123.405 289.644-2.93626 1.95751 0.975 0.67031-5.60624 1.88906 3.89999-4.44842 0.24375 1.15781 2.93627-1.95751 0.48749 0.73124" clip-path="url(#pbed49c8f34)"/><path d="m133.458 290.875-2.81683 0.93894 0.68856 0.81375-5.32067 0.31298 4.44433-2.94201-0.0626 1.06413 2.81682-0.93894 0.25039 0.75115" clip-path="url(#pbed49c8f34)"/><path d="m143.505 292.096h-2.81683l0.37557 0.93894-4.8825-1.31452 4.8825-1.31452-0.37557 0.93894h2.81683v0.75116" clip-path="url(#pbed49c8f34)"/><path d="m153.552 293.316-2.81683-0.93894 0.0626 1.06413-4.44433-2.94202 5.32067 0.31299-0.68856 0.81375 2.81683 0.93894-0.25038 0.75115" clip-path="url(#pbed49c8f34)"/><path d="m163.605 294.527-2.93627-1.95751-0.24375 1.15781-3.89999-4.44842 5.60623 1.88906-0.97499 0.67031 2.93626 1.95751-0.48749 0.73124" clip-path="url(#pbed49c8f34)"/><path d="m173.71 295.693-3.59511-3.5951-0.46608 1.08752-2.95184-5.12689 5.12689 2.95185-1.08753 0.46608 3.59511 3.5951-0.62144 0.62144" clip-path="url(#pbed49c8f34)"/><path d="m183.841 296.866-4.15989-5.54653-0.61519 1.01068-2.19713-5.49281 4.65791 3.64723-1.14251 0.30759 4.1599 5.54653-0.70309 0.52731" clip-path="url(#pbed49c8f34)"/><path d="m104.349 276.648-6.03636 6.03636 1.08752 0.46608-5.12689 2.95184 2.95184-5.12689 0.46608 1.08753 6.03636-6.03636 0.62144 0.62144" clip-path="url(#pbed49c8f34)"/><path d="m114.474 277.91-5.54652 4.15989 1.01068 0.6152-5.49282 2.19712 3.64723-4.6579 0.3076 1.1425 5.54652-4.15989 0.52731 0.70308" clip-path="url(#pbed49c8f34)"/><path d="m124.578 279.172-5.0486 2.5243 0.88433 0.78607-5.79725 1.1791 4.42163-3.93034 0.0983 1.1791 5.0486-2.52429 0.39303 0.78606" clip-path="url(#pbed49c8f34)"/><path d="m134.66 280.426-4.64934 1.16233 0.69274 0.95919-5.91497-0.10657 5.16894-2.87756-0.15986 1.17234 4.64934-1.16234 0.21315 0.85261" clip-path="url(#pbed49c8f34)"/><path d="m144.726 281.659h-4.4919l0.43942 1.09856-5.71252-1.53799 5.71252-1.53799-0.43942 1.09857h4.4919v0.87885" clip-path="url(#pbed49c8f34)"/><path d="m154.791 282.867-4.64934-1.16234 0.15986 1.17234-5.16895-2.87756 5.91498-0.10657-0.69274 0.95919 4.64934 1.16233-0.21315 0.85261" clip-path="url(#pbed49c8f34)"/><path d="m164.873 284.054-5.04859-2.52429-0.0983 1.1791-4.42163-3.93034 5.79725 1.1791-0.88433 0.78607 5.0486 2.5243-0.39304 0.78606" clip-path="url(#pbed49c8f34)"/><path d="m174.978 285.233-5.54652-4.15989-0.3076 1.14251-3.64723-4.65791 5.49282 2.19713-1.01068 0.61519 5.54652 4.15989-0.52731 0.70308" clip-path="url(#pbed49c8f34)"/><path d="m185.103 286.413-6.03636-6.03636-0.46608 1.08753-2.95184-5.12689 5.12689 2.95184-1.08753 0.46608 6.03636 6.03636-0.62144 0.62144" clip-path="url(#pbed49c8f34)"/></g><g fill="#f00"><path d="m15.7647 297.319-0.94404 0.7313q-1.8216-1.87479-4.97948-4.53405-3.30414 3.17782-6.57504 4.48086l-0.505261-0.84432q2.73905-1.11689 5.4515-3.53682 2.7191-2.42658 3.8094-5.29859h-7.58556v-0.9241h8.78223l0.272575 0.24598q-0.930743 2.81883-2.98503 5.14569 2.03434 1.58891 5.2587 4.53405z"/><path d="m22.5991 286.523v2.53295h5.8238v0.51191q0 2.31357-0.06648 3.13794-0.06648 0.81772-0.206093 1.73517-0.132963 0.91745-0.378946 1.58227-0.239334 0.65816-0.558446 1.02381-0.312464 0.36565-0.811077 0.55845t-1.36952 0.1928q-0.930744 0-2.36675-0.25928l0.02659-1.01052q1.19667 0.24598 2.21384 0.24598 0.478668 0 0.910799-0.15291 0.438779-0.15291 0.76454-0.81108 0.32576-0.65817 0.505261-1.94126 0.186148-1.28975 0.186148-3.01162l-0.0066-0.85097h-4.74679q-0.206094 3.06481-1.54902 4.98613t-3.51688 3.07145l-0.558446-0.75789q2.04764-1.23656 3.16453-2.93184 1.11689-1.70193 1.32299-4.36785h-3.92907v-0.95069h3.97561v-2.53295z"/><path d="m41.5264 288.225h-9.87253v-0.93074h9.87253zm0.458723 2.35345q-0.07313 1.19667-0.212741 1.85484-0.139612 0.65817-0.718002 1.84155-0.571743 1.17672-1.6554 1.9878-1.08365 0.80443-2.69916 1.24986-1.6155 0.45207-3.8094 0.5119l-0.192797-0.96398q3.78281-0.0864 5.75067-1.436 1.97451-1.35623 2.32686-4.10857h-9.65314v-0.9374z"/><path d="m55.6072 293.025h-10.9961v-0.98393h10.9961z"/></g><g fill="#008000"><path d="m15.439 310.31-0.698058 0.9241q-1.38282-0.9241-3.30414-1.81495-1.92132-0.89086-3.42381-1.34293v7.05371h-1.18337v-11.641h1.19667v3.56342q3.94236 1.18337 7.41271 3.2576z"/><path d="m29.2273 308.754q-1.22991 1.84819-4.10857 3.6565-2.87201 1.8083-5.95011 2.47311l-0.724651-0.55844v-10.2648h1.13019v9.60661q2.68586-0.65817 5.07255-2.20719 2.39334-1.54903 3.77616-3.37063z"/><path d="m41.9918 310.044h-10.9961v-0.98393h10.9961z"/><path d="m56.6111 314.339-0.94404 0.7313q-1.8216-1.87478-4.97948-4.53405-3.30414 3.17783-6.57504 4.48087l-0.505261-0.84432q2.73905-1.11689 5.4515-3.53683 2.7191-2.42658 3.8094-5.29859h-7.58556v-0.92409h8.78223l0.272575 0.24598q-0.930744 2.81882-2.98503 5.14568 2.03434 1.58891 5.2587 4.53405z"/><path d="m70.0736 308.754q-1.22991 1.84819-4.10857 3.6565-2.87201 1.8083-5.95011 2.47311l-0.72465-0.55844v-10.2648h1.13019v9.60661q2.68586-0.65817 5.07255-2.20719 2.39334-1.54903 3.77616-3.37063z"/><path d="m83.842 314.339-0.944041 0.7313q-1.8216-1.87478-4.97948-4.53405-3.30414 3.17783-6.57504 4.48087l-0.505261-0.84432q2.73905-1.11689 5.4515-3.53683 2.7191-2.42658 3.8094-5.29859h-7.58556v-0.92409h8.78223l0.272575 0.24598q-0.930744 2.81882-2.98503 5.14568 2.03434 1.58891 5.2587 4.53405z"/><path d="m69.9141 323.726h-1.42936v7.29969q0 0.47202-0.352353 0.79113-0.345705 0.32576-0.804428 0.32576h-2.10747l-0.113019-0.90415h1.74847q0.232686 0 0.405539-0.13961 0.1795-0.14626 0.1795-0.359v-7.01382h-3.19777v-0.82437h3.19777v-2.7324h1.04376v2.7324h1.42936zm-6.20939 6.12297-0.844318 0.63822q-0.458724-0.65152-1.56232-1.87478-1.40941 2.28697-3.41051 3.64984l-0.54515-0.65152q2.13406-1.6155 3.29084-3.72962-1.45595-1.54903-2.51301-2.44653l0.684761-0.61163q0.744595 0.60498 2.27367 2.12077 0.751244-1.8349 0.777836-3.67644h-4.04209v-0.81773h2.49971v-2.12741h1.00387v2.12741h2.27367v0.81773h-0.731299q-0.09307 2.42658-1.05041 4.42103 1.27645 1.32299 1.89473 2.16066zm2.44653-1.68199-0.977281 0.359q-0.505261-1.52243-1.19002-3.03821l0.897503-0.34571q0.651521 1.36288 1.2698 3.02492z"/><path d="m79.3146 332.196h-1.62215l-0.126315-0.93074h1.28974q0.299168 0 0.485316-0.14626 0.186149-0.15291 0.186149-0.37895v-7.57227h-1.74847q-0.604983 1.27645-1.14348 1.98781l-0.751243-0.45873q0.485316-0.66481 1.07036-2.02769 0.585039-1.36952 0.864262-2.56619l1.05041 0.1662q-0.186149 0.77784-0.737947 2.10747h5.36507v0.79113h-2.91855v7.97116q0 0.47202-0.378946 0.76454-0.372297 0.29252-0.884206 0.29252zm-8.01105-2.79223-0.611631-0.51191q0.671465-0.72465 1.39612-1.95456 0.724651-1.22991 1.05706-2.24044h-1.96786v-0.79113h2.0011v-2.1806q-1.01052 0.1928-1.97451 0.31911l-0.192797-0.75124q2.86536-0.38559 4.5407-1.01052l0.378946 0.74459q-0.731299 0.24599-1.72852 0.47867v2.39999h1.4626v0.79113h-1.4626v0.83767q0.54515 0.66482 1.70858 1.64875l-0.551798 0.67811q-0.505261-0.45207-1.15678-1.16343v5.61106h-1.02382v-5.61106q-0.977281 1.81495-1.87478 2.70581zm11.847 0.62493q-0.412187-0.88421-0.857614-2.27368-0.445428-1.38947-0.644873-2.39334l0.957337-0.1795q0.551798 2.39999 1.52908 4.46092zm-6.58169 0.0133-0.864262-0.39889q0.531854-0.87756 1.03047-2.16065 0.498612-1.2831 0.664817-2.24708l0.997225 0.17285q-0.245982 1.17672-0.777836 2.54625-0.531853 1.36287-1.05041 2.08752z"/></g><g fill="#00f"><path d="m10.147 346.928q-2.11412 1.56896-4.65372 2.3335l-0.425483-0.7313q2.45317-0.84431 4.23488-2.18724-2.1806-1.68199-3.21771-4.66037h-0.671465v0.1928q0 4.50746-2.02769 7.20661l-0.698058-0.49861q0.578391-0.79113 1.13019-2.50636 0.551798-1.72188 0.551798-3.82935v-4.31466h10.6703v0.79113h-9.62655v2.1806h8.33016l0.332408 0.29252q-0.445427 1.42271-1.28974 2.81218-0.837669 1.38947-1.87478 2.30691 1.90138 1.2831 4.40109 2.0144l-0.565094 0.87756q-1.98116-0.59834-4.60053-2.28032zm-0.08643-1.20332q0.937392-0.85762 1.66869-1.95457 0.731299-1.10359 1.00387-2.08752h-5.65094q0.877558 2.49971 2.97838 4.04209z"/><path d="m29.0677 340.745h-1.42936v7.29969q0 0.47202-0.352353 0.79113-0.345705 0.32576-0.804429 0.32576h-2.10747l-0.113019-0.90415h1.74847q0.232686 0 0.405539-0.13961 0.1795-0.14626 0.1795-0.359v-7.01382h-3.19777v-0.82438h3.19777v-2.73239h1.04376v2.73239h1.42936zm-6.20939 6.12296-0.844317 0.63823q-0.458724-0.65152-1.56232-1.87479-1.40941 2.28697-3.41051 3.64985l-0.54515-0.65152q2.13406-1.61551 3.29084-3.72963-1.45595-1.54902-2.51301-2.44652l0.684762-0.61164q0.744595 0.60499 2.27367 2.12077 0.751243-1.83489 0.777836-3.67644h-4.04209v-0.81772h2.49971v-2.12742h1.00387v2.12742h2.27368v0.81772h-0.731299q-0.09307 2.42659-1.05041 4.42104 1.27645 1.32298 1.89473 2.16065zm2.44653-1.68199-0.977281 0.35901q-0.505261-1.52244-1.19002-3.03822l0.897503-0.3457q0.65152 1.36287 1.2698 3.02491z"/><path d="m38.4682 349.215h-1.62215l-0.126316-0.93075h1.28975q0.299167 0 0.485316-0.14626 0.186149-0.15291 0.186149-0.37894v-7.57227h-1.74847q-0.604984 1.27645-1.14348 1.9878l-0.751244-0.45872q0.485317-0.66482 1.07036-2.02769 0.585039-1.36953 0.864262-2.5662l1.05041 0.16621q-0.186149 0.77783-0.737947 2.10747h5.36507v0.79113h-2.91855v7.97116q0 0.47202-0.378946 0.76454-0.372298 0.29252-0.884207 0.29252zm-8.01104-2.79224-0.611632-0.5119q0.671466-0.72466 1.39612-1.95457 0.724651-1.22991 1.05706-2.24043h-1.96786v-0.79113h2.0011v-2.1806q-1.01052 0.19279-1.97451 0.31911l-0.192796-0.75124q2.86536-0.3856 4.5407-1.01053l0.378946 0.7446q-0.731299 0.24598-1.72852 0.47867v2.39999h1.4626v0.79113h-1.4626v0.83767q0.54515 0.66482 1.70858 1.64875l-0.551798 0.67811q-0.505261-0.45208-1.15678-1.16343v5.61105h-1.02382v-5.61105q-0.977281 1.81495-1.87478 2.7058zm11.847 0.62493q-0.412187-0.8842-0.857614-2.27367-0.445428-1.38947-0.644873-2.39334l0.957337-0.1795q0.551798 2.39999 1.52908 4.46092zm-6.58169 0.0133-0.864262-0.39889q0.531853-0.87756 1.03047-2.16066 0.498613-1.28309 0.664817-2.24708l0.997226 0.17285q-0.245983 1.17673-0.777836 2.54625-0.531854 1.36288-1.05041 2.08753z"/></g></g></svg>
