<?xml version="1.0" encoding="UTF-8"?>
<svg width="195.122" height="133.437" version="1.1" viewBox="0 0 195.1221 133.43683" xmlns="http://www.w3.org/2000/svg"><g transform="translate(40.4182 -237.737)"><g shape-rendering="auto"><path d="m132.485 238.237-3.71158 0.13014a0.323438 0.323438 0 0 0 -0.024 0l-3.51703 0.38653a0.323438 0.323438 0 0 0 -0.0265 6e-3l-3.19741 0.62915a0.323438 0.323438 0 0 0 -0.0329 8e-3l-2.75779 0.85146a0.323438 0.323438 0 0 0 -0.043 0.0162l-2.21457 1.04472a0.323438 0.323438 0 0 0 -0.0568 0.0356l-1.58544 1.20138a0.323438 0.323438 0 0 0 -0.072 0.0771l-0.88684 1.31633a0.323438 0.323438 0 0 0 -0.053 0.14657l-0.14529 1.38333a0.323438 0.323438 0 0 0 -1e-3 0.0226l-0.20844 6.46428-0.20845 6.46436-0.20718 6.46551-0.20718 6.46434-0.20844 6.46558-0.20718 6.46431-0.20718 6.46558-0.20845 6.46431-0.20718 6.46431-0.0228 0.71629-0.20844 6.46432-0.20719 6.46558-0.20844 6.46431-0.20718 6.46431-0.20718 6.46432-0.20844 6.46557-0.20719 6.46431-0.20718 6.46558-0.0808 2.5165a0.323438 0.323438 0 0 0 0.0126 0.10359l0.54828 1.81536a0.323438 0.323438 0 0 0 0.0442 0.0922l1.23424 1.76104a0.323438 0.323438 0 0 0 0.053 0.0581l1.87979 1.63724a0.323438 0.323438 0 0 0 0.0493 0.0354l2.45964 1.44648a0.323438 0.323438 0 0 0 0.043 0.0202l2.94728 1.19635a0.323438 0.323438 0 0 0 0.0379 0.0126l3.31743 0.8919a0.323438 0.323438 0 0 0 0.0354 8e-3l3.55493 0.55206a0.323438 0.323438 0 0 0 0.0329 3e-3l3.64841 0.18697a0.323438 0.323438 0 0 0 0.0329 0l3.5903-0.18697a0.323438 0.323438 0 0 0 0.0354 -4e-3l3.38439-0.5508a0.323438 0.323438 0 0 0 0.0391 -9e-3l3.03951-0.89315a0.323438 0.323438 0 0 0 0.0455 -0.0164l2.57461-1.19635a0.323438 0.323438 0 0 0 0.053 -0.0303l2.00991-1.44649a0.323438 0.323438 0 0 0 0.0594 -0.0543l1.37068-1.6385a0.323438 0.323438 0 0 0 0.053 -0.0897l0.68598-1.76104a0.323438 0.323438 0 0 0 0.0215 -0.0985l0.38531-6.45673 0.3853-6.45547 0.38657-6.45673 0.38531-6.45673 0.38657-6.45674 0.38531-6.45673 0.38657-6.45674 0.3853-6.45673 0.16424-2.754a0.323438 0.323438 0 0 0 1e-3 -0.0177l0.38657-6.45674 0.38531-6.45673 0.3853-6.45548 0.38657-6.45673 0.38531-6.45673a0.323438 0.323438 0 0 0 0 -1e-3l0.3853-6.45545 0.38658-6.45678 0.3853-6.45672 0.38657-6.45672 0.0606-1.01821-0.31582-0.0188 0.31582-0.0123-0.053-1.39724a0.323438 0.323438 0 0 0 -0.0442 -0.15032l-0.80472-1.38204a0.323438 0.323438 0 0 0 -0.0682 -0.0809l-1.5147-1.31639a0.323438 0.323438 0 0 0 -0.0556 -0.0382l-2.15772-1.20268a0.323438 0.323438 0 0 0 -0.0417 -0.0188l-2.71357-1.04473a0.323438 0.323438 0 0 0 -0.0316 -0.0104l-3.16583-0.85146a0.323438 0.323438 0 0 0 -0.0265 -6e-3l-3.49682-0.62915a0.323438 0.323438 0 0 0 -0.024 -6e-3l-3.70148-0.38531a0.323438 0.323438 0 0 0 -0.0215 0l-3.77475-0.13007a0.323438 0.323438 0 0 0 -0.0228 0z" color="#000000" color-rendering="auto" image-rendering="auto" solid-color="#000000" style="isolation:auto;mix-blend-mode:normal;text-decoration-color:#000000;text-decoration-line:none;text-decoration-style:solid;text-indent:0;text-transform:none;white-space:normal"/><path d="m132.497 238.884 3.752 0.12885 3.67874 0.38407 3.47155 0.62404 3.13552 0.8439 2.67693 1.02959 2.10845 1.17487 1.45027 1.25953 0.73777 1.26581 0.0468 1.23049-0.64302 1.22409-1.38457 1.19634-2.10213 1.08645-2.73884 0.90831-3.26058 0.68219-3.64589 0.42321-3.87834 0.14275-3.94907-0.14275-3.85308-0.42321-3.59409-0.68471-3.18857-0.91207-2.65167-1.09912-2.00865-1.22914-1.28857-1.28482-0.55459-1.26328 0.12759-1.21659 0.81231-1.20391 1.5147-1.14957 2.16277-1.0208 2.71989-0.84008 3.16709-0.62281 3.49177-0.38278 3.68757-0.12885z" color="#000000" color-rendering="auto" fill="#fb6363" image-rendering="auto" solid-color="#000000" style="isolation:auto;mix-blend-mode:normal;text-decoration-color:#000000;text-decoration-line:none;text-decoration-style:solid;text-indent:0;text-transform:none;white-space:normal"/><path d="m114.76 246.939 0.0391 0.0897a0.323438 0.323438 0 0 0 0.0682 0.0985l1.35932 1.35558a0.323438 0.323438 0 0 0 0.0594 0.0466l2.06297 1.26199a0.323438 0.323438 0 0 0 0.0442 0.0226l2.69209 1.11549a0.323438 0.323438 0 0 0 0.0354 0.0123l3.22016 0.92222a0.323438 0.323438 0 0 0 0.029 6e-3l3.62063 0.68976a0.323438 0.323438 0 0 0 0.0253 6e-3l3.87707 0.42573a0.323438 0.323438 0 0 0 0.024 0l3.97308 0.14404a0.323438 0.323438 0 0 0 0.0227 0l3.90361-0.14404a0.323438 0.323438 0 0 0 0.0253 0l3.67368-0.42573a0.323438 0.323438 0 0 0 0.029 -6e-3l3.29343-0.68976a0.323438 0.323438 0 0 0 0.0354 -9e-3l2.77927-0.92223a0.323438 0.323438 0 0 0 0.0468 -0.02l2.15898-1.11549a0.323438 0.323438 0 0 0 0.0631 -0.0427l1.46038-1.26076a0.323438 0.323438 0 0 0 0.0745 -0.0948l0.0126-0.0239-0.35751 5.97414-0.38532 6.45549-0.38656 6.45672-0.38531 6.45674-0.38657 6.45673-0.38531 6.45674-0.38531 6.45673-0.3853 6.45674-0.38278 6.39736-0.65187 1.473-1.34667 1.39848-2.02382 1.26078-2.6264 1.05232-3.12414 0.79083-3.49051 0.49142-3.71031 0.16676-3.77474-0.16676-3.68-0.49142-1.71809-0.39667-1.71304-0.39669-1.52481-0.53184-1.51596-0.5268-1.26962-0.64049-1.25824-0.63418-1.91264-1.42879-1.23298-1.50333-0.53943-1.5147v-1e-3l0.0215-0.65313a0.323438 0.323438 0 0 0 0 -1e-3l0.20718-6.46431 0.20718-6.46432 0.20845-6.46431 0.20718-6.46558 0.20718-6.46431 0.20844-6.4656 0.20718-6.46428 0.20845-6.46429 0.1617-5.03807z" color="#000000" color-rendering="auto" fill="#fb6363" image-rendering="auto" solid-color="#000000" style="isolation:auto;mix-blend-mode:normal;text-decoration-color:#000000;text-decoration-line:none;text-decoration-style:solid;text-indent:0;text-transform:none;white-space:normal"/><path d="m112.859 306.12 5e-3 0.0139a0.323438 0.323438 0 0 0 0.0556 0.096l1.29362 1.57786a0.323438 0.323438 0 0 0 0.0569 0.0543l1.96695 1.46796a0.323438 0.323438 0 0 0 0.048 0.0303l1.28351 0.64681 1.28731 0.64934a0.323438 0.323438 0 0 0 0.0391 0.0177l1.53743 0.53438 1.53997 0.5369a0.323438 0.323438 0 0 0 0.0341 0.0101l1.72946 0.39921 1.73451 0.40046a0.323438 0.323438 0 0 0 0.029 6e-3l3.71032 0.49521a0.323438 0.323438 0 0 0 0.0278 3e-3l3.8038 0.16802a0.323438 0.323438 0 0 0 0.029 0l3.73938-0.16802a0.323438 0.323438 0 0 0 0.0303 -3e-3l3.52335-0.49648a0.323438 0.323438 0 0 0 0.0341 -6e-3l3.16204-0.80093a0.323438 0.323438 0 0 0 0.0404 -0.0126l2.67314-1.07255a0.323438 0.323438 0 0 0 0.0505 -0.0253l2.08318-1.29741a0.323438 0.323438 0 0 0 0.0619 -0.0493l1.41364-1.46795a0.323438 0.323438 0 0 0 0.0366 -0.0455l-0.0594 0.99548-0.3853 6.45673-0.38658 6.45547-0.3853 6.45673-0.38657 6.45674-0.38531 6.45673-0.38657 6.45674-0.38531 6.45673-0.38278 6.40493-0.64807 1.66504-1.31004 1.56523-1.95307 1.40479-2.52534 1.17234-2.99655 0.88053-3.34775 0.54574-3.55492 0.18444-3.61432-0.18444-3.52208-0.54701-3.28206-0.88305-2.90685-1.17866-2.41417-1.41869-1.82926-1.59175-1.18119-1.68651-0.51668-1.71557 0.0783-2.46343 0.20844-6.46431 0.20719-6.46558 0.20844-6.46432 0.20718-6.46557 0.20718-6.46305 0.20844-6.46558 0.20719-6.46431 0.15285-4.75507z" color="#000000" color-rendering="auto" fill="#5f5fff" image-rendering="auto" solid-color="#000000" style="isolation:auto;mix-blend-mode:normal;text-decoration-color:#000000;text-decoration-line:none;text-decoration-style:solid;text-indent:0;text-transform:none;white-space:normal"/></g><path d="m-16.5328 285.168-3.46108 1.02584-4.44941 1.69076-3.98306 1.91586-3.43909 2.11571-2.8285 2.28518-2.15906 2.41843-1.43333 2.5135-0.66168 2.56655 0.13195 2.57236 0.94499 2.53162 0.58406 0.81045 1.17397 1.63061 2.55102 2.30394 3.32072 2.11442 4.03286 1.87898 4.66739 1.6028 5.21975 1.28974 1.71729 0.28654 2.0782 0.34733 1.87251 0.31241 1.96825 0.19016 1.42945 0.13842 1.3486 0.13066 1.25481 0.1216 0.75159 0.0239 5.45779 0.1727 6.2857-0.18887 6.01469-0.54979 0.2128-0.0194-1e-3 -0.0304-6.5e-4 -0.0142-0.01-0.25226-0.0123-0.29688-0.0116-0.29689-2e-3 -0.0492-0.0103-0.24837-0.0117-0.29754-0.0123-0.29753-0.0116-0.29753-0.0123-0.29818-0.0116-0.29753-0.0123-0.29818-0.0116-0.29818-0.0123-0.29818-0.0116-0.29883-0.0123-0.29818-0.0123-0.29883-0.0116-0.29882-6.5e-4 -0.0188-0.0116-0.28007-0.0117-0.29947-2e-3 -0.0446-0.0104-0.2542-4e-3 -0.0957-8e-3 -0.20374-0.0116-0.29947-4e-3 -0.0867-8e-3 -0.21344-0.0123-0.29948-0.0116-0.30012-0.0123-0.30012-0.0123-0.30012-0.0116-0.30012-0.0123-0.30076-0.0123-0.30012-0.0116-0.30077-0.0123-0.30077-0.0123-0.30076 1.01614 0.34733 0.99867 0.31629 0.9838 0.28977 0.98186 0.28978 0.97992 0.28912 0.71666 0.21086 0.26196 0.0776 0.2736 0.0808 0.70373 0.20698 0.95534 0.26454 0.74254 0.18693 6e-3 2e-3 0.033 8e-3 0.14488 0.0362 0.92494 0.2335 0.31112 0.0783 0.61253 0.15395 0.73478 0.18563 0.18628 0.0466 0.91977 0.2322 0.89777 0.21475 0.0246 5e-3 0.82985 0.17658 0.85185 0.18111 0.85056 0.18046 0.84861 0.18046 0.84668 0.18046 0.82662 0.16881 0.76324 0.1326 0.76129 0.1326 0.75936 0.13195 0.75741 0.13195 0.75613 0.1313 0.74318 0.12677 0.66233 0.0919 0.6604 0.0912 0.6591 0.0912 0.65716 0.0912 0.65586 0.0906 0.65199 0.0906-0.63388 0.7794-0.63646 0.78006-0.63711 0.78134-0.63775 0.78264-0.63905 0.78329-0.63969 0.78458-0.71926 0.75095-0.73089 0.74642-0.73155 0.74771-0.73219 0.74836-0.73348 0.74965-0.73413 0.74966-0.79622 0.71408-0.81498 0.70437-0.81563 0.70438-0.81628 0.70502-0.81692 0.70632-0.76776 0.66298-0.0498 0.0433-0.85962 0.67268-0.78781 0.5873-0.0925 0.0692-0.88096 0.65651-0.88096 0.65716-0.88225 0.65716-0.41913 0.31306-0.33764 0.25161-0.12548 0.0938-0.90877 0.62612-0.92947 0.60218-0.92946 0.60282-0.85444 0.55367-0.0757 0.0485-0.50321 0.326-0.4269 0.27683-0.93076 0.60283-0.94434 0.57566-0.96052 0.54332-0.0116-0.28848-0.0116-0.28912-0.011-0.28912-9e-3 -0.21669-3e-3 -0.0724-0.0116-0.28912-0.0116-0.28913-8e-3 -0.18822-4e-3 -0.10155-0.0116-0.28977-0.0116-0.28912-0.0116-0.27943v-0.011l-0.0123-0.28977-0.0117-0.28977-9e-3 -0.23027-3e-3 -0.0602-0.0116-0.29042-0.0116-0.29042-0.0116-0.29106-0.0116-0.29042-0.0116-0.29106-0.0116-0.29107-0.0117-0.29106-0.0116-0.29107-0.0116-0.29106-0.01-0.24191-3e-3 -0.0498-0.0116-0.29172-0.0117-0.29171-0.01-0.23867-2e-3 -0.053-0.0116-0.29236-0.0116-0.29171-6.5e-4 -3e-3 -0.0116-0.28913-0.0117-0.29235-0.0103-0.26843-1e-3 -0.0246-0.0116-0.29236-1.03296 0.097-4.13441 0.38809-1.01614 0.0951-6.24172 0.1934-0.1507-5e-3h-1e-3l-0.0149-6.4e-4 -4.12148-0.13389-1.87834-0.0615-5.39698-0.53621-0.0401-5e-3 -0.044-4e-3 -0.47864-0.0479-0.47217-0.0808-0.81433-0.13971-2.59177-0.44371-1.75221-0.30077-5.18548-1.31497-4.63828-1.63578-4.00893-1.9165-3.30196-2.15711-2.53809-2.35051-1.75221-2.49087-0.94369-2.58336m-0.71537-9.12649 0.0226 0.28718 0.0226 0.28719 0.0226 0.28653 0.022 0.28654 0.0226 0.28654 0.0226 0.28654 0.022 0.28653 0.0226 0.28589 0.0226 0.28654 0.022 0.28589 0.0226 0.28589 0.0226 0.28524 0.022 0.28589 0.0226 0.28525 0.0226 0.28589 0.022 0.28524 0.0226 0.2846 0.022 0.28524 0.0226 0.2846 0.022 0.28524 0.0226 0.2846 0.022 0.28459 0.0226 0.2846 0.022 0.28395 0.0226 0.28395 0.022 0.2846 0.022 0.28395 0.0226 0.2833 0.022 0.28395 0.0226 0.2833 0.022 0.28395 0.022 0.2833m64.3854-21.3434 1.86152 0.35057 4.64151 1.22829 4.22174 1.50189 3.73597 1.75351-5e-3 -0.27296-6e-3 -0.27295-5e-3 -0.2736-6e-3 -0.27296-5e-3 -0.2736-6e-3 -0.2736-5e-3 -0.2736-6e-3 -0.2736-5e-3 -0.2736-6e-3 -0.27425-6e-3 -0.2736-5e-3 -0.27424-6e-3 -0.27425-5e-3 -0.2749-6e-3 -0.27424-5e-3 -0.27425-6e-3 -0.2749-6e-3 -0.27489-5e-3 -0.2749-6e-3 -0.27489-5e-3 -0.27554-6e-3 -0.2749-6e-3 -0.27554-5e-3 -0.27554-6e-3 -0.27554-5e-3 -0.27554-6e-3 -0.27619-6e-3 -0.27554-5e-3 -0.27619-6e-3 -0.27619-5e-3 -0.27618-6e-3 -0.27619-3.75927-1.71664-4.24695-1.47084-4.66997-1.20242-2.03422-0.37321m-63.1449 24.2767 1.12028-2.02646 2.1403-2.46952 2.80521-2.3324 3.41322-2.16034 3.95395-1.9566 4.41836-1.72699 3.59174-1.0944" fill="none" stroke="#00f" stroke-linejoin="round" stroke-width="1.94043"/><path d="m21.7759 355.395-0.0595 0.066m-3e-3 -5.53088-0.17334 0.19081m-2.12866-67.7398c-0.287613-0.0341-0.575227-0.0681-0.86284-0.1022m3.10534 62.141-0.189835 0.2067-0.101235 0.11023m0.23609-5.87239c-0.138203 0.14812-0.276407 0.29624-0.41461 0.44436m-0.055-46.4733-0.0285 0.0498m0.6287 67.9927c-0.656727 0.48101-1.31345 0.96202-1.97018 1.44303m1.06659-51.3975-0.16494-0.0809m0.32276-23.9152-0.0744 0.12807m-0.4172 18.3144-0.252543-0.12241-1e-3 -4.9e-4m0.60024-24.278-0.12224 0.20762m0.0977 29.5676 0.10801 0.0828m-0.77229-11.0566-0.253158-0.12114-0.09288-0.0444m1.43656-0.89001c-0.470339 0.45546-0.940748 0.91086-1.41134 1.36606m0.86673-25.1215-0.144552 0.24056-0.0288 0.0479m-0.0524 29.8529 0.16688 0.12678m-0.83697-11.1025-0.253986-0.11939-0.189084-0.0889m1.83888-1.12222c-0.51871 0.49399-1.03721 0.98821-1.5556 1.48254m0.9133-25.3795-0.146292 0.2395-0.08009 0.13112m-1.2781 82.0227 0.24581 0.13543 0.23671 0.13041m0.58601-52.1458 0.224518 0.16839 0.0032 2e-3m-0.90748-11.1497c-0.187573-0.0871-0.375147-0.17421-0.56272-0.26132m1.53811-25.388-0.148163 0.23835-0.134487 0.21635m-1.52777 82.7445c0.183915 0.0996 0.367366 0.20014 0.55108 0.30016m0.60218-52.609 0.225774 0.1667 0.06595 0.0487m-1.03167-11.2202c-0.22358-0.1022-0.44716-0.20439-0.67074-0.30659m1.92944-25.7469c-0.114057 0.17981-0.228113 0.35963-0.34217 0.53944m-0.5472 30.7326 0.226896 0.16517 0.132084 0.0961m-0.7393-6.09554 0.228139 0.16345 0.200691 0.14378m-0.8609 64.2043c-0.229403-0.08-0.458807-0.15997-0.68821-0.23996m0.7296-70.1563c0.167527 0.11836 0.335053 0.23673 0.50258 0.35509m-1.06077 64.7528c-0.26347-0.091-0.52694-0.18197-0.79041-0.27295m1.30785 4.99337 0.15783 0.0556m-0.68045-5.37823 0.264717 0.0932 0.240443 0.0847m-0.43142-70.6084 0.255607 0.11588 0.03545 0.0161m-0.8098-6.10977c0.20784 0.0925 0.41568 0.18499 0.62352 0.27748m-1.16038-6.3064c0.319957 0.13993 0.639913 0.27985 0.95987 0.41978m-4.17128 60.764 0.1824-0.0556 0.0285-8e-3m6.5e-4 0.0142-0.0291-6e-3m-0.18693-5.37241c-0.236947-0.0468-0.473893-0.0936-0.71084-0.14036m1.13515-5.15443l-2.0892-0.40878m-0.69855-17.5868c0.76496 0.14855 1.52992 0.29711 2.29488 0.44566m-3.44103-6.24625c0.8788 0.16882 1.7576 0.33763 2.6364 0.50645m-7.7876 47.8594c-1.2533-2.1e-4 -2.50661-4.7e-4 -3.75991-6.5e-4m-0.844774-16.928-0.26196-0.0252m-6.6518-18.8746c0.228973-0.0668 0.457947-0.13367 0.68692-0.20051m1.10928 17.4555c-0.543107 0.17356-1.08621 0.34712-1.62932 0.52068m-0.50128-23.3828c0.436952-0.12457 0.873612-0.25015 1.31044-0.37515m1.14162 17.5991c-0.62525 0.19577-1.2505 0.39153-1.87575 0.5873m1.93849-16.8643c-0.588581-0.11617-1.17723-0.23184-1.76579-0.34798m-0.50193-0.66945c0.490717-0.083 0.981433-0.16601 1.47215-0.24902m-2.0588-5.33295c0.702437-0.19663 1.40487-0.39326 2.10731-0.58989m-1.56399 51.0598 0.21927-0.11125m-0.53686-5.20682c0.182833-0.091 0.365667-0.18197 0.5485-0.27296m0.65781 16.4704-0.24737 0.13256-0.23063 0.12358m-1.10798-32.9434c0.352297-0.1658 0.704593-0.33159 1.05689-0.49739m0.56789 27.8038c-0.19555 0.10306-0.3911 0.20611-0.58665 0.30917m-0.0608 10.4324 0.217029-0.17794 0.023581-0.0193m-1.2781-43.4611c0.398437-0.18391 0.796873-0.36782 1.19531-0.55173m-0.35057 38.9147 0.218467-0.17617 0.085533-0.069m0.21539 5.77149c-0.480724-0.3399-0.961596-0.67958-1.44239-1.01938m0.73284-9.8451 0.21997-0.17429 0.15065-0.11936m0.0194 5.77084c-0.534842-0.37152-1.06862-0.74458-1.60414-1.11512m0.4767-48.7494c0.327544-0.14477 0.65491-0.28995 0.98256-0.43448m-0.41526 39.4283c0.125699-0.0974 0.250496-0.19594 0.37645-0.293m-0.13971 5.73268c-0.582726-0.39976-1.16716-0.79704-1.7496-1.19722m0.92623-48.9881c0.231956-0.10077 0.464068-0.20118 0.69596-0.3021m-0.25873 39.5977 0.10478-0.0808 0.12225-0.0931m-0.16688 5.58779c-0.579406-0.38947-1.15817-0.77991-1.73797-1.16879m1.26128-49.3523c0.121997-0.0525 0.244683-0.1034 0.36669-0.15588m-0.13907 6.05285c-0.847201-0.29147-1.69431-0.58321-2.54134-0.87518m2.46046 39.978c-0.57489-0.37975-1.14908-0.76056-1.72439-1.13968m1.4482-43.8854c-0.839178-0.28195-1.67808-0.56474-2.51742-0.8462m2.2192 61.2193-0.0162-0.02m-0.94563-27.06c-0.27638-0.17618-0.552969-0.35204-0.82921-0.52844m1.4702 22.1972-0.0686-0.088m-0.0472-26.6887c-0.5595-0.3499-1.11896-0.69986-1.67848-1.04972m1.4715 22.3699-0.12548-0.15589m-0.0123-26.8717c-0.55371-0.33973-1.10716-0.67987-1.66101-1.01938m1.47214 22.5459-0.177447-0.21743-0.00625-8e-3m0.0246-27.0574c-0.547723-0.32886-1.09489-0.65866-1.6429-0.98704m1.28974-4.81679c-0.540639-0.31881-1.08185-0.63667-1.6222-0.95596m1.47279 22.9042-0.18118-0.21433-0.12993-0.1537m0.10349-27.4345c-0.53338-0.30747-1.06682-0.61485-1.60017-0.92237m1.47149 23.086c-0.126343-0.14704-0.252687-0.29409-0.37903-0.44113m0.14683-27.6259c-0.526203-0.29622-1.05164-0.59382-1.57821-0.88938m1.47149 23.2703c-0.15049-0.17162-0.30098-0.34324-0.45147-0.51486m0.10866-5.21847c-0.175717-0.19685-0.351433-0.39369-0.52715-0.59054m0.18046-5.1913c-0.202237-0.22229-0.404473-0.44457-0.60671-0.66686m0.25679-5.16413c-0.230565-0.24809-0.460743-0.49654-0.69148-0.74447m0.33828-5.13567c-0.261184-0.27551-0.523125-0.55033-0.78353-0.82657m0.41461-5.11562c-0.295172-0.30478-0.590432-0.60962-0.88556-0.91436m0.94369 12.021-6e-3 -0.022m-1.73604-42.7089c0.590006-0.32365 1.17933-0.64855 1.76973-0.97148m-0.46247 26.5994c-0.285068-0.2875-0.569779-0.57534-0.85463-0.86305m0.94435 12.1096-0.0285-0.0983m-0.36351-5.9817-7e-3 5e-3m0.45277-28.849c-0.638827-0.3118-1.27757-0.62376-1.9165-0.93535m1.39259 18.5654c-0.274152-0.27078-0.549281-0.54068-0.82285-0.81193m0.9437 12.1982-0.0498-0.16817-2e-3 -8e-3m-0.0996-5.94483-0.21086 0.13195m-0.14554-11.4984c-0.26259-0.25294-0.525991-0.50504-0.78788-0.7587m0.26131 0.0233 0.12807-0.12871m0.55367 12.3942c-0.02713-0.0845-0.05045-0.17012-0.0767-0.25487m0.18176-5.90797-0.239753 0.14588-0.141867 0.0863m0.22832 5.77085 0.0252-0.0776m-1.02067-18.0344 0.200578-0.19629 0.07238-0.0708m0.4146 12.53c-0.03347-0.11164-0.06875-0.22272-0.102-0.33442m0.0699 0.22832 0.0621-0.18628m-0.20633-11.3742c-0.357651-0.33827-0.716505-0.67519-1.07454-1.01305m0.19987-5.64278c0.289164-0.27507 0.57794-0.55054 0.86737-0.82533m-0.17528 13.0876c-0.04421-0.14042-0.08711-0.28124-0.1313-0.42166m0.11513 0.36998 0.0498-0.14489 0.0524-0.15264m-0.27813-11.4537c-0.354314-0.3237-0.705245-0.65062-1.05899-0.97492m0.88483 6.65115c-0.05391-0.16665-0.106118-0.33384-0.15938-0.5007m0.16752 0.50839c0.04748-0.134 0.09445-0.26819 0.14165-0.40229m-0.52133-5.78443-0.08668-0.26693-0.07631-0.23499m0.20762 0.54267 0.09595-0.26374 0.04571-0.12564m33.4065 98.8676c-7.14863 3.75407-15.8412 4.6695-23.5853 2.36406-0.733006-0.30765-1.46603-0.61525-2.19906-0.92284m3.65642-31.6187c-1.90753-0.35084-3.75257-0.81692-5.53476-1.59695m22.183 0.20698c-0.767029 0.21864-1.51865 0.50208-2.29553 0.68111m-14.6897-5.02442c-1.90124-0.33788-3.73884-0.8048-5.51988-1.56219m5.17836-4.22044c-1.89263-0.33022-3.72379-0.79076-5.5031-1.52585m29.0496-3.05295c-2.60977 1.86723-5.61476 2.99095-8.69702 3.80648m-15.1962-5.05935c-1.88822-0.31964-3.7065-0.76184-5.48367-1.48834m29.1724-3.05036c-2.61834 1.85557-5.61626 2.94396-8.69687 3.75607m-18.9839-17.57c-1.55308-0.44772-3.03086-0.99099-4.39637-1.87187m31.4537-1.98636c-1.69548 1.11678-3.51037 1.96004-5.41124 2.6648m-22.0129-4.83102c-1.54409-0.43214-3.01251-0.96211-4.37567-1.82207m4.00311-4.25472c-1.53443-0.4155-2.99117-0.93408-4.35174-1.77097m3.974-4.35821c-1.5219-0.40186-2.96715-0.91374-4.32587-1.71987m3.94296-4.46364c-1.51034-0.38446-2.94361-0.88435-4.29741-1.66683m31.9984-2.05556c-1.70256 1.02314-3.47318 1.83163-5.35469 2.47477m3.60144-1.50642c-4.91763-1.57726-10.0968-2.08931-15.2434-2.01123m15.7764 7.99975c-0.469168-0.13512-0.939219-0.26716-1.40875-0.40101m-13.9821 4.11825h-0.1455m4.16222 5.80706c-2.74436-0.0739-5.47662 0.015-8.20349 0.33634m9.98287 5.51341c-3.68124-0.27417-7.42385-0.15349-11.0656 0.46759m12.618 5.33942c-4.52547-0.48286-9.13599-0.28608-13.6024 0.58863m5.15573 4.98626c-1.94586 0.0928-3.84906 0.50014-5.75856 0.85382m15.7065-0.6701c-2.03611-0.18453-4.0639-0.42893-6.11236-0.35139m-6.29734 6.08907c-1.1992 0.25102-2.43377 0.35956-3.60338 0.73414m17.0092-0.74707c-1.28252-0.24382-2.60123-0.26004-3.89704-0.41201m4.79934 6.09618c-1.06027-0.25623-2.14352-0.32278-3.22629-0.42107m4.10401 6.05479c-0.85962-0.14828-1.70688-0.38381-2.58142-0.42681m9.34964-53.8793c-7.53784-3.72295-16.3207-4.09066-24.5519-3.18229-3.23757 0.39068-6.43644 1.14796-9.42955 2.45526m1.09958 5.68481c-0.289909 0.11998-0.603277 0.19489-0.8635 0.37774m0.85509 5.70357c-0.228062 0.0545-0.415327 0.19222-0.61383 0.30724m30.9803 4.93516c-0.378296-0.18387-0.800482-0.24955-1.1979-0.38097m1.65907 6.29153c-0.318271-0.15746-0.646696-0.27992-0.99156-0.3648m1.43916 6.22555c-0.266694-0.10985-0.522477-0.2523-0.79434-0.34798m-22.4159 15.8158-0.18628 0.0543-0.13389 0.0395m2.25155 5.18159c-0.995312 0.16912-1.97973 0.35378-2.93523 0.68886m2.07239 5.05611c-0.793593 0.12239-1.54246 0.42985-2.313 0.64495m0.65975 27.309c-0.333926 0.13264-0.698094 0.19561-1.01355 0.3719m0.83568 5.07228c-0.281142 0.0701-0.531804 0.20806-0.78523 0.34281m33.2719-23.4928c0.158272-0.99666-0.445125-1.90949-0.66182-2.85497m-40.5712 4.54319c-0.258155 1.12143-0.917028 2.28641-0.4663 3.44103m39.6708-5.62789c1.78181-2.24636 2.49503-5.31201 1.17648-7.97194m-6.18093 6.10201c3.3075-1.84964 6.75283-4.77779 6.69885-8.89882 0.125045-0.99981-0.485488-1.91671-0.71075-2.86477m-42.7341-30.3787c-1.58355 2.26938-0.82039 5.40494 1.32988 7.02175 0.40768 0.43248 0.996632 0.62724 1.48767 0.94628m33.2286 34.5287c0.528437-0.1885 0.967647-0.53979 1.44239-0.82857m-35.2557-1.07629c-1.1786 2.32649-0.54716 5.18532 1.38001 6.90931 1.61692 1.55336 3.73096 2.39292 5.81514 3.12654m-4.13247 8.88264c5.02165 3.48955 11.5061 3.86838 17.4321 3.53626 2.86345-0.20704 5.73021-0.65172 8.47841-1.48879m-28.5023-2.49152c-0.518933 3.68406 2.8313 6.55128 6.0062 7.69348 7.05518 2.7932 15.0555 2.38343 22.2937 0.50525l0.267593-0.0846 0.15921-0.0503m-27.9416-4.36921c-1.3967 3.00618 0.225865 6.54612 2.97624 8.12123 5.13366 3.34174 11.6382 3.67673 17.5862 3.20395 6.77242-0.6545 14.0555-2.68302 18.5864-8.08756 1.13642-1.7302 1.78282-3.6223 1.64936-5.70552m-40.4852 7.90209c-1.39262 3.06697 0.318399 6.6201 3.10068 8.21212 5.17342 3.32582 11.7131 3.66757 17.6892 3.1402 6.65868-0.69099 13.8069-2.76023 18.219-8.11736 1.52084-2.28438 2.2268-5.17709 1.04527-7.7669m-39.7426 9.92078c-1.39351 3.12447 0.414513 6.70109 3.22646 8.30907 5.81669 3.63821 13.1288 3.71669 19.7439 2.85385 5.96318-1.05714 12.3479-3.16335 16.0797-8.23065 1.40268-2.22443 1.96945-4.97927 0.87186-7.46096m-35.8934 13.4174c0.542776 0.24043 1.08849 0.47416 1.63264 0.71145m-5.35235-4.25472c-1.31909 3.04347 0.335277 6.56319 3.05494 8.19018 5.53246 3.67208 12.6178 3.86419 19.0256 3.13557 6.2357-0.95168 12.9441-3.10352 16.8303-8.39119 1.38176-2.22977 1.96198-4.97653 0.88036-7.46031m-39.4858 9.83022c-1.33109 3.15535 0.481667 6.72002 3.28639 8.36403 5.73437 3.6641 12.9909 3.77767 19.5459 2.90237 6.00077-1.09961 12.5286-3.27893 16.0637-8.58371 1.31577-2.14262 1.77102-4.84222 0.765935-7.20705m-21.0116 21.564c6.69501-0.46697 13.8547-2.14472 18.7478-7.0151 2.44294-2.3234 3.78334-6.05281 2.43846-9.28581m-45.5277-103.116c-1.72381 2.12407-1.08036 5.36477 1.11832 6.89398 4.23363 3.1128 9.81381 3.48665 14.9046 3.66808 7.79195-0.0127 15.9464-1.17113 22.6647-5.35611 2.48567-1.72113 4.77847-4.6547 3.94099-7.82964-1.26115-4.39114-6.01331-6.32385-10.0294-7.46792-8.55864-2.24933-17.7867-2.22689-26.314 0.15096-3.28442 1.03623-7.42823 2.83238-7.72444 6.7723 0.361136 3.8775 4.44118 5.57039 7.74344 6.39516 4.11037 1.05287 8.39443 1.18678 12.6179 1.07446m-18.5997 1.79684c-1.6417 2.12905-1.03276 5.29869 1.10726 6.84939 4.15188 3.18186 9.71936 3.56849 14.7748 3.78645 7.80566 0.01 15.9832-1.16293 22.689-5.40256 2.48336-1.74594 4.74943-4.70615 3.92095-7.8872-0.254703-0.63437-0.453231-1.2982-0.73611-1.91841m-41.434 10.618c-1.55858 2.13395-0.988885 5.23527 1.09629 6.80511 4.06467 3.24697 9.60554 3.66632 14.6221 3.9084 7.90325 0.0208 16.2629-1.14359 22.9457-5.63427 2.62193-1.84483 4.8678-5.33301 3.39908-8.54978-0.142169-0.3664-0.260995-0.74484-0.413297-1.10622m-39.7116 17.8604c5.30759 3.42039 11.9479 3.62798 18.0657 3.43503 6.63129-0.5213 13.6115-1.77218 19.0691-5.80494 2.68467-1.90867 4.68191-5.62515 3.03377-8.81313-0.08207-0.22779-0.164848-0.45532-0.247588-0.68287m-41.2219 10.5184c-1.47451 2.2438-0.817932 5.30041 1.26503 6.92573 4.18466 3.29309 9.84268 3.76879 14.9856 3.93584 7.66495-0.0135 15.7602-1.27765 22.1735-5.72731 2.65313-1.93303 4.8491-5.52487 3.32674-8.79317-0.10849-0.30328-0.214888-0.6073-0.326033-0.90962m-41.1093 10.4602c-1.39283 2.25211-0.784108 5.25412 1.26122 6.89276 4.14449 3.36383 9.82509 3.87293 14.975 4.04252 7.63697-6.7e-4 15.7088-1.29482 22.0689-5.77315 2.64517-1.96282 4.82003-5.56857 3.31531-8.84992-0.103649-0.29097-0.201038-0.5842-0.310501-0.87307m-40.9877 10.4098c-1.35881 2.27992-0.718468 5.25453 1.30535 6.91654 4.36158 3.52068 10.3393 4.0151 15.7484 4.0847 7.33178-0.11053 15.0591-1.4609 21.124-5.81781 2.62898-1.99207 4.7824-5.58251 3.31392-8.87599-0.102254-0.28901-0.195599-0.58123-0.30427-0.86794m-40.8655 10.3612c-1.27386 2.24095-0.72227 5.15199 1.23748 6.81277 4.05644 3.50559 9.78681 4.0759 14.9486 4.25255 7.58125 0.0153 15.6103-1.32196 21.8635-5.86264 2.63061-2.02892 4.76018-5.64359 3.2917-8.95883-0.09414-0.26824-0.178671-0.53993-0.27841-0.80618m-40.7432 10.3134c-1.29544 2.33873-0.594245 5.28002 1.40747 6.98591 4.87025 3.90299 11.5352 4.19488 17.5228 4.14633 6.79363-0.50348 14.0199-1.84691 19.3956-6.29847 2.66763-2.09909 4.32558-5.93256 2.69759-9.1544l-0.05612-0.16723-0.0278-0.0744m-40.6216 10.2649c-1.23623 2.33286-0.570184 5.23239 1.39386 6.94786 4.81936 3.97842 11.5002 4.30346 17.4918 4.25037 3.27808-0.24773 6.5616-0.63128 9.71962-1.57566m-25.6273-67.5419c7.86562-2.86736 16.6287-2.8724 24.7317-1.03753 0.723032 0.20246 1.44606 0.40491 2.16909 0.60737m-19.6947 4.63827c6.60239-0.96776 13.4968-0.67696 19.8868 1.32537m-21.0239 4.82132c4.36639-0.775 8.83989-0.99509 13.2532-0.5233m-13.7421 6.60976c4.9971-1.1346 10.2041-1.22424 15.2822-0.63197m-15.6379 6.64469c1.48628-0.4604 3.03115-0.61804 4.56001-0.8732m6.95321-0.2943c1.76588 0.0429 3.54377 0.21689 5.28962 0.48023m-17.1152 6.64921c1.19086-0.32601 2.37347-0.66207 3.60338-0.80657m10.5443-0.44242c1.31005 0.13088 2.62729 0.19324 3.9132 0.49611m-18.3332 6.66344c0.956101-0.24901 1.90244-0.54461 2.86472-0.76517m13.127-0.55432c1.10221 0.0533 2.17356 0.30132 3.25475 0.50322m2.95463-33.9653c0.872285 0.36888 1.74417 0.73872 2.6163 1.10796m-2.39255 4.86854c0.773515 0.33323 1.54714 0.6662 2.3207 0.99933m-3.8233 38.5234 0.011 3e-3 0.0356 0.0116m-1.40876 5.25921c0.69946 0.1572 1.42172 0.22901 2.09761 0.4767m-21.771 6.67767c0.458957-0.19325 0.901042-0.43465 1.36994-0.60091m19.1954-0.88161c0.615815 0.0983 1.20963 0.25518 1.79555 0.46829m-0.93335 5.15702c0.515773 0.0962 1.00245 0.31285 1.50513 0.45989m-10.3114 30.6414 0.13971-0.0142 0.11125-6.5e-4m-2.86213 5.51274c2.0577-0.28226 4.11089-0.36845 6.18674-0.31806m-7.1492 5.70422c2.82978-0.54004 5.74947-0.6928 8.62069-0.45269m6.98555-102.675c0.64333 0.41787 1.2858 0.83707 1.92879 1.25546m-1.7134 4.73918 0.0388 0.0259m0.17399 5.91832 0.21215 0.14294m-6.4e-4 5.75209 0.19792 0.13583 0.17787 0.1216m-0.16623 5.58909c0.177152 0.12343 0.354447 0.24666 0.53168 0.36998m-0.37062 70.1453 0.15394 0.0828 0.18175 0.0977m0.3661-93.3619c0.371412 0.41141 0.740199 0.8287 1.11356 1.23601m-0.20051-0.56467c0.140013 0.39586 0.281921 0.78981 0.42249 1.1856m0.0796-0.54978c-0.05579 0.38861-0.113017 0.77702-0.1694 1.16555m-19.0143 0.51357c0.160196 1.46825 0.375944 3.40137-0.10665 4.611-0.229118-1.49241-0.427351-3.52367 0.0608-4.75658l0.0453 0.14554m19.2827-0.92818c-0.295019 0.45524-0.589083 0.9111-0.88354 1.36671m0.15006-0.12677c-0.531435 0.44892-1.06293 0.89777-1.59439 1.34666m1.80396 4.77798c-0.537014 0.46023-1.07228 0.9225-1.60862 1.38353m1.81624 4.68808c-0.540905 0.47349-1.08144 0.9474-1.6222 1.42105m1.82789 4.59882c-0.544578 0.4858-1.08923 0.97151-1.63384 1.45727m1.83823 4.5115c-0.548506 0.49738-1.09652 0.99529-1.64548 1.49217m1.84793 4.42612c-0.552166 0.50877-1.10381 1.0181-1.65579 1.52707m1.85635 4.34139c-0.55514 0.52028-1.11009 1.04076-1.66489 1.5614m1.8945 21.9818c-0.489232 0.43188-0.874859 1.00141-1.44565 1.33052m1.3085 27.5554c-0.723344 0.50512-1.4476 1.00895-2.1713 1.51357m2.36344 3.90479c-0.726681 0.51382-1.45407 1.02664-2.18102 1.54008m2.37185 3.83364c-0.729758 0.52285-1.4602 1.04477-2.19075 1.56651m2.37962 3.76444c-0.732727 0.53128-1.46617 1.06157-2.19917 1.59247m-22.9391 2.39449c-1.21655-0.51297-2.43828-0.97043-3.44686-1.85311m26.7592 4.6745c-4.02893 2.302-8.60688 3.3576-13.2072 3.66481m-5.50306-115.509c-4.57099 0.15331-9.22476-0.0278-13.5953-1.49807m28.5593 4.55937c-7.99758 3.27704-17.0614 4.03064-25.5367 2.44443m27.961 2.43266c-1.70044 1.04885-3.48315 1.86798-5.37112 2.52334m0.044-0.0116c-7.17802 2.14177-14.9295 2.71668-22.2936 1.22884m27.8368 2.35309c-1.69725 1.07153-3.49664 1.89945-5.38663 2.57169m0.0834-0.0233c-7.14427 2.16507-14.8649 2.74312-22.1972 1.22065m27.7132 2.27419c-1.70133 1.1031-3.4973 1.92244-5.39957 2.61827m0.1216-0.0336c-7.10647 2.18993-14.8063 2.76741-22.1022 1.20943m22.3376 4.81744c-7.06558 2.21434-14.7505 2.79411-22.0071 1.19914m27.4707 2.12154c-1.69312 1.1396-3.51588 1.98815-5.42068 2.70954m0.19016-0.0543c-7.02863 2.23738-14.6915 2.81688-21.9126 1.18886m27.3504 2.04651c-6.57176 4.30436-14.8245 5.22661-22.5028 4.61556-1.53605-0.059-3.01595-0.4805-4.52229-0.74745m18.555 5.72492c-4.94168 1.10277-10.0459 1.41936-15.0752 0.78164m15.3184 5.05288c-4.91848 1.11126-10.0046 1.42854-15.0112 0.77387m24.8414 0.10414c-2.50474 2.74584-6.21692 3.91832-9.68405 4.92481m0.0944-0.0181c-4.89557 1.12102-9.96321 1.43608-14.9478 0.76779m15.1871 4.96815c-4.87486 1.12718-9.92049 1.4495-14.8848 0.76112m17.5033 15.5234c-3.021 1.0712-6.21348 1.50861-9.39622 1.7578m-3.61437-4e-3c-3.05895-0.22266-6.10404-0.73451-8.90141-2.04392m22.1345 5.82905c-6.95525 2.23515-15.0273 2.68556-21.8228-0.3167m26.199 4.01345c-7.19248 3.72783-15.9016 4.63858-23.6824 2.36369-0.735795-0.30333-1.47156-0.60672-2.20748-0.90976m26.2909 9.37099c-7.10239 3.77822-15.7833 4.70958-23.489 2.36522-0.730413-0.31177-1.46108-0.62297-2.19133-0.93511m25.8782 3.91708c-6.96399 3.78301-15.5302 4.67335-23.1364 2.47751m10.1258 6.49138c-0.322312 1.39912-0.326353 3.0413-0.0519 4.46688" fill="none" stroke="#000" stroke-linejoin="round" stroke-width=".64681"/><path d="m137.156 272.396h-1.65257l-4.89816-9.55811v9.55811h-1.37715v-11.0841h2.09177l4.45897 8.77649v-8.77649h1.37714z" color="#000000" fill="#fff" style="text-decoration-line:none;text-indent:0;text-transform:none"/><text x="58.660755" y="317.21393" color="#000000" fill="#464646" font-family="Tahoma" letter-spacing="0px" stroke-miterlimit="1e5" stroke-width="1px" word-spacing="0px" style="line-height:0%;text-decoration-line:none;text-indent:0;text-transform:none" xml:space="preserve"><tspan x="58.660755" y="317.21393" font-size="43.5774px" stroke-linejoin="round" stroke-miterlimit="1e5" style="line-height:1.25">=</tspan></text><path d="m130.416 358.159q-1.20593 0-2.05455-0.24565-0.84117-0.2531-1.58557-0.61786v-1.84611h0.10421q0.72952 0.68485 1.65257 1.06449 0.92306 0.3722 1.77912 0.3722 1.22082 0 1.84612-0.50619 0.62529-0.51364 0.62529-1.34737 0-0.66251-0.32753-1.07938-0.32754-0.41686-1.04216-0.61785-0.51364-0.14888-0.93795-0.24565-0.42431-0.0968-1.06449-0.26054-0.57319-0.14888-1.02728-0.37965-0.45408-0.23076-0.80395-0.60296-0.34242-0.36476-0.53597-0.85606-0.1861-0.49875-0.1861-1.14638 0-1.34737 1.04961-2.25554 1.0496-0.91561 2.67984-0.91561 0.9305 0 1.75679 0.1861 0.83373 0.1861 1.54091 0.52852v1.76424h-0.11166q-0.52853-0.48387-1.35481-0.84118-0.82629-0.36475-1.73446-0.36475-1.02727 0-1.66001 0.48386-0.63274 0.47641-0.63274 1.25803 0 0.70719 0.3722 1.12405t1.07938 0.61041q0.46897 0.12655 1.14638 0.29032 0.6774 0.15632 1.12404 0.29031 1.14638 0.34987 1.67491 1.05705 0.52852 0.70718 0.52852 1.7419 0 0.64763-0.26798 1.28037-0.26054 0.63274-0.73696 1.07194-0.53597 0.48386-1.21337 0.7444-0.66997 0.26054-1.68235 0.26054z" color="#000000" fill="#fff" style="text-decoration-line:none;text-indent:0;text-transform:none"/></g></svg>
