<?xml version="1.0" encoding="UTF-8"?>
<svg width="90.0476" height="116.051" version="1.1" viewBox="0 0 90.047585 116.05105" xmlns="http://www.w3.org/2000/svg"><defs><marker id="marker5891" overflow="visible" orient="auto"><path transform="matrix(-.8 0 0 -.8 -10 0)" d="m0 0 5-5-17.5 5 17.5 5z" fill-rule="evenodd" stroke="#000" stroke-width="1pt"/></marker><marker id="marker5190-9" overflow="visible" orient="auto"><path transform="matrix(-.8 0 0 -.8 -10 0)" d="m0 0 5-5-17.5 5 17.5 5z" fill-rule="evenodd" stroke="#000" stroke-width="1pt"/></marker></defs><g transform="translate(-44.9762 -260.716)"><path d="m88.13 354.696-38-85" fill="none" marker-end="url(#marker5891)" stroke="#000" stroke-miterlimit="100"/><path d="m83.1236 365.616c0-3.74404-2.02758-6.25555-4.8777-6.25555-4.13171 0-8.33993 5.27884-8.33993 10.6972 0 3.8603 2.14236 6.20903 4.89684 6.20903 4.05518 0 8.32078-5.0928 8.32078-10.6507zm-8.20602 10.0461c-1.8937 0-3.23269-1.88365-3.23269-4.95328 0-1.02322 0.267808-4.41841 1.74067-7.13923 1.31986-2.41851 3.19443-3.62774 4.70557-3.62774 1.56851 0 3.29005 1.30227 3.29005 4.76724 0 1.67434-0.516464 5.30208-2.41016 8.16243-0.918144 1.41853-2.48667 2.79058-4.09344 2.79058z" stroke-linejoin="round" stroke-miterlimit="1e5" stroke-width="1.33333"/><circle transform="rotate(-30.6912)" cx="-105.255" cy="349.997" r="3.73248"/><g><path d="m110.229 337.745c-0.0574 0.28693-0.17215 0.72688-0.17215 0.82253 0 0.3443 0.2678 0.51646 0.55473 0.51646 0.22953 0 0.57384-0.15296 0.70774-0.5356 0.0383-0.0765 0.68863-2.67795 0.76514-3.02225 0.15302-0.63123 0.49733-1.97023 0.61209-2.48669 0.0765-0.24866 0.61212-1.1477 1.07119-1.56851 0.15302-0.13392 0.70774-0.63123 1.53025-0.63123 0.49735 0 0.78428 0.22953 0.8034 0.22953-0.57384 0.0957-0.99468 0.55472-0.99468 1.05207 0 0.30604 0.21042 0.66948 0.72688 0.66948 0.51647 0 1.05205-0.43995 1.05205-1.12857 0-0.66949-0.61209-1.24333-1.58765-1.24333-1.24332 0-2.08497 0.93728-2.44841 1.47286-0.15303-0.86076-0.84163-1.47286-1.74067-1.47286-0.87991 0-1.24334 0.746-1.41549 1.0903-0.34431 0.65037-0.59298 1.79807-0.59298 1.85544 0 0.19128 0.19128 0.19128 0.22954 0.19128 0.19128 0 0.21041-0.0192 0.32518-0.43995 0.32518-1.35809 0.70775-2.27625 1.39637-2.27625 0.32517 0 0.59298 0.15296 0.59298 0.8799 0 0.4017-0.0574 0.6121-0.30607 1.60677z" stroke-linejoin="round" stroke-miterlimit="1e5" stroke-width="1.33333"/><path d="m93.1209 316.184c0-1.26248-0.34431-3.9213-2.2954-3.9213-2.65883 0-5.60458 5.39416-5.60458 9.77455 0 1.79805 0.55472 3.92129 2.2954 3.92129 2.69709 0 5.60458-5.48982 5.60458-9.77454zm-5.87239 2.62056c0.32519-1.22421 0.70776-2.75446 1.47288-4.11258 0.51647-0.93728 1.22421-2.00846 2.08499-2.00846 0.93728 0 1.05205 1.22421 1.05205 2.31453 0 0.93728-0.15302 1.91281-0.61209 3.80651zm3.82567 0.61211c-0.21042 0.87991-0.61212 2.50581-1.33898 3.88304-0.66949 1.30072-1.39637 2.238-2.21888 2.238-0.63123 0-1.03293-0.55472-1.03293-2.33365 0-0.80337 0.11477-1.91281 0.6121-3.78739z" stroke-linejoin="round" stroke-miterlimit="1e5" stroke-width="1.33333"/><path d="m88.13 354.696 28.9354-56.8296" fill="none" marker-end="url(#marker5190-9)" stroke="#000" stroke-dasharray="1.6, 1.6" stroke-miterlimit="100" stroke-width=".8"/></g><g stroke-linejoin="round" stroke-miterlimit="1e5" stroke-width=".833333"><path d="m72.1892 262.191c-0.688624 0.19128-1.03293 0.84163-1.03293 1.31984 0 0.42083 0.325184 0.8799 0.956416 0.8799 0.669488 0 1.37723-0.55472 1.37723-1.492 0-1.0138-1.01379-1.68329-2.18062-1.68329-1.0903 0-1.79805 0.82253-2.04672 1.16683-0.478208-0.80339-1.54939-1.16683-2.6397-1.16683-2.41016 0-3.71089 2.35278-3.71089 2.98401 0 0.2678 0.286923 0.2678 0.459078 0.2678 0.229539 0 0.363443 0 0.439955-0.24866 0.55472-1.74067 1.93195-2.31453 2.71621-2.31453 0.726881 0 1.07118 0.34431 1.07118 0.95642 0 0.36344-0.267792 1.41549-0.439953 2.10411l-0.650352 2.62056c-0.286928 1.16683-0.975552 1.74067-1.6259 1.74067-0.09565 0-0.5356 0-0.91816-0.28691 0.688608-0.19128 1.03293-0.84165 1.03293-1.31986 0-0.42081-0.325184-0.8799-0.956416-0.8799-0.669491 0-1.37724 0.55472-1.37724 1.49202 0 1.01379 1.0138 1.68328 2.18063 1.68328 1.0903 0 1.79805-0.82252 2.04672-1.16682 0.478209 0.80338 1.54939 1.16682 2.6397 1.16682 2.41016 0 3.71088-2.35277 3.71088-2.984 0-0.26781-0.286912-0.26781-0.459072-0.26781-0.229536 0-0.36344 0-0.439952 0.24867-0.55472 1.74067-1.93195 2.31451-2.71621 2.31451-0.72688 0-1.07118-0.3443-1.07118-0.9564 0-0.40169 0.248672-1.4155 0.420816-2.12325 0.133904-0.49732 0.573856-2.29539 0.669488-2.60144 0.286928-1.14769 0.956416-1.74067 1.6259-1.74067 0.09565 0 0.5356 0 0.91816 0.28693z"/><path d="m128.167 286.752c-0.68863 0.19128-1.03293 0.84163-1.03293 1.31984 0 0.42083 0.32518 0.8799 0.95642 0.8799 0.66948 0 1.37723-0.55472 1.37723-1.492 0-1.01381-1.01379-1.6833-2.18063-1.6833-1.0903 0-1.79805 0.82253-2.04672 1.16684-0.47821-0.8034-1.54939-1.16684-2.63969-1.16684-2.41016 0-3.7109 2.35279-3.7109 2.98402 0 0.26779 0.28693 0.26779 0.45907 0.26779 0.22955 0 0.36346 0 0.43997-0.24865 0.55472-1.74068 1.93195-2.31453 2.71621-2.31453 0.72688 0 1.07118 0.3443 1.07118 0.95641 0 0.36344-0.26779 1.41549-0.43995 2.10412l-0.65035 2.62056c-0.28693 1.16683-0.97555 1.74067-1.62591 1.74067-0.0957 0-0.5356 0-0.91816-0.28691 0.68861-0.19128 1.03293-0.84165 1.03293-1.31986 0-0.42082-0.32518-0.8799-0.95641-0.8799-0.66951 0-1.37725 0.55472-1.37725 1.49201 0 1.01379 1.01381 1.68328 2.18064 1.68328 1.0903 0 1.79805-0.82251 2.04672-1.16681 0.47821 0.80337 1.54939 1.16681 2.63969 1.16681 2.41016 0 3.71089-2.35277 3.71089-2.984 0-0.26781-0.28692-0.26781-0.45908-0.26781-0.22953 0-0.36344 0-0.43995 0.24868-0.55472 1.74067-1.93195 2.31451-2.71621 2.31451-0.72688 0-1.07118-0.34431-1.07118-0.9564 0-0.4017 0.24867-1.41551 0.42081-2.12325 0.13392-0.49733 0.57386-2.29539 0.66949-2.60144 0.28693-1.1477 0.95642-1.74067 1.62591-1.74067 0.0957 0 0.5356 0 0.91816 0.28693z"/><path d="m134.403 280.204c0.10704-0.22762 0.12048-0.33474 0.12048-0.42846 0-0.41509-0.37491-0.73645-0.79-0.73645-0.50882 0-0.66949 0.41509-0.73645 0.62933l-1.76744 5.79777c-0.0128 0.0267-0.0669 0.20085-0.0669 0.21424 0 0.16067 0.41509 0.29458 0.52219 0.29458 0.0938 0 0.1072-0.0267 0.20085-0.22763z"/></g><path d="m79.9257 336.355a20.0924 20.0924 0 0 1 17.1192 0.33472" fill="none" stroke="#000" stroke-linejoin="round" stroke-miterlimit="100"/><ellipse transform="matrix(.859789 -.51065 .510172 .860072 0 0)" cx="-94.4763" cy="257.481" rx="4.65455" ry="4.65596" fill="#ef0000"/></g></svg>
