<?xml version="1.0" encoding="UTF-8"?>
<svg width="189.152" height="110.828" version="1.1" viewBox="0 0 189.15221 110.82763" xmlns="http://www.w3.org/2000/svg"><defs><marker id="Arrow1Mstart" overflow="visible" orient="auto"><path transform="matrix(.4 0 0 .4 4 0)" d="m0 0 5-5-17.5 5 17.5 5z" fill="#555" fill-rule="evenodd" stroke="#555" stroke-width="1pt"/></marker><marker id="Arrow1Mend" overflow="visible" orient="auto"><path transform="matrix(-.4 0 0 -.4 -4 0)" d="m0 0 5-5-17.5 5 17.5 5z" fill="#555" fill-rule="evenodd" stroke="#555" stroke-width="1pt"/></marker></defs><g transform="translate(43.1475 -289.042)"><g fill="#ff1900" shape-rendering="auto"><path d="m-8.29106 353.776-12.3127-8.10788 2.11042 5.36308h-12.8902v5.48961h12.8902l-2.11042 5.36308z" color="#000000" color-rendering="auto" image-rendering="auto" solid-color="#000000" style="isolation:auto;mix-blend-mode:normal;text-decoration-color:#000000;text-decoration-line:none;text-decoration-style:solid;text-indent:0;text-transform:none;white-space:normal"/><path d="m-5.33202 353.776 12.3127-8.10788-2.11043 5.36308h12.8902v5.48961h-12.8902l2.11043 5.36308z" color="#000000" color-rendering="auto" image-rendering="auto" solid-color="#000000" style="isolation:auto;mix-blend-mode:normal;text-decoration-color:#000000;text-decoration-line:none;text-decoration-style:solid;text-indent:0;text-transform:none;white-space:normal"/><path d="m61.8431 353.776 12.3127-8.10788-2.11042 5.36308h12.8902v5.48961h-12.8902l2.11042 5.36308z" color="#000000" color-rendering="auto" image-rendering="auto" solid-color="#000000" style="isolation:auto;mix-blend-mode:normal;text-decoration-color:#000000;text-decoration-line:none;text-decoration-style:solid;text-indent:0;text-transform:none;white-space:normal"/><path d="m145.505 353.776-12.3127-8.10788 2.11041 5.36308h-12.8902v5.48961h12.8902l-2.11041 5.36308z" color="#000000" color-rendering="auto" image-rendering="auto" solid-color="#000000" style="isolation:auto;mix-blend-mode:normal;text-decoration-color:#000000;text-decoration-line:none;text-decoration-style:solid;text-indent:0;text-transform:none;white-space:normal"/></g><path d="m-9.35001 391.787c-0.05385 0.269-0.161385 0.68145-0.161385 0.77112 0 0.32279 0.251055 0.48419 0.52005 0.48419 0.21519 0 0.537975-0.1434 0.66351-0.50213 0.03585-0.0717 0.645585-2.51058 0.717315-2.83336 0.1434-0.59178 0.466245-1.84709 0.57384-2.33128 0.0717-0.23311 0.573855-1.07596 1.00423-1.47048 0.1434-0.12554 0.66351-0.59177 1.43461-0.59177 0.46626 0 0.735255 0.21519 0.75318 0.21519-0.537975 0.0897-0.932505 0.52004-0.932505 0.98631 0 0.28692 0.197265 0.62764 0.68145 0.62764 0.484185 0 0.986295-0.41245 0.986295-1.05804 0-0.62764-0.57384-1.16562-1.48842-1.16562-1.16562 0-1.95466 0.8787-2.29539 1.38081-0.1434-0.80697-0.78903-1.38081-1.63188-1.38081-0.82491 0-1.16562 0.69938-1.32702 1.02216-0.322785 0.60972-0.555915 1.68569-0.555915 1.73948 0 0.17932 0.179325 0.17932 0.21519 0.17932 0.17934 0 0.197265-0.018 0.30486-0.41246 0.30486-1.27321 0.66351-2.13398 1.30909-2.13398 0.304845 0 0.555915 0.1434 0.555915 0.82491 0 0.37659-0.05385 0.57384-0.286935 1.50634z" stroke-linejoin="round" stroke-miterlimit="1e5" stroke-width="1.5"/><g fill="none" shape-rendering="auto" stroke="#5a5a5a" stroke-linejoin="round" stroke-miterlimit="100" stroke-width="3"><path d="m-31.3835 399.369v-91.1863" color="#000000" color-rendering="auto" image-rendering="auto" solid-color="#000000" style="isolation:auto;mix-blend-mode:normal"/><path d="m17.7604 399.369v-91.1863" color="#000000" color-rendering="auto" image-rendering="auto" solid-color="#000000" style="isolation:auto;mix-blend-mode:normal"/><path d="m84.9356 399.369v-91.1863" color="#000000" color-rendering="auto" image-rendering="auto" solid-color="#000000" style="isolation:auto;mix-blend-mode:normal"/><path d="m122.412 399.369v-91.1863" color="#000000" color-rendering="auto" image-rendering="auto" solid-color="#000000" style="isolation:auto;mix-blend-mode:normal"/></g><g fill="#f00"><path d="m-13.7178 297.104q-0.375 4.6875-1.25 5.8125-0.4375 0.5625-1.4375 0.5625h-2.5l-0.1875-1.1875h2.3125q0.6875 0 0.9375-0.4375 0.5-0.8125 0.75-3.5625h-4.1875l-0.125 0.625-1.3125-0.1875q0.6875-3 0.875-5.0625h4.6875v-2h-5.75v-1.1875h7v4.6875h-1.25v-0.3125h-3.5q-0.0625 0.375-0.375 2.25zm4.6875 6.25h-1.25v-13.0625h1.1875q0.5 0.0625 0.0625 0.375z" color="#000000" style="text-decoration-line:none;text-indent:0;text-transform:none"/><path d="m-4.9678 302.042q4.9375-1.6875 5.25-7.5625h-4.5v-1.375h4.5625v-3.1875h1.375q0.625 0.125 0.0625 0.5v2.6875h5.5q-0.125 5-0.25 7.5t-1.875 2.5h-2.5l-0.25-1.375h2.125q1 0 1.0625-1 0.125-1.8125 0.25-6.25h-4.125q0 6.75-6 9.0625z" color="#000000" style="text-decoration-line:none;text-indent:0;text-transform:none"/><path d="m98.6426 298.479q1.5 0.5625 3.5 1.5l-0.5 1.4375q-1.875-0.9375-3-1.4375v3.9375h-1.25v-4.4375q-2.1875-0.875-3.5-1.25l0.4375-1.25q1.3125 0.375 3.0625 1.0625v-2.5625h-4.9375v2.25q0 3.75-2.25 6.125l-0.9375-1.0625q1.9375-1.875 1.9375-5.3125v-7.0625l1.25 0.3125q4.125-0.125 8.375-1.1875l0.75 1.25q0.3125 0.5-0.625 0.25-5.25 0.6875-8.5 0.8125v2.4375h10.4375v1.1875h-4.25z" color="#000000" style="text-decoration-line:none;text-indent:0;text-transform:none"/><path d="m105.83 302.104q4.9375-1.6875 5.25-7.5625h-4.5v-1.375h4.5625v-3.1875h1.375q0.625 0.125 0.0625 0.5v2.6875h5.5q-0.125 5-0.25 7.5t-1.875 2.5h-2.5l-0.25-1.375h2.125q1 0 1.0625-1 0.125-1.8125 0.25-6.25h-4.125q0 6.75-6 9.0625z" color="#000000" style="text-decoration-line:none;text-indent:0;text-transform:none"/></g><g shape-rendering="auto" stroke-linejoin="round" stroke-miterlimit="100"><g fill="#fff" stroke="#00f" stroke-width="1.5"><path d="m-31.3835 323.953-10.5142 13.365 6.30597-2.29079v48.5709h8.41641v-48.5709l6.30597 2.29079z" color="#000000" color-rendering="auto" image-rendering="auto" solid-color="#000000" style="isolation:auto;mix-blend-mode:normal;text-decoration-color:#000000;text-decoration-line:none;text-decoration-style:solid;text-indent:0;text-transform:none;white-space:normal"/><path d="m84.9356 323.953-10.5142 13.365 6.30597-2.29079v48.5709h8.4164v-48.5709l6.30597 2.29079z" color="#000000" color-rendering="auto" image-rendering="auto" solid-color="#000000" style="isolation:auto;mix-blend-mode:normal;text-decoration-color:#000000;text-decoration-line:none;text-decoration-style:solid;text-indent:0;text-transform:none;white-space:normal"/><path d="m17.7604 323.953-10.5142 13.365 6.30597-2.29079v48.5709h8.41641v-48.5709l6.30597 2.29079z" color="#000000" color-rendering="auto" image-rendering="auto" solid-color="#000000" style="isolation:auto;mix-blend-mode:normal;text-decoration-color:#000000;text-decoration-line:none;text-decoration-style:solid;text-indent:0;text-transform:none;white-space:normal"/><path d="m122.412 383.599-10.5142-13.365 6.30597 2.29079v-48.5709h8.41641v48.5709l6.30597-2.29079z" color="#000000" color-rendering="auto" image-rendering="auto" solid-color="#000000" style="isolation:auto;mix-blend-mode:normal;text-decoration-color:#000000;text-decoration-line:none;text-decoration-style:solid;text-indent:0;text-transform:none;white-space:normal"/></g><path d="m-28.5576 395.292h43.5977" color="#000000" color-rendering="auto" fill="none" image-rendering="auto" marker="none" marker-end="url(#Arrow1Mend)" marker-start="url(#Arrow1Mstart)" solid-color="#000000" stroke="#000" style="isolation:auto;mix-blend-mode:normal"/></g></g></svg>
