<?xml version="1.0" encoding="UTF-8"?>
<svg width="166.058" height="83.5257" version="1.1" viewBox="0 0 166.05806 83.525749" xmlns="http://www.w3.org/2000/svg"><g transform="translate(20.1719 -271.264)"><g fill="none" stroke-linejoin="round" stroke-miterlimit="100"><path d="m77.4003 294.656 1.4529 6.52373 0.09879 0.44169 2.54358-2.52984 6.02865 2.95281 5.73364 2.80782 5.1799-2.52583-6.05889-2.89135-5.71348-2.72696 5.20947-1.08584-6.70537-0.4477-6.7047-0.4477-1.06447-0.0708" color="#000000" color-rendering="auto" image-rendering="auto" shape-rendering="auto" solid-color="#000000" stroke="#00f" style="isolation:auto;mix-blend-mode:normal"/><path d="m133.957 309.033-0.16062-0.0982-0.12634-0.15703-0.088-0.21116-0.0464-0.25659-2e-3 -0.29201 0.0423-0.31673 0.0847-0.32809 0.12365-0.32809 0.15859-0.31473 0.18615-0.28866 0.20765-0.25259 0.22043-0.20514 0.22512-0.15168 0.22109-0.0909 0.20766-0.0274 0.18682 0.0374m0.41665 1.01835-1e-3 -0.29067-0.0444-0.25659-0.0867-0.21183-0.12499-0.15903-0.15927-0.10023-3.98237-1.77276-6.13349-2.73031-1.80167-0.80185-6.13349-2.7303-6.13416-2.73031-6.13349-2.7303-6.13348-2.7303-6.13349-2.73031-6.13349-2.7303-2.5167-1.11992-6.13416-2.7303-1.4576-0.64884-6.13349-2.7303-6.13349-2.7303-0.364232-0.16238-0.200261-0.0501-0.215717 5e-3 -0.222437 0.0595-0.221094 0.11226-0.211013 0.16037-0.192868 0.20314-0.167332 0.23721-0.135075 0.26261-0.09811 0.27731-0.05645 0.28198-0.01277 0.2753 0.03024 0.25793 0.07325 0.23053 0.112899 0.19445 0.148515 0.15102 0.178085 0.10157 6.11266 2.77574 3.76598 1.70995 6.11333 2.77507 1.46903 0.66754 6.11266 2.77508 6.11333 2.77574 6.11333 2.77507 6.11265 2.77574 6.11333 2.77508 6.11266 2.77574 2.63564 1.19676 6.11333 2.77508 1.83057 0.83125 6.11265 2.77507 0.37701 0.17173 0.18816 0.0341 0.20765-0.0294 0.22042-0.0922 0.22379-0.15235 0.21907-0.20581 0.20564-0.25125 0.18548-0.28666 0.15658-0.31272 0.12365-0.32542 0.084-0.32609 0.043-0.31539" color="#000000" color-rendering="auto" image-rendering="auto" shape-rendering="auto" solid-color="#000000" stroke="#00f" style="isolation:auto;mix-blend-mode:normal"/><g stroke="#000"><path d="m131.416 303.979 5.92113-3.16063 5.92113-3.15997 0.68815-0.36751 0.36356-0.29936 0.28426-0.39692 0.19421-0.4791 0.0968-0.54392-6e-3 -0.58669-0.10753-0.60674-0.20563-0.60339-0.29569-0.576-0.37364-0.52655-0.43681-0.45571-0.48385-0.36752-0.51074-0.26528-0.51812-0.15302-0.50536-0.0354-0.47309 0.0828-0.42337 0.19846-5.96952 3.06842-5.97019 3.06775-5.12479 2.63408"/><path d="m36.1828 345.311 0.35684-0.15904 0.420682-0.012 0.469739 0.13699 0.49998 0.27998 0.510732 0.41362 0.501996 0.53123 0.473771 0.62878 0.426058 0.70162 0.361544 0.74706 0.282919 0.76243 0.19354 0.74839 0.0961 0.70429-4e-3 0.63347-0.104835 0.53724-0.487883 0.70897-0.364233 0.14633-0.425386-2e-3 -0.469739-0.14834-0.497291-0.28867-0.505356-0.41763-0.493932-0.53056-0.464363-0.6221-0.417322-0.69093-0.354824-0.73369-0.278886-0.74907-0.192197-0.73636-0.09946-0.69628-0.0013-0.62878 0.09677-0.53858 0.190852-0.42765 0.279559-0.29869 5.96952-3.06842 5.97019-3.06775 5.97019-3.06842 5.96952-3.06775 5.97019-3.06842 5.96952-3.06775 5.97019-3.06842 5.97019-3.06775 5.96952-3.06841 5.97019-3.06775 5.96952-3.06842 5.97019-3.06775 5.96952-3.06842 5.73229-2.94547"/><path d="m40.18 352.674 5.92113-3.15997 5.92046-3.16063 5.92113-3.15996 5.92113-3.15996 5.92113-3.16063 5.92113-3.15997 5.92113-3.16063 5.92113-3.15996 5.92113-3.16063 5.92113-3.15996 5.92113-3.16063 5.92113-3.15997 5.92113-3.15996 5.92113-3.16063 4.3923-2.34408"/><path d="m84.1621 282.945 6.17582-2.63408 6.03201-2.57328 0.324583-0.19511 0.268806-0.29134 0.202277-0.37687 0.127683-0.44837 0.04838-0.5025-0.0336-0.53657-0.113571-0.54994-0.190853-0.54258-0.258726-0.51319-0.317863-0.46373-0.363561-0.39692-0.395145-0.31406-0.411946-0.2185-0.412617-0.11627-0.396489-9e-3 -0.365577 0.0982-6.2101 2.55523-6.20943 2.55524-5.09186 2.09483"/><path d="m-8.13928 314.422 0.297703-0.0575 0.342056 0.0728 0.373641 0.2018 0.390441 0.32275 0.392457 0.43166 0.379017 0.52455 0.35012 0.59604 0.307783 0.64415 0.254022 0.66821 0.188836 0.66487 0.117603 0.63547 0.040993 0.58201-0.035617 0.50517-0.295687 0.70763-0.247302 0.17507-0.301063 0.0474-0.3434-0.0829-0.372297-0.20915-0.387081-0.32609-0.387753-0.43166-0.372297-0.51987-0.344744-0.58803-0.302407-0.63546-0.24999-0.65685-0.188164-0.65552-0.118947-0.62878-0.044353-0.578 0.030913-0.50584 0.106178-0.41362 0.177412-0.30537 0.241926-0.18509 6.20943-2.55524 6.20943-2.55523 6.20943-2.55457 6.20943-2.55523 6.2101-2.55523 6.20942-2.55457 6.20943-2.55523 6.20942-2.55523 6.20943-2.55524 6.20943-2.55456 6.20942-2.55523 6.20943-2.55524 6.25311-2.5726"/><path d="m-5.28322 321.097 6.17582-2.63408 6.1765-2.63408 6.17582-2.63409 6.17583-2.63475 6.17582-2.63408 6.17582-2.63408 6.17582-2.63475 6.17582-2.63408 6.17582-2.63408 6.1765-2.63408 6.17582-2.63475 6.17582-2.63409 6.17582-2.63408 5.20611-2.22046"/></g></g><g shape-rendering="auto"><path d="m110.546 277.972c-2.24159 0.53799-3.98107 2.86925-3.98107 5.0391 0 1.72155 1.1477 3.01271 2.83337 3.01271 2.09814 0 3.58656-2.81544 3.58656-5.29016 0-1.63188-0.71731-2.52852-1.32703-3.33549-0.64557-0.80698-1.70361-2.15193-1.70361-2.94097 0-0.39453 0.35866-0.82491 0.98631-0.82491 0.53797 0 0.89664 0.23313 1.27323 0.48418 0.35865 0.21519 0.7173 0.44832 0.98629 0.44832 0.44832 0 0.71732-0.43038 0.71732-0.71731 0-0.39452-0.28694-0.44832-0.93251-0.59178-0.9325-0.19725-1.18356-0.19725-1.47049-0.19725-1.39875 0-2.04434 0.7711-2.04434 1.84707 0 0.96837 0.52005 1.9726 1.07597 3.06649zm0.2152 0.39453c0.44832 0.8249 0.9863 1.79327 0.9863 3.08442 0 1.18358-0.68145 4.17834-2.3492 4.17834-0.98629 0-1.72153-0.75318-1.72153-2.11606 0-1.12977 0.66351-4.50113 3.08443-5.1467z" color="#000000" color-rendering="auto" fill="#00f" image-rendering="auto" solid-color="#000000" stroke-linejoin="round" stroke-miterlimit="1e5" stroke-width="1.49229" style="isolation:auto;mix-blend-mode:normal"/><path d="m122.339 274.727c0.0717-0.30486 0.0897-0.3228 0.44832-0.35866 0.26899-0.018 0.50211-0.018 0.7711-0.018h0.37659c0.37659 0 0.39452-0.018 0.48419-0.0897 0.10759-0.0717 0.1614-0.32279 0.1614-0.43038 0-0.21519-0.17934-0.3228-0.39453-0.3228-0.44832 0-0.91457 0.0358-1.36289 0.0358-0.46626 0-0.95044 0.0178-1.43461 0.0178-0.50213 0-1.00424-0.0178-1.48842-0.0178-0.46626 0-0.95045-0.0358-1.39877-0.0358-0.19725 0-0.52005 0-0.52005 0.52005 0 0.3228 0.28694 0.3228 0.60972 0.3228h0.37659c0.16139 0 0.59178 0.018 0.95043 0.0358l-2.56438 10.2217c-0.0717 0.28693-0.0897 0.30486-0.43038 0.3228-0.21519 0.0359-0.53799 0.0359-0.77111 0.0359h-0.37659c-0.35866 0-0.66351 0-0.66351 0.52005 0 0.23311 0.19726 0.32278 0.39452 0.32278 0.44832 0 0.91456-0.0358 1.36288-0.0358 0.48419 0 0.96837-0.018 1.45256-0.018 0.50212 0 0.98631 0.018 1.48842 0.018 0.46624 0 0.9325 0.0358 1.38082 0.0358 0.17933 0 0.53798 0 0.53798-0.52005 0-0.32278-0.30485-0.32278-0.60971-0.32278h-0.37659c-0.12553 0-0.71731-0.018-0.95043-0.0359z" color="#000000" color-rendering="auto" fill="#00f" image-rendering="auto" solid-color="#000000" stroke-linejoin="round" stroke-miterlimit="1e5" stroke-width="1.49229" style="isolation:auto;mix-blend-mode:normal"/><g fill="none"><path d="m-6.96748 317.826c-11.6756 5.09423-12.0161 18.704-7.53459 25.644" color="#000000" color-rendering="auto" image-rendering="auto" solid-color="#000000" stroke="#000" stroke-linejoin="round" stroke-width=".5" style="isolation:auto;mix-blend-mode:normal"/><path d="m38.1106 349.293c-18.5195 7.63675-44.9389 5.20629-50.2925-1.26104" color="#000000" color-rendering="auto" image-rendering="auto" solid-color="#000000" stroke="#000" stroke-linejoin="round" stroke-width=".5" style="isolation:auto;mix-blend-mode:normal"/><path d="m-10.1489 341.559-7.66617 3.98638" color="#000000" color-rendering="auto" image-rendering="auto" solid-color="#000000" stroke="#2b2b2b" stroke-width="2" style="isolation:auto;mix-blend-mode:normal"/><path d="m-4.25302 343.71-15.1865 7.89693" color="#000000" color-rendering="auto" image-rendering="auto" solid-color="#000000" stroke="#2b2b2b" style="isolation:auto;mix-blend-mode:normal"/></g></g></g></svg>
