<?xml version="1.0" encoding="UTF-8"?>
<svg width="139.315" height="118.534" version="1.1" viewBox="0 0 139.31516 118.53384" xmlns="http://www.w3.org/2000/svg"><defs><marker id="marker5190-9-8" overflow="visible" orient="auto"><path transform="matrix(-.8 0 0 -.8 -10 0)" d="m0 0 5-5-17.5 5 17.5 5z" fill-rule="evenodd" stroke="#000" stroke-width="1pt"/></marker><marker id="marker3800" overflow="visible" orient="auto"><path transform="matrix(-.8 0 0 -.8 -10 0)" d="m0 0 5-5-17.5 5 17.5 5z" fill-rule="evenodd" stroke="#000" stroke-width="1pt"/></marker></defs><g transform="translate(-53.1996 -299.474)"><g stroke-linejoin="round"><g stroke-miterlimit="1e5" stroke-width="1.33333"><path d="m146.52 346.845c-0.34432-0.70774-0.89904-1.22421-1.75981-1.22421-2.238 0-4.6099 2.81186-4.6099 5.60458 0 1.79806 1.05205 3.06053 2.54405 3.06053 0.38257 0 1.33899-0.0765 2.48669-1.43463 0.15302 0.8034 0.82251 1.43463 1.74067 1.43463 0.66949 0 1.10944-0.43995 1.41549-1.05207 0.32518-0.6886 0.57384-1.85544 0.57384-1.89369 0-0.19128-0.17215-0.19128-0.22954-0.19128-0.19128 0-0.21042 0.0765-0.26779 0.3443-0.32519 1.24335-0.66949 2.37191-1.45375 2.37191-0.51646 0-0.57385-0.49733-0.57385-0.87991 0-0.42081 0.0382-0.57384 0.24867-1.41549 0.21042-0.80337 0.24867-0.99467 0.42082-1.72153l0.68862-2.67797c0.13389-0.53558 0.13389-0.57384 0.13389-0.65035 0-0.32519-0.22954-0.51647-0.55472-0.51647-0.45907 0-0.746 0.42082-0.80338 0.84165zm-1.24334 4.95421c-0.0956 0.34432-0.0956 0.38258-0.38256 0.70776-0.84165 1.05205-1.62591 1.3581-2.16151 1.3581-0.9564 0-1.2242-1.05205-1.2242-1.79805 0-0.95642 0.61211-3.3092 1.05206-4.18909 0.59298-1.12858 1.45374-1.83632 2.21888-1.83632 1.24333 0 1.51114 1.56851 1.51114 1.68328 0 0.11472-0.0383 0.22955-0.0574 0.32518z"/><path d="m161.532 349.676h5.3368c0.26779 0 0.63123 0 0.63123-0.38256s-0.36344-0.38258-0.63123-0.38258h-5.3368v-5.3559c0-0.26779 0-0.63123-0.38256-0.63123s-0.38256 0.36344-0.38256 0.63123v5.3559h-5.35592c-0.2678 0-0.63123 0-0.63123 0.38258 0 0.38257 0.36343 0.38256 0.63123 0.38256h5.35592v5.35592c0 0.26779 0 0.63123 0.38256 0.63123s0.38256-0.36344 0.38256-0.63123z"/><path d="m177.832 345.717c-2.39102 0.57385-4.24646 3.06052-4.24646 5.37504 0 1.83632 1.22421 3.21355 3.02226 3.21355 2.23801 0 3.82566-3.00314 3.82566-5.64283 0-1.74068-0.76514-2.69709-1.4155-3.55786-0.68861-0.86078-1.81719-2.29539-1.81719-3.13704 0-0.42083 0.38258-0.8799 1.05207-0.8799 0.57384 0 0.95641 0.24867 1.35811 0.51646 0.38256 0.22954 0.76512 0.47821 1.05205 0.47821 0.4782 0 0.76513-0.45907 0.76513-0.76514 0-0.42081-0.30606-0.47821-0.99467-0.63123-0.99467-0.2104-1.26246-0.2104-1.56853-0.2104-1.492 0-2.18062 0.82251-2.18062 1.97021 0 1.03293 0.55472 2.10411 1.14769 3.27093zm0.22956 0.42083c0.4782 0.87989 1.05204 1.91281 1.05204 3.29005 0 1.26248-0.72688 4.45689-2.5058 4.45689-1.05205 0-1.83631-0.80339-1.83631-2.25713 0-1.20509 0.70775-4.8012 3.29007-5.48981z"/><path d="m189.111 346.845c-0.34432-0.70774-0.89904-1.22421-1.75981-1.22421-2.238 0-4.60991 2.81186-4.60991 5.60458 0 1.79806 1.05206 3.06053 2.54406 3.06053 0.38257 0 1.33899-0.0765 2.48668-1.43463 0.15303 0.8034 0.82252 1.43463 1.74068 1.43463 0.66948 0 1.10944-0.43995 1.41548-1.05207 0.32519-0.6886 0.57384-1.85544 0.57384-1.89369 0-0.19128-0.17214-0.19128-0.22953-0.19128-0.19128 0-0.21042 0.0765-0.26779 0.3443-0.32519 1.24335-0.66949 2.37191-1.45375 2.37191-0.51646 0-0.57385-0.49733-0.57385-0.87991 0-0.42081 0.0382-0.57384 0.24867-1.41549 0.21041-0.80337 0.24867-0.99467 0.42081-1.72153l0.68863-2.67797c0.13389-0.53558 0.13389-0.57384 0.13389-0.65035 0-0.32519-0.22954-0.51647-0.55472-0.51647-0.45908 0-0.746 0.42082-0.80338 0.84165zm-1.24334 4.95421c-0.0956 0.34432-0.0956 0.38258-0.38256 0.70776-0.84165 1.05205-1.62591 1.3581-2.16151 1.3581-0.9564 0-1.22421-1.05205-1.22421-1.79805 0-0.95642 0.61212-3.3092 1.05207-4.18909 0.59297-1.12858 1.45374-1.83632 2.21888-1.83632 1.24333 0 1.51113 1.56851 1.51113 1.68328 0 0.11472-0.0383 0.22955-0.0574 0.32518z"/></g><path d="m61.402 355.784c24.2946-34.443 8.11967-37.3843 27.8959-47.633 19.827-10.2749 32.3523-11.6578 47.7829 4.69715 10.049 10.6509-3.86851 31.5669-23.7636 41.7107-19.8952 10.1438-64.8462 19.5578-51.9151 1.22513z" fill="#ffd3d3" stroke="#f00" stroke-miterlimit="100"/></g><path d="m61.8423 328.264c0.51905 0 1.10301 0 1.10301-0.55151 0-0.45417-0.38932-0.45417-0.94079-0.45417h-5.25548c0.77858-2.7575 2.59529-4.63908 5.54743-4.63908h1.00567c0.55151 0 1.07056 0 1.07056-0.55151 0-0.45417-0.42172-0.45417-0.97322-0.45417h-1.13544c-4.21734 0-8.56447 3.24412-8.56447 8.20762 0 3.56853 2.43309 6.13138 5.87185 6.13138 2.10866 0 4.21735-1.29765 4.21735-1.65451 0-0.0974-0.0324-0.45417-0.32441-0.45417-0.0649 0-0.12976 0-0.42174 0.19456-1.00568 0.64881-2.206 1.20032-3.40632 1.20032-1.88158 0-3.50364-1.36251-3.50364-4.21734 0-1.13544 0.25952-2.36822 0.35686-2.7575z" fill="#ef0000"/><path d="m126.59 321.811-46.5084 30.7192" fill="none" stroke="#000" stroke-miterlimit="1e5" stroke-width="1px"/><circle cx="80.0811" cy="352.53" r="3.37713"/><circle cx="126.59" cy="321.811" r="3.37713"/><g><path d="m96.3828 374.984c-0.34432-0.70774-0.89904-1.22421-1.75981-1.22421-2.238 0-4.6099 2.81186-4.6099 5.60458 0 1.79806 1.05205 3.06053 2.54405 3.06053 0.38257 0 1.33899-0.0765 2.48669-1.43463 0.15302 0.8034 0.82251 1.43463 1.74067 1.43463 0.66949 0 1.10944-0.43995 1.41549-1.05207 0.32518-0.6886 0.57384-1.85544 0.57384-1.89369 0-0.19128-0.17215-0.19128-0.22954-0.19128-0.19128 0-0.21042 0.0765-0.26779 0.3443-0.32519 1.24335-0.66949 2.37191-1.45375 2.37191-0.51646 0-0.57385-0.49733-0.57385-0.87991 0-0.42081 0.0382-0.57384 0.24867-1.41549 0.21042-0.80337 0.24867-0.99467 0.42082-1.72153l0.68862-2.67797c0.13389-0.53558 0.13389-0.57384 0.13389-0.65035 0-0.32519-0.22954-0.51647-0.55472-0.51647-0.45907 0-0.746 0.42082-0.80338 0.84165zm-1.24334 4.95421c-0.0956 0.34432-0.0956 0.38258-0.38256 0.70776-0.84165 1.05205-1.62591 1.3581-2.16151 1.3581-0.9564 0-1.2242-1.05205-1.2242-1.79805 0-0.95642 0.61211-3.3092 1.05206-4.18909 0.59298-1.12858 1.45374-1.83632 2.21888-1.83632 1.24333 0 1.51114 1.56851 1.51114 1.68328 0 0.11472-0.0383 0.22955-0.0574 0.32518z" stroke-linejoin="round" stroke-miterlimit="1e5" stroke-width="1.33333"/><path d="m140.694 395.29-12.238-70.5356" fill="none" marker-end="url(#marker5190-9-8)" stroke="#000" stroke-dasharray="1.2, 1.2" stroke-miterlimit="100" stroke-width=".6"/><path d="m133.569 397.579-50.9389-42.5367" fill="none" marker-end="url(#marker3800)" stroke="#000" stroke-dasharray="1.20000002, 1.20000002" stroke-miterlimit="100" stroke-width=".6"/></g><g><path d="m133.88 412.225-0.33411-1.12876q1.05652-0.25284 3.52172-1.03846v-4.13577h-1.59832q-0.33411 1.80602-0.75852 2.69999l-1.07458-0.34314q0.34314-0.78561 0.62307-2.44715 0.27993-1.66153 0.27993-3.73845l1.30033 0.0181q-0.0271 1.52609-0.18963 2.73612h1.41772v-3.81069h1.3816v3.81069h1.6796v1.07457h-1.6796v3.68427q0.9301-0.31605 1.40869-0.51471l0.2077 1.0204q-0.49666 0.24381-1.61639 0.64113v6.69128h-1.3816v-6.22172q-1.31839 0.43345-3.18761 1.00234zm13.0575 4.97557h-2.32073l-0.20769-1.24615h1.95952q0.31606 0 0.55084-0.20769 0.24381-0.20769 0.24381-0.50569v-4.17189h-6.51068v-1.12876h6.51068v-2.16721h-6.85382v-1.1107h4.4157v-2.60969h-3.91905v-1.1107h3.91905v-1.86922h1.45384v1.86922h3.9642v1.1107h-3.9642v2.60969h4.77691v1.1107h-2.35685v2.16721h1.99565v1.12876h-1.99565v4.58728q0 0.66822-0.47859 1.10167-0.4786 0.44247-1.18294 0.44247zm-3.82875-1.88729q-1.23712-1.87825-2.23043-3.07022l1.21003-0.69531q1.25518 1.50802 2.23946 3.0341z"/><path d="m156.934 412.614v-1.86922h-3.81068v-1.12876h3.81068v-1.66153h-3.16955v-6.23978h14.1682v6.23978h-3.16956v1.66153h3.92808v1.12876h-3.92808v1.86922h4.56922v1.14682h-16.9224v-1.14682zm3.21471-8.29863v-1.57123h-5.03878v1.57123zm1.31839-1.57123v1.57123h5.09296v-1.57123zm-1.31839 4.13577v-1.54414h-5.03878v1.54414zm1.31839-1.54414v1.54414h5.09296v-1.54414zm-3.11538 2.61872v1.66153h5.00266v-1.66153zm0 2.79029v1.86922h5.00266v-1.86922zm-5.37289 6.70031-0.56889-1.0204q3.34113-0.94815 5.30065-2.41103l1.28227 0.7495q-1.06555 0.7495-2.87156 1.5622-1.80602 0.81271-3.14247 1.11973zm15.2789 0.0361q-1.17391-0.31605-2.91671-1.17391-1.74281-0.86688-2.59163-1.5622l1.16488-0.73144q0.87591 0.62308 2.41103 1.32742 1.54414 0.70435 2.74514 1.04749z"/><path d="m172.565 412.541v-5.84245h5.67992v-5.64379h1.40869v2.14915h7.77488v1.1107h-7.77488v2.38394h6.47455v5.84245zm12.1996-4.80399h-10.8451v3.74748h10.8451zm1.86923 9.48157q-0.68629-1.33645-2.25752-3.63912l1.33645-0.50568q1.39966 1.94146 2.33879 3.65718zm-5.30065-0.0361q-0.57793-1.80601-1.28227-3.48561l1.36354-0.30702q0.80368 1.67056 1.42675 3.47658zm-9.44545 0.32508-1.24615-0.58695q1.30033-1.55318 2.14915-3.5127l1.31839 0.3612q-0.21672 0.68629-1.00233 1.97759-0.77659 1.2913-1.21906 1.76086zm4.88526-0.17157-0.91203-3.53076 1.3816-0.22575q0.35217 1.05652 1.00234 3.5127z"/><path d="m143.758 370.699-0.92194 0.21276q-0.66405-2.12111-0.66405-4.60325 0-2.7078 0.88325-5.8411l0.99286 0.17407q-0.8897 2.93344-0.8897 5.7186 0 2.28873 0.59958 4.33892zm8.72941-8.51666q-1.02509-0.0193-1.93414-0.0193-1.33455 0-4.82889 0.18052 0-0.29012-0.0387-0.87036 3.32027-0.19341 5.39625-0.19341 1.03154 0 1.37324 0.0193v0.058q0 0.29657 0.0322 0.82523zm0.0774 8.20075q-1.34745 0.14184-2.63688 0.14184-1.7923 0-2.682-0.20631-0.88326-0.21276-1.341-0.69629-0.45775-0.48353-0.45775-1.2443 0-1.1089 0.96707-2.3403l0.74787 0.39972q-0.793 0.87036-0.793 1.88256 0 0.50288 0.42551 0.81234 0.43196 0.30946 1.14759 0.41261 0.72208 0.0967 2.04374 0.0967 1.341 0 2.57885-0.15473z"/><path d="m160.288 370.647 0.23854-0.79299q0.7801 0.29656 1.65047 0.29656 1.20561 0 1.89545-0.5609t0.68984-1.60533q0-1.14114-0.92838-1.73428-0.92839-0.59313-2.5853-0.59313-1.10891 0-2.14689 0.24499v3.87472q0 1.23785-1.87612 1.23785-1.07667 0-1.89545-0.63182-0.81234-0.63826-0.81234-1.61178 0-1.07022 1.0122-2.0115 1.01864-0.94129 2.54017-1.44416v-2.21781h-3.21067v-0.84458h3.18488v-2.08887h1.05733v1.99217h3.3654v0.84457h-3.3654v2.03729q1.05088-0.22565 2.12755-0.22565 1.93414 0 3.24935 0.82523 1.31521 0.82524 1.31521 2.29518 0 1.46995-0.92193 2.29518-0.9155 0.82523-2.4886 0.82523-1.31521 0-2.09531-0.40617zm-2.19203-4.43562q-1.1089 0.4384-1.86322 1.11535-0.75431 0.67695-0.75431 1.39258 0 0.6834 0.54801 1.04444 0.55445 0.35459 1.2314 0.35459 0.83812 0 0.83812-0.59314zm8.45219-2.79805-0.83168 0.59313q-1.26364-1.56665-3.15909-2.87542l0.67695-0.59958q0.79944 0.50932 1.77296 1.36034 0.97996 0.84458 1.54086 1.52153z"/><path d="m173.885 371.137-0.40617-0.75432q1.41192-0.53511 2.06953-1.54086t0.65761-2.68201v-2.3532h-4.30024v-0.87036h4.30024v-2.59819h1.0122v2.59819h2.58529v0.87036h-2.58529v2.45636q0 3.77157-3.33317 4.87403zm-2.134-3.88118q-1.57955 2.43057-1.79875 3.41698l-0.79299-0.0516q-0.78011-2.16623-0.78011-4.61614 0-2.30807 0.74142-5.3898l1.01865 0.18052q-0.78655 3.11396-0.78655 5.16415 0 1.65691 0.30946 3.13331 0.79945-1.34745 1.38613-2.23716z"/><path d="m188.54 370.099q2.41767-0.58024 2.41767-2.48859 0-1.17983-0.8897-1.82454t-2.37254-0.64471q-1.01865 0-1.99217 0.25788-0.96706 0.25789-2.2307 1.05088-1.25719 0.793-1.75362 1.21206l-0.47709-0.79299q3.9263-2.53372 7.67208-5.33178l-6.52449 0.0258v-0.85747h7.87194l0.4513 0.65761-4.54522 3.1462 0.0516 0.0774q0.78655-0.23854 1.56666-0.23854 1.85032 0 3.03659 0.85102 1.19272 0.85102 1.19272 2.3532 0 1.76007-1.45705 2.68845-1.45705 0.92194-3.90696 0.92194-3.3654 0-3.3654-1.85032 0-0.72853 0.69629-1.22496t1.52797-0.49643q1.16693 0 1.99861 0.65116t1.03154 1.85678zm-0.94773 0.16762q-0.37393-1.85032-2.0115-1.85032-0.52222 0-0.94128 0.25788-0.41262 0.25789-0.41262 0.6834 0 0.98641 2.28229 0.98641 0.49642 0 1.08311-0.0774z"/><path d="m67.4762 397.534-0.921939 0.21276q-0.664054-2.12111-0.664054-4.60325 0-2.70779 0.883256-5.8411l0.992858 0.17407q-0.889704 2.93345-0.889704 5.71861 0 2.28873 0.599583 4.33891zm8.72941-8.51665q-1.02509-0.0193-1.93414-0.0193-1.33456 0-4.8289 0.18052 0-0.29012-0.03868-0.87037 3.32027-0.19341 5.39625-0.19341 1.03154 0 1.37324 0.0193v0.058q0 0.29656 0.03224 0.82523zm0.07737 8.20074q-1.34745 0.14184-2.63688 0.14184-1.7923 0-2.68201-0.20631-0.883256-0.21275-1.341-0.69629-0.457746-0.48353-0.457746-1.24429 0-1.10891 0.967069-2.34031l0.747867 0.39972q-0.792997 0.87036-0.792997 1.88256 0 0.50288 0.42551 0.81234 0.431958 0.30946 1.14759 0.41262 0.722079 0.0967 2.04374 0.0967 1.341 0 2.57885-0.15474z"/><path d="m84.0067 397.482 0.238544-0.793q0.780103 0.29657 1.65046 0.29657 1.20561 0 1.89546-0.5609 0.689842-0.5609 0.689842-1.60534 0-1.14114-0.928386-1.73427-0.928387-0.59314-2.5853-0.59314-1.10891 0-2.14689 0.24499v3.87472q0 1.23785-1.87611 1.23785-1.07667 0-1.89546-0.63182-0.812338-0.63826-0.812338-1.61178 0-1.07022 1.0122-2.0115 1.01865-0.94128 2.54017-1.44416v-2.21781h-3.21067v-0.84457h3.18488v-2.08887h1.05733v1.99216h3.3654v0.84457h-3.3654v2.0373q1.05088-0.22565 2.12755-0.22565 1.93414 0 3.24935 0.82523 1.31521 0.82523 1.31521 2.29518 0 1.46994-0.92194 2.29517-0.915492 0.82524-2.48859 0.82524-1.31521 0-2.09532-0.40617zm-2.19202-4.43563q-1.10891 0.43841-1.86322 1.11536-0.754314 0.67694-0.754314 1.39258 0 0.68339 0.548006 1.04443 0.554453 0.35459 1.2314 0.35459 0.838127 0 0.838127-0.59313zm8.45218-2.79805-0.83168 0.59314q-1.26364-1.56666-3.15909-2.87542l0.676949-0.59959q0.799444 0.50933 1.77296 1.36035 0.979964 0.84457 1.54086 1.52152z"/><path d="m97.6037 397.972-0.406169-0.75432q1.41192-0.53511 2.06953-1.54086t0.657607-2.682v-2.35321h-4.30023v-0.87036h4.30023v-2.59819h1.0122v2.59819h2.5853v0.87036h-2.5853v2.45636q0 3.77157-3.33317 4.87403zm-2.134-3.88117q-1.57955 2.43056-1.79875 3.41698l-0.792996-0.0516q-0.780103-2.16624-0.780103-4.61615 0-2.30807 0.74142-5.38979l1.01865 0.18052q-0.78655 3.11396-0.78655 5.16414 0 1.65692 0.309463 3.13331 0.799443-1.34745 1.38613-2.23715z"/><path d="m112.258 396.934q2.41768-0.58024 2.41768-2.48859 0-1.17982-0.88971-1.82454-0.8897-0.64471-2.37254-0.64471-1.01865 0-1.99216 0.25788-0.96707 0.25789-2.23071 1.05089-1.25719 0.79299-1.75362 1.21206l-0.47709-0.793q3.9263-2.53372 7.67209-5.33177l-6.5245 0.0258v-0.85746h7.87195l0.45129 0.6576-4.54522 3.1462 0.0516 0.0774q0.78655-0.23855 1.56665-0.23855 1.85032 0 3.0366 0.85102 1.19271 0.85102 1.19271 2.35321 0 1.76006-1.45705 2.68845-1.45705 0.92194-3.90696 0.92194-3.3654 0-3.3654-1.85033 0-0.72852 0.69629-1.22495t1.52797-0.49643q1.16693 0 1.99861 0.65116t1.03154 1.85677zm-0.94773 0.16763q-0.37393-1.85033-2.0115-1.85033-0.52222 0-0.94128 0.25789-0.41262 0.25788-0.41262 0.68339 0 0.98641 2.28229 0.98641 0.49643 0 1.08311-0.0774z"/></g><path d="m105.043 320.446c0-0.0574-0.0382-0.19128-0.21042-0.19128-0.0574 0-0.0765 0.0192-0.28692 0.22954l-1.33898 1.47288c-0.17214-0.26781-1.05205-1.70242-3.1753-1.70242-4.2656 0-8.56947 4.22735-8.56947 8.66511 0 3.15616 2.25715 5.24113 5.18378 5.24113 1.66416 0 3.1179-0.76512 4.13171-1.64502 1.77893-1.56851 2.1041-3.30918 2.1041-3.36658 0-0.19128-0.19128-0.19128-0.22954-0.19128-0.11472 0-0.21042 0.0382-0.24867 0.19128-0.17215 0.55472-0.6121 1.91284-1.93195 3.02228-1.31984 1.07118-2.52493 1.39635-3.5196 1.39635-1.72154 0-3.74914-0.99467-3.74914-3.97867 0-1.09032 0.401696-4.18909 2.31451-6.42711 1.16683-1.35809 2.9649-2.31451 4.66731-2.31451 1.95108 0 3.07965 1.47286 3.07965 3.69174 0 0.76514-0.0574 0.78428-0.0574 0.97556s0.21042 0.19128 0.28693 0.19128c0.24867 0 0.24867-0.0382 0.3443-0.38256z" stroke-linejoin="round" stroke-miterlimit="1e5" stroke-width="1.33333"/></g></svg>
