<?xml version="1.0" encoding="UTF-8"?>
<svg width="172.845" height="140.761" version="1.1" viewBox="0 0 172.84497 140.76144" xmlns="http://www.w3.org/2000/svg"><defs><marker id="marker2152" overflow="visible" orient="auto"><path transform="matrix(-.8 0 0 -.8 -10 0)" d="m0 0 5-5-17.5 5 17.5 5z" fill-rule="evenodd" stroke="#000" stroke-width="1pt"/></marker><marker id="marker2276" overflow="visible" orient="auto"><path transform="matrix(-.8 0 0 -.8 -10 0)" d="m0 0 5-5-17.5 5 17.5 5z" fill-rule="evenodd" stroke="#000" stroke-width="1pt"/></marker><marker id="marker1570" overflow="visible" orient="auto"><path transform="matrix(-.8 0 0 -.8 -10 0)" d="m0 0 5-5-17.5 5 17.5 5z" fill="#00f" fill-rule="evenodd" stroke="#00f" stroke-width="1pt"/></marker><marker id="marker1818" overflow="visible" orient="auto"><path transform="matrix(-.8 0 0 -.8 -10 0)" d="m0 0 5-5-17.5 5 17.5 5z" fill="#00f" fill-rule="evenodd" stroke="#00f" stroke-width="1pt"/></marker><marker id="marker7518" overflow="visible" orient="auto"><path transform="matrix(-.8 0 0 -.8 -10 0)" d="m0 0 5-5-17.5 5 17.5 5z" fill="#f00" fill-rule="evenodd" stroke="#f00" stroke-width="1pt"/></marker><marker id="marker2816" overflow="visible" orient="auto"><path transform="matrix(-.8 0 0 -.8 -10 0)" d="m0 0 5-5-17.5 5 17.5 5z" fill="#f00" fill-rule="evenodd" stroke="#f00" stroke-width="1pt"/></marker><marker id="marker2946" overflow="visible" orient="auto"><path transform="matrix(-.8 0 0 -.8 -10 0)" d="m0 0 5-5-17.5 5 17.5 5z" fill="#f00" fill-rule="evenodd" stroke="#f00" stroke-width="1pt"/></marker><marker id="marker2556" overflow="visible" orient="auto"><path transform="matrix(-.8 0 0 -.8 -10 0)" d="m0 0 5-5-17.5 5 17.5 5z" fill="#f00" fill-rule="evenodd" stroke="#f00" stroke-width="1pt"/></marker></defs><g transform="translate(-19.2918 -265.503)"><g fill="none"><path d="m20.2294 381.578c1.14818 2.07776 3.35713 3.48047 5.9082 3.48047h28.7715c2.55107 0 4.76198-1.40271 5.91016-3.48047" stroke="#00f" stroke-linejoin="round" stroke-miterlimit="100"/><path d="m64.7997 381.578c1.14818 2.07776 3.35713 3.48047 5.9082 3.48047h64.1133c2.55107 0 4.76002-1.40271 5.90821-3.48047" stroke="#f90000" stroke-linejoin="round" stroke-miterlimit="100"/><path d="m69.229 366.584v-77.7074" marker-end="url(#marker2152)" stroke="#000" stroke-miterlimit="1e5" stroke-width="1px"/><g stroke-miterlimit="100"><path d="m69.229 366.584h77.7074" marker-end="url(#marker2276)" stroke="#000"/><path d="m48.2467 379.239c19.0073-37.4581 38.0139-74.9149 57.0199-112.37" marker-end="url(#marker1570)" stroke="#00f" stroke-width=".5"/><path d="m26.764 379.239c19.0073-37.4581 38.0139-74.9149 57.0199-112.37" marker-end="url(#marker1818)" stroke="#00f" stroke-width=".5"/></g><g stroke="#f00" stroke-miterlimit="100" stroke-width=".5"><path d="m69.7295 379.239c19.0073-37.4581 38.0139-74.9149 57.0199-112.37" marker-end="url(#marker7518)"/><path d="m91.2121 379.239c19.0073-37.4581 38.0139-74.9149 57.0199-112.37" marker-end="url(#marker2816)"/><path d="m112.695 379.239c19.0073-37.4581 38.0139-74.9149 57.0199-112.37" marker-end="url(#marker2946)"/><path d="m134.178 379.239c19.0073-37.4581 38.0139-74.9149 57.0199-112.37" marker-end="url(#marker2556)"/></g></g><g stroke-linejoin="round" stroke-miterlimit="1e5" stroke-width="1.33333"><path d="m156.868 371.834c1.28158 0 2.52492-0.11472 3.32832-0.38256 1.6259-0.55472 1.89369-1.64502 1.89369-2.25714 0-1.10944-1.05206-1.83632-2.62057-1.83632-3.46223 0-5.91064 2.39104-5.91064 5.35592 0 2.19975 1.47288 3.44309 3.9978 3.44309 0.49735 0 1.81719-0.0192 2.96488-0.45907 1.10944-0.43995 1.87458-1.22421 1.87458-1.45376 0-0.15296-0.30605-0.49733-0.47821-0.49733-0.11477 0-0.15302 0.0574-0.28693 0.21042-1.03291 1.0903-2.52492 1.51112-4.01692 1.51112-1.37724 0-1.87458-0.76512-1.87458-1.85544 0-0.36343 0.0765-0.99466 0.28693-1.77893zm-0.66949-0.68861c0.3443-1.39637 0.80337-1.91283 1.12856-2.21888 0.66949-0.66949 1.54939-0.8799 2.14237-0.8799 0.68862 0 1.47288 0.30605 1.47288 1.16683 0 1.93195-2.88837 1.93195-4.74381 1.93195z"/><path d="m166.546 377.454c-0.13391 0.45525-0.57576 1.17829-1.25864 1.17829-0.0402 0-0.44188 0-0.72306-0.18746 0.54898-0.17406 0.58915-0.65609 0.58915-0.73643 0-0.29458-0.22763-0.49542-0.53559-0.49542-0.37491 0-0.76322 0.32136-0.76322 0.81678 0 0.66949 0.74983 0.97746 1.40593 0.97746 0.61592 0 1.16491-0.38831 1.49965-0.95069 0.32136 0.70966 1.05779 0.95069 1.59339 0.95069 1.53983 0 2.35661-1.67373 2.35661-2.04864 0-0.17407-0.17408-0.17407-0.21424-0.17407-0.18746 0-0.20085 0.0669-0.25442 0.22762-0.28118 0.9239-1.08456 1.62016-1.8344 1.62016-0.53558 0-0.81676-0.36152-0.81676-0.87034 0-0.34813 0.32134-1.56659 0.69627-3.05286 0.26779-1.03101 0.87033-1.36576 1.31219-1.36576 0.0268 0 0.44187 0 0.72306 0.18745-0.42848 0.12048-0.58916 0.49543-0.58916 0.73645 0 0.29458 0.22762 0.49541 0.53559 0.49541s0.74982-0.2544 0.74982-0.81677c0-0.74982-0.85694-0.97745-1.39253-0.97745-0.66948 0-1.20508 0.44185-1.49966 0.95067-0.24101-0.54898-0.85694-0.95067-1.60677-0.95067-1.49966 0-2.3566 1.64694-2.3566 2.04864 0 0.17406 0.18745 0.17406 0.22762 0.17406 0.17407 0 0.18746-0.0536 0.25441-0.22763 0.33475-1.0444 1.1783-1.62016 1.8344-1.62016 0.44187 0 0.80339 0.24102 0.80339 0.88373 0 0.26779-0.16067 0.93728-0.28119 1.39254z"/><path d="m50.5892 283.834c1.28158 0 2.52493-0.11472 3.32832-0.38256 1.6259-0.55472 1.89369-1.64503 1.89369-2.25714 0-1.10944-1.05206-1.83632-2.62057-1.83632-3.46223 0-5.91064 2.39104-5.91064 5.35592 0 2.19975 1.47288 3.44309 3.99781 3.44309 0.49734 0 1.81718-0.0192 2.96488-0.45907 1.10944-0.43995 1.87457-1.22421 1.87457-1.45376 0-0.15296-0.30605-0.49733-0.47821-0.49733-0.11476 0-0.15302 0.0574-0.28692 0.21042-1.03292 1.0903-2.52493 1.51112-4.01693 1.51112-1.37723 0-1.87458-0.76512-1.87458-1.85544 0-0.36343 0.0765-0.99466 0.28693-1.77893zm-0.66949-0.68861c0.3443-1.39637 0.80338-1.91283 1.12856-2.21888 0.66949-0.66949 1.54939-0.8799 2.14237-0.8799 0.68862 0 1.47288 0.30604 1.47288 1.16683 0 1.93195-2.88837 1.93195-4.74381 1.93195z"/><path d="m60.2254 285.584h1.36576c0.2544 0 0.42847 0 0.42847-0.29457 0-0.18746-0.17407-0.18746-0.40168-0.18746h-1.27203l0.49542-1.9817c0.0134-0.0669 0.0402-0.13392 0.0402-0.18745 0-0.24103-0.18746-0.42848-0.45525-0.42848-0.33475 0-0.5356 0.22763-0.62933 0.57576-0.0937 0.33475 0.0804-0.30795-0.5088 2.02187h-1.36576c-0.25441 0-0.42847 0-0.42847 0.29458 0 0.18745 0.16067 0.18745 0.40169 0.18745h1.27203l-0.79 3.15999c-0.0803 0.33475-0.20084 0.81676-0.20084 0.99084 0 0.79 0.66948 1.27204 1.4327 1.27204 1.48627 0 2.32982-1.87458 2.32982-2.04864 0-0.17407-0.17406-0.17407-0.21422-0.17407-0.16069 0-0.17408 0.0267-0.2812 0.2544-0.37491 0.84355-1.05779 1.59338-1.79423 1.59338-0.28118 0-0.46864-0.17407-0.46864-0.6561 0-0.13392 0.0536-0.41509 0.0803-0.54897z"/></g><g stroke-linejoin="round" stroke-miterlimit="1e5" stroke-width="1.33333"><path d="m40.4149 389.888c0-0.36344-0.26779-0.68863-0.72687-0.68863-0.43995 0-1.0138 0.43996-1.0138 1.01381 0 0.38256 0.26779 0.68861 0.70774 0.68861 0.51646 0 1.03293-0.49733 1.03293-1.01379zm-3.84479 12.9116c-0.36344 1.45375-1.28158 2.54407-2.35277 2.54407-0.11477 0-0.40169 0-0.746-0.17216 0.57385-0.13392 0.86077-0.63124 0.86077-1.01379 0-0.30607-0.21041-0.66951-0.72687-0.66951-0.47821 0-1.03293 0.4017-1.03293 1.09032 0 0.76514 0.76513 1.18595 1.68329 1.18595 1.33898 0 3.11791-1.01379 3.59611-2.9075l1.7598-7.00095c0.0956-0.38256 0.0956-0.65035 0.0956-0.70774 0-1.0903-0.80339-1.75979-1.75979-1.75979-1.95109 0-3.04141 2.7736-3.04141 2.94574 0 0.19128 0.1913 0.19128 0.22956 0.19128 0.17214 0 0.19128-0.0192 0.3443-0.38256 0.47821-1.16683 1.35811-2.33365 2.41016-2.33365 0.26779 0 0.6121 0.0765 0.6121 0.87991 0 0.43995-0.0574 0.65035-0.13389 0.97553z" fill="#00f"/><path d="m44.003 403.293c-0.1339 0.45525-0.57576 1.17829-1.25864 1.17829-0.0402 0-0.44187 0-0.72306-0.18746 0.54898-0.17406 0.58916-0.65609 0.58916-0.73643 0-0.29458-0.22764-0.49542-0.5356-0.49542-0.37491 0-0.76321 0.32136-0.76321 0.81678 0 0.66949 0.74982 0.97746 1.40593 0.97746 0.61592 0 1.16491-0.38831 1.49964-0.95069 0.32136 0.70966 1.0578 0.95069 1.5934 0.95069 1.53982 0 2.3566-1.67373 2.3566-2.04864 0-0.17407-0.17408-0.17407-0.21424-0.17407-0.18745 0-0.20084 0.0669-0.25441 0.22762-0.28119 0.9239-1.08456 1.62016-1.8344 1.62016-0.53559 0-0.81677-0.36152-0.81677-0.87034 0-0.34813 0.32134-1.56659 0.69627-3.05286 0.26779-1.03101 0.87034-1.36576 1.31219-1.36576 0.0268 0 0.44188 0 0.72306 0.18745-0.42848 0.12048-0.58915 0.49543-0.58915 0.73645 0 0.29458 0.22761 0.49541 0.53558 0.49541s0.74983-0.2544 0.74983-0.81677c0-0.74982-0.85695-0.97745-1.39253-0.97745-0.66949 0-1.20509 0.44185-1.49967 0.95067-0.241-0.54898-0.85694-0.95067-1.60676-0.95067-1.49967 0-2.35661 1.64694-2.35661 2.04864 0 0.17406 0.18746 0.17406 0.22763 0.17406 0.17406 0 0.18745-0.0536 0.2544-0.22763 0.33475-1.0444 1.1783-1.62016 1.8344-1.62016 0.44187 0 0.80339 0.24102 0.80339 0.88373 0 0.26779-0.16067 0.93728-0.28118 1.39254z" fill="#00f"/><path d="m98.3074 404.942c-0.0574 0.22955-0.0574 0.26781-0.0574 0.30607 0 0.28691 0.21042 0.51646 0.5356 0.51646 0.40169 0 0.63123-0.34432 0.66948-0.4017 0.0956-0.17216 0.70775-2.73534 1.22421-4.8012 0.38256 0.76514 0.99467 1.2816 1.8937 1.2816 2.23801 0 4.70555-2.69708 4.70555-5.5472 0-2.0276-1.26246-3.1179-2.65882-3.1179-1.85545 0-3.86392 1.91281-4.43776 4.24646zm4.24648-3.5196c-1.33898 0-1.64504-1.53026-1.64504-1.70241 0-0.0765 0.0957-0.45908 0.15302-0.70775 0.5356-2.14237 0.72688-2.83097 1.1477-3.59611 0.82253-1.39637 1.77894-1.81718 2.37192-1.81718 0.70774 0 1.31984 0.55472 1.31984 1.87457 0 1.05205-0.55472 3.19442-1.07119 4.1317-0.63123 1.20508-1.54939 1.81718-2.27625 1.81718z" fill="#f00"/></g></g></svg>
