<?xml version="1.0" encoding="UTF-8"?>
<svg width="126.429" height="132.061" version="1.1" viewBox="0 0 126.42905 132.06149" xmlns="http://www.w3.org/2000/svg"><defs><marker id="marker4929" overflow="visible" orient="auto"><path transform="matrix(.4 0 0 .4 4 0)" d="m0 0 5-5-17.5 5 17.5 5z" fill="#555" fill-rule="evenodd" stroke="#555" stroke-width="1pt"/></marker><marker id="marker4975" overflow="visible" orient="auto"><path transform="matrix(-.4 0 0 -.4 -4 0)" d="m0 0 5-5-17.5 5 17.5 5z" fill="#555" fill-rule="evenodd" stroke="#555" stroke-width="1pt"/></marker></defs><g transform="translate(26.0717 -258.425)" shape-rendering="auto"><g fill="none" stroke="#555"><path d="m34.8709 375.18v9.93365" color="#000000" color-rendering="auto" image-rendering="auto" solid-color="#000000" stroke-width="3.09846" style="isolation:auto;mix-blend-mode:normal"/><path d="m40.1891 370.308v19.6783" color="#000000" color-rendering="auto" image-rendering="auto" solid-color="#000000" stroke-width="1.54923" style="isolation:auto;mix-blend-mode:normal"/><path d="m40.3986 379.967h58.9588v-60.5077h-23.5762m-77.2168 0h-23.6361v60.5077h59.2923" color="#000000" color-rendering="auto" image-rendering="auto" solid-color="#000000" style="isolation:auto;mix-blend-mode:normal"/></g><g><circle cx="83.948" cy="334.167" r="4.92996" color="#000000" color-rendering="auto" fill="#f00" image-rendering="auto" solid-color="#000000" style="isolation:auto;mix-blend-mode:normal"/><path d="m83.9532 329.734c-0.348128 0-0.788595 0.33315-0.892578 0.60351s-0.07813 0.43233-0.07813 0.50977v2.34766h-2.34766c-0.07744 0-0.239398-0.0259-0.509766 0.0781-0.270367 0.10399-0.605468 0.54641-0.605469 0.89453 0 0.34812 0.335099 0.7886 0.605469 0.89258 0.270371 0.10398 0.432344 0.0781 0.509766 0.0781h2.34766v2.34766c0 0.0774-0.02585 0.23941 0.07813 0.50977 0.103978 0.27035 0.544439 0.60547 0.892578 0.60546 0.34814 0 0.790553-0.33511 0.894532-0.60546 0.103978-0.27036 0.07617-0.43233 0.07617-0.50977v-2.34766h2.33789c0.07744 0 0.239405 0.0259 0.509766-0.0781 0.270361-0.10398 0.605468-0.54445 0.605468-0.89258s-0.335111-0.79054-0.605468-0.89453c-0.270358-0.10399-0.432313-0.0781-0.509766-0.0781h-2.33789v-2.34766c0-0.0774 0.02781-0.23941-0.07617-0.50977-0.103983-0.27036-0.546403-0.60351-0.894532-0.60351z" color="#000000" color-rendering="auto" fill="#fff" image-rendering="auto" solid-color="#000000" style="isolation:auto;mix-blend-mode:normal;text-decoration-color:#000000;text-decoration-line:none;text-decoration-style:solid;text-indent:0;text-transform:none;white-space:normal"/><circle cx="83.948" cy="273.641" r="4.92996" color="#000000" color-rendering="auto" fill="#f00" image-rendering="auto" solid-color="#000000" style="isolation:auto;mix-blend-mode:normal"/><path d="m83.9532 269.208c-0.348128 0-0.788595 0.33315-0.892578 0.60351s-0.07813 0.43233-0.07813 0.50977v2.34766h-2.34766c-0.07744 0-0.239398-0.0259-0.509766 0.0781-0.270367 0.10399-0.605468 0.54641-0.605469 0.89453 0 0.34812 0.335099 0.7886 0.605469 0.89258 0.270371 0.10398 0.432344 0.0781 0.509766 0.0781h2.34766v2.34766c0 0.0774-0.02585 0.23941 0.07813 0.50977 0.103978 0.27035 0.544439 0.60547 0.892578 0.60546 0.34814 0 0.790553-0.33511 0.894532-0.60546 0.103978-0.27036 0.07617-0.43233 0.07617-0.50977v-2.34766h2.33789c0.07744 0 0.239405 0.0259 0.509766-0.0781 0.270361-0.10398 0.605468-0.54445 0.605468-0.89258s-0.335111-0.79054-0.605468-0.89453c-0.270358-0.10399-0.432313-0.0781-0.509766-0.0781h-2.33789v-2.34766c0-0.0774 0.02781-0.23941-0.07617-0.50977-0.103983-0.27036-0.546403-0.60351-0.894532-0.60351z" color="#000000" color-rendering="auto" fill="#fff" image-rendering="auto" solid-color="#000000" style="isolation:auto;mix-blend-mode:normal;text-decoration-color:#000000;text-decoration-line:none;text-decoration-style:solid;text-indent:0;text-transform:none;white-space:normal"/><circle cx="83.948" cy="303.904" r="4.92996" color="#000000" color-rendering="auto" fill="#f00" image-rendering="auto" solid-color="#000000" style="isolation:auto;mix-blend-mode:normal"/><path d="m83.9532 299.471c-0.348128 0-0.788595 0.33315-0.892578 0.60351s-0.07813 0.43233-0.07813 0.50977v2.34766h-2.34766c-0.07744 0-0.239398-0.0259-0.509766 0.0781-0.270367 0.10399-0.605468 0.54641-0.605469 0.89453 0 0.34812 0.335099 0.7886 0.605469 0.89258 0.270371 0.10398 0.432344 0.0781 0.509766 0.0781h2.34766v2.34766c0 0.0774-0.02585 0.23941 0.07813 0.50977 0.103978 0.27035 0.544439 0.60547 0.892578 0.60546 0.34814 0 0.790553-0.33511 0.894532-0.60546 0.103978-0.27036 0.07617-0.43233 0.07617-0.50977v-2.34766h2.33789c0.07744 0 0.239405 0.0259 0.509766-0.0781 0.270361-0.10398 0.605468-0.54445 0.605468-0.89258s-0.335111-0.79054-0.605468-0.89453c-0.270358-0.10399-0.432313-0.0781-0.509766-0.0781h-2.33789v-2.34766c0-0.0774 0.02781-0.23941-0.07617-0.50977-0.103983-0.27036-0.546403-0.60351-0.894532-0.60351z" color="#000000" color-rendering="auto" fill="#fff" image-rendering="auto" solid-color="#000000" style="isolation:auto;mix-blend-mode:normal;text-decoration-color:#000000;text-decoration-line:none;text-decoration-style:solid;text-indent:0;text-transform:none;white-space:normal"/><circle cx="-9.66223" cy="334.167" r="4.92996" color="#000000" color-rendering="auto" fill="#00f" image-rendering="auto" solid-color="#000000" style="isolation:auto;mix-blend-mode:normal"/><path d="m-10.6276 333.195h-2.34766c-0.0774 0-0.2394-0.0259-0.50976 0.0781-0.27037 0.10399-0.60547 0.54641-0.60547 0.89453s0.3351 0.7886 0.60547 0.89258 0.43234 0.0781 0.50976 0.0781h6.62696c0.0774 0 0.2394 0.0259 0.50976-0.0781 0.27037-0.10398 0.60547-0.54445 0.60547-0.89258s-0.33511-0.79054-0.60547-0.89453c-0.27035-0.10399-0.43231-0.0781-0.50976-0.0781h-2.33789z" color="#000000" color-rendering="auto" fill="#fff" image-rendering="auto" solid-color="#000000" style="isolation:auto;mix-blend-mode:normal;text-decoration-color:#000000;text-decoration-line:none;text-decoration-style:solid;text-indent:0;text-transform:none;white-space:normal"/><circle cx="-9.66223" cy="273.641" r="4.92996" color="#000000" color-rendering="auto" fill="#00f" image-rendering="auto" solid-color="#000000" style="isolation:auto;mix-blend-mode:normal"/><path d="m-10.6276 272.669h-2.34766c-0.0774 0-0.2394-0.0259-0.50976 0.0781-0.27037 0.10399-0.60547 0.54641-0.60547 0.89453s0.3351 0.7886 0.60547 0.89258 0.43234 0.0781 0.50976 0.0781h6.62696c0.0774 0 0.2394 0.0259 0.50976-0.0781 0.27037-0.10398 0.60547-0.54445 0.60547-0.89258s-0.33511-0.79054-0.60547-0.89453c-0.27035-0.10399-0.43231-0.0781-0.50976-0.0781h-2.33789z" color="#000000" color-rendering="auto" fill="#fff" image-rendering="auto" solid-color="#000000" style="isolation:auto;mix-blend-mode:normal;text-decoration-color:#000000;text-decoration-line:none;text-decoration-style:solid;text-indent:0;text-transform:none;white-space:normal"/><circle cx="-9.66223" cy="303.904" r="4.92996" color="#000000" color-rendering="auto" fill="#00f" image-rendering="auto" solid-color="#000000" style="isolation:auto;mix-blend-mode:normal"/><path d="m-10.6276 302.932h-2.34766c-0.0774 0-0.2394-0.0259-0.50976 0.0781-0.27037 0.10399-0.60547 0.54641-0.60547 0.89453s0.3351 0.7886 0.60547 0.89258 0.43234 0.0781 0.50976 0.0781h6.62696c0.0774 0 0.2394 0.0259 0.50976-0.0781 0.27037-0.10398 0.60547-0.54445 0.60547-0.89258s-0.33511-0.79054-0.60547-0.89453c-0.27035-0.10399-0.43231-0.0781-0.50976-0.0781h-2.33789z" color="#000000" color-rendering="auto" fill="#fff" image-rendering="auto" solid-color="#000000" style="isolation:auto;mix-blend-mode:normal;text-decoration-color:#000000;text-decoration-line:none;text-decoration-style:solid;text-indent:0;text-transform:none;white-space:normal"/><circle cx="-9.66223" cy="303.904" r="4.92996" color="#000000" color-rendering="auto" fill="#00f" image-rendering="auto" solid-color="#000000" style="isolation:auto;mix-blend-mode:normal"/><path d="m-10.6276 302.932h-2.34766c-0.0774 0-0.2394-0.0259-0.50976 0.0781-0.27037 0.10399-0.60547 0.54641-0.60547 0.89453s0.3351 0.7886 0.60547 0.89258 0.43234 0.0781 0.50976 0.0781h6.62696c0.0774 0 0.2394 0.0259 0.50976-0.0781 0.27037-0.10398 0.60547-0.54445 0.60547-0.89258s-0.33511-0.79054-0.60547-0.89453c-0.27035-0.10399-0.43231-0.0781-0.50976-0.0781h-2.33789z" color="#000000" color-rendering="auto" fill="#fff" image-rendering="auto" solid-color="#000000" style="isolation:auto;mix-blend-mode:normal;text-decoration-color:#000000;text-decoration-line:none;text-decoration-style:solid;text-indent:0;text-transform:none;white-space:normal"/><circle cx="-9.66223" cy="303.904" r="4.92996" color="#000000" color-rendering="auto" fill="#00f" image-rendering="auto" solid-color="#000000" style="isolation:auto;mix-blend-mode:normal"/><path d="m-10.6276 302.932h-2.34766c-0.0774 0-0.2394-0.0259-0.50976 0.0781-0.27037 0.10399-0.60547 0.54641-0.60547 0.89453s0.3351 0.7886 0.60547 0.89258 0.43234 0.0781 0.50976 0.0781h6.62696c0.0774 0 0.2394 0.0259 0.50976-0.0781 0.27037-0.10398 0.60547-0.54445 0.60547-0.89258s-0.33511-0.79054-0.60547-0.89453c-0.27035-0.10399-0.43231-0.0781-0.50976-0.0781h-2.33789z" color="#000000" color-rendering="auto" fill="#fff" image-rendering="auto" solid-color="#000000" style="isolation:auto;mix-blend-mode:normal;text-decoration-color:#000000;text-decoration-line:none;text-decoration-style:solid;text-indent:0;text-transform:none;white-space:normal"/></g><g fill="none"><path d="m-0.23228 266.711v74.3856" color="#000000" color-rendering="auto" image-rendering="auto" solid-color="#000000" stroke="#5a5a5a" stroke-linejoin="round" stroke-miterlimit="100" stroke-width="5" style="isolation:auto;mix-blend-mode:normal"/><path d="m74.518 266.711v74.3856" color="#000000" color-rendering="auto" image-rendering="auto" solid-color="#000000" stroke="#5a5a5a" stroke-linejoin="round" stroke-miterlimit="100" stroke-width="5" style="isolation:auto;mix-blend-mode:normal"/><path d="m69.7991 320.032c-21.6042 3.8094-43.7083 3.8094-65.3124 0" color="#000000" color-rendering="auto" image-rendering="auto" marker="none" marker-end="url(#marker4975)" marker-start="url(#marker4929)" solid-color="#000000" stroke="#555" stroke-dasharray="2, 2" style="isolation:auto;mix-blend-mode:normal"/><path d="m28.3311 258.96-4.53692 63.9203" color="#000000" color-rendering="auto" image-rendering="auto" solid-color="#000000" stroke="#555" style="isolation:auto;mix-blend-mode:normal"/></g><circle transform="rotate(4.05992)" cx="46.5943" cy="320.385" r="8.48528" color="#000000" color-rendering="auto" fill="#5a5a5a" image-rendering="auto" solid-color="#000000" stroke="#5a5a5a" stroke-linejoin="round" stroke-miterlimit="100" stroke-width="3" style="isolation:auto;mix-blend-mode:normal"/></g></svg>
