<?xml version="1.0" encoding="UTF-8"?>
<svg width="144.755" height="117.485" version="1.1" viewBox="0 0 144.75485 117.48496" xmlns="http://www.w3.org/2000/svg"><g transform="translate(-33.3369 -274.284)"><path d="m33.8369 302.103h143.755" fill="none" stroke="#000" stroke-miterlimit="100" stroke-width="2.1"/><g fill="#f44"><circle cx="59.7912" cy="340.753" r="7.64412" color="#000000" color-rendering="auto" image-rendering="auto" shape-rendering="auto" solid-color="#000000" style="isolation:auto;mix-blend-mode:normal"/><path d="m59.7907 349.805a13.3338 13.3338 0 0 0 -13.333 13.3341h26.6671a13.3338 13.3338 0 0 0 -13.3341 -13.3341z" color="#000000" color-rendering="auto" image-rendering="auto" shape-rendering="auto" solid-color="#000000" style="isolation:auto;mix-blend-mode:normal"/><path d="m43.2168 339.612c-0.018-0.054-0.09-0.198-0.09-0.252 0-0.018 0.018-0.036 0.324-0.27l1.746-1.368c2.412-1.872 3.204-2.502 4.446-2.61 0.126-0.018 0.306-0.018 0.306-0.324 0-0.108-0.054-0.198-0.198-0.198-0.198 0-0.414 0.036-0.612 0.036h-0.684c-0.558 0-1.152-0.036-1.692-0.036-0.126 0-0.342 0-0.342 0.324 0 0.18 0.126 0.198 0.234 0.198 0.198 0.018 0.432 0.09 0.432 0.342 0 0.36-0.54 0.792-0.684 0.9l-7.056 5.49 1.494-5.94c0.162-0.612 0.198-0.792 1.476-0.792 0.342 0 0.504 0 0.504-0.342 0-0.18-0.18-0.18-0.27-0.18-0.324 0-0.702 0.036-1.044 0.036h-2.124c-0.324 0-0.72-0.036-1.044-0.036-0.144 0-0.342 0-0.342 0.342 0 0.18 0.162 0.18 0.432 0.18 1.098 0 1.098 0.144 1.098 0.342 0 0.036 0 0.144-0.072 0.414l-2.43 9.684c-0.162 0.63-0.198 0.81-1.458 0.81-0.342 0-0.522 0-0.522 0.324 0 0.198 0.162 0.198 0.27 0.198 0.342 0 0.702-0.036 1.044-0.036h2.106c0.342 0 0.72 0.036 1.062 0.036 0.144 0 0.342 0 0.342-0.342 0-0.18-0.162-0.18-0.432-0.18-1.098 0-1.098-0.144-1.098-0.324 0-0.126 0.108-0.576 0.18-0.864l0.702-2.79 2.736-2.142c0.522 1.152 1.476 3.456 2.214 5.22 0.054 0.108 0.09 0.216 0.09 0.342 0 0.54-0.72 0.558-0.882 0.558s-0.342 0-0.342 0.342c0 0.18 0.198 0.18 0.252 0.18 0.63 0 1.296-0.036 1.926-0.036h0.864c0.27 0 0.576 0.036 0.846 0.036 0.108 0 0.306 0 0.306-0.342 0-0.18-0.162-0.18-0.342-0.18-0.666-0.018-0.9-0.162-1.17-0.81z"/></g><circle cx="121.03" cy="340.753" r="7.64412" color="#000000" color-rendering="auto" fill="#44f" image-rendering="auto" shape-rendering="auto" solid-color="#000000" style="isolation:auto;mix-blend-mode:normal"/><path d="m121.03 349.805a13.3338 13.3338 0 0 0 -13.333 13.3341h26.6671a13.3338 13.3338 0 0 0 -13.3341 -13.3341z" color="#000000" color-rendering="auto" fill="#44f" image-rendering="auto" shape-rendering="auto" solid-color="#000000" style="isolation:auto;mix-blend-mode:normal"/><g fill="#00f" stroke-linejoin="round" stroke-miterlimit="1e5"><path d="m100.456 339.612c-0.018-0.054-0.09-0.198-0.09-0.252 0-0.018 0.018-0.036 0.324-0.27l1.746-1.368c2.412-1.872 3.204-2.502 4.446-2.61 0.126-0.018 0.306-0.018 0.306-0.324 0-0.108-0.054-0.198-0.198-0.198-0.198 0-0.414 0.036-0.612 0.036h-0.684c-0.558 0-1.152-0.036-1.692-0.036-0.126 0-0.342 0-0.342 0.324 0 0.18 0.126 0.198 0.234 0.198 0.198 0.018 0.432 0.09 0.432 0.342 0 0.36-0.54 0.792-0.684 0.9l-7.056 5.49 1.494-5.94c0.162-0.612 0.198-0.792 1.476-0.792 0.342 0 0.503996 0 0.503996-0.342 0-0.18-0.179996-0.18-0.269996-0.18-0.324 0-0.702 0.036-1.044 0.036h-2.124c-0.324 0-0.72-0.036-1.044-0.036-0.144 0-0.342 0-0.342 0.342 0 0.18 0.162 0.18 0.432 0.18 1.098 0 1.098 0.144 1.098 0.342 0 0.036 0 0.144-0.072 0.414l-2.43 9.684c-0.162 0.63-0.198 0.81-1.458 0.81-0.342 0-0.522 0-0.522 0.324 0 0.198 0.162 0.198 0.27 0.198 0.342 0 0.702-0.036 1.044-0.036h2.106c0.342 0 0.72 0.036 1.062 0.036 0.144 0 0.342 0 0.342-0.342 0-0.18-0.162-0.18-0.432-0.18-1.098 0-1.098-0.144-1.098-0.324 0-0.126 0.108-0.576 0.18-0.864l0.702-2.79 2.736-2.142c0.522 1.152 1.476 3.456 2.214 5.22 0.054 0.108 0.09 0.216 0.09 0.342 0 0.54-0.72 0.558-0.882 0.558s-0.342 0-0.342 0.342c0 0.18 0.198 0.18 0.252 0.18 0.63 0 1.296-0.036 1.926-0.036h0.864c0.27 0 0.576 0.036 0.846 0.036 0.108 0 0.306 0 0.306-0.342 0-0.18-0.162-0.18-0.342-0.18-0.666-0.018-0.9-0.162-1.17-0.81z" stroke-width="1.5"/><path d="m110.923 333.764c0.06-0.156 0.108-0.24 0.108-0.36 0-0.396-0.36-0.66-0.696-0.66-0.48 0-0.612 0.42-0.66 0.588l-1.524 5.172c-0.048 0.144-0.048 0.18-0.048 0.192 0 0.108 0.072 0.132 0.192 0.168 0.216 0.096 0.24 0.096 0.264 0.096 0.036 0 0.108 0 0.192-0.204z" stroke-width="1.5"/><path d="m136.96 348.733h23.7146l-0.50753-4.30453 9.95672 6.02637-9.95672 6.02637 0.50753-4.30456h-23.7146v-3.44365" clip-path="url(#p2985508f7a)"/></g><g stroke-linejoin="round"><path d="m146.523 302.588-13.365-10.5142 2.29079 6.30597h-70.5433v8.41641h70.5433l-2.29079 6.30596z" color="#000000" color-rendering="auto" fill="#fff" image-rendering="auto" shape-rendering="auto" solid-color="#000000" stroke="#00f" stroke-miterlimit="100" stroke-width="1.5" style="isolation:auto;mix-blend-mode:normal;text-decoration-color:#000000;text-decoration-line:none;text-decoration-style:solid;text-indent:0;text-transform:none;white-space:normal"/><g stroke-miterlimit="1e5"><path d="m110.152 275.702c0-0.51647-0.38258-0.91816-0.9373-0.91816-0.70774 0-1.35809 0.66948-1.35809 1.31985 0 0.51647 0.40168 0.91816 0.93728 0.91816 0.72688 0 1.35811-0.66949 1.35811-1.31985zm-4.70557 13.2368c-0.30605 1.24333-1.20507 2.2954-2.21888 2.2954-0.0957 0-0.19128 0-0.30605-0.0382 0.66949-0.42084 0.66949-1.09032 0.66949-1.1477 0-0.42083-0.32517-0.8799-0.95642-0.8799-0.66948 0-1.35811 0.57384-1.35811 1.39636 0 0.78426 0.76514 1.3581 1.95109 1.3581 1.20509 0 3.76827-0.59298 4.36125-2.984l1.75981-7.00094c0.0574-0.21042 0.0957-0.38258 0.0957-0.65037 0-1.22421-1.22421-1.87458-2.41016-1.87458-2.27626 0-3.57698 2.65883-3.57698 2.98402 0 0.26779 0.28691 0.26779 0.45907 0.26779 0.32519 0 0.34431-0.0192 0.47821-0.30605 0.72688-1.64502 1.79806-2.25713 2.54406-2.25713 0.19128 0 0.45908 0.0382 0.45908 0.70774 0 0.36344-0.0574 0.57386-0.11472 0.82251z" fill="#00f"/><g stroke-width="1.33333"><path d="m98.0194 390.447c-0.05739 0.22955-0.05739 0.26781-0.05739 0.30607 0 0.28691 0.210411 0.51646 0.535592 0.51646 0.401693 0 0.631232-0.34432 0.669488-0.4017 0.09565-0.17216 0.707744-2.73534 1.22421-4.8012 0.38256 0.76514 0.99467 1.2816 1.8937 1.2816 2.23801 0 4.70555-2.69709 4.70555-5.5472 0-2.0276-1.26247-3.1179-2.65882-3.1179-1.85545 0-3.86392 1.91281-4.43776 4.24646zm4.24648-3.5196c-1.33898 0-1.64504-1.53026-1.64504-1.70241 0-0.0765 0.0957-0.45908 0.15302-0.70775 0.5356-2.14237 0.72688-2.83097 1.1477-3.59611 0.82252-1.39637 1.77894-1.81718 2.37192-1.81718 0.70774 0 1.31984 0.55472 1.31984 1.87457 0 1.05205-0.55472 3.19442-1.07119 4.1317-0.63123 1.20508-1.54939 1.81718-2.27625 1.81718z"/><path d="m111.124 372.92c0.10712-0.22762 0.12051-0.33474 0.12051-0.42847 0-0.41508-0.37491-0.73644-0.79-0.73644-0.50881 0-0.66948 0.41508-0.73644 0.62932l-1.76745 5.79778c-0.0134 0.0267-0.0669 0.20085-0.0669 0.21424 0 0.16067 0.41509 0.29458 0.5222 0.29458 0.0937 0 0.10712-0.0267 0.20085-0.22764z"/><path d="m129.972 374.188c0.15302-0.26779 0.15302-0.30605 0.15302-0.36344 0-0.13392-0.11477-0.38256-0.38257-0.38256-0.22954 0-0.28692 0.11472-0.42082 0.38256l-8.58859 16.699c-0.15303 0.26781-0.15303 0.30607-0.15303 0.36344 0 0.15296 0.13389 0.38258 0.38256 0.38258 0.22954 0 0.28693-0.11472 0.42084-0.38258z"/><path d="m131.062 380.883c0.28693 0 0.65037 0 0.65037-0.38256s-0.36344-0.38257-0.63123-0.38257h-11.4578c-0.2678 0-0.63124 0-0.63124 0.38257 0 0.38258 0.36344 0.38256 0.65037 0.38256zm0.0191 3.71088c0.26779 0 0.63123 0 0.63123-0.38256s-0.36344-0.38256-0.65037-0.38256h-11.4196c-0.28693 0-0.65037 0-0.65037 0.38256s0.36344 0.38256 0.63124 0.38256z"/><path d="m146.854 381.016c0-1.53027-0.0957-3.06053-0.76514-4.47602-0.8799-1.83632-2.44841-2.14237-3.2518-2.14237-1.1477 0-2.54407 0.49733-3.32832 2.27626-0.61211 1.31986-0.70775 2.81186-0.70775 4.34213 0 1.43461 0.0765 3.15616 0.86077 4.6099 0.82253 1.54939 2.21888 1.93195 3.15618 1.93195 1.03292 0 2.48667-0.40168 3.32832-2.21888 0.61209-1.31984 0.70774-2.81185 0.70774-4.32297zm-4.03606 6.12104c-0.746 0-1.87458-0.47821-2.21888-2.31453-0.21042-1.1477-0.21042-2.90749-0.21042-4.03607 0-1.2242 0-2.48667 0.15302-3.51959 0.36344-2.27626 1.79807-2.44842 2.27628-2.44842 0.63123 0 1.89369 0.3443 2.25713 2.23802 0.19128 1.07118 0.19128 2.52492 0.19128 3.72999 0 1.43463 0 2.73535-0.21041 3.95956-0.28693 1.81718-1.37724 2.39104-2.238 2.39104z"/><path d="m154.512 383.14 0.746-8.7225c0-0.63123-0.51646-0.97553-1.01379-0.97553s-1.01381 0.3443-1.01381 0.97553l0.74602 8.70336c0.0191 0.28693 0.0383 0.43995 0.26779 0.43995 0.19128 0 0.24867-0.0957 0.26779-0.42081zm0.746 2.98401c0-0.55472-0.45907-1.0138-1.01379-1.0138s-1.01381 0.45908-1.01381 1.0138c0 0.55473 0.45909 1.0138 1.01381 1.0138s1.01379-0.45907 1.01379-1.0138z"/><path d="m161.375 382.375c0-2.41016 1.85546-3.76825 2.52495-4.2656 0.51646-0.38256 0.91814-1.07118 0.91814-1.87457 0-1.10944-0.76512-2.58231-3.61523-2.58231-2.06586 0-3.25181 1.30072-3.25181 2.54405 0 0.65037 0.43995 0.91816 0.87991 0.91816 0.53558 0 0.87988-0.38256 0.87988-0.8799 0-0.86077-0.80337-0.86077-1.07116-0.86077 0.59297-1.01379 1.70241-1.30072 2.50579-1.30072 2.08499 0 2.08499 1.30072 2.08499 2.04672 0 1.12858-0.30606 1.47288-0.65037 1.81718-1.26246 1.37725-1.68328 3.13704-1.68328 4.30387v0.86077c0 0.34431 0 0.45907 0.22954 0.45907 0.24865 0 0.24865-0.17214 0.24865-0.51646zm0.76514 3.74915c0-0.55472-0.45907-1.0138-1.01379-1.0138s-1.01381 0.45908-1.01381 1.0138c0 0.55473 0.45909 1.0138 1.01381 1.0138s1.01379-0.45907 1.01379-1.0138z"/></g></g></g></g></svg>
