<?xml version="1.0" encoding="UTF-8"?>
<svg width="213.749" height="81.0983" version="1.1" viewBox="0 0 213.74872 81.098297" xmlns="http://www.w3.org/2000/svg" xmlns:xlink="http://www.w3.org/1999/xlink"><defs><linearGradient id="linearGradient5868" x1="639.855" x2="639.855" y1="-234.945" y2="-247.945" gradientTransform="matrix(0 .740056 -.748387 0 -179.961 -177.053)" gradientUnits="userSpaceOnUse"><stop stop-color="#555" offset="0"/><stop stop-color="#fe9300" offset="1"/></linearGradient></defs><g transform="translate(32.5886 -269.62)"><path d="m55.4366 299.414c1e-5 1.12853-0.91351 2.04339-2.0404 2.04338-1.12688 0-2.04039-0.91486-2.04038-2.04338 1e-5 -1.12851 0.91352-2.04334 2.04038-2.04334 1.12687-1e-5 2.04039 0.91482 2.0404 2.04334zm10.8301-1.65375c1e-5 1.12853-0.91351 2.04338-2.04039 2.04338s-2.04039-0.91486-2.04038-2.04338c1e-5 -1.12851 0.91352-2.04334 2.04038-2.04334 1.12687 0 2.04038 0.91483 2.04039 2.04334zm9.32687-5.88488c1e-5 1.12853-0.91351 2.04339-2.0404 2.04338-1.12688 0-2.04039-0.91486-2.04038-2.04338 1e-5 -1.12851 0.91352-2.04334 2.04038-2.04334 1.12687-1e-5 2.04039 0.91482 2.0404 2.04334zm9.80622 3.27352c0 1.12852-0.91351 2.04337-2.04039 2.04337-1.12687 0-2.04038-0.91485-2.04038-2.04337 1e-5 -1.12851 0.91351-2.04335 2.04038-2.04335s2.04038 0.91483 2.04039 2.04335zm55.0611-1.16348c0 1.12852-0.91351 2.04337-2.04039 2.04337-1.12687 0-2.04038-0.91485-2.04038-2.04337 1e-5 -1.12851 0.91351-2.04335 2.04038-2.04335s2.04038 0.91483 2.04039 2.04335zm18.2279 2.47488c0 1.12852-0.91351 2.04337-2.04039 2.04337-1.12687 0-2.04038-0.91485-2.04038-2.04337 1e-5 -1.12851 0.91351-2.04335 2.04038-2.04335s2.04038 0.91483 2.04039 2.04335zm-11.5104 2.12132c0 1.12852-0.91351 2.04337-2.04039 2.04337-1.12687 0-2.04038-0.91485-2.04038-2.04337 1e-5 -1.12851 0.91351-2.04335 2.04038-2.04335s2.04038 0.91483 2.04039 2.04335zm-40.3051 0c0 1.12852-0.91351 2.04337-2.04039 2.04337-1.12687 0-2.04038-0.91485-2.04038-2.04337 1e-5 -1.12851 0.91351-2.04335 2.04038-2.04335s2.04038 0.91483 2.04039 2.04335zm13.5419 3.53553c0 1.12853-0.91352 2.04338-2.0404 2.04337-1.12687 0-2.04038-0.91485-2.04038-2.04337 1e-5 -1.12851 0.91351-2.04335 2.04038-2.04335 1.12687-1e-5 2.04039 0.91483 2.0404 2.04335zm9.31162-7.69915c0 1.12852-0.91351 2.04337-2.04039 2.04337s-2.04039-0.91485-2.04039-2.04337c1e-5 -1.12852 0.91352-2.04335 2.04039-2.04335s2.04038 0.91483 2.04039 2.04335z" color="#000000" color-rendering="auto" fill="#ffedd8" image-rendering="auto" shape-rendering="auto" solid-color="#000000" style="isolation:auto;mix-blend-mode:normal"/><rect x="-7.44767" y="271.12" width="187.108" height="50.6564" rx="19" ry="19" fill="none" stroke="#a1b3ff" stroke-linejoin="round" stroke-miterlimit="100" stroke-width="2"/><g shape-rendering="auto"><g fill="none"><path d="m-32.0886 305.772h39.9153l-0.0363-2.35959c0.38881-0.0315 0.81292 8e-3 1.1893-0.0238 0.93998-0.0786 1.79797-0.15702 2.41012-0.23554 0.61215-0.0784 0.97655-0.15701 1.02246-0.23553 0.0458-0.0786-0.22522-0.15703-0.76345-0.23555-0.53821-0.0784-1.33923-0.15701-2.25196-0.23553-0.91274-0.0786-1.93173-0.15703-2.86349-0.23555-0.93177-0.0786-1.77184-0.15701-2.35977-0.23553-0.58792-0.0786-0.9219-0.15703-0.93702-0.23555-0.0151-0.0784 0.28706-0.15701 0.85067-0.23553 0.56358-0.0786 1.38422-0.15702 2.30702-0.23555 0.92279-0.0786 1.94232-0.15701 2.86492-0.23554 0.9226-0.0784 1.74393-0.15702 2.30703-0.23552 0.5631-0.0786 0.86639-0.15703 0.85066-0.23555-0.0157-0.0786-0.34862-0.15703-0.93702-0.23555-0.58842-0.0784-1.42784-0.15701-2.35977-0.23553-0.93194-0.0786-1.95097-0.15703-2.86347-0.23553-0.91253-0.0786-1.71427-0.15703-2.25199-0.23556-0.53771-0.0784-0.80993-0.15701-0.76343-0.23554 0.0465-0.0784 0.40984-0.15703 1.02246-0.23553 0.61262-0.0786 1.46998-0.15703 2.41012-0.23555 0.94014-0.0784 1.95765-0.15701 2.85915-0.23553 0.90151-0.0786 1.68288-0.15703 2.19466-0.23553 0.51178-0.0786 0.7527-0.15703 0.67542-0.23555-0.0773-0.0784-0.47062-0.15702-1.10683-0.23554-0.63623-0.0784-1.51066-0.15702-2.45805-0.23554-0.9474-0.0786-1.96236-0.15702-2.85196-0.23553-0.88959-0.0786-1.6498-0.15703-2.13513-0.23555-0.48533-0.0786-0.6947-0.15702-0.58675-0.23553 0.10791-0.0786 0.53094-0.15703 1.19013-0.23555 0.65919-0.0786 1.54981-0.15702 2.50351-0.23553 0.95369-0.0786 1.96509-0.15703 2.84188-0.23555 0.87678-0.0786 1.61504-0.15703 2.07344-0.23553 0.45837-0.0786 0.636-0.15703 0.49748-0.23555-0.13851-0.0786-0.59073-0.15703-1.27222-0.23553-0.68148-0.0786-1.58739-0.15703-2.54643-0.23555-0.95904-0.0786-1.96585-0.15702-2.82895-0.23554-0.86307-0.0784-1.57867-0.15702-2.00966-0.23552-0.43103-0.0786-0.57668-0.15705-0.40772-0.23555 0.16895-0.0786 0.64992-0.15703 1.35302-0.23555 0.70309-0.0784 1.62339-0.15701 2.5868-0.23553 0.96344-0.0786 1.96463-0.15703 2.81315-0.23555 0.84854-0.0786 1.54072-0.15701 1.94389-0.23554 0.40316-0.0786 0.51675-0.15702 0.31754-0.23554-0.19922-0.0786-0.70847-0.15703-1.43246-0.23553-0.72401-0.0786-1.65775-0.15703-2.62458-0.23555-0.96684-0.0786-1.96142-0.15701-2.79452-0.23553-0.83312-0.0786-1.50122-0.15703-1.87613-0.23555-0.37494-0.0786-0.45631-0.15703-0.22705-0.23553 0.22927-0.0786 0.76628-0.15703 1.51046-0.23555 0.74417-0.0786 1.69044-0.15701 2.6597-0.23554 0.96925-0.0786 1.95625-0.15702 2.77309-0.23554 0.81686-0.0786 1.46017-0.15703 1.80649-0.23553 0.34632-0.0786 0.39541-0.15703 0.13632-0.23553-0.2591-0.0786-0.82335-0.15705-1.58694-0.23555-0.7636-0.0786-1.72144-0.15703-2.69214-0.23555-0.97071-0.0784-1.9491-0.15701-2.74888-0.23554-0.79977-0.0784-1.41767-0.15702-1.73502-0.23554-0.31732-0.0786-0.33408-0.15701-0.0454-0.23553 0.28867-0.0786 0.87959-0.15703 1.66183-0.23555 0.78225-0.0784 1.75069-0.15703 2.72188-0.23553v-2.3665h-39.9153" color="#000000" color-rendering="auto" image-rendering="auto" solid-color="#000000" stroke="url(#linearGradient5868)" style="isolation:auto;mix-blend-mode:normal"/><path d="m41.2498 299.669v15.5909m0-37.6224v15.5909" color="#000000" color-rendering="auto" image-rendering="auto" solid-color="#000000" stroke="#555" stroke-width="3" style="isolation:auto;mix-blend-mode:normal"/><path d="m41.2498 312.735v28.9256h-22.4029m-13.9133 0h-23.1058v-35.7791" color="#000000" color-rendering="auto" image-rendering="auto" solid-color="#000000" stroke="#555" style="isolation:auto;mix-blend-mode:normal"/></g><path d="m58.3116 299.414c1e-5 1.12853-0.91351 2.04339-2.0404 2.04338-1.12688 0-2.04039-0.91486-2.04038-2.04338 1e-5 -1.12851 0.91352-2.04334 2.04038-2.04334 1.12687-1e-5 2.04039 0.91482 2.0404 2.04334zm10.8301-1.65375c1e-5 1.12853-0.91351 2.04338-2.04039 2.04338s-2.04039-0.91486-2.04038-2.04338c1e-5 -1.12851 0.91352-2.04334 2.04038-2.04334 1.12687 0 2.04038 0.91483 2.04039 2.04334zm9.32687-5.88488c1e-5 1.12853-0.91351 2.04339-2.0404 2.04338-1.12688 0-2.04039-0.91486-2.04038-2.04338 1e-5 -1.12851 0.91352-2.04334 2.04038-2.04334 1.12687-1e-5 2.04039 0.91482 2.0404 2.04334zm9.80622 3.27352c0 1.12852-0.91351 2.04337-2.04039 2.04337-1.12687 0-2.04038-0.91485-2.04038-2.04337 1e-5 -1.12851 0.91351-2.04335 2.04038-2.04335s2.04038 0.91483 2.04039 2.04335zm55.0611-1.16348c0 1.12852-0.91351 2.04337-2.04039 2.04337-1.12687 0-2.04038-0.91485-2.04038-2.04337 1e-5 -1.12851 0.91351-2.04335 2.04038-2.04335s2.04038 0.91483 2.04039 2.04335zm18.2279 2.47488c0 1.12852-0.91351 2.04337-2.04039 2.04337-1.12687 0-2.04038-0.91485-2.04038-2.04337 1e-5 -1.12851 0.91351-2.04335 2.04038-2.04335s2.04038 0.91483 2.04039 2.04335zm-11.5104 2.12132c0 1.12852-0.91351 2.04337-2.04039 2.04337-1.12687 0-2.04038-0.91485-2.04038-2.04337 1e-5 -1.12851 0.91351-2.04335 2.04038-2.04335s2.04038 0.91483 2.04039 2.04335zm-40.3051 0c0 1.12852-0.91351 2.04337-2.04039 2.04337-1.12687 0-2.04038-0.91485-2.04038-2.04337 1e-5 -1.12851 0.91351-2.04335 2.04038-2.04335s2.04038 0.91483 2.04039 2.04335zm13.5419 3.53553c0 1.12853-0.91352 2.04338-2.0404 2.04337-1.12687 0-2.04038-0.91485-2.04038-2.04337 1e-5 -1.12851 0.91351-2.04335 2.04038-2.04335 1.12687-1e-5 2.04039 0.91483 2.0404 2.04335zm9.31162-7.69915c0 1.12852-0.91351 2.04337-2.04039 2.04337s-2.04039-0.91485-2.04039-2.04337c1e-5 -1.12852 0.91352-2.04335 2.04039-2.04335s2.04038 0.91483 2.04039 2.04335z" color="#000000" color-rendering="auto" fill="#ffd29c" image-rendering="auto" solid-color="#000000" style="isolation:auto;mix-blend-mode:normal"/><g fill="#ff8a00"><path d="m30.6077 305.43c0 1.12852-0.91351 2.04337-2.04038 2.04337-1.12688 0-2.04039-0.91485-2.04039-2.04337s0.91352-2.04336 2.04039-2.04336 2.04038 0.91484 2.04038 2.04336z" color="#000000" color-rendering="auto" image-rendering="auto" solid-color="#000000" style="isolation:auto;mix-blend-mode:normal"/><path d="m36.0078 284.82c0 1.12852-0.91351 2.04337-2.04039 2.04337-1.12687 0-2.04038-0.91485-2.04038-2.04337 1e-5 -1.12851 0.91351-2.04335 2.04038-2.04335s2.04038 0.91483 2.04039 2.04335z" color="#000000" color-rendering="auto" image-rendering="auto" solid-color="#000000" style="isolation:auto;mix-blend-mode:normal"/><path d="m30.6856 293.184c0 1.12852-0.91351 2.04337-2.04039 2.04337-1.12687 0-2.04038-0.91485-2.04038-2.04337 1e-5 -1.12851 0.91351-2.04335 2.04038-2.04335s2.04038 0.91483 2.04039 2.04335z" color="#000000" color-rendering="auto" image-rendering="auto" solid-color="#000000" style="isolation:auto;mix-blend-mode:normal"/><path d="m23.2775 300.391c0 1.12852-0.91351 2.04337-2.04039 2.04337-1.12687 0-2.04038-0.91485-2.04038-2.04337 1e-5 -1.12851 0.91351-2.04335 2.04038-2.04335s2.04038 0.91483 2.04039 2.04335z" color="#000000" color-rendering="auto" image-rendering="auto" solid-color="#000000" style="isolation:auto;mix-blend-mode:normal"/><path d="m40.1411 296.719c0 1.12853-0.91352 2.04338-2.0404 2.04337-1.12687 0-2.04038-0.91485-2.04038-2.04337s0.91351-2.04336 2.04038-2.04336c1.12688-1e-5 2.0404 0.91484 2.0404 2.04336z" color="#000000" color-rendering="auto" image-rendering="auto" solid-color="#000000" style="isolation:auto;mix-blend-mode:normal"/><path d="m18.6612 303.693c0 1.12853-0.91352 2.04338-2.0404 2.04337-1.12687 0-2.04038-0.91485-2.04038-2.04337s0.91351-2.04336 2.04038-2.04336c1.12688-1e-5 2.0404 0.91484 2.0404 2.04336z" color="#000000" color-rendering="auto" image-rendering="auto" solid-color="#000000" style="isolation:auto;mix-blend-mode:normal"/><path d="m24.1179 290.239c0 1.12852-0.91351 2.04337-2.04039 2.04337-1.12687 0-2.04038-0.91485-2.04038-2.04337s0.91351-2.04336 2.04038-2.04336 2.04039 0.91484 2.04039 2.04336z" color="#000000" color-rendering="auto" image-rendering="auto" solid-color="#000000" style="isolation:auto;mix-blend-mode:normal"/><path d="m19.1852 293.322c0 1.12852-0.91352 2.04336-2.04039 2.04336s-2.04038-0.91484-2.04038-2.04336 0.91351-2.04336 2.04038-2.04336 2.04039 0.91484 2.04039 2.04336z" color="#000000" color-rendering="auto" image-rendering="auto" solid-color="#000000" style="isolation:auto;mix-blend-mode:normal"/></g><g fill="none" stroke="#555"><path d="m4.88841 337.34v8.64071" color="#000000" color-rendering="auto" image-rendering="auto" solid-color="#000000" stroke-width="2" style="isolation:auto;mix-blend-mode:normal"/><path d="m9.51754 333.102v17.117" color="#000000" color-rendering="auto" image-rendering="auto" solid-color="#000000" style="isolation:auto;mix-blend-mode:normal"/><path d="m14.06 337.34v8.64071" color="#000000" color-rendering="auto" image-rendering="auto" solid-color="#000000" stroke-width="2" style="isolation:auto;mix-blend-mode:normal"/><path d="m18.6891 333.102v17.117" color="#000000" color-rendering="auto" image-rendering="auto" solid-color="#000000" style="isolation:auto;mix-blend-mode:normal"/></g><path d="m-15.958 305.772a2.20971 2.20971 0 0 1 -2.20973 2.20972 2.20971 2.20971 0 0 1 -2.20971 -2.20972 2.20971 2.20971 0 0 1 2.20971 -2.2097 2.20971 2.20971 0 0 1 2.20973 2.2097z" color="#000000" color-rendering="auto" fill="#5f5f5f" image-rendering="auto" solid-color="#000000" style="isolation:auto;mix-blend-mode:normal"/><path d="m61.1866 299.414c1e-5 1.12853-0.91351 2.04339-2.0404 2.04338-1.12688 0-2.04039-0.91486-2.04038-2.04338 1e-5 -1.12851 0.91352-2.04334 2.04038-2.04334 1.12687-1e-5 2.04039 0.91482 2.0404 2.04334zm10.8301-1.65375c1e-5 1.12853-0.91351 2.04338-2.04039 2.04338s-2.04039-0.91486-2.04038-2.04338c1e-5 -1.12851 0.91352-2.04334 2.04038-2.04334 1.12687 0 2.04038 0.91483 2.04039 2.04334zm9.32687-5.88488c1e-5 1.12853-0.91351 2.04339-2.0404 2.04338-1.12688 0-2.04039-0.91486-2.04038-2.04338 1e-5 -1.12851 0.91352-2.04334 2.04038-2.04334 1.12687-1e-5 2.04039 0.91482 2.0404 2.04334zm9.80622 3.27352c0 1.12852-0.91351 2.04337-2.04039 2.04337-1.12687 0-2.04038-0.91485-2.04038-2.04337 1e-5 -1.12851 0.91351-2.04335 2.04038-2.04335s2.04038 0.91483 2.04039 2.04335zm55.0611-1.16348c0 1.12852-0.91351 2.04337-2.04039 2.04337-1.12687 0-2.04038-0.91485-2.04038-2.04337 1e-5 -1.12851 0.91351-2.04335 2.04038-2.04335s2.04038 0.91483 2.04039 2.04335zm18.2279 2.47488c0 1.12852-0.91351 2.04337-2.04039 2.04337-1.12687 0-2.04038-0.91485-2.04038-2.04337 1e-5 -1.12851 0.91351-2.04335 2.04038-2.04335s2.04038 0.91483 2.04039 2.04335zm-11.5104 2.12132c0 1.12852-0.91351 2.04337-2.04039 2.04337-1.12687 0-2.04038-0.91485-2.04038-2.04337 1e-5 -1.12851 0.91351-2.04335 2.04038-2.04335s2.04038 0.91483 2.04039 2.04335zm-40.3051 0c0 1.12852-0.91351 2.04337-2.04039 2.04337-1.12687 0-2.04038-0.91485-2.04038-2.04337 1e-5 -1.12851 0.91351-2.04335 2.04038-2.04335s2.04038 0.91483 2.04039 2.04335zm13.5419 3.53553c0 1.12853-0.91352 2.04338-2.0404 2.04337-1.12687 0-2.04038-0.91485-2.04038-2.04337 1e-5 -1.12851 0.91351-2.04335 2.04038-2.04335 1.12687-1e-5 2.04039 0.91483 2.0404 2.04335zm9.31162-7.69915c0 1.12852-0.91351 2.04337-2.04039 2.04337s-2.04039-0.91485-2.04039-2.04337c1e-5 -1.12852 0.91352-2.04335 2.04039-2.04335s2.04038 0.91483 2.04039 2.04335z" color="#000000" color-rendering="auto" fill="#ff8a00" image-rendering="auto" solid-color="#000000" style="isolation:auto;mix-blend-mode:normal"/></g></g></svg>
