<?xml version="1.0" encoding="UTF-8"?>
<svg width="211.509" height="125.598" version="1.1" viewBox="0 0 211.50896 125.59835" xmlns="http://www.w3.org/2000/svg"><g transform="translate(37.183 -261.656)" shape-rendering="auto"><path d="m-8.99313 349.58v8.64071" color="#000000" color-rendering="auto" fill="none" image-rendering="auto" solid-color="#000000" stroke="#555" stroke-width="2" style="isolation:auto;mix-blend-mode:normal"/><path d="m-4.364 345.342v17.117" color="#000000" color-rendering="auto" fill="none" image-rendering="auto" solid-color="#000000" stroke="#555" style="isolation:auto;mix-blend-mode:normal"/><g><path d="m6.63789 356.814c-0.28198 0-0.63876 0.26985-0.72298 0.48885-0.0842 0.21898-0.0633 0.35018-0.0633 0.41291v1.9016h-1.90161c-0.0627 0-0.19391-0.021-0.41291 0.0633-0.21899 0.0842-0.49042 0.44259-0.49042 0.72457s0.27143 0.63877 0.49042 0.72299c0.21901 0.0842 0.3502 0.0633 0.41291 0.0633h1.90161v1.90161c0 0.0627-0.0209 0.19392 0.0633 0.41291 0.0842 0.21898 0.441 0.49043 0.72298 0.49042 0.282 0 0.64035-0.27144 0.72458-0.49042 0.0842-0.21899 0.0617-0.35019 0.0617-0.41291v-1.90161h1.89369c0.0627 0 0.19391 0.021 0.41292-0.0633 0.21898-0.0842 0.49041-0.441 0.49041-0.72299s-0.27144-0.64034-0.49041-0.72457c-0.219-0.0842-0.35019-0.0633-0.41292-0.0633h-1.89369v-1.9016c0-0.0627 0.0225-0.19393-0.0617-0.41291-0.0842-0.219-0.44259-0.48885-0.72458-0.48885z" color="#000000" color-rendering="auto" fill="#f00" image-rendering="auto" solid-color="#000000" style="isolation:auto;mix-blend-mode:normal;text-decoration-color:#000000;text-decoration-line:none;text-decoration-style:solid;text-indent:0;text-transform:none;white-space:normal"/><path d="m-22.0123 359.618h-1.9016c-0.0627 0-0.19391-0.021-0.41291 0.0633-0.21899 0.0842-0.49043 0.44258-0.49043 0.72456s0.27144 0.63877 0.49043 0.72299c0.21901 0.0842 0.3502 0.0633 0.41291 0.0633h5.36784c0.0627 0 0.19391 0.021 0.41291-0.0633 0.219-0.0842 0.49043-0.441 0.49043-0.72299 0-0.28198-0.27144-0.64033-0.49043-0.72456-0.21899-0.0842-0.35017-0.0633-0.41291-0.0633h-1.89369z" color="#000000" color-rendering="auto" fill="#f00" image-rendering="auto" solid-color="#000000" style="isolation:auto;mix-blend-mode:normal;text-decoration-color:#000000;text-decoration-line:none;text-decoration-style:solid;text-indent:0;text-transform:none;white-space:normal"/><path d="m-3.72729 366.849 9.06278 1.08196-3.2627 1.52387 4.48637 4.48636-3.19426 3.19426-4.48636-4.48637-1.52387 3.2627z" color="#000000" color-rendering="auto" fill="#5f5f5f" image-rendering="auto" solid-color="#000000" style="isolation:auto;mix-blend-mode:normal;text-decoration-color:#000000;text-decoration-line:none;text-decoration-style:solid;text-indent:0;text-transform:none;white-space:normal"/></g><g><g><path d="m-4.23952 353.901h26.5654v-45.0996h-58.509v45.0996h27.503" color="#000000" color-rendering="auto" fill="none" image-rendering="auto" solid-color="#000000" stroke="#555" style="isolation:auto;mix-blend-mode:normal"/><circle cx="-6.92857" cy="286.419" r="11.3553" color="#000000" color-rendering="auto" fill="#fff100" image-rendering="auto" solid-color="#000000" stroke="#ff7300" style="isolation:auto;mix-blend-mode:normal"/><path d="m-5.47091 296.038 4.06883-6.2525v-3.33347l-1.39866 0.0214c-0.0186-0.22878 5e-3 -0.47833-0.0141-0.69979-0.0465-0.55309-0.0931-1.05793-0.13961-1.41812-0.0465-0.36019-0.0931-0.57461-0.13962-0.60162-0.0465-0.027-0.0931 0.13252-0.13962 0.44921-0.0465 0.31669-0.0931 0.78801-0.13961 1.32507-0.0466 0.53705-0.0931 1.13663-0.13962 1.68488-0.0465 0.54826-0.0931 1.04257-0.13962 1.3885-0.0465 0.34593-0.0931 0.54245-0.13962 0.55135-0.0465 9e-3 -0.0931-0.16891-0.13961-0.50053-0.0465-0.33162-0.0931-0.81449-0.13962-1.35747-0.0465-0.54298-0.0931-1.14287-0.13962-1.68573-0.0465-0.54287-0.0931-1.02614-0.13962-1.35747-0.0465-0.33133-0.0931-0.50978-0.13962-0.50053-0.0465 9e-3 -0.0931 0.20513-0.13962 0.55135-0.0465 0.34622-0.0931 0.84014-0.13961 1.3885-0.0465 0.54836-0.0931 1.14795-0.13962 1.68488-0.0465 0.53693-0.0931 1.00868-0.13962 1.32508-0.0465 0.31638-0.0931 0.47657-0.13961 0.4492-0.0465-0.0273-0.0931-0.24114-0.13962-0.60162-0.0465-0.36047-0.0931-0.86494-0.13962-1.41812-0.0465-0.55319-0.0931-1.15189-0.13962-1.68234-0.0465-0.53045-0.0931-0.99021-0.13961-1.29135-0.0466-0.30113-0.0931-0.44289-0.13963-0.39742-0.0465 0.0455-0.0931 0.27691-0.13961 0.65127-0.0465 0.37436-0.0931 0.88888-0.13962 1.44633-0.0465 0.55745-0.0931 1.15466-0.13962 1.6781-0.0465 0.52344-0.0931 0.97075-0.13962 1.25632-0.0465 0.28557-0.0931 0.40876-0.13961 0.34524-0.0465-0.0635-0.0931-0.3124-0.13962-0.70027-0.0465-0.38787-0.0931-0.91192-0.13962-1.47308-0.0465-0.56116-0.0931-1.15626-0.13962-1.67217-0.0465-0.5159-0.0931-0.9503-0.13961-1.22002-0.0465-0.26971-0.0931-0.37423-0.13962-0.29272-0.0465 0.0815-0.0931 0.34758-0.13962 0.74858-0.0465 0.40098-0.0931 0.93403-0.13962 1.49833-0.0465 0.5643-0.0931 1.15671-0.13962 1.66456-0.0465 0.50784-0.0931 0.9289-0.13961 1.18249-0.0465 0.25363-0.0931 0.33932-0.13962 0.23991-0.0465-0.0994-0.0931-0.38242-0.13962-0.79612-0.0465-0.41371-0.0931-0.95521-0.13961-1.52209-0.0466-0.56689-0.0931-1.156-0.13963-1.65527-0.0465-0.49928-0.0931-0.90656-0.13962-1.14379-0.0465-0.23722-0.0931-0.30406-0.13961-0.18684-0.0465 0.11721-0.0931 0.41686-0.13962 0.84286-0.0465 0.42601-0.0931 0.97544-0.13962 1.54432-0.0465 0.56889-0.0931 1.15411-0.13961 1.64431-0.0465 0.4902-0.0931 0.88331-0.13962 1.10392-0.0465 0.22061-0.0931 0.26849-0.13962 0.1336-0.0465-0.13491-0.0931-0.45089-0.13962-0.88877-0.0465-0.43787-0.0931-0.99466-0.13962-1.56497-0.0465-0.57032-0.0931-1.15107-0.13961-1.63171-0.0466-0.48064-0.0931-0.85916-0.13962-1.06294-0.0465-0.20378-0.0931-0.23266-0.13962-0.0802-0.0465 0.15245-0.0931 0.48446-0.13962 0.93376-0.0465 0.44931-0.0931 1.0129-0.13961 1.58407-0.0465 0.57117-0.0931 1.14686-0.13962 1.61745-0.0465 0.47059-0.0931 0.83416-0.13963 1.0209-0.0465 0.18671-0.0931 0.19657-0.13961 0.0267-0.0465-0.16985-0.0931-0.51755-0.13962-0.97782-0.0465-0.46029-0.0931-1.03012-0.13961-1.60157h-1.40276v3.33347l4.06883 6.2525" color="#000000" color-rendering="auto" fill="none" image-rendering="auto" solid-color="#000000" stroke="#ff7300" style="isolation:auto;mix-blend-mode:normal"/></g><path d="m-2.92442 314.732h-8.00829l-1.35564-2.65489-1.69944-1.62244-1.01206-11.829-2.53714-1.26845v-3.39236h21.2168v3.39236l-2.53713 1.26845-1.01206 11.829-1.69945 1.62244z" color="#000000" color-rendering="auto" fill="#c9c7c7" image-rendering="auto" solid-color="#000000" stroke="#717171" stroke-linejoin="round" stroke-miterlimit="100" stroke-width="1.5" style="isolation:auto;mix-blend-mode:normal"/></g><g fill="none" stroke-linejoin="round" stroke-miterlimit="1e5"><path d="m-4.62501 301.924h3.07143" color="#000000" color-rendering="auto" image-rendering="auto" solid-color="#000000" stroke="#828282" style="isolation:auto;mix-blend-mode:normal"/><path d="m-12.3036 301.924h3.07143" color="#000000" color-rendering="auto" image-rendering="auto" solid-color="#000000" stroke="#ededed" style="isolation:auto;mix-blend-mode:normal"/><path d="m-4.62501 305.396h3.07143" color="#000000" color-rendering="auto" image-rendering="auto" solid-color="#000000" stroke="#828282" style="isolation:auto;mix-blend-mode:normal"/><path d="m-12.3036 305.396h3.07143" color="#000000" color-rendering="auto" image-rendering="auto" solid-color="#000000" stroke="#ededed" style="isolation:auto;mix-blend-mode:normal"/><path d="m-4.62501 308.869h3.07143" color="#000000" color-rendering="auto" image-rendering="auto" solid-color="#000000" stroke="#828282" style="isolation:auto;mix-blend-mode:normal"/><path d="m-12.3036 308.869h3.07143" color="#000000" color-rendering="auto" image-rendering="auto" solid-color="#000000" stroke="#ededed" style="isolation:auto;mix-blend-mode:normal"/></g><path d="m-13.3036 298.451h12.75" color="#000000" color-rendering="auto" fill="#afafaf" image-rendering="auto" solid-color="#000000" stroke="#717171" stroke-linejoin="round" stroke-miterlimit="1e5" style="isolation:auto;mix-blend-mode:normal"/><g fill="#5f5f5f"><path d="m22.6921 384.442q-0.0625 2.3125-2.0625 2.3125h-4.875q-1.125 0-1.125-1.0625v-1.1875h-3.25v1.0625h-1.0625v-6.125h10.1875v5.0625h-4.625v0.5625q0 0.5 0.4375 0.5h4.125q0.8125 0 0.875-1.375zm-11.3125-0.9375h3.25v-1.0625h-3.25zm0-2.0625h3.25v-1h-3.25zm4.5 2.0625h3.5625v-1.0625h-3.5625zm0-2.0625h3.5625v-1h-3.5625zm-5.25-4.375v-0.75h3.4375v0.75zm3.4375 1.5h-3.4375v-0.75h3.4375zm2.5625 0v-0.75h3.625v0.75zm0-1.5v-0.75h3.625v0.75zm4.3125-3.3125h-5v1h6.25v3h-1.25v-2.25h-5v3.5625h-1.25v-3.5625h-4.8125v2.5h-1.25v-3.25h6.0625v-1h-5v-1h11.25z" color="#000000" color-rendering="auto" image-rendering="auto" solid-color="#000000" style="isolation:auto;mix-blend-mode:normal;text-decoration-line:none;text-indent:0;text-transform:none"/><path d="m27.3796 381.692q-0.6875 2.1875-1.9375 4.4375 0.0625 0.6875-0.25 0.375l-1.1875-1.125q1.3125-2 2.3125-4.5625zm4.9375 1.625q-0.5 1.4375-1.625 2.875l-1.0625-0.875q1.0625-1.3125 1.625-2.9375l1.25 0.625q0.25 0.25-0.1875 0.3125zm5.3125 2.625q-1.375-1.4375-2.3125-3l1.125-0.6875q1.1875 1.8125 2.125 2.5625zm-5.8125-6.5625v1.3125h4.375v-1.3125zm0-2.25v1.25h4.375v-1.25zm1.6875 4.75h-2.75v-5.9375h2.1875l0.125-1.625h-3.5v7.25q0 2.9375-1.75 5.1875l-1-1.125q1.5-1.875 1.5-4.5v-8h9.875v1.1875h-3.625l-0.4375 1.625h3.125v5.9375h-2.5v3.8125q0 1-1 1h-1.125l-0.25-1.1875h0.8125q0.3125 0 0.3125-0.375zm-8.25-5.375q1.3125 0.625 2.25 1.625l-0.9375 1.3125q-0.9375-1.0625-2.125-1.6875zm1.75-0.6875q-0.9375-1-2-1.625l0.75-1.25q1.25 0.5625 2.0625 1.5625z" color="#000000" color-rendering="auto" image-rendering="auto" solid-color="#000000" style="isolation:auto;mix-blend-mode:normal;text-decoration-line:none;text-indent:0;text-transform:none"/><text x="-15.775276" y="334.97067" color="#000000" color-rendering="auto" font-family="Tahoma" image-rendering="auto" letter-spacing="0px" solid-color="#000000" stroke-linejoin="round" stroke-miterlimit="100" stroke-width="10" text-rendering="auto" word-spacing="0px" style="isolation:auto;line-height:0%;mix-blend-mode:normal;text-decoration-line:none;text-indent:0;text-transform:none" xml:space="preserve"><tspan x="-15.775276" y="334.97067" color="#000000" color-rendering="auto" fill="#5f5f5f" font-size="12.96px" image-rendering="auto" shape-rendering="auto" solid-color="#000000" stroke-linejoin="round" stroke-miterlimit="100" stroke-width="10" text-rendering="auto" style="isolation:auto;line-height:1.25;mix-blend-mode:normal">(A)</tspan></text></g><g fill="none"><g stroke="#555"><path d="m142.007 349.58v8.64071" color="#000000" color-rendering="auto" image-rendering="auto" solid-color="#000000" stroke-width="2" style="isolation:auto;mix-blend-mode:normal"/><path d="m146.636 345.342v17.117" color="#000000" color-rendering="auto" image-rendering="auto" solid-color="#000000" style="isolation:auto;mix-blend-mode:normal"/><path d="m146.698 353.901h26.6279v-45.0996h-58.509v45.0996h27.503" color="#000000" color-rendering="auto" image-rendering="auto" solid-color="#000000" style="isolation:auto;mix-blend-mode:normal"/></g><circle cx="130.071" cy="286.419" r="11.3553" color="#000000" color-rendering="auto" image-rendering="auto" solid-color="#000000" stroke="#717171" stroke-linejoin="round" stroke-miterlimit="100" style="isolation:auto;mix-blend-mode:normal"/><path d="m131.529 296.038 4.06883-6.2525v-3.33347l-1.39866 0.0214c-0.0186-0.22878 5e-3 -0.47833-0.0141-0.69979-0.0465-0.55309-0.0931-1.05793-0.13961-1.41812-0.0465-0.36019-0.0931-0.57461-0.13962-0.60162-0.0465-0.027-0.0931 0.13252-0.13962 0.44921-0.0465 0.31669-0.0931 0.78801-0.13961 1.32507-0.0466 0.53705-0.0931 1.13663-0.13962 1.68488-0.0465 0.54826-0.0931 1.04257-0.13962 1.3885-0.0465 0.34593-0.0931 0.54245-0.13962 0.55135-0.0465 9e-3 -0.0931-0.16891-0.13961-0.50053-0.0465-0.33162-0.0931-0.81449-0.13962-1.35747-0.0465-0.54298-0.0931-1.14287-0.13962-1.68573-0.0465-0.54287-0.0931-1.02614-0.13962-1.35747-0.0465-0.33133-0.0931-0.50978-0.13962-0.50053-0.0465 9e-3 -0.0931 0.20513-0.13962 0.55135-0.0465 0.34622-0.0931 0.84014-0.13961 1.3885-0.0465 0.54836-0.0931 1.14795-0.13962 1.68488-0.0465 0.53693-0.0931 1.00868-0.13962 1.32508-0.0465 0.31638-0.0931 0.47657-0.13961 0.4492-0.0465-0.0273-0.0931-0.24114-0.13962-0.60162-0.0465-0.36047-0.0931-0.86494-0.13962-1.41812-0.0465-0.55319-0.0931-1.15189-0.13962-1.68234-0.0465-0.53045-0.0931-0.99021-0.13961-1.29135-0.0466-0.30113-0.0931-0.44289-0.13963-0.39742-0.0465 0.0455-0.0931 0.27691-0.13961 0.65127-0.0465 0.37436-0.0931 0.88888-0.13962 1.44633-0.0465 0.55745-0.0931 1.15466-0.13962 1.6781-0.0465 0.52344-0.0931 0.97075-0.13962 1.25632-0.0465 0.28557-0.0931 0.40876-0.13961 0.34524-0.0465-0.0635-0.0931-0.3124-0.13962-0.70027-0.0465-0.38787-0.0931-0.91192-0.13962-1.47308-0.0465-0.56116-0.0931-1.15626-0.13962-1.67217-0.0465-0.5159-0.0931-0.9503-0.13961-1.22002-0.0465-0.26971-0.0931-0.37423-0.13962-0.29272-0.0465 0.0815-0.0931 0.34758-0.13962 0.74858-0.0465 0.40098-0.0931 0.93403-0.13962 1.49833-0.0465 0.5643-0.0931 1.15671-0.13962 1.66456-0.0465 0.50784-0.0931 0.9289-0.13961 1.18249-0.0465 0.25363-0.0931 0.33932-0.13962 0.23991-0.0465-0.0994-0.0931-0.38242-0.13962-0.79612-0.0465-0.41371-0.0931-0.95521-0.13961-1.52209-0.0466-0.56689-0.0931-1.156-0.13963-1.65527-0.0465-0.49928-0.0931-0.90656-0.13962-1.14379-0.0465-0.23722-0.0931-0.30406-0.13961-0.18684-0.0465 0.11721-0.0931 0.41686-0.13962 0.84286-0.0465 0.42601-0.0931 0.97544-0.13962 1.54432-0.0465 0.56889-0.0931 1.15411-0.13961 1.64431-0.0465 0.4902-0.0931 0.88331-0.13962 1.10392-0.0465 0.22061-0.0931 0.26849-0.13962 0.1336-0.0465-0.13491-0.0931-0.45089-0.13962-0.88877-0.0465-0.43787-0.0931-0.99466-0.13962-1.56497-0.0465-0.57032-0.0931-1.15107-0.13961-1.63171-0.0466-0.48064-0.0931-0.85916-0.13962-1.06294-0.0465-0.20378-0.0931-0.23266-0.13962-0.0802-0.0465 0.15245-0.0931 0.48446-0.13962 0.93376-0.0465 0.44931-0.0931 1.0129-0.13961 1.58407-0.0465 0.57117-0.0931 1.14686-0.13962 1.61745-0.0465 0.47059-0.0931 0.83416-0.13963 1.0209-0.0465 0.18671-0.0931 0.19657-0.13961 0.0267-0.0465-0.16985-0.0931-0.51755-0.13962-0.97782-0.0465-0.46029-0.0931-1.03012-0.13961-1.60157h-1.40276v3.33347l4.06883 6.2525" color="#000000" color-rendering="auto" image-rendering="auto" solid-color="#000000" stroke="#ff7300" style="isolation:auto;mix-blend-mode:normal"/></g><path d="m134.076 314.732h-8.00829l-1.35564-2.65489-1.69944-1.62244-1.01206-11.829-2.53714-1.26845v-3.39236h21.2168v3.39236l-2.53713 1.26845-1.01206 11.829-1.69945 1.62244z" color="#000000" color-rendering="auto" fill="#c9c7c7" image-rendering="auto" solid-color="#000000" stroke="#717171" stroke-linejoin="round" stroke-miterlimit="100" stroke-width="1.5" style="isolation:auto;mix-blend-mode:normal"/><g fill="none" stroke-linejoin="round" stroke-miterlimit="1e5"><path d="m132.375 301.924h3.07143" color="#000000" color-rendering="auto" image-rendering="auto" solid-color="#000000" stroke="#828282" style="isolation:auto;mix-blend-mode:normal"/><path d="m124.696 301.924h3.07143" color="#000000" color-rendering="auto" image-rendering="auto" solid-color="#000000" stroke="#ededed" style="isolation:auto;mix-blend-mode:normal"/><path d="m132.375 305.396h3.07143" color="#000000" color-rendering="auto" image-rendering="auto" solid-color="#000000" stroke="#828282" style="isolation:auto;mix-blend-mode:normal"/><path d="m124.696 305.396h3.07143" color="#000000" color-rendering="auto" image-rendering="auto" solid-color="#000000" stroke="#ededed" style="isolation:auto;mix-blend-mode:normal"/><path d="m132.375 308.869h3.07143" color="#000000" color-rendering="auto" image-rendering="auto" solid-color="#000000" stroke="#828282" style="isolation:auto;mix-blend-mode:normal"/><path d="m124.696 308.869h3.07143" color="#000000" color-rendering="auto" image-rendering="auto" solid-color="#000000" stroke="#ededed" style="isolation:auto;mix-blend-mode:normal"/></g><g><path d="m123.696 298.451h12.75" color="#000000" color-rendering="auto" fill="#afafaf" image-rendering="auto" solid-color="#000000" stroke="#717171" stroke-linejoin="round" stroke-miterlimit="1e5" style="isolation:auto;mix-blend-mode:normal"/><circle cx="158.071" cy="286.419" r="11.3553" color="#000000" color-rendering="auto" fill="none" image-rendering="auto" solid-color="#000000" stroke="#717171" stroke-linejoin="round" stroke-miterlimit="100" style="isolation:auto;mix-blend-mode:normal"/><path d="m159.529 296.038 4.06883-6.2525v-3.33347l-1.39866 0.0214c-0.0186-0.22878 5e-3 -0.47833-0.0141-0.69979-0.0465-0.55309-0.0931-1.05793-0.13961-1.41812-0.0465-0.36019-0.0931-0.57461-0.13962-0.60162-0.0465-0.027-0.0931 0.13252-0.13962 0.44921-0.0465 0.31669-0.0931 0.78801-0.13961 1.32507-0.0466 0.53705-0.0931 1.13663-0.13962 1.68488-0.0465 0.54826-0.0931 1.04257-0.13962 1.3885-0.0465 0.34593-0.0931 0.54245-0.13962 0.55135-0.0465 9e-3 -0.0931-0.16891-0.13961-0.50053-0.0465-0.33162-0.0931-0.81449-0.13962-1.35747-0.0465-0.54298-0.0931-1.14287-0.13962-1.68573-0.0465-0.54287-0.0931-1.02614-0.13962-1.35747-0.0465-0.33133-0.0931-0.50978-0.13962-0.50053-0.0465 9e-3 -0.0931 0.20513-0.13962 0.55135-0.0465 0.34622-0.0931 0.84014-0.13961 1.3885-0.0465 0.54836-0.0931 1.14795-0.13962 1.68488-0.0465 0.53693-0.0931 1.00868-0.13962 1.32508-0.0465 0.31638-0.0931 0.47657-0.13961 0.4492-0.0465-0.0273-0.0931-0.24114-0.13962-0.60162-0.0465-0.36047-0.0931-0.86494-0.13962-1.41812-0.0465-0.55319-0.0931-1.15189-0.13962-1.68234-0.0465-0.53045-0.0931-0.99021-0.13961-1.29135-0.0466-0.30113-0.0931-0.44289-0.13963-0.39742-0.0465 0.0455-0.0931 0.27691-0.13961 0.65127-0.0465 0.37436-0.0931 0.88888-0.13962 1.44633-0.0465 0.55745-0.0931 1.15466-0.13962 1.6781-0.0465 0.52344-0.0931 0.97075-0.13962 1.25632-0.0465 0.28557-0.0931 0.40876-0.13961 0.34524-0.0465-0.0635-0.0931-0.3124-0.13962-0.70027-0.0465-0.38787-0.0931-0.91192-0.13962-1.47308-0.0465-0.56116-0.0931-1.15626-0.13962-1.67217-0.0465-0.5159-0.0931-0.9503-0.13961-1.22002-0.0465-0.26971-0.0931-0.37423-0.13962-0.29272-0.0465 0.0815-0.0931 0.34758-0.13962 0.74858-0.0465 0.40098-0.0931 0.93403-0.13962 1.49833-0.0465 0.5643-0.0931 1.15671-0.13962 1.66456-0.0465 0.50784-0.0931 0.9289-0.13961 1.18249-0.0465 0.25363-0.0931 0.33932-0.13962 0.23991-0.0465-0.0994-0.0931-0.38242-0.13962-0.79612-0.0465-0.41371-0.0931-0.95521-0.13961-1.52209-0.0466-0.56689-0.0931-1.156-0.13963-1.65527-0.0465-0.49928-0.0931-0.90656-0.13962-1.14379-0.0465-0.23722-0.0931-0.30406-0.13961-0.18684-0.0465 0.11721-0.0931 0.41686-0.13962 0.84286-0.0465 0.42601-0.0931 0.97544-0.13962 1.54432-0.0465 0.56889-0.0931 1.15411-0.13961 1.64431-0.0465 0.4902-0.0931 0.88331-0.13962 1.10392-0.0465 0.22061-0.0931 0.26849-0.13962 0.1336-0.0465-0.13491-0.0931-0.45089-0.13962-0.88877-0.0465-0.43787-0.0931-0.99466-0.13962-1.56497-0.0465-0.57032-0.0931-1.15107-0.13961-1.63171-0.0466-0.48064-0.0931-0.85916-0.13962-1.06294-0.0465-0.20378-0.0931-0.23266-0.13962-0.0802-0.0465 0.15245-0.0931 0.48446-0.13962 0.93376-0.0465 0.44931-0.0931 1.0129-0.13961 1.58407-0.0465 0.57117-0.0931 1.14686-0.13962 1.61745-0.0465 0.47059-0.0931 0.83416-0.13963 1.0209-0.0465 0.18671-0.0931 0.19657-0.13961 0.0267-0.0465-0.16985-0.0931-0.51755-0.13962-0.97782-0.0465-0.46029-0.0931-1.03012-0.13961-1.60157h-1.40276v3.33347l4.06883 6.2525" color="#000000" color-rendering="auto" fill="none" image-rendering="auto" solid-color="#000000" stroke="#ff7300" style="isolation:auto;mix-blend-mode:normal"/><path d="m162.076 314.732h-8.00829l-1.35564-2.65489-1.69944-1.62244-1.01206-11.829-2.53714-1.26845v-3.39236h21.2168v3.39236l-2.53713 1.26845-1.01206 11.829-1.69945 1.62244z" color="#000000" color-rendering="auto" fill="#c9c7c7" image-rendering="auto" solid-color="#000000" stroke="#717171" stroke-linejoin="round" stroke-miterlimit="100" stroke-width="1.5" style="isolation:auto;mix-blend-mode:normal"/></g><g fill="none" stroke-linejoin="round" stroke-miterlimit="1e5"><path d="m160.375 301.924h3.07143" color="#000000" color-rendering="auto" image-rendering="auto" solid-color="#000000" stroke="#828282" style="isolation:auto;mix-blend-mode:normal"/><path d="m152.696 301.924h3.07143" color="#000000" color-rendering="auto" image-rendering="auto" solid-color="#000000" stroke="#ededed" style="isolation:auto;mix-blend-mode:normal"/><path d="m160.375 305.396h3.07143" color="#000000" color-rendering="auto" image-rendering="auto" solid-color="#000000" stroke="#828282" style="isolation:auto;mix-blend-mode:normal"/><path d="m152.696 305.396h3.07143" color="#000000" color-rendering="auto" image-rendering="auto" solid-color="#000000" stroke="#ededed" style="isolation:auto;mix-blend-mode:normal"/><path d="m160.375 308.869h3.07143" color="#000000" color-rendering="auto" image-rendering="auto" solid-color="#000000" stroke="#828282" style="isolation:auto;mix-blend-mode:normal"/><path d="m152.696 308.869h3.07143" color="#000000" color-rendering="auto" image-rendering="auto" solid-color="#000000" stroke="#ededed" style="isolation:auto;mix-blend-mode:normal"/></g><path d="m151.696 298.451h12.75" color="#000000" color-rendering="auto" fill="#afafaf" image-rendering="auto" solid-color="#000000" stroke="#717171" stroke-linejoin="round" stroke-miterlimit="1e5" style="isolation:auto;mix-blend-mode:normal"/><text x="135.28801" y="334.97067" color="#000000" color-rendering="auto" fill="#5f5f5f" font-family="Tahoma" image-rendering="auto" letter-spacing="0px" solid-color="#000000" stroke-linejoin="round" stroke-miterlimit="100" stroke-width="10" text-rendering="auto" word-spacing="0px" style="isolation:auto;line-height:0%;mix-blend-mode:normal;text-decoration-line:none;text-indent:0;text-transform:none" xml:space="preserve"><tspan x="135.28801" y="334.97067" color="#000000" color-rendering="auto" fill="#5f5f5f" font-size="12.96px" image-rendering="auto" shape-rendering="auto" solid-color="#000000" stroke-linejoin="round" stroke-miterlimit="100" stroke-width="10" text-rendering="auto" style="isolation:auto;line-height:1.25;mix-blend-mode:normal">(C)</tspan></text><g fill="none" stroke="#555"><path d="m61.9211 349.58v8.64071" color="#000000" color-rendering="auto" image-rendering="auto" solid-color="#000000" stroke-width="2" style="isolation:auto;mix-blend-mode:normal"/><path d="m66.5502 345.342v17.117" color="#000000" color-rendering="auto" image-rendering="auto" solid-color="#000000" style="isolation:auto;mix-blend-mode:normal"/><path d="m71.0926 349.58v8.64071" color="#000000" color-rendering="auto" image-rendering="auto" solid-color="#000000" stroke-width="2" style="isolation:auto;mix-blend-mode:normal"/><path d="m75.7218 345.342v17.117" color="#000000" color-rendering="auto" image-rendering="auto" solid-color="#000000" style="isolation:auto;mix-blend-mode:normal"/><path d="m75.7096 353.901h22.1163v-45.0996h-58.509v45.0996h22.604" color="#000000" color-rendering="auto" image-rendering="auto" solid-color="#000000" style="isolation:auto;mix-blend-mode:normal"/></g><g><g stroke="#ff7300"><path transform="matrix(.823998 .169288 -.169506 .823172 -296.691 358.483)" d="m427.577-154.959-9.5521-3.63382 0.79403 10.189-7.24826-7.20486-3.41888 9.63113-3.69114-9.5301-7.04063 7.40789 0.50421-10.2075-9.44499 3.90376 4.61238-9.11993-10.2162-0.27536 7.92303-6.45545-9.22099-4.40687 9.86372-2.67476-6.63136-7.77639 10.0989 1.56842-2.8951-9.80131 8.58785 5.54041 1.34174-10.1315 5.5919 8.55441 5.34659-8.70984 1.62906 10.0893 8.42696-5.78218-2.61545 9.87961 10.0502-1.85473-6.40773 7.96168 9.93573 2.39342-9.09206 4.66708 8.10326 6.22773-10.2043 0.56552z" color="#000000" color-rendering="auto" fill="#fff100" image-rendering="auto" solid-color="#000000" stroke-width="1.18931" style="isolation:auto;mix-blend-mode:normal"/><circle cx="68.7644" cy="286.419" r="11.3553" color="#000000" color-rendering="auto" fill="#fff100" image-rendering="auto" solid-color="#000000" style="isolation:auto;mix-blend-mode:normal"/><path d="m70.222 296.038 4.06883-6.2525v-3.33347l-1.39866 0.0214c-0.0186-0.22878 5e-3 -0.47833-0.0141-0.69979-0.0465-0.55309-0.0931-1.05793-0.13961-1.41812-0.0465-0.36019-0.0931-0.57461-0.13962-0.60162-0.0465-0.027-0.0931 0.13252-0.13962 0.44921-0.0465 0.31669-0.0931 0.78801-0.13961 1.32507-0.0466 0.53705-0.0931 1.13663-0.13962 1.68488-0.0465 0.54826-0.0931 1.04257-0.13962 1.3885-0.0465 0.34593-0.0931 0.54245-0.13962 0.55135-0.0465 9e-3 -0.0931-0.16891-0.13961-0.50053-0.0465-0.33162-0.0931-0.81449-0.13962-1.35747-0.0465-0.54298-0.0931-1.14287-0.13962-1.68573-0.0465-0.54287-0.0931-1.02614-0.13962-1.35747-0.0465-0.33133-0.0931-0.50978-0.13962-0.50053-0.0465 9e-3 -0.0931 0.20513-0.13962 0.55135-0.0465 0.34622-0.0931 0.84014-0.13961 1.3885-0.0465 0.54836-0.0931 1.14795-0.13962 1.68488-0.0465 0.53693-0.0931 1.00868-0.13962 1.32508-0.0465 0.31638-0.0931 0.47657-0.13961 0.4492-0.0465-0.0273-0.0931-0.24114-0.13962-0.60162-0.0465-0.36047-0.0931-0.86494-0.13962-1.41812-0.0465-0.55319-0.0931-1.15189-0.13962-1.68234-0.0465-0.53045-0.0931-0.99021-0.13961-1.29135-0.0466-0.30113-0.0931-0.44289-0.13963-0.39742-0.0465 0.0455-0.0931 0.27691-0.13961 0.65127-0.0465 0.37436-0.0931 0.88888-0.13962 1.44633-0.0465 0.55745-0.0931 1.15466-0.13962 1.6781-0.0465 0.52344-0.0931 0.97075-0.13962 1.25632-0.0465 0.28557-0.0931 0.40876-0.13961 0.34524-0.0465-0.0635-0.0931-0.3124-0.13962-0.70027-0.0465-0.38787-0.0931-0.91192-0.13962-1.47308-0.0465-0.56116-0.0931-1.15626-0.13962-1.67217-0.0465-0.5159-0.0931-0.9503-0.13961-1.22002-0.0465-0.26971-0.0931-0.37423-0.13962-0.29272-0.0465 0.0815-0.0931 0.34758-0.13962 0.74858-0.0465 0.40098-0.0931 0.93403-0.13962 1.49833-0.0465 0.5643-0.0931 1.15671-0.13962 1.66456-0.0465 0.50784-0.0931 0.9289-0.13961 1.18249-0.0465 0.25363-0.0931 0.33932-0.13962 0.23991-0.0465-0.0994-0.0931-0.38242-0.13962-0.79612-0.0465-0.41371-0.0931-0.95521-0.13961-1.52209-0.0466-0.56689-0.0931-1.156-0.13963-1.65527-0.0465-0.49928-0.0931-0.90656-0.13962-1.14379-0.0465-0.23722-0.0931-0.30406-0.13961-0.18684-0.0465 0.11721-0.0931 0.41686-0.13962 0.84286-0.0465 0.42601-0.0931 0.97544-0.13962 1.54432-0.0465 0.56889-0.0931 1.15411-0.13961 1.64431-0.0465 0.4902-0.0931 0.88331-0.13962 1.10392-0.0465 0.22061-0.0931 0.26849-0.13962 0.1336-0.0465-0.13491-0.0931-0.45089-0.13962-0.88877-0.0465-0.43787-0.0931-0.99466-0.13962-1.56497-0.0465-0.57032-0.0931-1.15107-0.13961-1.63171-0.0466-0.48064-0.0931-0.85916-0.13962-1.06294-0.0465-0.20378-0.0931-0.23266-0.13962-0.0802-0.0465 0.15245-0.0931 0.48446-0.13962 0.93376-0.0465 0.44931-0.0931 1.0129-0.13961 1.58407-0.0465 0.57117-0.0931 1.14686-0.13962 1.61745-0.0465 0.47059-0.0931 0.83416-0.13963 1.0209-0.0465 0.18671-0.0931 0.19657-0.13961 0.0267-0.0465-0.16985-0.0931-0.51755-0.13962-0.97782-0.0465-0.46029-0.0931-1.03012-0.13961-1.60157h-1.40276v3.33347l4.06883 6.2525" color="#000000" color-rendering="auto" fill="none" image-rendering="auto" solid-color="#000000" style="isolation:auto;mix-blend-mode:normal"/></g><path d="m72.7685 314.732h-8.00829l-1.35564-2.65489-1.69944-1.62244-1.01206-11.829-2.53714-1.26845v-3.39236h21.2168v3.39236l-2.53713 1.26845-1.01206 11.829-1.69945 1.62244z" color="#000000" color-rendering="auto" fill="#c9c7c7" image-rendering="auto" solid-color="#000000" stroke="#717171" stroke-linejoin="round" stroke-miterlimit="100" stroke-width="1.5" style="isolation:auto;mix-blend-mode:normal"/></g><g fill="none" stroke-linejoin="round" stroke-miterlimit="1e5"><path d="m71.0679 301.924h3.07143" color="#000000" color-rendering="auto" image-rendering="auto" solid-color="#000000" stroke="#828282" style="isolation:auto;mix-blend-mode:normal"/><path d="m63.3893 301.924h3.07143" color="#000000" color-rendering="auto" image-rendering="auto" solid-color="#000000" stroke="#ededed" style="isolation:auto;mix-blend-mode:normal"/><path d="m71.0679 305.396h3.07143" color="#000000" color-rendering="auto" image-rendering="auto" solid-color="#000000" stroke="#828282" style="isolation:auto;mix-blend-mode:normal"/><path d="m63.3893 305.396h3.07143" color="#000000" color-rendering="auto" image-rendering="auto" solid-color="#000000" stroke="#ededed" style="isolation:auto;mix-blend-mode:normal"/><path d="m71.0679 308.869h3.07143" color="#000000" color-rendering="auto" image-rendering="auto" solid-color="#000000" stroke="#828282" style="isolation:auto;mix-blend-mode:normal"/><path d="m63.3893 308.869h3.07143" color="#000000" color-rendering="auto" image-rendering="auto" solid-color="#000000" stroke="#ededed" style="isolation:auto;mix-blend-mode:normal"/></g><path d="m62.3893 298.451h12.75" color="#000000" color-rendering="auto" fill="#afafaf" image-rendering="auto" solid-color="#000000" stroke="#717171" stroke-linejoin="round" stroke-miterlimit="1e5" style="isolation:auto;mix-blend-mode:normal"/><text x="59.712059" y="334.97067" color="#000000" color-rendering="auto" fill="#5f5f5f" font-family="Tahoma" image-rendering="auto" letter-spacing="0px" solid-color="#000000" stroke-linejoin="round" stroke-miterlimit="100" stroke-width="10" text-rendering="auto" word-spacing="0px" style="isolation:auto;line-height:0%;mix-blend-mode:normal;text-decoration-line:none;text-indent:0;text-transform:none" xml:space="preserve"><tspan x="59.712059" y="334.97067" color="#000000" color-rendering="auto" fill="#5f5f5f" font-size="12.96px" image-rendering="auto" shape-rendering="auto" solid-color="#000000" stroke-linejoin="round" stroke-miterlimit="100" stroke-width="10" text-rendering="auto" style="isolation:auto;line-height:1.25;mix-blend-mode:normal">(B)</tspan></text></g></svg>
