<?xml version="1.0" encoding="UTF-8"?>
<svg width="141.819" height="143.823" version="1.1" viewBox="0 0 141.81857 143.82327" xmlns="http://www.w3.org/2000/svg"><defs><marker id="Arrow1Lend" overflow="visible" orient="auto"><path transform="matrix(-.8 0 0 -.8 -10 0)" d="m0 0 5-5-17.5 5 17.5 5z" fill-rule="evenodd" stroke="#000" stroke-width="1pt"/></marker><marker id="marker3074" overflow="visible" orient="auto"><path transform="matrix(-.4 0 0 -.4 -4 0)" d="m0 0 5-5-17.5 5 17.5 5z" fill="#f00" fill-rule="evenodd" stroke="#f00" stroke-width="1pt"/></marker><marker id="marker2992" overflow="visible" orient="auto"><path transform="matrix(-.8 0 0 -.8 -10 0)" d="m0 0 5-5-17.5 5 17.5 5z" fill-rule="evenodd" stroke="#000" stroke-width="1pt"/></marker></defs><g transform="translate(-17.6621 -246.829)"><g><path d="m18.1621 370.069h138.877" fill="none" marker-end="url(#Arrow1Lend)" stroke="#000" stroke-miterlimit="1e5" stroke-width="1px"/><g stroke-linejoin="round" stroke-miterlimit="1e5" stroke-width="1.33333"><path d="m153.881 382.294c0.11476-0.49734 0.55472-2.25713 1.89369-2.25713 0.0956 0 0.55472 0 0.95642 0.24867-0.5356 0.0957-0.91816 0.57384-0.91816 1.03293 0 0.30604 0.2104 0.66948 0.72686 0.66948 0.42083 0 1.03293-0.34432 1.03293-1.10944 0-0.99467-1.12856-1.26246-1.77893-1.26246-1.10944 0-1.77893 1.01379-2.00846 1.45374-0.47821-1.26246-1.51114-1.45374-2.06586-1.45374-1.98934 0-3.07965 2.46754-3.07965 2.94574 0 0.19128 0.19129 0.19128 0.22954 0.19128 0.15303 0 0.21041-0.0382 0.24867-0.2104 0.65037-2.0276 1.91283-2.5058 2.56319-2.5058 0.36344 0 1.03292 0.17216 1.03292 1.2816 0 0.59297-0.32518 1.87456-1.03292 4.55252-0.30605 1.18596-0.97554 1.98933-1.81719 1.98933-0.11477 0-0.55472 0-0.95641-0.24865 0.4782-0.0957 0.89904-0.49735 0.89904-1.03293 0-0.51647-0.42084-0.66949-0.70776-0.66949-0.57385 0-1.05205 0.49733-1.05205 1.10944 0 0.87989 0.95641 1.26246 1.79806 1.26246 1.26247 0 1.95107-1.33899 2.00847-1.45376 0.22953 0.70775 0.91816 1.45376 2.06585 1.45376 1.97021 0 3.06051-2.46755 3.06051-2.94576 0-0.19128-0.17214-0.19128-0.22953-0.19128-0.17216 0-0.21042 0.0765-0.24867 0.21042-0.63124 2.04672-1.93196 2.50579-2.54405 2.50579-0.746 0-1.05207-0.61209-1.05207-1.26246 0-0.42082 0.11477-0.84165 0.32519-1.68328z"/><path d="m25.2566 254.982h1.79806c0.38256 0 0.573856 0 0.573856-0.38256 0-0.21041-0.191296-0.21041-0.5356-0.21041h-1.68328c0.688608-2.71621 0.784256-3.09877 0.784256-3.21355 0-0.32517-0.229536-0.51647-0.55472-0.51647-0.05739 0-0.592976 0.0192-0.765136 0.68863l-0.746 3.04139h-1.79806c-0.382565 0-0.573848 0-0.573848 0.36344 0 0.22953 0.153026 0.22953 0.535592 0.22953h1.68329c-1.37724 5.43244-1.45375 5.75762-1.45375 6.10192 0 1.03293 0.726871 1.75981 1.7598 1.75981 1.95109 0 3.04139-2.79273 3.04139-2.94576 0-0.19128-0.153024-0.19128-0.229536-0.19128-0.17216 0-0.19128 0.0574-0.286928 0.26779-0.822512 1.98935-1.8363 2.44842-2.48667 2.44842-0.401696 0-0.592976-0.24866-0.592976-0.8799 0-0.45908 0.03826-0.59296 0.114768-0.91815z"/><path d="m33.6289 379.748c0-3.07967-2.02758-5.14551-4.8777-5.14551-4.13171 0-8.33993 4.34212-8.33993 8.799 0 3.17529 2.14236 5.10724 4.89684 5.10724 4.05518 0 8.32078-4.18908 8.32078-8.76073zm-8.20602 8.26341c-1.8937 0-3.23269-1.5494-3.23269-4.07432 0-0.84165 0.267808-3.63437 1.74067-5.87239 1.31986-1.98934 3.19443-2.984 4.70557-2.984 1.56851 0 3.29005 1.07119 3.29005 3.9213 0 1.37723-0.516464 4.36123-2.41016 6.71401-0.918144 1.16682-2.48667 2.2954-4.09344 2.2954z"/></g><path d="m55.0585 390.153v-23.1471c0-7.71559 0-15.4314 4.79394-23.147 4.79394-7.71557 14.382-15.4314 23.9699-23.147 9.58786-7.71561 19.1759-15.4314 23.9698-23.147s4.79389-15.4314 4.79389-23.147v-23.1469" fill="none" marker-end="url(#marker3074)" stroke="#f00" stroke-miterlimit="100" stroke-width="2"/></g><g fill="#f00"><path d="m70.6774 388.979h-1.5077l-0.112416-0.83982h1.21674q0.443053 0 0.443053-0.4166v-1.9706h-2.16898v-0.78692h2.16898v-1.58044l-2.52607-0.0132v-0.77369l2.52607 0.0132v-1.48787h-1.7127v-0.73401h2.3343q0.740627-1.00514 1.05142-1.73915h-2.3343q-0.727401 1.17045-1.62012 2.04333l-0.648048-0.45627q1.46803-1.68625 2.1293-3.41218l0.952234 0.21161q-0.178544 0.45628-0.396764 0.87949h2.99557l0.304186 0.19177q-0.396765 0.9324-1.4019 2.2814h1.99705v2.2351l0.6745 7e-3v0.77369l-0.6745-7e-3v2.85009h-0.998523v-0.49596h-1.63996v2.24833q0 0.45628-0.297573 0.71418-0.29096 0.26451-0.753852 0.26451zm1.05142-7.85594v1.49448l1.63996 7e-3v-1.50109zm0 2.26817v1.57383h1.63996v-1.56721zm-9.67444-1.58044v-0.7274h2.51945v-0.95885h-2.06318v-0.70095h2.06318v-0.89933h-2.25494v-0.70095h2.25494v-0.83321h0.96546v0.83321h2.32107v0.70095h-2.32107v0.89933h1.95737v0.70095h-1.95737v0.95885h2.3872v0.7274zm4.43715 4.83391h-2.99557v2.38059h-0.939009v-6.35485h4.91327v5.44229q0 0.38354-0.317412 0.61498-0.317411 0.23806-0.661274 0.23806h-1.28287l-0.112417-0.83982h0.912558q0.48273 0 0.48273-0.4166zm0-2.34752v-0.96546h-2.99557v0.96546zm-2.99557 1.67302h2.99557v-1.00514h-2.99557z"/><path d="m75.8089 388.622v-0.83982h1.94415v-7.9419h1.06465v7.9419h3.10799v-10.5407h1.07788v3.65684h4.47682v0.8332h-4.47682v6.05066h5.27696v0.83982z"/><path d="m83.1399 350.358q0 2.08301-0.648049 4.13957-0.641436 2.04995-1.87802 3.47169l-0.714176-0.52902q1.06465-1.26303 1.63335-3.16089 0.575308-1.89785 0.575308-4.14618v-0.85305h-1.68625v-0.80014h1.68625v-2.5988h1.03159v2.5988h3.10799v1.81851l-0.0066 1.95075q-0.0066 1.01837-0.07935 2.10947-0.06613 1.0911-0.238058 1.8185-0.165319 0.7274-0.383539 1.01836-0.211608 0.29096-0.542245 0.44967-0.330637 0.1587-0.734014 0.1587h-1.44158l-0.119029-0.92578h1.04481q0.370313 0 0.595146-0.086 0.224833-0.0926 0.363701-0.29758 0.138867-0.20499 0.231446-0.59514 0.09919-0.39016 0.165318-1.02498 0.07274-0.63482 0.09258-1.26303 0.01984-0.63483 0.01984-2.91622v-1.41513h-2.0764zm8.12706 6.40774h-2.57236v0.97869h-1.03159v-10.825h4.63553v10.7325h-1.03159zm-2.57236-0.85965h2.57236v-8.16012h-2.57236z"/><path d="m106.39 354.875-0.50257 0.78692q-2.22188-0.89272-3.83539-2.56575v3.14767h-0.98529v-3.08154q-1.62674 1.63996-3.6304 2.44671l-0.370313-0.68111q1.15723-0.50918 2.24172-1.37545 1.0911-0.86627 1.47464-1.36883h-2.94267v-3.3196h3.20057v-1.10433h-3.74282v-0.81336h3.74282v-0.95224h1.02497v0.95224h3.82216v0.81336h-3.82216v1.10433h3.23363v3.3196h-2.98235q0.6745 0.77369 1.83173 1.53415 1.16384 0.76047 2.24172 1.15723zm-2.08962-3.38572v-1.90447h-2.23511v1.90447zm-3.26008 0v-1.90447h-2.20866v1.90447zm-4.36441-3.18734-0.925783 0.54886q-0.595147-1.05804-1.58706-2.26817l0.839817-0.52241q1.0382 1.28287 1.67302 2.24172zm9.93233 8.45108-0.19177 0.89933-3.68991 0.0132q-2.78396 0-3.43201-0.0595t-1.32916-0.21161q-0.681112-0.14548-1.19029-0.48934-0.502568-0.35047-0.734014-0.76046-1.09771 1.12416-2.16898 1.64657l-0.357088-0.88611q0.363701-0.1587 1.01836-0.58853 0.661274-0.43644 0.925783-0.69434v-4.03377h-1.75238v-0.81998h2.79058v4.24538q0 0.6216 0.436441 1.01836 0.436441 0.39015 1.02498 0.52902 0.588534 0.13225 1.10433 0.20499 0.515794 0.0727 2.99557 0.0727 3.20056 0 4.54956-0.086z"/><path d="m129.969 303.967v2.04333q0 4.45699-1.63996 6.82435l-0.72078-0.44305q1.39528-2.34753 1.39528-5.88534v-3.32621h5.1381v-2.25494h1.05143v2.25494h2.90299v0.78692h-2.87654q0.11241 2.67154 0.60837 4.44376 0.71418-1.82512 0.95223-3.13444l0.93901 0.25128q-0.42321 1.8648-1.51431 4.06684 0.26451 0.73401 0.66127 1.44819 0.40338 0.70756 0.6216 0.70756 0.0727 0 0.13887-0.0926 0.0661-0.0926 0.12564-0.95223 0.0595-0.85966 0.0661-1.36223l0.78692 0.13226q0 2.03672-0.16532 2.77735-0.16532 0.74724-0.77369 0.74724-0.27773 0-0.55547-0.19838-0.27112-0.19177-0.71417-0.85966-0.44306-0.6745-0.74724-1.32255-0.75386 1.26304-1.73915 2.39381l-0.66789-0.4695q1.15062-1.36222 1.9706-2.97573-0.80015-2.22188-0.97208-5.60099zm6.97644-1.06465q-0.35047-0.48935-1.06465-1.40852l0.68111-0.44305q0.53564 0.56208 1.11756 1.35561zm-9.36364 0.81336q-0.54224-0.80014-1.52093-1.86479l0.74724-0.57531q0.58193 0.6216 1.54739 1.80528zm-0.55547 3.15428q-0.68772-1.00514-1.46141-1.89786l0.77369-0.56208q0.53563 0.62821 1.48787 1.83834zm3.55105-0.91256v-0.72079h3.26008v0.72079zm1.01174 5.06536v0.55547h-0.85965v-4.27183h3.14766v3.71636zm1.44819-3.04847h-1.44819v2.37397h1.44819zm-6.54661 4.79423-0.85965-0.51579q0.87288-1.44819 1.63334-4.44376l0.81337 0.29096q-0.81998 3.23363-1.58706 4.66859z"/><path d="m151.996 309.951-0.50257 0.78691q-2.22188-0.89272-3.83539-2.56574v3.14766h-0.9853v-3.08153q-1.62673 1.63996-3.63039 2.44671l-0.37031-0.68111q1.15722-0.50918 2.24171-1.37545 1.09111-0.86627 1.47464-1.36884h-2.94266v-3.31959h3.20056v-1.10433h-3.74281v-0.81337h3.74281v-0.95223h1.02498v0.95223h3.82216v0.81337h-3.82216v1.10433h3.23363v3.31959h-2.98235q0.6745 0.77369 1.83173 1.53416 1.16384 0.76046 2.24172 1.15723zm-2.08963-3.38573v-1.90447h-2.2351v1.90447zm-3.26008 0v-1.90447h-2.20865v1.90447zm-4.36441-3.18734-0.92578 0.54886q-0.59515-1.05804-1.58706-2.26817l0.83982-0.52241q1.0382 1.28288 1.67302 2.24172zm9.93234 8.45108-0.19177 0.89934-3.68991 0.0132q-2.78396 0-3.43201-0.0595t-1.32916-0.21161q-0.68111-0.14548-1.1903-0.48934-0.50256-0.35048-0.73401-0.76047-1.09771 1.12417-2.16898 1.64657l-0.35709-0.8861q0.36371-0.15871 1.01837-0.58854 0.66127-0.43644 0.92578-0.69433v-4.03378h-1.75238v-0.81998h2.79058v4.24538q0 0.6216 0.43644 1.01836 0.43644 0.39016 1.02498 0.52902 0.58853 0.13226 1.10432 0.205 0.5158 0.0727 2.99557 0.0727 3.20057 0 4.54957-0.086z"/></g><g fill="none" stroke="#000"><path d="m38.1621 390.069v-138.877" marker-end="url(#marker2992)" stroke-miterlimit="1e5" stroke-width="1px"/><circle cx="59.9858" cy="346.312" r="15.2028" stroke-dasharray="1.4, 1.4" stroke-width=".7"/><circle cx="107.784" cy="296.271" r="15.2028" stroke-dasharray="1.4, 1.4" stroke-width=".7"/></g></g></svg>
