<?xml version="1.0" encoding="UTF-8"?>
<svg width="226.588" height="116.292" version="1.1" viewBox="0 0 226.58812 116.29202" xmlns="http://www.w3.org/2000/svg"><g transform="translate(84.7226 -246.309)"><g stroke-linejoin="round"><path d="m-48.7166 271.11 72.1254 1e-4" fill="none" stroke="#000002" stroke-dasharray="2, 2" stroke-miterlimit="100"/><g stroke-miterlimit="1e5"><path d="m-79.5538 265.4c0-0.4591 0-0.4973-0.43995-0.4973-1.18595 1.2242-2.86923 1.2242-3.48134 1.2242v0.5929c0.38256 0 1.51113 0 2.5058-0.4973v9.9084c0 0.6887-0.0574 0.9182-1.77892 0.9182h-0.61212v0.593c0.66949-0.057 2.33365-0.057 3.09879-0.057 0.76513 0 2.42928 0 3.09878 0.057v-0.593h-0.61211c-1.72155 0-1.77893-0.2104-1.77893-0.9182z" stroke-width="1.33333"/><path d="m-71.3911 271.1c0 3.9596 3.09878 6.9627 6.65664 6.9627 3.1179 0 4.99248-2.6588 4.99248-4.8777 0-0.1913 0-0.3252-0.24867-0.3252-0.21042 0-0.21042 0.1147-0.22954 0.3061-0.15302 2.7353-2.19976 4.3038-4.28474 4.3038-1.16683 0-4.91596-0.6503-4.91596-6.3506 0-5.7193 3.73001-6.3697 4.89683-6.3697 2.08499 0 3.78741 1.7407 4.16997 4.5334 0.0383 0.2678 0.0383 0.3252 0.30605 0.3252 0.30606 0 0.30606-0.057 0.30606-0.4591v-4.5334c0-0.3252 0-0.459-0.21042-0.459-0.0765 0-0.15302 0-0.30604 0.2295l-0.95642 1.4155c-0.70774-0.6886-1.6833-1.645-3.5196-1.645-3.57699 0-6.65664 3.0413-6.65664 6.9435z" stroke-width="1.33333"/><g stroke-width="1.33333"><path d="m36.1148 321.697 2.02758-1.9702c2.98402-2.6397 4.13171-3.6727 4.13171-5.5855 0-2.1806-1.72154-3.7109-4.0552-3.7109-2.16149 0-3.57698 1.7598-3.57698 3.4622 0 1.0712 0.956419 1.0712 1.0138 1.0712 0.325184 0 0.994672-0.2295 0.994672-1.0138 0-0.4973-0.344304-0.9946-1.01379-0.9946-0.153024 0-0.19128 0-0.248672 0.019 0.439952-1.2434 1.47288-1.9511 2.58232-1.9511 1.74067 0 2.56318 1.5494 2.56318 3.1179 0 1.5302-0.956416 3.0414-2.00846 4.2273l-3.67263 4.0935c-0.210411 0.2104-0.210411 0.2486-0.210411 0.7077h7.0966l0.535584-3.3283h-0.478208c-0.09563 0.5738-0.229536 1.4155-0.420816 1.7024-0.133904 0.153-1.39637 0.153-1.81718 0.153z" fill="#f00"/><path d="m51.4195 315.576h2.238c0.36344 0 0.707744 0 0.707744-0.5547 0-0.3443-0.325168-0.3443-0.650352-0.3443h-2.14237l0.631232-3.4622c0.05738-0.3443 0.05738-0.3826 0.248672-0.5547 0.248656-0.2296 0.459072-0.2296 0.55472-0.2296 0.267792 0 0.439936 0.038 0.669488 0.1339-0.459088 0.2296-0.803392 0.7269-0.803392 1.2434 0 0.5738 0.459072 0.8799 0.93728 0.8799 0.784272 0 1.37725-0.6886 1.37725-1.4155 0-0.9755-0.994672-1.5303-2.18062-1.5303-0.89904 0-1.97022 0.3635-2.63971 1.4347-0.439952 0.7077-0.55472 1.4537-0.91816 3.5004h-1.87456c-0.36344 0-0.688624 0-0.688624 0.5548 0 0.3443 0.325184 0.3443 0.631232 0.3443h1.75981l-1.45374 8.1486c-0.03826 0.1722-0.248672 1.3772-0.34432 1.645-0.03826 0.096-0.344304 0.9756-0.956416 0.9756-0.363424 0-0.516464-0.057-0.650352-0.1147 0.478208-0.2296 0.841648-0.7269 0.841648-1.2625 0-0.5739-0.459088-0.8799-0.937296-0.8799-0.784256 0-1.37723 0.6886-1.37723 1.4155 0 1.0329 1.09032 1.5302 2.08498 1.5302 1.43462 0 2.4293-1.4155 2.58232-1.6641 0.822512-1.2625 1.26246-3.6918 1.31986-4.017z"/><path d="m51.4195 252.643h2.238c0.36344 0 0.70775 0 0.70775-0.5547 0-0.3443-0.32517-0.3443-0.65036-0.3443h-2.14236l0.63123-3.4622c0.0574-0.3443 0.0574-0.3826 0.24867-0.5547 0.24866-0.2296 0.45907-0.2296 0.55472-0.2296 0.26779 0 0.43994 0.038 0.66949 0.1339-0.45909 0.2296-0.80339 0.7269-0.80339 1.2434 0 0.5738 0.45907 0.8799 0.93728 0.8799 0.78427 0 1.37724-0.6886 1.37724-1.4155 0-0.9755-0.99467-1.5303-2.18062-1.5303-0.89904 0-1.97022 0.3635-2.63971 1.4347-0.43995 0.7077-0.55472 1.4537-0.91816 3.5004h-1.87456c-0.36344 0-0.68863 0-0.68863 0.5548 0 0.3443 0.32519 0.3443 0.63124 0.3443h1.7598l-1.45374 8.1486c-0.0383 0.1722-0.24867 1.3772-0.34432 1.645-0.0383 0.096-0.3443 0.9756-0.95642 0.9756-0.36342 0-0.51646-0.057-0.65035-0.1147 0.47821-0.2296 0.84165-0.7269 0.84165-1.2625 0-0.5739-0.45909-0.8799-0.9373-0.8799-0.78425 0-1.37723 0.6886-1.37723 1.4155 0 1.0329 1.09032 1.5302 2.08498 1.5302 1.43462 0 2.42929-1.4155 2.58232-1.6641 0.82251-1.2625 1.26246-3.6918 1.31985-4.017z"/><path d="m-55.9402 294.1c-0.765136 1.2816-1.51114 1.5494-2.35279 1.6068-0.229539 0.019-0.401692 0.019-0.401692 0.3825 0 0.1148 0.09564 0.2104 0.248667 0.2104 0.516464 0 1.10944-0.057 1.64503-0.057 0.631232 0 1.30072 0.057 1.91283 0.057 0.114768 0 0.36344 0 0.36344-0.3634 0-0.2104-0.17216-0.2295-0.306064-0.2295-0.439936-0.038-0.899024-0.1913-0.899024-0.6695 0-0.2296 0.114768-0.44 0.267792-0.7078l1.45376-2.4484h4.80118c0.03826 0.4017 0.306064 3.0032 0.306064 3.1944 0 0.5739-0.994672 0.6313-1.37725 0.6313-0.267792 0-0.459072 0-0.459072 0.3825 0 0.2104 0.229536 0.2104 0.267792 0.2104 0.784272 0 1.60678-0.057 2.39104-0.057 0.478208 0 1.68328 0.057 2.16149 0.057 0.114768 0 0.34432 0 0.34432-0.3825 0-0.2104-0.191296-0.2104-0.439952-0.2104-1.18595 0-1.18595-0.1339-1.24334-0.6887l-1.16682-11.9551c-0.03826-0.3826-0.03826-0.4591-0.36344-0.4591-0.306048 0-0.382576 0.1339-0.497344 0.3252zm2.29539-2.8119 3.76826-6.3123 0.612112 6.3123z"/><path d="m-40.5858 290.653c0-0.3615-0.02678-0.3749-0.401696-0.3749-0.856944 0.8436-2.07542 0.857-2.6244 0.857v0.482c0.321361 0 1.20507 0 1.94152-0.3749v6.8288c0 0.4418 0 0.6159-1.33898 0.6159h-0.508816v0.482c0.241008-0.013 1.88795-0.054 2.38338-0.054 0.415088 0 2.10221 0.04 2.39678 0.054v-0.482h-0.508816c-1.33898 0-1.33898-0.1741-1.33898-0.6159z"/><path d="m-56.1544 357.033c-0.765136 1.2816-1.51114 1.5494-2.35278 1.6068-0.229539 0.019-0.401693 0.019-0.401693 0.3825 0 0.1148 0.09564 0.2104 0.248667 0.2104 0.516464 0 1.10944-0.057 1.64503-0.057 0.631232 0 1.30072 0.057 1.91283 0.057 0.114768 0 0.36344 0 0.36344-0.3634 0-0.2104-0.17216-0.2295-0.306064-0.2295-0.439936-0.038-0.899024-0.1913-0.899024-0.6695 0-0.2296 0.114768-0.44 0.267792-0.7078l1.45376-2.4484h4.80118c0.03826 0.4017 0.306064 3.0032 0.306064 3.1944 0 0.5739-0.994672 0.6313-1.37725 0.6313-0.267792 0-0.459072 0-0.459072 0.3825 0 0.2104 0.229536 0.2104 0.267792 0.2104 0.784272 0 1.60678-0.057 2.39104-0.057 0.478208 0 1.68328 0.057 2.16149 0.057 0.114768 0 0.34432 0 0.34432-0.3825 0-0.2104-0.191296-0.2104-0.439952-0.2104-1.18595 0-1.18595-0.1339-1.24334-0.6887l-1.16682-11.9551c-0.03826-0.3826-0.03826-0.4591-0.36344-0.4591-0.306048 0-0.382576 0.1339-0.497344 0.3252zm2.29539-2.8119 3.76826-6.3123 0.612112 6.3123z"/><path d="m-38.5238 359.665h-0.455248c-0.04018 0.2946-0.174064 1.0846-0.348144 1.2185-0.107104 0.08-1.13813 0.08-1.32558 0.08h-2.46371c1.40592-1.2453 1.87456-1.6202 2.67795-2.2495 0.990848-0.79 1.91474-1.6202 1.91474-2.8922 0-1.6202-1.41931-2.611-3.1332-2.611-1.66034 0-2.78508 1.1649-2.78508 2.3968 0 0.6828 0.57576 0.7498 0.709659 0.7498 0.32136 0 0.709664-0.2276 0.709664-0.7097 0-0.241-0.09373-0.7096-0.790003-0.7096 0.415091-0.9507 1.32559-1.2453 1.95492-1.2453 1.33898 0 2.03525 1.0444 2.03525 2.129 0 1.1649-0.830176 2.0888-1.25864 2.5708l-3.22694 3.1868c-0.133898 0.1205-0.133898 0.1474-0.133898 0.5222h5.51659z"/><path d="m18.8369 294.101c-0.19128 0.746-0.22955 0.8991-1.74067 0.8991-0.32518 0-0.51647 0-0.51647 0.3825 0 0.2104 0.17216 0.2104 0.51647 0.2104h6.82879c3.02227 0 5.2794-2.2571 5.2794-4.1317 0-1.3772-1.10944-2.4866-2.96488-2.6971 1.98933-0.3634 3.99781-1.7789 3.99781-3.5961 0-1.4155-1.26246-2.6397-3.55785-2.6397h-6.42711c-0.36344 0-0.55472 0-0.55472 0.3826 0 0.2104 0.17216 0.2104 0.53559 0.2104 0.0383 0 0.40169 0 0.72688 0.038 0.3443 0.038 0.51646 0.057 0.51646 0.306 0 0.076-0.0191 0.1339-0.0765 0.3634zm2.88837-5.5089 1.18595-4.7438c0.17215-0.6695 0.2104-0.7269 1.03293-0.7269h2.46754c1.68329 0 2.08499 1.1286 2.08499 1.9702 0 1.6833-1.64504 3.5005-3.97869 3.5005zm-0.86078 6.408c-0.26779 0-0.30605 0-0.42082-0.019-0.19128-0.019-0.24867-0.038-0.24867-0.1913 0-0.057 0-0.096 0.0956-0.44l1.31985-5.3367h3.61524c1.83632 0 2.19976 1.4154 2.19976 2.238 0 1.8937-1.70242 3.7491-3.95956 3.7491z"/><path d="m-82.7497 339.102 2.02758-1.9702c2.98402-2.6397 4.13171-3.6727 4.13171-5.5855 0-2.1806-1.72154-3.7109-4.0552-3.7109-2.16149 0-3.57698 1.7598-3.57698 3.4622 0 1.0712 0.956419 1.0712 1.0138 1.0712 0.325184 0 0.994672-0.2295 0.994672-1.0138 0-0.4973-0.344304-0.9946-1.01379-0.9946-0.153024 0-0.19128 0-0.248672 0.019 0.439952-1.2434 1.47288-1.9511 2.58232-1.9511 1.74067 0 2.56318 1.5494 2.56318 3.1179 0 1.5302-0.956416 3.0414-2.00846 4.2273l-3.67263 4.0935c-0.210411 0.2104-0.210411 0.2486-0.210411 0.7077h7.0966l0.535584-3.3283h-0.478208c-0.09563 0.5738-0.229536 1.4155-0.420816 1.7024-0.133904 0.153-1.39637 0.153-1.81718 0.153z" fill="#f00"/><path d="m-71.3911 334.033c0 3.9595 3.09879 6.9627 6.65664 6.9627 3.11791 0 4.99248-2.6589 4.99248-4.8777 0-0.1913 0-0.3252-0.24867-0.3252-0.21042 0-0.21042 0.1147-0.22954 0.306-0.15302 2.7354-2.19976 4.3039-4.28473 4.3039-1.16683 0-4.91597-0.6504-4.91597-6.3506 0-5.7193 3.73002-6.3697 4.89683-6.3697 2.08499 0 3.78741 1.7407 4.16997 4.5334 0.0383 0.2678 0.0383 0.3252 0.30605 0.3252 0.30606 0 0.30606-0.057 0.30606-0.4591v-4.5334c0-0.3252 0-0.4591-0.21041-0.4591-0.0765 0-0.15303 0-0.30605 0.2296l-0.95642 1.4154c-0.70774-0.6886-1.68329-1.645-3.5196-1.645-3.57699 0-6.65664 3.0414-6.65664 6.9436z"/></g></g></g><g><path d="m23.4088 270.283h43.0542l-1.32703-3.3177 17.2512 4.6447-17.2512 4.6444 1.32703-3.3174h-43.0542v-2.654" clip-path="url(#p2985508f7a)" stroke-linejoin="round" stroke-miterlimit="1e5" stroke-width="1.48378"/><ellipse transform="matrix(.999924 -.0123414 .0117862 .999931 0 0)" cx="-51.9083" cy="270.488" rx="4.65455" ry="4.65596"/><ellipse transform="matrix(.999924 -.0123414 .0117862 .999931 0 0)" cx="20.2116" cy="271.378" rx="4.65455" ry="4.65596"/></g><path d="m-48.7166 334.042 72.1254 1e-4" fill="none" stroke="#000002" stroke-dasharray="2, 2" stroke-linejoin="round" stroke-miterlimit="100"/><path d="m18.8369 357.033c-0.19128 0.746-0.22955 0.8991-1.74067 0.8991-0.32518 0-0.51647 0-0.51647 0.3825 0 0.2104 0.17216 0.2104 0.51647 0.2104h6.82879c3.02227 0 5.2794-2.2571 5.2794-4.1317 0-1.3772-1.10944-2.4866-2.96488-2.6971 1.98933-0.3634 3.99781-1.7789 3.99781-3.5961 0-1.4155-1.26246-2.6397-3.55785-2.6397h-6.42711c-0.36344 0-0.55472 0-0.55472 0.3826 0 0.2104 0.17216 0.2104 0.53559 0.2104 0.0383 0 0.40169 0 0.72688 0.038 0.3443 0.038 0.51646 0.057 0.51646 0.306 0 0.077-0.0191 0.1339-0.0765 0.3634zm2.88837-5.5089 1.18595-4.7438c0.17215-0.6695 0.2104-0.7269 1.03293-0.7269h2.46754c1.68329 0 2.08499 1.1286 2.08499 1.9702 0 1.6833-1.64504 3.5005-3.97869 3.5005zm-0.86078 6.408c-0.26779 0-0.30605 0-0.42082-0.019-0.19128-0.019-0.24867-0.038-0.24867-0.1913 0-0.057 0-0.096 0.0956-0.44l1.31985-5.3367h3.61524c1.83632 0 2.19976 1.4154 2.19976 2.238 0 1.8937-1.70242 3.7491-3.95956 3.7491z" stroke-linejoin="round" stroke-miterlimit="1e5" stroke-width="1.33333"/><g><path d="m23.3437 333.216h102.098l-1.32703-3.3177 17.2512 4.6447-17.2512 4.6444 1.32703-3.3174h-102.098v-2.654" clip-path="url(#p2985508f7a)" stroke-linejoin="round" stroke-miterlimit="1e5" stroke-width="1.48378"/><ellipse transform="matrix(.999924 -.0123414 .0117862 .999931 0 0)" cx="-52.65" cy="333.416" rx="4.65455" ry="4.65596"/><ellipse transform="matrix(.999924 -.0123414 .0117862 .999931 0 0)" cx="19.4698" cy="334.306" rx="4.65455" ry="4.65596"/></g></g></svg>
