<?xml version="1.0" encoding="UTF-8"?>
<svg width="205.767" height="128" version="1.1" viewBox="0 0 205.76688 128" xmlns="http://www.w3.org/2000/svg"><g transform="translate(-15.3044 -267.551)"><path d="m138.277 309.338c2.60343 6.9082 4.02781 14.3944 4.02781 22.2133 0 34.7939-28.2061 63-63 63-34.7939 0-63-28.2061-63-63s28.2061-63 63-63c8.88496 0 17.3403 1.83927 25.0061 5.15784v35.6289z" fill="#fff8f8"/><circle cx="79.3044" cy="331.551" r="32" fill="#ffd7d7" stroke="#f00" stroke-linejoin="round" stroke-miterlimit="100"/><circle transform="rotate(-30.6912)" cx="-101.031" cy="325.589" r="1.96471"/><g><ellipse transform="matrix(.859789 -.51065 .510172 .860072 0 0)" cx="-100.002" cy="293.598" rx="4.65455" ry="4.65596" fill="#ef0000"/><path d="m68.3407 289.501c-0.688624 0.19128-1.03293 0.84163-1.03293 1.31984 0 0.42083 0.325184 0.8799 0.956416 0.8799 0.669488 0 1.37723-0.55472 1.37723-1.492 0-1.0138-1.01379-1.68329-2.18062-1.68329-1.0903 0-1.79805 0.82253-2.04672 1.16683-0.478208-0.80339-1.54939-1.16683-2.6397-1.16683-2.41016 0-3.71089 2.35278-3.71089 2.98401 0 0.2678 0.286923 0.2678 0.459078 0.2678 0.229539 0 0.363443 0 0.439955-0.24866 0.55472-1.74067 1.93195-2.31453 2.71621-2.31453 0.726881 0 1.07118 0.34431 1.07118 0.95642 0 0.36344-0.267792 1.41549-0.439953 2.10411l-0.650352 2.62056c-0.286928 1.16683-0.975552 1.74067-1.6259 1.74067-0.09565 0-0.5356 0-0.91816-0.28691 0.688608-0.19128 1.03293-0.84165 1.03293-1.31986 0-0.42081-0.325184-0.8799-0.956416-0.8799-0.669491 0-1.37724 0.55472-1.37724 1.49202 0 1.01379 1.0138 1.68328 2.18063 1.68328 1.0903 0 1.79805-0.82252 2.04672-1.16682 0.478209 0.80338 1.54939 1.16682 2.6397 1.16682 2.41016 0 3.71088-2.35277 3.71088-2.984 0-0.26781-0.286912-0.26781-0.459072-0.26781-0.229536 0-0.36344 0-0.439952 0.24867-0.55472 1.74067-1.93195 2.31451-2.71621 2.31451-0.72688 0-1.07118-0.3443-1.07118-0.9564 0-0.40169 0.248672-1.4155 0.420816-2.12325 0.133904-0.49732 0.573856-2.29539 0.669488-2.60144 0.286928-1.14769 0.956416-1.74067 1.6259-1.74067 0.09565 0 0.5356 0 0.91816 0.28693z" stroke-linejoin="round" stroke-miterlimit="1e5" stroke-width=".833333"/><path d="m101.907 336.161c2.96488-1.12857 5.77673-4.53341 5.77673-8.22515 0-3.07966-2.02758-5.1455-4.87769-5.1455-4.13172 0-8.33994 4.34211-8.33994 8.79899 0 3.17529 2.14237 5.10725 4.89685 5.10725 0.478208 0 1.12856-0.0765 1.87456-0.28692-0.0765 1.18596-0.0765 1.22421-0.0765 1.47287 0 0.61211 0 2.10411 1.58765 2.10411 2.27627 0 3.19441-3.50046 3.19441-3.71088 0-0.13392-0.13392-0.19128-0.2104-0.19128-0.15296 0-0.19128 0.0957-0.22953 0.21042-0.45909 1.35809-1.56853 1.8363-2.23802 1.8363-0.8799 0-1.16682-0.51646-1.35811-1.97021zm-3.61524-0.15296c-1.49202-0.59297-2.14237-2.08499-2.14237-3.80653 0-1.31985 0.497328-4.03606 1.95109-6.10192 1.39635-1.95108 3.19442-2.83097 4.59079-2.83097 1.91281 0 3.30918 1.492 3.30918 4.05518 0 1.91283-0.97553 6.38885-4.18909 8.1869-0.0957-0.66949-0.28692-2.06584-1.68329-2.06584-1.01379 0-1.95107 0.9564-1.95107 1.95107 0 0.38258 0.11472 0.59298 0.11472 0.61211zm1.18595 0.2104c-0.267808 0-0.879904 0-0.879904-0.82251 0-0.76512 0.72688-1.53026 1.53026-1.53026 0.80337 0 1.16683 0.45908 1.16683 1.62591 0 0.28693-0.0192 0.30605-0.21042 0.38256-0.49732 0.21041-1.07118 0.3443-1.60676 0.3443z" fill="#ef0000"/></g><g><path d="m116.845 287.066v-7.30016q-1.16914-1.05779-1.59365-1.69803l0.61937-0.62633q0.43146 0.53586 0.97428 1.06476v-4.20334h1.12042v5.17762q1.78851 1.41967 3.60485 2.27564l-0.62632 0.93253q-1.42663-0.75855-2.97853-1.98336v6.36067zm-7.99608-0.0417-0.57761-0.68896q2.5053-1.43359 4.05023-4.30772-1.51709-1.18306-2.68623-1.9416-0.57065 0.99516-1.1761 1.70499l-0.74463-0.51498q1.18306-1.64932 1.94161-3.57005 0.7655-1.92073 1.02995-3.37519l1.07171 0.11831q-0.0905 0.6472-0.41059 1.67019h3.52134q-0.0278 3.89713-1.79547 6.77823-1.76066 2.87413-4.22421 4.12678zm3.91801-5.92921q0.88381-2.1643 0.88381-4.1059h-2.59576q-0.44539 1.22481-1.00212 2.32436 1.23873 0.75855 2.71407 1.78154z"/><path d="m125.989 274.463q-0.43147 1.8581-1.47535 4.00848h0.45235v8.55281h-1.04387v-7.33496q-0.70984 1.44055-1.33616 2.17126l-0.66808-0.59849q0.96732-1.31528 1.81634-3.31952 0.84902-2.01119 1.16218-3.65356zm9.31831 11.3643q0 0.45235-0.37579 0.73072-0.3758 0.27836-0.75855 0.27836h-1.72587l-0.17398-0.96036h1.35008q0.25748 0 0.43842-0.16006 0.1879-0.16006 0.1879-0.39668v-10.9189h1.05779zm-4.89925-2.15038h-4.20333v-8.94252h4.20333zm-0.9882-6.20757v-1.94856h-2.21997v1.94856zm0 2.63056v-1.89985h-2.21997v1.89985zm0 0.74463h-2.21997v2.03208h2.21997zm3.3752 2.70016h-1.05084v-8.12134h1.05084zm-1.57277 2.74887-0.8699 0.52193q-0.27837-0.32012-0.8003-1.13434-0.51498-0.82118-0.69592-1.23177l0.8699-0.36188q0.45234 0.92557 1.49622 2.20606zm-3.44479-1.80243q-0.24357 0.48019-0.8351 1.27353-0.59153 0.78639-0.98124 1.12738l-0.72375-0.53585q0.38275-0.34796 0.90469-1.06475 0.52889-0.7168 0.73767-1.16218z"/><path d="m143.506 286.426-0.2714-0.93949q2.24085-0.20181 3.82754-1.30136 1.59364-1.09955 1.59364-3.28472 0-1.94857-1.28744-3.01332-1.28049-1.06475-3.57701-1.12738-0.0765 3.74403-1.34312 6.24932-1.26657 2.5053-3.17338 2.5053-1.18305 0-1.86505-1.00212-0.67504-1.00908-0.67504-2.45658 0-2.38699 2.05991-4.28684 2.05991-1.90681 4.87837-1.90681 2.65144 0 4.37036 1.32919 1.71891 1.32225 1.71891 3.61877 0 2.61664-1.73283 4.00152-1.73283 1.38487-4.52346 1.61452zm-0.80726-9.5758q-2.01815 0.3062-3.47262 1.83026-1.45446 1.51709-1.45446 3.43086 0 1.01604 0.4245 1.72587 0.42451 0.70288 1.18306 0.70288 1.30137 0 2.26869-2.42875 0.96732-2.4357 1.05083-5.26112z"/><path d="m162.504 279.369v-2.24781h-4.8227v2.86022h-1.06475v-2.86022h-4.59304v2.24781h-0.96037v-2.9646h5.55341v-0.89773h-4.66263v-0.74463h10.4666l0.0139 0.74463h-4.75311v0.89773h5.8109v2.9646zm-9.49229-0.91165v-0.59849h2.54705v0.59849zm5.74131 0v-0.59849h2.72103v0.59849zm-5.74131 1.32224v-0.59849h2.54705v0.59849zm5.74131 0v-0.59849h2.72103v0.59849zm-5.83874 4.98276v0.59849h-0.9882v-4.8227h10.6127v4.22421h-4.84358v0.61241q0 0.25749 0.13919 0.40363 0.13918 0.14614 0.39667 0.18094 0.26445 0.0348 0.84206 0.0696 0.57761 0.0278 1.16914 0.0278 0.69591 0 1.46142-0.0418 0.77247-0.0418 0.96732-0.0626 0.20182-0.0278 0.34796-0.14614 0.1531-0.11831 0.22269-0.34796 0.0766-0.22965 0.11135-1.44751l0.91165 0.13223v1.55189q0 0.29228-0.13918 0.51498-0.13223 0.22269-0.35492 0.35491-0.22269 0.13919-0.46626 0.19486-0.23661 0.0557-1.33616 0.0835-1.09259 0.0348-2.03208 0.0348-1.76066 0-2.31044-0.0835-0.54977-0.0765-0.78638-0.36188-0.23662-0.27837-0.23662-0.77943v-0.89077zm0.0418-2.4357h3.6466v-1.09259h-3.6466zm4.72527 0h3.82058v-1.09259h-3.82058zm3.82058 0.66807h-3.82058v1.0578h3.82058zm-4.89925 0h-3.6466v1.0578h3.6466z"/><path d="m174.516 276.307v0.93253h-1.09258v-0.93253h-3.61877v0.96037h-1.07867v-0.96037h-3.57701v-0.89077h3.57701v-1.01604h1.07867v1.01604h3.61877v-1.01604h1.09258v1.01604h3.63269v0.89077zm-7.67595 10.7589v-5.37943q-0.77943 1.15522-1.55885 1.89985l-0.64024-0.56369q1.00907-1.14826 1.96248-2.75583 0.96036-1.61452 1.30832-2.78366l1.05083 0.26445q-0.46626 1.23177-1.36399 2.72799h0.29924v6.59032zm9.08171-0.10438h-2.10863l-0.14614-0.9882h1.86505q0.53586 0 0.53586-0.48019v-6.56944h-6.51378v-0.91861h8.88685v0.91861h-1.26657v6.9174q0 0.5289-0.34795 0.82118-0.341 0.29925-0.90469 0.29925zm-5.24721-2.47051v0.42451h-1.02996v-4.57912h4.62089v4.15461zm2.53313-3.37519h-2.53313v2.54705h2.53313z"/><path d="m183.618 276.133q0 0.62633-0.0626 1.42663h2.67232q0.9882 0 1.54493 0.70983 0.56369 0.70288 0.56369 1.84418 0 2.80454-0.59153 4.64872t-2.07383 1.84418q-0.86293 0-2.42178-0.82118l0.34099-0.88382q0.3758 0.18094 1.04388 0.40364 0.67504 0.21573 0.92557 0.21573 0.57065 7e-3 0.90469-0.59849 0.341-0.6124 0.55673-1.71195 0.22269-1.10651 0.22269-2.6236 0-1.38488-0.37579-1.74675-0.36884-0.36884-0.98124-0.36884h-2.42179q-0.24357 2.36611-1.12738 4.53737-0.87686 2.17126-2.21998 3.67444l-0.78638-0.57065q0.90469-1.07171 1.79546-2.97852 0.89773-1.91377 1.2109-4.5165h-2.72104v-0.93252h2.83238q0.0487-0.48715 0.0487-2.80455h1.12042zm8.53889 5.76915-1.08563 0.28532q-0.94644-3.48654-2.76278-5.42814l0.81422-0.55674q0.9534 0.97429 1.83026 2.63753 0.87685 1.65628 1.20393 3.06203zm0.73071-5.98488-0.8003 0.32708q-0.46626-1.07867-0.99516-1.92769l0.73767-0.35492q0.48018 0.74463 1.05779 1.95553zm-1.99728 0.28532-0.8003 0.35492q-0.50106-1.12042-1.00908-1.94856l0.75159-0.34796q0.60545 0.93948 1.05779 1.9416z"/><path d="m211.065 286.28-0.99516 0.22965q-0.71679-2.28956-0.71679-4.96884 0-2.92285 0.9534-6.305l1.07171 0.1879q-0.96036 3.16642-0.96036 6.17277 0 2.47051 0.6472 4.68352zm9.4227-9.19305q-1.1065-0.0209-2.08774-0.0209-1.44055 0-5.21242 0.19486 0-0.31317-0.0418-0.93949 3.58397-0.20878 5.82482-0.20878 1.11346 0 1.4823 0.0209v0.0626q0 0.32013 0.0348 0.89078zm0.0835 8.85205q-1.45446 0.1531-2.84629 0.1531-1.93465 0-2.89501-0.22269-0.95341-0.22965-1.44751-0.75159t-0.4941-1.34312q0-1.19697 1.04388-2.52617l0.80726 0.43146q-0.85598 0.93949-0.85598 2.03208 0 0.54281 0.45931 0.87685 0.46626 0.33404 1.23873 0.44539 0.77942 0.10439 2.20605 0.10439 1.44751 0 2.78366-0.16702z"/><path d="m115.669 304.763v-9.37399h-1.05083q-0.95341 2.15038-2.23389 3.70227l-0.77247-0.54977q1.16914-1.49622 1.91377-3.27081 0.74463-1.77458 1.03691-3.12466l1.12043 0.1879q-0.29229 1.12042-0.72375 2.22693h6.40938v0.82814h-4.60696v2.15038h4.18246v0.84206h-4.18246v2.09471h4.25901v0.85597h-4.25901v3.43087zm-5.72739 0.11831v-7.09835q-0.70287 1.1761-1.53797 2.18518l-0.7168-0.57065q1.10651-1.41271 2.17126-3.54222 1.07171-2.13646 1.37792-3.68139l1.12042 0.20181q-0.37579 1.50318-1.60757 3.92497h0.23662v8.58065z"/><path d="m130.854 303.448q2.60969-0.62633 2.60969-2.68624 0-1.27352-0.96037-1.96944-0.96036-0.69592-2.56097-0.69592-1.09955 0-2.15038 0.27837-1.04387 0.27837-2.40787 1.13434-1.35704 0.85598-1.89289 1.30833l-0.51498-0.85598q4.23813-2.73495 8.2814-5.75523l-7.04267 0.0278v-0.92557h8.49714l0.48714 0.70984-4.90621 3.39607 0.0557 0.0835q0.84902-0.25749 1.69108-0.25749 1.99728 0 3.27776 0.91861 1.28745 0.91861 1.28745 2.54009 0 1.89985-1.57277 2.90197-1.57277 0.99516-4.21725 0.99516-3.63269 0-3.63269-1.99728 0-0.78638 0.75159-1.32224t1.64932-0.53586q1.25961 0 2.15734 0.70288 0.89774 0.70288 1.11347 2.00424zm-1.023 0.18094q-0.40363-1.99728-2.17125-1.99728-0.5637 0-1.01604 0.27836-0.44539 0.27837-0.44539 0.73767 0 1.06476 2.46354 1.06476 0.53586 0 1.16914-0.0835z"/><path d="m148.252 297.185v-2.24781h-4.8227v2.86022h-1.06475v-2.86022h-4.59304v2.24781h-0.96037v-2.9646h5.55341v-0.89773h-4.66264v-0.74463h10.4666l0.0139 0.74463h-4.75311v0.89773h5.8109v2.9646zm-9.49229-0.91165v-0.59848h2.54705v0.59848zm5.7413 0v-0.59848h2.72104v0.59848zm-5.7413 1.32224v-0.59848h2.54705v0.59848zm5.7413 0v-0.59848h2.72104v0.59848zm-5.83873 4.98276v0.59849h-0.9882v-4.8227h10.6127v4.22421h-4.84358v0.61241q0 0.25749 0.13919 0.40363 0.13918 0.14614 0.39667 0.18094 0.26445 0.0348 0.84206 0.0696 0.57761 0.0278 1.16913 0.0278 0.69592 0 1.46143-0.0418 0.77247-0.0418 0.96732-0.0626 0.20182-0.0278 0.34796-0.14614 0.1531-0.11831 0.22269-0.34796 0.0765-0.22965 0.11135-1.44751l0.91165 0.13223v1.55189q0 0.29229-0.13918 0.51498-0.13223 0.22269-0.35492 0.35492-0.22269 0.13918-0.46626 0.19485-0.23662 0.0557-1.33616 0.0835-1.09259 0.0348-2.03208 0.0348-1.76067 0-2.31044-0.0835-0.54977-0.0765-0.78638-0.36188-0.23662-0.27836-0.23662-0.77942v-0.89078zm0.0418-2.4357h3.6466v-1.09259h-3.6466zm4.72527 0h3.82058v-1.09259h-3.82058zm3.82058 0.66808h-3.82058v1.05779h3.82058zm-4.89925 0h-3.6466v1.05779h3.6466z"/><path d="m150.771 301.959-0.3062-0.91861q0.71679-0.14614 2.01815-0.50106v-4.62784h-1.56581v-0.82814h1.56581v-2.79063h1.07867v2.79063h1.37792v0.82814h-1.37792v4.32164q0.80726-0.24357 1.28049-0.42451l0.0974 0.73767q-0.8351 0.44538-4.16854 1.41271zm5.17065-5.07323v-4.33556h7.03572v4.33556zm1.05084-2.5053h4.92708v-1.05779h-4.92708zm4.92708 0.73071h-4.92708v1.02996h4.92708zm-7.11226 9.40879-0.53585-0.61241q2.26868-1.37791 3.69531-3.43086h-1.42663q-0.88381 0.9882-1.9764 1.69803l-0.50802-0.59153q1.80242-1.31528 2.61665-2.93676h-1.93465v-0.78639h9.29048v0.78639h-6.23541q-0.27836 0.54281-0.62632 1.04387h6.27716v0.51498q0 1.64932-0.0905 2.35915-0.12526 0.96733-0.36188 1.41967-0.1531 0.29229-0.51497 0.51498-0.36188 0.22269-0.79335 0.26445-0.11134 0.0139-1.64236 0.0139l-0.16006-0.89773h1.16914q0.43843 0 0.75159-0.20878 0.31316-0.20877 0.45234-1.05779 0.14615-0.85598 0.14615-1.96248v-0.17398h-0.80031q-1.37791 2.74887-3.89713 4.31468l-0.54977-0.53586q2.1643-1.53797 3.37519-3.77882h-1.47534q-0.74463 1.21785-1.93465 2.30348-1.18305 1.08563-2.31044 1.73979z"/><path d="m178.503 302.69-0.62632 0.85598q-0.67504-0.61241-2.40787-1.72588v0.42451q0 1.0578-0.70288 1.58669-0.69591 0.52194-2.37307 0.52194-1.13434 0-1.94856-0.54977-0.80727-0.54978-0.80727-1.47535 0-0.94644 0.77247-1.53101 0.77247-0.59153 1.86506-0.59153 1.07171 0 2.08774 0.25749v-4.11287h-4.89229v-0.93948h4.89229v-2.55401h1.09259v2.55401h2.59577v0.93948h-2.59577v4.49562q1.62149 0.65416 3.04811 1.84418zm-4.07806-0.44539v-0.84205q-0.8351-0.35492-2.12951-0.35492-0.72375 7e-3 -1.19001 0.33404-0.45931 0.32012-0.45931 0.89077 0 0.56369 0.53586 0.88381 0.53585 0.31317 1.27352 0.31317 1.96945 0 1.96945-1.22482zm-6.58337 1.85114-1.03692 0.22965q-0.70983-2.28956-0.70983-4.96884 0-2.92285 0.95341-6.305l1.06475 0.1879q-0.95341 3.14554-0.95341 5.9988 0 2.51921 0.682 4.85749z"/><path d="m192.359 295.292q-1.6702 2.95765-4.13374 4.8575l-0.75855-0.69592q1.9416-1.55885 3.23601-3.70227l-7.08443 1.05779v4.37035q0 0.98124 0.48714 1.46838 0.4941 0.48019 1.85114 0.48019h5.9292v1.02995h-6.22844q-3.2221 0-3.2221-2.89501v-4.27988l-2.9646 0.44538-0.12526-1.02299 3.14554-0.44539v-3.23601h1.21089v3.06899l7.9404-1.11346zm0.29924-1.79546-0.8003 0.32708q-0.46627-1.08563-0.99516-1.92073l0.72375-0.34796q0.56369 0.8699 1.07171 1.94161zm-2.02511 0.42451-0.80031 0.36187q-0.50802-1.15522-1.00908-1.95552l0.75159-0.341q0.61937 0.96036 1.0578 1.93465z"/><path d="m205.713 304.102h-11.1068v-10.1325h11.1068zm-1.18305-0.97428v-8.23269h-8.76855v8.23269z"/><path d="m204.892 278.773c-0.68862 0.19128-1.03293 0.84163-1.03293 1.31984 0 0.42083 0.32519 0.8799 0.95642 0.8799 0.66949 0 1.37723-0.55472 1.37723-1.492 0-1.0138-1.01379-1.68329-2.18062-1.68329-1.09031 0-1.79805 0.82253-2.04672 1.16683-0.47821-0.80339-1.5494-1.16683-2.6397-1.16683-2.41016 0-3.71089 2.35278-3.71089 2.98401 0 0.2678 0.28692 0.2678 0.45908 0.2678 0.22954 0 0.36344 0 0.43995-0.24866 0.55472-1.74067 1.93196-2.31453 2.71621-2.31453 0.72688 0 1.07119 0.34431 1.07119 0.95642 0 0.36344-0.2678 1.41549-0.43996 2.10411l-0.65035 2.62056c-0.28693 1.16683-0.97555 1.74067-1.6259 1.74067-0.0957 0-0.5356 0-0.91816-0.28691 0.68861-0.19128 1.03293-0.84165 1.03293-1.31986 0-0.42081-0.32519-0.8799-0.95642-0.8799-0.66949 0-1.37724 0.55472-1.37724 1.49202 0 1.01379 1.0138 1.68328 2.18063 1.68328 1.09031 0 1.79805-0.82252 2.04672-1.16682 0.47821 0.80338 1.54939 1.16682 2.6397 1.16682 2.41016 0 3.71088-2.35277 3.71088-2.984 0-0.26781-0.28691-0.26781-0.45907-0.26781-0.22954 0-0.36344 0-0.43996 0.24867-0.55472 1.74067-1.93195 2.31451-2.7162 2.31451-0.72688 0-1.07119-0.3443-1.07119-0.9564 0-0.40169 0.24867-1.4155 0.42082-2.12325 0.1339-0.49732 0.57385-2.29539 0.66949-2.60144 0.28692-1.14769 0.95641-1.74067 1.6259-1.74067 0.0957 0 0.5356 0 0.91816 0.28693z" stroke-linejoin="round" stroke-miterlimit="1e5" stroke-width=".833333"/></g><path d="m138.277 309.338c2.60343 6.9082 4.02781 14.3944 4.02781 22.2133 0 34.7939-28.2061 63-63 63-34.7939 0-63-28.2061-63-63s28.2061-63 63-63c8.88496 0 17.3403 1.83927 25.0061 5.15784" fill="none" stroke="#ff9494" stroke-linejoin="round" stroke-miterlimit="100"/></g></svg>
