<?xml version="1.0" encoding="UTF-8"?>
<svg width="202.559" height="149.901" version="1.1" viewBox="0 0 202.55927 149.90057" xmlns="http://www.w3.org/2000/svg"><defs><marker id="marker2174" overflow="visible" orient="auto"><path transform="matrix(-.8 0 0 -.8 -10 0)" d="m0 0 5-5-17.5 5 17.5 5z" fill="#f00" fill-rule="evenodd" stroke="#f00" stroke-width="1pt"/></marker><marker id="marker2002" overflow="visible" orient="auto"><path transform="matrix(-.8 0 0 -.8 -10 0)" d="m0 0 5-5-17.5 5 17.5 5z" fill-rule="evenodd" stroke="#000" stroke-width="1pt"/></marker><marker id="marker1556" overflow="visible" orient="auto"><path transform="matrix(-.8 0 0 -.8 -10 0)" d="m0 0 5-5-17.5 5 17.5 5z" fill="#f00" fill-rule="evenodd" stroke="#f00" stroke-width="1pt"/></marker><marker id="marker3891" overflow="visible" orient="auto"><path transform="matrix(-.8 0 0 -.8 -10 0)" d="m0 0 5-5-17.5 5 17.5 5z" fill="#00f" fill-rule="evenodd" stroke="#00f" stroke-width="1pt"/></marker><marker id="marker3319" overflow="visible" orient="auto"><path transform="matrix(-.8 0 0 -.8 -10 0)" d="m0 0 5-5-17.5 5 17.5 5z" fill="#00f" fill-rule="evenodd" stroke="#00f" stroke-width="1pt"/></marker></defs><g transform="translate(-15.8632 -258.076)"><g fill="none" stroke-miterlimit="100"><path d="m44.5495 390.219 20.49-96.9377" marker-end="url(#marker2174)" stroke="#f00" stroke-width=".7"/><path d="m44.5626 390.218 106.296-97.3473" marker-end="url(#marker2002)" stroke="#000" stroke-width="1.3"/><path d="m44.5495 390.219h85.2966" marker-end="url(#marker1556)" stroke="#f00" stroke-width=".7"/></g><g stroke-linejoin="round" stroke-miterlimit="1e5" stroke-width="1.33333"><path d="m22.2087 393.885h3.25179c2.71623 0 5.37506-1.98934 5.37506-4.13171 0-1.47288-1.26246-2.88837-3.76827-2.88837h-6.19757c-0.36342 0-0.57384 0-0.57384 0.36344 0 0.22954 0.17216 0.22954 0.55472 0.22954 0.24867 0 0.59298 0.0192 0.82251 0.0382 0.30605 0.0382 0.42082 0.0957 0.42082 0.30605 0 0.0765-0.0191 0.13392-0.0765 0.36344l-2.56319 10.2719c-0.19128 0.746-0.22953 0.89902-1.74067 0.89902-0.32518 0-0.53559 0-0.53559 0.36344 0 0.22954 0.22954 0.22954 0.28692 0.22954 0.5356 0 1.89371-0.0574 2.42929-0.0574 0.4017 0 0.82252 0.0192 1.22421 0.0192 0.42083 0 0.84165 0.0382 1.24335 0.0382 0.13388 0 0.38256 0 0.38256-0.38256 0-0.21042-0.17216-0.21042-0.53559-0.21042-0.70776 0-1.24334 0-1.24334-0.3443 0-0.11472 0.0382-0.21042 0.0574-0.32519zm1.37723-5.70022c0.17215-0.66949 0.2104-0.72688 1.03293-0.72688h1.83631c1.58764 0 2.60145 0.51646 2.60145 1.83632 0 0.746-0.38257 2.39102-1.12857 3.07965-0.95642 0.86077-2.10412 1.01379-2.94575 1.01379h-2.69709z"/><path d="m33.1336 394.283c0-0.36152-0.0268-0.37491-0.4017-0.37491-0.85694 0.84355-2.07542 0.85694-2.6244 0.85694v0.48204c0.32136 0 1.20508 0 1.94152-0.37492v6.82879c0 0.44187 0 0.61594-1.33897 0.61594h-0.50882v0.48203c0.24101-0.0128 1.88795-0.0536 2.38338-0.0536 0.41509 0 2.10221 0.0402 2.39678 0.0536v-0.48203h-0.50881c-1.33898 0-1.33898-0.17407-1.33898-0.61594z"/><path d="m166.652 282.471h3.2518c2.71622 0 5.37505-1.98934 5.37505-4.13171 0-1.47288-1.26246-2.88837-3.76827-2.88837h-6.19757c-0.36342 0-0.57384 0-0.57384 0.36344 0 0.22954 0.17216 0.22954 0.55472 0.22954 0.24867 0 0.59298 0.0192 0.82251 0.0382 0.30605 0.0382 0.42082 0.0957 0.42082 0.30605 0 0.0765-0.0191 0.13392-0.0765 0.36344l-2.56319 10.2719c-0.19128 0.746-0.22953 0.89902-1.74067 0.89902-0.32518 0-0.53559 0-0.53559 0.36344 0 0.22954 0.22954 0.22954 0.28693 0.22954 0.53559 0 1.8937-0.0574 2.42929-0.0574 0.40169 0 0.82251 0.0192 1.2242 0.0192 0.42084 0 0.84165 0.0382 1.24335 0.0382 0.13389 0 0.38256 0 0.38256-0.38256 0-0.21042-0.17216-0.21042-0.53559-0.21042-0.70776 0-1.24334 0-1.24334-0.3443 0-0.11472 0.0383-0.21042 0.0574-0.32519zm1.37724-5.70022c0.17214-0.66949 0.2104-0.72688 1.03292-0.72688h1.83631c1.58765 0 2.60145 0.51646 2.60145 1.83632 0 0.746-0.38257 2.39102-1.12857 3.07965-0.95642 0.86077-2.10411 1.01379-2.94575 1.01379h-2.69708z"/><path d="m179.853 288.948h-0.45525c-0.0402 0.29458-0.17406 1.08458-0.34814 1.21848-0.10711 0.0803-1.13813 0.0803-1.32559 0.0803h-2.46371c1.40592-1.24525 1.87456-1.62017 2.67795-2.24949 0.99085-0.79 1.91474-1.62016 1.91474-2.89219 0-1.62016-1.41931-2.61101-3.1332-2.61101-1.66034 0-2.78509 1.16492-2.78509 2.39677 0 0.68288 0.57576 0.74983 0.70966 0.74983 0.32136 0 0.70967-0.22762 0.70967-0.70965 0-0.24103-0.0937-0.70967-0.79001-0.70967 0.4151-0.95067 1.32559-1.24524 1.95492-1.24524 1.33898 0 2.03525 1.0444 2.03525 2.12897 0 1.16491-0.83018 2.0888-1.25864 2.57083l-3.22695 3.18677c-0.1339 0.12048-0.1339 0.14736-0.1339 0.52221h5.51659z"/></g><ellipse cx="44.5626" cy="390.218" rx="3.92161" ry="3.92308"/><ellipse cx="150.858" cy="292.871" rx="3.92161" ry="3.92308"/><g fill="#00f" stroke-linejoin="round" stroke-miterlimit="1e5" stroke-width="1.33333"><path d="m20.6097 265.6c-2.39102 0.57386-4.24646 3.06053-4.24646 5.37504 0 1.83632 1.22421 3.21355 3.02226 3.21355 2.23801 0 3.82566-3.00313 3.82566-5.64283 0-1.74067-0.76514-2.69709-1.4155-3.55785-0.68861-0.86079-1.81719-2.2954-1.81719-3.13704 0-0.42084 0.38258-0.87991 1.05207-0.87991 0.57384 0 0.95641 0.24867 1.35811 0.51647 0.38256 0.22953 0.76512 0.4782 1.05205 0.4782 0.4782 0 0.76513-0.45907 0.76513-0.76513 0-0.42082-0.30606-0.47821-0.99467-0.63123-0.99467-0.2104-1.26246-0.2104-1.56853-0.2104-1.492 0-2.18062 0.82251-2.18062 1.9702 0 1.03293 0.55472 2.10412 1.14769 3.27093zm0.22956 0.42083c0.4782 0.87989 1.05204 1.91282 1.05204 3.29005 0 1.26248-0.72688 4.4569-2.5058 4.4569-1.05205 0-1.83631-0.80339-1.83631-2.25714 0-1.20509 0.70775-4.8012 3.29007-5.48981z"/><path d="m28.6938 266.308h1.79806c0.38256 0 0.57386 0 0.57386-0.38256 0-0.21042-0.1913-0.21042-0.5356-0.21042h-1.68328c0.68861-2.71621 0.78425-3.09877 0.78425-3.21355 0-0.32517-0.22953-0.51647-0.55472-0.51647-0.0574 0-0.59297 0.0192-0.76513 0.68863l-0.746 3.04139h-1.79806c-0.38256 0-0.57385 0-0.57385 0.36344 0 0.22954 0.15303 0.22954 0.53559 0.22954h1.68329c-1.37723 5.43243-1.45375 5.75761-1.45375 6.10192 0 1.03292 0.72687 1.7598 1.7598 1.7598 1.95109 0 3.04139-2.79273 3.04139-2.94576 0-0.19128-0.15302-0.19128-0.22953-0.19128-0.17216 0-0.19128 0.0574-0.28693 0.2678-0.82251 1.98934-1.8363 2.44841-2.48667 2.44841-0.4017 0-0.59298-0.24865-0.59298-0.8799 0-0.45907 0.0383-0.59296 0.11477-0.91815z"/><path d="m35.5181 259.741c0.10712-0.22762 0.12051-0.33474 0.12051-0.42847 0-0.41508-0.37491-0.73644-0.79-0.73644-0.50882 0-0.66949 0.41508-0.73645 0.62932l-1.76744 5.79778c-0.0134 0.0267-0.067 0.20085-0.067 0.21424 0 0.16067 0.41508 0.29458 0.5222 0.29458 0.0937 0 0.10712-0.0267 0.20085-0.22764z"/><path d="m41.2479 269.789c1.28158 0 2.52493-0.11472 3.32832-0.38256 1.6259-0.55472 1.8937-1.64502 1.8937-2.25714 0-1.10944-1.05207-1.83632-2.62058-1.83632-3.46222 0-5.91064 2.39104-5.91064 5.35592 0 2.19975 1.47288 3.44309 3.99781 3.44309 0.49734 0 1.81718-0.0192 2.96488-0.45907 1.10944-0.43995 1.87457-1.22421 1.87457-1.45376 0-0.15296-0.30604-0.49733-0.4782-0.49733-0.11477 0-0.15303 0.0574-0.28693 0.21042-1.03291 1.0903-2.52493 1.51112-4.01693 1.51112-1.37723 0-1.87458-0.76512-1.87458-1.85544 0-0.36343 0.0765-0.99466 0.28693-1.77893zm-0.66949-0.68861c0.34431-1.39637 0.80338-1.91283 1.12856-2.21888 0.66949-0.66949 1.54939-0.8799 2.14237-0.8799 0.68862 0 1.47288 0.30605 1.47288 1.16683 0 1.93195-2.88837 1.93195-4.74381 1.93195z"/><path d="m50.8841 271.54h1.36576c0.2544 0 0.42846 0 0.42846-0.29457 0-0.18746-0.17406-0.18746-0.40168-0.18746h-1.27203l0.49542-1.9817c0.0134-0.0669 0.0402-0.13392 0.0402-0.18745 0-0.24103-0.18745-0.42848-0.45525-0.42848-0.33475 0-0.5356 0.22763-0.62932 0.57576-0.0937 0.33475 0.0804-0.30795-0.5088 2.02187h-1.36577c-0.2544 0-0.42847 0-0.42847 0.29458 0 0.18745 0.16068 0.18745 0.40169 0.18745h1.27203l-0.78999 3.15999c-0.0803 0.33475-0.20085 0.81676-0.20085 0.99084 0 0.79 0.66948 1.27204 1.4327 1.27204 1.48627 0 2.32982-1.87458 2.32982-2.04864 0-0.17407-0.17406-0.17407-0.21422-0.17407-0.16069 0-0.17408 0.0267-0.2812 0.2544-0.37491 0.84355-1.05779 1.59338-1.79422 1.59338-0.28119 0-0.46864-0.17407-0.46864-0.6561 0-0.13392 0.0536-0.41509 0.0803-0.54897z"/><path d="m56.7901 268.555c0.01-0.01 0.0957-0.19128 0.0957-0.33474 0-0.34432-0.30606-0.56429-0.59297-0.56429-0.39215 0-0.49735 0.2965-0.54517 0.43996l-1.47287 4.14126c-0.0383 0.11472-0.0383 0.14352-0.0383 0.15296 0 0.15296 0.40169 0.24867 0.41126 0.24867 0.0861 0 0.1052-0.0478 0.16259-0.16259z"/><path d="m174.75 396.115c-2.39102 0.57386-4.24647 3.06053-4.24647 5.37504 0 1.83632 1.22422 3.21355 3.02227 3.21355 2.23801 0 3.82566-3.00313 3.82566-5.64283 0-1.74067-0.76514-2.69709-1.4155-3.55785-0.68861-0.86079-1.81719-2.2954-1.81719-3.13704 0-0.42084 0.38258-0.87991 1.05207-0.87991 0.57384 0 0.95641 0.24867 1.35811 0.51647 0.38256 0.22953 0.76512 0.4782 1.05205 0.4782 0.4782 0 0.76513-0.45907 0.76513-0.76513 0-0.42082-0.30606-0.47821-0.99467-0.63123-0.99467-0.2104-1.26246-0.2104-1.56853-0.2104-1.492 0-2.18062 0.82251-2.18062 1.9702 0 1.03293 0.55472 2.10412 1.14769 3.27093zm0.22956 0.42083c0.4782 0.87989 1.05204 1.91282 1.05204 3.29005 0 1.26248-0.72688 4.4569-2.5058 4.4569-1.05205 0-1.83631-0.80339-1.83631-2.25714 0-1.20509 0.70775-4.8012 3.29007-5.48981z"/><path d="m185.283 398.697c0.11477-0.49734 0.55472-2.25713 1.89369-2.25713 0.0956 0 0.55472 0 0.95642 0.24867-0.5356 0.0957-0.91816 0.57384-0.91816 1.03293 0 0.30604 0.2104 0.66948 0.72686 0.66948 0.42084 0 1.03293-0.34432 1.03293-1.10944 0-0.99467-1.12856-1.26246-1.77893-1.26246-1.10944 0-1.77892 1.01379-2.00846 1.45374-0.47821-1.26246-1.51114-1.45374-2.06586-1.45374-1.98934 0-3.07964 2.46754-3.07964 2.94574 0 0.19128 0.19128 0.19128 0.22954 0.19128 0.15302 0 0.21041-0.0382 0.24866-0.2104 0.65037-2.0276 1.91284-2.5058 2.56319-2.5058 0.36344 0 1.03293 0.17216 1.03293 1.2816 0 0.59297-0.32519 1.87456-1.03293 4.55252-0.30605 1.18596-0.97554 1.98933-1.81719 1.98933-0.11476 0-0.55472 0-0.95641-0.24865 0.47821-0.0957 0.89904-0.49735 0.89904-1.03293 0-0.51647-0.42083-0.66949-0.70776-0.66949-0.57384 0-1.05205 0.49733-1.05205 1.10944 0 0.87989 0.95641 1.26246 1.79806 1.26246 1.26247 0 1.95108-1.33899 2.00847-1.45376 0.22953 0.70775 0.91816 1.45376 2.06585 1.45376 1.97021 0 3.06052-2.46755 3.06052-2.94576 0-0.19128-0.17215-0.19128-0.22954-0.19128-0.17216 0-0.21042 0.0765-0.24867 0.21042-0.63123 2.04672-1.93195 2.50579-2.54405 2.50579-0.746 0-1.05206-0.61209-1.05206-1.26246 0-0.42082 0.11476-0.84165 0.32518-1.68328z"/><path d="m193.67 390.256c0.10712-0.22762 0.12051-0.33474 0.12051-0.42847 0-0.41508-0.37491-0.73644-0.79-0.73644-0.50882 0-0.66949 0.41508-0.73645 0.62932l-1.76744 5.79778c-0.0134 0.0267-0.067 0.20085-0.067 0.21424 0 0.16067 0.41508 0.29458 0.5222 0.29458 0.0937 0 0.10712-0.0267 0.20085-0.22764z"/><path d="m199.4 400.304c1.28158 0 2.52492-0.11472 3.32832-0.38256 1.6259-0.55472 1.89369-1.64502 1.89369-2.25714 0-1.10944-1.05206-1.83632-2.62057-1.83632-3.46223 0-5.91064 2.39104-5.91064 5.35592 0 2.19975 1.47288 3.44309 3.9978 3.44309 0.49735 0 1.81719-0.0192 2.96488-0.45907 1.10944-0.43995 1.87458-1.22421 1.87458-1.45376 0-0.15296-0.30605-0.49733-0.47821-0.49733-0.11477 0-0.15302 0.0574-0.28693 0.21042-1.03291 1.0903-2.52492 1.51112-4.01692 1.51112-1.37724 0-1.87458-0.76512-1.87458-1.85544 0-0.36343 0.0765-0.99466 0.28693-1.77893zm-0.66949-0.68861c0.3443-1.39637 0.80337-1.91283 1.12856-2.21888 0.66949-0.66949 1.54939-0.8799 2.14237-0.8799 0.68862 0 1.47288 0.30605 1.47288 1.16683 0 1.93195-2.88837 1.93195-4.74381 1.93195z"/><path d="m209.076 405.924c-0.1339 0.45525-0.57576 1.17829-1.25864 1.17829-0.0402 0-0.44187 0-0.72305-0.18746 0.54897-0.17406 0.58915-0.65609 0.58915-0.73643 0-0.29458-0.22763-0.49542-0.53559-0.49542-0.37492 0-0.76322 0.32136-0.76322 0.81678 0 0.66949 0.74983 0.97746 1.40593 0.97746 0.61592 0 1.16491-0.38831 1.49965-0.95069 0.32136 0.70966 1.05779 0.95069 1.59339 0.95069 1.53982 0 2.35661-1.67373 2.35661-2.04864 0-0.17407-0.17408-0.17407-0.21424-0.17407-0.18746 0-0.20085 0.0669-0.25442 0.22762-0.28118 0.9239-1.08456 1.62016-1.8344 1.62016-0.53558 0-0.81677-0.36152-0.81677-0.87034 0-0.34813 0.32135-1.56659 0.69628-3.05286 0.26779-1.03101 0.87033-1.36576 1.31219-1.36576 0.0268 0 0.44187 0 0.72305 0.18745-0.42848 0.12048-0.58915 0.49543-0.58915 0.73645 0 0.29458 0.22762 0.49541 0.53559 0.49541 0.30796 0 0.74982-0.2544 0.74982-0.81677 0-0.74982-0.85694-0.97745-1.39253-0.97745-0.66949 0-1.20509 0.44185-1.49966 0.95067-0.24101-0.54898-0.85695-0.95067-1.60677-0.95067-1.49966 0-2.35661 1.64694-2.35661 2.04864 0 0.17406 0.18746 0.17406 0.22763 0.17406 0.17407 0 0.18746-0.0536 0.25441-0.22763 0.33475-1.0444 1.1783-1.62016 1.83439-1.62016 0.44188 0 0.8034 0.24102 0.8034 0.88373 0 0.26779-0.16068 0.93728-0.28119 1.39254z"/><path d="m217.827 399.07c0.01-0.01 0.0957-0.19128 0.0957-0.33474 0-0.34432-0.30607-0.56429-0.59298-0.56429-0.39214 0-0.49734 0.2965-0.54517 0.43996l-1.47287 4.14126c-0.0383 0.11472-0.0383 0.14352-0.0383 0.15296 0 0.15296 0.4017 0.24867 0.41126 0.24867 0.0861 0 0.10521-0.0478 0.16259-0.16259z"/></g><g fill="#f00" stroke-linejoin="round" stroke-miterlimit="1e5" stroke-width="1.33333"><path d="m74.6785 305.32c-2.39102 0.57386-4.24646 3.06053-4.24646 5.37504 0 1.83632 1.22421 3.21355 3.02226 3.21355 2.23801 0 3.82566-3.00313 3.82566-5.64283 0-1.74067-0.76514-2.69709-1.4155-3.55785-0.68861-0.86079-1.81719-2.2954-1.81719-3.13704 0-0.42084 0.38258-0.87991 1.05207-0.87991 0.57384 0 0.95641 0.24867 1.35811 0.51647 0.38256 0.22953 0.76512 0.4782 1.05205 0.4782 0.4782 0 0.76513-0.45907 0.76513-0.76513 0-0.42082-0.30606-0.47821-0.99467-0.63123-0.99467-0.2104-1.26246-0.2104-1.56853-0.2104-1.492 0-2.18062 0.82251-2.18062 1.9702 0 1.03293 0.55472 2.10412 1.14769 3.27093zm0.22956 0.42083c0.4782 0.87989 1.05204 1.91282 1.05204 3.29005 0 1.26248-0.72688 4.4569-2.5058 4.4569-1.05205 0-1.83631-0.80339-1.83631-2.25714 0-1.20509 0.70775-4.8012 3.29007-5.48981z"/><path d="m82.7626 306.028h1.79806c0.38256 0 0.57386 0 0.57386-0.38256 0-0.21042-0.1913-0.21042-0.5356-0.21042h-1.68328c0.68861-2.71621 0.78425-3.09877 0.78425-3.21355 0-0.32517-0.22953-0.51647-0.55472-0.51647-0.0574 0-0.59297 0.0192-0.76513 0.68863l-0.746 3.04139h-1.79806c-0.38256 0-0.57385 0-0.57385 0.36344 0 0.22954 0.15303 0.22954 0.53559 0.22954h1.68329c-1.37723 5.43243-1.45375 5.75761-1.45375 6.10192 0 1.03292 0.72687 1.7598 1.7598 1.7598 1.95109 0 3.04139-2.79273 3.04139-2.94576 0-0.19128-0.15302-0.19128-0.22953-0.19128-0.17216 0-0.19128 0.0574-0.28693 0.2678-0.82251 1.98934-1.8363 2.44841-2.48667 2.44841-0.4017 0-0.59298-0.24865-0.59298-0.8799 0-0.45907 0.0383-0.59296 0.11477-0.91815z"/><path d="m89.9503 309.509c1.28159 0 2.52493-0.11472 3.32832-0.38256 1.62591-0.55472 1.8937-1.64502 1.8937-2.25714 0-1.10944-1.05206-1.83632-2.62058-1.83632-3.46222 0-5.91063 2.39104-5.91063 5.35592 0 2.19975 1.47287 3.44309 3.9978 3.44309 0.49735 0 1.81719-0.0192 2.96488-0.45907 1.10944-0.43995 1.87458-1.22421 1.87458-1.45376 0-0.15296-0.30605-0.49733-0.47821-0.49733-0.11477 0-0.15302 0.0574-0.28693 0.21042-1.03291 1.0903-2.52493 1.51112-4.01693 1.51112-1.37723 0-1.87457-0.76512-1.87457-1.85544 0-0.36343 0.0765-0.99466 0.28693-1.77893zm-0.66948-0.68861c0.3443-1.39637 0.80337-1.91283 1.12856-2.21888 0.66948-0.66949 1.54939-0.8799 2.14236-0.8799 0.68863 0 1.47288 0.30605 1.47288 1.16683 0 1.93195-2.88836 1.93195-4.7438 1.93195z"/><path d="m99.5865 311.259h1.36576c0.2544 0 0.42846 0 0.42846-0.29457 0-0.18746-0.17406-0.18746-0.40168-0.18746h-1.27203l0.49542-1.9817c0.0134-0.0669 0.0402-0.13392 0.0402-0.18745 0-0.24103-0.18745-0.42848-0.45525-0.42848-0.33475 0-0.5356 0.22763-0.62932 0.57576-0.0937 0.33475 0.0804-0.30795-0.5088 2.02187h-1.36577c-0.2544 0-0.42847 0-0.42847 0.29458 0 0.18745 0.16068 0.18745 0.40169 0.18745h1.27203l-0.78999 3.15999c-0.0803 0.33475-0.20085 0.81676-0.20085 0.99084 0 0.79 0.66948 1.27204 1.4327 1.27204 1.48627 0 2.32982-1.87458 2.32982-2.04864 0-0.17407-0.17406-0.17407-0.21422-0.17407-0.16069 0-0.17408 0.0267-0.2812 0.2544-0.37491 0.84355-1.05779 1.59338-1.79422 1.59338-0.28119 0-0.46864-0.17407-0.46864-0.6561 0-0.13392 0.0536-0.41509 0.0803-0.54897z"/><path d="m91.1079 371.788c-2.39102 0.57386-4.24646 3.06053-4.24646 5.37504 0 1.83632 1.22421 3.21355 3.02226 3.21355 2.23801 0 3.82566-3.00313 3.82566-5.64283 0-1.74067-0.76514-2.69709-1.4155-3.55785-0.68861-0.86079-1.81719-2.2954-1.81719-3.13704 0-0.42084 0.38258-0.87991 1.05207-0.87991 0.57384 0 0.95641 0.24867 1.35811 0.51647 0.38256 0.22953 0.76512 0.4782 1.05205 0.4782 0.4782 0 0.76513-0.45907 0.76513-0.76513 0-0.42082-0.30606-0.47821-0.99467-0.63123-0.99467-0.2104-1.26246-0.2104-1.56853-0.2104-1.492 0-2.18062 0.82251-2.18062 1.9702 0 1.03293 0.55472 2.10412 1.14769 3.27093zm0.22956 0.42083c0.4782 0.87989 1.05204 1.91282 1.05204 3.29005 0 1.26248-0.72688 4.4569-2.5058 4.4569-1.05205 0-1.83631-0.80339-1.83631-2.25714 0-1.20509 0.70775-4.8012 3.29007-5.48981z"/><path d="m101.641 374.37c0.11477-0.49734 0.55472-2.25713 1.8937-2.25713 0.0956 0 0.55472 0 0.95641 0.24867-0.5356 0.0957-0.91816 0.57384-0.91816 1.03293 0 0.30604 0.2104 0.66948 0.72687 0.66948 0.42083 0 1.03292-0.34432 1.03292-1.10944 0-0.99467-1.12856-1.26246-1.77892-1.26246-1.10944 0-1.77893 1.01379-2.00847 1.45374-0.47821-1.26246-1.51113-1.45374-2.06585-1.45374-1.98935 0-3.07965 2.46754-3.07965 2.94574 0 0.19128 0.19128 0.19128 0.22954 0.19128 0.15302 0 0.21041-0.0382 0.24867-0.2104 0.65036-2.0276 1.91283-2.5058 2.56318-2.5058 0.36344 0 1.03293 0.17216 1.03293 1.2816 0 0.59297-0.32519 1.87456-1.03293 4.55252-0.30605 1.18596-0.97554 1.98933-1.81718 1.98933-0.11477 0-0.55472 0-0.95642-0.24865 0.47821-0.0957 0.89904-0.49735 0.89904-1.03293 0-0.51647-0.42083-0.66949-0.70776-0.66949-0.57384 0-1.05205 0.49733-1.05205 1.10944 0 0.87989 0.95641 1.26246 1.79807 1.26246 1.26246 0 1.95107-1.33899 2.00846-1.45376 0.22954 0.70775 0.91816 1.45376 2.06586 1.45376 1.9702 0 3.06051-2.46755 3.06051-2.94576 0-0.19128-0.17215-0.19128-0.22954-0.19128-0.17216 0-0.21041 0.0765-0.24867 0.21042-0.63123 2.04672-1.93195 2.50579-2.54405 2.50579-0.746 0-1.05206-0.61209-1.05206-1.26246 0-0.42082 0.11477-0.84165 0.32518-1.68328z"/><path d="m110.389 375.977c1.28159 0 2.52493-0.11472 3.32832-0.38256 1.62591-0.55472 1.8937-1.64502 1.8937-2.25714 0-1.10944-1.05206-1.83632-2.62058-1.83632-3.46222 0-5.91063 2.39104-5.91063 5.35592 0 2.19975 1.47287 3.44309 3.9978 3.44309 0.49735 0 1.81719-0.0192 2.96488-0.45907 1.10944-0.43995 1.87458-1.22421 1.87458-1.45376 0-0.15296-0.30605-0.49733-0.47821-0.49733-0.11477 0-0.15302 0.0574-0.28693 0.21042-1.03291 1.0903-2.52493 1.51112-4.01693 1.51112-1.37723 0-1.87457-0.76512-1.87457-1.85544 0-0.36343 0.0765-0.99466 0.28693-1.77893zm-0.66948-0.68861c0.3443-1.39637 0.80337-1.91283 1.12856-2.21888 0.66948-0.66949 1.54939-0.8799 2.14236-0.8799 0.68863 0 1.47288 0.30605 1.47288 1.16683 0 1.93195-2.88836 1.93195-4.7438 1.93195z"/><path d="m120.066 381.597c-0.13391 0.45525-0.57576 1.17829-1.25864 1.17829-0.0402 0-0.44188 0-0.72306-0.18746 0.54898-0.17406 0.58915-0.65609 0.58915-0.73643 0-0.29458-0.22763-0.49542-0.53559-0.49542-0.37491 0-0.76322 0.32136-0.76322 0.81678 0 0.66949 0.74983 0.97746 1.40593 0.97746 0.61592 0 1.16491-0.38831 1.49965-0.95069 0.32136 0.70966 1.05779 0.95069 1.59339 0.95069 1.53983 0 2.35661-1.67373 2.35661-2.04864 0-0.17407-0.17408-0.17407-0.21424-0.17407-0.18746 0-0.20085 0.0669-0.25442 0.22762-0.28118 0.9239-1.08456 1.62016-1.8344 1.62016-0.53558 0-0.81676-0.36152-0.81676-0.87034 0-0.34813 0.32134-1.56659 0.69627-3.05286 0.26779-1.03101 0.87033-1.36576 1.31219-1.36576 0.0268 0 0.44187 0 0.72306 0.18745-0.42848 0.12048-0.58916 0.49543-0.58916 0.73645 0 0.29458 0.22762 0.49541 0.53559 0.49541s0.74982-0.2544 0.74982-0.81677c0-0.74982-0.85694-0.97745-1.39253-0.97745-0.66948 0-1.20508 0.44185-1.49966 0.95067-0.24101-0.54898-0.85694-0.95067-1.60677-0.95067-1.49966 0-2.3566 1.64694-2.3566 2.04864 0 0.17406 0.18746 0.17406 0.22762 0.17406 0.17407 0 0.18746-0.0536 0.25441-0.22763 0.33475-1.0444 1.1783-1.62016 1.8344-1.62016 0.44187 0 0.80339 0.24102 0.80339 0.88373 0 0.26779-0.16067 0.93728-0.28119 1.39254z"/></g><g fill="none" stroke-miterlimit="100" stroke-width=".7"><path d="m65.0395 293.281h85.2966l-20.49 96.9377" stroke="#f00" stroke-dasharray="2.09999975, 2.09999975"/><g stroke="#00f"><path d="m30.636 280.951 120.518 11.7161 13.8651 109.275" stroke-dasharray="2.09999987, 2.09999987"/><path d="m44.5495 390.219 120.469 11.7226" marker-end="url(#marker3891)"/><path d="m44.5495 390.219-13.9135-109.268" marker-end="url(#marker3319)"/></g></g></g></svg>
