<?xml version="1.0" encoding="UTF-8"?>
<svg width="144.755" height="96.253" version="1.1" viewBox="0 0 144.75485 96.253029" xmlns="http://www.w3.org/2000/svg"><g transform="translate(-42.78 -282.414)"><path d="m43.28 288.116h143.755" fill="none" stroke="#000" stroke-miterlimit="100" stroke-width="2.1"/><g fill="#f44"><circle cx="68.5272" cy="327.966" r="7.64412" color="#000000" color-rendering="auto" image-rendering="auto" shape-rendering="auto" solid-color="#000000" style="isolation:auto;mix-blend-mode:normal"/><path d="m68.5267 337.018a13.3338 13.3338 0 0 0 -13.333 13.3341h26.6671a13.3338 13.3338 0 0 0 -13.3341 -13.3341z" color="#000000" color-rendering="auto" image-rendering="auto" shape-rendering="auto" solid-color="#000000" style="isolation:auto;mix-blend-mode:normal"/><path d="m51.9528 326.825c-0.018-0.054-0.09-0.198-0.09-0.252 0-0.018 0.018-0.036 0.324-0.27l1.746-1.368c2.412-1.872 3.204-2.502 4.446-2.61 0.126-0.018 0.306-0.018 0.306-0.324 0-0.108-0.054-0.198-0.198-0.198-0.198 0-0.414 0.036-0.612 0.036h-0.684c-0.558 0-1.152-0.036-1.692-0.036-0.126 0-0.342 0-0.342 0.324 0 0.18 0.126 0.198 0.234 0.198 0.198 0.018 0.432 0.09 0.432 0.342 0 0.36-0.54 0.792-0.684 0.9l-7.056 5.49 1.494-5.94c0.162-0.612 0.198-0.792 1.476-0.792 0.342 0 0.504 0 0.504-0.342 0-0.18-0.18-0.18-0.27-0.18-0.324 0-0.702 0.036-1.044 0.036h-2.124c-0.324 0-0.72-0.036-1.044-0.036-0.144 0-0.342 0-0.342 0.342 0 0.18 0.162 0.18 0.432 0.18 1.098 0 1.098 0.144 1.098 0.342 0 0.036 0 0.144-0.072 0.414l-2.43 9.684c-0.162 0.63-0.198 0.81-1.458 0.81-0.342 0-0.522 0-0.522 0.324 0 0.198 0.162 0.198 0.27 0.198 0.342 0 0.702-0.036 1.044-0.036h2.106c0.342 0 0.72 0.036 1.062 0.036 0.144 0 0.342 0 0.342-0.342 0-0.18-0.162-0.18-0.432-0.18-1.098 0-1.098-0.144-1.098-0.324 0-0.126 0.108-0.576 0.18-0.864l0.702-2.79 2.736-2.142c0.522 1.152 1.476 3.456 2.214 5.22 0.054 0.108 0.09 0.216 0.09 0.342 0 0.54-0.72 0.558-0.882 0.558s-0.342 0-0.342 0.342c0 0.18 0.198 0.18 0.252 0.18 0.63 0 1.296-0.036 1.926-0.036h0.864c0.27 0 0.576 0.036 0.846 0.036 0.108 0 0.306 0 0.306-0.342 0-0.18-0.162-0.18-0.342-0.18-0.666-0.018-0.9-0.162-1.17-0.81z"/></g><circle cx="129.766" cy="327.966" r="7.64412" color="#000000" color-rendering="auto" fill="#44f" image-rendering="auto" shape-rendering="auto" solid-color="#000000" style="isolation:auto;mix-blend-mode:normal"/><path d="m129.766 337.018a13.3338 13.3338 0 0 0 -13.333 13.3341h26.6671a13.3338 13.3338 0 0 0 -13.3341 -13.3341z" color="#000000" color-rendering="auto" fill="#44f" image-rendering="auto" shape-rendering="auto" solid-color="#000000" style="isolation:auto;mix-blend-mode:normal"/><g fill="#00f" stroke-linejoin="round" stroke-miterlimit="1e5"><path d="m109.192 326.825c-0.018-0.054-0.09-0.198-0.09-0.252 0-0.018 0.018-0.036 0.324-0.27l1.746-1.368c2.412-1.872 3.204-2.502 4.446-2.61 0.126-0.018 0.306-0.018 0.306-0.324 0-0.108-0.054-0.198-0.198-0.198-0.198 0-0.414 0.036-0.612 0.036h-0.684c-0.558 0-1.152-0.036-1.692-0.036-0.126 0-0.342 0-0.342 0.324 0 0.18 0.126 0.198 0.234 0.198 0.198 0.018 0.432 0.09 0.432 0.342 0 0.36-0.54 0.792-0.684 0.9l-7.056 5.49 1.494-5.94c0.162-0.612 0.198-0.792 1.476-0.792 0.342 0 0.504 0 0.504-0.342 0-0.18-0.18-0.18-0.27-0.18-0.324 0-0.702 0.036-1.044 0.036h-2.124c-0.324 0-0.72-0.036-1.044-0.036-0.144 0-0.342 0-0.342 0.342 0 0.18 0.162 0.18 0.432 0.18 1.098 0 1.098 0.144 1.098 0.342 0 0.036 0 0.144-0.072 0.414l-2.43 9.684c-0.162 0.63-0.198 0.81-1.458 0.81-0.342 0-0.522 0-0.522 0.324 0 0.198 0.162 0.198 0.27 0.198 0.342 0 0.702-0.036 1.044-0.036h2.106c0.342 0 0.72 0.036 1.062 0.036 0.144 0 0.342 0 0.342-0.342 0-0.18-0.162-0.18-0.432-0.18-1.098 0-1.098-0.144-1.098-0.324 0-0.126 0.108-0.576 0.18-0.864l0.702-2.79 2.736-2.142c0.522 1.152 1.476 3.456 2.214 5.22 0.054 0.108 0.09 0.216 0.09 0.342 0 0.54-0.72 0.558-0.882 0.558s-0.342 0-0.342 0.342c0 0.18 0.198 0.18 0.252 0.18 0.63 0 1.296-0.036 1.926-0.036h0.864c0.27 0 0.576 0.036 0.846 0.036 0.108 0 0.306 0 0.306-0.342 0-0.18-0.162-0.18-0.342-0.18-0.666-0.018-0.9-0.162-1.17-0.81z" stroke-width="1.5"/><path d="m119.659 320.977c0.06-0.156 0.108-0.24 0.108-0.36 0-0.396-0.36-0.66-0.696-0.66-0.48 0-0.612 0.42-0.66 0.588l-1.524 5.172c-0.048 0.144-0.048 0.18-0.048 0.192 0 0.108 0.072 0.132 0.192 0.168 0.216 0.096 0.24 0.096 0.264 0.096 0.036 0 0.108 0 0.192-0.204z" stroke-width="1.5"/><path d="m145.696 335.946h23.7146l-0.50753-4.30453 9.95672 6.02637-9.95672 6.02637 0.50753-4.30456h-23.7146v-3.44365" clip-path="url(#p2985508f7a)"/></g><g shape-rendering="auto"><circle cx="55.0533" cy="287.844" r="4.92996" color="#000000" color-rendering="auto" fill="#f00" image-rendering="auto" solid-color="#000000" style="isolation:auto;mix-blend-mode:normal"/><path d="m55.0586 283.411c-0.348128 0-0.788595 0.33315-0.892578 0.60351s-0.07813 0.43233-0.07813 0.50977v2.34766h-2.34766c-0.07744 0-0.239398-0.0259-0.509766 0.0781-0.270367 0.10399-0.605468 0.54641-0.605469 0.89453 0 0.34812 0.335099 0.7886 0.605469 0.89258 0.270371 0.10398 0.432344 0.0781 0.509766 0.0781h2.34766v2.34766c0 0.0774-0.02585 0.23941 0.07813 0.50977 0.103978 0.27035 0.544439 0.60547 0.892578 0.60546 0.34814 0 0.790553-0.33511 0.894532-0.60546 0.103978-0.27036 0.07617-0.43233 0.07617-0.50977v-2.34766h2.33789c0.07744 0 0.239405 0.0259 0.509766-0.0781 0.270361-0.10398 0.605468-0.54445 0.605468-0.89258s-0.335111-0.79054-0.605468-0.89453c-0.270358-0.10399-0.432313-0.0781-0.509766-0.0781h-2.33789v-2.34766c0-0.0774 0.02781-0.23941-0.07617-0.50977-0.103983-0.27036-0.546403-0.60351-0.894532-0.60351z" color="#000000" color-rendering="auto" fill="#fff" image-rendering="auto" solid-color="#000000" style="isolation:auto;mix-blend-mode:normal;text-decoration-color:#000000;text-decoration-line:none;text-decoration-style:solid;text-indent:0;text-transform:none;white-space:normal"/><circle cx="79.0949" cy="287.844" r="4.92996" color="#000000" color-rendering="auto" fill="#f00" image-rendering="auto" solid-color="#000000" style="isolation:auto;mix-blend-mode:normal"/><path d="m79.1002 283.411c-0.348128 0-0.788595 0.33315-0.892578 0.60351s-0.07813 0.43233-0.07813 0.50977v2.34766h-2.34766c-0.07744 0-0.239398-0.0259-0.509766 0.0781-0.270367 0.10399-0.605468 0.54641-0.605469 0.89453 0 0.34812 0.335099 0.7886 0.605469 0.89258 0.270371 0.10398 0.432344 0.0781 0.509766 0.0781h2.34766v2.34766c0 0.0774-0.02585 0.23941 0.07813 0.50977 0.103978 0.27035 0.544439 0.60547 0.892578 0.60546 0.34814 0 0.790553-0.33511 0.894532-0.60546 0.103978-0.27036 0.07617-0.43233 0.07617-0.50977v-2.34766h2.33789c0.07744 0 0.239405 0.0259 0.509766-0.0781 0.270361-0.10398 0.605468-0.54445 0.605468-0.89258s-0.335111-0.79054-0.605468-0.89453c-0.270358-0.10399-0.432313-0.0781-0.509766-0.0781h-2.33789v-2.34766c0-0.0774 0.02781-0.23941-0.07617-0.50977-0.103983-0.27036-0.546403-0.60351-0.894532-0.60351z" color="#000000" color-rendering="auto" fill="#fff" image-rendering="auto" solid-color="#000000" style="isolation:auto;mix-blend-mode:normal;text-decoration-color:#000000;text-decoration-line:none;text-decoration-style:solid;text-indent:0;text-transform:none;white-space:normal"/><circle cx="103.137" cy="287.844" r="4.92996" color="#000000" color-rendering="auto" fill="#f00" image-rendering="auto" solid-color="#000000" style="isolation:auto;mix-blend-mode:normal"/><path d="m103.142 283.411c-0.34813 0-0.7886 0.33315-0.89258 0.60351-0.10399 0.27036-0.0781 0.43233-0.0781 0.50977v2.34766h-2.34766c-0.07744 0-0.239398-0.0259-0.509766 0.0781-0.270367 0.10399-0.605468 0.54641-0.605469 0.89453 0 0.34812 0.335099 0.7886 0.605469 0.89258 0.270371 0.10398 0.432344 0.0781 0.509766 0.0781h2.34766v2.34766c0 0.0774-0.0258 0.23941 0.0781 0.50977 0.10398 0.27035 0.54444 0.60547 0.89258 0.60546 0.34814 0 0.79055-0.33511 0.89453-0.60546 0.10398-0.27036 0.0762-0.43233 0.0762-0.50977v-2.34766h2.33789c0.0774 0 0.2394 0.0259 0.50976-0.0781 0.27037-0.10398 0.60547-0.54445 0.60547-0.89258s-0.33511-0.79054-0.60547-0.89453c-0.27035-0.10399-0.43231-0.0781-0.50976-0.0781h-2.33789v-2.34766c0-0.0774 0.0278-0.23941-0.0762-0.50977-0.10399-0.27036-0.54641-0.60351-0.89453-0.60351z" color="#000000" color-rendering="auto" fill="#fff" image-rendering="auto" solid-color="#000000" style="isolation:auto;mix-blend-mode:normal;text-decoration-color:#000000;text-decoration-line:none;text-decoration-style:solid;text-indent:0;text-transform:none;white-space:normal"/><circle cx="127.178" cy="287.844" r="4.92996" color="#000000" color-rendering="auto" fill="#f00" image-rendering="auto" solid-color="#000000" style="isolation:auto;mix-blend-mode:normal"/><path d="m127.184 283.411c-0.34813 0-0.7886 0.33315-0.89258 0.60351-0.10399 0.27036-0.0781 0.43233-0.0781 0.50977v2.34766h-2.34766c-0.0774 0-0.2394-0.0259-0.50976 0.0781-0.27037 0.10399-0.60547 0.54641-0.60547 0.89453s0.3351 0.7886 0.60547 0.89258 0.43234 0.0781 0.50976 0.0781h2.34766v2.34766c0 0.0774-0.0258 0.23941 0.0781 0.50977 0.10398 0.27035 0.54444 0.60547 0.89258 0.60546 0.34814 0 0.79055-0.33511 0.89453-0.60546 0.10398-0.27036 0.0762-0.43233 0.0762-0.50977v-2.34766h2.33789c0.0774 0 0.2394 0.0259 0.50976-0.0781 0.27037-0.10398 0.60547-0.54445 0.60547-0.89258s-0.33511-0.79054-0.60547-0.89453c-0.27035-0.10399-0.43231-0.0781-0.50976-0.0781h-2.33789v-2.34766c0-0.0774 0.0278-0.23941-0.0762-0.50977-0.10399-0.27036-0.54641-0.60351-0.89453-0.60351z" color="#000000" color-rendering="auto" fill="#fff" image-rendering="auto" solid-color="#000000" style="isolation:auto;mix-blend-mode:normal;text-decoration-color:#000000;text-decoration-line:none;text-decoration-style:solid;text-indent:0;text-transform:none;white-space:normal"/><circle cx="151.22" cy="287.844" r="4.92996" color="#000000" color-rendering="auto" fill="#f00" image-rendering="auto" solid-color="#000000" style="isolation:auto;mix-blend-mode:normal"/><path d="m151.225 283.411c-0.34813 0-0.7886 0.33315-0.89258 0.60351-0.10399 0.27036-0.0781 0.43233-0.0781 0.50977v2.34766h-2.34766c-0.0774 0-0.2394-0.0259-0.50976 0.0781-0.27037 0.10399-0.60547 0.54641-0.60547 0.89453s0.3351 0.7886 0.60547 0.89258 0.43234 0.0781 0.50976 0.0781h2.34766v2.34766c0 0.0774-0.0259 0.23941 0.0781 0.50977 0.10398 0.27035 0.54444 0.60547 0.89258 0.60546 0.34814 0 0.79055-0.33511 0.89453-0.60546 0.10398-0.27036 0.0762-0.43233 0.0762-0.50977v-2.34766h2.33789c0.0774 0 0.2394 0.0259 0.50976-0.0781 0.27037-0.10398 0.60547-0.54445 0.60547-0.89258s-0.33511-0.79054-0.60547-0.89453c-0.27035-0.10399-0.43231-0.0781-0.50976-0.0781h-2.33789v-2.34766c0-0.0774 0.0278-0.23941-0.0762-0.50977-0.10399-0.27036-0.54641-0.60351-0.89453-0.60351z" color="#000000" color-rendering="auto" fill="#fff" image-rendering="auto" solid-color="#000000" style="isolation:auto;mix-blend-mode:normal;text-decoration-color:#000000;text-decoration-line:none;text-decoration-style:solid;text-indent:0;text-transform:none;white-space:normal"/><circle cx="175.261" cy="287.844" r="4.92996" color="#000000" color-rendering="auto" fill="#f00" image-rendering="auto" solid-color="#000000" style="isolation:auto;mix-blend-mode:normal"/><path d="m175.267 283.411c-0.34813 0-0.7886 0.33315-0.89258 0.60351s-0.0781 0.43233-0.0781 0.50977v2.34766h-2.34766c-0.0774 0-0.2394-0.0259-0.50976 0.0781-0.27037 0.10399-0.60547 0.54641-0.60547 0.89453s0.3351 0.7886 0.60547 0.89258 0.43234 0.0781 0.50976 0.0781h2.34766v2.34766c0 0.0774-0.0258 0.23941 0.0781 0.50977 0.10398 0.27035 0.54444 0.60547 0.89258 0.60546 0.34814 0 0.79055-0.33511 0.89453-0.60546 0.10398-0.27036 0.0762-0.43233 0.0762-0.50977v-2.34766h2.33789c0.0774 0 0.2394 0.0259 0.50976-0.0781 0.27037-0.10398 0.60547-0.54445 0.60547-0.89258s-0.33511-0.79054-0.60547-0.89453c-0.27035-0.10399-0.43231-0.0781-0.50976-0.0781h-2.33789v-2.34766c0-0.0774 0.0278-0.23941-0.0762-0.50977-0.10399-0.27036-0.54641-0.60351-0.89453-0.60351z" color="#000000" color-rendering="auto" fill="#fff" image-rendering="auto" solid-color="#000000" style="isolation:auto;mix-blend-mode:normal;text-decoration-color:#000000;text-decoration-line:none;text-decoration-style:solid;text-indent:0;text-transform:none;white-space:normal"/></g><g stroke-linejoin="round" stroke-miterlimit="1e5" stroke-width="1.33333"><path d="m108.993 376.675c-0.0765 0.30606-0.0956 0.32518-0.43995 0.36344-0.32517 0.0192-0.70774 0.0192-1.01379 0.0192-0.49734 0-0.53559 0-0.61211 0.0382-0.22954 0.13392-0.22954 0.43995-0.22954 0.51646 0 0.34431 0.34431 0.34431 0.65037 0.34431h8.11039c3.99781 0 5.79587-2.52493 5.79587-4.22735 0-1.64504-1.43462-2.46755-3.19443-2.62057 3.06053-0.55472 4.1508-2.33365 4.1508-3.61525 0-1.56851-1.37721-2.65883-4.07429-2.65883h-7.67044c-0.38256 0-0.70774 0-0.70774 0.55472 0 0.34432 0.24867 0.34432 0.80339 0.34432 0.40168 0 0.76512 0.0192 1.16681 0.0382zm5.12639-10.5971c0.0765-0.28693 0.0956-0.30605 0.2104-0.32518 0.17216-0.0192 0.30607-0.0192 0.51647-0.0192h2.85011c0.38257 0 1.93197 0 1.93197 1.66416 0 1.33897-1.07119 3.38569-3.67264 3.38569h-3.02226zm-2.27627 10.9796c-0.28693 0-0.32518 0-0.45908-0.0192l1.37724-5.56632h3.73002c0.49732 0 2.10411 0 2.10411 1.95109 0 1.47287-0.97555 3.63437-3.69176 3.63437z"/><path d="m127.256 363.242c0.10712-0.22762 0.12051-0.33474 0.12051-0.42846 0-0.41509-0.37491-0.73645-0.79-0.73645-0.50881 0-0.66948 0.41509-0.73645 0.62933l-1.76744 5.79777c-0.0134 0.0267-0.0669 0.20085-0.0669 0.21424 0 0.16067 0.41509 0.29458 0.5222 0.29458 0.0937 0 0.10712-0.0267 0.20085-0.22763z"/><path d="m147.194 371.702c0.28693 0 0.65037 0 0.65037-0.38256s-0.36344-0.38257-0.63123-0.38257h-11.4578c-0.2678 0-0.63123 0-0.63123 0.38257 0 0.38258 0.36343 0.38256 0.65036 0.38256zm0.0191 3.71088c0.26779 0 0.63123 0 0.63123-0.38256s-0.36344-0.38256-0.65037-0.38256h-11.4196c-0.28693 0-0.65037 0-0.65037 0.38256s0.36344 0.38256 0.63124 0.38256z"/><path d="m164.308 371.855c0-1.85544-0.0191-6.42711-4.62904-6.42711-4.60992 0-4.62903 4.55253-4.62903 6.42711 0 1.89369 0.0191 6.31233 4.62903 6.31233 4.59078 0 4.62904-4.3995 4.62904-6.31233zm-4.62904 5.62371c-0.68861 0-1.75979-0.42082-2.00846-1.81718-0.17216-0.99468-0.17216-2.98402-0.17216-4.03607 0-1.37723 0-2.62057 0.15304-3.61525 0.22953-1.70241 1.56851-1.89369 2.02758-1.89369 0.70774 0 1.49202 0.36344 1.85544 1.20509 0.32518 0.70774 0.32518 2.73534 0.32518 4.30385 0 1.07119 0 2.81186-0.13388 3.80653-0.26781 1.77893-1.47288 2.04672-2.04674 2.04672z"/><path d="m172.114 373.959 0.746-8.7225c0-0.63123-0.51645-0.97553-1.01379-0.97553-0.49733 0-1.01381 0.3443-1.01381 0.97553l0.74602 8.70336c0.0191 0.28693 0.0383 0.43996 0.26779 0.43996 0.19128 0 0.24867-0.0957 0.26779-0.42082zm0.746 2.98402c0-0.55472-0.45906-1.01381-1.01379-1.01381-0.55472 0-1.01381 0.45909-1.01381 1.01381s0.45909 1.01379 1.01381 1.01379c0.55473 0 1.01379-0.45907 1.01379-1.01379z"/><path d="m178.977 373.194c0-2.41016 1.85546-3.76825 2.52495-4.2656 0.51646-0.38256 0.91814-1.07118 0.91814-1.87457 0-1.10944-0.76512-2.58231-3.61523-2.58231-2.06586 0-3.25181 1.30072-3.25181 2.54405 0 0.65037 0.43995 0.91816 0.87991 0.91816 0.53558 0 0.87988-0.38256 0.87988-0.8799 0-0.86077-0.80337-0.86077-1.07116-0.86077 0.59297-1.01379 1.70241-1.30072 2.50579-1.30072 2.08499 0 2.08499 1.30072 2.08499 2.04672 0 1.12858-0.30606 1.47288-0.65037 1.81718-1.26246 1.37725-1.68328 3.13704-1.68328 4.30388v0.86076c0 0.34431 0 0.45908 0.22954 0.45908 0.24865 0 0.24865-0.17215 0.24865-0.51647zm0.76514 3.74916c0-0.55472-0.45907-1.01381-1.01379-1.01381s-1.01381 0.45909-1.01381 1.01381 0.45909 1.01379 1.01381 1.01379 1.01379-0.45907 1.01379-1.01379z"/></g></g></svg>
