<?xml version="1.0" encoding="UTF-8"?>
<svg width="198.996" height="117.161" version="1.1" viewBox="0 0 198.9957 117.16147" xmlns="http://www.w3.org/2000/svg"><defs><marker id="marker5190" overflow="visible" orient="auto"><path transform="matrix(-.8 0 0 -.8 -10 0)" d="m0 0 5-5-17.5 5 17.5 5z" fill-rule="evenodd" stroke="#000" stroke-width="1pt"/></marker><marker id="marker2159" overflow="visible" orient="auto"><path transform="matrix(-.8 0 0 -.8 -10 0)" d="m0 0 5-5-17.5 5 17.5 5z" fill="#0d0000" fill-rule="evenodd" stroke="#0d0000" stroke-width="1pt"/></marker><marker id="marker4573" overflow="visible" orient="auto"><path transform="matrix(-.8 0 0 -.8 -10 0)" d="m0 0 5-5-17.5 5 17.5 5z" fill-rule="evenodd" stroke="#000" stroke-width="1pt"/></marker><marker id="marker4754" overflow="visible" orient="auto"><path transform="matrix(-.8 0 0 -.8 -10 0)" d="m0 0 5-5-17.5 5 17.5 5z" fill-rule="evenodd" stroke="#000" stroke-width="1pt"/></marker></defs><g transform="translate(-14.7879 -280.16)"><g stroke-linejoin="round" stroke-miterlimit="1e5" stroke-width=".833333"><path d="m49.649 357.742c-0.688624 0.19128-1.03293 0.84163-1.03293 1.31984 0 0.42083 0.325184 0.8799 0.956416 0.8799 0.669488 0 1.37723-0.55472 1.37723-1.492 0-1.01381-1.01379-1.6833-2.18062-1.6833-1.0903 0-1.79805 0.82253-2.04672 1.16684-0.478208-0.8034-1.54939-1.16684-2.6397-1.16684-2.41016 0-3.7109 2.35279-3.7109 2.98402 0 0.26779 0.286928 0.26779 0.459072 0.26779 0.229552 0 0.363456 0 0.439968-0.24865 0.554721-1.74068 1.93195-2.31453 2.71621-2.31453 0.72688 0 1.07118 0.3443 1.07118 0.95641 0 0.36344-0.267792 1.41549-0.439952 2.10412l-0.650352 2.62056c-0.286928 1.16683-0.975552 1.74067-1.6259 1.74067-0.09568 0-0.5356 0-0.918161-0.28691 0.688609-0.19128 1.03293-0.84165 1.03293-1.31986 0-0.42082-0.325184-0.8799-0.956417-0.8799-0.669504 0-1.37725 0.55472-1.37725 1.49201 0 1.01379 1.01381 1.68328 2.18064 1.68328 1.0903 0 1.79805-0.82251 2.04672-1.16681 0.478208 0.80337 1.54939 1.16681 2.6397 1.16681 2.41016 0 3.71088-2.35277 3.71088-2.984 0-0.26781-0.286912-0.26781-0.459072-0.26781-0.229536 0-0.36344 0-0.439952 0.24868-0.55472 1.74067-1.93195 2.31451-2.71621 2.31451-0.72688 0-1.07118-0.34431-1.07118-0.9564 0-0.4017 0.248672-1.41551 0.420816-2.12325 0.13392-0.49733 0.573856-2.29539 0.669488-2.60144 0.286928-1.1477 0.956416-1.74067 1.6259-1.74067 0.09568 0 0.5356 0 0.91816 0.28693z"/><path d="m55.8856 351.194c0.10704-0.22762 0.12048-0.33474 0.12048-0.42846 0-0.41509-0.374912-0.73645-0.79-0.73645-0.508816 0-0.669488 0.41509-0.736448 0.62933l-1.76744 5.79777c-0.0128 0.0267-0.06688 0.20085-0.06688 0.21424 0 0.16067 0.415088 0.29458 0.522192 0.29458 0.09376 0 0.1072-0.0267 0.200848-0.22763z"/><path d="m75.4903 281.636c-0.688624 0.19128-1.03293 0.84163-1.03293 1.31984 0 0.42083 0.325184 0.8799 0.956416 0.8799 0.669488 0 1.37723-0.55472 1.37723-1.492 0-1.0138-1.01379-1.68329-2.18062-1.68329-1.0903 0-1.79805 0.82253-2.04672 1.16683-0.478208-0.80339-1.54939-1.16683-2.6397-1.16683-2.41016 0-3.71089 2.35278-3.71089 2.98401 0 0.2678 0.286923 0.2678 0.459078 0.2678 0.229539 0 0.363443 0 0.439955-0.24866 0.55472-1.74067 1.93195-2.31453 2.71621-2.31453 0.726881 0 1.07118 0.34431 1.07118 0.95642 0 0.36344-0.267792 1.41549-0.439953 2.10411l-0.650352 2.62056c-0.286928 1.16683-0.975552 1.74067-1.6259 1.74067-0.09565 0-0.5356 0-0.91816-0.28691 0.688608-0.19128 1.03293-0.84165 1.03293-1.31986 0-0.42081-0.325184-0.8799-0.956416-0.8799-0.669491 0-1.37724 0.55472-1.37724 1.49202 0 1.01379 1.0138 1.68328 2.18063 1.68328 1.0903 0 1.79805-0.82252 2.04672-1.16682 0.478209 0.80338 1.54939 1.16682 2.6397 1.16682 2.41016 0 3.71088-2.35277 3.71088-2.984 0-0.26781-0.286912-0.26781-0.459072-0.26781-0.229536 0-0.36344 0-0.439952 0.24867-0.55472 1.74067-1.93195 2.31451-2.71621 2.31451-0.72688 0-1.07118-0.3443-1.07118-0.9564 0-0.40169 0.248672-1.4155 0.420816-2.12325 0.133904-0.49732 0.573856-2.29539 0.669488-2.60144 0.286928-1.14769 0.956416-1.74067 1.6259-1.74067 0.09565 0 0.5356 0 0.91816 0.28693z"/></g><g stroke-linejoin="round" stroke-miterlimit="1e5" stroke-width="1.33333"><path d="m137.278 295.636c-0.68862 0.19128-1.03293 0.84163-1.03293 1.31984 0 0.42083 0.32519 0.8799 0.95642 0.8799 0.66949 0 1.37723-0.55472 1.37723-1.492 0-1.0138-1.01379-1.68329-2.18062-1.68329-1.09031 0-1.79805 0.82253-2.04672 1.16683-0.47821-0.80339-1.54939-1.16683-2.6397-1.16683-2.41016 0-3.71089 2.35278-3.71089 2.98401 0 0.2678 0.28693 0.2678 0.45908 0.2678 0.22954 0 0.36344 0 0.43996-0.24866 0.55472-1.74067 1.93195-2.31453 2.7162-2.31453 0.72688 0 1.07119 0.34431 1.07119 0.95642 0 0.36344-0.26779 1.41549-0.43995 2.10411l-0.65036 2.62056c-0.28692 1.16683-0.97555 1.74067-1.6259 1.74067-0.0957 0-0.5356 0-0.91816-0.28691 0.68861-0.19128 1.03293-0.84165 1.03293-1.31986 0-0.42081-0.32519-0.8799-0.95642-0.8799-0.66949 0-1.37724 0.55472-1.37724 1.49202 0 1.01379 1.0138 1.68328 2.18063 1.68328 1.09031 0 1.79805-0.82252 2.04672-1.16682 0.47821 0.80338 1.5494 1.16682 2.6397 1.16682 2.41016 0 3.71088-2.35277 3.71088-2.984 0-0.26781-0.28691-0.26781-0.45907-0.26781-0.22954 0-0.36344 0-0.43995 0.24867-0.55472 1.74067-1.93196 2.31451-2.71621 2.31451-0.72688 0-1.07119-0.3443-1.07119-0.9564 0-0.40169 0.24868-1.4155 0.42082-2.12325 0.1339-0.49732 0.57386-2.29539 0.66949-2.60144 0.28693-1.14769 0.95641-1.74067 1.6259-1.74067 0.0957 0 0.5356 0 0.91816 0.28693z"/><path d="m145.936 297.405c0-0.20085 0-0.52221-0.32136-0.52221-0.33473 0-0.33473 0.30797-0.33473 0.52221v8.11421h-4.08389c-0.20085 0-0.53559 0-0.53559 0.32136 0 0.33474 0.30796 0.33474 0.53559 0.33474h8.82387c0.21424 0 0.53559 0 0.53559-0.32136 0-0.33474-0.30797-0.33474-0.53559-0.33474h-4.08389z"/><path d="m181.583 298.314c-0.19128 0.746-0.22954 0.89903-1.74067 0.89903-0.32518 0-0.53559 0-0.53559 0.36344 0 0.22953 0.17215 0.22953 0.53559 0.22953h6.33146c3.97868 0 7.74696-4.03606 7.74696-8.22515 0-2.69709-1.62591-4.83946-4.49516-4.83946h-6.4271c-0.36343 0-0.57384 0-0.57384 0.36344 0 0.22954 0.17216 0.22954 0.55472 0.22954 0.24867 0 0.59298 0.0192 0.82251 0.0382 0.30605 0.0382 0.42082 0.0957 0.42082 0.30605 0 0.0765-0.0191 0.13392-0.0765 0.36344zm4.13171-10.2528c0.17215-0.66949 0.2104-0.72688 1.03293-0.72688h2.04672c1.87458 0 3.46223 1.01379 3.46223 3.53874 0 0.93728-0.38258 4.07432-2.00848 6.17843-0.55472 0.70774-2.06586 2.16149-4.41863 2.16149h-2.16149c-0.2678 0-0.30606 0-0.42083-0.0192-0.19128-0.0192-0.24867-0.0382-0.24867-0.19128 0-0.0574 0-0.0957 0.0957-0.43996z" fill="#f00"/><path d="m28.5055 315.966c0-3.07966-2.02758-5.1455-4.8777-5.1455-4.13171 0-8.33993 4.34211-8.33993 8.79899 0 3.1753 2.14236 5.10725 4.89684 5.10725 4.05518 0 8.32078-4.18909 8.32078-8.76074zm-8.20602 8.26341c-1.8937 0-3.23269-1.54939-3.23269-4.07432 0-0.84165 0.267808-3.63437 1.74067-5.87238 1.31986-1.98935 3.19443-2.984 4.70557-2.984 1.56851 0 3.29005 1.07118 3.29005 3.92129 0 1.37723-0.516464 4.36123-2.41016 6.71402-0.918144 1.16681-2.48667 2.29539-4.09344 2.29539z"/></g><g fill="none"><path d="m137.917 338.174-31.321-52.7689" marker-end="url(#marker5190)" stroke="#000" stroke-dasharray="1.6, 1.6" stroke-miterlimit="100" stroke-width=".8"/><path d="m38.8261 316.611 67.4243-31.7874" marker-end="url(#marker2159)" stroke="#0d0000" stroke-miterlimit="1e5" stroke-width="1px"/><g><path d="m38.8261 316.611 44.5652 54.5086" marker-end="url(#marker4573)" stroke="#000" stroke-dasharray="1.6, 1.6" stroke-miterlimit="100" stroke-width=".8"/><path d="m132.758 329.484 9.12094-5.41373 5.41372 9.12094" stroke="#000" stroke-linejoin="round" stroke-width=".623622"/><path d="m212.773 294.325-171.236 101.637" color="#000000" color-rendering="auto" image-rendering="auto" shape-rendering="auto" solid-color="#000000" stroke="#f00" stroke-linejoin="round" stroke-miterlimit="100" stroke-width="2" style="isolation:auto;mix-blend-mode:normal"/></g></g><circle transform="rotate(-30.6912)" cx="-54.0092" cy="299.16" r="3.73248" fill="#ef0000"/><g><circle transform="rotate(-30.6912)" cx="-128.214" cy="292.081" r="3.73248"/><g stroke-linejoin="round" stroke-miterlimit="1e5" stroke-width=".833333"><path d="m121.356 371.377c-0.68862 0.19128-1.03293 0.84163-1.03293 1.31984 0 0.42083 0.32519 0.8799 0.95642 0.8799 0.66949 0 1.37723-0.55472 1.37723-1.492 0-1.01381-1.01379-1.68329-2.18062-1.68329-1.09031 0-1.79805 0.82252-2.04672 1.16683-0.47821-0.80339-1.54939-1.16683-2.6397-1.16683-2.41016 0-3.71089 2.35278-3.71089 2.98401 0 0.26779 0.28692 0.26779 0.45908 0.26779 0.22954 0 0.36344 0 0.43996-0.24865 0.55472-1.74067 1.93195-2.31453 2.7162-2.31453 0.72688 0 1.07119 0.3443 1.07119 0.95642 0 0.36344-0.26779 1.41548-0.43995 2.10411l-0.65036 2.62056c-0.28692 1.16683-0.97555 1.74067-1.6259 1.74067-0.0957 0-0.5356 0-0.91816-0.28691 0.68861-0.19128 1.03293-0.84165 1.03293-1.31986 0-0.42081-0.32519-0.8799-0.95642-0.8799-0.66949 0-1.37723 0.55472-1.37723 1.49201 0 1.0138 1.01379 1.68328 2.18062 1.68328 1.09031 0 1.79805-0.82251 2.04672-1.16681 0.47821 0.80337 1.5494 1.16681 2.6397 1.16681 2.41016 0 3.71088-2.35276 3.71088-2.984 0-0.2678-0.28691-0.2678-0.45907-0.2678-0.22954 0-0.36344 0-0.43995 0.24867-0.55472 1.74067-1.93196 2.31451-2.71621 2.31451-0.72688 0-1.07119-0.3443-1.07119-0.9564 0-0.4017 0.24868-1.4155 0.42082-2.12325 0.13392-0.49733 0.57386-2.29539 0.66949-2.60144 0.28693-1.14769 0.95641-1.74067 1.6259-1.74067 0.0957 0 0.5356 0 0.91816 0.28693z"/><path d="m127.592 364.829c0.1072-0.22761 0.12048-0.33473 0.12048-0.42846 0-0.41509-0.37491-0.73645-0.79-0.73645-0.50882 0-0.66949 0.41509-0.73645 0.62933l-1.76744 5.79777c-0.0128 0.0267-0.067 0.20085-0.067 0.21424 0 0.16068 0.41509 0.29458 0.52221 0.29458 0.0938 0 0.10704-0.0267 0.20085-0.22763z"/><path d="m131.986 364.829c0.10704-0.22761 0.12048-0.33473 0.12048-0.42846 0-0.41509-0.37491-0.73645-0.79-0.73645-0.50882 0-0.66949 0.41509-0.73645 0.62933l-1.76744 5.79777c-0.0128 0.0267-0.0669 0.20085-0.0669 0.21424 0 0.16068 0.41509 0.29458 0.52221 0.29458 0.0938 0 0.10704-0.0267 0.20085-0.22763z"/></g></g><path d="m140.214 342.044-54.5023 32.3498" fill="none" marker-end="url(#marker4754)" stroke="#000" stroke-dasharray="1.6, 1.6" stroke-miterlimit="100" stroke-width=".8"/></g></svg>
