<?xml version="1.0" encoding="UTF-8"?>
<svg width="185.121" height="105.901" version="1.1" viewBox="0 0 185.12149 105.9006" xmlns="http://www.w3.org/2000/svg"><g transform="translate(21.1322 -280.076)"><path d="m45.7427 333.036 58.7877 33.9412" fill="none" stroke="#000002" stroke-dasharray="2, 2" stroke-linejoin="round" stroke-miterlimit="100"/><g fill="#f00" stroke-linejoin="round" stroke-miterlimit="1e5" stroke-width="1.48378"><path d="m11.1826 283.186c0-0.28692 0-0.57385-0.3188-0.57385s-0.3188 0.28693-0.3188 0.57385v14.7925c0 0.28692 0 0.57384 0.3188 0.57384s0.3188-0.28692 0.3188-0.57384z"/><path d="m19.9144 288.239h1.865c0.30286 0 0.58978 0 0.58978-0.46226 0-0.28692-0.27097-0.28692-0.54196-0.28692h-1.7853l0.52602-2.88519c0.0478-0.28692 0.0478-0.3188 0.20723-0.46227 0.20721-0.19128 0.38256-0.19128 0.46227-0.19128 0.22316 0 0.36661 0.0319 0.5579 0.1116-0.38257 0.1913-0.66949 0.60574-0.66949 1.03612 0 0.47822 0.38256 0.73326 0.78107 0.73326 0.65356 0 1.1477-0.57386 1.1477-1.17958 0-0.81296-0.82889-1.27522-1.81718-1.27522-0.7492 0-1.64186 0.30286-2.19976 1.19552-0.36663 0.58978-0.46227 1.21145-0.76514 2.91706h-1.56213c-0.30287 0-0.57385 0-0.57385 0.46227 0 0.28692 0.27098 0.28692 0.52602 0.28692h1.46651l-1.21145 6.79053c-0.0319 0.14347-0.20723 1.1477-0.28694 1.37086-0.0319 0.0797-0.28692 0.81296-0.79701 0.81296-0.30285 0-0.43039-0.0479-0.54196-0.0956 0.39851-0.1913 0.70137-0.60574 0.70137-1.05206 0-0.47821-0.38257-0.73325-0.78108-0.73325-0.65354 0-1.14769 0.57384-1.14769 1.17957 0 0.86078 0.9086 1.27522 1.73748 1.27522 1.19552 0 2.02441-1.17958 2.15193-1.3868 0.68543-1.05206 1.05206-3.07646 1.09988-3.34744z"/><path d="m26.4253 283.186c0-0.28692 0-0.57385-0.3188-0.57385s-0.3188 0.28693-0.3188 0.57385v14.7925c0 0.28692 0 0.57384 0.3188 0.57384s0.3188-0.28692 0.3188-0.57384z"/></g><g stroke-linejoin="round" stroke-miterlimit="1e5" stroke-width="1.33333"><path d="m43.6977 289.355c0.2391 0 0.54197 0 0.54197-0.3188s-0.30287-0.31882-0.52603-0.31882h-9.5482c-0.22316 0-0.52602 0-0.52602 0.31882 0 0.31881 0.30286 0.3188 0.54197 0.3188zm0.0159 3.0924c0.22316 0 0.52603 0 0.52603-0.3188s-0.30287-0.3188-0.54197-0.3188h-9.51631c-0.23911 0-0.54197 0-0.54197 0.3188s0.30286 0.3188 0.52602 0.3188z"/><path d="m52.1237 287.282c-0.73325-0.47821-0.79701-1.02017-0.79701-1.29116 0-0.97236 1.03612-1.64184 2.16788-1.64184 1.16363 0 2.1838 0.82889 2.1838 1.97659 0 0.90858-0.62167 1.67372-1.57808 2.23162zm2.32728 1.51432c1.1477-0.58979 1.92876-1.41868 1.92876-2.47073 0-1.46651-1.41868-2.3751-2.86924-2.3751-1.59401 0-2.88517 1.17958-2.88517 2.66202 0 0.28692 0.0319 1.00424 0.70136 1.75342 0.17535 0.19128 0.76513 0.58979 1.16364 0.86078-0.92453 0.46226-2.29539 1.35492-2.29539 2.933 0 1.68966 1.6259 2.75765 3.29963 2.75765 1.80124 0 3.31556-1.32304 3.31556-3.02864 0-0.57384-0.17535-1.29116-0.78107-1.96064-0.30286-0.33475-0.5579-0.49415-1.57808-1.13176zm-1.59402 0.66949 1.96065 1.24334c0.44632 0.30286 1.19551 0.78106 1.19551 1.75342 0 1.17958-1.19551 2.00847-2.50262 2.00847-1.37085 0-2.51854-0.98829-2.51854-2.31133 0-0.92454 0.51008-1.94471 1.865-2.6939z"/><path d="m60.5273 293.722c0-0.46226-0.38256-0.84484-0.84483-0.84484s-0.84484 0.38258-0.84484 0.84484c0 0.46227 0.38257 0.84483 0.84484 0.84483s0.84483-0.38256 0.84483-0.84483z"/><path d="m67.7275 289.498v0.51008c0 3.73002-1.65779 4.46327-2.58232 4.46327-0.27099 0-1.13176-0.0319-1.56215-0.57385 0.70137 0 0.82889-0.46227 0.82889-0.73324 0-0.49416-0.38256-0.73326-0.73325-0.73326-0.25504 0-0.73324 0.14346-0.73324 0.76514 0 1.06798 0.86077 1.72153 2.21568 1.72153 2.05629 0 4.001-2.16787 4.001-5.59501 0-4.28792-1.83312-5.37186-3.2518-5.37186-0.87672 0-1.65779 0.28692-2.34321 1.00423-0.65355 0.71732-1.02018 1.3868-1.02018 2.58232 0 1.99253 1.40274 3.55467 3.18804 3.55467 0.97236 0 1.62591-0.66948 1.99254-1.59402zm-1.97659 1.22739c-0.25505 0-0.98829 0-1.48244-1.00423-0.28693-0.58978-0.28693-1.3868-0.28693-2.16786 0-0.86078 0-1.60998 0.33474-2.19976 0.43039-0.79702 1.03612-1.00423 1.59403-1.00423 0.73325 0 1.25928 0.54196 1.53025 1.25928 0.1913 0.51008 0.25506 1.51432 0.25506 2.24756 0 1.32304-0.54198 2.86924-1.94471 2.86924z"/><path d="m72.4157 287.282c-0.73326-0.47821-0.79702-1.02017-0.79702-1.29116 0-0.97236 1.03612-1.64184 2.16788-1.64184 1.16363 0 2.1838 0.82889 2.1838 1.97659 0 0.90858-0.62166 1.67372-1.57808 2.23162zm2.32728 1.51432c1.14769-0.58979 1.92876-1.41868 1.92876-2.47073 0-1.46651-1.41868-2.3751-2.86924-2.3751-1.59402 0-2.88518 1.17958-2.88518 2.66202 0 0.28692 0.0319 1.00424 0.70136 1.75342 0.17535 0.19128 0.76514 0.58979 1.16364 0.86078-0.92453 0.46226-2.29539 1.35492-2.29539 2.933 0 1.68966 1.6259 2.75765 3.29963 2.75765 1.80124 0 3.31556-1.32304 3.31556-3.02864 0-0.57384-0.17534-1.29116-0.78106-1.96064-0.30287-0.33475-0.55791-0.49415-1.57808-1.13176zm-1.59403 0.66949 1.96065 1.24334c0.44632 0.30286 1.19551 0.78106 1.19551 1.75342 0 1.17958-1.19551 2.00847-2.50261 2.00847-1.37086 0-2.51855-0.98829-2.51855-2.31133 0-0.92454 0.51008-1.94471 1.865-2.6939z"/><path d="m80.357 287.282c-0.73325-0.47821-0.79701-1.02017-0.79701-1.29116 0-0.97236 1.03612-1.64184 2.16788-1.64184 1.16363 0 2.1838 0.82889 2.1838 1.97659 0 0.90858-0.62167 1.67372-1.57808 2.23162zm2.32728 1.51432c1.1477-0.58979 1.92876-1.41868 1.92876-2.47073 0-1.46651-1.41868-2.3751-2.86924-2.3751-1.59401 0-2.88517 1.17958-2.88517 2.66202 0 0.28692 0.0319 1.00424 0.70136 1.75342 0.17535 0.19128 0.76513 0.58979 1.16364 0.86078-0.92453 0.46226-2.29539 1.35492-2.29539 2.933 0 1.68966 1.6259 2.75765 3.29963 2.75765 1.80124 0 3.31556-1.32304 3.31556-3.02864 0-0.57384-0.17535-1.29116-0.78107-1.96064-0.30286-0.33475-0.5579-0.49415-1.57808-1.13176zm-1.59402 0.66949 1.96065 1.24334c0.44632 0.30286 1.19551 0.78106 1.19551 1.75342 0 1.17958-1.19551 2.00847-2.50262 2.00847-1.37085 0-2.51854-0.98829-2.51854-2.31133 0-0.92454 0.51008-1.94471 1.865-2.6939z"/><path d="m91.4153 290.582c0-0.46227-0.38256-0.84484-0.84483-0.84484s-0.84484 0.38257-0.84484 0.84484c0 0.46226 0.38257 0.84482 0.84484 0.84482s0.84483-0.38256 0.84483-0.84482z"/><path d="m98.4833 290.582c0-0.46227-0.38256-0.84484-0.84483-0.84484-0.46226 0-0.84484 0.38257-0.84484 0.84484 0 0.46226 0.38258 0.84482 0.84484 0.84482 0.46227 0 0.84483-0.38256 0.84483-0.84482z"/><path d="m105.551 290.582c0-0.46227-0.38256-0.84484-0.84482-0.84484-0.46227 0-0.84484 0.38257-0.84484 0.84484 0 0.46226 0.38257 0.84482 0.84484 0.84482 0.46226 0 0.84482-0.38256 0.84482-0.84482z"/><path d="m116.696 290.136-3.18804-3.1721c-0.19129-0.19128-0.22317-0.22316-0.35069-0.22316-0.1594 0-0.3188 0.14346-0.3188 0.31881 0 0.1116 0.0319 0.14345 0.20722 0.3188l3.18804 3.20399-3.18804 3.20398c-0.17534 0.17534-0.20722 0.20722-0.20722 0.3188 0 0.17535 0.1594 0.3188 0.3188 0.3188 0.12752 0 0.1594-0.0319 0.35069-0.22316l3.17211-3.1721 3.29962 3.29962c0.0319 0.016 0.14346 0.0956 0.2391 0.0956 0.19128 0 0.31881-0.14345 0.31881-0.3188 0-0.0319 0-0.0956-0.0478-0.17534-0.0159-0.0319-2.55044-2.5345-3.34744-3.34744l2.91706-2.91707c0.0797-0.0956 0.3188-0.30287 0.3985-0.39851 0.016-0.0319 0.0797-0.0956 0.0797-0.20721 0-0.17535-0.12753-0.31881-0.31881-0.31881-0.12752 0-0.19128 0.0637-0.36663 0.2391z"/><path d="m131.075 284.365c0-0.38256 0-0.41444-0.36662-0.41444-0.9883 1.02018-2.39103 1.02018-2.90113 1.02018v0.49414c0.3188 0 1.25929 0 2.08818-0.41445v8.25704c0 0.57385-0.0478 0.76513-1.48244 0.76513h-0.5101v0.49415c0.55791-0.0479 1.94471-0.0479 2.58233-0.0479 0.63761 0 2.0244 0 2.58232 0.0479v-0.49415h-0.5101c-1.43462 0-1.48244-0.17534-1.48244-0.76513z"/><path d="m141.661 289.466c0-1.27522-0.0797-2.55044-0.63761-3.73001-0.73325-1.53027-2.04035-1.78531-2.70984-1.78531-0.95641 0-2.12005 0.41444-2.77359 1.89688-0.51009 1.09988-0.58979 2.34322-0.58979 3.61844 0 1.19551 0.0638 2.63014 0.7173 3.84159 0.68544 1.29116 1.84907 1.60996 2.63015 1.60996 0.86077 0 2.07222-0.33473 2.7736-1.84907 0.51008-1.09986 0.58978-2.34321 0.58978-3.60248zm-3.36338 5.10087c-0.62167 0-1.56215-0.39851-1.84907-1.92877-0.17535-0.95642-0.17535-2.42291-0.17535-3.36339 0-1.02017 0-2.07223 0.12752-2.933 0.30287-1.89688 1.49839-2.04035 1.8969-2.04035 0.52602 0 1.57808 0.28692 1.88094 1.86502 0.1594 0.89265 0.1594 2.1041 0.1594 3.10833 0 1.19552 0 2.27945-0.17534 3.29963-0.23911 1.51432-1.1477 1.99253-1.865 1.99253z"/><path d="m146.934 284.66c0 2.76723-1.37245 3.19124-2.04193 3.19124-0.24548 0-0.83687-0.0223-1.13814-0.36823 0.45748-0.0447 0.49096-0.42401 0.49096-0.52442 0-0.27896-0.18969-0.52444-0.52444-0.52444-0.33474 0-0.53559 0.22316-0.53559 0.54674 0 0.75876 0.63602 1.2274 1.71835 1.2274 1.59563 0 3.10198-1.50634 3.10198-3.8942 0-2.76721-1.2274-3.73797-2.53291-3.73797-0.36821 0-1.13813 0.0557-1.77415 0.68064-0.37937 0.36823-0.8257 0.80339-0.8257 1.80763 0 1.41708 1.12698 2.46594 2.43248 2.46594 0.89265 0 1.37245-0.59137 1.62909-1.09349zm-1.57329 0.55791c-0.43518 0-0.84803-0.14506-1.16046-0.65834-0.25664-0.41284-0.25664-0.88149-0.25664-1.49518 0-0.64718 0-1.0935 0.32359-1.53983 0.2678-0.39053 0.63601-0.62485 1.21624-0.62485 0.56907 0 0.90381 0.35705 1.08235 0.64717 0.30126 0.46864 0.33474 1.24971 0.33474 1.64024 0 1.45056-0.83686 2.03079-1.53982 2.03079z"/><path d="m155.774 283.887c-0.14347-0.19128-0.1594-0.20722-0.46227-0.20722h-2.70984v0.49414h0.46227c0.2391 0 0.5579 0.016 0.79701 0.0319 0.36663 0.0479 0.38256 0.0637 0.38256 0.36663v8.3208c0 0.43038 0 1.17957-1.64184 1.17957v0.49415c0.55791-0.016 1.33897-0.0479 1.86501-0.0479s1.3071 0.0319 1.86501 0.0479v-0.49415c-1.64185 0-1.64185-0.74919-1.64185-1.17957v-8.28892c0.0797 0.0797 0.0956 0.0956 0.1594 0.19128l6.50362 9.56413c0.14345 0.19128 0.1594 0.20723 0.27099 0.20723 0.22316 0 0.22316-0.1116 0.22316-0.41444v-8.79902c0-0.43038 0-1.17957 1.64184-1.17957v-0.49415c-0.55791 0.016-1.33898 0.0479-1.865 0.0479-0.52603 0-1.30711-0.0319-1.86502-0.0479v0.49415c1.64184 0 1.64184 0.74919 1.64184 1.17957v6.80648z"/><path d="m77.4343 330.425c0.1913-0.33134 0.20725-0.35896-0.110252-0.54227-1.36599 0.38936-2.58079-0.312-3.02254-0.56705l-0.2471 0.42799c0.276089 0.1594 1.09057 0.62964 2.01566 0.68512l-4.1285 7.15077c-0.28695 0.49702-0.423996 0.63879-1.66643-0.0785l-0.441751-0.25505-0.24705 0.4279c0.507156 0.23739 1.70816 0.93079 2.26036 1.2496 0.552186 0.3188 1.75318 1.0122 2.21235 1.33272l0.24705-0.4279-0.441759-0.25505c-1.24242-0.71731-1.19613-0.89312-0.901231-1.4039z"/><path d="m81.7126 338.343-2.136 3.69966c-0.35865 0.6212-0.510507 0.53353-1.43541-4.7e-4l-0.24705 0.4279c0.491156 0.2651 1.2112 0.64387 1.58392 0.85906 0.358915 0.20722 1.06076 0.64938 1.52212 0.93422l0.24705-0.4279c-0.924915-0.534-1.07676-0.62167-0.718106-1.24287l1.4665-2.54005c0.8289-1.4357 2.25537-1.64293 3.13887-1.13284 0.869697 0.50212 0.591146 1.33527 0.136846 2.12214l-1.85705 3.2165c-0.35865 0.6212-0.510499 0.53353-1.43541-4.7e-4l-0.24705 0.4279c0.491156 0.2651 1.2112 0.64387 1.58393 0.85906 0.358916 0.20722 1.06076 0.64938 1.52211 0.93421l0.24705-0.4279c-0.924898-0.53399-1.07676-0.62166-0.718106-1.24286l1.4665-2.54006c0.8289-1.43569 2.25538-1.64291 3.13888-1.13283 0.869698 0.50212 0.591147 1.33527 0.136847 2.12214l-1.85705 3.2165c-0.35865 0.6212-0.510499 0.53353-1.43541-4.7e-4l-0.24705 0.4279c0.491164 0.2651 1.2112 0.64387 1.58392 0.85906 0.358933 0.20723 1.06077 0.64938 1.52212 0.93422l0.24705-0.4279c-0.71784-0.41445-1.06296-0.6137-0.837655-1.0358l1.5223-2.6367c0.68545-1.18724 0.9325-1.61514 0.791503-2.35923-0.05781-0.34618-0.353967-0.88529-1.15463-1.34755-1.1596-0.6695-2.2452-0.19192-2.78272 0.19715 0.50012-1.31259-0.433767-2.05419-1.05498-2.41285-1.00774-0.58182-1.99925-0.36283-2.87994 0.26989l0.83685-1.44947-2.03409-0.97196-0.24705 0.4279c0.966329 0.55791 1.02096 0.71832 0.630414 1.39477z"/><path d="m33.1216 341.416c0-0.3826 0-0.4145-0.36663-0.4145-0.98829 1.0202-2.39103 1.0202-2.90112 1.0202v0.4942c0.3188 0 1.25928 0 2.08817-0.4145v8.257c0 0.5739-0.0478 0.7652-1.48244 0.7652h-0.51009v0.4941c0.55791-0.048 1.94471-0.048 2.58232-0.048s2.0244 0 2.58232 0.048v-0.4941h-0.51009c-1.43463 0-1.48244-0.1754-1.48244-0.7652z"/><path d="m39.9239 346.167c0 3.2996 2.58232 5.8022 5.5472 5.8022 2.59826 0 4.1604-2.2157 4.1604-4.0647 0-0.1595 0-0.271-0.20722-0.271-0.17535 0-0.17535 0.096-0.19128 0.255-0.12752 2.2795-1.83314 3.5866-3.57062 3.5866-0.97236 0-4.09664-0.542-4.09664-5.2922 0-4.7661 3.10835-5.3081 4.0807-5.3081 1.73749 0 3.15617 1.4506 3.47497 3.7778 0.0319 0.2232 0.0319 0.271 0.25504 0.271 0.25505 0 0.25505-0.048 0.25505-0.3825v-3.7779c0-0.271 0-0.3825-0.17534-0.3825-0.0638 0-0.12752 0-0.25504 0.1913l-0.79702 1.1795c-0.58978-0.5738-1.40274-1.3708-2.933-1.3708-2.98082 0-5.5472 2.5345-5.5472 5.7863z"/><path d="m92.1593 374.925c0-0.3826 0-0.4145-0.36663-0.4145-0.98829 1.0202-2.39103 1.0202-2.90112 1.0202v0.4942c0.3188 0 1.25928 0 2.08817-0.4145v8.257c0 0.5739-0.0478 0.7652-1.48244 0.7652h-0.51009v0.4941c0.55791-0.048 1.94471-0.048 2.58232-0.048s2.0244 0 2.58232 0.048v-0.4941h-0.51009c-1.43463 0-1.48244-0.1754-1.48244-0.7652z"/><path d="m98.9616 379.675c0 3.2996 2.58232 5.8022 5.5472 5.8022 2.59826 0 4.1604-2.2157 4.1604-4.0647 0-0.1595 0-0.271-0.20722-0.271-0.17535 0-0.17535 0.096-0.19128 0.255-0.12752 2.2795-1.83314 3.5866-3.57062 3.5866-0.97236 0-4.09664-0.542-4.09664-5.2922 0-4.7661 3.10835-5.3081 4.0807-5.3081 1.73749 0 3.15617 1.4506 3.47497 3.7778 0.0319 0.2232 0.0319 0.271 0.25504 0.271 0.25505 0 0.25505-0.048 0.25505-0.3825v-3.7779c0-0.271 0-0.3825-0.17534-0.3825-0.0638 0-0.12752 0-0.25504 0.1913l-0.79702 1.1795c-0.58978-0.5738-1.40274-1.3708-2.933-1.3708-2.98082 0-5.5472 2.5345-5.5472 5.7863z"/></g><ellipse transform="matrix(.999924 -.0123414 .0117862 .999931 0 0)" cx="41.8143" cy="333.576" rx="4.65455" ry="4.65596" fill="#ef0000"/><ellipse transform="matrix(.999924 -.0123414 .0117862 .999931 0 0)" cx="100.453" cy="367.81" rx="4.65455" ry="4.65596" fill="#ef0000"/><path d="m46.3517 331.982-48.2712-27.8693 3.63525-2.8606-22.3479-5.9596 16.335 16.3743 0.65975-4.5787 48.2712 27.8694 1.71795-2.9756" clip-path="url(#p2985508f7a)" fill="#f00" stroke-linejoin="round" stroke-miterlimit="1e5" stroke-width="1.48378"/></g></svg>
