<?xml version="1.0" encoding="UTF-8"?>
<svg width="126.18" height="121.345" version="1.1" viewBox="0 0 33.385091 32.105809" xmlns="http://www.w3.org/2000/svg"><g transform="translate(-5.10037 -259.826)"><g><g stroke-linejoin="round" stroke-miterlimit="1e5"><path d="m20.9488 269.415h-3.73271l0.115045 0.28762-1.49564-0.40267 1.49564-0.40268-0.115045 0.28763h3.73271v0.2301" clip-path="url(#p2985508f7a)" stroke-width=".392585"/><path d="m22.0991 266.385-2.63943-2.63943-0.122031 0.28473-0.772845-1.34231 1.34231 0.77285-0.284732 0.12203 2.63942 2.63942-0.162702 0.16271" clip-path="url(#p2985508f7a)" stroke-width=".392585"/><path d="m25.062 265.072v-3.73271l-0.287621 0.11505 0.40267-1.49564 0.402672 1.49564-0.287624-0.11505v3.73271h-0.230097" clip-path="url(#p2985508f7a)" stroke-width=".392585"/><path d="m28.0923 266.222 2.63943-2.63942-0.284731-0.12203 1.34231-0.77285-0.772845 1.34231-0.122029-0.28473-2.63943 2.63943-0.162705-0.16271" clip-path="url(#p2985508f7a)" stroke-width=".392585"/><path d="m29.4053 269.185h3.73271l-0.115041-0.28763 1.49564 0.40268-1.49564 0.40267 0.115041-0.28763h-3.73271v-0.23009" clip-path="url(#p2985508f7a)" stroke-width=".392585"/><path d="m28.255 272.215 2.63943 2.63943 0.122029-0.28473 0.772845 1.34231-1.34231-0.77285 0.284731-0.12203-2.63943-2.63942 0.162705-0.16271" clip-path="url(#p2985508f7a)" stroke-width=".392585"/><path d="m25.2921 273.528v3.73271l0.287624-0.11504-0.402672 1.49563-0.40267-1.49563 0.287621 0.11504v-3.73271h0.230097" clip-path="url(#p2985508f7a)" stroke-width=".392585"/><path d="m22.2618 272.378-2.63942 2.63942 0.284732 0.12203-1.34231 0.77285 0.772845-1.34231 0.122031 0.28473 2.63943-2.63943 0.162702 0.16271" clip-path="url(#p2985508f7a)" stroke-width=".392585"/></g><path d="m25.3913 270.529c0.763383-0.29058 1.48737-1.16725 1.48737-2.11778 0-0.79294-0.522054-1.32485-1.25589-1.32485-1.06382 0-2.14734 1.11799-2.14734 2.26554 0 0.81756 0.551611 1.31499 1.26083 1.31499 0.123124 0 0.290576-0.0197 0.482653-0.0739-0.01968 0.30535-0.01968 0.3152-0.01968 0.37923 0 0.1576 0 0.54176 0.408784 0.54176 0.586086 0 0.822484-0.90129 0.822484-0.95547 0-0.0345-0.03447-0.0493-0.05417-0.0493-0.0394 0-0.04925 0.0246-0.0591 0.0542-0.118207 0.34968-0.403862 0.47281-0.576241 0.47281-0.226549 0-0.300426-0.13298-0.349679-0.50729zm-0.930842-0.0394c-0.384159-0.15268-0.551608-0.53683-0.551608-0.98009 0-0.33983 0.12805-1.03919 0.502359-1.5711 0.359529-0.50236 0.822486-0.72891 1.18202-0.72891 0.492503 0 0.852037 0.38415 0.852037 1.04411 0 0.49251-0.251177 1.64498-1.0786 2.10794-0.02463-0.17238-0.07387-0.53191-0.433406-0.53191-0.261027 0-0.502354 0.24625-0.502354 0.50236 0 0.0985 0.02955 0.15267 0.02955 0.1576zm0.305356 0.0542c-0.06895 0-0.226555 0-0.226555-0.21178 0-0.197 0.187156-0.39401 0.394007-0.39401s0.300429 0.1182 0.300429 0.41863c0 0.0739-0.0049 0.0788-0.05418 0.0985-0.12805 0.0542-0.275804 0.0887-0.413705 0.0887z"/></g><circle cx="25.3638" cy="285.877" r="2.02251" color="#000000" color-rendering="auto" fill="#44f" image-rendering="auto" shape-rendering="auto" solid-color="#000000" style="isolation:auto;mix-blend-mode:normal"/><path d="m25.3636 288.272a3.52791 3.52791 0 0 0 -3.52769 3.52798h7.05567a3.52791 3.52791 0 0 0 -3.52798 -3.52798z" color="#000000" color-rendering="auto" fill="#44f" image-rendering="auto" shape-rendering="auto" solid-color="#000000" style="isolation:auto;mix-blend-mode:normal"/><path d="m19.9201 285.575c-0.0048-0.0143-0.02381-0.0524-0.02381-0.0667 0-5e-3 0.0048-0.01 0.08573-0.0714l0.461962-0.36195c0.638175-0.4953 0.847725-0.66198 1.17634-0.69056 0.03334-5e-3 0.08096-5e-3 0.08096-0.0857 0-0.0286-0.01429-0.0524-0.05239-0.0524-0.05239 0-0.109538 0.01-0.161925 0.01h-0.180975c-0.147638 0-0.3048-0.01-0.447675-0.01-0.03334 0-0.09049 0-0.09049 0.0857 0 0.0476 0.03334 0.0524 0.06191 0.0524 0.05239 5e-3 0.1143 0.0238 0.1143 0.0905 0 0.0952-0.142875 0.20955-0.180975 0.23812l-1.8669 1.45257 0.395287-1.57163c0.04286-0.16192 0.05239-0.20955 0.390525-0.20955 0.09049 0 0.13335 0 0.13335-0.0905 0-0.0476-0.04763-0.0476-0.07144-0.0476-0.08573 0-0.185738 0.01-0.276225 0.01h-0.561975c-0.08573 0-0.1905-0.01-0.276225-0.01-0.0381 0-0.09049 0-0.09049 0.0905 0 0.0476 0.04286 0.0476 0.1143 0.0476 0.290513 0 0.290513 0.0381 0.290513 0.0905 0 0.01 0 0.0381-0.01905 0.10954l-0.642938 2.56222c-0.04286 0.16669-0.05239 0.21431-0.385762 0.21431-0.09049 0-0.138113 0-0.138113 0.0857 0 0.0524 0.04286 0.0524 0.07144 0.0524 0.09049 0 0.185737-0.01 0.276225-0.01h0.557212c0.09049 0 0.1905 0.01 0.280988 0.01 0.0381 0 0.09049 0 0.09049-0.0905 0-0.0476-0.04286-0.0476-0.1143-0.0476-0.290512 0-0.290512-0.0381-0.290512-0.0857 0-0.0333 0.02858-0.1524 0.04763-0.2286l0.185737-0.73819 0.7239-0.56674c0.138113 0.3048 0.390525 0.9144 0.585788 1.38113 0.01429 0.0286 0.02381 0.0571 0.02381 0.0905 0 0.14287-0.1905 0.14763-0.233362 0.14763-0.04286 0-0.09049 0-0.09049 0.0905 0 0.0476 0.05239 0.0476 0.06668 0.0476 0.166688 0 0.3429-0.01 0.509588-0.01h0.2286c0.07144 0 0.1524 0.01 0.223837 0.01 0.02858 0 0.08096 0 0.08096-0.0905 0-0.0476-0.04286-0.0476-0.09049-0.0476-0.176212-5e-3 -0.238125-0.0429-0.309562-0.21431z" fill="#00f" stroke-linejoin="round" stroke-miterlimit="1e5" stroke-width=".396875"/><path d="m22.6895 284.028c0.01588-0.0413 0.02858-0.0635 0.02858-0.0953 0-0.10478-0.09525-0.17463-0.18415-0.17463-0.127 0-0.161925 0.11113-0.174625 0.15558l-0.403225 1.36842c-0.0127 0.0381-0.0127 0.0476-0.0127 0.0508 0 0.0286 0.01905 0.0349 0.0508 0.0444 0.05715 0.0254 0.0635 0.0254 0.06985 0.0254 0.0095 0 0.02858 0 0.0508-0.054z" fill="#00f" stroke-linejoin="round" stroke-miterlimit="1e5" stroke-width=".396875"/><g fill="#f44"><circle cx="11.7802" cy="285.877" r="2.02251" color="#000000" color-rendering="auto" image-rendering="auto" shape-rendering="auto" solid-color="#000000" style="isolation:auto;mix-blend-mode:normal"/><path d="m11.78 288.272a3.52791 3.52791 0 0 0 -3.52769 3.52798h7.05567a3.52791 3.52791 0 0 0 -3.52798 -3.52798z" color="#000000" color-rendering="auto" image-rendering="auto" shape-rendering="auto" solid-color="#000000" style="isolation:auto;mix-blend-mode:normal"/><path d="m7.39484 285.575c-0.00476-0.0143-0.023813-0.0524-0.023813-0.0667 0-5e-3 0.00476-0.01 0.085725-0.0714l0.461962-0.36195c0.638175-0.4953 0.847725-0.66198 1.17634-0.69056 0.033338-5e-3 0.080963-5e-3 0.080963-0.0857 0-0.0286-0.014288-0.0524-0.052388-0.0524-0.052388 0-0.109538 0.01-0.161925 0.01h-0.180975c-0.147638 0-0.3048-0.01-0.447675-0.01-0.033338 0-0.090488 0-0.090488 0.0857 0 0.0476 0.033338 0.0524 0.061913 0.0524 0.052388 5e-3 0.1143 0.0238 0.1143 0.0905 0 0.0952-0.142875 0.20955-0.180975 0.23812l-1.8669 1.45257 0.395288-1.57163c0.042863-0.16192 0.052388-0.20955 0.390525-0.20955 0.090488 0 0.13335 0 0.13335-0.0905 0-0.0476-0.047625-0.0476-0.071438-0.0476-0.085725 0-0.185738 0.01-0.276225 0.01h-0.561975c-0.085725 0-0.1905-0.01-0.276225-0.01-0.0381 0-0.090488 0-0.090488 0.0905 0 0.0476 0.042863 0.0476 0.1143 0.0476 0.290512 0 0.290512 0.0381 0.290512 0.0905 0 0.01 0 0.0381-0.01905 0.10954l-0.642938 2.56222c-0.042863 0.16669-0.052388 0.21431-0.385762 0.21431-0.090488 0-0.138112 0-0.138112 0.0857 0 0.0524 0.042863 0.0524 0.071438 0.0524 0.090487 0 0.185738-0.01 0.276225-0.01h0.557212c0.090488 0 0.1905 0.01 0.280988 0.01 0.0381 0 0.090488 0 0.090488-0.0905 0-0.0476-0.042863-0.0476-0.1143-0.0476-0.290512 0-0.290512-0.0381-0.290512-0.0857 0-0.0333 0.028575-0.1524 0.047625-0.2286l0.185738-0.73819 0.7239-0.56674c0.138112 0.3048 0.390525 0.9144 0.585788 1.38113 0.014288 0.0286 0.023813 0.0571 0.023813 0.0905 0 0.14287-0.1905 0.14763-0.233362 0.14763-0.042863 0-0.090488 0-0.090488 0.0905 0 0.0476 0.052388 0.0476 0.066675 0.0476 0.166688 0 0.3429-0.01 0.509588-0.01h0.2286c0.071438 0 0.1524 0.01 0.223838 0.01 0.028575 0 0.080963 0 0.080963-0.0905 0-0.0476-0.042863-0.0476-0.090488-0.0476-0.176212-5e-3 -0.238125-0.0429-0.309562-0.21431z"/></g><path d="m29.5786 287.988h6.27448l-0.134284-1.13891 2.63438 1.59448-2.63438 1.59448 0.134284-1.13892h-6.27448v-0.91113" clip-path="url(#p2985508f7a)" fill="#00f" stroke-linejoin="round" stroke-miterlimit="1e5" stroke-width=".264583"/></g></svg>
