<?xml version="1.0" encoding="UTF-8"?>
<svg width="161.244" height="120.904" version="1.1" viewBox="0 0 161.2438 120.9035" xmlns="http://www.w3.org/2000/svg"><g transform="translate(-7.94953 -264.004)"><path d="m10.9495 314.201h155.244v66.9772h-155.244z" color="#000000" color-rendering="auto" fill="#a9dddd" image-rendering="auto" shape-rendering="auto" solid-color="#000000" style="isolation:auto;mix-blend-mode:normal"/><path d="m166.193 301.92v79.987h-155.244v-79.987" color="#000000" color-rendering="auto" fill="none" image-rendering="auto" shape-rendering="auto" solid-color="#000000" stroke="#5a5a5a" stroke-linejoin="round" stroke-miterlimit="100" stroke-width="5" style="isolation:auto;mix-blend-mode:normal"/><g fill="#2b2b2b"><path d="m119.682 373.76q-3.125 0.5625-6.25 1-0.0625 0.5-0.3125 0.1875l-0.375-1.625 2.0625-0.125v-8.0625q-1.3125 0.6875-2.5 1.125l-0.5-1.3125q4.875-1.5 6.3125-4.4375l1.6875 0.1875q0.25 0.25-0.1875 0.3125v0.1875q2.1875 2.4375 6.5625 3.5l-0.75 1.3125q-0.8125-0.125-2.5-0.875v4.875l0.8125-0.8125 1.125 1.125q0.0625 0.3125-0.3125 0.1875l-3 1.9375q1.1875 0.8125 4.3125 1.125l-0.5625 1.3125q-5.4375-0.5-6.9375-4.625h-2.3125v2.8125l3.625-0.4375zm-0.125-3.5q0.25 0.6875 1.125 1.5625l1.9375-1.5625zm2.125-1v-1.125h-5.625v1.125zm-5.625-2.125h5.625v-1.125h-5.625zm2.75-5.25q-1.375 1.8125-3.75 3.125h3.25v-1.625h1.1875q0.5 0.0625 0.0625 0.375v1.25h3.125q-1.875-0.875-3.875-3.125z" color="#000000" style="text-decoration-line:none;text-indent:0;text-transform:none"/><path d="m135.995 361.072q-0.0625 0.375-0.5625 1.1875h5.875v1.1875h-6.5q-0.5625 1.125-1.9375 2.375l-0.625-1.125q2.0625-2.0625 2.5625-4.25l1.4375 0.25q0.4375 0.0625-0.25 0.375zm-8.1875 9.9375q0.75-0.125 1.8125-0.375v-5h-1.625v-1.1875h1.625v-3.5625h1.1875q0.5625 0 0.0625 0.375v3.1875h1.1875v1.1875h-1.1875v4.75q0.875-0.25 1.75-0.5l0.125 1q-1 0.4375-4.125 1.375-0.375 0.4375-0.4375 0.1875zm12.4375-6.375v3.4375h-6.0625v-3.4375zm-1.0625 1h-3.9375v1.4375h3.9375zm1.9375 3.5v4.1875h1v1.1875h-10.625v-1.1875h1.8125v-4.1875zm-5.5 1h-1.25v3.1875h1.25zm2.1875 0h-1.125v3.1875h1.125zm1.0625 0v3.1875h1.1875v-3.1875z" color="#000000" style="text-decoration-line:none;text-indent:0;text-transform:none"/><path d="m157.432 373.76q-3.6875-2.5-5.6875-7.25v7.1875q0 1-1 1h-1.5l-0.25-1.1875h1.25q0.25 0 0.25-0.25v-12.5625h1.1875q0.5 0.0625 0.0625 0.375v1.8125q0 1.375 1.0625 3.25 1.4375-1 3.1875-3.125l1.125 1.125q0.3125 0.5-0.375 0.375-1.5 1.375-3.375 2.6875 1.8125 3.1875 4.8125 5.125zm-7.8125-8.625q-1 5.9375-5.1875 8.625l-0.6875-1.3125q3.4375-1.9375 4.5-6.9375h-3.625v-1.1875h3.625l0.375-0.5 1.0625 0.75q0.4375 0.25-0.0625 0.5625z" color="#000000" style="text-decoration-line:none;text-indent:0;text-transform:none"/></g><g shape-rendering="auto"><path d="m51.4727 309.252v-33.484h74.1974v34.8982" color="#000000" color-rendering="auto" fill="none" image-rendering="auto" solid-color="#000000" stroke="#5a5a5a" stroke-linejoin="round" stroke-miterlimit="100" stroke-width="3" style="isolation:auto;mix-blend-mode:normal"/><path d="m37.0489 285.018c-0.34813 0-0.7886 0.33315-0.89258 0.60351-0.10399 0.27036-0.0781 0.43233-0.0781 0.50977v2.34766h-2.34766c-0.0774 0-0.2394-0.0259-0.50976 0.0781-0.27037 0.10399-0.60547 0.54641-0.60547 0.89453s0.3351 0.7886 0.60547 0.89258 0.43234 0.0781 0.50976 0.0781h2.34766v2.34766c0 0.0774-0.0258 0.23941 0.0781 0.50977 0.10398 0.27035 0.54444 0.60547 0.89258 0.60546 0.34814 0 0.79055-0.33511 0.89453-0.60546 0.10398-0.27036 0.0762-0.43233 0.0762-0.50977v-2.34766h2.33789c0.0774 0 0.2394 0.0259 0.50977-0.0781 0.27036-0.10398 0.60546-0.54445 0.60546-0.89258s-0.33511-0.79054-0.60546-0.89453c-0.27036-0.10399-0.43232-0.0781-0.50977-0.0781h-2.33789v-2.34766c0-0.0774 0.0278-0.23941-0.0762-0.50977-0.10399-0.27036-0.5464-0.60351-0.89453-0.60351z" color="#000000" color-rendering="auto" fill="#ff1900" image-rendering="auto" solid-color="#000000" style="isolation:auto;mix-blend-mode:normal;text-decoration-color:#000000;text-decoration-line:none;text-decoration-style:solid;text-indent:0;text-transform:none;white-space:normal"/><path d="m139.133 288.48h-2.34766c-0.0774 0-0.2394-0.0259-0.50976 0.0781-0.27037 0.10399-0.60547 0.54641-0.60547 0.89453s0.3351 0.7886 0.60547 0.89258 0.43234 0.0781 0.50976 0.0781h6.62696c0.0774 0 0.2394 0.0259 0.50976-0.0781 0.27037-0.10398 0.60547-0.54445 0.60547-0.89258s-0.33511-0.79054-0.60547-0.89453c-0.27035-0.10399-0.43231-0.0781-0.50976-0.0781h-2.33789z" color="#000000" color-rendering="auto" fill="#ff1900" image-rendering="auto" solid-color="#000000" style="isolation:auto;mix-blend-mode:normal;text-decoration-color:#000000;text-decoration-line:none;text-decoration-style:solid;text-indent:0;text-transform:none;white-space:normal"/><path d="m51.4727 295.503v55.4676" color="#000000" color-rendering="auto" fill="none" image-rendering="auto" solid-color="#000000" stroke="#5a5a5a" stroke-linejoin="round" stroke-miterlimit="100" stroke-width="20" style="isolation:auto;mix-blend-mode:normal"/><path d="m125.67 294.183v55.4676" color="#000000" color-rendering="auto" fill="none" image-rendering="auto" solid-color="#000000" stroke="#5a5a5a" stroke-linejoin="round" stroke-miterlimit="100" stroke-width="20" style="isolation:auto;mix-blend-mode:normal"/></g><g fill="#fff"><path d="m46.0352 340.971q0.5625 1.4375 0.625 2.9375l-1.125 0.25q-0.3125-1.875-0.625-2.9375zm4.5 0.1875q-0.1875 1.5625-0.625 2.8125l-1.0625-0.25q0.4375-1.4375 0.625-3.0625l1.25 0.1875q0.25 0.25-0.1875 0.3125zm-0.1875-4.4375q-1.4375-1.875-2.3125-2.5625-0.5625 1.25-1.3125 2.1875h3v1.1875h-1.5v1.4375h2.4375v1.1875h-2.4375v4.5625l2.5-0.5 0.25 1.0625-5.5625 1.25q-0.0625 0.4375-0.3125 0.1875l-0.375-1.4375 2.4375-0.375v-4.75h-2.25v-1.1875h2.25v-1.4375h-1.1875l-0.8125 0.875-0.6875-1.1875q2-2.125 3-4.75l1.3125 0.25q0.25 0.25-0.1875 0.3125l-0.0625 0.125q1.25 0.8125 2.5625 2.3125zm3.8125 3.0625v2.5625h1.375v-2.5625zm-1.0625 4.6875v-5.6875h3.5v5.3125h-1.0625v-0.75h-1.375v1.125zm-0.125-8.375h3.875v1.1875h-3.875zm-1.75 10.875v-13.8125h7.25v12.9375q0 0.875-0.875 0.875h-1l-0.125-1.1875h0.6875q0.25 0 0.25-0.25v-11.1875h-5.125v12.625z" color="#000000" style="text-decoration-line:none;text-indent:0;text-transform:none"/><path d="m127.92 319.71h3.25v5.5625h-1.25v-0.4375h-2v3h4.8125v1.1875h-14.125v-1.1875h4.625v-3h-2v0.5h-1.25v-5.625h3.25v-2.5h-3.9375v-1.1875h12.5625v1.1875h-3.9375zm-1.25 8.125v-3h-2.1875v3zm1.25-6.9375v2.75h2v-2.75zm-3.4375 0v2.75h2.1875v-2.75zm-3.25 0v2.75h2v-2.75zm3.25-1.1875h2.1875v-2.5h-2.1875z" color="#000000" style="text-decoration-line:none;text-indent:0;text-transform:none"/><path d="m122.733 332.147q1.875 1.4375 2.6875 2.3125l-0.875 0.875q-1.375-1.4375-2.375-2.25-0.75 1.5-1.6875 2.5625h3.4375v1.1875h-1.5625v1.25h2v1.1875h-2v3.9375q0.9375-0.1875 2-0.5625v0.9375q-2.125 0.8125-4.75 1.4375-0.25 0.5625-0.4375 0.0625l-0.375-1.1875q1.125-0.125 2.3125-0.4375v-4.1875h-1.9375v-1.1875h1.9375v-1.25h-1.5l-0.4375 0.4375-0.875-0.875q2.3125-2.3125 3.4375-5.1875l1.3125 0.5625q0.1875 0.0625-0.3125 0.375zm5.0625 0.5625q-0.875 3.5625-2.3125 5.625l-1.125-0.75q1.8125-2.375 2.4375-5.75l1.1875 0.5q0.1875 0.0625-0.1875 0.375zm4.3125 5.8125q-2.25-2.125-3.1875-6.375l1.0625-0.375q0.9375 3.8125 3.0625 5.6875zm-6.5 0.4375h6.0625v6.25h-1.25v-0.625h-3.5625v0.9375h-1.25zm1.25 4.4375h3.5625v-3.25h-3.5625zm-2.5625-3.3125q-0.25 1.125-0.8125 2.25l-0.8125-0.4375q0.4375-1.0625 0.6875-2.125zm-4.5 2.6875q-0.25-1.0625-0.875-2.25l0.9375-0.4375q0.625 1 0.9375 2.3125z" color="#000000" style="text-decoration-line:none;text-indent:0;text-transform:none"/><path d="m103.394 275.768-13.365-10.5142 2.29079 6.30597h-18.5709v8.41641h18.5709l-2.29079 6.30596z" color="#000000" color-rendering="auto" image-rendering="auto" shape-rendering="auto" solid-color="#000000" stroke="#00f" stroke-linejoin="round" stroke-miterlimit="100" stroke-width="1.5" style="isolation:auto;mix-blend-mode:normal;text-decoration-color:#000000;text-decoration-line:none;text-decoration-style:solid;text-indent:0;text-transform:none;white-space:normal"/></g></g></svg>
