<?xml version="1.0" encoding="UTF-8"?>
<svg width="164.291" height="112.8" version="1.1" viewBox="0 0 164.29126 112.80015" xmlns="http://www.w3.org/2000/svg"><defs><marker id="Arrow1Lend" overflow="visible" orient="auto"><path transform="matrix(-.8 0 0 -.8 -10 0)" d="m0 0 5-5-17.5 5 17.5 5z" fill-rule="evenodd" stroke="#000" stroke-width="1pt"/></marker></defs><g transform="translate(-23.5687 -270.912)"><g stroke-linejoin="round" stroke-miterlimit="1e5"><path d="m33.7229 274.073c-0.688624 0.19128-1.03293 0.84163-1.03293 1.31984 0 0.42083 0.325184 0.8799 0.956416 0.8799 0.669488 0 1.37723-0.55472 1.37723-1.492 0-1.0138-1.01379-1.68329-2.18062-1.68329-1.0903 0-1.79805 0.82253-2.04672 1.16683-0.478208-0.80339-1.54939-1.16683-2.6397-1.16683-2.41016 0-3.71089 2.35278-3.71089 2.98401 0 0.2678 0.286923 0.2678 0.459078 0.2678 0.229539 0 0.363443 0 0.439955-0.24866 0.55472-1.74067 1.93195-2.31453 2.71621-2.31453 0.726881 0 1.07118 0.34431 1.07118 0.95642 0 0.36344-0.267792 1.41549-0.439953 2.10411l-0.650352 2.62056c-0.286928 1.16683-0.975552 1.74067-1.6259 1.74067-0.09565 0-0.5356 0-0.91816-0.28691 0.688608-0.19128 1.03293-0.84165 1.03293-1.31986 0-0.42081-0.325184-0.8799-0.956416-0.8799-0.669491 0-1.37724 0.55472-1.37724 1.49202 0 1.01379 1.0138 1.68328 2.18063 1.68328 1.0903 0 1.79805-0.82252 2.04672-1.16682 0.478209 0.80338 1.54939 1.16682 2.6397 1.16682 2.41016 0 3.71088-2.35277 3.71088-2.984 0-0.26781-0.286912-0.26781-0.459072-0.26781-0.229536 0-0.36344 0-0.439952 0.24867-0.55472 1.74067-1.93195 2.31451-2.71621 2.31451-0.72688 0-1.07118-0.3443-1.07118-0.9564 0-0.40169 0.248672-1.4155 0.420816-2.12325 0.133904-0.49732 0.573856-2.29539 0.669488-2.60144 0.286928-1.14769 0.956416-1.74067 1.6259-1.74067 0.09565 0 0.5356 0 0.91816 0.28693z" stroke-width=".833333"/><path d="m85.5104 293.073c-0.68862 0.19128-1.03293 0.84163-1.03293 1.31984 0 0.42083 0.32519 0.8799 0.95642 0.8799 0.66949 0 1.37723-0.55472 1.37723-1.492 0-1.0138-1.01379-1.68329-2.18062-1.68329-1.09031 0-1.79805 0.82253-2.04672 1.16683-0.47821-0.80339-1.54939-1.16683-2.6397-1.16683-2.41016 0-3.71089 2.35278-3.71089 2.98401 0 0.2678 0.28693 0.2678 0.45908 0.2678 0.22954 0 0.36344 0 0.43996-0.24866 0.55472-1.74067 1.93195-2.31453 2.7162-2.31453 0.72688 0 1.07119 0.34431 1.07119 0.95642 0 0.36344-0.26779 1.41549-0.43995 2.10411l-0.65036 2.62056c-0.28692 1.16683-0.97555 1.74067-1.6259 1.74067-0.0957 0-0.5356 0-0.91816-0.28691 0.68861-0.19128 1.03293-0.84165 1.03293-1.31986 0-0.42081-0.32519-0.8799-0.95642-0.8799-0.66949 0-1.37724 0.55472-1.37724 1.49202 0 1.01379 1.0138 1.68328 2.18063 1.68328 1.09031 0 1.79805-0.82252 2.04672-1.16682 0.47821 0.80338 1.5494 1.16682 2.6397 1.16682 2.41016 0 3.71088-2.35277 3.71088-2.984 0-0.26781-0.28691-0.26781-0.45907-0.26781-0.22954 0-0.36344 0-0.43995 0.24867-0.55472 1.74067-1.93196 2.31451-2.71621 2.31451-0.72688 0-1.07119-0.3443-1.07119-0.9564 0-0.40169 0.24868-1.4155 0.42082-2.12325 0.1339-0.49732 0.57386-2.29539 0.66949-2.60144 0.28693-1.14769 0.95641-1.74067 1.6259-1.74067 0.0957 0 0.5356 0 0.91816 0.28693z" fill="#f00" stroke-width="1.33333"/><path d="m94.169 294.843c0-0.20085 0-0.52221-0.32136-0.52221-0.33473 0-0.33473 0.30797-0.33473 0.52221v8.11421h-4.08389c-0.20085 0-0.53559 0-0.53559 0.32136 0 0.33474 0.30796 0.33474 0.53559 0.33474h8.82387c0.21424 0 0.53559 0 0.53559-0.32136 0-0.33474-0.30797-0.33474-0.53559-0.33474h-4.08389z" fill="#f00" stroke-width="1.33333"/></g><g fill="none"><path d="m90.6716 342.631-39.052-65.8357" marker-end="url(#Arrow1Lend)" stroke="#000" stroke-dasharray="1.99999997, 1.99999997" stroke-miterlimit="100"/><path d="m84.2398 331.788 11.3723-6.75429 6.75001 11.3795" stroke="#000" stroke-linejoin="round" stroke-width=".623622"/><path d="m183.957 287.861-159.378 94.4918" color="#000000" color-rendering="auto" image-rendering="auto" shape-rendering="auto" solid-color="#000000" stroke="#f00" stroke-linejoin="round" stroke-miterlimit="100" stroke-width="2" style="isolation:auto;mix-blend-mode:normal"/></g><ellipse transform="matrix(.859789 -.51065 .510172 .860072 0 0)" cx="-96.8167" cy="263.501" rx="4.65455" ry="4.65596" fill="#ef0000"/><g><path d="m131.712 336.789-0.50953-0.85729 5.53943-3.29236-3.1591-5.31522-5.01187 2.9788-0.49777-0.83751 11.0855-6.58864 0.49777 0.83751-4.99867 2.97097 3.15909 5.31522 5.60538-3.33156 0.50953 0.85729-5.60538 3.33156 2.5555 4.29965-1.07491 0.63888-2.5555-4.29966zm8.47972-7.03892-1.06932 0.24289q-0.0472-1.92631-0.54738-4.40444l1.26305-0.32233q0.38014 2.8618 0.35365 4.48388zm-6.57191 3.8525q-1.91835-1.54598-3.40357-2.52838l0.78413-0.94794q1.17963 0.75351 3.4246 2.53372z"/><path d="m157.889 326.059-8.8565 5.26385 0.36059 0.6067-1.00237 0.59576-5.19723-8.74438 4.26009-2.53199q-0.18907-1.03883-0.47296-2.05701l-5.43392 3.22965-0.47425-0.79794 12.1208-7.204 0.47426 0.79794-5.54603 3.29628q0.20581 1.12706 0.32129 2.14716l5.60538-3.33155 5.19722 8.74439-0.99578 0.59184zm-9.31508 4.49229 2.08389-1.23855-3.93124-6.61435-2.08388 1.23855zm6.57478-3.90771 2.28172-1.35614-3.93123-6.61435-2.28172 1.35614zm-7.45932-4.51743 0.99946 1.68161 2.55869-1.52076-0.99946-1.68161zm1.42669 2.40042 0.97595 1.64205 2.55869-1.52076-0.97595-1.64204zm2.50454 4.21393 2.55869-1.52076-1.10529-1.85967-2.55869 1.52076z"/><path d="m167.923 311.26-1.26599-2.13005-4.57004 2.7162 1.61091 2.71037-1.00897 0.59968-1.6109-2.71037-4.35242 2.58686 1.266 2.13004-0.91005 0.54089-1.6697-2.80929 5.26246-3.12774-0.50561-0.8507-4.41836 2.62605-0.41938-0.70562 9.91822-5.89489 0.43257 0.69778-4.50409 2.677 0.50561 0.8507 5.50646-3.27276 1.6697 2.80929zm-9.50844 4.48228-0.33707-0.56714 2.41361-1.43452 0.33707 0.56713zm5.44052-3.23357-0.33708-0.56713 2.57848-1.53252 0.33707 0.56713zm-4.69582 4.48653-0.33707-0.56713 2.41361-1.43453 0.33707 0.56714zm5.44052-3.23356-0.33708-0.56714 2.57848-1.53251 0.33707 0.56713zm-2.7265 8.01014 0.33708 0.56713-0.93643 0.55657-2.7162-4.57003 10.0567-5.97721 2.37912 4.00291-4.58981 2.72795 0.34491 0.58032q0.14502 0.24401 0.35922 0.3041 0.21421 0.0601 0.4778-0.052 0.27021-0.11593 0.83713-0.40833 0.56303-0.29892 1.12357-0.63208 0.65946-0.39195 1.36136-0.86263 0.70849-0.47461 0.88139-0.60412 0.17555-0.14006 0.24742-0.33446 0.0785-0.19834 0.0151-0.45515-0.0568-0.26074-0.70974-1.43438l0.93836-0.38816 0.87404 1.47059q0.16462 0.27697 0.15815 0.56638 1.3e-4 0.2855-0.13643 0.53622-0.13264 0.25731-0.33209 0.44725-0.19285 0.18604-1.2191 0.83171-1.01573 0.64837-1.90599 1.1775-1.66843 0.99163-2.23646 1.22209-0.56409 0.23709-0.94899 0.1-0.381-0.13052-0.6632-0.60533l-0.50169-0.8441zm-1.33224-2.33161 3.45555-2.0538-0.61536-1.03536-3.45555 2.05381zm4.47771-2.66132 3.62041-2.15179-0.61536-1.03536-3.62042 2.15179zm3.99668-1.51872-3.62042 2.15179 0.59577 1.00238 3.62041-2.15179zm-4.64257 2.75931-3.45556 2.05381 0.59577 1.00237 3.45555-2.0538z"/><path d="m177.581 301.594 0.52521 0.88367-1.03535 0.61536-0.52521-0.88367-3.42917 2.03813 0.54089 0.91005-1.02216 0.60752-0.54089-0.91005-3.3896 2.01461-0.50169-0.84411 3.3896-2.01461-0.57224-0.9628 1.02216-0.60752 0.57224 0.9628 3.42917-2.03812-0.57224-0.96281 1.03535-0.61535 0.57224 0.9628 3.44236-2.04597 0.50169 0.8441zm-1.21429 14.5184-3.02975-5.09759q-0.088 1.53367-0.40717 2.67827l-0.92418-0.17356q0.3095-1.65644 0.30756-3.71674 7.3e-4 -2.07083-0.32802-3.37469l1.14472-0.34125q0.25192 1.42985 0.2439 3.35329l0.28357-0.16854 3.71175 6.24505zm8.54711-5.21383-1.99815 1.1876-0.69505-0.85413 1.76734-1.05041q0.50778-0.3018 0.23734-0.75682l-3.69999-6.22528-6.17251 3.66863-0.51737-0.87047 8.42126-5.00518 0.51737 0.87048-1.20021 0.71335 3.89596 6.555q0.29788 0.50119 0.13277 0.97412-0.1546 0.47563-0.68876 0.79311zm-6.36371 0.61421 0.23909 0.40227-0.976 0.58008-2.57902-4.33922 4.37879-2.60253 2.33993 3.93695zm0.49947-4.62505-2.40042 1.42669 1.43453 2.41361 2.40042-1.42669z"/></g></g></svg>
