<?xml version="1.0" encoding="UTF-8"?>
<svg width="136.009" height="88.8959" version="1.1" viewBox="0 0 136.00896 88.895889" xmlns="http://www.w3.org/2000/svg"><g transform="translate(33.7188 -254.293)" shape-rendering="auto"><g fill="none" stroke="#555"><path d="m-5.52885 329.81v8.64071" color="#000000" color-rendering="auto" image-rendering="auto" solid-color="#000000" stroke-width="2" style="isolation:auto;mix-blend-mode:normal"/><path d="m-0.89972 325.572v17.117" color="#000000" color-rendering="auto" image-rendering="auto" solid-color="#000000" style="isolation:auto;mix-blend-mode:normal"/><path d="m-0.77524 334.13h26.5654v-45.0996h-58.509v45.0996h27.503" color="#000000" color-rendering="auto" image-rendering="auto" solid-color="#000000" style="isolation:auto;mix-blend-mode:normal"/></g><g><circle cx="-3.46429" cy="266.648" r="11.3553" color="#000000" color-rendering="auto" fill="#fff100" image-rendering="auto" solid-color="#000000" stroke="#ff7300" style="isolation:auto;mix-blend-mode:normal"/><path d="m-2.00663 276.268 4.06883-6.2525v-3.33347l-1.39866 0.0214c-0.0186-0.22878 5e-3 -0.47833-0.0141-0.69979-0.0465-0.55309-0.0931-1.05793-0.13961-1.41812-0.0465-0.36019-0.0931-0.57461-0.13962-0.60162-0.0465-0.027-0.0931 0.13252-0.13962 0.44921-0.0465 0.31669-0.0931 0.78801-0.13961 1.32507-0.0466 0.53705-0.0931 1.13663-0.13962 1.68488-0.0465 0.54826-0.0931 1.04257-0.13962 1.3885-0.0465 0.34593-0.0931 0.54245-0.13962 0.55135-0.0465 9e-3 -0.0931-0.16891-0.13961-0.50053-0.0465-0.33162-0.0931-0.81449-0.13962-1.35747-0.0465-0.54298-0.0931-1.14287-0.13962-1.68573-0.0465-0.54287-0.0931-1.02614-0.13962-1.35747-0.0465-0.33133-0.0931-0.50978-0.13962-0.50053-0.0465 9e-3 -0.0931 0.20513-0.13962 0.55135-0.0465 0.34622-0.0931 0.84014-0.13961 1.3885-0.0465 0.54836-0.0931 1.14795-0.13962 1.68488-0.0465 0.53693-0.0931 1.00868-0.13962 1.32508-0.0465 0.31638-0.0931 0.47657-0.13961 0.4492-0.0465-0.0273-0.0931-0.24114-0.13962-0.60162-0.0465-0.36047-0.0931-0.86494-0.13962-1.41812-0.0465-0.55319-0.0931-1.15189-0.13962-1.68234-0.0465-0.53045-0.0931-0.99021-0.13961-1.29135-0.0466-0.30113-0.0931-0.44289-0.13963-0.39742-0.0465 0.0455-0.0931 0.27691-0.13961 0.65127-0.0465 0.37436-0.0931 0.88888-0.13962 1.44633-0.0465 0.55745-0.0931 1.15466-0.13962 1.6781-0.0465 0.52344-0.0931 0.97075-0.13962 1.25632-0.0465 0.28557-0.0931 0.40876-0.13961 0.34524-0.0465-0.0635-0.0931-0.3124-0.13962-0.70027-0.0465-0.38787-0.0931-0.91192-0.13962-1.47308-0.0465-0.56116-0.0931-1.15626-0.13962-1.67217-0.0465-0.5159-0.0931-0.9503-0.13961-1.22002-0.0465-0.26971-0.0931-0.37423-0.13962-0.29272-0.0465 0.0815-0.0931 0.34758-0.13962 0.74858-0.0465 0.40098-0.0931 0.93403-0.13962 1.49833-0.0465 0.5643-0.0931 1.15671-0.13962 1.66456-0.0465 0.50784-0.0931 0.9289-0.13961 1.18249-0.0465 0.25363-0.0931 0.33932-0.13962 0.23991-0.0465-0.0994-0.0931-0.38242-0.13962-0.79612-0.0465-0.41371-0.0931-0.95521-0.13961-1.52209-0.0466-0.56689-0.0931-1.156-0.13963-1.65527-0.0465-0.49928-0.0931-0.90656-0.13962-1.14379-0.0465-0.23722-0.0931-0.30406-0.13961-0.18684-0.0465 0.11721-0.0931 0.41686-0.13962 0.84286-0.0465 0.42601-0.0931 0.97544-0.13962 1.54432-0.0465 0.56889-0.0931 1.15411-0.13961 1.64431-0.0465 0.4902-0.0931 0.88331-0.13962 1.10392-0.0465 0.22061-0.0931 0.26849-0.13962 0.1336-0.0465-0.13491-0.0931-0.45089-0.13962-0.88877-0.0465-0.43787-0.0931-0.99466-0.13962-1.56497-0.0465-0.57032-0.0931-1.15107-0.13961-1.63171-0.0466-0.48064-0.0931-0.85916-0.13962-1.06294-0.0465-0.20378-0.0931-0.23266-0.13962-0.0802-0.0465 0.15245-0.0931 0.48446-0.13962 0.93376-0.0465 0.44931-0.0931 1.0129-0.13961 1.58407-0.0465 0.57117-0.0931 1.14686-0.13962 1.61745-0.0465 0.47059-0.0931 0.83416-0.13963 1.0209-0.0465 0.18671-0.0931 0.19657-0.13961 0.0267-0.0465-0.16985-0.0931-0.51755-0.13962-0.97782-0.0465-0.46029-0.0931-1.03012-0.13961-1.60157h-1.40276v3.33347l4.06883 6.2525" color="#000000" color-rendering="auto" fill="none" image-rendering="auto" solid-color="#000000" stroke="#ff7300" style="isolation:auto;mix-blend-mode:normal"/><path d="m0.53986 294.962h-8.00829l-1.35564-2.65489-1.69944-1.62244-1.01206-11.829-2.53714-1.26845v-3.39236h21.2168v3.39236l-2.53713 1.26845-1.01206 11.829-1.69945 1.62244z" color="#000000" color-rendering="auto" fill="#c9c7c7" image-rendering="auto" solid-color="#000000" stroke="#717171" stroke-linejoin="round" stroke-miterlimit="100" stroke-width="1.5" style="isolation:auto;mix-blend-mode:normal"/></g><g fill="none" stroke-linejoin="round" stroke-miterlimit="1e5"><path d="m-1.16073 282.153h3.07143" color="#000000" color-rendering="auto" image-rendering="auto" solid-color="#000000" stroke="#828282" style="isolation:auto;mix-blend-mode:normal"/><path d="m-8.8393 282.153h3.07143" color="#000000" color-rendering="auto" image-rendering="auto" solid-color="#000000" stroke="#ededed" style="isolation:auto;mix-blend-mode:normal"/><path d="m-1.16073 285.626h3.07143" color="#000000" color-rendering="auto" image-rendering="auto" solid-color="#000000" stroke="#828282" style="isolation:auto;mix-blend-mode:normal"/><path d="m-8.8393 285.626h3.07143" color="#000000" color-rendering="auto" image-rendering="auto" solid-color="#000000" stroke="#ededed" style="isolation:auto;mix-blend-mode:normal"/><path d="m-1.16073 289.098h3.07143" color="#000000" color-rendering="auto" image-rendering="auto" solid-color="#000000" stroke="#828282" style="isolation:auto;mix-blend-mode:normal"/><path d="m-8.8393 289.098h3.07143" color="#000000" color-rendering="auto" image-rendering="auto" solid-color="#000000" stroke="#ededed" style="isolation:auto;mix-blend-mode:normal"/></g><path d="m-9.83929 278.681h12.75" color="#000000" color-rendering="auto" fill="#afafaf" image-rendering="auto" solid-color="#000000" stroke="#717171" stroke-linejoin="round" stroke-miterlimit="1e5" style="isolation:auto;mix-blend-mode:normal"/><g fill="#5f5f5f"><path d="m-7.81803 317.808h-1.44914q-1.10109-1.30993-1.73391-2.77172-0.626485-1.4618-0.626485-3.45516 0-1.94906 0.620157-3.42984 0.626484-1.48711 1.74023-2.79703h1.44914v0.0633q-0.512578 0.46195-0.980859 1.06945-0.461953 0.60117-0.860625 1.40484-0.379687 0.77836-0.620156 1.71493-0.234141 0.93656-0.234141 1.97437 0 1.08211 0.227813 1.9807 0.234141 0.8986 0.626484 1.7086 0.379688 0.77836 0.866953 1.40484 0.487266 0.63281 0.974531 1.06945z" color="#000000" color-rendering="auto" image-rendering="auto" solid-color="#000000" style="isolation:auto;mix-blend-mode:normal;text-decoration-line:none;text-indent:0;text-transform:none"/><path d="m-7.41303 315.2 3.17672-9.42258h1.54406l3.17672 9.42258h-1.32258l-0.854297-2.6325h-3.6007l-0.854297 2.6325zm5.37258-3.70195-1.45547-4.44235-1.44914 4.44235z" color="#000000" color-rendering="auto" image-rendering="auto" solid-color="#000000" style="isolation:auto;mix-blend-mode:normal;text-decoration-line:none;text-indent:0;text-transform:none"/><path d="m4.699 311.581q0 1.95539-0.626484 3.43617t-1.73391 2.79071h-1.44914v-0.0633q0.487266-0.43664 0.980859-1.07578 0.493594-0.63281 0.860625-1.39851 0.392344-0.81633 0.620156-1.72125 0.234141-0.91125 0.234141-1.96805 0-1.04414-0.234141-1.97437-0.234141-0.93024-0.620156-1.71493-0.386016-0.78468-0.873281-1.41117-0.487266-0.62648-0.968203-1.06312v-0.0633h1.44914q1.10109 1.30992 1.72758 2.78437 0.632812 1.47445 0.632812 3.4425z" color="#000000" color-rendering="auto" image-rendering="auto" solid-color="#000000" style="isolation:auto;mix-blend-mode:normal;text-decoration-line:none;text-indent:0;text-transform:none"/></g><g fill="none" stroke="#555"><path d="m65.3854 329.81v8.64071" color="#000000" color-rendering="auto" image-rendering="auto" solid-color="#000000" stroke-width="2" style="isolation:auto;mix-blend-mode:normal"/><path d="m70.0145 325.572v17.117" color="#000000" color-rendering="auto" image-rendering="auto" solid-color="#000000" style="isolation:auto;mix-blend-mode:normal"/><path d="m74.5569 329.81v8.64071" color="#000000" color-rendering="auto" image-rendering="auto" solid-color="#000000" stroke-width="2" style="isolation:auto;mix-blend-mode:normal"/><path d="m79.1861 325.572v17.117" color="#000000" color-rendering="auto" image-rendering="auto" solid-color="#000000" style="isolation:auto;mix-blend-mode:normal"/><path d="m79.1739 334.13h22.1163v-45.0996h-58.509v45.0996h22.604" color="#000000" color-rendering="auto" image-rendering="auto" solid-color="#000000" style="isolation:auto;mix-blend-mode:normal"/></g><g><circle cx="88.2286" cy="266.648" r="11.3553" color="#000000" color-rendering="auto" fill="#fff100" image-rendering="auto" solid-color="#000000" stroke="#ff7300" style="isolation:auto;mix-blend-mode:normal"/><path d="m89.6863 276.268 4.06883-6.2525v-3.33347l-1.39866 0.0214c-0.0186-0.22878 5e-3 -0.47833-0.0141-0.69979-0.0465-0.55309-0.0931-1.05793-0.13961-1.41812-0.0465-0.36019-0.0931-0.57461-0.13962-0.60162-0.0465-0.027-0.0931 0.13252-0.13962 0.44921-0.0465 0.31669-0.0931 0.78801-0.13961 1.32507-0.0466 0.53705-0.0931 1.13663-0.13962 1.68488-0.0465 0.54826-0.0931 1.04257-0.13962 1.3885-0.0465 0.34593-0.0931 0.54245-0.13962 0.55135-0.0465 9e-3 -0.0931-0.16891-0.13961-0.50053-0.0465-0.33162-0.0931-0.81449-0.13962-1.35747-0.0465-0.54298-0.0931-1.14287-0.13962-1.68573-0.0465-0.54287-0.0931-1.02614-0.13962-1.35747-0.0465-0.33133-0.0931-0.50978-0.13962-0.50053-0.0465 9e-3 -0.0931 0.20513-0.13962 0.55135-0.0465 0.34622-0.0931 0.84014-0.13961 1.3885-0.0465 0.54836-0.0931 1.14795-0.13962 1.68488-0.0465 0.53693-0.0931 1.00868-0.13962 1.32508-0.0465 0.31638-0.0931 0.47657-0.13961 0.4492-0.0465-0.0273-0.0931-0.24114-0.13962-0.60162-0.0465-0.36047-0.0931-0.86494-0.13962-1.41812-0.0465-0.55319-0.0931-1.15189-0.13962-1.68234-0.0465-0.53045-0.0931-0.99021-0.13961-1.29135-0.0466-0.30113-0.0931-0.44289-0.13963-0.39742-0.0465 0.0455-0.0931 0.27691-0.13961 0.65127-0.0465 0.37436-0.0931 0.88888-0.13962 1.44633-0.0465 0.55745-0.0931 1.15466-0.13962 1.6781-0.0465 0.52344-0.0931 0.97075-0.13962 1.25632-0.0465 0.28557-0.0931 0.40876-0.13961 0.34524-0.0465-0.0635-0.0931-0.3124-0.13962-0.70027-0.0465-0.38787-0.0931-0.91192-0.13962-1.47308-0.0465-0.56116-0.0931-1.15626-0.13962-1.67217-0.0465-0.5159-0.0931-0.9503-0.13961-1.22002-0.0465-0.26971-0.0931-0.37423-0.13962-0.29272-0.0465 0.0815-0.0931 0.34758-0.13962 0.74858-0.0465 0.40098-0.0931 0.93403-0.13962 1.49833-0.0465 0.5643-0.0931 1.15671-0.13962 1.66456-0.0465 0.50784-0.0931 0.9289-0.13961 1.18249-0.0465 0.25363-0.0931 0.33932-0.13962 0.23991-0.0465-0.0994-0.0931-0.38242-0.13962-0.79612-0.0465-0.41371-0.0931-0.95521-0.13961-1.52209-0.0466-0.56689-0.0931-1.156-0.13963-1.65527-0.0465-0.49928-0.0931-0.90656-0.13962-1.14379-0.0465-0.23722-0.0931-0.30406-0.13961-0.18684-0.0465 0.11721-0.0931 0.41686-0.13962 0.84286-0.0465 0.42601-0.0931 0.97544-0.13962 1.54432-0.0465 0.56889-0.0931 1.15411-0.13961 1.64431-0.0465 0.4902-0.0931 0.88331-0.13962 1.10392-0.0465 0.22061-0.0931 0.26849-0.13962 0.1336-0.0465-0.13491-0.0931-0.45089-0.13962-0.88877-0.0465-0.43787-0.0931-0.99466-0.13962-1.56497-0.0465-0.57032-0.0931-1.15107-0.13961-1.63171-0.0466-0.48064-0.0931-0.85916-0.13962-1.06294-0.0465-0.20378-0.0931-0.23266-0.13962-0.0802-0.0465 0.15245-0.0931 0.48446-0.13962 0.93376-0.0465 0.44931-0.0931 1.0129-0.13961 1.58407-0.0465 0.57117-0.0931 1.14686-0.13962 1.61745-0.0465 0.47059-0.0931 0.83416-0.13963 1.0209-0.0465 0.18671-0.0931 0.19657-0.13961 0.0267-0.0465-0.16985-0.0931-0.51755-0.13962-0.97782-0.0465-0.46029-0.0931-1.03012-0.13961-1.60157h-1.40276v3.33347l4.06883 6.2525" color="#000000" color-rendering="auto" fill="none" image-rendering="auto" solid-color="#000000" stroke="#ff7300" style="isolation:auto;mix-blend-mode:normal"/><path d="m92.2328 294.962h-8.00829l-1.35564-2.65489-1.69944-1.62244-1.01206-11.829-2.53714-1.26845v-3.39236h21.2168v3.39236l-2.53713 1.26845-1.01206 11.829-1.69945 1.62244z" color="#000000" color-rendering="auto" fill="#c9c7c7" image-rendering="auto" solid-color="#000000" stroke="#717171" stroke-linejoin="round" stroke-miterlimit="100" stroke-width="1.5" style="isolation:auto;mix-blend-mode:normal"/></g><g fill="none" stroke-linejoin="round" stroke-miterlimit="1e5"><path d="m90.5322 282.153h3.07143" color="#000000" color-rendering="auto" image-rendering="auto" solid-color="#000000" stroke="#828282" style="isolation:auto;mix-blend-mode:normal"/><path d="m82.8536 282.153h3.07143" color="#000000" color-rendering="auto" image-rendering="auto" solid-color="#000000" stroke="#ededed" style="isolation:auto;mix-blend-mode:normal"/><path d="m90.5322 285.626h3.07143" color="#000000" color-rendering="auto" image-rendering="auto" solid-color="#000000" stroke="#828282" style="isolation:auto;mix-blend-mode:normal"/><path d="m82.8536 285.626h3.07143" color="#000000" color-rendering="auto" image-rendering="auto" solid-color="#000000" stroke="#ededed" style="isolation:auto;mix-blend-mode:normal"/><path d="m90.5322 289.098h3.07143" color="#000000" color-rendering="auto" image-rendering="auto" solid-color="#000000" stroke="#828282" style="isolation:auto;mix-blend-mode:normal"/><path d="m82.8536 289.098h3.07143" color="#000000" color-rendering="auto" image-rendering="auto" solid-color="#000000" stroke="#ededed" style="isolation:auto;mix-blend-mode:normal"/></g><g><path d="m81.8536 278.681h12.75" color="#000000" color-rendering="auto" fill="#afafaf" image-rendering="auto" solid-color="#000000" stroke="#717171" stroke-linejoin="round" stroke-miterlimit="1e5" style="isolation:auto;mix-blend-mode:normal"/><circle cx="56.2286" cy="266.648" r="11.3553" color="#000000" color-rendering="auto" fill="#fff100" image-rendering="auto" solid-color="#000000" stroke="#ff7300" style="isolation:auto;mix-blend-mode:normal"/><path d="m57.6863 276.268 4.06883-6.2525v-3.33347l-1.39866 0.0214c-0.0186-0.22878 5e-3 -0.47833-0.0141-0.69979-0.0465-0.55309-0.0931-1.05793-0.13961-1.41812-0.0465-0.36019-0.0931-0.57461-0.13962-0.60162-0.0465-0.027-0.0931 0.13252-0.13962 0.44921-0.0465 0.31669-0.0931 0.78801-0.13961 1.32507-0.0466 0.53705-0.0931 1.13663-0.13962 1.68488-0.0465 0.54826-0.0931 1.04257-0.13962 1.3885-0.0465 0.34593-0.0931 0.54245-0.13962 0.55135-0.0465 9e-3 -0.0931-0.16891-0.13961-0.50053-0.0465-0.33162-0.0931-0.81449-0.13962-1.35747-0.0465-0.54298-0.0931-1.14287-0.13962-1.68573-0.0465-0.54287-0.0931-1.02614-0.13962-1.35747-0.0465-0.33133-0.0931-0.50978-0.13962-0.50053-0.0465 9e-3 -0.0931 0.20513-0.13962 0.55135-0.0465 0.34622-0.0931 0.84014-0.13961 1.3885-0.0465 0.54836-0.0931 1.14795-0.13962 1.68488-0.0465 0.53693-0.0931 1.00868-0.13962 1.32508-0.0465 0.31638-0.0931 0.47657-0.13961 0.4492-0.0465-0.0273-0.0931-0.24114-0.13962-0.60162-0.0465-0.36047-0.0931-0.86494-0.13962-1.41812-0.0465-0.55319-0.0931-1.15189-0.13962-1.68234-0.0465-0.53045-0.0931-0.99021-0.13961-1.29135-0.0466-0.30113-0.0931-0.44289-0.13963-0.39742-0.0465 0.0455-0.0931 0.27691-0.13961 0.65127-0.0465 0.37436-0.0931 0.88888-0.13962 1.44633-0.0465 0.55745-0.0931 1.15466-0.13962 1.6781-0.0465 0.52344-0.0931 0.97075-0.13962 1.25632-0.0465 0.28557-0.0931 0.40876-0.13961 0.34524-0.0465-0.0635-0.0931-0.3124-0.13962-0.70027-0.0465-0.38787-0.0931-0.91192-0.13962-1.47308-0.0465-0.56116-0.0931-1.15626-0.13962-1.67217-0.0465-0.5159-0.0931-0.9503-0.13961-1.22002-0.0465-0.26971-0.0931-0.37423-0.13962-0.29272-0.0465 0.0815-0.0931 0.34758-0.13962 0.74858-0.0465 0.40098-0.0931 0.93403-0.13962 1.49833-0.0465 0.5643-0.0931 1.15671-0.13962 1.66456-0.0465 0.50784-0.0931 0.9289-0.13961 1.18249-0.0465 0.25363-0.0931 0.33932-0.13962 0.23991-0.0465-0.0994-0.0931-0.38242-0.13962-0.79612-0.0465-0.41371-0.0931-0.95521-0.13961-1.52209-0.0466-0.56689-0.0931-1.156-0.13963-1.65527-0.0465-0.49928-0.0931-0.90656-0.13962-1.14379-0.0465-0.23722-0.0931-0.30406-0.13961-0.18684-0.0465 0.11721-0.0931 0.41686-0.13962 0.84286-0.0465 0.42601-0.0931 0.97544-0.13962 1.54432-0.0465 0.56889-0.0931 1.15411-0.13961 1.64431-0.0465 0.4902-0.0931 0.88331-0.13962 1.10392-0.0465 0.22061-0.0931 0.26849-0.13962 0.1336-0.0465-0.13491-0.0931-0.45089-0.13962-0.88877-0.0465-0.43787-0.0931-0.99466-0.13962-1.56497-0.0465-0.57032-0.0931-1.15107-0.13961-1.63171-0.0466-0.48064-0.0931-0.85916-0.13962-1.06294-0.0465-0.20378-0.0931-0.23266-0.13962-0.0802-0.0465 0.15245-0.0931 0.48446-0.13962 0.93376-0.0465 0.44931-0.0931 1.0129-0.13961 1.58407-0.0465 0.57117-0.0931 1.14686-0.13962 1.61745-0.0465 0.47059-0.0931 0.83416-0.13963 1.0209-0.0465 0.18671-0.0931 0.19657-0.13961 0.0267-0.0465-0.16985-0.0931-0.51755-0.13962-0.97782-0.0465-0.46029-0.0931-1.03012-0.13961-1.60157h-1.40276v3.33347l4.06883 6.2525" color="#000000" color-rendering="auto" fill="none" image-rendering="auto" solid-color="#000000" stroke="#ff7300" style="isolation:auto;mix-blend-mode:normal"/><path d="m60.2328 294.962h-8.00829l-1.35564-2.65489-1.69944-1.62244-1.01206-11.829-2.53714-1.26845v-3.39236h21.2168v3.39236l-2.53713 1.26845-1.01206 11.829-1.69945 1.62244z" color="#000000" color-rendering="auto" fill="#c9c7c7" image-rendering="auto" solid-color="#000000" stroke="#717171" stroke-linejoin="round" stroke-miterlimit="100" stroke-width="1.5" style="isolation:auto;mix-blend-mode:normal"/></g><g fill="none" stroke-linejoin="round" stroke-miterlimit="1e5"><path d="m58.5322 282.153h3.07143" color="#000000" color-rendering="auto" image-rendering="auto" solid-color="#000000" stroke="#828282" style="isolation:auto;mix-blend-mode:normal"/><path d="m50.8536 282.153h3.07143" color="#000000" color-rendering="auto" image-rendering="auto" solid-color="#000000" stroke="#ededed" style="isolation:auto;mix-blend-mode:normal"/><path d="m58.5322 285.626h3.07143" color="#000000" color-rendering="auto" image-rendering="auto" solid-color="#000000" stroke="#828282" style="isolation:auto;mix-blend-mode:normal"/><path d="m50.8536 285.626h3.07143" color="#000000" color-rendering="auto" image-rendering="auto" solid-color="#000000" stroke="#ededed" style="isolation:auto;mix-blend-mode:normal"/><path d="m58.5322 289.098h3.07143" color="#000000" color-rendering="auto" image-rendering="auto" solid-color="#000000" stroke="#828282" style="isolation:auto;mix-blend-mode:normal"/><path d="m50.8536 289.098h3.07143" color="#000000" color-rendering="auto" image-rendering="auto" solid-color="#000000" stroke="#ededed" style="isolation:auto;mix-blend-mode:normal"/></g><path d="m49.8536 278.681h12.75" color="#000000" color-rendering="auto" fill="#afafaf" image-rendering="auto" solid-color="#000000" stroke="#717171" stroke-linejoin="round" stroke-miterlimit="1e5" style="isolation:auto;mix-blend-mode:normal"/><g fill="#5f5f5f"><path d="m67.6693 317.808h-1.44914q-1.10109-1.30993-1.73391-2.77172-0.626484-1.4618-0.626484-3.45516 0-1.94906 0.620156-3.42984 0.626484-1.48711 1.74023-2.79703h1.44914v0.0633q-0.512578 0.46195-0.980859 1.06945-0.461954 0.60117-0.860625 1.40484-0.379688 0.77836-0.620157 1.71493-0.23414 0.93656-0.23414 1.97437 0 1.08211 0.227812 1.9807 0.234141 0.8986 0.626485 1.7086 0.379687 0.77836 0.866953 1.40484 0.487265 0.63281 0.974531 1.06945z" color="#000000" color-rendering="auto" image-rendering="auto" solid-color="#000000" style="isolation:auto;mix-blend-mode:normal;text-decoration-line:none;text-indent:0;text-transform:none"/><path d="m76.5224 310.499q0 1.29094-0.525235 2.32875-0.518906 1.03781-1.39852 1.62-0.715078 0.4493-1.45547 0.60117-0.734063 0.15188-1.87945 0.15188h-2.17055v-9.42258h2.14523q1.32891 0 2.08195 0.2025 0.759375 0.19617 1.29094 0.54422 0.91125 0.60117 1.41117 1.60101 0.499922 0.99352 0.499922 2.37305zm-1.30359-0.019q0-1.08844-0.360703-1.85414-0.360703-0.77203-1.06945-1.20235-0.499922-0.30375-1.06945-0.43664-0.569532-0.13289-1.4175-0.13289h-0.955547v7.27102h0.955547q0.835312 0 1.4618-0.13289 0.626485-0.13289 1.14539-0.4936 0.651797-0.44297 0.980859-1.17703 0.329063-0.74039 0.329063-1.84148z" color="#000000" color-rendering="auto" image-rendering="auto" solid-color="#000000" style="isolation:auto;mix-blend-mode:normal;text-decoration-line:none;text-indent:0;text-transform:none"/><path d="m81.1988 311.581q0 1.95539-0.626485 3.43617-0.626484 1.48078-1.73391 2.79071h-1.44914v-0.0633q0.487266-0.43664 0.98086-1.07578 0.493594-0.63281 0.860625-1.39851 0.392344-0.81633 0.620156-1.72125 0.234141-0.91125 0.234141-1.96805 0-1.04414-0.234141-1.97437-0.234141-0.93024-0.620156-1.71493-0.386016-0.78468-0.873281-1.41117-0.487266-0.62648-0.968204-1.06312v-0.0633h1.44914q1.10109 1.30992 1.72758 2.78437 0.632813 1.47445 0.632813 3.4425z" color="#000000" color-rendering="auto" image-rendering="auto" solid-color="#000000" style="isolation:auto;mix-blend-mode:normal;text-decoration-line:none;text-indent:0;text-transform:none"/></g></g></svg>
