<?xml version="1.0" encoding="UTF-8"?>
<svg width="116.514" height="124.807" version="1.1" viewBox="0 0 116.51375 124.80667" xmlns="http://www.w3.org/2000/svg" xmlns:xlink="http://www.w3.org/1999/xlink"><defs><linearGradient id="linearGradient5061-0" x1="337.355" x2="337.355" y1="2.90031" y2="-7.44804" gradientTransform="matrix(1.60809 0 0 1 -511.728 341.872)" gradientUnits="userSpaceOnUse"><stop stop-color="#555" offset="0"/><stop stop-color="#fe9300" offset="1"/></linearGradient></defs><g transform="translate(9.68545 -242.052)"><rect x="-8.18545" y="243.552" width="76" height="104.99" rx="19" ry="19" fill="none" stroke="#a1b3ff" stroke-linejoin="round" stroke-miterlimit="100" stroke-width="2"/><g shape-rendering="auto"><path d="m90.89 312.064h8.64072" color="#000000" color-rendering="auto" fill="none" image-rendering="auto" solid-color="#000000" stroke="#555" style="isolation:auto;mix-blend-mode:normal"/><path d="m86.6518 307.435h17.117" color="#000000" color-rendering="auto" fill="none" image-rendering="auto" solid-color="#000000" stroke="#555" style="isolation:auto;mix-blend-mode:normal"/><path d="m102.745 295.263c-0.28198 0-0.63876 0.26985-0.72298 0.48885-0.0842 0.21898-0.0633 0.35018-0.0633 0.41291v1.9016h-1.90161c-0.0627 0-0.19391-0.021-0.41291 0.0633-0.21899 0.0842-0.49042 0.44259-0.49042 0.72457s0.27143 0.63877 0.49042 0.72299c0.21901 0.0842 0.3502 0.0633 0.41291 0.0633h1.90161v1.90161c0 0.0627-0.0209 0.19392 0.0633 0.41291 0.0842 0.21898 0.441 0.49043 0.72298 0.49042 0.282 0 0.64035-0.27144 0.72458-0.49042 0.0842-0.21899 0.0617-0.35019 0.0617-0.41291v-1.90161h1.89369c0.0627 0 0.19391 0.021 0.41291-0.0633 0.21899-0.0842 0.49042-0.441 0.49042-0.72299s-0.27144-0.64034-0.49042-0.72457c-0.21899-0.0842-0.35018-0.0633-0.41291-0.0633h-1.89369v-1.9016c0-0.0627 0.0225-0.19393-0.0617-0.41291-0.0842-0.219-0.44259-0.48885-0.72458-0.48885z" color="#000000" color-rendering="auto" image-rendering="auto" solid-color="#000000" style="isolation:auto;mix-blend-mode:normal;text-decoration-color:#000000;text-decoration-line:none;text-decoration-style:solid;text-indent:0;text-transform:none;white-space:normal"/><path d="m101.959 317.305h-1.9016c-0.0627 0-0.19391-0.021-0.41291 0.0633-0.219 0.0842-0.49043 0.44258-0.49043 0.72456s0.27143 0.63877 0.49043 0.72299c0.21901 0.0842 0.3502 0.0633 0.41291 0.0633h5.36784c0.0627 0 0.19391 0.021 0.41291-0.0633 0.219-0.0842 0.49043-0.441 0.49043-0.72299 0-0.28198-0.27144-0.64033-0.49043-0.72456-0.21899-0.0842-0.35017-0.0633-0.41291-0.0633h-1.89369z" color="#000000" color-rendering="auto" image-rendering="auto" solid-color="#000000" style="isolation:auto;mix-blend-mode:normal;text-decoration-color:#000000;text-decoration-line:none;text-decoration-style:solid;text-indent:0;text-transform:none;white-space:normal"/><path d="m45.4449 263.776h49.7654v43.9012m0 4.5v43.5458h-45.0833" color="#000000" color-rendering="auto" fill="none" image-rendering="auto" solid-color="#000000" stroke="#555" style="isolation:auto;mix-blend-mode:normal"/><path d="m11.8004 263.776h36.0284" color="#000000" color-rendering="auto" fill="none" image-rendering="auto" solid-color="#000000" stroke="#555" stroke-width="5" style="isolation:auto;mix-blend-mode:normal"/><g><path d="m29.8146 310.27-10.5142-13.365 6.30597 2.29079v-18.5709h8.41641v18.5709l6.30596-2.29079z" color="#000000" color-rendering="auto" fill="#fff" image-rendering="auto" solid-color="#000000" stroke="#00f" stroke-linejoin="round" stroke-miterlimit="100" stroke-width="1.5" style="isolation:auto;mix-blend-mode:normal;text-decoration-color:#000000;text-decoration-line:none;text-decoration-style:solid;text-indent:0;text-transform:none;white-space:normal"/><path d="m-3.23233 333.514 3.92188-11.6328h1.90625l3.92188 11.6328h-1.63281l-1.05469-3.25h-4.44531l-1.05469 3.25zm6.63281-4.57031-1.79688-5.48438-1.78906 5.48438z" color="#000000" color-rendering="auto" dominant-baseline="auto" fill="#f00" image-rendering="auto" solid-color="#000000" style="font-feature-settings:normal;font-variant-alternates:normal;font-variant-caps:normal;font-variant-ligatures:normal;font-variant-numeric:normal;font-variant-position:normal;isolation:auto;mix-blend-mode:normal;shape-padding:0;text-decoration-color:#000000;text-decoration-line:none;text-decoration-style:solid;text-indent:0;text-orientation:mixed;text-transform:none;white-space:normal"/><path d="m5.58799 266.022q0 0.86719-0.328125 1.53125t-0.882812 1.09375q-0.65625 0.51563-1.40625 0.73438-0.75 0.21093-1.9375 0.21093h-3.33594v-11.6328h3.08594q1.24219 0 1.85937 0.0859 0.625 0.0781 1.19531 0.38281 0.625 0.33594 0.914062 0.88281 0.289062 0.53907 0.289062 1.27344 0 0.82031-0.4375 1.46875-0.429688 0.64844-1.19531 1.01563v0.0625q1.03906 0.28125 1.60938 1.03125 0.570312 0.74218 0.570312 1.85937zm-2.15625-5.21875q0-0.42187-0.140625-0.72656-0.140625-0.3125-0.453125-0.49219-0.375-0.21094-0.835938-0.25781-0.460938-0.0469-1.27344-0.0469h-1.48438v3.40625h1.75781q0.726562 0 1.07031-0.0703 0.34375-0.0781 0.710938-0.3125 0.351562-0.22656 0.5-0.59375t0.148438-0.90625zm0.546875 5.28125q0-0.65625-0.1875-1.07812-0.1875-0.42969-0.757812-0.72657-0.367188-0.19531-0.804688-0.25-0.429688-0.0547-1.22656-0.0547h-1.75781v4.29687h1.25781q1.01562 0 1.60156-0.0937t1.03125-0.39844q0.4375-0.30468 0.640625-0.6875 0.203125-0.39062 0.203125-1.00781z" color="#000000" color-rendering="auto" dominant-baseline="auto" fill="#f00" image-rendering="auto" solid-color="#000000" style="font-feature-settings:normal;font-variant-alternates:normal;font-variant-caps:normal;font-variant-ligatures:normal;font-variant-numeric:normal;font-variant-position:normal;isolation:auto;mix-blend-mode:normal;shape-padding:0;text-decoration-color:#000000;text-decoration-line:none;text-decoration-style:solid;text-indent:0;text-orientation:mixed;text-transform:none;white-space:normal"/></g><path d="m50.0735 366.359v-38.8595l-5.12723 0.0486c-0.0683-0.51953 0.0167-1.08624-0.0516-1.58915-0.1706-1.25602-0.3412-2.40247-0.51181-3.22042-0.17058-0.81796-0.34119-1.30488-0.51181-1.36622-0.1706-0.0613-0.3412 0.30094-0.5118 1.02011-0.17061 0.71917-0.34121 1.78951-0.51181 3.00911-0.17062 1.21959-0.34121 2.58117-0.51183 3.8262-0.1706 1.24503-0.34119 2.36756-0.5118 3.15314s-0.34121 1.23186-0.51181 1.25206c-0.17061 0.0201-0.34121-0.38357-0.51181-1.13666-0.1706-0.75307-0.34121-1.84962-0.51182-3.08267s-0.34121-2.59534-0.51183-3.82813c-0.17059-1.23279-0.34119-2.33026-0.51179-3.08268-0.1706-0.75241-0.34121-1.15766-0.51183-1.13665-0.1706 0.021-0.3412 0.46583-0.51182 1.25206-0.17059 0.78624-0.34119 1.90788-0.51179 3.15314-0.17062 1.24527-0.34122 2.60689-0.51181 3.8262-0.1706 1.21931-0.34122 2.29062-0.51184 3.00912-0.17059 0.71848-0.34117 1.08224-0.51179 1.0201-0.1706-0.0621-0.34122-0.54762-0.51181-1.36622-0.1706-0.8186-0.34122-1.9642-0.51182-3.22042-0.17061-1.25623-0.34119-2.61582-0.51181-3.82042s-0.34121-2.24868-0.51181-2.93253c-0.17062-0.68383-0.34122-1.00576-0.51182-0.9025-0.17059 0.10324-0.34119 0.62884-0.51181 1.47897-0.17061 0.85013-0.34121 2.01855-0.51181 3.28446-0.17062 1.26593-0.34121 2.62213-0.51181 3.81081-0.17062 1.18867-0.3412 2.20447-0.51182 2.85297-0.17061 0.6485-0.34119 0.92827-0.5118 0.78402-0.17061-0.14424-0.34122-0.70944-0.51182-1.59026-0.1706-0.88081-0.34121-2.07086-0.51181-3.34521-0.17062-1.27433-0.34122-2.62576-0.51182-3.79733s-0.34121-2.15804-0.51181-2.77055c-0.1706-0.61249-0.34121-0.84984-0.51181-0.66474-0.1706 0.18508-0.3412 0.78933-0.51179 1.69995-0.17062 0.91059-0.34122 2.12109-0.51182 3.40256-0.17062 1.28148-0.34121 2.62679-0.51183 3.78006-0.1706 1.15325-0.34119 2.10943-0.51179 2.68532-0.17062 0.57596-0.34122 0.77056-0.51183 0.54481-0.1706-0.22575-0.3412-0.86844-0.51182-1.80792-0.17059-0.93948-0.34119-2.16919-0.51179-3.45651-0.17062-1.28734-0.34122-2.62515-0.51184-3.75895-0.17059-1.13382-0.34119-2.05872-0.51181-2.59743-0.1706-0.53871-0.34119-0.69049-0.51181-0.4243-0.1706 0.26618-0.3412 0.94665-0.51181 1.91406-0.1706 0.96742-0.3412 2.21511-0.51182 3.50699-0.1706 1.29188-0.34119 2.62086-0.51179 3.73406-0.17062 1.11321-0.34122 2.00592-0.51183 2.5069-0.1706 0.50099-0.3412 0.60972-0.5118 0.30338-0.17061-0.30636-0.34121-1.02391-0.51181-2.01829-0.17062-0.99437-0.34121-2.25878-0.51183-3.55391-0.1706-1.29513-0.3412-2.61395-0.51181-3.70544-0.17061-1.09148-0.34122-1.95107-0.5118-2.41383-0.17061-0.46276-0.34123-0.52836-0.51181-0.18215-0.17062 0.3462-0.34122 1.10015-0.51183 2.12048-0.1706 1.02032-0.3412 2.30019-0.5118 3.59726-0.17061 1.29708-0.34121 2.6044-0.51183 3.67307-0.17058 1.06864-0.3412 1.8943-0.51182 2.31835-0.17059 0.424-0.34119 0.4464-0.51179 0.0607-0.17062-0.38571-0.34123-1.17529-0.51183-2.22053-0.17059-1.04526-0.3412-2.33929-0.51181-3.637h-5.14223v38.8595" color="#000000" color-rendering="auto" fill="none" image-rendering="auto" solid-color="#000000" stroke="url(#linearGradient5061-0)" style="isolation:auto;mix-blend-mode:normal"/><path d="m52.2833 355.723a2.20971 2.20971 0 0 1 -2.20972 2.20972 2.20971 2.20971 0 0 1 -2.20971 -2.20972 2.20971 2.20971 0 0 1 2.20971 -2.2097 2.20971 2.20971 0 0 1 2.20972 2.2097z" color="#000000" color-rendering="auto" fill="#5f5f5f" image-rendering="auto" solid-color="#000000" style="isolation:auto;mix-blend-mode:normal"/></g></g></svg>
