<?xml version="1.0" encoding="UTF-8"?>
<svg width="230.272" height="136.199" version="1.1" viewBox="0 0 230.27203 136.19917" xmlns="http://www.w3.org/2000/svg"><g transform="translate(-7.72113 -264.927)" shape-rendering="auto"><path d="m121.857 273.499v127.127" color="#000000" color-rendering="auto" fill="none" image-rendering="auto" solid-color="#000000" stroke="#000" stroke-linejoin="round" stroke-miterlimit="100" style="isolation:auto;mix-blend-mode:normal"/><circle cx="121.857" cy="273.499" r="5.67157" color="#000000" color-rendering="auto" fill="#5f5f5f" image-rendering="auto" solid-color="#000000" style="isolation:auto;mix-blend-mode:normal"/><path d="m206.107 363.338v37.2886" color="#000000" color-rendering="auto" fill="none" image-rendering="auto" solid-color="#000000" stroke="#000" stroke-linejoin="round" stroke-miterlimit="100" style="isolation:auto;mix-blend-mode:normal"/><circle cx="206.107" cy="362.62" r="5.67157" color="#000000" color-rendering="auto" fill="#5f5f5f" image-rendering="auto" solid-color="#000000" style="isolation:auto;mix-blend-mode:normal"/><path d="m37.6071 363.338v37.2886" color="#000000" color-rendering="auto" fill="none" image-rendering="auto" solid-color="#000000" stroke="#000" stroke-linejoin="round" stroke-miterlimit="100" style="isolation:auto;mix-blend-mode:normal"/><g><circle cx="37.6071" cy="362.62" r="5.67157" color="#000000" color-rendering="auto" fill="#5f5f5f" image-rendering="auto" solid-color="#000000" style="isolation:auto;mix-blend-mode:normal"/><circle cx="25.9431" cy="362.62" r="4.92996" color="#000000" color-rendering="auto" fill="#f00" image-rendering="auto" solid-color="#000000" style="isolation:auto;mix-blend-mode:normal"/><path d="m25.9484 358.187c-0.348128 0-0.788595 0.33315-0.892578 0.60351s-0.07813 0.43233-0.07813 0.50977v2.34766h-2.34766c-0.07744 0-0.239398-0.0259-0.509766 0.0781-0.270367 0.10399-0.605468 0.54641-0.605469 0.89453 0 0.34812 0.335099 0.7886 0.605469 0.89258 0.270371 0.10398 0.432344 0.0781 0.509766 0.0781h2.34766v2.34766c0 0.0774-0.02585 0.23941 0.07813 0.50977 0.103978 0.27035 0.544439 0.60547 0.892578 0.60546 0.34814 0 0.790553-0.33511 0.894532-0.60546 0.103978-0.27036 0.07617-0.43233 0.07617-0.50977v-2.34766h2.33789c0.07744 0 0.239405 0.0259 0.509766-0.0781 0.270361-0.10398 0.605468-0.54445 0.605468-0.89258s-0.335111-0.79054-0.605468-0.89453c-0.270358-0.10399-0.432313-0.0781-0.509766-0.0781h-2.33789v-2.34766c0-0.0774 0.02781-0.23941-0.07617-0.50977-0.103983-0.27036-0.546403-0.60351-0.894532-0.60351z" color="#000000" color-rendering="auto" fill="#fff" image-rendering="auto" solid-color="#000000" style="isolation:auto;mix-blend-mode:normal;text-decoration-color:#000000;text-decoration-line:none;text-decoration-style:solid;text-indent:0;text-transform:none;white-space:normal"/><circle cx="49.2712" cy="362.62" r="4.92996" color="#000000" color-rendering="auto" fill="#f00" image-rendering="auto" solid-color="#000000" style="isolation:auto;mix-blend-mode:normal"/><path d="m49.2765 358.187c-0.348128 0-0.788595 0.33315-0.892578 0.60351s-0.07813 0.43233-0.07813 0.50977v2.34766h-2.34766c-0.07744 0-0.239398-0.0259-0.509766 0.0781-0.270367 0.10399-0.605468 0.54641-0.605469 0.89453 0 0.34812 0.335099 0.7886 0.605469 0.89258 0.270371 0.10398 0.432344 0.0781 0.509766 0.0781h2.34766v2.34766c0 0.0774-0.02585 0.23941 0.07813 0.50977 0.103978 0.27035 0.544439 0.60547 0.892578 0.60546 0.34814 0 0.790553-0.33511 0.894532-0.60546 0.103978-0.27036 0.07617-0.43233 0.07617-0.50977v-2.34766h2.33789c0.07744 0 0.239405 0.0259 0.509766-0.0781 0.270361-0.10398 0.605468-0.54445 0.605468-0.89258s-0.335111-0.79054-0.605468-0.89453c-0.270358-0.10399-0.432313-0.0781-0.509766-0.0781h-2.33789v-2.34766c0-0.0774 0.02781-0.23941-0.07617-0.50977-0.103983-0.27036-0.546403-0.60351-0.894532-0.60351z" color="#000000" color-rendering="auto" fill="#fff" image-rendering="auto" solid-color="#000000" style="isolation:auto;mix-blend-mode:normal;text-decoration-color:#000000;text-decoration-line:none;text-decoration-style:solid;text-indent:0;text-transform:none;white-space:normal"/></g><path d="m133.11 313.485c8.40641-4.18343 13.7085-12.6734 13.7109-21.9546 6.9e-4 -13.5876-11.1755-24.6029-24.9624-24.603-13.7878-1e-3 -24.9655 11.0144-24.9648 24.603 0.0124 9.29265 5.33643 17.7855 13.7631 21.9546" color="#000000" color-rendering="auto" fill="none" image-rendering="auto" solid-color="#000000" stroke="#5f5f5f" stroke-linejoin="round" stroke-miterlimit="100" stroke-width="3" style="isolation:auto;mix-blend-mode:normal"/><g><circle cx="95.4011" cy="308.837" r="4.92996" color="#000000" color-rendering="auto" fill="#f00" image-rendering="auto" solid-color="#000000" style="isolation:auto;mix-blend-mode:normal"/><path d="m95.4064 304.404c-0.348128 0-0.788595 0.33315-0.892578 0.60351s-0.07813 0.43233-0.07813 0.50977v2.34766h-2.34766c-0.07744 0-0.239398-0.0259-0.509766 0.0781-0.270367 0.10399-0.605468 0.54641-0.605469 0.89453 0 0.34812 0.335099 0.7886 0.605469 0.89258 0.270371 0.10398 0.432344 0.0781 0.509766 0.0781h2.34766v2.34766c0 0.0774-0.02585 0.23941 0.07813 0.50977 0.103978 0.27035 0.544439 0.60547 0.892578 0.60546 0.34814 0 0.790553-0.33511 0.894532-0.60546 0.103978-0.27036 0.07617-0.43233 0.07617-0.50977v-2.34766h2.33789c0.07744 0 0.239405 0.0259 0.509766-0.0781 0.270361-0.10398 0.605468-0.54445 0.605468-0.89258s-0.335111-0.79054-0.605468-0.89453c-0.270358-0.10399-0.432313-0.0781-0.509766-0.0781h-2.33789v-2.34766c0-0.0774 0.02781-0.23941-0.07617-0.50977-0.103983-0.27036-0.546403-0.60351-0.894532-0.60351z" color="#000000" color-rendering="auto" fill="#fff" image-rendering="auto" solid-color="#000000" style="isolation:auto;mix-blend-mode:normal;text-decoration-color:#000000;text-decoration-line:none;text-decoration-style:solid;text-indent:0;text-transform:none;white-space:normal"/><circle cx="148.313" cy="308.837" r="4.92996" color="#000000" color-rendering="auto" fill="#f00" image-rendering="auto" solid-color="#000000" style="isolation:auto;mix-blend-mode:normal"/><path d="m148.318 304.404c-0.34813 0-0.7886 0.33315-0.89258 0.60351s-0.0781 0.43233-0.0781 0.50977v2.34766h-2.34766c-0.0774 0-0.2394-0.0259-0.50976 0.0781-0.27037 0.10399-0.60547 0.54641-0.60547 0.89453s0.3351 0.7886 0.60547 0.89258 0.43234 0.0781 0.50976 0.0781h2.34766v2.34766c0 0.0774-0.0258 0.23941 0.0781 0.50977 0.10398 0.27035 0.54444 0.60547 0.89258 0.60546 0.34814 0 0.79055-0.33511 0.89453-0.60546 0.10398-0.27036 0.0762-0.43233 0.0762-0.50977v-2.34766h2.33789c0.0774 0 0.2394 0.0259 0.50976-0.0781 0.27037-0.10398 0.60547-0.54445 0.60547-0.89258s-0.33511-0.79054-0.60547-0.89453c-0.27035-0.10399-0.43231-0.0781-0.50976-0.0781h-2.33789v-2.34766c0-0.0774 0.0278-0.23941-0.0762-0.50977-0.10399-0.27036-0.54641-0.60351-0.89453-0.60351z" color="#000000" color-rendering="auto" fill="#fff" image-rendering="auto" solid-color="#000000" style="isolation:auto;mix-blend-mode:normal;text-decoration-color:#000000;text-decoration-line:none;text-decoration-style:solid;text-indent:0;text-transform:none;white-space:normal"/><circle cx="97.4011" cy="271.42" r="4.92996" color="#000000" color-rendering="auto" fill="#f00" image-rendering="auto" solid-color="#000000" style="isolation:auto;mix-blend-mode:normal"/><path d="m97.4064 266.987c-0.348128 0-0.788595 0.33315-0.892578 0.60351s-0.07813 0.43233-0.07813 0.50977v2.34766h-2.34766c-0.07744 0-0.239398-0.0259-0.509766 0.0781-0.270367 0.10399-0.605468 0.54641-0.605469 0.89453 0 0.34812 0.335099 0.7886 0.605469 0.89258 0.270371 0.10398 0.432344 0.0781 0.509766 0.0781h2.34766v2.34766c0 0.0774-0.02585 0.23941 0.07813 0.50977 0.103978 0.27035 0.544439 0.60547 0.892578 0.60546 0.34814 0 0.790553-0.33511 0.894532-0.60546 0.103978-0.27036 0.07617-0.43233 0.07617-0.50977v-2.34766h2.33789c0.0774 0 0.2394 0.0259 0.50976-0.0781 0.27037-0.10398 0.60547-0.54445 0.60547-0.89258s-0.33511-0.79054-0.60547-0.89453c-0.27035-0.10399-0.43231-0.0781-0.50976-0.0781h-2.33789v-2.34766c0-0.0774 0.02781-0.23941-0.07617-0.50977-0.103983-0.27036-0.546403-0.60351-0.894532-0.60351z" color="#000000" color-rendering="auto" fill="#fff" image-rendering="auto" solid-color="#000000" style="isolation:auto;mix-blend-mode:normal;text-decoration-color:#000000;text-decoration-line:none;text-decoration-style:solid;text-indent:0;text-transform:none;white-space:normal"/><circle cx="146.313" cy="271.42" r="4.92996" color="#000000" color-rendering="auto" fill="#f00" image-rendering="auto" solid-color="#000000" style="isolation:auto;mix-blend-mode:normal"/><path d="m146.318 266.987c-0.34813 0-0.7886 0.33315-0.89258 0.60351s-0.0781 0.43233-0.0781 0.50977v2.34766h-2.34766c-0.0774 0-0.2394-0.0259-0.50976 0.0781-0.27037 0.10399-0.60547 0.54641-0.60547 0.89453s0.3351 0.7886 0.60547 0.89258 0.43234 0.0781 0.50976 0.0781h2.34766v2.34766c0 0.0774-0.0258 0.23941 0.0781 0.50977 0.10398 0.27035 0.54444 0.60547 0.89258 0.60546 0.34814 0 0.79055-0.33511 0.89453-0.60546 0.10398-0.27036 0.0762-0.43233 0.0762-0.50977v-2.34766h2.33789c0.0774 0 0.2394 0.0259 0.50976-0.0781 0.27037-0.10398 0.60547-0.54445 0.60547-0.89258s-0.33511-0.79054-0.60547-0.89453c-0.27035-0.10399-0.43231-0.0781-0.50976-0.0781h-2.33789v-2.34766c0-0.0774 0.0278-0.23941-0.0762-0.50977-0.10399-0.27036-0.54641-0.60351-0.89453-0.60351z" color="#000000" color-rendering="auto" fill="#fff" image-rendering="auto" solid-color="#000000" style="isolation:auto;mix-blend-mode:normal;text-decoration-color:#000000;text-decoration-line:none;text-decoration-style:solid;text-indent:0;text-transform:none;white-space:normal"/></g><path d="m48.8599 313.485c8.40641-4.18343 13.7085-12.6734 13.7109-21.9546 6.9e-4 -13.5876-11.1755-24.6029-24.9624-24.603-13.7878-1e-3 -24.9655 11.0144-24.9648 24.603 0.0124 9.29265 5.33643 17.7855 13.7631 21.9546" color="#000000" color-rendering="auto" fill="none" image-rendering="auto" solid-color="#000000" stroke="#5f5f5f" stroke-linejoin="round" stroke-miterlimit="100" stroke-width="3" style="isolation:auto;mix-blend-mode:normal"/><g><circle cx="13.1511" cy="271.42" r="4.92996" color="#000000" color-rendering="auto" fill="#f00" image-rendering="auto" solid-color="#000000" style="isolation:auto;mix-blend-mode:normal"/><path d="m13.1564 266.987c-0.348128 0-0.788595 0.33315-0.892578 0.60351s-0.07813 0.43233-0.07813 0.50977v2.34766h-2.34766c-0.07744 0-0.239398-0.0259-0.509766 0.0781-0.270367 0.10399-0.605468 0.54641-0.605469 0.89453 0 0.34812 0.335099 0.7886 0.605469 0.89258 0.270371 0.10398 0.432344 0.0781 0.509766 0.0781h2.34766v2.34766c0 0.0774-0.02585 0.23941 0.07813 0.50977 0.103978 0.27035 0.544439 0.60547 0.892578 0.60546 0.34814 0 0.790553-0.33511 0.894532-0.60546 0.103978-0.27036 0.07617-0.43233 0.07617-0.50977v-2.34766h2.33789c0.07744 0 0.239405 0.0259 0.509766-0.0781 0.270361-0.10398 0.605468-0.54445 0.605468-0.89258s-0.335111-0.79054-0.605468-0.89453c-0.270358-0.10399-0.432313-0.0781-0.509766-0.0781h-2.33789v-2.34766c0-0.0774 0.02781-0.23941-0.07617-0.50977-0.103983-0.27036-0.546403-0.60351-0.894532-0.60351z" color="#000000" color-rendering="auto" fill="#fff" image-rendering="auto" solid-color="#000000" style="isolation:auto;mix-blend-mode:normal;text-decoration-color:#000000;text-decoration-line:none;text-decoration-style:solid;text-indent:0;text-transform:none;white-space:normal"/><circle cx="62.0632" cy="271.42" r="4.92996" color="#000000" color-rendering="auto" fill="#f00" image-rendering="auto" solid-color="#000000" style="isolation:auto;mix-blend-mode:normal"/><path d="m62.0685 266.987c-0.348128 0-0.788595 0.33315-0.892578 0.60351s-0.07813 0.43233-0.07813 0.50977v2.34766h-2.34766c-0.07744 0-0.239398-0.0259-0.509766 0.0781-0.270367 0.10399-0.605468 0.54641-0.605469 0.89453 0 0.34812 0.335099 0.7886 0.605469 0.89258 0.270371 0.10398 0.432344 0.0781 0.509766 0.0781h2.34766v2.34766c0 0.0774-0.02585 0.23941 0.07813 0.50977 0.103978 0.27035 0.544439 0.60547 0.892578 0.60546 0.34814 0 0.790553-0.33511 0.894532-0.60546 0.103978-0.27036 0.07617-0.43233 0.07617-0.50977v-2.34766h2.33789c0.07744 0 0.239405 0.0259 0.509766-0.0781 0.270361-0.10398 0.605468-0.54445 0.605468-0.89258s-0.335111-0.79054-0.605468-0.89453c-0.270358-0.10399-0.432313-0.0781-0.509766-0.0781h-2.33789v-2.34766c0-0.0774 0.02781-0.23941-0.07617-0.50977-0.103983-0.27036-0.546403-0.60351-0.894532-0.60351z" color="#000000" color-rendering="auto" fill="#fff" image-rendering="auto" solid-color="#000000" style="isolation:auto;mix-blend-mode:normal;text-decoration-color:#000000;text-decoration-line:none;text-decoration-style:solid;text-indent:0;text-transform:none;white-space:normal"/></g><path d="m217.36 313.485c8.40641-4.18343 13.7085-12.6734 13.7109-21.9546 6.9e-4 -13.5876-11.1755-24.6029-24.9624-24.603-13.7878-1e-3 -24.9655 11.0144-24.9648 24.603 0.0124 9.29265 5.33643 17.7855 13.7631 21.9546" color="#000000" color-rendering="auto" fill="none" image-rendering="auto" solid-color="#000000" stroke="#5f5f5f" stroke-linejoin="round" stroke-miterlimit="100" stroke-width="3" style="isolation:auto;mix-blend-mode:normal"/><g><circle cx="179.651" cy="308.837" r="4.92996" color="#000000" color-rendering="auto" fill="#f00" image-rendering="auto" solid-color="#000000" style="isolation:auto;mix-blend-mode:normal"/><path d="m179.656 304.404c-0.34813 0-0.7886 0.33315-0.89258 0.60351-0.10399 0.27036-0.0781 0.43233-0.0781 0.50977v2.34766h-2.34769c-0.0774 0-0.2394-0.0259-0.50976 0.0781-0.27037 0.10399-0.60547 0.54641-0.60547 0.89453s0.3351 0.7886 0.60547 0.89258 0.43234 0.0781 0.50976 0.0781h2.34766v2.34766c0 0.0774-0.0259 0.23941 0.0781 0.50977 0.10398 0.27035 0.54444 0.60547 0.89258 0.60546 0.34814 0 0.79055-0.33511 0.89453-0.60546 0.10398-0.27036 0.0762-0.43233 0.0762-0.50977v-2.34766h2.33789c0.0774 0 0.2394 0.0259 0.50976-0.0781 0.27037-0.10398 0.60547-0.54445 0.60547-0.89258s-0.33511-0.79054-0.60547-0.89453c-0.27035-0.10399-0.43231-0.0781-0.50976-0.0781h-2.33789v-2.34766c0-0.0774 0.0278-0.23941-0.0762-0.50977-0.10399-0.27036-0.54641-0.60351-0.89453-0.60351z" color="#000000" color-rendering="auto" fill="#fff" image-rendering="auto" solid-color="#000000" style="isolation:auto;mix-blend-mode:normal;text-decoration-color:#000000;text-decoration-line:none;text-decoration-style:solid;text-indent:0;text-transform:none;white-space:normal"/><circle cx="232.563" cy="308.837" r="4.92996" color="#000000" color-rendering="auto" fill="#f00" image-rendering="auto" solid-color="#000000" style="isolation:auto;mix-blend-mode:normal"/><path d="m232.568 304.404c-0.34813 0-0.7886 0.33315-0.89258 0.60351-0.10399 0.27036-0.0781 0.43233-0.0781 0.50977v2.34766h-2.34766c-0.0774 0-0.2394-0.0259-0.50976 0.0781-0.27037 0.10399-0.60547 0.54641-0.60547 0.89453s0.3351 0.7886 0.60547 0.89258 0.43234 0.0781 0.50976 0.0781h2.34766v2.34766c0 0.0774-0.0258 0.23941 0.0781 0.50977 0.10398 0.27035 0.54444 0.60547 0.89258 0.60546 0.34814 0 0.79055-0.33511 0.89453-0.60546 0.10398-0.27036 0.0762-0.43233 0.0762-0.50977v-2.34766h2.33789c0.0774 0 0.2394 0.0259 0.50976-0.0781 0.27037-0.10398 0.60547-0.54445 0.60547-0.89258s-0.33511-0.79054-0.60547-0.89453c-0.27035-0.10399-0.43231-0.0781-0.50976-0.0781h-2.33789v-2.34766c0-0.0774 0.0278-0.23941-0.0762-0.50977-0.10399-0.27036-0.54641-0.60351-0.89453-0.60351z" color="#000000" color-rendering="auto" fill="#fff" image-rendering="auto" solid-color="#000000" style="isolation:auto;mix-blend-mode:normal;text-decoration-color:#000000;text-decoration-line:none;text-decoration-style:solid;text-indent:0;text-transform:none;white-space:normal"/><circle cx="181.651" cy="271.42" r="4.92996" color="#000000" color-rendering="auto" fill="#f00" image-rendering="auto" solid-color="#000000" style="isolation:auto;mix-blend-mode:normal"/><path d="m181.656 266.987c-0.34813 0-0.7886 0.33315-0.89258 0.60351-0.10399 0.27036-0.0781 0.43233-0.0781 0.50977v2.34766h-2.34769c-0.0774 0-0.2394-0.0259-0.50976 0.0781-0.27037 0.10399-0.60547 0.54641-0.60547 0.89453s0.3351 0.7886 0.60547 0.89258 0.43234 0.0781 0.50976 0.0781h2.34766v2.34766c0 0.0774-0.0259 0.23941 0.0781 0.50977 0.10398 0.27035 0.54444 0.60547 0.89258 0.60546 0.34814 0 0.79055-0.33511 0.89453-0.60546 0.10398-0.27036 0.0762-0.43233 0.0762-0.50977v-2.34766h2.33789c0.0774 0 0.2394 0.0259 0.50976-0.0781 0.27037-0.10398 0.60547-0.54445 0.60547-0.89258s-0.33511-0.79054-0.60547-0.89453c-0.27035-0.10399-0.43231-0.0781-0.50976-0.0781h-2.33789v-2.34766c0-0.0774 0.0278-0.23941-0.0762-0.50977-0.10399-0.27036-0.54641-0.60351-0.89453-0.60351z" color="#000000" color-rendering="auto" fill="#fff" image-rendering="auto" solid-color="#000000" style="isolation:auto;mix-blend-mode:normal;text-decoration-color:#000000;text-decoration-line:none;text-decoration-style:solid;text-indent:0;text-transform:none;white-space:normal"/><circle cx="230.563" cy="271.42" r="4.92996" color="#000000" color-rendering="auto" fill="#f00" image-rendering="auto" solid-color="#000000" style="isolation:auto;mix-blend-mode:normal"/><path d="m230.568 266.987c-0.34813 0-0.7886 0.33315-0.89258 0.60351-0.10399 0.27036-0.0781 0.43233-0.0781 0.50977v2.34766h-2.34766c-0.0774 0-0.2394-0.0259-0.50976 0.0781-0.27037 0.10399-0.60547 0.54641-0.60547 0.89453s0.3351 0.7886 0.60547 0.89258 0.43234 0.0781 0.50976 0.0781h2.34766v2.34766c0 0.0774-0.0258 0.23941 0.0781 0.50977 0.10398 0.27035 0.54444 0.60547 0.89258 0.60546 0.34814 0 0.79055-0.33511 0.89453-0.60546 0.10398-0.27036 0.0762-0.43233 0.0762-0.50977v-2.34766h2.33789c0.0774 0 0.2394 0.0259 0.50976-0.0781 0.27037-0.10398 0.60547-0.54445 0.60547-0.89258s-0.33511-0.79054-0.60547-0.89453c-0.27035-0.10399-0.43231-0.0781-0.50976-0.0781h-2.33789v-2.34766c0-0.0774 0.0278-0.23941-0.0762-0.50977-0.10399-0.27036-0.54641-0.60351-0.89453-0.60351z" color="#000000" color-rendering="auto" fill="#fff" image-rendering="auto" solid-color="#000000" style="isolation:auto;mix-blend-mode:normal;text-decoration-color:#000000;text-decoration-line:none;text-decoration-style:solid;text-indent:0;text-transform:none;white-space:normal"/><path d="m37.6071 324.441-10.5142 13.365 6.30598-2.29078v11.8209h8.41641v-11.8209l6.30598 2.29078z" color="#000000" color-rendering="auto" fill="#ff1900" image-rendering="auto" solid-color="#000000" style="isolation:auto;mix-blend-mode:normal;text-decoration-color:#000000;text-decoration-line:none;text-decoration-style:solid;text-indent:0;text-transform:none;white-space:normal"/><path d="m206.107 347.337 10.5142-13.365-6.30597 2.29078v-11.8209h-8.41641v11.8209l-6.30597-2.29078z" color="#000000" color-rendering="auto" fill="#ff1900" image-rendering="auto" solid-color="#000000" style="isolation:auto;mix-blend-mode:normal;text-decoration-color:#000000;text-decoration-line:none;text-decoration-style:solid;text-indent:0;text-transform:none;white-space:normal"/></g></g></svg>
