<?xml version="1.0" encoding="UTF-8"?>
<svg width="209.67" height="140.854" version="1.1" viewBox="0 0 209.66986 140.85423" xmlns="http://www.w3.org/2000/svg"><defs><marker id="marker7067-9" overflow="visible" orient="auto"><path transform="matrix(.4 0 0 .4 4 0)" d="m0 0 5-5-17.5 5 17.5 5z" fill="#00f" fill-rule="evenodd" stroke="#00f" stroke-width="1pt"/></marker><marker id="marker7227-1" overflow="visible" orient="auto"><path transform="matrix(-.4 0 0 -.4 -4 0)" d="m0 0 5-5-17.5 5 17.5 5z" fill="#00f" fill-rule="evenodd" stroke="#00f" stroke-width="1pt"/></marker><marker id="Arrow1Mstart" overflow="visible" orient="auto"><path transform="matrix(.4 0 0 .4 4 0)" d="m0 0 5-5-17.5 5 17.5 5z" fill="#00f" fill-rule="evenodd" stroke="#00f" stroke-width="1pt"/></marker><marker id="marker5278" overflow="visible" orient="auto"><path transform="matrix(-.4 0 0 -.4 -4 0)" d="m0 0 5-5-17.5 5 17.5 5z" fill="#00f" fill-rule="evenodd" stroke="#00f" stroke-width="1pt"/></marker><marker id="marker7607-4" overflow="visible" orient="auto"><path transform="matrix(-.8 0 0 -.8 -10 0)" d="m0 0 5-5-17.5 5 17.5 5z" fill="#6d6d6d" fill-rule="evenodd" stroke="#6d6d6d" stroke-width="1pt"/></marker><marker id="marker6391-1" overflow="visible" orient="auto"><path transform="matrix(.4 0 0 .4 4 0)" d="m0 0 5-5-17.5 5 17.5 5z" fill="#f00" fill-rule="evenodd" stroke="#f00" stroke-width="1pt"/></marker><marker id="marker6527-2" overflow="visible" orient="auto"><path transform="matrix(-.4 0 0 -.4 -4 0)" d="m0 0 5-5-17.5 5 17.5 5z" fill="#f00" fill-rule="evenodd" stroke="#f00" stroke-width="1pt"/></marker><marker id="marker6753-8" overflow="visible" orient="auto"><path transform="matrix(.4 0 0 .4 4 0)" d="m0 0 5-5-17.5 5 17.5 5z" fill="#00f" fill-rule="evenodd" stroke="#00f" stroke-width="1pt"/></marker><marker id="marker6901-8" overflow="visible" orient="auto"><path transform="matrix(-.4 0 0 -.4 -4 0)" d="m0 0 5-5-17.5 5 17.5 5z" fill="#00f" fill-rule="evenodd" stroke="#00f" stroke-width="1pt"/></marker><marker id="marker6395" overflow="visible" orient="auto"><path transform="matrix(-.4 0 0 -.4 -4 0)" d="m0 0 5-5-17.5 5 17.5 5z" fill="#f00" fill-rule="evenodd" stroke="#f00" stroke-width="1pt"/></marker><marker id="marker8009" overflow="visible" orient="auto"><path transform="matrix(-.4 0 0 -.4 -4 0)" d="m0 0 5-5-17.5 5 17.5 5z" fill="#00f" fill-rule="evenodd" stroke="#00f" stroke-width="1pt"/></marker></defs><g transform="translate(-13.7365 -261.171)"><g shape-rendering="auto"><g stroke="#00f"><path d="m143.115 285.791v39.7294h39.7294" color="#000000" color-rendering="auto" fill="none" image-rendering="auto" marker="none" marker-end="url(#marker7227-1)" marker-start="url(#marker7067-9)" opacity=".4" solid-color="#000000" style="isolation:auto;mix-blend-mode:normal"/><path d="m169.602 292.413v33.1078m-6.62156-33.1078v33.1078m-6.62155-33.1078v33.1078m-6.62157-33.1078v33.1078m-6.62157-6.62156h33.1078m-33.1078-6.62155h33.1078m-33.1078-6.62157h33.1078m-33.1078-6.62156h33.1078" color="#000000" color-rendering="auto" fill="#fff" image-rendering="auto" opacity=".4" solid-color="#000000" stroke-width=".4" style="isolation:auto;mix-blend-mode:normal"/><path d="m105.025 307.941v39.7294h39.7294" color="#000000" color-rendering="auto" fill="none" image-rendering="auto" marker="none" marker-end="url(#marker5278)" marker-start="url(#Arrow1Mstart)" opacity=".2" solid-color="#000000" style="isolation:auto;mix-blend-mode:normal"/><path d="m131.511 314.562v33.1078m-6.62156-33.1078v33.1078m-6.62155-33.1078v33.1078m-6.62157-33.1078v33.1078m-6.62157-6.62156h33.1078m-33.1078-6.62155h33.1078m-33.1078-6.62157h33.1078m-33.1078-6.62156h33.1078" color="#000000" color-rendering="auto" fill="#fff" image-rendering="auto" opacity=".2" solid-color="#000000" stroke-width=".4" style="isolation:auto;mix-blend-mode:normal"/></g><g><path d="m16.7756 398.986 164.431-95.615" color="#000000" color-rendering="auto" fill="none" image-rendering="auto" marker-end="url(#marker7607-4)" solid-color="#000000" stroke="#6d6d6d" style="isolation:auto;mix-blend-mode:normal"/><path d="m16.7756 359.257v39.7294h39.7294" color="#000000" color-rendering="auto" fill="none" image-rendering="auto" marker="none" marker-end="url(#marker6527-2)" marker-start="url(#marker6391-1)" solid-color="#000000" stroke="#f00" style="isolation:auto;mix-blend-mode:normal"/><path d="m43.2619 365.878v33.1078m-6.62156-33.1078v33.1078m-6.62156-33.1078v33.1078m-6.62157-33.1078v33.1078m-6.62156-6.62156h33.1078m-33.1078-6.62155h33.1078m-33.1078-6.62157h33.1078m-33.1078-6.62156h33.1078" color="#000000" color-rendering="auto" fill="#fff" image-rendering="auto" solid-color="#000000" stroke="#f00" stroke-width=".4" style="isolation:auto;mix-blend-mode:normal"/><path d="m181.206 263.642v39.7294h39.7294" color="#000000" color-rendering="auto" fill="none" image-rendering="auto" marker="none" marker-end="url(#marker6901-8)" marker-start="url(#marker6753-8)" solid-color="#000000" stroke="#00f" style="isolation:auto;mix-blend-mode:normal"/><path d="m207.693 270.263v33.1078m-6.62156-33.1078v33.1078m-6.62155-33.1078v33.1078m-6.62157-33.1078v33.1078m-6.62157-6.62156h33.1078m-33.1078-6.62155h33.1078m-33.1078-6.62157h33.1078m-33.1078-6.62156h33.1078" color="#000000" color-rendering="auto" fill="#fff" image-rendering="auto" solid-color="#000000" stroke="#00f" stroke-width=".4" style="isolation:auto;mix-blend-mode:normal"/></g><path d="m16.7756 398.986 149.952-25.5428" color="#000000" color-rendering="auto" fill="none" image-rendering="auto" marker-end="url(#marker6395)" solid-color="#000000" stroke="#f00" stroke-linecap="round" stroke-width="3" style="isolation:auto;mix-blend-mode:normal"/><path d="m181.206 303.371-7.84058 62.6579" color="#000000" color-rendering="auto" fill="none" image-rendering="auto" marker-end="url(#marker8009)" solid-color="#000000" stroke="#00f" stroke-linecap="round" stroke-width="3" style="isolation:auto;mix-blend-mode:normal"/><circle cx="172.525" cy="372.003" r="5.95152" color="#000000" color-rendering="auto" image-rendering="auto" solid-color="#000000" stroke="#fff" style="isolation:auto;mix-blend-mode:normal"/></g><g stroke-linejoin="round" stroke-miterlimit="1e5" stroke-width="1.5"><path d="m28.2848 351.029c-0.018-0.054-0.09-0.198-0.09-0.252 0-0.018 0.018-0.036 0.324-0.27l1.746-1.368c2.412-1.872 3.204-2.502 4.446-2.61 0.126-0.018 0.306-0.018 0.306-0.324 0-0.108-0.054-0.198-0.198-0.198-0.198 0-0.414 0.036-0.612 0.036h-0.684c-0.558 0-1.152-0.036-1.692-0.036-0.126 0-0.342 0-0.342 0.324 0 0.18 0.126 0.198 0.234 0.198 0.198 0.018 0.432 0.09 0.432 0.342 0 0.36-0.54 0.792-0.684 0.9l-7.056 5.49 1.494-5.94c0.162-0.612 0.198-0.792 1.476-0.792 0.342 0 0.504 0 0.504-0.342 0-0.18-0.18-0.18-0.27-0.18-0.324 0-0.702 0.036-1.044 0.036h-2.124c-0.324 0-0.72-0.036-1.044-0.036-0.144 0-0.342 0-0.342 0.342 0 0.18 0.162 0.18 0.432 0.18 1.098 0 1.098 0.144 1.098 0.342 0 0.036 0 0.144-0.072 0.414l-2.43 9.684c-0.162 0.63-0.198 0.81-1.458 0.81-0.342 0-0.522 0-0.522 0.324 0 0.198 0.162 0.198 0.27 0.198 0.342 0 0.702-0.036 1.044-0.036h2.106c0.342 0 0.72 0.036 1.062 0.036 0.144 0 0.342 0 0.342-0.342 0-0.18-0.162-0.18-0.432-0.18-1.098 0-1.098-0.144-1.098-0.324 0-0.126 0.108-0.576 0.18-0.864l0.702-2.79 2.736-2.142c0.522 1.152 1.476 3.456 2.214 5.22 0.054 0.108 0.09 0.216 0.09 0.342 0 0.54-0.72 0.558-0.882 0.558s-0.342 0-0.342 0.342c0 0.18 0.198 0.18 0.252 0.18 0.63 0 1.296-0.036 1.926-0.036h0.864c0.27 0 0.576 0.036 0.846 0.036 0.108 0 0.306 0 0.306-0.342 0-0.18-0.162-0.18-0.342-0.18-0.666-0.018-0.9-0.162-1.17-0.81z" fill="#f00"/><path d="m164.062 268.512c-0.018-0.054-0.09-0.198-0.09-0.252 0-0.018 0.018-0.036 0.324-0.27l1.746-1.368c2.412-1.872 3.204-2.502 4.446-2.61 0.126-0.018 0.306-0.018 0.306-0.324 0-0.108-0.054-0.198-0.198-0.198-0.198 0-0.414 0.036-0.612 0.036h-0.684c-0.558 0-1.152-0.036-1.692-0.036-0.126 0-0.342 0-0.342 0.324 0 0.18 0.126 0.198 0.234 0.198 0.198 0.018 0.432 0.09 0.432 0.342 0 0.36-0.54 0.792-0.684 0.9l-7.056 5.49 1.494-5.94c0.162-0.612 0.198-0.792 1.476-0.792 0.342 0 0.504 0 0.504-0.342 0-0.18-0.18-0.18-0.27-0.18-0.324 0-0.702 0.036-1.044 0.036h-2.124c-0.324 0-0.72-0.036-1.044-0.036-0.144 0-0.342 0-0.342 0.342 0 0.18 0.162 0.18 0.432 0.18 1.098 0 1.098 0.144 1.098 0.342 0 0.036 0 0.144-0.072 0.414l-2.43 9.684c-0.162 0.63-0.198 0.81-1.458 0.81-0.342 0-0.522 0-0.522 0.324 0 0.198 0.162 0.198 0.27 0.198 0.342 0 0.702-0.036 1.044-0.036h2.106c0.342 0 0.72 0.036 1.062 0.036 0.144 0 0.342 0 0.342-0.342 0-0.18-0.162-0.18-0.432-0.18-1.098 0-1.098-0.144-1.098-0.324 0-0.126 0.108-0.576 0.18-0.864l0.702-2.79 2.736-2.142c0.522 1.152 1.476 3.456 2.214 5.22 0.054 0.108 0.09 0.216 0.09 0.342 0 0.54-0.72 0.558-0.882 0.558s-0.342 0-0.342 0.342c0 0.18 0.198 0.18 0.252 0.18 0.63 0 1.296-0.036 1.926-0.036h0.864c0.27 0 0.576 0.036 0.846 0.036 0.108 0 0.306 0 0.306-0.342 0-0.18-0.162-0.18-0.342-0.18-0.666-0.018-0.9-0.162-1.17-0.81z" fill="#00f"/><path d="m174.577 264.182c8e-3 -8e-3 0.0896-0.17933 0.0896-0.31381 0-0.3228-0.28693-0.52902-0.55591-0.52902-0.36764 0-0.46626 0.27795-0.5111 0.41245l-1.38081 3.88243c-0.0359 0.10752-0.0359 0.13456-0.0359 0.1434 0 0.1434 0.37658 0.23314 0.38555 0.23314 0.0808 0 0.0986-0.0449 0.15243-0.15244z" fill="#00f"/><path d="m148.705 393.403c0.10759-0.46626 0.52005-2.11606 1.77534-2.11606 0.0897 0 0.52005 0 0.89664 0.23313-0.50213 0.0897-0.86078 0.53797-0.86078 0.96837 0 0.28692 0.19725 0.62764 0.68144 0.62764 0.39453 0 0.96837-0.3228 0.96837-1.0401 0-0.9325-1.05803-1.18356-1.66775-1.18356-1.0401 0-1.66774 0.95043-1.88293 1.36289-0.44832-1.18356-1.41669-1.36289-1.93674-1.36289-1.86501 0-2.88717 2.31332-2.88717 2.76164 0 0.17932 0.17933 0.17932 0.21519 0.17932 0.14346 0 0.19726-0.0358 0.23313-0.19725 0.60972-1.90087 1.79328-2.34919 2.40298-2.34919 0.34073 0 0.96837 0.1614 0.96837 1.2015 0 0.55591-0.30486 1.7574-0.96837 4.26799-0.28692 1.11183-0.91456 1.865-1.70361 1.865-0.10759 0-0.52005 0-0.89663-0.23312 0.44831-0.0897 0.84284-0.46626 0.84284-0.96837 0-0.48418-0.39453-0.62764-0.66352-0.62764-0.53798 0-0.9863 0.46624-0.9863 1.0401 0 0.82489 0.89664 1.18356 1.68569 1.18356 1.18356 0 1.82913-1.25531 1.88293-1.3629 0.21519 0.66351 0.86078 1.3629 1.93674 1.3629 1.84707 0 2.86923-2.31333 2.86923-2.76165 0-0.17933-0.16138-0.17933-0.21519-0.17933-0.1614 0-0.19726 0.0717-0.23313 0.19727-0.59178 1.9188-1.8112 2.34918-2.38504 2.34918-0.69938 0-0.98631-0.57384-0.98631-1.18356 0-0.39452 0.10759-0.78905 0.30486-1.57808z" fill="#f00"/></g><g stroke-linejoin="round" stroke-miterlimit="1e5"><path d="m66.7613 352.852h1.656c0.342 0 0.522 0 0.522-0.324 0-0.198-0.108-0.198-0.468-0.198h-1.584l0.666-2.628c0.072-0.252 0.072-0.288 0.072-0.414 0-0.288-0.234-0.45-0.468-0.45-0.144 0-0.558 0.054-0.702 0.63l-0.702 2.862h-1.692c-0.36 0-0.522 0-0.522 0.342 0 0.18 0.126 0.18 0.468 0.18h1.602l-1.188 4.752c-0.144 0.63-0.198 0.81-0.198 1.044 0 0.846 0.594 1.62 1.602 1.62 1.818 0 2.79-2.628 2.79-2.754 0-0.108-0.072-0.162-0.18-0.162-0.036 0-0.108 0-0.144 0.072-0.018 0.018-0.036 0.036-0.162 0.324-0.378 0.9-1.206 2.16-2.25 2.16-0.54 0-0.576-0.45-0.576-0.846 0-0.018 0-0.36 0.054-0.576z" stroke-width="1.5"/><path d="m79.2458 353.572c0-1.638-1.206-1.638-1.224-1.638-0.72 0-1.368 0.756-1.368 1.368 0 0.504 0.378 0.72 0.54 0.81 0.756 0.45 0.9 0.774 0.9 1.134 0 0.396-1.044 4.338-3.15 4.338-1.296 0-1.296-1.08-1.296-1.404 0-1.044 0.504-2.358 1.08-3.798 0.144-0.36 0.198-0.522 0.198-0.81 0-1.044-1.044-1.62-2.034-1.62-1.908 0-2.808 2.448-2.808 2.808 0 0.252 0.27 0.252 0.432 0.252 0.216 0 0.342 0 0.414-0.234 0.576-1.944 1.53-2.178 1.854-2.178 0.126 0 0.306 0 0.306 0.378 0 0.414-0.216 0.936-0.27 1.08-0.828 2.088-1.098 2.898-1.098 3.762 0 1.908 1.548 2.412 3.114 2.412 3.096 0 4.41-5.112 4.41-6.66z" stroke-width="1.5"/><path d="m198.7 346.589c-0.648 0.18-0.972 0.792-0.972 1.242 0 0.396 0.306 0.82801 0.9 0.82801 0.63 0 1.296-0.52201 1.296-1.40401 0-0.954-0.954-1.584-2.052-1.584-1.026 0-1.692 0.774-1.926 1.098-0.45-0.756-1.458-1.098-2.484-1.098-2.268 0-3.492 2.214-3.492 2.80801 0 0.252 0.27 0.252 0.432 0.252 0.216 0 0.342 0 0.414-0.234 0.522-1.63801 1.818-2.17801 2.556-2.17801 0.684 0 1.008 0.324 1.008 0.9 0 0.342-0.252 1.33201-0.414 1.98001l-0.612 2.466c-0.27 1.098-0.918 1.638-1.53 1.638-0.09 0-0.504 0-0.864-0.27 0.648-0.18 0.972-0.792 0.972-1.242 0-0.396-0.306-0.828-0.9-0.828-0.63 0-1.296 0.522-1.296 1.404 0 0.954 0.954 1.584 2.052 1.584 1.026 0 1.692-0.774 1.926-1.098 0.45 0.756 1.458 1.098 2.484 1.098 2.268 0 3.492-2.214 3.492-2.808 0-0.252-0.27-0.252-0.432-0.252-0.216 0-0.342 0-0.414 0.234-0.522 1.638-1.818 2.178-2.556 2.178-0.684 0-1.008-0.324-1.008-0.9 0-0.378 0.234-1.332 0.396-1.998 0.126-0.468 0.54-2.16001 0.63-2.44801 0.27-1.08 0.9-1.638 1.53-1.638 0.09 0 0.504 0 0.864 0.27z" color="#000000" color-rendering="auto" fill="#00f" image-rendering="auto" shape-rendering="auto" solid-color="#000000" stroke-width="1.2" style="isolation:auto;mix-blend-mode:normal"/><path d="m204.096 340.687c0.06-0.156 0.108-0.24 0.108-0.36 0-0.396-0.36-0.66-0.696-0.66-0.48 0-0.612 0.42-0.66 0.588l-1.524 5.172c-0.048 0.144-0.048 0.18-0.048 0.192 0 0.108 0.072 0.132 0.192 0.168 0.216 0.096 0.24 0.096 0.264 0.096 0.036 0 0.108 0 0.192-0.204z" color="#000000" color-rendering="auto" fill="#00f" image-rendering="auto" shape-rendering="auto" solid-color="#000000" stroke-width="1.2" style="isolation:auto;mix-blend-mode:normal"/></g></g></svg>
