<?xml version="1.0" encoding="UTF-8"?>
<svg width="164.291" height="112.8" version="1.1" viewBox="0 0 164.29126 112.80015" xmlns="http://www.w3.org/2000/svg"><defs><marker id="Arrow1Lend" overflow="visible" orient="auto"><path transform="matrix(-.8 0 0 -.8 -10 0)" d="m0 0 5-5-17.5 5 17.5 5z" fill-rule="evenodd" stroke="#000" stroke-width="1pt"/></marker></defs><g transform="translate(-32.1401 -273.77)"><g stroke-linejoin="round" stroke-miterlimit="1e5"><path d="m42.2943 276.93c-0.688624 0.19128-1.03293 0.84163-1.03293 1.31984 0 0.42083 0.325184 0.8799 0.956416 0.8799 0.669488 0 1.37723-0.55472 1.37723-1.492 0-1.0138-1.01379-1.68329-2.18062-1.68329-1.0903 0-1.79805 0.82253-2.04672 1.16683-0.478208-0.80339-1.54939-1.16683-2.6397-1.16683-2.41016 0-3.71089 2.35278-3.71089 2.98401 0 0.2678 0.286923 0.2678 0.459078 0.2678 0.229539 0 0.363443 0 0.439955-0.24866 0.55472-1.74067 1.93195-2.31453 2.71621-2.31453 0.726881 0 1.07118 0.34431 1.07118 0.95642 0 0.36344-0.267792 1.41549-0.439953 2.10411l-0.650352 2.62056c-0.286928 1.16683-0.975552 1.74067-1.6259 1.74067-0.09565 0-0.5356 0-0.91816-0.28691 0.688608-0.19128 1.03293-0.84165 1.03293-1.31986 0-0.42081-0.325184-0.8799-0.956416-0.8799-0.669491 0-1.37724 0.55472-1.37724 1.49202 0 1.01379 1.0138 1.68328 2.18063 1.68328 1.0903 0 1.79805-0.82252 2.04672-1.16682 0.478209 0.80338 1.54939 1.16682 2.6397 1.16682 2.41016 0 3.71088-2.35277 3.71088-2.984 0-0.26781-0.286912-0.26781-0.459072-0.26781-0.229536 0-0.36344 0-0.439952 0.24867-0.55472 1.74067-1.93195 2.31451-2.71621 2.31451-0.72688 0-1.07118-0.3443-1.07118-0.9564 0-0.40169 0.248672-1.4155 0.420816-2.12325 0.133904-0.49732 0.573856-2.29539 0.669488-2.60144 0.286928-1.14769 0.956416-1.74067 1.6259-1.74067 0.09565 0 0.5356 0 0.91816 0.28693z" stroke-width=".833333"/><path d="m94.0818 295.93c-0.68862 0.19128-1.03293 0.84163-1.03293 1.31984 0 0.42083 0.32519 0.8799 0.95642 0.8799 0.66949 0 1.37723-0.55472 1.37723-1.492 0-1.0138-1.01379-1.68329-2.18062-1.68329-1.09031 0-1.79805 0.82253-2.04672 1.16683-0.47821-0.80339-1.54939-1.16683-2.6397-1.16683-2.41016 0-3.71089 2.35278-3.71089 2.98401 0 0.2678 0.28693 0.2678 0.45908 0.2678 0.22954 0 0.36344 0 0.43996-0.24866 0.55472-1.74067 1.93195-2.31453 2.7162-2.31453 0.72688 0 1.07119 0.34431 1.07119 0.95642 0 0.36344-0.26779 1.41549-0.43995 2.10411l-0.65036 2.62056c-0.28692 1.16683-0.97555 1.74067-1.6259 1.74067-0.0957 0-0.5356 0-0.91816-0.28691 0.68861-0.19128 1.03293-0.84165 1.03293-1.31986 0-0.42081-0.32519-0.8799-0.95642-0.8799-0.66949 0-1.37724 0.55472-1.37724 1.49202 0 1.01379 1.0138 1.68328 2.18063 1.68328 1.09031 0 1.79805-0.82252 2.04672-1.16682 0.47821 0.80338 1.5494 1.16682 2.6397 1.16682 2.41016 0 3.71088-2.35277 3.71088-2.984 0-0.26781-0.28691-0.26781-0.45907-0.26781-0.22954 0-0.36344 0-0.43995 0.24867-0.55472 1.74067-1.93196 2.31451-2.71621 2.31451-0.72688 0-1.07119-0.3443-1.07119-0.9564 0-0.40169 0.24868-1.4155 0.42082-2.12325 0.1339-0.49732 0.57386-2.29539 0.66949-2.60144 0.28693-1.14769 0.95641-1.74067 1.6259-1.74067 0.0957 0 0.5356 0 0.91816 0.28693z" fill="#f00" stroke-width="1.33333"/><path d="m102.74 297.7c0-0.20085 0-0.52221-0.32136-0.52221-0.33473 0-0.33473 0.30797-0.33473 0.52221v8.11421h-4.08389c-0.20085 0-0.53559 0-0.53559 0.32136 0 0.33474 0.30796 0.33474 0.53559 0.33474h8.82387c0.21424 0 0.53559 0 0.53559-0.32136 0-0.33474-0.30797-0.33474-0.53559-0.33474h-4.08389z" fill="#f00" stroke-width="1.33333"/></g><g fill="none"><path d="m99.2431 345.488-39.052-65.8357" marker-end="url(#Arrow1Lend)" stroke="#000" stroke-dasharray="1.99999997, 1.99999997" stroke-miterlimit="100"/><path d="m92.8112 334.645 11.3723-6.75429 6.75001 11.3795" stroke="#000" stroke-linejoin="round" stroke-width=".623622"/><path d="m192.528 290.718-159.378 94.4918" color="#000000" color-rendering="auto" image-rendering="auto" shape-rendering="auto" solid-color="#000000" stroke="#f00" stroke-linejoin="round" stroke-miterlimit="100" stroke-width="2" style="isolation:auto;mix-blend-mode:normal"/></g><ellipse transform="matrix(.859789 -.51065 .510172 .860072 0 0)" cx="-90.9023" cy="270.334" rx="4.65455" ry="4.65596" fill="#ef0000"/><g><path d="m145.18 339.538-3.99394-6.71986 2.25534-1.34046-0.70551-1.18702-5.77024 3.42955-0.47426-0.79795 5.77025-3.42954-0.59577-1.00238 1.07492-0.63887 0.59576 1.00238 5.19652-3.08855 0.47425 0.79794-5.19651 3.08855 0.7055 1.18702 3.87101-2.30074 3.99395 6.71987zm3.32841-8.4839-0.68591-1.15405-5.19652 3.08854 0.68591 1.15405zm-4.00892 5.0867 5.19652-3.08855-0.76822-1.29254-5.19652 3.08855zm1.21112 2.03772 5.19652-3.08854-0.79174-1.33211-5.19652 3.08855zm-2.10295 5.18542-5.06789-8.52678 0.99578-0.59184 4.35454 7.32656 10.4524-6.21237 0.47426 0.79795-10.4524 6.21237 0.23909 0.40227z"/><path d="m164.269 331.084-1.33869 0.79565-0.61237-0.8051 0.99577-0.59184q0.4946-0.29396 0.23199-0.73579l-2.97096-4.99868-2.69717 1.60307-2.79459-4.70193 2.32128-1.37966-0.29434-1.35107 1.12388-0.39134 0.0937 1.19369 3.22474-1.91663 2.79459 4.70193-2.74993 1.63442 0.40763 0.68584q0.71452 0.60159 1.78458 1.12573 0.7636-1.70322 1.03254-2.78224l1.05178 0.17805q-0.29352 0.97761-1.29508 2.95612 1.92153 0.78556 3.9312 0.93865l-0.23864 1.06994q-2.83674-0.26837-5.31003-1.87718l1.81079 3.04669q0.25085 0.42205 0.1016 0.87664-0.14924 0.4546-0.60427 0.72504zm-7.0595-7.95881 4.58322-2.72404-0.76038-1.27935-4.58322 2.72404zm5.0026-2.01842-4.58322 2.72404 0.7447 1.25296 4.58322-2.72404zm-4.09103 13.7473-3.28844-5.53285-1.90409 1.34588-0.61523-0.74985 0.68727-0.43524q0.13276-0.91777 0.26078-2.27893-0.51911-0.13768-2.93093-0.71214l0.23541-0.92523 0.38118 0.0858q0.12112-1.59801-0.0159-2.8195l1.0718-0.20867q0.0129 1.6433-0.15955 3.24503l1.50351 0.38255q0.1422-1.92289 0.0611-2.99022l1.12027-0.15716q-0.073 2.68494-0.55154 5.75367 1.37599-0.89809 2.20993-1.49196l-0.89127-0.80888 0.66859-0.69188q1.088 0.95969 1.92402 1.76572l-0.68179 0.69971q-0.10085-0.10961-0.42193-0.40961-0.47248 0.3612-1.05836 0.77183l3.33155 5.60538zm2.49871-1.96702-0.8395-0.28635q0.63717-1.36036 0.66397-2.74169 0.0334-1.38523-0.369-2.37759l-1.46399 0.87012-0.4233-0.71221 2.31469-1.37574 0.33253 0.079q0.68068 1.46057 0.62421 3.3325-0.0499 1.86801-0.83961 3.21194zm-1.86367-1.40893q-0.66923-0.7356-1.70048-2.05027l0.70493-0.5707q0.64142 0.77891 1.70584 2.02927zm-2.73542 3.20537-0.85101 0.26485q-0.5763-2.20085-1.29388-3.64842l0.92286-0.45928q0.38175 0.89755 0.75702 2.08451 0.37528 1.18696 0.465 1.75832z"/><path d="m176.495 314.117-1.26599-2.13003-4.57003 2.71619 1.6109 2.71037-1.00896 0.59968-1.61091-2.71037-4.35241 2.58686 1.26599 2.13004-0.91005 0.54088-1.6697-2.80928 5.26246-3.12774-0.50561-0.8507-4.41836 2.62605-0.41938-0.70562 9.91822-5.89489 0.43258 0.69778-4.50409 2.677 0.50561 0.8507 5.50646-3.27276 1.6697 2.80928zm-9.50843 4.48229-0.33708-0.56713 2.41361-1.43453 0.33708 0.56713zm5.44051-3.23357-0.33707-0.56713 2.57847-1.53252 0.33707 0.56713zm-4.69581 4.48653-0.33708-0.56713 2.41361-1.43452 0.33708 0.56713zm5.44051-3.23356-0.33707-0.56713 2.57847-1.53252 0.33708 0.56713zm-2.72649 8.01014 0.33707 0.56713-0.93643 0.55657-2.71619-4.57003 10.0567-5.9772 2.37912 4.0029-4.58982 2.72795 0.34491 0.58032q0.14502 0.244 0.35923 0.3041 0.2142 0.0601 0.47779-0.0519 0.27022-0.11593 0.83713-0.40833 0.56304-0.29892 1.12357-0.63208 0.65946-0.39195 1.36136-0.86263 0.70849-0.47461 0.88139-0.60412 0.17556-0.14006 0.24742-0.33446 0.0785-0.19833 0.0151-0.45515-0.0568-0.26074-0.70973-1.43438l0.93835-0.38816 0.87405 1.47059q0.16462 0.27697 0.15814 0.56638 1.3e-4 0.2855-0.13643 0.53622-0.13263 0.25731-0.33209 0.44725-0.19284 0.18604-1.2191 0.83171-1.01572 0.64837-1.90599 1.1775-1.66842 0.99163-2.23645 1.22209-0.56409 0.23709-0.949 0.1-0.38099-0.13052-0.66319-0.60533l-0.5017-0.8441zm-1.33225-2.33162 3.45555-2.0538-0.61536-1.03535-3.45555 2.05381zm4.47771-2.66132 3.62041-2.15179-0.61536-1.03535-3.62041 2.15179zm3.99668-1.51871-3.62041 2.15179 0.59576 1.00237 3.62041-2.15179zm-4.64257 2.75931-3.45555 2.05381 0.59576 1.00237 3.45555-2.05381z"/><path d="m186.153 304.451 0.52521 0.88367-1.03535 0.61536-0.52521-0.88367-3.42917 2.03813 0.54089 0.91005-1.02216 0.60752-0.54089-0.91005-3.38961 2.01461-0.50169-0.84411 3.38961-2.01461-0.57224-0.9628 1.02215-0.60752 0.57224 0.9628 3.42918-2.03812-0.57224-0.9628 1.03534-0.61536 0.57224 0.9628 3.44236-2.04597 0.5017 0.84411zm-1.2143 14.5184-3.02975-5.0976q-0.088 1.53368-0.40717 2.67828l-0.92418-0.17357q0.3095-1.65642 0.30756-3.71673 7.3e-4 -2.07083-0.32801-3.37469l1.14471-0.34125q0.25192 1.42984 0.24391 3.35329l0.28356-0.16854 3.71174 6.24505zm8.54711-5.21384-1.99815 1.1876-0.69505-0.85411 1.76734-1.05042q0.50778-0.3018 0.23734-0.75682l-3.69998-6.22528-6.17252 3.66863-0.51736-0.87047 8.42125-5.00517 0.51737 0.87047-1.20021 0.71335 3.89596 6.555q0.29788 0.50118 0.13277 0.97413-0.1546 0.47562-0.68876 0.79309zm-6.36371 0.61422 0.23909 0.40227-0.97599 0.58008-2.57902-4.33922 4.37879-2.60253 2.33993 3.93695zm0.49948-4.62505-2.40042 1.42669 1.43452 2.4136 2.40042-1.42668z"/></g></g></svg>
