<svg width="193.751" height="111.751" xmlns="http://www.w3.org/2000/svg">
<path d="M.5.5v110.751h192.751V.5z" color="#000" fill="#cacaca" style="font-feature-settings:normal;font-variant-alternates:normal;font-variant-caps:normal;font-variant-ligatures:normal;font-variant-numeric:normal;font-variant-position:normal;isolation:auto;mix-blend-mode:normal;shape-padding:0;text-decoration-color:#000;text-decoration-line:none;text-decoration-style:solid;text-indent:0;text-orientation:mixed;text-transform:none;white-space:normal"/>
<path fill="#fff" d="M10.685 10.48h171.497v89.155H10.685z"/>
<g stroke-linejoin="round" stroke-miterlimit="100000" stroke-width="1.333">
<path d="M29.3 23.046c.134-.536.211-.65.44-.708.173-.038.804-.038 1.206-.038 1.932 0 2.792.077 2.792 1.569 0 .286-.076 1.032-.153 1.53-.019.076-.057.306-.057.363 0 .115.057.249.23.249.21 0 .248-.153.286-.44l.517-3.328c.019-.077.038-.268.038-.326 0-.21-.191-.21-.516-.21H23.466c-.459 0-.478.02-.612.383l-1.147 3.366c-.02.038-.115.306-.115.345 0 .114.096.21.23.21.19 0 .21-.096.325-.402 1.033-2.965 1.53-3.309 4.36-3.309h.747c.535 0 .535.077.535.23 0 .114-.057.344-.076.401L25.15 33.146c-.172.708-.23.918-2.276.918-.69 0-.804 0-.804.363 0 .23.21.23.325.23.517 0 1.052-.038 1.569-.038.535 0 1.09-.02 1.626-.02.535 0 1.07.02 1.587.02.555 0 1.129.038 1.665.038.19 0 .42 0 .42-.383 0-.21-.153-.21-.65-.21-.478 0-.727 0-1.224-.038-.555-.058-.708-.115-.708-.421 0-.02 0-.115.077-.402zM36.754 29.01c0-.362-.026-.375-.401-.375-.857.844-2.076.857-2.625.857v.482c.322 0 1.205 0 1.942-.375v6.829c0 .442 0 .616-1.34.616h-.508v.482a101.66 101.66 0 0 1 2.383-.054c.415 0 2.103.04 2.397.054v-.482h-.509c-1.339 0-1.339-.174-1.339-.616zM44.734 34.637c0-1.262-.478-2.008-1.224-2.008-.631 0-1.014.478-1.014 1.013 0 .517.383 1.014 1.014 1.014.23 0 .478-.076.67-.249.057-.038.076-.057.095-.057.02 0 .039.02.039.287 0 1.415-.67 2.563-1.301 3.194-.21.21-.21.25-.21.306 0 .134.095.21.19.21.211 0 1.741-1.472 1.741-3.71zM61.345 23.773c.938-1.492 1.741-1.55 2.449-1.588.23-.019.248-.344.248-.363 0-.153-.095-.23-.248-.23-.498 0-1.052.058-1.569.058-.63 0-1.281-.058-1.893-.058-.115 0-.364 0-.364.364 0 .21.172.23.306.23.517.038.88.229.88.63 0 .288-.287.708-.287.727l-5.872 9.335-1.3-10.119c0-.325.439-.574 1.319-.574.268 0 .478 0 .478-.382 0-.172-.153-.21-.268-.21-.765 0-1.587.057-2.372.057-.344 0-.707-.02-1.052-.02s-.707-.038-1.033-.038c-.133 0-.363 0-.363.364 0 .23.172.23.478.23 1.071 0 1.09.172 1.148.65l1.511 11.802c.057.382.134.44.383.44.306 0 .382-.096.535-.344zM64.934 29.01c0-.362-.027-.375-.402-.375-.857.844-2.076.857-2.625.857v.482c.322 0 1.206 0 1.942-.375v6.829c0 .442 0 .616-1.339.616h-.509v.482a101.66 101.66 0 0 1 2.384-.054c.415 0 2.102.04 2.396.054v-.482h-.508c-1.34 0-1.34-.174-1.34-.616zM134.25 23.046c.134-.536.21-.65.44-.708.172-.038.803-.038 1.205-.038 1.932 0 2.793.077 2.793 1.569 0 .286-.077 1.032-.153 1.53-.02.076-.058.306-.058.363 0 .115.058.249.23.249.21 0 .249-.153.287-.44l.516-3.328c.02-.077.039-.268.039-.326 0-.21-.192-.21-.517-.21h-10.616c-.46 0-.478.02-.612.383l-1.148 3.366c-.019.038-.115.306-.115.345 0 .114.096.21.23.21.191 0 .21-.096.325-.402 1.033-2.965 1.53-3.309 4.361-3.309h.746c.536 0 .536.077.536.23 0 .114-.058.344-.077.401L130.1 33.146c-.172.708-.23.918-2.276.918-.689 0-.803 0-.803.363 0 .23.21.23.325.23.516 0 1.052-.038 1.568-.038.536 0 1.09-.02 1.626-.02.536 0 1.071.02 1.588.02.554 0 1.128.038 1.664.038.191 0 .42 0 .42-.383 0-.21-.152-.21-.65-.21-.478 0-.726 0-1.224-.038-.555-.058-.708-.115-.708-.421 0-.02 0-.115.077-.402zM143.98 35.089h-.455c-.04.295-.174 1.085-.348 1.218-.107.08-1.139.08-1.326.08h-2.464c1.406-1.244 1.875-1.62 2.678-2.249.991-.79 1.915-1.62 1.915-2.892 0-1.62-1.42-2.61-3.133-2.61-1.66 0-2.785 1.164-2.785 2.396 0 .683.575.75.71.75.32 0 .709-.228.709-.71 0-.241-.094-.71-.79-.71.415-.95 1.326-1.245 1.955-1.245 1.339 0 2.035 1.045 2.035 2.13 0 1.164-.83 2.088-1.258 2.57l-3.227 3.187c-.134.12-.134.147-.134.522h5.516zM149.682 34.637c0-1.262-.478-2.008-1.224-2.008-.631 0-1.014.478-1.014 1.013 0 .517.383 1.014 1.014 1.014.23 0 .478-.076.67-.249.057-.038.076-.057.095-.057s.038.02.038.287c0 1.415-.67 2.563-1.3 3.194-.211.21-.211.25-.211.306 0 .134.096.21.191.21.21 0 1.741-1.472 1.741-3.71zM166.293 23.773c.937-1.492 1.74-1.55 2.448-1.588.23-.019.25-.344.25-.363 0-.153-.097-.23-.25-.23-.497 0-1.052.058-1.568.058-.631 0-1.282-.058-1.894-.058-.115 0-.363 0-.363.364 0 .21.172.23.306.23.516.038.88.229.88.63 0 .288-.287.708-.287.727l-5.873 9.335-1.3-10.119c0-.325.44-.574 1.32-.574.267 0 .478 0 .478-.382 0-.172-.153-.21-.268-.21-.765 0-1.588.057-2.372.057-.344 0-.708-.02-1.052-.02s-.708-.038-1.033-.038c-.134 0-.363 0-.363.364 0 .23.172.23.478.23 1.071 0 1.09.172 1.148.65l1.51 11.802c.058.382.135.44.383.44.306 0 .383-.096.536-.344zM172.159 35.089h-.455c-.04.295-.174 1.085-.348 1.218-.107.08-1.139.08-1.326.08h-2.464c1.406-1.244 1.875-1.62 2.678-2.249.991-.79 1.915-1.62 1.915-2.892 0-1.62-1.42-2.61-3.133-2.61-1.66 0-2.785 1.164-2.785 2.396 0 .683.575.75.71.75.32 0 .709-.228.709-.71 0-.241-.094-.71-.79-.71.415-.95 1.326-1.245 1.955-1.245 1.339 0 2.035 1.045 2.035 2.13 0 1.164-.83 2.088-1.258 2.57l-3.227 3.187c-.134.12-.134.147-.134.522h5.516z"/>
</g>
<path fill="none" stroke="#555" stroke-width="3.567" d="M11.375 11.375h171v89h-171z"/>
<rect x="91.404" y="12.978" width="5.571" height="85.711" rx="3.889" ry="3.889" fill="#6563e1"/>
<path d="m86.986 75.735-8.617 6.633L86.986 89l-1.56-4.779h17.172l-1.56 4.779 8.617-6.633-8.616-6.633 1.559 4.778H85.427z" color="#000" fill="red" style="font-feature-settings:normal;font-variant-alternates:normal;font-variant-caps:normal;font-variant-ligatures:normal;font-variant-numeric:normal;font-variant-position:normal;isolation:auto;mix-blend-mode:normal;shape-padding:0;text-decoration-color:#000;text-decoration-line:none;text-decoration-style:solid;text-indent:0;text-orientation:mixed;text-transform:none;white-space:normal"/>
<g fill="#dd3838" stroke-linejoin="round" stroke-miterlimit="100000" stroke-width="1.333">
<path d="M122.359 86.345c2.47-.94 4.814-3.778 4.814-6.854 0-2.567-1.69-4.288-4.065-4.288-3.443 0-6.95 3.618-6.95 7.332 0 2.646 1.786 4.256 4.081 4.256.398 0 .94-.063 1.562-.239-.064.989-.064 1.02-.064 1.228 0 .51 0 1.753 1.323 1.753 1.897 0 2.662-2.917 2.662-3.092 0-.112-.111-.16-.175-.16-.127 0-.16.08-.191.176-.383 1.131-1.307 1.53-1.865 1.53-.733 0-.973-.43-1.132-1.642zm-3.013-.127c-1.243-.495-1.785-1.738-1.785-3.173 0-1.1.414-3.363 1.626-5.085 1.164-1.625 2.662-2.359 3.826-2.359 1.594 0 2.757 1.244 2.757 3.38 0 1.594-.813 5.324-3.49 6.822-.08-.558-.24-1.721-1.403-1.721-.845 0-1.626.797-1.626 1.625 0 .32.095.495.095.51zm.989.175c-.224 0-.734 0-.734-.686 0-.637.606-1.275 1.276-1.275s.972.383.972 1.355c0 .24-.016.255-.175.319a3.542 3.542 0 0 1-1.34.287zM131.168 86.424c0-1.052-.399-1.674-1.02-1.674-.526 0-.845.399-.845.845 0 .43.319.845.845.845a.837.837 0 0 0 .558-.207c.048-.032.063-.048.08-.048s.031.016.031.239c0 1.18-.558 2.136-1.084 2.662-.175.175-.175.207-.175.255 0 .112.08.175.16.175.175 0 1.45-1.227 1.45-3.092zM145.01 77.37c.781-1.243 1.45-1.291 2.04-1.323.192-.016.208-.287.208-.303 0-.127-.08-.191-.208-.191-.414 0-.876.048-1.307.048-.526 0-1.068-.048-1.578-.048-.095 0-.303 0-.303.303 0 .175.144.191.255.191.43.032.734.191.734.526 0 .24-.24.59-.24.606l-4.893 7.779-1.084-8.433c0-.27.367-.478 1.1-.478.223 0 .398 0 .398-.319 0-.143-.127-.175-.223-.175-.637 0-1.323.048-1.976.048-.287 0-.59-.016-.877-.016s-.59-.032-.861-.032c-.112 0-.303 0-.303.303 0 .191.144.191.399.191.892 0 .908.143.956.542l1.26 9.835c.047.319.111.367.318.367.255 0 .319-.08.447-.287z"/>
</g>
</svg>
