<svg width="181.251" height="97.751" xmlns="http://www.w3.org/2000/svg">
<path d="M47.017 281.794v96.75h180.251v-96.75z" color="#000" fill="#e5e5e5" style="font-feature-settings:normal;font-variant-alternates:normal;font-variant-caps:normal;font-variant-ligatures:normal;font-variant-numeric:normal;font-variant-position:normal;isolation:auto;mix-blend-mode:normal;shape-padding:0;text-decoration-color:#000;text-decoration-line:none;text-decoration-style:solid;text-indent:0;text-orientation:mixed;text-transform:none;white-space:normal" transform="translate(-46.517 -281.294)"/>
<path d="M99.25 81.425H16.498v-65.35H99.25" fill="#fff"/>
<path d="M124.313 81.825H16.393V15.926h107.92" fill="none" stroke="#555" stroke-width="3.567"/>
<g stroke-linejoin="round">
<g stroke-miterlimit="100000" stroke-width="1.333">
<path d="M33.935 26.292c.133-.536.21-.65.44-.708.172-.038.803-.038 1.205-.038 1.932 0 2.792.077 2.792 1.569 0 .286-.076 1.032-.153 1.53-.019.076-.057.306-.057.363 0 .115.057.249.23.249.21 0 .248-.153.286-.44l.517-3.328c.019-.077.038-.268.038-.326 0-.21-.191-.21-.516-.21H28.1c-.459 0-.478.02-.612.383l-1.147 3.366c-.02.038-.115.306-.115.345 0 .114.096.21.23.21.19 0 .21-.096.325-.402 1.033-2.965 1.53-3.309 4.36-3.309h.747c.535 0 .535.077.535.23 0 .114-.057.344-.076.401l-2.563 10.215c-.172.708-.23.918-2.276.918-.69 0-.804 0-.804.363 0 .23.21.23.325.23.517 0 1.052-.038 1.569-.038.535 0 1.09-.02 1.626-.02.535 0 1.07.02 1.587.02.555 0 1.129.038 1.665.038.19 0 .42 0 .42-.383 0-.21-.153-.21-.65-.21-.478 0-.727 0-1.224-.038-.555-.058-.708-.115-.708-.421 0-.02 0-.115.077-.402zM42.381 37.883c0-1.262-.478-2.008-1.224-2.008-.631 0-1.014.478-1.014 1.013 0 .517.383 1.014 1.014 1.014.23 0 .478-.076.67-.249.057-.038.076-.057.095-.057.02 0 .038.02.038.287 0 1.415-.67 2.563-1.3 3.194-.21.21-.21.25-.21.306 0 .134.095.21.19.21.21 0 1.741-1.472 1.741-3.71zM58.993 27.018c.937-1.492 1.74-1.55 2.448-1.588.23-.019.249-.344.249-.363 0-.153-.096-.23-.25-.23-.496 0-1.051.058-1.568.058-.63 0-1.281-.058-1.893-.058-.115 0-.364 0-.364.364 0 .21.172.23.306.23.517.038.88.229.88.63 0 .288-.287.708-.287.727l-5.872 9.335-1.3-10.119c0-.325.44-.574 1.319-.574.268 0 .478 0 .478-.382 0-.172-.153-.21-.268-.21-.765 0-1.587.057-2.371.057-.345 0-.708-.02-1.053-.02-.344 0-.707-.038-1.032-.038-.134 0-.364 0-.364.364 0 .23.172.23.478.23 1.072 0 1.09.172 1.148.65l1.511 11.802c.058.382.134.44.383.44.306 0 .382-.096.535-.344z"/>
</g>
<path d="M100.126 46.251H167.3" fill="none" stroke="#6261dd" stroke-width="10"/>
</g>
<g transform="translate(-46.517 -281.294)">
<rect x="142.489" y="298.745" width="5.571" height="62.752" rx="3.889" ry="3.889" fill="#6563e1"/>
<path d="M176.277 345.767c.781-1.243 1.45-1.291 2.04-1.323.192-.016.208-.287.208-.303 0-.127-.08-.191-.208-.191-.414 0-.876.048-1.307.048-.526 0-1.068-.048-1.578-.048-.095 0-.303 0-.303.303 0 .175.144.191.255.191.43.032.734.191.734.526 0 .24-.24.59-.24.606l-4.893 7.779-1.084-8.433c0-.27.367-.478 1.1-.478.223 0 .398 0 .398-.319 0-.143-.127-.175-.223-.175-.637 0-1.323.048-1.976.048-.287 0-.59-.016-.877-.016s-.59-.032-.861-.032c-.112 0-.303 0-.303.303 0 .191.144.191.399.191.892 0 .908.143.956.542l1.26 9.835c.047.319.111.367.318.367.255 0 .319-.08.447-.287z" fill="#dd3838"/>
<path d="m137.987 342.936-8.617 6.633 8.617 6.633-1.56-4.779H153.6l-1.56 4.779 8.617-6.633-8.616-6.633 1.56 4.778h-17.172z" color="#000" fill="red" style="font-feature-settings:normal;font-variant-alternates:normal;font-variant-caps:normal;font-variant-ligatures:normal;font-variant-numeric:normal;font-variant-position:normal;isolation:auto;mix-blend-mode:normal;shape-padding:0;text-decoration-color:#000;text-decoration-line:none;text-decoration-style:solid;text-indent:0;text-orientation:mixed;text-transform:none;white-space:normal"/>
</g>
</svg>
