<svg width="193.751" height="111.751" xmlns="http://www.w3.org/2000/svg">
<path d="M-19.233 240.509V351.26h192.751V240.509z" color="#000" fill="#cacaca" style="font-feature-settings:normal;font-variant-alternates:normal;font-variant-caps:normal;font-variant-ligatures:normal;font-variant-numeric:normal;font-variant-position:normal;isolation:auto;mix-blend-mode:normal;shape-padding:0;text-decoration-color:#000;text-decoration-line:none;text-decoration-style:solid;text-indent:0;text-orientation:mixed;text-transform:none;white-space:normal" transform="translate(19.733 -240.009)"/>
<path fill="#fff" d="M10.685 10.48h171.497v89.155H10.685z"/>
<g stroke-linejoin="round" stroke-miterlimit="100000" stroke-width="1.333">
<path d="M29.3 23.045c.134-.536.211-.65.44-.708.173-.038.804-.038 1.206-.038 1.932 0 2.792.077 2.792 1.569 0 .286-.076 1.032-.153 1.53-.019.076-.057.306-.057.363 0 .115.057.249.23.249.21 0 .248-.153.286-.44l.517-3.328c.019-.077.038-.268.038-.326 0-.21-.191-.21-.516-.21H23.466c-.459 0-.478.02-.612.383l-1.147 3.366c-.02.038-.115.306-.115.345 0 .114.096.21.23.21.19 0 .21-.096.325-.402 1.033-2.965 1.53-3.309 4.36-3.309h.747c.535 0 .535.077.535.23 0 .114-.057.344-.076.401L25.15 33.145c-.172.707-.23.918-2.277.918-.688 0-.803 0-.803.363 0 .23.21.23.325.23.517 0 1.052-.038 1.569-.038.535 0 1.09-.02 1.626-.02.535 0 1.07.02 1.587.02.555 0 1.129.038 1.665.038.19 0 .42 0 .42-.383 0-.21-.153-.21-.65-.21-.478 0-.727 0-1.224-.038-.555-.058-.708-.115-.708-.421 0-.02 0-.115.077-.402zM36.754 29.009c0-.362-.026-.375-.401-.375-.857.844-2.076.857-2.625.857v.482c.322 0 1.205 0 1.942-.375v6.829c0 .442 0 .616-1.34.616h-.508v.482a101.66 101.66 0 0 1 2.383-.054c.415 0 2.103.04 2.397.054v-.482h-.509c-1.339 0-1.339-.174-1.339-.616zM44.734 34.637c0-1.262-.478-2.008-1.224-2.008-.631 0-1.014.478-1.014 1.013 0 .517.383 1.014 1.014 1.014.23 0 .478-.076.67-.249.057-.038.076-.057.095-.057.02 0 .038.02.038.287 0 1.415-.669 2.563-1.3 3.194-.21.21-.21.25-.21.306 0 .134.095.21.19.21.211 0 1.741-1.472 1.741-3.71zM61.345 23.772c.938-1.492 1.741-1.55 2.449-1.588.23-.019.248-.344.248-.363 0-.153-.095-.23-.248-.23-.498 0-1.052.058-1.569.058-.631 0-1.281-.058-1.894-.058-.114 0-.363 0-.363.364 0 .21.172.23.306.23.517.038.88.229.88.63 0 .288-.287.708-.287.727l-5.872 9.335-1.301-10.119c0-.325.44-.574 1.32-.574.268 0 .478 0 .478-.382 0-.172-.153-.21-.268-.21-.765 0-1.587.057-2.372.057-.344 0-.707-.02-1.052-.02s-.707-.038-1.033-.038c-.134 0-.363 0-.363.364 0 .23.172.23.478.23 1.071 0 1.09.172 1.148.65l1.511 11.802c.057.382.134.44.383.44.306 0 .382-.096.535-.344zM64.934 29.009c0-.362-.027-.375-.402-.375-.857.844-2.076.857-2.625.857v.482c.322 0 1.205 0 1.942-.375v6.829c0 .442 0 .616-1.339.616H62v.482a101.66 101.66 0 0 1 2.384-.054c.415 0 2.102.04 2.396.054v-.482h-.509c-1.339 0-1.339-.174-1.339-.616zM134.25 23.045c.133-.536.21-.65.44-.708.172-.038.803-.038 1.205-.038 1.931 0 2.792.077 2.792 1.569 0 .286-.076 1.032-.153 1.53-.019.076-.057.306-.057.363 0 .115.057.249.23.249.21 0 .248-.153.286-.44l.517-3.328c.019-.077.038-.268.038-.326 0-.21-.191-.21-.516-.21h-10.617c-.459 0-.478.02-.612.383l-1.147 3.366c-.02.038-.115.306-.115.345 0 .114.095.21.23.21.19 0 .21-.096.325-.402 1.032-2.965 1.53-3.309 4.36-3.309h.747c.535 0 .535.077.535.23 0 .114-.057.344-.076.401l-2.563 10.215c-.172.708-.23.918-2.277.918-.688 0-.803 0-.803.363 0 .23.21.23.325.23.517 0 1.052-.038 1.569-.038.535 0 1.09-.02 1.626-.02.535 0 1.07.02 1.587.02.555 0 1.129.038 1.664.038.192 0 .421 0 .421-.383 0-.21-.153-.21-.65-.21-.478 0-.727 0-1.224-.038-.555-.058-.708-.115-.708-.421 0-.02 0-.115.076-.402zM143.98 35.088h-.456c-.04.295-.174 1.085-.348 1.218-.107.08-1.138.08-1.325.08h-2.464c1.406-1.244 1.874-1.62 2.678-2.249.99-.79 1.915-1.62 1.915-2.892 0-1.62-1.42-2.61-3.134-2.61-1.66 0-2.785 1.164-2.785 2.396 0 .683.576.75.71.75.321 0 .71-.228.71-.71 0-.241-.094-.71-.79-.71.415-.95 1.325-1.245 1.954-1.245 1.34 0 2.036 1.045 2.036 2.13 0 1.164-.83 2.088-1.259 2.57l-3.227 3.187c-.134.12-.134.147-.134.522h5.517zM149.682 34.637c0-1.262-.479-2.008-1.225-2.008-.63 0-1.014.478-1.014 1.013 0 .517.383 1.014 1.014 1.014.23 0 .479-.076.67-.249.057-.038.076-.057.095-.057s.039.02.039.287c0 1.415-.67 2.563-1.301 3.194-.21.21-.21.25-.21.306 0 .134.095.21.19.21.211 0 1.742-1.472 1.742-3.71zM166.293 23.772c.937-1.492 1.74-1.55 2.448-1.588.23-.019.249-.344.249-.363 0-.153-.096-.23-.25-.23-.496 0-1.051.058-1.568.058-.63 0-1.281-.058-1.893-.058-.115 0-.364 0-.364.364 0 .21.172.23.306.23.517.038.88.229.88.63 0 .288-.287.708-.287.727l-5.872 9.335-1.3-10.119c0-.325.44-.574 1.319-.574.268 0 .478 0 .478-.382 0-.172-.153-.21-.268-.21-.765 0-1.587.057-2.371.057-.345 0-.708-.02-1.053-.02s-.707-.038-1.032-.038c-.134 0-.364 0-.364.364 0 .23.172.23.478.23 1.072 0 1.09.172 1.148.65l1.511 11.802c.058.382.134.44.383.44.306 0 .382-.096.535-.344zM172.159 35.088h-.456c-.04.295-.174 1.085-.348 1.218-.107.08-1.138.08-1.325.08h-2.464c1.406-1.244 1.874-1.62 2.678-2.249.99-.79 1.915-1.62 1.915-2.892 0-1.62-1.42-2.61-3.134-2.61-1.66 0-2.785 1.164-2.785 2.396 0 .683.576.75.71.75.321 0 .71-.228.71-.71 0-.241-.094-.71-.79-.71.415-.95 1.325-1.245 1.954-1.245 1.34 0 2.036 1.045 2.036 2.13 0 1.164-.83 2.088-1.259 2.57l-3.227 3.187c-.134.12-.134.147-.134.522h5.517z"/>
</g>
<path fill="none" stroke="#555" stroke-width="3.567" d="M11.376 11.375h171v89h-171z"/>
<g transform="translate(19.733 -240.009)">
<rect x="71.671" y="252.936" width="5.571" height="85.961" rx="3.889" ry="3.889" fill="#6563e1"/>
<path d="M105.543 318.574c.781-1.243 1.45-1.291 2.04-1.323.192-.016.208-.287.208-.303 0-.127-.08-.191-.208-.191-.414 0-.876.048-1.307.048-.526 0-1.068-.048-1.578-.048-.095 0-.303 0-.303.303 0 .175.144.191.255.191.43.032.734.191.734.526 0 .24-.24.59-.24.606l-4.893 7.779-1.084-8.433c0-.27.367-.478 1.1-.478.223 0 .398 0 .398-.319 0-.143-.127-.175-.223-.175-.637 0-1.323.048-1.976.048-.287 0-.59-.016-.877-.016s-.59-.032-.86-.032c-.113 0-.304 0-.304.303 0 .191.144.191.399.191.892 0 .908.143.956.542l1.26 9.835c.047.319.111.367.318.367.255 0 .319-.08.447-.287z" fill="#dd3838"/>
<path d="m67.253 315.743-8.616 6.633 8.616 6.633-1.559-4.779h17.171l-1.559 4.779 8.617-6.633-8.617-6.633 1.56 4.778H65.693z" color="#000" fill="red" style="font-feature-settings:normal;font-variant-alternates:normal;font-variant-caps:normal;font-variant-ligatures:normal;font-variant-numeric:normal;font-variant-position:normal;isolation:auto;mix-blend-mode:normal;shape-padding:0;text-decoration-color:#000;text-decoration-line:none;text-decoration-style:solid;text-indent:0;text-orientation:mixed;text-transform:none;white-space:normal"/>
</g>
</svg>
