<svg width="148.558" height="102.907" xmlns="http://www.w3.org/2000/svg" xmlns:xlink="http://www.w3.org/1999/xlink">
<defs>
<path id="f" d="M2.427-3.95a.583.583 0 0 0 .075-.268c0-.26-.234-.46-.494-.46-.318 0-.418.26-.46.393L.444-.66a1.192 1.192 0 0 0-.042.134c0 .1.26.184.326.184.059 0 .067-.017.126-.142z"/>
<path id="c" d="M3.682-1.908c.176 0 .235 0 .235-.184 0-.737-.41-1.64-1.657-1.64-1.097 0-1.934.87-1.934 1.9 0 1.062.93 1.916 2.042 1.916 1.13 0 1.549-.904 1.549-1.088 0-.034-.017-.117-.143-.117-.109 0-.125.05-.15.134-.26.677-.896.803-1.197.803-.393 0-.77-.176-1.021-.494-.31-.393-.318-.904-.318-1.23zm-2.586-.218c.092-1.18.846-1.372 1.164-1.372 1.029 0 1.062 1.163 1.07 1.372z"/>
<path id="d" d="M4.235-3.69h-.252l-.3.728c-.26-.402-.679-.729-1.273-.729-1.08 0-2.025.82-2.025 1.892 0 1.046.895 1.883 1.95 1.883.67 0 1.03-.36 1.238-.57V.963c0 .36-.083.36-.627.36v.302c.016 0 .602-.034.954-.034.31 0 .887.025.962.034v-.302c-.544 0-.627 0-.627-.36zm-.628 2.485c0 .15 0 .184-.126.402-.25.41-.67.652-1.096.652-.695 0-1.238-.753-1.238-1.64 0-.979.66-1.632 1.33-1.632.703 0 1.13.686 1.13 1.155z"/>
<path id="b" d="M1.9-.933c-.119.467-.143.562-1.087.562-.203 0-.335 0-.335.228C.478 0 .586 0 .813 0H4.77c2.487 0 4.842-2.523 4.842-5.14 0-1.686-1.016-3.025-2.81-3.025H2.786c-.228 0-.36 0-.36.227 0 .143.108.143.348.143.155 0 .37.012.514.024.191.024.263.06.263.191 0 .048-.012.084-.048.228zM4.484-7.34c.108-.419.132-.455.646-.455h1.279c1.172 0 2.164.634 2.164 2.212 0 .586-.24 2.546-1.255 3.861C6.97-1.279 6.025-.37 4.555-.37H3.204c-.167 0-.191 0-.263-.012-.12-.012-.155-.023-.155-.12 0-.035 0-.059.06-.274z"/>
<path id="a" d="M5.798-4.914 4.794-7.293c-.036-.095-.06-.143-.06-.155 0-.072.203-.299.706-.347.12-.012.239-.024.239-.227 0-.143-.144-.143-.18-.143-.49 0-1.004.035-1.506.035-.299 0-1.04-.035-1.339-.035-.072 0-.215 0-.215.239 0 .131.12.131.275.131.717 0 .789.12.896.383l1.411 3.335L2.5-1.363l-.156.132c-.586.633-1.147.825-1.757.86-.156.012-.263.012-.263.24 0 .011 0 .131.155.131.359 0 .753-.036 1.124-.036.442 0 .909.036 1.339.036.072 0 .215 0 .215-.24 0-.119-.12-.13-.143-.13-.108-.013-.479-.036-.479-.371 0-.192.18-.383.323-.538l1.22-1.291 1.076-1.172L6.36-.885c.048.132.06.144.06.168 0 .095-.227.299-.693.346-.132.012-.24.024-.24.228 0 .143.132.143.18.143C6 0 6.838-.036 7.173-.036 7.472-.036 8.201 0 8.5 0c.084 0 .227 0 .227-.227 0-.144-.12-.144-.215-.144-.8-.012-.825-.047-1.028-.526-.466-1.111-1.267-2.976-1.542-3.694.813-.837 2.068-2.26 2.45-2.594.347-.287.802-.574 1.519-.61.155-.012.263-.012.263-.239 0-.012 0-.131-.156-.131-.358 0-.753.035-1.123.035-.443 0-.897-.035-1.327-.035-.072 0-.228 0-.228.239 0 .083.06.12.144.131.108.012.478.036.478.37 0 .168-.131.324-.227.431z"/>
<marker id="e" overflow="visible" orient="auto">
<path d="M1.96 0a2 2 0 1 1-4.001-.001A2 2 0 0 1 1.96 0z" fill-rule="evenodd" stroke="#000" stroke-width=".4pt"/>
</marker>
</defs>
<path fill="#e5e5e5" d="M.5.5h147.558v101.907H.5z"/>
<use transform="matrix(1.6 0 0 1.6 -255.193 -116)" x="228.784" y="88.26" width="100%" height="100%" fill="red" stroke-width=".833" xlink:href="#a"/>
<use transform="matrix(1.28 0 0 1.28 -257.151 -96.022)" x="205.499" y="88.26" width="100%" height="100%" stroke-width="1.042" xlink:href="#b"/>
<g transform="translate(163.713 6.863)">
<rect x="-157.213" y="33.526" width="88.626" height="56.018" rx="10.253" ry="10.253" fill="#bebebe"/>
<g transform="matrix(1.28 0 0 1.28 -414.864 -62.35)" stroke-width="1.042">
<use x="205.499" y="88.26" width="100%" height="100%" xlink:href="#b"/>
<use x="215.692" y="83.324" width="100%" height="100%" xlink:href="#c"/>
<use x="219.926" y="83.324" width="100%" height="100%" xlink:href="#d"/>
</g>
</g>
<path d="M76.47 82.863c22.053-.319 50.863-5.072 54.404-55.43" fill="none" marker-end="url(#e)" marker-start="url(#e)" stroke="#000"/>
<g transform="matrix(1.6 0 0 1.6 -314.524 -60.863)" fill="red" stroke-width=".833">
<use x="228.784" y="88.26" width="100%" height="100%" xlink:href="#a"/>
<use x="239.59" y="83.324" width="100%" height="100%" xlink:href="#f"/>
</g>
</svg>
