<svg width="223.677" height="168.751" xmlns="http://www.w3.org/2000/svg">
<path d="M-65.624 200.58v167.751h222.677V200.58z" color="#000" fill="#e5e5e5" style="font-feature-settings:normal;font-variant-alternates:normal;font-variant-caps:normal;font-variant-ligatures:normal;font-variant-numeric:normal;font-variant-position:normal;isolation:auto;mix-blend-mode:normal;shape-padding:0;text-decoration-color:#000;text-decoration-line:none;text-decoration-style:solid;text-indent:0;text-orientation:mixed;text-transform:none;white-space:normal" transform="translate(66.124 -200.08)"/>
<path d="M115.79 118.552h69.812V46.017h-50.63" fill="none" stroke="#555" stroke-dasharray="2.99999995, 2.99999995" stroke-linejoin="round" stroke-width="1.5"/>
<path d="M185.527 55.516c-.054 0-.108.004-.162.004h-.033v.002c-.348.003-.696.011-1.041.027l-1.266 4.495a21.877 21.877 0 0 0-2.877.52l-2.728-3.769c-.331.108-.66.224-.984.344l-.002-.002-.05.02c-.033.012-.067.022-.1.035-.14.052-.274.111-.411.166-.186.074-.375.143-.559.22l-.129.06c-.32.137-.636.28-.949.429l.635 4.605a21.877 21.877 0 0 0-2.338 1.508l-3.92-2.48a27.06 27.06 0 0 0-.783.687l-.008.008c-.03.028-.063.054-.094.082-.147.136-.29.279-.433.418-.106.102-.215.201-.319.305l-.06.064-.035.034v.002a26.77 26.77 0 0 0-.717.753l2.318 4.012a21.877 21.877 0 0 0-1.594 2.28l-4.578-.817c-.161.307-.316.618-.466.932-.02.043-.045.084-.065.127-.079.167-.15.34-.224.51-.067.147-.138.293-.202.443-.017.04-.031.083-.048.125l-.01.021c-.133.321-.26.644-.381.97l3.648 2.872a21.877 21.877 0 0 0-.627 2.861l-4.54 1.084a27.9 27.9 0 0 0-.07 1.041h-.001l-.002.07-.008.124c-.007.172-.005.342-.008.513-.004.177-.014.352-.014.53 0 .041.004.081.004.123l-.002.072.004.002c.003.348.01.695.026 1.04l4.494 1.263a21.877 21.877 0 0 0 .521 2.88l-3.767 2.73c.107.33.223.658.343.984l-.002.002.026.064.03.084c.037.101.08.2.12.3.087.224.17.449.264.669.154.364.32.722.49 1.078l4.606-.635a21.877 21.877 0 0 0 1.505 2.336l-2.478 3.922c.223.265.454.525.687.781v.002l.032.033.06.069c.115.124.235.241.352.363.123.13.243.262.369.389.021.021.045.04.066.062l.03.031h.002c.246.244.497.485.753.72l4.014-2.32a21.877 21.877 0 0 0 2.28 1.594l-.817 4.579c.307.161.618.316.932.466.043.02.084.045.127.065.155.073.315.139.472.209.16.072.317.148.479.217.047.02.095.037.142.056l.006.002c.32.133.645.26.971.381l2.873-3.65a21.877 21.877 0 0 0 2.857.627l1.088 4.545c.345.03.691.05 1.04.066v.002l.064.002.129.008c.172.007.342.005.513.008.177.004.352.014.53.014.041 0 .082-.004.123-.004l.072.002v-.004c.349-.003.696-.01 1.041-.026l1.266-4.496a21.877 21.877 0 0 0 2.877-.521l2.728 3.77c.332-.109.66-.222.987-.343l.025-.01c.04-.015.082-.027.123-.043.135-.05.266-.11.4-.164.19-.074.382-.143.569-.222.364-.154.724-.32 1.08-.49l-.637-4.608a21.877 21.877 0 0 0 2.338-1.506l3.922 2.48c.265-.223.526-.453.783-.687l.008-.008c.03-.028.063-.054.094-.082.129-.12.252-.245.379-.367.124-.119.251-.234.373-.355.028-.03.055-.06.084-.088l.01-.01c.244-.248.484-.5.718-.756l-2.32-4.014a21.877 21.877 0 0 0 1.592-2.277l4.58.818c.162-.307.316-.62.467-.933h.002l.01-.024c.016-.035.036-.068.052-.103.073-.155.14-.314.21-.471.072-.16.148-.318.216-.48l.043-.108.018-.041-.002-.002c.132-.32.262-.641.383-.967l-3.653-2.875a21.877 21.877 0 0 0 .627-2.857l4.545-1.086c.03-.345.052-.693.069-1.041h.002c0-.023 0-.046.002-.069l.008-.125c.007-.182.005-.363.008-.544.004-.167.011-.332.011-.499 0-.042-.004-.083-.004-.125l.002-.07h-.002a26.837 26.837 0 0 0-.025-1.04l-4.498-1.266a21.877 21.877 0 0 0-.52-2.875l3.77-2.73a26.707 26.707 0 0 0-.344-.985l.002-.002a5.284 5.284 0 0 1-.023-.063l-.031-.086c-.048-.126-.103-.25-.153-.375-.078-.198-.152-.398-.234-.593l-.059-.13c-.138-.32-.28-.637-.43-.95l-4.607.636a21.877 21.877 0 0 0-1.506-2.338l2.48-3.922a27.138 27.138 0 0 0-.687-.783l-.008-.008c-.028-.03-.054-.063-.082-.093-.12-.13-.245-.253-.367-.38-.119-.123-.234-.251-.355-.372l-.088-.084-.01-.01c-.248-.245-.5-.485-.756-.72l-4.014 2.321a21.877 21.877 0 0 0-2.277-1.594l.816-4.58a26.528 26.528 0 0 0-.931-.466l-.02-.01-.107-.053c-.159-.075-.322-.142-.483-.213-.157-.07-.312-.146-.47-.213-.035-.015-.071-.026-.106-.041l-.043-.02-.002.003c-.32-.133-.642-.263-.969-.383l-2.87 3.65a21.877 21.877 0 0 0-2.86-.627l-1.084-4.543c-.345-.03-.693-.05-1.041-.068h-.022c-.057-.003-.114-.01-.172-.012-.172-.007-.343-.005-.515-.008-.176-.004-.35-.014-.528-.014z" fill="#555"/>
<path d="M173.031 81.75a12.551 12.551 0 0 0 9.303 12.123 12.551 12.551 0 0 0 14.118-5.847 12.551 12.551 0 0 0-1.995-15.151 12.551 12.551 0 0 0-15.15-1.995" fill="none" stroke="#fff" stroke-linejoin="round" stroke-width="2.8"/>
<g transform="translate(66.124 -200.08)">
<path d="M105.453 275.44h10.468l-5.234-9.066zM27.87 352.738h-80.19v-65.35h80.19" fill="#fff"/>
<rect x="25.155" y="288.764" width="5.571" height="62.749" rx="3.889" ry="3.889" fill="#6563e1"/>
</g>
<path d="M125.067 135.706c.782-1.243 1.451-1.291 2.04-1.323.192-.016.208-.287.208-.303 0-.127-.08-.191-.207-.191-.415 0-.877.048-1.307.048-.526 0-1.068-.048-1.578-.048-.096 0-.303 0-.303.303 0 .175.143.191.255.191.43.032.733.191.733.526 0 .24-.239.59-.239.606l-4.894 7.779-1.084-8.433c0-.27.367-.478 1.1-.478.223 0 .399 0 .399-.319 0-.143-.128-.175-.223-.175-.638 0-1.323.048-1.977.048-.287 0-.59-.016-.877-.016s-.59-.032-.86-.032c-.112 0-.303 0-.303.303 0 .191.143.191.398.191.893 0 .909.143.957.542l1.259 9.835c.048.319.111.367.319.367.255 0 .318-.08.446-.287z" fill="#dd3838"/>
<path d="m20.653 332.955-8.616 6.633 8.616 6.633-1.56-4.779h17.172l-1.56 4.779 8.617-6.633-8.616-6.633 1.56 4.778H19.093z" color="#000" fill="red" style="font-feature-settings:normal;font-variant-alternates:normal;font-variant-caps:normal;font-variant-ligatures:normal;font-variant-numeric:normal;font-variant-position:normal;isolation:auto;mix-blend-mode:normal;shape-padding:0;text-decoration-color:#000;text-decoration-line:none;text-decoration-style:solid;text-indent:0;text-orientation:mixed;text-transform:none;white-space:normal" transform="translate(66.124 -200.08)"/>
<path d="M95.434 117.484h42.072" fill="none" stroke="#6261dd" stroke-linejoin="round" stroke-width="10"/>
<g transform="translate(66.124 -200.08)">
<path d="M27.87 281.272h-80.19v-65.35h80.19" fill="#fff"/>
<rect x="25.155" y="217.297" width="5.571" height="62.749" rx="3.889" ry="3.889" fill="#6563e1"/>
<path d="M58.943 264.319c.781-1.243 1.45-1.291 2.04-1.323.192-.016.208-.287.208-.303 0-.127-.08-.191-.207-.191-.415 0-.877.048-1.308.048-.526 0-1.068-.048-1.578-.048-.095 0-.303 0-.303.303 0 .175.144.191.256.191.43.032.733.191.733.526 0 .24-.24.59-.24.606l-4.893 7.779-1.084-8.433c0-.27.367-.478 1.1-.478.223 0 .398 0 .398-.319 0-.143-.127-.175-.223-.175-.637 0-1.323.048-1.976.048-.287 0-.59-.016-.877-.016s-.59-.032-.86-.032c-.112 0-.304 0-.304.303 0 .191.144.191.399.191.893 0 .908.143.956.542l1.26 9.835c.047.319.111.367.318.367.255 0 .32-.08.447-.287z" fill="#dd3838"/>
<path d="m20.653 261.488-8.616 6.633 8.616 6.633-1.56-4.779h17.172l-1.56 4.779 8.617-6.633-8.616-6.633 1.56 4.778H19.093z" color="#000" fill="red" style="font-feature-settings:normal;font-variant-alternates:normal;font-variant-caps:normal;font-variant-ligatures:normal;font-variant-numeric:normal;font-variant-position:normal;isolation:auto;mix-blend-mode:normal;shape-padding:0;text-decoration-color:#000;text-decoration-line:none;text-decoration-style:solid;text-indent:0;text-orientation:mixed;text-transform:none;white-space:normal"/>
</g>
<g stroke-linejoin="round">
<path d="M95.434 46.017h42.072" fill="none" stroke="#6261dd" stroke-width="10"/>
<g stroke-miterlimit="100000" stroke-width="1.333">
<path d="M25.627 23.363c.134-.536.21-.65.44-.708.172-.038.803-.038 1.205-.038 1.932 0 2.792.077 2.792 1.569 0 .286-.076 1.032-.153 1.53-.019.076-.057.306-.057.363 0 .115.057.249.23.249.21 0 .248-.153.286-.44l.517-3.328c.02-.077.038-.268.038-.326 0-.21-.191-.21-.516-.21H19.792c-.459 0-.478.02-.612.383l-1.147 3.366c-.02.038-.115.306-.115.345 0 .114.096.21.23.21.19 0 .21-.096.325-.402 1.033-2.965 1.53-3.309 4.36-3.309h.747c.535 0 .535.077.535.23 0 .114-.057.344-.076.401l-2.563 10.215c-.172.708-.23.918-2.276.918-.69 0-.804 0-.804.363 0 .23.21.23.325.23.517 0 1.052-.038 1.569-.038.535 0 1.09-.02 1.626-.02.535 0 1.07.02 1.587.02.555 0 1.129.038 1.665.038.19 0 .42 0 .42-.383 0-.21-.153-.21-.65-.21-.478 0-.727 0-1.224-.038-.555-.058-.708-.115-.708-.421 0-.02 0-.115.077-.402zM33.08 29.327c0-.362-.026-.375-.401-.375-.857.844-2.076.857-2.625.857v.482c.322 0 1.205 0 1.942-.375v6.829c0 .442 0 .616-1.339.616h-.509v.482a101.66 101.66 0 0 1 2.384-.054c.415 0 2.102.04 2.396.054v-.482h-.509c-1.338 0-1.338-.174-1.338-.616zM41.06 34.954c0-1.262-.478-2.008-1.224-2.008-.631 0-1.014.478-1.014 1.013 0 .517.383 1.014 1.014 1.014.23 0 .478-.076.67-.249.057-.038.076-.057.095-.057s.038.02.038.287c0 1.415-.669 2.563-1.3 3.194-.21.21-.21.25-.21.306 0 .134.095.21.19.21.211 0 1.741-1.472 1.741-3.71zM57.671 24.089c.938-1.492 1.741-1.55 2.449-1.588.23-.019.249-.344.249-.363 0-.153-.096-.23-.25-.23-.496 0-1.051.058-1.568.058-.63 0-1.281-.058-1.893-.058-.115 0-.364 0-.364.364 0 .21.172.23.306.23.517.038.88.229.88.63 0 .288-.287.708-.287.727l-5.872 9.335-1.3-10.119c0-.325.44-.574 1.319-.574.268 0 .478 0 .478-.382 0-.172-.153-.21-.268-.21-.765 0-1.587.057-2.371.057-.345 0-.708-.02-1.053-.02s-.707-.038-1.032-.038c-.134 0-.364 0-.364.364 0 .23.172.23.478.23 1.072 0 1.09.172 1.148.65l1.511 11.802c.058.382.134.44.383.44.306 0 .382-.096.535-.344zM61.26 29.327c0-.362-.027-.375-.402-.375-.857.844-2.075.857-2.624.857v.482c.321 0 1.205 0 1.941-.375v6.829c0 .442 0 .616-1.339.616h-.509v.482a101.66 101.66 0 0 1 2.384-.054c.415 0 2.102.04 2.396.054v-.482H62.6c-1.34 0-1.34-.174-1.34-.616zM25.627 133.539c.134-.536.21-.65.44-.708.172-.038.803-.038 1.205-.038 1.932 0 2.792.077 2.792 1.569 0 .286-.076 1.032-.153 1.53-.019.076-.057.306-.057.363 0 .115.057.249.23.249.21 0 .248-.153.286-.44l.517-3.328c.02-.077.038-.268.038-.326 0-.21-.191-.21-.516-.21H19.793c-.46 0-.479.02-.613.383l-1.147 3.366c-.02.038-.115.306-.115.345 0 .114.096.21.23.21.19 0 .21-.096.325-.402 1.033-2.965 1.53-3.309 4.361-3.309h.746c.536 0 .536.077.536.23 0 .114-.058.344-.077.401l-2.563 10.215c-.172.708-.23.918-2.276.918-.689 0-.804 0-.804.363 0 .23.21.23.325.23.517 0 1.052-.038 1.569-.038.536 0 1.09-.02 1.626-.02.535 0 1.071.02 1.587.02.555 0 1.129.038 1.665.038.19 0 .42 0 .42-.383 0-.21-.153-.21-.65-.21-.478 0-.727 0-1.224-.038-.555-.058-.708-.115-.708-.421 0-.02 0-.115.077-.402zM35.357 145.582h-.455c-.04.295-.175 1.085-.349 1.218-.107.08-1.138.08-1.325.08h-2.464c1.406-1.244 1.875-1.62 2.678-2.249.99-.79 1.915-1.62 1.915-2.892 0-1.62-1.42-2.61-3.133-2.61-1.66 0-2.785 1.164-2.785 2.396 0 .683.575.75.71.75.32 0 .709-.228.709-.71 0-.241-.094-.71-.79-.71.415-.95 1.325-1.245 1.955-1.245 1.339 0 2.035 1.045 2.035 2.13 0 1.164-.83 2.088-1.259 2.57l-3.227 3.187c-.133.12-.133.147-.133.522h5.516zM41.059 145.131c0-1.262-.478-2.008-1.224-2.008-.632 0-1.014.478-1.014 1.013 0 .517.382 1.014 1.014 1.014.23 0 .478-.076.67-.249.056-.038.076-.057.095-.057s.038.02.038.287c0 1.415-.67 2.563-1.3 3.194-.211.21-.211.25-.211.306 0 .134.095.21.191.21.21 0 1.74-1.472 1.74-3.71zM57.67 134.266c.937-1.492 1.74-1.55 2.448-1.588.23-.019.249-.344.249-.363 0-.153-.096-.23-.249-.23-.497 0-1.052.058-1.568.058-.631 0-1.282-.058-1.894-.058-.115 0-.363 0-.363.364 0 .21.172.23.306.23.516.038.88.229.88.63 0 .288-.287.708-.287.727l-5.873 9.335-1.3-10.119c0-.325.44-.574 1.32-.574.267 0 .478 0 .478-.382 0-.172-.153-.21-.268-.21-.765 0-1.588.057-2.372.057-.344 0-.708-.02-1.052-.02s-.708-.038-1.033-.038c-.134 0-.363 0-.363.364 0 .23.172.23.478.23 1.07 0 1.09.172 1.147.65l1.512 11.802c.057.382.133.44.382.44.306 0 .383-.096.536-.345zM63.536 145.582h-.455c-.04.295-.174 1.085-.348 1.218-.108.08-1.139.08-1.326.08h-2.464c1.406-1.244 1.875-1.62 2.678-2.249.991-.79 1.915-1.62 1.915-2.892 0-1.62-1.42-2.61-3.133-2.61-1.66 0-2.785 1.164-2.785 2.396 0 .683.575.75.71.75.32 0 .709-.228.709-.71 0-.241-.094-.71-.79-.71.415-.95 1.326-1.245 1.955-1.245 1.339 0 2.035 1.045 2.035 2.13 0 1.164-.83 2.088-1.258 2.57l-3.227 3.187c-.134.12-.134.147-.134.522h5.516z"/>
</g>
</g>
<path d="M106.419 153.058H13.702V87.159h92.717M106.419 81.592H13.702V15.693h92.717" fill="none" stroke="#555" stroke-width="3.567"/>
<path d="m-29.922 291.333 6.633 8.617 6.632-8.617-4.778 1.56V275.72l4.778 1.56-6.632-8.617-6.633 8.616 4.778-1.56v17.172z" color="#000" fill="red" style="font-feature-settings:normal;font-variant-alternates:normal;font-variant-caps:normal;font-variant-ligatures:normal;font-variant-numeric:normal;font-variant-position:normal;isolation:auto;mix-blend-mode:normal;shape-padding:0;text-decoration-color:#000;text-decoration-line:none;text-decoration-style:solid;text-indent:0;text-orientation:mixed;text-transform:none;white-space:normal" transform="translate(66.124 -200.08)"/>
<path d="M43.528 114.213c2.471-.94 4.814-3.778 4.814-6.854 0-2.567-1.69-4.288-4.064-4.288-3.444 0-6.95 3.618-6.95 7.332 0 2.646 1.785 4.256 4.08 4.256.399 0 .94-.063 1.562-.239-.063.989-.063 1.02-.063 1.228 0 .51 0 1.753 1.323 1.753 1.897 0 2.662-2.917 2.662-3.092 0-.112-.112-.16-.176-.16-.127 0-.16.08-.19.176-.384 1.131-1.308 1.53-1.866 1.53-.733 0-.972-.43-1.132-1.642zm-3.012-.127c-1.244-.495-1.786-1.738-1.786-3.173 0-1.1.415-3.363 1.626-5.085 1.164-1.625 2.662-2.359 3.826-2.359 1.594 0 2.758 1.244 2.758 3.38 0 1.594-.813 5.324-3.491 6.822-.08-.558-.24-1.721-1.403-1.721-.845 0-1.626.797-1.626 1.625 0 .32.096.495.096.51zm.988.175c-.223 0-.733 0-.733-.686 0-.637.605-1.275 1.275-1.275s.972.383.972 1.355c0 .24-.016.255-.175.319a3.542 3.542 0 0 1-1.34.287z" fill="#dd3838"/>
</svg>
