<svg width="148.558" height="102.907" xmlns="http://www.w3.org/2000/svg" xmlns:xlink="http://www.w3.org/1999/xlink">
<defs>
<path id="b" d="M2.427-3.95a.583.583 0 0 0 .075-.268c0-.26-.234-.46-.494-.46-.318 0-.418.26-.46.393L.444-.66a1.192 1.192 0 0 0-.042.134c0 .1.26.184.326.184.059 0 .067-.017.126-.142z"/>
<path id="a" d="M5.798-4.914 4.794-7.293c-.036-.095-.06-.143-.06-.155 0-.072.203-.299.706-.347.12-.012.239-.024.239-.227 0-.143-.144-.143-.18-.143-.49 0-1.004.035-1.506.035-.299 0-1.04-.035-1.339-.035-.072 0-.215 0-.215.239 0 .131.12.131.275.131.717 0 .789.12.896.383l1.411 3.335L2.5-1.363l-.156.132c-.586.633-1.147.825-1.757.86-.156.012-.263.012-.263.24 0 .011 0 .131.155.131.359 0 .753-.036 1.124-.036.442 0 .909.036 1.339.036.072 0 .215 0 .215-.24 0-.119-.12-.13-.143-.13-.108-.013-.479-.036-.479-.371 0-.192.18-.383.323-.538l1.22-1.291 1.076-1.172L6.36-.885c.048.132.06.144.06.168 0 .095-.227.299-.693.346-.132.012-.24.024-.24.228 0 .143.132.143.18.143C6 0 6.838-.036 7.173-.036 7.472-.036 8.201 0 8.5 0c.084 0 .227 0 .227-.227 0-.144-.12-.144-.215-.144-.8-.012-.825-.047-1.028-.526-.466-1.111-1.267-2.976-1.542-3.694.813-.837 2.068-2.26 2.45-2.594.347-.287.802-.574 1.519-.61.155-.012.263-.012.263-.239 0-.012 0-.131-.156-.131-.358 0-.753.035-1.123.035-.443 0-.897-.035-1.327-.035-.072 0-.228 0-.228.239 0 .083.06.12.144.131.108.012.478.036.478.37 0 .168-.131.324-.227.431z"/>
<path id="d" d="M2.427-3.95a.583.583 0 0 0 .075-.268c0-.26-.234-.46-.494-.46-.318 0-.418.26-.46.393L.444-.66a1.192 1.192 0 0 0-.042.134c0 .1.26.184.326.184.059 0 .067-.017.126-.142L2.427-3.95z"/>
<path id="c" d="M5.798-4.914 4.794-7.293c-.036-.095-.06-.143-.06-.155 0-.072.203-.299.706-.347.12-.012.239-.024.239-.227 0-.143-.144-.143-.18-.143-.49 0-1.004.035-1.506.035-.299 0-1.04-.035-1.339-.035-.072 0-.215 0-.215.239 0 .131.12.131.275.131.717 0 .789.12.896.383l1.411 3.335L2.5-1.363l-.156.132c-.586.633-1.147.825-1.757.86-.156.012-.263.012-.263.24 0 .011 0 .131.155.131.359 0 .753-.036 1.124-.036.442 0 .909.036 1.339.036.072 0 .215 0 .215-.24 0-.119-.12-.13-.143-.13-.108-.013-.479-.036-.479-.371 0-.192.18-.383.323-.538l1.22-1.291 1.076-1.172L6.36-.885c.048.132.06.144.06.168 0 .095-.227.299-.693.346-.132.012-.24.024-.24.228 0 .143.132.143.18.143C6 0 6.838-.036 7.173-.036 7.472-.036 8.201 0 8.5 0c.084 0 .227 0 .227-.227 0-.144-.12-.144-.215-.144-.8-.012-.825-.047-1.028-.526-.466-1.111-1.267-2.976-1.542-3.694.813-.837 2.068-2.26 2.45-2.594.347-.287.802-.574 1.519-.61.155-.012.263-.012.263-.239 0-.012 0-.131-.156-.131-.358 0-.753.035-1.123.035-.443 0-.897-.035-1.327-.035-.072 0-.228 0-.228.239 0 .083.06.12.144.131.108.012.478.036.478.37 0 .168-.131.324-.227.431l-1.937 2.08z"/>
<marker id="e" overflow="visible" orient="auto">
<path d="M1.96 0a2 2 0 1 1-4.001-.001A2 2 0 0 1 1.96 0z" fill-rule="evenodd" stroke="#000" stroke-width=".4pt"/>
</marker>
</defs>
<path fill="#e5e5e5" d="M.5.5h147.558v101.907H.5z"/>
<use transform="matrix(1.28 0 0 1.28 -176.888 -89.184)" x="228.784" y="88.26" width="100%" height="100%" stroke-width=".651" xlink:href="#a"/>
<rect x="6.5" y="40.389" width="88.626" height="56.018" rx="10.253" ry="10.253" fill="#bebebe"/>
<g transform="matrix(1.3 0 0 1.3 -240.99 -20.133)" stroke-width=".651">
<use x="228.784" y="88.26" width="100%" height="100%" xlink:href="#a"/>
<use x="239.59" y="83.324" width="100%" height="100%" xlink:href="#b"/>
</g>
<g transform="matrix(1.3 0 0 1.3 -278.346 -51.704)" stroke-width="1.042">
<use x="228.784" y="88.26" width="100%" height="100%" xlink:href="#c"/>
<use x="239.59" y="83.324" width="100%" height="100%" xlink:href="#d"/>
<use x="242.336" y="83.324" width="100%" height="100%" xlink:href="#d"/>
</g>
<path d="M37.808 44.53C47.811 66.404 65.444 68.45 76.471 82.864c1.9 2.485 4.634 8.162 4.634 8.162" fill="none" stroke="red" stroke-linecap="round" stroke-width="2"/>
<path d="M76.47 82.863c22.053-.319 50.863-5.072 54.404-55.43-18.105 3.698-54.117 2.018-88.142 25.765" fill="none" marker-end="url(#e)" marker-mid="url(#e)" marker-start="url(#e)" stroke="#000" stroke-dasharray="2.10000042, 2.10000042" stroke-width=".7"/>
</svg>
