<svg width="223.677" height="97.751" xmlns="http://www.w3.org/2000/svg" xmlns:xlink="http://www.w3.org/1999/xlink">
<defs>
<path id="a" d="M2.439 0c2.785 0 6.719-2.128 6.719-5.392 0-1.064-.502-1.733-1.088-2.104-1.028-.67-2.128-.67-3.264-.67-1.028 0-1.734 0-2.738.431C.478-7.03.251-6.037.251-5.942c0 .072.048.096.12.096.19 0 .466-.167.562-.227.25-.168.286-.24.358-.466.168-.479.502-.897 2.009-.969-.192 2.499-.801 4.782-1.638 6.874-.443.156-.73.43-.73.55 0 .072.012.084.275.084H2.44zm.06-.658c1.363-3.335 1.614-5.415 1.78-6.85.802 0 3.862 0 3.862 2.63 0 2.343-2.104 4.22-4.997 4.22H2.5z"/>
</defs>
<g transform="translate(77.553 -238.437)">
<path d="M-77.053 238.937v96.75h222.677v-96.75z" color="#000" fill="#e5e5e5" style="font-feature-settings:normal;font-variant-alternates:normal;font-variant-caps:normal;font-variant-ligatures:normal;font-variant-numeric:normal;font-variant-position:normal;isolation:auto;mix-blend-mode:normal;shape-padding:0;text-decoration-color:#000;text-decoration-line:none;text-decoration-style:solid;text-indent:0;text-orientation:mixed;text-transform:none;white-space:normal"/>
<path d="M10.384 319.862h-71.44v-65.35h71.44" fill="#fff"/>
<path d="M31.558 320.262H-61.16v-65.899h92.717" fill="none" stroke="#555" stroke-width="3.567"/>
<g stroke-linejoin="round" stroke-miterlimit="100000" stroke-width="1.333">
<path d="M-43.618 264.728c.134-.536.21-.65.44-.708.172-.038.803-.038 1.205-.038 1.932 0 2.793.077 2.793 1.569 0 .286-.077 1.032-.153 1.53-.02.076-.058.306-.058.363 0 .115.058.249.23.249.21 0 .248-.153.287-.44l.516-3.328c.02-.077.038-.268.038-.326 0-.21-.19-.21-.516-.21h-10.616c-.46 0-.479.02-.612.383l-1.148 3.366c-.02.038-.115.306-.115.345 0 .114.096.21.23.21.19 0 .21-.096.325-.402 1.033-2.965 1.53-3.309 4.361-3.309h.746c.536 0 .536.077.536.23 0 .114-.058.344-.077.401l-2.563 10.215c-.172.708-.23.918-2.276.918-.689 0-.804 0-.804.363 0 .23.21.23.326.23.516 0 1.052-.038 1.568-.038.536 0 1.09-.02 1.626-.02.536 0 1.071.02 1.588.02.554 0 1.128.038 1.664.038.191 0 .42 0 .42-.383 0-.21-.152-.21-.65-.21-.478 0-.727 0-1.224-.038-.555-.058-.708-.115-.708-.421 0-.02 0-.115.077-.402zM-35.172 276.32c0-1.262-.478-2.008-1.224-2.008-.631 0-1.014.478-1.014 1.013 0 .517.383 1.014 1.014 1.014.23 0 .478-.076.67-.249.057-.038.076-.057.095-.057.02 0 .038.02.038.287 0 1.415-.67 2.563-1.3 3.194-.21.21-.21.25-.21.306 0 .134.095.21.19.21.21 0 1.741-1.472 1.741-3.71zM-18.56 265.455c.937-1.492 1.74-1.55 2.448-1.588.23-.019.248-.344.248-.363 0-.153-.095-.23-.248-.23-.498 0-1.052.058-1.569.058-.631 0-1.281-.058-1.894-.058-.114 0-.363 0-.363.364 0 .21.172.23.306.23.517.038.88.229.88.63 0 .288-.287.708-.287.727l-5.872 9.335-1.301-10.119c0-.325.44-.574 1.32-.574.268 0 .478 0 .478-.382 0-.172-.153-.21-.268-.21-.765 0-1.587.057-2.372.057-.344 0-.707-.02-1.052-.02-.344 0-.707-.038-1.033-.038-.134 0-.363 0-.363.364 0 .23.172.23.478.23 1.071 0 1.09.172 1.148.65l1.511 11.802c.057.382.134.44.383.44.306 0 .382-.096.535-.344z"/>
</g>
<rect x="6.419" y="255.888" width="5.571" height="62.749" rx="3.889" ry="3.889" fill="#6563e1"/>
<path d="M40.206 302.91c.782-1.243 1.451-1.291 2.04-1.323.192-.016.208-.287.208-.303 0-.127-.08-.191-.207-.191-.415 0-.877.048-1.307.048-.526 0-1.068-.048-1.578-.048-.096 0-.303 0-.303.303 0 .175.143.191.255.191.43.032.733.191.733.526 0 .24-.239.59-.239.606l-4.894 7.779-1.084-8.433c0-.27.367-.478 1.1-.478.223 0 .399 0 .399-.319 0-.143-.128-.175-.223-.175-.638 0-1.323.048-1.977.048-.287 0-.59-.016-.877-.016s-.59-.032-.86-.032c-.112 0-.303 0-.303.303 0 .191.143.191.398.191.893 0 .909.143.957.542l1.259 9.835c.048.319.111.367.319.367.255 0 .318-.08.446-.287z" fill="#dd3838"/>
<path d="m1.916 300.079-8.616 6.633 8.616 6.633-1.559-4.779h17.171l-1.559 4.779 8.617-6.633-8.617-6.633 1.56 4.778H.356z" color="#000" fill="red" style="font-feature-settings:normal;font-variant-alternates:normal;font-variant-caps:normal;font-variant-ligatures:normal;font-variant-numeric:normal;font-variant-position:normal;isolation:auto;mix-blend-mode:normal;shape-padding:0;text-decoration-color:#000;text-decoration-line:none;text-decoration-style:solid;text-indent:0;text-orientation:mixed;text-transform:none;white-space:normal"/>
<path d="M40.93 285.756h57.26" fill="none" stroke="#555" stroke-dasharray="3, 3" stroke-linejoin="round" stroke-width="1.5"/>
<path d="M108.191 259.521c-.054 0-.108.003-.162.004h-.033v.002c-.349.003-.696.011-1.041.027l-1.266 4.495a21.877 21.877 0 0 0-2.877.52l-2.728-3.769c-.331.108-.66.224-.985.344l-.002-.002-.049.02c-.033.012-.068.022-.101.035-.138.052-.273.111-.41.166-.187.074-.375.143-.559.22-.044.019-.085.04-.129.06-.32.137-.636.28-.95.429l.636 4.605a21.877 21.877 0 0 0-2.338 1.508l-3.92-2.48a27.06 27.06 0 0 0-.783.687l-.008.008c-.031.028-.064.054-.094.082-.147.136-.29.279-.434.418-.105.102-.214.201-.318.305l-.06.064-.036.034v.002a26.77 26.77 0 0 0-.716.753l2.318 4.012a21.877 21.877 0 0 0-1.594 2.28l-4.578-.817c-.162.307-.316.618-.467.932-.02.043-.044.084-.064.127-.08.167-.15.34-.225.51-.066.147-.138.293-.2.443-.018.04-.033.083-.05.125l-.01.021c-.133.321-.26.644-.38.97l3.648 2.872a21.877 21.877 0 0 0-.627 2.861l-4.541 1.084a27.9 27.9 0 0 0-.068 1.041h-.002l-.002.07-.008.124c-.007.172-.005.342-.008.513-.004.177-.014.352-.014.53 0 .041.004.081.004.123l-.002.072.004.002c.003.348.009.695.025 1.04l4.494 1.263a21.877 21.877 0 0 0 .522 2.88l-3.768 2.73c.108.33.224.658.344.984l-.002.002.025.064.03.084c.038.101.081.2.12.3.088.224.171.449.265.669.154.364.32.722.49 1.078l4.605-.635a21.877 21.877 0 0 0 1.506 2.336l-2.478 3.922c.223.265.454.525.687.781v.002l.031.033.06.069c.115.124.235.241.352.363.124.13.243.262.37.389l.066.062.03.031h.001c.247.244.498.485.754.72l4.014-2.32a21.877 21.877 0 0 0 2.28 1.594l-.817 4.579c.306.161.618.316.931.466.043.02.084.045.127.065.156.073.315.139.473.209.16.072.317.148.478.217.047.02.096.037.143.056l.006.002c.32.133.644.26.97.381l2.874-3.65a21.877 21.877 0 0 0 2.857.627l1.088 4.545c.345.03.69.05 1.039.066v.002l.064.002.13.008c.171.007.342.005.513.008.177.004.352.014.53.014.04 0 .081-.004.122-.004l.073.002v-.004c.348-.003.695-.01 1.04-.026l1.266-4.496a21.877 21.877 0 0 0 2.877-.521l2.729 3.77c.331-.109.66-.222.986-.343l.025-.01c.041-.015.083-.027.124-.043.135-.05.266-.11.4-.164.19-.074.381-.143.568-.222.365-.154.725-.32 1.08-.49l-.636-4.608a21.877 21.877 0 0 0 2.338-1.506l3.921 2.48c.266-.223.527-.453.784-.687l.008-.008c.03-.028.063-.054.093-.082.13-.12.253-.245.38-.367.123-.119.25-.234.372-.355l.084-.088.01-.01c.244-.248.484-.5.719-.756l-2.32-4.014a21.877 21.877 0 0 0 1.591-2.277l4.58.818c.163-.307.317-.62.467-.933h.002l.01-.024c.017-.035.037-.068.053-.103.073-.155.14-.314.21-.471.071-.16.147-.318.216-.48l.043-.108.017-.041-.002-.002c.133-.32.263-.641.383-.967l-3.652-2.875a21.877 21.877 0 0 0 .627-2.857l4.545-1.086c.03-.345.051-.693.068-1.041h.002l.002-.069.008-.125c.007-.182.005-.363.008-.544.004-.167.012-.332.012-.499 0-.042-.004-.083-.004-.125l.002-.07h-.002a26.837 26.837 0 0 0-.026-1.04l-4.498-1.266a21.877 21.877 0 0 0-.52-2.875l3.77-2.73a26.707 26.707 0 0 0-.343-.985l.002-.002a5.284 5.284 0 0 1-.024-.063l-.03-.086c-.049-.126-.103-.25-.153-.375-.078-.198-.152-.398-.235-.593-.018-.044-.04-.086-.058-.13-.138-.32-.28-.637-.43-.95l-4.607.636a21.877 21.877 0 0 0-1.506-2.338l2.48-3.922a27.138 27.138 0 0 0-.687-.783l-.008-.008c-.028-.03-.054-.063-.082-.093-.12-.13-.245-.253-.367-.38-.12-.123-.234-.251-.356-.372-.028-.03-.059-.056-.088-.084l-.01-.01c-.247-.245-.5-.485-.756-.72l-4.013 2.321a21.877 21.877 0 0 0-2.278-1.594l.817-4.58a26.528 26.528 0 0 0-.932-.466l-.02-.01c-.035-.018-.07-.036-.107-.053-.158-.075-.322-.142-.482-.213-.157-.07-.312-.146-.47-.213-.036-.015-.072-.026-.106-.041l-.043-.02-.002.003c-.32-.133-.643-.263-.97-.383l-2.87 3.65a21.877 21.877 0 0 0-2.86-.627l-1.084-4.543c-.345-.03-.692-.05-1.04-.068h-.022c-.058-.003-.114-.01-.172-.012-.172-.007-.344-.005-.516-.008-.175-.004-.35-.014-.527-.014z" fill="#555"/>
<path d="M95.695 285.756a12.551 12.551 0 0 0 9.303 12.123 12.551 12.551 0 0 0 14.118-5.847 12.551 12.551 0 0 0-1.994-15.151 12.551 12.551 0 0 0-15.151-1.995" fill="none" stroke="#fff" stroke-linejoin="round" stroke-width="2.8"/>
<path d="M94.241 279.365h10.469l-5.234-9.066z" fill="#fff"/>
<path d="M10.572 284.687h42.073" fill="none" stroke="#6261dd" stroke-linejoin="round" stroke-width="10"/>
<use x="220.859" y="88.26" width="100%" height="100%" xlink:href="#a" transform="matrix(1.6 0 0 1.6 -231.913 183.329)" stroke-width=".833"/>
</g>
</svg>
