<svg width="238.472" height="199.39" viewBox="0 0 238.471 199.39" xmlns="http://www.w3.org/2000/svg">
<path d="M116.317 146.889h78.94" fill="none" stroke="#555" stroke-dasharray="2.95997937, 2.95997937" stroke-linejoin="round" stroke-width="1.52"/>
<path d="M209.04 117.962h-1.411l-1.323 5.028a17.041 17.041 0 0 0-3.176.529l-3.087-4.146c-.353.089-.705.265-1.058.353l-.088.088h-.089c-.176.089-.264.089-.44.177-.177.088-.442.176-.618.264 0 0-.088 0-.088.089-.353.088-.706.264-1.059.44l.706 5.028c-.97.53-1.764 1.059-2.646 1.676l-4.322-2.734-.794.794h-.088s0 .088-.089.088c-.176.176-.264.353-.44.44-.089.177-.265.265-.353.354l-.089.088c-.264.265-.529.618-.794.882l2.558 4.41c-.705.794-1.235 1.588-1.764 2.47l-5.027-.882-.53 1.058c-.088 0-.088.089-.088.089-.088.176-.176.44-.264.617-.089.176-.177.265-.177.441-.088.088-.088.088-.088.176-.176.353-.265.706-.44 1.059l4.056 3.175c-.353 1.058-.529 2.117-.705 3.175l-5.028 1.147c0 .44-.088.794-.088 1.147v2.734l4.94 1.411c.176 1.059.352 2.117.617 3.176l-4.146 2.998c.088.353.265.794.353 1.147l.088.088c0 .177.089.265.089.353.088.265.176.53.353.794.176.353.353.794.529 1.147l5.027-.706c.53.882 1.059 1.764 1.676 2.558l-2.734 4.322c.265.353.53.617.794.882v.088h.088c.088.176.265.265.353.441l.441.441.088.089c.265.264.53.529.882.793l4.41-2.558c.794.618 1.588 1.235 2.47 1.765l-.882 5.027 1.059.53.088.088c.176.088.353.176.53.176l.528.264c.089 0 .089.089.177.089.353.176.705.264 1.058.44l3.175-4.056c1.059.264 2.117.529 3.176.705l1.146 5.028h1.147c.088 0 .088 0 .088.088h1.5c.44 0 .794 0 1.146-.088l1.412-4.94a19.9 19.9 0 0 0 3.175-.529l2.999 4.146c.353-.089.705-.265 1.058-.353.088 0 .088 0 .088-.089h.089c.176-.088.353-.088.44-.176.265-.088.442-.176.618-.264.441-.177.794-.353 1.235-.53l-.706-5.115c.882-.441 1.764-1.059 2.558-1.588l4.322 2.734c.353-.264.618-.529.882-.794l.088-.088.441-.44c.177-.09.265-.266.442-.354 0-.088 0-.088.088-.088.264-.265.529-.618.794-.882l-2.558-4.41a42.797 42.797 0 0 0 1.764-2.47l5.027.882.53-1.058c0-.089 0-.089.088-.177s.088-.264.176-.44l.265-.53v-.176h.088c.088-.353.265-.706.353-1.059l-3.97-3.175c.265-1.058.53-2.117.706-3.175l4.94-1.235c.088-.353.088-.706.088-1.147v-.176c.088-.176.088-.44.088-.617v-.794c0-.353 0-.706-.088-1.147l-4.94-1.323a19.894 19.894 0 0 0-.529-3.175l4.146-2.999c-.176-.44-.265-.794-.441-1.146v-.177c-.088-.088-.176-.265-.176-.353-.089-.265-.177-.441-.265-.706l-.088-.088c-.177-.353-.265-.706-.441-1.058l-5.116.705c-.441-.882-1.058-1.764-1.676-2.558l2.734-4.322c-.176-.353-.44-.617-.705-.882-.088-.088-.088-.088-.088-.176-.177-.088-.265-.264-.441-.353-.089-.176-.265-.264-.353-.44-.089 0-.089-.09-.089-.09h-.088l-.794-.793-4.41 2.558a26.257 26.257 0 0 0-2.558-1.764l.97-5.028-1.058-.529c-.088 0-.088-.088-.176-.088l-.53-.265c-.176 0-.352-.088-.529-.176 0 0 0-.088-.088-.088-.353-.177-.706-.265-1.147-.441l-3.087 4.057c-1.058-.353-2.116-.53-3.175-.706l-1.235-5.027c-.353 0-.705 0-1.146-.089h-1.323z" fill="#555"/>
<path d="M195.28 146.889c0 6.262 4.146 11.73 10.231 13.319 5.998 1.675 12.437-.97 15.524-6.44a13.636 13.636 0 0 0-2.205-16.67c-4.41-4.41-11.202-5.292-16.67-2.204" fill="none" stroke="#fff" stroke-linejoin="round" stroke-width="2.24"/>
<path d="M193.605 139.835h11.555l-5.734-9.967z" fill="#fff"/>
<path d="M38.643 23.312V166.11h36.108v-45.69c.001 21.111 17.116 38.225 38.228 38.225h30.349v-23.51h-30.349c-8.127 0-14.715-6.589-14.715-14.716V23.312z" fill="#b0cbb0"/>
<g stroke-width="1.333">
<path d="M16.752 149.767c2.965-1.129 5.777-4.533 5.777-8.225 0-3.08-2.028-5.146-4.878-5.146-4.132 0-8.34 4.342-8.34 8.8 0 3.175 2.143 5.107 4.897 5.107.478 0 1.129-.077 1.875-.287-.077 1.186-.077 1.224-.077 1.473 0 .612 0 2.104 1.588 2.104 2.276 0 3.194-3.5 3.194-3.711 0-.134-.133-.191-.21-.191-.153 0-.191.095-.23.21-.459 1.358-1.568 1.836-2.238 1.836-.88 0-1.166-.516-1.358-1.97zm-3.615-.153c-1.492-.593-2.142-2.085-2.142-3.807 0-1.32.497-4.036 1.95-6.102 1.397-1.95 3.195-2.83 4.591-2.83 1.913 0 3.31 1.491 3.31 4.055 0 1.913-.976 6.389-4.19 8.187-.095-.67-.286-2.066-1.683-2.066-1.014 0-1.95.956-1.95 1.95 0 .383.114.594.114.613zm1.186.21c-.268 0-.88 0-.88-.822 0-.765.727-1.53 1.53-1.53s1.167.459 1.167 1.626c0 .286-.019.306-.21.382a4.249 4.249 0 0 1-1.607.344zM32.157 149.226h-.455c-.147 1.312-.348 3.04-2.879 3.04h-1.339c-.629 0-.642-.107-.642-.523V144.7c0-.442 0-.616 1.258-.616h.469v-.482c-.281.015-1.995.054-2.343.054-.509 0-2.022-.054-2.035-.054v.482h.32c1.032 0 1.059.134 1.059.603v6.976c0 .455-.027.602-1.058.602h-.321v.483h7.565z" fill="#00f"/>
<path d="M16.755 59.172c2.965-1.129 5.776-4.534 5.776-8.225 0-3.08-2.027-5.146-4.877-5.146-4.132 0-8.34 4.342-8.34 8.799 0 3.175 2.142 5.107 4.897 5.107.478 0 1.128-.076 1.874-.287-.076 1.186-.076 1.225-.076 1.473 0 .612 0 2.104 1.588 2.104 2.276 0 3.194-3.5 3.194-3.71 0-.134-.134-.192-.21-.192-.154 0-.192.096-.23.21-.46 1.359-1.569 1.837-2.238 1.837-.88 0-1.167-.516-1.358-1.97zm-3.616-.153c-1.492-.593-2.142-2.085-2.142-3.807 0-1.32.497-4.036 1.951-6.102 1.397-1.95 3.195-2.83 4.591-2.83 1.913 0 3.31 1.491 3.31 4.054 0 1.913-.976 6.39-4.19 8.187-.096-.67-.287-2.066-1.683-2.066-1.014 0-1.951.957-1.951 1.952 0 .382.115.593.115.612zm1.186.21c-.268 0-.88 0-.88-.822 0-.765.727-1.53 1.53-1.53s1.168.458 1.168 1.625c0 .287-.02.306-.21.383a4.249 4.249 0 0 1-1.608.344zM32.587 54.092c0-.455.027-.603 1.058-.603h.321v-.482c-.67.027-1.526.054-2.008.054-.496 0-1.353-.026-2.022-.054v.482h.321c1.031 0 1.058.134 1.058.603v3.066h-4.472v-3.066c0-.455.026-.603 1.057-.603h.322v-.482c-.67.027-1.527.054-2.009.054-.495 0-1.352-.026-2.022-.054v.482h.322c1.03 0 1.057.134 1.057.603v6.976c0 .455-.026.603-1.057.603h-.322v.482c.67-.027 1.527-.054 2.009-.054.495 0 1.352.026 2.022.054v-.482H27.9c-1.03 0-1.057-.134-1.057-.603V57.64h4.472v3.428c0 .455-.027.603-1.058.603h-.321v.482c.67-.027 1.526-.054 2.008-.054.496 0 1.353.026 2.022.054v-.482h-.321c-1.031 0-1.058-.134-1.058-.603z" fill="red"/>
</g>
<path d="M140.822 121.309c.478-.842.937-1.53 2.142-1.626.173-.019.364-.019.364-.382a.229.229 0 0 0-.23-.21c-.459 0-.994.057-1.473.057-.65 0-1.358-.058-1.989-.058-.115 0-.363 0-.363.364 0 .21.172.23.286.23.46.018 1.13.171 1.13.745 0 .21-.097.364-.25.631l-5.164 9.01-.708-9.488c-.02-.382-.057-.88 1.339-.899.325 0 .516 0 .516-.382 0-.192-.21-.21-.286-.21-.766 0-1.569.057-2.334.057-.44 0-1.569-.058-2.009-.058-.114 0-.363 0-.363.383 0 .21.191.21.46.21.84 0 .975.115 1.013.478l.115 1.473-4.84 8.436-.727-9.698c0-.23 0-.67 1.454-.689.191 0 .402 0 .402-.382 0-.21-.23-.21-.268-.21-.765 0-1.569.057-2.353.057-.67 0-1.358-.058-2.008-.058-.096 0-.345 0-.345.364 0 .23.173.23.479.23.956 0 .975.171 1.013.707l.861 11.687c.02.345.038.498.306.498.23 0 .287-.115.46-.402l5.623-9.756.708 9.66c.038.402.076.498.306.498.248 0 .363-.192.459-.364z" fill="green"/>
<path fill="#e2e2f1" d="M.502 164.093h121.43v34.799H.502z"/>
<path d="M.502 164.093h121.43v34.8" fill="none" stroke="#2f2f76"/>
<g fill="#2f2f76" stroke-width="3.15">
<path d="M80.84 189.673v-8.46q-.774 1.429-1.68 2.499l-.735-.617q2.758-4.188 3.524-7.735l1.226.196q-.531 1.844-1.687 4.375h.547v9.742zm2.007-2.469-.164-1.008q.313-.046 1.25-.21v-9.258q1.25-.015 4.102-.422 2.859-.406 4.078-.797l.586.977q-.813.218-3.024.546-.015.664-.015 1.164 0 1.102.055 2.141h3.687v.977h-3.625q.25 3.054 1.157 4.922.906 1.859 1.445 1.859.351 0 .43-.524.085-.523.187-1.945l.977.14q-.086 2.087-.336 2.891-.243.805-1.063.805-.437 0-.867-.266t-1.023-.984q-.594-.727-1.079-1.867-.476-1.14-.71-2.578-.235-1.438-.329-2.453H85.13v4.46q2.273-.43 3.219-.671l.062.976q-.695.242-5.562 1.125zm2.281-9.625v2.758h3.375q-.047-1.047-.047-3.133-2.101.281-3.328.375zm-1.484 11.602v-.992h5.992v.992zM98.044 178.493q-1.266-1.148-2.532-2.102l.82-.82q1.743 1.258 2.532 1.992zm1.71 3.297v-5.922h8.524v5.922zm1.18-3.43h6.188v-1.562h-6.188zm6.188.899h-6.188v1.586h6.188zm-10.125 2.968q-1.086-1.039-2.563-2.086l.79-.882q1.515 1.086 2.593 2.007zm1.21 6.97v-.977h.993v-5.055h9.766v5.055h.914v.976zm2.22-.977h1.664v-4.125h-1.665zm2.804 0h1.633v-4.125h-1.633zm2.781 0h1.727v-4.125h-1.727zm-10.203.96-1.047-.718q.641-.782 1.493-2.414.859-1.641 1.265-2.774l1.047.39q-.281 1.009-1.133 2.696-.851 1.688-1.625 2.82z"/>
</g>
<path fill="#efe3e3" d="M.502 35.301h121.43V.502H.502z"/>
<path d="M.502 35.3h121.43V.503" fill="none" stroke="#b32d38"/>
<g fill="#b32d38" stroke-width="3.15">
<path d="M79.006 13.856v-.914h6.516v-1.11h1.32v1.11h6.594v.914zm2.125 4.148v-2.977H91.46v2.977zm9.172-2.172h-8V17.2h8zm1.274 10.102h-1.813l-.164-1.032h1.422q.617 0 .617-.523v-4.305H80.873v5.953h-1.242v-6.851h13.25v5.664q0 .5-.367.797-.36.297-.938.297zm-7.493-1.422v.39h-1.14v-3.687h6.578v3.297zm4.274-2.477h-4.274v1.625h4.274zM98.044 14.952q-1.266-1.149-2.532-2.102l.82-.82q1.743 1.258 2.532 1.992zm1.71 3.297v-5.922h8.524v5.922zm1.18-3.43h6.188v-1.563h-6.188zm6.188.898h-6.188v1.586h6.188zm-10.125 2.97q-1.086-1.04-2.563-2.087l.79-.883q1.515 1.086 2.593 2.008zm1.21 6.968v-.977h.993v-5.054h9.766v5.054h.914v.977zm2.22-.977h1.664v-4.125h-1.665zm2.804 0h1.633v-4.125h-1.633zm2.781 0h1.727v-4.125h-1.727zm-10.203.961-1.047-.719q.641-.78 1.493-2.414.859-1.64 1.265-2.773l1.047.39q-.281 1.008-1.133 2.696-.851 1.687-1.625 2.82z"/>
</g>
<path d="m68.452 57.738-29.81 24.227V121.4h59.621V81.965z" fill="#458547"/>
<g fill="#fff" stroke-width="3.15">
<path d="M60.006 93.636h-7.362q-.816 0-1.44-.15-.615-.143-1.045-.437-.422-.3-.659-.773-.229-.48-.229-1.561V81.77h1.218v4.462q6.051-1.125 8.522-2.278l.601 1.089q-1.124.487-4.06 1.196-2.936.709-5.063.988v3.387q0 .78.164 1.16.172.38.752.566.58.18 1.562.18h7.04zM74.415 88.659H62.57v-1.06h11.845zM89.812 88.946l-.752.996q-1.49-.996-3.559-1.956-2.07-.96-3.688-1.446v7.598h-1.275v-12.54h1.29v3.839q4.246 1.275 7.984 3.51zM54.535 112.364h-1.26v-8.801h-5.909v-1.024h5.909v-2.407h1.26v2.407H60.3v1.024h-5.765zm6.56-1.74-.974.773q-1.16-1.088-2.163-2.886-1.002-1.797-1.425-3.23l1.167-.25q.989 3.05 3.395 5.593zm-9.783-5.3q-1.11 3.739-3.788 6.059l-.867-.688q1.397-1.317 2.256-2.893.867-1.583 1.132-2.7zm5.923-4.812v-.023q0-.644.473-1.081.48-.437 1.11-.437.701 0 1.145.458.452.451.452 1.053 0 .687-.48 1.124-.48.43-1.089.43-.702 0-1.16-.458-.451-.466-.451-1.067zm2.628 0v-.03q0-.409-.315-.71-.315-.3-.73-.3-.401 0-.717.308-.308.3-.308.716 0 .415.308.723t.717.308q.422 0 .73-.293.315-.301.315-.724zM68.865 103.433l-.81.938q-2.556-1.575-5.098-2.657l.616-.895q2.678 1.003 5.292 2.614zm6.245 1.819q-1.203 2.098-3.123 3.63-1.919 1.526-3.996 2.278-2.07.745-4.877 1.046l-.25-1.103q2.334-.236 4.182-.852 1.848-.623 3.13-1.497 1.289-.88 2.17-1.74.88-.867 1.783-2.378zM87.907 101.785q-.265 3.258-1.303 5.335-1.031 2.077-3.423 3.48-2.392 1.404-5.908 1.762l-.294-1.08q3.745-.359 6.538-2.336 2.8-1.976 3.108-6.803h-9.81v-1.06H87.22q-.143-.293-.15-.666 0-.63.458-1.067.465-.437 1.153-.451.644 0 1.096.437.458.437.472 1.103 0 .637-.458 1.074-.459.437-1.11.451-.43 0-.774-.18zm.745-.33q.416 0 .724-.293.315-.294.315-.716 0-.43-.308-.738-.301-.308-.73-.308-.416 0-.724.308-.308.3-.308.716t.3.723q.309.308.731.308z"/>
</g>
<path d="M68.454 54.354 38.643 78.581v2.476l29.81-24.229 29.811 24.229V78.58z" fill="#458547"/>
<path d="M68.454 50.027 38.643 74.254v2.476L68.453 52.5 98.264 76.73v-2.476z" fill="#458547"/>
</svg>
