<svg width="230.338" height="210.2" viewBox="0 0 230.337 210.2" xmlns="http://www.w3.org/2000/svg">
<defs>
<marker id="a" overflow="visible" orient="auto">
<path d="m-4 0-2 2 7-2-7-2z" fill="red" fill-rule="evenodd" stroke="red" stroke-width=".4pt"/>
</marker>
</defs>
<path fill="#efe3e3" stroke="#b32d38" d="M37.698 27.299h20.244v28.226H37.698z"/>
<path fill="#e2e2f1" stroke="#2f2f76" d="M148.512 154.675h69.849v30.226h-69.849z"/>
<g aria-label="断熱膨張">
<path d="m27.929 70.486-.462-.462q1.523-1.726 2.116-3.373h-1.79v-.69h1.887v-3.743h.82v3.743h1.778v.69h-1.7q.626 1.088 1.772 2.162l-.463.599q-.872-.95-1.386-1.739v3.835h-.82v-3.47q-.834 1.57-1.752 2.448zm7.845 3.418v-6.79H34.16v.397q0 4.433-1.699 6.517l-.683-.437q1.386-1.972 1.386-5.52v-4.805q2.442-.371 4.245-1.035l.462.748q-1.419.508-3.71.899v2.474h3.984v.762H36.77v6.79zm-3.776-1.087h-4.844v.58h-.911V62.614h.911v9.44h4.844zm-.208-7.565-.664-.098.475-2.2.749.097zm-3.438.026-.423-2.149.69-.137.436 2.181zM35.019 82.465q-.293-.319-.762-.735-.592 1.438-2.11 2.701l-.585-.566q1.36-1.061 1.947-2.793-.606-.514-1.12-.912l.534-.566q.24.182.813.625.111-.58.111-1.198v-.8h-1.335v-.736h1.335V75.55h1.01v1.934h1.965v3.834q0 .651.124 1.328.13.678.469.678.202 0 .286-.293.085-.293.157-1.348l.67.124q-.052 1.237-.143 1.64-.091.397-.371.612-.274.215-.586.222-.788 0-1.146-.873-.358-.879-.384-2.689v-2.5h-1.1q0 1.576-.26 2.644.807.664 1.08.97zm-9.14-1.556-.248-.58q1.569-.494 1.96-1.718h-1.602v-.703h2.513v-.86h-2.135v-.69h2.135v-.696h.938v.696h2.174v.69H29.44v.86h2.434v.703h-1.783v.885q0 .339.436.339h.547q.449 0 .449-.417v-.332l.664.059v.54q0 .28-.15.462t-.338.248q-.19.058-.651.058-.944 0-1.146-.026-.196-.032-.397-.214-.202-.19-.202-.43V78.61h-.853q-.286.918-1.022 1.523-.736.6-1.55.775zm5.735 2.748q-1.12.22-5.56.71l-.176-.847q.964-.059 2.572-.221v-1.244h-2.135v-.723h2.135v-.885h.937v.885h2.188v.723h-2.188v1.14q1.498-.17 2.24-.287zm5.254 3.47q-.957-1.752-1.51-2.487l.885-.397q.228.286.82 1.21t.782 1.296zm-6.882.084q-.214-1.178-.657-2.37l.97-.201q.553 1.666.703 2.363zm3.275 0q-.13-.462-.898-2.317l.937-.254q.67 1.289.983 2.324zm-6.595.117-.86-.462q.964-1.048 1.524-2.174l.899.286q-.202.475-.743 1.283-.54.807-.82 1.067zM30.383 92.57v-.704h1.484v-1.172h-1.823v-.722h1.823v-1.074h.977v1.074h1.823v.722h-1.823v1.172h1.458v.703zm4.844-.13-.56-.671q1.77-1.361 2.598-2.676l.859.449q-.508.736-1.354 1.57-.84.832-1.543 1.327zm-6.524 3.313h-1.465q-.182 3.184-1.184 4.87l-.697-.378q.436-.86.716-2.383t.28-3.086V89.21h3.249v10.527q0 .365-.28.593t-.742.228h-1.036l-.104-.788h.801q.462 0 .462-.397zm-1.425-3.659h1.425v-2.187h-1.425zm-.013 2.969h1.438v-2.26h-1.425v1.622q0 .137-.013.638zm7.949 1.1-.547-.625q.56-.404 1.601-1.452 1.049-1.054 1.38-1.634l.801.501q-.54.788-1.543 1.765-1.002.97-1.692 1.445zm-4.805.098v-2.748h3.835v2.748zm2.956-2.123h-2.097v1.478h2.097zm1.614 6.446-.586-.625q1.01-.762 1.901-1.79.899-1.036 1.355-1.791l.826.534q-1.223 2.018-3.496 3.672zm-4.882-.371-.137-.788.963-.11-.442-2.351.853-.137.416 2.37 1.042-.15.423-2.285.866.124-.495 2.038q.651-.105 1.016-.176l.026.735q-1.029.293-4.531.73zM30.578 113.982l-.189-.833q.488-.033 1.074-.104v-4.219h-1.035v-.749h1.035v-5.423h6.042v.716h-5.072v1.1h4.675v.723h-4.675v.983h4.675v.716h-4.675v1.185h5.56v.749H34.83q.313 1.061.84 1.836.97-.723 1.524-1.335l.703.586q-.788.684-1.771 1.341.937 1.16 2.129 1.934l-.645.736q-1.367-.899-2.363-2.253-.99-1.36-1.393-2.845h-1.42v4.082q1.25-.189 2.774-.462l.039.775q-1.751.416-4.668.761zm-3.438-7.702-.097 1.96h2.747q0 1.888-.078 3.034-.072 1.146-.137 1.51-.058.358-.267.6-.201.24-.527.396t-.592.176q-.267.026-1.621.026l-.124-.911h1.198q.41 0 .65-.163.248-.17.313-.45t.118-1.04q.052-.763.052-1.707 0-.54-.013-.761h-1.823v.351l-.899.013.176-3.75h2.65v-2.168h-2.787v-.742h3.757v3.626z"/>
</g>
<path d="M47.942 57.525v61.15" color="#000" fill="none" marker-end="url(#a)" stroke="red" stroke-width="2" style="isolation:auto;mix-blend-mode:normal"/>
<g aria-label="断熱圧縮">
<path d="m170.499 104.463-.462-.462q1.523-1.725 2.116-3.372h-1.79v-.69h1.887v-3.744h.82v3.744h1.778v.69h-1.7q.626 1.087 1.772 2.161l-.463.6q-.872-.951-1.386-1.74v3.835h-.82v-3.47q-.834 1.57-1.752 2.448zm7.845 3.418v-6.79h-1.615v.397q0 4.434-1.699 6.517l-.683-.436q1.386-1.973 1.386-5.521v-4.805q2.442-.37 4.245-1.035l.462.749q-1.419.508-3.71.898v2.474h3.984v.762h-1.374v6.79zm-3.776-1.087h-4.844v.58h-.911V96.591h.911v9.44h4.844zm-.208-7.565-.664-.098.475-2.2.749.097zm-3.438.026-.423-2.148.69-.137.436 2.18zM177.589 116.442q-.293-.319-.762-.735-.592 1.438-2.11 2.701l-.585-.566q1.36-1.061 1.947-2.793-.606-.514-1.12-.911l.534-.567q.24.182.813.625.111-.58.111-1.198v-.8h-1.335v-.736h1.335v-1.934h1.01v1.934h1.965v3.834q0 .651.124 1.329.13.677.469.677.202 0 .286-.293.085-.293.157-1.348l.67.124q-.052 1.237-.143 1.64-.091.397-.371.612-.274.215-.586.222-.788 0-1.146-.873-.358-.879-.384-2.689v-2.5h-1.1q0 1.576-.26 2.644.807.664 1.08.97zm-9.14-1.556-.248-.58q1.569-.494 1.96-1.718h-1.602v-.703h2.513v-.86h-2.135v-.69h2.135v-.696h.938v.697h2.174v.69h-2.174v.859h2.434v.703h-1.783v.886q0 .338.436.338h.547q.449 0 .449-.417v-.332l.664.059v.54q0 .28-.15.463-.15.182-.338.247-.19.059-.651.059-.944 0-1.146-.026-.195-.033-.397-.215-.202-.19-.202-.43v-1.172h-.853q-.286.918-1.022 1.524-.736.599-1.55.774zm5.735 2.748q-1.12.221-5.56.71l-.176-.847q.964-.059 2.572-.221v-1.244h-2.135v-.723h2.135v-.885h.937v.885h2.188v.723h-2.188v1.14q1.498-.17 2.24-.287zm5.254 3.47q-.957-1.752-1.51-2.487l.885-.397q.228.286.82 1.21t.782 1.296zm-6.882.084q-.214-1.178-.657-2.37l.97-.201q.553 1.666.703 2.363zm3.275 0q-.13-.462-.898-2.317l.937-.254q.67 1.289.983 2.324zm-6.595.118-.86-.463q.964-1.048 1.524-2.174l.899.286q-.202.476-.743 1.283-.54.807-.82 1.068zM170.29 124.49v2.994q0 4.544-1.647 7.025l-.716-.475q.644-1.088.99-2.676.35-1.589.35-3.281v-4.389h11.075v.801zm.059 9.765v-.846h4.46v-4.473h-3.51v-.827h3.51v-2.819h1.073v2.82h3.796v.826h-3.796v4.473h4.473v.846zM170.095 148.005v-5.495l-1.836.15-.078-.775.788-.039q.573-.833 1.041-1.569-.703-.748-1.731-1.888l.553-.488.273.274q.704-1.114 1.127-2.07l.807.325q-.605 1.14-1.426 2.278l.827.88q.762-1.238 1.087-1.96l.788.338q-1.146 2.038-2.428 3.835 1.1-.059 1.816-.117l-.286-.996.71-.176q.403 1.263.598 2.122l-.722.189q-.04-.189-.118-.475l-.879.084v5.573zm9.238-.625h-2.506v.502h-.905v-6.68h1.406l.32-1.4h-1.987v-.723h4.037v-1.165h-6.022v1.36h-.775v-2.109h3.223v-1.035h.95v1.035h3.412v1.914h.208v.723h-2.142q-.286.99-.43 1.4h2.149v6.654h-.938zm-2.506-3.593h2.506v-1.902h-2.506zm2.506.71h-2.506v2.16h2.506zm-5.43 3.463v-5.39q-.182.35-.579.97l-.56-.34q1.27-2.09 1.739-4.57l.885.163q-.365 1.55-.983 3.008h.371v6.159zm-1.848-1.953-.365-2.357.775-.091.364 2.324zm-3.21 1.002-.762-.163q.528-2.213.573-3.261l.814.052q-.052.722-.254 1.83-.202 1.1-.371 1.542z"/>
</g>
<g fill="none" stroke="red" stroke-width="2" color="#000" marker-end="url(#a)">
<path d="M158.512 152.675v-61.15" style="isolation:auto;mix-blend-mode:normal"/>
<path d="M158.512 63.3V49.524h-94.57" style="isolation:auto;mix-blend-mode:normal"/>
<path d="M47.942 146.901v13.774h94.57" style="isolation:auto;mix-blend-mode:normal"/>
</g>
<path fill="#efe3e3" d="M.5 35.299h229.338V.5H.5z"/>
<path d="M.5 35.3h229.338" fill="none" stroke="#b32d38" stroke-dasharray="2.00000181, 2.00000181"/>
<g fill="#b32d38" stroke-width="3.15">
<path d="M188.964 12.825v-.914h6.516v-1.11h1.32v1.11h6.594v.914zm2.125 4.149v-2.977h10.328v2.977zm9.172-2.172h-8v1.367h8zm1.273 10.101h-1.812l-.164-1.03h1.422q.617 0 .617-.524v-4.305H190.83v5.953h-1.242v-6.851h13.25v5.664q0 .5-.367.797-.36.296-.938.296zm-7.492-1.421v.39h-1.14v-3.687h6.578v3.297zm4.274-2.477h-4.274v1.625h4.274zM208.002 13.921q-1.266-1.148-2.531-2.101l.82-.82q1.742 1.257 2.531 1.992zm1.711 3.297v-5.922h8.523v5.922zm1.18-3.43h6.187v-1.562h-6.187zm6.187.9h-6.187v1.585h6.187zm-10.125 2.968q-1.086-1.04-2.562-2.086l.789-.883q1.515 1.086 2.593 2.008zm1.211 6.969v-.977h.992v-5.055h9.766v5.055h.914v.977zm2.219-.977h1.664v-4.125h-1.664zm2.804 0h1.633v-4.125h-1.633zm2.782 0h1.726v-4.125h-1.726zm-10.203.96-1.047-.718q.64-.781 1.492-2.414.86-1.64 1.266-2.773l1.046.39q-.28 1.008-1.132 2.696-.852 1.687-1.625 2.82z"/>
</g>
<path fill="#e2e2f1" d="M.5 174.901h229.338V209.7H.5z"/>
<g fill="#2f2f76" stroke-width="3.15">
<path d="M190.797 199.456v-8.46q-.773 1.429-1.68 2.5l-.734-.618q2.758-4.187 3.523-7.734l1.227.195q-.531 1.844-1.688 4.375h.547v9.742zm2.008-2.469-.164-1.007q.312-.047 1.25-.211v-9.258q1.25-.015 4.101-.422 2.86-.406 4.078-.797l.586.977q-.812.219-3.023.547-.015.664-.015 1.164 0 1.101.055 2.14h3.687v.977h-3.625q.25 3.055 1.156 4.922.907 1.86 1.446 1.86.351 0 .43-.524.085-.524.187-1.946l.976.14q-.085 2.087-.336 2.892-.242.804-1.062.804-.438 0-.867-.265-.43-.266-1.024-.985-.593-.726-1.078-1.867-.476-1.14-.71-2.578-.235-1.438-.329-2.453h-3.437v4.46q2.273-.429 3.218-.671l.063.976q-.696.243-5.563 1.125zm2.281-9.625v2.758h3.375q-.047-1.047-.047-3.133-2.101.282-3.328.375zm-1.484 11.602v-.992h5.992v.992zM208.001 188.277q-1.266-1.148-2.531-2.101l.82-.82q1.742 1.257 2.531 1.991zm1.711 3.297v-5.922h8.523v5.922zm1.18-3.43h6.187v-1.562h-6.187zm6.187.899h-6.187v1.586h6.187zm-10.125 2.969q-1.086-1.04-2.562-2.086l.789-.883q1.515 1.086 2.593 2.008zm1.211 6.968v-.976h.992v-5.055h9.766v5.055h.914v.976zm2.219-.976h1.664v-4.125h-1.664zm2.805 0h1.632v-4.125h-1.632zm2.78 0h1.727v-4.125h-1.726zm-10.202.96-1.047-.718q.64-.781 1.492-2.414.86-1.64 1.266-2.774l1.046.391q-.28 1.008-1.132 2.695-.852 1.688-1.625 2.82z"/>
</g>
<path fill="#efe3e3" stroke="#b32d38" d="M148.512 65.299h45.167v20.226h-45.167z"/>
<path fill="#e2e2f1" stroke="#2f2f76" d="M23.756 124.675h34.186v20.226H23.756z"/>
<path d="M.5 174.901h229.338" fill="none" stroke="#2f2f76" stroke-dasharray="2.00000181, 2.00000181"/>
<g aria-label="共等温圧縮">
<path d="M74.516 66.058v-.801h2.936v-3.372h-2.409v-.801h2.41v-2.422h1.034v2.422h4.037v-2.396h1.035v2.396h2.546v.8h-2.546v3.373h3.008v.8zm3.971-.801h4.037v-3.372h-4.037zm-3.593 4.954-.489-.71q1.185-.514 2.325-1.451 1.139-.938 1.562-1.485l.898.515q-.677.827-2.024 1.81-1.341.983-2.272 1.321zm10.99-.013q-.86-.377-1.947-1.204-1.088-.833-2-1.953l.808-.476q1.595 1.843 3.776 2.872zM89.685 60.198q-.697.99-1.36 1.595l-.652-.462q.528-.514 1.1-1.348.58-.84.853-1.47l.983.162q-.143.3-.436.775h3.32v.748h-1.861l.527 1.035-.872.202-.586-1.237zm5.52 0q-.533.677-.91 1.035l-.697-.377q1.028-1.126 1.608-2.344l.963.189q-.13.247-.423.749h3.932v.748h-2.2l.625 1.088-.925.162-.69-1.25zm-7.115 7.13v-.789h8.105v-1.308h-8.307v-.8h5.248v-1.277h-4.447v-.794h4.447v-.827h1.048v.827h4.896v.794h-4.896v1.276H99.9v.8h-2.67v1.31h2.273v.787H97.23v1.85q0 .487-.372.793-.364.306-.878.306h-1.862l-.137-.924h1.621q.592 0 .592-.501v-1.524zm3.522 2.584q-.775-.983-1.7-1.85l.821-.52q.834.755 1.764 1.836zM103.669 61.045q-1.055-.957-2.11-1.752l.684-.683q1.452 1.048 2.11 1.66zm1.426 2.747v-4.935h7.103v4.935zm.983-2.858h5.156v-1.302h-5.156zm5.156.749h-5.156v1.321h5.156zm-8.437 2.474q-.905-.866-2.136-1.739l.658-.735q1.263.905 2.161 1.673zm1.009 5.807v-.814h.827v-4.212h8.138v4.212h.761v.814zm1.849-.814h1.386v-3.437h-1.386zm2.337 0h1.36v-3.437h-1.36zm2.318 0h1.438v-3.437h-1.438zm-8.503.8-.872-.598q.533-.651 1.243-2.012.716-1.367 1.055-2.311l.872.325q-.234.84-.944 2.247-.71 1.406-1.354 2.35zM116.313 60.166v2.994q0 4.545-1.647 7.025l-.716-.475q.644-1.087.99-2.676.35-1.588.35-3.281v-4.388h11.075v.8zm.059 9.765v-.846h4.46v-4.473h-3.51v-.827h3.51v-2.819h1.073v2.82h3.796v.826h-3.796v4.473h4.473v.846zM129.451 70.348v-5.495l-1.836.15-.078-.775.788-.039q.573-.833 1.041-1.569-.703-.749-1.731-1.888l.553-.488.273.273q.704-1.113 1.127-2.07l.807.325q-.605 1.14-1.426 2.28l.827.878q.762-1.237 1.087-1.96l.788.339q-1.146 2.038-2.428 3.835 1.1-.059 1.816-.118l-.286-.996.71-.176q.403 1.264.598 2.123l-.722.189q-.04-.19-.118-.476l-.879.085v5.573zm9.238-.625h-2.506v.501h-.905v-6.68h1.406l.32-1.4h-1.987v-.722h4.037v-1.165h-6.022v1.36h-.775v-2.109h3.223v-1.035h.95v1.035h3.412v1.914h.208v.723h-2.142q-.286.99-.43 1.4h2.149v6.653h-.938zm-2.506-3.594h2.506v-1.9h-2.506zm2.506.71h-2.506V69h2.506zm-5.43 3.463v-5.39q-.182.351-.579.97l-.56-.339q1.27-2.09 1.739-4.57l.885.163q-.365 1.55-.983 3.008h.371v6.158zm-1.848-1.953-.365-2.356.775-.092.364 2.325zm-3.21 1.003-.762-.163q.528-2.213.573-3.262l.814.052q-.052.723-.254 1.83-.202 1.1-.371 1.543z"/>
</g>
<g aria-label="共等温膨張">
<path d="M66.451 147.508v-.8h2.936v-3.373h-2.409v-.8h2.41v-2.423h1.034v2.422h4.037v-2.396h1.035v2.396h2.546v.801h-2.546v3.373h3.008v.8zm3.971-.8h4.037v-3.373h-4.037zm-3.593 4.954-.489-.71q1.185-.514 2.325-1.452 1.139-.937 1.562-1.484l.898.514q-.677.827-2.024 1.81-1.341.983-2.272 1.322zm10.99-.013q-.86-.378-1.947-1.204-1.088-.834-2-1.954l.808-.475q1.595 1.843 3.776 2.871zM81.62 141.648q-.697.99-1.36 1.595l-.652-.462q.528-.514 1.1-1.348.58-.84.853-1.47l.983.162q-.143.3-.436.775h3.32v.748h-1.861l.527 1.035-.872.202-.586-1.237zm5.52 0q-.533.677-.91 1.035l-.697-.377q1.028-1.126 1.608-2.344l.963.189q-.13.247-.423.749h3.932v.748h-2.2l.625 1.088-.925.162-.69-1.25zm-7.115 7.13v-.789h8.105v-1.308h-8.307v-.8h5.248v-1.277h-4.447v-.794h4.447v-.827h1.048v.827h4.896v.794h-4.896v1.276h5.716v.8h-2.67v1.31h2.273v.787h-2.272v1.85q0 .487-.372.793-.364.306-.878.306h-1.862l-.137-.924h1.621q.592 0 .592-.501v-1.524zm3.522 2.584q-.775-.983-1.7-1.85l.821-.52q.834.755 1.764 1.836zM95.604 142.495q-1.055-.957-2.11-1.751l.684-.684q1.452 1.049 2.11 1.66zm1.426 2.748v-4.935h7.103v4.935zm.983-2.858h5.156v-1.302h-5.156zm5.156.748h-5.156v1.322h5.156zm-8.437 2.474q-.905-.866-2.136-1.738l.658-.736q1.263.905 2.161 1.673zm1.009 5.808v-.814h.827v-4.212h8.138v4.212h.761v.814zm1.849-.814h1.386v-3.438H97.59zm2.337 0h1.36v-3.438h-1.36zm2.318 0h1.438v-3.438h-1.438zm-8.503.8-.872-.598q.533-.651 1.243-2.012.716-1.367 1.055-2.311l.872.325q-.234.84-.944 2.246-.71 1.407-1.354 2.35zM110.91 143.673v-.703h1.484v-1.172h-1.823v-.722h1.823V140h.977v1.075h1.823v.722h-1.823v1.172h1.458v.703zm4.844-.13-.56-.67q1.77-1.361 2.598-2.676l.859.449q-.508.736-1.354 1.569-.84.833-1.543 1.328zm-6.524 3.314h-1.465q-.182 3.183-1.184 4.87l-.697-.378q.436-.86.716-2.383t.28-3.086v-5.566h3.249v10.527q0 .365-.28.593-.28.228-.742.228h-1.036l-.104-.788h.801q.462 0 .462-.397zm-1.425-3.659h1.425v-2.187h-1.425zm-.013 2.969h1.438v-2.26h-1.425v1.622q0 .136-.013.638zm7.949 1.1-.547-.625q.56-.404 1.601-1.452 1.049-1.054 1.38-1.634l.801.501q-.54.788-1.543 1.765-1.002.97-1.692 1.445zm-4.805.098v-2.748h3.835v2.748zm2.956-2.123h-2.097v1.478h2.097zm1.614 6.446-.586-.625q1.01-.762 1.901-1.79.899-1.036 1.355-1.791l.826.534q-1.223 2.018-3.496 3.672zm-4.882-.372-.137-.787.963-.111-.442-2.35.853-.137.416 2.37 1.042-.15.423-2.285.866.124-.495 2.037q.651-.104 1.016-.175l.026.735q-1.029.293-4.531.73zM124.439 151.753l-.189-.833q.488-.033 1.074-.104v-4.219h-1.035v-.749h1.035v-5.423h6.042v.716h-5.072v1.1h4.675v.723h-4.675v.983h4.675v.716h-4.675v1.185h5.56v.749h-3.164q.313 1.061.84 1.836.97-.723 1.524-1.335l.703.586q-.788.684-1.771 1.341.937 1.16 2.129 1.934l-.645.736q-1.367-.899-2.363-2.253-.99-1.36-1.393-2.845h-1.42v4.082q1.25-.189 2.774-.462l.039.775q-1.751.416-4.668.761zm-3.438-7.702-.097 1.96h2.747q0 1.888-.078 3.034-.071 1.146-.137 1.51-.058.358-.266.6-.202.24-.528.396t-.592.176q-.267.026-1.621.026l-.124-.911h1.198q.41 0 .65-.163.248-.17.313-.45t.118-1.04q.052-.763.052-1.707 0-.54-.013-.761H120.8v.351l-.899.013.176-3.75h2.65v-2.168h-2.787v-.742h3.757v3.626z"/>
</g>
<path d="M107.084 198.75v-16.78l9.936 3.241-13.793-17.917-13.792 17.917 9.936-3.242v16.781zM107.084 41.009V24.228l9.936 3.242-13.793-17.917L89.435 27.47l9.936-3.242v16.78z" color="#000" fill="#458547" style="font-feature-settings:normal;font-variant-alternates:normal;font-variant-caps:normal;font-variant-ligatures:normal;font-variant-numeric:normal;font-variant-position:normal;isolation:auto;mix-blend-mode:normal;shape-padding:0;text-decoration-color:#000;text-decoration-line:none;text-decoration-style:solid;text-indent:0;text-orientation:mixed;text-transform:none;white-space:normal"/>
<g fill="green" stroke-width="1.25" style="font-variant-east_asian:normal">
<path d="M-586.485 10.46c2.965-1.129 5.777-4.534 5.777-8.226 0-3.08-2.028-5.145-4.878-5.145-4.132 0-8.34 4.342-8.34 8.799 0 3.175 2.142 5.107 4.897 5.107.478 0 1.129-.077 1.874-.287-.076 1.186-.076 1.225-.076 1.473 0 .612 0 2.104 1.588 2.104 2.276 0 3.194-3.5 3.194-3.71 0-.134-.134-.192-.21-.192-.153 0-.191.096-.23.21-.459 1.359-1.568 1.837-2.238 1.837-.88 0-1.167-.516-1.358-1.97zm-3.615-.153c-1.492-.593-2.143-2.085-2.143-3.807 0-1.32.498-4.036 1.951-6.102 1.397-1.951 3.195-2.83 4.591-2.83 1.913 0 3.31 1.491 3.31 4.054 0 1.913-.976 6.39-4.19 8.187-.095-.67-.286-2.066-1.683-2.066-1.014 0-1.951.957-1.951 1.951 0 .383.115.593.115.613zm1.186.21c-.268 0-.88 0-.88-.822 0-.766.727-1.53 1.53-1.53s1.167.458 1.167 1.625c0 .287-.019.306-.21.383a4.249 4.249 0 0 1-1.607.344zM-571.08 9.92h-.455c-.148 1.311-.348 3.039-2.88 3.039h-1.338c-.63 0-.643-.107-.643-.523V5.393c0-.441 0-.616 1.259-.616h.469v-.482c-.282.016-1.996.054-2.344.054-.508 0-2.022-.054-2.035-.054v.482h.321c1.031 0 1.058.134 1.058.603v6.976c0 .455-.026.603-1.058.603h-.32v.482h7.564z" style="font-variant-east_asian:normal" transform="matrix(.8 0 0 .8 596.75 187.91)"/>
</g>
<g fill="green" stroke-width="1.25" style="font-variant-east_asian:normal">
<path d="M-586.482-80.135c2.965-1.129 5.777-4.534 5.777-8.226 0-3.08-2.028-5.145-4.878-5.145-4.132 0-8.34 4.342-8.34 8.799 0 3.175 2.142 5.107 4.897 5.107.478 0 1.128-.077 1.874-.287-.076 1.186-.076 1.225-.076 1.473 0 .612 0 2.104 1.588 2.104 2.276 0 3.194-3.5 3.194-3.71 0-.134-.134-.192-.21-.192-.153 0-.192.096-.23.21-.459 1.359-1.568 1.837-2.238 1.837-.88 0-1.167-.516-1.358-1.97zm-3.615-.153c-1.492-.593-2.143-2.085-2.143-3.807 0-1.32.498-4.036 1.951-6.102 1.397-1.951 3.195-2.83 4.591-2.83 1.913 0 3.31 1.491 3.31 4.054 0 1.913-.976 6.39-4.19 8.187-.095-.67-.286-2.066-1.683-2.066-1.014 0-1.951.957-1.951 1.951 0 .383.115.593.115.613zm1.186.21c-.268 0-.88 0-.88-.822 0-.766.727-1.53 1.53-1.53s1.167.458 1.167 1.625c0 .287-.019.306-.21.383a4.249 4.249 0 0 1-1.607.344zM-570.65-85.215c0-.455.026-.603 1.058-.603h.321v-.482c-.67.027-1.526.054-2.008.054-.496 0-1.353-.026-2.022-.054v.482h.321c1.031 0 1.058.134 1.058.603v3.066h-4.472v-3.066c0-.455.026-.603 1.057-.603h.322v-.482c-.67.027-1.527.054-2.009.054-.495 0-1.352-.026-2.022-.054v.482h.322c1.03 0 1.057.134 1.057.603v6.976c0 .455-.026.603-1.057.603h-.322v.482c.67-.027 1.527-.054 2.009-.054.495 0 1.352.026 2.022.054v-.482h-.322c-1.03 0-1.057-.134-1.057-.603v-3.428h4.472v3.428c0 .455-.027.603-1.058.603h-.321v.482c.67-.027 1.526-.054 2.008-.054.496 0 1.353.026 2.022.054v-.482h-.321c-1.031 0-1.058-.134-1.058-.603z" style="font-variant-east_asian:normal" transform="matrix(.8 0 0 .8 596.025 88.64)"/>
</g>
</svg>
