<svg width="173.748" height="199.39" viewBox="0 0 173.747 199.391" xmlns="http://www.w3.org/2000/svg">
<path d="M38.64 23.311V166.11h36.11v-45.691c0 21.112 17.114 38.226 38.226 38.226h30.35v10.494l29.922-22.25-29.922-22.25v10.495h-30.35c-8.127 0-14.714-6.588-14.715-14.715V23.31z" fill="#b0cbb0"/>
<g stroke-width="1.333">
<path d="M16.75 149.766c2.965-1.13 5.777-4.534 5.777-8.226 0-3.08-2.028-5.145-4.878-5.145-4.132 0-8.34 4.342-8.34 8.799 0 3.175 2.143 5.107 4.897 5.107.478 0 1.129-.077 1.875-.287-.077 1.186-.077 1.224-.077 1.473 0 .612 0 2.104 1.588 2.104 2.276 0 3.194-3.5 3.194-3.71 0-.134-.133-.192-.21-.192-.153 0-.191.096-.23.21-.459 1.359-1.568 1.837-2.238 1.837-.88 0-1.166-.517-1.358-1.97zm-3.615-.154c-1.492-.593-2.142-2.085-2.142-3.806 0-1.32.497-4.036 1.95-6.102 1.397-1.951 3.195-2.831 4.591-2.831 1.913 0 3.31 1.492 3.31 4.055 0 1.913-.976 6.39-4.19 8.187-.095-.67-.286-2.066-1.683-2.066-1.014 0-1.95.957-1.95 1.951 0 .383.114.593.114.612zm1.186.211c-.268 0-.88 0-.88-.823 0-.765.727-1.53 1.53-1.53s1.167.46 1.167 1.626c0 .287-.019.306-.21.383a4.249 4.249 0 0 1-1.607.344zM32.156 149.225H31.7c-.147 1.312-.348 3.039-2.879 3.039h-1.339c-.629 0-.642-.107-.642-.522v-7.043c0-.442 0-.616 1.258-.616h.469v-.482c-.281.015-1.995.053-2.343.053-.509 0-2.022-.053-2.035-.053v.482h.32c1.032 0 1.059.134 1.059.602v6.976c0 .456-.027.603-1.058.603h-.321v.482h7.565z" fill="#00f"/>
<path d="M16.753 59.17c2.965-1.128 5.776-4.533 5.776-8.225 0-3.08-2.027-5.145-4.877-5.145-4.132 0-8.34 4.342-8.34 8.799 0 3.175 2.142 5.107 4.897 5.107.478 0 1.128-.077 1.874-.287-.076 1.186-.076 1.224-.076 1.473 0 .612 0 2.104 1.588 2.104 2.276 0 3.194-3.5 3.194-3.711 0-.134-.134-.191-.21-.191-.154 0-.192.095-.23.21-.46 1.358-1.569 1.837-2.238 1.837-.88 0-1.167-.517-1.358-1.97zm-3.616-.153c-1.492-.593-2.142-2.085-2.142-3.806 0-1.32.497-4.036 1.951-6.102 1.397-1.951 3.195-2.831 4.591-2.831 1.913 0 3.31 1.492 3.31 4.055 0 1.913-.976 6.389-4.19 8.187-.096-.67-.287-2.066-1.683-2.066-1.014 0-1.951.956-1.951 1.951 0 .383.115.593.115.612zm1.186.21c-.268 0-.88 0-.88-.822 0-.765.727-1.53 1.53-1.53s1.168.459 1.168 1.626c0 .287-.02.306-.21.382a4.249 4.249 0 0 1-1.608.345zM32.585 54.09c0-.455.027-.602 1.058-.602h.321v-.482c-.67.026-1.526.054-2.008.054-.496 0-1.353-.027-2.022-.054v.482h.321c1.031 0 1.058.134 1.058.603v3.066H26.84V54.09c0-.456.026-.603 1.058-.603h.32v-.482c-.669.026-1.526.054-2.008.054-.495 0-1.352-.027-2.022-.054v.482h.322c1.03 0 1.057.134 1.057.603v6.976c0 .455-.026.602-1.057.602h-.322v.482c.67-.026 1.527-.053 2.009-.053.495 0 1.352.026 2.022.053v-.482h-.321c-1.031 0-1.058-.134-1.058-.602v-3.428h4.472v3.428c0 .455-.027.602-1.058.602h-.321v.482c.67-.026 1.526-.053 2.008-.053.496 0 1.353.026 2.022.053v-.482h-.321c-1.031 0-1.058-.134-1.058-.602z" fill="red"/>
</g>
<path d="M166.82 115.307c.478-.842.937-1.53 2.142-1.626.173-.019.364-.019.364-.382a.229.229 0 0 0-.23-.21c-.459 0-.994.057-1.473.057-.65 0-1.358-.058-1.989-.058-.115 0-.363 0-.363.364 0 .21.172.23.286.23.46.018 1.13.171 1.13.745 0 .21-.097.364-.25.631l-5.164 9.01-.708-9.488c-.02-.382-.057-.88 1.339-.899.325 0 .516 0 .516-.382 0-.192-.21-.21-.286-.21-.766 0-1.569.057-2.334.057-.44 0-1.569-.058-2.009-.058-.114 0-.363 0-.363.383 0 .21.191.21.46.21.84 0 .975.115 1.013.478l.115 1.473-4.84 8.436-.727-9.698c0-.23 0-.67 1.454-.689.191 0 .402 0 .402-.382 0-.21-.23-.21-.268-.21-.765 0-1.569.057-2.353.057-.67 0-1.358-.058-2.008-.058-.096 0-.345 0-.345.364 0 .23.173.23.479.23.956 0 .975.171 1.013.707l.861 11.687c.02.345.038.498.306.498.23 0 .287-.115.46-.402l5.623-9.756.708 9.66c.038.402.076.498.306.498.248 0 .363-.192.459-.364z" fill="green"/>
<path fill="#e2e2f1" d="M.5 164.092h121.43v34.799H.5z"/>
<path d="M.5 164.092h121.43v34.8" fill="none" stroke="#2f2f76"/>
<g fill="#2f2f76" stroke-width="3.15">
<path d="M80.837 189.672v-8.461q-.773 1.43-1.68 2.5l-.734-.618q2.758-4.187 3.524-7.734l1.226.195q-.531 1.844-1.687 4.375h.547v9.743zm2.008-2.47-.164-1.007q.313-.047 1.25-.211v-9.258q1.25-.015 4.102-.422 2.859-.406 4.078-.797l.586.977q-.813.219-3.024.547-.015.664-.015 1.164 0 1.102.055 2.14H93.4v.977h-3.625q.25 3.055 1.157 4.922.906 1.86 1.445 1.86.351 0 .43-.524.085-.523.187-1.945l.977.14q-.086 2.086-.336 2.89-.243.806-1.063.806-.437 0-.867-.266t-1.023-.985q-.594-.726-1.079-1.867-.476-1.14-.71-2.578-.235-1.437-.329-2.453h-3.437v4.461q2.273-.43 3.219-.672l.062.977q-.695.242-5.562 1.125zm2.281-9.624v2.758h3.375q-.046-1.047-.046-3.133-2.102.281-3.329.375zm-1.484 11.601v-.992h5.992v.992zM98.042 178.492q-1.266-1.149-2.532-2.102l.82-.82q1.743 1.257 2.532 1.992zm1.71 3.296v-5.921h8.524v5.921zm1.18-3.43h6.188v-1.562h-6.188zm6.188.9h-6.188v1.585h6.188zm-10.125 2.968q-1.086-1.04-2.563-2.086l.79-.883q1.515 1.086 2.593 2.008zm1.21 6.969v-.977h.993v-5.055h9.766v5.055h.914v.977zm2.22-.977h1.664v-4.125h-1.664zm2.804 0h1.633v-4.125h-1.633zm2.781 0h1.727v-4.125h-1.727zm-10.203.961-1.046-.719q.64-.781 1.492-2.414.86-1.64 1.265-2.773l1.047.39q-.281 1.008-1.133 2.696-.851 1.687-1.625 2.82z"/>
</g>
<path fill="#efe3e3" d="M.5 35.299h121.43V.5H.5z"/>
<path d="M.5 35.3h121.43V.5" fill="none" stroke="#b32d38"/>
<g fill="#b32d38" stroke-width="3.15">
<path d="M79.004 13.854v-.914h6.516v-1.11h1.32v1.11h6.594v.914zm2.125 4.149v-2.977h10.328v2.977zm9.172-2.172h-8v1.367h8zm1.274 10.101h-1.813l-.164-1.031h1.422q.617 0 .617-.523v-4.305H80.871v5.953H79.63v-6.852h13.25v5.664q0 .5-.367.797-.36.297-.938.297zm-7.493-1.422v.391h-1.14v-3.688h6.578v3.297zm4.274-2.476h-4.274v1.625h4.274zM98.042 14.95q-1.266-1.148-2.532-2.101l.82-.82q1.743 1.257 2.532 1.992zm1.71 3.297v-5.922h8.524v5.922zm1.18-3.43h6.188v-1.562h-6.188zm6.188.899h-6.188v1.586h6.188zm-10.125 2.969q-1.086-1.04-2.563-2.086l.79-.883q1.515 1.086 2.593 2.008zm1.21 6.968v-.976h.993v-5.055h9.766v5.055h.914v.976zm2.22-.976h1.664v-4.125h-1.664zm2.804 0h1.633v-4.125h-1.633zm2.781 0h1.727v-4.125h-1.727zm-10.203.96-1.046-.718q.64-.781 1.492-2.414.86-1.64 1.265-2.774l1.047.391q-.281 1.008-1.133 2.695-.851 1.688-1.625 2.82z"/>
</g>
<g fill="#458547">
<path d="M68.45 112.708 38.64 88.481V57.284h59.621V88.48z"/>
<path d="m68.451 116.092-29.81-24.227V89.39l29.81 24.228L98.262 89.39v2.475z"/>
<path d="m68.451 120.419-29.81-24.227v-2.475l29.81 24.228 29.811-24.228v2.475z"/>
</g>
<g fill="#fff" stroke-width="3.15" aria-label="熱機関">
<path d="M57.559 78.234q-.323-.35-.838-.81-.652 1.583-2.32 2.973l-.645-.623q1.497-1.168 2.141-3.073-.666-.565-1.232-1.002l.588-.623q.265.2.895.687.122-.637.122-1.317v-.881H54.8v-.81h1.469V70.63h1.11v2.126h2.162v4.219q0 .716.136 1.46.144.745.516.745.222 0 .315-.322t.172-1.482l.738.136q-.058 1.36-.158 1.804-.1.437-.408.674-.3.236-.645.243-.866 0-1.26-.96-.394-.966-.423-2.957v-2.75h-1.21q0 1.733-.286 2.907.888.73 1.188 1.067zm-10.055-1.712-.272-.637q1.726-.544 2.155-1.89h-1.761v-.774h2.764v-.945h-2.349v-.76h2.349v-.766h1.031v.767h2.392v.759h-2.392v.945H54.1v.773h-1.963v.974q0 .373.48.373h.602q.494 0 .494-.459v-.365l.73.065v.594q0 .308-.164.509-.165.2-.373.272-.207.064-.716.064-1.038 0-1.26-.029-.215-.035-.437-.236-.222-.208-.222-.473v-1.289h-.938q-.315 1.01-1.125 1.676-.809.659-1.704.852zm6.31 3.023q-1.233.243-6.117.78l-.193-.93q1.06-.065 2.829-.244v-1.368h-2.35v-.795h2.35v-.974h1.031v.974h2.406v.795h-2.406v1.253q1.647-.186 2.463-.315zm5.778 3.817q-1.052-1.927-1.661-2.736l.974-.437q.25.315.902 1.332.652 1.017.86 1.425zm-7.57.093q-.236-1.297-.723-2.607l1.068-.222q.608 1.833.773 2.6zm3.603 0q-.143-.509-.988-2.55l1.031-.28q.738 1.419 1.081 2.558zm-7.255.129-.945-.509q1.06-1.153 1.676-2.392l.988.315q-.222.523-.816 1.411-.595.888-.903 1.175zM71.86 76.837l-.136-.673.401-.05q.437-.537 1.06-1.482-.358-.523-1.41-1.92l.522-.48.172.244q.623-1.002.974-1.905l.752.287q-.452.974-1.304 2.205l.695.953q.587-.931.924-1.576l.716.315q-.924 1.512-2.234 3.245 1.024-.144 1.632-.258l-.265-.86.66-.214q.407 1.117.658 2.127l-.702.207q-.043-.193-.186-.694-1.103.272-2.929.53zm-5.357 6.704-.58-.566q.71-.695 1.225-1.862.515-1.167.587-2.435h-1.41v-.81h4.203q-.25-1.603-.25-4.045 0-.351.014-1.325v-1.912h1.045l-.014 3.344q0 2.685.215 3.939h1.733l-.394-.867.752-.222.494 1.089h1.461v.809h-3.882q.301 1.232.81 2.105.93-.945 1.339-1.61l.838.493q-.716 1.003-1.647 1.862.838.924 1.317.924.222 0 .337-.243.115-.244.215-1.662l.809.136q-.072 1.876-.265 2.385-.186.508-.83.508-1.025 0-2.321-1.418-1.046.838-2.163 1.368l-.523-.616q1.247-.687 2.163-1.453-.745-1.153-1.103-2.779h-1.955q-.036.623-.179 1.26.867.853 1.683 1.433l-.551.716q-.48-.401-1.382-1.275-.588 1.64-1.79 2.729zm-4.218-3.259-.644-.494q.644-1.046 1.339-2.75.694-1.712.924-2.85h-1.705V73.4h1.762v-2.771h1.045V73.4h1.247v.788h-1.247v1.568q.717.881 1.29 1.454l-.588.659-.702-.86v6.668h-1.045V77.08q-.68 1.74-1.676 3.201zm4.082-3.28-.129-.716.38-.036q.43-.551 1.067-1.54-.81-1.21-1.36-1.883l.508-.473.222.308q.394-.637.974-2.005l.723.244q-.551 1.124-1.303 2.298l.644.867q.666-1.074.988-1.697l.688.293q-.63 1.196-2.328 3.495.71-.093 1.583-.25l-.23-.91.631-.15q.344 1.196.509 2.055l-.63.165q-.03-.15-.144-.602-1.088.265-2.793.537zM78.527 75.312v8.315H77.44v-12.64h5.192v4.325zm0-2.514h3.051v-1.067h-3.05zm3.051.717h-3.05v1.045h3.05zm6.897 10.026h-1.282l-.136-.96h1.002q.194 0 .351-.143.158-.143.158-.322v-6.804h-4.19v-4.325h5.293v11.472q0 1.082-1.196 1.082zm-3.051-10.743h3.144v-1.067h-3.144zm3.144.717h-3.144v1.045h3.144zm-5.142 6.782q-1.003 2.019-3.61 2.656l-.286-.716q1.053-.265 1.876-.888.831-.623 1.153-1.39h-2.893v-.808h3.215v-1.297h-2.9v-.794h1.633l-.559-1.125.867-.207.652 1.332h1.682l.724-1.375.91.222-.731 1.153h1.898v.794H83.87v1.297h3.473v.809h-3.137q1.032 1.532 2.7 2.234l-.508.76q-1.97-.803-2.972-2.657z"/>
</g>
</svg>
