<svg width="220.038" height="135.319" xmlns="http://www.w3.org/2000/svg">
<g fill="none" stroke-miterlimit="100000">
<path d="m1.05 347.646 1.803-13.471 1.803-11.87 1.803-10.389 1.803-9.02 1.803-7.761 1.803-6.605 1.803-5.548 1.803-4.583 1.803-3.708 1.803-2.916 1.803-2.204 1.803-1.567 1.802-1 1.803-.499 1.803-.06 1.803.32 1.803.647 1.803.923 1.803 1.152 1.803 1.34 1.803 1.485 1.803 1.597 1.803 1.674 1.803 1.722 1.803 1.743 1.803 1.74 1.803 1.715 1.803 1.672 1.803 1.614 1.803 1.541 1.803 1.458 1.803 1.364 1.803 1.266 1.803 1.16 1.802 1.054 1.803.944 1.803.837 1.803.729 1.803.626 1.803.528 1.803.434 1.803.349 1.803.27 1.803.202 1.803.14 1.803.092 1.803.052 1.803.023 1.803.006h1.803l1.803.007 1.803.023 1.803.052 1.803.091 1.803.141 1.803.201 1.802.27 1.803.35 1.803.434 1.803.528 1.803.626 1.803.73 1.803.835 1.803.945 1.803 1.053 1.803 1.161 1.803 1.265 1.803 1.365 1.803 1.458 1.803 1.541 1.803 1.614 1.803 1.672 1.803 1.715 1.803 1.74 1.803 1.743 1.803 1.722 1.803 1.674 1.803 1.597 1.802 1.485 1.803 1.34 1.803 1.152 1.803.923 1.803.647 1.803.32 1.803-.06 1.803-.5 1.803-1 1.803-1.566 1.803-2.204 1.803-2.916 1.803-3.708 1.803-4.583 1.803-5.548 1.803-6.605 1.803-7.761 1.803-9.02 1.803-10.389 1.803-11.87 1.803-13.471" clip-path="url(#p7939fd919c)" stroke="#00f" stroke-linecap="square" stroke-linejoin="round" stroke-width="2.5" transform="translate(38.59 -242.51)"/>
<g stroke="#000">
<g stroke-linecap="square" stroke-width="1.25">
<path d="M39.64 3.997h178.492M218.133 108.712V3.997M39.64 108.712h178.492M39.64 108.712V3.997"/>
</g>
<path d="M9.163 351.222V246.507" clip-path="url(#p7939fd919c)" stroke-dasharray="1.25, 3.75" stroke-linejoin="round" stroke-width=".625" transform="translate(38.59 -242.51)"/>
</g>
</g>
<g stroke-linejoin="round" stroke-miterlimit="100000">
<path d="M47.754 108.712v-5M47.754 3.997v5" stroke="#000" stroke-width=".625"/>
<g stroke-width=".075">
<path d="M39.442 116.748h4.695v.622h-4.695zM45.862 118.789h1.208v-4.172l-1.314.264v-.674l1.307-.264h.74v4.846h1.208v.622h-3.149zM50.505 118.48h.773v.93h-.773zM54.471 114.43q-.57 0-.859.563-.287.56-.287 1.69 0 1.123.287 1.686.288.562.859.562.575 0 .863-.562.288-.563.288-1.687 0-1.128-.288-1.69t-.863-.562m0-.586q.92 0 1.405.728.485.726.485 2.11 0 1.38-.485 2.109-.485.726-1.405.726-.919 0-1.404-.726-.485-.728-.485-2.109 0-1.384.485-2.11.485-.728 1.404-.728"/>
</g>
</g>
<g stroke="#000" stroke-linejoin="round" stroke-miterlimit="100000" stroke-width=".625">
<path d="M49.73 351.222V246.507" clip-path="url(#p7939fd919c)" fill="none" stroke-dasharray="1.25, 3.75" transform="translate(38.59 -242.51)"/>
<path d="M88.32 108.712v-5M88.32 3.997v5"/>
</g>
<g stroke-linejoin="round" stroke-miterlimit="100000" stroke-width=".075">
<path d="M80.008 116.748h4.695v.622h-4.695zM87.882 114.43q-.57 0-.86.563-.286.56-.286 1.69 0 1.123.287 1.686.288.562.859.562.575 0 .862-.562.289-.563.289-1.687 0-1.128-.289-1.69-.287-.562-.862-.562m0-.586q.92 0 1.405.728.485.726.485 2.11 0 1.38-.485 2.109-.485.726-1.405.726-.919 0-1.404-.726-.485-.728-.485-2.109 0-1.384.485-2.11.485-.728 1.404-.728M91.071 118.48h.774v.93h-.774zM93.464 113.943h2.904v.623H94.14v1.34q.16-.055.321-.082.162-.027.324-.027.915 0 1.45.502.535.501.535 1.358 0 .882-.55 1.372-.55.489-1.55.489-.344 0-.701-.059-.356-.059-.737-.176v-.744q.33.18.68.267.352.088.744.088.634 0 1.003-.333.37-.332.37-.904 0-.571-.37-.904-.37-.334-1.003-.334-.297 0-.592.066-.294.065-.601.205z"/>
</g>
<g stroke="#000" stroke-linejoin="round" stroke-miterlimit="100000" stroke-width=".625">
<path d="M90.296 351.222V246.507" clip-path="url(#p7939fd919c)" fill="none" stroke-dasharray="1.25, 3.75" transform="translate(38.59 -242.51)"/>
<path d="M128.887 108.712v-5M128.887 3.997v5"/>
</g>
<g stroke-linejoin="round" stroke-miterlimit="100000" stroke-width=".075">
<path d="M125.306 114.43q-.57 0-.859.563-.287.56-.287 1.69 0 1.123.287 1.686.289.562.86.562.575 0 .862-.562.288-.563.288-1.687 0-1.128-.288-1.69-.287-.562-.863-.562m0-.586q.92 0 1.405.728.486.726.486 2.11 0 1.38-.486 2.109-.485.726-1.405.726-.918 0-1.404-.726-.485-.728-.485-2.109 0-1.384.486-2.11.485-.728 1.403-.728M128.496 118.48h.774v.93h-.774zM132.462 114.43q-.57 0-.859.563-.287.56-.287 1.69 0 1.123.287 1.686.288.562.86.562.575 0 .862-.562.288-.563.288-1.687 0-1.128-.288-1.69-.287-.562-.863-.562m0-.586q.92 0 1.405.728.485.726.485 2.11 0 1.38-.485 2.109-.485.726-1.405.726-.919 0-1.404-.726-.485-.728-.485-2.109 0-1.384.485-2.11.485-.728 1.404-.728"/>
</g>
<g stroke="#000" stroke-linejoin="round" stroke-miterlimit="100000" stroke-width=".625">
<path d="M130.863 351.222V246.507" clip-path="url(#p7939fd919c)" fill="none" stroke-dasharray="1.25, 3.75" transform="translate(38.59 -242.51)"/>
<path d="M169.453 108.712v-5M169.453 3.997v5"/>
</g>
<g stroke-linejoin="round" stroke-miterlimit="100000" stroke-width=".075">
<path d="M165.873 114.43q-.57 0-.859.563-.287.56-.287 1.69 0 1.123.287 1.686.288.562.86.562.575 0 .862-.562.288-.563.288-1.687 0-1.128-.288-1.69-.287-.562-.863-.562m0-.586q.92 0 1.405.728.485.726.485 2.11 0 1.38-.485 2.109-.485.726-1.405.726-.919 0-1.404-.726-.485-.728-.485-2.109 0-1.384.485-2.11.485-.728 1.404-.728M169.062 118.48h.774v.93h-.774zM171.455 113.943h2.904v.623h-2.226v1.34q.16-.055.32-.082.162-.027.324-.027.915 0 1.45.502.535.501.535 1.358 0 .882-.55 1.372-.549.489-1.549.489-.344 0-.702-.059-.356-.059-.737-.176v-.744q.33.18.681.267.352.088.743.088.634 0 1.003-.333.37-.332.37-.904 0-.571-.37-.904-.369-.334-1.003-.334-.296 0-.592.066-.294.065-.6.205z"/>
</g>
<g stroke="#000" stroke-linejoin="round" stroke-miterlimit="100000" stroke-width=".625">
<path d="M171.429 351.222V246.507" clip-path="url(#p7939fd919c)" fill="none" stroke-dasharray="1.25, 3.75" transform="translate(38.59 -242.51)"/>
<path d="M210.02 108.712v-5M210.02 3.997v5"/>
</g>
<g stroke-linejoin="round" stroke-miterlimit="100000">
<g stroke-width=".075">
<path d="M204.986 118.789h1.208v-4.172l-1.314.264v-.674l1.307-.264h.74v4.846h1.208v.622h-3.149zM209.63 118.48h.773v.93h-.774zM213.595 114.43q-.57 0-.859.563-.287.56-.287 1.69 0 1.123.287 1.686.288.562.86.562.575 0 .862-.562.288-.563.288-1.687 0-1.128-.288-1.69-.287-.562-.863-.562m0-.586q.92 0 1.405.728.485.726.485 2.11 0 1.38-.485 2.109-.485.726-1.405.726-.919 0-1.404-.726-.485-.728-.485-2.109 0-1.384.485-2.11.485-.728 1.404-.728"/>
</g>
<path d="m131.416 129.35-1.978 2.66 2.08 2.809h-1.06l-1.592-2.149-1.59 2.149h-1.061l2.125-2.861-1.944-2.608h1.06l1.45 1.948 1.45-1.948z"/>
</g>
<g stroke="#000" stroke-linejoin="round" stroke-miterlimit="100000" stroke-width=".625">
<path d="M1.05 351.222h178.492" clip-path="url(#p7939fd919c)" fill="none" stroke-dasharray="1.25, 3.75" transform="translate(38.59 -242.51)"/>
<path d="M39.64 108.712h5M218.133 108.712h-5"/>
</g>
<g stroke-linejoin="round" stroke-miterlimit="100000" stroke-width=".075">
<path d="M17.223 108.119h4.694v.622h-4.694zM25.096 105.801q-.57 0-.86.562-.286.562-.286 1.69 0 1.124.287 1.687.288.562.859.562.575 0 .862-.562.289-.563.289-1.687 0-1.128-.289-1.69-.287-.562-.862-.562m0-.586q.92 0 1.405.728.485.726.485 2.11 0 1.38-.485 2.109-.485.726-1.405.726-.919 0-1.404-.726-.485-.728-.485-2.109 0-1.384.485-2.11.485-.728 1.404-.728M28.286 109.851h.773v.93h-.773zM32.911 107.833q.531.114.829.473.299.359.299.886 0 .809-.557 1.253-.556.443-1.582.443-.343 0-.708-.068t-.752-.204v-.713q.307.179.673.27.366.092.766.092.695 0 1.06-.275.364-.274.364-.798 0-.484-.339-.756-.338-.273-.942-.273h-.637v-.608h.666q.545 0 .835-.218t.29-.628q0-.42-.3-.646-.297-.226-.854-.226-.305 0-.653.067-.348.066-.765.204v-.659q.422-.117.79-.175.368-.059.694-.059.842 0 1.332.383.491.382.491 1.034 0 .454-.26.767t-.74.434"/>
</g>
<g stroke="#000" stroke-linejoin="round" stroke-miterlimit="100000" stroke-width=".625">
<path d="M1.05 333.77h178.492" clip-path="url(#p7939fd919c)" fill="none" stroke-dasharray="1.25, 3.75" transform="translate(38.59 -242.51)"/>
<path d="M39.64 91.26h5M218.133 91.26h-5"/>
</g>
<g stroke-linejoin="round" stroke-miterlimit="100000" stroke-width=".075">
<path d="M17.223 90.667h4.694v.622h-4.694zM25.096 88.349q-.57 0-.86.562-.286.562-.286 1.69 0 1.124.287 1.687.288.562.859.562.575 0 .862-.562.289-.563.289-1.687 0-1.128-.289-1.69-.287-.562-.862-.562m0-.586q.92 0 1.405.728.485.726.485 2.11 0 1.38-.485 2.109-.485.726-1.405.726-.919 0-1.404-.726-.485-.728-.485-2.109 0-1.384.485-2.11.485-.728 1.404-.728M28.286 92.399h.773v.93h-.773zM31.307 92.707h2.582v.622h-3.471v-.622q.42-.436 1.147-1.17.728-.734.914-.948.355-.398.496-.675.142-.276.142-.543 0-.436-.306-.71-.306-.276-.797-.276-.348 0-.735.12-.386.122-.825.368v-.748q.447-.18.834-.27.39-.092.712-.092.85 0 1.354.425.505.424.505 1.135 0 .337-.126.64-.125.3-.46.71-.09.107-.582.615-.49.507-1.384 1.419"/>
</g>
<g stroke="#000" stroke-linejoin="round" stroke-miterlimit="100000" stroke-width=".625">
<path d="M1.05 316.317h178.492" clip-path="url(#p7939fd919c)" fill="none" stroke-dasharray="1.25, 3.75" transform="translate(38.59 -242.51)"/>
<path d="M39.64 73.807h5M218.133 73.807h-5"/>
</g>
<g stroke-linejoin="round" stroke-miterlimit="100000" stroke-width=".075">
<path d="M17.223 73.214h4.694v.622h-4.694zM25.096 70.896q-.57 0-.86.563-.286.56-.286 1.69 0 1.123.287 1.686.288.562.859.562.575 0 .862-.562.289-.563.289-1.687 0-1.128-.289-1.69-.287-.562-.862-.562m0-.586q.92 0 1.405.728.485.726.485 2.11 0 1.38-.485 2.109-.485.726-1.405.726-.919 0-1.404-.726-.485-.728-.485-2.109 0-1.384.485-2.11.485-.728 1.404-.728M28.286 74.946h.773v.93h-.773zM30.799 75.254h1.208v-4.172l-1.315.264v-.674L32 70.408h.74v4.846h1.207v.622H30.8z"/>
</g>
<g stroke="#000" stroke-linejoin="round" stroke-miterlimit="100000" stroke-width=".625">
<path d="M1.05 298.865h178.492" clip-path="url(#p7939fd919c)" fill="none" stroke-dasharray="1.25, 3.75" transform="translate(38.59 -242.51)"/>
<path d="M39.64 56.355h5M218.133 56.355h-5"/>
</g>
<g stroke-linejoin="round" stroke-miterlimit="100000" stroke-width=".075">
<path d="M25.097 53.444q-.571 0-.86.563-.287.56-.287 1.69 0 1.123.288 1.686.288.562.859.562.575 0 .862-.562.288-.563.288-1.687 0-1.128-.288-1.69-.287-.562-.862-.562m0-.586q.92 0 1.405.728.485.726.485 2.11 0 1.38-.485 2.109-.486.726-1.405.726-.92 0-1.404-.726-.486-.728-.486-2.109 0-1.384.486-2.11.485-.728 1.404-.728M28.286 57.494h.774v.93h-.774zM32.252 53.444q-.57 0-.859.563-.287.56-.287 1.69 0 1.123.287 1.686.289.562.86.562.575 0 .862-.562.288-.563.288-1.687 0-1.128-.288-1.69-.287-.562-.863-.562m0-.586q.92 0 1.405.728.486.726.486 2.11 0 1.38-.486 2.109-.485.726-1.405.726-.918 0-1.404-.726-.485-.728-.485-2.109 0-1.384.485-2.11.486-.728 1.404-.728"/>
</g>
<g stroke="#000" stroke-linejoin="round" stroke-miterlimit="100000" stroke-width=".625">
<path d="M1.05 281.412h178.492" clip-path="url(#p7939fd919c)" fill="none" stroke-dasharray="1.25, 3.75" transform="translate(38.59 -242.51)"/>
<path d="M39.64 38.902h5M218.133 38.902h-5"/>
</g>
<g stroke-linejoin="round" stroke-miterlimit="100000" stroke-width=".075">
<path d="M25.097 35.991q-.571 0-.86.562-.287.562-.287 1.69 0 1.124.288 1.687.288.562.859.562.575 0 .862-.562.288-.563.288-1.687 0-1.128-.288-1.69-.287-.562-.862-.562m0-.586q.92 0 1.405.728.485.726.485 2.11 0 1.38-.485 2.109-.486.726-1.405.726-.92 0-1.404-.726-.486-.728-.486-2.109 0-1.384.486-2.11.485-.728 1.404-.728M28.286 40.041h.774v.93h-.774zM30.8 40.349h1.207v-4.172l-1.314.264v-.674L32 35.503h.74v4.846h1.208v.622h-3.149z"/>
</g>
<g stroke="#000" stroke-linejoin="round" stroke-miterlimit="100000" stroke-width=".625">
<path d="M1.05 263.96h178.492" clip-path="url(#p7939fd919c)" fill="none" stroke-dasharray="1.25, 3.75" transform="translate(38.59 -242.51)"/>
<path d="M39.64 21.45h5M218.133 21.45h-5"/>
</g>
<g stroke-linejoin="round" stroke-miterlimit="100000" stroke-width=".075">
<path d="M25.097 18.539q-.571 0-.86.562-.287.562-.287 1.69 0 1.124.288 1.687.288.562.859.562.575 0 .862-.562.288-.563.288-1.687 0-1.128-.288-1.69-.287-.562-.862-.562m0-.586q.92 0 1.405.728.485.726.485 2.11 0 1.38-.485 2.109-.486.726-1.405.726-.92 0-1.404-.726-.486-.728-.486-2.109 0-1.384.486-2.11.485-.728 1.404-.728M28.286 22.589h.774v.93h-.774zM31.308 22.897h2.581v.622h-3.47v-.622q.42-.436 1.147-1.17.727-.734.914-.948.355-.398.495-.675.142-.276.142-.543 0-.436-.306-.71-.306-.276-.797-.276-.348 0-.734.12-.386.122-.825.368v-.748q.446-.18.834-.27.39-.092.711-.092.85 0 1.355.425.505.424.505 1.135 0 .337-.126.64-.126.3-.46.71-.091.107-.582.615-.49.507-1.384 1.419"/>
</g>
<g stroke="#000" stroke-linejoin="round" stroke-miterlimit="100000" stroke-width=".625">
<path d="M1.05 246.507h178.492" clip-path="url(#p7939fd919c)" fill="none" stroke-dasharray="1.25, 3.75" transform="translate(38.59 -242.51)"/>
<path d="M39.64 3.997h5M218.133 3.997h-5"/>
</g>
<g stroke-linejoin="round" stroke-miterlimit="100000">
<g stroke-width=".075">
<path d="M25.097 1.086q-.571 0-.86.563-.287.56-.287 1.69 0 1.123.288 1.686.288.562.859.562.575 0 .862-.562.288-.563.288-1.687 0-1.128-.288-1.69-.287-.562-.862-.562m0-.586q.92 0 1.405.728.485.726.485 2.11 0 1.38-.485 2.109-.486.726-1.405.726-.92 0-1.404-.726-.486-.728-.486-2.109 0-1.384.486-2.11Q24.178.5 25.097.5M28.286 5.136h.774v.93h-.774zM32.912 3.118q.53.114.829.473.298.359.298.886 0 .809-.556 1.253-.557.443-1.582.443-.344 0-.708-.068t-.752-.204v-.714q.307.18.672.271.367.092.767.092.695 0 1.059-.275.364-.274.364-.798 0-.484-.338-.756-.339-.273-.942-.273h-.638V2.84h.667q.545 0 .834-.218t.29-.628q0-.42-.3-.646-.297-.226-.853-.226-.305 0-.653.067-.348.066-.765.204V.734q.421-.117.79-.175.367-.059.693-.059.843 0 1.333.383.49.382.49 1.034 0 .454-.26.767t-.739.434"/>
</g>
<g stroke-width=".1">
<path d="M.5 61.265h.748v.86q0 .482.196.671.195.188.703.188h.483v-1.48h.698v1.48h4.77v.903h-4.77v.86H2.63v-.86h-.382q-.912 0-1.33-.425Q.5 63.037.5 62.115zM.511 58.355q1.122.653 2.222.972 1.098.317 2.226.317 1.127 0 2.233-.32 1.107-.32 2.225-.969v.781q-1.148.732-2.256 1.096t-2.202.364q-1.089 0-2.192-.361-1.104-.363-2.256-1.099zM2.63 52.065l2.66 1.978 2.808-2.08v1.06L5.95 54.615l2.148 1.59v1.062l-2.86-2.125-2.608 1.943v-1.06l1.948-1.45-1.948-1.45zM.511 50.834v-.781q1.152-.731 2.256-1.096 1.103-.364 2.192-.364 1.094 0 2.202.364 1.108.365 2.256 1.096v.781q-1.118-.648-2.225-.969t-2.233-.32q-1.128 0-2.226.32-1.1.32-2.222.969"/>
</g>
</g>
<g fill="#00f">
<path d="m51.612 16.197-.629-.485q.67-1.046 1.354-2.694.683-1.654.895-2.748H51.53v-.78h1.77V6.819h1.026v2.673h1.346v.78h-1.346v1.517q.82.991 1.299 1.34l-.356.861q-.403-.39-.943-1.06v6.372H53.3v-6.358q-.622 1.682-1.688 3.254zm6.111 1.23-.123-.813h.896q.424 0 .629-.164.212-.164.335-.67.123-.506.15-2.72l.027-3.056h-2.023l-.075-.103.58-1.969h-2.508v-.745h9.112v.745H59.09l-.45 1.402h1.913v2.755q0 2.05-.123 3.35-.116 1.298-.444 1.585-.321.28-.643.356-.321.075-1.62.047zm6.228-.116q-.656-.82-1.21-1.811-.588 1.066-1.333 1.9l-.656-.513q.854-.97 1.503-2.365-.813-1.839-1.141-3.52l.765-.185q.288 1.326.82 2.618.657-1.818.657-3.315h-2.242v-.745h3.24q-.027 2.632-1.142 5.16.63 1.197 1.443 2.12zm-7.24-1.852v.328h-.813v-4.744h2.728v4.416zm1.115-3.787h-1.114v3.13h1.114zm-2.584 7.3v-.813h9.509v.813zM78.197 18.268l-.704.861q-1.907-1.087-3.35-2.946-1.442-1.86-2.18-3.746-.664 2.256-2.236 4.013-1.565 1.75-3.971 2.631l-.397-.8q2.242-.806 3.862-2.802 1.62-2.003 1.908-4.204H65.7v-.903h5.626V6.934h1.141v3.438h5.626v.903h-5.51q.561 1.928 2.12 3.965 1.558 2.03 3.493 3.028zM177.785 102.398l-.629-.485q.67-1.046 1.354-2.694.683-1.654.895-2.748h-1.702v-.78h1.77V93.02h1.026v2.673h1.347v.78h-1.347v1.517q.82.991 1.299 1.34l-.356.861q-.403-.39-.943-1.06v6.372h-1.025v-6.358q-.622 1.682-1.689 3.254zm6.112 1.23-.124-.813h.896q.424 0 .629-.164.212-.164.335-.67t.15-2.72l.028-3.056h-2.024l-.075-.103.581-1.969h-2.509v-.745h9.112v.745h-5.632l-.451 1.402h1.914v2.755q0 2.05-.123 3.35-.117 1.298-.445 1.585-.321.28-.642.356t-1.62.047zm6.227-.116q-.656-.82-1.21-1.811-.588 1.066-1.333 1.9l-.656-.513q.854-.97 1.504-2.365-.814-1.839-1.142-3.52l.766-.185q.287 1.326.82 2.618.656-1.818.656-3.315h-2.242v-.745h3.24q-.027 2.632-1.141 5.16.629 1.197 1.442 2.12zm-7.24-1.852v.328h-.813v-4.744h2.728v4.416zM184 97.873h-1.114v3.13h1.114zm-2.584 7.3v-.813h9.509v.813zM197.03 105.33h-2.031l-.11-1.019h1.798q.657 0 .657-.512v-10.65h1.155v11.08q0 .506-.417.8-.41.301-1.053.301zm6.555-3.07q-.807-1.257-1.648-3.356-.84-2.098-1.182-3.26l1.073-.28q.492 1.695 1.306 3.492t1.449 2.803zm-11.526.083-.854-.568q1.053-1.264 1.743-3.09.697-1.825.855-3.15l1.128.17q-.288 1.77-1.067 3.61-.772 1.831-1.805 3.028z"/>
</g>
</svg>
