<svg width="236.023" height="132.624" xmlns="http://www.w3.org/2000/svg">
<defs>
<marker id="b" overflow="visible" orient="auto">
<path d="m10 0 4-4L0 0l14 4z" fill-rule="evenodd" stroke="#000" stroke-width=".8pt"/>
</marker>
<marker id="a" overflow="visible" orient="auto">
<path d="m-10 0-4 4L0 0l-14-4z" fill-rule="evenodd" stroke="#000" stroke-width=".8pt"/>
</marker>
</defs>
<path d="m55.64 98.356 1.639-11.12 1.638-9.799 1.638-8.575 1.638-7.446 1.638-6.407 1.637-5.452 1.638-4.58 1.638-3.783 1.638-3.06 1.638-2.408 1.638-1.82 1.638-1.292 1.638-.826 1.638-.412 1.638-.05 1.638.265 1.638.534 1.638.762 1.638.951 1.637 1.105 1.638 1.227 1.638 1.318 1.638 1.382 1.638 1.421 1.638 1.439 1.638 1.436 1.638 1.416 1.638 1.38 1.638 1.333 1.638 1.272 1.638 1.203 1.638 1.127 1.638 1.044 1.637.958 1.638.87 1.638.78 1.638.69 1.638.602 1.639.517 1.637.435 1.638.359 1.638.288 1.638.223 1.638.166 1.638.117 1.638.075 1.637.042 1.638.02 1.638.005h1.639l1.638.005 1.638.02 1.637.042 1.638.075 1.638.117 1.638.166 1.638.223 1.638.288 1.638.359 1.638.435 1.638.517 1.638.602 1.638.69 1.638.78 1.638.87 1.637.958 1.638 1.044 1.638 1.127 1.638 1.203 1.638 1.272 1.638 1.332 1.638 1.38 1.638 1.417 1.638 1.436 1.638 1.439 1.638 1.421 1.638 1.382 1.638 1.318 1.637 1.227 1.638 1.105 1.638.951 1.638.762 1.639.534 1.637.265 1.638-.05 1.638-.413 1.638-.825 1.638-1.293 1.638-1.82 1.638-2.407 1.638-3.06 1.637-3.784 1.638-4.58 1.639-5.452 1.638-6.406 1.638-7.446 1.638-8.575 1.637-9.799 1.638-11.12" fill="none" stroke="#00f" stroke-linecap="square" stroke-linejoin="round" stroke-miterlimit="100" stroke-width="2"/>
<g fill="#00f">
<path d="m64.367 22.961-.629-.485q.67-1.046 1.354-2.694.684-1.654.895-2.748h-1.702v-.78h1.77v-2.672h1.026v2.673h1.347v.78H67.08v1.517q.82.991 1.299 1.34l-.355.861q-.404-.39-.944-1.06v6.372h-1.025v-6.358q-.622 1.682-1.689 3.254zm6.112 1.23-.123-.813h.895q.424 0 .629-.164.212-.164.335-.67.123-.506.15-2.72l.028-3.056h-2.024l-.075-.103.581-1.969h-2.509v-.745h9.113v.745h-5.633l-.451 1.402h1.914v2.755q0 2.05-.123 3.35-.117 1.298-.445 1.585-.321.28-.642.356-.322.075-1.62.048zm6.227-.116q-.656-.82-1.21-1.811-.588 1.066-1.333 1.9l-.656-.513q.854-.97 1.504-2.365-.814-1.839-1.142-3.52l.766-.185q.287 1.326.82 2.618.656-1.818.656-3.315H73.87v-.745h3.24q-.027 2.632-1.141 5.16.629 1.197 1.442 2.12zm-7.24-1.852v.328h-.813v-4.744h2.728v4.416zm1.115-3.787h-1.114v3.13h1.114zm-2.584 7.3v-.813h9.509v.813zM90.952 25.033l-.704.861q-1.907-1.087-3.35-2.946-1.442-1.86-2.18-3.746-.663 2.256-2.235 4.013-1.566 1.75-3.972 2.631l-.397-.8q2.243-.806 3.863-2.802 1.62-2.003 1.907-4.204h-5.428v-.903h5.626V13.7h1.142v3.438h5.626v.903h-5.51q.56 1.928 2.12 3.965 1.558 2.03 3.492 3.028zM181.041 100.662l-.629-.485q.67-1.046 1.354-2.694.683-1.654.895-2.748h-1.702v-.78h1.77v-2.672h1.026v2.673h1.347v.78h-1.347v1.517q.82.991 1.299 1.34l-.356.861q-.403-.39-.943-1.06v6.372h-1.026v-6.358q-.622 1.682-1.688 3.254zm6.111 1.23-.123-.813h.896q.424 0 .629-.164.212-.164.335-.67.123-.506.15-2.72l.027-3.056h-2.023l-.075-.103.58-1.969h-2.508v-.745h9.112v.745h-5.633l-.45 1.402h1.913v2.755q0 2.05-.123 3.35-.116 1.298-.444 1.585-.321.28-.643.356-.32.075-1.62.047zm6.228-.116q-.656-.82-1.21-1.811-.588 1.066-1.333 1.9l-.656-.513q.854-.97 1.504-2.365-.814-1.839-1.142-3.52l.766-.185q.287 1.326.82 2.618.656-1.818.656-3.315h-2.242v-.745h3.24q-.027 2.632-1.141 5.16.629 1.197 1.442 2.12zm-7.24-1.852v.328h-.813v-4.744h2.728v4.416zm1.115-3.787h-1.114v3.13h1.114zm-2.584 7.3v-.813h9.509v.813zM200.284 103.595h-2.03l-.11-1.019h1.798q.656 0 .656-.512v-10.65h1.155v11.08q0 .506-.417.8-.41.301-1.052.301zm6.555-3.07q-.806-1.257-1.647-3.356-.84-2.098-1.183-3.26l1.074-.28q.492 1.695 1.305 3.492t1.45 2.803zm-11.525.083-.855-.568q1.053-1.264 1.744-3.09.697-1.825.854-3.15l1.128.17q-.287 1.77-1.066 3.61-.773 1.831-1.805 3.028z"/>
</g>
<g stroke-miterlimit="100000">
<path d="M135.57 336.395H-59.446v-115.81" fill="none" marker-end="url(#a)" marker-start="url(#b)" stroke="#000" transform="translate(98.012 -218.143)"/>
<g stroke-linejoin="round" stroke-width="1.61">
<path d="M210.656 124.049c-.619.116-.85.58-.85.947 0 .463.367.618.637.618.58 0 .985-.502.985-1.024 0-.811-.927-1.179-1.738-1.179-1.179 0-1.836 1.16-2.01 1.527-.444-1.45-1.642-1.527-1.99-1.527-1.97 0-3.013 2.531-3.013 2.956 0 .078.077.174.212.174.155 0 .193-.116.232-.193.657-2.144 1.951-2.55 2.512-2.55.869 0 1.043.811 1.043 1.275 0 .425-.116.87-.348 1.797l-.657 2.646c-.29 1.16-.85 2.222-1.874 2.222-.096 0-.58 0-.985-.251a.997.997 0 0 0 .85-.947c0-.386-.29-.618-.657-.618-.463 0-.966.406-.966 1.024 0 .811.908 1.179 1.739 1.179.927 0 1.584-.735 1.99-1.527.309 1.14 1.275 1.527 1.99 1.527 1.97 0 3.014-2.531 3.014-2.956 0-.097-.078-.174-.194-.174-.173 0-.193.096-.25.25-.522 1.701-1.643 2.493-2.512 2.493-.676 0-1.044-.502-1.044-1.294 0-.425.078-.734.387-2.01l.676-2.627c.29-1.16.947-2.01 1.835-2.01.039 0 .58 0 .986.252zM8.131 27.145c.387 0 .541 0 .541-.367 0-.193-.154-.193-.502-.193H6.605c.367-1.99.638-3.362.792-3.98.116-.464.522-.908 1.024-.908.406 0 .811.174 1.005.348-.754.077-.986.637-.986.966 0 .386.29.618.657.618.387 0 .966-.329.966-1.063 0-.811-.811-1.255-1.661-1.255-.831 0-1.642.618-2.029 1.371-.348.676-.54 1.372-.985 3.903H4.093c-.367 0-.56 0-.56.347 0 .213.116.213.502.213h1.237c-.348 1.797-1.14 6.163-1.584 8.23-.329 1.68-.618 3.091-1.584 3.091-.058 0-.619 0-.966-.367.985-.077.985-.927.985-.947 0-.386-.29-.618-.657-.618-.386 0-.966.329-.966 1.063 0 .83.85 1.256 1.604 1.256 1.97 0 2.782-3.536 2.994-4.502.348-1.487 1.294-6.626 1.391-7.206zM17.18 39.606c0-.058 0-.097-.328-.425-1.932-1.951-3.013-5.139-3.013-9.08 0-3.748.908-6.975 3.149-9.254.193-.174.193-.213.193-.27 0-.117-.097-.155-.174-.155-.251 0-1.835 1.39-2.782 3.284-.985 1.951-1.43 4.019-1.43 6.395 0 1.72.27 4.018 1.275 6.085 1.14 2.319 2.724 3.575 2.937 3.575.077 0 .174-.039.174-.155zM27.415 27.029c-.618.116-.85.58-.85.947 0 .463.367.618.638.618.58 0 .985-.502.985-1.024 0-.811-.927-1.179-1.739-1.179-1.178 0-1.835 1.16-2.009 1.527-.444-1.45-1.642-1.527-1.99-1.527-1.97 0-3.014 2.531-3.014 2.956 0 .078.078.174.213.174.154 0 .193-.116.232-.193.657-2.144 1.951-2.55 2.511-2.55.87 0 1.043.811 1.043 1.275 0 .425-.115.87-.347 1.797l-.657 2.646c-.29 1.16-.85 2.222-1.874 2.222-.097 0-.58 0-.985-.251a.997.997 0 0 0 .85-.947c0-.386-.29-.618-.657-.618-.464 0-.966.406-.966 1.024 0 .811.908 1.179 1.739 1.179.927 0 1.584-.735 1.99-1.527.309 1.14 1.275 1.527 1.99 1.527 1.97 0 3.013-2.531 3.013-2.956 0-.097-.077-.174-.193-.174-.174 0-.193.096-.251.25-.522 1.701-1.642 2.493-2.512 2.493-.676 0-1.043-.502-1.043-1.294 0-.425.077-.734.386-2.01l.677-2.627c.29-1.16.946-2.01 1.835-2.01.039 0 .58 0 .985.252zM34.456 30.101c0-1.468-.194-3.864-1.275-6.105-1.14-2.318-2.725-3.574-2.937-3.574-.077 0-.174.039-.174.155 0 .058 0 .096.329.425 1.931 1.95 3.013 5.139 3.013 9.08 0 3.748-.908 6.974-3.149 9.254-.193.174-.193.212-.193.27 0 .116.097.155.174.155.251 0 1.835-1.391 2.782-3.285.985-1.97 1.43-4.057 1.43-6.375z"/>
</g>
</g>
</svg>
