<svg width="158.03" height="123.44" xmlns="http://www.w3.org/2000/svg">
<defs>
<marker id="a" overflow="visible" orient="auto">
<path d="m-10 0-4 4L0 0l-14-4z" fill="red" fill-rule="evenodd" stroke="red" stroke-width=".8pt"/>
</marker>
<marker id="b" overflow="visible" orient="auto">
<path d="m-10 0-4 4L0 0l-14-4z" fill-rule="evenodd" stroke="#000" stroke-width=".8pt"/>
</marker>
</defs>
<path d="m91.363 74.125-14.841-2.907m32.576 6.381-17.735-3.474m39.304 7.7-21.569-4.226m48.363 9.474-26.794-5.248m-67.655-8.131 13.51-2.476m1.293 5.87 13.548-2.963m4.414 7.08 13.321-3.606m8.933 8.708 12.636-4.482m15.656 10.969 11.139-5.72m-79.647-9.987-14.803-3.393m32.765 7.511-17.962-4.118m40.216 9.22-22.254-5.102m50.546 11.589-28.292-6.487m-70.806-9.72 15.787-2.893m-1.269 6.908 16.071-3.515m1.868 8.475 16.095-4.357m6.635 10.643 15.619-5.54m14.119 13.764 14.173-7.278m-84.58-12.192-14.518-4.015m32.457 8.975-17.939-4.96m40.669 11.246-22.73-6.286m52.468 14.51-29.738-8.224M28.534 80.012l18.691-3.425m-4.855 8.25 19.373-4.235m-1.897 10.33 19.836-5.37m2.932 13.31 19.798-7.024m11.096 17.798 18.642-9.574M6.056 84.132l12.508 5.911 16.23 7.67L56.7 108.066l31.187 14.738M42.371 84.838l-13.836-4.826m31.31 10.92-17.474-6.094m40.243 14.034-22.768-7.94m53.662 18.714L82.614 98.872M6.056 84.132l22.479-4.12m-9.971 10.031 23.807-5.205m-7.577 12.875 25.052-6.781m-3.147 17.134 25.915-9.194m5.272 23.932 25.622-13.158" color="#000" fill="none" stroke="#000" stroke-width=".3"/>
<path d="m-10.58 332.573 72.708 20.6" color="#000" fill="none" marker-end="url(#a)" stroke="red" transform="translate(16.158 -248.45)"/>
<g stroke-linejoin="round" stroke-miterlimit="100000" stroke-width="1.333">
<path d="M130.458 60.126c.095-.21.095-.249.095-.344a.384.384 0 0 0-.382-.383c-.172 0-.306.096-.44.44l-3.347 8.78c-.039.115-.096.23-.096.344 0 .058 0 .096.096.325l3.347 8.78c.076.21.172.46.44.46.21 0 .382-.173.382-.383 0-.058 0-.096-.095-.306l-3.386-8.876zM135.047 71.546c-.765 1.282-1.511 1.55-2.353 1.607-.23.019-.402.019-.402.382 0 .115.096.21.25.21.516 0 1.109-.057 1.644-.057.631 0 1.3.058 1.913.058.115 0 .363 0 .363-.364 0-.21-.172-.23-.306-.23-.44-.038-.899-.19-.899-.669 0-.23.115-.44.268-.707l1.454-2.449h4.801c.038.402.306 3.003.306 3.195 0 .573-.995.63-1.377.63-.268 0-.46 0-.46.383 0 .21.23.21.269.21.784 0 1.606-.057 2.39-.057.479 0 1.684.058 2.162.058.115 0 .344 0 .344-.383 0-.21-.19-.21-.44-.21-1.185 0-1.185-.134-1.243-.689l-1.167-11.955c-.038-.383-.038-.46-.363-.46-.306 0-.383.135-.497.326zm2.295-2.812 3.769-6.312.612 6.312zM151.137 69.289c.096-.23.096-.268.096-.325 0-.058 0-.096-.096-.325l-3.348-8.8c-.114-.325-.23-.44-.44-.44a.384.384 0 0 0-.382.383c0 .058 0 .096.096.306l3.385 8.876-3.385 8.837c-.096.21-.096.249-.096.344 0 .21.172.383.383.383.248 0 .325-.191.401-.383zM20.15 5.79c.095-.21.095-.249.095-.344a.384.384 0 0 0-.382-.383c-.173 0-.306.096-.44.44l-3.348 8.78c-.038.115-.095.23-.095.344 0 .058 0 .096.095.325l3.348 8.78c.076.21.172.46.44.46.21 0 .382-.173.382-.383 0-.058 0-.096-.095-.306l-3.386-8.876zM24.738 17.21c-.765 1.282-1.511 1.55-2.353 1.607-.23.019-.402.019-.402.382 0 .115.096.21.249.21.516 0 1.11-.057 1.645-.057.631 0 1.3.058 1.913.058.115 0 .363 0 .363-.364 0-.21-.172-.23-.306-.23-.44-.038-.899-.19-.899-.669 0-.23.115-.44.268-.707l1.454-2.449h4.801c.038.402.306 3.003.306 3.195 0 .573-.995.63-1.377.63-.268 0-.46 0-.46.383 0 .21.23.21.269.21.784 0 1.606-.057 2.39-.057.479 0 1.684.058 2.162.058.115 0 .344 0 .344-.383 0-.21-.19-.21-.44-.21-1.186 0-1.186-.134-1.243-.689L32.255 6.173c-.038-.383-.038-.46-.363-.46-.306 0-.383.135-.498.326zm2.295-2.812 3.768-6.312.613 6.312zM40.829 14.953c.095-.23.095-.268.095-.325 0-.058 0-.096-.095-.325l-3.348-8.8c-.115-.325-.23-.44-.44-.44a.384.384 0 0 0-.382.383c0 .058 0 .096.095.306l3.386 8.876-3.386 8.837c-.095.21-.095.249-.095.344 0 .21.172.383.382.383.249 0 .325-.191.402-.383zM49.404 1.022c0-.2 0-.522-.32-.522-.336 0-.336.308-.336.522v8.114h-4.083c-.201 0-.536 0-.536.322 0 .334.308.334.536.334h8.823c.215 0 .536 0 .536-.321 0-.335-.308-.335-.536-.335h-4.083z"/>
</g>
<g fill="red" stroke-linejoin="round" stroke-miterlimit="100000" stroke-width="1.333">
<path d="M90.263 105.866c.115-.478.306-1.243.306-1.415 0-.613-.497-.842-.9-.842-.363 0-.745.191-.975.478-.287-.306-.918-.803-2.027-.803-3.329 0-5.394 3.022-5.394 5.643 0 2.352 1.76 3.156 3.347 3.156 1.358 0 2.353-.746 2.659-1.033.727 1.033 1.99 1.033 2.2 1.033.707 0 1.262-.402 1.664-1.09.478-.766.727-1.799.727-1.894 0-.268-.287-.268-.46-.268-.21 0-.286 0-.382.095-.038.039-.038.077-.153.555-.383 1.53-.823 1.913-1.3 1.913-.211 0-.44-.076-.44-.708 0-.325.076-.631.267-1.396.134-.536.325-1.3.42-1.722zm-3.175 4.285c-.555.65-1.454 1.243-2.372 1.243-1.186 0-1.282-1.033-1.282-1.454 0-.994.65-3.347.957-4.093.593-1.396 1.53-1.875 2.314-1.875 1.129 0 1.588.9 1.588 1.11l-.039.268zM97.003 106.283c0-.362-.027-.375-.402-.375-.857.844-2.075.857-2.624.857v.482c.321 0 1.205 0 1.942-.375v6.829c0 .442 0 .616-1.34.616h-.508v.482a98.47 98.47 0 0 1 2.383-.054c.415 0 2.102.04 2.397.054v-.482h-.509c-1.339 0-1.339-.174-1.339-.616zM51.906 62.025c.115-.478.306-1.243.306-1.415 0-.613-.497-.842-.9-.842-.363 0-.745.191-.975.478-.287-.306-.918-.803-2.027-.803-3.329 0-5.394 3.022-5.394 5.643 0 2.352 1.76 3.156 3.347 3.156 1.358 0 2.353-.746 2.659-1.033.727 1.033 1.99 1.033 2.2 1.033.707 0 1.262-.402 1.664-1.09.478-.766.727-1.799.727-1.894 0-.268-.287-.268-.46-.268-.21 0-.286 0-.382.095-.038.039-.038.077-.153.555-.383 1.53-.823 1.913-1.3 1.913-.211 0-.44-.076-.44-.708 0-.325.076-.631.267-1.396.134-.536.325-1.3.42-1.722zM48.73 66.31c-.555.65-1.454 1.243-2.372 1.243-1.186 0-1.282-1.033-1.282-1.454 0-.994.65-3.347.957-4.093.593-1.396 1.53-1.875 2.314-1.875 1.129 0 1.588.9 1.588 1.11l-.039.268zM60.922 68.521h-.455c-.04.295-.174 1.085-.348 1.218-.107.08-1.138.08-1.326.08H56.33c1.406-1.244 1.874-1.62 2.678-2.249.99-.79 1.914-1.62 1.914-2.892 0-1.62-1.419-2.61-3.133-2.61-1.66 0-2.785 1.164-2.785 2.396 0 .683.576.75.71.75.321 0 .71-.228.71-.71 0-.241-.094-.71-.79-.71.414-.95 1.325-1.245 1.954-1.245 1.34 0 2.036 1.045 2.036 2.13 0 1.164-.83 2.088-1.26 2.57l-3.226 3.187c-.134.12-.134.147-.134.522h5.517z"/>
</g>
<g fill="none" color="#000">
<path d="m-10.58 332.573 66.344-4.148" marker-end="url(#a)" stroke="red" transform="translate(16.158 -248.45)"/>
<path d="M-10.58 332.573v-78.217" marker-end="url(#b)" stroke="#000" style="isolation:auto;mix-blend-mode:normal" transform="translate(16.158 -248.45)"/>
<path d="m-10.58 316.319 16.229.903v16.254" stroke="#000" style="isolation:auto;mix-blend-mode:normal" transform="translate(16.158 -248.45)"/>
</g>
</svg>
