<svg width="201.755" height="119.91" xmlns="http://www.w3.org/2000/svg">
<defs>
<marker id="a" overflow="visible" orient="auto">
<path d="m-4 0-2 2 7-2-7-2z" fill-rule="evenodd" stroke="#000" stroke-width=".4pt"/>
</marker>
<marker id="b" overflow="visible" orient="auto">
<path d="m-4 0-2 2 7-2-7-2z" fill="red" fill-rule="evenodd" stroke="red" stroke-width=".4pt"/>
</marker>
<marker id="c" overflow="visible" orient="auto">
<path d="m-4 0-2 2 7-2-7-2z" fill-rule="evenodd" stroke="#000" stroke-width=".4pt"/>
</marker>
</defs>
<g fill="#0000f8" stroke-linejoin="round" stroke-miterlimit="100000" stroke-width="1.333">
<path d="M139.933 65.472c-2.161 1.173-3.31 4.055-2.711 6.29.475 1.775 2.014 2.788 3.751 2.323 2.162-.58 2.918-3.891 2.235-6.44-.45-1.682-1.437-2.408-2.288-3.071-.888-.653-2.35-1.747-2.567-2.56-.11-.407.141-.949.788-1.122.554-.149.988-.007 1.446.147.428.123.862.264 1.14.19.461-.124.62-.642.54-.937-.108-.407-.419-.383-1.124-.353-1.015.055-1.274.124-1.57.203-1.44.386-1.893 1.359-1.596 2.468.268.997 1.08 1.888 1.956 2.862zm.33.347c.69.726 1.512 1.575 1.868 2.906.327 1.22.451 4.493-1.267 4.953-1.016.273-1.982-.3-2.358-1.705-.312-1.164-.559-4.82 1.757-6.154zM158.64 64.954c-.001-.297.012-.32.137-.373.212-.097.47-.166.692-.226.462-.123.757-.203.614-.738-.025-.093-.145-.318-.477-.229-.407.109-.822.26-1.247.374-.406.109-.826.24-1.233.35-.739.198-2.564.628-3.303.826-.222.059-.573.153-.43.689.09.332.422.243.718.164l.683-.183c.204-.055 1.22-.327 1.25-.216.004.018.014.055.004.534.016.134.037 1.396.024 1.419.022 1.34-1.327 2.217-2.491 2.529-1.072.287-2.24.362-3.296-.107-1.197-.55-1.539-1.826-1.648-2.232-.228-.85-.726-4.261.527-6.755.75-1.488 2.315-2.74 4.2-3.245 2.328-.624 3.677.936 4.083 2.451.054.203.073.495.122.68.075.277.315.213.574.144.406-.11.42-.133.408-.546l-.06-4.439c-.007-.097.005-.2-.025-.31-.069-.26-.328-.19-.53-.135l-1.363 1.79c-.468-.27-1.686-.973-3.737-.424-5.913 1.584-7.989 6.992-6.974 10.78.906 3.381 3.942 4.29 7.379 3.37 1.94-.52 3.06-1.513 3.483-2.3.59.357 1.661.585 1.79.55.185-.05.183-.207.183-.504zM172.712 53.067c-.144-.536-.706-.86-1.242-.717s-.86.706-.717 1.242.706.86 1.242.717a1.02 1.02 0 0 0 .716-1.242zM178.69 57.265c.277-.074.628-.168.529-.538-.1-.37-.45-.275-.709-.206l-11.067 2.965c-.26.07-.61.164-.511.533.099.37.45.276.727.202zm.978 3.58c.26-.07.61-.164.511-.533-.099-.37-.45-.276-.727-.202l-11.03 2.956c-.278.074-.629.168-.53.538.1.37.45.275.709.206zM195.311 52.969c-.48-1.792-1.681-6.203-6.134-5.01-4.453 1.193-3.293 5.595-2.808 7.406.49 1.83 1.652 6.092 6.105 4.9 4.434-1.189 3.333-5.448 2.838-7.296zm-3.015 6.63c-.665.178-1.809.05-2.41-1.235-.424-.916-.94-2.838-1.212-3.854-.356-1.33-.678-2.532-.787-3.532-.22-1.704 1.025-2.235 1.468-2.354.684-.183 1.535-.035 2.104.684.497.6 1.022 2.558 1.428 4.073.277 1.035.728 2.716.856 3.711.202 1.788-.893 2.359-1.447 2.507z"/>
</g>
<g stroke-linejoin="round" stroke-miterlimit="100000" stroke-width="1.333">
<path d="M84.192 110.822c-2.391.574-4.247 3.06-4.247 5.375 0 1.836 1.225 3.214 3.023 3.214 2.238 0 3.825-3.004 3.825-5.643 0-1.74-.765-2.697-1.415-3.558-.689-.86-1.817-2.295-1.817-3.137 0-.421.382-.88 1.052-.88.574 0 .956.249 1.358.516.382.23.765.479 1.052.479.478 0 .765-.46.765-.765 0-.421-.306-.479-.995-.632-.994-.21-1.262-.21-1.568-.21-1.492 0-2.18.822-2.18 1.97 0 1.033.554 2.104 1.147 3.271zm.23.42c.478.88 1.052 1.914 1.052 3.29 0 1.263-.727 4.458-2.506 4.458-1.052 0-1.837-.804-1.837-2.257 0-1.205.708-4.802 3.29-5.49zM98.588 111.511a1.429 1.429 0 0 0-1.033 1.32c0 .42.326.88.957.88.67 0 1.377-.555 1.377-1.492 0-1.014-1.014-1.684-2.18-1.684-1.09 0-1.799.823-2.047 1.167-.478-.803-1.55-1.167-2.64-1.167-2.41 0-3.71 2.353-3.71 2.984 0 .268.286.268.458.268.23 0 .364 0 .44-.248.555-1.741 1.932-2.315 2.716-2.315.727 0 1.072.344 1.072.956 0 .364-.268 1.416-.44 2.105l-.65 2.62c-.288 1.167-.976 1.74-1.627 1.74-.095 0-.535 0-.918-.286a1.429 1.429 0 0 0 1.033-1.32c0-.42-.325-.88-.956-.88-.67 0-1.377.555-1.377 1.492 0 1.014 1.013 1.683 2.18 1.683 1.09 0 1.798-.822 2.047-1.166.478.803 1.55 1.166 2.64 1.166 2.41 0 3.71-2.352 3.71-2.984 0-.267-.286-.267-.459-.267-.23 0-.363 0-.44.248-.554 1.741-1.932 2.315-2.716 2.315-.727 0-1.071-.344-1.071-.957 0-.401.249-1.415.42-2.123.135-.497.575-2.295.67-2.601.287-1.148.957-1.74 1.626-1.74.096 0 .536 0 .918.286z" fill="red"/>
<path d="M119.397 112.926c.287 0 .65 0 .65-.383s-.363-.382-.631-.382h-11.458c-.268 0-.631 0-.631.382 0 .383.363.383.65.383zm.019 3.71c.268 0 .631 0 .631-.382s-.363-.382-.65-.382h-11.42c-.287 0-.65 0-.65.382s.363.383.631.383zM132.186 113.137h3.252c2.716 0 5.375-1.99 5.375-4.132 0-1.473-1.263-2.888-3.769-2.888h-6.197c-.364 0-.574 0-.574.363 0 .23.172.23.555.23.248 0 .593.019.822.038.306.039.421.096.421.306 0 .077-.019.134-.076.364l-2.564 10.272c-.19.746-.23.899-1.74.899-.325 0-.536 0-.536.363 0 .23.23.23.287.23.536 0 1.894-.058 2.43-.058.401 0 .822.02 1.224.02.42 0 .841.038 1.243.038.134 0 .382 0 .382-.383 0-.21-.172-.21-.535-.21-.708 0-1.243 0-1.243-.345 0-.114.038-.21.057-.325zm1.377-5.7c.172-.67.21-.727 1.033-.727h1.836c1.588 0 2.602.516 2.602 1.836 0 .746-.383 2.391-1.129 3.08-.956.86-2.104 1.014-2.946 1.014h-2.697zM146.331 110.822c-2.39.574-4.246 3.06-4.246 5.375 0 1.836 1.224 3.214 3.022 3.214 2.238 0 3.826-3.004 3.826-5.643 0-1.74-.766-2.697-1.416-3.558-.689-.86-1.817-2.295-1.817-3.137 0-.421.382-.88 1.052-.88.574 0 .956.249 1.358.516.383.23.765.479 1.052.479.478 0 .765-.46.765-.765 0-.421-.306-.479-.994-.632-.995-.21-1.263-.21-1.569-.21-1.492 0-2.18.822-2.18 1.97 0 1.033.554 2.104 1.147 3.271zm.23.42c.478.88 1.052 1.914 1.052 3.29 0 1.263-.727 4.458-2.506 4.458-1.052 0-1.836-.804-1.836-2.257 0-1.205.707-4.802 3.29-5.49zM157.342 106.977c-.23-.536-.478-1.071-2.831-1.071-.44 0-.765 0-.765.363 0 .287.268.325.287.325.306.039.516.058.822.517.23.363 2.22 4.916 2.659 5.91l-5.528 4.457c-.23.173-.612.498-.612 1.014 0 .536.44.918.918.918.536 0 .918-.42 1.454-.994.038-.058.975-1.033 1.052-1.11.708-.727 2.41-2.601 3.137-3.309l1.836 4.132c.058.153.23.516.287.67.172.344.536.535 1.205.535h.957c.344 0 .573 0 .573-.268 0-.096-.057-.172-.095-.23-.153-.152-.325-.516-.46-.822z"/>
</g>
<path d="m-60.118 368.277 200.237-53.699" color="#000" fill="none" stroke="#00f" stroke-width="2" style="isolation:auto;mix-blend-mode:normal" transform="translate(60.877 -250.214)"/>
<path d="M44.357 14.045c-2.39.574-4.246 3.06-4.246 5.375 0 1.836 1.224 3.214 3.022 3.214 2.238 0 3.826-3.004 3.826-5.643 0-1.74-.765-2.697-1.416-3.558-.688-.86-1.817-2.295-1.817-3.137 0-.421.383-.88 1.052-.88.574 0 .956.249 1.358.516.383.23.765.479 1.052.479.478 0 .765-.46.765-.765 0-.421-.306-.479-.994-.632-.995-.21-1.263-.21-1.569-.21-1.492 0-2.18.822-2.18 1.97 0 1.033.554 2.104 1.147 3.271zm.23.42c.478.88 1.052 1.914 1.052 3.29 0 1.263-.727 4.458-2.506 4.458-1.052 0-1.836-.804-1.836-2.257 0-1.205.707-4.802 3.29-5.49zM55.368 10.201c-.23-.536-.478-1.071-2.831-1.071-.44 0-.765 0-.765.363 0 .287.268.325.287.325.306.039.516.058.822.517.23.363 2.22 4.916 2.66 5.91l-5.529 4.457c-.23.173-.612.498-.612 1.014 0 .536.44.918.918.918.536 0 .918-.42 1.454-.994.038-.058.975-1.033 1.052-1.11.708-.727 2.41-2.601 3.137-3.309l1.836 4.132c.058.153.23.516.287.67.172.344.536.535 1.205.535h.957c.344 0 .574 0 .574-.268 0-.096-.058-.172-.096-.23-.153-.152-.325-.516-.46-.822z"/>
<g fill="none">
<path d="m75.667 4.23 23.664 87.399" stroke="#000" stroke-dasharray="3, 3" stroke-miterlimit="100"/>
<path d="M-20.466 357.644 14.79 254.445" color="#000" marker-end="url(#a)" stroke="#000" stroke-width="2" style="isolation:auto;mix-blend-mode:normal" transform="translate(60.877 -250.214)"/>
<path d="m-20.466 357.644 58.92-15.8" color="#000" marker-end="url(#b)" stroke="red" stroke-width="2" style="isolation:auto;mix-blend-mode:normal" transform="translate(60.877 -250.214)"/>
<path d="m96.034 79.326 12.303-3.296 3.296 12.302" stroke="#000" stroke-miterlimit="100"/>
<path d="m34.313 275.861 7.181 26.802" marker-end="url(#c)" stroke="#000" stroke-miterlimit="100" transform="translate(60.877 -250.214)"/>
</g>
<path d="M107.957 34.461h2.71c2.263 0 4.479-1.658 4.479-3.443 0-1.227-1.053-2.407-3.14-2.407h-5.165c-.303 0-.479 0-.479.303 0 .191.144.191.463.191.207 0 .494.016.685.032.255.032.35.08.35.255 0 .064-.015.112-.063.303l-2.136 8.56c-.16.621-.191.749-1.45.749-.271 0-.447 0-.447.303 0 .191.191.191.24.191.446 0 1.577-.048 2.024-.048.334 0 .685.016 1.02.016.35 0 .701.032 1.036.032.112 0 .319 0 .319-.319 0-.175-.144-.175-.447-.175-.59 0-1.036 0-1.036-.287 0-.096.032-.175.048-.27zm1.147-4.75c.144-.558.176-.606.861-.606h1.53c1.323 0 2.168.43 2.168 1.53 0 .622-.319 1.993-.94 2.567-.797.717-1.754.845-2.455.845h-2.248z"/>
</svg>
