<svg width="192.322" height="144.279" viewBox="0 0 192.322 144.28" xmlns="http://www.w3.org/2000/svg">
<path d="M20.251 121.35V25.314A23.636 23.636 0 0 1 43.94 1.626h66.51a23.636 23.636 0 0 1 23.687 23.688v96.036" fill="none" stroke="#5e5bff" stroke-linejoin="round" stroke-miterlimit="100" stroke-width="2.252"/>
<path d="M55.485 51.998 44.39 41.648l-3.875-11.932 13.426-8.312 16.855-6.648 4.166 15.453-1.945 12.898-13.171-.662z" fill="#8e8e8e"/>
<path d="m40.516 29.716 13.426-8.312 1.693 9.492-3.702 8.885z" fill="#a0a0a0"/>
<path d="m40.516 29.716 3.875 11.931 11.094 10.351-3.552-12.217z" fill="#8e8e8e"/>
<path d="m55.485 51.998 4.362-9.553-4.23-11.546-3.684 8.882z" fill="#575757"/>
<path d="m73.018 43.107-13.171-.662-4.19-11.427 12.592-1.696z" fill="#8e8e8e"/>
<path d="m73.018 43.107 1.945-12.898-4.166-15.453L68.25 29.32z" fill="#575757"/>
<path d="m53.942 21.404 16.855-6.648-2.548 14.566-12.593 1.696z" fill="#a0a0a0"/>
<g stroke="#000">
<path d="M84.908 48.763c12.996-9.634 27.058-29.173 26.645-31.65" fill="none" stroke-miterlimit="100000" stroke-width=".724"/>
<path d="M91.117 43.321c-.986 0 12.876-27.696 20.37-26.04 6.864 1.515-5.12 22.445-20.37 26.04z" fill="#fff" fill-opacity=".991" stroke-miterlimit="100000" stroke-width=".724"/>
<g fill="none" stroke-miterlimit="100">
<path d="M91.64 43.04c6.528-6.196 12.642-13.738 16.332-19.133" stroke-width=".434"/>
<g stroke-width=".29">
<path d="m96.56 34.88-.331 3.527 3.848-.635M99.042 31.362l-.277 4.255 4.775-1.309M101.923 27.174l-.284 5.078 5.026-1.652"/>
</g>
</g>
</g>
<path d="M70.193 59.294v28.24h-9.52l16.5 15.76 16.5-15.76h-9.518v-28.24z" fill="red"/>
<path fill="#fffefe" stroke="#5e5bff" stroke-miterlimit="100" stroke-width="1.3" d="M98.294 91.398h92.877v21.361H98.294z"/>
<path d="M115.781 107.799h-1.909l-.116-.897h1.714q.26 0 .44-.154.182-.154.182-.34V97.57h-8.897v10.35h-.958v-11.1h10.838v9.947q0 .423-.375.724-.37.308-.919.308zm-7.57-8.127v-.776h6.774v.776zm1.585 5.57v.653h-.977v-4.62h5.694v3.967zm0-.763h3.74v-2.468h-3.74zM128.192 107.857h-1.663l-.123-.923h1.365q.227 0 .402-.147.18-.154.18-.346v-2.974h-5v-.789h5v-1.474h-5.163v-.788h3.294v-1.782h-2.847v-.801h2.847v-1.596h1.042v1.596h3.04v.8h-3.04v1.783h3.526v.788h-1.657v1.474h1.307v.789h-1.307v3.416q0 .436-.355.705-.356.269-.848.269zm-7.926-2.211v.859h-.958v-9.557h3.41v8.698zm1.488-7.935h-1.488v3.05h1.488zm-1.488 3.788v3.384h1.488v-3.384zm5.15 5.018q-.491-.673-1.676-2.128l.77-.506q.887.968 1.747 2.09zM134.798 107.267l-.925.212q-.667-2.11-.667-4.577 0-2.692.887-5.807l.996.173q-.893 2.917-.893 5.685 0 2.276.602 4.314zm8.76-8.467q-1.028-.019-1.94-.019-1.34 0-4.847.18 0-.289-.038-.866 3.332-.192 5.415-.192 1.036 0 1.378.02v.057q0 .295.033.82zm.078 8.153q-1.352.14-2.646.14-1.799 0-2.692-.204-.886-.212-1.345-.692-.46-.481-.46-1.237 0-1.103.97-2.327l.751.397q-.795.866-.795 1.872 0 .5.427.808.433.307 1.151.41.725.096 2.051.096 1.346 0 2.588-.154zM154.073 97.871v.603h-.945v-.603h-3.571v.629h-.958v-.629h-3.216v-.737h3.216v-.794h.958v.794h3.571v-.794h.945v.794h3.397v.737zm-3.552 2.667q-.79.782-1.437 1.211l-.537-.493q1.825-1.366 2.647-2.93l.931.174q-.174.32-.459.724h4.393l.26.25q-.868 1.628-2.479 2.705 1.76.807 3.733 1.115l-.446.762q-2.375-.448-4.102-1.39-1.792.955-4.264 1.365l-.227-.686q2.149-.378 3.701-1.16-1.1-.756-1.714-1.647zm.602-.635-.059.064q.738 1.051 1.941 1.776 1.346-.866 1.948-1.84zm-3.28.936q-.726-.718-1.754-1.468l.647-.634q.711.538 1.786 1.448zm-.732 2.32q-.699-.666-1.766-1.461l.634-.667q.62.468 1.811 1.43zm-.796 4.577-.796-.545q.498-.577 1.068-1.583.57-1.007.809-1.686l.854.295q-.233.66-.841 1.782-.602 1.115-1.094 1.737zm9-.225h-4.717v.36h-.983v-3.802h6.677v3.801h-.977zm-4.717-.737h4.717v-1.98h-4.717zM161.999 107.517l-.039-.917q1.23.135 2.575.135 1.922.006 3.158-.602 1.242-.61 1.242-1.763 0-.635-.207-.993-.207-.36-.828-.686-.615-.327-1.67-.327-1.345.006-2.84.513-1.488.506-2.316 1.294l-.647-.628q1.294-1.647 1.76-3.993h-3.261v-.852h3.403q.162-1.116.162-1.878l1.06.012q-.038.981-.148 1.866h7.17v.852h-7.312q-.278 1.596-1.165 3.032.835-.449 2.006-.725 1.171-.275 2.187-.275 1.604 0 2.646.724 1.042.724 1.042 2.013 0 1.634-1.437 2.474-1.436.833-4.018.833-1.436 0-2.523-.109zM179.74 106.671q2.426-.577 2.426-2.474 0-1.173-.893-1.814-.892-.64-2.38-.64-1.023 0-2 .256-.97.256-2.239 1.044-1.261.789-1.76 1.205l-.478-.788q3.94-2.519 7.7-5.3l-6.549.025v-.852h7.9l.453.653-4.561 3.128.052.077q.789-.237 1.572-.237 1.857 0 3.047.846 1.197.846 1.197 2.34 0 1.75-1.462 2.672-1.462.917-3.92.917-3.378 0-3.378-1.84 0-.724.698-1.218.7-.493 1.534-.493 1.171 0 2.006.647.834.647 1.035 1.846zm-.951.167q-.375-1.84-2.019-1.84-.524 0-.945.257-.414.256-.414.679 0 .98 2.29.98.5 0 1.088-.076z"/>
<path transform="rotate(-90)" color="#000" fill="#cacaca" style="isolation:auto;mix-blend-mode:normal" d="M-143.78.499h23.496v153.39h-23.496z"/>
<path d="M.499 120.284h153.39" color="#000" fill="none" stroke="#555" stroke-linejoin="round" stroke-miterlimit="100" stroke-width="3" style="isolation:auto;mix-blend-mode:normal"/>
</svg>
