<svg width="145.85" height="99.795" xmlns="http://www.w3.org/2000/svg" xmlns:xlink="http://www.w3.org/1999/xlink">
<defs>
<path id="a" d="M3.156-5.224C1.662-4.866.502-3.312.502-1.865c0 1.148.765 2.008 1.89 2.008 1.398 0 2.39-1.877 2.39-3.526 0-1.088-.478-1.686-.885-2.224-.43-.538-1.135-1.435-1.135-1.96 0-.264.239-.55.657-.55.359 0 .598.155.85.322.238.144.477.3.657.3.298 0 .478-.288.478-.48 0-.262-.191-.298-.622-.394-.622-.131-.789-.131-.98-.131-.933 0-1.363.514-1.363 1.231 0 .646.347 1.315.717 2.045zm.144.263c.299.55.657 1.195.657 2.056 0 .789-.454 2.786-1.566 2.786-.657 0-1.148-.503-1.148-1.411 0-.753.443-3 2.057-3.431z"/>
<path id="e" d="M2.463-4.782h1.124c.239 0 .358 0 .358-.24 0-.13-.12-.13-.334-.13H2.558c.43-1.698.49-1.937.49-2.01 0-.202-.143-.322-.346-.322-.036 0-.37.012-.478.43l-.467 1.901H.634c-.24 0-.359 0-.359.227 0 .144.096.144.335.144h1.052C.8-1.387.753-1.184.753-.968c0 .645.455 1.1 1.1 1.1 1.22 0 1.901-1.746 1.901-1.842 0-.12-.096-.12-.143-.12-.108 0-.12.037-.18.168-.514 1.244-1.147 1.53-1.554 1.53-.251 0-.37-.155-.37-.55 0-.286.023-.37.071-.573z"/>
<path id="b" d="M3.993-3.61c.072-.311.347-1.411 1.184-1.411.06 0 .346 0 .597.155-.334.06-.573.359-.573.646 0 .191.131.418.454.418a.667.667 0 0 0 .645-.693c0-.622-.705-.79-1.111-.79-.694 0-1.112.634-1.256.91-.299-.79-.944-.91-1.29-.91-1.244 0-1.926 1.543-1.926 1.842 0 .12.12.12.144.12.095 0 .131-.024.155-.132.407-1.267 1.196-1.566 1.602-1.566.227 0 .646.107.646.8 0 .371-.203 1.172-.646 2.846-.191.741-.61 1.243-1.136 1.243-.071 0-.346 0-.597-.155.299-.06.562-.31.562-.646 0-.322-.263-.418-.443-.418-.358 0-.657.31-.657.693 0 .55.597.79 1.124.79.789 0 1.219-.837 1.255-.91a1.32 1.32 0 0 0 1.291.91C5.248.131 5.93-1.412 5.93-1.71c0-.12-.108-.12-.144-.12-.107 0-.131.049-.155.132C5.236-.418 4.423-.132 4.04-.132c-.466 0-.658-.382-.658-.789 0-.263.072-.526.204-1.052z"/>
<path id="c" d="M2.295-7.364a.64.64 0 0 0-1.28 0 .64.64 0 0 0 1.28 0z"/>
<path id="d" d="M2.295-2.989c0-.347-.287-.633-.633-.633s-.634.286-.634.633.287.634.634.634.633-.287.633-.634z"/>
<marker id="f" overflow="visible" orient="auto">
<path d="m-10 0-4 4L0 0l-14-4z" fill="green" fill-rule="evenodd" stroke="green" stroke-width=".8pt"/>
</marker>
<marker id="g" overflow="visible" orient="auto">
<path d="m10 0 4-4L0 0l14 4z" fill="green" fill-rule="evenodd" stroke="green" stroke-width=".8pt"/>
</marker>
<marker id="h" overflow="visible" orient="auto">
<path d="m-10 0-4 4L0 0l-14-4z" fill="red" fill-rule="evenodd" stroke="red" stroke-width=".8pt"/>
</marker>
<marker id="i" overflow="visible" orient="auto">
<path d="m10 0 4-4L0 0l14 4z" fill="red" fill-rule="evenodd" stroke="red" stroke-width=".8pt"/>
</marker>
</defs>
<path d="m.995 81.008 88.037-50.149" color="#000" fill="none" stroke="green"/>
<path d="M.995 81.008h88.037" fill="none" stroke="#000" stroke-width=".5" style="font-variation-settings:normal"/>
<g transform="matrix(1.6 0 0 1.6 -218.953 -127.116)" fill="red" stroke-width=".833">
<use x="198.592" y="88.26" width="100%" height="100%" xlink:href="#a"/>
<use x="204.358" y="88.26" width="100%" height="100%" xlink:href="#b"/>
</g>
<g transform="matrix(1.6 0 0 1.6 -258.344 -86.299)" fill="green" stroke-width=".833">
<use x="229.219" y="88.26" width="100%" height="100%" xlink:href="#c"/>
<use x="227.131" y="88.26" width="100%" height="100%" xlink:href="#b"/>
<use x="236.62" y="88.26" width="100%" height="100%" xlink:href="#d"/>
<use x="242.598" y="88.26" width="100%" height="100%" xlink:href="#a"/>
<use x="248.364" y="88.26" width="100%" height="100%" xlink:href="#e"/>
</g>
<g transform="matrix(1.6 0 0 1.6 -351.19 -42.151)" stroke-width=".833">
<use x="242.598" y="88.26" width="100%" height="100%" xlink:href="#a"/>
<use x="248.364" y="88.26" width="100%" height="100%" xlink:href="#e"/>
</g>
<path d="M.995 81.008C35.781 61.193 69.482 34.593 89.032 3.971" color="#000" fill="none" stroke="red" stroke-width="2"/>
<circle cx="89.032" cy="3.971" fill="red" r="2.783"/>
<path d="M95.442 81.008V30.859" fill="none" marker-end="url(#f)" marker-start="url(#g)" stroke="green" stroke-width=".5" style="font-variation-settings:normal"/>
<path d="M89.032 81.026V5.455" fill="none" marker-end="url(#h)" marker-start="url(#i)" stroke="red" stroke-width=".5" style="font-variation-settings:normal"/>
<circle cx="89.032" cy="30.859" fill="green" r="2.783"/>
</svg>
