<svg width="122.96" height="83.832" xmlns="http://www.w3.org/2000/svg" xmlns:xlink="http://www.w3.org/1999/xlink">
<defs>
<path id="a" d="M6.408-4.794a.893.893 0 0 0-.646.825c0 .263.204.55.598.55.419 0 .861-.347.861-.933 0-.633-.634-1.052-1.363-1.052-.681 0-1.124.514-1.28.73-.298-.503-.968-.73-1.649-.73-1.506 0-2.32 1.47-2.32 1.865 0 .168.18.168.288.168.143 0 .227 0 .275-.156.346-1.088 1.207-1.446 1.697-1.446.455 0 .67.215.67.597 0 .228-.168.885-.275 1.315l-.407 1.638c-.179.73-.61 1.088-1.016 1.088-.06 0-.335 0-.574-.18a.893.893 0 0 0 .646-.824c0-.263-.203-.55-.598-.55-.418 0-.86.347-.86.933 0 .633.633 1.052 1.362 1.052.682 0 1.124-.514 1.28-.73.298.503.968.73 1.65.73 1.506 0 2.318-1.47 2.318-1.865 0-.168-.179-.168-.286-.168-.144 0-.228 0-.275.156C6.157-.693 5.296-.335 4.806-.335c-.454 0-.67-.215-.67-.597 0-.251.156-.885.264-1.327.083-.311.358-1.435.418-1.626.18-.718.598-1.088 1.016-1.088.06 0 .335 0 .574.18z"/>
<path id="d" d="M2.469-3.64C1.213-3.322.51-2.243.51-1.364c0 .887.678 1.465 1.507 1.465 1.012 0 1.8-1.189 1.8-2.41 0-.812-.436-1.29-.696-1.574-.31-.351-.937-1.038-.937-1.423 0-.108.117-.351.46-.351.285 0 .52.134.703.234.076.042.377.218.503.218.2 0 .351-.184.351-.352 0-.209-.109-.226-.56-.318-.101-.017-.486-.1-.754-.1-.627 0-.979.368-.979.879 0 .443.268.954.56 1.456zm.142.226c.234.376.536.862.536 1.464 0 .686-.41 1.816-1.113 1.816-.46 0-.913-.301-.913-.996 0-.552.318-2 1.49-2.284z"/>
<path id="b" d="M2.059-3.306h.853c.16 0 .268 0 .268-.184 0-.117-.109-.117-.251-.117h-.795l.31-1.238c.008-.042.025-.084.025-.118 0-.15-.117-.267-.285-.267-.209 0-.335.142-.393.36-.059.209.05-.193-.318 1.263H.619c-.159 0-.267 0-.267.184 0 .117.1.117.25.117h.796L.904-1.33c-.05.21-.126.51-.126.62 0 .493.419.795.896.795.929 0 1.456-1.172 1.456-1.28s-.109-.11-.134-.11c-.1 0-.109.017-.176.16-.234.527-.66.995-1.121.995-.176 0-.293-.108-.293-.41 0-.083.033-.26.05-.343l.603-2.402z"/>
<path id="c" d="M3.875-1.891h2.56c.11 0 .31 0 .31-.201 0-.21-.192-.21-.31-.21h-2.56V-4.87c0-.108 0-.31-.201-.31-.21 0-.21.193-.21.31v2.57H.896c-.108 0-.31 0-.31.2 0 .21.193.21.31.21h2.57V.678c0 .109 0 .31.2.31.21 0 .21-.193.21-.31v-2.57z"/>
<symbol id="e">
<circle cx="70.438" cy="61.298" r="9.5" color="#000" fill="#cacaca" stroke="#555" stroke-linejoin="round" stroke-miterlimit="100" style="isolation:auto;mix-blend-mode:normal"/>
</symbol>
</defs>
<g transform="matrix(1.6 0 0 1.6 -319.68 -90.74)" stroke-width=".833">
<use x="205.749" y="88.26" width="100%" height="100%" xlink:href="#a"/>
<use x="213.627" y="90.054" width="100%" height="100%" xlink:href="#b"/>
</g>
<g transform="matrix(1.6 0 0 1.6 -302.36 -129.22)" stroke-width=".833">
<use x="217.837" y="88.26" width="100%" height="100%" xlink:href="#a"/>
<use x="225.715" y="90.054" width="100%" height="100%" xlink:href="#b"/>
<use x="229.327" y="90.054" width="100%" height="100%" xlink:href="#c"/>
<use x="236.666" y="90.054" width="100%" height="100%" xlink:href="#d"/>
<use x="241.315" y="90.054" width="100%" height="100%" xlink:href="#b"/>
</g>
<path d="M119.17 19.157C79.572 25.662 34.752 60.582 18.69 82.915" color="#000" fill="none" stroke="#0f0000" stroke-dasharray="2, 4" stroke-linejoin="round" stroke-miterlimit="100"/>
<use transform="translate(-30.834 -.435)" width="100%" height="100%" xlink:href="#e"/>
<use transform="translate(14.444 -30.63)" width="100%" height="100%" xlink:href="#e"/>
</svg>
