<svg width="194.233" height="144.425" xmlns="http://www.w3.org/2000/svg">
<defs>
<marker id="a" overflow="visible" orient="auto">
<path d="m-10 0-4 4L0 0l-14-4z" fill-rule="evenodd" stroke="#000" stroke-width=".8pt"/>
</marker>
</defs>
<path d="M18.284 101.859V2.442" color="#000" fill="none" marker-end="url(#a)" stroke="#000" stroke-linecap="round" stroke-miterlimit="100000" style="font-variant-east_asian:normal"/>
<g stroke-linejoin="round" stroke-miterlimit="100000" stroke-width="1.5">
<path d="M58.016 128.162c-.576.108-.792.54-.792.882 0 .432.342.576.594.576.54 0 .918-.468.918-.954 0-.756-.864-1.098-1.62-1.098-1.098 0-1.71 1.08-1.872 1.422-.414-1.35-1.53-1.422-1.854-1.422-1.836 0-2.808 2.358-2.808 2.754 0 .072.072.162.198.162.144 0 .18-.108.216-.18.612-1.998 1.818-2.376 2.34-2.376.81 0 .972.756.972 1.188 0 .396-.108.81-.324 1.674l-.612 2.466c-.27 1.08-.792 2.07-1.746 2.07-.09 0-.54 0-.918-.234a.93.93 0 0 0 .792-.882c0-.36-.27-.576-.612-.576-.432 0-.9.378-.9.954 0 .756.846 1.098 1.62 1.098.864 0 1.476-.684 1.854-1.422.288 1.062 1.188 1.422 1.854 1.422 1.836 0 2.808-2.358 2.808-2.754 0-.09-.072-.162-.18-.162-.162 0-.18.09-.234.234-.486 1.584-1.53 2.322-2.34 2.322-.63 0-.972-.468-.972-1.206 0-.396.072-.684.36-1.872l.63-2.448c.27-1.08.882-1.872 1.71-1.872.036 0 .54 0 .918.234zM94.219 87.507c-.486.684-1.188 1.296-2.07 1.296-.216 0-1.08-.036-1.35-.864a.91.91 0 0 0 1.08-.864c0-.414-.342-.558-.612-.558-.288 0-.918.216-.918 1.098 0 .918.774 1.548 1.8 1.548 1.8 0 3.618-1.656 4.122-3.654l1.764-7.02c.018-.09.054-.198.054-.306 0-.27-.216-.45-.486-.45-.162 0-.54.072-.684.612l-1.332 5.292c-.09.324-.09.36-.234.558-.36.504-.954 1.116-1.818 1.116-1.008 0-1.098-.99-1.098-1.476 0-1.026.486-2.412.972-3.708.198-.522.306-.774.306-1.134 0-.756-.54-1.44-1.422-1.44-1.656 0-2.322 2.61-2.322 2.754 0 .072.072.162.198.162.162 0 .18-.072.252-.324.432-1.512 1.116-2.232 1.818-2.232.162 0 .468 0 .468.594 0 .468-.198.99-.468 1.674-.882 2.358-.882 2.952-.882 3.384 0 1.71 1.224 2.106 2.124 2.106.522 0 1.17-.162 1.8-.828l.018.018c-.27 1.062-.45 1.764-1.08 2.646zM5.022 42.952c.774-.882 1.404-1.44 2.304-2.25 1.08-.936 1.548-1.386 1.8-1.656 1.26-1.242 1.89-2.286 1.89-2.43s-.144-.144-.18-.144c-.126 0-.162.072-.252.198-.45.774-.882 1.152-1.35 1.152-.378 0-.576-.162-.918-.594-.378-.45-.684-.756-1.206-.756-1.314 0-2.106 1.638-2.106 2.016 0 .054.018.162.18.162.144 0 .162-.072.216-.198.306-.72 1.17-.846 1.512-.846.378 0 .738.126 1.116.288.684.288.972.288 1.152.288.126 0 .198 0 .288-.018-.594.702-1.566 1.566-2.376 2.304l-1.818 1.674C4.176 43.258 3.51 44.32 3.51 44.446c0 .108.09.144.198.144s.126-.018.252-.234c.288-.45.864-1.116 1.53-1.116.378 0 .558.126.918.576.342.396.648.774 1.224.774 1.764 0 2.772-2.286 2.772-2.7 0-.072-.018-.18-.198-.18-.144 0-.162.072-.216.252-.396 1.062-1.458 1.494-2.16 1.494-.378 0-.738-.126-1.116-.288-.72-.288-.918-.288-1.152-.288-.18 0-.378 0-.54.072zM157.975 40.809c-.648.18-.972.792-.972 1.242 0 .396.306.828.9.828.63 0 1.296-.522 1.296-1.404 0-.954-.954-1.584-2.052-1.584-1.026 0-1.692.774-1.926 1.098-.45-.756-1.458-1.098-2.484-1.098-2.268 0-3.492 2.214-3.492 2.808 0 .252.27.252.432.252.216 0 .342 0 .414-.234.522-1.638 1.818-2.178 2.556-2.178.684 0 1.008.324 1.008.9 0 .342-.252 1.332-.414 1.98l-.612 2.466c-.27 1.098-.918 1.638-1.53 1.638-.09 0-.504 0-.864-.27.648-.18.972-.792.972-1.242 0-.396-.306-.828-.9-.828-.63 0-1.296.522-1.296 1.404 0 .954.954 1.584 2.052 1.584 1.026 0 1.692-.774 1.926-1.098.45.756 1.458 1.098 2.484 1.098 2.268 0 3.492-2.214 3.492-2.808 0-.252-.27-.252-.432-.252-.216 0-.342 0-.414.234-.522 1.638-1.818 2.178-2.556 2.178-.684 0-1.008-.324-1.008-.9 0-.378.234-1.332.396-1.998.126-.468.54-2.16.63-2.448.27-1.08.9-1.638 1.53-1.638.09 0 .504 0 .864.27zM14.216 104.99c0-3.06-2.124-4.644-5.238-4.644-5.562 0-8.478 4.77-8.478 8.37 0 3.15 2.25 4.59 5.256 4.59 5.526 0 8.46-4.608 8.46-8.316zm-8.28 7.56c-.594 0-1.422-.126-2.106-.828-.792-.792-.792-1.998-.792-2.412 0-1.134.54-4.5 2.016-6.354 1.206-1.476 2.7-1.89 3.744-1.89 1.494 0 2.97.81 2.97 3.096 0 1.17-.648 4.32-1.818 6.012-1.35 1.98-2.988 2.376-4.014 2.376z"/>
</g>
<g fill="none" stroke="#000" color="#000">
<path d="m18.31 101.61 86.745-8.522 86.746-8.523" marker-end="url(#a)" stroke-linecap="round" stroke-miterlimit="100000" style="isolation:auto;mix-blend-mode:normal"/>
<path d="m61.397 122.473-43.113-20.615" stroke-dasharray="4, 4" stroke-width=".5" style="isolation:auto;mix-blend-mode:normal"/>
<path d="m18.284 101.859 43.113 20.615 43.113 20.614" marker-end="url(#a)" stroke-linecap="round" stroke-miterlimit="100000" style="isolation:auto;mix-blend-mode:normal"/>
<path d="M61.397 62.925 18.284 42.31m0 0 86.759-8.647m43.113 20.615v59.549M61.397 62.925l86.759-8.647m-86.759 68.195V62.924m86.759 50.903-86.759 8.647m43.646-88.811 43.113 20.615m-43.113 38.934V33.663m43.113 80.164-43.113-20.615" stroke-dasharray="4.00000001, 4.00000000999999990" stroke-linecap="round" stroke-miterlimit="100" stroke-width=".5" style="isolation:auto;mix-blend-mode:normal"/>
</g>
<circle cx="148.406" cy="53.556" r="2.5" color="#000"/>
</svg>
