<svg width="237.98" height="143.281" xmlns="http://www.w3.org/2000/svg" xmlns:xlink="http://www.w3.org/1999/xlink">
<defs>
<symbol id="b">
<path d="M8.528 57.462c-.576.108-.792.54-.792.882 0 .432.342.576.594.576.54 0 .918-.468.918-.954 0-.756-.864-1.098-1.62-1.098-1.098 0-1.71 1.08-1.872 1.422-.414-1.35-1.53-1.422-1.854-1.422-1.836 0-2.808 2.358-2.808 2.754 0 .072.072.162.198.162.144 0 .18-.108.216-.18.612-1.998 1.818-2.376 2.34-2.376.81 0 .972.756.972 1.188 0 .396-.108.81-.324 1.674l-.612 2.466c-.27 1.08-.792 2.07-1.746 2.07-.09 0-.54 0-.918-.234a.93.93 0 0 0 .792-.882c0-.36-.27-.576-.612-.576-.432 0-.9.378-.9.954 0 .756.846 1.098 1.62 1.098.864 0 1.476-.684 1.854-1.422.288 1.062 1.188 1.422 1.854 1.422 1.836 0 2.808-2.358 2.808-2.754 0-.09-.072-.162-.18-.162-.162 0-.18.09-.234.234-.486 1.584-1.53 2.322-2.34 2.322-.63 0-.972-.468-.972-1.206 0-.396.072-.684.36-1.872L5.9 59.1c.27-1.08.882-1.872 1.71-1.872.036 0 .54 0 .918.234z" stroke-linejoin="round" stroke-miterlimit="100000" stroke-width="1.5"/>
</symbol>
<symbol id="c">
<path d="M96.15 132.473h1.656c.342 0 .522 0 .522-.324 0-.198-.108-.198-.468-.198h-1.584l.666-2.628c.072-.252.072-.288.072-.414 0-.288-.234-.45-.468-.45-.144 0-.558.054-.702.63l-.702 2.862H93.45c-.36 0-.522 0-.522.342 0 .18.126.18.468.18h1.602l-1.188 4.752c-.144.63-.198.81-.198 1.044 0 .846.594 1.62 1.602 1.62 1.818 0 2.79-2.628 2.79-2.754 0-.108-.072-.162-.18-.162-.036 0-.108 0-.144.072-.018.018-.036.036-.162.324-.378.9-1.206 2.16-2.25 2.16-.54 0-.576-.45-.576-.846 0-.018 0-.36.054-.576z" stroke-linejoin="round" stroke-miterlimit="100000" stroke-width="1.5"/>
</symbol>
<marker id="a" overflow="visible" orient="auto">
<path d="m-10 0-4 4L0 0l-14-4z" fill-rule="evenodd" stroke="#000" stroke-width=".8pt"/>
</marker>
</defs>
<g fill="none" stroke="#414141" color="#000">
<path d="M213.673 132.761c-20.958-31.37-43.126-61.883-66.14-87.458M103.417 58.928C92.13 38.068 79.126 20.012 63.783 10.602M11.01 84.21c41.548-41.523 35.518 56.869 66.068 40.328"/>
</g>
<circle cx="40.325" cy="80.556" r="2.5" color="#000" fill="#5e5bff"/>
<circle cx="86.719" cy="32.259" r="31.509" color="#000" fill="none" stroke="#009da3" stroke-width=".5"/>
<circle cx="86.719" cy="32.259" r="9.902" color="#000" fill="none" stroke="#009da3" stroke-width=".5" style="isolation:auto;mix-blend-mode:normal"/>
<circle cx="86.447" cy="32.531" r="2.5" color="#000" fill="#5e5bff"/>
<circle cx="182.378" cy="87.679" r="54.852" color="#000" fill="none" stroke="#009da3" stroke-width=".5"/>
<circle cx="182.105" cy="87.951" r="2.5" color="#000" fill="#5e5bff"/>
<g fill="none" stroke="#009da3" stroke-width=".5" color="#000">
<path d="m33.693 77.848 24.12-58.142M42.882 87.217l57.57-26.597M78.552 37.872l59.956 82.737M87.682 22.417 188.77 33.19"/>
<ellipse cx="40.325" cy="80.556" rx="7.156" ry="7.13"/>
</g>
<g stroke-linejoin="round" stroke-miterlimit="100000" stroke-width="1.5">
<path d="M144.205 107.15c0-.054 0-.09-.306-.396-1.8-1.818-2.808-4.788-2.808-8.46 0-3.492.846-6.498 2.934-8.622.18-.162.18-.198.18-.252 0-.108-.09-.144-.162-.144-.234 0-1.71 1.296-2.592 3.06-.918 1.818-1.332 3.744-1.332 5.958 0 1.602.252 3.744 1.188 5.67 1.062 2.16 2.538 3.33 2.736 3.33.072 0 .162-.036.162-.144zM155.083 102.848c0-1.044-.342-1.818-1.08-1.818-.576 0-.864.468-.864.864s.27.882.882.882a.8.8 0 0 0 .594-.234c.036-.036.054-.036.072-.036.036 0 .036.252.036.342 0 .594-.108 1.764-1.152 2.934-.198.216-.198.252-.198.288 0 .09.09.18.18.18.144 0 1.53-1.332 1.53-3.402zM177.561 98.294c0-1.368-.18-3.6-1.188-5.688-1.062-2.16-2.538-3.33-2.736-3.33-.072 0-.162.036-.162.144 0 .054 0 .09.306.396 1.8 1.818 2.808 4.788 2.808 8.46 0 3.492-.846 6.498-2.934 8.622-.18.162-.18.198-.18.252 0 .108.09.144.162.144.234 0 1.71-1.296 2.592-3.06.918-1.836 1.332-3.78 1.332-5.94z"/>
</g>
<path d="M4.52 134.449V70.15" color="#000" fill="none" marker-end="url(#a)" stroke="#000" stroke-linecap="round" stroke-width=".5"/>
<path d="M4.52 134.449h82.386" color="#000" fill="none" marker-end="url(#a)" stroke="#000" stroke-linecap="round" stroke-width=".5"/>
<path d="M25.505 95.346h3.012c2.475 0 4.95-1.83 4.95-3.873 0-1.4-1.184-2.672-3.443-2.672h-5.542c-.34 0-.502 0-.502.34 0 .18.162.18.43.18 1.094 0 1.094.143 1.094.34 0 .036 0 .144-.071.413l-2.421 9.648c-.162.627-.197.807-1.453.807-.34 0-.52 0-.52.322 0 .198.162.198.27.198.34 0 .699-.036 1.04-.036h2.097c.341 0 .718.036 1.058.036.144 0 .341 0 .341-.341 0-.18-.161-.18-.43-.18-1.076 0-1.094-.125-1.094-.304 0-.09.018-.215.036-.305zm1.29-5.326c.162-.664.234-.7.933-.7h1.776c1.344 0 2.456.431 2.456 1.776 0 .466-.233 1.99-1.058 2.815-.305.323-1.165 1.005-2.797 1.005h-2.529z"/>
<use xlink:href="#b"/>
<use xlink:href="#c"/>
<use transform="translate(162.473 37.97)" width="100%" height="100%" xlink:href="#b"/>
<use transform="translate(52.677 -36.933)" width="100%" height="100%" xlink:href="#c"/>
</svg>
