<svg width="155.136" height="109.858" viewBox="0 0 41.046 29.067" xml:space="preserve" xmlns:xlink="http://www.w3.org/1999/xlink" xmlns="http://www.w3.org/2000/svg">
<defs>
<path id="a" d="M6.408-4.794a.893.893 0 0 0-.646.825c0 .263.204.55.598.55.419 0 .861-.347.861-.933 0-.633-.634-1.052-1.363-1.052-.681 0-1.124.514-1.28.73-.298-.503-.968-.73-1.649-.73-1.506 0-2.32 1.47-2.32 1.865 0 .168.18.168.288.168.143 0 .227 0 .275-.156.346-1.088 1.207-1.446 1.697-1.446.455 0 .67.215.67.597 0 .228-.168.885-.275 1.315l-.407 1.638c-.179.73-.61 1.088-1.016 1.088-.06 0-.335 0-.574-.18a.893.893 0 0 0 .646-.824c0-.263-.203-.55-.598-.55-.418 0-.86.347-.86.933 0 .633.633 1.052 1.362 1.052.682 0 1.124-.514 1.28-.73.298.503.968.73 1.65.73 1.506 0 2.318-1.47 2.318-1.865 0-.168-.179-.168-.286-.168-.144 0-.228 0-.275.156C6.157-.693 5.296-.335 4.806-.335c-.454 0-.67-.215-.67-.597 0-.251.156-.885.264-1.327.083-.311.358-1.435.418-1.626.18-.718.598-1.088 1.016-1.088.06 0 .335 0 .574.18z"/>
<path id="b" d="M2.059-3.306h.853c.16 0 .268 0 .268-.184 0-.117-.109-.117-.251-.117h-.795l.31-1.238c.008-.042.025-.084.025-.118 0-.15-.117-.267-.285-.267-.209 0-.335.142-.393.36-.059.209.05-.193-.318 1.263H.619c-.159 0-.267 0-.267.184 0 .117.1.117.25.117h.796L.904-1.33c-.05.21-.126.51-.126.62 0 .493.419.795.896.795.929 0 1.456-1.172 1.456-1.28 0-.11-.109-.11-.134-.11-.1 0-.109.017-.176.16-.234.527-.66.995-1.121.995-.176 0-.293-.108-.293-.41 0-.083.033-.26.05-.343l.603-2.402z"/>
</defs>
<g transform="translate(150.89 90.858)">
<circle cx="-140.392" cy="-79.203" r="2.514" color="#000" fill="#fff" stroke="#d7d7d7" style="isolation:auto;mix-blend-mode:normal;stroke-width:.264583"/>
<circle cx="-137.81" cy="-82.282" r="2.514" color="#000" fill="#f8f8f8" stroke="#878787" style="isolation:auto;mix-blend-mode:normal;stroke-width:.264583"/>
<path d="M-109.932-85.1c-4.426-4.073-10.075-6.59-15.592-5.278-6.377 1.442-11.645 6.776-15.934 12.581-3.59 4.895-6.646 10.36-9.431 16.005" color="#000" fill="none" stroke="#0f0000" stroke-dasharray="0.529167, 1.05833" stroke-linejoin="round" stroke-miterlimit="100" style="stroke-width:.264583"/>
<circle cx="-135.026" cy="-85.068" r="2.514" color="#000" fill="#cacaca" stroke="#555" style="isolation:auto;mix-blend-mode:normal;stroke-width:.264583"/>
<g transform="translate(-228.565 -125.817) scale(.4233)" stroke-width=".833">
<use x="205.749" y="88.26" width="100%" height="100%" xlink:href="#a"/>
<use x="213.627" y="90.054" width="100%" height="100%" xlink:href="#b"/>
</g>
</g>
</svg>
