<svg width="191.322" height="143.28" viewBox="0 0 50.621 37.909" xml:space="preserve" xmlns="http://www.w3.org/2000/svg">
<path d="M5.226 31.975V6.565A6.254 6.254 0 0 1 11.494.298H29.09a6.254 6.254 0 0 1 6.267 6.267v25.41" fill="none" stroke="#5e5bff" stroke-linejoin="round" stroke-miterlimit="100" stroke-width=".596"/>
<path d="m-152.371 46.39-2.935-2.739-1.026-3.157 3.553-2.199 4.46-1.759 1.101 4.089-.514 3.412-3.485-.175z" fill="#8e8e8e" style="stroke-width:.264582" transform="translate(166.92 -32.764)"/>
<path d="m-156.332 40.494 3.553-2.199.448 2.512-.98 2.35z" fill="#a0a0a0" style="stroke-width:.264582" transform="translate(166.92 -32.764)"/>
<path d="m-156.332 40.494 1.026 3.157 2.935 2.739-.94-3.233z" fill="#8e8e8e" style="stroke-width:.264582" transform="translate(166.92 -32.764)"/>
<path d="m-152.371 46.39 1.154-2.528-1.119-3.055-.975 2.35z" fill="#575757" style="stroke-width:.264582" transform="translate(166.92 -32.764)"/>
<path d="m-147.732 44.037-3.485-.175-1.109-3.023 3.332-.449z" fill="#8e8e8e" style="stroke-width:.264582" transform="translate(166.92 -32.764)"/>
<path d="m-147.732 44.037.514-3.412-1.102-4.089-.674 3.854z" fill="#575757" style="stroke-width:.264582" transform="translate(166.92 -32.764)"/>
<path d="m-152.78 38.295 4.46-1.759-.674 3.854-3.332.449z" fill="#a0a0a0" style="stroke-width:.264582" transform="translate(166.92 -32.764)"/>
<g stroke="#000">
<path d="M22.333 12.77c3.439-2.55 7.16-7.719 7.05-8.375" fill="none" stroke-miterlimit="100000" stroke-width=".19155592"/>
<path d="M23.976 11.33c-.26 0 3.407-7.328 5.39-6.89 1.816.401-1.355 5.938-5.39 6.89z" fill="#fff" fill-opacity=".991" stroke-miterlimit="100000" stroke-width=".19155592"/>
<g fill="none" stroke-miterlimit="100">
<path d="M24.114 11.255a33.961 33.961 0 0 0 4.321-5.062" stroke-width=".11482772"/>
<g stroke-width=".29">
<path d="m25.416 9.096-.088.934 1.019-.169M26.073 8.166l-.074 1.125 1.264-.346M26.835 7.058 26.76 8.4l1.33-.437" stroke-width=".07672819999999998"/>
</g>
</g>
</g>
<path d="M-148.48 48.32v7.472h-2.518l4.365 4.17 4.366-4.17h-2.519V48.32z" fill="red" style="stroke-width:.264582" transform="translate(166.92 -32.764)"/>
<path fill="#fffefe" stroke="#5e5bff" stroke-miterlimit="100" stroke-width=".344" d="M25.875 24.05H50.45v5.652H25.875z"/>
<path d="M-136.418 61.154h-.505l-.03-.238h.453q.069 0 .116-.04.048-.041.048-.09v-2.339h-2.354v2.739h-.253v-2.937h2.868v2.632q0 .112-.1.191-.097.082-.243.082zm-2.003-2.15v-.206h1.793v.205zm.42 1.473v.173h-.259v-1.223h1.507v1.05zm0-.202h.99v-.653h-.99zM-133.134 61.17h-.44l-.033-.245h.362q.06 0 .106-.04.048-.04.048-.09v-.788h-1.324V59.8h1.324v-.39h-1.366V59.2h.87v-.471h-.752v-.212h.753v-.422h.276v.422h.804v.212h-.804v.471h.933v.209h-.439v.39h.346v.208h-.346v.904q0 .116-.094.187t-.224.071zm-2.097-.586v.227h-.254v-2.528h.903v2.301zm.394-2.1h-.394v.808h.394zm-.394 1.003v.895h.394v-.895zm1.363 1.328q-.13-.178-.444-.563l.204-.134q.234.256.462.552zM-131.386 61.013l-.245.056q-.176-.558-.176-1.21 0-.713.234-1.537l.264.046q-.236.771-.236 1.504 0 .602.159 1.141zm2.318-2.24q-.273-.005-.514-.005-.354 0-1.282.047 0-.076-.01-.229.881-.05 1.432-.05.274 0 .365.004v.016q0 .078.01.217zm.02 2.157q-.358.037-.7.037-.476 0-.712-.054-.235-.056-.356-.183-.122-.127-.122-.328 0-.291.257-.615l.199.105q-.21.229-.21.495 0 .132.112.214.115.081.305.108.192.026.543.026.356 0 .684-.04zM-126.286 58.527v.16h-.25v-.16h-.945v.166h-.254v-.166h-.85v-.195h.85v-.21h.254v.21h.945v-.21h.25v.21h.898v.195zm-.94.706q-.21.206-.38.32l-.142-.13q.482-.362.7-.776l.246.046q-.046.085-.121.192h1.162l.069.066q-.23.43-.656.716.466.213.988.295l-.118.201q-.629-.118-1.086-.367-.474.252-1.128.36l-.06-.18q.569-.1.98-.308-.292-.2-.454-.435zm.159-.168-.015.017q.195.278.513.47.356-.23.515-.487zm-.868.247q-.192-.19-.464-.388l.171-.168q.189.142.473.383zm-.193.614q-.185-.176-.468-.387l.168-.176q.164.124.48.378zm-.211 1.21-.21-.143q.131-.153.282-.42.15-.265.214-.445l.226.078q-.062.175-.223.471-.159.295-.289.46zm2.381-.058h-1.248v.095h-.26v-1.006h1.767v1.006h-.259zm-1.248-.195h1.248v-.524h-1.248zM-124.19 61.08l-.01-.243q.326.035.682.035.508.002.835-.16.329-.16.329-.466 0-.167-.055-.262t-.22-.182q-.162-.086-.44-.086-.357.002-.752.135-.394.134-.613.343l-.171-.166q.342-.436.465-1.057h-.863v-.225h.9q.044-.295.044-.497l.28.003q-.01.26-.039.493h1.897v.226h-1.935q-.073.422-.308.802.221-.119.53-.192.31-.073.58-.073.424 0 .7.192.275.192.275.533 0 .432-.38.654-.38.22-1.063.22-.38 0-.667-.028zM-119.495 60.855q.642-.152.642-.654 0-.31-.237-.48-.236-.17-.63-.17-.27 0-.529.068-.256.068-.592.276-.334.209-.466.32l-.126-.21q1.042-.666 2.037-1.402l-1.733.007v-.225h2.09l.12.173-1.206.827.013.02q.21-.062.416-.062.492 0 .807.224.316.224.316.619 0 .463-.387.707-.386.242-1.037.242-.894 0-.894-.486 0-.192.185-.323.185-.13.406-.13.31 0 .53.171.222.171.275.489zm-.252.044q-.1-.486-.534-.486-.139 0-.25.067-.11.068-.11.18 0 .26.606.26.132 0 .288-.02z" style="stroke-width:.264582" transform="translate(166.92 -32.764)"/>
<path transform="rotate(-90 67.078 -99.842)" color="#000" fill="#cacaca" style="isolation:auto;mix-blend-mode:normal;stroke-width:.264582" d="M-70.674-166.919h6.217v40.584h-6.217z"/>
<path d="M-166.92 64.457h40.585" color="#000" fill="none" stroke="#555" stroke-linejoin="round" stroke-miterlimit="100" stroke-width=".794" style="isolation:auto;mix-blend-mode:normal" transform="translate(166.92 -32.764)"/>
</svg>
