<svg width="148.52" height="107.19" viewBox="0 0 39.296 28.361" xml:space="preserve" xmlns:xlink="http://www.w3.org/1999/xlink" xmlns="http://www.w3.org/2000/svg">
<defs>
<path id="g" d="M2.295-2.989a.638.638 0 0 0-.633-.633.638.638 0 0 0-.634.633c0 .347.287.634.634.634a.638.638 0 0 0 .633-.634z"/>
<path id="b" d="M6.408-4.794a.893.893 0 0 0-.646.825c0 .263.204.55.598.55.419 0 .861-.347.861-.933 0-.633-.634-1.052-1.363-1.052-.681 0-1.124.514-1.28.73-.298-.503-.968-.73-1.649-.73-1.506 0-2.32 1.47-2.32 1.865 0 .168.18.168.288.168.143 0 .227 0 .275-.156.346-1.088 1.207-1.446 1.697-1.446.455 0 .67.215.67.597 0 .228-.168.885-.275 1.315l-.407 1.638c-.179.73-.61 1.088-1.016 1.088-.06 0-.335 0-.574-.18a.893.893 0 0 0 .646-.824c0-.263-.203-.55-.598-.55-.418 0-.86.347-.86.933 0 .633.633 1.052 1.362 1.052.682 0 1.124-.514 1.28-.73.298.503.968.73 1.65.73 1.506 0 2.318-1.47 2.318-1.865 0-.168-.179-.168-.286-.168-.144 0-.228 0-.275.156C6.157-.693 5.296-.335 4.806-.335c-.454 0-.67-.215-.67-.597 0-.251.156-.885.264-1.327.083-.311.358-1.435.418-1.626.18-.718.598-1.088 1.016-1.088.06 0 .335 0 .574.18z"/>
<path id="e" d="M2.469-3.64C1.213-3.322.51-2.243.51-1.364c0 .887.678 1.465 1.507 1.465 1.012 0 1.8-1.189 1.8-2.41 0-.812-.436-1.29-.696-1.574-.31-.351-.937-1.038-.937-1.423 0-.108.117-.351.46-.351.285 0 .52.134.703.234.076.042.377.218.503.218.2 0 .351-.184.351-.352 0-.209-.109-.226-.56-.318-.101-.017-.486-.1-.754-.1-.627 0-.979.368-.979.879 0 .443.268.954.56 1.456zm.142.226c.234.376.536.862.536 1.464 0 .686-.41 1.816-1.113 1.816-.46 0-.913-.301-.913-.996 0-.552.318-2 1.49-2.284z"/>
<path id="c" d="M2.059-3.306h.853c.16 0 .268 0 .268-.184 0-.117-.109-.117-.251-.117h-.795l.31-1.238c.008-.042.025-.084.025-.118 0-.15-.117-.267-.285-.267-.209 0-.335.142-.393.36-.059.209.05-.193-.318 1.263H.619c-.159 0-.267 0-.267.184 0 .117.1.117.25.117h.796L.904-1.33c-.05.21-.126.51-.126.62 0 .493.419.795.896.795.929 0 1.456-1.172 1.456-1.28 0-.11-.109-.11-.134-.11-.1 0-.109.017-.176.16-.234.527-.66.995-1.121.995-.176 0-.293-.108-.293-.41 0-.083.033-.26.05-.343z"/>
<path id="d" d="M3.875-1.891h2.56c.11 0 .31 0 .31-.201 0-.21-.192-.21-.31-.21h-2.56V-4.87c0-.108 0-.31-.201-.31-.21 0-.21.193-.21.31v2.57H.896c-.108 0-.31 0-.31.2 0 .21.193.21.31.21h2.57V.678c0 .109 0 .31.2.31.21 0 .21-.193.21-.31z"/>
<path id="f" d="M2.295-7.364a.64.64 0 0 0-1.28 0 .64.64 0 0 0 1.28 0z"/>
<path id="h" d="M3.156-5.224C1.662-4.866.502-3.312.502-1.865c0 1.148.765 2.008 1.89 2.008 1.398 0 2.39-1.877 2.39-3.526 0-1.088-.478-1.686-.885-2.224-.43-.538-1.135-1.435-1.135-1.96 0-.264.239-.55.657-.55.359 0 .598.155.85.322.238.144.477.3.657.3.298 0 .478-.288.478-.48 0-.262-.191-.298-.622-.394-.622-.131-.789-.131-.98-.131-.933 0-1.363.514-1.363 1.231 0 .646.347 1.315.717 2.045zm.144.263c.299.55.657 1.195.657 2.056 0 .789-.454 2.786-1.566 2.786-.657 0-1.148-.503-1.148-1.411 0-.753.443-3 2.057-3.431z"/>
<path id="i" d="M2.463-4.782h1.124c.239 0 .358 0 .358-.24 0-.13-.12-.13-.334-.13H2.558c.43-1.698.49-1.937.49-2.01 0-.202-.143-.322-.346-.322-.036 0-.37.012-.478.43l-.467 1.901H.634c-.24 0-.359 0-.359.227 0 .144.096.144.335.144h1.052C.8-1.387.753-1.184.753-.968c0 .645.455 1.1 1.1 1.1 1.22 0 1.901-1.746 1.901-1.842 0-.12-.096-.12-.143-.12-.108 0-.12.037-.18.168-.514 1.244-1.147 1.53-1.554 1.53-.251 0-.37-.155-.37-.55 0-.286.023-.37.071-.573z"/>
<marker id="a" overflow="visible" orient="auto">
<path d="m-10 0-4 4L0 0l-14-4Z" fill="red" fill-rule="evenodd" stroke="red" stroke-width=".8pt"/>
</marker>
</defs>
<path d="m-96.185 68.957 27.274-17.69" color="#000" fill="none" marker-end="url(#a)" stroke="red" stroke-linejoin="round" stroke-width=".529" style="marker-end:url(#a)" transform="translate(103.466 -43.242)"/>
<g transform="matrix(.42333 0 0 .42333 -80.772 -15.813)" stroke-width=".833">
<use x="190.346" y="88.26" width="100%" height="100%" xlink:href="#b"/>
<use x="198.225" y="90.054" width="100%" height="100%" xlink:href="#c"/>
</g>
<g transform="matrix(.42333 0 0 .42333 -62.14 -35.076)" stroke-width=".833">
<use x="202.434" y="88.26" width="100%" height="100%" xlink:href="#b"/>
<use x="210.313" y="90.054" width="100%" height="100%" xlink:href="#c"/>
<use x="213.924" y="90.054" width="100%" height="100%" xlink:href="#d"/>
<use x="221.264" y="90.054" width="100%" height="100%" xlink:href="#e"/>
<use x="225.912" y="90.054" width="100%" height="100%" xlink:href="#c"/>
</g>
<g transform="matrix(.42333 0 0 .42333 -75.088 -14.55)" fill="red" stroke-width=".625" style="font-variation-settings:normal">
<use x="232.401" y="88.094" width="100%" height="100%" style="font-variation-settings:normal" xlink:href="#f"/>
<use x="230.122" y="88.26" width="100%" height="100%" style="font-variation-settings:normal" xlink:href="#b"/>
<use x="238" y="90.054" width="100%" height="100%" style="font-variation-settings:normal" xlink:href="#c"/>
<use x="244.866" y="88.26" width="100%" height="100%" style="font-variation-settings:normal" xlink:href="#g"/>
<use x="250.844" y="88.26" width="100%" height="100%" style="font-variation-settings:normal" xlink:href="#h"/>
<use x="256.61" y="88.26" width="100%" height="100%" style="font-variation-settings:normal" xlink:href="#i"/>
</g>
<path d="M-64.302 49.907a2.514 2.514 0 0 1-2.514 2.514 2.514 2.514 0 0 1-2.513-2.514 2.514 2.514 0 0 1 2.513-2.513 2.514 2.514 0 0 1 2.514 2.513zM-93.671 68.957a2.514 2.514 0 0 1-2.514 2.514 2.514 2.514 0 0 1-2.513-2.514 2.514 2.514 0 0 1 2.513-2.513 2.514 2.514 0 0 1 2.514 2.513z" color="#000" fill="#cacaca" stroke="#555" stroke-linejoin="round" stroke-miterlimit="100" style="isolation:auto;mix-blend-mode:normal;stroke-width:.264583" transform="translate(103.466 -43.242)"/>
</svg>
