<svg width="128.666" height="115.598" viewBox="0 0 34.043 30.585" xml:space="preserve" xmlns="http://www.w3.org/2000/svg">
<defs>
<marker id="a" overflow="visible" orient="auto">
<path d="m-10 0-4 4L0 0l-14-4Z" fill-rule="evenodd" stroke="#000" stroke-width=".8pt"/>
</marker>
</defs>
<g transform="translate(100.434 30.287)">
<g fill="none" color="#000">
<path d="m-97.164-11.144 6.433-4.671 9.725 11.637M-81.551-16.976l6.756-4.908 5.355 6.41" stroke="#414141" stroke-width=".26458"/>
<g stroke="#009da3" stroke-width=".5" transform="translate(-100.567 -30.419) scale(.26458)">
<circle cx="97.408" cy="32.259" r="31.509"/>
<path d="M32.06 50.209 76.77 8.451M36.529 62.297l60.597 1.466"/>
<ellipse cx="37.176" cy="55.195" rx="7.156" ry="7.13"/>
</g>
</g>
<path d="M-75.127-1.663h.438c.09 0 .138 0 .138-.086 0-.053-.028-.053-.124-.053h-.419l.177-.695a.299.299 0 0 0 .019-.11c0-.076-.062-.119-.124-.119-.038 0-.148.015-.186.167l-.186.757h-.447c-.096 0-.138 0-.138.09 0 .049.033.049.123.049h.424l-.314 1.257c-.038.166-.052.214-.052.276 0 .224.157.429.423.429.481 0 .739-.696.739-.729 0-.029-.02-.043-.048-.043-.01 0-.029 0-.038.02-.005.004-.01.01-.043.085-.1.238-.32.571-.595.571-.143 0-.153-.119-.153-.223 0-.005 0-.096.015-.153zM-98.31-21.51c-.153.029-.21.143-.21.233 0 .115.09.153.157.153.143 0 .243-.124.243-.253 0-.2-.228-.29-.428-.29-.291 0-.453.286-.496.376a.493.493 0 0 0-.49-.376c-.486 0-.743.624-.743.728 0 .02.019.043.052.043.038 0 .048-.028.057-.047.162-.529.481-.629.62-.629.214 0 .257.2.257.314 0 .105-.029.215-.086.443l-.162.653c-.071.286-.21.547-.462.547-.024 0-.143 0-.243-.061a.246.246 0 0 0 .21-.234c0-.095-.072-.152-.162-.152-.115 0-.238.1-.238.252 0 .2.223.29.428.29.229 0 .39-.18.49-.376a.498.498 0 0 0 .491.377c.486 0 .743-.624.743-.729 0-.024-.019-.043-.047-.043-.043 0-.048.024-.062.062-.129.42-.405.614-.62.614-.166 0-.256-.123-.256-.319 0-.104.019-.18.095-.495l.166-.648c.072-.285.234-.495.453-.495.01 0 .143 0 .243.062z"/>
<path d="M-99.37-1.14v-17.013" color="#000" fill="none" marker-end="url(#a)" stroke="#000" stroke-linecap="round" stroke-width=".132" style="marker-end:url(#a)"/>
<path d="M-99.37-1.14h21.797" color="#000" fill="none" marker-end="url(#a)" stroke="#000" stroke-linecap="round" stroke-width=".132" style="marker-end:url(#a)"/>
<circle cx="-90.731" cy="-15.815" r=".661" color="#000" fill="#5e5bff"/>
<circle cx="-74.794" cy="-21.884" r=".661" color="#000" fill="#5e5bff"/>
</g>
</svg>
