<svg width="193.233" height="143.425" viewBox="0 0 51.126 37.948" xml:space="preserve" xmlns="http://www.w3.org/2000/svg">
<defs>
<marker id="a" overflow="visible" orient="auto" refX="0" refY="0" viewBox="0 0 17.774 10.156" markerWidth="17.774" markerHeight="10.156" preserveAspectRatio="xMidYMid">
<path d="m-10 0-4 4L0 0l-14-4Z" fill-rule="evenodd" stroke="#000" stroke-width=".8pt"/>
</marker>
</defs>
<g transform="translate(168.396 57.302)">
<path d="M-163.691-30.484v-26.304" color="#000" fill="none" marker-end="url(#Arrow1Lend-6-8)" stroke="#000" stroke-linecap="round" stroke-miterlimit="100000" stroke-width=".265" style="font-variation-settings:normal;opacity:1;vector-effect:none;fill:none;fill-opacity:1;stroke:#040404;stroke-width:.264583;stroke-linecap:butt;stroke-linejoin:miter;stroke-miterlimit:4;stroke-dasharray:none;stroke-dashoffset:0;stroke-opacity:1;-inkscape-stroke:none;marker-end:url(#a);stop-color:#000;stop-opacity:1"/>
<g stroke-linejoin="round" stroke-miterlimit="100000" stroke-width="1.5">
<path d="M-153.179-23.525c-.152.029-.21.143-.21.234 0 .114.091.152.158.152.143 0 .243-.124.243-.252 0-.2-.229-.29-.429-.29-.29 0-.452.285-.495.375a.493.493 0 0 0-.49-.376c-.486 0-.743.624-.743.729 0 .019.019.043.052.043.038 0 .048-.029.057-.048.162-.529.481-.629.62-.629.213 0 .256.2.256.315 0 .104-.028.214-.085.443l-.162.652c-.072.286-.21.548-.462.548-.024 0-.143 0-.243-.062a.246.246 0 0 0 .21-.233c0-.096-.072-.153-.163-.153-.114 0-.238.1-.238.253 0 .2.224.29.429.29.229 0 .39-.18.49-.376a.498.498 0 0 0 .491.376c.486 0 .743-.624.743-.729 0-.023-.02-.042-.048-.042-.042 0-.047.023-.062.061-.128.42-.404.615-.619.615-.166 0-.257-.124-.257-.32 0-.104.02-.18.095-.495l.167-.647c.072-.286.233-.496.453-.496.01 0 .142 0 .242.062zM-143.6-34.281c-.129.18-.314.343-.548.343-.057 0-.285-.01-.357-.229a.24.24 0 0 0 .286-.229c0-.11-.09-.147-.162-.147-.076 0-.243.057-.243.29 0 .243.205.41.476.41.477 0 .958-.438 1.091-.967l.467-1.857c.004-.024.014-.053.014-.081 0-.072-.057-.12-.129-.12-.042 0-.142.02-.18.163l-.353 1.4c-.024.085-.024.095-.062.147-.095.134-.252.296-.48.296-.268 0-.291-.262-.291-.39 0-.272.128-.64.257-.982.052-.138.08-.205.08-.3 0-.2-.142-.381-.376-.381-.438 0-.614.69-.614.729 0 .019.02.043.052.043.043 0 .048-.02.067-.086.114-.4.295-.59.481-.59.043 0 .124 0 .124.156 0 .124-.052.262-.124.443-.233.624-.233.781-.233.896 0 .452.324.557.562.557.138 0 .31-.043.476-.22l.005.006c-.072.28-.12.466-.286.7zM-167.2-46.07c.205-.233.372-.38.61-.595a6.7 6.7 0 0 0 .476-.438c.333-.329.5-.605.5-.643 0-.038-.038-.038-.048-.038-.033 0-.043.019-.066.052-.12.205-.234.305-.358.305-.1 0-.152-.043-.242-.157-.1-.12-.181-.2-.32-.2-.347 0-.557.433-.557.533 0 .014.005.043.048.043.038 0 .043-.02.057-.052.081-.191.31-.224.4-.224.1 0 .195.033.295.076.181.076.258.076.305.076.034 0 .053 0 .076-.005-.157.186-.414.415-.628.61l-.481.443c-.29.295-.467.576-.467.61 0 .028.024.038.052.038.029 0 .034-.005.067-.062.076-.12.229-.296.405-.296.1 0 .148.034.243.153.09.105.171.205.324.205.466 0 .733-.605.733-.715 0-.019-.005-.047-.052-.047-.038 0-.043.019-.057.066a.628.628 0 0 1-.572.396.754.754 0 0 1-.295-.077c-.19-.076-.243-.076-.305-.076-.048 0-.1 0-.143.02zM-126.731-46.637a.356.356 0 0 0-.257.329c0 .105.08.219.238.219.166 0 .343-.138.343-.372 0-.252-.253-.419-.543-.419-.272 0-.448.205-.51.29-.119-.2-.386-.29-.657-.29-.6 0-.924.586-.924.743 0 .067.071.067.114.067.057 0 .09 0 .11-.062.138-.433.48-.576.676-.576.181 0 .267.085.267.238 0 .09-.067.352-.11.524l-.162.652c-.071.29-.243.434-.404.434-.024 0-.134 0-.23-.072a.356.356 0 0 0 .258-.328c0-.105-.08-.22-.238-.22-.167 0-.343.139-.343.372 0 .252.253.419.543.419.271 0 .448-.205.51-.29.119.2.385.29.657.29.6 0 .924-.586.924-.743 0-.067-.072-.067-.115-.067-.057 0-.09 0-.11.062-.137.434-.48.577-.675.577-.181 0-.267-.086-.267-.239 0-.1.062-.352.105-.528.033-.124.143-.572.166-.648.072-.286.239-.433.405-.433.024 0 .134 0 .229.071zM-164.767-29.656c0-.81-.562-1.228-1.386-1.228-1.472 0-2.243 1.262-2.243 2.214 0 .834.595 1.215 1.39 1.215 1.462 0 2.239-1.22 2.239-2.2zm-2.191 2a.75.75 0 0 1-.557-.218c-.21-.21-.21-.53-.21-.639 0-.3.143-1.19.533-1.68.32-.391.715-.5.991-.5.395 0 .786.213.786.818 0 .31-.172 1.143-.481 1.591-.357.524-.79.629-1.062.629z"/>
</g>
<path d="m-163.684-30.55 22.951-2.255 22.952-2.255" color="#000" marker-end="url(#Arrow1Lend-6-8)" stroke-linecap="round" stroke-miterlimit="100000" stroke-width=".265" style="font-variation-settings:normal;opacity:1;isolation:auto;mix-blend-mode:normal;vector-effect:none;fill:none;fill-opacity:1;stroke:#040404;stroke-width:.264583;stroke-linecap:butt;stroke-linejoin:miter;stroke-miterlimit:4;stroke-dasharray:none;stroke-dashoffset:0;stroke-opacity:1;-inkscape-stroke:none;marker-end:url(#a);shape-rendering:auto;stop-color:#000;stop-opacity:1"/>
<path d="m-152.284-25.03-11.407-5.454" color="#000" stroke-dasharray="4, 4" stroke-width=".132" style="isolation:auto;mix-blend-mode:normal;fill:none;stroke:#000;shape-rendering:auto"/>
<path d="m-163.691-30.484 11.407 5.454 11.407 5.455" color="#000" marker-end="url(#Arrow1Lend-6-8)" stroke-linecap="round" stroke-miterlimit="100000" stroke-width=".265" style="font-variation-settings:normal;opacity:1;isolation:auto;mix-blend-mode:normal;vector-effect:none;fill:none;fill-opacity:1;stroke:#040404;stroke-width:.264583;stroke-linecap:butt;stroke-linejoin:miter;stroke-miterlimit:4;stroke-dasharray:none;stroke-dashoffset:0;stroke-opacity:1;-inkscape-stroke:none;marker-end:url(#a);shape-rendering:auto;stop-color:#000;stop-opacity:1"/>
<path d="m-152.284-40.785-11.407-5.455m0 0 22.955-2.287m11.407 5.454v15.755m-22.955-13.467 22.955-2.288m-22.955 18.043v-15.755m22.955 13.468-22.955 2.287m11.548-23.498 11.407 5.455m-11.407 10.301v-15.755m11.407 21.21-11.407-5.455" color="#000" stroke-dasharray="4, 4" stroke-linecap="round" stroke-miterlimit="100" stroke-width=".132" style="font-variation-settings:normal;isolation:auto;mix-blend-mode:normal;vector-effect:none;fill:none;fill-opacity:1;stroke:#0f0000;stroke-width:.264583;stroke-linecap:butt;stroke-linejoin:round;stroke-miterlimit:100;stroke-dasharray:.529167,1.05833;stroke-dashoffset:0;stroke-opacity:1;-inkscape-stroke:none;shape-rendering:auto;stop-color:#000"/>
<circle cx="-129.263" cy="-43.264" r=".661" color="#000"/>
</g>
</svg>
