<svg width="236.98" height="142.281" viewBox="0 0 62.701 37.645" xml:space="preserve" xmlns="http://www.w3.org/2000/svg">
<defs>
<marker id="a" overflow="visible" orient="auto">
<path d="m-10 0-4 4L0 0l-14-4Z" fill-rule="evenodd" stroke="#000" stroke-width=".8pt"/>
</marker>
</defs>
<g transform="translate(176.66 13.611)">
<g fill="none" stroke="#414141" color="#000">
<path d="M-120.258 21.383c-5.545-8.3-11.41-16.373-17.5-23.14M-149.43 1.848c-2.986-5.519-6.427-10.296-10.486-12.786M-173.88 8.537c10.994-10.986 9.399 15.047 17.482 10.67" stroke-width=".26458"/>
</g>
<circle cx="-166.123" cy="7.571" r=".661" color="#000" fill="#5e5bff"/>
<circle cx="-153.848" cy="-5.208" r="8.337" color="#000" fill="none" stroke="#009da3" stroke-width=".132"/>
<circle cx="-153.848" cy="-5.208" r="2.62" color="#000" fill="none" stroke="#009da3" stroke-width=".132" style="isolation:auto;mix-blend-mode:normal"/>
<circle cx="-153.92" cy="-5.136" r=".661" color="#000" fill="#5e5bff"/>
<circle cx="-128.538" cy="9.455" r="14.513" color="#000" fill="none" stroke="#009da3" stroke-width=".132"/>
<circle cx="-128.61" cy="9.527" r=".661" color="#000" fill="#5e5bff"/>
<g fill="none" stroke="#009da3" stroke-width=".5" transform="matrix(.26458 0 0 .26458 -176.792 -13.743)" color="#000">
<path d="m33.693 77.848 24.12-58.142M42.882 87.217l57.57-26.597M78.552 37.872l59.956 82.737M87.682 22.417 188.77 33.19"/>
<ellipse cx="40.325" cy="80.556" rx="7.156" ry="7.13"/>
</g>
<path d="M-138.638 14.607c0-.014 0-.024-.08-.105-.477-.48-.744-1.267-.744-2.238 0-.924.224-1.72.777-2.281.047-.043.047-.053.047-.067 0-.029-.024-.038-.043-.038-.062 0-.452.343-.686.81-.242.48-.352.99-.352 1.576 0 .424.067.99.314 1.5.281.571.672.881.724.881.02 0 .043-.01.043-.038zM-135.76 13.469c0-.277-.09-.481-.285-.481a.225.225 0 0 0-.229.228c0 .105.071.234.233.234a.212.212 0 0 0 .158-.062c.01-.01.014-.01.019-.01.01 0 .01.066.01.09 0 .157-.029.467-.305.777-.053.057-.053.066-.053.076 0 .024.024.047.048.047.038 0 .405-.352.405-.9zM-129.812 12.264c0-.362-.048-.953-.315-1.505-.28-.572-.671-.881-.724-.881-.019 0-.042.01-.042.038 0 .014 0 .024.08.105.477.48.744 1.266.744 2.238 0 .924-.224 1.72-.777 2.281-.047.043-.047.053-.047.067 0 .029.023.038.043.038.061 0 .452-.343.685-.81.243-.485.353-1 .353-1.571z" style="stroke-width:.396876;stroke-linejoin:round;stroke-miterlimit:100000"/>
<path d="M-175.596 21.83V4.817" color="#000" fill="none" marker-end="url(#a)" stroke="#000" stroke-linecap="round" stroke-width=".132" style="marker-end:url(#a)"/>
<path d="M-175.596 21.83h21.798" color="#000" fill="none" marker-end="url(#a)" stroke="#000" stroke-linecap="round" stroke-width=".132" style="marker-end:url(#a)"/>
<path d="M-170.044 11.484h.797c.655 0 1.31-.484 1.31-1.025 0-.37-.313-.707-.911-.707h-1.466c-.09 0-.133 0-.133.09 0 .047.042.047.114.047.289 0 .289.038.289.09 0 .01 0 .038-.019.11l-.64 2.552c-.043.166-.053.214-.385.214-.09 0-.137 0-.137.085 0 .052.042.052.07.052.09 0 .186-.01.276-.01h.555c.09 0 .19.01.28.01.038 0 .09 0 .09-.09 0-.047-.043-.047-.114-.047-.284 0-.29-.033-.29-.08 0-.025.006-.058.01-.082zm.342-1.41c.042-.175.061-.184.246-.184h.47c.356 0 .65.113.65.47 0 .123-.062.526-.28.744-.08.086-.308.266-.74.266h-.669zM-174.536 1.46c-.152.029-.21.143-.21.234 0 .114.091.152.158.152.143 0 .243-.124.243-.252 0-.2-.229-.29-.429-.29-.29 0-.452.285-.495.375a.493.493 0 0 0-.49-.376c-.486 0-.744.624-.744.729 0 .019.02.043.053.043.038 0 .047-.029.057-.048.162-.529.481-.629.62-.629.213 0 .256.2.256.315 0 .105-.028.214-.085.443l-.162.652c-.072.286-.21.548-.462.548-.024 0-.143 0-.243-.062a.246.246 0 0 0 .21-.233c0-.096-.072-.153-.163-.153-.114 0-.238.1-.238.253 0 .2.224.29.429.29.229 0 .39-.18.49-.376a.498.498 0 0 0 .491.376c.486 0 .743-.624.743-.729 0-.023-.019-.042-.048-.042-.043 0-.047.023-.062.061-.128.42-.404.615-.619.615-.166 0-.257-.124-.257-.32 0-.104.02-.18.095-.495l.167-.647c.071-.286.233-.496.453-.496.01 0 .142 0 .242.062zM-151.352 21.307h.438c.09 0 .138 0 .138-.086 0-.052-.029-.052-.124-.052h-.419l.176-.695c.02-.067.02-.077.02-.11 0-.076-.063-.119-.125-.119-.038 0-.147.014-.185.167l-.186.757h-.448c-.095 0-.138 0-.138.09 0 .048.034.048.124.048h.424l-.314 1.257c-.039.167-.053.215-.053.277 0 .223.157.428.424.428.481 0 .738-.695.738-.729 0-.028-.019-.042-.047-.042-.01 0-.029 0-.038.019-.005.005-.01.01-.043.085-.1.238-.32.572-.596.572-.143 0-.152-.12-.152-.224 0-.005 0-.095.014-.152zM-131.548 11.507c-.152.028-.21.142-.21.233 0 .114.091.152.158.152.143 0 .243-.124.243-.252 0-.2-.23-.29-.43-.29-.29 0-.452.285-.494.376a.493.493 0 0 0-.49-.377c-.487 0-.744.624-.744.729 0 .019.02.043.053.043.038 0 .047-.029.057-.048.162-.528.48-.628.619-.628.214 0 .257.2.257.314 0 .105-.029.214-.086.443l-.162.652c-.071.286-.21.548-.462.548-.023 0-.142 0-.242-.062a.246.246 0 0 0 .21-.233c0-.095-.072-.153-.163-.153-.114 0-.238.1-.238.253 0 .2.224.29.429.29.228 0 .39-.18.49-.376a.498.498 0 0 0 .49.376c.487 0 .744-.624.744-.728 0-.024-.02-.043-.048-.043-.043 0-.047.024-.062.062-.128.419-.405.614-.619.614-.167 0-.257-.124-.257-.319 0-.105.019-.181.095-.495l.167-.648c.071-.286.233-.495.452-.495.01 0 .143 0 .243.062zM-137.415 11.535h.438c.09 0 .138 0 .138-.086 0-.052-.028-.052-.123-.052h-.42l.177-.695a.299.299 0 0 0 .019-.11c0-.076-.062-.119-.124-.119-.038 0-.148.014-.186.167l-.185.757h-.448c-.095 0-.138 0-.138.09 0 .048.033.048.124.048h.423l-.314 1.257c-.038.167-.052.215-.052.277 0 .223.157.428.424.428.48 0 .738-.695.738-.728 0-.029-.02-.043-.048-.043-.01 0-.028 0-.038.019-.005.005-.01.01-.043.085-.1.239-.319.572-.595.572-.143 0-.153-.12-.153-.224 0-.005 0-.095.015-.152z"/>
</g>
</svg>
