<svg width="111.694" height="163.23" xmlns="http://www.w3.org/2000/svg" xmlns:xlink="http://www.w3.org/1999/xlink">
<defs>
<symbol id="a">
<path d="M31.43 130.633c.096-.42.287-1.129.287-1.243 0-.345-.268-.517-.555-.517a.782.782 0 0 0-.708.536c-.057.134-.956 3.787-1.09 4.285-.134.573-.172.918-.172 1.262 0 .21 0 .249.02.344-.44 1.014-1.015 1.607-1.76 1.607-1.53 0-1.53-1.415-1.53-1.74 0-.613.095-1.359.994-3.711.21-.574.325-.842.325-1.225 0-.86-.631-1.568-1.569-1.568-1.817 0-2.524 2.773-2.524 2.946 0 .19.19.19.23.19.19 0 .21-.037.305-.343.517-1.78 1.263-2.372 1.932-2.372.172 0 .478.019.478.63 0 .48-.21 1.015-.344 1.34-.842 2.257-1.071 3.137-1.071 3.864 0 1.74 1.281 2.41 2.716 2.41.325 0 1.224 0 1.99-1.34.497 1.225 1.817 1.34 2.39 1.34 1.435 0 2.277-1.205 2.774-2.353.65-1.492 1.262-4.055 1.262-4.973 0-1.052-.516-1.34-.841-1.34-.478 0-.957.498-.957.919 0 .249.115.363.287.516.21.21.689.708.689 1.626 0 .65-.555 2.525-1.052 3.5-.497 1.015-1.167 1.684-2.104 1.684-.9 0-1.416-.574-1.416-1.664 0-.536.134-1.129.21-1.396zM40.722 131.471c0-.362-.027-.375-.402-.375-.857.844-2.075.857-2.624.857v.482c.321 0 1.205 0 1.941-.375v6.829c0 .442 0 .616-1.339.616h-.508v.482a98.468 98.468 0 0 1 2.383-.054c.415 0 2.102.04 2.397.054v-.482h-.509c-1.339 0-1.339-.174-1.339-.616z" stroke-linejoin="round" stroke-miterlimit="100000" stroke-width="1.6"/>
</symbol>
<symbol id="b">
<path d="M76.979 130.633c.096-.42.287-1.129.287-1.243 0-.345-.268-.517-.555-.517a.782.782 0 0 0-.708.536c-.057.134-.956 3.787-1.09 4.285-.134.573-.172.918-.172 1.262 0 .21 0 .249.02.344-.44 1.014-1.015 1.607-1.76 1.607-1.53 0-1.53-1.415-1.53-1.74 0-.613.095-1.359.994-3.711.21-.574.325-.842.325-1.225 0-.86-.631-1.568-1.569-1.568-1.817 0-2.524 2.773-2.524 2.946 0 .19.19.19.23.19.19 0 .21-.037.305-.343.517-1.78 1.263-2.372 1.932-2.372.172 0 .478.019.478.63 0 .48-.21 1.015-.344 1.34-.842 2.257-1.071 3.137-1.071 3.864 0 1.74 1.281 2.41 2.716 2.41.325 0 1.224 0 1.99-1.34.497 1.225 1.817 1.34 2.39 1.34 1.435 0 2.277-1.205 2.774-2.353.65-1.492 1.262-4.055 1.262-4.973 0-1.052-.516-1.34-.841-1.34-.478 0-.957.498-.957.919 0 .249.115.363.287.516.21.21.689.708.689 1.626 0 .65-.555 2.525-1.052 3.5-.497 1.015-1.167 1.684-2.104 1.684-.9 0-1.416-.574-1.416-1.664 0-.536.134-1.129.21-1.396zM88.547 137.55h-.455c-.04.295-.174 1.085-.348 1.218-.107.08-1.139.08-1.326.08h-2.464c1.406-1.244 1.875-1.62 2.678-2.249.991-.79 1.915-1.62 1.915-2.892 0-1.62-1.42-2.61-3.133-2.61-1.66 0-2.785 1.164-2.785 2.396 0 .683.575.75.71.75.32 0 .71-.228.71-.71 0-.241-.095-.71-.79-.71.414-.95 1.325-1.245 1.954-1.245 1.339 0 2.035 1.045 2.035 2.13 0 1.164-.83 2.088-1.258 2.57l-3.227 3.187c-.134.12-.134.147-.134.522h5.516z" stroke-linejoin="round" stroke-miterlimit="100000" stroke-width="1.6"/>
</symbol>
</defs>
<g fill="#dcdcdc" stroke="#555" stroke-width="2" color="#000">
<path d="M71.732 104.222a28.798 28.755 0 0 0-24.651 13.955 21.023 20.99 0 0 0-14.893-6.192 21.023 20.99 0 0 0-21.024 20.99 21.023 20.99 0 0 0 21.024 20.993 21.023 20.99 0 0 0 14.888-6.195 28.798 28.755 0 0 0 24.656 13.957 28.798 28.755 0 0 0 28.798-28.755 28.798 28.755 0 0 0-28.798-28.753z" style="isolation:auto;mix-blend-mode:normal"/>
<ellipse cx="81.396" cy="30.254" rx="28.798" ry="28.755" style="isolation:auto;mix-blend-mode:normal"/>
<ellipse cx="22.523" cy="30.254" rx="21.023" ry="20.991" style="isolation:auto;mix-blend-mode:normal"/>
</g>
<path d="M58.09 83.99H51.5V59.46h-7.21v24.53H37.7L47.895 98.85z" color="#000" fill="red" style="isolation:auto;mix-blend-mode:normal"/>
<path d="M56.891 132.718h5.337c.268 0 .631 0 .631-.383 0-.382-.363-.382-.631-.382h-5.337v-5.356c0-.268 0-.631-.382-.631s-.383.363-.383.631v5.356H50.77c-.268 0-.631 0-.631.382 0 .383.363.383.631.383h5.356v5.356c0 .268 0 .631.383.631s.382-.363.382-.631z"/>
<path d="M74.555 78.544q-1.387-.573-3.145-1.882-1.751-1.308-2.917-2.714-.905 1.25-2.617 2.584-1.712 1.328-3.463 2.09l-.437-.716q1.693-.814 3.32-2.116 1.635-1.302 2.436-2.493h1.438q1.03 1.334 2.754 2.597 1.732 1.257 3.164 1.817zm-2.624-.423h-6.784v-.788h6.784zm.208 6.204h-7.343v.651h-1.023v-5.071h9.395v5.032h-1.029zm-7.343-.788h7.343v-2.845h-7.343zM79.77 73.388q-.41 1.452-1.713 3.847h.384V85.1h-1.035v-6.725q-.703 1.132-1.458 1.992l-.664-.534q1.178-1.452 2.168-3.464.996-2.011 1.289-3.157zm8.645 8.828-.664.735q-1.009-.865-2.064-2.226-1.054-1.367-1.718-2.559v3.464h1.738v.775h-1.738v2.597h-.977v-2.597h-1.894v-.775h1.894v-3.45q-1.953 3.242-3.906 4.758l-.554-.598q.88-.743 2.142-2.318 1.263-1.582 1.973-3.236h-3.424v-.8h3.743v-2.761h1.042v2.76h3.919v.801h-3.718q.274.651 1.478 2.415 1.211 1.758 2.728 3.015z" fill="red"/>
<use width="100%" height="100%" xlink:href="#a"/>
<use transform="translate(-10.336 -104.07)" width="100%" height="100%" xlink:href="#a"/>
<use width="100%" height="100%" xlink:href="#b"/>
<use transform="translate(2.774 -104.07)" width="100%" height="100%" xlink:href="#b"/>
</svg>
