<svg width="199.36" height="73.005" xmlns="http://www.w3.org/2000/svg">
<g color="#000">
<path fill="#cacaca" style="isolation:auto;mix-blend-mode:normal" d="M.5 15.989h28.284v56.516H.5z"/>
<path d="M28.784 15.989v56.516" fill="none" stroke="#555" stroke-width="3" style="isolation:auto;mix-blend-mode:normal"/>
<path d="M28.784 44.246h10.735c.356 2.428.712 4.849 1.069 6.804.356 1.955.712 3.433 1.068 4.154.356.722.712.68 1.068-.113.357-.794.713-2.338 1.069-4.338.356-1.999.712-4.444 1.068-6.871.357-2.426.713-4.82 1.069-6.73.356-1.908.712-3.319 1.068-3.966.357-.648.713-.525 1.069.34.356.866.712 2.474 1.068 4.516.356 2.042.713 4.51 1.069 6.932.356 2.423.712 4.788 1.068 6.648.356 1.86.713 3.203 1.069 3.776s.712.37 1.068-.567c.356-.937.713-2.608 1.069-4.69.356-2.083.712-4.569 1.068-6.986.356-2.416.712-4.75 1.069-6.56.356-1.81.712-3.083 1.068-3.581s.712-.214 1.068.793c.357 1.008.713 2.739 1.069 4.86.356 2.12.712 4.623 1.068 7.032.357 2.408.713 4.709 1.069 6.466.356 1.758.712 2.96 1.068 3.382.356.423.713.059 1.069-1.019.356-1.077.712-2.866 1.068-5.024s.712-4.674 1.069-7.071.712-4.662 1.068-6.366c.356-1.703.712-2.834 1.069-3.18.356-.346.712.098 1.068 1.244.356 1.146.712 2.991 1.069 5.183.356 2.192.712 4.72 1.068 7.104.356 2.384.712 4.61 1.068 6.258.357 1.648.713 2.705 1.069 2.975s.712-.254 1.068-1.467c.357-1.213.713-3.113 1.069-5.337.356-2.224.712-4.76 1.068-7.13.356-2.367.713-4.553 1.069-6.144.356-1.59.712-2.573 1.068-2.766.356-.194.713.409 1.069 1.688.356 1.28.712 3.232 1.068 5.486.356 2.254.712 4.797 1.069 7.147.356 2.35.712 4.493 1.068 6.025.356 1.531.712 2.44 1.069 2.556.356.116.712-.564 1.068-1.909.356-1.344.712-3.348 1.068-5.629.357-2.281.713-4.828 1.069-7.158s.712-4.428 1.068-5.899c.356-1.47.713-2.303 1.069-2.342.356-.04.712.719 1.068 2.126.356 1.408.713 3.461 1.069 5.767.356 2.307.712 4.855 1.068 7.162s.712 4.358 1.069 5.767c.356 1.409.712 2.164 1.068 2.126.356-.038.712-.872 1.068-2.342.357-1.47.713-3.57 1.069-5.899s.712-4.876 1.068-7.158c.357-2.281.713-4.284 1.069-5.63.356-1.345.712-2.022 1.068-1.908.357.115.713 1.026 1.069 2.556s.712 3.675 1.068 6.025.713 4.893 1.069 7.147c.356 2.254.712 4.206 1.068 5.486.356 1.28.713 1.88 1.069 1.689.356-.192.712-1.178 1.068-2.767.356-1.59.712-3.777 1.068-6.145.357-2.368.713-4.905 1.069-7.129.356-2.224.712-4.123 1.068-5.337.357-1.215.713-1.735 1.069-1.467.356.269.712 1.329 1.068 2.975.357 1.647.713 3.875 1.069 6.258.356 2.384.712 4.912 1.068 7.104.357 2.193.713 4.036 1.069 5.183.356 1.147.712 1.589 1.068 1.244.357-.345.713-1.478 1.069-3.18.356-1.703.712-3.969 1.068-6.366.356-2.397.713-4.913 1.069-7.071.356-2.159.712-3.945 1.068-5.024.356-1.079.713-1.44 1.069-1.02.356.422.712 1.626 1.068 3.383.356 1.756.713 4.058 1.069 6.466.356 2.408.712 4.91 1.068 7.032.356 2.122.712 3.85 1.069 4.86.356 1.009.712 1.29 1.068.793.356-.496.712-1.772 1.069-3.58.356-1.81.712-4.144 1.068-6.561.356-2.417.712-4.902 1.068-6.986.357-2.083.713-3.75 1.069-4.69.356-.938.712-1.139 1.068-.567.357.572.713 1.916 1.069 3.776.356 1.859.712 4.225 1.068 6.648.357 2.423.713 4.89 1.069 6.932.356 2.043.712 3.649 1.068 4.516.357.867.713.987 1.069.34.356-.645.712-2.058 1.068-3.966.357-1.908.713-4.303 1.069-6.73.356-2.426.712-4.871 1.068-6.871.356-2 .713-3.543 1.069-4.337.356-.795.712-.834 1.068-.114.356.72.713 2.2 1.069 4.154.356 1.955.712 4.376 1.068 6.804h24.2" fill="none" stroke="#555" stroke-width="1.5" style="isolation:auto;mix-blend-mode:normal"/>
<path d="M92.248 8.622v6.59h67.022v7.21H92.248v6.59L77.386 18.817z" fill="red" style="isolation:auto;mix-blend-mode:normal"/>
<circle cx="178.81" cy="44.246" r="19.543" fill="#cacaca" stroke="#555" style="isolation:auto;mix-blend-mode:normal"/>
</g>
<g fill="red" color="#000">
<path d="M101.76 4.07q-.068 2.574-1.262 4.578-1.188 2.004-3.57 3.044l-.476-.712q2.091-.94 3.18-2.79 1.095-1.85 1.095-3.965V4.07h-3.712v-.792h3.712V.773h1.033v2.505h5.327v2.215q0 1.757-.155 2.939-.149 1.175-.458 1.986-.16.433-.538.717-.371.29-.81.384-.291.062-1.813.062h-.712l-.13-.897h1.838q1.132 0 1.441-1.256.316-1.256.316-4.052V4.07zM112.37 11.178l-.848.544q-.804-1.323-1.924-2.635l.724-.507q1.355 1.602 2.048 2.598zM124.42 4.794q0 1.949-.606 3.873-.6 1.917-1.757 3.248l-.668-.495q.996-1.182 1.528-2.957.538-1.776.538-3.88v-.797h-1.578v-.749h1.578V.606h.965v2.431h2.908v1.701l-.006 1.825q-.006.953-.075 1.974-.062 1.02-.222 1.701-.155.68-.36.953-.197.272-.506.42-.31.149-.687.149h-1.349l-.111-.866h.977q.347 0 .557-.08.21-.087.34-.279.13-.192.217-.557.093-.365.155-.959.068-.593.086-1.181.019-.594.019-2.728V3.786h-1.943zm7.603 5.995h-2.406v.915h-.965V1.577h4.336v10.041h-.965zm-2.406-.805h2.406V2.35h-2.406zM146.17 9.019l-.47.736q-2.079-.835-3.588-2.4V10.3h-.922V7.417q-1.522 1.534-3.397 2.289l-.346-.638q1.083-.476 2.097-1.286 1.021-.81 1.38-1.28h-2.753V3.394h2.994V2.362h-3.502v-.76h3.502V.71h.959v.89h3.576v.761h-3.576v1.033h3.025v3.106h-2.79q.631.724 1.714 1.435 1.089.712 2.097 1.083zm-1.955-3.167V4.07h-2.09V5.85zm-3.05 0V4.07H139.1V5.85zm-4.083-2.982-.866.513q-.557-.99-1.485-2.122l.786-.489q.971 1.2 1.565 2.098zm9.292 7.906-.18.841-3.451.013q-2.605 0-3.211-.056t-1.244-.198q-.637-.136-1.113-.458-.47-.328-.687-.711-1.027 1.051-2.03 1.54l-.333-.829q.34-.148.953-.55.618-.409.866-.65V5.944h-1.64v-.767h2.61v3.972q0 .581.41.952.408.365.958.495.55.124 1.033.192.483.068 2.803.068 2.994 0 4.256-.08zM148.83 2.325v2.957q0 2.37-.42 3.94-.415 1.572-1.114 2.537l-.625-.476q1.231-2.072 1.231-5.444V1.552h4.832V.5h1.008v1.052h4.881v.773zm2.326 4.034v-1.85h-1.812v-.724h1.812v-.916h.928v.916h3.18v-.916h.971v.916h2.005v.724h-2.005v1.85zm.928-1.85v1.175h3.18V4.51zm1.819 6.143q-1.967.903-4.894 1.225l-.204-.767q.835-.074 1.547-.204.717-.13 1.188-.266.476-.136 1.41-.458-1.522-.891-2.301-2.221h-1.021v-.736h7.572l.235.266q-.798 1.583-2.617 2.678 1.646.607 3.78.817l-.377.81q-2.326-.278-4.318-1.144zm-.006-.885q1.447-.785 2.14-1.806h-4.349q.78 1.083 2.209 1.806z" style="text-decoration-line:none;text-indent:0;text-transform:none"/>
</g>
<g stroke-width="1.111">
<path d="M179.858 10.678a1.429 1.429 0 0 0-1.033 1.32c0 .42.325.88.956.88.67 0 1.377-.555 1.377-1.492 0-1.014-1.013-1.683-2.18-1.683-1.09 0-1.798.822-2.047 1.166-.478-.803-1.55-1.166-2.64-1.166-2.41 0-3.71 2.352-3.71 2.984 0 .267.286.267.459.267.23 0 .363 0 .44-.248.554-1.74 1.932-2.315 2.716-2.315.727 0 1.07.344 1.07.957 0 .363-.267 1.415-.44 2.104l-.65 2.62c-.286 1.167-.975 1.74-1.625 1.74-.096 0-.536 0-.919-.286a1.429 1.429 0 0 0 1.033-1.32c0-.42-.325-.88-.956-.88-.67 0-1.377.555-1.377 1.492 0 1.014 1.014 1.683 2.18 1.683 1.09 0 1.798-.822 2.047-1.166.478.803 1.55 1.166 2.64 1.166 2.41 0 3.71-2.352 3.71-2.984 0-.267-.286-.267-.459-.267-.23 0-.363 0-.44.248-.554 1.741-1.931 2.315-2.716 2.315-.726 0-1.07-.344-1.07-.956 0-.402.248-1.416.42-2.124.134-.497.574-2.295.67-2.601.286-1.148.956-1.74 1.625-1.74.096 0 .536 0 .919.286zM185.505 15.928h1.366c.254 0 .428 0 .428-.294 0-.188-.174-.188-.402-.188h-1.272l.496-1.981c.013-.067.04-.134.04-.188 0-.241-.188-.428-.455-.428-.335 0-.536.227-.63.575-.093.335.08-.308-.508 2.022h-1.366c-.255 0-.429 0-.429.295 0 .187.161.187.402.187h1.272l-.79 3.16c-.08.335-.2.817-.2.991 0 .79.669 1.272 1.432 1.272 1.486 0 2.33-1.875 2.33-2.049s-.174-.174-.215-.174c-.16 0-.174.027-.28.255-.376.843-1.059 1.593-1.795 1.593-.281 0-.469-.174-.469-.656 0-.134.054-.415.08-.549l.965-3.843z"/>
</g>
</svg>
