<svg width="122.491" height="130.294" xmlns="http://www.w3.org/2000/svg" xmlns:xlink="http://www.w3.org/1999/xlink">
<defs>
<symbol id="a">
<path d="M93.57 83.334h2.238c.364 0 .708 0 .708-.555 0-.344-.325-.344-.65-.344h-2.143l.631-3.462c.058-.345.058-.383.25-.555.248-.23.458-.23.554-.23.268 0 .44.039.67.134-.46.23-.804.727-.804 1.244 0 .574.459.88.937.88.785 0 1.377-.689 1.377-1.416 0-.975-.994-1.53-2.18-1.53-.9 0-1.97.363-2.64 1.435-.44.707-.555 1.453-.918 3.5h-1.875c-.363 0-.688 0-.688.555 0 .344.325.344.631.344h1.76l-1.454 8.149c-.038.172-.249 1.377-.344 1.645-.038.095-.345.975-.957.975-.363 0-.516-.057-.65-.114.478-.23.842-.727.842-1.263 0-.574-.46-.88-.938-.88-.784 0-1.377.689-1.377 1.416 0 1.033 1.09 1.53 2.085 1.53 1.435 0 2.43-1.416 2.582-1.664.823-1.263 1.263-3.692 1.32-4.017z" stroke-linejoin="round" stroke-miterlimit="100000" stroke-width="1.333"/>
</symbol>
<symbol id="b">
<use xlink:href="#a"/>
</symbol>
</defs>
<g fill="none" stroke="#555" color="#000">
<path d="m76.442 129.7-1.431-8.209c-1.942.09-3.878.18-5.45.207-1.573.026-2.77-.013-3.377-.155-.607-.142-.616-.389-.037-.737.579-.35 1.746-.8 3.268-1.314s3.395-1.087 5.252-1.658c1.857-.572 3.689-1.139 5.14-1.64s2.514-.934 2.98-1.263c.464-.328.326-.552-.393-.675-.72-.122-2.02-.143-3.66-.105-1.64.038-3.612.134-5.55.224-1.938.09-3.831.172-5.33.185-1.497.013-2.59-.044-3.08-.206-.49-.163-.373-.43.373-.809.747-.378 2.105-.862 3.751-1.397 1.647-.535 3.574-1.119 5.409-1.686 1.834-.568 3.564-1.117 4.855-1.59 1.292-.473 2.134-.868 2.363-1.155.23-.288-.16-.468-1.099-.552-.938-.085-2.424-.073-4.182-.015-1.757.059-3.777.163-5.685.248-1.907.084-3.692.147-5.023.132-1.331-.016-2.2-.112-2.273-.348-.073-.235.657-.61 1.859-1.067 1.201-.457 2.871-.996 4.682-1.56 1.812-.563 3.755-1.15 5.454-1.694s3.142-1.043 4.05-1.45c.91-.405 1.275-.717 1.023-.92-.252-.205-1.124-.3-2.454-.317s-3.116.048-5.023.132c-1.908.085-3.928.19-5.686.248-1.757.058-3.242.07-4.181-.015-.94-.084-1.327-.264-1.1-.551s1.073-.683 2.364-1.156c1.29-.473 3.021-1.022 4.855-1.59 1.834-.567 3.762-1.15 5.409-1.686 1.647-.535 3.003-1.019 3.805-1.407.803-.387 1.043-.677.672-.86-.371-.183-1.356-.26-2.773-.26-1.416-.001-3.26.072-5.186.16-1.926.088-3.926.189-5.629.238-1.702.049-3.097.044-3.928-.059-.832-.103-1.094-.305-.689-.623.406-.319 1.47-.752 2.92-1.253 1.452-.5 3.284-1.068 5.141-1.64 1.857-.57 3.729-1.145 5.252-1.658 1.523-.514 2.688-.964 3.268-1.313.58-.35.569-.595-.037-.737-.605-.143-1.805-.181-3.376-.155-1.572.026-3.509.116-5.45.206L64.462 63.01M121.598 4.531l-5.798 5.985c-1.644-1.075-3.283-2.146-4.658-2.96-1.374-.814-2.475-1.363-3.146-1.495-.67-.132-.905.158-.71.864.193.705.816 1.826 1.698 3.198.882 1.372 2.019 2.99 3.145 4.599 1.126 1.608 2.233 3.198 3.064 4.52.83 1.322 1.376 2.369 1.487 2.994.111.625-.218.824-.97.612-.753-.211-1.929-.833-3.352-1.695-1.424-.861-3.09-1.958-4.732-3.03-1.64-1.072-3.249-2.113-4.569-2.874-1.32-.761-2.344-1.236-2.93-1.286-.586-.05-.728.33-.412 1.153.316.824 1.078 2.08 2.05 3.54.973 1.459 2.15 3.117 3.26 4.709 1.109 1.592 2.142 3.11 2.856 4.319.713 1.208 1.1 2.1 1.038 2.558-.06.459-.573.48-1.485.114-.913-.366-2.224-1.12-3.733-2.064-1.51-.944-3.21-2.075-4.83-3.125-1.618-1.051-3.147-2.014-4.346-2.658-1.199-.644-2.06-.962-2.342-.716-.28.245.023 1.057.672 2.202.648 1.146 1.637 2.622 2.73 4.198 1.092 1.575 2.28 3.244 3.291 4.74 1.01 1.497 1.835 2.813 2.27 3.752.434.938.473 1.493.06 1.611-.41.119-1.274-.2-2.472-.843-1.199-.643-2.728-1.608-4.347-2.658-1.619-1.05-3.32-2.18-4.83-3.126-1.509-.944-2.82-1.696-3.732-2.063-.914-.368-1.424-.344-1.486.113-.062.458.326 1.35 1.039 2.559.713 1.208 1.747 2.727 2.856 4.319 1.11 1.592 2.286 3.25 3.26 4.71.972 1.46 1.733 2.714 2.09 3.577.356.863.304 1.33-.195 1.364-.498.035-1.445-.364-2.705-1.068-1.261-.704-2.833-1.71-4.466-2.773-1.632-1.064-3.319-2.18-4.788-3.086-1.47-.906-2.714-1.594-3.548-1.885-.835-.29-1.254-.18-1.186.404.067.582.615 1.63 1.445 2.952.83 1.321 1.938 2.912 3.063 4.52 1.126 1.608 2.263 3.227 3.145 4.599.883 1.372 1.504 2.492 1.699 3.198.195.706-.042.995-.711.864-.67-.131-1.772-.682-3.146-1.495-1.374-.814-3.014-1.885-4.658-2.96L64.463 63.01" style="isolation:auto;mix-blend-mode:normal"/>
<path d="m.688 85.895 7.828-2.855c.92 1.717 1.839 3.43 2.63 4.794.793 1.365 1.455 2.372 1.91 2.816.457.444.705.318.749-.369.044-.686-.117-1.934-.401-3.52-.285-1.587-.69-3.507-1.091-5.413-.4-1.906-.793-3.787-1.052-5.307-.26-1.519-.384-2.666-.3-3.244.083-.578.376-.581.871-.03.495.551 1.193 1.657 2.008 3.086.816 1.43 1.747 3.176 2.666 4.89.92 1.713 1.823 3.383 2.588 4.677.766 1.294 1.392 2.2 1.807 2.534.416.333.62.086.606-.76-.015-.847-.242-2.276-.569-3.981-.327-1.705-.753-3.678-1.145-5.562-.393-1.884-.75-3.669-.954-5.035-.203-1.366-.251-2.304-.086-2.657.166-.353.546-.117 1.118.644.571.76 1.333 2.043 2.19 3.584.856 1.54 1.804 3.333 2.712 5.017.909 1.685 1.774 3.252 2.482 4.387.709 1.135 1.256 1.83 1.526 1.764.27-.066.262-.896.09-2.177-.173-1.281-.509-3.008-.894-4.87-.384-1.862-.815-3.85-1.16-5.605-.346-1.754-.603-3.266-.674-4.267s.047-1.484.38-1.379c.333.106.881.802 1.589 1.936.708 1.135 1.574 2.702 2.482 4.387.909 1.684 1.856 3.476 2.713 5.017.856 1.542 1.617 2.823 2.19 3.584.571.762.951.996 1.117.644.166-.352.117-1.292-.086-2.657-.204-1.366-.56-3.151-.953-5.035-.393-1.884-.818-3.856-1.146-5.562-.327-1.705-.554-3.133-.588-4.033-.034-.9.128-1.264.502-1.045.374.22.962 1.024 1.7 2.24.737 1.216 1.624 2.84 2.539 4.542s1.855 3.475 2.693 4.964c.837 1.489 1.567 2.684 2.101 3.342.535.659.87.774.975.253.104-.521-.02-1.67-.28-3.19-.26-1.518-.652-3.4-1.052-5.306-.4-1.905-.807-3.825-1.091-5.412-.285-1.587-.445-2.833-.401-3.52.043-.689.292-.813.748-.37.456.443 1.118 1.452 1.91 2.816.791 1.364 1.71 3.077 2.63 4.794l17.648-6.435" style="isolation:auto;mix-blend-mode:normal"/>
</g>
<g fill="red" color="#000">
<path d="m75.143 93.985-3.258.568-3.605-20.685-3.564.62 3.605 20.686-3.257.568 6.32 6.468zM109.507 23.985l-2.375-2.3L73.706 56.19l-2.598-2.517 33.425-34.506-2.375-2.3 8.863-1.798zM24.68 71.942l1.133 3.107 27.435-10.004 1.239 3.398-27.434 10.005 1.133 3.106-8.76-2.251z" style="isolation:auto;mix-blend-mode:normal"/>
</g>
<circle transform="rotate(-90)" cx="-63.01" cy="64.463" r="11.023" color="#000" fill="#cacaca" stroke="#555" style="isolation:auto;mix-blend-mode:normal"/>
<g stroke-linejoin="round" stroke-miterlimit="100000" stroke-width="1.333">
<path d="M21.209 52.088c0-.362-.027-.375-.402-.375-.857.844-2.075.857-2.624.857v.482c.321 0 1.205 0 1.941-.375v6.829c0 .442 0 .616-1.339.616h-.508v.482a101.66 101.66 0 0 1 2.383-.054c.415 0 2.102.04 2.397.054v-.482h-.51c-1.338 0-1.338-.174-1.338-.616zM87.544 16.167h-.456c-.04.295-.174 1.085-.348 1.218-.107.08-1.138.08-1.325.08H82.95c1.406-1.244 1.874-1.62 2.678-2.249.99-.79 1.915-1.62 1.915-2.892 0-1.62-1.42-2.61-3.134-2.61-1.66 0-2.785 1.164-2.785 2.396 0 .683.576.75.71.75.321 0 .71-.228.71-.71 0-.241-.094-.71-.79-.71.415-.95 1.325-1.245 1.955-1.245 1.339 0 2.035 1.045 2.035 2.13 0 1.164-.83 2.088-1.259 2.57l-3.227 3.187c-.134.12-.134.147-.134.522h5.517zM101.997 91.132c1.044 0 1.794.723 1.794 2.156 0 1.66-.964 2.156-1.74 2.156-.536 0-1.714-.148-2.277-.938.63-.026.777-.468.777-.75a.718.718 0 0 0-.737-.736c-.374 0-.75.228-.75.777 0 1.258 1.393 2.075 3.013 2.075 1.862 0 3.147-1.245 3.147-2.584 0-1.045-.857-2.089-2.33-2.397 1.406-.509 1.915-1.513 1.915-2.33 0-1.058-1.219-1.848-2.705-1.848s-2.624.723-2.624 1.795c0 .455.294.71.696.71a.661.661 0 0 0 .683-.684c0-.388-.268-.67-.683-.696.469-.589 1.393-.736 1.888-.736.602 0 1.446.294 1.446 1.46 0 .562-.187 1.177-.536 1.593-.441.508-.816.535-1.486.575-.335.027-.361.027-.428.04-.027 0-.134.027-.134.175 0 .187.12.187.348.187z"/>
</g>
<use width="100%" height="100%" xlink:href="#b"/>
<use transform="translate(-81.618 -35)" width="100%" height="100%" xlink:href="#b"/>
<use transform="translate(-17.56 -77)" width="100%" height="100%" xlink:href="#b"/>
</svg>
