<svg width="206.5" height="115.29" xmlns="http://www.w3.org/2000/svg">
<defs>
<clipPath id="a">
<path d="M87.684 54.434a14.06 19.042 0 0 1 19.884 0l-9.942 13.465zM10.947 36.656l5.75 49.75 164.25-10-5-41z" color="#000" fill="#fff" stroke="#000" stroke-width=".867" style="isolation:auto;mix-blend-mode:normal"/>
</clipPath>
</defs>
<g color="#000">
<path d="m125.82 101.24 8.7 13.051h62.358l8.7-13.051" fill="none" stroke="#000" style="isolation:auto;mix-blend-mode:normal"/>
<path transform="scale(-1 1)" style="isolation:auto;mix-blend-mode:normal" d="M-189.72 97.177h15.004v15.004h-15.004zM-173.2 97.177h15.004v15.004H-173.2zM-156.68 97.177h15.004v15.004h-15.004zM-181.9 88.698h6.962v6.962h-6.962zM-173.42 88.698h6.962v6.962h-6.962zM-164.94 88.698h6.962v6.962h-6.962zM-156.46 88.698h6.962v6.962h-6.962z"/>
<path d="m.916 101.24 39.879-85.914 39.879 85.914" fill="none" stroke="#000" stroke-dasharray="1.8, 1.8" stroke-width=".3" style="isolation:auto;mix-blend-mode:normal"/>
<path d="m.916 101.24 8.701 13.051h62.357l8.7-13.051" fill="none" stroke="#000" style="isolation:auto;mix-blend-mode:normal"/>
<path transform="scale(-1 1)" fill="red" style="isolation:auto;mix-blend-mode:normal" d="M-52.078 89.62h22.566v22.566h-22.566z"/>
<g stroke="#000">
<path d="m125.82 101.24 39.879-85.914 39.879 85.914" fill="none" stroke-dasharray="1.8, 1.8" stroke-width=".3" style="isolation:auto;mix-blend-mode:normal"/>
<path transform="translate(5.622 -47.857)" d="M29.173 63.924a427.323 427.323 0 0 1 68.453-5.521c22.917 0 45.833 1.848 68.453 5.521" clip-path="url(#a)" fill="none" stroke-width="3" style="isolation:auto;mix-blend-mode:normal"/>
<path d="M93.306 6.577a14.06 19.042 0 0 1 19.884 0l-9.942 13.465z" fill="#fff" style="isolation:auto;mix-blend-mode:normal"/>
</g>
<path d="M40.264 70.606c.162-.666.234-.702.936-.702h2.34c2.034 0 2.034 1.728 2.034 1.89 0 1.458-1.458 3.312-3.834 3.312h-2.592zm3.042 4.644c1.962-.36 3.744-1.728 3.744-3.384 0-1.404-1.242-2.484-3.276-2.484h-5.778c-.342 0-.504 0-.504.342 0 .18.162.18.432.18 1.098 0 1.098.144 1.098.342 0 .036 0 .144-.072.414l-2.43 9.684c-.162.63-.198.81-1.458.81-.342 0-.522 0-.522.324 0 .198.108.198.468.198h6.174c2.754 0 4.878-2.088 4.878-3.906 0-1.476-1.296-2.376-2.754-2.52zm-2.556 5.904h-2.43c-.252 0-.288 0-.396-.018-.198-.018-.216-.054-.216-.198 0-.126.036-.234.072-.396l1.26-5.076h3.384c2.124 0 2.124 1.98 2.124 2.124 0 1.728-1.566 3.564-3.798 3.564z" fill="red" style="isolation:auto;mix-blend-mode:normal"/>
</g>
<g stroke-linejoin="round" stroke-miterlimit="100000" stroke-width="1.5">
<path d="M152.65 75.711c1.47-.484 2.51-1.74 2.51-3.156 0-1.47-1.577-2.475-3.299-2.475-1.811 0-3.174 1.076-3.174 2.439 0 .592.394.932.914.932.556 0 .915-.394.915-.914 0-.897-.843-.897-1.112-.897.556-.879 1.74-1.112 2.385-1.112.736 0 1.722.395 1.722 2.009 0 .215-.036 1.255-.502 2.044-.538.861-1.148.915-1.596.933a9.897 9.897 0 0 1-.7.054c-.143.017-.269.035-.269.215 0 .197.126.197.43.197h.79c1.47 0 2.134 1.22 2.134 2.977 0 2.439-1.238 2.959-2.027 2.959-.77 0-2.116-.305-2.743-1.363.627.09 1.183-.305 1.183-.986 0-.646-.484-1.005-1.004-1.005-.43 0-1.004.251-1.004 1.04 0 1.632 1.668 2.816 3.622 2.816 2.188 0 3.82-1.632 3.82-3.461 0-1.47-1.13-2.87-2.995-3.246zM159.825 81.073c0-.52-.43-.95-.95-.95s-.95.43-.95.95.43.95.95.95.95-.43.95-.95zM166.618 79.064v1.56c0 .646-.036.843-1.363.843h-.376v.556c.735-.054 1.667-.054 2.42-.054s1.704 0 2.44.054v-.556h-.377c-1.327 0-1.363-.197-1.363-.843v-1.56h1.793v-.556h-1.793v-8.16c0-.358 0-.466-.287-.466-.162 0-.215 0-.359.216l-5.505 8.41v.556zm.108-.556h-4.376l4.376-6.689zM173.488 79.961c-.717 1.202-1.417 1.452-2.206 1.506-.215.018-.376.018-.376.359 0 .107.09.197.233.197.484 0 1.04-.054 1.542-.054.592 0 1.22.054 1.793.054.108 0 .341 0 .341-.34 0-.198-.161-.216-.287-.216-.412-.036-.843-.179-.843-.627 0-.216.108-.413.251-.664l1.363-2.295h4.501c.036.376.287 2.815.287 2.995 0 .538-.932.591-1.29.591-.252 0-.431 0-.431.359 0 .197.215.197.25.197.736 0 1.507-.054 2.242-.054.449 0 1.578.054 2.027.054.107 0 .323 0 .323-.358 0-.198-.18-.198-.413-.198-1.112 0-1.112-.125-1.165-.645l-1.094-11.208c-.036-.359-.036-.43-.341-.43-.287 0-.359.125-.466.304zm2.152-2.636 3.533-5.918.573 5.918z"/>
</g>
</svg>
