<svg width="104.005" height="126.998" xmlns="http://www.w3.org/2000/svg" xmlns:xlink="http://www.w3.org/1999/xlink">
<defs>
<symbol id="a">
<path d="M62.52 59.865h2.237c.364 0 .708 0 .708-.555 0-.344-.325-.344-.65-.344h-2.143l.631-3.462c.058-.345.058-.383.25-.555.248-.23.458-.23.554-.23.268 0 .44.039.67.134-.46.23-.804.727-.804 1.244 0 .574.459.88.937.88.784 0 1.377-.689 1.377-1.416 0-.975-.994-1.53-2.18-1.53-.9 0-1.97.363-2.64 1.435-.44.707-.555 1.453-.918 3.5h-1.875c-.363 0-.688 0-.688.555 0 .344.325.344.631.344h1.76l-1.454 8.149c-.038.172-.249 1.377-.344 1.645-.039.095-.345.975-.957.975-.363 0-.516-.057-.65-.114.478-.23.842-.727.842-1.263 0-.574-.46-.88-.938-.88-.784 0-1.377.689-1.377 1.416 0 1.033 1.09 1.53 2.085 1.53 1.435 0 2.43-1.416 2.582-1.664.823-1.263 1.263-3.692 1.32-4.017z" stroke-linejoin="round" stroke-miterlimit="100000" stroke-width="1.333"/>
</symbol>
</defs>
<g color="#000">
<path d="M36.006 19.592v8.333c-1.929.276-3.852.553-5.405.83-1.554.276-2.727.552-3.3.828-.573.277-.54.553.09.83.63.276 1.857.553 3.445.83s3.531.552 5.459.829c1.928.276 3.83.552 5.346.829s2.637.553 3.151.83c.515.276.417.552-.27.829-.688.276-1.966.553-3.588.829-1.622.276-3.582.553-5.506.83-1.925.276-3.804.552-5.282.829-1.478.276-2.544.553-3 .83-.455.276-.293.552.507.828.8.277 2.221.553 3.935.83 1.714.276 3.713.553 5.618.83s3.703.552 5.056.829c1.354.276 2.252.552 2.527.829.275.276-.078.553-.988.83-.91.276-2.376.552-4.118.829-1.74.276-3.749.553-5.643.829-1.894.277-3.662.553-4.971.83-1.31.276-2.149.552-2.18.829-.031.276.752.553 2.015.83 1.262.276 3 .552 4.88.829 1.882.276 3.897.552 5.664.829 1.767.276 3.275.553 4.24.83.964.276 1.378.552 1.165.829-.213.276-1.055.553-2.364.829-1.308.276-3.077.553-4.97.83-1.894.276-3.903.552-5.644.829-1.742.276-3.206.553-4.117.83-.912.276-1.262.552-.988.828.274.277 1.174.553 2.526.83 1.352.276 3.152.553 5.057.83 1.904.276 3.903.552 5.617.829 1.715.276 3.134.552 3.99.829.858.276 1.145.553.81.83-.334.276-1.291.552-2.686.829-1.396.276-3.224.553-5.137.829-1.913.276-3.9.553-5.586.83-1.686.276-3.059.552-3.86.829-.802.276-1.025.553-.571.83s1.576.552 3.091.828c1.516.277 3.419.553 5.346.83 1.928.276 3.87.553 5.459.83 1.589.276 2.814.552 3.445.829.632.276.662.553.09.829-.572.276-1.747.553-3.3.83-1.552.276-3.476.552-5.405.829v18.784" fill="none" stroke="#555" style="isolation:auto;mix-blend-mode:normal"/>
<path transform="rotate(90)" fill="#cacaca" style="isolation:auto;mix-blend-mode:normal" d="M.5-103.505h19.092V-.5H.5z"/>
<path d="M103.505 19.592H.5" fill="none" stroke="#555" stroke-width="3" style="isolation:auto;mix-blend-mode:normal"/>
<path d="M30.05 117.766h3.848v-29.38h4.209v29.38h3.847l-5.952 8.677zM41.955 59.005h-3.848v29.38h-4.21v-29.38H30.05l5.952-8.677z" fill="red" style="isolation:auto;mix-blend-mode:normal"/>
<circle transform="rotate(-90)" cx="-88.386" cy="36.002" r="12.825" fill="#cacaca" stroke="#555" style="isolation:auto;mix-blend-mode:normal"/>
</g>
<g stroke-linejoin="round" stroke-miterlimit="100000" stroke-width="1.333">
<path d="M72.367 66.511c0-.228 0-.348-.187-.348-.067 0-.094 0-.268.16-.027.013-.16.134-.241.201-.402-.28-.91-.361-1.406-.361-1.915 0-2.37 1.004-2.37 1.674 0 .428.187.776.509 1.044.509.442 1.017.536 1.848.67.67.12 1.754.307 1.754 1.205 0 .522-.362 1.138-1.647 1.138-1.286 0-1.754-.844-1.995-1.754-.04-.174-.054-.228-.241-.228-.228 0-.228.094-.228.362v1.646c0 .228 0 .349.187.349.121 0 .375-.282.643-.576.59.549 1.312.576 1.634.576 1.74 0 2.383-.938 2.383-1.888 0-.51-.228-.91-.576-1.232-.508-.469-1.124-.576-1.593-.656-1.071-.188-1.942-.348-1.942-1.058 0-.429.362-.95 1.634-.95 1.553 0 1.62 1.084 1.647 1.472.013.147.174.147.228.147.227 0 .227-.093.227-.348zM77.052 74.25c-.87 0-1.005 0-1.005-.576v-2.182c.067.067.697.776 1.821.776 1.768 0 3.28-1.325 3.28-3.026 0-1.647-1.365-3.012-3.065-3.012-.764 0-1.54.28-2.09.816v-.816l-2.008.147v.482c.938 0 1.005.067 1.005.63v6.185c0 .576-.134.576-1.005.576v.482c.027 0 .964-.053 1.527-.053.495 0 1.42.04 1.54.053zm-1.005-6.574c.402-.67 1.179-1.018 1.888-1.018 1.125 0 1.995 1.178 1.995 2.584 0 1.527-1.004 2.651-2.142 2.651-1.178 0-1.7-1.03-1.74-1.111zM69.219 121.37c.2.12.683.415 1.46.415 1.379 0 2.383-.924 2.383-1.968 0-.522-.241-.938-.563-1.286.603-.428 1.125-.442 1.353-.442-.054.054-.12.108-.12.322 0 .268.2.428.428.428a.424.424 0 0 0 .428-.442c0-.308-.254-.682-.79-.682-.2 0-.924.04-1.553.616-.402-.295-.964-.483-1.553-.483-1.38 0-2.384.924-2.384 1.969 0 .522.268 1.004.643 1.352-.107.12-.402.563-.402 1.085 0 .174.04.803.563 1.191-.603.201-1.299.643-1.299 1.34 0 .977 1.473 1.713 3.28 1.713 1.701 0 3.281-.67 3.281-1.74 0-.402-.16-1.125-.897-1.527-.79-.415-1.58-.415-2.879-.415-.295 0-.777 0-.884-.013-.428-.093-.67-.495-.67-.883 0-.335.095-.442.175-.55zm1.473.013c-1.312 0-1.312-1.286-1.312-1.567 0-.214 0-.75.267-1.098a1.345 1.345 0 0 1 1.031-.468c1.313 0 1.313 1.285 1.313 1.566 0 .214 0 .75-.268 1.098a1.345 1.345 0 0 1-1.031.469zm0 2.33c1.191 0 2.865 0 2.865 1.057 0 .71-1.058 1.326-2.464 1.326s-2.463-.63-2.463-1.326c0-.468.428-1.044 1.285-1.057z"/>
</g>
<use width="100%" height="100%" xlink:href="#a"/>
<use transform="translate(0 51.619)" width="100%" height="100%" xlink:href="#a"/>
</svg>
