<svg width="111.694" height="163.23" xmlns="http://www.w3.org/2000/svg" xmlns:xlink="http://www.w3.org/1999/xlink">
<defs>
<symbol id="a">
<path d="M90.085 93.962c-.057.287-.172.727-.172.822 0 .345.268.517.555.517.23 0 .574-.153.707-.536.02-.038.25-.937.364-1.415l.42-1.722c.115-.42.23-.841.326-1.281.076-.326.23-.88.249-.957.286-.593 1.3-2.333 3.117-2.333.861 0 1.033.707 1.033 1.339 0 .478-.134 1.013-.287 1.587l-.535 2.22-.383 1.453c-.076.382-.248 1.033-.248 1.128 0 .345.267.517.554.517.593 0 .708-.478.861-1.09.268-1.072.976-3.864 1.148-4.61.057-.249 1.071-2.544 3.156-2.544.822 0 1.033.65 1.033 1.339 0 1.09-.804 3.27-1.186 4.284-.172.46-.249.67-.249 1.052 0 .9.67 1.569 1.569 1.569 1.798 0 2.506-2.793 2.506-2.946 0-.191-.173-.191-.23-.191-.191 0-.191.057-.287.344-.287 1.014-.899 2.372-1.951 2.372-.325 0-.459-.191-.459-.631 0-.478.172-.937.344-1.358.364-.995 1.167-3.118 1.167-4.208 0-1.244-.765-2.047-2.2-2.047s-2.41.841-3.118 1.855c-.019-.248-.076-.899-.612-1.358-.478-.402-1.09-.497-1.568-.497-1.722 0-2.659 1.224-2.984 1.664-.096-1.09-.9-1.664-1.76-1.664-.88 0-1.243.746-1.415 1.09-.345.67-.593 1.798-.593 1.856 0 .19.19.19.23.19.19 0 .21-.018.324-.44.325-1.357.708-2.275 1.397-2.275.306 0 .593.153.593.88 0 .401-.058.612-.306 1.606zM109.62 89.444c0-.362-.027-.375-.402-.375-.857.843-2.075.857-2.624.857v.482c.321 0 1.205 0 1.941-.375v6.829c0 .442 0 .616-1.339.616h-.508v.482a98.291 98.291 0 0 1 2.383-.054c.415 0 2.102.04 2.397.054v-.482h-.509c-1.339 0-1.339-.174-1.339-.616z" stroke-linejoin="round" stroke-miterlimit="100000" stroke-width="1.333"/>
</symbol>
<symbol id="b">
<path d="M69.824 135.989c-.057.287-.172.727-.172.823 0 .344.268.516.555.516.23 0 .574-.153.707-.536.02-.038.25-.937.364-1.415l.42-1.722c.115-.42.23-.841.326-1.281.076-.325.23-.88.249-.957.286-.593 1.3-2.333 3.117-2.333.861 0 1.033.707 1.033 1.339 0 .478-.134 1.013-.287 1.587l-.535 2.22-.383 1.453c-.076.383-.248 1.033-.248 1.129 0 .344.267.516.554.516.593 0 .708-.478.861-1.09.268-1.072.976-3.864 1.148-4.61.057-.249 1.071-2.544 3.156-2.544.822 0 1.033.65 1.033 1.339 0 1.09-.803 3.27-1.186 4.284-.172.46-.249.67-.249 1.052 0 .9.67 1.569 1.569 1.569 1.798 0 2.506-2.793 2.506-2.946 0-.191-.173-.191-.23-.191-.191 0-.191.057-.287.344-.287 1.014-.899 2.372-1.95 2.372-.326 0-.46-.191-.46-.631 0-.478.172-.937.344-1.358.364-.995 1.167-3.118 1.167-4.208 0-1.244-.765-2.047-2.2-2.047s-2.41.842-3.118 1.855c-.019-.248-.076-.899-.612-1.358-.478-.401-1.09-.497-1.568-.497-1.722 0-2.659 1.224-2.984 1.664-.096-1.09-.9-1.664-1.76-1.664-.88 0-1.243.746-1.415 1.09-.345.67-.593 1.798-.593 1.856 0 .19.19.19.23.19.19 0 .21-.018.324-.439.325-1.358.708-2.276 1.397-2.276.306 0 .593.153.593.88 0 .401-.058.612-.306 1.606zM91.635 137.55h-.455c-.04.295-.174 1.085-.348 1.218-.107.08-1.138.08-1.326.08h-2.464c1.406-1.244 1.875-1.62 2.678-2.249.991-.79 1.915-1.62 1.915-2.892 0-1.62-1.42-2.61-3.133-2.61-1.66 0-2.785 1.164-2.785 2.396 0 .683.576.75.71.75.32 0 .71-.228.71-.71 0-.241-.095-.71-.79-.71.414-.95 1.325-1.245 1.954-1.245 1.339 0 2.035 1.045 2.035 2.13 0 1.164-.83 2.088-1.258 2.57l-3.227 3.187c-.134.12-.134.147-.134.522h5.516z" stroke-linejoin="round" stroke-miterlimit="100000" stroke-width="1.333"/>
</symbol>
</defs>
<path d="M71.732 104.222a28.798 28.755 0 0 0-24.651 13.955 21.023 20.99 0 0 0-14.893-6.192 21.023 20.99 0 0 0-21.024 20.99 21.023 20.99 0 0 0 21.024 20.993 21.023 20.99 0 0 0 14.888-6.195 28.798 28.755 0 0 0 24.656 13.957 28.798 28.755 0 0 0 28.798-28.755 28.798 28.755 0 0 0-28.798-28.753z" color="#000" fill="#dcdcdc" stroke="#555" stroke-width="2" style="isolation:auto;mix-blend-mode:normal"/>
<path d="M56.892 132.718h5.337c.268 0 .631 0 .631-.383s-.363-.382-.631-.382h-5.337v-5.356c0-.268 0-.631-.382-.631-.383 0-.383.363-.383.631v5.356h-5.356c-.268 0-.631 0-.631.382 0 .383.363.383.631.383h5.356v5.356c0 .268 0 .631.383.631.382 0 .382-.363.382-.631z"/>
<use transform="translate(-68.898 42.027)" width="100%" height="100%" xlink:href="#a"/>
<ellipse cx="81.396" cy="30.254" rx="28.798" ry="28.755" color="#000" fill="#dcdcdc" stroke="#555" stroke-width="2" style="isolation:auto;mix-blend-mode:normal"/>
<ellipse cx="22.523" cy="30.254" rx="21.023" ry="20.991" color="#000" fill="#dcdcdc" stroke="#555" stroke-width="2" style="isolation:auto;mix-blend-mode:normal"/>
<use transform="translate(-77.69 -62.043)" width="100%" height="100%" xlink:href="#a"/>
<path d="M58.09 83.99H51.5V59.46h-7.21v24.53H37.7L47.895 98.85z" color="#000" fill="red" style="isolation:auto;mix-blend-mode:normal"/>
<g fill="red">
<path d="M74.226 78.544q-1.386-.573-3.144-1.882-1.752-1.308-2.917-2.714-.905 1.25-2.617 2.584-1.712 1.328-3.464 2.09l-.436-.716q1.693-.814 3.32-2.116 1.635-1.302 2.435-2.493h1.44q1.028 1.334 2.753 2.597 1.732 1.257 3.164 1.817zm-2.623-.423h-6.784v-.788h6.784zm.208 6.204h-7.344v.651h-1.022v-5.071h9.395v5.032H71.81zm-7.344-.788h7.344v-2.845h-7.344zM79.441 73.388q-.41 1.452-1.712 3.847h.384V85.1h-1.035v-6.725q-.703 1.133-1.458 1.992l-.664-.534q1.178-1.452 2.168-3.463.996-2.012 1.289-3.158zm8.646 8.828-.664.736q-1.01-.866-2.064-2.227-1.055-1.367-1.719-2.559v3.464h1.739v.775H83.64v2.597h-.976v-2.597h-1.895v-.775h1.895v-3.45q-1.953 3.242-3.906 4.759l-.554-.6q.88-.742 2.142-2.317 1.263-1.582 1.973-3.236h-3.425v-.8h3.744v-2.761h1.041v2.76h3.92v.801H83.88q.274.651 1.478 2.416 1.211 1.757 2.728 3.014z"/>
</g>
<use width="100%" height="100%" xlink:href="#b"/>
<use transform="translate(1.23 -104.07)" width="100%" height="100%" xlink:href="#b"/>
</svg>
