<svg width="110.694" height="162.231" viewBox="0 0 29.288 42.924" xml:space="preserve" xmlns="http://www.w3.org/2000/svg">
<g transform="translate(21.808 61.178)">
<path d="M-2.96-33.735a7.62 7.608 0 0 0-6.523 3.692 5.562 5.554 0 0 0-3.94-1.638 5.562 5.554 0 0 0-5.563 5.554 5.562 5.554 0 0 0 5.562 5.554 5.562 5.554 0 0 0 3.94-1.639 7.62 7.608 0 0 0 6.523 3.693 7.62 7.608 0 0 0 7.62-7.608 7.62 7.608 0 0 0-7.62-7.608z" color="#000" style="font-variation-settings:normal;isolation:auto;mix-blend-mode:normal;vector-effect:none;fill:#dcdcdc;fill-opacity:1;stroke:#555;stroke-width:.529168;stroke-linecap:butt;stroke-linejoin:miter;stroke-miterlimit:4;stroke-dasharray:none;stroke-dashoffset:0;stroke-opacity:1;-inkscape-stroke:none;shape-rendering:auto;stop-color:#000"/>
<ellipse cx="-.404" cy="-53.306" rx="7.619" ry="7.608" color="#000" style="font-variation-settings:normal;isolation:auto;mix-blend-mode:normal;vector-effect:none;fill:#dcdcdc;fill-opacity:1;stroke:#555;stroke-width:.529168;stroke-linecap:butt;stroke-linejoin:miter;stroke-miterlimit:4;stroke-dasharray:none;stroke-dashoffset:0;stroke-opacity:1;-inkscape-stroke:none;shape-rendering:auto;stop-color:#000"/>
<ellipse cx="-15.981" cy="-53.306" rx="5.562" ry="5.554" color="#000" style="font-variation-settings:normal;isolation:auto;mix-blend-mode:normal;vector-effect:none;fill:#dcdcdc;fill-opacity:1;stroke:#555;stroke-width:.529168;stroke-linecap:butt;stroke-linejoin:miter;stroke-miterlimit:4;stroke-dasharray:none;stroke-dashoffset:0;stroke-opacity:1;-inkscape-stroke:none;shape-rendering:auto;stop-color:#000"/>
<path d="M-6.57-39.088h-1.744v-6.49h-1.908v6.49h-1.743l2.697 3.932z" color="#000" fill="red" style="isolation:auto;mix-blend-mode:normal;stroke-width:.264584"/>
<path d="M-6.888-26.195h1.412c.071 0 .167 0 .167-.102 0-.1-.096-.1-.167-.1h-1.412v-1.418c0-.07 0-.167-.1-.167-.102 0-.102.096-.102.167v1.417h-1.417c-.071 0-.167 0-.167.101 0 .102.096.102.167.102h1.417v1.417c0 .07 0 .167.101.167s.101-.096.101-.167z"/>
<path d="M-2.214-40.529q-.367-.151-.832-.498-.463-.346-.772-.718-.24.33-.692.684-.453.351-.917.553l-.115-.19q.448-.215.878-.56.433-.344.645-.66h.38q.273.354.729.688.458.332.837.48zm-.694-.112h-1.795v-.208h1.795zm.055 1.642h-1.943v.172h-.27v-1.342h2.485v1.332h-.272zm-1.943-.209h1.943v-.752h-1.943zM-.834-41.893q-.109.384-.453 1.018h.101v2.08h-.274v-1.779q-.186.3-.385.527l-.176-.14q.312-.385.573-.917.264-.533.341-.836zm2.287 2.336-.176.194q-.267-.229-.546-.589-.279-.362-.454-.677v.917h.46v.205h-.46v.687H.018v-.687h-.501v-.205h.501v-.913q-.516.857-1.033 1.259l-.147-.159q.233-.196.567-.613.334-.418.522-.856h-.906v-.212h.99v-.73h.276v.73h1.037v.212H.34q.073.172.391.64.32.464.722.797z" fill="red" style="stroke-width:.264584"/>
<path d="M-13.624-26.747c.025-.111.076-.299.076-.329 0-.091-.071-.137-.147-.137-.06 0-.152.04-.187.142-.015.036-.253 1.002-.289 1.134a1.384 1.384 0 0 0-.045.334c0 .055 0 .066.005.09-.117.27-.268.426-.466.426-.405 0-.405-.374-.405-.46 0-.162.026-.36.263-.982.056-.152.086-.223.086-.324a.404.404 0 0 0-.415-.415c-.48 0-.668.734-.668.78 0 .05.051.05.061.05.05 0 .056-.01.081-.091.137-.471.334-.628.511-.628.046 0 .127.005.127.167 0 .127-.056.268-.091.354-.223.598-.284.83-.284 1.023 0 .46.34.637.719.637.086 0 .324 0 .526-.354.132.324.481.354.633.354.38 0 .602-.318.734-.622.172-.395.334-1.073.334-1.316 0-.278-.137-.354-.223-.354-.126 0-.253.131-.253.243 0 .065.03.096.076.136a.577.577 0 0 1 .182.43c0 .173-.147.669-.278.927-.132.268-.309.445-.557.445-.238 0-.374-.152-.374-.44a1.5 1.5 0 0 1 .055-.37zM-11.166-26.525c0-.096-.007-.1-.106-.1-.227.224-.55.227-.694.227v.128c.085 0 .319 0 .513-.1v1.807c0 .117 0 .163-.354.163h-.135v.128c.064-.004.5-.014.631-.014.11 0 .556.01.634.014v-.128h-.134c-.355 0-.355-.046-.355-.163zM-16.359-54.282c.025-.112.076-.299.076-.33 0-.09-.07-.136-.147-.136-.06 0-.152.04-.187.142-.015.035-.253 1.002-.288 1.134a1.384 1.384 0 0 0-.046.334c0 .055 0 .065.005.09-.116.269-.268.426-.466.426-.404 0-.404-.375-.404-.46 0-.163.025-.36.263-.983.055-.151.086-.222.086-.324a.404.404 0 0 0-.415-.415c-.481 0-.668.734-.668.78 0 .05.05.05.06.05.051 0 .056-.01.081-.09.137-.471.334-.628.512-.628.045 0 .126.005.126.167 0 .126-.056.268-.091.354-.223.597-.283.83-.283 1.022 0 .461.339.638.718.638.086 0 .324 0 .527-.354.131.324.48.354.632.354.38 0 .602-.319.734-.622.172-.395.334-1.073.334-1.316 0-.279-.137-.355-.223-.355-.126 0-.253.132-.253.243 0 .066.03.097.076.137a.577.577 0 0 1 .182.43c0 .172-.146.668-.278.926-.131.269-.309.446-.557.446-.237 0-.374-.152-.374-.44a1.5 1.5 0 0 1 .056-.37zM-13.9-54.06c0-.096-.007-.1-.107-.1-.226.223-.549.227-.694.227v.128c.085 0 .319 0 .514-.1v1.807c0 .117 0 .163-.355.163h-.134v.128c.064-.004.5-.015.63-.015.11 0 .557.011.635.015v-.128h-.135c-.354 0-.354-.046-.354-.163zM-1.573-26.747c.026-.111.076-.299.076-.329 0-.091-.07-.137-.146-.137-.061 0-.152.04-.188.142-.015.036-.253 1.002-.288 1.134a1.384 1.384 0 0 0-.046.334c0 .055 0 .066.005.09-.116.27-.268.426-.465.426-.405 0-.405-.374-.405-.46 0-.162.025-.36.263-.982.056-.152.086-.223.086-.324a.404.404 0 0 0-.415-.415c-.48 0-.668.734-.668.78 0 .05.05.05.06.05.051 0 .056-.01.082-.091.136-.471.334-.628.51-.628.046 0 .127.005.127.167 0 .127-.055.268-.09.354-.223.598-.284.83-.284 1.023 0 .46.339.637.719.637.086 0 .323 0 .526-.354.131.324.48.354.632.354.38 0 .603-.318.734-.622.172-.395.334-1.073.334-1.316 0-.278-.136-.354-.222-.354-.127 0-.253.131-.253.243 0 .065.03.096.076.136a.577.577 0 0 1 .182.43c0 .173-.147.669-.279.927-.131.268-.308.445-.556.445-.238 0-.375-.152-.375-.44a1.5 1.5 0 0 1 .056-.37zM1.488-24.917h-.12c-.011.078-.046.287-.093.323-.028.02-.3.02-.35.02H.273c.372-.329.496-.428.708-.594.263-.21.507-.43.507-.766 0-.428-.375-.69-.829-.69-.44 0-.737.308-.737.634 0 .18.153.198.188.198.085 0 .188-.06.188-.188 0-.063-.025-.187-.21-.187.11-.252.351-.33.518-.33.354 0 .538.276.538.563 0 .309-.22.553-.333.68l-.853.844c-.036.032-.036.039-.036.138h1.46zM-.839-54.282c.026-.112.076-.299.076-.33 0-.09-.07-.136-.147-.136-.06 0-.151.04-.187.142-.015.035-.253 1.002-.288 1.134a1.384 1.384 0 0 0-.046.334c0 .055 0 .065.005.09-.116.269-.268.426-.465.426-.405 0-.405-.375-.405-.46 0-.163.025-.36.263-.983.056-.151.086-.222.086-.324a.404.404 0 0 0-.415-.415c-.48 0-.668.734-.668.78 0 .05.05.05.06.05.051 0 .056-.01.082-.09.136-.471.334-.628.51-.628.046 0 .127.005.127.167 0 .126-.055.268-.09.354-.223.597-.284.83-.284 1.022 0 .461.339.638.718.638.086 0 .324 0 .527-.354.131.324.48.354.632.354.38 0 .603-.319.734-.622.172-.395.334-1.073.334-1.316 0-.279-.136-.355-.222-.355-.127 0-.253.132-.253.243 0 .066.03.097.075.137a.577.577 0 0 1 .183.43c0 .172-.147.668-.279.926-.131.269-.308.446-.556.446-.238 0-.375-.152-.375-.44a1.5 1.5 0 0 1 .056-.37zM2.222-52.452h-.12c-.011.078-.046.287-.093.322-.028.022-.3.022-.35.022h-.652c.372-.33.496-.43.708-.596.263-.209.507-.428.507-.765 0-.429-.376-.69-.829-.69-.44 0-.737.308-.737.633 0 .181.152.199.188.199.085 0 .188-.06.188-.188 0-.064-.025-.188-.21-.188.11-.251.351-.33.518-.33.354 0 .538.277.538.564 0 .308-.22.553-.333.68l-.853.844c-.036.031-.036.038-.036.138h1.46z"/>
</g>
</svg>
