<svg width="121.441" height="129.286" viewBox="0 0 32.131 34.207" xml:space="preserve" xmlns="http://www.w3.org/2000/svg">
<g transform="translate(-50.528 47.107)">
<g fill="none" stroke="#555" color="#000">
<path d="m76.442 129.7-1.431-8.209c-1.942.09-3.878.18-5.45.207-1.573.026-2.77-.013-3.377-.155-.607-.142-.616-.389-.037-.737.579-.35 1.746-.8 3.268-1.314 1.523-.513 3.395-1.087 5.252-1.658 1.857-.572 3.689-1.139 5.14-1.64 1.453-.5 2.514-.934 2.98-1.263.464-.328.326-.552-.393-.675-.72-.122-2.02-.143-3.66-.105-1.64.038-3.612.134-5.55.224-1.938.09-3.831.172-5.33.185-1.497.013-2.59-.044-3.08-.206-.49-.163-.373-.43.373-.809.747-.378 2.105-.862 3.751-1.397 1.647-.535 3.574-1.119 5.409-1.686 1.834-.568 3.564-1.117 4.855-1.59 1.292-.473 2.134-.868 2.363-1.155.23-.288-.16-.468-1.099-.552-.938-.085-2.424-.073-4.182-.015-1.757.059-3.777.163-5.685.248-1.907.084-3.692.147-5.023.132-1.331-.016-2.2-.112-2.273-.348-.073-.235.657-.61 1.859-1.067 1.201-.457 2.871-.996 4.682-1.56 1.812-.563 3.755-1.15 5.454-1.694 1.699-.544 3.142-1.043 4.05-1.45.91-.405 1.275-.717 1.023-.92-.252-.205-1.124-.3-2.454-.317-1.33-.016-3.116.048-5.023.132-1.908.085-3.928.19-5.686.248-1.757.058-3.242.07-4.181-.015-.94-.084-1.327-.264-1.1-.551.228-.288 1.073-.683 2.364-1.156 1.29-.473 3.021-1.022 4.855-1.59 1.834-.567 3.762-1.15 5.409-1.686 1.647-.535 3.003-1.019 3.805-1.407.803-.387 1.043-.677.672-.86-.371-.183-1.356-.26-2.773-.26-1.416-.001-3.26.072-5.186.16-1.926.088-3.926.189-5.629.238-1.702.049-3.097.044-3.928-.059-.832-.103-1.094-.305-.689-.623.406-.319 1.47-.752 2.92-1.253 1.452-.5 3.284-1.068 5.141-1.64 1.857-.57 3.729-1.145 5.252-1.658 1.523-.514 2.688-.964 3.268-1.313.58-.35.569-.595-.037-.737-.605-.143-1.805-.181-3.376-.155-1.572.026-3.509.116-5.45.206L64.462 63.01M121.598 4.531l-5.798 5.985c-1.644-1.075-3.283-2.146-4.658-2.96-1.374-.814-2.475-1.363-3.146-1.495-.67-.132-.905.158-.71.864.193.705.816 1.826 1.698 3.198.882 1.372 2.019 2.99 3.145 4.599 1.126 1.608 2.233 3.198 3.064 4.52.83 1.322 1.376 2.369 1.487 2.994.111.625-.218.824-.97.612-.753-.211-1.929-.833-3.352-1.695-1.424-.861-3.09-1.958-4.732-3.03-1.64-1.072-3.249-2.113-4.569-2.874-1.32-.761-2.344-1.236-2.93-1.286-.586-.05-.728.33-.412 1.153.316.824 1.078 2.08 2.05 3.54.973 1.459 2.15 3.117 3.26 4.709 1.109 1.592 2.142 3.11 2.856 4.319.713 1.208 1.1 2.1 1.038 2.558-.06.459-.573.48-1.485.114-.913-.366-2.224-1.12-3.733-2.064-1.51-.944-3.21-2.075-4.83-3.125-1.618-1.051-3.147-2.014-4.346-2.658-1.199-.644-2.06-.962-2.342-.716-.28.245.023 1.057.672 2.202.648 1.146 1.637 2.622 2.73 4.198 1.092 1.575 2.28 3.244 3.291 4.74 1.01 1.497 1.835 2.813 2.27 3.752.434.938.473 1.493.06 1.611-.41.119-1.274-.2-2.472-.843-1.199-.643-2.728-1.608-4.347-2.658-1.619-1.05-3.32-2.18-4.83-3.126-1.509-.944-2.82-1.696-3.732-2.063-.914-.368-1.424-.344-1.486.113-.062.458.326 1.35 1.039 2.559.713 1.208 1.747 2.727 2.856 4.319 1.11 1.592 2.286 3.25 3.26 4.71.972 1.46 1.733 2.714 2.09 3.577.356.863.304 1.33-.195 1.364-.498.035-1.445-.364-2.705-1.068-1.261-.704-2.833-1.71-4.466-2.773-1.632-1.064-3.319-2.18-4.788-3.086-1.47-.906-2.714-1.594-3.548-1.885-.835-.29-1.254-.18-1.186.404.067.582.615 1.63 1.445 2.952.83 1.321 1.938 2.912 3.063 4.52 1.126 1.608 2.263 3.227 3.145 4.599.883 1.372 1.504 2.492 1.699 3.198.195.706-.042.995-.711.864-.67-.131-1.772-.682-3.146-1.495-1.374-.814-3.014-1.885-4.658-2.96L64.463 63.01" style="isolation:auto;mix-blend-mode:normal" transform="matrix(.26458 0 0 .26458 50.391 -47.239)"/>
<path d="m.688 85.895 7.828-2.855c.92 1.717 1.839 3.43 2.63 4.794.793 1.365 1.455 2.372 1.91 2.816.457.444.705.318.749-.369.044-.686-.117-1.934-.401-3.52-.285-1.587-.69-3.507-1.091-5.413-.4-1.906-.793-3.787-1.052-5.307-.26-1.519-.384-2.666-.3-3.244.083-.578.376-.581.871-.03.495.551 1.193 1.657 2.008 3.086.816 1.43 1.747 3.176 2.666 4.89.92 1.713 1.823 3.383 2.588 4.677.766 1.294 1.392 2.2 1.807 2.534.416.333.62.086.606-.76-.015-.847-.242-2.276-.569-3.981-.327-1.705-.753-3.678-1.145-5.562-.393-1.884-.75-3.669-.954-5.035-.203-1.366-.251-2.304-.086-2.657.166-.353.546-.117 1.118.644.571.76 1.333 2.043 2.19 3.584.856 1.54 1.804 3.333 2.712 5.017.909 1.685 1.774 3.252 2.482 4.387.709 1.135 1.256 1.83 1.526 1.764.27-.066.262-.896.09-2.177-.173-1.281-.509-3.008-.894-4.87-.384-1.862-.815-3.85-1.16-5.605-.346-1.754-.603-3.266-.674-4.267-.07-1.001.047-1.484.38-1.379.333.106.881.802 1.589 1.936.708 1.135 1.574 2.702 2.482 4.387.909 1.684 1.856 3.476 2.713 5.017.856 1.542 1.617 2.823 2.19 3.584.571.762.951.996 1.117.644.166-.352.117-1.292-.086-2.657-.204-1.366-.56-3.151-.953-5.035-.393-1.884-.818-3.856-1.146-5.562-.327-1.705-.554-3.133-.588-4.033-.034-.9.128-1.264.502-1.045.374.22.962 1.024 1.7 2.24.737 1.216 1.624 2.84 2.539 4.542s1.855 3.475 2.693 4.964c.837 1.489 1.567 2.684 2.101 3.342.535.659.87.774.975.253.104-.521-.02-1.67-.28-3.19-.26-1.518-.652-3.4-1.052-5.306-.4-1.905-.807-3.825-1.091-5.412-.285-1.587-.445-2.833-.401-3.52.043-.689.292-.813.748-.37.456.443 1.118 1.452 1.91 2.816.791 1.364 1.71 3.077 2.63 4.794l17.648-6.435" style="isolation:auto;mix-blend-mode:normal" transform="matrix(.26458 0 0 .26458 50.391 -47.239)"/>
</g>
<g fill="red" color="#000">
<path d="m75.143 93.985-3.258.568-3.605-20.685-3.564.62 3.605 20.686-3.257.568 6.32 6.468zM109.507 23.985l-2.375-2.3L73.706 56.19l-2.598-2.517 33.425-34.506-2.375-2.3 8.863-1.798zM24.68 71.942l1.133 3.107 27.435-10.004 1.239 3.398-27.434 10.005 1.133 3.106-8.76-2.251z" style="isolation:auto;mix-blend-mode:normal" transform="matrix(.26458 0 0 .26458 50.391 -47.239)"/>
</g>
<circle transform="rotate(-90)" cx="30.568" cy="67.447" r="2.916" color="#000" fill="#cacaca" stroke="#555" style="font-variation-settings:normal;isolation:auto;mix-blend-mode:normal;vector-effect:none;fill:#dcdcdc;fill-opacity:1;stroke:#555;stroke-width:.529168;stroke-linecap:butt;stroke-linejoin:miter;stroke-miterlimit:4;stroke-dasharray:none;stroke-dashoffset:0;stroke-opacity:1;-inkscape-stroke:none;stop-color:#000"/>
<g stroke-linejoin="round" stroke-miterlimit="100000" stroke-width="1.333">
<path d="M56.003-33.457c0-.096-.007-.1-.106-.1-.227.224-.55.227-.695.227v.128c.085 0 .319 0 .514-.1v1.807c0 .117 0 .163-.354.163h-.135v.128c.064-.004.5-.014.63-.014.11 0 .557.01.635.014v-.128h-.135c-.354 0-.354-.046-.354-.163zM73.554-42.961h-.12c-.011.077-.047.286-.093.322-.028.021-.3.021-.35.021h-.652a12.4 12.4 0 0 1 .708-.595c.262-.209.507-.429.507-.765 0-.429-.376-.691-.83-.691-.438 0-.736.308-.736.634 0 .18.152.198.188.198.085 0 .187-.06.187-.187 0-.064-.024-.188-.209-.188.11-.252.351-.33.518-.33.354 0 .538.277.538.564 0 .308-.22.552-.333.68l-.854.843c-.035.032-.035.04-.035.138h1.46zM77.378-23.127c.276 0 .475.191.475.57 0 .44-.255.57-.46.57-.143 0-.454-.038-.603-.247.166-.007.205-.124.205-.199a.19.19 0 0 0-.195-.195c-.099 0-.198.06-.198.206 0 .333.369.55.797.55.493 0 .833-.33.833-.685 0-.276-.227-.552-.617-.634.372-.134.507-.4.507-.616 0-.28-.322-.49-.716-.49-.393 0-.694.192-.694.476 0 .12.078.187.184.187.11 0 .18-.081.18-.18 0-.103-.07-.177-.18-.185.124-.155.369-.194.5-.194.16 0 .382.078.382.386a.68.68 0 0 1-.141.421c-.117.135-.217.142-.394.153-.088.007-.095.007-.113.01-.007 0-.035.007-.035.046 0 .05.031.05.092.05z"/>
</g>
<path d="M75.148-25.19h.592c.097 0 .188 0 .188-.147 0-.091-.086-.091-.172-.091h-.567l.167-.916c.015-.091.015-.101.066-.147.065-.06.121-.06.146-.06.071 0 .117.01.178.035a.384.384 0 0 0-.213.329c0 .152.121.233.248.233a.375.375 0 0 0 .364-.375c0-.258-.263-.405-.577-.405a.806.806 0 0 0-.698.38c-.116.187-.147.384-.243.926h-.496c-.096 0-.182 0-.182.147 0 .09.086.09.167.09h.466l-.385 2.157c-.01.045-.066.364-.091.435-.01.025-.091.258-.253.258a.38.38 0 0 1-.172-.03.386.386 0 0 0 .222-.334c0-.152-.121-.233-.248-.233a.375.375 0 0 0-.364.374c0 .274.288.405.552.405.38 0 .642-.374.683-.44.217-.334.334-.977.35-1.063zM53.554-34.45h.592c.096 0 .187 0 .187-.147 0-.092-.086-.092-.172-.092h-.567l.167-.916c.015-.09.015-.1.066-.146.066-.061.121-.061.147-.061.07 0 .116.01.177.035a.384.384 0 0 0-.213.33c0 .151.122.232.248.232a.375.375 0 0 0 .365-.374c0-.258-.264-.405-.577-.405a.806.806 0 0 0-.699.38c-.116.187-.147.384-.243.926h-.496c-.096 0-.182 0-.182.146 0 .091.086.091.167.091h.466l-.385 2.156c-.01.046-.066.365-.091.436-.01.025-.091.258-.253.258a.38.38 0 0 1-.172-.03.386.386 0 0 0 .223-.335c0-.151-.122-.232-.248-.232a.375.375 0 0 0-.365.374c0 .273.289.405.552.405.38 0 .643-.375.683-.44.218-.334.334-.977.35-1.063zM70.502-45.563h.592c.097 0 .188 0 .188-.147 0-.091-.086-.091-.172-.091h-.567l.167-.916c.015-.091.015-.101.066-.147.065-.06.121-.06.146-.06.071 0 .117.01.177.035a.384.384 0 0 0-.212.329c0 .152.121.233.248.233a.375.375 0 0 0 .364-.375c0-.258-.263-.405-.577-.405a.806.806 0 0 0-.698.38c-.116.187-.147.384-.243.926h-.496c-.096 0-.182 0-.182.147 0 .09.086.09.167.09h.465l-.384 2.157c-.01.045-.066.364-.091.435-.01.025-.091.258-.253.258a.38.38 0 0 1-.172-.03.386.386 0 0 0 .222-.334c0-.152-.121-.233-.248-.233a.375.375 0 0 0-.364.375c0 .273.288.404.552.404.38 0 .642-.374.683-.44.217-.334.334-.977.349-1.063z"/>
</g>
</svg>
