<svg width="198.853" height="72.005" viewBox="0 0 52.613 19.051" xml:space="preserve" xmlns="http://www.w3.org/2000/svg">
<g transform="translate(19.125 88.879)">
<path color="#000" fill="#cacaca" style="font-variation-settings:normal;isolation:auto;mix-blend-mode:normal;vector-effect:none;fill:#cacaca;fill-opacity:1;stroke-width:.264582;stroke-linecap:butt;stroke-linejoin:round;stroke-miterlimit:100000;stroke-dasharray:none;stroke-dashoffset:0;stroke-opacity:1;-inkscape-stroke:none;shape-rendering:auto;stop-color:#000" d="M-19.125-84.781h7.483v14.953h-7.483z"/>
<path d="M-11.641-84.78v14.952" color="#000" fill="none" stroke="#555" stroke-width=".794" style="font-variation-settings:normal;isolation:auto;mix-blend-mode:normal;vector-effect:none;fill:none;fill-opacity:1;stroke:#555;stroke-width:.793749;stroke-linecap:butt;stroke-linejoin:round;stroke-miterlimit:100;stroke-dasharray:none;stroke-dashoffset:0;stroke-opacity:1;-inkscape-stroke:none;shape-rendering:auto;stop-color:#000"/>
<path d="M-11.641-77.305h2.84c.094.643.189 1.283.283 1.8.094.518.188.909.283 1.1.094.19.188.18.282-.03.094-.21.189-.619.283-1.148.094-.529.188-1.176.283-1.818.094-.642.188-1.275.282-1.78.095-.505.189-.879.283-1.05.094-.171.189-.139.283.09.094.23.188.655.282 1.195.095.54.189 1.193.283 1.834.094.641.189 1.267.283 1.76.094.491.188.847.283.998.094.152.188.098.282-.15.094-.248.189-.69.283-1.24.094-.552.188-1.21.283-1.85.094-.639.188-1.256.282-1.735.095-.479.189-.816.283-.947.094-.132.189-.057.283.21.094.266.188.724.282 1.285.095.561.189 1.224.283 1.86.094.638.189 1.247.283 1.712.094.465.188.783.283.895.094.111.188.015.282-.27.094-.285.189-.758.283-1.33.094-.57.188-1.236.283-1.87.094-.635.188-1.234.282-1.684.095-.451.189-.75.283-.842.094-.091.189.026.283.33.094.302.188.79.282 1.37.095.58.189 1.25.283 1.88.094.63.189 1.22.283 1.656.094.436.188.716.283.787.094.071.188-.067.282-.388.094-.321.189-.824.283-1.412.094-.589.188-1.26.283-1.886.094-.627.188-1.205.282-1.626.095-.421.189-.681.283-.732.094-.051.188.108.283.447.094.338.188.855.282 1.451.095.596.189 1.27.283 1.891.094.622.189 1.189.283 1.594.094.405.188.646.283.676.094.031.188-.149.282-.505.094-.355.189-.886.283-1.489.094-.604.188-1.278.283-1.894.094-.616.188-1.171.282-1.56.094-.39.189-.61.283-.62.094-.01.188.19.283.562.094.373.188.916.282 1.526.095.61.189 1.285.283 1.895.094.61.189 1.153.283 1.526.094.373.188.572.282.562.095-.01.189-.23.283-.62.094-.388.189-.944.283-1.56.094-.616.188-1.29.283-1.894.094-.604.188-1.133.282-1.49.094-.355.189-.535.283-.504.094.03.188.271.283.676.094.405.188.972.282 1.594.095.622.189 1.295.283 1.891.094.596.189 1.113.283 1.451.094.34.188.498.282.447.095-.05.189-.311.283-.732.094-.42.189-1 .283-1.626.094-.626.188-1.297.282-1.886.095-.588.189-1.09.283-1.412.094-.321.189-.459.283-.388.094.071.188.351.283.787.094.436.188 1.025.282 1.656.094.63.189 1.3.283 1.88.094.58.188 1.067.283 1.37.094.304.188.421.282.33.095-.091.189-.391.283-.842.094-.45.189-1.05.283-1.684.094-.634.188-1.3.283-1.87.094-.572.188-1.045.282-1.33.094-.285.189-.381.283-.27.094.112.188.43.283.895.094.465.188 1.074.282 1.711.095.637.189 1.3.283 1.86.094.562.188 1.02.283 1.286.094.267.188.342.282.21.095-.131.189-.468.283-.947.094-.479.189-1.096.283-1.736.094-.64.188-1.297.283-1.848.094-.551.188-.993.282-1.241.094-.248.189-.301.283-.15.094.151.188.507.283.999.094.492.188 1.118.282 1.759.095.64.189 1.294.283 1.834.094.54.188.965.283 1.195.094.23.188.26.282.09.095-.171.189-.545.283-1.05a50.29 50.29 0 0 0 .283-1.78c.094-.642.188-1.29.283-1.818.094-.53.188-.937.282-1.148.094-.21.189-.22.283-.03.094.19.188.582.283 1.1.094.516.188 1.157.282 1.8h6.403" color="#000" fill="none" stroke="#555" stroke-width=".397" style="isolation:auto;mix-blend-mode:normal;shape-rendering:auto"/>
<path d="M5.15-86.73v1.744h17.733v1.907H5.15v1.744l-3.932-2.698z" color="#000" fill="red" style="isolation:auto;mix-blend-mode:normal;stroke-width:.264583;shape-rendering:auto"/>
<circle cx="28.053" cy="-77.305" r="5.171" color="#000" fill="#cacaca" stroke="#555" style="font-variation-settings:normal;isolation:auto;mix-blend-mode:normal;vector-effect:none;fill:#dcdcdc;fill-opacity:1;stroke:#555;stroke-width:.529168;stroke-linecap:butt;stroke-linejoin:miter;stroke-miterlimit:4;stroke-dasharray:none;stroke-dashoffset:0;stroke-opacity:1;-inkscape-stroke:none;shape-rendering:auto;stop-color:#000"/>
<path d="M7.667-87.934q-.018.68-.334 1.21-.314.531-.944.806l-.126-.188q.553-.249.841-.738.29-.49.29-1.05v-.04h-.982v-.21h.982v-.663h.273v.663h1.41v.586q0 .465-.041.778-.04.31-.122.525-.042.115-.142.19-.098.077-.214.101-.077.017-.48.017H7.89l-.035-.238h.486q.3 0 .382-.332.083-.332.083-1.072v-.345zM10.474-86.054l-.224.144q-.213-.35-.509-.697l.192-.134q.358.424.541.687zM13.663-87.743q0 .516-.16 1.025-.16.507-.466.86l-.176-.132q.263-.312.404-.782.142-.47.142-1.027v-.21h-.417v-.199h.417v-.643h.256v.643h.769v.45l-.002.483q-.002.252-.02.522-.016.27-.059.45-.04.18-.095.253-.052.072-.134.11-.082.04-.181.04h-.357l-.03-.229h.259q.092 0 .147-.021.056-.023.09-.074.035-.05.057-.147.025-.097.041-.254.018-.157.023-.313.005-.157.005-.721v-.35h-.514zm2.011 1.586h-.636v.242h-.256v-2.679h1.148v2.657h-.256zm-.636-.213h.636v-2.02h-.636zM19.417-86.625l-.124.195q-.55-.221-.95-.635v.779H18.1v-.763q-.403.406-.899.606l-.092-.169q.287-.126.555-.34.27-.215.365-.34h-.728v-.82h.792v-.274h-.926v-.202h.926v-.235h.254v.235h.946v.202h-.946v.273h.8v.822h-.738q.167.191.453.38.288.188.555.286zm-.517-.838v-.471h-.553v.47zm-.807 0v-.471h-.547v.47zm-1.08-.789-.23.136q-.147-.262-.392-.562l.208-.129q.257.318.414.555zm2.458 2.092-.047.222-.914.004q-.689 0-.85-.015-.16-.015-.328-.052-.169-.036-.295-.122-.124-.086-.181-.188-.272.279-.537.408l-.089-.22q.09-.039.252-.145.164-.108.23-.172v-.999h-.434v-.203h.69v1.051q0 .154.109.252.108.097.253.131.146.033.274.051.127.018.741.018.792 0 1.126-.021zM20.121-88.396v.782q0 .627-.111 1.043-.11.416-.295.671l-.165-.126q.326-.548.326-1.44v-1.135h1.278v-.278h.267v.278h1.291v.205zm.616 1.067v-.49h-.48v-.19h.48v-.243h.245v.242h.841v-.242h.257v.242h.53v.192h-.53v.49zm.245-.49v.312h.841v-.311zm.481 1.626q-.52.239-1.294.324l-.054-.203q.22-.02.409-.054.19-.034.314-.07.126-.036.373-.121-.402-.236-.609-.588h-.27v-.195h2.004l.062.07q-.211.42-.692.71.435.16 1 .215l-.1.215q-.616-.074-1.143-.303zm-.002-.234q.383-.208.567-.478h-1.151q.206.286.584.478z" color="#000" style="text-indent:0;text-decoration-line:none;text-transform:none;fill:red;stroke-width:.264583"/>
<g stroke-width="1.111">
<path d="M28.33-86.186a.378.378 0 0 0-.273.35c0 .11.086.232.253.232.177 0 .365-.147.365-.395 0-.268-.269-.445-.577-.445-.289 0-.476.217-.542.309-.126-.213-.41-.31-.698-.31-.638 0-.982.623-.982.79 0 .071.076.071.121.071.061 0 .097 0 .117-.066.147-.46.51-.612.718-.612.193 0 .284.091.284.253 0 .096-.071.375-.117.557l-.172.693c-.076.309-.258.46-.43.46-.025 0-.142 0-.243-.075a.378.378 0 0 0 .274-.35c0-.11-.087-.232-.254-.232-.177 0-.364.147-.364.394 0 .269.268.446.577.446.288 0 .476-.218.542-.309.126.213.41.309.698.309.638 0 .982-.623.982-.79 0-.07-.076-.07-.122-.07-.06 0-.096 0-.116.065-.147.46-.511.613-.719.613-.192 0-.283-.091-.283-.253 0-.107.066-.375.111-.562.036-.132.152-.607.177-.688.076-.304.253-.46.43-.46a.41.41 0 0 1 .243.075zM29.825-84.797h.36c.068 0 .114 0 .114-.078 0-.05-.046-.05-.106-.05h-.337l.132-.524c.003-.018.01-.035.01-.05 0-.063-.05-.113-.12-.113-.089 0-.142.06-.167.153-.025.088.021-.082-.134.535h-.362c-.067 0-.113 0-.113.077 0 .05.042.05.106.05h.337l-.21.836c-.02.089-.052.216-.052.262 0 .21.177.337.379.337.393 0 .616-.496.616-.542 0-.046-.046-.046-.057-.046-.042 0-.046.007-.074.067-.1.223-.28.422-.475.422-.074 0-.124-.046-.124-.174 0-.035.014-.11.022-.145l.255-1.017z"/>
</g>
</g>
</svg>
