<svg width="205.495" height="114.291" viewBox="0 0 54.37 30.24" xml:space="preserve" xmlns="http://www.w3.org/2000/svg">
<defs>
<clipPath id="a">
<path d="M87.684 54.434a14.06 19.042 0 0 1 19.884 0l-9.942 13.465zM10.947 36.656l5.75 49.75 164.25-10-5-41z" color="#000" fill="#fff" stroke="#000" stroke-width=".867" style="isolation:auto;mix-blend-mode:normal"/>
</clipPath>
</defs>
<path d="m20.93 22.594 2.303 3.454h16.499l2.302-3.454" color="#000" fill="none" stroke="#000" style="isolation:auto;mix-blend-mode:normal;stroke-width:.264583;shape-rendering:auto" transform="translate(12.227 4.06)"/>
<g style="shape-rendering:auto" color="#000">
<path transform="matrix(-.26458 0 0 .26458 -.132 -.132)" style="isolation:auto;mix-blend-mode:normal" d="M-189.72 97.177h15.004v15.004h-15.004zM-173.2 97.177h15.004v15.004H-173.2zM-156.68 97.177h15.004v15.004h-15.004zM-181.9 88.698h6.962v6.962h-6.962zM-173.42 88.698h6.962v6.962h-6.962zM-164.94 88.698h6.962v6.962h-6.962zM-156.46 88.698h6.962v6.962h-6.962z"/>
</g>
<path d="M-12.117 22.594-1.565-.137 8.986 22.594" color="#000" fill="none" stroke="#000" stroke-dasharray="1.8, 1.8" stroke-width=".079" style="font-variation-settings:normal;isolation:auto;mix-blend-mode:normal;vector-effect:none;fill:none;fill-opacity:1;stroke:#000;stroke-width:.079375;stroke-linecap:butt;stroke-linejoin:miter;stroke-miterlimit:4;stroke-dasharray:.47625,.47625;stroke-dashoffset:0;stroke-opacity:1;-inkscape-stroke:none;shape-rendering:auto;stop-color:#000" transform="translate(12.227 4.06)"/>
<path d="m-12.117 22.594 2.303 3.454H6.684l2.302-3.454" color="#000" fill="none" stroke="#000" style="isolation:auto;mix-blend-mode:normal;stroke-width:.264583;shape-rendering:auto" transform="translate(12.227 4.06)"/>
<path transform="matrix(-1 0 0 1 12.227 4.06)" color="#000" fill="red" style="isolation:auto;mix-blend-mode:normal;stroke-width:.264583;shape-rendering:auto" d="M-1.42 19.52h5.971v5.971H-1.42z"/>
<path d="M20.93 22.594 31.483-.137l10.552 22.731" color="#000" fill="none" stroke-dasharray="1.8, 1.8" stroke-width=".079" style="font-variation-settings:normal;isolation:auto;mix-blend-mode:normal;vector-effect:none;fill:none;fill-opacity:1;stroke:#000;stroke-width:.079375;stroke-linecap:butt;stroke-linejoin:miter;stroke-miterlimit:4;stroke-dasharray:.47625,.47625;stroke-dashoffset:0;stroke-opacity:1;-inkscape-stroke:none;shape-rendering:auto;stop-color:#000" transform="translate(12.227 4.06)"/>
<path transform="matrix(.26458 0 0 .26458 1.355 -12.794)" d="M29.173 63.924a427.323 427.323 0 0 1 68.453-5.521c22.917 0 45.833 1.848 68.453 5.521" clip-path="url(#a)" color="#000" fill="none" stroke-width="3" style="isolation:auto;mix-blend-mode:normal;stroke:#000;shape-rendering:auto"/>
<path d="M12.328-2.452a3.72 5.038 0 0 1 5.261 0l-2.63 3.563z" color="#000" fill="#fff" style="isolation:auto;mix-blend-mode:normal;stroke:#000;stroke-width:.264583;shape-rendering:auto" transform="translate(12.227 4.06)"/>
<path d="M-1.706 14.49c.043-.177.062-.187.248-.187h.619c.538 0 .538.458.538.5 0 .386-.386.877-1.014.877h-.686zm.805 1.228c.52-.095.99-.457.99-.895 0-.372-.328-.658-.866-.658h-1.529c-.09 0-.133 0-.133.09 0 .048.043.048.114.048.29 0 .29.039.29.091 0 .01 0 .038-.019.11l-.642 2.562c-.043.166-.053.214-.386.214-.09 0-.138 0-.138.086 0 .052.028.052.123.052h1.634c.729 0 1.29-.552 1.29-1.033 0-.39-.342-.629-.728-.667zm-.676 1.562h-.643c-.067 0-.076 0-.105-.005-.052-.005-.057-.014-.057-.052 0-.034.01-.062.019-.105l.333-1.343h.896c.562 0 .562.524.562.562 0 .457-.415.943-1.005.943z" color="#000" fill="red" style="isolation:auto;mix-blend-mode:normal;stroke-width:.264583;shape-rendering:auto" transform="translate(12.227 4.06)"/>
<g stroke-linejoin="round" stroke-miterlimit="100000" stroke-width="1.5">
<path d="M40.256 19.9c.39-.129.665-.46.665-.835 0-.39-.418-.655-.873-.655-.48 0-.84.284-.84.645 0 .157.104.247.242.247a.232.232 0 0 0 .242-.242c0-.237-.223-.237-.294-.237.147-.233.46-.295.63-.295.195 0 .456.105.456.532 0 .057-.01.332-.133.54-.142.228-.303.243-.422.247a2.619 2.619 0 0 1-.185.015c-.038.004-.071.01-.071.057 0 .052.033.052.114.052h.208c.39 0 .565.322.565.787 0 .646-.327.783-.536.783-.204 0-.56-.08-.726-.36.166.023.313-.081.313-.261a.256.256 0 0 0-.266-.266c-.113 0-.265.066-.265.275 0 .432.441.745.958.745.579 0 1.01-.432 1.01-.916 0-.389-.298-.759-.792-.858zM42.155 21.318a.253.253 0 0 0-.252-.251.253.253 0 0 0-.251.251c0 .138.114.252.251.252a.253.253 0 0 0 .252-.252zM43.952 20.787v.413c0 .17-.01.223-.36.223h-.1v.147c.194-.015.441-.015.64-.015.2 0 .451 0 .646.015v-.147h-.1c-.351 0-.36-.053-.36-.223v-.413h.474v-.147h-.475v-2.16c0-.094 0-.123-.076-.123-.042 0-.057 0-.094.057L42.69 20.64v.147zm.029-.147h-1.158l1.158-1.77zM45.77 21.024c-.19.318-.375.384-.584.399-.057.004-.1.004-.1.095 0 .028.024.052.062.052.128 0 .275-.015.408-.015.157 0 .323.015.475.015.028 0 .09 0 .09-.09 0-.053-.043-.057-.076-.057-.11-.01-.223-.048-.223-.166 0-.057.028-.11.066-.176l.36-.607h1.192c.01.1.076.745.076.792 0 .142-.247.157-.342.157-.066 0-.114 0-.114.095 0 .052.057.052.067.052.194 0 .398-.015.593-.015.118 0 .417.015.536.015.028 0 .085 0 .085-.095 0-.052-.047-.052-.109-.052-.294 0-.294-.034-.308-.171l-.29-2.966c-.01-.095-.01-.114-.09-.114-.076 0-.095.034-.123.081zm.57-.697.934-1.566.152 1.566z"/>
</g>
</svg>
