<svg width="103.005" height="125.998" viewBox="0 0 27.253 33.337" xml:space="preserve" xmlns="http://www.w3.org/2000/svg">
<g transform="translate(-47.045 88.028)">
<path d="M56.44-82.977v2.205c-.51.073-1.02.146-1.43.22-.412.072-.722.145-.874.219-.151.073-.143.146.024.219.167.073.491.146.912.22.42.073.934.146 1.444.219.51.073 1.013.146 1.414.22.402.072.698.146.834.219.136.073.11.146-.071.22-.182.072-.52.145-.95.219-.429.073-.947.146-1.457.219-.509.073-1.006.146-1.397.22-.39.073-.673.146-.794.219-.12.073-.077.146.134.22.212.072.588.146 1.042.219.453.073.982.146 1.486.22.504.072.98.145 1.338.219.358.073.595.146.668.219.073.073-.02.146-.261.22-.241.073-.629.146-1.09.219-.46.073-.992.146-1.493.22a23.12 23.12 0 0 0-1.315.219c-.346.073-.569.146-.577.22-.008.072.2.146.533.219.334.073.794.146 1.292.22.497.072 1.03.145 1.498.219.468.073.867.146 1.122.219.255.073.365.146.308.22-.056.073-.279.146-.625.219a23.08 23.08 0 0 1-1.315.22c-.501.072-1.033.146-1.494.219-.46.073-.848.146-1.089.22-.241.072-.334.145-.261.219.072.073.31.146.668.219.358.073.834.146 1.338.22.504.073 1.033.146 1.486.219.454.073.83.146 1.056.22.227.072.303.146.214.219-.088.073-.341.146-.71.22a28.8 28.8 0 0 1-1.36.219c-.506.073-1.032.146-1.478.22-.446.072-.809.145-1.02.219-.213.073-.272.146-.152.219.12.073.417.146.818.22.401.073.905.146 1.415.219.51.073 1.023.146 1.444.22.42.072.744.146.911.219.167.073.176.146.024.22-.151.072-.462.145-.873.219-.41.073-.92.146-1.43.219v4.97" color="#000" fill="none" stroke="#555" style="isolation:auto;mix-blend-mode:normal;stroke-width:.264583;shape-rendering:auto"/>
<path transform="rotate(90)" color="#000" fill="#cacaca" style="font-variation-settings:normal;isolation:auto;mix-blend-mode:normal;vector-effect:none;fill:#cacaca;fill-opacity:1;stroke-width:.264582;stroke-linecap:butt;stroke-linejoin:round;stroke-miterlimit:100000;stroke-dasharray:none;stroke-dashoffset:0;stroke-opacity:1;-inkscape-stroke:none;shape-rendering:auto;stop-color:#000" d="M-88.028-74.299h5.051v27.253h-5.051z"/>
<path d="M74.299-82.977H47.045" color="#000" fill="none" stroke="#555" stroke-width=".794" style="font-variation-settings:normal;isolation:auto;mix-blend-mode:normal;vector-effect:none;fill:none;fill-opacity:1;stroke:#555;stroke-width:.793749;stroke-linecap:butt;stroke-linejoin:round;stroke-miterlimit:100;stroke-dasharray:none;stroke-dashoffset:0;stroke-opacity:1;-inkscape-stroke:none;shape-rendering:auto;stop-color:#000"/>
<path d="M54.864-57.002h1.018v-7.773h1.113v7.773h1.018l-1.575 2.296zM58.013-72.549h-1.018v7.774h-1.113v-7.774h-1.018l1.574-2.296z" color="#000" fill="red" style="isolation:auto;mix-blend-mode:normal;stroke-width:.264583;shape-rendering:auto"/>
<circle transform="rotate(-90)" cx="64.775" cy="56.438" r="3.393" color="#000" fill="#cacaca" stroke="#555" style="font-variation-settings:normal;isolation:auto;mix-blend-mode:normal;vector-effect:none;fill:#dcdcdc;fill-opacity:1;stroke:#555;stroke-width:.529168;stroke-linecap:butt;stroke-linejoin:miter;stroke-miterlimit:4;stroke-dasharray:none;stroke-dashoffset:0;stroke-opacity:1;-inkscape-stroke:none;shape-rendering:auto;stop-color:#000"/>
<g stroke-linejoin="round" stroke-miterlimit="100000" stroke-width="1.333">
<path d="M66.06-70.563c0-.06 0-.092-.05-.092-.017 0-.024 0-.07.042-.008.004-.043.036-.064.053a.643.643 0 0 0-.372-.095c-.507 0-.627.266-.627.443 0 .113.05.205.134.276.135.117.27.142.49.177.176.032.463.082.463.319 0 .138-.095.301-.435.301-.34 0-.464-.223-.528-.464-.01-.046-.014-.06-.064-.06-.06 0-.06.025-.06.095v.436c0 .06 0 .092.05.092.031 0 .099-.074.17-.152a.618.618 0 0 0 .432.152c.46 0 .63-.248.63-.5 0-.134-.06-.24-.152-.325-.135-.124-.298-.153-.422-.174-.283-.05-.513-.092-.513-.28 0-.113.095-.251.432-.251.41 0 .428.287.436.39.003.039.046.039.06.039.06 0 .06-.025.06-.093zM67.3-68.515c-.23 0-.266 0-.266-.153v-.577c.017.017.184.205.482.205.467 0 .867-.35.867-.8a.806.806 0 0 0-.81-.798.798.798 0 0 0-.553.217v-.217l-.532.04v.127c.248 0 .266.018.266.166v1.637c0 .153-.036.153-.266.153v.127c.007 0 .255-.014.404-.014.131 0 .376.01.407.014zm-.266-1.74a.588.588 0 0 1 .5-.27c.297 0 .527.313.527.685 0 .403-.266.701-.567.701-.311 0-.45-.273-.46-.294zM65.227-56.048c.053.032.18.11.386.11.365 0 .63-.245.63-.521a.495.495 0 0 0-.148-.34.59.59 0 0 1 .358-.117c-.014.014-.032.028-.032.085 0 .07.053.113.113.113.05 0 .114-.035.114-.117 0-.081-.068-.18-.21-.18a.625.625 0 0 0-.41.162.708.708 0 0 0-.411-.127c-.365 0-.63.244-.63.52 0 .139.07.266.17.359a.48.48 0 0 0-.107.287.4.4 0 0 0 .149.315c-.16.053-.344.17-.344.354 0 .259.39.454.868.454.45 0 .868-.178.868-.461a.458.458 0 0 0-.237-.404c-.21-.11-.418-.11-.762-.11-.078 0-.206 0-.234-.003-.113-.025-.177-.131-.177-.234 0-.088.025-.117.046-.145zm.39.003c-.347 0-.347-.34-.347-.414 0-.057 0-.199.07-.29a.356.356 0 0 1 .273-.125c.347 0 .347.34.347.415 0 .056 0 .198-.07.29a.356.356 0 0 1-.273.124zm0 .617c.315 0 .758 0 .758.28 0 .187-.28.35-.652.35s-.652-.166-.652-.35c0-.125.114-.277.34-.28z"/>
</g>
<path d="M63.454-72.322h.593c.096 0 .187 0 .187-.146 0-.091-.086-.091-.172-.091h-.567l.167-.916c.015-.092.015-.102.066-.147.065-.06.121-.06.146-.06.071 0 .117.01.178.035a.384.384 0 0 0-.213.328c0 .152.121.233.248.233a.375.375 0 0 0 .364-.374c0-.258-.263-.405-.577-.405a.806.806 0 0 0-.698.38c-.116.187-.147.384-.243.926h-.496c-.096 0-.182 0-.182.146 0 .092.086.092.167.092h.466l-.385 2.155c-.01.046-.066.365-.091.436-.01.025-.091.258-.253.258a.38.38 0 0 1-.172-.03.386.386 0 0 0 .222-.335c0-.151-.121-.232-.248-.232a.375.375 0 0 0-.364.374c0 .273.288.405.552.405.38 0 .642-.374.683-.44.218-.334.334-.977.35-1.063zM63.454-58.664h.593c.096 0 .187 0 .187-.147 0-.09-.086-.09-.172-.09h-.567l.167-.917c.015-.091.015-.101.066-.147.065-.06.121-.06.146-.06.071 0 .117.01.178.035a.384.384 0 0 0-.213.329c0 .152.121.233.248.233a.375.375 0 0 0 .364-.375c0-.258-.263-.405-.577-.405a.806.806 0 0 0-.698.38c-.116.187-.147.385-.243.926h-.496c-.096 0-.182 0-.182.147 0 .091.086.091.167.091h.466l-.385 2.156c-.01.046-.066.364-.091.435-.01.026-.091.258-.253.258a.38.38 0 0 1-.172-.03.386.386 0 0 0 .222-.334c0-.152-.121-.233-.248-.233a.375.375 0 0 0-.364.375c0 .273.288.405.552.405.38 0 .642-.375.683-.44.218-.335.334-.977.35-1.064z"/>
</g>
</svg>
