<svg width="110.694" height="162.231" viewBox="0 0 29.288 42.924" xml:space="preserve" xmlns="http://www.w3.org/2000/svg">
<g transform="translate(-14.03 61.377)">
<path d="M32.877-33.933a7.62 7.608 0 0 0-6.522 3.692 5.562 5.554 0 0 0-3.94-1.638 5.562 5.554 0 0 0-5.564 5.553 5.562 5.554 0 0 0 5.563 5.554 5.562 5.554 0 0 0 3.94-1.638 7.62 7.608 0 0 0 6.523 3.692 7.62 7.608 0 0 0 7.62-7.608 7.62 7.608 0 0 0-7.62-7.607z" color="#000" fill="#dcdcdc" stroke="#555" stroke-width=".529" style="font-variation-settings:normal;isolation:auto;mix-blend-mode:normal;vector-effect:none;fill:#dcdcdc;fill-opacity:1;stroke:#555;stroke-width:.529168;stroke-linecap:butt;stroke-linejoin:miter;stroke-miterlimit:4;stroke-dasharray:none;stroke-dashoffset:0;stroke-opacity:1;-inkscape-stroke:none;stop-color:#000"/>
<path d="M28.95-26.394h1.413c.07 0 .167 0 .167-.101s-.097-.101-.167-.101H28.95v-1.417c0-.071 0-.167-.1-.167-.102 0-.102.096-.102.167v1.417h-1.417c-.07 0-.167 0-.167.1 0 .102.096.102.167.102h1.417v1.417c0 .071 0 .167.101.167s.101-.096.101-.167zM19.504-25.528c-.016.075-.046.192-.046.217 0 .091.07.137.147.137.06 0 .152-.04.187-.142.005-.01.066-.248.096-.374l.112-.456c.03-.111.06-.223.086-.339.02-.086.06-.233.065-.253.076-.157.345-.618.825-.618.228 0 .274.188.274.355 0 .126-.036.268-.076.42l-.142.587-.101.385c-.02.1-.066.273-.066.298 0 .091.07.137.147.137.157 0 .187-.127.227-.289.071-.283.259-1.022.304-1.22.015-.065.284-.673.835-.673.218 0 .274.173.274.355 0 .288-.213.865-.314 1.133a.69.69 0 0 0-.066.279c0 .238.177.415.415.415.476 0 .663-.74.663-.78 0-.05-.046-.05-.06-.05-.051 0-.051.015-.077.09-.076.27-.238.628-.516.628-.086 0-.121-.05-.121-.167 0-.126.045-.248.09-.359.097-.263.31-.825.31-1.113 0-.33-.203-.542-.583-.542-.38 0-.637.223-.825.491a.509.509 0 0 0-.162-.36.64.64 0 0 0-.415-.13c-.455 0-.703.323-.789.44a.457.457 0 0 0-.466-.44c-.232 0-.329.197-.374.288a2.205 2.205 0 0 0-.157.49c0 .051.05.051.06.051.051 0 .056-.005.087-.116.086-.36.187-.603.37-.603.08 0 .156.041.156.233 0 .107-.015.162-.08.425zM24.672-26.724c0-.096-.007-.1-.106-.1-.227.224-.55.228-.694.228v.127c.085 0 .318 0 .513-.099v1.807c0 .117 0 .163-.354.163h-.135v.127c.064-.003.5-.014.63-.014.11 0 .557.01.635.014v-.127h-.135c-.354 0-.354-.046-.354-.163z"/>
<ellipse cx="35.434" cy="-53.504" rx="7.619" ry="7.608" color="#000" fill="#dcdcdc" stroke="#555" stroke-width=".529" style="font-variation-settings:normal;isolation:auto;mix-blend-mode:normal;vector-effect:none;fill:#dcdcdc;fill-opacity:1;stroke:#555;stroke-width:.529168;stroke-linecap:butt;stroke-linejoin:miter;stroke-miterlimit:4;stroke-dasharray:none;stroke-dashoffset:0;stroke-opacity:1;-inkscape-stroke:none;stop-color:#000"/>
<ellipse cx="19.857" cy="-53.504" rx="5.562" ry="5.554" color="#000" fill="#dcdcdc" stroke="#555" stroke-width=".529" style="font-variation-settings:normal;isolation:auto;mix-blend-mode:normal;vector-effect:none;fill:#dcdcdc;fill-opacity:1;stroke:#555;stroke-width:.529168;stroke-linecap:butt;stroke-linejoin:miter;stroke-miterlimit:4;stroke-dasharray:none;stroke-dashoffset:0;stroke-opacity:1;-inkscape-stroke:none;stop-color:#000"/>
<path d="M17.177-53.064c-.015.076-.045.193-.045.218 0 .091.07.137.147.137.06 0 .151-.041.187-.142.005-.01.066-.248.096-.375l.111-.455c.03-.112.061-.223.086-.34.02-.085.061-.232.066-.252.076-.157.344-.618.825-.618.228 0 .273.187.273.355 0 .126-.035.268-.075.42l-.142.587-.101.384c-.02.102-.066.274-.066.299 0 .091.07.137.147.137.156 0 .187-.127.227-.289.071-.283.258-1.022.304-1.22.015-.065.283-.673.835-.673.218 0 .273.172.273.355 0 .288-.212.865-.313 1.133a.69.69 0 0 0-.066.279c0 .237.177.415.415.415.476 0 .663-.74.663-.78 0-.05-.046-.05-.061-.05-.05 0-.05.015-.076.09-.076.269-.238.628-.516.628-.086 0-.122-.05-.122-.167 0-.126.046-.248.092-.36.096-.262.308-.824.308-1.113 0-.329-.202-.541-.582-.541-.38 0-.637.223-.825.49a.509.509 0 0 0-.162-.359.64.64 0 0 0-.415-.131c-.455 0-.703.324-.79.44a.457.457 0 0 0-.465-.44c-.233 0-.329.197-.374.288a2.205 2.205 0 0 0-.157.491c0 .05.05.05.06.05.051 0 .056-.004.087-.116.086-.359.187-.602.369-.602.081 0 .157.04.157.233 0 .106-.015.162-.081.425zM22.346-54.26c0-.095-.007-.098-.106-.098-.227.223-.55.226-.695.226v.128c.085 0 .32 0 .514-.1v1.808c0 .116 0 .162-.354.162h-.135v.128c.064-.004.5-.014.63-.014.11 0 .557.01.635.014v-.128H22.7c-.354 0-.354-.046-.354-.162z"/>
<path d="M29.267-39.287h-1.743v-6.49h-1.908v6.49h-1.743l2.697 3.933z" color="#000" fill="red" style="isolation:auto;mix-blend-mode:normal;stroke-width:.264584"/>
<g fill="red">
<path d="M33.537-40.727q-.367-.152-.832-.498-.464-.346-.772-.719-.24.331-.692.684-.453.352-.917.553l-.115-.19q.448-.215.878-.559.433-.345.645-.66h.38q.272.353.729.688.458.332.837.48zm-.694-.112h-1.795v-.209h1.795zm.055 1.641h-1.943v.172h-.27v-1.341h2.485v1.331h-.272zm-1.943-.208h1.943v-.753h-1.943zM34.917-42.092q-.109.384-.453 1.018h.101v2.081h-.274v-1.78q-.186.3-.386.528l-.175-.141q.312-.384.573-.917.264-.532.341-.835zm2.287 2.336-.176.195q-.267-.23-.546-.59-.279-.361-.454-.676v.916h.46v.205h-.46v.687h-.259v-.687h-.501v-.205h.501v-.913q-.516.858-1.033 1.26l-.147-.16q.233-.196.567-.612.334-.419.522-.856h-.906v-.212h.99v-.73h.276v.73h1.037v.212h-.984q.073.172.391.639.32.465.722.797z"/>
</g>
<path d="M32.372-25.528c-.015.076-.045.192-.045.217 0 .091.07.137.146.137.061 0 .152-.04.188-.142.005-.01.065-.248.096-.374l.111-.456c.03-.111.06-.223.086-.339.02-.086.06-.233.066-.253.076-.157.344-.617.825-.617.228 0 .273.187.273.354 0 .126-.035.268-.076.42l-.141.587-.102.385c-.02.1-.065.273-.065.298 0 .091.07.137.146.137.157 0 .188-.127.228-.289.07-.283.258-1.022.304-1.22.015-.065.283-.672.835-.672.217 0 .273.172.273.354 0 .288-.213.865-.314 1.134a.69.69 0 0 0-.066.278c0 .238.178.415.415.415.476 0 .663-.739.663-.78 0-.05-.045-.05-.06-.05-.05 0-.05.015-.076.091-.076.268-.238.628-.516.628-.086 0-.122-.051-.122-.167 0-.127.046-.248.091-.36.096-.263.309-.825.309-1.113 0-.33-.202-.542-.582-.542-.38 0-.638.223-.825.491a.509.509 0 0 0-.162-.36.64.64 0 0 0-.415-.13c-.455 0-.703.323-.79.44a.457.457 0 0 0-.465-.44c-.233 0-.33.197-.375.288a2.205 2.205 0 0 0-.157.49c0 .051.051.051.061.051.05 0 .056-.005.086-.116.086-.36.188-.602.37-.602.08 0 .157.04.157.232 0 .107-.016.162-.081.426zM38.143-25.115h-.12c-.011.078-.047.287-.093.322-.028.021-.3.021-.35.021h-.652c.372-.33.496-.428.708-.595.262-.209.507-.429.507-.765 0-.429-.376-.691-.83-.691-.438 0-.736.308-.736.634 0 .18.152.199.188.199.085 0 .188-.06.188-.188 0-.064-.025-.188-.21-.188.11-.251.351-.33.518-.33.354 0 .538.277.538.564 0 .308-.22.553-.333.68l-.854.843c-.035.032-.035.04-.035.138h1.46zM32.698-53.064c-.016.076-.046.193-.046.218 0 .091.071.137.147.137.06 0 .152-.04.187-.142.005-.01.066-.248.096-.375l.112-.455c.03-.111.06-.223.086-.34.02-.085.06-.232.065-.252.076-.157.345-.618.825-.618.228 0 .274.188.274.355 0 .126-.036.268-.076.42l-.142.587-.101.384c-.02.102-.066.274-.066.299 0 .091.07.137.147.137.157 0 .187-.127.228-.289.07-.283.258-1.022.303-1.22.015-.065.284-.673.835-.673.218 0 .274.172.274.355 0 .288-.213.865-.314 1.133a.69.69 0 0 0-.066.279c0 .238.177.415.415.415.476 0 .663-.74.663-.78 0-.05-.046-.05-.06-.05-.051 0-.051.015-.077.09-.076.269-.237.628-.516.628-.086 0-.121-.05-.121-.167 0-.126.045-.248.09-.359.097-.263.31-.825.31-1.113 0-.33-.203-.542-.582-.542-.38 0-.638.223-.825.49a.509.509 0 0 0-.162-.358.64.64 0 0 0-.415-.132c-.456 0-.704.324-.79.44a.457.457 0 0 0-.466-.44c-.232 0-.329.197-.374.289a2.205 2.205 0 0 0-.157.49c0 .051.05.051.06.051.051 0 .056-.005.087-.116.086-.36.187-.603.37-.603.08 0 .156.04.156.233 0 .106-.015.162-.08.425zM38.468-52.65h-.12c-.01.077-.046.286-.092.322-.028.021-.301.021-.35.021h-.653c.372-.33.496-.429.709-.595.262-.21.506-.429.506-.765 0-.429-.375-.691-.829-.691-.439 0-.736.308-.736.634 0 .18.152.198.187.198.085 0 .188-.06.188-.187 0-.064-.025-.188-.209-.188.11-.252.35-.33.517-.33.355 0 .539.277.539.564 0 .308-.22.552-.333.68l-.854.843c-.035.032-.035.039-.035.138h1.46z"/>
</g>
</svg>
