<svg xmlns="http://www.w3.org/2000/svg" width="153.287" height="112.797" viewBox="0 0 153.288 112.797">
<path d="M3.116 112.297v-13.95L.5 99.219l3.488-8.72 3.487 8.72-2.616-.872v13.95H3.116M32.178 112.297v-13.95l-2.615.872 3.487-8.72 3.488 8.72-2.616-.872v13.95h-1.744M61.24 112.297v-13.95l-2.615.872 3.488-8.72 3.487 8.72-2.616-.872v13.95h-1.743M90.303 112.297v-13.95l-2.615.872 3.487-8.72 3.488 8.72-2.616-.872v13.95h-1.744M119.366 112.297v-13.95l-2.616.872 3.487-8.72 3.488 8.72-2.616-.872v13.95h-1.743M148.428 112.297v-13.95l-2.615.872 3.487-8.72 3.487 8.72-2.615-.872v13.95h-1.744M3.116 82.297v-13.95L.5 69.219l3.488-8.72 3.487 8.72-2.616-.872v13.95H3.116M32.178 82.297v-13.95l-2.615.872 3.487-8.72 3.488 8.72-2.616-.872v13.95h-1.744M61.24 82.297v-13.95l-2.615.872 3.488-8.72 3.487 8.72-2.616-.872v13.95h-1.743M90.303 82.297v-13.95l-2.615.872 3.487-8.72 3.488 8.72-2.616-.872v13.95h-1.744M119.366 82.297v-13.95l-2.616.872 3.487-8.72 3.488 8.72-2.616-.872v13.95h-1.743M148.428 82.297v-13.95l-2.615.872 3.487-8.72 3.487 8.72-2.615-.872v13.95h-1.744M3.116 52.297v-13.95L.5 39.219l3.488-8.72 3.487 8.72-2.616-.872v13.95H3.116M32.178 52.297v-13.95l-2.615.872 3.487-8.72 3.488 8.72-2.616-.872v13.95h-1.744M61.24 52.297v-13.95l-2.615.872 3.488-8.72 3.487 8.72-2.616-.872v13.95h-1.743M90.303 52.297v-13.95l-2.615.872 3.487-8.72 3.488 8.72-2.616-.872v13.95h-1.744M119.366 52.297v-13.95l-2.616.872 3.487-8.72 3.488 8.72-2.616-.872v13.95h-1.743M148.428 52.297v-13.95l-2.615.872 3.487-8.72 3.487 8.72-2.615-.872v13.95h-1.744M3.116 22.297V8.347L.5 9.219 3.988.499l3.487 8.72-2.616-.872v13.95H3.116M32.178 22.297V8.347l-2.615.872L33.05.499l3.488 8.72-2.616-.872v13.95h-1.744M61.24 22.297V8.347l-2.615.872 3.488-8.72L65.6 9.22l-2.616-.872v13.95h-1.743M90.303 22.297V8.347l-2.615.872 3.487-8.72 3.488 8.72-2.616-.872v13.95h-1.744M119.366 22.297V8.347l-2.616.872 3.487-8.72 3.488 8.72-2.616-.872v13.95h-1.743M148.428 22.297V8.347l-2.615.872L149.3.499l3.487 8.72-2.615-.872v13.95h-1.744" style="fill:red;stroke-width:1.25;stroke-linejoin:round;stroke-miterlimit:100000"/>
</svg>
