<svg xmlns="http://www.w3.org/2000/svg" xmlns:xlink="http://www.w3.org/1999/xlink" width="203.128" height="135.989">
<defs>
<path id="j" d="M4.376-3.79h.777c.717 0 .92.12.92.514 0 .132-.036.359-.072.502a.833.833 0 0 0-.035.168c0 .18.155.215.275.215.227 0 .239-.072.298-.287l.67-2.666c.048-.155.048-.18.048-.191 0-.215-.24-.215-.287-.215-.227 0-.251.083-.311.31-.24.909-.61 1.088-1.47 1.088h-.67l.79-3.192c.155-.024.286-.024.406-.024h1.422c1.363 0 1.782.347 1.782 1.4 0 .286-.048.645-.048.693 0 .227.227.227.287.227.25 0 .263-.12.287-.335l.215-2.14.012-.191c0-.216-.204-.216-.395-.216H2.845c-.25 0-.263.012-.322.06-.084.06-.108.275-.108.287 0 .215.167.215.49.215.251 0 .478.012.73.024L1.948-.8c-.048.191-.06.203-.275.227-.204.012-.443.012-.634.012-.31 0-.335 0-.382.024-.144.084-.144.275-.144.323 0 .012 0 .215.263.215.299 0 .61-.024.909-.024.322 0 .645-.012.968-.012.359 0 .717.012 1.076.012.347 0 .693.024 1.028.024.144 0 .359 0 .359-.347 0-.215-.203-.215-.395-.215h-.394c-.455 0-.634-.024-.753-.048z"/>
<path id="d" d="m6.958-4.722 1.578-1.554.741-.754c.478-.454.622-.597 1.865-.61.227 0 .251-.31.251-.346 0-.072-.048-.215-.239-.215-.418 0-.873.036-1.303.036-.347 0-1.207-.036-1.554-.036-.096 0-.335 0-.335.334 0 .216.191.228.299.228.359.012.67.107.717.12L6.695-5.26l-1.1-2.308c.12-.024.49-.071.693-.071.132 0 .347 0 .347-.335 0-.167-.107-.227-.263-.227-.406 0-1.41.036-1.817.036-.275 0-.55-.012-.825-.012-.275 0-.562-.024-.837-.024-.107 0-.335 0-.335.334 0 .228.156.228.49.228.168 0 .3 0 .467.012.167.024.18.035.25.179l1.65 3.455-3 2.965c-.215.203-.466.454-1.53.466-.216 0-.419 0-.419.347 0 .083.06.215.24.215.286 0 1.016-.036 1.302-.036.347 0 1.208.036 1.555.036.095 0 .334 0 .334-.347 0-.215-.215-.215-.31-.215-.24 0-.479-.036-.706-.12l2.786-2.773 1.35 2.821c-.011 0-.406.072-.693.072-.12 0-.346 0-.346.347 0 .036.012.215.263.215.406 0 1.422-.036 1.829-.036.275 0 .55.012.825.012.275 0 .562.024.837.024.095 0 .334 0 .334-.347 0-.215-.191-.215-.478-.215-.167 0-.287 0-.466-.012-.18-.024-.191-.036-.275-.191z"/>
<path id="i" d="M3.875-1.891h2.56c.11 0 .31 0 .31-.201 0-.21-.192-.21-.31-.21h-2.56V-4.87c0-.108 0-.31-.201-.31-.21 0-.21.193-.21.31v2.57H.896c-.108 0-.31 0-.31.2 0 .21.193.21.31.21h2.57V.678c0 .109 0 .31.2.31.21 0 .21-.193.21-.31z"/>
<path id="e" d="M4.318-2.67c0-.92-.109-1.581-.494-2.167-.259-.385-.778-.72-1.447-.72C.435-5.557.435-3.272.435-2.67c0 .603 0 2.837 1.942 2.837 1.941 0 1.941-2.234 1.941-2.837zM2.377-.067c-.385 0-.896-.226-1.063-.912-.117-.494-.117-1.18-.117-1.8 0-.61 0-1.246.125-1.707a1.07 1.07 0 0 1 1.055-.836c.452 0 .887.276 1.037.761.134.452.143 1.055.143 1.783 0 .619 0 1.238-.11 1.765-.167.762-.736.946-1.07.946z"/>
<path id="h" d="M4.226-1.523h-.284c-.025.184-.11.678-.218.761-.067.05-.711.05-.828.05h-1.54a29.296 29.296 0 0 1 1.673-1.405c.62-.494 1.197-1.013 1.197-1.808 0-1.012-.887-1.632-1.958-1.632-1.038 0-1.74.728-1.74 1.498 0 .427.36.469.443.469.2 0 .443-.142.443-.444 0-.15-.058-.443-.493-.443.259-.594.828-.778 1.221-.778.837 0 1.272.652 1.272 1.33 0 .728-.518 1.306-.786 1.607L.61-.326C.527-.251.527-.234.527 0h3.448z"/>
<path id="f" d="M2.469-3.64C1.213-3.322.51-2.243.51-1.364.51-.477 1.188.1 2.017.1c1.012 0 1.8-1.188 1.8-2.41 0-.811-.436-1.289-.696-1.573-.31-.352-.937-1.038-.937-1.423 0-.108.117-.351.46-.351.285 0 .52.134.703.234.076.042.377.218.503.218.2 0 .351-.184.351-.352 0-.209-.109-.226-.56-.318-.101-.017-.486-.1-.754-.1-.627 0-.979.368-.979.879 0 .443.268.954.56 1.456zm.142.226c.234.376.536.862.536 1.464 0 .686-.41 1.816-1.113 1.816-.46 0-.913-.301-.913-.996 0-.552.318-2 1.49-2.284z"/>
<path id="g" d="M2.059-3.306h.853c.16 0 .268 0 .268-.184 0-.117-.109-.117-.251-.117h-.795l.31-1.238c.008-.042.025-.084.025-.118 0-.15-.117-.267-.285-.267-.209 0-.335.142-.393.36-.059.209.05-.193-.318 1.263H.619c-.159 0-.268 0-.268.184 0 .117.1.117.252.117h.795L.904-1.33c-.05.21-.126.51-.126.62 0 .493.419.795.896.795.929 0 1.456-1.172 1.456-1.28 0-.11-.109-.11-.134-.11-.1 0-.109.017-.176.16-.234.527-.66.995-1.121.995-.176 0-.293-.108-.293-.41 0-.083.033-.26.05-.343z"/>
<path id="k" d="M2.295-2.989a.638.638 0 0 0-.633-.633.638.638 0 0 0-.634.633c0 .347.287.634.634.634a.638.638 0 0 0 .633-.634z"/>
<path id="l" d="M3.156-5.224C1.662-4.866.502-3.312.502-1.865c0 1.148.765 2.008 1.889 2.008 1.399 0 2.391-1.876 2.391-3.526 0-1.088-.478-1.686-.885-2.224-.43-.538-1.135-1.435-1.135-1.96 0-.264.239-.55.657-.55.359 0 .598.155.849.322.24.144.478.3.658.3.298 0 .478-.288.478-.48 0-.262-.192-.298-.622-.394-.622-.131-.789-.131-.98-.131-.933 0-1.363.514-1.363 1.231 0 .646.347 1.315.717 2.045zm.144.263c.299.55.657 1.195.657 2.056 0 .789-.454 2.785-1.566 2.785-.658 0-1.148-.502-1.148-1.41 0-.753.443-3.001 2.057-3.431z"/>
<path id="m" d="M2.463-4.782h1.124c.239 0 .358 0 .358-.24 0-.13-.12-.13-.335-.13H2.558c.43-1.698.49-1.937.49-2.01 0-.202-.143-.322-.346-.322-.036 0-.37.012-.478.43l-.467 1.901H.634c-.24 0-.359 0-.359.227 0 .144.096.144.335.144h1.052C.8-1.387.753-1.184.753-.968c0 .645.454 1.1 1.1 1.1 1.22 0 1.9-1.746 1.9-1.842 0-.12-.095-.12-.143-.12-.107 0-.12.037-.179.168-.514 1.244-1.148 1.53-1.554 1.53-.251 0-.37-.155-.37-.55 0-.286.023-.37.071-.573z"/>
<symbol id="a">
<path d="M10.925 7.635c.096-.344.096-.383.096-.44 0-.42-.306-.842-.9-.842-.994 0-1.224.9-1.358 1.416l-.497 1.99c-.23.917-.593 2.39-.803 3.174-.096.421-.689.88-.746.919-.21.133-.67.459-1.301.459-1.129 0-1.148-.957-1.148-1.397 0-1.167.593-2.659 1.129-4.036.191-.497.249-.631.249-.956 0-1.11-1.11-1.722-2.162-1.722C1.456 6.2.5 8.802.5 9.184c0 .268.287.268.46.268.229 0 .363 0 .44-.249C2.03 7.08 3.081 6.89 3.37 6.89c.133 0 .324 0 .324.402 0 .44-.21.937-.325 1.243-.746 1.913-1.147 3.003-1.147 3.979 0 2.18 1.912 2.486 3.041 2.486.478 0 1.129-.076 1.836-.574-.535 2.353-1.97 3.596-3.29 3.596-.248 0-.784-.038-1.167-.267.613-.249.919-.765.919-1.282 0-.689-.555-.88-.938-.88-.707 0-1.377.612-1.377 1.454 0 .975 1.014 1.664 2.563 1.664 2.2 0 4.725-1.473 5.318-3.845z" stroke-linejoin="round" stroke-miterlimit="100000" stroke-width="1.6"/>
</symbol>
<symbol id="b">
<use width="100%" height="100%" xlink:href="#a"/>
</symbol>
<marker id="c" overflow="visible" orient="auto">
<path d="m-4 0-2 2 7-2-7-2Z" fill="red" fill-rule="evenodd" stroke="red" stroke-width=".4pt"/>
</marker>
</defs>
<g fill="none" color="#000">
<path d="m117.89 80.504 20.444 38.778" marker-end="url(#c)" stroke="red" stroke-width="2" style="isolation:auto;mix-blend-mode:normal" transform="translate(0 -1.988)"/>
<path d="m5.5 23.68 33.473 5.68" stroke="#000" style="isolation:auto;mix-blend-mode:normal" transform="translate(0 -1.988)"/>
<path d="M68.796 42.32 38.973 27.372" stroke="#000" stroke-linejoin="round"/>
<path d="M117.89 78.517 68.796 42.32" stroke="#0f0000" stroke-dasharray="2, 4"/>
</g>
<g stroke-linejoin="round" transform="translate(0 -1.988)" color="#000">
<g stroke-miterlimit="100000" stroke-width=".826">
<circle cx="5.5" cy="23.679" r="5"/>
<circle cx="38.973" cy="29.359" r="2.5"/>
<circle cx="68.796" cy="44.308" r="2.5"/>
<circle cx="117.89" cy="80.504" r="2.5"/>
</g>
<circle cx="143.072" cy="127.477" r="9.5" fill="#cacaca" stroke="#555" stroke-miterlimit="100" style="isolation:auto;mix-blend-mode:normal"/>
</g>
<g transform="matrix(1.6 0 0 1.6 -245.6 -127.595)">
<use x="154.639" y="88.26" xlink:href="#d" width="100%" height="100%"/>
<use x="166.893" y="90.054" xlink:href="#e" width="100%" height="100%"/>
</g>
<g transform="matrix(1.28 0 0 1.28 -179.142 -89.117)">
<use x="172.256" y="88.26" xlink:href="#d" width="100%" height="100%"/>
<use x="184.51" y="90.054" xlink:href="#f" width="100%" height="100%"/>
<use x="189.159" y="90.054" xlink:href="#g" width="100%" height="100%"/>
</g>
<g transform="matrix(1.28 0 0 1.28 -176.46 -73.665)">
<use x="193.368" y="88.26" xlink:href="#d" width="100%" height="100%"/>
<use x="205.622" y="90.054" xlink:href="#h" width="100%" height="100%"/>
<use x="210.388" y="90.054" xlink:href="#f" width="100%" height="100%"/>
<use x="215.036" y="90.054" xlink:href="#g" width="100%" height="100%"/>
</g>
<g transform="matrix(1.28 0 0 1.28 -159.541 -38.086)">
<use x="219.246" y="88.26" xlink:href="#d" width="100%" height="100%"/>
<use x="231.5" y="90.054" xlink:href="#g" width="100%" height="100%"/>
</g>
<g transform="matrix(1.6 0 0 1.6 -224.16 -21.984)">
<use x="235.709" y="88.26" xlink:href="#d" width="100%" height="100%"/>
<use x="247.963" y="90.054" xlink:href="#g" width="100%" height="100%"/>
<use x="251.574" y="90.054" xlink:href="#i" width="100%" height="100%"/>
<use x="258.913" y="90.054" xlink:href="#f" width="100%" height="100%"/>
<use x="263.562" y="90.054" xlink:href="#g" width="100%" height="100%"/>
</g>
<g transform="matrix(1.6 0 0 1.6 -357.98 -27.852)" style="font-variation-settings:normal;opacity:1;vector-effect:none;fill:red;fill-opacity:1;stroke-width:1;stroke-linecap:butt;stroke-linejoin:miter;stroke-miterlimit:4;stroke-dasharray:none;stroke-dashoffset:0;stroke-opacity:1;stop-color:#000;stop-opacity:1">
<use x="267.771" y="88.26" xlink:href="#j" width="100%" height="100%" style="font-variation-settings:normal;vector-effect:none;fill:red;fill-opacity:1;stroke-width:.624998;stroke-linecap:butt;stroke-linejoin:miter;stroke-miterlimit:4;stroke-dasharray:none;stroke-dashoffset:0;stroke-opacity:1;stop-color:#000;stop-opacity:1"/>
<use x="280.573" y="88.26" xlink:href="#k" width="100%" height="100%" style="font-variation-settings:normal;vector-effect:none;fill:red;fill-opacity:1;stroke-width:.624998;stroke-linecap:butt;stroke-linejoin:miter;stroke-miterlimit:4;stroke-dasharray:none;stroke-dashoffset:0;stroke-opacity:1;stop-color:#000;stop-opacity:1"/>
<use x="286.551" y="88.26" xlink:href="#l" width="100%" height="100%" style="font-variation-settings:normal;vector-effect:none;fill:red;fill-opacity:1;stroke-width:.624998;stroke-linecap:butt;stroke-linejoin:miter;stroke-miterlimit:4;stroke-dasharray:none;stroke-dashoffset:0;stroke-opacity:1;stop-color:#000;stop-opacity:1"/>
<use x="292.317" y="88.26" xlink:href="#m" width="100%" height="100%" style="font-variation-settings:normal;vector-effect:none;fill:red;fill-opacity:1;stroke-width:.624998;stroke-linecap:butt;stroke-linejoin:miter;stroke-miterlimit:4;stroke-dasharray:none;stroke-dashoffset:0;stroke-opacity:1;stop-color:#000;stop-opacity:1"/>
</g>
</svg>
