<svg width="202" height="75.505" xmlns="http://www.w3.org/2000/svg" xmlns:xlink="http://www.w3.org/1999/xlink">
<defs>
<symbol id="a">
<path d="M4.938.71c0-.019 0-.21-.249-.21-.44 0-1.836.153-2.334.19-.153.02-.363.04-.363.383 0 .23.172.23.459.23.918 0 .956.134.956.325l-.057.383L.576 13.029c-.076.267-.076.306-.076.42 0 .44.383.536.555.536a.783.783 0 0 0 .65-.402c.096-.172.956-3.71 1.071-4.189.65.058 2.22.364 2.22 1.626 0 .134 0 .21-.058.402-.039.23-.077.459-.077.67 0 1.128.765 1.893 1.76 1.893.574 0 1.09-.306 1.511-1.014.478-.841.689-1.893.689-1.932 0-.191-.172-.191-.23-.191-.191 0-.21.076-.268.344-.382 1.397-.822 2.372-1.664 2.372-.363 0-.612-.21-.612-.899 0-.325.077-.765.153-1.071.077-.325.077-.402.077-.593 0-1.243-1.205-1.798-2.831-2.008.593-.345 1.205-.957 1.645-1.416.918-1.014 1.798-1.836 2.735-1.836.115 0 .134 0 .172.019.23.038.249.038.402.153.038.02.038.038.076.076-.918.058-1.09.804-1.09 1.033 0 .306.21.67.727.67.497 0 1.052-.421 1.052-1.167 0-.574-.44-1.205-1.3-1.205-.536 0-1.416.153-2.793 1.683-.65.727-1.397 1.492-2.124 1.78z" stroke-linejoin="round" stroke-miterlimit="100000" stroke-width="1.075"/>
</symbol>
<symbol id="b">
<path d="M28.196 4.249c.23-.115.364-.21.364-.42a.384.384 0 0 0-.383-.383c-.057 0-.095 0-.344.134L17.236 8.572c-.21.096-.364.191-.364.42 0 .23.153.326.364.422l10.597 4.992c.249.134.287.134.344.134.21 0 .383-.172.383-.383 0-.21-.134-.306-.364-.42L18.154 8.993z" stroke-linejoin="round" stroke-miterlimit="100000" stroke-width="1.075"/>
</symbol>
<symbol id="c">
<path d="M44.22 7.654c0-1.53-.096-3.06-.765-4.476-.88-1.836-2.449-2.142-3.252-2.142-1.148 0-2.544.497-3.329 2.276-.612 1.32-.707 2.812-.707 4.342 0 1.435.076 3.156.86 4.61.823 1.55 2.22 1.932 3.157 1.932 1.033 0 2.486-.402 3.328-2.219.612-1.32.708-2.812.708-4.323zm-4.036 6.121c-.746 0-1.875-.478-2.22-2.314-.21-1.148-.21-2.908-.21-4.037 0-1.224 0-2.486.153-3.52.364-2.275 1.798-2.448 2.277-2.448.63 0 1.893.345 2.257 2.238.191 1.072.191 2.525.191 3.73 0 1.435 0 2.736-.21 3.96-.287 1.817-1.378 2.391-2.238 2.391z" stroke-linejoin="round" stroke-miterlimit="100000" stroke-width="1.075"/>
</symbol>
</defs>
<path d="M.5 23.52h201M.5 70.645h201" color="#000" fill="none" stroke="#000" stroke-width=".2" style="isolation:auto;mix-blend-mode:normal"/>
<g fill="red" stroke-linejoin="round" stroke-miterlimit="100000" stroke-width="1.075">
<path d="M3.35 22.648h13.078l-.872-3.488 8.719 4.36-8.719 4.36.872-3.488H3.35v-1.744M27.762 22.648h7.847l-.871-3.488 8.718 4.36-8.718 4.36.871-3.488h-7.847v-1.744M52.175 22.648h2.616l-.872-3.488 8.719 4.36-8.72 4.36.873-3.488h-2.616v-1.744M76.588 22.996h.523l-.523-2.092 5.23 2.615-5.23 2.616.523-2.093h-.523v-1.046M100.128 23.52l.436.755h.872l.436-.755-.436-.755h-.872l-.436.755.436.755M125.412 24.043h-.523l.523 2.092-5.231-2.615 5.231-2.616-.523 2.093h.523v1.046M149.825 24.391h-2.616l.872 3.487-8.719-4.359 8.72-4.36-.873 3.488h2.616v1.744M174.237 24.391h-7.847l.872 3.487-8.719-4.359 8.719-4.36-.872 3.488h7.847v1.744M198.65 24.391h-13.078l.872 3.487-8.719-4.359 8.719-4.36-.872 3.488h13.078v1.744" clip-path="url(#pc49e36dc86)"/>
</g>
<g fill="#00f" stroke-linejoin="round" stroke-miterlimit="100000" stroke-width="1.075" color="#000">
<path d="M24.275 71.517H11.197l.872 3.488-8.719-4.36 8.719-4.36-.872 3.488h13.078v1.744M43.456 71.517H35.61l.872 3.488-8.718-4.36 8.718-4.36-.872 3.488h7.847v1.744M62.638 71.517h-2.616l.872 3.488-8.719-4.36 8.719-4.36-.872 3.488h2.616v1.744M81.819 71.169h-.523l.523 2.092-5.231-2.615 5.23-2.616-.522 2.093h.523v1.046M101.871 70.645l-.436-.755h-.872l-.436.755.436.755h.872l.436-.755-.436-.755M120.181 70.122h.523l-.523-2.093 5.231 2.616-5.231 2.616.523-2.093h-.523v-1.046M139.362 69.774h2.616l-.872-3.487 8.718 4.359-8.718 4.36.872-3.488h-2.616v-1.744M158.543 69.774h7.847l-.872-3.487 8.719 4.359-8.719 4.36.872-3.488h-7.847v-1.744M177.725 69.774h13.078l-.872-3.487 8.719 4.359-8.719 4.36.872-3.488h-13.078v-1.744" clip-path="url(#p735a84c319)" style="isolation:auto;mix-blend-mode:normal"/>
</g>
<g fill="red">
<use xlink:href="#a"/>
<use xlink:href="#b"/>
<use xlink:href="#c"/>
</g>
<use transform="translate(0 47.126)" width="100%" height="100%" fill="#00f" xlink:href="#a"/>
<use width="100%" height="100%" fill="red" xlink:href="#b"/>
<use transform="matrix(-1 0 0 1 45.432 47.125)" width="100%" height="100%" fill="#00f" xlink:href="#b"/>
<use transform="translate(-.002 47.125)" width="100%" height="100%" fill="#00f" xlink:href="#c"/>
</svg>
