<svg width="152.287" height="111.797" viewBox="0 0 40.293 29.58" xml:space="preserve" xmlns="http://www.w3.org/2000/svg">
<path d="M193.804-53.503v-3.691l-.692.23.923-2.306.922 2.306-.692-.23v3.69h-.461M201.493-53.503v-3.691l-.692.23.923-2.306.923 2.306-.692-.23v3.69h-.462M209.183-53.503v-3.691l-.692.23.923-2.306.922 2.306-.692-.23v3.69h-.461M216.872-53.503v-3.691l-.692.23.923-2.306.923 2.306-.692-.23v3.69h-.462M224.562-53.503v-3.691l-.692.23.922-2.306.923 2.306-.692-.23v3.69h-.461M232.251-53.503v-3.691l-.692.23.923-2.306.923 2.306-.692-.23v3.69h-.462M193.804-61.44v-3.692l-.692.231.923-2.307.922 2.307-.692-.23v3.69h-.461M201.493-61.44v-3.692l-.692.231.923-2.307.923 2.307-.692-.23v3.69h-.462M209.183-61.44v-3.692l-.692.231.923-2.307.922 2.307-.692-.23v3.69h-.461M216.872-61.44v-3.692l-.692.231.923-2.307.923 2.307-.692-.23v3.69h-.462M224.562-61.44v-3.692l-.692.231.922-2.307.923 2.307-.692-.23v3.69h-.461M232.251-61.44v-3.692l-.692.231.923-2.307.923 2.307-.692-.23v3.69h-.462M193.804-69.378v-3.691l-.692.23.923-2.306.922 2.306-.692-.23v3.69h-.461M201.493-69.378v-3.691l-.692.23.923-2.306.923 2.306-.692-.23v3.69h-.462M209.183-69.378v-3.691l-.692.23.923-2.306.922 2.306-.692-.23v3.69h-.461M216.872-69.378v-3.691l-.692.23.923-2.306.923 2.306-.692-.23v3.69h-.462M224.562-69.378v-3.691l-.692.23.922-2.306.923 2.306-.692-.23v3.69h-.461M232.251-69.378v-3.691l-.692.23.923-2.306.923 2.306-.692-.23v3.69h-.462M193.804-77.316v-3.69l-.692.23.923-2.307.922 2.307-.692-.23v3.69h-.461M201.493-77.316v-3.69l-.692.23.923-2.307.923 2.307-.692-.23v3.69h-.462M209.183-77.316v-3.69l-.692.23.923-2.307.922 2.307-.692-.23v3.69h-.461M216.872-77.316v-3.69l-.692.23.923-2.307.923 2.307-.692-.23v3.69h-.462M224.562-77.316v-3.69l-.692.23.922-2.307.923 2.307-.692-.23v3.69h-.461M232.251-77.316v-3.69l-.692.23.923-2.307.923 2.307-.692-.23v3.69h-.462" style="fill:red;stroke-width:.330728;stroke-linejoin:round;stroke-miterlimit:100000" transform="translate(-193.112 83.083)"/>
</svg>
