<svg width="203.015" height="145.189" viewBox="0 0 53.714 38.415" xml:space="preserve" xmlns:xlink="http://www.w3.org/1999/xlink" xmlns="http://www.w3.org/2000/svg">
<defs>
<path id="m" d="M8.1-7.1c.13-.06.23-.12.23-.26 0-.13-.096-.24-.24-.24-.06 0-.17.048-.22.072l-6.6 3.1c-.2.096-.24.18-.24.27 0 .11.072.19.24.26l6.6 3.1c.16.084.18.084.22.084.13 0 .24-.11.24-.24 0-.11-.048-.18-.25-.27l-6.3-2.9zm-.19 8.7c.2 0 .42 0 .42-.24s-.25-.24-.43-.24H1.5c-.18 0-.43 0-.43.24s.22.24.42.24z"/>
<path id="n" d="M3.6-2.7c.19 0 .41 0 .41-.2 0-.17-.14-.17-.35-.17h-1.9c.29-1 .96-1.7 2-1.7h.37c.2 0 .39 0 .39-.2 0-.17-.16-.17-.36-.17h-.42c-1.6 0-3.2 1.2-3.2 3 0 1.3.9 2.3 2.2 2.3.78 0 1.6-.48 1.6-.61 0-.036-.012-.17-.12-.17-.024 0-.048 0-.16.072-.37.24-.81.44-1.3.44-.69 0-1.3-.5-1.3-1.6 0-.42.096-.87.13-1z"/>
<path id="c" d="M2.5-4.8h1.1c.24 0 .36 0 .36-.24 0-.13-.12-.13-.33-.13h-1.1c.43-1.7.49-1.9.49-2 0-.2-.14-.32-.35-.32-.036 0-.37.012-.48.43l-.47 1.9H.62c-.24 0-.36 0-.36.23 0 .14.096.14.33.14h1.1C.83-1.39.78-1.19.78-.99c0 .65.45 1.1 1.1 1.1 1.2 0 1.9-1.7 1.9-1.8 0-.12-.096-.12-.14-.12-.11 0-.12.036-.18.17-.51 1.2-1.1 1.5-1.6 1.5-.25 0-.37-.16-.37-.55 0-.29.024-.37.072-.57z"/>
<path id="b" d="M4-3.6c.072-.31.35-1.4 1.2-1.4.06 0 .35 0 .6.16-.33.06-.57.36-.57.65 0 .19.13.42.45.42.26 0 .65-.22.65-.69 0-.62-.71-.79-1.1-.79-.69 0-1.1.63-1.3.91-.3-.79-.94-.91-1.3-.91-1.2 0-1.9 1.5-1.9 1.8 0 .12.12.12.14.12.096 0 .13-.024.16-.13.41-1.3 1.2-1.6 1.6-1.6.23 0 .65.11.65.8 0 .37-.2 1.2-.65 2.8-.19.74-.61 1.2-1.1 1.2-.072 0-.35 0-.6-.16.3-.06.56-.31.56-.65 0-.32-.26-.42-.44-.42-.36 0-.66.31-.66.69 0 .55.6.79 1.1.79.79 0 1.2-.84 1.3-.91.14.44.57.91 1.3.91 1.2 0 1.9-1.5 1.9-1.8 0-.12-.11-.12-.14-.12-.11 0-.13.048-.16.13C5.3-.5 4.49-.2 4.09-.2c-.47 0-.66-.38-.66-.79 0-.26.072-.53.2-1.1z"/>
<path id="d" d="M1.6-.93c0 .43-.024.56-.94.56H.37V0h6.9l.5-3.1h-.3c-.3 1.8-.57 2.7-2.6 2.7h-1.6c-.56 0-.59-.084-.59-.48v-3.2h1.1c1.2 0 1.3.38 1.3 1.4h.3v-3.2h-.3c0 1-.13 1.4-1.3 1.4h-1.1v-2.9c0-.39.024-.48.59-.48h1.5c1.8 0 2.2.66 2.3 2.3h.3l-.33-2.7H.34v.37h.29c.92 0 .94.13.94.56z"/>
<path id="j" d="M4-.91c.048.48.37.98.93.98.25 0 .98-.17.98-1.1v-.67h-.3v.67c0 .69-.3.77-.43.77-.39 0-.44-.54-.44-.6v-2.4c0-.5 0-.97-.43-1.4-.47-.47-1.1-.66-1.6-.66-.98 0-1.8.56-1.8 1.4 0 .36.24.56.55.56.33 0 .55-.24.55-.55 0-.14-.06-.54-.61-.55.32-.42.91-.55 1.3-.55.59 0 1.3.47 1.3 1.5v.44c-.61.036-1.4.072-2.2.43-.9.41-1.2 1-1.2 1.6C.6-.07 1.8.26 2.5.26c.79 0 1.3-.48 1.6-1zm-.084-2v1.2c0 1.1-.86 1.5-1.4 1.5-.59 0-1.1-.42-1.1-1 0-.66.5-1.6 2.5-1.7z"/>
<path id="k" d="M1.4-2.6c0-1.9.98-2.5 1.6-2.5.11 0 .86.012 1.3.44-.49.036-.56.39-.56.55 0 .31.22.55.55.55.31 0 .55-.2.55-.56 0-.81-.91-1.3-1.8-1.3-1.5 0-2.6 1.3-2.6 2.8 0 1.5 1.2 2.7 2.6 2.7 1.6 0 2-1.4 2-1.6 0-.2-.12-.12-.16-.12-.11 0-.13.048-.16.12-.35 1.1-1.1 1.3-1.6 1.3-.63 0-1.7-.51-1.7-2.4z"/>
<path id="g" d="M1.3-3c.072-1.8 1.1-2.1 1.5-2.1C4-5.1 4.2-3.5 4.2-3zm-.012.25h3.3c.26 0 .3 0 .3-.25 0-1.2-.65-2.3-2.1-2.3-1.4 0-2.5 1.2-2.5 2.7 0 1.6 1.3 2.8 2.6 2.8 1.5 0 2-1.3 2-1.6 0-.12-.096-.14-.16-.14-.11 0-.13.072-.16.17-.42 1.2-1.5 1.2-1.6 1.2-.6 0-1.1-.36-1.4-.8-.36-.57-.36-1.4-.36-1.8z"/>
<path id="f" d="m2.1-8.3-1.7.13v.37c.84 0 .93.084.93.67v6.2c0 .54-.13.54-.93.54v.37c.39-.012 1-.036 1.3-.036.3 0 .88.024 1.3.036v-.37c-.8 0-.93 0-.93-.54z"/>
<path id="h" d="M2-4v-1.3l-1.7.13v.37c.84 0 .93.084.93.67v3.2c0 .54-.13.54-.93.54v.37c.47-.012 1-.036 1.4-.036.48 0 1 0 1.5.036v-.37h-.25c-.88 0-.91-.13-.91-.56v-1.8c0-1.2.5-2.2 1.4-2.2.084 0 .11 0 .13.012a.526.526 0 0 0-.27.47c0 .33.25.51.51.51.22 0 .51-.14.51-.53s-.37-.73-.88-.73c-.87 0-1.3.8-1.5 1.3z"/>
<path id="l" d="M2.1-4.8h1.7v-.37H2.1v-2.2h-.3c-.012.98-.37 2.3-1.5 2.3v.26h1v3.3c0 1.5 1.1 1.6 1.5 1.6.85 0 1.2-.85 1.2-1.6v-.68h-.3v.66c0 .88-.36 1.3-.8 1.3-.8 0-.8-1.1-.8-1.3z"/>
<path id="e" d="M4.7-.94v1.1L6.4.03v-.37c-.84 0-.93-.084-.93-.67v-4.2l-1.8.13v.37c.84 0 .93.084.93.67v2.1c0 1-.57 1.9-1.4 1.9-1 0-1.1-.56-1.1-1.2v-4l-1.8.13v.37c.93 0 .93.036.93 1.1v1.8c0 .93 0 2 1.8 2 .67 0 1.2-.33 1.5-1.1z"/>
<path id="i" d="M3.4-2.8c.36-.45.81-1 1.1-1.4.37-.43.86-.61 1.4-.62v-.37c-.31.024-.67.036-.98.036-.36 0-.99-.024-1.1-.036v.37c.25.024.35.18.35.37s-.12.35-.18.42l-.74.93-.93-1.2c-.11-.12-.11-.14-.11-.22 0-.18.18-.29.42-.3v-.37c-.31.012-1.1.036-1.3.036-.25 0-.81-.012-1.1-.036v.37c.84 0 .85.012 1.4.73l1.2 1.5-1.1 1.4c-.57.69-1.3.72-1.5.72v.37c.31-.024.68-.036.99-.036.35 0 .85.024 1.1.036v-.37c-.26-.036-.35-.19-.35-.37 0-.26.35-.66 1.1-1.5l.91 1.2c.096.13.25.32.25.39 0 .11-.11.29-.43.3v.37c.36-.012 1-.036 1.3-.036.32 0 .79.012 1.1.036v-.37c-.65 0-.86-.024-1.1-.37z"/>
<path id="o" d="M8.1-7.1c.13-.06.23-.12.23-.26 0-.13-.096-.24-.24-.24-.06 0-.17.048-.22.072l-6.6 3.1c-.2.096-.24.18-.24.27 0 .11.072.19.24.26l6.6 3.1c.16.084.18.084.22.084.13 0 .24-.11.24-.24 0-.11-.048-.18-.25-.27l-6.3-2.9zm-.19 8.7c.2 0 .42 0 .42-.24s-.25-.24-.43-.24H1.5c-.18 0-.43 0-.43.24s.22.24.42.24z"/>
<path id="p" d="M5.3-8.3c-.084-.16-.11-.22-.31-.22s-.23.06-.31.22l-4 8.1c-.06.11-.06.13-.06.14 0 .096.072.096.26.096h8.3c.19 0 .26 0 .26-.096 0-.012 0-.036-.06-.14zm-.69.98 3.2 6.5h-6.4z"/>
<path id="t" d="M2.8-5.3c0-.23-.017-.23-.25-.23-.54.53-1.3.54-1.6.54v.3c.2 0 .75 0 1.2-.23v4.3c0 .28 0 .38-.84.38H.99v.3c.15-.008 1.2-.033 1.5-.033.26 0 1.3.025 1.5.033v-.3h-.32c-.84 0-.84-.11-.84-.38z"/>
<path id="r" d="M3.7-2.2c0-.44 0-.76-.38-1.1a1.83 1.83 0 0 0-1.2-.42c-.8 0-1.4.3-1.4.81 0 .27.18.41.4.41.23 0 .39-.17.39-.39 0-.14-.067-.32-.29-.38.3-.21.79-.21.84-.21.47 0 .98.31.98 1v.26c-.46.017-1 .042-1.6.27-.75.28-.99.74-.99 1.1 0 .72.87.93 1.5.93.67 0 1.1-.38 1.2-.7.033.34.26.66.64.66.017 0 .83 0 .83-.8v-.46h-.28v.45c0 .084 0 .49-.31.49s-.31-.39-.31-.5zm-.66 1.1c0 .8-.7 1-1.1 1-.43 0-.83-.28-.83-.69 0-.46.4-1.1 1.9-1.2z"/>
<path id="q" d="M6.9-2.5c0-.73-.36-1.2-1.3-1.2-.66 0-1.1.36-1.3.78-.17-.59-.62-.78-1.2-.78-.69 0-1.1.38-1.4.81h-.008v-.81l-1.2.092v.3c.56 0 .63.059.63.47v2.2c0 .36-.084.36-.63.36v.3c.017 0 .6-.033.95-.033.31 0 .89.025.96.033v-.3c-.54 0-.63 0-.63-.36v-1.5c0-.88.69-1.3 1.2-1.3.59 0 .66.46.66.89v1.9c0 .36-.084.36-.63.36v.3c.017 0 .6-.033.95-.033.31 0 .89.025.96.033v-.3c-.54 0-.63 0-.63-.36v-1.5c0-.88.69-1.3 1.2-1.3.59 0 .66.46.66.89v1.9c0 .36-.084.36-.63.36v.3c.017 0 .6-.033.95-.033.31 0 .89.025.96.033v-.3c-.54 0-.63 0-.63-.36z"/>
<path id="s" d="M2.8-1.9a.555.555 0 0 1-.067-.084c0-.025.55-.62.63-.69.29-.33.59-.64 1.2-.65v-.3c-.23.017-.48.033-.7.033-.25 0-.58-.008-.83-.033v.3c.14.025.17.12.17.19 0 .017 0 .14-.13.28l-.59.66-.69-.8c-.084-.092-.092-.13-.092-.17 0-.13.12-.18.23-.18v-.3a11.808 11.808 0 0 1-1.75 0v.3c.38 0 .6 0 .82.25l1 1.2a.555.555 0 0 1 .067.084c0 .025-.63.71-.71.8-.31.33-.59.64-1.3.66v.3c.25-.017.44-.033.69-.033.25 0 .59.008.84.033v-.3c-.1-.017-.17-.075-.17-.19 0-.16.092-.27.23-.41l.59-.64.73.83c.16.18.16.19.16.24 0 .17-.19.18-.23.18v.3c.075-.008.68-.033.95-.033.27 0 .54.008.8.033v-.3c-.56 0-.63-.05-.82-.27z"/>
<path id="u" d="M3.156-5.224C1.662-4.866.502-3.312.502-1.865c0 1.148.765 2.008 1.89 2.008 1.398 0 2.39-1.877 2.39-3.526 0-1.088-.478-1.686-.885-2.224-.43-.538-1.135-1.435-1.135-1.96 0-.264.239-.55.657-.55.359 0 .598.155.85.322.238.144.477.3.657.3.298 0 .478-.288.478-.48 0-.262-.191-.298-.622-.394-.622-.131-.789-.131-.98-.131-.933 0-1.363.514-1.363 1.231 0 .646.347 1.315.717 2.045zm.144.263c.299.55.657 1.195.657 2.056 0 .789-.454 2.786-1.566 2.786-.657 0-1.148-.503-1.148-1.411 0-.753.443-3 2.057-3.431z"/>
<path id="v" d="M2.463-4.782h1.124c.239 0 .358 0 .358-.24 0-.13-.12-.13-.334-.13H2.558c.43-1.698.49-1.937.49-2.01 0-.202-.143-.322-.346-.322-.036 0-.37.012-.478.43l-.467 1.901H.634c-.24 0-.359 0-.359.227 0 .144.096.144.335.144h1.052C.8-1.387.753-1.184.753-.968c0 .645.455 1.1 1.1 1.1 1.22 0 1.901-1.746 1.901-1.842 0-.12-.096-.12-.143-.12-.108 0-.12.037-.18.168-.514 1.244-1.147 1.53-1.554 1.53-.251 0-.37-.155-.37-.55 0-.286.023-.37.071-.573l.885-3.527z"/>
<path id="w" d="m1.518-.92 1.268-1.232c1.864-1.65 2.582-2.295 2.582-3.49 0-1.364-1.076-2.32-2.535-2.32-1.35 0-2.235 1.1-2.235 2.164 0 .67.597.67.633.67.204 0 .622-.144.622-.634a.605.605 0 0 0-.634-.622c-.095 0-.12 0-.155.012.275-.777.92-1.22 1.614-1.22 1.088 0 1.602.969 1.602 1.95 0 .956-.598 1.9-1.255 2.641L.729-.442C.598-.311.598-.287.598 0h4.435l.335-2.08h-.3c-.059.359-.143.885-.262 1.064-.084.095-.873.095-1.136.095H1.518z"/>
<path id="x" d="M8.07-7.101c.131-.06.227-.12.227-.263a.232.232 0 0 0-.24-.24.653.653 0 0 0-.214.072L1.23-4.412c-.203.096-.239.18-.239.275 0 .108.072.192.24.264l6.61 3.108c.156.083.18.083.216.083a.24.24 0 0 0 .239-.239c0-.107-.048-.179-.251-.275l-6.253-2.94L8.07-7.102zm-.192 8.739c.204 0 .419 0 .419-.24 0-.238-.251-.238-.43-.238H1.422c-.18 0-.43 0-.43.239s.214.239.418.239h6.467z"/>
<path id="z" d="M3.156-5.224C1.662-4.866.502-3.312.502-1.865c0 1.148.765 2.008 1.89 2.008 1.398 0 2.39-1.877 2.39-3.526 0-1.088-.478-1.686-.885-2.224-.43-.538-1.135-1.435-1.135-1.96 0-.264.239-.55.657-.55.359 0 .598.155.85.322.238.144.477.3.657.3.298 0 .478-.288.478-.48 0-.262-.191-.298-.622-.394-.622-.131-.789-.131-.98-.131-.933 0-1.363.514-1.363 1.231 0 .646.347 1.315.717 2.045zm.144.263c.299.55.657 1.195.657 2.056 0 .789-.454 2.786-1.566 2.786-.657 0-1.148-.503-1.148-1.411 0-.753.443-3 2.057-3.431z"/>
<path id="y" d="M4.471-7.233c.108-.43.144-.562 1.267-.562.36 0 .455 0 .455-.227 0-.143-.132-.143-.192-.143-.394 0-1.374.035-1.769.035-.359 0-1.231-.035-1.59-.035-.084 0-.227 0-.227.239 0 .131.107.131.335.131.024 0 .25 0 .454.024.215.024.323.036.323.191 0 .048-.012.084-.048.228L1.877-.932c-.12.466-.144.561-1.088.561-.203 0-.323 0-.323.24C.466 0 .574 0 .79 0h5.535c.287 0 .3 0 .37-.203l.945-2.583c.048-.131.048-.155.048-.167a.135.135 0 0 0-.143-.131c-.108 0-.12.06-.204.25-.406 1.1-.932 2.463-3 2.463H3.216c-.168 0-.191 0-.263-.012-.12-.012-.156-.023-.156-.12 0-.035 0-.059.06-.274l1.614-6.456z"/>
<path id="A" d="M2.463-4.782h1.124c.239 0 .358 0 .358-.24 0-.13-.12-.13-.334-.13H2.558c.43-1.698.49-1.937.49-2.01 0-.202-.143-.322-.346-.322-.036 0-.37.012-.478.43l-.467 1.901H.634c-.24 0-.359 0-.359.227 0 .144.096.144.335.144h1.052C.8-1.387.753-1.184.753-.968c0 .645.455 1.1 1.1 1.1 1.22 0 1.901-1.746 1.901-1.842 0-.12-.096-.12-.143-.12-.108 0-.12.037-.18.168-.514 1.244-1.147 1.53-1.554 1.53-.251 0-.37-.155-.37-.55 0-.286.023-.37.071-.573l.885-3.527z"/>
<path id="F" d="M2.804-5.322c0-.226-.017-.235-.252-.235-.535.528-1.297.536-1.64.536v.301c.201 0 .753 0 1.214-.234v4.268c0 .276 0 .385-.837.385H.97V0c.15-.008 1.18-.033 1.49-.033.259 0 1.313.025 1.497.033v-.301H3.64c-.837 0-.837-.109-.837-.385v-4.636z"/>
<path id="D" d="M3.732-2.243c0-.443 0-.761-.385-1.071-.343-.285-.744-.418-1.238-.418-.795 0-1.356.3-1.356.811 0 .268.184.41.402.41a.383.383 0 0 0 .393-.393.384.384 0 0 0-.293-.385c.302-.21.787-.21.837-.21.469 0 .98.31.98 1.013v.26c-.461.017-1.013.042-1.624.268C.695-1.682.46-1.222.46-.845c0 .72.87.929 1.465.929.67 0 1.063-.377 1.238-.703.034.343.26.66.645.66.016 0 .828 0 .828-.794v-.46h-.284v.451c0 .084 0 .486-.31.486s-.31-.394-.31-.502v-1.465zm-.66 1.063c0 .803-.704 1.03-1.08 1.03-.427 0-.829-.285-.829-.695 0-.46.402-1.105 1.908-1.163v.828z"/>
<path id="C" d="M6.879-2.536c0-.728-.36-1.155-1.255-1.155-.661 0-1.113.36-1.34.779-.167-.594-.619-.779-1.23-.779-.686 0-1.13.377-1.364.812h-.008v-.812l-1.23.092v.302c.56 0 .627.058.627.468V-.66c0 .36-.083.36-.627.36V0c.017 0 .602-.033.954-.033.31 0 .887.025.962.033v-.301c-.544 0-.627 0-.627-.36v-1.507c0-.878.694-1.288 1.246-1.288.586 0 .662.46.662.887v1.908c0 .36-.084.36-.628.36v.3c.017 0 .603-.033.954-.033.31 0 .887.025.962.034v-.301c-.544 0-.627 0-.627-.36v-1.507c0-.878.694-1.288 1.247-1.288.585 0 .66.46.66.887v1.908c0 .36-.083.36-.627.36v.3c.017 0 .603-.033.954-.033.31 0 .887.025.963.034v-.302c-.544 0-.628 0-.628-.36v-1.874z"/>
<path id="E" d="M2.837-1.875a.586.586 0 0 1-.067-.083c0-.025.552-.62.628-.695.293-.326.586-.644 1.247-.653v-.3c-.235.016-.477.033-.703.033a9.14 9.14 0 0 1-.829-.034v.301c.142.025.168.118.168.193 0 .017 0 .142-.126.284l-.586.661-.694-.795c-.084-.092-.092-.133-.092-.167 0-.125.117-.176.225-.176v-.3a11.691 11.691 0 0 1-1.749 0v.3c.385 0 .603 0 .82.251l1.047 1.206a.586.586 0 0 1 .067.083c0 .025-.628.712-.712.804-.31.334-.594.644-1.263.66V0c.25-.017.435-.033.694-.033.251 0 .586.008.837.033v-.301c-.1-.017-.167-.076-.167-.193 0-.159.092-.268.226-.41l.585-.644.728.828c.16.176.16.193.16.243 0 .167-.193.176-.226.176V0c.075-.008.677-.033.945-.033.268 0 .536.008.804.033v-.301c-.561 0-.628-.05-.82-.268L2.836-1.875z"/>
<path id="B" d="M5.284-8.345c-.083-.155-.107-.215-.31-.215-.204 0-.228.06-.311.215L.622-.239c-.06.107-.06.131-.06.143C.562 0 .634 0 .825 0h8.297c.191 0 .263 0 .263-.096 0-.012 0-.036-.06-.143l-4.04-8.106zm-.693.98L7.807-.908H1.363Z"/>
<marker id="a" overflow="visible" orient="auto">
<path d="m-10 0-4 4L.4 0-14-4Z" fill-rule="evenodd" stroke="#000" stroke-width=".8pt"/>
</marker>
</defs>
<g transform="translate(-196.473 14.127)">
<path d="M196.539 18.204h52.652" color="#000" marker-end="url(#a)" stroke="#000" stroke-linecap="round" stroke-width=".132" style="fill:none;marker-end:url(#a)"/>
<path d="m200.706 5.537 26.326-7.813" stroke="#028000" stroke-width=".079" style="font-variation-settings:normal;fill:none"/>
<path d="m200.706 11.358 26.326-.934" stroke="red" stroke-width=".397" style="font-variation-settings:normal;fill:none"/>
<path d="m200.706 5.537 26.326-.934" stroke="#0200ff" stroke-width=".079" style="font-variation-settings:normal;fill:none"/>
<path d="M227.032 19.58v-33.338" color="#000" marker-end="url(#a)" stroke="#000" stroke-linecap="round" stroke-width=".132" style="font-variation-settings:normal;fill:none;marker-end:url(#a)"/>
<path d="M200.706 5.537C212.612.774 224.122-5.821 227.032-8.996" stroke="red" stroke-dasharray="4.50002, 4.50002" stroke-width=".397" style="font-variation-settings:normal;opacity:1;vector-effect:none;fill:none;fill-opacity:1;stroke:red;stroke-width:.396875;stroke-linecap:butt;stroke-linejoin:miter;stroke-miterlimit:4;stroke-dasharray:1.19063,1.19063;stroke-dashoffset:0;stroke-opacity:1;-inkscape-stroke:none;stop-color:#000;stop-opacity:1"/>
<path d="M200.706 19.527v-33.338" color="#000" marker-end="url(#a)" stroke="#000" stroke-linecap="round" stroke-width=".132" style="fill:none;marker-end:url(#a)"/>
<circle cx="200.706" cy="11.358" r=".661" color="#000" fill="#fff" stroke="#5e5bff" stroke-linejoin="round" stroke-miterlimit="100000" stroke-width=".238" style="font-variation-settings:normal;opacity:1;vector-effect:none;fill:#fff;fill-opacity:1;stroke:#5e5bff;stroke-width:.238;stroke-linecap:butt;stroke-linejoin:miter;stroke-miterlimit:4;stroke-dasharray:none;stroke-dashoffset:0;stroke-opacity:1;-inkscape-stroke:none;stop-color:#000;stop-opacity:1"/>
<circle cx="200.706" cy="5.537" r=".661" color="#000" fill="#fff" stroke="#5e5bff" stroke-linejoin="round" stroke-miterlimit="100000" stroke-width=".238" style="font-variation-settings:normal;opacity:1;vector-effect:none;fill:#fff;fill-opacity:1;stroke:#5e5bff;stroke-width:.238;stroke-linecap:butt;stroke-linejoin:miter;stroke-miterlimit:4;stroke-dasharray:none;stroke-dashoffset:0;stroke-opacity:1;-inkscape-stroke:none;stop-color:#000;stop-opacity:1"/>
<g fill="none" stroke-width="2">
<path d="M227.032-2.117v-6.88" stroke="#f0f" stroke-width=".52916"/>
<path d="M227.032 4.603v-6.879" stroke="green" stroke-width=".52916"/>
<path d="M227.032 10.424v-5.82" stroke="#00f" stroke-width=".52916"/>
</g>
<circle cx="227.032" cy="-8.996" r=".661" color="#000" fill="#fff" style="font-variation-settings:normal;opacity:1;vector-effect:none;fill:#fff;fill-opacity:1;stroke:#5e5bff;stroke-width:.238;stroke-linecap:butt;stroke-linejoin:miter;stroke-miterlimit:4;stroke-dasharray:none;stroke-dashoffset:0;stroke-opacity:1;-inkscape-stroke:none;stop-color:#000;stop-opacity:1"/>
<circle cx="227.032" cy="10.424" r=".661" color="#000" fill="#fff" style="font-variation-settings:normal;opacity:1;vector-effect:none;fill:#fff;fill-opacity:1;stroke:#5e5bff;stroke-width:.238;stroke-linecap:butt;stroke-linejoin:miter;stroke-miterlimit:4;stroke-dasharray:none;stroke-dashoffset:0;stroke-opacity:1;-inkscape-stroke:none;stop-color:#000;stop-opacity:1"/>
<circle cx="227.032" cy="4.603" r=".661" color="#000" fill="#5e5bff" style="font-variation-settings:normal;opacity:1;vector-effect:none;fill:#5e5bff;fill-opacity:1;stroke:#5e5bff;stroke-width:.238;stroke-linecap:butt;stroke-linejoin:miter;stroke-miterlimit:4;stroke-dasharray:none;stroke-dashoffset:0;stroke-opacity:1;-inkscape-stroke:none;stop-color:#000;stop-opacity:1"/>
<circle cx="227.032" cy="-2.276" r=".661" color="#000" fill="#5e5bff" style="font-variation-settings:normal;opacity:1;vector-effect:none;fill:#5e5bff;fill-opacity:1;stroke:#5e5bff;stroke-width:.238;stroke-linecap:butt;stroke-linejoin:miter;stroke-miterlimit:4;stroke-dasharray:none;stroke-dashoffset:0;stroke-opacity:1;-inkscape-stroke:none;stop-color:#000;stop-opacity:1"/>
<use transform="matrix(.42333 0 0 .42333 145.144 -47.413)" x="121.276" y="88.26" width="100%" height="100%" stroke-width=".83" xlink:href="#b"/>
<use transform="matrix(.42333 0 0 .42333 190.123 -13.123)" x="133.874" y="88.26" width="100%" height="100%" stroke-width=".83" xlink:href="#c"/>
<g stroke-width="0">
<g transform="matrix(.3302 0 0 .3302 155.304 -14.012)" fill="red" style="font-variation-settings:normal">
<use x="144.169" y="88.26" width="100%" height="100%" style="font-variation-settings:normal" xlink:href="#d"/>
<use x="152.305" y="88.26" width="100%" height="100%" style="font-variation-settings:normal" xlink:href="#e"/>
<use x="158.947" y="88.26" width="100%" height="100%" style="font-variation-settings:normal" xlink:href="#f"/>
<use x="162.268" y="88.26" width="100%" height="100%" style="font-variation-settings:normal" xlink:href="#g"/>
<use x="167.581" y="88.26" width="100%" height="100%" style="font-variation-settings:normal" xlink:href="#h"/>
</g>
<g transform="matrix(.3302 0 0 .3302 145.779 -32.268)" fill="red" style="font-variation-settings:normal">
<use x="172.264" y="88.26" width="100%" height="100%" style="font-variation-settings:normal" xlink:href="#g"/>
<use x="177.577" y="88.26" width="100%" height="100%" style="font-variation-settings:normal" xlink:href="#i"/>
<use x="183.887" y="88.26" width="100%" height="100%" style="font-variation-settings:normal" xlink:href="#j"/>
<use x="189.864" y="88.26" width="100%" height="100%" style="font-variation-settings:normal" xlink:href="#k"/>
<use x="195.178" y="88.26" width="100%" height="100%" style="font-variation-settings:normal" xlink:href="#l"/>
</g>
<g transform="matrix(.3302 0 0 .3302 163.387 -33.763)" fill="#f0f" style="font-variation-settings:normal">
<use x="203.148" y="88.26" width="100%" height="100%" style="font-variation-settings:normal" xlink:href="#m"/>
<use x="215.767" y="88.26" width="100%" height="100%" style="font-variation-settings:normal" xlink:href="#n"/>
</g>
</g>
<g transform="matrix(.34396 0 0 .34396 153.425 -21.9)" fill="#00f" stroke-width=".98">
<use x="223.941" y="88.26" width="100%" height="100%" style="font-variation-settings:normal" xlink:href="#o"/>
<use x="236.56" y="88.26" width="100%" height="100%" style="font-variation-settings:normal" xlink:href="#p"/>
<use x="246.523" y="83.324" width="100%" height="100%" style="font-variation-settings:normal" xlink:href="#q"/>
<use x="254.377" y="83.324" width="100%" height="100%" style="font-variation-settings:normal" xlink:href="#r"/>
<use x="259.142" y="83.324" width="100%" height="100%" style="font-variation-settings:normal" xlink:href="#s"/>
<use x="246.523" y="91.216" width="100%" height="100%" style="font-variation-settings:normal" xlink:href="#t"/>
</g>
<g transform="matrix(.42333 0 0 .42333 108.338 -13.137)" stroke-width=".833">
<use x="212.565" y="88.26" width="100%" height="100%" xlink:href="#u"/>
<use x="218.33" y="88.26" width="100%" height="100%" xlink:href="#v"/>
</g>
<g transform="matrix(.42333 0 0 .42333 127.864 -13.137)" stroke-width=".833">
<use x="222.648" y="88.26" width="100%" height="100%" xlink:href="#w"/>
<use x="228.625" y="88.26" width="100%" height="100%" xlink:href="#u"/>
<use x="234.391" y="88.26" width="100%" height="100%" xlink:href="#v"/>
</g>
<g transform="matrix(.33867 0 0 .33867 164.05 -27.654)" fill="green" stroke-width="86.754" style="font-variation-settings:normal">
<use x="196.116" y="88.26" width="100%" height="100%" style="font-variation-settings:normal" xlink:href="#x"/>
<use x="208.735" y="88.26" width="100%" height="100%" style="font-variation-settings:normal" xlink:href="#y"/>
<use x="216.871" y="88.26" width="100%" height="100%" style="font-variation-settings:normal" xlink:href="#z"/>
<use x="222.637" y="88.26" width="100%" height="100%" style="font-variation-settings:normal" xlink:href="#A"/>
<use x="226.954" y="88.26" width="100%" height="100%" style="font-variation-settings:normal" xlink:href="#B"/>
<use x="236.917" y="83.324" width="100%" height="100%" style="font-variation-settings:normal" xlink:href="#C"/>
<use x="244.771" y="83.324" width="100%" height="100%" style="font-variation-settings:normal" xlink:href="#D"/>
<use x="249.536" y="83.324" width="100%" height="100%" style="font-variation-settings:normal" xlink:href="#E"/>
<use x="236.917" y="91.216" width="100%" height="100%" style="font-variation-settings:normal" xlink:href="#F"/>
</g>
</g>
</svg>
