<svg width="162.446" height="128.844" viewBox="0 0 42.981 34.09" xml:space="preserve" xmlns:xlink="http://www.w3.org/1999/xlink" xmlns="http://www.w3.org/2000/svg">
<defs>
<path id="o" d="M8.1-7.1c.13-.06.23-.12.23-.26 0-.13-.096-.24-.24-.24-.06 0-.17.048-.22.072l-6.6 3.1c-.2.096-.24.18-.24.27 0 .11.072.19.24.26l6.6 3.1c.16.084.18.084.22.084.13 0 .24-.11.24-.24 0-.11-.048-.18-.25-.27l-6.3-2.9zm-.19 8.7c.2 0 .42 0 .42-.24s-.25-.24-.43-.24H1.5c-.18 0-.43 0-.43.24s.22.24.42.24z"/>
<path id="d" d="M3.2-5.2C1.7-4.84.5-3.3.5-1.8c0 1.1.77 2 1.9 2 1.4 0 2.4-1.9 2.4-3.5 0-1.1-.48-1.7-.88-2.2-.43-.54-1.1-1.4-1.1-2 0-.26.24-.55.66-.55.36 0 .6.16.85.32.24.14.48.3.66.3.3 0 .48-.29.48-.48 0-.26-.19-.3-.62-.39-.62-.13-.79-.13-.98-.13-.93 0-1.4.51-1.4 1.2 0 .65.35 1.3.72 2zm.14.26c.3.55.66 1.2.66 2.1 0 .79-.45 2.8-1.6 2.8-.66 0-1.1-.5-1.1-1.4 0-.75.44-3 2.1-3.4z"/>
<path id="p" d="M3.6-2.7c.19 0 .41 0 .41-.2 0-.17-.14-.17-.35-.17h-1.9c.29-1 .96-1.7 2-1.7h.37c.2 0 .39 0 .39-.2 0-.17-.16-.17-.36-.17h-.42c-1.6 0-3.2 1.2-3.2 3 0 1.3.9 2.3 2.2 2.3.78 0 1.6-.48 1.6-.61 0-.036-.012-.17-.12-.17-.024 0-.048 0-.16.072-.37.24-.81.44-1.3.44-.69 0-1.3-.5-1.3-1.6 0-.42.096-.87.13-1z"/>
<path id="e" d="M2.5-4.8h1.1c.24 0 .36 0 .36-.24 0-.13-.12-.13-.33-.13h-1.1c.43-1.7.49-1.9.49-2 0-.2-.14-.32-.35-.32-.036 0-.37.012-.48.43l-.47 1.9H.62c-.24 0-.36 0-.36.23 0 .14.096.14.33.14h1.1C.83-1.39.78-1.19.78-.99c0 .65.45 1.1 1.1 1.1 1.2 0 1.9-1.7 1.9-1.8 0-.12-.096-.12-.14-.12-.11 0-.12.036-.18.17-.51 1.2-1.1 1.5-1.6 1.5-.25 0-.37-.16-.37-.55 0-.29.024-.37.072-.57z"/>
<path id="c" d="M4-3.6c.072-.31.35-1.4 1.2-1.4.06 0 .35 0 .6.16-.33.06-.57.36-.57.65 0 .19.13.42.45.42.26 0 .65-.22.65-.69 0-.62-.71-.79-1.1-.79-.69 0-1.1.63-1.3.91-.3-.79-.94-.91-1.3-.91-1.2 0-1.9 1.5-1.9 1.8 0 .12.12.12.14.12.096 0 .13-.024.16-.13.41-1.3 1.2-1.6 1.6-1.6.23 0 .65.11.65.8 0 .37-.2 1.2-.65 2.8-.19.74-.61 1.2-1.1 1.2-.072 0-.35 0-.6-.16.3-.06.56-.31.56-.65 0-.32-.26-.42-.44-.42-.36 0-.66.31-.66.69 0 .55.6.79 1.1.79.79 0 1.2-.84 1.3-.91.14.44.57.91 1.3.91 1.2 0 1.9-1.5 1.9-1.8 0-.12-.11-.12-.14-.12-.11 0-.13.048-.16.13C5.3-.5 4.49-.2 4.09-.2c-.47 0-.66-.38-.66-.79 0-.26.072-.53.2-1.1z"/>
<path id="f" d="M1.6-.93c0 .43-.024.56-.94.56H.37V0h6.9l.5-3.1h-.3c-.3 1.8-.57 2.7-2.6 2.7h-1.6c-.56 0-.59-.084-.59-.48v-3.2h1.1c1.2 0 1.3.38 1.3 1.4h.3v-3.2h-.3c0 1-.13 1.4-1.3 1.4h-1.1v-2.9c0-.39.024-.48.59-.48h1.5c1.8 0 2.2.66 2.3 2.3h.3l-.33-2.7H.34v.37h.29c.92 0 .94.13.94.56z"/>
<path id="l" d="M4-.91c.048.48.37.98.93.98.25 0 .98-.17.98-1.1v-.67h-.3v.67c0 .69-.3.77-.43.77-.39 0-.44-.54-.44-.6v-2.4c0-.5 0-.97-.43-1.4-.47-.47-1.1-.66-1.6-.66-.98 0-1.8.56-1.8 1.4 0 .36.24.56.55.56.33 0 .55-.24.55-.55 0-.14-.06-.54-.61-.55.32-.42.91-.55 1.3-.55.59 0 1.3.47 1.3 1.5v.44c-.61.036-1.4.072-2.2.43-.9.41-1.2 1-1.2 1.6C.6-.07 1.8.26 2.5.26c.79 0 1.3-.48 1.6-1zm-.084-2v1.2c0 1.1-.86 1.5-1.4 1.5-.59 0-1.1-.42-1.1-1 0-.66.5-1.6 2.5-1.7z"/>
<path id="m" d="M1.4-2.6c0-1.9.98-2.5 1.6-2.5.11 0 .86.012 1.3.44-.49.036-.56.39-.56.55 0 .31.22.55.55.55.31 0 .55-.2.55-.56 0-.81-.91-1.3-1.8-1.3-1.5 0-2.6 1.3-2.6 2.8 0 1.5 1.2 2.7 2.6 2.7 1.6 0 2-1.4 2-1.6 0-.2-.12-.12-.16-.12-.11 0-.13.048-.16.12-.35 1.1-1.1 1.3-1.6 1.3-.63 0-1.7-.51-1.7-2.4z"/>
<path id="i" d="M1.3-3c.072-1.8 1.1-2.1 1.5-2.1C4-5.1 4.2-3.5 4.2-3zm-.012.25h3.3c.26 0 .3 0 .3-.25 0-1.2-.65-2.3-2.1-2.3-1.4 0-2.5 1.2-2.5 2.7 0 1.6 1.3 2.8 2.6 2.8 1.5 0 2-1.3 2-1.6 0-.12-.096-.14-.16-.14-.11 0-.13.072-.16.17-.42 1.2-1.5 1.2-1.6 1.2-.6 0-1.1-.36-1.4-.8-.36-.57-.36-1.4-.36-1.8z"/>
<path id="h" d="m2.1-8.3-1.7.13v.37c.84 0 .93.084.93.67v6.2c0 .54-.13.54-.93.54v.37c.39-.012 1-.036 1.3-.036.3 0 .88.024 1.3.036v-.37c-.8 0-.93 0-.93-.54z"/>
<path id="j" d="M2-4v-1.3l-1.7.13v.37c.84 0 .93.084.93.67v3.2c0 .54-.13.54-.93.54v.37c.47-.012 1-.036 1.4-.036.48 0 1 0 1.5.036v-.37h-.25c-.88 0-.91-.13-.91-.56v-1.8c0-1.2.5-2.2 1.4-2.2.084 0 .11 0 .13.012a.526.526 0 0 0-.27.47c0 .33.25.51.51.51.22 0 .51-.14.51-.53s-.37-.73-.88-.73c-.87 0-1.3.8-1.5 1.3z"/>
<path id="n" d="M2.1-4.8h1.7v-.37H2.1v-2.2h-.3c-.012.98-.37 2.3-1.5 2.3v.26h1v3.3c0 1.5 1.1 1.6 1.5 1.6.85 0 1.2-.85 1.2-1.6v-.68h-.3v.66c0 .88-.36 1.3-.8 1.3-.8 0-.8-1.1-.8-1.3z"/>
<path id="g" d="M4.7-.94v1.1L6.4.03v-.37c-.84 0-.93-.084-.93-.67v-4.2l-1.8.13v.37c.84 0 .93.084.93.67v2.1c0 1-.57 1.9-1.4 1.9-1 0-1.1-.56-1.1-1.2v-4l-1.8.13v.37c.93 0 .93.036.93 1.1v1.8c0 .93 0 2 1.8 2 .67 0 1.2-.33 1.5-1.1z"/>
<path id="k" d="M3.4-2.8c.36-.45.81-1 1.1-1.4.37-.43.86-.61 1.4-.62v-.37c-.31.024-.67.036-.98.036-.36 0-.99-.024-1.1-.036v.37c.25.024.35.18.35.37s-.12.35-.18.42l-.74.93-.93-1.2c-.11-.12-.11-.14-.11-.22 0-.18.18-.29.42-.3v-.37c-.31.012-1.1.036-1.3.036-.25 0-.81-.012-1.1-.036v.37c.84 0 .85.012 1.4.73l1.2 1.5-1.1 1.4c-.57.69-1.3.72-1.5.72v.37c.31-.024.68-.036.99-.036.35 0 .85.024 1.1.036v-.37c-.26-.036-.35-.19-.35-.37 0-.26.35-.66 1.1-1.5l.91 1.2c.096.13.25.32.25.39 0 .11-.11.29-.43.3v.37c.36-.012 1-.036 1.3-.036.32 0 .79.012 1.1.036v-.37c-.65 0-.86-.024-1.1-.37z"/>
<marker id="b" overflow="visible" orient="auto">
<path d="m10 0 4-4L-.4 0 14 4Z" fill-rule="evenodd" stroke="#000" stroke-width=".8pt"/>
</marker>
<marker id="a" overflow="visible" orient="auto">
<path d="m-10 0-4 4L.4 0-14-4Z" fill-rule="evenodd" stroke="#000" stroke-width=".8pt"/>
</marker>
</defs>
<g transform="translate(-140.574 38.827)">
<path d="M140.64-10.994h42.598" color="#000" marker-end="url(#a)" stroke="#000" stroke-linecap="round" stroke-width=".132" style="fill:none;marker-end:url(#a)"/>
<path d="M145.866-9.142h18.256" marker-end="url(#a)" marker-start="url(#b)" stroke="#000" stroke-linecap="round" stroke-width=".079" style="font-variation-settings:normal;fill:none;marker-start:url(#b);marker-end:url(#Arrow1Lend-3-1-1-3)"/>
<path d="m144.94-17.873 20.108-3.704" stroke="red" stroke-width=".397" style="font-variation-settings:normal;fill:none"/>
<path d="M144.94-17.873c12.435-2.223 16.668-9.26 20.108-14.817" stroke="red" stroke-dasharray="4.50002, 4.50002" stroke-width=".397" style="font-variation-settings:normal;opacity:1;vector-effect:none;fill:none;fill-opacity:1;stroke:red;stroke-width:.396875;stroke-linecap:butt;stroke-linejoin:miter;stroke-miterlimit:4;stroke-dasharray:1.19063,1.19063;stroke-dashoffset:0;stroke-opacity:1;-inkscape-stroke:none;stop-color:#000;stop-opacity:1"/>
<path d="M165.048-8.084V-38.51" color="#000" marker-end="url(#a)" stroke="#000" stroke-linecap="round" stroke-width=".132" style="font-variation-settings:normal;fill:none;marker-end:url(#a)"/>
<path d="M144.94-8.084V-38.51" color="#000" marker-end="url(#a)" stroke="#000" stroke-linecap="round" stroke-width=".132" style="fill:none;marker-end:url(#a)"/>
<circle cx="144.939" cy="-17.873" r=".661" color="#000" fill="#fff" stroke="#5e5bff" stroke-linejoin="round" stroke-miterlimit="100000" stroke-width=".238" style="font-variation-settings:normal;opacity:1;vector-effect:none;fill:#fff;fill-opacity:1;stroke:#5e5bff;stroke-width:.238;stroke-linecap:butt;stroke-linejoin:miter;stroke-miterlimit:4;stroke-dasharray:none;stroke-dashoffset:0;stroke-opacity:1;-inkscape-stroke:none;stop-color:#000;stop-opacity:1"/>
<path d="M165.048-21.577V-32.69" fill="none" stroke="green" stroke-width=".529"/>
<circle cx="165.048" cy="-21.577" r=".661" color="#000" fill="#fff" stroke="#5e5bff" stroke-linejoin="round" stroke-miterlimit="100000" stroke-width=".238" style="font-variation-settings:normal;opacity:1;vector-effect:none;fill:#fff;fill-opacity:1;stroke:#5e5bff;stroke-width:.238;stroke-linecap:butt;stroke-linejoin:miter;stroke-miterlimit:4;stroke-dasharray:none;stroke-dashoffset:0;stroke-opacity:1;-inkscape-stroke:none;stop-color:#000;stop-opacity:1"/>
<circle cx="165.048" cy="-32.69" r=".661" color="#000" fill="#fff" stroke="#5e5bff" stroke-linejoin="round" stroke-miterlimit="100000" stroke-width=".238" style="font-variation-settings:normal;opacity:1;vector-effect:none;fill:#fff;fill-opacity:1;stroke:#5e5bff;stroke-width:.238;stroke-linecap:butt;stroke-linejoin:miter;stroke-miterlimit:4;stroke-dasharray:none;stroke-dashoffset:0;stroke-opacity:1;-inkscape-stroke:none;stop-color:#000;stop-opacity:1"/>
<use transform="matrix(.42333 0 0 .42333 89.377 -73.436)" x="121.276" y="88.26" width="100%" height="100%" stroke-width=".83" xlink:href="#c"/>
<g transform="matrix(.4128 0 0 .4128 100.007 -41.25)" stroke-width=".83">
<use x="128.108" y="88.26" width="100%" height="100%" xlink:href="#d"/>
<use x="133.874" y="88.26" width="100%" height="100%" xlink:href="#e"/>
</g>
<use transform="matrix(.42333 0 0 .42333 123.244 -43.802)" x="133.874" y="88.26" width="100%" height="100%" stroke-width=".83" xlink:href="#e"/>
<g transform="matrix(.33 0 0 .33 101.791 -43.993)" fill="red" stroke-width="0" style="font-variation-settings:normal">
<use x="144.169" y="88.26" width="100%" height="100%" style="font-variation-settings:normal" xlink:href="#f"/>
<use x="152.305" y="88.26" width="100%" height="100%" style="font-variation-settings:normal" xlink:href="#g"/>
<use x="158.947" y="88.26" width="100%" height="100%" style="font-variation-settings:normal" xlink:href="#h"/>
<use x="162.268" y="88.26" width="100%" height="100%" style="font-variation-settings:normal" xlink:href="#i"/>
<use x="167.581" y="88.26" width="100%" height="100%" style="font-variation-settings:normal" xlink:href="#j"/>
</g>
<g transform="matrix(.33 0 0 .33 93.06 -58.016)" fill="red" stroke-width="0" style="font-variation-settings:normal">
<use x="172.264" y="88.26" width="100%" height="100%" style="font-variation-settings:normal" xlink:href="#i"/>
<use x="177.577" y="88.26" width="100%" height="100%" style="font-variation-settings:normal" xlink:href="#k"/>
<use x="183.887" y="88.26" width="100%" height="100%" style="font-variation-settings:normal" xlink:href="#l"/>
<use x="189.864" y="88.26" width="100%" height="100%" style="font-variation-settings:normal" xlink:href="#m"/>
<use x="195.178" y="88.26" width="100%" height="100%" style="font-variation-settings:normal" xlink:href="#n"/>
</g>
<g transform="matrix(.4128 0 0 .4128 82.604 -62.326)" fill="green" style="font-variation-settings:normal">
<use x="203.148" y="88.26" width="100%" height="100%" style="font-variation-settings:normal" xlink:href="#o"/>
<use x="215.767" y="88.26" width="100%" height="100%" style="font-variation-settings:normal" xlink:href="#p"/>
</g>
</g>
</svg>
