<svg width="205.656" height="80.285" viewBox="0 0 205.655 80.285" xmlns="http://www.w3.org/2000/svg" xmlns:xlink="http://www.w3.org/1999/xlink">
<defs>
<marker id="c" overflow="visible" orient="auto">
<path d="m-4 0-2 2 7-2-7-2z" fill="#ff0007" fill-rule="evenodd" stroke="#ff0007" stroke-width=".4pt"/>
</marker>
<marker id="b" overflow="visible" orient="auto">
<path d="m-4 0-2 2 7-2-7-2z" fill="#ff0007" fill-rule="evenodd" stroke="#ff0007" stroke-width=".4pt"/>
</marker>
<marker id="a" overflow="visible" orient="auto">
<path d="m-4 0-2 2 7-2-7-2z" fill="#ff0007" fill-rule="evenodd" stroke="#ff0007" stroke-width=".4pt"/>
</marker>
<symbol id="d">
<path d="M134.413 5.58q-.33-1.16-.649-1.965l.874-.2q.542 1.403.68 1.946zm-.218 9.281v-2.02h-3.219v-.756h3.219v-1.204h-2.739V6.178h4.579q.898-1.74 1.235-2.645l.98.225q-.4.93-1.292 2.42h.992v4.703h-2.807v1.204h3.262v.755h-3.262v2.021zm-1.84-6.7h1.865V6.809h-1.865zm2.75 0h1.915V6.809h-1.915zm1.915.65h-1.915v1.384h1.915zm-2.8 0h-1.865v1.384h1.865zm-2.046-2.839q-.512-1.29-.874-1.983l.849-.287q.374.798.873 1.959-.318.13-.848.311zm-4.298 1.448-.094 1.915h2.714q0 1.297-.05 2.339-.044 1.035-.137 1.809-.05.424-.131.586-.082.162-.244.312-.162.156-.411.274-.244.125-.53.162l-1.666.032-.144-.849h1.267q.68 0 .885-.468.206-.467.206-3.518h-1.834v.337h-.885l.168-3.586h2.576V4.63h-2.694v-.705h3.636V7.42zM143.245 14.587v-.799h3.724V10.32h-3.063v-.767h3.063v-2.75h-2.046q-.468 1.116-1.092 1.995l-.754-.393q.542-.792 1.06-2.077t.68-2.302l.98.144q-.188.842-.575 1.865h1.747V3.509h.992v2.526h3.193v.767h-3.193v2.75h2.894v.768h-2.894v3.468h3.468v.799zm-2.115.324V3.558h.917v11.353zm1.647-7.666-.405-1.715.73-.169.405 1.69zm-2.807 2.19-.804-.169q.355-1.372.442-3.48l.836.03q-.025.718-.174 1.89-.144 1.167-.3 1.728zM155.378 14.593l-.143-.805q.667-.018 2.463-.187v-1.129h-2.345v-.68h2.345v-.935h-2.058V7.039h2.058v-.823h-2.32v-.674h2.32v-.848q-1.222.08-2.07.106l-.131-.693q2.707-.056 4.846-.443l.3.705q-.724.138-2.046.256v.917h2.333v.674h-2.333v.823h2.058v3.818h-2.058v.935h2.245v.68h-2.245v1.042q1.59-.162 2.333-.275v.705q-.955.194-5.552.649zm4.435-6.918h-1.241v.98h1.241zm-2.09 0h-1.235v.98h1.235zm2.09 1.566h-1.241v.992h1.241zm-2.09 0h-1.235v.992h1.235zm-5.12-2.24-.562-.548q1.503-1.36 2.24-2.764l.847.287q-.392.736-1.153 1.64-.755.9-1.373 1.386zm8.788-2.32v-.705h2.576v.705zm-7.722 10.161V9.634q-.736.91-1.279 1.403l-.505-.53q.699-.673 1.466-1.765.767-1.092 1.216-2.071l.811.287q-.318.78-1.054 1.815h.268v6.07zm8.608-.037h-1.216l-.088-.755h.886q.212 0 .362-.118.156-.119.156-.3V7.937h-1.154V7.22h2.944v.717h-.86v5.876q0 .992-1.03.992zM171.465 5.592h-1.734q-.056 2.857-3.899 3.555l-.243-.66q1.578-.288 2.37-.968.799-.686.855-1.927h-2.67v1.16h-.867v-1.89h5.04V3.596h.992v1.266h5.196V6.66h-.873V5.592h-3.281v2.083q0 .181.1.3.106.112.274.156.175.043.574.043.717 0 .985-.018.275-.025.418-.219.15-.193.15-.923l.755.075v.836q0 .355-.237.586-.231.225-.53.287-.3.062-1.342.062-.736 0-1.129-.012-.386-.019-.648-.28-.256-.263-.256-.643zm-.593 5.838q-.655 1.304-2.189 2.265-1.528.954-3.25 1.204l-.287-.73q1.74-.33 3.07-1.18 1.328-.848 1.858-1.94h-4.878v-.804h5.134V8.991h1.004v1.254h5.315v.805h-5.09q1.416 2.14 5.015 3l-.406.767q-1.734-.355-3.175-1.253-1.434-.905-2.12-2.134z"/>
</symbol>
</defs>
<g fill="none">
<path d="M17.316 5.5h88.34" stroke="#000" stroke-dasharray="1.79999734,1.79999734" stroke-width=".3"/>
<g stroke="#ff0007" stroke-linejoin="round" color="#000">
<path d="M61.42 59.034c-6.055-14.51-12.807-28.933-22.343-40.584-5.774-6.975-13.28-13.027-21.76-12.95-4.522.04-8.746 1.798-12.578 4.494" stroke-miterlimit="100000"/>
<path d="M61.39 59.104c5.956-14.286 12.623-28.514 21.922-40.077 5.791-7.115 13.301-13.383 21.883-13.458 3.83-.035 7.46 1.18 10.823 3.166" marker-end="url(#a)" stroke-miterlimit="100000"/>
<path d="M61.42 59.034c3.777-7.354 8.017-14.344 13.018-20.562 5.792-7.116 13.302-13.384 21.883-13.458 8.48-.078 15.987 5.974 21.762 12.95" marker-end="url(#b)" stroke-dasharray="2.79999322, 2.79999322" stroke-miterlimit="100" stroke-width=".7"/>
</g>
</g>
<path d="M134.8 32.697h3.83v.768h-3.83v3.18h-.954V25.463h.954v1.503h3.662v.755H134.8v2.046h3.337v.767H134.8zm-7.778 1.005-.2-.799q1.354-.193 3.799-.624.018-.237.018-.667v-1.08h-3.318v-.766h3.318V27.72h-3.355v-.755h3.355v-1.41h.955v5.926q0 .312-.019.63.518-.093.998-.2v.718q-.368.1-1.085.25-.25 1.571-1.054 2.476-.799.898-2.165 1.403l-.418-.636q.817-.324 1.585-1.023.773-.699 1.066-2.021-1.603.306-3.48.624zM138.486 50.328q-1.497 2.65-3.705 4.354l-.68-.624q1.74-1.397 2.9-3.318l-6.35.948v3.917q0 .88.437 1.316.443.43 1.66.43h5.314v.924h-5.583q-2.888 0-2.888-2.595v-3.836l-2.657.399-.112-.917 2.819-.4v-2.9h1.085v2.751l7.118-.998zm.268-1.61-.717.294q-.418-.973-.892-1.722l.649-.312q.505.78.96 1.74zm-1.815.381-.717.324q-.456-1.035-.905-1.752l.674-.306q.555.86.948 1.734zM150.456 58.225h-9.955v-9.082h9.955zm-1.06-.873v-7.38h-7.86v7.38z"/>
<circle transform="rotate(-26.402)" cx="13.064" cy="12.626" r="5" color="#000" fill="#5e5bff"/>
<path d="M61.39 55.568h56.19" fill="none" marker-end="url(#c)" stroke="#ff0007" stroke-dasharray="2.79999322, 2.79999322" stroke-linejoin="round" stroke-miterlimit="100" stroke-width=".7"/>
<g color="#000">
<path d="m43.326 61.065 9.104-2.671-5.789-7.492 8.942 3.17-.263-9.45 5.364 7.798 5.364-7.799-.262 9.45 8.942-3.169-5.79 7.492 9.105 2.671-9.104 2.672 5.789 7.491-8.942-3.169.262 9.45-5.364-7.799-5.364 7.8.263-9.45-8.942 3.168 5.79-7.491z" fill="#f4ff00" stroke="#c2c216" stroke-miterlimit="5" style="isolation:auto;mix-blend-mode:normal"/>
<path fill="#cacaca" style="isolation:auto;mix-blend-mode:normal" d="M.5 62.076h204.655v17.708H.5z"/>
<path d="M.5 62.076h204.655" fill="none" stroke="#555" stroke-linejoin="round" stroke-miterlimit="100" stroke-width="3" style="isolation:auto;mix-blend-mode:normal"/>
</g>
<use width="100%" height="100%" fill="red" xlink:href="#d"/>
<use transform="translate(12.987 21.89)" width="100%" height="100%" xlink:href="#d"/>
<use transform="translate(25.705 44)" width="100%" height="100%" xlink:href="#d"/>
</svg>
