<svg width="172.422" height="118.62" viewBox="0 0 172.421 118.619" xmlns="http://www.w3.org/2000/svg">
<defs>
<marker id="d" overflow="visible" orient="auto">
<path d="m-4 0-2 2 7-2-7-2z" fill="green" fill-rule="evenodd" stroke="green" stroke-width=".4pt"/>
</marker>
<marker id="e" overflow="visible" orient="auto">
<path d="m-4 0-2 2 7-2-7-2z" fill="green" fill-rule="evenodd" stroke="green" stroke-width=".4pt"/>
</marker>
<marker id="b" overflow="visible" orient="auto">
<path d="m-4 0-2 2 7-2-7-2z" fill="red" fill-rule="evenodd" stroke="red" stroke-width=".4pt"/>
</marker>
<marker id="c" overflow="visible" orient="auto">
<path d="m-4 0-2 2 7-2-7-2z" fill="red" fill-rule="evenodd" stroke="red" stroke-width=".4pt"/>
</marker>
<marker id="a" overflow="visible" orient="auto">
<path d="m-4 0-2 2 7-2-7-2z" fill="red" fill-rule="evenodd" stroke="red" stroke-width=".4pt"/>
</marker>
</defs>
<path color="#000" fill="#dcdcdc" style="isolation:auto;mix-blend-mode:normal" d="M.5 12h171.421v106.119H.5z"/>
<g fill="none" stroke-linejoin="round" color="#000">
<path d="M.5 12h171.421" stroke="#555" stroke-miterlimit="100" stroke-width="3" style="isolation:auto;mix-blend-mode:normal"/>
<path d="M132.448 79.8H44.31M132.448 79.8V5.625" stroke="#000" stroke-dasharray="1.79999584, 1.79999584" stroke-width=".3" style="isolation:auto;mix-blend-mode:normal"/>
</g>
<circle transform="rotate(-26.402)" cx="37.132" cy="24.575" r="5" color="#000" fill="#5e5bff"/>
<g fill="none" stroke="red" stroke-linecap="round" color="#000">
<path d="M44.31 5.625 132.448 79.8" marker-end="url(#a)" stroke-width="2" style="isolation:auto;mix-blend-mode:normal"/>
<path d="M44.31 5.625h88.138" marker-end="url(#b)" style="isolation:auto;mix-blend-mode:normal"/>
<path d="M44.31 5.625V79.8" marker-end="url(#c)" style="isolation:auto;mix-blend-mode:normal"/>
</g>
<g fill="green" stroke-linejoin="round" stroke-miterlimit="100000" stroke-width="1.6">
<path d="M152.22 45.638h3.252c2.716 0 5.375-1.99 5.375-4.132 0-1.472-1.263-2.888-3.768-2.888h-6.198c-.363 0-.574 0-.574.364 0 .229.172.229.555.229.249 0 .593.02.822.038.306.039.421.096.421.306 0 .077-.019.134-.076.364l-2.563 10.272c-.192.746-.23.899-1.741.899-.325 0-.536 0-.536.363 0 .23.23.23.287.23.536 0 1.894-.058 2.43-.058.401 0 .822.02 1.224.02.42 0 .841.038 1.243.038.134 0 .383 0 .383-.383 0-.21-.173-.21-.536-.21-.708 0-1.243 0-1.243-.345 0-.114.038-.21.057-.325zm1.377-5.7c.172-.67.21-.727 1.033-.727h1.836c1.588 0 2.602.517 2.602 1.836 0 .746-.383 2.391-1.129 3.08-.956.86-2.104 1.014-2.945 1.014h-2.697zM164.074 34.251c0-.2 0-.509-.321-.509-.335 0-.335.335-.335.576v12.225c0 .241 0 .576.335.576.321 0 .321-.308.321-.51zm2.96.067c0-.24 0-.576-.336-.576-.321 0-.321.308-.321.51V46.61c0 .2 0 .509.321.509.335 0 .335-.335.335-.576zM80.884 106.968h3.252c2.716 0 5.375-1.99 5.375-4.132 0-1.473-1.263-2.888-3.769-2.888h-6.197c-.364 0-.574 0-.574.363 0 .23.172.23.555.23.248 0 .593.019.822.038.306.039.421.096.421.306 0 .077-.019.134-.076.364l-2.564 10.272c-.19.746-.23.899-1.74.899-.325 0-.536 0-.536.363 0 .23.23.23.287.23.536 0 1.894-.058 2.43-.058.401 0 .822.02 1.224.02.42 0 .841.038 1.243.038.134 0 .382 0 .382-.383 0-.21-.172-.21-.535-.21-.708 0-1.243 0-1.243-.345 0-.115.038-.21.057-.325zm1.377-5.7c.172-.67.21-.727 1.033-.727h1.836c1.588 0 2.602.516 2.602 1.836 0 .746-.383 2.391-1.129 3.08-.956.86-2.104 1.014-2.946 1.014H80.96zM96.286 96.345c0-.201 0-.522-.322-.522-.334 0-.334.308-.334.522v8.114h-4.084c-.201 0-.536 0-.536.321 0 .335.308.335.536.335h8.824c.214 0 .535 0 .535-.321 0-.335-.308-.335-.535-.335h-4.084z"/>
</g>
<path d="M141.578 67.544V19.822" fill="none" marker-end="url(#d)" stroke="green" stroke-width="2"/>
<path d="M113.211 89.023H65.489" fill="none" marker-end="url(#e)" stroke="green" stroke-width="2"/>
</svg>
