<svg width="167.611" height="117.673" viewBox="0 0 167.61 117.672" xmlns="http://www.w3.org/2000/svg">
<defs>
<marker id="a" overflow="visible" orient="auto">
<path d="m-4 0-2 2 7-2-7-2z" fill="red" fill-rule="evenodd" stroke="red" stroke-width=".4pt"/>
</marker>
</defs>
<path d="M167.11 51.46c-65.124 0-129.662 14.967-165.292 64.707H167.11z" color="#000" fill="#dcdcdc" style="isolation:auto;mix-blend-mode:normal"/>
<g fill="none">
<path d="M1.72 116.3c35.61-49.848 100.208-64.838 165.39-64.838" color="#000" stroke="#555" stroke-linejoin="round" stroke-miterlimit="100" stroke-width="3" style="isolation:auto;mix-blend-mode:normal"/>
<path d="m17.282 86.455 101.647-38.74M79.604 62.757l-4.378-11.54-11.488 4.398" stroke="#000"/>
<path d="M68.109 67.084 48.469 15.55" marker-end="url(#a)" stroke="red" stroke-width="2"/>
</g>
<g stroke-linejoin="round" stroke-miterlimit="100000">
<circle cx="68.106" cy="67.085" r="5" color="#000"/>
<path d="M71.992 5.223a.643.643 0 0 0 .095-.267c0-.134-.019-.153-.459-.153H58.43c-.44 0-.46.019-.46.153 0 .076.058.21.096.267l6.447 12.912c.134.249.19.363.516.363s.383-.114.517-.363zm-11.65.957h10.502L65.603 16.7zM87.49 4.573a.193.193 0 0 0-.21-.191c-.057 0-.076.019-.287.23l-1.339 1.472c-.172-.268-1.052-1.702-3.175-1.702-4.266 0-8.57 4.227-8.57 8.665 0 3.041 2.124 5.24 5.223 5.24.841 0 1.702-.171 2.39-.458.957-.383 1.32-.784 1.665-1.167.172.478.67 1.186.86 1.186.096 0 .134-.057.134-.077.039-.038.23-.765.326-1.166l.363-1.473c.076-.325.172-.65.249-.976.21-.86.23-.899 1.32-.918.095 0 .306-.019.306-.382 0-.134-.096-.21-.25-.21-.44 0-1.568.057-2.008.057-.593 0-2.085-.058-2.678-.058-.172 0-.401 0-.401.383 0 .21.153.21.574.21.019 0 .573 0 1.013.038.498.058.593.115.593.364 0 .172-.21 1.033-.401 1.74-.536 2.105-3.023 2.315-3.692 2.315-1.836 0-3.845-1.09-3.845-4.017 0-.593.192-3.749 2.2-6.236 1.033-1.3 2.888-2.467 4.782-2.467 1.951 0 3.08 1.473 3.08 3.691 0 .766-.058.785-.058.976 0 .191.21.191.287.191.249 0 .249-.038.344-.382z" fill="red"/>
</g>
</svg>
