<svg width="163.405" height="89.109" xmlns="http://www.w3.org/2000/svg">
<defs>
<marker id="a" overflow="visible" orient="auto">
<path d="m-4 0-2 2 7-2-7-2z" fill-rule="evenodd" stroke="#000" stroke-width=".4pt"/>
</marker>
</defs>
<g stroke-linejoin="round" stroke-miterlimit="100000">
<g stroke-width="1.5">
<path d="M98.237 7.117c.072-.251.072-.287.072-.412 0-.323-.251-.485-.52-.485a.779.779 0 0 0-.628.377c-.036.09-.18.646-.251.968-.126.467-.251.95-.359 1.435l-.807 3.228c-.071.269-.843 1.524-2.026 1.524-.915 0-1.112-.789-1.112-1.452 0-.825.305-1.937.915-3.515.287-.736.358-.933.358-1.291 0-.807-.574-1.47-1.47-1.47-1.704 0-2.367 2.6-2.367 2.76 0 .18.179.18.215.18.18 0 .197-.036.287-.323.484-1.685 1.201-2.223 1.811-2.223.143 0 .448 0 .448.573 0 .449-.179.915-.305 1.256-.717 1.9-1.04 2.923-1.04 3.766 0 1.596 1.13 2.134 2.188 2.134.7 0 1.31-.305 1.811-.807-.233.932-.448 1.81-1.165 2.761-.466.61-1.148 1.13-1.973 1.13-.25 0-1.058-.054-1.363-.753.287 0 .52 0 .771-.215.18-.162.359-.395.359-.736 0-.555-.484-.627-.663-.627-.413 0-1.005.287-1.005 1.165 0 .897.79 1.56 1.901 1.56 1.847 0 3.694-1.631 4.196-3.658zM115.994 8.139c.251-.108.359-.233.359-.395 0-.179-.072-.286-.359-.412l-9.88-4.663c-.252-.125-.324-.125-.36-.125a.349.349 0 0 0-.358.359c0 .215.143.304.34.394l9.415 4.43-9.379 4.429c-.358.161-.376.305-.376.412a.36.36 0 0 0 .358.359c.054 0 .09 0 .323-.126zm-.269 8.267c.305 0 .628 0 .628-.359 0-.358-.377-.358-.646-.358h-9.666c-.269 0-.645 0-.645.358 0 .359.323.359.627.359zM129.364 6.777h1.542c.359 0 .538 0 .538-.359 0-.197-.18-.197-.484-.197h-1.488l.376-2.044c.072-.377.323-1.65.43-1.865.162-.341.467-.61.843-.61.072 0 .538 0 .88.323-.79.072-.97.7-.97.968 0 .413.324.628.664.628.467 0 .987-.395.987-1.076 0-.825-.825-1.237-1.56-1.237-.61 0-1.74.322-2.278 2.098-.108.376-.161.556-.592 2.815h-1.237c-.34 0-.538 0-.538.34 0 .216.161.216.502.216h1.184l-1.345 7.083c-.323 1.74-.628 3.372-1.56 3.372-.072 0-.52 0-.861-.323.825-.054.986-.7.986-.968 0-.413-.323-.628-.664-.628-.466 0-.986.395-.986 1.076 0 .807.79 1.237 1.524 1.237.987 0 1.704-1.058 2.027-1.74.574-1.129.986-3.299 1.004-3.424zM142.385 18.254c0-.054 0-.09-.305-.395-2.241-2.259-2.815-5.648-2.815-8.392 0-3.12.681-6.24 2.887-8.482.233-.215.233-.251.233-.305 0-.126-.072-.18-.18-.18-.179 0-1.793 1.22-2.85 3.497-.915 1.973-1.13 3.964-1.13 5.47 0 1.399.197 3.569 1.183 5.595 1.076 2.206 2.618 3.371 2.798 3.371.107 0 .179-.054.179-.179zM149.412 8.534c.108-.466.52-2.116 1.775-2.116.09 0 .52 0 .897.233-.502.09-.86.538-.86.968 0 .287.196.628.68.628a1 1 0 0 0 .969-1.04c0-.933-1.058-1.184-1.668-1.184-1.04 0-1.667.95-1.883 1.363-.448-1.183-1.416-1.363-1.936-1.363-1.865 0-2.888 2.314-2.888 2.762 0 .18.18.18.216.18.143 0 .197-.036.233-.198.61-1.9 1.793-2.35 2.403-2.35.34 0 .968.162.968 1.202 0 .556-.305 1.758-.968 4.268-.287 1.112-.915 1.865-1.704 1.865-.107 0-.52 0-.897-.233.449-.09.843-.466.843-.968 0-.484-.394-.628-.663-.628-.538 0-.986.467-.986 1.04 0 .825.896 1.184 1.685 1.184 1.184 0 1.83-1.255 1.883-1.363.215.664.86 1.363 1.937 1.363 1.847 0 2.87-2.313 2.87-2.762 0-.179-.162-.179-.216-.179-.161 0-.197.072-.233.197-.592 1.919-1.811 2.35-2.385 2.35-.7 0-.987-.574-.987-1.184 0-.395.108-.79.305-1.578zM158.816 9.467c0-1.399-.197-3.569-1.184-5.595-1.076-2.206-2.618-3.371-2.797-3.371-.108 0-.18.071-.18.179 0 .054 0 .09.341.412 1.758 1.776 2.78 4.627 2.78 8.375 0 3.066-.664 6.223-2.887 8.482-.233.215-.233.251-.233.305 0 .108.071.18.179.18.18 0 1.793-1.22 2.851-3.498.915-1.972 1.13-3.963 1.13-5.469z"/>
</g>
<path d="M.5 88.609V32.763l1.64-.04 1.64.343 1.641.749 1.64 1.152 1.641 1.523 1.64 1.832 1.641 2.059 1.64 2.184 1.641 2.2 1.64 2.102 1.641 1.898 1.64 1.601 1.64 1.23 1.641.812 1.64.373 1.641-.056 1.64-.444 1.641-.767 1.64-1.002 1.641-1.134 1.64-1.154 1.641-1.062 1.64-.866 1.64-.58 1.641-.227 1.64.17 1.641.578 1.64.972 1.641 1.318 1.64 1.594 1.641 1.777 1.64 1.856 1.641 1.822 1.64 1.676 1.641 1.43 1.64 1.097 1.64.702 1.641.27 1.64-.166 1.641-.581 1.64-.945 1.641-1.23 1.64-1.423 1.641-1.505 1.64-1.477 1.641-1.337 1.64-1.1 1.64-.782 1.641-.405h1.64l1.641.405 1.64.782 1.641 1.1 1.64 1.337 1.641 1.477 1.64 1.505 1.641 1.423 1.64 1.23 1.64.945 1.641.581 1.64.167 1.641-.271 1.64-.702 1.641-1.097 1.64-1.43 1.641-1.676 1.64-1.822 1.641-1.856 1.64-1.777 1.64-1.594 1.641-1.318 1.64-.972 1.641-.579 1.64-.17 1.641.227 1.64.58 1.641.867 1.64 1.062 1.641 1.154 1.64 1.134 1.64 1.002 1.641.767 1.64.444 1.641.056 1.64-.373 1.641-.811 1.64-1.23 1.641-1.602 1.64-1.898 1.641-2.103 1.64-2.2 1.641-2.183 1.64-2.059 1.64-1.832 1.641-1.523 1.64-1.152 1.641-.75 1.64-.341 1.641.04v55.845z" clip-path="url(#p825fbd034e)" color="#000" fill="#cacaca" style="isolation:auto;mix-blend-mode:normal"/>
</g>
<path d="m3.365 31.474-1.615.04-1.25.03.06 2.5 1.25-.03 1.47-.036 1.331.281 1.381.64 1.451 1.036 1.51 1.426 1.553 1.761 1.582 2.016 1.603 2.168 1.614 2.2a1.25 1.25 0 0 0 .015.02l1.615 2.102a1.25 1.25 0 0 0 .04.05l1.613 1.898a1.25 1.25 0 0 0 .072.078l1.615 1.6a1.25 1.25 0 0 0 .123.107l1.614 1.23a1.25 1.25 0 0 0 .197.123l1.613.81a1.25 1.25 0 0 0 .281.102L25.72 54a1.25 1.25 0 0 0 .324.032l1.613-.057a1.25 1.25 0 0 0 .29-.043l1.615-.445a1.25 1.25 0 0 0 .203-.077l1.615-.765a1.25 1.25 0 0 0 .123-.069l1.615-1.002a1.25 1.25 0 0 0 .059-.039l1.615-1.132a1.25 1.25 0 0 0 .008-.006l1.596-1.141 1.547-1.018 1.484-.797 1.406-.505 1.334-.188 1.313.139 1.357.486 1.432.861 1.5 1.225 1.549 1.527 1.582 1.745 1.605 1.845a1.25 1.25 0 0 0 .008.008l1.615 1.823a1.25 1.25 0 0 0 .036.037l1.613 1.677a1.25 1.25 0 0 0 .072.069l1.615 1.43a1.25 1.25 0 0 0 .125.097l1.616 1.098a1.25 1.25 0 0 0 .203.111l1.615.703a1.25 1.25 0 0 0 .29.086l1.616.272a1.25 1.25 0 0 0 .336.01l1.613-.166a1.25 1.25 0 0 0 .295-.069l1.616-.58a1.25 1.25 0 0 0 .207-.098l1.615-.945a1.25 1.25 0 0 0 .127-.084l1.615-1.23a1.25 1.25 0 0 0 .068-.057l1.614-1.422a1.25 1.25 0 0 0 .027-.023l1.61-1.502 1.587-1.451 1.545-1.282 1.49-1.015 1.416-.686 1.34-.336h1.307l1.34.336 1.416.686 1.49 1.015 1.545 1.282 1.588 1.45 1.61 1.503a1.25 1.25 0 0 0 .026.023l1.616 1.422a1.25 1.25 0 0 0 .068.057l1.613 1.23a1.25 1.25 0 0 0 .127.084l1.616.945a1.25 1.25 0 0 0 .207.098l1.615.58a1.25 1.25 0 0 0 .295.069l1.613.166a1.25 1.25 0 0 0 .336-.01l1.615-.272a1.25 1.25 0 0 0 .291-.086l1.615-.703a1.25 1.25 0 0 0 .204-.111l1.615-1.098a1.25 1.25 0 0 0 .125-.098l1.615-1.43a1.25 1.25 0 0 0 .072-.068l1.616-1.677a1.25 1.25 0 0 0 .033-.037l1.615-1.823a1.25 1.25 0 0 0 .008-.008l1.605-1.845 1.584-1.745 1.547-1.527 1.5-1.225 1.432-.86 1.357-.487 1.313-.139 1.334.188 1.406.505 1.485.797 1.546 1.018 1.596 1.14a1.25 1.25 0 0 0 .008.007l1.615 1.132a1.25 1.25 0 0 0 .059.04l1.615 1.001a1.25 1.25 0 0 0 .123.069l1.615.765a1.25 1.25 0 0 0 .204.077l1.615.445a1.25 1.25 0 0 0 .289.043l1.615.057a1.25 1.25 0 0 0 .324-.032l1.614-.373a1.25 1.25 0 0 0 .28-.101l1.614-.81a1.25 1.25 0 0 0 .197-.124l1.614-1.23a1.25 1.25 0 0 0 .123-.108l1.615-1.6a1.25 1.25 0 0 0 .072-.077l1.614-1.899a1.25 1.25 0 0 0 .039-.049l1.615-2.101a1.25 1.25 0 0 0 .015-.022l1.614-2.199 1.603-2.168 1.582-2.016 1.553-1.761 1.51-1.426 1.451-1.035 1.38-.64 1.333-.282 1.469.035 1.25.031.06-2.5-1.25-.03-1.615-.04a1.25 1.25 0 0 0-.29.027l-1.612.342a1.25 1.25 0 0 0-.268.09l-1.615.748a1.25 1.25 0 0 0-.2.117l-1.615 1.152a1.25 1.25 0 0 0-.13.108l-1.616 1.523a1.25 1.25 0 0 0-.08.082L151 37.495a1.25 1.25 0 0 0-.045.055l-1.615 2.059a1.25 1.25 0 0 0-.022.029l-1.613 2.184a1.25 1.25 0 0 0-.004.004l-1.606 2.189-1.587 2.066-1.561 1.834-1.52 1.506-1.457 1.112-1.376.691-1.31.303-1.302-.045-1.367-.377-1.451-.69-1.526-.947-1.582-1.11-1.609-1.15a1.25 1.25 0 0 0-.041-.027l-1.613-1.062a1.25 1.25 0 0 0-.098-.059l-1.613-.865a1.25 1.25 0 0 0-.168-.074l-1.615-.582a1.25 1.25 0 0 0-.25-.061l-1.614-.227a1.25 1.25 0 0 0-.304-.006l-1.616.17a1.25 1.25 0 0 0-.29.067l-1.614.58a1.25 1.25 0 0 0-.223.105l-1.615.971a1.25 1.25 0 0 0-.146.104l-1.616 1.316a1.25 1.25 0 0 0-.085.08l-1.616 1.594a1.25 1.25 0 0 0-.047.049l-1.615 1.777a1.25 1.25 0 0 0-.017.02l-1.612 1.851-1.593 1.799-1.561 1.62-1.518 1.345-1.453.986-1.365.596-1.297.217-1.295-.135-1.363-.49-1.45-.848-1.517-1.158-1.568-1.381-1.602-1.492a1.25 1.25 0 0 0-.01-.01L89.811 52.5a1.25 1.25 0 0 0-.045-.04l-1.615-1.337a1.25 1.25 0 0 0-.094-.07l-1.613-1.1a1.25 1.25 0 0 0-.16-.092l-1.616-.78a1.25 1.25 0 0 0-.24-.089l-1.613-.406a1.25 1.25 0 0 0-.305-.037h-1.615a1.25 1.25 0 0 0-.305.037l-1.613.406a1.25 1.25 0 0 0-.24.088l-1.615.781a1.25 1.25 0 0 0-.159.092l-1.615 1.1a1.25 1.25 0 0 0-.094.07l-1.615 1.338a1.25 1.25 0 0 0-.045.039l-1.615 1.477a1.25 1.25 0 0 0-.01.01l-1.601 1.492-1.569 1.38-1.517 1.159-1.45.848-1.363.49-1.295.135-1.297-.217-1.365-.596-1.453-.986-1.516-1.344-1.562-1.621-1.594-1.799-1.611-1.852a1.25 1.25 0 0 0-.018-.02l-1.615-1.776a1.25 1.25 0 0 0-.047-.05l-1.615-1.593a1.25 1.25 0 0 0-.086-.08l-1.615-1.316a1.25 1.25 0 0 0-.147-.104l-1.615-.97a1.25 1.25 0 0 0-.22-.106l-1.616-.58a1.25 1.25 0 0 0-.291-.067l-1.615-.17a1.25 1.25 0 0 0-.305.006l-1.613.227a1.25 1.25 0 0 0-.25.06l-1.615.583a1.25 1.25 0 0 0-.168.074l-1.614.865a1.25 1.25 0 0 0-.097.059L35 47.18a1.25 1.25 0 0 0-.04.027l-1.61 1.15-1.582 1.11-1.524.947-1.453.69-1.367.377-1.303.045-1.308-.303-1.377-.691-1.457-1.112-1.52-1.506-1.56-1.834-1.588-2.066-1.606-2.19a1.25 1.25 0 0 0-.002-.003l-1.615-2.184a1.25 1.25 0 0 0-.021-.03L12.45 37.55a1.25 1.25 0 0 0-.044-.055l-1.616-1.832a1.25 1.25 0 0 0-.08-.082l-1.615-1.523a1.25 1.25 0 0 0-.13-.108L7.35 32.798a1.25 1.25 0 0 0-.2-.117l-1.615-.748a1.25 1.25 0 0 0-.267-.09l-1.613-.342a1.25 1.25 0 0 0-.29-.027z" clip-path="url(#p825fbd034e)" color="#000" fill="#555" style="isolation:auto;mix-blend-mode:normal;text-decoration-color:#000;text-decoration-line:none;text-decoration-style:solid;text-indent:0;text-transform:none;white-space:normal"/>
<path d="M43.017 15.64 56.72 35.99" color="#000" fill="none" marker-end="url(#a)" stroke="#000" style="isolation:auto;mix-blend-mode:normal"/>
<circle transform="rotate(-11.402)" cx="39.076" cy="23.836" r="5" color="#000" fill="#5e5bff"/>
</svg>
