<svg width="184.064" height="126.264" xmlns="http://www.w3.org/2000/svg" xmlns:xlink="http://www.w3.org/1999/xlink">
<defs>
<marker id="a" overflow="visible" orient="auto">
<path d="m-10 0-4 4L0 0l-14-4 4 4z" fill="green" fill-rule="evenodd" stroke="green" stroke-width=".8pt"/>
</marker>
<marker id="c" overflow="visible" orient="auto">
<path d="m-10 0-4 4L0 0l-14-4z" fill-rule="evenodd" stroke="#000" stroke-width=".8pt"/>
</marker>
<marker id="b" overflow="visible" orient="auto">
<path d="m-10 0-4 4L0 0l-14-4z" fill="red" fill-rule="evenodd" stroke="red" stroke-width=".8pt"/>
</marker>
<symbol id="d">
<path d="M148.422 17.874c0-1.801-1.326-1.801-1.346-1.801-.791 0-1.504.831-1.504 1.504 0 .554.416.792.594.89.831.496.99.852.99 1.248 0 .435-1.149 4.77-3.464 4.77-1.425 0-1.425-1.188-1.425-1.544 0-1.148.554-2.593 1.187-4.176.159-.396.218-.574.218-.891 0-1.148-1.148-1.781-2.236-1.781-2.098 0-3.088 2.691-3.088 3.087 0 .277.297.277.475.277.238 0 .376 0 .455-.257.634-2.137 1.683-2.395 2.039-2.395.138 0 .336 0 .336.416 0 .455-.237 1.029-.297 1.187-.91 2.296-1.207 3.187-1.207 4.137 0 2.098 1.702 2.652 3.424 2.652 3.404 0 4.849-5.62 4.849-7.323z" stroke-width="1.649"/>
</symbol>
</defs>
<g fill="none" color="#000">
<g stroke="#000">
<path d="m117.397 76.95-14.841-2.907m32.577 6.381-17.736-3.474m39.304 7.7-21.568-4.226m48.363 9.474L156.7 84.65m-67.655-8.131 13.51-2.476m1.293 5.87 13.548-2.963m4.414 7.08 13.322-3.606m8.932 8.708 12.636-4.482m15.656 10.969 11.139-5.72m-79.647-9.987L89.046 76.52m32.765 7.511-17.962-4.118m40.216 9.22L121.81 84.03m50.546 11.589-28.292-6.487m-70.805-9.72 15.786-2.893m-1.269 6.908 16.072-3.515m1.867 8.475 16.095-4.357m6.635 10.643 15.619-5.54m14.12 13.764 14.172-7.278m-84.58-12.192L73.26 79.412m32.456 8.975-17.939-4.96m40.67 11.246-22.731-6.286m52.468 14.51-29.738-8.224M54.57 82.837l18.69-3.425m-4.854 8.25 19.372-4.235m-1.897 10.33 19.836-5.37m2.932 13.31 19.798-7.024m11.096 17.798 18.642-9.574M32.09 86.957l12.508 5.911 16.23 7.67 21.906 10.353 31.186 14.738M68.405 87.663l-13.836-4.826m31.311 10.92-17.475-6.094m40.243 14.034-22.768-7.94m53.662 18.714-30.894-10.774M32.09 86.957l22.479-4.12m-9.971 10.031 23.807-5.205m-7.577 12.875 25.052-6.781m-3.146 17.134 25.914-9.194m5.272 23.932 25.622-13.158" stroke-linecap="round" stroke-width=".3"/>
<path d="M138.262 93.053v-60.25M31.613 33.564l106.649-.761" stroke-dasharray="2.8, 2.8" stroke-width=".7"/>
</g>
<path d="M31.613 86.948V8.731" marker-end="url(#a)" stroke="green" stroke-width=".8"/>
<g stroke-linecap="round">
<path d="M31.613 86.948V33.564" marker-end="url(#b)" stroke="red"/>
<path d="m31.613 86.948 106.649 6.105" marker-end="url(#b)" stroke="red"/>
<path d="m31.613 86.948 106.649-54.145" marker-end="url(#c)" stroke="#000"/>
</g>
</g>
<path d="M17.569 30.851c0-.211 0-.501-.304-.501-.303 0-.303.29-.303.514V38.9h-3.853c-.224 0-.515 0-.515.303s.29.303.515.303h8.325c.212 0 .502 0 .502-.303s-.29-.303-.502-.303H17.57zM160.74 63.775c0-.211 0-.488-.303-.488s-.304.33-.304.54V75.94c0 .211 0 .541.304.541s.303-.277.303-.488zm2.797.053c0-.211 0-.541-.303-.541-.304 0-.304.277-.304.488v12.218c0 .211 0 .488.304.488.303 0 .303-.33.303-.54z" fill="red"/>
<path d="M109.729 109.52a.559.559 0 0 0-.373-.003c-.081.033-.079.047-.005.233l.32.76c-1.348-.188-2.702-.03-3.802.413-2.19.884-2.064 2.705.37 3.748 1.668.715 3.575.713 4.789.45l2.445-.575c.822-.202 2.07-.487 3.836.225 1.979.797 2.71 2.311 1.026 3.119a7.783 7.783 0 0 1-6.376.065c-.527-.228-.96-.496-1.073-.561-.069-.046-.073-.063-.116-.082a.523.523 0 0 0-.455-.005c-.091.04-.106.067-.095.12.014.07 4.08 2.776 4.15 2.806.138.06.322.057.432.004.091-.044.086-.063-.016-.31l-.41-.99c2.093.2 3.62-.244 4.634-.734 2.327-1.125 1.296-3.264-1.41-4.34a9.134 9.134 0 0 0-3.298-.63c-.866-.024-1.202.053-3.194.516-.503.113-1.334.296-1.532.347-.657.126-1.85.132-2.927-.324-1.62-.684-1.888-1.957-.255-2.62 1.403-.57 3.258-.65 5.483.233.646.256.946.429 1.068.477.02.008.204.081.402-.004.165-.07.12-.101-.16-.266l-3.458-2.072"/>
<g fill="green">
<path d="m43.713 2.59 5.203 2.354.23-.421-5.414-3.06-5.413 3.06.21.42zM42.263 8.767c-.268-.956-1.32-1.454-2.353-1.454-.707 0-1.243.402-1.664 1.09-.478.766-.727 1.799-.727 1.894 0 .268.287.268.46.268.21 0 .286 0 .382-.095.038-.039.038-.077.153-.555.383-1.492.803-1.913 1.3-1.913.288 0 .44.191.44.708 0 .325-.076.631-.267 1.396-.134.536-.325 1.3-.421 1.722l-.689 2.678c-.057.267-.153.63-.153.765 0 .401.307.841.9.841.994 0 1.224-.88 1.358-1.453.19-.708.344-1.32.535-2.143.077-.248.555-2.219.593-2.276.02-.115.555-.976 1.186-1.492.536-.42 1.167-.746 1.97-.746.498 0 .957.191.957 1.129 0 1.09-.842 3.328-1.205 4.284-.21.517-.268.65-.268.976 0 1.11 1.11 1.721 2.161 1.721 2.028 0 2.984-2.601 2.984-2.984 0-.267-.287-.267-.459-.267-.23 0-.363 0-.44.248-.63 2.124-1.664 2.315-1.97 2.315-.134 0-.325 0-.325-.402 0-.44.191-.918.383-1.396.306-.785 1.186-3.023 1.186-4.094 0-1.76-1.473-2.219-2.85-2.219-.402 0-1.799 0-3.157 1.454z"/>
</g>
<use width="100%" height="100%" xlink:href="#d"/>
<use transform="translate(-137.849 22.639)" width="100%" height="100%" fill="red" xlink:href="#d"/>
<use transform="translate(8.676 56.316)" width="100%" height="100%" fill="red" xlink:href="#d"/>
</svg>
