<svg width="240.647" height="134.216" xmlns="http://www.w3.org/2000/svg">
<defs>
<marker id="a" overflow="visible" orient="auto">
<path d="m-10 0-4 4L0 0l-14-4z" fill-rule="evenodd" stroke="#000" stroke-width=".8pt"/>
</marker>
</defs>
<g fill="none">
<g stroke="#000">
<path d="m61.575 96.566 1.182-.021.176 3.662m-1.699-7.856 1.308-.023.215 4.217m-.678-8.214.245-.005.218 4.001m-.251-4.577.033.575m.218 4.002 2.853-.176.553 4.193-3.191.2m-.433-8.218 2.459-.15.03-.002.582 3.977m-.583-3.977 2.45-.255.94 3.934-2.807.298m-1.208-7.69h.021l.593 3.64.011.074m-.607-3.735.004.02m0 0c.69-.07 1.379-.142 2.068-.213l.985 3.672m-1.464-5.26.48 1.588m-2.943 16.658 3.13-.199.441 4.176m-.958-8.537.516 4.361m1.738-8.852.885 4.153-3.139.338m3.139-.338.816 4.322-3.439.377m3.439-.377.738 4.441-3.386.377m3.386-.377.335 2.318m-.335-2.318 3.598-.575.72 3.693m-.72-3.693 3.45-.732 1.018 4.163m-8.804-7.297 3.341-.525.995 4.39m-5.152-8.187 3.05-.472c.39 1.499.771 2.972 1.107 4.269m0 0 3.206-.668 1.238 4.327m-5.55-7.928 2.93-.6 1.382 4.201m-8.248-7.282 2.731-.415 1.205 4.096m-4.876-7.616 2.384-.357 1.287 3.876m0 0 2.624-.528c.501 1.336 1.029 2.74 1.51 4.025m-5.421-7.373 2.292-.454 1.619 3.802m-7.28-6.663 2.015-.297 1.354 3.612m-2.403-6.086 1.049 2.474m0 0 1.938-.377 1.708 3.535M68.6 80.602l1.63 2.97m3.327 7.338 2.489-.633 1.798 3.938-2.776.72m-3.13-7.827 2.176-.544 1.932 3.713m-1.932-3.713 2.038-.63 2.221 3.61-2.327.733m-5.816-6.704 1.843-.454 2.041 3.445m-4.422-6.524.256-.062 2.125 3.14 1.727-.524 2.352 3.34m-6.204-5.956 1.4-.419c.887 1.098 1.69 2.09 2.452 3.035m-3.883-2.655.031.04m1.283-.545.117.125m6.34 23.904 3.265-.877 1.147 3.91m-1.147-3.91 3.044-1.012 1.045 3.066m-8.592-5.504 3.037-.801 1.466 4.251m-3.109-8.37 1.643 4.119m-1.114-8.79 2.065 3.839-2.594.831m2.594-.831 1.882 4.026-2.833.925m2.833-.925 1.677 4.164 2.792-1.134.657 1.699m-.657-1.7 2.364-1.168M82.32 97.41l2.602-1.037 1.867 4.067m-6.35-7.056 2.384-.932 2.099 3.921 2.343-1.135 1.978 3.848m-6.42-6.634 2.151-1.022 2.291 3.808m-8.892-5.694 2.143-.821 2.265 3.661.042.068m-6.671-6.518 1.879-.707 2.485 3.496m0 0 1.936-.902 2.467 3.53.055.08m-6.943-6.204 1.68-.767.02-.01 2.721 3.372m-8.651-5.228 1.595-.59 2.635 3.223m-6.683-5.668 1.296-.47 2.752 2.915m0 0 1.446-.648 2.89 3.094m-7.088-5.362.201-.088m1.225-.199 2.772 2.555m-4.237-2.303.038.035m4.2 2.268 1.284-.7 3.111 2.957c-.502.28-1.004.558-1.507.837m-4.035-5.767 2.431 1.974m-.403-1.836 1.514 1.093-1.111.743m9.138 14.58 2.065-1.22.906 1.6m-5.262-4.187 1.899-1.099 2.457 3.686m0 0 1.105-.808m-3.562-2.878 1.502-1.074.126-.09 1.812 2.485.016.021m-7.877-3.852 1.713-.97 2.708 3.48m-5.635-6.718 2.927 3.238m-4.927-6.937 3.3 2.811-1.3.888m1.3-.888 3.098 3.097-1.471 1.028m1.471-1.028 2.801 3.27.064.075m0 0 1.023-.925m-3.888-2.42 1.22-1.076c.768.822 1.506 1.615 2.173 2.33m-6.492-4.35 1.081-.93 3.239 2.95m0 0 .434-.502m-3.673-2.448.481-.542m-4.861-1.34.74-.621m.698.236 2.942 2.267M120.66 44.559h.004l.367-.074.249.835m-.25-.835 1.835-.39.818 2.59-.526.112m.526-.112.133.437m5.35-1.758-.943-2.553 1.735-.465.982 2.54-1.774.479m1.774-.479.532 1.423v.004m-1.643.912-.664-1.86m-6.3-1.27 1.81-.409.86 2.578-1.853.42m4.54-3.873-1.76.447-1.787.428m4.49 1.679-1.802.459-.902-2.566m-.926 3.006.466 1.445.004.012m1.358-1.897-1.828.44m2.467 1.44-.003-.01-.635-1.87m-7.897-3.76.771-.154.793 2.575m-.793-2.575 1.79-.379.837 2.564m-3.636-4.694.198-.04.811 2.549m-.952-2.98.141.432m2.6 2.169 1.768-.398.88 2.553m-5.248-4.324 1.745-.368.856 2.537m-1.983-4.992c.084-.019.169-.036.253-.054l.874 2.508m-.965-2.761.091.253m7.926 6.323-.965-2.528 1.693-.453 1.007 2.515m-3.496.912-.923-2.54 1.719-.434m-3.463.85 1.744-.416m-4.368-1.723 1.723-.386.9 2.525m3.464-.85-.987-2.5 1.65-.44 1.03 2.487m-3.412.887-.944-2.513 1.676-.422m-3.377.826 1.7-.404m-4.296-1.718 1.677-.375.92 2.497m3.376-.826-1.008-2.47 1.607-.426 1.052 2.457m-3.327.86-.964-2.483 1.632-.409m-3.288.8 1.656-.391m-2.217-1.085.561 1.477m4.895-1.226-1.072-2.426-.028-.06m-.507 2.911-1.029-2.44 1.563-.411m-1.563.411-.027-.062m-.577 2.91c-.29-.72-.606-1.511-.876-2.184m1.055-.558.425-.106m3.687 4.472 1.625-.455 1.071 2.473-1.666.47m-2.081-4.945 1.582-.442 1.094 2.444m-3.749-4.428.403-.112m1.275-.016.977 2.112m0 0 1.493-.44.063-.018 1.135 2.43-1.597.472m-.156-4.179.618 1.277 1.225-.38m.545.403.934 1.917-1.569.49m2.21-.7-.64.21m-2.096 3.434 1.047 2.501-1.707.484m1.187-5.931 1.111 2.46-1.638.486m2.096-3.435 1.151 2.444-1.609.504m2.198-.697-.589.194m-2.2 3.491 1.022 2.528-1.746.496m1.315-6.012 1.086 2.487-1.677.501m2.2-3.491.82 1.801m-.052.784-1.29.405m-.656 3.029.229.586m.426-3.615.727 1.721m-.561 1.061-.821.247" color="#000" stroke-width=".1"/>
<g stroke-linejoin="round">
<path d="m90.31 45.279 2.936-.054.435 9.085m-4.214-19.49 3.244-.059c.179 3.488.356 6.976.536 10.464m-1.685-20.382.516-.009.093-.002.54 9.93m-.625-11.356c.026.476.055.951.084 1.426m.54 9.93 7.085-.437 1.373 10.405-7.923.495M92.17 24.833l6.105-.372.074-.004 1.446 9.868m-1.446-9.868 6.082-.635 2.335 9.764-6.971.739m-2.999-19.082.053-.003 1.5 9.217m-1.51-9.27.01.053m0 0 5.137-.528 2.445 9.11m-3.634-13.05 1.19 3.94m-7.31 41.333 7.774-.493 1.097 10.363m-2.38-21.185 1.283 10.822m4.315-21.966 2.195 10.305-7.793.839m7.793-.84 2.027 10.728c-2.846.31-5.691.622-8.537.934m8.537-.934c.612 3.672 1.221 7.346 1.834 11.018l-8.409.936m8.409-.936.831 5.75m-.831-5.75 8.932-1.427 1.787 9.162m-1.787-9.162 8.566-1.815 2.529 10.328m-21.86-18.104 8.296-1.304 2.47 10.895M108.961 43.89l7.576-1.17 2.747 10.593m0 0 7.961-1.657 3.074 10.737M116.538 42.72l7.274-1.488 3.434 10.424m-20.48-18.07 6.78-1.03.067.223 2.925 9.941m-12.106-18.898 5.918-.885c1.066 3.206 2.13 6.413 3.197 9.619l6.514-1.31 3.751 9.986M110.35 22.937l5.692-1.126 4.02 9.435m-18.075-16.534 5.002-.737 3.361 8.962m-5.967-15.102 2.606 6.14 4.813-.938 4.24 8.774m-8.288-16.145 4.048 7.372m8.26 18.208 6.18-1.573 4.466 9.773-6.896 1.786m-7.77-19.42 5.403-1.353c1.6 3.071 3.198 6.143 4.797 9.214m-4.797-9.214 5.06-1.563 5.516 8.96-5.78 1.817m-14.439-16.635 4.575-1.127 5.068 8.548M110.474 4.27l.627-.152 5.135 7.585.141.208 4.29-1.302 5.838 8.287M111.1 4.118l3.476-1.039 6.09 7.53m-9.64-6.586.073.095m3.188-1.348.289.309m15.742 59.315 8.107-2.177 2.847 9.696m-2.847-9.696 7.558-2.512 2.595 7.606m-21.334-13.655 7.392-1.949.148-.039 3.641 10.549m-7.719-20.771 4.078 10.222m-2.765-21.813c1.71 3.176 3.418 6.353 5.128 9.528l-6.44 2.063m6.44-2.063 4.672 9.99-7.035 2.295m7.035-2.295 4.164 10.332 6.932-2.814 1.63 4.213m-1.63-4.213 5.868-2.899m-16.964-4.62 6.46-2.571 4.636 10.09m-15.769-17.508 5.922-2.312 5.212 9.73 5.818-2.818 4.885 9.501.023.045m-15.938-16.458 5.341-2.536c1.897 3.15 3.792 6.299 5.69 9.448m-22.08-14.128 5.32-2.038 5.729 9.254m-16.565-16.175 4.665-1.754 6.172 8.675 4.807-2.237 6.262 8.955m-17.24-15.393 4.17-1.904.052-.023 6.756 8.365m-21.482-12.971 3.96-1.464 6.543 7.997M114.577 3.079l3.216-1.168 6.833 7.234 3.592-1.608 7.174 7.678m-17.6-13.304.499-.22m3.047-.492 6.88 6.338m-10.52-5.712.095.086m10.425 5.626 3.19-1.735 7.726 7.336-3.742 2.077M125.372.905l6.036 4.897m-1.004-4.557 3.762 2.714-2.758 1.843m22.691 36.18 5.126-3.028 2.25 3.97M148.41 32.535l4.714-2.727 6.101 9.146 2.745-2.007m-8.846-7.139 4.042-2.889 4.54 6.219m-19.557-9.558 4.251-2.409 6.725 8.637m-13.991-16.67 7.17 7.928.096.105M134.167 3.96l8.192 6.976c-1.075.734-2.15 1.47-3.225 2.203m3.225-2.203 7.696 7.683-3.655 2.553m3.655-2.553 7.111 8.301 2.539-2.292m-9.65-6.009 3.03-2.669 5.39 5.777M142.36 10.935l2.685-2.306 8.041 7.32 1.077-1.247m-9.118-6.073 1.194-1.343m-12.071-3.327 1.839-1.542m1.737.591 7.2 5.544.1.077M169.314 115.772l1.852-.37 1.242 4.168m-1.242-4.167 9.19-1.954 4.1 12.978-2.622.56m2.623-.56.671 2.196m26.81-8.813-4.724-12.799c2.898-.777 5.795-1.556 8.693-2.332l4.926 12.735-8.895 2.396m8.895-2.396 2.672 7.15m-8.24 4.573-3.327-9.326m-31.582-6.362c3.026-.683 6.05-1.368 9.076-2.05l4.312 12.92-9.287 2.109m22.757-19.416a885.016 885.016 0 0 1-17.782 4.386m22.506 8.413-9.032 2.302-4.52-12.861m-4.642 15.067c.786 2.438 1.572 4.876 2.36 7.313m6.802-9.519-9.162 2.206m12.364 7.221-3.202-9.426m-39.582-18.849 3.868-.768 3.976 12.906m-3.976-12.907c2.99-.632 5.98-1.266 8.97-1.9l4.196 12.853M162.13 89.922l.998-.198 4.064 12.772M162.42 87.57l.707 2.154m13.034 10.872 8.859-1.994c1.47 4.265 2.942 8.53 4.413 12.794m-26.306-21.673 8.745-1.843 4.29 12.715m-9.941-25.02 1.272-.266c1.46 4.19 2.92 8.38 4.378 12.571m-4.838-13.848.46 1.277m39.724 31.688-4.838-12.67 8.487-2.267 5.044 12.605m-17.52 4.572-4.628-12.734c2.873-.725 5.745-1.45 8.617-2.177m-17.357 4.263 8.74-2.086m-21.889-8.636 8.636-1.935 4.513 12.657m17.357-4.263-4.947-12.532c2.758-.733 5.517-1.468 8.276-2.2l5.159 12.466m-17.105 4.443-4.731-12.596 8.4-2.113m-16.922 4.138 8.522-2.025m-21.536-8.611 8.408-1.876 4.606 12.512m16.923-4.138-5.053-12.385 8.058-2.133 5.27 12.317m-16.676 4.313L184.2 71.457l8.18-2.049m-16.477 4.012c2.766-.654 5.531-1.31 8.297-1.962m-11.113-5.445 2.816 7.408m24.535-6.144a1431.636 1431.636 0 0 0-5.537-12.475M192.38 69.41l-5.155-12.23 7.836-2.064m-7.836 2.064a64.2 64.2 0 0 1-.14-.322m-2.887 14.6-4.391-10.956m5.275-2.787 2.143-.535m18.481 22.415 8.144-2.285 5.367 12.397-8.352 2.354m-10.429-24.783 7.93-2.216c1.828 4.083 3.657 8.165 5.484 12.248m-18.79-22.193 2.006-.558m6.402-.084c1.632 3.529 3.267 7.056 4.897 10.586m0 .003 7.798-2.297 5.692 12.176c-2.67.79-5.338 1.58-8.007 2.368m-.781-20.949 3.096 6.405 6.14-1.905m2.73 2.011c1.562 3.206 3.123 6.413 4.687 9.618-2.622.818-5.244 1.633-7.865 2.451m11.083-3.509-3.218 1.055m-10.503 17.214 5.246 12.537-8.555 2.422m5.948-29.725c1.857 4.109 3.715 8.217 5.571 12.326l-8.21 2.44m10.504-17.216 5.77 12.251-8.064 2.525m11.012-3.495-2.947.97m-11.03 17.503 5.123 12.667-8.751 2.49m6.593-30.134 5.445 12.466c-2.803.837-5.607 1.673-8.41 2.511m11.03-17.502 4.106 9.025m-.267 3.935-6.459 2.031m-3.287 15.178 1.145 2.932m2.142-18.11 3.642 8.63m-2.82 5.316c-1.37.41-2.74.821-4.109 1.233" color="#000" stroke-width=".3"/>
<g stroke-width=".5" marker-end="url(#a)">
<path d="M92.312 125.144c4.194 2.132 8.866 4.478 13.06 6.61"/>
<path d="M28.652 124.794c-4.828 2.15-10.133 4.439-14.575 6.42"/>
<path d="M61.142 70.902c-.225-7.952-.486-15.904-.73-23.855"/>
</g>
</g>
</g>
<g stroke="#009da3" stroke-linejoin="round" stroke-width=".8" color="#000">
<ellipse cx="125.678" cy="37.19" rx="36.314" ry="36.29"/>
<ellipse cx="126.973" cy="40.043" rx="7.747" ry="7.742"/>
<ellipse cx="200.917" cy="93.216" rx="38.83" ry="38.804"/>
<path d="m211.352 55.821-82.885-23.426M169.916 116.61l-49.438-72.373"/>
</g>
</g>
<g stroke-linejoin="round">
<g stroke-miterlimit="100000">
<path d="M8.54 120.507c-.576.108-.793.54-.793.883 0 .433.343.577.595.577.54 0 .92-.469.92-.955 0-.757-.866-1.1-1.623-1.1-1.1 0-1.713 1.082-1.875 1.424-.414-1.352-1.532-1.424-1.857-1.424-1.838 0-2.812 2.362-2.812 2.758 0 .072.072.162.199.162.144 0 .18-.108.216-.18.613-2 1.82-2.38 2.343-2.38.812 0 .974.758.974 1.19 0 .397-.108.812-.325 1.677l-.613 2.47c-.27 1.081-.793 2.073-1.748 2.073-.09 0-.541 0-.92-.235a.93.93 0 0 0 .794-.883c0-.36-.27-.577-.613-.577-.433 0-.902.379-.902.956 0 .757.848 1.1 1.623 1.1.865 0 1.478-.686 1.857-1.425.288 1.064 1.19 1.424 1.856 1.424 1.84 0 2.813-2.361 2.813-2.758 0-.09-.073-.162-.18-.162-.163 0-.181.09-.235.234-.487 1.587-1.532 2.326-2.344 2.326-.63 0-.973-.469-.973-1.208 0-.397.072-.685.36-1.875l.631-2.452c.27-1.081.884-1.874 1.713-1.874.036 0 .54 0 .92.234zM114.327 132.057c-.487.685-1.19 1.298-2.073 1.298-.216 0-1.082-.036-1.352-.865a.912.912 0 0 0 1.082-.865c0-.415-.343-.56-.613-.56-.289 0-.92.217-.92 1.1 0 .92.775 1.55 1.803 1.55 1.803 0 3.623-1.658 4.128-3.659l1.767-7.03c.018-.09.054-.199.054-.307 0-.27-.217-.45-.487-.45-.162 0-.54.071-.685.612l-1.334 5.3c-.09.325-.09.36-.234.559-.36.505-.956 1.118-1.821 1.118-1.01 0-1.1-.992-1.1-1.479 0-1.027.487-2.415.974-3.713.198-.523.306-.775.306-1.136 0-.757-.54-1.442-1.424-1.442-1.658 0-2.325 2.614-2.325 2.758 0 .072.072.162.198.162.162 0 .18-.072.252-.324.433-1.514 1.118-2.235 1.821-2.235.162 0 .469 0 .469.595 0 .468-.199.991-.469 1.676-.883 2.362-.883 2.956-.883 3.39 0 1.712 1.226 2.108 2.127 2.108.523 0 1.172-.162 1.803-.829l.018.018c-.27 1.064-.451 1.767-1.082 2.65z"/>
<g stroke-width="1.5">
<path d="M28.46 33.29a.181.181 0 0 0-.196-.18c-.054 0-.072.019-.27.216l-1.255 1.38c-.161-.25-.986-1.595-2.976-1.595-4 0-8.034 3.963-8.034 8.123 0 2.852 1.99 4.914 4.895 4.914.79 0 1.596-.162 2.242-.43.897-.36 1.237-.736 1.56-1.095.161.449.628 1.112.807 1.112.09 0 .126-.053.126-.071.035-.036.215-.718.304-1.094l.341-1.381c.072-.305.162-.61.233-.915.197-.807.215-.843 1.238-.86.09 0 .287-.018.287-.36 0-.125-.09-.196-.234-.196-.412 0-1.47.054-1.883.054-.555 0-1.954-.054-2.51-.054-.162 0-.377 0-.377.358 0 .198.144.198.538.198.018 0 .538 0 .95.035.467.054.557.108.557.341 0 .162-.198.969-.377 1.632-.502 1.973-2.833 2.17-3.461 2.17-1.722 0-3.604-1.022-3.604-3.766 0-.556.179-3.515 2.062-5.846.968-1.22 2.708-2.313 4.483-2.313 1.83 0 2.887 1.38 2.887 3.46 0 .718-.054.736-.054.915 0 .18.198.18.27.18.232 0 .232-.036.322-.36zM37.803 50.057c0-.054 0-.09-.305-.395-2.241-2.259-2.815-5.648-2.815-8.392 0-3.12.681-6.24 2.887-8.482.233-.215.233-.251.233-.305 0-.126-.072-.18-.18-.18-.178 0-1.792 1.22-2.85 3.497-.915 1.973-1.13 3.964-1.13 5.47 0 1.399.197 3.569 1.183 5.595 1.076 2.206 2.619 3.371 2.798 3.371.107 0 .18-.054.18-.179zM48.453 38.562a1.34 1.34 0 0 0-.968 1.237c0 .395.304.825.896.825.628 0 1.291-.52 1.291-1.398 0-.95-.95-1.579-2.044-1.579-1.022 0-1.686.772-1.919 1.094-.448-.753-1.452-1.094-2.475-1.094-2.26 0-3.478 2.206-3.478 2.798 0 .251.269.251.43.251.215 0 .34 0 .412-.233.52-1.632 1.812-2.17 2.547-2.17.681 0 1.004.323 1.004.897 0 .34-.251 1.327-.412 1.972l-.61 2.457c-.27 1.094-.915 1.632-1.524 1.632-.09 0-.503 0-.861-.27a1.34 1.34 0 0 0 .968-1.236c0-.395-.305-.825-.896-.825-.628 0-1.292.52-1.292 1.398 0 .95.95 1.578 2.045 1.578 1.022 0 1.685-.77 1.919-1.093.448.753 1.452 1.093 2.474 1.093 2.26 0 3.48-2.205 3.48-2.797 0-.251-.27-.251-.431-.251-.215 0-.34 0-.413.233-.52 1.632-1.81 2.17-2.546 2.17-.682 0-1.004-.323-1.004-.897 0-.376.233-1.327.394-1.99.126-.467.538-2.152.628-2.44.269-1.075.896-1.631 1.524-1.631.09 0 .502 0 .86.269zM55.842 41.27c0-1.399-.197-3.569-1.184-5.595-1.076-2.206-2.618-3.371-2.797-3.371-.108 0-.18.071-.18.179 0 .054 0 .09.341.412 1.758 1.776 2.78 4.627 2.78 8.375 0 3.066-.664 6.223-2.887 8.482-.233.215-.233.251-.233.305 0 .108.071.18.179.18.18 0 1.793-1.22 2.851-3.498.915-1.972 1.13-3.963 1.13-5.469z"/>
</g>
</g>
<path d="m58.373 68.507 2.77 2.397m-10.898-1.71-2.258.998-5.655 1.967m5.655-1.967 6.114-.425.238-.017-.897.591-7.232 1.003 1.777-1.152m6.352-.442 6.042 1.023.761.13-7.7-.562m-7.232 1.003-1.224 1.265-7.072 3.066 1.82-1.845 5.72-2.195.756-.29m7.232-1.004-.606.646-7.85 1.622m16.156-1.707-8.306.085m-7.85 1.622-.616 1.333-7.408 3.687.952-1.954m14.922-4.688-.29.676-8.176 2.28m16.772-3.04-8.596.76m-14.632 4.012-6.02 4.354-1.273 2.522-5.026 5.933 1.55-3.018m9.817-7.837-6.341 4.922m-5.026 5.933-.188 3.054-.003.05-3.605 7.106.263-3.526 2.86-5.411.673-1.273m5.026-5.933-.105 2.583-5.112 6.453M36.962 77.63l-.026 1.991-6.42 5.514M44.37 73.942l.029 1.351-7.463 4.327m15.61-7.957.04.681-8.187 2.949m16.743-4.39-8.556 1.441m-8.187 2.949.682 1.317-7.22 4.962-.925-1.952m15.65-7.276.372.66-7.877 3.606m16.061-5.708-8.184 2.103m-31.16 25.69-1.973 7.454 1.35 3.804-.284 7.654m.908-18.913 1.308 3.498-1.932 7.761m4.229-18.366 1.23 3.068-3.527 7.537m7.409-17.058 1.105 2.544-4.987 6.977M37.86 81.572l-6.24 6.106m-4.987 6.977 2.656 2.906-3.29 7.952c-.964-1.108-1.928-2.215-2.893-3.321m8.514-14.514 2.313 2.4-4.644 7.483m8.571-15.989 1.867 1.832-5.794 6.674M45.081 76.61l1.321 1.229-6.675 5.565m13.23-10.4.693.613-7.248 4.222m14.74-6.937-7.492 2.715m-32.475 36.336 3.027 3.62-.25 7.81M26 105.512l-1.799 8.06M53.65 73.616l.988.54-6.318 4.772-1.918-1.09m14.74-6.937-6.504 3.256m-30.435 39.414 4.646 3.27-.197 7.952m-2.651-19.281 4.42 2.994-1.572 8.334m.441-19.28 4.021 2.612-2.89 8.334m3.514-18.43 3.46 2.15-4.084 7.946m6.417-16.769 2.752 1.634-5.084 7.19M48.32 78.928l-5.84 6.11m-9.169 15.134 5.255 2.195-2.342 8.662-5.804-2.523m6.976-16.28 4.491 1.8-.01.024-3.31 8.317m3.913-17.33 3.541 1.363-4.134 7.626M48.32 78.93l2.445.906L46.02 86.4m8.617-12.243 1.247.446-5.12 5.23m10.377-8.932-5.257 3.702m-27.036 42.237 6.12 2.758-.123 8.075m1.378-16.644-1.256 8.57m20.917-44.996 1.457.335-3.7 5.576-2.877-.68m10.377-8.933-3.8 4.037m-22.374 44.66c2.453.7 4.905 1.402 7.357 2.103l-.03 8.17m-6.07-18.842 6.964 1.92-.863 8.752m-3.76-19.334 6.286 1.667-1.663 8.915m-1.302-18.923.034.01 5.314 1.355-2.383 8.645m1.17-17.635 4.194 1.028-2.98 7.962m6.406-14.876-3.426 6.914m-2.98 7.962 5.98.857-1.314 8.84-7.05-1.052m5.364-16.607 4.673.645-1.673 8.174m.426-15.733 3.192.425-1.945 7.134m2.453-13.135 1.61.208-2.118 5.793m4.309-10.038-2.19 4.245m-16.627 46.555 8.277 1.333.075 8.23m-7.489-18.315 7.828 1.215-.414 8.87m1.3-17.948-.886 9.078m10.126-43.263-.491 4.318-1.7-.073m-8.349 47.888 8.817.485.187 8.256m-8.59-17.611 8.332.44.071 8.915m-7.518-18.433 7.497.379-.05 9.14m-6.133-18.358 6.35.307-.168 8.911M54.89 88.075l4.953.229-.276 8.252m-2.732-15.614 3.376.15-.368 7.213m.81-13.083-.442 5.87m-.368 7.213 5.016-.199 1.141 8.19c-2.288.093-4.428.18-6.433.26m.645-15.464 3.418-.132c.454 2.636.81 4.716 1.23 7.146m-4.207-12.885 1.72-.065 1.257 5.804m-2.486-10.056 1.228 4.252m-2.95 48.366 8.934-.39.3 8.242m-9.306-16.767 8.444-.36.562 8.885m-8.956-17.664 7.596-.316.798 9.095M66 96.296l.996 8.856m1.36 17.98 8.624-1.245.409 8.191m-9.595-15.831 8.154-1.14 1.032 8.78m-9.984-16.735c2.447-.33 4.894-.662 7.34-.993l1.612 8.948M66 96.297l6.077-.796.148-.02c.703 2.893 1.408 5.786 2.112 8.678m-9.478-16.053 4.86-.616 2.506 7.992M63.629 80.96l3.316-.408 2.773 6.938M62.37 75.156l1.67-.2 2.904 5.596m-5.802-9.648 2.899 4.052m5.676 12.534 4.492-1.003 3.75 7.668-5.736 1.327m-5.279-14.93 2.995-.649.08-.017c1.399 2.202 2.943 4.636 4.19 6.601M64.042 74.956l1.555-.328 4.424 5.258m-8.878-8.982 4.454 3.724m11.382 47.26 7.909-2.03.504 8.106m-9.445-14.857 7.486-1.858 1.455 8.61m-10.552-15.7 6.75-1.618 2.347 8.708M77.96 94.155l3.126 8.386m2.346 8.708 6.485-2.476 1.81 8.383-6.84 2.702m-3.801-17.317 5.75-2.115.116-.042 2.965 8.389M77.961 94.155l5.004-1.773 3.988 8.002M74.21 86.487l3.937-1.344 4.818 7.24M70.021 79.886l2.71-.894 5.416 6.151m-12.55-10.515 1.377-.441 5.756 4.805m-11.587-8.088 5.831 3.283m24.754 42.97.585 7.989M72.73 78.992l2.236-1.082 6.404 5.612-3.223 1.621M66.974 74.187l1.146-.537 6.846 4.26m-13.823-7.006 6.977 2.746m23.608 43.506 5.493-3.233.645 7.851m-7.948-13.001 5.222-2.965 2.081 8.115m-10.268-13.54 4.742-2.589 3.445 8.014M82.965 92.383l4.07-2.132 4.66 7.543M81.37 83.522l5.664 6.729m8.106 15.557 3.772-3.31 2.262 7.82-3.953 3.605m-5.526-16.129 3.45-2.895 3.767 7.6M87.034 90.25l2.987-2.392 5.124 7.04M81.37 83.522l2.39-1.825 6.26 6.162m-15.054-9.95 1.678-1.224 7.117 5.012M68.12 73.65l.87-.61 7.654 3.645m-15.501-5.78 7.848 2.135m32.183 37.278.684 7.699M76.644 76.685l1.062-1.315 7.535 4.375-1.48 1.952M68.99 73.04l.564-.658 8.15 2.988m-16.562-4.466 8.412 1.478m-50.026 41.26 1.363 3.967 3.06 3.775 4.701 3.412 6.194 2.88 7.448 2.198 8.383 1.394 8.93.51 9.047-.404 8.733-1.296 8.004-2.114 6.92-2.818c1.986-1.206 3.807-2.31 5.554-3.372l3.992-3.757 2.326-3.97.637-4.012m-3.647.283 2.309-3.809.7 7.538m-5.27-11.549 2.22-3.5 2.35 7.511M95.145 94.9l2.057-3.07 3.931 7.168M90.021 87.86l1.775-2.493.037-.052 5.369 6.514m-11.96-12.083 6.59 5.569m5.37 6.514.61-2.998.024-.118 3.94 6.742c-.215 1.181-.43 2.362-.643 3.543m-9.3-13.683.602-2.592 5.4 5.99m-12.594-8.967.534-1.996 6.66 4.973M77.706 75.37l.416-1.353 7.653 3.732m-16.22-5.367.238-.682 8.329 2.317m-16.979-3.113 8.65.796m31.982 23.754 2.348 7.206-.64 3.85m-2.601-14.503.893 3.447M69.792 71.7l-.094-.678 8.188 1.658.236 1.337m-16.979-3.113 8.555.118m22.737 11.7-.59-2.537 5.232 5.488.741 2.968.018.07M85.776 77.75l-.408-1.964 6.477 4.4m-13.959-7.506 7.482 3.106-1.31-1.857 6.066 3.867 1.721 2.39m-13.959-7.506-.865-1.271c2.6.93 4.617 1.653 7.037 2.52m-14.36-2.906-.42-.648 7.743 1.034m-15.878-.504 8.135-.53m-8.135.53 7.409-1.125.726.595m7.743 1.033-1.453-1.16 6.349 1.995 2.141 1.686m-15.506-4.15c2.578.172 4.667.313 7.016.469l-1.978-1.008 5.45 1.545m-10.488-1.005-1.004-.52 6.042-.02m-12.447 1.665 6.405-1.645m-6.405 1.645 5.164-2.07 1.241.425m-1.24-.425 4.86-.416 2.422.821m-7.283-.405-1.431-.315 3.513-.71m-7.246 3.095 3.733-2.385-1.568-.195 2.05-.89m-4.215 3.47 2.165-2.58-1.647-.068.521-.951m-1.039 3.6.518-2.649-1.665.062-1.024-.894m2.171 3.48-1.147-2.586-1.623.19-2.534-.72m48.982 42.248-.698-7.376-.976-3.739-2.265-6.914-3.805-6.334-2.07-2.852-4.883-5.026-2.755-2.16-5.452-3.393-2.732-1.385-.145-.073-2.902-.982c-1.165-.398-2.366-.68-3.553-1.001l-1.418-.383-2.777-.608-3.031-.375-3.062-.126-.115-.005-3.062.114-.148.005-3.044.353-.089.012-2.944.597-2.65.81-2.91.955-1.734.568-3.268 1.443-2.6 1.671c-1.817 1.27-3.842 2.683-5.483 3.828l-2.355 2.37-4.75 5.438-1.431 2.705c-1.237 2.294-2.564 4.88-3.651 6.997l-1.93 7.152-.308 3.83-.295 7.49m38.843-45.135-1.52.31-3.958-.432m-2.65.81 5.246.042-1.152.515m2.513-.935-1.361.42m5.652 1.667-4.29-2.087m-1.362.42 5.652 1.667" fill="none" stroke="#000" stroke-width=".3"/>
</g>
<g fill="none" stroke="#009da3" stroke-linejoin="round" stroke-width=".8" color="#000">
<circle cx="75.848" cy="93.272" r="14.625"/>
<path d="m82.878 106.103 63.146-38.855M62.266 87.903l30.996-67.224"/>
</g>
</svg>
