<svg width="142.723" height="103.634" xmlns="http://www.w3.org/2000/svg" xmlns:xlink="http://www.w3.org/1999/xlink">
<defs>
<marker id="a" overflow="visible" orient="auto">
<path d="m-4 0-2 2 7-2-7-2z" fill-rule="evenodd" stroke="#000" stroke-width=".4pt"/>
</marker>
<marker id="b" overflow="visible" orient="auto">
<path d="m-4 0-2 2 7-2-7-2z" fill="red" fill-rule="evenodd" stroke="red" stroke-width=".4pt"/>
</marker>
<marker id="c" overflow="visible" orient="auto">
<path d="m-4 0-2 2 7-2-7-2z" fill="red" fill-rule="evenodd" stroke="red" stroke-width=".4pt"/>
</marker>
<symbol id="d">
<path d="M111.3 1.45c0-.484-.412-.95-.95-.95a.959.959 0 0 0-.969.95c0 .484.413.95.95.95.61 0 .969-.502.969-.95zM114.051 5.555a1.34 1.34 0 0 0-.968 1.237c0 .395.304.825.896.825.628 0 1.291-.52 1.291-1.398 0-.95-.95-1.579-2.044-1.579-1.022 0-1.686.772-1.919 1.094-.448-.753-1.452-1.094-2.474-1.094-2.26 0-3.48 2.206-3.48 2.798 0 .251.27.251.431.251.215 0 .34 0 .412-.233.52-1.632 1.812-2.17 2.547-2.17.681 0 1.004.323 1.004.897 0 .34-.25 1.327-.412 1.972l-.61 2.457c-.269 1.094-.915 1.632-1.524 1.632-.09 0-.502 0-.861-.27a1.34 1.34 0 0 0 .968-1.236c0-.395-.305-.825-.896-.825-.628 0-1.292.52-1.292 1.398 0 .95.95 1.578 2.045 1.578 1.022 0 1.686-.77 1.919-1.093.448.753 1.452 1.093 2.474 1.093 2.26 0 3.48-2.205 3.48-2.797 0-.251-.27-.251-.431-.251-.215 0-.34 0-.413.233-.52 1.632-1.81 2.17-2.546 2.17-.681 0-1.004-.323-1.004-.897 0-.376.233-1.327.394-1.99.126-.467.538-2.152.628-2.44.269-1.075.897-1.631 1.524-1.631.09 0 .502 0 .861.269z" fill="red" stroke-width="1.5"/>
</symbol>
</defs>
<g color="#000">
<path d="m12.665 16.533 18.504 16.11" fill="none" marker-end="url(#a)" stroke="#000" style="isolation:auto;mix-blend-mode:normal"/>
<path d="m30.805 49.568 10.178-2.989-6.472-8.38 9.996 3.545-.293-10.57 5.996 8.724 5.997-8.724-.294 10.57L65.91 38.2l-6.471 8.38 10.177 2.988-10.177 2.988 6.471 8.38-9.996-3.545.294 10.57-5.997-8.723-5.996 8.723.293-10.57-9.996 3.544 6.472-8.38z" fill="#f4ff00" stroke="#c2c216" stroke-miterlimit="5" style="isolation:auto;mix-blend-mode:normal"/>
<path fill="#cacaca" style="font-variant-east_asian:normal;isolation:auto;mix-blend-mode:normal" d="M.5 49.856h141.723v53.278H.5z"/>
</g>
<g fill="red" stroke-width="1.5">
<path d="M118.343 90.145a.726.726 0 0 0-.728-.716.715.715 0 0 0-.716.716c0 .452.364.728.716.728a.72.72 0 0 0 .728-.728zm-1.908 2.347v.452c.79 0 .904.076.904.69v3.264c0 .54-.126.54-.942.54v.452c.025 0 .904-.05 1.406-.05.44 0 .891.012 1.33.05v-.452c-.727 0-.853 0-.853-.527v-4.557zM126.204 94.087c0-1.092-.54-1.732-1.883-1.732-1.03 0-1.695.565-2.046 1.217h-.013v-1.217l-1.845.138v.452c.841 0 .942.088.942.703v3.25c0 .54-.126.54-.942.54v.453c.025 0 .904-.05 1.431-.05.465 0 1.33.037 1.444.05v-.452c-.816 0-.942 0-.942-.54v-2.26c0-1.318 1.042-1.933 1.87-1.933.88 0 .992.69.992 1.33V96.9c0 .54-.125.54-.941.54v.452c.025 0 .904-.05 1.43-.05.465 0 1.331.037 1.444.05v-.452c-.816 0-.941 0-.941-.54zM122.898 12.762c0-1.57-1.343-2.925-3.075-2.925-1.733 0-3.076 1.356-3.076 2.925 0 1.557 1.38 2.8 3.076 2.8 1.694 0 3.075-1.243 3.075-2.8zm-3.075 2.398c-.465 0-1.143-.151-1.557-.766-.339-.515-.377-1.168-.377-1.745 0-.54.013-1.28.452-1.82.314-.364.841-.64 1.482-.64.74 0 1.267.351 1.544.74.351.49.389 1.117.389 1.72s-.038 1.268-.402 1.783c-.339.477-.916.728-1.531.728zM127.91 10.038v.452c.841 0 .941.088.941.703v2.146c0 1.105-.715 1.87-1.67 1.87-1.141 0-1.192-.539-1.192-1.18V9.9l-1.933.14v.451c.942 0 .942.038.942 1.155v1.883c0 .866 0 2.033 2.096 2.033.276 0 1.193 0 1.795-1.054h.013v1.054l1.883-.125v-.452c-.841 0-.942-.088-.942-.703V9.9zM133.793 10.477h1.958v-.452h-1.958v-2.31h-.427c-.012 1.13-.527 2.373-1.732 2.41v.352h1.167v3.39c0 1.405 1.055 1.694 1.758 1.694.84 0 1.418-.716 1.418-1.707v-.69h-.427v.677c0 .854-.401 1.318-.89 1.318-.867 0-.867-1.054-.867-1.28z"/>
</g>
<path d="M97.407 8.154V90.98" color="#000" fill="none" stroke="#000" stroke-dasharray="3, 3" stroke-width=".5" style="isolation:auto;mix-blend-mode:normal"/>
<path d="M101.727 28.907h-8.64v-1.25h8.64zm0 3.281h-8.64v-1.25h8.64zM101.727 70.32h-8.64v-1.25h8.64zm0 3.281h-8.64v-1.25h8.64z" color="#000" style="text-decoration-line:none;text-indent:0;text-transform:none"/>
<path d="M50.21 49.567 97.407 90.98" color="#000" fill="none" marker-end="url(#b)" stroke="red" style="isolation:auto;mix-blend-mode:normal"/>
<circle transform="rotate(-26.402)" cx="3.993" cy="20.44" r="5" color="#000" fill="#5e5bff"/>
<path d="M50.21 49.567 97.407 8.154" color="#000" fill="none" marker-end="url(#c)" stroke="red" style="isolation:auto;mix-blend-mode:normal"/>
<path d="M.5 49.856h141.723" color="#000" fill="none" stroke="#555" stroke-linejoin="round" stroke-miterlimit="100" stroke-width="3" style="font-variant-east_asian:normal;isolation:auto;mix-blend-mode:normal"/>
<use width="100%" height="100%" xlink:href="#d"/>
<use transform="translate(-.562 82.454)" width="100%" height="100%" xlink:href="#d"/>
</svg>
