<svg width="175.254" height="93.84" xmlns="http://www.w3.org/2000/svg" xmlns:xlink="http://www.w3.org/1999/xlink">
<defs>
<symbol id="a">
<path d="M74.575 15.389a.194.194 0 0 0-.21-.191c-.058 0-.077.019-.287.23l-1.34 1.472c-.171-.268-1.051-1.702-3.175-1.702-4.265 0-8.57 4.227-8.57 8.665 0 3.041 2.124 5.241 5.223 5.241.842 0 1.702-.172 2.391-.46.956-.382 1.32-.783 1.664-1.166.172.478.67 1.186.86 1.186.097 0 .135-.057.135-.076.038-.039.23-.766.325-1.167l.363-1.473c.077-.325.173-.65.25-.976.21-.86.229-.899 1.319-.918.096 0 .306-.02.306-.382 0-.134-.096-.21-.249-.21-.44 0-1.568.057-2.008.057-.593 0-2.085-.058-2.678-.058-.172 0-.402 0-.402.383 0 .21.153.21.574.21.02 0 .574 0 1.014.038.497.058.593.115.593.364 0 .172-.21 1.033-.402 1.74-.535 2.105-3.022 2.315-3.692 2.315-1.836 0-3.844-1.09-3.844-4.017 0-.593.19-3.75 2.2-6.236 1.032-1.3 2.888-2.467 4.781-2.467 1.951 0 3.08 1.473 3.08 3.691 0 .766-.057.785-.057.976s.21.191.287.191c.248 0 .248-.038.344-.382zM93.476 22.428c.287 0 .65 0 .65-.383s-.363-.382-.63-.382H82.037c-.268 0-.632 0-.632.382 0 .383.364.383.65.383zm.02 3.71c.267 0 .63 0 .63-.382s-.363-.382-.65-.382h-11.42c-.286 0-.65 0-.65.382s.364.383.631.383z" stroke-linejoin="round" stroke-miterlimit="100000" stroke-width="1.6"/>
</symbol>
</defs>
<g stroke-linejoin="round">
<path d="M173.37 1.237c-14.446 34.59-48.257 57.116-85.742 57.125C50.103 58.326 16.28 35.728 1.886 1.075V93.34H173.37z" color="#000" fill="#cacaca" style="isolation:auto;mix-blend-mode:normal"/>
<path d="M173.37 1.237c-14.446 34.59-48.257 57.116-85.742 57.125C50.103 58.326 16.28 35.728 1.886 1.075" color="#000" fill="none" stroke="#555" stroke-miterlimit="100" stroke-width="3" style="isolation:auto;mix-blend-mode:normal"/>
<path d="M113.333 79.298c.325 0 .67 0 .67-.383s-.345-.382-.67-.382h-10.348c-.326 0-.67 0-.67.382 0 .383.344.383.67.383zM108.293 24.284h5.337c.268 0 .631 0 .631-.383s-.363-.382-.631-.382h-5.337v-5.356c0-.268 0-.631-.383-.631s-.382.363-.382.631v5.356h-5.356c-.268 0-.631 0-.631.382 0 .383.363.383.631.383h5.356v5.356c0 .268 0 .631.382.631s.383-.363.383-.631z"/>
</g>
<use width="100%" height="100%" xlink:href="#a"/>
<use transform="translate(.258 55.015)" width="100%" height="100%" xlink:href="#a"/>
</svg>
