<svg width="160.184" height="119.975" xmlns="http://www.w3.org/2000/svg" xmlns:xlink="http://www.w3.org/1999/xlink">
<defs>
<symbol id="a">
<path d="M134.862 65.585a1.34 1.34 0 0 0-.968 1.237c0 .395.304.825.896.825.628 0 1.291-.52 1.291-1.398 0-.95-.95-1.579-2.044-1.579-1.022 0-1.686.772-1.919 1.094-.448-.753-1.452-1.094-2.474-1.094-2.26 0-3.48 2.206-3.48 2.798 0 .251.27.251.431.251.215 0 .34 0 .412-.233.52-1.632 1.812-2.17 2.547-2.17.681 0 1.004.323 1.004.897 0 .34-.25 1.327-.412 1.972l-.61 2.457c-.269 1.094-.915 1.632-1.524 1.632-.09 0-.502 0-.861-.27a1.34 1.34 0 0 0 .968-1.236c0-.395-.305-.825-.896-.825-.628 0-1.292.52-1.292 1.398 0 .95.95 1.578 2.045 1.578 1.022 0 1.685-.77 1.919-1.093.448.753 1.452 1.093 2.474 1.093 2.26 0 3.48-2.205 3.48-2.797 0-.251-.27-.251-.431-.251-.215 0-.34 0-.413.233-.52 1.632-1.81 2.17-2.546 2.17-.681 0-1.004-.323-1.004-.897 0-.376.233-1.327.394-1.99.126-.467.538-2.152.628-2.44.269-1.075.897-1.631 1.524-1.631.09 0 .502 0 .861.269z" stroke-width="1.5"/>
</symbol>
<symbol id="c">
<use xlink:href="#a"/>
</symbol>
<marker id="b" overflow="visible" orient="auto">
<path d="m-10 0-4 4L0 0l-14-4z" fill="red" fill-rule="evenodd" stroke="red" stroke-width=".8pt"/>
</marker>
</defs>
<g fill="none" stroke-linecap="round" color="#000">
<path d="m93.516 70.66-14.84-2.907m32.576 6.381L93.516 70.66m39.305 7.7-21.569-4.226m48.363 9.474-26.794-5.248m-67.656-8.131 13.51-2.476m1.293 5.87 13.548-2.963m4.415 7.08 13.321-3.606m8.932 8.708 12.637-4.482m15.656 10.969 11.138-5.72m-79.647-9.987L65.165 70.23m32.766 7.511-17.963-4.118m40.216 9.22L97.931 77.74m50.546 11.589-28.293-6.487m-70.805-9.72 15.786-2.893m-1.268 6.908 16.071-3.515m1.867 8.475 16.096-4.357m6.635 10.643 15.618-5.54m14.12 13.764 14.172-7.278m-84.58-12.192L49.38 73.122m32.456 8.975-17.938-4.96m40.669 11.246-22.73-6.286m52.468 14.51-29.738-8.224M30.688 76.547l18.691-3.425m-4.855 8.25 19.373-4.235M62 87.467l19.835-5.37m2.933 13.31 19.798-7.024m11.095 17.798 18.643-9.574M8.21 80.667l12.508 5.911 16.23 7.67 21.905 10.353 31.187 14.738M44.524 81.373l-13.836-4.826M62 87.467l-17.476-6.094m40.244 14.034L62 87.467m53.661 18.714L84.768 95.407M8.21 80.667l22.478-4.12m-9.97 10.031 23.806-5.205m-7.576 12.875L62 87.467m-3.147 17.134 25.915-9.194m5.272 23.932 25.621-13.158" stroke="#000" stroke-width=".3"/>
<path d="M7.732 80.658V2.441" marker-end="url(#b)" stroke="red" style="isolation:auto;mix-blend-mode:normal"/>
<path d="m7.732 80.658 106.649 6.105" marker-end="url(#b)" stroke="red"/>
</g>
<path d="M121.364 64.94c-2.242.538-3.981 2.87-3.981 5.04 0 1.72 1.148 3.012 2.833 3.012 2.098 0 3.587-2.816 3.587-5.29 0-1.632-.717-2.529-1.327-3.336-.646-.807-1.704-2.152-1.704-2.94 0-.395.359-.826.987-.826.538 0 .896.233 1.273.484.358.216.717.449.986.449.448 0 .717-.43.717-.718 0-.394-.287-.448-.932-.591-.933-.198-1.184-.198-1.47-.198-1.4 0-2.045.772-2.045 1.848 0 .968.52 1.972 1.076 3.066zm.215.395c.449.824.987 1.793.987 3.084 0 1.184-.682 4.178-2.35 4.178-.986 0-1.721-.753-1.721-2.116 0-1.13.663-4.5 3.084-5.146zM119.446 94.311c-1.59-.457-3.213-.882-5.046-1.124-2.363-.308-3.635-.003-4.137.2-.724.293-1.122.802.158 1.548.952.575 2.434 1.072 4.044 1.563 1.532.467 3.45 1.015 5.55 1.274 2.25.281 3.542 0 4.113-.275.624-.299 1.04-.845-.472-1.663-1.074-.58-2.616-1.065-4.21-1.523m4.208 3.046c-.454.217-1.686.386-3.94-.126-1.387-.318-3.283-.89-4.48-1.25-1.284-.387-2.59-.78-3.55-1.14-2.057-.783-1.318-1.204-1.018-1.326.395-.16 1.519-.38 3.635.08 1.203.267 2.696.7 3.95 1.065 1.514.44 2.906.844 4.107 1.287 1.83.663 1.817 1.162 1.296 1.41m-14.484 1.356c.198-.086.448-.196.04-.328-.407-.13-.657-.022-.842.058l-8.38 3.637c-.207.09-.49.213-.078.361.415.15.697.026.919-.072l8.34-3.656m4.066 1.309c.183-.084.43-.198.006-.336-.423-.136-.672-.023-.868.067l-8.296 3.78c-.221.1-.502.228-.072.384.433.155.713.026.92-.069l8.31-3.826m-25.784 2.148a.56.56 0 0 0-.368-.003c-.049.02-.046.033-.011.186l.357 1.041c-.42-.047-2.628-.312-4.482.43-3.851 1.544-3.572 5.1 1.246 7.237 3.466 1.536 8.088 1.714 10.958.337.762-.365 1.329-.82 1.6-1.251.391-.584.238-.925.092-1.246.708.154 1.97.282 2.135.204.083-.04.048-.082.025-.09-.012-.035-.7-.45-1.087-.675l-1.385-.814c-.304-.176-.591-.359-.893-.533-.785-.46-.812-.485.092-.907.08-.036.236-.123-.168-.28a.588.588 0 0 0-.442.003c-.372.165-1.27.618-1.648.786-.512.228-1.88.781-2.404 1.014-.153.068-.357.159.068.333.235.096.371.035.744-.132.017-.008.506-.227.935-.383.498-.168.645-.18.924-.069.193.077.982.55 1.623.95 1.976 1.201.019 2.35-.585 2.638-1.683.8-4.848 1.137-8.207-.323-.665-.29-3.94-1.87-4.684-3.793-.39-.96.107-2.138 1.793-2.818 1.702-.687 4.172-.492 6.481.412.81.317.782.345.986.425.204.08.383.003.448-.025.211-.09.17-.106-.116-.283l-4.027-2.37"/>
<path d="m7.732 64.405 16.228.903v16.254" color="#000" fill="none" stroke="red" style="isolation:auto;mix-blend-mode:normal"/>
<path d="M31.506 4.233a.643.643 0 0 0 .096-.268c0-.134-.02-.153-.46-.153H17.944c-.44 0-.46.02-.46.153 0 .077.058.21.097.268l6.446 12.912c.134.248.191.363.516.363s.383-.115.517-.363zm-11.65.956h10.502L25.117 15.71zM47.005 3.582a.194.194 0 0 0-.21-.191c-.058 0-.077.019-.287.23l-1.34 1.472c-.171-.268-1.051-1.702-3.175-1.702-4.265 0-8.57 4.227-8.57 8.665 0 3.041 2.124 5.241 5.223 5.241.842 0 1.702-.172 2.391-.46.956-.382 1.32-.783 1.664-1.166.172.478.67 1.186.86 1.186.097 0 .135-.057.135-.076.038-.039.23-.766.325-1.167l.363-1.473c.077-.325.173-.65.25-.976.21-.86.229-.899 1.319-.918.096 0 .306-.02.306-.382 0-.134-.096-.21-.249-.21-.44 0-1.568.057-2.008.057-.593 0-2.085-.058-2.678-.058-.172 0-.402 0-.402.383 0 .21.153.21.574.21.02 0 .574 0 1.014.038.497.058.593.115.593.364 0 .172-.21 1.033-.402 1.74-.535 2.105-3.022 2.315-3.692 2.315-1.836 0-3.844-1.09-3.844-4.017 0-.593.19-3.75 2.2-6.236 1.032-1.3 2.888-2.467 4.781-2.467 1.952 0 3.08 1.473 3.08 3.691 0 .766-.057.785-.057.976s.21.191.287.191c.248 0 .248-.038.344-.382z"/>
<use width="100%" height="100%" xlink:href="#c"/>
<use transform="translate(-125.167 20.944)" width="100%" height="100%" xlink:href="#c"/>
</svg>
