<svg width="180.504" height="135.525" xmlns="http://www.w3.org/2000/svg" xmlns:xlink="http://www.w3.org/1999/xlink">
<defs>
<symbol id="b">
<path d="M90.464 69.836c0-.484-.413-.95-.95-.95a.959.959 0 0 0-.97.95c0 .484.413.95.951.95.61 0 .969-.502.969-.95zM93.214 73.94a1.34 1.34 0 0 0-.968 1.237c0 .395.305.825.896.825.628 0 1.292-.52 1.292-1.398 0-.95-.95-1.579-2.045-1.579-1.022 0-1.685.772-1.919 1.094-.448-.753-1.452-1.094-2.474-1.094-2.26 0-3.48 2.206-3.48 2.798 0 .251.27.251.431.251.215 0 .34 0 .413-.233.52-1.632 1.81-2.17 2.546-2.17.681 0 1.004.323 1.004.897 0 .34-.25 1.327-.412 1.972l-.61 2.457c-.269 1.094-.915 1.632-1.524 1.632-.09 0-.502 0-.861-.27a1.34 1.34 0 0 0 .968-1.236c0-.395-.304-.825-.896-.825-.628 0-1.291.52-1.291 1.398 0 .95.95 1.578 2.044 1.578 1.022 0 1.686-.77 1.919-1.093.448.753 1.452 1.093 2.474 1.093 2.26 0 3.48-2.205 3.48-2.797 0-.251-.27-.251-.431-.251-.215 0-.34 0-.412.233-.52 1.632-1.812 2.17-2.547 2.17-.681 0-1.004-.323-1.004-.897 0-.376.233-1.327.394-1.99.126-.467.538-2.152.628-2.44.269-1.075.897-1.631 1.524-1.631.09 0 .502 0 .861.269z" stroke-linejoin="round" stroke-miterlimit="100000" stroke-width="1.5"/>
</symbol>
<marker id="a" overflow="visible" orient="auto">
<path d="m-4 0-2 2 7-2-7-2z" fill-rule="evenodd" stroke="#000" stroke-width=".4pt"/>
</marker>
</defs>
<g fill="none">
<path d="m179.623 109.314-5.122-5.641-4.915-5.853-4.738-6.168-4.6-6.597-4.497-7.103-4.434-7.522-4.392-7.799-4.363-7.918-4.33-7.86-4.286-7.605-4.213-7.14-4.106-6.447-3.96-5.58-3.793-4.747-3.62-4.013-3.446-3.39m-6.726 2.533 3.352 3.41 3.533 4.018 3.717 4.728 3.898 5.535 4.061 6.377 4.184 7.049 4.266 7.503 4.32 7.753 4.353 7.816 4.382 7.709 4.416 7.45 4.47 7.054 4.553 6.576 4.677 6.175 4.838 5.882 5.032 5.691m-7.86 1.791-4.93-5.723-4.75-5.885-4.605-6.144-4.497-6.507-4.426-6.945-4.385-7.304-4.356-7.536-4.328-7.628-4.29-7.56-4.228-7.314-4.135-6.879-3.998-6.24-3.82-5.442-3.625-4.675-3.433-3.999-3.246-3.422m-6.973 4.237 3.126 3.421 3.317 3.957 3.516 4.582 3.72 5.289 3.911 6.025 4.061 6.617 4.165 7.026 4.235 7.26 4.279 7.336 4.308 7.267 4.333 7.07 4.367 6.76 4.423 6.379 4.516 6.068 4.65 5.855 4.815 5.732m-8.759 1.538-4.684-5.714-4.53-5.786-4.41-5.94-4.329-6.183-4.283-6.486-4.255-6.733-4.23-6.884-4.198-6.925-4.147-6.842-4.07-6.621-3.954-6.251-3.796-5.724-3.594-5.07-3.386-4.443-3.183-3.886-2.992-3.407m-7.098 6.372 2.845 3.379 3.03 3.787 3.232 4.258 3.44 4.785 3.646 5.333 3.811 5.778 3.934 6.1 4.02 6.298 4.078 6.39 4.116 6.381 4.143 6.288 4.169 6.12 4.208 5.91 4.28 5.754 4.39 5.675 4.533 5.665m-9.703 1.253-4.363-5.593-4.229-5.528-4.127-5.523-4.059-5.577-4.023-5.679-3.994-5.757-3.963-5.787-3.918-5.759-3.852-5.663-3.76-5.49-3.631-5.23-3.464-4.878-3.262-4.453-3.057-4.04-2.864-3.668-2.685-3.34m-7.017 7.671 2.52 3.297 2.685 3.54 2.868 3.806 3.062 4.097 3.257 4.391 3.42 4.64 3.55 4.83 3.648 4.975 3.72 5.072 3.773 5.135 3.812 5.17 3.845 5.189 2.662 3.674 5.17 6.79 4.047 5.358 4.175 5.502m-10.314 1.141-3.97-5.403-3.847-5.177-3.75-4.979-3.681-4.81-3.638-4.674-3.597-4.56-3.55-4.458-3.49-4.365-3.412-4.266-3.312-4.16-3.184-4.04-3.03-3.898-2.846-3.737-2.67-3.572-2.501-3.408-2.35-3.252m-6.833 7.739 2.18 3.21 2.317 3.285 2.464 3.347 2.624 3.392 2.788 3.423 2.932 3.459 3.052 3.507 3.152 3.575 3.233 3.668 3.3 3.79 3.356 3.952 3.406 4.16 3.458 4.417 3.53 4.697 3.63 4.994 3.752 5.305m-10.57 1.231-3.522-5.214-3.4-4.821-3.297-4.43-3.218-4.042-3.155-3.672-3.095-3.376-3.032-3.16-2.96-3.014-2.876-2.929-2.781-2.9-2.67-2.923-2.541-2.987-2.399-3.077-2.26-3.142-2.132-3.175-2.014-3.176M34.8 74.273l1.853 3.151 1.952 3.083 2.061 2.97 2.177 2.804 2.297 2.606 2.408 2.452 2.508 2.366 2.598 2.356 2.679 2.43 2.754 2.596 2.825 2.86 2.895 3.233 2.967 3.706 3.056 4.193 3.162 4.671 3.285 5.141M28.13 80.238l1.698 3.14 1.782 3.015 1.87 2.834 1.966 2.587 2.063 2.298 2.157 2.066 2.244 1.925 2.327 1.882 2.405 1.946 2.48 2.124 2.557 2.427 2.633 2.868 2.717 3.43 2.812 4.001 2.921 4.557 3.046 5.094M55.5 128.203l-2.81-5.08-2.684-4.488-2.573-3.87-2.472-3.225-2.383-2.594-2.3-2.1-2.223-1.766-2.148-1.577-2.074-1.522-2-1.594-1.925-1.778-1.848-2.07-1.769-2.431-1.693-2.741-1.62-2.977-1.552-3.143M14.648 89.4l1.412 3.159 1.468 2.962 1.527 2.687 1.587 2.329 1.65 1.915 1.712 1.578 1.776 1.358 1.841 1.267 1.91 1.315 1.983 1.51 2.06 1.87 2.144 2.404 2.238 3.093 2.34 3.792 2.453 4.46 2.574 5.1M7.766 92.837l1.277 3.187 1.322 2.968 1.37 2.665 1.417 2.273 1.465 1.82 1.517 1.449 1.571 1.205 1.628 1.1 1.691 1.14 1.76 1.344 1.834 1.721 1.918 2.288 2.012 3.02 2.114 3.763 2.223 4.472 2.341 5.148M.757 95.693l1.144 3.225 1.182 2.991 1.219 2.67 1.257 2.252 1.294 1.773 1.336 1.38 1.382 1.12 1.431 1.002 1.488 1.042 1.551 1.25 1.622 1.643 1.704 2.233 1.793 2.998 1.892 3.775 1.997 4.517 2.108 5.22 10.07-2.385 10.096-2.2 10.177-1.996 10.308-1.77 10.47-1.542 10.562-1.358 10.57-1.231 10.487-1.16L118.21 120l10.054-1.172 9.703-1.253 9.264-1.378 8.758-1.538 8.284-1.678 7.86-1.79 7.489-1.877m-5.123-5.641-7.398 1.826-7.76 1.759-8.167 1.669-8.627 1.556-9.113 1.427-9.533 1.325-9.866 1.263-10.11 1.24-10.268 1.259-10.34 1.322-10.326 1.431-10.23 1.588-10.071 1.785-9.943 1.976-9.863 2.152-9.836 2.313m-1.997-4.517 9.61-2.268 9.634-2.141 9.71-2.003 9.835-1.854 9.989-1.702 10.089-1.581 10.11-1.495 11.826-1.594 8.134-1.27 9.684-1.432 9.372-1.472 8.973-1.538 8.508-1.625 8.067-1.699 7.67-1.756 7.323-1.797m-4.739-6.168-7.26 1.79-7.598 1.787-7.98 1.775-8.401 1.752-8.843 1.725-9.219 1.703-9.506 1.696-9.71 1.702-9.832 1.724-9.877 1.762-9.847 1.818-9.745 1.893-9.596 1.987-9.477 2.08-9.408 2.17-9.388 2.256m-1.794-2.998 9.17-2.278 9.182-2.243 9.243-2.213 9.351-2.19 9.494-2.17 9.597-2.154 9.637-2.137 9.609-2.117 9.508-2.096 9.33-2.069 9.07-2.036 8.722-1.997 8.308-1.95 7.905-1.902 7.541-1.856 7.215-1.81m-4.498-7.104-7.186 1.86-7.499 1.965-7.845 2.088-8.224 2.223-8.608 2.363-8.924 2.477-9.152 2.56-9.301 2.61-9.377 2.631-9.386 2.625-9.336 2.592-9.233 2.536-9.101 2.464-9.004 2.403-8.956 2.36-8.955 2.332m-1.622-1.642 8.742-2.412 8.73-2.507 8.764-2.634 8.845-2.791 8.965-2.968 9.065-3.11 9.126-3.2 9.136-3.238 9.086-3.222 8.97-3.145 8.775-3.009 8.496-2.808 8.145-2.56 7.795-2.322 7.467-2.111 7.17-1.932m-4.394-7.799-7.158 2.022-7.441 2.284-7.746 2.591-8.068 2.943-8.382 3.31-8.622 3.603-8.78 3.798-8.863 3.898-8.886 3.907-8.857 3.831-8.788 3.674-8.692 3.439-8.586 3.15-8.524 2.888-8.507 2.674-8.534 2.505m-1.488-1.042 8.331-2.604 8.288-2.848 8.286-3.15 8.33-3.519 8.416-3.924 8.509-4.257 8.583-4.485 8.629-4.604 8.633-4.605 8.582-4.485 8.462-4.233 8.262-3.846 7.987-3.353 7.697-2.884 7.415-2.472 7.15-2.124m-4.33-7.86-7.139 2.23-7.385 2.667-7.643 3.182-7.899 3.772-8.135 4.39-8.295 4.868-8.377 5.174-8.397 5.313-8.37 5.295-8.307 5.131-8.23 4.83-8.145 4.398-8.077 3.878-8.054 3.406-8.074 3.016-8.134 2.7m-1.382-1.119 7.945-2.786 7.87-3.17 7.829-3.64 7.833-4.21 7.882-4.84 7.956-5.364 8.036-5.737 8.11-5.948 8.16-5.985 8.167-5.832 8.12-5.478 8-4.911 7.803-4.177 7.579-3.471 7.348-2.854 7.12-2.333m-4.214-7.14-7.09 2.424-7.299 3.024-7.505 3.733-7.697 4.543-7.856 5.384-7.94 6.027-7.958 6.422-7.923 6.584-7.857 6.53-7.774 6.273-7.694 5.835-7.631 5.225-7.601 4.497-7.617 3.842-7.674 3.297-7.764 2.856m-1.295-1.773 7.594-2.902 7.49-3.393 7.418-3.997 7.385-4.725 7.398-5.533 7.45-6.216 7.528-6.71 7.616-7.004 7.695-7.077 7.75-6.91 7.758-6.48 7.706-5.775 7.582-4.845 7.418-3.948 7.236-3.16 7.044-2.495m-3.959-5.58-6.983 2.539-7.157 3.254-7.32 4.1-7.455 5.064-7.552 6.06-7.58 6.813-7.55 7.266-7.48 7.437-7.393 7.349-7.303 7.025-7.228 6.488-7.186 5.751-7.19 4.88-7.235 4.1-7.32 3.45-7.433 2.921m-1.22-2.669 7.283-2.918 7.163-3.471 7.07-4.153 7.012-4.974 6.995-5.886 7.029-6.661 7.098-7.23 7.189-7.574 7.281-7.672 7.36-7.5 7.406-7.03 7.398-6.245 7.325-5.202 7.21-4.194 7.066-3.307 6.907-2.558m-3.62-4.013-6.82 2.554-6.966 3.325-7.093 4.236-7.192 5.273-7.246 6.344-7.238 7.15-7.183 7.628-7.098 7.803-7.002 7.698-6.914 7.34-6.85 6.752-6.824 5.954-6.85 5.012-6.918 4.168-7.018 3.465-7.14 2.895M.756 95.693l7.009-2.857 6.882-3.437 6.778-4.152 6.704-5.01 6.67-5.964 6.688-6.778 6.747-7.374 6.833-7.74 6.929-7.847 7.017-7.672 7.079-7.188 7.098-6.372 7.057-5.287 6.974-4.237 6.86-3.314 6.726-2.533m-62.573 52.19-1.942 2.122-1.941 2.122-1.942 2.123-.922 1.007-2.021 2.048-2.02 2.048-2.021 2.047-.626.635-2.145 1.918-2.144 1.917-2.145 1.919-.236.21-2.305 1.723-2.305 1.722-2.094 1.565-2.454 1.503-2.454 1.503-1.87 1.146-2.575 1.286-2.575 1.286-1.732.865L5.1 93.923l-2.665 1.086-1.679.684.962 2.71.182.515 1.057 2.675.124.316 1.195 2.616.025.053 1.256 2.253 1.295 1.773 1.336 1.38 1.382 1.12 1.431 1.002 1.488 1.042 1.551 1.25 1.622 1.643 1.703 2.233 1.477 2.468.317.53 1.289 2.571.603 1.204 1.163 2.63.834 1.887 1.077 2.666 1.031 2.555 2.801-.664 2.8-.663 2.801-.664 1.667-.395 2.812-.612 2.813-.613 2.812-.613 1.66-.362 2.824-.554 2.825-.554 2.824-.554 1.704-.334 2.837-.487 2.836-.487 2.837-.488 1.798-.309 2.848-.419 2.848-.42 2.847-.418 1.926-.284 2.855-.367 2.855-.367 2.855-.367 1.998-.257 2.86-.333 2.858-.333 2.86-.333 1.992-.232 2.86-.317 2.861-.316 2.862-.317 1.904-.21 2.86-.317 2.861-.316 2.861-.317 1.732-.192 2.86-.333 2.859-.334 2.858-.333 1.477-.172 2.855-.369 2.855-.368 2.854-.369 1.14-.147 2.846-.423 2.847-.424 2.847-.424.723-.107 2.835-.498 2.835-.497 2.835-.498.253-.045 2.822-.571 2.82-.572 2.642-.535 2.806-.64 2.806-.639 2.248-.512 2.792-.7 2.791-.699 1.906-.477-1.934-2.13-1.934-2.13-1.255-1.381-1.85-2.203-1.85-2.203-1.214-1.447-1.752-2.28-1.753-2.282-1.234-1.606-1.644-2.36-1.645-2.36-1.31-1.877-1.538-2.43-1.539-2.43-1.42-2.243-1.46-2.478-1.461-2.478-1.46-2.478-.053-.088-1.411-2.506-1.412-2.506-1.411-2.506-.159-.281-1.388-2.52-1.388-2.518-1.388-2.519-.198-.36-1.388-2.52-1.388-2.518-1.388-2.52-.167-.302-1.412-2.506-1.411-2.506-1.412-2.505-.05-.09-1.462-2.476-1.462-2.477-1.29-2.185-1.544-2.427-1.545-2.425-1.017-1.597-1.664-2.345-1.665-2.346-.63-.888-1.795-2.247-1.796-2.248-.202-.252-1.927-2.136-1.693-1.877-2.05-2.017-1.396-1.373-2.694 1.015-2.693 1.014-1.34.504-2.59 1.252-2.592 1.252-1.677.81-2.46 1.494-2.458 1.494-2.056 1.249-2.303 1.725-2.302 1.725-2.303 1.725-.15.112-2.14 1.922-2.141 1.922-2.14 1.922-.676.606-2.019 2.05-2.018 2.05-2.019 2.05-1.023 1.038-1.942 2.123-1.941 2.123-1.941 2.123-1.193 1.303-1.904 2.157-1.904 2.156-1.904 2.157-1.217 1.378-1.904 2.156-1.903 2.156-1.904 2.157-1.122 1.27" stroke="#555" stroke-width=".3"/>
<path d="M89.427 51.49 62.867 2.234" color="#000" marker-end="url(#a)" stroke="#000" style="isolation:auto;mix-blend-mode:normal"/>
<path d="M56.361 96.637 89.428 51.49" color="#000" marker-end="url(#a)" stroke="#000" style="isolation:auto;mix-blend-mode:normal"/>
</g>
<circle transform="rotate(-26.402)" cx="7.512" cy="111.619" color="#000" fill="#5e5bff" r="5"/>
<g stroke-linejoin="round" stroke-miterlimit="100000" stroke-width="1.5">
<path d="M98.068 76.076a.726.726 0 0 0-.728-.716.715.715 0 0 0-.716.716c0 .452.364.728.716.728a.72.72 0 0 0 .728-.728zm-1.908 2.347v.452c.79 0 .904.076.904.69v3.264c0 .54-.126.54-.942.54v.452c.025 0 .904-.05 1.406-.05.44 0 .891.012 1.33.05v-.452c-.727 0-.853 0-.853-.527v-4.557zM105.929 80.018c0-1.092-.54-1.732-1.883-1.732-1.03 0-1.695.565-2.046 1.217h-.013v-1.217l-1.845.138v.452c.841 0 .942.088.942.703v3.25c0 .54-.126.54-.942.54v.453c.025 0 .904-.05 1.431-.05.465 0 1.33.037 1.444.05v-.452c-.816 0-.942 0-.942-.54v-2.26c0-1.318 1.042-1.933 1.87-1.933.88 0 .992.69.992 1.33v2.863c0 .54-.125.54-.941.54v.452c.025 0 .904-.05 1.43-.05.465 0 1.331.037 1.444.05v-.452c-.816 0-.941 0-.941-.54zM52.71 25.106c0-1.57-1.344-2.925-3.076-2.925-1.733 0-3.076 1.356-3.076 2.925 0 1.557 1.381 2.8 3.076 2.8s3.075-1.243 3.075-2.8zm-3.076 2.398c-.465 0-1.143-.151-1.557-.766-.339-.515-.376-1.168-.376-1.745 0-.54.012-1.28.451-1.82.314-.364.842-.64 1.482-.64.74 0 1.268.351 1.544.74.351.49.389 1.117.389 1.72s-.038 1.268-.402 1.783c-.339.477-.916.728-1.531.728zM57.72 22.382v.452c.842 0 .942.088.942.703v2.146c0 1.105-.715 1.87-1.67 1.87-1.142 0-1.192-.539-1.192-1.18v-4.13l-1.933.14v.451c.942 0 .942.038.942 1.155v1.883c0 .866 0 2.033 2.096 2.033.276 0 1.192 0 1.795-1.054h.012v1.054l1.883-.125v-.452c-.84 0-.941-.088-.941-.703v-4.381zM63.604 22.821h1.958v-.452h-1.958v-2.31h-.427c-.013 1.13-.527 2.373-1.732 2.41v.352h1.167v3.39c0 1.405 1.055 1.694 1.758 1.694.84 0 1.418-.716 1.418-1.707v-.69h-.427v.677c0 .854-.401 1.318-.891 1.318-.866 0-.866-1.054-.866-1.28z"/>
</g>
<use width="100%" height="100%" xlink:href="#b"/>
<use transform="translate(-49.352 -56.042)" width="100%" height="100%" xlink:href="#b"/>
</svg>
