<svg width="172.206" height="134.013" viewBox="0 0 45.563 35.458" xml:space="preserve" xmlns:xlink="http://www.w3.org/1999/xlink" xmlns="http://www.w3.org/2000/svg">
<defs>
<path id="a" d="m3.312-8.19 3.251 1.471.144-.263-3.383-1.913L-.06-6.982l.132.263z"/>
<path id="b" d="M3.347-4.495c-.167-.598-.824-.909-1.47-.909-.442 0-.777.251-1.04.682C.538-4.244.383-3.6.383-3.54c0 .168.179.168.286.168.132 0 .18 0 .24-.06.024-.024.024-.048.095-.347.24-.932.502-1.195.813-1.195.18 0 .275.12.275.442 0 .203-.048.395-.167.873-.084.334-.203.813-.263 1.076L1.232-.91c-.036.168-.096.395-.096.479 0 .25.191.526.562.526.621 0 .765-.55.848-.909.12-.442.216-.825.335-1.339.048-.155.347-1.387.37-1.423.013-.071.348-.61.742-.932.335-.263.73-.466 1.231-.466.311 0 .598.12.598.705 0 .681-.526 2.08-.753 2.678-.132.323-.167.406-.167.61 0 .693.693 1.076 1.35 1.076C7.52.096 8.119-1.53 8.119-1.77c0-.168-.18-.168-.287-.168-.144 0-.228 0-.275.156C7.16-.454 6.516-.335 6.324-.335c-.083 0-.203 0-.203-.25 0-.276.12-.575.24-.874.19-.49.74-1.888.74-2.558 0-1.1-.92-1.387-1.781-1.387-.251 0-1.124 0-1.973.909z"/>
<path id="d" d="M6.468-4.328c0-1.088-.801-1.088-.813-1.088-.478 0-.909.502-.909.909 0 .335.251.478.359.538.502.299.598.514.598.753 0 .263-.694 2.881-2.093 2.881-.86 0-.86-.717-.86-.932 0-.694.334-1.566.717-2.523.096-.239.132-.346.132-.538 0-.693-.694-1.076-1.351-1.076C.98-5.404.383-3.778.383-3.539c0 .168.179.168.286.168.144 0 .228 0 .275-.156.383-1.29 1.017-1.446 1.232-1.446.084 0 .203 0 .203.25 0 .276-.143.622-.18.718-.55 1.387-.729 1.925-.729 2.499C1.47-.24 2.5.096 3.54.096c2.056 0 2.929-3.396 2.929-4.424z"/>
<path id="c" d="M6.235-5.657H.577L.402-3.732h.284c.117-1.448.36-1.624 1.649-1.624.167 0 .41 0 .494.008.184.034.184.126.184.318v4.344c0 .276 0 .385-.87.385H1.79V0c.41-.033 1.188-.033 1.623-.033.436 0 1.205 0 1.616.033v-.301h-.352c-.87 0-.87-.11-.87-.385V-5.03c0-.192 0-.284.184-.318.084-.008.326-.008.494-.008.468 0 .828 0 1.121.167.377.226.435.762.444.804l.075.653h.284z"/>
<path id="j" d="M6.468-4.328c0-1.088-.801-1.088-.813-1.088-.478 0-.909.502-.909.909 0 .335.251.478.359.538.502.299.598.514.598.753 0 .263-.694 2.881-2.093 2.881-.86 0-.86-.717-.86-.932 0-.694.334-1.566.717-2.523.096-.239.132-.346.132-.538 0-.693-.694-1.076-1.351-1.076C.98-5.404.383-3.778.383-3.539c0 .168.179.168.286.168.144 0 .228 0 .275-.156.383-1.29 1.017-1.446 1.232-1.446.084 0 .203 0 .203.25 0 .276-.143.622-.18.718-.55 1.387-.729 1.925-.729 2.499C1.47-.24 2.5.096 3.54.096c2.056 0 2.929-3.396 2.929-4.424z"/>
<path id="i" d="M3.622-3.778h2.033c1.697 0 3.36-1.243 3.36-2.582 0-.92-.79-1.805-2.356-1.805H2.786c-.228 0-.36 0-.36.227 0 .143.108.143.348.143.155 0 .37.012.514.024.191.024.263.06.263.191 0 .048-.012.084-.048.228L1.9-.932c-.12.466-.144.561-1.088.561-.203 0-.335 0-.335.228C.478 0 .622 0 .658 0 .992 0 1.84-.036 2.176-.036c.25 0 .514.012.765.012.263 0 .526.024.777.024.084 0 .24 0 .24-.24 0-.13-.108-.13-.336-.13-.442 0-.777 0-.777-.216 0-.072.024-.131.036-.203zm.861-3.562c.108-.419.132-.455.646-.455h1.147c.993 0 1.626.323 1.626 1.148 0 .466-.239 1.494-.705 1.925-.598.538-1.315.633-1.841.633H3.67Z"/>
<marker id="f" overflow="visible" orient="auto" refX="0" refY="0" viewBox="0 0 17.774 10.156" markerWidth="17.774" markerHeight="10.156" preserveAspectRatio="xMidYMid">
<path d="m-10 0-4 4L0 0l-14-4Z" fill-rule="evenodd" stroke="#000" stroke-width=".8pt"/>
</marker>
<marker id="h" overflow="visible" orient="auto">
<path d="m10 0 4-4L0 0l14 4Z" fill="red" fill-rule="evenodd" stroke="red" stroke-width=".8pt"/>
</marker>
<marker id="g" overflow="visible" orient="auto">
<path d="m-10 0-4 4L0 0l-14-4Z" fill="red" fill-rule="evenodd" stroke="red" stroke-width=".8pt"/>
</marker>
<marker id="e" overflow="visible" orient="auto" refX="0" refY="0" viewBox="0 0 17.774 10.156" markerWidth="17.774" markerHeight="10.156" preserveAspectRatio="xMidYMid">
<path d="m-10 0-4 4L0 0l-14-4Z" fill="#6d6d6d" fill-rule="evenodd" stroke="#6d6d6d" stroke-width=".8pt"/>
</marker>
</defs>
<g transform="translate(225.737 -165.127)">
<path d="m-199.623 166.357 6.228 23.244M-225.466 191.62l1.643 6.134" fill="none" stroke="#000" stroke-dasharray="2, 2" stroke-width=".132" style="font-variation-settings:normal;vector-effect:none;fill:none;fill-opacity:1;stroke:#000;stroke-width:.132291;stroke-linecap:butt;stroke-linejoin:miter;stroke-miterlimit:4;stroke-dasharray:.529164,.529164;stroke-dashoffset:0;stroke-opacity:1;-inkscape-stroke:none;stop-color:#000"/>
<path style="font-variation-settings:normal;opacity:1;vector-effect:none;fill:none;fill-opacity:1;stroke:#000;stroke-width:.132;stroke-linecap:butt;stroke-linejoin:miter;stroke-miterlimit:4;stroke-dasharray:none;stroke-dashoffset:0;stroke-opacity:1;-inkscape-stroke:none;stop-color:#000;stop-opacity:1" d="m-195.84 180.472 2.891-.787.764 2.898"/>
<g transform="scale(.42333) rotate(-15 1322.683 2992.239)" style="font-variation-settings:normal;opacity:1;vector-effect:none;fill:red;fill-opacity:1;stroke-width:.833333;stroke-linecap:butt;stroke-linejoin:miter;stroke-miterlimit:4;stroke-dasharray:none;stroke-dashoffset:0;stroke-opacity:1;-inkscape-stroke:none;stop-color:#000;stop-opacity:1">
<use x="214.996" y="88.094" xlink:href="#a" style="font-variation-settings:normal;vector-effect:none;fill:red;fill-opacity:1;stroke-width:.833333;stroke-linecap:butt;stroke-linejoin:miter;stroke-miterlimit:4;stroke-dasharray:none;stroke-dashoffset:0;stroke-opacity:1;-inkscape-stroke:none;stop-color:#000;stop-opacity:1"/>
<use x="214.055" y="88.26" xlink:href="#b" style="font-variation-settings:normal;vector-effect:none;fill:red;fill-opacity:1;stroke-width:.833333;stroke-linecap:butt;stroke-linejoin:miter;stroke-miterlimit:4;stroke-dasharray:none;stroke-dashoffset:0;stroke-opacity:1;-inkscape-stroke:none;stop-color:#000;stop-opacity:1"/>
<use x="222.578" y="82.416" xlink:href="#c" style="font-variation-settings:normal;vector-effect:none;fill:red;fill-opacity:1;stroke-width:.833333;stroke-linecap:butt;stroke-linejoin:miter;stroke-miterlimit:4;stroke-dasharray:none;stroke-dashoffset:0;stroke-opacity:1;-inkscape-stroke:none;stop-color:#000;stop-opacity:1"/>
<use x="230.001" y="88.26" xlink:href="#d" style="font-variation-settings:normal;vector-effect:none;fill:red;fill-opacity:1;stroke-width:.833333;stroke-linecap:butt;stroke-linejoin:miter;stroke-miterlimit:4;stroke-dasharray:none;stroke-dashoffset:0;stroke-opacity:1;-inkscape-stroke:none;stop-color:#000;stop-opacity:1"/>
</g>
<g transform="scale(.42333) rotate(-15 1146.908 2736.408)" style="fill:#999;fill-opacity:1">
<use x="214.996" y="88.094" xlink:href="#a" style="fill:#999;fill-opacity:1;stroke-width:.833333"/>
<use x="214.055" y="88.26" xlink:href="#b" style="fill:#999;fill-opacity:1;stroke-width:.833333"/>
</g>
<use x="230.001" y="88.26" xlink:href="#d" style="fill:#000;fill-opacity:1;stroke-width:.833333" transform="scale(.42333) rotate(-15 1042.814 2968.583)"/>
<path d="m-225.604 191.658 44.933-12.04" color="#000" fill="none" marker-end="url(#Arrow1Lend-6-3)" stroke="#000" stroke-linecap="round" stroke-miterlimit="100000" stroke-width=".265" style="font-variation-settings:normal;fill:none;fill-opacity:1;stroke:#b2b2b2;stroke-width:.265;stroke-linecap:round;stroke-linejoin:miter;stroke-miterlimit:4;stroke-dasharray:none;stroke-dashoffset:0;stroke-opacity:1;marker-end:url(#e);stop-color:#000"/>
<path d="m-225.594 191.655 25.54-24.922" color="#000" fill="none" marker-end="url(#Arrow1Lend-6-3)" stroke="#000" stroke-linecap="round" stroke-miterlimit="100000" stroke-width=".265" style="font-variation-settings:normal;opacity:1;vector-effect:none;fill:none;fill-opacity:1;stroke:#000;stroke-width:.264583;stroke-linecap:round;stroke-linejoin:miter;stroke-miterlimit:4;stroke-dasharray:none;stroke-dashoffset:0;stroke-opacity:1;-inkscape-stroke:none;marker-end:url(#f);stop-color:#000;stop-opacity:1"/>
<path d="m-225.466 191.62 29.931-8.02" color="#000" fill="none" marker-end="url(#Arrow1Lend-6-3)" stroke="#000" stroke-linecap="round" stroke-miterlimit="100000" stroke-width=".265" style="font-variation-settings:normal;opacity:1;vector-effect:none;fill:none;fill-opacity:1;stroke:#000;stroke-width:.264583;stroke-linecap:round;stroke-linejoin:miter;stroke-miterlimit:4;stroke-dasharray:none;stroke-dashoffset:0;stroke-opacity:1;-inkscape-stroke:none;marker-end:url(#f);stop-color:#000;stop-opacity:1"/>
<path d="m-223.747 195.954 29.658-7.947" fill="none" marker-end="url(#g)" marker-start="url(#h)" stroke="red" stroke-width=".132" style="font-variation-settings:normal;opacity:1;vector-effect:none;fill:none;fill-opacity:1;stroke:red;stroke-width:.132292;stroke-linecap:butt;stroke-linejoin:miter;stroke-miterlimit:4;stroke-dasharray:none;stroke-dashoffset:0;stroke-opacity:1;-inkscape-stroke:none;marker-start:url(#h);marker-end:url(#Arrow1Lend-2);stop-color:#000;stop-opacity:1"/>
<g transform="scale(.42333) rotate(-15 1181.705 2937.528)" style="font-variation-settings:normal;opacity:1;fill:#000;fill-opacity:1;stroke-width:.833333;stroke-linecap:butt;stroke-linejoin:miter;stroke-miterlimit:4;stroke-dasharray:none;stroke-dashoffset:0;stroke-opacity:1;stop-color:#000;stop-opacity:1">
<use x="217.36" y="88.26" xlink:href="#i" style="font-variation-settings:normal;fill:#000;fill-opacity:1;stroke-width:.833333;stroke-linecap:butt;stroke-linejoin:miter;stroke-miterlimit:4;stroke-dasharray:none;stroke-dashoffset:0;stroke-opacity:1;stop-color:#000;stop-opacity:1"/>
<use x="226.696" y="88.26" xlink:href="#j" style="font-variation-settings:normal;fill:#000;fill-opacity:1;stroke-width:.833333;stroke-linecap:butt;stroke-linejoin:miter;stroke-miterlimit:4;stroke-dasharray:none;stroke-dashoffset:0;stroke-opacity:1;stop-color:#000;stop-opacity:1"/>
</g>
</g>
</svg>
