<svg width="171.422" height="112.044" viewBox="0 0 45.355 29.645" xml:space="preserve" xmlns="http://www.w3.org/2000/svg">
<defs>
<marker id="b" overflow="visible" orient="auto">
<path d="m-4 0-2 2 7-2-7-2Z" fill="red" fill-rule="evenodd" stroke="red" stroke-width=".4pt"/>
</marker>
<marker id="c" overflow="visible" orient="auto">
<path d="m-4 0-2 2 7-2-7-2Z" fill="red" fill-rule="evenodd" stroke="red" stroke-width=".4pt"/>
</marker>
<marker id="a" overflow="visible" orient="auto">
<path d="m-4 0-2 2 7-2-7-2Z" fill="red" fill-rule="evenodd" stroke="red" stroke-width=".4pt"/>
</marker>
</defs>
<g transform="translate(171.609 -128.859)">
<g stroke-linejoin="round">
<path color="#000" fill="#dcdcdc" style="isolation:auto;mix-blend-mode:normal" d="M.5 34.164h171.421v78.38H.5z" transform="matrix(.26458 0 0 .26458 -171.741 128.726)"/>
<path d="M.5 34.164h171.421" color="#000" fill="none" stroke="#555" stroke-miterlimit="100" stroke-width="3" style="isolation:auto;mix-blend-mode:normal" transform="matrix(.26458 0 0 .26458 -171.741 128.726)"/>
<path d="M-133.774 128.993c0-.053 0-.134-.085-.134-.088 0-.088.088-.088.152v3.234c0 .064 0 .153.088.153.085 0 .085-.082.085-.135zm.783.018c0-.064 0-.152-.088-.152-.085 0-.085.081-.085.134v3.27c0 .053 0 .135.085.135.088 0 .088-.089.088-.153z"/>
<path d="M-164.004 151.205c0-.053 0-.138-.085-.138-.088 0-.088.081-.088.138v2.147h-1.08c-.054 0-.142 0-.142.085 0 .088.081.088.141.088h2.335c.057 0 .142 0 .142-.085 0-.088-.082-.088-.142-.088h-1.08Z" fill="red"/>
<path d="M132.448 101.964H44.31M132.448 101.964V27.788" color="#000" fill="none" stroke="#000" stroke-dasharray="1.8, 1.8" stroke-width=".3" style="isolation:auto;mix-blend-mode:normal" transform="matrix(.26458 0 0 .26458 -171.741 128.726)"/>
</g>
<circle transform="rotate(-26.402)" cx="-203.851" cy="50.687" r="1.323" color="#000" fill="#5e5bff" style="stroke-width:.264584"/>
<path d="m-160.017 136.079 23.32 19.625" color="#000" marker-end="url(#a)" stroke-width=".529" style="isolation:auto;mix-blend-mode:normal;fill:none;stroke:red;stroke-linecap:round;shape-rendering:auto"/>
<path d="M-160.017 136.079h23.32" color="#000" marker-end="url(#b)" style="isolation:auto;mix-blend-mode:normal;fill:none;stroke:red;stroke-width:.264584;stroke-linecap:round;shape-rendering:auto"/>
<path d="M-160.017 136.079v19.625" color="#000" marker-end="url(#c)" style="isolation:auto;mix-blend-mode:normal;fill:none;stroke:red;stroke-width:.264584;stroke-linecap:round;shape-rendering:auto"/>
<path d="M-135.902 130.957a.27.27 0 0 0-.542 0 .27.27 0 0 0 .542 0zM-135.126 132.115a.378.378 0 0 0-.273.35c0 .11.086.232.253.232.177 0 .364-.147.364-.395 0-.268-.268-.445-.577-.445-.288 0-.475.217-.541.309-.127-.213-.41-.31-.698-.31-.638 0-.982.623-.982.79 0 .071.076.071.121.071.06 0 .096 0 .117-.066.146-.46.51-.612.718-.612.193 0 .284.091.284.253 0 .096-.071.375-.117.557l-.172.693c-.076.309-.258.46-.43.46-.025 0-.142 0-.243-.075a.378.378 0 0 0 .273-.35c0-.11-.086-.232-.253-.232-.177 0-.364.146-.364.394 0 .269.268.446.577.446.288 0 .476-.218.541-.309.127.213.41.309.699.309.637 0 .982-.623.982-.79 0-.07-.076-.07-.122-.07-.06 0-.096 0-.116.065-.147.46-.511.613-.719.613-.192 0-.283-.091-.283-.253 0-.107.065-.375.111-.562.035-.132.152-.607.177-.688.076-.304.253-.461.43-.461a.41.41 0 0 1 .243.076zM-133.096 153.601a.27.27 0 0 0-.542 0 .27.27 0 0 0 .542 0zM-132.32 154.76a.378.378 0 0 0-.273.349c0 .111.086.232.253.232.178 0 .365-.146.365-.394 0-.269-.268-.446-.577-.446-.289 0-.476.218-.542.31-.126-.214-.41-.31-.698-.31-.638 0-.982.623-.982.79 0 .07.076.07.122.07.06 0 .096 0 .116-.065.147-.46.511-.612.719-.612.192 0 .283.09.283.253 0 .096-.07.374-.116.556l-.172.694c-.076.308-.259.46-.43.46-.026 0-.142 0-.244-.076a.378.378 0 0 0 .274-.349c0-.111-.086-.233-.253-.233-.177 0-.365.147-.365.395 0 .268.269.445.577.445.289 0 .476-.217.542-.308.126.212.41.308.698.308.638 0 .982-.622.982-.79 0-.07-.076-.07-.121-.07-.061 0-.097 0-.117.066-.147.46-.511.612-.718.612-.193 0-.284-.09-.284-.253 0-.106.066-.374.111-.562.036-.131.152-.607.178-.688.076-.304.253-.46.43-.46a.41.41 0 0 1 .243.075z"/>
<g style="fill:red">
<path d="M-167.071 152.537a.27.27 0 0 0-.542 0 .27.27 0 0 0 .542 0zM-166.295 153.695a.378.378 0 0 0-.273.35c0 .11.086.232.253.232.177 0 .365-.147.365-.395 0-.268-.269-.445-.577-.445-.289 0-.476.217-.542.308-.126-.212-.41-.308-.698-.308-.638 0-.982.622-.982.79 0 .07.076.07.121.07.061 0 .096 0 .117-.066.146-.46.51-.612.718-.612.193 0 .284.091.284.253 0 .096-.071.375-.117.557l-.172.693c-.076.309-.258.46-.43.46-.025 0-.142 0-.243-.075a.378.378 0 0 0 .273-.35c0-.11-.086-.232-.253-.232-.177 0-.364.146-.364.394 0 .269.268.446.577.446.288 0 .476-.218.542-.309.126.213.41.309.698.309.638 0 .982-.623.982-.79 0-.07-.076-.07-.122-.07-.06 0-.096 0-.116.065-.147.46-.511.613-.719.613-.192 0-.283-.091-.283-.253 0-.107.066-.375.111-.562.036-.132.152-.608.177-.689.076-.303.253-.46.43-.46a.41.41 0 0 1 .243.076z"/>
</g>
<path d="M-133.756 133.408a.205.205 0 0 0-.206-.202.202.202 0 0 0-.202.202.203.203 0 1 0 .407 0zm-.539.663v.127c.223 0 .255.021.255.195v.921c0 .153-.035.153-.265.153v.127c.007 0 .255-.014.396-.014.124 0 .252.003.376.014v-.127c-.206 0-.241 0-.241-.15v-1.285ZM-131.537 134.52c0-.308-.153-.488-.532-.488-.29 0-.478.159-.577.343h-.004v-.343l-.52.039v.127c.237 0 .265.025.265.199v.917c0 .152-.035.152-.265.152v.128c.007 0 .255-.014.403-.014.131 0 .376.01.408.014v-.128c-.23 0-.266 0-.266-.152v-.638c0-.372.294-.545.528-.545.248 0 .28.195.28.375v.808c0 .152-.036.152-.266.152v.128c.007 0 .255-.014.404-.014.131 0 .376.01.407.014v-.128c-.23 0-.265 0-.265-.152zM-130.95 155.362a.205.205 0 0 0-.205-.201.202.202 0 0 0-.202.201.203.203 0 1 0 .407 0zm-.538.663v.127c.223 0 .255.022.255.195v.921c0 .153-.035.153-.266.153v.127c.007 0 .255-.014.397-.014.124 0 .252.004.376.014v-.127c-.206 0-.241 0-.241-.149v-1.286ZM-128.73 156.475c0-.308-.153-.49-.532-.49-.29 0-.478.16-.578.345h-.003v-.344l-.52.039v.127c.237 0 .265.025.265.199v.917c0 .153-.036.153-.266.153v.127c.007 0 .255-.014.404-.014.131 0 .376.01.408.014v-.127c-.23 0-.266 0-.266-.153v-.637c0-.372.294-.546.528-.546.248 0 .28.195.28.376v.807c0 .153-.036.153-.266.153v.127c.007 0 .255-.014.404-.014.13 0 .375.01.407.014v-.127c-.23 0-.266 0-.266-.153z"/>
<g style="fill:red">
<path d="M-164.925 154.79a.205.205 0 0 0-.205-.202.202.202 0 0 0-.202.202c0 .127.103.205.202.205a.203.203 0 0 0 .205-.205zm-.538.662v.128c.223 0 .255.021.255.195v.92c0 .153-.036.153-.266.153v.128c.007 0 .255-.014.397-.014.124 0 .251.003.375.014v-.128c-.205 0-.24 0-.24-.149v-1.286ZM-162.706 155.902c0-.308-.152-.489-.531-.489-.29 0-.479.16-.578.344h-.003v-.344l-.521.04v.127c.237 0 .266.025.266.198v.918c0 .152-.036.152-.266.152v.128c.007 0 .255-.015.404-.015.13 0 .375.011.407.015v-.128c-.23 0-.265 0-.265-.152v-.638c0-.372.294-.546.527-.546.248 0 .28.195.28.376v.808c0 .152-.035.152-.265.152v.128c.007 0 .255-.015.403-.015.132 0 .376.011.408.015v-.128c-.23 0-.266 0-.266-.152z"/>
</g>
</g>
</svg>
