<svg width="204.655" height="79.285" viewBox="0 0 54.148 20.977" xml:space="preserve" xmlns="http://www.w3.org/2000/svg">
<defs>
<marker id="b" overflow="visible" orient="auto">
<path d="m-4 0-2 2 7-2-7-2Z" fill="#ff0007" fill-rule="evenodd" stroke="#ff0007" stroke-width=".4pt"/>
</marker>
<marker id="a" overflow="visible" orient="auto">
<path d="m-4 0-2 2 7-2-7-2Z" fill="#ff0007" fill-rule="evenodd" stroke="#ff0007" stroke-width=".4pt"/>
</marker>
<marker id="c" overflow="visible" orient="auto">
<path d="m-4 0-2 2 7-2-7-2Z" fill="#ff0007" fill-rule="evenodd" stroke="#ff0007" stroke-width=".4pt"/>
</marker>
</defs>
<g transform="translate(171.042 -170.284)">
<path d="M-166.593 171.607h23.373" stroke="#000" stroke-dasharray="1.8, 1.8" stroke-width=".079" style="font-variation-settings:normal;opacity:1;vector-effect:none;fill:none;fill-opacity:1;stroke:#000;stroke-width:.0793751;stroke-linecap:butt;stroke-linejoin:miter;stroke-miterlimit:4;stroke-dasharray:.476251,.476251;stroke-dashoffset:0;stroke-opacity:1;-inkscape-stroke:none;stop-color:#000;stop-opacity:1"/>
<g stroke="#ff0007" stroke-linejoin="round" style="fill:none" color="#000">
<path d="M-154.924 185.771c-1.602-3.839-3.388-7.655-5.911-10.738-1.528-1.845-3.514-3.447-5.758-3.426-1.196.01-2.314.476-3.328 1.189" stroke-miterlimit="100000" stroke-width=".26458"/>
<path d="M61.39 59.104c5.956-14.286 12.623-28.514 21.922-40.077 5.791-7.115 13.301-13.383 21.883-13.458 3.83-.035 7.46 1.18 10.823 3.166" marker-end="url(#a)" stroke-miterlimit="100000" style="marker-end:url(#a)" transform="matrix(.26458 0 0 .26458 -171.175 170.152)"/>
<path d="M61.42 59.034c3.777-7.354 8.017-14.344 13.018-20.562 5.792-7.116 13.302-13.384 21.883-13.458 8.48-.078 15.987 5.974 21.762 12.95" marker-end="url(#b)" stroke-dasharray="2.79999, 2.79999" stroke-miterlimit="100" stroke-width=".7" transform="matrix(.26458 0 0 .26458 -171.175 170.152)"/>
</g>
<path d="M-135.509 178.803h1.014v.203h-1.014v.842h-.252v-2.96h.252v.398h.969v.2h-.969v.541h.883v.203h-.883zm-2.058.266-.053-.212q.358-.05 1.005-.165.005-.062.005-.176v-.286h-.878v-.203h.878v-.541h-.887v-.2h.887v-.373h.253v1.568q0 .083-.005.167.137-.025.264-.053v.19q-.097.026-.287.066-.066.416-.28.655-.21.238-.572.371l-.11-.168q.216-.086.419-.27.205-.186.282-.535-.424.08-.92.165zM-134.534 183.468q-.396.701-.98 1.152l-.18-.165q.46-.37.768-.878l-1.68.25v1.037q0 .233.115.348.117.114.44.114h1.405v.244h-1.477q-.764 0-.764-.686v-1.015l-.703.105-.03-.242.746-.106v-.767h.287v.727l1.883-.264zm.071-.426-.19.077q-.11-.257-.235-.455l.171-.083q.134.207.254.46zm-.48.1-.19.086q-.12-.274-.239-.463l.178-.081q.147.227.251.458zM-131.366 185.557H-134v-2.403h2.634zm-.281-.231v-1.952h-2.08v1.952z" style="stroke-width:.264584"/>
<circle transform="rotate(-26.402)" cx="-225.525" cy="79.629" r="1.323" color="#000" fill="#5e5bff" style="stroke-width:.264584"/>
<path d="M-154.932 184.854h14.867" fill="none" marker-end="url(#marker1420)" stroke="#ff0007" stroke-dasharray="2.79999, 2.79999" stroke-linejoin="round" stroke-miterlimit="100" stroke-width=".185" style="font-variation-settings:normal;opacity:1;vector-effect:none;fill:none;fill-opacity:1;stroke:#ff0007;stroke-width:.185208;stroke-linecap:butt;stroke-linejoin:round;stroke-miterlimit:100;stroke-dasharray:.740832,.740832;stroke-dashoffset:0;stroke-opacity:1;-inkscape-stroke:none;marker-end:url(#c);stop-color:#000;stop-opacity:1"/>
<g color="#000">
<path d="m43.326 61.065 9.104-2.671-5.789-7.492 8.942 3.17-.263-9.45 5.364 7.798 5.364-7.799-.262 9.45 8.942-3.169-5.79 7.492 9.105 2.671-9.104 2.672 5.789 7.491-8.942-3.169.262 9.45-5.364-7.799-5.364 7.8.263-9.45-8.942 3.168 5.79-7.491z" fill="#f4ff00" stroke="#c2c216" stroke-miterlimit="5" style="isolation:auto;mix-blend-mode:normal" transform="matrix(.26458 0 0 .26458 -171.175 170.152)"/>
<path fill="#cacaca" style="isolation:auto;mix-blend-mode:normal" d="M.5 62.076h204.655v17.708H.5z" transform="matrix(.26458 0 0 .26458 -171.175 170.152)"/>
<path d="M.5 62.076h204.655" fill="none" stroke="#555" stroke-linejoin="round" stroke-miterlimit="100" stroke-width="3" style="isolation:auto;mix-blend-mode:normal" transform="matrix(.26458 0 0 .26458 -171.175 170.152)"/>
</g>
<g style="fill:red">
<path d="M-135.611 171.628q-.088-.307-.172-.52l.231-.053q.144.372.18.515zm-.058 2.456v-.535h-.852v-.2h.852v-.318h-.724v-1.245h1.21q.239-.46.328-.7l.259.06q-.106.246-.342.64h.263v1.245h-.743v.318h.863v.2h-.863v.535zm-.487-1.773h.494v-.358h-.494zm.728 0h.507v-.358h-.507zm.507.172h-.507v.366h.507zm-.741 0h-.494v.366h.494zm-.542-.751q-.135-.342-.23-.525l.224-.076q.099.211.23.518-.083.035-.224.083zm-1.137.383-.025.506h.718q0 .344-.013.62-.011.273-.036.478-.013.112-.035.155-.021.043-.064.083-.043.04-.11.072-.063.033-.14.043l-.44.008-.038-.224h.335q.18 0 .234-.124.055-.124.055-.93h-.485v.088h-.235l.045-.948h.681v-.565h-.713v-.186h.963v.924zM-133.274 174.011v-.211h.985v-.918h-.81v-.203h.81v-.728h-.541q-.124.296-.29.529l-.199-.104q.144-.21.28-.55.138-.34.18-.609l.26.038q-.05.223-.152.493h.462v-.668h.262v.668h.845v.203h-.845v.728h.766v.203h-.766v.918h.918v.211zm-.56.086v-3.004h.243v3.004zm.436-2.028-.107-.454.193-.045.107.447zm-.743.579-.213-.045q.094-.363.117-.92l.222.008q-.007.19-.047.5-.038.308-.079.457zM-130.064 174.013l-.038-.213q.176-.005.652-.05v-.298h-.62v-.18h.62v-.248h-.545v-1.01h.545v-.218h-.614v-.178h.614v-.224q-.324.021-.548.028l-.035-.184q.716-.014 1.283-.117l.079.187q-.192.036-.542.067v.243h.618v.178h-.618v.218h.545v1.01h-.545v.248h.595v.18h-.595v.275q.421-.043.618-.072v.186q-.253.051-1.47.172zm1.173-1.83h-.328v.259h.328zm-.553 0h-.326v.259h.326zm.553.414h-.328v.262h.328zm-.553 0h-.326v.262h.326zm-1.355-.593-.148-.145q.398-.36.592-.731l.225.076q-.104.195-.306.434-.2.237-.363.366zm2.326-.614v-.186h.681v.186Zm-2.043 2.689V172.7q-.195.24-.339.371l-.133-.14q.184-.178.387-.467.203-.29.322-.548l.215.076q-.084.206-.28.48h.072v1.606zm2.277-.01h-.322l-.023-.2h.235q.056 0 .095-.031.042-.032.042-.08v-1.506h-.306v-.19h.78v.19h-.229v1.554q0 .263-.272.263zM-125.808 171.631h-.459q-.014.756-1.031.941l-.065-.175q.418-.076.628-.256.21-.181.226-.51h-.707v.307h-.229v-.5h1.333v-.335h.263v.335h1.375v.475h-.231v-.282h-.868v.551q0 .048.026.08.028.03.073.04.046.013.151.013.19 0 .261-.005.073-.007.11-.058.04-.051.04-.244l.2.02v.22q0 .095-.063.156-.06.059-.14.076-.08.016-.355.016-.195 0-.299-.003-.102-.005-.171-.075-.068-.069-.068-.17Zm-.157 1.545q-.173.345-.579.6-.404.252-.86.318l-.076-.193q.46-.088.812-.312.352-.225.492-.514h-1.29v-.213h1.358v-.331h.266v.331h1.406v.213h-1.347q.375.566 1.327.794l-.107.203q-.46-.094-.84-.332-.38-.239-.562-.564z"/>
</g>
<path d="M-132.175 177.42q-.088-.307-.172-.52l.231-.053q.144.372.18.515zm-.058 2.456v-.535h-.851v-.2h.851v-.318h-.724v-1.245h1.211q.238-.46.327-.7l.259.06q-.106.246-.342.64h.263v1.245h-.743v.318h.863v.2h-.863v.535zm-.487-1.773h.494v-.358h-.494zm.728 0h.507v-.358h-.507zm.507.172h-.507v.366h.507zm-.741 0h-.494v.366h.494zm-.542-.751q-.135-.342-.23-.525l.224-.076q.099.211.23.518-.083.035-.224.083zm-1.137.383-.024.506h.717q0 .344-.013.62-.011.273-.036.478-.013.112-.035.155-.021.043-.064.083-.043.04-.109.072-.064.033-.14.043l-.44.008-.039-.224h.335q.18 0 .235-.124.054-.124.054-.93h-.485v.088h-.235l.045-.949h.682v-.564h-.713v-.186h.962v.924zM-129.838 179.803v-.211h.985v-.918h-.81v-.203h.81v-.728h-.541q-.124.296-.29.528l-.199-.103q.144-.21.28-.55.138-.34.18-.61l.26.039q-.05.223-.152.493h.462v-.668h.262v.668h.845v.203h-.845v.728h.766v.203h-.766v.918h.918v.211zm-.56.086v-3.004h.243v3.004zm.436-2.028-.107-.454.193-.045.107.447zm-.743.579-.213-.045q.094-.363.118-.92l.22.008q-.006.19-.045.5-.038.308-.08.457zM-126.628 179.805l-.038-.213q.177-.005.652-.05v-.298h-.62v-.18h.62v-.248h-.545v-1.01h.545v-.218h-.614v-.178h.614v-.224q-.324.021-.548.028l-.035-.184q.717-.014 1.283-.117l.079.187q-.192.036-.541.067v.243h.617v.178h-.617v.218h.544v1.01h-.544v.248h.594v.18h-.594v.275q.42-.043.617-.072v.186q-.253.051-1.469.172zm1.173-1.83h-.328v.259h.328zm-.553 0h-.326v.259h.326zm.553.414h-.328v.262h.328zm-.553 0h-.326v.262h.326zm-1.354-.593-.149-.145q.398-.36.592-.731l.225.076q-.104.194-.305.434-.2.237-.363.366zm2.325-.614v-.186h.682v.186Zm-2.043 2.689v-1.378q-.195.24-.339.371l-.133-.14q.185-.179.388-.467.203-.29.321-.548l.215.076q-.084.206-.279.48h.071v1.606zm2.277-.01h-.322l-.023-.2h.235q.056 0 .095-.031.042-.032.042-.08v-1.506h-.306v-.19h.78v.19h-.228v1.554q0 .263-.273.263zM-122.372 177.423h-.458q-.015.756-1.032.94l-.064-.174q.417-.076.627-.256.211-.181.226-.51h-.706v.307h-.23v-.5h1.334v-.335h.262v.335h1.375v.475h-.231v-.282h-.868v.551q0 .048.026.08.028.03.073.04.046.012.152.012.19 0 .26-.004.073-.007.11-.058.04-.051.04-.245l.2.02v.221q0 .095-.063.156-.06.059-.14.075-.079.017-.355.017-.194 0-.298-.003-.103-.005-.172-.075-.068-.069-.068-.17Zm-.156 1.545q-.174.345-.58.599-.404.253-.86.319l-.076-.194q.46-.087.812-.311.352-.225.492-.514h-1.29v-.213h1.358v-.331h.266v.331H-121v.213h-1.347q.375.566 1.327.794l-.107.203q-.46-.094-.84-.332-.38-.239-.561-.564zM-128.81 183.27q-.088-.307-.172-.52l.231-.053q.144.371.18.515zm-.058 2.455v-.534h-.851v-.2h.851v-.319h-.724v-1.244h1.211q.238-.46.327-.7l.259.06q-.106.246-.342.64h.263v1.244h-.743v.319h.863v.2h-.863v.534zm-.487-1.772h.494v-.358h-.494zm.728 0h.507v-.358h-.507zm.507.172h-.507v.366h.507zm-.741 0h-.494v.366h.494zm-.542-.751q-.135-.342-.23-.525l.224-.076q.099.211.23.518-.083.035-.224.083zm-1.137.382-.024.507h.717q0 .343-.013.619-.011.274-.036.479-.013.112-.035.155-.021.043-.064.082-.043.042-.109.073-.064.033-.14.043l-.44.008-.039-.224h.335q.18 0 .234-.124.055-.124.055-.931h-.485v.09h-.235l.045-.95h.682v-.564h-.713v-.187h.962v.924zM-126.473 185.653v-.211h.985v-.918h-.81v-.203h.81v-.728h-.541q-.124.296-.29.528l-.199-.104q.144-.21.28-.55.138-.34.18-.608l.26.038q-.05.222-.152.493h.462v-.668h.262v.668h.845v.203h-.845v.728h.766v.203h-.766v.918h.918v.21zm-.56.086v-3.004h.243v3.004zm.436-2.029-.107-.454.193-.044.107.447zm-.743.58-.213-.045q.094-.363.118-.92l.22.007q-.006.19-.046.5-.037.309-.079.458zM-123.263 185.654l-.038-.212q.177-.005.652-.05v-.299h-.62v-.18h.62v-.247h-.545v-1.01h.545v-.218h-.614v-.178h.614v-.225q-.324.022-.548.028l-.035-.183q.717-.015 1.283-.117l.079.186q-.192.037-.541.068v.243h.617v.178h-.617v.218h.544v1.01h-.544v.247h.594v.18h-.594v.276q.42-.043.617-.073v.187q-.253.05-1.47.171zm1.173-1.83h-.328v.26h.328zm-.553 0h-.326v.26h.326zm.553.414h-.328v.263h.328zm-.553 0h-.326v.263h.326zm-1.355-.592-.148-.145q.398-.36.592-.731l.225.075q-.104.195-.305.434-.2.238-.364.367zm2.326-.614v-.187h.682v.187Zm-2.043 2.688v-1.378q-.195.241-.339.372l-.133-.14q.185-.179.388-.468.203-.288.321-.548l.215.076q-.084.207-.279.48h.071v1.606zm2.277-.01h-.322l-.023-.2h.235q.056 0 .095-.03.042-.032.042-.08v-1.507h-.306v-.19h.78v.19h-.228v1.555q0 .263-.273.263zM-119.007 183.273h-.459q-.014.756-1.031.94l-.064-.174q.417-.076.627-.256.211-.182.226-.51h-.707v.307h-.229v-.5h1.334v-.335h.262v.335h1.375v.475h-.231v-.282h-.868v.551q0 .048.026.08.028.03.073.04.046.012.151.012.19 0 .261-.005.073-.006.11-.058.04-.05.04-.244l.2.02v.221q0 .094-.063.155-.06.06-.14.076-.08.017-.355.017-.194 0-.298-.004-.103-.005-.172-.074-.068-.07-.068-.17Zm-.157 1.545q-.173.345-.579.599-.404.252-.86.318l-.076-.193q.46-.087.812-.312.352-.224.492-.513h-1.29v-.213h1.358v-.332h.266v.332h1.406v.213h-1.347q.375.566 1.327.794l-.107.203q-.46-.094-.84-.332-.38-.24-.562-.564z"/>
</g>
</svg>
