<svg width="162.405" height="88.108" viewBox="0 0 42.97 23.312" xml:space="preserve" xmlns="http://www.w3.org/2000/svg">
<defs>
<marker id="a" overflow="visible" orient="auto">
<path d="m-4 0-2 2 7-2-7-2Z" fill-rule="evenodd" stroke="#000" stroke-width=".4pt"/>
</marker>
</defs>
<g transform="translate(116.886 -128.813)">
<g stroke-width="1.5" style="stroke-linejoin:round;stroke-miterlimit:100000">
<path d="M-91.026 130.563c.019-.066.019-.076.019-.109 0-.085-.067-.128-.138-.128a.206.206 0 0 0-.166.1c-.01.023-.047.17-.066.256a8.858 8.858 0 0 0-.095.38l-.214.853c-.019.072-.223.404-.536.404-.242 0-.294-.21-.294-.385 0-.218.08-.512.242-.93.076-.194.095-.246.095-.341a.376.376 0 0 0-.39-.39c-.45 0-.626.689-.626.731 0 .048.048.048.057.048.048 0 .053-.01.076-.086.128-.446.318-.588.48-.588.037 0 .118 0 .118.152 0 .119-.047.242-.08.332-.19.503-.276.773-.276.996 0 .423.3.565.58.565a.67.67 0 0 0 .478-.213c-.061.246-.118.479-.308.73-.123.162-.304.3-.522.3-.066 0-.28-.015-.36-.2.075 0 .137 0 .203-.057a.257.257 0 0 0 .095-.195c0-.147-.128-.166-.175-.166-.11 0-.266.076-.266.309 0 .237.209.413.503.413.489 0 .977-.432 1.11-.968zM-86.328 130.834c.066-.029.095-.062.095-.105 0-.047-.02-.076-.095-.109l-2.614-1.234c-.067-.033-.086-.033-.095-.033a.092.092 0 0 0-.095.095c0 .057.038.08.09.104l2.491 1.172-2.481 1.172c-.095.043-.1.081-.1.11 0 .052.043.094.095.094.014 0 .024 0 .085-.033zm-.071 2.187c.08 0 .166 0 .166-.095s-.1-.095-.17-.095h-2.558c-.071 0-.171 0-.171.095s.085.095.166.095zM-82.79 130.473h.408c.094 0 .142 0 .142-.095 0-.052-.048-.052-.128-.052h-.394l.1-.54c.019-.1.085-.437.113-.494.043-.09.124-.162.223-.162.02 0 .143 0 .233.086a.263.263 0 0 0-.256.256c0 .11.085.166.175.166.124 0 .261-.104.261-.285 0-.218-.218-.327-.413-.327-.16 0-.46.085-.602.555-.029.1-.043.147-.157.745h-.327c-.09 0-.142 0-.142.09 0 .057.042.057.132.057h.314l-.356 1.874c-.086.46-.166.892-.413.892-.019 0-.138 0-.228-.085a.257.257 0 0 0 .261-.256c0-.11-.085-.166-.175-.166-.124 0-.261.104-.261.284 0 .214.208.328.403.328.26 0 .45-.28.536-.46.152-.3.261-.874.266-.907zM-79.345 133.51c0-.014 0-.024-.081-.105-.593-.597-.745-1.494-.745-2.22 0-.826.18-1.651.764-2.244.062-.057.062-.067.062-.081 0-.033-.02-.047-.048-.047-.047 0-.474.322-.754.925a3.448 3.448 0 0 0-.3 1.447c0 .37.053.944.314 1.48.285.584.693.892.74.892.029 0 .048-.014.048-.047zM-77.486 130.938c.028-.123.137-.56.47-.56.023 0 .137 0 .237.062a.276.276 0 0 0-.228.256c0 .076.052.166.18.166a.265.265 0 0 0 .257-.275c0-.247-.28-.313-.442-.313-.275 0-.44.251-.498.36a.525.525 0 0 0-.512-.36c-.494 0-.764.612-.764.73 0 .048.047.048.057.048.038 0 .052-.01.061-.052.162-.503.475-.622.636-.622.09 0 .256.043.256.318 0 .147-.08.465-.256 1.13-.076.293-.242.493-.45.493-.029 0-.138 0-.238-.062.119-.024.223-.123.223-.256 0-.128-.104-.166-.175-.166a.27.27 0 0 0-.261.275c0 .218.237.313.446.313.313 0 .484-.332.498-.36.057.175.228.36.512.36.489 0 .76-.612.76-.73 0-.048-.043-.048-.057-.048-.043 0-.053.019-.062.052-.157.508-.48.622-.631.622-.185 0-.261-.152-.261-.313 0-.105.028-.21.08-.418zM-74.998 131.185c0-.37-.052-.944-.313-1.48-.285-.584-.693-.892-.74-.892-.029 0-.048.019-.048.047 0 .014 0 .024.09.11.465.469.736 1.223.736 2.215 0 .811-.176 1.646-.764 2.244-.062.057-.062.067-.062.08 0 .03.02.048.048.048.047 0 .474-.322.754-.925a3.448 3.448 0 0 0 .299-1.447z"/>
</g>
<path d="M-116.886 152.125v-14.776l.434-.01.434.09.434.198.434.305.434.403.434.484.435.545.434.578.434.582.434.556.434.502.434.424.434.326.434.214.434.099.434-.015.434-.117.434-.203.434-.265.434-.3.434-.306.434-.28.434-.23.434-.153.434-.06.434.045.434.153.434.257.434.349.434.421.434.47.434.492.434.482.435.443.434.378.434.29.434.186.434.072.434-.044.434-.154.434-.25.434-.325.434-.377.434-.398.434-.39.434-.355.434-.29.434-.207.434-.108h.434l.434.108.434.206.434.291.434.354.434.39.434.4.434.376.434.325.434.25.434.154.435.044.434-.072.434-.185.434-.29.434-.379.434-.443.434-.482.434-.491.434-.47.434-.423.434-.348.434-.257.434-.153.434-.045.434.06.434.153.434.23.434.28.434.306.434.3.434.265.434.203.434.117.434.015.434-.099.434-.214.434-.326.435-.424.434-.502.434-.556.434-.582.434-.578.434-.545.434-.484.434-.403.434-.305.434-.198.434-.09.434.01v14.776z" clip-path="url(#p825fbd034e)" color="#000" fill="#cacaca" style="isolation:auto;mix-blend-mode:normal;stroke-width:.264583;stroke-linejoin:round;stroke-miterlimit:100000"/>
<path d="m-116.128 137.008-.427.01-.33.008.015.661.331-.008.389-.009.352.075.365.17.384.273.4.377.41.467.42.533.423.573.427.582a.33.33 0 0 0 .004.006l.428.556a.33.33 0 0 0 .01.013l.427.503a.33.33 0 0 0 .019.02l.427.424a.33.33 0 0 0 .033.028l.427.325a.33.33 0 0 0 .052.033l.427.214a.33.33 0 0 0 .074.027l.428.099a.33.33 0 0 0 .085.008l.427-.015a.33.33 0 0 0 .077-.011l.427-.118a.33.33 0 0 0 .054-.02l.427-.203a.33.33 0 0 0 .033-.018l.427-.265a.33.33 0 0 0 .016-.01l.427-.3a.33.33 0 0 0 .002-.002l.422-.302.41-.27.392-.21.372-.134.353-.05.348.037.359.129.378.228.397.324.41.404.419.461.425.489a.33.33 0 0 0 .002.002l.427.482a.33.33 0 0 0 .009.01l.427.444a.33.33 0 0 0 .019.018l.427.378a.33.33 0 0 0 .033.026l.428.29a.33.33 0 0 0 .053.03l.428.186a.33.33 0 0 0 .077.023l.427.071a.33.33 0 0 0 .089.003l.427-.044a.33.33 0 0 0 .078-.018l.427-.153a.33.33 0 0 0 .055-.026l.427-.25a.33.33 0 0 0 .034-.022l.427-.326a.33.33 0 0 0 .018-.015l.427-.376a.33.33 0 0 0 .007-.006l.426-.397.42-.384.409-.34.394-.268.375-.181.354-.09h.346l.355.09.374.181.395.269.408.339.42.384.426.397a.33.33 0 0 0 .007.006l.428.376a.33.33 0 0 0 .018.015l.427.326a.33.33 0 0 0 .033.022l.428.25a.33.33 0 0 0 .054.026l.428.153a.33.33 0 0 0 .078.018l.427.044a.33.33 0 0 0 .088-.003l.428-.071a.33.33 0 0 0 .077-.023l.427-.186a.33.33 0 0 0 .054-.03l.427-.29a.33.33 0 0 0 .033-.026l.428-.378a.33.33 0 0 0 .019-.018l.427-.444a.33.33 0 0 0 .01-.01l.427-.482a.33.33 0 0 0 .002-.002l.424-.489.42-.461.409-.404.397-.324.378-.228.36-.129.347-.037.353.05.372.134.393.21.409.27.422.302a.33.33 0 0 0 .002.002l.427.3a.33.33 0 0 0 .016.01l.427.265a.33.33 0 0 0 .033.018l.427.203a.33.33 0 0 0 .054.02l.427.118a.33.33 0 0 0 .077.011l.427.015a.33.33 0 0 0 .086-.008l.427-.099a.33.33 0 0 0 .074-.027l.427-.214a.33.33 0 0 0 .052-.033l.427-.325a.33.33 0 0 0 .033-.028l.427-.424a.33.33 0 0 0 .02-.02l.426-.503a.33.33 0 0 0 .01-.013l.428-.556a.33.33 0 0 0 .004-.006l.427-.582.424-.573.418-.533.411-.467.4-.377.384-.274.365-.17.352-.074.39.01.33.007.016-.661-.33-.008-.428-.01a.33.33 0 0 0-.077.007l-.427.09a.33.33 0 0 0-.07.024l-.428.198a.33.33 0 0 0-.052.03l-.428.306a.33.33 0 0 0-.034.028l-.428.403a.33.33 0 0 0-.021.022l-.427.484a.33.33 0 0 0-.012.015l-.428.545a.33.33 0 0 0-.006.008l-.426.577a.33.33 0 0 0-.001.001l-.425.58-.42.546-.413.486-.402.398-.386.294-.364.183-.346.08-.345-.012-.362-.1-.384-.182-.403-.25-.419-.294-.426-.304a.33.33 0 0 0-.01-.007l-.427-.282a.33.33 0 0 0-.026-.015l-.427-.229a.33.33 0 0 0-.044-.02l-.428-.154a.33.33 0 0 0-.066-.016l-.427-.06a.33.33 0 0 0-.08-.001l-.428.045a.33.33 0 0 0-.077.017l-.427.154a.33.33 0 0 0-.058.028l-.428.256a.33.33 0 0 0-.039.028l-.427.348a.33.33 0 0 0-.023.021l-.427.422a.33.33 0 0 0-.012.013l-.428.47a.33.33 0 0 0-.005.005l-.426.49-.422.476-.413.429-.401.355-.385.261-.36.158-.344.057-.343-.035-.36-.13-.384-.224-.401-.307-.415-.365-.424-.395a.33.33 0 0 0-.003-.003l-.427-.39a.33.33 0 0 0-.012-.011l-.428-.354a.33.33 0 0 0-.024-.019l-.427-.29a.33.33 0 0 0-.043-.025l-.427-.207a.33.33 0 0 0-.064-.023l-.427-.107a.33.33 0 0 0-.08-.01h-.427a.33.33 0 0 0-.081.01l-.427.107a.33.33 0 0 0-.064.023l-.427.207a.33.33 0 0 0-.042.024l-.427.291a.33.33 0 0 0-.025.019l-.427.354a.33.33 0 0 0-.012.01l-.428.391a.33.33 0 0 0-.003.003l-.423.395-.415.365-.402.307-.383.224-.361.13-.343.035-.343-.057-.36-.158-.385-.26-.401-.356-.414-.43-.421-.475-.427-.49a.33.33 0 0 0-.005-.005l-.427-.47a.33.33 0 0 0-.013-.013l-.427-.422a.33.33 0 0 0-.023-.02l-.427-.35a.33.33 0 0 0-.039-.027l-.427-.256a.33.33 0 0 0-.059-.028l-.427-.154a.33.33 0 0 0-.077-.017l-.427-.045a.33.33 0 0 0-.08.002l-.428.06a.33.33 0 0 0-.066.015l-.427.154a.33.33 0 0 0-.045.02l-.426.229a.33.33 0 0 0-.026.015l-.427.282a.33.33 0 0 0-.011.007l-.426.304-.418.294-.403.25-.385.183-.362.1-.344.011-.347-.08-.364-.183-.385-.294-.402-.398-.413-.486-.42-.546-.425-.58-.428-.578a.33.33 0 0 0-.006-.008l-.428-.545a.33.33 0 0 0-.011-.015l-.428-.484a.33.33 0 0 0-.021-.022l-.427-.403a.33.33 0 0 0-.035-.028l-.427-.305a.33.33 0 0 0-.053-.031l-.427-.198a.33.33 0 0 0-.071-.024l-.427-.09a.33.33 0 0 0-.077-.007z" clip-path="url(#p825fbd034e)" color="#000" fill="#555" style="text-indent:0;text-decoration-line:none;text-decoration-style:solid;text-decoration-color:#000;text-transform:none;white-space:normal;isolation:auto;mix-blend-mode:normal;stroke-width:.264583"/>
<path d="m-105.636 132.818 3.625 5.385" color="#000" fill="none" marker-end="url(#a)" stroke="#000" style="isolation:auto;mix-blend-mode:normal;stroke-width:.264583"/>
<circle transform="rotate(-11.402)" cx="-129.809" cy="109.314" r="1.323" color="#000" fill="#5e5bff" style="stroke-width:.264583"/>
</g>
</svg>
