<svg width="200.196" height="119.427" viewBox="0 0 52.969 31.598" xml:space="preserve" xmlns:xlink="http://www.w3.org/1999/xlink" xmlns="http://www.w3.org/2000/svg">
<defs>
<path id="c" d="M2.427-.012c0-.789-.299-1.255-.765-1.255a.615.615 0 0 0-.634.633c0 .323.24.634.634.634a.628.628 0 0 0 .418-.155c.036-.024.048-.036.06-.036.012 0 .024.012.024.179 0 .885-.419 1.602-.813 1.997-.132.131-.132.155-.132.19 0 .085.06.132.12.132.131 0 1.088-.92 1.088-2.319z"/>
<path id="a" d="M9.086-8.309a.121.121 0 0 0-.132-.12c-.035 0-.047.013-.179.144l-.837.92c-.107-.167-.657-1.063-1.984-1.063-2.666 0-5.356 2.642-5.356 5.415C.598-1.112 1.925.263 3.862.263c.526 0 1.064-.108 1.494-.287.598-.239.825-.49 1.04-.73.108.3.418.742.538.742.06 0 .084-.036.084-.048.024-.024.143-.478.203-.729l.227-.92c.048-.204.108-.407.155-.61.132-.538.144-.562.825-.574.06 0 .192-.012.192-.24 0-.083-.06-.13-.156-.13-.275 0-.98.035-1.255.035-.37 0-1.303-.036-1.674-.036-.107 0-.25 0-.25.24 0 .13.095.13.358.13.012 0 .358 0 .633.025.311.036.371.071.371.227 0 .108-.131.645-.251 1.088C6.061-.24 4.507-.108 4.089-.108c-1.148 0-2.403-.681-2.403-2.51 0-.37.12-2.343 1.375-3.898.645-.813 1.805-1.542 2.988-1.542 1.22 0 1.925.92 1.925 2.308 0 .478-.036.49-.036.61 0 .119.132.119.18.119.155 0 .155-.024.215-.24z"/>
<path id="b" d="M3.993-3.61c.072-.311.347-1.411 1.184-1.411.06 0 .346 0 .597.155-.334.06-.574.359-.574.646 0 .191.132.418.455.418a.667.667 0 0 0 .645-.693c0-.622-.705-.79-1.111-.79-.694 0-1.112.634-1.256.91-.299-.79-.944-.91-1.29-.91-1.244 0-1.926 1.543-1.926 1.842 0 .12.12.12.144.12.095 0 .131-.024.155-.132.407-1.267 1.196-1.566 1.602-1.566.227 0 .646.107.646.8 0 .371-.203 1.172-.646 2.846-.191.741-.61 1.243-1.136 1.243-.071 0-.346 0-.597-.155.299-.06.562-.31.562-.646 0-.322-.263-.418-.443-.418-.358 0-.657.31-.657.693 0 .55.597.79 1.123.79.79 0 1.22-.837 1.256-.91a1.32 1.32 0 0 0 1.29.91C5.249.132 5.93-1.411 5.93-1.71c0-.12-.108-.12-.144-.12-.107 0-.131.049-.155.132C5.236-.418 4.423-.132 4.04-.132c-.466 0-.658-.382-.658-.789 0-.263.072-.526.204-1.052z"/>
<path id="d" d="M5.81-4.555c.048-.167.048-.191.048-.275 0-.215-.167-.323-.347-.323a.52.52 0 0 0-.418.251c-.024.06-.12.43-.167.646-.084.31-.168.634-.24.956l-.538 2.152c-.047.18-.561 1.016-1.35 1.016-.61 0-.742-.526-.742-.968 0-.55.204-1.291.61-2.343.191-.49.24-.622.24-.86 0-.539-.383-.981-.981-.981-1.136 0-1.578 1.733-1.578 1.84 0 .12.12.12.143.12.12 0 .132-.023.191-.215.323-1.124.801-1.482 1.208-1.482.096 0 .299 0 .299.382 0 .3-.12.61-.203.837-.479 1.268-.694 1.949-.694 2.51 0 1.065.753 1.424 1.459 1.424.466 0 .872-.204 1.207-.538C3.802.215 3.658.8 3.18 1.434c-.31.407-.765.754-1.315.754-.167 0-.705-.036-.909-.502.192 0 .347 0 .514-.144a.647.647 0 0 0 .24-.49c0-.37-.323-.418-.443-.418-.275 0-.67.19-.67.777 0 .597.527 1.04 1.268 1.04 1.231 0 2.463-1.088 2.798-2.439z"/>
<path id="e" d="M1.59-.992c.646-.694.992-.993 1.423-1.363 0-.012.74-.646 1.171-1.076 1.136-1.112 1.4-1.686 1.4-1.734 0-.12-.109-.12-.132-.12-.084 0-.12.025-.18.132-.358.574-.61.765-.896.765-.287 0-.43-.179-.61-.382-.227-.275-.43-.514-.825-.514-.897 0-1.447 1.112-1.447 1.363 0 .06.036.131.144.131.107 0 .131-.06.155-.131.227-.55.92-.562 1.016-.562.252 0 .479.083.754.18.478.178.61.178.92.178-.43.515-1.434 1.375-1.662 1.567L1.745-1.554C.933-.754.515-.072.515.012c0 .12.119.12.143.12.095 0 .12-.024.19-.156.276-.418.634-.741 1.017-.741.275 0 .395.107.693.454.204.251.419.443.766.443C4.507.132 5.2-1.387 5.2-1.71c0-.06-.047-.12-.143-.12-.108 0-.131.073-.167.156-.275.777-1.04 1.005-1.435 1.005-.24 0-.454-.072-.705-.156-.407-.155-.586-.203-.837-.203-.024 0-.215 0-.323.036z"/>
<marker id="f" overflow="visible" orient="auto">
<path d="m-10 0-4 4L.4 0-14-4Z" fill-rule="evenodd" stroke="#000" stroke-width=".8pt"/>
</marker>
</defs>
<g transform="translate(228.338 -209.557)">
<use x="206.019" y="88.26" xlink:href="#a" style="stroke-width:.833333" transform="matrix(.42333 0 0 .42333 -308.745 175.762)"/>
<g transform="matrix(.42333 0 0 .42333 -278.98 195.951)">
<use x="215.419" y="88.26" xlink:href="#b" style="stroke-width:.833333"/>
<use x="222.251" y="88.26" xlink:href="#c" style="stroke-width:.833333"/>
<use x="227.565" y="88.26" xlink:href="#d" style="stroke-width:.833333"/>
<use x="233.855" y="88.26" xlink:href="#c" style="stroke-width:.833333"/>
<use x="239.168" y="88.26" xlink:href="#e" style="stroke-width:.833333"/>
</g>
<path d="M-228.272 228.39h47.843" color="#000" marker-end="url(#f)" stroke="#000" stroke-linecap="round" stroke-width=".132" style="fill:none;marker-end:url(#f)"/>
<path d="M-223.451 241.09v-30.428" color="#000" marker-end="url(#f)" stroke="#000" stroke-linecap="round" stroke-width=".132" style="fill:none;marker-end:url(#f)"/>
<path d="M-201.937 238.576s1.233-10.369 8.721-10.194c7.488.174 10.586-12.375 10.586-12.375M-219.696 238.576l19.306-22.569" fill="none" stroke="#545454" stroke-width=".529"/>
<circle cx="-210.982" cy="228.389" r=".661" color="#000" style="font-variation-settings:normal;opacity:1;vector-effect:none;fill:red;fill-opacity:1;stroke-width:.352778;stroke-linecap:butt;stroke-linejoin:miter;stroke-miterlimit:4;stroke-dasharray:none;stroke-dashoffset:0;stroke-opacity:1;-inkscape-stroke:none;stop-color:#000;stop-opacity:1"/>
<circle cx="-193.216" cy="228.382" r=".661" color="#000" style="font-variation-settings:normal;opacity:1;fill:red;fill-opacity:1;stroke-width:.352778;stroke-linecap:butt;stroke-linejoin:miter;stroke-miterlimit:4;stroke-dasharray:none;stroke-dashoffset:0;stroke-opacity:1;stop-color:#000;stop-opacity:1"/>
<ellipse style="font-variation-settings:normal;opacity:1;fill:none;fill-opacity:1;stroke:red;stroke-width:1;stroke-linecap:butt;stroke-linejoin:miter;stroke-miterlimit:4;stroke-dasharray:none;stroke-dashoffset:0;stroke-opacity:1;stop-color:#000;stop-opacity:1" cx="-213.49" cy="223.363" rx="2.669" ry="2.542"/>
<path style="font-variation-settings:normal;opacity:1;fill:none;fill-opacity:1;stroke:red;stroke-width:1;stroke-linecap:butt;stroke-linejoin:miter;stroke-miterlimit:4;stroke-dasharray:none;stroke-dashoffset:0;stroke-opacity:1;stop-color:#000;stop-opacity:1" d="m-192.9 220.852-5.443 5.183m0-5.183 5.444 5.183"/>
</g>
</svg>
