<svg width="239.646" height="133.215" viewBox="0 0 63.406 35.247" xml:space="preserve" xmlns="http://www.w3.org/2000/svg">
<defs>
<marker id="a" overflow="visible" orient="auto">
<path d="m-10 0-4 4L0 0l-14-4Z" fill-rule="evenodd" stroke="#000" stroke-width=".8pt"/>
</marker>
</defs>
<g transform="translate(113.942 -203.355)">
<path d="m-97.783 228.773.313-.006.046.969m-.45-2.079.347-.006.057 1.116m-.18-2.173.065-.001.058 1.058m-.067-1.21.01.151m.057 1.06.755-.047.146 1.11-.844.052m-.115-2.175.65-.04h.009l.154 1.052m-.154-1.052.648-.067.248 1.04-.742.08m-.32-2.035h.006l.157.963.003.02m-.161-.989v.005m0 0 .548-.056.26.972m-.386-1.392.126.42m-.778 4.407.828-.052.117 1.105m-.254-2.259.137 1.154m.46-2.342.234 1.098-.83.09m.83-.09.216 1.144-.91.1m.91-.1.195 1.175-.896.1m.896-.1.088.614m-.088-.614.952-.152.19.977m-.19-.977.912-.194.27 1.102m-2.33-1.93.885-.14.263 1.162m-1.363-2.167.807-.124.293 1.13m0 0c.282-.06.565-.119.848-.177.11.381.218.763.327 1.144m-1.468-2.097.775-.159.366 1.112m-2.182-1.927.722-.11.319 1.084m-1.29-2.015.63-.095.341 1.026m0 0 .694-.14.4 1.065m-1.434-1.95.606-.12.428 1.005m-1.926-1.763.533-.078.359.955m-.636-1.61.277.655m0 0 .513-.1.452.935m-.883-1.721.431.786m.88 1.941.659-.168.476 1.043-.735.19m-.828-2.07.576-.145.51.982m-.51-.982.539-.167.588.956-.616.193m-1.539-1.773.488-.12.54.911m-1.17-1.726.067-.016.563.83.457-.138.622.883m-1.642-1.575.371-.111.649.803m-1.028-.703.008.01m.34-.143.03.033m1.678 6.324.864-.232.304 1.035m-.304-1.035.805-.268.277.812m-2.273-1.457.803-.212.388 1.125m-.822-2.214.434 1.09m-.294-2.326.546 1.016-.686.22m.686-.22.498 1.065-.75.244m.75-.244.443 1.101.74-.3.173.45m-.174-.45.626-.309m-1.808-.492.688-.274.494 1.075m-1.68-1.866.63-.247.556 1.038.62-.301.523 1.018m-1.698-1.755.569-.27.606 1.007m-2.352-1.506.567-.218.599.97.01.017m-1.764-1.725.497-.187.658.925m0 0 .512-.238.652.934.015.02m-1.837-1.64.444-.204.005-.002.72.892m-2.289-1.383.422-.156.697.853m-1.768-1.5.343-.124.728.771m0 0 .383-.171.764.818m-1.875-1.418.053-.024m.325-.052.733.676m-1.121-.61.01.01m1.11.6.34-.186.824.783-.399.221m-1.067-1.526.643.522m-.107-.485.4.289-.293.196m2.418 3.858.546-.323.24.424m-1.392-1.108.502-.291.65.975m0 0 .292-.214m-.942-.761.397-.284.034-.024.48.657.003.006m-2.084-1.019.453-.257.717.921m-1.491-1.777.774.856m-1.303-1.835.873.744-.344.235m.344-.235.82.82-.39.271m.39-.272.74.866.017.02m0 0 .271-.246m-1.028-.64.322-.285.575.617m-1.717-1.151.286-.246.856.78m0 0 .115-.132m-.971-.648.127-.143m-1.286-.355.195-.164m.185.062.779.6M-82.15 215.012l.098-.02.066.222m-.066-.221.485-.103.216.685-.138.03m.138-.03.036.115m1.415-.464-.25-.676.46-.123.26.672-.47.127m.47-.127.14.376v.001m-.434.242-.176-.493m-1.667-.335.479-.109.228.683-.49.11m1.2-1.024-.465.118-.473.113m1.188.445-.477.121-.238-.679m-.245.795c.04.128.082.255.123.383v.003m.36-.502-.483.116m.652.382v-.003l-.169-.495m-2.09-.995.205-.041.21.681m-.21-.681.474-.1.221.678m-.962-1.242.053-.01.214.674m-.252-.788.037.114m.689.574.467-.106.233.676m-1.389-1.144.462-.098.227.672m-.525-1.321.067-.014.231.663m-.255-.73.024.067m2.097 1.672-.255-.668.448-.12.266.665m-.925.242-.244-.672.455-.115m-.917.225.462-.11m-1.156-.456.456-.103.238.669m.917-.225-.262-.662.437-.116.273.658m-.903.235-.25-.665.443-.112m-.893.218.45-.106m-1.137-.455.444-.099.243.66m.893-.218-.266-.654.425-.112.278.65m-.88.228-.255-.658.432-.108m-.87.212.438-.104m-.587-.287.149.391m1.295-.324-.284-.642-.007-.016m-.134.77-.272-.645.413-.11m-.413.11-.007-.017m-.153.77-.231-.578m.279-.147.112-.028m.976 1.183.43-.12.283.654-.441.124m-.55-1.308.418-.117.29.646m-.992-1.171.106-.03m.338-.004.258.559m0 0 .395-.116.017-.005.3.642-.423.125m-.04-1.105.163.338.324-.101m.144.107.247.507-.415.13m.585-.186-.17.056m-.554.908.277.662-.452.128m.314-1.569.294.65-.433.13m.554-.91.305.647-.426.134m.582-.185-.156.051m-.582.924.27.669-.462.131m.348-1.59.288.658-.444.132m.582-.924.217.477m-.014.207-.341.108m-.174.8.06.156m.114-.956.192.455m-.148.28-.218.066" color="#000" stroke-width=".026" style="fill:none;stroke:#000"/>
<path d="m-90.18 215.203.776-.015.116 2.404m-1.115-5.156.858-.016.142 2.769m-.446-5.393.136-.002h.025l.143 2.627m-.165-3.005.022.377m.143 2.628 1.874-.116.363 2.753-2.096.131m-.284-5.395 1.615-.099h.02l.382 2.61m-.382-2.61 1.609-.169.617 2.584-1.844.195m-.793-5.049h.014l.397 2.438m-.4-2.452.003.014m0 0 1.36-.14.646 2.41m-.961-3.453.314 1.043m-1.934 10.936 2.057-.13.29 2.741m-.63-5.605c.114.95.231 1.943.34 2.863m1.142-5.811.58 2.726-2.061.222m2.062-.222.536 2.838-2.259.247m2.26-.247.484 2.915-2.225.248m2.225-.247.22 1.521m-.22-1.521 2.363-.378.473 2.424m-.472-2.424 2.266-.48.669 2.732m-5.784-4.79 2.195-.345.653 2.883m-3.384-5.376 2.004-.31.727 2.803m0 0 2.106-.438.814 2.84m-3.647-5.205c.642-.13 1.283-.262 1.925-.393l.908 2.758m-5.418-4.781 1.794-.273.017.06.774 2.63m-3.203-5 1.566-.235.846 2.545 1.723-.347.993 2.643m-3.562-4.84 1.506-.299 1.063 2.496m-4.782-4.374 1.324-.195.889 2.371m-1.579-3.996.69 1.625 1.273-.248 1.122 2.321m-2.193-4.272 1.071 1.95m2.185 4.818 1.636-.416 1.181 2.586-1.824.473m-2.056-5.139 1.43-.357 1.269 2.437m-1.27-2.437 1.34-.414 1.459 2.37-1.53.481m-3.82-4.401 1.21-.298 1.342 2.262m-2.903-4.284.166-.04 1.358 2.007.038.055 1.134-.345 1.545 2.193m-4.075-3.91.92-.275 1.61 1.992m-2.55-1.742.02.025m.843-.357.076.082m4.166 15.694 2.144-.576.754 2.565m-.754-2.565 2-.665.687 2.013m-5.645-3.613 1.956-.516.04-.01.962 2.79m-2.042-5.495 1.08 2.705m-.732-5.772 1.356 2.521c-.62.2-1.147.368-1.704.546m1.704-.546 1.236 2.643-1.86.608m1.86-.608 1.102 2.734 1.834-.744.432 1.114m-.432-1.114 1.553-.767m-4.489-1.223 1.71-.68 1.226 2.67m-4.172-4.633 1.567-.611 1.379 2.574 1.54-.746c.43.838.86 1.676 1.292 2.514l.006.012m-4.217-4.354 1.413-.671 1.505 2.5m-5.842-3.739 1.408-.539 1.516 2.449m-4.383-4.28 1.234-.464 1.633 2.295 1.272-.592 1.657 2.37m-4.562-4.073 1.104-.504.013-.006 1.788 2.213m-5.684-3.432 1.048-.387 1.731 2.116m-4.39-3.72.851-.31 1.808 1.914.95-.425 1.898 2.031m-4.656-3.52.132-.058m.806-.13 1.82 1.677m-2.783-1.512.025.023m2.759 1.489.844-.46 2.044 1.942-.99.55m-2.652-3.787 1.598 1.296m-.266-1.206.995.718-.73.488m6.004 9.573 1.356-.802.596 1.05m-3.457-2.748 1.247-.722 1.614 2.42.727-.53m-2.34-1.89 1.069-.764 1.2 1.645m-5.174-2.529 1.125-.637 1.78 2.285m-3.702-4.41 1.897 2.097.025.028m-3.237-4.554 2.168 1.846-.853.583m.853-.583 2.036 2.033-.967.675m.967-.675 1.882 2.196.671-.607m-2.553-1.59.802-.706 1.426 1.529m-4.264-2.855.71-.61 2.128 1.936.285-.33m-2.413-1.606.316-.356m-3.194-.88.487-.408m.46.156 1.905 1.467.026.02M-69.277 233.854l.49-.097.329 1.102m-.33-1.102 2.432-.518 1.085 3.434-.694.148m.694-.148.178.581m7.093-2.331-1.25-3.387 2.3-.617 1.304 3.37-2.354.634m2.354-.634.707 1.892m-2.18 1.21-.88-2.468m-8.357-1.683 2.402-.543 1.14 3.419-2.457.557m6.021-5.137c-1.564.404-3.132.79-4.704 1.16m5.954 2.227-2.39.609-1.195-3.403m-1.229 3.987.625 1.935m1.8-2.519-2.425.584m3.272 1.91-.847-2.494m-10.473-4.987 1.023-.203 1.052 3.415m-1.052-3.415 2.374-.503 1.11 3.4m-4.823-6.224.264-.053 1.075 3.38m-1.262-3.95.187.57m3.449 2.877 2.344-.528 1.167 3.385m-6.96-5.734 2.314-.488 1.135 3.365m-2.63-6.62.336-.07 1.159 3.326m-1.28-3.664.121.337m10.51 8.385-1.28-3.353 2.246-.6 1.335 3.336m-4.636 1.21-1.224-3.37 2.28-.576m-4.593 1.128 2.313-.552m-5.792-2.285 2.285-.512 1.194 3.349m4.593-1.128-1.31-3.316 2.19-.582 1.365 3.298m-4.525 1.176-1.252-3.333 2.223-.559m-4.478 1.095 2.255-.536m-5.698-2.278 2.224-.496 1.22 3.31m4.477-1.095-1.337-3.277 2.132-.564 1.394 3.259m-4.412 1.141-1.279-3.294 2.165-.542m-4.36 1.062 2.195-.52m-2.94-1.44.745 1.96m6.492-1.626a378.918 378.918 0 0 0-1.465-3.3m-.667 3.865-1.364-3.236 2.073-.546m-2.073.546-.037-.085m-.764 3.862-1.162-2.898m1.396-.738.567-.141m4.89 5.93 2.154-.604 1.42 3.28-2.21.623m-2.759-6.558c.7-.195 1.4-.39 2.098-.586l1.451 3.24m-4.971-5.871.53-.148m1.694-.022c.432.934.865 1.867 1.296 2.801m0 0 2.063-.607 1.506 3.222-2.118.626m-.207-5.542.82 1.694 1.624-.504m.722.532 1.24 2.545-2.08.648m2.932-.928-.852.279m-2.779 4.555c.463 1.105.926 2.21 1.388 3.317l-2.263.64m1.573-7.864 1.475 3.261-2.173.646m2.78-4.555 1.526 3.241-2.133.668m2.913-.925-.78.257m-2.918 4.63 1.356 3.352-2.316.66m1.744-7.974 1.441 3.299-2.225.664m2.918-4.63 1.087 2.387m-.071 1.041-1.709.538m-.87 4.015.304.776m.566-4.791.964 2.283m-.746 1.406-1.087.327" color="#000" stroke-width=".079" style="fill:none;stroke:#000;stroke-linejoin:round"/>
<g stroke-width=".5" transform="matrix(.26458 0 0 .26458 -114.075 203.223)" style="fill:none;stroke:#000;stroke-linejoin:round" marker-end="url(#a)">
<path d="M92.312 125.144c4.194 2.132 8.866 4.478 13.06 6.61"/>
<path d="M28.652 124.794c-4.828 2.15-10.133 4.439-14.575 6.42"/>
<path d="M61.142 70.902c-.225-7.952-.486-15.904-.73-23.855"/>
</g>
<g stroke="#009da3" stroke-linejoin="round" stroke-width=".8" transform="matrix(.26458 0 0 .26458 -114.075 203.223)" style="fill:none" color="#000">
<ellipse cx="125.678" cy="37.19" rx="36.314" ry="36.29"/>
<ellipse cx="126.973" cy="40.043" rx="7.747" ry="7.742"/>
<ellipse cx="200.917" cy="93.216" rx="38.83" ry="38.804"/>
<path d="m211.352 55.821-82.885-23.426M169.916 116.61l-49.438-72.373"/>
</g>
<path d="M-111.815 235.107c-.153.029-.21.143-.21.234 0 .114.09.152.157.152.143 0 .244-.124.244-.253 0-.2-.23-.29-.43-.29-.29 0-.453.286-.496.376a.494.494 0 0 0-.491-.376c-.486 0-.744.624-.744.73 0 .018.02.042.052.042.039 0 .048-.028.058-.048.162-.529.481-.63.62-.63.214 0 .257.201.257.316 0 .105-.028.214-.086.443l-.162.654c-.071.286-.21.548-.462.548-.024 0-.143 0-.244-.062a.246.246 0 0 0 .21-.234c0-.095-.071-.152-.162-.152-.114 0-.238.1-.238.253 0 .2.224.29.429.29.229 0 .391-.18.491-.376a.498.498 0 0 0 .491.377c.487 0 .744-.625.744-.73 0-.024-.019-.043-.047-.043-.043 0-.048.024-.062.062-.129.42-.406.615-.62.615-.167 0-.258-.124-.258-.32 0-.104.02-.18.096-.495l.167-.649c.071-.286.233-.496.453-.496.01 0 .143 0 .243.062zM-83.826 238.163c-.129.181-.315.343-.548.343-.058 0-.287-.01-.358-.229a.241.241 0 0 0 .286-.229c0-.11-.09-.147-.162-.147-.076 0-.243.057-.243.29 0 .244.205.41.477.41.477 0 .958-.438 1.092-.967l.467-1.86c.005-.024.015-.053.015-.082 0-.071-.058-.119-.13-.119-.042 0-.142.02-.18.162l-.353 1.403c-.024.085-.024.095-.062.147-.096.134-.253.296-.482.296-.267 0-.291-.262-.291-.39 0-.273.129-.64.258-.983.052-.139.08-.206.08-.3a.37.37 0 0 0-.376-.383c-.439 0-.615.692-.615.73 0 .02.019.043.052.043.043 0 .048-.019.067-.086.114-.4.296-.591.482-.591.042 0 .124 0 .124.157 0 .124-.053.263-.124.444-.234.625-.234.782-.234.897 0 .453.324.558.563.558.138 0 .31-.043.477-.22l.005.005c-.072.282-.12.468-.287.701z" style="stroke-width:.264583;stroke-linejoin:round;stroke-miterlimit:100000"/>
<g stroke-width="1.5" style="stroke-linejoin:round;stroke-miterlimit:100000">
<path d="M-106.545 212.03a.048.048 0 0 0-.052-.047c-.014 0-.019.005-.07.057l-.333.366c-.043-.067-.261-.423-.788-.423-1.058 0-2.125 1.049-2.125 2.15 0 .754.526 1.3 1.295 1.3.209 0 .422-.043.593-.114a.956.956 0 0 0 .413-.29c.043.12.166.295.213.295.024 0 .034-.015.034-.02.01-.009.057-.19.08-.289l.09-.365c.02-.08.043-.161.062-.242.052-.214.057-.223.327-.228.024 0 .076-.005.076-.095 0-.033-.023-.052-.061-.052-.11 0-.39.014-.498.014-.148 0-.518-.014-.665-.014-.042 0-.1 0-.1.095 0 .052.039.052.143.052.005 0 .142 0 .251.01.124.014.148.028.148.09 0 .043-.053.256-.1.432-.133.521-.75.574-.916.574-.455 0-.954-.27-.954-.997 0-.147.048-.93.546-1.546.256-.323.717-.613 1.186-.613.484 0 .764.366.764.916 0 .19-.014.195-.014.242 0 .048.052.048.071.048.062 0 .062-.01.086-.095zM-104.073 216.467c0-.014 0-.024-.08-.104-.593-.598-.745-1.495-.745-2.22 0-.826.18-1.652.764-2.245.061-.057.061-.067.061-.08 0-.034-.019-.048-.047-.048-.048 0-.475.322-.755.925a3.448 3.448 0 0 0-.299 1.447c0 .37.053.944.314 1.48.284.584.692.893.74.893.028 0 .047-.015.047-.048zM-101.255 213.426a.354.354 0 0 0-.256.327c0 .104.08.218.237.218.166 0 .342-.137.342-.37 0-.251-.252-.417-.541-.417-.27 0-.446.204-.508.29-.119-.2-.384-.29-.655-.29-.598 0-.92.583-.92.74 0 .066.071.066.114.066.057 0 .09 0 .109-.061.137-.432.479-.574.674-.574.18 0 .265.085.265.237 0 .09-.066.35-.109.522l-.161.65c-.071.29-.242.431-.403.431-.024 0-.133 0-.228-.07a.354.354 0 0 0 .256-.328c0-.104-.08-.218-.237-.218-.166 0-.342.137-.342.37 0 .251.252.417.541.417.27 0 .446-.204.508-.29.118.2.384.29.654.29.598 0 .92-.583.92-.74 0-.066-.07-.066-.113-.066-.057 0-.09 0-.11.061-.137.432-.478.574-.673.574-.18 0-.266-.085-.266-.237 0-.1.062-.35.105-.526.033-.124.142-.57.166-.646.071-.284.237-.431.403-.431.024 0 .133 0 .228.07zM-99.3 214.142c0-.37-.052-.944-.313-1.48-.285-.584-.693-.892-.74-.892-.029 0-.048.019-.048.047 0 .015 0 .024.09.11.465.47.736 1.224.736 2.215 0 .812-.176 1.647-.764 2.244-.062.057-.062.067-.062.081 0 .029.02.048.048.048.047 0 .474-.323.754-.926a3.448 3.448 0 0 0 .299-1.447z"/>
</g>
<path d="m-98.63 221.349.733.634m-2.884-.453-.597.265-1.497.52m1.497-.52 1.617-.113.063-.004-.237.156-1.913.266.47-.305m1.68-.117 1.599.27.201.035-2.037-.149m-1.913.266-.324.334-1.871.812.48-.489 1.514-.58.2-.077m1.914-.266-.16.171-2.077.43m4.274-.452-2.197.022m-2.077.43-.163.352-1.96.976.252-.517m3.948-1.24-.077.178-2.163.603m4.437-.804-2.274.201m-3.871 1.062-1.593 1.152-.337.667-1.33 1.57.41-.799m2.598-2.073-1.678 1.302m-1.33 1.57-.05.808v.013l-.954 1.88.07-.933.756-1.432.178-.336m1.33-1.57-.028.683-1.352 1.708m3.058-3.693-.007.526-1.7 1.46m3.667-2.962.007.357-1.975 1.145m4.13-2.105.01.18-2.165.78m4.43-1.161-2.264.381m-2.166.78.18.349-1.91 1.313-.245-.517m4.14-1.925.1.175-2.085.954m4.25-1.51-2.166.556m-8.244 6.797-.522 1.972.357 1.007-.075 2.025m.24-5.004.346.925-.51 2.054m1.118-4.86.325.812c-.31.665-.622 1.33-.933 1.994m1.96-4.513.293.673-1.32 1.846m2.971-3.461-1.651 1.615m-1.32 1.846.703.77-.87 2.103-.766-.879m2.253-3.84.612.635-1.229 1.98m2.268-4.23.494.485-1.533 1.765m2.95-3.563.349.325-1.766 1.473m3.5-2.752.183.162-1.917 1.117m3.9-1.835-1.983.718m-8.592 9.614.801.958-.066 2.066m.542-4.199-.476 2.133m7.791-10.572.262.143-1.672 1.263-.507-.289m3.9-1.835-1.721.861m-8.053 10.429 1.23.864-.053 2.105m-.701-5.102 1.17.792c-.14.735-.278 1.47-.416 2.205m.116-5.1 1.064.69-.765 2.205m.93-4.876.916.569-1.08 2.102m1.697-4.436.728.432-1.345 1.902m2.89-3.518-1.545 1.616m-2.426 4.004 1.39.581-.62 2.292-1.535-.668m1.846-4.307 1.188.476-.003.006-.876 2.2m1.036-4.584.937.36-1.094 2.018m1.702-3.995.647.24-1.255 1.737m2.28-3.24.33.12-1.355 1.383m2.745-2.364-1.39.98m-7.154 11.175 1.62.73-.033 2.136m.364-4.403-.332 2.267m5.534-11.905.386.089-.98 1.475-.76-.18m2.746-2.363-1.005 1.068m-5.92 11.816 1.947.556-.008 2.162m-1.606-4.985 1.842.508-.228 2.315m-.995-5.115 1.663.441-.44 2.359m-.344-5.007.009.003 1.406.358-.63 2.288m.309-4.666 1.11.272-.79 2.106m1.696-3.935-.907 1.829m-.788 2.106 1.582.227-.347 2.339-1.866-.278m1.42-4.394 1.236.17-.443 2.163m.113-4.162.845.112-.515 1.887m.649-3.475.426.055-.56 1.533m1.14-2.656-.58 1.123m-4.4 12.318 2.19.352c.008.726.014 1.452.02 2.178m-1.98-4.846 2.07.322-.11 2.346m.345-4.748-.235 2.402m2.68-11.447-.13 1.143-.45-.02m-2.21 12.67 2.334.129.05 2.184m-2.274-4.66 2.205.117.019 2.359m-1.99-4.877 1.984.1-.013 2.418m-1.623-4.857 1.68.081-.044 2.358m-1.193-4.602 1.31.061-.073 2.183m-.722-4.13.893.039-.098 1.908m.215-3.461c-.04.517-.078 1.035-.117 1.553m-.098 1.908 1.328-.052.302 2.167-1.702.069m.17-4.092.904-.035.326 1.89m-1.113-3.408.455-.018.332 1.536m-.657-2.66.325 1.124m-.781 12.797 2.364-.103.08 2.18m-2.463-4.436 2.234-.095.149 2.35m-2.37-4.673 2.01-.083.211 2.406m-.474-4.75.263 2.344m.36 4.757 2.282-.33.108 2.168m-2.539-4.189 2.158-.301.273 2.323m-2.642-4.428 1.942-.263.427 2.368m-2.632-4.448 1.607-.21.04-.006.558 2.296m-2.507-4.247 1.285-.163.663 2.114m-2.273-3.842.877-.108.733 1.836m-1.943-3.263.442-.054.768 1.481m-1.535-2.553.767 1.072m1.501 3.317 1.189-.266.992 2.03-1.518.35m-1.396-3.95.792-.171.022-.005 1.108 1.746m-2.69-3.05.411-.088 1.17 1.391m-2.348-2.376 1.178.985m3.012 12.504 2.092-.536.134 2.144m-2.5-3.93c.66-.165 1.321-.329 1.981-.492l.385 2.278m-2.792-4.154 1.787-.428.62 2.304m-1.448-4.523.828 2.219m.62 2.304 1.716-.656.479 2.219-1.81.715m-1.005-4.582 1.52-.56.032-.011.784 2.22m-3.164-3.868 1.325-.47c.36.726.742 1.49 1.055 2.118m-3.372-3.677 1.042-.355 1.275 1.915m-3.425-3.306.716-.237 1.434 1.628m-3.32-2.783.364-.116 1.523 1.271m-3.066-2.14 1.543.869m6.549 11.369.155 2.114m-5.181-12.212.591-.286 1.694 1.485-.852.429m-2.956-2.9.303-.141 1.811 1.127m-3.657-1.854 1.846.727m6.246 11.51 1.453-.855.171 2.078m-2.103-3.44 1.382-.785.55 2.147m-2.716-3.582 1.254-.685.912 2.12m-3.221-3.552 1.076-.564 1.233 1.996m-2.732-3.776 1.5 1.78m2.144 4.116.998-.876.598 2.07-1.046.953m-1.462-4.267.913-.766.997 2.01m-3.143-3.24.79-.633 1.356 1.863m-3.645-3.01.633-.483 1.656 1.63m-3.983-2.632.444-.324 1.883 1.326m-4.138-2.13.23-.16 2.025.964m-4.101-1.53 2.076.565m8.515 9.863.181 2.037m-6.671-10.935.281-.348 1.994 1.157-.392.517m-3.908-2.29.15-.175c.788.29 1.39.51 2.156.79m-4.382-1.18 2.225.39m-13.236 10.917.36 1.05.81.998 1.244.903 1.64.762 1.97.581 2.218.37 2.362.134c.798-.035 1.596-.07 2.394-.107l2.31-.342 2.119-.56 1.83-.745 1.47-.892 1.056-.995.615-1.05.17-1.061m-.966.074.61-1.007c.063.664.125 1.33.186 1.994m-1.394-3.056.587-.926.622 1.988m-2.206-3.072.544-.813 1.04 1.897m-2.94-2.947.47-.66.01-.013 1.42 1.723m-3.164-3.197 1.744 1.474m1.42 1.723.162-.793.006-.031c.385.658.68 1.162 1.042 1.784l-.17.937m-2.46-3.62.159-.686 1.429 1.585m-3.333-2.373.142-.528 1.762 1.316m-3.897-1.945.11-.358 2.025.987m-4.292-1.42.063-.18 2.204.613m-4.492-.824 2.288.21m8.462 6.286.621 1.906-.17 1.019m-.687-3.837.236.912m-8.462-6.285-.025-.18 2.166.439.063.354m-4.493-.824 2.264.031m6.016 3.096-.156-.671 1.384 1.452.196.785.005.019m-3.19-2.9-.109-.52 1.714 1.164m-3.693-1.986 1.98.822-.347-.492 1.605 1.023.455.633m-3.693-1.986-.23-.337 1.863.667m-3.8-.769-.11-.171 2.048.273m-4.201-.133 2.152-.14m-2.152.14 1.96-.298.192.158m2.049.273-.385-.307 1.68.528.567.446m-4.103-1.098 1.856.124-.523-.266 1.442.408m-2.775-.266-.265-.137a851.89 851.89 0 0 1 1.598-.005m-3.293.44 1.694-.435m-1.694.435 1.366-.547.328.112m-.328-.112 1.286-.11.641.217m-1.927-.107-.379-.084.93-.187m-1.917.818.987-.63-.414-.052.542-.235m-1.115.917.573-.682-.436-.018.138-.252m-.275.952.137-.7-.44.016-.272-.236m.575.92-.304-.684-.43.05-.67-.19m12.96 11.178-.184-1.951-.259-.99-.599-1.83-1.007-1.675-.548-.755-1.291-1.33-.73-.57-1.442-.899-.723-.366-.038-.02-.768-.26c-.308-.104-.626-.18-.94-.264l-.375-.101-.735-.161-.802-.1-.81-.033h-.03l-.81.03h-.04l-.805.094-.023.003-.78.158-.7.215-.77.252-.46.15c-.287.128-.576.255-.864.382l-.688.442-1.45 1.013-.624.627-1.256 1.439-.38.716c-.326.606-.677 1.29-.965 1.85l-.51 1.893-.082 1.013-.078 1.982m10.277-11.942-.402.082-1.047-.114m-.701.215 1.387.01-.304.137m.665-.248-.36.111m1.495.442-1.135-.553m-.36.111 1.495.442" fill="none" stroke="#000" stroke-width=".079" style="stroke-linejoin:round"/>
<circle cx="-94.007" cy="227.901" r="3.87" color="#000" style="fill:none;stroke:#009da3;stroke-width:.211666;stroke-linejoin:round"/>
<path d="m-92.147 231.296 16.708-10.28M-97.6 226.48l8.2-17.786" color="#000" style="fill:none;stroke:#009da3;stroke-width:.211666;stroke-linejoin:round"/>
</g>
</svg>
