<svg width="183.146" height="124.317" viewBox="0 0 48.457 32.892" xml:space="preserve" xmlns="http://www.w3.org/2000/svg">
<defs>
<marker id="a" overflow="visible" orient="auto">
<path d="m-10 0-4 4L0 0l-14-4Z" fill="green" fill-rule="evenodd" stroke="green" stroke-width=".8pt"/>
</marker>
<marker id="c" overflow="visible" orient="auto">
<path d="m-10 0-4 4L0 0l-14-4Z" fill-rule="evenodd" stroke="#000" stroke-width=".8pt"/>
</marker>
<marker id="b" overflow="visible" orient="auto">
<path d="m-10 0-4 4L0 0l-14-4Z" fill="red" fill-rule="evenodd" stroke="red" stroke-width=".8pt"/>
</marker>
</defs>
<path d="m-136.768 263.433-3.927-.769m8.62 1.688-4.693-.919m10.399 2.037-5.707-1.118m12.796 2.507-7.09-1.389m-17.9-2.15 3.575-.656m.342 1.553 3.585-.784m1.167 1.874 3.525-.955m2.363 2.305 3.344-1.187m4.142 2.903 2.947-1.514m-21.073-2.642-3.917-.898m8.67 1.988-4.753-1.09m10.64 2.44-5.888-1.35m13.374 3.066-7.486-1.716m-18.733-2.572 4.176-.766m-.335 1.828 4.252-.93m.494 2.242 4.258-1.152m1.756 2.816 4.132-1.466m3.736 3.641 3.75-1.925m-22.378-3.226-3.841-1.062m8.587 2.374-4.746-1.312m10.76 2.976-6.014-1.664m13.882 3.84-7.868-2.176m-19.547-3.132 4.946-.906m-1.285 2.183 5.126-1.121m-.502 2.733 5.248-1.42m.776 3.52 5.238-1.857m2.936 4.708 4.932-2.533m-33.362-4.217 3.31 1.564 4.294 2.03 5.795 2.738 8.252 3.9m-12.043-10.045-3.66-1.277m8.284 2.89-4.624-1.613m10.648 3.713-6.024-2.1m14.198 4.95-8.174-2.85m-20.256-3.9 5.947-1.09m-2.638 2.654 6.3-1.377m-2.006 3.406 6.629-1.794m-.833 4.533 6.857-2.432m1.395 6.332 6.779-3.481" color="#000" stroke-linecap="round" stroke-width=".079" style="fill:none;stroke:#000" transform="translate(167.698 -243.46)"/>
<path d="M-131.248 267.694v-15.941M-159.465 251.954l28.217-.201" color="#000" stroke-dasharray="2.8, 2.8" stroke-width=".185" style="font-variation-settings:normal;opacity:1;vector-effect:none;fill:none;fill-opacity:1;stroke:#000;stroke-width:.185208;stroke-linecap:butt;stroke-linejoin:miter;stroke-miterlimit:4;stroke-dasharray:.740831,.740831;stroke-dashoffset:0;stroke-opacity:1;-inkscape-stroke:none;stop-color:#000;stop-opacity:1" transform="translate(167.698 -243.46)"/>
<path d="M-159.465 266.079v-20.695" color="#000" marker-end="url(#a)" stroke="green" stroke-width=".212" style="fill:none" transform="translate(167.698 -243.46)"/>
<g stroke-linecap="round" style="fill:none" color="#000">
<path d="M31.613 86.948V33.564" marker-end="url(#b)" stroke="red" transform="matrix(.26458 0 0 .26458 -.132 -.387)"/>
<path d="m31.613 86.948 106.649 6.105" marker-end="url(#b)" stroke="red" transform="matrix(.26458 0 0 .26458 -.132 -.387)"/>
<path d="m31.613 86.948 106.649-54.145" marker-end="url(#c)" stroke="#000" style="marker-end:url(#c)" transform="matrix(.26458 0 0 .26458 -.132 -.387)"/>
</g>
<path d="M4.516 7.776c0-.056 0-.133-.08-.133s-.08.077-.08.136v2.126h-1.02c-.059 0-.136 0-.136.08s.077.08.136.08H5.54c.056 0 .133 0 .133-.08s-.077-.08-.133-.08H4.516zM42.397 16.487c0-.056 0-.13-.08-.13s-.08.088-.08.144v3.205c0 .055 0 .143.08.143s.08-.074.08-.13zm.74.014c0-.056 0-.143-.08-.143s-.08.073-.08.129v3.233c0 .055 0 .129.08.129s.08-.088.08-.143z" fill="red"/>
<path d="M28.9 28.59a.148.148 0 0 0-.098 0c-.022.008-.021.012-.001.061l.085.201a2 2 0 0 0-1.007.11c-.58.233-.546.715.098.991.442.19.946.189 1.267.12l.647-.153a1.507 1.507 0 0 1 1.015.06c.524.21.717.611.272.825a2.06 2.06 0 0 1-1.687.017c-.14-.06-.254-.131-.284-.149-.018-.012-.02-.016-.03-.021a.137.137 0 0 0-.121-.001c-.024.01-.028.017-.025.031.004.02 1.08.735 1.098.743a.15.15 0 0 0 .114.001c.024-.012.023-.017-.004-.082l-.109-.262c.554.053.958-.065 1.226-.194.616-.298.344-.864-.373-1.148a2.417 2.417 0 0 0-.872-.167c-.23-.007-.318.014-.845.136-.133.03-.353.079-.405.092-.174.034-.49.035-.775-.085-.429-.182-.5-.518-.067-.694.37-.15.862-.172 1.45.062.171.068.25.113.283.126a.145.145 0 0 0 .106 0c.044-.02.032-.028-.042-.071l-.915-.548"/>
<g fill="green">
<path d="M11.434.299 12.81.92l.06-.111L11.44 0l-1.433.81.056.111zM11.05 1.933c-.07-.253-.35-.385-.622-.385-.188 0-.33.106-.44.289a1.617 1.617 0 0 0-.193.5c0 .071.076.071.121.071.056 0 .076 0 .102-.025.01-.01.01-.02.04-.147.101-.394.213-.506.344-.506.076 0 .117.05.117.188 0 .086-.02.167-.071.369-.036.142-.086.344-.112.456l-.182.708c-.015.07-.04.167-.04.202 0 .107.08.223.238.223.263 0 .324-.233.359-.384.05-.188.091-.35.142-.567.02-.066.146-.587.157-.603.005-.03.146-.258.313-.394a.825.825 0 0 1 .522-.198c.131 0 .253.05.253.299 0 .288-.223.88-.32 1.134-.055.136-.07.172-.07.258 0 .293.294.455.572.455.536 0 .79-.688.79-.79 0-.07-.077-.07-.122-.07-.06 0-.096 0-.116.066-.167.561-.44.612-.522.612-.035 0-.086 0-.086-.106 0-.117.05-.243.101-.37.081-.207.314-.8.314-1.083 0-.465-.39-.587-.754-.587-.106 0-.476 0-.835.385z"/>
</g>
<path d="M39.138 4.342c0-.476-.351-.476-.356-.476-.21 0-.398.22-.398.398 0 .146.11.21.157.235.22.131.262.226.262.33 0 .115-.304 1.262-.917 1.262-.377 0-.377-.314-.377-.408 0-.304.147-.686.314-1.105a.551.551 0 0 0 .058-.236c0-.303-.304-.471-.592-.471-.555 0-.817.712-.817.817 0 .073.079.073.126.073.063 0 .1 0 .12-.068.168-.565.446-.634.54-.634.037 0 .089 0 .089.11 0 .12-.063.273-.079.315-.24.607-.319.843-.319 1.094 0 .555.45.702.906.702.9 0 1.283-1.487 1.283-1.938z"/>
<path d="M148.422 17.874c0-1.801-1.326-1.801-1.346-1.801-.791 0-1.504.831-1.504 1.504 0 .554.416.792.594.89.831.496.99.852.99 1.248 0 .435-1.149 4.77-3.464 4.77-1.425 0-1.425-1.188-1.425-1.544 0-1.148.554-2.593 1.187-4.176.159-.396.218-.574.218-.891 0-1.148-1.148-1.781-2.236-1.781-2.098 0-3.088 2.691-3.088 3.087 0 .277.297.277.475.277.238 0 .376 0 .455-.257.634-2.137 1.683-2.395 2.039-2.395.138 0 .336 0 .336.416 0 .455-.237 1.029-.297 1.187-.91 2.296-1.207 3.187-1.207 4.137 0 2.098 1.702 2.652 3.424 2.652 3.404 0 4.849-5.62 4.849-7.323z" transform="matrix(.26458 0 0 .26458 -36.605 5.603)" style="fill:red"/>
<path d="M148.422 17.874c0-1.801-1.326-1.801-1.346-1.801-.791 0-1.504.831-1.504 1.504 0 .554.416.792.594.89.831.496.99.852.99 1.248 0 .435-1.149 4.77-3.464 4.77-1.425 0-1.425-1.188-1.425-1.544 0-1.148.554-2.593 1.187-4.176.159-.396.218-.574.218-.891 0-1.148-1.148-1.781-2.236-1.781-2.098 0-3.088 2.691-3.088 3.087 0 .277.297.277.475.277.238 0 .376 0 .455-.257.634-2.137 1.683-2.395 2.039-2.395.138 0 .336 0 .336.416 0 .455-.237 1.029-.297 1.187-.91 2.296-1.207 3.187-1.207 4.137 0 2.098 1.702 2.652 3.424 2.652 3.404 0 4.849-5.62 4.849-7.323z" transform="matrix(.26458 0 0 .26458 2.163 14.513)" style="fill:red"/>
</svg>
