<svg width="141.723" height="102.634" viewBox="0 0 37.498 27.155" xml:space="preserve" xmlns="http://www.w3.org/2000/svg">
<defs>
<marker id="a" overflow="visible" orient="auto">
<path d="m-4 0-2 2 7-2-7-2Z" fill-rule="evenodd" stroke="#000" stroke-width=".4pt"/>
</marker>
<marker id="b" overflow="visible" orient="auto">
<path d="m-4 0-2 2 7-2-7-2Z" fill="red" fill-rule="evenodd" stroke="red" stroke-width=".4pt"/>
</marker>
<marker id="c" overflow="visible" orient="auto">
<path d="m-4 0-2 2 7-2-7-2Z" fill="red" fill-rule="evenodd" stroke="red" stroke-width=".4pt"/>
</marker>
</defs>
<g transform="translate(110.248 -250.49)">
<g color="#000">
<path d="m12.665 16.533 18.504 16.11" fill="none" marker-end="url(#a)" stroke="#000" style="isolation:auto;mix-blend-mode:normal;marker-end:url(#a)" transform="matrix(.26458 0 0 .26458 -110.38 250.358)"/>
<path d="m30.805 49.568 10.178-2.989-6.472-8.38 9.996 3.545-.293-10.57 5.996 8.724 5.997-8.724-.294 10.57L65.91 38.2l-6.471 8.38 10.177 2.988-10.177 2.988 6.471 8.38-9.996-3.545.294 10.57-5.997-8.723-5.996 8.723.293-10.57-9.996 3.544 6.472-8.38z" fill="#f4ff00" stroke="#c2c216" stroke-miterlimit="5" style="isolation:auto;mix-blend-mode:normal" transform="matrix(.26458 0 0 .26458 -110.38 250.358)"/>
<path fill="#cacaca" style="isolation:auto;mix-blend-mode:normal" d="M.5 49.856h141.723v53.278H.5z" transform="matrix(.26458 0 0 .26458 -110.38 250.358)"/>
</g>
<g fill="red" stroke-width="1.5">
<path d="M-79.069 274.209c0-.096-.08-.19-.193-.19-.1 0-.189.08-.189.19 0 .12.096.193.19.193a.19.19 0 0 0 .192-.193zm-.505.621v.12c.21 0 .24.02.24.182v.864c0 .143-.034.143-.25.143v.12c.007 0 .24-.014.372-.014.116 0 .236.003.352.013v-.12c-.192 0-.226 0-.226-.139v-1.205zM-76.99 275.252c0-.289-.142-.458-.497-.458a.593.593 0 0 0-.542.322h-.003v-.322l-.488.036v.12c.222 0 .249.023.249.186v.86c0 .143-.033.143-.25.143v.12c.007 0 .24-.014.38-.014.122 0 .351.01.381.013v-.12c-.216 0-.249 0-.249-.142v-.598c0-.349.276-.511.495-.511.233 0 .262.182.262.352v.757c0 .143-.033.143-.249.143v.12c.007 0 .24-.014.379-.014.123 0 .352.01.382.013v-.12c-.216 0-.25 0-.25-.142zM-77.864 253.735c0-.415-.355-.774-.814-.774-.458 0-.813.359-.813.774 0 .412.365.74.813.74.449 0 .814-.328.814-.74zm-.814.634a.487.487 0 0 1-.411-.203c-.09-.136-.1-.308-.1-.461 0-.143.003-.339.12-.482a.516.516 0 0 1 .391-.17c.196 0 .336.094.409.197.093.13.103.295.103.455 0 .16-.01.335-.106.471a.489.489 0 0 1-.406.193zM-76.538 253.014v.12c.223 0 .25.023.25.185v.568c0 .293-.19.495-.442.495-.303 0-.316-.143-.316-.312v-1.093l-.511.037v.12c.249 0 .249.01.249.305v.498c0 .23 0 .538.554.538.073 0 .316 0 .475-.279h.004v.28l.498-.034v-.12c-.223 0-.25-.023-.25-.185v-1.16ZM-74.981 253.13h.518v-.12h-.518v-.61h-.113c-.003.298-.14.627-.458.637v.093h.308v.897c0 .372.28.448.465.448.223 0 .376-.19.376-.451v-.183h-.113v.18c0 .225-.107.348-.236.348-.23 0-.23-.28-.23-.339z"/>
</g>
<path d="M-84.608 252.515v21.915" color="#000" fill="none" stroke="#000" stroke-dasharray="3, 3" stroke-width=".132" style="font-variation-settings:normal;opacity:1;isolation:auto;mix-blend-mode:normal;vector-effect:none;fill:none;fill-opacity:1;stroke:#000;stroke-width:.185208;stroke-linecap:butt;stroke-linejoin:miter;stroke-miterlimit:4;stroke-dasharray:.740831,.740831;stroke-dashoffset:0;stroke-opacity:1;-inkscape-stroke:none;stop-color:#000;stop-opacity:1"/>
<path d="M-83.465 258.006h-2.287v-.33h2.287zm0 .868h-2.287v-.33h2.287zM-83.465 268.964h-2.287v-.331h2.287zm0 .868h-2.287v-.331h2.287z" color="#000" style="text-indent:0;text-decoration-line:none;text-transform:none"/>
<path d="m-97.096 263.473 12.488 10.957" color="#000" fill="none" marker-end="url(#b)" stroke="red" style="isolation:auto;mix-blend-mode:normal;stroke-width:.264584"/>
<circle transform="rotate(-26.402)" cx="-209.137" cy="180.57" r="1.323" color="#000" fill="#5e5bff" style="stroke-width:.264584"/>
<path d="m-97.096 263.473 12.488-10.958" color="#000" fill="none" marker-end="url(#c)" stroke="red" style="isolation:auto;mix-blend-mode:normal;stroke-width:.264584"/>
<path d="M-110.248 263.55h37.497" color="#000" fill="none" stroke="#555" stroke-linejoin="round" stroke-miterlimit="100" stroke-width=".794" style="isolation:auto;mix-blend-mode:normal"/>
<g fill="red">
<path d="M-80.933 250.742a.254.254 0 0 0-.508 0 .254.254 0 0 0 .508 0zM-80.205 251.828a.354.354 0 0 0-.256.327c0 .105.08.218.237.218.166 0 .342-.137.342-.37 0-.251-.251-.417-.54-.417-.271 0-.447.204-.509.29-.118-.2-.384-.29-.654-.29-.598 0-.92.583-.92.74 0 .066.07.066.113.066.057 0 .09 0 .11-.061.137-.432.478-.574.673-.574.18 0 .266.085.266.237 0 .09-.067.351-.11.522l-.16.65c-.072.29-.243.432-.404.432-.024 0-.133 0-.228-.072a.354.354 0 0 0 .256-.327c0-.104-.08-.218-.237-.218-.166 0-.342.137-.342.37 0 .251.252.417.541.417.27 0 .446-.204.508-.289.119.2.384.29.655.29.598 0 .92-.584.92-.74 0-.067-.07-.067-.114-.067-.056 0-.09 0-.109.061-.137.432-.479.575-.673.575-.18 0-.266-.086-.266-.238 0-.1.062-.35.104-.526.033-.124.143-.57.166-.646.071-.284.238-.431.404-.431.023 0 .132 0 .227.07z"/>
</g>
<g fill="red">
<path d="M-81.081 272.558a.254.254 0 0 0-.508 0 .254.254 0 0 0 .508 0zM-80.353 273.644a.354.354 0 0 0-.257.327c0 .105.081.218.238.218.166 0 .341-.137.341-.37 0-.251-.251-.417-.54-.417-.271 0-.447.204-.508.29-.119-.2-.385-.29-.655-.29-.598 0-.92.583-.92.74 0 .066.07.066.113.066.057 0 .09 0 .11-.061.137-.432.479-.574.673-.574.18 0 .266.085.266.237 0 .09-.067.351-.11.522l-.16.65c-.072.29-.243.432-.404.432-.024 0-.133 0-.228-.072a.354.354 0 0 0 .257-.327c0-.104-.081-.218-.238-.218-.166 0-.341.137-.341.37 0 .251.251.417.54.417.271 0 .447-.204.508-.289.119.2.385.29.655.29.598 0 .92-.584.92-.74 0-.067-.07-.067-.113-.067-.057 0-.09 0-.11.061-.137.432-.479.575-.673.575-.18 0-.266-.086-.266-.238 0-.1.062-.35.105-.526.033-.124.142-.57.166-.646.07-.284.237-.431.403-.431.024 0 .133 0 .228.07z"/>
</g>
</g>
</svg>
