<svg width="204.655" height="162.969" viewBox="0 0 54.148 43.119" xml:space="preserve" xmlns="http://www.w3.org/2000/svg">
<g transform="translate(230.741 -249.878)">
<path style="font-variation-settings:normal;opacity:1;fill:none;fill-opacity:1;stroke:#0f0000;stroke-width:.264583;stroke-linecap:butt;stroke-linejoin:round;stroke-miterlimit:100;stroke-dasharray:.529167,1.05833;stroke-dashoffset:0;stroke-opacity:1;stop-color:#000;stop-opacity:1" d="M-179.85 264.139c-1.123-1.534-2.247-2.556-3.372-3.068-1.124-.512-2.248-.511-3.372 0-1.125.511-2.248 1.535-3.373 3.068-1.124 1.534-2.248 3.58-3.372 6.136-1.124 2.557-2.249 5.626-3.44 9.205-1.19-3.58-2.314-6.647-3.438-9.205-1.124-2.557-2.248-4.601-3.372-6.136-1.125-1.534-2.249-2.556-3.373-3.068s-2.248-.511-3.373 0c-1.124.511-2.248 1.535-3.372 3.068-1.124 1.534-2.248 3.58-3.373 6.136-1.124 2.557-2.248 5.626-3.438 9.205-1.19-3.58-2.315-6.647-3.439-9.205-1.124-2.557-2.248-4.601-3.373-6.136-1.124-1.534-2.248-2.556-3.372-3.068"/>
<path d="m-225.111 279.48 2.409-.707-1.532-1.982 2.366.838-.07-2.5 1.42 2.063 1.419-2.063-.07 2.5 2.366-.838-1.531 1.982 2.408.707-2.408.707 1.531 1.982-2.366-.839.07 2.5-1.42-2.063-1.419 2.064.07-2.5-2.366.838 1.532-1.982zM-201.37 279.48l2.408-.707-1.532-1.982 2.366.838-.07-2.5 1.42 2.063 1.42-2.063-.07 2.5 2.365-.838-1.531 1.982 2.409.707-2.41.707 1.532 1.982-2.365-.839.07 2.5-1.42-2.063-1.42 2.064.07-2.5-2.366.838 1.532-1.982z" color="#000" fill="#f4ff00" stroke="#c2c216" stroke-miterlimit="5" style="isolation:auto;mix-blend-mode:normal;stroke-width:.264584;shape-rendering:auto"/>
<path color="#000" fill="#cacaca" style="font-variation-settings:normal;opacity:1;isolation:auto;mix-blend-mode:normal;vector-effect:none;fill:#e5e5e5;fill-opacity:1;stroke:none;stroke-width:.264584;stroke-linecap:butt;stroke-linejoin:miter;stroke-miterlimit:4;stroke-dasharray:none;stroke-dashoffset:0;stroke-opacity:1;-inkscape-stroke:none;shape-rendering:auto;stop-color:#000;stop-opacity:1" d="M-230.741 280.009h54.148v4.685h-54.148z"/>
<path d="M-230.741 280.009h54.148" color="#000" fill="none" stroke="#555" stroke-linejoin="round" stroke-miterlimit="100" stroke-width=".794" style="isolation:auto;mix-blend-mode:normal;shape-rendering:auto"/>
<circle transform="rotate(-11.402)" cx="-228.518" cy="223.371" r="1.323" color="#000" fill="#5e5bff" style="stroke-width:.264583"/>
<path d="M-203.31 252.93c-.015.07-.043.18-.043.203 0 .086.066.128.137.128a.194.194 0 0 0 .176-.133c.005-.009.062-.232.09-.35l.104-.428c.029-.104.057-.208.081-.318l.062-.237c.071-.147.322-.579.773-.579.214 0 .256.176.256.332 0 .12-.033.252-.07.394l-.134.55-.094.361c-.02.095-.062.256-.062.28 0 .086.066.128.137.128.147 0 .176-.118.214-.27.066-.266.242-.959.285-1.144.014-.061.265-.63.782-.63.204 0 .257.16.257.331 0 .27-.2.812-.294 1.063a.648.648 0 0 0-.062.261c0 .223.166.39.389.39.446 0 .621-.693.621-.731 0-.048-.042-.048-.056-.048-.048 0-.048.014-.072.086-.07.251-.223.588-.484.588-.08 0-.113-.048-.113-.157 0-.118.042-.232.085-.337.09-.246.29-.773.29-1.043 0-.309-.19-.508-.546-.508-.356 0-.598.209-.774.46a.478.478 0 0 0-.152-.337.601.601 0 0 0-.389-.123c-.427 0-.66.304-.74.413a.428.428 0 0 0-.436-.413c-.219 0-.309.185-.351.27a2.067 2.067 0 0 0-.147.46c0 .048.047.048.056.048.048 0 .053-.005.081-.11.08-.336.176-.564.347-.564.075 0 .147.038.147.218 0 .1-.015.152-.076.399zM-198.237 250.206a.24.24 0 0 0-.237-.237.235.235 0 0 0-.237.237c0 .133.104.238.237.238a.24.24 0 0 0 .237-.238zm.916 0a.235.235 0 0 0-.237-.237.24.24 0 0 0-.238.237.24.24 0 0 0 .238.238.235.235 0 0 0 .237-.238zM-197.034 251.306a.354.354 0 0 0-.257.328c0 .104.081.218.238.218.166 0 .341-.137.341-.37 0-.251-.251-.417-.54-.417-.271 0-.447.204-.508.289-.119-.2-.385-.29-.655-.29-.598 0-.92.584-.92.74 0 .067.07.067.113.067.057 0 .09 0 .11-.062.137-.431.479-.574.673-.574.18 0 .266.086.266.237 0 .09-.066.352-.11.522l-.16.65c-.072.29-.242.432-.404.432-.023 0-.133 0-.228-.071a.354.354 0 0 0 .257-.327c0-.105-.081-.219-.238-.219-.166 0-.341.138-.341.37 0 .252.251.418.54.418.271 0 .447-.204.508-.29.119.2.385.29.655.29.598 0 .92-.584.92-.74 0-.067-.07-.067-.113-.067-.057 0-.09 0-.11.062-.137.432-.479.574-.673.574-.18 0-.266-.085-.266-.237 0-.1.062-.351.105-.527.033-.123.142-.569.166-.645.07-.285.237-.432.403-.432.024 0 .133 0 .228.071zM-191.873 251.658c.071 0 .161 0 .161-.095s-.09-.095-.156-.095h-2.842c-.067 0-.157 0-.157.095s.09.095.162.095zm.005.92c.067 0 .157 0 .157-.095s-.09-.095-.162-.095h-2.832c-.071 0-.161 0-.161.095s.09.095.156.095zM-188.103 251.326h.555c.09 0 .176 0 .176-.138 0-.085-.08-.085-.161-.085h-.532l.157-.86c.014-.085.014-.094.061-.137.062-.057.114-.057.138-.057.066 0 .11.01.166.033a.36.36 0 0 0-.2.309c0 .142.115.218.233.218.195 0 .342-.17.342-.351 0-.242-.247-.38-.54-.38a.755.755 0 0 0-.656.356c-.109.176-.137.36-.227.869h-.465c-.09 0-.171 0-.171.137 0 .086.08.086.156.086h.437l-.36 2.02c-.01.044-.062.342-.086.409-.01.024-.086.242-.237.242a.357.357 0 0 1-.162-.029.362.362 0 0 0 .21-.313c0-.142-.115-.218-.233-.218a.351.351 0 0 0-.342.351c0 .256.27.38.517.38.356 0 .603-.351.64-.413.205-.313.314-.916.328-.997z"/>
<g aria-label="弾性衝突公式" style="font-size:3.52778px;line-height:1.25;font-family:Meiryo;-inkscape-font-specification:Meiryo;stroke-width:.264583">
<path d="M-218.266 290.42q-.09-.32-.179-.542l.241-.055q.15.387.188.537zm-.06 2.564v-.559h-.889v-.208h.89v-.332h-.757v-1.3h1.264q.248-.48.341-.73l.27.062q-.11.257-.356.669h.274v1.299h-.775v.332h.9v.208h-.9v.559zm-.508-1.85h.515v-.374h-.515zm.76 0h.528v-.374h-.528zm.528.179h-.528v.382h.528zm-.773 0h-.515v.382h.515zm-.565-.784q-.141-.357-.241-.548l.234-.08q.103.221.241.542-.088.036-.234.086zm-1.187.4-.026.528h.75q0 .359-.014.646-.012.286-.038.5-.014.117-.036.162-.023.045-.067.086-.045.043-.114.076-.067.034-.147.044l-.46.01-.04-.235h.35q.188 0 .245-.129.057-.13.057-.972h-.506v.093h-.245l.046-.99h.712v-.59h-.744v-.194h1.004v.965zM-215.827 292.908v-.22h1.029v-.958h-.846v-.212h.846v-.76h-.565q-.13.308-.302.551l-.208-.108q.15-.22.293-.574.143-.355.188-.636l.27.04q-.052.233-.158.515h.482v-.698h.274v.698h.882v.212h-.882v.76h.799v.212h-.8v.957h.958v.22zm-.583.09v-3.136h.253v3.135zm.454-2.118-.112-.473.202-.047.112.467zm-.775.605-.222-.047q.098-.379.122-.96l.231.008q-.007.198-.048.522-.04.322-.083.477zM-212.476 292.91l-.04-.223q.185-.005.68-.051v-.312h-.647v-.188h.648v-.258h-.569v-1.055h.569v-.227h-.641v-.186h.64v-.234q-.337.022-.571.03l-.036-.192q.747-.016 1.338-.122l.083.194q-.2.038-.565.07v.254h.644v.186h-.644v.227h.568v1.055h-.568v.258h.62v.188h-.62v.287q.439-.044.644-.075v.194q-.264.054-1.533.18zm1.225-1.91h-.343v.27h.343zm-.577 0h-.342v.27h.342zm.577.432h-.343v.273h.343zm-.577 0h-.342v.273h.342zm-1.415-.619-.155-.151q.415-.376.619-.764l.234.08q-.109.203-.319.453-.208.248-.379.382zm2.427-.64v-.195h.712v.194zm-2.132 2.805v-1.438q-.203.252-.353.388l-.14-.147q.193-.186.405-.487.212-.302.336-.572l.224.079q-.088.215-.291.501h.074v1.676zm2.377-.01h-.336l-.024-.208h.245q.058 0 .1-.033.043-.033.043-.083v-1.572h-.32v-.199h.814v.199h-.238v1.622q0 .274-.284.274zM-208.034 290.424h-.479q-.015.789-1.076.982l-.067-.183q.435-.08.654-.267.22-.19.236-.532h-.737v.32h-.24v-.522h1.392v-.35h.274v.35h1.435v.496h-.241v-.294h-.906v.575q0 .05.027.083.03.03.076.043.048.012.159.012.198 0 .272-.005.076-.007.115-.06.042-.054.042-.255l.208.02v.231q0 .099-.065.162-.064.062-.147.08-.082.017-.37.017-.203 0-.312-.003-.107-.005-.179-.078-.07-.072-.07-.177zm-.163 1.612q-.181.36-.605.625-.422.264-.897.333l-.08-.202q.481-.091.848-.325.367-.235.513-.536h-1.347v-.222h1.418v-.346h.277v.346h1.468v.222h-1.406q.391.59 1.385.829l-.112.211q-.479-.098-.877-.346-.396-.25-.585-.589zM-203.17 291.478q-.376-.319-.716-.746-.337-.429-.477-.754l.245-.083q.23.446.566.823.338.378.583.565zm-2.98.017-.17-.162q.691-.556 1.068-1.41l.267.065q-.13.357-.467.792-.335.434-.699.715zm-.03 1.428-.04-.255q.19-.003.457-.015.213-.353.47-.905t.351-.878l.281.06q-.112.33-.353.853-.241.522-.462.854 1.3-.074 1.797-.155-.302-.542-.413-.716l.24-.105q.102.148.347.578.244.43.355.65l-.259.09q-.029-.063-.153-.285-.715.105-2.618.23zM-202.766 290.724v-.22h1.838l.003-.645h.277v.644h1.134v.22h-1.132q.009.47.095.87.087.4.292.73.205.326.333.326.11 0 .127-.18l.024-.212q.01-.114.016-.22l.224.039q0 .361-.047.632-.046.27-.265.27-.13 0-.232-.067-.102-.065-.27-.262-.168-.196-.302-.487-.133-.293-.2-.682-.067-.39-.076-.756zm2.78-.235q-.046-.063-.427-.472l.212-.136q.148.147.436.45zm-2.7 2.4-.044-.234q.279-.02.784-.071v-1.149h-.67v-.212h1.569v.212h-.625v1.12q.59-.066.794-.102l.009.224q-.154.034-.801.107-.648.074-1.017.105z"/>
</g>
<path style="font-variation-settings:normal;vector-effect:none;fill:none;fill-opacity:1;stroke:#000;stroke-width:.0529167;stroke-linecap:butt;stroke-linejoin:miter;stroke-miterlimit:4;stroke-dasharray:none;stroke-dashoffset:0;stroke-opacity:1;-inkscape-stroke:none;stop-color:#000" d="m-198.219 254.58-28.886 8.112M-196.778 278.95l-14.05 9.56M-198.219 254.58l-6.039 7.34M-198.219 254.58l6.755 10.357M-220.518 278.95l9.69 9.56"/>
</g>
</svg>
