<svg width="166.611" height="116.028" viewBox="0 0 44.083 30.699" xml:space="preserve" xmlns="http://www.w3.org/2000/svg">
<defs>
<marker id="a" overflow="visible" orient="auto">
<path d="m-4 0-2 2 7-2-7-2Z" fill="red" fill-rule="evenodd" stroke="red" stroke-width=".4pt"/>
</marker>
</defs>
<g transform="translate(61.229 -126.77)">
<path d="M-17.146 140.084c-17.23 0-34.307 3.96-43.734 17.12h43.734z" color="#000" fill="#dcdcdc" style="isolation:auto;mix-blend-mode:normal;stroke-width:.264585"/>
<path d="M-60.906 157.24c9.422-13.19 26.514-17.156 43.76-17.156" color="#000" stroke="#555" stroke-linejoin="round" stroke-miterlimit="100" stroke-width=".794" style="isolation:auto;mix-blend-mode:normal;fill:none"/>
<path d="m-56.988 149.028 26.894-10.25M-39.682 142.366l-1.42-3.754-3.727 1.43" stroke="#000" stroke-width=".265" style="fill:none"/>
<path d="m-43.54 143.903-5.197-13.635" marker-end="url(#a)" stroke="red" stroke-width=".529" style="fill:none;marker-end:url(#a)"/>
<path d="M-43.477 128.605h.592c.097 0 .188 0 .188-.147 0-.091-.086-.091-.172-.091h-.567l.167-.916c.015-.091.015-.101.065-.147.066-.06.122-.06.147-.06.071 0 .117.01.177.035a.384.384 0 0 0-.212.329c0 .152.121.233.248.233a.375.375 0 0 0 .364-.375c0-.258-.263-.405-.577-.405a.806.806 0 0 0-.698.38c-.117.187-.147.384-.243.926h-.496c-.096 0-.182 0-.182.147 0 .09.086.09.167.09h.465l-.384 2.157c-.01.045-.066.364-.091.435-.01.025-.091.258-.253.258a.38.38 0 0 1-.172-.03.386.386 0 0 0 .222-.334c0-.152-.121-.233-.248-.233a.375.375 0 0 0-.364.374c0 .274.288.405.551.405.38 0 .643-.374.684-.44.217-.334.334-.977.349-1.063zM-40.836 126.937a.163.163 0 0 0-.099.156.16.16 0 0 0 .167.167c.095 0 .17-.06.17-.174 0-.315-.493-.315-.592-.315-.531 0-.86.407-.86.814 0 .447.378.801.842.801.528 0 .652-.418.652-.46 0-.043-.046-.043-.06-.043-.046 0-.05.01-.067.06a.486.486 0 0 1-.482.33c-.245 0-.564-.18-.564-.691 0-.45.22-.698.55-.698.046 0 .216 0 .343.053z" fill="red" style="stroke-linejoin:round;stroke-miterlimit:100000"/>
<circle transform="rotate(-26.402)" cx="-102.863" cy="108.252" color="#000" fill="#5e5bff" style="stroke-width:.264583" r="1.323"/>
</g>
</svg>
