<svg width="174.254" height="92.84" viewBox="0 0 46.105 24.564" xml:space="preserve" xmlns="http://www.w3.org/2000/svg">
<g stroke-linejoin="round">
<path d="M173.37 1.237c-14.446 34.59-48.257 57.116-85.742 57.125C50.103 58.326 16.28 35.728 1.886 1.075V93.34H173.37z" color="#000" fill="#cacaca" style="isolation:auto;mix-blend-mode:normal" transform="matrix(.26458 0 0 .26458 -.132 -.132)"/>
<path d="M173.37 1.237c-14.446 34.59-48.257 57.116-85.742 57.125C50.103 58.326 16.28 35.728 1.886 1.075" color="#000" fill="none" stroke="#555" stroke-miterlimit="100" stroke-width="3" style="isolation:auto;mix-blend-mode:normal" transform="matrix(.26458 0 0 .26458 -.132 -.132)"/>
<path d="M29.854 20.849c.086 0 .177 0 .177-.101 0-.102-.091-.102-.177-.102h-2.738c-.086 0-.178 0-.178.102 0 .1.092.1.178.1zM28.52 6.293h1.412c.071 0 .167 0 .167-.101s-.096-.101-.167-.101H28.52V4.673c0-.07 0-.167-.101-.167s-.101.097-.101.167v1.418H26.9c-.071 0-.167 0-.167.1 0 .102.096.102.167.102h1.417V7.71c0 .07 0 .167.1.167.102 0 .102-.096.102-.167z"/>
</g>
<path d="M19.599 3.94c0-.016-.01-.051-.056-.051-.015 0-.02.005-.076.06l-.354.39c-.045-.07-.278-.45-.84-.45-1.129 0-2.267 1.118-2.267 2.293 0 .804.561 1.386 1.381 1.386.223 0 .45-.045.633-.121a1.02 1.02 0 0 0 .44-.309c.046.127.177.314.228.314.025 0 .035-.015.035-.02a2.9 2.9 0 0 0 .086-.31l.097-.389c.02-.086.045-.172.065-.258.056-.228.061-.238.35-.243.025 0 .08-.005.08-.101 0-.036-.025-.056-.065-.056-.117 0-.415.015-.532.015-.157 0-.551-.015-.708-.015-.046 0-.106 0-.106.101 0 .056.04.056.151.056.005 0 .152 0 .269.01.131.015.156.03.156.096 0 .046-.055.274-.106.461-.142.557-.8.612-.977.612-.485 0-1.017-.288-1.017-1.062 0-.157.05-.992.582-1.65.273-.345.764-.653 1.265-.653.517 0 .815.39.815.977 0 .202-.015.207-.015.258 0 .05.056.05.076.05.066 0 .066-.01.091-.1zM24.6 5.802c.076 0 .172 0 .172-.101 0-.102-.096-.102-.167-.102h-3.032c-.07 0-.167 0-.167.102 0 .1.097.1.172.1zm.005.982c.07 0 .167 0 .167-.101 0-.102-.096-.102-.172-.102h-3.022c-.076 0-.172 0-.172.102 0 .1.096.1.167.1zM19.667 18.496c0-.016-.01-.051-.055-.051-.016 0-.02.005-.076.06l-.355.39c-.045-.07-.278-.45-.84-.45-1.128 0-2.267 1.118-2.267 2.293 0 .804.562 1.386 1.382 1.386.222 0 .45-.045.632-.121a1.02 1.02 0 0 0 .44-.309c.046.127.178.314.228.314.026 0 .036-.015.036-.02a2.9 2.9 0 0 0 .086-.31l.096-.389c.02-.086.045-.172.066-.258.055-.228.06-.238.349-.243.025 0 .08-.005.08-.101 0-.035-.024-.056-.065-.056-.116 0-.415.016-.531.016-.157 0-.552-.016-.709-.016-.045 0-.106 0-.106.102 0 .055.04.055.152.055.005 0 .151 0 .268.01.131.016.157.03.157.096 0 .046-.056.274-.107.461-.141.557-.8.612-.976.612-.486 0-1.018-.288-1.018-1.062 0-.157.051-.992.582-1.65.274-.344.765-.653 1.266-.653.516 0 .815.39.815.977 0 .202-.016.207-.016.258 0 .05.056.05.076.05.066 0 .066-.01.091-.1zM24.668 20.358c.076 0 .172 0 .172-.101s-.096-.101-.167-.101h-3.031c-.071 0-.167 0-.167.1 0 .102.096.102.172.102zm.005.982c.071 0 .167 0 .167-.101 0-.102-.096-.102-.172-.102h-3.021c-.076 0-.172 0-.172.102 0 .1.096.1.167.1z"/>
</svg>
