<svg width="159.001" height="118.989" viewBox="0 0 42.069 31.483" xml:space="preserve" xmlns="http://www.w3.org/2000/svg">
<defs>
<marker id="a" overflow="visible" orient="auto">
<path d="m-10 0-4 4L0 0l-14-4Z" fill="red" fill-rule="evenodd" stroke="red" stroke-width=".8pt"/>
</marker>
</defs>
<path d="m-18.128 226.204-3.927-.77m8.62 1.689-4.693-.92m10.4 2.038-5.707-1.118M-.64 229.63l-7.09-1.39m-17.9-2.15 3.574-.656m.343 1.553 3.584-.783m1.168 1.873 3.525-.954m2.363 2.304 3.343-1.186m4.143 2.902 2.947-1.513m-21.073-2.643-3.917-.898m8.669 1.988-4.752-1.09m10.64 2.44-5.888-1.35m13.374 3.066-7.486-1.716m-18.734-2.572 4.177-.766m-.336 1.828 4.253-.93m.494 2.243 4.258-1.153m1.756 2.816 4.132-1.466m3.736 3.642 3.75-1.926m-22.379-3.226-3.84-1.062m8.587 2.375-4.747-1.313m10.76 2.976-6.013-1.663m13.882 3.839-7.868-2.176m-19.547-3.132 4.945-.906m-1.284 2.183 5.125-1.12m-.502 2.732 5.249-1.42m.775 3.521 5.239-1.858m2.935 4.709 4.933-2.533M-40.7 228.85l3.31 1.564 4.294 2.03 5.796 2.739 8.251 3.9m-12.042-10.046-3.661-1.277m8.284 2.89-4.623-1.613m10.647 3.713-6.024-2.1m14.198 4.95-8.174-2.85m-20.256-3.9 5.948-1.09m-2.638 2.654 6.299-1.377m-2.005 3.407 6.628-1.795m-.832 4.534 6.856-2.433m1.395 6.332 6.78-3.481" color="#000" stroke="#000" stroke-width=".079" style="fill:none;stroke-linecap:round" transform="translate(42.668 -207.64)"/>
<path d="M-40.825 228.849v-20.695" color="#000" marker-end="url(#a)" stroke="red" style="isolation:auto;mix-blend-mode:normal;fill:none;stroke-width:.264583;stroke-linecap:round" transform="translate(42.668 -207.64)"/>
<path d="m-40.825 228.849 28.218 1.615" color="#000" marker-end="url(#a)" stroke="red" style="fill:none;stroke-width:.264583;stroke-linecap:round" transform="translate(42.668 -207.64)"/>
<path d="M31.909 17.05c-.593.142-1.054.759-1.054 1.333 0 .456.304.797.75.797.555 0 .949-.745.949-1.4 0-.431-.19-.669-.351-.882-.171-.214-.451-.57-.451-.778 0-.105.095-.218.261-.218.142 0 .237.061.337.128.095.057.19.118.26.118.12 0 .19-.114.19-.19 0-.104-.075-.118-.246-.156-.247-.052-.313-.052-.39-.052-.37 0-.54.204-.54.488 0 .257.138.522.285.812zm.057.104c.118.218.26.475.26.816 0 .313-.18 1.106-.621 1.106-.261 0-.456-.2-.456-.56 0-.299.176-1.191.817-1.362zM31.401 24.82c-.42-.12-.85-.232-1.335-.296-.625-.082-.962-.001-1.095.052-.191.078-.296.212.042.41.252.152.644.284 1.07.414.406.123.913.268 1.469.337.595.074.937 0 1.088-.073.165-.08.275-.224-.125-.44-.284-.154-.692-.282-1.114-.403m1.114.806c-.12.057-.447.102-1.043-.034-.367-.084-.869-.235-1.185-.33-.34-.103-.686-.207-.94-.302-.544-.207-.348-.318-.269-.35.105-.043.402-.101.962.02.318.071.713.186 1.045.282.4.116.769.223 1.087.34.484.176.48.308.343.374m-3.833.359c.053-.023.119-.052.01-.087a.28.28 0 0 0-.222.015l-2.217.962c-.055.024-.13.057-.02.096.109.04.183.007.242-.019l2.207-.967m1.076.346c.048-.022.114-.052.002-.089-.112-.036-.178-.006-.23.018l-2.195 1c-.058.027-.133.06-.019.101.115.042.189.007.243-.018l2.2-1.012m-6.823.568a.147.147 0 0 0-.097 0c-.013.005-.012.009-.003.049l.094.275c-.111-.012-.695-.082-1.186.114-1.019.409-.945 1.35.33 1.915.917.406 2.14.453 2.9.089.201-.097.351-.217.423-.331.103-.155.063-.245.024-.33.187.04.522.075.565.054.022-.01.013-.021.007-.024a3.777 3.777 0 0 0-.288-.178l-.366-.216c-.08-.046-.156-.095-.236-.14-.208-.122-.215-.129.024-.24.021-.01.062-.033-.044-.075a.155.155 0 0 0-.117.001c-.099.044-.336.164-.436.208-.136.06-.498.207-.636.269-.04.018-.095.042.018.087.062.026.098.01.197-.034.004-.002.133-.06.247-.102.132-.044.17-.047.244-.018.051.02.26.145.43.251.523.318.005.622-.155.698-.445.212-1.283.301-2.171-.085-.176-.077-1.043-.495-1.24-1.004-.103-.254.029-.565.475-.745.45-.182 1.103-.13 1.714.109.215.083.207.091.261.112.054.021.102.001.119-.006.056-.024.045-.028-.03-.075l-1.066-.627"/>
<path d="m-40.825 224.549 4.294.239v4.3" color="#000" fill="none" stroke="red" style="isolation:auto;mix-blend-mode:normal;stroke-width:.264583" transform="translate(42.668 -207.64)"/>
<path d="M8.134.988a.17.17 0 0 0 .025-.071c0-.036-.005-.04-.122-.04H4.545c-.116 0-.121.004-.121.04 0 .02.015.056.025.07l1.706 3.417c.035.066.05.096.136.096.086 0 .102-.03.137-.096zm-3.082.253H7.83L6.443 4.024zM12.234.815c0-.015-.01-.05-.055-.05-.015 0-.02.005-.076.06l-.354.39c-.046-.07-.279-.45-.84-.45-1.13 0-2.268 1.118-2.268 2.293 0 .804.562 1.386 1.382 1.386.222 0 .45-.045.632-.121a1.02 1.02 0 0 0 .44-.309c.046.127.178.314.228.314.026 0 .036-.015.036-.02.01-.01.06-.203.086-.31l.096-.389c.02-.086.046-.172.066-.258.056-.228.06-.238.35-.243.024 0 .08-.005.08-.101 0-.035-.025-.056-.066-.056-.116 0-.415.015-.531.015-.157 0-.552-.015-.709-.015-.045 0-.106 0-.106.101 0 .056.04.056.152.056.005 0 .152 0 .268.01.132.015.157.03.157.096 0 .046-.056.274-.106.461-.142.557-.8.612-.977.612-.486 0-1.017-.288-1.017-1.062 0-.157.05-.992.582-1.65.273-.344.764-.653 1.265-.653.516 0 .815.39.815.977 0 .202-.015.207-.015.258 0 .05.055.05.075.05.066 0 .066-.01.092-.1zM35.48 17.22a.354.354 0 0 0-.256.328c0 .104.08.218.237.218.166 0 .342-.138.342-.37 0-.251-.252-.418-.541-.418-.27 0-.446.204-.508.29-.119-.2-.384-.29-.655-.29-.598 0-.92.584-.92.74 0 .067.07.067.114.067.057 0 .09 0 .109-.062.137-.431.479-.574.674-.574.18 0 .265.086.265.238 0 .09-.066.35-.109.521l-.161.65c-.071.29-.242.432-.404.432-.023 0-.132 0-.227-.071a.354.354 0 0 0 .256-.327c0-.105-.08-.219-.237-.219-.166 0-.342.138-.342.37 0 .252.252.418.541.418.27 0 .446-.204.508-.29.118.2.384.29.654.29.598 0 .92-.584.92-.74 0-.067-.07-.067-.113-.067-.057 0-.09 0-.11.062-.137.432-.478.574-.673.574-.18 0-.266-.085-.266-.237 0-.1.062-.351.105-.527.033-.123.142-.569.166-.645.071-.285.237-.432.403-.432.024 0 .133 0 .228.071zM2.363 22.762a.354.354 0 0 0-.256.327c0 .105.08.219.237.219.166 0 .341-.138.341-.37 0-.252-.251-.418-.54-.418-.27 0-.446.204-.508.29-.119-.2-.384-.29-.655-.29-.598 0-.92.583-.92.74 0 .066.07.066.114.066.056 0 .09 0 .109-.061.137-.432.479-.574.673-.574.18 0 .266.085.266.237 0 .09-.066.351-.109.522l-.161.65c-.071.29-.242.432-.404.432-.023 0-.132 0-.227-.072a.354.354 0 0 0 .256-.327c0-.104-.08-.218-.237-.218-.166 0-.342.137-.342.37 0 .251.251.417.54.417.271 0 .447-.204.509-.289.118.2.384.29.654.29.598 0 .92-.584.92-.74 0-.067-.07-.067-.113-.067-.057 0-.09 0-.11.062-.137.431-.478.574-.673.574-.18 0-.266-.086-.266-.238 0-.1.062-.35.105-.526.033-.124.142-.57.166-.646.071-.284.237-.431.403-.431.024 0 .133 0 .228.07z"/>
</svg>
