<svg width="179.333" height="134.461" viewBox="0 0 47.448 35.576" xml:space="preserve" xmlns="http://www.w3.org/2000/svg">
<defs>
<marker id="a" overflow="visible" orient="auto">
<path d="m-4 0-2 2 7-2-7-2Z" fill-rule="evenodd" stroke="#000" stroke-width=".4pt"/>
</marker>
</defs>
<g transform="translate(61.376 -249.314)">
<path d="m-14.001 278.105-1.355-1.493-1.3-1.548-1.254-1.633-1.217-1.745-1.19-1.88-1.173-1.99-1.163-2.063-1.154-2.095-1.146-2.08-1.133-2.012-1.115-1.889-1.087-1.706-1.047-1.476-1.004-1.256-.958-1.062-.912-.897m-1.779.67.887.903.935 1.063.983 1.25 1.031 1.465 1.075 1.688 1.107 1.864 1.129 1.986 1.142 2.051 1.152 2.068 1.16 2.04 1.168 1.97 1.183 1.867 1.204 1.74 1.238 1.634 1.28 1.556 1.331 1.506m-2.08.474-1.304-1.515-1.257-1.556-1.218-1.626-1.19-1.722-1.17-1.837-1.16-1.933-1.153-1.994-1.145-2.018-1.135-2-1.12-1.935-1.093-1.82-1.058-1.651-1.01-1.44-.96-1.237-.908-1.058-.859-.906m-1.845 1.121.827.906.878 1.046.93 1.213.984 1.4 1.035 1.593 1.075 1.751 1.102 1.859 1.12 1.921 1.132 1.94 1.14 1.924 1.146 1.87 1.156 1.789 1.17 1.687 1.195 1.606 1.23 1.55 1.274 1.516m-2.317.407-1.24-1.512-1.198-1.531-1.167-1.572-1.145-1.636-1.133-1.716-1.126-1.781-1.12-1.822-1.11-1.832-1.097-1.81-1.077-1.752-1.046-1.654-1.005-1.514-.95-1.342-.897-1.175-.842-1.028-.791-.902m-1.878 1.686.752.894.802 1.002.855 1.127.91 1.266.965 1.41 1.008 1.53 1.041 1.613 1.064 1.667 1.079 1.69 1.089 1.689 1.096 1.664 1.103 1.619 1.113 1.563 1.133 1.523 1.161 1.501 1.2 1.5m-2.568.33-1.154-1.479-1.119-1.463-1.092-1.46-1.074-1.476-1.064-1.503-1.057-1.523-1.049-1.531-1.036-1.524-1.02-1.499-.994-1.452-.96-1.384-.917-1.29-.863-1.179-.81-1.069-.757-.97-.71-.884m-1.857 2.03.667.872.71.937.76 1.007.81 1.084.86 1.162.906 1.227.94 1.278.964 1.316.985 1.342.998 1.36 1.008 1.367 1.018 1.373.704.972 1.368 1.796 1.07 1.418 1.105 1.456m-2.729.302-1.05-1.43-1.018-1.37-.992-1.317-.974-1.273-.963-1.236-.951-1.207-.94-1.18-.923-1.154-.903-1.129-.876-1.1-.843-1.07-.8-1.03-.754-.99-.706-.944-.662-.902-.622-.86m-1.808 2.047.577.85.613.869.652.885.694.897.738.906.775.915.808.928.834.946.855.97.874 1.003.888 1.046.9 1.1.916 1.17.934 1.242.96 1.321.993 1.404m-2.797.326-.932-1.38-.9-1.275-.872-1.173-.851-1.069-.835-.972-.819-.893-.802-.836-.783-.797-.761-.775-.736-.768-.706-.773-.673-.79-.634-.814-.598-.832-.564-.84-.533-.84m-1.77 1.793.49.834.517.816.545.785.576.742.608.69.637.649.664.626.687.623.709.643.729.687.747.756.766.856.785.98.809 1.11.836 1.236.87 1.36m-12.74-11.815.45.831.471.798.495.75.52.684.546.608.57.547.594.51.616.497.636.515.657.562.676.642.697.76.718.906.744 1.06.773 1.205.806 1.348m-2.727.468-.743-1.344-.71-1.187-.681-1.024-.654-.854-.631-.686-.609-.555-.588-.468-.568-.417-.549-.403-.529-.421-.51-.47-.488-.549-.468-.643-.448-.725-.429-.788-.41-.831m-1.794 1.098.374.836.388.784.404.71.42.617.437.507.453.417.47.36.487.335.505.348.525.4.545.494.567.636.592.818.62 1.004.648 1.18.681 1.35m-9.937-9.886.338.843.35.785.362.705.375.602.388.481.402.384.415.319.43.29.448.302.466.356.485.455.508.605.532.8.56.995.587 1.183.62 1.363m-9.12-9.712.303.853.312.791.323.707.332.596.343.469.353.365.366.296.379.265.393.276.41.33.43.435.45.591.475.794.5.998.529 1.195.558 1.382 2.664-.631 2.671-.583 2.693-.528 2.727-.468 2.77-.408 2.795-.36 2.797-.325 2.774-.307 2.73-.302 2.66-.31 2.567-.332 2.45-.364 2.318-.407 2.192-.444 2.08-.474 1.98-.496m-1.354-1.493-1.958.483-2.053.465-2.161.442-2.283.412-2.41.377-2.523.351-2.61.334-2.675.328-2.717.333-2.736.35-2.732.379-2.707.42-2.664.472-2.63.523-2.61.57-2.603.611m-.528-1.195 2.542-.6 2.55-.566 2.568-.53 2.602-.49 2.643-.451 2.67-.418 2.675-.396 3.129-.422 2.152-.336 2.562-.379 2.48-.389 2.374-.407 2.251-.43 2.134-.45 2.03-.464 1.937-.475m-1.254-1.633-1.92.474-2.01.473-2.112.47-2.223.463-2.34.456-2.439.451-2.515.449-2.569.45-2.601.456-2.614.466-2.605.481-2.579.501-2.538.526-2.508.55-2.49.575-2.483.597m-.474-.794 2.426-.603 2.43-.593 2.444-.586 2.475-.579 2.512-.574 2.539-.57 2.55-.565 2.542-.56 2.516-.555 2.468-.548 2.4-.538 2.308-.529 2.198-.515 2.091-.504 1.996-.49 1.909-.48m-1.19-1.88-1.902.493-1.984.52-2.076.552-2.176.588-2.277.626-2.361.655-2.422.677-2.46.69-2.482.697-2.483.694-2.47.686-2.443.671-2.408.652-2.382.636-2.37.624-2.37.617m-.428-.434 2.313-.638 2.31-.664 2.318-.696 2.34-.739 2.372-.785 2.4-.823 2.414-.847 2.417-.857 2.404-.852 2.373-.832 2.322-.796 2.248-.743 2.155-.677 2.062-.615 1.976-.558 1.897-.512m-1.163-2.063-1.894.535-1.968.604-2.05.686-2.135.778-2.217.876-2.282.954-2.322 1.004-2.346 1.032-2.35 1.033-2.344 1.014-2.325.972-2.3.91-2.272.833-2.255.765-2.25.707-2.259.663m-.393-.276 2.204-.689 2.193-.753 2.192-.834 2.204-.93 2.227-1.039 2.251-1.126 2.27-1.187 2.284-1.218 2.284-1.219 2.27-1.186 2.24-1.12 2.186-1.018 2.113-.887 2.036-.763 1.962-.654 1.892-.562m-1.146-2.08-1.888.59-1.954.706-2.022.842-2.09.998-2.153 1.161-2.194 1.288-2.217 1.37-2.222 1.405-2.214 1.401-2.198 1.358-2.177 1.278-2.156 1.163-2.137 1.026-2.13.902-2.137.798-2.152.714m-.366-.296 2.102-.737 2.083-.839 2.071-.963 2.073-1.114 2.085-1.28 2.105-1.42 2.126-1.518 2.146-1.574 2.159-1.583 2.161-1.543 2.148-1.45 2.117-1.299 2.064-1.105 2.006-.918 1.944-.756 1.884-.617m-1.115-1.889-1.876.642-1.931.8-1.986.987-2.036 1.202-2.079 1.425-2.1 1.594-2.106 1.7-2.097 1.742-2.078 1.727-2.057 1.66-2.036 1.544-2.02 1.382-2.01 1.19-2.016 1.017-2.03.872-2.054.756m-.343-.47 2.01-.767 1.981-.898 1.963-1.058 1.954-1.25 1.957-1.464 1.971-1.644 1.992-1.776 2.015-1.853 2.036-1.872 2.05-1.828 2.053-1.715 2.04-1.528 2.005-1.282 1.963-1.044 1.914-.837 1.864-.66m-1.047-1.476-1.848.672-1.894.86-1.936 1.086-1.973 1.34-1.998 1.603-2.005 1.802-1.998 1.923-1.98 1.968-1.955 1.944-1.932 1.859-1.913 1.716-1.901 1.522-1.902 1.291-1.915 1.085-1.937.912-1.966.774m-.323-.707 1.927-.772 1.895-.918 1.87-1.099 1.856-1.316 1.85-1.557 1.86-1.763 1.879-1.912 1.902-2.004 1.926-2.03 1.948-1.985 1.96-1.86 1.956-1.652 1.939-1.377 1.907-1.11 1.87-.874 1.827-.677m-.958-1.062-1.804.676-1.843.88-1.877 1.12-1.903 1.396-1.917 1.678-1.915 1.892-1.9 2.018-1.878 2.065-1.853 2.036-1.83 1.942-1.812 1.787-1.805 1.575-1.813 1.326-1.83 1.103-1.857.917-1.89.766m-.302-.853 1.854-.756 1.821-.91 1.793-1.098 1.774-1.326 1.765-1.578 1.77-1.793 1.785-1.951 1.808-2.048 1.833-2.076 1.856-2.03 1.874-1.902 1.877-1.686 1.868-1.399 1.845-1.12 1.815-.878 1.78-.67m-16.556 13.809-.514.561-.514.562-.514.561-.243.267-.535.542-.535.542-.534.541-.166.168-.567.508-.568.507-.567.508-.063.055-.61.456-.61.456-.554.414-.649.398-.65.397-.494.303-.681.34-.681.34-.459.23-.705.287-.705.288-.444.18.254.718.049.136.28.708.032.083.316.692.006.014.333.597.342.469.354.365.365.296.38.265.393.276.41.33.43.435.45.591.39.653.085.14.34.68.16.32.308.695.22.5.286.705.272.676.741-.176.741-.176.741-.175.442-.105.744-.162.744-.162.744-.162.439-.096.747-.146.748-.147.747-.146.45-.089.751-.129.75-.129.751-.129.476-.081.753-.111.754-.111.753-.111.51-.075.755-.097.755-.097.756-.097.529-.068.756-.088.757-.089.756-.088.527-.061.757-.084.757-.084.757-.084.504-.055.757-.084.757-.084.757-.084.458-.05.756-.089.757-.088.756-.088.391-.046.755-.097.756-.098.755-.097.301-.039.754-.112.753-.112.753-.112.191-.029.75-.131.75-.132.75-.132.068-.011.746-.152.746-.151.7-.142.742-.169.742-.169.595-.135.739-.185.738-.186.504-.126-.511-.563-.512-.564-.332-.365-.49-.583-.489-.583-.321-.383-.464-.603-.463-.604-.327-.425-.435-.624-.435-.624-.347-.497-.407-.643-.407-.643-.376-.594-.386-.655-.387-.656-.386-.655-.014-.024-.373-.663-.374-.663-.373-.663-.042-.074-.367-.667-.368-.666-.367-.667-.052-.095-.368-.667-.367-.666-.367-.667-.044-.08-.374-.663-.373-.663-.374-.663-.013-.023-.387-.655-.387-.656-.34-.578-.41-.642-.408-.642-.27-.422-.44-.62-.44-.621-.167-.235-.475-.595-.475-.595-.053-.066-.51-.565-.448-.497-.543-.534-.369-.363-.713.268-.712.269-.355.133-.685.331-.686.332-.443.214-.651.395-.65.396-.545.33-.609.456-.61.457-.608.456-.04.03-.566.508-.567.509-.566.508-.179.16-.534.543-.534.542-.534.543-.27.275-.515.561-.513.562-.514.562-.315.345-.504.57-.504.57-.504.571-.322.365-.503.57-.504.571-.504.57-.296.337" stroke="#555" stroke-width=".079" style="fill:none"/>
<path d="m-37.866 262.805-7.027-13.032" color="#000" marker-end="url(#a)" stroke="#000" style="isolation:auto;mix-blend-mode:normal;fill:none;stroke-width:.264583"/>
<path d="m-46.614 274.75 8.748-11.945" color="#000" marker-end="url(#a)" stroke="#000" style="isolation:auto;mix-blend-mode:normal;fill:none;stroke-width:.264583"/>
<circle transform="rotate(-26.402)" cx="-163.924" cy="225.365" color="#000" fill="#5e5bff" style="stroke-width:.264583" r="1.323"/>
<g stroke-linejoin="round" stroke-miterlimit="100000" stroke-width="1.5">
<path d="M-35.58 269.31c0-.096-.079-.189-.192-.189-.1 0-.19.08-.19.19 0 .119.097.192.19.192a.19.19 0 0 0 .193-.193zm-.504.621v.12c.21 0 .239.02.239.183v.863c0 .143-.033.143-.25.143v.12c.008 0 .24-.014.373-.014.116 0 .236.003.352.014v-.12c-.193 0-.226 0-.226-.14v-1.205zM-33.5 270.353c0-.289-.142-.458-.498-.458a.593.593 0 0 0-.54.322h-.004v-.322l-.488.037v.12c.222 0 .249.022.249.185v.86c0 .143-.034.143-.25.143v.12c.007 0 .24-.014.38-.014.122 0 .351.01.381.014v-.12c-.216 0-.249 0-.249-.143v-.598c0-.348.276-.511.495-.511.232 0 .262.183.262.352v.757c0 .143-.033.143-.249.143v.12c.007 0 .24-.014.379-.014.123 0 .352.01.382.014v-.12c-.216 0-.25 0-.25-.143zM-47.58 255.825c0-.416-.356-.774-.814-.774-.458 0-.814.358-.814.774 0 .411.366.74.814.74.448 0 .814-.329.814-.74zm-.814.634a.487.487 0 0 1-.412-.203c-.09-.136-.1-.309-.1-.461 0-.143.004-.34.12-.482a.516.516 0 0 1 .392-.17c.196 0 .335.094.408.197.093.13.103.295.103.455 0 .16-.01.335-.106.471a.489.489 0 0 1-.405.193zM-46.254 255.104v.12c.222 0 .249.023.249.185v.568c0 .293-.19.495-.442.495-.302 0-.316-.143-.316-.312v-1.093l-.511.037v.12c.25 0 .25.01.25.305v.498c0 .23 0 .538.554.538.073 0 .315 0 .475-.279h.003v.28l.498-.034v-.12c-.222 0-.249-.023-.249-.186v-1.159zM-44.698 255.22h.518v-.12h-.518v-.61h-.113c-.003.298-.14.627-.458.637v.093h.309v.897c0 .372.279.448.465.448.222 0 .375-.19.375-.452v-.182h-.113v.18c0 .225-.106.348-.236.348-.229 0-.229-.28-.229-.339z"/>
</g>
<path d="M-37.591 267.66a.254.254 0 0 0-.508 0 .254.254 0 0 0 .508 0zM-36.863 268.745a.354.354 0 0 0-.257.328c0 .104.081.218.238.218.166 0 .341-.138.341-.37 0-.252-.251-.418-.54-.418-.271 0-.447.204-.508.29-.119-.2-.385-.29-.655-.29-.598 0-.92.584-.92.74 0 .067.07.067.113.067.057 0 .09 0 .11-.062.137-.432.479-.574.673-.574.18 0 .266.085.266.237 0 .09-.067.351-.11.522l-.16.65c-.072.29-.243.432-.404.432-.024 0-.133 0-.228-.071a.354.354 0 0 0 .257-.328c0-.104-.081-.218-.238-.218-.166 0-.341.138-.341.37 0 .252.251.418.54.418.271 0 .447-.204.508-.29.119.2.385.29.655.29.598 0 .92-.584.92-.74 0-.067-.07-.067-.113-.067-.057 0-.09 0-.11.062-.137.432-.479.574-.673.574-.18 0-.266-.085-.266-.237 0-.1.062-.351.104-.527.034-.123.143-.57.166-.645.072-.285.238-.432.404-.432.023 0 .133 0 .228.071zM-50.649 252.832a.254.254 0 0 0-.508 0 .254.254 0 0 0 .508 0zM-49.921 253.917a.354.354 0 0 0-.256.328c0 .104.08.218.237.218.166 0 .341-.138.341-.37 0-.251-.251-.418-.54-.418-.27 0-.446.204-.508.29-.119-.2-.384-.29-.655-.29-.598 0-.92.584-.92.74 0 .067.07.067.114.067.056 0 .09 0 .109-.062.137-.431.479-.574.673-.574.18 0 .266.086.266.237 0 .09-.066.352-.109.522l-.161.65c-.072.29-.242.432-.404.432-.023 0-.132 0-.227-.071a.354.354 0 0 0 .256-.327c0-.105-.08-.219-.237-.219-.166 0-.342.138-.342.37 0 .252.251.418.54.418.271 0 .447-.204.509-.29.118.2.384.29.654.29.598 0 .92-.584.92-.74 0-.067-.07-.067-.113-.067-.057 0-.09 0-.11.062-.137.432-.478.574-.673.574-.18 0-.266-.085-.266-.237 0-.1.062-.351.105-.527.033-.123.142-.57.166-.645.071-.285.237-.432.403-.432.024 0 .133 0 .228.071z"/>
</g>
</svg>
