<svg width="212.937" height="98.846" xmlns="http://www.w3.org/2000/svg" xmlns:xlink="http://www.w3.org/1999/xlink">
<defs>
<symbol id="a">
<path color="#000" fill="#696969" style="isolation:auto;mix-blend-mode:normal" d="M162.68 39.222h5.009v8.105h-5.009zM172.803 39.222h5.009v8.105h-5.009zM182.926 39.222h5.009v8.105h-5.009z"/>
<path color="#000" fill="#ff4747" style="isolation:auto;mix-blend-mode:normal" d="M193.049 39.222h5.009v8.105h-5.009z"/>
<path d="M153.708 46.577h53.68l5.05 35.648h-63.78z" color="#000" fill="#696969" style="isolation:auto;mix-blend-mode:normal"/>
<rect x="155.587" y="48.668" width="49.561" height="29.869" rx="0" ry="0" color="#000" fill="#fff" style="isolation:auto;mix-blend-mode:normal"/>
<path d="m198.777 63.86-3.174 3.475m-5.847-8.738-1.504 4.434m-8.948-5.937.167 4.707m-10.46-2.452 1.837 4.297m26.316-1.14-2.84 3.722m-6.595-8.232-1.17 4.543m-9.378-5.295.502 4.68M167.11 60.25l2.171 4.132m26.16-3.08-2.506 3.941m-7.278-7.7-.836 4.626m-9.744-4.625.836 4.625m-10.62-.866 2.506 3.94m25.825-4.993-2.171 4.132m-7.9-7.139-.5 4.68m-10.047-3.928 1.17 4.543m-10.605-.032 2.84 3.721m25.314-6.879-1.838 4.297m-8.456-6.552-.167 4.707m-10.285-3.204 1.503 4.434m-10.524.83 3.174 3.474m34.454-6.09-4.61 5.521m-5.516-10.882-2.049 6.885m-9.35-8.123.513 7.2m-11.593-4.313L170.056 64m27.684-4.156-4.097 5.878m-6.41-10.415-1.537 7.033m-9.926-7.445 1.025 7.137m-11.85-3.425 3.585 6.192m27.261-6.192-3.585 6.192m-7.24-9.904-1.025 7.137m-10.438-6.725 1.537 7.033m-12.045-2.496 4.098 5.878m26.66-8.188L190.68 64m-8.007-9.353-.512 7.2m-10.887-5.962 2.05 6.885m-12.176-1.524 4.61 5.521m38.303-6.695-7.863 7.863m-3.188-14.891-3.932 10.28m-8.71-12.623v11.086m-12.642-8.743 3.932 10.28m-14.983-3.251 7.863 7.863" color="#000" fill="none" stroke="#000" stroke-width=".322" style="isolation:auto;mix-blend-mode:normal"/>
<path d="M160.608 64.004a27.947 27.947 0 0 1 39.523 0" color="#000" fill="none" style="isolation:auto;mix-blend-mode:normal"/>
<path d="m197.308 54.426-13.911 22.26 1.712.682z" color="#000" fill="red" style="isolation:auto;mix-blend-mode:normal"/>
<path d="M180.596 73.667a10.425 10.413 0 0 0-7.524 3.048 10.425 10.413 0 0 0-1.54 1.982h17.822a10.425 10.413 0 0 0-1.54-1.982 10.425 10.413 0 0 0-7.218-3.048z" color="#000" fill="#696969" style="isolation:auto;mix-blend-mode:normal"/>
</symbol>
<marker id="b" overflow="visible" orient="auto">
<path d="m-4 0-2 2 7-2-7-2z" fill="#fff" fill-rule="evenodd" stroke="#fff" stroke-width=".4pt"/>
</marker>
</defs>
<use width="100%" height="100%" xlink:href="#a"/>
<use transform="matrix(.76486 0 0 .76486 -71.65 -29.127)" width="100%" height="100%" stroke-width="1.307" xlink:href="#a"/>
<g color="#000">
<path transform="rotate(90)" fill="#8b8b8b" style="font-variant-east_asian:normal;isolation:auto;mix-blend-mode:normal" d="M38.531-70.202h41.223V-.5H38.531z"/>
<path d="M70.202 38.531v41.223" fill="none" stroke="#3d3d3d" stroke-width="5" style="isolation:auto;mix-blend-mode:normal"/>
<path d="M17.328 59.142h42.276" fill="none" marker-end="url(#b)" stroke="#fff" stroke-width="2" style="isolation:auto;mix-blend-mode:normal"/>
<circle cx="148.446" cy="59" r="13.435" fill="#f44" style="isolation:auto;mix-blend-mode:normal"/>
<path d="M148.446 74.91a23.435 23.435 0 0 0-23.434 23.436h46.87a23.435 23.435 0 0 0-23.436-23.436z" fill="#f44" style="isolation:auto;mix-blend-mode:normal"/>
<circle cx="41.716" cy="16.144" r="7.644" fill="#44f" style="isolation:auto;mix-blend-mode:normal"/>
<path d="M41.715 25.197a13.334 13.334 0 0 0-13.333 13.334H55.05a13.334 13.334 0 0 0-13.334-13.334z" fill="#44f" style="isolation:auto;mix-blend-mode:normal"/>
</g>
<g stroke-width="1.5">
<path d="M124.366 42.888c-.018-.054-.09-.198-.09-.252 0-.018.018-.036.324-.27l1.746-1.368c2.412-1.872 3.204-2.502 4.446-2.61.126-.018.306-.018.306-.324 0-.108-.054-.198-.198-.198-.198 0-.414.036-.612.036h-.684c-.558 0-1.152-.036-1.692-.036-.126 0-.342 0-.342.324 0 .18.126.198.234.198.198.018.432.09.432.342 0 .36-.54.792-.684.9l-7.056 5.49 1.494-5.94c.162-.612.198-.792 1.476-.792.342 0 .504 0 .504-.342 0-.18-.18-.18-.27-.18-.324 0-.702.036-1.044.036h-2.124c-.324 0-.72-.036-1.044-.036-.144 0-.342 0-.342.342 0 .18.162.18.432.18 1.098 0 1.098.144 1.098.342 0 .036 0 .144-.072.414l-2.43 9.684c-.162.63-.198.81-1.458.81-.342 0-.522 0-.522.324 0 .198.162.198.27.198.342 0 .702-.036 1.044-.036h2.106c.342 0 .72.036 1.062.036.144 0 .342 0 .342-.342 0-.18-.162-.18-.432-.18-1.098 0-1.098-.144-1.098-.324 0-.126.108-.576.18-.864l.702-2.79 2.736-2.142c.522 1.152 1.476 3.456 2.214 5.22.054.108.09.216.09.342 0 .54-.72.558-.882.558s-.342 0-.342.342c0 .18.198.18.252.18.63 0 1.296-.036 1.926-.036h.864c.27 0 .576.036.846.036.108 0 .306 0 .306-.342 0-.18-.162-.18-.342-.18-.666-.018-.9-.162-1.17-.81z" fill="red"/>
<path d="M17.608 7.368c-.018-.054-.09-.198-.09-.252 0-.018.018-.036.324-.27l1.746-1.368c2.412-1.872 3.204-2.502 4.446-2.61.126-.018.306-.018.306-.324 0-.108-.054-.198-.198-.198-.198 0-.414.036-.612.036h-.684c-.558 0-1.152-.036-1.692-.036-.126 0-.342 0-.342.324 0 .18.126.198.234.198.198.018.432.09.432.342 0 .36-.54.792-.684.9L13.738 9.6l1.494-5.94c.162-.612.198-.792 1.476-.792.342 0 .504 0 .504-.342 0-.18-.18-.18-.27-.18-.324 0-.702.036-1.044.036h-2.124c-.324 0-.72-.036-1.044-.036-.144 0-.342 0-.342.342 0 .18.162.18.432.18 1.098 0 1.098.144 1.098.342 0 .036 0 .144-.072.414l-2.43 9.684c-.162.63-.198.81-1.458.81-.342 0-.522 0-.522.324 0 .198.162.198.27.198.342 0 .702-.036 1.044-.036h2.106c.342 0 .72.036 1.062.036.144 0 .342 0 .342-.342 0-.18-.162-.18-.432-.18-1.098 0-1.098-.144-1.098-.324 0-.126.108-.576.18-.864l.702-2.79 2.736-2.142c.522 1.152 1.476 3.456 2.214 5.22.054.108.09.216.09.342 0 .54-.72.558-.882.558s-.342 0-.342.342c0 .18.198.18.252.18.63 0 1.296-.036 1.926-.036h.864c.27 0 .576.036.846.036.108 0 .306 0 .306-.342 0-.18-.162-.18-.342-.18-.666-.018-.9-.162-1.17-.81zM28.075 1.52c.06-.156.108-.24.108-.36 0-.396-.36-.66-.696-.66-.48 0-.612.42-.66.588L25.303 6.26c-.048.144-.048.18-.048.192 0 .108.072.132.192.168.216.096.24.096.264.096.036 0 .108 0 .192-.204z" fill="#00f"/>
</g>
</svg>
