<svg width="209.67" height="140.882" xmlns="http://www.w3.org/2000/svg" xmlns:xlink="http://www.w3.org/1999/xlink">
<defs>
<marker id="c" overflow="visible" orient="auto">
<path d="m-10 0-4 4L0 0l-14-4z" fill="#6d6d6d" fill-rule="evenodd" stroke="#6d6d6d" stroke-width=".8pt"/>
</marker>
<marker id="d" overflow="visible" orient="auto">
<path d="m-4 0-2 2 7-2-7-2z" fill="red" fill-rule="evenodd" stroke="red" stroke-width=".4pt"/>
</marker>
<marker id="e" overflow="visible" orient="auto">
<path d="m-4 0-2 2 7-2-7-2z" fill="#00f" fill-rule="evenodd" stroke="#00f" stroke-width=".4pt"/>
</marker>
<symbol id="b">
<path d="M184.964 85.446c-.648.18-.972.792-.972 1.242 0 .396.306.828.9.828.63 0 1.296-.522 1.296-1.404 0-.954-.954-1.584-2.052-1.584-1.026 0-1.692.774-1.926 1.098-.45-.756-1.458-1.098-2.484-1.098-2.268 0-3.492 2.214-3.492 2.808 0 .252.27.252.432.252.216 0 .342 0 .414-.234.522-1.638 1.818-2.178 2.556-2.178.684 0 1.008.324 1.008.9 0 .342-.252 1.332-.414 1.98l-.612 2.466c-.27 1.098-.918 1.638-1.53 1.638-.09 0-.504 0-.864-.27.648-.18.972-.792.972-1.242 0-.396-.306-.828-.9-.828-.63 0-1.296.522-1.296 1.404 0 .954.954 1.584 2.052 1.584 1.026 0 1.692-.774 1.926-1.098.45.756 1.458 1.098 2.484 1.098 2.268 0 3.492-2.214 3.492-2.808 0-.252-.27-.252-.432-.252-.216 0-.342 0-.414.234-.522 1.638-1.818 2.178-2.556 2.178-.684 0-1.008-.324-1.008-.9 0-.378.234-1.332.396-1.998.126-.468.54-2.16.63-2.448.27-1.08.9-1.638 1.53-1.638.09 0 .504 0 .864.27z" color="#000" stroke-width="1.2" style="isolation:auto;mix-blend-mode:normal"/>
</symbol>
<symbol id="a">
<path d="m7.966 7.474-2.54 8.887 2.04-2.04v35.352h35.351l-2.039 2.04 8.887-2.54-8.887-2.539 2.04 2.04H34.65v-5.92h6.422v-.401h-6.422v-6.22h6.422v-.401h-6.422v-6.223h6.422v-.398h-6.422v-6.223h6.422v-.4h-6.422v-6.422h-.4v6.422h-6.22v-6.422h-.401v6.422h-6.22v-6.422h-.401v6.422h-6.223v-6.422h-.398v6.422H8.466v-8.166l2.039 2.039zm.5 15.414h5.922v6.223H8.466zm6.32 0h6.223v6.223h-6.223zm6.623 0h6.22v6.223h-6.22zm6.621 0h6.221v6.223h-6.22zM8.466 29.509h5.922v6.223H8.466zm6.32 0h6.223v6.223h-6.223zm6.623 0h6.22v6.223h-6.22zm6.621 0h6.22v6.223h-6.22zM8.466 36.132h5.922v6.22H8.466zm6.32 0h6.223v6.22h-6.223zm6.623 0h6.22v6.22h-6.22zm6.621 0h6.22v6.22h-6.22zM8.466 42.753h5.922v5.92H8.466zm6.32 0h6.223v5.92h-6.223zm6.623 0h6.22v5.92h-6.22zm6.621 0h6.22v5.92h-6.22z" color="#000" style="font-feature-settings:normal;font-variant-alternates:normal;font-variant-caps:normal;font-variant-ligatures:normal;font-variant-numeric:normal;font-variant-position:normal;isolation:auto;mix-blend-mode:normal;shape-padding:0;text-decoration-color:#000;text-decoration-line:none;text-decoration-style:solid;text-indent:0;text-orientation:mixed;text-transform:none;white-space:normal"/>
</symbol>
</defs>
<use transform="translate(159.513 -6.53)" width="100%" height="100%" fill="#00f" xlink:href="#a"/>
<use transform="translate(121.416 15.609)" width="100%" height="100%" fill="#8383ff" xlink:href="#a"/>
<use transform="translate(83.314 37.355)" width="100%" height="100%" fill="#c8c8ff" xlink:href="#a"/>
<use transform="translate(-4.427 88.17)" width="100%" height="100%" fill="red" xlink:href="#a"/>
<use transform="translate(-46.337 45.011)" width="100%" height="100%" fill="#ff0101" xlink:href="#b"/>
<g fill="none" color="#000">
<path d="M3.039 137.843 167.47 42.228" marker-end="url(#c)" stroke="#6d6d6d" style="isolation:auto;mix-blend-mode:normal"/>
<path d="M3.039 137.843 152.991 112.3" marker-end="url(#d)" stroke="red" stroke-linecap="round" stroke-width="3" style="isolation:auto;mix-blend-mode:normal"/>
<path d="m167.47 42.228-7.84 62.658" marker-end="url(#e)" stroke="#00f" stroke-linecap="round" stroke-width="3" style="isolation:auto;mix-blend-mode:normal"/>
</g>
<circle cx="158.788" cy="110.859" r="5.952" color="#000" stroke="#fff" style="isolation:auto;mix-blend-mode:normal"/>
<g stroke-width="1.5">
<path d="M14.548 89.886c-.018-.054-.09-.198-.09-.252 0-.018.018-.036.324-.27l1.746-1.368c2.412-1.872 3.204-2.502 4.446-2.61.126-.018.306-.018.306-.324 0-.108-.054-.198-.198-.198-.198 0-.414.036-.612.036h-.684c-.558 0-1.152-.036-1.692-.036-.126 0-.342 0-.342.324 0 .18.126.198.234.198.198.018.432.09.432.342 0 .36-.54.792-.684.9l-7.056 5.49 1.494-5.94c.162-.612.198-.792 1.476-.792.342 0 .504 0 .504-.342 0-.18-.18-.18-.27-.18-.324 0-.702.036-1.044.036h-2.124c-.324 0-.72-.036-1.044-.036-.144 0-.342 0-.342.342 0 .18.162.18.432.18 1.098 0 1.098.144 1.098.342 0 .036 0 .144-.072.414l-2.43 9.684c-.162.63-.198.81-1.458.81-.342 0-.522 0-.522.324 0 .198.162.198.27.198.342 0 .702-.036 1.044-.036h2.106c.342 0 .72.036 1.062.036.144 0 .342 0 .342-.342 0-.18-.162-.18-.432-.18-1.098 0-1.098-.144-1.098-.324 0-.126.108-.576.18-.864l.702-2.79 2.736-2.142c.522 1.152 1.476 3.456 2.214 5.22.054.108.09.216.09.342 0 .54-.72.558-.882.558s-.342 0-.342.342c0 .18.198.18.252.18.63 0 1.296-.036 1.926-.036h.864c.27 0 .576.036.846.036.108 0 .306 0 .306-.342 0-.18-.162-.18-.342-.18-.666-.018-.9-.162-1.17-.81z" fill="red"/>
<path d="M150.326 7.369c-.018-.054-.09-.198-.09-.252 0-.018.018-.036.324-.27l1.746-1.368c2.412-1.872 3.204-2.502 4.446-2.61.126-.018.306-.018.306-.324 0-.108-.054-.198-.198-.198-.198 0-.414.036-.612.036h-.684c-.558 0-1.152-.036-1.692-.036-.126 0-.342 0-.342.324 0 .18.126.198.234.198.198.018.432.09.432.342 0 .36-.54.792-.684.9l-7.056 5.49 1.494-5.94c.162-.612.198-.792 1.476-.792.342 0 .504 0 .504-.342 0-.18-.18-.18-.27-.18-.324 0-.702.036-1.044.036h-2.124c-.324 0-.72-.036-1.044-.036-.144 0-.342 0-.342.342 0 .18.162.18.432.18 1.098 0 1.098.144 1.098.342 0 .036 0 .144-.072.414l-2.43 9.684c-.162.63-.198.81-1.458.81-.342 0-.522 0-.522.324 0 .198.162.198.27.198.342 0 .702-.036 1.044-.036h2.106c.342 0 .72.036 1.062.036.144 0 .342 0 .342-.342 0-.18-.162-.18-.432-.18-1.098 0-1.098-.144-1.098-.324 0-.126.108-.576.18-.864l.702-2.79 2.736-2.142c.522 1.152 1.476 3.456 2.214 5.22.054.108.09.216.09.342 0 .54-.72.558-.882.558s-.342 0-.342.342c0 .18.198.18.252.18.63 0 1.296-.036 1.926-.036h.864c.27 0 .576.036.846.036.108 0 .306 0 .306-.342 0-.18-.162-.18-.342-.18-.666-.018-.9-.162-1.17-.81zM160.793 1.52c.06-.156.108-.24.108-.36 0-.396-.36-.66-.696-.66-.48 0-.612.42-.66.588l-1.524 5.172c-.048.144-.048.18-.048.192 0 .108.072.132.192.168.216.096.24.096.264.096.036 0 .108 0 .192-.204z" fill="#00f"/>
<path d="M53.025 91.709h1.656c.342 0 .522 0 .522-.324 0-.198-.108-.198-.468-.198H53.15l.666-2.628c.072-.252.072-.288.072-.414 0-.288-.234-.45-.468-.45-.144 0-.558.054-.702.63l-.702 2.862h-1.692c-.36 0-.522 0-.522.342 0 .18.126.18.468.18h1.602l-1.188 4.752c-.144.63-.198.81-.198 1.044 0 .846.594 1.62 1.602 1.62 1.818 0 2.79-2.628 2.79-2.754 0-.108-.072-.162-.18-.162-.036 0-.108 0-.144.072-.018.018-.036.036-.162.324-.378.9-1.206 2.16-2.25 2.16-.54 0-.576-.45-.576-.846 0-.018 0-.36.054-.576zM65.51 92.429c0-1.638-1.207-1.638-1.225-1.638-.72 0-1.368.756-1.368 1.368 0 .504.378.72.54.81.756.45.9.774.9 1.134 0 .396-1.044 4.338-3.15 4.338-1.296 0-1.296-1.08-1.296-1.404 0-1.044.504-2.358 1.08-3.798.144-.36.198-.522.198-.81 0-1.044-1.044-1.62-2.034-1.62-1.908 0-2.808 2.448-2.808 2.808 0 .252.27.252.432.252.216 0 .342 0 .414-.234.576-1.944 1.53-2.178 1.854-2.178.126 0 .306 0 .306.378 0 .414-.216.936-.27 1.08-.828 2.088-1.098 2.898-1.098 3.762 0 1.908 1.548 2.412 3.114 2.412 3.096 0 4.41-5.112 4.41-6.66z"/>
</g>
<path d="M190.359 79.544c.06-.156.108-.24.108-.36 0-.396-.36-.66-.696-.66-.48 0-.612.42-.66.588l-1.524 5.172c-.048.144-.048.18-.048.192 0 .108.072.132.192.168.216.096.24.096.264.096.036 0 .108 0 .192-.204z" color="#000" fill="#00f" style="isolation:auto;mix-blend-mode:normal"/>
<use width="100%" height="100%" fill="#0001ec" xlink:href="#b"/>
</svg>
