<svg width="180.566" height="90.966" xmlns="http://www.w3.org/2000/svg">
<path d="m40.617 41.054-.892.033-.936.035-.893.137-.935.274-.893.685-.935 1.746-.893 3.596-.935 5.685L32.412 59l-.892 3.698-.934 1.746-.893.754-.935.273-.893.139-.935.033-.893.035H12.352l-.936-.035-.893-.033-.935-.069-.893-.24-.935-.549-.893-1.369-.933-3.049-.893-5.273-.936-5.992-.892-4.282-.936-2.191-.892-.926-.885-.357v49.154h179.566V65.35l-.715-.29-.892-.923-.936-2.191-.893-4.282-.935-5.994-.893-5.273-.935-3.049-.893-1.37-.935-.546-.893-.24-.934-.069-.892-.035-.936-.033h-13.687l-.893.033-.933.035-.893.137-.935.273-.893.754-.936 1.746-.892 3.7-.893 5.754-.935 5.683-.893 3.596-.933 1.748-.893.684-.936.275-.892.137-.936.033-.892.035h-13.686l-.935-.035-.893-.033-.936-.104-.892-.205-.936-.582-.892-1.44-.936-3.115-.892-5.308-.934-5.96-.893-4.212-.935-2.123-.893-.924-.892-.344-.936-.136-.892-.069h-.936l-.893-.033H98.124l-.892.033-.936.035-.892.069-.936.17-.892.445-.934 1.13-.893 2.604-.935 4.793-.893 6.063-.935 4.795-.893 2.601-.935 1.131-.893.445-.935.172-.893.069-.934.033-.892.035H69.816l-.893-.035h-.935l-.893-.068-.933-.137-.893-.342-.893-.926-.935-2.123-.893-4.213-.935-5.959-.893-5.306-.935-3.118-.893-1.437-.934-.582-.892-.207-.936-.102-.892-.035-.936-.033H40.617z" color="#000" fill="#cacaca" style="font-variant-east_asian:normal;isolation:auto;mix-blend-mode:normal"/>
<path d="m40.59 39.554-.922.035-1.021.037-1.077.166-1.3.38-1.372 1.054-1.175 2.195-.953 3.836-.946 5.752-.884 5.7-.834 3.449-.708 1.324-.43.363-.536.158-.71.11-.849.03-.865.034H12.379l-.906-.033-.867-.033-.766-.057-.56-.15-.456-.268-.584-.896-.843-2.752-.875-5.168-.94-6.022-.932-4.463-1.101-2.582-1.307-1.355-1.394-.563-.348-.052v3.146l.027.012.479.496.77 1.8.853 4.1.932 5.963.91 5.379 1.023 3.346 1.201 1.842 1.416.83 1.225.33 1.105.08.918.033.965.037h13.742l.92-.037 1.022-.035 1.076-.168 1.334-.389 1.355-1.144 1.16-2.168.952-3.946.9-5.808.926-5.62.832-3.355.695-1.297.414-.316.57-.168.71-.108.85-.033.863-.03h13.63l.907.03.838.033.795.088.562.13.426.265.603.97.852 2.838.875 5.206.94 5.99.933 4.404 1.105 2.51 1.311 1.357 1.36.522 1.148.168 1.002.076h.963l.892.035h12.854l.92-.037.96-.033 1.003-.076 1.222-.225 1.365-.682 1.313-1.586 1.016-2.959.96-4.93.893-6.062.91-4.658.77-2.248.558-.674.416-.209.649-.117.787-.06.906-.036.863-.03h12.739l.892.032h.907l.783.06.718.106.428.164.475.493.765 1.736.852 4.021.93 5.928.91 5.41 1.02 3.395 1.181 1.906 1.445.9 1.221.28 1.076.119.947.035.965.037h13.743l.92-.037 1.019-.035 1.078-.166 1.3-.383 1.372-1.049 1.174-2.199.953-3.836.945-5.75.885-5.7.832-3.45.711-1.324.43-.364.537-.158.709-.107.847-.034.864-.03h13.633l.906.03.865.036.766.056.56.15.457.266.584.897.844 2.752.875 5.168.94 6.023.931 4.463 1.102 2.584 1.306 1.352 1.393.562.18.027v-3.28l-.336-.349-.77-1.798-.853-4.1-.932-5.965-.91-5.379-1.028-3.345-1.2-1.842-1.415-.828-1.224-.33-1.102-.08-.92-.038-.965-.033H154.67l-.922.033-1.02.04-1.076.165-1.334.39-1.355 1.144-1.16 2.168-.953 3.947-.9 5.808-.926 5.618-.833 3.355-.693 1.297-.414.318-.57.168-.707.108-.852.03-.865.034H126.46l-.906-.033-.838-.031-.795-.088-.564-.131-.426-.264-.604-.972-.851-2.836-.875-5.207-.938-5.99-.933-4.405-1.106-2.51-1.31-1.355-1.358-.524-1.152-.167-1.002-.077h-.965l-.893-.033H98.098l-.922.033-.965.037-.998.077-1.223.222-1.369.682-1.308 1.588-1.016 2.959-.961 4.928-.893 6.062-.91 4.66-.77 2.244-.558.676-.42.21-.648.118-.783.06-.907.034-.865.033H69.846l-.893-.035h-.908l-.783-.06-.719-.106-.426-.162-.474-.494-.766-1.737-.852-4.021-.931-5.928-.91-5.408-1.02-3.397-1.181-1.904-1.442-.898-1.223-.285-1.076-.116-.947-.037-.965-.035H40.59z" color="#000" fill="#555" style="isolation:auto;mix-blend-mode:normal;text-decoration-color:#000;text-decoration-line:none;text-decoration-style:solid;text-indent:0;text-transform:none;white-space:normal"/>
<g stroke-width="1.5">
<path d="M114.535 7.117c.072-.251.072-.287.072-.412 0-.323-.251-.485-.52-.485a.779.779 0 0 0-.628.377c-.036.09-.18.646-.251.968-.126.467-.251.95-.359 1.435l-.807 3.228c-.071.269-.843 1.524-2.026 1.524-.915 0-1.112-.789-1.112-1.452 0-.825.305-1.937.915-3.515.287-.735.358-.933.358-1.291 0-.807-.574-1.47-1.47-1.47-1.704 0-2.367 2.6-2.367 2.76 0 .18.179.18.215.18.18 0 .197-.036.287-.323.484-1.685 1.201-2.223 1.811-2.223.143 0 .448 0 .448.573 0 .449-.179.915-.305 1.256-.717 1.9-1.04 2.923-1.04 3.766 0 1.596 1.13 2.134 2.188 2.134.7 0 1.31-.305 1.811-.807-.233.932-.448 1.81-1.165 2.761-.466.61-1.148 1.13-1.973 1.13-.25 0-1.058-.054-1.363-.753.287 0 .52 0 .771-.215.18-.162.359-.395.359-.736 0-.555-.484-.627-.663-.627-.413 0-1.005.287-1.005 1.165 0 .897.79 1.56 1.901 1.56 1.847 0 3.694-1.631 4.196-3.658zM132.291 8.139c.251-.108.359-.233.359-.395 0-.179-.072-.286-.359-.412l-9.88-4.663c-.252-.125-.324-.125-.36-.125a.349.349 0 0 0-.358.359c0 .215.143.304.34.394l9.415 4.43-9.379 4.429c-.358.161-.376.305-.376.412a.36.36 0 0 0 .358.359c.054 0 .09 0 .323-.126zm-.269 8.267c.305 0 .628 0 .628-.359 0-.358-.377-.358-.646-.358h-9.666c-.269 0-.645 0-.645.358 0 .359.323.359.627.359zM145.662 6.776h1.542c.359 0 .538 0 .538-.359 0-.197-.18-.197-.484-.197h-1.488l.376-2.044c.072-.377.323-1.65.43-1.865.162-.341.467-.61.843-.61.072 0 .538 0 .88.323-.79.072-.97.7-.97.968 0 .413.324.628.664.628.467 0 .987-.395.987-1.076 0-.825-.825-1.237-1.56-1.237-.61 0-1.74.322-2.278 2.098-.108.376-.161.556-.592 2.815h-1.237c-.34 0-.538 0-.538.34 0 .216.161.216.502.216h1.184l-1.345 7.083c-.323 1.74-.628 3.372-1.56 3.372-.072 0-.52 0-.861-.323.825-.054.986-.7.986-.968 0-.413-.323-.628-.664-.628-.466 0-.986.395-.986 1.076 0 .807.79 1.237 1.524 1.237.987 0 1.704-1.058 2.027-1.74.574-1.129.986-3.299 1.004-3.424zM158.683 18.253c0-.054 0-.09-.305-.395-2.241-2.259-2.815-5.648-2.815-8.392 0-3.12.681-6.24 2.887-8.482.233-.215.233-.251.233-.305 0-.126-.072-.18-.18-.18-.179 0-1.793 1.22-2.85 3.497-.915 1.973-1.13 3.964-1.13 5.47 0 1.399.197 3.569 1.183 5.595 1.076 2.206 2.618 3.371 2.798 3.371.107 0 .179-.054.179-.179zM165.71 8.534c.108-.466.52-2.116 1.775-2.116.09 0 .52 0 .897.233-.502.09-.86.538-.86.968 0 .287.196.628.68.628a1 1 0 0 0 .969-1.04c0-.933-1.058-1.184-1.668-1.184-1.04 0-1.667.95-1.883 1.363-.448-1.183-1.416-1.363-1.936-1.363-1.865 0-2.888 2.314-2.888 2.762 0 .18.18.18.216.18.143 0 .197-.036.233-.198.61-1.9 1.793-2.35 2.403-2.35.34 0 .968.162.968 1.202 0 .556-.305 1.758-.968 4.268-.287 1.112-.915 1.865-1.704 1.865-.107 0-.52 0-.897-.233.449-.09.843-.466.843-.968 0-.484-.394-.628-.663-.628-.538 0-.986.467-.986 1.04 0 .825.896 1.184 1.685 1.184 1.184 0 1.83-1.255 1.883-1.363.215.664.86 1.363 1.937 1.363 1.847 0 2.87-2.313 2.87-2.762 0-.179-.162-.179-.216-.179-.161 0-.197.072-.233.197-.592 1.92-1.811 2.35-2.385 2.35-.7 0-.987-.574-.987-1.184 0-.395.108-.79.305-1.578zM175.114 9.466c0-1.399-.197-3.569-1.184-5.595C172.854 1.665 171.312.5 171.133.5c-.108 0-.18.071-.18.179 0 .054 0 .09.341.412 1.758 1.776 2.78 4.627 2.78 8.375 0 3.066-.664 6.223-2.887 8.482-.233.215-.233.251-.233.305 0 .108.071.18.179.18.18 0 1.793-1.22 2.851-3.498.915-1.972 1.13-3.963 1.13-5.469z"/>
</g>
</svg>
