<svg width="167.611" height="107.416" viewBox="0 0 167.61 107.415" xmlns="http://www.w3.org/2000/svg">
<defs>
<marker id="a" overflow="visible" orient="auto">
<path d="m-4 0-2 2 7-2-7-2z" fill="red" fill-rule="evenodd" stroke="red" stroke-width=".4pt"/>
</marker>
</defs>
<path d="M167.11 41.204c-65.124 0-129.662 14.966-165.292 64.706H167.11z" color="#000" fill="#dcdcdc" style="isolation:auto;mix-blend-mode:normal"/>
<g fill="none">
<path d="M1.72 106.043c35.61-49.848 100.208-64.838 165.39-64.838" color="#000" stroke="#555" stroke-linejoin="round" stroke-miterlimit="100" stroke-width="3" style="isolation:auto;mix-blend-mode:normal"/>
<path d="m17.282 76.198 101.647-38.74M79.604 52.5l-4.378-11.54-11.488 4.398" stroke="#000"/>
<path d="M68.109 56.827 48.469 5.293" marker-end="url(#a)" stroke="red" stroke-width="2"/>
</g>
<circle cx="68.106" cy="56.828" r="5" color="#000"/>
<g fill="red" stroke-width="1.5">
<path d="M69.76 2.132C69.76.5 68.558.5 68.54.5c-.717 0-1.363.753-1.363 1.363 0 .502.377.717.538.807.754.448.897.77.897 1.13 0 .394-1.04 4.321-3.138 4.321-1.291 0-1.291-1.076-1.291-1.399 0-1.04.502-2.349 1.076-3.783.143-.36.197-.52.197-.807 0-1.04-1.04-1.614-2.027-1.614-1.9 0-2.797 2.438-2.797 2.797 0 .251.269.251.43.251.216 0 .341 0 .413-.233.574-1.937 1.524-2.17 1.847-2.17.125 0 .305 0 .305.377 0 .412-.215.932-.27 1.076-.824 2.08-1.093 2.887-1.093 3.748 0 1.9 1.542 2.403 3.102 2.403 3.085 0 4.394-5.093 4.394-6.635zM79.672 7.12c.25-.627.665-.753 1.054-.765v-.452c-.339.038-.54.05-.904.05-.376 0-.853-.012-1.23-.05v.452c.44.012.653.25.653.552 0 .1 0 .126-.075.301l-1.218 3.126-1.356-3.427a.746.746 0 0 1-.063-.238c0-.277.327-.314.678-.314v-.452c-.452.038-.903.05-1.355.05-.364 0-.741-.025-1.105-.05v.452c.289 0 .552 0 .715.1.176.126.29.54.29.553 0 .025-.026.1-.051.15l-1.18 2.988-1.268-3.239c-.075-.176-.075-.188-.075-.238 0-.314.452-.314.678-.314v-.452c-.025 0-.917.05-1.419.05-.389 0-.79-.012-1.18-.05v.452c.49 0 .766 0 .904.364l1.745 4.431c.075.188.113.289.339.289.226 0 .263-.1.326-.264l1.419-3.59 1.393 3.552c.075.189.126.302.351.302.226 0 .264-.088.34-.289zM86.295 7.95c0-.666 0-1.143-.578-1.607-.514-.427-1.117-.628-1.857-.628-1.193 0-2.034.452-2.034 1.218 0 .401.276.615.603.615.339 0 .59-.251.59-.59 0-.214-.1-.477-.44-.578.452-.313 1.18-.313 1.256-.313.703 0 1.468.464 1.468 1.519v.389c-.69.025-1.519.062-2.435.401-1.13.415-1.481 1.105-1.481 1.67 0 1.08 1.305 1.393 2.196 1.393 1.005 0 1.595-.565 1.858-1.054.05.514.39.991.967.991.025 0 1.243 0 1.243-1.192v-.69h-.427v.677c0 .126 0 .728-.465.728s-.464-.59-.464-.753zm-.992 1.594c0 1.205-1.054 1.544-1.62 1.544-.64 0-1.242-.427-1.242-1.042 0-.69.603-1.657 2.862-1.745zM90.404 2.602l-1.883.138v.452c.841 0 .941.088.941.703v6.427c0 .54-.125.54-.941.54v.451c.025 0 .904-.05 1.406-.05.477 0 .941.012 1.418.05v-.452c-.816 0-.941 0-.941-.54zM94.448 2.602l-1.883.138v.452c.841 0 .941.088.941.703v6.427c0 .54-.125.54-.941.54v.451c.025 0 .904-.05 1.406-.05.477 0 .941.012 1.418.05v-.452c-.816 0-.941 0-.941-.54z"/>
</g>
</svg>
