<svg width="142.723" height="112.156" xmlns="http://www.w3.org/2000/svg" xmlns:xlink="http://www.w3.org/1999/xlink">
<defs>
<symbol id="b">
<path d="M9.14 78.786h1.686c.359 0 .538 0 .538-.359 0-.197-.18-.197-.502-.197H9.284c.646-2.546.735-2.905.735-3.013 0-.304-.215-.484-.52-.484-.054 0-.556.018-.717.646l-.7 2.851H6.398c-.359 0-.538 0-.538.34 0 .216.143.216.502.216h1.578c-1.291 5.093-1.363 5.398-1.363 5.72 0 .969.682 1.65 1.65 1.65 1.83 0 2.851-2.618 2.851-2.761 0-.18-.143-.18-.215-.18-.161 0-.18.054-.269.251-.771 1.865-1.721 2.296-2.331 2.296-.377 0-.556-.233-.556-.825 0-.43.036-.556.108-.86z" stroke-width="1.5"/>
</symbol>
<symbol id="c">
<path d="M38.5 5.413c-2.242.538-3.982 2.87-3.982 5.04 0 1.72 1.148 3.012 2.834 3.012 2.098 0 3.586-2.816 3.586-5.29 0-1.632-.717-2.529-1.327-3.336-.646-.807-1.704-2.152-1.704-2.94 0-.395.36-.826.987-.826.538 0 .896.233 1.273.484.359.216.717.449.986.449.449 0 .718-.43.718-.718 0-.394-.287-.448-.933-.591-.932-.198-1.184-.198-1.47-.198-1.4 0-2.045.772-2.045 1.848 0 .968.52 1.972 1.076 3.066zm.214.395c.449.824.987 1.793.987 3.084 0 1.184-.682 4.178-2.35 4.178-.986 0-1.721-.753-1.721-2.116 0-1.13.663-4.5 3.084-5.146z" stroke-width="1.5"/>
</symbol>
<marker id="a" overflow="visible" orient="auto">
<path d="m-10 0-4 4L0 0l-14-4z" fill="red" fill-rule="evenodd" stroke="red" stroke-width=".8pt"/>
</marker>
</defs>
<path color="#000" fill="none" stroke="#000" stroke-width=".5" style="isolation:auto;mix-blend-mode:normal" d="M56.408 77.721h13.435v13.435H56.408z"/>
<g fill="red" stroke-width="1.5">
<path d="M83.477 60.643c0-1.632-1.202-1.632-1.22-1.632-.717 0-1.363.753-1.363 1.363 0 .502.377.717.538.807.753.448.897.771.897 1.13 0 .394-1.04 4.322-3.138 4.322-1.291 0-1.291-1.076-1.291-1.4 0-1.04.502-2.348 1.075-3.783.144-.359.198-.52.198-.807 0-1.04-1.04-1.614-2.027-1.614-1.9 0-2.797 2.439-2.797 2.798 0 .25.269.25.43.25.215 0 .34 0 .413-.232.574-1.937 1.524-2.17 1.847-2.17.125 0 .305 0 .305.376 0 .413-.216.933-.27 1.076-.824 2.08-1.093 2.887-1.093 3.748 0 1.901 1.542 2.403 3.102 2.403 3.085 0 4.394-5.093 4.394-6.635zM93.389 65.632c.25-.628.665-.753 1.054-.766v-.452c-.339.038-.54.05-.904.05-.376 0-.853-.011-1.23-.05v.452c.44.012.653.251.653.553 0 .1 0 .125-.075.3l-1.218 3.127-1.356-3.427a.746.746 0 0 1-.063-.239c0-.276.327-.314.678-.314v-.452c-.452.038-.904.05-1.355.05-.364 0-.741-.024-1.105-.05v.452c.289 0 .552 0 .715.1.176.126.29.54.29.553 0 .025-.026.1-.051.15l-1.18 2.988-1.268-3.238c-.075-.176-.075-.189-.075-.239 0-.314.452-.314.678-.314v-.452c-.025 0-.917.05-1.419.05-.389 0-.79-.011-1.18-.05v.452c.49 0 .766 0 .904.364l1.745 4.431c.075.189.113.29.339.29.226 0 .263-.101.326-.264l1.419-3.59 1.393 3.552c.075.188.126.301.351.301.226 0 .264-.088.34-.289zM100.012 66.461c0-.665 0-1.142-.577-1.607-.515-.427-1.118-.627-1.858-.627-1.193 0-2.034.451-2.034 1.217 0 .402.276.615.603.615.339 0 .59-.25.59-.59 0-.213-.1-.477-.44-.577.452-.314 1.18-.314 1.256-.314.703 0 1.468.465 1.468 1.519v.39c-.69.024-1.519.062-2.435.4-1.13.415-1.481 1.105-1.481 1.67 0 1.08 1.305 1.394 2.197 1.394 1.004 0 1.594-.565 1.857-1.055.05.515.39.992.967.992.025 0 1.243 0 1.243-1.193v-.69h-.427v.678c0 .125 0 .728-.465.728s-.464-.59-.464-.753zm-.992 1.594c0 1.205-1.054 1.544-1.619 1.544-.64 0-1.243-.427-1.243-1.042 0-.69.603-1.657 2.862-1.745zM104.121 61.113l-1.883.138v.452c.841 0 .942.088.942.703v6.427c0 .54-.126.54-.942.54v.452c.025 0 .904-.05 1.406-.05.477 0 .941.012 1.418.05v-.452c-.815 0-.941 0-.941-.54zM108.165 61.113l-1.883.138v.452c.841 0 .942.088.942.703v6.427c0 .54-.126.54-.942.54v.452c.025 0 .904-.05 1.406-.05.477 0 .941.012 1.418.05v-.452c-.815 0-.941 0-.941-.54zM118.045 62.652c0-.52-.43-.95-.95-.95s-.95.43-.95.95.43.95.95.95.95-.43.95-.95z"/>
</g>
<g color="#000">
<path fill="#dcdcdc" style="isolation:auto;mix-blend-mode:normal" d="M.5 91.656h141.723v20H.5zM.5 20.238h141.723v20H.5z"/>
<path d="M.5 20.238h141.723" fill="none" stroke="#555" stroke-linejoin="round" stroke-miterlimit="100" stroke-width="3" style="font-variant-east_asian:normal;isolation:auto;mix-blend-mode:normal"/>
</g>
<path d="M23.218 9.125h5.003c.251 0 .592 0 .592-.359 0-.358-.34-.358-.592-.358h-5.003V3.387c0-.252 0-.592-.359-.592s-.358.34-.358.592v5.02h-5.022c-.25 0-.591 0-.591.36 0 .358.34.358.591.358h5.022v5.021c0 .251 0 .592.358.592s.359-.34.359-.592z"/>
<path d="M.5 91.656h141.723" color="#000" fill="none" stroke="#555" stroke-linejoin="round" stroke-miterlimit="100" stroke-width="3" style="font-variant-east_asian:normal;isolation:auto;mix-blend-mode:normal"/>
<circle transform="rotate(-26.402)" cx="21.802" cy="113.153" r="4" color="#000" fill="red"/>
<circle transform="rotate(-26.402)" cx="53.776" cy="48.747" r="4" color="#000" fill="red"/>
<path d="M69.843 91.566V21.471" color="#000" fill="none" marker-end="url(#a)" stroke="red" style="isolation:auto;mix-blend-mode:normal"/>
<use width="100%" height="100%" xlink:href="#b"/>
<use transform="translate(0 -72.709)" width="100%" height="100%" xlink:href="#b"/>
<use transform="translate(36.938 -72.709)" width="100%" height="100%" xlink:href="#b"/>
<use transform="translate(126.722 -18.824)" width="100%" height="100%" fill="red" xlink:href="#b"/>
<use width="100%" height="100%" xlink:href="#c"/>
<use transform="translate(89.784 53.885)" width="100%" height="100%" fill="red" xlink:href="#c"/>
</svg>
