<svg width="187.678" height="110.574" xmlns="http://www.w3.org/2000/svg" xmlns:xlink="http://www.w3.org/1999/xlink">
<defs>
<symbol id="b">
<path d="M90.141 7.368c-.018-.054-.09-.198-.09-.252 0-.018.018-.036.324-.27l1.746-1.368c2.412-1.872 3.204-2.502 4.446-2.61.126-.018.306-.018.306-.324 0-.108-.054-.198-.198-.198-.198 0-.414.036-.612.036h-.684c-.558 0-1.152-.036-1.692-.036-.126 0-.342 0-.342.324 0 .18.126.198.234.198.198.018.432.09.432.342 0 .36-.54.792-.684.9L86.271 9.6l1.494-5.94c.162-.612.198-.792 1.476-.792.342 0 .504 0 .504-.342 0-.18-.18-.18-.27-.18-.324 0-.702.036-1.044.036h-2.124c-.324 0-.72-.036-1.044-.036-.144 0-.342 0-.342.342 0 .18.162.18.432.18 1.098 0 1.098.144 1.098.342 0 .036 0 .144-.072.414l-2.43 9.684c-.162.63-.198.81-1.458.81-.342 0-.522 0-.522.324 0 .198.162.198.27.198.342 0 .702-.036 1.044-.036h2.106c.342 0 .72.036 1.062.036.144 0 .342 0 .342-.342 0-.18-.162-.18-.432-.18-1.098 0-1.098-.144-1.098-.324 0-.126.108-.576.18-.864l.702-2.79 2.736-2.142c.522 1.152 1.476 3.456 2.214 5.22.054.108.09.216.09.342 0 .54-.72.558-.882.558s-.342 0-.342.342c0 .18.198.18.252.18.63 0 1.296-.036 1.926-.036h.864c.27 0 .576.036.846.036.108 0 .306 0 .306-.342 0-.18-.162-.18-.342-.18-.666-.018-.9-.162-1.17-.81z" stroke-width="1.5"/>
</symbol>
<marker id="a" overflow="visible" orient="auto">
<path d="m-4 0-2 2 7-2-7-2z" fill="#fff" fill-rule="evenodd" stroke="#fff" stroke-width=".4pt"/>
</marker>
</defs>
<g color="#000">
<path transform="rotate(90)" fill="#8b8b8b" style="isolation:auto;mix-blend-mode:normal" d="M30.895-84.702h49.723V-.5H30.895z"/>
<path d="M84.702 30.895v49.723" fill="none" stroke="#3d3d3d" stroke-width="5" style="isolation:auto;mix-blend-mode:normal"/>
<path d="M17.828 51.257H73.2" fill="none" marker-end="url(#a)" stroke="#fff" stroke-width="2" style="isolation:auto;mix-blend-mode:normal"/>
<circle cx="158.026" cy="70.729" r="13.435" fill="#f44" style="isolation:auto;mix-blend-mode:normal"/>
<path d="M158.025 86.639a23.435 23.435 0 0 0-23.434 23.436h46.87a23.435 23.435 0 0 0-23.436-23.436z" fill="#f44" style="isolation:auto;mix-blend-mode:normal"/>
<circle cx="68.216" cy="8.509" r="7.644" fill="#44f" style="isolation:auto;mix-blend-mode:normal"/>
<path d="M68.215 17.561a13.334 13.334 0 0 0-13.333 13.334H81.55a13.334 13.334 0 0 0-13.334-13.334z" fill="#44f" style="isolation:auto;mix-blend-mode:normal"/>
</g>
<path d="M100.608 1.52c.06-.156.108-.24.108-.36 0-.396-.36-.66-.696-.66-.48 0-.612.42-.66.588L97.836 6.26c-.048.144-.048.18-.048.192 0 .108.072.132.192.168.216.096.24.096.264.096.036 0 .108 0 .192-.204z" fill="#00f"/>
<g fill="#fff" stroke-width="1.5">
<path d="M26.99 59.075c0-1.638-1.206-1.638-1.224-1.638-.72 0-1.368.756-1.368 1.368 0 .504.378.72.54.81.756.45.9.774.9 1.134 0 .396-1.044 4.338-3.15 4.338-1.296 0-1.296-1.08-1.296-1.404 0-1.044.504-2.358 1.08-3.798.144-.36.198-.522.198-.81 0-1.044-1.044-1.62-2.034-1.62-1.908 0-2.808 2.448-2.808 2.808 0 .252.27.252.432.252.216 0 .342 0 .414-.234.576-1.944 1.53-2.178 1.854-2.178.126 0 .306 0 .306.378 0 .414-.216.936-.27 1.08-.828 2.088-1.098 2.898-1.098 3.762 0 1.908 1.548 2.412 3.114 2.412 3.096 0 4.41-5.112 4.41-6.66zM36.038 64.331c.108-.276.312-.804 1.02-.816v-.396c-.396.036-.42.036-.936.036-.384 0-.708 0-1.092-.036v.396c.528.024.66.336.66.552 0 .144-.036.216-.06.3l-1.14 2.988-1.236-3.276c-.06-.156-.06-.192-.06-.24 0-.312.384-.324.672-.324v-.396c-.468.036-1.104.036-1.224.036-.264 0-.756 0-1.116-.036v.396c.732 0 .756.06.984.696l-1.104 2.964-1.188-3.108c-.012-.048-.06-.18-.06-.228 0-.324.456-.324.672-.324v-.396c-.516.036-1.056.036-1.284.036-.216 0-.828 0-1.176-.036v.396c.6 0 .72.048.852.384l1.608 4.224c.072.18.108.288.3.288.204 0 .252-.132.312-.288l1.272-3.372 1.272 3.372c.06.156.108.288.312.288.192 0 .24-.12.288-.252zM42.012 64.715c0-1.176-1.14-1.776-2.232-1.776-.996 0-1.884.384-1.884 1.176 0 .36.252.576.564.576.336 0 .564-.24.564-.564a.545.545 0 0 0-.444-.552c.444-.3 1.092-.3 1.176-.3.672 0 1.344.468 1.344 1.452v.372c-.696.036-1.5.072-2.34.42-1.056.456-1.26 1.152-1.26 1.548 0 1.032 1.212 1.344 2.04 1.344.876 0 1.416-.492 1.68-.972.06.456.372.912.9.912.12 0 1.14-.048 1.14-1.14v-.66h-.372v.66c0 .492-.18.684-.432.684-.444 0-.444-.552-.444-.684zm-.912 1.884c0 1.164-.984 1.476-1.464 1.476-.624 0-1.152-.42-1.152-.996 0-.792.744-1.608 2.616-1.668zM45.64 59.963l-1.789.132v.396c.816 0 .912.084.912.672v6.192c0 .54-.144.54-.912.54v.396c.468-.036 1.14-.036 1.344-.036.24 0 .888 0 1.356.036v-.396c-.768 0-.912 0-.912-.54zM49.18 59.963l-1.787.132v.396c.816 0 .912.084.912.672v6.192c0 .54-.144.54-.912.54v.396c.468-.036 1.14-.036 1.344-.036.24 0 .888 0 1.356.036v-.396c-.768 0-.912 0-.912-.54z"/>
</g>
<use width="100%" height="100%" fill="#0000f8" xlink:href="#b"/>
<use transform="translate(90.304 42.748)" width="100%" height="100%" fill="red" xlink:href="#b"/>
</svg>
