<svg width="188.143" height="121.46" viewBox="0 0 188.142 121.459" xmlns="http://www.w3.org/2000/svg" xmlns:xlink="http://www.w3.org/1999/xlink">
<defs>
<symbol id="b">
<path d="M154.151 54.72V21.2" fill="none" marker-end="url(#a)" stroke="#000" stroke-width="2"/>
<path d="M159.736 60.347h-5.203v-5.203a5.64 5.64 0 0 1 3.577 1.626 5.64 5.64 0 0 1 1.626 3.577zm-10.08-4.112c-1.206 1.186-1.856 2.811-1.856 4.495s.65 3.309 1.855 4.495a6.37 6.37 0 0 0 8.99 0 6.37 6.37 0 0 0 0-8.99 6.37 6.37 0 0 0-8.99 0zm4.877 10.08v-5.203h5.203a5.64 5.64 0 0 1-1.626 3.577 5.64 5.64 0 0 1-3.577 1.626zm-5.968-5.203h5.203v5.203a5.64 5.64 0 0 1-3.577-1.626 5.64 5.64 0 0 1-1.626-3.577zm5.203-5.968v5.203h-5.203a5.64 5.64 0 0 1 1.626-3.577 5.64 5.64 0 0 1 3.577-1.626z" stroke-linejoin="round" stroke-miterlimit="100000" stroke-width="1.6"/>
</symbol>
<symbol id="c">
<path d="M126.997 80.693c1.568-.516 2.678-1.855 2.678-3.366 0-1.569-1.683-2.64-3.52-2.64-1.932 0-3.385 1.148-3.385 2.601 0 .632.42.995.975.995.593 0 .976-.42.976-.976 0-.956-.9-.956-1.186-.956.593-.937 1.855-1.186 2.544-1.186.784 0 1.836.42 1.836 2.142 0 .23-.038 1.34-.535 2.181-.574.918-1.225.976-1.703.995-.153.019-.612.057-.746.057-.153.02-.287.038-.287.23 0 .21.134.21.46.21h.84c1.57 0 2.277 1.3 2.277 3.175 0 2.602-1.32 3.156-2.161 3.156-.823 0-2.257-.325-2.927-1.453.67.095 1.263-.326 1.263-1.052 0-.689-.517-1.072-1.072-1.072-.459 0-1.07.268-1.07 1.11 0 1.74 1.778 3.003 3.863 3.003 2.334 0 4.074-1.74 4.074-3.692 0-1.568-1.205-3.06-3.194-3.462zM139.777 81.305c0-1.53-.096-3.06-.765-4.476-.88-1.836-2.449-2.142-3.252-2.142-1.148 0-2.544.497-3.328 2.276-.612 1.32-.708 2.812-.708 4.342 0 1.435.077 3.156.86 4.61.823 1.55 2.22 1.932 3.157 1.932 1.033 0 2.487-.402 3.328-2.219.612-1.32.708-2.812.708-4.323zm-4.036 6.121c-.746 0-1.875-.478-2.219-2.314-.21-1.148-.21-2.908-.21-4.036 0-1.225 0-2.487.153-3.52.363-2.276 1.798-2.448 2.276-2.448.631 0 1.894.344 2.257 2.238.191 1.07.191 2.525.191 3.73 0 1.434 0 2.735-.21 3.96-.287 1.816-1.377 2.39-2.238 2.39zM145.722 85.972c0 .861-.21.861-1.492.861v.593c.631-.019 1.53-.057 2.085-.057.574 0 1.339.019 2.104.057v-.593c-1.282 0-1.492 0-1.492-.86v-1.97l1.224-1.053c1.473 2.028 2.276 3.099 2.276 3.443 0 .364-.325.44-.688.44v.593c.535-.019 1.664-.057 2.066-.057.554 0 1.11.019 1.664.057v-.593c-.708 0-1.129 0-1.856-1.014l-2.429-3.424c-.019-.038-.115-.153-.115-.21 0-.076 1.359-1.224 1.55-1.377 1.205-.976 2.008-1.014 2.41-1.033v-.593c-.555.057-.803.057-1.339.057a49.29 49.29 0 0 1-2.142-.057v.593c.363.019.554.23.554.478 0 .383-.267.612-.42.746l-2.697 2.334V74.15l-2.755.21v.594c1.339 0 1.492.134 1.492 1.07zM155.856 80.846v5.126c0 .861-.21.861-1.492.861v.593c.67-.019 1.645-.057 2.161-.057.498 0 1.492.038 2.143.057v-.593c-1.282 0-1.492 0-1.492-.86v-3.52c0-1.99 1.358-3.06 2.582-3.06 1.205 0 1.416 1.032 1.416 2.123v4.456c0 .861-.21.861-1.492.861v.593c.67-.019 1.645-.057 2.161-.057.497 0 1.492.038 2.142.057v-.593c-1.281 0-1.492 0-1.492-.86v-3.52c0-1.99 1.359-3.06 2.583-3.06 1.205 0 1.415 1.032 1.415 2.123v4.456c0 .861-.21.861-1.492.861v.593c.67-.019 1.645-.057 2.162-.057.497 0 1.492.038 2.142.057v-.593c-.995 0-1.473 0-1.492-.574v-3.653c0-1.645 0-2.238-.593-2.927-.268-.325-.899-.707-2.008-.707-1.607 0-2.449 1.147-2.774 1.874-.268-1.664-1.683-1.874-2.544-1.874-1.396 0-2.295.822-2.83 2.008v-2.008l-2.698.21v.593c1.339 0 1.492.134 1.492 1.071zM178.029 73.807c.096-.249.096-.325.096-.344a.384.384 0 0 0-.383-.383c-.134 0-.268.058-.325.172l-6.637 18.23c-.096.248-.096.324-.096.344 0 .21.172.382.382.382.25 0 .306-.134.421-.459zM183.14 83.715c.42.077 1.99.383 1.99 1.76 0 .976-.67 1.74-2.162 1.74-1.607 0-2.296-1.09-2.659-2.715-.057-.25-.076-.326-.268-.326-.248 0-.248.134-.248.479v2.524c0 .326 0 .46.21.46.096 0 .115-.02.478-.383.038-.038.038-.077.383-.44.841.803 1.702.823 2.104.823 2.2 0 3.08-1.282 3.08-2.66 0-1.013-.574-1.587-.804-1.816-.631-.613-1.377-.766-2.18-.919-1.072-.21-2.353-.459-2.353-1.568 0-.67.497-1.454 2.142-1.454 2.104 0 2.2 1.722 2.238 2.315.02.172.191.172.23.172.248 0 .248-.096.248-.46v-1.931c0-.325 0-.46-.21-.46-.096 0-.134 0-.383.23a2.465 2.465 0 0 1-.325.306c-.727-.535-1.511-.535-1.798-.535-2.334 0-3.06 1.281-3.06 2.353 0 .669.306 1.205.822 1.625.612.498 1.148.613 2.525.88z" fill="red" stroke-linejoin="round" stroke-miterlimit="100000" stroke-width="1.6"/>
</symbol>
<marker id="a" overflow="visible" orient="auto">
<path d="m-4 0-2 2 7-2-7-2z" fill-rule="evenodd" stroke="#000" stroke-width=".4pt"/>
</marker>
</defs>
<g stroke-linejoin="round">
<path d="M40.937 32.661C51.016 13.621 71.028.65 94.071.65c31.14 0 56.746 23.69 59.78 54.032m-.001 12.097a59.95 59.95 0 0 1-1.09 6.858m-7.41 18.415c-10.558 17.248-29.574 28.757-51.28 28.757-31.13 0-56.73-23.677-59.776-54.005m-.013-12.01a59.939 59.939 0 0 1 1.194-7.394" fill="none" stroke="#000" stroke-dasharray="1.79998936, 1.79998936" stroke-width=".3"/>
<path d="M99.656 60.73a5.65 5.65 0 0 1-1.626 3.96 5.602 5.602 0 0 1-3.96 1.625 5.57 5.57 0 0 1-3.959-1.626 5.57 5.57 0 0 1-1.625-3.96 5.57 5.57 0 0 1 1.625-3.959 5.57 5.57 0 0 1 3.96-1.626c1.473 0 2.907.574 3.96 1.626a5.65 5.65 0 0 1 1.625 3.96zm-10.08-4.495c-1.205 1.185-1.856 2.811-1.856 4.495s.65 3.309 1.856 4.495a6.37 6.37 0 0 0 8.99 0 6.37 6.37 0 0 0 0-8.99 6.37 6.37 0 0 0-8.99 0zm4.495 3.175a1.42 1.42 0 0 0-.937.382 1.42 1.42 0 0 0-.383.938c0 .344.153.688.383.937.248.23.593.382.937.382s.688-.153.918-.382c.249-.249.383-.593.383-.937 0-.345-.134-.689-.383-.938a1.336 1.336 0 0 0-.918-.382z"/>
<g stroke-miterlimit="100000" aria-label="太陽">
<path d="m94.1 51.17-.71.789q-1.75-.97-3.229-2.722-1.477-1.758-2.207-3.84-.507 2.414-2.115 4.12-1.609 1.706-3.835 2.455l-.39-.743q2.122-.761 3.69-2.597 1.57-1.843 1.843-4.154h-5.17v-.827h5.333v-3.196h1.113v3.196h5.417v.827h-5.248q.547 1.856 1.993 3.718 1.451 1.862 3.515 2.975zm-4.433-.09-.808.664q-.592-.677-2.298-2.11l.71-.65q1.289 1.041 2.396 2.096zM98.072 44.309q1.06 1.62 1.06 2.995v.039q0 .78-.201 1.321-.202.534-.573.775-.371.234-1.08.234h-.268l-.195-.78h.143q.098.006.15.006.423 0 .632-.092.214-.09.358-.384.15-.293.15-1.035 0-.762-.333-1.64-.325-.886-.677-1.29-.02-.026-.02-.104 0-.058.007-.084.26-.638.56-1.57t.3-1.19h-1.582v10.65h-.925V40.806h3.568l.104.163q-.117.501-.547 1.745-.43 1.237-.631 1.595zm2.076.436v-3.939h6.329v3.939zm.983-2.311h4.375v-.964h-4.375zm4.375.638h-4.375v.996h4.375zm-6.197 8.717-.508-.501q2.135-1.49 3.229-3.138h-1.296q-.488.56-1.198 1.14l-.5-.463q1.08-.931 1.92-2.383h-1.374v-.775h7.656v.775h-5.293q-.221.404-.631.97h5.527v.489q0 1.4-.11 2.259-.111.859-.274 1.145-.156.28-.436.456-.274.176-.54.241-.267.065-.886.065-.339 0-.762-.006l-.162-.814h.983q.794 0 1.009-.775.221-.775.221-2.012 0-.15-.007-.312h-.69q-1.01 2.272-3.19 3.835l-.567-.476q1.928-1.53 2.82-3.359h-1.244q-.592 1.016-1.732 2.096-1.14 1.081-1.966 1.543z"/>
</g>
</g>
<use width="100%" height="100%" xlink:href="#b"/>
<use transform="matrix(1 0 0 -1 -120.16 121.459)" width="100%" height="100%" xlink:href="#b"/>
<use width="100%" height="100%" xlink:href="#c"/>
<use transform="translate(-120.16 -43.83)" width="100%" height="100%" xlink:href="#c"/>
</svg>
