<svg width="177.837" height="99.765" xmlns="http://www.w3.org/2000/svg" xmlns:xlink="http://www.w3.org/1999/xlink">
<defs>
<symbol id="a">
<path d="M8.466 48.673V14.322l2.039 2.039-2.54-8.887-2.538 8.887 2.039-2.04v35.352h35.351l-2.039 2.04 8.887-2.54-8.887-2.539 2.04 2.04z" color="#000" style="font-feature-settings:normal;font-variant-alternates:normal;font-variant-caps:normal;font-variant-ligatures:normal;font-variant-numeric:normal;font-variant-position:normal;isolation:auto;mix-blend-mode:normal;shape-padding:0;text-decoration-color:#000;text-decoration-line:none;text-decoration-style:solid;text-indent:0;text-orientation:mixed;text-transform:none;white-space:normal"/>
</symbol>
</defs>
<path d="M77.502 79.997c29.23-11.585 51.934-36.236 62.62-66.604" color="#000" fill="none" stroke="#000" stroke-dasharray="3.00000522, 3.00000522" stroke-linejoin="round" stroke-miterlimit="100000" stroke-width=".5" style="isolation:auto;mix-blend-mode:normal"/>
<use transform="translate(113.172 -1.746)" width="100%" height="100%" fill="#00f" xlink:href="#a"/>
<use transform="translate(97.769 14.11)" width="100%" height="100%" fill="#8383ff" xlink:href="#a"/>
<use transform="translate(84.871 23.406)" width="100%" height="100%" fill="#c8c8ff" xlink:href="#a"/>
<use transform="matrix(0 -1 -1 0 70.206 85.941)" width="100%" height="100%" fill="#c8c8ff" xlink:href="#a"/>
<use transform="scale(-1 1) rotate(-75 12.234 82.621)" width="100%" height="100%" fill="#8383ff" xlink:href="#a"/>
<use transform="scale(-1 1) rotate(-60 18.41 89.053)" width="100%" height="100%" fill="#00f" xlink:href="#a"/>
<g fill="#00f">
<path d="M29.314 98.412h-9.329v.71h-.964V88.066h11.29v11.002h-.997zm-9.329-.788h9.33v-8.77h-9.33zm1.986-1.901v-4.994h5.221v4.994zm4.218-4.232h-3.222v3.425h3.222zM31.866 97.031v-.748h2.5v-1.126h-2.148v-4.805h2.175v-1.1h-2.448v-.75h2.448v-1.125h.963v1.126h2.37v.749h-2.37v1.1h2.136v4.805H35.33v1.126h2.37v.748h-2.37v2.234h-.964V97.03zm1.25-4.68h1.303v-1.329h-1.302zm2.175 0h1.276v-1.329h-1.276zm1.276.67h-1.276v1.439h1.276zm-2.148 0h-1.302v1.439h1.302zm4.043-4.134v-.8h5.332v.8zm-.801 10.182-.209-.827q.332-.02.801-.065.808-1.972 1.712-5.481H38.09v-.808h5.97v.808h-3.027q-.86 3.157-1.79 5.377 1.953-.228 3.418-.488-.56-1.374-1.074-2.526l.898-.287q.54 1.081 1.725 4.121l-.937.274q-.124-.345-.313-.833-1.471.28-5.3.735zM103.721 91.771q0 2.05-.638 4.076-.632 2.018-1.849 3.418l-.703-.521q1.048-1.244 1.608-3.112.566-1.869.566-4.082v-.84h-1.66v-.788h1.66v-2.558h1.016v2.558h3.06v1.79l-.007 1.921q-.007 1.003-.078 2.077-.065 1.074-.235 1.79-.162.716-.377 1.003-.209.286-.534.443t-.723.156h-1.419l-.117-.912h1.028q.365 0 .586-.084.222-.091.358-.293.137-.202.228-.586.098-.384.163-1.01.072-.624.091-1.243.02-.625.02-2.87V90.71h-2.045zm8.001 6.309h-2.532v.963h-1.016V88.386h4.564v10.566h-1.016zm-2.532-.847h2.532V89.2h-2.532zM126.611 96.218l-.495.774q-2.187-.878-3.776-2.526v3.1h-.97v-3.034q-1.601 1.614-3.574 2.408l-.365-.67q1.14-.502 2.207-1.354 1.075-.853 1.452-1.348h-2.897V90.3h3.151v-1.088h-3.685v-.8h3.685v-.938h1.01v.938h3.762v.8h-3.763V90.3h3.184v3.268H122.6q.664.762 1.803 1.51 1.146.75 2.207 1.14zm-2.057-3.334V91.01h-2.2v1.875zm-3.21 0V91.01h-2.174v1.875zm-4.297-3.138-.911.54q-.586-1.041-1.563-2.232l.827-.515q1.022 1.263 1.647 2.207zm9.779 8.32-.189.886-3.633.013q-2.74 0-3.379-.059t-1.308-.208q-.67-.143-1.172-.482-.495-.345-.723-.748-1.08 1.106-2.135 1.62l-.352-.872q.358-.156 1.003-.58.65-.429.911-.683v-3.971h-1.725v-.807h2.747v4.18q0 .611.43 1.002.43.384 1.01.52.579.131 1.086.203.508.071 2.95.071 3.15 0 4.479-.084zM129.411 89.173v3.112q0 2.494-.443 4.148-.436 1.653-1.172 2.669l-.657-.502q1.295-2.18 1.295-5.729V88.36h5.085v-1.107h1.061v1.107h5.137v.813zm2.448 4.245v-1.946h-1.908v-.762h1.908v-.964h.976v.964h3.347v-.964h1.022v.964h2.11v.762h-2.11v1.946zm.976-1.946v1.237h3.347v-1.237zm1.915 6.464q-2.07.95-5.15 1.29l-.215-.808q.879-.078 1.628-.215.755-.136 1.25-.28.5-.143 1.484-.481-1.602-.938-2.422-2.338h-1.074v-.774h7.969l.247.28q-.84 1.666-2.754 2.819 1.732.638 3.978.859l-.397.853q-2.448-.293-4.544-1.205zm-.006-.93q1.523-.827 2.252-1.902h-4.577q.82 1.14 2.325 1.901z"/>
</g>
<g fill="red">
<path d="M23.89 16.343h4.797v.96H23.89v3.985h-1.195V7.28h1.195v1.883h4.586v.945H23.89v2.563h4.18v.96h-4.18zM14.148 17.6l-.25-1q1.695-.243 4.758-.782.023-.297.023-.836v-1.351h-4.156v-.961h4.156v-2.563h-4.203v-.945h4.203V7.397h1.196v7.422q0 .39-.024.79.649-.118 1.25-.25v.898q-.46.125-1.36.312-.312 1.969-1.32 3.102-1 1.125-2.71 1.758l-.524-.797q1.023-.406 1.984-1.281.97-.875 1.336-2.532-2.007.383-4.359.782zM31.765 21.452V7.187h1.172v14.265zm3.711-11.281H34.36v-.813h1.187l.149-1.797h8.18l-.086 1.797h1.226v.813h-1.258l-.086 1.844H35.32zm3.578-.781.086-1.063h-2.414l-.094 1.063zm1.157-1.063-.086 1.063h2.562l.055-1.063zm-1.297 2.906L39 10.14h-2.43l-.094 1.093zm1.156-1.093-.094 1.093h2.602l.062-1.093zm-6.219 2.007-.64-1.976.804-.242.649 1.921zm-3.36 2.578-.984-.21q.414-1.743.446-4.36l.992.031q-.047 2.914-.453 4.54zm4.602 4.243v-6.055h8.86v6.055zm1.172-4.344h6.516v-.945h-6.516zm0 1.703h6.516v-.984h-6.516zm6.516.719h-6.516V18.1h6.516zm1.758 4.406q-1.985-.578-3.602-1.648l.664-.774q1.422.89 3.508 1.469zm-10.25.016-.391-.852q1.914-.539 3.477-1.562l.718.75q-.64.453-1.789.96-1.148.516-2.015.704zM50.734 21.077v-1h4.664v-4.344h-3.836v-.96h3.836v-3.446h-2.562q-.586 1.399-1.368 2.5l-.945-.492q.68-.992 1.328-2.602.649-1.609.852-2.882l1.226.18q-.234 1.054-.718 2.335h2.187V7.202h1.242v3.164h4v.961h-4v3.445h3.625v.961H56.64v4.344h4.344v1zm-2.648.406V7.265h1.148v14.218zm2.062-9.601-.508-2.149.914-.21.508 2.117zm-3.516 2.742-1.007-.211q.445-1.719.554-4.36l1.047.04q-.031.898-.219 2.367-.18 1.46-.375 2.164zM68.703 21.468v-5.735q-4.328.243-6.04.282l-.148-1.047q1.25.039 4.797-.102.297-.219.594-.46-.07-.071-3.79-3.407l.821-.68q.211.157.992.844 1.141-1.18 1.953-2.203-2.96.164-4.648.18l-.125-.899q3.313-.047 6.867-.336 3.555-.297 4.703-.594l.555.914q-1.742.375-5.844.649-1.203 1.508-2.703 2.953l2.078 1.867q2.508-2.133 3.852-3.883l1.18.586q-2.266 2.5-4.883 4.407 3.117-.141 5.047-.297-.672-.727-1.196-1.219l.899-.64q.508.43 1.531 1.515 1.023 1.086 1.54 1.719l-.985.687q-.5-.617-1.047-1.242-1.461.133-4.742.328v5.813zm6.953-.64q-.969-.618-2.227-1.72-1.25-1.11-1.742-1.804l.93-.625q2.117 2.25 3.867 3.234zm-12.828.062-.617-.813q1.328-.851 2.062-1.484.735-.64 1.79-1.766l1.054.625q-.742.899-2.047 1.938-1.297 1.03-2.242 1.5z"/>
</g>
</svg>
