<svg width="166.015" height="122.664" viewBox="0 0 166.014 122.664" xmlns="http://www.w3.org/2000/svg" xmlns:xlink="http://www.w3.org/1999/xlink">
<defs>
<symbol id="b">
<path d="M111.722 85.405c-.018-.054-.09-.198-.09-.252 0-.018.018-.036.324-.27l1.746-1.368c2.412-1.872 3.204-2.502 4.446-2.61.126-.018.306-.018.306-.324 0-.108-.054-.198-.198-.198-.198 0-.414.036-.612.036h-.684c-.558 0-1.152-.036-1.692-.036-.126 0-.342 0-.342.324 0 .18.126.198.234.198.198.018.432.09.432.342 0 .36-.54.792-.684.9l-7.056 5.49 1.494-5.94c.162-.612.198-.792 1.476-.792.342 0 .504 0 .504-.342 0-.18-.18-.18-.27-.18-.324 0-.702.036-1.044.036h-2.124c-.324 0-.72-.036-1.044-.036-.144 0-.342 0-.342.342 0 .18.162.18.432.18 1.098 0 1.098.144 1.098.342 0 .036 0 .144-.072.414l-2.43 9.684c-.162.63-.198.81-1.458.81-.342 0-.522 0-.522.324 0 .198.162.198.27.198.342 0 .702-.036 1.044-.036h2.106c.342 0 .72.036 1.062.036.144 0 .342 0 .342-.342 0-.18-.162-.18-.432-.18-1.098 0-1.098-.144-1.098-.324 0-.126.108-.576.18-.864l.702-2.79 2.736-2.142c.522 1.152 1.476 3.456 2.214 5.22.054.108.09.216.09.342 0 .54-.72.558-.882.558s-.342 0-.342.342c0 .18.198.18.252.18.63 0 1.296-.036 1.926-.036h.864c.27 0 .576.036.846.036.108 0 .306 0 .306-.342 0-.18-.162-.18-.342-.18-.666-.018-.9-.162-1.17-.81z" stroke-width="1.5"/>
</symbol>
<symbol id="c">
<path d="M72.174 24.983a1.428 1.428 0 0 0-1.033 1.32c0 .42.325.88.956.88.67 0 1.377-.555 1.377-1.492 0-1.014-1.014-1.683-2.18-1.683-1.09 0-1.798.822-2.047 1.166-.478-.803-1.55-1.166-2.64-1.166-2.41 0-3.71 2.352-3.71 2.984 0 .267.286.267.458.267.23 0 .364 0 .44-.248.555-1.74 1.932-2.315 2.717-2.315.726 0 1.07.345 1.07.957 0 .363-.267 1.415-.44 2.104l-.65 2.62c-.286 1.167-.975 1.741-1.625 1.741-.096 0-.536 0-.919-.287a1.429 1.429 0 0 0 1.033-1.32c0-.42-.325-.88-.956-.88-.67 0-1.377.555-1.377 1.492 0 1.014 1.014 1.684 2.18 1.684 1.09 0 1.798-.823 2.047-1.167.478.803 1.55 1.167 2.64 1.167 2.41 0 3.71-2.353 3.71-2.984 0-.268-.286-.268-.459-.268-.23 0-.363 0-.44.248-.554 1.741-1.931 2.315-2.716 2.315-.727 0-1.07-.344-1.07-.956 0-.402.248-1.416.42-2.124.134-.497.574-2.295.67-2.601.286-1.148.956-1.74 1.625-1.74.096 0 .536 0 .919.286z" stroke-linejoin="round" stroke-miterlimit="100000" stroke-width="1.6"/>
</symbol>
<marker id="a" overflow="visible" orient="auto">
<path d="m-10 0-4 4L0 0l-14-4z" fill-rule="evenodd" stroke="#000" stroke-width=".8pt"/>
</marker>
</defs>
<g color="#000">
<path transform="rotate(-90)" fill="#dcdcdc" style="isolation:auto;mix-blend-mode:normal" d="M-122.164 90.198H-.5v75.317h-121.664z"/>
<path d="M90.198 122.164V.5" fill="none" stroke="#555" stroke-linejoin="round" stroke-miterlimit="100" stroke-width="3" style="isolation:auto;mix-blend-mode:normal"/>
<circle cx="17.938" cy="85.778" r="9.997" fill="#f44" style="isolation:auto;mix-blend-mode:normal"/>
<path d="M17.938 97.617A17.438 17.438 0 0 0 .5 115.055h34.876a17.438 17.438 0 0 0-17.439-17.438z" fill="#f44" style="isolation:auto;mix-blend-mode:normal"/>
<circle cx="136.332" cy="85.778" r="9.997" fill="#44f" style="isolation:auto;mix-blend-mode:normal"/>
<path d="M136.332 97.617a17.438 17.438 0 0 0-17.437 17.438h34.876a17.438 17.438 0 0 0-17.44-17.439z" fill="#44f" style="isolation:auto;mix-blend-mode:normal"/>
</g>
<path d="M122.189 79.557c.06-.156.108-.24.108-.36 0-.396-.36-.66-.696-.66-.48 0-.612.42-.66.588l-1.524 5.172c-.048.144-.048.18-.048.192 0 .108.072.132.192.168.216.096.24.096.264.096.036 0 .108 0 .192-.204z" fill="#00f"/>
<path d="m136.066 75.784-93.753-50.81" color="#000" fill="none" marker-end="url(#a)" stroke="#000" stroke-dasharray="1.99998803, 1.99998803" stroke-width=".5" style="isolation:auto;mix-blend-mode:normal"/>
<path d="M78.41 18.436c.107-.228.12-.335.12-.429 0-.415-.374-.736-.79-.736-.508 0-.669.415-.736.63l-1.767 5.797a2.04 2.04 0 0 0-.067.214c0 .16.415.295.522.295.094 0 .107-.027.2-.228z"/>
<path d="m18.83 75.82 17.4-48.531" color="#000" fill="none" marker-end="url(#a)" stroke="#000" stroke-dasharray="1.99998803, 1.99998803" stroke-width=".5" style="isolation:auto;mix-blend-mode:normal"/>
<circle transform="rotate(-26.402)" cx="23.915" cy="37.094" r="5" color="#000" fill="#5e5bff"/>
<use width="100%" height="100%" fill="#00f" stroke-width="1.5" style="font-variant-east_asian:normal" xlink:href="#b"/>
<use transform="translate(-70.447)" width="100%" height="100%" fill="red" stroke-width="1.5" style="font-variant-east_asian:normal" xlink:href="#b"/>
<use width="100%" height="100%" xlink:href="#c"/>
<use transform="translate(-47.527 5)" width="100%" height="100%" xlink:href="#c"/>
</svg>
