<svg width="203.105" height="133.291" xmlns="http://www.w3.org/2000/svg" xmlns:xlink="http://www.w3.org/1999/xlink">
<defs>
<marker id="c" overflow="visible" orient="auto">
<path d="m-4 0-2 2 7-2-7-2 2 2z" fill="#555" fill-rule="evenodd" stroke="#555" stroke-width=".4pt"/>
</marker>
<marker id="a" overflow="visible" orient="auto">
<path d="m-10 0-4 4L0 0l-14-4z" fill-rule="evenodd" stroke="#000" stroke-width=".8pt"/>
</marker>
<marker id="b" overflow="visible" orient="auto">
<path d="m-4 0-2 2 7-2-7-2z" fill="#fff" fill-rule="evenodd" stroke="#fff" stroke-width=".4pt"/>
</marker>
<symbol id="d">
<path d="M137.878 52.081c-.054.269-.161.681-.161.771 0 .323.25.484.52.484a.733.733 0 0 0 .663-.502c.018-.036.233-.879.34-1.327l.395-1.614c.108-.394.216-.789.305-1.201.072-.305.215-.825.233-.897.27-.556 1.22-2.188 2.923-2.188.807 0 .969.664.969 1.256 0 .448-.126.95-.27 1.488l-.501 2.08-.359 1.363c-.072.359-.233.968-.233 1.058 0 .323.251.484.52.484.556 0 .663-.448.807-1.022.251-1.004.915-3.622 1.076-4.322.054-.233 1.004-2.385 2.959-2.385.77 0 .968.61.968 1.256 0 1.022-.753 3.066-1.112 4.017-.161.43-.233.627-.233.986 0 .843.628 1.47 1.47 1.47 1.686 0 2.35-2.618 2.35-2.761 0-.18-.161-.18-.215-.18-.18 0-.18.054-.27.323-.268.95-.842 2.224-1.828 2.224-.305 0-.43-.18-.43-.592 0-.448.16-.879.322-1.273.34-.933 1.094-2.923 1.094-3.945 0-1.166-.717-1.92-2.062-1.92-1.345 0-2.26.79-2.923 1.74-.018-.233-.072-.843-.574-1.273-.449-.377-1.022-.466-1.47-.466-1.615 0-2.493 1.147-2.798 1.56-.09-1.022-.843-1.56-1.65-1.56-.825 0-1.166.7-1.327 1.022-.323.628-.556 1.686-.556 1.74 0 .179.18.179.215.179.18 0 .197-.018.305-.413.305-1.273.664-2.134 1.31-2.134.286 0 .555.144.555.825 0 .377-.054.574-.287 1.507zM157.054 41.79c0-.43-.359-.897-.897-.897-.502 0-.896.395-.896.897s.394.897.896.897c.538 0 .897-.467.897-.897zm3.461 0a.888.888 0 0 0-.897-.897c-.538 0-.896.467-.896.897s.358.897.896.897a.888.888 0 0 0 .897-.897zM161.599 45.948a1.34 1.34 0 0 0-.968 1.237c0 .395.304.825.896.825.628 0 1.291-.52 1.291-1.398 0-.95-.95-1.579-2.044-1.579-1.022 0-1.686.772-1.919 1.094-.448-.753-1.452-1.094-2.474-1.094-2.26 0-3.48 2.206-3.48 2.798 0 .251.27.251.431.251.215 0 .34 0 .412-.233.52-1.632 1.812-2.17 2.547-2.17.681 0 1.004.323 1.004.897 0 .34-.25 1.327-.412 1.972l-.61 2.457c-.269 1.094-.915 1.632-1.524 1.632-.09 0-.502 0-.861-.27a1.34 1.34 0 0 0 .968-1.236c0-.395-.305-.825-.896-.825-.628 0-1.292.52-1.292 1.398 0 .95.95 1.578 2.045 1.578 1.022 0 1.686-.77 1.919-1.093.448.753 1.452 1.093 2.474 1.093 2.26 0 3.48-2.205 3.48-2.797 0-.251-.27-.251-.431-.251-.215 0-.34 0-.413.233-.52 1.632-1.81 2.17-2.546 2.17-.681 0-1.004-.323-1.004-.897 0-.376.233-1.327.394-1.99.126-.467.538-2.152.628-2.44.269-1.075.897-1.631 1.524-1.631.09 0 .502 0 .861.269z" stroke-width="1.5"/>
</symbol>
<symbol id="e">
<path d="M181.107 47.275c.269 0 .61 0 .61-.359s-.341-.358-.592-.358h-10.742c-.25 0-.592 0-.592.358 0 .359.341.359.61.359zm.018 3.479c.251 0 .592 0 .592-.359 0-.358-.341-.358-.61-.358h-10.706c-.269 0-.61 0-.61.358 0 .359.341.359.592.359zM195.356 46.02h2.098c.34 0 .664 0 .664-.52 0-.323-.305-.323-.61-.323h-2.009l.592-3.246c.054-.322.054-.358.233-.52.233-.215.43-.215.52-.215.251 0 .413.036.628.126-.43.215-.753.681-.753 1.165 0 .538.43.825.879.825.735 0 1.29-.645 1.29-1.327 0-.914-.932-1.434-2.044-1.434-.842 0-1.847.34-2.474 1.345-.413.663-.52 1.362-.861 3.281h-1.757c-.341 0-.646 0-.646.52 0 .323.305.323.592.323h1.65l-1.363 7.64c-.036.16-.233 1.29-.323 1.542-.036.09-.323.914-.897.914-.34 0-.484-.054-.61-.107.449-.216.79-.682.79-1.184 0-.538-.43-.825-.88-.825-.734 0-1.29.646-1.29 1.327 0 .969 1.022 1.435 1.954 1.435 1.345 0 2.278-1.327 2.421-1.56.771-1.184 1.184-3.461 1.238-3.766z" stroke-width="1.5"/>
</symbol>
</defs>
<g color="#000">
<path d="m41.988 74.492 57.147-41.713" fill="none" marker-end="url(#a)" stroke="#000" stroke-dasharray="1.99999999, 1.99999999" stroke-width=".5" style="isolation:auto;mix-blend-mode:normal"/>
<path d="M185.416 103.899 113.32 33.483" fill="none" marker-end="url(#a)" stroke="#000" stroke-dasharray="1.99999999, 1.99999999" stroke-width=".5" style="isolation:auto;mix-blend-mode:normal"/>
<path transform="rotate(90)" fill="#8b8b8b" style="isolation:auto;mix-blend-mode:normal" d="M93.563-62.202h39.227V-.5H93.563z"/>
<path d="M62.202 93.563v39.227" fill="none" stroke="#3d3d3d" stroke-width="5" style="isolation:auto;mix-blend-mode:normal"/>
<circle cx="185.42" cy="103.939" r="9.852" fill="#f44" style="isolation:auto;mix-blend-mode:normal"/>
<path d="M185.42 115.605a17.185 17.185 0 0 0-17.184 17.185h34.37a17.185 17.185 0 0 0-17.186-17.185z" fill="#f44" style="isolation:auto;mix-blend-mode:normal"/>
<circle cx="41.894" cy="74.531" r="6.499" fill="#44f" style="isolation:auto;mix-blend-mode:normal"/>
<path d="M41.894 82.227a11.336 11.336 0 0 0-11.336 11.336H53.23a11.336 11.336 0 0 0-11.336-11.336z" fill="#44f" style="isolation:auto;mix-blend-mode:normal"/>
</g>
<g stroke-width="1.5">
<path d="M158.228 107.845c-.018-.054-.09-.198-.09-.252 0-.018.018-.036.324-.27l1.746-1.368c2.412-1.872 3.204-2.502 4.446-2.61.126-.018.306-.018.306-.324 0-.108-.054-.198-.198-.198-.198 0-.414.036-.612.036h-.684c-.558 0-1.152-.036-1.692-.036-.126 0-.342 0-.342.324 0 .18.126.198.234.198.198.018.432.09.432.342 0 .36-.54.792-.684.9l-7.056 5.49 1.494-5.94c.162-.612.198-.792 1.476-.792.342 0 .504 0 .504-.342 0-.18-.18-.18-.27-.18-.324 0-.702.036-1.044.036h-2.124c-.324 0-.72-.036-1.044-.036-.144 0-.342 0-.342.342 0 .18.162.18.432.18 1.098 0 1.098.144 1.098.342 0 .036 0 .144-.072.414l-2.43 9.684c-.162.63-.198.81-1.458.81-.342 0-.522 0-.522.324 0 .198.162.198.27.198.342 0 .702-.036 1.044-.036h2.106c.342 0 .72.036 1.062.036.144 0 .342 0 .342-.342 0-.18-.162-.18-.432-.18-1.098 0-1.098-.144-1.098-.324 0-.126.108-.576.18-.864l.702-2.79 2.736-2.142c.522 1.152 1.476 3.456 2.214 5.22.054.108.09.216.09.342 0 .54-.72.558-.882.558s-.342 0-.342.342c0 .18.198.18.252.18.63 0 1.296-.036 1.926-.036h.864c.27 0 .576.036.846.036.108 0 .306 0 .306-.342 0-.18-.162-.18-.342-.18-.666-.018-.9-.162-1.17-.81z" fill="red"/>
<path d="M18.097 73.229c-.018-.054-.09-.198-.09-.252 0-.018.018-.036.324-.27l1.746-1.368c2.412-1.872 3.204-2.502 4.446-2.61.126-.018.306-.018.306-.324 0-.108-.054-.198-.198-.198-.198 0-.414.036-.612.036h-.684c-.558 0-1.152-.036-1.692-.036-.126 0-.342 0-.342.324 0 .18.126.198.234.198.198.018.432.09.432.342 0 .36-.54.792-.684.9l-7.056 5.49 1.494-5.94c.162-.612.198-.792 1.476-.792.342 0 .504 0 .504-.342 0-.18-.18-.18-.27-.18-.324 0-.702.036-1.044.036h-2.124c-.324 0-.72-.036-1.044-.036-.144 0-.342 0-.342.342 0 .18.162.18.432.18 1.098 0 1.098.144 1.098.342 0 .036 0 .144-.072.414l-2.43 9.684c-.162.63-.198.81-1.458.81-.342 0-.522 0-.522.324 0 .198.162.198.27.198.342 0 .702-.036 1.044-.036h2.106c.342 0 .72.036 1.062.036.144 0 .342 0 .342-.342 0-.18-.162-.18-.432-.18-1.098 0-1.098-.144-1.098-.324 0-.126.108-.576.18-.864l.702-2.79 2.736-2.142c.522 1.152 1.476 3.456 2.214 5.22.054.108.09.216.09.342 0 .54-.72.558-.882.558s-.342 0-.342.342c0 .18.198.18.252.18.63 0 1.296-.036 1.926-.036h.864c.27 0 .576.036.846.036.108 0 .306 0 .306-.342 0-.18-.162-.18-.342-.18-.666-.018-.9-.162-1.17-.81zM28.564 67.381c.06-.156.108-.24.108-.36 0-.396-.36-.66-.696-.66-.48 0-.612.42-.66.588l-1.524 5.172c-.048.144-.048.18-.048.192 0 .108.072.132.192.168.216.096.24.096.264.096.036 0 .108 0 .192-.204z" fill="#00f"/>
</g>
<g fill="none">
<path d="M18.566 113.177h33.756" color="#000" marker-end="url(#b)" stroke="#fff" stroke-width="2" style="isolation:auto;mix-blend-mode:normal"/>
<path d="M106.631 63.189c-2.278-12.888-3.161-25.634.194-36.051 4.662-14.473 17.504-24.45 46.155-24.068" color="#000" stroke="#555" stroke-width=".5" style="isolation:auto;mix-blend-mode:normal"/>
<path d="m106.825 27.138 9.135-24.789" marker-end="url(#c)" stroke="#555"/>
</g>
<circle transform="rotate(-37.318)" cx="68.504" cy="86.344" r="5" color="#000" fill="#5e5bff" style="font-variant-east_asian:normal"/>
<path d="M39.036 30.073c.1-.213.113-.314.113-.402 0-.389-.351-.69-.74-.69-.478 0-.628.389-.691.59l-1.657 5.435a1.779 1.779 0 0 0-.063.201c0 .15.39.276.49.276.088 0 .1-.025.188-.213z"/>
<use width="100%" height="100%" xlink:href="#d"/>
<use transform="translate(-128.41 -9.349)" width="100%" height="100%" xlink:href="#d"/>
<use width="100%" height="100%" xlink:href="#e"/>
<use transform="translate(-123.379 -9.349)" width="100%" height="100%" xlink:href="#e"/>
</svg>
