<svg width="221.371" height="86.24" xmlns="http://www.w3.org/2000/svg" xmlns:xlink="http://www.w3.org/1999/xlink">
<defs>
<marker id="a" overflow="visible" orient="auto">
<path d="m-4 0-2 2 7-2-7-2z" fill="#fff" fill-rule="evenodd" stroke="#fff" stroke-width=".4pt"/>
</marker>
<marker id="b" overflow="visible" orient="auto">
<path d="m-4 0-2 2 7-2-7-2z" fill="#fff" fill-rule="evenodd" stroke="#fff" stroke-width=".4pt"/>
</marker>
<marker id="c" overflow="visible" orient="auto">
<path d="m-4 0-2 2 7-2-7-2z" fill="red" fill-rule="evenodd" stroke="red" stroke-width=".4pt"/>
</marker>
<symbol id="d">
<path d="M129.573 67.618c0-.484-.412-.95-.95-.95a.959.959 0 0 0-.969.95c0 .484.413.95.95.95.61 0 .969-.502.969-.95zM132.323 71.723a1.34 1.34 0 0 0-.968 1.237c0 .395.304.825.896.825.628 0 1.291-.52 1.291-1.398 0-.95-.95-1.579-2.044-1.579-1.022 0-1.686.772-1.919 1.094-.448-.753-1.452-1.094-2.474-1.094-2.26 0-3.48 2.206-3.48 2.798 0 .251.27.251.431.251.215 0 .34 0 .412-.233.52-1.632 1.812-2.17 2.547-2.17.681 0 1.004.323 1.004.897 0 .34-.25 1.327-.412 1.972l-.61 2.457c-.269 1.094-.915 1.632-1.524 1.632-.09 0-.502 0-.861-.27a1.34 1.34 0 0 0 .968-1.236c0-.395-.305-.825-.896-.825-.628 0-1.292.52-1.292 1.398 0 .95.95 1.578 2.045 1.578 1.022 0 1.685-.77 1.919-1.093.448.753 1.452 1.093 2.474 1.093 2.26 0 3.48-2.205 3.48-2.797 0-.251-.27-.251-.431-.251-.215 0-.34 0-.413.233-.52 1.632-1.81 2.17-2.546 2.17-.681 0-1.004-.323-1.004-.897 0-.376.233-1.327.394-1.99.126-.467.538-2.152.628-2.44.269-1.075.897-1.631 1.524-1.631.09 0 .502 0 .861.269z" fill="red" stroke-width="1.5"/>
</symbol>
<symbol id="e">
<path d="M197.768 72.2c0-1.638-1.206-1.638-1.224-1.638-.72 0-1.368.756-1.368 1.368 0 .504.378.72.54.81.756.45.9.774.9 1.134 0 .396-1.044 4.338-3.15 4.338-1.296 0-1.296-1.08-1.296-1.404 0-1.044.504-2.358 1.08-3.798.144-.36.198-.522.198-.81 0-1.044-1.044-1.62-2.034-1.62-1.908 0-2.808 2.448-2.808 2.808 0 .252.27.252.432.252.216 0 .342 0 .414-.234.576-1.944 1.53-2.178 1.854-2.178.126 0 .306 0 .306.378 0 .414-.216.936-.27 1.08-.828 2.088-1.098 2.898-1.098 3.762 0 1.908 1.548 2.412 3.114 2.412 3.096 0 4.41-5.112 4.41-6.66zM206.816 77.455c.108-.276.312-.804 1.02-.816v-.396c-.396.036-.42.036-.936.036-.384 0-.708 0-1.092-.036v.396c.528.024.66.336.66.552 0 .144-.036.216-.06.3l-1.14 2.988-1.236-3.276c-.06-.156-.06-.192-.06-.24 0-.312.384-.324.672-.324v-.396c-.468.036-1.104.036-1.224.036-.264 0-.756 0-1.116-.036v.396c.732 0 .756.06.984.696l-1.104 2.964-1.188-3.108c-.012-.048-.06-.18-.06-.228 0-.324.456-.324.672-.324v-.396c-.516.036-1.056.036-1.284.036-.216 0-.828 0-1.176-.036v.396c.6 0 .72.048.852.384l1.608 4.224c.072.18.108.288.3.288.204 0 .252-.132.312-.288l1.272-3.372 1.272 3.372c.06.156.108.288.312.288.192 0 .24-.12.288-.252zM212.79 77.839c0-1.176-1.14-1.776-2.232-1.776-.996 0-1.884.384-1.884 1.176 0 .36.252.576.564.576.336 0 .564-.24.564-.564a.545.545 0 0 0-.444-.552c.444-.3 1.092-.3 1.176-.3.672 0 1.344.468 1.344 1.452v.372c-.696.036-1.5.072-2.34.42-1.056.456-1.26 1.152-1.26 1.548 0 1.032 1.212 1.344 2.04 1.344.876 0 1.416-.492 1.68-.972.06.456.372.912.9.912.12 0 1.14-.048 1.14-1.14v-.66h-.372v.66c0 .492-.18.684-.432.684-.444 0-.444-.552-.444-.684zm-.912 1.884c0 1.164-.984 1.476-1.464 1.476-.624 0-1.152-.42-1.152-.996 0-.792.744-1.608 2.616-1.668zM216.417 73.087l-1.788.132v.396c.816 0 .912.084.912.672v6.192c0 .54-.144.54-.912.54v.396c.468-.036 1.14-.036 1.344-.036.24 0 .888 0 1.356.036v-.396c-.768 0-.912 0-.912-.54zM219.959 73.087l-1.788.132v.396c.816 0 .912.084.912.672v6.192c0 .54-.144.54-.912.54v.396c.468-.036 1.14-.036 1.344-.036.24 0 .888 0 1.356.036v-.396c-.768 0-.912 0-.912-.54z" color="#000" stroke-width="1.5" style="isolation:auto;mix-blend-mode:normal"/>
</symbol>
</defs>
<g color="#000">
<path d="m72.2 60.028 6.945-2.034-4.416-5.704 6.82 2.412-.2-7.195 4.092 5.938 4.092-5.938-.2 7.196 6.82-2.413-4.416 5.704 6.945 2.034-6.945 2.034 4.416 5.704-6.82-2.413.2 7.195-4.092-5.938-4.091 5.938.2-7.195-6.82 2.413 4.415-5.704z" fill="#f4ff00" stroke="#c2c216" stroke-miterlimit="5" style="isolation:auto;mix-blend-mode:normal"/>
<path transform="rotate(90)" fill="#8b8b8b" style="font-variant-east_asian:normal;isolation:auto;mix-blend-mode:normal" d="M.5-58.539h38.723V-.5H.5zM47.017-82.941H85.74V-.5H47.017z"/>
</g>
<g fill="none" color="#000">
<path d="M58.539.5v38.723M82.94 47.017V85.74" stroke="#3d3d3d" stroke-linejoin="round" stroke-miterlimit="100000" stroke-width="5" style="font-variant-east_asian:normal;isolation:auto;mix-blend-mode:normal"/>
<path d="M15.6 13.511h33.619" marker-end="url(#a)" stroke="#fff" stroke-width="2" style="isolation:auto;mix-blend-mode:normal"/>
</g>
<g fill="red" stroke-width="1.5">
<path d="M134.979 26.204c.252 0 .576 0 .576-.324 0-.342-.306-.342-.576-.342h-10.602c-.252 0-.576 0-.576.324 0 .342.306.342.576.342zm0 3.348c.252 0 .576 0 .576-.324 0-.342-.306-.342-.576-.342h-10.602c-.252 0-.576 0-.576.324 0 .342.306.342.576.342zM150.843 26.294c0-1.728 0-6.066-4.248-6.066-4.266 0-4.266 4.32-4.266 6.066 0 1.728 0 5.958 4.248 5.958s4.266-4.176 4.266-5.958zm-4.248 5.364c-.576 0-1.008-.234-1.368-.612-.45-.45-.738-.738-.738-4.968 0-1.26 0-2.412.144-3.348.252-1.782 1.548-1.908 1.944-1.908.576 0 1.692.27 1.944 1.782.162.918.162 2.376.162 3.474 0 4.248-.27 4.5-.81 5.04-.36.36-.846.54-1.278.54z"/>
<path d="M172.659 72.884c.252 0 .576 0 .576-.324 0-.342-.306-.342-.576-.342h-10.602c-.252 0-.576 0-.576.324 0 .342.306.342.576.342zm0 3.348c.252 0 .576 0 .576-.324 0-.342-.306-.342-.576-.342h-10.602c-.252 0-.576 0-.576.324 0 .342.306.342.576.342zM187.137 75.692h-.396c-.054.306-.198 1.296-.378 1.584-.126.162-1.152.162-1.692.162h-3.33c.486-.414 1.584-1.566 2.052-1.998 2.736-2.52 3.744-3.456 3.744-5.238 0-2.07-1.638-3.456-3.726-3.456s-3.312 1.782-3.312 3.33c0 .918.792.918.846.918.378 0 .846-.27.846-.846 0-.504-.342-.846-.846-.846-.162 0-.198 0-.252.018.342-1.224 1.314-2.052 2.484-2.052 1.53 0 2.466 1.278 2.466 2.934 0 1.53-.882 2.862-1.908 4.014l-3.636 4.068v.432h6.57z" color="#000" style="isolation:auto;mix-blend-mode:normal"/>
</g>
<path d="M40.002 60.028h33.619" color="#000" fill="none" marker-end="url(#b)" stroke="#fff" stroke-width="2" style="isolation:auto;mix-blend-mode:normal"/>
<path d="M119.334 60.028h67.237" color="#000" fill="none" marker-end="url(#c)" stroke="red" stroke-width="2" style="isolation:auto;mix-blend-mode:normal"/>
<g fill="red" stroke-width="1.5">
<path d="M108.234 27.061a.726.726 0 0 0-.728-.716.715.715 0 0 0-.716.716c0 .452.364.728.716.728a.72.72 0 0 0 .728-.728zm-1.908 2.347v.452c.79 0 .904.076.904.69v3.264c0 .54-.126.54-.942.54v.452c.025 0 .904-.05 1.406-.05.44 0 .891.012 1.33.05v-.452c-.727 0-.853 0-.853-.527V29.27zM116.096 31.003c0-1.092-.54-1.732-1.883-1.732-1.03 0-1.695.565-2.046 1.217h-.013v-1.217l-1.845.138v.452c.841 0 .942.088.942.703v3.25c0 .54-.126.54-.942.54v.453c.025 0 .904-.05 1.431-.05.465 0 1.33.037 1.444.05v-.452c-.816 0-.942 0-.942-.54v-2.26c0-1.318 1.042-1.933 1.87-1.933.88 0 .992.69.992 1.33v2.863c0 .54-.125.54-.941.54v.452c.025 0 .904-.05 1.43-.05.465 0 1.331.037 1.444.05v-.452c-.816 0-.941 0-.941-.54zM141.17 78.93c0-1.57-1.343-2.925-3.075-2.925-1.733 0-3.076 1.356-3.076 2.925 0 1.557 1.38 2.8 3.076 2.8 1.694 0 3.075-1.243 3.075-2.8zm-3.075 2.398c-.465 0-1.143-.151-1.557-.766-.339-.515-.377-1.168-.377-1.745 0-.54.013-1.28.452-1.82.314-.364.841-.64 1.482-.64.74 0 1.267.351 1.544.74.351.49.389 1.117.389 1.72s-.038 1.268-.402 1.783c-.339.477-.916.728-1.531.728zM146.182 76.206v.452c.841 0 .941.088.941.703v2.146c0 1.105-.715 1.87-1.67 1.87-1.141 0-1.192-.539-1.192-1.18v-4.13l-1.933.14v.451c.942 0 .942.038.942 1.155v1.883c0 .866 0 2.033 2.096 2.033.276 0 1.193 0 1.795-1.054h.013v1.054l1.883-.125v-.452c-.841 0-.942-.088-.942-.703v-4.381zM152.065 76.645h1.958v-.452h-1.958v-2.31h-.427c-.012 1.13-.527 2.373-1.732 2.41v.352h1.167v3.39c0 1.405 1.055 1.694 1.758 1.694.84 0 1.418-.716 1.418-1.707v-.69h-.427v.677c0 .854-.401 1.318-.89 1.318-.867 0-.867-1.054-.867-1.28z"/>
</g>
<use width="100%" height="100%" xlink:href="#d"/>
<use transform="translate(-28.942 -46.798)" width="100%" height="100%" xlink:href="#d"/>
<use width="100%" height="100%" fill="red" xlink:href="#e"/>
<use transform="translate(-173.006 -46.8)" width="100%" height="100%" fill="#fff" xlink:href="#e"/>
<circle transform="rotate(-26.402)" cx="74.107" cy="51.875" r="5" color="#000" fill="#5e5bff"/>
<circle transform="rotate(-26.402)" cx="80.195" cy="106.831" r="5" color="#000" fill="#5e5bff"/>
</svg>
