<svg width="211.937" height="97.845" viewBox="0 0 56.075 25.888" xml:space="preserve" xmlns="http://www.w3.org/2000/svg">
<defs>
<marker id="a" overflow="visible" orient="auto">
<path d="m-4 0-2 2 7-2-7-2Z" fill="#fff" fill-rule="evenodd" stroke="#fff" stroke-width=".4pt"/>
</marker>
</defs>
<g transform="translate(-118.051 -133.633)">
<g transform="matrix(.26458 0 0 .26458 117.92 133.501)" color="#000">
<path fill="#696969" style="isolation:auto;mix-blend-mode:normal" d="M162.68 39.222h5.009v8.105h-5.009zM172.803 39.222h5.009v8.105h-5.009zM182.926 39.222h5.009v8.105h-5.009z"/>
<path fill="#ff4747" style="isolation:auto;mix-blend-mode:normal" d="M193.049 39.222h5.009v8.105h-5.009z"/>
<path d="M153.708 46.577h53.68l5.05 35.648h-63.78z" fill="#696969" style="isolation:auto;mix-blend-mode:normal"/>
<rect x="155.587" y="48.668" width="49.561" height="29.869" rx="0" ry="0" fill="#fff" style="isolation:auto;mix-blend-mode:normal"/>
<path d="m198.777 63.86-3.174 3.475m-5.847-8.738-1.504 4.434m-8.948-5.937.167 4.707m-10.46-2.452 1.837 4.297m26.316-1.14-2.84 3.722m-6.595-8.232-1.17 4.543m-9.378-5.295.502 4.68M167.11 60.25l2.171 4.132m26.16-3.08-2.506 3.941m-7.278-7.7-.836 4.626m-9.744-4.625.836 4.625m-10.62-.866 2.506 3.94m25.825-4.993-2.171 4.132m-7.9-7.139-.5 4.68m-10.047-3.928 1.17 4.543m-10.605-.032 2.84 3.721m25.314-6.879-1.838 4.297m-8.456-6.552-.167 4.707m-10.285-3.204 1.503 4.434m-10.524.83 3.174 3.474m34.454-6.09-4.61 5.521m-5.516-10.882-2.049 6.885m-9.35-8.123.513 7.2m-11.593-4.313L170.056 64m27.684-4.156-4.097 5.878m-6.41-10.415-1.537 7.033m-9.926-7.445 1.025 7.137m-11.85-3.425 3.585 6.192m27.261-6.192-3.585 6.192m-7.24-9.904-1.025 7.137m-10.438-6.725 1.537 7.033m-12.045-2.496 4.098 5.878m26.66-8.188L190.68 64m-8.007-9.353-.512 7.2m-10.887-5.962 2.05 6.885m-12.176-1.524 4.61 5.521m38.303-6.695-7.863 7.863m-3.188-14.891-3.932 10.28m-8.71-12.623v11.086m-12.642-8.743 3.932 10.28m-14.983-3.251 7.863 7.863" fill="none" stroke="#000" stroke-width=".322" style="isolation:auto;mix-blend-mode:normal"/>
<path d="M160.608 64.004a27.947 27.947 0 0 1 39.523 0" fill="none" style="isolation:auto;mix-blend-mode:normal"/>
<path d="m197.308 54.426-13.911 22.26 1.712.682z" fill="red" style="isolation:auto;mix-blend-mode:normal"/>
<path d="M180.596 73.667a10.425 10.413 0 0 0-7.524 3.048 10.425 10.413 0 0 0-1.54 1.982h17.822a10.425 10.413 0 0 0-1.54-1.982 10.425 10.413 0 0 0-7.218-3.048z" fill="#696969" style="isolation:auto;mix-blend-mode:normal"/>
</g>
<g style="stroke-width:1.30742" transform="translate(98.962 125.795) scale(.20237)" color="#000">
<path fill="#696969" style="isolation:auto;mix-blend-mode:normal" d="M162.68 39.222h5.009v8.105h-5.009zM172.803 39.222h5.009v8.105h-5.009zM182.926 39.222h5.009v8.105h-5.009z"/>
<path fill="#ff4747" style="isolation:auto;mix-blend-mode:normal" d="M193.049 39.222h5.009v8.105h-5.009z"/>
<path d="M153.708 46.577h53.68l5.05 35.648h-63.78z" fill="#696969" style="isolation:auto;mix-blend-mode:normal"/>
<rect x="155.587" y="48.668" width="49.561" height="29.869" rx="0" ry="0" fill="#fff" style="isolation:auto;mix-blend-mode:normal"/>
<path d="m198.777 63.86-3.174 3.475m-5.847-8.738-1.504 4.434m-8.948-5.937.167 4.707m-10.46-2.452 1.837 4.297m26.316-1.14-2.84 3.722m-6.595-8.232-1.17 4.543m-9.378-5.295.502 4.68M167.11 60.25l2.171 4.132m26.16-3.08-2.506 3.941m-7.278-7.7-.836 4.626m-9.744-4.625.836 4.625m-10.62-.866 2.506 3.94m25.825-4.993-2.171 4.132m-7.9-7.139-.5 4.68m-10.047-3.928 1.17 4.543m-10.605-.032 2.84 3.721m25.314-6.879-1.838 4.297m-8.456-6.552-.167 4.707m-10.285-3.204 1.503 4.434m-10.524.83 3.174 3.474m34.454-6.09-4.61 5.521m-5.516-10.882-2.049 6.885m-9.35-8.123.513 7.2m-11.593-4.313L170.056 64m27.684-4.156-4.097 5.878m-6.41-10.415-1.537 7.033m-9.926-7.445 1.025 7.137m-11.85-3.425 3.585 6.192m27.261-6.192-3.585 6.192m-7.24-9.904-1.025 7.137m-10.438-6.725 1.537 7.033m-12.045-2.496 4.098 5.878m26.66-8.188L190.68 64m-8.007-9.353-.512 7.2m-10.887-5.962 2.05 6.885m-12.176-1.524 4.61 5.521m38.303-6.695-7.863 7.863m-3.188-14.891-3.932 10.28m-8.71-12.623v11.086m-12.642-8.743 3.932 10.28m-14.983-3.251 7.863 7.863" fill="none" stroke="#000" stroke-width=".322" style="isolation:auto;mix-blend-mode:normal"/>
<path d="M160.608 64.004a27.947 27.947 0 0 1 39.523 0" fill="none" style="isolation:auto;mix-blend-mode:normal"/>
<path d="m197.308 54.426-13.911 22.26 1.712.682z" fill="red" style="isolation:auto;mix-blend-mode:normal"/>
<path d="M180.596 73.667a10.425 10.413 0 0 0-7.524 3.048 10.425 10.413 0 0 0-1.54 1.982h17.822a10.425 10.413 0 0 0-1.54-1.982 10.425 10.413 0 0 0-7.218-3.048z" fill="#696969" style="isolation:auto;mix-blend-mode:normal"/>
</g>
<path transform="rotate(90)" color="#000" fill="#8b8b8b" style="isolation:auto;mix-blend-mode:normal;stroke-width:.264583;shape-rendering:auto" d="M143.696-136.493h10.907v18.442h-10.907z"/>
<path d="M136.493 143.696v10.907" color="#000" fill="none" stroke="#3d3d3d" stroke-width="1.323" style="isolation:auto;mix-blend-mode:normal;shape-rendering:auto"/>
<path d="M122.504 149.15h11.185" color="#000" fill="none" marker-end="url(#a)" stroke="#fff" stroke-width=".529" style="isolation:auto;mix-blend-mode:normal;shape-rendering:auto"/>
<circle cx="157.196" cy="149.112" r="3.555" color="#000" fill="#f44" style="isolation:auto;mix-blend-mode:normal;stroke-width:.264583;shape-rendering:auto"/>
<path d="M157.196 153.321a6.2 6.2 0 0 0-6.2 6.2h12.4a6.2 6.2 0 0 0-6.2-6.2z" color="#000" fill="#f44" style="isolation:auto;mix-blend-mode:normal;stroke-width:.264583;shape-rendering:auto"/>
<circle cx="128.957" cy="137.773" r="2.023" color="#000" fill="#44f" style="isolation:auto;mix-blend-mode:normal;stroke-width:.264583;shape-rendering:auto"/>
<path d="M128.956 140.168a3.528 3.528 0 0 0-3.527 3.528h7.055a3.528 3.528 0 0 0-3.528-3.528z" color="#000" fill="#44f" style="isolation:auto;mix-blend-mode:normal;stroke-width:.264583;shape-rendering:auto"/>
<path d="M150.824 144.849c-.005-.015-.023-.053-.023-.067 0-.005.005-.01.085-.071l.462-.362c.638-.496.848-.662 1.177-.691.033-.005.08-.005.08-.086 0-.028-.014-.052-.052-.052-.052 0-.11.01-.162.01h-.18c-.148 0-.306-.01-.448-.01-.034 0-.09 0-.09.086 0 .047.032.052.061.052.052.005.114.024.114.09 0 .096-.143.21-.18.239l-1.868 1.452.396-1.571c.043-.162.052-.21.39-.21.09 0 .134 0 .134-.09 0-.048-.048-.048-.072-.048-.086 0-.186.01-.276.01h-.562c-.086 0-.19-.01-.276-.01-.038 0-.09 0-.09.09 0 .048.042.048.114.048.29 0 .29.038.29.09 0 .01 0 .039-.019.11l-.643 2.562c-.043.167-.052.215-.386.215-.09 0-.138 0-.138.085 0 .053.043.053.072.053.09 0 .185-.01.276-.01h.557c.09 0 .19.01.281.01.038 0 .09 0 .09-.09 0-.048-.042-.048-.114-.048-.29 0-.29-.038-.29-.086 0-.033.028-.152.047-.229l.186-.738.724-.567c.138.305.39.915.586 1.382a.197.197 0 0 1 .024.09c0 .143-.19.148-.234.148-.043 0-.09 0-.09.09 0 .048.052.048.066.048.167 0 .343-.01.51-.01h.229c.071 0 .152.01.223.01.029 0 .081 0 .081-.09 0-.048-.042-.048-.09-.048-.176-.005-.238-.043-.31-.215z" fill="red" style="stroke-width:.396875"/>
<path d="M122.578 135.45c-.005-.014-.024-.052-.024-.066 0-.005.005-.01.086-.071l.462-.362c.638-.496.848-.662 1.176-.691.034-.005.081-.005.081-.086 0-.028-.014-.052-.052-.052-.053 0-.11.01-.162.01h-.181c-.148 0-.305-.01-.448-.01-.033 0-.09 0-.09.086 0 .047.033.052.062.052.052.005.114.024.114.09 0 .096-.143.21-.181.239l-1.867 1.452.395-1.571c.043-.162.053-.21.39-.21.091 0 .134 0 .134-.09 0-.048-.047-.048-.071-.048-.086 0-.186.01-.276.01h-.562c-.086 0-.19-.01-.277-.01-.038 0-.09 0-.09.09 0 .048.043.048.114.048.29 0 .29.038.29.09 0 .01 0 .039-.018.11l-.643 2.562c-.043.167-.053.215-.386.215-.09 0-.138 0-.138.085 0 .053.043.053.071.053.09 0 .186-.01.277-.01h.557c.09 0 .19.01.28.01.039 0 .091 0 .091-.09 0-.048-.043-.048-.114-.048-.29 0-.29-.038-.29-.086 0-.033.028-.152.047-.229l.186-.738.724-.567c.138.305.39.915.586 1.382a.197.197 0 0 1 .023.09c0 .143-.19.148-.233.148-.043 0-.09 0-.09.09 0 .048.052.048.066.048.167 0 .343-.01.51-.01h.228c.072 0 .153.01.224.01.029 0 .081 0 .081-.09 0-.048-.043-.048-.09-.048-.177-.005-.238-.043-.31-.215zM125.347 133.903c.016-.04.03-.063.03-.095 0-.105-.096-.174-.185-.174-.127 0-.162.11-.175.155l-.403 1.369c-.013.038-.013.047-.013.05 0 .029.02.035.051.045.057.025.064.025.07.025.01 0 .029 0 .05-.054z" fill="#00f" style="stroke-width:.396875"/>
</g>
</svg>
