<svg width="208.178" height="139.382" viewBox="0 0 55.081 36.878" xml:space="preserve" xmlns="http://www.w3.org/2000/svg">
<defs>
<marker id="a" overflow="visible" orient="auto">
<path d="m-10 0-4 4L0 0l-14-4Z" fill="#6d6d6d" fill-rule="evenodd" stroke="#6d6d6d" stroke-width=".8pt"/>
</marker>
<marker id="b" overflow="visible" orient="auto">
<path d="m-4 0-2 2 7-2-7-2Z" fill="red" fill-rule="evenodd" stroke="red" stroke-width=".4pt"/>
</marker>
<marker id="c" overflow="visible" orient="auto">
<path d="m-4 0-2 2 7-2-7-2Z" fill="#00f" fill-rule="evenodd" stroke="#00f" stroke-width=".4pt"/>
</marker>
</defs>
<g transform="translate(-47.054 -168.266)">
<g style="fill:#00f">
<path d="m7.966 7.474-2.54 8.887 2.04-2.04v35.352h35.351l-2.039 2.04 8.887-2.54-8.887-2.539 2.04 2.04H34.65v-5.92h6.422v-.401h-6.422v-6.22h6.422v-.401h-6.422v-6.223h6.422v-.398h-6.422v-6.223h6.422v-.4h-6.422v-6.422h-.4v6.422h-6.22v-6.422h-.401v6.422h-6.22v-6.422h-.401v6.422h-6.223v-6.422h-.398v6.422H8.466v-8.166l2.039 2.039zm.5 15.414h5.922v6.223H8.466Zm6.32 0h6.223v6.223h-6.223zm6.623 0h6.22v6.223h-6.22zm6.621 0h6.221v6.223h-6.22zM8.466 29.509h5.922v6.223H8.466Zm6.32 0h6.223v6.223h-6.223zm6.623 0h6.22v6.223h-6.22zm6.621 0h6.22v6.223h-6.22zM8.466 36.132h5.922v6.22H8.466Zm6.32 0h6.223v6.22h-6.223zm6.623 0h6.22v6.22h-6.22zm6.621 0h6.22v6.22h-6.22zM8.466 42.753h5.922v5.92H8.466Zm6.32 0h6.223v5.92h-6.223zm6.623 0h6.22v5.92h-6.22zm6.621 0h6.22v5.92h-6.22z" color="#000" style="font-variant-ligatures:normal;font-variant-position:normal;font-variant-caps:normal;font-variant-numeric:normal;font-variant-alternates:normal;font-feature-settings:normal;text-indent:0;text-decoration-line:none;text-decoration-style:solid;text-decoration-color:#000;text-transform:none;text-orientation:mixed;white-space:normal;shape-padding:0;isolation:auto;mix-blend-mode:normal" transform="matrix(.26458 0 0 .26458 88.994 166.406)"/>
</g>
<g style="fill:#8383ff">
<path d="m7.966 7.474-2.54 8.887 2.04-2.04v35.352h35.351l-2.039 2.04 8.887-2.54-8.887-2.539 2.04 2.04H34.65v-5.92h6.422v-.401h-6.422v-6.22h6.422v-.401h-6.422v-6.223h6.422v-.398h-6.422v-6.223h6.422v-.4h-6.422v-6.422h-.4v6.422h-6.22v-6.422h-.401v6.422h-6.22v-6.422h-.401v6.422h-6.223v-6.422h-.398v6.422H8.466v-8.166l2.039 2.039zm.5 15.414h5.922v6.223H8.466Zm6.32 0h6.223v6.223h-6.223zm6.623 0h6.22v6.223h-6.22zm6.621 0h6.221v6.223h-6.22zM8.466 29.509h5.922v6.223H8.466Zm6.32 0h6.223v6.223h-6.223zm6.623 0h6.22v6.223h-6.22zm6.621 0h6.22v6.223h-6.22zM8.466 36.132h5.922v6.22H8.466Zm6.32 0h6.223v6.22h-6.223zm6.623 0h6.22v6.22h-6.22zm6.621 0h6.22v6.22h-6.22zM8.466 42.753h5.922v5.92H8.466Zm6.32 0h6.223v5.92h-6.223zm6.623 0h6.22v5.92h-6.22zm6.621 0h6.22v5.92h-6.22z" color="#000" style="font-variant-ligatures:normal;font-variant-position:normal;font-variant-caps:normal;font-variant-numeric:normal;font-variant-alternates:normal;font-feature-settings:normal;text-indent:0;text-decoration-line:none;text-decoration-style:solid;text-decoration-color:#000;text-transform:none;text-orientation:mixed;white-space:normal;shape-padding:0;isolation:auto;mix-blend-mode:normal" transform="matrix(.26458 0 0 .26458 78.914 172.264)"/>
</g>
<g style="fill:#c8c8ff">
<path d="m7.966 7.474-2.54 8.887 2.04-2.04v35.352h35.351l-2.039 2.04 8.887-2.54-8.887-2.539 2.04 2.04H34.65v-5.92h6.422v-.401h-6.422v-6.22h6.422v-.401h-6.422v-6.223h6.422v-.398h-6.422v-6.223h6.422v-.4h-6.422v-6.422h-.4v6.422h-6.22v-6.422h-.401v6.422h-6.22v-6.422h-.401v6.422h-6.223v-6.422h-.398v6.422H8.466v-8.166l2.039 2.039zm.5 15.414h5.922v6.223H8.466Zm6.32 0h6.223v6.223h-6.223zm6.623 0h6.22v6.223h-6.22zm6.621 0h6.221v6.223h-6.22zM8.466 29.509h5.922v6.223H8.466Zm6.32 0h6.223v6.223h-6.223zm6.623 0h6.22v6.223h-6.22zm6.621 0h6.22v6.223h-6.22zM8.466 36.132h5.922v6.22H8.466Zm6.32 0h6.223v6.22h-6.223zm6.623 0h6.22v6.22h-6.22zm6.621 0h6.22v6.22h-6.22zM8.466 42.753h5.922v5.92H8.466Zm6.32 0h6.223v5.92h-6.223zm6.623 0h6.22v5.92h-6.22zm6.621 0h6.22v5.92h-6.22z" color="#000" style="font-variant-ligatures:normal;font-variant-position:normal;font-variant-caps:normal;font-variant-numeric:normal;font-variant-alternates:normal;font-feature-settings:normal;text-indent:0;text-decoration-line:none;text-decoration-style:solid;text-decoration-color:#000;text-transform:none;text-orientation:mixed;white-space:normal;shape-padding:0;isolation:auto;mix-blend-mode:normal" transform="matrix(.26458 0 0 .26458 68.833 178.017)"/>
</g>
<g style="fill:red">
<path d="m7.966 7.474-2.54 8.887 2.04-2.04v35.352h35.351l-2.039 2.04 8.887-2.54-8.887-2.539 2.04 2.04H34.65v-5.92h6.422v-.401h-6.422v-6.22h6.422v-.401h-6.422v-6.223h6.422v-.398h-6.422v-6.223h6.422v-.4h-6.422v-6.422h-.4v6.422h-6.22v-6.422h-.401v6.422h-6.22v-6.422h-.401v6.422h-6.223v-6.422h-.398v6.422H8.466v-8.166l2.039 2.039zm.5 15.414h5.922v6.223H8.466Zm6.32 0h6.223v6.223h-6.223zm6.623 0h6.22v6.223h-6.22zm6.621 0h6.221v6.223h-6.22zM8.466 29.509h5.922v6.223H8.466Zm6.32 0h6.223v6.223h-6.223zm6.623 0h6.22v6.223h-6.22zm6.621 0h6.22v6.223h-6.22zM8.466 36.132h5.922v6.22H8.466Zm6.32 0h6.223v6.22h-6.223zm6.623 0h6.22v6.22h-6.22zm6.621 0h6.22v6.22h-6.22zM8.466 42.753h5.922v5.92H8.466Zm6.32 0h6.223v5.92h-6.223zm6.623 0h6.22v5.92h-6.22zm6.621 0h6.22v5.92h-6.22z" color="#000" style="font-variant-ligatures:normal;font-variant-position:normal;font-variant-caps:normal;font-variant-numeric:normal;font-variant-alternates:normal;font-feature-settings:normal;text-indent:0;text-decoration-line:none;text-decoration-style:solid;text-decoration-color:#000;text-transform:none;text-orientation:mixed;white-space:normal;shape-padding:0;isolation:auto;mix-blend-mode:normal" transform="matrix(.26458 0 0 .26458 45.618 191.462)"/>
</g>
<g style="fill:#ff0101">
<path d="M184.964 85.446c-.648.18-.972.792-.972 1.242 0 .396.306.828.9.828.63 0 1.296-.522 1.296-1.404 0-.954-.954-1.584-2.052-1.584-1.026 0-1.692.774-1.926 1.098-.45-.756-1.458-1.098-2.484-1.098-2.268 0-3.492 2.214-3.492 2.808 0 .252.27.252.432.252.216 0 .342 0 .414-.234.522-1.638 1.818-2.178 2.556-2.178.684 0 1.008.324 1.008.9 0 .342-.252 1.332-.414 1.98l-.612 2.466c-.27 1.098-.918 1.638-1.53 1.638-.09 0-.504 0-.864-.27.648-.18.972-.792.972-1.242 0-.396-.306-.828-.9-.828-.63 0-1.296.522-1.296 1.404 0 .954.954 1.584 2.052 1.584 1.026 0 1.692-.774 1.926-1.098.45.756 1.458 1.098 2.484 1.098 2.268 0 3.492-2.214 3.492-2.808 0-.252-.27-.252-.432-.252-.216 0-.342 0-.414.234-.522 1.638-1.818 2.178-2.556 2.178-.684 0-1.008-.324-1.008-.9 0-.378.234-1.332.396-1.998.126-.468.54-2.16.63-2.448.27-1.08.9-1.638 1.53-1.638.09 0 .504 0 .864.27z" color="#000" style="isolation:auto;mix-blend-mode:normal" transform="matrix(.26458 0 0 .26458 34.53 180.043)"/>
</g>
<g fill="none" color="#000">
<path d="M3.039 137.843 167.47 42.228" marker-end="url(#a)" stroke="#6d6d6d" style="isolation:auto;mix-blend-mode:normal" transform="matrix(.26458 0 0 .26458 46.79 168.134)"/>
<path d="M3.039 137.843 152.991 112.3" marker-end="url(#b)" stroke="red" stroke-linecap="round" stroke-width="3" style="isolation:auto;mix-blend-mode:normal" transform="matrix(.26458 0 0 .26458 46.79 168.134)"/>
<path d="m167.47 42.228-7.84 62.658" marker-end="url(#c)" stroke="#00f" stroke-linecap="round" stroke-width="3" style="isolation:auto;mix-blend-mode:normal" transform="matrix(.26458 0 0 .26458 46.79 168.134)"/>
</g>
<circle cx="88.802" cy="197.465" r="1.575" color="#000" stroke="#fff" style="isolation:auto;mix-blend-mode:normal;stroke-width:.264583"/>
<g stroke-width="1.5">
<path d="M50.639 191.916c-.005-.014-.024-.052-.024-.066 0-.005.005-.01.086-.072l.462-.362c.638-.495.848-.662 1.176-.69.033-.005.081-.005.081-.086 0-.029-.014-.052-.052-.052-.053 0-.11.01-.162.01h-.181c-.148 0-.305-.01-.448-.01-.033 0-.09 0-.09.085 0 .048.033.053.062.053.052.004.114.024.114.09 0 .095-.143.21-.181.238l-1.867 1.453.395-1.572c.043-.162.053-.21.39-.21.091 0 .134 0 .134-.09 0-.047-.047-.047-.071-.047-.086 0-.186.01-.277.01h-.561c-.086 0-.191-.01-.277-.01-.038 0-.09 0-.09.09 0 .048.043.048.114.048.29 0 .29.038.29.09 0 .01 0 .038-.018.11L49 193.488c-.043.167-.053.214-.386.214-.09 0-.138 0-.138.086 0 .052.043.052.071.052.09 0 .186-.01.276-.01h.558c.09 0 .19.01.28.01.039 0 .091 0 .091-.09 0-.048-.043-.048-.114-.048-.29 0-.29-.038-.29-.085 0-.034.028-.153.047-.23l.186-.737.724-.567c.138.305.39.914.585 1.381a.197.197 0 0 1 .024.09c0 .144-.19.148-.233.148-.043 0-.09 0-.09.09 0 .048.052.048.066.048.167 0 .343-.01.51-.01h.228c.072 0 .153.01.224.01.029 0 .081 0 .081-.09 0-.048-.043-.048-.09-.048-.177-.004-.239-.043-.31-.214z" fill="red"/>
<path d="M86.563 170.084c-.004-.015-.023-.053-.023-.067 0-.005.004-.01.085-.071l.462-.362c.639-.496.848-.662 1.177-.69.033-.006.08-.006.08-.087 0-.028-.014-.052-.052-.052-.052 0-.11.01-.162.01h-.18c-.148 0-.305-.01-.448-.01-.034 0-.09 0-.09.086 0 .047.033.052.061.052.053.005.114.024.114.09 0 .096-.142.21-.18.239l-1.867 1.452.395-1.571c.043-.162.052-.21.39-.21.09 0 .134 0 .134-.09 0-.048-.048-.048-.072-.048-.085 0-.185.01-.276.01h-.562c-.086 0-.19-.01-.276-.01-.038 0-.09 0-.09.09 0 .048.042.048.114.048.29 0 .29.038.29.09 0 .01 0 .039-.019.11l-.643 2.562c-.043.167-.052.215-.386.215-.09 0-.138 0-.138.085 0 .053.043.053.072.053.09 0 .185-.01.276-.01h.557c.09 0 .19.01.281.01.038 0 .09 0 .09-.09 0-.048-.042-.048-.114-.048-.29 0-.29-.038-.29-.086 0-.033.028-.152.047-.229l.186-.738.724-.567c.138.305.39.915.586 1.382a.197.197 0 0 1 .024.09c0 .143-.19.148-.234.148-.043 0-.09 0-.09.09 0 .048.052.048.067.048.166 0 .342-.01.51-.01h.228c.071 0 .152.01.224.01.028 0 .08 0 .08-.09 0-.048-.042-.048-.09-.048-.176-.005-.238-.043-.31-.215zM89.333 168.536c.016-.041.028-.063.028-.095 0-.105-.095-.175-.184-.175-.127 0-.162.111-.174.156l-.404 1.368c-.012.038-.012.048-.012.051 0 .029.019.035.05.045.058.025.064.025.07.025.01 0 .029 0 .051-.054z" fill="#00f"/>
<path d="M60.82 192.399h.437c.09 0 .138 0 .138-.086 0-.052-.028-.052-.123-.052h-.42l.177-.696c.019-.066.019-.076.019-.11 0-.076-.062-.118-.124-.118-.038 0-.148.014-.186.166l-.185.758h-.448c-.095 0-.138 0-.138.09 0 .048.033.048.124.048h.423l-.314 1.257c-.038.167-.052.214-.052.276 0 .224.157.429.424.429.48 0 .738-.696.738-.729 0-.028-.02-.043-.048-.043-.01 0-.028 0-.038.02-.005.004-.01.009-.043.085-.1.238-.319.572-.595.572-.143 0-.153-.12-.153-.224 0-.005 0-.096.015-.153zM64.122 192.59c0-.434-.319-.434-.323-.434-.191 0-.362.2-.362.362 0 .133.1.19.142.214.2.12.239.205.239.3 0 .105-.277 1.148-.834 1.148-.343 0-.343-.286-.343-.372 0-.276.134-.624.286-1.005a.501.501 0 0 0 .052-.214c0-.276-.276-.428-.538-.428-.505 0-.743.647-.743.742 0 .067.072.067.115.067.057 0 .09 0 .11-.062.151-.514.404-.576.49-.576.033 0 .08 0 .08.1 0 .11-.057.248-.07.286-.22.552-.291.767-.291.995 0 .505.41.638.824.638.819 0 1.166-1.352 1.166-1.762z"/>
</g>
<path d="M97.156 189.18c.015-.041.028-.063.028-.095 0-.105-.095-.175-.184-.175-.127 0-.162.111-.175.156l-.403 1.368c-.013.038-.013.048-.013.051 0 .029.02.035.051.044.057.026.064.026.07.026.01 0 .029 0 .051-.054z" color="#000" fill="#00f" style="isolation:auto;mix-blend-mode:normal"/>
<g style="fill:#0001ec">
<path d="M184.964 85.446c-.648.18-.972.792-.972 1.242 0 .396.306.828.9.828.63 0 1.296-.522 1.296-1.404 0-.954-.954-1.584-2.052-1.584-1.026 0-1.692.774-1.926 1.098-.45-.756-1.458-1.098-2.484-1.098-2.268 0-3.492 2.214-3.492 2.808 0 .252.27.252.432.252.216 0 .342 0 .414-.234.522-1.638 1.818-2.178 2.556-2.178.684 0 1.008.324 1.008.9 0 .342-.252 1.332-.414 1.98l-.612 2.466c-.27 1.098-.918 1.638-1.53 1.638-.09 0-.504 0-.864-.27.648-.18.972-.792.972-1.242 0-.396-.306-.828-.9-.828-.63 0-1.296.522-1.296 1.404 0 .954.954 1.584 2.052 1.584 1.026 0 1.692-.774 1.926-1.098.45.756 1.458 1.098 2.484 1.098 2.268 0 3.492-2.214 3.492-2.808 0-.252-.27-.252-.432-.252-.216 0-.342 0-.414.234-.522 1.638-1.818 2.178-2.556 2.178-.684 0-1.008-.324-1.008-.9 0-.378.234-1.332.396-1.998.126-.468.54-2.16.63-2.448.27-1.08.9-1.638 1.53-1.638.09 0 .504 0 .864.27z" color="#000" style="isolation:auto;mix-blend-mode:normal" transform="matrix(.26458 0 0 .26458 46.79 168.134)"/>
</g>
</g>
</svg>
