<svg width="141.723" height="86.208" viewBox="0 0 37.497 22.809" xml:space="preserve" xmlns:xlink="http://www.w3.org/1999/xlink" xmlns="http://www.w3.org/2000/svg">
<defs>
<path id="f" d="M2.427-.012c0-.789-.299-1.255-.765-1.255a.615.615 0 0 0-.634.633c0 .323.24.634.634.634a.628.628 0 0 0 .418-.155c.036-.024.048-.036.06-.036.012 0 .024.012.024.179 0 .885-.419 1.602-.813 1.997-.132.131-.132.155-.132.19 0 .085.06.132.12.132.131 0 1.088-.92 1.088-2.319z"/>
<path id="c" d="M4.388-4.782h1.028c.239 0 .358 0 .358-.24 0-.13-.12-.13-.322-.13h-.993l.251-1.364c.048-.25.216-1.1.287-1.243.108-.227.311-.406.562-.406.048 0 .359 0 .586.215a.662.662 0 0 0-.646.645c0 .275.216.419.443.419.31 0 .657-.263.657-.717 0-.55-.55-.825-1.04-.825-.406 0-1.16.215-1.518 1.398-.072.251-.108.371-.395 1.877h-.825c-.227 0-.358 0-.358.227 0 .144.107.144.335.144h.789L2.69-.06C2.475 1.1 2.27 2.188 1.65 2.188c-.048 0-.347 0-.574-.215.55-.036.657-.467.657-.646 0-.275-.215-.418-.442-.418-.31 0-.657.263-.657.717 0 .538.526.825 1.016.825.657 0 1.136-.706 1.35-1.16.383-.753.658-2.2.67-2.283z"/>
<path id="e" d="M2.463-4.782h1.124c.239 0 .358 0 .358-.24 0-.13-.12-.13-.335-.13H2.558c.43-1.698.49-1.937.49-2.01 0-.202-.143-.322-.346-.322-.036 0-.37.012-.478.43l-.467 1.901H.634c-.24 0-.359 0-.359.227 0 .144.096.144.335.144h1.052C.8-1.387.753-1.184.753-.968c0 .645.454 1.1 1.1 1.1 1.22 0 1.9-1.746 1.9-1.842 0-.12-.095-.12-.143-.12-.107 0-.12.037-.179.168-.514 1.244-1.148 1.53-1.554 1.53-.251 0-.37-.155-.37-.55 0-.286.023-.37.071-.573z"/>
<path id="g" d="M3.993-3.61c.072-.311.347-1.411 1.184-1.411.06 0 .346 0 .597.155-.334.06-.574.359-.574.646 0 .191.132.418.455.418a.667.667 0 0 0 .645-.693c0-.622-.705-.79-1.111-.79-.694 0-1.112.634-1.256.91-.299-.79-.944-.91-1.29-.91-1.244 0-1.926 1.543-1.926 1.842 0 .12.12.12.144.12.095 0 .131-.024.155-.132.407-1.267 1.196-1.566 1.602-1.566.227 0 .646.107.646.8 0 .371-.203 1.172-.646 2.846-.191.741-.61 1.243-1.136 1.243-.071 0-.346 0-.597-.155.299-.06.562-.31.562-.646 0-.322-.263-.418-.443-.418-.358 0-.657.31-.657.693 0 .55.597.79 1.123.79.79 0 1.22-.837 1.256-.91a1.32 1.32 0 0 0 1.29.91C5.249.132 5.93-1.411 5.93-1.71c0-.12-.108-.12-.144-.12-.107 0-.131.049-.155.132C5.236-.418 4.423-.132 4.04-.132c-.466 0-.658-.382-.658-.789 0-.263.072-.526.204-1.052z"/>
<path id="a" d="M5.81-4.555c.048-.167.048-.191.048-.275 0-.215-.167-.323-.347-.323a.52.52 0 0 0-.418.251c-.024.06-.12.43-.167.646-.084.31-.168.634-.24.956l-.538 2.152c-.047.18-.561 1.016-1.35 1.016-.61 0-.742-.526-.742-.968 0-.55.204-1.291.61-2.343.191-.49.24-.622.24-.86 0-.539-.383-.981-.981-.981-1.136 0-1.578 1.733-1.578 1.84 0 .12.12.12.143.12.12 0 .132-.023.191-.215.323-1.124.801-1.482 1.208-1.482.096 0 .299 0 .299.382 0 .3-.12.61-.203.837-.479 1.268-.694 1.949-.694 2.51 0 1.065.753 1.424 1.459 1.424.466 0 .872-.204 1.207-.538C3.802.215 3.658.8 3.18 1.434c-.31.407-.765.754-1.315.754-.167 0-.705-.036-.909-.502.192 0 .347 0 .514-.144a.647.647 0 0 0 .24-.49c0-.37-.323-.418-.443-.418-.275 0-.67.19-.67.777 0 .597.527 1.04 1.268 1.04 1.231 0 2.463-1.088 2.798-2.439z"/>
<path id="b" d="M8.058-3.873c.167-.072.239-.156.239-.263 0-.12-.048-.192-.24-.275L1.47-7.52c-.167-.083-.215-.083-.239-.083a.232.232 0 0 0-.239.239c0 .143.096.203.227.263l6.277 2.953-6.253 2.952c-.239.108-.25.204-.25.275 0 .132.107.24.238.24.036 0 .06 0 .216-.084zm-.18 5.51c.204 0 .419 0 .419-.238 0-.24-.251-.24-.43-.24H1.423c-.18 0-.43 0-.43.24 0 .239.214.239.418.239z"/>
<path id="d" d="M3.957 2.87c0-.037 0-.06-.203-.264C2.26 1.1 1.877-1.16 1.877-2.989c0-2.08.454-4.16 1.925-5.655.155-.143.155-.167.155-.203 0-.084-.048-.12-.12-.12-.119 0-1.195.814-1.9 2.332-.61 1.315-.753 2.642-.753 3.646 0 .933.131 2.38.789 3.73.717 1.47 1.745 2.248 1.865 2.248.071 0 .12-.036.12-.12z"/>
<path id="h" d="M3.455-2.989c0-.932-.131-2.379-.789-3.73C1.949-8.189.921-8.966.801-8.966c-.072 0-.12.047-.12.12 0 .035 0 .059.228.274C2.08-7.388 2.762-5.487 2.762-2.989c0 2.045-.443 4.149-1.925 5.655-.156.143-.156.167-.156.203 0 .072.048.12.12.12.12 0 1.196-.813 1.9-2.331.61-1.316.754-2.643.754-3.647z"/>
</defs>
<path color="#000" fill="#dcdcdc" style="isolation:auto;mix-blend-mode:normal;stroke-width:.264583;shape-rendering:auto" d="M187.116 274.269h37.497v12.775h-37.497z" transform="translate(-187.116 -264.235)"/>
<path d="M187.116 274.269h37.497" color="#000" fill="none" stroke="#555" stroke-linejoin="round" stroke-miterlimit="100" stroke-width=".794" style="isolation:auto;mix-blend-mode:normal" transform="translate(-187.116 -264.235)"/>
<g transform="matrix(.42333 0 0 .42333 -70.744 -33.568)" style="stroke-width:.833333">
<use x="197.074" y="88.26" xlink:href="#a" style="stroke-width:.833333"/>
<use x="206.685" y="88.26" xlink:href="#b" style="stroke-width:.833333"/>
<use x="219.305" y="88.26" xlink:href="#c" style="stroke-width:.833333"/>
<use x="228.437" y="88.26" xlink:href="#d" style="stroke-width:.833333"/>
<use x="233.086" y="88.26" xlink:href="#e" style="stroke-width:.833333"/>
<use x="237.403" y="88.26" xlink:href="#f" style="stroke-width:.833333"/>
<use x="242.717" y="88.26" xlink:href="#g" style="stroke-width:.833333"/>
<use x="249.549" y="88.26" xlink:href="#h" style="stroke-width:.833333"/>
</g>
<g color="#000" fill="red">
<path d="M197.07 287.349h1.019v-7.774h1.114v7.774h1.017l-1.574 2.295z" style="isolation:auto;mix-blend-mode:normal;stroke-width:.264583;shape-rendering:auto" transform="translate(-193.73 -273.22)"/>
<path d="M200.22 279.158h-1.017v7.774h-1.114v-7.774h-1.018l1.575-2.296z" style="isolation:auto;mix-blend-mode:normal;stroke-width:.264583;shape-rendering:auto" transform="translate(-193.73 -273.22)"/>
</g>
</svg>
