<svg width="179.566" height="89.966" viewBox="0 0 47.51 23.804" xml:space="preserve" xmlns="http://www.w3.org/2000/svg">
<path d="m196.093 235.277-.236.01-.247.008-.236.036-.248.073-.236.181-.248.462-.236.951-.247 1.505-.237 1.522-.236.978-.247.462-.236.2-.247.072-.237.037-.247.009-.236.009h-3.621l-.248-.01-.236-.008-.247-.018-.237-.064-.247-.145-.236-.362-.247-.807-.236-1.395-.248-1.586-.236-1.132-.248-.58-.236-.245-.234-.095v13.006h47.51v-6.646l-.189-.076-.236-.245-.248-.58-.236-1.132-.247-1.586-.237-1.396-.247-.806-.236-.362-.248-.145-.236-.064-.247-.018-.236-.009-.248-.009h-3.621l-.236.01-.247.008-.236.036-.248.073-.236.2-.248.461-.236.979-.236 1.522-.248 1.504-.236.951-.247.463-.236.18-.247.074-.237.036-.247.009-.236.009h-3.621l-.248-.01-.236-.008-.247-.028-.237-.054-.247-.154-.236-.38-.248-.825-.236-1.405-.247-1.576-.236-1.115-.248-.562-.236-.244-.236-.09-.248-.037-.236-.018h-.247l-.236-.01h-3.385l-.236.01-.248.009-.236.018-.248.045-.236.118-.247.299-.236.689-.247 1.268-.237 1.604-.247 1.269-.236.688-.248.3-.236.117-.247.045-.237.019-.247.009-.236.009h-3.385l-.236-.01h-.248l-.236-.018-.247-.036-.236-.09-.236-.245-.248-.562-.236-1.114-.248-1.577-.236-1.404-.247-.825-.236-.38-.247-.154-.237-.055-.247-.027-.236-.009-.248-.009h-3.62z" color="#000" fill="#cacaca" style="isolation:auto;mix-blend-mode:normal;stroke-width:.264583" transform="translate(-185.48 -224.547)"/>
<path d="m196.086 234.88-.244.01-.27.01-.285.043-.344.1-.363.28-.31.58-.253 1.015-.25 1.522-.234 1.508-.22.913-.188.35-.114.096-.142.042-.187.029-.225.008-.229.009h-3.606l-.24-.01-.23-.008-.202-.015-.148-.04-.12-.07-.155-.238-.223-.728-.232-1.367-.248-1.594-.247-1.18-.291-.684-.346-.358-.369-.15-.092-.013v.833l.007.003.127.13.203.477.226 1.085.247 1.578.24 1.423.271.885.318.487.375.22.324.087.292.021.243.01.255.01h3.636l.244-.01.27-.01.285-.044.353-.103.358-.303.307-.573.252-1.044.238-1.537.245-1.487.22-.888.184-.343.11-.083.15-.045.188-.028.225-.01.228-.007h3.607l.24.008.221.009.21.023.15.034.112.07.16.257.225.751.232 1.377.248 1.585.247 1.166.293.664.346.359.36.138.304.044.265.02h.255l.236.01h3.4l.244-.01.254-.01.266-.02.323-.06.361-.18.348-.42.268-.782.255-1.304.236-1.604.24-1.233.204-.595.148-.178.11-.055.172-.031.208-.016.24-.01.228-.007h3.37l.236.009h.24l.207.016.19.028.114.043.125.13.203.46.225 1.064.246 1.568.241 1.432.27.898.312.504.383.238.323.074.285.032.25.009.255.01h3.636l.244-.01.27-.01.285-.043.344-.101.363-.278.31-.582.253-1.015.25-1.521.234-1.508.22-.913.188-.35.114-.097.142-.042.187-.028.225-.009.228-.008h3.607l.24.008.229.01.202.014.149.04.12.07.155.237.223.728.232 1.368.248 1.594.247 1.18.291.684.346.358.368.148.048.007v-.868l-.089-.092-.204-.476-.225-1.084-.247-1.579-.24-1.423-.272-.885-.318-.487-.374-.22-.324-.087-.292-.02-.243-.01-.256-.01h-3.636l-.243.01-.27.01-.285.043-.353.103-.358.303-.307.574-.253 1.044-.238 1.537-.245 1.486-.22.888-.183.343-.11.084-.15.045-.188.028-.225.008-.23.009h-3.605l-.24-.009-.222-.008-.21-.023-.15-.035-.112-.07-.16-.257-.225-.75-.231-1.378-.248-1.585-.247-1.165-.293-.664-.347-.359-.359-.138-.305-.045-.265-.02h-.255l-.236-.01h-3.4l-.243.01-.256.01-.264.02-.323.059-.363.18-.346.42-.269.783-.254 1.304-.236 1.604-.24 1.233-.204.594-.148.179-.111.055-.172.032-.207.016-.24.009-.229.009h-3.37l-.236-.01h-.24l-.207-.015-.19-.028-.113-.043-.126-.13-.202-.46-.225-1.064-.247-1.569-.24-1.43-.27-.9-.313-.503-.382-.238-.323-.075-.285-.03-.25-.01-.256-.01h-3.635z" color="#000" fill="#555" style="text-indent:0;text-decoration-line:none;text-decoration-style:solid;text-decoration-color:#000;text-transform:none;white-space:normal;isolation:auto;mix-blend-mode:normal;stroke-width:.264583" transform="translate(-185.48 -224.547)"/>
<g stroke-width="1.5">
<path d="M30.172 1.75c.019-.066.019-.075.019-.108 0-.086-.067-.128-.138-.128a.206.206 0 0 0-.166.1c-.01.023-.047.17-.066.255a8.858 8.858 0 0 0-.095.38l-.214.854c-.019.071-.223.403-.536.403-.242 0-.294-.208-.294-.384 0-.218.08-.512.242-.93.076-.194.095-.247.095-.341a.376.376 0 0 0-.39-.39c-.45 0-.626.688-.626.731 0 .048.048.048.057.048.048 0 .052-.01.076-.086.128-.446.318-.588.48-.588.037 0 .118 0 .118.152 0 .118-.047.242-.08.332-.19.503-.276.773-.276.996 0 .422.3.565.579.565a.67.67 0 0 0 .48-.214c-.062.247-.12.48-.31.731-.123.161-.303.299-.521.299-.066 0-.28-.014-.36-.2.075 0 .137 0 .203-.056a.257.257 0 0 0 .095-.195c0-.147-.128-.166-.175-.166-.11 0-.266.076-.266.308 0 .238.209.413.503.413.489 0 .977-.432 1.11-.968zM34.87 2.021c.066-.028.095-.061.095-.104 0-.048-.02-.076-.095-.11L32.255.575C32.19.541 32.17.541 32.16.541a.092.092 0 0 0-.094.095c0 .057.037.08.09.104l2.49 1.172-2.48 1.172c-.096.043-.1.08-.1.11 0 .051.042.094.094.094.015 0 .024 0 .086-.033zm-.072 2.188c.081 0 .167 0 .167-.095s-.1-.095-.171-.095h-2.558c-.07 0-.17 0-.17.095s.085.095.166.095zM38.407 1.66h.408c.095 0 .143 0 .143-.094 0-.052-.048-.052-.128-.052h-.394l.1-.541c.018-.1.085-.437.113-.494.043-.09.124-.161.223-.161.02 0 .143 0 .233.085a.263.263 0 0 0-.256.257c0 .109.085.166.175.166.124 0 .261-.105.261-.285 0-.218-.218-.327-.413-.327-.161 0-.46.085-.602.555-.029.1-.043.147-.157.745h-.327c-.09 0-.143 0-.143.09 0 .057.043.057.133.057h.313l-.355 1.874c-.086.46-.166.892-.413.892-.02 0-.138 0-.228-.086a.257.257 0 0 0 .261-.256c0-.109-.085-.166-.176-.166-.123 0-.26.105-.26.285 0 .213.208.327.403.327.26 0 .45-.28.536-.46.152-.299.26-.873.266-.906zM41.852 4.697c0-.014 0-.023-.08-.104-.593-.598-.745-1.495-.745-2.22 0-.826.18-1.652.764-2.245.061-.057.061-.066.061-.08 0-.034-.018-.048-.047-.048-.047 0-.474.323-.754.925a3.448 3.448 0 0 0-.3 1.447c0 .37.053.945.314 1.48.285.584.693.893.74.893.029 0 .047-.015.047-.048zM43.712 2.126c.028-.124.137-.56.47-.56.023 0 .137 0 .237.062a.276.276 0 0 0-.228.256c0 .076.052.166.18.166a.265.265 0 0 0 .256-.275c0-.247-.28-.313-.44-.313-.276 0-.442.251-.499.36a.525.525 0 0 0-.512-.36c-.494 0-.764.612-.764.73 0 .048.047.048.057.048.038 0 .052-.01.061-.053.162-.502.475-.621.636-.621.09 0 .256.043.256.318 0 .147-.08.465-.256 1.129-.076.294-.242.493-.45.493-.03 0-.138 0-.238-.061.119-.024.223-.124.223-.256 0-.129-.104-.166-.175-.166a.27.27 0 0 0-.261.275c0 .218.237.313.446.313.313 0 .484-.332.498-.36.057.175.228.36.512.36.489 0 .76-.612.76-.73 0-.048-.043-.048-.058-.048-.042 0-.052.019-.061.052-.157.508-.48.621-.631.621-.185 0-.261-.151-.261-.313 0-.104.028-.208.08-.417zM46.2 2.372c0-.37-.052-.944-.313-1.48-.285-.584-.693-.892-.74-.892-.029 0-.048.019-.048.047 0 .015 0 .024.09.11.465.47.736 1.224.736 2.215 0 .812-.176 1.647-.764 2.245-.062.057-.062.066-.062.08 0 .029.02.048.048.048.047 0 .474-.323.754-.926a3.448 3.448 0 0 0 .299-1.447z"/>
</g>
</svg>
