<svg width="166.611" height="106.416" viewBox="0 0 44.083 28.156" xml:space="preserve" xmlns="http://www.w3.org/2000/svg">
<defs>
<marker id="a" overflow="visible" orient="auto">
<path d="m-4 0-2 2 7-2-7-2Z" fill="red" fill-rule="evenodd" stroke="red" stroke-width=".4pt"/>
</marker>
</defs>
<g transform="translate(-185.787 -134.397)">
<path d="M229.87 145.167c-17.231 0-34.307 3.96-43.734 17.12h43.734z" color="#000" fill="#dcdcdc" style="isolation:auto;mix-blend-mode:normal;stroke-width:.264585"/>
<g fill="none">
<path d="M1.72 106.043c35.61-49.848 100.208-64.838 165.39-64.838" color="#000" stroke="#555" stroke-linejoin="round" stroke-miterlimit="100" stroke-width="3" style="isolation:auto;mix-blend-mode:normal" transform="matrix(.26458 0 0 .26458 185.655 134.265)"/>
<path d="m190.227 154.426 26.895-10.25M206.717 148.156l-1.159-3.053-3.04 1.163" stroke="#000" stroke-width=".26458"/>
<path d="M68.109 56.827 48.469 5.293" marker-end="url(#a)" stroke="red" stroke-width="2" style="marker-end:url(#a)" transform="matrix(.26458 0 0 .26458 185.655 134.265)"/>
</g>
<circle cx="203.674" cy="149.301" r="1.323" color="#000"/>
<g fill="red" stroke-width="1.5">
<path d="M204.112 134.829c0-.432-.318-.432-.323-.432-.19 0-.36.2-.36.36 0 .134.1.19.142.214.2.119.237.204.237.3 0 .104-.275 1.143-.83 1.143-.342 0-.342-.285-.342-.37 0-.276.133-.622.285-1.002a.5.5 0 0 0 .052-.213c0-.275-.275-.427-.536-.427-.503 0-.74.645-.74.74 0 .067.071.067.114.067.057 0 .09 0 .109-.062.152-.513.403-.574.489-.574.033 0 .08 0 .08.1 0 .108-.057.246-.07.284-.219.55-.29.764-.29.992 0 .503.408.635.82.635.817 0 1.163-1.347 1.163-1.755zM206.735 136.149c.066-.166.176-.2.279-.203v-.12c-.09.01-.143.014-.24.014-.1 0-.225-.003-.325-.013v.12c.116.003.173.066.173.145 0 .027 0 .034-.02.08l-.322.827-.36-.907a.197.197 0 0 1-.016-.063c0-.073.087-.083.18-.083v-.12a4.31 4.31 0 0 1-.651 0v.12c.076 0 .146 0 .189.027.047.033.076.143.076.146a.137.137 0 0 1-.013.04l-.312.79-.336-.857c-.02-.046-.02-.05-.02-.063 0-.083.12-.083.18-.083v-.12c-.007 0-.243.014-.375.014-.103 0-.21-.003-.313-.013v.12c.13 0 .203 0 .24.096l.461 1.172c.02.05.03.076.09.076s.07-.026.086-.07l.375-.95.37.94c.02.05.032.08.092.08s.07-.023.09-.076zM208.487 136.368c0-.176 0-.302-.153-.425a.735.735 0 0 0-.491-.166c-.316 0-.538.12-.538.322 0 .107.073.163.16.163.089 0 .155-.066.155-.156a.153.153 0 0 0-.116-.153c.12-.083.312-.083.332-.083.186 0 .389.123.389.402v.103a1.969 1.969 0 0 0-.645.106c-.299.11-.392.292-.392.442 0 .286.346.369.582.369a.54.54 0 0 0 .491-.28c.013.137.103.263.256.263.007 0 .329 0 .329-.316v-.182h-.113v.18c0 .032 0 .192-.123.192s-.123-.156-.123-.2zm-.262.422c0 .319-.28.409-.429.409-.17 0-.329-.113-.329-.276 0-.183.16-.438.758-.462zM209.574 134.953l-.498.037v.12c.223 0 .25.023.25.185v1.7c0 .144-.034.144-.25.144v.12c.007 0 .24-.014.372-.014.126 0 .25.003.375.013v-.12c-.216 0-.249 0-.249-.142zM210.644 134.953l-.498.037v.12c.223 0 .25.023.25.185v1.7c0 .144-.034.144-.25.144v.12c.007 0 .24-.014.372-.014.126 0 .25.003.375.013v-.12c-.216 0-.249 0-.249-.142z"/>
</g>
</g>
</svg>
