<svg width="141.723" height="111.156" viewBox="0 0 37.497 29.41" xml:space="preserve" xmlns="http://www.w3.org/2000/svg">
<defs>
<marker id="a" overflow="visible" orient="auto">
<path d="m-10 0-4 4L0 0l-14-4Z" fill="red" fill-rule="evenodd" stroke="red" stroke-width=".8pt"/>
</marker>
</defs>
<g transform="translate(-185.311 -179.099)">
<path color="#000" fill="none" stroke="#000" stroke-width=".132" style="isolation:auto;mix-blend-mode:normal" d="M200.103 199.53h3.555v3.555h-3.555z"/>
<g fill="red" stroke-width="1.5">
<path d="M207.265 195.012c0-.432-.318-.432-.322-.432-.19 0-.36.2-.36.36 0 .133.099.19.141.214.2.119.238.204.238.299 0 .104-.276 1.143-.83 1.143-.342 0-.342-.284-.342-.37 0-.275.133-.621.284-1a.5.5 0 0 0 .053-.214c0-.276-.276-.427-.537-.427-.502 0-.74.645-.74.74 0 .066.071.066.114.066.057 0 .09 0 .11-.061.151-.513.403-.575.488-.575.033 0 .08 0 .08.1 0 .11-.056.247-.07.285-.219.55-.29.764-.29.991 0 .503.408.636.82.636.817 0 1.163-1.347 1.163-1.755zM209.888 196.332c.066-.166.176-.2.279-.203v-.12c-.09.01-.143.014-.24.014-.099 0-.225-.003-.325-.014v.12c.117.003.173.066.173.146 0 .027 0 .033-.02.08l-.322.827-.359-.907a.197.197 0 0 1-.016-.063c0-.073.086-.083.179-.083v-.12a4.31 4.31 0 0 1-.651 0v.12c.076 0 .146 0 .19.027.046.033.076.142.076.146a.137.137 0 0 1-.014.04l-.312.79-.335-.857c-.02-.046-.02-.05-.02-.063 0-.083.12-.083.18-.083v-.12c-.007 0-.243.014-.376.014-.103 0-.21-.003-.312-.014v.12c.13 0 .202 0 .239.096l.461 1.173c.02.05.03.076.09.076s.07-.026.086-.07l.376-.95.368.94c.02.05.034.08.093.08.06 0 .07-.023.09-.076zM211.64 196.551c0-.176 0-.302-.152-.425a.735.735 0 0 0-.492-.166c-.316 0-.538.12-.538.322 0 .106.073.163.16.163.089 0 .155-.067.155-.156a.153.153 0 0 0-.116-.153c.12-.083.312-.083.332-.083.186 0 .389.123.389.402v.103a1.969 1.969 0 0 0-.644.106c-.3.11-.392.292-.392.442 0 .285.345.368.58.368a.54.54 0 0 0 .492-.279c.014.136.103.263.256.263.007 0 .329 0 .329-.316v-.183h-.113v.18c0 .033 0 .192-.123.192s-.123-.156-.123-.199zm-.262.422c0 .319-.279.408-.429.408-.169 0-.328-.113-.328-.275 0-.183.16-.439.757-.462zM212.727 195.136l-.498.037v.12c.223 0 .25.022.25.185v1.7c0 .143-.034.143-.25.143v.12c.007 0 .24-.013.372-.013.126 0 .25.003.376.013v-.12c-.216 0-.25 0-.25-.142zM213.797 195.136l-.498.037v.12c.223 0 .25.022.25.185v1.7c0 .143-.034.143-.25.143v.12c.007 0 .24-.013.372-.013.126 0 .25.003.376.013v-.12c-.216 0-.25 0-.25-.142zM216.412 195.543a.253.253 0 0 0-.252-.251.253.253 0 0 0-.251.251c0 .138.113.252.251.252a.253.253 0 0 0 .252-.252z"/>
</g>
<g color="#000">
<path fill="#dcdcdc" style="isolation:auto;mix-blend-mode:normal" d="M.5 91.656h141.723v20H.5zM.5 20.238h141.723v20H.5z" transform="matrix(.26458 0 0 .26458 185.179 178.967)"/>
<path d="M.5 20.238h141.723" fill="none" stroke="#555" stroke-linejoin="round" stroke-miterlimit="100" stroke-width="3" style="isolation:auto;mix-blend-mode:normal" transform="matrix(.26458 0 0 .26458 185.179 178.967)"/>
</g>
<path d="M191.322 181.38h1.324c.066 0 .156 0 .156-.094 0-.095-.09-.095-.156-.095h-1.324v-1.328c0-.067 0-.157-.095-.157s-.095.09-.095.157v1.328h-1.328c-.067 0-.157 0-.157.095s.09.095.157.095h1.328v1.328c0 .067 0 .157.095.157s.095-.09.095-.157z"/>
<path d="M185.311 203.217h37.498" color="#000" fill="none" stroke="#555" stroke-linejoin="round" stroke-miterlimit="100" stroke-width=".794" style="isolation:auto;mix-blend-mode:normal"/>
<circle transform="rotate(-26.402)" cx="92.052" cy="272.581" r="1.058" color="#000" fill="red" style="stroke-width:.264583"/>
<circle transform="rotate(-26.402)" cx="100.512" cy="255.54" r="1.058" color="#000" fill="red" style="stroke-width:.264583"/>
<path d="M203.658 203.193v-18.546" color="#000" fill="none" marker-end="url(#a)" stroke="red" style="isolation:auto;mix-blend-mode:normal;stroke-width:.264583"/>
<path d="M187.597 199.812h.446c.095 0 .143 0 .143-.095 0-.052-.048-.052-.133-.052h-.418c.171-.674.195-.769.195-.797 0-.08-.057-.128-.138-.128-.014 0-.147.004-.19.17l-.185.755h-.446c-.094 0-.142 0-.142.09 0 .057.038.057.133.057h.417c-.341 1.347-.36 1.428-.36 1.514 0 .256.18.436.436.436.484 0 .755-.693.755-.73 0-.048-.038-.048-.057-.048-.043 0-.048.014-.071.066-.204.494-.456.608-.617.608-.1 0-.147-.062-.147-.219 0-.113.01-.147.028-.227zM187.597 180.574h.446c.095 0 .143 0 .143-.094 0-.053-.048-.053-.133-.053h-.418c.171-.673.195-.768.195-.797 0-.08-.057-.128-.138-.128-.014 0-.147.005-.19.17l-.185.755h-.446c-.094 0-.142 0-.142.09 0 .057.038.057.133.057h.417c-.341 1.348-.36 1.429-.36 1.514 0 .256.18.436.436.436.484 0 .755-.692.755-.73 0-.048-.038-.048-.057-.048-.043 0-.048.015-.071.067-.204.493-.456.607-.617.607-.1 0-.147-.062-.147-.218 0-.114.01-.147.028-.228zM197.37 180.574h.446c.095 0 .143 0 .143-.094 0-.053-.048-.053-.133-.053h-.418c.171-.673.195-.768.195-.797 0-.08-.057-.128-.138-.128-.014 0-.147.005-.19.17l-.185.755h-.446c-.094 0-.142 0-.142.09 0 .057.038.057.133.057h.417c-.341 1.348-.36 1.429-.36 1.514 0 .256.18.436.436.436.484 0 .755-.692.755-.73 0-.048-.038-.048-.057-.048-.043 0-.048.015-.071.067-.204.493-.456.607-.617.607-.1 0-.147-.062-.147-.218 0-.114.01-.147.028-.228z"/>
<path d="M9.14 78.786h1.686c.359 0 .538 0 .538-.359 0-.197-.18-.197-.502-.197H9.284c.646-2.546.735-2.905.735-3.013 0-.304-.215-.484-.52-.484-.054 0-.556.018-.717.646l-.7 2.851H6.398c-.359 0-.538 0-.538.34 0 .216.143.216.502.216h1.578c-1.291 5.093-1.363 5.398-1.363 5.72 0 .969.682 1.65 1.65 1.65 1.83 0 2.851-2.618 2.851-2.761 0-.18-.143-.18-.215-.18-.161 0-.18.054-.269.251-.771 1.865-1.721 2.296-2.331 2.296-.377 0-.556-.233-.556-.825 0-.43.036-.556.108-.86z" transform="matrix(.26458 0 0 .26458 218.707 173.986)" style="fill:red"/>
<path d="M195.365 180.399c-.593.142-1.053.759-1.053 1.333 0 .455.303.797.75.797.555 0 .948-.745.948-1.4 0-.431-.19-.669-.35-.882-.172-.214-.451-.57-.451-.778 0-.105.094-.218.26-.218.143 0 .238.061.337.128.095.057.19.118.261.118.119 0 .19-.114.19-.19 0-.104-.076-.118-.247-.156-.246-.052-.313-.052-.389-.052-.37 0-.54.204-.54.488 0 .257.137.522.284.812zm.057.104c.119.218.261.475.261.816 0 .313-.18 1.106-.622 1.106-.26 0-.455-.2-.455-.56 0-.3.176-1.191.816-1.362z"/>
<path d="M38.5 5.413c-2.242.538-3.982 2.87-3.982 5.04 0 1.72 1.148 3.012 2.834 3.012 2.098 0 3.586-2.816 3.586-5.29 0-1.632-.717-2.529-1.327-3.336-.646-.807-1.704-2.152-1.704-2.94 0-.395.36-.826.987-.826.538 0 .896.233 1.273.484.359.216.717.449.986.449.449 0 .718-.43.718-.718 0-.394-.287-.448-.933-.591-.932-.198-1.184-.198-1.47-.198-1.4 0-2.045.772-2.045 1.848 0 .968.52 1.972 1.076 3.066zm.214.395c.449.824.987 1.793.987 3.084 0 1.184-.682 4.178-2.35 4.178-.986 0-1.721-.753-1.721-2.116 0-1.13.663-4.5 3.084-5.146z" transform="matrix(.26458 0 0 .26458 208.934 193.224)" style="fill:red"/>
</g>
</svg>
