<svg width="186.678" height="109.575" viewBox="0 0 49.392 28.992" xml:space="preserve" xmlns="http://www.w3.org/2000/svg">
<defs>
<marker id="a" overflow="visible" orient="auto">
<path d="m-4 0-2 2 7-2-7-2Z" fill="#fff" fill-rule="evenodd" stroke="#fff" stroke-width=".4pt"/>
</marker>
</defs>
<g transform="translate(-118.747 -172.081)">
<path transform="rotate(90)" color="#000" fill="#8b8b8b" style="isolation:auto;mix-blend-mode:normal;stroke-width:.264584;shape-rendering:auto" d="M180.123-141.026h13.156v22.278h-13.156z"/>
<path d="M141.026 180.123v13.156" color="#000" fill="none" stroke="#3d3d3d" stroke-width="1.323" style="isolation:auto;mix-blend-mode:normal;shape-rendering:auto"/>
<path d="M123.332 185.51h14.65" color="#000" fill="none" marker-end="url(#a)" stroke="#fff" stroke-width=".529" style="isolation:auto;mix-blend-mode:normal;shape-rendering:auto"/>
<circle cx="160.426" cy="190.663" r="3.555" color="#000" fill="#f44" style="isolation:auto;mix-blend-mode:normal;stroke-width:.264584;shape-rendering:auto"/>
<path d="M160.426 194.872a6.2 6.2 0 0 0-6.2 6.2h12.4a6.2 6.2 0 0 0-6.2-6.2z" color="#000" fill="#f44" style="isolation:auto;mix-blend-mode:normal;stroke-width:.264584;shape-rendering:auto"/>
<circle cx="136.664" cy="174.2" r="2.023" color="#000" fill="#44f" style="isolation:auto;mix-blend-mode:normal;stroke-width:.264584;shape-rendering:auto"/>
<path d="M136.664 176.595a3.528 3.528 0 0 0-3.528 3.528h7.056a3.528 3.528 0 0 0-3.528-3.528z" color="#000" fill="#44f" style="isolation:auto;mix-blend-mode:normal;stroke-width:.264584;shape-rendering:auto"/>
<path d="M145.234 172.351c.016-.041.029-.063.029-.095 0-.105-.096-.175-.184-.175-.127 0-.162.111-.175.156l-.403 1.368c-.013.038-.013.048-.013.05 0 .03.02.036.05.045.058.026.064.026.07.026.01 0 .03 0 .052-.054z" fill="#00f"/>
<g fill="#fff" stroke-width="1.5">
<path d="M125.756 187.58c0-.434-.32-.434-.324-.434-.19 0-.362.2-.362.362 0 .133.1.19.143.214.2.12.238.205.238.3 0 .105-.276 1.148-.833 1.148-.343 0-.343-.286-.343-.372 0-.276.133-.624.286-1.005a.501.501 0 0 0 .052-.214c0-.276-.276-.428-.538-.428-.505 0-.743.647-.743.743 0 .066.071.066.114.066.057 0 .09 0 .11-.062.152-.514.405-.576.49-.576.034 0 .081 0 .081.1 0 .11-.057.248-.071.286-.22.552-.29.767-.29.995 0 .505.409.638.823.638.82 0 1.167-1.352 1.167-1.762zM128.15 188.97c.029-.073.083-.213.27-.216v-.105c-.105.01-.111.01-.248.01-.101 0-.187 0-.289-.01v.105c.14.006.175.089.175.146 0 .038-.01.057-.016.08l-.302.79-.327-.867c-.016-.041-.016-.05-.016-.063 0-.083.102-.086.178-.086v-.105c-.124.01-.292.01-.324.01-.07 0-.2 0-.295-.01v.105c.194 0 .2.016.26.184l-.292.784-.314-.822c-.003-.013-.016-.048-.016-.06 0-.086.12-.086.178-.086v-.105c-.137.01-.28.01-.34.01-.057 0-.219 0-.31-.01v.105c.158 0 .19.013.225.102l.425 1.117c.02.048.029.076.08.076.053 0 .066-.035.082-.076l.336-.892.337.892c.016.041.029.076.083.076.05 0 .063-.031.076-.066zM129.73 189.071c0-.31-.3-.47-.59-.47-.263 0-.498.102-.498.312 0 .095.066.152.149.152.089 0 .15-.063.15-.15a.144.144 0 0 0-.118-.145c.117-.08.289-.08.31-.08.179 0 .356.124.356.385v.098c-.184.01-.396.02-.619.111-.28.12-.333.305-.333.41 0 .273.32.355.54.355.231 0 .374-.13.444-.257.016.12.099.241.238.241.032 0 .302-.012.302-.301v-.175h-.099v.175c0 .13-.047.18-.114.18-.117 0-.117-.145-.117-.18zm-.24.499c0 .308-.26.39-.388.39-.165 0-.305-.11-.305-.263 0-.21.197-.426.692-.441zM130.69 187.814l-.473.035v.105c.216 0 .242.022.242.178v1.638c0 .143-.039.143-.242.143v.105c.124-.01.302-.01.356-.01.063 0 .235 0 .359.01v-.105c-.204 0-.242 0-.242-.143zM131.627 187.814l-.473.035v.105c.216 0 .242.022.242.178v1.638c0 .143-.038.143-.242.143v.105c.124-.01.302-.01.356-.01.063 0 .235 0 .359.01v-.105c-.204 0-.242 0-.242-.143z"/>
</g>
<path d="M90.141 7.368c-.018-.054-.09-.198-.09-.252 0-.018.018-.036.324-.27l1.746-1.368c2.412-1.872 3.204-2.502 4.446-2.61.126-.018.306-.018.306-.324 0-.108-.054-.198-.198-.198-.198 0-.414.036-.612.036h-.684c-.558 0-1.152-.036-1.692-.036-.126 0-.342 0-.342.324 0 .18.126.198.234.198.198.018.432.09.432.342 0 .36-.54.792-.684.9L86.271 9.6l1.494-5.94c.162-.612.198-.792 1.476-.792.342 0 .504 0 .504-.342 0-.18-.18-.18-.27-.18-.324 0-.702.036-1.044.036h-2.124c-.324 0-.72-.036-1.044-.036-.144 0-.342 0-.342.342 0 .18.162.18.432.18 1.098 0 1.098.144 1.098.342 0 .036 0 .144-.072.414l-2.43 9.684c-.162.63-.198.81-1.458.81-.342 0-.522 0-.522.324 0 .198.162.198.27.198.342 0 .702-.036 1.044-.036h2.106c.342 0 .72.036 1.062.036.144 0 .342 0 .342-.342 0-.18-.162-.18-.432-.18-1.098 0-1.098-.144-1.098-.324 0-.126.108-.576.18-.864l.702-2.79 2.736-2.142c.522 1.152 1.476 3.456 2.214 5.22.054.108.09.216.09.342 0 .54-.72.558-.882.558-.162 0-.342 0-.342.342 0 .18.198.18.252.18.63 0 1.296-.036 1.926-.036h.864c.27 0 .576.036.846.036.108 0 .306 0 .306-.342 0-.18-.162-.18-.342-.18-.666-.018-.9-.162-1.17-.81z" transform="matrix(.26458 0 0 .26458 118.615 171.949)" style="fill:#0000f8"/>
<path d="M90.141 7.368c-.018-.054-.09-.198-.09-.252 0-.018.018-.036.324-.27l1.746-1.368c2.412-1.872 3.204-2.502 4.446-2.61.126-.018.306-.018.306-.324 0-.108-.054-.198-.198-.198-.198 0-.414.036-.612.036h-.684c-.558 0-1.152-.036-1.692-.036-.126 0-.342 0-.342.324 0 .18.126.198.234.198.198.018.432.09.432.342 0 .36-.54.792-.684.9L86.271 9.6l1.494-5.94c.162-.612.198-.792 1.476-.792.342 0 .504 0 .504-.342 0-.18-.18-.18-.27-.18-.324 0-.702.036-1.044.036h-2.124c-.324 0-.72-.036-1.044-.036-.144 0-.342 0-.342.342 0 .18.162.18.432.18 1.098 0 1.098.144 1.098.342 0 .036 0 .144-.072.414l-2.43 9.684c-.162.63-.198.81-1.458.81-.342 0-.522 0-.522.324 0 .198.162.198.27.198.342 0 .702-.036 1.044-.036h2.106c.342 0 .72.036 1.062.036.144 0 .342 0 .342-.342 0-.18-.162-.18-.432-.18-1.098 0-1.098-.144-1.098-.324 0-.126.108-.576.18-.864l.702-2.79 2.736-2.142c.522 1.152 1.476 3.456 2.214 5.22.054.108.09.216.09.342 0 .54-.72.558-.882.558-.162 0-.342 0-.342.342 0 .18.198.18.252.18.63 0 1.296-.036 1.926-.036h.864c.27 0 .576.036.846.036.108 0 .306 0 .306-.342 0-.18-.162-.18-.342-.18-.666-.018-.9-.162-1.17-.81z" transform="matrix(.26458 0 0 .26458 142.508 183.26)" style="fill:red"/>
</g>
</svg>
