<svg width="183.955" height="120.46" viewBox="0 0 48.672 31.872" xml:space="preserve" xmlns="http://www.w3.org/2000/svg">
<defs>
<marker id="a" overflow="visible" orient="auto">
<path d="m-4 0-2 2 7-2-7-2Z" fill-rule="evenodd" stroke="#000" stroke-width=".4pt"/>
</marker>
</defs>
<path d="M55.4 266.89c2.666-5.038 7.961-8.47 14.058-8.47 8.24 0 15.014 6.268 15.817 14.296m0 3.2a15.869 15.869 0 0 1-.288 1.815m-1.961 4.872c-2.794 4.564-7.825 7.61-13.568 7.61-8.237 0-15.01-6.265-15.816-14.29m-.004-3.177c.065-.665.171-1.318.316-1.957" fill="none" stroke="#000" stroke-dasharray="1.79999, 1.79999" stroke-width=".079" style="font-variation-settings:normal;opacity:1;vector-effect:none;fill:none;fill-opacity:1;stroke:#000;stroke-width:.185208;stroke-linecap:butt;stroke-linejoin:miter;stroke-miterlimit:4;stroke-dasharray:.740831,.740831;stroke-dashoffset:0;stroke-opacity:1;-inkscape-stroke:none;stop-color:#000;stop-opacity:1" transform="translate(-45.122 -258.38)"/>
<path d="M70.936 274.316c0 .395-.157.77-.43 1.048-.279.278-.658.43-1.048.43-.395 0-.77-.152-1.048-.43a1.474 1.474 0 0 1-.43-1.048c0-.395.152-.77.43-1.048.279-.278.653-.43 1.048-.43.39 0 .77.152 1.048.43.273.279.43.653.43 1.048zm-2.667-1.19c-.32.315-.491.745-.491 1.19 0 .445.172.876.49 1.19a1.686 1.686 0 0 0 2.38 0 1.686 1.686 0 0 0 0-2.38 1.686 1.686 0 0 0-2.38 0zm1.189.84a.376.376 0 0 0-.248.102.376.376 0 0 0-.101.248c0 .091.04.182.101.248.066.06.157.101.248.101s.182-.04.243-.1a.353.353 0 0 0 0-.497.354.354 0 0 0-.243-.101z" style="stroke-linejoin:round" transform="translate(-45.122 -258.38)"/>
<g stroke-miterlimit="100000" aria-label="太陽" style="stroke-linejoin:round">
<path d="m24.344 13.407-.188.208q-.463-.256-.854-.72-.392-.465-.584-1.016-.135.639-.56 1.09-.426.452-1.015.65l-.103-.197q.561-.201.976-.687.416-.487.488-1.099h-1.368v-.219h1.411v-.846h.295v.846h1.433v.219h-1.389q.145.491.527.984.385.492.93.787zm-1.173-.024-.214.175q-.157-.179-.608-.558l.188-.172q.34.276.634.555zM25.394 11.591q.281.43.281.793v.01q0 .207-.053.35-.054.14-.152.205-.098.062-.286.062h-.07l-.052-.207h.038l.04.002q.111 0 .167-.024.056-.025.094-.102.04-.078.04-.274 0-.202-.088-.434-.086-.234-.18-.341-.004-.007-.004-.028l.001-.022q.07-.169.149-.415.079-.247.079-.315h-.419v2.818h-.244v-3.004h.944l.027.043q-.03.132-.144.461-.114.327-.168.422zm.55.116v-1.042h1.674v1.042zm.26-.612h1.158v-.255h-1.158zm1.158.169h-1.158v.264h1.158zm-1.64 2.306-.135-.132q.565-.395.855-.83h-.343q-.13.148-.317.301l-.133-.122q.286-.247.509-.63h-.364v-.206h2.026v.205h-1.4q-.06.107-.168.257h1.463v.13q0 .37-.03.597-.029.227-.072.303-.041.074-.115.12-.073.047-.143.064-.07.018-.235.018l-.201-.002-.043-.216h.26q.21 0 .267-.204.059-.205.059-.533l-.002-.082h-.183q-.267.6-.844 1.014l-.15-.126q.51-.404.746-.888H26.7q-.157.268-.458.554-.302.286-.52.408z"/>
</g>
<path d="M154.151 54.72V21.2" fill="none" marker-end="url(#a)" stroke="#000" stroke-width="2" style="marker-end:url(#a)" transform="matrix(.26459 0 0 .26459 -.554 -.132)"/>
<path d="M41.71 15.835h-1.377v-1.377c.355.025.694.177.947.43s.405.592.43.947zm-2.667-1.088c-.32.313-.491.744-.491 1.189 0 .445.172.876.49 1.19a1.686 1.686 0 0 0 2.38 0 1.686 1.686 0 0 0 0-2.38 1.686 1.686 0 0 0-2.38 0zm1.29 2.667v-1.377h1.377a1.492 1.492 0 0 1-.43.947 1.492 1.492 0 0 1-.947.43zm-1.579-1.377h1.377v1.377a1.492 1.492 0 0 1-.947-.43 1.492 1.492 0 0 1-.43-.947zm1.377-1.579v1.377h-1.377c.026-.355.177-.694.43-.947.254-.253.593-.405.947-.43z"/>
<path d="M154.151 54.72V21.2" fill="none" marker-end="url(#a)" stroke="#000" stroke-width="2" style="marker-end:url(#a)" transform="matrix(.26459 0 0 -.26459 -32.346 32.004)"/>
<path d="M9.917 16.037H8.541v1.377c.354-.026.693-.177.946-.43.253-.254.405-.593.43-.947zM7.25 17.125a1.665 1.665 0 0 1-.49-1.19c0-.445.171-.875.49-1.188a1.686 1.686 0 0 1 2.379 0 1.686 1.686 0 0 1 0 2.378 1.686 1.686 0 0 1-2.379 0zm1.29-2.667v1.377h1.377a1.492 1.492 0 0 0-.43-.947 1.492 1.492 0 0 0-.946-.43zm-1.578 1.377h1.376v-1.377a1.492 1.492 0 0 0-.946.43 1.492 1.492 0 0 0-.43.947zm1.376 1.579v-1.377H6.962c.025.354.177.693.43.946.253.254.592.405.946.43z"/>
<g fill="red">
<path d="M33.048 21.218c.415-.137.708-.49.708-.89 0-.416-.445-.7-.931-.7-.511 0-.896.304-.896.69 0 .166.112.262.258.262a.247.247 0 0 0 .258-.258c0-.253-.237-.253-.313-.253.157-.248.49-.314.673-.314.207 0 .486.112.486.567 0 .06-.01.354-.142.577-.152.243-.324.258-.45.263-.041.005-.162.015-.198.015-.04.006-.076.01-.076.061 0 .056.036.056.122.056h.222c.415 0 .603.344.603.84 0 .688-.35.835-.572.835-.218 0-.598-.086-.775-.385.177.026.334-.086.334-.278a.273.273 0 0 0-.283-.283c-.122 0-.283.07-.283.293 0 .46.47.795 1.022.795.617 0 1.078-.46 1.078-.977 0-.415-.319-.81-.845-.916zM36.43 21.38c0-.405-.026-.81-.203-1.184a.938.938 0 0 0-.86-.567c-.304 0-.674.131-.881.602-.162.35-.188.744-.188 1.149 0 .38.02.835.228 1.22.218.41.587.51.835.51.273 0 .658-.105.88-.586.163-.35.188-.744.188-1.144zM35.36 23c-.197 0-.496-.127-.587-.613-.056-.304-.056-.77-.056-1.068 0-.324 0-.658.04-.931.097-.602.477-.648.603-.648.167 0 .501.091.597.592.051.284.051.668.051.987 0 .38 0 .724-.056 1.048-.076.48-.364.632-.592.632zM38.002 22.615c0 .228-.056.228-.395.228v.156c.167-.005.405-.015.552-.015.152 0 .354.005.557.015v-.156c-.34 0-.395 0-.395-.228v-.521l.324-.279c.39.537.602.82.602.911 0 .096-.086.117-.182.117v.156c.142-.005.44-.015.546-.015.147 0 .294.005.44.015v-.156c-.187 0-.298 0-.49-.269l-.643-.906c-.005-.01-.03-.04-.03-.055 0-.02.359-.324.41-.365.318-.258.531-.268.637-.273v-.157c-.146.015-.212.015-.354.015-.182 0-.496-.01-.567-.015v.157c.096.005.147.06.147.127 0 .1-.07.162-.111.197l-.714.617v-2.429l-.729.056v.157c.355 0 .395.035.395.283zM40.683 21.258v1.357c0 .228-.055.228-.394.228v.156c.177-.005.435-.015.571-.015.132 0 .395.01.567.015v-.156c-.339 0-.394 0-.394-.228v-.931c0-.527.359-.81.683-.81.319 0 .374.273.374.562v1.179c0 .228-.055.228-.394.228v.156c.177-.005.435-.015.571-.015.132 0 .395.01.567.015v-.156c-.339 0-.395 0-.395-.228v-.931c0-.527.36-.81.684-.81.319 0 .374.273.374.562v1.179c0 .228-.055.228-.395.228v.156c.178-.005.436-.015.572-.015.132 0 .395.01.567.015v-.156c-.263 0-.39 0-.395-.152v-.967c0-.435 0-.592-.156-.774-.071-.086-.238-.188-.532-.188-.425 0-.648.304-.734.496-.07-.44-.445-.496-.673-.496-.37 0-.607.218-.749.532v-.532l-.713.056v.157c.354 0 .394.035.394.283zM46.55 19.396c.025-.066.025-.086.025-.091a.102.102 0 0 0-.1-.101c-.036 0-.072.015-.087.045l-1.756 4.823c-.025.066-.025.086-.025.091 0 .056.045.102.1.102.067 0 .082-.036.112-.122zM47.902 22.018c.112.02.527.1.527.465 0 .258-.178.46-.572.46-.425 0-.608-.288-.704-.718-.015-.066-.02-.086-.07-.086-.066 0-.066.035-.066.127v.668c0 .086 0 .121.055.121.026 0 .03-.005.127-.101.01-.01.01-.02.101-.117.223.213.45.218.557.218.582 0 .815-.339.815-.703a.653.653 0 0 0-.213-.481c-.167-.162-.364-.203-.577-.243-.283-.056-.622-.122-.622-.415 0-.177.131-.385.566-.385.557 0 .582.456.592.613.006.045.051.045.061.045.066 0 .066-.025.066-.121v-.511c0-.086 0-.122-.056-.122-.025 0-.035 0-.1.06a.652.652 0 0 1-.087.082c-.192-.142-.4-.142-.476-.142-.617 0-.81.34-.81.623a.54.54 0 0 0 .218.43c.162.131.304.162.668.233z"/>
</g>
<g fill="red">
<path d="M1.255 9.621c.415-.136.709-.49.709-.89 0-.415-.446-.699-.932-.699-.51 0-.895.304-.895.689 0 .167.111.263.258.263a.247.247 0 0 0 .258-.258c0-.253-.238-.253-.314-.253.157-.248.491-.314.673-.314.208 0 .486.111.486.567 0 .06-.01.354-.142.577-.151.242-.324.258-.45.263-.04.005-.162.015-.197.015-.04.005-.076.01-.076.06 0 .056.035.056.121.056h.223c.415 0 .602.344.602.84 0 .689-.35.836-.572.836-.217 0-.597-.087-.774-.385.177.025.334-.086.334-.278a.273.273 0 0 0-.284-.284c-.121 0-.283.071-.283.294 0 .46.47.794 1.022.794.618 0 1.078-.46 1.078-.977 0-.415-.319-.81-.845-.916zM4.637 9.783c0-.405-.026-.81-.203-1.184a.938.938 0 0 0-.86-.567c-.304 0-.673.132-.88.603-.163.349-.188.743-.188 1.148 0 .38.02.835.228 1.22.217.41.587.511.835.511.273 0 .658-.106.88-.587.162-.35.188-.744.188-1.144zm-1.068 1.62c-.198 0-.496-.127-.587-.613-.056-.303-.056-.769-.056-1.067 0-.324 0-.658.04-.932.097-.602.476-.647.603-.647.167 0 .5.09.597.592.05.283.05.668.05.987 0 .38 0 .723-.055 1.047-.076.481-.365.633-.592.633zM6.21 11.018c0 .228-.056.228-.395.228v.157c.167-.005.405-.015.551-.015.152 0 .355.005.557.015v-.157c-.339 0-.395 0-.395-.228v-.521l.324-.278c.39.536.602.82.602.91 0 .097-.086.117-.182.117v.157c.142-.005.44-.015.547-.015.147 0 .293.005.44.015v-.157c-.187 0-.298 0-.49-.268l-.643-.906c-.006-.01-.03-.04-.03-.056 0-.02.358-.324.41-.364.318-.258.53-.268.637-.274v-.156c-.147.015-.213.015-.354.015-.183 0-.496-.01-.567-.015v.156c.096.006.146.061.146.127 0 .101-.07.162-.11.197l-.714.618V7.89l-.73.056v.157c.355 0 .395.036.395.284zM8.89 9.662v1.356c0 .228-.055.228-.394.228v.157c.177-.005.435-.015.572-.015.132 0 .395.01.567.015v-.157c-.34 0-.395 0-.395-.228v-.931c0-.526.36-.81.683-.81.32 0 .375.274.375.562v1.18c0 .227-.056.227-.395.227v.157c.177-.005.435-.015.572-.015.131 0 .395.01.567.015v-.157c-.34 0-.395 0-.395-.228v-.931c0-.526.36-.81.683-.81.319 0 .375.274.375.562v1.18c0 .227-.056.227-.395.227v.157c.177-.005.435-.015.572-.015.131 0 .395.01.567.015v-.157c-.264 0-.39 0-.395-.152v-.967c0-.435 0-.592-.157-.774-.07-.086-.238-.187-.531-.187-.426 0-.648.304-.734.496-.071-.44-.446-.496-.673-.496-.37 0-.608.218-.75.531v-.531l-.713.056v.156c.354 0 .395.036.395.284zM14.757 7.8c.026-.066.026-.087.026-.092a.102.102 0 0 0-.101-.1c-.036 0-.071.014-.087.045l-1.756 4.823c-.025.066-.025.086-.025.09 0 .057.046.102.101.102.066 0 .081-.035.112-.121zM16.11 10.421c.111.02.526.101.526.466 0 .258-.177.46-.572.46-.425 0-.607-.288-.703-.718-.015-.066-.02-.087-.071-.087-.066 0-.066.036-.066.127v.668c0 .086 0 .122.056.122.025 0 .03-.006.126-.102.01-.01.01-.02.101-.116.223.212.45.218.557.218.582 0 .815-.34.815-.704a.653.653 0 0 0-.213-.48c-.167-.163-.364-.203-.577-.244-.283-.055-.622-.121-.622-.415 0-.177.132-.384.567-.384.557 0 .582.455.592.612.005.046.05.046.06.046.066 0 .066-.026.066-.122v-.511c0-.086 0-.121-.055-.121-.026 0-.036 0-.101.06a.652.652 0 0 1-.086.081c-.193-.141-.4-.141-.476-.141-.618 0-.81.339-.81.622a.54.54 0 0 0 .218.43c.162.132.303.162.668.233z"/>
</g>
</svg>
