<svg width="162.337" height="93.536" viewBox="0 0 42.952 24.748" xml:space="preserve" xmlns="http://www.w3.org/2000/svg">
<path d="M67.014 237.541c7.734-3.065 13.74-9.587 16.568-17.622" color="#000" fill="none" stroke="#000" stroke-dasharray="3.00001, 3.00001" stroke-linejoin="round" stroke-miterlimit="100000" stroke-width=".132" style="font-variation-settings:normal;opacity:1;isolation:auto;mix-blend-mode:normal;vector-effect:none;fill:none;fill-opacity:1;stroke:#000;stroke-width:.185208;stroke-linecap:butt;stroke-linejoin:miter;stroke-miterlimit:4;stroke-dasharray:.740831,.740831;stroke-dashoffset:0;stroke-opacity:1;-inkscape-stroke:none;stop-color:#000;stop-opacity:1" transform="translate(-46.64 -217.89)"/>
<g style="fill:#00f">
<path d="M8.466 48.673V14.322l2.039 2.039-2.54-8.887-2.538 8.887 2.039-2.04v35.352h35.351l-2.039 2.04 8.887-2.54-8.887-2.539 2.04 2.04z" color="#000" style="font-variant-ligatures:normal;font-variant-position:normal;font-variant-caps:normal;font-variant-numeric:normal;font-variant-alternates:normal;font-feature-settings:normal;text-indent:0;text-decoration-line:none;text-decoration-style:solid;text-decoration-color:#000;text-transform:none;text-orientation:mixed;white-space:normal;shape-padding:0;isolation:auto;mix-blend-mode:normal" transform="matrix(.26458 0 0 .26458 29.811 -1.977)"/>
</g>
<g style="fill:#8383ff">
<path d="M8.466 48.673V14.322l2.039 2.039-2.54-8.887-2.538 8.887 2.039-2.04v35.352h35.351l-2.039 2.04 8.887-2.54-8.887-2.539 2.04 2.04z" color="#000" style="font-variant-ligatures:normal;font-variant-position:normal;font-variant-caps:normal;font-variant-numeric:normal;font-variant-alternates:normal;font-feature-settings:normal;text-indent:0;text-decoration-line:none;text-decoration-style:solid;text-decoration-color:#000;text-transform:none;text-orientation:mixed;white-space:normal;shape-padding:0;isolation:auto;mix-blend-mode:normal" transform="matrix(.26458 0 0 .26458 25.736 2.218)"/>
</g>
<g style="fill:#c8c8ff">
<path d="M8.466 48.673V14.322l2.039 2.039-2.54-8.887-2.538 8.887 2.039-2.04v35.352h35.351l-2.039 2.04 8.887-2.54-8.887-2.539 2.04 2.04z" color="#000" style="font-variant-ligatures:normal;font-variant-position:normal;font-variant-caps:normal;font-variant-numeric:normal;font-variant-alternates:normal;font-feature-settings:normal;text-indent:0;text-decoration-line:none;text-decoration-style:solid;text-decoration-color:#000;text-transform:none;text-orientation:mixed;white-space:normal;shape-padding:0;isolation:auto;mix-blend-mode:normal" transform="matrix(.26458 0 0 .26458 22.323 4.677)"/>
</g>
<g style="fill:#c8c8ff">
<path d="M8.466 48.673V14.322l2.039 2.039-2.54-8.887-2.538 8.887 2.039-2.04v35.352h35.351l-2.039 2.04 8.887-2.54-8.887-2.539 2.04 2.04z" color="#000" style="font-variant-ligatures:normal;font-variant-position:normal;font-variant-caps:normal;font-variant-numeric:normal;font-variant-alternates:normal;font-feature-settings:normal;text-indent:0;text-decoration-line:none;text-decoration-style:solid;text-decoration-color:#000;text-transform:none;text-orientation:mixed;white-space:normal;shape-padding:0;isolation:auto;mix-blend-mode:normal" transform="matrix(0 -.26458 -.26458 0 18.443 21.223)"/>
</g>
<g style="fill:#8383ff">
<path d="M8.466 48.673V14.322l2.039 2.039-2.54-8.887-2.538 8.887 2.039-2.04v35.352h35.351l-2.039 2.04 8.887-2.54-8.887-2.539 2.04 2.04z" color="#000" style="font-variant-ligatures:normal;font-variant-position:normal;font-variant-caps:normal;font-variant-numeric:normal;font-variant-alternates:normal;font-feature-settings:normal;text-indent:0;text-decoration-line:none;text-decoration-style:solid;text-decoration-color:#000;text-transform:none;text-orientation:mixed;white-space:normal;shape-padding:0;isolation:auto;mix-blend-mode:normal" transform="scale(-.26458 .26458) rotate(-75 8.752 79.432)"/>
</g>
<g style="fill:#00f">
<path d="M8.466 48.673V14.322l2.039 2.039-2.54-8.887-2.538 8.887 2.039-2.04v35.352h35.351l-2.039 2.04 8.887-2.54-8.887-2.539 2.04 2.04z" color="#000" style="font-variant-ligatures:normal;font-variant-position:normal;font-variant-caps:normal;font-variant-numeric:normal;font-variant-alternates:normal;font-feature-settings:normal;text-indent:0;text-decoration-line:none;text-decoration-style:solid;text-decoration-color:#000;text-transform:none;text-orientation:mixed;white-space:normal;shape-padding:0;isolation:auto;mix-blend-mode:normal" transform="scale(-.26458 .26458) rotate(-60 13.699 85.756)"/>
</g>
<g fill="#00f">
<path d="M7.624 24.522H5.155v.188H4.9v-2.925h2.987v2.911h-.263Zm-2.469-.208h2.469v-2.32H5.155Zm.526-.503V22.49h1.381v1.321zm1.116-1.12h-.853v.906h.853zM8.3 24.157v-.198h.66v-.298h-.568V22.39h.575v-.291H8.32V21.9h.647v-.298h.255v.298h.627v.198h-.627v.291h.565v1.271h-.572v.298h.627v.198h-.627v.591h-.254v-.59Zm.33-1.238h.344v-.352H8.63Zm.575 0h.338v-.352h-.338zm.338.177h-.338v.38h.338zm-.569 0H8.63v.38h.344zm1.07-1.094v-.211h1.41v.211zm-.212 2.694-.055-.218q.088-.005.212-.018.213-.521.453-1.45h-.496v-.213h1.58v.213h-.802q-.227.836-.473 1.423.516-.06.904-.13-.148-.363-.284-.668l.238-.075q.143.286.456 1.09l-.248.072q-.033-.091-.083-.22-.389.074-1.402.194zM27.31 22.765q0 .543-.168 1.079-.167.534-.49.904l-.185-.138q.277-.329.425-.823.15-.494.15-1.08v-.222h-.44v-.209h.44V21.6h.269v.677h.81v.474l-.003.508q-.002.265-.02.55-.018.284-.062.473-.043.19-.1.266-.055.075-.142.117-.086.041-.19.041h-.376l-.031-.241h.272q.096 0 .155-.022.059-.025.095-.078.036-.053.06-.155.026-.102.043-.267.019-.165.024-.329.005-.165.005-.76v-.368h-.54zm2.118 1.67h-.67v.255h-.27v-2.82h1.208v2.795h-.268zm-.67-.224h.67v-2.126h-.67zM33.367 23.942l-.131.205q-.579-.233-1-.668v.82h-.256v-.803q-.424.427-.945.637l-.097-.177q.302-.133.584-.359.284-.225.384-.356h-.766v-.865h.833v-.287h-.975v-.212h.975v-.248h.267v.248h.996v.212h-.996v.287h.843v.865h-.777q.175.201.477.4.303.198.584.301zm-.544-.882v-.496h-.583v.496zm-.85 0v-.496h-.575v.496zm-1.137-.83-.24.143q-.156-.276-.414-.591l.219-.136q.27.334.435.584zm2.588 2.201-.05.234-.961.004q-.726 0-.894-.016-.17-.015-.347-.055-.177-.038-.31-.127-.13-.091-.19-.198-.287.293-.566.429l-.093-.231q.095-.042.265-.154.173-.113.241-.18v-1.051h-.456v-.214h.727v1.106q0 .162.114.265.113.102.267.138.153.035.287.054.135.019.78.019.834 0 1.186-.023zM34.108 22.078v.824q0 .66-.117 1.097-.116.437-.31.706l-.174-.133q.342-.577.342-1.515v-1.194h1.346v-.293h.28v.293h1.36v.215zm.647 1.123v-.515h-.504v-.201h.504v-.255h.259v.255h.885v-.255h.27v.255h.559v.201h-.558v.515zm.259-.515v.328h.885v-.328zm.506 1.71q-.548.252-1.362.342l-.057-.214q.232-.02.43-.057.2-.036.331-.074.133-.038.393-.127-.424-.248-.64-.619h-.285v-.205h2.108l.066.075q-.222.44-.729.745.458.17 1.053.228l-.105.225q-.648-.077-1.203-.318zm-.001-.246q.403-.218.596-.503h-1.211q.217.302.615.503z"/>
</g>
<g fill="red">
<path d="M6.189 2.808h1.269v.255h-1.27v1.054h-.316V.41h.317v.498h1.213v.25H6.189v.678h1.106v.254H6.189Zm-2.578.333-.066-.264q.448-.064 1.259-.207.006-.079.006-.221V2.09h-1.1v-.254h1.1v-.678H3.698v-.25H4.81V.442h.316v1.963q0 .104-.006.21.172-.032.33-.067v.238q-.121.033-.359.082-.083.521-.35.821-.264.298-.717.465l-.138-.21q.27-.108.525-.34.256-.231.353-.67-.53.102-1.153.207zM8.272 4.16V.386h.31V4.16Zm.982-2.985H8.96V.96h.314l.039-.475h2.164l-.023.475h.325v.215h-.333l-.023.488h-2.21zm.947-.206.023-.281h-.64l-.024.28zm.306-.281-.023.28h.678l.014-.28zm-.343.769.022-.29h-.642l-.025.29zm.306-.29-.025.29h.688l.017-.29zm-1.646.531-.17-.523.214-.064.171.509zm-.889.683-.26-.056q.11-.461.118-1.154l.262.009q-.012.77-.12 1.2zm1.218 1.122V1.9h2.344v1.602zm.31-1.15h1.724v-.25H9.463Zm0 .451h1.724v-.26H9.463Zm1.724.19H9.463v.28h1.724zm.465 1.166q-.525-.153-.953-.436l.176-.205q.376.236.928.39zm-2.712.004-.103-.225q.506-.143.92-.413l.19.198q-.17.12-.474.254-.304.137-.533.186zM13.291 4.061v-.265h1.234V2.647H13.51v-.254h1.015V1.48h-.678q-.155.37-.362.662l-.25-.13q.18-.263.352-.689.171-.426.225-.762l.325.047q-.062.28-.19.618h.578V.39h.329v.837h1.058v.254h-1.058v.912h.959v.254h-.96v1.15h1.15v.264zm-.7.108V.406h.303V4.17zm.545-2.54-.134-.57.242-.055.134.56zm-.93.725-.267-.056q.118-.455.147-1.154l.277.01q-.008.238-.058.627-.047.387-.1.573zM18.045 4.164V2.647q-1.145.064-1.597.075l-.04-.277q.331.01 1.27-.027.078-.058.156-.122-.018-.019-1.002-.901l.217-.18q.056.041.263.223.301-.312.516-.583-.783.043-1.23.048l-.033-.238q.877-.013 1.817-.089.94-.079 1.245-.157l.146.242q-.46.099-1.546.171-.318.4-.715.782l.55.494q.663-.565 1.019-1.028l.312.155q-.6.662-1.292 1.166.825-.037 1.335-.078Q19.26 2.13 19.12 2l.238-.17q.134.114.405.402.27.287.407.454l-.26.182q-.132-.163-.277-.328-.387.035-1.255.087v1.537zm1.84-.17q-.256-.162-.59-.454-.33-.293-.46-.477l.246-.166q.56.596 1.023.856zm-3.394.017-.163-.215q.351-.225.545-.392.195-.17.474-.467l.279.165q-.197.238-.542.513-.343.272-.593.396z"/>
</g>
</svg>
