<svg width="165.015" height="121.664" viewBox="0 0 43.66 32.19" xml:space="preserve" xmlns="http://www.w3.org/2000/svg">
<defs>
<marker id="a" overflow="visible" orient="auto">
<path d="m-10 0-4 4L0 0l-14-4Z" fill-rule="evenodd" stroke="#000" stroke-width=".8pt"/>
</marker>
</defs>
<g transform="translate(-119.897 -261.46)">
<g color="#000">
<path transform="matrix(0 -.26458 .26458 0 119.765 261.328)" fill="#dcdcdc" style="isolation:auto;mix-blend-mode:normal" d="M-122.164 90.198H-.5v75.316h-121.664z"/>
<path d="M90.198 122.164V.5" fill="none" stroke="#555" stroke-linejoin="round" stroke-miterlimit="100" stroke-width="3" style="isolation:auto;mix-blend-mode:normal" transform="matrix(.26458 0 0 .26458 119.765 261.328)"/>
<g transform="matrix(.26458 0 0 .26458 119.765 261.328)">
<circle cx="17.938" cy="85.778" r="9.997" fill="#f44" style="isolation:auto;mix-blend-mode:normal"/>
<path d="M17.938 97.617A17.438 17.438 0 0 0 .5 115.055h34.876a17.438 17.438 0 0 0-17.438-17.438Z" fill="#f44" style="isolation:auto;mix-blend-mode:normal"/>
<circle cx="136.332" cy="85.778" r="9.997" fill="#44f" style="isolation:auto;mix-blend-mode:normal"/>
<path d="M136.332 97.617a17.438 17.438 0 0 0-17.437 17.438h34.876a17.438 17.438 0 0 0-17.44-17.439Z" fill="#44f" style="isolation:auto;mix-blend-mode:normal"/>
</g>
</g>
<path d="M152.094 282.377c.016-.041.029-.063.029-.095 0-.105-.095-.174-.184-.174-.127 0-.162.11-.175.155l-.403 1.369c-.013.038-.013.047-.013.05 0 .029.019.035.05.045.058.025.064.025.07.025.01 0 .03 0 .051-.054z" fill="#00f"/>
<path d="m155.766 281.38-24.806-13.444" color="#000" fill="none" marker-end="url(#Arrow1Lend-7)" stroke="#000" stroke-dasharray="1.99999, 1.99999" stroke-width=".132" style="font-variation-settings:normal;opacity:1;isolation:auto;mix-blend-mode:normal;vector-effect:none;fill:none;fill-opacity:1;stroke:#000;stroke-width:.132292;stroke-linecap:butt;stroke-linejoin:miter;stroke-miterlimit:4;stroke-dasharray:.529166,.529166;stroke-dashoffset:0;stroke-opacity:1;-inkscape-stroke:none;marker-end:url(#a);stop-color:#000;stop-opacity:1"/>
<path d="M140.511 266.206a.246.246 0 0 0 .032-.114c0-.11-.1-.195-.21-.195-.134 0-.176.11-.194.167l-.468 1.534a.634.634 0 0 0-.017.057c0 .042.11.077.138.077.025 0 .028-.007.053-.06z"/>
<path d="m124.747 281.389 4.604-12.841" color="#000" fill="none" marker-end="url(#Arrow1Lend-7)" stroke="#000" stroke-dasharray="1.99999, 1.99999" stroke-width=".132" style="font-variation-settings:normal;opacity:1;isolation:auto;mix-blend-mode:normal;vector-effect:none;fill:none;fill-opacity:1;stroke:#000;stroke-width:.132292;stroke-linecap:butt;stroke-linejoin:miter;stroke-miterlimit:4;stroke-dasharray:.529166,.529166;stroke-dashoffset:0;stroke-opacity:1;-inkscape-stroke:none;marker-end:url(#a);stop-color:#000;stop-opacity:1"/>
<circle transform="rotate(-26.402)" cx="-2.603" cy="297.14" r="1.323" color="#000" fill="#5e5bff" style="stroke-width:.264584"/>
<path d="M111.722 85.405c-.018-.054-.09-.198-.09-.252 0-.018.018-.036.324-.27l1.746-1.368c2.412-1.872 3.204-2.502 4.446-2.61.126-.018.306-.018.306-.324 0-.108-.054-.198-.198-.198-.198 0-.414.036-.612.036h-.684c-.558 0-1.152-.036-1.692-.036-.126 0-.342 0-.342.324 0 .18.126.198.234.198.198.018.432.09.432.342 0 .36-.54.792-.684.9l-7.056 5.49 1.494-5.94c.162-.612.198-.792 1.476-.792.342 0 .504 0 .504-.342 0-.18-.18-.18-.27-.18-.324 0-.702.036-1.044.036h-2.124c-.324 0-.72-.036-1.044-.036-.144 0-.342 0-.342.342 0 .18.162.18.432.18 1.098 0 1.098.144 1.098.342 0 .036 0 .144-.072.414l-2.43 9.684c-.162.63-.198.81-1.458.81-.342 0-.522 0-.522.324 0 .198.162.198.27.198.342 0 .702-.036 1.044-.036h2.106c.342 0 .72.036 1.062.036.144 0 .342 0 .342-.342 0-.18-.162-.18-.432-.18-1.098 0-1.098-.144-1.098-.324 0-.126.108-.576.18-.864l.702-2.79 2.736-2.142c.522 1.152 1.476 3.456 2.214 5.22.054.108.09.216.09.342 0 .54-.72.558-.882.558-.162 0-.342 0-.342.342 0 .18.198.18.252.18.63 0 1.296-.036 1.926-.036h.864c.27 0 .576.036.846.036.108 0 .306 0 .306-.342 0-.18-.162-.18-.342-.18-.666-.018-.9-.162-1.17-.81z" transform="matrix(.26458 0 0 .26458 119.765 261.328)" style="fill:#00f;stroke-width:1.49999"/>
<path d="M111.722 85.405c-.018-.054-.09-.198-.09-.252 0-.018.018-.036.324-.27l1.746-1.368c2.412-1.872 3.204-2.502 4.446-2.61.126-.018.306-.018.306-.324 0-.108-.054-.198-.198-.198-.198 0-.414.036-.612.036h-.684c-.558 0-1.152-.036-1.692-.036-.126 0-.342 0-.342.324 0 .18.126.198.234.198.198.018.432.09.432.342 0 .36-.54.792-.684.9l-7.056 5.49 1.494-5.94c.162-.612.198-.792 1.476-.792.342 0 .504 0 .504-.342 0-.18-.18-.18-.27-.18-.324 0-.702.036-1.044.036h-2.124c-.324 0-.72-.036-1.044-.036-.144 0-.342 0-.342.342 0 .18.162.18.432.18 1.098 0 1.098.144 1.098.342 0 .036 0 .144-.072.414l-2.43 9.684c-.162.63-.198.81-1.458.81-.342 0-.522 0-.522.324 0 .198.162.198.27.198.342 0 .702-.036 1.044-.036h2.106c.342 0 .72.036 1.062.036.144 0 .342 0 .342-.342 0-.18-.162-.18-.432-.18-1.098 0-1.098-.144-1.098-.324 0-.126.108-.576.18-.864l.702-2.79 2.736-2.142c.522 1.152 1.476 3.456 2.214 5.22.054.108.09.216.09.342 0 .54-.72.558-.882.558-.162 0-.342 0-.342.342 0 .18.198.18.252.18.63 0 1.296-.036 1.926-.036h.864c.27 0 .576.036.846.036.108 0 .306 0 .306-.342 0-.18-.162-.18-.342-.18-.666-.018-.9-.162-1.17-.81z" transform="matrix(.26458 0 0 .26458 101.126 261.328)" style="fill:red;stroke-width:1.49999"/>
<path d="M138.86 267.938a.378.378 0 0 0-.272.35c0 .11.086.232.253.232.177 0 .364-.147.364-.395 0-.268-.268-.445-.577-.445-.288 0-.476.217-.542.309-.126-.213-.41-.31-.698-.31-.638 0-.982.623-.982.79 0 .071.076.071.122.071.06 0 .096 0 .116-.066.147-.46.511-.612.719-.612.192 0 .283.091.283.253 0 .096-.07.375-.116.557l-.172.693c-.076.309-.258.46-.43.46-.026 0-.142 0-.243-.075a.378.378 0 0 0 .273-.35c0-.11-.086-.232-.253-.232-.177 0-.365.147-.365.395 0 .268.269.445.577.445.289 0 .476-.218.542-.309.126.213.41.309.698.309.638 0 .982-.623.982-.79 0-.07-.076-.07-.121-.07-.061 0-.096 0-.117.065-.146.46-.51.613-.718.613-.193 0-.284-.091-.284-.253 0-.107.066-.375.112-.562.035-.132.151-.607.177-.688.076-.304.253-.461.43-.461a.41.41 0 0 1 .243.076zM126.286 269.261a.378.378 0 0 0-.273.35c0 .11.086.232.253.232.177 0 .364-.147.364-.395 0-.268-.268-.445-.577-.445-.288 0-.476.218-.541.309-.127-.213-.41-.31-.699-.31-.637 0-.982.623-.982.79 0 .071.076.071.122.071.06 0 .096 0 .116-.065.147-.461.511-.613.719-.613.192 0 .283.091.283.253 0 .096-.07.375-.116.557l-.172.693c-.076.309-.258.46-.43.46-.026 0-.142 0-.243-.075a.378.378 0 0 0 .273-.35c0-.11-.086-.232-.253-.232-.177 0-.364.147-.364.395 0 .268.268.445.577.445.288 0 .475-.218.541-.309.127.213.41.309.699.309.637 0 .981-.623.981-.79 0-.07-.076-.07-.121-.07-.06 0-.096 0-.116.065-.147.461-.512.613-.72.613-.191 0-.283-.091-.283-.253 0-.107.066-.375.112-.562.035-.132.152-.607.177-.688.076-.304.253-.46.43-.46a.41.41 0 0 1 .243.075z"/>
</g>
</svg>
