<svg width="220.371" height="85.24" viewBox="0 0 58.306 22.553" xml:space="preserve" xmlns="http://www.w3.org/2000/svg">
<defs>
<marker id="b" overflow="visible" orient="auto">
<path d="m-4 0-2 2 7-2-7-2Z" fill="red" fill-rule="evenodd" stroke="red" stroke-width=".4pt"/>
</marker>
<marker id="a" overflow="visible" orient="auto" refX="0" refY="0" viewBox="0 0 8.887 5.078" markerWidth="8.887" markerHeight="5.078" preserveAspectRatio="xMidYMid">
<path d="m-4 0-2 2 7-2-7-2Z" fill="#fff" fill-rule="evenodd" stroke="#fff" stroke-width=".4pt"/>
</marker>
</defs>
<g transform="translate(-47.649 -131.843)">
<path d="m66.62 147.593 1.837-.538-1.168-1.51 1.804.639-.053-1.904 1.083 1.571 1.082-1.57-.053 1.903 1.805-.639-1.168 1.51 1.837.538-1.837.538 1.168 1.51-1.805-.64.053 1.905-1.082-1.572-1.083 1.572.053-1.904-1.804.638 1.168-1.509z" color="#000" fill="#f4ff00" stroke="#c2c216" stroke-miterlimit="5" style="isolation:auto;mix-blend-mode:normal;stroke-width:.264583;shape-rendering:auto"/>
<path transform="rotate(90)" color="#000" fill="#8b8b8b" style="isolation:auto;mix-blend-mode:normal;stroke-width:.264583;shape-rendering:auto" d="M131.843-63.005h10.245v15.356h-10.245zM144.15-69.461h10.245v21.812H144.15z"/>
<path d="M63.005 131.843v10.245M69.461 144.15v10.246" color="#000" stroke="#3d3d3d" stroke-linejoin="round" stroke-miterlimit="100000" stroke-width="1.323" style="font-variation-settings:normal;opacity:1;isolation:auto;mix-blend-mode:normal;vector-effect:none;fill:none;fill-opacity:1;stroke:#3d3d3d;stroke-width:1.32292;stroke-linecap:butt;stroke-linejoin:miter;stroke-miterlimit:4;stroke-dasharray:none;stroke-dashoffset:0;stroke-opacity:1;-inkscape-stroke:none;shape-rendering:auto;stop-color:#000;stop-opacity:1"/>
<path d="M51.644 135.285h8.895" color="#000" marker-end="url(#marker10010)" stroke="#fff" stroke-width=".529" style="font-variation-settings:normal;opacity:1;isolation:auto;mix-blend-mode:normal;vector-effect:none;fill:none;fill-opacity:1;stroke:#fff;stroke-width:.529166;stroke-linecap:butt;stroke-linejoin:miter;stroke-miterlimit:4;stroke-dasharray:none;stroke-dashoffset:0;stroke-opacity:1;-inkscape-stroke:none;marker-end:url(#a);shape-rendering:auto;stop-color:#000;stop-opacity:1"/>
<path d="M83.23 138.644c.066 0 .152 0 .152-.086 0-.09-.08-.09-.152-.09h-2.805c-.067 0-.153 0-.153.085 0 .09.081.09.153.09zm0 .885c.066 0 .152 0 .152-.085 0-.09-.08-.09-.152-.09h-2.805c-.067 0-.153 0-.153.085 0 .09.081.09.153.09zM87.427 138.667c0-.457 0-1.605-1.124-1.605-1.129 0-1.129 1.143-1.129 1.605 0 .458 0 1.577 1.124 1.577s1.129-1.105 1.129-1.577zm-1.124 1.42a.478.478 0 0 1-.362-.162c-.119-.12-.195-.196-.195-1.315 0-.333 0-.638.038-.886.067-.471.41-.504.514-.504.153 0 .448.071.515.471.042.243.042.629.042.92 0 1.123-.07 1.19-.214 1.333a.49.49 0 0 1-.338.143z" style="fill:red;stroke-width:.396875"/>
<path d="M93.2 150.994c.066 0 .152 0 .152-.085 0-.09-.081-.09-.153-.09h-2.805c-.067 0-.152 0-.152.085 0 .09.08.09.152.09zm0 .886c.066 0 .152 0 .152-.086 0-.09-.081-.09-.153-.09h-2.805c-.067 0-.152 0-.152.086 0 .09.08.09.152.09zM97.03 151.737h-.105c-.014.081-.052.343-.1.42-.033.042-.305.042-.448.042h-.88c.128-.11.418-.414.542-.528.724-.667.99-.915.99-1.386 0-.548-.433-.915-.985-.915-.553 0-.876.472-.876.881 0 .243.21.243.223.243a.22.22 0 0 0 .224-.224.212.212 0 0 0-.224-.223c-.042 0-.052 0-.066.005.09-.324.347-.543.657-.543.405 0 .652.338.652.776 0 .405-.233.757-.504 1.062l-.962 1.076v.115h1.738z" color="#000" style="isolation:auto;mix-blend-mode:normal;fill:red;stroke-width:.396875"/>
<path d="M58.1 147.593h8.895" color="#000" fill="none" marker-end="url(#marker6255)" stroke="#fff" stroke-width=".529" style="font-variation-settings:normal;opacity:1;isolation:auto;mix-blend-mode:normal;vector-effect:none;fill:none;fill-opacity:1;stroke:#fff;stroke-width:.529166;stroke-linecap:butt;stroke-linejoin:miter;stroke-miterlimit:4;stroke-dasharray:none;stroke-dashoffset:0;stroke-opacity:1;-inkscape-stroke:none;marker-end:url(#a);stop-color:#000;stop-opacity:1"/>
<path d="M79.09 147.593h17.79" color="#000" fill="none" marker-end="url(#marker7304-5)" stroke="red" stroke-width=".529" style="font-variation-settings:normal;opacity:1;isolation:auto;mix-blend-mode:normal;vector-effect:none;fill:none;fill-opacity:1;stroke:red;stroke-width:.529164;stroke-linecap:butt;stroke-linejoin:miter;stroke-miterlimit:4;stroke-dasharray:none;stroke-dashoffset:0;stroke-opacity:1;-inkscape-stroke:none;marker-end:url(#b);stop-color:#000;stop-opacity:1"/>
<path d="M76.153 138.87c0-.096-.08-.189-.192-.189-.1 0-.19.08-.19.19 0 .119.097.192.19.192a.19.19 0 0 0 .192-.193zm-.504.621v.12c.209 0 .239.02.239.183v.863c0 .143-.034.143-.25.143v.12c.007 0 .24-.014.373-.014.116 0 .235.003.352.014v-.12c-.193 0-.226 0-.226-.14v-1.205zM78.234 139.913c0-.289-.143-.458-.499-.458a.593.593 0 0 0-.541.322h-.003v-.322l-.489.036v.12c.223 0 .25.023.25.186v.86c0 .143-.034.143-.25.143v.12c.007 0 .24-.014.38-.014.122 0 .351.01.381.014v-.12c-.216 0-.25 0-.25-.143v-.598c0-.348.277-.511.496-.511.232 0 .262.183.262.352v.757c0 .143-.033.143-.249.143v.12c.007 0 .24-.014.379-.014.123 0 .352.01.382.014v-.12c-.216 0-.25 0-.25-.143zM84.868 152.594c0-.415-.356-.774-.814-.774-.458 0-.814.359-.814.774 0 .412.366.74.814.74.448 0 .814-.328.814-.74zm-.814.634a.487.487 0 0 1-.412-.202c-.09-.136-.1-.31-.1-.462 0-.143.004-.339.12-.481a.516.516 0 0 1 .392-.17c.196 0 .335.093.408.196.093.13.103.296.103.455 0 .16-.01.336-.106.472a.489.489 0 0 1-.405.192zM86.194 151.873v.12c.222 0 .249.023.249.186v.568c0 .292-.19.495-.442.495-.302 0-.315-.143-.315-.313v-1.092l-.512.036v.12c.25 0 .25.01.25.305v.499c0 .229 0 .538.554.538.073 0 .315 0 .475-.28h.003v.28l.498-.033v-.12c-.222 0-.249-.023-.249-.186v-1.16zM87.75 151.99h.518v-.12h-.518v-.611h-.113c-.003.299-.14.627-.458.637v.093h.309v.897c0 .372.279.449.465.449.222 0 .375-.19.375-.452v-.183h-.113v.18c0 .225-.106.348-.236.348-.229 0-.229-.279-.229-.338z" style="fill:red;stroke-width:.396875"/>
<g fill="red">
<path d="M81.8 149.601a.254.254 0 0 0-.508 0c0 .128.109.252.251.252a.254.254 0 0 0 .256-.252zM82.527 150.687a.354.354 0 0 0-.256.328c0 .104.08.218.237.218.166 0 .342-.138.342-.37 0-.252-.252-.418-.541-.418-.27 0-.446.204-.508.29-.119-.2-.384-.29-.655-.29-.598 0-.92.584-.92.74 0 .067.07.067.114.067.057 0 .09 0 .109-.062.137-.432.479-.574.673-.574.18 0 .266.085.266.237 0 .09-.066.351-.109.522l-.161.65c-.071.29-.242.432-.404.432-.023 0-.132 0-.227-.071a.354.354 0 0 0 .256-.328c0-.104-.08-.218-.237-.218-.166 0-.342.138-.342.37 0 .252.252.418.541.418.27 0 .446-.204.508-.29.118.2.384.29.654.29.598 0 .92-.584.92-.74 0-.067-.07-.067-.113-.067-.057 0-.09 0-.11.062-.137.432-.478.574-.673.574-.18 0-.266-.085-.266-.237 0-.1.062-.351.105-.527.033-.123.142-.57.166-.645.071-.285.237-.432.403-.432.024 0 .133 0 .228.071z"/>
</g>
<g fill="red">
<path d="M74.142 137.22a.254.254 0 0 0-.508 0 .254.254 0 0 0 .508 0zM74.87 138.305a.354.354 0 0 0-.257.328c0 .104.08.218.237.218.166 0 .342-.138.342-.37 0-.252-.252-.418-.541-.418-.27 0-.446.204-.508.29-.118-.2-.384-.29-.654-.29-.598 0-.92.584-.92.74 0 .067.07.067.113.067.057 0 .09 0 .11-.062.137-.432.478-.574.673-.574.18 0 .266.085.266.237 0 .09-.067.351-.11.522l-.16.65c-.072.29-.243.432-.404.432-.024 0-.133 0-.228-.071a.354.354 0 0 0 .256-.328c0-.104-.08-.218-.237-.218-.166 0-.342.138-.342.37 0 .252.252.418.541.418.27 0 .446-.204.508-.29.119.2.384.29.655.29.598 0 .92-.584.92-.74 0-.067-.07-.067-.114-.067-.057 0-.09 0-.109.062-.137.432-.479.574-.674.574-.18 0-.265-.085-.265-.237 0-.1.061-.351.104-.527.033-.123.142-.57.166-.645.071-.285.237-.432.404-.432.023 0 .132 0 .227.071z"/>
</g>
<g style="fill:red" color="#000">
<path d="M197.768 72.2c0-1.638-1.206-1.638-1.224-1.638-.72 0-1.368.756-1.368 1.368 0 .504.378.72.54.81.756.45.9.774.9 1.134 0 .396-1.044 4.338-3.15 4.338-1.296 0-1.296-1.08-1.296-1.404 0-1.044.504-2.358 1.08-3.798.144-.36.198-.522.198-.81 0-1.044-1.044-1.62-2.034-1.62-1.908 0-2.808 2.448-2.808 2.808 0 .252.27.252.432.252.216 0 .342 0 .414-.234.576-1.944 1.53-2.178 1.854-2.178.126 0 .306 0 .306.378 0 .414-.216.936-.27 1.08-.828 2.088-1.098 2.898-1.098 3.762 0 1.908 1.548 2.412 3.114 2.412 3.096 0 4.41-5.112 4.41-6.66zM206.816 77.455c.108-.276.312-.804 1.02-.816v-.396c-.396.036-.42.036-.936.036-.384 0-.708 0-1.092-.036v.396c.528.024.66.336.66.552 0 .144-.036.216-.06.3l-1.14 2.988-1.236-3.276c-.06-.156-.06-.192-.06-.24 0-.312.384-.324.672-.324v-.396c-.468.036-1.104.036-1.224.036-.264 0-.756 0-1.116-.036v.396c.732 0 .756.06.984.696l-1.104 2.964-1.188-3.108c-.012-.048-.06-.18-.06-.228 0-.324.456-.324.672-.324v-.396c-.516.036-1.056.036-1.284.036-.216 0-.828 0-1.176-.036v.396c.6 0 .72.048.852.384l1.608 4.224c.072.18.108.288.3.288.204 0 .252-.132.312-.288l1.272-3.372 1.272 3.372c.06.156.108.288.312.288.192 0 .24-.12.288-.252zM212.79 77.839c0-1.176-1.14-1.776-2.232-1.776-.996 0-1.884.384-1.884 1.176 0 .36.252.576.564.576.336 0 .564-.24.564-.564a.545.545 0 0 0-.444-.552c.444-.3 1.092-.3 1.176-.3.672 0 1.344.468 1.344 1.452v.372c-.696.036-1.5.072-2.34.42-1.056.456-1.26 1.152-1.26 1.548 0 1.032 1.212 1.344 2.04 1.344.876 0 1.416-.492 1.68-.972.06.456.372.912.9.912.12 0 1.14-.048 1.14-1.14v-.66h-.372v.66c0 .492-.18.684-.432.684-.444 0-.444-.552-.444-.684zm-.912 1.884c0 1.164-.984 1.476-1.464 1.476-.624 0-1.152-.42-1.152-.996 0-.792.744-1.608 2.616-1.668zM216.417 73.087l-1.788.132v.396c.816 0 .912.084.912.672v6.192c0 .54-.144.54-.912.54v.396c.468-.036 1.14-.036 1.344-.036.24 0 .888 0 1.356.036v-.396c-.768 0-.912 0-.912-.54zM219.959 73.087l-1.788.132v.396c.816 0 .912.084.912.672v6.192c0 .54-.144.54-.912.54v.396c.468-.036 1.14-.036 1.344-.036.24 0 .888 0 1.356.036v-.396c-.768 0-.912 0-.912-.54z" style="isolation:auto;mix-blend-mode:normal" transform="matrix(.26458 0 0 .26458 47.516 131.71)"/>
</g>
<g style="fill:#fff" color="#000">
<path d="M197.768 72.2c0-1.638-1.206-1.638-1.224-1.638-.72 0-1.368.756-1.368 1.368 0 .504.378.72.54.81.756.45.9.774.9 1.134 0 .396-1.044 4.338-3.15 4.338-1.296 0-1.296-1.08-1.296-1.404 0-1.044.504-2.358 1.08-3.798.144-.36.198-.522.198-.81 0-1.044-1.044-1.62-2.034-1.62-1.908 0-2.808 2.448-2.808 2.808 0 .252.27.252.432.252.216 0 .342 0 .414-.234.576-1.944 1.53-2.178 1.854-2.178.126 0 .306 0 .306.378 0 .414-.216.936-.27 1.08-.828 2.088-1.098 2.898-1.098 3.762 0 1.908 1.548 2.412 3.114 2.412 3.096 0 4.41-5.112 4.41-6.66zM206.816 77.455c.108-.276.312-.804 1.02-.816v-.396c-.396.036-.42.036-.936.036-.384 0-.708 0-1.092-.036v.396c.528.024.66.336.66.552 0 .144-.036.216-.06.3l-1.14 2.988-1.236-3.276c-.06-.156-.06-.192-.06-.24 0-.312.384-.324.672-.324v-.396c-.468.036-1.104.036-1.224.036-.264 0-.756 0-1.116-.036v.396c.732 0 .756.06.984.696l-1.104 2.964-1.188-3.108c-.012-.048-.06-.18-.06-.228 0-.324.456-.324.672-.324v-.396c-.516.036-1.056.036-1.284.036-.216 0-.828 0-1.176-.036v.396c.6 0 .72.048.852.384l1.608 4.224c.072.18.108.288.3.288.204 0 .252-.132.312-.288l1.272-3.372 1.272 3.372c.06.156.108.288.312.288.192 0 .24-.12.288-.252zM212.79 77.839c0-1.176-1.14-1.776-2.232-1.776-.996 0-1.884.384-1.884 1.176 0 .36.252.576.564.576.336 0 .564-.24.564-.564a.545.545 0 0 0-.444-.552c.444-.3 1.092-.3 1.176-.3.672 0 1.344.468 1.344 1.452v.372c-.696.036-1.5.072-2.34.42-1.056.456-1.26 1.152-1.26 1.548 0 1.032 1.212 1.344 2.04 1.344.876 0 1.416-.492 1.68-.972.06.456.372.912.9.912.12 0 1.14-.048 1.14-1.14v-.66h-.372v.66c0 .492-.18.684-.432.684-.444 0-.444-.552-.444-.684zm-.912 1.884c0 1.164-.984 1.476-1.464 1.476-.624 0-1.152-.42-1.152-.996 0-.792.744-1.608 2.616-1.668zM216.417 73.087l-1.788.132v.396c.816 0 .912.084.912.672v6.192c0 .54-.144.54-.912.54v.396c.468-.036 1.14-.036 1.344-.036.24 0 .888 0 1.356.036v-.396c-.768 0-.912 0-.912-.54zM219.959 73.087l-1.788.132v.396c.816 0 .912.084.912.672v6.192c0 .54-.144.54-.912.54v.396c.468-.036 1.14-.036 1.344-.036.24 0 .888 0 1.356.036v-.396c-.768 0-.912 0-.912-.54z" style="isolation:auto;mix-blend-mode:normal" transform="matrix(.26458 0 0 .26458 1.742 119.328)"/>
</g>
<circle transform="rotate(-26.402)" cx="3.601" cy="152.827" r="1.323" color="#000" fill="#5e5bff" style="stroke-width:.264583"/>
<circle transform="rotate(-26.402)" cx="5.211" cy="167.367" r="1.323" color="#000" fill="#5e5bff" style="stroke-width:.264583"/>
</g>
</svg>
