<svg width="202.105" height="132.29" viewBox="0 0 53.474 35.002" xml:space="preserve" xmlns="http://www.w3.org/2000/svg">
<defs>
<marker id="c" overflow="visible" orient="auto">
<path d="m-4 0-2 2 7-2-7-2Z" fill="#555" fill-rule="evenodd" stroke="#555" stroke-width=".4pt"/>
</marker>
<marker id="b" overflow="visible" orient="auto">
<path d="m-4 0-2 2 7-2-7-2Z" fill="#fff" fill-rule="evenodd" stroke="#fff" stroke-width=".4pt"/>
</marker>
<marker id="a" overflow="visible" orient="auto">
<path d="m-10 0-4 4L0 0l-14-4Z" fill-rule="evenodd" stroke="#000" stroke-width=".8pt"/>
</marker>
</defs>
<g transform="translate(-120.475 -214.934)">
<path d="m131.452 234.51 15.12-11.036" color="#000" fill="none" marker-end="url(#Arrow1Lend-22)" stroke="#000" stroke-dasharray="2, 2" stroke-width=".132" style="font-variation-settings:normal;opacity:1;isolation:auto;mix-blend-mode:normal;vector-effect:none;fill:none;fill-opacity:1;stroke:#000;stroke-width:.132292;stroke-linecap:butt;stroke-linejoin:miter;stroke-miterlimit:4;stroke-dasharray:.529166,.529166;stroke-dashoffset:0;stroke-opacity:1;-inkscape-stroke:none;marker-end:url(#a);shape-rendering:auto;stop-color:#000;stop-opacity:1"/>
<path d="m169.4 242.292-19.075-18.631" color="#000" fill="none" marker-end="url(#Arrow1Lend-22)" stroke="#000" stroke-dasharray="2, 2" stroke-width=".132" style="font-variation-settings:normal;opacity:1;isolation:auto;mix-blend-mode:normal;vector-effect:none;fill:none;fill-opacity:1;stroke:#000;stroke-width:.132292;stroke-linecap:butt;stroke-linejoin:miter;stroke-miterlimit:4;stroke-dasharray:.529166,.529166;stroke-dashoffset:0;stroke-opacity:1;-inkscape-stroke:none;marker-end:url(#a);shape-rendering:auto;stop-color:#000;stop-opacity:1"/>
<path transform="rotate(90)" color="#000" fill="#8b8b8b" style="isolation:auto;mix-blend-mode:normal;stroke-width:.264583;shape-rendering:auto" d="M239.557-136.8h10.379v16.325h-10.379z"/>
<path d="M136.8 239.557v10.379" color="#000" fill="none" stroke="#3d3d3d" stroke-width="1.323" style="isolation:auto;mix-blend-mode:normal;shape-rendering:auto"/>
<circle cx="169.401" cy="242.302" r="2.607" color="#000" fill="#f44" style="isolation:auto;mix-blend-mode:normal;stroke-width:.264583;shape-rendering:auto"/>
<path d="M169.401 245.389a4.547 4.547 0 0 0-4.546 4.547h9.093a4.547 4.547 0 0 0-4.547-4.547z" color="#000" fill="#f44" style="isolation:auto;mix-blend-mode:normal;stroke-width:.264583;shape-rendering:auto"/>
<circle cx="131.427" cy="234.521" r="1.719" color="#000" fill="#44f" style="isolation:auto;mix-blend-mode:normal;stroke-width:.264583;shape-rendering:auto"/>
<path d="M131.427 236.557a3 3 0 0 0-3 3h6a3 3 0 0 0-3-3z" color="#000" fill="#44f" style="isolation:auto;mix-blend-mode:normal;stroke-width:.264583;shape-rendering:auto"/>
<g stroke-width="1.5">
<path d="M162.207 243.336c-.005-.015-.024-.053-.024-.067 0-.005.005-.01.086-.072l.462-.362c.638-.495.848-.662 1.176-.69.033-.005.081-.005.081-.086 0-.028-.014-.052-.052-.052-.053 0-.11.01-.162.01h-.181c-.148 0-.305-.01-.448-.01-.033 0-.09 0-.09.086 0 .047.033.052.062.052.052.005.114.024.114.09 0 .096-.143.21-.181.239l-1.867 1.452.395-1.572c.043-.161.053-.21.39-.21.091 0 .134 0 .134-.09 0-.047-.047-.047-.071-.047-.086 0-.186.01-.277.01h-.562c-.085 0-.19-.01-.276-.01-.038 0-.09 0-.09.09 0 .048.043.048.114.048.29 0 .29.038.29.09 0 .01 0 .039-.018.11l-.643 2.562c-.043.167-.053.214-.386.214-.09 0-.138 0-.138.086 0 .053.043.053.071.053.09 0 .186-.01.276-.01h.558c.09 0 .19.01.28.01.039 0 .091 0 .091-.09 0-.049-.043-.049-.114-.049-.29 0-.29-.038-.29-.085 0-.034.028-.153.047-.229l.186-.738.724-.567c.138.305.39.915.585 1.381a.197.197 0 0 1 .024.09c0 .144-.19.148-.233.148-.043 0-.09 0-.09.091 0 .048.052.048.066.048.167 0 .343-.01.51-.01h.228c.072 0 .153.01.224.01.029 0 .08 0 .08-.09 0-.049-.042-.049-.09-.049-.176-.004-.238-.042-.31-.214z" fill="red"/>
<path d="M125.13 234.177c-.004-.015-.023-.053-.023-.067 0-.005.005-.01.086-.071l.462-.362c.638-.496.847-.662 1.176-.69.033-.006.08-.006.08-.087 0-.028-.013-.052-.052-.052-.052 0-.11.01-.161.01h-.181c-.148 0-.305-.01-.448-.01-.033 0-.09 0-.09.086 0 .047.033.052.061.052.053.005.115.024.115.09 0 .096-.143.21-.181.239l-1.867 1.452.395-1.571c.043-.162.052-.21.39-.21.091 0 .134 0 .134-.09 0-.048-.048-.048-.072-.048-.085 0-.185.01-.276.01h-.562c-.085 0-.19-.01-.276-.01-.038 0-.09 0-.09.09 0 .048.042.048.114.048.29 0 .29.038.29.09 0 .01 0 .039-.019.11l-.643 2.562c-.043.167-.052.215-.385.215-.09 0-.139 0-.139.085 0 .053.043.053.072.053.09 0 .186-.01.276-.01h.557c.09 0 .19.01.281.01.038 0 .09 0 .09-.09 0-.048-.042-.048-.113-.048-.291 0-.291-.038-.291-.086 0-.033.029-.152.048-.229l.185-.738.724-.567c.138.305.39.915.586 1.382a.197.197 0 0 1 .024.09c0 .143-.19.148-.233.148-.043 0-.091 0-.091.09 0 .048.052.048.067.048.166 0 .343-.01.51-.01h.228c.071 0 .152.01.224.01.028 0 .08 0 .08-.09 0-.048-.042-.048-.09-.048-.176-.005-.238-.043-.31-.215zM127.9 232.63c.016-.042.029-.064.029-.096 0-.105-.096-.174-.185-.174-.127 0-.161.11-.174.155l-.403 1.369c-.013.038-.013.047-.013.05 0 .029.019.035.05.045.058.025.064.025.07.025.01 0 .03 0 .051-.054z" fill="#00f"/>
</g>
<path d="M125.255 244.746h8.931" color="#000" marker-end="url(#b)" stroke="#fff" stroke-width=".529" style="isolation:auto;mix-blend-mode:normal;fill:none"/>
<path d="M148.555 231.52c-.602-3.41-.836-6.782.052-9.538 1.233-3.83 4.631-6.47 12.211-6.368" color="#000" stroke="#555" stroke-width=".132" style="isolation:auto;mix-blend-mode:normal;fill:none"/>
<path d="m148.607 221.982 2.417-6.559" marker-end="url(#c)" stroke="#555" style="fill:none;stroke-width:.264583;marker-end:url(#c)"/>
<circle transform="rotate(-37.318)" cx="-16.39" cy="266.629" r="1.323" color="#000" fill="#5e5bff" style="stroke-width:.264583"/>
<path d="M130.67 222.758a.23.23 0 0 0 .03-.106c0-.103-.092-.183-.195-.183-.127 0-.166.103-.183.157l-.438 1.438a.585.585 0 0 0-.017.053c0 .04.103.073.13.073.023 0 .026-.007.05-.057zM156.823 228.581c-.015.072-.043.18-.043.204 0 .086.066.128.138.128a.194.194 0 0 0 .175-.132c.005-.01.062-.233.09-.352l.105-.427a6.22 6.22 0 0 0 .08-.317c.02-.081.057-.219.062-.238.071-.147.323-.579.773-.579.214 0 .257.176.257.333 0 .118-.034.251-.072.393l-.132.55-.095.361c-.02.095-.062.257-.062.28 0 .086.066.128.138.128.147 0 .175-.118.213-.27.066-.266.242-.958.285-1.143.014-.062.265-.632.783-.632.204 0 .256.162.256.333 0 .27-.2.811-.294 1.062a.647.647 0 0 0-.062.261c0 .223.166.39.39.39.445 0 .62-.693.62-.731 0-.048-.042-.048-.056-.048-.048 0-.048.015-.071.086-.072.251-.223.588-.484.588-.081 0-.114-.047-.114-.156 0-.12.042-.233.085-.337.09-.247.29-.774.29-1.044 0-.309-.19-.508-.546-.508-.356 0-.598.209-.774.46a.477.477 0 0 0-.151-.337.6.6 0 0 0-.39-.123c-.426 0-.659.304-.74.413a.428.428 0 0 0-.436-.413c-.218 0-.309.185-.351.27a2.067 2.067 0 0 0-.147.46c0 .048.047.048.057.048.047 0 .052-.005.08-.109.081-.337.176-.565.347-.565.076 0 .147.038.147.219 0 .1-.014.152-.076.398zM161.896 225.859a.24.24 0 0 0-.237-.238.235.235 0 0 0-.237.238c0 .132.104.237.237.237a.24.24 0 0 0 .237-.237zm.916 0a.235.235 0 0 0-.237-.238.24.24 0 0 0-.237.238.24.24 0 0 0 .237.237.235.235 0 0 0 .237-.237zM163.099 226.959a.354.354 0 0 0-.256.327c0 .104.08.218.237.218.166 0 .341-.137.341-.37 0-.251-.251-.417-.54-.417-.27 0-.446.204-.508.29-.119-.2-.384-.29-.655-.29-.598 0-.92.583-.92.74 0 .066.07.066.114.066.056 0 .09 0 .109-.061.137-.432.479-.575.673-.575.18 0 .266.086.266.238 0 .09-.066.35-.109.522l-.161.65c-.072.29-.242.431-.404.431-.023 0-.133 0-.227-.07a.354.354 0 0 0 .256-.328c0-.105-.08-.218-.237-.218-.166 0-.342.137-.342.37 0 .251.251.417.54.417.271 0 .447-.204.509-.29.118.2.384.29.654.29.598 0 .92-.583.92-.74 0-.066-.07-.066-.113-.066-.057 0-.09 0-.11.061-.137.432-.478.574-.673.574-.18 0-.266-.085-.266-.237 0-.1.062-.35.105-.526.033-.124.142-.57.166-.646.07-.284.237-.432.403-.432.024 0 .133 0 .228.072zM122.848 226.108c-.015.07-.043.18-.043.204 0 .085.066.128.137.128a.194.194 0 0 0 .176-.133c.005-.01.062-.232.09-.351l.104-.427a6.22 6.22 0 0 0 .081-.318l.062-.237c.071-.147.322-.58.773-.58.214 0 .256.176.256.333 0 .119-.033.252-.07.394l-.134.55-.094.36c-.02.096-.062.257-.062.28 0 .086.066.129.137.129.148 0 .176-.119.214-.27.066-.266.242-.959.285-1.144.014-.062.265-.631.783-.631.204 0 .256.161.256.332 0 .27-.2.811-.294 1.063a.647.647 0 0 0-.062.26c0 .224.166.39.389.39.446 0 .621-.693.621-.73 0-.048-.042-.048-.056-.048-.048 0-.048.014-.072.085-.07.252-.223.588-.484.588-.08 0-.113-.047-.113-.156 0-.119.042-.233.085-.337.09-.247.29-.773.29-1.044 0-.308-.19-.507-.546-.507-.356 0-.598.208-.774.46a.477.477 0 0 0-.151-.337.6.6 0 0 0-.39-.123c-.427 0-.66.303-.74.412a.428.428 0 0 0-.436-.412c-.218 0-.309.185-.351.27a2.067 2.067 0 0 0-.147.46c0 .048.047.048.057.048.047 0 .052-.005.08-.11.08-.336.176-.564.347-.564.075 0 .147.038.147.218 0 .1-.015.152-.076.399zM127.921 223.385a.24.24 0 0 0-.237-.237.235.235 0 0 0-.237.237c0 .133.104.237.237.237a.24.24 0 0 0 .237-.237zm.916 0a.235.235 0 0 0-.237-.237.24.24 0 0 0-.238.237.24.24 0 0 0 .238.237.235.235 0 0 0 .237-.237zM129.124 224.485a.354.354 0 0 0-.257.327c0 .105.081.219.238.219.166 0 .341-.138.341-.37 0-.252-.251-.418-.54-.418-.271 0-.447.204-.508.29-.119-.2-.385-.29-.655-.29-.598 0-.92.584-.92.74 0 .067.07.067.113.067.057 0 .09 0 .11-.062.137-.432.479-.574.673-.574.18 0 .266.085.266.237 0 .09-.066.351-.11.522l-.16.65c-.072.29-.242.432-.404.432-.024 0-.133 0-.228-.071a.354.354 0 0 0 .257-.328c0-.104-.081-.218-.238-.218-.166 0-.341.138-.341.37 0 .252.251.418.54.418.271 0 .447-.204.508-.29.119.2.385.29.655.29.598 0 .92-.584.92-.74 0-.067-.07-.067-.113-.067-.057 0-.09 0-.11.062-.137.431-.479.574-.673.574-.18 0-.266-.086-.266-.237 0-.1.062-.352.105-.527.033-.123.142-.57.166-.645.07-.285.237-.432.403-.432.024 0 .133 0 .228.071zM168.26 227.31c.071 0 .162 0 .162-.095s-.09-.095-.157-.095h-2.842c-.066 0-.157 0-.157.095s.09.095.162.095zm.005.92c.066 0 .157 0 .157-.095s-.09-.095-.162-.095h-2.832c-.071 0-.162 0-.162.095s.09.095.157.095zM172.03 226.978h.555c.09 0 .176 0 .176-.138 0-.085-.08-.085-.161-.085h-.532l.157-.86c.014-.085.014-.094.062-.137.061-.057.113-.057.137-.057.067 0 .11.01.166.034a.36.36 0 0 0-.2.308c0 .142.115.218.233.218.195 0 .342-.17.342-.35 0-.243-.247-.38-.54-.38a.755.755 0 0 0-.656.355c-.109.176-.137.361-.227.869h-.465c-.09 0-.171 0-.171.137 0 .086.08.086.156.086h.437l-.36 2.02c-.01.044-.062.343-.086.409-.01.024-.085.242-.237.242a.357.357 0 0 1-.162-.028.362.362 0 0 0 .21-.314c0-.142-.115-.218-.233-.218a.351.351 0 0 0-.342.351c0 .256.27.38.517.38.356 0 .603-.351.64-.413.205-.313.314-.916.328-.996zM135.616 224.836c.071 0 .162 0 .162-.095s-.09-.095-.157-.095h-2.842c-.066 0-.157 0-.157.095s.09.095.162.095zm.005.92c.066 0 .157 0 .157-.094 0-.095-.09-.095-.162-.095h-2.832c-.071 0-.162 0-.162.095s.09.095.157.095zM139.386 224.504h.555c.09 0 .176 0 .176-.137 0-.086-.08-.086-.161-.086h-.532l.157-.859c.014-.085.014-.095.062-.137.061-.057.113-.057.137-.057.067 0 .11.01.166.033a.36.36 0 0 0-.2.308c0 .143.115.219.233.219.195 0 .342-.171.342-.351 0-.242-.247-.38-.54-.38a.755.755 0 0 0-.656.356c-.109.175-.137.36-.227.868h-.465c-.09 0-.171 0-.171.138 0 .085.08.085.156.085h.437l-.36 2.021c-.01.043-.062.342-.086.408-.01.024-.085.242-.237.242a.357.357 0 0 1-.162-.028.362.362 0 0 0 .21-.313c0-.143-.115-.218-.233-.218a.351.351 0 0 0-.342.35c0 .257.27.38.517.38.356 0 .603-.35.64-.413.205-.313.314-.915.328-.996z"/>
</g>
</svg>
