<svg width="214.962" height="78.822" xmlns="http://www.w3.org/2000/svg" xmlns:xlink="http://www.w3.org/1999/xlink">
<defs>
<symbol id="a">
<path d="M20.029 34.32c-.054.269-.162.681-.162.771 0 .323.251.484.52.484a.733.733 0 0 0 .664-.502c.018-.036.233-.879.34-1.327l.395-1.614c.108-.394.215-.789.305-1.201.071-.305.215-.825.233-.897.269-.556 1.22-2.188 2.923-2.188.807 0 .968.664.968 1.256 0 .448-.125.95-.269 1.488l-.502 2.08-.358 1.363c-.072.359-.234.968-.234 1.058 0 .323.251.484.52.484.556 0 .664-.448.807-1.022.252-1.004.915-3.622 1.076-4.322.054-.233 1.005-2.385 2.96-2.385.77 0 .968.61.968 1.256 0 1.022-.753 3.066-1.112 4.017-.162.43-.233.627-.233.986 0 .843.627 1.47 1.47 1.47 1.686 0 2.35-2.618 2.35-2.761 0-.18-.162-.18-.216-.18-.18 0-.18.054-.269.323-.269.95-.843 2.224-1.829 2.224-.305 0-.43-.18-.43-.592 0-.448.161-.879.322-1.273.341-.933 1.094-2.923 1.094-3.945 0-1.166-.717-1.92-2.062-1.92-1.345 0-2.26.79-2.923 1.74-.018-.233-.072-.843-.574-1.273-.448-.377-1.022-.466-1.47-.466-1.614 0-2.493 1.147-2.798 1.56-.09-1.022-.843-1.56-1.65-1.56-.824 0-1.165.7-1.327 1.022-.322.628-.556 1.686-.556 1.74 0 .179.18.179.216.179.179 0 .197-.018.305-.413.304-1.273.663-2.134 1.309-2.134.287 0 .556.144.556.825 0 .377-.054.574-.287 1.507z" stroke-linejoin="round" stroke-miterlimit="100000" stroke-width="1.5"/>
</symbol>
<symbol id="b">
<path d="M111.671 3.133c0-.339-.025-.351-.377-.351-.803.79-1.945.803-2.46.803v.452c.301 0 1.13 0 1.82-.352v6.402c0 .415 0 .578-1.255.578h-.477v.452c.226-.012 1.77-.05 2.234-.05.39 0 1.971.037 2.247.05v-.452h-.477c-1.255 0-1.255-.163-1.255-.578z" stroke-linejoin="round" stroke-miterlimit="100000" stroke-width="1.5"/>
</symbol>
<symbol id="c">
<path d="M75.148 8.832h-.426c-.038.276-.164 1.017-.327 1.142-.1.076-1.067.076-1.243.076h-2.31c1.319-1.168 1.758-1.52 2.511-2.11.93-.74 1.795-1.518 1.795-2.71 0-1.52-1.33-2.449-2.937-2.449-1.557 0-2.611 1.093-2.611 2.247 0 .64.54.703.665.703.302 0 .666-.213.666-.665 0-.226-.088-.665-.741-.665.39-.891 1.243-1.168 1.833-1.168 1.255 0 1.908.98 1.908 1.996 0 1.092-.779 1.959-1.18 2.41l-3.026 2.988c-.125.113-.125.138-.125.49h5.172z" stroke-linejoin="round" stroke-miterlimit="100000" stroke-width="1.5"/>
</symbol>
<symbol id="d">
<path d="M29.917 68.441a1.34 1.34 0 0 0-.969 1.237c0 .395.305.825.897.825.628 0 1.291-.52 1.291-1.398 0-.95-.95-1.579-2.044-1.579-1.022 0-1.686.772-1.92 1.094-.447-.753-1.452-1.094-2.474-1.094-2.26 0-3.479 2.206-3.479 2.798 0 .251.27.251.43.251.216 0 .341 0 .413-.233.52-1.632 1.811-2.17 2.546-2.17.682 0 1.005.323 1.005.897 0 .34-.251 1.327-.413 1.972l-.61 2.457c-.268 1.094-.914 1.632-1.524 1.632-.09 0-.502 0-.86-.27a1.34 1.34 0 0 0 .968-1.236c0-.395-.305-.825-.897-.825-.627 0-1.29.52-1.29 1.398 0 .95.95 1.578 2.043 1.578 1.023 0 1.686-.77 1.92-1.093.448.753 1.452 1.093 2.474 1.093 2.26 0 3.479-2.205 3.479-2.797 0-.251-.27-.251-.43-.251-.216 0-.341 0-.413.233-.52 1.632-1.811 2.17-2.546 2.17-.682 0-1.005-.323-1.005-.897 0-.376.234-1.327.395-1.99.125-.467.538-2.152.628-2.44.269-1.075.896-1.631 1.524-1.631.09 0 .502 0 .86.269z" stroke-linejoin="round" stroke-miterlimit="100000" stroke-width="1.5"/>
</symbol>
</defs>
<path d="M29.523 32.76h164" color="#000" fill="none" stroke="#000" stroke-dasharray="4, 4" style="isolation:auto;mix-blend-mode:normal"/>
<path d="M84.19 24.26v17" color="#000" fill="none" stroke="#000" stroke-width="3" style="isolation:auto;mix-blend-mode:normal"/>
<path d="M85.278 1.648c0-.52-.43-.95-.95-.95s-.95.43-.95.95.43.95.95.95.95-.43.95-.95zm0 5.828c0-.52-.43-.95-.95-.95s-.95.43-.95.95.43.95.95.95.95-.43.95-.95z"/>
<circle cx="29.523" cy="32.76" r="28.023" color="#000" fill="#dcdcdc" stroke="#555" stroke-width="2" style="font-variant-east_asian:normal;isolation:auto;mix-blend-mode:normal"/>
<path d="M213.462 32.26a19.94 19.94 0 0 1-19.94 19.94 19.94 19.94 0 0 1-19.938-19.94 19.94 19.94 0 0 1 19.939-19.94 19.94 19.94 0 0 1 19.939 19.94z" color="#000" fill="#dcdcdc" stroke="#555" stroke-width="2" style="font-variant-east_asian:normal;isolation:auto;mix-blend-mode:normal"/>
<path d="M88.409 55.56c.2.12.682.415 1.459.415 1.38 0 2.383-.924 2.383-1.968 0-.522-.24-.938-.562-1.286.603-.428 1.125-.442 1.352-.442-.053.054-.12.108-.12.322 0 .268.2.428.428.428a.424.424 0 0 0 .429-.442c0-.308-.255-.682-.79-.682-.201 0-.924.04-1.553.616-.402-.295-.964-.483-1.554-.483-1.379 0-2.383.924-2.383 1.969 0 .522.268 1.004.643 1.352-.107.12-.402.563-.402 1.085 0 .174.04.803.562 1.191-.602.201-1.298.643-1.298 1.34 0 .977 1.472 1.713 3.28 1.713 1.7 0 3.28-.67 3.28-1.74 0-.402-.16-1.125-.897-1.527-.79-.415-1.58-.415-2.878-.415-.295 0-.777 0-.884-.013-.429-.094-.67-.495-.67-.883 0-.335.094-.442.175-.55zm1.472.013c-1.312 0-1.312-1.286-1.312-1.567 0-.214 0-.75.268-1.098a1.345 1.345 0 0 1 1.031-.468c1.312 0 1.312 1.285 1.312 1.566 0 .214 0 .75-.268 1.098a1.345 1.345 0 0 1-1.03.469zm0 2.33c1.192 0 2.866 0 2.866 1.057 0 .71-1.058 1.326-2.464 1.326s-2.464-.63-2.464-1.326c0-.468.429-1.044 1.286-1.057z" fill="red"/>
<use width="100%" height="100%" xlink:href="#a"/>
<use transform="translate(34.672 -26.951)" width="100%" height="100%" xlink:href="#a"/>
<use transform="translate(73.328 -26.951)" width="100%" height="100%" xlink:href="#a"/>
<use transform="translate(163.799 -.5)" width="100%" height="100%" xlink:href="#a"/>
<use width="100%" height="100%" xlink:href="#b"/>
<use transform="translate(-73.328 26.951)" width="100%" height="100%" xlink:href="#b"/>
<use transform="translate(-75.344 67.205)" width="100%" height="100%" xlink:href="#b"/>
<use width="100%" height="100%" xlink:href="#c"/>
<use transform="translate(129.128 26.451)" width="100%" height="100%" xlink:href="#c"/>
<use transform="translate(127.113 59.205)" width="100%" height="100%" xlink:href="#c"/>
<use width="100%" height="100%" xlink:href="#d"/>
<use transform="translate(163.798 -8)" width="100%" height="100%" xlink:href="#d"/>
<use transform="translate(52.55 -24.77) scale(1.05458)" width="100%" height="100%" fill="red" stroke-width=".948" xlink:href="#d"/>
</svg>
