<svg width="181.295" height="117.289" viewBox="0 0 181.295 117.288" xmlns="http://www.w3.org/2000/svg" xmlns:xlink="http://www.w3.org/1999/xlink">
<defs>
<symbol id="a">
<path d="M46.295 74.516a1.34 1.34 0 0 0-.968 1.237c0 .395.304.825.896.825.628 0 1.291-.52 1.291-1.398 0-.95-.95-1.579-2.044-1.579-1.022 0-1.686.772-1.919 1.094-.448-.753-1.452-1.094-2.474-1.094-2.26 0-3.48 2.206-3.48 2.798 0 .251.27.251.431.251.215 0 .34 0 .412-.233.52-1.632 1.812-2.17 2.547-2.17.681 0 1.004.323 1.004.897 0 .34-.25 1.327-.412 1.972l-.61 2.457c-.269 1.094-.915 1.632-1.524 1.632-.09 0-.502 0-.861-.27a1.34 1.34 0 0 0 .968-1.236c0-.395-.305-.825-.896-.825-.628 0-1.292.52-1.292 1.398 0 .95.95 1.578 2.045 1.578 1.022 0 1.686-.77 1.919-1.093.448.753 1.452 1.093 2.474 1.093 2.26 0 3.48-2.205 3.48-2.797 0-.251-.27-.251-.431-.251-.215 0-.34 0-.413.233-.52 1.632-1.81 2.17-2.546 2.17-.681 0-1.004-.323-1.004-.897 0-.376.233-1.327.394-1.99.126-.467.538-2.152.628-2.44.269-1.075.897-1.631 1.524-1.631.09 0 .502 0 .861.269z" stroke-width="1.5"/>
</symbol>
<symbol id="b">
<path d="M157.695 49.967h-.427c-.037.276-.163 1.017-.326 1.142-.1.076-1.067.076-1.243.076h-2.31c1.318-1.168 1.758-1.52 2.51-2.11.93-.74 1.796-1.518 1.796-2.71 0-1.52-1.33-2.449-2.937-2.449-1.557 0-2.611 1.093-2.611 2.247 0 .64.54.703.665.703.301 0 .665-.213.665-.665 0-.226-.088-.665-.74-.665.389-.891 1.242-1.168 1.832-1.168 1.256 0 1.908.98 1.908 1.996 0 1.092-.778 1.959-1.18 2.41l-3.025 2.988c-.125.113-.125.138-.125.49h5.171z" stroke-width="1.5"/>
</symbol>
<symbol id="c">
<path d="M52.705 76.413c0-.339-.025-.351-.376-.351-.804.79-1.946.803-2.46.803v.452c.3 0 1.13 0 1.82-.352v6.402c0 .415 0 .578-1.256.578h-.477v.452c.226-.012 1.77-.05 2.235-.05.389 0 1.97.037 2.247.05v-.452h-.477c-1.256 0-1.256-.163-1.256-.578z" stroke-width="1.5"/>
</symbol>
<marker id="d" overflow="visible" orient="auto">
<path d="m-4 0-2 2 7-2-7-2z" fill="red" fill-rule="evenodd" stroke="red" stroke-width=".4pt"/>
</marker>
</defs>
<circle cx="133.425" cy="38" r="36.5" color="#000" fill="#dcdcdc" stroke="#555" stroke-width="2" style="isolation:auto;mix-blend-mode:normal"/>
<circle cx="51.5" cy="65.789" r="50" color="#000" fill="#ffdcdc" stroke="red" stroke-linejoin="round" stroke-miterlimit="100000" stroke-width="2" style="isolation:auto;mix-blend-mode:normal"/>
<use transform="translate(87.322 -18.897)" width="100%" height="100%" xlink:href="#a"/>
<use transform="translate(-15.532 13.248)" width="100%" height="100%" xlink:href="#b"/>
<use transform="translate(5.599 22.392)" width="100%" height="100%" xlink:href="#a"/>
<use transform="translate(5.599 22.392)" width="100%" height="100%" xlink:href="#c"/>
<path d="M17.553 47.87c.785 2.009 1.703 4.935 2.009 5.375.306.421.497.421 1.014.421h.42c.192-.019.21-.134.21-.191 0-.057-.037-.096-.095-.172-.191-.21-.306-.497-.44-.88L16.77 41.539c-.402-1.11-1.435-1.358-2.334-1.358-.095 0-.344 0-.344.21 0 .153.153.192.172.192.631.114.765.23 1.243 1.53l1.856 5.203-5.28 5.24c-.229.23-.344.345-.344.594a.56.56 0 0 0 .574.555c.306 0 .478-.21.631-.402zM26.327 47.808c0-.361-.026-.375-.401-.375-.857.844-2.076.857-2.625.857v.482c.322 0 1.205 0 1.942-.374v6.828c0 .442 0 .616-1.34.616h-.508v.482a98.47 98.47 0 0 1 2.383-.053c.415 0 2.103.04 2.397.053v-.482h-.509c-1.339 0-1.339-.174-1.339-.616z"/>
<g fill="red" stroke-linejoin="round" stroke-miterlimit="100000" stroke-width="1.333">
<path d="M45.342 40.812a.644.644 0 0 0 .096-.268c0-.134-.02-.153-.46-.153H31.78c-.44 0-.459.019-.459.153 0 .076.058.21.096.268l6.446 12.911c.134.249.192.364.517.364s.382-.115.516-.364zm-11.649.956h10.502l-5.242 10.52zM50.79 47.808c0-.361-.027-.375-.402-.375-.857.844-2.076.857-2.625.857v.482c.322 0 1.205 0 1.942-.374v6.828c0 .442 0 .616-1.34.616h-.508v.482a98.47 98.47 0 0 1 2.383-.053c.415 0 2.103.04 2.397.053v-.482h-.509c-1.339 0-1.339-.174-1.339-.616zM69.422 40.161a.193.193 0 0 0-.21-.191c-.058 0-.077.019-.287.23l-1.339 1.472c-.172-.267-1.052-1.702-3.175-1.702-4.266 0-8.57 4.227-8.57 8.665 0 3.041 2.123 5.241 5.222 5.241.842 0 1.703-.172 2.391-.459.957-.382 1.32-.784 1.664-1.167.173.478.67 1.186.861 1.186.096 0 .134-.057.134-.076.038-.039.23-.765.325-1.167l.364-1.473c.076-.325.172-.65.248-.976.21-.86.23-.899 1.32-.918.096 0 .306-.019.306-.382 0-.134-.095-.21-.248-.21-.44 0-1.569.057-2.009.057-.593 0-2.085-.058-2.678-.058-.172 0-.401 0-.401.383 0 .21.153.21.573.21.02 0 .574 0 1.014.039.498.057.593.114.593.363 0 .172-.21 1.033-.402 1.74-.535 2.105-3.022 2.315-3.691 2.315-1.837 0-3.845-1.09-3.845-4.017 0-.593.191-3.749 2.2-6.236 1.033-1.3 2.888-2.467 4.782-2.467 1.95 0 3.08 1.473 3.08 3.692 0 .765-.058.784-.058.975s.21.192.287.192c.249 0 .249-.039.344-.383z"/>
</g>
<path d="M98.863 49.723 23.22 75.382" color="#000" fill="none" marker-end="url(#d)" stroke="red" stroke-linejoin="round" stroke-miterlimit="100000" stroke-width="3" style="isolation:auto;mix-blend-mode:normal"/>
</svg>
