<svg width="222.58" height="138.02" xmlns="http://www.w3.org/2000/svg" xmlns:xlink="http://www.w3.org/1999/xlink">
<defs>
<symbol id="d">
<path d="M33.066 52.104c0-.362-.027-.375-.401-.375-.857.844-2.076.857-2.625.857v.482c.322 0 1.205 0 1.942-.375v6.829c0 .442 0 .616-1.34.616h-.508v.482c.241-.013 1.888-.054 2.383-.054.415 0 2.103.04 2.397.054v-.482h-.509c-1.339 0-1.339-.174-1.339-.616z" fill="red" stroke-linejoin="round" stroke-miterlimit="100000"/>
</symbol>
<symbol id="e">
<path d="M190.282 28.012h-.455c-.04.295-.174 1.085-.348 1.218-.107.08-1.139.08-1.326.08h-2.464c1.406-1.244 1.875-1.62 2.678-2.249.991-.79 1.915-1.62 1.915-2.892 0-1.62-1.42-2.61-3.133-2.61-1.66 0-2.785 1.164-2.785 2.396 0 .683.575.75.71.75.32 0 .709-.228.709-.71 0-.241-.094-.71-.79-.71.415-.95 1.326-1.245 1.955-1.245 1.339 0 2.035 1.045 2.035 2.13 0 1.164-.83 2.088-1.258 2.57l-3.227 3.187c-.134.12-.134.147-.134.522h5.516z" fill="#00f" stroke-linejoin="round" stroke-miterlimit="100000"/>
</symbol>
<symbol id="f">
<path d="M193.942 30.235c0 .736-.134 1.593-1.044 2.45-.054.054-.094.094-.094.161 0 .094.107.187.187.187.188 0 1.326-1.07 1.326-2.664 0-.83-.322-1.46-.938-1.46a.754.754 0 0 0-.763.764c0 .428.308.776.777.776.321 0 .535-.214.549-.214zM198.467 22.188a.774.774 0 0 0-.777-.763.763.763 0 0 0-.763.763c0 .482.388.777.763.777a.769.769 0 0 0 .777-.777zm-2.035 2.504v.482c.843 0 .964.08.964.736v3.482c0 .575-.134.575-1.004.575v.483c.027 0 .964-.054 1.5-.054.468 0 .95.013 1.419.054v-.483c-.777 0-.911 0-.911-.562v-4.86zM206.853 26.392c0-1.165-.576-1.848-2.009-1.848-1.097 0-1.807.603-2.182 1.299h-.013v-1.299l-1.968.148v.482c.897 0 1.004.093 1.004.75v3.467c0 .576-.134.576-1.004.576v.482c.027 0 .964-.053 1.526-.053.496 0 1.42.04 1.54.053v-.482c-.87 0-1.004 0-1.004-.576v-2.41c0-1.406 1.111-2.062 1.995-2.062.937 0 1.058.737 1.058 1.42v3.052c0 .576-.134.576-1.005.576v.482c.027 0 .964-.053 1.527-.053.495 0 1.42.04 1.54.053v-.482c-.87 0-1.005 0-1.005-.576zM212.196 20.632c0 .306 0 .708.402.708.42 0 .42-.383.42-.708V9.767c0-.306 0-.708-.401-.708-.421 0-.421.383-.421.708z" stroke-linejoin="round" stroke-miterlimit="100000"/>
<path d="M212.196 32.109c0 .306 0 .708.402.708.42 0 .42-.383.42-.708V21.244c0-.306 0-.708-.401-.708-.421 0-.421.383-.421.708z" stroke-linejoin="round" stroke-miterlimit="100000"/>
</symbol>
<symbol id="g">
<path d="M158.212 21.206c0-3.003-1.779-3.94-3.194-3.94-2.621 0-5.146 2.735-5.146 5.432 0 1.779 1.148 3.233 3.099 3.233 1.205 0 2.582-.44 4.036-1.607.249 1.014.88 1.607 1.74 1.607 1.014 0 1.607-1.052 1.607-1.358 0-.134-.114-.192-.23-.192-.133 0-.19.058-.248.192-.344.937-1.033.937-1.071.937-.593 0-.593-1.492-.593-1.951 0-.402 0-.44.191-.67 1.798-2.257 2.2-4.476 2.2-4.495 0-.038-.019-.191-.23-.191-.19 0-.19.057-.286.402-.345 1.205-.976 2.658-1.875 3.787zm-1.282 2.62c-1.683 1.473-3.156 1.684-3.92 1.684-1.149 0-1.722-.86-1.722-2.085 0-.937.497-3.003 1.109-3.979.9-1.396 1.932-1.76 2.602-1.76 1.893 0 1.893 2.506 1.893 3.998 0 .708 0 1.817.038 2.143z" stroke-linejoin="round" stroke-miterlimit="100000"/>
</symbol>
<symbol id="a">
<path d="M167.311 32.109c0 .306 0 .708.402.708.42 0 .42-.383.42-.708V21.244c0-.306 0-.708-.401-.708-.421 0-.421.383-.421.708zM178.233 13.672c0-.516-.44-1.014-1.014-1.014-.65 0-1.033.536-1.033 1.014 0 .516.44 1.014 1.014 1.014.65 0 1.033-.536 1.033-1.014zM181.166 18.05a1.428 1.428 0 0 0-1.033 1.32c0 .42.325.88.957.88.669 0 1.377-.555 1.377-1.492 0-1.014-1.014-1.684-2.18-1.684-1.091 0-1.799.823-2.048 1.167-.478-.803-1.549-1.167-2.64-1.167-2.41 0-3.71 2.353-3.71 2.984 0 .268.287.268.459.268.23 0 .363 0 .44-.248.554-1.741 1.932-2.315 2.716-2.315.727 0 1.071.344 1.071.956 0 .364-.268 1.416-.44 2.105l-.65 2.62c-.287 1.167-.976 1.74-1.626 1.74-.096 0-.536 0-.918-.286a1.429 1.429 0 0 0 1.033-1.32c0-.42-.325-.88-.957-.88-.67 0-1.377.555-1.377 1.492 0 1.014 1.014 1.683 2.18 1.683 1.091 0 1.799-.822 2.047-1.166.479.803 1.55 1.166 2.64 1.166 2.41 0 3.711-2.352 3.711-2.984 0-.267-.287-.267-.46-.267-.229 0-.362 0-.439.248-.555 1.741-1.932 2.315-2.716 2.315-.727 0-1.071-.344-1.071-.957 0-.401.248-1.415.42-2.123.134-.497.574-2.295.67-2.601.287-1.148.956-1.74 1.626-1.74.096 0 .535 0 .918.286zM187.403 11.089c.107-.228.12-.335.12-.428 0-.416-.374-.737-.79-.737-.508 0-.669.415-.736.63l-1.767 5.797c-.013.027-.067.201-.067.214 0 .161.415.295.522.295.094 0 .107-.027.2-.228z" stroke-linejoin="round" stroke-miterlimit="100000"/>
</symbol>
<symbol id="h">
<path d="M167.311 20.632c0 .306 0 .708.402.708.42 0 .42-.383.42-.708V9.767c0-.306 0-.708-.401-.708-.421 0-.421.383-.421.708z" stroke-linejoin="round" stroke-miterlimit="100000"/>
<use xlink:href="#a"/>
</symbol>
<marker id="b" overflow="visible" orient="auto">
<path d="m-4 0-2 2 7-2-7-2z" fill="red" fill-rule="evenodd" stroke="red" stroke-width=".4pt"/>
</marker>
<marker id="c" overflow="visible" orient="auto">
<path d="m-4 0-2 2 7-2-7-2z" fill="#00f" fill-rule="evenodd" stroke="#00f" stroke-width=".4pt"/>
</marker>
</defs>
<ellipse transform="rotate(-37.672) skewX(.01)" cx="112.151" cy="178.046" rx="10.605" ry="10.825" color="#000" fill="#dcdcdc" stroke="#555" stroke-width="2" style="font-variant-east_asian:normal;isolation:auto;mix-blend-mode:normal"/>
<ellipse transform="rotate(-37.672) skewX(.01)" cx="-22.927" cy="90.255" rx="14.996" ry="15.307" color="#000" fill="#dcdcdc" stroke="#555" stroke-width="2" style="font-variant-east_asian:normal;isolation:auto;mix-blend-mode:normal"/>
<g fill="none" stroke-width="2" color="#000">
<path d="M53.133 85.441h37.264" marker-end="url(#b)" stroke="red" style="isolation:auto;mix-blend-mode:normal"/>
<path d="M185.922 72.368h-77.23" marker-end="url(#c)" stroke="#00f" style="isolation:auto;mix-blend-mode:normal"/>
<path d="M90.397 85.441 70.616 119.29" marker-end="url(#b)" stroke="red" style="isolation:auto;mix-blend-mode:normal"/>
<path d="m108.692 72.368 39.764-68.46" marker-end="url(#c)" stroke="#00f" style="isolation:auto;mix-blend-mode:normal"/>
</g>
<path d="m90.377 77.743 5.232-1.524-3.327-4.275 5.139 1.808-.151-5.392 3.082 4.45 3.082-4.45-.15 5.392 5.138-1.808-3.327 4.275 5.232 1.524-5.232 1.524 3.327 4.275-5.138-1.808.15 5.392-3.082-4.45-3.082 4.45.15-5.392-5.138 1.808 3.327-4.275z" color="#000" fill="#f4ff00" stroke="#c2c216" stroke-miterlimit="5" stroke-width="1.274" style="isolation:auto;mix-blend-mode:normal"/>
<use width="100%" height="100%" fill="red" xlink:href="#d"/>
<use transform="translate(5.567 74.316)" width="100%" height="100%" fill="red" xlink:href="#d"/>
<g fill="#00f">
<use width="100%" height="100%" xlink:href="#e"/>
<use transform="translate(9.062 79.171)" width="100%" height="100%" xlink:href="#e"/>
<use width="100%" height="100%" xlink:href="#f"/>
<use transform="translate(9.062 79.171)" width="100%" height="100%" xlink:href="#f"/>
</g>
<use transform="translate(-149.371 104.487)" width="100%" height="100%" fill="red" xlink:href="#f"/>
<use transform="translate(-154.938 30.171)" width="100%" height="100%" fill="red" xlink:href="#f"/>
<use width="100%" height="100%" fill="#00f" xlink:href="#g"/>
<use transform="translate(-149.372 104.487)" width="100%" height="100%" fill="red" xlink:href="#g"/>
<use width="100%" height="100%" fill="#00f" xlink:href="#h"/>
<use transform="translate(9.062 79.171)" width="100%" height="100%" fill="#00f" xlink:href="#h"/>
<use transform="translate(-154.939 30.171)" width="100%" height="100%" fill="red" xlink:href="#h"/>
<use transform="translate(-149.372 104.487)" width="100%" height="100%" fill="red" xlink:href="#h"/>
</svg>
