<svg width="228.396" height="127.353" xmlns="http://www.w3.org/2000/svg" xmlns:xlink="http://www.w3.org/1999/xlink">
<defs>
<marker id="a" overflow="visible" orient="auto">
<path d="m-4 0-2 2 7-2-7-2z" fill="red" fill-rule="evenodd" stroke="red" stroke-width=".4pt"/>
</marker>
<marker id="b" overflow="visible" orient="auto">
<path d="m-4 0-2 2 7-2-7-2z" fill-rule="evenodd" stroke="#000" stroke-width=".4pt"/>
</marker>
<marker id="c" overflow="visible" orient="auto">
<path d="m-4 0-2 2 7-2-7-2z" fill="#00f" fill-rule="evenodd" stroke="#00f" stroke-width=".4pt"/>
</marker>
<marker id="d" overflow="visible" orient="auto">
<path d="m-4 0-2 2 7-2-7-2z" fill="red" fill-rule="evenodd" stroke="red" stroke-width=".4pt"/>
</marker>
<marker id="e" overflow="visible" orient="auto">
<path d="m-4 0-2 2 7-2-7-2z" fill="#00f" fill-rule="evenodd" stroke="#00f" stroke-width=".4pt"/>
</marker>
<symbol id="f">
<path d="M213.865 100.99h2.106c.342 0 .666 0 .666-.522 0-.324-.306-.324-.612-.324h-2.016l.594-3.258c.054-.324.054-.36.234-.522.234-.216.432-.216.522-.216.252 0 .414.036.63.126-.432.216-.756.684-.756 1.17 0 .54.432.828.882.828.738 0 1.296-.648 1.296-1.332 0-.918-.936-1.44-2.052-1.44-.846 0-1.854.342-2.484 1.35-.414.666-.522 1.368-.864 3.294h-1.764c-.342 0-.648 0-.648.522 0 .324.306.324.594.324h1.656l-1.368 7.668c-.036.162-.234 1.296-.324 1.548-.036.09-.324.918-.9.918-.342 0-.486-.054-.612-.108.45-.216.792-.684.792-1.188 0-.54-.432-.828-.882-.828-.738 0-1.296.648-1.296 1.332 0 .972 1.026 1.44 1.962 1.44 1.35 0 2.286-1.332 2.43-1.566.774-1.188 1.188-3.474 1.242-3.78z" stroke-linejoin="round" stroke-miterlimit="100000" stroke-width="1.5"/>
</symbol>
<symbol id="g">
<path d="M167.463 90.96a.615.615 0 0 0-.375.59c0 .36.254.628.63.628.36 0 .642-.227.642-.656 0-1.191-1.861-1.191-2.236-1.191-2.008 0-3.254 1.54-3.254 3.08 0 1.686 1.433 3.025 3.187 3.025 1.995 0 2.464-1.58 2.464-1.74 0-.16-.174-.16-.228-.16-.174 0-.187.04-.254.227-.295.83-1.004 1.245-1.821 1.245-.924 0-2.13-.683-2.13-2.611 0-1.7.83-2.638 2.076-2.638.174 0 .817 0 1.299.201z" stroke-linejoin="round" stroke-miterlimit="100000"/>
</symbol>
</defs>
<circle cx="98.679" cy="82.379" r="34.199" color="#000" fill="#ffdcdc" stroke="red" stroke-linejoin="round" stroke-miterlimit="100000" stroke-width="2" style="font-variant-east_asian:normal;isolation:auto;mix-blend-mode:normal"/>
<path color="#000" fill="#c6c6ff" stroke="#00f" stroke-linejoin="round" stroke-width="2" style="font-variant-east_asian:normal;isolation:auto;mix-blend-mode:normal" d="M134.192 39.853h50v86h-50z"/>
<g fill="none" color="#000">
<g stroke-width="3">
<path d="M.5 82.853h57.474" marker-end="url(#a)" stroke="red" style="isolation:auto;mix-blend-mode:normal"/>
<path d="M95.11 17.853h70.224" marker-end="url(#b)" stroke="#000" style="isolation:auto;mix-blend-mode:normal"/>
<path d="M227.766 82.853H190.43" marker-end="url(#c)" stroke="#00f" style="isolation:auto;mix-blend-mode:normal"/>
</g>
<path d="M133.192 82.853H97.729" marker-end="url(#d)" stroke="red" stroke-width="2" style="isolation:auto;mix-blend-mode:normal"/>
<path d="M133.192 82.853h35.463" marker-end="url(#e)" stroke="#00f" stroke-width="2" style="isolation:auto;mix-blend-mode:normal"/>
</g>
<g stroke-linejoin="round" stroke-miterlimit="100000">
<g stroke-width="1.5">
<path d="M32.064 110.957c-.552.876-1.044.996-1.476 1.032-.12.012-.264.024-.264.228 0 .036.024.168.168.168.108 0 .18-.036 1.02-.036.816 0 1.092.036 1.152.036s.24 0 .24-.228c0-.156-.156-.168-.216-.168-.252-.012-.504-.108-.504-.372 0-.18.096-.336.324-.684l.816-1.32h3.288l.252 2.028c0 .168-.216.348-.78.348-.18 0-.336 0-.336.228 0 .012.012.168.204.168.12 0 .576-.024.684-.036h.756c1.08 0 1.284.036 1.38.036.048 0 .24 0 .24-.228 0-.168-.156-.168-.348-.168-.66 0-.672-.108-.708-.408l-.948-7.416c-.036-.264-.048-.348-.252-.348-.216 0-.288.12-.36.24zm1.512-1.74 2.484-3.948.504 3.948z" fill="red"/>
<path d="M220.384 111.437c-.108.456-.132.552-1.02.552-.228 0-.372 0-.372.228 0 .168.156.168.36.168h4.452c1.98 0 3.456-1.404 3.456-2.568 0-.876-.756-1.584-1.956-1.716 1.392-.264 2.592-1.176 2.592-2.232 0-.9-.876-1.68-2.388-1.68h-4.188c-.216 0-.372 0-.372.228 0 .168.144.168.348.168.396 0 .744 0 .744.192 0 .048-.012.06-.048.216zm1.872-3.48.732-2.928c.108-.408.12-.444.612-.444h1.728c1.176 0 1.44.768 1.44 1.26 0 1.02-1.092 2.112-2.628 2.112zm-.828 4.032c-.108-.024-.144-.024-.144-.108 0-.096.024-.192.048-.264l.84-3.324h2.436c1.116 0 1.488.756 1.488 1.428 0 1.176-1.152 2.268-2.592 2.268z" fill="#00f"/>
<path d="M128.269 2.93c.108-.45.288-1.17.288-1.332 0-.576-.468-.792-.846-.792-.342 0-.702.18-.918.45-.27-.288-.864-.756-1.908-.756-3.132 0-5.076 2.844-5.076 5.31 0 2.214 1.656 2.97 3.15 2.97 1.278 0 2.214-.702 2.502-.972.684.972 1.872.972 2.07.972.666 0 1.188-.378 1.566-1.026.45-.72.684-1.692.684-1.782 0-.252-.27-.252-.432-.252-.198 0-.27 0-.36.09-.036.036-.036.072-.144.522-.36 1.44-.774 1.8-1.224 1.8-.198 0-.414-.072-.414-.666 0-.306.072-.594.252-1.314.126-.504.306-1.224.396-1.62zm-2.988 4.032c-.522.612-1.368 1.17-2.232 1.17-1.116 0-1.206-.972-1.206-1.368 0-.936.612-3.15.9-3.852.558-1.314 1.44-1.764 2.178-1.764 1.062 0 1.494.846 1.494 1.044l-.036.252z"/>
</g>
<path d="M102.806 107.979c-.469.723-.897 1.071-1.687 1.125-.134.012-.308.012-.308.28 0 .148.12.202.187.202.349 0 .79-.054 1.152-.054.428 0 .977.054 1.379.054.067 0 .268 0 .268-.295 0-.174-.174-.187-.228-.187-.107-.013-.589-.04-.589-.402 0-.16.134-.388.2-.509l1.072-1.66h3.83l.32 2.223c-.053.134-.133.348-.923.348-.16 0-.348 0-.348.294 0 .054.04.188.214.188.388 0 1.34-.054 1.727-.054.241 0 .55.013.79.013.241.013.523.04.764.04.174 0 .267-.107.267-.281 0-.201-.16-.201-.374-.201-.777 0-.804-.107-.844-.429l-1.178-8.26c-.04-.282-.067-.375-.322-.375-.254 0-.334.12-.455.308zm1.767-1.928 2.812-4.379.63 4.379z" fill="red"/>
<path d="M164.799 108.542c-.12.455-.147.562-1.178.562-.228 0-.402 0-.402.282 0 .2.16.2.402.2h5.182c2.249 0 3.976-1.54 3.976-2.865 0-.95-.87-1.767-2.29-1.915 1.62-.294 2.973-1.312 2.973-2.463 0-1.018-1.03-1.902-2.771-1.902h-4.874c-.255 0-.429 0-.429.295 0 .187.16.187.429.187.013 0 .267 0 .508.027.282.027.308.054.308.187 0 .027 0 .094-.053.295zm2.142-3.896.817-3.268c.107-.415.12-.455.683-.455h2.035c1.366 0 1.674.897 1.674 1.406 0 1.085-1.218 2.317-3.013 2.317zm-.642 4.458c-.415 0-.429-.012-.429-.134 0-.012 0-.08.054-.28l.924-3.67h2.838c1.259 0 1.74.83 1.74 1.607 0 1.326-1.351 2.477-2.972 2.477z" fill="#00f"/>
</g>
<use width="100%" height="100%" fill="#00f" xlink:href="#f"/>
<use transform="translate(-56.508 -3.727)" width="100%" height="100%" fill="#00f" xlink:href="#f"/>
<use transform="translate(-118.716 -3.727)" width="100%" height="100%" fill="red" xlink:href="#f"/>
<use transform="translate(-188.512)" width="100%" height="100%" fill="red" xlink:href="#f"/>
<use width="100%" height="100%" fill="#00f" xlink:href="#g"/>
<use transform="translate(-62.206)" width="100%" height="100%" fill="red" xlink:href="#g"/>
</svg>
