<svg width="171.425" height="117.29" xmlns="http://www.w3.org/2000/svg" xmlns:xlink="http://www.w3.org/1999/xlink">
<defs>
<symbol id="a">
<path d="M46.295 74.516a1.34 1.34 0 0 0-.968 1.237c0 .395.304.825.896.825.628 0 1.291-.52 1.291-1.398 0-.95-.95-1.579-2.044-1.579-1.022 0-1.686.772-1.919 1.094-.448-.753-1.452-1.094-2.474-1.094-2.26 0-3.48 2.206-3.48 2.798 0 .251.27.251.431.251.215 0 .34 0 .412-.233.52-1.632 1.812-2.17 2.547-2.17.681 0 1.004.323 1.004.897 0 .34-.25 1.327-.412 1.972l-.61 2.457c-.269 1.094-.915 1.632-1.524 1.632-.09 0-.502 0-.861-.27a1.34 1.34 0 0 0 .968-1.236c0-.395-.305-.825-.896-.825-.628 0-1.292.52-1.292 1.398 0 .95.95 1.578 2.045 1.578 1.022 0 1.686-.77 1.919-1.093.448.753 1.452 1.093 2.474 1.093 2.26 0 3.48-2.205 3.48-2.797 0-.251-.27-.251-.431-.251-.215 0-.34 0-.413.233-.52 1.632-1.81 2.17-2.546 2.17-.681 0-1.004-.323-1.004-.897 0-.376.233-1.327.394-1.99.126-.467.538-2.152.628-2.44.269-1.075.897-1.631 1.524-1.631.09 0 .502 0 .861.269z" stroke-width="1.5"/>
</symbol>
<symbol id="b">
<path d="M157.695 49.967h-.427c-.037.276-.163 1.017-.326 1.142-.1.076-1.067.076-1.243.076h-2.31c1.318-1.168 1.758-1.52 2.51-2.11.93-.74 1.796-1.518 1.796-2.71 0-1.52-1.33-2.449-2.937-2.449-1.557 0-2.611 1.093-2.611 2.247 0 .64.54.703.665.703.301 0 .665-.213.665-.665 0-.226-.088-.665-.74-.665.389-.891 1.242-1.168 1.832-1.168 1.256 0 1.908.98 1.908 1.996 0 1.092-.778 1.959-1.18 2.41l-3.025 2.988c-.125.113-.125.138-.125.49h5.171z" stroke-width="1.5"/>
</symbol>
<symbol id="c">
<path d="M52.705 76.413c0-.339-.025-.351-.376-.351-.804.79-1.946.803-2.46.803v.452c.3 0 1.13 0 1.82-.352v6.402c0 .415 0 .578-1.256.578h-.477v.452c.226-.012 1.77-.05 2.235-.05.389 0 1.97.037 2.247.05v-.452h-.477c-1.256 0-1.256-.163-1.256-.578z" stroke-width="1.5"/>
</symbol>
<symbol id="d">
<path d="M64.75 38.877c.107-.43.16-.61.501-.664.162-.018.735-.018 1.094-.018 1.273 0 3.264 0 3.264 1.776 0 .61-.287 1.847-.986 2.546-.467.467-1.417 1.04-3.031 1.04h-2.009zm2.581 4.914c1.812-.395 3.946-1.65 3.946-3.461 0-1.543-1.614-2.69-3.964-2.69h-5.11c-.359 0-.52 0-.52.358 0 .198.161.198.502.198.036 0 .376 0 .681.035.323.036.484.054.484.287 0 .072-.018.126-.071.341l-2.403 9.63c-.18.7-.216.843-1.632.843-.323 0-.484 0-.484.358 0 .198.215.198.25.198.503 0 1.758-.054 2.26-.054.502 0 1.776.054 2.278.054.143 0 .358 0 .358-.359 0-.197-.161-.197-.502-.197-.663 0-1.165 0-1.165-.323 0-.108.035-.197.053-.305l1.184-4.752h2.134c1.632 0 1.955 1.004 1.955 1.632 0 .269-.144.825-.251 1.237-.126.502-.287 1.166-.287 1.525 0 1.936 2.152 1.936 2.385 1.936 1.524 0 2.152-1.81 2.152-2.062 0-.215-.198-.215-.216-.215-.161 0-.197.125-.233.25-.448 1.328-1.22 1.633-1.632 1.633-.591 0-.717-.395-.717-1.094 0-.556.108-1.47.18-2.044.035-.252.071-.592.071-.843 0-1.381-1.201-1.937-1.686-2.116z" stroke-width="1.5"/>
</symbol>
</defs>
<circle cx="51.5" cy="65.789" r="50" color="#000" fill="#dcdcdc" stroke="#555" stroke-width="2" style="font-variant-east_asian:normal;isolation:auto;mix-blend-mode:normal"/>
<circle cx="133.425" cy="38" r="36.5" color="#000" fill="#dcdcdc" stroke="#555" stroke-width="2" style="font-variant-east_asian:normal;isolation:auto;mix-blend-mode:normal"/>
<path d="M98.85 49.728 133.425 38M51.5 65.789l47.363-16.066" fill="none" stroke="#000"/>
<circle cx="51.5" cy="65.789" r="2.5" color="#000"/>
<circle cx="133.425" cy="38" r="2.5" color="#000"/>
<use width="100%" height="100%" xlink:href="#a"/>
<use transform="translate(102.854 -32.145)" width="100%" height="100%" xlink:href="#a"/>
<use width="100%" height="100%" xlink:href="#b"/>
<use transform="translate(-34.648 -14.213)" width="100%" height="100%" xlink:href="#b"/>
<use width="100%" height="100%" xlink:href="#c"/>
<use transform="translate(23.089 -31.82)" width="100%" height="100%" xlink:href="#c"/>
<use width="100%" height="100%" xlink:href="#d"/>
<use transform="translate(45.119 -14.539)" width="100%" height="100%" xlink:href="#d"/>
</svg>
