<svg width="124.374" height="86.524" xmlns="http://www.w3.org/2000/svg" xmlns:xlink="http://www.w3.org/1999/xlink">
<defs>
<marker id="a" overflow="visible" orient="auto">
<path d="m-4 0-2 2 7-2-7-2z" fill="red" fill-rule="evenodd" stroke="red" stroke-width=".4pt"/>
</marker>
<marker id="b" overflow="visible" orient="auto">
<path d="m-4 0-2 2 7-2-7-2z" fill="#00f" fill-rule="evenodd" stroke="#00f" stroke-width=".4pt"/>
</marker>
<symbol id="c">
<path d="M96.192 65.708h2.238c.363 0 .708 0 .708-.555 0-.344-.326-.344-.65-.344h-2.143l.631-3.462c.058-.345.058-.383.249-.555.248-.23.459-.23.555-.23.267 0 .44.039.669.134-.46.23-.803.727-.803 1.244 0 .574.459.88.937.88.784 0 1.377-.689 1.377-1.416 0-.975-.995-1.53-2.18-1.53-.9 0-1.97.363-2.64 1.435-.44.707-.555 1.453-.918 3.5h-1.875c-.363 0-.688 0-.688.555 0 .344.325.344.63.344h1.76l-1.453 8.149c-.038.172-.249 1.377-.345 1.645-.038.095-.344.975-.956.975-.363 0-.516-.057-.65-.114.478-.23.841-.727.841-1.263 0-.574-.459-.88-.937-.88-.784 0-1.377.689-1.377 1.416 0 1.033 1.09 1.53 2.085 1.53 1.434 0 2.43-1.416 2.582-1.664.823-1.263 1.263-3.692 1.32-4.017zM106.172 59.405a.615.615 0 0 0-.375.59c0 .36.254.628.63.628.36 0 .642-.227.642-.656 0-1.191-1.861-1.191-2.236-1.191-2.008 0-3.254 1.54-3.254 3.08 0 1.686 1.433 3.025 3.187 3.025 1.995 0 2.464-1.58 2.464-1.74 0-.16-.174-.16-.228-.16-.174 0-.187.04-.254.227-.295.83-1.004 1.245-1.821 1.245-.924 0-2.13-.683-2.13-2.611 0-1.7.83-2.638 2.076-2.638.174 0 .817 0 1.299.201z" stroke-linejoin="round" stroke-miterlimit="100000"/>
</symbol>
</defs>
<g color="#000">
<circle cx="37.361" cy="50.824" r="34.199" fill="#ffdcdc" stroke="red" stroke-width="2" style="isolation:auto;mix-blend-mode:normal"/>
<path d="M3.082 18.11c-.717 1.201-1.416 1.453-2.205 1.506-.216.018-.377.018-.377.359 0 .107.09.197.233.197.484 0 1.04-.054 1.542-.054.592 0 1.22.054 1.794.054.107 0 .34 0 .34-.34 0-.198-.161-.216-.287-.216-.412-.036-.842-.179-.842-.627 0-.215.107-.413.25-.664l1.364-2.295h4.5c.036.376.288 2.815.288 2.995 0 .538-.933.591-1.292.591-.25 0-.43 0-.43.359 0 .197.215.197.251.197.735 0 1.506-.054 2.242-.054.448 0 1.578.054 2.026.054.108 0 .323 0 .323-.358 0-.198-.18-.198-.413-.198-1.111 0-1.111-.125-1.165-.645L10.13 7.763c-.036-.359-.036-.43-.34-.43-.288 0-.36.125-.467.304zm2.152-2.636 3.533-5.918.574 5.918z" fill="red" style="isolation:auto;mix-blend-mode:normal"/>
<path d="M73.855 11.349c-.18.7-.216.843-1.632.843-.305 0-.484 0-.484.358 0 .198.16.198.484.198h6.402c2.833 0 4.95-2.116 4.95-3.874 0-1.29-1.04-2.331-2.78-2.528 1.865-.341 3.748-1.668 3.748-3.372C84.543 1.647 83.359.5 81.207.5h-6.025c-.341 0-.52 0-.52.358 0 .198.161.198.502.198.036 0 .376 0 .681.036.323.035.484.053.484.286 0 .072-.018.126-.071.341zm2.707-5.165 1.112-4.447c.162-.628.198-.681.969-.681h2.313c1.578 0 1.955 1.058 1.955 1.847 0 1.578-1.543 3.281-3.73 3.281zm-.807 6.008c-.25 0-.286 0-.394-.018-.18-.018-.233-.036-.233-.18 0-.053 0-.09.09-.412l1.237-5.003h3.39c1.72 0 2.061 1.327 2.061 2.098 0 1.775-1.596 3.515-3.712 3.515z" fill="#00f" style="isolation:auto;mix-blend-mode:normal"/>
<path fill="#c6c6ff" stroke="#00f" stroke-width="2" style="isolation:auto;mix-blend-mode:normal" d="M72.874 16.625h50v68.398h-50z"/>
<path d="M71.874 51.298h-44.38" fill="none" marker-end="url(#a)" stroke="red" stroke-width="2" style="isolation:auto;mix-blend-mode:normal"/>
<path d="M71.874 51.298h44.38" fill="none" marker-end="url(#b)" stroke="#00f" stroke-width="2" style="isolation:auto;mix-blend-mode:normal"/>
<path d="M52.529 45.921v10.753" fill="#ffdcdc" stroke="red" style="isolation:auto;mix-blend-mode:normal"/>
<path d="M87.697 45.921v10.753" fill="none" stroke="#00f" style="isolation:auto;mix-blend-mode:normal"/>
<path d="M56.05 45.921v10.753" fill="#ffdcdc" stroke="red" style="isolation:auto;mix-blend-mode:normal"/>
<path d="M91.219 45.921v10.753" fill="none" stroke="#00f" style="isolation:auto;mix-blend-mode:normal"/>
</g>
<path d="M41.977 76.424c-.47.723-.898 1.071-1.688 1.125-.133.012-.307.012-.307.28 0 .148.12.202.187.202.348 0 .79-.054 1.151-.054.429 0 .978.054 1.38.054.067 0 .267 0 .267-.295 0-.174-.174-.187-.227-.187-.107-.013-.59-.04-.59-.402 0-.16.135-.388.202-.509l1.07-1.66h3.83l.322 2.223c-.054.134-.134.348-.924.348-.161 0-.348 0-.348.294 0 .054.04.188.214.188.388 0 1.339-.054 1.727-.054.241 0 .549.013.79.013.241.013.522.04.763.04.174 0 .268-.107.268-.281 0-.201-.16-.201-.375-.201-.776 0-.803-.107-.843-.429l-1.179-8.26c-.04-.282-.067-.375-.321-.375s-.335.12-.455.308zm1.767-1.928 2.812-4.379.63 4.379z" fill="red"/>
<path d="M103.508 76.987c-.12.455-.147.562-1.178.562-.228 0-.402 0-.402.282 0 .2.16.2.402.2h5.182c2.249 0 3.976-1.54 3.976-2.865 0-.95-.87-1.767-2.29-1.915 1.62-.294 2.973-1.312 2.973-2.463 0-1.018-1.03-1.902-2.772-1.902h-4.873c-.255 0-.429 0-.429.295 0 .187.16.187.429.187.013 0 .267 0 .508.027.282.027.308.054.308.187 0 .027 0 .094-.053.295zm2.142-3.896.817-3.268c.107-.415.12-.455.683-.455h2.035c1.366 0 1.674.897 1.674 1.406 0 1.085-1.219 2.317-3.013 2.317zm-.642 4.458c-.415 0-.429-.012-.429-.134 0-.012 0-.08.054-.28l.924-3.67h2.838c1.259 0 1.74.83 1.74 1.607 0 1.326-1.351 2.477-2.972 2.477z" fill="#00f"/>
<use width="100%" height="100%" fill="#00f" xlink:href="#c"/>
<use transform="translate(-61.747)" width="100%" height="100%" fill="red" xlink:href="#c"/>
</svg>
