<svg width="213.962" height="77.821" viewBox="0 0 56.611 20.59" xml:space="preserve" xmlns="http://www.w3.org/2000/svg">
<g transform="translate(-350.74 -270.504)">
<path d="M358.42 279.039h43.391" color="#000" fill="none" stroke="#000" stroke-dasharray="1.05833, 1.05833" style="isolation:auto;mix-blend-mode:normal;stroke-width:.264583"/>
<path d="M372.884 276.79v4.498" color="#000" fill="none" stroke="#000" stroke-width=".794" style="isolation:auto;mix-blend-mode:normal"/>
<path d="M373.172 270.807a.253.253 0 0 0-.252-.251.253.253 0 0 0-.251.251c0 .138.114.252.251.252a.253.253 0 0 0 .252-.252zm0 1.542a.253.253 0 0 0-.252-.251.253.253 0 0 0-.251.251c0 .138.114.252.251.252a.253.253 0 0 0 .252-.252z"/>
<circle cx="358.42" cy="279.039" r="7.414" color="#000" fill="#dcdcdc" stroke="#555" stroke-width=".529" style="isolation:auto;mix-blend-mode:normal"/>
<path d="M407.087 278.907a5.276 5.276 0 0 1-5.276 5.275 5.276 5.276 0 0 1-5.275-5.275 5.276 5.276 0 0 1 5.275-5.276 5.276 5.276 0 0 1 5.276 5.276z" color="#000" fill="#dcdcdc" stroke="#555" stroke-width=".529" style="isolation:auto;mix-blend-mode:normal"/>
<path d="M374 285.071c.053.032.18.11.386.11.365 0 .63-.244.63-.52a.495.495 0 0 0-.148-.34.59.59 0 0 1 .358-.118c-.015.015-.032.029-.032.085 0 .071.053.114.113.114.05 0 .114-.036.114-.117 0-.082-.068-.18-.21-.18a.625.625 0 0 0-.41.162.708.708 0 0 0-.411-.127c-.365 0-.631.244-.631.52 0 .139.07.266.17.358a.481.481 0 0 0-.106.287.4.4 0 0 0 .149.315c-.16.054-.344.17-.344.355 0 .258.39.453.868.453.45 0 .868-.177.868-.46a.458.458 0 0 0-.238-.404c-.209-.11-.418-.11-.761-.11-.078 0-.206 0-.234-.003-.113-.025-.177-.131-.177-.234 0-.088.025-.117.046-.145zm.39.003c-.348 0-.348-.34-.348-.414 0-.057 0-.198.071-.29a.356.356 0 0 1 .273-.125c.347 0 .347.34.347.415 0 .057 0 .198-.07.29a.356.356 0 0 1-.273.124zm0 .617c.315 0 .758 0 .758.28 0 .187-.28.35-.652.35s-.652-.166-.652-.35c0-.124.113-.277.34-.28z" fill="red"/>
<path d="M355.908 279.452c-.015.07-.043.18-.043.204 0 .085.066.128.138.128a.194.194 0 0 0 .175-.133c.005-.01.062-.233.09-.351l.105-.427a6.22 6.22 0 0 0 .08-.318l.062-.237c.071-.147.323-.58.773-.58.214 0 .257.176.257.333 0 .119-.034.251-.072.394l-.132.55-.095.36c-.02.096-.062.257-.062.28 0 .086.066.129.138.129.147 0 .175-.119.213-.27.067-.266.242-.96.285-1.144.014-.062.266-.631.783-.631.204 0 .256.161.256.332 0 .27-.2.811-.294 1.063a.647.647 0 0 0-.062.26c0 .224.166.39.39.39.445 0 .62-.693.62-.73 0-.048-.042-.048-.056-.048-.048 0-.048.014-.071.085-.072.252-.223.588-.484.588-.081 0-.114-.047-.114-.156 0-.119.042-.233.085-.337.09-.247.29-.773.29-1.044 0-.308-.19-.508-.546-.508-.356 0-.598.21-.773.46a.477.477 0 0 0-.152-.336.6.6 0 0 0-.39-.124c-.426 0-.659.304-.74.413a.428.428 0 0 0-.436-.413c-.218 0-.308.185-.351.27a2.067 2.067 0 0 0-.147.461c0 .048.047.048.057.048.047 0 .052-.005.08-.11.081-.336.176-.564.347-.564.076 0 .147.038.147.218 0 .1-.014.152-.076.399zM365.081 272.32c-.014.072-.042.181-.042.205 0 .085.066.128.137.128a.194.194 0 0 0 .176-.133c.004-.01.061-.232.09-.351l.104-.427a6.22 6.22 0 0 0 .08-.318c.02-.08.058-.218.063-.237.07-.147.322-.579.773-.579.213 0 .256.176.256.332 0 .119-.033.252-.071.394l-.133.55-.095.361c-.019.095-.061.256-.061.28 0 .085.066.128.137.128.147 0 .176-.119.214-.27.066-.266.242-.959.284-1.144.015-.062.266-.631.783-.631.204 0 .256.161.256.332 0 .27-.199.812-.294 1.063a.647.647 0 0 0-.061.26c0 .224.166.39.389.39.446 0 .621-.693.621-.73 0-.048-.042-.048-.057-.048-.047 0-.047.014-.07.085-.072.252-.224.589-.485.589-.08 0-.114-.048-.114-.157 0-.119.043-.232.086-.337.09-.247.29-.773.29-1.044 0-.308-.19-.507-.547-.507-.355 0-.597.208-.773.46a.477.477 0 0 0-.152-.337.6.6 0 0 0-.389-.123c-.427 0-.66.303-.74.412a.428.428 0 0 0-.436-.412c-.219 0-.309.185-.352.27a2.067 2.067 0 0 0-.147.46c0 .048.048.048.057.048.048 0 .052-.005.08-.11.082-.336.176-.564.347-.564.076 0 .147.038.147.218 0 .1-.014.152-.076.399zM375.31 272.32c-.015.072-.044.181-.044.205 0 .085.067.128.138.128a.194.194 0 0 0 .176-.133c.004-.01.061-.232.09-.351l.104-.427a6.22 6.22 0 0 0 .08-.318l.062-.237c.072-.147.323-.579.774-.579.213 0 .256.176.256.332 0 .119-.033.252-.071.394l-.133.55-.095.361c-.019.095-.062.256-.062.28 0 .085.067.128.138.128.147 0 .176-.119.214-.27.066-.266.242-.959.284-1.144.014-.062.266-.631.783-.631.204 0 .256.161.256.332 0 .27-.199.812-.294 1.063a.647.647 0 0 0-.062.26c0 .224.167.39.39.39.446 0 .621-.693.621-.73 0-.048-.043-.048-.057-.048-.047 0-.047.014-.071.085-.071.252-.223.589-.484.589-.08 0-.114-.048-.114-.157 0-.119.043-.232.086-.337.09-.247.289-.773.289-1.044 0-.308-.19-.507-.546-.507-.356 0-.597.208-.773.46a.477.477 0 0 0-.152-.337.6.6 0 0 0-.389-.123c-.427 0-.66.303-.74.412a.428.428 0 0 0-.437-.412c-.218 0-.308.185-.35.27a2.067 2.067 0 0 0-.148.46c0 .048.048.048.057.048.048 0 .052-.005.08-.11.081-.336.176-.564.347-.564.076 0 .147.038.147.218 0 .1-.014.152-.076.399zM399.246 279.32c-.014.07-.043.18-.043.203 0 .086.067.129.138.129a.194.194 0 0 0 .176-.133c.004-.01.061-.233.09-.351l.104-.427a6.22 6.22 0 0 0 .08-.318c.02-.081.058-.219.063-.238.07-.147.322-.578.773-.578.213 0 .256.175.256.332 0 .118-.033.251-.071.393l-.133.55-.095.361c-.019.095-.061.257-.061.28 0 .086.066.129.137.129.147 0 .176-.12.214-.27.066-.267.242-.96.284-1.144.015-.062.266-.631.783-.631.204 0 .256.16.256.332 0 .27-.199.811-.294 1.062a.647.647 0 0 0-.061.261c0 .223.166.39.389.39.446 0 .621-.693.621-.731 0-.048-.043-.048-.057-.048-.047 0-.047.015-.071.086-.071.251-.223.588-.484.588-.08 0-.114-.047-.114-.156 0-.12.043-.233.086-.337.09-.247.289-.774.289-1.044 0-.309-.19-.508-.546-.508-.355 0-.597.209-.773.46a.477.477 0 0 0-.152-.336.6.6 0 0 0-.389-.124c-.427 0-.66.304-.74.413a.428.428 0 0 0-.437-.413c-.218 0-.308.185-.35.27a2.067 2.067 0 0 0-.148.46c0 .048.048.048.057.048.048 0 .052-.004.08-.109.081-.337.176-.564.347-.564.076 0 .147.037.147.218 0 .1-.014.152-.076.398zM380.155 271.2c0-.09-.007-.093-.1-.093-.212.21-.515.213-.65.213v.12c.079 0 .298 0 .48-.094v1.694c0 .11 0 .153-.331.153h-.127v.12c.06-.004.469-.014.592-.014.103 0 .521.01.594.013v-.12h-.126c-.332 0-.332-.042-.332-.152zM360.753 278.33c0-.089-.006-.092-.1-.092-.212.21-.514.212-.65.212v.12c.08 0 .299 0 .481-.093v1.694c0 .11 0 .153-.332.153h-.126v.12c.06-.004.468-.014.591-.014.103 0 .522.01.595.013v-.12h-.127c-.332 0-.332-.043-.332-.152zM360.22 288.981c0-.09-.007-.093-.1-.093-.212.21-.514.213-.65.213v.12c.08 0 .298 0 .481-.093v1.693c0 .11 0 .153-.332.153h-.126v.12c.06-.003.468-.014.59-.014.104 0 .522.01.595.014v-.12h-.126c-.332 0-.332-.043-.332-.153zM370.492 272.708h-.113c-.01.073-.044.269-.087.302-.026.02-.282.02-.329.02h-.61c.348-.309.464-.402.664-.558.245-.196.475-.402.475-.717 0-.402-.353-.648-.778-.648-.412 0-.69.289-.69.595 0 .169.142.186.176.186.08 0 .176-.057.176-.176 0-.06-.024-.176-.196-.176a.522.522 0 0 1 .484-.31c.333 0 .505.26.505.529 0 .289-.206.518-.312.637l-.8.79c-.034.03-.034.037-.034.13h1.369zM404.657 279.706h-.113c-.01.074-.043.27-.087.303-.026.02-.282.02-.328.02h-.612c.35-.31.465-.402.665-.558.245-.196.475-.402.475-.718 0-.402-.352-.647-.778-.647-.411 0-.69.289-.69.594 0 .17.142.186.176.186.08 0 .176-.056.176-.176 0-.06-.024-.176-.196-.176a.522.522 0 0 1 .485-.309c.332 0 .504.26.504.528 0 .29-.205.518-.312.638l-.8.79c-.033.03-.033.037-.033.13h1.368zM404.123 288.373h-.112c-.01.073-.044.269-.087.302-.026.02-.282.02-.329.02h-.61c.348-.31.464-.402.664-.558.245-.196.474-.402.474-.718 0-.401-.352-.647-.777-.647-.412 0-.69.289-.69.594 0 .17.142.186.175.186.08 0 .177-.056.177-.176 0-.06-.024-.176-.196-.176a.522.522 0 0 1 .484-.309c.333 0 .505.26.505.528 0 .29-.206.519-.312.638l-.8.79c-.034.03-.034.037-.034.13h1.369zM358.524 288.48a.354.354 0 0 0-.256.327c0 .104.08.218.237.218.166 0 .342-.137.342-.37 0-.251-.252-.417-.541-.417-.27 0-.446.204-.508.289-.119-.2-.384-.29-.655-.29-.598 0-.92.584-.92.74 0 .067.07.067.114.067.057 0 .09 0 .109-.062.137-.431.479-.574.673-.574.18 0 .266.086.266.238 0 .09-.066.35-.109.521l-.161.65c-.071.29-.242.432-.404.432-.023 0-.132 0-.227-.07a.354.354 0 0 0 .256-.328c0-.105-.08-.219-.237-.219-.166 0-.342.138-.342.37 0 .252.252.418.541.418.27 0 .446-.204.508-.29.118.2.384.29.654.29.598 0 .92-.584.92-.74 0-.067-.07-.067-.113-.067-.057 0-.09 0-.11.062-.137.432-.478.574-.673.574-.18 0-.266-.085-.266-.237 0-.1.062-.351.105-.527.033-.123.142-.569.166-.645.071-.285.237-.432.403-.432.024 0 .133 0 .228.072zM401.862 286.363a.354.354 0 0 0-.256.327c0 .105.08.218.237.218.166 0 .342-.137.342-.37 0-.251-.252-.417-.541-.417-.27 0-.446.204-.508.29-.118-.2-.384-.29-.655-.29-.597 0-.92.583-.92.74 0 .066.071.066.114.066.057 0 .09 0 .109-.061.138-.432.48-.574.674-.574.18 0 .265.085.265.237 0 .09-.066.351-.109.522l-.161.65c-.071.29-.242.432-.403.432-.024 0-.133 0-.228-.072a.354.354 0 0 0 .256-.327c0-.104-.08-.218-.237-.218-.166 0-.342.137-.342.37 0 .251.252.417.541.417.27 0 .446-.204.508-.289.118.2.384.29.655.29.597 0 .92-.584.92-.74 0-.067-.071-.067-.114-.067-.057 0-.09 0-.109.062-.137.431-.48.574-.674.574-.18 0-.265-.086-.265-.238 0-.1.061-.35.104-.526.033-.124.142-.57.166-.646.071-.284.237-.431.403-.431.024 0 .133 0 .228.07z"/>
<path d="M29.917 68.441a1.34 1.34 0 0 0-.969 1.237c0 .395.305.825.897.825.628 0 1.291-.52 1.291-1.398 0-.95-.95-1.579-2.044-1.579-1.022 0-1.686.772-1.92 1.094-.447-.753-1.452-1.094-2.474-1.094-2.26 0-3.479 2.206-3.479 2.798 0 .251.27.251.43.251.216 0 .341 0 .413-.233.52-1.632 1.811-2.17 2.546-2.17.682 0 1.005.323 1.005.897 0 .34-.251 1.327-.413 1.972l-.61 2.457c-.268 1.094-.914 1.632-1.524 1.632-.09 0-.502 0-.86-.27a1.34 1.34 0 0 0 .968-1.236c0-.395-.305-.825-.897-.825-.627 0-1.29.52-1.29 1.398 0 .95.95 1.578 2.043 1.578 1.023 0 1.686-.77 1.92-1.093.448.753 1.452 1.093 2.474 1.093 2.26 0 3.479-2.205 3.479-2.797 0-.251-.27-.251-.43-.251-.216 0-.341 0-.413.233-.52 1.632-1.811 2.17-2.546 2.17-.682 0-1.005-.323-1.005-.897 0-.376.234-1.327.395-1.99.125-.467.538-2.152.628-2.44.269-1.075.896-1.631 1.524-1.631.09 0 .502 0 .86.269z" transform="matrix(.27902 0 0 .27902 364.512 263.818)" style="fill:red;stroke-width:.948249"/>
</g>
</svg>
