<svg width="170.425" height="116.289" viewBox="0 0 45.092 30.768" xml:space="preserve" xmlns:xlink="http://www.w3.org/1999/xlink" xmlns="http://www.w3.org/2000/svg">
<defs>
<path id="a" d="M5.129-4.746h1.399c.227 0 .442 0 .442-.347 0-.215-.203-.215-.407-.215H5.224l.395-2.164c.036-.215.036-.24.155-.347.156-.143.287-.143.347-.143a.97.97 0 0 1 .418.084c-.286.143-.502.454-.502.777 0 .358.287.55.586.55.49 0 .86-.43.86-.885 0-.61-.62-.957-1.362-.957-.562 0-1.231.228-1.65.897-.275.442-.346.909-.574 2.188H2.726c-.227 0-.43 0-.43.347 0 .215.203.215.394.215h1.1L2.88.347c-.024.107-.155.86-.215 1.028-.024.06-.215.61-.598.61a.899.899 0 0 1-.406-.072c.299-.144.526-.454.526-.79 0-.358-.287-.55-.586-.55-.49 0-.86.431-.86.886 0 .645.68.956 1.302.956.897 0 1.519-.885 1.614-1.04.514-.79.79-2.308.825-2.51z"/>
<path id="c" d="M2.803-5.322c0-.226-.016-.235-.25-.235-.536.527-1.298.536-1.64.536v.301c.2 0 .752 0 1.213-.234v4.268c0 .276 0 .385-.837.385H.97V0a61.59 61.59 0 0 1 1.49-.033c.259 0 1.313.025 1.497.033v-.301H3.64c-.837 0-.837-.11-.837-.385z"/>
<path id="b" d="M3.255-3.34a.385.385 0 0 0-.234.37c0 .225.16.392.393.392.226 0 .402-.142.402-.41 0-.744-1.163-.744-1.397-.744-1.256 0-2.034.962-2.034 1.924C.385-.753 1.28.084 2.377.084c1.247 0 1.54-.988 1.54-1.088 0-.1-.11-.1-.143-.1-.109 0-.117.024-.159.142-.184.518-.627.778-1.138.778-.577 0-1.33-.427-1.33-1.632 0-1.063.518-1.649 1.297-1.649.108 0 .51 0 .811.126z"/>
<marker id="d" overflow="visible" orient="auto">
<path d="m-4 0-2 2 7-2-7-2Z" fill="red" fill-rule="evenodd" stroke="red" stroke-width=".4pt"/>
</marker>
</defs>
<g transform="translate(-281.986 -136.812)">
<circle cx="317.156" cy="146.734" r="9.657" color="#000" fill="#dcdcdc" stroke="#555" stroke-width=".529" style="isolation:auto;mix-blend-mode:normal"/>
<circle cx="295.48" cy="154.087" r="13.229" color="#000" fill="#ffdcdc" stroke="red" stroke-linejoin="round" stroke-miterlimit="100000" stroke-width=".529" style="font-variation-settings:normal;opacity:1;isolation:auto;mix-blend-mode:normal;vector-effect:none;fill:#ffdcdc;fill-opacity:1;stroke:red;stroke-width:.529167;stroke-linecap:butt;stroke-linejoin:miter;stroke-miterlimit:4;stroke-dasharray:none;stroke-dashoffset:0;stroke-opacity:1;-inkscape-stroke:none;stop-color:#000;stop-opacity:1"/>
<path d="M317.206 151.396a.354.354 0 0 0-.256.327c0 .105.08.219.237.219.167 0 .342-.138.342-.37 0-.252-.251-.418-.54-.418-.271 0-.447.204-.508.29-.12-.2-.385-.29-.655-.29-.598 0-.92.584-.92.74 0 .067.07.067.113.067.057 0 .09 0 .11-.062.137-.432.478-.574.673-.574.18 0 .266.085.266.237 0 .09-.067.351-.11.522l-.16.65c-.072.29-.243.432-.404.432-.024 0-.133 0-.228-.071a.354.354 0 0 0 .256-.328c0-.104-.08-.218-.237-.218-.166 0-.341.138-.341.37 0 .252.251.418.54.418.27 0 .446-.204.508-.29.119.2.384.29.655.29.598 0 .92-.584.92-.74 0-.067-.07-.067-.113-.067-.057 0-.09 0-.11.062-.137.431-.479.574-.673.574-.18 0-.266-.086-.266-.237 0-.1.062-.352.104-.527.034-.123.143-.57.166-.645.072-.285.238-.432.404-.432.023 0 .133 0 .227.071zM319.468 153.406h-.113c-.01.073-.043.269-.087.302-.026.02-.282.02-.328.02h-.612c.35-.309.465-.402.665-.558.245-.196.475-.402.475-.717 0-.402-.352-.648-.778-.648-.411 0-.69.289-.69.594 0 .17.142.186.176.186.08 0 .176-.056.176-.176 0-.06-.024-.176-.196-.176a.522.522 0 0 1 .485-.309c.332 0 .504.26.504.529 0 .289-.205.518-.312.637l-.8.79c-.033.03-.033.037-.033.13h1.368zM295.584 162.32a.354.354 0 0 0-.256.328c0 .104.08.218.237.218.166 0 .342-.138.342-.37 0-.252-.252-.418-.541-.418-.27 0-.446.204-.508.29-.119-.2-.384-.29-.655-.29-.598 0-.92.584-.92.74 0 .067.07.067.114.067.057 0 .09 0 .109-.062.137-.431.479-.574.673-.574.18 0 .266.086.266.237 0 .09-.066.352-.109.522l-.161.65c-.071.29-.242.432-.404.432-.023 0-.132 0-.227-.071a.354.354 0 0 0 .256-.327c0-.105-.08-.219-.237-.219-.166 0-.342.138-.342.37 0 .252.252.418.54.418.271 0 .447-.204.509-.29.118.2.384.29.654.29.598 0 .92-.584.92-.74 0-.067-.07-.067-.113-.067-.057 0-.09 0-.11.062-.137.432-.478.574-.673.574-.18 0-.266-.085-.266-.237 0-.1.062-.351.105-.527.033-.123.142-.57.166-.645.071-.285.237-.432.403-.432.024 0 .133 0 .228.071zM297.28 162.822c0-.09-.007-.093-.1-.093-.212.21-.514.213-.65.213v.12c.08 0 .298 0 .48-.094v1.694c0 .11 0 .153-.331.153h-.126v.12c.06-.004.468-.014.59-.014.104 0 .522.01.595.014v-.12h-.126c-.332 0-.332-.043-.332-.153z"/>
<g transform="matrix(.42333 0 0 .42333 196.683 112.845)" style="font-variation-settings:normal;opacity:1;vector-effect:none;fill:red;fill-opacity:1;stroke-width:1;stroke-linecap:butt;stroke-linejoin:miter;stroke-miterlimit:100000;stroke-dasharray:none;stroke-dashoffset:0;stroke-opacity:1;-inkscape-stroke:none;stop-color:#000;stop-opacity:1">
<use x="218.899" y="88.26" xlink:href="#a" style="font-variation-settings:normal;vector-effect:none;fill:red;fill-opacity:1;stroke-width:1;stroke-linecap:butt;stroke-linejoin:miter;stroke-miterlimit:100000;stroke-dasharray:none;stroke-dashoffset:0;stroke-opacity:1;-inkscape-stroke:none;stop-color:#000;stop-opacity:1"/>
<use x="227.01" y="82.914" xlink:href="#b" style="font-variation-settings:normal;vector-effect:none;fill:red;fill-opacity:1;stroke-width:1;stroke-linecap:butt;stroke-linejoin:miter;stroke-miterlimit:100000;stroke-dasharray:none;stroke-dashoffset:0;stroke-opacity:1;-inkscape-stroke:none;stop-color:#000;stop-opacity:1"/>
<use x="227.01" y="91.216" xlink:href="#c" style="font-variation-settings:normal;vector-effect:none;fill:red;fill-opacity:1;stroke-width:1;stroke-linecap:butt;stroke-linejoin:miter;stroke-miterlimit:100000;stroke-dasharray:none;stroke-dashoffset:0;stroke-opacity:1;-inkscape-stroke:none;stop-color:#000;stop-opacity:1"/>
</g>
<path d="m308.011 149.836-20.014 6.789" color="#000" fill="none" marker-end="url(#marker13102-9-1-6)" stroke="red" stroke-linejoin="round" stroke-miterlimit="100000" stroke-width=".794" style="font-variation-settings:normal;opacity:1;isolation:auto;mix-blend-mode:normal;vector-effect:none;fill:none;fill-opacity:1;stroke:red;stroke-width:.79375;stroke-linecap:butt;stroke-linejoin:miter;stroke-miterlimit:4;stroke-dasharray:none;stroke-dashoffset:0;stroke-opacity:1;-inkscape-stroke:none;marker-end:url(#d);stop-color:#000;stop-opacity:1"/>
</g>
</svg>
