<svg width="170.425" height="116.289" viewBox="0 0 45.092 30.768" xml:space="preserve" xmlns="http://www.w3.org/2000/svg">
<defs>
<marker id="a" overflow="visible" orient="auto">
<path d="m-4 0-2 2 7-2-7-2Z" fill="red" fill-rule="evenodd" stroke="red" stroke-width=".4pt"/>
</marker>
</defs>
<g transform="translate(-281.986 -136.812)">
<circle cx="317.156" cy="146.734" r="9.657" color="#000" fill="#dcdcdc" stroke="#555" stroke-width=".529" style="isolation:auto;mix-blend-mode:normal"/>
<circle cx="295.48" cy="154.087" r="13.229" color="#000" fill="#ffdcdc" stroke="red" stroke-linejoin="round" stroke-miterlimit="100000" stroke-width=".529" style="isolation:auto;mix-blend-mode:normal"/>
<path d="M317.206 151.396a.354.354 0 0 0-.256.327c0 .105.08.219.237.219.167 0 .342-.138.342-.37 0-.252-.251-.418-.54-.418-.271 0-.447.204-.508.29-.12-.2-.385-.29-.655-.29-.598 0-.92.584-.92.74 0 .067.07.067.113.067.057 0 .09 0 .11-.062.137-.432.478-.574.673-.574.18 0 .266.085.266.237 0 .09-.067.351-.11.522l-.16.65c-.072.29-.243.432-.404.432-.024 0-.133 0-.228-.071a.354.354 0 0 0 .256-.328c0-.104-.08-.218-.237-.218-.166 0-.341.138-.341.37 0 .252.251.418.54.418.27 0 .446-.204.508-.29.119.2.384.29.655.29.598 0 .92-.584.92-.74 0-.067-.07-.067-.113-.067-.057 0-.09 0-.11.062-.137.431-.479.574-.673.574-.18 0-.266-.086-.266-.237 0-.1.062-.352.104-.527.034-.123.143-.57.166-.645.072-.285.238-.432.404-.432.023 0 .133 0 .227.071zM319.468 153.406h-.113c-.01.073-.043.269-.087.302-.026.02-.282.02-.328.02h-.612c.35-.309.465-.402.665-.558.245-.196.475-.402.475-.717 0-.402-.352-.648-.778-.648-.411 0-.69.289-.69.594 0 .17.142.186.176.186.08 0 .176-.056.176-.176 0-.06-.024-.176-.196-.176a.522.522 0 0 1 .485-.309c.332 0 .504.26.504.529 0 .289-.205.518-.312.637l-.8.79c-.033.03-.033.037-.033.13h1.368zM295.584 162.32a.354.354 0 0 0-.256.328c0 .104.08.218.237.218.166 0 .342-.138.342-.37 0-.252-.252-.418-.541-.418-.27 0-.446.204-.508.29-.119-.2-.384-.29-.655-.29-.598 0-.92.584-.92.74 0 .067.07.067.114.067.057 0 .09 0 .109-.062.137-.431.479-.574.673-.574.18 0 .266.086.266.237 0 .09-.066.352-.109.522l-.161.65c-.071.29-.242.432-.404.432-.023 0-.132 0-.227-.071a.354.354 0 0 0 .256-.327c0-.105-.08-.219-.237-.219-.166 0-.342.138-.342.37 0 .252.252.418.54.418.271 0 .447-.204.509-.29.118.2.384.29.654.29.598 0 .92-.584.92-.74 0-.067-.07-.067-.113-.067-.057 0-.09 0-.11.062-.137.432-.478.574-.673.574-.18 0-.266-.085-.266-.237 0-.1.062-.351.105-.527.033-.123.142-.57.166-.645.071-.285.237-.432.403-.432.024 0 .133 0 .228.071zM297.28 162.822c0-.09-.007-.093-.1-.093-.212.21-.514.213-.65.213v.12c.08 0 .298 0 .48-.094v1.694c0 .11 0 .153-.331.153h-.126v.12c.06-.004.468-.014.59-.014.104 0 .522.01.595.014v-.12h-.126c-.332 0-.332-.043-.332-.153zM286.498 149.346c.207.531.45 1.306.531 1.422.081.111.132.111.269.111h.11c.052-.005.057-.035.057-.05 0-.016-.01-.026-.026-.046a.665.665 0 0 1-.116-.233l-1.033-2.88c-.106-.293-.38-.359-.617-.359-.025 0-.091 0-.091.056 0 .04.04.05.045.05.167.031.203.061.33.406l.49 1.376-1.397 1.387c-.06.06-.09.09-.09.157 0 .086.07.146.151.146.081 0 .127-.055.167-.106zM288.82 149.33c0-.096-.008-.1-.107-.1-.227.223-.549.227-.694.227v.127c.085 0 .319 0 .513-.099v1.807c0 .117 0 .163-.354.163h-.134v.128c.063-.004.5-.015.63-.015.11 0 .556.011.634.015v-.128h-.134c-.355 0-.355-.046-.355-.163z"/>
<g fill="red" stroke-linejoin="round" stroke-miterlimit="100000" stroke-width="1.333">
<path d="M293.85 147.478a.17.17 0 0 0 .026-.07c0-.036-.005-.041-.122-.041h-3.492c-.116 0-.121.005-.121.04 0 .02.015.056.025.071l1.706 3.416c.035.066.05.096.136.096.086 0 .101-.03.137-.096zm-3.082.253h2.779l-1.387 2.784zM295.292 149.33c0-.096-.007-.1-.107-.1-.226.223-.549.227-.694.227v.127c.085 0 .319 0 .514-.099v1.807c0 .117 0 .163-.355.163h-.134v.128c.064-.004.5-.015.63-.015.11 0 .557.011.635.015v-.128h-.135c-.354 0-.354-.046-.354-.163zM300.222 147.306c0-.015-.01-.05-.056-.05-.015 0-.02.005-.076.06l-.354.39c-.046-.071-.279-.45-.84-.45-1.129 0-2.268 1.118-2.268 2.292 0 .805.562 1.387 1.382 1.387.223 0 .45-.046.633-.122a1.02 1.02 0 0 0 .44-.308c.045.126.177.313.228.313.025 0 .035-.015.035-.02.01-.01.06-.202.086-.309l.096-.39c.02-.085.046-.171.066-.257.056-.228.06-.238.35-.243.025 0 .08-.005.08-.101 0-.036-.025-.056-.066-.056-.116 0-.415.015-.531.015-.157 0-.552-.015-.709-.015-.045 0-.106 0-.106.101 0 .056.04.056.152.056.005 0 .152 0 .268.01.132.015.157.03.157.096 0 .046-.056.273-.106.46-.142.557-.8.613-.977.613-.486 0-1.017-.289-1.017-1.063 0-.157.05-.992.582-1.65.273-.344.764-.653 1.265-.653.516 0 .815.39.815.977 0 .203-.015.208-.015.258 0 .05.055.05.076.05.065 0 .065-.01.09-.1z"/>
</g>
<path d="m308.011 149.836-20.014 6.789" color="#000" fill="none" marker-end="url(#a)" stroke="red" stroke-linejoin="round" stroke-miterlimit="100000" stroke-width=".794" style="isolation:auto;mix-blend-mode:normal"/>
</g>
</svg>
