<svg width="170.425" height="116.289" viewBox="0 0 45.092 30.768" xml:space="preserve" xmlns="http://www.w3.org/2000/svg">
<defs>
<marker id="b" overflow="visible" orient="auto">
<path d="m-4 0-2 2 7-2-7-2Z" fill="#00f" fill-rule="evenodd" stroke="#00f" stroke-width=".4pt"/>
</marker>
<marker id="a" overflow="visible" orient="auto">
<path d="m-4 0-2 2 7-2-7-2Z" fill="red" fill-rule="evenodd" stroke="red" stroke-width=".4pt"/>
</marker>
</defs>
<g transform="translate(-283.747 -179.132)">
<circle cx="318.916" cy="189.054" r="9.657" color="#000" fill="#c6c6ff" stroke="#00f" stroke-width=".529" style="isolation:auto;mix-blend-mode:normal;shape-rendering:auto"/>
<circle cx="297.24" cy="196.406" r="13.229" color="#000" fill="#ffdcdc" stroke="red" stroke-linejoin="round" stroke-miterlimit="100000" stroke-width=".529" style="isolation:auto;mix-blend-mode:normal;shape-rendering:auto"/>
<path d="m309.772 192.156-14.111 4.894" color="#000" fill="none" marker-end="url(#a)" stroke="red" stroke-width=".529" style="isolation:auto;mix-blend-mode:normal;shape-rendering:auto"/>
<path d="m309.772 192.156 14.111-4.895" color="#000" fill="none" marker-end="url(#b)" stroke="#00f" stroke-width=".529" style="isolation:auto;mix-blend-mode:normal;shape-rendering:auto"/>
<g style="shape-rendering:auto" color="#000">
<path d="m73.424 51.177 4.382 13.218" fill="#ffdcdc" stroke="red" style="isolation:auto;mix-blend-mode:normal" transform="matrix(.26458 0 0 .26458 283.614 179)"/>
<path d="m115.687 36.518 4.382 13.218" fill="none" stroke="#00f" style="isolation:auto;mix-blend-mode:normal" transform="matrix(.26458 0 0 .26458 283.614 179)"/>
<path d="m77.657 49.71 4.382 13.217" fill="#ffdcdc" stroke="red" style="isolation:auto;mix-blend-mode:normal" transform="matrix(.26458 0 0 .26458 283.614 179)"/>
<path d="m119.92 35.05 4.382 13.218" fill="none" stroke="#00f" style="isolation:auto;mix-blend-mode:normal" transform="matrix(.26458 0 0 .26458 283.614 179)"/>
</g>
<g stroke-linejoin="round" stroke-miterlimit="100000" stroke-width="1.6">
<path d="M302.149 201.218c0-.096-.007-.1-.107-.1-.226.224-.549.227-.694.227v.128c.085 0 .319 0 .514-.1v1.807c0 .117 0 .163-.355.163h-.134v.128c.063-.004.5-.014.63-.014.11 0 .557.01.634.014v-.128h-.134c-.354 0-.354-.046-.354-.163z" fill="red"/>
<path d="M323.792 195.286h-.12c-.011.078-.046.287-.092.322-.029.021-.302.021-.351.021h-.652a12.4 12.4 0 0 1 .708-.595c.263-.209.507-.429.507-.765 0-.429-.375-.69-.829-.69-.44 0-.737.307-.737.633 0 .18.153.199.188.199.085 0 .188-.06.188-.188 0-.064-.025-.188-.21-.188.11-.251.351-.33.518-.33.354 0 .538.277.538.564 0 .308-.22.553-.333.68l-.853.843c-.036.032-.036.04-.036.138h1.46z" fill="#00f"/>
<g style="fill:#00f">
<path d="M320.74 192.67h.593c.096 0 .187 0 .187-.147 0-.09-.086-.09-.172-.09h-.567l.167-.917c.015-.091.015-.101.066-.147.066-.06.121-.06.147-.06.07 0 .116.01.177.035a.384.384 0 0 0-.213.329c0 .152.122.233.248.233a.375.375 0 0 0 .365-.375c0-.258-.264-.405-.577-.405a.806.806 0 0 0-.699.38c-.116.187-.146.385-.243.926h-.496c-.096 0-.182 0-.182.147 0 .091.086.091.167.091h.466l-.385 2.156c-.01.046-.066.364-.09.435-.011.026-.092.258-.254.258a.38.38 0 0 1-.172-.03.386.386 0 0 0 .223-.334c0-.152-.122-.233-.248-.233a.375.375 0 0 0-.365.375c0 .273.289.405.552.405.38 0 .643-.375.683-.44.218-.335.334-.977.35-1.064zM323.381 191.002a.163.163 0 0 0-.099.156.16.16 0 0 0 .166.167c.096 0 .17-.06.17-.174 0-.315-.492-.315-.591-.315-.531 0-.861.407-.861.815 0 .446.38.8.843.8.528 0 .652-.418.652-.46 0-.043-.046-.043-.06-.043-.046 0-.05.01-.067.06a.487.487 0 0 1-.482.33c-.245 0-.564-.18-.564-.69 0-.45.22-.699.55-.699.046 0 .216 0 .343.053z"/>
</g>
<g style="fill:red">
<path d="M299.7 200.21h.592c.096 0 .187 0 .187-.146 0-.092-.086-.092-.172-.092h-.567l.167-.916c.015-.09.015-.1.066-.146.066-.061.121-.061.146-.061.071 0 .117.01.178.035a.384.384 0 0 0-.213.33c0 .151.122.232.248.232a.375.375 0 0 0 .364-.374c0-.258-.263-.405-.577-.405a.806.806 0 0 0-.698.38c-.116.187-.147.384-.243.925h-.496c-.096 0-.182 0-.182.147 0 .091.086.091.167.091h.466l-.385 2.156c-.01.046-.066.365-.091.436-.01.025-.091.258-.253.258a.38.38 0 0 1-.172-.03.386.386 0 0 0 .222-.335c0-.151-.121-.232-.248-.232a.375.375 0 0 0-.364.374c0 .273.289.405.552.405.38 0 .642-.375.683-.44.218-.334.334-.977.35-1.063zM302.34 198.543a.163.163 0 0 0-.1.156.16.16 0 0 0 .167.166c.096 0 .17-.06.17-.174 0-.315-.492-.315-.591-.315-.532 0-.861.408-.861.815 0 .446.379.8.843.8.528 0 .652-.417.652-.46 0-.042-.046-.042-.06-.042-.046 0-.05.01-.068.06a.487.487 0 0 1-.482.33c-.244 0-.563-.181-.563-.692 0-.45.22-.697.55-.697.045 0 .215 0 .343.053z"/>
</g>
</g>
</g>
</svg>
