<svg width="221.58" height="137.02" viewBox="0 0 58.626 36.253" xml:space="preserve" xmlns="http://www.w3.org/2000/svg">
<defs>
<marker id="a" overflow="visible" orient="auto">
<path d="m-4 0-2 2 7-2-7-2Z" fill="red" fill-rule="evenodd" stroke="red" stroke-width=".4pt"/>
</marker>
<marker id="b" overflow="visible" orient="auto">
<path d="m-4 0-2 2 7-2-7-2Z" fill="#00f" fill-rule="evenodd" stroke="#00f" stroke-width=".4pt"/>
</marker>
</defs>
<g transform="translate(-353.974 -176.665)">
<ellipse transform="rotate(-37.672) skewX(.01)" cx="201.799" cy="403.084" rx="2.806" ry="2.864" color="#000" fill="#dcdcdc" stroke="#555" stroke-width=".529" style="isolation:auto;mix-blend-mode:normal"/>
<ellipse transform="rotate(-37.672) skewX(.01)" cx="166.06" cy="379.856" rx="3.968" ry="4.05" color="#000" fill="#dcdcdc" stroke="#555" stroke-width=".529" style="isolation:auto;mix-blend-mode:normal"/>
<path d="M367.9 199.138h9.859" color="#000" marker-end="url(#a)" stroke="red" style="isolation:auto;mix-blend-mode:normal;fill:none;stroke-width:.529166;shape-rendering:auto"/>
<path d="M403.033 195.68h-20.434" color="#000" marker-end="url(#b)" stroke="#00f" style="isolation:auto;mix-blend-mode:normal;fill:none;stroke-width:.529166;shape-rendering:auto"/>
<path d="m377.759 199.138-5.234 8.956" color="#000" marker-end="url(#a)" stroke="red" style="isolation:auto;mix-blend-mode:normal;fill:none;stroke-width:.529166;shape-rendering:auto"/>
<path d="m382.6 195.68 10.52-18.114" color="#000" marker-end="url(#b)" stroke="#00f" style="isolation:auto;mix-blend-mode:normal;fill:none;stroke-width:.529166;shape-rendering:auto"/>
<path d="m377.754 197.102 1.384-.404-.88-1.13 1.36.478-.04-1.427.815 1.177.815-1.177-.04 1.427 1.36-.479-.88 1.131 1.384.404-1.384.403.88 1.131-1.36-.478.04 1.426-.815-1.177-.816 1.177.04-1.426-1.36.478.88-1.131z" color="#000" fill="#f4ff00" stroke="#c2c216" stroke-miterlimit="5" stroke-width=".337" style="isolation:auto;mix-blend-mode:normal"/>
<path d="M33.066 52.104c0-.362-.027-.375-.401-.375-.857.844-2.076.857-2.625.857v.482c.322 0 1.205 0 1.942-.375v6.829c0 .442 0 .616-1.34.616h-.508v.482c.241-.013 1.888-.054 2.383-.054.415 0 2.103.04 2.397.054v-.482h-.509c-1.339 0-1.339-.174-1.339-.616z" transform="matrix(.26458 0 0 .26458 353.841 176.532)" style="fill:red"/>
<path d="M33.066 52.104c0-.362-.027-.375-.401-.375-.857.844-2.076.857-2.625.857v.482c.322 0 1.205 0 1.942-.375v6.829c0 .442 0 .616-1.34.616h-.508v.482c.241-.013 1.888-.054 2.383-.054.415 0 2.103.04 2.397.054v-.482h-.509c-1.339 0-1.339-.174-1.339-.616z" transform="matrix(.26458 0 0 .26458 355.314 196.195)" style="fill:red"/>
<g fill="#00f">
<path d="M404.187 183.944h-.12c-.011.078-.047.287-.093.322-.028.021-.301.021-.35.021h-.653a12.4 12.4 0 0 1 .709-.595c.262-.209.507-.429.507-.765 0-.429-.376-.691-.83-.691-.439 0-.736.308-.736.634 0 .18.152.199.187.199.086 0 .188-.06.188-.188 0-.064-.025-.188-.209-.188.11-.251.351-.33.517-.33.355 0 .539.277.539.564 0 .308-.22.553-.333.68l-.854.843c-.035.032-.035.04-.035.138h1.46zM406.584 204.89h-.12c-.01.079-.046.288-.092.323-.029.022-.301.022-.351.022h-.652a12.4 12.4 0 0 1 .709-.596c.262-.209.506-.428.506-.765 0-.428-.375-.69-.829-.69-.439 0-.737.308-.737.633 0 .181.153.199.188.199.085 0 .188-.06.188-.188 0-.064-.025-.188-.21-.188.11-.251.352-.33.518-.33.354 0 .539.277.539.564 0 .308-.22.553-.333.68l-.854.844c-.036.031-.036.039-.036.138h1.46zM405.155 184.532a.819.819 0 0 1-.276.648c-.015.014-.025.025-.025.043 0 .024.028.05.05.05.049 0 .35-.284.35-.706 0-.22-.085-.386-.248-.386a.2.2 0 0 0-.202.202.2.2 0 0 0 .206.205c.085 0 .141-.056.145-.056zM406.352 182.403a.205.205 0 0 0-.205-.202.202.202 0 0 0-.202.202c0 .127.103.205.202.205a.203.203 0 0 0 .205-.205zm-.538.662v.128c.223 0 .255.021.255.195v.92c0 .153-.036.153-.266.153v.128c.007 0 .255-.015.397-.015.124 0 .251.004.375.015v-.128c-.205 0-.24 0-.24-.149v-1.286zM408.571 183.515c0-.308-.152-.489-.531-.489-.29 0-.479.16-.578.344h-.003v-.344l-.521.04v.127c.237 0 .266.024.266.198v.918c0 .152-.036.152-.266.152v.127c.007 0 .255-.014.404-.014.13 0 .375.01.407.014v-.127c-.23 0-.266 0-.266-.152v-.638c0-.372.295-.546.528-.546.248 0 .28.195.28.376v.808c0 .152-.035.152-.265.152v.127c.007 0 .255-.014.403-.014.131 0 .376.01.408.014v-.127c-.23 0-.266 0-.266-.152zM409.985 181.991c0 .081 0 .187.106.187.111 0 .111-.101.111-.187v-2.875c0-.08 0-.187-.106-.187-.111 0-.111.101-.111.187z"/>
<path d="M409.985 185.028c0 .08 0 .187.106.187.111 0 .111-.101.111-.187v-2.875c0-.081 0-.187-.106-.187-.111 0-.111.1-.111.187zM407.553 205.48a.819.819 0 0 1-.277.647c-.014.015-.025.025-.025.043 0 .025.029.05.05.05.05 0 .35-.284.35-.705 0-.22-.084-.387-.247-.387a.2.2 0 0 0-.202.202.2.2 0 0 0 .205.206c.085 0 .142-.057.146-.057zM408.75 203.35a.205.205 0 0 0-.206-.202.202.202 0 0 0-.202.202c0 .128.103.205.202.205a.203.203 0 0 0 .206-.205zm-.539.662v.128c.224 0 .255.021.255.195v.921c0 .152-.035.152-.265.152v.128c.007 0 .255-.014.397-.014.124 0 .251.003.375.014v-.128c-.205 0-.24 0-.24-.148v-1.286zM410.969 204.462c0-.308-.153-.489-.532-.489-.29 0-.478.16-.577.344h-.004v-.344l-.52.04v.127c.237 0 .265.025.265.198v.918c0 .152-.035.152-.265.152v.128c.007 0 .255-.014.403-.014.132 0 .376.01.408.014v-.128c-.23 0-.266 0-.266-.152v-.638c0-.372.294-.545.528-.545.248 0 .28.194.28.375v.808c0 .152-.036.152-.266.152v.128c.007 0 .255-.014.404-.014.131 0 .376.01.407.014v-.128c-.23 0-.265 0-.265-.152zM412.382 202.938c0 .081 0 .188.107.188.111 0 .111-.102.111-.188v-2.874c0-.081 0-.188-.106-.188-.112 0-.112.102-.112.188z"/>
<path d="M412.382 205.975c0 .08 0 .187.107.187.111 0 .111-.101.111-.187V203.1c0-.08 0-.187-.106-.187-.112 0-.112.101-.112.187z"/>
</g>
<g style="fill:red">
<path d="M365.634 212.177a.819.819 0 0 1-.276.649c-.015.014-.025.024-.025.042 0 .025.028.05.05.05.049 0 .35-.284.35-.705 0-.22-.085-.386-.248-.386a.2.2 0 0 0-.202.201.2.2 0 0 0 .206.206c.085 0 .141-.057.145-.057zM366.831 210.048a.205.205 0 0 0-.205-.202.202.202 0 0 0-.202.202c0 .128.102.206.202.206a.203.203 0 0 0 .205-.206zm-.538.663v.127c.223 0 .255.021.255.195v.921c0 .153-.036.153-.266.153v.127c.007 0 .255-.014.397-.014.124 0 .251.003.375.014v-.127c-.205 0-.24 0-.24-.15v-1.285zM369.05 211.16c0-.308-.152-.488-.531-.488-.291 0-.479.159-.578.343h-.003v-.343l-.521.039v.127c.237 0 .266.025.266.199v.917c0 .152-.036.152-.266.152v.128c.007 0 .255-.014.404-.014.13 0 .375.01.407.014v-.128c-.23 0-.266 0-.266-.152v-.638c0-.372.295-.545.528-.545.248 0 .28.195.28.375v.808c0 .152-.035.152-.266.152v.128c.008 0 .256-.014.404-.014.131 0 .376.01.408.014v-.128c-.23 0-.266 0-.266-.152zM370.464 209.636c0 .081 0 .188.106.188.111 0 .111-.101.111-.188v-2.874c0-.081 0-.187-.106-.187-.111 0-.111.1-.111.187z"/>
<path d="M370.464 212.673c0 .081 0 .187.106.187.111 0 .111-.1.111-.187v-2.875c0-.08 0-.187-.106-.187-.111 0-.111.101-.111.187z"/>
</g>
<g style="fill:red">
<path d="M364.161 192.515a.819.819 0 0 1-.276.648c-.015.014-.025.025-.025.042 0 .025.028.05.05.05.049 0 .35-.283.35-.705 0-.22-.085-.386-.248-.386a.2.2 0 0 0-.202.202.2.2 0 0 0 .206.205c.085 0 .141-.056.145-.056zM365.358 190.385a.205.205 0 0 0-.205-.202.202.202 0 0 0-.202.202.203.203 0 1 0 .407 0zm-.538.663v.127c.223 0 .255.022.255.195v.921c0 .153-.036.153-.266.153v.127c.007 0 .255-.014.397-.014.124 0 .251.003.375.014v-.127c-.205 0-.24 0-.24-.149v-1.286zM367.577 191.498c0-.308-.152-.49-.531-.49-.29 0-.479.16-.578.344h-.003v-.343l-.521.039v.127c.237 0 .266.025.266.199v.917c0 .153-.036.153-.266.153v.127c.007 0 .255-.014.404-.014.13 0 .375.01.407.014v-.127c-.23 0-.265 0-.265-.153v-.637c0-.372.294-.546.527-.546.248 0 .28.195.28.376v.807c0 .153-.035.153-.265.153v.127c.007 0 .255-.014.403-.014.131 0 .376.01.408.014v-.127c-.23 0-.266 0-.266-.153zM368.99 189.974c0 .08 0 .187.107.187.111 0 .111-.101.111-.187v-2.875c0-.08 0-.187-.106-.187-.111 0-.111.101-.111.187z"/>
<path d="M368.99 193.01c0 .081 0 .188.107.188.111 0 .111-.102.111-.188v-2.874c0-.081 0-.188-.106-.188-.111 0-.111.102-.111.188z"/>
</g>
<path d="M158.212 21.206c0-3.003-1.779-3.94-3.194-3.94-2.621 0-5.146 2.735-5.146 5.432 0 1.779 1.148 3.233 3.099 3.233 1.205 0 2.582-.44 4.036-1.607.249 1.014.88 1.607 1.74 1.607 1.014 0 1.607-1.052 1.607-1.358 0-.134-.114-.192-.23-.192-.133 0-.19.058-.248.192-.344.937-1.033.937-1.071.937-.593 0-.593-1.492-.593-1.951 0-.402 0-.44.191-.67 1.798-2.257 2.2-4.476 2.2-4.495 0-.038-.019-.191-.23-.191-.19 0-.19.057-.286.402-.345 1.205-.976 2.658-1.875 3.787zm-1.282 2.62c-1.683 1.473-3.156 1.684-3.92 1.684-1.149 0-1.722-.86-1.722-2.085 0-.937.497-3.003 1.109-3.979.9-1.396 1.932-1.76 2.602-1.76 1.893 0 1.893 2.506 1.893 3.998 0 .708 0 1.817.038 2.143z" transform="matrix(.26458 0 0 .26458 353.841 176.532)" style="fill:#00f"/>
<path d="M158.212 21.206c0-3.003-1.779-3.94-3.194-3.94-2.621 0-5.146 2.735-5.146 5.432 0 1.779 1.148 3.233 3.099 3.233 1.205 0 2.582-.44 4.036-1.607.249 1.014.88 1.607 1.74 1.607 1.014 0 1.607-1.052 1.607-1.358 0-.134-.114-.192-.23-.192-.133 0-.19.058-.248.192-.344.937-1.033.937-1.071.937-.593 0-.593-1.492-.593-1.951 0-.402 0-.44.191-.67 1.798-2.257 2.2-4.476 2.2-4.495 0-.038-.019-.191-.23-.191-.19 0-.19.057-.286.402-.345 1.205-.976 2.658-1.875 3.787zm-1.282 2.62c-1.683 1.473-3.156 1.684-3.92 1.684-1.149 0-1.722-.86-1.722-2.085 0-.937.497-3.003 1.109-3.979.9-1.396 1.932-1.76 2.602-1.76 1.893 0 1.893 2.506 1.893 3.998 0 .708 0 1.817.038 2.143z" transform="matrix(.26458 0 0 .26458 314.32 204.178)" style="fill:red"/>
<g style="fill:#00f">
<path d="M398.109 181.991c0 .081 0 .187.106.187.111 0 .111-.101.111-.187v-2.875c0-.08 0-.187-.106-.187-.111 0-.111.101-.111.187z"/>
<path d="M398.109 185.028c0 .08 0 .187.106.187.111 0 .111-.101.111-.187v-2.875c0-.081 0-.187-.106-.187-.111 0-.111.1-.111.187zM400.999 180.15a.27.27 0 0 0-.542 0 .27.27 0 0 0 .542 0zM401.775 181.308a.378.378 0 0 0-.274.35c0 .11.086.232.253.232.178 0 .365-.147.365-.395 0-.268-.268-.445-.577-.445-.289 0-.476.217-.542.308-.126-.212-.41-.308-.698-.308-.638 0-.982.622-.982.79 0 .07.076.07.122.07.06 0 .096 0 .116-.066.147-.46.511-.612.719-.612.192 0 .283.091.283.253 0 .096-.07.374-.116.557l-.172.693c-.076.309-.259.46-.43.46-.026 0-.142 0-.244-.075a.378.378 0 0 0 .274-.35c0-.11-.086-.232-.253-.232-.177 0-.365.146-.365.394 0 .269.269.446.577.446.289 0 .476-.218.542-.309.126.213.41.309.698.309.638 0 .982-.623.982-.79 0-.07-.076-.07-.121-.07-.061 0-.097 0-.117.065-.147.46-.511.613-.719.613-.192 0-.283-.091-.283-.253 0-.107.066-.375.111-.562.036-.132.152-.608.178-.689.075-.303.253-.46.43-.46a.41.41 0 0 1 .243.076zM403.425 179.466a.247.247 0 0 0 .032-.113c0-.11-.1-.195-.21-.195-.134 0-.176.11-.194.166l-.468 1.534a.526.526 0 0 0-.017.057c0 .043.11.078.138.078.025 0 .028-.007.053-.06z"/>
</g>
<g style="fill:#00f">
<path d="M400.506 202.938c0 .081 0 .188.107.188.111 0 .111-.102.111-.188v-2.874c0-.081 0-.188-.106-.188-.112 0-.112.102-.112.188z"/>
<path d="M400.506 205.975c0 .08 0 .187.107.187.111 0 .111-.101.111-.187V203.1c0-.08 0-.187-.106-.187-.112 0-.112.101-.112.187zM403.396 201.097a.27.27 0 0 0-.542 0 .27.27 0 0 0 .542 0zM404.172 202.255a.378.378 0 0 0-.273.35c0 .11.086.232.253.232.177 0 .364-.147.364-.395 0-.268-.268-.445-.577-.445-.288 0-.475.218-.541.309-.127-.213-.41-.309-.699-.309-.637 0-.981.623-.981.79 0 .07.076.07.121.07.06 0 .096 0 .116-.065.147-.46.512-.613.72-.613.191 0 .283.091.283.253 0 .096-.071.375-.117.557l-.172.693c-.076.31-.258.46-.43.46-.025 0-.142 0-.243-.075a.378.378 0 0 0 .273-.35c0-.11-.086-.232-.253-.232-.177 0-.364.147-.364.395 0 .268.268.445.577.445.288 0 .476-.218.541-.309.127.213.41.31.699.31.637 0 .982-.623.982-.79 0-.071-.076-.071-.122-.071-.06 0-.096 0-.116.066-.147.46-.511.612-.719.612-.192 0-.283-.091-.283-.253 0-.106.065-.375.11-.562.036-.131.153-.607.178-.688.076-.304.253-.46.43-.46a.41.41 0 0 1 .243.075zM405.822 200.413a.247.247 0 0 0 .032-.113c0-.11-.099-.195-.209-.195-.134 0-.177.11-.195.167l-.467 1.534a.526.526 0 0 0-.018.056c0 .043.11.078.138.078.025 0 .029-.007.053-.06z"/>
</g>
<g style="fill:red">
<path d="M357.115 189.974c0 .08 0 .187.106.187.111 0 .111-.101.111-.187v-2.875c0-.08 0-.187-.106-.187-.111 0-.111.101-.111.187z"/>
<path d="M357.115 193.01c0 .081 0 .188.106.188.111 0 .111-.102.111-.188v-2.874c0-.081 0-.188-.106-.188-.111 0-.111.102-.111.188zM360.004 188.132a.27.27 0 0 0-.542 0c0 .137.117.268.27.268a.27.27 0 0 0 .272-.268zM360.78 189.29a.378.378 0 0 0-.273.35c0 .111.086.233.253.233.177 0 .365-.147.365-.395 0-.268-.269-.446-.577-.446-.289 0-.476.218-.542.31-.126-.213-.41-.31-.698-.31-.638 0-.982.623-.982.79 0 .07.076.07.121.07.061 0 .096 0 .117-.065.146-.46.51-.612.718-.612.193 0 .284.09.284.253 0 .096-.071.374-.117.556l-.172.694c-.076.309-.258.46-.43.46-.025 0-.142 0-.243-.076a.378.378 0 0 0 .273-.349c0-.111-.086-.233-.253-.233-.177 0-.364.147-.364.395 0 .268.268.446.577.446.288 0 .476-.218.541-.31.127.213.41.31.699.31.638 0 .982-.623.982-.79 0-.07-.076-.07-.122-.07-.06 0-.096 0-.116.065-.147.46-.511.612-.719.612-.192 0-.283-.09-.283-.253 0-.106.066-.374.111-.561.036-.132.152-.608.177-.689.076-.303.253-.46.43-.46a.41.41 0 0 1 .243.076zM362.43 187.449a.247.247 0 0 0 .033-.114c0-.11-.1-.194-.21-.194-.134 0-.177.11-.194.166l-.468 1.534a.526.526 0 0 0-.018.057c0 .042.11.078.138.078.025 0 .029-.007.054-.06z"/>
</g>
<g style="fill:red">
<path d="M358.588 209.636c0 .081 0 .188.106.188.111 0 .111-.101.111-.188v-2.874c0-.081 0-.187-.106-.187-.111 0-.111.1-.111.187z"/>
<path d="M358.588 212.673c0 .081 0 .187.106.187.111 0 .111-.1.111-.187v-2.875c0-.08 0-.187-.106-.187-.111 0-.111.101-.111.187zM361.477 207.795a.27.27 0 0 0-.542 0 .27.27 0 0 0 .542 0zM362.253 208.953a.378.378 0 0 0-.273.35c0 .11.086.232.253.232.177 0 .364-.146.364-.394 0-.269-.268-.446-.576-.446-.289 0-.476.218-.542.309-.127-.213-.41-.309-.698-.309-.638 0-.982.623-.982.79 0 .07.076.07.121.07.06 0 .096 0 .117-.065.146-.46.51-.613.718-.613.193 0 .284.092.284.253 0 .097-.071.375-.117.557l-.172.694c-.076.308-.258.46-.43.46-.025 0-.142 0-.243-.076a.378.378 0 0 0 .273-.349c0-.111-.086-.233-.253-.233-.177 0-.364.147-.364.395 0 .268.268.445.577.445.288 0 .476-.217.541-.308.127.212.41.308.699.308.638 0 .982-.622.982-.79 0-.07-.076-.07-.122-.07-.06 0-.096 0-.116.066-.147.46-.511.612-.719.612-.192 0-.283-.091-.283-.253 0-.106.066-.374.111-.562.036-.131.152-.607.177-.688.076-.304.253-.46.43-.46a.41.41 0 0 1 .243.075zM363.904 207.112a.247.247 0 0 0 .031-.114c0-.11-.099-.195-.209-.195-.134 0-.177.11-.194.167l-.468 1.534a.526.526 0 0 0-.018.057c0 .042.11.077.138.077.025 0 .029-.007.054-.06z"/>
</g>
</g>
</svg>
