<svg width="227.396" height="126.353" viewBox="0 0 60.165 33.431" xml:space="preserve" xmlns="http://www.w3.org/2000/svg">
<defs>
<marker id="a" overflow="visible" orient="auto">
<path d="m-4 0-2 2 7-2-7-2Z" fill="red" fill-rule="evenodd" stroke="red" stroke-width=".4pt"/>
</marker>
<marker id="b" overflow="visible" orient="auto">
<path d="m-4 0-2 2 7-2-7-2Z" fill-rule="evenodd" stroke="#000" stroke-width=".4pt"/>
</marker>
<marker id="c" overflow="visible" orient="auto">
<path d="m-4 0-2 2 7-2-7-2Z" fill="#00f" fill-rule="evenodd" stroke="#00f" stroke-width=".4pt"/>
</marker>
<marker id="d" overflow="visible" orient="auto">
<path d="m-4 0-2 2 7-2-7-2Z" fill="red" fill-rule="evenodd" stroke="red" stroke-width=".4pt"/>
</marker>
<marker id="e" overflow="visible" orient="auto">
<path d="m-4 0-2 2 7-2-7-2Z" fill="#00f" fill-rule="evenodd" stroke="#00f" stroke-width=".4pt"/>
</marker>
</defs>
<g transform="translate(-286.68 -223.157)">
<circle cx="312.656" cy="244.82" r="9.049" color="#000" fill="#ffdcdc" stroke="red" stroke-linejoin="round" stroke-miterlimit="100000" stroke-width=".529" style="isolation:auto;mix-blend-mode:normal"/>
<path color="#000" fill="#c6c6ff" stroke="#00f" stroke-linejoin="round" stroke-width=".529" style="isolation:auto;mix-blend-mode:normal" d="M322.052 233.569h13.229v22.754h-13.229z"/>
<path d="M286.68 244.946h15.206" color="#000" marker-end="url(#a)" stroke="red" style="isolation:auto;mix-blend-mode:normal;fill:none;stroke-width:.79375;shape-rendering:auto"/>
<path d="M311.712 227.748h18.58" color="#000" marker-end="url(#b)" stroke="#000" style="isolation:auto;mix-blend-mode:normal;fill:none;stroke-width:.79375;shape-rendering:auto"/>
<path d="M346.81 244.946h-9.878" color="#000" marker-end="url(#c)" stroke="#00f" style="isolation:auto;mix-blend-mode:normal;fill:none;stroke-width:.79375;shape-rendering:auto"/>
<path d="M321.788 244.946h-9.383" color="#000" marker-end="url(#d)" stroke="red" stroke-width=".529" style="isolation:auto;mix-blend-mode:normal;fill:none;shape-rendering:auto"/>
<path d="M321.788 244.946h9.383" color="#000" marker-end="url(#e)" stroke="#00f" stroke-width=".529" style="isolation:auto;mix-blend-mode:normal;fill:none;shape-rendering:auto"/>
<g stroke-linejoin="round" stroke-miterlimit="100000">
<g stroke-width="1.5">
<path d="M295.03 252.382c-.145.231-.275.263-.39.273-.031.003-.07.006-.07.06 0 .01.007.045.045.045.028 0 .048-.01.27-.01.216 0 .289.01.305.01.015 0 .063 0 .063-.06 0-.042-.041-.045-.057-.045-.067-.003-.133-.029-.133-.099 0-.047.025-.089.085-.18l.216-.35h.87l.067.537c0 .044-.057.092-.207.092-.047 0-.088 0-.088.06 0 .003.003.045.054.045.031 0 .152-.007.18-.01h.2c.286 0 .34.01.366.01.012 0 .063 0 .063-.06 0-.045-.041-.045-.092-.045-.175 0-.178-.029-.187-.108l-.251-1.962c-.01-.07-.013-.092-.067-.092-.057 0-.076.031-.095.063zm.4-.46.658-1.045.133 1.044z" fill="red"/>
<path d="M344.857 252.509c-.028.12-.035.146-.27.146-.06 0-.098 0-.098.06 0 .045.041.045.095.045h1.178c.524 0 .914-.372.914-.68 0-.232-.2-.419-.517-.454.368-.07.686-.311.686-.59 0-.239-.232-.445-.632-.445h-1.108c-.057 0-.099 0-.099.06 0 .045.039.045.093.045.104 0 .196 0 .196.05 0 .013-.003.016-.012.058zm.496-.921.193-.775c.029-.108.032-.117.162-.117h.457c.311 0 .381.203.381.333 0 .27-.289.559-.695.559zm-.22 1.067c-.028-.007-.038-.007-.038-.029 0-.025.007-.05.013-.07l.222-.88h.645c.295 0 .394.2.394.379 0 .31-.305.6-.686.6z" fill="#00f"/>
<path d="M320.485 223.8c.029-.12.076-.31.076-.353 0-.152-.124-.21-.224-.21a.324.324 0 0 0-.242.12.668.668 0 0 0-.505-.2c-.829 0-1.343.752-1.343 1.405 0 .585.438.785.833.785.338 0 .586-.185.662-.257.181.257.495.257.548.257.176 0 .314-.1.414-.271.12-.19.181-.448.181-.472 0-.066-.071-.066-.114-.066-.053 0-.072 0-.095.024-.01.01-.01.019-.038.138-.096.38-.205.476-.324.476-.053 0-.11-.02-.11-.176 0-.081.02-.157.067-.348l.105-.429zm-.79 1.066c-.139.162-.362.31-.591.31-.295 0-.32-.257-.32-.362 0-.248.163-.833.239-1.02.148-.347.381-.466.576-.466.281 0 .396.224.396.276l-.01.067z"/>
</g>
<path d="M313.748 251.594c-.124.191-.237.283-.446.297-.036.004-.082.004-.082.075 0 .039.032.053.05.053.092 0 .209-.014.304-.014.114 0 .26.014.365.014.018 0 .071 0 .071-.078 0-.046-.046-.05-.06-.05-.028-.003-.156-.01-.156-.106 0-.042.036-.103.053-.135l.284-.439h1.013l.085.588c-.014.036-.036.092-.245.092-.042 0-.092 0-.092.078 0 .014.01.05.057.05.103 0 .354-.014.457-.014l.209.003c.064.003.138.01.202.01.046 0 .07-.028.07-.074 0-.053-.042-.053-.098-.053-.206 0-.213-.028-.224-.113l-.311-2.186c-.01-.074-.018-.1-.085-.1-.068 0-.089.033-.12.082zm.468-.51.744-1.159.166 1.159z" fill="red"/>
<path d="M330.15 251.743c-.032.12-.039.149-.311.149-.06 0-.107 0-.107.074 0 .053.043.053.107.053h1.37c.596 0 1.053-.407 1.053-.758 0-.252-.23-.468-.606-.507.429-.078.786-.347.786-.652 0-.269-.272-.503-.733-.503h-1.29c-.067 0-.113 0-.113.078 0 .05.043.05.114.05.003 0 .07 0 .134.007.075.007.082.014.082.05 0 .007 0 .024-.014.078zm.567-1.031.216-.865c.029-.11.032-.12.181-.12h.538c.362 0 .443.237.443.372 0 .287-.322.613-.797.613zm-.17 1.18c-.11 0-.113-.004-.113-.036 0-.003 0-.021.014-.074l.244-.971h.751c.333 0 .461.22.461.425 0 .35-.358.656-.787.656z" fill="#00f"/>
</g>
<path d="M213.865 100.99h2.106c.342 0 .666 0 .666-.522 0-.324-.306-.324-.612-.324h-2.016l.594-3.258c.054-.324.054-.36.234-.522.234-.216.432-.216.522-.216.252 0 .414.036.63.126-.432.216-.756.684-.756 1.17 0 .54.432.828.882.828.738 0 1.296-.648 1.296-1.332 0-.918-.936-1.44-2.052-1.44-.846 0-1.854.342-2.484 1.35-.414.666-.522 1.368-.864 3.294h-1.764c-.342 0-.648 0-.648.522 0 .324.306.324.594.324h1.656l-1.368 7.668c-.036.162-.234 1.296-.324 1.548-.036.09-.324.918-.9.918-.342 0-.486-.054-.612-.108.45-.216.792-.684.792-1.188 0-.54-.432-.828-.882-.828-.738 0-1.296.648-1.296 1.332 0 .972 1.026 1.44 1.962 1.44 1.35 0 2.286-1.332 2.43-1.566.774-1.188 1.188-3.474 1.242-3.78z" transform="matrix(.26458 0 0 .26458 286.547 223.024)" style="fill:#00f"/>
<path d="M213.865 100.99h2.106c.342 0 .666 0 .666-.522 0-.324-.306-.324-.612-.324h-2.016l.594-3.258c.054-.324.054-.36.234-.522.234-.216.432-.216.522-.216.252 0 .414.036.63.126-.432.216-.756.684-.756 1.17 0 .54.432.828.882.828.738 0 1.296-.648 1.296-1.332 0-.918-.936-1.44-2.052-1.44-.846 0-1.854.342-2.484 1.35-.414.666-.522 1.368-.864 3.294h-1.764c-.342 0-.648 0-.648.522 0 .324.306.324.594.324h1.656l-1.368 7.668c-.036.162-.234 1.296-.324 1.548-.036.09-.324.918-.9.918-.342 0-.486-.054-.612-.108.45-.216.792-.684.792-1.188 0-.54-.432-.828-.882-.828-.738 0-1.296.648-1.296 1.332 0 .972 1.026 1.44 1.962 1.44 1.35 0 2.286-1.332 2.43-1.566.774-1.188 1.188-3.474 1.242-3.78z" transform="matrix(.26458 0 0 .26458 271.596 222.038)" style="fill:#00f"/>
<path d="M213.865 100.99h2.106c.342 0 .666 0 .666-.522 0-.324-.306-.324-.612-.324h-2.016l.594-3.258c.054-.324.054-.36.234-.522.234-.216.432-.216.522-.216.252 0 .414.036.63.126-.432.216-.756.684-.756 1.17 0 .54.432.828.882.828.738 0 1.296-.648 1.296-1.332 0-.918-.936-1.44-2.052-1.44-.846 0-1.854.342-2.484 1.35-.414.666-.522 1.368-.864 3.294h-1.764c-.342 0-.648 0-.648.522 0 .324.306.324.594.324h1.656l-1.368 7.668c-.036.162-.234 1.296-.324 1.548-.036.09-.324.918-.9.918-.342 0-.486-.054-.612-.108.45-.216.792-.684.792-1.188 0-.54-.432-.828-.882-.828-.738 0-1.296.648-1.296 1.332 0 .972 1.026 1.44 1.962 1.44 1.35 0 2.286-1.332 2.43-1.566.774-1.188 1.188-3.474 1.242-3.78z" transform="matrix(.26458 0 0 .26458 255.137 222.038)" style="fill:red"/>
<path d="M213.865 100.99h2.106c.342 0 .666 0 .666-.522 0-.324-.306-.324-.612-.324h-2.016l.594-3.258c.054-.324.054-.36.234-.522.234-.216.432-.216.522-.216.252 0 .414.036.63.126-.432.216-.756.684-.756 1.17 0 .54.432.828.882.828.738 0 1.296-.648 1.296-1.332 0-.918-.936-1.44-2.052-1.44-.846 0-1.854.342-2.484 1.35-.414.666-.522 1.368-.864 3.294h-1.764c-.342 0-.648 0-.648.522 0 .324.306.324.594.324h1.656l-1.368 7.668c-.036.162-.234 1.296-.324 1.548-.036.09-.324.918-.9.918-.342 0-.486-.054-.612-.108.45-.216.792-.684.792-1.188 0-.54-.432-.828-.882-.828-.738 0-1.296.648-1.296 1.332 0 .972 1.026 1.44 1.962 1.44 1.35 0 2.286-1.332 2.43-1.566.774-1.188 1.188-3.474 1.242-3.78z" transform="matrix(.26458 0 0 .26458 236.67 223.024)" style="fill:red"/>
<path d="M167.463 90.96a.615.615 0 0 0-.375.59c0 .36.254.628.63.628.36 0 .642-.227.642-.656 0-1.191-1.861-1.191-2.236-1.191-2.008 0-3.254 1.54-3.254 3.08 0 1.686 1.433 3.025 3.187 3.025 1.995 0 2.464-1.58 2.464-1.74 0-.16-.174-.16-.228-.16-.174 0-.187.04-.254.227-.295.83-1.004 1.245-1.821 1.245-.924 0-2.13-.683-2.13-2.611 0-1.7.83-2.638 2.076-2.638.174 0 .817 0 1.299.201z" transform="matrix(.26458 0 0 .26458 286.547 223.024)" style="fill:#00f"/>
<path d="M167.463 90.96a.615.615 0 0 0-.375.59c0 .36.254.628.63.628.36 0 .642-.227.642-.656 0-1.191-1.861-1.191-2.236-1.191-2.008 0-3.254 1.54-3.254 3.08 0 1.686 1.433 3.025 3.187 3.025 1.995 0 2.464-1.58 2.464-1.74 0-.16-.174-.16-.228-.16-.174 0-.187.04-.254.227-.295.83-1.004 1.245-1.821 1.245-.924 0-2.13-.683-2.13-2.611 0-1.7.83-2.638 2.076-2.638.174 0 .817 0 1.299.201z" transform="matrix(.26458 0 0 .26458 270.089 223.024)" style="fill:red"/>
</g>
</svg>
