<svg width="170.425" height="116.289" viewBox="0 0 45.092 30.768" xml:space="preserve" xmlns="http://www.w3.org/2000/svg">
<g transform="translate(-352.536 -135.71)">
<circle cx="366.029" cy="152.985" r="13.229" color="#000" fill="#dcdcdc" stroke="#555" stroke-width=".529" style="isolation:auto;mix-blend-mode:normal"/>
<circle cx="387.705" cy="145.633" r="9.657" color="#000" fill="#dcdcdc" stroke="#555" stroke-width=".529" style="isolation:auto;mix-blend-mode:normal"/>
<path d="m378.557 148.736 9.148-3.103" fill="none" stroke="#000" stroke-width=".265"/>
<path d="m366.03 152.985 12.53-4.25" fill="none" stroke="#000" style="stroke-width:.264583"/>
<circle cx="366.029" cy="152.985" r=".661" color="#000" style="stroke-width:.264583"/>
<circle cx="387.705" cy="145.633" r=".661" color="#000" style="stroke-width:.264583"/>
<path d="M364.652 155.294a.354.354 0 0 0-.256.328c0 .104.08.218.237.218.166 0 .342-.138.342-.37 0-.252-.252-.418-.541-.418-.27 0-.446.204-.508.29-.118-.2-.384-.29-.655-.29-.597 0-.92.584-.92.74 0 .067.071.067.114.067.057 0 .09 0 .109-.062.138-.432.48-.574.674-.574.18 0 .265.085.265.237 0 .09-.066.351-.109.522l-.161.65c-.071.29-.242.432-.403.432-.024 0-.133 0-.228-.071a.354.354 0 0 0 .256-.328c0-.104-.08-.218-.237-.218-.166 0-.342.138-.342.37 0 .252.252.418.541.418.27 0 .446-.204.508-.29.119.2.384.29.655.29.598 0 .92-.584.92-.74 0-.067-.071-.067-.114-.067-.057 0-.09 0-.109.062-.137.432-.48.574-.674.574-.18 0-.265-.085-.265-.237 0-.1.061-.351.104-.527.033-.123.142-.57.166-.645.071-.285.237-.432.403-.432.024 0 .133 0 .228.071zM391.866 146.79a.354.354 0 0 0-.257.326c0 .105.081.219.238.219.166 0 .341-.138.341-.37 0-.252-.251-.418-.54-.418-.271 0-.447.204-.508.29-.119-.2-.385-.29-.655-.29-.598 0-.92.584-.92.74 0 .067.07.067.113.067.057 0 .09 0 .11-.062.137-.432.479-.574.673-.574.18 0 .266.085.266.237 0 .09-.066.351-.11.522l-.16.65c-.072.29-.242.432-.404.432-.024 0-.133 0-.228-.071a.354.354 0 0 0 .257-.328c0-.104-.081-.218-.238-.218-.166 0-.341.138-.341.37 0 .252.251.418.54.418.271 0 .447-.204.508-.29.119.2.385.29.655.29.598 0 .92-.584.92-.74 0-.067-.07-.067-.113-.067-.057 0-.09 0-.11.062-.137.432-.479.574-.673.574-.18 0-.266-.086-.266-.237 0-.1.062-.351.105-.527.033-.123.142-.57.166-.645.07-.285.237-.432.403-.432.024 0 .133 0 .228.071zM394.127 148.799h-.113c-.01.073-.043.269-.086.302-.027.02-.283.02-.33.02h-.61c.348-.309.465-.402.664-.558.246-.196.475-.402.475-.717 0-.402-.352-.648-.777-.648-.412 0-.691.289-.691.595 0 .169.143.186.176.186.08 0 .176-.057.176-.177 0-.06-.023-.176-.196-.176a.522.522 0 0 1 .485-.308c.332 0 .505.259.505.528 0 .289-.206.518-.313.637l-.8.79c-.033.03-.033.037-.033.13h1.368zM384.96 145.038h-.114c-.01.073-.043.27-.086.303-.026.02-.282.02-.329.02h-.61c.348-.31.464-.402.663-.558.246-.196.475-.402.475-.718 0-.402-.352-.648-.777-.648-.412 0-.69.29-.69.595 0 .17.142.186.175.186.08 0 .176-.056.176-.176 0-.06-.023-.176-.196-.176a.522.522 0 0 1 .485-.309c.333 0 .505.26.505.528 0 .29-.206.518-.312.638l-.8.79c-.034.03-.034.037-.034.13h1.369zM366.348 155.796c0-.09-.006-.093-.1-.093-.212.21-.514.213-.65.213v.12c.08 0 .299 0 .481-.094v1.694c0 .11 0 .153-.332.153h-.126v.12c.06-.004.468-.014.591-.014.103 0 .522.01.595.013v-.12h-.127c-.332 0-.332-.042-.332-.152zM372.457 147.377c0-.09-.006-.093-.1-.093-.212.21-.514.213-.65.213v.12c.08 0 .298 0 .481-.094v1.694c0 .11 0 .153-.332.153h-.126v.12c.06-.004.468-.014.591-.014.103 0 .521.01.594.013v-.12h-.126c-.332 0-.332-.042-.332-.152zM369.535 145.865c.028-.114.043-.162.133-.176.042-.005.194-.005.29-.005.336 0 .863 0 .863.47 0 .161-.076.489-.261.674-.124.123-.375.275-.802.275h-.532zm.683 1.3c.48-.105 1.044-.437 1.044-.916 0-.408-.427-.712-1.049-.712h-1.352c-.095 0-.137 0-.137.095 0 .052.042.052.132.052.01 0 .1 0 .18.01.086.01.129.014.129.076 0 .019-.005.033-.02.09l-.635 2.548c-.047.185-.057.223-.432.223-.085 0-.128 0-.128.095 0 .052.057.052.067.052.132 0 .465-.014.597-.014.133 0 .47.014.603.014.038 0 .095 0 .095-.095 0-.052-.043-.052-.133-.052-.176 0-.308 0-.308-.086 0-.028.01-.052.014-.08l.313-1.258h.565c.431 0 .517.266.517.432 0 .071-.038.218-.067.328a2.182 2.182 0 0 0-.076.403c0 .512.57.512.631.512.404 0 .57-.479.57-.545 0-.057-.052-.057-.057-.057-.043 0-.052.033-.062.066-.118.351-.322.432-.432.432-.156 0-.19-.104-.19-.29 0-.147.03-.389.048-.54.01-.067.02-.157.02-.223 0-.366-.319-.513-.447-.56zM381.473 142.018c.028-.114.042-.161.132-.176.043-.004.195-.004.29-.004.337 0 .863 0 .863.47 0 .16-.076.488-.26.673-.124.123-.375.275-.802.275h-.532zm.683 1.3c.479-.104 1.044-.437 1.044-.916 0-.408-.427-.712-1.049-.712h-1.352c-.095 0-.138 0-.138.095 0 .053.043.053.133.053.01 0 .1 0 .18.01.086.009.128.013.128.075 0 .019-.004.033-.019.09l-.635 2.548c-.048.185-.057.223-.432.223-.086 0-.128 0-.128.095 0 .052.057.052.066.052.133 0 .465-.014.598-.014.133 0 .47.014.603.014.038 0 .095 0 .095-.095 0-.052-.043-.052-.133-.052-.176 0-.309 0-.309-.085 0-.029.01-.053.014-.081l.314-1.257h.564c.432 0 .517.265.517.431 0 .072-.038.219-.066.328a2.182 2.182 0 0 0-.076.403c0 .513.57.513.631.513.403 0 .57-.48.57-.546 0-.057-.053-.057-.057-.057-.043 0-.053.033-.062.066-.119.351-.323.432-.432.432-.156 0-.19-.104-.19-.29 0-.146.029-.388.048-.54.01-.067.019-.157.019-.223 0-.366-.318-.513-.446-.56z"/>
</g>
</svg>
