<svg width="189.448" height="126.202" viewBox="0 0 50.125 33.391" xml:space="preserve" xmlns:xlink="http://www.w3.org/1999/xlink" xmlns="http://www.w3.org/2000/svg">
<defs>
<path id="c" d="M6.408-4.794a.893.893 0 0 0-.646.825c0 .263.204.55.598.55.419 0 .86-.347.86-.933 0-.633-.633-1.052-1.362-1.052-.681 0-1.124.514-1.28.73-.298-.503-.968-.73-1.649-.73-1.506 0-2.32 1.47-2.32 1.865 0 .168.18.168.288.168.143 0 .227 0 .275-.156.346-1.088 1.207-1.446 1.697-1.446.455 0 .67.215.67.597 0 .228-.168.885-.275 1.315l-.407 1.638c-.179.73-.61 1.088-1.016 1.088-.06 0-.335 0-.574-.18a.893.893 0 0 0 .646-.824c0-.263-.203-.55-.598-.55-.418 0-.86.347-.86.933 0 .633.633 1.052 1.362 1.052.682 0 1.124-.514 1.28-.73.298.502.968.73 1.65.73 1.506 0 2.318-1.47 2.318-1.865 0-.168-.179-.168-.286-.168-.144 0-.228 0-.275.156C6.157-.693 5.296-.335 4.806-.335c-.454 0-.67-.215-.67-.598 0-.25.156-.884.263-1.327.084-.31.36-1.434.419-1.625.18-.718.598-1.088 1.016-1.088.06 0 .335 0 .574.179z"/>
<path id="l" d="M2.295-.634a.638.638 0 0 0-.633-.633.638.638 0 0 0-.634.633c0 .347.287.634.634.634a.638.638 0 0 0 .633-.634Z"/>
<path id="e" d="M1.205-1.49c.126.076.427.26.912.26.862 0 1.49-.578 1.49-1.23 0-.327-.15-.586-.352-.804.377-.268.703-.276.846-.276-.034.034-.076.067-.076.2a.26.26 0 0 0 .268.269.265.265 0 0 0 .268-.276c0-.193-.16-.427-.494-.427-.125 0-.577.025-.97.385a1.672 1.672 0 0 0-.971-.302c-.862 0-1.49.578-1.49 1.23 0 .327.167.628.402.846a1.136 1.136 0 0 0-.251.678c0 .109.025.502.351.745C.762-.067.326.209.326.644c0 .611.92 1.072 2.05 1.072 1.063 0 2.051-.419 2.051-1.088 0-.251-.1-.703-.56-.954-.494-.26-.988-.26-1.8-.26-.184 0-.485 0-.552-.008-.268-.059-.419-.31-.419-.552 0-.21.059-.277.11-.344zm.92.009c-.82 0-.82-.804-.82-.98 0-.133 0-.468.168-.686a.84.84 0 0 1 .644-.293c.82 0 .82.804.82.98 0 .134 0 .468-.167.686a.84.84 0 0 1-.644.293zm0 1.456c.745 0 1.792 0 1.792.661 0 .444-.662.829-1.54.829-.879 0-1.54-.394-1.54-.829 0-.293.268-.653.803-.661z"/>
<path id="d" d="M2.427-3.95a.583.583 0 0 0 .075-.268c0-.26-.234-.46-.494-.46-.318 0-.418.26-.46.393L.444-.66a1.192 1.192 0 0 0-.042.134c0 .1.26.184.326.184.059 0 .067-.017.126-.142z"/>
<path id="f" d="M8.213-3.91c.18 0 .407 0 .407-.238 0-.24-.227-.24-.395-.24H1.064c-.167 0-.395 0-.395.24 0 .239.228.239.407.239zm.012 2.32c.168 0 .395 0 .395-.24 0-.238-.227-.238-.407-.238H1.076c-.18 0-.407 0-.407.239s.228.239.395.239z"/>
<path id="g" d="M1.399-2.606c0-1.949.98-2.451 1.614-2.451.107 0 .86.012 1.279.442-.49.036-.562.395-.562.55 0 .311.215.55.55.55.31 0 .55-.203.55-.562 0-.813-.909-1.279-1.83-1.279-1.494 0-2.594 1.291-2.594 2.774 0 1.53 1.184 2.714 2.57 2.714 1.603 0 1.985-1.435 1.985-1.555 0-.12-.12-.12-.155-.12-.108 0-.132.049-.155.12C4.304-.31 3.527-.167 3.084-.167c-.633 0-1.685-.514-1.685-2.44z"/>
<path id="i" d="M1.315-4.113v3.204c0 .538-.131.538-.932.538V0C.8-.012 1.41-.036 1.733-.036c.311 0 .933.024 1.34.036v-.37c-.802 0-.933 0-.933-.539v-2.2c0-1.243.849-1.912 1.614-1.912.753 0 .885.645.885 1.327V-.91c0 .538-.132.538-.933.538V0c.419-.012 1.028-.036 1.351-.036.31 0 .933.024 1.339.036v-.37c-.622 0-.92 0-.932-.36v-2.283c0-1.028 0-1.398-.371-1.829-.167-.203-.562-.442-1.255-.442-.873 0-1.435.514-1.77 1.255v-1.255l-1.685.131v.37c.836 0 .932.085.932.67z"/>
<path id="h" d="M5.63-2.558c0-1.53-1.195-2.798-2.641-2.798-1.495 0-2.654 1.303-2.654 2.798 0 1.542 1.243 2.69 2.642 2.69a2.664 2.664 0 0 0 2.654-2.69zM2.99-.168c-.514 0-1.04-.25-1.363-.8-.299-.526-.299-1.256-.299-1.686 0-.466 0-1.112.287-1.638.323-.55.885-.8 1.363-.8.526 0 1.04.262 1.35.776.312.514.312 1.208.312 1.662 0 .43 0 1.076-.263 1.602a1.542 1.542 0 0 1-1.387.885z"/>
<path id="j" d="M2.487-2.32c.263.049 1.243.24 1.243 1.1 0 .61-.418 1.088-1.35 1.088C1.374-.132.943-.813.716-1.829.681-1.985.67-2.032.55-2.032c-.155 0-.155.083-.155.298v1.579c0 .203 0 .287.131.287.06 0 .072-.012.299-.24.024-.024.024-.047.239-.275a1.786 1.786 0 0 0 1.315.515c1.375 0 1.925-.801 1.925-1.662 0-.634-.359-.993-.502-1.136-.395-.383-.861-.478-1.363-.574-.67-.131-1.47-.287-1.47-.98 0-.419.31-.909 1.338-.909 1.315 0 1.375 1.076 1.4 1.447.011.107.119.107.143.107.155 0 .155-.06.155-.287v-1.207c0-.203 0-.287-.132-.287-.06 0-.083 0-.239.144a1.54 1.54 0 0 1-.203.19c-.454-.334-.944-.334-1.124-.334-1.458 0-1.912.801-1.912 1.47 0 .419.19.754.514 1.017.382.31.717.382 1.578.55z"/>
<path id="k" d="M2.068-4.782h1.71v-.37h-1.71v-2.2H1.77c-.012.98-.37 2.26-1.542 2.307v.263h1.016v3.3c0 1.47 1.112 1.614 1.543 1.614.848 0 1.183-.85 1.183-1.614v-.682H3.67v.658c0 .884-.358 1.339-.8 1.339-.802 0-.802-1.088-.802-1.292z"/>
<marker id="a" overflow="visible" orient="auto">
<path d="m-4 0-2 2 7-2-7-2Z" fill-rule="evenodd" stroke="#000" stroke-width=".4pt"/>
</marker>
<marker id="b" overflow="visible" orient="auto">
<path d="m-4 0-2 2 7-2-7-2Z" fill-rule="evenodd" stroke="#000" stroke-width=".4pt"/>
</marker>
</defs>
<g transform="translate(-360.035 -225.042)">
<path d="m378.414 245.48 1.384-.404-.88-1.13 1.36.478-.04-1.427.815 1.177.816-1.177-.04 1.427 1.36-.479-.881 1.131 1.384.404-1.384.403.88 1.131-1.36-.478.04 1.426-.815-1.177-.816 1.177.04-1.426-1.36.478.881-1.131z" color="#000" fill="#f4ff00" stroke="#c2c216" stroke-miterlimit="5" stroke-width=".337" style="isolation:auto;mix-blend-mode:normal;shape-rendering:auto"/>
<path d="m364.297 247.516 42.488-3.458" color="#000" fill="none" stroke="red" style="isolation:auto;mix-blend-mode:normal;stroke-width:.529166;shape-rendering:auto"/>
<ellipse transform="rotate(-37.672) skewX(.01)" cx="172.749" cy="441.779" rx="2.806" ry="2.864" color="#000" fill="#dcdcdc" stroke="#555" style="isolation:auto;mix-blend-mode:normal;stroke-width:.529166;shape-rendering:auto"/>
<ellipse transform="rotate(-37.672) skewX(.01)" cx="137.01" cy="418.551" rx="3.968" ry="4.05" color="#000" fill="#dcdcdc" stroke="#555" style="isolation:auto;mix-blend-mode:normal;stroke-width:.529166;shape-rendering:auto"/>
<path d="M368.56 247.516h9.86l-5.235 8.956" color="#000" fill="none" marker-end="url(#a)" stroke="#000" stroke-dasharray="1.05833, 1.05833" style="isolation:auto;mix-blend-mode:normal;stroke-width:.529166;marker-end:url(#a);shape-rendering:auto"/>
<path d="M403.693 244.057H383.26l10.52-18.113" color="#000" fill="none" marker-end="url(#b)" stroke="#000" stroke-dasharray="1.05833, 1.05833" style="isolation:auto;mix-blend-mode:normal;stroke-width:.529166;marker-end:url(#b);shape-rendering:auto"/>
<g fill="red" stroke-linejoin="round" stroke-miterlimit="100000" stroke-width=".516" transform="matrix(.42333 0 0 .42333 302.447 219.092)">
<use x="195.672" y="88.26" width="100%" height="100%" xlink:href="#c"/>
<use x="203.551" y="83.324" width="100%" height="100%" xlink:href="#d"/>
<use x="203.551" y="91.216" width="100%" height="100%" xlink:href="#e"/>
<use x="212.363" y="88.26" width="100%" height="100%" xlink:href="#f"/>
<use x="224.948" y="88.26" width="100%" height="100%" xlink:href="#g"/>
<use x="230.241" y="88.26" width="100%" height="100%" xlink:href="#h"/>
<use x="236.197" y="88.26" width="100%" height="100%" xlink:href="#i"/>
<use x="242.814" y="88.26" width="100%" height="100%" xlink:href="#j"/>
<use x="247.512" y="88.26" width="100%" height="100%" xlink:href="#k"/>
<use x="252.144" y="88.26" width="100%" height="100%" xlink:href="#l"/>
</g>
<path d="m380.334 246.21 4.15 8.131" color="#000" fill="none" stroke="red" stroke-dasharray="0.529166, 1.05833" style="stroke-width:.264583"/>
<circle transform="rotate(-26.402)" cx="231.182" cy="389.652" r="1.058" color="#000" fill="red"/>
</g>
</svg>
