<svg width="123.373" height="85.523" viewBox="0 0 32.643 22.628" xml:space="preserve" xmlns="http://www.w3.org/2000/svg">
<defs>
<marker id="a" overflow="visible" orient="auto">
<path d="m-4 0-2 2 7-2-7-2Z" fill="red" fill-rule="evenodd" stroke="red" stroke-width=".4pt"/>
</marker>
<marker id="b" overflow="visible" orient="auto">
<path d="m-4 0-2 2 7-2-7-2Z" fill="#00f" fill-rule="evenodd" stroke="#00f" stroke-width=".4pt"/>
</marker>
</defs>
<g transform="translate(-286.015 -269.66)">
<circle cx="295.768" cy="282.976" r="9.049" color="#000" fill="#ffdcdc" stroke="red" stroke-width=".529" style="isolation:auto;mix-blend-mode:normal;shape-rendering:auto"/>
<path d="M286.698 274.32c-.19.318-.375.384-.584.399-.057.005-.1.005-.1.094 0 .029.024.053.062.053.129 0 .276-.015.409-.015.156 0 .322.015.474.015.028 0 .09 0 .09-.09 0-.053-.043-.057-.076-.057-.109-.01-.223-.048-.223-.166 0-.057.029-.11.067-.176l.36-.607h1.191c.01.1.076.745.076.792 0 .142-.247.157-.342.157-.066 0-.113 0-.113.095 0 .052.056.052.066.052.194 0 .398-.015.593-.015.119 0 .418.015.536.015.029 0 .086 0 .086-.095 0-.052-.048-.052-.11-.052-.294 0-.294-.034-.308-.171l-.29-2.966c-.008-.095-.008-.114-.09-.114-.075 0-.094.034-.123.081zm.57-.698.934-1.565.152 1.565z" color="#000" fill="red" style="isolation:auto;mix-blend-mode:normal;stroke-width:.264583;shape-rendering:auto"/>
<path d="M305.423 272.531c-.047.185-.057.223-.432.223-.08 0-.128 0-.128.095 0 .052.043.052.128.052h1.694c.75 0 1.31-.56 1.31-1.025 0-.341-.275-.616-.736-.669.494-.09.992-.44.992-.892 0-.35-.313-.654-.883-.654h-1.594c-.09 0-.137 0-.137.094 0 .053.042.053.133.053.009 0 .1 0 .18.009.085.01.128.014.128.076 0 .019-.005.033-.02.09zm.717-1.366.294-1.177c.042-.166.052-.18.256-.18h.612c.418 0 .517.28.517.488 0 .418-.408.869-.987.869zm-.214 1.59c-.066 0-.076 0-.104-.006-.048-.005-.062-.009-.062-.047 0-.015 0-.024.024-.11l.327-1.323h.897c.455 0 .545.35.545.555 0 .47-.422.93-.982.93z" color="#000" fill="#00f" style="isolation:auto;mix-blend-mode:normal;stroke-width:.264583;shape-rendering:auto"/>
<path color="#000" fill="#c6c6ff" stroke="#00f" stroke-width=".529" style="isolation:auto;mix-blend-mode:normal;shape-rendering:auto" d="M305.164 273.927h13.229v18.097h-13.229z"/>
<path d="M304.899 283.1h-11.742" color="#000" fill="none" marker-end="url(#a)" stroke="red" stroke-width=".529" style="isolation:auto;mix-blend-mode:normal;marker-end:url(#a);shape-rendering:auto"/>
<path d="M304.899 283.1h11.742" color="#000" fill="none" marker-end="url(#b)" stroke="#00f" stroke-width=".529" style="isolation:auto;mix-blend-mode:normal;marker-end:url(#b);shape-rendering:auto"/>
<path d="M299.78 281.678v2.845" color="#000" fill="#ffdcdc" stroke="red" style="isolation:auto;mix-blend-mode:normal;stroke-width:.264583;shape-rendering:auto"/>
<path d="M309.085 281.678v2.845" color="#000" fill="none" stroke="#00f" style="isolation:auto;mix-blend-mode:normal;stroke-width:.264583;shape-rendering:auto"/>
<path d="M300.713 281.678v2.845" color="#000" fill="#ffdcdc" stroke="red" style="isolation:auto;mix-blend-mode:normal;stroke-width:.264583;shape-rendering:auto"/>
<path d="M310.017 281.678v2.845" color="#000" fill="none" stroke="#00f" style="isolation:auto;mix-blend-mode:normal;stroke-width:.264583;shape-rendering:auto"/>
<path d="M296.989 289.749c-.124.191-.238.283-.447.297-.035.003-.081.003-.081.075 0 .039.032.053.05.053.092 0 .208-.014.304-.014.114 0 .259.014.365.014.018 0 .07 0 .07-.078 0-.046-.045-.05-.06-.05-.028-.003-.155-.01-.155-.106 0-.042.035-.103.053-.134l.283-.44h1.014l.085.588c-.015.036-.036.092-.245.092-.042 0-.092 0-.092.078 0 .015.01.05.057.05.102 0 .354-.014.457-.014l.209.003c.064.003.138.01.202.01.046 0 .07-.028.07-.074 0-.053-.042-.053-.099-.053-.205 0-.212-.029-.223-.114l-.312-2.185c-.01-.075-.017-.1-.085-.1-.067 0-.088.032-.12.082zm.467-.51.744-1.159.167 1.159z" fill="red" style="stroke-width:.264583"/>
<path d="M313.269 289.898c-.032.12-.04.149-.312.149-.06 0-.106 0-.106.074 0 .053.042.053.106.053h1.371c.595 0 1.052-.407 1.052-.758 0-.251-.23-.468-.605-.507.428-.078.786-.347.786-.651 0-.27-.273-.503-.733-.503h-1.29c-.067 0-.113 0-.113.077 0 .05.042.05.113.05.004 0 .071 0 .135.007.074.007.081.014.081.05 0 .007 0 .024-.014.078zm.567-1.031.216-.865c.028-.11.032-.12.18-.12h.539c.361 0 .443.237.443.372 0 .287-.323.613-.797.613zm-.17 1.18c-.11 0-.114-.003-.114-.036 0-.003 0-.021.015-.074l.244-.97h.751c.333 0 .46.219.46.424 0 .351-.357.656-.786.656z" fill="#00f" style="stroke-width:.264583"/>
<g style="fill:#00f">
<path d="M311.333 286.914h.592c.097 0 .188 0 .188-.147 0-.091-.086-.091-.172-.091h-.567l.167-.916c.015-.091.015-.102.066-.147.065-.06.121-.06.146-.06.071 0 .117.01.177.035a.384.384 0 0 0-.212.329c0 .151.121.232.248.232a.375.375 0 0 0 .364-.374c0-.258-.263-.405-.577-.405a.806.806 0 0 0-.698.38c-.117.187-.147.384-.243.926h-.496c-.096 0-.182 0-.182.146 0 .092.086.092.167.092h.465l-.384 2.156c-.01.045-.066.364-.091.435-.01.025-.091.258-.253.258a.38.38 0 0 1-.172-.03.386.386 0 0 0 .222-.334c0-.152-.121-.233-.248-.233a.375.375 0 0 0-.364.374c0 .274.288.405.551.405.38 0 .643-.374.684-.44.217-.334.334-.977.349-1.063zM313.974 285.246a.163.163 0 0 0-.1.156.16.16 0 0 0 .167.166c.096 0 .17-.06.17-.173 0-.316-.492-.316-.591-.316-.532 0-.861.408-.861.815 0 .447.379.8.843.8.528 0 .652-.417.652-.46 0-.042-.046-.042-.06-.042-.047 0-.05.01-.068.06a.487.487 0 0 1-.482.33c-.244 0-.563-.181-.563-.691 0-.45.22-.698.55-.698.045 0 .215 0 .343.053z"/>
</g>
<g style="fill:red">
<path d="M294.996 286.914h.592c.096 0 .187 0 .187-.147 0-.091-.086-.091-.172-.091h-.566l.167-.916c.015-.091.015-.102.065-.147.066-.06.122-.06.147-.06.071 0 .117.01.177.035a.384.384 0 0 0-.212.329c0 .151.121.232.248.232a.375.375 0 0 0 .364-.374c0-.258-.263-.405-.577-.405a.806.806 0 0 0-.698.38c-.117.187-.147.384-.243.926h-.496c-.096 0-.182 0-.182.146 0 .092.086.092.167.092h.465l-.384 2.156c-.01.045-.066.364-.091.435-.01.025-.092.258-.254.258a.38.38 0 0 1-.172-.03.386.386 0 0 0 .223-.334c0-.152-.121-.233-.248-.233a.375.375 0 0 0-.364.374c0 .274.288.405.551.405.38 0 .643-.374.684-.44.217-.334.334-.977.349-1.063zM297.637 285.246a.163.163 0 0 0-.1.156.16.16 0 0 0 .167.166c.096 0 .17-.06.17-.173 0-.316-.492-.316-.592-.316-.531 0-.86.408-.86.815 0 .447.379.8.843.8.528 0 .652-.417.652-.46 0-.042-.047-.042-.06-.042-.047 0-.05.01-.068.06a.487.487 0 0 1-.482.33c-.244 0-.563-.181-.563-.691 0-.45.22-.698.549-.698.046 0 .216 0 .344.053z"/>
</g>
</g>
</svg>
