<svg width="151.43" height="97.868" xmlns="http://www.w3.org/2000/svg">
<defs>
<marker id="a" overflow="visible" orient="auto">
<path d="m-10 0-4 4L0 0l-14-4z" fill="red" fill-rule="evenodd" stroke="red" stroke-width=".8pt"/>
</marker>
</defs>
<g fill="none" stroke-linecap="round" color="#000">
<path d="M87.436 50.595 73.195 47.81m31.26 6.114-17.02-3.329m37.716 7.377-20.697-4.048M150.862 63l-25.711-5.028m-64.92-7.79 12.964-2.372m1.24 5.623 13-2.838m4.236 6.784 12.783-3.455m8.571 8.343 12.126-4.295m15.022 10.509L150.862 63m-76.427-9.568-14.204-3.251m31.44 7.197-17.236-3.946m38.59 8.834-21.354-4.888m48.502 11.102-27.148-6.214m-67.942-9.313 15.148-2.772M59.014 56.8l15.421-3.367m1.792 8.12 15.444-4.174m6.367 10.196 14.987-5.308m13.548 13.187 13.6-6.973M59.013 56.8l-13.93-3.846m31.144 8.599L59.014 56.8m39.024 10.775-21.811-6.022m50.346 13.901-28.535-7.879m-70.89-11.34 17.935-3.281m-4.658 7.904L59.014 56.8m-1.82 9.897 19.033-5.144m2.813 12.751 18.998-6.729m10.647 17.051 17.889-9.172M5.579 60.182l12.002 5.664 15.574 7.348 21.02 9.918L84.1 97.232M40.425 60.859l-13.277-4.623m30.045 10.462-16.768-5.839M79.04 74.304l-21.848-7.607m51.492 17.93L79.041 74.303M5.578 60.182l21.57-3.947m-9.567 9.61 22.844-4.987m-7.27 12.336 24.038-6.497m-3.019 16.415 24.867-8.808M84.1 97.233l24.585-12.607" stroke="#000" stroke-width=".3"/>
<path d="M5.578 60.182V2.441" marker-end="url(#a)" stroke="red" style="isolation:auto;mix-blend-mode:normal"/>
<path d="m5.578 60.182 83.864-1.15" marker-end="url(#a)" stroke="red"/>
</g>
<path d="M97.76 36.721c0-.484-.412-.95-.95-.95a.959.959 0 0 0-.968.95c0 .484.413.95.95.95.61 0 .969-.502.969-.95zM100.511 40.826a1.34 1.34 0 0 0-.968 1.237c0 .395.304.825.896.825.628 0 1.291-.52 1.291-1.398 0-.95-.95-1.579-2.044-1.579-1.022 0-1.686.772-1.919 1.094-.448-.753-1.452-1.094-2.474-1.094-2.26 0-3.48 2.206-3.48 2.798 0 .251.27.251.431.251.215 0 .34 0 .412-.233.52-1.632 1.812-2.17 2.547-2.17.681 0 1.004.323 1.004.897 0 .34-.25 1.327-.412 1.972l-.61 2.457c-.269 1.094-.915 1.632-1.524 1.632-.09 0-.502 0-.861-.27a1.34 1.34 0 0 0 .968-1.236c0-.395-.305-.825-.896-.825-.628 0-1.292.52-1.292 1.398 0 .95.95 1.578 2.045 1.578 1.022 0 1.685-.77 1.919-1.093.448.753 1.452 1.093 2.474 1.093 2.26 0 3.48-2.205 3.48-2.797 0-.251-.27-.251-.431-.251-.215 0-.34 0-.413.233-.52 1.632-1.81 2.17-2.546 2.17-.681 0-1.004-.323-1.004-.897 0-.376.233-1.327.394-1.99.126-.467.538-2.152.628-2.44.269-1.075.897-1.631 1.524-1.631.09 0 .502 0 .861.269z"/>
<g stroke-width="1.333">
<path d="M27.59 3.699a.643.643 0 0 0 .096-.268c0-.134-.019-.153-.459-.153H14.03c-.44 0-.46.02-.46.153 0 .077.058.21.096.268l6.447 12.912c.134.248.19.363.516.363s.383-.115.517-.363zm-11.648.956h10.501l-5.241 10.521zM43.09 3.048a.194.194 0 0 0-.21-.191c-.058 0-.077.019-.288.23l-1.339 1.472c-.172-.268-1.052-1.702-3.175-1.702-4.265 0-8.57 4.227-8.57 8.665 0 3.041 2.124 5.241 5.223 5.241.841 0 1.702-.172 2.39-.46.957-.382 1.32-.783 1.665-1.166.172.478.67 1.186.86 1.186.096 0 .135-.057.135-.076.038-.039.23-.766.325-1.167l.363-1.473c.077-.325.172-.65.249-.976.21-.86.23-.899 1.32-.918.095 0 .306-.02.306-.382 0-.134-.096-.21-.249-.21-.44 0-1.568.057-2.008.057-.593 0-2.085-.058-2.678-.058-.172 0-.402 0-.402.383 0 .21.153.21.574.21.019 0 .574 0 1.014.038.497.058.593.115.593.364 0 .172-.21 1.033-.402 1.74-.536 2.105-3.022 2.315-3.692 2.315-1.836 0-3.845-1.09-3.845-4.017 0-.593.192-3.75 2.2-6.236 1.033-1.3 2.889-2.467 4.782-2.467 1.951 0 3.08 1.473 3.08 3.691 0 .766-.058.785-.058.976s.21.191.287.191c.25 0 .25-.038.345-.382zM111.41 73.284c-1.522-.437-3.076-.844-4.831-1.076-2.262-.295-3.48-.003-3.96.192-.694.28-1.075.767.15 1.482.912.55 2.331 1.026 3.872 1.496 1.467.447 3.304.972 5.314 1.219 2.154.27 3.391 0 3.938-.263.596-.286.996-.81-.453-1.592-1.027-.556-2.503-1.02-4.03-1.458m4.03 2.916c-.436.208-1.615.37-3.773-.12-1.328-.305-3.143-.852-4.29-1.197-1.229-.37-2.48-.747-3.398-1.091-1.97-.75-1.262-1.153-.974-1.27.377-.154 1.453-.363 3.48.077 1.151.255 2.58.67 3.782 1.019 1.449.42 2.78.808 3.93 1.232 1.753.635 1.74 1.112 1.242 1.35m-13.867 1.298c.19-.083.428-.188.037-.314-.389-.125-.628-.021-.805.056L92.78 80.72c-.198.086-.469.204-.074.346.396.143.666.024.879-.069l7.986-3.5m3.891 1.253c.176-.08.413-.19.006-.321-.405-.13-.642-.023-.83.063l-7.943 3.619c-.212.096-.48.219-.069.367.414.15.683.026.88-.065l7.957-3.663m-24.685 2.057a.537.537 0 0 0-.353-.003c-.046.018-.043.031-.01.177l.341.997c-.402-.045-2.516-.299-4.29.412-3.688 1.478-3.42 4.882 1.192 6.927 3.318 1.471 7.744 1.641 10.491.323.73-.35 1.272-.785 1.533-1.198.374-.559.227-.885.087-1.192.678.147 1.887.27 2.045.195.079-.038.045-.078.024-.087-.012-.032-.672-.43-1.041-.645l-1.326-.78c-.292-.168-.567-.343-.856-.51-.751-.44-.777-.464.088-.868.077-.035.227-.118-.16-.268a.562.562 0 0 0-.423.003c-.356.158-1.216.591-1.578.752-.49.218-1.8.748-2.302.971-.146.065-.341.152.066.319.224.091.355.033.712-.127.016-.008.485-.217.895-.366.477-.161.618-.173.884-.066.185.074.941.526 1.554.909 1.893 1.15.019 2.25-.56 2.526-1.61.766-4.641 1.088-7.857-.31-.636-.277-3.771-1.79-4.484-3.63-.374-.92.102-2.047 1.716-2.699 1.63-.657 3.994-.47 6.205.395.776.303.749.33.944.407.195.077.367.003.43-.024.201-.086.162-.101-.112-.271l-3.855-2.27"/>
</g>
</svg>
