<svg width="188.541" height="62.521" xmlns="http://www.w3.org/2000/svg" xmlns:xlink="http://www.w3.org/1999/xlink">
<defs>
<symbol id="c">
<path d="M94.86 6.758a1.34 1.34 0 0 0-.969 1.238c0 .394.305.824.897.824.627 0 1.29-.52 1.29-1.398 0-.95-.95-1.578-2.044-1.578-1.022 0-1.685.77-1.918 1.094-.449-.754-1.453-1.094-2.475-1.094-2.26 0-3.479 2.205-3.479 2.797 0 .251.269.251.43.251.216 0 .341 0 .413-.233.52-1.632 1.811-2.17 2.546-2.17.682 0 1.005.323 1.005.897 0 .34-.252 1.327-.413 1.972l-.61 2.457c-.269 1.094-.914 1.632-1.524 1.632-.09 0-.502 0-.86-.269a1.34 1.34 0 0 0 .968-1.237c0-.395-.305-.825-.897-.825-.628 0-1.291.52-1.291 1.399 0 .95.95 1.578 2.044 1.578 1.022 0 1.686-.771 1.919-1.094.448.753 1.453 1.094 2.475 1.094 2.26 0 3.479-2.206 3.479-2.798 0-.25-.27-.25-.43-.25-.216 0-.341 0-.413.232-.52 1.632-1.811 2.17-2.547 2.17-.681 0-1.004-.323-1.004-.896 0-.377.233-1.328.395-1.991.125-.466.538-2.152.627-2.439.27-1.076.897-1.632 1.525-1.632.09 0 .502 0 .86.27z" stroke-linejoin="round" stroke-miterlimit="100000" stroke-width="1.5"/>
</symbol>
<symbol id="d">
<path d="M105.99 18.253c0-.054 0-.09-.305-.394-2.241-2.26-2.815-5.65-2.815-8.393 0-3.12.681-6.24 2.887-8.482.233-.215.233-.251.233-.305 0-.125-.072-.18-.18-.18-.179 0-1.793 1.22-2.85 3.498-.915 1.972-1.13 3.963-1.13 5.47 0 1.398.197 3.568 1.183 5.594 1.076 2.206 2.618 3.372 2.798 3.372.107 0 .179-.054.179-.18z" stroke-linejoin="round" stroke-miterlimit="100000" stroke-width="1.5"/>
</symbol>
<symbol id="e">
<path d="M110.723 6.776h1.686c.358 0 .538 0 .538-.358 0-.198-.18-.198-.502-.198h-1.579c.646-2.546.736-2.905.736-3.012 0-.305-.215-.485-.52-.485-.054 0-.556.018-.718.646l-.699 2.851h-1.686c-.358 0-.538 0-.538.341 0 .215.144.215.502.215h1.579c-1.292 5.093-1.363 5.398-1.363 5.72 0 .97.681 1.65 1.65 1.65 1.829 0 2.85-2.618 2.85-2.761 0-.18-.143-.18-.214-.18-.162 0-.18.055-.27.252-.77 1.865-1.721 2.295-2.33 2.295-.377 0-.557-.233-.557-.825 0-.43.036-.556.108-.86z" stroke-linejoin="round" stroke-miterlimit="100000" stroke-width="1.5"/>
</symbol>
<symbol id="f">
<path d="M140.08 6.113c-2.242.538-3.981 2.87-3.981 5.04 0 1.72 1.148 3.012 2.833 3.012 2.098 0 3.587-2.815 3.587-5.29 0-1.632-.717-2.529-1.327-3.336-.646-.807-1.704-2.152-1.704-2.94 0-.395.359-.826.987-.826.538 0 .896.234 1.273.485.358.215.717.448.986.448.448 0 .717-.43.717-.717 0-.395-.287-.449-.932-.592-.933-.197-1.184-.197-1.47-.197-1.4 0-2.045.77-2.045 1.847 0 .968.52 1.972 1.076 3.066zm.215.395c.449.825.987 1.793.987 3.084 0 1.184-.682 4.179-2.35 4.179-.986 0-1.721-.754-1.721-2.117 0-1.13.663-4.5 3.084-5.146z" stroke-linejoin="round" stroke-miterlimit="100000" stroke-width="1.5"/>
</symbol>
<symbol id="k">
<use transform="matrix(1.6 0 0 1.6 -276.701 -127.231)" x="185.299" y="88.26" width="100%" height="100%" stroke-linejoin="round" stroke-miterlimit="100000" stroke-width=".833" xlink:href="#a"/>
</symbol>
<symbol id="l">
<use transform="matrix(1.6 0 0 1.6 -276.701 -127.231)" x="194.663" y="90.054" width="100%" height="100%" stroke-linejoin="round" stroke-miterlimit="100000" stroke-width=".833" xlink:href="#b"/>
</symbol>
<path id="a" d="M9.086-8.309a.121.121 0 0 0-.132-.12c-.035 0-.047.013-.179.144l-.837.92c-.107-.167-.657-1.063-1.984-1.063-2.666 0-5.356 2.642-5.356 5.415C.598-1.112 1.925.263 3.862.263c.526 0 1.064-.108 1.494-.287.598-.239.825-.49 1.04-.73.108.3.418.742.538.742.06 0 .084-.036.084-.048.024-.024.143-.478.203-.729l.227-.92c.048-.204.108-.407.155-.61.132-.538.144-.562.825-.574.06 0 .192-.012.192-.24 0-.083-.06-.13-.156-.13-.275 0-.98.035-1.255.035-.37 0-1.303-.036-1.674-.036-.107 0-.25 0-.25.24 0 .13.095.13.358.13.012 0 .358 0 .633.025.311.036.371.071.371.227 0 .107-.131.645-.251 1.088C6.061-.24 4.507-.108 4.089-.108c-1.148 0-2.403-.681-2.403-2.51 0-.37.12-2.343 1.375-3.898.645-.813 1.805-1.542 2.988-1.542 1.22 0 1.925.92 1.925 2.308 0 .478-.036.49-.036.61s.132.119.18.119c.155 0 .155-.024.215-.24z"/>
<path id="i" d="M2.469-3.64C1.213-3.322.51-2.243.51-1.364.51-.477 1.188.1 2.017.1c1.012 0 1.8-1.188 1.8-2.41 0-.811-.436-1.289-.696-1.573-.31-.352-.937-1.038-.937-1.423 0-.108.117-.351.46-.351.285 0 .52.134.703.234.076.042.377.218.503.218.2 0 .351-.184.351-.352 0-.209-.109-.226-.56-.318-.101-.017-.486-.1-.754-.1-.627 0-.979.368-.979.879 0 .443.268.954.56 1.456zm.142.226c.234.376.536.862.536 1.464 0 .686-.41 1.816-1.113 1.816-.46 0-.913-.301-.913-.996 0-.552.318-2 1.49-2.284z"/>
<path id="b" d="M2.059-3.306h.853c.16 0 .268 0 .268-.184 0-.117-.109-.117-.251-.117h-.795l.31-1.238c.008-.042.025-.084.025-.118 0-.15-.117-.267-.285-.267-.209 0-.335.142-.393.36-.059.209.05-.193-.318 1.263H.619c-.159 0-.268 0-.268.184 0 .117.1.117.252.117h.795L.904-1.33c-.05.21-.126.51-.126.62 0 .493.419.795.896.795.929 0 1.456-1.172 1.456-1.28s-.109-.11-.134-.11c-.1 0-.109.017-.176.16-.234.527-.66.995-1.121.995-.176 0-.293-.108-.293-.41 0-.083.033-.26.05-.343z"/>
<path id="h" d="M3.875-1.891h2.56c.11 0 .31 0 .31-.201 0-.21-.192-.21-.31-.21h-2.56V-4.87c0-.108 0-.31-.201-.31-.21 0-.21.193-.21.31v2.57H.896c-.108 0-.31 0-.31.2 0 .21.193.21.31.21h2.57V.678c0 .109 0 .31.2.31.21 0 .21-.193.21-.31z"/>
<path id="j" d="M5.5-3.826c0-.956-.06-1.912-.479-2.797-.55-1.148-1.53-1.34-2.032-1.34-.718 0-1.59.312-2.08 1.424-.383.824-.443 1.757-.443 2.713 0 .897.048 1.973.538 2.882A2.19 2.19 0 0 0 2.977.263c.645 0 1.554-.251 2.08-1.387.383-.825.442-1.757.442-2.702zM2.976 0C2.51 0 1.805-.299 1.59-1.447c-.131-.717-.131-1.817-.131-2.522 0-.765 0-1.554.095-2.2.227-1.423 1.124-1.53 1.423-1.53.394 0 1.183.215 1.41 1.399.12.67.12 1.578.12 2.33 0 .898 0 1.71-.131 2.476C4.196-.36 3.515 0 2.976 0z"/>
<path id="g" d="M8.213-3.91c.18 0 .407 0 .407-.238s-.227-.24-.395-.24H1.064c-.167 0-.395 0-.395.24s.228.239.407.239zm.012 2.32c.168 0 .395 0 .395-.24s-.227-.238-.407-.238H1.076c-.18 0-.407 0-.407.239s.228.239.395.239z"/>
</defs>
<path d="M.736 25.007c71.444 17.317 112.06-2.729 187.24 2.122" color="#000" fill="none" stroke="#000" stroke-linejoin="round"/>
<use transform="translate(-65.195 43.588)" width="100%" height="100%" xlink:href="#c"/>
<use transform="translate(-65.196 43.588)" width="100%" height="100%" xlink:href="#d"/>
<use transform="matrix(-1 0 0 1 155.295 43.588)" width="100%" height="100%" xlink:href="#d"/>
<use transform="translate(-65.197 43.588)" width="100%" height="100%" xlink:href="#e"/>
<path d="M139.75 53.414h5.003c.251 0 .592 0 .592-.359s-.34-.359-.592-.359h-5.003v-5.02c0-.252 0-.593-.359-.593s-.358.341-.358.592v5.021h-5.021c-.252 0-.592 0-.592.359s.34.359.592.359h5.02v5.02c0 .252 0 .593.36.593s.358-.341.358-.592z"/>
<use transform="translate(14.95 43.588)" width="100%" height="100%" xlink:href="#c"/>
<use transform="translate(14.95 43.588)" width="100%" height="100%" xlink:href="#d"/>
<use transform="matrix(-1 0 0 1 272.38 43.589)" width="100%" height="100%" xlink:href="#d"/>
<use transform="translate(14.95 43.588)" width="100%" height="100%" xlink:href="#e"/>
<use transform="translate(52.03 43.032)" width="100%" height="100%" xlink:href="#e"/>
<use transform="translate(14.95 43.588)" width="100%" height="100%" xlink:href="#f"/>
<g stroke-width=".833">
<use transform="matrix(1.6 0 0 1.6 -261.858 -127.231)" x="202.193" y="88.26" width="100%" height="100%" xlink:href="#g"/>
<use transform="matrix(1.6 0 0 1.6 -243.722 -127.231)" x="227.741" y="90.054" width="100%" height="100%" fill="#00f" xlink:href="#h"/>
<use transform="matrix(1.6 0 0 1.6 -243.722 -127.231)" x="235.052" y="90.054" width="100%" height="100%" fill="#00f" xlink:href="#i"/>
<use transform="matrix(1.6 0 0 1.6 -243.722 -127.231)" x="247.272" y="88.26" width="100%" height="100%" xlink:href="#g"/>
<use transform="matrix(1.6 0 0 1.6 -243.722 -127.231)" x="259.857" y="88.26" width="100%" height="100%" xlink:href="#j"/>
</g>
<circle transform="rotate(-26.402)" cx="9.796" cy="38.139" color="#000" fill="#5e5bff" r="5"/>
<circle transform="rotate(-26.402)" cx="81.651" cy="73.64" color="#000" fill="#5e5bff" r="5"/>
<use width="100%" height="100%" xlink:href="#k"/>
<use transform="translate(80.146 -.056)" width="100%" height="100%" fill="#00f" xlink:href="#k"/>
<use width="100%" height="100%" xlink:href="#l"/>
<use transform="translate(80.147 -.02)" width="100%" height="100%" fill="#00f" xlink:href="#l"/>
<use transform="translate(105.015 .05)" width="100%" height="100%" fill="#00f" xlink:href="#l"/>
</svg>
