<svg width="112.426" height="104.221" xmlns="http://www.w3.org/2000/svg">
<path d="M61.821 84.567 4.88 16.372" fill="none" stroke="#000"/>
<path d="m105.966 86.549 5.96-12.94-4.717 1.915V49.796h-2.6v25.699l-4.716-1.885z" color="#000" fill="red" style="text-decoration-line:none;text-indent:0;text-transform:none"/>
<g stroke-width="1.5">
<path d="M57.32 98.267c.036-.108.486-1.008 1.152-1.584.468-.432 1.08-.72 1.782-.72.72 0 .972.54.972 1.26 0 .108 0 .468-.216 1.314l-.45 1.854c-.144.54-.486 1.872-.522 2.07-.072.27-.18.738-.18.81 0 .252.198.45.468.45.54 0 .63-.414.792-1.062l1.08-4.302c.036-.144.972-2.394 2.952-2.394.72 0 .972.54.972 1.26 0 1.008-.702 2.97-1.098 4.05-.162.432-.252.666-.252.99 0 .81.558 1.458 1.422 1.458 1.674 0 2.304-2.646 2.304-2.754 0-.09-.072-.162-.18-.162-.162 0-.18.054-.27.36-.414 1.44-1.08 2.196-1.8 2.196-.18 0-.468-.018-.468-.594 0-.468.216-1.044.288-1.242.324-.864 1.134-2.988 1.134-4.032 0-1.08-.63-1.89-1.998-1.89-1.206 0-2.178.684-2.898 1.746-.054-.972-.648-1.746-1.998-1.746-1.602 0-2.448 1.134-2.772 1.584-.054-1.026-.792-1.584-1.584-1.584-.522 0-.936.252-1.278.936-.324.648-.576 1.746-.576 1.818s.072.162.198.162c.144 0 .162-.018.27-.432.27-1.062.612-2.124 1.332-2.124.414 0 .558.288.558.828 0 .396-.18 1.098-.306 1.656l-.504 1.944c-.072.342-.27 1.152-.36 1.476-.126.468-.324 1.314-.324 1.404 0 .252.198.45.468.45a.69.69 0 0 0 .612-.378c.036-.09.198-.72.288-1.08l.396-1.62zM26.277 52.93c.018-.072.054-.18.054-.27 0-.18-.18-.18-.216-.18-.018 0-.666.054-.99.09-.306.018-.576.054-.9.072-.432.036-.558.054-.558.378 0 .18.18.18.36.18.918 0 .918.162.918.342 0 .072 0 .108-.09.432l-2.232 8.928c-.054.198-.09.342-.09.63 0 .9.666 1.62 1.584 1.62.594 0 .99-.396 1.278-.954.306-.594.558-1.728.558-1.8 0-.09-.072-.162-.18-.162-.162 0-.18.09-.252.36-.324 1.242-.648 2.196-1.368 2.196-.54 0-.54-.576-.54-.828 0-.072 0-.45.126-.954z"/>
<path d="M110.622 34.428c.072-.288.072-.396.072-.468 0-.576-.468-.792-.846-.792-.36 0-.684.162-.918.432-.252-.27-.846-.738-1.908-.738-3.186 0-5.058 2.844-5.058 5.202 0 2.124 1.602 2.934 3.15 2.934.936 0 1.656-.36 1.98-.558-.108.45-.216.9-.342 1.35-.126.522-.252 1.062-.882 1.566-.756.63-1.35.63-1.836.63-.432 0-.756 0-1.224-.072.522-.378.558-.972.558-1.044 0-.396-.306-.828-.9-.828s-1.278.504-1.278 1.332c0 1.188 1.584 1.26 2.862 1.26 1.62 0 4.104-.378 4.644-2.538zm-3.15 4.536c-.072.252-.072.324-.288.522-.954.864-1.8.864-1.962.864-.702 0-1.224-.396-1.224-1.35 0-.864.594-3.024.864-3.69.63-1.548 1.656-1.8 2.196-1.8 1.116 0 1.512.882 1.512 1.008 0 .036 0 .072-.054.27z" fill="red"/>
<path d="M78.702 67.492c-.648.18-.972.792-.972 1.242 0 .396.306.828.9.828.63 0 1.296-.522 1.296-1.404 0-.954-.954-1.584-2.052-1.584-1.026 0-1.692.774-1.926 1.098-.45-.756-1.458-1.098-2.484-1.098-2.268 0-3.492 2.214-3.492 2.808 0 .252.27.252.432.252.216 0 .342 0 .414-.234.522-1.638 1.818-2.178 2.556-2.178.684 0 1.008.324 1.008.9 0 .342-.252 1.332-.414 1.98l-.612 2.466c-.27 1.098-.918 1.638-1.53 1.638-.09 0-.504 0-.864-.27.648-.18.972-.792.972-1.242 0-.396-.306-.828-.9-.828-.63 0-1.296.522-1.296 1.404 0 .954.954 1.584 2.052 1.584 1.026 0 1.692-.774 1.926-1.098.45.756 1.458 1.098 2.484 1.098 2.268 0 3.492-2.214 3.492-2.808 0-.252-.27-.252-.432-.252-.216 0-.342 0-.414.234-.522 1.638-1.818 2.178-2.556 2.178-.684 0-1.008-.324-1.008-.9 0-.378.234-1.332.396-1.998.126-.468.54-2.16.63-2.448.27-1.08.9-1.638 1.53-1.638.09 0 .504 0 .864.27zM22.554 8.294c.108-.45.288-1.17.288-1.332 0-.576-.468-.792-.846-.792-.342 0-.702.18-.918.45-.27-.288-.864-.756-1.908-.756-3.132 0-5.076 2.844-5.076 5.31 0 2.214 1.656 2.97 3.15 2.97 1.278 0 2.214-.702 2.502-.972.684.972 1.872.972 2.07.972.666 0 1.188-.378 1.566-1.026.45-.72.684-1.692.684-1.782 0-.252-.27-.252-.432-.252-.198 0-.27 0-.36.09-.036.036-.036.072-.144.522-.36 1.44-.774 1.8-1.224 1.8-.198 0-.414-.072-.414-.666 0-.306.072-.594.252-1.314.126-.504.306-1.224.396-1.62zm-2.988 4.032c-.522.612-1.368 1.17-2.232 1.17-1.116 0-1.206-.972-1.206-1.368 0-.936.612-3.15.9-3.852.558-1.314 1.44-1.764 2.178-1.764 1.062 0 1.494.846 1.494 1.044l-.036.252zM33.525 18.374c0-.054 0-.09-.306-.396-1.8-1.818-2.808-4.788-2.808-8.46 0-3.492.846-6.498 2.934-8.622.18-.162.18-.198.18-.252 0-.108-.09-.144-.162-.144-.234 0-1.71 1.296-2.592 3.06-.918 1.818-1.332 3.744-1.332 5.958 0 1.602.252 3.744 1.188 5.67 1.062 2.16 2.538 3.33 2.736 3.33.072 0 .162-.036.162-.144z"/>
<path d="M38.148 6.764h1.656c.342 0 .522 0 .522-.324 0-.198-.108-.198-.468-.198h-1.584l.666-2.628c.072-.252.072-.288.072-.414 0-.288-.234-.45-.468-.45-.144 0-.558.054-.702.63l-.702 2.862h-1.692c-.36 0-.522 0-.522.342 0 .18.126.18.468.18h1.602l-1.188 4.752c-.144.63-.198.81-.198 1.044 0 .846.594 1.62 1.602 1.62 1.818 0 2.79-2.628 2.79-2.754 0-.108-.072-.162-.18-.162-.036 0-.108 0-.144.072-.018.018-.036.036-.162.324-.378.9-1.206 2.16-2.25 2.16-.54 0-.576-.45-.576-.846 0-.018 0-.36.054-.576z" fill="red"/>
<path d="M45.97 9.518c0-1.368-.18-3.6-1.187-5.688C43.72 1.67 42.245.5 42.047.5c-.072 0-.162.036-.162.144 0 .054 0 .09.306.396 1.8 1.818 2.808 4.788 2.808 8.46 0 3.492-.846 6.498-2.934 8.622-.18.162-.18.198-.18.252 0 .108.09.144.162.144.234 0 1.71-1.296 2.592-3.06.918-1.836 1.332-3.78 1.332-5.94z"/>
</g>
<circle transform="rotate(-26.402)" cx="17.769" cy="103.236" color="#000" fill="#5e5bff" r="7.5"/>
<circle cx="4.879" cy="16.372" r="4" color="#000"/>
</svg>
