<svg width="136.336" height="124.123" viewBox="0 0 136.337 124.123" xmlns="http://www.w3.org/2000/svg">
<defs>
<marker id="b" overflow="visible" orient="auto">
<path d="m-10 0-4 4L0 0l-14-4z" fill-rule="evenodd" stroke="#000" stroke-width=".8pt"/>
</marker>
<marker id="a" overflow="visible" orient="auto">
<path d="m-10 0-4 4L0 0l-14-4z" fill-rule="evenodd" stroke="#000" stroke-width=".8pt"/>
</marker>
</defs>
<path d="M85.732 97.39 28.449 28.83" fill="none" stroke="#000" stroke-linecap="round"/>
<path d="m129.876 99.37 5.96-12.939-4.717 1.914V62.618h-2.6v25.699l-4.716-1.886z" color="#000" fill="red" style="text-decoration-line:none;text-indent:0;text-transform:none"/>
<g stroke-width="1.5">
<path d="M81.23 111.089c.036-.108.486-1.008 1.152-1.584.468-.432 1.08-.72 1.782-.72.72 0 .972.54.972 1.26 0 .108 0 .468-.216 1.314l-.45 1.854c-.144.54-.486 1.872-.522 2.07-.072.27-.18.738-.18.81 0 .252.198.45.468.45.54 0 .63-.414.792-1.062l1.08-4.302c.036-.144.972-2.394 2.952-2.394.72 0 .972.54.972 1.26 0 1.008-.702 2.97-1.098 4.05-.162.432-.252.666-.252.99 0 .81.558 1.458 1.422 1.458 1.674 0 2.304-2.646 2.304-2.754 0-.09-.072-.162-.18-.162-.162 0-.18.054-.27.36-.414 1.44-1.08 2.196-1.8 2.196-.18 0-.468-.018-.468-.594 0-.468.216-1.044.288-1.242.324-.864 1.134-2.988 1.134-4.032 0-1.08-.63-1.89-1.998-1.89-1.206 0-2.178.684-2.898 1.746-.054-.972-.648-1.746-1.998-1.746-1.602 0-2.448 1.134-2.772 1.584-.054-1.026-.792-1.584-1.584-1.584-.522 0-.936.252-1.278.936-.324.648-.576 1.746-.576 1.818s.072.162.198.162c.144 0 .162-.018.27-.432.27-1.062.612-2.124 1.332-2.124.414 0 .558.288.558.828 0 .396-.18 1.098-.306 1.656l-.504 1.944c-.072.342-.27 1.152-.36 1.476-.126.468-.324 1.314-.324 1.404 0 .252.198.45.468.45a.69.69 0 0 0 .612-.378c.036-.09.198-.72.288-1.08l.396-1.62zM65.187 51.752c.018-.072.054-.18.054-.27 0-.18-.18-.18-.216-.18-.018 0-.666.054-.99.09-.306.018-.576.054-.9.072-.432.037-.558.055-.558.379 0 .18.18.18.36.18.918 0 .918.162.918.341 0 .073 0 .109-.09.433l-2.232 8.928c-.054.198-.09.342-.09.63 0 .9.666 1.62 1.584 1.62.594 0 .99-.396 1.278-.954.306-.594.558-1.728.558-1.8 0-.09-.072-.162-.18-.162-.162 0-.18.09-.252.36-.324 1.242-.648 2.196-1.368 2.196-.54 0-.54-.576-.54-.828 0-.072 0-.45.126-.954z"/>
<path d="M134.532 47.25c.072-.289.072-.397.072-.469 0-.576-.468-.792-.846-.792-.36 0-.684.162-.918.432-.252-.27-.846-.738-1.908-.738-3.186 0-5.058 2.844-5.058 5.202 0 2.124 1.602 2.934 3.15 2.934.936 0 1.656-.36 1.98-.558-.108.45-.216.9-.342 1.35-.126.522-.252 1.062-.882 1.566-.756.63-1.35.63-1.836.63-.432 0-.756 0-1.224-.072.522-.378.558-.972.558-1.044 0-.396-.306-.828-.9-.828s-1.278.504-1.278 1.332c0 1.188 1.584 1.26 2.862 1.26 1.62 0 4.104-.378 4.644-2.538zm-3.15 4.535c-.072.253-.072.325-.288.523-.954.863-1.8.863-1.962.863-.702 0-1.224-.396-1.224-1.35 0-.864.594-3.024.864-3.69.63-1.548 1.656-1.8 2.196-1.8 1.116 0 1.512.882 1.512 1.008 0 .037 0 .073-.054.27z" fill="red"/>
<path d="M22.162 40.688c0-3.06-2.124-4.645-5.238-4.645-5.562 0-8.478 4.77-8.478 8.37 0 3.15 2.25 4.59 5.256 4.59 5.526 0 8.46-4.607 8.46-8.315zm-8.28 7.56c-.594 0-1.422-.126-2.106-.828-.792-.793-.792-1.999-.792-2.413 0-1.133.54-4.5 2.016-6.353 1.206-1.477 2.7-1.89 3.744-1.89 1.494 0 2.97.81 2.97 3.095 0 1.17-.648 4.32-1.818 6.012-1.35 1.98-2.988 2.376-4.014 2.376zM102.612 80.314c-.648.18-.972.792-.972 1.242 0 .396.306.828.9.828.63 0 1.296-.522 1.296-1.404 0-.954-.954-1.584-2.052-1.584-1.026 0-1.692.774-1.926 1.098-.45-.756-1.458-1.098-2.484-1.098-2.268 0-3.492 2.214-3.492 2.808 0 .252.27.252.432.252.216 0 .342 0 .414-.234.522-1.638 1.818-2.178 2.556-2.178.684 0 1.008.324 1.008.9 0 .342-.252 1.332-.414 1.98l-.612 2.466c-.27 1.098-.918 1.638-1.53 1.638-.09 0-.504 0-.864-.27.648-.18.972-.792.972-1.242 0-.396-.306-.828-.9-.828-.63 0-1.296.522-1.296 1.404 0 .954.954 1.584 2.052 1.584 1.026 0 1.692-.774 1.926-1.098.45.756 1.458 1.098 2.484 1.098 2.268 0 3.492-2.214 3.492-2.808 0-.252-.27-.252-.432-.252-.216 0-.342 0-.414.234-.522 1.638-1.818 2.178-2.556 2.178-.684 0-1.008-.324-1.008-.9 0-.378.234-1.332.396-1.998.126-.468.54-2.16.63-2.448.27-1.08.9-1.638 1.53-1.638.09 0 .504 0 .864.27z"/>
</g>
<circle transform="rotate(-26.402)" cx="33.484" cy="125.354" color="#000" fill="#5e5bff" r="7.5"/>
<path d="m.5 28.834 122.153-.016" fill="none" marker-end="url(#a)" stroke="#000" stroke-width=".5"/>
<path d="M28.461 123.624 28.446 1.471" fill="none" marker-end="url(#b)" stroke="#000" stroke-width=".5"/>
</svg>
