<svg width="156.099" height="115.025" xmlns="http://www.w3.org/2000/svg" xmlns:xlink="http://www.w3.org/1999/xlink">
<defs>
<symbol id="b">
<path d="M94.86 6.758a1.34 1.34 0 0 0-.969 1.238c0 .394.305.824.897.824.627 0 1.29-.52 1.29-1.398 0-.95-.95-1.578-2.044-1.578-1.022 0-1.685.77-1.918 1.094-.449-.754-1.453-1.094-2.475-1.094-2.26 0-3.479 2.205-3.479 2.797 0 .251.269.251.43.251.216 0 .341 0 .413-.233.52-1.632 1.811-2.17 2.546-2.17.682 0 1.005.323 1.005.897 0 .34-.252 1.327-.413 1.972l-.61 2.457c-.269 1.094-.914 1.632-1.524 1.632-.09 0-.502 0-.86-.269a1.34 1.34 0 0 0 .968-1.237c0-.395-.305-.825-.897-.825-.628 0-1.291.52-1.291 1.399 0 .95.95 1.578 2.044 1.578 1.022 0 1.686-.771 1.919-1.094.448.753 1.453 1.094 2.475 1.094 2.26 0 3.479-2.206 3.479-2.798 0-.25-.27-.25-.43-.25-.216 0-.341 0-.413.232-.52 1.632-1.811 2.17-2.547 2.17-.681 0-1.004-.323-1.004-.896 0-.377.233-1.328.395-1.991.125-.466.538-2.152.627-2.439.27-1.076.897-1.632 1.525-1.632.09 0 .502 0 .86.27z" stroke-linejoin="round" stroke-miterlimit="100000" stroke-width="1.5"/>
</symbol>
<symbol id="c">
<path d="M105.99 18.253c0-.054 0-.09-.305-.394-2.241-2.26-2.815-5.65-2.815-8.393 0-3.12.681-6.24 2.887-8.482.233-.215.233-.251.233-.305 0-.125-.072-.18-.18-.18-.179 0-1.793 1.22-2.85 3.498-.915 1.972-1.13 3.963-1.13 5.47 0 1.398.197 3.568 1.183 5.594 1.076 2.206 2.618 3.372 2.798 3.372.107 0 .179-.054.179-.18z" stroke-linejoin="round" stroke-miterlimit="100000" stroke-width="1.5"/>
</symbol>
<symbol id="d">
<path d="M110.723 6.776h1.686c.358 0 .538 0 .538-.358 0-.198-.18-.198-.502-.198h-1.579c.646-2.546.736-2.905.736-3.012 0-.305-.215-.485-.52-.485-.054 0-.556.018-.718.646l-.699 2.851h-1.686c-.358 0-.538 0-.538.341 0 .215.144.215.502.215h1.579c-1.292 5.093-1.363 5.398-1.363 5.72 0 .97.681 1.65 1.65 1.65 1.829 0 2.85-2.618 2.85-2.761 0-.18-.143-.18-.214-.18-.162 0-.18.055-.27.252-.77 1.865-1.721 2.295-2.33 2.295-.377 0-.557-.233-.557-.825 0-.43.036-.556.108-.86z" stroke-linejoin="round" stroke-miterlimit="100000" stroke-width="1.5"/>
</symbol>
<symbol id="e">
<path d="M140.08 6.113c-2.242.538-3.981 2.87-3.981 5.04 0 1.72 1.148 3.012 2.833 3.012 2.098 0 3.587-2.815 3.587-5.29 0-1.632-.717-2.529-1.327-3.336-.646-.807-1.704-2.152-1.704-2.94 0-.395.359-.826.987-.826.538 0 .896.234 1.273.485.358.215.717.448.986.448.448 0 .717-.43.717-.717 0-.395-.287-.449-.932-.592-.933-.197-1.184-.197-1.47-.197-1.4 0-2.045.77-2.045 1.847 0 .968.52 1.972 1.076 3.066zm.215.395c.449.825.987 1.793.987 3.084 0 1.184-.682 4.179-2.35 4.179-.986 0-1.721-.754-1.721-2.117 0-1.13.663-4.5 3.084-5.146z" stroke-linejoin="round" stroke-miterlimit="100000" stroke-width="1.5"/>
</symbol>
<symbol id="f">
<circle cx="140.416" cy="32.525" r="9.5" color="#000" fill="#cacaca" stroke="#555" stroke-linejoin="round" stroke-miterlimit="100" style="isolation:auto;mix-blend-mode:normal"/>
</symbol>
<marker id="a" overflow="visible" orient="auto">
<path d="m-10 0-4 4L0 0l-14-4z" fill="red" fill-rule="evenodd" stroke="red" stroke-width=".8pt"/>
</marker>
</defs>
<g stroke-linejoin="round">
<path d="m29.416 104.525 103.08-66.863" color="#000" fill="none" marker-end="url(#a)" stroke="red" stroke-width="2"/>
<g stroke-miterlimit="100000" stroke-width="1.5">
<path d="M124.799 9.825h5.003c.251 0 .592 0 .592-.358s-.34-.36-.592-.36H124.8v-5.02c0-.251 0-.592-.359-.592s-.358.34-.358.592v5.02h-5.021c-.252 0-.592 0-.592.36 0 .358.34.358.592.358h5.02v5.021c0 .251 0 .592.36.592s.358-.34.358-.592z"/>
<path d="M91.13 83.7c0-.484-.412-.95-.95-.95a.959.959 0 0 0-.968.95c0 .484.412.95.95.95.61 0 .969-.501.969-.95z" fill="green"/>
<path d="M126.927 90.513c0-.52-.43-.95-.95-.95s-.95.43-.95.95.43.95.95.95.95-.43.95-.95z"/>
</g>
</g>
<use width="100%" height="100%" xlink:href="#b"/>
<use transform="translate(-85.429 70.444)" width="100%" height="100%" xlink:href="#b"/>
<use transform="translate(-.978 81.047)" width="100%" height="100%" fill="green" xlink:href="#b"/>
<use width="100%" height="100%" xlink:href="#c"/>
<use transform="translate(-85.43 70.444)" width="100%" height="100%" xlink:href="#c"/>
<use transform="translate(-.979 81.047)" width="100%" height="100%" fill="green" xlink:href="#c"/>
<use transform="matrix(-1 0 0 1 257.429 0)" width="100%" height="100%" xlink:href="#c"/>
<use transform="matrix(-1 0 0 1 135.062 70.444)" width="100%" height="100%" xlink:href="#c"/>
<use transform="matrix(-1 0 0 1 219.513 81.047)" width="100%" height="100%" fill="green" xlink:href="#c"/>
<use width="100%" height="100%" xlink:href="#d"/>
<use transform="translate(-85.43 70.444)" width="100%" height="100%" xlink:href="#d"/>
<use transform="translate(-.98 81.047)" width="100%" height="100%" fill="green" xlink:href="#d"/>
<use transform="translate(37.08 -.556)" width="100%" height="100%" xlink:href="#d"/>
<use transform="translate(34.166 80.491)" width="100%" height="100%" xlink:href="#d"/>
<use width="100%" height="100%" xlink:href="#e"/>
<use transform="translate(-2.913 81.047)" width="100%" height="100%" xlink:href="#e"/>
<use width="100%" height="100%" xlink:href="#f"/>
<use transform="translate(-111 72)" width="100%" height="100%" xlink:href="#f"/>
</svg>
