<svg width="158.436" height="138.883" viewBox="0 0 158.436 138.882" xmlns="http://www.w3.org/2000/svg">
<defs>
<marker id="b" overflow="visible" orient="auto">
<path d="m-10 0-4 4L0 0l-14-4 4 4z" fill-rule="evenodd" stroke="#000" stroke-width=".8pt"/>
</marker>
<marker id="a" overflow="visible" orient="auto">
<path d="m-10 0-4 4L0 0l-14-4 4 4z" fill-rule="evenodd" stroke="#000" stroke-width=".8pt"/>
</marker>
</defs>
<circle transform="rotate(70.075)" cx="88.914" cy="-41.695" r="50" color="#000" fill="none" stroke="red" stroke-width="2" style="isolation:auto;mix-blend-mode:normal"/>
<path d="m69.5 69.383 31.245 39.052" fill="none" stroke="#000"/>
<circle transform="rotate(60)" cx="94.837" cy="-25.498" r="2.5" color="#000"/>
<path d="M64.241 56.697c0-3.06-2.124-4.644-5.238-4.644-5.562 0-8.478 4.77-8.478 8.37 0 3.15 2.25 4.59 5.256 4.59 5.526 0 8.46-4.608 8.46-8.316zm-8.28 7.56c-.594 0-1.422-.126-2.106-.828-.792-.792-.792-1.998-.792-2.412 0-1.134.54-4.5 2.016-6.354 1.206-1.476 2.7-1.89 3.744-1.89 1.494 0 2.97.81 2.97 3.096 0 1.17-.648 4.32-1.818 6.012-1.35 1.98-2.988 2.376-4.014 2.376z"/>
<circle transform="rotate(-16.327)" cx="66.194" cy="132.371" color="#000" fill="#5e5bff" r="7.5"/>
<path d="M92.278 76.599c.017-.072.053-.18.053-.27 0-.18-.18-.18-.215-.18-.018 0-.666.054-.99.09-.306.018-.576.054-.9.072-.432.036-.558.054-.558.378 0 .18.18.18.36.18.918 0 .918.162.918.342 0 .072 0 .108-.09.432l-2.232 8.928c-.054.198-.09.342-.09.63 0 .9.666 1.62 1.584 1.62.594 0 .99-.396 1.278-.954.306-.594.558-1.728.558-1.8 0-.09-.072-.162-.18-.162-.162 0-.18.09-.252.36-.324 1.242-.648 2.196-1.368 2.196-.54 0-.54-.576-.54-.828 0-.072 0-.45.126-.954z"/>
<g fill="red" stroke-linejoin="round" stroke-miterlimit="100000" stroke-width="1.6">
<path d="M123.244 13.232a.193.193 0 0 0-.21-.191c-.058 0-.077.019-.287.23l-1.34 1.472c-.171-.268-1.051-1.702-3.175-1.702-4.265 0-8.57 4.227-8.57 8.665 0 3.041 2.124 5.241 5.223 5.241.842 0 1.702-.172 2.391-.459.956-.383 1.32-.784 1.664-1.167.172.478.67 1.186.86 1.186.097 0 .135-.057.135-.076.038-.039.23-.766.325-1.167l.363-1.473c.077-.325.173-.65.25-.976.21-.86.229-.899 1.319-.918.096 0 .306-.019.306-.382 0-.134-.096-.21-.249-.21-.44 0-1.568.057-2.008.057-.593 0-2.085-.058-2.678-.058-.172 0-.402 0-.402.383 0 .21.153.21.574.21.02 0 .574 0 1.014.038.497.058.593.115.593.364 0 .172-.21 1.033-.402 1.74-.535 2.105-3.022 2.315-3.692 2.315-1.836 0-3.844-1.09-3.844-4.017 0-.593.19-3.749 2.2-6.236 1.032-1.3 2.888-2.467 4.781-2.467 1.952 0 3.08 1.473 3.08 3.692 0 .765-.057.784-.057.975s.21.191.287.191c.248 0 .248-.038.344-.382zM142.143 20.271c.287 0 .65 0 .65-.382s-.363-.383-.63-.383h-11.459c-.267 0-.63 0-.63.383s.363.382.65.382zm.02 3.711c.267 0 .63 0 .63-.382s-.363-.383-.65-.383h-11.42c-.286 0-.65 0-.65.383s.364.382.631.382zM157.936 20.405c0-1.53-.096-3.06-.765-4.476-.88-1.836-2.449-2.142-3.252-2.142-1.148 0-2.544.497-3.328 2.276-.612 1.32-.708 2.812-.708 4.342 0 1.435.076 3.156.86 4.61.823 1.55 2.22 1.932 3.157 1.932 1.033 0 2.487-.402 3.328-2.219.612-1.32.708-2.812.708-4.323zm-4.036 6.121c-.746 0-1.875-.478-2.219-2.314-.21-1.148-.21-2.908-.21-4.036 0-1.224 0-2.487.153-3.52.363-2.276 1.798-2.448 2.276-2.448.631 0 1.894.344 2.257 2.238.191 1.07.191 2.525.191 3.73 0 1.434 0 2.735-.21 3.96-.287 1.816-1.377 2.39-2.238 2.39z"/>
</g>
<path d="m.5 69.399 136.912-.018" fill="none" marker-end="url(#a)" stroke="#000" stroke-width=".5"/>
<path d="M69.516 138.382 69.5 1.47" fill="none" marker-end="url(#b)" stroke="#000" stroke-width=".5"/>
</svg>
