<svg width="180.505" height="128.349" xmlns="http://www.w3.org/2000/svg">
<defs>
<marker id="a" overflow="visible" orient="auto">
<path d="m-10 0-4 4L0 0l-14-4z" fill-rule="evenodd" stroke="#000" stroke-width=".8pt"/>
</marker>
</defs>
<path d="m179.629 102.093-5.12-5.6-4.88-5.84-4.8-6.24-4.56-6.56-4.48-7.12-4.48-7.52-4.4-7.76-4.32-7.92-4.32-7.84-4.32-7.68-4.24-7.12-4.08-6.4-3.92-5.6-3.84-4.72-3.6-4.08-3.44-3.36m-6.72 2.56 3.36 3.36 3.52 4 3.68 4.8 3.92 5.52 4.08 6.32 4.16 7.12 4.24 7.44 4.32 7.76 4.4 7.84 4.4 7.68 4.4 7.44 4.48 7.12 4.56 6.56 4.64 6.16 4.88 5.92 4.96 5.68m-7.84 1.76-4.88-5.68-4.8-5.92-4.56-6.16-4.56-6.48-4.4-6.96-4.4-7.28-4.32-7.52-4.32-7.68-4.32-7.52-4.24-7.36-4.08-6.88-4-6.24-3.84-5.44-3.6-4.64-3.44-4-3.28-3.44m-6.96 4.24 3.12 3.44 3.28 3.92 3.52 4.64 3.76 5.28 3.92 6 4.08 6.64 4.16 6.96 4.24 7.28 4.24 7.36 4.32 7.28 4.32 7.04 4.4 6.8 4.4 6.32 4.48 6.08 4.64 5.84 4.88 5.76m-8.8 1.52-4.64-5.68-4.56-5.76-4.4-6-4.32-6.16-4.32-6.48-4.24-6.72-4.24-6.88-4.16-6.96-4.16-6.8-4.08-6.64-3.92-6.24-3.84-5.76-3.6-5.04-3.36-4.48-3.2-3.84-2.96-3.44m-7.12 6.4 2.8 3.36 3.04 3.76 3.28 4.32 3.44 4.72 3.6 5.36 3.84 5.76 3.92 6.08 4 6.32 4.08 6.4 4.16 6.4 4.16 6.24 4.16 6.16 4.16 5.92 4.32 5.76 4.4 5.68 4.48 5.68m-9.68 1.2-4.32-5.6-4.24-5.52-4.16-5.52-4.08-5.6-4-5.68-4-5.76-3.92-5.76-3.92-5.76-3.92-5.68-3.76-5.44-3.6-5.28-3.44-4.88-3.28-4.4-3.04-4.08-2.88-3.68-2.72-3.28m-6.96 7.68 2.48 3.28 2.72 3.52 2.88 3.84 3.04 4.08 3.28 4.4 3.36 4.64 3.6 4.8 3.6 4.96 3.76 5.12 3.76 5.12 3.84 5.12 3.84 5.2 2.64 3.68 5.2 6.8 4 5.36 4.16 5.52m-10.32 1.12-3.92-5.36-3.84-5.2-3.76-4.96-3.68-4.88-3.68-4.64-3.6-4.56-3.52-4.48-3.52-4.32-3.36-4.32-3.36-4.16-3.12-4-3.04-3.92-2.88-3.68-2.64-3.6-2.56-3.44-2.319-3.2m-6.8 7.68 2.16 3.2 2.32 3.36 2.48 3.28 2.64 3.44 2.72 3.44 2.96 3.44 3.04 3.52 3.2 3.52 3.2 3.68 3.28 3.84 3.36 3.92 3.44 4.16 3.44 4.4 3.52 4.72 3.6 4.96 3.76 5.36m-10.56 1.2-3.52-5.2-3.36-4.8-3.28-4.48-3.28-4-3.12-3.68-3.12-3.36-3.04-3.2-2.96-3.04-2.88-2.88-2.72-2.88-2.72-2.96-2.56-2.96-2.4-3.12-2.24-3.12-2.08-3.2-2.08-3.12m-6.64 6.72 1.84 3.2 1.92 3.04 2.08 2.96 2.16 2.8 2.32 2.64 2.4 2.48 2.48 2.32 2.64 2.4 2.64 2.4 2.8 2.56 2.8 2.88 2.88 3.28 2.96 3.68 3.12 4.16 3.12 4.72 3.28 5.12m-48.16-44.64 1.76 3.12 1.76 3.04 1.84 2.8 2 2.64 2.08 2.24 2.16 2.08 2.24 1.92 2.32 1.92 2.4 1.92 2.48 2.16 2.56 2.4 2.64 2.88 2.72 3.44 2.8 4 2.88 4.56 3.04 5.04m-10.24 1.76-2.88-5.04-2.64-4.48-2.56-3.92-2.48-3.2-2.4-2.56-2.32-2.16-2.24-1.76-2.08-1.52-2.08-1.52-2-1.6-1.92-1.84-1.84-2-1.84-2.48-1.68-2.72-1.6-2.96-1.52-3.2m-6.8 4.16 1.44 3.2 1.44 2.96 1.52 2.64 1.6 2.4 1.6 1.84 1.76 1.6 1.76 1.36 1.84 1.28 1.92 1.28 2 1.52 2 1.92 2.16 2.4 2.24 3.04 2.32 3.84 2.48 4.48 2.56 5.04M7.79 85.613l1.28 3.2 1.28 2.96 1.36 2.72 1.44 2.24 1.44 1.84 1.52 1.44 1.6 1.2 1.6 1.12 1.76 1.12 1.76 1.36 1.76 1.68 1.92 2.32 2.08 3.04 2.08 3.76 2.24 4.4 2.32 5.2M.75 88.493l1.2 3.2 1.12 3.04 1.28 2.64 1.2 2.24 1.28 1.76 1.36 1.44 1.36 1.12 1.44.96 1.52 1.04 1.52 1.28 1.68 1.6 1.68 2.24 1.76 3.04 1.92 3.76 2 4.48 2.08 5.28 10.08-2.4 10.08-2.24 10.24-2 10.24-1.76 10.48-1.52 10.56-1.36 10.56-1.2 10.48-1.2 10.32-1.12 10.08-1.2 9.68-1.2 9.28-1.44 8.799-1.52 8.24-1.68 7.84-1.76 7.52-1.92m-5.12-5.6-7.36 1.84-7.76 1.76-8.24 1.6-8.56 1.6-9.12 1.44-9.52 1.28-9.92 1.28-10.08 1.28-10.32 1.2-10.32 1.36-10.32 1.44-10.24 1.6-10.08 1.76-9.919 2-9.84 2.08-9.84 2.32m-2-4.48 9.6-2.24 9.6-2.16 9.76-2 9.84-1.84 10-1.76 10.08-1.52 10.08-1.52 11.84-1.6 8.16-1.28 9.68-1.44 9.36-1.44 8.96-1.52 8.48-1.68 8.08-1.68 7.68-1.76 7.359-1.76m-4.8-6.24-7.2 1.84-7.6 1.76-8 1.76-8.4 1.76-8.88 1.76-9.2 1.68-9.52 1.68-9.68 1.76-9.84 1.68-9.84 1.76-9.92 1.84-9.68 1.92-9.6 1.92-9.519 2.08-9.36 2.24-9.44 2.24m-1.76-3.04 9.12-2.24 9.2-2.24 9.28-2.24 9.36-2.16 9.44-2.16 9.6-2.16 9.68-2.16 9.6-2.16 9.52-2.08 9.28-2.08 9.12-2 8.72-2 8.32-1.92 7.84-1.92 7.6-1.84 7.2-1.84m-4.48-7.12-7.2 1.84-7.52 2-7.84 2.08-8.24 2.24-8.56 2.32-8.96 2.48-9.12 2.56-9.36 2.64-9.36 2.64-9.36 2.64-9.36 2.56-9.2 2.56-9.12 2.48-9.04 2.4-8.96 2.32-8.88 2.32m-1.68-1.6 8.8-2.4 8.72-2.56 8.72-2.64 8.88-2.72 8.96-3.04 9.04-3.04 9.12-3.2 9.12-3.28 9.12-3.2 8.96-3.2 8.8-2.96 8.48-2.8 8.16-2.56 7.76-2.32 7.52-2.16 7.12-1.92m-4.4-7.76-7.12 2-7.44 2.32-7.76 2.56-8.08 2.96-8.4 3.28-8.56 3.6-8.8 3.84-8.88 3.84-8.88 3.92-8.88 3.84-8.8 3.68-8.64 3.44-8.64 3.12-8.48 2.88-8.48 2.72-8.56 2.48m-1.52-1.04 8.32-2.56 8.32-2.88 8.32-3.12 8.32-3.52 8.4-3.92 8.48-4.32 8.64-4.48 8.56-4.56 8.64-4.64 8.64-4.48 8.4-4.24 8.32-3.84 8-3.36 7.68-2.88 7.36-2.48 7.2-2.08m-4.32-7.84-7.2 2.16-7.36 2.72-7.6 3.12-7.92 3.84-8.16 4.32-8.32 4.88-8.32 5.2-8.4 5.28-8.4 5.36-8.32 5.12-8.24 4.8-8.08 4.4-8.08 3.92-8.08 3.36-8.08 3.04-8.16 2.72m-1.36-1.12 7.92-2.8 7.92-3.2 7.84-3.6 7.84-4.24 7.84-4.8 8-5.36 8-5.76 8.08-6 8.16-5.92 8.16-5.84 8.16-5.52 8-4.88 7.84-4.16 7.52-3.52 7.36-2.8 7.12-2.4m-4.24-7.12-7.04 2.4-7.28 3.04-7.52 3.76-7.68 4.56-7.92 5.36-7.92 6-7.92 6.48-7.92 6.56-7.92 6.56-7.76 6.24-7.68 5.84-7.6 5.2-7.6 4.48-7.68 3.84-7.68 3.36-7.76 2.8m-1.28-1.76 7.6-2.88 7.52-3.36 7.44-4 7.36-4.72 7.36-5.6 7.44-6.16 7.6-6.72 7.6-7.04 7.68-7.04 7.76-6.96 7.76-6.48 7.68-5.76 7.6-4.8 7.44-4 7.2-3.12 7.04-2.48m-3.92-5.6-7.04 2.56-7.12 3.2-7.36 4.16-7.44 5.04-7.52 6.08-7.6 6.8-7.52 7.28-7.52 7.44-7.36 7.28-7.36 7.04-7.2 6.48-7.2 5.76-7.2 4.88-7.2 4.08-7.36 3.52-7.36 2.88m-1.28-2.64 7.28-2.96 7.2-3.44 7.04-4.16 7.04-4.96 6.96-5.92 7.04-6.64 7.12-7.2 7.2-7.6 7.28-7.68 7.36-7.52 7.36-7.04 7.44-6.24 7.28-5.2 7.28-4.16 7.04-3.36 6.88-2.48m-3.6-4.08-6.8 2.56-6.96 3.36-7.12 4.24-7.2 5.28-7.28 6.32-7.2 7.12-7.2 7.68-7.12 7.76-6.96 7.68-6.88 7.36-6.88 6.8-6.8 5.92-6.88 5.04-6.88 4.16-7.04 3.44-7.12 2.88m-1.2-3.2 7.04-2.88 6.88-3.44 6.8-4.16 6.64-4.96 6.72-6 6.64-6.72 6.8-7.44 6.8-7.68 6.96-7.84 6.96-7.68 7.12-7.2 7.12-6.4 7.04-5.28 6.96-4.24 6.88-3.28 6.72-2.56m-62.56 52.16-2 2.16-1.92 2.08-1.92 2.16-.96 1.04-2 2-2 2.08-2 2-.64.64-2.16 1.92-2.16 1.92-2.16 1.92-.24.24-2.24 1.68-2.32 1.76-2.08 1.52-2.48 1.52-2.48 1.52-1.84 1.12-2.56 1.28-2.64 1.28-1.68.88-2.64 1.12-2.72 1.04-1.68.72.96 2.72.24.48 1.04 2.72.08.32 1.2 2.56.08.08 1.2 2.24 1.28 1.76 1.36 1.44 1.36 1.12 1.44.96 1.52 1.04 1.52 1.28 1.68 1.6 1.68 2.24 1.44 2.48.32.56 1.28 2.56.64 1.2 1.12 2.64.88 1.84 1.04 2.72 1.04 2.56 2.8-.72 2.8-.64 2.8-.64 1.68-.4 2.8-.64 2.8-.64 2.88-.56 1.6-.4 2.88-.56 2.8-.56 2.8-.48 1.76-.4 2.8-.48 2.8-.48 2.88-.48 1.76-.32 2.88-.4 2.88-.4 2.8-.4 1.92-.32 2.88-.4 2.88-.32 2.8-.4 2-.24 2.88-.32 2.88-.32 2.8-.4 2-.16 2.88-.32 2.88-.32 2.88-.32 1.84-.24 2.88-.32 2.88-.32 2.88-.32 1.68-.16 2.88-.32 2.88-.4 2.88-.32 1.44-.16 2.88-.32 2.8-.4 2.88-.4 1.12-.08 2.88-.48 2.88-.4 2.8-.4.72-.16 2.88-.48 2.8-.48 2.8-.48.32-.08 2.8-.56 2.8-.56 2.64-.56 2.8-.64 2.799-.64 2.24-.48 2.8-.72 2.8-.72 1.92-.48-1.92-2.08-1.92-2.16-1.28-1.36-1.84-2.24-1.84-2.16-1.2-1.44-1.76-2.32-1.76-2.24-1.28-1.68-1.6-2.32-1.68-2.4-1.28-1.84-1.52-2.4-1.6-2.48-1.36-2.24-1.52-2.48-1.44-2.48-1.44-2.48-.08-.08-1.36-2.48-1.44-2.48-1.44-2.56-.16-.24-1.36-2.56-1.36-2.48-1.44-2.56-.16-.32-1.44-2.56-1.36-2.48-1.36-2.56-.16-.32-1.44-2.48-1.44-2.48-1.36-2.48-.08-.16-1.44-2.48-1.44-2.4-1.36-2.24-1.52-2.4-1.52-2.4-1.04-1.6-1.68-2.4-1.68-2.32-.56-.88-1.84-2.24-1.76-2.24-.24-.24-1.92-2.16-1.68-1.92-2.08-2-1.36-1.36-2.72 1.04-2.64.96-1.36.56-2.64 1.2-2.56 1.28-1.68.8-2.48 1.52-2.4 1.44-2.08 1.28-2.32 1.76-2.32 1.68-2.24 1.76-.16.08-2.16 1.92-2.16 1.92-2.16 1.92-.64.64-2 2-2.08 2.08-2 2.08-1.04 1.04-1.92 2.08-1.92 2.16-1.92 2.08-1.2 1.36-1.92 2.08-1.92 2.16-1.92 2.16-1.2 1.44-1.92 2.16-1.84 2.16-1.92 2.08-1.12 1.28" fill="none" stroke="#555" stroke-linejoin="round" stroke-width=".3" style="font-variant-east_asian:normal"/>
<path d="M67.25 98.827c10.067-7.735 15.906-11.616 23.086-19.378 10.527-11.384 13.51-18.876 17.513-25.715" color="#000" fill="none" marker-end="url(#a)" stroke="#000" style="font-variant-east_asian:normal;isolation:auto;mix-blend-mode:normal"/>
<circle transform="rotate(-26.402)" cx="16.29" cy="118.423" color="#000" fill="#5e5bff" r="7.5"/>
</svg>
