<svg width="150.512" height="96.883" viewBox="0 0 39.823 25.634" xml:space="preserve" xmlns="http://www.w3.org/2000/svg">
<defs>
<marker id="a" overflow="visible" orient="auto">
<path d="m-10 0-4 4L0 0l-14-4Z" fill="red" fill-rule="evenodd" stroke="red" stroke-width=".8pt"/>
</marker>
</defs>
<g fill="none" stroke-linecap="round" color="#000">
<path d="m23.002 13.254-3.768-.737m8.27 1.618-4.502-.88m9.979 1.951-5.476-1.07m12.278 2.4-6.803-1.33m-17.176-2.06 3.43-.629m.328 1.488 3.44-.75m1.12 1.794 3.383-.914m2.267 2.208 3.208-1.137m3.975 2.78 2.828-1.45m-20.22-2.53-3.76-.86m8.32 1.903-4.56-1.044m10.21 2.338-5.65-1.294m12.832 2.938-7.183-1.644m-17.976-2.465 4.008-.733m-.322 1.751 4.08-.89m.474 2.148 4.086-1.105m1.685 2.698 3.965-1.404m3.585 3.489 3.598-1.845m-21.473-3.09-3.686-1.019m8.24 2.276-4.554-1.258m10.325 2.851-5.77-1.593m13.32 3.678-7.55-2.085m-18.756-3 4.745-.869m-1.233 2.092 4.919-1.074M15 17.515l5.036-1.361m.745 3.374 5.026-1.78m2.817 4.51 4.733-2.426m-32.013-4.04 3.175 1.498 4.12 1.944 5.562 2.624 7.918 3.736M10.563 15.97l-3.512-1.223M15 17.515l-4.438-1.545m10.218 3.558L15 17.515m13.623 4.744-7.843-2.731M1.344 15.79l5.707-1.044M4.519 17.29l6.044-1.32M8.64 19.234l6.36-1.72m-.799 4.344 6.58-2.33m1.338 6.066 6.505-3.335" stroke="#000" stroke-width=".07937399999999999"/>
<path d="M5.578 60.182V2.441" marker-end="url(#a)" stroke="red" style="isolation:auto;mix-blend-mode:normal" transform="matrix(.26458 0 0 .26458 -.132 -.132)"/>
<path d="m5.578 60.182 83.864-1.15" marker-end="url(#a)" stroke="red" transform="matrix(.26458 0 0 .26458 -.132 -.132)"/>
</g>
<path d="M25.734 9.584a.254.254 0 0 0-.508 0 .254.254 0 0 0 .508 0zM26.461 10.67a.354.354 0 0 0-.256.327c0 .105.08.218.237.218.166 0 .342-.137.342-.37 0-.251-.252-.417-.541-.417-.27 0-.446.204-.508.29-.118-.2-.384-.29-.654-.29-.598 0-.92.583-.92.74 0 .066.07.066.113.066.057 0 .09 0 .11-.061.137-.432.478-.574.673-.574.18 0 .266.085.266.237 0 .09-.067.35-.11.522l-.16.65c-.072.29-.243.431-.404.431-.024 0-.133 0-.228-.07a.354.354 0 0 0 .256-.328c0-.104-.08-.218-.237-.218-.166 0-.342.137-.342.37 0 .251.252.417.541.417.27 0 .446-.204.508-.29.119.2.384.29.655.29.598 0 .92-.583.92-.74 0-.066-.071-.066-.114-.066-.057 0-.09 0-.109.061-.137.432-.479.574-.674.574-.18 0-.265-.085-.265-.237 0-.1.061-.35.104-.526.033-.124.142-.57.166-.646.071-.284.237-.431.403-.431.024 0 .133 0 .228.07z"/>
<path d="M-170.952 364.846a.17.17 0 0 0 .026-.071c0-.036-.005-.04-.122-.04h-3.492c-.116 0-.121.004-.121.04 0 .02.015.055.025.07l1.705 3.417c.036.066.051.096.137.096.086 0 .101-.03.137-.096zm-3.082.253h2.779l-1.387 2.783zM-166.85 364.673c0-.015-.011-.05-.057-.05-.015 0-.02.005-.075.06l-.355.39c-.045-.07-.278-.45-.84-.45-1.128 0-2.267 1.118-2.267 2.292 0 .805.562 1.387 1.381 1.387.223 0 .45-.045.633-.121a1.02 1.02 0 0 0 .44-.309c.046.127.178.314.228.314.025 0 .036-.015.036-.02.01-.01.06-.203.086-.31l.096-.389c.02-.086.045-.172.066-.258.055-.228.06-.238.349-.243.025 0 .08-.005.08-.101 0-.035-.025-.056-.065-.056-.116 0-.415.015-.531.015-.157 0-.552-.015-.709-.015-.045 0-.106 0-.106.101 0 .056.04.056.152.056.005 0 .151 0 .268.01.131.015.157.03.157.096 0 .046-.056.274-.107.461-.141.557-.8.612-.976.612-.486 0-1.018-.288-1.018-1.062 0-.157.051-.992.582-1.65.274-.344.765-.653 1.266-.653.516 0 .814.39.814.977 0 .202-.015.207-.015.258 0 .05.056.05.076.05.066 0 .066-.01.091-.1zM-148.774 383.257a8.613 8.613 0 0 0-1.279-.285c-.598-.078-.92 0-1.048.05-.183.075-.284.204.04.393.241.145.617.271 1.025.396a8.26 8.26 0 0 0 1.406.322c.57.072.897 0 1.042-.07.157-.075.263-.213-.12-.42-.272-.147-.663-.27-1.066-.386m1.066.771c-.116.055-.428.098-.998-.032-.352-.08-.832-.225-1.136-.316a15.974 15.974 0 0 1-.899-.289c-.52-.198-.334-.305-.257-.336.1-.04.384-.096.92.02.305.068.683.178 1.001.27.383.111.736.214 1.04.326.464.168.46.294.329.357m-3.67.344c.05-.022.114-.05.01-.083a.267.267 0 0 0-.213.014l-2.122.921c-.053.023-.124.054-.02.092.105.038.176.006.233-.018l2.112-.926m1.03.331c.047-.021.11-.05.002-.085a.267.267 0 0 0-.22.017l-2.101.957c-.056.026-.127.058-.018.098.11.04.18.007.233-.018l2.105-.969m-6.532.544a.14.14 0 0 0-.093 0c-.012.005-.011.008-.003.047l.09.263c-.106-.012-.665-.079-1.135.11-.975.39-.905 1.291.316 1.832.878.39 2.049.434 2.776.086.193-.093.336-.208.405-.317.1-.148.06-.235.023-.316.18.04.5.072.541.052.02-.01.012-.021.006-.023a3.517 3.517 0 0 0-.275-.171l-.351-.206c-.077-.045-.15-.091-.226-.135-.2-.117-.206-.123.023-.23.02-.009.06-.031-.043-.07a.149.149 0 0 0-.112 0c-.094.042-.321.156-.417.199-.13.058-.476.198-.609.257-.039.017-.09.04.017.084.06.024.094.01.189-.033.004-.002.128-.058.237-.097.126-.043.163-.046.234-.018.048.02.248.14.41.24.501.305.006.596-.148.67-.426.202-1.228.287-2.078-.083-.169-.073-.998-.473-1.187-.96-.099-.244.027-.542.454-.714.432-.174 1.057-.125 1.642.104.205.08.198.088.25.108.051.02.097 0 .113-.006.054-.023.043-.027-.029-.072l-1.02-.6" style="stroke-width:.352777" transform="translate(178.12 -364)"/>
</svg>
