<svg xml:space="preserve" viewBox="0 0 29.381 25.941" height="98.046" width="111.047" xmlns:xlink="http://www.w3.org/1999/xlink" xmlns="http://www.w3.org/2000/svg">
<defs>
<path id="a" d="M6.157-3.79c.072-.299.191-.777.191-.884 0-.383-.31-.526-.562-.526a.814.814 0 0 0-.61.298c-.179-.19-.573-.502-1.267-.502-2.08 0-3.371 1.89-3.371 3.527 0 1.47 1.1 1.973 2.092 1.973A2.56 2.56 0 0 0 4.292-.55c.454.646 1.243.646 1.375.646.442 0 .789-.251 1.04-.682.299-.478.454-1.124.454-1.183 0-.168-.18-.168-.287-.168-.131 0-.18 0-.239.06-.024.024-.024.048-.096.347-.239.956-.514 1.195-.812 1.195-.132 0-.275-.048-.275-.442 0-.203.047-.395.167-.873.084-.335.203-.813.263-1.076zM4.172-1.112c-.346.407-.908.777-1.482.777-.741 0-.801-.645-.801-.908 0-.622.406-2.092.598-2.559.37-.872.956-1.171 1.446-1.171.706 0 .993.562.993.693l-.024.167z"/>
<path id="b" d="M2.059-3.306h.853c.16 0 .268 0 .268-.184 0-.117-.109-.117-.251-.117h-.795l.31-1.238c.008-.042.025-.084.025-.118 0-.15-.117-.267-.285-.267-.209 0-.335.142-.393.36-.059.209.05-.193-.318 1.263H.619c-.159 0-.268 0-.268.184 0 .117.1.117.252.117h.795L.904-1.33c-.05.21-.126.51-.126.62 0 .493.419.795.896.795.929 0 1.456-1.172 1.456-1.28 0-.11-.109-.11-.134-.11-.1 0-.109.017-.176.16-.234.527-.66.995-1.121.995-.176 0-.293-.108-.293-.41 0-.083.033-.26.05-.343z"/>
</defs>
<g transform="translate(169.905 -436.746)">
<path d="m-153.78 457.62-15.067-18.044" fill="none" stroke="#000" stroke-width=".265"/>
<path d="m-142.1 458.144 1.576-3.423-1.248.506v-6.807h-.688v6.8l-1.248-.5z" color="#000" fill="red" style="text-indent:0;text-decoration-line:none;text-transform:none;stroke-width:.264583"/>
<path d="M-154.972 461.244c.01-.028.129-.266.305-.419a.691.691 0 0 1 .471-.19c.19 0 .258.143.258.333 0 .029 0 .124-.058.348l-.119.49a18.736 18.736 0 0 0-.185.762c0 .067.052.12.124.12.142 0 .166-.11.21-.282l.285-1.138c.01-.038.257-.633.78-.633.191 0 .258.143.258.333 0 .267-.186.786-.29 1.072-.043.114-.067.176-.067.262 0 .214.147.385.376.385.443 0 .61-.7.61-.728 0-.024-.02-.043-.048-.043-.043 0-.048.014-.071.095-.11.381-.286.581-.477.581-.047 0-.123-.005-.123-.157 0-.124.057-.276.076-.329.086-.228.3-.79.3-1.066 0-.286-.167-.5-.529-.5-.319 0-.576.18-.767.461-.014-.257-.171-.462-.528-.462-.424 0-.648.3-.734.42-.014-.272-.21-.42-.419-.42-.138 0-.247.067-.338.248a2.233 2.233 0 0 0-.152.481c0 .02.019.043.052.043.038 0 .043-.005.072-.114.071-.281.161-.562.352-.562.11 0 .148.076.148.219 0 .105-.048.29-.081.438l-.134.514c-.019.09-.071.305-.095.39a4.656 4.656 0 0 0-.086.372c0 .067.053.12.124.12a.183.183 0 0 0 .162-.1c.01-.024.053-.191.076-.286l.105-.429zM-163.185 449.249c.005-.019.014-.048.014-.071 0-.048-.048-.048-.057-.048-.005 0-.176.014-.262.024-.081.005-.153.014-.238.019-.115.01-.148.014-.148.1 0 .048.048.048.095.048.243 0 .243.042.243.09 0 .019 0 .029-.024.114l-.59 2.363a.538.538 0 0 0-.024.166c0 .238.176.429.42.429.156 0 .261-.105.337-.253.081-.157.148-.457.148-.476 0-.024-.019-.043-.048-.043-.043 0-.047.024-.066.095-.086.33-.172.581-.362.581-.143 0-.143-.152-.143-.219 0-.019 0-.119.033-.252z" style="stroke-width:.396875"/>
<path d="M-140.869 444.354c.019-.077.019-.105.019-.124 0-.153-.124-.21-.224-.21a.32.32 0 0 0-.243.115c-.066-.072-.224-.196-.505-.196-.843 0-1.338.753-1.338 1.377 0 .562.424.776.834.776.247 0 .438-.095.523-.148-.028.12-.057.238-.09.358-.033.138-.067.28-.233.414-.2.167-.358.167-.486.167-.114 0-.2 0-.324-.02a.368.368 0 0 0 .148-.276c0-.104-.081-.219-.239-.219a.348.348 0 0 0-.338.353c0 .314.42.333.758.333.428 0 1.085-.1 1.228-.671zm-.833 1.2c-.02.067-.02.086-.077.138-.252.229-.476.229-.519.229-.186 0-.324-.105-.324-.358 0-.228.158-.8.229-.976.167-.41.438-.476.581-.476.295 0 .4.233.4.267 0 .01 0 .019-.014.07z" fill="red" style="stroke-width:.396875"/>
<path d="M-149.315 453.102a.356.356 0 0 0-.257.328c0 .105.081.22.238.22.167 0 .343-.139.343-.372 0-.252-.252-.419-.543-.419-.271 0-.447.205-.51.29-.118-.2-.385-.29-.656-.29-.6 0-.924.586-.924.743 0 .067.071.067.114.067.057 0 .09 0 .11-.062.138-.434.48-.577.676-.577.18 0 .266.086.266.239 0 .09-.066.352-.11.523l-.161.653c-.071.29-.243.433-.405.433-.024 0-.133 0-.228-.071a.356.356 0 0 0 .257-.329c0-.104-.081-.219-.238-.219-.167 0-.343.138-.343.372 0 .252.252.419.543.419.271 0 .447-.205.51-.29.118.2.385.29.656.29.6 0 .924-.586.924-.743 0-.067-.071-.067-.114-.067-.057 0-.09 0-.11.062-.138.433-.48.576-.676.576-.18 0-.266-.085-.266-.238 0-.1.061-.352.104-.528.034-.124.143-.572.167-.648.071-.286.238-.434.405-.434.024 0 .133 0 .228.072z" style="stroke-width:.396875"/>
<circle transform="rotate(-26.402)" cx="-341.229" cy="341.507" color="#000" fill="#5e5bff" r="1.984" style="stroke-width:.264583"/>
<circle cx="-168.847" cy="439.576" r="1.058" color="#000"/>
<g transform="matrix(.42333 0 0 .42333 -241.01 401.67)" style="stroke-width:.833333">
<use x="175.226" y="88.26" xlink:href="#a" style="stroke-width:.833333"/>
<use x="182.793" y="90.054" xlink:href="#b" style="font-variation-settings:normal;opacity:1;vector-effect:none;fill:red;fill-opacity:1;stroke-width:.937499;stroke-linecap:butt;stroke-linejoin:miter;stroke-miterlimit:4;stroke-dasharray:none;stroke-dashoffset:0;stroke-opacity:1;-inkscape-stroke:none;stop-color:#000;stop-opacity:1"/>
</g>
</g>
</svg>
