<svg width="187.391" height="61.577" viewBox="0 0 49.581 16.292" xml:space="preserve" xmlns:xlink="http://www.w3.org/1999/xlink" xmlns="http://www.w3.org/2000/svg">
<defs>
<path id="e" d="M9.086-8.309a.121.121 0 0 0-.132-.12c-.035 0-.047.013-.179.144l-.837.92c-.107-.167-.657-1.063-1.984-1.063-2.666 0-5.356 2.642-5.356 5.415C.598-1.112 1.925.263 3.862.263c.526 0 1.064-.108 1.494-.287.598-.239.825-.49 1.04-.73.108.3.418.742.538.742.06 0 .084-.036.084-.048.024-.024.143-.478.203-.729l.227-.92c.048-.204.108-.407.155-.61.132-.538.144-.562.825-.574.06 0 .192-.012.192-.24 0-.083-.06-.13-.156-.13-.275 0-.98.035-1.255.035-.37 0-1.303-.036-1.674-.036-.107 0-.25 0-.25.24 0 .13.095.13.358.13.012 0 .358 0 .633.025.311.036.371.071.371.227 0 .107-.131.645-.251 1.088C6.061-.24 4.507-.108 4.089-.108c-1.148 0-2.403-.681-2.403-2.51 0-.37.12-2.343 1.375-3.898.645-.813 1.805-1.542 2.988-1.542 1.22 0 1.925.92 1.925 2.308 0 .478-.036.49-.036.61 0 .119.132.119.18.119.155 0 .155-.024.215-.24z"/>
<path id="c" d="M2.469-3.64C1.213-3.322.51-2.243.51-1.364.51-.477 1.188.1 2.017.1c1.012 0 1.8-1.188 1.8-2.41 0-.811-.436-1.289-.696-1.573-.31-.352-.937-1.038-.937-1.423 0-.108.117-.351.46-.351.285 0 .52.134.703.234.076.042.377.218.503.218.2 0 .351-.184.351-.352 0-.209-.109-.226-.56-.318-.101-.017-.486-.1-.754-.1-.627 0-.979.368-.979.879 0 .443.268.954.56 1.456zm.142.226c.234.376.536.862.536 1.464 0 .686-.41 1.816-1.113 1.816-.46 0-.913-.301-.913-.996 0-.552.318-2 1.49-2.284z"/>
<path id="f" d="M2.059-3.306h.853c.16 0 .268 0 .268-.184 0-.117-.109-.117-.251-.117h-.795l.31-1.238c.008-.042.025-.084.025-.118 0-.15-.117-.267-.285-.267-.209 0-.335.142-.393.36-.059.209.05-.193-.318 1.263H.619c-.159 0-.268 0-.268.184 0 .117.1.117.252.117h.795L.904-1.33c-.05.21-.126.51-.126.62 0 .493.419.795.896.795.929 0 1.456-1.172 1.456-1.28 0-.11-.109-.11-.134-.11-.1 0-.109.017-.176.16-.234.527-.66.995-1.121.995-.176 0-.293-.108-.293-.41 0-.083.033-.26.05-.343z"/>
<path id="b" d="M3.875-1.891h2.56c.11 0 .31 0 .31-.201 0-.21-.192-.21-.31-.21h-2.56V-4.87c0-.108 0-.31-.201-.31-.21 0-.21.193-.21.31v2.57H.896c-.108 0-.31 0-.31.2 0 .21.193.21.31.21h2.57V.678c0 .109 0 .31.2.31.21 0 .21-.193.21-.31z"/>
<path id="d" d="M5.5-3.826c0-.956-.06-1.912-.479-2.797-.55-1.148-1.53-1.34-2.032-1.34-.718 0-1.59.312-2.08 1.424-.383.824-.443 1.757-.443 2.713 0 .897.048 1.973.538 2.882A2.19 2.19 0 0 0 2.977.263c.645 0 1.554-.251 2.08-1.387.383-.825.442-1.757.442-2.702zM2.976 0C2.51 0 1.805-.299 1.59-1.447c-.131-.717-.131-1.817-.131-2.522 0-.765 0-1.554.095-2.2.227-1.423 1.124-1.53 1.423-1.53.394 0 1.183.215 1.41 1.399.12.67.12 1.578.12 2.33 0 .898 0 1.71-.131 2.476C4.196-.36 3.515 0 2.976 0Z"/>
<path id="a" d="M8.213-3.91c.18 0 .407 0 .407-.238 0-.24-.227-.24-.395-.24H1.064c-.167 0-.395 0-.395.24 0 .239.228.239.407.239zm.012 2.32c.168 0 .395 0 .395-.24 0-.238-.227-.238-.407-.238H1.076c-.18 0-.407 0-.407.239s.228.239.395.239z"/>
</defs>
<g transform="translate(180.005 -403.842)">
<path d="M-179.974 410.341c18.903 4.582 29.65-.721 49.541.562" color="#000" fill="none" stroke="#000" stroke-linejoin="round" style="stroke-width:.264583"/>
<path d="M-172.32 417.046a.354.354 0 0 0-.256.327c0 .105.08.219.237.219.166 0 .342-.138.342-.37 0-.252-.252-.418-.541-.418-.27 0-.446.204-.508.29-.118-.2-.384-.29-.654-.29-.598 0-.92.584-.92.74 0 .067.07.067.113.067.057 0 .09 0 .11-.062.137-.432.478-.574.673-.574.18 0 .266.085.266.237 0 .09-.067.351-.11.522l-.16.65c-.072.29-.243.432-.404.432-.024 0-.133 0-.228-.071a.354.354 0 0 0 .256-.328c0-.104-.08-.218-.237-.218-.166 0-.342.137-.342.37 0 .251.252.417.541.417.27 0 .446-.204.508-.289.119.2.384.29.655.29.598 0 .92-.584.92-.74 0-.067-.07-.067-.114-.067-.057 0-.09 0-.109.062-.137.431-.479.574-.673.574-.18 0-.266-.086-.266-.238 0-.1.061-.35.104-.526.033-.124.143-.57.166-.645.071-.285.237-.432.404-.432.023 0 .132 0 .227.07zM-169.375 420.087c0-.014 0-.023-.08-.104-.594-.598-.745-1.495-.745-2.22 0-.826.18-1.652.764-2.245.061-.057.061-.066.061-.08 0-.034-.019-.048-.047-.048-.048 0-.475.323-.755.925a3.448 3.448 0 0 0-.299 1.447c0 .37.053.945.314 1.48.284.584.692.893.74.893.028 0 .047-.015.047-.048zM-167.123 420.087c0-.014 0-.023.08-.104.594-.598.746-1.495.746-2.22 0-.826-.18-1.652-.764-2.245-.062-.057-.062-.066-.062-.08 0-.034.019-.048.047-.048.048 0 .475.323.755.925.242.522.299 1.049.299 1.447 0 .37-.052.945-.313 1.48-.285.584-.693.893-.74.893-.029 0-.048-.015-.048-.048zM-168.123 417.05h.446c.095 0 .143 0 .143-.094 0-.052-.048-.052-.133-.052h-.418c.17-.674.195-.77.195-.798 0-.08-.057-.128-.138-.128-.014 0-.147.005-.19.171l-.185.755h-.446c-.095 0-.142 0-.142.09 0 .057.038.057.133.057h.417c-.341 1.347-.36 1.428-.36 1.513 0 .256.18.437.436.437.484 0 .755-.693.755-.73 0-.048-.038-.048-.057-.048-.043 0-.048.014-.071.066-.205.493-.456.607-.617.607-.1 0-.147-.061-.147-.218 0-.114.01-.147.028-.228zM-143.193 417.857h1.324c.066 0 .157 0 .157-.095 0-.094-.09-.094-.157-.094h-1.324v-1.329c0-.066 0-.157-.095-.157s-.095.09-.095.157v1.329h-1.328c-.066 0-.157 0-.157.094 0 .095.09.095.157.095h1.328v1.329c0 .066 0 .156.095.156s.095-.09.095-.156zM-151.114 417.046a.354.354 0 0 0-.257.327c0 .105.081.219.238.219.166 0 .341-.138.341-.37 0-.252-.251-.418-.54-.418-.271 0-.447.204-.508.29-.119-.2-.385-.29-.655-.29-.598 0-.92.584-.92.74 0 .067.07.067.113.067.057 0 .09 0 .11-.062.137-.432.479-.574.673-.574.18 0 .266.085.266.237 0 .09-.067.351-.11.522l-.16.65c-.072.29-.243.432-.404.432-.024 0-.133 0-.228-.071a.354.354 0 0 0 .257-.328c0-.104-.081-.218-.238-.218-.166 0-.341.137-.341.37 0 .251.251.417.54.417.271 0 .447-.204.508-.289.119.2.385.29.655.29.598 0 .92-.584.92-.74 0-.067-.07-.067-.113-.067-.057 0-.09 0-.11.062-.137.431-.479.574-.673.574-.18 0-.266-.086-.266-.238 0-.1.062-.35.104-.526.034-.124.143-.57.167-.645.07-.285.237-.432.403-.432.024 0 .133 0 .228.07zM-148.17 420.087c0-.014 0-.023-.08-.104-.593-.598-.745-1.495-.745-2.22 0-.826.18-1.652.764-2.245.062-.057.062-.066.062-.08 0-.034-.02-.048-.048-.048-.047 0-.474.323-.754.925a3.448 3.448 0 0 0-.3 1.447c0 .37.053.945.314 1.48.285.584.693.893.74.893.029 0 .048-.015.048-.048zM-136.144 420.087c0-.014 0-.023.08-.104.594-.598.745-1.495.745-2.22 0-.826-.18-1.652-.764-2.245-.061-.057-.061-.066-.061-.08 0-.034.019-.048.047-.048.048 0 .475.323.755.925.242.522.299 1.049.299 1.447 0 .37-.053.945-.314 1.48-.284.584-.692.893-.74.893-.028 0-.047-.014-.047-.048zM-146.917 417.05h.446c.095 0 .142 0 .142-.094 0-.052-.047-.052-.133-.052h-.417c.17-.674.194-.77.194-.798 0-.08-.057-.128-.137-.128-.014 0-.147.005-.19.171l-.185.755h-.446c-.095 0-.142 0-.142.09 0 .057.038.057.132.057h.418c-.342 1.347-.36 1.428-.36 1.513 0 .256.18.437.436.437.484 0 .754-.693.754-.73 0-.048-.038-.048-.057-.048-.042 0-.047.014-.07.066-.205.493-.456.607-.618.607-.1 0-.147-.061-.147-.218 0-.114.01-.147.029-.228zM-137.107 416.904h.446c.095 0 .143 0 .143-.095 0-.052-.048-.052-.133-.052h-.418c.171-.674.195-.77.195-.798 0-.08-.057-.128-.138-.128-.014 0-.147.005-.19.171l-.184.755h-.446c-.095 0-.143 0-.143.09 0 .057.038.057.133.057h.418c-.342 1.347-.361 1.428-.361 1.513 0 .256.18.437.436.437.484 0 .755-.693.755-.731 0-.047-.038-.047-.057-.047-.043 0-.047.014-.071.066-.204.493-.456.607-.617.607-.1 0-.147-.061-.147-.218 0-.114.01-.147.028-.228zM-139.15 416.875c-.593.143-1.053.76-1.053 1.334 0 .455.304.797.75.797.555 0 .948-.745.948-1.4 0-.432-.19-.67-.35-.883-.171-.213-.451-.569-.451-.778 0-.104.095-.218.26-.218.143 0 .238.062.337.128.095.057.19.119.261.119.119 0 .19-.114.19-.19 0-.104-.076-.119-.247-.157-.246-.052-.313-.052-.389-.052-.37 0-.54.204-.54.489 0 .256.137.522.284.811zm.057.105c.119.218.261.474.261.816 0 .313-.18 1.105-.621 1.105-.261 0-.456-.199-.456-.56 0-.299.176-1.19.816-1.361z"/>
<g stroke-width=".833" transform="matrix(.26458 0 0 .26458 -180.168 403.725)">
<use transform="matrix(1.6 0 0 1.6 -261.858 -127.231)" x="202.193" y="88.26" width="100%" height="100%" xlink:href="#a"/>
<use transform="matrix(1.6 0 0 1.6 -243.722 -127.231)" x="227.741" y="90.054" width="100%" height="100%" fill="#00f" xlink:href="#b"/>
<use transform="matrix(1.6 0 0 1.6 -243.722 -127.231)" x="235.052" y="90.054" width="100%" height="100%" fill="#00f" xlink:href="#c"/>
<use transform="matrix(1.6 0 0 1.6 -243.722 -127.231)" x="247.272" y="88.26" width="100%" height="100%" xlink:href="#a"/>
<use transform="matrix(1.6 0 0 1.6 -243.722 -127.231)" x="259.857" y="88.26" width="100%" height="100%" xlink:href="#d"/>
</g>
<circle transform="rotate(-26.402)" cx="-338.307" cy="291.591" color="#000" fill="#5e5bff" r="1.323"/>
<circle transform="rotate(-26.402)" cx="-319.296" cy="300.984" color="#000" fill="#5e5bff" r="1.323"/>
<use transform="matrix(.42333 0 0 .42333 -253.379 370.062)" x="185.299" y="88.26" width="100%" height="100%" stroke-linejoin="round" stroke-miterlimit="100000" stroke-width=".833" xlink:href="#e"/>
<use transform="matrix(.42333 0 0 .42333 -232.174 370.047)" x="185.299" y="88.26" width="100%" height="100%" stroke-linejoin="round" stroke-miterlimit="100000" stroke-width=".833" xlink:href="#e" style="fill:#00f"/>
<use transform="matrix(.42333 0 0 .42333 -253.379 370.062)" x="194.663" y="90.054" width="100%" height="100%" stroke-linejoin="round" stroke-miterlimit="100000" stroke-width=".833" xlink:href="#f"/>
<use transform="matrix(.42333 0 0 .42333 -232.173 370.056)" x="194.663" y="90.054" width="100%" height="100%" stroke-linejoin="round" stroke-miterlimit="100000" stroke-width=".833" xlink:href="#f" style="fill:#00f"/>
<use transform="matrix(.42333 0 0 .42333 -225.594 370.075)" x="194.663" y="90.054" width="100%" height="100%" stroke-linejoin="round" stroke-miterlimit="100000" stroke-width=".833" xlink:href="#f" style="fill:#00f"/>
</g>
</svg>
