<svg width="111.047" height="103.221" viewBox="0 0 29.381 27.311" xml:space="preserve" xmlns="http://www.w3.org/2000/svg">
<g transform="translate(169.905 -435.377)">
<path d="m-153.78 457.62-15.067-18.044" fill="none" stroke="#000" stroke-width=".265"/>
<path d="m-142.1 458.144 1.576-3.423-1.248.506v-6.807h-.688v6.8l-1.248-.5z" color="#000" fill="red" style="text-indent:0;text-decoration-line:none;text-transform:none;stroke-width:.264583"/>
<g stroke-width="1.5">
<path d="M-154.972 461.244a1.34 1.34 0 0 1 .305-.419.691.691 0 0 1 .471-.19c.19 0 .258.143.258.333 0 .029 0 .124-.058.348l-.119.49a18.752 18.752 0 0 0-.185.762c0 .067.052.12.123.12.143 0 .167-.11.21-.282l.286-1.138c.01-.038.257-.633.78-.633.191 0 .258.143.258.333 0 .267-.186.786-.29 1.072-.043.114-.067.176-.067.262 0 .214.147.385.376.385.443 0 .61-.7.61-.728 0-.024-.02-.043-.048-.043-.043 0-.048.014-.071.095-.11.381-.286.581-.477.581-.047 0-.124-.005-.124-.157 0-.124.058-.276.077-.329.085-.228.3-.79.3-1.066 0-.286-.167-.5-.529-.5-.319 0-.576.18-.767.462-.014-.258-.171-.462-.528-.462-.424 0-.648.3-.734.419-.014-.272-.21-.42-.419-.42-.138 0-.247.067-.338.248a2.231 2.231 0 0 0-.152.481c0 .02.019.043.052.043.038 0 .043-.005.071-.114.072-.281.162-.562.353-.562.11 0 .148.076.148.219 0 .105-.048.29-.081.438l-.134.514c-.019.09-.071.305-.095.39a4.643 4.643 0 0 0-.086.372c0 .067.053.12.124.12a.183.183 0 0 0 .162-.1c.01-.024.052-.191.076-.286l.105-.429zM-163.185 449.249c.004-.019.014-.048.014-.071 0-.048-.048-.048-.057-.048-.005 0-.176.014-.262.024-.081.005-.153.014-.238.019-.115.01-.148.014-.148.1 0 .047.048.047.095.047.243 0 .243.043.243.09 0 .02 0 .03-.024.115l-.59 2.362a.538.538 0 0 0-.024.167c0 .238.176.429.42.429.156 0 .261-.105.337-.253.081-.157.148-.457.148-.476 0-.024-.02-.043-.048-.043-.043 0-.047.024-.066.095-.086.33-.172.581-.362.581-.143 0-.143-.152-.143-.219 0-.019 0-.119.033-.252z"/>
<path d="M-140.869 444.354c.019-.077.019-.105.019-.124 0-.153-.124-.21-.224-.21a.32.32 0 0 0-.243.115c-.066-.072-.224-.196-.505-.196-.843 0-1.338.753-1.338 1.377 0 .562.424.776.834.776.247 0 .438-.095.524-.148-.03.12-.058.238-.091.358-.033.138-.067.28-.233.414-.2.167-.358.167-.486.167-.114 0-.2 0-.324-.02a.368.368 0 0 0 .148-.276c0-.104-.081-.219-.238-.219a.348.348 0 0 0-.339.353c0 .314.42.333.758.333.428 0 1.085-.1 1.228-.671zm-.833 1.2c-.02.067-.02.086-.077.138-.252.229-.476.229-.519.229-.186 0-.324-.105-.324-.358 0-.228.158-.8.229-.976.167-.41.438-.476.581-.476.295 0 .4.233.4.267 0 .009 0 .019-.014.07z" fill="red"/>
<path d="M-149.315 453.102a.356.356 0 0 0-.257.328c0 .105.081.22.238.22.167 0 .343-.139.343-.372 0-.252-.252-.419-.543-.419-.271 0-.447.205-.51.29-.118-.2-.385-.29-.656-.29-.6 0-.924.586-.924.743 0 .067.071.067.114.067.057 0 .09 0 .11-.062.138-.434.48-.577.676-.577.18 0 .266.086.266.239 0 .09-.066.352-.11.523l-.161.653c-.071.29-.243.433-.405.433-.024 0-.133 0-.228-.071a.356.356 0 0 0 .257-.329c0-.105-.081-.219-.238-.219-.167 0-.343.138-.343.372 0 .252.252.419.543.419.271 0 .447-.205.51-.29.118.2.385.29.656.29.6 0 .924-.586.924-.743 0-.067-.071-.067-.114-.067-.057 0-.09 0-.11.062-.138.433-.48.576-.676.576-.18 0-.266-.085-.266-.238 0-.1.061-.352.104-.528.034-.124.143-.572.167-.648.071-.286.238-.434.405-.434.024 0 .133 0 .228.072zM-164.17 437.44c.028-.12.076-.31.076-.353 0-.153-.124-.21-.224-.21a.324.324 0 0 0-.243.12.668.668 0 0 0-.505-.2c-.828 0-1.343.752-1.343 1.404 0 .586.439.786.834.786.338 0 .586-.186.662-.257.18.257.495.257.547.257.177 0 .315-.1.415-.272.119-.19.18-.447.18-.471 0-.067-.07-.067-.114-.067-.052 0-.071 0-.095.024-.01.01-.01.02-.038.138-.095.381-.205.476-.324.476-.052 0-.11-.019-.11-.176 0-.08.02-.157.067-.347.034-.134.081-.324.105-.43zm-.79 1.066c-.139.162-.363.31-.591.31-.296 0-.32-.258-.32-.363 0-.247.162-.833.239-1.019.147-.347.38-.466.576-.466.28 0 .395.223.395.276l-.01.066zM-161.268 440.106c0-.014 0-.024-.08-.105-.477-.48-.743-1.267-.743-2.238 0-.924.223-1.72.776-2.281.047-.043.047-.053.047-.067 0-.029-.023-.038-.042-.038-.062 0-.453.343-.686.81-.243.48-.353.99-.353 1.576 0 .424.067.99.315 1.5.28.572.671.881.724.881.019 0 .042-.01.042-.038z"/>
<path d="M-160.044 437.034h.438c.09 0 .138 0 .138-.085 0-.053-.029-.053-.124-.053h-.419l.176-.695c.02-.067.02-.076.02-.11 0-.076-.063-.119-.125-.119-.038 0-.147.015-.185.167l-.186.757h-.448c-.095 0-.138 0-.138.09 0 .048.033.048.124.048h.424l-.314 1.258c-.039.166-.053.214-.053.276 0 .224.157.428.424.428.481 0 .738-.695.738-.728 0-.029-.019-.043-.047-.043-.01 0-.029 0-.039.019-.004.005-.01.01-.042.086-.1.238-.32.571-.596.571-.143 0-.152-.119-.152-.224 0-.004 0-.095.014-.152z" fill="red"/>
<path d="M-157.975 437.763c0-.362-.047-.953-.314-1.505-.281-.572-.671-.881-.724-.881-.019 0-.043.01-.043.038 0 .014 0 .024.081.105.476.48.743 1.267.743 2.238 0 .924-.224 1.72-.776 2.281-.048.043-.048.053-.048.067 0 .029.024.038.043.038.062 0 .453-.343.686-.81.243-.485.352-1 .352-1.571z"/>
</g>
<circle transform="rotate(-26.402)" cx="-341.229" cy="341.507" color="#000" fill="#5e5bff" r="1.984" style="stroke-width:.264583"/>
<circle cx="-168.847" cy="439.576" r="1.058" color="#000"/>
</g>
</svg>
