<svg xml:space="preserve" viewBox="0 0 49.581 16.344" height="61.774" width="187.391" xmlns:xlink="http://www.w3.org/1999/xlink" xmlns="http://www.w3.org/2000/svg">
<defs>
<path id="e" d="M9.086-8.309a.121.121 0 0 0-.132-.12c-.035 0-.047.013-.179.144l-.837.92c-.107-.167-.657-1.063-1.984-1.063-2.666 0-5.356 2.642-5.356 5.415C.598-1.112 1.925.263 3.862.263c.526 0 1.064-.108 1.494-.287.598-.239.825-.49 1.04-.73.108.3.418.742.538.742.06 0 .084-.036.084-.048.024-.024.143-.478.203-.729l.227-.92c.048-.204.108-.407.155-.61.132-.538.144-.562.825-.574.06 0 .192-.012.192-.24 0-.083-.06-.13-.156-.13-.275 0-.98.035-1.255.035-.37 0-1.303-.036-1.674-.036-.107 0-.25 0-.25.24 0 .13.095.13.358.13.012 0 .358 0 .633.025.311.036.371.071.371.227 0 .107-.131.645-.251 1.088C6.061-.24 4.507-.108 4.089-.108c-1.148 0-2.403-.681-2.403-2.51 0-.37.12-2.343 1.375-3.898.645-.813 1.805-1.542 2.988-1.542 1.22 0 1.925.92 1.925 2.308 0 .478-.036.49-.036.61 0 .119.132.119.18.119.155 0 .155-.024.215-.24z"/>
<path id="c" d="M2.469-3.64C1.213-3.322.51-2.243.51-1.364.51-.477 1.188.1 2.017.1c1.012 0 1.8-1.188 1.8-2.41 0-.811-.436-1.289-.696-1.573-.31-.352-.937-1.038-.937-1.423 0-.108.117-.351.46-.351.285 0 .52.134.703.234.076.042.377.218.503.218.2 0 .351-.184.351-.352 0-.209-.109-.226-.56-.318-.101-.017-.486-.1-.754-.1-.627 0-.979.368-.979.879 0 .443.268.954.56 1.456zm.142.226c.234.376.536.862.536 1.464 0 .686-.41 1.816-1.113 1.816-.46 0-.913-.301-.913-.996 0-.552.318-2 1.49-2.284z"/>
<path id="f" d="M2.059-3.306h.853c.16 0 .268 0 .268-.184 0-.117-.109-.117-.251-.117h-.795l.31-1.238c.008-.042.025-.084.025-.118 0-.15-.117-.267-.285-.267-.209 0-.335.142-.393.36-.059.209.05-.193-.318 1.263H.619c-.159 0-.268 0-.268.184 0 .117.1.117.252.117h.795L.904-1.33c-.05.21-.126.51-.126.62 0 .493.419.795.896.795.929 0 1.456-1.172 1.456-1.28 0-.11-.109-.11-.134-.11-.1 0-.109.017-.176.16-.234.527-.66.995-1.121.995-.176 0-.293-.108-.293-.41 0-.083.033-.26.05-.343z"/>
<path id="b" d="M3.875-1.891h2.56c.11 0 .31 0 .31-.201 0-.21-.192-.21-.31-.21h-2.56V-4.87c0-.108 0-.31-.201-.31-.21 0-.21.193-.21.31v2.57H.896c-.108 0-.31 0-.31.2 0 .21.193.21.31.21h2.57V.678c0 .109 0 .31.2.31.21 0 .21-.193.21-.31z"/>
<path id="d" d="M5.5-3.826c0-.956-.06-1.912-.479-2.797-.55-1.148-1.53-1.34-2.032-1.34-.718 0-1.59.312-2.08 1.424-.383.824-.443 1.757-.443 2.713 0 .897.048 1.973.538 2.882A2.19 2.19 0 0 0 2.977.263c.645 0 1.554-.251 2.08-1.387.383-.825.442-1.757.442-2.702zM2.976 0C2.51 0 1.805-.299 1.59-1.447c-.131-.717-.131-1.817-.131-2.522 0-.765 0-1.554.095-2.2.227-1.423 1.124-1.53 1.423-1.53.394 0 1.183.215 1.41 1.399.12.67.12 1.578.12 2.33 0 .898 0 1.71-.131 2.476C4.196-.36 3.515 0 2.976 0Z"/>
<path id="a" d="M8.213-3.91c.18 0 .407 0 .407-.238 0-.24-.227-.24-.395-.24H1.064c-.167 0-.395 0-.395.24 0 .239.228.239.407.239zm.012 2.32c.168 0 .395 0 .395-.24 0-.238-.227-.238-.407-.238H1.076c-.18 0-.407 0-.407.239s.228.239.395.239z"/>
<path id="g" d="M6.408-4.794a.893.893 0 0 0-.646.825c0 .263.204.55.598.55.419 0 .86-.347.86-.933 0-.633-.633-1.052-1.362-1.052-.681 0-1.124.514-1.28.73-.298-.503-.968-.73-1.649-.73-1.506 0-2.32 1.47-2.32 1.865 0 .168.18.168.288.168.143 0 .227 0 .275-.156.346-1.088 1.207-1.446 1.697-1.446.455 0 .67.215.67.597 0 .228-.168.885-.275 1.315l-.407 1.638c-.179.73-.61 1.088-1.016 1.088-.06 0-.335 0-.574-.18a.893.893 0 0 0 .646-.824c0-.263-.203-.55-.598-.55-.418 0-.86.347-.86.933 0 .633.633 1.052 1.362 1.052.682 0 1.124-.514 1.28-.73.298.502.968.73 1.65.73 1.506 0 2.319-1.47 2.319-1.865 0-.168-.18-.168-.287-.168-.144 0-.228 0-.275.156C6.157-.693 5.296-.335 4.806-.335c-.454 0-.67-.215-.67-.598 0-.25.156-.884.264-1.327.083-.31.358-1.434.418-1.625.18-.718.598-1.088 1.016-1.088.06 0 .335 0 .574.179z"/>
<path id="j" d="M2.469-3.64C1.213-3.322.51-2.243.51-1.364.51-.477 1.188.1 2.017.1c1.012 0 1.8-1.188 1.8-2.41 0-.811-.436-1.289-.696-1.573-.31-.352-.937-1.038-.937-1.423 0-.108.117-.351.46-.351.285 0 .52.134.703.234.076.042.377.218.503.218.2 0 .351-.184.351-.352 0-.209-.109-.226-.56-.318-.101-.017-.486-.1-.754-.1-.627 0-.979.368-.979.879 0 .443.268.954.56 1.456zm.142.226c.234.376.536.862.536 1.464 0 .686-.41 1.816-1.113 1.816-.46 0-.913-.301-.913-.996 0-.552.318-2 1.49-2.284z"/>
<path id="h" d="M2.059-3.306h.853c.16 0 .268 0 .268-.184 0-.117-.109-.117-.251-.117h-.795l.31-1.238c.008-.042.025-.084.025-.118 0-.15-.117-.267-.285-.267-.209 0-.335.142-.393.36-.059.209.05-.193-.318 1.263H.619c-.159 0-.268 0-.268.184 0 .117.1.117.252.117h.795L.904-1.33c-.05.21-.126.51-.126.62 0 .493.419.795.896.795.929 0 1.456-1.172 1.456-1.28 0-.11-.109-.11-.134-.11-.1 0-.109.017-.176.16-.234.527-.66.995-1.121.995-.176 0-.293-.108-.293-.41 0-.083.033-.26.05-.343z"/>
<path id="i" d="M3.875-1.891h2.56c.11 0 .31 0 .31-.201 0-.21-.192-.21-.31-.21h-2.56V-4.87c0-.108 0-.31-.201-.31-.21 0-.21.193-.21.31v2.57H.896c-.108 0-.31 0-.31.2 0 .21.193.21.31.21h2.57V.678c0 .109 0 .31.2.31.21 0 .21-.193.21-.31z"/>
</defs>
<g transform="translate(180.005 -403.842)">
<path d="M-179.974 410.341c18.903 4.582 29.65-.721 49.541.562" color="#000" fill="none" stroke="#000" stroke-linejoin="round" style="stroke-width:.264583"/>
<g stroke-width=".833" transform="matrix(.26458 0 0 .26458 -180.168 403.725)">
<use transform="matrix(1.6 0 0 1.6 -261.858 -127.231)" x="202.193" y="88.26" width="100%" height="100%" xlink:href="#a"/>
<use transform="matrix(1.6 0 0 1.6 -243.722 -127.231)" x="227.741" y="90.054" width="100%" height="100%" fill="#00f" xlink:href="#b"/>
<use transform="matrix(1.6 0 0 1.6 -243.722 -127.231)" x="235.052" y="90.054" width="100%" height="100%" fill="#00f" xlink:href="#c"/>
<use transform="matrix(1.6 0 0 1.6 -243.722 -127.231)" x="247.272" y="88.26" width="100%" height="100%" xlink:href="#a"/>
<use transform="matrix(1.6 0 0 1.6 -243.722 -127.231)" x="259.857" y="88.26" width="100%" height="100%" xlink:href="#d"/>
</g>
<circle transform="rotate(-26.402)" cx="-338.307" cy="291.591" color="#000" fill="#5e5bff" r="1.323"/>
<circle transform="rotate(-26.402)" cx="-319.296" cy="300.984" color="#000" fill="#5e5bff" r="1.323"/>
<use transform="matrix(.42333 0 0 .42333 -253.379 370.062)" x="185.299" y="88.26" width="100%" height="100%" stroke-linejoin="round" stroke-miterlimit="100000" stroke-width=".833" xlink:href="#e"/>
<use transform="matrix(.42333 0 0 .42333 -232.174 370.047)" x="185.299" y="88.26" width="100%" height="100%" stroke-linejoin="round" stroke-miterlimit="100000" stroke-width=".833" xlink:href="#e" style="fill:#00f"/>
<use transform="matrix(.42333 0 0 .42333 -253.379 370.062)" x="194.663" y="90.054" width="100%" height="100%" stroke-linejoin="round" stroke-miterlimit="100000" stroke-width=".833" xlink:href="#f"/>
<use transform="matrix(.42333 0 0 .42333 -232.173 370.056)" x="194.663" y="90.054" width="100%" height="100%" stroke-linejoin="round" stroke-miterlimit="100000" stroke-width=".833" xlink:href="#f" style="fill:#00f"/>
<use transform="matrix(.42333 0 0 .42333 -225.594 370.075)" x="194.663" y="90.054" width="100%" height="100%" stroke-linejoin="round" stroke-miterlimit="100000" stroke-width=".833" xlink:href="#f" style="fill:#00f"/>
<g transform="matrix(.42333 0 0 .42333 -227.794 381.646)" style="stroke-width:.833333">
<use x="175.07" y="88.26" xlink:href="#g" style="stroke-width:.833333"/>
<use x="182.949" y="90.054" xlink:href="#h" style="stroke-width:.833333"/>
<use x="186.56" y="90.054" xlink:href="#i" style="stroke-width:.833333"/>
<use x="193.9" y="90.054" xlink:href="#j" style="stroke-width:.833333"/>
<use x="198.548" y="90.054" xlink:href="#h" style="stroke-width:.833333"/>
</g>
<g transform="matrix(.42333 0 0 .42333 -249.076 381.646)" style="stroke-width:.833333">
<use x="175.07" y="88.26" xlink:href="#g" style="stroke-width:.833333"/>
<use x="182.949" y="90.054" xlink:href="#h" style="stroke-width:.833333"/>
</g>
</g>
</svg>
