<svg width="135.336" height="123.123" viewBox="0 0 35.808 32.576" xml:space="preserve" xmlns="http://www.w3.org/2000/svg">
<defs>
<marker id="b" overflow="visible" orient="auto">
<path d="m-10 0-4 4L0 0l-14-4Z" fill-rule="evenodd" stroke="#000" stroke-width=".8pt"/>
</marker>
<marker id="a" overflow="visible" orient="auto">
<path d="m-10 0-4 4L0 0l-14-4Z" fill-rule="evenodd" stroke="#000" stroke-width=".8pt"/>
</marker>
</defs>
<g transform="translate(177.608 -478.394)">
<path d="m-155.058 504.029-15.156-18.14" fill="none" stroke="#000" stroke-linecap="round" stroke-width=".265"/>
<path d="m-143.378 504.553 1.577-3.424-1.248.507v-6.807h-.688v6.8l-1.248-.5z" color="#000" fill="red" style="text-indent:0;text-decoration-line:none;text-transform:none;stroke-width:.264582"/>
<g stroke-width="1.5">
<path d="M-156.249 507.653a1.34 1.34 0 0 1 .305-.419.691.691 0 0 1 .472-.19c.19 0 .257.143.257.333 0 .029 0 .124-.057.348l-.12.49a18.752 18.752 0 0 0-.185.762c0 .067.052.12.124.12.143 0 .166-.11.21-.281l.285-1.139c.01-.038.257-.633.781-.633.19 0 .257.143.257.333 0 .267-.186.786-.29 1.072-.043.114-.067.176-.067.262 0 .214.148.385.376.385.443 0 .61-.7.61-.728 0-.024-.02-.043-.048-.043-.043 0-.047.014-.071.095-.11.381-.286.581-.476.581-.048 0-.124-.005-.124-.157 0-.124.057-.276.076-.329.086-.228.3-.79.3-1.066 0-.286-.167-.5-.529-.5-.319 0-.576.18-.766.462-.015-.258-.172-.462-.53-.462-.423 0-.647.3-.732.419-.015-.272-.21-.42-.42-.42-.138 0-.247.067-.338.248a2.231 2.231 0 0 0-.152.481c0 .02.019.043.052.043.038 0 .043-.005.072-.114.071-.281.162-.562.352-.562.11 0 .148.076.148.219 0 .105-.048.29-.081.438l-.134.514c-.019.09-.071.305-.095.391a4.643 4.643 0 0 0-.086.371c0 .067.053.12.124.12a.183.183 0 0 0 .162-.1c.01-.024.053-.191.076-.286l.105-.429zM-160.493 491.954c.004-.019.014-.048.014-.071 0-.048-.048-.048-.057-.048-.005 0-.176.014-.262.024-.081.005-.153.014-.238.019-.115.01-.148.014-.148.1 0 .048.048.048.095.048.243 0 .243.042.243.09 0 .019 0 .029-.024.114l-.59 2.362a.538.538 0 0 0-.024.167c0 .238.176.429.42.429.156 0 .261-.105.337-.253.081-.157.148-.457.148-.476 0-.024-.02-.043-.048-.043-.043 0-.047.024-.066.096-.086.328-.172.58-.362.58-.143 0-.143-.152-.143-.219 0-.019 0-.119.033-.252z"/>
<path d="M-142.146 490.763c.02-.077.02-.105.02-.124 0-.153-.125-.21-.225-.21a.32.32 0 0 0-.243.115c-.066-.072-.223-.196-.504-.196-.843 0-1.339.753-1.339 1.377 0 .562.424.776.834.776.247 0 .438-.095.524-.148-.029.12-.058.238-.09.358-.034.138-.068.28-.234.414-.2.167-.357.167-.486.167-.114 0-.2 0-.324-.02a.368.368 0 0 0 .148-.276c0-.105-.081-.219-.238-.219a.348.348 0 0 0-.338.353c0 .314.419.333.757.333.428 0 1.086-.1 1.228-.672zm-.833 1.2c-.02.066-.02.086-.077.138-.252.229-.476.229-.519.229-.185 0-.324-.105-.324-.358 0-.228.158-.8.229-.976.167-.41.438-.476.581-.476.295 0 .4.233.4.266 0 .01 0 .02-.014.072z" fill="red"/>
<path d="M-171.877 489.026c0-.81-.562-1.228-1.386-1.228-1.472 0-2.243 1.262-2.243 2.214 0 .834.595 1.215 1.39 1.215 1.463 0 2.239-1.22 2.239-2.2zm-2.19 2a.75.75 0 0 1-.558-.218c-.21-.21-.21-.529-.21-.639 0-.3.143-1.19.534-1.68.319-.391.714-.5.99-.5.396 0 .786.214.786.818 0 .31-.171 1.143-.48 1.591-.358.524-.791.629-1.063.629zM-150.591 499.51a.356.356 0 0 0-.258.33c0 .104.081.218.239.218.166 0 .342-.138.342-.371 0-.252-.252-.42-.542-.42-.272 0-.448.206-.51.291-.12-.2-.386-.29-.657-.29-.6 0-.924.586-.924.743 0 .067.071.067.114.067.057 0 .09 0 .11-.062.138-.434.48-.577.676-.577.18 0 .267.086.267.238 0 .091-.067.353-.11.524l-.162.653c-.071.29-.243.433-.405.433-.024 0-.133 0-.228-.071a.356.356 0 0 0 .257-.329c0-.105-.081-.219-.238-.219-.167 0-.343.138-.343.372 0 .252.252.419.543.419.271 0 .447-.205.51-.29.118.2.385.29.657.29.6 0 .924-.586.924-.743 0-.067-.072-.067-.115-.067-.057 0-.09 0-.11.062-.137.433-.48.576-.676.576-.18 0-.266-.086-.266-.238 0-.1.062-.352.104-.529.034-.123.143-.571.167-.647.072-.286.238-.434.405-.434.024 0 .133 0 .229.072z"/>
</g>
<circle transform="rotate(-26.402)" cx="-363.009" cy="382.508" color="#000" fill="#5e5bff" style="stroke-width:.264582" r="1.984"/>
<path d="m-177.608 485.89 32.32-.004" fill="none" marker-end="url(#a)" stroke="#000" stroke-width=".132" style="marker-end:url(#a)"/>
<path d="m-170.21 510.97-.004-32.32" fill="none" marker-end="url(#b)" stroke="#000" stroke-width=".132"/>
</g>
</svg>
