<svg xml:space="preserve" viewBox="0 0 36.89 30.871" height="116.678" width="139.427" xmlns:xlink="http://www.w3.org/1999/xlink" xmlns="http://www.w3.org/2000/svg">
<defs>
<path id="a" d="M5.129-4.746h1.399c.227 0 .442 0 .442-.347 0-.215-.203-.215-.407-.215H5.224l.395-2.164c.036-.215.036-.24.155-.347.156-.143.287-.143.347-.143a.97.97 0 0 1 .418.084c-.286.143-.502.454-.502.777 0 .358.287.55.586.55.49 0 .86-.43.86-.885 0-.61-.62-.957-1.362-.957-.562 0-1.231.228-1.65.897-.275.442-.346.909-.574 2.188H2.726c-.227 0-.43 0-.43.347 0 .215.203.215.394.215h1.1L2.88.347c-.024.107-.155.86-.215 1.028-.024.06-.215.61-.598.61a.899.899 0 0 1-.406-.072c.299-.144.526-.454.526-.79 0-.358-.287-.55-.586-.55-.49 0-.86.431-.86.886 0 .645.68.956 1.302.956.897 0 1.519-.885 1.614-1.04.514-.79.79-2.308.825-2.51z"/>
<path id="d" d="M6.336-4.364c.048-.19.048-.263.048-.31 0-.383-.31-.526-.562-.526a.802.802 0 0 0-.61.286c-.167-.179-.561-.49-1.267-.49-2.116 0-3.36 1.89-3.36 3.455C.586-.538 1.65 0 2.679 0c.622 0 1.1-.24 1.315-.37a24.61 24.61 0 0 1-.227.896c-.084.347-.167.705-.586 1.04-.502.419-.897.419-1.22.419-.286 0-.501 0-.812-.048a.925.925 0 0 0 .37-.694c0-.263-.203-.55-.597-.55a.875.875 0 0 0-.85.885c0 .79 1.053.837 1.902.837 1.076 0 2.725-.251 3.084-1.686zM4.244-1.35c-.048.167-.048.215-.191.347-.634.574-1.196.574-1.303.574-.467 0-.813-.263-.813-.897 0-.574.394-2.008.574-2.45.418-1.029 1.1-1.196 1.458-1.196.741 0 1.004.585 1.004.67 0 .023 0 .047-.036.178z"/>
<path id="b" d="M8.213-3.91c.18 0 .407 0 .407-.238 0-.24-.227-.24-.395-.24H1.064c-.167 0-.395 0-.395.24 0 .239.228.239.407.239zm.012 2.32c.168 0 .395 0 .395-.24 0-.238-.227-.238-.407-.238H1.076c-.18 0-.407 0-.407.239s.228.239.395.239z"/>
<path id="c" d="M1.052-.705c-.036.179-.108.454-.108.514 0 .215.168.323.347.323a.489.489 0 0 0 .442-.335c.012-.024.156-.586.228-.885l.263-1.076c.071-.263.143-.526.203-.8.048-.204.143-.55.155-.599.18-.37.813-1.458 1.949-1.458.538 0 .646.442.646.837 0 .299-.084.633-.18.992l-.334 1.387-.24.908c-.047.24-.155.646-.155.706 0 .215.167.323.347.323.37 0 .442-.3.538-.682.167-.67.61-2.415.717-2.881.036-.156.67-1.59 1.973-1.59.514 0 .645.406.645.837 0 .681-.502 2.044-.741 2.678-.108.287-.155.418-.155.657 0 .562.418.98.98.98 1.124 0 1.566-1.745 1.566-1.84 0-.12-.108-.12-.143-.12-.12 0-.12.036-.18.215-.18.634-.562 1.482-1.22 1.482-.202 0-.286-.12-.286-.394 0-.299.107-.586.215-.849.227-.622.73-1.949.73-2.63 0-.777-.479-1.28-1.376-1.28-.896 0-1.506.527-1.948 1.16-.012-.155-.048-.561-.383-.848-.299-.251-.681-.311-.98-.311-1.076 0-1.662.765-1.865 1.04-.06-.682-.562-1.04-1.1-1.04-.55 0-.777.466-.885.681-.215.419-.37 1.124-.37 1.16 0 .12.12.12.143.12.12 0 .132-.012.203-.276.204-.848.443-1.422.873-1.422.191 0 .37.095.37.55 0 .25-.035.382-.19 1.004z"/>
<path id="e" d="M3.255-3.34a.385.385 0 0 0-.234.37c0 .225.16.392.393.392.226 0 .402-.142.402-.41 0-.744-1.163-.744-1.397-.744-1.256 0-2.034.962-2.034 1.924C.385-.753 1.28.084 2.377.084c1.247 0 1.54-.988 1.54-1.088 0-.1-.11-.1-.143-.1-.109 0-.117.024-.159.142-.184.518-.627.778-1.138.778-.577 0-1.33-.427-1.33-1.632 0-1.063.518-1.649 1.297-1.649.108 0 .51 0 .811.126z"/>
</defs>
<g transform="translate(175.033 -481.27)">
<path d="m-158.704 512.14 1.592-3.423-1.248.507v-9.453h-.688v9.445l-1.248-.499z" color="#000" fill="red" style="text-indent:0;text-decoration-line:none;text-transform:none;stroke-width:.264582"/>
<path d="M-171.404 482.498c0-.81-.562-1.228-1.386-1.228-1.472 0-2.243 1.262-2.243 2.214 0 .834.595 1.215 1.39 1.215 1.463 0 2.239-1.22 2.239-2.2zm-2.19 2a.75.75 0 0 1-.558-.218c-.21-.21-.21-.53-.21-.639 0-.3.143-1.19.534-1.68.319-.391.714-.5.99-.5.396 0 .786.214.786.818 0 .31-.171 1.143-.48 1.591-.358.524-.791.629-1.063.629z" style="stroke-width:.396874"/>
<circle cx="-170.214" cy="485.889" r="1.058" color="#000"/>
<g transform="matrix(.42333 0 0 .42333 -239.462 471.934)">
<use x="198.404" y="88.26" xlink:href="#a" style="stroke-width:.833333"/>
<use x="209.836" y="88.26" xlink:href="#b" style="stroke-width:.833333"/>
<use x="222.455" y="88.26" xlink:href="#c" style="stroke-width:.833333"/>
<use x="232.952" y="88.26" xlink:href="#d" style="stroke-width:.833333"/>
</g>
<g fill="red" style="stroke-width:.694444" transform="matrix(.42333 0 0 .42333 -263.678 453.772)">
<use x="239.909" y="88.26" xlink:href="#a" style="stroke-width:.833333"/>
<use x="248.02" y="82.914" xlink:href="#e" style="stroke-width:.833333"/>
</g>
<path d="m-158.704 499.638-11.377-13.616" fill="none" stroke="#000" stroke-linecap="round" stroke-width=".265"/>
<path d="m-164.923 492.195.973 3.648.633-1.189 4.365 5.224.528-.441-4.36-5.218 1.278-.417z" color="#000" fill="red" style="text-indent:0;text-decoration-line:none;text-transform:none;stroke-width:.264582"/>
<circle transform="rotate(-26.402)" cx="-364.323" cy="376.954" color="#000" fill="#5e5bff" style="stroke-width:.264582" r="1.984"/>
</g>
</svg>
