<svg width="155.099" height="114.025" viewBox="0 0 41.037 30.169" xml:space="preserve" xmlns="http://www.w3.org/2000/svg">
<defs>
<marker id="a" overflow="visible" orient="auto">
<path d="m-10 0-4 4L0 0l-14-4Z" fill="red" fill-rule="evenodd" stroke="red" stroke-width=".8pt"/>
</marker>
</defs>
<g stroke-linejoin="round">
<path d="m29.416 104.525 103.08-66.863" color="#000" fill="none" marker-end="url(#a)" stroke="red" stroke-width="2" style="marker-end:url(#a)" transform="matrix(.26458 0 0 .26458 -.132 -.132)"/>
<g stroke-miterlimit="100000" stroke-width="1.5">
<path d="M32.887 2.467h1.324c.067 0 .157 0 .157-.095 0-.094-.09-.094-.157-.094h-1.324V.949c0-.066 0-.157-.094-.157-.095 0-.095.09-.095.157v1.329h-1.329c-.066 0-.156 0-.156.094 0 .095.09.095.156.095h1.329v1.329c0 .066 0 .156.095.156.094 0 .094-.09.094-.156z"/>
<path d="M23.98 22.013a.254.254 0 0 0-.508 0 .254.254 0 0 0 .508 0z" fill="green"/>
<path d="M33.45 23.816a.253.253 0 0 0-.251-.251.253.253 0 0 0-.251.251c0 .138.113.252.251.252a.253.253 0 0 0 .251-.252z"/>
</g>
</g>
<path d="M24.966 1.656a.354.354 0 0 0-.256.327c0 .105.08.219.237.219.166 0 .342-.138.342-.37 0-.252-.252-.418-.541-.418-.27 0-.446.204-.508.29-.119-.2-.384-.29-.655-.29-.598 0-.92.583-.92.74 0 .066.07.066.114.066.057 0 .09 0 .109-.061.137-.432.479-.574.673-.574.18 0 .266.085.266.237 0 .09-.066.351-.109.522l-.161.65c-.071.29-.242.432-.404.432-.023 0-.132 0-.227-.072a.354.354 0 0 0 .256-.327c0-.104-.08-.218-.237-.218-.166 0-.342.137-.342.37 0 .251.252.417.541.417.27 0 .446-.204.508-.289.118.2.384.29.654.29.598 0 .92-.584.92-.74 0-.067-.07-.067-.113-.067-.057 0-.09 0-.11.062-.137.431-.478.574-.673.574-.18 0-.266-.086-.266-.238 0-.1.062-.35.105-.526.033-.124.142-.57.166-.646.071-.284.237-.431.403-.431.024 0 .133 0 .228.07zM2.363 20.294a.354.354 0 0 0-.256.328c0 .104.08.218.237.218.166 0 .342-.138.342-.37 0-.252-.252-.418-.541-.418-.27 0-.446.204-.508.29-.119-.2-.384-.29-.655-.29-.598 0-.92.584-.92.74 0 .067.07.067.114.067.056 0 .09 0 .109-.062.137-.432.479-.574.673-.574.18 0 .266.085.266.237 0 .09-.066.351-.109.522l-.161.65c-.071.29-.242.432-.404.432-.023 0-.132 0-.227-.071a.354.354 0 0 0 .256-.328c0-.104-.08-.218-.237-.218-.166 0-.342.138-.342.37 0 .252.251.418.54.418.271 0 .447-.204.509-.29.118.2.384.29.654.29.598 0 .92-.584.92-.74 0-.067-.07-.067-.113-.067-.057 0-.09 0-.11.062-.137.432-.478.574-.673.574-.18 0-.266-.085-.266-.237 0-.1.062-.351.105-.527.033-.123.142-.57.166-.645.071-.285.237-.432.403-.432.024 0 .133 0 .228.071z"/>
<path d="M94.86 6.758a1.34 1.34 0 0 0-.969 1.238c0 .394.305.824.897.824.627 0 1.29-.52 1.29-1.398 0-.95-.95-1.578-2.044-1.578-1.022 0-1.685.77-1.918 1.094-.449-.754-1.453-1.094-2.475-1.094-2.26 0-3.479 2.205-3.479 2.797 0 .251.269.251.43.251.216 0 .341 0 .413-.233.52-1.632 1.811-2.17 2.546-2.17.682 0 1.005.323 1.005.897 0 .34-.252 1.327-.413 1.972l-.61 2.457c-.269 1.094-.914 1.632-1.524 1.632-.09 0-.502 0-.86-.269a1.34 1.34 0 0 0 .968-1.237c0-.395-.305-.825-.897-.825-.628 0-1.291.52-1.291 1.399 0 .95.95 1.578 2.044 1.578 1.022 0 1.686-.771 1.919-1.094.448.753 1.453 1.094 2.475 1.094 2.26 0 3.479-2.206 3.479-2.798 0-.25-.27-.25-.43-.25-.216 0-.341 0-.413.232-.52 1.632-1.811 2.17-2.547 2.17-.681 0-1.004-.323-1.004-.896 0-.377.233-1.328.395-1.991.125-.466.538-2.152.627-2.439.27-1.076.897-1.632 1.525-1.632.09 0 .502 0 .86.27z" transform="matrix(.26458 0 0 .26458 -.391 21.311)" style="fill:green"/>
<path d="M27.91 4.697c0-.014 0-.023-.08-.104-.593-.598-.745-1.495-.745-2.22 0-.826.18-1.652.764-2.245.062-.057.062-.066.062-.08 0-.034-.02-.048-.048-.048-.047 0-.474.323-.754.925a3.448 3.448 0 0 0-.299 1.447c0 .37.052.945.313 1.48.285.584.693.893.74.893.029 0 .048-.015.048-.048zM5.308 23.336c0-.015 0-.024-.08-.105-.594-.598-.746-1.494-.746-2.22 0-.826.18-1.652.764-2.245.062-.057.062-.066.062-.08 0-.033-.02-.048-.048-.048-.047 0-.474.323-.754.926a3.448 3.448 0 0 0-.299 1.447c0 .37.052.944.313 1.48.285.584.693.892.74.892.029 0 .048-.014.048-.047z"/>
<path d="M105.99 18.253c0-.054 0-.09-.305-.394-2.241-2.26-2.815-5.65-2.815-8.393 0-3.12.681-6.24 2.887-8.482.233-.215.233-.251.233-.305 0-.125-.072-.18-.18-.18-.179 0-1.793 1.22-2.85 3.498-.915 1.972-1.13 3.963-1.13 5.47 0 1.398.197 3.568 1.183 5.594 1.076 2.206 2.618 3.372 2.798 3.372.107 0 .179-.054.179-.18z" transform="matrix(.26458 0 0 .26458 -.391 21.311)" style="fill:green"/>
<path d="M39.936 4.697c0-.014 0-.023.08-.104.594-.598.746-1.495.746-2.22 0-.826-.18-1.652-.764-2.245-.062-.057-.062-.066-.062-.08 0-.034.019-.048.047-.048.048 0 .475.323.755.925.242.522.299 1.049.299 1.447 0 .37-.052.945-.313 1.48-.285.584-.693.893-.74.893-.03 0-.048-.015-.048-.048zM7.56 23.336c0-.015 0-.024.08-.105.593-.598.745-1.494.745-2.22 0-.826-.18-1.652-.764-2.245-.061-.057-.061-.066-.061-.08 0-.033.019-.048.047-.048.048 0 .475.323.755.926.242.521.298 1.048.298 1.447 0 .37-.052.944-.313 1.48-.284.584-.692.892-.74.892-.028 0-.047-.014-.047-.047z"/>
<path d="M105.99 18.253c0-.054 0-.09-.305-.394-2.241-2.26-2.815-5.65-2.815-8.393 0-3.12.681-6.24 2.887-8.482.233-.215.233-.251.233-.305 0-.125-.072-.18-.18-.18-.179 0-1.793 1.22-2.85 3.498-.915 1.972-1.13 3.963-1.13 5.47 0 1.398.197 3.568 1.183 5.594 1.076 2.206 2.618 3.372 2.798 3.372.107 0 .179-.054.179-.18z" transform="matrix(-.26458 0 0 .26458 57.947 21.311)" style="fill:green"/>
<path d="M29.163 1.66h.446c.095 0 .143 0 .143-.094 0-.052-.048-.052-.133-.052H29.2c.17-.674.195-.77.195-.798 0-.08-.057-.128-.138-.128-.014 0-.147.005-.19.171l-.185.755h-.446c-.095 0-.142 0-.142.09 0 .057.038.057.133.057h.417c-.341 1.347-.36 1.428-.36 1.513 0 .256.18.437.436.437.484 0 .755-.693.755-.731 0-.047-.038-.047-.057-.047-.043 0-.048.014-.072.066-.204.493-.455.607-.616.607-.1 0-.147-.061-.147-.218 0-.114.01-.147.028-.228zM6.56 20.299h.446c.095 0 .142 0 .142-.095 0-.052-.047-.052-.133-.052h-.417c.17-.674.194-.769.194-.797 0-.08-.057-.128-.137-.128-.015 0-.147.004-.19.17l-.185.755h-.446c-.095 0-.143 0-.143.09 0 .057.038.057.133.057h.418c-.342 1.347-.36 1.428-.36 1.514 0 .256.18.436.436.436.484 0 .754-.693.754-.73 0-.048-.038-.048-.057-.048-.042 0-.047.014-.07.066-.205.494-.456.608-.618.608-.1 0-.147-.062-.147-.219 0-.113.01-.147.029-.227z"/>
<path d="M110.723 6.776h1.686c.358 0 .538 0 .538-.358 0-.198-.18-.198-.502-.198h-1.579c.646-2.546.736-2.905.736-3.012 0-.305-.215-.485-.52-.485-.054 0-.556.018-.718.646l-.699 2.851h-1.686c-.358 0-.538 0-.538.341 0 .215.144.215.502.215h1.579c-1.292 5.093-1.363 5.398-1.363 5.72 0 .97.681 1.65 1.65 1.65 1.829 0 2.85-2.618 2.85-2.761 0-.18-.143-.18-.214-.18-.162 0-.18.055-.27.252-.77 1.865-1.721 2.295-2.33 2.295-.377 0-.557-.233-.557-.825 0-.43.036-.556.108-.86z" transform="matrix(.26458 0 0 .26458 -.392 21.311)" style="fill:green"/>
<path d="M38.974 1.514h.446c.095 0 .142 0 .142-.095 0-.053-.047-.053-.133-.053h-.417c.17-.673.194-.768.194-.797 0-.08-.057-.128-.137-.128-.015 0-.147.005-.19.171l-.185.754h-.446c-.095 0-.142 0-.142.09 0 .058.037.058.132.058h.418c-.342 1.347-.36 1.428-.36 1.513 0 .256.18.437.436.437.484 0 .754-.693.754-.731 0-.047-.038-.047-.057-.047-.042 0-.047.014-.07.066-.205.493-.456.607-.618.607-.1 0-.147-.061-.147-.218 0-.114.01-.147.029-.228z"/>
<path d="M110.723 6.776h1.686c.358 0 .538 0 .538-.358 0-.198-.18-.198-.502-.198h-1.579c.646-2.546.736-2.905.736-3.012 0-.305-.215-.485-.52-.485-.054 0-.556.018-.718.646l-.699 2.851h-1.686c-.358 0-.538 0-.538.341 0 .215.144.215.502.215h1.579c-1.292 5.093-1.363 5.398-1.363 5.72 0 .97.681 1.65 1.65 1.65 1.829 0 2.85-2.618 2.85-2.761 0-.18-.143-.18-.214-.18-.162 0-.18.055-.27.252-.77 1.865-1.721 2.295-2.33 2.295-.377 0-.557-.233-.557-.825 0-.43.036-.556.108-.86z" transform="matrix(.26458 0 0 .26458 8.908 21.164)" style="fill:#000"/>
<path d="M36.93 1.485c-.593.143-1.053.76-1.053 1.333 0 .456.304.798.75.798.555 0 .949-.745.949-1.4 0-.432-.19-.67-.351-.883-.171-.213-.451-.569-.451-.778 0-.104.095-.218.26-.218.143 0 .238.062.338.128.095.057.19.119.26.119.12 0 .19-.114.19-.19 0-.104-.075-.119-.246-.157-.247-.052-.313-.052-.39-.052-.37 0-.54.204-.54.489 0 .256.137.522.285.811zm.057.105c.12.218.261.474.261.816 0 .313-.18 1.105-.621 1.105-.261 0-.456-.2-.456-.56 0-.299.176-1.19.816-1.361z"/>
<path d="M140.08 6.113c-2.242.538-3.981 2.87-3.981 5.04 0 1.72 1.148 3.012 2.833 3.012 2.098 0 3.587-2.815 3.587-5.29 0-1.632-.717-2.529-1.327-3.336-.646-.807-1.704-2.152-1.704-2.94 0-.395.359-.826.987-.826.538 0 .896.234 1.273.485.358.215.717.448.986.448.448 0 .717-.43.717-.717 0-.395-.287-.449-.932-.592-.933-.197-1.184-.197-1.47-.197-1.4 0-2.045.77-2.045 1.847 0 .968.52 1.972 1.076 3.066zm.215.395c.449.825.987 1.793.987 3.084 0 1.184-.682 4.179-2.35 4.179-.986 0-1.721-.754-1.721-2.117 0-1.13.663-4.5 3.084-5.146z" transform="matrix(.26458 0 0 .26458 -.903 21.311)" style="fill:#000"/>
<circle cx="140.416" cy="32.525" r="9.5" color="#000" fill="#cacaca" stroke="#555" stroke-linejoin="round" stroke-miterlimit="100" style="isolation:auto;mix-blend-mode:normal" transform="matrix(.26458 0 0 .26458 -.132 -.132)"/>
<circle cx="140.416" cy="32.525" r="9.5" color="#000" fill="#cacaca" stroke="#555" stroke-linejoin="round" stroke-miterlimit="100" style="isolation:auto;mix-blend-mode:normal" transform="matrix(.26458 0 0 .26458 -29.501 18.918)"/>
</svg>
