<svg width="162.605" height="82.165" viewBox="0 0 43.023 21.739" xml:space="preserve" xmlns="http://www.w3.org/2000/svg">
<g transform="translate(117.606 -444.523)">
<path d="M-74.63 458.624c-1.138-.202-2.204.421-2.896 1.287-1.177 1.242-1.892 2.967-3.406 3.855-1.121.512-2.094-.556-2.972-1.1-.883-.704-2.203-.955-3.143-.212-1.451.97-2.195 2.783-3.822 3.507-1.242.26-2.083-.937-2.93-1.637-.83-.825-2.09-1.603-3.257-.984-1.414.622-2.191 2.231-3.705 2.652-1.206.106-1.957-1.073-2.695-1.842-.888-.996-1.928-2.355-3.43-2.127-1.498.21-2.394 1.85-3.934 1.888-1.331-.302-2.012-1.655-2.809-2.638-.854-1.109-1.76-2.56-3.3-2.665l-.67.016" clip-path="url(#p825fbd034e)" color="#000" fill="none" stroke="red" stroke-width=".529" style="text-indent:0;text-decoration-line:none;text-decoration-style:solid;text-decoration-color:#000;text-transform:none;white-space:normal;isolation:auto;mix-blend-mode:normal"/>
<circle transform="rotate(-26.402)" cx="-302.721" cy="366.231" r="1.323" color="#000" fill="#5e5bff" style="stroke-width:.264582"/>
<g stroke-linejoin="round" stroke-miterlimit="100000">
<path d="M-113.411 452.818c.02-.07.02-.08.02-.116 0-.091-.07-.137-.147-.137a.22.22 0 0 0-.177.107 3.84 3.84 0 0 0-.07.273 9.45 9.45 0 0 0-.102.405l-.228.91c-.02.077-.238.43-.572.43-.258 0-.313-.222-.313-.41 0-.232.086-.546.258-.991.08-.208.101-.263.101-.364a.401.401 0 0 0-.415-.415c-.48 0-.668.733-.668.779 0 .05.05.05.06.05.051 0 .056-.01.082-.09.136-.476.339-.628.51-.628.041 0 .127 0 .127.162 0 .126-.05.258-.086.354-.202.537-.293.825-.293 1.063 0 .45.319.602.617.602.198 0 .37-.086.511-.228-.065.264-.126.512-.329.78-.131.172-.324.319-.556.319-.071 0-.299-.016-.385-.213.081 0 .147 0 .218-.06a.274.274 0 0 0 .1-.208c0-.157-.136-.177-.186-.177-.117 0-.284.08-.284.329 0 .253.223.44.537.44.521 0 1.042-.46 1.184-1.032zM-108.335 453.092c.076 0 .172 0 .172-.102 0-.1-.096-.1-.167-.1h-3.031c-.07 0-.167 0-.167.1 0 .102.096.102.172.102zm.006.981c.07 0 .167 0 .167-.1 0-.102-.097-.102-.173-.102h-3.021c-.076 0-.172 0-.172.101s.096.101.167.101zM-104.626 452.722h.435c.101 0 .152 0 .152-.101 0-.056-.05-.056-.137-.056h-.42l.106-.577c.02-.106.092-.465.122-.526.045-.096.132-.172.238-.172.02 0 .152 0 .248.091a.28.28 0 0 0-.274.273c0 .117.092.177.188.177.131 0 .278-.11.278-.303 0-.233-.233-.35-.44-.35-.172 0-.491.092-.643.593-.03.106-.046.157-.167.794h-.35c-.095 0-.151 0-.151.096 0 .061.046.061.142.061h.334l-.38 2c-.091.49-.177.95-.44.95-.02 0-.147 0-.243-.09a.274.274 0 0 0 .278-.274c0-.116-.09-.177-.187-.177-.132 0-.278.112-.278.304 0 .228.222.349.43.349.278 0 .48-.299.572-.49.162-.32.278-.932.283-.968zM-100.952 455.961c0-.015 0-.025-.086-.111-.633-.638-.795-1.594-.795-2.369 0-.88.193-1.761.815-2.394.066-.06.066-.07.066-.086 0-.035-.02-.05-.05-.05-.051 0-.507.344-.805.987a3.678 3.678 0 0 0-.32 1.543c0 .395.056 1.007.335 1.58.303.622.739.95.79.95.03 0 .05-.014.05-.05zM-99.616 452.722h.476c.1 0 .152 0 .152-.101 0-.056-.051-.056-.142-.056h-.446c.183-.718.208-.82.208-.85 0-.086-.06-.137-.147-.137-.015 0-.157.005-.202.183l-.198.804h-.475c-.102 0-.152 0-.152.096 0 .061.04.061.141.061h.446c-.365 1.437-.385 1.523-.385 1.615 0 .273.193.465.466.465.516 0 .805-.739.805-.78 0-.05-.04-.05-.061-.05-.046 0-.05.015-.076.071-.218.526-.486.648-.658.648-.106 0-.157-.066-.157-.233 0-.121.01-.157.03-.243zM-97.81 454.741c0-.334-.127-.53-.324-.53a.26.26 0 0 0-.269.267c0 .137.102.269.269.269.06 0 .126-.02.177-.066.015-.01.02-.015.025-.015.005 0 .01.005.01.075 0 .375-.177.679-.344.846-.056.055-.056.065-.056.08 0 .036.026.056.05.056.057 0 .461-.39.461-.982zM-94.904 453.218c.03-.131.147-.597.502-.597.025 0 .146 0 .253.066a.294.294 0 0 0-.243.273c0 .081.055.177.192.177a.282.282 0 0 0 .273-.293c0-.264-.298-.334-.47-.334-.294 0-.471.268-.532.384a.56.56 0 0 0-.546-.384c-.527 0-.815.652-.815.779 0 .05.05.05.06.05.041 0 .056-.01.066-.055.172-.537.506-.663.678-.663.097 0 .274.045.274.339 0 .157-.086.496-.274 1.205-.08.313-.258.526-.48.526-.03 0-.147 0-.253-.066.126-.025.237-.132.237-.273 0-.137-.11-.177-.187-.177a.288.288 0 0 0-.278.293c0 .233.253.334.476.334.334 0 .516-.354.531-.384.06.187.243.384.547.384.52 0 .81-.653.81-.78 0-.05-.046-.05-.061-.05-.046 0-.056.02-.066.056-.167.541-.511.663-.673.663-.198 0-.279-.162-.279-.334 0-.112.03-.223.086-.446zM-92.25 453.481c0-.394-.055-1.007-.334-1.579-.303-.622-.739-.951-.79-.951-.03 0-.05.02-.05.05 0 .016 0 .026.096.117.496.5.785 1.306.785 2.363 0 .866-.187 1.756-.815 2.394-.066.06-.066.071-.066.086 0 .03.02.05.05.05.051 0 .507-.343.806-.986a3.678 3.678 0 0 0 .318-1.544z"/>
</g>
<path d="m-83.491 458.728 1.577-3.423-1.248.506v-6.807h-.688v6.8l-1.248-.5z" color="#000" fill="red" style="text-indent:0;text-decoration-line:none;text-transform:none"/>
<path d="M-82.26 444.938c.02-.076.02-.105.02-.124 0-.152-.124-.21-.224-.21a.32.32 0 0 0-.243.115c-.066-.072-.224-.196-.505-.196-.843 0-1.338.753-1.338 1.377 0 .562.424.776.834.776.247 0 .438-.095.523-.148-.028.12-.057.239-.09.358-.033.138-.067.28-.233.414-.2.167-.358.167-.486.167-.114 0-.2 0-.324-.02a.368.368 0 0 0 .148-.276c0-.104-.081-.219-.238-.219a.348.348 0 0 0-.339.353c0 .314.42.333.758.333.428 0 1.085-.1 1.228-.671zm-.833 1.2c-.019.067-.019.086-.076.138-.252.229-.476.229-.519.229-.186 0-.324-.105-.324-.358 0-.228.157-.8.229-.976.167-.41.438-.476.581-.476.295 0 .4.233.4.267 0 .01 0 .019-.014.071z" fill="red"/>
</g>
</svg>
