<svg xml:space="preserve" viewBox="0 0 37.027 28.536" height="107.851" width="139.946" xmlns="http://www.w3.org/2000/svg">
<g transform="translate(111.546 -401.182)">
<circle transform="rotate(70.075)" cx="357.813" cy="233.854" r="13.229" color="#000" fill="none" stroke="red" stroke-width=".529" style="font-variation-settings:normal;opacity:1;isolation:auto;mix-blend-mode:normal;vector-effect:none;fill:none;fill-opacity:1;stroke:#555;stroke-width:.79375;stroke-linecap:butt;stroke-linejoin:round;stroke-miterlimit:100;stroke-dasharray:none;stroke-dashoffset:0;stroke-opacity:1;-inkscape-stroke:none;stop-color:#000;stop-opacity:1"/>
<path d="m-97.917 416.09 8.266 10.332" fill="none" stroke="#000" style="stroke-width:.264583"/>
<circle transform="rotate(60)" cx="311.385" cy="292.844" r=".661" color="#000" style="stroke-width:.264583"/>
<path d="M-99.309 412.733c0-.81-.562-1.229-1.386-1.229-1.471 0-2.243 1.262-2.243 2.215 0 .833.595 1.214 1.39 1.214 1.463 0 2.24-1.22 2.24-2.2zm-2.19 2a.75.75 0 0 1-.558-.22c-.21-.209-.21-.528-.21-.637 0-.3.144-1.19.534-1.681.32-.39.714-.5.99-.5.396 0 .786.214.786.819 0 .31-.171 1.143-.48 1.59-.358.524-.791.629-1.063.629z" style="stroke-width:.264582"/>
<circle transform="rotate(-16.327)" cx="-205.911" cy="384.02" color="#000" fill="#5e5bff" style="stroke-width:.264582" r="1.984"/>
<path d="M-91.049 416.595c.005-.019.014-.047.014-.071 0-.048-.047-.048-.057-.048-.005 0-.176.015-.262.024-.08.005-.152.014-.238.02-.114.01-.147.013-.147.1 0 .047.047.047.095.047.243 0 .243.043.243.09 0 .02 0 .029-.024.115l-.59 2.362a.538.538 0 0 0-.025.166c0 .239.177.43.42.43.157 0 .262-.106.338-.253.08-.158.147-.458.147-.477 0-.023-.019-.042-.047-.042-.043 0-.048.023-.067.095-.086.328-.171.58-.362.58-.143 0-.143-.152-.143-.218 0-.02 0-.12.034-.253z" style="stroke-width:.264582"/>
<g fill="red" stroke-linejoin="round" stroke-miterlimit="100000" stroke-width="1.6" style="font-variation-settings:normal;opacity:1;vector-effect:none;fill:#000;fill-opacity:1;stroke-width:.999996;stroke-linecap:butt;stroke-linejoin:miter;stroke-miterlimit:4;stroke-dasharray:none;stroke-dashoffset:0;stroke-opacity:1;-inkscape-stroke:none;stop-color:#000;stop-opacity:1">
<path d="M123.244 13.232a.193.193 0 0 0-.21-.191c-.058 0-.077.019-.287.23l-1.34 1.472c-.171-.268-1.051-1.702-3.175-1.702-4.265 0-8.57 4.227-8.57 8.665 0 3.041 2.124 5.241 5.223 5.241.842 0 1.702-.172 2.391-.459.956-.383 1.32-.784 1.664-1.167.172.478.67 1.186.86 1.186.097 0 .135-.057.135-.076.038-.039.23-.766.325-1.167l.363-1.473c.077-.325.173-.65.25-.976.21-.86.229-.899 1.319-.918.096 0 .306-.019.306-.382 0-.134-.096-.21-.249-.21-.44 0-1.568.057-2.008.057-.593 0-2.085-.058-2.678-.058-.172 0-.402 0-.402.383 0 .21.153.21.574.21.02 0 .574 0 1.014.038.497.058.593.115.593.364 0 .172-.21 1.033-.402 1.74-.535 2.105-3.022 2.315-3.692 2.315-1.836 0-3.844-1.09-3.844-4.017 0-.593.19-3.749 2.2-6.236 1.032-1.3 2.888-2.467 4.781-2.467 1.952 0 3.08 1.473 3.08 3.692 0 .765-.057.784-.057.975 0 .191.21.191.287.191.248 0 .248-.038.344-.382zM142.143 20.271c.287 0 .65 0 .65-.382 0-.383-.363-.383-.63-.383h-11.459c-.267 0-.63 0-.63.383 0 .382.363.382.65.382zm.02 3.711c.267 0 .63 0 .63-.382 0-.383-.363-.383-.65-.383h-11.42c-.286 0-.65 0-.65.383 0 .382.364.382.631.382zM157.936 20.405c0-1.53-.096-3.06-.765-4.476-.88-1.836-2.449-2.142-3.252-2.142-1.148 0-2.544.497-3.328 2.276-.612 1.32-.708 2.812-.708 4.342 0 1.435.076 3.156.86 4.61.823 1.55 2.22 1.932 3.157 1.932 1.033 0 2.487-.402 3.328-2.219.612-1.32.708-2.812.708-4.323zm-4.036 6.121c-.746 0-1.875-.478-2.219-2.314-.21-1.148-.21-2.908-.21-4.036 0-1.224 0-2.487.153-3.52.363-2.276 1.798-2.448 2.276-2.448.631 0 1.894.344 2.257 2.238.191 1.07.191 2.525.191 3.73 0 1.434 0 2.735-.21 3.96-.287 1.816-1.377 2.39-2.238 2.39z" style="font-variation-settings:normal;vector-effect:none;fill:#000;fill-opacity:1;stroke-width:.999996;stroke-linecap:butt;stroke-linejoin:miter;stroke-miterlimit:4;stroke-dasharray:none;stroke-dashoffset:0;stroke-opacity:1;-inkscape-stroke:none;stop-color:#000;stop-opacity:1" transform="matrix(.26458 0 0 .26458 -116.306 397.732)"/>
</g>
</g>
</svg>
