<svg width="157.436" height="137.883" viewBox="0 0 41.655 36.481" xml:space="preserve" xmlns="http://www.w3.org/2000/svg">
<defs>
<marker id="b" overflow="visible" orient="auto">
<path d="m-10 0-4 4L0 0l-14-4Z" fill-rule="evenodd" stroke="#000" stroke-width=".8pt"/>
</marker>
<marker id="a" overflow="visible" orient="auto">
<path d="m-10 0-4 4L0 0l-14-4Z" fill-rule="evenodd" stroke="#000" stroke-width=".8pt"/>
</marker>
</defs>
<g transform="translate(116.174 -397.864)">
<circle transform="rotate(70.075)" cx="357.813" cy="233.854" r="13.229" color="#000" fill="none" stroke="red" stroke-width=".529" style="isolation:auto;mix-blend-mode:normal"/>
<path d="m-97.917 416.09 8.266 10.332" fill="none" stroke="#000" style="stroke-width:.264583"/>
<circle transform="rotate(60)" cx="311.385" cy="292.844" r=".661" color="#000" style="stroke-width:.264583"/>
<g transform="matrix(.26458 0 0 .26458 -116.306 397.732)">
<path d="M64.241 56.697c0-3.06-2.124-4.644-5.238-4.644-5.562 0-8.478 4.77-8.478 8.37 0 3.15 2.25 4.59 5.256 4.59 5.526 0 8.46-4.608 8.46-8.316zm-8.28 7.56c-.594 0-1.422-.126-2.106-.828-.792-.792-.792-1.998-.792-2.412 0-1.134.54-4.5 2.016-6.354 1.206-1.476 2.7-1.89 3.744-1.89 1.494 0 2.97.81 2.97 3.096 0 1.17-.648 4.32-1.818 6.012-1.35 1.98-2.988 2.376-4.014 2.376z"/>
<circle transform="rotate(-16.327)" cx="66.194" cy="132.371" color="#000" fill="#5e5bff" r="7.5"/>
<path d="M92.278 76.599c.017-.072.053-.18.053-.27 0-.18-.18-.18-.215-.18-.018 0-.666.054-.99.09-.306.018-.576.054-.9.072-.432.036-.558.054-.558.378 0 .18.18.18.36.18.918 0 .918.162.918.342 0 .072 0 .108-.09.432l-2.232 8.928c-.054.198-.09.342-.09.63 0 .9.666 1.62 1.584 1.62.594 0 .99-.396 1.278-.954.306-.594.558-1.728.558-1.8 0-.09-.072-.162-.18-.162-.162 0-.18.09-.252.36-.324 1.242-.648 2.196-1.368 2.196-.54 0-.54-.576-.54-.828 0-.072 0-.45.126-.954z"/>
</g>
<g fill="red" stroke-linejoin="round" stroke-miterlimit="100000" stroke-width="1.6">
<path d="M-83.698 401.233c0-.015-.01-.05-.055-.05-.015 0-.02.004-.076.06l-.354.39c-.046-.071-.279-.45-.84-.45-1.13 0-2.268 1.118-2.268 2.292 0 .804.562 1.386 1.382 1.386.222 0 .45-.045.632-.121a1.02 1.02 0 0 0 .44-.309c.046.127.178.314.228.314.026 0 .036-.015.036-.02.01-.01.06-.203.086-.309l.096-.39c.02-.086.046-.172.066-.258.055-.227.06-.238.349-.243.025 0 .081-.005.081-.1 0-.036-.025-.057-.066-.057-.116 0-.415.016-.531.016-.157 0-.552-.016-.709-.016-.045 0-.106 0-.106.102 0 .055.04.055.152.055.005 0 .152 0 .268.01.132.016.157.03.157.097 0 .045-.056.273-.106.46-.142.557-.8.613-.977.613-.486 0-1.017-.289-1.017-1.063 0-.157.05-.992.582-1.65.273-.344.764-.653 1.265-.653.516 0 .815.39.815.977 0 .202-.015.207-.015.258 0 .05.055.05.075.05.066 0 .066-.01.092-.1zM-78.697 403.095c.076 0 .172 0 .172-.101s-.096-.101-.167-.101h-3.032c-.07 0-.167 0-.167.101s.096.101.172.101zm.005.982c.07 0 .167 0 .167-.101s-.096-.101-.172-.101h-3.022c-.076 0-.172 0-.172.1 0 .102.096.102.167.102zM-74.519 403.13c0-.404-.025-.81-.202-1.184a.938.938 0 0 0-.86-.566c-.304 0-.674.131-.881.602-.162.349-.187.744-.187 1.149 0 .38.02.835.227 1.22.218.41.587.51.835.51.274 0 .658-.106.881-.587.162-.349.187-.744.187-1.143zm-1.068 1.62c-.197 0-.496-.126-.587-.612-.055-.304-.055-.77-.055-1.068 0-.324 0-.658.04-.931.096-.603.476-.648.602-.648.167 0 .501.091.598.592.05.283.05.668.05.987 0 .38 0 .724-.055 1.048-.076.48-.365.632-.593.632z"/>
</g>
<path d="m-116.174 416.094 36.225-.005" fill="none" marker-end="url(#a)" stroke="#000" stroke-width=".132" style="marker-end:url(#a)"/>
<path d="m-97.913 434.345-.005-36.224" fill="none" marker-end="url(#b)" stroke="#000" stroke-width=".132"/>
</g>
</svg>
