<svg width="166.611" height="116.673" viewBox="0 0 44.082 30.87" xml:space="preserve" xmlns="http://www.w3.org/2000/svg">
<defs>
<marker id="a" overflow="visible" orient="auto">
<path d="m-4 0-2 2 7-2-7-2Z" fill="red" fill-rule="evenodd" stroke="red" stroke-width=".4pt"/>
</marker>
</defs>
<path d="M-77.42 491.608c-17.232 0-34.307 3.96-43.735 17.12h43.734z" color="#000" fill="#dcdcdc" style="isolation:auto;mix-blend-mode:normal;stroke-width:.264585" transform="translate(121.503 -478.124)"/>
<g fill="none">
<path d="M1.72 116.3c35.61-49.848 100.208-64.838 165.39-64.838" color="#000" stroke="#555" stroke-linejoin="round" stroke-miterlimit="100" stroke-width="3" style="isolation:auto;mix-blend-mode:normal" transform="matrix(.26458 0 0 .26458 -.132 -.132)"/>
<path d="m4.44 22.742 26.895-10.25M20.93 16.472 19.77 13.42l-3.04 1.164" stroke="#000" stroke-width=".26458"/>
<path d="M68.109 67.084 48.469 15.55" marker-end="url(#a)" stroke="red" stroke-width="2" style="marker-end:url(#a)" transform="matrix(.26458 0 0 .26458 -.132 -.132)"/>
</g>
<g stroke-linejoin="round" stroke-miterlimit="100000" transform="matrix(.26458 0 0 .26458 -.132 -.132)">
<circle cx="68.105" cy="67.085" r="5" color="#000"/>
<path d="M68.653 7.432h2.238c.364 0 .708 0 .708-.554 0-.345-.325-.345-.65-.345h-2.142l.63-3.462c.058-.344.058-.382.25-.554.248-.23.458-.23.554-.23.268 0 .44.038.67.134-.46.23-.804.727-.804 1.243 0 .574.46.88.937.88.785 0 1.378-.688 1.378-1.415 0-.976-.995-1.53-2.18-1.53-.9 0-1.971.363-2.64 1.434-.44.708-.555 1.454-.919 3.5H64.81c-.364 0-.689 0-.689.555 0 .344.325.344.631.344h1.76l-1.454 8.149c-.038.172-.248 1.377-.344 1.645-.038.096-.344.976-.956.976-.364 0-.517-.058-.65-.115.478-.23.841-.727.841-1.263 0-.574-.46-.88-.937-.88-.785 0-1.378.689-1.378 1.416 0 1.033 1.09 1.53 2.085 1.53 1.435 0 2.43-1.415 2.583-1.664.822-1.262 1.262-3.692 1.32-4.017zM78.635 1.13a.616.616 0 0 0-.375.588c0 .362.255.63.63.63.361 0 .642-.228.642-.656C79.532.5 77.672.5 77.296.5c-2.008 0-3.253 1.54-3.253 3.08 0 1.687 1.432 3.026 3.186 3.026 1.995 0 2.464-1.58 2.464-1.741 0-.16-.174-.16-.228-.16-.174 0-.187.04-.254.227-.295.83-1.004 1.245-1.821 1.245-.924 0-2.129-.683-2.129-2.61 0-1.701.83-2.639 2.075-2.639.175 0 .817 0 1.3.201z" fill="red"/>
</g>
</svg>
