<svg width="179.178" height="127.18" viewBox="0 0 47.408 33.65" xml:space="preserve" xmlns="http://www.w3.org/2000/svg">
<defs>
<marker id="a" overflow="visible" orient="auto">
<path d="m-10 0-4 4L0 0l-14-4Z" fill-rule="evenodd" stroke="#000" stroke-width=".8pt"/>
</marker>
</defs>
<g transform="translate(56.188 -362.236)">
<path d="m-8.82 389.094-1.355-1.482-1.291-1.545-1.27-1.65-1.207-1.737-1.185-1.883-1.185-1.99-1.164-2.053-1.143-2.096-1.143-2.074-1.143-2.032-1.122-1.884-1.08-1.693-1.037-1.482-1.016-1.248-.952-1.08-.91-.889m-1.778.677.889.89.93 1.058.975 1.27 1.037 1.46 1.08 1.672 1.1 1.884 1.122 1.969 1.143 2.053 1.164 2.074 1.164 2.032 1.164 1.969 1.185 1.883 1.207 1.736 1.228 1.63 1.29 1.566 1.313 1.503m-2.074.466-1.291-1.503-1.27-1.567-1.207-1.63-1.206-1.714-1.165-1.841-1.164-1.926-1.143-1.99-1.143-2.032-1.143-1.99-1.121-1.947-1.08-1.82-1.058-1.651-1.016-1.44-.953-1.227-.91-1.059-.868-.91m-1.841 1.122.825.91.868 1.037.931 1.228.995 1.397 1.037 1.587 1.08 1.757 1.1 1.842 1.122 1.926 1.122 1.947 1.143 1.926 1.143 1.863 1.164 1.8 1.164 1.671 1.186 1.609 1.227 1.545 1.292 1.524m-2.329.402-1.227-1.503-1.207-1.524-1.164-1.587-1.143-1.63-1.143-1.714-1.122-1.778-1.122-1.82-1.1-1.842-1.1-1.8-1.08-1.756-1.038-1.651-1.016-1.524-.952-1.334-.889-1.185-.847-1.016-.783-.91m-1.884 1.693.741.89.804.994.868 1.143.91 1.249.953 1.418 1.016 1.524 1.037 1.609 1.058 1.672 1.08 1.693 1.1 1.693 1.101 1.651 1.1 1.63 1.102 1.567 1.143 1.524 1.164 1.502 1.185 1.503m-2.561.318-1.143-1.482-1.122-1.46-1.1-1.46-1.08-1.483-1.058-1.502-1.059-1.524-1.037-1.524-1.037-1.524-1.037-1.503-.995-1.44-.953-1.396-.91-1.292-.867-1.164-.805-1.08-.762-.973-.72-.868m-1.841 2.032.656.868.72.931.762 1.016.804 1.08.868 1.164.889 1.228.952 1.27.953 1.312.995 1.355.995 1.354 1.016 1.355 1.016 1.376.698.973 1.376 1.8 1.058 1.418 1.1 1.46m-2.73.297-1.037-1.419-1.016-1.375-.995-1.313-.973-1.29-.974-1.229-.952-1.206-.932-1.185-.931-1.143-.889-1.143-.889-1.101-.825-1.058-.805-1.037-.762-.974-.698-.953-.678-.91-.613-.846m-1.8 2.032.572.846.614.89.656.867.698.91.72.91.783.91.805.932.846.931.847.974.868 1.016.889 1.037.91 1.1.91 1.165.931 1.249.953 1.312.995 1.418m-2.794.318-.932-1.376-.889-1.27-.867-1.186-.868-1.058-.826-.974-.825-.889-.805-.846-.783-.805-.762-.762-.72-.762-.72-.783-.676-.783-.635-.825-.593-.826-.55-.846-.55-.826m-1.758 1.778.487.847.508.804.55.783.572.741.614.698.635.657.656.613.699.635.698.635.74.678.742.762.762.868.783.973.825 1.1.826 1.25.868 1.354m-12.742-11.81.465.825.466.804.487.741.529.699.55.592.572.55.592.509.614.508.635.508.656.571.678.635.698.762.72.91.74 1.059.763 1.206.804 1.334m-2.71.465-.761-1.333-.699-1.186-.677-1.037-.656-.846-.635-.678-.614-.571-.593-.466-.55-.402-.55-.402-.53-.424-.508-.486-.486-.53-.487-.656-.445-.72-.423-.783-.402-.846m-1.8 1.1.382.847.38.783.403.699.423.635.423.487.466.423.466.36.487.338.508.34.529.401.529.508.571.635.593.805.614 1.016.656 1.185.677 1.333m-9.927-9.884.339.846.339.783.36.72.38.593.381.487.403.38.423.318.423.296.466.297.466.36.465.444.508.614.55.804.55.995.593 1.164.614 1.376m-9.122-9.715.317.846.296.805.34.698.317.593.338.465.36.381.36.297.38.254.403.275.402.339.445.423.444.593.466.804.508.995.529 1.185.55 1.397 2.667-.635 2.667-.593 2.71-.529 2.709-.465 2.773-.403 2.794-.36 2.794-.317 2.772-.317 2.73-.297 2.668-.317 2.561-.318 2.455-.38 2.329-.403 2.18-.444 2.074-.466 1.99-.508m-1.355-1.482-1.947.487-2.053.466-2.18.423-2.265.423-2.413.381-2.52.34-2.624.338-2.667.338-2.73.318-2.73.36-2.731.38-2.71.424-2.666.466-2.625.529-2.604.55-2.603.614m-.53-1.185 2.54-.593 2.54-.571 2.583-.53 2.604-.486 2.645-.466 2.667-.402 2.667-.402 3.133-.424 2.159-.338 2.561-.381 2.477-.381 2.37-.403 2.244-.444 2.138-.445 2.032-.465 1.947-.466m-1.27-1.65-1.905.486-2.01.466-2.118.465-2.222.466-2.35.466-2.434.444-2.518.445-2.562.465-2.603.445-2.604.465-2.624.487-2.561.508-2.54.508-2.52.55-2.476.593-2.497.593m-.466-.804 2.413-.593 2.434-.593 2.456-.592 2.476-.572 2.498-.571 2.54-.572 2.56-.571 2.54-.572 2.52-.55 2.455-.55 2.413-.53 2.307-.529 2.201-.508 2.075-.508 2.01-.487 1.905-.487m-1.185-1.883-1.905.487-1.99.529-2.074.55-2.18.593-2.265.613-2.37.657-2.413.677-2.477.698-2.476.699-2.477.698-2.476.678-2.434.677-2.413.656-2.392.635-2.37.614-2.35.614m-.445-.423 2.328-.635 2.308-.678 2.307-.698 2.35-.72 2.37-.804 2.392-.805 2.413-.846 2.413-.868 2.413-.847 2.37-.846 2.329-.783 2.243-.741 2.16-.678 2.052-.613 1.99-.572 1.884-.508m-1.164-2.053-1.884.53-1.969.613-2.053.677-2.138.783-2.222.868-2.265.953-2.328 1.016-2.35 1.016-2.35 1.037-2.349 1.016-2.328.973-2.286.91-2.286.826-2.244.762-2.243.72-2.265.656m-.402-.275 2.201-.678 2.201-.762 2.202-.825 2.201-.931 2.223-1.038 2.243-1.143 2.286-1.185 2.265-1.206 2.286-1.228 2.286-1.185 2.222-1.122 2.202-1.016 2.116-.89 2.032-.761 1.948-.656 1.905-.55m-1.143-2.075-1.905.572-1.948.72-2.01.825-2.096 1.016-2.159 1.143-2.201 1.29-2.202 1.377-2.222 1.397-2.222 1.418-2.202 1.354-2.18 1.27-2.138 1.165-2.138 1.037-2.137.889-2.138.804-2.16.72m-.359-.297 2.095-.74 2.096-.847 2.074-.953 2.075-1.121 2.074-1.27 2.117-1.419 2.116-1.523 2.138-1.588 2.159-1.566 2.159-1.545 2.159-1.46 2.117-1.292 2.074-1.1 1.99-.932 1.947-.74 1.884-.636m-1.122-1.884-1.863.635-1.926.805-1.99.994-2.032 1.207-2.095 1.418-2.096 1.588-2.095 1.714-2.095 1.736-2.096 1.735-2.053 1.651-2.032 1.545-2.01 1.376-2.012 1.186-2.032 1.016-2.032.889-2.053.74m-.338-.465 2.01-.762 1.99-.89 1.968-1.058 1.948-1.248 1.947-1.482 1.969-1.63 2.01-1.778 2.011-1.862 2.032-1.863 2.053-1.842 2.053-1.714 2.032-1.524 2.011-1.27 1.969-1.058 1.905-.826 1.862-.656m-1.037-1.482-1.862.678-1.884.846-1.948 1.101-1.968 1.333-1.99 1.61-2.01 1.798-1.99 1.926-1.99 1.969-1.947 1.926-1.947 1.863-1.905 1.714-1.905 1.524-1.905 1.291-1.905 1.08-1.948.931-1.947.762m-.339-.698 1.927-.784 1.904-.91 1.863-1.1 1.863-1.313 1.841-1.566 1.863-1.757 1.884-1.905 1.905-2.01 1.926-2.033 1.947-1.99 1.947-1.862 1.969-1.65 1.926-1.377 1.926-1.1 1.863-.89 1.82-.655m-.952-1.08-1.8.677-1.84.89-1.885 1.121-1.905 1.397-1.926 1.672-1.905 1.884-1.905 2.032-1.884 2.053-1.841 2.032-1.82 1.948-1.82 1.799-1.8 1.566-1.82 1.333-1.82 1.101-1.863.91-1.884.762m-.317-.846 1.862-.762 1.82-.91 1.8-1.101 1.756-1.313 1.778-1.587 1.757-1.778 1.8-1.968 1.799-2.032 1.841-2.075 1.842-2.032 1.883-1.905 1.884-1.693 1.863-1.397 1.841-1.122 1.82-.868 1.779-.677m-16.553 13.8-.529.572-.508.55-.508.572-.254.275-.529.53-.53.55-.528.529-.17.169-.571.508-.572.508-.571.508-.064.063-.592.445-.614.466-.55.402-.657.402-.656.402-.486.296-.678.34-.698.338-.445.233-.698.296-.72.275-.444.19.254.72.063.127.275.72.021.085.318.677.021.021.318.593.338.465.36.381.36.297.38.254.403.275.402.339.445.423.444.593.381.656.085.148.339.677.169.318.296.698.233.487.275.72.275.677.741-.19.741-.17.74-.17.445-.105.741-.17.74-.169.763-.148.423-.106.762-.148.741-.148.74-.127.467-.106.74-.127.741-.127.762-.127.466-.084.762-.106.762-.106.74-.106.509-.085.762-.105.762-.085.74-.106.53-.063.762-.085.762-.085.74-.106.53-.042.762-.085.762-.084.762-.085.486-.064.762-.084.762-.085.762-.085.445-.042.762-.085.762-.106.762-.084.38-.043.763-.084.74-.106.763-.106.296-.021.762-.127.762-.106.74-.106.191-.042.762-.127.741-.127.74-.127.086-.021.74-.148.741-.149.699-.148.74-.17.741-.168.593-.127.74-.19.742-.191.508-.127-.508-.55-.508-.572-.339-.36-.487-.593-.487-.571-.317-.381-.466-.614-.465-.593-.34-.444-.422-.614-.445-.635-.339-.487-.402-.635-.423-.656-.36-.593-.402-.656-.381-.656-.381-.656-.021-.021-.36-.657-.381-.656-.381-.677-.042-.064-.36-.677-.36-.656-.381-.677-.042-.085-.381-.677-.36-.657-.36-.677-.042-.085-.381-.656-.381-.656-.36-.656-.021-.042-.381-.656-.381-.635-.36-.593-.402-.635-.402-.635-.276-.423-.444-.635-.445-.614-.148-.233-.487-.593-.465-.592-.064-.064-.508-.571-.444-.508-.55-.53-.36-.36-.72.276-.699.254-.36.148-.698.317-.677.34-.445.21-.656.403-.635.38-.55.34-.614.465-.614.445-.593.465-.042.022-.571.508-.572.508-.571.508-.17.169-.529.53-.55.55-.53.55-.274.275-.508.55-.508.572-.508.55-.318.36-.508.55-.508.572-.508.571-.317.381-.508.572-.487.571-.508.55-.297.34" fill="none" stroke="#555" stroke-linejoin="round" stroke-width=".079"/>
<path d="M-38.554 388.23c2.664-2.047 4.209-3.073 6.108-5.127 2.786-3.012 3.575-4.995 4.634-6.804" color="#000" fill="none" marker-end="url(#a)" stroke="#000" style="isolation:auto;mix-blend-mode:normal;stroke-width:.264582"/>
<circle transform="rotate(-26.402)" cx="-207.165" cy="330.592" color="#000" fill="#5e5bff" style="stroke-width:.264582" r="1.984"/>
</g>
</svg>
