<svg width="115.621" height="132.907" xmlns="http://www.w3.org/2000/svg" xmlns:xlink="http://www.w3.org/1999/xlink">
<defs>
<symbol id="a">
<path d="M9.464 60.125c-.648.18-.972.792-.972 1.242 0 .396.306.828.9.828.63 0 1.296-.522 1.296-1.404 0-.954-.954-1.584-2.052-1.584-1.026 0-1.692.774-1.926 1.098-.45-.756-1.458-1.098-2.484-1.098-2.268 0-3.492 2.214-3.492 2.808 0 .252.27.252.432.252.216 0 .342 0 .414-.234.522-1.638 1.818-2.178 2.556-2.178.684 0 1.008.324 1.008.9 0 .342-.252 1.332-.414 1.98l-.612 2.466c-.27 1.098-.918 1.638-1.53 1.638-.09 0-.504 0-.864-.27.648-.18.972-.792.972-1.242 0-.396-.306-.828-.9-.828-.63 0-1.296.522-1.296 1.404 0 .954.954 1.584 2.052 1.584 1.026 0 1.692-.774 1.926-1.098.45.756 1.458 1.098 2.484 1.098 2.268 0 3.492-2.214 3.492-2.808 0-.252-.27-.252-.432-.252-.216 0-.342 0-.414.234-.522 1.638-1.818 2.178-2.556 2.178-.684 0-1.008-.324-1.008-.9 0-.378.234-1.332.396-1.998.126-.468.54-2.16.63-2.448.27-1.08.9-1.638 1.53-1.638.09 0 .504 0 .864.27z" stroke-width="1.5"/>
</symbol>
<symbol id="b">
<path d="M55.956 35.112c.018-.072.054-.18.054-.27 0-.18-.18-.18-.216-.18-.018 0-.666.054-.99.09-.306.018-.576.054-.9.072-.432.036-.558.054-.558.378 0 .18.18.18.36.18.918 0 .918.162.918.342 0 .072 0 .108-.09.432l-2.232 8.928c-.054.198-.09.342-.09.63 0 .9.666 1.62 1.584 1.62.594 0 .99-.396 1.278-.954.306-.594.558-1.728.558-1.8 0-.09-.072-.162-.18-.162-.162 0-.18.09-.252.36-.324 1.242-.648 2.196-1.368 2.196-.54 0-.54-.576-.54-.828 0-.072 0-.45.126-.954z" stroke-width="1.5"/>
</symbol>
<symbol id="c">
<path d="M15.447 62.399c0-.324-.023-.336-.347-.336-.493.48-1.129.768-2.269.768v.396c.324 0 .972 0 1.668-.324v6.156c0 .444-.036.588-1.176.588h-.42v.396c.492-.036 1.524-.036 2.064-.036s1.584 0 2.076.036v-.396h-.42c-1.14 0-1.176-.144-1.176-.588z" stroke-width="1.5"/>
</symbol>
<symbol id="d">
<path d="M51.974 122.854c.192-.18.696-.576.888-.744.744-.684 1.452-1.344 1.452-2.436 0-1.428-1.2-2.352-2.7-2.352-1.44 0-2.388 1.092-2.388 2.16 0 .588.468.672.636.672.252 0 .624-.18.624-.636 0-.624-.6-.624-.744-.624.348-.876 1.152-1.176 1.74-1.176 1.116 0 1.692.948 1.692 1.956 0 1.248-.876 2.16-2.292 3.612l-1.512 1.56c-.144.132-.144.156-.144.456h4.74l.348-2.148h-.372c-.036.24-.132.84-.276 1.068-.072.096-.984.096-1.176.096h-2.136z" stroke-width="1.5"/>
</symbol>
</defs>
<path d="m109.16 91.765 5.96-12.94-4.717 1.915V55.012h-2.6v25.699l-4.716-1.885z" color="#000" fill="red" style="text-decoration-line:none;text-indent:0;text-transform:none"/>
<path d="M113.816 39.643c.072-.288.072-.396.072-.468 0-.576-.468-.792-.846-.792-.36 0-.684.162-.918.432-.252-.27-.846-.738-1.908-.738-3.186 0-5.058 2.844-5.058 5.202 0 2.124 1.602 2.934 3.15 2.934.936 0 1.656-.36 1.98-.558-.108.45-.216.9-.342 1.35-.126.522-.252 1.062-.882 1.566-.756.63-1.35.63-1.836.63-.432 0-.756 0-1.224-.072.522-.378.558-.972.558-1.044 0-.396-.306-.828-.9-.828s-1.278.504-1.278 1.332c0 1.188 1.584 1.26 2.862 1.26 1.62 0 4.104-.378 4.644-2.538zm-3.15 4.536c-.072.252-.072.324-.288.522-.954.864-1.8.864-1.962.864-.702 0-1.224-.396-1.224-1.35 0-.864.594-3.024.864-3.69.63-1.548 1.656-1.8 2.196-1.8 1.116 0 1.512.882 1.512 1.008 0 .036 0 .072-.054.27z" fill="red"/>
<g color="#000">
<path d="m63.15 8.671-32.042 55.76 41.618 54.051" fill="none" stroke="#000" style="isolation:auto;mix-blend-mode:normal"/>
<circle transform="rotate(139.851)" cx="17.765" cy="-69.306" r="9.464" fill="#dcdcdc" stroke="#555" stroke-width="2" style="isolation:auto;mix-blend-mode:normal"/>
<circle transform="rotate(139.851)" cx="20.805" cy="-137.457" r="12.93" fill="#dcdcdc" stroke="#555" stroke-width="2" style="isolation:auto;mix-blend-mode:normal"/>
</g>
<path d="M52.895 5.144C52.895 2.084 50.77.5 47.657.5c-5.562 0-8.478 4.77-8.478 8.37 0 3.15 2.25 4.59 5.256 4.59 5.526 0 8.46-4.608 8.46-8.316zm-8.28 7.56c-.594 0-1.422-.126-2.106-.828-.792-.792-.792-1.998-.792-2.412 0-1.134.54-4.5 2.016-6.354 1.206-1.476 2.7-1.89 3.744-1.89 1.494 0 2.97.81 2.97 3.096 0 1.17-.648 4.32-1.818 6.012-1.35 1.98-2.988 2.376-4.014 2.376z"/>
<circle cx="63.151" cy="8.671" r="2.5" color="#000"/>
<use width="100%" height="100%" xlink:href="#a"/>
<use transform="translate(36.912 55.259)" width="100%" height="100%" xlink:href="#a"/>
<use width="100%" height="100%" xlink:href="#b"/>
<use transform="translate(2.988 43.041)" width="100%" height="100%" xlink:href="#b"/>
<use width="100%" height="100%" xlink:href="#c"/>
<use transform="translate(44.955 -20.189)" width="100%" height="100%" xlink:href="#c"/>
<use width="100%" height="100%" xlink:href="#d"/>
<use transform="translate(11.032 -32.407)" width="100%" height="100%" xlink:href="#d"/>
</svg>
