<svg width="186.115" height="76.326" xmlns="http://www.w3.org/2000/svg" xmlns:xlink="http://www.w3.org/1999/xlink">
<defs>
<path id="d" d="M3.515-7.651c0-.287 0-.311-.275-.311-.741.765-1.793.765-2.176.765v.37c.24 0 .944 0 1.566-.31v6.193c0 .43-.036.573-1.112.573h-.382V0c.418-.036 1.458-.036 1.936-.036s1.519 0 1.937.036v-.37h-.382c-1.076 0-1.112-.132-1.112-.574z"/>
<path id="g" d="M1.949-5.464c-.55-.358-.598-.765-.598-.968 0-.73.777-1.231 1.626-1.231.873 0 1.638.621 1.638 1.482 0 .682-.467 1.255-1.184 1.674zm1.745 1.136c.86-.442 1.447-1.064 1.447-1.853 0-1.1-1.064-1.781-2.152-1.781-1.196 0-2.164.885-2.164 1.996 0 .216.024.754.526 1.315.131.144.574.443.873.646-.694.347-1.722 1.016-1.722 2.2C.502-.538 1.722.263 2.977.263c1.35 0 2.487-.992 2.487-2.271 0-.43-.132-.969-.586-1.471-.227-.251-.419-.37-1.184-.849zM2.5-3.826l1.47.933c.335.227.897.586.897 1.315 0 .885-.897 1.506-1.877 1.506-1.028 0-1.89-.74-1.89-1.733 0-.694.383-1.459 1.4-2.02z"/>
<path id="f" d="M2.654-2.056c-1.04 0-1.04-1.196-1.04-1.47 0-.324.012-.706.191-1.005.096-.143.37-.478.849-.478 1.04 0 1.04 1.195 1.04 1.47 0 .323-.012.706-.191 1.004-.096.144-.37.479-.849.479zm-1.387.466c0-.048 0-.323.203-.562.467.335.957.37 1.184.37 1.112 0 1.937-.824 1.937-1.745 0-.442-.192-.884-.49-1.16.43-.406.86-.466 1.076-.466.023 0 .083 0 .12.012-.132.048-.192.18-.192.323a.34.34 0 0 0 .347.347c.12 0 .346-.084.346-.359 0-.203-.143-.586-.61-.586-.239 0-.765.072-1.267.562a1.994 1.994 0 0 0-1.267-.43C1.542-5.284.717-4.46.717-3.54c0 .526.263.98.562 1.232-.155.179-.37.574-.37.992 0 .37.155.825.526 1.064C.717-.048.335.466.335.944c0 .861 1.183 1.519 2.642 1.519 1.41 0 2.654-.61 2.654-1.542 0-.419-.167-1.029-.777-1.363-.634-.335-1.327-.335-2.056-.335-.3 0-.813 0-.897-.012-.383-.048-.634-.418-.634-.801zM2.99 2.188C1.78 2.188.956 1.578.956.944c0-.55.455-.992.98-1.028h.706c1.028 0 2.367 0 2.367 1.028 0 .646-.849 1.244-2.02 1.244z"/>
<path id="e" d="M1.267-.909c0 .538-.131.538-.932.538V0c.394-.012.956-.036 1.303-.036.359 0 .837.012 1.315.036v-.37c-.801 0-.933 0-.933-.539V-2.14l.766-.658C3.706-1.53 4.208-.86 4.208-.646c0 .228-.203.275-.43.275V0c.335-.012 1.04-.036 1.291-.036.347 0 .693.012 1.04.036v-.37c-.442 0-.705 0-1.16-.634l-1.518-2.14c-.012-.024-.072-.096-.072-.132 0-.048.85-.765.969-.86.753-.61 1.255-.634 1.506-.646v-.37c-.347.035-.502.035-.837.035a30.8 30.8 0 0 1-1.339-.036v.37c.227.013.347.144.347.3 0 .239-.167.382-.263.466L2.056-2.558v-5.739l-1.721.132v.37c.837 0 .932.084.932.67z"/>
<marker id="b" overflow="visible" orient="auto">
<path d="M0 2.26v-4.52" fill="none" stroke="#000" stroke-width=".4pt"/>
</marker>
<marker id="a" overflow="visible" orient="auto">
<path d="M0 2.26v-4.52" fill="none" stroke="#000" stroke-width=".4pt"/>
</marker>
<marker id="c" overflow="visible" orient="auto">
<path d="M0 2.26v-4.52" fill="none" stroke="#000" stroke-width=".4pt"/>
</marker>
</defs>
<path d="m36.03 56.073 10.131 19.003h-20.26z" fill="none" stroke="#000" stroke-width="1.5"/>
<g color="#000">
<path d="M168.846 56.073h-16.602-16.602-16.602-16.602-16.602-16.601-16.602H36.03 19.429" fill="none" marker-end="url(#a)" marker-mid="url(#b)" marker-start="url(#c)" stroke="#000" style="isolation:auto;mix-blend-mode:normal"/>
<circle transform="rotate(139.851)" cx="-99.331" cy="-144.112" r="9.464" fill="#555" style="isolation:auto;mix-blend-mode:normal"/>
<circle transform="rotate(139.851)" cx="8.777" cy="-40.537" r="18.929" fill="#555" style="isolation:auto;mix-blend-mode:normal"/>
</g>
<g transform="matrix(1.6 0 0 1.6 125.423 -64.518)" stroke-width=".833">
<use x="15.595" y="60.763" width="100%" height="100%" xlink:href="#d"/>
<use x="25.536" y="60.763" width="100%" height="100%" xlink:href="#e"/>
<use x="31.822" y="60.763" width="100%" height="100%" xlink:href="#f"/>
</g>
<g transform="matrix(1.6 0 0 1.6 -65.412 -83.447)" stroke-width=".833">
<use x="41.762" y="60.763" width="100%" height="100%" xlink:href="#g"/>
<use x="51.702" y="60.763" width="100%" height="100%" xlink:href="#e"/>
<use x="57.989" y="60.763" width="100%" height="100%" xlink:href="#f"/>
</g>
</svg>
