<svg width="176.601" height="112.813" xmlns="http://www.w3.org/2000/svg" xmlns:xlink="http://www.w3.org/1999/xlink">
<defs>
<symbol id="a">
<path d="M31.437 31.123c.018-.072.054-.18.054-.27 0-.18-.18-.18-.216-.18-.018 0-.666.054-.99.09-.306.018-.576.054-.9.072-.432.036-.558.054-.558.378 0 .18.18.18.36.18.918 0 .918.162.918.342 0 .072 0 .108-.09.432l-2.232 8.928c-.054.198-.09.342-.09.63 0 .9.666 1.62 1.584 1.62.594 0 .99-.396 1.278-.954.306-.594.558-1.728.558-1.8 0-.09-.072-.162-.18-.162-.162 0-.18.09-.252.36-.324 1.242-.648 2.196-1.368 2.196-.54 0-.54-.576-.54-.828 0-.072 0-.45.126-.954z" stroke-width="1.5"/>
</symbol>
<symbol id="b">
<path d="M8.96 7.173c.108-.45.288-1.17.288-1.332 0-.576-.468-.792-.846-.792-.342 0-.702.18-.918.45-.27-.288-.864-.756-1.908-.756C2.444 4.743.5 7.587.5 10.053c0 2.214 1.656 2.97 3.15 2.97 1.278 0 2.214-.702 2.502-.972.684.972 1.872.972 2.07.972.666 0 1.188-.378 1.566-1.026.45-.72.684-1.692.684-1.782 0-.252-.27-.252-.432-.252-.198 0-.27 0-.36.09-.036.036-.036.072-.144.522-.36 1.44-.774 1.8-1.224 1.8-.198 0-.414-.072-.414-.666 0-.306.072-.594.252-1.314.126-.504.306-1.224.396-1.62zm-2.988 4.032c-.522.612-1.368 1.17-2.232 1.17-1.116 0-1.206-.972-1.206-1.368 0-.936.612-3.15.9-3.852.558-1.314 1.44-1.764 2.178-1.764 1.062 0 1.494.846 1.494 1.044l-.036.252z" stroke-width="1.5"/>
</symbol>
<symbol id="c">
<path d="M23.298 78.829c-.648.18-.972.792-.972 1.242 0 .396.306.828.9.828.63 0 1.296-.522 1.296-1.404 0-.954-.954-1.584-2.052-1.584-1.026 0-1.692.774-1.926 1.098-.45-.756-1.458-1.098-2.484-1.098-2.268 0-3.492 2.214-3.492 2.808 0 .252.27.252.432.252.216 0 .342 0 .414-.234.522-1.638 1.818-2.178 2.556-2.178.684 0 1.008.324 1.008.9 0 .342-.252 1.332-.414 1.98l-.612 2.466c-.27 1.098-.918 1.638-1.53 1.638-.09 0-.504 0-.864-.27.648-.18.972-.792.972-1.242 0-.396-.306-.828-.9-.828-.63 0-1.296.522-1.296 1.404 0 .954.954 1.584 2.052 1.584 1.026 0 1.692-.774 1.926-1.098.45.756 1.458 1.098 2.484 1.098 2.268 0 3.492-2.214 3.492-2.808 0-.252-.27-.252-.432-.252-.216 0-.342 0-.414.234-.522 1.638-1.818 2.178-2.556 2.178-.684 0-1.008-.324-1.008-.9 0-.378.234-1.332.396-1.998.126-.468.54-2.16.63-2.448.27-1.08.9-1.638 1.53-1.638.09 0 .504 0 .864.27z" stroke-width="1.5"/>
</symbol>
<symbol id="d">
<path d="M29.282 81.102c0-.324-.024-.336-.348-.336-.492.48-1.128.768-2.268.768v.396c.324 0 .972 0 1.668-.324v6.156c0 .444-.036.588-1.176.588h-.42v.396c.492-.036 1.524-.036 2.064-.036s1.584 0 2.076.036v-.396h-.42c-1.14 0-1.176-.144-1.176-.588z" stroke-width="1.5"/>
</symbol>
<symbol id="e">
<path d="M79.987 72.458c.192-.18.696-.576.888-.744.744-.684 1.452-1.344 1.452-2.436 0-1.428-1.2-2.352-2.7-2.352-1.44 0-2.388 1.092-2.388 2.16 0 .588.467.672.635.672.253 0 .625-.18.625-.636 0-.624-.6-.624-.745-.624.348-.876 1.152-1.176 1.74-1.176 1.116 0 1.692.948 1.692 1.956 0 1.248-.876 2.16-2.292 3.612l-1.512 1.56c-.144.132-.144.156-.144.456h4.74l.348-2.148h-.372c-.036.24-.132.84-.276 1.068-.072.096-.984.096-1.176.096h-2.136z" stroke-width="1.5"/>
</symbol>
</defs>
<path d="m170.141 92.275 5.96-12.94-4.717 1.915V55.522h-2.6v25.699l-4.716-1.885z" color="#000" fill="red" style="text-decoration-line:none;text-indent:0;text-transform:none"/>
<path d="M174.797 40.154c.072-.288.072-.396.072-.468 0-.576-.468-.792-.846-.792-.36 0-.684.162-.918.432-.252-.27-.846-.738-1.908-.738-3.186 0-5.058 2.844-5.058 5.202 0 2.124 1.602 2.934 3.15 2.934.936 0 1.656-.36 1.98-.558-.108.45-.216.9-.342 1.35-.126.522-.252 1.062-.882 1.566-.756.63-1.35.63-1.836.63-.432 0-.756 0-1.224-.072.522-.378.558-.972.558-1.044 0-.396-.306-.828-.9-.828s-1.278.504-1.278 1.332c0 1.188 1.584 1.26 2.862 1.26 1.62 0 4.104-.378 4.644-2.538zm-3.15 4.536c-.072.252-.072.324-.288.522-.954.864-1.8.864-1.962.864-.702 0-1.224-.396-1.224-1.35 0-.864.594-3.024.864-3.69.63-1.548 1.656-1.8 2.196-1.8 1.116 0 1.512.882 1.512 1.008 0 .036 0 .072-.054.27z" fill="red"/>
<g color="#000">
<path d="m144.969 16.611-33.371 70.21L40.04 69.574 9.132 20.854" fill="none" stroke="#000" style="isolation:auto;mix-blend-mode:normal"/>
<circle transform="rotate(139.851)" cx="14.254" cy="-78.998" r="9.464" fill="#dcdcdc" stroke="#555" stroke-width="2" style="font-variant-east_asian:normal;isolation:auto;mix-blend-mode:normal"/>
<circle transform="rotate(139.851)" cx="-29.323" cy="-138.319" r="12.93" fill="#dcdcdc" stroke="#555" stroke-width="2" style="font-variant-east_asian:normal;isolation:auto;mix-blend-mode:normal"/>
</g>
<path d="M122.333 46.064c.948 0 1.548.696 1.548 1.956 0 1.5-.852 1.944-1.488 1.944-.66 0-1.56-.24-1.98-.876.432 0 .732-.276.732-.672a.637.637 0 0 0-.66-.66c-.324 0-.66.204-.66.684 0 1.14 1.224 1.884 2.592 1.884 1.596 0 2.712-1.104 2.712-2.304 0-.996-.792-1.908-2.016-2.172.948-.336 1.656-1.152 1.656-2.112 0-.96-1.08-1.644-2.328-1.644-1.284 0-2.256.696-2.256 1.608 0 .444.3.636.612.636.372 0 .612-.264.612-.612 0-.444-.384-.612-.648-.624.504-.66 1.428-.696 1.644-.696.312 0 1.224.096 1.224 1.332 0 .84-.348 1.344-.516 1.536-.36.372-.636.396-1.368.444-.228.012-.324.024-.324.18 0 .168.108.168.312.168z"/>
<circle cx="144.969" cy="16.611" r="2.5" color="#000"/>
<circle cx="9.132" cy="20.854" r="2.5" color="#000"/>
<use width="100%" height="100%" xlink:href="#a"/>
<use transform="translate(44.488 29.041)" width="100%" height="100%" xlink:href="#a"/>
<use transform="translate(87.183 4.207)" width="100%" height="100%" xlink:href="#a"/>
<use width="100%" height="100%" xlink:href="#b"/>
<use transform="translate(140.138 -4.243)" width="100%" height="100%" xlink:href="#b"/>
<use width="100%" height="100%" xlink:href="#c"/>
<use transform="translate(107.559 23.566)" width="100%" height="100%" xlink:href="#c"/>
<use width="100%" height="100%" xlink:href="#d"/>
<use transform="translate(6.601 -42.881)" width="100%" height="100%" xlink:href="#d"/>
<use transform="translate(-14.432 -73.167)" width="100%" height="100%" xlink:href="#d"/>
<use width="100%" height="100%" xlink:href="#e"/>
<use transform="translate(74.617 -63.57)" width="100%" height="100%" xlink:href="#e"/>
<use transform="translate(56.468 37.407)" width="100%" height="100%" xlink:href="#e"/>
</svg>
