<svg width="169.525" height="98.936" viewBox="0 0 169.524 98.935" xmlns="http://www.w3.org/2000/svg">
<defs>
<marker id="a" overflow="visible" orient="auto">
<path d="m-4 0-2 2 7-2-7-2z" fill="red" fill-rule="evenodd" stroke="red" stroke-width=".4pt"/>
</marker>
</defs>
<path d="M168.568 51.822H.958v46.614h167.61z" color="#000" fill="#f0f0f0" style="isolation:auto;mix-blend-mode:normal"/>
<path d="M.958 51.822h167.61" color="#000" fill="none" stroke="#bebebe" stroke-linejoin="round" stroke-miterlimit="100" stroke-width="3" style="isolation:auto;mix-blend-mode:normal"/>
<path d="M84.762 63.064V17.237" fill="none" marker-end="url(#a)" stroke="red" stroke-width="2"/>
<path d="M100.425 7.432h2.238c.363 0 .708 0 .708-.555 0-.344-.325-.344-.65-.344h-2.143l.631-3.462c.058-.344.058-.383.249-.555.249-.23.459-.23.555-.23.267 0 .44.039.67.135-.46.23-.804.726-.804 1.243 0 .574.459.88.937.88.784 0 1.377-.689 1.377-1.416 0-.975-.994-1.53-2.18-1.53-.9 0-1.97.364-2.64 1.435-.44.707-.555 1.453-.918 3.5H96.58c-.363 0-.688 0-.688.555 0 .344.325.344.63.344h1.76l-1.453 8.149c-.038.172-.249 1.377-.344 1.645-.039.095-.345.975-.957.975-.363 0-.516-.057-.65-.115.478-.23.841-.726.841-1.262 0-.574-.459-.88-.937-.88-.784 0-1.377.689-1.377 1.416 0 1.033 1.09 1.53 2.085 1.53 1.435 0 2.43-1.416 2.582-1.664.823-1.263 1.263-3.692 1.32-4.017zM110.406 1.129a.616.616 0 0 0-.375.59c0 .36.254.628.63.628.36 0 .642-.227.642-.656C111.303.5 109.442.5 109.067.5c-2.008 0-3.254 1.54-3.254 3.08 0 1.686 1.433 3.025 3.187 3.025 1.995 0 2.464-1.58 2.464-1.74 0-.16-.174-.16-.228-.16-.174 0-.187.04-.254.227-.295.83-1.004 1.245-1.821 1.245-.924 0-2.13-.683-2.13-2.611 0-1.7.83-2.638 2.076-2.638.174 0 .817 0 1.299.201z" fill="red"/>
<path d="M.957 51.778c22.565 5.384 52.575 8.396 83.805 8.41 31.212-.005 61.22-3.005 83.806-8.377v46.625H.957z" fill="#dcdcdc"/>
<path d="M.957 51.778c22.565 7.226 68.034 11.285 83.805 11.285s61.22-4.032 83.806-11.241" fill="none" stroke="#555" stroke-linejoin="round" stroke-miterlimit="100" stroke-width="3"/>
<circle cx="84.762" cy="63.064" r="5" color="#000"/>
</svg>
