<svg width="114.62" height="131.907" viewBox="0 0 30.327 34.9" xml:space="preserve" xmlns="http://www.w3.org/2000/svg">
<g transform="translate(-50.761 -364.23)">
<path d="m79.51 388.377 1.578-3.423-1.248.506v-6.807h-.688v6.8l-1.248-.5z" color="#000" fill="red" style="text-indent:0;text-decoration-line:none;text-transform:none;stroke-width:.264583"/>
<path d="M80.742 374.587c.02-.077.02-.105.02-.124 0-.153-.124-.21-.224-.21a.32.32 0 0 0-.243.115c-.067-.072-.224-.196-.505-.196-.843 0-1.338.753-1.338 1.377 0 .562.424.776.833.776.248 0 .438-.095.524-.148-.029.12-.057.238-.09.358-.034.138-.067.28-.234.414-.2.167-.357.167-.486.167-.114 0-.2 0-.323-.02a.368.368 0 0 0 .147-.276c0-.105-.08-.219-.238-.219a.348.348 0 0 0-.338.353c0 .314.419.333.757.333.429 0 1.086-.1 1.229-.672zm-.833 1.2c-.019.067-.019.086-.076.138-.253.229-.476.229-.52.229-.185 0-.323-.105-.323-.358 0-.228.157-.8.228-.976.167-.41.439-.476.581-.476.296 0 .4.233.4.266 0 .01 0 .02-.014.072z" fill="red"/>
<path d="m67.337 366.392-8.478 14.753 11.012 14.301" color="#000" fill="none" stroke="#000" stroke-width=".265" style="isolation:auto;mix-blend-mode:normal;shape-rendering:auto"/>
<circle transform="rotate(139.851)" cx="200.763" cy="-329.287" r="2.504" color="#000" fill="#dcdcdc" stroke="#555" stroke-width=".529" style="isolation:auto;mix-blend-mode:normal;shape-rendering:auto"/>
<circle transform="rotate(139.851)" cx="201.568" cy="-347.319" r="3.421" color="#000" fill="#dcdcdc" stroke="#555" stroke-width=".529" style="isolation:auto;mix-blend-mode:normal;shape-rendering:auto"/>
<path d="M64.624 365.459c0-.81-.562-1.229-1.386-1.229-1.472 0-2.243 1.262-2.243 2.215 0 .833.595 1.214 1.39 1.214 1.462 0 2.239-1.22 2.239-2.2zm-2.191 2a.75.75 0 0 1-.557-.219c-.21-.21-.21-.529-.21-.638 0-.3.143-1.19.534-1.681.319-.39.714-.5.99-.5.395 0 .786.214.786.819 0 .31-.171 1.143-.481 1.59-.357.524-.79.63-1.062.63z"/>
<circle cx="67.337" cy="366.392" r=".661" color="#000"/>
<path d="M53.133 380.006a.356.356 0 0 0-.257.328c0 .105.08.22.238.22.166 0 .343-.139.343-.372 0-.252-.253-.419-.543-.419-.272 0-.448.205-.51.29-.119-.2-.386-.29-.657-.29-.6 0-.924.586-.924.743 0 .067.071.067.114.067.057 0 .09 0 .11-.062.138-.434.48-.577.676-.577.181 0 .267.086.267.239 0 .09-.067.352-.11.523l-.162.653c-.071.29-.243.433-.405.433-.023 0-.133 0-.228-.071a.356.356 0 0 0 .257-.329c0-.105-.08-.219-.238-.219-.167 0-.343.138-.343.372 0 .252.252.419.543.419.271 0 .448-.205.51-.29.119.2.385.29.657.29.6 0 .924-.586.924-.743 0-.067-.072-.067-.115-.067-.057 0-.09 0-.11.062-.137.433-.48.576-.675.576-.181 0-.267-.085-.267-.238 0-.1.062-.352.105-.528.033-.124.142-.572.166-.648.072-.286.238-.434.405-.434.024 0 .133 0 .229.072zM62.9 394.626a.356.356 0 0 0-.258.329c0 .105.08.22.238.22.167 0 .343-.139.343-.372 0-.253-.252-.42-.543-.42-.271 0-.448.205-.51.291-.119-.2-.385-.29-.657-.29-.6 0-.924.585-.924.742 0 .067.072.067.115.067.057 0 .09 0 .11-.062.137-.433.48-.576.675-.576.181 0 .267.086.267.238 0 .09-.067.353-.11.524l-.161.652c-.072.291-.243.434-.405.434-.024 0-.134 0-.229-.072a.356.356 0 0 0 .257-.328c0-.105-.08-.22-.238-.22-.166 0-.343.139-.343.372 0 .253.253.42.543.42.272 0 .448-.205.51-.291.119.2.386.29.657.29.6 0 .924-.585.924-.743 0-.066-.071-.066-.114-.066-.057 0-.09 0-.11.062-.138.433-.48.576-.676.576-.181 0-.267-.086-.267-.238 0-.1.062-.353.105-.529.033-.124.143-.571.167-.648.071-.285.238-.433.404-.433.024 0 .134 0 .23.071zM65.434 373.388c.005-.02.014-.048.014-.072 0-.047-.048-.047-.057-.047-.005 0-.176.014-.262.024-.081.004-.152.014-.238.019-.114.01-.148.014-.148.1 0 .047.048.047.095.047.243 0 .243.043.243.09 0 .02 0 .03-.023.115l-.591 2.362a.538.538 0 0 0-.024.167c0 .238.176.429.42.429.156 0 .261-.105.337-.253.081-.157.148-.457.148-.476 0-.024-.019-.043-.048-.043-.042 0-.047.024-.066.095-.086.329-.172.581-.362.581-.143 0-.143-.152-.143-.219 0-.019 0-.119.033-.252zM66.224 384.776c.005-.02.015-.048.015-.072 0-.047-.048-.047-.058-.047-.004 0-.176.014-.262.024-.08.004-.152.014-.238.019-.114.01-.147.014-.147.1 0 .047.047.047.095.047.243 0 .243.043.243.09 0 .02 0 .03-.024.115l-.59 2.362a.538.538 0 0 0-.024.167c0 .238.176.428.419.428.157 0 .262-.104.338-.252.08-.157.148-.457.148-.476 0-.024-.02-.043-.048-.043-.043 0-.048.024-.067.095-.085.329-.171.581-.362.581-.143 0-.143-.152-.143-.219 0-.019 0-.119.034-.252zM54.716 380.608c0-.086-.007-.09-.092-.09-.13.128-.299.204-.6.204v.105c.085 0 .257 0 .441-.086v1.629c0 .117-.01.155-.311.155h-.111v.105c.13-.01.403-.01.546-.01.143 0 .419 0 .55.01v-.105h-.112c-.302 0-.311-.038-.311-.155zM66.61 375.266c0-.086-.006-.089-.092-.089-.13.127-.298.203-.6.203v.105c.086 0 .257 0 .441-.086v1.629c0 .117-.01.156-.31.156h-.112v.104c.13-.01.403-.01.546-.01.143 0 .42 0 .55.01v-.104h-.112c-.301 0-.31-.039-.31-.156zM64.38 396.603c.051-.048.184-.153.235-.197.197-.181.384-.356.384-.645 0-.377-.317-.622-.714-.622-.381 0-.632.29-.632.572 0 .155.124.177.168.177a.163.163 0 0 0 .166-.168c0-.165-.16-.165-.197-.165a.49.49 0 0 1 .46-.311c.295 0 .448.25.448.517 0 .33-.232.572-.607.956l-.4.413c-.038.035-.038.041-.038.12h1.254l.092-.568h-.098c-.01.064-.035.222-.073.283-.02.025-.26.025-.311.025h-.565zM67.299 388.029c.05-.048.184-.153.235-.197.197-.181.384-.356.384-.645 0-.378-.317-.622-.714-.622-.381 0-.632.289-.632.571 0 .156.124.178.168.178a.163.163 0 0 0 .165-.168c0-.165-.158-.165-.197-.165a.49.49 0 0 1 .46-.311c.296 0 .448.25.448.517 0 .33-.231.572-.606.956l-.4.413c-.038.035-.038.04-.038.12h1.254l.092-.568h-.098c-.01.063-.035.222-.073.282-.02.026-.26.026-.311.026h-.566z"/>
</g>
</svg>
