<svg width="178.332" height="101.448" viewBox="0 0 47.184 26.841" xml:space="preserve" xmlns="http://www.w3.org/2000/svg">
<defs>
<marker id="a" overflow="visible" orient="auto">
<path d="M1.96 0a2 2 0 1 1-4.001-.001A2 2 0 0 1 1.96 0z" fill-rule="evenodd" stroke="#000" stroke-width=".4pt"/>
</marker>
<marker id="b" overflow="visible" orient="auto">
<path d="M1.96 0a2 2 0 1 1-4.001-.001A2 2 0 0 1 1.96 0z" fill-rule="evenodd" stroke="#000" stroke-width=".4pt"/>
</marker>
</defs>
<g transform="translate(-93.969 -363.77)">
<path d="m111.566 377.677 2.68 5.028h-5.36z" fill="none" stroke="#000" stroke-width=".397"/>
<path d="m129.829 388.986 1.577-3.423-1.248.506v-6.807h-.688v6.8l-1.248-.5z" color="#000" fill="red" style="text-indent:0;text-decoration-line:none;text-transform:none;stroke-width:.264583"/>
<path d="M131.06 375.196c.02-.076.02-.105.02-.124 0-.152-.124-.21-.224-.21a.32.32 0 0 0-.243.115c-.067-.072-.224-.196-.505-.196-.843 0-1.338.753-1.338 1.377 0 .562.424.776.833.776.248 0 .438-.095.524-.148-.029.12-.057.239-.09.358-.034.138-.067.28-.234.414-.2.167-.357.167-.486.167-.114 0-.2 0-.323-.02a.368.368 0 0 0 .147-.276c0-.104-.08-.219-.238-.219a.348.348 0 0 0-.338.353c0 .314.419.333.757.333.429 0 1.086-.1 1.229-.671zm-.833 1.2c-.019.067-.019.086-.076.138-.253.229-.476.229-.52.229-.185 0-.323-.105-.323-.358 0-.228.157-.8.228-.976.167-.41.439-.476.582-.476.295 0 .4.233.4.267 0 .01 0 .019-.015.07z" fill="red"/>
<path d="m136.859 368.057-25.293 9.62-14.24 5.416" color="#000" fill="none" marker-end="url(#a)" marker-mid="url(#b)" marker-start="url(#a)" stroke="#000" stroke-width=".265" style="isolation:auto;mix-blend-mode:normal;shape-rendering:auto"/>
<circle transform="rotate(139.851)" cx="173.452" cy="-355.654" r="2.504" color="#000" fill="#dcdcdc" stroke="#555" stroke-width=".529" style="isolation:auto;mix-blend-mode:normal;shape-rendering:auto"/>
<circle transform="rotate(139.851)" cx="131.849" cy="-369.507" r="3.421" color="#000" fill="#dcdcdc" stroke="#555" stroke-width=".529" style="isolation:auto;mix-blend-mode:normal;shape-rendering:auto"/>
<path d="M113.562 374.464c0-.81-.562-1.229-1.386-1.229-1.472 0-2.243 1.262-2.243 2.215 0 .833.595 1.214 1.39 1.214 1.463 0 2.239-1.219 2.239-2.2zm-2.19 2a.75.75 0 0 1-.558-.219c-.21-.21-.21-.528-.21-.638 0-.3.143-1.19.534-1.681.319-.39.714-.5.99-.5.396 0 .786.214.786.82 0 .309-.171 1.142-.48 1.59-.358.524-.791.628-1.063.628zM103.25 375.254c.005-.02.014-.048.014-.072 0-.047-.047-.047-.057-.047-.005 0-.176.014-.262.023-.08.005-.152.015-.238.02-.114.009-.148.014-.148.1 0 .047.048.047.096.047.243 0 .243.043.243.09 0 .02 0 .03-.024.115l-.59 2.362a.538.538 0 0 0-.025.167c0 .238.177.428.42.428.157 0 .261-.104.338-.252.08-.157.147-.457.147-.476 0-.024-.019-.043-.047-.043-.043 0-.048.024-.067.095-.086.329-.171.581-.362.581-.143 0-.143-.152-.143-.219 0-.019 0-.119.033-.252zM123.752 367.724c.005-.02.014-.048.014-.072 0-.047-.047-.047-.057-.047-.005 0-.176.014-.262.024-.08.004-.152.014-.238.019-.114.01-.148.014-.148.1 0 .047.048.047.096.047.243 0 .243.043.243.09 0 .02 0 .03-.024.115l-.59 2.362a.538.538 0 0 0-.025.167c0 .238.177.429.42.429.157 0 .261-.105.338-.253.08-.157.147-.457.147-.476 0-.024-.019-.043-.047-.043-.043 0-.048.024-.067.095-.086.329-.172.581-.362.581-.143 0-.143-.152-.143-.219 0-.019 0-.119.033-.252zM139.304 374.722c.051-.047.185-.152.235-.196.197-.181.385-.356.385-.645 0-.378-.318-.622-.715-.622-.38 0-.632.289-.632.571 0 .156.124.178.169.178a.163.163 0 0 0 .165-.168c0-.165-.16-.165-.197-.165a.49.49 0 0 1 .46-.312c.295 0 .448.251.448.518 0 .33-.232.572-.607.956l-.4.412c-.038.035-.038.042-.038.121h1.254l.093-.568h-.099c-.01.063-.035.222-.073.282-.019.026-.26.026-.311.026h-.565zM124.827 370.977c.05-.048.184-.153.235-.197.197-.181.384-.356.384-.645 0-.378-.318-.622-.714-.622-.381 0-.632.289-.632.572 0 .155.124.177.168.177a.163.163 0 0 0 .165-.168c0-.165-.159-.165-.197-.165a.49.49 0 0 1 .46-.311c.296 0 .448.25.448.517 0 .33-.231.572-.606.956l-.4.413c-.038.035-.038.041-.038.12h1.254l.092-.568h-.099c-.009.064-.034.222-.073.283-.019.025-.26.025-.31.025h-.566zM99.427 388.588c0-.085-.007-.088-.092-.088-.13.127-.299.203-.6.203v.104c.085 0 .257 0 .441-.085v1.629c0 .117-.01.155-.311.155h-.111v.105c.13-.01.403-.01.546-.01.143 0 .419 0 .55.01v-.105h-.112c-.302 0-.311-.038-.311-.155zM104.426 377.132c0-.086-.006-.09-.092-.09-.13.128-.298.204-.6.204v.105c.086 0 .257 0 .442-.086v1.629c0 .117-.01.155-.312.155h-.11v.105c.13-.01.402-.01.545-.01.143 0 .42 0 .55.01v-.105h-.111c-.302 0-.312-.038-.312-.155zM97.844 387.987a.356.356 0 0 0-.258.329c0 .104.081.219.239.219.166 0 .342-.138.342-.372 0-.252-.252-.419-.542-.419-.272 0-.448.205-.51.29-.12-.2-.386-.29-.657-.29-.6 0-.924.586-.924.743 0 .067.071.067.114.067.057 0 .09 0 .11-.062.138-.434.48-.576.676-.576.18 0 .267.085.267.238 0 .09-.067.352-.11.524l-.162.652c-.071.29-.243.433-.405.433-.023 0-.133 0-.228-.071a.356.356 0 0 0 .257-.329c0-.104-.081-.219-.238-.219-.167 0-.343.138-.343.372 0 .252.252.419.543.419.271 0 .448-.205.51-.29.118.2.385.29.657.29.6 0 .924-.586.924-.743 0-.067-.072-.067-.115-.067-.057 0-.09 0-.11.062-.137.434-.48.576-.676.576-.18 0-.266-.085-.266-.238 0-.1.062-.352.105-.528.033-.124.142-.572.166-.648.072-.286.238-.433.405-.433.024 0 .133 0 .229.071zM137.823 372.746a.356.356 0 0 0-.257.329c0 .104.081.219.238.219.167 0 .343-.138.343-.372 0-.252-.252-.419-.543-.419-.271 0-.448.205-.51.29-.118-.2-.385-.29-.657-.29-.6 0-.924.586-.924.743 0 .067.072.067.115.067.057 0 .09 0 .11-.062.137-.434.48-.576.676-.576.18 0 .266.085.266.238 0 .09-.066.352-.11.524l-.161.652c-.072.29-.243.433-.405.433-.024 0-.133 0-.229-.071a.356.356 0 0 0 .258-.329c0-.104-.081-.219-.239-.219-.166 0-.342.138-.342.372 0 .252.252.419.542.419.272 0 .448-.205.51-.29.12.2.386.29.657.29.6 0 .924-.586.924-.743 0-.067-.071-.067-.114-.067-.057 0-.09 0-.11.062-.138.433-.48.576-.676.576-.18 0-.267-.085-.267-.238 0-.1.062-.352.105-.528.033-.124.143-.572.167-.648.071-.286.238-.433.405-.433.023 0 .133 0 .228.071z"/>
</g>
</svg>
