<svg xml:space="preserve" viewBox="0 0 45.579 30.857" height="116.627" width="172.268" xmlns:xlink="http://www.w3.org/1999/xlink" xmlns="http://www.w3.org/2000/svg">
<defs>
<path id="a" d="M6.157-3.79c.072-.299.191-.777.191-.884 0-.383-.31-.526-.562-.526a.814.814 0 0 0-.61.298c-.179-.19-.573-.502-1.267-.502-2.08 0-3.371 1.89-3.371 3.527 0 1.47 1.1 1.973 2.092 1.973A2.56 2.56 0 0 0 4.292-.55c.454.646 1.243.646 1.375.646.442 0 .789-.251 1.04-.682.299-.478.454-1.124.454-1.183 0-.168-.18-.168-.287-.168-.131 0-.18 0-.239.06-.024.024-.024.048-.096.347-.239.956-.514 1.195-.812 1.195-.132 0-.275-.048-.275-.442 0-.203.047-.395.167-.873.084-.335.203-.813.263-1.076zM4.172-1.112c-.346.407-.908.777-1.482.777-.741 0-.801-.645-.801-.908 0-.622.406-2.092.598-2.559.37-.872.956-1.171 1.446-1.171.706 0 .993.562.993.693l-.024.167z"/>
<path id="b" d="M3.36-7.878c.047-.168.047-.192.047-.204 0-.155-.131-.215-.263-.215-.048 0-.06 0-.083.012l-1.543.072c-.167.012-.382.024-.382.358 0 .216.227.216.31.216.132 0 .347 0 .503.024-.096.406-.216.92-.335 1.374l-.825 3.3c-.167.67-.167.813-.167 1.088C.622-.323 1.757.096 2.654.096c2.164 0 3.395-1.95 3.395-3.527 0-1.47-1.1-1.973-2.092-1.973-.574 0-1.052.227-1.303.383zM2.677-.335c-.466 0-.86-.25-.86-.992 0-.383.119-.825.202-1.196.12-.454.323-1.279.407-1.637.06-.204.741-.813 1.47-.813.742 0 .801.645.801.908 0 .622-.406 2.092-.597 2.559-.407.968-1.076 1.171-1.423 1.171z"/>
</defs>
<g transform="translate(-110.553 -403.407)">
<path d="m154.556 428.962 1.577-3.423-1.248.506v-6.807h-.688v6.8l-1.248-.5z" color="#000" fill="red" style="text-indent:0;text-decoration-line:none;text-transform:none;stroke-width:.264583"/>
<path d="M155.787 415.172c.02-.076.02-.105.02-.124 0-.152-.124-.21-.224-.21a.32.32 0 0 0-.243.115c-.067-.071-.224-.195-.505-.195-.843 0-1.338.752-1.338 1.376 0 .562.424.776.833.776.248 0 .438-.095.524-.147a9.93 9.93 0 0 1-.09.357c-.034.138-.067.28-.234.414-.2.167-.357.167-.486.167-.114 0-.2 0-.323-.02a.368.368 0 0 0 .147-.275c0-.105-.08-.22-.238-.22a.348.348 0 0 0-.338.353c0 .314.419.333.757.333.429 0 1.086-.1 1.229-.671zm-.833 1.2c-.019.067-.019.086-.076.138-.253.229-.476.229-.52.229-.185 0-.323-.105-.323-.357 0-.229.157-.8.228-.977.167-.41.439-.476.582-.476.295 0 .4.234.4.267 0 .01 0 .019-.015.071z" fill="red"/>
<path d="m147.896 408.943-8.83 18.576-18.933-4.563-8.178-12.89" color="#000" fill="none" stroke="#000" stroke-width=".265" style="isolation:auto;mix-blend-mode:normal;shape-rendering:auto"/>
<circle transform="rotate(139.851)" cx="180.886" cy="-400.754" r="2.504" color="#000" fill="#dcdcdc" stroke="#555" stroke-width=".529" style="isolation:auto;mix-blend-mode:normal;shape-rendering:auto"/>
<circle transform="rotate(139.851)" cx="169.357" cy="-416.45" r="3.421" color="#000" fill="#dcdcdc" stroke="#555" stroke-width=".529" style="isolation:auto;mix-blend-mode:normal;shape-rendering:auto"/>
<path d="M141.906 416.736c.251 0 .41.184.41.517 0 .397-.225.515-.394.515-.174 0-.412-.064-.524-.232.115 0 .194-.073.194-.178a.168.168 0 0 0-.175-.175c-.085 0-.174.054-.174.181 0 .302.324.499.686.499.422 0 .717-.292.717-.61 0-.263-.21-.505-.533-.574.25-.09.438-.305.438-.56 0-.253-.286-.434-.616-.434-.34 0-.597.184-.597.425 0 .118.08.169.162.169.098 0 .162-.07.162-.162 0-.118-.102-.162-.172-.166.134-.174.378-.184.435-.184.083 0 .324.026.324.353a.612.612 0 0 1-.136.406c-.095.099-.168.105-.362.118-.06.003-.086.006-.086.047 0 .045.029.045.083.045z"/>
<circle cx="147.896" cy="408.943" r=".661" color="#000"/>
<circle cx="111.955" cy="410.065" r=".661" color="#000"/>
<path d="M117.857 412.783c.005-.02.014-.048.014-.072 0-.047-.048-.047-.057-.047-.005 0-.176.014-.262.023-.081.005-.152.015-.238.02-.114.009-.148.014-.148.1 0 .047.048.047.095.047.243 0 .243.043.243.09 0 .02 0 .03-.023.115l-.591 2.362a.538.538 0 0 0-.024.167c0 .238.176.428.42.428.156 0 .261-.104.337-.252.081-.157.148-.457.148-.476 0-.024-.019-.043-.048-.043-.042 0-.047.024-.066.095-.086.329-.172.581-.362.581-.143 0-.143-.152-.143-.219 0-.02 0-.12.033-.252zM129.627 420.466c.005-.019.015-.047.015-.071 0-.048-.048-.048-.057-.048-.005 0-.177.015-.262.024-.081.005-.153.014-.238.02-.115.009-.148.013-.148.1 0 .047.048.047.095.047.243 0 .243.043.243.09 0 .02 0 .029-.024.115l-.59 2.362a.538.538 0 0 0-.024.166c0 .239.176.43.419.43.157 0 .262-.106.338-.253.081-.157.148-.458.148-.477 0-.023-.02-.042-.048-.042-.043 0-.047.023-.067.095-.085.328-.171.58-.361.58-.143 0-.143-.152-.143-.218 0-.02 0-.12.033-.253zM140.924 413.896c.005-.02.014-.048.014-.072 0-.047-.048-.047-.057-.047-.005 0-.176.014-.262.023-.08.005-.152.015-.238.02-.114.009-.148.014-.148.1 0 .047.048.047.096.047.242 0 .242.043.242.09 0 .02 0 .03-.023.115l-.591 2.362a.538.538 0 0 0-.024.167c0 .238.176.428.42.428.156 0 .261-.104.337-.252.081-.157.148-.457.148-.476 0-.024-.019-.043-.048-.043-.042 0-.047.024-.066.095-.086.329-.172.581-.362.581-.143 0-.143-.152-.143-.219 0-.019 0-.119.033-.252zM115.703 425.405a.356.356 0 0 0-.257.328c0 .105.081.22.238.22.167 0 .343-.139.343-.372 0-.252-.252-.42-.543-.42-.271 0-.447.206-.51.291-.118-.2-.385-.29-.656-.29-.6 0-.924.586-.924.743 0 .067.071.067.114.067.057 0 .09 0 .11-.062.138-.434.48-.577.676-.577.18 0 .266.086.266.238 0 .091-.066.353-.11.524l-.161.653c-.072.29-.243.433-.405.433-.024 0-.133 0-.228-.071a.356.356 0 0 0 .257-.329c0-.105-.081-.219-.238-.219-.167 0-.343.138-.343.372 0 .252.252.419.543.419.271 0 .447-.205.51-.29.118.2.385.29.656.29.6 0 .924-.586.924-.743 0-.067-.071-.067-.114-.067-.057 0-.09 0-.11.062-.138.433-.48.576-.676.576-.18 0-.266-.086-.266-.238 0-.1.061-.352.104-.529.034-.123.143-.571.167-.647.071-.286.238-.434.405-.434.024 0 .133 0 .228.072zM144.162 431.64a.356.356 0 0 0-.257.329c0 .104.08.219.238.219.166 0 .343-.138.343-.372 0-.252-.253-.419-.543-.419-.272 0-.448.205-.51.29-.119-.2-.386-.29-.657-.29-.6 0-.924.586-.924.743 0 .067.071.067.114.067.057 0 .09 0 .11-.062.138-.434.48-.576.676-.576.181 0 .267.085.267.238 0 .09-.067.352-.11.524l-.162.652c-.071.29-.243.433-.405.433-.023 0-.133 0-.228-.071a.356.356 0 0 0 .257-.329c0-.104-.081-.219-.238-.219-.167 0-.343.138-.343.372 0 .252.252.419.543.419.271 0 .448-.205.51-.29.119.2.385.29.657.29.6 0 .924-.586.924-.743 0-.067-.072-.067-.115-.067-.057 0-.09 0-.11.062-.137.434-.48.576-.675.576-.181 0-.267-.085-.267-.238 0-.1.062-.352.105-.528.033-.124.142-.572.166-.648.072-.286.238-.433.405-.433.024 0 .133 0 .229.071zM117.287 426.006c0-.086-.007-.089-.093-.089-.13.127-.298.203-.6.203v.105c.086 0 .258 0 .442-.085v1.628c0 .118-.01.156-.311.156h-.112v.105c.13-.01.404-.01.547-.01.142 0 .419 0 .549.01v-.105h-.111c-.302 0-.311-.038-.311-.156zM119.033 414.66c0-.085-.006-.088-.092-.088-.13.127-.298.203-.6.203v.105c.086 0 .257 0 .441-.086v1.629c0 .117-.01.155-.31.155h-.112v.105c.13-.01.403-.01.546-.01.143 0 .42 0 .55.01v-.105h-.112c-.301 0-.31-.038-.31-.155z"/>
<path d="M79.987 72.458c.192-.18.696-.576.888-.744.744-.684 1.452-1.344 1.452-2.436 0-1.428-1.2-2.352-2.7-2.352-1.44 0-2.388 1.092-2.388 2.16 0 .588.467.672.635.672.253 0 .625-.18.625-.636 0-.624-.6-.624-.745-.624.348-.876 1.152-1.176 1.74-1.176 1.116 0 1.692.948 1.692 1.956 0 1.248-.876 2.16-2.292 3.612l-1.512 1.56c-.144.132-.144.156-.144.456h4.74l.348-2.148h-.372c-.036.24-.132.84-.276 1.068-.072.096-.984.096-1.176.096h-2.136z" transform="matrix(.26458 0 0 .26458 109.54 404.548)" style="fill:#000"/>
<path d="M79.987 72.458c.192-.18.696-.576.888-.744.744-.684 1.452-1.344 1.452-2.436 0-1.428-1.2-2.352-2.7-2.352-1.44 0-2.388 1.092-2.388 2.16 0 .588.467.672.635.672.253 0 .625-.18.625-.636 0-.624-.6-.624-.745-.624.348-.876 1.152-1.176 1.74-1.176 1.116 0 1.692.948 1.692 1.956 0 1.248-.876 2.16-2.292 3.612l-1.512 1.56c-.144.132-.144.156-.144.456h4.74l.348-2.148h-.372c-.036.24-.132.84-.276 1.068-.072.096-.984.096-1.176.096h-2.136z" transform="matrix(.26458 0 0 .26458 124.48 414.445)" style="fill:#000"/>
<use x="216.083" y="88.26" xlink:href="#a" transform="matrix(.42333 0 0 .42333 18.85 370.611)" style="stroke-width:.833333"/>
<use x="228.963" y="88.26" xlink:href="#b" transform="matrix(.42333 0 0 .42333 49.556 369.556)" style="stroke-width:.833333"/>
</g>
</svg>
