<svg width="175.601" height="111.813" viewBox="0 0 46.461 29.584" xml:space="preserve" xmlns="http://www.w3.org/2000/svg">
<g transform="translate(-109.671 -404.68)">
<path d="m154.556 428.962 1.577-3.423-1.248.506v-6.807h-.688v6.8l-1.248-.5z" color="#000" fill="red" style="text-indent:0;text-decoration-line:none;text-transform:none;stroke-width:.264583"/>
<path d="M155.787 415.172c.02-.076.02-.105.02-.124 0-.152-.124-.21-.224-.21a.32.32 0 0 0-.243.115c-.067-.071-.224-.195-.505-.195-.843 0-1.338.752-1.338 1.376 0 .562.424.776.833.776.248 0 .438-.095.524-.147a9.93 9.93 0 0 1-.09.357c-.034.138-.067.28-.234.414-.2.167-.357.167-.486.167-.114 0-.2 0-.323-.02a.368.368 0 0 0 .147-.275c0-.105-.08-.22-.238-.22a.348.348 0 0 0-.338.353c0 .314.419.333.757.333.429 0 1.086-.1 1.229-.671zm-.833 1.2c-.019.067-.019.086-.076.138-.253.229-.476.229-.52.229-.185 0-.323-.105-.323-.357 0-.229.157-.8.228-.977.167-.41.439-.476.582-.476.295 0 .4.234.4.267 0 .01 0 .019-.015.071z" fill="red"/>
<path d="m147.896 408.943-8.83 18.576-18.933-4.563-8.178-12.89" color="#000" fill="none" stroke="#000" stroke-width=".265" style="isolation:auto;mix-blend-mode:normal;shape-rendering:auto"/>
<circle transform="rotate(139.851)" cx="180.886" cy="-400.754" r="2.504" color="#000" fill="#dcdcdc" stroke="#555" stroke-width=".529" style="isolation:auto;mix-blend-mode:normal;shape-rendering:auto"/>
<circle transform="rotate(139.851)" cx="169.357" cy="-416.45" r="3.421" color="#000" fill="#dcdcdc" stroke="#555" stroke-width=".529" style="isolation:auto;mix-blend-mode:normal;shape-rendering:auto"/>
<path d="M141.906 416.736c.251 0 .41.184.41.517 0 .397-.225.515-.394.515-.174 0-.412-.064-.524-.232.115 0 .194-.073.194-.178a.168.168 0 0 0-.175-.175c-.085 0-.174.054-.174.181 0 .302.324.499.686.499.422 0 .717-.292.717-.61 0-.263-.21-.505-.533-.574.25-.09.438-.305.438-.56 0-.253-.286-.434-.616-.434-.34 0-.597.184-.597.425 0 .118.08.169.162.169.098 0 .162-.07.162-.162 0-.118-.102-.162-.172-.166.134-.174.378-.184.435-.184.083 0 .324.026.324.353a.612.612 0 0 1-.136.406c-.095.099-.168.105-.362.118-.06.003-.086.006-.086.047 0 .045.029.045.083.045z"/>
<circle cx="147.896" cy="408.943" r=".661" color="#000"/>
<circle cx="111.955" cy="410.065" r=".661" color="#000"/>
<path d="M117.857 412.783c.005-.02.014-.048.014-.072 0-.047-.048-.047-.057-.047-.005 0-.176.014-.262.023-.081.005-.152.015-.238.02-.114.009-.148.014-.148.1 0 .047.048.047.095.047.243 0 .243.043.243.09 0 .02 0 .03-.023.115l-.591 2.362a.538.538 0 0 0-.024.167c0 .238.176.428.42.428.156 0 .261-.104.337-.252.081-.157.148-.457.148-.476 0-.024-.019-.043-.048-.043-.042 0-.047.024-.066.095-.086.329-.172.581-.362.581-.143 0-.143-.152-.143-.219 0-.02 0-.12.033-.252zM129.627 420.466c.005-.019.015-.047.015-.071 0-.048-.048-.048-.057-.048-.005 0-.177.015-.262.024-.081.005-.153.014-.238.02-.115.009-.148.013-.148.1 0 .047.048.047.095.047.243 0 .243.043.243.09 0 .02 0 .029-.024.115l-.59 2.362a.538.538 0 0 0-.024.166c0 .239.176.43.419.43.157 0 .262-.106.338-.253.081-.157.148-.458.148-.477 0-.023-.02-.042-.048-.042-.043 0-.047.023-.067.095-.085.328-.171.58-.361.58-.143 0-.143-.152-.143-.218 0-.02 0-.12.033-.253zM140.924 413.896c.005-.02.014-.048.014-.072 0-.047-.048-.047-.057-.047-.005 0-.176.014-.262.023-.08.005-.152.015-.238.02-.114.009-.148.014-.148.1 0 .047.048.047.096.047.242 0 .242.043.242.09 0 .02 0 .03-.023.115l-.591 2.362a.538.538 0 0 0-.024.167c0 .238.176.428.42.428.156 0 .261-.104.337-.252.081-.157.148-.457.148-.476 0-.024-.019-.043-.048-.043-.042 0-.047.024-.066.095-.086.329-.172.581-.362.581-.143 0-.143-.152-.143-.219 0-.019 0-.119.033-.252zM111.91 406.446c.028-.12.076-.31.076-.353 0-.152-.124-.21-.224-.21a.324.324 0 0 0-.243.12.668.668 0 0 0-.505-.2c-.828 0-1.343.752-1.343 1.405 0 .586.439.786.834.786.338 0 .586-.186.662-.258.18.258.495.258.548.258.176 0 .314-.1.414-.272.119-.19.18-.448.18-.471 0-.067-.07-.067-.113-.067-.053 0-.072 0-.096.024-.01.01-.01.019-.038.138-.095.38-.205.476-.324.476-.052 0-.11-.019-.11-.176 0-.081.02-.157.067-.348.034-.133.081-.324.105-.428zm-.79 1.067c-.139.162-.363.31-.591.31-.296 0-.32-.258-.32-.363 0-.247.163-.833.239-1.019.147-.348.38-.467.576-.467.281 0 .395.224.395.277l-.01.066ZM148.988 405.323c.029-.119.076-.31.076-.352 0-.153-.124-.21-.224-.21a.324.324 0 0 0-.243.12.668.668 0 0 0-.504-.2c-.829 0-1.343.752-1.343 1.404 0 .586.438.786.833.786.338 0 .586-.186.662-.257.181.257.495.257.548.257.176 0 .314-.1.414-.271.12-.191.181-.448.181-.472 0-.067-.071-.067-.114-.067-.053 0-.072 0-.096.024-.009.01-.009.02-.038.138-.095.381-.204.477-.323.477-.053 0-.11-.02-.11-.177 0-.08.019-.157.067-.347.033-.134.08-.324.104-.429zm-.79 1.067c-.139.162-.363.31-.591.31-.295 0-.32-.258-.32-.362 0-.248.163-.834.239-1.02.148-.347.38-.466.576-.466.281 0 .395.224.395.276l-.01.067ZM115.703 425.405a.356.356 0 0 0-.257.328c0 .105.081.22.238.22.167 0 .343-.139.343-.372 0-.252-.252-.42-.543-.42-.271 0-.447.206-.51.291-.118-.2-.385-.29-.656-.29-.6 0-.924.586-.924.743 0 .067.071.067.114.067.057 0 .09 0 .11-.062.138-.434.48-.577.676-.577.18 0 .266.086.266.238 0 .091-.066.353-.11.524l-.161.653c-.072.29-.243.433-.405.433-.024 0-.133 0-.228-.071a.356.356 0 0 0 .257-.329c0-.105-.081-.219-.238-.219-.167 0-.343.138-.343.372 0 .252.252.419.543.419.271 0 .447-.205.51-.29.118.2.385.29.656.29.6 0 .924-.586.924-.743 0-.067-.071-.067-.114-.067-.057 0-.09 0-.11.062-.138.433-.48.576-.676.576-.18 0-.266-.086-.266-.238 0-.1.061-.352.104-.529.034-.123.143-.571.167-.647.071-.286.238-.434.405-.434.024 0 .133 0 .228.072zM144.162 431.64a.356.356 0 0 0-.257.329c0 .104.08.219.238.219.166 0 .343-.138.343-.372 0-.252-.253-.419-.543-.419-.272 0-.448.205-.51.29-.119-.2-.386-.29-.657-.29-.6 0-.924.586-.924.743 0 .067.071.067.114.067.057 0 .09 0 .11-.062.138-.434.48-.576.676-.576.181 0 .267.085.267.238 0 .09-.067.352-.11.524l-.162.652c-.071.29-.243.433-.405.433-.023 0-.133 0-.228-.071a.356.356 0 0 0 .257-.329c0-.104-.081-.219-.238-.219-.167 0-.343.138-.343.372 0 .252.252.419.543.419.271 0 .448-.205.51-.29.119.2.385.29.657.29.6 0 .924-.586.924-.743 0-.067-.072-.067-.115-.067-.057 0-.09 0-.11.062-.137.434-.48.576-.675.576-.181 0-.267-.085-.267-.238 0-.1.062-.352.105-.528.033-.124.142-.572.166-.648.072-.286.238-.433.405-.433.024 0 .133 0 .229.071zM117.287 426.006c0-.086-.007-.089-.093-.089-.13.127-.298.203-.6.203v.105c.086 0 .258 0 .442-.085v1.628c0 .118-.01.156-.311.156h-.112v.105c.13-.01.404-.01.547-.01.142 0 .419 0 .549.01v-.105h-.111c-.302 0-.311-.038-.311-.156zM119.033 414.66c0-.085-.006-.088-.092-.088-.13.127-.298.203-.6.203v.105c.086 0 .257 0 .441-.086v1.629c0 .117-.01.155-.31.155h-.112v.105c.13-.01.403-.01.546-.01.143 0 .42 0 .55.01v-.105h-.112c-.301 0-.31-.038-.31-.155zM113.468 406.647c0-.085-.006-.088-.092-.088-.13.127-.299.203-.6.203v.105c.086 0 .257 0 .441-.086v1.629c0 .117-.01.155-.311.155h-.111v.105c.13-.01.403-.01.546-.01.143 0 .419 0 .55.01v-.105h-.112c-.302 0-.311-.038-.311-.155zM130.702 423.72c.051-.048.184-.153.235-.198.197-.18.384-.355.384-.644 0-.378-.317-.623-.714-.623-.381 0-.632.29-.632.572 0 .156.124.178.168.178a.163.163 0 0 0 .166-.169c0-.165-.16-.165-.197-.165a.49.49 0 0 1 .46-.31c.295 0 .448.25.448.517 0 .33-.232.571-.607.955l-.4.413c-.038.035-.038.041-.038.12h1.254l.092-.567h-.098c-.01.063-.035.222-.073.282-.02.025-.26.025-.311.025h-.565zM150.445 406.9c.05-.048.184-.153.235-.197.196-.181.384-.356.384-.645 0-.378-.318-.622-.715-.622-.38 0-.631.289-.631.571 0 .156.123.178.168.178a.163.163 0 0 0 .165-.168c0-.165-.159-.165-.197-.165a.49.49 0 0 1 .46-.311c.296 0 .448.25.448.517 0 .33-.232.572-.606.956l-.4.413c-.038.035-.038.04-.038.12h1.254l.092-.568h-.099c-.01.063-.035.222-.073.283-.019.025-.26.025-.31.025h-.566zM145.643 433.616c.05-.047.184-.152.235-.196.197-.181.384-.356.384-.645 0-.378-.318-.622-.714-.622-.381 0-.632.289-.632.571 0 .156.124.178.168.178a.163.163 0 0 0 .165-.168c0-.165-.159-.165-.197-.165a.49.49 0 0 1 .46-.311c.296 0 .448.25.448.517 0 .33-.231.572-.606.956l-.4.412c-.038.035-.038.042-.038.121h1.254l.092-.568h-.099c-.009.063-.034.222-.073.282-.019.026-.26.026-.31.026h-.566z"/>
</g>
</svg>
