<svg width="168.525" height="97.936" viewBox="0 0 44.589 25.912" xml:space="preserve" xmlns="http://www.w3.org/2000/svg">
<defs>
<marker id="a" overflow="visible" orient="auto">
<path d="m-4 0-2 2 7-2-7-2Z" fill="red" fill-rule="evenodd" stroke="red" stroke-width=".4pt"/>
</marker>
</defs>
<g transform="translate(-51.488 -445.43)">
<path d="M95.956 459.01H51.609v12.333h44.347z" color="#000" fill="#f0f0f0" style="isolation:auto;mix-blend-mode:normal;stroke-width:.264585"/>
<path d="M51.609 459.01h44.347" color="#000" fill="none" stroke="#bebebe" stroke-linejoin="round" stroke-miterlimit="100" stroke-width=".794" style="isolation:auto;mix-blend-mode:normal"/>
<path d="M73.782 461.984v-12.125" fill="none" marker-end="url(#a)" stroke="red" stroke-width=".529" style="marker-end:url(#a)"/>
<path d="M77.926 447.265h.592c.096 0 .188 0 .188-.147 0-.091-.086-.091-.173-.091h-.566l.167-.916c.015-.091.015-.101.065-.147.066-.06.122-.06.147-.06.071 0 .117.01.177.035a.384.384 0 0 0-.212.329c0 .152.121.232.248.232a.375.375 0 0 0 .364-.374c0-.258-.263-.405-.577-.405a.806.806 0 0 0-.698.38c-.117.187-.147.384-.243.926h-.496c-.096 0-.182 0-.182.147 0 .09.086.09.167.09h.465l-.384 2.157c-.01.045-.066.364-.091.435-.01.025-.091.258-.253.258a.38.38 0 0 1-.173-.03.386.386 0 0 0 .223-.334c0-.152-.121-.233-.248-.233a.375.375 0 0 0-.364.374c0 .274.288.405.551.405.38 0 .643-.374.684-.44.217-.334.334-.977.349-1.063zM80.567 445.597a.163.163 0 0 0-.1.156.16.16 0 0 0 .167.166c.096 0 .17-.06.17-.173 0-.316-.492-.316-.591-.316-.532 0-.861.408-.861.815 0 .447.379.8.843.8.528 0 .652-.417.652-.46 0-.042-.046-.042-.06-.042-.046 0-.05.01-.068.06a.487.487 0 0 1-.481.33c-.245 0-.564-.181-.564-.691 0-.45.22-.698.55-.698.045 0 .215 0 .343.053z" fill="red"/>
<path d="M51.609 458.998c5.97 1.425 13.91 2.221 22.173 2.225 8.258-.001 16.198-.795 22.174-2.216v12.336H51.609Z" fill="#dcdcdc" style="stroke-width:.264585"/>
<path d="M51.609 458.998c5.97 1.912 18 2.986 22.173 2.986 4.173 0 16.198-1.067 22.174-2.975" fill="none" stroke="#555" stroke-linejoin="round" stroke-miterlimit="100" stroke-width=".794"/>
<circle cx="73.782" cy="461.984" r="1.323" color="#000"/>
</g>
</svg>
