<svg width="105.702" height="97.016" viewBox="0 0 105.703 97.017" xmlns="http://www.w3.org/2000/svg">
<path d="m99.243 61.834 5.96-12.939-4.717 1.914V25.082h-2.6V50.78l-4.717-1.886z" color="#000" fill="red" style="text-decoration-line:none;text-indent:0;text-transform:none"/>
<path d="M103.898 9.714c.072-.288.072-.396.072-.468 0-.576-.468-.792-.846-.792-.36 0-.684.162-.918.432-.252-.27-.846-.738-1.908-.738-3.186 0-5.058 2.844-5.058 5.202 0 2.124 1.602 2.934 3.15 2.934.936 0 1.656-.36 1.98-.558-.108.45-.216.9-.342 1.35-.126.522-.252 1.062-.882 1.566-.756.63-1.35.63-1.836.63-.432 0-.756 0-1.224-.072.522-.378.558-.972.558-1.044 0-.396-.306-.828-.9-.828s-1.278.504-1.278 1.332c0 1.188 1.584 1.26 2.862 1.26 1.62 0 4.104-.378 4.644-2.538zm-3.15 4.536c-.072.252-.072.324-.288.522-.954.864-1.8.864-1.962.864-.702 0-1.224-.396-1.224-1.35 0-.864.594-3.024.864-3.69.63-1.548 1.656-1.8 2.196-1.8 1.116 0 1.512.882 1.512 1.008 0 .036 0 .072-.054.27z" fill="red"/>
<g fill="none" color="#000">
<path d="M45.384 47.832c18.245-20.467 32.68-44.3 21.174-46.69-11.503-2.387-7.755 25.204.828 51.235" stroke="green"/>
<path d="M67.386 52.377c8.601 26.086 22.06 50.606 29.895 41.82 7.826-8.773-17.99-19.333-44.85-24.913" stroke="#0000f9"/>
<path d="M52.432 69.285c-26.874-5.583-54.793-6.178-51.105 4.991 3.69 11.175 25.784-5.946 44.057-26.444" stroke="red"/>
</g>
<circle transform="rotate(-26.402)" cx="9.768" cy="66.626" color="#000" fill="#5e5bff" r="5"/>
</svg>
