<svg width="171.414" height="109.695" xmlns="http://www.w3.org/2000/svg" xmlns:xlink="http://www.w3.org/1999/xlink">
<defs>
<symbol id="h">
<path d="M156.714 99.43c0-.345 0-.36-.3-.36-.36.405-1.11.96-2.655.96v.435c.345 0 1.095 0 1.92-.39v7.815c0 .54-.045.72-1.365.72h-.465v.435c.405-.03 1.86-.03 2.355-.03s1.935 0 2.34.03v-.435h-.465c-1.32 0-1.365-.18-1.365-.72z" stroke-width="1.25"/>
</symbol>
<symbol id="a">
<path d="M168.574 88.422c.192-.18.696-.576.888-.744.744-.684 1.452-1.344 1.452-2.436 0-1.428-1.2-2.352-2.7-2.352-1.44 0-2.388 1.092-2.388 2.16 0 .588.468.672.636.672.252 0 .624-.18.624-.636 0-.624-.6-.624-.744-.624.348-.876 1.152-1.176 1.74-1.176 1.116 0 1.692.948 1.692 1.956 0 1.248-.876 2.16-2.292 3.612l-1.512 1.56c-.144.132-.144.156-.144.456h4.74l.348-2.148h-.372c-.036.24-.132.84-.276 1.068-.072.096-.984.096-1.176.096h-2.136z" stroke-width="1.5"/>
</symbol>
<symbol id="i">
<path d="M44.15 79.143c0-1.245-.075-2.46-.615-3.6-.615-1.245-1.695-1.575-2.43-1.575-.87 0-1.935.435-2.49 1.68-.42.945-.57 1.875-.57 3.495 0 1.455.105 2.55.645 3.615a2.667 2.667 0 0 0 2.4 1.5c1.305 0 2.055-.78 2.49-1.65.54-1.125.57-2.595.57-3.465zm-3.06 4.815c-.48 0-1.455-.27-1.74-1.905-.165-.9-.165-2.04-.165-3.09 0-1.23 0-2.34.24-3.225.255-1.005 1.02-1.47 1.665-1.47.57 0 1.44.345 1.725 1.635.195.855.195 2.04.195 3.06 0 1.005 0 2.145-.165 3.06-.285 1.65-1.23 1.935-1.755 1.935z" stroke-width="1.25"/>
</symbol>
<symbol id="b">
<path d="M17.066 76.398c0-1.53-.48-3.015-1.71-3.015-2.1 0-4.335 4.395-4.335 7.695 0 .69.15 3.015 1.725 3.015 2.04 0 4.32-4.29 4.32-7.695zm-4.545 2.115c.225-.885.54-2.145 1.14-3.21.495-.9 1.02-1.62 1.68-1.62.495 0 .825.42.825 1.86 0 .54-.045 1.29-.48 2.97zm3.06.45c-.375 1.47-.69 2.415-1.23 3.36-.435.765-.96 1.47-1.59 1.47-.465 0-.84-.36-.84-1.845 0-.975.24-1.995.48-2.985zM31.965 79.083c.21 0 .48 0 .48-.27 0-.285-.255-.285-.48-.285H23.13c-.21 0-.48 0-.48.27 0 .285.255.285.48.285zm0 2.79c.21 0 .48 0 .48-.27 0-.285-.255-.285-.48-.285H23.13c-.21 0-.48 0-.48.27 0 .285.255.285.48.285z" stroke-width="1.25"/>
</symbol>
<symbol id="c">
<path d="M1.706 65.533c-.072.252-.09.27-.108.288-.108.036-.306.036-.468.036-.306 0-.63 0-.63.504 0 .198.144.342.342.342.522 0 1.116-.054 1.656-.054.63 0 1.314.054 1.926.054.126 0 .468 0 .468-.522 0-.306-.288-.324-.468-.324-.252 0-.54 0-.774-.018l.774-3.132c.27.252.864.648 1.818.648 3.132 0 5.076-2.844 5.076-5.31 0-2.214-1.656-2.97-3.15-2.97-1.278 0-2.214.702-2.502.972-.684-.972-1.872-.972-2.07-.972-.666 0-1.188.378-1.566 1.026-.45.72-.684 1.692-.684 1.782 0 .252.27.252.432.252.198 0 .27 0 .36-.09.036-.036.036-.072.144-.522.36-1.44.774-1.8 1.224-1.8.198 0 .414.072.414.666 0 .27-.036.522-.108.774zm4.14-8.64c.522-.612 1.368-1.17 2.232-1.17 1.116 0 1.206.972 1.206 1.368 0 .936-.612 3.15-.9 3.852-.558 1.314-1.44 1.764-2.178 1.764-1.062 0-1.494-.846-1.494-1.044l.036-.252z" stroke-width="1.5"/>
</symbol>
<symbol id="d">
<path d="M15.509 1.13c.072-.252.072-.288.072-.306 0-.234-.198-.324-.396-.324-.072 0-.09 0-.126.018l-2.322.108c-.252.018-.576.036-.576.54 0 .324.324.324.468.324.198 0 .522 0 .756.036l-2.592 10.386a3.322 3.322 0 0 0-.072.414c0 .432.342.81.864.81.108 0 .918 0 1.17-1.008l1.08-4.266c.09-.342.09-.378.36-.738.288-.396 1.188-1.62 2.682-1.62.468 0 .9.18.9 1.062 0 1.044-.792 3.15-1.134 4.032-.198.486-.252.612-.252.918 0 1.044 1.044 1.62 2.034 1.62 1.908 0 2.808-2.448 2.808-2.808 0-.252-.27-.252-.432-.252-.216 0-.342 0-.414.234-.576 1.998-1.566 2.178-1.854 2.178-.126 0-.306 0-.306-.378 0-.396.198-.882.306-1.17.342-.882 1.17-2.988 1.17-3.996 0-1.656-1.386-2.088-2.682-2.088-.396 0-1.494 0-2.718 1.116z" stroke-width="1.5"/>
</symbol>
<symbol id="e">
<path d="M15.354 60.018c0-.324-.023-.336-.347-.336-.493.48-1.129.768-2.269.768v.396c.324 0 .972 0 1.668-.324v6.156c0 .444-.036.588-1.176.588h-.42v.396c.492-.036 1.524-.036 2.064-.036s1.584 0 2.076.036v-.396h-.42c-1.14 0-1.176-.144-1.176-.588z" stroke-width="1.5"/>
</symbol>
<marker id="g" overflow="visible" orient="auto">
<path d="M1.96 0a2 2 0 1 1-4.001-.001A2 2 0 0 1 1.96 0z" fill="red" fill-rule="evenodd" stroke="red" stroke-width=".4pt"/>
</marker>
<marker id="f" overflow="visible" orient="auto">
<path d="M1.96 0a2 2 0 1 1-4.001-.001A2 2 0 0 1 1.96 0z" fill="red" fill-rule="evenodd" stroke="red" stroke-width=".4pt"/>
</marker>
</defs>
<use transform="translate(-10.502 -53.909)" width="100%" height="100%" xlink:href="#a"/>
<use transform="translate(114.964 25.102)" width="100%" height="100%" xlink:href="#b"/>
<use transform="translate(153.604 23.209)" width="100%" height="100%" xlink:href="#c"/>
<use transform="translate(132.85 19.519)" width="100%" height="100%" xlink:href="#d"/>
<use transform="translate(10.251 -50.22)" width="100%" height="100%" xlink:href="#e"/>
<g fill="none" stroke="red" color="#000">
<path d="M146.101 88.999C132.684 29.867 36.049 10.514 23.009 63.311" stroke-width="1.5"/>
<path d="m132.684 29.867 13.417 59.132" marker-end="url(#f)" marker-start="url(#g)" stroke-dasharray="1.99999988, 0.99999994" style="isolation:auto;mix-blend-mode:normal"/>
<path d="M36.05 10.514 23.007 63.311" marker-end="url(#f)" marker-start="url(#g)" stroke-dasharray="1.99999988, 0.99999994" style="isolation:auto;mix-blend-mode:normal"/>
</g>
<use xlink:href="#h"/>
<use width="100%" height="100%" xlink:href="#a"/>
<use xlink:href="#i"/>
<use width="100%" height="100%" xlink:href="#b"/>
<use width="100%" height="100%" xlink:href="#c"/>
<use width="100%" height="100%" xlink:href="#d"/>
<use width="100%" height="100%" xlink:href="#e"/>
</svg>
