<svg width="172.769" height="126.946" xmlns="http://www.w3.org/2000/svg" xmlns:xlink="http://www.w3.org/1999/xlink">
<defs>
<symbol id="c">
<path d="M21.578 91.123c.018-.072.054-.18.054-.27 0-.18-.18-.18-.216-.18-.018 0-.666.054-.99.09-.306.018-.576.054-.9.072-.432.036-.558.054-.558.378 0 .18.18.18.36.18.918 0 .918.162.918.342 0 .072 0 .108-.09.432l-2.232 8.928c-.054.198-.09.342-.09.63 0 .9.666 1.62 1.584 1.62.594 0 .99-.396 1.278-.954.306-.594.558-1.728.558-1.8 0-.09-.072-.162-.18-.162-.162 0-.18.09-.252.36-.324 1.242-.648 2.196-1.368 2.196-.54 0-.54-.576-.54-.828 0-.072 0-.45.126-.954z" stroke-width="1.5"/>
</symbol>
<symbol id="d">
<path d="M60.222 94.111c0-1.836-.576-3.618-2.052-3.618-2.52 0-5.202 5.274-5.202 9.234 0 .828.18 3.618 2.07 3.618 2.449 0 5.185-5.148 5.185-9.234zm-5.454 2.538c.27-1.062.648-2.574 1.368-3.852.594-1.08 1.224-1.944 2.016-1.944.594 0 .99.504.99 2.232 0 .648-.054 1.548-.576 3.564zm3.672.54c-.45 1.764-.828 2.898-1.476 4.032-.522.918-1.152 1.764-1.908 1.764-.558 0-1.008-.432-1.008-2.214 0-1.17.288-2.394.576-3.582z" stroke-width="1.5"/>
</symbol>
<marker id="b" overflow="visible" orient="auto">
<path d="m-10 0-4 4L0 0l-14-4z" fill-rule="evenodd" stroke="#000" stroke-width=".8pt"/>
</marker>
<marker id="a" overflow="visible" orient="auto">
<path d="m-10 0-4 4L0 0l-14-4z" fill-rule="evenodd" stroke="#000" stroke-width=".8pt"/>
</marker>
</defs>
<path d="M65.102 96.419h57.063V27.505" fill="none" stroke="#000" stroke-dasharray="2, 2" stroke-width=".5"/>
<path d="M122.164 96.419 64.879 27.848" fill="none" stroke="#000" stroke-linecap="round"/>
<path d="m166.309 98.4 5.96-12.94-4.717 1.915V61.647h-2.6v25.699l-4.716-1.885z" color="#000" fill="red" style="text-decoration-line:none;text-indent:0;text-transform:none"/>
<path d="M128.977 110.119c.036-.108.486-1.008 1.152-1.584.468-.432 1.08-.72 1.782-.72.72 0 .972.54.972 1.26 0 .108 0 .468-.216 1.314l-.45 1.854c-.144.54-.486 1.872-.522 2.07-.072.27-.18.738-.18.81 0 .252.198.45.468.45.54 0 .63-.414.792-1.062l1.08-4.302c.036-.144.972-2.394 2.952-2.394.72 0 .972.54.972 1.26 0 1.008-.702 2.97-1.098 4.05-.162.432-.252.666-.252.99 0 .81.558 1.458 1.422 1.458 1.674 0 2.304-2.646 2.304-2.754 0-.09-.072-.162-.18-.162-.162 0-.18.054-.27.36-.414 1.44-1.08 2.196-1.8 2.196-.18 0-.468-.018-.468-.594 0-.468.216-1.044.288-1.242.324-.864 1.134-2.988 1.134-4.032 0-1.08-.63-1.89-1.998-1.89-1.206 0-2.178.684-2.898 1.746-.054-.972-.648-1.746-1.998-1.746-1.602 0-2.448 1.134-2.772 1.584-.054-1.026-.792-1.584-1.584-1.584-.522 0-.936.252-1.278.936-.324.648-.576 1.746-.576 1.818s.072.162.198.162c.144 0 .162-.018.27-.432.27-1.062.612-2.124 1.332-2.124.414 0 .558.288.558.828 0 .396-.18 1.098-.306 1.656l-.504 1.944c-.072.342-.27 1.152-.36 1.476-.126.468-.324 1.314-.324 1.404 0 .252.198.45.468.45a.69.69 0 0 0 .612-.378c.036-.09.198-.72.288-1.08l.396-1.62z"/>
<path d="M170.965 46.279c.072-.288.072-.396.072-.468 0-.576-.468-.792-.846-.792-.36 0-.684.162-.918.432-.252-.27-.846-.738-1.908-.738-3.186 0-5.058 2.844-5.058 5.202 0 2.124 1.602 2.934 3.15 2.934.936 0 1.656-.36 1.98-.558-.108.45-.216.9-.342 1.35-.126.522-.252 1.062-.882 1.566-.756.63-1.35.63-1.836.63-.432 0-.756 0-1.224-.072.522-.378.558-.972.558-1.044 0-.396-.306-.828-.9-.828s-1.278.504-1.278 1.332c0 1.188 1.584 1.26 2.862 1.26 1.62 0 4.104-.378 4.644-2.538zm-3.15 4.536c-.072.252-.072.324-.288.522-.954.864-1.8.864-1.962.864-.702 0-1.224-.396-1.224-1.35 0-.864.594-3.024.864-3.69.63-1.548 1.656-1.8 2.196-1.8 1.116 0 1.512.882 1.512 1.008 0 .036 0 .072-.054.27z" fill="red"/>
<path d="M81.813 48.317a26.058 26.058 0 0 1-17.033 5.96" color="#000" fill="none" stroke="#000" stroke-width=".5"/>
<g stroke-width="1.5">
<path d="M10.868 99.025c.306 0 .63 0 .63-.36s-.324-.36-.63-.36H1.13c-.306 0-.63 0-.63.36s.324.36.63.36zM32.168 96.505c-.216 0-.882 0-.882.738 0 .432.306.738.738.738.414 0 .756-.252.756-.774 0-1.206-1.26-2.07-2.718-2.07-2.106 0-3.78 1.872-3.78 4.14 0 2.304 1.728 4.068 3.762 4.068 2.376 0 2.916-2.16 2.916-2.322s-.126-.162-.18-.162c-.162 0-.18.054-.234.27-.396 1.278-1.368 1.818-2.34 1.818-1.098 0-2.556-.954-2.556-3.69 0-2.988 1.53-3.726 2.43-3.726.684 0 1.674.27 2.088.972zM41.747 99.313c0-2.322-1.764-4.176-3.852-4.176-2.16 0-3.87 1.908-3.87 4.176 0 2.304 1.8 4.032 3.852 4.032 2.124 0 3.87-1.764 3.87-4.032zm-3.852 3.636c-.666 0-1.476-.288-1.998-1.17-.486-.81-.504-1.872-.504-2.628 0-.684 0-1.782.558-2.592a2.306 2.306 0 0 1 1.926-1.062c.702 0 1.458.324 1.944 1.026.558.828.558 1.962.558 2.628 0 .63 0 1.746-.468 2.592-.504.864-1.332 1.206-2.016 1.206zM48.202 95.551c0-.324 0-.414-.18-.414-.144 0-.486.396-.612.558-.558-.45-1.116-.558-1.692-.558-2.179 0-2.827 1.188-2.827 2.178 0 .198 0 .828.685 1.458.575.504 1.187.63 2.015.792.99.198 1.224.252 1.674.612.324.27.558.666.558 1.17 0 .774-.45 1.638-2.034 1.638-1.188 0-2.052-.684-2.448-2.484-.072-.324-.072-.342-.09-.36-.036-.072-.108-.072-.162-.072-.198 0-.198.09-.198.414v2.448c0 .324 0 .414.18.414.09 0 .108-.018.414-.396.09-.126.09-.162.36-.45.684.846 1.656.846 1.962.846 1.89 0 2.826-1.044 2.826-2.466 0-.972-.594-1.548-.756-1.71-.648-.558-1.134-.666-2.322-.882-.54-.108-1.854-.36-1.854-1.44 0-.558.378-1.386 1.998-1.386 1.962 0 2.07 1.674 2.106 2.232.018.144.144.144.198.144.198 0 .198-.09.198-.414zM118.529 15.495c0-.324 0-.414-.18-.414-.144 0-.486.396-.612.558-.558-.45-1.116-.558-1.692-.558-2.178 0-2.826 1.188-2.826 2.178 0 .198 0 .828.684 1.458.576.504 1.188.63 2.016.792.99.198 1.224.252 1.674.612.324.27.558.666.558 1.17 0 .774-.45 1.638-2.034 1.638-1.188 0-2.052-.684-2.448-2.484-.072-.324-.072-.342-.09-.36-.036-.072-.108-.072-.162-.072-.198 0-.198.09-.198.414v2.448c0 .324 0 .414.18.414.09 0 .108-.018.414-.396.09-.126.09-.162.36-.45.684.846 1.656.846 1.962.846 1.89 0 2.826-1.044 2.826-2.466 0-.972-.594-1.548-.756-1.71-.648-.558-1.134-.666-2.322-.882-.54-.108-1.854-.36-1.854-1.44 0-.558.378-1.386 1.998-1.386 1.962 0 2.07 1.674 2.106 2.232.018.144.144.144.198.144.198 0 .198-.09.198-.414zM122.71 12.021a.883.883 0 0 0-.882-.882.864.864 0 0 0-.864.864c0 .54.432.882.864.882a.878.878 0 0 0 .882-.864zm-2.484 3.348v.522c1.152 0 1.314.108 1.314.99v4.896c0 .81-.198.81-1.368.81v.522c.504-.036 1.368-.036 1.89-.036.198 0 1.242 0 1.854.036v-.522c-1.17 0-1.242-.09-1.242-.792v-6.624zM132.484 18.735c0-1.674 0-2.178-.414-2.754-.522-.702-1.368-.81-1.98-.81-1.746 0-2.43 1.494-2.574 1.854h-.018v-1.854l-2.448.198v.522c1.224 0 1.368.126 1.368 1.008v4.878c0 .81-.198.81-1.368.81v.522c.468-.036 1.44-.036 1.944-.036.522 0 1.494 0 1.962.036v-.522c-1.152 0-1.368 0-1.368-.81v-3.348c0-1.89 1.242-2.898 2.358-2.898s1.368.918 1.368 2.016v4.23c0 .81-.198.81-1.368.81v.522c.468-.036 1.44-.036 1.944-.036.522 0 1.494 0 1.962.036v-.522c-.9 0-1.35 0-1.368-.54z"/>
</g>
<path d="M64.879 125.553V1.168" fill="none" marker-end="url(#a)" stroke="#000" stroke-width=".5"/>
<circle transform="rotate(-26.402)" cx="66.548" cy="140.684" r="7.5" color="#000" fill="#5e5bff"/>
<path d="M34.701 27.848h124.385" fill="none" marker-end="url(#b)" stroke="#000" stroke-width=".5"/>
<use width="100%" height="100%" xlink:href="#c"/>
<use transform="translate(80.042 -40.341)" width="100%" height="100%" xlink:href="#c"/>
<use transform="translate(86.975 -80.056)" width="100%" height="100%" xlink:href="#c"/>
<use width="100%" height="100%" xlink:href="#d"/>
<use transform="translate(17.97 -35.202)" width="100%" height="100%" xlink:href="#d"/>
<use transform="translate(85.018 -80.056)" width="100%" height="100%" xlink:href="#d"/>
<path d="M59.573 15.915c0-3.06-2.124-4.644-5.238-4.644-5.562 0-8.478 4.77-8.478 8.37 0 3.15 2.25 4.59 5.256 4.59 5.526 0 8.46-4.608 8.46-8.316zm-8.28 7.56c-.594 0-1.422-.126-2.106-.828-.792-.792-.792-1.998-.792-2.412 0-1.134.54-4.5 2.016-6.354 1.206-1.476 2.7-1.89 3.744-1.89 1.494 0 2.97.81 2.97 3.096 0 1.17-.648 4.32-1.818 6.012-1.35 1.98-2.988 2.376-4.014 2.376z"/>
</svg>
