<svg width="178.246" height="60.721" xmlns="http://www.w3.org/2000/svg">
<defs>
<marker id="a" overflow="visible" orient="auto">
<path d="M.98 0a1 1 0 1 1-2 0 1 1 0 0 1 2 0z" fill="#545454" fill-rule="evenodd" stroke="#545454" stroke-width=".2pt"/>
</marker>
</defs>
<path d="M10.458 59.779c2.947-5.994 6.178-11.182 9.649-15.665 10.62-13.719 23.48-20.83 37.28-24.186 18.438-4.486 38.557-2.272 57.26-.172 20.28 2.278 38.896 4.424 51.902-2.248 4.04-2.072 7.54-4.996 10.379-9.03" fill="none" marker-mid="url(#a)" stroke="#545454" stroke-width="2"/>
<g stroke-width="1.333">
<path d="M9.314 35.225c.26 0 .536 0 .536-.306s-.276-.306-.536-.306H1.036c-.26 0-.536 0-.536.306s.275.306.536.306zM15.585 28.951c0-.367 0-.398-.351-.398-.95.98-2.296.98-2.786.98v.474c.307 0 1.21 0 2.005-.398v7.927c0 .55-.046.734-1.423.734h-.49v.475c.536-.046 1.867-.046 2.48-.046.611 0 1.943 0 2.478.046v-.475h-.49c-1.377 0-1.423-.168-1.423-.734zM44.456 3.637c0-1.01-.276-3.137-1.837-3.137-2.127 0-4.483 4.315-4.483 7.82 0 1.438.443 3.137 1.836 3.137 2.158 0 4.484-4.392 4.484-7.82zm-4.698 2.096c.26-.979.566-2.203 1.178-3.29.413-.75.98-1.606 1.668-1.606.75 0 .842.979.842 1.851 0 .75-.123 1.53-.49 3.045zm3.06.49c-.168.704-.49 2.005-1.07 3.107-.537 1.04-1.118 1.79-1.776 1.79-.505 0-.826-.444-.826-1.867 0-.643.091-1.53.49-3.03zM59.838 6.284c.23 0 .52 0 .52-.306s-.29-.306-.505-.306h-9.166c-.214 0-.505 0-.505.306s.29.306.52.306zm.015 2.969c.215 0 .505 0 .505-.306s-.29-.306-.52-.306h-9.136c-.23 0-.52 0-.52.306s.29.306.505.306zM72.473 6.391c0-1.224-.076-2.448-.612-3.58-.704-1.47-1.959-1.715-2.601-1.715-.919 0-2.036.398-2.663 1.821-.49 1.056-.566 2.25-.566 3.474 0 1.148.061 2.525.688 3.688a2.804 2.804 0 0 0 2.525 1.545c.827 0 1.99-.32 2.663-1.775.49-1.055.566-2.25.566-3.458zm-3.229 4.897c-.596 0-1.5-.383-1.775-1.852-.168-.918-.168-2.326-.168-3.229 0-.979 0-1.989.122-2.815.291-1.821 1.439-1.96 1.821-1.96.505 0 1.515.276 1.806 1.791.153.857.153 2.02.153 2.984 0 1.148 0 2.189-.168 3.168-.23 1.454-1.102 1.913-1.79 1.913zM114.703 3.956c0-.367 0-.398-.352-.398-.949.98-2.295.98-2.785.98v.474c.306 0 1.209 0 2.005-.398v7.927c0 .55-.046.734-1.424.734h-.49v.475c.536-.046 1.868-.046 2.48-.046s1.943 0 2.479.046v-.475h-.49c-1.377 0-1.423-.168-1.423-.734zM160.751 10.056l1.622-1.576c2.387-2.112 3.305-2.938 3.305-4.469 0-1.744-1.377-2.968-3.244-2.968-1.729 0-2.861 1.408-2.861 2.77 0 .856.765.856.81.856.26 0 .796-.183.796-.81 0-.398-.275-.796-.81-.796-.123 0-.154 0-.2.015.352-.995 1.179-1.56 2.066-1.56 1.393 0 2.05 1.239 2.05 2.494 0 1.224-.764 2.433-1.606 3.381l-2.938 3.275c-.168.169-.168.2-.168.566h5.677l.428-2.662h-.382c-.077.459-.184 1.132-.337 1.362-.107.122-1.117.122-1.454.122zM96.494 36.481a1.429 1.429 0 0 0-1.033 1.32c0 .42.325.88.957.88.67 0 1.377-.555 1.377-1.492 0-1.014-1.014-1.684-2.18-1.684-1.091 0-1.799.823-2.048 1.167-.478-.803-1.549-1.167-2.64-1.167-2.41 0-3.71 2.353-3.71 2.984 0 .268.287.268.459.268.23 0 .363 0 .44-.248.555-1.741 1.932-2.315 2.716-2.315.727 0 1.071.344 1.071.956 0 .364-.267 1.416-.44 2.105l-.65 2.62c-.287 1.167-.976 1.74-1.626 1.74-.096 0-.535 0-.918-.286a1.429 1.429 0 0 0 1.033-1.32c0-.42-.325-.88-.957-.88-.669 0-1.377.555-1.377 1.492 0 1.014 1.014 1.683 2.18 1.683 1.091 0 1.799-.822 2.048-1.166.478.803 1.549 1.166 2.64 1.166 2.41 0 3.71-2.352 3.71-2.984 0-.267-.287-.267-.459-.267-.23 0-.363 0-.44.248-.555 1.741-1.932 2.315-2.716 2.315-.727 0-1.071-.344-1.071-.957 0-.401.248-1.415.42-2.123.134-.497.574-2.295.67-2.601.287-1.148.956-1.74 1.626-1.74.096 0 .536 0 .918.286zM108.368 48.743c0-.057 0-.096-.325-.42-2.391-2.411-3.003-6.026-3.003-8.953 0-3.328.727-6.656 3.08-9.048.248-.23.248-.267.248-.325 0-.134-.076-.191-.191-.191-.192 0-1.913 1.3-3.042 3.73-.975 2.104-1.205 4.227-1.205 5.834 0 1.492.21 3.807 1.263 5.968 1.147 2.353 2.792 3.596 2.984 3.596.114 0 .191-.057.191-.191zM118.178 34.588c0-1.262-.344-3.921-2.295-3.921-2.66 0-5.605 5.394-5.605 9.774 0 1.798.555 3.922 2.295 3.922 2.698 0 5.605-5.49 5.605-9.775zm-5.872 2.62c.325-1.224.707-2.754 1.473-4.112.516-.937 1.224-2.008 2.084-2.008.938 0 1.053 1.224 1.053 2.314 0 .937-.153 1.913-.613 3.807zm3.825.613c-.21.88-.612 2.505-1.339 3.883-.67 1.3-1.396 2.238-2.219 2.238-.63 0-1.033-.555-1.033-2.334 0-.803.115-1.913.613-3.787zM124.48 39.37c0-1.492-.21-3.807-1.262-5.968-1.148-2.353-2.793-3.596-2.984-3.596-.115 0-.192.076-.192.191 0 .058 0 .096.364.44 1.874 1.894 2.965 4.935 2.965 8.933 0 3.27-.708 6.638-3.08 9.048-.249.23-.249.267-.249.325 0 .115.077.191.192.191.19 0 1.912-1.3 3.04-3.73.976-2.104 1.206-4.227 1.206-5.834z"/>
</g>
<circle transform="rotate(-26.402)" cx="76.075" cy="57.575" color="#000" fill="#5e5bff" r="7.5"/>
</svg>
