<svg width="169.185" height="53.318" viewBox="0 0 169.184 53.318" xmlns="http://www.w3.org/2000/svg">
<path d="M1.397 52.377c2.947-5.994 6.178-11.182 9.648-15.665 10.62-13.719 23.48-20.83 37.28-24.186 18.439-4.486 38.557-2.272 57.26-.172 20.28 2.278 38.897 4.424 51.903-2.248 4.04-2.072 7.54-4.996 10.379-9.03" fill="none" stroke="#545454" stroke-width="2"/>
<path d="M88.793 25.922a1.429 1.429 0 0 0-1.033 1.32c0 .421.325.88.956.88.67 0 1.378-.554 1.378-1.492 0-1.014-1.014-1.683-2.181-1.683-1.09 0-1.798.822-2.047 1.167-.478-.804-1.55-1.167-2.64-1.167-2.41 0-3.71 2.353-3.71 2.984 0 .268.287.268.459.268.23 0 .363 0 .44-.249.554-1.74 1.932-2.314 2.716-2.314.727 0 1.071.344 1.071.956 0 .363-.268 1.415-.44 2.104l-.65 2.62c-.287 1.167-.976 1.741-1.626 1.741-.096 0-.536 0-.918-.287a1.429 1.429 0 0 0 1.033-1.32c0-.42-.326-.88-.957-.88-.67 0-1.377.555-1.377 1.493 0 1.013 1.014 1.683 2.18 1.683 1.091 0 1.799-.823 2.047-1.167.479.804 1.55 1.167 2.64 1.167 2.41 0 3.711-2.353 3.711-2.984 0-.268-.287-.268-.46-.268-.229 0-.363 0-.44.249-.554 1.74-1.931 2.314-2.715 2.314-.727 0-1.071-.344-1.071-.956 0-.402.248-1.416.42-2.123.134-.498.574-2.296.67-2.602.287-1.147.956-1.74 1.626-1.74.095 0 .535 0 .918.287z"/>
<circle transform="rotate(-26.402)" cx="71.25" cy="46.916" r="7.5" color="#000" fill="#5e5bff"/>
</svg>
