<svg width="162.533" height="126.355" xmlns="http://www.w3.org/2000/svg" xmlns:xlink="http://www.w3.org/1999/xlink">
<defs>
<symbol id="b">
<path d="M49.226 43.387c.018-.072.054-.18.054-.27 0-.18-.18-.18-.216-.18-.018 0-.666.054-.99.09-.306.018-.576.054-.9.072-.432.036-.558.054-.558.378 0 .18.18.18.36.18.918 0 .918.162.918.342 0 .072 0 .108-.09.432l-2.232 8.928c-.054.198-.09.342-.09.63 0 .9.666 1.62 1.584 1.62.594 0 .99-.396 1.278-.954.306-.594.558-1.728.558-1.8 0-.09-.072-.162-.18-.162-.162 0-.18.09-.252.36-.324 1.242-.648 2.196-1.368 2.196-.54 0-.54-.576-.54-.828 0-.072 0-.45.126-.954z" stroke-width="1.5"/>
</symbol>
<symbol id="c">
<path d="M30.784 59.497c0-1.836-.576-3.618-2.052-3.618-2.52 0-5.202 5.274-5.202 9.234 0 .828.18 3.618 2.07 3.618 2.448 0 5.184-5.148 5.184-9.234zm-5.454 2.538c.27-1.062.648-2.574 1.368-3.852.594-1.08 1.224-1.944 2.016-1.944.594 0 .99.504.99 2.232 0 .648-.054 1.548-.576 3.564zm3.672.54c-.45 1.764-.828 2.898-1.476 4.032-.522.918-1.152 1.764-1.908 1.764-.558 0-1.008-.432-1.008-2.214 0-1.17.288-2.394.576-3.582z" stroke-width="1.5"/>
</symbol>
<symbol id="d">
<path d="M42.542 86.295c.036-.108.486-1.008 1.152-1.584.468-.432 1.08-.72 1.782-.72.72 0 .972.54.972 1.26 0 .108 0 .468-.216 1.314l-.45 1.854c-.144.54-.486 1.872-.522 2.07-.072.27-.18.738-.18.81 0 .252.198.45.468.45.54 0 .63-.414.792-1.062l1.08-4.302c.036-.144.972-2.394 2.952-2.394.72 0 .972.54.972 1.26 0 1.008-.702 2.97-1.098 4.05-.162.432-.252.666-.252.99 0 .81.558 1.458 1.422 1.458 1.674 0 2.304-2.646 2.304-2.754 0-.09-.072-.162-.18-.162-.162 0-.18.054-.27.36-.414 1.44-1.08 2.196-1.8 2.196-.18 0-.468-.018-.468-.594 0-.468.216-1.044.288-1.242.324-.864 1.134-2.988 1.134-4.032 0-1.08-.63-1.89-1.998-1.89-1.206 0-2.178.684-2.898 1.746-.054-.972-.648-1.746-1.998-1.746-1.602 0-2.448 1.134-2.772 1.584-.054-1.026-.792-1.584-1.584-1.584-.522 0-.936.252-1.278.936-.324.648-.576 1.746-.576 1.818s.072.162.198.162c.144 0 .162-.018.27-.432.27-1.062.612-2.124 1.332-2.124.414 0 .558.288.558.828 0 .396-.18 1.098-.306 1.656l-.504 1.944c-.072.342-.27 1.152-.36 1.476-.126.468-.324 1.314-.324 1.404 0 .252.198.45.468.45a.69.69 0 0 0 .612-.378c.036-.09.198-.72.288-1.08l.396-1.62z" stroke-width="1.5"/>
</symbol>
<symbol id="e">
<path d="M53.672 50.485c0-.324-.024-.336-.348-.336-.492.48-1.128.768-2.268.768v.396c.324 0 .972 0 1.668-.324v6.156c0 .444-.036.588-1.176.588h-.42v.396c.492-.036 1.524-.036 2.064-.036s1.584 0 2.076.036v-.396h-.42c-1.14 0-1.176-.144-1.176-.588z" stroke-width="1.5"/>
</symbol>
<symbol id="f">
<path d="M92.377 80.368c.192-.18.696-.576.888-.744.744-.684 1.452-1.344 1.452-2.436 0-1.428-1.2-2.352-2.7-2.352-1.44 0-2.388 1.092-2.388 2.16 0 .588.468.672.636.672.252 0 .624-.18.624-.636 0-.624-.6-.624-.744-.624.348-.876 1.152-1.176 1.74-1.176 1.116 0 1.692.948 1.692 1.956 0 1.248-.876 2.16-2.292 3.612l-1.512 1.56c-.144.132-.144.156-.144.456h4.74l.348-2.148h-.372c-.036.24-.132.84-.276 1.068-.072.096-.984.096-1.176.096h-2.136z" stroke-width="1.5"/>
</symbol>
<marker id="a" overflow="visible" orient="auto">
<path d="m-10 0-4 4L0 0l-14-4z" fill-rule="evenodd" stroke="#000" stroke-width=".8pt"/>
</marker>
</defs>
<path d="M71.55 117.206V71.551" fill="none" stroke="#000" stroke-dasharray="1.99999739, 1.99999739" stroke-linejoin="round" stroke-miterlimit="100000" stroke-width=".5"/>
<path d="M24.944 28.819 71.8 85.545l44.017 5.48" fill="none" stroke="#000" stroke-linecap="round"/>
<path d="m156.073 89.825 5.96-12.94-4.717 1.914V53.072h-2.6V78.77L150 76.885z" color="#000" fill="red" style="text-decoration-line:none;text-indent:0;text-transform:none"/>
<path d="M160.729 37.704c.072-.288.072-.396.072-.468 0-.576-.468-.792-.846-.792-.36 0-.684.162-.918.432-.252-.27-.846-.738-1.908-.738-3.186 0-5.058 2.844-5.058 5.202 0 2.124 1.602 2.934 3.15 2.934.936 0 1.656-.36 1.98-.558-.108.45-.216.9-.342 1.35-.126.522-.252 1.062-.882 1.566-.756.63-1.35.63-1.836.63-.432 0-.756 0-1.224-.072.522-.378.558-.972.558-1.044 0-.396-.306-.828-.9-.828s-1.278.504-1.278 1.332c0 1.188 1.584 1.26 2.862 1.26 1.62 0 4.104-.378 4.644-2.538zm-3.15 4.536c-.072.252-.072.324-.288.522-.954.864-1.8.864-1.962.864-.702 0-1.224-.396-1.224-1.35 0-.864.594-3.024.864-3.69.63-1.548 1.656-1.8 2.196-1.8 1.116 0 1.512.882 1.512 1.008 0 .036 0 .072-.054.27z" fill="red"/>
<g fill="none" stroke="#000" stroke-width=".5">
<path d="M41.877 49.288a26.058 26.058 0 0 1-17.032 5.96M85.616 87.45a13.946 13.946 0 0 1-14.03 12.042" color="#000"/>
<path d="M24.944 125.855V1.47" marker-end="url(#a)"/>
<path d="M.5 28.819h142.693" marker-end="url(#a)"/>
</g>
<g stroke-linejoin="round" stroke-miterlimit="100000">
<path d="M21.136 17.075c0-3.06-2.124-4.644-5.238-4.644-5.562 0-8.478 4.77-8.478 8.37 0 3.15 2.25 4.59 5.256 4.59 5.526 0 8.46-4.608 8.46-8.316zm-8.28 7.56c-.594 0-1.422-.126-2.106-.828-.792-.792-.792-1.998-.792-2.412 0-1.134.54-4.5 2.016-6.354 1.206-1.476 2.7-1.89 3.744-1.89 1.494 0 2.97.81 2.97 3.096 0 1.17-.648 4.32-1.818 6.012-1.35 1.98-2.988 2.376-4.014 2.376z"/>
<circle transform="rotate(-26.402)" cx="26.272" cy="108.55" color="#000" fill="#5e5bff" r="5"/>
<circle transform="rotate(-26.402)" cx="63.261" cy="133.031" color="#000" fill="#5e5bff" r="7.5"/>
</g>
<use transform="translate(7.812 .97)" width="100%" height="100%" xlink:href="#b"/>
<use transform="translate(46.901 25.658)" width="100%" height="100%" xlink:href="#b"/>
<use transform="translate(7.812 .97)" width="100%" height="100%" xlink:href="#c"/>
<use transform="translate(57.772 42.007)" width="100%" height="100%" xlink:href="#c"/>
<use transform="translate(7.812 .97)" width="100%" height="100%" xlink:href="#d"/>
<use transform="translate(82.64 13.537)" width="100%" height="100%" xlink:href="#d"/>
<use transform="translate(7.812 .97)" width="100%" height="100%" xlink:href="#e"/>
<use transform="translate(-11.068 14.093)" width="100%" height="100%" xlink:href="#e"/>
<use transform="translate(12.157 37.11)" width="100%" height="100%" xlink:href="#e"/>
<use transform="translate(7.812 .97)" width="100%" height="100%" xlink:href="#f"/>
<use transform="translate(-.198 30.442)" width="100%" height="100%" xlink:href="#f"/>
<use transform="translate(47.898 24.99)" width="100%" height="100%" xlink:href="#f"/>
</svg>
