<svg width="104.702" height="96.016" viewBox="0 0 27.702 25.404" xml:space="preserve" xmlns="http://www.w3.org/2000/svg">
<g transform="translate(-208.105 -355.882)">
<path d="m234.23 372.11 1.577-3.424-1.248.507v-6.807h-.687v6.8l-1.248-.5z" color="#000" fill="red" style="text-indent:0;text-decoration-line:none;text-transform:none;stroke-width:.264582"/>
<path d="M235.462 358.32c.02-.077.02-.105.02-.124 0-.153-.125-.21-.225-.21a.32.32 0 0 0-.243.115c-.066-.072-.223-.196-.504-.196-.843 0-1.339.753-1.339 1.377 0 .562.424.776.834.776.247 0 .438-.095.524-.148-.029.12-.057.238-.09.358-.034.138-.067.28-.234.414-.2.167-.357.167-.486.167-.114 0-.2 0-.324-.02a.368.368 0 0 0 .148-.276c0-.104-.081-.219-.238-.219a.348.348 0 0 0-.338.353c0 .314.419.333.757.333.428 0 1.086-.1 1.229-.671zm-.833 1.2c-.02.067-.02.086-.076.138-.253.229-.477.229-.52.229-.185 0-.323-.105-.323-.358 0-.228.157-.8.228-.976.167-.41.438-.476.581-.476.296 0 .4.233.4.266 0 .01 0 .02-.014.072z" fill="red"/>
<g fill="none" color="#000">
<path d="M219.98 368.405c4.828-5.415 8.647-11.72 5.603-12.353-3.044-.632-2.052 6.668.219 13.556" stroke="green" stroke-width=".26458"/>
<path d="M225.802 369.608c2.276 6.902 5.836 13.39 7.91 11.065 2.07-2.322-4.76-5.116-11.867-6.592" stroke="#0000f9" stroke-width=".26458"/>
<path d="M221.845 374.081c-7.11-1.477-14.497-1.634-13.521 1.32.976 2.957 6.822-1.573 11.656-6.996" stroke="red" stroke-width=".26458"/>
</g>
<circle transform="rotate(-26.402)" cx="30.675" cy="428.75" color="#000" fill="#5e5bff" style="stroke-width:.264582" r="1.323"/>
</g>
</svg>
