<svg width="171.769" height="125.355" viewBox="0 0 45.447 33.167" xml:space="preserve" xmlns="http://www.w3.org/2000/svg">
<defs>
<marker id="b" overflow="visible" orient="auto">
<path d="m-10 0-4 4L0 0l-14-4Z" fill-rule="evenodd" stroke="#000" stroke-width=".8pt"/>
</marker>
<marker id="a" overflow="visible" orient="auto">
<path d="m-10 0-4 4L0 0l-14-4Z" fill-rule="evenodd" stroke="#000" stroke-width=".8pt"/>
</marker>
</defs>
<g transform="translate(-253.114 -354.246)">
<path d="M270.207 379.704h15.098v-18.233" fill="none" stroke="#000" stroke-dasharray="2, 2" stroke-width=".132" style="font-variation-settings:normal;opacity:1;vector-effect:none;fill:none;fill-opacity:1;stroke:#000;stroke-width:.132291;stroke-linecap:butt;stroke-linejoin:miter;stroke-miterlimit:4;stroke-dasharray:.529165,.529165;stroke-dashoffset:0;stroke-opacity:1;-inkscape-stroke:none;stop-color:#000;stop-opacity:1"/>
<path d="m285.304 379.704-15.156-18.142" fill="none" stroke="#000" stroke-linecap="round" stroke-width=".265"/>
<path d="m296.984 380.228 1.577-3.423-1.248.506v-6.807h-.688v6.8l-1.248-.5z" color="#000" fill="red" style="text-indent:0;text-decoration-line:none;text-transform:none;stroke-width:.264583"/>
<path d="M287.107 383.329c.01-.029.129-.267.305-.42a.691.691 0 0 1 .471-.19c.19 0 .257.143.257.334 0 .028 0 .124-.057.347l-.119.491a18.729 18.729 0 0 0-.186.762c0 .067.053.12.124.12.143 0 .167-.11.21-.282l.286-1.138c.01-.038.257-.634.78-.634.191 0 .258.143.258.334 0 .267-.186.786-.29 1.071-.044.115-.067.177-.067.262 0 .215.147.386.376.386.443 0 .61-.7.61-.729 0-.023-.02-.042-.048-.042-.043 0-.048.014-.072.095-.11.38-.285.58-.476.58-.047 0-.124-.004-.124-.156 0-.124.058-.277.077-.329.085-.229.3-.79.3-1.067 0-.285-.167-.5-.529-.5-.32 0-.576.181-.767.462-.014-.257-.171-.462-.528-.462-.424 0-.648.3-.734.42-.014-.272-.21-.42-.419-.42-.138 0-.248.067-.338.248a2.233 2.233 0 0 0-.152.48c0 .02.019.044.052.044.038 0 .043-.005.071-.115.072-.28.162-.562.353-.562.11 0 .147.077.147.22 0 .104-.047.29-.08.438l-.134.514c-.019.09-.071.305-.095.39a4.656 4.656 0 0 0-.086.372c0 .067.053.12.124.12a.183.183 0 0 0 .162-.1c.01-.025.052-.191.076-.287l.105-.428z"/>
<path d="M298.216 366.438c.02-.076.02-.105.02-.124 0-.152-.125-.21-.225-.21a.32.32 0 0 0-.242.115c-.067-.071-.224-.195-.505-.195-.843 0-1.339.752-1.339 1.376 0 .562.424.776.834.776.248 0 .438-.095.524-.147-.029.119-.057.238-.09.357-.034.138-.067.28-.234.414-.2.167-.357.167-.486.167-.114 0-.2 0-.324-.019a.368.368 0 0 0 .148-.276c0-.105-.081-.22-.238-.22a.348.348 0 0 0-.338.353c0 .314.419.333.757.333.429 0 1.086-.1 1.229-.671zm-.833 1.2c-.02.067-.02.086-.076.138-.253.229-.477.229-.52.229-.185 0-.323-.105-.323-.357 0-.229.157-.8.228-.977.167-.41.438-.476.581-.476.296 0 .4.234.4.267 0 .01 0 .019-.014.071z" fill="red"/>
<path d="M274.628 366.977a6.894 6.894 0 0 1-4.507 1.577" color="#000" fill="none" stroke="#000" stroke-width=".132"/>
<g stroke-width="1.5">
<path d="M255.857 380.394c.081 0 .167 0 .167-.096 0-.095-.086-.095-.167-.095h-2.576c-.081 0-.167 0-.167.095 0 .096.086.096.167.096zM261.493 379.727c-.057 0-.233 0-.233.195 0 .115.08.196.195.196.11 0 .2-.067.2-.205 0-.32-.333-.548-.72-.548-.556 0-1 .495-1 1.095 0 .61.458 1.077.996 1.077a.767.767 0 0 0 .772-.615c0-.042-.034-.042-.048-.042-.043 0-.048.014-.062.071-.105.338-.362.481-.62.481-.29 0-.675-.252-.675-.976 0-.79.404-.986.643-.986.18 0 .442.071.552.257zM264.027 380.47c0-.614-.466-1.105-1.019-1.105-.571 0-1.024.505-1.024 1.105 0 .61.477 1.067 1.02 1.067.561 0 1.023-.467 1.023-1.067zm-1.019.962a.603.603 0 0 1-.528-.31c-.129-.214-.134-.495-.134-.695 0-.18 0-.471.148-.686a.61.61 0 0 1 1.024-.01c.147.22.147.52.147.696 0 .167 0 .462-.123.686a.62.62 0 0 1-.534.319zM265.735 379.475c0-.086 0-.11-.047-.11-.039 0-.13.105-.162.148a.666.666 0 0 0-.448-.148c-.576 0-.748.314-.748.576 0 .053 0 .22.181.386.153.133.315.167.534.21.262.052.323.066.443.162a.396.396 0 0 1 .147.31c0 .204-.119.432-.538.432-.314 0-.543-.18-.648-.657-.019-.085-.019-.09-.024-.095-.01-.019-.028-.019-.042-.019-.053 0-.053.024-.053.11v.647c0 .086 0 .11.048.11.024 0 .028-.005.11-.105.023-.033.023-.043.095-.12.18.225.438.225.519.225.5 0 .747-.276.747-.653 0-.257-.157-.41-.2-.452-.171-.148-.3-.176-.614-.234-.143-.028-.49-.095-.49-.38 0-.148.1-.367.528-.367.52 0 .548.443.557.59.005.038.038.038.053.038.052 0 .052-.023.052-.11zM284.343 358.293c0-.086 0-.11-.048-.11-.038 0-.129.105-.162.148a.666.666 0 0 0-.448-.147c-.576 0-.747.314-.747.576 0 .052 0 .219.18.386.153.133.315.166.534.21.262.052.324.066.443.161a.396.396 0 0 1 .148.31c0 .204-.12.433-.539.433-.314 0-.543-.18-.647-.657-.02-.086-.02-.09-.024-.095-.01-.02-.029-.02-.043-.02-.052 0-.052.024-.052.11v.648c0 .086 0 .11.047.11.024 0 .029-.005.11-.105.024-.034.024-.043.095-.12.181.224.438.224.52.224.5 0 .747-.276.747-.652 0-.257-.157-.41-.2-.453-.172-.147-.3-.176-.614-.233-.143-.029-.491-.095-.491-.38 0-.149.1-.368.529-.368.519 0 .547.443.557.59.005.039.038.039.052.039.053 0 .053-.024.053-.11zM285.449 357.374c0-.124-.1-.233-.234-.233-.123 0-.228.1-.228.228a.23.23 0 0 0 .228.234.232.232 0 0 0 .234-.229zm-.657.886v.138c.304 0 .347.029.347.262v1.295c0 .215-.052.215-.362.215v.138c.134-.01.362-.01.5-.01.053 0 .329 0 .49.01v-.138c-.309 0-.328-.024-.328-.21v-1.753zM288.035 359.15c0-.443 0-.576-.11-.728-.138-.186-.362-.215-.524-.215-.462 0-.643.396-.68.491h-.005v-.49l-.648.052v.138c.324 0 .362.033.362.267v1.29c0 .215-.053.215-.362.215v.138c.124-.01.38-.01.514-.01.138 0 .396 0 .52.01v-.138c-.305 0-.363 0-.363-.215v-.886c0-.5.33-.766.624-.766.296 0 .362.243.362.533v1.12c0 .214-.052.214-.362.214v.138c.124-.01.381-.01.515-.01.138 0 .395 0 .519.01v-.138c-.238 0-.357 0-.362-.143z"/>
</g>
<path d="M270.148 387.413v-32.91" fill="none" marker-end="url(#a)" stroke="#000" stroke-width=".132" style="marker-end:url(#a)"/>
<circle transform="rotate(-26.402)" cx="86.705" cy="466.965" r="1.984" color="#000" fill="#5e5bff" style="stroke-width:.264583"/>
<path d="M262.163 361.562h32.91" fill="none" marker-end="url(#b)" stroke="#000" stroke-width=".132"/>
<path d="M258.691 378.303c.005-.019.014-.048.014-.071 0-.048-.047-.048-.057-.048-.005 0-.176.014-.262.024-.08.005-.152.014-.238.019-.114.01-.148.014-.148.1 0 .047.048.047.096.047.243 0 .243.043.243.09 0 .02 0 .03-.024.115l-.59 2.362a.538.538 0 0 0-.025.167c0 .238.177.429.42.429.157 0 .261-.105.338-.253.08-.157.147-.457.147-.476 0-.024-.019-.043-.047-.043-.043 0-.048.024-.067.095-.086.33-.171.581-.362.581-.143 0-.143-.152-.143-.219 0-.019 0-.119.034-.252zM279.869 367.63c.005-.02.014-.048.014-.072 0-.048-.047-.048-.057-.048-.005 0-.176.015-.262.024-.08.005-.152.015-.238.02-.114.009-.148.014-.148.1 0 .047.048.047.096.047.242 0 .242.043.242.09 0 .02 0 .029-.023.115l-.59 2.362a.538.538 0 0 0-.025.167c0 .238.176.428.42.428.157 0 .261-.105.337-.252.081-.157.148-.457.148-.476 0-.024-.019-.043-.048-.043-.042 0-.047.023-.066.095-.086.329-.172.581-.362.581-.143 0-.143-.152-.143-.22 0-.018 0-.118.033-.252zM281.703 357.122c.005-.02.014-.048.014-.072 0-.047-.047-.047-.057-.047-.004 0-.176.014-.262.023-.08.005-.152.015-.238.02-.114.009-.147.014-.147.1 0 .047.047.047.095.047.243 0 .243.043.243.09 0 .02 0 .03-.024.115l-.59 2.362a.538.538 0 0 0-.024.167c0 .238.176.428.419.428.157 0 .262-.104.338-.252.08-.157.147-.457.147-.476 0-.024-.019-.043-.047-.043-.043 0-.048.024-.067.095-.086.329-.171.581-.362.581-.143 0-.143-.152-.143-.219 0-.02 0-.12.034-.252zM268.916 379.094c0-.486-.153-.958-.543-.958-.667 0-1.377 1.396-1.377 2.443 0 .22.048.958.548.958.648 0 1.372-1.362 1.372-2.443zm-1.443.671c.071-.28.171-.68.362-1.02.157-.285.323-.513.533-.513.157 0 .262.133.262.59 0 .172-.014.41-.152.943zm.971.143c-.119.467-.219.767-.39 1.067-.138.243-.305.466-.505.466-.148 0-.267-.114-.267-.585 0-.31.076-.634.153-.948zM273.67 369.78c0-.486-.152-.958-.543-.958-.667 0-1.376 1.396-1.376 2.444 0 .219.047.957.547.957.648 0 1.372-1.362 1.372-2.443zm-1.443.671c.071-.28.172-.68.362-1.019.157-.286.324-.514.533-.514.158 0 .262.133.262.59 0 .172-.014.41-.152.943zm.972.143c-.12.467-.22.767-.39 1.067-.139.243-.306.467-.506.467-.147 0-.266-.115-.266-.586 0-.31.076-.634.152-.948zM291.41 357.912c0-.486-.152-.957-.543-.957-.667 0-1.376 1.395-1.376 2.443 0 .22.047.957.547.957.648 0 1.372-1.362 1.372-2.443zm-1.443.672c.071-.281.171-.681.362-1.02.157-.285.324-.514.533-.514.157 0 .262.133.262.59 0 .172-.014.41-.152.944zm.971.143c-.119.466-.219.766-.39 1.066-.138.243-.305.467-.505.467-.148 0-.267-.114-.267-.586 0-.31.077-.633.153-.947zM268.744 358.404c0-.81-.562-1.229-1.386-1.229-1.472 0-2.243 1.263-2.243 2.215 0 .834.595 1.215 1.39 1.215 1.463 0 2.239-1.22 2.239-2.2zm-2.19 2a.75.75 0 0 1-.558-.219c-.21-.21-.21-.528-.21-.638 0-.3.143-1.19.534-1.68.319-.391.714-.501.99-.501.396 0 .786.214.786.82 0 .309-.171 1.142-.48 1.59-.358.524-.791.628-1.063.628z"/>
</g>
</svg>
