<svg width="177.246" height="59.72" viewBox="0 0 46.896 15.801" xml:space="preserve" xmlns="http://www.w3.org/2000/svg">
<defs>
<marker id="a" overflow="visible" orient="auto">
<path d="M.98 0a1 1 0 1 1-2 0 1 1 0 0 1 2 0z" fill="#545454" fill-rule="evenodd" stroke="#545454" stroke-width=".2pt"/>
</marker>
</defs>
<g transform="translate(-207.863 -435.893)">
<path d="M210.497 451.577c.78-1.585 1.635-2.958 2.553-4.144 2.81-3.63 6.212-5.511 9.864-6.4 4.878-1.186 10.201-.6 15.15-.045 5.366.603 10.291 1.17 13.732-.595a7.467 7.467 0 0 0 2.746-2.389" fill="none" marker-mid="url(#a)" stroke="#545454" stroke-width=".529"/>
<g stroke-width="1.333">
<path d="M210.195 445.08c.068 0 .141 0 .141-.08 0-.081-.073-.081-.141-.081h-2.19c-.07 0-.142 0-.142.08 0 .082.072.082.141.082zM211.854 443.42c0-.096 0-.104-.093-.104-.251.259-.608.259-.737.259v.125c.08 0 .32 0 .53-.105v2.097c0 .146-.012.195-.376.195h-.13v.125c.142-.012.494-.012.656-.012.162 0 .514 0 .656.012v-.125h-.13c-.364 0-.376-.045-.376-.195zM219.492 436.723c0-.267-.072-.83-.485-.83-.563 0-1.187 1.142-1.187 2.07 0 .38.118.83.486.83.571 0 1.186-1.163 1.186-2.07zm-1.243.555c.07-.26.15-.583.312-.87.11-.199.26-.426.442-.426.198 0 .222.26.222.49 0 .199-.032.405-.13.806zm.81.13c-.044.186-.13.53-.283.821-.142.276-.296.474-.47.474-.133 0-.218-.117-.218-.494 0-.17.024-.405.13-.802zM223.562 437.424c.061 0 .138 0 .138-.081s-.077-.081-.134-.081h-2.425c-.056 0-.133 0-.133.08 0 .082.077.082.137.082zm.004.785c.057 0 .134 0 .134-.08 0-.082-.077-.082-.138-.082h-2.417c-.06 0-.137 0-.137.081s.077.081.133.081zM226.905 437.452c0-.324-.02-.648-.162-.948a.75.75 0 0 0-.688-.453c-.243 0-.538.105-.704.482-.13.28-.15.595-.15.919 0 .304.016.668.182.976.174.328.47.409.668.409.219 0 .526-.085.705-.47.13-.28.15-.595.15-.915zm-.854 1.296c-.158 0-.397-.102-.47-.49-.044-.243-.044-.616-.044-.855 0-.259 0-.526.032-.745.077-.481.38-.518.482-.518.134 0 .401.073.478.474.04.227.04.534.04.79 0 .303 0 .578-.044.837-.06.385-.292.507-.474.507zM238.079 436.808c0-.098 0-.106-.093-.106-.251.26-.608.26-.737.26v.125c.08 0 .32 0 .53-.105v2.097c0 .146-.012.194-.376.194h-.13v.126c.142-.012.494-.012.656-.012.162 0 .514 0 .656.012v-.126h-.13c-.364 0-.376-.044-.376-.194zM250.262 438.422l.43-.417c.631-.56.874-.778.874-1.183 0-.461-.364-.785-.858-.785a.748.748 0 0 0-.757.733c0 .226.202.226.214.226.069 0 .21-.048.21-.214a.205.205 0 0 0-.214-.21c-.032 0-.04 0-.053.003.094-.263.312-.413.547-.413.368 0 .543.328.543.66 0 .324-.203.644-.426.895l-.777.867c-.044.044-.044.052-.044.15h1.502l.113-.705h-.101c-.02.121-.049.3-.09.36-.028.033-.295.033-.384.033zM233.261 445.413a.378.378 0 0 0-.273.35c0 .11.086.232.253.232.177 0 .364-.147.364-.395 0-.268-.268-.445-.577-.445-.288 0-.476.218-.541.309-.127-.213-.41-.309-.699-.309-.637 0-.982.623-.982.79 0 .07.076.07.122.07.06 0 .096 0 .116-.065.147-.46.511-.613.719-.613.192 0 .283.091.283.253 0 .096-.07.375-.116.557l-.172.693c-.076.31-.258.46-.43.46-.026 0-.142 0-.243-.075a.378.378 0 0 0 .273-.35c0-.11-.086-.232-.253-.232-.177 0-.364.147-.364.395 0 .268.268.445.577.445.288 0 .475-.217.541-.309.127.213.41.31.698.31.638 0 .982-.623.982-.79 0-.071-.076-.071-.121-.071-.06 0-.096 0-.117.066-.146.46-.51.612-.718.612-.193 0-.284-.091-.284-.253 0-.106.066-.375.112-.562.035-.131.152-.607.177-.688.076-.304.253-.46.43-.46a.41.41 0 0 1 .243.075zM236.403 448.658c0-.016 0-.026-.086-.112-.633-.638-.795-1.594-.795-2.368 0-.881.192-1.762.815-2.394.066-.061.066-.071.066-.086 0-.036-.02-.05-.051-.05-.05 0-.506.343-.805.986a3.678 3.678 0 0 0-.319 1.544c0 .394.056 1.007.334 1.579.304.622.74.951.79.951.03 0 .05-.015.05-.05zM238.998 444.912c0-.334-.09-1.037-.607-1.037-.704 0-1.483 1.427-1.483 2.586 0 .476.147 1.038.607 1.038.714 0 1.483-1.453 1.483-2.587zm-1.554.694c.086-.324.188-.73.39-1.088.137-.248.324-.532.552-.532.248 0 .278.324.278.613 0 .248-.04.506-.162 1.007zm1.013.162c-.056.232-.162.663-.355 1.027-.177.344-.37.592-.587.592-.167 0-.273-.147-.273-.617 0-.213.03-.506.162-1.002zM240.666 446.178c0-.395-.056-1.008-.334-1.58-.304-.622-.74-.95-.79-.95-.03 0-.05.02-.05.05 0 .015 0 .025.096.116.496.501.784 1.306.784 2.364 0 .865-.187 1.756-.815 2.393-.066.061-.066.071-.066.086 0 .03.02.051.051.051.05 0 .506-.344.805-.987a3.678 3.678 0 0 0 .319-1.543z"/>
</g>
<circle transform="rotate(-26.402)" cx="12.423" cy="497.914" color="#000" fill="#5e5bff" r="1.984"/>
</g>
</svg>
