<svg width="170.414" height="108.695" viewBox="0 0 45.089 28.759" xml:space="preserve" xmlns="http://www.w3.org/2000/svg">
<defs>
<marker id="b" overflow="visible" orient="auto">
<path d="M1.96 0a2 2 0 1 1-4.001-.001A2 2 0 0 1 1.96 0z" fill="red" fill-rule="evenodd" stroke="red" stroke-width=".4pt"/>
</marker>
<marker id="a" overflow="visible" orient="auto">
<path d="M1.96 0a2 2 0 1 1-4.001-.001A2 2 0 0 1 1.96 0z" fill="red" fill-rule="evenodd" stroke="red" stroke-width=".4pt"/>
</marker>
</defs>
<path d="M41.69 9c.052-.048.185-.153.236-.198.197-.18.384-.355.384-.644 0-.378-.318-.622-.714-.622-.381 0-.632.289-.632.571 0 .156.124.178.168.178a.163.163 0 0 0 .165-.168c0-.165-.159-.165-.197-.165a.49.49 0 0 1 .46-.312c.296 0 .448.251.448.518 0 .33-.231.571-.606.956l-.4.412c-.038.035-.038.042-.038.121h1.254l.092-.568h-.098c-.01.063-.035.222-.073.282-.02.026-.26.026-.312.026h-.565zM34.8 26.723c0-.405-.126-.798-.452-.798-.555 0-1.147 1.163-1.147 2.036 0 .183.04.798.457.798.54 0 1.143-1.135 1.143-2.036zm-1.202.56c.06-.235.143-.568.302-.85.13-.238.27-.428.444-.428.131 0 .219.11.219.492 0 .143-.012.341-.127.785zm.81.119c-.1.388-.183.639-.326.889-.115.202-.254.388-.42.388-.123 0-.223-.095-.223-.488 0-.258.064-.528.127-.79zM38.743 27.433c.055 0 .127 0 .127-.071 0-.076-.068-.076-.127-.076h-2.338c-.056 0-.127 0-.127.072 0 .075.068.075.127.075zm0 .738c.055 0 .127 0 .127-.071 0-.075-.068-.075-.127-.075h-2.338c-.056 0-.127 0-.127.071 0 .075.068.075.127.075zM40.96 23.347c-.019.067-.024.072-.028.077-.03.01-.081.01-.124.01-.081 0-.167 0-.167.132 0 .053.038.09.09.09.139 0 .296-.013.439-.013.166 0 .347.014.51.014.033 0 .123 0 .123-.138 0-.081-.076-.086-.124-.086-.066 0-.143 0-.205-.005l.205-.828a.696.696 0 0 0 .481.171c.829 0 1.343-.752 1.343-1.405 0-.586-.438-.786-.833-.786a1.02 1.02 0 0 0-.662.258c-.181-.258-.495-.258-.548-.258-.176 0-.314.1-.414.272-.12.19-.181.447-.181.471 0 .067.071.067.114.067.053 0 .072 0 .095-.024.01-.01.01-.019.038-.138.096-.381.205-.476.324-.476.053 0 .11.019.11.176 0 .071-.01.138-.029.205zm1.095-2.286c.139-.162.362-.31.591-.31.295 0 .32.258.32.363 0 .247-.163.833-.239 1.019-.148.348-.381.467-.576.467-.281 0-.396-.224-.396-.277l.01-.066zM39.121 5.331c.019-.067.019-.076.019-.08 0-.063-.052-.087-.105-.087-.019 0-.024 0-.033.005l-.614.029c-.067.005-.153.01-.153.143 0 .085.086.085.124.085.052 0 .138 0 .2.01l-.686 2.748a.879.879 0 0 0-.019.11c0 .114.09.214.229.214.028 0 .243 0 .31-.267l.285-1.129c.024-.09.024-.1.095-.195.077-.105.315-.429.71-.429.124 0 .238.048.238.281 0 .277-.21.834-.3 1.067-.052.129-.067.162-.067.243 0 .276.277.429.539.429.504 0 .742-.648.742-.743 0-.067-.071-.067-.114-.067-.057 0-.09 0-.11.062-.152.529-.414.576-.49.576-.033 0-.08 0-.08-.1 0-.105.052-.233.08-.31.09-.233.31-.79.31-1.057 0-.438-.367-.552-.71-.552-.105 0-.395 0-.72.295zM6.642 2.46c0-.086-.006-.089-.092-.089-.13.127-.298.203-.6.203v.105c.086 0 .258 0 .442-.086v1.63c0 .117-.01.155-.311.155h-.112v.105c.13-.01.404-.01.546-.01.143 0 .42 0 .55.01v-.105h-.111c-.302 0-.312-.038-.312-.156z"/>
<path d="M248.787 489.499c-3.55-15.645-29.118-20.766-32.568-6.797" color="#000" stroke-width=".397" style="fill:none;stroke:red" transform="translate(-210.263 -466.084)"/>
<path d="m245.237 473.854 3.55 15.645" color="#000" marker-end="url(#a)" marker-start="url(#b)" stroke-dasharray="0.529166, 0.264583" style="isolation:auto;mix-blend-mode:normal;fill:none;stroke:red;stroke-width:.264583;marker-start:url(#b);marker-end:url(#DotMy-3)" transform="translate(-210.263 -466.084)"/>
<path d="m219.669 468.733-3.45 13.97" color="#000" marker-end="url(#a)" marker-start="url(#b)" stroke-dasharray="0.529166, 0.264583" style="isolation:auto;mix-blend-mode:normal;fill:none;stroke:red;stroke-width:.264583;marker-start:url(#b);marker-end:url(#DotMy-3)" transform="translate(-210.263 -466.084)"/>
<path d="M41.332 26.175c0-.091 0-.095-.08-.095-.095.107-.293.254-.702.254v.115c.091 0 .29 0 .508-.103v2.068c0 .142-.012.19-.361.19h-.123v.115c.107-.008.492-.008.623-.008.13 0 .512 0 .619.008v-.115h-.123c-.35 0-.361-.048-.361-.19zM44.47 23.263c.05-.048.184-.153.234-.197.197-.181.385-.356.385-.645 0-.378-.318-.622-.715-.622-.38 0-.632.289-.632.572 0 .155.124.177.169.177a.163.163 0 0 0 .165-.168c0-.165-.159-.165-.197-.165a.49.49 0 0 1 .46-.311c.296 0 .448.25.448.517 0 .33-.232.572-.606.956l-.4.413c-.039.035-.039.041-.039.12h1.255l.092-.568h-.099c-.01.064-.035.222-.073.283-.019.025-.26.025-.311.025h-.565zM11.55 20.808c0-.33-.02-.651-.164-.953a.709.709 0 0 0-.643-.417.712.712 0 0 0-.658.445c-.112.25-.151.496-.151.925 0 .385.028.674.17.956a.706.706 0 0 0 .635.397c.346 0 .544-.206.66-.437.142-.297.15-.686.15-.916zm-.81 1.274c-.128 0-.386-.072-.46-.504-.045-.239-.045-.54-.045-.818 0-.325 0-.62.064-.853.067-.266.27-.39.44-.39.151 0 .381.092.457.433.051.227.051.54.051.81 0 .266 0 .568-.043.81-.076.436-.326.512-.465.512zM4.383 20.081c0-.404-.127-.797-.452-.797-.556 0-1.147 1.162-1.147 2.036 0 .182.04.797.456.797.54 0 1.143-1.135 1.143-2.036zm-1.202.56c.06-.234.143-.568.301-.85.131-.238.27-.428.445-.428.13 0 .218.111.218.492 0 .143-.012.341-.127.786zm.81.119c-.1.389-.183.639-.326.889-.115.202-.254.389-.42.389-.124 0-.223-.095-.223-.488 0-.258.063-.528.127-.79zM8.325 20.792c.056 0 .127 0 .127-.072 0-.075-.067-.075-.127-.075H5.988c-.056 0-.127 0-.127.071 0 .076.067.076.127.076zm0 .738c.056 0 .127 0 .127-.072 0-.075-.067-.075-.127-.075H5.988c-.056 0-.127 0-.127.072 0 .075.067.075.127.075zM.32 17.207c-.02.066-.025.071-.03.076-.028.01-.08.01-.123.01-.081 0-.167 0-.167.133 0 .052.038.09.09.09.139 0 .296-.014.439-.014.166 0 .347.014.51.014.033 0 .123 0 .123-.138 0-.08-.076-.086-.124-.086-.066 0-.143 0-.205-.004l.205-.83a.696.696 0 0 0 .481.172c.829 0 1.343-.752 1.343-1.405 0-.585-.438-.785-.833-.785a1.02 1.02 0 0 0-.662.257c-.181-.257-.495-.257-.548-.257-.176 0-.314.1-.414.271-.12.19-.181.448-.181.472 0 .066.071.066.114.066.053 0 .072 0 .095-.024.01-.01.01-.019.038-.138.096-.38.205-.476.324-.476.053 0 .11.02.11.176 0 .072-.01.138-.029.205zm1.094-2.286c.139-.162.362-.31.591-.31.295 0 .32.257.32.362 0 .248-.163.833-.239 1.02-.148.347-.381.466-.576.466-.281 0-.396-.224-.396-.276l.01-.067zM3.971.167c.02-.067.02-.077.02-.081C3.99.024 3.937 0 3.884 0c-.019 0-.023 0-.033.005l-.614.028c-.067.005-.153.01-.153.143 0 .086.086.086.124.086.053 0 .138 0 .2.01l-.686 2.747a.879.879 0 0 0-.019.11c0 .114.09.214.229.214.028 0 .243 0 .31-.266l.285-1.13c.024-.09.024-.1.095-.194.077-.105.315-.429.71-.429.124 0 .238.048.238.281 0 .276-.21.833-.3 1.067-.052.128-.067.162-.067.243 0 .276.277.428.539.428.504 0 .743-.647.743-.743 0-.066-.072-.066-.115-.066-.057 0-.09 0-.11.062-.152.528-.414.576-.49.576-.033 0-.08 0-.08-.1 0-.105.052-.234.08-.31.09-.233.31-.79.31-1.057 0-.438-.367-.552-.71-.552-.105 0-.395 0-.719.295zM3.93 15.747c0-.085-.006-.088-.092-.088-.13.127-.298.203-.6.203v.105c.086 0 .257 0 .441-.086v1.629c0 .117-.01.155-.31.155h-.112v.105c.13-.01.403-.01.546-.01.143 0 .42 0 .55.01v-.105H4.24c-.301 0-.31-.038-.31-.155z"/>
</svg>
