<svg width="168.185" height="52.318" viewBox="0 0 44.499 13.842" xml:space="preserve" xmlns="http://www.w3.org/2000/svg">
<g transform="translate(-278.658 -402.448)">
<path d="M278.896 416.174c.78-1.586 1.634-2.959 2.552-4.145 2.81-3.63 6.213-5.51 9.864-6.4 4.879-1.186 10.202-.6 15.15-.044 5.366.602 10.292 1.17 13.733-.595a7.467 7.467 0 0 0 2.746-2.39" fill="none" stroke="#545454" stroke-width=".529"/>
<path d="M302.02 409.174a.378.378 0 0 0-.274.35c0 .111.086.233.253.233.177 0 .364-.147.364-.395 0-.269-.268-.446-.577-.446-.288 0-.475.218-.541.31-.127-.213-.41-.31-.699-.31-.637 0-.982.623-.982.79 0 .07.076.07.122.07.06 0 .096 0 .116-.065.147-.46.512-.612.719-.612.192 0 .283.09.283.253 0 .096-.07.374-.116.556l-.172.694c-.076.308-.258.46-.43.46-.026 0-.142 0-.243-.076a.378.378 0 0 0 .273-.349c0-.111-.086-.233-.253-.233-.177 0-.364.147-.364.395 0 .268.268.445.577.445.288 0 .475-.217.541-.308.127.212.41.308.699.308.637 0 .981-.622.981-.789 0-.07-.075-.07-.121-.07-.06 0-.096 0-.116.065-.147.46-.512.612-.72.612-.191 0-.283-.09-.283-.253 0-.106.066-.374.112-.562.035-.131.152-.607.177-.688.076-.304.253-.46.43-.46.025 0 .142 0 .243.075z"/>
<circle transform="rotate(-26.402)" cx="89.43" cy="496.617" r="1.984" color="#000" fill="#5e5bff"/>
</g>
</svg>
