<svg width="161.533" height="125.355" viewBox="0 0 42.739 33.167" xml:space="preserve" xmlns="http://www.w3.org/2000/svg">
<defs>
<marker id="a" overflow="visible" orient="auto">
<path d="m-10 0-4 4L0 0l-14-4Z" fill-rule="evenodd" stroke="#000" stroke-width=".8pt"/>
</marker>
</defs>
<path d="M290.479 464.824v-12.08" fill="none" stroke="#000" stroke-dasharray="2, 2" stroke-linejoin="round" stroke-miterlimit="100000" stroke-width=".132" style="font-variation-settings:normal;opacity:1;vector-effect:none;fill:none;fill-opacity:1;stroke:#000;stroke-width:.132291;stroke-linecap:butt;stroke-linejoin:miter;stroke-miterlimit:4;stroke-dasharray:.529165,.529165;stroke-dashoffset:0;stroke-opacity:1;-inkscape-stroke:none;stop-color:#000;stop-opacity:1" transform="translate(-271.68 -433.945)"/>
<path d="m278.148 441.438 12.397 15.009 11.646 1.45" fill="none" stroke="#000" stroke-linecap="round" style="stroke-width:.264583" transform="translate(-271.68 -433.945)"/>
<path d="m312.842 457.58 1.577-3.424-1.248.506v-6.807h-.688v6.8l-1.248-.5z" color="#000" fill="red" style="text-indent:0;text-decoration-line:none;text-transform:none;stroke-width:.264583" transform="translate(-271.68 -433.945)"/>
<path d="M42.394 9.844c.019-.077.019-.105.019-.124 0-.153-.124-.21-.224-.21a.32.32 0 0 0-.243.115c-.067-.072-.224-.196-.505-.196-.843 0-1.338.753-1.338 1.377 0 .562.424.776.833.776.248 0 .439-.095.524-.148-.028.12-.057.238-.09.357-.033.139-.067.281-.234.415-.2.167-.357.167-.485.167-.115 0-.2 0-.324-.02a.368.368 0 0 0 .147-.276c0-.105-.08-.219-.238-.219a.348.348 0 0 0-.338.353c0 .314.42.333.757.333.43 0 1.086-.1 1.23-.672zm-.834 1.2c-.019.066-.019.085-.076.138-.252.228-.476.228-.519.228-.186 0-.324-.104-.324-.357 0-.228.157-.8.229-.976.167-.41.438-.476.58-.476.296 0 .4.233.4.266 0 .01 0 .02-.013.072z" fill="red"/>
<path d="M282.628 446.854a6.894 6.894 0 0 1-4.506 1.577M294.2 456.951a3.69 3.69 0 0 1-3.711 3.186" color="#000" stroke-width=".132" style="fill:none;stroke:#000" transform="translate(-271.68 -433.945)"/>
<path d="M278.148 467.112v-32.91" marker-end="url(#a)" stroke-width=".132" style="fill:none;stroke:#000;marker-end:url(#a)" transform="translate(-271.68 -433.945)"/>
<path d="M271.68 441.438h37.755" marker-end="url(#a)" stroke-width=".132" style="fill:none;stroke:#000;marker-end:url(#a)" transform="translate(-271.68 -433.945)"/>
<g stroke-linejoin="round" stroke-miterlimit="100000" transform="matrix(.26458 0 0 .26458 -.132 -.132)">
<path d="M21.136 17.075c0-3.06-2.124-4.644-5.238-4.644-5.562 0-8.478 4.77-8.478 8.37 0 3.15 2.25 4.59 5.256 4.59 5.526 0 8.46-4.608 8.46-8.316zm-8.28 7.56c-.594 0-1.422-.126-2.106-.828-.792-.792-.792-1.998-.792-2.412 0-1.134.54-4.5 2.016-6.354 1.206-1.476 2.7-1.89 3.744-1.89 1.494 0 2.97.81 2.97 3.096 0 1.17-.648 4.32-1.818 6.012-1.35 1.98-2.988 2.376-4.014 2.376z"/>
<circle transform="rotate(-26.402)" cx="26.272" cy="108.55" color="#000" fill="#5e5bff" r="5"/>
<circle transform="rotate(-26.402)" cx="63.261" cy="133.031" color="#000" fill="#5e5bff" r="7.5"/>
</g>
<path d="M14.959 11.604c.005-.019.014-.047.014-.071 0-.048-.048-.048-.057-.048-.005 0-.176.014-.262.024-.081.005-.152.014-.238.019-.114.01-.148.014-.148.1 0 .048.048.048.095.048.243 0 .243.042.243.09 0 .02 0 .029-.023.114l-.591 2.363a.538.538 0 0 0-.024.166c0 .238.176.429.42.429.156 0 .261-.105.337-.253.081-.157.148-.457.148-.476 0-.024-.019-.043-.048-.043-.042 0-.047.024-.066.096-.086.328-.172.58-.362.58-.143 0-.143-.152-.143-.218 0-.02 0-.12.033-.253zM25.301 18.136c.005-.02.014-.048.014-.072 0-.047-.047-.047-.057-.047-.004 0-.176.014-.262.024-.08.004-.152.014-.238.019-.114.01-.147.014-.147.1 0 .047.047.047.095.047.243 0 .243.043.243.09 0 .02 0 .03-.024.115l-.59 2.362a.538.538 0 0 0-.024.167c0 .238.176.429.419.429.157 0 .262-.105.338-.253.08-.157.147-.457.147-.476 0-.024-.019-.043-.047-.043-.043 0-.048.024-.067.095-.086.329-.171.581-.362.581-.143 0-.143-.152-.143-.219 0-.019 0-.119.034-.252zM10.08 15.867c0-.486-.153-.958-.543-.958-.667 0-1.377 1.396-1.377 2.443 0 .22.048.958.548.958.648 0 1.372-1.362 1.372-2.443zm-1.444.671c.072-.28.172-.681.362-1.02.158-.285.324-.513.534-.513.157 0 .262.133.262.59 0 .172-.015.41-.153.943zm.972.143c-.119.467-.22.767-.39 1.067-.139.243-.305.466-.505.466-.148 0-.267-.114-.267-.585 0-.31.076-.634.152-.948zM23.298 26.724c0-.486-.152-.957-.543-.957-.667 0-1.376 1.395-1.376 2.443 0 .219.047.957.547.957.648 0 1.372-1.362 1.372-2.443zm-1.443.672c.071-.281.171-.682.362-1.02.157-.285.324-.514.533-.514.158 0 .262.133.262.59 0 .172-.014.41-.152.944zm.972.142c-.12.467-.22.767-.39 1.067-.14.243-.306.467-.506.467-.147 0-.266-.114-.266-.586 0-.31.076-.633.152-.948zM13.19 22.957a1.34 1.34 0 0 1 .305-.42.691.691 0 0 1 .472-.19c.19 0 .257.143.257.334 0 .028 0 .123-.057.347l-.12.49a18.757 18.757 0 0 0-.185.763c0 .067.052.119.124.119.143 0 .166-.11.21-.281l.285-1.138c.01-.038.257-.634.781-.634.19 0 .257.143.257.334 0 .266-.186.785-.29 1.071-.043.114-.067.176-.067.262 0 .214.148.386.376.386.443 0 .61-.7.61-.729 0-.024-.02-.043-.048-.043-.043 0-.047.015-.071.096-.11.38-.286.58-.476.58-.048 0-.124-.004-.124-.157 0-.123.057-.276.076-.328.086-.229.3-.79.3-1.067 0-.286-.167-.5-.529-.5-.319 0-.576.181-.766.462-.015-.257-.172-.462-.53-.462-.423 0-.647.3-.733.42-.014-.272-.21-.42-.419-.42-.138 0-.247.067-.338.248a2.231 2.231 0 0 0-.152.48c0 .02.019.044.052.044.038 0 .043-.005.072-.115.071-.28.162-.562.352-.562.11 0 .148.076.148.22 0 .104-.048.29-.081.437l-.134.515c-.019.09-.071.305-.095.39a4.643 4.643 0 0 0-.086.372c0 .067.053.119.124.119a.183.183 0 0 0 .162-.1c.01-.024.053-.19.076-.286l.105-.428zM32.989 26.282a1.34 1.34 0 0 1 .304-.42.691.691 0 0 1 .472-.19c.19 0 .257.143.257.333 0 .029 0 .124-.057.348l-.12.49a18.757 18.757 0 0 0-.185.763c0 .066.053.119.124.119.143 0 .167-.11.21-.281l.285-1.139c.01-.038.258-.633.781-.633.19 0 .258.143.258.333 0 .267-.186.786-.291 1.072-.043.114-.067.176-.067.262 0 .214.148.386.377.386.443 0 .61-.7.61-.729 0-.024-.02-.043-.048-.043-.043 0-.048.014-.072.095-.11.381-.286.581-.476.581-.048 0-.124-.004-.124-.157 0-.124.057-.276.076-.328.086-.229.3-.791.3-1.067 0-.286-.166-.5-.528-.5-.32 0-.577.18-.767.462-.014-.257-.172-.462-.529-.462-.424 0-.647.3-.733.419-.014-.272-.21-.42-.42-.42-.137 0-.247.067-.337.248a2.231 2.231 0 0 0-.153.481c0 .02.02.043.053.043.038 0 .042-.004.071-.114.071-.281.162-.562.352-.562.11 0 .148.076.148.22 0 .104-.048.29-.08.437l-.134.515c-.02.09-.072.304-.095.39a4.643 4.643 0 0 0-.086.372c0 .066.052.119.124.119a.183.183 0 0 0 .162-.1c.01-.024.052-.19.076-.286l.105-.429zM16.135 13.482c0-.086-.006-.089-.092-.089-.13.127-.298.203-.6.203v.105c.086 0 .257 0 .441-.085v1.628c0 .118-.01.156-.31.156h-.112v.105c.13-.01.403-.01.546-.01.143 0 .42 0 .55.01V15.4h-.112c-.301 0-.31-.038-.31-.156zM11.14 16.954c0-.086-.006-.089-.092-.089-.13.127-.299.203-.6.203v.105c.086 0 .257 0 .441-.086v1.63c0 .117-.01.155-.311.155h-.111v.104c.13-.009.403-.009.546-.009.143 0 .419 0 .55.01v-.105h-.112c-.302 0-.311-.038-.311-.156zM17.285 23.044c0-.086-.006-.089-.092-.089-.13.127-.299.203-.6.203v.105c.085 0 .257 0 .441-.085v1.628c0 .118-.01.156-.311.156h-.111v.105c.13-.01.403-.01.546-.01.143 0 .419 0 .55.01v-.105h-.112c-.302 0-.311-.038-.311-.156zM26.376 21.389c.05-.048.184-.153.235-.197.197-.181.384-.356.384-.645 0-.378-.317-.622-.714-.622-.381 0-.632.289-.632.572 0 .155.124.177.168.177a.163.163 0 0 0 .165-.168c0-.165-.159-.165-.197-.165a.49.49 0 0 1 .46-.311c.296 0 .448.25.448.517 0 .33-.231.572-.606.956l-.4.413c-.038.035-.038.041-.038.12h1.254l.092-.568h-.098c-.01.064-.035.222-.073.283-.02.025-.26.025-.312.025h-.565zM24.257 29.186c.05-.047.184-.152.234-.197.197-.18.385-.355.385-.644 0-.378-.318-.622-.715-.622-.38 0-.632.288-.632.571 0 .156.124.178.169.178a.163.163 0 0 0 .165-.168c0-.166-.159-.166-.197-.166a.49.49 0 0 1 .46-.31c.296 0 .448.25.448.517 0 .33-.232.571-.606.955l-.4.413c-.039.035-.039.042-.039.12h1.255l.092-.567h-.099c-.01.063-.035.222-.073.282-.019.026-.26.026-.31.026h-.566zM36.982 27.744c.05-.048.184-.153.235-.197.197-.181.384-.356.384-.645 0-.378-.317-.622-.714-.622-.381 0-.632.289-.632.572 0 .155.124.177.168.177a.163.163 0 0 0 .165-.168c0-.165-.158-.165-.196-.165a.49.49 0 0 1 .46-.311c.295 0 .448.25.448.517 0 .33-.232.572-.607.956l-.4.413c-.038.035-.038.041-.038.12h1.254l.092-.568h-.098c-.01.064-.035.222-.073.283-.02.025-.26.025-.311.025h-.566z"/>
</svg>
