<svg width="203.113" height="124.699" xmlns="http://www.w3.org/2000/svg">
<defs>
<marker id="a" overflow="visible" orient="auto">
<path d="m4 0 2-2-7 2 7 2z" fill-rule="evenodd" stroke="#000" stroke-width=".4pt"/>
</marker>
</defs>
<path d="m157.8 61.555 1.204 43.775" fill="none" stroke="#000" stroke-dasharray="4, 4" stroke-linejoin="round" stroke-width="2"/>
<g fill="red" color="#000">
<path d="M22.559 111.443v-.84h5.423V105.4h-4.907v-.82H33.93v.82h-4.894v5.204h5.488v.839h-5.488v4.21h-1.053v-4.21zm9.162-1.446-.878-.284q.794-1.414 1.498-3.422l1.052.31q-.956 2.233-1.672 3.396zm-6.412-.039q-.723-1.943-1.375-3.293l.975-.349q.53 1.053 1.388 3.306zM36.182 107.55l-.549-.646q1.55-1.09 2.738-2.931l.956.355q-.627.923-1.53 1.847-.898.923-1.615 1.375zm4.617-2.215v-.82h6.63v.82zm-3.196 10.325v-5.32q-.865 1-1.66 1.646l-.626-.581q1.02-.866 2.015-2.196 1-1.33 1.523-2.402l.969.272q-.581 1.123-1.57 2.44h.369v6.14zm6.876-.181h-2.008l-.11-.943h1.608q.536 0 .536-.445v-5.043h-4.397v-.807h7.877v.807h-2.402v5.475q0 .433-.335.691-.33.265-.769.265zM56.934 107.769q-.484-.478-.833-.781l-.794-.691q-.846.568-1.472.82l-.426-.588q.917-.465 1.937-1.278 1.026-.814 1.498-1.466l.942.22q-.232.4-.471.658h3.377l.252.233q-.62 1.64-2.434 2.88-1.815 1.24-4.727 1.827l-.271-.717q1.898-.336 3.422-1.117zm-.988-1.924q.685.516 1.718 1.504 1.343-.858 1.963-1.943h-3.119q-.22.187-.562.439zm-6.818 7.212-.633-.445q.581-.685 1.324-2.002.742-1.317 1.091-2.344h-1.918v-.794h1.989v-2.124q-.826.135-1.827.258l-.175-.736q2.938-.31 4.43-.904l.413.723q-.69.252-1.86.484v2.299h1.414v.794h-1.414v.646q.433.49 1.55 1.388l-.484.755q-.368-.329-1.066-1.026v5.656h-.981v-5.43q-1.13 2.118-1.853 2.802zm8.07.426q-.464-.497-.961-.904l-1.13-.955q-.84.561-1.485.839l-.407-.64q1.007-.529 2.04-1.349 1.04-.82 1.576-1.55l.942.259q-.167.284-.516.672h3.861l.271.245q-.323.955-1.265 2.13-.943 1.176-2.75 2.099-1.802.923-3.713 1.272l-.297-.71q2.234-.459 3.835-1.408zm-1.407-2.344q1.447 1.117 2.183 1.821 1.446-1.085 2.111-2.35H56.45q-.362.303-.659.53zM70.797 115.453l-.104-.878h1.02q.498 0 .73-.226.233-.226.355-1.169.13-.949.13-3.131l-.013-2.538h-1.363q-.045 2.75-.8 4.83-.75 2.072-2.112 3.286l-.633-.523q1.085-.975 1.808-2.931.723-1.963.743-4.662H69.33v-.781h1.227v-2.783h.994v2.783h2.376v3.558q-.026 1.491-.122 2.628-.09 1.136-.22 1.575-.071.232-.22.42-.142.187-.355.316-.213.136-.465.187-.167.033-1.75.039zm-8.44.013-.193-.807q.827-.052 3.035-.29v-1.111h-2.777v-.743H65.2v-.975H62.77v-3.951h2.428v-.859h-2.79V106h2.79v-.865q-1.376.11-2.234.11h-.11l-.11-.704q3.145-.077 5.262-.523l.336.73q-.717.148-2.17.297V106h2.687v.73h-2.686v.859h2.453v3.951h-2.453v.975h2.628v.743h-2.628v1q1.691-.187 2.195-.27v.722q-1.04.297-6.011.756zm5.38-7.186h-1.59v.968h1.59zm-2.506 0h-1.582v.968h1.582zm2.505 1.607h-1.588v.969h1.588zm-2.505 0h-1.582v.969h1.582zM123.474 18.388h-9.252v.704h-.956V8.128h11.196V19.04h-.988zm-9.252-.781h9.252V8.91h-9.252zm1.969-1.886V10.77h5.178v4.952zm4.184-4.196h-3.196v3.396h3.196zM126.005 17.019v-.743h2.48V15.16h-2.131v-4.765h2.156v-1.09h-2.428V8.56h2.428V7.444h.956V8.56h2.35v.742h-2.35v1.091h2.118v4.765h-2.144v1.117h2.35v.743h-2.35v2.215h-.956v-2.215zm1.24-4.642h1.291v-1.318h-1.291zm2.156 0h1.266v-1.318H129.4zm1.266.665H129.4v1.427h1.266zm-2.131 0h-1.291v1.427h1.291zm4.01-4.1v-.795h5.288v.795zm-.795 10.098-.206-.82q.33-.02.794-.065.8-1.956 1.698-5.436h-1.86v-.8h5.921v.8h-3.002q-.852 3.131-1.776 5.333 1.937-.226 3.39-.484-.555-1.363-1.065-2.505l.89-.284q.537 1.071 1.712 4.087l-.93.27q-.123-.341-.31-.826-1.459.278-5.256.73z" style="text-decoration-line:none;text-indent:0;text-transform:none"/>
</g>
<g fill="none" stroke="#000" stroke-linejoin="round" stroke-width=".25">
<path d="m157.804 61.733-2.178-1.06M146.655 59.983l1.722.013M149.937 59.036l-.572.116-2.71.83-4.433 1.455-.319.105-3.344 1.477-.166.107M157.804 61.733l-1.564-1.355M157.804 61.733l-.767-1.73M157.804 61.733l.296-1.522M157.804 61.733l.97-1.158M157.804 61.733l1.425-.913M202.489 101.808l-.439-4.642-.275-2.911-1-3.83-1.45-4.43-.866-2.651-2.4-3.998-1.493-2.488-2.119-2.921-3.247-3.347-1.747-1.8-2.818-2.212-3.96-2.466-1.62-1.01-2.942-1.492-3.578-1.213-4.477-1.211-2.841-.622-1.189-.148M157.804 61.733l1.778-.714M157.804 61.733l2.047-.527"/>
<path d="m170.539 60.027-2.48-.842-2.393.206M170.539 60.027l4.487 1.273 1.088.309M157.804 61.733l2.3-.35M172.56 61.06l-2.022-1.032-3.925.013M172.56 61.06l4.45 1.4.75.235M157.804 61.733l2.563-.168"/>
<path d="m174.048 62.248-1.487-1.19-4.655-.31-.288-.02M174.048 62.248l2.535.909M181.248 64.829l-2.191-1.727-1.11-.348M181.248 64.829l3.931 2.51 2.274 1.45 1.761 2.448M189.215 71.237l3.216 3.377 2.136 2.243.776 3.112M157.804 61.733l2.86.04M174.933 63.55l-.886-1.302-4.624-.618-.669-.09M174.933 63.55l.316.132M182.588 66.732l-1.34-1.903-2.918-1.045"/>
<path d="m182.588 66.732 3.857 2.622 2.77 1.883.603 2.599M157.804 61.733l3.232.298"/>
<path d="m183.005 68.742-.417-2.011-3.764-1.564M183.005 68.742l3.735 2.792 3.078 2.301M189.2 76.49l.617-2.655 3.121 3.465 2.404 2.67M194.694 83.16l.648-3.19 2.35 4.026 1.68 2.878M199.373 86.874l-.914-3.53"/>
<path d="m198.716 90.503.656-3.63 1.444 4.434.959 2.947-.538 3.232-.118.71M189.2 76.49l2.965 3.6 2.529 3.07"/>
<path d="m192.59 86.306 2.104-3.145 2.24 4.089 1.782 3.253M196.445 94.089l.847-1.338 1.424-2.248 1.39 4.45.512 1.638.502 1.606M198.758 102.097l2.361-3.9.431 4.641.286 3.078"/>
<path d="m115.23 105.502 1.394 4.062 2.935 3.623.196.243 3.773 2.74 1.036.754 4.229 1.968 2.108.981 4.474 1.321 3.147.93 4.601.766 3.974.661 4.658.267 4.477.256 4.66-.208 4.597-.206 4.615-.685 4.319-.642 4.51-1.192 3.68-.974 4.319-1.76 2.76-1.125 3.986-2.422 1.696-1.03 3.394-3.199.69-.65 2.355-4.024.024-.042.652-4.108M157.804 61.733l3.753.66M182.458 70.787l.546-2.045-3.586-1.75M182.458 70.787l3.56 3.011 3.183 2.692-1.853 2.606M187.348 79.097l2.742 3.771 2.5 3.438M189.06 89.272l1.259-1.058 2.27-1.908 2.07 4.178.085.172 1.7 3.433"/>
<path d="m192.585 97.478 3.504-3.078.355-.312 1.294 4.48 1.02 3.529"/>
<path d="m194.714 105.788 3.444-3.144.6-.548.412 4.644.287 3.24M157.804 61.733l4.5 1.226.11.03M189.06 89.272l1.84 4.283 1.684 3.923"/>
<path d="m187.243 100.515 4.054-2.305 1.287-.732 1.158 4.516.972 3.795"/>
<path d="m189.095 109.1 4.017-2.368 1.602-.944.382 4.646.278 3.395M157.804 61.733l4.34 1.71 1.912.753M184.293 81.546l3.055-2.45-3.322-3.273-3-2.956M184.293 81.546l2.449 3.967 1.008 1.633 1.311 2.125-4.093 2.237-.759.414M163.77 65.094l2.524 2.11M180.13 83.729l2.543-1.334M180.13 83.729l.574 1.154 2.078 4.174 1.427 2.865M178.208 94.133l4.377-1.612 1.624-.599 1.552 4.397 1.482 4.195M180.608 103.05l4.357-1.665 2.278-.87.982 4.556.869 4.029M182.096 111.868l4.338-1.716 2.66-1.052.34 4.65.258 3.532M157.804 61.733l4.063 2.29 1.902 1.071M178.208 94.133l1.211 4.502 1.189 4.415M172.95 104.953l4.527-1.125 3.131-.778.776 4.597.712 4.22M174.006 113.946l4.518-1.16 3.572-.918.29 4.652.227 3.648M157.804 61.733l3.576 2.993.98.82"/>
<path d="m162.36 65.546 1.41-.452.858-.402M160.77 65.882l1.59-.336 2.025 2.41M171.173 77.69l3.587-1.225M171.173 77.69l2.047 4.19.8 1.64.99 2.024"/>
<path d="m175.01 85.544 3.422-1.214 1.697-.601-2.582-3.883-1.801-2.71M169.14 86.903l4.544-1.053 1.325-.306 1.627 4.37 1.572 4.219-4.536 1.088-2.371.569M163.74 71.613l1.728 4.33 1.108 2.776M166.577 78.719l4.595-1.028-2.496-3.938-1.028-1.622M161.605 79.35l4.627-.587.344-.044 1.269 4.051 1.294 4.133M162.772 87.737l4.625-.606 1.742-.228 1.102 4.53 1.06 4.357"/>
<path d="m163.79 96.807 4.623-.626 2.888-.392.826 4.589.823 4.575M164.608 106.12l4.62-.646 3.722-.521.543 4.63.513 4.363M165.182 115.22l4.617-.667 4.206-.607.232 4.655.186 3.733M157.804 61.733l2.71 3.793.256.356"/>
<path d="m159.06 66.087 1.71-.206 1.504 2.904M164.608 106.12l.294 4.654.28 4.446"/>
<path d="m156.042 115.619 4.66-.204 4.48-.196.17 4.66.138 3.781M157.804 61.733l1.256 4.354M157.302 66.154l1.759-.067.986 4.556.3 1.387M160.348 72.03l3.392-.418M156.85 72.166l3.497-.136.79 4.595.468 2.724M156.473 79.553l4.661-.184.47-.02.439 3.15.642 4.616.087.622M156.19 88.004l4.662-.19 1.92-.077.52 4.633.498 4.437M156.02 97.13l.058-.002 4.661-.194 3.051-.127.408 4.644.41 4.67-4.661.199-3.978.17M156.473 79.553l-.103 3.096-.156 4.66-.024.695"/>
<path d="m149.695 87.689 4.659.225 1.837.089-.087 4.66-.084 4.435v.031M148.35 96.742l4.659.235 3.01.153-.025 4.661-.006 1.118-.02 3.58"/>
<path d="m147.444 106.039 4.658.246 3.866.204.037 4.662.036 4.468"/>
<path d="m147.022 115.122 4.657.256 4.362.24.106 4.662.085 3.794M157.804 61.733l-.503 4.421M155.564 66.079l1.738.075-.35 4.648-.101 1.364M153.397 72.013l3.454.153-.238 4.656-.14 2.73-4.66-.215-.406-.02M147.022 115.122l.042 4.661.034 3.768M157.804 61.733l-2.137 4.144-.104.202M153.916 65.866l1.647.213-1.6 4.379-.567 1.554M150.13 71.578l3.266.435-1.225 4.498-.765 2.807M146.625 78.658l4.62.637.16.022-.775 3.793-.936 4.579"/>
<path d="m143.576 86.812 4.617.662 1.502.215-.286 1.921-.456 3.074-.12.801-.483 3.257"/>
<path d="m141.138 95.665 4.613.689 2.599.388-.239 2.448-.452 4.64-.215 2.209M139.436 104.795l4.609.715 3.398.528-.217 4.657-.205 4.427-4.606-.742-3.863-.622M146.625 78.658l-1.634 4.366-.35.937-1.066 2.85M138.104 85.415l.035.009 4.52 1.153.916.234-.493 1.792-1.238 4.495-.706 2.566M134.707 93.958l4.508 1.196 1.923.51-.068.362-.854 4.583-.78 4.186"/>
<path d="m132.31 102.828 4.497 1.24 2.63.726-.458 4.64-.426 4.323M131.026 111.604l4.484 1.283 3.042.87-.017 4.662-.014 3.705M157.804 61.733l-3.195 3.396-.694.737M152.425 65.524l1.49.342-2.576 3.886-1.21 1.825M147.51 70.958l2.62.62-2.069 4.178-1.436 2.903-4.291-1.054M131.026 111.604l-.071 4.661-.055 3.608M157.804 61.733l-3.813 2.687-1.566 1.104M151.15 65.067l1.275.457-2.661 2.722M142.334 77.605l-2.22 4.1-2.01 3.71M133.509 83.572l4.329 1.737.266.106-.01.024-.887 2.23-1.722 4.333-.778 1.955"/>
<path d="m129.33 91.709 2.81 1.175 2.567 1.073-.721 2.67-1.216 4.5-.46 1.7M126.373 100.245l4.276 1.86 1.661.723-.675 4.613-.61 4.163-4.251-1.918-2.009-.906M133.509 83.572l-1.667 3.244-.463.902-.91 1.775-1.139 2.216"/>
<path d="m125.217 89.034 1.466.953 2.648 1.722-1.527 4.406-1.43 4.13M121.852 97.178l3.86 2.618.66.449-.862 4.58-.745 3.955"/>
<path d="m120.012 105.432 3.813 2.685.94.662-.115 4.66-.086 3.485M157.804 61.733l-4.17 2.09-2.485 1.244M150.139 64.513l1.01.553-3.152 2.384M138.71 76.21l3.624 1.395 2.728-3.78 1.84-2.55M138.71 76.21l-2.69 3.808-2.511 3.554-2.636-1.639M157.804 61.733l-4.385 1.59-3.28 1.19M149.854 64.26l.284.253-2.22 1.294M129.968 81.37l.563.35M129.968 81.37l-2.457 3.963-2.295 3.7"/>
<path d="m122.5 86.059 2.717 2.975-1.02 2.469-1.78 4.309-.565 1.366M118.89 93.777l.987 1.133 1.974 2.267-1.014 4.55-.825 3.705M116.915 101.726l2.99 3.578.107.128-.15 4.66-.107 3.338M130.827 80.38l-.859.99-2.366-2.457"/>
<path d="m127.602 78.913-2.71 3.794-2.393 3.351"/>
<path d="m121.24 82.917 1.26 3.142-1.975 4.223-1.634 3.495M117.553 90.195l1.338 3.581-.744 2.99-1.125 4.525-.108.434M115.533 97.83l.747 2.109.634 1.787-.173 4.658-.118 3.18M157.804 61.733l-4.518 1.161-2.268.583M133.038 70.662l.322.68M133.038 70.662l-3.536 3.04-3.032 2.606"/>
<path d="m126.47 76.308 1.132 2.605 3.332-3.264 1.459-1.429"/>
<path d="m126.579 73.663-.108 2.645-2.894 3.657-2.336 2.951M121.436 79.739l-.196 3.177-2.107 4.159-1.58 3.12M117.822 86.584l-.27 3.611-1.192 4.507-.827 3.128"/>
<path d="m136.093 64.608-.192.123-3.823 2.671-1.787 1.25-2.41 2.427-3.066 3.513-1.793 2.056-2.18 4.121-1.222 2.312-1.798 3.502-1.213 4.502-.761 2.822-.315 3.922-.183 4.658-.12 3.015M157.804 61.733l-4.6.776-.92.155"/>
<path d="m121.436 79.739-2.177 4.123-1.438 2.721M157.804 61.733l-4.693.415M133.066 68.622l-.027 2.04.689-.4M133.066 68.622l-3.683 2.861-2.804 2.18"/>
<path d="m134.04 66.62-3.778 2.736-2.381 1.724-1.302 2.583-3.013 3.56-2.13 2.516 1.586-3.09M141.275 63.48l-1.067.464M134.04 66.62l-.974 2.002 1.613-.804M157.804 61.733l-4.092.041M157.804 61.733l-3.604-.263M142.527 62.185l-1.253 1.296M142.527 62.185l-3.359 1.29M136.065 64.668l-.164.063-1.861 1.889 1.436-.624M145.597 61.759l-3.07.426 1.819-1.18M144.346 61.005l-4.406 1.533-1.38.481M155.087 60.93l2.717.802-3.164-.537M146.655 59.983l-2.31 1.022 2.7-.188M138.605 76.147l.106.063.32-.335M140.915 64.262l.36-.781 2.795-.579M142.143 64.428l-.53.147M149.69 59.188l-.325-.036M162.696 69.599l1.043 2.014 2.087-.453M164.558 58.697l.66-.134M170.059 62.563l4.571.926.303.062.042.239M171.633 63.935l1.741.485M180.192 69.47l2.266 1.317-1.467 1.935M182.268 79.139l2.024 2.407-1.528.8M42.855 27.628l1.744.515 1.857.548M43.723 27.36l-.868.268"/>
<path d="m39.514 27.602 2.905.023.436.003-.733.328M43.723 27.36l-2.52-.276"/>
<path d="m44.55 26.532-1.472.171-1.876.381-1.688.517-2.76.907-.198.065-2.082.92-1.656 1.066-2.38 1.664-1.113.778-1.5 1.513-1.909 2.188-1.117 1.28-.3.57-1.358 2.568-.46.87-.36.703-.759 1.478-.755 2.805-.474 1.758-.196 2.443-.114 2.902-.074 1.877.535 2.854.329 1.758.85 2.508M72.04 64.15l1.016-2.721.218-.586.405-2.56.373-2.88.226-1.748-.273-2.891-.171-1.814-.622-2.386-.868-2.652-.575-1.759-.571-.952-.311-.52-.897-1.494-.645-1.074-1.319-1.82-2.022-2.084-1.087-1.122-1.755-1.378-2.465-1.536-1.009-.628-1.832-.93-2.228-.756-2.787-.754-1.77-.388-1.93-.24-.873-.035M48.834 27.17l-.55-.069M48.834 27.17l2.238-.453"/>
<path d="m49.745 27.37-.911-.2-.54.344M49.745 27.37l2.894-.248.202-.017 1.544.524"/>
<path d="m50.536 27.642-.79-.272-1.44.579M50.536 27.642l2.905-.01.944-.003"/>
<path d="m55.644 28.272-1.26-.643 2.795.793.677.192M48.312 28.214l2.224-.572.64.331M51.175 27.974l2.898.193 1.571.105M56.57 29.013l-.926-.74 2.77.871 1.275.4 1.364 1.076"/>
<path d="m51.638 28.353-.463-.38-2.859.435M51.638 28.353l2.879.385 2.053.274M57.121 29.824l-.551-.812 2.734.98 1.749.628M61.887 31.805l-.834-1.185 2.448 1.563 1.416.904 1.096 1.524"/>
<path d="m48.32 28.569 2.899-.19.419-.027.267.414M51.906 28.767l2.846.577 2.37.48"/>
<path d="m57.271 30.677-.15-.854 2.682 1.115 2.084.867M62.147 33.058l-.26-1.253 2.401 1.634 1.725 1.173M66.389 36.23l-.376-1.618 2.002 2.104 1.33 1.397.281 1.126.203.813M69.829 40.052l.134.229.68 1.165 1.463 2.509.03.05.202.348"/>
<path d="m72.338 44.353-.101-.393-.468-1.807M71.93 46.613l.408-2.26.899 2.76.597 1.836-.408 2.456M51.966 29.199l-.06-.433-2.905-.04-.677-.009M51.966 29.199l2.798.78 2.507.698M57.006 31.54l.265-.862 2.61 1.274 2.266 1.106M61.806 34.332l.34-1.274 2.326 1.74 1.917 1.433"/>
<path d="m66.005 37.884.384-1.654 1.943 2.158.825.917.672.746-.032.157-.36 1.77-.012.061M57.006 31.54 59.517 33l2.29 1.332"/>
<path d="m60.863 35.576.943-1.245 2.217 1.876 1.982 1.676M64.85 39.508l1.155-1.624 1.845 2.242L69.392 42l.033.04"/>
<path d="m68.115 43.999 1.31-1.96 1.4 2.558 1.104 2.016M70.515 48.847l1.414-2.234.866 2.772.63 2.02M71.955 53.835l1.47-2.43.27 2.892.177 1.917M73.872 56.214l.406-2.56M51.814 29.634l.152-.435-2.893-.267-.745-.068"/>
<path d="m72.391 58.747 1.466-2.507.015-.026-.372 2.88-.226 1.75-1.449 2.53M51.814 29.634l2.727 1 2.465.906-.676.84M70.515 48.847l.806 2.79.634 2.198"/>
<path d="m69.438 56.135 2.144-1.959.373-.341.257 2.893.18 2.018M51.455 30.054l.359-.42-2.86-.504-.623-.109M69.848 61.144l2.114-1.992.43-.406-.353 2.883-.214 1.745M51.455 30.054l2.621 1.25 2.254 1.075"/>
<path d="m71.37 63.813.455-.44-.206.565M23.012 66.154l.485 1.103 1.759 2.312.946 1.243 1.636 2.089 2.287 1.79.938.735 2.098 1.6 2.603 1.287.108.054 2.727.992 2.502.79 2.784.5 2.316.145.63.04 2.767-.13.215-.011 2.888-.459 2.669-.755 2.34-1.016 2.658-1.169.179-.078 2.445-1.573 2.178-1.922.649-.572 2.067-2.04.034-.034 1.623-2.408.763-1.131.046-.082M55.26 33.16l1.07-.78 2.373 1.673 2.16 1.523M59.34 36.74l1.523-1.164 2.068 2.039 1.92 1.893"/>
<path d="m62.949 41.034 1.902-1.526 1.707 2.35.767 1.054.79 1.087"/>
<path d="m65.918 45.846 2.197-1.848.736 1.488 1.289 2.603.375.757-2.182 1.917-.221.195M70.338 67.447l-.032.089-2.074 2.033-.257.252M67.975 69.82l-1.58 2.438-.576.89-2.445 1.568-.44.283M59.34 36.74l1.869 2.224 1.74 2.07M60.357 42.394l2.592-1.36 1.524 2.471.323.523 1.122 1.818M62.897 47.498l2.423-1.325.598-.327.32.748 1.146 2.669.728 1.695M64.786 52.85l2.524-1.436.802-.456.72 2.813.606 2.364M65.938 58.198l2.502-1.475.998-.588.237 2.894.173 2.115M50.9 30.443l.555-.39-2.803-.763-.316-.086M66.31 63.295l1.825-1.11 1.713-1.041-.196 1.805M50.9 30.443l2.465 1.536 1.896 1.181M53.837 33.85l1.424-.69 2.183 1.916 1.896 1.665-2.053 1.034"/>
<path d="m65.938 58.198.212 2.896.018.245.143 1.956-2.249.916-2.16.881M46.456 28.69l1.893 1.068 1.821 1.027"/>
<path d="m50.17 30.786.73-.343-2.558-1.008M65.902 67.914l2.419-1.508"/>
<path d="m49.293 31.067.877-.282 2.228 1.863 1.439 1.203M65.902 67.914l-.812 2.788-.338 1.162M64.752 71.865l2.453-1.556.77-.489.93-2.75.105-.308"/>
<path d="m52.11 34.42 1.727-.57 1.917 2.181 1.533 1.744M60.752 73.569l2.672-1.138 1.328-.566-1.458 2.512-.36.622M54.78 38.632l2.507-.857 1.608 2.418 1.461 2.2"/>
<path d="m59.367 76.537 2.667-1.15.9-.389-2.128 1.977-.26.24-2.664 1.157-.34.147M57.169 43.524l2.737-.971.45-.16 1.294 2.6 1.247 2.504M59.16 48.874l2.725-1.005 1.011-.372.967 2.738.923 2.614M60.655 54.429l2.712-1.037 1.419-.543.611 2.84.541 2.508-2.7 1.07-1.657.655M54.78 38.632l1.274 2.61 1.115 2.281M59.367 76.537l-1.825 1.982M53.514 44.37l2.83-.655.825-.19 1.013 2.721.978 2.628M54.1 79.492l2.795-.79.647-.182-2.172.959M54.86 49.906l2.824-.678 1.476-.354.754 2.804.74 2.75"/>
<path d="m55.886 55.614 2.819-.701 1.95-.485.483 2.864.443 2.63"/>
<path d="m56.543 61.216 2.813-.723 2.225-.572.18 2.899.142 2.272M46.456 28.69l1.907 1.597.93.78"/>
<path d="m56.804 66.44 2.808-.742 2.29-.607-.18 2.899-.106 1.715M61.616 69.706l2.68-1.12 1.606-.672.233-2.634M48.303 31.276l.083-.018.907-.191 1.868 2.223.95 1.131M56.662 71.049l2.803-.76 2.151-.584-.634 2.834-.23 1.03M50.152 34.846l1.959-.425 1.554 2.453 1.115 1.758-2.862.64M56.137 74.845l2.8-.774 1.815-.502-1.228 2.632-.157.336-2.797.784-1.305.365M56.543 61.216l.145 2.9.116 2.325M46.456 28.69l1.688 2.364.159.221"/>
<path d="m51.241 67.268 2.873-.428 2.69-.4-.09 2.903-.052 1.706M47.239 31.404l1.064-.128.088.17 1.336 2.579.425.82"/>
<path d="m51.26 71.87 2.872-.436 2.53-.385-.398 2.876-.127.919M48.04 35.107l2.112-.26 1.076 2.696.69 1.73M51.11 75.624l2.87-.446 2.157-.334-.852 2.776-.02.066M48.823 39.666l2.88-.366.215-.027.868 2.771.728 2.327M50.805 78.388l2.87-.451 1.59-.25-1.166 1.805"/>
<path d="m49.55 44.89 2.88-.378 1.084-.142.686 2.822.66 2.714M50.365 80.084l2.868-.455.866-.137-1.398.742M50.183 50.54l2.879-.39 1.798-.244.514 2.858.512 2.85M50.692 56.342l2.876-.403 2.318-.325.339 2.884.318 2.718-2.874.415-2.62.379M50.805 78.388l-.44 1.696M49.55 44.89l.323 2.886.31 2.764M46.503 80.266l2.902-.137.18-.008.78-.037-.552.61"/>
<path d="M45.345 50.74h.037l2.902-.121 1.9-.08.253 2.894.255 2.909M45.313 56.572l2.902-.124 2.477-.106.183 2.898.175 2.77"/>
<path d="m45.358 62.259 2.902-.127 2.79-.122.106 2.902.085 2.356M46.456 28.69l.783 2.713M45.478 67.526l2.901-.13 2.862-.128.012 2.904.007 1.7M46.143 31.446l.728-.028.368-.014.041.193.614 2.839.146.67"/>
<path d="m45.663 72.127 2.902-.133 2.695-.123-.116 2.902-.034.851M45.862 35.19l2.178-.084.491 2.862.292 1.697"/>
<path d="m45.905 75.865.146-.007 2.901-.135.524-.024 1.634-.075-.305 2.763-1.262.06-2.901.135-.452.021M45.627 39.792l2.903-.115.293-.012.4 2.876.326 2.349-2.902.117-1.195.049M46.456 28.69l-.275 2.425-.038.33M45.478 67.526l.117 2.901.068 1.7M45.061 31.399l1.082.046-.217 2.896-.064.85"/>
<path d="m40.14 71.8 2.9.171 2.623.155.188 2.898.054.84M43.712 35.095l2.15.095-.148 2.9-.087 1.701M40.767 75.554l2.899.175 2.239.136.206 1.98.079.758M42.473 39.646l2.901.134.253.012-.096 2.902-.08 2.362M41.633 78.323l2.899.178 1.602.099.056.003.313 1.662"/>
<path d="m41.407 44.86 2.9.14 1.145.055-.055 2.904-.052 2.762v.02M42.69 80.028l2.898.18.596.037.32.02.327.568"/>
<path d="m40.57 50.5 2.9.146 1.875.095-.016 2.904-.003.697-.013 2.23"/>
<path d="m40.006 56.29 2.9.154 2.407.127.023 2.904.022 2.784"/>
<path d="m39.743 61.949 2.9.16 2.715.15.066 2.903.054 2.363-2.9-.166-2.788-.16M41.407 44.86l-.178 1.196-.284 1.915-.074.499-.301 2.029M42.69 80.028l1.195.621M36.08 49.829l2.872.429 1.618.242-.149 1.525-.281 2.89-.134 1.376M35.02 55.516l2.87.445 2.116.33-.135 2.9-.129 2.758"/>
<path d="m34.47 61.099 2.867.462 2.406.388.026 2.903.02 2.348M46.456 28.69l-1.07 2.077-.325.631"/>
<path d="m34.45 66.31 2.865.478 2.475.412.22 2.895.13 1.705M44.035 31.266l1.026.132-.996 2.728-.353.969M34.952 70.913l2.863.49 2.325.397.478 2.865.149.89M41.678 34.824l2.034.27-.763 2.803-.476 1.748"/>
<path d="m35.936 74.709 2.861.5 1.97.344.865 2.77M39.496 39.235l2.877.397.1.014-.582 2.845-.484 2.37-2.875-.413-.935-.135"/>
<path d="m37.343 77.56 2.86.509 1.43.253 1.056 1.706-2.859-.512-.737-.132M34.45 66.31l.315 2.887.187 1.715M44.035 31.266l-1.604 2.42-.753 1.137"/>
<path d="m30.338 69.513 2.78.843 1.834.556.729 2.811.255.986M39.845 34.39l1.833.434-1.288 2.603-.894 1.808"/>
<path d="m31.633 73.378 2.775.858 1.528.473 1.285 2.605.122.247M36.824 38.579l2.672.656-1.017 2.72-.882 2.358"/>
<path d="m33.512 76.359 2.77.87 1.06.331 1.751 1.824M34.19 43.444l2.814.718.593.151-.307 1.117-.77 2.8-.44 1.598"/>
<path d="m33.512 76.359 2.212 1.881.148.126 2.77.875.451.143 2.008.765M32.075 48.765l2.807.745 1.197.318-.042.225-.532 2.855-.485 2.608M30.583 54.29l2.8.774 1.637.452-.285 2.89-.265 2.693M29.784 59.758l2.792.8 1.894.541-.011 2.904-.009 2.308-2.785-.823-1.96-.579M46.456 28.69l-1.694 1.803-.727.773-.928-.214"/>
<path d="m32.075 48.765-.449 1.662-.757 2.804-.286 1.06M26.886 52.68l2.663 1.16 1.034.45-.42 2.873-.38 2.594"/>
<path d="m25.885 57.998 2.648 1.195 1.25.564-.044 2.904-.005.394-.002.069-.027 1.784M46.456 28.69l-1.802 1.271-1.547 1.091M25.76 63.072l2.011.936 1.934.901.396 2.877.237 1.727M42.313 30.768l.794.285-2.03 2.076-1.232 1.26M26.497 67.679l2.621 1.251 1.22.583.923 2.753.372 1.112M38.288 33.812l1.557.577-1.699 2.356-1.322 1.833"/>
<path d="m28.042 71.63 2.612 1.271.98.477 1.547 2.457.33.524-2.605-1.282-.603-.297M34.568 37.709l2.256.87-1.382 2.553-1.252 2.311M31.33 42.296l2.695 1.082.165.066-.552 1.388-.006.016-.015.038-1.072 2.699-.47 1.18-1.598-.668-1.75-.732M26.497 67.679l1.058 2.704.487 1.248M38.288 33.812l-2.005 2.1-1.715 1.797"/>
<path d="m25.3 69.557 2.317 1.752.425.321 1.693 2.36.568.79M32.815 36.667l1.753 1.042-1.675 2.372-1.564 2.214"/>
<path d="m25.3 69.557 1.756 2.313.782 1.03 2.31 1.762.155.117 2.283 1.795.575.451M29.125 40.924l2.204 1.371-.56 1.093-.477.928-.856 1.668-.153.298-.555 1.082M26.166 45.698l2.435 1.583.127.083-.95 2.745-.892 2.572M24.071 50.77l2.403 1.632.412.28-.537 2.853-.464 2.463"/>
<path d="m22.926 55.913 2.374 1.672.585.413-.071 2.903-.009.345-.045 1.825-1.545-1.122-1.45-1.054M46.456 28.69l-1.813.91-2.33 1.168M41.683 30.423l.63.345-2.317 1.752-1.708 1.292-1.221-.696"/>
<path d="m24.071 50.77-.632 2.835-.513 2.308M20.997 53.604l1.862 2.228.067.08-.094 2.903-.066 2.08M46.456 28.69l-1.82.661-2.73.99-.223.082"/>
<path d="m20.816 58.487 1.827 2.257.123.15.276 1.573M41.242 30.033l.441.39-2.508 1.464-2.108 1.23M36.225 32.332l.842.784-2.23 1.861-2.022 1.69M31.626 35.498l1.189 1.169-1.902 2.194-1.788 2.062M27.651 39.393l.506.525.968 1.005-.774 1.249-1.53 2.468-.175.283-.48.774M24.474 43.845l1.692 1.853-1.108 2.684-.987 2.389-1.843-2.119"/>
<path d="m36.225 32.332-2.392 1.646-2.207 1.52M23.718 65.836l1.137 2.672.446 1.05-1.803-2.3M31.036 34.253l.59 1.245-2.074 2.032-1.586 1.554-.315.309M26.947 37.77l.538 1.24.166.383-.714 1-.56.786-1.687 2.364-.194.272-.022.03M23.69 41.887l.764 1.906.02.05-1.23 2.632-1.016 2.177M21.394 46.42l.834 2.232-.7 2.818-.531 2.133"/>
<path d="m21.394 46.42-.742 2.808-.515 1.948.86 2.427-.108 2.902-.073 1.981M46.456 28.69l-1.826.47-2.813.724-.575.148"/>
<path d="m19.949 55.956.867 2.53.528 2.855.321 1.733M41.005 29.61l.237.422-2.64 1.21-2.377 1.09-.435-.84"/>
<path d="m46.456 28.69-1.83.31-2.865.483-.756.128M40.98 29.177l.025.434-2.732.986-2.483.895M35.772 30.63l.018.863-2.511 1.458-2.243 1.302"/>
<path d="m31.053 32.983-.017 1.27-2.201 1.894-1.888 1.623M27.014 36.123l-.067 1.647-.817 1.033-1.801 2.277-.638.807"/>
<path d="m23.812 39.908-.121 1.979-.608 1.2-1.312 2.59-.377.744.168-2.25.776-1.469 1.355-2.568.12-.226M31.053 32.983l-2.293 1.782-1.746 1.358"/>
<path d="m31.66 31.736-2.353 1.703-1.482 1.074-.811 1.61-1.875 2.217-.233.274-1.094 1.293.695-1.354.292-.57M46.456 28.69l-1.835.163-2.894.257-.747.066M41.165 28.745l-.185.431-2.797.781-2.41.673"/>
<path d="m36.164 29.78-.392.85-2.6 1.295-2.119 1.057.607-1.247M46.456 28.69l-1.84.02-2.904.03-.547.005M41.55 28.333l-.385.412-2.844.588-2.157.447"/>
<path d="m36.944 28.973-.78.807-2.664 1.157-1.84.799 1.158-1.177 2.712-1.042 1.414-.544M42.122 27.956l2.484.421 1.85.314-1.844-.135-2.897-.211-.164-.012"/>
<path d="m38.077 28.238 2.897-.202 1.148-.08-.571.377-2.877.4-1.73.24 1.133-.735M39.514 27.602l-1.438.636-2.743.956-.86.3M71.198 41.2l.438-.193-.75-.325M26.035 64.79l.462 2.888-2.33-1.734-.26-.194M44.57 27.187l-.847.173.865.421M44.568 27.127l-1.49-.424M48.278 26.853l.863-.375"/>
</g>
<path d="m49.598 80.703.072 2.903.064 2.626 2.48 1.511 1.028.627-1.342 2.575-1.342 2.576-1.342 2.575-.862 1.653-.948-2.745-.948-2.745-.949-2.744-.948-2.745-.948-2.745-.667-1.93 2.48 1.51.877.535-.089-2.902-.013-.444M48.35 29.759l-.009-.325-.006-.23-.005-.183-.004-.157-.004-.147-.003-.148-.004-.16-.002-.117-.003-.078-.007-.265-.01-.434-.01-.414-.005-.226v-.023l-.011-.41-.071-2.903-.071-2.903-.042-1.704 2.7 1.07 1.207.48-.921-2.755-.921-2.754-.922-2.754-.92-2.754-.922-2.754-.921-2.754-.75-2.242-.99 2.73-.99 2.73-.99 2.73-.99 2.73-.99 2.73-.21.582 2.7 1.07 1.019.404.088 2.903.088 2.902.089 2.903.012.402.012.383v.033l.006.18.002.06.018.594.01.362" color="#000" fill="#d0dfff" stroke="#000df2" stroke-width=".8"/>
<g stroke-width=".9" color="#000">
<path d="m27.772 64.008-1.069.481-.466.21-.202.091-1.214.548-.914.412-.19.085-.235.107-.375.169-.095.042-2.647 1.194-2.087.941 2.475 1.52 1.137.698-2.867.465-2.867.466-2.866.465-2.867.466-2.868.465-2.866.466-2.91.472 2.03-2.076 2.03-2.076 2.032-2.076 2.03-2.076 1.419-1.45 2.475 1.52.96.589 2.657-1.174 2.657-1.173 1.593-.703.003-.001.2-.09.94-.414.102-.045.135-.06 1.173-.518M69.99 39.188l2.876-.408 2.875-.407 2.876-.408 2.876-.407 2.124-.301-1.608 2.418-1.607 2.419-1.405 2.113-2.663-1.158-1.058-.46-2.647 1.195-.285.128" fill="#c5ffca" stroke="#139800"/>
<path d="m22.32 42.694-.552-.285-2.706 1.055-1.349.525-1.128-2.676-1.129-2.675-.664-1.577 2.87.442 2.871.44 2.871.441 1.094.168M64.062 64.212l1.743.898.33.17 1.555.802.631.325.689.355.286.147.203.105.68.351.16.082.013.007 2.257 1.163-2.574 1.345-1.601.836 2.858.518 2.858.517 2.858.518 2.858.517 2.858.518 2.858.517 2.426.44-1.725-2.336-1.726-2.336-1.725-2.336-1.726-2.336-.437-.592-2.574 1.344-1.409.736-2.594-1.305-2.052-1.032-.187-.094-.234-.118-.248-.125-.016-.008-1.454-.731-.249-.125-1.517-.764" fill="#ffdbdb" stroke="red"/>
<path d="m180.577 58.726-.5-.168-.194-.065-8.374-3.442-2.61-.808-2.283-.684-.417.347.339.138.596.243.597.243.6.244-1.552-.081-1.436-.076-3.028.281-.34.041-1.642.2-1.673.445-.666.19.902.293 1.502.489 1.518.772.92.469.668-.194 1.674-.455 1.643-.208 1.633-.208 1.61-.137 1.56.076 1.55.076.613.25.613.249.615.25.617.251.617.252.62.252.62.253.623.254.867-.137.409.02h.008l.219.011.173.01.133.01.485.04h.011l.16.014.667.362.659.358.552.56.498.652.445.724-2.25-1.46-2.169-1.301" fill="#c5ffca" stroke="#139800"/>
<path d="m163.444 58.106.585.31.529.28.419.222.27.185.419.288.834.571.113.078 1.005.689.413.282.724.529.234.171.568.415.502.436.995.868.58.504.924.806.214-.084.46-.18.143-.057.53-.208.67-.264.4-.158.269-.105.005-.002.662-.26.521-.206.089-.034.056-.022.006-.004.657-.259.519-.203.028-.012.117-.045.043.116.015.041.367.988.006.018.34.916.147.45.583 1.788.011.037.079.245.14.439.495 1.55.06.243.556 2.263.135.553.108.437.036.145.34 1.387.52 2.671.263 1.524.118.69.093.536.404 2.671.02.138-.112-.09-2.34-1.855-2.507-1.904-1.66-1.195-.42-.304-.27-.194-.21-.15-.506-.327-2.155-1.386-2.663-1.712-1.628-.877-.666-.36-.48-.257-1.342-.713-1.438-.763-1.22-.577-.472-.222-1.131-.534.699-.275.01-.004.687-.27.696-.273.695-.274.033-.013.66-.26.69-.271.56-.22.13-.051.688-.27-1.506-1.328-.67-.591-.31-.272-.518-.458-.052-.038-1.475-1.092-.167-.115-.857-.597-.507-.352-.014-.01-.372-.259-.297-.207-.263-.182-.22-.153-.033-.024-.208-.144-.061-.043-.055-.038-.298-.16-.455-.246-.674-.364-.105-.056-.605-.314.86-.394.17-.079.689-.316.306-.14.299-.137.406-.187 1.477-.43.22-.064 1.02-.297zM141.887 57.298l-2.028 1.17-2.164 1.374-2.108 1.447.11-.721.157-.649.207-.557.306-.355.309-.36.361-.051.067-.01.109-.01.333-.03.447.125.033.01.02.005.161-.059.532-.192.692-.25.076-.028.444-.16.146-.053.023-.01.688-.248.581-.21.106-.038.392-.142.293-.106.683-.247.682-.247 1.338-.07 1.347-.071 1.401.142 1.426.212 1.435.213 1.475.46.59.196 1.027-.465 1.696-.767 1.695-.483 1.019-.29-.591-.193-1.48-.449-1.44-.204-1.43-.204-1.407-.134-1.354.077-1.345.077.669-.242.667-.241.666-.241.664-.24.662-.24.662-.239.66-.239.658-.238-2.55.61-2.487.78-2.466.799-5.557 2.096-1.362.405-.237.115-.152.046-.756.23-.499.18-.337.168-.526.165-.65.23" fill="#ffdbdb" stroke="red"/>
</g>
<path d="m142.966 47.163.028.676.035.841.626-1.053m-2.766-10.164.038.872.037.87.038.868.037.868.038.865.037.864.038.863.037.861.123.849.45.83.772.794.432.296.537.367.116.08.036.017 1.337.656 1.664.581 1.888.483 2.077.373 2.222.254 2.32.13 2.366.002 2.362-.126 2.305-.25.02.879.02.878.02.875.02.875.02.872.018.79.002.082.02.87.002.12.017.748.675-.46 1.603-1.097.304-.207.37-.308.035-.03.856-.711.276-.23.085-.071.003-.002.004-.003.048-.04.653-.543 2.04-2.065 1.695-2.169 1.235-2.256.804-2.299.363-2.314-.01-.866-.01-.867-.011-.868-.395-.308-.843-.343-1.282-.403-1.756-.507-2.115-.619-2.422-.751-2.69-.923.02.903.02.903.021.9.02.9.021.897.02.895.021.894.02.893-2.32.245-2.378.123-2.383-.001-2.336-.126-2.237-.246-2.091-.362-.017-.004-.536-.132-.154-.037-.57-.141-.418-.103-.04-.01-.166-.041-.01-.003-.23-.078-.255-.085-.233-.08-.125-.042-.31-.104-.101-.034-.319-.107-.091-.03-.267-.127-.395-.188-.133-.063-.08-.037-.353-.168-.155-.073-.656-.434-.434-.287-.461-.458-.317-.315-.28-.503-.17-.304-.123-.825.208-.826.53-.81.835-.78-.037-.864-.036-.866-.036-.867-.036-.869-.036-.87-.036-.871-.037-.873-.036-.875 1.43.456 1.837.539 2.13.632 2.37.742 2.579.89 2.686 1.028 2.73 1.174 2.701 1.345-2.633 1.191-2.65 1.364-2.592 1.515-2.472 1.666-2.018 1.638-1.832-.406-2.238-.81-1.89-1.062-.927-1.004z" color="#000" fill="#d0dfff" stroke="#000df2" stroke-width=".8"/>
<path d="m156.333 8.226.957 34.798m.195 7.075.205 7.452" fill="none" marker-start="url(#a)" stroke="#000" stroke-linejoin="round" stroke-width="2"/>
<path d="m156.839 59.555-.368-.19-.413-.215-.479-.248-.528-.274-.096-.049-.752-.25-.746-.25-.9-.3-.677.307-1.71.806-.233.144-.246.151-.893.55-.311.192-.11.067-1.331.82-.251.155-1.198.787-.485.32-.881.697-.16.127-.596.47-1.332 1.056-.12.094-.191.152-.219-.098-.374-.17-.324-.145-.268-.12-.438-.198-.091-.041-.062-.028-.589-.265-.17-.076-.128-.058-.29-.13-.476-.215-.01-.004-.1-.045-.584-.264-.583-.262-1.033 2.052-.01.018-.019.042-.074.167-.333.752-.181.41-.379.857-.419.965-.563 1.296-.053.158-.335.989-.366 1.08-.09.267-.85 2.51-.029.102-.093.34-.609 2.218-.673 2.737-.19.865-.167.756-.129.584-.13.592.472-.38.717-.577 1.2-.966.194-.148 2.263-1.736 2.52-1.823.756-.483.082-.053.425-.272 1.386-.886 2.65-1.694 2.789-1.475.004-.002 1.043-.543.608-.317.664-.346.489-.254 2.864-1.317-.617-.278-.616-.277-.531-.24-.083-.037-.613-.276-.611-.275-.46-.207-.15-.067-.608-.275-.576-.258-.031-.015.04-.032 1.247-.995.172-.138.191-.153 1.572-1.256.071-.057 1.093-.727.595-.395.671-.418.828-.516.198-.124.402-.25.24-.149.249-.155.349-.218.09-.056.359-.224.088-.042.539-.258.614-.294.472-.226.325-.149.354-.162z" color="#000" fill="#c5ffca" stroke="#139800" stroke-width=".9"/>
</svg>
