<svg width="84.986" height="80.097" xmlns="http://www.w3.org/2000/svg" xmlns:xlink="http://www.w3.org/1999/xlink">
<defs>
<symbol id="b">
<path d="M10.025 14.768a1.429 1.429 0 0 0-1.032 1.32c0 .421.325.88.956.88.67 0 1.377-.554 1.377-1.492 0-1.014-1.014-1.683-2.18-1.683-1.09 0-1.798.822-2.047 1.167-.478-.804-1.55-1.167-2.64-1.167-2.41 0-3.71 2.353-3.71 2.984 0 .268.286.268.458.268.23 0 .364 0 .44-.249.555-1.74 1.932-2.314 2.717-2.314.726 0 1.07.344 1.07.956 0 .363-.267 1.415-.44 2.104l-.65 2.62c-.287 1.168-.975 1.741-1.626 1.741-.095 0-.535 0-.918-.287a1.429 1.429 0 0 0 1.033-1.32c0-.42-.325-.88-.956-.88-.67 0-1.377.555-1.377 1.493 0 1.013 1.013 1.683 2.18 1.683 1.09 0 1.798-.823 2.047-1.167.478.804 1.55 1.167 2.64 1.167 2.41 0 3.71-2.353 3.71-2.984 0-.268-.286-.268-.459-.268-.23 0-.363 0-.44.249-.554 1.74-1.931 2.314-2.716 2.314-.727 0-1.07-.344-1.07-.956 0-.402.248-1.416.42-2.123.134-.498.574-2.296.67-2.602.286-1.147.956-1.74 1.625-1.74.096 0 .536 0 .919.286z" stroke-linejoin="round" stroke-miterlimit="100000" stroke-width="1.6"/>
</symbol>
<symbol id="c">
<path d="M16.716 16.94a.513.513 0 0 0-.536-.51c-.361 0-.75.349-.75.737 0 .228.175.509.536.509.388 0 .75-.375.75-.736zm-2.732 6.802c-.053.174-.12.334-.12.562 0 .63.536 1.138 1.272 1.138 1.339 0 1.928-1.848 1.928-2.048 0-.175-.174-.175-.214-.175-.188 0-.2.08-.254.228-.308 1.071-.898 1.62-1.42 1.62-.268 0-.335-.174-.335-.468 0-.308.094-.563.215-.857.134-.362.28-.723.428-1.072.12-.32.603-1.54.656-1.7.04-.134.08-.295.08-.429 0-.629-.535-1.138-1.271-1.138-1.326 0-1.942 1.821-1.942 2.049 0 .174.187.174.228.174.187 0 .2-.067.24-.214.349-1.152.938-1.634 1.433-1.634.215 0 .335.107.335.469 0 .308-.08.509-.415 1.339z" stroke-linejoin="round" stroke-miterlimit="100000" stroke-width="1.6"/>
</symbol>
<symbol id="d">
<path d="M81.016 75.058c0-1.473-.174-2.531-.79-3.468-.415-.616-1.245-1.152-2.316-1.152-3.106 0-3.106 3.656-3.106 4.62s0 4.539 3.106 4.539 3.106-3.575 3.106-4.54zm-3.106 4.164c-.616 0-1.433-.362-1.7-1.46-.188-.79-.188-1.888-.188-2.878 0-.978 0-1.995.2-2.732.282-1.058 1.139-1.339 1.688-1.339.723 0 1.42.442 1.66 1.219.215.723.228 1.687.228 2.852 0 .99 0 1.981-.174 2.825-.268 1.218-1.178 1.513-1.714 1.513z" stroke-linejoin="round" stroke-miterlimit="100000" stroke-width="1.6"/>
</symbol>
<marker id="a" overflow="visible" orient="auto">
<path d="m-4 0-2 2 7-2-7-2z" fill="red" fill-rule="evenodd" stroke="red" stroke-width=".4pt"/>
</marker>
</defs>
<path d="M79.486 59.932 19.526 8.709" marker-end="url(#a)" stroke="red" stroke-width="2"/>
<circle cx="79.486" cy="59.932" r="5" color="#000"/>
<circle cx="15.77" cy="5.5" r="5" color="#000"/>
<use width="100%" height="100%" xlink:href="#b"/>
<use width="100%" height="100%" xlink:href="#c"/>
<use transform="translate(61.73 54.02)" width="100%" height="100%" xlink:href="#b"/>
<use width="100%" height="100%" xlink:href="#d"/>
<g fill="red">
<use transform="translate(50.644 6.884)" width="100%" height="100%" xlink:href="#b"/>
<use transform="translate(50.644 6.884)" width="100%" height="100%" xlink:href="#c"/>
<use transform="translate(-5.693 -47.137)" width="100%" height="100%" xlink:href="#d"/>
</g>
</svg>
