<svg width="180.647" height="126.446" xmlns="http://www.w3.org/2000/svg">
<defs>
<marker id="a" overflow="visible" orient="auto">
<path d="m-10 0-4 4L0 0l-14-4z" fill="#00f" fill-rule="evenodd" stroke="#00f" stroke-width=".8pt"/>
</marker>
<marker id="b" overflow="visible" orient="auto">
<path d="m-4 0-2 2 7-2-7-2z" fill="green" fill-rule="evenodd" stroke="green" stroke-width=".4pt"/>
</marker>
<marker id="c" overflow="visible" orient="auto">
<path d="m-4 0-2 2 7-2-7-2z" fill="green" fill-rule="evenodd" stroke="green" stroke-width=".4pt"/>
</marker>
<marker id="d" overflow="visible" orient="auto">
<path d="m-4 0-2 2 7-2-7-2z" fill="red" fill-rule="evenodd" stroke="red" stroke-width=".4pt"/>
</marker>
<marker id="e" overflow="visible" orient="auto">
<path d="m-4 0-2 2 7-2-7-2z" fill="red" fill-rule="evenodd" stroke="red" stroke-width=".4pt"/>
</marker>
<marker id="h" overflow="visible" orient="auto">
<path d="m-4 0-2 2 7-2-7-2z" fill-rule="evenodd" stroke="#000" stroke-width=".4pt"/>
</marker>
<marker id="f" overflow="visible" orient="auto">
<path d="m-4 0-2 2 7-2-7-2z" fill-rule="evenodd" stroke="#000" stroke-width=".4pt"/>
</marker>
<marker id="g" overflow="visible" orient="auto">
<path d="m-4 0-2 2 7-2-7-2z" fill="green" fill-rule="evenodd" stroke="green" stroke-width=".4pt"/>
</marker>
</defs>
<g fill="none" stroke-linejoin="round" color="#000">
<path d="M86.165 117.741c-3.224-4.95-8.015-8.393-13.433-10.43" marker-end="url(#marker7268)" stroke="#000" stroke-dasharray="1.00000001, 2.00000002" stroke-width=".5" style="isolation:auto;mix-blend-mode:normal"/>
<path d="M92.036 70.295c-3.847-5.013-9.204-8.322-15.106-10.26" stroke="#000" stroke-width=".3" style="isolation:auto;mix-blend-mode:normal"/>
<path d="M108.42 19.01a171.15 171.15 0 0 0-13.181-3.125c-23.086-4.488-47.065-4.309-70.084.505M25.154 16.39l21.242 34.206m12.762 20.552 4.168 6.712" stroke="#bbb" stroke-width=".5" style="isolation:auto;mix-blend-mode:normal"/>
<path d="m63.327 77.86 44.068-11.7M107.395 66.155l57.984-15.394" stroke="#000" stroke-width=".3" style="isolation:auto;mix-blend-mode:normal"/>
<g stroke-width=".5">
<path d="M165.378 50.761c-15.633-15.61-35.782-25.825-56.959-31.75" marker-end="url(#a)" stroke="#00f" style="isolation:auto;mix-blend-mode:normal"/>
<path d="m27.692 61.975-2.538-45.59" stroke="#bbb" style="isolation:auto;mix-blend-mode:normal"/>
<path d="m63.327 77.855-1.152 47.373" stroke="#000" style="isolation:auto;mix-blend-mode:normal"/>
</g>
<path d="M62.175 125.228c-11.495-21.084-22.99-42.169-34.483-63.253" marker-end="url(#b)" stroke="green" stroke-linecap="round" stroke-width="1.5" style="isolation:auto;mix-blend-mode:normal"/>
<path d="m62.175 125.228 91.765-27.583" marker-end="url(#c)" stroke="green" stroke-linecap="round" stroke-width="1.5" style="isolation:auto;mix-blend-mode:normal"/>
<path d="m153.94 97.645 11.438-46.884" stroke="#000" stroke-width=".5" style="isolation:auto;mix-blend-mode:normal"/>
<path d="M108.413 18.972 63.327 77.854" stroke="#000" stroke-width=".3" style="isolation:auto;mix-blend-mode:normal"/>
<path d="M103.228 64.707a134.24 134.24 0 0 0-18.169-4.511 138.26 138.26 0 0 0-15.94-1.894M37.088 60.04a139.345 139.345 0 0 0-9.396 1.935" marker-end="url(#marker7268)" stroke="#bbb" stroke-dasharray="1.00000001, 2.00000002" stroke-width=".5" style="isolation:auto;mix-blend-mode:normal"/>
<g stroke="#000" stroke-dasharray="1.00000001, 2.00000002" stroke-width=".5" marker-end="url(#marker7268)">
<path d="M153.94 97.645c-13.229-15.715-31.259-26.625-50.712-32.938" style="isolation:auto;mix-blend-mode:normal"/>
<path d="m103.256 64.687 5.156-45.715" style="isolation:auto;mix-blend-mode:normal"/>
<path d="m103.256 64.687-41.082 60.54" style="isolation:auto;mix-blend-mode:normal"/>
</g>
<path d="m62.175 125.228 103.204-74.467" marker-end="url(#d)" stroke="red" stroke-width="1.5" style="isolation:auto;mix-blend-mode:normal"/>
<path d="m62.175 125.228 103.204-74.467" marker-end="url(#e)" stroke="red" stroke-linecap="round" stroke-width="1.5" style="isolation:auto;mix-blend-mode:normal"/>
<path d="m62.175 125.228 1.289-52.994m.432-17.755.93-38.231" marker-end="url(#f)" stroke="#000" style="isolation:auto;mix-blend-mode:normal"/>
<path d="m62.175 125.228 1.157-47.577" marker-end="url(#g)" stroke="green" stroke-linecap="round" stroke-width="1.5" style="isolation:auto;mix-blend-mode:normal"/>
</g>
<path d="M148.033 18.417c0-1.052-.287-3.268-1.913-3.268-2.216 0-4.67 4.495-4.67 8.146 0 1.498.462 3.267 1.913 3.267 2.247 0 4.67-4.574 4.67-8.145zm-4.894 2.184c.271-1.02.59-2.296 1.228-3.427.43-.781 1.02-1.674 1.737-1.674.781 0 .877 1.02.877 1.929 0 .78-.128 1.594-.51 3.172zm3.188.51c-.175.733-.51 2.088-1.115 3.236-.558 1.084-1.164 1.865-1.85 1.865-.526 0-.86-.463-.86-1.945 0-.67.095-1.594.51-3.156z" fill="#00f"/>
<g stroke-width="1.25">
<path d="M107.119 1.6c.096-.383.143-.542.446-.59.144-.016.654-.016.973-.016 1.131 0 2.9 0 2.9 1.578 0 .542-.254 1.642-.876 2.264-.414.414-1.26.924-2.694.924h-1.785zm2.295 4.368c1.61-.351 3.507-1.467 3.507-3.077 0-1.37-1.434-2.39-3.523-2.39h-4.543c-.318 0-.462 0-.462.318 0 .175.144.175.447.175.031 0 .334 0 .605.032.287.032.43.048.43.255 0 .064-.015.112-.063.303l-2.136 8.56c-.16.622-.191.75-1.45.75-.288 0-.431 0-.431.318 0 .175.191.175.223.175.446 0 1.562-.048 2.009-.048s1.578.048 2.024.048c.127 0 .319 0 .319-.318 0-.176-.144-.176-.447-.176-.59 0-1.036 0-1.036-.287 0-.095.032-.175.048-.27l1.052-4.225h1.897c1.45 0 1.738.893 1.738 1.45 0 .24-.128.734-.224 1.1-.111.447-.255 1.037-.255 1.355 0 1.722 1.913 1.722 2.12 1.722 1.355 0 1.913-1.61 1.913-1.833 0-.191-.175-.191-.191-.191-.144 0-.175.111-.207.223-.399 1.18-1.084 1.45-1.45 1.45-.527 0-.638-.35-.638-.972 0-.494.095-1.307.159-1.817.032-.223.064-.526.064-.75 0-1.227-1.068-1.721-1.499-1.88zM121.867 4.995a1.19 1.19 0 0 0-.86 1.1c0 .35.27.733.796.733.558 0 1.148-.462 1.148-1.243 0-.845-.845-1.403-1.817-1.403-.909 0-1.499.685-1.706.972-.398-.67-1.291-.972-2.2-.972-2.008 0-3.092 1.96-3.092 2.487 0 .223.24.223.383.223.19 0 .302 0 .366-.207.462-1.45 1.61-1.93 2.264-1.93.605 0 .892.288.892.798 0 .303-.223 1.18-.366 1.753l-.542 2.184c-.24.972-.813 1.45-1.355 1.45-.08 0-.446 0-.765-.238.574-.16.86-.702.86-1.1 0-.351-.27-.734-.797-.734-.557 0-1.147.463-1.147 1.244 0 .845.845 1.403 1.817 1.403.909 0 1.498-.686 1.706-.973.398.67 1.29.973 2.2.973 2.008 0 3.092-1.961 3.092-2.487 0-.223-.24-.223-.383-.223-.191 0-.303 0-.366.207-.463 1.45-1.61 1.929-2.264 1.929-.606 0-.893-.287-.893-.797 0-.335.208-1.18.351-1.77.112-.414.478-1.913.558-2.168.24-.956.797-1.45 1.355-1.45.08 0 .446 0 .765.239z"/>
<path d="M179.063 46.546a1.19 1.19 0 0 0-.86 1.1c0 .35.27.733.796.733.558 0 1.148-.462 1.148-1.243 0-.845-.845-1.403-1.817-1.403-.909 0-1.499.685-1.706.972-.398-.67-1.291-.972-2.2-.972-2.008 0-3.092 1.96-3.092 2.487 0 .223.24.223.383.223.19 0 .302 0 .366-.207.462-1.45 1.61-1.93 2.264-1.93.605 0 .892.288.892.798 0 .303-.223 1.18-.366 1.753l-.542 2.184c-.24.972-.813 1.45-1.355 1.45-.08 0-.446 0-.765-.238.574-.16.86-.702.86-1.1 0-.351-.27-.734-.797-.734-.557 0-1.147.463-1.147 1.244 0 .845.845 1.403 1.817 1.403.909 0 1.498-.686 1.706-.973.398.67 1.29.973 2.2.973 2.008 0 3.092-1.961 3.092-2.487 0-.223-.24-.223-.383-.223-.191 0-.303 0-.366.207-.463 1.45-1.61 1.929-2.264 1.929-.606 0-.893-.287-.893-.797 0-.335.208-1.18.351-1.77.112-.414.478-1.913.558-2.168.24-.956.797-1.45 1.355-1.45.08 0 .446 0 .765.239z" fill="red"/>
</g>
<g fill="green" stroke-width=".563">
<path d="M3.258 95.449c1.068 0 2.104-.096 2.773-.319 1.355-.462 1.578-1.37 1.578-1.88 0-.925-.876-1.531-2.183-1.531C2.54 91.719.5 93.712.5 96.182c0 1.833 1.227 2.87 3.332 2.87.414 0 1.514-.017 2.47-.383.925-.367 1.562-1.02 1.562-1.212 0-.127-.255-.414-.398-.414-.096 0-.128.048-.24.175-.86.909-2.103 1.26-3.347 1.26-1.147 0-1.562-.638-1.562-1.547 0-.302.064-.828.24-1.482zm-.558-.574c.287-1.163.67-1.594.94-1.849.558-.558 1.291-.733 1.786-.733.573 0 1.227.255 1.227.972 0 1.61-2.407 1.61-3.953 1.61zM18.286 94.492l-3.188-3.172c-.19-.191-.223-.223-.35-.223a.33.33 0 0 0-.32.319c0 .111.033.143.208.318l3.188 3.204-3.188 3.204c-.175.176-.207.208-.207.32 0 .174.16.318.319.318.127 0 .16-.032.35-.223l3.172-3.172 3.3 3.3c.032.015.144.095.24.095a.31.31 0 0 0 .318-.319c0-.032 0-.096-.048-.175-.016-.032-2.55-2.535-3.347-3.348l2.917-2.917c.08-.095.319-.303.398-.398.016-.032.08-.096.08-.207a.31.31 0 0 0-.319-.32c-.127 0-.191.064-.366.24zM36.524 92.532a1.19 1.19 0 0 0-.86 1.1c0 .35.27.733.796.733.558 0 1.148-.462 1.148-1.243 0-.845-.845-1.403-1.817-1.403-.909 0-1.498.685-1.706.972-.398-.67-1.29-.972-2.2-.972-2.008 0-3.092 1.96-3.092 2.487 0 .223.24.223.383.223.191 0 .303 0 .366-.207.463-1.45 1.61-1.93 2.264-1.93.606 0 .893.288.893.798 0 .303-.224 1.18-.367 1.753l-.542 2.184c-.24.972-.813 1.45-1.355 1.45-.08 0-.446 0-.765-.238.574-.16.86-.702.86-1.1 0-.351-.27-.734-.796-.734-.558 0-1.148.463-1.148 1.244 0 .845.845 1.403 1.817 1.403.909 0 1.499-.686 1.706-.973.398.67 1.29.973 2.2.973 2.008 0 3.092-1.961 3.092-2.487 0-.223-.24-.223-.383-.223-.19 0-.303 0-.366.207-.463 1.45-1.61 1.929-2.264 1.929-.606 0-.892-.287-.892-.797 0-.335.207-1.18.35-1.77.112-.414.478-1.913.558-2.168.24-.956.797-1.45 1.355-1.45.08 0 .446 0 .765.239z"/>
</g>
<path d="M64.091 4.628c1.068 0 2.105-.096 2.774-.319 1.355-.462 1.578-1.37 1.578-1.88 0-.925-.877-1.531-2.184-1.531-2.885 0-4.925 1.993-4.925 4.463 0 1.833 1.227 2.87 3.331 2.87.415 0 1.515-.017 2.471-.383.925-.367 1.562-1.02 1.562-1.212 0-.127-.255-.414-.398-.414-.096 0-.128.048-.24.175-.86.909-2.104 1.26-3.347 1.26-1.148 0-1.562-.638-1.562-1.547 0-.302.064-.828.24-1.482zm-.557-.574c.287-1.163.67-1.594.94-1.849.558-.558 1.291-.733 1.785-.733.574 0 1.228.255 1.228.972 0 1.61-2.407 1.61-3.953 1.61z"/>
<g fill="green" stroke-width=".563">
<path d="M41.968 62.405h2.71c2.264 0 4.48-1.658 4.48-3.443 0-1.228-1.053-2.407-3.14-2.407h-5.165c-.303 0-.479 0-.479.303 0 .191.144.191.463.191.207 0 .494.016.685.032.255.032.35.08.35.255 0 .064-.015.112-.063.303l-2.136 8.56c-.16.621-.191.749-1.45.749-.272 0-.447 0-.447.303 0 .191.191.191.24.191.445 0 1.577-.048 2.024-.048.334 0 .685.016 1.02.016.35 0 .701.032 1.036.032.111 0 .319 0 .319-.319 0-.175-.144-.175-.447-.175-.59 0-1.036 0-1.036-.287 0-.096.032-.175.048-.27zm1.148-4.75c.144-.558.175-.606.86-.606h1.531c1.323 0 2.168.43 2.168 1.53 0 .622-.319 1.993-.94 2.567-.798.717-1.754.845-2.455.845h-2.248zM51.846 52.916c0-.167 0-.424-.267-.424-.28 0-.28.279-.28.48v10.187c0 .201 0 .48.28.48.267 0 .267-.257.267-.424zm2.466.056c0-.201 0-.48-.279-.48-.267 0-.267.257-.267.424v10.3c0 .166 0 .423.267.423.28 0 .28-.279.28-.48zM65.42 61.05a1.19 1.19 0 0 0-.861 1.1c0 .35.271.733.797.733.558 0 1.148-.462 1.148-1.243 0-.845-.845-1.403-1.817-1.403-.909 0-1.499.685-1.706.972-.399-.67-1.291-.972-2.2-.972-2.008 0-3.092 1.96-3.092 2.487 0 .223.239.223.382.223.192 0 .303 0 .367-.207.462-1.45 1.61-1.93 2.263-1.93.606 0 .893.288.893.798 0 .303-.223 1.18-.366 1.753l-.542 2.184c-.24.972-.813 1.45-1.355 1.45-.08 0-.447 0-.765-.238.573-.16.86-.702.86-1.1 0-.351-.27-.734-.797-.734-.558 0-1.147.463-1.147 1.244 0 .845.844 1.403 1.817 1.403.908 0 1.498-.686 1.705-.973.399.67 1.292.973 2.2.973 2.009 0 3.093-1.961 3.093-2.487 0-.223-.24-.223-.383-.223-.191 0-.303 0-.367.207-.462 1.45-1.61 1.929-2.263 1.929-.606 0-.893-.287-.893-.797 0-.335.207-1.18.35-1.77.112-.414.479-1.913.559-2.168.239-.956.797-1.45 1.355-1.45.08 0 .446 0 .765.239zM134.017 120.19h2.71c2.263 0 4.479-1.658 4.479-3.443 0-1.228-1.052-2.407-3.14-2.407H132.9c-.303 0-.478 0-.478.303 0 .191.143.191.462.191.207 0 .494.016.686.032.255.032.35.08.35.255 0 .064-.016.112-.063.303l-2.136 8.56c-.16.621-.192.749-1.451.749-.271 0-.446 0-.446.303 0 .191.191.191.239.191.446 0 1.578-.048 2.024-.048.335 0 .686.016 1.02.016.351 0 .702.032 1.036.032.112 0 .32 0 .32-.319 0-.175-.144-.175-.447-.175-.59 0-1.036 0-1.036-.287 0-.096.032-.175.048-.27zm1.148-4.75c.143-.558.175-.606.86-.606h1.53c1.324 0 2.169.43 2.169 1.53 0 .622-.32 1.993-.94 2.567-.798.717-1.754.845-2.456.845h-2.247zM146.852 111.337c0-.167 0-.435-.268-.435-.279 0-.279.256-.279.435v6.762h-3.403c-.167 0-.446 0-.446.268 0 .279.256.279.446.279h7.353c.179 0 .447 0 .447-.268 0-.28-.257-.28-.447-.28h-3.403zM160.901 118.835a1.19 1.19 0 0 0-.86 1.1c0 .35.27.733.796.733.558 0 1.148-.462 1.148-1.243 0-.845-.845-1.403-1.817-1.403-.909 0-1.499.685-1.706.972-.398-.67-1.291-.972-2.2-.972-2.008 0-3.092 1.96-3.092 2.487 0 .223.24.223.383.223.19 0 .302 0 .366-.207.462-1.45 1.61-1.93 2.264-1.93.605 0 .892.288.892.798 0 .303-.223 1.18-.366 1.753l-.542 2.184c-.24.972-.813 1.45-1.355 1.45-.08 0-.446 0-.765-.238.574-.16.86-.702.86-1.1 0-.351-.27-.734-.797-.734-.557 0-1.147.463-1.147 1.244 0 .845.845 1.403 1.817 1.403.909 0 1.498-.686 1.706-.973.398.67 1.29.973 2.2.973 2.008 0 3.092-1.961 3.092-2.487 0-.223-.24-.223-.383-.223-.191 0-.303 0-.366.207-.463 1.45-1.61 1.929-2.264 1.929-.606 0-.893-.287-.893-.797 0-.335.208-1.18.351-1.77.112-.414.478-1.913.558-2.168.24-.956.797-1.45 1.355-1.45.08 0 .446 0 .765.239z"/>
</g>
<path d="M62.175 125.228 108.39 19.002" color="#000" fill="none" marker-end="url(#h)" stroke="#000" stroke-linecap="round" stroke-linejoin="round" stroke-width="1.5" style="isolation:auto;mix-blend-mode:normal"/>
</svg>
