<svg width="159.957" height="140.83" xmlns="http://www.w3.org/2000/svg">
<defs>
<marker id="d" overflow="visible" orient="auto">
<path d="m-4 0-2 2 7-2-7-2z" fill="red" fill-rule="evenodd" stroke="red" stroke-width=".4pt"/>
</marker>
<marker id="a" overflow="visible" orient="auto">
<path d="m-4 0-2 2 7-2-7-2z" fill-rule="evenodd" stroke="#000" stroke-width=".4pt"/>
</marker>
<marker id="b" overflow="visible" orient="auto">
<path d="m-4 0-2 2 7-2-7-2z" fill-rule="evenodd" stroke="#000" stroke-width=".4pt"/>
</marker>
<marker id="c" overflow="visible" orient="auto">
<path d="M5.231 2.42-1.324.01 5.23-2.401C4.184-.978 4.19.969 5.231 2.42z" fill="#00f" fill-rule="evenodd" stroke="#00f" stroke-linejoin="round" stroke-width=".375"/>
</marker>
</defs>
<path d="m94.063 79.839-75.37-6.793" color="#000" fill="none" marker-end="url(#a)" stroke="#000" stroke-linecap="round" stroke-linejoin="round" stroke-width="1.2" style="isolation:auto;mix-blend-mode:normal"/>
<path d="m94.063 79.839-40.43 32.244" color="#000" fill="none" marker-end="url(#b)" stroke="#000" stroke-linecap="round" stroke-linejoin="round" stroke-width="1.2" style="isolation:auto;mix-blend-mode:normal"/>
<path d="M131.36 94.228c.052.09.22.392.213.396.035-.02-.06-.166-.213-.396zm-21.53-56.05c-.098-.09-.163.025-.257.175.146-.098.249-.183.258-.175zm-6.752 25.226c-.249.16-.853.314-1.185.488.34-.145.924-.276 1.185-.413-.002-.04.002-.035 0-.075zm0 .074c.143 2.36.08 2.664.075 4.455-.41.62-.477.796-1.124 1.55l-.04.049c-1.41 1.635-3.03 2.865-2.957 2.958.01.011 1.731-.853 3.298-2.663l.044-.049c.584-.687.465-.788.786-1.377-.02 2.54.05 6.626.108 6.629-.045-.002.222-3.186.273-7.298 0-.107-.004-.221-.002-.331.01-1.38.077-2.526-.024-4.164l.001-.064c-.013-.217.013-.33-.002-.55a68.724 68.724 0 0 0-.144-1.7c-.318-3.24-1.183-8.812-1.45-10.666.205.632.495 1.599.514 1.593.06-.017-.203-.97-.606-2.755-.042-.186-.057-.583-.103-.792-.014-.22-.08-.605-.072-.763l-.046-.14c-.327-1.618-.725-3.36-.72-5.51.002-1.31.062-2.657.208-4.018.296-2.755.9-5.19 1.78-7.348.925-2.294 2.102-3.39 2.999-4.067-.15.608-.33 1.215-.396 1.823-.331 3.013.19 5.884.722 7.963.297 1.304.66 2.286 1.594 2.54 1.266.31 1.603-.144 1.781-.43-.297.202-.853.475-1.727.226-.825-.21-1.013-1.105-1.347-2.408-.472-2.07-.942-4.915-.594-7.842.09-.763.286-1.525.509-2.28.007-.022.01-.045.015-.067.313-1.036.721-2.05 1.316-2.977.11-.17.225-.339.345-.503.28-.327.475-.727.73-.69.116-.083.206.237.357.494.589 1.495.662 3.246.805 4.774.278 3.036.377 5.445.398 7.469-.002 2.447-.586 3.597-.55 3.63.034.03.69-1.187.781-3.358.152 1.805.444 4.417 1.131 7.881.334 1.681.921 3.517 1.319 5.45-.141.115-.43.744-1.144 1.066a2.557 2.557 0 0 1-.234.103c-.95.367-2.04.385-2.033.504 0-.007.975.374 2.193-.085a2.74 2.74 0 0 0 .277-.121c.794-.438.933-.936.99-1.26.037.192.099.343.13.538.25 1.493.193 3.13.608 4.776.661 2.605 1.735 5.133 3.05 7.649.516.985 1.098 1.93 1.71 2.858.452.686.919 1.36 1.383 2.03.64.923 1.089 1.973 1.488 3.031.902 2.396 1.713 4.591 2.735 6.768 1.174 2.501 2.494 4.734 3.277 6.91.969 2.683 1.338 5.176 1.907 7.068.707 2.344 1.57 3.65 1.962 4.24-.257-.44-.997-1.67-1.728-4.307-.496-1.787-.869-4.169-1.712-6.742 1.182 2.264 2.566 4.756 4.218 7.161 1.531 2.219 3.381 3.597 5.383 5.68 1.889 1.966 3.403 4.152 5.153 6.393.563.72 1.138 1.428 1.743 2.113 5.384 6.096 4.918 5.42 8.73 9.293 4.015 4.082 6.271 6.322 6.307 6.287.046-.044-2.13-2.36-6.087-6.5-3.686-3.858-3.308-3.361-8.61-9.378a45.532 45.532 0 0 1-1.725-2.093c-1.74-2.226-3.27-4.428-5.195-6.42-2.04-2.11-3.876-3.45-5.372-5.601-2.762-3.954-5.188-8.757-6.393-11.091l-.002-.002c-.526-1.06-.953-2.052-1.478-3.185-1.001-2.164-1.796-4.347-2.693-6.75-.4-1.073-.867-2.156-1.538-3.13a118.54 118.54 0 0 1-1.375-2.024 32.596 32.596 0 0 1-1.688-2.817c-1.307-2.494-2.373-4.986-3.036-7.546-.409-1.563-.364-3.196-.632-4.738-.402-2.294-1.166-4.318-1.563-6.194-1.173-5.538-1.324-7.931-1.442-8.904a70.326 70.326 0 0 0-.229-6.688c-.12-1.518-.19-3.302-.802-4.9-.068-.307-.3-.723-.794-.78l-.002-.001c-.56.074-.871.535-1.075.871-.125.172-.245.349-.36.527-.71 1.107-1.145 2.326-1.465 3.563-.936.514-2.24 1.42-3.38 4.053-.935 2.175-1.575 4.657-1.876 7.447a35.14 35.14 0 0 0-.193 4.069c.025 2.883.654 5.573 1.113 7.266.005.019.005.009.011.028.023.286-.019.391.023.805.263 2.619.907 6.77 1.319 10.975.055.565.106 1.128.149 1.69.031.405-.012.35.013.747m-1.186.488c-.825.355-1.56.728-2.879 1.003-1.587.334-3.262.092-5.387-.517-2.198-.633-3.843-1.248-6.467-2.126-.966-.324-2.05-.677-3.175-.699-1.589-.027-3.456-.017-5.181-.157a130.236 130.236 0 0 1-10.431-1.27c-1.465-.237-2.913-.577-4.416-.955-1.6-.395-3.195-.055-4.812.048-4.784.29-10.043.593-15.16 1.244-2.548.308-5.57.428-7.549 2.334-.95.943-1.308 2.385-1.002 3.684.33 1.312 1.504 2.206 2.773 2.54 1.127.3 2.28.437 3.44.482 1.005.04 2.014.012 3.01-.03 1.613-.067 3.194-.324 4.757-.293 1.689.03 3.399.228 5.111.341 2.109.14 4.96.204 7.013.306 2.016.1 3.24.392 5.198.712 2.65.435 5.172.863 7.61 1.645 1.619.524 3.11 1.265 4.28 2.35-1.107.208-3.47.756-9.055 1.745-1.534.27-3.79.436-5.56 1.01-1.18.399-2.033 1.352-2.748 2.365-1.176 1.645-2.276 3.403-3.439 5.11l-.116.167c-.984 1.433-2.08 2.765-2.78 4.377-.495 1.148-.615 2.405-.458 3.583.145 1.149.547 2.265 1.36 3.044 1.112 1.038 2.735 1.553 3.878 2.064 1.47.662 2.48 1.142 3.46 1.54.137.214 1.668 1.65 4.352 4.04.091.082.239.185.334.27-.14.456-.261.56-.311 1.678-.03.62.087 1.42.606 2.067.74.899 1.638 1.404 2.712 2.154 1.19.836 2.802 1.963 3.992 2.799l.699.494c.737.53 1.462 1.17 2.426 1.341.931.145 1.868-.057 2.66-.218a51.45 51.45 0 0 0 3.476-.838c.696-.19.583-.19 1.072-.337.031-.009.038-.013.07-.023.87-.265 1.726-.525 1.968-.617a3.91 3.91 0 0 0 .992-.36c.028-.015.026-.063.054-.08.173.072.099.05.283.126 2.535 1.044 6.369 2.542 10.39 3.52.584.141 1.174.277 1.768.403 4.14.88 7.708 1.137 10.975.75.947-.113 1.7-.332 2.365-.575.825 1.102.884 1.404 2.81 3.36 1.72 1.746 4.227 4.103 6.081 6.366l.427.524c2.818 3.477 5.606 7.335 7.451 9.86 1.938 2.65 3.047 4.125 3.1 4.087.044-.031-.972-1.572-2.84-4.272-1.81-2.616-4.495-6.427-7.36-9.96l-.428-.527c-1.905-2.316-4.4-4.617-6.162-6.346-1.852-1.819-1.98-2.083-2.889-3.139 1.61-.624 2.427-1.474 2.792-1.799-.297.149-1.382.81-3.149 1.409-.052.017-.106.031-.16.048-.693.223-1.143.529-2.074.617-3.24.315-6.725.026-10.847-.848a69.259 69.259 0 0 1-1.755-.396c-3.965-.95-7.84-2.402-10.382-3.362-.146-.055-.09-.03-.229-.082.512-.382 1.023-.865 1.062-1.53a1.77 1.77 0 0 0-.02-.393c-.188-.737-.856-1.048-1.517-1.192-.05-.11-.005-.128-.077-.247-.073-.12-.11-.091-.183-.188.566-.473.885-1.201.89-1.946 0-.048-.034-.09-.037-.138.004.012.06.147.065.146-.094.014.223-.638-.422-1.655-.567-.872-1.445-1.433-2.789-2.092-.716-.358-1.512-.681-2.303-1.005-.361-2.148-.61-3.742-1.095-6.321l-.002-.011-.005-.023c-.42-2.228-.995-4.58-1.525-7.074-.048-.23 0-.482-.036-.717-.003-.02 0-.041-.002-.062-.128-.873-.212-1.758-.128-2.665.004-.053-.014-.104-.008-.157.005-.048-.013-.093-.008-.141.201-1.658.626-3.58.617-5.396-.006-1.497-.468-3.065-1.524-4.24-.058-.065-.145-.096-.205-.157-.013-.014-.031-.02-.044-.034-.153-.154-.35-.256-.514-.396.033-.22-.264-1.33-.172-2.784.004-.074.008-.149.015-.223.143-1.669.638-3.2.524-3.234-.017-.005-.806 1.303-.974 3.195-.007.08-.014.16-.018.24-.068 1.464.316 2.338.499 2.709-1.174-.957-2.545-1.676-4.028-2.152-2.474-.8-5.017-1.237-7.667-1.676-1.963-.325-3.204-.622-5.247-.727-2.074-.106-4.92-.174-7.002-.314-1.679-.112-3.395-.31-5.132-.344-1.618-.03-3.209.226-4.786.29-.991.04-1.988.066-2.974.029-1.136-.044-2.256-.171-3.34-.463-1.143-.314-2.211-1.097-2.451-2.208-.27-1.15.043-2.45.876-3.26 1.778-1.783 4.717-1.872 7.29-2.22 5.093-.656 10.35-.967 15.132-1.27 1.66-.1 3.21-.448 4.69-.072 1.508.375 2.967.713 4.45.949 3.687.585 7.18.98 10.466 1.228 1.748.132 3.618.112 5.203.129 1.062.008 2.123.35 3.09.666 2.61.853 4.293 1.462 6.492 2.074 2.142.599 3.867.822 5.488.463 1.363-.306 2.047-.754 2.843-1.173zm10.38-17.077c-.085-.052-.446.546-1.121.786a4.848 4.848 0 0 1-.458.152c-.942.265-1.904.407-1.889.524.007.056.909.223 2.013-.09.173-.049.341-.11.503-.182.955-.454.936-1.2.951-1.19zM36.802 61.82c.008.013-.095.065-.169.108.116-.04.19-.073.17-.108zm-.169.108c-.464.163-1.877.487-3.262 1.963-.451.474-.79 1.145-.807 1.846-.008.335.059.668.216.98.575 1.034 1.696 1.556 2.45 1.842 1.22.473 1.961.29 1.96.296.007-.063-.757-.1-1.827-.607-.705-.34-1.75-.87-2.19-1.743a1.385 1.385 0 0 1-.17-.755c.025-.56.32-1.14.687-1.57 1.217-1.394 2.553-2.028 2.943-2.252zm12.191 2.277c-.098 0-.241.801-.17 1.876l.019.226c.105 1.16.369 2.061.478 2.046.139-.019.074-.953-.029-2.087l-.02-.22c-.095-1.037-.146-1.841-.278-1.841zm13.385.219c-.061-.011-.519 1.072-.509 2.544v.016c.02 1.467.503 2.53.563 2.519.116-.023-.1-1.23-.11-2.522v-.018c-.014-1.298.173-2.52.056-2.54zm16.478 10.157c.123.117.292.183.406.309.986 1.075 1.422 2.558 1.437 3.979.018 1.755-.398 3.664-.594 5.349-.01.093.024.18.016.272-1.077.313-1.43.487-3.545.861-1.475.262-2.774.366-4.416.574-.547.069-1.09.145-1.63.239-.85.138-1.696.43-2.243 1.107-.566.732-1.034 1.451-1.527 2.036-.88 1.046-.98 1.122-1.483 1.65-.142-.091-.3-.218-.44-.306-2.022-1.268-3.353-1.89-3.38-1.845-.056.093 1.202.844 3.167 2.172.12.082.26.193.383.277.036.025.076.058.113.083.106.073.222.162.329.236l.11.083c.717.501 1.431.99 2.185 1.58l.183.144c1.138.918 2.092 1.669 2.472 2.776.278.748.198 1.342.137 1.905-.16-.454-.408-.885-.738-1.2-1.388-1.353-3.012-2.026-4.239-2.324-1.557-.397-1.932.255-2.112.522.275-.184.945-.562 2.038-.247 1.173.351 2.713 1.045 4.012 2.35.61.628 1.05 1.645.602 2.397-.109.21-.26.392-.44.543-.12.101-.266.155-.419.193-.003 0-.002-.002-.005-.002-.056.004-.18.03-.306.061-.14.02-.28.035-.419.062-.086.017-.157.06-.244.07-.203.02-.37.177-.568.154-.286-.036-.523-.178-.794-.252-.26-.071-.517-.14-.761-.24-.885-.36-1.7-.817-2.319-1.344-.707-.608-.998-1.354-.981-1.981.025-1.125.49-1.643.457-1.671.017.013-.605.365-.707 1.658-.051.7.228 1.565.995 2.262.163.15.404.275.591.421-1.236-.48-2.248-.928-4.154-1.817-1.16-.546-2.755-1.064-3.75-2.033-.723-.684-1.072-1.718-1.216-2.807-.14-1.113-.023-2.293.443-3.352.668-1.537 1.753-2.839 2.75-4.298.038-.055.075-.113.113-.17 1.17-1.716 2.266-3.474 3.426-5.11.707-.983 1.476-1.884 2.52-2.217 1.685-.565 3.94-.753 5.495-1.05 5.727-1.086 8.013-1.78 9.05-2.058zM63.132 95.153c.05.042.089-.007.147-.092-.085.056-.138.1-.147.092zm28.853-17.142c-.035-.008-.28.77-.653 2.262-.338 1.35-.909 3.782-.962 6.241-.04 2.005.274 3.91.594 6.053.118.788.228 1.562.309 2.337.7 6.752.605 12.298.712 12.297-.096 0 .432-5.23-.268-12.34a47.344 47.344 0 0 0-.306-2.36c-.322-2.157-.645-4.017-.63-5.98.015-2.376.525-4.857.792-6.194.301-1.506.462-2.304.412-2.316zm-24.85 3.342c-.11.045.347 1.215.652 2.5l.036.15c.276 1.229.287 2.385.4 2.385.052 0 .334-1.07.04-2.48-.012-.053-.021-.107-.034-.16-.347-1.448-1.037-2.42-1.095-2.395zm12.825 3.316c-.066.896.01 1.77.142 2.63-1.15.154-3.607.455-7.915 1.711l-.048.013c-3.637 1.064-4.924 1.735-6.398 2.38-.163-.109-.331-.24-.491-.344.552-.47.677-.471 1.614-1.514.53-.591 1.02-1.31 1.584-2.013.427-.56 1.18-.78 1.99-.925a40.65 40.65 0 0 1 1.61-.231c1.602-.202 2.97-.329 4.437-.617 2.195-.433 2.446-.685 3.475-1.09zm.144 2.709c.037.228-.01.476.039.699.545 2.508 1.136 4.86 1.568 7.081l.013.072c-.445.21-1.517.922-3.216 1.764-.105.052-.21.102-.316.151-1.045.493-1.333.546-2.033.769-.49-.646-.457-.733-1.152-1.537-.366-.424-.733-.83-1.1-1.214-1.422-1.49-2.63-2.152-2.67-2.097-.056.075 1.069.95 2.357 2.388.354.395.704.793 1.071 1.218.653.755.704.754 1.214 1.347.052.06.073.08.123.139.604.7 1.271 1.469 1.496 1.66-.715-.105-1.545-.3-2.09-.298-1.009.007-1.547.064-1.547.106 0 .05.539.084 1.54.154.655.046 1.589.268 2.475.46.01.001.133.156.139.152.002-.002-.11-.14-.11-.147.41.09.68.074 1.143.21.99.295 2.008.634 3.05 1.03.294.11.545.234.829.349.092.037.178.078.27.115.688.283 1.392.562 2.03.861.542.26.71.521 1.098.748-.402-.132-.812-.277-1.185-.326-.677-.104-1.13.138-1.684.221-.076.012-.158.013-.231.028-.379.08-.88-.038-1.19.157-.588.39-.75 1.056-.784 1.427-.011.11-.019.209-.026.298V105.39l.002.014c.003.04.009.081.013.115.024.217.048.325.067.324.019 0 .033-.109.046-.326l.008-.116c0-.013 0-.013.002-.013s.002-.001.005-.005c.02-.087.04-.185.062-.293.071-.337.264-.935.756-1.2.28-.164.753-.042 1.095-.098.072-.012.156-.013.231-.02.508-.052.91-.244 1.565-.142 1.03.187 2.298.565 2.81 1.53.17.301.253.656.25 1.015-.008.621-.264 1.24-.72 1.614-.009.007-.021.004-.029.01-.032.027-.082.022-.116.047-.808.6-1.998.6-2.958.558-.036-.001-.08.004-.116.002-.039-.002-.044-.023-.082-.026-1.04-.082-1.794-.147-2.234-.699-.574-.663-.58-1.221-.568-1.535-.094.325-.224.895.355 1.702.52.674 1.396.865 2.501.936h.028c.056.005.132-.002.19.002a9.01 9.01 0 0 0 1.165.015c-.26.07-.571.07-.797.165-.069-.005-.247-.011-.334-.016l-.185-.008c-.675-.032-.838-.06-2.316-.108-1.355-.043-3.35-.093-5.161-.254-1.222-.11-2.467-.423-3.568-1.046a6.861 6.861 0 0 1-.33-.198c-1.768-1.129-3.466-2.667-4.862-3.864-.02-.017-.05-.037-.07-.053-.045-.04-.114-.09-.16-.129-2.654-2.262-4.204-3.54-4.515-3.717.554.222 1.104.425 1.72.602.74.426 1.56.778 2.498.905.8.11 1.673-.104 2.303-.638.219-.185.405-.407.55-.666.146-.292.066-.593.07-.894.314-.553.638-1.38.197-2.845-.404-1.245-1.405-2.113-2.552-3.01-.061-.05-.124-.096-.185-.144-.674-.528-1.32-.938-1.977-1.383 1.608-.541 3.017-1.06 6.385-2.044l.051-.013c4.042-1.178 6.605-1.74 7.789-2.066zm1.21 18.769c.053-.181.096-.306-.007-.304.013 0 .012.193.008.304zm23.797-16.826c-.052.017.082.639.391 1.73.3 1.058.78 2.604 1.491 4.012.216.427.45.836.707 1.229 1.372 2.078 3.086 2.52 3.547 2.704-.32-.221-1.993-1.037-3.177-2.94-.242-.383-.464-.78-.673-1.196-.679-1.343-1.22-2.902-1.589-3.91-.39-1.063-.635-1.65-.697-1.629zm6.136 9.675c.037.026.136.078.131.087.013-.025-.045-.053-.131-.087zm-29.51-3.694c.472 2.441.73 3.957 1.094 6.01-.198-.08-.37-.173-.573-.25a34.379 34.379 0 0 0-3.095-1.007c-.63-.173-1.026-.14-1.567-.224-.125-.23-.786-1.044-1.309-1.745.714-.116.958-.01 2.095-.532.11-.05.218-.103.326-.157 1.848-.917 2.69-1.758 3.028-2.095zm29.487 7.028c-.067-.089-1.848 1.412-4.288 2.347-.162.063-.325.122-.49.18-2.66.923-5.284 1.273-5.265 1.39-.004-.023 2.493.046 5.411-.964.17-.059.34-.121.509-.187 2.706-1.074 4.09-2.81 4.123-2.766zm-36.708.905c-.035-.011-.59.69-.573 1.822v.026c.045 1.128.65 1.772.681 1.76.11-.041-.211-.891-.229-1.776v-.02c-.026-.895.235-1.779.121-1.812zm-6.557.701c1.342 1.202 2.917 2.663 4.66 3.781.116.074.234.144.352.211 1.174.66 2.481.986 3.753 1.085 1.867.145 3.805.15 5.192.149 1.459-.001 1.605-.047 2.283-.08-.014.008-.043.005-.057.013-.644.345-.91.865-.99 1.206-.071.323.004.48.019.478.025-.002.018-.163.128-.434.119-.3.392-.713.977-.982.014-.007.042-.004.057-.011.043-.02.122-.01.167-.028a6.9 6.9 0 0 1 .784-.275 5.93 5.93 0 0 1 2.1-.209c.179.022.36.1.547.15.063.016.123.03.185.05.464.156.874.381.918.798.021.093.03.188.025.282-.026.557-.503 1.08-1.005 1.412-.027.018-.026.06-.054.077-.09.052-.196.009-.29.051-.825.375-1.792.482-2.542.458-.047-.002-.05-.023-.095-.026-.05-.004-.057-.028-.103-.03-.622-.048-1.101-.086-1.388-.392-.38-.37-.377-.735-.399-.825-.034.14-.146.487.232.972.34.406.91.553 1.64.612.04.002.05.03.092.033h.002c.384.035.834.048 1.303.011-.395.092-.829.196-1.239.293l-.077.018c-.496.118-.395.077-1.097.242a69.6 69.6 0 0 1-3.475.745c-.802.14-1.699.329-2.514.183-.804-.124-1.46-.743-2.24-1.283-.232-.165-.464-.33-.698-.494-1.365-.959-2.731-1.899-4.013-2.773-1.108-.76-1.972-1.208-2.68-2.036-.466-.528-.595-1.258-.597-1.835 0-1.015.065-1.115.136-1.596zm19.443 4.308c.034.079.013.099.059.185-.016 0-.033-.012-.05-.013-.41-.025-.64.167-1.01.21a3.28 3.28 0 0 0 1-.382zm-1.985.748h.031l-.051.005a.068.068 0 0 0 .02-.005zm-7.731 1.35c-.08-.017-.433.585-.445 1.472v.04c.006.88.37 1.456.445 1.438.113-.026 0-.722.007-1.439v-.033c.006-.779.156-1.443-.007-1.478zm39.576 3.824c-.032-.04-.103.008-.224.116.039-.02.22-.12.224-.116z"/>
<path d="M52.892 101.778a72.315 28.233 3.711 0 1-29.51-21.639" fill="none" marker-start="url(#c)" stroke="#00f" stroke-linejoin="round" stroke-width="1.5"/>
<g stroke-width="1.333">
<g fill="red">
<path d="M45.834 10.229c.114-.478.306-1.243.306-1.415 0-.613-.498-.842-.9-.842-.363 0-.745.191-.975.478-.287-.306-.918-.803-2.028-.803-3.328 0-5.394 3.022-5.394 5.643 0 2.352 1.76 3.156 3.348 3.156 1.358 0 2.352-.746 2.658-1.033.727 1.033 1.99 1.033 2.2 1.033.708 0 1.263-.402 1.664-1.09.479-.766.727-1.799.727-1.894 0-.268-.287-.268-.459-.268-.21 0-.287 0-.382.096-.039.038-.039.076-.153.554-.383 1.53-.823 1.913-1.301 1.913-.21 0-.44-.076-.44-.708 0-.325.076-.63.268-1.396.134-.536.325-1.3.42-1.722zm-3.176 4.285c-.555.65-1.454 1.243-2.372 1.243-1.186 0-1.281-1.033-1.281-1.454 0-.994.65-3.347.956-4.093.593-1.396 1.53-1.875 2.315-1.875 1.128 0 1.587.9 1.587 1.11l-.038.268zM59.78 10.975l-3.826-3.807c-.23-.23-.267-.267-.42-.267a.397.397 0 0 0-.383.382c0 .134.038.172.249.383l3.825 3.845-3.825 3.844c-.21.21-.249.249-.249.383 0 .21.191.383.383.383.153 0 .19-.039.42-.268l3.807-3.807 3.96 3.96c.038.019.172.114.286.114.23 0 .383-.172.383-.382 0-.038 0-.115-.057-.21-.02-.039-3.061-3.042-4.017-4.017l3.5-3.5c.096-.116.383-.364.478-.48.02-.037.096-.114.096-.248a.372.372 0 0 0-.383-.382c-.153 0-.23.076-.44.287zM76.786 3.688c.077-.268.077-.306.077-.325 0-.249-.21-.344-.421-.344-.077 0-.096 0-.134.019l-2.468.114c-.267.02-.612.039-.612.574 0 .345.364.345.498.345.21 0 .554 0 .803.038-.153.65-.344 1.473-.536 2.2l-1.32 5.279c-.267 1.071-.267 1.3-.267 1.74 0 2.449 1.817 3.119 3.252 3.119 3.462 0 5.432-3.118 5.432-5.643 0-2.353-1.76-3.156-3.347-3.156-.919 0-1.684.363-2.085.612zm-1.09 12.07c-.746 0-1.377-.402-1.377-1.588 0-.612.19-1.32.325-1.913.191-.726.516-2.046.65-2.62.096-.325 1.186-1.3 2.353-1.3 1.186 0 1.282 1.032 1.282 1.453 0 .995-.65 3.347-.957 4.093-.65 1.55-1.721 1.875-2.276 1.875z"/>
</g>
<path d="M9.49 68.144c.115-.478.306-1.243.306-1.415 0-.613-.497-.842-.899-.842-.363 0-.746.191-.975.478-.287-.306-.918-.803-2.028-.803C2.566 65.562.5 68.584.5 71.205c0 2.352 1.76 3.156 3.347 3.156 1.359 0 2.353-.746 2.66-1.033.726 1.033 1.989 1.033 2.199 1.033.708 0 1.262-.402 1.664-1.09.478-.766.727-1.799.727-1.894 0-.268-.287-.268-.459-.268-.21 0-.287 0-.383.096-.038.038-.038.076-.153.554-.382 1.53-.822 1.913-1.3 1.913-.21 0-.44-.076-.44-.708 0-.325.076-.63.268-1.396.133-.536.325-1.3.42-1.722zm-3.175 4.285c-.555.65-1.454 1.243-2.372 1.243-1.186 0-1.281-1.033-1.281-1.454 0-.994.65-3.347.956-4.093.593-1.396 1.53-1.875 2.314-1.875 1.129 0 1.588.9 1.588 1.11l-.038.268zM42.064 114.282c.077-.268.077-.306.077-.325 0-.249-.21-.344-.42-.344-.077 0-.097 0-.135.019l-2.467.114c-.268.02-.612.039-.612.574 0 .345.363.345.497.345.21 0 .555 0 .803.038-.153.65-.344 1.473-.535 2.2l-1.32 5.279c-.268 1.071-.268 1.3-.268 1.74 0 2.449 1.817 3.119 3.252 3.119 3.462 0 5.432-3.118 5.432-5.643 0-2.353-1.76-3.156-3.347-3.156-.918 0-1.683.363-2.085.612zm-1.09 12.07c-.746 0-1.377-.402-1.377-1.588 0-.612.191-1.32.325-1.913a128.7 128.7 0 0 0 .65-2.62c.096-.325 1.186-1.3 2.353-1.3 1.186 0 1.282 1.032 1.282 1.453 0 .995-.65 3.347-.957 4.093-.65 1.55-1.721 1.875-2.276 1.875z"/>
</g>
<path d="m94.063 79.839.158-76.974" color="#000" fill="none" marker-end="url(#d)" stroke="red" stroke-linecap="round" stroke-linejoin="round" stroke-width="1.2" style="isolation:auto;mix-blend-mode:normal"/>
</svg>
