<svg width="220.357" height="122.25" xmlns="http://www.w3.org/2000/svg">
<defs>
<marker id="a" overflow="visible" orient="auto">
<path d="m-10 0-4 4L0 0l-14-4z" fill="#00f" fill-rule="evenodd" stroke="#00f" stroke-width=".8pt"/>
</marker>
<marker id="b" overflow="visible" orient="auto">
<path d="m-4 0-2 2 7-2-7-2z" fill="red" fill-rule="evenodd" stroke="red" stroke-width=".4pt"/>
</marker>
<marker id="c" overflow="visible" orient="auto">
<path d="m-4 0-2 2 7-2-7-2z" fill="green" fill-rule="evenodd" stroke="green" stroke-width=".4pt"/>
</marker>
<marker id="d" overflow="visible" orient="auto">
<path d="m-4 0-2 2 7-2-7-2z" fill-rule="evenodd" stroke="#000" stroke-width=".4pt"/>
</marker>
</defs>
<path d="m99.313 109.672 12.912-4.454 3.964 11.507" fill="none" stroke="#040404" stroke-linejoin="round" stroke-width=".6"/>
<path d="M177.912 21.676c.115-.46.172-.65.536-.708.172-.019.784-.019 1.166-.019 1.359 0 3.482 0 3.482 1.894 0 .65-.306 1.97-1.052 2.716-.498.497-1.511 1.11-3.233 1.11h-2.142zm2.754 5.241c1.932-.42 4.209-1.76 4.209-3.692 0-1.645-1.722-2.869-4.228-2.869h-5.451c-.383 0-.555 0-.555.383 0 .21.172.21.536.21.038 0 .401 0 .727.038.344.039.516.058.516.306 0 .077-.02.134-.077.364l-2.563 10.272c-.191.746-.23.899-1.74.899-.345 0-.517 0-.517.382 0 .21.23.21.268.21.536 0 1.875-.057 2.41-.057s1.894.058 2.43.058c.152 0 .382 0 .382-.383 0-.21-.172-.21-.536-.21-.707 0-1.243 0-1.243-.344 0-.115.038-.21.057-.326l1.263-5.069h2.276c1.74 0 2.085 1.072 2.085 1.741 0 .287-.153.88-.268 1.32-.134.535-.306 1.243-.306 1.626 0 2.066 2.296 2.066 2.544 2.066 1.626 0 2.296-1.932 2.296-2.2 0-.23-.21-.23-.23-.23-.172 0-.21.134-.248.268-.479 1.416-1.301 1.74-1.741 1.74-.631 0-.765-.42-.765-1.166 0-.593.115-1.569.191-2.18.038-.268.077-.632.077-.9 0-1.473-1.282-2.066-1.799-2.257zM195.61 25.75a1.429 1.429 0 0 0-1.033 1.32c0 .42.325.88.956.88.67 0 1.378-.555 1.378-1.492 0-1.014-1.014-1.684-2.18-1.684-1.091 0-1.799.823-2.048 1.167-.478-.803-1.549-1.167-2.64-1.167-2.41 0-3.71 2.353-3.71 2.984 0 .268.287.268.459.268.23 0 .363 0 .44-.248.555-1.741 1.932-2.315 2.716-2.315.727 0 1.071.344 1.071.956 0 .364-.268 1.416-.44 2.105l-.65 2.62c-.287 1.167-.976 1.74-1.626 1.74-.096 0-.536 0-.918-.286a1.429 1.429 0 0 0 1.033-1.32c0-.42-.325-.88-.957-.88-.67 0-1.377.555-1.377 1.492 0 1.014 1.014 1.683 2.18 1.683 1.091 0 1.799-.822 2.047-1.166.479.803 1.55 1.166 2.64 1.166 2.41 0 3.711-2.352 3.711-2.984 0-.267-.287-.267-.459-.267-.23 0-.363 0-.44.248-.555 1.741-1.932 2.315-2.716 2.315-.727 0-1.071-.344-1.071-.957 0-.401.248-1.415.42-2.123.134-.497.574-2.295.67-2.601.287-1.148.956-1.74 1.626-1.74.096 0 .535 0 .918.286z" fill="#000808"/>
<g fill="#00f" stroke-width="1.333">
<path d="M171.558 111.046c0-3.118 1.569-3.921 2.582-3.921.172 0 1.378.019 2.047.707-.784.058-.899.632-.899.88 0 .498.344.88.88.88.497 0 .88-.325.88-.899 0-1.3-1.454-2.046-2.927-2.046-2.39 0-4.15 2.065-4.15 4.437 0 2.449 1.893 4.342 4.112 4.342 2.563 0 3.175-2.295 3.175-2.486s-.191-.192-.248-.192c-.173 0-.21.077-.25.192-.554 1.779-1.797 2.008-2.505 2.008-1.014 0-2.697-.822-2.697-3.902zM186.8 111.122c0-2.448-1.913-4.476-4.227-4.476-2.391 0-4.247 2.085-4.247 4.476 0 2.468 1.99 4.304 4.228 4.304 2.314 0 4.246-1.875 4.246-4.304zm-4.227 3.826c-.823 0-1.665-.402-2.181-1.282-.478-.842-.478-2.008-.478-2.697 0-.746 0-1.779.459-2.62a2.567 2.567 0 0 1 2.18-1.282c.842 0 1.665.42 2.162 1.243s.497 1.932.497 2.659c0 .689 0 1.722-.42 2.563-.421.861-1.263 1.416-2.22 1.416zM191.297 111.505c.42.076 1.99.383 1.99 1.76 0 .975-.67 1.74-2.162 1.74-1.607 0-2.296-1.09-2.659-2.716-.057-.248-.077-.325-.268-.325-.248 0-.248.134-.248.478v2.525c0 .325 0 .46.21.46.096 0 .115-.02.478-.383.038-.039.038-.077.383-.44.841.803 1.702.822 2.104.822 2.2 0 3.08-1.281 3.08-2.659 0-1.013-.574-1.587-.804-1.817-.631-.612-1.377-.765-2.18-.918-1.072-.21-2.353-.459-2.353-1.568 0-.67.497-1.454 2.142-1.454 2.104 0 2.2 1.721 2.238 2.314.02.173.191.173.23.173.248 0 .248-.096.248-.46v-1.932c0-.325 0-.459-.21-.459-.096 0-.134 0-.383.23a2.472 2.472 0 0 1-.325.306c-.727-.536-1.511-.536-1.798-.536-2.334 0-3.06 1.282-3.06 2.353 0 .67.306 1.205.822 1.626.612.497 1.148.612 2.525.88zM206.822 105.652c0-1.262-.344-3.921-2.295-3.921-2.66 0-5.605 5.394-5.605 9.774 0 1.798.555 3.922 2.295 3.922 2.698 0 5.605-5.49 5.605-9.775zm-5.872 2.62c.325-1.224.707-2.754 1.473-4.112.516-.937 1.224-2.008 2.084-2.008.938 0 1.053 1.224 1.053 2.314 0 .937-.153 1.913-.613 3.807zm3.825.613c-.21.88-.612 2.505-1.339 3.883-.67 1.3-1.396 2.238-2.219 2.238-.63 0-1.033-.555-1.033-2.334 0-.803.115-1.913.613-3.787z"/>
</g>
<path d="M218.556 80.943a1.429 1.429 0 0 0-1.033 1.32c0 .42.325.88.956.88.67 0 1.378-.555 1.378-1.492 0-1.014-1.014-1.684-2.18-1.684-1.091 0-1.799.823-2.048 1.167-.478-.803-1.549-1.167-2.64-1.167-2.41 0-3.71 2.353-3.71 2.984 0 .268.287.268.459.268.23 0 .363 0 .44-.248.555-1.741 1.932-2.315 2.716-2.315.727 0 1.071.344 1.071.956 0 .364-.268 1.416-.44 2.105l-.65 2.62c-.287 1.167-.976 1.74-1.626 1.74-.096 0-.536 0-.918-.286a1.429 1.429 0 0 0 1.033-1.32c0-.42-.325-.88-.957-.88-.67 0-1.377.555-1.377 1.492 0 1.014 1.014 1.683 2.18 1.683 1.091 0 1.799-.822 2.047-1.166.479.803 1.55 1.166 2.64 1.166 2.41 0 3.711-2.352 3.711-2.984 0-.267-.287-.267-.459-.267-.23 0-.363 0-.44.248-.555 1.741-1.932 2.315-2.716 2.315-.727 0-1.071-.344-1.071-.957 0-.401.248-1.415.42-2.123.134-.497.574-2.295.67-2.601.287-1.148.956-1.74 1.626-1.74.096 0 .535 0 .918.286z" fill="#ff0808"/>
<path d="M154.05 86.945c0-1.262-.344-3.921-2.295-3.921-2.66 0-5.605 5.394-5.605 9.774 0 1.798.555 3.922 2.295 3.922 2.698 0 5.605-5.49 5.605-9.775zm-5.872 2.62c.325-1.224.707-2.754 1.473-4.112.516-.937 1.224-2.008 2.084-2.008.938 0 1.053 1.224 1.053 2.314 0 .937-.153 1.913-.613 3.807zm3.825.613c-.21.88-.612 2.505-1.339 3.883-.67 1.3-1.396 2.238-2.219 2.238-.63 0-1.032-.555-1.032-2.334 0-.803.114-1.913.612-3.787z" fill="#00f"/>
<g fill="none" stroke-linejoin="round">
<path d="M142.765 107.226a41.75 41.75 0 0 0-11.492-17.238" marker-end="url(#a)" stroke="#00f" stroke-width=".5"/>
<path d="M68.87 21.18a105.669 105.65.268 0 1 80.77 4.879 105.669 105.65.268 0 1 53.636 60.574" stroke="#bbb" stroke-width=".5"/>
<path d="m86.232 71.137 86.488-29.783 17.185 49.888" stroke="#0404ff" stroke-dasharray="2.40000004, 2.40000004" stroke-width=".4"/>
<g stroke-linecap="round" stroke-width="1.5">
<path d="m103.368 121.041 97.806-33.68" marker-end="url(#b)" stroke="red"/>
<path d="M103.368 121.041 69.681 23.253" marker-end="url(#c)" stroke="green"/>
<path d="m103.368 121.041 67.86-78.062" marker-end="url(#d)" stroke="#000"/>
</g>
</g>
<g fill="#00f">
<ellipse transform="rotate(-19.002) skewX(.006)" cx="57.999" cy="95.173" rx="2.981" ry="2.98"/>
<ellipse transform="rotate(-19.002) skewX(.006)" cx="149.833" cy="148.102" rx="2.981" ry="2.98"/>
<path d="M44.936 80.177c.421.076 1.99.383 1.99 1.76 0 .975-.67 1.74-2.162 1.74-1.607 0-2.295-1.09-2.659-2.716-.057-.248-.076-.325-.268-.325-.248 0-.248.134-.248.478v2.525c0 .325 0 .46.21.46.096 0 .115-.02.478-.383.039-.039.039-.077.383-.44.842.803 1.702.822 2.104.822 2.2 0 3.08-1.281 3.08-2.659 0-1.013-.574-1.587-.804-1.817-.63-.612-1.377-.765-2.18-.918-1.072-.21-2.353-.459-2.353-1.568 0-.67.497-1.454 2.142-1.454 2.104 0 2.2 1.721 2.238 2.314.02.173.192.173.23.173.248 0 .248-.096.248-.46v-1.931c0-.326 0-.46-.21-.46-.096 0-.134 0-.383.23a2.47 2.47 0 0 1-.325.306c-.727-.536-1.51-.536-1.798-.536-2.333 0-3.06 1.282-3.06 2.353 0 .67.306 1.205.822 1.626.612.497 1.148.612 2.525.88zM51.86 75.433l-2.678.21v.593c1.243 0 1.416.115 1.416 1.052v5.146c0 .86-.21.86-1.492.86v.594c.612-.02 1.645-.058 2.104-.058.67 0 1.339.038 1.99.058v-.593c-1.263 0-1.34-.096-1.34-.842zm.077-3.328a.996.996 0 0 0-1.014-1.014c-.593 0-1.014.516-1.014 1.014 0 .516.42 1.013 1.014 1.013a.996.996 0 0 0 1.014-1.013zM55.873 77.307v5.126c0 .861-.21.861-1.492.861v.593c.67-.02 1.645-.057 2.161-.057.498 0 1.492.038 2.143.057v-.593c-1.282 0-1.492 0-1.492-.86v-3.52c0-1.99 1.358-3.06 2.582-3.06 1.205 0 1.416 1.032 1.416 2.122v4.457c0 .861-.21.861-1.492.861v.593c.669-.02 1.645-.057 2.161-.057.497 0 1.492.038 2.142.057v-.593c-.994 0-1.472 0-1.492-.574v-3.653c0-1.645 0-2.238-.593-2.927-.267-.325-.899-.708-2.008-.708-1.396 0-2.295.823-2.831 2.009v-2.009l-2.697.21v.594c1.339 0 1.492.134 1.492 1.071zM76.335 74.323c0-1.262-.345-3.921-2.296-3.921-2.659 0-5.604 5.394-5.604 9.774 0 1.798.554 3.922 2.295 3.922 2.697 0 5.605-5.49 5.605-9.775zm-5.873 2.62c.325-1.224.708-2.754 1.473-4.112.516-.937 1.224-2.008 2.085-2.008.937 0 1.052 1.224 1.052 2.314 0 .937-.153 1.913-.612 3.807zm3.826.613c-.21.88-.612 2.505-1.34 3.883-.669 1.3-1.396 2.238-2.218 2.238-.631 0-1.033-.555-1.033-2.334 0-.803.115-1.913.612-3.787z"/>
</g>
<g fill="green" stroke-width=".75">
<path d="M.5 23.877h3.673v-.765H1.265V1.707h2.908V.942H.5zM14.704 5.12c0-1.473-.174-2.53-.79-3.468-.415-.616-1.246-1.151-2.317-1.151C8.491.5 8.491 4.156 8.491 5.12s0 4.54 3.106 4.54c3.107 0 3.107-3.576 3.107-4.54zm-3.107 4.164c-.616 0-1.433-.361-1.7-1.46-.188-.79-.188-1.887-.188-2.878 0-.978 0-1.995.201-2.732.281-1.057 1.138-1.339 1.687-1.339.723 0 1.42.442 1.66 1.219.215.723.228 1.687.228 2.852 0 .99 0 1.982-.174 2.825-.268 1.219-1.178 1.513-1.714 1.513zM30.692 6.365c.215 0 .536 0 .536-.321 0-.335-.308-.335-.536-.335h-7.98c-.214 0-.535 0-.535.321 0 .335.308.335.535.335zM37.127.875c0-.362-.027-.375-.402-.375-.857.844-2.076.857-2.625.857v.482c.322 0 1.205 0 1.942-.375v6.829c0 .442 0 .616-1.34.616h-.508v.482a101.66 101.66 0 0 1 2.384-.054c.415 0 2.102.04 2.396.054v-.482h-.509c-1.338 0-1.338-.174-1.338-.616zM12.28 13.968c0-.362-.027-.375-.402-.375-.857.844-2.075.857-2.624.857v.482c.321 0 1.205 0 1.942-.375v6.829c0 .442 0 .616-1.34.616h-.508v.482a101.66 101.66 0 0 1 2.383-.054c.415 0 2.102.04 2.397.054v-.482h-.509c-1.339 0-1.339-.174-1.339-.616zM39.595 18.212c0-1.473-.174-2.53-.79-3.468-.415-.616-1.245-1.151-2.317-1.151-3.106 0-3.106 3.655-3.106 4.619s0 4.54 3.106 4.54c3.107 0 3.107-3.576 3.107-4.54zm-3.107 4.164c-.615 0-1.432-.361-1.7-1.46-.188-.79-.188-1.887-.188-2.878 0-.978 0-1.995.201-2.732.282-1.057 1.138-1.339 1.687-1.339.724 0 1.42.442 1.66 1.219.215.723.228 1.687.228 2.852 0 .99 0 1.982-.174 2.825-.267 1.219-1.178 1.513-1.714 1.513zM47.592 23.877V.942h-3.673v.765h2.908v21.405h-2.908v.765zM64.91 9.531a1.428 1.428 0 0 0-1.033 1.32c0 .42.325.88.956.88.67 0 1.377-.555 1.377-1.492 0-1.014-1.013-1.684-2.18-1.684-1.09 0-1.798.823-2.047 1.167-.478-.803-1.55-1.167-2.64-1.167-2.41 0-3.71 2.353-3.71 2.984 0 .268.286.268.459.268.23 0 .363 0 .44-.248.554-1.741 1.931-2.315 2.716-2.315.727 0 1.07.344 1.07.956 0 .364-.267 1.416-.439 2.105l-.65 2.62c-.287 1.167-.976 1.74-1.626 1.74-.096 0-.536 0-.918-.286a1.429 1.429 0 0 0 1.032-1.32c0-.42-.325-.88-.956-.88-.67 0-1.377.555-1.377 1.492 0 1.014 1.014 1.683 2.18 1.683 1.09 0 1.798-.822 2.047-1.166.478.803 1.55 1.166 2.64 1.166 2.41 0 3.71-2.352 3.71-2.984 0-.267-.286-.267-.458-.267-.23 0-.364 0-.44.248-.555 1.741-1.932 2.315-2.716 2.315-.727 0-1.072-.344-1.072-.957 0-.401.249-1.415.421-2.123.134-.497.574-2.295.67-2.601.287-1.148.956-1.74 1.626-1.74.095 0 .535 0 .918.286z"/>
</g>
</svg>
