<svg width="143.118" height="139.829" viewBox="0 0 37.867 36.996" xml:space="preserve" xmlns="http://www.w3.org/2000/svg">
<defs>
<marker id="d" overflow="visible" orient="auto">
<path d="m-4 0-2 2 7-2-7-2Z" fill="red" fill-rule="evenodd" stroke="red" stroke-width=".4pt"/>
</marker>
<marker id="a" overflow="visible" orient="auto">
<path d="m-4 0-2 2 7-2-7-2Z" fill-rule="evenodd" stroke="#000" stroke-width=".4pt"/>
</marker>
<marker id="b" overflow="visible" orient="auto">
<path d="m-4 0-2 2 7-2-7-2Z" fill-rule="evenodd" stroke="#000" stroke-width=".4pt"/>
</marker>
<marker id="c" overflow="visible" orient="auto">
<path d="M5.231 2.42-1.324.01 5.23-2.401C4.184-.978 4.19.969 5.231 2.42z" fill="#00f" fill-rule="evenodd" stroke="#00f" stroke-linejoin="round" stroke-width=".375"/>
</marker>
</defs>
<path d="m-178.075 577.404-19.942-1.797" color="#000" fill="none" marker-end="url(#a)" stroke="#000" stroke-linecap="round" stroke-linejoin="round" stroke-width=".318" style="isolation:auto;mix-blend-mode:normal" transform="translate(198.64 -556.412)"/>
<path d="m-178.075 577.404-10.697 8.532" color="#000" fill="none" marker-end="url(#b)" stroke="#000" stroke-linecap="round" stroke-linejoin="round" stroke-width=".318" style="isolation:auto;mix-blend-mode:normal" transform="translate(198.64 -556.412)"/>
<path d="M-168.207 581.211c.014.024.058.104.056.105.01-.005-.016-.044-.056-.105zm-5.697-14.83c-.026-.024-.043.007-.068.047.039-.026.066-.049.068-.047zm-1.786 6.675c-.066.042-.226.083-.314.129.09-.039.245-.073.314-.11v-.02zm0 .02c.038.624.021.704.02 1.178-.108.164-.126.21-.298.41l-.01.013c-.373.433-.802.758-.783.783.002.003.458-.226.873-.705l.012-.013c.154-.182.123-.209.208-.364-.005.672.013 1.753.028 1.754-.012 0 .059-.843.072-1.931v-.088c.003-.365.02-.668-.006-1.102v-.017c-.004-.057.004-.087 0-.145-.012-.15-.024-.3-.039-.45-.084-.857-.313-2.331-.383-2.822.054.167.13.423.136.422.016-.005-.054-.257-.16-.73-.012-.049-.016-.153-.028-.209-.004-.058-.021-.16-.019-.202l-.012-.036c-.087-.429-.192-.89-.19-1.459 0-.346.016-.703.055-1.063a7.162 7.162 0 0 1 .47-1.944c.245-.607.557-.897.794-1.076-.04.161-.087.322-.105.482-.088.798.05 1.557.191 2.107.079.345.175.605.422.672.335.082.424-.038.471-.113a.516.516 0 0 1-.457.06c-.218-.056-.268-.293-.356-.638-.125-.547-.25-1.3-.157-2.075.024-.201.075-.403.134-.603l.004-.018c.083-.274.19-.542.348-.787.03-.045.06-.09.092-.133.074-.087.125-.193.193-.183.03-.022.054.063.094.13.156.396.175.86.213 1.264.074.803.1 1.44.105 1.976 0 .648-.154.952-.145.96.009.008.183-.314.207-.888.04.478.117 1.169.299 2.085.088.445.244.93.349 1.442-.038.03-.114.197-.303.282a.699.699 0 0 1-.062.027c-.251.097-.54.102-.538.134 0-.002.258.099.58-.023a.642.642 0 0 0 .074-.032c.21-.116.247-.247.262-.333.01.05.026.09.034.142.066.395.051.828.16 1.264.176.69.46 1.358.808 2.024.136.26.29.51.452.756.12.181.243.36.366.537.17.244.288.522.394.802.239.634.453 1.215.724 1.79.31.662.66 1.253.867 1.829.256.71.354 1.37.504 1.87.187.62.416.966.52 1.122-.069-.116-.264-.442-.458-1.14-.131-.473-.23-1.103-.453-1.784a18.25 18.25 0 0 0 1.116 1.895c.405.587.895.952 1.424 1.503.5.52.9 1.098 1.364 1.691.149.19.301.378.461.56 1.425 1.612 1.301 1.433 2.31 2.458 1.062 1.08 1.659 1.673 1.669 1.664.012-.012-.564-.625-1.61-1.72-.976-1.02-.876-.89-2.28-2.481a12.045 12.045 0 0 1-.456-.554c-.46-.59-.865-1.172-1.374-1.699-.54-.558-1.025-.913-1.421-1.482-.731-1.046-1.373-2.317-1.692-2.934-.14-.281-.252-.544-.391-.843-.265-.573-.475-1.15-.713-1.786a3.768 3.768 0 0 0-.407-.829 31.364 31.364 0 0 1-.364-.535 8.624 8.624 0 0 1-.446-.745c-.346-.66-.628-1.32-.804-1.997-.108-.413-.096-.846-.167-1.253-.106-.607-.308-1.143-.413-1.64-.31-1.465-.35-2.098-.382-2.355a18.497 18.497 0 0 0-.06-1.77c-.032-.401-.05-.873-.212-1.296-.018-.081-.08-.191-.21-.207h-.001c-.148.02-.23.142-.284.23a2.846 2.846 0 0 0-.096.14 3.2 3.2 0 0 0-.387.943c-.248.136-.593.376-.895 1.072a6.815 6.815 0 0 0-.496 1.97c-.04.365-.054.727-.051 1.077.007.763.173 1.475.294 1.923.001.005.001.002.003.007.006.075-.005.103.006.212.07.693.24 1.792.35 2.904l.039.447c.008.108-.003.093.003.198m-.314.13c-.219.093-.413.192-.762.264-.42.089-.863.025-1.425-.136-.582-.168-1.017-.33-1.711-.563-.256-.086-.543-.179-.84-.185-.42-.007-.915-.005-1.371-.041a34.445 34.445 0 0 1-2.76-.336c-.387-.063-.77-.153-1.168-.253-.424-.104-.846-.014-1.273.013-1.266.077-2.658.157-4.012.329-.674.081-1.473.113-1.997.618-.252.249-.346.63-.265.974.087.347.398.584.734.672.298.08.603.116.91.128.266.01.533.003.796-.008.427-.018.845-.086 1.259-.078.447.008.9.06 1.352.09.558.038 1.312.055 1.856.082.533.026.857.103 1.375.188.7.115 1.368.228 2.014.435.428.139.822.335 1.132.622-.293.055-.918.2-2.396.462-.406.071-1.003.115-1.471.267-.312.105-.538.358-.727.626-.311.435-.602.9-.91 1.352l-.03.044c-.261.38-.55.732-.736 1.158-.131.304-.163.636-.122.948.039.304.145.6.36.805.295.275.724.411 1.026.546.39.176.657.303.916.408.036.057.441.437 1.151 1.069.025.021.064.049.089.071-.037.121-.07.148-.083.444a.81.81 0 0 0 .16.547c.197.238.434.372.718.57l1.056.74.185.131c.195.14.387.31.642.355.247.038.495-.015.704-.058.34-.067.667-.152.92-.221.184-.05.154-.05.283-.09.008-.001.01-.003.019-.005.23-.07.457-.14.52-.164.09-.02.178-.049.263-.095.007-.004.007-.017.014-.02.046.018.026.012.075.032.671.276 1.685.673 2.75.931.154.038.31.074.467.107 1.096.233 2.04.301 2.904.199.25-.03.45-.088.626-.153.218.292.234.372.743.89.455.461 1.118 1.085 1.609 1.684l.113.139c.746.92 1.483 1.94 1.971 2.608.513.702.806 1.092.82 1.082.012-.008-.257-.416-.75-1.13a44.472 44.472 0 0 0-2.061-2.775c-.504-.613-1.165-1.222-1.63-1.68-.49-.48-.524-.55-.765-.83.426-.165.642-.39.739-.476-.079.04-.366.215-.834.373l-.042.013c-.183.059-.303.14-.549.163-.857.083-1.779.007-2.87-.225-.155-.033-.31-.067-.464-.104-1.05-.252-2.074-.636-2.747-.89l-.06-.022c.135-.1.27-.229.28-.404a.503.503 0 0 0-.005-.104c-.049-.195-.226-.278-.4-.316-.014-.029-.002-.034-.021-.065-.02-.032-.03-.024-.048-.05a.678.678 0 0 0 .235-.515c0-.012-.01-.024-.01-.036a.418.418 0 0 0 .017.038c-.025.004.059-.168-.112-.438-.15-.23-.382-.379-.738-.553-.189-.095-.4-.18-.609-.266-.095-.568-.161-.99-.29-1.672v-.003l-.001-.006c-.111-.59-.263-1.212-.403-1.872-.013-.06 0-.128-.01-.19l-.001-.016a2.958 2.958 0 0 1-.034-.705c0-.014-.004-.028-.002-.042 0-.012-.004-.024-.002-.037.053-.439.165-.947.163-1.428-.002-.396-.124-.81-.403-1.122-.016-.017-.039-.025-.055-.041-.003-.003-.008-.005-.011-.01-.04-.04-.093-.067-.136-.104.009-.058-.07-.352-.046-.736l.004-.06c.038-.441.169-.846.139-.855a2.025 2.025 0 0 0-.263.908c-.018.388.084.62.132.717a3.251 3.251 0 0 0-1.065-.569c-.655-.211-1.328-.327-2.03-.443-.518-.086-.847-.165-1.387-.193-.549-.028-1.302-.046-1.853-.083-.444-.03-.898-.082-1.358-.09-.428-.009-.849.059-1.266.076-.262.01-.526.017-.787.007a3.97 3.97 0 0 1-.883-.122c-.303-.083-.586-.29-.65-.585-.07-.304.012-.648.233-.862.47-.472 1.248-.495 1.928-.588 1.348-.173 2.739-.255 4.004-.336.44-.026.85-.118 1.241-.019.399.1.785.19 1.177.251.976.155 1.9.26 2.77.326.462.034.957.029 1.376.034.281.002.562.092.818.176.69.226 1.136.387 1.717.548.567.159 1.024.218 1.452.123.361-.081.542-.2.753-.31zm2.746-4.52c-.022-.013-.118.145-.296.209-.04.015-.08.028-.121.04-.25.07-.504.108-.5.139.002.015.24.059.532-.024a.957.957 0 0 0 .133-.048c.253-.12.248-.318.252-.315zm-19.968 3.971c.002.003-.025.017-.045.029.031-.011.05-.02.045-.029zm-.045.029c-.122.043-.496.129-.863.52a.755.755 0 0 0-.213.487.542.542 0 0 0 .057.26c.152.274.449.412.648.487.323.125.52.077.519.078.002-.016-.2-.026-.484-.16-.186-.09-.463-.23-.579-.461a.367.367 0 0 1-.045-.2.723.723 0 0 1 .182-.416c.322-.368.675-.536.778-.595zm3.226.602c-.026 0-.064.212-.045.497l.005.06c.028.306.098.545.127.54.036-.004.02-.252-.007-.551-.03-.333.024.274-.005-.059-.025-.274-.039-.487-.074-.487zm3.541.058c-.016-.003-.137.284-.134.673v.004c.005.388.133.67.149.667.03-.006-.027-.325-.03-.667v-.005c-.003-.344.046-.667.015-.672zm4.36 2.688c.033.03.077.048.108.081.26.285.376.677.38 1.053.005.464-.106.97-.157 1.415-.003.025.006.048.004.072-.285.083-.378.13-.938.228-.39.07-.734.097-1.169.152a9.558 9.558 0 0 0-.43.063c-.226.037-.45.114-.594.293-.15.194-.274.384-.404.539-.233.276-.26.296-.393.436-.037-.024-.08-.058-.116-.08-.535-.336-.887-.5-.894-.489-.015.025.318.224.837.575.032.021.07.051.102.073l.03.022.087.063.029.021c.19.133.379.262.578.419l.048.038c.301.243.554.441.655.734.073.198.052.355.036.504a.816.816 0 0 0-.196-.317 2.45 2.45 0 0 0-1.121-.615c-.412-.105-.511.067-.56.138.074-.049.251-.149.54-.065.31.093.718.276 1.062.621.161.166.278.436.159.635a.468.468 0 0 1-.116.143.267.267 0 0 1-.111.051h-.001a.622.622 0 0 0-.081.016c-.037.005-.074.009-.111.016-.023.004-.041.016-.065.019-.053.005-.097.047-.15.04-.076-.009-.138-.047-.21-.066-.069-.02-.137-.037-.201-.064a2.29 2.29 0 0 1-.614-.355c-.187-.161-.264-.359-.26-.525.007-.297.13-.434.122-.442.004.004-.16.097-.188.439a.748.748 0 0 0 .264.598c.043.04.107.073.156.112a16.707 16.707 0 0 1-1.099-.48c-.307-.145-.729-.282-.992-.539-.191-.18-.284-.454-.322-.742a1.692 1.692 0 0 1 .117-.887c.177-.407.464-.751.728-1.137l.03-.045c.31-.454.6-.92.906-1.352.187-.26.39-.499.667-.587.446-.15 1.042-.2 1.454-.278 1.515-.287 2.12-.47 2.394-.544zm-4.116 5.442c.014.011.024-.002.04-.024-.023.015-.037.026-.04.024zm7.634-4.535c-.009-.002-.074.203-.173.598-.089.358-.24 1.001-.254 1.652-.01.53.072 1.034.157 1.601.031.208.06.413.082.618.185 1.787.16 3.254.188 3.254-.025 0 .115-1.384-.07-3.265-.021-.208-.05-.416-.081-.625-.086-.57-.171-1.062-.167-1.581.004-.63.139-1.286.21-1.64.08-.398.122-.609.108-.612zm-6.575.884c-.029.012.092.321.173.662l.01.04c.073.324.076.63.106.63.014 0 .088-.283.01-.656l-.009-.042c-.092-.383-.274-.64-.29-.634zm3.394.877a3.1 3.1 0 0 0 .037.696c-.304.041-.954.12-2.094.453l-.013.003c-.962.281-1.302.459-1.692.63-.043-.03-.088-.064-.13-.091.146-.125.179-.125.427-.401.14-.156.27-.347.419-.532.113-.149.312-.207.526-.245.14-.024.283-.043.427-.062.423-.053.785-.086 1.173-.163.581-.114.648-.181.92-.288zm.038.717c.01.06-.003.126.01.185.144.664.3 1.286.415 1.874l.003.019c-.118.055-.401.244-.85.466a3.774 3.774 0 0 1-.085.04c-.276.13-.352.145-.537.204-.13-.171-.121-.194-.305-.407a8.75 8.75 0 0 0-.291-.32c-.377-.395-.696-.57-.707-.556-.014.02.283.252.624.632.094.105.186.21.283.322.173.2.187.2.321.357l.033.036c.16.186.336.389.396.44-.19-.028-.409-.08-.553-.08-.267.003-.41.018-.41.029 0 .013.143.022.408.04.173.013.42.071.655.122.003 0 .035.041.037.04l-.03-.038c.109.023.18.019.303.055.262.078.531.168.807.272.078.03.144.063.22.093l.07.03c.183.075.37.149.538.228.143.069.188.138.29.198-.106-.035-.214-.073-.313-.086-.18-.028-.3.036-.446.058-.02.003-.042.003-.06.007-.101.021-.234-.01-.316.042a.507.507 0 0 0-.207.377l-.007.08V584.165l.003.03c.006.058.013.087.018.086.005 0 .009-.028.012-.086l.002-.03v-.004h.002l.016-.078c.019-.09.07-.248.2-.318.074-.043.2-.01.29-.025.019-.003.041-.003.061-.005.134-.014.24-.065.414-.038.272.05.608.15.743.405.046.08.067.174.066.268a.565.565 0 0 1-.19.428c-.002.002-.005 0-.007.003-.008.007-.022.006-.03.012-.214.158-.53.158-.783.147h-.03c-.011 0-.013-.005-.023-.006-.275-.022-.474-.04-.59-.185a.542.542 0 0 1-.151-.406c-.025.086-.06.236.094.45.138.178.37.229.662.248h.057c.095.008.2.01.308.004-.069.019-.151.019-.21.044l-.09-.004-.048-.002c-.179-.008-.222-.016-.613-.029-.358-.011-.886-.025-1.366-.067a2.335 2.335 0 0 1-1.03-.33c-.469-.298-.918-.705-1.287-1.022-.005-.005-.014-.01-.019-.014l-.042-.034c-.702-.598-1.113-.936-1.195-.983.147.058.292.112.455.159a1.8 1.8 0 0 0 .661.24.79.79 0 0 0 .61-.17.639.639 0 0 0 .145-.176c.039-.077.017-.156.018-.236.084-.147.17-.365.053-.753-.107-.33-.372-.56-.675-.796l-.05-.038c-.178-.14-.349-.249-.522-.366.425-.144.798-.28 1.689-.541l.013-.003c1.07-.312 1.748-.46 2.061-.547zm.32 4.966c.014-.048.026-.081-.002-.08.003 0 .003.05.002.08zm6.296-4.452c-.013.005.022.17.104.458.08.28.206.689.394 1.062.057.112.12.22.187.325.363.55.817.666.939.715-.085-.059-.527-.274-.84-.778a3.794 3.794 0 0 1-.179-.316c-.18-.356-.322-.768-.42-1.035-.104-.281-.168-.436-.185-.43zm1.624 2.56c.01.007.036.02.034.023.003-.007-.011-.014-.034-.023zm-7.808-.977c.125.646.193 1.047.29 1.59-.053-.021-.098-.046-.152-.066a9.096 9.096 0 0 0-.819-.267c-.167-.045-.271-.037-.415-.059-.033-.06-.208-.276-.346-.462.189-.03.253-.003.554-.14a3.11 3.11 0 0 0 .087-.042c.488-.243.711-.465.8-.554zm7.802 1.86c-.018-.024-.49.373-1.135.62a3.869 3.869 0 0 1-.13.048c-.703.244-1.398.337-1.392.368-.001-.006.66.012 1.431-.255l.135-.05c.716-.284 1.082-.744 1.09-.732zm-9.713.239c-.009-.003-.156.182-.151.482v.007c.012.298.172.469.18.466.03-.011-.056-.236-.06-.47v-.005c-.007-.237.062-.471.032-.48zm-1.734.185c.355.318.771.705 1.233 1a2.401 2.401 0 0 0 1.086.343c.494.039 1.006.04 1.373.04.386 0 .425-.013.604-.021-.004.002-.01 0-.015.003a.502.502 0 0 0-.261.319c-.02.085 0 .126.005.126.007 0 .005-.043.034-.115a.486.486 0 0 1 .258-.26c.004-.002.011 0 .015-.003.011-.005.032-.002.044-.007.065-.027.134-.051.208-.072.16-.046.346-.072.555-.056.048.006.095.027.145.04l.05.013c.122.042.23.101.242.211a.27.27 0 0 1 .007.075c-.007.147-.133.286-.266.373-.007.005-.007.016-.014.02-.024.015-.052.003-.077.014-.219.1-.474.128-.673.122-.012-.001-.013-.006-.025-.007-.013-.001-.015-.007-.027-.008-.165-.013-.292-.023-.368-.104-.1-.098-.1-.195-.105-.218-.009.037-.039.129.061.257.09.107.241.146.434.162.011 0 .013.008.025.009.102.009.22.012.345.003l-.328.077-.02.005c-.132.031-.105.02-.29.064-.252.059-.587.137-.92.197-.212.038-.45.087-.665.049-.213-.033-.386-.197-.593-.34a68.916 68.916 0 0 0-1.246-.864c-.293-.201-.522-.32-.71-.539-.123-.14-.157-.333-.157-.485 0-.269.017-.295.036-.423zm5.144 1.14c.009.02.003.026.015.049l-.013-.003c-.108-.007-.17.044-.267.056a.868.868 0 0 0 .265-.102zm-.525.198h.008-.014.005zm-2.046.357c-.02-.005-.114.155-.118.39v.01c.002.233.098.385.118.38.03-.006 0-.19.002-.38v-.01c.001-.205.041-.381-.002-.39zm10.471 1.012c-.008-.01-.027.002-.059.03.01-.005.058-.031.06-.03z" style="stroke-width:.264583" transform="translate(198.64 -556.412)"/>
<path d="M-188.968 583.209a19.133 7.47 3.711 0 1-7.808-5.725" fill="none" marker-start="url(#c)" stroke="#00f" stroke-linejoin="round" stroke-width=".397" transform="translate(198.64 -556.412)"/>
<path d="M16.226 3.04c.339 0 .668-.03.88-.102.43-.146.502-.435.502-.597 0-.293-.279-.486-.694-.486-.916 0-1.564.633-1.564 1.418 0 .582.39.91 1.058.91.132 0 .48-.004.785-.121.293-.116.496-.324.496-.385 0-.04-.081-.131-.127-.131-.03 0-.04.015-.076.056-.273.288-.668.4-1.063.4-.364 0-.496-.203-.496-.492 0-.096.02-.263.076-.47zm-.177-.182c.09-.37.212-.507.298-.588a.823.823 0 0 1 .567-.232c.182 0 .39.08.39.308 0 .512-.764.512-1.255.512z" fill="red"/>
<path d="M2.99 26.184c0-.334-.09-1.038-.607-1.038C1.68 25.146.9 26.573.9 27.732c0 .476.147 1.038.608 1.038.713 0 1.482-1.453 1.482-2.586zm-1.553.693c.086-.324.187-.729.39-1.088.136-.248.323-.532.551-.532.248 0 .278.324.278.613 0 .248-.04.506-.162 1.007zm1.012.162c-.056.233-.162.663-.354 1.027-.178.344-.37.592-.587.592-.167 0-.274-.146-.274-.617 0-.213.03-.506.162-1.002z" fill="#00f"/>
<path d="m-178.075 577.404.042-20.366" color="#000" fill="none" marker-end="url(#d)" stroke="red" stroke-linecap="round" stroke-linejoin="round" stroke-width=".318" style="isolation:auto;mix-blend-mode:normal" transform="translate(198.64 -556.412)"/>
</svg>
