<svg width="202.114" height="123.699" viewBox="0 0 53.476 32.729" xml:space="preserve" xmlns="http://www.w3.org/2000/svg">
<defs>
<marker id="a" overflow="visible" orient="auto">
<path d="m4 0 2-2-7 2 7 2Z" fill-rule="evenodd" stroke="#000" stroke-width=".4pt"/>
</marker>
</defs>
<path d="m-161.287 627.304.318 11.583" fill="none" stroke="#000" stroke-dasharray="4, 4" stroke-linejoin="round" stroke-width=".529" style="font-variation-settings:normal;opacity:1;vector-effect:none;fill:none;fill-opacity:1;stroke:#000;stroke-width:.529167;stroke-linecap:butt;stroke-linejoin:round;stroke-miterlimit:4;stroke-dasharray:1.05833,1.05833;stroke-dashoffset:0;stroke-opacity:1;-inkscape-stroke:none;stop-color:#000;stop-opacity:1" transform="translate(202.906 -611.15)"/>
<g fill="red" color="#000">
<path d="M22.559 111.443v-.84h5.423V105.4h-4.907v-.82H33.93v.82h-4.894v5.204h5.488v.839h-5.488v4.21h-1.053v-4.21Zm9.162-1.446-.878-.284q.794-1.414 1.498-3.422l1.052.31q-.956 2.233-1.672 3.396zm-6.412-.039q-.723-1.943-1.375-3.293l.975-.349q.53 1.053 1.388 3.306zM36.182 107.55l-.549-.646q1.55-1.09 2.738-2.931l.956.355q-.627.923-1.53 1.847-.898.923-1.615 1.375zm4.617-2.215v-.82h6.63v.82zm-3.196 10.325v-5.32q-.865 1-1.66 1.646l-.626-.581q1.02-.866 2.015-2.196 1-1.33 1.523-2.402l.969.272q-.581 1.123-1.57 2.44h.369v6.14zm6.876-.181h-2.008l-.11-.943h1.608q.536 0 .536-.445v-5.043h-4.397v-.807h7.877v.807h-2.402v5.475q0 .433-.335.691-.33.265-.769.265zM56.934 107.769q-.484-.478-.833-.781l-.794-.691q-.846.568-1.472.82l-.426-.588q.917-.465 1.937-1.278 1.026-.814 1.498-1.466l.942.22q-.232.4-.471.658h3.377l.252.233q-.62 1.64-2.434 2.88-1.815 1.24-4.727 1.827l-.271-.717q1.898-.336 3.422-1.117zm-.988-1.924q.685.516 1.718 1.504 1.343-.858 1.963-1.943h-3.119q-.22.187-.562.439zm-6.818 7.212-.633-.445q.581-.685 1.324-2.002.742-1.317 1.091-2.344h-1.918v-.794h1.989v-2.124q-.826.135-1.827.258l-.175-.736q2.938-.31 4.43-.904l.413.723q-.69.252-1.86.484v2.299h1.414v.794h-1.414v.646q.433.49 1.55 1.388l-.484.755q-.368-.329-1.066-1.026v5.656h-.981v-5.43q-1.13 2.118-1.853 2.802zm8.07.426q-.464-.497-.961-.904l-1.13-.955q-.84.561-1.485.839l-.407-.64q1.007-.529 2.04-1.349 1.04-.82 1.576-1.55l.942.259q-.167.284-.516.672h3.861l.271.245q-.323.955-1.265 2.13-.943 1.176-2.75 2.099-1.802.923-3.713 1.272l-.297-.71q2.234-.459 3.835-1.408zm-1.407-2.344q1.447 1.117 2.183 1.821 1.446-1.085 2.111-2.35H56.45q-.362.303-.659.53zM70.797 115.453l-.104-.878h1.02q.498 0 .73-.226.233-.226.355-1.169.13-.949.13-3.131l-.013-2.538h-1.363q-.045 2.75-.8 4.83-.75 2.072-2.112 3.286l-.633-.523q1.085-.975 1.808-2.931.723-1.963.743-4.662H69.33v-.781h1.227v-2.783h.994v2.783h2.376v3.558q-.026 1.491-.122 2.628-.09 1.136-.22 1.575-.071.232-.22.42-.142.187-.355.316-.213.136-.465.187-.167.033-1.75.039zm-8.44.013-.193-.807q.827-.052 3.035-.29v-1.111h-2.777v-.743H65.2v-.975H62.77v-3.951h2.428v-.859h-2.79V106h2.79v-.865q-1.376.11-2.234.11h-.11l-.11-.704q3.145-.077 5.262-.523l.336.73q-.717.148-2.17.297V106h2.687v.73h-2.686v.859h2.453v3.951h-2.453v.975h2.628v.743h-2.628v1q1.691-.187 2.195-.27v.722q-1.04.297-6.011.756zm5.38-7.186h-1.59v.968h1.59zm-2.506 0h-1.582v.968h1.582zm2.505 1.607h-1.588v.969h1.588zm-2.505 0h-1.582v.969h1.582zM123.474 18.388h-9.252v.704h-.956V8.128h11.196V19.04h-.988zm-9.252-.781h9.252V8.91h-9.252zm1.969-1.886V10.77h5.178v4.952zm4.184-4.196h-3.196v3.396h3.196zM126.005 17.019v-.743h2.48V15.16h-2.131v-4.765h2.156v-1.09h-2.428V8.56h2.428V7.444h.956V8.56h2.35v.742h-2.35v1.091h2.118v4.765h-2.144v1.117h2.35v.743h-2.35v2.215h-.956v-2.215Zm1.24-4.642h1.291v-1.318h-1.291zm2.156 0h1.266v-1.318H129.4zm1.266.665H129.4v1.427h1.266zm-2.131 0h-1.291v1.427h1.291zm4.01-4.1v-.795h5.288v.795zm-.795 10.098-.206-.82q.33-.02.794-.065.8-1.956 1.698-5.436h-1.86v-.8h5.921v.8h-3.002q-.852 3.131-1.776 5.333 1.937-.226 3.39-.484-.555-1.363-1.065-2.505l.89-.284q.537 1.071 1.712 4.087l-.93.27q-.123-.341-.31-.826-1.459.278-5.256.73z" style="text-indent:0;text-decoration-line:none;text-transform:none" transform="matrix(.26458 0 0 .26458 -.132 -.132)"/>
</g>
<path d="m-161.286 627.352-.577-.281M-164.236 626.889l.456.004M-163.368 626.638l-.151.03-.717.22-1.173.385-.084.028-.885.391-.044.028M-161.286 627.352l-.414-.359M-161.286 627.352l-.203-.458M-161.286 627.352l.078-.403M-161.286 627.352l.256-.307M-161.286 627.352l.377-.242M-149.463 637.955l-.116-1.228-.073-.77-.265-1.014-.383-1.172-.23-.701-.635-1.058-.395-.659-.56-.772-.86-.886-.462-.476-.745-.585-1.048-.653-.428-.267-.779-.395-.947-.32-1.184-.321-.752-.165-.315-.039M-161.286 627.352l.47-.19M-161.286 627.352l.541-.14" style="fill:none;stroke:#000;stroke-width:.0661459;stroke-linejoin:round" transform="translate(202.906 -611.15)"/>
<path d="m-157.917 626.9-.656-.222-.633.054M-157.917 626.9l1.187.337.288.082M-161.286 627.352l.608-.093M-157.382 627.174l-.535-.274-1.039.003M-157.382 627.174l1.177.37.199.062M-161.286 627.352l.678-.045" style="fill:none;stroke:#000;stroke-width:.0661459;stroke-linejoin:round" transform="translate(202.906 -611.15)"/>
<path d="m-156.988 627.488-.394-.315-1.231-.082-.077-.005M-156.988 627.488l.67.24M-155.083 628.17l-.58-.456-.294-.092M-155.083 628.17l1.04.665.601.384.466.647M-152.976 629.866l.851.894.566.593.205.824M-161.286 627.352l.757.01M-156.754 627.833l-.235-.345-1.223-.164-.177-.023M-156.754 627.833l.083.034M-154.729 628.674l-.354-.503-.772-.277M-154.729 628.674l1.02.694.733.498.16.688M-161.286 627.352l.855.078M-154.619 629.206l-.11-.532-.996-.414M-154.619 629.206l.989.739.814.609" style="fill:none;stroke:#000;stroke-width:.0661459;stroke-linejoin:round" transform="translate(202.906 -611.15)"/>
<path d="m-152.98 631.256.164-.702.826.916.636.707" style="fill:none;stroke:#000;stroke-width:.0661459;stroke-linejoin:round" transform="translate(202.906 -611.15)"/>
<path d="m-151.526 633.021.172-.844.622 1.065.444.762M-150.288 634.003l-.242-.934M-150.462 634.964l.174-.96.382 1.172.254.78-.143.855-.03.188" style="fill:none;stroke:#000;stroke-width:.0661459;stroke-linejoin:round" transform="translate(202.906 -611.15)"/>
<path d="m-152.98 631.256.785.952.67.813M-152.083 633.853l.557-.832.593 1.082.471.86M-151.063 635.912l.225-.354.376-.594.368 1.177.136.434.132.424M-150.45 638.031l.624-1.032.114 1.228.076.815" style="fill:none;stroke:#000;stroke-width:.0661459;stroke-linejoin:round" transform="translate(202.906 -611.15)"/>
<path d="m-172.55 638.932.368 1.075.777.959.052.064.998.725.274.2 1.119.52.558.26 1.183.35.833.245 1.217.203 1.052.175 1.232.07 1.185.068 1.233-.055 1.216-.054 1.221-.182 1.143-.17 1.193-.315.974-.258 1.143-.465.73-.298 1.054-.641.45-.273.897-.846.183-.172.623-1.065.006-.01.172-1.087M-161.286 627.352l.993.174M-154.763 629.747l.144-.54-.949-.464M-154.763 629.747l.942.797.842.712-.49.69M-153.47 631.946l.726.998.661.91" style="fill:none;stroke:#000;stroke-width:.0661459;stroke-linejoin:round" transform="translate(202.906 -611.15)"/>
<path d="m-153.016 634.638.333-.28.6-.505.548 1.106.022.045.45.908" style="fill:none;stroke:#000;stroke-width:.0661459;stroke-linejoin:round" transform="translate(202.906 -611.15)"/>
<path d="m-152.084 636.81.927-.815.094-.083.343 1.186.27.933M-151.52 639.008l.91-.832.16-.145.108 1.229.076.857M-161.286 627.352l1.19.324.03.008M-153.016 634.638l.486 1.133.446 1.038" style="fill:none;stroke:#000;stroke-width:.0661459;stroke-linejoin:round" transform="translate(202.906 -611.15)"/>
<path d="m-153.497 637.613 1.073-.61.34-.194.306 1.195.257 1.004M-153.007 639.884l1.063-.626.424-.25.1 1.23.074.897M-161.286 627.352l1.148.452.506.2M-154.278 632.594l.809-.648-.88-.866-.793-.782M-154.278 632.594l.648 1.05.267.432.347.562-1.083.592-.2.11M-159.708 628.24l.668.56M-155.38 633.171l.674-.353M-155.38 633.171l.153.306.55 1.104.377.758" style="fill:none;stroke:#000;stroke-width:.0661459;stroke-linejoin:round" transform="translate(202.906 -611.15)"/>
<path d="m-155.888 635.924 1.158-.426.43-.159.41 1.163.393 1.11M-155.253 638.283l1.153-.44.603-.23.26 1.205.23 1.066M-154.86 640.616l1.149-.453.704-.279.09 1.23.068.935M-161.286 627.352l1.075.605.503.284M-155.888 635.924l.32 1.191.315 1.168" style="fill:none;stroke:#000;stroke-width:.0661459;stroke-linejoin:round" transform="translate(202.906 -611.15)"/>
<path d="m-157.279 638.787 1.198-.298.828-.206.206 1.217.188 1.116M-157 641.166l1.196-.307.945-.242.077 1.23.06.966M-161.286 627.352l.946.791.26.218M-160.08 628.36l.372-.12.227-.106" style="fill:none;stroke:#000;stroke-width:.0661459;stroke-linejoin:round" transform="translate(202.906 -611.15)"/>
<path d="m-160.502 628.45.421-.09.536.638M-157.75 631.574l.95-.324M-157.75 631.574l.542 1.108.212.434.262.536M-156.734 633.652l.906-.322.449-.159-.684-1.027-.476-.717" style="fill:none;stroke:#000;stroke-width:.0661459;stroke-linejoin:round" transform="translate(202.906 -611.15)"/>
<path d="m-158.287 634.011 1.202-.278.351-.081.43 1.156.416 1.116-1.2.288-.627.15M-159.716 629.966l.457 1.145.294.735M-158.965 631.846l1.216-.272-.66-1.042-.273-.43M-160.28 632.013l1.224-.156.09-.011.336 1.072.343 1.093M-159.972 634.232l1.224-.16.46-.06.292 1.198.28 1.152M-159.702 636.632l1.223-.166.764-.104.218 1.214.218 1.21M-159.486 639.096l1.222-.171.985-.138.144 1.225.135 1.154M-159.334 641.503l1.221-.176 1.113-.16.061 1.231.05.988M-161.286 627.352l.717 1.003.067.094M-160.954 628.504l.452-.055.398.768" style="fill:none;stroke:#000;stroke-width:.0661459;stroke-linejoin:round" transform="translate(202.906 -611.15)"/>
<path d="m-159.486 639.096.078 1.231.074 1.176M-161.753 641.609l1.234-.054 1.185-.052.045 1.233.036 1M-161.286 627.352l.332 1.152M-161.42 628.521l.466-.017.261 1.205.08.367M-160.613 630.076l.897-.11M-161.539 630.112l.926-.036.209 1.216.123.72M-161.639 632.066l1.234-.048.124-.005.116.833.17 1.221.023.165M-161.713 634.302l1.233-.05.508-.02.138 1.226.132 1.174" style="fill:none;stroke:#000;stroke-width:.0661459;stroke-linejoin:round" transform="translate(202.906 -611.15)"/>
<path d="M-161.758 636.717h.015l1.233-.052.808-.033.107 1.228.109 1.236-1.233.053-1.053.044M-161.639 632.066l-.027.82-.041 1.232-.006.184" style="fill:none;stroke:#000;stroke-width:.0661459;stroke-linejoin:round" transform="translate(202.906 -611.15)"/>
<path d="m-163.432 634.22 1.233.059.486.023-.023 1.233-.022 1.174v.008M-163.788 636.614l1.233.063.796.04-.007 1.233-.002.296-.005.947M-164.027 639.074l1.232.065 1.023.055.01 1.233.009 1.182" style="fill:none;stroke:#000;stroke-width:.0661459;stroke-linejoin:round" transform="translate(202.906 -611.15)"/>
<path d="m-164.14 641.477 1.233.068 1.154.064.028 1.233.023 1.004M-161.286 627.352l-.133 1.17M-161.879 628.501l.46.02-.092 1.23-.027.36M-162.452 630.071l.914.041-.063 1.232-.037.722-1.233-.057-.108-.005M-164.14 641.477l.012 1.234.009.997" style="fill:none;stroke:#000;stroke-width:.0661459;stroke-linejoin:round" transform="translate(202.906 -611.15)"/>
<path d="m-161.286 627.352-.566 1.096-.027.054M-162.315 628.445l.436.056-.423 1.16-.15.41M-163.317 629.956l.864.116-.324 1.19-.202.742" style="fill:none;stroke:#000;stroke-width:.0661459;stroke-linejoin:round" transform="translate(202.906 -611.15)"/>
<path d="m-164.244 631.83 1.223.168.042.006-.205 1.004-.248 1.211" style="fill:none;stroke:#000;stroke-width:.0661459;stroke-linejoin:round" transform="translate(202.906 -611.15)"/>
<path d="m-165.05 633.987 1.22.175.398.057-.075.509-.121.813-.032.212-.128.862" style="fill:none;stroke:#000;stroke-width:.0661459;stroke-linejoin:round" transform="translate(202.906 -611.15)"/>
<path d="m-165.696 636.33 1.22.182.688.102-.063.648-.12 1.228-.056.584M-166.146 638.745l1.22.19.898.14-.057 1.231-.054 1.172-1.219-.197-1.022-.165M-164.244 631.83l-.432 1.155-.093.248-.282.754M-166.499 633.617l.01.002 1.195.305.243.062-.131.475-.327 1.189-.187.679" style="fill:none;stroke:#000;stroke-width:.0661459;stroke-linejoin:round" transform="translate(202.906 -611.15)"/>
<path d="m-167.397 635.878 1.192.316.51.135-.019.096-.226 1.213-.206 1.107M-168.031 638.225l1.19.328.695.192-.121 1.227-.113 1.144M-168.371 640.547l1.186.34.805.23-.005 1.233-.004.98M-161.286 627.352l-.846.898-.183.195M-162.71 628.355l.395.09-.682 1.028-.32.483M-164.01 629.792l.693.164-.547 1.106-.38.768-1.135-.279M-168.371 640.547l-.02 1.233-.014.955M-161.286 627.352l-1.009.71-.415.293" style="fill:none;stroke:#000;stroke-width:.0661459;stroke-linejoin:round" transform="translate(202.906 -611.15)"/>
<path d="m-163.047 628.234.338.12-.705.72M-165.38 631.551l-.587 1.085-.532.981M-167.714 633.13l1.145.46.07.027-.002.006-.234.59-.456 1.147-.206.517M-168.82 635.283l.744.31.679.285-.191.706-.322 1.19-.121.45M-169.602 637.541l1.131.493.44.19-.18 1.221-.16 1.102-1.125-.508-.532-.24M-167.714 633.13l-.441.858-.123.239-.24.47-.302.586M-169.908 634.575l.388.252.7.456-.404 1.165-.378 1.093" style="fill:none;stroke:#000;stroke-width:.0661459;stroke-linejoin:round" transform="translate(202.906 -611.15)"/>
<path d="m-170.799 636.73 1.022.692.175.12-.229 1.211-.197 1.046" style="fill:none;stroke:#000;stroke-width:.0661459;stroke-linejoin:round" transform="translate(202.906 -611.15)"/>
<path d="m-171.286 638.914 1.01.71.248.175-.03 1.233-.023.922M-161.286 627.352l-1.104.552-.657.33" style="fill:none;stroke:#000;stroke-width:.0661459;stroke-linejoin:round" transform="translate(202.906 -611.15)"/>
<path d="m-163.314 628.087.267.147-.834.63M-166.338 631.182l.959.37.721-1.001.487-.675M-166.338 631.182l-.712 1.008-.664.94-.698-.434M-161.286 627.352l-1.16.42-.869.315M-163.39 628.02l.075.067-.587.343M-168.651 632.547l.149.093M-168.651 632.547l-.65 1.049-.608.979" style="fill:none;stroke:#000;stroke-width:.0661459;stroke-linejoin:round" transform="translate(202.906 -611.15)"/>
<path d="m-170.627 633.788.719.787-.27.653-.471 1.14-.15.362" style="fill:none;stroke:#000;stroke-width:.0661459;stroke-linejoin:round" transform="translate(202.906 -611.15)"/>
<path d="m-171.582 635.83.26.3.523.6-.268 1.204-.219.98" style="fill:none;stroke:#000;stroke-width:.0661459;stroke-linejoin:round" transform="translate(202.906 -611.15)"/>
<path d="m-172.105 637.933.791.947.029.034-.04 1.232-.028.884M-168.424 632.286l-.227.261-.626-.65M-169.277 631.897l-.717 1.004-.633.887M-170.96 632.957l.333.83-.523 1.118-.432.925M-171.936 634.882l.354.948-.197.791-.297 1.197-.029.115M-172.47 636.902l.197.558.168.473-.046 1.233-.031.84M-161.286 627.352l-1.196.307-.6.154M-167.839 629.714l.085.18M-167.839 629.714l-.936.804-.802.69" style="fill:none;stroke:#000;stroke-width:.0661459;stroke-linejoin:round" transform="translate(202.906 -611.15)"/>
<path d="m-169.577 631.208.3.69.881-.864.386-.378" style="fill:none;stroke:#000;stroke-width:.0661459;stroke-linejoin:round" transform="translate(202.906 -611.15)"/>
<path d="m-169.548 630.508-.028.7-.766.967-.618.781M-170.909 632.116l-.051.84-.558 1.1-.418.826M-171.865 633.927l-.071.955-.316 1.193-.219.827" style="fill:none;stroke:#000;stroke-width:.0661459;stroke-linejoin:round" transform="translate(202.906 -611.15)"/>
<path d="m-167.03 628.112-.051.033-1.012.707-.473.33-.637.643-.812.93-.474.543-.577 1.09-.323.612-.476.927-.32 1.19-.202.747-.083 1.038-.049 1.233-.031.797M-161.286 627.352l-1.217.205-.244.041" style="fill:none;stroke:#000;stroke-width:.0661459;stroke-linejoin:round" transform="translate(202.906 -611.15)"/>
<path d="m-170.909 632.116-.576 1.09-.38.72M-161.286 627.352l-1.242.11M-167.832 629.174l-.007.54.183-.106M-167.832 629.174l-.974.757-.742.577" style="fill:none;stroke:#000;stroke-width:.0661459;stroke-linejoin:round" transform="translate(202.906 -611.15)"/>
<path d="m-167.574 628.645-1 .724-.63.456-.344.683-.797.942-.564.666.42-.818M-165.66 627.814l-.282.123M-167.574 628.645l-.258.53.427-.213M-161.286 627.352l-1.083.01M-161.286 627.352l-.954-.07M-165.328 627.471l-.332.343M-165.328 627.471l-.889.342" style="fill:none;stroke:#000;stroke-width:.0661459;stroke-linejoin:round" transform="translate(202.906 -611.15)"/>
<path d="m-167.038 628.128-.043.017-.493.5.38-.165M-164.516 627.358l-.812.113.48-.312" style="fill:none;stroke:#000;stroke-width:.0661459;stroke-linejoin:round" transform="translate(202.906 -611.15)"/>
<path d="m-164.847 627.159-1.166.406-.365.127M-162.005 627.14l.719.211-.837-.142M-164.236 626.889l-.611.27.714-.05M-166.366 631.165l.028.017.084-.089M-165.755 628.02l.095-.206.74-.153M-165.43 628.065l-.14.039M-163.433 626.678l-.086-.009M-159.992 629.433l.276.533.552-.12M-159.5 626.548l.175-.035M-158.044 627.571l1.21.245.08.017.01.063M-157.627 627.934l.46.129M-155.363 629.399l.6.348-.388.512M-154.814 631.957l.536.637-.404.212M-191.7 618.328l.462.136.49.145M-191.47 618.257l-.23.07M-192.584 618.321l.769.006h.115l-.194.088M-191.47 618.257l-.667-.073" style="fill:none;stroke:#000;stroke-width:.0661459;stroke-linejoin:round" transform="translate(202.906 -611.15)"/>
<path d="m-191.251 618.038-.39.045-.496.101-.447.137-.73.24-.053.017-.55.244-.438.282-.63.44-.295.206-.397.4-.505.579-.295.339-.08.15-.359.68-.122.23-.095.186-.2.391-.2.742-.126.465-.052.647-.03.767-.02.497.142.755.087.465.225.664M-183.978 627.991l.269-.72.058-.155.107-.677.098-.762.06-.463-.072-.765-.045-.48-.165-.63-.23-.703-.152-.465-.15-.252-.083-.137-.237-.396-.17-.284-.35-.481-.535-.552-.288-.297-.464-.364-.652-.407-.267-.166-.485-.246-.59-.2-.737-.2-.468-.102-.51-.063-.232-.01M-190.118 618.207l-.145-.018M-190.118 618.207l.592-.12" style="fill:none;stroke:#000;stroke-width:.0661459;stroke-linejoin:round" transform="translate(202.906 -611.15)"/>
<path d="m-189.877 618.26-.241-.053-.143.091M-189.877 618.26l.766-.066.053-.005.409.139M-189.668 618.332l-.209-.072-.38.153M-189.668 618.332l.769-.003.25-.001M-188.316 618.498l-.333-.17.739.21.18.051M-190.256 618.483l.588-.151.17.087" style="fill:none;stroke:#000;stroke-width:.0661459;stroke-linejoin:round" transform="translate(202.906 -611.15)"/>
<path d="m-189.498 618.42.766.05.416.028M-188.071 618.694l-.245-.196.733.231.337.106.36.285M-189.376 618.52l-.122-.1-.757.114M-189.376 618.52l.762.102.543.072" style="fill:none;stroke:#000;stroke-width:.0661459;stroke-linejoin:round" transform="translate(202.906 -611.15)"/>
<path d="m-187.925 618.909-.146-.215.723.26.463.166M-186.664 619.433l-.221-.313.648.413.374.24.29.403M-190.254 618.577l.767-.05.11-.007.072.11M-189.305 618.63l.753.152.627.127M-187.886 619.135l-.04-.226.71.295.552.23" style="fill:none;stroke:#000;stroke-width:.0661459;stroke-linejoin:round" transform="translate(202.906 -611.15)"/>
<path d="m-186.596 619.765-.068-.332.635.432.456.31M-185.473 620.604l-.1-.428.53.556.352.37.074.298.054.215M-184.563 621.615l.035.06.18.31.387.663.008.013.054.092" style="fill:none;stroke:#000;stroke-width:.0661459;stroke-linejoin:round" transform="translate(202.906 -611.15)"/>
<path d="m-183.9 622.753-.026-.104-.124-.478M-184.007 623.351l.108-.598.238.73.158.486-.108.65M-189.29 618.744l-.015-.115-.769-.01-.179-.002M-189.29 618.744l.74.206.664.185M-187.956 619.363l.07-.228.691.337.6.293M-186.686 620.102l.09-.337.616.46.507.38" style="fill:none;stroke:#000;stroke-width:.0661459;stroke-linejoin:round" transform="translate(202.906 -611.15)"/>
<path d="m-185.575 621.042.102-.438.514.571.218.243.178.197-.008.042-.095.468-.003.016M-187.956 619.363l.665.387.605.352M-186.935 620.43l.25-.329.586.497.524.443" style="fill:none;stroke:#000;stroke-width:.0661459;stroke-linejoin:round" transform="translate(202.906 -611.15)"/>
<path d="m-185.88 621.471.305-.43.488.594.408.495.01.011M-185.017 622.66l.347-.519.37.677.293.533M-184.382 623.942l.375-.59.229.733.167.534M-184 625.262l.389-.643.07.765.048.507M-183.493 625.891l.107-.677M-189.33 618.859l.04-.115-.765-.07-.197-.019M-183.885 626.562l.388-.664.004-.007-.099.762-.06.463-.383.67M-189.33 618.859l.722.265.652.24-.179.221M-184.382 623.942l.214.738.168.582" style="fill:none;stroke:#000;stroke-width:.0661459;stroke-linejoin:round" transform="translate(202.906 -611.15)"/>
<path d="m-184.667 625.87.568-.518.099-.09.068.765.047.534M-189.425 618.97l.096-.111-.757-.133-.165-.03M-184.558 627.196l.56-.527.113-.108-.093.763-.057.462M-189.425 618.97l.694.33.596.285M-184.155 627.902l.12-.116-.054.149M-196.95 628.521l.128.292.466.612.25.329.433.553.605.473.248.195.555.423.689.34.029.015.721.262.662.21.737.132.612.038.167.01.732-.034.057-.003.764-.122.706-.2.62-.268.703-.31.047-.02.647-.416.576-.509.172-.151.547-.54.009-.009.43-.637.201-.3.012-.021M-188.417 619.792l.282-.207.628.443.572.403M-187.338 620.74l.403-.309.547.54.508.5M-186.383 621.875l.503-.404.452.622.202.279.21.288" style="fill:none;stroke:#000;stroke-width:.0661459;stroke-linejoin:round" transform="translate(202.906 -611.15)"/>
<path d="m-185.598 623.148.581-.489.195.394.341.689.1.2-.578.507-.058.052M-184.428 628.863l-.01.024-.548.538-.068.067M-185.054 629.492l-.417.644-.153.236-.647.415-.116.075M-187.338 620.74l.494.587.46.548" style="fill:none;stroke:#000;stroke-width:.0661459;stroke-linejoin:round" transform="translate(202.906 -611.15)"/>
<path d="m-187.07 622.235.687-.36.403.654.085.138.297.481M-186.397 623.585l.64-.35.16-.087.084.198.303.706.193.449M-185.897 625.001l.668-.38.212-.12.19.744.16.625M-185.592 626.416l.662-.39.263-.156.063.766.046.56M-189.571 619.073l.146-.103-.741-.202-.084-.023M-185.494 627.765l.483-.294.453-.275-.052.477M-189.571 619.073l.652.406.501.313M-188.794 619.974l.377-.182.577.507.502.44-.543.274M-185.592 626.416l.056.767.005.064.037.518-.595.242-.571.233M-190.747 618.61l.5.282.483.271" style="fill:none;stroke:#000;stroke-width:.0661459;stroke-linejoin:round" transform="translate(202.906 -611.15)"/>
<path d="m-189.764 619.164.193-.091-.677-.267M-185.602 628.987l.64-.399" style="fill:none;stroke:#000;stroke-width:.0661459;stroke-linejoin:round" transform="translate(202.906 -611.15)"/>
<path d="m-189.997 619.238.233-.075.59.493.38.319M-185.602 628.987l-.215.738-.09.307M-185.906 630.032l.649-.411.203-.13.247-.727.027-.082M-189.25 620.125l.456-.15.507.576.406.462M-186.965 630.483l.707-.3.352-.15-.386.664-.095.165M-188.545 621.24l.664-.227.425.64.387.582" style="fill:none;stroke:#000;stroke-width:.0661459;stroke-linejoin:round" transform="translate(202.906 -611.15)"/>
<path d="m-187.331 631.268.706-.304.238-.103-.563.523-.069.064-.705.306-.09.039M-187.913 622.534l.725-.257.119-.042.342.688.33.662M-187.386 623.95l.721-.266.268-.099.256.725.244.691" style="fill:none;stroke:#000;stroke-width:.0661459;stroke-linejoin:round" transform="translate(202.906 -611.15)"/>
<path d="m-186.99 625.42.717-.275.376-.144.161.751.144.664-.715.283-.438.173M-188.545 621.24l.337.69.295.604M-187.331 631.268l-.483.525M-188.88 622.758l.749-.174.218-.05.268.72.26.695M-188.725 632.05l.74-.208.171-.049-.575.254M-188.524 624.222l.748-.179.39-.094.2.742.196.728" style="fill:none;stroke:#000;stroke-width:.0661459;stroke-linejoin:round" transform="translate(202.906 -611.15)"/>
<path d="m-188.252 625.733.746-.186.516-.128.127.758.118.695M-188.078 627.215l.744-.191.589-.152.047.767.038.601M-190.747 618.61l.504.422.246.206M-188.01 628.597l.744-.196.606-.16-.048.766-.028.454M-186.736 629.461l.709-.296.425-.178.062-.697M-190.258 619.293l.022-.005.24-.05.494.588.251.3M-188.047 629.816l.742-.2.569-.155-.168.75-.06.272" style="fill:none;stroke:#000;stroke-width:.0661459;stroke-linejoin:round" transform="translate(202.906 -611.15)"/>
<path d="m-189.77 620.238.52-.113.41.65.295.464-.757.17M-188.186 630.82l.74-.204.481-.133-.325.697-.041.089-.74.207-.345.097M-188.078 627.215l.038.767.03.615M-190.747 618.61l.447.624.042.059M-189.481 628.816l.76-.113.712-.106-.024.768-.014.452" style="fill:none;stroke:#000;stroke-width:.0661459;stroke-linejoin:round" transform="translate(202.906 -611.15)"/>
<path d="m-190.54 619.327.282-.034.023.045.353.683.113.217M-189.476 630.034l.76-.116.67-.102-.106.762-.034.243" style="fill:none;stroke:#000;stroke-width:.0661459;stroke-linejoin:round" transform="translate(202.906 -611.15)"/>
<path d="m-190.328 620.307.559-.07.284.715.183.457M-189.516 631.027l.76-.118.57-.088-.225.734-.005.018M-190.12 621.513l.761-.097.057-.007.23.734.192.615M-189.596 631.758l.759-.12.42-.065-.308.477" style="fill:none;stroke:#000;stroke-width:.0661459;stroke-linejoin:round" transform="translate(202.906 -611.15)"/>
<path d="m-189.929 622.895.762-.1.287-.037.182.746.174.718M-189.713 632.207l.759-.12.23-.037-.37.197M-189.76 624.39l.76-.103.476-.065.136.757.136.754M-189.626 625.925l.76-.106.614-.086.09.763.084.719-.76.11-.694.1M-189.596 631.758l-.117.45M-189.929 622.895l.086.764.082.731M-190.735 632.255l.768-.036.048-.002.206-.01-.146.161M-191.041 624.443h.01l.768-.032.502-.02.067.765.068.77" style="fill:none;stroke:#000;stroke-width:.0661459;stroke-linejoin:round" transform="translate(202.906 -611.15)"/>
<path d="m-191.05 625.986.768-.033.656-.028.048.767.046.733M-191.038 627.49l.768-.033.738-.032.028.768.023.623M-190.747 618.61l.207.717M-191.006 628.884l.768-.034.757-.034.003.768.002.45M-190.83 619.338l.193-.007.097-.004.011.051.162.751.039.178" style="fill:none;stroke:#000;stroke-width:.0661459;stroke-linejoin:round" transform="translate(202.906 -611.15)"/>
<path d="m-190.957 630.102.768-.035.713-.033-.03.768-.01.225M-190.904 620.329l.576-.022.13.757.077.449M-190.893 631.09l.039-.001.767-.036.139-.006.432-.02-.08.731-.334.016-.768.036-.12.006M-190.966 621.546l.768-.03.077-.003.106.76.086.622-.767.031-.317.013M-190.747 618.61l-.073.64-.01.088M-191.006 628.884l.031.768.018.45M-191.116 619.326l.286.012-.057.766-.017.225" style="fill:none;stroke:#000;stroke-width:.0661459;stroke-linejoin:round" transform="translate(202.906 -611.15)"/>
<path d="m-192.418 630.015.767.045.694.041.05.767.014.223M-191.473 620.304l.569.025-.04.767-.022.45M-192.252 631.008l.767.047.592.036.055.524.02.2" style="fill:none;stroke:#000;stroke-width:.0661459;stroke-linejoin:round" transform="translate(202.906 -611.15)"/>
<path d="m-191.801 621.508.768.035.067.003-.026.768-.02.625M-192.023 631.741l.767.047.424.026.014.001.083.44M-192.083 622.887l.768.037.302.015-.014.768-.014.731v.005M-191.744 632.192l.767.048.158.01.084.005.087.15" style="fill:none;stroke:#000;stroke-width:.0661459;stroke-linejoin:round" transform="translate(202.906 -611.15)"/>
<path d="m-192.305 624.38.768.038.496.025-.004.769-.001.184-.003.59M-192.454 625.912l.768.04.637.034.006.768.006.737M-192.523 627.409l.767.042.718.04.018.768.014.625-.767-.044-.738-.042M-192.083 622.887l-.047.317-.075.506-.02.132-.08.537M-191.744 632.192l.317.165M-193.493 624.202l.76.114.428.064-.039.403-.074.765-.036.364" style="fill:none;stroke:#000;stroke-width:.0661459;stroke-linejoin:round" transform="translate(202.906 -611.15)"/>
<path d="m-193.773 625.707.76.118.56.087-.036.767-.034.73" style="fill:none;stroke:#000;stroke-width:.0661459;stroke-linejoin:round" transform="translate(202.906 -611.15)"/>
<path d="m-193.919 627.184.76.122.636.103.007.768.006.621M-190.747 618.61l-.283.548-.086.168M-193.924 628.563l.758.126.655.11.058.765.035.451M-191.388 619.29l.272.036-.264.721-.093.257" style="fill:none;stroke:#000;stroke-width:.0661459;stroke-linejoin:round" transform="translate(202.906 -611.15)"/>
<path d="m-193.79 629.78.756.13.616.105.126.758.04.236M-192.011 620.232l.538.072-.202.741-.126.463" style="fill:none;stroke:#000;stroke-width:.0661459;stroke-linejoin:round" transform="translate(202.906 -611.15)"/>
<path d="m-193.53 630.785.756.132.522.091.229.733M-192.589 621.399l.762.105.026.004-.154.753-.128.627-.76-.11-.248-.035M-193.158 631.54l.756.134.379.067.28.451-.757-.135-.195-.035M-193.924 628.563l.084.764.05.453M-191.388 619.29l-.424.641-.2.3M-195.012 629.41l.736.223.485.147.193.744.067.26M-192.496 620.117l.485.115-.341.689-.237.478M-194.669 630.433l.734.227.405.125.34.69.032.065M-193.296 621.225l.707.174-.269.72-.233.624" style="fill:none;stroke:#000;stroke-width:.0661459;stroke-linejoin:round" transform="translate(202.906 -611.15)"/>
<path d="m-194.172 631.221.733.23.28.088.464.483M-193.992 622.513l.744.19.157.04-.081.295-.204.74-.117.424" style="fill:none;stroke:#000;stroke-width:.0661459;stroke-linejoin:round" transform="translate(202.906 -611.15)"/>
<path d="m-194.172 631.221.585.498.04.033.732.232.12.038.531.202M-194.552 623.92l.743.198.316.084-.01.06-.142.755-.128.69M-194.947 625.383l.74.204.434.12-.075.764-.07.713M-195.158 626.829l.738.212.502.143-.003.768-.002.61-.737-.217-.519-.153M-190.747 618.61l-.448.476-.193.204-.245-.056M-194.552 623.92l-.119.44-.2.742-.076.28" style="fill:none;stroke:#000;stroke-width:.0661459;stroke-linejoin:round" transform="translate(202.906 -611.15)"/>
<path d="m-195.925 624.957.705.306.273.12-.111.76-.1.686M-196.19 626.363l.7.317.332.149-.012.768-.002.105v.018l-.007.472M-190.747 618.61l-.477.335-.41.29" style="fill:none;stroke:#000;stroke-width:.0661459;stroke-linejoin:round" transform="translate(202.906 -611.15)"/>
<path d="m-196.223 627.706.532.248.512.238.105.761.062.457M-191.843 619.159l.21.075-.537.55-.326.333" style="fill:none;stroke:#000;stroke-width:.0661459;stroke-linejoin:round" transform="translate(202.906 -611.15)"/>
<path d="m-196.028 628.925.694.33.322.155.244.729.099.294M-192.908 619.964l.412.153-.45.623-.35.485M-195.62 629.97l.692.337.259.126.41.65.087.139-.69-.34-.159-.078M-193.892 620.995l.596.23-.365.676-.331.611M-194.75 622.209l.714.286.044.018-.146.367-.002.004-.004.01-.284.714-.124.312-.423-.177-.463-.193M-196.028 628.925l.28.715.129.33" style="fill:none;stroke:#000;stroke-width:.0661459;stroke-linejoin:round" transform="translate(202.906 -611.15)"/>
<path d="m-192.908 619.964-.53.556-.454.475M-196.344 629.422l.612.463.113.085.448.625.15.209M-194.356 620.72l.464.275-.444.628-.413.586" style="fill:none;stroke:#000;stroke-width:.0661459;stroke-linejoin:round" transform="translate(202.906 -611.15)"/>
<path d="m-196.344 629.422.464.612.207.272.611.466.041.032.604.474.152.12M-195.333 621.846l.584.363-.149.289-.126.246-.226.44-.04.08-.148.286M-196.115 623.109l.644.419.033.022-.251.726-.236.68M-196.67 624.451l.636.432.109.074-.142.755-.123.651M-196.973 625.812l.628.442.155.11-.019.767-.002.092-.012.483-.408-.297-.384-.28M-190.747 618.61l-.48.24-.616.309" style="fill:none;stroke:#000;stroke-width:.0661459;stroke-linejoin:round" transform="translate(202.906 -611.15)"/>
<path d="m-192.01 619.067.167.092-.613.463-.452.342-.323-.184M-196.67 624.451l-.167.75-.136.61M-197.483 625.2l.492.59.018.022-.025.768-.017.55M-190.747 618.61l-.482.174-.722.262-.059.021" style="fill:none;stroke:#000;stroke-width:.0661459;stroke-linejoin:round" transform="translate(202.906 -611.15)"/>
<path d="m-197.531 626.493.483.597.033.04.073.416M-192.127 618.964l.117.104-.664.387-.557.325M-193.454 619.573l.223.207-.59.493-.535.446M-194.67 620.41l.314.31-.504.58-.473.546M-195.723 621.44l.134.14.256.266-.204.33-.405.653-.046.075-.127.205" style="fill:none;stroke:#000;stroke-width:.0661459;stroke-linejoin:round" transform="translate(202.906 -611.15)"/>
<path d="m-196.563 622.619.448.49-.294.71-.26.632-.489-.56M-193.454 619.573l-.633.435-.584.402M-196.763 628.437l.3.707.119.278-.478-.609M-194.827 620.08l.156.33-.549.538-.42.411-.083.082M-195.909 621.012l.143.328.043.101-.188.265-.149.208-.446.625-.051.072-.006.008M-196.77 622.1l.201.505.005.014-.325.696-.269.576M-197.378 623.3l.22.59-.185.746-.14.565" style="fill:none;stroke:#000;stroke-width:.0661459;stroke-linejoin:round" transform="translate(202.906 -611.15)"/>
<path d="m-197.378 623.3-.196.743-.137.516.228.642-.029.767-.019.525M-190.747 618.61l-.483.123-.744.192-.153.039" style="fill:none;stroke:#000;stroke-width:.0661459;stroke-linejoin:round" transform="translate(202.906 -611.15)"/>
<path d="m-197.76 625.823.229.67.14.755.085.459M-192.19 618.853l.063.111-.698.32-.63.289-.114-.223M-190.747 618.61l-.484.081-.758.128-.2.034" style="fill:none;stroke:#000;stroke-width:.0661459;stroke-linejoin:round" transform="translate(202.906 -611.15)"/>
<path d="m-192.196 618.738.007.115-.723.26-.657.237M-193.574 619.122l.005.229-.664.385-.594.345" style="fill:none;stroke:#000;stroke-width:.0661459;stroke-linejoin:round" transform="translate(202.906 -611.15)"/>
<path d="m-194.822 619.745-.004.336-.583.501-.5.43" style="fill:none;stroke:#000;stroke-width:.0661459;stroke-linejoin:round" transform="translate(202.906 -611.15)"/>
<path d="m-195.891 620.576-.018.436-.216.273-.477.602-.168.214M-196.738 621.577l-.032.524-.161.317-.347.686-.1.196.044-.595.205-.389.36-.68.03-.059M-194.822 619.745l-.607.471-.462.36" style="fill:none;stroke:#000;stroke-width:.0661459;stroke-linejoin:round" transform="translate(202.906 -611.15)"/>
<path d="m-194.662 619.415-.622.45-.393.285-.214.426-.496.586-.062.073-.29.342.184-.358.078-.151M-190.747 618.61l-.486.042-.765.068-.198.018M-192.147 618.623l-.049.115-.74.206-.638.178M-193.47 618.897l-.104.225-.688.343-.56.28.16-.33M-190.747 618.61l-.487.004-.768.008-.145.002" style="fill:none;stroke:#000;stroke-width:.0661459;stroke-linejoin:round" transform="translate(202.906 -611.15)"/>
<path d="m-192.045 618.514-.102.11-.753.155-.57.118M-193.264 618.684l-.206.213-.705.306-.487.212.307-.312.717-.275.374-.144M-191.894 618.415l.657.111.49.083-.488-.035-.767-.056-.043-.003" style="fill:none;stroke:#000;stroke-width:.0661459;stroke-linejoin:round" transform="translate(202.906 -611.15)"/>
<path d="m-192.964 618.49.766-.054.304-.021-.15.1-.762.105-.458.064.3-.195" style="fill:none;stroke:#000;stroke-width:.0661459;stroke-linejoin:round" transform="translate(202.906 -611.15)"/>
<path d="m-192.584 618.321-.38.169-.726.252-.227.08M-184.2 621.92l.115-.052-.198-.086M-196.15 628.16l.122.765-.616-.46-.07-.05M-191.246 618.211l-.224.046.229.112M-191.247 618.195l-.394-.112M-190.265 618.123l.228-.1" style="fill:none;stroke:#000;stroke-width:.0661459;stroke-linejoin:round" transform="translate(202.906 -611.15)"/>
<path d="m12.99 21.22.02.768.017.695.656.4.272.166-.355.681-.355.682-.355.681-.228.437-.251-.726-.251-.726-.251-.726-.251-.727-.25-.726-.177-.51.656.4.232.14-.024-.767-.004-.118M12.66 7.741l-.002-.085-.002-.061v-.049l-.002-.041v-.04l-.001-.038-.001-.043-.001-.03v-.021l-.003-.07-.003-.115-.003-.11v-.066l-.004-.108-.019-.768-.019-.768-.01-.451.714.283.319.127-.244-.73-.243-.728-.244-.728-.244-.73-.244-.728-.243-.728-.199-.593-.262.722-.261.722-.262.722-.262.723-.262.722-.056.154.714.283.27.107.023.768.024.768.023.768.003.106.003.102v.009l.002.047v.016l.005.157.003.096" color="#000" fill="#d0dfff" stroke="#000df2" stroke-width=".212"/>
<path d="m-195.69 627.953-.283.128-.124.056-.053.024-.321.144-.242.11-.05.022-.063.028-.099.045-.025.011-.7.316-.553.249.655.402.301.185-.758.123-.759.123-.758.123-.759.123-.759.124-.758.123-.77.125.537-.55.538-.549.537-.55.537-.549.375-.383.655.402.254.156.703-.31.703-.311.422-.186.054-.024.248-.11.027-.012.036-.015.31-.137M-184.52 621.387l.76-.108.761-.108.761-.108.761-.108.562-.08-.425.64-.426.64-.371.56-.705-.307-.28-.121-.7.316-.075.034" color="#000" fill="#c5ffca" stroke="#139800" style="stroke-width:.238125" transform="translate(202.906 -611.15)"/>
<path d="m-197.133 622.314-.146-.075-.716.279-.357.139-.299-.708-.298-.708-.176-.417.76.117.76.116.759.117.29.044M-186.089 628.007l.461.238.088.045.411.212.167.086.182.094.076.04.054.027.18.093.042.022.004.002.597.307-.681.356-.424.221.756.137.756.137.757.137.756.137.756.137.756.137.642.116-.456-.618-.457-.618-.456-.618-.457-.618-.116-.157-.68.356-.373.195-.687-.346-.543-.273-.05-.025-.061-.03-.066-.034-.004-.002-.385-.193-.065-.033-.402-.202" color="#000" fill="#ffdbdb" stroke="red" style="stroke-width:.238125" transform="translate(202.906 -611.15)"/>
<path d="m-155.261 626.556-.132-.044-.051-.018-2.216-.91-.69-.214-.605-.181-.11.092.09.036.157.064.158.065.159.064-.41-.021-.38-.02-.802.074-.09.011-.434.053-.443.118-.176.05.239.078.397.129.402.204.243.124.177-.051.443-.12.434-.056.432-.055.427-.036.412.02.41.02.162.066.163.066.162.067.164.066.163.067.164.066.164.067.165.067.23-.036.107.006h.002l.058.003.046.002.035.003.129.01h.003l.042.004.176.096.175.094.146.148.132.173.118.192-.596-.387-.574-.344" color="#000" fill="#c5ffca" stroke="#139800" style="stroke-width:.238125" transform="translate(202.906 -611.15)"/>
<path d="m-159.794 626.392.155.082.14.074.11.059.072.049.11.076.221.151.03.02.266.183.11.075.191.14.062.045.15.11.133.115.264.23.153.133.244.213.057-.022.122-.048.037-.015.14-.055.178-.07.106-.041.071-.028h.001l.175-.07.138-.054.023-.009.015-.006h.002l.174-.07.137-.053.008-.003.031-.012.012.03.004.011.097.262.002.005.09.242.039.119.154.473.003.01.02.065.038.116.13.41.016.065.148.598.035.146.029.116.009.039.09.367.138.706.07.404.03.182.025.142.107.707.006.036-.03-.023-.62-.491-.662-.504-.44-.316-.11-.08-.072-.052-.056-.04-.134-.086-.57-.367-.704-.453-.431-.232-.176-.095-.127-.068-.355-.189-.38-.202-.324-.152-.125-.06-.299-.14.185-.073.003-.001.182-.072.184-.072.184-.072.009-.004.174-.069.183-.072.148-.058.034-.014.182-.071-.398-.351-.178-.157-.081-.072-.137-.12-.014-.01-.39-.29-.044-.03-.227-.158-.135-.093-.004-.003-.098-.069-.078-.054-.07-.049-.058-.04-.009-.006-.055-.038-.016-.012-.015-.01-.079-.042-.12-.065-.178-.096-.028-.016-.16-.082.227-.105.045-.02.183-.084.08-.037.08-.037.107-.049.391-.114.058-.017.27-.078zM-165.498 626.178l-.536.31-.573.363-.558.383.03-.19.041-.172.055-.148.08-.094.083-.095.095-.013.018-.003.029-.003.088-.008.118.032.01.003.004.001.043-.015.14-.05.183-.067.02-.007.118-.042.039-.014.006-.002.182-.066.153-.056.028-.01.104-.037.078-.028.18-.066.18-.065.355-.019.356-.018.37.037.378.056.38.057.39.121.156.052.272-.123.449-.203.448-.128.27-.076-.157-.051-.391-.12-.381-.053-.379-.054-.372-.036-.358.021-.356.02.177-.064.176-.063.177-.064.175-.064.176-.063.175-.063.174-.064.174-.063-.674.162-.658.206-.653.211-1.47.555-.36.107-.063.03-.04.013-.2.06-.132.048-.09.045-.139.043-.172.061" color="#000" fill="#ffdbdb" stroke="red" style="stroke-width:.238125" transform="translate(202.906 -611.15)"/>
<path d="m37.694 12.346.007.179.01.223.165-.279m-.732-2.69.01.231.01.23.01.23.01.23.01.229.01.228.01.229.01.228.033.224.119.22.204.21.114.078.142.097.031.021.01.005.354.174.44.154.5.127.549.1.588.066.614.035h.626l.625-.033.61-.066.004.232.005.233.005.231.005.232.005.23.005.21v.021l.006.23v.032l.005.198.179-.122.424-.29.08-.055.098-.081.01-.008.227-.188.073-.061.022-.019h.001l.001-.001.013-.01.172-.144.54-.547.449-.574.327-.596.212-.609.096-.612-.003-.23-.003-.229-.003-.23-.104-.08-.223-.091-.34-.107-.464-.134-.56-.164-.64-.199-.712-.244.005.239.005.239.005.238.005.238.005.237.005.237.005.237.005.236-.614.065-.63.032h-.63l-.618-.033-.592-.065-.553-.096h-.005l-.142-.036-.04-.01-.152-.037-.11-.027-.01-.003-.045-.011h-.003l-.06-.021-.068-.023-.062-.02-.033-.012-.082-.028-.026-.009-.085-.028-.024-.008-.07-.033-.105-.05-.035-.017-.021-.01-.094-.044-.04-.02-.174-.114-.115-.076-.122-.122-.084-.083-.074-.133-.045-.08-.032-.218.055-.219.14-.215.22-.206-.01-.228-.01-.23-.01-.229-.01-.23-.01-.23-.01-.23-.01-.231-.01-.232.38.12.485.143.564.168.627.196.682.235.71.272.723.31.715.357-.697.315-.701.361-.686.4-.654.442-.534.433-.485-.108-.592-.214-.5-.28-.245-.266z" color="#000" fill="#d0dfff" stroke="#000df2" stroke-width=".212"/>
<path d="m-161.675 613.194.253 9.207m.051 1.873.054 1.971" fill="none" marker-start="url(#a)" stroke="#000" stroke-linejoin="round" stroke-width=".529" transform="translate(202.906 -611.15)"/>
<path d="m41.365 15.625-.097-.05-.11-.057-.126-.066-.14-.072-.026-.013-.199-.067-.197-.066-.238-.079-.18.081-.452.214-.061.038-.065.04-.237.145-.082.05-.029.019-.352.217-.067.04-.317.209-.128.084-.233.185-.043.033-.157.125-.353.28-.031.024-.05.04-.059-.026-.099-.044-.086-.039-.07-.032-.116-.052-.025-.011-.016-.007-.156-.07-.045-.02-.033-.016-.077-.034-.126-.057-.002-.001-.027-.012-.155-.07-.154-.07-.273.544-.003.005-.005.011-.02.044-.088.2-.048.108-.1.226-.11.256-.15.343-.014.041-.088.262-.097.286-.024.07-.225.665-.007.027-.025.09-.16.586-.18.725-.05.229-.044.2-.034.154-.034.157.125-.1.19-.154.317-.255.051-.04.599-.459.667-.482.2-.128.021-.014.113-.072.367-.234.7-.448.739-.39v-.001l.277-.144.16-.084.176-.091.13-.067.757-.349-.163-.073-.163-.074-.14-.063-.023-.01-.162-.073-.161-.073-.122-.055-.04-.018-.16-.072-.153-.068-.008-.004.01-.01.33-.263.046-.036.05-.04.417-.333.019-.015.289-.192.157-.105.178-.11.219-.137.052-.033.107-.066.063-.04.066-.04.092-.058.024-.015.095-.06.023-.01.143-.069.162-.077.125-.06.086-.04.094-.042z" color="#000" fill="#c5ffca" stroke="#139800" stroke-width=".238"/>
</svg>
