<svg width="179.646" height="125.478" viewBox="0 0 47.531 33.199" xml:space="preserve" xmlns="http://www.w3.org/2000/svg">
<defs>
<marker id="a" overflow="visible" orient="auto">
<path d="m-10 0-4 4L0 0l-14-4Z" fill="#00f" fill-rule="evenodd" stroke="#00f" stroke-width=".8pt"/>
</marker>
<marker id="b" overflow="visible" orient="auto">
<path d="m-4 0-2 2 7-2-7-2Z" fill="green" fill-rule="evenodd" stroke="green" stroke-width=".4pt"/>
</marker>
<marker id="c" overflow="visible" orient="auto">
<path d="m-4 0-2 2 7-2-7-2Z" fill="green" fill-rule="evenodd" stroke="green" stroke-width=".4pt"/>
</marker>
<marker id="d" overflow="visible" orient="auto">
<path d="m-4 0-2 2 7-2-7-2Z" fill="red" fill-rule="evenodd" stroke="red" stroke-width=".4pt"/>
</marker>
<marker id="e" overflow="visible" orient="auto">
<path d="m-4 0-2 2 7-2-7-2Z" fill="red" fill-rule="evenodd" stroke="red" stroke-width=".4pt"/>
</marker>
<marker id="h" overflow="visible" orient="auto">
<path d="m-4 0-2 2 7-2-7-2Z" fill-rule="evenodd" stroke="#000" stroke-width=".4pt"/>
</marker>
<marker id="f" overflow="visible" orient="auto">
<path d="m-4 0-2 2 7-2-7-2Z" fill-rule="evenodd" stroke="#000" stroke-width=".4pt"/>
</marker>
<marker id="g" overflow="visible" orient="auto">
<path d="m-4 0-2 2 7-2-7-2Z" fill="green" fill-rule="evenodd" stroke="green" stroke-width=".4pt"/>
</marker>
</defs>
<path d="M-179.295 685.753c-.853-1.31-2.12-2.22-3.554-2.76" color="#000" marker-end="url(#marker7268)" stroke="#000" stroke-dasharray="1, 2" stroke-width=".132" style="font-variation-settings:normal;opacity:1;isolation:auto;mix-blend-mode:normal;vector-effect:none;fill:none;fill-opacity:1;stroke:#000;stroke-width:.132291;stroke-linecap:butt;stroke-linejoin:miter;stroke-miterlimit:4;stroke-dasharray:.264583,.529166;stroke-dashoffset:0;stroke-opacity:1;-inkscape-stroke:none;marker-end:url(#marker7268);shape-rendering:auto;stop-color:#000;stop-opacity:1" transform="translate(201.96 -654.733)"/>
<path d="M-177.741 673.2c-1.018-1.327-2.435-2.202-3.997-2.715" color="#000" stroke="#000" stroke-width=".079" style="isolation:auto;mix-blend-mode:normal;fill:none;stroke-linejoin:round;shape-rendering:auto" transform="translate(201.96 -654.733)"/>
<path d="M-173.406 659.63a45.28 45.28 0 0 0-3.488-.826 47.03 47.03 0 0 0-18.543.134M-195.437 658.938l5.62 9.05m3.377 5.438 1.103 1.775" color="#000" stroke="#bbb" stroke-width=".132" style="isolation:auto;mix-blend-mode:normal;fill:none;stroke-linejoin:round;shape-rendering:auto" transform="translate(201.96 -654.733)"/>
<path d="m-185.337 675.201 11.66-3.095M-173.678 672.105l15.342-4.073" color="#000" stroke="#000" stroke-width=".079" style="isolation:auto;mix-blend-mode:normal;fill:none;stroke-linejoin:round;shape-rendering:auto" transform="translate(201.96 -654.733)"/>
<g stroke-width=".5" style="fill:none;stroke-linejoin:round;shape-rendering:auto" color="#000">
<path d="M165.378 50.761c-15.633-15.61-35.781-25.825-56.959-31.75" marker-end="url(#a)" stroke="#00f" style="isolation:auto;mix-blend-mode:normal" transform="matrix(.26458 0 0 .26458 -.132 -.132)"/>
<path d="m27.692 61.975-2.538-45.59" stroke="#bbb" style="isolation:auto;mix-blend-mode:normal" transform="matrix(.26458 0 0 .26458 -.132 -.132)"/>
<path d="m63.327 77.855-1.152 47.373" stroke="#000" style="isolation:auto;mix-blend-mode:normal" transform="matrix(.26458 0 0 .26458 -.132 -.132)"/>
</g>
<path d="M-185.642 687.734-194.766 671" color="#000" marker-end="url(#b)" stroke="green" stroke-linecap="round" stroke-width=".397" style="isolation:auto;mix-blend-mode:normal;fill:none;stroke-linejoin:round;shape-rendering:auto" transform="translate(201.96 -654.733)"/>
<path d="m-185.642 687.734 24.28-7.298" color="#000" marker-end="url(#c)" stroke="green" stroke-linecap="round" stroke-width=".397" style="isolation:auto;mix-blend-mode:normal;fill:none;stroke-linejoin:round;shape-rendering:auto" transform="translate(201.96 -654.733)"/>
<path d="m-161.363 680.436 3.027-12.404" color="#000" stroke="#000" stroke-width=".132" style="isolation:auto;mix-blend-mode:normal;fill:none;stroke-linejoin:round;shape-rendering:auto" transform="translate(201.96 -654.733)"/>
<path d="m-173.408 659.62-11.93 15.58" color="#000" stroke="#000" stroke-width=".079" style="isolation:auto;mix-blend-mode:normal;fill:none;stroke-linejoin:round;shape-rendering:auto" transform="translate(201.96 -654.733)"/>
<path d="M-174.78 671.721a35.517 35.517 0 0 0-4.807-1.193 36.58 36.58 0 0 0-4.218-.501m-8.475.46c-.834.142-1.663.313-2.486.512" color="#000" marker-end="url(#marker7268)" stroke="#bbb" stroke-dasharray="1, 2" stroke-width=".132" style="font-variation-settings:normal;opacity:1;isolation:auto;mix-blend-mode:normal;vector-effect:none;fill:none;fill-opacity:1;stroke:#bbb;stroke-width:.132291;stroke-linecap:butt;stroke-linejoin:miter;stroke-miterlimit:4;stroke-dasharray:.264583,.529166;stroke-dashoffset:0;stroke-opacity:1;-inkscape-stroke:none;marker-end:url(#marker7268);shape-rendering:auto;stop-color:#000;stop-opacity:1" transform="translate(201.96 -654.733)"/>
<path d="M-161.363 680.436c-3.5-4.158-8.27-7.044-13.417-8.715" color="#000" marker-end="url(#marker7268)" style="isolation:auto;mix-blend-mode:normal;fill:none;stroke:#000;stroke-width:.132291;stroke-linejoin:round;stroke-dasharray:.264583,.529166;shape-rendering:auto" transform="translate(201.96 -654.733)"/>
<path d="m-174.773 671.716 1.365-12.095" color="#000" marker-end="url(#marker7268)" style="isolation:auto;mix-blend-mode:normal;fill:none;stroke:#000;stroke-width:.132291;stroke-linejoin:round;stroke-dasharray:.264583,.529166;shape-rendering:auto" transform="translate(201.96 -654.733)"/>
<path d="m-174.773 671.716-10.87 16.018" color="#000" marker-end="url(#marker7268)" style="isolation:auto;mix-blend-mode:normal;fill:none;stroke:#000;stroke-width:.132291;stroke-linejoin:round;stroke-dasharray:.264583,.529166;shape-rendering:auto" transform="translate(201.96 -654.733)"/>
<path d="m-185.642 687.734 27.306-19.702" color="#000" marker-end="url(#d)" stroke="red" stroke-width=".397" style="isolation:auto;mix-blend-mode:normal;fill:none;stroke-linejoin:round;shape-rendering:auto" transform="translate(201.96 -654.733)"/>
<path d="m-185.642 687.734 27.306-19.702" color="#000" marker-end="url(#e)" stroke="red" stroke-linecap="round" stroke-width=".397" style="isolation:auto;mix-blend-mode:normal;fill:none;stroke-linejoin:round;shape-rendering:auto" transform="translate(201.96 -654.733)"/>
<path d="m-185.642 687.734.341-14.021m.114-4.698.246-10.115" color="#000" marker-end="url(#f)" stroke="#000" style="isolation:auto;mix-blend-mode:normal;fill:none;stroke-width:.264583;stroke-linejoin:round;shape-rendering:auto" transform="translate(201.96 -654.733)"/>
<path d="m-185.642 687.734.306-12.588" color="#000" marker-end="url(#g)" stroke="green" stroke-linecap="round" stroke-width=".397" style="isolation:auto;mix-blend-mode:normal;fill:none;stroke-linejoin:round;shape-rendering:auto" transform="translate(201.96 -654.733)"/>
<path d="M39.035 4.74c0-.278-.076-.864-.506-.864-.587 0-1.236 1.19-1.236 2.155 0 .397.122.865.506.865.595 0 1.236-1.21 1.236-2.155zm-1.295.578c.072-.27.156-.607.325-.906.114-.207.27-.443.46-.443.206 0 .231.27.231.51 0 .207-.033.422-.135.84zm.843.135c-.046.194-.135.553-.295.856-.147.287-.308.494-.489.494-.14 0-.228-.122-.228-.515 0-.177.026-.421.135-.835z" fill="#00f"/>
<g stroke-width="1.25">
<path d="M28.21.291c.025-.101.038-.143.118-.156.038-.004.173-.004.257-.004.3 0 .767 0 .767.417 0 .144-.067.435-.231.6-.11.109-.334.244-.713.244h-.473zm.607 1.156c.426-.093.928-.388.928-.814 0-.363-.38-.633-.932-.633H27.61c-.085 0-.123 0-.123.084 0 .047.038.047.118.047.009 0 .089 0 .16.008.077.009.115.013.115.068 0 .017-.005.03-.017.08l-.565 2.265c-.043.164-.051.198-.384.198-.076 0-.114 0-.114.084 0 .047.05.047.059.047.118 0 .413-.013.531-.013.118 0 .418.013.536.013.034 0 .084 0 .084-.085 0-.046-.038-.046-.118-.046-.156 0-.274 0-.274-.076 0-.025.009-.046.013-.072l.278-1.117h.502c.384 0 .46.236.46.383 0 .064-.034.194-.06.291a1.94 1.94 0 0 0-.067.359c0 .455.506.455.561.455.359 0 .506-.426.506-.485 0-.05-.046-.05-.05-.05-.038 0-.047.03-.055.059-.106.312-.287.384-.384.384-.14 0-.169-.093-.169-.258 0-.13.026-.346.042-.48a1.57 1.57 0 0 0 .017-.199c0-.324-.282-.455-.396-.497zM32.112 1.19a.315.315 0 0 0-.228.29c0 .093.072.194.21.194.148 0 .304-.122.304-.329 0-.223-.223-.37-.48-.37-.24 0-.397.18-.452.256-.105-.177-.341-.257-.582-.257-.531 0-.818.519-.818.658 0 .06.063.06.101.06.051 0 .08 0 .097-.056.123-.383.426-.51.6-.51.16 0 .235.076.235.21 0 .081-.059.313-.097.465l-.143.578c-.063.257-.215.383-.358.383-.022 0-.119 0-.203-.063a.315.315 0 0 0 .228-.29c0-.094-.072-.195-.211-.195-.148 0-.304.122-.304.33 0 .223.224.37.481.37.24 0 .397-.181.451-.257.106.177.342.257.582.257.532 0 .819-.518.819-.658 0-.059-.064-.059-.102-.059-.05 0-.08 0-.097.055-.122.384-.426.51-.599.51-.16 0-.236-.075-.236-.21 0-.089.055-.313.093-.469.03-.11.127-.506.148-.573.063-.253.21-.384.358-.384.021 0 .118 0 .203.063z"/>
<path d="M47.245 12.183a.315.315 0 0 0-.228.291c0 .093.072.194.21.194.148 0 .304-.122.304-.329 0-.224-.223-.371-.48-.371-.24 0-.397.181-.452.257-.105-.177-.341-.257-.582-.257-.531 0-.818.519-.818.658 0 .059.063.059.101.059.051 0 .08 0 .097-.055.123-.384.426-.51.6-.51.16 0 .235.076.235.21 0 .08-.059.313-.097.465l-.143.577c-.063.258-.215.384-.358.384-.021 0-.118 0-.203-.063a.315.315 0 0 0 .228-.291c0-.093-.072-.194-.211-.194-.148 0-.304.122-.304.329 0 .223.224.37.481.37.24 0 .397-.18.451-.256.106.177.342.257.582.257.532 0 .819-.519.819-.658 0-.059-.064-.059-.102-.059-.05 0-.08 0-.097.055-.122.384-.426.51-.598.51-.16 0-.237-.076-.237-.21 0-.09.055-.313.093-.469.03-.11.127-.506.148-.574.063-.253.21-.383.358-.383.021 0 .118 0 .203.063z" fill="red"/>
</g>
<g fill="green" stroke-width=".563">
<path d="M.73 25.122c.282 0 .556-.025.733-.084.359-.123.418-.363.418-.498 0-.245-.232-.405-.578-.405-.763 0-1.303.527-1.303 1.18 0 .486.325.76.881.76.11 0 .401-.004.654-.101.245-.097.414-.27.414-.32 0-.034-.068-.11-.106-.11-.025 0-.034.012-.063.046-.228.24-.557.333-.886.333-.304 0-.413-.169-.413-.409 0-.08.017-.22.063-.392zm-.148-.152c.076-.308.177-.422.249-.49a.685.685 0 0 1 .472-.193c.152 0 .325.067.325.257 0 .426-.637.426-1.046.426zM4.706 24.869l-.844-.84c-.05-.05-.059-.059-.092-.059a.087.087 0 0 0-.085.085c0 .03.009.038.055.084l.844.848-.844.847c-.046.047-.055.055-.055.085 0 .046.043.084.085.084.033 0 .042-.008.092-.059l.84-.84.873.874c.008.004.038.025.063.025.05 0 .084-.038.084-.084 0-.009 0-.025-.012-.047-.004-.008-.675-.67-.886-.885l.772-.772c.021-.025.084-.08.105-.106.005-.008.021-.025.021-.054a.082.082 0 0 0-.084-.085c-.034 0-.05.017-.097.064zM9.531 24.35a.315.315 0 0 0-.227.291c0 .093.071.194.21.194.148 0 .304-.122.304-.329 0-.223-.223-.371-.48-.371-.241 0-.397.181-.452.257-.105-.177-.342-.257-.582-.257-.531 0-.818.519-.818.658 0 .059.063.059.101.059.05 0 .08 0 .097-.055.122-.384.426-.51.599-.51.16 0 .236.076.236.21 0 .08-.059.313-.097.465l-.143.577c-.063.258-.215.384-.359.384-.02 0-.118 0-.202-.063a.315.315 0 0 0 .228-.291c0-.093-.072-.194-.211-.194-.148 0-.304.122-.304.329 0 .223.224.371.48.371.241 0 .397-.181.452-.257.106.177.342.257.582.257.532 0 .818-.519.818-.658 0-.059-.063-.059-.1-.059-.051 0-.081 0-.098.055-.122.384-.426.51-.599.51-.16 0-.236-.076-.236-.21 0-.09.055-.313.093-.469.03-.11.126-.506.147-.573.064-.253.211-.384.359-.384.021 0 .118 0 .202.063z"/>
</g>
<path d="M16.825 1.092c.283 0 .557-.025.734-.084.359-.122.418-.363.418-.498 0-.244-.232-.405-.578-.405-.764 0-1.303.528-1.303 1.181 0 .485.324.76.881.76.11 0 .4-.005.654-.102.244-.097.413-.27.413-.32 0-.034-.067-.11-.105-.11-.026 0-.034.013-.064.046-.227.24-.556.334-.885.334-.304 0-.414-.17-.414-.41 0-.08.017-.219.064-.392zM16.678.94c.075-.308.177-.421.248-.489A.685.685 0 0 1 17.4.257c.152 0 .325.068.325.257 0 .426-.637.426-1.046.426z"/>
<g fill="green" stroke-width=".563">
<path d="M10.972 16.379h.717c.599 0 1.185-.439 1.185-.911 0-.325-.278-.637-.83-.637h-1.367c-.08 0-.127 0-.127.08 0 .05.038.05.122.05.055 0 .131.005.182.01.067.008.093.02.093.067 0 .017-.005.03-.017.08l-.566 2.265c-.042.164-.05.198-.383.198-.072 0-.118 0-.118.08 0 .05.05.05.063.05.118 0 .417-.012.535-.012.09 0 .182.004.27.004.093 0 .186.009.275.009.03 0 .084 0 .084-.085 0-.046-.038-.046-.118-.046-.156 0-.274 0-.274-.076 0-.025.008-.046.012-.072zm.303-1.257c.038-.147.047-.16.228-.16h.405c.35 0 .574.114.574.405 0 .164-.085.527-.25.679-.21.19-.463.223-.649.223h-.594zM13.585 13.868c0-.044 0-.112-.07-.112-.074 0-.074.074-.074.127v2.696c0 .053 0 .126.074.126.07 0 .07-.067.07-.112zm.653.015c0-.053 0-.127-.074-.127-.07 0-.07.068-.07.112v2.725c0 .045 0 .113.07.113.074 0 .074-.074.074-.127zM17.177 16.02a.315.315 0 0 0-.228.291c0 .093.072.194.21.194.148 0 .304-.122.304-.328 0-.224-.223-.372-.48-.372-.24 0-.397.182-.452.258-.105-.177-.341-.258-.582-.258-.531 0-.818.52-.818.658 0 .06.063.06.101.06.051 0 .08 0 .097-.055.123-.384.426-.51.6-.51.16 0 .235.075.235.21 0 .08-.059.312-.097.464l-.143.578c-.063.257-.215.384-.358.384-.022 0-.119 0-.203-.064a.315.315 0 0 0 .228-.29c0-.093-.072-.195-.211-.195-.148 0-.304.123-.304.33 0 .223.224.37.481.37.24 0 .397-.18.451-.257.106.177.342.257.582.257.532 0 .819-.518.819-.657 0-.06-.064-.06-.102-.06-.05 0-.08 0-.097.055-.122.384-.426.51-.598.51-.16 0-.237-.075-.237-.21 0-.089.055-.312.093-.468.03-.11.127-.507.148-.574.063-.253.21-.384.358-.384.021 0 .118 0 .203.063zM35.326 31.668h.717c.6 0 1.185-.439 1.185-.911 0-.325-.278-.637-.83-.637H35.03c-.08 0-.126 0-.126.08 0 .05.038.05.122.05.055 0 .13.005.181.01.068.008.093.02.093.067 0 .017-.004.03-.017.08l-.565 2.265c-.042.164-.05.198-.384.198-.072 0-.118 0-.118.08 0 .05.05.05.063.05.118 0 .418-.012.536-.012.089 0 .181.004.27.004.093 0 .185.009.274.009.03 0 .084 0 .084-.085 0-.046-.038-.046-.118-.046-.156 0-.274 0-.274-.076 0-.025.009-.046.013-.072zm.304-1.257c.038-.148.046-.16.228-.16h.405c.35 0 .573.114.573.405 0 .164-.084.527-.249.679-.21.19-.464.223-.65.223h-.594zM38.722 29.326c0-.045 0-.116-.07-.116-.074 0-.074.068-.074.116v1.789h-.9c-.045 0-.119 0-.119.07 0 .074.068.074.118.074h1.946c.047 0 .118 0 .118-.07 0-.074-.068-.074-.118-.074h-.9ZM42.44 31.31a.315.315 0 0 0-.228.29c0 .093.071.194.21.194.148 0 .304-.122.304-.329 0-.223-.223-.37-.48-.37-.241 0-.397.18-.452.257-.105-.178-.342-.258-.582-.258-.531 0-.818.52-.818.658 0 .06.063.06.101.06.05 0 .08 0 .097-.056.122-.383.426-.51.599-.51.16 0 .236.076.236.211 0 .08-.059.312-.097.464l-.143.578c-.064.257-.215.384-.359.384-.02 0-.118 0-.202-.064a.315.315 0 0 0 .228-.29c0-.094-.072-.195-.211-.195-.148 0-.304.123-.304.33 0 .223.224.37.48.37.241 0 .397-.181.452-.257.106.177.342.257.582.257.532 0 .818-.518.818-.658 0-.059-.063-.059-.1-.059-.052 0-.081 0-.098.055-.122.384-.426.51-.599.51-.16 0-.236-.075-.236-.21 0-.089.055-.312.093-.468.03-.11.126-.507.147-.574.064-.253.211-.384.359-.384.021 0 .118 0 .202.063z"/>
</g>
<path d="m-185.642 687.734 12.228-28.105" color="#000" fill="none" marker-end="url(#h)" stroke="#000" stroke-linecap="round" stroke-linejoin="round" stroke-width=".397" style="isolation:auto;mix-blend-mode:normal" transform="translate(201.96 -654.733)"/>
</svg>
