<svg width="83.986" height="79.097" viewBox="0 0 22.221 20.928" xml:space="preserve" xmlns="http://www.w3.org/2000/svg">
<defs>
<marker id="a" overflow="visible" orient="auto">
<path d="m-4 0-2 2 7-2-7-2Z" fill="red" fill-rule="evenodd" stroke="red" stroke-width=".4pt"/>
</marker>
</defs>
<g transform="translate(196.88 -702.826)">
<path d="m-175.98 718.551-15.865-13.553" marker-end="url(#a)" stroke="red" stroke-width=".529" style="marker-end:url(#a)"/>
<circle cx="-175.981" cy="718.551" r="1.323" color="#000"/>
<circle cx="-192.839" cy="704.149" r="1.323" color="#000"/>
<path d="M-194.359 706.602a.378.378 0 0 0-.273.349c0 .111.086.233.253.233.177 0 .364-.147.364-.395 0-.268-.268-.445-.577-.445-.288 0-.476.217-.541.308-.127-.212-.41-.308-.699-.308-.637 0-.982.622-.982.789 0 .07.076.07.122.07.06 0 .096 0 .116-.065.147-.46.511-.612.719-.612.192 0 .283.09.283.253 0 .096-.07.374-.116.556l-.172.694c-.076.309-.258.46-.43.46-.026 0-.142 0-.243-.076a.378.378 0 0 0 .273-.349c0-.111-.086-.233-.253-.233-.177 0-.364.147-.364.395 0 .268.268.446.577.446.288 0 .475-.218.541-.31.127.213.41.31.699.31.637 0 .981-.623.981-.79 0-.07-.076-.07-.121-.07-.06 0-.096 0-.116.065-.147.46-.512.612-.72.612-.191 0-.283-.09-.283-.253 0-.106.066-.374.112-.561.035-.132.152-.608.177-.689.076-.303.253-.46.43-.46a.41.41 0 0 1 .243.076zM-192.589 707.176a.136.136 0 0 0-.141-.135c-.096 0-.199.093-.199.195 0 .06.046.135.142.135.103 0 .198-.1.198-.195zm-.722 1.8c-.015.046-.032.088-.032.149 0 .166.141.3.336.3.354 0 .51-.488.51-.541 0-.046-.046-.046-.056-.046-.05 0-.053.02-.068.06-.081.283-.237.429-.375.429-.071 0-.089-.047-.089-.124 0-.082.025-.15.057-.227.035-.096.074-.192.113-.284.032-.085.16-.407.174-.45a.426.426 0 0 0 .021-.113c0-.166-.142-.301-.336-.301-.351 0-.514.482-.514.542 0 .046.05.046.06.046.05 0 .053-.018.064-.057.092-.304.248-.432.379-.432.057 0 .089.028.089.124 0 .082-.022.135-.11.354zM-178.026 720.895a.378.378 0 0 0-.274.349c0 .111.086.233.253.233.177 0 .365-.147.365-.395 0-.268-.269-.445-.577-.445-.289 0-.476.217-.542.308-.126-.212-.41-.308-.698-.308-.638 0-.982.622-.982.79 0 .07.076.07.121.07.061 0 .097 0 .117-.066.147-.46.511-.612.718-.612.193 0 .284.09.284.253 0 .096-.071.374-.117.557l-.172.693c-.075.309-.258.46-.43.46-.025 0-.141 0-.243-.076a.378.378 0 0 0 .274-.349c0-.111-.086-.233-.253-.233-.178 0-.365.147-.365.395 0 .268.268.446.577.446.289 0 .476-.218.542-.31.126.213.41.31.698.31.638 0 .982-.623.982-.79 0-.07-.076-.07-.122-.07-.06 0-.096 0-.116.065-.147.46-.511.612-.719.612-.192 0-.283-.09-.283-.253 0-.106.066-.374.111-.561.036-.132.152-.608.177-.689.076-.303.253-.46.43-.46a.41.41 0 0 1 .244.076zM-175.576 722.553c0-.39-.046-.67-.209-.917a.736.736 0 0 0-.613-.305c-.822 0-.822.967-.822 1.222s0 1.201.822 1.201.822-.946.822-1.2zm-.822 1.102c-.163 0-.379-.096-.45-.386-.05-.21-.05-.5-.05-.762 0-.259 0-.528.054-.723a.453.453 0 0 1 .446-.354c.191 0 .376.117.44.322.056.192.06.447.06.755 0 .262 0 .524-.046.748-.071.322-.312.4-.454.4z"/>
<g fill="red">
<path d="M-180.96 708.423a.378.378 0 0 0-.273.35c0 .11.086.232.253.232.178 0 .365-.147.365-.395 0-.268-.268-.445-.577-.445-.289 0-.476.217-.542.309-.126-.213-.41-.31-.698-.31-.638 0-.982.623-.982.79 0 .071.076.071.121.071.061 0 .097 0 .117-.066.147-.46.511-.612.719-.612.192 0 .283.091.283.253 0 .096-.07.375-.116.557l-.173.693c-.075.309-.258.46-.43.46-.025 0-.141 0-.243-.075a.378.378 0 0 0 .274-.35c0-.11-.086-.232-.253-.232-.178 0-.365.147-.365.395 0 .268.268.445.577.445.289 0 .476-.218.542-.309.126.213.41.309.698.309.638 0 .982-.623.982-.79 0-.07-.076-.07-.121-.07-.061 0-.097 0-.117.065-.147.46-.511.613-.719.613-.192 0-.283-.091-.283-.253 0-.107.066-.375.111-.562.036-.132.152-.607.178-.688.075-.304.253-.461.43-.461a.41.41 0 0 1 .243.076zM-179.19 708.997a.136.136 0 0 0-.14-.134c-.097 0-.2.092-.2.195 0 .06.047.134.142.134.103 0 .199-.099.199-.195zm-.722 1.8c-.014.046-.032.089-.032.149 0 .166.142.301.337.301.354 0 .51-.489.51-.542 0-.046-.046-.046-.057-.046-.05 0-.053.021-.067.06-.082.284-.237.429-.376.429-.07 0-.088-.046-.088-.124 0-.082.025-.149.056-.227.036-.096.075-.191.114-.283.032-.085.16-.408.173-.45a.426.426 0 0 0 .022-.114c0-.166-.142-.3-.337-.3-.35 0-.514.481-.514.541 0 .046.05.046.06.046.05 0 .054-.017.064-.056.093-.305.248-.433.38-.433.056 0 .088.029.088.124 0 .082-.021.135-.11.355zM-177.082 710.081c0-.39-.046-.67-.21-.917a.736.736 0 0 0-.612-.305c-.822 0-.822.967-.822 1.222 0 .256 0 1.201.822 1.201s.822-.945.822-1.2zm-.822 1.102c-.163 0-.38-.095-.45-.386-.05-.209-.05-.5-.05-.762 0-.258 0-.527.053-.722a.453.453 0 0 1 .447-.355c.191 0 .375.117.44.323.056.191.06.446.06.754 0 .263 0 .525-.047.748-.07.322-.311.4-.453.4z"/>
</g>
</g>
</svg>
