<svg width="158.432" height="139.828" viewBox="0 0 41.918 36.996" xml:space="preserve" xmlns="http://www.w3.org/2000/svg">
<defs>
<marker id="d" overflow="visible" orient="auto">
<path d="m-4 0-2 2 7-2-7-2Z" fill="red" fill-rule="evenodd" stroke="red" stroke-width=".4pt"/>
</marker>
<marker id="a" overflow="visible" orient="auto">
<path d="m-4 0-2 2 7-2-7-2Z" fill-rule="evenodd" stroke="#000" stroke-width=".4pt"/>
</marker>
<marker id="b" overflow="visible" orient="auto">
<path d="m-4 0-2 2 7-2-7-2Z" fill-rule="evenodd" stroke="#000" stroke-width=".4pt"/>
</marker>
<marker id="c" overflow="visible" orient="auto">
<path d="M5.231 2.42-1.324.01 5.23-2.401C4.184-.978 4.19.969 5.231 2.42z" fill="#00f" fill-rule="evenodd" stroke="#00f" stroke-linejoin="round" stroke-width=".375"/>
</marker>
</defs>
<path d="m-121.345 577.404-19.941-1.797" color="#000" fill="none" marker-end="url(#a)" stroke="#000" stroke-linecap="round" stroke-linejoin="round" stroke-width=".317" style="isolation:auto;mix-blend-mode:normal;marker-end:url(#a)" transform="translate(145.96 -556.413)"/>
<path d="m-121.345 577.404-10.696 8.531" color="#000" fill="none" marker-end="url(#b)" stroke="#000" stroke-linecap="round" stroke-linejoin="round" stroke-width=".317" style="isolation:auto;mix-blend-mode:normal;marker-end:url(#b)" transform="translate(145.96 -556.413)"/>
<path d="M-111.476 581.211c.014.024.058.104.056.105.01-.005-.016-.044-.056-.105zm-5.697-14.83c-.026-.024-.043.007-.068.046.039-.026.066-.048.068-.046zm-1.786 6.675c-.066.042-.226.083-.314.129.09-.039.245-.073.314-.11v-.02zm0 .02c.038.624.021.704.02 1.178-.109.164-.127.21-.298.41l-.01.013c-.374.432-.802.758-.783.783.002.003.458-.226.873-.705l.011-.013c.155-.182.124-.209.209-.364-.005.671.013 1.753.028 1.753-.012 0 .059-.843.072-1.93v-.088c.003-.365.02-.668-.006-1.102v-.017c-.004-.057.004-.087 0-.145-.012-.15-.024-.3-.039-.45-.084-.857-.313-2.331-.383-2.822.054.167.13.423.136.422.016-.005-.054-.257-.16-.73-.012-.049-.016-.154-.028-.209-.004-.058-.021-.16-.019-.202l-.012-.037c-.087-.428-.192-.889-.19-1.458 0-.346.016-.703.054-1.063a7.158 7.158 0 0 1 .471-1.944c.245-.607.556-.897.794-1.076-.04.16-.087.321-.105.482-.088.798.05 1.557.191 2.107.079.345.175.605.422.672.335.082.424-.038.471-.114a.517.517 0 0 1-.457.06c-.218-.055-.268-.292-.356-.637-.125-.547-.25-1.3-.157-2.075.024-.201.075-.403.134-.603l.004-.018c.083-.274.19-.542.348-.787.03-.046.06-.09.091-.134.074-.086.126-.192.194-.182.03-.022.054.063.094.13.156.396.175.86.213 1.264.074.803.1 1.44.105 1.976 0 .648-.155.952-.145.96.009.008.183-.314.207-.888.04.477.117 1.169.299 2.085.088.445.243.93.349 1.442-.038.03-.114.197-.303.282a.699.699 0 0 1-.062.027c-.251.098-.54.102-.538.134 0-.002.258.099.58-.023a.642.642 0 0 0 .074-.032c.21-.116.246-.248.262-.333.01.05.026.09.034.142.066.395.051.828.16 1.264.176.69.46 1.358.808 2.024.136.26.29.51.452.756.12.181.243.36.366.537.17.244.288.522.394.802.238.634.453 1.215.724 1.79.31.662.66 1.253.867 1.829.256.71.354 1.37.504 1.87.187.62.416.966.52 1.122-.069-.117-.264-.442-.458-1.14-.131-.473-.23-1.103-.453-1.784a18.25 18.25 0 0 0 1.116 1.895c.405.587.895.952 1.424 1.503.5.52.9 1.098 1.364 1.691.149.19.301.378.46.56 1.426 1.612 1.302 1.433 2.31 2.458 1.063 1.08 1.66 1.673 1.67 1.664.012-.012-.564-.625-1.61-1.72-.976-1.021-.876-.89-2.28-2.482a12.045 12.045 0 0 1-.456-.553c-.46-.59-.865-1.172-1.374-1.699-.54-.558-1.026-.913-1.421-1.482-.731-1.046-1.373-2.317-1.692-2.934-.14-.281-.253-.544-.391-.844-.265-.572-.475-1.15-.713-1.785a3.767 3.767 0 0 0-.407-.829 31.403 31.403 0 0 1-.364-.535 8.625 8.625 0 0 1-.446-.745c-.346-.66-.628-1.32-.804-1.997-.108-.414-.096-.846-.167-1.253-.106-.607-.308-1.143-.413-1.64-.31-1.465-.35-2.098-.382-2.355a18.497 18.497 0 0 0-.06-1.77c-.032-.401-.05-.873-.213-1.296-.018-.081-.08-.191-.21-.207-.148.02-.23.142-.285.23a2.918 2.918 0 0 0-.095.14 3.2 3.2 0 0 0-.387.943c-.248.136-.593.375-.895 1.072a6.815 6.815 0 0 0-.496 1.97c-.04.365-.054.727-.051 1.077.007.763.173 1.475.294 1.923.001.005.001.002.003.007.006.075-.005.103.006.212.07.693.24 1.792.35 2.904l.039.447c.008.108-.003.093.004.198m-.314.13c-.219.093-.413.192-.762.264-.42.089-.863.025-1.425-.136-.582-.168-1.017-.33-1.711-.563-.256-.086-.543-.179-.84-.185-.42-.007-.915-.005-1.371-.041a34.445 34.445 0 0 1-2.76-.336 13.9 13.9 0 0 1-1.168-.253c-.424-.105-.846-.014-1.273.013-1.266.076-2.658.156-4.012.329-.674.081-1.474.113-1.997.617-.252.25-.346.631-.265.975.087.347.398.584.734.672.298.08.603.116.91.128.266.01.533.003.796-.008.427-.018.845-.086 1.259-.078.447.008.899.06 1.352.09.558.038 1.312.055 1.856.082.533.026.857.103 1.375.188.7.115 1.368.228 2.013.435.429.139.823.335 1.133.622-.293.055-.919.2-2.396.462-.406.071-1.003.115-1.471.267-.312.105-.538.358-.727.626-.311.435-.602.9-.91 1.352l-.03.044c-.261.379-.55.732-.737 1.158-.13.304-.162.636-.12.948.038.304.144.6.36.805.294.275.723.411 1.025.546.39.176.657.303.916.408.036.057.441.437 1.151 1.069.024.021.063.049.089.071-.037.121-.07.148-.083.444a.81.81 0 0 0 .16.547c.197.238.434.372.718.57l1.056.74.185.131c.195.14.387.31.642.355.247.038.495-.015.704-.058.34-.067.667-.152.92-.221.184-.05.154-.05.283-.09.008-.001.01-.003.019-.005.23-.07.457-.14.52-.164.09-.02.178-.049.263-.095.007-.004.007-.017.014-.021.046.019.026.013.075.033.671.276 1.685.673 2.75.931.154.038.31.074.467.107 1.096.233 2.04.301 2.904.199.25-.03.45-.088.626-.153.218.292.234.372.743.89.455.461 1.118 1.085 1.609 1.684l.113.138c.745.92 1.483 1.941 1.971 2.61.513.7.806 1.09.82 1.08.012-.007-.257-.415-.75-1.13-.48-.692-1.19-1.7-1.948-2.635l-.114-.14c-.504-.612-1.164-1.221-1.63-1.679-.49-.48-.523-.55-.764-.83.426-.165.642-.39.738-.476-.078.04-.365.214-.833.373l-.042.013c-.183.059-.303.14-.549.163-.857.083-1.78.007-2.87-.225-.155-.033-.31-.067-.464-.104-1.05-.252-2.074-.636-2.747-.89l-.06-.022c.135-.1.27-.229.28-.404a.503.503 0 0 0-.005-.104c-.049-.195-.226-.278-.4-.316-.014-.029-.002-.034-.021-.065-.02-.032-.03-.024-.048-.05a.678.678 0 0 0 .235-.515c0-.013-.01-.024-.01-.036a.418.418 0 0 0 .017.038c-.025.004.059-.169-.112-.438-.15-.23-.382-.379-.738-.553-.189-.095-.4-.18-.609-.266-.096-.568-.161-.99-.29-1.672v-.003l-.001-.006c-.111-.59-.263-1.212-.404-1.872-.012-.06 0-.128-.01-.19v-.016a2.953 2.953 0 0 1-.034-.705c0-.014-.004-.028-.002-.042 0-.012-.004-.024-.002-.037.053-.439.165-.947.163-1.428-.002-.396-.124-.81-.403-1.122-.016-.017-.039-.025-.055-.041-.003-.003-.008-.005-.011-.01-.04-.04-.093-.067-.136-.104.009-.058-.07-.352-.046-.737l.004-.059c.038-.441.169-.846.139-.855a2.025 2.025 0 0 0-.263.908c-.018.388.084.619.132.717a3.251 3.251 0 0 0-1.066-.57c-.654-.21-1.327-.326-2.028-.442-.52-.087-.848-.165-1.388-.193-.549-.028-1.302-.046-1.853-.083-.444-.03-.898-.082-1.358-.091-.428-.008-.849.06-1.266.077-.262.01-.526.017-.787.007a3.97 3.97 0 0 1-.883-.123c-.303-.083-.586-.29-.65-.584-.07-.304.012-.648.233-.862.47-.472 1.247-.496 1.928-.588 1.348-.173 2.739-.256 4.004-.336.44-.026.85-.118 1.241-.019.399.1.785.189 1.177.251.976.155 1.9.26 2.77.325.462.035.957.03 1.376.034.281.002.562.093.818.176.69.226 1.136.387 1.717.55.567.158 1.023.217 1.452.122.36-.081.542-.2.753-.31zm2.746-4.52c-.022-.013-.118.145-.296.209-.04.015-.08.028-.122.04-.249.07-.503.108-.5.139.003.015.241.059.533-.024a.97.97 0 0 0 .133-.048c.253-.12.248-.318.252-.315zm-19.968 3.971c.002.003-.025.017-.045.029.031-.011.05-.02.045-.029zm-.045.029c-.122.043-.496.129-.863.52a.755.755 0 0 0-.213.487.542.542 0 0 0 .057.26c.152.273.449.412.648.487.323.125.52.077.519.078.002-.016-.2-.026-.484-.16-.186-.09-.463-.23-.579-.461a.366.366 0 0 1-.045-.2.723.723 0 0 1 .182-.416c.322-.368.675-.536.778-.595zm3.226.602c-.026 0-.064.212-.045.497l.005.06c.028.306.098.545.127.54.036-.004.02-.252-.007-.552-.03-.332.024.275-.005-.058-.026-.274-.039-.487-.074-.487zm3.541.058c-.016-.003-.137.284-.134.673v.004c.005.388.133.67.149.667.03-.006-.027-.325-.03-.667v-.005c-.003-.344.046-.667.015-.672zm4.36 2.688c.033.03.077.048.108.081.26.285.376.677.38 1.053.005.464-.106.97-.157 1.415-.003.025.006.048.004.072-.285.083-.378.13-.938.228-.39.07-.734.097-1.169.152a9.417 9.417 0 0 0-.43.063c-.226.037-.45.114-.594.293-.15.194-.274.384-.404.539-.233.276-.26.297-.393.436-.037-.024-.08-.057-.116-.08-.535-.336-.887-.5-.894-.489-.015.025.318.224.837.575.032.021.07.051.102.073l.03.022.087.063.03.021c.189.133.378.262.577.419l.048.038c.302.243.554.441.655.734.073.198.052.355.036.504a.816.816 0 0 0-.196-.317 2.45 2.45 0 0 0-1.121-.615c-.412-.105-.511.067-.559.138.073-.049.25-.149.54-.065.31.093.717.276 1.06.621.162.167.279.436.16.635a.469.469 0 0 1-.116.143.267.267 0 0 1-.111.051h-.001a.622.622 0 0 0-.081.016c-.037.005-.074.009-.11.016-.024.005-.042.016-.065.019-.054.005-.098.047-.15.04-.076-.009-.139-.047-.21-.066-.07-.019-.138-.037-.202-.064a2.29 2.29 0 0 1-.614-.355c-.187-.161-.264-.359-.26-.525.008-.297.13-.434.122-.442.004.004-.16.097-.187.44a.748.748 0 0 0 .263.598c.043.04.107.072.156.111a16.71 16.71 0 0 1-1.099-.48c-.307-.145-.729-.282-.992-.539-.191-.18-.284-.454-.322-.742a1.692 1.692 0 0 1 .117-.887c.177-.407.464-.751.728-1.137l.03-.045c.31-.454.6-.92.906-1.352.188-.26.39-.499.667-.587.446-.15 1.043-.2 1.454-.278 1.515-.287 2.12-.47 2.394-.544zm-4.116 5.442c.014.011.024-.002.04-.024-.023.015-.037.026-.04.024zm7.634-4.535c-.009-.002-.074.203-.173.598-.089.357-.24 1-.254 1.652-.01.53.072 1.034.157 1.601.031.208.06.413.082.618.185 1.787.16 3.254.188 3.254-.025 0 .115-1.384-.07-3.265-.021-.208-.05-.416-.081-.625-.086-.57-.171-1.062-.167-1.581.004-.63.139-1.286.21-1.64.079-.398.121-.609.108-.612zm-6.575.884c-.029.012.092.321.173.662l.01.039c.073.325.076.631.106.631.014 0 .088-.283.01-.656l-.009-.042c-.092-.383-.274-.64-.29-.634zm3.394.877a3.1 3.1 0 0 0 .037.696c-.304.04-.954.12-2.094.453l-.013.003c-.962.281-1.303.459-1.692.63-.043-.03-.088-.064-.13-.091.146-.125.179-.125.427-.401.14-.157.27-.347.419-.533.113-.148.312-.206.526-.244.14-.024.283-.043.427-.062.423-.053.785-.086 1.173-.163.58-.114.648-.181.92-.288zm.038.717c.01.06-.003.126.01.185.144.664.3 1.286.415 1.874 0 .008.002.01.003.019-.118.055-.401.243-.85.466a4.28 4.28 0 0 1-.085.04c-.276.13-.352.145-.537.204-.13-.171-.121-.194-.305-.407a8.743 8.743 0 0 0-.291-.321c-.377-.394-.696-.57-.707-.555-.015.02.283.251.624.632.094.104.186.21.283.322.173.2.187.2.321.356l.033.037c.16.186.336.389.396.44-.19-.028-.409-.08-.553-.08-.267.003-.41.017-.41.029 0 .013.143.022.408.04.173.012.42.071.655.122.003 0 .035.041.036.04.001 0-.029-.037-.029-.039.109.024.18.02.303.056.262.078.531.168.807.272.078.03.144.062.22.093l.07.03c.183.075.37.149.538.228.143.069.188.138.29.198-.106-.035-.214-.073-.313-.086-.18-.028-.3.036-.446.058-.02.003-.042.003-.061.007-.1.021-.233-.01-.315.042a.507.507 0 0 0-.207.377l-.007.079v.01l.003.03c.006.058.013.086.018.086.005 0 .009-.029.012-.086l.002-.03v-.004h.002l.016-.078c.019-.09.07-.248.2-.318.075-.043.2-.01.29-.026.019-.003.041-.003.061-.005.134-.013.24-.064.414-.037.272.05.608.15.744.405.045.08.067.173.066.268a.565.565 0 0 1-.19.427c-.003.002-.006.001-.008.003-.008.007-.022.006-.03.013-.214.158-.53.158-.783.147h-.03c-.011 0-.013-.005-.023-.006-.275-.022-.474-.04-.59-.185a.542.542 0 0 1-.15-.406c-.026.085-.06.236.093.45.138.178.37.229.662.247h.057c.095.009.2.01.308.005-.069.018-.151.019-.21.043l-.09-.004c-.012 0-.034 0-.048-.002-.179-.008-.222-.016-.613-.028-.358-.012-.886-.025-1.366-.067a2.335 2.335 0 0 1-1.03-.33c-.468-.298-.918-.705-1.287-1.022-.005-.005-.013-.01-.019-.014l-.042-.034c-.702-.599-1.113-.936-1.195-.983.147.058.292.112.455.159a1.8 1.8 0 0 0 .661.24.79.79 0 0 0 .61-.17.639.639 0 0 0 .145-.176c.039-.077.018-.157.019-.236.083-.147.169-.366.052-.753-.107-.33-.372-.56-.675-.797l-.05-.038c-.178-.14-.349-.248-.522-.366.425-.143.798-.28 1.689-.54l.014-.003c1.069-.312 1.747-.46 2.06-.547zm.32 4.966c.014-.048.025-.081-.002-.08a.42.42 0 0 1 .002.08zm6.296-4.452c-.014.005.022.17.104.458.08.28.206.689.394 1.061.057.113.12.222.187.326.363.55.817.666.939.715-.085-.059-.528-.274-.84-.778a3.794 3.794 0 0 1-.179-.316c-.18-.356-.322-.768-.42-1.035-.104-.281-.168-.436-.185-.43zm1.624 2.56c.01.007.036.02.034.023.004-.007-.011-.014-.034-.023zm-7.808-.977c.125.646.193 1.047.29 1.59-.053-.021-.098-.046-.152-.066a9.095 9.095 0 0 0-.819-.267c-.167-.046-.271-.037-.415-.059-.033-.06-.208-.276-.346-.462.189-.03.253-.003.554-.14l.087-.042c.488-.243.711-.465.8-.554zm7.802 1.86c-.018-.024-.49.373-1.135.62a3.876 3.876 0 0 1-.13.048c-.703.244-1.398.337-1.392.368-.001-.006.659.012 1.431-.256a3.37 3.37 0 0 0 .135-.05c.716-.283 1.082-.743 1.09-.731zm-9.713.238c-.009-.003-.156.183-.151.483v.007c.012.298.172.469.18.465.03-.01-.056-.235-.06-.47v-.004c-.008-.237.061-.471.031-.48zm-1.734.186c.354.318.771.705 1.233 1a2.401 2.401 0 0 0 1.086.343c.494.039 1.006.04 1.373.04.386 0 .425-.013.604-.021-.004.002-.01 0-.015.003a.502.502 0 0 0-.262.319c-.019.085.001.126.005.126.007 0 .005-.043.034-.115a.486.486 0 0 1 .259-.26c.004-.002.011 0 .015-.003.011-.005.032-.002.044-.007a1.571 1.571 0 0 1 .763-.128c.048.006.095.027.145.04l.049.013c.123.042.231.101.243.211a.27.27 0 0 1 .007.075c-.007.147-.133.286-.266.373-.007.005-.007.016-.014.02-.024.015-.052.003-.077.014-.219.1-.474.128-.673.121-.012 0-.013-.006-.025-.007-.013 0-.015-.007-.027-.008-.165-.012-.292-.022-.368-.103-.1-.098-.1-.195-.105-.218-.009.037-.039.129.061.257.09.107.241.146.434.162.01 0 .013.008.025.009.102.009.22.012.345.003l-.328.077-.02.005c-.132.031-.105.02-.29.064-.252.059-.587.137-.92.197-.212.038-.45.087-.665.049-.213-.033-.386-.197-.593-.34a66.716 66.716 0 0 0-1.246-.864c-.293-.201-.522-.32-.71-.539-.123-.14-.157-.333-.157-.485 0-.269.017-.295.036-.423zm5.144 1.14c.009.02.003.026.015.049l-.013-.003c-.108-.007-.17.044-.267.056a.868.868 0 0 0 .265-.102zm-.525.198h.008-.014.005zm-2.046.357c-.021-.005-.115.155-.118.39v.01c.002.233.098.385.118.38.03-.006 0-.19.002-.38v-.01c0-.205.041-.381-.002-.39zm10.471 1.012c-.008-.01-.027.002-.06.03l.06-.03z" style="stroke-width:.264583" transform="translate(145.96 -556.413)"/>
<path d="M-132.238 583.209a19.133 7.47 3.711 0 1-7.807-5.725" fill="none" marker-start="url(#c)" stroke="#00f" stroke-linejoin="round" stroke-width=".397" style="marker-start:url(#c)" transform="translate(145.96 -556.413)"/>
<path d="M1.544 18.027c.03-.132.146-.597.5-.597.026 0 .147 0 .254.066a.294.294 0 0 0-.243.273c0 .08.055.177.192.177a.282.282 0 0 0 .273-.293c0-.264-.298-.335-.47-.335-.294 0-.47.269-.532.385a.56.56 0 0 0-.546-.385c-.527 0-.815.653-.815.78 0 .05.05.05.06.05.041 0 .056-.01.066-.055.172-.537.507-.663.679-.663.096 0 .273.045.273.339 0 .157-.086.496-.273 1.204-.081.314-.259.527-.481.527-.03 0-.147 0-.253-.066.126-.025.238-.132.238-.273 0-.137-.112-.177-.188-.177a.288.288 0 0 0-.278.293c0 .233.253.334.476.334.334 0 .516-.354.531-.385.06.188.243.385.547.385.521 0 .81-.653.81-.78 0-.05-.046-.05-.061-.05-.046 0-.056.02-.066.056-.167.541-.511.663-.673.663-.198 0-.278-.162-.278-.334 0-.112.03-.223.086-.446zM12.383 30.595c.02-.07.02-.08.02-.116 0-.091-.071-.137-.147-.137a.22.22 0 0 0-.177.106c-.01.026-.05.183-.071.274-.035.131-.07.268-.101.405l-.228.91c-.02.077-.238.43-.572.43-.258 0-.314-.222-.314-.41 0-.232.086-.546.258-.991.081-.208.102-.263.102-.364a.401.401 0 0 0-.415-.415c-.481 0-.668.733-.668.779 0 .05.05.05.06.05.05 0 .056-.01.081-.09.137-.476.34-.628.511-.628.041 0 .127 0 .127.162 0 .126-.05.258-.086.354-.202.537-.294.825-.294 1.063 0 .45.32.602.618.602.197 0 .37-.086.511-.228-.066.264-.126.512-.329.78-.132.172-.324.319-.557.319-.07 0-.298-.016-.384-.213.08 0 .146 0 .217-.06a.274.274 0 0 0 .102-.208c0-.157-.137-.177-.188-.177-.116 0-.283.08-.283.329 0 .253.223.44.536.44.522 0 1.043-.46 1.185-1.032z"/>
<path d="M20.276 3.89c.274-.294.42-.42.603-.578 0-.005.313-.273.495-.455.481-.47.593-.714.593-.734 0-.05-.046-.05-.056-.05-.035 0-.05.01-.076.055-.152.243-.258.324-.38.324-.121 0-.182-.076-.258-.162-.096-.116-.182-.218-.349-.218-.38 0-.612.471-.612.577 0 .026.015.056.06.056.046 0 .056-.025.066-.056.096-.232.39-.237.43-.237.107 0 .203.035.32.075.202.076.257.076.389.076-.182.218-.607.582-.704.663l-.455.425c-.344.34-.521.628-.521.663 0 .051.05.051.06.051.04 0 .051-.01.081-.066.117-.177.269-.314.43-.314.117 0 .168.046.294.193.086.106.177.187.324.187.501 0 .795-.643.795-.78 0-.025-.02-.05-.061-.05-.046 0-.056.03-.071.066-.116.329-.44.425-.607.425-.102 0-.193-.03-.299-.066-.172-.066-.248-.086-.354-.086-.01 0-.091 0-.137.015z" fill="red"/>
<path d="m-121.345 577.404.042-20.366" color="#000" fill="none" marker-end="url(#d)" stroke="red" stroke-linecap="round" stroke-linejoin="round" stroke-width=".317" style="isolation:auto;mix-blend-mode:normal;marker-end:url(#d)" transform="translate(145.96 -556.413)"/>
</svg>
