<svg width="158.957" height="139.829" viewBox="0 0 42.057 36.996" xml:space="preserve" xmlns="http://www.w3.org/2000/svg">
<defs>
<marker id="d" overflow="visible" orient="auto">
<path d="m-4 0-2 2 7-2-7-2Z" fill="red" fill-rule="evenodd" stroke="red" stroke-width=".4pt"/>
</marker>
<marker id="a" overflow="visible" orient="auto">
<path d="m-4 0-2 2 7-2-7-2Z" fill-rule="evenodd" stroke="#000" stroke-width=".4pt"/>
</marker>
<marker id="b" overflow="visible" orient="auto">
<path d="m-4 0-2 2 7-2-7-2Z" fill-rule="evenodd" stroke="#000" stroke-width=".4pt"/>
</marker>
<marker id="c" overflow="visible" orient="auto">
<path d="M5.231 2.42-1.324.01 5.23-2.401C4.184-.978 4.19.969 5.231 2.42z" fill="#00f" fill-rule="evenodd" stroke="#00f" stroke-linejoin="round" stroke-width=".375"/>
</marker>
</defs>
<path d="m-109.58 629.26-19.942-1.798" color="#000" fill="none" marker-end="url(#a)" stroke="#000" stroke-linecap="round" stroke-linejoin="round" stroke-width=".318" style="isolation:auto;mix-blend-mode:normal;marker-end:url(#a)" transform="translate(134.335 -608.268)"/>
<path d="m-109.58 629.26-10.697 8.531" color="#000" fill="none" marker-end="url(#b)" stroke="#000" stroke-linecap="round" stroke-linejoin="round" stroke-width=".318" style="isolation:auto;mix-blend-mode:normal;marker-end:url(#b)" transform="translate(134.335 -608.268)"/>
<path d="M-99.712 633.067c.014.023.058.104.056.105.01-.005-.016-.044-.056-.105zm-5.696-14.83c-.027-.024-.044.007-.068.046.038-.026.065-.048.068-.046zm-1.787 6.674c-.066.043-.226.083-.313.13.09-.04.244-.074.313-.11v-.02zm0 .02c.038.624.021.705.02 1.179-.108.163-.126.21-.297.41l-.011.013c-.373.432-.802.758-.782.782.002.003.458-.225.872-.704l.012-.013c.154-.182.123-.209.208-.365-.005.672.013 1.754.028 1.754-.012 0 .059-.843.072-1.93v-.088c.003-.365.02-.668-.006-1.102v-.017c-.004-.057.004-.087 0-.145-.011-.15-.024-.3-.039-.45-.084-.858-.313-2.332-.383-2.822.054.167.13.423.136.421.016-.005-.054-.256-.16-.729-.012-.049-.016-.154-.028-.21-.004-.057-.021-.16-.019-.201l-.012-.037c-.086-.428-.192-.89-.19-1.458 0-.346.016-.703.055-1.063a7.162 7.162 0 0 1 .47-1.944c.245-.607.557-.897.794-1.076-.04.16-.087.321-.105.482-.087.797.05 1.557.191 2.107.079.345.175.605.422.672.335.082.424-.038.471-.114a.516.516 0 0 1-.457.06c-.218-.056-.268-.292-.356-.637-.125-.548-.25-1.3-.157-2.075.024-.202.075-.404.134-.603l.004-.018c.083-.274.191-.542.349-.788.029-.045.059-.09.09-.133.075-.086.126-.192.194-.182.03-.022.054.062.094.13.156.396.175.86.213 1.263.074.804.1 1.441.106 1.977 0 .647-.155.951-.146.96.01.008.183-.314.207-.888.04.477.117 1.168.3 2.085.088.445.243.93.348 1.442-.037.03-.114.197-.303.282a.699.699 0 0 1-.062.027c-.251.097-.54.102-.537.133 0-.002.258.1.58-.022a.651.651 0 0 0 .073-.032c.21-.116.247-.248.262-.333.01.05.026.09.035.142.066.395.05.828.16 1.263.175.69.46 1.359.807 2.024.137.261.29.511.453.757.12.181.243.36.366.537.169.244.288.522.393.802.239.634.453 1.214.724 1.79.31.662.66 1.253.867 1.828.256.71.354 1.37.505 1.87.187.62.415.966.519 1.123-.068-.117-.264-.443-.457-1.14-.132-.473-.23-1.103-.453-1.784a18.25 18.25 0 0 0 1.116 1.895c.405.587.894.951 1.424 1.503.5.52.9 1.098 1.363 1.691.149.19.301.378.461.56 1.425 1.612 1.302 1.433 2.31 2.458 1.063 1.08 1.66 1.673 1.669 1.663.012-.011-.564-.624-1.61-1.72-.976-1.02-.876-.889-2.279-2.48a12.048 12.048 0 0 1-.456-.554c-.46-.59-.865-1.172-1.375-1.7-.54-.558-1.025-.912-1.421-1.481-.73-1.046-1.373-2.317-1.691-2.935-.14-.28-.253-.543-.392-.843-.265-.572-.475-1.15-.713-1.786a3.768 3.768 0 0 0-.406-.828 31.403 31.403 0 0 1-.364-.535 8.627 8.627 0 0 1-.447-.746c-.346-.66-.628-1.319-.803-1.996-.108-.414-.096-.846-.167-1.254-.107-.607-.309-1.142-.414-1.639-.31-1.465-.35-2.098-.382-2.355a18.497 18.497 0 0 0-.06-1.77c-.032-.402-.05-.874-.212-1.296-.018-.082-.08-.192-.21-.207-.15.02-.231.141-.285.23a2.923 2.923 0 0 0-.095.14 3.2 3.2 0 0 0-.388.942c-.248.136-.593.376-.894 1.073a6.815 6.815 0 0 0-.497 1.97c-.04.365-.054.727-.05 1.077.006.763.172 1.474.294 1.922 0 .005 0 .002.003.007.006.076-.005.104.006.213.07.693.24 1.791.349 2.904.014.15.028.298.039.447.008.107-.003.093.003.198m-.314.129c-.218.094-.413.192-.761.265-.42.089-.864.025-1.426-.137-.581-.167-1.017-.33-1.711-.562-.255-.086-.542-.18-.84-.185-.42-.007-.914-.005-1.37-.041a34.445 34.445 0 0 1-2.76-.336c-.388-.063-.771-.153-1.169-.253-.423-.105-.845-.015-1.273.012-1.266.077-2.658.157-4.011.33-.674.081-1.474.113-1.998.617-.251.25-.346.631-.265.975.087.347.398.583.734.672.298.08.603.115.91.127.266.011.533.003.796-.008.427-.017.845-.085 1.26-.077.446.008.898.06 1.351.09.558.037 1.313.054 1.856.081.533.027.857.104 1.375.189.701.115 1.369.228 2.014.435.428.139.823.335 1.132.622-.293.055-.918.2-2.396.461-.406.072-1.002.116-1.47.268-.313.105-.539.357-.728.625-.311.436-.602.9-.91 1.352l-.03.045c-.26.379-.55.731-.736 1.158-.131.303-.163.636-.121.948.038.304.144.599.36.805.294.275.723.41 1.026.546.389.175.656.302.915.407.036.057.441.437 1.152 1.07.024.021.063.048.088.07-.037.122-.07.149-.082.445a.81.81 0 0 0 .16.547c.196.238.434.371.718.57l1.056.74.185.13c.195.141.387.31.642.356.246.038.494-.015.704-.058.339-.067.666-.153.92-.222.183-.05.153-.05.283-.089l.018-.006c.23-.07.457-.139.52-.163.09-.021.179-.049.263-.095.007-.004.007-.017.015-.021.045.019.026.013.075.033.67.276 1.685.672 2.748.931.155.038.311.073.468.107 1.096.233 2.04.3 2.904.198.25-.03.45-.088.626-.152.218.292.234.372.743.889.455.462 1.119 1.086 1.61 1.684l.112.14c.746.92 1.483 1.94 1.972 2.608.512.701.806 1.091.82 1.081.012-.008-.257-.416-.752-1.13a44.47 44.47 0 0 0-1.947-2.635l-.113-.14c-.504-.613-1.164-1.221-1.63-1.679-.49-.48-.524-.55-.765-.83.426-.165.642-.39.739-.476-.079.04-.366.214-.833.372l-.042.013c-.184.06-.303.14-.55.164-.857.083-1.779.007-2.87-.225a18.41 18.41 0 0 1-.464-.105c-1.049-.251-2.074-.635-2.747-.89-.038-.014-.023-.007-.06-.02.135-.102.27-.23.28-.406a.503.503 0 0 0-.004-.104c-.05-.195-.227-.277-.401-.315-.014-.029-.001-.034-.02-.065-.02-.032-.03-.025-.05-.05a.678.678 0 0 0 .236-.515c0-.013-.009-.024-.01-.037a.418.418 0 0 0 .017.04c-.025.003.06-.17-.111-.439-.15-.23-.383-.38-.738-.553-.19-.095-.4-.18-.61-.266-.095-.568-.161-.99-.29-1.673V633.291c-.112-.59-.264-1.211-.404-1.871-.013-.061 0-.128-.01-.19v-.016a2.953 2.953 0 0 1-.035-.706c.001-.014-.004-.027-.002-.041.001-.013-.004-.025-.002-.037.053-.44.166-.948.163-1.428-.002-.396-.123-.811-.403-1.122-.015-.017-.038-.025-.054-.042l-.012-.009c-.04-.04-.092-.067-.136-.104.01-.058-.07-.352-.045-.737 0-.02.002-.04.004-.059.037-.441.168-.847.138-.856a2.024 2.024 0 0 0-.262.909c-.019.387.083.619.131.717a3.251 3.251 0 0 0-1.065-.57c-.655-.21-1.328-.327-2.029-.443-.52-.086-.847-.165-1.388-.192-.549-.028-1.302-.046-1.853-.083-.444-.03-.898-.082-1.358-.091-.428-.008-.849.06-1.266.076-.262.011-.526.018-.787.007a3.97 3.97 0 0 1-.883-.122c-.303-.083-.585-.29-.649-.584-.071-.305.012-.648.232-.863.47-.472 1.248-.495 1.929-.587 1.347-.174 2.738-.256 4.003-.336.44-.026.85-.119 1.241-.02.4.1.785.19 1.178.252.975.155 1.9.26 2.769.325.462.035.957.03 1.376.034.281.002.562.093.818.176.69.226 1.136.387 1.718.549.566.158 1.023.218 1.452.122.36-.08.541-.2.752-.31zm2.746-4.519c-.022-.013-.117.145-.296.209-.039.015-.08.028-.121.04-.25.07-.504.107-.5.138.002.015.24.06.532-.023a.96.96 0 0 0 .134-.049c.252-.12.247-.317.251-.315zm-19.967 3.97c.002.004-.026.018-.045.03.03-.011.05-.02.045-.03zm-.045.03c-.123.042-.497.128-.863.519a.755.755 0 0 0-.214.488.542.542 0 0 0 .057.26c.152.273.449.411.648.487.323.125.52.077.52.078.001-.017-.201-.026-.484-.16-.187-.09-.463-.23-.58-.462a.366.366 0 0 1-.045-.2.723.723 0 0 1 .182-.415c.322-.369.675-.536.779-.596zm3.225.602c-.026 0-.064.212-.045.496l.005.06c.028.307.098.545.127.541.037-.005.02-.252-.007-.552-.03-.333.025.274-.005-.058-.025-.274-.039-.487-.074-.487zm3.542.058c-.016-.003-.138.284-.135.673v.004c.005.388.133.67.149.666.03-.006-.026-.325-.03-.667v-.005c-.002-.343.047-.666.016-.672zm4.36 2.687c.032.031.077.049.107.082.26.284.376.677.38 1.053.005.464-.105.97-.157 1.415-.003.025.006.047.004.072-.285.083-.378.129-.938.228-.39.07-.734.097-1.168.151a9.417 9.417 0 0 0-.431.064c-.225.036-.45.114-.594.293-.15.194-.274.384-.404.539-.233.276-.26.296-.392.436-.038-.024-.08-.058-.117-.08-.535-.336-.887-.501-.894-.49-.015.026.318.224.838.576.032.021.069.05.101.073l.03.022.087.062.03.022c.189.133.378.262.577.418l.049.039c.3.242.553.441.654.734.073.198.052.355.036.504a.816.816 0 0 0-.195-.318 2.45 2.45 0 0 0-1.122-.614c-.412-.105-.51.067-.559.138.073-.049.25-.149.54-.066.31.093.717.277 1.061.622.162.166.278.435.16.634a.469.469 0 0 1-.117.144.267.267 0 0 1-.11.05h-.002a.622.622 0 0 0-.08.017c-.038.005-.075.009-.111.016-.023.005-.042.016-.065.018-.054.005-.098.047-.15.041-.076-.009-.139-.047-.21-.066-.07-.02-.137-.037-.202-.064a2.29 2.29 0 0 1-.613-.355c-.187-.161-.264-.359-.26-.525.007-.297.13-.434.121-.442.004.004-.16.097-.187.439a.748.748 0 0 0 .263.598c.043.04.107.073.157.112a16.707 16.707 0 0 1-1.1-.48c-.307-.145-.728-.283-.992-.539-.191-.18-.283-.454-.321-.743a1.692 1.692 0 0 1 .117-.886c.176-.407.463-.752.727-1.137l.03-.045c.31-.455.6-.92.907-1.352.187-.26.39-.499.666-.587.446-.15 1.043-.2 1.454-.278 1.516-.287 2.12-.471 2.395-.544zm-4.116 5.443c.013.011.023-.002.038-.025-.022.015-.036.027-.038.025zm7.634-4.535c-.01-.002-.075.203-.173.598-.09.357-.24 1-.255 1.651-.01.53.073 1.035.158 1.602.03.208.06.413.081.618.186 1.787.16 3.254.189 3.254-.026 0 .114-1.384-.071-3.266-.02-.208-.05-.415-.081-.624-.085-.57-.17-1.063-.167-1.582.004-.628.14-1.285.21-1.639.08-.398.122-.61.109-.612zm-6.575.884c-.03.012.092.321.172.661l.01.04c.073.325.076.63.106.63.014 0 .088-.282.01-.655-.002-.014-.004-.029-.008-.043-.092-.383-.275-.64-.29-.633zm3.393.877a3.1 3.1 0 0 0 .038.696c-.304.04-.955.12-2.094.453l-.013.003c-.963.281-1.303.459-1.693.63-.043-.03-.088-.064-.13-.092.146-.124.18-.124.427-.4.14-.157.27-.347.42-.533.112-.148.311-.206.525-.245.141-.023.283-.043.427-.06.423-.054.786-.088 1.174-.164.58-.115.647-.181.92-.288zm.038.717c.01.06-.003.126.01.185.145.663.301 1.286.415 1.873l.003.02c-.117.055-.4.243-.85.466l-.084.04c-.277.13-.353.144-.538.203-.13-.17-.12-.194-.305-.406a8.759 8.759 0 0 0-.29-.321c-.377-.395-.697-.57-.707-.555-.015.02.282.251.623.631.094.105.187.21.284.323.172.2.186.2.32.356l.033.037c.16.185.337.388.396.44-.189-.029-.409-.08-.553-.08-.267.002-.41.017-.41.028 0 .014.143.023.408.041.174.012.42.07.655.122.003 0 .036.041.037.04 0 0-.03-.037-.03-.039.11.024.181.02.303.056.262.078.532.167.808.272.077.03.144.062.219.092l.071.031c.182.075.369.148.537.228.144.069.188.138.29.198-.106-.035-.214-.074-.313-.087-.179-.027-.299.037-.445.059-.02.003-.042.003-.062.007-.1.02-.233-.01-.314.041a.507.507 0 0 0-.208.378l-.007.079v.01l.004.03c.006.058.012.086.017.086.005 0 .01-.029.013-.086 0-.01 0-.02.002-.031v-.003l.001-.001.017-.078c.018-.089.07-.247.2-.317.074-.043.199-.011.29-.026.018-.003.04-.003.06-.005.135-.014.241-.064.415-.037.272.05.608.15.743.404.045.08.067.174.066.269a.565.565 0 0 1-.19.427c-.002.002-.005.001-.007.003-.008.007-.022.006-.031.012-.214.159-.529.159-.783.148h-.03c-.01 0-.012-.006-.022-.007-.275-.021-.475-.039-.591-.185a.542.542 0 0 1-.15-.406c-.025.086-.06.237.093.45.138.179.37.23.662.248h.057c.095.009.2.01.309.005-.07.018-.152.018-.211.043l-.089-.004c-.013 0-.034 0-.049-.002-.178-.008-.221-.016-.612-.028-.359-.012-.887-.025-1.366-.068a2.335 2.335 0 0 1-1.031-.329c-.468-.298-.917-.705-1.287-1.022l-.018-.014-.042-.034c-.703-.599-1.113-.937-1.195-.984.146.059.292.113.455.16a1.8 1.8 0 0 0 .66.239.79.79 0 0 0 .61-.169.639.639 0 0 0 .146-.176c.038-.077.017-.157.018-.237.083-.146.169-.365.052-.752-.107-.33-.371-.56-.675-.797l-.049-.038c-.178-.14-.35-.248-.523-.366.425-.143.798-.28 1.69-.54l.013-.004c1.07-.311 1.747-.46 2.06-.546zm.32 4.966c.014-.048.026-.081-.001-.08a.42.42 0 0 1 .002.08zm6.297-4.452c-.014.005.021.169.103.458.08.28.206.688.395 1.061.057.113.119.221.187.325.363.55.816.667.938.716-.085-.059-.527-.275-.84-.778a3.792 3.792 0 0 1-.179-.317c-.18-.355-.322-.767-.42-1.034-.103-.281-.168-.436-.184-.431zm1.623 2.56c.01.007.036.02.035.023.004-.007-.012-.014-.035-.023zm-7.808-.978c.125.646.194 1.047.29 1.59-.053-.02-.098-.045-.152-.066a9.098 9.098 0 0 0-.819-.266c-.167-.046-.271-.037-.415-.06-.033-.06-.207-.276-.346-.461.19-.03.254-.003.555-.14l.086-.042c.489-.243.711-.466.801-.555zm7.802 1.86c-.018-.024-.489.373-1.134.62a3.876 3.876 0 0 1-.13.048c-.704.245-1.398.337-1.393.368-.001-.006.66.013 1.431-.255a3.37 3.37 0 0 0 .135-.05c.716-.283 1.082-.743 1.09-.731zm-9.712.24c-.01-.004-.157.182-.152.481v.007c.012.299.172.47.18.466.03-.01-.056-.236-.06-.47v-.005c-.007-.237.062-.47.032-.48zm-1.735.185c.355.318.772.704 1.233 1 .03.02.062.038.093.056.31.175.656.26.993.287.494.038 1.007.04 1.374.04.386 0 .424-.013.604-.022-.004.002-.012.001-.015.003a.502.502 0 0 0-.262.32c-.02.085 0 .126.005.126.007 0 .005-.044.034-.115a.486.486 0 0 1 .258-.26c.004-.002.011-.001.015-.003.012-.005.033-.002.044-.007a1.571 1.571 0 0 1 .763-.128c.048.006.096.026.145.04l.05.013c.122.041.23.1.242.211a.27.27 0 0 1 .007.075c-.007.147-.133.286-.266.373-.007.005-.007.016-.014.02-.024.014-.052.003-.077.014-.218.1-.474.128-.673.121-.012 0-.013-.006-.025-.007-.013 0-.015-.007-.027-.008-.164-.012-.291-.022-.367-.103-.101-.098-.1-.195-.106-.218-.009.036-.038.128.062.257.09.107.24.146.433.161.011.001.014.008.025.01.102.008.221.012.345.002l-.328.078-.02.005c-.131.031-.104.02-.29.064-.251.059-.587.137-.92.197-.212.037-.45.087-.665.048-.213-.032-.386-.196-.592-.339a68.916 68.916 0 0 0-1.247-.864c-.293-.202-.522-.32-.71-.539-.122-.14-.156-.333-.157-.486 0-.268.017-.295.036-.422zm5.144 1.14c.009.02.003.026.016.049l-.013-.003c-.109-.007-.17.044-.268.055a.868.868 0 0 0 .265-.1zm-.525.198h.008-.014.005zm-2.046.357c-.02-.005-.114.154-.117.39v.01c.002.232.097.385.117.38.03-.007 0-.19.002-.38v-.01c.001-.205.042-.381-.002-.39zm10.471 1.012c-.008-.011-.027.002-.059.03.01-.005.058-.032.06-.03z" style="stroke-width:.264583" transform="translate(134.335 -608.268)"/>
<path d="M-120.473 635.064a19.133 7.47 3.711 0 1-7.808-5.725" fill="none" marker-start="url(#c)" stroke="#00f" stroke-linejoin="round" stroke-width=".397" style="marker-start:url(#c)" transform="translate(134.335 -608.268)"/>
<g fill="red" style="stroke-width:1.33333">
<path d="M11.994 2.574c.03-.126.081-.329.081-.374 0-.162-.131-.223-.237-.223a.345.345 0 0 0-.259.126.71.71 0 0 0-.536-.212c-.88 0-1.427.8-1.427 1.493 0 .622.465.835.885.835.36 0 .623-.197.704-.273.192.273.526.273.582.273.187 0 .334-.106.44-.289.127-.202.193-.475.193-.5 0-.071-.076-.071-.122-.071-.056 0-.076 0-.101.025-.01.01-.01.02-.04.147-.102.404-.218.506-.345.506-.055 0-.116-.02-.116-.188 0-.086.02-.167.07-.369.036-.142.087-.344.112-.455zm-.84 1.134c-.146.172-.384.329-.627.329-.314 0-.34-.274-.34-.385 0-.263.173-.886.254-1.083.157-.37.405-.496.612-.496.299 0 .42.238.42.294l-.01.07zM15.684 2.771l-1.012-1.007c-.06-.06-.07-.07-.111-.07a.105.105 0 0 0-.101.1c0 .036.01.046.066.102l1.012 1.017-1.012 1.017c-.056.056-.066.066-.066.102 0 .055.05.1.1.1.041 0 .052-.01.112-.07l1.007-1.007 1.048 1.047c.01.006.046.03.076.03.06 0 .101-.045.101-.1 0-.01 0-.03-.015-.056-.005-.01-.81-.805-1.063-1.063l.926-.926c.026-.03.102-.096.127-.127.005-.01.025-.03.025-.065a.098.098 0 0 0-.101-.102c-.04 0-.06.02-.116.076zM20.184.843c.02-.07.02-.08.02-.086 0-.065-.055-.09-.111-.09-.02 0-.025 0-.036.004l-.652.03c-.071.006-.162.01-.162.153 0 .09.096.09.131.09.056 0 .147 0 .213.01-.04.173-.091.39-.142.583l-.35 1.397c-.07.283-.07.344-.07.46 0 .648.48.825.86.825.916 0 1.438-.825 1.438-1.493 0-.622-.466-.835-.886-.835a1.08 1.08 0 0 0-.552.162zm-.288 3.194c-.198 0-.365-.106-.365-.42 0-.162.05-.35.086-.506.05-.193.137-.542.172-.694.026-.086.314-.344.623-.344.314 0 .339.274.339.385 0 .263-.172.886-.253 1.083-.172.41-.456.496-.602.496z"/>
</g>
<path d="M-131.957 626.165c.03-.126.081-.329.081-.374 0-.162-.131-.223-.237-.223a.344.344 0 0 0-.259.127.71.71 0 0 0-.536-.213c-.88 0-1.427.8-1.427 1.493 0 .623.465.835.885.835.36 0 .623-.197.704-.273.192.273.526.273.582.273.187 0 .334-.106.44-.288.127-.203.193-.476.193-.501 0-.071-.076-.071-.122-.071-.056 0-.076 0-.101.025-.01.01-.01.02-.04.147-.102.405-.218.506-.345.506-.056 0-.116-.02-.116-.187 0-.086.02-.167.07-.37.036-.141.087-.344.112-.455zm-.84 1.134c-.147.172-.384.329-.627.329-.314 0-.34-.273-.34-.385 0-.263.173-.885.254-1.083.157-.37.405-.496.612-.496.299 0 .42.238.42.294l-.01.07zM-123.338 638.373c.02-.071.02-.081.02-.086 0-.066-.055-.091-.111-.091-.02 0-.025 0-.036.005l-.652.03c-.071.005-.162.01-.162.152 0 .09.096.09.131.09.056 0 .147 0 .213.011-.04.172-.091.39-.142.582l-.35 1.397c-.07.283-.07.344-.07.46 0 .648.48.825.86.825.916 0 1.438-.825 1.438-1.493 0-.622-.466-.835-.886-.835-.243 0-.445.096-.552.162zm-.289 3.193c-.197 0-.364-.106-.364-.42 0-.162.05-.349.086-.506.05-.192.137-.541.172-.693.025-.086.314-.344.623-.344.313 0 .339.273.339.384 0 .263-.172.886-.253 1.083-.172.41-.456.496-.603.496z" style="stroke-width:.352776" transform="translate(134.335 -608.268)"/>
<path d="m-109.58 629.26.042-20.366" color="#000" fill="none" marker-end="url(#d)" stroke="red" stroke-linecap="round" stroke-linejoin="round" stroke-width=".318" style="isolation:auto;mix-blend-mode:normal;marker-end:url(#d)" transform="translate(134.335 -608.268)"/>
</svg>
