<svg width="219.357" height="121.291" viewBox="0 0 58.038 32.092" xml:space="preserve" xmlns="http://www.w3.org/2000/svg">
<defs>
<marker id="a" overflow="visible" orient="auto">
<path d="m-10 0-4 4L0 0l-14-4Z" fill="#00f" fill-rule="evenodd" stroke="#00f" stroke-width=".8pt"/>
</marker>
<marker id="b" overflow="visible" orient="auto">
<path d="m-4 0-2 2 7-2-7-2Z" fill="red" fill-rule="evenodd" stroke="red" stroke-width=".4pt"/>
</marker>
<marker id="c" overflow="visible" orient="auto">
<path d="m-4 0-2 2 7-2-7-2Z" fill="green" fill-rule="evenodd" stroke="green" stroke-width=".4pt"/>
</marker>
<marker id="d" overflow="visible" orient="auto">
<path d="m-4 0-2 2 7-2-7-2Z" fill-rule="evenodd" stroke="#000" stroke-width=".4pt"/>
</marker>
</defs>
<g transform="translate(142.053 -659.295)">
<path d="m-115.909 688.18 3.416-1.179 1.049 3.045" fill="none" stroke="#040404" stroke-linejoin="round" stroke-width=".159"/>
<path d="M-95.113 664.898c.03-.122.045-.172.142-.188.045-.005.207-.005.308-.005.36 0 .921 0 .921.502 0 .172-.08.52-.278.718-.132.132-.4.294-.855.294h-.567zm.729 1.386c.51-.11 1.113-.465 1.113-.976 0-.436-.455-.76-1.118-.76h-1.443c-.101 0-.147 0-.147.102 0 .055.046.055.142.055.01 0 .106 0 .192.01.092.01.137.016.137.082 0 .02-.005.035-.02.096l-.678 2.717c-.05.198-.061.238-.46.238-.092 0-.137 0-.137.102 0 .055.06.055.07.055.142 0 .496-.015.638-.015.142 0 .501.015.643.015.04 0 .101 0 .101-.101 0-.056-.046-.056-.142-.056-.187 0-.329 0-.329-.09 0-.031.01-.057.016-.087l.334-1.341h.602c.46 0 .552.283.552.46 0 .076-.04.233-.071.35a2.328 2.328 0 0 0-.081.43c0 .547.607.547.673.547.43 0 .607-.512.607-.582 0-.061-.055-.061-.06-.061-.046 0-.056.035-.066.07-.127.375-.344.461-.46.461-.168 0-.203-.111-.203-.309 0-.156.03-.415.05-.576.01-.071.02-.167.02-.238 0-.39-.339-.547-.475-.598zM-90.43 665.976a.378.378 0 0 0-.274.349c0 .111.086.233.253.233.177 0 .365-.147.365-.395 0-.268-.269-.445-.577-.445-.289 0-.476.217-.542.308-.126-.212-.41-.308-.698-.308-.638 0-.982.622-.982.789 0 .07.076.07.121.07.061 0 .097 0 .117-.065.147-.46.51-.612.718-.612.193 0 .284.09.284.253 0 .096-.071.374-.117.557l-.172.693c-.076.309-.258.46-.43.46-.025 0-.142 0-.243-.075a.378.378 0 0 0 .274-.35c0-.111-.087-.232-.254-.232-.177 0-.364.146-.364.394 0 .269.268.446.577.446.289 0 .476-.218.542-.31.126.213.41.31.698.31.638 0 .982-.623.982-.79 0-.07-.076-.07-.122-.07-.06 0-.096 0-.116.065-.147.46-.511.612-.719.612-.192 0-.283-.09-.283-.253 0-.106.066-.374.111-.561.036-.132.152-.608.177-.689.076-.303.253-.46.43-.46a.41.41 0 0 1 .243.076z" fill="#000808"/>
<g fill="#00f" stroke-width="1.333">
<path d="M-96.794 688.544c0-.825.415-1.038.683-1.038.046 0 .364.005.541.187-.207.016-.237.167-.237.233 0 .132.09.233.232.233.132 0 .233-.086.233-.238 0-.344-.384-.541-.774-.541-.633 0-1.098.546-1.098 1.174 0 .647.5 1.149 1.088 1.149.678 0 .84-.608.84-.658 0-.051-.05-.051-.066-.051-.045 0-.056.02-.066.05-.146.471-.475.532-.663.532-.268 0-.713-.218-.713-1.032zM-92.762 688.564c0-.648-.506-1.185-1.118-1.185-.633 0-1.124.552-1.124 1.185a1.13 1.13 0 0 0 1.119 1.138c.612 0 1.123-.496 1.123-1.138zm-1.118 1.012a.661.661 0 0 1-.577-.34c-.126-.222-.126-.53-.126-.713 0-.197 0-.47.121-.693a.68.68 0 0 1 .577-.34c.223 0 .44.112.572.33.131.217.131.51.131.703 0 .182 0 .456-.11.678a.653.653 0 0 1-.588.375zM-91.572 688.665c.112.02.527.101.527.466 0 .258-.177.46-.572.46-.425 0-.608-.288-.704-.719-.015-.065-.02-.086-.07-.086-.066 0-.066.036-.066.127v.668c0 .086 0 .121.055.121.026 0 .03-.005.127-.1.01-.01.01-.02.101-.117.223.212.45.217.557.217.582 0 .815-.339.815-.703 0-.268-.152-.42-.213-.48-.167-.163-.364-.203-.577-.244-.283-.055-.622-.121-.622-.415 0-.177.131-.384.566-.384.557 0 .582.455.593.612.005.046.05.046.06.046.066 0 .066-.026.066-.122v-.511c0-.086 0-.122-.056-.122-.025 0-.035 0-.1.061a.654.654 0 0 1-.087.081c-.192-.142-.4-.142-.476-.142-.617 0-.81.34-.81.623a.54.54 0 0 0 .218.43c.162.132.304.162.668.233zM-87.464 687.116c0-.334-.091-1.037-.607-1.037-.704 0-1.483 1.427-1.483 2.586 0 .476.147 1.038.607 1.038.714 0 1.483-1.453 1.483-2.587zm-1.554.694c.086-.324.188-.729.39-1.088.137-.248.324-.532.552-.532.248 0 .278.324.278.613 0 .248-.04.506-.162 1.007zm1.012.162c-.055.232-.161.663-.354 1.027-.177.344-.37.592-.587.592-.167 0-.273-.147-.273-.617 0-.213.03-.506.162-1.002z"/>
</g>
<path d="M-84.36 680.579a.378.378 0 0 0-.273.349c0 .111.086.233.253.233.177 0 .365-.147.365-.395 0-.268-.268-.445-.577-.445-.289 0-.476.217-.542.308-.126-.212-.41-.308-.698-.308-.638 0-.982.622-.982.79 0 .07.076.07.121.07.061 0 .097 0 .117-.066.147-.46.511-.612.719-.612.192 0 .283.091.283.253 0 .096-.07.374-.116.557l-.173.693c-.075.309-.258.46-.43.46-.025 0-.141 0-.243-.075a.378.378 0 0 0 .274-.35c0-.11-.086-.232-.253-.232-.178 0-.365.146-.365.394 0 .269.268.446.577.446.289 0 .476-.218.542-.309.126.213.41.309.698.309.638 0 .982-.623.982-.79 0-.07-.076-.07-.122-.07-.06 0-.096 0-.116.065-.147.46-.511.613-.719.613-.192 0-.283-.092-.283-.253 0-.107.066-.375.111-.562.036-.132.152-.608.177-.689.076-.303.254-.46.43-.46a.41.41 0 0 1 .244.076z" fill="#ff0808"/>
<path d="M-101.427 682.167c0-.334-.09-1.038-.607-1.038-.703 0-1.483 1.428-1.483 2.586 0 .476.147 1.038.608 1.038.713 0 1.482-1.453 1.482-2.586zm-1.553.693c.086-.324.187-.729.39-1.088.136-.248.323-.531.551-.531.248 0 .278.324.278.612 0 .248-.04.506-.162 1.007zm1.012.162c-.056.233-.162.663-.354 1.028-.178.344-.37.592-.587.592-.167 0-.274-.147-.274-.618 0-.212.03-.506.162-1.002z" fill="#00f"/>
<path d="M-104.412 687.533a11.046 11.046 0 0 0-3.041-4.561" marker-end="url(#a)" stroke="#00f" stroke-width=".132" style="fill:none;stroke-linejoin:round"/>
<path d="M-123.964 664.766a27.958 27.953.268 0 1 21.37 1.291 27.958 27.953.268 0 1 14.192 16.027" stroke="#bbb" stroke-width=".132" style="fill:none;stroke-linejoin:round"/>
<path d="m-119.37 677.984 22.883-7.88 4.547 13.2" stroke="#0404ff" stroke-dasharray="2.4, 2.4" stroke-width=".106" style="font-variation-settings:normal;opacity:1;vector-effect:none;fill:none;fill-opacity:1;stroke:#0404ff;stroke-width:.105833;stroke-linecap:butt;stroke-linejoin:miter;stroke-miterlimit:4;stroke-dasharray:.635,.635;stroke-dashoffset:0;stroke-opacity:1;-inkscape-stroke:none;stop-color:#000;stop-opacity:1"/>
<g stroke-linecap="round" stroke-width="1.5" style="fill:none;stroke-linejoin:round">
<path d="m103.368 121.041 97.806-33.68" marker-end="url(#b)" stroke="red" transform="matrix(.26458 0 0 .26458 -142.186 659.163)"/>
<path d="M103.368 121.041 69.681 23.253" marker-end="url(#c)" stroke="green" transform="matrix(.26458 0 0 .26458 -142.186 659.163)"/>
<path d="m103.368 121.041 67.86-78.062" marker-end="url(#d)" stroke="#000" transform="matrix(.26458 0 0 .26458 -142.186 659.163)"/>
</g>
<circle transform="rotate(-19.002) skewX(.006)" cx="-333.778" cy="602.13" style="fill:#00f;stroke-width:.264583" r=".789"/>
<circle transform="rotate(-19.002) skewX(.006)" cx="-309.48" cy="616.135" style="fill:#00f;stroke-width:.264583" r=".789"/>
<path d="M-130.296 680.376c.111.02.526.101.526.466 0 .258-.177.46-.572.46-.425 0-.607-.288-.703-.718-.016-.066-.02-.086-.071-.086-.066 0-.066.035-.066.126v.668c0 .086 0 .122.056.122.025 0 .03-.005.126-.102.01-.01.01-.02.101-.116.223.213.45.218.557.218.582 0 .815-.34.815-.704 0-.268-.152-.42-.213-.48-.167-.163-.364-.203-.577-.244-.283-.055-.622-.121-.622-.415 0-.177.132-.384.567-.384.556 0 .582.455.592.612.005.046.05.046.06.046.066 0 .066-.026.066-.122v-.51c0-.087 0-.122-.055-.122-.026 0-.036 0-.102.06a.66.66 0 0 1-.086.081c-.192-.141-.4-.141-.475-.141-.618 0-.81.339-.81.622a.54.54 0 0 0 .218.43c.162.132.303.162.668.233zM-128.464 679.12l-.709.057v.157c.33 0 .375.03.375.278v1.361c0 .228-.056.228-.395.228v.157c.162-.005.435-.015.557-.015.177 0 .354.01.526.015v-.157c-.334 0-.354-.025-.354-.223zm.02-.88a.264.264 0 0 0-.268-.268.273.273 0 0 0-.269.268.27.27 0 0 0 .269.269.264.264 0 0 0 .268-.269zM-127.403 679.617v1.356c0 .228-.055.228-.394.228v.157c.177-.005.435-.015.571-.015.132 0 .395.01.567.015v-.157c-.339 0-.394 0-.394-.228v-.931c0-.526.359-.81.683-.81.319 0 .374.273.374.562v1.18c0 .227-.055.227-.394.227v.157c.177-.005.435-.015.571-.015.132 0 .395.01.567.015v-.157c-.263 0-.39 0-.394-.152v-.967c0-.435 0-.592-.157-.774-.071-.086-.238-.187-.532-.187-.37 0-.607.217-.749.531v-.531l-.713.055v.157c.354 0 .394.036.394.284zM-121.989 678.827c0-.334-.09-1.037-.607-1.037-.704 0-1.483 1.427-1.483 2.586 0 .476.147 1.037.607 1.037.714 0 1.483-1.452 1.483-2.586zm-1.554.694c.086-.324.188-.73.39-1.089.137-.248.324-.53.552-.53.248 0 .278.323.278.611 0 .248-.04.507-.162 1.008zm1.013.162c-.056.232-.162.663-.355 1.027-.177.344-.37.592-.587.592-.167 0-.273-.147-.273-.617 0-.213.03-.506.162-1.002z" style="fill:#00f;stroke-width:.264583"/>
<g fill="green" stroke-width=".75">
<path d="M-142.053 665.48h.971v-.202h-.769v-5.664h.77v-.202h-.972ZM-138.295 660.517c0-.39-.046-.67-.21-.917a.736.736 0 0 0-.612-.305c-.822 0-.822.967-.822 1.222s0 1.201.822 1.201.822-.946.822-1.2zm-.822 1.102c-.163 0-.38-.096-.45-.386-.05-.21-.05-.5-.05-.762 0-.258 0-.528.053-.722a.453.453 0 0 1 .447-.355c.191 0 .375.117.439.323.057.19.06.446.06.754 0 .262 0 .525-.046.748-.07.322-.312.4-.453.4zM-134.065 660.847c.057 0 .142 0 .142-.085 0-.089-.082-.089-.142-.089h-2.111c-.057 0-.142 0-.142.085 0 .089.081.089.142.089zM-132.363 659.394c0-.096-.007-.1-.106-.1-.227.224-.549.228-.694.228v.127c.085 0 .319 0 .513-.099v1.807c0 .117 0 .163-.354.163h-.134v.127c.063-.003.499-.014.63-.014.11 0 .556.01.634.014v-.127h-.134c-.355 0-.355-.046-.355-.163zM-138.937 662.858c0-.095-.007-.099-.106-.099-.227.223-.549.227-.694.227v.127c.085 0 .319 0 .513-.099v1.807c0 .117 0 .163-.354.163h-.134v.127c.063-.003.5-.014.63-.014.11 0 .556.01.634.014v-.127h-.134c-.355 0-.355-.046-.355-.163zM-131.71 663.981c0-.39-.046-.67-.209-.917a.736.736 0 0 0-.612-.305c-.822 0-.822.967-.822 1.222s0 1.201.822 1.201c.821 0 .821-.946.821-1.2zm-.821 1.102c-.163 0-.38-.096-.45-.386-.05-.21-.05-.5-.05-.762 0-.258 0-.528.053-.723a.453.453 0 0 1 .447-.354c.19 0 .375.117.439.323.057.19.06.446.06.754 0 .262 0 .524-.046.748-.07.322-.312.4-.453.4zM-129.594 665.48v-6.068h-.971v.202h.769v5.664h-.77v.202zM-125.012 661.684a.378.378 0 0 0-.273.35c0 .11.086.232.253.232.177 0 .365-.146.365-.394 0-.269-.269-.446-.577-.446-.289 0-.476.218-.542.309-.127-.213-.41-.309-.698-.309-.638 0-.982.623-.982.79 0 .07.076.07.121.07.061 0 .096 0 .117-.065.146-.46.51-.613.718-.613.193 0 .284.092.284.253 0 .097-.071.375-.117.557l-.172.694c-.076.308-.258.46-.43.46-.025 0-.142 0-.243-.076a.378.378 0 0 0 .273-.349c0-.111-.086-.233-.253-.233-.177 0-.364.147-.364.395 0 .268.268.445.577.445.288 0 .476-.217.541-.308.127.212.41.308.699.308.638 0 .982-.622.982-.79 0-.07-.076-.07-.122-.07-.06 0-.096 0-.116.066-.147.46-.511.612-.719.612-.192 0-.283-.091-.283-.253 0-.106.066-.374.111-.562.036-.131.152-.607.177-.688.076-.304.253-.46.43-.46a.41.41 0 0 1 .243.075z"/>
</g>
</g>
</svg>
