<svg width="90.91" height="103.86" xmlns="http://www.w3.org/2000/svg">
<g fill="none" stroke="#000" stroke-linejoin="round">
<path d="m44.609 37.798 1.556-.65 2.446-.966 2.446-.965 2.064-.814 2.467-.912 2.467-.911 1.755-.649 2.49-.85 2.49-.85 1.282-.437 2.515-.772 2.516-.772.636-.195 2.547-.665 2.351-.613 2.587-.494 1.36-.26 2.63-.158.174-.01 1.476.47 1.005 2.402 1.006 2.4 1.006 2.402 1.006 2.4.899 2.147.124 1.5-1.466 2.159-.032.046-1.948 1.75-1.258 1.13-2.141 1.514-2.141 1.514-.637.45-2.246 1.36-2.245 1.36-2.034 1.23-2.314 1.244-2.313 1.244-2.314 1.243-.954.513-2.365 1.146-2.364 1.145-2.365 1.146-1.802.874-2.408 1.056-2.407 1.055-2.407 1.056-2.198.964-2.447.964-2.446.964-2.447.965-2.057.81-2.486.862-2.485.862-2.486.861-1.364.473-2.527.734-2.527.733-2.528.734-.163.047-2.574.552-2.575.551-1.13.242-2.623.241-1.934.178"/>
<path d="m1 61.733.732.9 2.578.117 2.598-.432 1.855-.308 2.547-.663 2.547-.663 1.13-.294 2.507-.797 2.508-.797L22.51 58l.224-.07 2.475-.89 2.475-.89 2.475-.89 1.455-.523 2.446-.965 2.446-.965 2.446-.965 2.172-.856 2.418-1.031 2.418-1.032 2.418-1.032 2.324-.991L53.09 45.8l2.387-1.098 2.388-1.098 1.924-.884 2.352-1.17 2.352-1.17 2.353-1.17 1.047-.52 2.305-1.258 2.306-1.257 2.128-1.16 2.235-1.376 2.235-1.376.66-.406 2.102-1.565 1.299-.967 1.673-1.85.028-1.15M58.618 80.916l1.094 2.363 1.094 2.364 1.094 2.363.81 1.753.141.094 2.23 1.384 1.626 1.009.383-2.57.31-2.082-.059-.134-1.084-2.368-1.083-2.367-1.084-2.368-.738-1.613M23.86 2.426l-.419.174-.352.151-.27.122-.178.089-.081.052 1.094 2.363 1.094 2.363 1.094 2.363 1.094 2.364 1.093 2.363 1.094 2.363 1.094 2.364 1.094 2.363 1.094 2.363 1.094 2.363 1.094 2.364 1.094 2.363 1.093 2.363 1.094 2.364 1.094 2.363.657 1.42 1.094 2.363.844 1.823.11.02.202-.022.285-.064.36-.103.419-.14.461-.168.487-.191.492-.208.479-.216.446-.214.395-.205.33-.188.253-.163.166-.133.071-.096-.023-.058-1.084-2.368-.803-1.754-1.084-2.368-1.084-2.368-1.083-2.367-1.084-2.368-1.084-2.368-1.084-2.368-1.083-2.368-1.084-2.368-1.084-2.367-1.084-2.368-1.084-2.368-1.084-2.368-1.083-2.367-1.084-2.368-1.084-2.368-.579-1.265-.01-.016-.11.022-.207.06-.295.097-.372.13-.435.156-.482.178-.51.193-.516.2-.504.2-.471.19"/>
<path d="m89.91 39.576-1.664 2.455-1.465 2.16-1.464 2.16-1.464 2.159-1.465 2.16-1.464 2.16-1.464 2.159-1.465 2.16-1.464 2.159-1.464 2.16-1.465 2.159-1.464 2.16-1.464 2.16-1.465 2.159-1.464 2.16-1.464 2.159-1.465 2.16-1.464 2.159-.069.102-.13.192-.217.219-.295.236-.362.245-.414.244-.452.234-.47.214-.472.185-.453.15-.417.109-.365.063-.298.015-.32-.036-.746-.084-2.618-.293-2.617-.294-2.618-.293-2.618-.294-2.618-.294-2.617-.293-2.618-.294-2.618-.293-2.618-.294-2.618-.294-2.617-.293-2.618-.294-2.618-.293-2.618-.294-2.618-.293-2.617-.294-2.618-.293-2.618-.294-.129-.022-2.596-.442-.909-1.255-.239-.473-1.176-2.325-1.175-2.324-1.176-2.325-1.176-2.325L1 61.732l.99-1.578.522-.441 2-1.692 1.648-1.103 2.18-1.459.368-.215 2.265-1.327 2.265-1.327L14.34 52l2.316-1.237 2.316-1.238 1.65-.82 2.353-1.17 2.352-1.17 2.012-.942 2.38-1.113 2.38-1.114 2.196-.97 2.404-1.063 2.404-1.063.522-.218"/>
</g>
<g fill="red" transform="translate(-28.83 -289.668)">
<path d="M109.721 384.022a1.19 1.19 0 0 0-.86 1.1c0 .35.27.733.796.733.558 0 1.148-.462 1.148-1.243 0-.845-.845-1.403-1.817-1.403-.909 0-1.499.685-1.706.972-.398-.67-1.291-.972-2.2-.972-2.008 0-3.092 1.96-3.092 2.487 0 .223.24.223.383.223.19 0 .302 0 .366-.207.462-1.45 1.61-1.93 2.264-1.93.605 0 .892.288.892.798 0 .303-.223 1.18-.366 1.753l-.542 2.184c-.24.972-.813 1.45-1.355 1.45-.08 0-.446 0-.765-.238.574-.16.86-.702.86-1.1 0-.351-.27-.734-.797-.734-.557 0-1.147.463-1.147 1.244 0 .845.845 1.403 1.817 1.403.909 0 1.498-.686 1.706-.973.398.67 1.29.973 2.2.973 2.008 0 3.092-1.961 3.092-2.487 0-.223-.24-.223-.383-.223-.191 0-.303 0-.366.207-.463 1.45-1.61 1.929-2.264 1.929-.606 0-.893-.287-.893-.797 0-.335.208-1.18.351-1.77.112-.414.478-1.913.558-2.168.24-.956.797-1.45 1.355-1.45.08 0 .446 0 .765.239zM117.438 389.246c0-1.227-.145-2.109-.658-2.89-.346-.513-1.038-.96-1.93-.96-2.59 0-2.59 3.047-2.59 3.85 0 .803 0 3.783 2.59 3.783 2.588 0 2.588-2.98 2.588-3.783zm-2.589 3.47c-.513 0-1.194-.301-1.417-1.216-.156-.658-.156-1.573-.156-2.4 0-.814 0-1.662.167-2.275.235-.882.949-1.116 1.406-1.116.603 0 1.183.368 1.384 1.015.178.603.19 1.406.19 2.377 0 .826 0 1.651-.145 2.354-.224 1.016-.982 1.261-1.429 1.261z"/>
<circle cx="95.729" cy="382.129" r="2.592"/>
</g>
</svg>
