<svg width="118.056" height="87.684" xmlns="http://www.w3.org/2000/svg">
<g fill="none" stroke="#000" stroke-linejoin="round">
<path d="m94.383 42.099 1.093-2.363.033-.071-1.672-2.008-1.671-2.009-1.672-2.008-1.671-2.008-1.672-2.008-1.671-2.008-1.672-2.008-1.671-2.008-1.671-2.008-1.672-2.008-1.671-2.008-1.672-2.008-1.671-2.008-1.672-2.008-1.671-2.008-1.672-2.008-1.671-2.009-1.672-2.008-1.67-2.008-.426-.51-2.185 1.451-2.184 1.453-2.185 1.452-2.185 1.452-2.184 1.453-2.184 1.452-2.185 1.452-2.184 1.453-2.185 1.452-2.184 1.452-2.185 1.452-2.184 1.453-2.185 1.452-2.184 1.452-2.185 1.453-1.812 1.205-.326.388"/>
<path d="m63.325 1-1.568 2.087-1.569 2.088-1.568 2.087-1.569 2.087-1.568 2.087-1.569 2.088-1.568 2.087-1.569 2.087-1.568 2.088-1.569 2.087-1.568 2.087-1.569 2.087-.679.904"/>
<path d="m7.41 49.4 2.234-1.377 2.234-1.377 2.234-1.378 2.234-1.377 2.234-1.377 2.234-1.377 2.233-1.377 2.234-1.378 2.234-1.377 2.234-1.377 2.234-1.377 2.234-1.378 2.234-1.377 2.234-1.377 2.234-1.377 2.234-1.377.671-.414 1.702 1.983 1.702 1.983L48.93 32.9l1.702 1.983 1.702 1.983 1.702 1.983 1.702 1.983 1.702 1.983 1.702 1.983 1.702 1.983 1.702 1.983 1.702 1.983 1.702 1.983 1.701 1.983 1.702 1.983 1.702 1.983 1.702 1.983 1.702 1.983 1.702 1.983 1.702 1.983 1.702 1.983 1.666 1.941"/>
<path d="m26.223 26.994-1.68 2.001-1.68 2.001-1.68 2.001-1.68 2.001L17.823 37 16.143 39l-1.68 2.001-1.68 2.001-1.68 2.001-1.681 2.001-1.68 2.001-.332.396 1.742 1.949 1.742 1.949 1.742 1.948 1.742 1.95 1.742 1.948 1.742 1.95 1.742 1.948 1.742 1.949 1.742 1.949 1.742 1.949 1.742 1.949 1.742 1.948 1.742 1.95 1.742 1.948 1.742 1.949 1.742 1.949 1.742 1.949 1.743 1.949 1.97 2.203 2.442-.974 2.442-.974 2.443-.974 2.442-.974 2.443-.974 2.442-.974 2.442-.974 2.443-.974 2.442-.974 2.443-.974 2.442-.974 2.443-.974 2.442-.974 2.443-.974 2.442-.973 2.443-.975 1.415-.564 1.093-2.364 1.094-2.363 1.093-2.364 1.093-2.363 1.093-2.364 1.093-2.364 1.093-2.364 1.093-2.363 1.093-2.364 1.093-2.364.297-.641"/>
<path d="m1.738 19.873 2.527.735 2.527.735 2.527.735 2.527.735 2.527.735 2.527.735 2.527.735 2.527.735 2.527.734 1.742.507 1.895.551.225.007.289-.036.343-.077.383-.117.41-.152.422-.183.414-.204.378-.212.014-.008.353-.225.3-.222.233-.21.158-.19.077-.16-.007-.125-.09-.086-2.543-.683-.193-.052-.864-.232-2.542-.683-2.542-.683-2.542-.683-2.542-.683-2.542-.683-2.542-.683-2.542-.683-2.542-.682-2.542-.683L3 17.549l-.562-.151-.234-.014-.234.036-.226.084-.208.128-.182.169-.15.202-.111.227-.07.244-.023.252.023.25.068.236.11.216.15.187.18.15.208.108zM116.813 50.969l.153-.465.082-.474.008-.467-.067-.44-.137-.398-.205-.34-.264-.269-.313-.187-.35-.098-2.542-.683-2.542-.682-2.542-.683-2.542-.683-2.542-.683-2.542-.683-2.542-.683-2.542-.683-1.002-.27-2.543-.682-2.542-.683-2.542-.683-2.542-.683-2.542-.683L79.129 38l-2.542-.683-2.542-.683-2.542-.683-2.542-.683-2.542-.683-2.542-.683-2.542-.683-2.542-.682-1.568-.422-.245.006-.22.085-.188.16-.148.23-.101.29-.052.341v.378l.054.4.103.407.15.399.19.373.224.335.248.282.263.22.267.147 2.527.735 2.527.735 2.527.734 2.527.736 2.527.735 2.527.734 2.527.735 2.527.735 2.527.735 2.527.735 2.731.794 2.527.735 2.527.735 1.634.475 2.527.735 2.527.735 2.527.735 2.527.735 2.527.735 2.527.735 2.527.735 2.527.735 1.49.434.351.094.373.002.382-.092.375-.18.354-.262.32-.333.275-.393.217-.437z"/>
<path d="m115.72 47.832-.373-.005-.383.089-.377.178-.358.262-.323.336-.277.395-.22.44-.153.47-.081.477-.007.47.068.441.141.398.208.338.266.266.315.184"/>
</g>
<g fill="red" transform="translate(-23.83 -272.042)">
<g stroke-width="1.333">
<path d="M51.838 279.823a1.19 1.19 0 0 0-.86 1.1c0 .35.27.733.796.733.558 0 1.148-.462 1.148-1.243 0-.845-.845-1.403-1.817-1.403-.909 0-1.499.685-1.706.972-.398-.67-1.291-.972-2.2-.972-2.008 0-3.092 1.96-3.092 2.487 0 .223.239.223.382.223.192 0 .303 0 .367-.207.462-1.45 1.61-1.93 2.264-1.93.605 0 .892.288.892.798 0 .303-.223 1.18-.366 1.753l-.542 2.184c-.24.972-.813 1.45-1.355 1.45-.08 0-.447 0-.765-.238.573-.16.86-.702.86-1.1 0-.351-.27-.734-.797-.734-.558 0-1.147.463-1.147 1.244 0 .845.844 1.403 1.817 1.403.908 0 1.498-.686 1.705-.973.399.67 1.292.973 2.2.973 2.009 0 3.093-1.961 3.093-2.487 0-.223-.24-.223-.383-.223-.191 0-.303 0-.367.207-.462 1.45-1.61 1.929-2.263 1.929-.606 0-.893-.287-.893-.797 0-.335.207-1.18.35-1.77.113-.414.48-1.913.559-2.168.239-.956.797-1.45 1.355-1.45.08 0 .446 0 .765.239zM59.556 285.047c0-1.227-.145-2.109-.659-2.89-.346-.513-1.037-.96-1.93-.96-2.589 0-2.589 3.047-2.589 3.85 0 .803 0 3.783 2.589 3.783s2.589-2.98 2.589-3.783zm-2.59 3.47c-.512 0-1.193-.301-1.416-1.216-.156-.658-.156-1.573-.156-2.4 0-.814 0-1.662.167-2.275.234-.882.948-1.116 1.406-1.116.602 0 1.183.368 1.384 1.015.178.603.19 1.406.19 2.377 0 .826 0 1.651-.146 2.354-.223 1.016-.982 1.261-1.428 1.261zM91.562 291.073a1.19 1.19 0 0 0-.86 1.1c0 .35.27.733.796.733.558 0 1.148-.462 1.148-1.243 0-.845-.845-1.403-1.817-1.403-.909 0-1.499.685-1.706.972-.398-.67-1.291-.972-2.2-.972-2.008 0-3.092 1.96-3.092 2.487 0 .223.239.223.382.223.192 0 .303 0 .367-.207.462-1.45 1.61-1.93 2.264-1.93.605 0 .892.288.892.798 0 .303-.223 1.18-.366 1.753l-.542 2.184c-.24.972-.813 1.45-1.355 1.45-.08 0-.447 0-.765-.238.573-.16.86-.702.86-1.1 0-.351-.27-.734-.797-.734-.558 0-1.147.463-1.147 1.244 0 .845.844 1.403 1.817 1.403.908 0 1.498-.686 1.705-.973.399.67 1.292.973 2.2.973 2.009 0 3.093-1.961 3.093-2.487 0-.223-.24-.223-.383-.223-.191 0-.303 0-.367.207-.462 1.45-1.61 1.929-2.263 1.929-.606 0-.893-.287-.893-.797 0-.335.207-1.18.35-1.77.113-.414.48-1.913.559-2.168.239-.956.797-1.45 1.355-1.45.08 0 .446 0 .765.239zM97.26 292.76c0-.301-.022-.312-.335-.312-.714.703-1.73.714-2.187.714v.401c.268 0 1.004 0 1.618-.312v5.69c0 .369 0 .514-1.116.514h-.424v.402c.201-.011 1.574-.045 1.986-.045.346 0 1.752.033 1.998.045v-.402h-.424c-1.116 0-1.116-.145-1.116-.513z"/>
</g>
<circle cx="54.226" cy="298.926" r="2.592"/>
<circle cx="80.154" cy="306.049" r="2.592"/>
</g>
</svg>
