<svg width="89.909" height="102.86" viewBox="0 0 23.788 27.215" xml:space="preserve" xmlns="http://www.w3.org/2000/svg">
<g fill="none" stroke="#000" stroke-linejoin="round">
<path d="m11.67 9.868.412-.172.647-.255.647-.255.546-.216.653-.241.653-.241.464-.172.66-.225.658-.225.34-.115.665-.205.665-.204.169-.051.673-.176.623-.163.684-.13.36-.07.695-.04.047-.004.39.125.266.635.266.636.266.635.267.635.237.568.033.397-.388.571-.008.012-.515.463-.333.3-.567.4-.566.4-.169.12-.594.36-.594.359-.538.326-.612.329-.613.329-.612.329-.252.135-.626.304-.625.303-.626.303-.477.231-.637.28-.637.279-.637.279-.581.255-.648.255-.647.255-.647.255-.545.215-.657.228-.658.228-.657.228-.361.125-.669.194-.669.194-.668.194-.044.013-.68.146-.682.146-.299.064-.694.063-.512.048" stroke-width=".26458"/>
<path d="m.132 16.201.194.238.682.031.687-.114.491-.082.674-.175.674-.175.299-.078.663-.211.664-.21.663-.212.06-.018.654-.236.655-.235.655-.236.385-.138.647-.255.647-.256.648-.255.574-.226.64-.273.64-.273.64-.273.614-.263.632-.29.632-.29.632-.291.509-.234.622-.31.622-.31.623-.309.277-.137.61-.333.61-.333.563-.307.591-.364.592-.364.174-.107.556-.414.344-.256.443-.49.007-.304M15.377 21.277l.29.625.289.625.29.626.214.463.037.025.59.366.43.267.101-.68.082-.55-.015-.036-.287-.626-.287-.627-.286-.626-.196-.427M6.18.51l-.11.046-.093.04-.072.032-.047.023-.021.014.289.625.29.626.289.625.29.625.289.625.29.626.288.625.29.625.29.626.289.625.29.625.289.625.289.626.29.625.289.625.174.376.29.625.222.483.03.005.053-.006.076-.017.095-.027.11-.037.123-.045.128-.05.13-.055.127-.057.118-.057.105-.054.087-.05.067-.043.044-.035.019-.026-.006-.015-.287-.626-.213-.465-.286-.626-.287-.627-.287-.626-.287-.627-.286-.626-.287-.626-.287-.627-.287-.626-.286-.627-.287-.626-.287-.627-.287-.626-.286-.627-.287-.626L7.369.47 7.216.137 7.213.132l-.03.006-.054.016-.078.026-.098.034-.115.041-.128.048-.135.05-.136.054-.134.052-.124.05" stroke-width=".26458"/>
<path d="m23.656 10.339-.44.65-.388.57-.387.572-.387.572-.388.57-.387.572-.388.572-.387.571-.388.571-.387.572-.388.571-.387.572-.387.571-.388.571-.387.572-.388.571-.387.572-.388.571-.018.027-.034.05-.058.059-.078.062-.095.065-.11.065-.12.061-.124.057-.125.05-.12.039-.11.028-.097.017-.079.004-.084-.01-.197-.021-.693-.078-.693-.078-.692-.078-.693-.077-.693-.078-.692-.078-.693-.077-.692-.078-.693-.078-.693-.077-.692-.078-.693-.078-.692-.077-.693-.078-.693-.078-.692-.077-.693-.078-.693-.078-.034-.005-.687-.117-.24-.332-.063-.126-.311-.615-.311-.615-.312-.615-.31-.615-.312-.615.262-.417.138-.117.53-.448.435-.292.577-.386.097-.057.6-.35.599-.352.292-.156.613-.327.613-.328.436-.217.623-.31.622-.31.532-.248.63-.295.63-.294.58-.257.637-.281.636-.281.138-.058" stroke-width=".26458"/>
</g>
<g fill="red" transform="matrix(.26458 0 0 .26458 -7.76 -76.773)">
<path d="M109.721 384.022a1.19 1.19 0 0 0-.86 1.1c0 .35.27.733.796.733.558 0 1.148-.462 1.148-1.243 0-.845-.845-1.403-1.817-1.403-.909 0-1.499.685-1.706.972-.398-.67-1.291-.972-2.2-.972-2.008 0-3.092 1.96-3.092 2.487 0 .223.24.223.383.223.19 0 .302 0 .366-.207.462-1.45 1.61-1.93 2.264-1.93.605 0 .892.288.892.798 0 .303-.223 1.18-.366 1.753l-.542 2.184c-.24.972-.813 1.45-1.355 1.45-.08 0-.446 0-.765-.238.574-.16.86-.702.86-1.1 0-.351-.27-.734-.797-.734-.557 0-1.147.463-1.147 1.244 0 .845.845 1.403 1.817 1.403.909 0 1.498-.686 1.706-.973.398.67 1.29.973 2.2.973 2.008 0 3.092-1.961 3.092-2.487 0-.223-.24-.223-.383-.223-.191 0-.303 0-.366.207-.463 1.45-1.61 1.929-2.264 1.929-.606 0-.893-.287-.893-.797 0-.335.208-1.18.351-1.77.112-.414.478-1.913.558-2.168.24-.956.797-1.45 1.355-1.45.08 0 .446 0 .765.239zM117.438 389.246c0-1.227-.145-2.109-.658-2.89-.346-.513-1.038-.96-1.93-.96-2.59 0-2.59 3.047-2.59 3.85 0 .803 0 3.783 2.59 3.783 2.588 0 2.588-2.98 2.588-3.783zm-2.589 3.47c-.513 0-1.194-.301-1.417-1.216-.156-.658-.156-1.573-.156-2.4 0-.814 0-1.662.167-2.275.235-.882.949-1.116 1.406-1.116.603 0 1.183.368 1.384 1.015.178.603.19 1.406.19 2.377 0 .826 0 1.651-.145 2.354-.224 1.016-.982 1.261-1.429 1.261z"/>
<circle cx="95.729" cy="382.129" r="2.592"/>
</g>
</svg>
