<svg width="117.055" height="86.684" viewBox="0 0 30.971 22.935" xml:space="preserve" xmlns="http://www.w3.org/2000/svg">
<g fill="none" stroke="#000" stroke-linejoin="round">
<path d="m24.84 11.006.289-.625.009-.019-.443-.531-.442-.531-.442-.532-.442-.53-.443-.532-.442-.532-.442-.53-.442-.532-.442-.531-.443-.532-.442-.531-.442-.531-.442-.532-.443-.53-.442-.532-.442-.532-.442-.53-.443-.532-.442-.531-.112-.136-.578.385-.578.384-.578.384-.578.384-.578.385-.578.384-.578.384-.578.384-.578.385-.578.384-.578.384-.578.384-.578.385-.578.384-.578.384-.48.319-.086.103" stroke-width=".26458"/>
<path d="m16.622.132-.415.553-.415.552-.415.552-.415.552-.415.553-.415.552-.414.552-.416.552-.415.553-.414.552-.416.552-.414.552-.18.24" stroke-width=".26458"/>
<path d="m1.828 12.938.591-.364.591-.365.591-.364.591-.364.592-.365.59-.364.592-.365.59-.364.592-.364.59-.365.592-.364.591-.365.591-.364.591-.364.591-.365.591-.364.178-.11.45.525.45.525.45.524.451.525.45.525.45.524.451.525.45.525.45.524.45.525.451.525.45.524.45.525.451.525.45.524.45.525.451.525.45.524.45.525.451.525.45.524.441.514" stroke-width=".26458"/>
<path d="m6.806 7.01-.445.53-.444.529-.445.53-.444.529-.445.53-.444.529-.445.529-.444.53-.445.529-.444.53-.445.529-.088.104.461.516.461.516.461.515.46.516.462.516.46.515.462.516.46.516.461.515.461.516.461.515.461.516.461.516.461.515.46.516.462.516.46.515.462.516.52.583.647-.258.646-.258.647-.257.646-.258.646-.258.646-.257.646-.258.647-.258.646-.257.646-.258.646-.258.647-.258.646-.257.646-.258.646-.258.647-.257.374-.15.29-.625.289-.625.289-.626.289-.625.29-.626.288-.625.29-.625.289-.626.29-.625.288-.625.079-.17" stroke-width=".26458"/>
<path d="m.328 5.126.668.194.669.195.668.194.669.195.669.194.668.195.669.194.668.194.669.195.46.134.502.146.06.002.076-.01.09-.02.102-.031.109-.04.111-.049.11-.054.1-.056.004-.002.093-.06.08-.059.061-.055.042-.05.02-.043-.002-.033-.024-.022-.672-.181-.051-.014-.229-.061-.672-.181-.673-.18-.673-.181-.672-.181-.673-.18-.672-.181-.673-.181-.672-.18-.673-.181-.672-.181-.15-.04-.061-.004-.062.01-.06.022-.055.034-.048.044-.04.054-.03.06-.017.065-.007.066.006.066.018.063.03.057.039.05.048.04.055.028zM30.774 13.353l.04-.123.023-.125.002-.124-.018-.116-.036-.106-.054-.09-.07-.07-.083-.05-.093-.026-.672-.18-.673-.181-.672-.181-.673-.18-.673-.181-.672-.181-.673-.18-.672-.181-.265-.072-.673-.18-.673-.181-.672-.18-.673-.181-.673-.181-.672-.18-.673-.182-.672-.18-.673-.18-.672-.182-.673-.18-.673-.181-.672-.18-.673-.181-.415-.112-.064.002-.059.022-.05.042-.038.061-.027.077-.014.09v.1l.014.106.028.108.04.105.05.1.059.088.065.074.07.058.07.04.67.194.668.194.668.195.67.194.668.195.668.194.669.195.669.194.668.194.669.195.722.21.669.194.668.195.433.126.668.194.669.195.669.194.668.194.669.195.668.194.669.195.669.194.394.115.093.025h.098l.101-.024.1-.047.093-.07.085-.088.073-.104.057-.116z" stroke-width=".26458"/>
<path d="m30.485 12.523-.098-.001-.102.023-.1.048-.094.069-.086.089-.073.104-.058.117-.04.124-.022.126-.002.124.018.117.037.106.055.09.07.07.084.048" stroke-width=".26458"/>
</g>
<g fill="red" transform="matrix(.26458 0 0 .26458 -6.437 -72.11)">
<g stroke-width="1.333">
<path d="M51.838 279.823a1.19 1.19 0 0 0-.86 1.1c0 .35.27.733.796.733.558 0 1.148-.462 1.148-1.243 0-.845-.845-1.403-1.817-1.403-.909 0-1.499.685-1.706.972-.398-.67-1.291-.972-2.2-.972-2.008 0-3.092 1.96-3.092 2.487 0 .223.239.223.382.223.192 0 .303 0 .367-.207.462-1.45 1.61-1.93 2.264-1.93.605 0 .892.288.892.798 0 .303-.223 1.18-.366 1.753l-.542 2.184c-.24.972-.813 1.45-1.355 1.45-.08 0-.447 0-.765-.238.573-.16.86-.702.86-1.1 0-.351-.27-.734-.797-.734-.558 0-1.147.463-1.147 1.244 0 .845.844 1.403 1.817 1.403.908 0 1.498-.686 1.705-.973.399.67 1.292.973 2.2.973 2.009 0 3.093-1.961 3.093-2.487 0-.223-.24-.223-.383-.223-.191 0-.303 0-.367.207-.462 1.45-1.61 1.929-2.263 1.929-.606 0-.893-.287-.893-.797 0-.335.207-1.18.35-1.77.113-.414.48-1.913.559-2.168.239-.956.797-1.45 1.355-1.45.08 0 .446 0 .765.239zM59.556 285.047c0-1.227-.145-2.109-.659-2.89-.346-.513-1.037-.96-1.93-.96-2.589 0-2.589 3.047-2.589 3.85 0 .803 0 3.783 2.589 3.783s2.589-2.98 2.589-3.783zm-2.59 3.47c-.512 0-1.193-.301-1.416-1.216-.156-.658-.156-1.573-.156-2.4 0-.814 0-1.662.167-2.275.234-.882.948-1.116 1.406-1.116.602 0 1.183.368 1.384 1.015.178.603.19 1.406.19 2.377 0 .826 0 1.651-.146 2.354-.223 1.016-.982 1.261-1.428 1.261zM91.562 291.073a1.19 1.19 0 0 0-.86 1.1c0 .35.27.733.796.733.558 0 1.148-.462 1.148-1.243 0-.845-.845-1.403-1.817-1.403-.909 0-1.499.685-1.706.972-.398-.67-1.291-.972-2.2-.972-2.008 0-3.092 1.96-3.092 2.487 0 .223.239.223.382.223.192 0 .303 0 .367-.207.462-1.45 1.61-1.93 2.264-1.93.605 0 .892.288.892.798 0 .303-.223 1.18-.366 1.753l-.542 2.184c-.24.972-.813 1.45-1.355 1.45-.08 0-.447 0-.765-.238.573-.16.86-.702.86-1.1 0-.351-.27-.734-.797-.734-.558 0-1.147.463-1.147 1.244 0 .845.844 1.403 1.817 1.403.908 0 1.498-.686 1.705-.973.399.67 1.292.973 2.2.973 2.009 0 3.093-1.961 3.093-2.487 0-.223-.24-.223-.383-.223-.191 0-.303 0-.367.207-.462 1.45-1.61 1.929-2.263 1.929-.606 0-.893-.287-.893-.797 0-.335.207-1.18.35-1.77.113-.414.48-1.913.559-2.168.239-.956.797-1.45 1.355-1.45.08 0 .446 0 .765.239zM97.26 292.76c0-.301-.022-.312-.335-.312-.714.703-1.73.714-2.187.714v.401c.268 0 1.004 0 1.618-.312v5.69c0 .369 0 .514-1.116.514h-.424v.402c.201-.011 1.574-.045 1.986-.045.346 0 1.752.033 1.998.045v-.402h-.424c-1.116 0-1.116-.145-1.116-.513z"/>
</g>
<circle cx="54.226" cy="298.926" r="2.592"/>
<circle cx="80.154" cy="306.049" r="2.592"/>
</g>
</svg>
