<svg width="141.491" height="68.939" viewBox="0 0 141.491 68.938" xmlns="http://www.w3.org/2000/svg">
<ellipse cx="70.745" cy="34.469" rx="69.745" ry="33.469" color="#000" fill="#ffe8e8" stroke="red"/>
<g fill="red" stroke-width=".768">
<path d="M93.668 27.983c.172-.688.21-.88 1.607-.88.497 0 .65 0 .65-.382 0-.21-.21-.21-.267-.21-.536 0-1.913.057-2.449.057-.554 0-1.913-.058-2.467-.058-.153 0-.364 0-.364.383 0 .21.172.21.536.21.038 0 .402 0 .727.038.344.039.516.058.516.307 0 .076-.019.114-.076.363l-1.148 4.667h-5.834l1.128-4.495c.173-.688.23-.88 1.607-.88.498 0 .65 0 .65-.382 0-.21-.21-.21-.267-.21-.536 0-1.913.057-2.449.057-.554 0-1.912-.058-2.467-.058-.153 0-.364 0-.364.383 0 .21.173.21.536.21.038 0 .402 0 .727.038.344.039.516.058.516.307 0 .076-.019.133-.076.363l-2.563 10.272c-.192.746-.23.899-1.741.899-.344 0-.517 0-.517.382 0 .21.23.21.268.21.536 0 1.894-.057 2.43-.057.401 0 .822.02 1.224.02.42 0 .841.038 1.243.038.153 0 .383 0 .383-.383 0-.21-.172-.21-.536-.21-.708 0-1.243 0-1.243-.344 0-.115.038-.21.057-.326l1.3-5.24h5.835c-.803 3.175-1.243 4.992-1.32 5.279-.191.612-.555.63-1.74.63-.287 0-.46 0-.46.383 0 .21.23.21.268.21.536 0 1.894-.057 2.43-.057.401 0 .822.02 1.224.02.42 0 .841.038 1.243.038.153 0 .383 0 .383-.383 0-.21-.173-.21-.536-.21-.708 0-1.243 0-1.243-.344 0-.115.038-.21.057-.326zM114.693 28.212c.21-.096.363-.191.363-.42a.372.372 0 0 0-.382-.383c-.096 0-.268.076-.344.115l-10.578 4.992c-.326.153-.383.287-.383.44 0 .172.115.306.383.42l10.578 4.974c.248.134.286.134.344.134.21 0 .382-.172.382-.383 0-.172-.076-.286-.401-.44l-10.004-4.705zm-.306 13.983c.325 0 .67 0 .67-.383 0-.382-.402-.382-.69-.382h-10.31c-.286 0-.688 0-.688.382s.344.383.67.383zM130.715 33.453c0-1.53-.096-3.06-.765-4.476-.88-1.836-2.449-2.142-3.252-2.142-1.148 0-2.544.497-3.328 2.276-.612 1.32-.708 2.812-.708 4.342 0 1.435.076 3.156.86 4.61.823 1.55 2.22 1.932 3.157 1.932 1.033 0 2.487-.402 3.328-2.219.612-1.32.708-2.812.708-4.323zm-4.036 6.121c-.746 0-1.875-.478-2.219-2.314-.21-1.148-.21-2.908-.21-4.036 0-1.225 0-2.487.153-3.52.363-2.276 1.798-2.448 2.276-2.448.631 0 1.894.344 2.257 2.238.191 1.07.191 2.525.191 3.73 0 1.434 0 2.735-.21 3.96-.287 1.816-1.377 2.39-2.238 2.39z"/>
</g>
</svg>
