<svg width="174.971" height="116.476" xmlns="http://www.w3.org/2000/svg">
<defs>
<marker id="a" overflow="visible" orient="auto">
<path d="m-4 0-2 2 7-2-7-2z" fill="red" fill-rule="evenodd" stroke="red" stroke-width=".4pt"/>
</marker>
<marker id="b" overflow="visible" orient="auto">
<path d="m-4 0-2 2 7-2-7-2z" fill-rule="evenodd" stroke="#000" stroke-width=".4pt"/>
</marker>
</defs>
<g transform="translate(-9.658 -269.075)">
<ellipse cx="113.883" cy="303.544" rx="69.745" ry="33.469" color="#000" fill="#ffe8e8" stroke="red"/>
<path d="M10.561 273.983v110.58h169.465c-39.325-8.977-116.172-37.757-169.465-110.58z" color="#000" opacity=".15"/>
<g fill="none">
<path d="m53.303 319.959-24.11 28.001" marker-end="url(#a)" stroke="red"/>
<g stroke="#000">
<path d="m47.417 314.601 5.067-5.895 6.162 5.255" color="#000" stroke-width=".465"/>
<path d="m53.337 319.926 16.084-18.75" marker-end="url(#b)"/>
<path d="M180.026 384.563c-39.325-8.977-116.172-37.757-169.465-110.58" color="#000"/>
</g>
</g>
<g stroke-width="1.333">
<path d="M88.2 365.655a.194.194 0 0 0-.21-.191c-.058 0-.077.019-.287.23l-1.339 1.472c-.172-.268-1.052-1.702-3.175-1.702-4.266 0-8.57 4.227-8.57 8.665 0 3.041 2.123 5.241 5.222 5.241.842 0 1.703-.172 2.391-.46.957-.382 1.32-.783 1.664-1.166.173.478.67 1.186.861 1.186.096 0 .134-.057.134-.076.038-.039.23-.766.325-1.167l.364-1.473c.076-.325.172-.65.248-.976.21-.86.23-.899 1.32-.918.096 0 .306-.02.306-.382 0-.134-.095-.21-.248-.21-.44 0-1.569.057-2.009.057-.593 0-2.085-.058-2.678-.058-.172 0-.401 0-.401.383 0 .21.153.21.573.21.02 0 .574 0 1.014.038.497.058.593.115.593.364 0 .172-.21 1.033-.402 1.74-.535 2.105-3.022 2.315-3.691 2.315-1.837 0-3.845-1.09-3.845-4.017 0-.593.191-3.75 2.2-6.236 1.033-1.3 2.888-2.467 4.782-2.467 1.95 0 3.08 1.473 3.08 3.691 0 .766-.058.785-.058.976s.21.191.287.191c.249 0 .249-.038.344-.382zM106.87 367.587c.21-.096.363-.191.363-.42a.372.372 0 0 0-.382-.383c-.096 0-.268.076-.344.114l-10.578 4.993c-.326.153-.383.287-.383.44 0 .172.115.306.383.42l10.578 4.974c.248.134.286.134.344.134.21 0 .382-.172.382-.383 0-.172-.076-.287-.401-.44l-10.004-4.705zm-.306 13.983c.325 0 .67 0 .67-.383 0-.382-.402-.382-.69-.382h-10.31c-.286 0-.688 0-.688.382s.344.383.67.383zM122.894 372.829c0-1.53-.096-3.06-.765-4.476-.88-1.836-2.449-2.142-3.252-2.142-1.148 0-2.544.497-3.328 2.276-.612 1.32-.708 2.812-.708 4.342 0 1.435.076 3.156.86 4.61.823 1.55 2.22 1.932 3.157 1.932 1.033 0 2.487-.402 3.328-2.219.612-1.32.708-2.812.708-4.323zm-4.036 6.121c-.746 0-1.875-.478-2.219-2.314-.21-1.148-.21-2.908-.21-4.037 0-1.224 0-2.486.153-3.52.363-2.275 1.798-2.448 2.276-2.448.631 0 1.894.345 2.257 2.238.191 1.072.191 2.525.191 3.73 0 1.435 0 2.736-.21 3.96-.287 1.817-1.377 2.391-2.238 2.391z"/>
</g>
<g fill="red" stroke-width=".768">
<path d="M136.806 297.058c.172-.689.21-.88 1.607-.88.497 0 .65 0 .65-.382 0-.21-.21-.21-.268-.21-.535 0-1.912.057-2.448.057-.555 0-1.913-.058-2.468-.058-.153 0-.363 0-.363.383 0 .21.172.21.536.21.038 0 .401 0 .726.038.345.038.517.058.517.306 0 .077-.02.115-.077.364l-1.147 4.667h-5.834l1.128-4.495c.172-.689.23-.88 1.607-.88.497 0 .65 0 .65-.382 0-.21-.21-.21-.268-.21-.535 0-1.912.056-2.448.056-.555 0-1.913-.057-2.468-.057-.153 0-.363 0-.363.383 0 .21.172.21.536.21.038 0 .401 0 .727.038.344.038.516.058.516.306 0 .077-.02.134-.077.364l-2.563 10.272c-.191.746-.23.899-1.74.899-.345 0-.517 0-.517.382 0 .21.23.21.268.21.536 0 1.894-.057 2.43-.057.4 0 .822.02 1.223.02.421 0 .842.038 1.244.038.153 0 .382 0 .382-.383 0-.21-.172-.21-.535-.21-.708 0-1.244 0-1.244-.345 0-.114.039-.21.058-.325l1.3-5.241h5.835c-.804 3.175-1.244 4.993-1.32 5.28-.191.612-.555.63-1.74.63-.288 0-.46 0-.46.383 0 .21.23.21.268.21.535 0 1.894-.057 2.43-.057.4 0 .822.02 1.223.02.421 0 .842.038 1.244.038.153 0 .382 0 .382-.383 0-.21-.172-.21-.535-.21-.708 0-1.244 0-1.244-.345 0-.114.039-.21.058-.325zM157.831 297.287c.21-.096.363-.191.363-.42a.372.372 0 0 0-.382-.383c-.096 0-.268.076-.344.114l-10.578 4.993c-.326.153-.383.287-.383.44 0 .172.115.306.383.42l10.578 4.974c.248.134.286.134.344.134.21 0 .382-.172.382-.383 0-.172-.076-.287-.401-.44l-10.004-4.705zm-.306 13.983c.325 0 .67 0 .67-.383 0-.382-.402-.382-.69-.382h-10.31c-.286 0-.688 0-.688.382s.344.383.67.383zM173.853 302.528c0-1.53-.096-3.06-.765-4.476-.88-1.836-2.449-2.142-3.252-2.142-1.148 0-2.544.497-3.328 2.276-.612 1.32-.708 2.812-.708 4.342 0 1.435.076 3.156.86 4.61.823 1.55 2.22 1.932 3.157 1.932 1.033 0 2.487-.402 3.328-2.219.612-1.32.708-2.812.708-4.323zm-4.036 6.121c-.746 0-1.875-.478-2.219-2.314-.21-1.148-.21-2.908-.21-4.037 0-1.224 0-2.486.153-3.52.363-2.275 1.798-2.448 2.276-2.448.631 0 1.894.345 2.257 2.238.191 1.072.191 2.525.191 3.73 0 1.435 0 2.736-.21 3.96-.287 1.817-1.377 2.391-2.238 2.391zM27.382 354.605a.642.642 0 0 0 .096-.268c0-.134-.02-.153-.46-.153H13.82c-.44 0-.459.02-.459.153 0 .077.057.21.096.268l6.446 12.912c.134.248.191.363.516.363.326 0 .383-.115.517-.363zm-11.65.956h10.502l-5.24 10.521zM42.938 355.657c.173-.689.21-.88 1.607-.88.498 0 .65 0 .65-.382 0-.21-.21-.21-.267-.21-.536 0-1.913.057-2.449.057-.554 0-1.913-.058-2.467-.058-.153 0-.364 0-.364.383 0 .21.172.21.536.21.038 0 .402 0 .727.038.344.038.516.058.516.306 0 .077-.019.115-.076.364l-1.148 4.667H34.37l1.129-4.495c.172-.689.23-.88 1.606-.88.498 0 .65 0 .65-.382 0-.21-.21-.21-.267-.21-.536 0-1.913.056-2.449.056-.554 0-1.912-.057-2.467-.057-.153 0-.364 0-.364.383 0 .21.173.21.536.21.038 0 .402 0 .727.038.344.038.516.058.516.306 0 .077-.019.134-.076.364l-2.563 10.272c-.192.746-.23.899-1.741.899-.344 0-.516 0-.516.382 0 .21.23.21.267.21.536 0 1.894-.057 2.43-.057.401 0 .822.02 1.224.02.42 0 .842.038 1.243.038.153 0 .383 0 .383-.383 0-.21-.172-.21-.536-.21-.708 0-1.243 0-1.243-.345 0-.114.038-.21.057-.325l1.301-5.241h5.834c-.803 3.175-1.243 4.993-1.32 5.28-.191.612-.554.63-1.74.63-.287 0-.46 0-.46.383 0 .21.23.21.268.21.536 0 1.894-.057 2.43-.057.401 0 .822.02 1.224.02.42 0 .841.038 1.243.038.153 0 .383 0 .383-.383 0-.21-.172-.21-.536-.21-.708 0-1.243 0-1.243-.345 0-.114.038-.21.057-.325z"/>
</g>
<path d="M82.083 290.12a.642.642 0 0 0 .096-.268c0-.134-.02-.153-.46-.153H68.522c-.44 0-.459.02-.459.153 0 .077.058.21.096.268l6.446 12.912c.134.248.191.363.517.363.325 0 .382-.115.516-.363zm-11.649.956h10.502l-5.241 10.521zM97.58 289.469a.194.194 0 0 0-.21-.191c-.057 0-.076.019-.286.23l-1.34 1.472c-.172-.268-1.051-1.702-3.175-1.702-4.265 0-8.57 4.227-8.57 8.665 0 3.041 2.124 5.241 5.223 5.241.841 0 1.702-.172 2.39-.46.957-.382 1.32-.783 1.665-1.166.172.478.67 1.186.86 1.186.096 0 .135-.057.135-.076.038-.039.23-.766.325-1.167l.363-1.473c.077-.325.172-.65.249-.976.21-.86.23-.899 1.32-.918.096 0 .306-.02.306-.382 0-.134-.096-.21-.249-.21-.44 0-1.568.057-2.008.057-.593 0-2.085-.058-2.678-.058-.172 0-.402 0-.402.383 0 .21.153.21.574.21.02 0 .574 0 1.014.038.497.058.593.115.593.364 0 .172-.21 1.033-.402 1.74-.536 2.105-3.022 2.315-3.692 2.315-1.836 0-3.844-1.09-3.844-4.017 0-.593.19-3.75 2.2-6.236 1.032-1.3 2.888-2.467 4.781-2.467 1.951 0 3.08 1.473 3.08 3.691 0 .766-.057.785-.057.976s.21.191.286.191c.25 0 .25-.038.345-.382z"/>
<g fill="#00f">
<path d="M36.419 322.548a1.429 1.429 0 0 0-1.033 1.32c0 .42.325.88.956.88.67 0 1.378-.555 1.378-1.492 0-1.014-1.014-1.684-2.181-1.684-1.09 0-1.798.823-2.047 1.167-.478-.803-1.55-1.167-2.64-1.167-2.41 0-3.71 2.353-3.71 2.984 0 .268.287.268.459.268.23 0 .363 0 .44-.248.554-1.741 1.932-2.315 2.716-2.315.727 0 1.071.344 1.071.956 0 .364-.268 1.416-.44 2.105l-.65 2.62c-.287 1.167-.976 1.74-1.626 1.74-.096 0-.536 0-.918-.286a1.429 1.429 0 0 0 1.033-1.32c0-.42-.326-.88-.957-.88-.67 0-1.377.555-1.377 1.492 0 1.014 1.014 1.683 2.18 1.683 1.091 0 1.799-.822 2.047-1.166.479.803 1.55 1.166 2.64 1.166 2.41 0 3.711-2.352 3.711-2.984 0-.267-.287-.267-.46-.267-.229 0-.363 0-.44.248-.554 1.741-1.931 2.315-2.715 2.315-.727 0-1.071-.344-1.071-.957 0-.401.248-1.415.42-2.123.134-.497.574-2.295.67-2.601.287-1.148.956-1.74 1.626-1.74.095 0 .535 0 .918.286zM43.981 316.978a.616.616 0 0 0-.375.59c0 .36.255.628.63.628.361 0 .642-.227.642-.656 0-1.191-1.861-1.191-2.236-1.191-2.008 0-3.254 1.54-3.254 3.08 0 1.686 1.433 3.025 3.187 3.025 1.995 0 2.464-1.58 2.464-1.74 0-.16-.174-.16-.228-.16-.174 0-.187.04-.254.227-.295.83-1.004 1.245-1.821 1.245-.924 0-2.13-.683-2.13-2.611 0-1.7.831-2.638 2.076-2.638.174 0 .817 0 1.3.201z"/>
<circle cx="52.957" cy="320.251" r="3.75"/>
</g>
</g>
</svg>
