<svg width="170.98" height="112.363" xmlns="http://www.w3.org/2000/svg">
<path d="M.903.795v110.58h169.465C131.044 102.398 54.196 73.618.903.795z" color="#000" opacity=".15"/>
<path d="M170.368 111.375C131.043 102.398 54.196 73.618.903.795" color="#000" fill="none" stroke="#000"/>
<g stroke-width="1.333">
<path d="M78.543 92.467a.194.194 0 0 0-.21-.191c-.058 0-.077.02-.288.23l-1.339 1.472c-.172-.267-1.052-1.702-3.175-1.702-4.266 0-8.57 4.227-8.57 8.665 0 3.042 2.124 5.241 5.223 5.241.841 0 1.702-.172 2.39-.459.957-.382 1.32-.784 1.665-1.167.172.479.67 1.186.86 1.186.096 0 .135-.057.135-.076.038-.038.23-.765.325-1.167l.363-1.473c.077-.325.172-.65.249-.975.21-.861.23-.9 1.32-.919.095 0 .306-.019.306-.382 0-.134-.096-.21-.249-.21-.44 0-1.568.057-2.008.057-.593 0-2.085-.058-2.678-.058-.173 0-.402 0-.402.383 0 .21.153.21.574.21.019 0 .574 0 1.014.039.497.057.593.114.593.363 0 .172-.21 1.033-.402 1.74-.536 2.105-3.022 2.315-3.692 2.315-1.836 0-3.845-1.09-3.845-4.017 0-.593.192-3.749 2.2-6.236 1.033-1.3 2.888-2.467 4.782-2.467 1.951 0 3.08 1.473 3.08 3.692 0 .765-.058.784-.058.975s.21.192.287.192c.249 0 .249-.039.345-.383zM97.212 94.4c.21-.096.364-.192.364-.422a.372.372 0 0 0-.383-.382c-.095 0-.268.076-.344.115l-10.578 4.992c-.325.153-.383.287-.383.44 0 .172.115.306.383.42l10.578 4.974c.249.134.287.134.344.134.21 0 .383-.172.383-.382 0-.173-.077-.287-.402-.44L87.17 99.143zm-.306 13.982c.326 0 .67 0 .67-.382 0-.383-.402-.383-.689-.383h-10.31c-.287 0-.689 0-.689.383s.345.382.67.382zM113.236 99.641c0-1.53-.096-3.06-.765-4.476-.88-1.836-2.449-2.142-3.252-2.142-1.148 0-2.544.497-3.328 2.276-.612 1.32-.708 2.812-.708 4.342 0 1.435.076 3.156.86 4.61.823 1.55 2.22 1.932 3.157 1.932 1.033 0 2.487-.402 3.328-2.219.612-1.32.708-2.812.708-4.323zm-4.036 6.121c-.746 0-1.875-.478-2.219-2.314-.21-1.148-.21-2.908-.21-4.036 0-1.224 0-2.487.153-3.52.363-2.276 1.798-2.448 2.276-2.448.631 0 1.894.344 2.257 2.238.191 1.07.191 2.525.191 3.73 0 1.434 0 2.735-.21 3.96-.287 1.816-1.377 2.39-2.238 2.39z"/>
</g>
</svg>
