<svg width="140.491" height="67.939" viewBox="0 0 37.172 17.975" xml:space="preserve" xmlns="http://www.w3.org/2000/svg">
<g transform="translate(-90.764 -548.363)">
<ellipse cx="109.35" cy="557.351" rx="18.453" ry="8.855" color="#000" fill="#ffe8e8" stroke="red" stroke-width=".265"/>
<g fill="red" stroke-width=".768">
<path d="M115.415 555.635c.046-.182.056-.233.425-.233.132 0 .172 0 .172-.101 0-.056-.055-.056-.07-.056-.142 0-.507.015-.648.015-.147 0-.506-.015-.653-.015-.04 0-.096 0-.096.101 0 .056.045.056.141.056.01 0 .107 0 .193.01.09.01.136.015.136.081 0 .02-.005.03-.02.096l-.304 1.235h-1.543l.298-1.19c.046-.181.061-.232.426-.232.131 0 .172 0 .172-.101 0-.056-.056-.056-.071-.056-.142 0-.506.015-.648.015-.147 0-.506-.015-.653-.015-.04 0-.096 0-.096.101 0 .056.045.056.142.056.01 0 .106 0 .192.01.091.01.137.015.137.081 0 .02-.005.036-.02.096l-.679 2.718c-.05.198-.06.238-.46.238-.091 0-.137 0-.137.101 0 .056.06.056.07.056.143 0 .502-.015.644-.015.106 0 .217.005.323.005.112 0 .223.01.33.01.04 0 .1 0 .1-.101 0-.056-.045-.056-.141-.056-.187 0-.329 0-.329-.091 0-.03.01-.056.015-.086l.344-1.387h1.544c-.213.84-.329 1.321-.35 1.397-.05.162-.146.167-.46.167-.076 0-.121 0-.121.101 0 .056.06.056.07.056.142 0 .502-.015.643-.015.107 0 .218.005.324.005.112 0 .223.01.33.01.04 0 .1 0 .1-.101 0-.056-.045-.056-.141-.056-.188 0-.33 0-.33-.091 0-.03.01-.056.016-.086zM120.978 555.696c.056-.026.096-.051.096-.112a.098.098 0 0 0-.101-.101c-.025 0-.071.02-.091.03l-2.799 1.321c-.086.04-.101.076-.101.117 0 .045.03.08.101.111l2.799 1.316c.066.035.076.035.09.035a.102.102 0 0 0 .102-.1c0-.046-.02-.077-.106-.117l-2.647-1.245zm-.081 3.7c.086 0 .177 0 .177-.102 0-.101-.106-.101-.182-.101h-2.728c-.076 0-.182 0-.182.1 0 .102.09.102.177.102zM125.217 557.082c0-.405-.025-.81-.202-1.184a.938.938 0 0 0-.86-.567c-.304 0-.674.132-.881.602-.162.35-.188.744-.188 1.15 0 .379.02.834.228 1.219.218.41.587.511.835.511.274 0 .658-.106.88-.587.163-.35.188-.744.188-1.144zm-1.068 1.62c-.197 0-.496-.127-.587-.613-.056-.303-.056-.769-.056-1.068 0-.323 0-.657.04-.93.097-.603.477-.649.603-.649.167 0 .501.092.597.593.051.283.051.668.051.986 0 .38 0 .724-.056 1.048-.076.48-.364.633-.592.633z"/>
</g>
</g>
</svg>
