<svg width="173.971" height="115.476" viewBox="0 0 46.03 30.553" xml:space="preserve" xmlns="http://www.w3.org/2000/svg">
<defs>
<marker id="a" overflow="visible" orient="auto">
<path d="m-4 0-2 2 7-2-7-2Z" fill="red" fill-rule="evenodd" stroke="red" stroke-width=".4pt"/>
</marker>
<marker id="b" overflow="visible" orient="auto">
<path d="m-4 0-2 2 7-2-7-2Z" fill-rule="evenodd" stroke="#000" stroke-width=".4pt"/>
</marker>
</defs>
<g transform="translate(-89.858 -580.278)">
<ellipse cx="117.302" cy="589.266" rx="18.453" ry="8.855" color="#000" fill="#ffe8e8" stroke="red" stroke-width=".265"/>
<path d="M89.965 581.445v29.257h44.837c-10.404-2.375-30.737-9.99-44.837-29.257z" color="#000" opacity=".15" style="stroke-width:.264584"/>
<g fill="none">
<path d="m53.303 319.959-24.11 28.001" marker-end="url(#a)" stroke="red" transform="matrix(.26458 0 0 .26458 87.17 508.953)"/>
<g stroke="#000">
<path d="m99.716 592.191 1.34-1.56 1.631 1.391" color="#000" stroke-width=".12302969999999999"/>
<path d="m53.337 319.926 16.084-18.75" marker-end="url(#b)" transform="matrix(.26458 0 0 .26458 87.17 508.953)"/>
<path d="M134.802 610.702c-10.405-2.375-30.737-9.99-44.838-29.257" color="#000" stroke-width=".26458"/>
</g>
</g>
<g stroke-width="1.333">
<path d="M110.507 605.7c0-.016-.01-.051-.056-.051-.015 0-.02.005-.076.06l-.354.39c-.046-.07-.279-.45-.84-.45-1.129 0-2.268 1.118-2.268 2.293 0 .804.562 1.386 1.382 1.386.223 0 .45-.045.633-.121a1.02 1.02 0 0 0 .44-.309c.045.127.177.314.228.314.025 0 .035-.015.035-.02a2.9 2.9 0 0 0 .086-.31l.096-.389c.02-.086.046-.172.066-.258.056-.228.06-.238.35-.243.025 0 .08-.005.08-.101 0-.036-.025-.056-.066-.056-.116 0-.415.015-.531.015-.157 0-.552-.015-.709-.015-.045 0-.106 0-.106.101 0 .056.04.056.152.056.005 0 .152 0 .268.01.132.015.157.03.157.096 0 .046-.056.274-.106.46-.142.558-.8.613-.977.613-.486 0-1.017-.288-1.017-1.062 0-.157.05-.992.582-1.65.273-.345.764-.653 1.265-.653.516 0 .815.39.815.977 0 .202-.015.207-.015.258 0 .05.055.05.076.05.065 0 .065-.01.09-.101zM115.446 606.21c.056-.025.096-.05.096-.11a.098.098 0 0 0-.1-.102c-.026 0-.072.02-.092.03l-2.799 1.321c-.086.04-.1.076-.1.117 0 .045.03.08.1.111l2.8 1.316c.065.035.075.035.09.035a.102.102 0 0 0 .101-.1c0-.046-.02-.077-.106-.117l-2.647-1.245zm-.08 3.7c.085 0 .176 0 .176-.101s-.106-.101-.182-.101h-2.728c-.076 0-.182 0-.182.101s.091.101.177.101zM119.686 607.598c0-.405-.025-.81-.202-1.185a.938.938 0 0 0-.86-.567c-.305 0-.674.132-.881.603-.162.349-.188.744-.188 1.149 0 .38.02.835.228 1.22.218.41.587.51.835.51.273 0 .658-.106.88-.587.163-.349.188-.744.188-1.143zm-1.068 1.62c-.197 0-.496-.127-.587-.613-.056-.304-.056-.77-.056-1.068 0-.324 0-.658.04-.931.097-.603.477-.648.603-.648.167 0 .501.09.597.592.05.283.05.668.05.987 0 .38 0 .724-.055 1.047-.076.481-.364.633-.592.633z"/>
</g>
<path d="M123.367 587.55c.045-.182.056-.233.425-.233.132 0 .172 0 .172-.101 0-.056-.056-.056-.07-.056-.143 0-.507.015-.649.015-.146 0-.506-.015-.653-.015-.04 0-.096 0-.096.101 0 .056.046.056.142.056.01 0 .106 0 .192.01.091.01.137.015.137.081 0 .02-.005.03-.02.096l-.304 1.235H121.1l.3-1.19c.045-.181.06-.232.424-.232.132 0 .172 0 .172-.101 0-.056-.055-.056-.07-.056-.142 0-.507.015-.648.015-.147 0-.506-.015-.653-.015-.04 0-.096 0-.096.101 0 .056.045.056.141.056.01 0 .107 0 .193.01.09.01.136.015.136.081 0 .02-.005.036-.02.096l-.678 2.718c-.05.198-.06.238-.46.238-.092 0-.137 0-.137.101 0 .056.06.056.07.056.142 0 .502-.015.643-.015.107 0 .218.005.324.005.112 0 .223.01.33.01.04 0 .1 0 .1-.101 0-.056-.045-.056-.141-.056-.188 0-.33 0-.33-.091 0-.03.01-.056.016-.086l.344-1.387h1.544c-.213.84-.33 1.321-.35 1.397-.05.162-.146.167-.46.167-.076 0-.122 0-.122.101 0 .056.061.056.071.056.142 0 .501-.015.643-.015.106 0 .218.005.324.005.111 0 .223.01.329.01.04 0 .101 0 .101-.101 0-.056-.045-.056-.142-.056-.187 0-.329 0-.329-.091 0-.03.01-.056.016-.086zM128.93 587.61c.055-.025.096-.05.096-.11a.098.098 0 0 0-.101-.102c-.026 0-.071.02-.091.03l-2.8 1.321c-.085.04-.1.076-.1.116 0 .046.03.081.1.112l2.8 1.316c.065.035.075.035.09.035a.102.102 0 0 0 .102-.101c0-.046-.02-.076-.106-.117l-2.647-1.245zm-.081 3.7c.086 0 .177 0 .177-.101s-.106-.101-.182-.101h-2.728c-.076 0-.182 0-.182.1 0 .102.09.102.177.102zM133.169 588.997c0-.405-.025-.81-.203-1.184a.938.938 0 0 0-.86-.567c-.304 0-.673.132-.88.602-.163.35-.188.744-.188 1.15 0 .379.02.834.228 1.219.218.41.587.511.835.511.273 0 .658-.106.88-.587.163-.35.188-.744.188-1.144zm-1.068 1.62c-.197 0-.496-.127-.587-.613-.056-.303-.056-.769-.056-1.068 0-.324 0-.658.04-.93.097-.603.476-.649.603-.649.167 0 .501.091.597.592.05.284.05.669.05.987 0 .38 0 .724-.055 1.048-.076.48-.364.633-.592.633zM94.415 602.776a.17.17 0 0 0 .025-.071c0-.035-.005-.04-.121-.04h-3.492c-.117 0-.122.004-.122.04 0 .02.016.056.026.07l1.705 3.417c.036.066.05.096.137.096.086 0 .101-.03.136-.096zm-3.082.253h2.778l-1.386 2.783zM98.531 603.054c.046-.182.056-.233.425-.233.132 0 .172 0 .172-.1 0-.057-.055-.057-.07-.057-.142 0-.507.016-.648.016-.147 0-.507-.016-.653-.016-.04 0-.097 0-.097.102 0 .055.046.055.142.055.01 0 .106 0 .192.01.092.01.137.016.137.081 0 .02-.005.03-.02.097l-.304 1.235h-1.543l.298-1.19c.046-.182.061-.233.425-.233.132 0 .172 0 .172-.1 0-.057-.055-.057-.07-.057-.142 0-.507.016-.648.016-.147 0-.506-.016-.653-.016-.04 0-.096 0-.096.102 0 .055.045.055.141.055.01 0 .107 0 .193.01.09.01.136.016.136.081 0 .02-.005.036-.02.097l-.678 2.717c-.05.198-.06.238-.46.238-.092 0-.137 0-.137.102 0 .055.06.055.07.055.142 0 .502-.015.643-.015.107 0 .218.005.324.005.112 0 .223.01.33.01.04 0 .1 0 .1-.101 0-.056-.045-.056-.141-.056-.187 0-.33 0-.33-.09 0-.031.01-.057.016-.087l.344-1.387h1.544c-.213.84-.33 1.321-.35 1.397-.05.162-.146.167-.46.167-.076 0-.121 0-.121.102 0 .055.06.055.07.055.142 0 .502-.015.643-.015.106 0 .218.005.324.005.111 0 .223.01.33.01.04 0 .1 0 .1-.101 0-.056-.045-.056-.141-.056-.188 0-.33 0-.33-.09 0-.031.01-.057.016-.087z" style="fill:red;stroke-width:.2032"/>
<path d="M108.888 585.714a.17.17 0 0 0 .025-.07c0-.036-.005-.041-.121-.041H105.3c-.117 0-.122.005-.122.04 0 .02.016.056.026.071l1.705 3.416c.036.066.05.097.137.097.086 0 .101-.03.137-.097zm-3.082.253h2.778l-1.386 2.784zM112.989 585.542c0-.015-.01-.05-.056-.05-.015 0-.02.004-.076.06l-.354.39c-.046-.071-.279-.45-.84-.45-1.13 0-2.268 1.118-2.268 2.292 0 .805.562 1.387 1.382 1.387.223 0 .45-.046.632-.122a1.02 1.02 0 0 0 .44-.309c.046.127.178.314.229.314.025 0 .035-.015.035-.02.01-.01.06-.202.086-.309l.096-.39c.02-.085.046-.171.066-.258.056-.227.06-.237.35-.242.024 0 .08-.005.08-.102 0-.035-.025-.055-.066-.055-.116 0-.415.015-.531.015-.157 0-.552-.015-.709-.015-.045 0-.106 0-.106.1 0 .057.04.057.152.057.005 0 .152 0 .268.01.132.015.157.03.157.096 0 .045-.056.273-.106.46-.142.557-.8.613-.977.613-.486 0-1.017-.289-1.017-1.063 0-.157.05-.992.582-1.65.273-.344.764-.653 1.265-.653.516 0 .815.39.815.977 0 .202-.015.207-.015.258 0 .05.055.05.076.05.065 0 .065-.01.09-.1z"/>
<g fill="#00f" transform="matrix(.26458 0 0 .26458 87.17 508.953)">
<path d="M36.419 322.548a1.429 1.429 0 0 0-1.033 1.32c0 .42.325.88.956.88.67 0 1.378-.555 1.378-1.492 0-1.014-1.014-1.684-2.181-1.684-1.09 0-1.798.823-2.047 1.167-.478-.803-1.55-1.167-2.64-1.167-2.41 0-3.71 2.353-3.71 2.984 0 .268.287.268.459.268.23 0 .363 0 .44-.248.554-1.741 1.932-2.315 2.716-2.315.727 0 1.071.344 1.071.956 0 .364-.268 1.416-.44 2.105l-.65 2.62c-.287 1.167-.976 1.74-1.626 1.74-.096 0-.536 0-.918-.286a1.429 1.429 0 0 0 1.033-1.32c0-.42-.326-.88-.957-.88-.67 0-1.377.555-1.377 1.492 0 1.014 1.014 1.683 2.18 1.683 1.091 0 1.799-.822 2.047-1.166.479.803 1.55 1.166 2.64 1.166 2.41 0 3.711-2.352 3.711-2.984 0-.267-.287-.267-.46-.267-.229 0-.363 0-.44.248-.554 1.741-1.931 2.315-2.715 2.315-.727 0-1.071-.344-1.071-.957 0-.401.248-1.415.42-2.123.134-.497.574-2.295.67-2.601.287-1.148.956-1.74 1.626-1.74.095 0 .535 0 .918.286zM43.981 316.978a.616.616 0 0 0-.375.59c0 .36.255.628.63.628.361 0 .642-.227.642-.656 0-1.191-1.861-1.191-2.236-1.191-2.008 0-3.254 1.54-3.254 3.08 0 1.686 1.433 3.025 3.187 3.025 1.995 0 2.464-1.58 2.464-1.74 0-.16-.174-.16-.228-.16-.174 0-.187.04-.254.227-.295.83-1.004 1.245-1.821 1.245-.924 0-2.13-.683-2.13-2.611 0-1.7.831-2.638 2.076-2.638.174 0 .817 0 1.3.201z"/>
<circle cx="52.957" cy="320.251" r="3.75"/>
</g>
</g>
</svg>
