<svg width="169.98" height="111.363" viewBox="0 0 44.974 29.465" xml:space="preserve" xmlns="http://www.w3.org/2000/svg">
<path d="M92.3 626.171v29.258h44.837c-10.405-2.375-30.737-9.99-44.838-29.258z" color="#000" opacity=".15" style="stroke-width:.264584" transform="translate(-92.192 -626.093)"/>
<path d="M137.137 655.429c-10.405-2.375-30.737-9.99-44.838-29.258" color="#000" fill="none" stroke="#000" style="stroke-width:.264584" transform="translate(-92.192 -626.093)"/>
<g stroke-width="1.333">
<path d="M20.649 24.333c0-.015-.01-.05-.056-.05-.015 0-.02.005-.076.06l-.354.39c-.045-.07-.278-.45-.84-.45-1.129 0-2.267 1.118-2.267 2.292 0 .805.561 1.387 1.381 1.387.223 0 .45-.046.633-.122a1.02 1.02 0 0 0 .44-.308c.046.126.177.313.228.313.025 0 .035-.015.035-.02a2.9 2.9 0 0 0 .086-.308l.097-.39c.02-.086.045-.172.065-.258.056-.228.061-.238.35-.243.025 0 .08-.005.08-.101 0-.036-.025-.056-.065-.056-.117 0-.415.015-.532.015-.156 0-.551-.015-.708-.015-.046 0-.106 0-.106.101 0 .056.04.056.151.056.005 0 .152 0 .269.01.131.015.157.03.157.096 0 .046-.056.273-.107.46-.141.557-.8.613-.977.613-.485 0-1.017-.288-1.017-1.063 0-.157.05-.992.582-1.65.274-.344.764-.653 1.265-.653.517 0 .815.39.815.977 0 .203-.015.208-.015.258 0 .05.056.05.076.05.066 0 .066-.01.091-.1zM25.589 24.844c.055-.025.096-.05.096-.111a.098.098 0 0 0-.101-.101c-.026 0-.071.02-.091.03l-2.8 1.321c-.085.04-.1.076-.1.116 0 .046.03.081.1.112l2.8 1.316c.065.035.075.035.09.035a.102.102 0 0 0 .102-.101c0-.046-.02-.076-.106-.117L22.932 26.1zm-.081 3.7c.086 0 .177 0 .177-.101 0-.102-.106-.102-.182-.102h-2.728c-.076 0-.182 0-.182.102 0 .1.09.1.177.1zM29.828 26.231c0-.405-.025-.81-.202-1.184a.938.938 0 0 0-.86-.567c-.304 0-.674.132-.881.602-.162.35-.187.744-.187 1.15 0 .379.02.834.227 1.219.218.41.587.511.835.511.274 0 .658-.106.881-.587.162-.35.187-.744.187-1.144zm-1.068 1.62c-.197 0-.496-.127-.587-.613-.055-.303-.055-.769-.055-1.067 0-.324 0-.658.04-.932.096-.602.476-.648.602-.648.167 0 .501.092.598.593.05.283.05.668.05.987 0 .38 0 .723-.055 1.047-.076.48-.365.633-.593.633z"/>
</g>
</svg>
