<svg width="176.731" height="93.217" xmlns="http://www.w3.org/2000/svg">
<g transform="translate(62.651 -206.418)">
<path d="M-18.44 214.077c48.82-26.456 42.1 35.977 109.472 13.278l21.91 65.221c-90.436 27.546-113.633-50.584-174.655 0z" color="#000" fill="#ebeaff" stroke="#00f" style="isolation:auto;mix-blend-mode:normal"/>
<path d="m11.188 242.279 16.677 9.22-.992 15.044-19.859-9.96z" color="#000" fill="none" stroke="red" style="isolation:auto;mix-blend-mode:normal"/>
<g stroke-linejoin="round" stroke-miterlimit="100000" stroke-width="1.5">
<path d="M-5.758 217.283a.181.181 0 0 0-.198-.18c-.09 0-.107.019-.323.27l-.86 1.022c-.467-.843-1.4-1.291-2.565-1.291-2.277 0-4.43 2.062-4.43 4.232 0 1.452.951 2.277 1.866 2.546l1.919.502c.663.162 1.65.43 1.65 1.901 0 1.614-1.47 3.3-3.228 3.3-1.148 0-3.139-.395-3.139-2.618 0-.43.09-.861.108-.969.018-.071.036-.09.036-.125 0-.18-.126-.197-.215-.197-.09 0-.126.018-.18.071-.071.072-1.076 4.16-1.076 4.214 0 .108.09.18.198.18.09 0 .107-.018.322-.27l.88-1.021c.77 1.04 1.99 1.29 3.03 1.29 2.439 0 4.555-2.384 4.555-4.608 0-1.237-.61-1.847-.879-2.098-.412-.413-.681-.484-2.277-.897-.395-.107-1.04-.287-1.202-.323-.484-.16-1.094-.681-1.094-1.631 0-1.453 1.435-2.977 3.138-2.977 1.489 0 2.583.77 2.583 2.78 0 .573-.072.896-.072 1.004 0 .018 0 .179.215.179.18 0 .197-.054.27-.359z" fill="#00f"/>
<path d="M-1.242 258.736a1.34 1.34 0 0 0-.968 1.237c0 .395.305.825.897.825.627 0 1.29-.52 1.29-1.398 0-.95-.95-1.579-2.043-1.579-1.023 0-1.686.772-1.92 1.094-.448-.753-1.452-1.094-2.474-1.094-2.26 0-3.479 2.206-3.479 2.798 0 .251.269.251.43.251.216 0 .341 0 .413-.233.52-1.632 1.811-2.17 2.546-2.17.682 0 1.005.323 1.005.897 0 .34-.252 1.327-.413 1.972l-.61 2.457c-.269 1.094-.914 1.632-1.524 1.632-.09 0-.502 0-.86-.27a1.34 1.34 0 0 0 .968-1.236c0-.395-.305-.825-.897-.825-.628 0-1.291.52-1.291 1.398 0 .95.95 1.578 2.044 1.578 1.022 0 1.686-.77 1.919-1.093.448.753 1.453 1.093 2.475 1.093 2.26 0 3.479-2.205 3.479-2.797 0-.251-.27-.251-.43-.251-.216 0-.341 0-.413.233-.52 1.632-1.811 2.17-2.547 2.17-.681 0-1.004-.323-1.004-.897 0-.376.233-1.327.395-1.99.125-.467.538-2.152.627-2.44.27-1.075.897-1.631 1.525-1.631.09 0 .502 0 .86.269zM5.03 260.771a.48.48 0 0 0-.501-.477c-.34 0-.703.326-.703.69 0 .214.163.477.502.477.364 0 .703-.351.703-.69zm-2.56 6.377c-.05.163-.113.314-.113.527 0 .59.502 1.067 1.192 1.067 1.256 0 1.808-1.732 1.808-1.92 0-.164-.163-.164-.2-.164-.177 0-.19.076-.24.214-.288 1.004-.84 1.519-1.33 1.519-.251 0-.314-.164-.314-.44 0-.288.088-.527.201-.803.126-.339.264-.678.402-1.004.113-.302.565-1.444.615-1.595a1.51 1.51 0 0 0 .075-.401c0-.59-.502-1.067-1.192-1.067-1.243 0-1.82 1.707-1.82 1.92 0 .164.175.164.213.164.176 0 .188-.063.226-.201.326-1.08.878-1.532 1.343-1.532.2 0 .314.1.314.44 0 .288-.076.477-.39 1.255z"/>
</g>
<g fill="red" stroke-linejoin="round" stroke-miterlimit="100000" stroke-width="1.5">
<path d="M40.38 245.927c-2.24.538-3.98 2.87-3.98 5.04 0 1.72 1.147 3.012 2.833 3.012 2.098 0 3.587-2.816 3.587-5.29 0-1.632-.718-2.529-1.327-3.336-.646-.807-1.704-2.152-1.704-2.94 0-.395.359-.826.986-.826.538 0 .897.233 1.274.484.358.216.717.449.986.449.448 0 .717-.43.717-.718 0-.394-.287-.448-.932-.591-.933-.198-1.184-.198-1.47-.198-1.4 0-2.045.772-2.045 1.848 0 .968.52 1.972 1.076 3.066zm.216.395c.448.824.986 1.793.986 3.084 0 1.184-.681 4.178-2.349 4.178-.986 0-1.721-.753-1.721-2.116 0-1.13.663-4.5 3.084-5.146zM51.277 247.056c-.502.018-.86.412-.86.807 0 .251.16.52.555.52s.825-.305.825-1.004c0-.807-.77-1.542-2.134-1.542-2.367 0-3.03 1.829-3.03 2.618 0 1.398 1.327 1.667 1.847 1.775.932.18 1.865.377 1.865 1.363 0 .466-.413 1.973-2.565 1.973-.25 0-1.632 0-2.044-.95a.98.98 0 0 0 1.13-.951c0-.413-.287-.628-.664-.628-.466 0-1.004.377-1.004 1.184 0 1.022 1.022 1.74 2.564 1.74 2.905 0 3.605-2.17 3.605-2.978 0-.645-.34-1.094-.556-1.309-.484-.502-1.004-.592-1.793-.753-.646-.143-1.363-.269-1.363-1.076 0-.52.43-1.614 2.008-1.614.449 0 1.345.126 1.614.825zM56.707 248.608a.48.48 0 0 0-.502-.477c-.339 0-.703.326-.703.69 0 .214.163.477.502.477.364 0 .703-.351.703-.69zm-2.56 6.377c-.05.163-.114.314-.114.527 0 .59.503 1.067 1.193 1.067 1.255 0 1.808-1.732 1.808-1.92 0-.164-.164-.164-.201-.164-.176 0-.189.076-.239.214-.288 1.004-.84 1.519-1.33 1.519-.251 0-.314-.164-.314-.44 0-.288.088-.527.2-.803.126-.339.264-.678.402-1.004.113-.302.565-1.444.615-1.595a1.51 1.51 0 0 0 .076-.401c0-.59-.502-1.067-1.193-1.067-1.243 0-1.82 1.707-1.82 1.92 0 .164.176.164.213.164.176 0 .189-.063.226-.201.327-1.08.88-1.532 1.344-1.532.2 0 .313.1.313.44 0 .288-.075.477-.389 1.255z"/>
</g>
<circle cx="7.014" cy="256.582" r="1.5"/>
</g>
</svg>
