<svg width="212.159" height="109.315" xmlns="http://www.w3.org/2000/svg">
<path d="M-13.502 280.64c68.673-58.542 137.346 38.572 206.02 0" color="#000" fill="none" stroke="#00f" stroke-width="2" style="isolation:auto;mix-blend-mode:normal" transform="translate(14.65 -252.655)"/>
<path d="M42.018 330.866c-5.206-.082-10.42.323-15.637 1.31v2.018c5.197-1.008 10.397-1.41 15.606-1.328 5.61.088 11.234.746 16.867 1.795v-2.041c-5.602-1.025-11.213-1.666-16.836-1.754zm-17.637 1.727c-11.524 2.521-23.056 8.002-34.531 17.785l1.297 1.523c11.112-9.473 22.17-14.79 33.234-17.275zm36.473.41v2.04c9.245 1.873 18.518 4.778 27.814 7.985v-2.119c-9.247-3.178-18.517-6.054-27.814-7.906zm29.814 8.601v2.12c.835.291 1.67.575 2.506.87 7.152 2.529 14.316 5.158 21.494 7.583v-2.114c-6.93-2.352-13.873-4.896-20.828-7.355-1.057-.374-2.114-.736-3.172-1.104zm105.36 8.664a72.856 72.856 0 0 1-10.86 4.979v2.117a74.371 74.371 0 0 0 11.84-5.353zm-79.36.463v2.114c8.313 2.756 16.644 5.192 25 6.763v-2.037c-8.311-1.59-16.646-4.053-25-6.84zm66.5 5.225c-4.833 1.59-9.665 2.577-14.5 3.092v1.998a72.248 72.248 0 0 0 14.5-3.008zm-39.5 1.972v2.032c.395.067.79.143 1.185.207 7.253 1.168 14.529 1.626 21.815 1.062v-1.994c-7.151.565-14.312.114-21.496-1.043-.501-.08-1.003-.176-1.504-.264z" color="#000" fill="#00f" style="font-feature-settings:normal;font-variant-alternates:normal;font-variant-caps:normal;font-variant-ligatures:normal;font-variant-numeric:normal;font-variant-position:normal;isolation:auto;mix-blend-mode:normal;shape-padding:0;text-decoration-color:#000;text-decoration-line:none;text-decoration-style:solid;text-indent:0;text-orientation:mixed;text-transform:none;white-space:normal" transform="translate(14.65 -252.655)"/>
<g stroke-linejoin="round" stroke-miterlimit="100000" stroke-width="1.333">
<path d="M113.806 82.925c.16-.531-.146-1.103-.677-1.264s-1.103.147-1.263.678a1.02 1.02 0 0 0 .677 1.263 1.02 1.02 0 0 0 1.264-.677zM121.924 85.378a1.02 1.02 0 0 0-.677-1.264c-.531-.16-1.104.147-1.264.678s.146 1.103.677 1.263a1.02 1.02 0 0 0 1.264-.677zM130.043 87.831c.16-.531-.146-1.103-.677-1.264s-1.104.147-1.264.678.146 1.103.677 1.263 1.103-.146 1.264-.677zM6.837 7.826c-.057.287-.172.727-.172.823 0 .344.268.516.555.516.23 0 .574-.153.708-.536.019-.038.248-.937.363-1.415l.42-1.722c.116-.42.23-.841.326-1.281.077-.325.23-.88.249-.957.287-.593 1.3-2.333 3.118-2.333.86 0 1.033.707 1.033 1.339 0 .478-.134 1.013-.287 1.587l-.536 2.22-.383 1.453c-.076.383-.248 1.033-.248 1.129 0 .344.268.516.554.516.593 0 .708-.478.861-1.09.268-1.072.976-3.864 1.148-4.61.057-.249 1.071-2.544 3.156-2.544.823 0 1.033.65 1.033 1.339 0 1.09-.803 3.27-1.186 4.284-.172.46-.249.67-.249 1.052 0 .9.67 1.569 1.569 1.569 1.798 0 2.506-2.793 2.506-2.946 0-.191-.172-.191-.23-.191-.191 0-.191.057-.287.344-.287 1.014-.899 2.372-1.95 2.372-.326 0-.46-.191-.46-.631 0-.478.172-.937.344-1.358.364-.995 1.167-3.118 1.167-4.208 0-1.244-.765-2.047-2.2-2.047s-2.41.842-3.117 1.855c-.02-.248-.077-.899-.612-1.358C13.55.596 12.94.5 12.46.5c-1.722 0-2.659 1.224-2.984 1.664C9.381 1.074 8.578.5 7.717.5c-.88 0-1.243.746-1.415 1.09-.345.67-.593 1.798-.593 1.856 0 .19.191.19.23.19.19 0 .21-.018.324-.439C6.59 1.839 6.971.921 7.66.921c.306 0 .593.153.593.88 0 .401-.058.612-.306 1.606zM6.47 81.365c-1.493 1.403-1.808 3.97-.852 5.644.758 1.33 2.213 1.82 3.515 1.078 1.62-.925 1.528-3.754.437-5.665-.719-1.26-1.667-1.636-2.494-1.99-.854-.338-2.263-.91-2.61-1.52-.175-.304-.087-.795.397-1.071.415-.237.795-.215 1.196-.187.372.008.752.03.96-.089.346-.197.364-.648.237-.87-.174-.304-.419-.22-.98-.046-.807.259-1.001.37-1.223.496-1.08.616-1.238 1.496-.764 2.327.427.747 1.27 1.293 2.182 1.893zm.34.21c.71.439 1.552.95 2.121 1.946.522.914 1.315 3.526.028 4.261-.762.435-1.661.177-2.262-.875-.497-.872-1.47-3.767.114-5.332zM13.676 84.19c.077.231.176.597.215.666.142.25.407.264.615.145a.651.651 0 0 0 .291-.68 33.576 33.576 0 0 0-.322-1.175l-.406-1.42c-.091-.351-.182-.703-.294-1.061-.08-.267-.198-.732-.215-.795-.038-.548-.023-2.226 1.292-2.977.623-.356 1.04.085 1.3.542.198.346.323.79.449 1.268l.529 1.827.324 1.21c.102.309.246.85.286.92.142.249.407.263.615.144.429-.245.314-.638.172-1.144-.248-.886-.89-3.2-1.073-3.81-.062-.204-.276-2.284 1.233-3.146.595-.34 1.016.044 1.3.543.451.789.77 2.699.912 3.59.065.404.097.588.255.865.371.65 1.132.858 1.783.487 1.301-.743.66-3.056.597-3.167-.08-.139-.204-.067-.245-.044-.139.08-.115.12-.066.368.211.852.33 2.088-.432 2.523-.236.134-.411.05-.593-.268-.198-.346-.263-.749-.312-1.125-.148-.87-.443-2.738-.894-3.527-.513-.9-1.4-1.166-2.437-.573s-1.397 1.605-1.49 2.63c-.117-.171-.427-.618-1.004-.73-.513-.092-.995.091-1.341.289-1.246.71-1.419 1.984-1.472 2.437-.52-.75-1.338-.833-1.961-.478-.637.364-.592 1.054-.575 1.374.028.627.314 1.546.338 1.588.079.138.217.06.245.044.138-.08.144-.101.054-.453-.326-1.117-.429-1.94.07-2.224.221-.127.492-.135.792.391.166.291.212.467.443 1.29zM25.947 72.851c-.15-.262-.174-.26-.446-.105-.271.964-1.148 1.477-1.545 1.704l.199.349c.233-.133.872-.498 1.25-1.074l2.821 4.943c.183.32.255.445-.714.999l-.369.21.2.349a84.51 84.51 0 0 1 1.702-1.024c.3-.171 1.538-.839 1.757-.95l-.2-.35-.367.21c-.97.553-1.041.428-1.224.108zM46.31 66.948c-1.973.551-3.442 2.679-3.371 4.606.056 1.53 1.118 2.639 2.615 2.584 1.864-.069 3.094-2.618 3.013-4.817-.053-1.45-.72-2.222-1.288-2.92-.6-.695-1.584-1.855-1.61-2.556-.012-.35.292-.744.85-.765.478-.017.804.178 1.147.389.325.18.651.374.89.366.399-.015.623-.406.614-.661-.013-.35-.27-.389-.848-.495-.834-.145-1.057-.137-1.312-.127-1.243.045-1.791.751-1.756 1.707.032.86.527 1.735 1.056 2.689zm.204.343c.425.719.935 1.561.977 2.708.039 1.051-.469 3.734-1.95 3.788-.876.033-1.554-.612-1.598-1.823-.037-1.004.442-4.02 2.571-4.673zM51.384 72.791c-.039.24-.12.61-.118.69.01.287.24.422.478.413a.651.651 0 0 0 .573-.467c.015-.033.178-.789.26-1.19l.297-1.447c.083-.354.165-.708.231-1.077.054-.273.165-.74.178-.804.221-.503 1.012-1.983 2.525-2.04.717-.025.882.559.901 1.084.015.399-.08.849-.19 1.331l-.378 1.864-.274 1.223c-.052.32-.175.868-.172.947.01.287.238.422.477.413.494-.018.575-.42.684-.934.19-.9.694-3.248.814-3.874.04-.209.814-2.152 2.55-2.215.686-.026.88.51.902 1.083.033.908-.569 2.748-.856 3.604-.13.388-.187.566-.175.884.027.749.605 1.286 1.354 1.258 1.497-.055 2.001-2.402 1.997-2.53-.006-.159-.15-.154-.197-.152-.16.006-.158.054-.229.296-.208.853-.676 2.002-1.552 2.035-.27.01-.388-.145-.402-.512-.014-.398.115-.786.245-1.141.273-.84.877-2.633.843-3.54-.038-1.036-.7-1.682-1.894-1.638-1.195.044-1.982.775-2.54 1.641-.024-.206-.091-.746-.551-1.112-.41-.32-.924-.381-1.322-.366-1.434.053-2.177 1.1-2.434 1.477-.113-.905-.8-1.358-1.516-1.332-.733.027-1.013.66-1.146.951-.266.569-.438 1.516-.437 1.564.006.159.165.153.197.152.16-.006.175-.022.258-.376.229-1.141.52-1.918 1.093-1.939.255-.009.498.11.52.715.013.334-.028.511-.205 1.347zM69.596 73.423l-.38.014c-.024.247-.11.909-.252 1.025-.086.07-.945.102-1.101.108l-2.052.075c1.133-1.08 1.512-1.406 2.161-1.955.801-.688 1.545-1.408 1.506-2.467-.05-1.35-1.262-2.131-2.689-2.079-1.383.051-2.284 1.056-2.246 2.082.021.568.503.607.614.602.268-.01.584-.21.57-.612-.008-.201-.1-.588-.68-.567.316-.804 1.065-1.078 1.59-1.097 1.115-.041 1.726.807 1.76 1.71.035.97-.628 1.765-.97 2.18l-2.59 2.753c-.107.104-.106.127-.095.439l4.594-.17zM82.618 70.172c-2.045.123-3.929 1.894-4.265 3.794-.267 1.506.537 2.814 2.013 3.076 1.836.325 3.575-1.909 3.959-4.075.253-1.428-.236-2.324-.645-3.125-.44-.806-1.157-2.148-1.035-2.838.061-.345.442-.667.991-.57.471.084.749.344 1.04.622.28.244.558.503.793.545.393.07.695-.265.74-.517.06-.345-.182-.436-.725-.662-.786-.317-1.006-.356-1.257-.4-1.224-.217-1.909.357-2.075 1.3-.15.847.15 1.806.466 2.85zm.127.379c.265.791.586 1.722.386 2.852-.184 1.036-1.244 3.552-2.704 3.293-.863-.153-1.39-.926-1.179-2.119.175-.988 1.278-3.836 3.497-4.026zM86.35 76.952c-.09.227-.248.571-.262.65-.05.282.145.463.38.504a.651.651 0 0 0 .66-.336c.02-.029.34-.733.503-1.109l.595-1.352c.156-.328.311-.657.453-1.004.11-.256.317-.689.343-.749.322-.444 1.407-1.726 2.898-1.462.706.126.745.731.653 1.25-.07.392-.257.812-.466 1.26l-.762 1.743-.525 1.138c-.119.302-.354.811-.368.89-.05.282.145.462.38.504.487.086.65-.29.865-.77.375-.84 1.362-3.029 1.611-3.616.083-.195 1.249-1.932 2.96-1.629.675.12.753.684.653 1.25-.159.894-1.135 2.566-1.596 3.343-.208.351-.301.513-.357.827-.13.738.322 1.384 1.06 1.515 1.475.261 2.461-1.928 2.484-2.053.027-.157-.114-.182-.161-.19-.157-.028-.165.019-.285.24-.383.79-1.083 1.816-1.946 1.663-.267-.047-.349-.224-.285-.585.07-.392.277-.744.48-1.064.443-.763 1.41-2.389 1.569-3.284.18-1.02-.33-1.79-1.508-1.999-1.177-.208-2.1.34-2.828 1.07.02-.207.068-.749-.305-1.203-.334-.4-.822-.567-1.215-.636-1.412-.25-2.36.618-2.69.932.08-.91-.496-1.497-1.202-1.622-.722-.128-1.13.432-1.32.69-.38.499-.748 1.389-.757 1.436-.027.157.13.184.161.19.157.028.175.015.33-.314.465-1.067.912-1.765 1.477-1.665.251.045.465.212.36.808-.06.33-.137.494-.486 1.274zM101.767 79.28c.857.152 1.367.854 1.159 2.03-.241 1.362-1.104 1.629-1.742 1.516-.44-.078-1.385-.37-1.731-1.1.52.07.705-.272.746-.503a.598.598 0 0 0-.497-.71c-.308-.055-.649.077-.729.527-.182 1.033.842 1.906 2.171 2.141 1.527.27 2.763-.564 2.958-1.663.151-.857-.4-1.839-1.564-2.305 1.228-.214 1.791-.964 1.91-1.634.153-.868-.732-1.693-1.951-1.91-1.22-.215-2.259.213-2.414 1.092-.067.373.138.625.468.683a.55.55 0 0 0 .66-.46c.056-.32-.123-.59-.46-.671.47-.416 1.25-.402 1.656-.33.495.087 1.144.451.975 1.407-.082.462-.325.94-.671 1.23-.437.353-.748.32-1.303.256-.279-.026-.3-.03-.358-.029-.022-.004-.114.003-.135.124-.027.153.072.17.259.204z"/>
</g>
<path d="m89.302 316.85 16.665-19.76-10.827 4.68.13-18.133-11.538.113-.128 18.138-10.714-4.228z" color="#000" fill="red" style="isolation:auto;mix-blend-mode:normal;text-decoration-color:#000;text-decoration-line:none;text-decoration-style:solid;text-indent:0;text-transform:none;white-space:normal" transform="translate(14.65 -252.655)"/>
</svg>
