<svg width="182.286" height="144.19" xmlns="http://www.w3.org/2000/svg" xmlns:xlink="http://www.w3.org/1999/xlink">
<defs>
<path id="f" d="M6.54-5.858c0-2.104-1.244-2.535-1.973-2.535-.945 0-2.14.622-3.037 2.248C.92-5.021.55-3.395.55-2.427.55-.693 1.459.096 2.534.096c.801 0 1.854-.467 2.678-1.686C6.217-3.06 6.54-4.961 6.54-5.858zM2.366-4.435c.167-.694.478-1.782.837-2.403.275-.49.765-1.124 1.339-1.124.502 0 .717.526.717 1.231 0 .753-.263 1.794-.394 2.296H2.367zm2.355.573C3.982-.658 2.977-.335 2.558-.335c-.167 0-.418-.048-.585-.418-.144-.323-.144-.79-.144-.801 0-.682.263-1.793.395-2.308h2.498z"/>
<path id="d" d="M6.408-4.794a.893.893 0 0 0-.646.825c0 .263.204.55.598.55.419 0 .86-.347.86-.933 0-.633-.633-1.052-1.362-1.052-.681 0-1.124.514-1.28.73-.298-.503-.968-.73-1.649-.73-1.506 0-2.32 1.47-2.32 1.865 0 .168.18.168.288.168.143 0 .227 0 .275-.156.346-1.088 1.207-1.446 1.697-1.446.455 0 .67.215.67.597 0 .228-.168.885-.275 1.315l-.407 1.638c-.179.73-.61 1.088-1.016 1.088-.06 0-.335 0-.574-.18a.893.893 0 0 0 .646-.824c0-.263-.203-.55-.598-.55-.418 0-.86.347-.86.933 0 .633.633 1.052 1.362 1.052.682 0 1.124-.514 1.28-.73.298.502.968.73 1.65.73 1.506 0 2.318-1.47 2.318-1.865 0-.168-.179-.168-.286-.168-.144 0-.228 0-.275.156C6.157-.693 5.296-.335 4.806-.335c-.454 0-.67-.215-.67-.598 0-.25.156-.884.263-1.327.084-.31.36-1.434.419-1.625.18-.718.598-1.088 1.016-1.088.06 0 .335 0 .574.179z"/>
<path id="e" d="M3.957 2.87c0-.037 0-.06-.203-.264C2.26 1.1 1.877-1.16 1.877-2.989c0-2.08.454-4.16 1.925-5.655.155-.143.155-.167.155-.203 0-.084-.048-.12-.12-.12-.119 0-1.195.814-1.9 2.332-.61 1.315-.753 2.642-.753 3.646 0 .933.131 2.38.789 3.73.717 1.47 1.745 2.248 1.865 2.248.071 0 .12-.036.12-.12z"/>
<path id="g" d="M3.455-2.989c0-.932-.131-2.379-.789-3.73C1.949-8.189.921-8.966.801-8.966c-.072 0-.12.047-.12.12 0 .035 0 .059.228.274C2.08-7.388 2.762-5.487 2.762-2.989c0 2.045-.443 4.149-1.925 5.655-.156.143-.156.167-.156.203 0 .072.048.12.12.12.12 0 1.196-.813 1.9-2.331.61-1.316.754-2.643.754-3.647z"/>
<marker id="a" overflow="visible" orient="auto">
<path d="m-10 0-4 4L0 0l-14-4z" fill-rule="evenodd" stroke="#000" stroke-width=".8pt"/>
</marker>
<marker id="b" overflow="visible" orient="auto">
<path d="m-10 0-4 4L0 0l-14-4z" fill-rule="evenodd" stroke="#000" stroke-width=".8pt"/>
</marker>
<marker id="c" overflow="visible" orient="auto">
<path d="m-4 0-2 2 7-2-7-2z" fill="red" fill-rule="evenodd" stroke="red" stroke-width=".4pt"/>
</marker>
</defs>
<g color="#000">
<path d="M.5 134.19h165.431" fill="none" marker-end="url(#a)" stroke="#000" stroke-width=".8" style="isolation:auto;mix-blend-mode:normal"/>
<path d="M11.5 143.69V38.208" fill="none" marker-end="url(#b)" stroke="#000" stroke-width=".8" style="isolation:auto;mix-blend-mode:normal"/>
<path d="M1.779 69.891h125.343l9.721 64.299H11.5z" fill="#e2fbe2" stroke="#008400" style="isolation:auto;mix-blend-mode:normal"/>
<path d="M66.96 7.641c35.882-21.543 48.583 17.844 98.103-.64l16.104 53.11c-66.472 22.431-83.522-41.19-128.374 0z" fill="#ebeaff" stroke="#00f" style="isolation:auto;mix-blend-mode:normal"/>
</g>
<g fill="none" stroke="#000" stroke-dasharray="2, 2" stroke-width=".5" color="#000">
<path d="m11.5 134.19 41.293-74.08M1.779 69.891l65.18-61.67M127.122 69.891l37.942-62.367M136.843 134.19l44.324-74.079" style="isolation:auto;mix-blend-mode:normal"/>
</g>
<g stroke-linejoin="round" stroke-width="1.5">
<g stroke-miterlimit="100000">
<path d="M77.057 8.31a.181.181 0 0 0-.197-.18c-.09 0-.108.019-.323.27l-.86 1.022c-.467-.843-1.4-1.291-2.565-1.291-2.278 0-4.43 2.062-4.43 4.232 0 1.452.95 2.277 1.865 2.546l1.92.502c.663.162 1.649.43 1.649 1.901 0 1.614-1.47 3.3-3.228 3.3-1.148 0-3.138-.395-3.138-2.618 0-.43.09-.861.108-.969.017-.071.035-.09.035-.125 0-.18-.125-.197-.215-.197s-.125.018-.18.071c-.07.072-1.075 4.16-1.075 4.214 0 .108.09.18.197.18.09 0 .108-.018.323-.27l.879-1.021c.77 1.04 1.99 1.29 3.03 1.29 2.44 0 4.555-2.384 4.555-4.608 0-1.237-.61-1.847-.878-2.098-.413-.413-.682-.484-2.278-.897-.394-.107-1.04-.287-1.201-.323-.485-.16-1.094-.681-1.094-1.631 0-1.453 1.434-2.977 3.138-2.977 1.488 0 2.582.77 2.582 2.78 0 .573-.071.896-.071 1.004 0 .018 0 .179.215.179.18 0 .197-.054.269-.359z" fill="#00f"/>
<path d="M179.385 131.447c0-1.184-.323-3.676-2.152-3.676-2.493 0-5.254 5.057-5.254 9.163 0 1.686.52 3.677 2.152 3.677 2.528 0 5.254-5.147 5.254-9.164zm-5.505 2.457c.304-1.148.663-2.583 1.38-3.856.485-.878 1.148-1.883 1.955-1.883.879 0 .986 1.148.986 2.17 0 .879-.143 1.793-.573 3.569zm3.586.574c-.197.825-.574 2.349-1.255 3.64-.628 1.22-1.31 2.098-2.08 2.098-.592 0-.969-.52-.969-2.188 0-.753.108-1.793.574-3.55zM13.76 15.258c0-.036.053-.233.053-.251 0-.018 0-.18-.215-.18-.18 0-.197.055-.269.36l-1.04 4.142c-2.851.09-5.487 2.474-5.487 4.913 0 1.704 1.255 3.12 3.443 3.246-.144.556-.27 1.13-.413 1.686-.215.843-.394 1.524-.394 1.578 0 .18.125.197.215.197s.126-.018.18-.072c.035-.035.143-.466.197-.717l.681-2.672c2.887-.09 5.487-2.51 5.487-4.913 0-1.417-.95-3.067-3.443-3.246zm-3.426 11.836c-1.076-.054-2.367-.682-2.367-2.475 0-2.152 1.543-4.663 4.215-4.896zm2.314-7.37c1.363.07 2.385.896 2.385 2.474 0 2.116-1.542 4.68-4.232 4.896z"/>
</g>
<path d="M19.621 74.198a.181.181 0 0 0-.197-.18c-.09 0-.108.019-.323.27l-.86 1.022c-.467-.843-1.4-1.291-2.565-1.291-2.277 0-4.43 2.062-4.43 4.232 0 1.453.951 2.277 1.866 2.546l1.919.503c.663.161 1.65.43 1.65 1.9 0 1.614-1.471 3.3-3.229 3.3-1.147 0-3.138-.394-3.138-2.618 0-.43.09-.86.108-.968.018-.072.036-.09.036-.126 0-.18-.126-.197-.215-.197-.09 0-.126.018-.18.071-.072.072-1.076 4.16-1.076 4.215 0 .107.09.179.197.179.09 0 .108-.018.323-.269l.879-1.022c.771 1.04 1.99 1.29 3.03 1.29 2.44 0 4.556-2.384 4.556-4.608 0-1.237-.61-1.847-.88-2.098-.412-.412-.68-.484-2.277-.897-.394-.107-1.04-.286-1.201-.322-.484-.162-1.094-.682-1.094-1.632 0-1.453 1.435-2.977 3.138-2.977 1.489 0 2.583.771 2.583 2.78 0 .573-.072.896-.072 1.004 0 .018 0 .18.215.18.18 0 .197-.055.269-.36zM26.58 83.326c0-2.184-1.356-2.787-2.36-2.787-.59 0-1.97.201-3.176 1.946-.853 1.23-1.293 3.076-1.293 4.18 0 1.933 1.105 2.787 2.373 2.787.653 0 1.908-.264 3.038-1.757.89-1.193 1.418-3.063 1.418-4.369zm-4.808 1.318c.239-.866.452-1.657.879-2.385.289-.477.879-1.142 1.544-1.142.427 0 .891.314.891 1.393 0 .678-.163 1.33-.351 2.134zm2.787.703c-.138.553-.414 1.632-.891 2.398-.414.678-.992 1.13-1.52 1.13-.602 0-.903-.578-.903-1.394 0-.64.2-1.519.352-2.134z" fill="#008400"/>
</g>
<path d="m89.93 31.888-42.905 73.758" color="#000" fill="none" marker-end="url(#c)" stroke="red" stroke-width="2" style="isolation:auto;mix-blend-mode:normal"/>
<g fill="red">
<path d="M74.777 93.114V81.831h1.026v11.283zm-6.76.088-.12-.894h1.777q.875 0 1.203-.662.334-.668.334-2.551 0-.101-.013-.668h-4.41l-.075.592h-.977l.58-4.132h4.592v-1.802h-4.983v-.794h5.998v3.408h-4.738l-.29 1.884h5.355q0 1.43-.025 2.142t-.176 1.543q-.145.832-.366 1.153-.214.315-.649.548t-.982.233zM88.12 89.385l-.694.7q-.686-.46-1.694-.732-1.008-.277-1.947-.277-2.04 0-2.74.429-.693.422-.693 1.171 0 .656.806 1.027.807.372 3.169.372 2.092 0 3.704-.265l.025.908q-1.404.233-3.754.233-2.715 0-3.837-.58-1.121-.586-1.121-1.695 0-1.184 1.065-1.801 1.07-.624 2.86-.624 1.927 0 3.37.542-.63-.813-1.165-1.82h-6.527v-.813h6.136q-.347-.782-.573-1.506h-5.204v-.813h4.945q-.201-.806-.308-1.575l1.001-.088q.183 1.128.322 1.663h3.64v.813h-3.414q.17.53.567 1.506h3.453v.812h-3.043q.523.97 1.65 2.413zM91.553 83.028v-.756h11.106v.756zm1.631 3.68q0 1.794-.466 3.508-.46 1.707-1.392 2.93l-.655-.542q.693-.952 1.109-2.501.415-1.556.415-3.289v-2.721h9.84v2.614zm7.932-1.922h-7.932V86h7.932zM97.77 90.02q-.441 1.234-1.77 2.11-1.33.876-2.898 1.147l-.278-.725q1.437-.29 2.646-1.115 1.21-.825 1.575-2.135h-3.339v-.788h3.503v-1.342h1.027v1.342h4.435v.788h-4.385q1.216 2.28 4.53 3.13l-.542.807q-3.257-.939-4.504-3.22zM115.435 88.074q-.712 2.52-2.098 3.704t-3.565 1.185q-.85 0-1.512-.17t-1.134-.504q-.473-.34-.756-.845-.284-.51-.366-1.102-.075-.592-.075-1.96 0-2.324.277-5.707h1.033q-.334 3.244-.334 5.758 0 .876.038 1.48.044.599.366 1.11.327.51.97.774t1.594.265q1.707 0 2.84-.958 1.135-.964 1.84-3.358z"/>
</g>
<g transform="matrix(1.6 0 0 1.6 -246.113 -111.306)" stroke-width=".833">
<use x="212.502" y="88.26" width="100%" height="100%" xlink:href="#d"/>
<use x="222.374" y="88.26" width="100%" height="100%" xlink:href="#e"/>
<use x="227.023" y="88.26" width="100%" height="100%" xlink:href="#f"/>
<use x="234.121" y="88.26" width="100%" height="100%" xlink:href="#g"/>
</g>
<use transform="matrix(1.6 0 0 1.6 -316.038 -14.866)" x="227.023" y="88.26" width="100%" height="100%" stroke-width=".833" xlink:href="#f"/>
<circle cx="89.93" cy="31.888" r="3.801"/>
<circle cx="45.107" cy="108.944" r="3.801"/>
</svg>
