<svg width="210.234" height="122.578" viewBox="0 0 210.234 122.579" xmlns="http://www.w3.org/2000/svg" xmlns:xlink="http://www.w3.org/1999/xlink">
<defs>
<path id="d" d="M5.046-4.017c0-1.456-.904-1.858-1.573-1.858-.393 0-1.314.134-2.117 1.297-.57.82-.862 2.05-.862 2.787C.494-.502 1.23.067 2.075.067c.436 0 1.272-.176 2.026-1.172.594-.795.945-2.042.945-2.912zm-3.205.879c.16-.578.301-1.105.586-1.59.192-.318.586-.762 1.03-.762.284 0 .593.21.593.93 0 .451-.108.886-.234 1.422zM3.7-2.67c-.092.369-.276 1.088-.594 1.599-.276.452-.661.753-1.013.753-.402 0-.602-.385-.602-.929 0-.427.134-1.013.234-1.423z"/>
<path id="h" d="M5.44-5.978c0-.789-.216-2.45-1.435-2.45C2.343-8.428.502-5.057.502-2.32.502-1.196.85.13 1.937.13c1.685 0 3.503-3.43 3.503-6.109zM1.77-4.34c.203-.765.442-1.721.92-2.57.323-.586.765-1.255 1.303-1.255.586 0 .658.765.658 1.446 0 .586-.096 1.196-.383 2.38zm2.39.383c-.131.55-.382 1.566-.836 2.427-.419.813-.873 1.398-1.387 1.398-.395 0-.646-.346-.646-1.458 0-.502.072-1.196.383-2.367z"/>
<path id="e" d="M5.224-8.01c0-.024.036-.155.036-.167s0-.12-.143-.12c-.12 0-.132.036-.18.24l-.693 2.76c-1.9.06-3.658 1.65-3.658 3.277C.586-.885 1.423.06 2.88.143c-.095.371-.18.754-.275 1.124-.143.562-.263 1.016-.263 1.052 0 .12.084.132.144.132s.083-.012.12-.048c.023-.024.095-.31.13-.478L3.193.143C5.117.083 6.85-1.53 6.85-3.132c0-.945-.633-2.045-2.295-2.164zM2.941-.12c-.717-.035-1.578-.454-1.578-1.65 0-1.434 1.028-3.108 2.81-3.263zm1.542-4.913c.909.048 1.59.598 1.59 1.65 0 1.41-1.028 3.12-2.821 3.263z"/>
<path id="c" d="M7.711-8.309a.121.121 0 0 0-.131-.12c-.06 0-.072.013-.216.18l-.573.681c-.311-.562-.933-.86-1.71-.86-1.518 0-2.953 1.374-2.953 2.821 0 .968.634 1.518 1.243 1.698l1.28.334c.442.108 1.1.287 1.1 1.268 0 1.076-.98 2.2-2.152 2.2-.766 0-2.093-.264-2.093-1.746 0-.287.06-.574.072-.646.012-.047.024-.06.024-.083 0-.12-.084-.132-.143-.132s-.084.012-.12.048C1.291-2.618.622.108.622.144c0 .071.06.119.131.119.06 0 .072-.012.215-.18l.586-.68c.514.693 1.327.86 2.02.86 1.626 0 3.037-1.59 3.037-3.072 0-.825-.406-1.232-.586-1.4-.275-.274-.454-.322-1.518-.597-.263-.072-.693-.191-.8-.215-.324-.108-.73-.454-.73-1.088 0-.968.956-1.985 2.092-1.985.992 0 1.722.514 1.722 1.853 0 .383-.048.598-.048.67 0 .012 0 .12.143.12.12 0 .132-.036.18-.24z"/>
<path id="g" d="M3.957 2.87c0-.037 0-.06-.203-.264C2.26 1.1 1.877-1.16 1.877-2.989c0-2.08.454-4.16 1.925-5.655.155-.143.155-.167.155-.203 0-.084-.048-.12-.12-.12-.119 0-1.195.814-1.9 2.332-.61 1.315-.753 2.642-.753 3.646 0 .933.131 2.38.789 3.73.717 1.47 1.745 2.248 1.865 2.248.071 0 .12-.036.12-.12z"/>
<path id="i" d="M3.455-2.989c0-.932-.131-2.379-.789-3.73C1.949-8.189.921-8.966.801-8.966c-.072 0-.12.047-.12.12 0 .035 0 .059.228.274C2.08-7.388 2.762-5.487 2.762-2.989c0 2.045-.443 4.149-1.925 5.655-.156.143-.156.167-.156.203 0 .072.048.12.12.12.12 0 1.196-.813 1.9-2.331.61-1.316.754-2.643.754-3.647z"/>
<path id="f" d="M4.318-2.67c0-.92-.109-1.581-.494-2.167-.259-.385-.778-.72-1.447-.72C.435-5.557.435-3.272.435-2.67S.435.167 2.377.167 4.318-2.067 4.318-2.67zM2.377-.067c-.385 0-.896-.226-1.063-.912-.117-.494-.117-1.18-.117-1.8 0-.61 0-1.246.125-1.707a1.07 1.07 0 0 1 1.055-.836c.452 0 .887.276 1.037.761.134.452.143 1.055.143 1.783 0 .619 0 1.238-.11 1.765-.167.762-.736.946-1.07.946z"/>
<path id="j" d="M2.803-5.322c0-.226-.016-.235-.25-.235-.536.527-1.298.536-1.64.536v.301c.2 0 .752 0 1.213-.234v4.268c0 .276 0 .385-.837.385H.97V0a61.59 61.59 0 0 1 1.49-.033c.259 0 1.313.025 1.497.033v-.301H3.64c-.837 0-.837-.11-.837-.385z"/>
<marker id="a" overflow="visible" orient="auto">
<path d="m-10 0-4 4L0 0l-14-4z" fill-rule="evenodd" stroke="#000" stroke-width=".8pt"/>
</marker>
<marker id="b" overflow="visible" orient="auto">
<path d="m-10 0-4 4L0 0l-14-4z" fill-rule="evenodd" stroke="#000" stroke-width=".8pt"/>
</marker>
</defs>
<path d="M42.75 98.035h165.432" color="#000" fill="none" marker-end="url(#a)" stroke="#000" stroke-width=".8" style="isolation:auto;mix-blend-mode:normal"/>
<path d="M53.75 107.535V2.053" color="#000" fill="none" marker-end="url(#b)" stroke="#000" stroke-width=".8" style="isolation:auto;mix-blend-mode:normal"/>
<ellipse cx="124.983" cy="54.897" rx="44.715" ry="24.193" fill="#e2fbe2" stroke="#008400"/>
<g fill="none" color="#000">
<g stroke="#000" stroke-dasharray="2, 2" stroke-width=".5">
<path d="M106.55 98.035V76.952M53.75 76.938h52.8M53.75 32.855h52.8M80.269 98.035V54.897M169.698 54.897v43.138" style="isolation:auto;mix-blend-mode:normal"/>
</g>
<path d="M106.55 76.952V32.854" stroke="red" stroke-linecap="round" stroke-width="3" style="isolation:auto;mix-blend-mode:normal"/>
</g>
<g transform="translate(-145.767 -84.666) scale(1.60001)" fill="green" stroke-width=".651">
<use x="176.203" y="88.26" width="100%" height="100%" xlink:href="#c"/>
<use x="183.507" y="90.054" width="100%" height="100%" xlink:href="#d"/>
</g>
<g transform="translate(-303.9 -59.497) scale(1.60001)">
<g stroke-width=".833">
<use x="189.663" y="88.26" width="100%" height="100%" xlink:href="#e"/>
<use x="196.759" y="90.054" width="100%" height="100%" xlink:href="#f"/>
<use x="204.115" y="88.26" width="100%" height="100%" xlink:href="#g"/>
</g>
<use x="208.764" y="88.26" width="100%" height="100%" fill="red" stroke-width=".651" xlink:href="#h"/>
<use x="214.688" y="88.26" width="100%" height="100%" stroke-width=".833" xlink:href="#i"/>
</g>
<g transform="translate(-354.6 -103.58) scale(1.60001)">
<g stroke-width=".833">
<use x="221.35" y="88.26" width="100%" height="100%" xlink:href="#e"/>
<use x="228.447" y="90.054" width="100%" height="100%" xlink:href="#j"/>
<use x="235.803" y="88.26" width="100%" height="100%" xlink:href="#g"/>
</g>
<use x="240.452" y="88.26" width="100%" height="100%" fill="red" stroke-width=".651" xlink:href="#h"/>
<use x="246.375" y="88.26" width="100%" height="100%" stroke-width=".833" xlink:href="#i"/>
</g>
<g transform="translate(-329.334 -22.276) scale(1.60001)" stroke-width=".833">
<use x="253.038" y="88.26" width="100%" height="100%" xlink:href="#h"/>
<use x="258.629" y="90.054" width="100%" height="100%" xlink:href="#f"/>
</g>
<g transform="translate(-257.433 -22.276) scale(1.60001)" stroke-width=".833">
<use x="263.993" y="88.26" width="100%" height="100%" xlink:href="#h"/>
<use x="269.584" y="90.054" width="100%" height="100%" xlink:href="#j"/>
</g>
<use transform="translate(-303.066 -22.276) scale(1.60001)" x="253.038" y="88.26" width="100%" height="100%" fill="red" stroke-width=".651" xlink:href="#h"/>
<g fill="none" stroke="#000">
<path d="M50.124 32.855h7.253M50.124 76.938h7.253M80.269 101.662v-7.253M106.55 101.662v-7.253M169.698 101.662v-7.253"/>
</g>
</svg>
