<svg width="228.554" height="117.105" xmlns="http://www.w3.org/2000/svg">
<defs>
<marker id="a" overflow="visible" orient="auto">
<path d="m-10 0-4 4L0 0l-14-4z" fill-rule="evenodd" stroke="#000" stroke-width=".8pt"/>
</marker>
<marker id="b" overflow="visible" orient="auto">
<path d="m-4 0-2 2 7-2-7-2z" fill="red" fill-rule="evenodd" stroke="red" stroke-width=".4pt"/>
</marker>
<marker id="c" overflow="visible" orient="auto">
<path d="m-4 0-2 2 7-2-7-2z" fill="red" fill-rule="evenodd" stroke="red" stroke-width=".4pt"/>
</marker>
</defs>
<g fill="none" color="#000">
<path d="M3.366 345.817h225.613" marker-end="url(#a)" stroke="#000" style="isolation:auto;mix-blend-mode:normal" transform="translate(-2.866 -254.474)"/>
<path d="M14.145 345.817h187.232" stroke="green" stroke-width="2" style="isolation:auto;mix-blend-mode:normal" transform="translate(-2.866 -254.474)"/>
<path d="M12.869 297.363c68.673-58.542 137.346 38.572 206.02 0" stroke="#00f" stroke-width="2" style="isolation:auto;mix-blend-mode:normal" transform="translate(-2.866 -254.474)"/>
<g stroke="#000">
<path d="M14.076 340.725v9.9M9.684 293.574l6.37 7.578M201.347 340.725v9.9M216.508 293.023l4.761 8.68" style="isolation:auto;mix-blend-mode:normal" transform="translate(-2.866 -254.474)"/>
</g>
<path d="M83.083 345.817h31.257" marker-end="url(#b)" stroke="red" stroke-width="2" style="isolation:auto;mix-blend-mode:normal" transform="translate(-2.866 -254.474)"/>
<path d="m110.153 287.846 29.496 10.345" marker-end="url(#c)" stroke="red" stroke-width="2" style="isolation:auto;mix-blend-mode:normal" transform="translate(-2.866 -254.474)"/>
<g stroke="#000">
<path d="M83.141 340.725v9.9M111.846 283.194l-3.276 9.342M117.789 340.725v9.9M144.542 294.662l-3.276 9.342" style="isolation:auto;mix-blend-mode:normal" transform="translate(-2.866 -254.474)"/>
<g stroke-dasharray="2, 2" stroke-width=".5">
<path d="m83.141 345.817 27.067-57.952M142.918 299.291l-25.129 46.526M14.076 345.817l-1.207-48.454M201.347 345.817l17.541-48.454" style="isolation:auto;mix-blend-mode:normal" transform="translate(-2.866 -254.474)"/>
</g>
</g>
</g>
<g fill="green" style="font-variant-east_asian:normal">
<path d="M97.518 327.902c-2.242.538-3.981 2.87-3.981 5.04 0 1.72 1.147 3.012 2.833 3.012 2.098 0 3.586-2.816 3.586-5.29 0-1.632-.717-2.529-1.327-3.336-.645-.807-1.703-2.152-1.703-2.94 0-.395.358-.826.986-.826.538 0 .897.233 1.273.484.359.216.718.449.987.449.448 0 .717-.43.717-.718 0-.394-.287-.448-.933-.591-.932-.198-1.183-.198-1.47-.198-1.399 0-2.044.772-2.044 1.848 0 .968.52 1.972 1.076 3.066zm.215.395c.448.824.986 1.793.986 3.084 0 1.184-.681 4.178-2.35 4.178-.985 0-1.72-.753-1.72-2.116 0-1.13.663-4.5 3.084-5.146zM109.562 326.772c0-1.184-.323-3.676-2.152-3.676-2.493 0-5.254 5.057-5.254 9.163 0 1.686.52 3.677 2.152 3.677 2.528 0 5.254-5.147 5.254-9.164zm-5.505 2.457c.304-1.148.663-2.583 1.38-3.856.485-.878 1.148-1.883 1.955-1.883.879 0 .986 1.148.986 2.17 0 .879-.143 1.793-.573 3.569zm3.586.574c-.197.825-.574 2.349-1.255 3.64-.628 1.22-1.31 2.098-2.08 2.098-.592 0-.969-.52-.969-2.188 0-.753.108-1.793.574-3.55zM113.858 330.583a.48.48 0 0 0-.502-.477c-.339 0-.703.326-.703.69 0 .214.163.477.502.477.364 0 .703-.351.703-.69zm-2.56 6.377c-.051.163-.114.314-.114.527 0 .59.502 1.067 1.193 1.067 1.255 0 1.807-1.732 1.807-1.92 0-.164-.163-.164-.2-.164-.176 0-.189.076-.239.214-.289 1.004-.841 1.519-1.33 1.519-.252 0-.314-.164-.314-.44 0-.288.088-.527.2-.803.126-.339.264-.678.402-1.004.113-.302.565-1.444.615-1.595a1.51 1.51 0 0 0 .076-.401c0-.59-.503-1.067-1.193-1.067-1.243 0-1.82 1.707-1.82 1.92 0 .164.176.164.213.164.176 0 .189-.063.226-.201.327-1.08.879-1.532 1.343-1.532.201 0 .314.1.314.44 0 .288-.075.477-.389 1.255z" style="font-variant-east_asian:normal" transform="translate(-2.866 -254.474)"/>
</g>
<g stroke-linejoin="round" stroke-miterlimit="100000" stroke-width="1.5">
<path d="M83.181 103.468c0-1.184-.322-3.676-2.151-3.676-2.493 0-5.255 5.057-5.255 9.163 0 1.686.52 3.677 2.152 3.677 2.529 0 5.254-5.147 5.254-9.164zm-5.505 2.457c.305-1.148.664-2.583 1.38-3.856.485-.878 1.149-1.883 1.956-1.883.878 0 .986 1.148.986 2.17 0 .879-.144 1.793-.574 3.569zm3.587.574c-.198.825-.574 2.349-1.256 3.64-.627 1.22-1.309 2.098-2.08 2.098-.592 0-.968-.52-.968-2.188 0-.753.107-1.793.574-3.55zM87.477 107.279a.48.48 0 0 0-.502-.477c-.339 0-.703.326-.703.69 0 .214.163.477.502.477.364 0 .703-.351.703-.69zm-2.56 6.377c-.05.163-.114.314-.114.527 0 .59.502 1.067 1.193 1.067 1.255 0 1.808-1.732 1.808-1.92 0-.164-.164-.164-.201-.164-.176 0-.189.076-.239.214-.289 1.004-.84 1.519-1.33 1.519-.252 0-.314-.164-.314-.44 0-.288.088-.527.2-.803.126-.339.264-.678.402-1.004.113-.302.565-1.444.615-1.595a1.51 1.51 0 0 0 .076-.401c0-.59-.502-1.067-1.193-1.067-1.243 0-1.82 1.707-1.82 1.92 0 .164.176.164.213.164.176 0 .189-.063.226-.201.327-1.08.879-1.532 1.343-1.532.201 0 .314.1.314.44 0 .288-.075.477-.389 1.255zM225.417 103.468c0-1.184-.323-3.676-2.152-3.676-2.492 0-5.254 5.057-5.254 9.163 0 1.686.52 3.677 2.152 3.677 2.528 0 5.254-5.147 5.254-9.164zm-5.505 2.457c.305-1.148.663-2.583 1.38-3.856.485-.878 1.148-1.883 1.955-1.883.879 0 .987 1.148.987 2.17 0 .879-.144 1.793-.574 3.569zm3.586.574c-.197.825-.574 2.349-1.255 3.64-.628 1.22-1.309 2.098-2.08 2.098-.592 0-.969-.52-.969-2.188 0-.753.108-1.793.574-3.55zM117.83 103.468c0-1.184-.323-3.676-2.152-3.676-2.492 0-5.254 5.057-5.254 9.163 0 1.686.52 3.677 2.152 3.677 2.528 0 5.254-5.147 5.254-9.164zm-5.505 2.457c.305-1.148.663-2.583 1.38-3.856.485-.878 1.148-1.883 1.955-1.883.879 0 .987 1.148.987 2.17 0 .879-.144 1.793-.574 3.569zm3.586.574c-.197.825-.574 2.349-1.255 3.64-.628 1.22-1.309 2.098-2.08 2.098-.592 0-.969-.52-.969-2.188 0-.753.108-1.793.574-3.55zM122.125 107.279a.48.48 0 0 0-.502-.477c-.339 0-.703.326-.703.69 0 .214.163.477.502.477.364 0 .703-.351.703-.69zm-2.56 6.377c-.05.163-.114.314-.114.527 0 .59.502 1.067 1.193 1.067 1.255 0 1.808-1.732 1.808-1.92 0-.164-.164-.164-.201-.164-.176 0-.189.076-.239.214-.289 1.004-.84 1.519-1.33 1.519-.252 0-.314-.164-.314-.44 0-.288.088-.527.2-.803.126-.339.264-.678.402-1.004.113-.302.565-1.444.615-1.595a1.51 1.51 0 0 0 .076-.401c0-.59-.502-1.067-1.193-1.067-1.243 0-1.82 1.707-1.82 1.92 0 .164.176.164.213.164.176 0 .189-.063.226-.201.327-1.08.879-1.532 1.343-1.532.201 0 .314.1.314.44 0 .288-.075.477-.389 1.255zM128.924 112.287h3.841c.164 0 .465 0 .465-.301 0-.314-.289-.314-.465-.314h-3.84v-3.854c0-.163 0-.464-.302-.464-.314 0-.314.288-.314.464v3.854h-3.854c-.163 0-.464 0-.464.301 0 .314.289.314.464.314h3.854v3.854c0 .163 0 .464.301.464.314 0 .314-.288.314-.464zM138.285 107.141c0-.339-.025-.351-.376-.351-.804.79-1.946.803-2.46.803v.452c.3 0 1.129 0 1.82-.352v6.402c0 .415 0 .578-1.256.578h-.477v.452c.226-.012 1.77-.05 2.234-.05.39 0 1.971.037 2.247.05v-.452h-.477c-1.255 0-1.255-.163-1.255-.578z"/>
</g>
<g fill="red" color="#000">
<path d="M125.24 271.714c-2.242.538-3.981 2.87-3.981 5.04 0 1.72 1.148 3.012 2.833 3.012 2.098 0 3.587-2.816 3.587-5.29 0-1.632-.717-2.529-1.327-3.336-.646-.807-1.704-2.152-1.704-2.94 0-.395.359-.826.987-.826.538 0 .896.233 1.273.484.358.216.717.449.986.449.448 0 .717-.43.717-.718 0-.394-.287-.448-.932-.591-.933-.198-1.184-.198-1.47-.198-1.4 0-2.045.772-2.045 1.848 0 .968.52 1.972 1.076 3.066zm.215.395c.449.824.986 1.793.986 3.084 0 1.184-.681 4.178-2.349 4.178-.986 0-1.721-.753-1.721-2.116 0-1.13.663-4.5 3.084-5.146zM138.737 272.36a1.34 1.34 0 0 0-.968 1.237c0 .395.304.825.896.825.628 0 1.291-.52 1.291-1.398 0-.95-.95-1.579-2.044-1.579-1.022 0-1.686.772-1.919 1.094-.448-.753-1.452-1.094-2.474-1.094-2.26 0-3.48 2.206-3.48 2.798 0 .251.27.251.431.251.215 0 .34 0 .412-.233.52-1.632 1.812-2.17 2.547-2.17.681 0 1.004.323 1.004.897 0 .34-.25 1.327-.412 1.972l-.61 2.457c-.269 1.094-.915 1.632-1.524 1.632-.09 0-.502 0-.861-.27a1.34 1.34 0 0 0 .968-1.236c0-.395-.305-.825-.896-.825-.628 0-1.292.52-1.292 1.398 0 .95.95 1.578 2.045 1.578 1.022 0 1.685-.77 1.919-1.093.448.753 1.452 1.093 2.474 1.093 2.26 0 3.48-2.205 3.48-2.797 0-.251-.27-.251-.431-.251-.215 0-.34 0-.413.233-.52 1.632-1.81 2.17-2.546 2.17-.681 0-1.004-.323-1.004-.897 0-.376.233-1.327.394-1.99.126-.467.538-2.152.628-2.44.269-1.075.897-1.631 1.524-1.631.09 0 .502 0 .861.269zM145.01 274.395a.48.48 0 0 0-.502-.477c-.34 0-.703.326-.703.69 0 .214.163.477.502.477.364 0 .703-.351.703-.69zm-2.56 6.377c-.051.163-.114.314-.114.527 0 .59.502 1.067 1.193 1.067 1.255 0 1.807-1.732 1.807-1.92 0-.164-.163-.164-.2-.164-.176 0-.189.076-.239.214-.289 1.004-.841 1.519-1.33 1.519-.252 0-.314-.164-.314-.44 0-.288.088-.527.2-.803.126-.339.264-.678.402-1.004.113-.302.565-1.444.615-1.595a1.51 1.51 0 0 0 .076-.401c0-.59-.503-1.067-1.193-1.067-1.243 0-1.82 1.707-1.82 1.92 0 .164.176.164.213.164.176 0 .189-.063.226-.201.327-1.08.879-1.532 1.343-1.532.201 0 .314.1.314.44 0 .288-.075.477-.389 1.255z" style="isolation:auto;mix-blend-mode:normal" transform="translate(-2.866 -254.474)"/>
</g>
<g stroke-linejoin="round" stroke-miterlimit="100000">
<g stroke-width="1.5">
<path d="M156.955 13.961c0-.52-.43-.95-.95-.95s-.95.43-.95.95.43.95.95.95.95-.43.95-.95zM161.348 19.213c.27 0 .61 0 .61-.359s-.34-.358-.592-.358h-10.742c-.25 0-.591 0-.591.358 0 .359.34.359.61.359zm.018 3.479c.251 0 .592 0 .592-.359s-.34-.358-.61-.358h-10.706c-.269 0-.61 0-.61.358s.341.359.592.359zM179.363.697c0-.018 0-.197-.233-.197-.269 0-1.973.161-2.277.197-.144.018-.252.108-.252.34 0 .216.162.216.43.216.862 0 .898.125.898.305l-.054.358-1.076 4.25c-.323-.663-.843-1.147-1.65-1.147-2.098 0-4.322 2.636-4.322 5.254 0 1.686.986 2.87 2.385 2.87.359 0 1.255-.072 2.331-1.346a1.63 1.63 0 0 0 1.632 1.345c.628 0 1.04-.412 1.327-.986.305-.646.538-1.74.538-1.775 0-.18-.161-.18-.215-.18-.18 0-.197.072-.25.323-.306 1.166-.629 2.224-1.364 2.224-.484 0-.538-.466-.538-.825 0-.43.036-.556.108-.86zm-3.73 10.114c-.09.323-.09.359-.359.664-.789.986-1.524 1.273-2.026 1.273-.897 0-1.148-.986-1.148-1.686 0-.896.574-3.102.987-3.927.556-1.058 1.363-1.722 2.08-1.722 1.165 0 1.417 1.47 1.417 1.578 0 .108-.036.216-.054.305zM189.02 5.754a1.34 1.34 0 0 0-.968 1.237c0 .395.305.825.896.825.628 0 1.292-.52 1.292-1.398 0-.95-.95-1.579-2.045-1.579-1.022 0-1.685.772-1.919 1.094-.448-.753-1.452-1.094-2.474-1.094-2.26 0-3.48 2.206-3.48 2.798 0 .251.27.251.431.251.215 0 .34 0 .413-.233.52-1.632 1.81-2.17 2.546-2.17.682 0 1.004.323 1.004.897 0 .34-.25 1.327-.412 1.972l-.61 2.457c-.269 1.094-.914 1.632-1.524 1.632-.09 0-.502 0-.86-.27a1.34 1.34 0 0 0 .967-1.236c0-.395-.304-.825-.896-.825-.628 0-1.291.52-1.291 1.398 0 .95.95 1.578 2.044 1.578 1.022 0 1.686-.77 1.919-1.093.448.753 1.452 1.093 2.474 1.093 2.26 0 3.48-2.205 3.48-2.797 0-.251-.27-.251-.43-.251-.216 0-.342 0-.413.233-.52 1.632-1.812 2.17-2.547 2.17-.681 0-1.004-.323-1.004-.897 0-.376.233-1.327.394-1.99.126-.467.538-2.152.628-2.44.27-1.075.897-1.631 1.524-1.631.09 0 .502 0 .861.269z"/>
</g>
<path d="M170.11 20.235h21.152v.717H170.11z"/>
<g stroke-width="1.5">
<path d="M180.813 25.13c0-.018 0-.197-.233-.197-.269 0-1.973.161-2.277.197-.144.018-.252.108-.252.34 0 .216.162.216.43.216.862 0 .898.125.898.305l-.054.358-1.076 4.25c-.323-.663-.843-1.147-1.65-1.147-2.098 0-4.322 2.636-4.322 5.254 0 1.686.986 2.87 2.385 2.87.359 0 1.255-.072 2.331-1.346a1.63 1.63 0 0 0 1.632 1.345c.628 0 1.04-.412 1.327-.986.305-.646.538-1.74.538-1.775 0-.18-.161-.18-.215-.18-.18 0-.197.072-.25.323-.306 1.166-.629 2.224-1.364 2.224-.484 0-.538-.466-.538-.825 0-.43.036-.556.108-.86zm-3.73 10.114c-.09.323-.09.359-.359.664-.789.986-1.524 1.273-2.026 1.273-.897 0-1.148-.986-1.148-1.686 0-.896.574-3.102.987-3.927.556-1.058 1.363-1.722 2.08-1.722 1.165 0 1.417 1.47 1.417 1.578 0 .108-.036.216-.054.305zM189.018 28.412c0-1.184-.323-3.676-2.152-3.676-2.492 0-5.254 5.057-5.254 9.163 0 1.686.52 3.677 2.152 3.677 2.528 0 5.254-5.147 5.254-9.164zm-5.505 2.457c.305-1.148.663-2.583 1.38-3.856.485-.878 1.148-1.883 1.955-1.883.879 0 .987 1.148.987 2.17 0 .879-.144 1.793-.574 3.569zm3.586.574c-.197.825-.574 2.349-1.255 3.64-.628 1.22-1.309 2.098-2.08 2.098-.592 0-.969-.52-.969-2.188 0-.753.108-1.793.574-3.55zM198.148 17.24c-2.241.538-3.98 2.87-3.98 5.04 0 1.72 1.147 3.012 2.832 3.012 2.099 0 3.587-2.816 3.587-5.29 0-1.632-.717-2.529-1.327-3.336-.646-.807-1.704-2.152-1.704-2.94 0-.395.359-.826.987-.826.538 0 .896.233 1.273.484.359.216.717.449.986.449.449 0 .718-.43.718-.718 0-.394-.287-.448-.933-.591-.932-.198-1.184-.198-1.47-.198-1.4 0-2.045.772-2.045 1.848 0 .968.52 1.972 1.076 3.066zm.215.395c.449.824.987 1.793.987 3.084 0 1.184-.682 4.178-2.35 4.178-.986 0-1.721-.753-1.721-2.116 0-1.13.663-4.5 3.084-5.146zM210.192 16.111c0-1.184-.323-3.676-2.152-3.676-2.492 0-5.254 5.057-5.254 9.163 0 1.686.52 3.677 2.152 3.677 2.528 0 5.254-5.147 5.254-9.164zm-5.505 2.457c.305-1.148.663-2.583 1.38-3.856.485-.878 1.148-1.883 1.955-1.883.879 0 .987 1.148.987 2.17 0 .879-.144 1.793-.574 3.569zm3.586.574c-.197.825-.574 2.349-1.255 3.64-.628 1.22-1.31 2.098-2.08 2.098-.592 0-.969-.52-.969-2.188 0-.753.108-1.793.574-3.55zM214.486 19.921a.48.48 0 0 0-.502-.477c-.339 0-.703.326-.703.69 0 .214.163.477.502.477.364 0 .703-.351.703-.69zm-2.56 6.377c-.05.163-.114.314-.114.527 0 .59.502 1.067 1.193 1.067 1.255 0 1.808-1.732 1.808-1.92 0-.164-.164-.164-.201-.164-.176 0-.189.076-.239.214-.289 1.004-.84 1.519-1.33 1.519-.252 0-.314-.164-.314-.44 0-.288.088-.527.2-.803.126-.339.264-.678.402-1.004.113-.302.565-1.444.615-1.595a1.51 1.51 0 0 0 .076-.401c0-.59-.502-1.067-1.193-1.067-1.243 0-1.82 1.707-1.82 1.92 0 .164.176.164.213.164.176 0 .189-.063.226-.201.327-1.08.879-1.532 1.343-1.532.201 0 .314.1.314.44 0 .288-.075.477-.389 1.255z"/>
</g>
</g>
</svg>
