<svg width="213.406" height="59.819" xmlns="http://www.w3.org/2000/svg">
<defs>
<marker id="a" overflow="visible" orient="auto">
<path d="m-4 0-2 2 7-2-7-2z" fill="red" fill-rule="evenodd" stroke="red" stroke-width=".4pt"/>
</marker>
</defs>
<g fill="none" color="#000">
<path d="M-54.064 345.478c68.673-58.542 137.346 38.572 206.02 0" stroke="#00f" stroke-width="2" style="isolation:auto;mix-blend-mode:normal" transform="translate(58.132 -311.689)"/>
<path d="m-57.249 341.689 6.37 7.578M149.575 341.139l4.761 8.68" stroke="#000" style="isolation:auto;mix-blend-mode:normal" transform="translate(58.132 -311.689)"/>
<path d="m43.22 335.961 29.496 10.345" marker-end="url(#a)" stroke="red" stroke-width="2" style="isolation:auto;mix-blend-mode:normal" transform="translate(58.132 -311.689)"/>
<path d="m44.913 331.309-3.276 9.342M77.608 342.777l-3.276 9.342" stroke="#000" style="isolation:auto;mix-blend-mode:normal" transform="translate(58.132 -311.689)"/>
</g>
<g fill="red" stroke-width="1.5">
<path d="M117.309 6.579c-2.242.538-3.982 2.87-3.982 5.04 0 1.72 1.148 3.012 2.834 3.012 2.098 0 3.586-2.816 3.586-5.29 0-1.632-.717-2.529-1.327-3.336-.645-.807-1.703-2.152-1.703-2.94 0-.395.358-.826.986-.826.538 0 .897.233 1.273.484.359.216.718.449.987.449.448 0 .717-.43.717-.718 0-.394-.287-.448-.933-.591-.932-.198-1.183-.198-1.47-.198-1.399 0-2.044.772-2.044 1.848 0 .968.52 1.972 1.076 3.066zm.215.395c.448.824.986 1.793.986 3.084 0 1.184-.681 4.178-2.35 4.178-.985 0-1.72-.753-1.72-2.116 0-1.13.663-4.5 3.084-5.146zM130.805 7.224a1.34 1.34 0 0 0-.968 1.237c0 .395.305.825.896.825.628 0 1.292-.52 1.292-1.398 0-.95-.95-1.579-2.045-1.579-1.022 0-1.685.772-1.919 1.094-.448-.753-1.452-1.094-2.474-1.094-2.26 0-3.48 2.206-3.48 2.798 0 .251.27.251.431.251.215 0 .34 0 .413-.233.52-1.632 1.81-2.17 2.546-2.17.682 0 1.004.323 1.004.897 0 .34-.25 1.327-.412 1.972l-.61 2.457c-.269 1.094-.914 1.632-1.524 1.632-.09 0-.502 0-.86-.27a1.34 1.34 0 0 0 .967-1.236c0-.395-.304-.825-.896-.825-.628 0-1.291.52-1.291 1.398 0 .95.95 1.578 2.044 1.578 1.022 0 1.686-.77 1.919-1.093.448.753 1.452 1.093 2.475 1.093 2.26 0 3.478-2.205 3.478-2.797 0-.251-.268-.251-.43-.251-.215 0-.34 0-.412.233-.52 1.632-1.812 2.17-2.547 2.17-.681 0-1.004-.323-1.004-.897 0-.376.233-1.327.394-1.99.126-.467.538-2.152.628-2.44.27-1.075.897-1.631 1.524-1.631.09 0 .503 0 .861.269zM137.079 9.259a.48.48 0 0 0-.502-.477c-.34 0-.703.326-.703.69 0 .214.163.477.502.477.364 0 .703-.351.703-.69zm-2.56 6.377c-.051.163-.114.314-.114.527 0 .59.502 1.067 1.193 1.067 1.255 0 1.807-1.732 1.807-1.92 0-.164-.163-.164-.2-.164-.176 0-.189.076-.24.214-.288 1.004-.84 1.519-1.33 1.519-.25 0-.313-.164-.313-.44 0-.288.087-.527.2-.803.126-.339.264-.678.402-1.004.113-.302.565-1.444.615-1.595a1.51 1.51 0 0 0 .075-.401c0-.59-.502-1.067-1.192-1.067-1.243 0-1.82 1.707-1.82 1.92 0 .164.175.164.213.164.176 0 .188-.063.226-.201.326-1.08.879-1.532 1.343-1.532.201 0 .314.1.314.44 0 .288-.075.477-.39 1.255z"/>
</g>
<g stroke-width="1.5">
<path d="M100.691 35.085a1.34 1.34 0 0 0-.968 1.237c0 .395.305.825.897.825.627 0 1.29-.52 1.29-1.398 0-.95-.95-1.579-2.044-1.579-1.022 0-1.685.772-1.918 1.094-.449-.753-1.453-1.094-2.475-1.094-2.26 0-3.48 2.206-3.48 2.798 0 .251.27.251.431.251.215 0 .341 0 .413-.233.52-1.632 1.811-2.17 2.546-2.17.682 0 1.004.323 1.004.897 0 .34-.25 1.327-.412 1.972l-.61 2.457c-.269 1.094-.914 1.632-1.524 1.632-.09 0-.502 0-.86-.27a1.34 1.34 0 0 0 .968-1.236c0-.395-.305-.825-.897-.825-.628 0-1.291.52-1.291 1.398 0 .95.95 1.578 2.044 1.578 1.022 0 1.686-.77 1.919-1.093.448.753 1.452 1.093 2.475 1.093 2.26 0 3.479-2.205 3.479-2.797 0-.251-.27-.251-.43-.251-.216 0-.342 0-.413.233-.52 1.632-1.811 2.17-2.547 2.17-.681 0-1.004-.323-1.004-.897 0-.376.233-1.327.395-1.99.125-.467.538-2.152.627-2.44.27-1.075.897-1.631 1.525-1.631.09 0 .502 0 .86.269zM106.965 37.12a.48.48 0 0 0-.502-.477c-.339 0-.703.326-.703.69 0 .214.163.477.502.477.364 0 .703-.351.703-.69zm-2.56 6.377c-.051.163-.114.314-.114.527 0 .59.502 1.067 1.193 1.067 1.255 0 1.807-1.732 1.807-1.92 0-.164-.163-.164-.2-.164-.176 0-.189.076-.239.214-.289 1.004-.841 1.519-1.33 1.519-.252 0-.314-.164-.314-.44 0-.288.088-.527.2-.803.126-.339.264-.678.402-1.004.113-.302.565-1.444.615-1.595a1.51 1.51 0 0 0 .076-.401c0-.59-.503-1.067-1.193-1.067-1.243 0-1.82 1.707-1.82 1.92 0 .164.176.164.213.164.176 0 .189-.063.226-.201.327-1.08.879-1.532 1.343-1.532.201 0 .314.1.314.44 0 .288-.075.477-.389 1.255zM134.595 47.957a1.34 1.34 0 0 0-.969 1.237c0 .395.305.825.897.825.628 0 1.291-.52 1.291-1.398 0-.95-.95-1.579-2.044-1.579-1.022 0-1.686.772-1.92 1.094-.447-.753-1.452-1.094-2.474-1.094-2.26 0-3.479 2.206-3.479 2.798 0 .251.27.251.43.251.216 0 .341 0 .413-.233.52-1.632 1.811-2.17 2.547-2.17.681 0 1.004.323 1.004.897 0 .34-.251 1.327-.413 1.972l-.61 2.457c-.268 1.094-.914 1.632-1.524 1.632-.09 0-.502 0-.86-.27a1.34 1.34 0 0 0 .968-1.236c0-.395-.305-.825-.897-.825-.627 0-1.29.52-1.29 1.398 0 .95.95 1.578 2.043 1.578 1.023 0 1.686-.77 1.92-1.093.448.753 1.452 1.093 2.474 1.093 2.26 0 3.479-2.205 3.479-2.797 0-.251-.27-.251-.43-.251-.216 0-.341 0-.413.233-.52 1.632-1.811 2.17-2.546 2.17-.682 0-1.005-.323-1.005-.897 0-.376.234-1.327.395-1.99.125-.467.538-2.152.628-2.44.269-1.075.896-1.631 1.524-1.631.09 0 .502 0 .86.269zM140.867 49.992a.48.48 0 0 0-.502-.477c-.34 0-.703.326-.703.69 0 .214.163.477.502.477.364 0 .703-.351.703-.69zm-2.561 6.377c-.05.163-.113.314-.113.527 0 .59.502 1.067 1.193 1.067 1.255 0 1.807-1.732 1.807-1.92 0-.164-.163-.164-.2-.164-.176 0-.189.076-.24.214-.288 1.004-.84 1.519-1.33 1.519-.25 0-.314-.164-.314-.44 0-.288.088-.527.201-.803.126-.339.264-.678.402-1.004.113-.302.565-1.444.615-1.595a1.51 1.51 0 0 0 .075-.401c0-.59-.502-1.067-1.192-1.067-1.243 0-1.82 1.707-1.82 1.92 0 .164.175.164.213.164.176 0 .188-.063.226-.201.326-1.08.879-1.532 1.343-1.532.201 0 .314.1.314.44 0 .288-.075.477-.39 1.255zM147.667 55.001h3.84c.164 0 .465 0 .465-.301 0-.314-.288-.314-.464-.314h-3.841v-3.854c0-.163 0-.464-.302-.464-.313 0-.313.288-.313.464v3.854h-3.854c-.163 0-.465 0-.465.301 0 .314.289.314.465.314h3.854v3.854c0 .163 0 .464.3.464.315 0 .315-.289.315-.464zM157.028 49.854c0-.339-.025-.351-.377-.351-.803.79-1.946.803-2.46.803v.452c.301 0 1.13 0 1.82-.352v6.402c0 .415 0 .578-1.255.578h-.477v.452c.226-.012 1.77-.05 2.234-.05.39 0 1.97.037 2.247.05v-.452h-.477c-1.255 0-1.255-.163-1.255-.578z"/>
</g>
<path d="M-36.33 312.368a.181.181 0 0 0-.196-.18c-.054 0-.072.019-.27.216l-1.255 1.38c-.161-.25-.986-1.595-2.976-1.595-4 0-8.034 3.963-8.034 8.123 0 2.96 2.116 4.914 4.86 4.914 1.56 0 2.922-.718 3.873-1.542 1.668-1.47 1.972-3.103 1.972-3.157 0-.179-.179-.179-.215-.179-.107 0-.197.036-.233.18-.161.52-.574 1.793-1.811 2.833-1.237 1.004-2.367 1.309-3.3 1.309-1.614 0-3.514-.933-3.514-3.73 0-1.022.376-3.927 2.17-6.026 1.093-1.273 2.779-2.17 4.375-2.17 1.83 0 2.887 1.381 2.887 3.462 0 .717-.054.735-.054.914s.198.18.27.18c.232 0 .232-.036.322-.36z" color="#000" fill="#00f" style="isolation:auto;mix-blend-mode:normal" transform="translate(58.132 -311.689)"/>
</svg>
