<svg width="228.554" height="106.424" xmlns="http://www.w3.org/2000/svg">
<defs>
<marker id="a" overflow="visible" orient="auto">
<path d="m-10 0-4 4L0 0l-14-4z" fill-rule="evenodd" stroke="#000" stroke-width=".8pt"/>
</marker>
<marker id="b" overflow="visible" orient="auto">
<path d="m-4 0-2 2 7-2-7-2z" fill="red" fill-rule="evenodd" stroke="red" stroke-width=".4pt"/>
</marker>
</defs>
<g transform="translate(117.134 -234.1)">
<g fill="none" color="#000">
<path d="M-116.634 318.736h225.613" marker-end="url(#a)" stroke="#000" style="isolation:auto;mix-blend-mode:normal"/>
<path d="M-107.131 270.282c68.673-58.542 137.346 38.572 206.02 0" stroke="#00f" stroke-width="2" style="isolation:auto;mix-blend-mode:normal"/>
<g stroke="#000">
<path d="M-105.924 313.644v9.9M-110.316 266.493l6.37 7.578M81.347 313.644v9.9M96.508 265.942l4.761 8.68" style="isolation:auto;mix-blend-mode:normal"/>
<path d="m-105.924 318.736-1.207-48.454M81.347 318.736l17.542-48.454" stroke-dasharray="2, 2" stroke-width=".5" style="isolation:auto;mix-blend-mode:normal"/>
</g>
</g>
<g stroke-linejoin="round" stroke-miterlimit="100000">
<g stroke-width="1.5">
<path d="M-33.953 330.861c0-1.184-.322-3.676-2.152-3.676-2.492 0-5.254 5.057-5.254 9.163 0 1.686.52 3.677 2.152 3.677 2.529 0 5.254-5.147 5.254-9.164zm-5.505 2.457c.305-1.148.663-2.583 1.38-3.856.485-.878 1.148-1.883 1.955-1.883.88 0 .987 1.148.987 2.17 0 .879-.144 1.793-.574 3.569zm3.586.574c-.197.825-.573 2.349-1.255 3.64-.627 1.22-1.309 2.098-2.08 2.098-.592 0-.968-.52-.968-2.188 0-.753.107-1.793.573-3.55z"/>
<path d="M-86.703 298.682a.181.181 0 0 0-.197-.18c-.054 0-.072.019-.27.216l-1.254 1.38c-.162-.25-.987-1.595-2.977-1.595-4 0-8.034 3.963-8.034 8.123 0 2.96 2.116 4.914 4.86 4.914 1.56 0 2.923-.718 3.873-1.542 1.668-1.47 1.973-3.103 1.973-3.157 0-.179-.18-.179-.215-.179-.108 0-.198.036-.234.18-.161.52-.573 1.793-1.81 2.833-1.238 1.004-2.368 1.309-3.3 1.309-1.614 0-3.515-.933-3.515-3.73 0-1.022.376-3.927 2.17-6.026 1.093-1.273 2.78-2.17 4.375-2.17 1.83 0 2.887 1.381 2.887 3.462 0 .717-.053.735-.053.914s.197.18.269.18c.233 0 .233-.036.322-.36zM-81.15 307.722c0-1.318-.501-2.724-1.732-2.724-1.883 0-3.891 3.364-3.891 6.239 0 1.494.577 2.724 1.732 2.724 1.908 0 3.892-3.427 3.892-6.239zm-4.205 1.531c.64-2.711 1.72-3.904 2.46-3.904.804 0 .804 1.394.804 1.632 0 .49-.1 1.218-.364 2.272zm2.787.452c-.351 1.369-.64 2.047-1.017 2.662-.389.652-.89 1.242-1.443 1.242-.69 0-.804-.954-.804-1.632 0-.828.239-1.807.364-2.272z" fill="green"/>
</g>
<g stroke-width="1.333">
<path d="M1.623 242.611a1.714 1.714 0 0 0-1.24 1.584c0 .505.391 1.056 1.148 1.056.804 0 1.653-.666 1.653-1.79 0-1.217-1.216-2.02-2.617-2.02-1.308 0-2.157.986-2.456 1.4-.574-.965-1.859-1.4-3.167-1.4-2.892 0-4.453 2.823-4.453 3.58 0 .321.344.321.55.321.276 0 .437 0 .528-.298.666-2.089 2.319-2.777 3.26-2.777.872 0 1.285.413 1.285 1.147 0 .437-.321 1.699-.528 2.525l-.78 3.145c-.344 1.4-1.17 2.089-1.951 2.089-.115 0-.643 0-1.102-.345a1.714 1.714 0 0 0 1.24-1.583c0-.505-.39-1.056-1.148-1.056-.803 0-1.653.665-1.653 1.79 0 1.217 1.217 2.02 2.617 2.02 1.308 0 2.158-.987 2.456-1.4.574.964 1.86 1.4 3.168 1.4 2.892 0 4.453-2.823 4.453-3.58 0-.322-.345-.322-.551-.322-.276 0-.436 0-.528.298-.666 2.09-2.318 2.778-3.26 2.778-.872 0-1.285-.413-1.285-1.148 0-.482.298-1.698.505-2.548.16-.597.689-2.754.803-3.122.345-1.377 1.148-2.088 1.951-2.088.115 0 .643 0 1.102.344zM15.872 257.325c0-.069 0-.115-.39-.505-2.87-2.892-3.604-7.23-3.604-10.742 0-3.994.872-7.988 3.696-10.858.298-.275.298-.32.298-.39 0-.16-.092-.23-.23-.23-.23 0-2.295 1.562-3.65 4.477-1.17 2.525-1.445 5.073-1.445 7 0 1.791.252 4.568 1.515 7.162 1.377 2.824 3.35 4.316 3.58 4.316.138 0 .23-.07.23-.23zM27.644 240.339c0-1.515-.413-4.706-2.754-4.706-3.19 0-6.726 6.473-6.726 11.73 0 2.158.666 4.705 2.755 4.705 3.236 0 6.725-6.587 6.725-11.729zm-7.046 3.145c.39-1.47.849-3.306 1.767-4.935.62-1.125 1.47-2.41 2.502-2.41 1.125 0 1.262 1.468 1.262 2.777 0 1.125-.183 2.295-.734 4.568zm4.59.734c-.252 1.056-.734 3.007-1.606 4.66-.804 1.56-1.676 2.685-2.663 2.685-.758 0-1.24-.665-1.24-2.8 0-.964.138-2.295.735-4.545zM35.206 246.077c0-1.79-.252-4.568-1.515-7.162-1.377-2.823-3.351-4.315-3.58-4.315-.138 0-.23.092-.23.23 0 .068 0 .114.436.527 2.25 2.273 3.558 5.923 3.558 10.72 0 3.925-.85 7.965-3.696 10.857-.298.276-.298.322-.298.39 0 .138.092.23.23.23.229 0 2.295-1.56 3.649-4.476 1.17-2.525 1.446-5.073 1.446-7.001z"/>
</g>
</g>
<path d="m-9.805 260.813-24.597 52.662" color="#000" fill="none" marker-end="url(#b)" stroke="red" stroke-width="2" style="isolation:auto;mix-blend-mode:normal"/>
<circle cx="-9.802" cy="260.814" r="3.801" style="font-variant-east_asian:normal"/>
<g fill="red">
<path d="M-8.84 300.7v-11.283h1.026V300.7zm-6.76.088-.12-.894h1.777q.875 0 1.203-.662.334-.668.334-2.551 0-.101-.013-.668h-4.41l-.075.592h-.977l.58-4.132h4.592v-1.802h-4.983v-.794h5.998v3.408h-4.738l-.29 1.884h5.355q0 1.43-.025 2.142t-.176 1.543q-.145.832-.366 1.153-.214.315-.649.548t-.982.233zM4.502 296.971l-.693.7q-.686-.46-1.694-.732-1.008-.277-1.947-.277-2.04 0-2.74.429-.693.422-.693 1.171 0 .656.806 1.027.807.372 3.169.372 2.092 0 3.704-.265l.025.908q-1.404.233-3.754.233-2.715 0-3.837-.58-1.121-.586-1.121-1.695 0-1.184 1.065-1.801 1.07-.624 2.86-.624 1.927 0 3.37.542-.63-.813-1.165-1.82H-4.67v-.813h6.136q-.347-.782-.573-1.506h-5.204v-.813H.634q-.201-.806-.308-1.575l1.001-.088q.183 1.128.322 1.663h3.64v.813H1.876q.17.53.567 1.506h3.453v.812H2.852q.523.97 1.65 2.413zM7.936 290.614v-.756h11.106v.756zm1.631 3.68q0 1.794-.466 3.508-.46 1.707-1.392 2.93l-.655-.542q.693-.952 1.109-2.501.415-1.556.415-3.289v-2.721h9.84v2.614zm7.932-1.922H9.567v1.215H17.5zm-3.345 5.235q-.441 1.234-1.77 2.11-1.33.876-2.898 1.147l-.278-.725q1.437-.29 2.646-1.115 1.21-.825 1.575-2.135H10.09v-.788h3.503v-1.342h1.027v1.342h4.435v.788H14.67q1.216 2.28 4.53 3.13l-.542.807q-3.257-.939-4.504-3.22zM31.818 295.66q-.712 2.52-2.098 3.704t-3.565 1.185q-.85 0-1.512-.17t-1.134-.504q-.473-.34-.756-.845-.284-.51-.366-1.102-.075-.592-.075-1.96 0-2.324.277-5.707h1.033q-.334 3.244-.334 5.758 0 .876.038 1.48.044.599.366 1.11.327.51.97.774t1.594.265q1.707 0 2.84-.958 1.135-.964 1.84-3.358z"/>
</g>
<path d="M-91.747 243.524a.181.181 0 0 0-.197-.18c-.054 0-.072.019-.27.216l-1.255 1.38c-.161-.25-.986-1.595-2.977-1.595-3.999 0-8.033 3.963-8.033 8.123 0 2.96 2.116 4.914 4.86 4.914 1.56 0 2.922-.718 3.873-1.542 1.668-1.47 1.972-3.103 1.972-3.157 0-.179-.179-.179-.215-.179-.107 0-.197.036-.233.18-.161.52-.574 1.793-1.811 2.833-1.237 1.004-2.367 1.309-3.3 1.309-1.614 0-3.515-.933-3.515-3.73 0-1.022.377-3.927 2.17-6.026 1.094-1.273 2.78-2.17 4.376-2.17 1.829 0 2.887 1.381 2.887 3.462 0 .717-.054.735-.054.914 0 .18.198.18.27.18.232 0 .232-.036.322-.36z" fill="#00f"/>
<path d="M-105.918 318.736H81.288" color="#000" fill="none" stroke="green" stroke-width="2" style="isolation:auto;mix-blend-mode:normal"/>
<circle cx="-36.859" cy="318.594" r="3.801"/>
</g>
</svg>
