<svg width="149.178" height="75.684" xmlns="http://www.w3.org/2000/svg">
<defs>
<marker id="b" overflow="visible" orient="auto">
<path d="m10 0 4-4L0 0l14 4z" fill="red" fill-rule="evenodd" stroke="red" stroke-width=".8pt"/>
</marker>
<marker id="a" overflow="visible" orient="auto">
<path d="m-10 0-4 4L0 0l-14-4z" fill="red" fill-rule="evenodd" stroke="red" stroke-width=".8pt"/>
</marker>
</defs>
<g stroke-linejoin="round">
<g stroke-miterlimit="100000">
<path d="M54.84 2.198h93.338l-53.74 57.276H1.1z" fill="#e4e4e4" stroke="#000"/>
<path d="M93.027 20.842c-.873.031-1.497.717-1.497 1.403 0 .436.281.904.967.904s1.434-.53 1.434-1.746c0-1.403-1.34-2.681-3.71-2.681-4.116 0-5.27 3.18-5.27 4.552 0 2.432 2.308 2.9 3.212 3.086 1.621.312 3.243.655 3.243 2.37 0 .81-.717 3.43-4.459 3.43-.436 0-2.837 0-3.554-1.653a1.703 1.703 0 0 0 1.964-1.652c0-.717-.499-1.092-1.153-1.092-.811 0-1.746.655-1.746 2.058 0 1.777 1.777 3.024 4.458 3.024 5.05 0 6.267-3.772 6.267-5.175 0-1.122-.593-1.902-.967-2.276-.842-.873-1.746-1.029-3.117-1.31-1.123-.249-2.37-.467-2.37-1.87 0-.904.748-2.806 3.492-2.806.78 0 2.338.218 2.806 1.434z"/>
<path d="M49.949 68.967c.115-.478.306-1.243.306-1.415 0-.613-.497-.842-.899-.842-.363 0-.746.191-.976.478-.286-.306-.918-.803-2.027-.803-3.328 0-5.394 3.022-5.394 5.643 0 2.352 1.76 3.156 3.347 3.156 1.358 0 2.353-.746 2.659-1.033.727 1.033 1.99 1.033 2.2 1.033.707 0 1.262-.402 1.664-1.09.478-.766.727-1.799.727-1.894 0-.268-.287-.268-.46-.268-.21 0-.286 0-.382.096-.038.038-.038.076-.153.554-.382 1.53-.822 1.913-1.3 1.913-.211 0-.44-.076-.44-.708 0-.325.076-.63.267-1.396.134-.536.325-1.3.421-1.722zm-3.175 4.285c-.555.65-1.454 1.243-2.372 1.243-1.186 0-1.282-1.033-1.282-1.454 0-.994.65-3.347.957-4.093.593-1.396 1.53-1.875 2.314-1.875 1.129 0 1.588.9 1.588 1.11l-.039.268zM15.795 17.74c.077-.268.077-.306.077-.325 0-.249-.21-.344-.42-.344-.077 0-.096 0-.135.019l-2.467.114c-.268.02-.612.039-.612.574 0 .345.363.345.497.345.21 0 .555 0 .803.038-.153.65-.344 1.473-.535 2.2l-1.32 5.279c-.268 1.071-.268 1.3-.268 1.74 0 2.449 1.817 3.119 3.252 3.119 3.462 0 5.432-3.118 5.432-5.643 0-2.353-1.76-3.156-3.347-3.156-.918 0-1.683.363-2.085.612zm-1.09 12.07c-.746 0-1.377-.402-1.377-1.588 0-.612.191-1.32.325-1.913.191-.726.517-2.046.65-2.62.096-.325 1.186-1.3 2.353-1.3 1.186 0 1.282 1.032 1.282 1.453 0 .995-.65 3.347-.957 4.093-.65 1.55-1.721 1.875-2.276 1.875z" fill="red"/>
</g>
<path d="M17.195 42.136a23.657 23.657 0 0 1 7.562 17.518" fill="none" stroke="#260000" stroke-miterlimit="100" stroke-width="1.2"/>
<path d="M82.706 328.945h-93.338l53.74-57.276" fill="none" marker-end="url(#a)" marker-start="url(#b)" stroke="red" stroke-miterlimit="100" stroke-width="1.2" transform="translate(11.732 -269.471)"/>
<path d="M37.757 43.368c0-1.262-.344-3.921-2.295-3.921-2.659 0-5.605 5.394-5.605 9.774 0 1.798.555 3.922 2.296 3.922 2.697 0 5.604-5.49 5.604-9.775zm-5.872 2.62c.325-1.224.708-2.754 1.473-4.112.516-.937 1.224-2.008 2.085-2.008.937 0 1.052 1.224 1.052 2.314 0 .937-.153 1.913-.612 3.807zm3.825.613c-.21.88-.612 2.505-1.339 3.883-.669 1.3-1.396 2.238-2.218 2.238-.632 0-1.033-.555-1.033-2.334 0-.803.114-1.913.612-3.787z"/>
</g>
</svg>
