<svg width="182.286" height="144.19" xmlns="http://www.w3.org/2000/svg">
<defs>
<marker id="a" overflow="visible" orient="auto">
<path d="m-10 0-4 4L0 0l-14-4z" fill-rule="evenodd" stroke="#000" stroke-width=".8pt"/>
</marker>
<marker id="b" overflow="visible" orient="auto">
<path d="m-10 0-4 4L0 0l-14-4z" fill-rule="evenodd" stroke="#000" stroke-width=".8pt"/>
</marker>
<marker id="c" overflow="visible" orient="auto">
<path d="m-4 0-2 2 7-2-7-2z" fill="red" fill-rule="evenodd" stroke="red" stroke-width=".4pt"/>
</marker>
<marker id="d" overflow="visible" orient="auto">
<path d="m-4 0-2 2 7-2-7-2z" fill="red" fill-rule="evenodd" stroke="red" stroke-width=".4pt"/>
</marker>
<marker id="e" overflow="visible" orient="auto">
<path d="m-4 0-2 2 7-2-7-2z" fill="red" fill-rule="evenodd" stroke="red" stroke-width=".4pt"/>
</marker>
<marker id="f" overflow="visible" orient="auto">
<path d="m-4 0-2 2 7-2-7-2z" fill="red" fill-rule="evenodd" stroke="red" stroke-width=".4pt"/>
</marker>
</defs>
<g color="#000">
<path d="M.5 134.19h165.431" fill="none" marker-end="url(#a)" stroke="#000" stroke-width=".8" style="isolation:auto;mix-blend-mode:normal"/>
<path d="M11.5 143.69V38.208" fill="none" marker-end="url(#b)" stroke="#000" stroke-width=".8" style="isolation:auto;mix-blend-mode:normal"/>
<path d="M1.779 69.891h125.343l9.721 64.299H11.5z" fill="#e2fbe2" stroke="#008400" style="isolation:auto;mix-blend-mode:normal"/>
<path d="M66.96 7.641c35.882-21.543 48.583 17.844 98.103-.64l16.104 53.11c-66.472 22.431-83.522-41.19-128.374 0z" fill="#ebeaff" stroke="#00f" style="isolation:auto;mix-blend-mode:normal"/>
</g>
<g fill="none" color="#000">
<path d="m91.88 22.666 18.701 6.6 1.262 17.62" stroke="#000" stroke-width=".8" style="isolation:auto;mix-blend-mode:normal"/>
<path d="m89.73 40.203 20.776 6.278" marker-end="url(#c)" stroke="red" stroke-linecap="round" style="isolation:auto;mix-blend-mode:normal"/>
<path d="m89.73 40.203 1.952-15.911" marker-end="url(#d)" stroke="red" stroke-linecap="round" style="isolation:auto;mix-blend-mode:normal"/>
<path d="M66.176 106.616h25.431v19.2" stroke="#000" stroke-width=".8" style="isolation:auto;mix-blend-mode:normal"/>
<path d="M66.176 125.816h25.431" marker-end="url(#e)" stroke="red" stroke-linecap="round" style="isolation:auto;mix-blend-mode:normal"/>
<path d="M66.176 125.816v-19.2" marker-end="url(#f)" stroke="red" stroke-linecap="round" style="isolation:auto;mix-blend-mode:normal"/>
<g stroke="#000" stroke-dasharray="2, 2" stroke-width=".5">
<path d="m11.5 134.19 41.293-74.08M1.779 69.891l65.18-61.67M127.122 69.891l37.942-62.367M136.843 134.19l44.324-74.079" style="isolation:auto;mix-blend-mode:normal"/>
</g>
</g>
<g stroke-linejoin="round" stroke-miterlimit="100000" stroke-width="1.5">
<path d="M179.385 131.447c0-1.184-.323-3.676-2.152-3.676-2.493 0-5.254 5.057-5.254 9.163 0 1.686.52 3.677 2.152 3.677 2.528 0 5.254-5.147 5.254-9.164zm-5.505 2.457c.304-1.148.663-2.583 1.38-3.856.485-.878 1.148-1.883 1.955-1.883.879 0 .986 1.148.986 2.17 0 .879-.143 1.793-.573 3.569zm3.586.574c-.197.825-.574 2.349-1.255 3.64-.628 1.22-1.31 2.098-2.08 2.098-.592 0-.969-.52-.969-2.188 0-.753.108-1.793.574-3.55zM13.76 15.258c0-.036.053-.233.053-.251 0-.018 0-.18-.215-.18-.18 0-.197.055-.269.36l-1.04 4.142c-2.851.09-5.487 2.474-5.487 4.913 0 1.704 1.255 3.12 3.443 3.246-.144.556-.27 1.13-.413 1.686-.215.843-.394 1.524-.394 1.578 0 .18.125.197.215.197s.126-.018.18-.072c.035-.035.143-.466.197-.717l.681-2.672c2.887-.09 5.487-2.51 5.487-4.913 0-1.417-.95-3.067-3.443-3.246zm-3.426 11.836c-1.076-.054-2.367-.682-2.367-2.475 0-2.152 1.543-4.663 4.215-4.896zm2.314-7.37c1.363.07 2.385.896 2.385 2.474 0 2.116-1.542 4.68-4.232 4.896z"/>
</g>
<g fill="red">
<g fill="green" stroke-linejoin="round" stroke-miterlimit="100000" stroke-width="1.5">
<path d="M99.433 121.844c-2.242.538-3.981 2.87-3.981 5.04 0 1.72 1.147 3.012 2.833 3.012 2.098 0 3.587-2.816 3.587-5.29 0-1.632-.718-2.529-1.327-3.336-.646-.807-1.704-2.152-1.704-2.94 0-.395.359-.826.986-.826.538 0 .897.233 1.273.484.36.216.718.449.987.449.448 0 .717-.43.717-.718 0-.394-.287-.448-.932-.591-.933-.198-1.184-.198-1.47-.198-1.4 0-2.045.772-2.045 1.847 0 .969.52 1.973 1.076 3.067zm.215.395c.448.824.986 1.793.986 3.084 0 1.184-.681 4.178-2.349 4.178-.986 0-1.722-.753-1.722-2.116 0-1.13.664-4.5 3.085-5.146zM111.477 120.714c0-1.184-.323-3.676-2.152-3.676-2.493 0-5.254 5.057-5.254 9.163 0 1.686.52 3.677 2.152 3.677 2.528 0 5.254-5.147 5.254-9.164zm-5.505 2.457c.305-1.148.663-2.583 1.38-3.856.485-.878 1.148-1.883 1.955-1.883.879 0 .986 1.148.986 2.17 0 .879-.143 1.793-.573 3.569zm3.586.574c-.197.825-.574 2.349-1.255 3.64-.628 1.22-1.31 2.098-2.08 2.098-.592 0-.969-.52-.969-2.188 0-.753.108-1.793.574-3.55zM115.771 124.525a.48.48 0 0 0-.502-.477c-.34 0-.703.326-.703.69 0 .214.163.477.502.477.364 0 .703-.351.703-.69zm-2.56 6.377c-.051.163-.114.314-.114.527 0 .59.502 1.067 1.193 1.067 1.255 0 1.807-1.732 1.807-1.92 0-.164-.163-.164-.2-.164-.176 0-.189.076-.239.214-.289 1.004-.841 1.519-1.33 1.519-.252 0-.314-.164-.314-.44 0-.288.087-.527.2-.803.126-.339.264-.678.402-1.004.113-.302.565-1.444.615-1.595a1.51 1.51 0 0 0 .076-.401c0-.59-.503-1.067-1.193-1.067-1.243 0-1.82 1.707-1.82 1.92 0 .164.176.164.213.164.176 0 .189-.063.226-.201.327-1.08.879-1.532 1.343-1.532.201 0 .314.1.314.44 0 .288-.075.477-.389 1.255zM41.752 104.193c-2.241.538-3.981 2.87-3.981 5.04 0 1.72 1.148 3.012 2.833 3.012 2.099 0 3.587-2.816 3.587-5.29 0-1.632-.717-2.529-1.327-3.336-.646-.807-1.704-2.152-1.704-2.94 0-.395.359-.826.987-.826.538 0 .896.233 1.273.484.359.216.717.449.986.449.448 0 .717-.43.717-.718 0-.394-.286-.448-.932-.591-.933-.198-1.184-.198-1.47-.198-1.4 0-2.045.772-2.045 1.847 0 .969.52 1.973 1.076 3.067zm.215.395c.449.824.987 1.793.987 3.084 0 1.184-.682 4.178-2.35 4.178-.986 0-1.721-.753-1.721-2.116 0-1.13.663-4.5 3.084-5.146zM53.473 100.014c0-.036.054-.233.054-.251 0-.018 0-.18-.215-.18-.18 0-.197.055-.269.36l-1.04 4.142c-2.851.09-5.488 2.474-5.488 4.913 0 1.704 1.256 3.12 3.444 3.246-.144.556-.27 1.13-.413 1.686-.215.843-.394 1.524-.394 1.578 0 .18.125.197.215.197s.125-.018.18-.072c.035-.035.143-.466.196-.717l.682-2.672c2.887-.09 5.487-2.51 5.487-4.913 0-1.417-.95-3.067-3.443-3.246zm-3.425 11.836c-1.076-.054-2.367-.682-2.367-2.475 0-2.152 1.542-4.663 4.214-4.896zm2.314-7.37c1.362.07 2.385.896 2.385 2.474 0 2.116-1.543 4.68-4.232 4.896zM60.35 106.873a.48.48 0 0 0-.503-.477c-.339 0-.703.326-.703.69 0 .214.164.477.502.477.364 0 .703-.351.703-.69zm-2.561 6.377c-.05.163-.113.314-.113.527 0 .59.502 1.067 1.192 1.067 1.255 0 1.808-1.732 1.808-1.92 0-.164-.163-.164-.201-.164-.176 0-.188.076-.239.214-.288 1.004-.84 1.519-1.33 1.519-.251 0-.314-.164-.314-.44 0-.288.088-.527.2-.803.126-.339.264-.678.403-1.004.113-.302.564-1.444.615-1.595a1.51 1.51 0 0 0 .075-.401c0-.59-.502-1.067-1.193-1.067-1.242 0-1.82 1.707-1.82 1.92 0 .164.176.164.214.164.175 0 .188-.063.226-.201.326-1.08.878-1.532 1.343-1.532.2 0 .314.1.314.44 0 .288-.076.477-.39 1.255z"/>
</g>
<path d="m96.112 54.368-20.89 32.94 10.654-5.795-9.857 33.503 4.096 1.21 9.86-33.513 5.8 10.658z" color="#000" style="isolation:auto;mix-blend-mode:normal;text-decoration-color:#000;text-decoration-line:none;text-decoration-style:solid;text-indent:0;text-transform:none;white-space:normal"/>
</g>
<g fill="red" color="#000">
<path d="M118.887 45.401c-2.242.538-3.981 2.87-3.981 5.04 0 1.72 1.148 3.012 2.833 3.012 2.098 0 3.587-2.816 3.587-5.29 0-1.632-.717-2.529-1.327-3.336-.646-.807-1.704-2.152-1.704-2.94 0-.395.359-.826.987-.826.538 0 .896.233 1.273.484.358.216.717.449.986.449.448 0 .717-.43.717-.718 0-.394-.287-.448-.932-.591-.933-.198-1.184-.198-1.47-.198-1.4 0-2.045.772-2.045 1.848 0 .968.52 1.972 1.076 3.066zm.215.395c.449.824.986 1.793.986 3.084 0 1.184-.68 4.178-2.349 4.178-.986 0-1.721-.753-1.721-2.116 0-1.13.663-4.5 3.084-5.146zM132.384 46.047a1.34 1.34 0 0 0-.968 1.237c0 .395.304.825.896.825.628 0 1.291-.52 1.291-1.398 0-.95-.95-1.579-2.044-1.579-1.022 0-1.686.772-1.919 1.094-.448-.753-1.452-1.094-2.474-1.094-2.26 0-3.48 2.206-3.48 2.798 0 .251.27.251.431.251.215 0 .34 0 .412-.233.52-1.632 1.812-2.17 2.547-2.17.681 0 1.004.323 1.004.897 0 .34-.25 1.327-.412 1.972l-.61 2.457c-.269 1.094-.915 1.632-1.524 1.632-.09 0-.502 0-.861-.27a1.34 1.34 0 0 0 .968-1.236c0-.395-.305-.825-.896-.825-.628 0-1.292.52-1.292 1.398 0 .95.95 1.578 2.045 1.578 1.022 0 1.685-.77 1.919-1.093.448.753 1.452 1.093 2.474 1.093 2.26 0 3.48-2.205 3.48-2.797 0-.251-.27-.251-.431-.251-.215 0-.34 0-.413.233-.52 1.632-1.81 2.17-2.546 2.17-.681 0-1.004-.323-1.004-.897 0-.376.233-1.327.394-1.99.126-.467.538-2.152.628-2.44.269-1.075.897-1.631 1.524-1.631.09 0 .502 0 .861.269zM138.656 48.082a.48.48 0 0 0-.502-.477c-.339 0-.703.326-.703.69 0 .214.163.477.502.477.364 0 .703-.351.703-.69zm-2.56 6.377c-.051.163-.114.314-.114.527 0 .59.502 1.067 1.193 1.067 1.255 0 1.807-1.732 1.807-1.92 0-.164-.163-.164-.2-.164-.176 0-.189.076-.239.214-.289 1.004-.841 1.519-1.33 1.519-.252 0-.314-.164-.314-.44 0-.288.088-.527.2-.803.126-.339.264-.678.402-1.004.113-.302.565-1.444.615-1.595a1.51 1.51 0 0 0 .076-.401c0-.59-.503-1.067-1.193-1.067-1.243 0-1.82 1.707-1.82 1.92 0 .164.176.164.213.164.176 0 .189-.063.226-.201.327-1.08.879-1.532 1.343-1.532.201 0 .314.1.314.44 0 .288-.075.477-.389 1.255zM91.198 8.757c-2.241.538-3.98 2.87-3.98 5.04 0 1.72 1.147 3.012 2.833 3.012 2.098 0 3.586-2.816 3.586-5.29 0-1.632-.717-2.529-1.327-3.336-.645-.807-1.703-2.152-1.703-2.94 0-.395.358-.826.986-.826.538 0 .897.233 1.273.484.359.216.717.449.986.449.449 0 .718-.43.718-.718 0-.394-.287-.448-.933-.591-.932-.198-1.183-.198-1.47-.198-1.399 0-2.045.772-2.045 1.848 0 .968.52 1.972 1.076 3.066zm.216.395c.448.824.986 1.793.986 3.084 0 1.184-.682 4.178-2.35 4.178-.986 0-1.72-.753-1.72-2.116 0-1.13.663-4.5 3.084-5.146zM105.43 9.833c.09-.323.09-.359.09-.412 0-.395-.287-.79-.843-.79-.933 0-1.148.843-1.273 1.328l-.467 1.865c-.215.86-.556 2.241-.753 2.976-.09.395-.645.825-.7.861-.196.126-.627.43-1.219.43-1.058 0-1.076-.896-1.076-1.309 0-1.093.556-2.492 1.058-3.783.18-.467.234-.592.234-.897 0-1.04-1.04-1.614-2.027-1.614-1.9 0-2.797 2.439-2.797 2.798 0 .25.269.25.43.25.215 0 .34 0 .413-.233.591-1.99 1.578-2.17 1.847-2.17.125 0 .304 0 .304.377 0 .413-.197.879-.304 1.166-.7 1.793-1.076 2.815-1.076 3.73 0 2.044 1.793 2.331 2.85 2.331.45 0 1.059-.072 1.722-.538-.502 2.206-1.847 3.371-3.084 3.371-.233 0-.735-.035-1.094-.25.574-.234.86-.718.86-1.202 0-.646-.52-.825-.878-.825-.663 0-1.29.574-1.29 1.363 0 .914.95 1.56 2.402 1.56 2.062 0 4.43-1.38 4.985-3.604zM110.399 13.132a.48.48 0 0 0-.502-.477c-.34 0-.703.326-.703.69 0 .214.163.477.502.477.364 0 .703-.351.703-.69zm-2.56 6.377c-.051.163-.114.314-.114.527 0 .59.502 1.067 1.193 1.067 1.255 0 1.807-1.732 1.807-1.92 0-.164-.163-.164-.2-.164-.176 0-.189.076-.239.214-.289 1.004-.841 1.519-1.33 1.519-.252 0-.314-.164-.314-.44 0-.288.088-.527.2-.803.126-.339.264-.678.402-1.004.113-.302.565-1.444.615-1.595a1.51 1.51 0 0 0 .076-.401c0-.59-.503-1.067-1.193-1.067-1.243 0-1.82 1.707-1.82 1.92 0 .164.176.164.213.164.176 0 .189-.063.226-.201.327-1.08.879-1.532 1.343-1.532.201 0 .314.1.314.44 0 .288-.075.477-.389 1.255z" style="isolation:auto;mix-blend-mode:normal"/>
</g>
</svg>
