<svg width="175.731" height="92.217" viewBox="0 0 46.495 24.399" xml:space="preserve" xmlns="http://www.w3.org/2000/svg">
<g transform="translate(205.403 -798.662)">
<path d="M-193.838 800.556c12.917-7 11.139 9.519 28.965 3.513l5.797 17.257c-23.928 7.288-30.066-13.384-46.211 0z" color="#000" fill="#ebeaff" stroke="#00f" style="isolation:auto;mix-blend-mode:normal;stroke-width:.264583"/>
<path d="m-185.999 808.018 4.413 2.44-.263 3.98-5.254-2.636z" color="#000" fill="none" stroke="red" style="isolation:auto;mix-blend-mode:normal;stroke-width:.264583"/>
<path d="M-190.483 801.404a.048.048 0 0 0-.052-.047c-.024 0-.028.005-.085.071l-.228.27c-.123-.222-.37-.341-.678-.341-.603 0-1.172.546-1.172 1.12 0 .384.251.602.493.674l.508.132c.175.043.436.114.436.503 0 .427-.389.873-.854.873-.303 0-.83-.104-.83-.692 0-.114.024-.228.028-.257.005-.019.01-.023.01-.033 0-.047-.033-.052-.057-.052-.023 0-.033.005-.047.019-.019.019-.285 1.1-.285 1.115 0 .028.024.047.053.047.023 0 .028-.005.085-.07l.232-.271c.204.275.527.341.802.341.646 0 1.205-.63 1.205-1.219a.71.71 0 0 0-.232-.555c-.11-.11-.18-.128-.603-.237-.104-.029-.275-.076-.318-.086a.44.44 0 0 1-.289-.432c0-.384.38-.787.83-.787.394 0 .684.204.684.735 0 .152-.02.237-.02.266 0 .005 0 .047.058.047.047 0 .052-.014.07-.094z" fill="#00f" style="stroke-width:.396875;stroke-linejoin:round;stroke-miterlimit:100000"/>
<path d="M-189.288 812.372a.354.354 0 0 0-.256.328c0 .104.08.218.237.218.167 0 .342-.138.342-.37 0-.252-.251-.418-.54-.418-.271 0-.447.204-.508.29-.12-.2-.385-.29-.655-.29-.598 0-.92.584-.92.74 0 .067.07.067.113.067.057 0 .09 0 .11-.062.137-.432.478-.574.673-.574.18 0 .266.085.266.237 0 .09-.067.351-.11.522l-.16.65c-.072.29-.243.432-.404.432-.024 0-.133 0-.228-.071a.354.354 0 0 0 .256-.328c0-.104-.08-.218-.237-.218-.166 0-.341.138-.341.37 0 .252.251.418.54.418.27 0 .446-.204.508-.29.119.2.384.29.655.29.598 0 .92-.584.92-.74 0-.067-.07-.067-.113-.067-.057 0-.09 0-.11.062-.137.432-.479.574-.673.574-.18 0-.266-.086-.266-.237 0-.1.062-.351.104-.527.034-.123.143-.57.166-.645.072-.285.238-.432.404-.432.023 0 .133 0 .227.071zM-187.628 812.91a.127.127 0 0 0-.133-.126c-.09 0-.186.087-.186.183 0 .057.043.126.133.126.096 0 .186-.093.186-.182zm-.678 1.688c-.013.043-.03.083-.03.14 0 .155.133.282.316.282.332 0 .478-.459.478-.509 0-.043-.043-.043-.053-.043-.046 0-.05.02-.063.057-.076.265-.222.402-.352.402-.066 0-.083-.044-.083-.117 0-.076.023-.14.053-.212.033-.09.07-.18.106-.266.03-.08.15-.382.163-.422a.398.398 0 0 0 .02-.106c0-.156-.133-.282-.315-.282-.33 0-.482.451-.482.508 0 .043.046.043.056.043.047 0 .05-.017.06-.053.087-.286.233-.405.356-.405.053 0 .083.026.083.116 0 .076-.02.126-.103.332z" style="stroke-width:.396875;stroke-linejoin:round;stroke-miterlimit:100000"/>
<g fill="red" stroke-linejoin="round" stroke-miterlimit="100000" stroke-width="1.5">
<path d="M-178.275 808.983c-.593.142-1.053.76-1.053 1.333 0 .456.303.797.75.797.555 0 .948-.744.948-1.4 0-.431-.19-.668-.35-.882-.172-.213-.452-.57-.452-.778 0-.104.095-.218.261-.218.143 0 .238.062.337.128.095.057.19.119.261.119.119 0 .19-.114.19-.19 0-.105-.076-.119-.247-.157-.246-.052-.313-.052-.389-.052-.37 0-.54.204-.54.489 0 .256.137.522.284.811zm.057.104c.119.219.26.475.26.817 0 .313-.18 1.105-.62 1.105-.262 0-.456-.2-.456-.56 0-.299.175-1.19.816-1.362zM-175.392 809.282c-.133.005-.228.109-.228.213 0 .067.043.138.147.138.105 0 .219-.08.219-.266 0-.213-.204-.408-.565-.408-.626 0-.802.484-.802.693 0 .37.351.441.489.47.247.047.493.1.493.36 0 .124-.109.522-.678.522-.067 0-.432 0-.541-.251a.26.26 0 0 0 .299-.252c0-.109-.076-.166-.176-.166-.123 0-.265.1-.265.313 0 .27.27.46.678.46.769 0 .954-.574.954-.787 0-.17-.09-.29-.147-.346-.128-.133-.266-.157-.475-.2-.17-.038-.36-.07-.36-.284 0-.138.113-.427.531-.427.119 0 .356.033.427.218zM-173.955 809.692a.127.127 0 0 0-.133-.126c-.09 0-.186.087-.186.183 0 .056.043.126.133.126.096 0 .186-.093.186-.183zm-.678 1.688c-.013.043-.03.083-.03.14 0 .155.133.281.316.281.332 0 .478-.458.478-.508 0-.043-.043-.043-.053-.043-.047 0-.05.02-.063.057-.077.265-.223.401-.352.401-.067 0-.083-.043-.083-.116 0-.076.023-.14.053-.212.033-.09.07-.18.106-.266.03-.08.15-.382.163-.422a.4.4 0 0 0 .02-.106c0-.156-.133-.282-.316-.282-.328 0-.481.451-.481.508 0 .043.046.043.056.043.047 0 .05-.017.06-.053.086-.286.232-.405.355-.405.054 0 .083.026.083.116 0 .076-.02.126-.103.332z"/>
</g>
<circle cx="-187.103" cy="811.802" r=".397" style="stroke-width:.264583"/>
</g>
</svg>
