<svg width="211.159" height="108.315" viewBox="0 0 55.869 28.658" xml:space="preserve" xmlns="http://www.w3.org/2000/svg">
<path d="M-206.267 841.532c18.17-15.489 36.34 10.206 54.51 0" color="#000" fill="none" stroke="#00f" stroke-width=".529" style="isolation:auto;mix-blend-mode:normal" transform="translate(206.439 -834.26)"/>
<path d="M-191.578 854.821a20.447 20.447 0 0 0-4.137.347v.534a19.957 19.957 0 0 1 4.13-.352c1.484.024 2.972.198 4.462.475v-.54a27.105 27.105 0 0 0-4.455-.464zm-4.666.457c-3.049.667-6.1 2.118-9.136 4.706l.343.403c2.94-2.507 5.866-3.913 8.793-4.57zm9.65.109v.54c2.446.495 4.9 1.264 7.36 2.112v-.56c-2.447-.841-4.9-1.602-7.36-2.092zm7.889 2.275v.561l.663.23c1.892.67 3.787 1.365 5.687 2.007v-.56c-1.834-.622-3.671-1.295-5.511-1.946l-.84-.292zm27.876 2.293c-.959.538-1.916.97-2.873 1.317v.56c1.044-.366 2.089-.83 3.132-1.416zm-20.997.122v.56c2.2.729 4.404 1.373 6.614 1.789v-.539c-2.199-.42-4.404-1.072-6.614-1.81zm17.594 1.383a18.47 18.47 0 0 1-3.836.818v.528a19.116 19.116 0 0 0 3.836-.795zm-10.45.522v.537c.104.018.208.038.313.055 1.919.309 3.844.43 5.772.281v-.528c-1.892.15-3.787.03-5.688-.276-.132-.02-.265-.046-.398-.07z" color="#000" fill="#00f" style="font-variant-ligatures:normal;font-variant-position:normal;font-variant-caps:normal;font-variant-numeric:normal;font-variant-alternates:normal;font-feature-settings:normal;text-indent:0;text-decoration-line:none;text-decoration-style:solid;text-decoration-color:#000;text-transform:none;text-orientation:mixed;white-space:normal;shape-padding:0;isolation:auto;mix-blend-mode:normal;stroke-width:.264583" transform="translate(206.439 -834.26)"/>
<path d="M-176.46 856.069a.27.27 0 0 0-.179-.335.27.27 0 0 0-.334.18.27.27 0 0 0 .179.334.27.27 0 0 0 .334-.18zM-174.312 856.718a.27.27 0 0 0-.18-.335.27.27 0 0 0-.334.18.27.27 0 0 0 .18.334.27.27 0 0 0 .334-.18zM-172.164 857.367a.27.27 0 0 0-.18-.335.27.27 0 0 0-.333.18.27.27 0 0 0 .179.334.27.27 0 0 0 .334-.18zM-204.762 836.199c-.015.076-.046.192-.046.217 0 .091.071.137.147.137.06 0 .152-.04.187-.142.005-.01.066-.248.097-.374l.111-.456c.03-.111.06-.222.086-.339.02-.086.06-.233.066-.253.076-.157.344-.617.825-.617.227 0 .273.187.273.354 0 .126-.035.268-.076.42l-.142.587-.1.385c-.021.1-.067.273-.067.298 0 .091.071.137.147.137.157 0 .187-.127.228-.289.07-.283.258-1.022.304-1.22.015-.065.283-.672.835-.672.217 0 .273.172.273.354 0 .288-.213.865-.314 1.134a.691.691 0 0 0-.066.278c0 .238.177.415.415.415.476 0 .663-.739.663-.78 0-.05-.045-.05-.06-.05-.051 0-.051.015-.076.091-.076.268-.238.628-.516.628-.086 0-.122-.051-.122-.167 0-.127.046-.248.091-.36.096-.263.309-.825.309-1.113 0-.33-.203-.542-.582-.542-.38 0-.638.223-.825.491a.508.508 0 0 0-.162-.36.64.64 0 0 0-.415-.13c-.456 0-.704.323-.79.44a.457.457 0 0 0-.465-.44c-.233 0-.33.197-.375.288a2.205 2.205 0 0 0-.157.49c0 .051.051.051.061.051.05 0 .056-.005.086-.116.086-.36.187-.602.37-.602.08 0 .156.04.156.232 0 .107-.015.162-.08.426zM-204.86 855.656c-.394.371-.478 1.05-.225 1.493.2.352.586.482.93.285.429-.244.405-.993.116-1.498-.19-.334-.441-.433-.66-.527-.226-.09-.599-.241-.69-.402-.047-.08-.024-.21.105-.284.11-.062.21-.056.316-.05.098.003.199.009.254-.022.091-.053.096-.172.063-.23-.046-.081-.111-.059-.26-.013-.213.069-.264.098-.323.131-.286.163-.328.396-.202.616.113.198.336.342.577.5zm.09.055c.189.117.411.252.562.515.138.242.348.933.007 1.128-.201.115-.44.046-.598-.232-.132-.23-.39-.997.03-1.41zM-202.953 856.403c.02.061.047.158.057.177.038.065.108.07.163.038a.172.172 0 0 0 .077-.18c0-.009-.055-.207-.085-.31l-.108-.376c-.024-.094-.048-.187-.078-.281l-.057-.21c-.01-.146-.006-.59.342-.788.165-.094.276.022.345.143.052.092.085.209.118.336l.14.483.086.32c.027.082.065.225.075.243.038.066.108.07.163.039.114-.065.083-.17.046-.303-.066-.235-.236-.847-.284-1.008-.016-.054-.073-.605.326-.832.158-.09.269.011.344.143.12.209.204.714.241.95a.576.576 0 0 0 .068.229c.098.172.3.227.472.129.344-.197.174-.809.158-.838-.021-.037-.054-.018-.065-.012-.037.021-.03.032-.018.098.056.225.087.552-.114.667-.062.036-.109.014-.157-.07a.804.804 0 0 1-.082-.298c-.04-.23-.118-.725-.237-.934-.136-.238-.37-.308-.645-.151s-.37.424-.394.696a.424.424 0 0 0-.266-.193.534.534 0 0 0-.355.076c-.33.188-.375.525-.389.645a.38.38 0 0 0-.519-.127c-.168.097-.156.28-.152.364.007.166.083.409.09.42.02.037.057.016.064.011.037-.02.038-.026.014-.12-.086-.295-.113-.513.02-.588.058-.033.13-.035.209.104.044.077.056.123.117.34zM-199.706 853.403c-.04-.069-.046-.069-.118-.028-.072.255-.304.391-.409.451l.053.092a.973.973 0 0 0 .33-.284l.747 1.308c.048.085.067.118-.189.264l-.097.056.052.092c.045-.028.356-.216.45-.27.08-.046.408-.222.466-.252l-.053-.092-.097.055c-.257.147-.276.113-.324.029zM-194.318 851.841c-.522.146-.911.71-.892 1.22.015.404.296.697.692.683.493-.019.818-.693.797-1.275-.014-.383-.19-.588-.34-.772-.16-.184-.42-.491-.427-.677-.003-.092.077-.197.225-.202.126-.005.213.047.303.103.087.047.173.099.236.097.105-.004.165-.108.162-.175-.003-.093-.07-.103-.224-.131-.22-.039-.28-.036-.347-.034-.329.012-.474.199-.465.452.008.228.14.459.28.711zm.054.091c.112.19.247.413.258.717.01.278-.124.988-.516 1.002-.232.009-.41-.162-.423-.482-.01-.266.117-1.064.68-1.237zM-192.976 853.387c-.01.064-.032.162-.031.183.003.076.063.112.126.11a.173.173 0 0 0 .152-.125c.004-.009.047-.208.069-.314l.078-.383c.022-.094.044-.187.062-.285.014-.072.043-.196.047-.213.058-.133.267-.525.668-.54.19-.006.233.148.238.287a1.43 1.43 0 0 1-.05.352l-.1.494-.073.323c-.013.085-.046.23-.045.25.003.077.063.112.126.11.13-.005.152-.111.181-.247.05-.238.184-.86.216-1.025.01-.055.215-.57.674-.586.182-.007.233.135.239.286.009.24-.15.728-.227.954a.576.576 0 0 0-.046.234c.007.198.16.34.358.333.396-.015.53-.636.529-.67-.002-.042-.04-.04-.053-.04-.042.002-.041.014-.06.078-.055.226-.179.53-.41.539-.072.003-.103-.039-.107-.136a.8.8 0 0 1 .065-.302c.072-.222.232-.696.223-.936-.01-.274-.185-.445-.501-.433-.316.011-.525.205-.672.434a.423.423 0 0 0-.146-.295.534.534 0 0 0-.35-.097c-.38.014-.576.292-.644.391a.38.38 0 0 0-.401-.352c-.194.007-.268.174-.303.252a1.84 1.84 0 0 0-.116.413c.002.042.044.04.052.04.043-.001.047-.005.069-.1.06-.3.137-.506.289-.512.067-.002.132.029.138.19.003.088-.008.134-.055.356zM-188.157 853.554l-.1.004c-.007.066-.03.24-.067.272-.023.018-.25.027-.292.028l-.543.02c.3-.286.4-.372.572-.517.212-.182.409-.373.399-.653-.013-.357-.334-.564-.712-.55-.366.014-.604.28-.594.55.006.151.133.161.162.16.071-.003.155-.056.151-.162-.002-.053-.026-.155-.18-.15a.464.464 0 0 1 .42-.29c.296-.01.458.214.467.453.009.256-.166.467-.257.576l-.685.729c-.029.027-.028.033-.025.116l1.215-.045zM-184.712 852.694c-.54.033-1.04.502-1.128 1.004-.07.399.142.745.532.814.486.086.946-.505 1.048-1.078.067-.378-.063-.615-.17-.827-.117-.213-.307-.568-.275-.75.017-.092.117-.177.263-.151.124.022.198.09.275.164.074.064.147.133.21.144.103.019.183-.07.195-.137.016-.091-.048-.115-.192-.175-.207-.084-.266-.094-.332-.106-.324-.057-.505.095-.55.344-.039.224.04.478.124.754zm.034.1c.07.21.155.456.102.755-.049.274-.33.94-.715.872-.229-.04-.368-.245-.312-.561.046-.262.338-1.015.925-1.065zM-183.725 854.488c-.023.06-.065.151-.069.172-.013.075.039.123.101.134.05.009.13-.011.174-.09.006-.007.09-.193.134-.293l.157-.357c.041-.087.082-.174.12-.266.03-.068.084-.182.09-.198.086-.118.373-.457.767-.387.187.033.197.193.173.33a1.432 1.432 0 0 1-.123.334l-.202.461-.139.301c-.031.08-.093.215-.097.236-.013.074.038.122.1.133.13.023.173-.077.23-.204.099-.222.36-.801.426-.956.022-.052.33-.511.783-.431.178.031.199.18.173.33-.042.237-.3.68-.423.885a.576.576 0 0 0-.094.219.337.337 0 0 0 .28.4c.39.07.652-.51.657-.543.007-.041-.03-.048-.042-.05-.042-.007-.044.005-.076.064-.1.209-.286.48-.514.44-.07-.013-.093-.06-.076-.155a.805.805 0 0 1 .127-.282c.117-.202.373-.632.415-.869.048-.27-.087-.473-.399-.528-.311-.056-.555.09-.748.283a.426.426 0 0 0-.08-.319.534.534 0 0 0-.322-.168c-.374-.066-.624.163-.712.246a.38.38 0 0 0-.318-.429c-.19-.033-.298.115-.35.183-.1.132-.197.367-.2.38-.006.041.035.049.043.05.042.007.047.004.088-.083.123-.282.241-.467.39-.44.067.011.123.056.095.213-.015.088-.036.131-.128.338zM-179.645 855.104c.226.04.361.226.306.537-.063.36-.292.431-.46.401-.117-.02-.367-.098-.459-.29.138.018.187-.073.198-.134a.158.158 0 0 0-.132-.188c-.081-.014-.171.02-.192.14-.049.273.222.504.574.566.404.072.73-.149.782-.44.04-.227-.105-.486-.413-.61.324-.056.474-.255.505-.432.04-.23-.194-.448-.516-.505-.323-.057-.598.056-.639.289-.017.099.037.165.124.18.09.016.16-.04.174-.122.015-.084-.032-.155-.121-.177.124-.11.33-.106.438-.087.131.023.303.12.258.372a.566.566 0 0 1-.178.326c-.115.093-.197.084-.344.067-.074-.007-.08-.008-.095-.008-.006 0-.03.001-.036.033-.007.04.02.045.069.054z" style="stroke-width:.352777;stroke-linejoin:round;stroke-miterlimit:100000" transform="translate(206.439 -834.26)"/>
<path d="m-179.067 851.113 4.41-5.228-2.865 1.238.034-4.798-3.053.03-.033 4.8-2.835-1.12z" color="#000" fill="red" style="text-indent:0;text-decoration-line:none;text-decoration-style:solid;text-decoration-color:#000;text-transform:none;white-space:normal;isolation:auto;mix-blend-mode:normal;stroke-width:.264583" transform="translate(206.439 -834.26)"/>
</svg>
