<svg width="181.286" height="143.19" viewBox="0 0 47.965 37.886" xml:space="preserve" xmlns:xlink="http://www.w3.org/1999/xlink" xmlns="http://www.w3.org/2000/svg">
<defs>
<path id="f" d="M6.54-5.858c0-2.104-1.244-2.535-1.973-2.535-.945 0-2.14.622-3.037 2.248C.92-5.021.55-3.395.55-2.427.55-.693 1.459.096 2.534.096c.801 0 1.854-.467 2.678-1.686C6.217-3.06 6.54-4.961 6.54-5.858zM2.366-4.435c.167-.694.478-1.782.837-2.403.275-.49.765-1.124 1.339-1.124.502 0 .717.526.717 1.231 0 .753-.263 1.794-.394 2.296zm2.355.573C3.982-.658 2.977-.335 2.558-.335c-.167 0-.418-.048-.585-.418-.144-.323-.144-.79-.144-.801 0-.682.263-1.793.395-2.308h2.498z"/>
<path id="d" d="M6.408-4.794a.893.893 0 0 0-.646.825c0 .263.204.55.598.55.419 0 .86-.347.86-.933 0-.633-.633-1.052-1.362-1.052-.681 0-1.124.514-1.28.73-.298-.503-.968-.73-1.649-.73-1.506 0-2.32 1.47-2.32 1.865 0 .168.18.168.288.168.143 0 .227 0 .275-.156.346-1.088 1.207-1.446 1.697-1.446.455 0 .67.215.67.597 0 .228-.168.885-.275 1.315l-.407 1.638c-.179.73-.61 1.088-1.016 1.088-.06 0-.335 0-.574-.18a.893.893 0 0 0 .646-.824c0-.263-.203-.55-.598-.55-.418 0-.86.347-.86.933 0 .633.633 1.052 1.362 1.052.682 0 1.124-.514 1.28-.73.298.502.968.73 1.65.73 1.506 0 2.318-1.47 2.318-1.865 0-.168-.179-.168-.286-.168-.144 0-.228 0-.275.156C6.157-.693 5.296-.335 4.806-.335c-.454 0-.67-.215-.67-.598 0-.25.156-.884.263-1.327.084-.31.36-1.434.419-1.625.18-.718.598-1.088 1.016-1.088.06 0 .335 0 .574.179z"/>
<path id="e" d="M3.957 2.87c0-.037 0-.06-.203-.264C2.26 1.1 1.877-1.16 1.877-2.989c0-2.08.454-4.16 1.925-5.655.155-.143.155-.167.155-.203 0-.084-.048-.12-.12-.12-.119 0-1.195.814-1.9 2.332-.61 1.315-.753 2.642-.753 3.646 0 .933.131 2.38.789 3.73.717 1.47 1.745 2.248 1.865 2.248.071 0 .12-.036.12-.12z"/>
<path id="g" d="M3.455-2.989c0-.932-.131-2.379-.789-3.73C1.949-8.189.921-8.966.801-8.966c-.072 0-.12.047-.12.12 0 .035 0 .059.228.274C2.08-7.388 2.762-5.487 2.762-2.989c0 2.045-.443 4.149-1.925 5.655-.156.143-.156.167-.156.203 0 .072.048.12.12.12.12 0 1.196-.813 1.9-2.331.61-1.316.754-2.643.754-3.647z"/>
<marker id="a" overflow="visible" orient="auto">
<path d="m-10 0-4 4L0 0l-14-4Z" fill-rule="evenodd" stroke="#000" stroke-width=".8pt"/>
</marker>
<marker id="b" overflow="visible" orient="auto">
<path d="m-10 0-4 4L0 0l-14-4Z" fill-rule="evenodd" stroke="#000" stroke-width=".8pt"/>
</marker>
<marker id="c" overflow="visible" orient="auto">
<path d="m-4 0-2 2 7-2-7-2Z" fill="red" fill-rule="evenodd" stroke="red" stroke-width=".4pt"/>
</marker>
</defs>
<g transform="translate(204.294 -876.408)">
<path d="M-204.294 911.78h43.77" color="#000" fill="none" marker-end="url(#a)" stroke="#000" stroke-width=".212" style="isolation:auto;mix-blend-mode:normal;shape-rendering:auto"/>
<path d="M-201.383 914.293v-27.908" color="#000" fill="none" marker-end="url(#b)" stroke="#000" stroke-width=".212" style="isolation:auto;mix-blend-mode:normal;shape-rendering:auto"/>
<path d="M-203.955 894.767h33.163l2.572 17.013h-33.163z" color="#000" fill="#e2fbe2" stroke="#008400" style="isolation:auto;mix-blend-mode:normal;stroke-width:.264583;shape-rendering:auto"/>
<path d="M-186.71 878.297c9.494-5.7 12.855 4.721 25.957-.169l4.26 14.052c-17.587 5.935-22.098-10.899-33.965 0z" color="#000" fill="#ebeaff" stroke="#00f" style="isolation:auto;mix-blend-mode:normal;stroke-width:.264583;shape-rendering:auto"/>
<path d="m-201.383 911.78 10.925-19.6M-203.955 894.767l17.245-16.317M-170.792 894.767l10.04-16.5M-168.22 911.78l11.728-19.6" color="#000" style="isolation:auto;mix-blend-mode:normal;fill:none;stroke:#000;stroke-width:.132291;stroke-dasharray:.529165,.529165;shape-rendering:auto"/>
<g stroke-linejoin="round" stroke-width="1.5">
<g stroke-miterlimit="100000">
<path d="M-184.038 878.474a.048.048 0 0 0-.052-.047c-.024 0-.029.004-.086.07l-.227.271c-.124-.223-.37-.341-.679-.341-.602 0-1.172.545-1.172 1.12 0 .384.252.602.494.673l.507.133c.176.043.437.114.437.503 0 .427-.39.873-.854.873-.304 0-.83-.104-.83-.693 0-.114.023-.227.028-.256.005-.019.01-.024.01-.033 0-.048-.034-.052-.057-.052-.024 0-.034.004-.048.019-.019.019-.285 1.1-.285 1.115 0 .028.024.047.053.047.023 0 .028-.005.085-.071l.233-.27c.204.275.526.341.801.341.646 0 1.206-.631 1.206-1.22a.71.71 0 0 0-.233-.554c-.11-.11-.18-.129-.603-.238-.104-.028-.275-.076-.317-.085a.44.44 0 0 1-.29-.432c0-.384.38-.787.83-.787.394 0 .684.204.684.735 0 .152-.02.237-.02.266 0 .004 0 .047.058.047.047 0 .052-.014.07-.095z" fill="#00f"/>
<path d="M-156.964 911.054c0-.313-.085-.973-.57-.973-.659 0-1.39 1.338-1.39 2.425 0 .446.138.973.57.973.67 0 1.39-1.362 1.39-2.425zm-1.456.65c.08-.304.175-.683.365-1.02.128-.233.304-.498.517-.498.233 0 .261.303.261.574 0 .232-.038.474-.152.944zm.949.152c-.053.218-.152.621-.333.963-.166.323-.346.555-.55.555-.157 0-.256-.137-.256-.579 0-.199.028-.474.152-.94zM-200.785 880.312c0-.009.014-.061.014-.066 0-.005 0-.047-.057-.047-.047 0-.052.014-.071.094l-.275 1.097c-.755.023-1.452.654-1.452 1.3 0 .45.332.825.91.858-.037.147-.07.3-.108.446-.057.223-.105.404-.105.418 0 .047.033.052.057.052s.033-.005.048-.019c.01-.01.038-.123.052-.19l.18-.707c.764-.023 1.452-.664 1.452-1.3 0-.375-.252-.811-.911-.858zm-.907 3.132c-.284-.014-.626-.18-.626-.655 0-.57.408-1.233 1.115-1.295zm.612-1.95c.361.019.632.237.632.655 0 .56-.409 1.238-1.12 1.295z"/>
</g>
<path d="M-199.234 895.907a.048.048 0 0 0-.053-.047c-.023 0-.028.004-.085.07l-.228.271c-.123-.223-.37-.341-.678-.341-.603 0-1.172.545-1.172 1.12 0 .384.251.602.493.673l.508.133c.175.043.436.114.436.503 0 .427-.389.873-.854.873-.303 0-.83-.105-.83-.693 0-.114.024-.228.029-.256.004-.019.009-.024.009-.033 0-.048-.033-.052-.057-.052s-.033.004-.047.019c-.02.018-.285 1.1-.285 1.115 0 .028.024.047.052.047.024 0 .029-.005.086-.071l.232-.27c.204.275.527.34.802.34.645 0 1.205-.63 1.205-1.218a.71.71 0 0 0-.232-.556c-.11-.109-.18-.128-.603-.237-.104-.028-.275-.076-.318-.085a.44.44 0 0 1-.29-.432c0-.384.38-.788.831-.788.394 0 .683.204.683.736 0 .152-.019.237-.019.266 0 .004 0 .047.057.047.048 0 .052-.014.071-.095zM-197.393 898.322c0-.578-.359-.737-.625-.737-.156 0-.521.053-.84.515-.226.325-.342.813-.342 1.106 0 .511.292.737.628.737.172 0 .505-.07.803-.465.236-.316.376-.81.376-1.156zm-1.272.349c.063-.23.12-.439.232-.631.077-.126.233-.302.409-.302.113 0 .236.083.236.368 0 .18-.044.352-.093.565zm.737.186c-.037.146-.11.432-.236.634-.11.18-.262.3-.402.3-.16 0-.239-.154-.239-.37 0-.169.053-.401.093-.564z" fill="#008400"/>
</g>
<path d="m-180.632 884.713-11.352 19.515" color="#000" fill="none" marker-end="url(#c)" stroke="red" stroke-width=".529" style="isolation:auto;mix-blend-mode:normal"/>
<g fill="red">
<path d="M-184.641 900.912v-2.985h.271v2.985Zm-1.789.023-.031-.237h.47q.231 0 .318-.175.088-.176.088-.675l-.003-.176h-1.167l-.02.156h-.258l.153-1.093h1.215v-.477h-1.318v-.21h1.587v.902h-1.254l-.076.498h1.416q0 .379-.006.567-.007.188-.047.408-.038.22-.097.305-.056.084-.171.145-.115.062-.26.062zM-181.111 899.925l-.183.185q-.182-.121-.449-.193-.266-.073-.515-.073-.54 0-.725.113-.183.112-.183.31 0 .173.213.272.214.098.839.098.553 0 .98-.07l.006.24q-.371.062-.993.062-.718 0-1.015-.154-.297-.155-.297-.448 0-.313.282-.477.283-.165.757-.165.51 0 .891.144-.166-.216-.308-.482h-1.727v-.215h1.624q-.092-.207-.152-.399h-1.377v-.215h1.309q-.054-.213-.082-.416l.265-.024q.048.299.085.44h.963v.215h-.903q.045.14.15.399h.913v.215h-.805q.139.256.437.638zM-180.203 898.243v-.2h2.939v.2zm.432.974q0 .475-.123.928-.122.452-.369.775l-.173-.143q.183-.252.293-.662.11-.412.11-.87v-.72h2.604v.692zm2.099-.509h-2.099v.322h2.099zm-.885 1.385q-.117.327-.469.559-.352.231-.767.303l-.073-.192q.38-.076.7-.295.32-.218.417-.565h-.884v-.208h.927v-.355h.272v.355h1.173v.208h-1.16q.322.604 1.199.829l-.144.213q-.861-.248-1.191-.852zM-173.884 899.578q-.188.667-.555.98-.366.314-.943.314-.225 0-.4-.045-.175-.045-.3-.134-.125-.09-.2-.223-.075-.135-.097-.292-.02-.156-.02-.518 0-.615.073-1.51h.274q-.089.858-.089 1.523 0 .232.01.392.012.158.097.293.087.135.257.205.17.07.421.07.452 0 .752-.253.3-.255.487-.888z"/>
</g>
<g transform="translate(-269.543 846.826) scale(.42333)" stroke-width=".833">
<use x="212.502" y="88.26" width="100%" height="100%" xlink:href="#d"/>
<use x="222.374" y="88.26" width="100%" height="100%" xlink:href="#e"/>
<use x="227.023" y="88.26" width="100%" height="100%" xlink:href="#f"/>
<use x="234.121" y="88.26" width="100%" height="100%" xlink:href="#g"/>
</g>
<use transform="translate(-288.044 872.342) scale(.42333)" x="227.023" y="88.26" width="100%" height="100%" stroke-width=".833" xlink:href="#f"/>
<circle cx="-180.632" cy="884.713" r="1.006" style="stroke-width:.264583"/>
<circle cx="-192.491" cy="905.1" r="1.006" style="stroke-width:.264583"/>
</g>
</svg>
