<svg width="209.234" height="121.578" viewBox="0 0 55.36 32.168" xml:space="preserve" xmlns:xlink="http://www.w3.org/1999/xlink" xmlns="http://www.w3.org/2000/svg">
<defs>
<path id="c" d="M5.046-4.017c0-1.456-.904-1.858-1.573-1.858-.393 0-1.314.134-2.117 1.297-.57.82-.862 2.05-.862 2.787C.494-.502 1.23.067 2.075.067c.436 0 1.272-.176 2.026-1.172.594-.795.945-2.042.945-2.912zm-3.205.879c.16-.578.301-1.105.586-1.59.192-.318.586-.762 1.03-.762.284 0 .593.21.593.93 0 .451-.108.886-.234 1.422zM3.7-2.67c-.092.369-.276 1.088-.594 1.599-.276.452-.661.753-1.013.753-.402 0-.602-.385-.602-.929 0-.427.134-1.013.234-1.423z"/>
<path id="g" d="M5.44-5.978c0-.789-.216-2.45-1.435-2.45C2.343-8.428.502-5.057.502-2.32.502-1.196.85.13 1.937.13c1.685 0 3.503-3.43 3.503-6.109zM1.77-4.34c.203-.765.442-1.721.92-2.57.323-.586.765-1.255 1.303-1.255.586 0 .658.765.658 1.446 0 .586-.096 1.196-.383 2.38zm2.39.383c-.131.55-.382 1.566-.836 2.427-.419.813-.873 1.398-1.387 1.398-.395 0-.646-.346-.646-1.458 0-.502.072-1.196.383-2.367z"/>
<path id="d" d="M5.224-8.01c0-.024.036-.155.036-.167 0-.012 0-.12-.143-.12-.12 0-.132.036-.18.24l-.693 2.76c-1.9.06-3.658 1.65-3.658 3.277C.586-.885 1.423.06 2.88.143c-.095.371-.18.754-.275 1.124-.143.562-.263 1.016-.263 1.052 0 .12.084.132.144.132.06 0 .083-.012.12-.048.023-.024.095-.31.13-.478L3.193.143C5.117.083 6.85-1.53 6.85-3.132c0-.945-.633-2.045-2.295-2.164zM2.941-.12c-.717-.035-1.578-.454-1.578-1.65 0-1.434 1.028-3.108 2.81-3.263zm1.542-4.913c.909.048 1.59.598 1.59 1.65 0 1.41-1.028 3.12-2.821 3.263z"/>
<path id="b" d="M7.711-8.309a.121.121 0 0 0-.131-.12c-.06 0-.072.013-.216.18l-.573.681c-.311-.562-.933-.86-1.71-.86-1.518 0-2.953 1.374-2.953 2.821 0 .968.634 1.518 1.243 1.698l1.28.334c.442.108 1.1.287 1.1 1.268 0 1.076-.98 2.2-2.152 2.2-.766 0-2.093-.264-2.093-1.746 0-.287.06-.574.072-.646.012-.047.024-.06.024-.083 0-.12-.084-.132-.143-.132-.06 0-.084.012-.12.048C1.291-2.618.622.108.622.144c0 .071.06.119.131.119.06 0 .072-.012.215-.18l.586-.68c.514.693 1.327.86 2.02.86 1.627 0 3.037-1.59 3.037-3.072 0-.825-.406-1.232-.586-1.4-.275-.274-.454-.322-1.518-.597-.263-.072-.693-.191-.8-.215-.324-.108-.73-.454-.73-1.088 0-.968.956-1.985 2.092-1.985.992 0 1.722.514 1.722 1.853 0 .383-.048.598-.048.67 0 .012 0 .12.143.12.12 0 .132-.036.18-.24z"/>
<path id="f" d="M3.957 2.87c0-.037 0-.06-.203-.264C2.26 1.1 1.877-1.16 1.877-2.989c0-2.08.454-4.16 1.925-5.655.155-.143.155-.167.155-.203 0-.084-.048-.12-.12-.12-.119 0-1.195.814-1.9 2.332-.61 1.315-.753 2.642-.753 3.646 0 .933.131 2.38.789 3.73.717 1.47 1.745 2.248 1.865 2.248.071 0 .12-.036.12-.12z"/>
<path id="h" d="M3.455-2.989c0-.932-.131-2.379-.789-3.73C1.949-8.189.921-8.966.801-8.966c-.072 0-.12.047-.12.12 0 .035 0 .059.228.274C2.08-7.388 2.762-5.487 2.762-2.989c0 2.045-.443 4.149-1.925 5.655-.156.143-.156.167-.156.203 0 .072.048.12.12.12.12 0 1.196-.813 1.9-2.331.61-1.316.754-2.643.754-3.647z"/>
<path id="e" d="M4.318-2.67c0-.92-.109-1.581-.494-2.167-.259-.385-.778-.72-1.447-.72C.435-5.557.435-3.272.435-2.67c0 .603 0 2.837 1.942 2.837 1.941 0 1.941-2.234 1.941-2.837zM2.377-.067c-.385 0-.896-.226-1.063-.912-.117-.494-.117-1.18-.117-1.8 0-.61 0-1.246.125-1.707a1.07 1.07 0 0 1 1.055-.836c.452 0 .887.276 1.037.761.134.452.143 1.055.143 1.783 0 .619 0 1.238-.11 1.765-.167.762-.736.946-1.07.946z"/>
<path id="i" d="M2.803-5.322c0-.226-.016-.235-.25-.235-.536.527-1.298.536-1.64.536v.301c.2 0 .752 0 1.213-.234v4.268c0 .276 0 .385-.837.385H.97V0a61.59 61.59 0 0 1 1.49-.033c.259 0 1.313.025 1.497.033v-.301H3.64c-.837 0-.837-.11-.837-.385z"/>
<marker id="a" overflow="visible" orient="auto">
<path d="m-10 0-4 4L0 0l-14-4Z" fill-rule="evenodd" stroke="#000" stroke-width=".8pt"/>
</marker>
</defs>
<g transform="translate(202.994 -930.85)">
<path d="M-191.815 956.656h43.77" color="#000" fill="none" marker-end="url(#marker5692-8)" stroke="#000" stroke-width=".212" style="font-variation-settings:normal;opacity:1;isolation:auto;mix-blend-mode:normal;vector-effect:none;fill:none;fill-opacity:1;stroke:#000;stroke-width:.211666;stroke-linecap:butt;stroke-linejoin:miter;stroke-miterlimit:4;stroke-dasharray:none;stroke-dashoffset:0;stroke-opacity:1;-inkscape-stroke:none;marker-end:url(#a);stop-color:#000;stop-opacity:1"/>
<path d="M-188.904 959.17V931.26" color="#000" fill="none" marker-end="url(#a)" stroke="#000" stroke-width=".212" style="isolation:auto;mix-blend-mode:normal;marker-end:url(#a)"/>
<ellipse cx="-170.058" cy="945.242" rx="11.831" ry="6.401" fill="#e2fbe2" stroke="#008400" style="font-variation-settings:normal;opacity:1;vector-effect:none;fill:#e2fbe2;fill-opacity:1;stroke:#008400;stroke-width:.264583;stroke-linecap:butt;stroke-linejoin:miter;stroke-miterlimit:4;stroke-dasharray:none;stroke-dashoffset:0;stroke-opacity:1;-inkscape-stroke:none;stop-color:#000;stop-opacity:1"/>
<path d="M-174.935 956.656v-5.578M-188.904 951.074h13.97M-188.904 939.41h13.97M-181.888 956.656v-11.414M-158.227 945.242v11.414" color="#000" style="isolation:auto;mix-blend-mode:normal;fill:none;stroke:#000;stroke-width:.132291;stroke-dasharray:.529164,.529164;shape-rendering:auto"/>
<path d="M-174.935 951.078V939.41" color="#000" stroke="red" stroke-linecap="round" stroke-width=".794" style="isolation:auto;mix-blend-mode:normal;fill:none;shape-rendering:auto"/>
<g transform="matrix(.42333 0 0 .42333 -241.693 908.317)" fill="green" stroke-width=".651">
<use x="176.203" y="88.26" width="100%" height="100%" xlink:href="#b"/>
<use x="183.507" y="90.054" width="100%" height="100%" xlink:href="#c"/>
</g>
<g transform="matrix(.42333 0 0 .42333 -283.532 914.976)">
<g stroke-width=".833">
<use x="189.663" y="88.26" width="100%" height="100%" xlink:href="#d"/>
<use x="196.759" y="90.054" width="100%" height="100%" xlink:href="#e"/>
<use x="204.115" y="88.26" width="100%" height="100%" xlink:href="#f"/>
</g>
<use x="208.764" y="88.26" width="100%" height="100%" fill="red" stroke-width=".651" xlink:href="#g"/>
<use x="214.688" y="88.26" width="100%" height="100%" stroke-width=".833" xlink:href="#h"/>
</g>
<g transform="matrix(.42333 0 0 .42333 -296.947 903.312)">
<g stroke-width=".833">
<use x="221.35" y="88.26" width="100%" height="100%" xlink:href="#d"/>
<use x="228.447" y="90.054" width="100%" height="100%" xlink:href="#i"/>
<use x="235.803" y="88.26" width="100%" height="100%" xlink:href="#f"/>
</g>
<use x="240.452" y="88.26" width="100%" height="100%" fill="red" stroke-width=".651" xlink:href="#g"/>
<use x="246.375" y="88.26" width="100%" height="100%" stroke-width=".833" xlink:href="#h"/>
</g>
<g transform="matrix(.42333 0 0 .42333 -290.262 924.824)" stroke-width=".833">
<use x="253.038" y="88.26" width="100%" height="100%" xlink:href="#g"/>
<use x="258.629" y="90.054" width="100%" height="100%" xlink:href="#e"/>
</g>
<g transform="matrix(.42333 0 0 .42333 -271.238 924.824)" stroke-width=".833">
<use x="263.993" y="88.26" width="100%" height="100%" xlink:href="#g"/>
<use x="269.584" y="90.054" width="100%" height="100%" xlink:href="#i"/>
</g>
<use transform="matrix(.42333 0 0 .42333 -283.312 924.824)" x="253.038" y="88.26" width="100%" height="100%" fill="red" stroke-width=".651" xlink:href="#g"/>
<path d="M-189.864 939.41h1.92M-189.864 951.074h1.92M-181.888 957.616v-1.92M-174.935 957.616v-1.92M-158.227 957.616v-1.92" style="fill:none;stroke:#000;stroke-width:.264585px"/>
</g>
</svg>
