<svg width="212.406" height="58.82" viewBox="0 0 56.199 15.563" xml:space="preserve" xmlns="http://www.w3.org/2000/svg">
<defs>
<marker id="a" overflow="visible" orient="auto">
<path d="m-4 0-2 2 7-2-7-2Z" fill="red" fill-rule="evenodd" stroke="red" stroke-width=".4pt"/>
</marker>
</defs>
<path d="M-130.605 854.892c18.17-15.49 36.34 10.206 54.51 0" color="#000" stroke="#00f" stroke-width=".529" style="isolation:auto;mix-blend-mode:normal;fill:none;shape-rendering:auto" transform="translate(131.55 -846.084)"/>
<path d="m-131.448 853.89 1.685 2.005M-76.726 853.744l1.26 2.296" color="#000" stroke="#000" style="isolation:auto;mix-blend-mode:normal;fill:none;stroke-width:.264583;shape-rendering:auto" transform="translate(131.55 -846.084)"/>
<path d="m-104.866 852.374 7.804 2.737" color="#000" marker-end="url(#a)" stroke="red" stroke-width=".529" style="isolation:auto;mix-blend-mode:normal;fill:none;marker-end:url(#a);shape-rendering:auto" transform="translate(131.55 -846.084)"/>
<path d="m-104.418 851.143-.867 2.472M-95.767 854.177l-.867 2.472" color="#000" stroke="#000" style="isolation:auto;mix-blend-mode:normal;fill:none;stroke-width:.264583;shape-rendering:auto" transform="translate(131.55 -846.084)"/>
<g fill="red" stroke-width="1.5">
<path d="M30.906 1.609c-.594.142-1.054.759-1.054 1.333 0 .455.304.797.75.797.555 0 .949-.745.949-1.4 0-.432-.19-.669-.351-.882-.171-.214-.451-.57-.451-.778 0-.105.095-.219.261-.219.142 0 .237.062.337.128.095.057.19.12.26.12.12 0 .19-.115.19-.19 0-.105-.075-.12-.246-.157-.247-.052-.313-.052-.39-.052-.37 0-.54.204-.54.488 0 .256.137.522.285.812zm.057.104c.118.218.26.474.26.816 0 .313-.18 1.106-.621 1.106-.261 0-.456-.2-.456-.56 0-.3.176-1.191.817-1.362zM34.477 1.78a.354.354 0 0 0-.257.327c0 .104.081.218.238.218.166 0 .341-.138.341-.37 0-.252-.251-.418-.54-.418-.271 0-.447.204-.508.29-.119-.2-.385-.29-.655-.29-.598 0-.92.584-.92.74 0 .067.07.067.113.067.057 0 .09 0 .11-.062.137-.432.479-.574.673-.574.18 0 .266.085.266.237 0 .09-.067.351-.11.522l-.16.65c-.072.29-.243.432-.404.432-.024 0-.133 0-.228-.071a.354.354 0 0 0 .257-.328c0-.104-.081-.218-.238-.218-.166 0-.341.138-.341.37 0 .252.251.418.54.418.271 0 .447-.204.508-.29.119.2.385.29.655.29.598 0 .92-.584.92-.74 0-.067-.07-.067-.113-.067-.057 0-.09 0-.11.062-.137.432-.479.574-.673.574-.18 0-.266-.085-.266-.237 0-.1.062-.351.104-.527.034-.123.143-.57.167-.645.07-.285.237-.432.403-.432.024 0 .133 0 .228.071zM36.136 2.318a.127.127 0 0 0-.132-.127c-.09 0-.186.087-.186.183 0 .057.043.126.133.126.096 0 .185-.093.185-.182zm-.677 1.687c-.013.043-.03.083-.03.14 0 .155.133.282.316.282.332 0 .478-.459.478-.508 0-.044-.043-.044-.053-.044-.047 0-.05.02-.063.057-.077.266-.223.402-.352.402-.067 0-.083-.043-.083-.117 0-.076.023-.14.053-.212.033-.09.07-.18.106-.266.03-.08.15-.382.163-.422a.4.4 0 0 0 .02-.106c0-.156-.133-.282-.316-.282-.329 0-.482.451-.482.508 0 .043.047.043.057.043.046 0 .05-.016.06-.053.086-.286.232-.405.355-.405.053 0 .083.026.083.116 0 .076-.02.126-.103.332z"/>
</g>
<g stroke-width="1.5">
<path d="M26.509 9.15a.354.354 0 0 0-.256.328c0 .105.08.218.237.218.166 0 .342-.137.342-.37 0-.251-.252-.417-.541-.417-.27 0-.446.204-.508.29-.119-.2-.384-.29-.655-.29-.598 0-.92.583-.92.74 0 .066.07.066.114.066.057 0 .09 0 .109-.061.137-.432.479-.574.674-.574.18 0 .265.085.265.237 0 .09-.066.351-.109.522l-.161.65c-.071.29-.242.432-.404.432-.023 0-.132 0-.227-.072a.354.354 0 0 0 .256-.327c0-.104-.08-.218-.237-.218-.166 0-.342.137-.342.37 0 .251.252.417.541.417.27 0 .446-.204.508-.29.118.2.384.29.654.29.598 0 .92-.583.92-.74 0-.066-.07-.066-.113-.066-.057 0-.09 0-.11.061-.137.432-.478.575-.673.575-.18 0-.266-.086-.266-.238 0-.1.062-.35.105-.526.033-.124.142-.57.166-.646.071-.284.237-.431.403-.431.024 0 .133 0 .228.07zM28.169 9.69a.127.127 0 0 0-.133-.127c-.09 0-.186.086-.186.183 0 .056.043.126.133.126.096 0 .186-.093.186-.183zm-.678 1.686c-.013.044-.03.083-.03.14 0 .156.133.282.316.282.332 0 .478-.458.478-.508 0-.043-.043-.043-.053-.043-.046 0-.05.02-.063.056-.076.266-.223.402-.352.402-.067 0-.083-.043-.083-.116 0-.076.023-.14.053-.213.033-.09.07-.179.106-.265.03-.08.15-.382.163-.422a.4.4 0 0 0 .02-.106c0-.156-.133-.283-.316-.283-.328 0-.481.452-.481.508 0 .044.046.044.056.044.047 0 .05-.017.06-.053.086-.286.233-.406.355-.406.054 0 .084.027.084.117 0 .076-.02.126-.103.332zM35.48 12.556a.354.354 0 0 0-.257.328c0 .104.08.218.237.218.166 0 .342-.137.342-.37 0-.251-.252-.417-.541-.417-.27 0-.446.204-.508.289-.118-.2-.384-.29-.655-.29-.597 0-.92.584-.92.74 0 .067.071.067.114.067.057 0 .09 0 .109-.062.138-.431.48-.574.674-.574.18 0 .265.086.265.238 0 .09-.066.35-.109.521l-.161.65c-.071.29-.242.432-.403.432-.024 0-.133 0-.228-.07a.354.354 0 0 0 .256-.328c0-.105-.08-.219-.237-.219-.166 0-.342.138-.342.37 0 .252.252.418.541.418.27 0 .446-.204.508-.29.119.2.384.29.655.29.598 0 .92-.584.92-.74 0-.067-.071-.067-.114-.067-.057 0-.09 0-.109.062-.137.432-.48.574-.674.574-.18 0-.265-.085-.265-.237 0-.1.061-.351.104-.527.033-.123.142-.569.166-.645.071-.285.237-.432.403-.432.024 0 .133 0 .228.071zM37.139 13.095a.127.127 0 0 0-.133-.126c-.09 0-.186.086-.186.182 0 .057.043.127.133.127.096 0 .186-.093.186-.183zm-.678 1.687c-.013.043-.03.083-.03.14 0 .156.133.282.316.282.332 0 .478-.458.478-.508 0-.043-.043-.043-.053-.043-.047 0-.05.02-.063.056-.077.266-.223.402-.352.402-.067 0-.083-.043-.083-.116 0-.077.023-.14.053-.213.033-.09.07-.18.106-.266.03-.08.15-.382.163-.421a.4.4 0 0 0 .02-.107c0-.156-.133-.282-.316-.282-.329 0-.481.452-.481.508 0 .043.046.043.056.043.047 0 .05-.016.06-.053.086-.285.232-.405.355-.405.053 0 .083.027.083.116 0 .077-.02.126-.103.332zM38.938 14.42h1.016c.043 0 .123 0 .123-.08 0-.083-.076-.083-.123-.083h-1.016v-1.02c0-.042 0-.122-.08-.122-.083 0-.083.076-.083.123v1.02h-1.02c-.043 0-.122 0-.122.08 0 .082.076.082.122.082h1.02v1.02c0 .043 0 .123.08.123.083 0 .083-.077.083-.123zM41.415 13.058c0-.09-.007-.093-.1-.093-.213.21-.515.213-.651.213v.12c.08 0 .299 0 .482-.093v1.693c0 .11 0 .153-.333.153h-.126v.12c.06-.003.469-.014.591-.014.103 0 .522.01.595.014v-.12h-.126c-.332 0-.332-.043-.332-.153z"/>
</g>
<path d="M-125.913 846.132c0-.015-.009-.048-.052-.048-.014 0-.02.005-.071.057l-.332.365c-.043-.066-.261-.422-.788-.422-1.058 0-2.126 1.049-2.126 2.15 0 .782.56 1.3 1.286 1.3.413 0 .773-.19 1.025-.409.441-.389.522-.82.522-.835 0-.047-.048-.047-.057-.047-.029 0-.052.009-.062.047a1.544 1.544 0 0 1-.479.75c-.327.266-.626.346-.873.346-.427 0-.93-.246-.93-.987 0-.27.1-1.039.574-1.594.29-.337.736-.574 1.158-.574.484 0 .764.365.764.916 0 .19-.014.194-.014.242 0 .047.052.047.07.047.062 0 .062-.009.086-.095z" color="#000" fill="#00f" style="isolation:auto;mix-blend-mode:normal;stroke-width:.264583" transform="translate(131.55 -846.084)"/>
</svg>
