<svg xml:space="preserve" viewBox="0 0 60.207 30.719" height="116.105" width="227.554" xmlns="http://www.w3.org/2000/svg">
<defs>
<marker id="a" overflow="visible" orient="auto">
<path d="m-10 0-4 4L0 0l-14-4Z" fill-rule="evenodd" stroke="#000" stroke-width=".8pt"/>
</marker>
<marker id="b" overflow="visible" orient="auto">
<path d="m-4 0-2 2 7-2-7-2Z" fill="red" fill-rule="evenodd" stroke="red" stroke-width=".4pt"/>
</marker>
<marker id="c" overflow="visible" orient="auto">
<path d="m-4 0-2 2 7-2-7-2Z" fill="red" fill-rule="evenodd" stroke="red" stroke-width=".4pt"/>
</marker>
</defs>
<path d="M-134.445 822.365h59.693" color="#000" marker-end="url(#a)" stroke="#000" style="isolation:auto;mix-blend-mode:normal;fill:none;stroke-width:.264582;shape-rendering:auto" transform="translate(134.445 -798.33)"/>
<path d="M-131.593 822.365h49.538" color="#000" stroke="green" stroke-width=".529" style="isolation:auto;mix-blend-mode:normal;fill:none;shape-rendering:auto" transform="translate(134.445 -798.33)"/>
<path d="M-131.931 809.545c18.17-15.49 36.34 10.205 54.51 0" color="#000" stroke="#00f" stroke-width=".529" style="isolation:auto;mix-blend-mode:normal;fill:none;shape-rendering:auto" transform="translate(134.445 -798.33)"/>
<g stroke="#000" style="fill:none;shape-rendering:auto" color="#000">
<path d="M14.076 340.725v9.9M9.684 293.574l6.37 7.578M201.347 340.725v9.9M216.508 293.023l4.761 8.68" style="isolation:auto;mix-blend-mode:normal" transform="translate(-.89 -67.462) scale(.26458)"/>
</g>
<path d="M-113.354 822.365h8.27" color="#000" marker-end="url(#b)" stroke="red" stroke-width=".529" style="isolation:auto;mix-blend-mode:normal;fill:none;marker-end:url(#b);shape-rendering:auto" transform="translate(134.445 -798.33)"/>
<path d="m-106.191 807.027 7.804 2.737" color="#000" marker-end="url(#c)" stroke="red" stroke-width=".529" style="isolation:auto;mix-blend-mode:normal;fill:none;shape-rendering:auto" transform="translate(134.445 -798.33)"/>
<path d="M-113.338 821.018v2.619M-105.744 805.796l-.866 2.472M-104.171 821.018v2.619M-97.093 808.83l-.867 2.472" color="#000" style="isolation:auto;mix-blend-mode:normal;fill:none;stroke:#000;stroke-width:.264582;shape-rendering:auto" transform="translate(134.445 -798.33)"/>
<path d="m-113.338 822.365 7.161-15.333M-97.522 810.055l-6.649 12.31M-131.612 822.365l-.32-12.82M-82.063 822.365l4.641-12.82" color="#000" style="isolation:auto;mix-blend-mode:normal;fill:none;stroke:#000;stroke-width:.132291;stroke-dasharray:.529165,.529165;shape-rendering:auto" transform="translate(134.445 -798.33)"/>
<g fill="green">
<path d="M24.91 19.296c-.592.142-1.052.759-1.052 1.333 0 .455.303.797.75.797.554 0 .948-.745.948-1.4 0-.432-.19-.669-.35-.882-.172-.214-.452-.57-.452-.778 0-.105.095-.219.261-.219.143 0 .238.062.337.128.095.057.19.119.261.119.119 0 .19-.114.19-.19 0-.104-.076-.118-.247-.156-.247-.053-.313-.053-.389-.053-.37 0-.54.204-.54.49 0 .255.137.521.284.81zm.058.104c.118.218.26.474.26.816 0 .313-.18 1.106-.62 1.106-.262 0-.456-.2-.456-.56 0-.3.175-1.191.816-1.362zM28.098 18.997c0-.314-.086-.973-.57-.973-.66 0-1.39 1.338-1.39 2.424 0 .446.138.973.57.973.668 0 1.39-1.362 1.39-2.424zm-1.457.65c.08-.304.176-.684.365-1.02.128-.233.304-.499.518-.499.232 0 .26.304.26.574 0 .233-.037.475-.151.945zm.949.151c-.052.219-.152.622-.332.964-.166.322-.347.555-.55.555-.157 0-.257-.138-.257-.58 0-.198.029-.474.152-.939zM29.234 20.005a.127.127 0 0 0-.133-.126c-.09 0-.186.086-.186.182 0 .057.044.127.133.127.097 0 .186-.093.186-.183zm-.677 1.687c-.014.043-.03.083-.03.14 0 .156.133.282.315.282.332 0 .479-.458.479-.508 0-.043-.044-.043-.054-.043-.046 0-.05.02-.063.056-.076.266-.222.402-.352.402-.066 0-.083-.043-.083-.116 0-.077.024-.14.053-.213.034-.09.07-.18.107-.266.03-.08.15-.382.162-.421a.4.4 0 0 0 .02-.107c0-.156-.132-.282-.315-.282-.329 0-.482.452-.482.508 0 .043.047.043.057.043.046 0 .05-.016.06-.053.086-.285.232-.405.355-.405.053 0 .083.027.083.116 0 .077-.02.126-.103.332z"/>
</g>
<g stroke-linejoin="round" stroke-miterlimit="100000" stroke-width="1.5">
<path d="M21.876 27.244c0-.314-.085-.973-.57-.973-.659 0-1.39 1.338-1.39 2.424 0 .446.138.973.57.973.669 0 1.39-1.362 1.39-2.424zm-1.457.65c.081-.304.176-.684.366-1.02.128-.233.303-.499.517-.499.232 0 .26.304.26.574 0 .233-.037.475-.15.945zm.95.151c-.053.219-.152.622-.333.964-.166.322-.346.555-.55.555-.157 0-.256-.138-.256-.58 0-.198.028-.474.151-.939zM23.013 28.252a.127.127 0 0 0-.133-.126c-.09 0-.186.086-.186.182 0 .057.043.127.133.127.096 0 .186-.093.186-.183zm-.678 1.687c-.013.043-.03.083-.03.14 0 .156.133.282.316.282.332 0 .478-.458.478-.508 0-.043-.043-.043-.053-.043-.047 0-.05.02-.063.056-.077.266-.223.402-.352.402-.067 0-.083-.043-.083-.116 0-.077.023-.14.053-.213.033-.09.07-.18.106-.266.03-.08.15-.382.163-.421a.4.4 0 0 0 .02-.107c0-.156-.133-.282-.316-.282-.329 0-.481.452-.481.508 0 .043.046.043.056.043.047 0 .05-.016.06-.053.086-.285.232-.405.355-.405.053 0 .083.027.083.116 0 .077-.02.126-.103.332zM59.51 27.244c0-.314-.086-.973-.57-.973-.66 0-1.39 1.338-1.39 2.424 0 .446.137.973.569.973.669 0 1.39-1.362 1.39-2.424zm-1.458.65c.081-.304.176-.684.366-1.02.128-.233.303-.499.517-.499.232 0 .261.304.261.574 0 .233-.038.475-.152.945zm.95.151c-.053.219-.152.622-.333.964-.166.322-.346.555-.55.555-.157 0-.256-.138-.256-.58 0-.198.028-.474.152-.939zM31.043 27.244c0-.314-.085-.973-.569-.973-.66 0-1.39 1.338-1.39 2.424 0 .446.138.973.57.973.668 0 1.39-1.362 1.39-2.424zm-1.456.65c.08-.304.175-.684.365-1.02.128-.233.304-.499.517-.499.233 0 .261.304.261.574 0 .233-.038.475-.151.945zm.949.151c-.052.219-.152.622-.332.964-.166.322-.347.555-.55.555-.157 0-.257-.138-.257-.58 0-.198.029-.474.152-.939zM32.18 28.252a.127.127 0 0 0-.133-.126c-.09 0-.186.086-.186.182 0 .057.043.127.133.127.096 0 .186-.093.186-.183zm-.678 1.687c-.013.043-.03.083-.03.14 0 .156.133.282.316.282.332 0 .478-.458.478-.508 0-.043-.043-.043-.053-.043-.046 0-.05.02-.063.056-.076.266-.223.402-.352.402-.067 0-.083-.043-.083-.116 0-.077.023-.14.053-.213.033-.09.07-.18.106-.266.03-.08.15-.382.163-.421a.4.4 0 0 0 .02-.107c0-.156-.133-.282-.316-.282-.328 0-.481.452-.481.508 0 .043.046.043.056.043.047 0 .05-.016.06-.053.086-.285.233-.405.355-.405.054 0 .084.027.084.116 0 .077-.02.126-.103.332zM33.979 29.577h1.016c.043 0 .123 0 .123-.08 0-.083-.076-.083-.123-.083H33.98v-1.02c0-.043 0-.122-.08-.122-.083 0-.083.076-.083.123v1.02h-1.02c-.043 0-.123 0-.123.079 0 .083.077.083.123.083h1.02v1.02c0 .043 0 .122.08.122.083 0 .083-.076.083-.122zM36.456 28.215c0-.09-.007-.093-.1-.093-.213.21-.515.213-.651.213v.12c.08 0 .299 0 .481-.093v1.693c0 .11 0 .153-.332.153h-.126v.12c.06-.003.468-.014.591-.014.103 0 .522.01.595.014v-.12h-.126c-.332 0-.332-.043-.332-.153z"/>
</g>
<g fill="red" color="#000">
<path d="M125.24 271.714c-2.242.538-3.981 2.87-3.981 5.04 0 1.72 1.148 3.012 2.833 3.012 2.098 0 3.587-2.816 3.587-5.29 0-1.632-.717-2.529-1.327-3.336-.646-.807-1.704-2.152-1.704-2.94 0-.395.359-.826.987-.826.538 0 .896.233 1.273.484.358.216.717.449.986.449.448 0 .717-.43.717-.718 0-.394-.287-.448-.932-.591-.933-.198-1.184-.198-1.47-.198-1.4 0-2.045.772-2.045 1.848 0 .968.52 1.972 1.076 3.066zm.215.395c.449.824.986 1.793.986 3.084 0 1.184-.681 4.178-2.349 4.178-.986 0-1.721-.753-1.721-2.116 0-1.13.663-4.5 3.084-5.146zM138.737 272.36a1.34 1.34 0 0 0-.968 1.237c0 .395.304.825.896.825.628 0 1.291-.52 1.291-1.398 0-.95-.95-1.579-2.044-1.579-1.022 0-1.686.772-1.919 1.094-.448-.753-1.452-1.094-2.474-1.094-2.26 0-3.48 2.206-3.48 2.798 0 .251.27.251.431.251.215 0 .34 0 .412-.233.52-1.632 1.812-2.17 2.547-2.17.681 0 1.004.323 1.004.897 0 .34-.25 1.327-.412 1.972l-.61 2.457c-.269 1.094-.915 1.632-1.524 1.632-.09 0-.502 0-.861-.27a1.34 1.34 0 0 0 .968-1.236c0-.395-.305-.825-.896-.825-.628 0-1.292.52-1.292 1.398 0 .95.95 1.578 2.045 1.578 1.022 0 1.685-.77 1.919-1.093.448.753 1.452 1.093 2.474 1.093 2.26 0 3.48-2.205 3.48-2.797 0-.251-.27-.251-.431-.251-.215 0-.34 0-.413.233-.52 1.632-1.81 2.17-2.546 2.17-.681 0-1.004-.323-1.004-.897 0-.376.233-1.327.394-1.99.126-.467.538-2.152.628-2.44.269-1.075.897-1.631 1.524-1.631.09 0 .502 0 .861.269zM145.01 274.395a.48.48 0 0 0-.502-.477c-.34 0-.703.326-.703.69 0 .214.163.477.502.477.364 0 .703-.351.703-.69zm-2.56 6.377c-.051.163-.114.314-.114.527 0 .59.502 1.067 1.193 1.067 1.255 0 1.807-1.732 1.807-1.92 0-.164-.163-.164-.2-.164-.176 0-.189.076-.239.214-.289 1.004-.841 1.519-1.33 1.519-.252 0-.314-.164-.314-.44 0-.288.088-.527.2-.803.126-.339.264-.678.402-1.004.113-.302.565-1.444.615-1.595a1.51 1.51 0 0 0 .076-.401c0-.59-.503-1.067-1.193-1.067-1.243 0-1.82 1.707-1.82 1.92 0 .164.176.164.213.164.176 0 .189-.063.226-.201.327-1.08.879-1.532 1.343-1.532.201 0 .314.1.314.44 0 .288-.075.477-.389 1.255z" style="isolation:auto;mix-blend-mode:normal" transform="translate(-.89 -67.462) scale(.26458)"/>
</g>
<g stroke-width="1.5" style="stroke-linejoin:round;stroke-miterlimit:100000">
<path d="M41.395 3.562a.253.253 0 0 0-.251-.252.253.253 0 0 0-.252.252c0 .137.114.251.252.251a.253.253 0 0 0 .251-.251zM42.558 4.951c.07 0 .16 0 .16-.095s-.09-.095-.156-.095H39.72c-.066 0-.156 0-.156.095s.09.095.161.095zm.004.92c.067 0 .157 0 .157-.094 0-.095-.09-.095-.161-.095h-2.833c-.071 0-.161 0-.161.095s.09.095.156.095zM47.324.052c0-.005 0-.052-.062-.052-.07 0-.522.043-.602.052-.038.005-.067.029-.067.09 0 .057.043.057.114.057.228 0 .237.033.237.08l-.014.096-.284 1.124c-.086-.175-.223-.303-.437-.303-.555 0-1.143.697-1.143 1.39 0 .446.26.759.63.759.095 0 .333-.019.617-.356.038.2.204.356.432.356.166 0 .275-.11.351-.261.08-.17.143-.46.143-.47 0-.047-.043-.047-.057-.047-.048 0-.053.019-.067.085-.08.309-.166.589-.36.589-.128 0-.143-.124-.143-.219 0-.114.01-.147.029-.227zm-.987 2.676c-.024.086-.024.095-.095.176-.209.26-.403.337-.536.337-.237 0-.304-.261-.304-.446 0-.238.152-.821.261-1.04.147-.28.361-.455.55-.455.31 0 .376.39.376.418 0 .028-.01.057-.015.08zM49.88 1.39a.354.354 0 0 0-.257.328c0 .104.08.218.237.218.166 0 .342-.138.342-.37 0-.252-.252-.418-.541-.418-.27 0-.446.204-.508.29-.118-.2-.384-.29-.655-.29-.597 0-.92.584-.92.74 0 .067.071.067.114.067.057 0 .09 0 .109-.062.138-.432.48-.574.674-.574.18 0 .265.085.265.237 0 .09-.066.351-.109.522l-.161.65c-.071.29-.242.432-.403.432-.024 0-.133 0-.228-.071a.354.354 0 0 0 .256-.328c0-.104-.08-.218-.237-.218-.166 0-.342.138-.342.37 0 .252.252.418.541.418.27 0 .446-.204.508-.29.118.2.384.29.655.29.597 0 .92-.584.92-.74 0-.067-.071-.067-.114-.067-.057 0-.09 0-.109.062-.138.432-.48.574-.674.574-.18 0-.265-.085-.265-.237 0-.1.061-.351.104-.527.033-.123.142-.57.166-.645.071-.285.237-.432.403-.432.024 0 .133 0 .228.071z"/>
</g>
<path style="stroke-width:.264582;stroke-linejoin:round;stroke-miterlimit:100000" d="M-89.57 803.551h5.596v.19h-5.596z" transform="translate(134.445 -798.33)"/>
<path d="M-86.738 804.846c0-.005 0-.052-.061-.052-.072 0-.522.043-.603.052-.038.005-.066.029-.066.09 0 .057.042.057.113.057.228 0 .238.033.238.08l-.015.096-.284 1.124c-.086-.175-.223-.303-.437-.303-.555 0-1.143.697-1.143 1.39 0 .446.26.759.63.759.096 0 .333-.02.618-.356.038.2.204.356.431.356.166 0 .276-.11.352-.261.08-.17.142-.46.142-.47 0-.047-.043-.047-.057-.047-.048 0-.052.019-.067.085-.08.309-.166.589-.36.589-.128 0-.142-.124-.142-.219 0-.114.009-.147.028-.227zm-.987 2.676c-.023.085-.023.095-.095.176-.208.26-.403.337-.536.337-.237 0-.303-.261-.303-.446 0-.238.151-.821.26-1.04.148-.28.361-.455.551-.455.308 0 .375.389.375.417 0 .029-.01.057-.014.081zM-84.567 805.714c0-.313-.085-.972-.57-.972-.659 0-1.39 1.338-1.39 2.424 0 .446.138.973.57.973.669 0 1.39-1.362 1.39-2.425zm-1.456.65c.08-.303.175-.683.365-1.02.128-.232.304-.498.517-.498.233 0 .261.304.261.574 0 .233-.038.475-.152.944zm.948.152c-.052.219-.151.622-.332.963-.166.323-.346.556-.55.556-.157 0-.256-.138-.256-.58 0-.199.028-.474.152-.939z" style="stroke-width:.396874;stroke-linejoin:round;stroke-miterlimit:100000" transform="translate(134.445 -798.33)"/>
<path d="M-82.151 802.759c-.593.142-1.054.759-1.054 1.333 0 .455.304.797.75.797.555 0 .95-.745.95-1.4 0-.432-.19-.669-.352-.882-.17-.214-.45-.57-.45-.778 0-.105.094-.219.26-.219.143 0 .237.062.337.128.095.057.19.119.261.119.119 0 .19-.114.19-.19 0-.104-.076-.118-.247-.156-.247-.053-.313-.053-.389-.053-.37 0-.54.204-.54.49 0 .255.137.521.284.81zm.057.104c.118.218.26.474.26.816 0 .313-.18 1.106-.62 1.106-.262 0-.456-.2-.456-.56 0-.3.175-1.191.816-1.362zM-78.965 802.46c0-.313-.085-.973-.569-.973-.66 0-1.39 1.338-1.39 2.425 0 .446.137.972.57.972.668 0 1.39-1.361 1.39-2.424zm-1.456.65c.08-.304.175-.683.365-1.02.128-.233.304-.498.517-.498.233 0 .261.303.261.574 0 .232-.038.474-.152.944zm.949.152c-.052.218-.152.621-.332.963-.166.322-.347.555-.55.555-.157 0-.257-.138-.257-.579 0-.2.028-.474.152-.94zM-77.828 803.468a.127.127 0 0 0-.133-.126c-.09 0-.186.086-.186.182 0 .057.043.127.133.127.096 0 .186-.093.186-.183zm-.678 1.687c-.013.043-.03.083-.03.14 0 .156.133.282.316.282.332 0 .478-.458.478-.508 0-.043-.043-.043-.053-.043-.047 0-.05.02-.063.056-.077.266-.223.402-.352.402-.067 0-.083-.043-.083-.116 0-.077.023-.14.053-.213.033-.09.07-.18.106-.266.03-.08.15-.382.163-.421a.398.398 0 0 0 .02-.107c0-.156-.133-.282-.316-.282-.329 0-.481.452-.481.508 0 .043.046.043.056.043.046 0 .05-.016.06-.053.086-.285.232-.405.355-.405.053 0 .083.027.083.116 0 .077-.02.126-.103.332z" style="font-variation-settings:normal;opacity:1;vector-effect:none;fill:green;fill-opacity:1;stroke-width:.264582;stroke-linecap:butt;stroke-linejoin:miter;stroke-miterlimit:4;stroke-dasharray:none;stroke-dashoffset:0;stroke-opacity:1;-inkscape-stroke:none;stop-color:#000;stop-opacity:1" transform="translate(134.445 -798.33)"/>
</svg>
