<svg width="227.554" height="105.424" viewBox="0 0 60.207 27.893" xml:space="preserve" xmlns="http://www.w3.org/2000/svg">
<defs>
<marker id="a" overflow="visible" orient="auto">
<path d="m-10 0-4 4L0 0l-14-4Z" fill-rule="evenodd" stroke="#000" stroke-width=".8pt"/>
</marker>
<marker id="b" overflow="visible" orient="auto">
<path d="m-4 0-2 2 7-2-7-2Z" fill="red" fill-rule="evenodd" stroke="red" stroke-width=".4pt"/>
</marker>
</defs>
<g transform="translate(137.204 -880.897)">
<path d="M-137.204 903.158h59.693" color="#000" marker-end="url(#a)" stroke="#000" style="isolation:auto;mix-blend-mode:normal;fill:none;stroke-width:.264582;marker-end:url(#a);shape-rendering:auto"/>
<path d="M-134.69 890.337c18.17-15.489 36.34 10.206 54.51 0" color="#000" stroke="#00f" stroke-width=".529" style="isolation:auto;mix-blend-mode:normal;fill:none;shape-rendering:auto"/>
<path d="M-134.37 901.81v2.62M-135.532 889.335l1.685 2.005M-84.822 901.81v2.62M-80.81 889.19l1.26 2.296" color="#000" style="isolation:auto;mix-blend-mode:normal;fill:none;stroke:#000;stroke-width:.264582;shape-rendering:auto"/>
<path d="m-134.37 903.158-.32-12.82M-84.822 903.158l4.641-12.82" color="#000" stroke-dasharray="2, 2" stroke-width=".132" style="font-variation-settings:normal;opacity:1;isolation:auto;mix-blend-mode:normal;vector-effect:none;fill:none;fill-opacity:1;stroke:#000;stroke-width:.132291;stroke-linecap:butt;stroke-linejoin:miter;stroke-miterlimit:4;stroke-dasharray:.529165,.529165;stroke-dashoffset:0;stroke-opacity:1;-inkscape-stroke:none;shape-rendering:auto;stop-color:#000;stop-opacity:1"/>
<g stroke-linejoin="round" stroke-miterlimit="100000">
<g stroke-width="1.5">
<path d="M-115.328 906.366c0-.314-.085-.973-.57-.973-.659 0-1.39 1.338-1.39 2.424 0 .446.138.973.57.973.669 0 1.39-1.362 1.39-2.424zm-1.457.65c.081-.304.176-.684.366-1.02.128-.233.303-.499.517-.499.232 0 .26.304.26.574 0 .233-.037.475-.151.945zm.95.151c-.053.219-.153.622-.333.964-.166.322-.346.555-.55.555-.157 0-.256-.138-.256-.58 0-.198.028-.474.151-.939z"/>
<path d="M-129.285 897.852a.048.048 0 0 0-.052-.048c-.014 0-.019.005-.071.057l-.332.365c-.043-.066-.261-.422-.788-.422-1.058 0-2.126 1.049-2.126 2.15 0 .782.56 1.3 1.286 1.3.413 0 .774-.19 1.025-.408.441-.39.522-.821.522-.836 0-.047-.047-.047-.057-.047-.028 0-.052.01-.062.047a1.544 1.544 0 0 1-.479.75c-.327.266-.626.346-.873.346-.427 0-.93-.246-.93-.986 0-.27.1-1.04.574-1.595.29-.337.736-.574 1.158-.574.484 0 .764.366.764.916 0 .19-.014.195-.014.242 0 .047.052.047.07.047.062 0 .062-.01.086-.094zM-127.815 900.243c0-.348-.133-.72-.459-.72-.498 0-1.03.89-1.03 1.65 0 .396.153.721.459.721.505 0 1.03-.907 1.03-1.65zm-1.113.406c.17-.718.455-1.033.65-1.033.213 0 .213.368.213.431 0 .13-.026.323-.096.602zm.737.12c-.093.361-.17.54-.269.703-.103.173-.236.33-.382.33-.182 0-.212-.253-.212-.433 0-.219.063-.478.096-.6z" fill="green"/>
</g>
<g stroke-width="1.333">
<path d="M-105.915 883.016a.454.454 0 0 0-.328.42c0 .133.103.279.303.279.213 0 .438-.176.438-.474 0-.322-.322-.535-.693-.535-.346 0-.57.262-.65.37-.151-.254-.491-.37-.838-.37-.765 0-1.178.747-1.178.948 0 .085.091.085.146.085.073 0 .115 0 .14-.079.176-.553.613-.735.862-.735.23 0 .34.11.34.304 0 .115-.085.45-.14.668l-.206.832c-.091.37-.31.553-.516.553-.03 0-.17 0-.292-.092a.454.454 0 0 0 .328-.419c0-.133-.103-.279-.303-.279-.213 0-.438.176-.438.474 0 .322.322.534.693.534.346 0 .57-.261.65-.37.151.255.491.37.838.37.765 0 1.178-.747 1.178-.947 0-.085-.091-.085-.146-.085-.073 0-.115 0-.14.079-.176.552-.613.735-.862.735-.23 0-.34-.11-.34-.304 0-.128.079-.45.133-.674.043-.158.183-.73.213-.826.091-.365.304-.553.516-.553.03 0 .17 0 .292.091zM-102.145 886.91c0-.019 0-.031-.104-.134-.759-.766-.953-1.913-.953-2.843 0-1.056.23-2.113.978-2.872.079-.073.079-.085.079-.103 0-.043-.025-.061-.061-.061-.06 0-.607.413-.966 1.184-.31.668-.382 1.342-.382 1.852 0 .474.066 1.209.4 1.895.365.747.887 1.142.948 1.142.036 0 .06-.018.06-.06zM-99.03 882.415c0-.4-.11-1.245-.73-1.245-.844 0-1.779 1.713-1.779 3.103 0 .571.176 1.245.729 1.245.856 0 1.78-1.743 1.78-3.103zm-1.865.832c.103-.389.225-.874.468-1.306.164-.297.388-.637.662-.637.297 0 .334.388.334.735 0 .297-.049.607-.195 1.208zm1.215.194c-.067.28-.195.796-.426 1.233-.212.413-.443.71-.704.71-.2 0-.328-.175-.328-.74 0-.255.036-.607.194-1.203zM-97.03 883.933c0-.473-.067-1.208-.4-1.895-.365-.747-.887-1.141-.948-1.141-.037 0-.06.024-.06.06 0 .019 0 .03.115.14.595.601.94 1.567.94 2.836 0 1.039-.224 2.108-.977 2.873-.079.073-.079.085-.079.103 0 .037.024.06.06.06.062 0 .608-.412.967-1.183.31-.668.382-1.343.382-1.853z"/>
</g>
</g>
<path d="m-108.94 887.832-6.507 13.934" color="#000" fill="none" marker-end="url(#b)" stroke="red" stroke-width=".529" style="isolation:auto;mix-blend-mode:normal;marker-end:url(#b)"/>
<circle cx="-108.938" cy="887.832" r="1.006" style="stroke-width:.264582"/>
<g fill="red">
<path d="M-108.684 898.386V895.4h.272v2.986Zm-1.788.023-.032-.237h.47q.232 0 .318-.175.089-.177.089-.675l-.004-.177h-1.166l-.02.157h-.259l.154-1.093h1.215v-.477h-1.319v-.21h1.587v.902h-1.253l-.077.498h1.417q0 .378-.007.567-.007.188-.047.408-.038.22-.096.305-.057.084-.172.145-.115.062-.26.062zM-105.154 897.399l-.183.185q-.182-.122-.448-.193-.267-.074-.515-.074-.54 0-.725.114-.184.111-.184.31 0 .173.214.271.213.099.838.099.553 0 .98-.07l.007.24q-.372.061-.994.061-.718 0-1.015-.153-.296-.155-.296-.448 0-.314.281-.477.284-.165.757-.165.51 0 .892.143-.167-.215-.309-.481h-1.726v-.215h1.623q-.092-.207-.152-.399h-1.376v-.215h1.308q-.053-.213-.082-.417l.265-.023q.049.298.085.44h.964v.215h-.904q.045.14.15.399h.914v.215h-.805q.138.256.436.638zM-104.245 895.717v-.2h2.938v.2zm.432.973q0 .475-.124.929-.121.451-.368.775l-.173-.143q.183-.252.293-.662.11-.412.11-.87v-.72h2.603v.691zm2.098-.508h-2.098v.322h2.098zm-.885 1.385q-.117.327-.468.558-.352.232-.767.304l-.073-.192q.38-.076.7-.295.32-.218.416-.565h-.883v-.208h.927v-.355h.271v.355h1.174v.208h-1.16q.321.603 1.198.829l-.143.213q-.862-.248-1.192-.852zM-97.926 897.052q-.189.667-.555.98-.367.313-.944.313-.225 0-.4-.045-.175-.045-.3-.133-.125-.09-.2-.223-.075-.135-.096-.292-.02-.157-.02-.518 0-.615.073-1.51h.273q-.088.858-.088 1.523 0 .232.01.392.012.158.097.293.086.135.256.205.17.07.422.07.452 0 .752-.253.3-.255.486-.889z"/>
</g>
<path d="M-130.62 883.258c0-.015-.008-.048-.052-.048-.014 0-.019.005-.07.057l-.333.366c-.043-.067-.261-.423-.788-.423-1.058 0-2.125 1.049-2.125 2.15 0 .782.56 1.3 1.286 1.3.412 0 .773-.19 1.024-.408.442-.39.522-.821.522-.835 0-.048-.047-.048-.057-.048-.028 0-.052.01-.061.048a1.544 1.544 0 0 1-.48.75c-.327.265-.626.346-.873.346-.427 0-.93-.247-.93-.987 0-.27.1-1.04.575-1.595.289-.336.735-.574 1.157-.574.484 0 .764.366.764.916 0 .19-.014.195-.014.242 0 .048.052.048.071.048.062 0 .062-.01.086-.095z" fill="#00f" style="stroke-width:.264582"/>
<path d="M-134.369 903.158h49.532" color="#000" fill="none" stroke="green" stroke-width=".529" style="isolation:auto;mix-blend-mode:normal"/>
<circle cx="-116.097" cy="903.12" r="1.006" style="stroke-width:.264582"/>
</g>
</svg>
