<svg width="148.178" height="74.684" viewBox="0 0 39.205 19.76" xml:space="preserve" xmlns="http://www.w3.org/2000/svg">
<defs>
<marker id="b" overflow="visible" orient="auto">
<path d="m10 0 4-4L0 0l14 4Z" fill="red" fill-rule="evenodd" stroke="red" stroke-width=".8pt"/>
</marker>
<marker id="a" overflow="visible" orient="auto">
<path d="m-10 0-4 4L0 0l-14-4Z" fill="red" fill-rule="evenodd" stroke="red" stroke-width=".8pt"/>
</marker>
</defs>
<g stroke-miterlimit="100000" style="stroke-linejoin:round">
<path d="M14.377.45h24.696L24.854 15.603H.16z" fill="#e4e4e4" stroke="#000" stroke-width=".26458"/>
<path d="M24.481 5.382c-.23.009-.396.19-.396.372 0 .115.074.239.256.239.181 0 .38-.14.38-.462 0-.371-.355-.71-.982-.71-1.09 0-1.394.842-1.394 1.205 0 .643.61.767.85.816.428.083.857.174.857.627 0 .215-.19.908-1.18.908-.115 0-.75 0-.94-.437a.45.45 0 0 0 .52-.438c0-.19-.132-.288-.305-.288-.215 0-.462.173-.462.544 0 .47.47.8 1.18.8 1.336 0 1.657-.998 1.657-1.37a.857.857 0 0 0-.255-.601c-.223-.231-.462-.273-.825-.347-.297-.066-.627-.123-.627-.495 0-.239.198-.742.924-.742.206 0 .618.058.742.38z"/>
<path d="M13.083 18.115c.03-.126.081-.329.081-.374 0-.162-.131-.223-.238-.223a.345.345 0 0 0-.258.127.71.71 0 0 0-.536-.213c-.88 0-1.427.8-1.427 1.493 0 .623.465.835.885.835.36 0 .623-.197.704-.273.192.273.526.273.582.273.187 0 .334-.106.44-.288.127-.203.193-.476.193-.501 0-.071-.076-.071-.122-.071-.056 0-.076 0-.101.025-.01.01-.01.02-.04.147-.102.405-.218.506-.345.506-.055 0-.116-.02-.116-.187 0-.086.02-.167.07-.37.036-.141.087-.344.112-.455zm-.84 1.134c-.147.172-.384.329-.627.329-.314 0-.34-.273-.34-.385 0-.263.173-.885.254-1.083.157-.37.405-.496.612-.496.299 0 .42.238.42.294l-.01.07zM4.047 4.562c.02-.071.02-.081.02-.086 0-.066-.056-.092-.111-.092-.02 0-.025 0-.036.006l-.652.03c-.071.005-.162.01-.162.152 0 .09.096.09.131.09.056 0 .147 0 .213.01-.04.173-.091.39-.142.583l-.35 1.397c-.07.283-.07.344-.07.46 0 .648.48.825.86.825.916 0 1.438-.825 1.438-1.493 0-.622-.466-.835-.886-.835a1.08 1.08 0 0 0-.552.162zm-.289 3.193c-.197 0-.364-.106-.364-.42 0-.162.05-.35.086-.506.05-.192.137-.542.172-.693.025-.086.314-.345.623-.345.313 0 .339.274.339.385 0 .263-.172.886-.253 1.083-.172.41-.456.496-.603.496z" fill="red"/>
</g>
<path d="M-68.75 955.532a6.26 6.26 0 0 1 2.001 4.634" fill="none" stroke="#260000" stroke-miterlimit="100" stroke-width=".318" style="stroke-linejoin:round" transform="translate(73.167 -944.515)"/>
<path d="M-48.312 960.119h-24.696l14.219-15.154" fill="none" marker-end="url(#a)" marker-start="url(#b)" stroke="red" stroke-miterlimit="100" stroke-width=".318" style="stroke-linejoin:round;marker-start:url(#b)" transform="translate(73.167 -944.515)"/>
<path d="M-63.31 955.858c0-.334-.09-1.038-.606-1.038-.704 0-1.483 1.427-1.483 2.586 0 .476.146 1.038.607 1.038.714 0 1.483-1.453 1.483-2.586zm-1.553.693c.086-.324.187-.729.39-1.088.136-.248.324-.532.551-.532.248 0 .279.324.279.613 0 .248-.04.506-.162 1.007zm1.012.162c-.055.233-.162.663-.354 1.027-.177.344-.37.592-.587.592-.167 0-.273-.146-.273-.617 0-.213.03-.506.162-1.002z" style="stroke-linejoin:round" transform="translate(73.167 -944.515)"/>
</svg>
