<svg width="148.178" height="74.684" viewBox="0 0 39.205 19.76" xml:space="preserve" xmlns="http://www.w3.org/2000/svg">
<defs>
<marker id="b" overflow="visible" orient="auto">
<path d="m10 0 4-4L0 0l14 4Z" fill="red" fill-rule="evenodd" stroke="red" stroke-width=".8pt"/>
</marker>
<marker id="a" overflow="visible" orient="auto">
<path d="m-10 0-4 4L0 0l-14-4Z" fill="red" fill-rule="evenodd" stroke="red" stroke-width=".8pt"/>
</marker>
</defs>
<path d="M-58.79 944.965h24.696l-14.218 15.154h-24.696z" fill="#e4e4e4" stroke="#000" style="font-variation-settings:normal;opacity:1;vector-effect:none;fill:#e5e5e5;fill-opacity:1;stroke:#000;stroke-width:.264583;stroke-linecap:butt;stroke-linejoin:miter;stroke-miterlimit:4;stroke-dasharray:none;stroke-dashoffset:0;stroke-opacity:1;-inkscape-stroke:none;stop-color:#000;stop-opacity:1" transform="translate(73.167 -944.515)"/>
<path d="M-48.686 949.898c-.23.008-.396.19-.396.37 0 .116.075.24.256.24.182 0 .38-.14.38-.462 0-.371-.355-.71-.982-.71-1.089 0-1.394.842-1.394 1.205 0 .643.61.767.85.817.428.082.857.173.857.627 0 .214-.19.907-1.18.907-.115 0-.75 0-.94-.437a.45.45 0 0 0 .52-.437c0-.19-.132-.29-.305-.29-.215 0-.462.174-.462.545 0 .47.47.8 1.18.8 1.336 0 1.658-.998 1.658-1.369a.857.857 0 0 0-.256-.602c-.223-.231-.462-.272-.825-.347-.297-.066-.627-.123-.627-.494 0-.24.198-.743.924-.743.206 0 .619.058.742.38z" style="stroke-linejoin:round;stroke-miterlimit:100000" transform="translate(73.167 -944.515)"/>
<path d="M-60.083 962.63c.03-.126.08-.328.08-.374 0-.162-.131-.223-.237-.223a.344.344 0 0 0-.258.127.71.71 0 0 0-.537-.213c-.88 0-1.427.8-1.427 1.493 0 .623.466.835.886.835.359 0 .622-.197.703-.273.192.273.526.273.582.273.187 0 .334-.106.44-.288.127-.202.193-.476.193-.501 0-.071-.076-.071-.122-.071-.055 0-.076 0-.1.025-.011.01-.011.02-.041.147-.102.405-.218.506-.345.506-.055 0-.116-.02-.116-.187 0-.086.02-.167.07-.37.036-.141.087-.344.112-.455zm-.84 1.134c-.147.172-.385.33-.628.33-.314 0-.34-.274-.34-.385 0-.264.173-.886.254-1.083.157-.37.405-.496.612-.496.299 0 .42.237.42.293l-.01.071zM-69.12 949.077c.02-.071.02-.081.02-.086 0-.066-.055-.091-.11-.091-.021 0-.026 0-.036.005l-.653.03c-.071.005-.162.01-.162.152 0 .09.096.09.131.09.056 0 .147 0 .213.011-.04.172-.091.39-.142.582l-.349 1.397c-.07.283-.07.344-.07.46 0 .648.48.825.86.825.916 0 1.437-.825 1.437-1.493 0-.622-.466-.835-.886-.835-.243 0-.445.097-.551.162zm-.288 3.193c-.198 0-.365-.106-.365-.42 0-.162.05-.349.086-.506.05-.192.137-.541.172-.693.026-.086.314-.344.623-.344.314 0 .339.273.339.384 0 .263-.172.886-.253 1.083-.172.41-.456.496-.602.496z" fill="red" style="stroke-linejoin:round;stroke-miterlimit:100000" transform="translate(73.167 -944.515)"/>
<path d="M-68.75 955.532a6.26 6.26 0 0 1 2.001 4.634" fill="none" stroke="#260000" stroke-miterlimit="100" stroke-width=".318" style="font-variation-settings:normal;opacity:1;vector-effect:none;fill:none;fill-opacity:1;stroke:#000;stroke-width:.264585px;stroke-linecap:butt;stroke-linejoin:miter;stroke-miterlimit:4;stroke-dasharray:none;stroke-dashoffset:0;stroke-opacity:1;-inkscape-stroke:none;stop-color:#000;stop-opacity:1" transform="translate(73.167 -944.515)"/>
<path d="M-48.312 960.119h-24.696l14.219-15.154" fill="none" marker-end="url(#a)" marker-start="url(#b)" stroke="red" stroke-miterlimit="100" stroke-width=".318" style="stroke-linejoin:round;marker-start:url(#b)" transform="translate(73.167 -944.515)"/>
<path d="M-63.31 955.858c0-.334-.09-1.038-.606-1.038-.704 0-1.483 1.427-1.483 2.586 0 .476.146 1.038.607 1.038.714 0 1.483-1.453 1.483-2.586zm-1.553.693c.086-.324.187-.729.39-1.088.136-.248.324-.532.551-.532.248 0 .279.324.279.613 0 .248-.04.506-.162 1.007zm1.012.162c-.055.233-.162.663-.354 1.027-.177.344-.37.592-.587.592-.167 0-.273-.146-.273-.617 0-.213.03-.506.162-1.002z" style="stroke-linejoin:round" transform="translate(73.167 -944.515)"/>
</svg>
