<svg width="181.286" height="143.189" viewBox="0 0 47.965 37.886" xml:space="preserve" xmlns="http://www.w3.org/2000/svg">
<defs>
<marker id="a" overflow="visible" orient="auto">
<path d="m-10 0-4 4L0 0l-14-4Z" fill-rule="evenodd" stroke="#000" stroke-width=".8pt"/>
</marker>
<marker id="b" overflow="visible" orient="auto">
<path d="m-10 0-4 4L0 0l-14-4Z" fill-rule="evenodd" stroke="#000" stroke-width=".8pt"/>
</marker>
<marker id="c" overflow="visible" orient="auto">
<path d="m-4 0-2 2 7-2-7-2Z" fill="red" fill-rule="evenodd" stroke="red" stroke-width=".4pt"/>
</marker>
<marker id="d" overflow="visible" orient="auto">
<path d="m-4 0-2 2 7-2-7-2Z" fill="red" fill-rule="evenodd" stroke="red" stroke-width=".4pt"/>
</marker>
</defs>
<path d="M-133.362 962.977h43.77" color="#000" fill="none" marker-end="url(#marker5692-5)" stroke="#000" stroke-width=".212" style="font-variation-settings:normal;opacity:1;isolation:auto;mix-blend-mode:normal;vector-effect:none;fill:none;fill-opacity:1;stroke:#000;stroke-width:.211666;stroke-linecap:butt;stroke-linejoin:miter;stroke-miterlimit:4;stroke-dasharray:none;stroke-dashoffset:0;stroke-opacity:1;-inkscape-stroke:none;marker-end:url(#a);shape-rendering:auto;stop-color:#000;stop-opacity:1" transform="translate(133.362 -927.605)"/>
<path d="M-130.452 965.49v-27.908" color="#000" fill="none" marker-end="url(#b)" stroke="#000" stroke-width=".212" style="isolation:auto;mix-blend-mode:normal;marker-end:url(#b);shape-rendering:auto" transform="translate(133.362 -927.605)"/>
<path d="M-133.024 945.964h33.164l2.572 17.013h-33.164z" color="#000" fill="#e2fbe2" stroke="#008400" style="font-variation-settings:normal;opacity:1;isolation:auto;mix-blend-mode:normal;vector-effect:none;fill:#e2fbe2;fill-opacity:1;stroke:#008400;stroke-width:.264583;stroke-linecap:butt;stroke-linejoin:miter;stroke-miterlimit:4;stroke-dasharray:none;stroke-dashoffset:0;stroke-opacity:1;-inkscape-stroke:none;shape-rendering:auto;stop-color:#000;stop-opacity:1" transform="translate(133.362 -927.605)"/>
<path d="M-115.778 929.494c9.494-5.7 12.854 4.721 25.956-.169l4.261 14.052c-17.587 5.935-22.098-10.899-33.965 0z" color="#000" fill="#ebeaff" stroke="#00f" style="isolation:auto;mix-blend-mode:normal;stroke-width:.264583;shape-rendering:auto" transform="translate(133.362 -927.605)"/>
<path d="m-109.184 933.47 4.947 1.746.334 4.661" color="#000" stroke="#000" stroke-width=".212" style="isolation:auto;mix-blend-mode:normal;fill:none;shape-rendering:auto" transform="translate(133.362 -927.605)"/>
<path d="m-109.754 938.11 5.497 1.66" color="#000" marker-end="url(#c)" stroke="red" stroke-linecap="round" style="isolation:auto;mix-blend-mode:normal;fill:none;stroke-width:.264583;shape-rendering:auto" transform="translate(133.362 -927.605)"/>
<path d="m-109.754 938.11.517-4.21" color="#000" marker-end="url(#d)" stroke="red" stroke-linecap="round" style="isolation:auto;mix-blend-mode:normal;fill:none;stroke-width:.264583;shape-rendering:auto" transform="translate(133.362 -927.605)"/>
<path d="M-115.985 955.681h6.728v5.08" color="#000" stroke="#000" stroke-width=".212" style="font-variation-settings:normal;opacity:1;isolation:auto;mix-blend-mode:normal;vector-effect:none;fill:none;fill-opacity:1;stroke:#000;stroke-width:.211666;stroke-linecap:butt;stroke-linejoin:miter;stroke-miterlimit:4;stroke-dasharray:none;stroke-dashoffset:0;stroke-opacity:1;-inkscape-stroke:none;shape-rendering:auto;stop-color:#000;stop-opacity:1" transform="translate(133.362 -927.605)"/>
<path d="M-115.985 960.761h6.728" color="#000" marker-end="url(#marker5228)" stroke="red" stroke-linecap="round" style="font-variation-settings:normal;opacity:1;isolation:auto;mix-blend-mode:normal;vector-effect:none;fill:none;fill-opacity:1;stroke:red;stroke-width:.264583;stroke-linecap:round;stroke-linejoin:miter;stroke-miterlimit:4;stroke-dasharray:none;stroke-dashoffset:0;stroke-opacity:1;-inkscape-stroke:none;marker-end:url(#c);shape-rendering:auto;stop-color:#000;stop-opacity:1" transform="translate(133.362 -927.605)"/>
<path d="M-115.985 960.761v-5.08" color="#000" marker-end="url(#marker5403)" stroke="red" stroke-linecap="round" style="font-variation-settings:normal;opacity:1;isolation:auto;mix-blend-mode:normal;vector-effect:none;fill:none;fill-opacity:1;stroke:red;stroke-width:.264583;stroke-linecap:round;stroke-linejoin:miter;stroke-miterlimit:4;stroke-dasharray:none;stroke-dashoffset:0;stroke-opacity:1;-inkscape-stroke:none;marker-end:url(#c);shape-rendering:auto;stop-color:#000;stop-opacity:1" transform="translate(133.362 -927.605)"/>
<path d="m-130.452 962.977 10.926-19.6M-133.024 945.964l17.246-16.317M-99.86 945.964l10.039-16.5M-97.288 962.977l11.727-19.6" color="#000" style="isolation:auto;mix-blend-mode:normal;fill:none;stroke:#000;stroke-width:.132291;stroke-dasharray:.529165,.529165;shape-rendering:auto" transform="translate(133.362 -927.605)"/>
<g stroke-linejoin="round" stroke-miterlimit="100000" stroke-width="1.5">
<path d="M47.33 34.646c0-.313-.086-.972-.57-.972-.659 0-1.39 1.338-1.39 2.424 0 .446.138.973.57.973.669 0 1.39-1.362 1.39-2.425zm-1.457.65c.08-.303.176-.683.366-1.02.128-.232.303-.498.517-.498.232 0 .26.304.26.574 0 .233-.037.475-.151.944zm.95.152c-.053.218-.153.622-.333.963-.166.323-.346.555-.55.555-.157 0-.257-.137-.257-.578 0-.2.029-.475.152-.94zM3.508 3.905c0-.01.014-.062.014-.067 0-.004 0-.047-.056-.047-.048 0-.053.014-.072.095L3.12 4.982c-.754.023-1.452.655-1.452 1.3 0 .45.332.825.911.859-.038.147-.07.299-.109.446-.057.223-.104.403-.104.417 0 .048.033.052.057.052.023 0 .033-.004.047-.019.01-.01.038-.123.052-.19l.18-.706c.765-.024 1.453-.665 1.453-1.3 0-.375-.252-.812-.911-.86zm-.906 3.131c-.285-.014-.626-.18-.626-.655 0-.569.408-1.233 1.115-1.295zm.612-1.95c.36.02.631.237.631.655 0 .56-.408 1.238-1.12 1.295z"/>
</g>
<path d="M-107.186 959.71c-.593.143-1.054.76-1.054 1.334 0 .455.304.797.75.797.555 0 .949-.745.949-1.4 0-.432-.19-.67-.351-.883-.17-.213-.45-.569-.45-.778 0-.104.094-.218.26-.218.142 0 .237.062.337.128.095.057.19.119.261.119.119 0 .19-.114.19-.19 0-.104-.076-.119-.247-.157-.247-.052-.313-.052-.389-.052-.37 0-.54.204-.54.489 0 .256.137.522.284.811zm.057.105c.118.218.26.474.26.816 0 .313-.18 1.105-.621 1.105-.26 0-.455-.199-.455-.56 0-.299.175-1.19.816-1.361zM-104 959.411c0-.313-.085-.972-.569-.972-.66 0-1.39 1.338-1.39 2.424 0 .446.137.973.57.973.668 0 1.39-1.362 1.39-2.425zm-1.456.65c.08-.303.175-.683.365-1.02.128-.232.304-.498.517-.498.233 0 .261.304.261.574 0 .233-.038.475-.152.944zm.949.152c-.052.218-.152.622-.332.963-.166.323-.347.555-.55.555-.157 0-.257-.137-.257-.578 0-.2.029-.475.152-.94zM-102.863 960.42a.127.127 0 0 0-.133-.127c-.09 0-.186.087-.186.183 0 .057.043.126.133.126.096 0 .186-.093.186-.182zm-.678 1.687c-.013.043-.03.083-.03.14 0 .155.133.282.316.282.332 0 .478-.459.478-.509 0-.043-.043-.043-.053-.043-.047 0-.05.02-.063.057-.077.265-.223.402-.352.402-.067 0-.083-.044-.083-.117 0-.076.023-.14.053-.212.033-.09.07-.18.106-.266.03-.08.15-.382.163-.422a.398.398 0 0 0 .02-.106c0-.156-.133-.282-.316-.282-.329 0-.481.451-.481.508 0 .043.046.043.056.043.047 0 .05-.017.06-.053.086-.286.232-.405.355-.405.053 0 .083.026.083.116 0 .076-.02.126-.103.332zM-122.448 955.04c-.593.142-1.053.76-1.053 1.333 0 .456.304.797.75.797.555 0 .949-.744.949-1.4 0-.431-.19-.668-.351-.882-.171-.213-.451-.57-.451-.778 0-.104.095-.218.26-.218.143 0 .238.062.338.128.095.057.19.119.26.119.12 0 .19-.114.19-.19 0-.105-.075-.119-.246-.157-.247-.052-.313-.052-.39-.052-.37 0-.54.204-.54.489 0 .256.137.522.284.811zm.057.104c.119.219.261.475.261.817 0 .313-.18 1.105-.621 1.105-.261 0-.456-.2-.456-.56 0-.299.176-1.19.816-1.362zM-119.346 953.934c0-.009.014-.061.014-.066 0-.005 0-.047-.057-.047-.047 0-.052.014-.071.095l-.275 1.096c-.755.023-1.452.654-1.452 1.3 0 .45.332.825.91.858-.037.147-.07.3-.108.446-.057.223-.105.404-.105.418 0 .047.033.052.057.052s.033-.005.048-.019c.009-.009.038-.123.052-.19l.18-.707c.764-.023 1.452-.664 1.452-1.3 0-.375-.251-.811-.911-.858zm-.907 3.132c-.284-.014-.626-.18-.626-.655 0-.57.408-1.233 1.115-1.295zm.613-1.95c.36.019.63.237.63.655 0 .56-.407 1.238-1.12 1.295zM-117.527 955.75a.127.127 0 0 0-.133-.127c-.09 0-.186.086-.186.183 0 .056.043.126.133.126.096 0 .186-.093.186-.183zm-.678 1.686c-.013.044-.03.083-.03.14 0 .156.133.282.316.282.332 0 .478-.458.478-.508 0-.043-.043-.043-.053-.043-.046 0-.05.02-.063.056-.076.266-.222.402-.352.402-.066 0-.083-.043-.083-.116 0-.076.023-.14.053-.213.033-.09.07-.179.106-.265.03-.08.15-.382.163-.422a.398.398 0 0 0 .02-.106c0-.156-.133-.283-.315-.283-.33 0-.482.452-.482.508 0 .044.046.044.056.044.047 0 .05-.017.06-.053.087-.286.233-.406.356-.406.053 0 .083.027.083.117 0 .076-.02.126-.103.332z" style="font-variation-settings:normal;opacity:1;vector-effect:none;fill:green;fill-opacity:1;stroke-width:.275607;stroke-linecap:butt;stroke-linejoin:miter;stroke-miterlimit:4;stroke-dasharray:none;stroke-dashoffset:0;stroke-opacity:1;-inkscape-stroke:none;stop-color:#000;stop-opacity:1" transform="translate(133.362 -927.605)"/>
<path d="m-108.065 941.857-5.527 8.716 2.819-1.534-2.608 8.865 1.084.32 2.608-8.867 1.535 2.82z" color="#000" style="text-indent:0;text-decoration-line:none;text-decoration-style:solid;text-decoration-color:#000;text-transform:none;white-space:normal;isolation:auto;mix-blend-mode:normal;fill:red;stroke-width:.264583" transform="translate(133.362 -927.605)"/>
<g fill="red" color="#000">
<path d="M118.887 45.401c-2.242.538-3.981 2.87-3.981 5.04 0 1.72 1.148 3.012 2.833 3.012 2.098 0 3.587-2.816 3.587-5.29 0-1.632-.717-2.529-1.327-3.336-.646-.807-1.704-2.152-1.704-2.94 0-.395.359-.826.987-.826.538 0 .896.233 1.273.484.358.216.717.449.986.449.448 0 .717-.43.717-.718 0-.394-.287-.448-.932-.591-.933-.198-1.184-.198-1.47-.198-1.4 0-2.045.772-2.045 1.848 0 .968.52 1.972 1.076 3.066zm.215.395c.449.824.986 1.793.986 3.084 0 1.184-.68 4.178-2.349 4.178-.986 0-1.721-.753-1.721-2.116 0-1.13.663-4.5 3.084-5.146zM132.384 46.047a1.34 1.34 0 0 0-.968 1.237c0 .395.304.825.896.825.628 0 1.291-.52 1.291-1.398 0-.95-.95-1.579-2.044-1.579-1.022 0-1.686.772-1.919 1.094-.448-.753-1.452-1.094-2.474-1.094-2.26 0-3.48 2.206-3.48 2.798 0 .251.27.251.431.251.215 0 .34 0 .412-.233.52-1.632 1.812-2.17 2.547-2.17.681 0 1.004.323 1.004.897 0 .34-.25 1.327-.412 1.972l-.61 2.457c-.269 1.094-.915 1.632-1.524 1.632-.09 0-.502 0-.861-.27a1.34 1.34 0 0 0 .968-1.236c0-.395-.305-.825-.896-.825-.628 0-1.292.52-1.292 1.398 0 .95.95 1.578 2.045 1.578 1.022 0 1.685-.77 1.919-1.093.448.753 1.452 1.093 2.474 1.093 2.26 0 3.48-2.205 3.48-2.797 0-.251-.27-.251-.431-.251-.215 0-.34 0-.413.233-.52 1.632-1.81 2.17-2.546 2.17-.681 0-1.004-.323-1.004-.897 0-.376.233-1.327.394-1.99.126-.467.538-2.152.628-2.44.269-1.075.897-1.631 1.524-1.631.09 0 .502 0 .861.269zM138.656 48.082a.48.48 0 0 0-.502-.477c-.339 0-.703.326-.703.69 0 .214.163.477.502.477.364 0 .703-.351.703-.69zm-2.56 6.377c-.051.163-.114.314-.114.527 0 .59.502 1.067 1.193 1.067 1.255 0 1.807-1.732 1.807-1.92 0-.164-.163-.164-.2-.164-.176 0-.189.076-.239.214-.289 1.004-.841 1.519-1.33 1.519-.252 0-.314-.164-.314-.44 0-.288.088-.527.2-.803.126-.339.264-.678.402-1.004.113-.302.565-1.444.615-1.595a1.51 1.51 0 0 0 .076-.401c0-.59-.503-1.067-1.193-1.067-1.243 0-1.82 1.707-1.82 1.92 0 .164.176.164.213.164.176 0 .189-.063.226-.201.327-1.08.879-1.532 1.343-1.532.201 0 .314.1.314.44 0 .288-.075.477-.389 1.255zM91.198 8.757c-2.241.538-3.98 2.87-3.98 5.04 0 1.72 1.147 3.012 2.833 3.012 2.098 0 3.586-2.816 3.586-5.29 0-1.632-.717-2.529-1.327-3.336-.645-.807-1.703-2.152-1.703-2.94 0-.395.358-.826.986-.826.538 0 .897.233 1.273.484.359.216.717.449.986.449.449 0 .718-.43.718-.718 0-.394-.287-.448-.933-.591-.932-.198-1.183-.198-1.47-.198-1.399 0-2.045.772-2.045 1.848 0 .968.52 1.972 1.076 3.066zm.216.395c.448.824.986 1.793.986 3.084 0 1.184-.682 4.178-2.35 4.178-.986 0-1.72-.753-1.72-2.116 0-1.13.663-4.5 3.084-5.146zM105.43 9.833c.09-.323.09-.359.09-.412 0-.395-.287-.79-.843-.79-.933 0-1.148.843-1.273 1.328l-.467 1.865c-.215.86-.556 2.241-.753 2.976-.09.395-.645.825-.7.861-.196.126-.627.43-1.219.43-1.058 0-1.076-.896-1.076-1.309 0-1.093.556-2.492 1.058-3.783.18-.467.234-.592.234-.897 0-1.04-1.04-1.614-2.027-1.614-1.9 0-2.797 2.439-2.797 2.798 0 .25.269.25.43.25.215 0 .34 0 .413-.233.591-1.99 1.578-2.17 1.847-2.17.125 0 .304 0 .304.377 0 .413-.197.879-.304 1.166-.7 1.793-1.076 2.815-1.076 3.73 0 2.044 1.793 2.331 2.85 2.331.45 0 1.059-.072 1.722-.538-.502 2.206-1.847 3.371-3.084 3.371-.233 0-.735-.035-1.094-.25.574-.234.86-.718.86-1.202 0-.646-.52-.825-.878-.825-.663 0-1.29.574-1.29 1.363 0 .914.95 1.56 2.402 1.56 2.062 0 4.43-1.38 4.985-3.604zM110.399 13.132a.48.48 0 0 0-.502-.477c-.34 0-.703.326-.703.69 0 .214.163.477.502.477.364 0 .703-.351.703-.69zm-2.56 6.377c-.051.163-.114.314-.114.527 0 .59.502 1.067 1.193 1.067 1.255 0 1.807-1.732 1.807-1.92 0-.164-.163-.164-.2-.164-.176 0-.189.076-.239.214-.289 1.004-.841 1.519-1.33 1.519-.252 0-.314-.164-.314-.44 0-.288.088-.527.2-.803.126-.339.264-.678.402-1.004.113-.302.565-1.444.615-1.595a1.51 1.51 0 0 0 .076-.401c0-.59-.503-1.067-1.193-1.067-1.243 0-1.82 1.707-1.82 1.92 0 .164.176.164.213.164.176 0 .189-.063.226-.201.327-1.08.879-1.532 1.343-1.532.201 0 .314.1.314.44 0 .288-.075.477-.389 1.255z" style="isolation:auto;mix-blend-mode:normal" transform="matrix(.26458 0 0 .26458 -.132 -.132)"/>
</g>
</svg>
