<svg width="139.823" height="143.795" viewBox="0 0 139.824 143.795" xmlns="http://www.w3.org/2000/svg">
<g stroke-linejoin="round" stroke-miterlimit="100000" stroke-width=".826" fill="#00f">
<path d="m54.74 385.741 6.036 6.036.466-1.087 2.952 5.127-5.127-2.952 1.087-.466-6.036-6.037.621-.621M64.864 386.921l5.547 4.16.307-1.143 3.647 4.658-5.492-2.197 1.01-.615-5.546-4.16.527-.703M74.969 388.1l5.049 2.524.098-1.179 4.421 3.93-5.797-1.179.884-.786-5.048-2.524.393-.786M85.05 389.287l4.65 1.162-.16-1.172 5.17 2.878-5.916.106.693-.96-4.65-1.161.214-.853M95.116 390.495h4.492l-.44-1.099 5.713 1.538-5.712 1.538.439-1.098h-4.492v-.879M105.181 391.729l4.65-1.162-.693-.96 5.915.107-5.17 2.878.16-1.173-4.649 1.163-.213-.853M115.263 392.982l5.049-2.524-.885-.786 5.798-1.18-4.422 3.93-.098-1.178-5.049 2.524-.393-.786M125.368 394.245l5.547-4.16-1.011-.615 5.493-2.197-3.648 4.658-.307-1.143-5.547 4.16-.527-.703M135.493 395.506l6.036-6.036-1.087-.466 5.127-2.952-2.952 5.127-.466-1.088-6.037 6.036-.621-.621M56 375.288l4.16 5.547.616-1.011 2.197 5.493-4.658-3.648 1.143-.307-4.16-5.547.703-.527M66.132 376.462l3.595 3.595.466-1.087 2.952 5.126-5.127-2.951 1.087-.466-3.595-3.596.622-.621M76.237 377.627l2.936 1.958.244-1.158 3.9 4.448-5.607-1.889.975-.67-2.936-1.958.488-.731M86.29 378.838l2.817.939-.063-1.064 4.445 2.942-5.321-.313.688-.814-2.816-.939.25-.751M96.337 380.059h2.817l-.376-.939 4.882 1.315-4.882 1.314.376-.939h-2.817v-.751M106.383 381.279l2.817-.939-.689-.814 5.32-.313-4.443 2.942.062-1.064-2.817.94-.25-.752M116.437 382.51l2.936-1.958-.975-.67 5.607-1.889-3.9 4.449-.244-1.158-2.937 1.957-.487-.731M126.542 383.785l3.595-3.595-1.087-.466 5.126-2.952-2.951 5.127-.466-1.088-3.596 3.595-.621-.621M136.673 385.053l4.16-5.547-1.143-.307 4.658-3.647-2.197 5.492-.615-1.01-4.16 5.546-.703-.527M57.263 364.855l2.524 5.049.786-.885 1.18 5.798-3.931-4.422 1.18-.098-2.525-5.049.786-.393M67.407 366.029l1.958 2.936.67-.975 1.89 5.607-4.45-3.9 1.159-.244-1.958-2.937.731-.487M77.464 367.243l1.878 1.878.375-.876 2.38 4.13-4.132-2.378.876-.375-1.878-1.878.501-.501M87.51 368.463l1.879.939.062-.751 2.817 2.504-3.693-.752.563-.5-1.878-.94.25-.5M97.557 369.684h1.878l-.25-.626 3.255.876-3.255.877.25-.626h-1.878v-.501M107.604 370.905l1.878-.939-.563-.5 3.693-.752-2.817 2.504-.063-.751-1.878.939-.25-.501M117.651 372.125l1.878-1.878-.876-.375 4.13-2.38-2.378 4.132-.375-.876-1.878 1.878-.501-.501M127.707 373.352l1.958-2.936-1.158-.244 4.448-3.9-1.889 5.606-.67-.975-1.958 2.936-.731-.487M137.852 374.62l2.524-5.049-1.179-.098 3.93-4.422-1.179 5.798-.786-.885-2.524 5.049-.786-.393M58.517 354.445l1.162 4.65.96-.693-.107 5.915-2.878-5.17 1.173.16-1.163-4.649.853-.213M68.638 355.647l.939 2.817.814-.689.313 5.321-2.942-4.444 1.064.062-.94-2.817.752-.25M78.685 356.868l.939 1.878.5-.563.751 3.693-2.503-2.817.75-.063-.938-1.878.5-.25M118.871 361.75l.939-1.878-.751-.062 2.504-2.817-.752 3.693-.5-.564-.94 1.878-.5-.25M128.918 362.971l.939-2.817-1.064.063 2.942-4.445-.313 5.321-.814-.688-.939 2.816-.751-.25M139.039 364.21l1.162-4.65-1.172.16 2.878-5.168.106 5.915-.96-.693-1.161 4.65-.853-.214M59.75 344.052v4.492l1.1-.44-1.539 5.713-1.538-5.713 1.099.44v-4.492h.878M69.859 345.272v2.817l.938-.376-1.314 4.883-1.315-4.883.94.376v-2.817h.75M79.905 346.493v1.878l.626-.25-.876 3.255-.877-3.255.626.25v-1.878h.501M120.092 351.376v-1.878l-.626.25.876-3.255.877 3.255-.626-.25v1.878h-.501M130.139 352.596v-2.817l-.939.376 1.315-4.883 1.314 4.883-.939-.376v2.817h-.751M140.247 353.817v-4.492l-1.099.44 1.538-5.713 1.538 5.713-1.098-.44v4.492h-.879M60.958 333.658l-1.162 4.65 1.172-.16-2.878 5.168-.106-5.915.96.693 1.161-4.65.853.214M71.08 334.898l-.94 2.817 1.064-.063-2.942 4.445.313-5.321.814.688.939-2.816.751.25M81.126 336.118l-.94 1.878.752.062-2.504 2.817.751-3.693.501.564.939-1.878.5.25M121.313 341.001l-.939-1.878-.5.563-.752-3.693 2.504 2.817-.751.063.939 1.878-.501.25M131.359 342.221l-.939-2.817-.814.689-.313-5.32 2.942 4.443-1.064-.062.94 2.817-.752.25M141.48 343.423l-1.162-4.65-.96.693.107-5.915 2.878 5.17-1.173-.16 1.163 4.649-.853.213M62.145 323.248l-2.524 5.049 1.18.098-3.931 4.422 1.179-5.798.786.885 2.524-5.049.786.393M72.29 324.516l-1.958 2.936 1.158.244-4.448 3.9 1.889-5.606.67.975 1.958-2.936.73.487M82.347 325.743l-1.878 1.878.876.375-4.131 2.38 2.378-4.132.376.876 1.878-1.878.5.501M92.393 326.964l-1.878.939.564.5-3.693.752 2.816-2.504.063.751 1.878-.939.25.501M102.44 328.185h-1.878l.25.626-3.254-.876 3.254-.877-.25.626h1.878v.501M112.487 329.405l-1.878-.939-.062.751-2.817-2.504 3.693.752-.564.5 1.878.94-.25.5M122.533 330.626l-1.878-1.878-.375.876-2.38-4.13 4.132 2.378-.876.375 1.878 1.878-.501.501M132.59 331.84l-1.958-2.936-.67.975-1.889-5.606 4.449 3.9-1.158.243 1.957 2.937-.731.487M142.734 333.013l-2.524-5.049-.786.885-1.18-5.798 3.93 4.422-1.178.098 2.524 5.049-.786.393M63.325 312.815l-4.16 5.547 1.142.307-4.658 3.647 2.197-5.492.616 1.01 4.16-5.546.702.527M73.456 314.083l-3.595 3.595 1.087.466-5.127 2.952 2.952-5.127.466 1.088 3.595-3.595.622.621M83.56 315.359l-2.936 1.958.975.67-5.606 1.889 3.9-4.449.244 1.158 2.936-1.957.488.731M93.614 316.589l-2.817.939.689.814-5.321.313 4.444-2.942-.062 1.064 2.816-.94.25.752M103.66 317.81h-2.817l.376.939-4.883-1.315 4.883-1.314-.376.939h2.817v.751M113.707 319.03l-2.817-.939.063 1.064-4.445-2.942 5.321.313-.688.814 2.816.939-.25.751M123.76 320.241l-2.936-1.958-.244 1.158-3.9-4.448 5.606 1.889-.975.67 2.936 1.958-.487.731M133.865 321.407l-3.595-3.595-.466 1.087-2.952-5.126 5.127 2.951-1.088.466 3.595 3.596-.621.621M143.996 322.58l-4.16-5.547-.615 1.011-2.197-5.493 4.658 3.648-1.143.307 4.16 5.547-.703.527M64.504 302.362l-6.036 6.036 1.087.466-5.126 2.952 2.951-5.127.466 1.088 6.037-6.036.621.621M74.63 303.624l-5.547 4.16 1.01.615-5.493 2.197 3.648-4.658.307 1.143 5.547-4.16.527.703M84.734 304.886l-5.049 2.524.885.786-5.798 1.18 4.422-3.93.098 1.178 5.049-2.524.393.786M94.816 306.14l-4.65 1.162.693.96-5.915-.107 5.17-2.878-.16 1.173 4.649-1.163.213.853M104.881 307.374h-4.492l.44 1.099-5.713-1.538 5.713-1.538-.44 1.098h4.492v.879M114.946 308.581l-4.65-1.162.16 1.172-5.168-2.878 5.915-.106-.693.96 4.65 1.161-.214.853M125.028 309.769l-5.049-2.524-.098 1.179-4.422-3.93 5.798 1.179-.885.786 5.049 2.524-.393.786M135.133 310.948l-5.547-4.16-.307 1.143-3.647-4.658 5.492 2.197-1.01.615 5.546 4.16-.527.703M145.258 312.127l-6.036-6.036-.466 1.087-2.952-5.127 5.127 2.952-1.088.466 6.036 6.037-.621.621" clip-path="url(#pbed49c8f34)" transform="translate(-81.373 -455.995) scale(1.51287)"/>
</g>
</svg>
