<svg xml:space="preserve" viewBox="0 0 36.73 37.781" height="142.795" width="138.823" xmlns="http://www.w3.org/2000/svg">
<path d="m6.203 828.529 2.416 2.416.187-.436 1.181 2.053-2.052-1.182.435-.187-2.416-2.416.249-.248M10.256 829l2.22 1.666.123-.457 1.46 1.864-2.199-.88.405-.246-2.22-1.665.21-.281M14.3 829.473l2.021 1.01.04-.472 1.77 1.573-2.321-.472.354-.314-2.021-1.01.157-.315M18.336 829.948l1.86.465-.063-.47 2.069 1.153-2.368.042.278-.384-1.861-.465.085-.341M22.365 830.431h1.798l-.176-.44 2.286.616-2.286.616.176-.44h-1.798v-.352M26.394 830.925l1.86-.465-.277-.384 2.368.043-2.07 1.152.065-.47-1.861.466-.085-.342M30.43 831.427l2.02-1.01-.354-.315 2.32-.472-1.77 1.573-.039-.472-2.02 1.01-.158-.314M34.474 831.932l2.22-1.665-.404-.246 2.198-.88-1.46 1.865-.123-.457-2.22 1.665-.211-.282M38.527 832.437l2.416-2.416-.435-.187 2.052-1.181-1.182 2.052-.186-.435-2.416 2.416-.25-.249M6.708 824.344l1.665 2.22.246-.404.88 2.199-1.865-1.46.457-.123-1.665-2.22.282-.212M10.763 824.814l1.439 1.44.187-.436 1.181 2.052-2.052-1.181.435-.187-1.439-1.439.249-.249M14.808 825.28l1.175.784.098-.463 1.56 1.78-2.243-.756.39-.268-1.175-.784.195-.292M18.832 825.765l1.127.376-.025-.426 1.78 1.178-2.13-.125.275-.326-1.127-.376.1-.3M22.853 826.254h1.128l-.15-.376 1.954.526-1.954.527.15-.376h-1.128v-.3M26.875 826.742l1.127-.375-.275-.326 2.13-.125-1.78 1.177.025-.426-1.127.376-.1-.3M30.9 827.235l1.174-.783-.39-.269 2.244-.756-1.56 1.78-.098-.463-1.176.784-.195-.293M34.944 827.746l1.439-1.44-.435-.186L38 824.938l-1.182 2.053-.186-.436-1.44 1.44-.248-.25M39 828.253l1.664-2.22-.457-.123 1.864-1.46-.88 2.199-.245-.405-1.665 2.22-.282-.21M7.213 820.168l1.01 2.021.315-.354.472 2.32-1.573-1.77.472-.039-1.01-2.02.314-.158M11.274 820.638l.783 1.176.268-.39.757 2.243-1.781-1.56.463-.098-.783-1.176.293-.195M15.299 821.124l.752.752.15-.351.952 1.654-1.654-.952.351-.15-.751-.752.2-.2M19.32 821.612l.752.376.025-.3 1.128 1.002-1.479-.3.226-.201-.752-.376.1-.2M23.342 822.101h.752l-.1-.25 1.302.35-1.303.351.1-.25h-.751v-.2M27.363 822.59l.752-.376-.225-.2 1.478-.301-1.128 1.002-.025-.3-.751.375-.1-.2M31.385 823.078l.752-.751-.351-.15 1.654-.953-.953 1.654-.15-.35-.752.75-.2-.2M35.41 823.57l.784-1.176-.464-.097 1.78-1.562-.755 2.245-.269-.39-.783 1.175-.293-.196M39.471 824.077l1.01-2.02-.472-.04 1.574-1.77-.472 2.32-.315-.354-1.01 2.021-.315-.157M7.715 816.001l.465 1.861.384-.277-.043 2.368-1.151-2.07.469.065-.465-1.861.34-.086M11.766 816.483l.376 1.127.326-.276.125 2.13-1.178-1.779.426.025-.376-1.127.301-.1M15.788 816.971l.375.752.2-.226.302 1.479-1.003-1.128.301-.025-.376-.752.2-.1M31.873 818.925l.376-.751-.3-.025 1.002-1.128-.3 1.478-.201-.225-.376.752-.2-.1M35.895 819.414l.376-1.127-.426.025 1.177-1.78-.125 2.13-.326-.275-.375 1.127-.301-.1M39.946 819.91l.465-1.86-.469.063 1.152-2.069.043 2.368-.384-.278-.466 1.861-.34-.085M8.209 811.841v1.798l.44-.176-.616 2.287-.616-2.287.44.176v-1.798h.352M12.255 812.33v1.127l.376-.15-.527 1.954-.526-1.954.376.15v-1.127h.3M16.276 812.818v.752l.25-.1-.35 1.303-.35-1.303.25.1v-.752h.2M32.362 814.773v-.752l-.25.1.35-1.302.351 1.302-.25-.1v.752h-.2M36.384 815.261v-1.127l-.376.15.526-1.954.526 1.954-.376-.15v1.127h-.3M40.43 815.75v-1.798l-.44.176.616-2.287.615 2.287-.44-.176v1.798h-.351M8.692 807.68l-.465 1.862.469-.064-1.152 2.069-.042-2.368.383.278.466-1.862.341.086M12.743 808.177l-.376 1.128.426-.025-1.177 1.779.125-2.13.326.275.376-1.127.3.1M16.765 808.665l-.376.752.3.025-1.002 1.128.301-1.479.2.226.376-.752.2.1M32.85 810.62l-.375-.752-.2.226-.301-1.478 1.002 1.127-.3.025.375.752-.2.1M36.872 811.108l-.376-1.127-.326.275-.125-2.13 1.178 1.78-.426-.025.376 1.127-.301.1M40.923 811.59l-.465-1.862-.384.278.043-2.368 1.152 2.07-.47-.065.466 1.861-.342.085M9.167 803.514l-1.01 2.02.472.04-1.573 1.77.472-2.32.314.353 1.01-2.02.315.157M13.228 804.021l-.784 1.176.464.097-1.78 1.561.755-2.244.269.39.783-1.175.293.195M17.253 804.513l-.751.751.35.15-1.653.953.952-1.654.15.35.752-.75.2.2M21.275 805.001l-.752.376.226.2-1.479.301 1.128-1.002.025.3.752-.375.1.2M25.296 805.49h-.751l.1.25-1.303-.35 1.303-.35-.1.25h.751v.2M29.318 805.978l-.752-.375-.025.3-1.127-1.002 1.478.3-.225.201.751.376-.1.2M33.34 806.467l-.753-.752-.15.351-.952-1.653 1.654.952-.351.15.752.752-.2.2M37.365 806.953l-.784-1.175-.268.39-.756-2.244 1.78 1.561-.463.098.783 1.175-.292.195M41.425 807.423l-1.01-2.021-.315.354-.472-2.32 1.573 1.77-.472.039 1.01 2.02-.314.158M9.64 799.338l-1.666 2.22.457.123-1.864 1.46.88-2.199.246.405 1.665-2.22.281.21M13.695 799.845l-1.44 1.44.436.186-2.052 1.182 1.181-2.053.187.436 1.439-1.44.249.25M17.74 800.356l-1.176.784.39.268-2.244.756 1.561-1.78.098.463 1.175-.784.195.293M21.763 800.848l-1.127.376.276.326-2.13.125 1.779-1.177-.025.426 1.127-.376.1.3M25.785 801.337h-1.128l.15.376-1.954-.526 1.955-.526-.15.376h1.127v.3M29.806 801.826l-1.127-.376.025.426-1.78-1.178 2.13.125-.275.326 1.128.376-.1.3M33.83 802.31l-1.175-.783-.098.463-1.56-1.78 2.243.756-.39.268 1.175.784-.195.292M37.875 802.777l-1.439-1.44-.186.436-1.182-2.052 2.052 1.182-.435.186 1.439 1.44-.249.248M41.93 803.247l-1.665-2.22-.246.404-.88-2.199 1.865 1.46-.457.123 1.665 2.22-.282.212M10.112 795.154l-2.417 2.416.436.186-2.053 1.182 1.182-2.052.187.435 2.416-2.416.249.249M14.164 795.659l-2.22 1.665.405.246-2.199.88 1.46-1.865.123.458 2.22-1.666.211.282M18.209 796.164l-2.02 1.01.353.315-2.32.472 1.77-1.573.039.472 2.02-1.01.158.314M22.245 796.666l-1.861.465.277.384-2.368-.043 2.07-1.151-.065.469 1.861-.465.086.34M26.273 797.16h-1.798l.176.44-2.286-.616 2.286-.616-.176.44h1.798v.352M30.302 797.643l-1.86-.465.063.469-2.069-1.152 2.368-.043-.277.384 1.86.466-.085.341M34.338 798.119l-2.021-1.01-.04.471-1.77-1.573 2.321.472-.354.314 2.021 1.01-.157.316M38.383 798.59l-2.22-1.665-.124.458-1.46-1.865 2.2.88-.405.246 2.22 1.665-.211.281M42.435 799.062l-2.416-2.416-.186.435-1.182-2.052 2.052 1.182-.435.186 2.416 2.417-.248.248" clip-path="url(#pbed49c8f34)" style="fill:#00f;stroke-width:.330728;stroke-linejoin:round;stroke-miterlimit:100000" transform="translate(-5.954 -794.905)"/>
<path style="vector-effect:none;fill:none;stroke:red;stroke-width:.529167;stroke-linecap:round;stroke-linejoin:round;stop-color:#000" d="M24.055 813.795a7.21 7.21 0 1 0-.8 3.305" transform="translate(-5.954 -794.905)"/>
<path style="color:#000;fill:red;fill-rule:evenodd;stroke-width:.264584pt;-inkscape-stroke:none" d="m23.955 815.743.125 2.64-2.35-1.213z" transform="translate(-5.954 -794.905)"/>
<path style="color:#000;fill:red;fill-rule:evenodd;-inkscape-stroke:none" d="m24.117 815.43-.258.166-2.482 1.59 2.894 1.496zm-.324.627.098 2.029-1.809-.932z" transform="translate(-5.954 -794.905)"/>
</svg>
