<svg width="138.823" height="142.795" viewBox="0 0 36.73 37.781" xml:space="preserve" xmlns="http://www.w3.org/2000/svg">
<path d="m72.878 812.124 2.416 2.417.187-.436 1.181 2.052-2.052-1.181.435-.187-2.416-2.416.249-.249M76.93 812.597l2.22 1.665.124-.458 1.46 1.865-2.199-.88.405-.246-2.22-1.665.21-.281M80.975 813.069l2.021 1.01.04-.472 1.77 1.573-2.321-.472.354-.314-2.021-1.01.157-.315M85.01 813.544l1.862.465-.064-.47 2.069 1.153-2.368.042.278-.384-1.861-.465.085-.341M89.04 814.027h1.798l-.176-.44 2.286.616-2.286.616.176-.44H89.04v-.352M93.069 814.521l1.86-.465-.277-.384 2.368.043-2.07 1.152.065-.47-1.861.466-.085-.342M97.104 815.023l2.021-1.01-.354-.315 2.32-.472-1.77 1.573-.039-.472-2.02 1.01-.158-.314M101.149 815.528l2.22-1.665-.404-.246 2.198-.88-1.46 1.865-.123-.457-2.22 1.665-.211-.282M105.202 816.033l2.416-2.416-.435-.187 2.052-1.181-1.182 2.052-.186-.435-2.416 2.416-.25-.249M73.383 807.94l1.665 2.22.246-.404.88 2.198-1.865-1.46.457-.123-1.665-2.22.282-.21M77.438 808.41l1.439 1.44.187-.436 1.181 2.052-2.052-1.181.435-.187-1.439-1.44.249-.248M81.483 808.876l1.175.784.098-.463 1.56 1.78-2.243-.756.39-.268-1.175-.784.195-.293M85.507 809.361l1.127.376-.025-.426 1.78 1.178-2.13-.126.275-.325-1.127-.376.1-.3M89.528 809.85h1.128l-.15-.376 1.954.526-1.954.526.15-.375h-1.128v-.301M93.55 810.338l1.127-.376-.275-.325 2.13-.126-1.78 1.178.025-.426-1.127.376-.1-.3M97.574 810.831l1.175-.784-.39-.268 2.244-.756-1.56 1.78-.098-.463-1.176.784-.195-.293M101.619 811.341l1.439-1.439-.435-.186 2.052-1.182-1.182 2.052-.186-.435-1.44 1.44-.248-.25M105.674 811.849l1.665-2.22-.457-.123 1.864-1.46-.88 2.198-.245-.404-1.665 2.22-.282-.211M73.888 803.764l1.01 2.021.315-.354.472 2.32-1.573-1.77.472-.039-1.01-2.02.314-.158M77.949 804.234l.783 1.175.268-.39.757 2.244-1.781-1.56.463-.099-.783-1.175.293-.195M81.974 804.72l.752.752.15-.351.952 1.654-1.654-.953.351-.15-.751-.752.2-.2M85.995 805.208l.752.376.025-.3 1.128 1.002-1.479-.3.226-.201-.752-.376.1-.2M90.017 805.697h.752l-.1-.25 1.302.35-1.303.351.1-.25h-.751v-.2M94.038 806.186l.752-.376-.225-.2 1.478-.301-1.128 1.002-.025-.3-.751.375-.1-.2M98.06 806.674l.752-.752-.351-.15 1.654-.952-.953 1.654-.15-.351-.752.752-.2-.2M102.085 807.165l.784-1.175-.464-.098 1.78-1.56-.755 2.243-.269-.39-.783 1.175-.293-.195M106.146 807.673l1.01-2.021-.472-.04 1.574-1.77-.472 2.321-.315-.354-1.01 2.021-.315-.157M74.39 799.597l.465 1.861.384-.277-.043 2.368-1.151-2.07.469.065-.465-1.861.34-.086M78.441 800.078l.376 1.128.326-.276.125 2.13-1.178-1.779.426.025-.376-1.127.301-.1M82.463 800.567l.375.752.2-.226.302 1.479-1.003-1.128.301-.025-.376-.752.2-.1M98.548 802.521l.376-.751-.3-.026 1.002-1.127-.3 1.478-.201-.225-.376.751-.2-.1M102.57 803.01l.376-1.128-.426.026 1.177-1.78-.125 2.13-.326-.275-.375 1.127-.301-.1M106.621 803.506l.465-1.861-.469.064 1.152-2.07.043 2.369-.384-.278-.466 1.861-.34-.085M74.884 795.437v1.798l.44-.176-.616 2.287-.616-2.287.44.176v-1.798h.352M78.93 795.925v1.128l.376-.15-.527 1.954-.526-1.954.376.15v-1.128h.3M82.951 796.414v.752l.25-.1-.35 1.303-.35-1.303.25.1v-.752h.2M99.037 798.369v-.752l-.25.1.35-1.303.351 1.303-.25-.1v.752h-.2M103.059 798.857v-1.127l-.376.15.526-1.954.526 1.954-.376-.15v1.127h-.3M107.105 799.346v-1.798l-.44.176.616-2.287.615 2.287-.44-.176v1.798h-.351M75.367 791.277l-.465 1.86.469-.063-1.152 2.069-.042-2.368.383.277.466-1.86.341.085M79.418 791.773l-.376 1.127.426-.025-1.177 1.78.125-2.13.326.275.376-1.127.3.1M83.44 792.261l-.376.752.3.025-1.002 1.128.301-1.479.2.226.376-.752.2.1M99.526 794.216l-.376-.752-.2.226-.301-1.479 1.002 1.128-.3.025.375.752-.2.1M103.547 794.704l-.376-1.127-.326.275-.125-2.13 1.178 1.78-.426-.026.376 1.128-.301.1M107.598 795.185l-.465-1.86-.384.277.043-2.368 1.152 2.069-.47-.064.466 1.861-.342.085M75.842 787.11l-1.01 2.02.472.04-1.573 1.77.472-2.32.314.353 1.01-2.02.315.157M79.903 787.617l-.784 1.176.464.097-1.78 1.561.755-2.244.269.39.783-1.175.293.195M83.928 788.108l-.751.752.35.15-1.653.953.952-1.654.15.35.752-.751.2.2M87.95 788.597l-.752.376.226.2-1.479.301 1.128-1.002.025.3.752-.375.1.2M91.971 789.086h-.751l.1.25-1.303-.35 1.303-.351-.1.25h.751v.2M95.993 789.574l-.752-.376-.025.301-1.127-1.002 1.478.3-.225.201.751.376-.1.2M100.014 790.063l-.752-.752-.15.351-.952-1.654 1.654.953-.351.15.752.752-.2.2M104.04 790.549l-.784-1.175-.268.39-.756-2.244 1.78 1.56-.463.098.783 1.176-.292.195M108.1 791.018l-1.01-2.02-.315.354-.472-2.32 1.573 1.769-.472.04 1.01 2.02-.314.158M76.314 782.934l-1.665 2.22.457.123-1.864 1.46.88-2.199.246.405 1.665-2.22.281.21M80.37 783.441l-1.44 1.44.436.186-2.052 1.181 1.181-2.052.187.435 1.439-1.439.249.25M84.414 783.952l-1.175.783.39.269-2.244.756 1.561-1.78.098.463 1.175-.784.195.293M88.438 784.444l-1.127.376.276.326-2.13.125 1.779-1.178-.025.426 1.127-.375.1.3M92.46 784.933h-1.128l.15.376-1.954-.526 1.955-.526-.15.375h1.127v.301M96.481 785.421l-1.127-.375.025.425-1.78-1.177 2.13.125-.275.326 1.128.376-.1.3M100.505 785.906l-1.175-.783-.098.463-1.56-1.78 2.243.756-.39.268 1.175.783-.195.293M104.55 786.373l-1.439-1.44-.186.436-1.182-2.052 2.052 1.181-.435.187 1.439 1.44-.249.248M108.605 786.842l-1.665-2.22-.246.405-.88-2.199 1.865 1.46-.457.123 1.665 2.22-.282.211M76.787 778.75l-2.417 2.416.436.186-2.053 1.182 1.182-2.052.187.435 2.416-2.416.249.249M80.84 779.255l-2.22 1.665.404.246-2.199.88 1.46-1.865.123.457 2.22-1.665.211.282M84.884 779.76l-2.02 1.01.353.315-2.32.472 1.77-1.573.039.472 2.02-1.01.158.314M88.92 780.262l-1.861.465.277.384-2.368-.043 2.07-1.152-.065.47 1.861-.466.086.342M92.948 780.756H91.15l.176.44-2.286-.616 2.286-.616-.176.44h1.798v.352M96.977 781.239l-1.86-.465.063.469-2.069-1.152 2.368-.043-.277.384 1.86.466-.085.34M101.013 781.714l-2.021-1.01-.04.472-1.77-1.573 2.321.472-.354.314 2.021 1.01-.157.315M105.058 782.186l-2.22-1.665-.124.458-1.46-1.865 2.2.88-.405.246 2.22 1.665-.211.281M109.11 782.658l-2.416-2.416-.186.435-1.182-2.052 2.052 1.182-.435.186 2.416 2.416-.248.25" clip-path="url(#pbed49c8f34)" style="fill:#00f;stroke-width:.330728;stroke-linejoin:round;stroke-miterlimit:100000" transform="translate(-72.629 -778.5)"/>
</svg>
