<svg xml:space="preserve" id="svg5" version="1.1" viewBox="0 0 28.238 28.064" height="106.068" width="106.728" xmlns="http://www.w3.org/2000/svg">
<defs id="defs2">
<clipPath id="p599940f5c4">
<path id="rect147590" d="M12.6 12.096h78.12v77.616H12.6z"/>
</clipPath>
<style type="text/css" id="style147418">
*{stroke-linejoin:round;stroke-linecap:butt}
</style>
</defs>
<g id="layer1" transform="translate(-116.87 -849.742)">
<g id="g153873" transform="matrix(1.17764 0 0 1.17764 19.967 -157.46)" style="fill:red;fill-opacity:1;stroke-width:.849154">
<path d="m17.942 81.808 1.001 1.002.2-.467 1.269 2.203-2.203-1.269.467-.2-1.002-1.001.268-.268" clip-path="url(#p599940f5c4)" style="fill:red;fill-opacity:1;stroke-width:.849154" id="path147425" transform="matrix(.35278 0 0 .35278 76.05 849.227)"/>
<path d="m25.71 81.823 1.281.962.15-.556 1.773 2.265-2.67-1.068.49-.3-1.281-.961.256-.342" clip-path="url(#p599940f5c4)" style="fill:red;fill-opacity:1;stroke-width:.849154" id="path147427" transform="matrix(.35278 0 0 .35278 76.05 849.227)"/>
<path d="m33.409 81.989 1.602.801.054-.641 2.403 2.137-3.151-.641.48-.428-1.602-.8.214-.428" clip-path="url(#p599940f5c4)" style="fill:red;fill-opacity:1;stroke-width:.849154" id="path147429" transform="matrix(.35278 0 0 .35278 76.05 849.227)"/>
<path d="m41.135 82.38 1.885.471-.094-.691 3.047 1.697-3.487.063.408-.566-1.885-.471.126-.503" clip-path="url(#p599940f5c4)" style="fill:red;fill-opacity:1;stroke-width:.849154" id="path147431" transform="matrix(.35278 0 0 .35278 76.05 849.227)"/>
<path d="M49.056 82.977h2.003l-.267-.668 3.472.935-3.472.935.267-.668h-2.003v-.534" clip-path="url(#p599940f5c4)" style="fill:red;fill-opacity:1;stroke-width:.849154" id="path147433" transform="matrix(.35278 0 0 .35278 76.05 849.227)"/>
<path d="m57.284 83.605 1.885-.471-.408-.566 3.487.063-3.047 1.697.094-.691-1.885.471-.126-.503" clip-path="url(#p599940f5c4)" style="fill:red;fill-opacity:1;stroke-width:.849154" id="path147435" transform="matrix(.35278 0 0 .35278 76.05 849.227)"/>
<path d="m65.745 84.072 1.602-.801-.48-.428 3.151-.64-2.403 2.136-.054-.641-1.602.801-.214-.427" clip-path="url(#p599940f5c4)" style="fill:red;fill-opacity:1;stroke-width:.849154" id="path147437" transform="matrix(.35278 0 0 .35278 76.05 849.227)"/>
<path d="m74.278 84.323 1.282-.961-.492-.3 2.671-1.068-1.773 2.265-.15-.556-1.282.962-.256-.342" clip-path="url(#p599940f5c4)" style="fill:red;fill-opacity:1;stroke-width:.849154" id="path147439" transform="matrix(.35278 0 0 .35278 76.05 849.227)"/>
<path d="m82.774 84.412 1.002-1.001-.467-.2 2.203-1.269-1.269 2.203-.2-.467-1.001 1.002-.268-.268" clip-path="url(#p599940f5c4)" style="fill:red;fill-opacity:1;stroke-width:.849154" id="path147441" transform="matrix(.35278 0 0 .35278 76.05 849.227)"/>
<path d="m18.031 73.364.961 1.282.3-.491 1.068 2.67-2.265-1.773.556-.15-.962-1.281.342-.257" clip-path="url(#p599940f5c4)" style="fill:red;fill-opacity:1;stroke-width:.849154" id="path147443" transform="matrix(.35278 0 0 .35278 76.05 849.227)"/>
<path d="m25.69 73.245 1.335 1.335.267-.623 1.691 2.938-2.937-1.691.623-.268-1.336-1.335.357-.356" clip-path="url(#p599940f5c4)" style="fill:red;fill-opacity:1;stroke-width:.849154" id="path147445" transform="matrix(.35278 0 0 .35278 76.05 849.227)"/>
<path d="m33.146 73.31 1.849 1.233.164-.781 2.63 3-3.78-1.274.657-.452-1.849-1.233.329-.493" clip-path="url(#p599940f5c4)" style="fill:red;fill-opacity:1;stroke-width:.849154" id="path147447" transform="matrix(.35278 0 0 .35278 76.05 849.227)"/>
<path d="m40.505 73.797 2.403.801-.053-.908 3.792 2.51-4.54-.266.588-.695-2.404-.801.214-.641" clip-path="url(#p599940f5c4)" style="fill:red;fill-opacity:1;stroke-width:.849154" id="path147449" transform="matrix(.35278 0 0 .35278 76.05 849.227)"/>
<path d="M48.188 74.807h2.726l-.352-.878 4.57 1.23-4.57 1.23.352-.878h-2.726v-.704" clip-path="url(#p599940f5c4)" style="fill:red;fill-opacity:1;stroke-width:.849154" id="path147451" transform="matrix(.35278 0 0 .35278 76.05 849.227)"/>
<path d="m56.566 75.88 2.404-.801-.588-.695 4.54-.267-3.792 2.51.053-.907-2.403.801-.214-.64" clip-path="url(#p599940f5c4)" style="fill:red;fill-opacity:1;stroke-width:.849154" id="path147453" transform="matrix(.35278 0 0 .35278 76.05 849.227)"/>
<path d="m65.367 76.515 1.849-1.233-.657-.452 3.78-1.273-2.63 2.999-.164-.78-1.85 1.232-.328-.493" clip-path="url(#p599940f5c4)" style="fill:red;fill-opacity:1;stroke-width:.849154" id="path147455" transform="matrix(.35278 0 0 .35278 76.05 849.227)"/>
<path d="m74.158 76.717 1.336-1.335-.623-.268 2.938-1.691-1.692 2.938-.267-.623-1.335 1.335-.357-.356" clip-path="url(#p599940f5c4)" style="fill:red;fill-opacity:1;stroke-width:.849154" id="path147457" transform="matrix(.35278 0 0 .35278 76.05 849.227)"/>
<path d="m82.79 76.697.96-1.282-.555-.15 2.265-1.773-1.068 2.671-.3-.491-.961 1.282-.342-.257" clip-path="url(#p599940f5c4)" style="fill:red;fill-opacity:1;stroke-width:.849154" id="path147459" transform="matrix(.35278 0 0 .35278 76.05 849.227)"/>
<path d="m18.282 64.884.801 1.602.428-.48.64 3.151-2.136-2.403.641-.054-.801-1.602.427-.214" clip-path="url(#p599940f5c4)" style="fill:red;fill-opacity:1;stroke-width:.849154" id="path147461" transform="matrix(.35278 0 0 .35278 76.05 849.227)"/>
<path d="m25.892 64.506 1.232 1.849.452-.657 1.274 3.78-3-2.63.781-.164-1.232-1.85.493-.328" clip-path="url(#p599940f5c4)" style="fill:red;fill-opacity:1;stroke-width:.849154" id="path147463" transform="matrix(.35278 0 0 .35278 76.05 849.227)"/>
<path d="m33.03 64.221 2.225 2.226.373-.87 2.361 4.101-4.102-2.361.87-.373-2.225-2.225.498-.498" clip-path="url(#p599940f5c4)" style="fill:red;fill-opacity:1;stroke-width:.849154" id="path147465" transform="matrix(.35278 0 0 .35278 76.05 849.227)"/>
<path d="m39.513 64.676 4.56 2.28.079-.943 3.537 3.144-4.638-.943.708-.629-4.56-2.28.314-.629" clip-path="url(#p599940f5c4)" style="fill:red;fill-opacity:1;stroke-width:.849154" id="path147467" transform="matrix(.35278 0 0 .35278 76.05 849.227)"/>
<path d="M46.452 66.722h6.198l-.352-.878 4.57 1.23-4.57 1.23.352-.878h-6.198v-.704" clip-path="url(#p599940f5c4)" style="fill:red;fill-opacity:1;stroke-width:.849154" id="path147469" transform="matrix(.35278 0 0 .35278 76.05 849.227)"/>
<path d="m55.474 68.843 4.56-2.28-.708-.629 4.638-.943-3.537 3.144-.079-.943-4.56 2.28-.314-.63" clip-path="url(#p599940f5c4)" style="fill:red;fill-opacity:1;stroke-width:.849154" id="path147471" transform="matrix(.35278 0 0 .35278 76.05 849.227)"/>
<path d="m65.082 69.43 2.226-2.226-.87-.373 4.101-2.361-2.361 4.102-.373-.87-2.225 2.225-.498-.498" clip-path="url(#p599940f5c4)" style="fill:red;fill-opacity:1;stroke-width:.849154" id="path147473" transform="matrix(.35278 0 0 .35278 76.05 849.227)"/>
<path d="m74.224 69.313 1.232-1.849-.78-.164 2.999-2.63-1.274 3.78-.452-.657-1.232 1.849-.493-.329" clip-path="url(#p599940f5c4)" style="fill:red;fill-opacity:1;stroke-width:.849154" id="path147475" transform="matrix(.35278 0 0 .35278 76.05 849.227)"/>
<path d="m82.955 69.05.801-1.602-.641-.054 2.137-2.403-.641 3.151-.428-.48-.8 1.602-.428-.214" clip-path="url(#p599940f5c4)" style="fill:red;fill-opacity:1;stroke-width:.849154" id="path147477" transform="matrix(.35278 0 0 .35278 76.05 849.227)"/>
<path d="m18.749 56.475.471 1.886.566-.409-.063 3.488-1.697-3.048.691.094-.471-1.885.503-.126" clip-path="url(#p599940f5c4)" style="fill:red;fill-opacity:1;stroke-width:.849154" id="path147479" transform="matrix(.35278 0 0 .35278 76.05 849.227)"/>
<path d="m26.526 55.757.802 2.404.694-.588.267 4.54-2.51-3.792.908.054-.802-2.404.641-.214" clip-path="url(#p599940f5c4)" style="fill:red;fill-opacity:1;stroke-width:.849154" id="path147481" transform="matrix(.35278 0 0 .35278 76.05 849.227)"/>
<path d="m33.616 54.665 2.28 4.56.629-.707.943 4.637-3.144-3.537.943-.079-2.28-4.56.63-.314" clip-path="url(#p599940f5c4)" style="fill:red;fill-opacity:1;stroke-width:.849154" id="path147483" transform="matrix(.35278 0 0 .35278 76.05 849.227)"/>
<path d="m38.563 53.532 7.433 7.434.373-.87 2.362 4.101-4.102-2.361.87-.373-7.433-7.433.497-.498" clip-path="url(#p599940f5c4)" style="fill:red;fill-opacity:1;stroke-width:.849154" id="path147485" transform="matrix(.35278 0 0 .35278 76.05 849.227)"/>
<path d="m54.34 63.948 7.434-7.433-.87-.373 4.101-2.361-2.361 4.102-.373-.87-7.433 7.433-.497-.498" clip-path="url(#p599940f5c4)" style="fill:red;fill-opacity:1;stroke-width:.849154" id="path147489" transform="matrix(.35278 0 0 .35278 76.05 849.227)"/>
<path d="m65.537 62.998 2.28-4.56-.943-.078 3.144-3.537-.943 4.637-.629-.707-2.28 4.56-.629-.315" clip-path="url(#p599940f5c4)" style="fill:red;fill-opacity:1;stroke-width:.849154" id="path147491" transform="matrix(.35278 0 0 .35278 76.05 849.227)"/>
<path d="m74.71 62.007.802-2.404-.908.054 2.51-3.793-.267 4.54-.694-.587-.802 2.404-.64-.214" clip-path="url(#p599940f5c4)" style="fill:red;fill-opacity:1;stroke-width:.849154" id="path147493" transform="matrix(.35278 0 0 .35278 76.05 849.227)"/>
<path d="m83.346 61.377.471-1.885-.691.094 1.697-3.048.063 3.488-.566-.409-.471 1.886-.503-.126" clip-path="url(#p599940f5c4)" style="fill:red;fill-opacity:1;stroke-width:.849154" id="path147495" transform="matrix(.35278 0 0 .35278 76.05 849.227)"/>
<path d="M19.377 48.3v2.003l.668-.267-.935 3.472-.935-3.472.668.267V48.3h.534" clip-path="url(#p599940f5c4)" style="fill:red;fill-opacity:1;stroke-width:.849154" id="path147497" transform="matrix(.35278 0 0 .35278 76.05 849.227)"/>
<path d="M27.599 47.432v2.726l.879-.352-1.23 4.57-1.23-4.57.878.352v-2.726h.703" clip-path="url(#p599940f5c4)" style="fill:red;fill-opacity:1;stroke-width:.849154" id="path147499" transform="matrix(.35278 0 0 .35278 76.05 849.227)"/>
<path d="M35.737 45.696v6.198l.878-.352-1.23 4.57-1.23-4.57.878.352v-6.198h.704" clip-path="url(#p599940f5c4)" style="fill:red;fill-opacity:1;stroke-width:.849154" id="path147501" transform="matrix(.35278 0 0 .35278 76.05 849.227)"/>
<path d="M67.583 56.112v-6.198l-.878.352 1.23-4.57 1.23 4.57-.878-.352v6.198h-.704" clip-path="url(#p599940f5c4)" style="fill:red;fill-opacity:1;stroke-width:.849154" id="path147509" transform="matrix(.35278 0 0 .35278 76.05 849.227)"/>
<path d="M75.721 54.376V51.65l-.879.352 1.23-4.57 1.23 4.57-.878-.352v2.726h-.703" clip-path="url(#p599940f5c4)" style="fill:red;fill-opacity:1;stroke-width:.849154" id="path147511" transform="matrix(.35278 0 0 .35278 76.05 849.227)"/>
<path d="M83.943 53.508v-2.003l-.668.267.935-3.472.935 3.472-.668-.267v2.003h-.534" clip-path="url(#p599940f5c4)" style="fill:red;fill-opacity:1;stroke-width:.849154" id="path147513" transform="matrix(.35278 0 0 .35278 76.05 849.227)"/>
<path d="m19.974 40.431-.471 1.885.691-.094-1.697 3.048-.063-3.488.566.409.471-1.886.503.126" clip-path="url(#p599940f5c4)" style="fill:red;fill-opacity:1;stroke-width:.849154" id="path147515" transform="matrix(.35278 0 0 .35278 76.05 849.227)"/>
<path d="m28.61 39.801-.802 2.404.908-.054-2.51 3.793.267-4.54.694.587.802-2.404.64.214" clip-path="url(#p599940f5c4)" style="fill:red;fill-opacity:1;stroke-width:.849154" id="path147517" transform="matrix(.35278 0 0 .35278 76.05 849.227)"/>
<path d="m37.783 38.81-2.28 4.56.943.078-3.144 3.537.943-4.637.629.707 2.28-4.56.629.315" clip-path="url(#p599940f5c4)" style="fill:red;fill-opacity:1;stroke-width:.849154" id="path147519" transform="matrix(.35278 0 0 .35278 76.05 849.227)"/>
<path d="m48.98 37.86-7.434 7.433.87.373-4.102 2.361 2.362-4.102.373.87 7.433-7.433.497.498" clip-path="url(#p599940f5c4)" style="fill:red;fill-opacity:1;stroke-width:.849154" id="path147521" transform="matrix(.35278 0 0 .35278 76.05 849.227)"/>
<path d="m64.757 48.276-7.433-7.434-.373.87-2.361-4.101 4.101 2.361-.87.373 7.433 7.433-.497.498" clip-path="url(#p599940f5c4)" style="fill:red;fill-opacity:1;stroke-width:.849154" id="path147525" transform="matrix(.35278 0 0 .35278 76.05 849.227)"/>
<path d="m69.704 47.143-2.28-4.56-.629.707-.943-4.637 3.144 3.537-.943.079 2.28 4.56-.63.314" clip-path="url(#p599940f5c4)" style="fill:red;fill-opacity:1;stroke-width:.849154" id="path147527" transform="matrix(.35278 0 0 .35278 76.05 849.227)"/>
<path d="m76.794 46.05-.802-2.403-.694.588-.267-4.54 2.51 3.792-.908-.054.802 2.404-.641.214" clip-path="url(#p599940f5c4)" style="fill:red;fill-opacity:1;stroke-width:.849154" id="path147529" transform="matrix(.35278 0 0 .35278 76.05 849.227)"/>
<path d="m84.571 45.333-.471-1.886-.566.409.063-3.488 1.697 3.048-.691-.094.471 1.885-.503.126" clip-path="url(#p599940f5c4)" style="fill:red;fill-opacity:1;stroke-width:.849154" id="path147531" transform="matrix(.35278 0 0 .35278 76.05 849.227)"/>
<path d="m20.365 32.758-.801 1.602.641.054-2.137 2.403.641-3.151.428.48.8-1.602.428.214" clip-path="url(#p599940f5c4)" style="fill:red;fill-opacity:1;stroke-width:.849154" id="path147533" transform="matrix(.35278 0 0 .35278 76.05 849.227)"/>
<path d="m29.096 32.495-1.232 1.849.78.164-2.999 2.63 1.274-3.78.452.657 1.232-1.849.493.329" clip-path="url(#p599940f5c4)" style="fill:red;fill-opacity:1;stroke-width:.849154" id="path147535" transform="matrix(.35278 0 0 .35278 76.05 849.227)"/>
<path d="m38.238 32.379-2.226 2.225.87.373-4.101 2.361 2.361-4.102.373.87 2.225-2.225.498.498" clip-path="url(#p599940f5c4)" style="fill:red;fill-opacity:1;stroke-width:.849154" id="path147537" transform="matrix(.35278 0 0 .35278 76.05 849.227)"/>
<path d="m47.846 32.965-4.56 2.28.708.629-4.638.943 3.537-3.144.079.943 4.56-2.28.314.63" clip-path="url(#p599940f5c4)" style="fill:red;fill-opacity:1;stroke-width:.849154" id="path147539" transform="matrix(.35278 0 0 .35278 76.05 849.227)"/>
<path d="M56.868 35.086H50.67l.352.878-4.57-1.23 4.57-1.23-.352.878h6.198v.704" clip-path="url(#p599940f5c4)" style="fill:red;fill-opacity:1;stroke-width:.849154" id="path147541" transform="matrix(.35278 0 0 .35278 76.05 849.227)"/>
<path d="m63.807 37.132-4.56-2.28-.079.943-3.537-3.144 4.638.943-.708.629 4.56 2.28-.314.629" clip-path="url(#p599940f5c4)" style="fill:red;fill-opacity:1;stroke-width:.849154" id="path147543" transform="matrix(.35278 0 0 .35278 76.05 849.227)"/>
<path d="m70.29 37.587-2.225-2.226-.373.87-2.361-4.101 4.102 2.361-.87.373 2.225 2.225-.498.498" clip-path="url(#p599940f5c4)" style="fill:red;fill-opacity:1;stroke-width:.849154" id="path147545" transform="matrix(.35278 0 0 .35278 76.05 849.227)"/>
<path d="m77.428 37.302-1.232-1.849-.452.657-1.274-3.78 3 2.63-.781.164 1.232 1.85-.493.328" clip-path="url(#p599940f5c4)" style="fill:red;fill-opacity:1;stroke-width:.849154" id="path147547" transform="matrix(.35278 0 0 .35278 76.05 849.227)"/>
<path d="m85.038 36.924-.801-1.602-.428.48-.64-3.151 2.136 2.403-.641.054.801 1.602-.427.214" clip-path="url(#p599940f5c4)" style="fill:red;fill-opacity:1;stroke-width:.849154" id="path147549" transform="matrix(.35278 0 0 .35278 76.05 849.227)"/>
<path d="m20.53 25.11-.96 1.283.555.15-2.265 1.773 1.068-2.671.3.491.961-1.282.342.257" clip-path="url(#p599940f5c4)" style="fill:red;fill-opacity:1;stroke-width:.849154" id="path147551" transform="matrix(.35278 0 0 .35278 76.05 849.227)"/>
<path d="m29.162 25.091-1.336 1.335.623.268-2.938 1.691 1.692-2.938.267.623 1.335-1.335.357.356" clip-path="url(#p599940f5c4)" style="fill:red;fill-opacity:1;stroke-width:.849154" id="path147553" transform="matrix(.35278 0 0 .35278 76.05 849.227)"/>
<path d="m37.953 25.293-1.849 1.233.657.452-3.78 1.273 2.63-2.999.164.78 1.85-1.232.328.493" clip-path="url(#p599940f5c4)" style="fill:red;fill-opacity:1;stroke-width:.849154" id="path147555" transform="matrix(.35278 0 0 .35278 76.05 849.227)"/>
<path d="m46.754 25.928-2.404.801.588.695-4.54.267 3.792-2.51-.053.907 2.403-.801.214.64" clip-path="url(#p599940f5c4)" style="fill:red;fill-opacity:1;stroke-width:.849154" id="path147557" transform="matrix(.35278 0 0 .35278 76.05 849.227)"/>
<path d="M55.132 27h-2.726l.352.88-4.57-1.231 4.57-1.23-.352.878h2.726v.704" clip-path="url(#p599940f5c4)" style="fill:red;fill-opacity:1;stroke-width:.849154" id="path147559" transform="matrix(.35278 0 0 .35278 76.05 849.227)"/>
<path d="m62.815 28.011-2.403-.801.053.908-3.792-2.51 4.54.266-.588.695 2.404.801-.214.641" clip-path="url(#p599940f5c4)" style="fill:red;fill-opacity:1;stroke-width:.849154" id="path147561" transform="matrix(.35278 0 0 .35278 76.05 849.227)"/>
<path d="m70.174 28.498-1.849-1.233-.164.781-2.63-3 3.78 1.274-.657.452 1.849 1.233-.329.493" clip-path="url(#p599940f5c4)" style="fill:red;fill-opacity:1;stroke-width:.849154" id="path147563" transform="matrix(.35278 0 0 .35278 76.05 849.227)"/>
<path d="m77.63 28.563-1.335-1.335-.267.623-1.692-2.938 2.938 1.691-.623.268 1.336 1.335-.357.356" clip-path="url(#p599940f5c4)" style="fill:red;fill-opacity:1;stroke-width:.849154" id="path147565" transform="matrix(.35278 0 0 .35278 76.05 849.227)"/>
<path d="m85.289 28.444-.961-1.282-.3.491-1.068-2.67 2.265 1.773-.556.15.962 1.281-.342.257" clip-path="url(#p599940f5c4)" style="fill:red;fill-opacity:1;stroke-width:.849154" id="path147567" transform="matrix(.35278 0 0 .35278 76.05 849.227)"/>
<path d="m20.546 17.396-1.002 1.001.467.2-2.203 1.269 1.269-2.203.2.467 1.001-1.002.268.268" clip-path="url(#p599940f5c4)" style="fill:red;fill-opacity:1;stroke-width:.849154" id="path147569" transform="matrix(.35278 0 0 .35278 76.05 849.227)"/>
<path d="m29.042 17.485-1.282.961.492.3-2.671 1.068 1.773-2.265.15.556 1.282-.962.256.342" clip-path="url(#p599940f5c4)" style="fill:red;fill-opacity:1;stroke-width:.849154" id="path147571" transform="matrix(.35278 0 0 .35278 76.05 849.227)"/>
<path d="m37.575 17.736-1.602.801.48.428-3.151.64 2.403-2.136.054.641 1.602-.801.214.427" clip-path="url(#p599940f5c4)" style="fill:red;fill-opacity:1;stroke-width:.849154" id="path147573" transform="matrix(.35278 0 0 .35278 76.05 849.227)"/>
<path d="m46.036 18.203-1.885.471.408.566-3.487-.063 3.047-1.697-.094.691 1.885-.471.126.503" clip-path="url(#p599940f5c4)" style="fill:red;fill-opacity:1;stroke-width:.849154" id="path147575" transform="matrix(.35278 0 0 .35278 76.05 849.227)"/>
<path d="M54.264 18.831h-2.003l.267.668-3.472-.935 3.472-.935-.267.668h2.003v.534" clip-path="url(#p599940f5c4)" style="fill:red;fill-opacity:1;stroke-width:.849154" id="path147577" transform="matrix(.35278 0 0 .35278 76.05 849.227)"/>
<path d="m62.185 19.428-1.885-.471.094.691-3.047-1.697 3.487-.063-.408.566 1.885.471-.126.503" clip-path="url(#p599940f5c4)" style="fill:red;fill-opacity:1;stroke-width:.849154" id="path147579" transform="matrix(.35278 0 0 .35278 76.05 849.227)"/>
<path d="m69.911 19.82-1.602-.802-.054.641-2.403-2.137 3.151.641-.48.428 1.602.8-.214.428" clip-path="url(#p599940f5c4)" style="fill:red;fill-opacity:1;stroke-width:.849154" id="path147581" transform="matrix(.35278 0 0 .35278 76.05 849.227)"/>
<path d="m77.61 19.985-1.281-.962-.15.556-1.773-2.265 2.67 1.068-.49.3 1.281.961-.256.342" clip-path="url(#p599940f5c4)" style="fill:red;fill-opacity:1;stroke-width:.849154" id="path147583" transform="matrix(.35278 0 0 .35278 76.05 849.227)"/>
<path d="m85.378 20-1.001-1.002-.2.467-1.269-2.203 2.203 1.269-.467.2 1.002 1.001-.268.268" clip-path="url(#p599940f5c4)" style="fill:red;fill-opacity:1;stroke-width:.849154" id="path147585" transform="matrix(.35278 0 0 .35278 76.05 849.227)"/>
</g>
</g>
</svg>
