<svg width="188.901" height="194.772" viewBox="0 0 49.98 51.534" xml:space="preserve" xmlns="http://www.w3.org/2000/svg">
<g fill="green">
<g stroke-linejoin="round" stroke-miterlimit="100000" stroke-width="1.25">
<path d="m-32.636 386.052-6.036 6.036 1.087.466-5.126 2.952 2.951-5.127.466 1.088 6.037-6.036.621.621M-22.51 387.313l-5.547 4.16 1.01.615-5.493 2.197 3.648-4.658.307 1.143 5.547-4.16.527.703M-12.406 388.575l-5.049 2.524.885.786-5.798 1.18 4.422-3.93.098 1.178 5.049-2.524.393.786M-2.324 389.829l-4.65 1.162.693.96-5.915-.107 5.17-2.878-.16 1.173 4.649-1.163.213.853M7.741 391.063H3.25l.44 1.099-5.713-1.538 5.713-1.538-.44 1.098h4.492v.879M17.806 392.27l-4.649-1.162.16 1.172-5.169-2.878 5.915-.106-.693.96 4.65 1.161-.214.853M27.888 393.458l-5.048-2.524-.099 1.179-4.421-3.93 5.797 1.179-.884.786 5.048 2.524-.393.786M37.993 394.637l-5.547-4.16-.307 1.143-3.647-4.658 5.492 2.197-1.01.615 5.546 4.16-.527.703M48.118 395.817l-6.037-6.036-.466 1.087-2.951-5.127 5.126 2.952-1.087.466 6.036 6.037-.621.621M-33.816 375.505l-4.16 5.547 1.143.307-4.658 3.647 2.197-5.492.616 1.01 4.16-5.546.702.527M-23.684 376.772l-3.596 3.595 1.088.466-5.127 2.952 2.952-5.127.466 1.088 3.595-3.595.622.621M-13.58 378.048l-2.936 1.958.975.67-5.606 1.889 3.9-4.449.244 1.158 2.936-1.957.487.731M-3.526 379.278l-2.817.939.688.814-5.32.313 4.444-2.942-.062 1.064 2.816-.94.25.752M6.52 380.499H3.704l.375.939-4.882-1.315 4.882-1.314-.375.939H6.52v.751M16.567 381.72l-2.817-.939.063 1.064-4.444-2.942 5.32.313-.688.814 2.816.939-.25.751M26.62 382.93l-2.936-1.958-.244 1.158-3.9-4.448 5.607 1.889-.975.67 2.936 1.958-.488.731M36.725 384.096l-3.595-3.595-.466 1.087-2.952-5.126 5.127 2.951-1.087.466 3.595 3.596-.622.621M46.856 385.27l-4.16-5.547-.615 1.011-2.197-5.493 4.658 3.648-1.142.307 4.16 5.547-.704.527M-34.995 364.938l-2.524 5.049 1.18.098-3.931 4.422 1.179-5.798.786.885 2.524-5.049.786.393M-24.85 366.205l-1.958 2.936 1.158.244-4.448 3.9 1.889-5.606.67.975 1.958-2.936.73.487M-14.794 367.433l-1.877 1.878.876.375-4.131 2.38 2.378-4.132.376.876 1.878-1.878.5.501M-4.747 368.653l-1.878.939.564.5-3.694.752 2.817-2.504.063.751 1.878-.939.25.501M5.3 369.874H3.422l.25.626-3.255-.876 3.255-.877-.25.626H5.3v.501M15.347 371.095l-1.878-.939-.063.751-2.817-2.504 3.693.752-.563.5 1.878.94-.25.5M25.393 372.315l-1.878-1.878-.375.876-2.379-4.13 4.131 2.378-.876.375 1.878 1.878-.5.501M35.45 373.529l-1.958-2.936-.67.975-1.89-5.606 4.45 3.9-1.158.243 1.957 2.937-.731.487M45.594 374.703l-2.524-5.049-.786.885-1.18-5.798 3.931 4.422-1.179.098 2.524 5.049-.786.393M-36.182 354.348l-1.162 4.65 1.172-.16-2.878 5.168-.106-5.915.96.693 1.161-4.65.853.214M-26.06 355.587l-.94 2.817 1.064-.063-2.942 4.445.313-5.321.814.688.939-2.816.751.25M-16.014 356.807l-.94 1.878.752.062-2.504 2.817.751-3.693.501.564.939-1.878.5.25M24.173 361.69l-.94-1.878-.5.563-.751-3.693 2.504 2.817-.752.063.94 1.878-.501.25M34.22 362.911l-.94-2.817-.813.689-.313-5.32 2.942 4.443-1.065-.062.94 2.817-.752.25M44.34 364.113l-1.162-4.65-.96.693.107-5.915 2.878 5.17-1.172-.16 1.162 4.649-.853.213M-37.39 343.741v4.492l1.1-.44-1.539 5.713-1.538-5.713 1.099.44v-4.492h.878M-27.282 344.962v2.817l.94-.376-1.315 4.883-1.315-4.883.94.376v-2.817h.75M-17.235 346.182v1.878l.626-.25-.876 3.255-.877-3.255.626.25v-1.878h.501M22.952 351.065v-1.878l-.626.25.876-3.255.877 3.255-.626-.25v1.878h-.501M32.999 352.285v-2.817l-.94.376 1.315-4.883 1.315 4.883-.94-.376v2.817H33M43.107 353.506v-4.492l-1.099.44 1.538-5.713 1.538 5.713-1.099-.44v4.492h-.878M-38.623 333.134l1.162 4.65.96-.693-.107 5.915-2.878-5.17 1.172.16-1.162-4.649.853-.213M-28.502 334.336l.939 2.817.814-.689.313 5.321-2.942-4.444 1.064.062-.94-2.817.752-.25M-18.455 335.557l.939 1.878.5-.563.751 3.693-2.503-2.817.75-.063-.938-1.878.5-.25M21.731 340.44l.94-1.878-.752-.062 2.504-2.817-.751 3.693-.501-.564-.939 1.878-.5-.25M31.778 341.66l.939-2.817-1.064.063 2.942-4.445-.313 5.321-.814-.688-.939 2.816-.751-.25M41.9 342.899l1.161-4.65-1.172.16 2.878-5.168.106 5.915-.959-.693-1.162 4.65-.853-.214M-39.877 322.545l2.524 5.049.786-.885 1.18 5.798-3.931-4.422 1.179-.098-2.524-5.049.786-.393M-29.733 323.718l1.958 2.936.67-.975 1.89 5.607-4.45-3.9 1.159-.244-1.958-2.937.731-.487M-19.676 324.932l1.878 1.878.375-.876 2.379 4.13-4.131-2.378.876-.375-1.878-1.878.5-.501M-9.63 326.153l1.879.939.062-.751 2.817 2.504-3.693-.752.563-.5-1.878-.94.25-.5M.417 327.373h1.878l-.25-.626 3.255.876-3.255.877.25-.626H.417v-.501M10.464 328.594l1.878-.939-.563-.5 3.693-.752-2.817 2.504-.063-.751-1.878.939-.25-.501M20.51 329.814l1.879-1.878-.877-.375 4.132-2.38-2.38 4.132-.375-.876-1.878 1.878-.5-.501M30.567 331.042l1.958-2.936-1.158-.244 4.448-3.9-1.889 5.606-.67-.975-1.957 2.936-.732-.487M40.712 332.31l2.524-5.049-1.179-.098 3.93-4.422-1.179 5.798-.786-.885-2.524 5.049-.786-.393M-41.14 311.977l4.16 5.547.616-1.011 2.197 5.493-4.658-3.648 1.143-.307-4.16-5.547.703-.527M-31.008 313.151l3.595 3.595.466-1.087 2.952 5.126-5.127-2.951 1.087-.466-3.595-3.596.622-.621M-20.903 314.317l2.936 1.958.244-1.158 3.9 4.448-5.607-1.889.975-.67-2.936-1.958.488-.731M-10.85 315.527l2.817.939-.063-1.064 4.445 2.942-5.321-.313.688-.814-2.816-.939.25-.751M-.803 316.748h2.817l-.376-.939 4.882 1.315-4.882 1.314.376-.939H-.803v-.751M9.243 317.969l2.817-.939-.688-.814 5.32-.313-4.444 2.942.063-1.064-2.817.94-.25-.752M19.297 319.199l2.936-1.958-.975-.67 5.606-1.889-3.9 4.449-.244-1.158-2.936 1.957-.487-.731M29.402 320.475l3.595-3.595-1.088-.466 5.127-2.952-2.952 5.127-.466-1.088-3.595 3.595-.621-.621M39.533 321.742l4.16-5.547-1.143-.307 4.658-3.647-2.197 5.492-.615-1.01-4.16 5.546-.703-.527M-42.4 301.43l6.036 6.036.466-1.087 2.952 5.127-5.127-2.952 1.087-.466-6.036-6.037.621-.621M-32.276 302.61l5.547 4.16.307-1.143 3.647 4.658-5.492-2.197 1.01-.615-5.546-4.16.527-.703M-22.171 303.789l5.048 2.524.099-1.179 4.421 3.93-5.797-1.179.884-.786-5.048-2.524.393-.786M-12.09 304.977l4.65 1.162-.16-1.172 5.17 2.878-5.916.106.693-.96-4.65-1.161.214-.853M-2.024 306.184h4.492l-.44-1.099 5.713 1.538-5.712 1.538.439-1.098h-4.492v-.879M8.041 307.418l4.65-1.162-.693-.96 5.915.107-5.169 2.878.16-1.173-4.65 1.163-.213-.853M18.123 308.672l5.049-2.524-.884-.786 5.797-1.18-4.422 3.93-.098-1.178-5.049 2.524-.393-.786M28.228 309.934l5.547-4.16-1.011-.615 5.493-2.197-3.648 4.658-.307-1.143-5.547 4.16-.527-.703M38.353 311.195l6.036-6.036-1.087-.466 5.127-2.952-2.952 5.127-.466-1.088-6.037 6.036-.621-.621" clip-path="url(#pffe454a974)" transform="matrix(.26458 0 0 .26458 11.383 -53.275)"/>
</g>
<path d="M5.3 349.197c.035-.09.09-.215.09-.251 0-.018 0-.197-.216-.197-.161 0-.197.107-.233.215-1.166 2.654-1.83 3.856-4.896 3.856h-2.618c-.251 0-.287 0-.395-.018-.179-.018-.233-.036-.233-.18 0-.054 0-.09.09-.412l1.22-4.896h1.775c1.525 0 1.525.377 1.525.825 0 .126 0 .34-.126.879a.545.545 0 0 0-.054.197c0 .09.072.197.233.197.144 0 .197-.09.27-.358l1.021-4.197c0-.107-.09-.197-.215-.197-.161 0-.197.108-.251.323-.377 1.363-.7 1.775-2.35 1.775h-1.685l1.076-4.322c.162-.627.18-.699.969-.699h2.528c2.188 0 2.726.52 2.726 1.99 0 .43 0 .467-.072.95 0 .109-.018.234-.018.324s.054.215.215.215c.197 0 .215-.108.251-.448l.359-3.103c.054-.484-.036-.484-.484-.484h-9.056c-.36 0-.538 0-.538.359 0 .197.16.197.502.197.663 0 1.165 0 1.165.323 0 .072 0 .107-.09.43l-2.367 9.487c-.18.699-.215.843-1.632.843-.305 0-.502 0-.502.34 0 .215.162.215.502.215h9.307c.413 0 .43-.018.556-.304z" color="#000" style="isolation:auto;mix-blend-mode:normal" transform="matrix(.26458 0 0 .26458 11.383 -53.275)"/>
</g>
<path d="M25.552 889.526v-.12h-.368v-1.48c0-.07 0-.094-.073-.094-.04 0-.053 0-.087.047l-1.099 1.528v.12h.976v.272c0 .112 0 .152-.269.152h-.09v.12c.167-.007.38-.013.499-.013.123 0 .335.007.501.013v-.12h-.09c-.268 0-.268-.04-.268-.152v-.273zm-.627-1.335v1.216h-.877z" color="#000" fill="#008f00" style="isolation:auto;mix-blend-mode:normal;stroke-width:.264583" transform="translate(-10.88 -849.137)"/>
<g fill="green">
<g stroke-linejoin="round" stroke-miterlimit="100000" stroke-width="1.25">
<path d="m63.883 295.741-6.036-6.036-.467 1.087-2.951-5.127 5.127 2.952-1.088.466 6.036 6.037-.621.621M72.793 295.694l-4.16-5.547-.615 1.011-2.197-5.493 4.658 3.648-1.143.307 4.16 5.547-.703.527M81.703 295.627l-2.524-5.049-.786.885-1.18-5.798 3.931 4.422-1.18.098 2.525 5.049-.786.393M90.621 295.537l-1.162-4.65-.96.693.107-5.915 2.878 5.17-1.173-.16 1.163 4.649-.853.213M99.56 295.43v-4.492l-1.1.44 1.539-5.713 1.538 5.713-1.099-.44v4.492h-.879M108.524 295.324l1.162-4.65-1.172.16 2.878-5.168.106 5.915-.96-.693-1.161 4.65-.853-.214M117.508 295.234l2.524-5.049-1.179-.098 3.93-4.422-1.179 5.798-.786-.885-2.524 5.049-.786-.393M126.501 295.167l4.16-5.547-1.143-.307 4.658-3.647-2.197 5.492-.615-1.01-4.16 5.546-.703-.527M135.493 295.12l6.036-6.036-1.087-.466 5.127-2.952-2.952 5.127-.466-1.088-6.037 6.036-.621-.621M63.93 284.061l-5.547-4.16-.307 1.143-3.647-4.658 5.492 2.197-1.01.615 5.546 4.16-.527.703M72.834 284.02l-3.595-3.595-.466 1.087-2.952-5.126 5.127 2.951-1.088.466 3.596 3.596-.622.621M81.73 283.953l-1.957-2.936-.67.975-1.89-5.606 4.449 3.9-1.158.243 1.958 2.937-.732.487M90.672 283.835l-.94-2.817-.813.689-.313-5.32 2.942 4.443-1.064-.062.939 2.817-.751.25M99.623 283.71v-2.817l-.939.376 1.315-4.883 1.314 4.883-.939-.376v2.817h-.751M108.574 283.585l.939-2.817-1.064.063 2.942-4.445-.313 5.321-.814-.688-.939 2.816-.751-.25M117.535 283.466l1.958-2.936-1.158-.244 4.448-3.9-1.889 5.606-.67-.975-1.958 2.936-.731-.487M126.542 283.399l3.595-3.595-1.087-.466 5.126-2.952-2.951 5.127-.466-1.088-3.596 3.595-.621-.621M135.54 283.358l5.547-4.16-1.011-.615 5.493-2.197-3.648 4.658-.307-1.143-5.547 4.16-.527-.703M63.997 272.382l-5.048-2.524-.099 1.179-4.421-3.93 5.797 1.179-.884.786 5.048 2.524-.393.786M72.901 272.355l-2.936-1.958-.244 1.158-3.9-4.448 5.606 1.889-.975.67 2.937 1.958-.488.731M81.846 272.239l-1.878-1.878-.376.876-2.378-4.13 4.13 2.378-.875.375 1.877 1.878-.5.501M90.797 272.114l-.939-1.878-.5.563-.752-3.693 2.504 2.817-.751.063.939 1.878-.501.25M99.748 271.989v-1.878l-.626.25.877-3.255.876 3.255-.626-.25v1.878h-.5M108.699 271.864l.939-1.878-.751-.062 2.504-2.817-.752 3.693-.5-.564-.94 1.878-.5-.25M117.651 271.739l1.878-1.878-.876-.375 4.13-2.38-2.378 4.132-.375-.876-1.878 1.878-.501-.501M126.609 271.623l2.936-1.958-.975-.67 5.607-1.889-3.9 4.449-.244-1.158-2.936 1.957-.488-.731M135.607 271.596l5.049-2.524-.885-.786 5.798-1.18-4.422 3.93-.098-1.178-5.049 2.524-.393-.786M64.087 260.695l-4.65-1.162.16 1.172-5.168-2.878 5.915-.106-.693.96 4.65 1.161-.214.853M73.02 260.644l-2.817-.939.062 1.064-4.444-2.942 5.32.313-.688.814 2.817.939-.25.751M81.97 260.519l-1.877-.939-.063.751-2.816-2.504 3.693.752-.564.5 1.878.94-.25.5M117.776 260.018l1.878-.939-.563-.5 3.693-.752-2.817 2.504-.063-.751-1.878.939-.25-.501M126.727 259.893l2.817-.939-.689-.814 5.32-.313-4.443 2.942.062-1.064-2.817.94-.25-.752M135.697 259.842l4.65-1.162-.693-.96 5.915.107-5.17 2.878.16-1.173-4.649 1.163-.213-.853M64.194 248.987h-4.492l.44 1.099-5.713-1.538 5.712-1.538-.44 1.098h4.493v.879M73.145 248.923h-2.817l.376.939-4.883-1.315 4.883-1.314-.376.939h2.817v.751M82.096 248.798h-1.878l.25.626-3.254-.876 3.255-.877-.25.626h1.877v.501M117.901 248.297h1.878l-.25-.626 3.254.876-3.255.877.25-.626h-1.877v-.501M126.852 248.172h2.817l-.376-.939 4.883 1.315-4.883 1.314.376-.939h-2.817v-.751M135.804 248.108h4.492l-.44-1.099 5.713 1.538-5.713 1.538.44-1.098h-4.492v-.879M64.3 237.254l-4.65 1.162.694.96-5.915-.107 5.169-2.878-.16 1.173 4.65-1.163.212.853M73.27 237.203l-2.817.939.689.814-5.32.313 4.443-2.942-.062 1.064 2.817-.94.25.752M82.221 237.078l-1.878.939.564.5-3.693.752 2.816-2.504.063.751 1.878-.939.25.501M118.026 236.577l1.878.939.062-.751 2.817 2.504-3.693-.752.564-.5-1.878-.94.25-.5M126.978 236.452l2.817.939-.063-1.064 4.445 2.942-5.321-.313.688-.814-2.816-.939.25-.751M135.91 236.401l4.65 1.162-.16-1.172 5.168 2.878-5.915.106.693-.96-4.65-1.161.214-.853M64.39 225.5l-5.048 2.524.884.786-5.797 1.18 4.421-3.93.098 1.178 5.05-2.524.392.786M73.389 225.472l-2.937 1.958.975.67-5.606 1.889 3.9-4.449.244 1.158 2.936-1.957.488.731M82.347 225.357l-1.878 1.878.876.375-4.131 2.38 2.378-4.132.376.876 1.878-1.878.5.501M91.298 225.232l-.94 1.878.752.062-2.504 2.817.751-3.693.501.564.939-1.878.5.25M100.249 225.107v1.878l.626-.25-.876 3.254-.877-3.255.626.25v-1.877h.501M109.2 224.981l.939 1.878.5-.563.752 3.693-2.504-2.817.751-.063-.939-1.878.501-.25M118.151 224.856l1.878 1.878.375-.876 2.38 4.13-4.132-2.378.876-.375-1.878-1.878.501-.501M127.096 224.741l2.936 1.958.244-1.158 3.9 4.448-5.606-1.889.975-.67-2.936-1.958.487-.731M136 224.714l5.049 2.524.098-1.179 4.422 3.93-5.798-1.179.885-.786-5.049-2.524.393-.786M64.457 213.737l-5.546 4.16 1.01.615-5.492 2.197 3.647-4.658.307 1.143 5.547-4.16.527.703M73.456 213.697l-3.595 3.595 1.087.466-5.127 2.952 2.952-5.127.466 1.088 3.595-3.595.622.621M82.462 213.63l-1.958 2.936 1.158.244-4.448 3.9 1.889-5.606.67.975 1.957-2.936.732.487M91.423 213.511l-.939 2.817 1.064-.063-2.942 4.445.313-5.321.814.688.939-2.816.75.25M100.374 213.386v2.817l.939-.376-1.315 4.883-1.314-4.883.939.376v-2.817h.751M109.325 213.261l.939 2.817.814-.689.313 5.321-2.942-4.444 1.064.062-.94-2.817.752-.25M118.267 213.142l1.958 2.936.67-.975 1.889 5.606-4.449-3.9 1.158-.243-1.957-2.937.731-.487M127.163 213.075l3.595 3.595.466-1.087 2.952 5.126-5.127-2.951 1.088-.466-3.595-3.596.621-.621M136.067 213.034l5.547 4.16.307-1.143 3.647 4.658-5.492-2.197 1.01-.615-5.546-4.16.527-.703M64.504 201.976l-6.036 6.036 1.087.466-5.126 2.952 2.951-5.127.466 1.088 6.037-6.036.621.621M73.496 201.929l-4.16 5.547 1.143.307-4.658 3.647 2.197-5.492.615 1.01 4.16-5.546.703.527M82.49 201.862l-2.525 5.049 1.179.098-3.93 4.422 1.179-5.798.786.885 2.524-5.049.786.393M91.474 201.772l-1.163 4.65 1.173-.16-2.878 5.168-.107-5.915.96.693 1.162-4.65.853.214M100.438 201.665v4.492l1.099-.44-1.538 5.713-1.538-5.713 1.098.44v-4.492h.879M109.376 201.559l1.162 4.65.96-.693-.107 5.915-2.878-5.17 1.173.16-1.163-4.649.853-.213M118.294 201.469l2.524 5.049.786-.885 1.18 5.798-3.93-4.422 1.178-.098-2.524-5.049.786-.393M127.204 201.402l4.16 5.547.615-1.011 2.197 5.493-4.658-3.648 1.143-.307-4.16-5.547.703-.527M136.114 201.355l6.036 6.036.466-1.087 2.952 5.127-5.127-2.952 1.088-.466-6.036-6.037.621-.621" clip-path="url(#pe30911f7b6)" transform="matrix(.26458 0 0 .26458 11.383 -53.275)"/>
</g>
<path d="M102.591 249.122c.036-.09.09-.215.09-.251 0-.018 0-.197-.215-.197-.161 0-.197.107-.233.215-1.166 2.654-1.83 3.855-4.896 3.855H94.72c-.251 0-.287 0-.395-.017-.179-.018-.233-.036-.233-.18 0-.054 0-.09.09-.412l1.22-4.896h1.775c1.524 0 1.524.377 1.524.825 0 .126 0 .34-.125.879a.545.545 0 0 0-.054.197c0 .09.072.197.233.197.143 0 .197-.09.269-.358l1.022-4.197c0-.107-.09-.197-.215-.197-.161 0-.197.108-.251.323-.377 1.363-.7 1.775-2.35 1.775h-1.685l1.076-4.322c.161-.627.18-.699.968-.699h2.529c2.188 0 2.726.52 2.726 1.99 0 .43 0 .467-.072.95 0 .109-.018.234-.018.324s.054.215.215.215c.197 0 .215-.108.25-.448l.36-3.103c.053-.484-.037-.484-.485-.484h-9.056c-.358 0-.538 0-.538.359 0 .197.162.197.502.197.664 0 1.166 0 1.166.323 0 .072 0 .107-.09.43l-2.367 9.487c-.18.699-.215.843-1.632.843-.305 0-.502 0-.502.34 0 .215.161.215.502.215h9.307c.413 0 .43-.018.556-.304z" color="#000" style="isolation:auto;mix-blend-mode:normal" transform="matrix(.26458 0 0 .26458 11.383 -53.275)"/>
</g>
<path d="M51.214 862.988H51.1c-.01.073-.043.269-.087.302-.026.02-.282.02-.328.02h-.611c.348-.309.465-.402.664-.558.246-.196.475-.402.475-.717 0-.402-.352-.648-.777-.648-.412 0-.691.29-.691.595 0 .169.143.186.176.186.08 0 .176-.057.176-.176 0-.06-.023-.176-.196-.176a.522.522 0 0 1 .485-.31c.332 0 .505.26.505.529 0 .289-.206.518-.313.637l-.8.79c-.033.03-.033.038-.033.13h1.368z" color="#000" fill="#008f00" style="isolation:auto;mix-blend-mode:normal;stroke-width:.264583" transform="translate(-10.88 -849.137)"/>
<g fill="red">
<g stroke-linejoin="round" stroke-miterlimit="100000" stroke-width="1.25">
<path d="m-32.636 285.976-6.036 6.036 1.087.466-5.126 2.952 2.951-5.127.466 1.088 6.037-6.036.621.621M-23.644 285.929l-4.16 5.547 1.143.307-4.658 3.647 2.197-5.492.615 1.01 4.16-5.546.703.527M-14.65 285.862l-2.525 5.049 1.179.098-3.93 4.422 1.179-5.798.786.885 2.524-5.049.786.393M-5.666 285.772l-1.163 4.65 1.173-.16-2.878 5.168-.107-5.915.96.693 1.162-4.65.853.214M3.298 285.665v4.492l1.099-.44-1.538 5.713-1.538-5.713 1.098.44v-4.492h.879M12.236 285.559l1.162 4.65.96-.693-.107 5.915-2.878-5.17 1.173.16-1.163-4.649.853-.213M21.154 285.469l2.524 5.049.786-.885 1.18 5.798-3.93-4.422 1.178-.098-2.524-5.049.786-.393M30.064 285.402l4.16 5.547.615-1.011 2.197 5.493-4.658-3.648 1.143-.307-4.16-5.547.703-.527M38.974 285.355l6.037 6.036.466-1.087 2.952 5.127-5.127-2.952 1.087-.466-6.036-6.037.621-.621M-32.683 276.738l-5.546 4.16 1.01.615-5.492 2.197 3.647-4.658.307 1.143 5.547-4.16.527.703M-23.684 276.697l-3.596 3.595 1.088.466-5.127 2.952 2.952-5.127.466 1.088 3.595-3.595.622.621M-14.678 276.63l-1.958 2.936 1.158.244-4.448 3.9 1.889-5.606.67.975 1.957-2.936.732.487M-5.717 276.511l-.94 2.817 1.065-.063-2.942 4.445.313-5.321.814.688.939-2.816.75.25M3.234 276.386v2.817l.94-.376-1.315 4.883-1.315-4.883.939.376v-2.817h.751M12.185 276.261l.94 2.817.813-.689.313 5.321-2.942-4.444 1.064.062-.939-2.817.751-.25M21.127 276.142l1.957 2.936.67-.975 1.89 5.606-4.449-3.9 1.158-.243-1.958-2.937.732-.487M30.023 276.075l3.595 3.595.466-1.087 2.952 5.126-5.127-2.951 1.088-.466-3.595-3.596.621-.621M38.927 276.034l5.547 4.16.307-1.143 3.648 4.658-5.493-2.197 1.01-.615-5.546-4.16.527-.703M-32.75 267.5l-5.048 2.524.884.786-5.797 1.18 4.421-3.93.098 1.178 5.05-2.524.392.786M-23.751 267.472l-2.937 1.958.975.67-5.606 1.889 3.9-4.449.244 1.158 2.936-1.957.488.731M-14.794 267.357l-1.877 1.878.876.375-4.131 2.38 2.378-4.132.376.876 1.878-1.878.5.501M-5.842 267.232l-.94 1.878.752.062-2.504 2.817.751-3.693.501.563.939-1.877.5.25M3.109 267.107v1.878l.626-.25-.876 3.255-.877-3.255.626.25v-1.878h.5M12.06 266.981l.94 1.878.5-.563.751 3.693-2.504-2.817.751-.063-.939-1.878.501-.25M21.011 266.856l1.878 1.878.376-.876 2.379 4.13-4.132-2.378.877-.375-1.878-1.878.5-.501M29.956 266.741l2.936 1.958.244-1.158 3.9 4.448-5.606-1.889.975-.67-2.936-1.958.487-.731M38.86 266.714l5.049 2.524.098-1.179 4.422 3.93-5.798-1.179.885-.786-5.049-2.524.393-.786M-32.84 258.254l-4.65 1.162.694.96-5.915-.107 5.168-2.878-.16 1.173 4.65-1.163.213.853M-23.87 258.203l-2.817.939.689.814-5.32.313 4.443-2.942-.062 1.064 2.817-.94.25.752M-14.919 258.078l-1.878.939.564.5-3.693.752 2.816-2.504.063.751 1.878-.939.25.501M20.886 257.577l1.878.939.063-.751 2.817 2.504-3.694-.752.564-.5-1.878-.94.25-.5M29.837 257.452l2.817.939-.062-1.064 4.444 2.942-5.32-.313.688-.814-2.817-.939.25-.751M38.77 257.401l4.65 1.162-.16-1.172 5.169 2.878-5.915.106.692-.96-4.649-1.161.213-.853M-32.946 248.987h-4.492l.44 1.099-5.713-1.538L-37 247.01l-.44 1.098h4.493v.879M-23.995 248.923h-2.817l.376.939-4.883-1.315 4.883-1.314-.376.939h2.817v.751M-15.044 248.798h-1.878l.25.626-3.254-.876 3.255-.877-.25.626h1.877v.501M20.761 248.297h1.878l-.25-.626 3.255.876-3.255.877.25-.626h-1.878v-.501M29.712 248.172h2.817l-.375-.939 4.882 1.315-4.882 1.314.375-.939h-2.817v-.751M38.664 248.108h4.492l-.44-1.099 5.713 1.538-5.713 1.538.44-1.098h-4.492v-.879M-33.053 239.695l-4.65-1.162.16 1.172-5.168-2.878 5.915-.106-.693.96 4.65 1.161-.214.853M-24.12 239.644l-2.817-.939.062 1.064-4.444-2.942 5.32.313-.688.814 2.817.939-.25.751M-15.17 239.519l-1.877-.939-.063.751-2.816-2.504 3.693.752-.564.5 1.878.94-.25.5M20.636 239.018l1.878-.939-.564-.5 3.694-.752-2.817 2.504-.063-.751-1.878.939-.25-.501M29.587 238.893l2.817-.939-.689-.814 5.321-.313-4.444 2.942.062-1.064-2.817.94-.25-.752M38.557 238.842l4.65-1.162-.693-.96 5.915.107-5.17 2.878.16-1.173-4.649 1.163-.213-.853M-33.143 230.382l-5.049-2.524-.098 1.179-4.421-3.93 5.797 1.179-.885.786 5.049 2.524-.393.786M-24.239 230.355l-2.936-1.958-.244 1.158-3.9-4.448 5.606 1.889-.975.67 2.937 1.958-.488.731M-15.294 230.239l-1.878-1.878-.376.876-2.378-4.13 4.13 2.378-.875.375 1.877 1.878-.5.501M-6.343 230.114l-.939-1.878-.5.563-.752-3.693 2.504 2.817-.751.063.939 1.878-.501.25M2.608 229.989v-1.878l-.626.25.877-3.254.876 3.255-.626-.25v1.877h-.5M11.56 229.864l.938-1.878-.75-.062 2.503-2.817-.751 3.693-.5-.564-.94 1.878-.5-.25M20.51 229.739l1.879-1.878-.877-.375 4.132-2.38-2.38 4.132-.375-.876-1.878 1.878-.5-.501M29.469 229.623l2.936-1.958-.975-.67 5.606-1.889-3.9 4.449-.244-1.158-2.936 1.957-.487-.731M38.467 229.596l5.049-2.524-.885-.786 5.798-1.18-4.422 3.93-.098-1.178-5.049 2.524-.393-.786M-33.21 221.061l-5.547-4.16-.307 1.143-3.647-4.658 5.492 2.197-1.01.615 5.546 4.16-.527.703M-24.306 221.02l-3.595-3.595-.466 1.087-2.952-5.126 5.127 2.951-1.088.466 3.596 3.596-.622.621M-15.41 220.953l-1.957-2.936-.67.975-1.89-5.607 4.449 3.9-1.158.244 1.958 2.937-.732.487M-6.468 220.835l-.94-2.817-.813.689-.313-5.321 2.942 4.444-1.064-.062.939 2.817-.751.25M2.483 220.71v-2.817l-.939.376 1.315-4.883 1.314 4.883-.939-.376v2.817h-.751M11.434 220.585l.94-2.817-1.065.063 2.942-4.445-.313 5.321-.814-.688-.939 2.816-.75-.25M20.395 220.466l1.958-2.936-1.158-.244 4.449-3.9-1.89 5.606-.67-.975-1.957 2.936-.732-.487M29.402 220.399l3.595-3.595-1.088-.466 5.127-2.952-2.952 5.127-.466-1.088-3.595 3.595-.621-.621M38.4 220.358l5.546-4.16-1.01-.615 5.493-2.197-3.648 4.658-.307-1.143-5.547 4.16-.527-.703M-33.257 211.741l-6.037-6.036-.466 1.087-2.951-5.127 5.126 2.952-1.087.466 6.036 6.037-.621.621M-24.347 211.694l-4.16-5.547-.615 1.011-2.197-5.493 4.658 3.648-1.143.307 4.16 5.547-.703.527M-15.437 211.627l-2.524-5.049-.786.885-1.18-5.798 3.93 4.422-1.178.098 2.524 5.049-.786.393M-6.519 211.537l-1.162-4.65-.96.693.107-5.915 2.878 5.17-1.173-.16 1.163 4.649-.853.213M2.42 211.43v-4.492l-1.1.44 1.539-5.713 1.538 5.713-1.099-.44v4.492h-.879M11.383 211.324l1.163-4.65-1.172.16 2.877-5.168.107 5.915-.96-.693-1.162 4.65-.853-.214M20.368 211.234l2.524-5.049-1.179-.098 3.93-4.422-1.179 5.798-.786-.885-2.524 5.049-.786-.393M29.36 211.167l4.16-5.547-1.142-.307 4.658-3.647-2.197 5.492-.615-1.01-4.16 5.546-.703-.527M38.353 211.12l6.036-6.036-1.087-.466 5.127-2.952-2.952 5.127-.466-1.088-6.037 6.036-.621-.621" clip-path="url(#p75e85dd5f0)" transform="matrix(.26458 0 0 .26458 11.383 -53.275)"/>
</g>
<path d="M5.65 249.122c.037-.09.09-.215.09-.251 0-.018 0-.197-.214-.197-.162 0-.198.107-.234.215-1.165 2.654-1.829 3.855-4.895 3.855h-2.618c-.251 0-.287 0-.395-.017-.18-.018-.233-.036-.233-.18 0-.054 0-.09.09-.412l1.22-4.896H.236c1.524 0 1.524.377 1.524.825 0 .126 0 .34-.125.879a.545.545 0 0 0-.054.197c0 .09.072.197.233.197.143 0 .197-.09.269-.358l1.022-4.197c0-.107-.09-.197-.215-.197-.162 0-.198.108-.251.323-.377 1.363-.7 1.775-2.35 1.775h-1.685l1.076-4.322c.161-.627.179-.699.968-.699h2.529c2.187 0 2.725.52 2.725 1.99 0 .43 0 .467-.072.95 0 .109-.018.234-.018.324s.054.215.216.215c.197 0 .215-.108.25-.448l.36-3.103c.053-.484-.037-.484-.485-.484h-9.056c-.359 0-.538 0-.538.359 0 .197.161.197.502.197.664 0 1.166 0 1.166.323 0 .072 0 .107-.09.43l-2.367 9.487c-.18.699-.216.843-1.632.843-.305 0-.502 0-.502.34 0 .215.16.215.502.215h9.307c.412 0 .43-.018.556-.304zM10.349 248.006c0-.339-.025-.351-.377-.351-.803.79-1.945.803-2.46.803v.452c.301 0 1.13 0 1.82-.352v6.402c0 .415 0 .578-1.255.578H7.6v.452c.226-.012 1.77-.05 2.234-.05.39 0 1.971.038 2.247.05v-.452h-.477c-1.255 0-1.255-.163-1.255-.578z" color="#000" style="isolation:auto;mix-blend-mode:normal" transform="matrix(.26458 0 0 .26458 11.383 -53.275)"/>
</g>
<g fill="#00f">
<g stroke-linejoin="round" stroke-miterlimit="100000" stroke-width="1.25">
<path d="m54.74 385.741 6.036 6.036.466-1.087 2.952 5.127-5.127-2.952 1.087-.466-6.036-6.037.621-.621M64.864 386.921l5.547 4.16.307-1.143 3.647 4.658-5.492-2.197 1.01-.615-5.546-4.16.527-.703M74.969 388.1l5.049 2.524.098-1.179 4.421 3.93-5.797-1.179.884-.786-5.048-2.524.393-.786M85.05 389.287l4.65 1.162-.16-1.172 5.17 2.878-5.916.106.693-.96-4.65-1.161.214-.853M95.116 390.495h4.492l-.44-1.099 5.713 1.538-5.712 1.538.439-1.098h-4.492v-.879M105.181 391.729l4.65-1.162-.693-.96 5.915.107-5.17 2.878.16-1.173-4.649 1.163-.213-.853M115.263 392.982l5.049-2.524-.885-.786 5.798-1.18-4.422 3.93-.098-1.178-5.049 2.524-.393-.786M125.368 394.245l5.547-4.16-1.011-.615 5.493-2.197-3.648 4.658-.307-1.143-5.547 4.16-.527-.703M135.493 395.506l6.036-6.036-1.087-.466 5.127-2.952-2.952 5.127-.466-1.088-6.037 6.036-.621-.621M56 375.288l4.16 5.547.616-1.011 2.197 5.493-4.658-3.648 1.143-.307-4.16-5.547.703-.527M66.132 376.462l3.595 3.595.466-1.087 2.952 5.126-5.127-2.951 1.087-.466-3.595-3.596.622-.621M76.237 377.627l2.936 1.958.244-1.158 3.9 4.448-5.607-1.889.975-.67-2.936-1.958.488-.731M86.29 378.838l2.817.939-.063-1.064 4.445 2.942-5.321-.313.688-.814-2.816-.939.25-.751M96.337 380.059h2.817l-.376-.939 4.882 1.315-4.882 1.314.376-.939h-2.817v-.751M106.383 381.279l2.817-.939-.689-.814 5.32-.313-4.443 2.942.062-1.064-2.817.94-.25-.752M116.437 382.51l2.936-1.958-.975-.67 5.607-1.889-3.9 4.449-.244-1.158-2.937 1.957-.487-.731M126.542 383.785l3.595-3.595-1.087-.466 5.126-2.952-2.951 5.127-.466-1.088-3.596 3.595-.621-.621M136.673 385.053l4.16-5.547-1.143-.307 4.658-3.647-2.197 5.492-.615-1.01-4.16 5.546-.703-.527M57.263 364.855l2.524 5.049.786-.885 1.18 5.798-3.931-4.422 1.18-.098-2.525-5.049.786-.393M67.407 366.029l1.958 2.936.67-.975 1.89 5.607-4.45-3.9 1.159-.244-1.958-2.937.731-.487M77.464 367.243l1.878 1.878.375-.876 2.38 4.13-4.132-2.378.876-.375-1.878-1.878.501-.501M87.51 368.463l1.879.939.062-.751 2.817 2.504-3.693-.752.563-.5-1.878-.94.25-.5M97.557 369.684h1.878l-.25-.626 3.255.876-3.255.877.25-.626h-1.878v-.501M107.604 370.905l1.878-.939-.563-.5 3.693-.752-2.817 2.504-.063-.751-1.878.939-.25-.501M117.651 372.125l1.878-1.878-.876-.375 4.13-2.38-2.378 4.132-.375-.876-1.878 1.878-.501-.501M127.707 373.352l1.958-2.936-1.158-.244 4.448-3.9-1.889 5.606-.67-.975-1.958 2.936-.731-.487M137.852 374.62l2.524-5.049-1.179-.098 3.93-4.422-1.179 5.798-.786-.885-2.524 5.049-.786-.393M58.517 354.445l1.162 4.65.96-.693-.107 5.915-2.878-5.17 1.173.16-1.163-4.649.853-.213M68.638 355.647l.939 2.817.814-.689.313 5.321-2.942-4.444 1.064.062-.94-2.817.752-.25M78.685 356.868l.939 1.878.5-.563.751 3.693-2.503-2.817.75-.063-.938-1.878.5-.25M118.871 361.75l.939-1.878-.751-.062 2.504-2.817-.752 3.693-.5-.564-.94 1.878-.5-.25M128.918 362.971l.939-2.817-1.064.063 2.942-4.445-.313 5.321-.814-.688-.939 2.816-.751-.25M139.039 364.21l1.162-4.65-1.172.16 2.878-5.168.106 5.915-.96-.693-1.161 4.65-.853-.214M59.75 344.052v4.492l1.1-.44-1.539 5.713-1.538-5.713 1.099.44v-4.492h.878M69.859 345.272v2.817l.938-.376-1.314 4.883-1.315-4.883.94.376v-2.817h.75M79.905 346.493v1.878l.626-.25-.876 3.255-.877-3.255.626.25v-1.878h.501M120.092 351.376v-1.878l-.626.25.876-3.255.877 3.255-.626-.25v1.878h-.501M130.139 352.596v-2.817l-.939.376 1.315-4.883 1.314 4.883-.939-.376v2.817h-.751M140.247 353.817v-4.492l-1.099.44 1.538-5.713 1.538 5.713-1.098-.44v4.492h-.879M60.958 333.658l-1.162 4.65 1.172-.16-2.878 5.168-.106-5.915.96.693 1.161-4.65.853.214M71.08 334.898l-.94 2.817 1.064-.063-2.942 4.445.313-5.321.814.688.939-2.816.751.25M81.126 336.118l-.94 1.878.752.062-2.504 2.817.751-3.693.501.564.939-1.878.5.25M121.313 341.001l-.939-1.878-.5.563-.752-3.693 2.504 2.817-.751.063.939 1.878-.501.25M131.359 342.221l-.939-2.817-.814.689-.313-5.32 2.942 4.443-1.064-.062.94 2.817-.752.25M141.48 343.423l-1.162-4.65-.96.693.107-5.915 2.878 5.17-1.173-.16 1.163 4.649-.853.213M62.145 323.248l-2.524 5.049 1.18.098-3.931 4.422 1.179-5.798.786.885 2.524-5.049.786.393M72.29 324.516l-1.958 2.936 1.158.244-4.448 3.9 1.889-5.606.67.975 1.958-2.936.73.487M82.347 325.743l-1.878 1.878.876.375-4.131 2.38 2.378-4.132.376.876 1.878-1.878.5.501M92.393 326.964l-1.878.939.564.5-3.693.752 2.816-2.504.063.751 1.878-.939.25.501M102.44 328.185h-1.878l.25.626-3.254-.876 3.254-.877-.25.626h1.878v.501M112.487 329.405l-1.878-.939-.062.751-2.817-2.504 3.693.752-.564.5 1.878.94-.25.5M122.533 330.626l-1.878-1.878-.375.876-2.38-4.13 4.132 2.378-.876.375 1.878 1.878-.501.501M132.59 331.84l-1.958-2.936-.67.975-1.889-5.606 4.449 3.9-1.158.243 1.957 2.937-.731.487M142.734 333.013l-2.524-5.049-.786.885-1.18-5.798 3.93 4.422-1.178.098 2.524 5.049-.786.393M63.325 312.815l-4.16 5.547 1.142.307-4.658 3.647 2.197-5.492.616 1.01 4.16-5.546.702.527M73.456 314.083l-3.595 3.595 1.087.466-5.127 2.952 2.952-5.127.466 1.088 3.595-3.595.622.621M83.56 315.359l-2.936 1.958.975.67-5.606 1.889 3.9-4.449.244 1.158 2.936-1.957.488.731M93.614 316.589l-2.817.939.689.814-5.321.313 4.444-2.942-.062 1.064 2.816-.94.25.752M103.66 317.81h-2.817l.376.939-4.883-1.315 4.883-1.314-.376.939h2.817v.751M113.707 319.03l-2.817-.939.063 1.064-4.445-2.942 5.321.313-.688.814 2.816.939-.25.751M123.76 320.241l-2.936-1.958-.244 1.158-3.9-4.448 5.606 1.889-.975.67 2.936 1.958-.487.731M133.865 321.407l-3.595-3.595-.466 1.087-2.952-5.126 5.127 2.951-1.088.466 3.595 3.596-.621.621M143.996 322.58l-4.16-5.547-.615 1.011-2.197-5.493 4.658 3.648-1.143.307 4.16 5.547-.703.527M64.504 302.362l-6.036 6.036 1.087.466-5.126 2.952 2.951-5.127.466 1.088 6.037-6.036.621.621M74.63 303.624l-5.547 4.16 1.01.615-5.493 2.197 3.648-4.658.307 1.143 5.547-4.16.527.703M84.734 304.886l-5.049 2.524.885.786-5.798 1.18 4.422-3.93.098 1.178 5.049-2.524.393.786M94.816 306.14l-4.65 1.162.693.96-5.915-.107 5.17-2.878-.16 1.173 4.649-1.163.213.853M104.881 307.374h-4.492l.44 1.099-5.713-1.538 5.713-1.538-.44 1.098h4.492v.879M114.946 308.581l-4.65-1.162.16 1.172-5.168-2.878 5.915-.106-.693.96 4.65 1.161-.214.853M125.028 309.769l-5.049-2.524-.098 1.179-4.422-3.93 5.798 1.179-.885.786 5.049 2.524-.393.786M135.133 310.948l-5.547-4.16-.307 1.143-3.647-4.658 5.492 2.197-1.01.615 5.546 4.16-.527.703M145.258 312.127l-6.036-6.036-.466 1.087-2.952-5.127 5.127 2.952-1.088.466 6.036 6.037-.621.621" clip-path="url(#pbed49c8f34)" transform="matrix(.26458 0 0 .26458 11.383 -53.275)"/>
</g>
<path d="M102.34 349.383c.036-.09.09-.215.09-.251 0-.018 0-.197-.215-.197-.162 0-.197.107-.233.215-1.166 2.654-1.83 3.856-4.896 3.856h-2.618c-.251 0-.287 0-.395-.018-.179-.018-.233-.036-.233-.18 0-.054 0-.09.09-.412l1.22-4.896h1.775c1.524 0 1.524.377 1.524.825 0 .126 0 .34-.125.879a.545.545 0 0 0-.054.197c0 .09.072.197.233.197.143 0 .197-.09.269-.359l1.022-4.196c0-.107-.09-.197-.215-.197-.162 0-.197.107-.251.323-.377 1.363-.7 1.775-2.35 1.775h-1.685l1.076-4.322c.161-.627.18-.699.968-.699h2.529c2.188 0 2.725.52 2.725 1.99 0 .43 0 .467-.072.95 0 .109-.018.234-.018.324s.054.215.216.215c.197 0 .215-.108.25-.448l.36-3.103c.053-.484-.037-.484-.485-.484h-9.056c-.359 0-.538 0-.538.359 0 .197.162.197.502.197.664 0 1.166 0 1.166.323 0 .072 0 .107-.09.43l-2.367 9.487c-.18.699-.216.842-1.632.842-.305 0-.502 0-.502.341 0 .215.161.215.502.215h9.307c.412 0 .43-.018.556-.305zM109.547 348.669c.126-.15.126-.176.126-.502h-3.29c-.501 0-.64-.012-1.091-.05-.653-.05-.678-.138-.716-.352h-.427l-.44 2.687h.428c.025-.189.15-1.017.351-1.143.1-.075 1.117-.075 1.306-.075h2.736c-.402.528-1.042 1.306-1.305 1.657-1.645 2.16-1.795 4.155-1.795 4.896 0 .138 0 .716.59.716.602 0 .602-.565.602-.728v-.503c0-2.435.502-3.552 1.042-4.23z" color="#000" style="isolation:auto;mix-blend-mode:normal" transform="matrix(.26458 0 0 .26458 11.383 -53.275)"/>
</g>
</svg>
