<svg xml:space="preserve" id="svg5" version="1.1" viewBox="0 0 60.362 35.162" height="132.897" width="228.139" xmlns="http://www.w3.org/2000/svg">
<defs id="defs2">
<style type="text/css" id="style147418">
*{stroke-linejoin:round;stroke-linecap:butt}
</style>
</defs>
<g id="layer1" transform="translate(-85.384 -897.163)">
<g id="g4125" transform="translate(-58.06 90.182)" style="fill:#0000fa;fill-opacity:1">
<path d="M144.046 830.57c-.05.198-.06.239-.46.239-.086 0-.142 0-.142.096 0 .06.045.06.142.06h1.675c1.052 0 2.05-1.067 2.05-2.176 0-.713-.431-1.28-1.19-1.28h-1.7c-.097 0-.152 0-.152.096 0 .06.045.06.147.06.065 0 .156.006.217.011.081.01.111.025.111.081 0 .02-.005.035-.02.096zm1.093-2.712c.046-.177.056-.192.273-.192h.542c.496 0 .916.268.916.936 0 .248-.101 1.078-.531 1.635a1.514 1.514 0 0 1-1.17.572h-.571c-.071 0-.081 0-.112-.005-.05-.005-.065-.01-.065-.051 0-.015 0-.025.025-.116z" id="path3918" style="fill:#0000fa;fill-opacity:1;stroke-width:.352778"/>
<path d="M149.26 830.595c0-.39-.046-.67-.209-.918a.736.736 0 0 0-.613-.305c-.822 0-.822.968-.822 1.223 0 .255 0 1.2.822 1.2s.822-.945.822-1.2zm-.822 1.102c-.163 0-.379-.096-.45-.387-.05-.209-.05-.5-.05-.761 0-.259 0-.528.054-.723a.453.453 0 0 1 .446-.354c.191 0 .376.117.44.322.056.191.06.446.06.755 0 .262 0 .524-.047.747-.07.323-.311.4-.453.4z" id="path3920" style="fill:#0000fa;fill-opacity:1;stroke-width:.352778"/>
</g>
<g id="g4129" transform="translate(-38.806 100.601)" style="fill:red;fill-opacity:1">
<path d="M150.507 830.57c-.05.198-.06.239-.46.239-.087 0-.142 0-.142.096 0 .06.045.06.141.06h1.676c1.052 0 2.049-1.067 2.049-2.176 0-.713-.43-1.28-1.19-1.28h-1.7c-.096 0-.151 0-.151.096 0 .06.045.06.146.06.066 0 .157.006.218.011.081.01.111.025.111.081 0 .02-.005.035-.02.096zm1.093-2.712c.046-.177.056-.192.273-.192h.542c.496 0 .916.268.916.936 0 .248-.101 1.078-.532 1.635a1.514 1.514 0 0 1-1.169.572h-.571c-.071 0-.081 0-.112-.005-.05-.005-.066-.01-.066-.051 0-.015 0-.025.026-.116z" id="path3922-9" style="fill:red;fill-opacity:1;stroke-width:.352778"/>
<path d="M155.56 829.404c0-.053 0-.138-.084-.138-.089 0-.089.082-.089.138v2.147h-1.08c-.053 0-.142 0-.142.085 0 .089.081.089.142.089h2.334c.057 0 .142 0 .142-.085 0-.089-.081-.089-.142-.089h-1.08z" id="path3924" style="fill:red;fill-opacity:1;stroke-width:.352778"/>
</g>
<path d="M106.685 897.493c.005-.03.015-.056.015-.092 0-.086-.06-.136-.147-.136-.05 0-.187.035-.207.217a.536.536 0 0 0-.471-.319c-.577 0-1.205.709-1.205 1.438 0 .5.31.8.674.8.298 0 .536-.239.587-.294l.005.005c-.107.45-.168.657-.168.668-.02.045-.192.546-.728.546a1.4 1.4 0 0 1-.405-.05.283.283 0 0 0 .207-.263c0-.081-.055-.178-.192-.178a.282.282 0 0 0-.273.294c0 .207.187.309.673.309.633 0 .997-.395 1.073-.699zm-.658 1.26c-.03.131-.147.258-.258.354-.107.091-.263.182-.41.182-.253 0-.33-.263-.33-.466 0-.242.148-.84.284-1.098.137-.248.354-.45.567-.45.334 0 .405.41.405.435 0 .025-.01.056-.015.076z" id="path3926" style="fill:red;fill-opacity:1;stroke-width:.352778"/>
<g id="g4134" transform="matrix(.8 0 0 .8 4.404 256.151)" style="stroke-width:1.25">
<path d="M163.74 827.448c0-.015-.01-.05-.056-.05-.015 0-.02.005-.076.06l-.355.39c-.045-.07-.278-.45-.84-.45-1.128 0-2.267 1.118-2.267 2.292 0 .805.562 1.387 1.382 1.387.222 0 .45-.046.632-.122.253-.101.35-.207.44-.308.046.126.178.313.228.313.026 0 .036-.015.036-.02.01-.01.06-.202.086-.309l.096-.39c.02-.085.046-.171.066-.257.056-.228.06-.238.349-.243.025 0 .081-.005.081-.101 0-.036-.025-.056-.066-.056-.116 0-.415.015-.531.015-.157 0-.552-.015-.709-.015-.045 0-.106 0-.106.101 0 .056.04.056.152.056.005 0 .152 0 .268.01.132.015.157.03.157.096 0 .046-.056.273-.106.46-.142.557-.8.613-.977.613-.486 0-1.017-.289-1.017-1.063 0-.157.05-.992.582-1.65.273-.344.764-.652 1.265-.652.516 0 .815.39.815.976 0 .203-.015.208-.015.258 0 .051.055.051.076.051.065 0 .065-.01.09-.101z" id="path3928" style="stroke-width:.440972"/>
<path d="M168.766 829.31c.076 0 .172 0 .172-.1 0-.102-.096-.102-.167-.102h-3.031c-.071 0-.168 0-.168.101 0 .102.097.102.173.102zm.005.982c.07 0 .167 0 .167-.1 0-.102-.096-.102-.172-.102h-3.021c-.076 0-.173 0-.173.101s.097.101.167.101z" id="path3930" style="stroke-width:.440972"/>
<path d="M172.951 829.346c0-.405-.025-.81-.202-1.184a.938.938 0 0 0-.86-.567c-.304 0-.674.132-.881.602-.162.35-.187.744-.187 1.149 0 .38.02.835.227 1.22.218.41.588.51.835.51.274 0 .658-.106.88-.586.163-.35.188-.744.188-1.144zm-1.068 1.62c-.197 0-.496-.127-.587-.613-.055-.304-.055-.77-.055-1.068 0-.324 0-.658.04-.93.096-.603.476-.649.602-.649.167 0 .501.091.598.593.05.283.05.667.05.986 0 .38 0 .724-.055 1.048-.076.48-.365.632-.593.632z" id="path3932" style="stroke-width:.440972"/>
</g>
<g id="g4139" transform="matrix(.8 0 0 .8 -6.21 249.399)" style="stroke-width:1.25">
<path d="M177.008 827.448c0-.015-.01-.05-.056-.05-.015 0-.02.005-.076.06l-.354.39c-.045-.07-.278-.45-.84-.45-1.128 0-2.267 1.118-2.267 2.292 0 .805.562 1.387 1.381 1.387.223 0 .45-.046.633-.122.253-.101.35-.207.44-.308.046.126.177.313.228.313.025 0 .035-.015.035-.02.01-.01.061-.202.086-.309l.097-.39c.02-.085.045-.171.065-.257.056-.228.061-.238.35-.243.025 0 .08-.005.08-.101 0-.036-.025-.056-.065-.056-.117 0-.415.015-.532.015-.156 0-.551-.015-.708-.015-.046 0-.106 0-.106.101 0 .056.04.056.151.056.005 0 .152 0 .269.01.131.015.157.03.157.096 0 .046-.056.273-.107.46-.142.557-.8.613-.976.613-.486 0-1.018-.289-1.018-1.063 0-.157.05-.992.582-1.65.274-.344.764-.652 1.265-.652.517 0 .815.39.815.976 0 .203-.015.208-.015.258 0 .051.056.051.076.051.066 0 .066-.01.09-.101z" id="path3934" style="stroke-width:.440972"/>
<path d="M182.024 829.31c.076 0 .172 0 .172-.1 0-.102-.096-.102-.167-.102h-3.032c-.07 0-.167 0-.167.101 0 .102.097.102.172.102zm.005.982c.07 0 .167 0 .167-.1 0-.102-.096-.102-.172-.102h-3.022c-.075 0-.172 0-.172.101s.097.101.167.101z" id="path3936" style="stroke-width:.440972"/>
<path d="M185.369 827.727c0-.122 0-.132-.116-.132-.314.324-.76.324-.921.324v.157c.1 0 .4 0 .663-.132v2.622c0 .182-.016.243-.471.243h-.162v.156c.177-.015.617-.015.82-.015.202 0 .643 0 .82.015v-.156h-.162c-.456 0-.471-.056-.471-.243z" id="path3938" style="stroke-width:.440972"/>
</g>
<g id="g4144" transform="matrix(.8 0 0 .8 -16.817 242.69)" style="stroke-width:1.25">
<path d="M190.265 827.448c0-.015-.01-.05-.055-.05-.015 0-.02.005-.076.06l-.354.39c-.046-.07-.279-.45-.84-.45-1.129 0-2.268 1.118-2.268 2.292 0 .805.562 1.387 1.382 1.387.223 0 .45-.046.632-.122.253-.101.35-.207.44-.308.046.126.178.313.228.313.026 0 .036-.015.036-.02.01-.01.06-.202.086-.309l.096-.39c.02-.085.046-.171.066-.257.056-.228.06-.238.349-.243.025 0 .081-.005.081-.101 0-.036-.025-.056-.066-.056-.116 0-.415.015-.531.015-.157 0-.552-.015-.709-.015-.045 0-.106 0-.106.101 0 .056.04.056.152.056.005 0 .152 0 .268.01.132.015.157.03.157.096 0 .046-.056.273-.106.46-.142.557-.8.613-.977.613-.486 0-1.017-.289-1.017-1.063 0-.157.05-.992.582-1.65.273-.344.764-.652 1.265-.652.516 0 .815.39.815.976 0 .203-.015.208-.015.258 0 .051.055.051.076.051.065 0 .065-.01.09-.101z" id="path3940" style="stroke-width:.440972"/>
<path d="M195.28 829.31c.077 0 .173 0 .173-.1 0-.102-.096-.102-.167-.102h-3.031c-.071 0-.168 0-.168.101 0 .102.097.102.173.102zm.006.982c.07 0 .167 0 .167-.1 0-.102-.096-.102-.172-.102h-3.021c-.076 0-.173 0-.173.101s.097.101.168.101z" id="path3942" style="stroke-width:.440972"/>
<path d="m197.781 830.576.536-.522c.79-.698 1.094-.971 1.094-1.477 0-.577-.456-.982-1.073-.982a.935.935 0 0 0-.947.916c0 .283.253.283.269.283.086 0 .263-.06.263-.268a.256.256 0 0 0-.268-.263c-.04 0-.051 0-.066.005.116-.329.39-.516.683-.516.46 0 .678.41.678.825 0 .405-.253.804-.531 1.118l-.972 1.083c-.056.056-.056.066-.056.187h1.878l.142-.88h-.127c-.025.152-.06.374-.111.45-.036.04-.37.04-.481.04z" id="path3944" style="stroke-width:.440972"/>
</g>
<g id="g4150" transform="matrix(.8 0 0 .8 -27.423 262.815)" style="stroke-width:1.25">
<path d="M203.523 827.448c0-.015-.01-.05-.055-.05-.016 0-.02.005-.076.06l-.355.39c-.045-.07-.278-.45-.84-.45-1.128 0-2.267 1.118-2.267 2.292 0 .805.562 1.387 1.382 1.387.223 0 .45-.046.632-.122.253-.101.35-.207.44-.308.046.126.178.313.228.313.026 0 .036-.015.036-.02.01-.01.06-.202.086-.309l.096-.39c.02-.085.046-.171.066-.257.056-.228.06-.238.35-.243.024 0 .08-.005.08-.101 0-.036-.025-.056-.066-.056-.116 0-.415.015-.53.015-.158 0-.553-.015-.71-.015-.045 0-.106 0-.106.101 0 .056.04.056.152.056.005 0 .152 0 .268.01.132.015.157.03.157.096 0 .046-.056.273-.106.46-.142.557-.8.613-.977.613-.486 0-1.017-.289-1.017-1.063 0-.157.05-.992.582-1.65.273-.344.764-.652 1.265-.652.516 0 .815.39.815.976 0 .203-.015.208-.015.258 0 .051.055.051.076.051.065 0 .065-.01.09-.101z" id="path3946" style="stroke-width:.440972"/>
<path d="M208.539 829.31c.076 0 .172 0 .172-.1 0-.102-.096-.102-.167-.102h-3.031c-.071 0-.168 0-.168.101 0 .102.097.102.173.102zm.005.982c.07 0 .167 0 .167-.1 0-.102-.096-.102-.172-.102h-3.021c-.076 0-.173 0-.173.101s.097.101.167.101z" id="path3948" style="stroke-width:.440972"/>
<path d="M213.74 829.802c.085 0 .176 0 .176-.102 0-.1-.09-.1-.177-.1h-2.738c-.086 0-.177 0-.177.1 0 .102.091.102.177.102z" id="path3950" style="stroke-width:.440972"/>
<path d="M215.828 827.727c0-.122 0-.132-.116-.132-.314.324-.759.324-.92.324v.157c.1 0 .399 0 .662-.132v2.622c0 .182-.015.243-.47.243h-.163v.156c.178-.015.618-.015.82-.015.203 0 .643 0 .82.015v-.156h-.162c-.455 0-.47-.056-.47-.243z" id="path3952" style="stroke-width:.440972"/>
</g>
<path d="M130.275 919.674c-24.077-13.256-15.22 8.028-38.092 0" color="#000" color-rendering="auto" image-rendering="auto" stroke="#00f" stroke-width=".529" style="isolation:auto;mix-blend-mode:normal;fill:none;stroke-linecap:butt;stroke-linejoin:round;shape-rendering:auto" id="path36925"/>
<path d="M130.682 926.202c-24.077-13.256-15.22 8.027-38.093 0" color="#000" color-rendering="auto" image-rendering="auto" stroke="#00f" stroke-width=".529" style="isolation:auto;mix-blend-mode:normal;fill:none;stroke-width:.2;stroke-linecap:butt;stroke-linejoin:round;stroke-dasharray:.4,.8;stroke-dashoffset:0;shape-rendering:auto" id="path36927"/>
<path d="M130.21 913.125c-24.078-13.256-15.221 8.028-38.093 0" color="#000" color-rendering="auto" image-rendering="auto" stroke="#00f" stroke-width=".529" style="isolation:auto;mix-blend-mode:normal;fill:none;stroke-width:.2;stroke-linecap:butt;stroke-linejoin:round;stroke-dasharray:.4,.8;stroke-dashoffset:0;shape-rendering:auto" id="path36929"/>
<path d="M130.21 906.413c-24.078-13.256-15.221 8.027-38.093 0" color="#000" color-rendering="auto" image-rendering="auto" stroke="#00f" stroke-width=".529" style="isolation:auto;mix-blend-mode:normal;fill:none;stroke-width:.2;stroke-linecap:butt;stroke-linejoin:round;stroke-dasharray:.4,.8;stroke-dashoffset:0;shape-rendering:auto" id="path19893-5"/>
<path id="path3921" style="fill:none;stroke:red;stroke-width:.3;stroke-linecap:round;stroke-linejoin:round;stroke-dasharray:none;stop-color:#000" d="M109.4 932.176v-34.862"/>
<path d="M106.39 918.768c0-.324-.02-.648-.161-.947a.75.75 0 0 0-.689-.454c-.243 0-.538.106-.704.482-.13.28-.15.595-.15.92 0 .303.016.667.182.975.174.328.47.409.668.409.219 0 .527-.085.705-.47.13-.28.15-.595.15-.915zm-.854 1.296c-.158 0-.396-.101-.47-.49-.044-.243-.044-.616-.044-.854 0-.26 0-.527.033-.745.077-.482.38-.519.481-.519.134 0 .401.073.478.474.04.227.04.535.04.79 0 .303 0 .579-.044.838-.06.384-.292.506-.474.506z" id="path3932-0" style="fill:red;fill-opacity:1;stroke-width:.352778;stroke-linecap:butt;stroke-linejoin:round"/>
<path d="M105.7 910.81c0-.098 0-.106-.093-.106-.25.26-.607.26-.737.26v.125c.081 0 .32 0 .53-.106v2.098c0 .145-.011.194-.376.194h-.13v.125c.142-.012.495-.012.657-.012.161 0 .514 0 .655.012v-.125h-.13c-.364 0-.376-.045-.376-.194z" id="path3938-2" style="fill:red;fill-opacity:1;stroke-width:.352778;stroke-linecap:butt;stroke-linejoin:round"/>
<path d="m105.042 906.38.43-.416c.631-.559.874-.778.874-1.182 0-.462-.364-.786-.858-.786a.748.748 0 0 0-.757.733c0 .227.202.227.214.227.069 0 .21-.049.21-.215a.205.205 0 0 0-.214-.21c-.032 0-.04 0-.052.004.093-.263.311-.413.546-.413.369 0 .543.328.543.66 0 .323-.203.643-.425.894l-.778.867c-.044.044-.044.052-.044.15h1.502l.113-.705h-.101c-.02.122-.049.3-.09.36-.028.033-.295.033-.384.033z" id="path3944-6" style="fill:red;fill-opacity:1;stroke-width:.352778;stroke-linecap:butt;stroke-linejoin:round"/>
<g id="g36913" transform="matrix(.8 0 0 .8 -64.352 245.515)" style="fill:red;fill-opacity:1;stroke-width:1.25">
<path d="M210.476 850.462c.086 0 .177 0 .177-.101s-.091-.101-.177-.101h-2.738c-.086 0-.177 0-.177.101s.091.101.177.101z" id="path3950-7" style="fill:red;fill-opacity:1;stroke-width:.440972;stroke-linecap:butt;stroke-linejoin:round"/>
<path d="M212.565 848.387c0-.121 0-.131-.116-.131-.314.324-.759.324-.92.324v.157c.1 0 .399 0 .662-.132v2.621c0 .183-.015.243-.47.243h-.163v.157c.177-.015.618-.015.82-.015.203 0 .643 0 .82.015v-.157h-.162c-.455 0-.47-.055-.47-.243z" id="path3952-4" style="fill:red;fill-opacity:1;stroke-width:.440972;stroke-linecap:butt;stroke-linejoin:round"/>
</g>
<g id="g4118">
<path style="color:#000;fill:red;stroke-linejoin:round;-inkscape-stroke:none" d="M108.201 905.193v.301h2.4v-.3z" id="path4139"/>
<path style="color:#000;fill:red;stroke-linejoin:round;-inkscape-stroke:none" d="M108.201 911.902v.301h2.4v-.3z" id="path4132"/>
<path style="color:#000;fill:red;stroke-linejoin:round;-inkscape-stroke:none" d="M108.201 918.61v.3h2.4v-.3z" id="path4126"/>
<path style="color:#000;fill:red;stroke-linejoin:round;-inkscape-stroke:none" d="M108.201 925.318v.3h2.4v-.3z" id="path4120"/>
</g>
</g>
</svg>
