<svg xml:space="preserve" viewBox="0 0 27.025 34.361" height="129.87" width="102.141" xmlns:xlink="http://www.w3.org/1999/xlink" xmlns="http://www.w3.org/2000/svg">
<defs>
<path id="b" d="M9.086-8.309a.121.121 0 0 0-.132-.12c-.035 0-.047.013-.179.144l-.837.92c-.107-.167-.657-1.063-1.984-1.063-2.666 0-5.356 2.642-5.356 5.415 0 1.973 1.41 3.276 3.24 3.276 1.04 0 1.948-.478 2.582-1.028 1.112-.98 1.315-2.068 1.315-2.104 0-.12-.12-.12-.143-.12-.072 0-.132.024-.156.12-.107.346-.382 1.195-1.207 1.889-.825.67-1.578.872-2.2.872-1.076 0-2.343-.621-2.343-2.486 0-.682.25-2.618 1.446-4.017.73-.849 1.853-1.447 2.917-1.447 1.22 0 1.925.92 1.925 2.308 0 .478-.036.49-.036.61 0 .119.132.119.18.119.155 0 .155-.024.215-.24z"/>
<path id="a" d="M6.42-7.113c-.167.155-.562.49-.562.705 0 .12.12.24.24.24.107 0 .167-.085.226-.156.144-.18.419-.514.945-.777.083-.048.203-.108.203-.251 0-.12-.084-.18-.167-.24-.263-.179-.395-.394-.49-.681-.024-.108-.072-.263-.24-.263-.167 0-.239.155-.239.251 0 .06.096.442.287.693H2.594c-.203 0-.418 0-.418.24 0 .239.215.239.418.239z"/>
<path id="d" d="M4.318-2.67c0-.92-.109-1.581-.494-2.167-.259-.385-.778-.72-1.447-.72C.435-5.557.435-3.272.435-2.67c0 .603 0 2.837 1.942 2.837 1.941 0 1.941-2.234 1.941-2.837zM2.377-.067c-.385 0-.896-.226-1.063-.912-.117-.494-.117-1.18-.117-1.8 0-.61 0-1.246.125-1.707a1.07 1.07 0 0 1 1.055-.836c.452 0 .887.276 1.037.761.134.452.143 1.055.143 1.783 0 .619 0 1.238-.11 1.765-.167.762-.736.946-1.07.946z"/>
<path id="c" d="M6.408-4.794a.893.893 0 0 0-.646.825c0 .263.204.55.598.55.419 0 .86-.347.86-.933 0-.633-.633-1.052-1.362-1.052-.681 0-1.124.514-1.28.73-.298-.503-.968-.73-1.649-.73-1.506 0-2.32 1.47-2.32 1.865 0 .168.18.168.288.168.143 0 .227 0 .275-.156.346-1.088 1.207-1.446 1.697-1.446.455 0 .67.215.67.597 0 .228-.168.885-.275 1.315l-.407 1.638c-.179.73-.61 1.088-1.016 1.088-.06 0-.335 0-.574-.18a.893.893 0 0 0 .646-.824c0-.263-.203-.55-.598-.55-.418 0-.86.347-.86.933 0 .633.633 1.052 1.362 1.052.682 0 1.124-.514 1.28-.73.298.502.968.73 1.65.73 1.506 0 2.319-1.47 2.319-1.865 0-.168-.18-.168-.287-.168-.144 0-.228 0-.275.156C6.157-.693 5.296-.335 4.806-.335c-.454 0-.67-.215-.67-.598 0-.25.156-.884.264-1.327.083-.31.358-1.434.418-1.625.18-.718.598-1.088 1.016-1.088.06 0 .335 0 .574.179z"/>
</defs>
<g transform="translate(-78.301 -800.915)">
<path style="fill:none;stroke:red;stroke-width:.529;stroke-linecap:round;stroke-linejoin:round;stroke-dasharray:none;stop-color:#000" d="M80.073 830.033c.815-9.916 6.734-11.725 12.31-14.127 6.06-2.611 9.95-2.383 10.908-10.779"/>
<g transform="matrix(.42333 0 0 .42333 2.428 777.252)" style="font-variation-settings:normal;opacity:1;vector-effect:none;fill:red;fill-opacity:1;stroke-width:.264583;stroke-linecap:butt;stroke-linejoin:miter;stroke-miterlimit:4;stroke-dasharray:none;stroke-dashoffset:0;stroke-opacity:1;-inkscape-stroke:none;stop-color:#000;stop-opacity:1">
<use x="192.754" y="85.238" xlink:href="#a" style="font-variation-settings:normal;vector-effect:none;fill:red;fill-opacity:1;stroke-width:.624998;stroke-linecap:butt;stroke-linejoin:miter;stroke-miterlimit:4;stroke-dasharray:none;stroke-dashoffset:0;stroke-opacity:1;-inkscape-stroke:none;stop-color:#000;stop-opacity:1"/>
<use x="190.966" y="88.26" xlink:href="#b" style="font-variation-settings:normal;vector-effect:none;fill:red;fill-opacity:1;stroke-width:.624998;stroke-linecap:butt;stroke-linejoin:miter;stroke-miterlimit:4;stroke-dasharray:none;stroke-dashoffset:0;stroke-opacity:1;-inkscape-stroke:none;stop-color:#000;stop-opacity:1"/>
</g>
<g transform="matrix(.42333 0 0 .42333 -12.54 797.083)" style="font-variation-settings:normal;opacity:1;vector-effect:none;fill:green;fill-opacity:1;stroke-width:.264583;stroke-linecap:butt;stroke-linejoin:miter;stroke-miterlimit:4;stroke-dasharray:none;stroke-dashoffset:0;stroke-opacity:1;-inkscape-stroke:none;stop-color:#000;stop-opacity:1">
<use x="214.13" y="88.26" xlink:href="#c" style="font-variation-settings:normal;vector-effect:none;fill:green;fill-opacity:1;stroke-width:.624998;stroke-linecap:butt;stroke-linejoin:miter;stroke-miterlimit:4;stroke-dasharray:none;stroke-dashoffset:0;stroke-opacity:1;-inkscape-stroke:none;stop-color:#000;stop-opacity:1"/>
<use x="222.009" y="90.054" xlink:href="#d" style="font-variation-settings:normal;vector-effect:none;fill:green;fill-opacity:1;stroke-width:.624998;stroke-linecap:butt;stroke-linejoin:miter;stroke-miterlimit:4;stroke-dasharray:none;stroke-dashoffset:0;stroke-opacity:1;-inkscape-stroke:none;stop-color:#000;stop-opacity:1"/>
</g>
<use x="247.779" y="88.26" xlink:href="#c" style="stroke-width:.833333" transform="matrix(.42333 0 0 .42333 -2.624 765.84)"/>
<path style="color:#000;fill:red;fill-rule:evenodd;stroke-width:.187814pt;-inkscape-stroke:none" d="m93.378 815.477-1.12 1.505-.743-1.725z"/>
<path style="color:#000;fill:red;fill-rule:evenodd;-inkscape-stroke:none" d="m91.314 815.107.915 2.123 1.378-1.853-.214-.025zm.4.3 1.434.17-.86 1.157z"/>
<circle cx="103.291" cy="804.466" r=".661" color="#000" fill="#ff0505"/>
<circle cx="80.073" cy="830.033" r=".661" color="#000" fill="#ff0505"/>
</g>
</svg>
