<?xml version="1.0" encoding="UTF-8"?>
<svg width="236.023" height="132.624" version="1.1" viewBox="0 0 236.02336 132.62376" xmlns="http://www.w3.org/2000/svg"><defs><marker id="Arrow1Lstart-2" overflow="visible" orient="auto"><path transform="matrix(.8 0 0 .8 10 0)" d="m0 0 5-5-17.5 5 17.5 5z" fill-rule="evenodd" stroke="#000" stroke-width="1pt"/></marker><marker id="Arrow1Lend-65-8" overflow="visible" orient="auto"><path transform="matrix(-.8 0 0 -.8 -10 0)" d="m0 0 5-5-17.5 5 17.5 5z" fill-rule="evenodd" stroke="#000" stroke-width="1pt"/></marker></defs><g transform="translate(98.0117 -218.143)"><path d="m-42.3709 316.499 1.63794-11.1204 1.63794-9.79842 1.63794-8.57525 1.63794-7.44604 1.63794-6.40645 1.63787-5.45229 1.63794-4.57932 1.63794-3.78347 1.63794-3.06076 1.63794-2.40731 1.63794-1.81945 1.63794-1.29324 1.63794-0.82531 1.63794-0.41188 1.63794-0.0498 1.63794 0.2644 1.63787 0.53389 1.63794 0.76186 1.63794 0.95144 1.63794 1.10527 1.63794 1.22658 1.63794 1.31795 1.63794 1.38195 1.63794 1.42146 1.63794 1.43863 1.63794 1.43605 1.63759 1.41595 1.63857 1.38056 1.63787 1.33198 1.63787 1.27223 1.63787 1.20312 1.63787 1.1267 1.63787 1.04448 1.63787 0.95827 1.63787 0.86942 1.63787 0.77973 1.63787 0.6901 1.63787 0.60216 1.63857 0.51686 1.63787 0.43548 1.63787 0.35877 1.63787 0.28785 1.63787 0.22329 1.63787 0.16605 1.63787 0.1165 1.63787 0.0752 1.63787 0.0427 1.63787 0.0193 1.63787 5e-3 1.63857 4.1e-4 1.63787 5e-3 1.63787 0.0193 1.63787 0.0427 1.63787 0.0752 1.63787 0.11649 1.63787 0.16605 1.63787 0.22329 1.63787 0.28785 1.63787 0.35877 1.63787 0.43548 1.63857 0.51686 1.63787 0.60216 1.63787 0.6901 1.63787 0.77973 1.63787 0.86942 1.63787 0.95827 1.63787 1.04448 1.63787 1.1267 1.63787 1.20312 1.63787 1.27224 1.63787 1.33197 1.63857 1.38056 1.63787 1.41595 1.63787 1.43605 1.63787 1.43856 1.63787 1.42181 1.63787 1.38202 1.63787 1.31781 1.63787 1.22637 1.63787 1.10562 1.63787 0.95137 1.63787 0.76151 1.63857 0.53396 1.63787 0.26454 1.63787-0.0503 1.63787-0.41181 1.63788-0.82503 1.63787-1.29338 1.63787-1.81966 1.63787-2.40738 1.63788-3.06069 1.63787-3.78319 1.63787-4.57932 1.63857-5.45229 1.63788-6.40645 1.63787-7.44604 1.63787-8.57532 1.63788-9.79848 1.63787-11.1202" fill="none" stroke="#00f" stroke-linecap="square" stroke-linejoin="round" stroke-miterlimit="100" stroke-width="2"/><g fill="#00f"><path d="m-33.6444 241.104-0.6289-0.48535q0.66992-1.0459 1.35351-2.69336 0.6836-1.6543 0.89551-2.74805h-1.70215v-0.7793h1.77051v-2.67285h1.02539v2.67285h1.34668v0.7793h-1.34668v1.51758q0.82031 0.99121 1.29883 1.33984l-0.35547 0.86133q-0.40332-0.38965-0.94336-1.05957v6.37109h-1.02539v-6.35742q-0.62207 1.68164-1.68848 3.25391zm6.11133 1.23047-0.12305-0.81348h0.89551q0.42383 0 0.62891-0.16406 0.21191-0.16407 0.33496-0.66992 0.12305-0.50586 0.15039-2.72071l0.0273-3.05566h-2.02343l-0.0752-0.10254 0.58106-1.96875h-2.50879v-0.74512h9.1123v0.74512h-5.63281l-0.45117 1.40137h1.91406v2.75488q0 2.05078-0.12305 3.34961-0.11621 1.29883-0.44433 1.58594-0.32129 0.28027-0.64258 0.35546-0.32129 0.0752-1.62012 0.0479zm6.22754-0.11621q-0.65625-0.82032-1.20996-1.81153-0.58789 1.06641-1.33301 1.90039l-0.65625-0.51269q0.85449-0.97071 1.50391-2.36524-0.81348-1.83886-1.1416-3.5205l0.76562-0.18458q0.28711 1.32618 0.82031 2.61817 0.65625-1.81836 0.65625-3.31543h-2.24218v-0.74512h3.24023q-0.0273 2.63184-1.1416 5.16113 0.62891 1.19629 1.44238 2.11915zm-7.23926-1.85254v0.32812h-0.81347v-4.74414h2.72754v4.41602zm1.11426-3.78711h-1.11426v3.13086h1.11426zm-2.58398 7.30078v-0.81348h9.50879v0.81348z"/><path d="m-7.05946 243.176-0.7041 0.86132q-1.90722-1.08691-3.34961-2.94628-1.44238-1.85938-2.18066-3.7461-0.66309 2.25586-2.23535 4.0127-1.56543 1.75-3.97168 2.63183l-0.39649-0.7998q2.24219-0.80664 3.86231-2.80274 1.62012-2.00293 1.90722-4.2041h-5.42773v-0.90234h5.62598v-3.43848h1.1416v3.43848h5.62598v0.90234h-5.50977q0.56055 1.92774 2.11914 3.96485 1.55859 2.03027 3.49316 3.02832z"/><path d="m83.0293 318.805-0.6289-0.48535q0.66992-1.0459 1.35351-2.69336 0.6836-1.6543 0.89551-2.74805h-1.70215v-0.7793h1.77051v-2.67285h1.02539v2.67285h1.34668v0.7793h-1.34668v1.51758q0.82031 0.99121 1.29883 1.33984l-0.35547 0.86133q-0.40332-0.38965-0.94336-1.05957v6.37109h-1.02539v-6.35742q-0.62207 1.68164-1.68848 3.25391zm6.11133 1.23047-0.12305-0.81348h0.89551q0.42383 0 0.62891-0.16406 0.21191-0.16407 0.33496-0.66992 0.12305-0.50586 0.15039-2.72071l0.0273-3.05566h-2.02343l-0.0752-0.10254 0.58106-1.96875h-2.50879v-0.74512h9.1123v0.74512h-5.63281l-0.45117 1.40137h1.91406v2.75488q0 2.05078-0.12305 3.34961-0.11621 1.29883-0.44433 1.58594-0.32129 0.28027-0.64258 0.35546-0.32129 0.0752-1.62012 0.0478zm6.22754-0.11621q-0.65625-0.82032-1.20996-1.81153-0.58789 1.06641-1.33301 1.90039l-0.65625-0.51269q0.85449-0.97071 1.50391-2.36524-0.81348-1.83886-1.1416-3.5205l0.76562-0.18458q0.28711 1.32618 0.82031 2.61817 0.65625-1.81836 0.65625-3.31543h-2.24218v-0.74512h3.24023q-0.0273 2.63184-1.1416 5.16113 0.62891 1.19629 1.44238 2.11915zm-7.23926-1.85254v0.32812h-0.81347v-4.74414h2.72754v4.41602zm1.11426-3.78711h-1.11426v3.13086h1.11426zm-2.58398 7.30078v-0.81348h9.50879v0.81348z"/><path d="m102.272 321.738h-2.03028l-0.10937-1.01855h1.79785q0.65625 0 0.65625-0.5127v-10.6504h1.15527v11.0811q0 0.50586-0.41699 0.7998-0.41014 0.30078-1.05273 0.30078zm6.55566-3.06933q-0.80664-1.25781-1.64746-3.35645-0.84082-2.09863-1.18262-3.26074l1.07325-0.28027q0.49218 1.69531 1.30566 3.49316t1.44922 2.80274zm-11.5254 0.082-0.85449-0.56738q1.05273-1.26465 1.74316-3.08985 0.69727-1.82519 0.85449-3.15136l1.12792 0.17089q-0.287095 1.77051-1.0664 3.60938-0.77246 1.83203-1.80469 3.02832z"/></g><g stroke-miterlimit="1e5"><path d="m135.57 336.395h-195.016v-115.81" fill="none" marker-end="url(#Arrow1Lend-65-8)" marker-start="url(#Arrow1Lstart-2)" stroke="#000" stroke-width="1px"/><g stroke-linejoin="round" stroke-width="1.60996"><path d="m112.644 342.192c-0.61823 0.11592-0.85006 0.57959-0.85006 0.94666 0 0.46366 0.36707 0.61822 0.63754 0.61822 0.57959 0 0.9853-0.50231 0.9853-1.02393 0-0.81142-0.92734-1.17849-1.73876-1.17849-1.17848 0-1.83535 1.15917-2.00922 1.52624-0.44435-1.44896-1.64215-1.52624-1.98991-1.52624-1.97058 0-3.01383 2.53085-3.01383 2.95588 0 0.0773 0.0773 0.17387 0.21251 0.17387 0.15456 0 0.1932-0.11591 0.23184-0.19319 0.65686-2.14446 1.95126-2.55017 2.51153-2.55017 0.86937 0 1.04325 0.81142 1.04325 1.27508 0 0.42503-0.11592 0.86938-0.34775 1.79671l-0.65686 2.64677c-0.2898 1.15917-0.85006 2.22174-1.87399 2.22174-0.0966 0-0.57959 0-0.9853-0.25115 0.69551-0.13524 0.85006-0.71482 0.85006-0.94666 0-0.38639-0.28979-0.61822-0.65686-0.61822-0.46367 0-0.96597 0.40571-0.96597 1.02393 0 0.81142 0.90801 1.17849 1.73875 1.17849 0.92733 0 1.58419-0.73414 1.9899-1.52624 0.30911 1.13985 1.27509 1.52624 1.98991 1.52624 1.97058 0 3.01383-2.53085 3.01383-2.95588 0-0.0966-0.0773-0.17388-0.19319-0.17388-0.17388 0-0.1932 0.0966-0.25115 0.25116-0.52163 1.70011-1.64216 2.49221-2.51153 2.49221-0.67619 0-1.04326-0.50231-1.04326-1.29441 0-0.42502 0.0773-0.73413 0.38639-2.00922l0.67619-2.62745c0.28979-1.15916 0.94665-2.00922 1.83534-2.00922 0.0386 0 0.57959 0 0.9853 0.25115z"/><path d="m-89.8805 245.288c0.38639 0 0.54095 0 0.54095-0.36707 0-0.19319-0.15456-0.19319-0.50231-0.19319h-1.56487c0.36707-1.98991 0.63754-3.36159 0.79209-3.97981 0.11592-0.46367 0.52163-0.90802 1.02394-0.90802 0.4057 0 0.81141 0.17388 1.00461 0.34775-0.75346 0.0773-0.9853 0.63755-0.9853 0.96598 0 0.38639 0.2898 0.61822 0.65687 0.61822 0.38639 0 0.96597-0.32843 0.96597-1.06257 0-0.81142-0.81142-1.25576-1.66147-1.25576-0.83074 0-1.64216 0.61822-2.02855 1.37168-0.34775 0.67618-0.54094 1.37168-0.98529 3.90253h-1.2944c-0.36707 0-0.56027 0-0.56027 0.34775 0 0.21251 0.11592 0.21251 0.50231 0.21251h1.23644c-0.34775 1.79671-1.13985 6.16291-1.58419 8.2301-0.32843 1.68079-0.61823 3.09111-1.5842 3.09111-0.058 0-0.61822 0-0.96597-0.36707 0.98529-0.0773 0.98529-0.92733 0.98529-0.94665 0-0.38639-0.28979-0.61823-0.65686-0.61823-0.38639 0-0.96598 0.32843-0.96598 1.06257 0 0.83074 0.85006 1.25577 1.60352 1.25577 1.97059 0 2.782-3.53546 2.99452-4.50144 0.34775-1.48759 1.2944-6.62657 1.391-7.20616z"/><path d="m-80.8309 257.749c0-0.058 0-0.0966-0.32843-0.42503-1.93195-1.95127-3.01384-5.13898-3.01384-9.08015 0-3.74797 0.90802-6.97433 3.14908-9.25402 0.19319-0.17388 0.19319-0.21252 0.19319-0.27047 0-0.11592-0.0966-0.15456-0.17388-0.15456-0.25115 0-1.83534 1.391-2.782 3.28431-0.98529 1.95126-1.42964 4.01845-1.42964 6.39474 0 1.71943 0.27047 4.01845 1.27509 6.08563 1.13984 2.31834 2.72404 3.5741 2.93655 3.5741 0.0773 0 0.17388-0.0386 0.17388-0.15455z"/><path d="m-70.5964 245.172c-0.61823 0.11591-0.85006 0.57958-0.85006 0.94665 0 0.46367 0.36707 0.61822 0.63754 0.61822 0.57959 0 0.9853-0.5023 0.9853-1.02393 0-0.81142-0.92734-1.17849-1.73876-1.17849-1.17848 0-1.83535 1.15917-2.00922 1.52624-0.44435-1.44896-1.64216-1.52624-1.98991-1.52624-1.97058 0-3.01383 2.53085-3.01383 2.95588 0 0.0773 0.0773 0.17388 0.21251 0.17388 0.15456 0 0.1932-0.11592 0.23184-0.1932 0.65686-2.14446 1.95126-2.55017 2.51153-2.55017 0.86937 0 1.04325 0.81142 1.04325 1.27509 0 0.42503-0.11592 0.86937-0.34775 1.79671l-0.65687 2.64677c-0.28979 1.15916-0.85005 2.22173-1.87398 2.22173-0.0966 0-0.57959 0-0.9853-0.25115 0.6955-0.13523 0.85006-0.71482 0.85006-0.94665 0-0.38639-0.28979-0.61823-0.65686-0.61823-0.46367 0-0.96597 0.40571-0.96597 1.02394 0 0.81141 0.90801 1.17848 1.73875 1.17848 0.92733 0 1.58419-0.73414 1.9899-1.52623 0.30911 1.13984 1.27509 1.52623 1.98991 1.52623 1.97058 0 3.01383-2.53085 3.01383-2.95587 0-0.0966-0.0773-0.17388-0.19319-0.17388-0.17388 0-0.1932 0.0966-0.25115 0.25115-0.52163 1.70012-1.64216 2.49221-2.51153 2.49221-0.67619 0-1.04326-0.5023-1.04326-1.2944 0-0.42503 0.0773-0.73414 0.38639-2.00922l0.67618-2.62745c0.2898-1.15917 0.94666-2.00923 1.83535-2.00923 0.0386 0 0.57959 0 0.9853 0.25116z"/><path d="m-63.5561 248.244c0-1.46828-0.19319-3.86389-1.27508-6.10495-1.13985-2.31833-2.72404-3.5741-2.93656-3.5741-0.0773 0-0.17387 0.0386-0.17387 0.15456 0 0.058 0 0.0966 0.32843 0.42502 1.93194 1.95127 3.01383 5.13898 3.01383 9.08015 0 3.74798-0.90801 6.97433-3.14907 9.25403-0.19319 0.17387-0.19319 0.21251-0.19319 0.27047 0 0.11592 0.0966 0.15455 0.17387 0.15455 0.25115 0 1.83535-1.391 2.782-3.2843 0.9853-1.97059 1.42964-4.05709 1.42964-6.37543z"/></g></g></g></svg>
