<?xml version="1.0" encoding="UTF-8"?>
<svg width="230.338" height="210.2" version="1.1" viewBox="0 0 230.33718 210.19991" xmlns="http://www.w3.org/2000/svg">
 <defs>
  <marker id="marker6157" overflow="visible" orient="auto">
   <path transform="matrix(-.4 0 0 -.4 -4 0)" d="m0 0 5-5-17.5 5 17.5 5z" fill="#f00" fill-rule="evenodd" stroke="#f00" stroke-width="1pt"/>
  </marker>
 </defs>
 <rect x="37.6984" y="27.299" width="20.2438" height="28.2261" fill="#efe3e3" stroke="#b32d38" stroke-width=".999999px"/>
 <rect x="148.512" y="154.675" width="69.8487" height="30.2261" fill="#e2e2f1" stroke="#2f2f76" stroke-width=".999999px"/>
 <g transform="translate(332.25 .843285)" aria-label="断熱膨張">
  <path d="m-304.321 69.6427-0.46224-0.46224q1.52344-1.72526 2.11588-3.3724h-1.79036v-0.690105h1.88802v-3.74349h0.82031v3.74349h1.77735v0.690105h-1.69922q0.625 1.08724 1.77083 2.16146l-0.46224 0.598959q-0.87239-0.950521-1.38672-1.73828v3.83464h-0.82031v-3.47006q-0.83333 1.56901-1.7513 2.44792zm7.84506 3.41797v-6.79037h-1.61459v0.397136q0 4.4336-1.69922 6.51693l-0.68359-0.436198q1.38672-1.97266 1.38672-5.52084v-4.80469q2.44141-0.371094 4.24479-1.03516l0.46224 0.748699q-1.41927 0.507813-3.71094 0.898438v2.47396h3.98438v0.761719h-1.3737v6.79037zm-3.77605-1.08724h-4.84375v0.579428h-0.91146v-10.7813h0.91146v9.44011h4.84375zm-0.20833-7.56511-0.66406-0.09766 0.47526-2.20052 0.74869 0.09766zm-3.4375 0.02604-0.42318-2.14844 0.6901-0.136718 0.4362 2.18099z"/>
  <path d="m-297.231 81.6219q-0.29297-0.31901-0.76172-0.735677-0.59245 1.4388-2.10938 2.70182l-0.58594-0.566407q1.36068-1.0612 1.94662-2.79297-0.60547-0.514323-1.11979-0.911459l0.53385-0.566407q0.24089 0.182292 0.8138 0.625001 0.11068-0.579428 0.11068-1.19792v-0.800782h-1.33463v-0.735678h1.33463v-1.9336h1.00912v1.9336h1.96614v3.83464q0 0.651042 0.1237 1.32813 0.13021 0.677084 0.46875 0.677084 0.20183 0 0.28646-0.292969 0.0846-0.292969 0.15625-1.34766l0.67058 0.123698q-0.0521 1.23698-0.14323 1.64063-0.0912 0.397136-0.3711 0.61198-0.27344 0.214844-0.58594 0.221354-0.78776 0-1.14583-0.872396-0.35807-0.878907-0.38412-2.6888v-2.5h-1.10026q0 1.57552-0.26041 2.64323 0.80729 0.664063 1.08073 0.970053zm-9.14064-1.55599-0.24739-0.579428q1.56901-0.494792 1.95964-1.71875h-1.60157v-0.703125h2.51302v-0.859376h-2.13541v-0.690105h2.13541v-0.696615h0.93751v0.696615h2.17448v0.690105h-2.17448v0.859376h2.43489v0.703125h-1.78385v0.885418q0 0.338542 0.4362 0.338542h0.54687q0.44922 0 0.44922-0.416667v-0.332032l0.66406 0.05859v0.540365q0 0.279948-0.14974 0.46224t-0.33854 0.247396q-0.1888 0.05859-0.65104 0.05859-0.94401 0-1.14583-0.02604-0.19532-0.03255-0.39714-0.214844-0.20182-0.188802-0.20182-0.429688v-1.17188h-0.85287q-0.28646 0.91797-1.02213 1.52344-0.73568 0.598959-1.54949 0.774741zm5.73569 2.7474q-1.1198 0.221354-5.5599 0.709636l-0.17579-0.846355q0.96355-0.05859 2.57162-0.221354v-1.24349h-2.13542v-0.722657h2.13542v-0.885418h0.9375v0.885418h2.1875v0.722657h-2.1875v1.13932q1.4974-0.169271 2.23959-0.286459zm5.25391 3.47006q-0.95703-1.7513-1.51042-2.48698l0.88542-0.397136q0.22786 0.286458 0.82031 1.21094t0.78125 1.29558zm-6.88152 0.08464q-0.21484-1.17839-0.65755-2.36979l0.97005-0.201823q0.55339 1.66667 0.70313 2.36328zm3.27474 0q-0.1302-0.46224-0.89843-2.31771l0.9375-0.253906q0.67057 1.28906 0.98307 2.32422zm-6.59505 0.117187-0.85938-0.46224q0.96354-1.04818 1.52344-2.17448l0.89844 0.286459q-0.20183 0.47526-0.74219 1.28255-0.54037 0.807292-0.82031 1.06771z"/>
  <path d="m-301.867 91.7261v-0.703125h1.48437v-1.17188h-1.82292v-0.722657h1.82292v-1.07422h0.97657v1.07422h1.82291v0.722657h-1.82291v1.17188h1.45833v0.703125zm4.84375-0.130208-0.5599-0.670574q1.77084-1.36068 2.59766-2.67578l0.85938 0.449219q-0.50781 0.735678-1.35417 1.56901-0.83984 0.833334-1.54297 1.32813zm-6.52344 3.3138h-1.46485q-0.18229 3.1836-1.18489 4.8698l-0.69662-0.377604q0.4362-0.859376 0.71615-2.38282t0.27995-3.08594v-5.56641h3.2487v10.5274q0 0.364583-0.27995 0.592448t-0.74219 0.227865h-1.03516l-0.10416-0.787761h0.80078q0.46224 0 0.46224-0.397136zm-1.42578-3.65886h1.42578v-2.1875h-1.42578zm-0.013 2.96875h1.43881v-2.25912h-1.42578v1.6211q0 0.136719-0.013 0.638021zm7.94923 1.10026-0.54688-0.625001q0.5599-0.403646 1.60157-1.45182 1.04818-1.05469 1.38021-1.63412l0.80078 0.501302q-0.54036 0.787761-1.54297 1.76432-1.0026 0.970053-1.69271 1.44531zm-4.80469 0.09766v-2.7474h3.83464v2.7474zm2.95573-2.1224h-2.09636v1.47787h2.09636zm1.61459 6.44532-0.58594-0.625001q1.00911-0.761719 1.90104-1.79037 0.89844-1.03516 1.35417-1.79037l0.82682 0.533854q-1.22396 2.01823-3.49609 3.67188zm-4.88282-0.371095-0.13672-0.787761 0.96354-0.110677-0.44271-2.35026 0.85287-0.136719 0.41667 2.36979 1.04166-0.14974 0.42318-2.28516 0.86589 0.123698-0.4948 2.03776q0.65105-0.104167 1.01563-0.175782l0.026 0.735678q-1.02864 0.292969-4.53125 0.729167z"/>
  <path d="m-301.672 113.139-0.1888-0.83334q0.48828-0.0326 1.07422-0.10416v-4.21876h-1.03516v-0.7487h1.03516v-5.42318h6.04167v0.71615h-5.07162v1.10026h4.67448v0.72266h-4.67448v0.98307h4.67448v0.71615h-4.67448v1.18489h5.5599v0.7487h-3.16406q0.3125 1.0612 0.83984 1.83594 0.97005-0.72266 1.52344-1.33464l0.70312 0.58594q-0.78776 0.6836-1.77083 1.34115 0.9375 1.15886 2.12891 1.9336l-0.64453 0.73567q-1.36719-0.89843-2.36329-2.2526-0.98958-1.36068-1.39323-2.84506h-1.41927v4.08204q1.25-0.1888 2.77344-0.46224l0.0391 0.77474q-1.7513 0.41666-4.66797 0.76172zm-3.4375-7.70183-0.0977 1.95963h2.7474q0 1.88803-0.0781 3.03386-0.0716 1.14584-0.13672 1.51042-0.0586 0.35807-0.26692 0.59896-0.20183 0.24088-0.52735 0.39713t-0.59245 0.17579q-0.26692 0.026-1.62109 0.026l-0.1237-0.91146h1.19792q0.41016 0 0.65104-0.16276 0.2474-0.16927 0.3125-0.44922t0.11719-1.04167q0.0521-0.76172 0.0521-1.70573 0-0.54037-0.013-0.76172h-1.82292v0.35156l-0.89843 0.013 0.17578-3.75h2.64974v-2.16797h-2.78646v-0.74219h3.75651v3.62631z"/>
 </g>
 <path d="m47.9422 57.5252v61.1496" color="#000000" color-rendering="auto" fill="none" image-rendering="auto" marker-end="url(#marker6157)" shape-rendering="auto" solid-color="#000000" stroke="#f00" stroke-width="1.99999" style="isolation:auto;mix-blend-mode:normal"/>
 <g transform="translate(332.25 .843285)" aria-label="断熱圧縮">
  <path d="m-161.751 103.62-0.46224-0.46224q1.52344-1.72526 2.11589-3.3724h-1.79036v-0.690104h1.88802v-3.74349h0.82031v3.74349h1.77735v0.690104h-1.69922q0.625 1.08724 1.77083 2.16146l-0.46224 0.59896q-0.8724-0.95052-1.38672-1.73829v3.83464h-0.82031v-3.47005q-0.83334 1.56901-1.75131 2.44792zm7.84506 3.41797v-6.79037h-1.61458v0.39713q0 4.4336-1.69922 6.51694l-0.6836-0.4362q1.38672-1.97266 1.38672-5.52084v-4.80469q2.44141-0.371094 4.2448-1.03516l0.46224 0.748698q-1.41927 0.507813-3.71094 0.898438v2.47396h3.98438v0.761721h-1.3737v6.79037zm-3.77604-1.08724h-4.84376v0.57943h-0.91146v-10.7813h0.91146v9.44011h4.84376zm-0.20834-7.56511-0.66406-0.09766 0.47526-2.20052 0.7487 0.09766zm-3.4375 0.02604-0.42318-2.14844 0.69011-0.136719 0.4362 2.18099z"/>
  <path d="m-154.661 115.599q-0.29296-0.31901-0.76172-0.73567-0.59244 1.4388-2.10937 2.70182l-0.58594-0.5664q1.36068-1.0612 1.94662-2.79298-0.60547-0.51432-1.1198-0.91145l0.53386-0.56641q0.24088 0.18229 0.8138 0.625 0.11068-0.57943 0.11068-1.19792v-0.80078h-1.33464v-0.73568h1.33464v-1.93359h1.00911v1.93359h1.96615v3.83464q0 0.65104 0.1237 1.32813 0.13021 0.67708 0.46875 0.67708 0.20182 0 0.28646-0.29297 0.0846-0.29297 0.15625-1.34766l0.67057 0.1237q-0.0521 1.23698-0.14323 1.64063-0.0911 0.39713-0.37109 0.61198-0.27344 0.21484-0.58594 0.22135-0.78776 0-1.14583-0.87239-0.35808-0.87891-0.38412-2.68881v-2.5h-1.10026q0 1.57552-0.26042 2.64323 0.8073 0.66406 1.08073 0.97005zm-9.14063-1.55599-0.2474-0.57942q1.56902-0.4948 1.95964-1.71876h-1.60156v-0.70312h2.51302v-0.85938h-2.13542v-0.6901h2.13542v-0.69662h0.9375v0.69662h2.17448v0.6901h-2.17448v0.85938h2.4349v0.70312h-1.78386v0.88542q0 0.33854 0.4362 0.33854h0.54688q0.44922 0 0.44922-0.41666v-0.33203l0.66406 0.0586v0.54036q0 0.27995-0.14974 0.46224-0.14974 0.1823-0.33854 0.2474-0.1888 0.0586-0.65104 0.0586-0.94401 0-1.14584-0.026-0.19531-0.0326-0.39713-0.21484-0.20183-0.1888-0.20183-0.42969v-1.17188h-0.85286q-0.28646 0.91797-1.02214 1.52344-0.73568 0.59896-1.54948 0.77474zm5.73568 2.7474q-1.11979 0.22136-5.5599 0.70964l-0.17578-0.84636q0.96354-0.0586 2.57162-0.22135v-1.24349h-2.13542v-0.72266h2.13542v-0.88542h0.9375v0.88542h2.1875v0.72266h-2.1875v1.13932q1.4974-0.16927 2.23958-0.28646zm5.25391 3.47006q-0.95703-1.75131-1.51041-2.48698l0.88541-0.39714q0.22787 0.28646 0.82032 1.21094t0.78125 1.29557zm-6.88151 0.0846q-0.21485-1.17838-0.65756-2.36979l0.97006-0.20182q0.55338 1.66666 0.70312 2.36328zm3.27474 0q-0.13021-0.46224-0.89844-2.31771l0.9375-0.2539q0.67058 1.28906 0.98308 2.32422zm-6.59506 0.11719-0.85937-0.46224q0.96354-1.04818 1.52344-2.17448l0.89843 0.28646q-0.20182 0.47526-0.74218 1.28255-0.54037 0.80729-0.82032 1.06771z"/>
  <path d="m-161.96 123.646v2.99479q0 4.54427-1.64714 7.02475l-0.71614-0.47527q0.64453-1.08724 0.98958-2.67578 0.35156-1.58854 0.35156-3.28125v-4.38803h11.0742v0.80079zm0.0586 9.76563v-0.84636h4.45964v-4.47266h-3.50911v-0.82682h3.50911v-2.81901h1.07422v2.81901h3.79558v0.82682h-3.79558v4.47266h4.47266v0.84636z"/>
  <path d="m-162.155 147.162v-5.49479l-1.83594 0.14974-0.0781-0.77474 0.78776-0.0391q0.57292-0.83333 1.04167-1.56901-0.70312-0.7487-1.73177-1.88802l0.55339-0.48828 0.27343 0.27344q0.70313-1.11329 1.12631-2.07032l0.80729 0.32552q-0.60547 1.13933-1.42578 2.27865l0.82682 0.87891q0.76172-1.23698 1.08724-1.95964l0.78776 0.33854q-1.14583 2.03776-2.42839 3.83464 1.10027-0.0586 1.81641-0.11719l-0.28646-0.99609 0.70964-0.17578q0.40365 1.26302 0.59896 2.12239l-0.72266 0.18881q-0.0391-0.18881-0.11719-0.47526l-0.8789 0.0846v5.57292zm9.23829-0.625h-2.50652v0.50131h-0.90494v-6.6797h1.40625l0.31901-1.39974h-1.98568v-0.72266h4.03646v-1.16536h-6.02214v1.36068h-0.77474v-2.10938h3.22266v-1.03516h0.95052v1.03516h3.41146v1.91406h0.20834v0.72266h-2.14193q-0.28646 0.98959-0.42969 1.39974h2.14844v6.65365h-0.9375zm-2.50652-3.59375h2.50652v-1.90104h-2.50652zm2.50652 0.70964h-2.50652v2.16146h2.50652zm-5.4297 3.46354v-5.39063q-0.18229 0.35156-0.57942 0.97005l-0.5599-0.33854q1.26953-2.08984 1.73828-4.57032l0.88542 0.16277q-0.36458 1.54948-0.98307 3.00781h0.37109v6.15886zm-1.84896-1.95313-0.36458-2.35677 0.77474-0.0911 0.36459 2.32423zm-3.20963 1.00261-0.76172-0.16276q0.52734-2.21355 0.57291-3.26172l0.81381 0.0521q-0.0521 0.72266-0.25391 1.82943-0.20182 1.10026-0.37109 1.54297z"/>
 </g>
 <g fill="none" shape-rendering="auto" stroke="#f00" stroke-width="1.99999">
  <path d="m158.512 152.675v-61.1496" color="#000000" color-rendering="auto" image-rendering="auto" marker-end="url(#marker6157)" solid-color="#000000" style="isolation:auto;mix-blend-mode:normal"/>
  <path d="m158.512 63.2991v-13.7739h-94.5699" color="#000000" color-rendering="auto" image-rendering="auto" marker-end="url(#marker6157)" solid-color="#000000" style="isolation:auto;mix-blend-mode:normal"/>
  <path d="m47.9422 146.901v13.7739h94.5699" color="#000000" color-rendering="auto" image-rendering="auto" marker-end="url(#marker6157)" solid-color="#000000" style="isolation:auto;mix-blend-mode:normal"/>
 </g>
 <rect transform="scale(1,-1)" x=".499665" y="-35.2991" width="229.338" height="34.7991" fill="#efe3e3" stroke-width="3.77953"/>
 <path d="m0.499627 35.2991h229.338" fill="none" stroke="#b32d38" stroke-dasharray="2.00000181, 2.00000181"/>
 <g transform="translate(352.265 -.185392)" fill="#b32d38" stroke-width="3.14961">
  <path d="m-163.301 13.0107v-0.91408h6.51564v-1.10937h1.32031v1.10937h6.59377v0.91408zm2.125 4.14841v-2.97657h10.3281v2.97657zm9.1719-2.17187h-8.00002v1.36721h8.00002zm1.27344 10.1016h-1.81251l-0.16404-1.03128h1.4219q0.61716 0 0.61716-0.523427v-4.3047h-10.7656v5.95314h-1.24218v-6.85157h13.25v5.66408q0 0.499994-0.36737 0.796876-0.35943 0.296693-0.93748 0.296693zm-7.4922-1.4219v0.390615h-1.14063v-3.6875h6.57812v3.29688zm4.27344-2.47658h-4.27344v1.62501h4.27344z"/>
  <path d="m-144.263 14.1068q-1.26561-1.14841-2.53126-2.10153l0.82034-0.820347q1.74218 1.25783 2.53123 1.99219zm1.71096 3.29688v-5.92188h8.52344v5.92188zm1.17966-3.4297h6.18751v-1.5625h-6.18751zm6.18751 0.898469h-6.18751v1.58593h6.18751zm-10.125 2.96875q-1.08597-1.03907-2.56252-2.08596l0.78905-0.882785q1.51563 1.08594 2.59378 2.0078zm1.21092 6.96874v-0.976555h0.9922v-5.05471h9.76563v5.05471h0.91404v0.976555zm2.21873-0.976555h1.66409v-4.12502h-1.66409zm2.80472 0h1.63279v-4.12502h-1.63279zm2.78124 0h1.72656v-4.12502h-1.72656zm-10.2031 0.960945-1.04685-0.718753q0.64063-0.781266 1.49215-2.41406 0.85939-1.64062 1.26565-2.77346l1.04686 0.390652q-0.2812 1.00781-1.1328 2.6953-0.85157 1.68748-1.62501 2.82032z"/>
 </g>
 <rect x=".499665" y="174.901" width="229.338" height="34.7991" fill="#e2e2f1" stroke-width="3.77953"/>
 <g transform="translate(361.778 -.180826)" fill="#2f2f76" stroke-width="3.14961">
  <path d="m-170.981 199.637v-8.46093q-0.77344 1.42969-1.6797 2.49997l-0.73436-0.61716q2.75781-4.18753 3.52343-7.73439l1.22657 0.1954q-0.53125 1.84373-1.68748 4.375h0.54686v9.74219zm2.0078-2.46875-0.16403-1.00781q0.31257-0.0469 1.25001-0.2109v-9.2578q1.24996-0.0151 4.10154-0.42191 2.85937-0.40623 4.07811-0.79688l0.58594 0.97659q-0.81248 0.21884-3.02343 0.54686-0.0151 0.66407-0.0151 1.16406 0 1.10158 0.0548 2.14065h3.6875v0.97656h-3.62502q0.24982 3.05469 1.15627 4.92185 0.90625 1.85938 1.44529 1.85938 0.3515 0 0.42969-0.52343 0.0858-0.52342 0.18747-1.94532l0.97655 0.1406q-0.0858 2.08596-0.336 2.89062-0.24226 0.8047-1.0625 0.8047-0.43748 0-0.86717-0.2657-0.4297-0.2657-1.02346-0.98438-0.59373-0.72658-1.07811-1.8672-0.47656-1.14063-0.71093-2.57813-0.23433-1.43747-0.32807-2.45311h-3.43748v4.46095q2.27343-0.4297 3.21872-0.67189l0.0624 0.97655q-0.69532 0.24227-5.56252 1.12502zm2.28129-9.62499v2.75781h3.37497q-0.0469-1.04689-0.0469-3.13281-2.10157 0.2812-3.3281 0.37493zm-1.48441 11.6016v-0.9922h5.99222v0.9922z"/>
  <path d="m-153.777 188.458q-1.26561-1.14845-2.53126-2.10157l0.82035-0.82031q1.74217 1.25782 2.53122 1.99219zm1.71096 3.29688v-5.92188h8.52345v5.92188zm1.17967-3.4297h6.18751v-1.56249h-6.18751zm6.18751 0.89843h-6.18751v1.58597h6.18751zm-10.125 2.96875q-1.08597-1.03903-2.56252-2.08592l0.78905-0.88283q1.51563 1.08594 2.59378 2.00784zm1.21092 6.96877v-0.97655h0.99221v-5.05471h9.76563v5.05471h0.91404v0.97655zm2.21874-0.97655h1.66409v-4.12502h-1.66409zm2.80472 0h1.63279v-4.12502h-1.63279zm2.78124 0h1.72656v-4.12502h-1.72656zm-10.2032 0.96094-1.04685-0.71875q0.64063-0.78127 1.49216-2.41406 0.85938-1.64066 1.26565-2.77346l1.04685 0.39062q-0.2812 1.00781-1.1328 2.69533-0.85157 1.68748-1.62501 2.82032z"/>
 </g>
 <rect x="148.512" y="65.2991" width="45.1675" height="20.2261" fill="#efe3e3" stroke="#b32d38" stroke-width=".999999px"/>
 <rect x="23.7565" y="124.675" width="34.1857" height="20.2261" fill="#e2e2f1" stroke="#2f2f76" stroke-width=".999999px"/>
 <path d="m0.499637 174.901h229.338" fill="none" stroke="#2f2f76" stroke-dasharray="2.00000181, 2.00000181"/>
 <g transform="translate(332.25 .843285)" aria-label="共等温圧縮">
  <path d="m-257.734 65.2144v-0.800782h2.9362v-3.3724h-2.40886v-0.800782h2.40886v-2.42188h1.03516v2.42188h4.03646v-2.39584h1.03515v2.39584h2.54558v0.800782h-2.54558v3.3724h3.00782v0.800782zm3.97136-0.800782h4.03646v-3.3724h-4.03646zm-3.59376 4.95443-0.48828-0.709636q1.1849-0.514323 2.32422-1.45182 1.13933-0.937501 1.5625-1.48438l0.89844 0.514324q-0.67708 0.826823-2.02474 1.8099-1.34115 0.983074-2.27214 1.32162zm10.9896-0.01302q-0.85938-0.377604-1.94662-1.20443-1.08724-0.833334-1.9987-1.95313l0.80729-0.475261q1.59506 1.84245 3.77605 2.8711z"/>
  <path d="m-242.565 59.355q-0.69661 0.989584-1.36068 1.59505l-0.65104-0.46224q0.52735-0.514324 1.10026-1.34766 0.57943-0.839844 0.85287-1.47136l0.98307 0.16276q-0.14323 0.29948-0.4362 0.774741h3.32032v0.748698h-1.86198l0.52734 1.03516-0.87239 0.201823-0.58594-1.23698zm5.52084 0q-0.53385 0.677084-0.91146 1.03516l-0.69661-0.377604q1.02864-1.1263 1.60807-2.34375l0.96354 0.188802q-0.13021 0.247396-0.42317 0.748699h3.93229v0.748698h-2.20052l0.625 1.08724-0.92448 0.16276-0.69011-1.25zm-7.11589 7.12891v-0.787761h8.10547v-1.3086h-8.30729v-0.800782h5.2474v-1.27604h-4.44662v-0.794272h4.44662v-0.826823h1.04817v0.826823h4.89584v0.794272h-4.89584v1.27604h5.71616v0.800782h-2.66928v1.3086h2.27214v0.787761h-2.27214v1.84896q0 0.488282-0.37109 0.794271-0.36459 0.30599-0.87891 0.30599h-1.86198l-0.13672-0.92448h1.6211q0.59244 0 0.59244-0.501302v-1.52344zm3.52214 2.58464q-0.77474-0.983074-1.69922-1.84896l0.82031-0.520834q0.83333 0.755209 1.76432 1.83594z"/>
  <path d="m-228.581 60.2013q-1.05469-0.957032-2.10938-1.7513l0.6836-0.683594q1.45182 1.04818 2.10937 1.66016zm1.42578 2.7474v-4.9349h7.10287v4.9349zm0.98308-2.85808h5.15625v-1.30208h-5.15625zm5.15625 0.748698h-5.15625v1.32162h5.15625zm-8.43751 2.47396q-0.90495-0.865886-2.13542-1.73828l0.65756-0.735678q1.26302 0.904949 2.16146 1.67318zm1.00912 5.8073v-0.813803h0.82682v-4.21224h8.13803v4.21224h0.76172v0.813803zm1.84896-0.813803h1.38672v-3.4375h-1.38672zm2.33724 0h1.36068v-3.4375h-1.36068zm2.31771 0h1.4388v-3.4375h-1.4388zm-8.50261 0.800782-0.8724-0.598959q0.53386-0.651042 1.24349-2.01172 0.71615-1.36719 1.05469-2.3112l0.8724 0.325521q-0.23438 0.839844-0.94401 2.2461-0.70964 1.40625-1.35417 2.35026z"/>
  <path d="m-215.937 59.3224v2.99479q0 4.54428-1.64713 7.02475l-0.71615-0.475261q0.64453-1.08724 0.98958-2.67578 0.35157-1.58854 0.35157-3.28125v-4.38802h11.0742v0.800782zm0.0586 9.76563v-0.846355h4.45964v-4.47266h-3.50912v-0.826824h3.50912v-2.81901h1.07422v2.81901h3.79557v0.826824h-3.79557v4.47266h4.47266v0.846355z"/>
  <path d="m-202.799 69.5047v-5.4948l-1.83594 0.14974-0.0781-0.77474 0.78776-0.03906q0.57292-0.833334 1.04167-1.56901-0.70313-0.748698-1.73177-1.88802l0.55338-0.488282 0.27344 0.273438q0.70312-1.11328 1.1263-2.07032l0.80729 0.325522q-0.60546 1.13932-1.42578 2.27865l0.82683 0.878908q0.76172-1.23698 1.08724-1.95964l0.78776 0.338542q-1.14584 2.03776-2.42839 3.83464 1.10026-0.05859 1.81641-0.117187l-0.28646-0.996095 0.70964-0.175781q0.40364 1.26302 0.59895 2.1224l-0.72265 0.188803q-0.0391-0.188803-0.11719-0.475261l-0.87891 0.08463v5.57292zm9.23829-0.625001h-2.50651v0.501303h-0.90495v-6.67969h1.40625l0.31901-1.39974h-1.98568v-0.722656h4.03647v-1.16537h-6.02214v1.36068h-0.77474v-2.10938h3.22265v-1.03516h0.95053v1.03516h3.41146v1.91406h0.20833v0.722656h-2.14193q-0.28646 0.989585-0.42969 1.39974h2.14844v6.65365h-0.9375zm-2.50651-3.59375h2.50651v-1.90104h-2.50651zm2.50651 0.709636h-2.50651v2.16146h2.50651zm-5.42969 3.46354v-5.39063q-0.18229 0.351563-0.57943 0.970053l-0.55989-0.338542q1.26953-2.08985 1.73828-4.57032l0.88542 0.162761q-0.36459 1.54948-0.98308 3.00782h0.3711v6.15886zm-1.84896-1.95313-0.36458-2.35677 0.77474-0.09115 0.36458 2.32422zm-3.20964 1.0026-0.76172-0.16276q0.52735-2.21354 0.57292-3.26172l0.8138 0.05208q-0.0521 0.722657-0.2539 1.82943-0.20183 1.10026-0.3711 1.54297z"/>
 </g>
 <g transform="translate(332.25 .843285)" aria-label="共等温膨張">
  <path d="m-265.799 146.665v-0.80078h2.9362v-3.3724h-2.40885v-0.80078h2.40885v-2.42188h1.03516v2.42188h4.03646v-2.39584h1.03516v2.39584h2.54558v0.80078h-2.54558v3.3724h3.00782v0.80078zm3.97136-0.80078h4.03646v-3.3724h-4.03646zm-3.59375 4.95443-0.48828-0.70963q1.18489-0.51433 2.32422-1.45183 1.13932-0.9375 1.5625-1.48437l0.89844 0.51432q-0.67709 0.82682-2.02474 1.8099-1.34115 0.98307-2.27214 1.32161zm10.9896-0.013q-0.85937-0.3776-1.94661-1.20443-1.08725-0.83333-1.9987-1.95312l0.80729-0.47526q1.59505 1.84245 3.77604 2.87109z"/>
  <path d="m-250.63 140.805q-0.69662 0.98959-1.36068 1.59506l-0.65104-0.46224q0.52734-0.51433 1.10026-1.34766 0.57943-0.83985 0.85286-1.47136l0.98308 0.16276q-0.14323 0.29948-0.4362 0.77474h3.32032v0.7487h-1.86199l0.52735 1.03516-0.8724 0.20182-0.58594-1.23698zm5.52084 0q-0.53386 0.67709-0.91146 1.03516l-0.69662-0.3776q1.02865-1.12631 1.60808-2.34376l0.96354 0.18881q-0.13021 0.24739-0.42318 0.74869h3.9323v0.7487h-2.20053l0.625 1.08724-0.92448 0.16276-0.6901-1.25zm-7.1159 7.12892v-0.78777h8.10548v-1.30859h-8.3073v-0.80078h5.2474v-1.27605h-4.44662v-0.79427h4.44662v-0.82682h1.04818v0.82682h4.89584v0.79427h-4.89584v1.27605h5.71615v0.80078h-2.66927v1.30859h2.27214v0.78777h-2.27214v1.84896q0 0.48828-0.3711 0.79427-0.36458 0.30599-0.8789 0.30599h-1.86198l-0.13672-0.92448h1.62109q0.59245 0 0.59245-0.50131v-1.52343zm3.52214 2.58463q-0.77474-0.98307-1.69922-1.84896l0.82032-0.52083q0.83333 0.75521 1.76432 1.83594z"/>
  <path d="m-236.646 141.652q-1.05469-0.95703-2.10938-1.75131l0.68359-0.68359q1.45183 1.04818 2.10938 1.66016zm1.42578 2.7474v-4.9349h7.10287v4.9349zm0.98307-2.85808h5.15626v-1.30208h-5.15626zm5.15626 0.7487h-5.15626v1.32161h5.15626zm-8.43751 2.47396q-0.90495-0.86589-2.13542-1.73828l0.65755-0.73568q1.26303 0.90495 2.16146 1.67318zm1.00911 5.8073v-0.81381h0.82683v-4.21224h8.13803v4.21224h0.76172v0.81381zm1.84896-0.81381h1.38672v-3.4375h-1.38672zm2.33725 0h1.36067v-3.4375h-1.36067zm2.31771 0h1.4388v-3.4375h-1.4388zm-8.50261 0.80079-0.8724-0.59896q0.53385-0.65105 1.24349-2.01172 0.71615-1.36719 1.05469-2.3112l0.87239 0.32552q-0.23437 0.83984-0.94401 2.24609-0.70963 1.40625-1.35416 2.35027z"/>
  <path d="m-221.34 142.83v-0.70312h1.48438v-1.17188h-1.82292v-0.72265h1.82292v-1.07422h0.97656v1.07422h1.82292v0.72265h-1.82292v1.17188h1.45834v0.70312zm4.84376-0.1302-0.5599-0.67058q1.77083-1.36068 2.59766-2.67578l0.85937 0.44922q-0.50781 0.73568-1.35416 1.56901-0.83985 0.83333-1.54297 1.32813zm-6.52345 3.3138h-1.46484q-0.18229 3.1836-1.1849 4.8698l-0.69661-0.37761q0.43619-0.85937 0.71614-2.38281t0.27995-3.08594v-5.56641h3.2487v10.5274q0 0.36458-0.27995 0.59245-0.27995 0.22786-0.74219 0.22786h-1.03515l-0.10417-0.78776h0.80078q0.46224 0 0.46224-0.39713zm-1.42578-3.65886h1.42578v-2.1875h-1.42578zm-0.013 2.96876h1.4388v-2.25912h-1.42578v1.62109q0 0.13672-0.013 0.63803zm7.94922 1.10026-0.54687-0.625q0.5599-0.40365 1.60156-1.45183 1.04818-1.05469 1.38021-1.63411l0.80078 0.5013q-0.54036 0.78776-1.54297 1.76432-1.0026 0.97006-1.69271 1.44532zm-4.80469 0.0976v-2.74739h3.83464v2.74739zm2.95573-2.12239h-2.09635v1.47786h2.09635zm1.61459 6.44531-0.58594-0.625q1.00912-0.76172 1.90105-1.79036 0.89843-1.03516 1.35416-1.79037l0.82683 0.53386q-1.22396 2.01823-3.4961 3.67187zm-4.88282-0.37109-0.13672-0.78776 0.96355-0.11068-0.44271-2.35026 0.85286-0.13672 0.41667 2.36979 1.04167-0.14974 0.42318-2.28515 0.86588 0.12369-0.49479 2.03777q0.65104-0.10417 1.01563-0.17578l0.026 0.73567q-1.02865 0.29297-4.53126 0.72917z"/>
  <path d="m-207.811 150.91-0.1888-0.83334q0.48828-0.0326 1.07422-0.10416v-4.21876h-1.03516v-0.74869h1.03516v-5.42319h6.04167v0.71615h-5.07162v1.10026h4.67448v0.72266h-4.67448v0.98307h4.67448v0.71615h-4.67448v1.1849h5.5599v0.74869h-3.16407q0.3125 1.0612 0.83985 1.83594 0.97005-0.72265 1.52344-1.33463l0.70312 0.58593q-0.78776 0.6836-1.77083 1.34115 0.9375 1.15886 2.12891 1.9336l-0.64454 0.73567q-1.36718-0.89843-2.36328-2.2526-0.98958-1.36068-1.39323-2.84506h-1.41927v4.08204q1.25-0.1888 2.77344-0.46224l0.0391 0.77474q-1.7513 0.41667-4.66797 0.76172zm-3.43751-7.70183-0.0976 1.95964h2.7474q0 1.88802-0.0781 3.03385-0.0716 1.14584-0.13672 1.51042-0.0586 0.35807-0.26692 0.59896-0.20183 0.24089-0.52735 0.39714t-0.59245 0.17578q-0.26692 0.026-1.62109 0.026l-0.1237-0.91146h1.19792q0.41015 0 0.65104-0.16276 0.2474-0.16927 0.3125-0.44922t0.11719-1.04167q0.0521-0.76172 0.0521-1.70573 0-0.54036-0.013-0.76172h-1.82292v0.35156l-0.89844 0.013 0.17578-3.75001h2.64975v-2.16797h-2.78646v-0.74219h3.75651v3.62631z"/>
 </g>
 <g>
  <path d="m107.084 198.75v-16.7809l9.93567 3.24223-13.7922-17.917-13.7921 17.917 9.93569-3.24223v16.7809z" color="#000000" color-rendering="auto" dominant-baseline="auto" fill="#458547" image-rendering="auto" shape-rendering="auto" solid-color="#000000" stroke-width=".999999" style="font-feature-settings:normal;font-variant-alternates:normal;font-variant-caps:normal;font-variant-ligatures:normal;font-variant-numeric:normal;font-variant-position:normal;isolation:auto;mix-blend-mode:normal;shape-padding:0;text-decoration-color:#000000;text-decoration-line:none;text-decoration-style:solid;text-indent:0;text-orientation:mixed;text-transform:none;white-space:normal"/>
  <path d="m107.084 41.0089v-16.7809l9.93567 3.24223-13.7922-17.917-13.7921 17.917 9.93569-3.24223v16.7809z" color="#000000" color-rendering="auto" dominant-baseline="auto" fill="#458547" image-rendering="auto" shape-rendering="auto" solid-color="#000000" stroke-width=".999999" style="font-feature-settings:normal;font-variant-alternates:normal;font-variant-caps:normal;font-variant-ligatures:normal;font-variant-numeric:normal;font-variant-position:normal;isolation:auto;mix-blend-mode:normal;shape-padding:0;text-decoration-color:#000000;text-decoration-line:none;text-decoration-style:solid;text-indent:0;text-orientation:mixed;text-transform:none;white-space:normal"/>
  <g transform="matrix(.8 0 0 .8 596.75 187.91)" fill="#008000" stroke-width="1.25" style="font-variant-east_asian:normal">
   <path d="m-586.485 10.4596c2.96489-1.12857 5.77675-4.53343 5.77675-8.22516 0-3.07967-2.02761-5.14549-4.87771-5.14549-4.13171 0-8.33995 4.34211-8.33995 8.79897 0 3.1753 2.14239 5.10728 4.89687 5.10728 0.47819 0 1.12857-0.07672 1.87453-0.286867-0.0763 1.18594-0.0763 1.22423-0.0763 1.47288 0 0.612095 0 2.1041 1.58767 2.1041 2.27626 0 3.19442-3.50049 3.19442-3.71089 0-0.133796-0.1338-0.191245-0.21052-0.191245-0.15307 0-0.19125 0.09562-0.22942 0.21052-0.4591 1.35814-1.56854 1.83632-2.23805 1.83632-0.87987 0-1.16682-0.516435-1.3581-1.97019zm-3.61523-0.153071c-1.49201-0.592971-2.14235-2.08498-2.14235-3.80652 0-1.31989 0.49731-4.03608 1.95106-6.10194 1.39635-1.95111 3.19443-2.83098 4.59081-2.83098 1.91278 0 3.30917 1.49201 3.30917 4.05521 0 1.91282-0.97554 6.38884-4.18908 8.18688-0.0956-0.669468-0.28687-2.06585-1.68329-2.06585-1.01382 0-1.95111 0.95641-1.95111 1.95111 0 0.382564 0.1149 0.59297 0.1149 0.612095zm1.18594 0.210519c-0.26797 0-0.87988 0-0.87988-0.822501 0-0.765128 0.72688-1.53026 1.53026-1.53026s1.16682 0.459062 1.16682 1.62588c0 0.286867-0.0189 0.306142-0.21052 0.382564-0.49735 0.21052-1.0712 0.344315-1.6068 0.344315z" style="font-variant-east_asian:normal"/>
   <path d="m-571.08 9.91912h-0.45524c-0.1474 1.31222-0.34809 3.0395-2.87883 3.0395h-1.33897c-0.6293 0-0.64267-0.106961-0.64267-0.522218v-7.04304c0-0.441827 0-0.615912 1.25862-0.615912h0.46862v-0.482041c-0.2812 0.015118-1.99506 0.053669-2.34319 0.053669-0.50881 0-2.02186-0.053669-2.03524-0.053669v0.482041h0.32126c1.03101 0 1.05781 0.133795 1.05781 0.602533v6.97611c0 0.455244-0.0265 0.602533-1.05781 0.602533h-0.32126v0.482041h7.56522z" style="font-variant-east_asian:normal"/>
  </g>
  <g transform="matrix(.8 0 0 .8 596.025 88.64)" fill="#008000" stroke-width="1.25" style="font-variant-east_asian:normal">
   <path d="m-586.482-80.1354c2.96489-1.12857 5.77675-4.53343 5.77675-8.22516 0-3.07967-2.02761-5.14549-4.87771-5.14549-4.13171 0-8.33995 4.34211-8.33995 8.79897 0 3.1753 2.14239 5.10728 4.89687 5.10728 0.47819 0 1.12853-0.07672 1.87454-0.286867-0.0763 1.18594-0.0763 1.22423-0.0763 1.47288 0 0.612095 0 2.1041 1.58767 2.1041 2.27626 0 3.19438-3.50049 3.19438-3.71089 0-0.133796-0.1338-0.191245-0.21052-0.191245-0.15307 0-0.19124 0.09562-0.22942 0.21052-0.45906 1.35814-1.5685 1.83632-2.23801 1.83632-0.87987 0-1.16681-0.516435-1.3581-1.97019zm-3.61523-0.153071c-1.49201-0.592971-2.14239-2.08498-2.14239-3.80652 0-1.31989 0.49735-4.03608 1.95111-6.10194 1.39634-1.95111 3.19442-2.83098 4.59076-2.83098 1.91282 0 3.30921 1.49201 3.30921 4.05521 0 1.91282-0.97553 6.38884-4.18908 8.18688-0.0956-0.669468-0.28687-2.06585-1.68333-2.06585-1.01378 0-1.95107 0.95641-1.95107 1.95111 0 0.382564 0.1149 0.59297 0.1149 0.612095zm1.18594 0.210519c-0.26797 0-0.87991 0-0.87991-0.822501 0-0.765128 0.72688-1.53026 1.53025-1.53026 0.80338 0 1.16686 0.459062 1.16686 1.62588 0 0.286867-0.0189 0.306142-0.21052 0.382564-0.49735 0.21052-1.0712 0.344315-1.60679 0.344315z" style="font-variant-east_asian:normal"/>
   <path d="m-570.65-85.2151c0-0.455244 0.0265-0.602532 1.05778-0.602532h0.32126v-0.482042c-0.66947 0.02646-1.52644 0.05367-2.00844 0.05367-0.49542 0-1.35239-0.02646-2.02186-0.05367v0.482042h0.32126c1.03102 0 1.05781 0.133795 1.05781 0.602532v3.06626h-4.4722v-3.06626c0-0.455244 0.0265-0.602532 1.05778-0.602532h0.32126v-0.482042c-0.66947 0.02646-1.52644 0.05367-2.00848 0.05367-0.49542 0-1.35236-0.02646-2.02186-0.05367v0.482042h0.32126c1.03101 0 1.05777 0.133795 1.05777 0.602532v6.97611c0 0.455244-0.0264 0.602532-1.05777 0.602532h-0.32126v0.482041c0.6695-0.02646 1.52644-0.05367 2.00848-0.05367 0.49542 0 1.35239 0.02646 2.02186 0.05367v-0.482041h-0.32126c-1.03098 0-1.05778-0.133795-1.05778-0.602532v-3.42781h4.4722v3.42781c0 0.455244-0.0265 0.602532-1.05781 0.602532h-0.32126v0.482041c0.66947-0.02646 1.52644-0.05367 2.00844-0.05367 0.49542 0 1.35239 0.02646 2.02186 0.05367v-0.482041h-0.32126c-1.03102 0-1.05778-0.133795-1.05778-0.602532z" style="font-variant-east_asian:normal"/>
  </g>
 </g>
</svg>
