<?xml version="1.0" encoding="UTF-8"?>
<svg width="223.677" height="168.751" version="1.1" viewBox="0 0 223.67719 168.75076" xmlns="http://www.w3.org/2000/svg"><g transform="translate(66.1243 -200.08)"><path d="m-65.6243 200.58v167.751h222.677v-167.751z" color="#000000" color-rendering="auto" dominant-baseline="auto" fill="#e5e5e5" image-rendering="auto" shape-rendering="auto" solid-color="#000000" style="font-feature-settings:normal;font-variant-alternates:normal;font-variant-caps:normal;font-variant-ligatures:normal;font-variant-numeric:normal;font-variant-position:normal;isolation:auto;mix-blend-mode:normal;shape-padding:0;text-decoration-color:#000000;text-decoration-line:none;text-decoration-style:solid;text-indent:0;text-orientation:mixed;text-transform:none;white-space:normal"/><path d="m49.6656 318.632h69.8117v-72.5349h-50.6302" fill="none" stroke="#555" stroke-dasharray="2.99999995, 2.99999995" stroke-linejoin="round" stroke-width="1.5"/><path d="m119.403 255.596c-0.0543 0-0.10785 4e-3 -0.16211 4e-3 -0.011 7e-5 -0.0222-7e-5 -0.0332 0v2e-3c-0.34838 3e-3 -0.69594 0.0113-1.04101 0.0274l-1.26563 4.49414a21.8774 21.8774 0 0 0 -2.87695 0.51953l-2.72851-3.76758c-0.33101 0.10759-0.65895 0.22356-0.98438 0.34375l-2e-3 -2e-3c-0.0165 6e-3 -0.0324 0.0134-0.0488 0.0195-0.0335 0.0125-0.0681 0.0225-0.10156 0.0352-0.13826 0.0521-0.27313 0.11143-0.41016 0.16601-0.18635 0.0736-0.37459 0.14288-0.55859 0.2207-0.0436 0.0184-0.0855 0.0399-0.12891 0.0586-0.31967 0.13755-0.63611 0.28015-0.94922 0.42969l0.63477 4.60546a21.8774 21.8774 0 0 0 -2.33789 1.50782l-3.91992-2.48047c-0.26584 0.22435-0.52643 0.4533-0.78321 0.6875-3e-3 2e-3 -5e-3 5e-3 -8e-3 8e-3 -0.0307 0.028-0.0632 0.0538-0.0937 0.082-0.1473 0.13605-0.28947 0.27832-0.43359 0.41797-0.10573 0.10176-0.21443 0.20076-0.31836 0.30469-0.0208 0.0208-0.0398 0.0435-0.0605 0.0644-0.0114 0.0114-0.0238 0.0217-0.0352 0.0332v2e-3c-0.24381 0.24664-0.48278 0.49801-0.71679 0.7539l2.31836 4.01172a21.8774 21.8774 0 0 0 -1.59375 2.2793l-4.57813-0.81641c-0.16177 0.30674-0.31646 0.6179-0.4668 0.93164-0.0205 0.0429-0.0442 0.0839-0.0644 0.12696-0.0789 0.16758-0.14947 0.33992-0.22461 0.50976-0.0665 0.14793-0.13792 0.29383-0.20117 0.44336-0.0174 0.0411-0.0317 0.0837-0.0488 0.125-3e-3 7e-3 -7e-3 0.0142-0.01 0.0215-0.13307 0.32082-0.26005 0.64384-0.38086 0.9707l3.64843 2.87109a21.8774 21.8774 0 0 0 -0.62695 2.86133l-4.54102 1.08398c-0.0298 0.34512-0.0513 0.69236-0.0683 1.04102h-2e-3c-1e-3 0.0233-8.7e-4 0.047-2e-3 0.0703-2e-3 0.0413-6e-3 0.0817-8e-3 0.12305-7e-3 0.17182-5e-3 0.34252-8e-3 0.51367-4e-3 0.17651-0.0137 0.35163-0.0137 0.5293 0 0.0413 4e-3 0.0818 4e-3 0.12305 1.1e-4 0.024-2e-3 0.0483-2e-3 0.0723l4e-3 2e-3c3e-3 0.34774 9e-3 0.69465 0.0254 1.03907l4.49414 1.26367a21.8774 21.8774 0 0 0 0.52149 2.88086l-3.76758 2.72851c0.10759 0.33095 0.22372 0.65895 0.34375 0.98438l-2e-3 2e-3c8e-3 0.0217 0.0173 0.0428 0.0254 0.0644 0.0103 0.0277 0.0189 0.0563 0.0293 0.084 0.0382 0.10143 0.0814 0.20016 0.1211 0.30078 0.0868 0.22349 0.17057 0.44787 0.26367 0.66797 0.15426 0.36471 0.32016 0.72206 0.49023 1.07812l4.60547-0.63476a21.8774 21.8774 0 0 0 1.50586 2.33594l-2.47851 3.92187c0.22343 0.26471 0.45407 0.52526 0.6875 0.78125v2e-3c0.0102 0.0112 0.021 0.022 0.0312 0.0332 0.0205 0.0224 0.0399 0.046 0.0605 0.0684 0.11449 0.12396 0.23463 0.24174 0.35157 0.36328 0.12338 0.12917 0.24293 0.26247 0.36914 0.38867 0.0215 0.0215 0.0448 0.0411 0.0664 0.0625 0.0101 0.0101 0.0191 0.0212 0.0293 0.0312h2e-3c0.24686 0.24408 0.49763 0.48438 0.75391 0.71875l4.01367-2.31836a21.8774 21.8774 0 0 0 2.2793 1.59375l-0.81641 4.57813c0.30674 0.16176 0.61791 0.31646 0.93164 0.46679 0.0429 0.0205 0.0839 0.0442 0.12696 0.0645 0.15548 0.0732 0.31521 0.13903 0.47265 0.20898 0.15973 0.0721 0.31692 0.14845 0.47852 0.2168 0.047 0.0199 0.0954 0.0371 0.14257 0.0566 2e-3 7.9e-4 4e-3 9.5e-4 6e-3 2e-3 0.32036 0.13285 0.64435 0.26022 0.97071 0.38086l2.87304-3.65039a21.8774 21.8774 0 0 0 2.85743 0.62695l1.08789 4.54492c0.34462 0.0298 0.69059 0.0495 1.03906 0.0664v2e-3c0.0214 1e-3 0.0431 9.6e-4 0.0644 2e-3 0.0433 2e-3 0.0856 6e-3 0.12891 8e-3 0.17201 7e-3 0.34261 5e-3 0.51367 8e-3 0.1766 4e-3 0.35183 0.0137 0.5293 0.0137 0.0413 0 0.0818-4e-3 0.12304-4e-3 0.024-1.1e-4 0.0483 2e-3 0.0723 2e-3v-4e-3c0.34848-3e-3 0.69557-9e-3 1.04102-0.0254l1.26562-4.49609a21.8774 21.8774 0 0 0 2.87695 -0.52148l2.72852 3.76953c0.33151-0.10779 0.66036-0.22154 0.98633-0.3418 8e-3 -3e-3 0.0169-7e-3 0.0254-0.01 0.0407-0.0151 0.0825-0.0277 0.12304-0.043 0.13514-0.0509 0.26645-0.11052 0.4004-0.16407 0.1896-0.0746 0.38128-0.14351 0.56836-0.22265 0.3643-0.15408 0.72439-0.32037 1.08007-0.49024l-0.63672-4.60742a21.8774 21.8774 0 0 0 2.33789 -1.50586l3.92188 2.48047c0.26536-0.22399 0.52659-0.45345 0.7832-0.6875 3e-3 -2e-3 5e-3 -5e-3 8e-3 -8e-3 0.0306-0.028 0.0633-0.0539 0.0937-0.082 0.1292-0.11931 0.25248-0.24504 0.3789-0.36719 0.12408-0.11871 0.25173-0.23414 0.37305-0.35547 0.0286-0.0286 0.0555-0.0591 0.084-0.0879l0.01-0.01c0.24421-0.24724 0.48414-0.49931 0.71875-0.75586l-2.32031-4.01367a21.8774 21.8774 0 0 0 1.59179 -2.27734l4.58008 0.81836c0.16198-0.30713 0.31638-0.61967 0.4668-0.9336h2e-3c4e-3 -8e-3 6e-3 -0.0158 0.01-0.0234 0.0167-0.035 0.0362-0.0684 0.0527-0.10352 0.0729-0.15483 0.13931-0.31391 0.20899-0.4707 0.0723-0.16029 0.14809-0.31804 0.21679-0.48047 0.015-0.0354 0.0282-0.0719 0.043-0.10742 6e-3 -0.0137 0.0119-0.0273 0.0176-0.041l-2e-3 -2e-3c0.13256-0.31976 0.26241-0.64106 0.38281-0.9668l-3.65234-2.875a21.8774 21.8774 0 0 0 0.62695 -2.85742l4.54492-1.08594c0.0297-0.34474 0.0514-0.69243 0.0684-1.04101h2e-3c1e-3 -0.0227 9.1e-4 -0.0457 2e-3 -0.0684 2e-3 -0.0419 6e-3 -0.0831 8e-3 -0.125 7e-3 -0.18248 5e-3 -0.3635 8e-3 -0.54492 4e-3 -0.16622 0.0117-0.33106 0.0117-0.49805 0-0.042-4e-3 -0.0831-4e-3 -0.125-1.1e-4 -0.0233 2e-3 -0.047 2e-3 -0.0703h-2e-3c-3e-3 -0.34849-9e-3 -0.69556-0.0254-1.04102l-4.49804-1.26562a21.8774 21.8774 0 0 0 -0.51954 -2.875l3.76954-2.73047c-0.10759-0.33095-0.22371-0.65894-0.34375-0.98438l2e-3 -2e-3c-8e-3 -0.0209-0.0157-0.0416-0.0234-0.0625-0.0106-0.0285-0.0205-0.0575-0.0312-0.0859-0.0477-0.12648-0.10236-0.24955-0.15234-0.375-0.0777-0.19825-0.15168-0.39821-0.23438-0.59375-0.0184-0.0435-0.0399-0.0855-0.0586-0.12891-0.13786-0.31973-0.28012-0.63797-0.42969-0.95117l-4.60742 0.63672a21.8774 21.8774 0 0 0 -1.50586 -2.33789l2.48047-3.92187c-0.22418-0.2656-0.45338-0.52651-0.6875-0.78321-2e-3 -3e-3 -5e-3 -5e-3 -8e-3 -8e-3 -0.028-0.0307-0.0538-0.0632-0.082-0.0937-0.11932-0.12919-0.24504-0.2525-0.36719-0.37891-0.11866-0.12403-0.23405-0.25161-0.35547-0.37304-0.0286-0.0287-0.0591-0.0555-0.0879-0.084l-0.01-0.01c-0.24725-0.24421-0.4993-0.48414-0.75586-0.71875l-4.01367 2.32031a21.8774 21.8774 0 0 0 -2.27734 -1.59375l0.8164-4.58008c-0.30695-0.16188-0.61766-0.31665-0.93164-0.46679-6e-3 -3e-3 -0.013-7e-3 -0.0195-0.01-0.0361-0.0172-0.0712-0.0357-0.10742-0.0527-0.15856-0.0746-0.3219-0.14145-0.48242-0.2129-0.15698-0.0704-0.31193-0.14573-0.4707-0.21289-0.0347-0.0147-0.0707-0.0265-0.10547-0.041-0.0145-6e-3 -0.0284-0.0135-0.043-0.0195l-2e-3 2e-3c-0.3203-0.13298-0.64237-0.2622-0.96875-0.38281l-2.87109 3.65039a21.8774 21.8774 0 0 0 -2.85937 -0.62696l-1.08399-4.54296c-0.34512-0.0298-0.69235-0.0511-1.04101-0.0684-7e-3 -3.3e-4 -0.0144 3.2e-4 -0.0215 0-0.0576-3e-3 -0.11412-9e-3 -0.17187-0.0117-0.17248-7e-3 -0.34381-5e-3 -0.51563-8e-3 -0.17585-4e-3 -0.35033-0.0137-0.52734-0.0137z" fill="#555"/><path transform="scale(-1,1)" d="m-106.907 281.83a12.5511 12.5511 0 0 1 -9.30265 12.1234 12.5511 12.5511 0 0 1 -14.1181 -5.84789 12.5511 12.5511 0 0 1 1.99461 -15.1505 12.5511 12.5511 0 0 1 15.1506 -1.99461" fill="none" stroke="#fff" stroke-linejoin="round" stroke-width="2.8"/><g><g><path transform="scale(-1,1)" d="m-105.453 275.44h-10.4682l5.2341-9.06572z" fill="#fff"/><path d="m27.8709 352.738h-80.19v-65.3492h80.19" fill="#fff"/><rect x="25.1554" y="288.764" width="5.57107" height="62.749" rx="3.88909" ry="3.88909" fill="#6563e1"/></g><path d="m58.9432 335.786c0.781066-1.24333 1.45056-1.29116 2.04035-1.32304 0.19128-0.0159 0.207213-0.28692 0.207213-0.30287 0-0.12746-0.07969-0.19128-0.207213-0.19128-0.414453 0-0.87672 0.0479-1.30711 0.0479-0.526027 0-1.06799-0.0479-1.57808-0.0479-0.09564 0-0.302867 0-0.302867 0.30287 0 0.17535 0.143467 0.19128 0.255053 0.19128 0.430387 0.0319 0.73324 0.19128 0.73324 0.52603 0 0.2391-0.239093 0.58978-0.239093 0.60573l-4.89366 7.77883-1.08393-8.43238c0-0.27098 0.36663-0.47821 1.09986-0.47821 0.22318 0 0.39851 0 0.39851-0.3188 0-0.14347-0.12752-0.17535-0.22316-0.17535-0.6376 0-1.32304 0.0479-1.97658 0.0479-0.28692 0-0.58979-0.016-0.87671-0.016s-0.58979-0.0319-0.86078-0.0319c-0.11158 0-0.30286 0-0.30286 0.30287 0 0.19128 0.14346 0.19128 0.3985 0.19128 0.89266 0 0.90859 0.14347 0.95642 0.54197l1.25928 9.83511c0.0478 0.31881 0.11157 0.36663 0.3188 0.36663 0.25504 0 0.3188-0.0797 0.44633-0.28692z" fill="#dd3838" stroke-linejoin="round" stroke-miterlimit="1e5" stroke-width="1.33333"/><path d="m20.6531 332.955-8.6165 6.6328 8.6165 6.63281-1.55923-4.77818h17.1713l-1.55923 4.77818 8.6165-6.63281-8.6165-6.6328 1.55923 4.77818h-17.1713z" color="#000000" color-rendering="auto" dominant-baseline="auto" fill="#f00" image-rendering="auto" shape-rendering="auto" solid-color="#000000" style="font-feature-settings:normal;font-variant-alternates:normal;font-variant-caps:normal;font-variant-ligatures:normal;font-variant-numeric:normal;font-variant-position:normal;isolation:auto;mix-blend-mode:normal;shape-padding:0;text-decoration-color:#000000;text-decoration-line:none;text-decoration-style:solid;text-indent:0;text-orientation:mixed;text-transform:none;white-space:normal"/></g><path d="m29.3092 317.564h42.0728" fill="none" stroke="#6261dd" stroke-linejoin="round" stroke-width="10"/><g><path d="m27.8709 281.272h-80.19v-65.3492h80.19" fill="#fff"/><rect x="25.1554" y="217.297" width="5.57107" height="62.749" rx="3.88909" ry="3.88909" fill="#6563e1"/><path d="m58.9432 264.319c0.781066-1.24333 1.45056-1.29116 2.04035-1.32304 0.19128-0.0159 0.207213-0.28692 0.207213-0.30287 0-0.12746-0.07969-0.19128-0.207213-0.19128-0.414453 0-0.87672 0.0479-1.30711 0.0479-0.526027 0-1.06799-0.0479-1.57808-0.0479-0.09564 0-0.302867 0-0.302867 0.30287 0 0.17535 0.143467 0.19128 0.255053 0.19128 0.430387 0.0319 0.73324 0.19128 0.73324 0.52603 0 0.2391-0.239093 0.58978-0.239093 0.60573l-4.89366 7.77883-1.08393-8.43238c0-0.27098 0.36663-0.47821 1.09986-0.47821 0.22318 0 0.39851 0 0.39851-0.3188 0-0.14347-0.12752-0.17535-0.22316-0.17535-0.6376 0-1.32304 0.0479-1.97658 0.0479-0.28692 0-0.58979-0.016-0.87671-0.016s-0.58979-0.0319-0.86078-0.0319c-0.11158 0-0.30286 0-0.30286 0.30287 0 0.19128 0.14346 0.19128 0.3985 0.19128 0.89266 0 0.90859 0.14347 0.95642 0.54197l1.25928 9.83511c0.0478 0.31881 0.11157 0.36663 0.3188 0.36663 0.25504 0 0.3188-0.0797 0.44633-0.28692z" fill="#dd3838" stroke-linejoin="round" stroke-miterlimit="1e5" stroke-width="1.33333"/><path d="m20.6531 261.488-8.6165 6.6328 8.6165 6.63281-1.55923-4.77818h17.1713l-1.55923 4.77818 8.6165-6.63281-8.6165-6.6328 1.55923 4.77818h-17.1713z" color="#000000" color-rendering="auto" dominant-baseline="auto" fill="#f00" image-rendering="auto" shape-rendering="auto" solid-color="#000000" style="font-feature-settings:normal;font-variant-alternates:normal;font-variant-caps:normal;font-variant-ligatures:normal;font-variant-numeric:normal;font-variant-position:normal;isolation:auto;mix-blend-mode:normal;shape-padding:0;text-decoration-color:#000000;text-decoration-line:none;text-decoration-style:solid;text-indent:0;text-orientation:mixed;text-transform:none;white-space:normal"/></g><g><g stroke-linejoin="round"><path d="m29.3092 246.097h42.0728" fill="none" stroke="#6261dd" stroke-width="10"/><g stroke-miterlimit="1e5" stroke-width="1.33333"><path d="m-40.4976 223.443c0.13389-0.53559 0.2104-0.65036 0.43996-0.70775 0.17214-0.0382 0.80337-0.0382 1.20507-0.0382 1.93195 0 2.79273 0.0765 2.79273 1.56853 0 0.28691-0.0765 1.03291-0.15304 1.53026-0.0191 0.0765-0.0574 0.30604-0.0574 0.36344 0 0.11472 0.0574 0.24865 0.22953 0.24865 0.21042 0 0.24868-0.15296 0.28693-0.43993l0.51647-3.32832c0.0191-0.0765 0.0382-0.26781 0.0382-0.32519 0-0.21041-0.19128-0.21041-0.51646-0.21041h-10.6162c-0.45907 0-0.4782 0.0192-0.61209 0.38256l-1.14771 3.36657c-0.0191 0.0382-0.11477 0.30607-0.11477 0.34432 0 0.11472 0.0957 0.2104 0.22954 0.2104 0.19129 0 0.21042-0.0957 0.32519-0.40168 1.03292-2.96489 1.53026-3.3092 4.36124-3.3092h0.746c0.5356 0 0.5356 0.0765 0.5356 0.22954 0 0.11472-0.0574 0.34432-0.0765 0.40169l-2.56318 10.2145c-0.17216 0.70775-0.22955 0.91816-2.27627 0.91816-0.68862 0-0.80339 0-0.80339 0.36344 0 0.22954 0.21041 0.22954 0.32518 0.22954 0.51646 0 1.05206-0.0382 1.56851-0.0382 0.5356 0 1.09032-0.0192 1.62591-0.0192 0.53558 0 1.07118 0.0192 1.58764 0.0192 0.55472 0 1.12858 0.0382 1.66417 0.0382 0.19128 0 0.42083 0 0.42083-0.38256 0-0.21042-0.15303-0.21042-0.65037-0.21042-0.47821 0-0.72688 0-1.22421-0.0382-0.55472-0.0574-0.70774-0.11472-0.70774-0.42081 0-0.0192 0-0.11472 0.0765-0.4017z"/><path d="m-33.0438 229.407c0-0.36152-0.0268-0.37491-0.4017-0.37491-0.85694 0.84355-2.07542 0.85694-2.6244 0.85694v0.48204c0.32136 0 1.20507 0 1.94152-0.37492v6.82879c0 0.44187 0 0.61593-1.33897 0.61593h-0.50882v0.48204c0.24101-0.0128 1.88795-0.0536 2.38338-0.0536 0.41508 0 2.1022 0.0402 2.39678 0.0536v-0.48204h-0.50882c-1.33897 0-1.33897-0.17406-1.33897-0.61593z"/><path d="m-25.064 235.034c0-1.26247-0.47821-2.00847-1.22421-2.00847-0.63123 0-1.0138 0.47821-1.0138 1.01381 0 0.51646 0.38257 1.01379 1.0138 1.01379 0.22954 0 0.47821-0.0765 0.66949-0.24867 0.0574-0.0382 0.0765-0.0574 0.0956-0.0574s0.0383 0.0192 0.0383 0.28691c0 1.41551-0.66951 2.5632-1.30074 3.19443-0.2104 0.2104-0.2104 0.24868-0.2104 0.30605 0 0.13392 0.0956 0.21042 0.19128 0.21042 0.21042 0 1.74067-1.47288 1.74067-3.7109z"/><path d="m-8.45281 224.169c0.93728-1.492 1.74067-1.54939 2.44842-1.58765 0.22953-0.019 0.24865-0.34431 0.24865-0.36344 0-0.15296-0.0956-0.22954-0.24865-0.22954-0.49735 0-1.05207 0.0574-1.56853 0.0574-0.63123 0-1.28159-0.0574-1.8937-0.0574-0.11477 0-0.36344 0-0.36344 0.36344 0 0.21042 0.17216 0.22954 0.30607 0.22954 0.51646 0.0382 0.87988 0.22953 0.87988 0.63123 0 0.28693-0.28691 0.70774-0.28691 0.72688l-5.87238 9.33459-1.30072-10.1188c0-0.32518 0.43995-0.57385 1.31984-0.57385 0.2678 0 0.4782 0 0.4782-0.38256 0-0.17216-0.15302-0.21042-0.26779-0.21042-0.76512 0-1.58765 0.0574-2.3719 0.0574-0.34431 0-0.70775-0.0192-1.05205-0.0192s-0.70774-0.0382-1.03293-0.0382c-0.1339 0-0.36344 0-0.36344 0.36344 0 0.22954 0.17216 0.22954 0.47821 0.22954 1.07118 0 1.0903 0.17216 1.1477 0.65037l1.51113 11.8021c0.0574 0.38257 0.13389 0.43995 0.38256 0.43995 0.30605 0 0.38256-0.0957 0.5356-0.34431z"/><path d="m-4.8646 229.407c0-0.36152-0.0268-0.37491-0.4017-0.37491-0.85694 0.84355-2.07542 0.85694-2.6244 0.85694v0.48204c0.32136 0 1.20507 0 1.94152-0.37492v6.82879c0 0.44187 0 0.61593-1.33897 0.61593h-0.50882v0.48204c0.24101-0.0128 1.88795-0.0536 2.38338-0.0536 0.41508 0 2.1022 0.0402 2.39678 0.0536v-0.48204h-0.50882c-1.33897 0-1.33897-0.17406-1.33897-0.61593z"/><path d="m-40.4976 333.619c0.13389-0.53559 0.2104-0.65035 0.43995-0.70775 0.17215-0.0382 0.80338-0.0382 1.20507-0.0382 1.93196 0 2.79274 0.0765 2.79274 1.56853 0 0.28691-0.0765 1.03291-0.15304 1.53026-0.0191 0.0765-0.0574 0.30604-0.0574 0.36344 0 0.11472 0.0574 0.24865 0.22954 0.24865 0.21042 0 0.24867-0.15296 0.28693-0.43993l0.51646-3.32832c0.0191-0.0765 0.0383-0.26781 0.0383-0.32519 0-0.21041-0.19128-0.21041-0.51647-0.21041h-10.6162c-0.45907 0-0.47821 0.0192-0.6121 0.38256l-1.1477 3.36657c-0.0191 0.0382-0.11477 0.30607-0.11477 0.34432 0 0.11472 0.0956 0.2104 0.22954 0.2104 0.19128 0 0.21041-0.0957 0.32518-0.40168 1.03292-2.96489 1.53027-3.3092 4.36124-3.3092h0.746c0.5356 0 0.5356 0.0765 0.5356 0.22954 0 0.11472-0.0574 0.34432-0.0765 0.40169l-2.56318 10.2145c-0.17216 0.70775-0.22956 0.91816-2.27628 0.91816-0.68861 0-0.80338 0-0.80338 0.36344 0 0.22954 0.21041 0.22954 0.32518 0.22954 0.51646 0 1.05206-0.0382 1.56851-0.0382 0.5356 0 1.09032-0.0192 1.6259-0.0192 0.53559 0 1.07119 0.0192 1.58765 0.0192 0.55472 0 1.12858 0.0382 1.66416 0.0382 0.19128 0 0.42083 0 0.42083-0.38256 0-0.21042-0.15302-0.21042-0.65036-0.21042-0.47821 0-0.72689 0-1.22421-0.0382-0.55472-0.0574-0.70775-0.11472-0.70775-0.42081 0-0.0192 0-0.11472 0.0765-0.4017z"/><path d="m-30.7675 345.662h-0.455248c-0.04018 0.29458-0.174064 1.08458-0.348144 1.21848-0.107104 0.0803-1.13813 0.0803-1.32558 0.0803h-2.46371c1.40592-1.24525 1.87456-1.62017 2.67795-2.24948 0.990846-0.79001 1.91473-1.62016 1.91473-2.8922 0-1.62016-1.41931-2.611-3.1332-2.611-1.66033 0-2.78508 1.16491-2.78508 2.39676 0 0.68288 0.57576 0.74983 0.70966 0.74983 0.32136 0 0.70966-0.22762 0.70966-0.70965 0-0.24102-0.0937-0.70966-0.79-0.70966 0.41509-0.95068 1.32559-1.24525 1.95492-1.24525 1.33897 0 2.03524 1.0444 2.03524 2.12897 0 1.16492-0.830174 2.0888-1.25864 2.57083l-3.22694 3.18677c-0.1339 0.12048-0.1339 0.14736-0.1339 0.52221h5.51659z"/><path d="m-25.0655 345.211c0-1.26247-0.478208-2.00847-1.22421-2.00847-0.631232 0-1.01381 0.47821-1.01381 1.01381 0 0.51646 0.382576 1.01379 1.01381 1.01379 0.229536 0 0.478208-0.0765 0.669488-0.24867 0.05738-0.0382 0.07651-0.0574 0.09565-0.0574s0.03826 0.0192 0.03826 0.28691c0 1.41551-0.669504 2.5632-1.30074 3.19443-0.2104 0.2104-0.2104 0.24868-0.2104 0.30605 0 0.13392 0.09563 0.21042 0.19128 0.21042 0.210416 0 1.74067-1.47288 1.74067-3.7109z"/><path d="m-8.45439 334.346c0.93728-1.492 1.74067-1.5494 2.44842-1.58765 0.229536-0.019 0.248656-0.34431 0.248656-0.36344 0-0.15296-0.09563-0.22954-0.248656-0.22954-0.497344 0-1.05206 0.0574-1.56853 0.0574-0.631232 0-1.28158-0.0574-1.8937-0.0574-0.114768 0-0.36344 0-0.36344 0.36344 0 0.21042 0.17216 0.22954 0.306064 0.22954 0.516464 0.0382 0.879888 0.22953 0.879888 0.63123 0 0.28693-0.286912 0.70774-0.286912 0.72688l-5.87238 9.33459-1.30072-10.1188c0-0.32519 0.439952-0.57386 1.31984-0.57386 0.267808 0 0.478208 0 0.478208-0.38256 0-0.17216-0.153024-0.21042-0.267792-0.21042-0.76512 0-1.58765 0.0574-2.3719 0.0574-0.344304 0-0.707744-0.0192-1.05205-0.0192s-0.707744-0.0382-1.03293-0.0382c-0.133899 0-0.363438 0-0.363438 0.36344 0 0.22954 0.172155 0.22954 0.478208 0.22954 1.07119 0 1.09031 0.17216 1.1477 0.65037l1.51114 11.8021c0.05738 0.38257 0.133888 0.43995 0.38256 0.43995 0.306048 0 0.38256-0.0957 0.5356-0.34431z"/><path d="m-2.58832 345.662h-0.455248c-0.04018 0.29458-0.174064 1.08458-0.348144 1.21848-0.107104 0.0803-1.13813 0.0803-1.32558 0.0803h-2.46371c1.40592-1.24525 1.87456-1.62017 2.67795-2.24948 0.990848-0.79001 1.91474-1.62016 1.91474-2.8922 0-1.62016-1.41931-2.611-3.1332-2.611-1.66034 0-2.78508 1.16491-2.78508 2.39676 0 0.68288 0.57576 0.74983 0.709659 0.74983 0.32136 0 0.709664-0.22762 0.709664-0.70965 0-0.24102-0.09373-0.70966-0.790003-0.70966 0.415091-0.95068 1.32559-1.24525 1.95492-1.24525 1.33898 0 2.03525 1.0444 2.03525 2.12897 0 1.16492-0.830176 2.0888-1.25864 2.57083l-3.22695 3.18677c-0.133897 0.12048-0.133897 0.14736-0.133897 0.52221h5.51659z"/></g></g><path d="m40.2945 353.138h-92.717v-65.899h92.717" fill="none" stroke="#555" stroke-width="3.56749"/><path d="m40.2945 281.672h-92.717v-65.899h92.717" fill="none" stroke="#555" stroke-width="3.56749"/></g><path d="m-29.9222 291.333 6.6328 8.6165 6.63281-8.6165-4.77818 1.55923v-17.1713l4.77818 1.55923-6.63281-8.6165-6.6328 8.6165 4.77818-1.55923v17.1713z" color="#000000" color-rendering="auto" dominant-baseline="auto" fill="#f00" image-rendering="auto" shape-rendering="auto" solid-color="#000000" style="font-feature-settings:normal;font-variant-alternates:normal;font-variant-caps:normal;font-variant-ligatures:normal;font-variant-numeric:normal;font-variant-position:normal;isolation:auto;mix-blend-mode:normal;shape-padding:0;text-decoration-color:#000000;text-decoration-line:none;text-decoration-style:solid;text-indent:0;text-orientation:mixed;text-transform:none;white-space:normal"/><path d="m-22.596 314.293c2.47073-0.94048 4.81395-3.77784 4.81395-6.8543 0-2.56638-1.68965-4.28792-4.06475-4.28792-3.44309 0-6.94994 3.61843-6.94994 7.3325 0 2.64608 1.7853 4.25604 4.0807 4.25604 0.398507 0 0.940467-0.0637 1.56213-0.2391-0.06376 0.9883-0.06376 1.02018-0.06376 1.22739 0 0.51009 0 1.75343 1.32304 1.75343 1.89689 0 2.66201-2.91706 2.66201-3.0924 0-0.1116-0.111574-0.1594-0.175334-0.1594-0.12752 0-0.1594 0.0797-0.19128 0.17534-0.382573 1.13175-1.30711 1.53026-1.86501 1.53026-0.733253 0-0.972346-0.43039-1.13176-1.64184zm-3.01269-0.12747c-1.24335-0.49415-1.78531-1.73749-1.78531-3.17211 0-1.09988 0.41444-3.36338 1.62591-5.08493 1.16363-1.62591 2.66201-2.35915 3.82565-2.35915 1.59401 0 2.75765 1.24334 2.75765 3.37932 0 1.59403-0.812946 5.32404-3.49091 6.82242-0.07971-0.55791-0.239107-1.72154-1.40275-1.72154-0.844826 0-1.62589 0.797-1.62589 1.6259 0 0.31881 0.09564 0.49414 0.09564 0.51009zm0.988293 0.17533c-0.223173 0-0.733253 0-0.733253-0.68542 0-0.6376 0.605733-1.27522 1.27521-1.27522s0.97236 0.38256 0.97236 1.35492c0 0.23911-0.01595 0.25504-0.175346 0.3188-0.41444 0.17535-0.892654 0.28692-1.33897 0.28692z" fill="#dd3838" stroke-linejoin="round" stroke-miterlimit="1e5" stroke-width="1.33333"/></g></svg>
