<?xml version="1.0" encoding="UTF-8"?>
<svg width="201.755" height="119.91" version="1.1" viewBox="0 0 201.75494 119.91049" xmlns="http://www.w3.org/2000/svg"><defs><marker id="marker7753-6" overflow="visible" orient="auto"><path transform="matrix(-.4 0 0 -.4 -4 0)" d="m0 0 5-5-17.5 5 17.5 5z" fill-rule="evenodd" stroke="#000" stroke-width="1pt"/></marker><marker id="marker2727" overflow="visible" orient="auto"><path transform="matrix(-.4 0 0 -.4 -4 0)" d="m0 0 5-5-17.5 5 17.5 5z" fill="#f00" fill-rule="evenodd" stroke="#f00" stroke-width="1pt"/></marker><marker id="marker2543" overflow="visible" orient="auto"><path transform="matrix(-.4 0 0 -.4 -4 0)" d="m0 0 5-5-17.5 5 17.5 5z" fill-rule="evenodd" stroke="#000" stroke-width="1pt"/></marker></defs><g transform="translate(60.8775 -250.214)"><g fill="#0000f8" stroke-linejoin="round" stroke-miterlimit="1e5" stroke-width="1.33333"><path d="m79.0551 315.686c-2.16103 1.17315-3.30965 4.05531-2.71061 6.29095 0.475274 1.77375 2.01423 2.78722 3.75101 2.32185 2.16175-0.57924 2.91803-3.89097 2.23483-6.44072-0.450519-1.68136-1.43712-2.40715-2.28811-3.07026-0.887935-0.65324-2.34936-1.74686-2.5672-2.55983-0.108919-0.40649 0.141806-0.94894 0.788484-1.12222 0.554287-0.14852 0.988184-7e-3 1.44551 0.14737 0.428931 0.12269 0.862819 0.26388 1.13997 0.18962 0.461915-0.12377 0.62024-0.64147 0.541026-0.9371-0.108916-0.40648-0.419401-0.3827-1.12415-0.35228-1.01523 0.0542-1.2739 0.12352-1.56954 0.20274-1.44116 0.38615-1.89344 1.35886-1.59639 2.46746 0.267339 0.99772 1.0804 1.88884 1.95517 2.86242zm0.33065 0.34709c0.689645 0.72612 1.51127 1.57534 1.86773 2.90564 0.326754 1.21946 0.451418 4.49316-1.2669 4.95359-1.0162 0.27229-1.98167-0.30075-2.35793-1.70496-0.311898-1.16402-0.559008-4.82078 1.7571-6.15427z"/><path d="m97.7617 315.168c-3.67e-4 -0.29694 0.01313-0.32036 0.137558-0.37349 0.211796-0.0964 0.470471-0.16572 0.692199-0.22513 0.461916-0.12377 0.757528-0.20298 0.613956-0.7388-0.02474-0.0923-0.144561-0.31773-0.47712-0.22862-0.406481 0.10892-0.821527 0.25978-1.24649 0.37365-0.406481 0.10891-0.826497 0.24123-1.23299 0.35015-0.739049 0.19803-2.56461 0.62776-3.30367 0.82579-0.221718 0.0594-0.572774 0.15347-0.429202 0.68929 0.08912 0.33259 0.421704 0.24347 0.717326 0.16426l0.683624-0.18318c0.20325-0.0545 1.21945-0.32675 1.24916-0.21589 0.0049 0.0184 0.01486 0.0554 0.0043 0.53352 0.0162 0.13427 0.03741 1.39599 0.02389 1.41943 0.02254 1.34056-1.32685 2.217-2.49088 2.5289-1.07164 0.28715-2.23964 0.36247-3.29615-0.10694-1.19708-0.55058-1.53868-1.82546-1.6476-2.23195-0.227735-0.84991-0.725916-4.26116 0.526666-6.75533 0.74984-1.48811 2.31565-2.7394 4.20026-3.24437 2.32804-0.6238 3.67664 0.93573 4.0826 2.4508 0.05446 0.20324 0.07328 0.49525 0.122784 0.68001 0.07426 0.27715 0.31447 0.21279 0.573135 0.14348 0.406471-0.10891 0.420016-0.13232 0.408412-0.54511l-0.06083-4.43938c-0.0062-0.0973 0.0059-0.19962-0.02377-0.31048-0.06931-0.25867-0.328022-0.18934-0.531205-0.1349l-1.36186 1.79072c-0.468538-0.27051-1.68676-0.97385-3.73764-0.42431-5.91249 1.58424-7.98836 6.99221-6.97345 10.7799 0.905991 3.38121 3.94189 4.29061 7.3785 3.36977 1.94004-0.51983 3.06012-1.51307 3.48304-2.29969 0.590627 0.35663 1.66166 0.58452 1.79098 0.54987 0.184763-0.0495 0.182112-0.20723 0.181774-0.50418z"/><path d="m111.834 303.281c-0.14357-0.53582-0.70582-0.86044-1.24164-0.71687s-0.86044 0.70583-0.71687 1.24165 0.70584 0.86043 1.24165 0.71686c0.53582-0.14357 0.86043-0.70582 0.71686-1.24164z"/><path d="m117.812 307.479c0.27716-0.0743 0.62821-0.16832 0.5292-0.53785-0.099-0.36952-0.45008-0.27548-0.70875-0.20617l-11.0674 2.96551c-0.25866 0.0693-0.60972 0.16338-0.5107 0.53292 0.099 0.36953 0.45007 0.27546 0.72722 0.2012zm0.9789 3.5795c0.25867-0.0693 0.60973-0.16338 0.51071-0.53291-0.099-0.36952-0.45007-0.27546-0.72722-0.20119l-11.0305 2.9556c-0.27715 0.0743-0.6282 0.16833-0.52919 0.53785 0.099 0.36953 0.45007 0.27546 0.70873 0.20615z"/><path d="m134.434 303.183c-0.48023-1.79222-1.68191-6.20316-6.13477-5.01002-4.45284 1.19314-3.29302 5.59548-2.80784 7.40619 0.49012 1.82917 1.6522 6.0923 6.10505 4.89916 4.43436-1.18819 3.33263-5.44768 2.83756-7.29533zm-3.01579 6.63017c-0.66515 0.17823-1.80874 0.049-2.41034-1.23543-0.42374-0.91622-0.93862-2.83779-1.21091-3.85399-0.35645-1.3303-0.67825-2.53127-0.78787-3.53166-0.21891-1.70382 1.02494-2.23514 1.46837-2.35395 0.68363-0.18318 1.53525-0.0351 2.10412 0.6838 0.49728 0.59946 1.02206 2.55797 1.42802 4.07304 0.27725 1.03469 0.72777 2.71605 0.85588 3.71148 0.20174 1.78763-0.89296 2.35819-1.44727 2.50671z"/></g><g stroke-linejoin="round" stroke-miterlimit="1e5" stroke-width="1.33333"><path d="m23.3144 361.036c-2.39102 0.57386-4.24647 3.06053-4.24647 5.37504 0 1.83632 1.22422 3.21356 3.02226 3.21356 2.23802 0 3.82567-3.00314 3.82567-5.64284 0-1.74067-0.76514-2.69708-1.41551-3.55785-0.6886-0.86079-1.81718-2.29539-1.81718-3.13704 0-0.42083 0.38258-0.87991 1.05206-0.87991 0.57384 0 0.95642 0.24868 1.35812 0.51647 0.38256 0.22953 0.76512 0.47821 1.05204 0.47821 0.47821 0 0.76514-0.45908 0.76514-0.76514 0-0.42082-0.30606-0.47821-0.99467-0.63123-0.99467-0.2104-1.26247-0.2104-1.56853-0.2104-1.492 0-2.18062 0.82251-2.18062 1.97021 0 1.03292 0.55472 2.10411 1.14769 3.27092zm0.22955 0.42084c0.47821 0.87988 1.05205 1.91281 1.05205 3.29004 0 1.26248-0.72688 4.4569-2.50581 4.4569-1.05204 0-1.8363-0.80339-1.8363-2.25714 0-1.20508 0.70774-4.8012 3.29006-5.4898z" fill="#f00"/><path d="m37.7109 361.725c-0.68862 0.19128-1.03293 0.84163-1.03293 1.31984 0 0.42083 0.32519 0.8799 0.95642 0.8799 0.66949 0 1.37723-0.55472 1.37723-1.492 0-1.01381-1.01379-1.68329-2.18062-1.68329-1.09031 0-1.79805 0.82252-2.04672 1.16683-0.47821-0.80339-1.54939-1.16683-2.6397-1.16683-2.41016 0-3.71089 2.35278-3.71089 2.98401 0 0.26779 0.28693 0.26779 0.45908 0.26779 0.22954 0 0.36344 0 0.43996-0.24865 0.55472-1.74067 1.93195-2.31453 2.7162-2.31453 0.72688 0 1.07119 0.3443 1.07119 0.95642 0 0.36344-0.26779 1.41548-0.43995 2.10411l-0.65036 2.62056c-0.28692 1.16683-0.97555 1.74068-1.6259 1.74068-0.0957 0-0.5356 0-0.91816-0.28693 0.68861-0.19128 1.03293-0.84164 1.03293-1.31985 0-0.42081-0.32519-0.8799-0.95642-0.8799-0.66949 0-1.37724 0.55472-1.37724 1.49201 0 1.0138 1.0138 1.68329 2.18063 1.68329 1.09031 0 1.79805-0.82252 2.04672-1.16683 0.47821 0.80339 1.5494 1.16683 2.6397 1.16683 2.41016 0 3.71088-2.35277 3.71088-2.98401 0-0.2678-0.28691-0.2678-0.45907-0.2678-0.22954 0-0.36344 0-0.43995 0.24867-0.55472 1.74067-1.93196 2.31452-2.71621 2.31452-0.72688 0-1.07119-0.34431-1.07119-0.95642 0-0.40169 0.24868-1.41549 0.42082-2.12324 0.1339-0.49733 0.57386-2.29539 0.66949-2.60144 0.28693-1.14769 0.95641-1.74067 1.6259-1.74067 0.0957 0 0.5356 0 0.91816 0.28693z" fill="#f00"/><path d="m58.5193 363.14c0.28693 0 0.650373 0 0.650373-0.38256s-0.363443-0.38258-0.631233-0.38258h-11.4578c-0.26779 0-0.63123 0-0.63123 0.38258 0 0.38257 0.36344 0.38256 0.65037 0.38256zm0.0191 3.71088c0.26779 0 0.631233 0 0.631233-0.38256s-0.363443-0.38256-0.650373-0.38256h-11.4196c-0.28693 0-0.65037 0-0.65037 0.38256s0.36344 0.38256 0.63123 0.38256z"/><path d="m71.3084 363.351h3.25179c2.71622 0 5.37506-1.98934 5.37506-4.13171 0-1.47288-1.26246-2.88837-3.76827-2.88837h-6.19757c-0.363424 0-0.57384 0-0.57384 0.36344 0 0.22954 0.17216 0.22954 0.55472 0.22954 0.248672 0 0.592976 0.0191 0.822512 0.0383 0.306048 0.0383 0.420816 0.0956 0.420816 0.30605 0 0.0765-0.01912 0.13391-0.07651 0.36344l-2.56318 10.2719c-0.19128 0.74601-0.229536 0.89903-1.74067 0.89903-0.325179 0-0.535591 0-0.535591 0.36344 0 0.22954 0.22954 0.22954 0.286924 0.22954 0.535592 0 1.8937-0.0574 2.42929-0.0574 0.401696 0 0.822512 0.0191 1.22421 0.0191 0.420832 0 0.841648 0.0383 1.24334 0.0383 0.133888 0 0.38256 0 0.38256-0.38257 0-0.21041-0.17216-0.21041-0.535584-0.21041-0.70776 0-1.24334 0-1.24334-0.34431 0-0.11476 0.03826-0.21041 0.05739-0.32518zm1.37723-5.70022c0.172144-0.66949 0.2104-0.72688 1.03293-0.72688h1.8363c1.58765 0 2.60146 0.51646 2.60146 1.83632 0 0.746-0.382576 2.39102-1.12858 3.07965-0.956416 0.86076-2.10411 1.01379-2.94574 1.01379h-2.69709z"/><path d="m85.4536 361.036c-2.39102 0.57386-4.24647 3.06053-4.24647 5.37504 0 1.83632 1.22421 3.21356 3.02226 3.21356 2.23802 0 3.82566-3.00314 3.82566-5.64284 0-1.74067-0.765136-2.69708-1.4155-3.55785-0.688608-0.86079-1.81718-2.29539-1.81718-3.13704 0-0.42083 0.382576-0.87991 1.05206-0.87991 0.57384 0 0.956416 0.24868 1.35811 0.51647 0.38256 0.22953 0.76512 0.47821 1.05205 0.47821 0.478208 0 0.765136-0.45908 0.765136-0.76514 0-0.42082-0.306064-0.47821-0.994672-0.63123-0.994672-0.2104-1.26246-0.2104-1.56853-0.2104-1.492 0-2.18062 0.82251-2.18062 1.97021 0 1.03292 0.55472 2.10411 1.1477 3.27092zm0.229552 0.42084c0.478208 0.87988 1.05205 1.91281 1.05205 3.29004 0 1.26248-0.72688 4.4569-2.50581 4.4569-1.05205 0-1.8363-0.80339-1.8363-2.25714 0-1.20508 0.707744-4.8012 3.29006-5.4898z"/><path d="m96.4644 357.191c-0.229552-0.53558-0.478208-1.07118-2.83099-1.07118-0.439952 0-0.765136 0-0.765136 0.36344 0 0.28692 0.267808 0.32518 0.286928 0.32518 0.306048 0.0383 0.516464 0.0574 0.822512 0.51646 0.229552 0.36344 2.21888 4.91597 2.65883 5.91064l-5.52807 4.45688c-0.22954 0.17216-0.612104 0.49734-0.612104 1.0138 0 0.53559 0.43995 0.91816 0.918155 0.91816 0.5356 0 0.91816-0.42082 1.45374-0.99467 0.03826-0.0574 0.975552-1.03293 1.05206-1.10945 0.707744-0.72686 2.41016-2.60144 3.13704-3.30918l1.8363 4.13171c0.05739 0.15302 0.229536 0.51646 0.286928 0.66948 0.17216 0.34431 0.535584 0.5356 1.20507 0.5356h0.95642c0.34432 0 0.57386 0 0.57386-0.2678 0-0.0956-0.0574-0.17216-0.0957-0.22954-0.15303-0.15302-0.32519-0.51646-0.45908-0.82251z"/></g><path d="m-60.1184 368.277 200.237-53.6987" color="#000000" color-rendering="auto" fill="none" image-rendering="auto" shape-rendering="auto" solid-color="#000000" stroke="#00f" stroke-width="2" style="isolation:auto;mix-blend-mode:normal"/><path d="m-16.5203 264.259c-2.39102 0.57386-4.24647 3.06053-4.24647 5.37504 0 1.83632 1.22421 3.21356 3.02226 3.21356 2.23802 0 3.82566-3.00314 3.82566-5.64284 0-1.74067-0.765136-2.69708-1.4155-3.55785-0.688608-0.86079-1.81718-2.29539-1.81718-3.13704 0-0.42083 0.382576-0.87991 1.05206-0.87991 0.57384 0 0.956416 0.24868 1.35811 0.51647 0.38256 0.22953 0.76512 0.47821 1.05205 0.47821 0.478208 0 0.765136-0.45908 0.765136-0.76514 0-0.42082-0.306064-0.47821-0.994672-0.63123-0.994672-0.2104-1.26246-0.2104-1.56853-0.2104-1.492 0-2.18062 0.82251-2.18062 1.97021 0 1.03292 0.55472 2.10411 1.1477 3.27092zm0.229552 0.42084c0.478208 0.87988 1.05205 1.91281 1.05205 3.29004 0 1.26248-0.72688 4.4569-2.50581 4.4569-1.05205 0-1.8363-0.80339-1.8363-2.25714 0-1.20508 0.707744-4.8012 3.29006-5.4898z" stroke-linejoin="round" stroke-miterlimit="1e5" stroke-width="1.33333"/><path d="m-5.5095 260.415c-0.229552-0.53558-0.478208-1.07118-2.83099-1.07118-0.439952 0-0.765136 0-0.765136 0.36344 0 0.28692 0.267808 0.32518 0.286928 0.32518 0.306048 0.0383 0.516464 0.0574 0.822512 0.51646 0.229552 0.36344 2.21888 4.91597 2.65883 5.91064l-5.52807 4.45688c-0.22954 0.17216-0.612104 0.49734-0.612104 1.0138 0 0.53559 0.43995 0.91816 0.918155 0.91816 0.5356 0 0.91816-0.42082 1.45374-0.99467 0.03826-0.0574 0.975552-1.03293 1.05206-1.10945 0.707744-0.72686 2.41016-2.60144 3.13704-3.30918l1.8363 4.13171c0.05739 0.15302 0.229536 0.51646 0.286928 0.66948 0.17216 0.34431 0.535584 0.5356 1.20507 0.5356h0.956416c0.34432 0 0.573856 0 0.573856-0.2678 0-0.0956-0.05739-0.17216-0.09565-0.22954-0.153024-0.15302-0.325184-0.51646-0.459072-0.82251z" stroke-linejoin="round" stroke-miterlimit="1e5" stroke-width="1.33333"/><g fill="none"><path d="m14.7898 254.444c7.88806 29.1336 15.7759 58.2665 23.6636 87.3987" stroke="#000" stroke-dasharray="3, 3" stroke-miterlimit="100"/><g><path d="m-20.4661 357.644 35.2558-103.199" color="#000000" color-rendering="auto" image-rendering="auto" marker-end="url(#marker7753-6)" shape-rendering="auto" solid-color="#000000" stroke="#000" stroke-width="2" style="isolation:auto;mix-blend-mode:normal"/><path d="m-20.4661 357.644 58.9195-15.8008" color="#000000" color-rendering="auto" image-rendering="auto" marker-end="url(#marker2727)" shape-rendering="auto" solid-color="#000000" stroke="#f00" stroke-width="2" style="isolation:auto;mix-blend-mode:normal"/><path d="m35.157 329.54 12.3025-3.29644 3.29644 12.3025" stroke="#000" stroke-miterlimit="100"/><path d="m34.3125 275.861 7.18171 26.8025" marker-end="url(#marker2543)" stroke="#000" stroke-miterlimit="100"/></g></g><path d="m47.079 284.675h2.70982c2.26352 0 4.47922-1.65779 4.47922-3.44309 0-1.2274-1.05206-2.40698-3.14023-2.40698h-5.16464c-0.30285 0-0.4782 0-0.4782 0.30287 0 0.19128 0.14347 0.19128 0.46227 0.19128 0.20722 0 0.49414 0.016 0.68542 0.0319 0.25504 0.0319 0.35068 0.0797 0.35068 0.25504 0 0.0638-0.0159 0.11159-0.0638 0.30287l-2.13598 8.5599c-0.1594 0.62167-0.19128 0.74919-1.45056 0.74919-0.27099 0-0.44633 0-0.44633 0.30286 0 0.19129 0.19128 0.19129 0.2391 0.19129 0.44633 0 1.57809-0.0478 2.02441-0.0478 0.33475 0 0.68543 0.0159 1.02018 0.0159 0.35069 0 0.70137 0.0319 1.03612 0.0319 0.11157 0 0.3188 0 0.3188-0.31881 0-0.17534-0.14347-0.17534-0.44632-0.17534-0.5898 0-1.03612 0-1.03612-0.28692 0-0.0956 0.0319-0.17535 0.0478-0.27099zm1.14769-4.75019c0.14345-0.5579 0.17533-0.60573 0.86077-0.60573h1.53026c1.32304 0 2.16788 0.43039 2.16788 1.53027 0 0.62166-0.31882 1.99252-0.94048 2.56637-0.79702 0.71731-1.75343 0.84483-2.45479 0.84483h-2.24757z" stroke-linejoin="round" stroke-miterlimit="1e5" stroke-width="1.33333"/></g></svg>
