<?xml version="1.0" encoding="UTF-8"?>
<svg width="157.042" height="114.262" version="1.1" viewBox="0 0 157.04234 114.26237" xmlns="http://www.w3.org/2000/svg"><defs><marker id="DotM" overflow="visible" orient="auto"><path transform="matrix(.4 0 0 .4 2.96 .4)" d="m-2.5-1c0 2.76-2.24 5-5 5s-5-2.24-5-5 2.24-5 5-5 5 2.24 5 5z" fill="#f00" fill-rule="evenodd" stroke="#f00" stroke-width="1pt"/></marker><marker id="marker7488" overflow="visible" orient="auto"><path transform="matrix(.4 0 0 .4 2.96 .4)" d="m-2.5-1c0 2.76-2.24 5-5 5s-5-2.24-5-5 2.24-5 5-5 5 2.24 5 5z" fill="#f00" fill-rule="evenodd" stroke="#f00" stroke-width="1pt"/></marker></defs><g transform="translate(21.3783 -258.753)"><g fill="none"><path d="m23.2904 333.662 109.261-24.4852-58.1445 62.6993-94.7853 0.13864z" stroke="#00a100" stroke-linejoin="round"/><g stroke="#000" stroke-miterlimit="100" stroke-width=".5"><path d="m102.487 315.914c3.58132 3.80749 8.14556 7.57898 13.7999 10.8009"/><path d="m78.267 321.343c3.33237 7.43467 10.5006 15.2673 24.81 19.6183"/><path d="m56.7878 326.156c-0.74062 10.6101 5.00569 23.3622 35.6562 26.2704"/><path d="m39.0873 330.122c-7.46369 12.7082-11.6497 31.673 44.7795 31.553"/><path d="m26.1597 333.018c-12.5253 12.739-43.1099 40.6636 50.0008 36.9652"/></g><path d="m36.1236 336.231c-18.1801-6.71504-35.949-36.6907-37.7363-67.3344" marker-end="url(#marker7488)" marker-start="url(#DotM)" stroke="#f00" stroke-miterlimit="1e5" stroke-width="1px"/></g><g stroke-linejoin="round" stroke-miterlimit="1e5" stroke-width="1.33333"><path d="m44.7132 315.456-1.60678-3.80653c-0.0574-0.15296-0.0956-0.22954-0.0956-0.24867 0-0.11472 0.32516-0.47821 1.12856-0.55472 0.19128-0.019 0.38256-0.0382 0.38256-0.36344 0-0.22954-0.22954-0.22954-0.28692-0.22954-0.78425 0-1.60678 0.0574-2.41016 0.0574-0.4782 0-1.66416-0.0574-2.14236-0.0574-0.11477 0-0.34432 0-0.34432 0.38256 0 0.21042 0.19129 0.21042 0.43995 0.21042 1.14769 0 1.26246 0.19128 1.43462 0.61211l2.25714 5.33678-4.03607 4.34211-0.24867 0.21042c-0.93728 1.01379-1.8363 1.31984-2.81185 1.37723-0.24867 0.0192-0.42082 0.0192-0.42082 0.38256 0 0.0192 0 0.21042 0.24867 0.21042 0.57385 0 1.20507-0.0574 1.79805-0.0574 0.70774 0 1.45376 0.0574 2.14237 0.0574 0.11477 0 0.3443 0 0.3443-0.38256 0-0.1913-0.19128-0.21042-0.22953-0.21042-0.17215-0.0192-0.76512-0.0574-0.76512-0.59297 0-0.30605 0.28691-0.61212 0.51646-0.86077l1.95107-2.06586 1.72155-1.87457 1.93196 4.57166c0.0765 0.2104 0.0956 0.22954 0.0956 0.26779 0 0.15296-0.36344 0.47821-1.10944 0.55472-0.21041 0.0192-0.38257 0.0382-0.38257 0.36344 0 0.22954 0.21041 0.22954 0.28693 0.22954 0.53558 0 1.87457-0.0574 2.41016-0.0574 0.4782 0 1.64504 0.0574 2.12323 0.0574 0.1339 0 0.36344 0 0.36344-0.36344 0-0.22954-0.19128-0.22954-0.34431-0.22954-1.2816-0.0192-1.31985-0.0765-1.64502-0.84165-0.74602-1.77892-2.0276-4.76292-2.46755-5.91062 1.30072-1.33899 3.30918-3.61525 3.92129-4.15085 0.55472-0.45907 1.28159-0.91814 2.42928-0.97553 0.24876-0.019 0.42076-0.019 0.42076-0.38256 0-0.0192 0-0.21042-0.24864-0.21042-0.5738 0-1.20503 0.0574-1.798 0.0574-0.70776 0-1.43463-0.0574-2.12325-0.0574-0.11477 0-0.36344 0-0.36344 0.38256 0 0.13392 0.0956 0.1913 0.22955 0.21042 0.17214 0.0192 0.76512 0.0574 0.76512 0.59297 0 0.26779-0.2104 0.51647-0.36344 0.68863z"/><path d="m56.607 309.099c0.10712-0.22762 0.12052-0.33474 0.12052-0.42847 0-0.41508-0.37492-0.73644-0.79-0.73644-0.50882 0-0.66949 0.41508-0.73645 0.62932l-1.76745 5.79778c-0.0134 0.0267-0.067 0.20085-0.067 0.21424 0 0.16067 0.41509 0.29458 0.52221 0.29458 0.0937 0 0.10711-0.0267 0.20084-0.22764z"/><path d="m12.2132 264.456-1.60678-3.80653c-0.0574-0.15296-0.0956-0.22954-0.0956-0.24867 0-0.11472 0.32516-0.47821 1.12856-0.55472 0.19128-0.019 0.38256-0.0382 0.38256-0.36344 0-0.22954-0.22954-0.22954-0.28692-0.22954-0.78425 0-1.60678 0.0574-2.41016 0.0574-0.4782 0-1.66416-0.0574-2.14236-0.0574-0.11477 0-0.34432 0-0.34432 0.38256 0 0.21042 0.19129 0.21042 0.43995 0.21042 1.14769 0 1.26246 0.19128 1.43462 0.61211l2.25714 5.33678-4.03607 4.34211-0.24867 0.21042c-0.93728 1.01379-1.8363 1.31984-2.81185 1.37723-0.24867 0.0192-0.42082 0.0192-0.42082 0.38256 0 0.0192 0 0.21042 0.24867 0.21042 0.57385 0 1.20507-0.0574 1.79805-0.0574 0.70774 0 1.45376 0.0574 2.14237 0.0574 0.11477 0 0.3443 0 0.3443-0.38256 0-0.1913-0.19128-0.21042-0.22953-0.21042-0.17215-0.0192-0.76512-0.0574-0.76512-0.59297 0-0.30605 0.28691-0.61212 0.51646-0.86077l1.95107-2.06586 1.72155-1.87457 1.93196 4.57166c0.0765 0.2104 0.0956 0.22954 0.0956 0.26779 0 0.15296-0.36344 0.47821-1.10944 0.55472-0.21041 0.0192-0.38257 0.0382-0.38257 0.36344 0 0.22954 0.21041 0.22954 0.28693 0.22954 0.53558 0 1.87457-0.0574 2.41016-0.0574 0.4782 0 1.64504 0.0574 2.12323 0.0574 0.1339 0 0.36344 0 0.36344-0.36344 0-0.22954-0.19128-0.22954-0.34431-0.22954-1.2816-0.0192-1.31985-0.0765-1.64502-0.84165-0.74602-1.77892-2.0276-4.76292-2.46755-5.91062 1.30072-1.33899 3.30918-3.61525 3.92129-4.15085 0.55472-0.45907 1.28159-0.91814 2.42928-0.97553 0.24876-0.019 0.42076-0.019 0.42076-0.38256 0-0.0192 0-0.21042-0.24864-0.21042-0.5738 0-1.20503 0.0574-1.798 0.0574-0.70776 0-1.43463-0.0574-2.12325-0.0574-0.11477 0-0.36344 0-0.36344 0.38256 0 0.13392 0.0956 0.1913 0.22955 0.21042 0.17214 0.0192 0.76512 0.0574 0.76512 0.59297 0 0.26779-0.2104 0.51647-0.36344 0.68863z"/></g><g fill="#00a100" stroke-linejoin="round" stroke-miterlimit="1e5" stroke-width=".833333"><path d="m107.68 359.398c-0.19128 0.746-0.22954 0.89902-1.74067 0.89902-0.32518 0-0.53559 0-0.53559 0.36344 0 0.22954 0.17215 0.22954 0.53559 0.22954h6.33145c3.97869 0 7.74696-4.03607 7.74696-8.22515 0-2.69709-1.6259-4.83946-4.49515-4.83946h-6.42711c-0.36342 0-0.57384 0-0.57384 0.36344 0 0.22954 0.17216 0.22954 0.55472 0.22954 0.24868 0 0.59298 0.0192 0.82252 0.0382 0.30604 0.0382 0.42081 0.0957 0.42081 0.30604 0 0.0765-0.0191 0.13392-0.0765 0.36344zm4.13171-10.2528c0.17214-0.66949 0.2104-0.72688 1.03293-0.72688h2.04672c1.87457 0 3.46222 1.01379 3.46222 3.53873 0 0.93728-0.38258 4.07432-2.00848 6.17843-0.55472 0.70775-2.06586 2.16149-4.41862 2.16149h-2.16149c-0.26781 0-0.30607 0-0.42083-0.0192-0.19128-0.0192-0.24868-0.0382-0.24868-0.19128 0-0.0574 0-0.0957 0.0957-0.43995z"/><path d="m126.923 355.658c0.0937-0.38831 0.12051-0.42848 0.41509-0.45527 0.0669-0.0128 0.53558-0.0128 0.80338-0.0128 0.81678 0 1.16491 0 1.49966 0.10704 0.60254 0.18746 0.62931 0.57576 0.62931 1.05779 0 0.21424 0 0.38831-0.0937 1.08458l-0.0268 0.14736c0 0.13392 0.0937 0.20085 0.22761 0.20085 0.20085 0 0.22763-0.12048 0.25442-0.33475l0.36152-2.55744c0-0.18748-0.16069-0.18748-0.4017-0.18748h-8.23472c-0.33475 0-0.36152 0-0.45525 0.2812l-0.84356 2.36999c-0.0134 0.0536-0.067 0.17406-0.067 0.24102 0 0.0536 0.0268 0.18746 0.22763 0.18746 0.17407 0 0.20085-0.067 0.28118-0.32136 0.77662-2.14237 1.21847-2.27627 3.25372-2.27627h0.56237c0.40169 0 0.41509 0.0128 0.41509 0.13392 0 0.0128 0 0.0803-0.0536 0.28118l-1.76745 7.04302c-0.12051 0.49543-0.16067 0.62933-1.56661 0.62933-0.48203 0-0.60254 0-0.60254 0.29458 0 0.0402 0.0268 0.18745 0.22763 0.18745 0.37491 0 0.77661-0.0402 1.15152-0.0402s0.77661-0.0128 1.15152-0.0128 0.83017 0 1.20509 0.0128c0.36152 0.0128 0.76321 0.0402 1.12473 0.0402 0.10712 0 0.30797 0 0.30797-0.29457 0-0.18746-0.1339-0.18746-0.54898-0.18746-0.25441 0-0.5222-0.0128-0.7766-0.0267-0.45527-0.0402-0.48204-0.0938-0.48204-0.2544 0-0.0938 0-0.12048 0.0536-0.30797z"/><path d="m135.164 362.611c0-0.68861 0-3.30918-2.49624-3.30918s-2.49624 2.62057-2.49624 3.30918c0 0.69819 0 3.27094 2.49624 3.27094s2.49624-2.57275 2.49624-3.27094zm-2.49624 2.95533c-0.35387 0-1.15726-0.12432-1.39637-1.09032-0.13389-0.51647-0.14345-1.19552-0.14345-1.97978 0-0.70774 0-1.36766 0.15302-1.91281 0.2391-0.8034 0.97554-0.96599 1.3868-0.96599 0.70774 0 1.21464 0.36344 1.40592 1.03293 0.1339 0.48778 0.1339 1.28158 0.1339 1.84587 0 0.65037 0 1.42506-0.14345 1.99891-0.24867 0.92772-1.01381 1.07119-1.39637 1.07119z"/></g></g></svg>
