<?xml version="1.0" encoding="UTF-8"?>
<svg width="193.751" height="111.751" version="1.1" viewBox="0 0 193.75076 111.75076" xmlns="http://www.w3.org/2000/svg">
 <path d="m0.5 0.5v110.751h192.751v-110.751z" color="#000000" color-rendering="auto" dominant-baseline="auto" fill="#cacaca" image-rendering="auto" shape-rendering="auto" solid-color="#000000" style="font-feature-settings:normal;font-variant-alternates:normal;font-variant-caps:normal;font-variant-ligatures:normal;font-variant-numeric:normal;font-variant-position:normal;isolation:auto;mix-blend-mode:normal;shape-padding:0;text-decoration-color:#000000;text-decoration-line:none;text-decoration-style:solid;text-indent:0;text-orientation:mixed;text-transform:none;white-space:normal"/>
 <rect x="10.6848" y="10.48" width="171.497" height="89.1552" fill="#fff"/>
 <g stroke-linejoin="round" stroke-miterlimit="1e5" stroke-width="1.33333">
  <path d="m29.3006 23.046c0.13389-0.53559 0.2104-0.65036 0.43996-0.70775 0.17214-0.0382 0.80337-0.0382 1.20507-0.0382 1.93195 0 2.79273 0.0765 2.79273 1.56853 0 0.28691-0.0765 1.03291-0.15304 1.53026-0.0191 0.0765-0.0574 0.30604-0.0574 0.36344 0 0.11472 0.0574 0.24865 0.22953 0.24865 0.21042 0 0.24868-0.15296 0.28693-0.43993l0.51647-3.32832c0.0191-0.0765 0.0383-0.26781 0.0383-0.32519 0-0.21041-0.19128-0.21041-0.51646-0.21041h-10.6162c-0.45907 0-0.4782 0.0192-0.61209 0.38256l-1.14771 3.36657c-0.0191 0.0382-0.11477 0.30607-0.11477 0.34432 0 0.11472 0.0957 0.2104 0.22954 0.2104 0.19129 0 0.21042-0.0957 0.32519-0.40168 1.03292-2.96489 1.53026-3.3092 4.36124-3.3092h0.746c0.5356 0 0.5356 0.0765 0.5356 0.22954 0 0.11472-0.0574 0.34432-0.0765 0.40169l-2.56318 10.2145c-0.17216 0.70775-0.22955 0.91816-2.27627 0.91816-0.68862 0-0.80339 0-0.80339 0.36344 0 0.22954 0.21041 0.22954 0.32518 0.22954 0.51646 0 1.05206-0.0382 1.56851-0.0382 0.5356 0 1.09032-0.0192 1.62591-0.0192 0.53558 0 1.07118 0.0192 1.58764 0.0192 0.55472 0 1.12858 0.0382 1.66417 0.0382 0.19128 0 0.42083 0 0.42083-0.38256 0-0.21042-0.15303-0.21042-0.65037-0.21042-0.47821 0-0.72688 0-1.22421-0.0382-0.55472-0.0574-0.70774-0.11472-0.70774-0.42081 0-0.0192 0-0.11472 0.0765-0.4017z"/>
  <path d="m36.7544 29.01c0-0.36152-0.0268-0.37491-0.4017-0.37491-0.85694 0.84355-2.07542 0.85694-2.6244 0.85694v0.48204c0.32136 0 1.20507 0 1.94152-0.37492v6.82879c0 0.44187 0 0.61594-1.33897 0.61594h-0.50882v0.48203c0.24101-0.0128 1.88795-0.0536 2.38338-0.0536 0.41508 0 2.1022 0.0402 2.39678 0.0536v-0.48203h-0.50882c-1.33897 0-1.33897-0.17407-1.33897-0.61594z"/>
  <path d="m44.7343 34.637c0-1.26247-0.47821-2.00847-1.22421-2.00847-0.63123 0-1.0138 0.47821-1.0138 1.01381 0 0.51646 0.38257 1.01379 1.0138 1.01379 0.22954 0 0.47821-0.0765 0.66949-0.24867 0.0574-0.0382 0.0765-0.0574 0.0957-0.0574 0.0191 0 0.0383 0.0192 0.0383 0.28691 0 1.41551-0.66951 2.5632-1.30074 3.19443-0.2104 0.2104-0.2104 0.24868-0.2104 0.30605 0 0.13392 0.0956 0.21042 0.19128 0.21042 0.21042 0 1.74067-1.47288 1.74067-3.7109z"/>
  <path d="m61.3454 23.773c0.93728-1.492 1.74067-1.5494 2.44842-1.58765 0.22953-0.019 0.24865-0.34431 0.24865-0.36344 0-0.15296-0.0956-0.22954-0.24865-0.22954-0.49735 0-1.05207 0.0574-1.56853 0.0574-0.63123 0-1.28159-0.0574-1.8937-0.0574-0.11477 0-0.36344 0-0.36344 0.36344 0 0.21042 0.17216 0.22954 0.30607 0.22954 0.51646 0.0382 0.87988 0.22953 0.87988 0.63123 0 0.28693-0.28691 0.70774-0.28691 0.72688l-5.87238 9.33459-1.30072-10.1188c0-0.32518 0.43995-0.57385 1.31984-0.57385 0.2678 0 0.4782 0 0.4782-0.38256 0-0.17216-0.15302-0.21042-0.26779-0.21042-0.76512 0-1.58765 0.0574-2.3719 0.0574-0.34431 0-0.70775-0.0192-1.05205-0.0192s-0.70774-0.0382-1.03293-0.0382c-0.1339 0-0.36344 0-0.36344 0.36344 0 0.22954 0.17216 0.22954 0.47821 0.22954 1.07118 0 1.0903 0.17216 1.1477 0.65037l1.51113 11.8021c0.0574 0.38257 0.13389 0.43995 0.38256 0.43995 0.30605 0 0.38256-0.0957 0.5356-0.34431z"/>
  <path d="m64.9336 29.01c0-0.36152-0.0268-0.37491-0.4017-0.37491-0.85694 0.84355-2.07542 0.85694-2.6244 0.85694v0.48204c0.32136 0 1.20507 0 1.94152-0.37492v6.82879c0 0.44187 0 0.61594-1.33897 0.61594h-0.50882v0.48203c0.24101-0.0128 1.88795-0.0536 2.38338-0.0536 0.41508 0 2.1022 0.0402 2.39678 0.0536v-0.48203h-0.50882c-1.33897 0-1.33897-0.17407-1.33897-0.61594z"/>
  <path d="m134.25 23.046c0.13389-0.53559 0.2104-0.65036 0.43995-0.70775 0.17215-0.0382 0.80338-0.0382 1.20507-0.0382 1.93196 0 2.79274 0.0765 2.79274 1.56853 0 0.28691-0.0765 1.03291-0.15304 1.53026-0.0191 0.0765-0.0574 0.30604-0.0574 0.36344 0 0.11472 0.0574 0.24865 0.22954 0.24865 0.21042 0 0.24867-0.15296 0.28693-0.43993l0.51646-3.32832c0.0191-0.0765 0.0383-0.26781 0.0383-0.32519 0-0.21041-0.19128-0.21041-0.51647-0.21041h-10.6162c-0.45907 0-0.47821 0.0192-0.6121 0.38256l-1.1477 3.36657c-0.0191 0.0382-0.11477 0.30607-0.11477 0.34432 0 0.11472 0.0956 0.2104 0.22954 0.2104 0.19128 0 0.21041-0.0957 0.32518-0.40168 1.03292-2.96489 1.53027-3.3092 4.36124-3.3092h0.746c0.5356 0 0.5356 0.0765 0.5356 0.22954 0 0.11472-0.0574 0.34432-0.0765 0.40169l-2.56318 10.2145c-0.17216 0.70775-0.22956 0.91816-2.27628 0.91816-0.68861 0-0.80338 0-0.80338 0.36344 0 0.22954 0.21041 0.22954 0.32518 0.22954 0.51646 0 1.05206-0.0382 1.56851-0.0382 0.5356 0 1.09032-0.0192 1.6259-0.0192 0.53559 0 1.07119 0.0192 1.58765 0.0192 0.55472 0 1.12858 0.0382 1.66416 0.0382 0.19128 0 0.42083 0 0.42083-0.38256 0-0.21042-0.15302-0.21042-0.65036-0.21042-0.47821 0-0.72689 0-1.22421-0.0382-0.55472-0.0574-0.70775-0.11472-0.70775-0.42081 0-0.0192 0-0.11472 0.0765-0.4017z"/>
  <path d="m143.98 35.089h-0.45524c-0.0402 0.29458-0.17407 1.08458-0.34815 1.21848-0.1071 0.0803-1.13813 0.0803-1.32558 0.0803h-2.46371c1.40592-1.24525 1.87456-1.62017 2.67795-2.24949 0.99085-0.79 1.91473-1.62016 1.91473-2.89219 0-1.62016-1.41931-2.61101-3.1332-2.61101-1.66033 0-2.78508 1.16492-2.78508 2.39677 0 0.68288 0.57576 0.74983 0.70966 0.74983 0.32136 0 0.70966-0.22762 0.70966-0.70965 0-0.24103-0.0937-0.70967-0.79-0.70967 0.41509-0.95067 1.32559-1.24524 1.95492-1.24524 1.33897 0 2.03524 1.0444 2.03524 2.12897 0 1.16491-0.83017 2.0888-1.25864 2.57083l-3.22694 3.18677c-0.1339 0.12048-0.1339 0.14736-0.1339 0.52221h5.51659z"/>
  <path d="m149.682 34.637c0-1.26247-0.47821-2.00847-1.22421-2.00847-0.63123 0-1.01381 0.47821-1.01381 1.01381 0 0.51646 0.38258 1.01379 1.01381 1.01379 0.22953 0 0.47821-0.0765 0.66949-0.24867 0.0574-0.0382 0.0765-0.0574 0.0956-0.0574s0.0383 0.0192 0.0383 0.28691c0 1.41551-0.6695 2.5632-1.30074 3.19443-0.2104 0.2104-0.2104 0.24868-0.2104 0.30605 0 0.13392 0.0956 0.21042 0.19128 0.21042 0.21042 0 1.74068-1.47288 1.74068-3.7109z"/>
  <path d="m166.293 23.773c0.93728-1.492 1.74067-1.5494 2.44841-1.58765 0.22954-0.019 0.24866-0.34431 0.24866-0.36344 0-0.15296-0.0956-0.22954-0.24866-0.22954-0.49734 0-1.05206 0.0574-1.56852 0.0574-0.63124 0-1.28159-0.0574-1.8937-0.0574-0.11477 0-0.36344 0-0.36344 0.36344 0 0.21042 0.17216 0.22954 0.30606 0.22954 0.51647 0.0382 0.87989 0.22953 0.87989 0.63123 0 0.28693-0.28691 0.70774-0.28691 0.72688l-5.87238 9.33459-1.30072-10.1188c0-0.32518 0.43995-0.57385 1.31984-0.57385 0.2678 0 0.4782 0 0.4782-0.38256 0-0.17216-0.15302-0.21042-0.26779-0.21042-0.76512 0-1.58765 0.0574-2.3719 0.0574-0.34431 0-0.70775-0.0192-1.05205-0.0192s-0.70774-0.0382-1.03293-0.0382c-0.1339 0-0.36344 0-0.36344 0.36344 0 0.22954 0.17216 0.22954 0.47821 0.22954 1.07118 0 1.0903 0.17216 1.1477 0.65037l1.51113 11.8021c0.0574 0.38257 0.13389 0.43995 0.38256 0.43995 0.30605 0 0.38256-0.0957 0.5356-0.34431z"/>
  <path d="m172.159 35.089h-0.45524c-0.0402 0.29458-0.17407 1.08458-0.34815 1.21848-0.1071 0.0803-1.13813 0.0803-1.32558 0.0803h-2.46371c1.40592-1.24525 1.87456-1.62017 2.67795-2.24949 0.99085-0.79 1.91473-1.62016 1.91473-2.89219 0-1.62016-1.41931-2.61101-3.1332-2.61101-1.66033 0-2.78508 1.16492-2.78508 2.39677 0 0.68288 0.57576 0.74983 0.70966 0.74983 0.32136 0 0.70966-0.22762 0.70966-0.70965 0-0.24103-0.0937-0.70967-0.79-0.70967 0.41509-0.95067 1.32559-1.24524 1.95492-1.24524 1.33897 0 2.03524 1.0444 2.03524 2.12897 0 1.16491-0.83017 2.0888-1.25864 2.57083l-3.22694 3.18677c-0.1339 0.12048-0.1339 0.14736-0.1339 0.52221h5.51659z"/>
 </g>
 <rect x="11.3754" y="11.375" width="171" height="89" fill="none" stroke="#555" stroke-width="3.567"/>
 <rect x="91.4037" y="12.978" width="5.57107" height="85.7106" rx="3.88909" ry="3.88909" fill="#6563e1"/>
 <path d="m86.9859 75.735-8.6165 6.6328 8.6165 6.63281-1.55923-4.77818h17.1713l-1.55923 4.77818 8.6165-6.63281-8.6165-6.6328 1.55923 4.77818h-17.1713z" color="#000000" color-rendering="auto" dominant-baseline="auto" fill="#f00" image-rendering="auto" shape-rendering="auto" solid-color="#000000" style="font-feature-settings:normal;font-variant-alternates:normal;font-variant-caps:normal;font-variant-ligatures:normal;font-variant-numeric:normal;font-variant-position:normal;isolation:auto;mix-blend-mode:normal;shape-padding:0;text-decoration-color:#000000;text-decoration-line:none;text-decoration-style:solid;text-indent:0;text-orientation:mixed;text-transform:none;white-space:normal"/>
 <g fill="#dd3838" stroke-linejoin="round" stroke-miterlimit="1e5" stroke-width="1.33333">
  <path d="m122.359 86.345c2.47073-0.94048 4.81395-3.77784 4.81395-6.8543 0-2.56638-1.68965-4.28792-4.06475-4.28792-3.44309 0-6.94995 3.61843-6.94995 7.3325 0 2.64608 1.78531 4.25604 4.08071 4.25604 0.39851 0 0.94047-0.0637 1.56213-0.2391-0.0637 0.9883-0.0637 1.02018-0.0637 1.22739 0 0.51009 0 1.75343 1.32304 1.75343 1.89689 0 2.66201-2.91706 2.66201-3.0924 0-0.1116-0.1116-0.1594-0.17533-0.1594-0.12747 0-0.1594 0.0797-0.19128 0.17534-0.38258 1.13175-1.30711 1.53026-1.86501 1.53026-0.73326 0-0.97235-0.43039-1.13176-1.64184zm-3.01269-0.12747c-1.24335-0.49415-1.78531-1.73749-1.78531-3.17211 0-1.09988 0.41444-3.36338 1.62591-5.08493 1.16363-1.62591 2.66201-2.35915 3.82565-2.35915 1.59401 0 2.75765 1.24334 2.75765 3.37932 0 1.59403-0.81295 5.32404-3.49091 6.82242-0.0797-0.55791-0.23911-1.72154-1.40275-1.72154-0.84483 0-1.62589 0.797-1.62589 1.6259 0 0.31881 0.0956 0.49414 0.0956 0.51009zm0.98829 0.17533c-0.22317 0-0.73325 0-0.73325-0.68542 0-0.6376 0.60573-1.27522 1.27521-1.27522s0.97236 0.38256 0.97236 1.35492c0 0.23911-0.016 0.25504-0.17535 0.3188-0.41444 0.17535-0.89265 0.28692-1.33897 0.28692z"/>
  <path d="m131.168 86.424c0-1.05205-0.39851-1.67372-1.02017-1.67372-0.52603 0-0.84484 0.39851-0.84484 0.84484 0 0.43039 0.31881 0.84483 0.84484 0.84483 0.19128 0 0.39851-0.0637 0.55791-0.20723 0.0479-0.0319 0.0637-0.0479 0.0797-0.0479s0.0319 0.016 0.0319 0.2391c0 1.17958-0.55792 2.136-1.08395 2.66202-0.17534 0.17534-0.17534 0.20723-0.17534 0.25504 0 0.1116 0.0797 0.17535 0.1594 0.17535 0.17535 0 1.45056-1.2274 1.45056-3.09241z"/>
  <path d="m145.01 77.37c0.78107-1.24333 1.45056-1.29116 2.04035-1.32304 0.19128-0.0159 0.20721-0.28692 0.20721-0.30287 0-0.12746-0.0797-0.19128-0.20721-0.19128-0.41445 0-0.87672 0.0479-1.30711 0.0479-0.52603 0-1.06799-0.0479-1.57808-0.0479-0.0956 0-0.30287 0-0.30287 0.30287 0 0.17535 0.14347 0.19128 0.25506 0.19128 0.43038 0.0319 0.73324 0.19128 0.73324 0.52603 0 0.2391-0.2391 0.58978-0.2391 0.60573l-4.89365 7.77883-1.08393-8.43238c0-0.27098 0.36663-0.47821 1.09987-0.47821 0.22318 0 0.39851 0 0.39851-0.3188 0-0.14347-0.12747-0.17535-0.22316-0.17535-0.6376 0-1.32304 0.0479-1.97659 0.0479-0.28692 0-0.58979-0.016-0.87671-0.016s-0.58978-0.0319-0.86078-0.0319c-0.1116 0-0.30287 0-0.30287 0.30287 0 0.19128 0.14347 0.19128 0.39851 0.19128 0.89266 0 0.9086 0.14347 0.95642 0.54197l1.25928 9.83511c0.0479 0.31881 0.1116 0.36663 0.3188 0.36663 0.25504 0 0.3188-0.0797 0.44634-0.28692z"/>
 </g>
</svg>
