<?xml version="1.0" encoding="UTF-8"?>
<svg width="223.677" height="97.7508" version="1.1" viewBox="0 0 223.67719 97.750763" xmlns="http://www.w3.org/2000/svg"><g transform="translate(77.5529 -238.437)"><path d="m-77.0529 238.937v96.7508h222.677v-96.7508z" color="#000000" color-rendering="auto" dominant-baseline="auto" fill="#e5e5e5" image-rendering="auto" shape-rendering="auto" solid-color="#000000" style="font-feature-settings:normal;font-variant-alternates:normal;font-variant-caps:normal;font-variant-ligatures:normal;font-variant-numeric:normal;font-variant-position:normal;isolation:auto;mix-blend-mode:normal;shape-padding:0;text-decoration-color:#000000;text-decoration-line:none;text-decoration-style:solid;text-indent:0;text-orientation:mixed;text-transform:none;white-space:normal"/><path d="m10.3842 319.862h-71.44v-65.3492h71.44" fill="#fff"/><g><path d="m31.5578 320.262h-92.717v-65.899h92.717" fill="none" stroke="#555" stroke-width="3.56749"/><g stroke-linejoin="round" stroke-miterlimit="1e5" stroke-width="1.33333"><path d="m-43.6182 264.728c0.13389-0.53559 0.2104-0.65035 0.43995-0.70775 0.17215-0.0382 0.80338-0.0382 1.20508-0.0382 1.93195 0 2.79273 0.0765 2.79273 1.56853 0 0.28691-0.0765 1.03291-0.15304 1.53026-0.0191 0.0765-0.0574 0.30604-0.0574 0.36344 0 0.11472 0.0574 0.24865 0.22953 0.24865 0.21042 0 0.24867-0.15296 0.28693-0.43993l0.51646-3.32832c0.0191-0.0765 0.0383-0.26781 0.0383-0.32519 0-0.21041-0.19128-0.21041-0.51646-0.21041h-10.6162c-0.45907 0-0.4782 0.0192-0.61209 0.38256l-1.14771 3.36657c-0.0191 0.0382-0.11477 0.30607-0.11477 0.34432 0 0.11472 0.0956 0.2104 0.22954 0.2104 0.19129 0 0.21041-0.0957 0.32518-0.40168 1.03293-2.96489 1.53027-3.3092 4.36125-3.3092h0.746c0.5356 0 0.5356 0.0765 0.5356 0.22954 0 0.11472-0.0574 0.34432-0.0765 0.4017l-2.56318 10.2145c-0.17216 0.70775-0.22955 0.91816-2.27627 0.91816-0.68862 0-0.80339 0-0.80339 0.36344 0 0.22954 0.21041 0.22954 0.32518 0.22954 0.51646 0 1.05206-0.0382 1.56851-0.0382 0.5356 0 1.09032-0.0192 1.62591-0.0192 0.53558 0 1.07118 0.0192 1.58764 0.0192 0.55472 0 1.12858 0.0382 1.66416 0.0382 0.19128 0 0.42084 0 0.42084-0.38256 0-0.21042-0.15303-0.21042-0.65037-0.21042-0.47821 0-0.72688 0-1.22421-0.0382-0.55472-0.0574-0.70774-0.11472-0.70774-0.42081 0-0.0192 0-0.11472 0.0765-0.4017z"/><path d="m-35.1718 276.32c0-1.26247-0.47821-2.00847-1.22421-2.00847-0.63123 0-1.01381 0.47821-1.01381 1.01381 0 0.51646 0.38258 1.01379 1.01381 1.01379 0.22954 0 0.47821-0.0765 0.66949-0.24867 0.0574-0.0382 0.0765-0.0574 0.0957-0.0574 0.0191 0 0.0382 0.0192 0.0382 0.28691 0 1.41551-0.6695 2.5632-1.30073 3.19443-0.2104 0.2104-0.2104 0.24868-0.2104 0.30605 0 0.13392 0.0956 0.21042 0.19128 0.21042 0.21041 0 1.74067-1.47288 1.74067-3.7109z"/><path d="m-18.5607 265.455c0.93728-1.492 1.74067-1.5494 2.44842-1.58765 0.22953-0.019 0.24865-0.34431 0.24865-0.36344 0-0.15296-0.0956-0.22954-0.24865-0.22954-0.49735 0-1.05207 0.0574-1.56853 0.0574-0.63123 0-1.28159-0.0574-1.8937-0.0574-0.11477 0-0.36344 0-0.36344 0.36344 0 0.21042 0.17216 0.22954 0.30607 0.22954 0.51646 0.0382 0.87988 0.22953 0.87988 0.63123 0 0.28693-0.28691 0.70775-0.28691 0.72688l-5.87238 9.33459-1.30072-10.1188c0-0.32518 0.43995-0.57385 1.31984-0.57385 0.26781 0 0.47821 0 0.47821-0.38256 0-0.17216-0.15303-0.21042-0.2678-0.21042-0.76512 0-1.58764 0.0574-2.3719 0.0574-0.3443 0-0.70774-0.0192-1.05205-0.0192-0.3443 0-0.70774-0.0382-1.03293-0.0382-0.1339 0-0.36344 0-0.36344 0.36344 0 0.22954 0.17216 0.22954 0.47821 0.22954 1.07119 0 1.09031 0.17216 1.1477 0.65037l1.51113 11.8021c0.0574 0.38257 0.13389 0.43995 0.38256 0.43995 0.30605 0 0.38256-0.0957 0.5356-0.34431z"/></g></g><g><rect x="6.41868" y="255.888" width="5.57107" height="62.749" rx="3.88909" ry="3.88909" fill="#6563e1"/><path d="m40.2065 302.91c0.781066-1.24333 1.45056-1.29116 2.04035-1.32304 0.19128-0.0159 0.207213-0.28692 0.207213-0.30287 0-0.12746-0.07969-0.19128-0.207213-0.19128-0.414453 0-0.87672 0.0479-1.30711 0.0479-0.526027 0-1.06799-0.0479-1.57808-0.0479-0.09564 0-0.302867 0-0.302867 0.30287 0 0.17535 0.143467 0.19128 0.255053 0.19128 0.430387 0.0319 0.73324 0.19128 0.73324 0.52603 0 0.2391-0.239093 0.58978-0.239093 0.60573l-4.89366 7.77883-1.08393-8.43238c0-0.27098 0.36663-0.47821 1.09986-0.47821 0.22318 0 0.39851 0 0.39851-0.3188 0-0.14347-0.12752-0.17535-0.22316-0.17535-0.6376 0-1.32304 0.0479-1.97658 0.0479-0.28692 0-0.58979-0.016-0.87671-0.016s-0.58979-0.0319-0.86078-0.0319c-0.11158 0-0.30286 0-0.30286 0.30287 0 0.19128 0.14346 0.19128 0.3985 0.19128 0.89266 0 0.90859 0.14347 0.95642 0.54197l1.25928 9.83511c0.0478 0.31881 0.11157 0.36663 0.3188 0.36663 0.25504 0 0.3188-0.0797 0.44633-0.28692z" fill="#dd3838" stroke-linejoin="round" stroke-miterlimit="1e5" stroke-width="1.33333"/><path d="m1.91637 300.079-8.6165 6.6328 8.6165 6.63281-1.55923-4.77818h17.1713l-1.55923 4.77818 8.6165-6.63281-8.6165-6.6328 1.55923 4.77818h-17.1713z" color="#000000" color-rendering="auto" dominant-baseline="auto" fill="#f00" image-rendering="auto" shape-rendering="auto" solid-color="#000000" style="font-feature-settings:normal;font-variant-alternates:normal;font-variant-caps:normal;font-variant-ligatures:normal;font-variant-numeric:normal;font-variant-position:normal;isolation:auto;mix-blend-mode:normal;shape-padding:0;text-decoration-color:#000000;text-decoration-line:none;text-decoration-style:solid;text-indent:0;text-orientation:mixed;text-transform:none;white-space:normal"/></g><path d="m40.9302 285.756c19.0866 0 38.1732-1e-5 57.2598-1e-5" fill="none" stroke="#555" stroke-dasharray="3, 3" stroke-linejoin="round" stroke-width="1.5"/><path d="m108.191 259.521c-0.0543 0-0.10785 3e-3 -0.16211 4e-3 -0.011 7e-5 -0.0222-7e-5 -0.0332 0v2e-3c-0.34838 3e-3 -0.69594 0.0113-1.04101 0.0274l-1.26563 4.49414a21.8774 21.8774 0 0 0 -2.87695 0.51953l-2.72851-3.76758c-0.331007 0.10759-0.658947 0.22356-0.984377 0.34375l-2e-3 -2e-3c-0.01648 6e-3 -0.03237 0.0134-0.04883 0.0195-0.03351 0.0125-0.06813 0.0226-0.10156 0.0352-0.13826 0.0521-0.27313 0.11143-0.41016 0.16601-0.18635 0.0736-0.37459 0.14288-0.55859 0.2207-0.04359 0.0184-0.08547 0.0399-0.12891 0.0586-0.31967 0.13755-0.63611 0.28015-0.94922 0.42969l0.63477 4.60546a21.8774 21.8774 0 0 0 -2.33789 1.50782l-3.91992-2.48047c-0.26584 0.22435-0.52643 0.4533-0.78321 0.6875-3e-3 2e-3 -5e-3 5e-3 -8e-3 8e-3 -0.0307 0.028-0.0632 0.0538-0.0937 0.082-0.1473 0.13605-0.28947 0.27832-0.43359 0.41797-0.10573 0.10176-0.21443 0.20076-0.31836 0.30469-0.0208 0.0208-0.0398 0.0435-0.0605 0.0644-0.0114 0.0114-0.0238 0.0217-0.0352 0.0332v2e-3c-0.24381 0.24664-0.48278 0.49801-0.71679 0.7539l2.31836 4.01172a21.8774 21.8774 0 0 0 -1.59375 2.2793l-4.57813-0.81641c-0.16177 0.30674-0.31646 0.6179-0.4668 0.93164-0.0205 0.0429-0.0442 0.0839-0.0644 0.12696-0.0789 0.16758-0.14947 0.33992-0.22461 0.50976-0.0665 0.14793-0.13792 0.29383-0.20117 0.44336-0.0174 0.0411-0.0317 0.0837-0.0488 0.125-3e-3 7e-3 -7e-3 0.0142-0.01 0.0215-0.13307 0.32082-0.26005 0.64384-0.38086 0.9707l3.64843 2.87109a21.8774 21.8774 0 0 0 -0.62695 2.86133l-4.54102 1.08398c-0.0298 0.34512-0.0513 0.69236-0.0683 1.04102h-2e-3c-1e-3 0.0233-8.7e-4 0.047-2e-3 0.0703-2e-3 0.0413-6e-3 0.0817-8e-3 0.12305-7e-3 0.17182-5e-3 0.34252-8e-3 0.51367-4e-3 0.17651-0.0137 0.35163-0.0137 0.5293 0 0.0413 4e-3 0.0818 4e-3 0.12305 1.1e-4 0.024-2e-3 0.0483-2e-3 0.0723l4e-3 2e-3c3e-3 0.34774 9e-3 0.69465 0.0254 1.03907l4.49414 1.26367a21.8774 21.8774 0 0 0 0.52149 2.88086l-3.76758 2.72851c0.10759 0.33095 0.22372 0.65895 0.34375 0.98438l-2e-3 2e-3c8e-3 0.0217 0.0173 0.0428 0.0254 0.0644 0.0103 0.0277 0.0189 0.0563 0.0293 0.084 0.0382 0.10143 0.0814 0.20016 0.1211 0.30078 0.0868 0.22349 0.17057 0.44787 0.26367 0.66797 0.15426 0.36471 0.32016 0.72206 0.49023 1.07812l4.60547-0.63476a21.8774 21.8774 0 0 0 1.50586 2.33594l-2.47851 3.92187c0.22343 0.26471 0.45407 0.52526 0.6875 0.78125v2e-3c0.0102 0.0112 0.021 0.022 0.0312 0.0332 0.0205 0.0224 0.0399 0.046 0.0605 0.0684 0.11449 0.12396 0.23463 0.24174 0.35157 0.36328 0.12338 0.12917 0.24293 0.26247 0.36914 0.38867 0.0215 0.0215 0.0448 0.0411 0.0664 0.0625 0.0101 0.0101 0.0191 0.0212 0.0293 0.0312h2e-3c0.24686 0.24408 0.49763 0.48438 0.75391 0.71875l4.01367-2.31836a21.8774 21.8774 0 0 0 2.2793 1.59375l-0.81641 4.57813c0.30674 0.16176 0.61791 0.31646 0.93164 0.46679 0.04287 0.0205 0.08394 0.0442 0.12696 0.0645 0.15548 0.0732 0.31521 0.13903 0.47265 0.20898 0.15973 0.0721 0.31692 0.14845 0.47852 0.2168 0.04695 0.0199 0.09545 0.0371 0.14257 0.0566 0.0019 7.9e-4 4e-3 9.5e-4 0.0059 2e-3 0.32036 0.13285 0.64435 0.26022 0.97071 0.38086l2.87304-3.65039a21.8774 21.8774 0 0 0 2.85743 0.62695l1.08789 4.54492c0.34462 0.0298 0.69059 0.0495 1.03906 0.0664v2e-3c0.0214 1e-3 0.0431 9.6e-4 0.0644 2e-3 0.0433 2e-3 0.0856 6e-3 0.12891 8e-3 0.17201 7e-3 0.34261 5e-3 0.51367 8e-3 0.1766 4e-3 0.35183 0.0137 0.5293 0.0137 0.0413 0 0.0818-4e-3 0.12304-4e-3 0.024-1.1e-4 0.0483 2e-3 0.0723 2e-3v-4e-3c0.34848-3e-3 0.69557-9e-3 1.04102-0.0254l1.26562-4.49609a21.8774 21.8774 0 0 0 2.87695 -0.52148l2.72852 3.76953c0.33151-0.10779 0.66036-0.22154 0.98633-0.3418 8e-3 -3e-3 0.0169-7e-3 0.0254-0.01 0.0407-0.0151 0.0825-0.0277 0.12304-0.043 0.13514-0.0509 0.26645-0.11052 0.4004-0.16407 0.1896-0.0746 0.38128-0.14351 0.56836-0.22265 0.3643-0.15408 0.72439-0.32037 1.08007-0.49024l-0.63672-4.60742a21.8774 21.8774 0 0 0 2.33789 -1.50586l3.92188 2.48047c0.26536-0.22399 0.52659-0.45345 0.7832-0.6875 3e-3 -2e-3 5e-3 -5e-3 8e-3 -8e-3 0.0306-0.028 0.0633-0.0539 0.0937-0.082 0.1292-0.11931 0.25248-0.24504 0.3789-0.36719 0.12408-0.11871 0.25173-0.23414 0.37305-0.35547 0.0286-0.0286 0.0555-0.0591 0.084-0.0879l0.01-0.01c0.24421-0.24724 0.48414-0.49931 0.71875-0.75586l-2.32031-4.01367a21.8774 21.8774 0 0 0 1.59179 -2.27734l4.58008 0.81836c0.16198-0.30713 0.31638-0.61967 0.4668-0.9336h2e-3c4e-3 -8e-3 6e-3 -0.0158 0.01-0.0234 0.0167-0.035 0.0362-0.0684 0.0527-0.10352 0.0729-0.15483 0.13931-0.31391 0.20899-0.4707 0.0723-0.16029 0.14809-0.31804 0.21679-0.48047 0.015-0.0354 0.0282-0.0719 0.043-0.10742 6e-3 -0.0137 0.0119-0.0273 0.0176-0.041l-2e-3 -2e-3c0.13256-0.31976 0.26241-0.64106 0.38281-0.9668l-3.65234-2.875a21.8774 21.8774 0 0 0 0.62695 -2.85742l4.54492-1.08594c0.0297-0.34474 0.0514-0.69243 0.0684-1.04101h2e-3c1e-3 -0.0227 9.1e-4 -0.0457 2e-3 -0.0684 2e-3 -0.0419 6e-3 -0.0831 8e-3 -0.125 7e-3 -0.18248 5e-3 -0.3635 8e-3 -0.54492 4e-3 -0.16622 0.0117-0.33106 0.0117-0.49805 0-0.042-4e-3 -0.0831-4e-3 -0.125-1.1e-4 -0.0233 2e-3 -0.047 2e-3 -0.0703h-2e-3c-3e-3 -0.34849-9e-3 -0.69556-0.0254-1.04102l-4.49804-1.26562a21.8774 21.8774 0 0 0 -0.51954 -2.875l3.76954-2.73047c-0.10759-0.33095-0.22371-0.65894-0.34375-0.98438l2e-3 -2e-3c-8e-3 -0.0209-0.0157-0.0416-0.0234-0.0625-0.0106-0.0285-0.0205-0.0575-0.0312-0.0859-0.0477-0.12648-0.10236-0.24955-0.15234-0.375-0.0777-0.19825-0.15168-0.39821-0.23438-0.59375-0.0184-0.0435-0.0399-0.0855-0.0586-0.12891-0.13786-0.31973-0.28012-0.63797-0.42969-0.95117l-4.60742 0.63672a21.8774 21.8774 0 0 0 -1.50586 -2.33789l2.48047-3.92187c-0.22418-0.2656-0.45338-0.52651-0.6875-0.78321-2e-3 -3e-3 -5e-3 -5e-3 -8e-3 -8e-3 -0.028-0.0307-0.0538-0.0632-0.082-0.0937-0.11932-0.12919-0.24504-0.2525-0.36719-0.37891-0.11866-0.12403-0.23405-0.25161-0.35547-0.37304-0.0286-0.0287-0.0591-0.0555-0.0879-0.084-3e-3 -3e-3 -7e-3 -6e-3 -0.01-0.01-0.24725-0.24421-0.4993-0.48414-0.75586-0.71875l-4.01367 2.32031a21.8774 21.8774 0 0 0 -2.27734 -1.59375l0.8164-4.58008c-0.30695-0.16188-0.61766-0.31665-0.93164-0.46679-7e-3 -3e-3 -0.013-7e-3 -0.0195-0.01-0.0361-0.0172-0.0712-0.0357-0.10742-0.0527-0.15856-0.0746-0.3219-0.14145-0.48242-0.2129-0.15698-0.0704-0.31193-0.14573-0.4707-0.21289-0.0347-0.0147-0.0707-0.0265-0.10547-0.041-0.0145-6e-3 -0.0284-0.0135-0.043-0.0195l-2e-3 2e-3c-0.3203-0.13298-0.64237-0.2622-0.96875-0.38281l-2.87109 3.65039a21.8774 21.8774 0 0 0 -2.85937 -0.62696l-1.08399-4.54296c-0.34512-0.0298-0.69235-0.0511-1.04101-0.0684-7e-3 -3.3e-4 -0.0144 3.2e-4 -0.0215 0-0.0576-3e-3 -0.11412-9e-3 -0.17187-0.0117-0.17248-7e-3 -0.34381-5e-3 -0.51563-8e-3 -0.17585-4e-3 -0.35033-0.0137-0.52734-0.0137z" fill="#555"/><path transform="scale(-1,1)" d="m-95.6954 285.756a12.5511 12.5511 0 0 1 -9.30266 12.1234 12.5511 12.5511 0 0 1 -14.1181 -5.84789 12.5511 12.5511 0 0 1 1.99461 -15.1505 12.5511 12.5511 0 0 1 15.1506 -1.99461" fill="none" stroke="#fff" stroke-linejoin="round" stroke-width="2.8"/><path transform="scale(-1,1)" d="m-94.2414 279.365h-10.4682l5.2341-9.06572z" fill="#fff"/><path d="m10.5725 284.687h42.0728" fill="none" stroke="#6261dd" stroke-linejoin="round" stroke-width="10"/><path d="m124.778 323.289c-0.19128 0.746-0.22953 0.89902-1.74067 0.89902-0.32518 0-0.5356 0-0.5356 0.36344 0 0.22954 0.17216 0.22954 0.5356 0.22954h6.33146c3.97869 0 7.74696-4.03607 7.74696-8.22515 0-2.69709-1.62591-4.83946-4.49515-4.83946h-6.42711c-0.36342 0-0.57384 0-0.57384 0.36344 0 0.22954 0.17216 0.22954 0.55472 0.22954 0.24867 0 0.59298 0.0192 0.82251 0.0382 0.30605 0.0382 0.42082 0.0957 0.42082 0.30604 0 0.0765-0.019 0.13392-0.0765 0.36344zm4.13172-10.2528c0.17214-0.66949 0.2104-0.72688 1.03292-0.72688h2.04672c1.87458 0 3.46223 1.01379 3.46223 3.53873 0 0.93728-0.38258 4.07432-2.00848 6.17843-0.55472 0.70775-2.06586 2.16149-4.41863 2.16149h-2.16148c-0.26781 0-0.30607 0-0.42084-0.0192-0.19128-0.0192-0.24867-0.0382-0.24867-0.19128 0-0.0574 0-0.0957 0.0957-0.43995z" stroke-linejoin="round" stroke-miterlimit="1e5" stroke-width="1.33333"/></g></svg>
