<?xml version="1.0" encoding="UTF-8"?>
<svg width="182.744" height="121.776" version="1.1" viewBox="0 0 182.74393 121.77589" xmlns="http://www.w3.org/2000/svg"><path d="m0.5 0.5v120.776h181.744v-120.776z" color="#000000" color-rendering="auto" dominant-baseline="auto" fill="#e5e5e5" image-rendering="auto" shape-rendering="auto" solid-color="#000000" style="font-feature-settings:normal;font-variant-alternates:normal;font-variant-caps:normal;font-variant-ligatures:normal;font-variant-numeric:normal;font-variant-position:normal;isolation:auto;mix-blend-mode:normal;shape-padding:0;text-decoration-color:#000000;text-decoration-line:none;text-decoration-style:solid;text-indent:0;text-orientation:mixed;text-transform:none;white-space:normal"/><path d="m115.833 77.462h-105.293v-65.3492h105.293" fill="#fff"/><path d="m138.64 77.862h-128.356v-65.899h128.356" fill="none" stroke="#555" stroke-width="3.56749"/><g stroke-linejoin="round"><g stroke-miterlimit="1e5" stroke-width="1.33333"><path d="m28.2088 22.328c0.13389-0.53559 0.2104-0.65036 0.43995-0.70775 0.17215-0.0382 0.80338-0.0382 1.20508-0.0382 1.93195 0 2.79273 0.0765 2.79273 1.56853 0 0.28691-0.0765 1.03291-0.15304 1.53026-0.0191 0.0765-0.0574 0.30604-0.0574 0.36344 0 0.11472 0.0574 0.24865 0.22953 0.24865 0.21042 0 0.24867-0.15296 0.28693-0.43993l0.51646-3.32832c0.0191-0.0765 0.0383-0.26781 0.0383-0.32519 0-0.21041-0.19128-0.21041-0.51646-0.21041h-10.6162c-0.45907 0-0.4782 0.0192-0.61209 0.38256l-1.14771 3.36657c-0.0191 0.0382-0.11477 0.30607-0.11477 0.34432 0 0.11472 0.0956 0.2104 0.22954 0.2104 0.19129 0 0.21041-0.0957 0.32518-0.40168 1.03293-2.96489 1.53027-3.3092 4.36125-3.3092h0.746c0.5356 0 0.5356 0.0765 0.5356 0.22954 0 0.11472-0.0574 0.34432-0.0765 0.4017l-2.56318 10.2145c-0.17216 0.70775-0.22955 0.91816-2.27627 0.91816-0.68862 0-0.80339 0-0.80339 0.36344 0 0.22954 0.21041 0.22954 0.32518 0.22954 0.51646 0 1.05206-0.0382 1.56851-0.0382 0.5356 0 1.09032-0.0192 1.62591-0.0192 0.53558 0 1.07118 0.0192 1.58764 0.0192 0.55472 0 1.12858 0.0382 1.66416 0.0382 0.19128 0 0.42084 0 0.42084-0.38256 0-0.21042-0.15303-0.21042-0.65037-0.21042-0.47821 0-0.72688 0-1.22421-0.0382-0.55472-0.0574-0.70774-0.11472-0.70774-0.42081 0-0.0192 0-0.11472 0.0765-0.4017z"/><path d="m36.6553 33.92c0-1.26247-0.47821-2.00847-1.22421-2.00847-0.63123 0-1.01381 0.47821-1.01381 1.01381 0 0.51646 0.38258 1.01379 1.01381 1.01379 0.22954 0 0.47821-0.0765 0.66949-0.24867 0.0574-0.0382 0.0765-0.0574 0.0957-0.0574 0.0191 0 0.0382 0.0192 0.0382 0.28691 0 1.41551-0.6695 2.5632-1.30073 3.19443-0.2104 0.2104-0.2104 0.24868-0.2104 0.30605 0 0.13392 0.0956 0.21042 0.19128 0.21042 0.21041 0 1.74067-1.47288 1.74067-3.7109z"/><path d="m53.2664 23.055c0.93728-1.492 1.74067-1.54939 2.44842-1.58765 0.22953-0.019 0.24865-0.34431 0.24865-0.36344 0-0.15296-0.0956-0.22954-0.24865-0.22954-0.49735 0-1.05207 0.0574-1.56853 0.0574-0.63123 0-1.28159-0.0574-1.8937-0.0574-0.11477 0-0.36344 0-0.36344 0.36344 0 0.21042 0.17216 0.22954 0.30607 0.22954 0.51646 0.0382 0.87988 0.22954 0.87988 0.63123 0 0.28693-0.28691 0.70774-0.28691 0.72688l-5.87238 9.33459-1.30072-10.1188c0-0.32518 0.43995-0.57385 1.31984-0.57385 0.26781 0 0.47821 0 0.47821-0.38256 0-0.17216-0.15303-0.21042-0.2678-0.21042-0.76512 0-1.58764 0.0574-2.3719 0.0574-0.3443 0-0.70774-0.0192-1.05205-0.0192-0.3443 0-0.70774-0.0382-1.03293-0.0382-0.1339 0-0.36344 0-0.36344 0.36344 0 0.22954 0.17216 0.22954 0.47821 0.22954 1.07119 0 1.09031 0.17216 1.1477 0.65037l1.51113 11.8021c0.0574 0.38257 0.13389 0.43995 0.38256 0.43995 0.30605 0 0.38256-0.0957 0.5356-0.34431z"/></g><path d="m117.17 42.287h57.0729" fill="none" stroke="#6261dd" stroke-width="10"/></g><rect x="113.016" y="13.62" width="5.57107" height="62.5529" rx="3.88909" ry="3.88909" fill="#6563e1"/><path d="m146.804 58.742c0.78107-1.24333 1.45056-1.29116 2.04035-1.32304 0.19128-0.0159 0.20721-0.28692 0.20721-0.30287 0-0.12746-0.0797-0.19128-0.20721-0.19128-0.41445 0-0.87672 0.0479-1.30711 0.0479-0.52603 0-1.06799-0.0479-1.57808-0.0479-0.0956 0-0.30287 0-0.30287 0.30287 0 0.17535 0.14347 0.19128 0.25506 0.19128 0.43038 0.0319 0.73324 0.19128 0.73324 0.52603 0 0.2391-0.2391 0.58978-0.2391 0.60573l-4.89366 7.77883-1.08393-8.43238c0-0.27098 0.36663-0.47821 1.09986-0.47821 0.22318 0 0.39851 0 0.39851-0.3188 0-0.14347-0.12752-0.17535-0.22316-0.17535-0.6376 0-1.32304 0.0479-1.97658 0.0479-0.28692 0-0.58979-0.016-0.87671-0.016s-0.58979-0.0319-0.86078-0.0319c-0.11158 0-0.30286 0-0.30286 0.30287 0 0.19128 0.14346 0.19128 0.3985 0.19128 0.89266 0 0.90859 0.14347 0.95642 0.54197l1.25928 9.83511c0.0478 0.31881 0.11157 0.36663 0.3188 0.36663 0.25504 0 0.3188-0.0797 0.44633-0.28692z" fill="#dd3838" stroke-linejoin="round" stroke-miterlimit="1e5" stroke-width="1.33333"/><path d="m108.514 55.911-8.6165 6.6328 8.6165 6.63281-1.55923-4.77818h17.1713l-1.55923 4.77818 8.6165-6.63281-8.6165-6.6328 1.55923 4.77818h-17.1713z" color="#000000" color-rendering="auto" dominant-baseline="auto" fill="#f00" image-rendering="auto" shape-rendering="auto" solid-color="#000000" style="font-feature-settings:normal;font-variant-alternates:normal;font-variant-caps:normal;font-variant-ligatures:normal;font-variant-numeric:normal;font-variant-position:normal;isolation:auto;mix-blend-mode:normal;shape-padding:0;text-decoration-color:#000000;text-decoration-line:none;text-decoration-style:solid;text-indent:0;text-orientation:mixed;text-transform:none;white-space:normal"/><g stroke-width=".149879"><path d="m45.4928 112.186c-7.976-0.18364-9.9745-2.54971-8.52325-8.19005 1.20695-4.6909-1.1601-7.9845-1.05598-8.19005 0 0 3.51686 4.37894 3.24336 7.14768-0.280186 2.83638 1.72796 4.04313 1.65939 4.02057-0.0067-0.0217-2.07925-4.47824-0.377135-6.7754 2.70017-3.6441 4.90276-5.65858 1.9611-9.97698s-7.99526-6.40313-7.99526-6.40313 17.7065-1.0705 18.555 11.0193c0.154634 2.20315 0.13652 1.32604-0.75427 4.69066-0.996296 3.76313-0.603416 2.82929-0.603416 2.82929 0.03134-0.29907 3.44523-2.79492 3.9222-4.39284 1.85419-6.21184-0.226281-10.3492-0.226281-10.3492s6.55311 9.00334 1.43311 16.9013c-5.11107 7.88416-5.30124 7.80557-11.2386 7.66887z" fill="#ff4e4e"/><path d="m43.8372 111.598c6.21887-0.14319 7.77708-1.98801 6.64556-6.38577-0.941059-3.65748 0.904523-6.2255 0.823344-6.38577 0 0-2.74209 3.41426-2.52884 5.57303 0.218461 2.21151-1.34728 3.15243-1.29382 3.13483 0.0052-0.017 1.6212-3.49167 0.29405-5.28276-2.10532-2.8413-3.82267-4.41198-1.52907-7.77902 2.2936-3.36703 6.23389-4.9925 6.23389-4.9925s-13.8057-0.834667-14.4673 8.59175c-0.120569 1.71778-0.106446 1.03391 0.588103 3.6573 0.776807 2.93411 0.47048 2.206 0.47048 2.206-0.02444-0.23319-2.68624-2.1792-3.05813-3.4251-1.44571-4.84335 0.176429-8.06928 0.176429-8.06928s-5.10944 7.01989-1.11739 13.1779c3.98508 6.14726 4.13337 6.08598 8.76272 5.97939z" fill="#ffae55"/><path d="m46.8114 111.97c-3.70167-0.0852-4.62918-1.18333-3.95565-3.80102 0.56015-2.17706-0.538402-3.70562-0.49008-3.80102 0 0 1.63218 2.03228 1.50525 3.31726-0.130034 1.31636 0.801948 1.87643 0.770128 1.86594-0.0031-0.0101-0.964987-2.07836-0.17503-3.14447 1.25315-1.69123 2.27538-2.62616 0.910152-4.63033-1.36523-2.00416-3.71062-2.9717-3.71062-2.9717s8.21761-0.496822 8.61142 5.11409c0.07177 1.02248 0.06336 0.61542-0.350058 2.17694-0.462381 1.74648-0.280045 1.31308-0.280045 1.31308 0.01454-0.1388 1.59893-1.29712 1.8203-2.03872 0.860534-2.88293-0.105017-4.80311-0.105017-4.80311s3.04131 4.17846 0.66511 7.84391c-2.37206 3.65906-2.46031 3.62258-5.21587 3.55912z" fill="#fff9bf"/></g><path d="m21.4794 83.14a7.31642 7.22214 0 0 0 -7.31642 7.22214 7.31642 7.22214 0 0 0 2.54065 5.46604 9.27752 9.15796 0 0 0 -4.32497 7.74012 9.27752 9.15796 0 0 0 4.13109 7.61156h10.297a9.27752 9.15796 0 0 0 4.12697 -7.61156 9.27752 9.15796 0 0 0 -4.5436 -7.86373 7.31642 7.22214 0 0 0 2.40571 -5.34245 7.31642 7.22214 0 0 0 -7.31642 -7.22213z" fill="#fefefe" stroke="#464bb1" stroke-linejoin="round" stroke-miterlimit="100" stroke-width="1.733"/><rect x="20.1715" y="88.0533" width="1.28004" height="4.36585" fill="#464bb1" stroke-width=".149879"/><rect x="24.759" y="88.0533" width="1.28004" height="4.36585" fill="#464bb1" stroke-width=".149879"/><path d="m65.3337 85.449 6.6328 8.6165 6.63281-8.6165-4.77818 1.55923v-17.1713l4.77818 1.55923-6.63281-8.6165-6.6328 8.6165 4.77818-1.55923v17.1713z" color="#000000" color-rendering="auto" dominant-baseline="auto" fill="#f00" image-rendering="auto" shape-rendering="auto" solid-color="#000000" style="font-feature-settings:normal;font-variant-alternates:normal;font-variant-caps:normal;font-variant-ligatures:normal;font-variant-numeric:normal;font-variant-position:normal;isolation:auto;mix-blend-mode:normal;shape-padding:0;text-decoration-color:#000000;text-decoration-line:none;text-decoration-style:solid;text-indent:0;text-orientation:mixed;text-transform:none;white-space:normal"/><path d="m72.6599 108.409c2.47073-0.94048 4.81395-3.77784 4.81395-6.8543 0-2.56638-1.68965-4.28792-4.06475-4.28792-3.44309 0-6.94994 3.61843-6.94994 7.3325 0 2.64608 1.7853 4.25604 4.0807 4.25604 0.398507 0 0.940467-0.0637 1.56213-0.2391-0.06376 0.9883-0.06376 1.02018-0.06376 1.22739 0 0.51009 0 1.75343 1.32304 1.75343 1.89689 0 2.66201-2.91706 2.66201-3.0924 0-0.1116-0.111574-0.1594-0.175334-0.1594-0.12752 0-0.1594 0.0797-0.19128 0.17534-0.382573 1.13175-1.30711 1.53026-1.86501 1.53026-0.733253 0-0.972346-0.43039-1.13176-1.64184zm-3.01269-0.12747c-1.24335-0.49415-1.78531-1.73749-1.78531-3.17211 0-1.09988 0.41444-3.36338 1.62591-5.08493 1.16363-1.62591 2.66201-2.35915 3.82565-2.35915 1.59401 0 2.75765 1.24334 2.75765 3.37932 0 1.59403-0.812946 5.32404-3.49091 6.82242-0.07971-0.55791-0.239107-1.72154-1.40275-1.72154-0.844826 0-1.62589 0.797-1.62589 1.6259 0 0.31881 0.09564 0.49414 0.09564 0.51009zm0.988293 0.17533c-0.223173 0-0.733253 0-0.733253-0.68542 0-0.6376 0.605733-1.27522 1.27521-1.27522s0.97236 0.38256 0.97236 1.35492c0 0.23911-0.01595 0.25504-0.175346 0.3188-0.41444 0.17535-0.892654 0.28692-1.33897 0.28692z" fill="#dd3838" stroke-linejoin="round" stroke-miterlimit="1e5" stroke-width="1.33333"/></svg>
