<?xml version="1.0" encoding="UTF-8"?>
<svg width="173.748" height="199.39" version="1.1" viewBox="0 0 173.74748 199.39061" xmlns="http://www.w3.org/2000/svg">
 <path d="m38.6402 23.311v142.799h36.1094v-45.6914c6.8e-4 21.1121 17.1147 38.2266 38.2266 38.2266h30.3496v10.4941l29.9219-22.25-29.9219-22.25v10.4942h-30.3496c-8.12703-2.7e-4 -14.7147-6.58776-14.7149-14.7148v-97.1074z" fill="#b0cbb0"/>
 <g transform="translate(-.00198061 -.00149955)" stroke-width="1.33334">
  <path d="m16.7521 149.767c2.96489-1.12857 5.77675-4.53343 5.77675-8.22516 0-3.07968-2.0276-5.14549-4.87771-5.14549-4.13171 0-8.33995 4.34211-8.33995 8.79897 0 3.1753 2.14239 5.10728 4.89687 5.10728 0.478186 0 1.12857-0.0767 1.87453-0.28687-0.07635 1.18594-0.07635 1.22423-0.07635 1.47289 0 0.61209 0 2.1041 1.58767 2.1041 2.27626 0 3.19442-3.50049 3.19442-3.7109 0-0.13379-0.133795-0.19124-0.210519-0.19124-0.153071 0-0.191245 0.0956-0.229418 0.21052-0.459099 1.35814-1.56854 1.83632-2.23805 1.83632-0.879874 0-1.16682-0.51643-1.3581-1.97019zm-3.61523-0.15307c-1.49201-0.59297-2.14235-2.08498-2.14235-3.80651 0-1.31989 0.49731-4.03609 1.95107-6.10194 1.39635-1.95111 3.19442-2.83098 4.59081-2.83098 1.91278 0 3.30917 1.492 3.30917 4.05521 0 1.91282-0.975534 6.38884-4.18908 8.18687-0.09562-0.66946-0.286867-2.06585-1.68329-2.06585-1.01382 0-1.95111 0.95641-1.95111 1.95111 0 0.38256 0.114897 0.59297 0.114897 0.61209zm1.18594 0.21052c-0.267969 0-0.879875 0-0.879875-0.8225 0-0.76513 0.726879-1.53026 1.53026-1.53026s1.16682 0.45907 1.16682 1.62588c0 0.28687-0.0189 0.30614-0.21052 0.38257-0.497348 0.21052-1.07119 0.34431-1.60679 0.34431z" fill="#00f"/>
  <path d="m32.1575 149.226h-0.455244c-0.147402 1.31221-0.348095 3.0395-2.87883 3.0395h-1.33897c-0.629291 0-0.642671-0.10696-0.642671-0.52222v-7.04304c0-0.44183 0-0.61591 1.25862-0.61591h0.468624v-0.48204c-0.281197 0.0151-1.99506 0.0537-2.3432 0.0537-0.5088 0-2.02186-0.0537-2.03524-0.0537v0.48204h0.32126c1.03102 0 1.05782 0.13379 1.05782 0.60253v6.97611c0 0.45524-0.02646 0.60253-1.05782 0.60253h-0.32126v0.48204h7.56522z" fill="#00f"/>
  <path d="m16.7547 59.1717c2.96489-1.12857 5.77675-4.53343 5.77675-8.22516 0-3.07967-2.0276-5.14549-4.87771-5.14549-4.13171 0-8.33995 4.34211-8.33995 8.79897 0 3.1753 2.14239 5.10728 4.89687 5.10728 0.478186 0 1.12853-0.07673 1.87453-0.286867-0.07635 1.18594-0.07635 1.22423-0.07635 1.47288 0 0.612095 0 2.1041 1.58767 2.1041 2.27626 0 3.19438-3.50049 3.19438-3.71089 0-0.133796-0.133796-0.191245-0.21052-0.191245-0.153071 0-0.191244 0.09562-0.229417 0.21052-0.459062 1.35814-1.5685 1.83632-2.23801 1.83632-0.879875 0-1.16682-0.516435-1.3581-1.97019zm-3.61523-0.153071c-1.49201-0.592971-2.14239-2.08498-2.14239-3.80652 0-1.31989 0.497349-4.03608 1.95111-6.10194 1.39635-1.95111 3.19442-2.83098 4.59077-2.83098 1.91282 0 3.30921 1.49201 3.30921 4.05521 0 1.91282-0.975535 6.38884-4.18908 8.18688-0.09562-0.669468-0.286866-2.06585-1.68333-2.06585-1.01378 0-1.95107 0.95641-1.95107 1.95111 0 0.382564 0.114898 0.59297 0.114898 0.612095zm1.18594 0.210519c-0.267969 0-0.879912 0-0.879912-0.822501 0-0.765128 0.726879-1.53026 1.53026-1.53026s1.16685 0.459062 1.16685 1.62588c0 0.286867-0.0189 0.306142-0.21052 0.382564-0.497348 0.21052-1.07119 0.344315-1.60679 0.344315z" fill="#f00"/>
  <path d="m32.5871 54.092c0-0.455244 0.02646-0.602532 1.05778-0.602532h0.32126v-0.482042c-0.669468 0.02646-1.52644 0.05367-2.00844 0.05367-0.495421 0-1.35239-0.02646-2.02186-0.05367v0.482042h0.32126c1.03102 0 1.05782 0.133795 1.05782 0.602532v3.06626h-4.4722v-3.06626c0-0.455244 0.02646-0.602532 1.05778-0.602532h0.32126v-0.482042c-0.669468 0.02646-1.52644 0.05367-2.00848 0.05367-0.495421 0-1.35235-0.02646-2.02186-0.05367v0.482042h0.32126c1.03102 0 1.05778 0.133795 1.05778 0.602532v6.97611c0 0.455244-0.02646 0.602532-1.05778 0.602532h-0.32126v0.482041c0.669506-0.02646 1.52644-0.05367 2.00848-0.05367 0.495421 0 1.35239 0.02646 2.02186 0.05367v-0.482041h-0.32126c-1.03098 0-1.05778-0.133795-1.05778-0.602532v-3.42781h4.4722v3.42781c0 0.455244-0.02646 0.602532-1.05782 0.602532h-0.32126v0.482041c0.669469-0.02646 1.52644-0.05367 2.00844-0.05367 0.49542 0 1.35239 0.02646 2.02186 0.05367v-0.482041h-0.32126c-1.03102 0-1.05778-0.133795-1.05778-0.602532z" fill="#f00"/>
 </g>
 <path d="m166.82 115.307c0.47825-0.84165 0.93729-1.53026 2.14241-1.62591 0.17216-0.0191 0.36336-0.0191 0.36336-0.38256 0-0.0765-0.0765-0.21041-0.22944-0.21041-0.4592 0-0.99472 0.0574-1.47296 0.0574-0.6504 0-1.35809-0.0574-1.98929-0.0574-0.11488 0-0.36349 0-0.36349 0.36344 0 0.21041 0.17213 0.22953 0.28685 0.22953 0.4592 0.0191 1.12864 0.17216 1.12864 0.746 0 0.21042-0.0957 0.36344-0.24864 0.63123l-5.16466 9.00943-0.70774-9.48763c-0.0191-0.38256-0.0574-0.87989 1.33898-0.89903 0.32518 0 0.51646 0 0.51646-0.38256 0-0.19128-0.21042-0.21041-0.28693-0.21041-0.76512 0-1.56851 0.0574-2.33365 0.0574-0.43995 0-1.56851-0.0574-2.00846-0.0574-0.11477 0-0.36344 0-0.36344 0.38256 0 0.21041 0.19128 0.21041 0.45909 0.21041 0.84163 0 0.97553 0.11477 1.01379 0.47821l0.11477 1.47288-4.83946 8.43557-0.72686-9.69803c0-0.22956 0-0.66949 1.45374-0.68863 0.19128 0 0.4017 0 0.4017-0.38256 0-0.21041-0.22954-0.21041-0.2678-0.21041-0.76513 0-1.56852 0.0574-2.35278 0.0574-0.66949 0-1.35811-0.0574-2.00847-0.0574-0.0956 0-0.34431 0-0.34431 0.36344 0 0.22953 0.17216 0.22953 0.47821 0.22953 0.95641 0 0.97555 0.17216 1.0138 0.70775l0.86077 11.6874c0.0191 0.34431 0.0383 0.49734 0.30605 0.49734 0.22953 0 0.28693-0.11477 0.45909-0.4017l5.62371-9.75541 0.70774 9.65977c0.0383 0.4017 0.0765 0.49734 0.30605 0.49734 0.24867 0 0.36344-0.19129 0.45907-0.36344z" fill="#008000" stroke-width="1.33333"/>
 <rect x=".499642" y="164.092" width="121.43" height="34.7991" fill="#e2e2f1" stroke-width="3.77953"/>
 <path d="m0.499627 164.092h121.43v34.7991" fill="none" stroke="#2f2f76" stroke-width=".999999px"/>
 <g transform="translate(-.00198061 -.00149955)" fill="#2f2f76" stroke-width="3.14961">
  <path d="m80.8393 189.673v-8.46093q-0.773443 1.42969-1.6797 2.49997l-0.734363-0.61716q2.75781-4.18753 3.52343-7.73439l1.22657 0.1954q-0.531251 1.84373-1.68748 4.375h0.54686v9.74219zm2.0078-2.46875-0.164031-1.00781q0.312567-0.0469 1.25-0.2109v-9.2578q1.24997-0.0151 4.10155-0.42191 2.85936-0.40623 4.07811-0.79688l0.58594 0.97659q-0.812485 0.21884-3.02344 0.54686-0.01512 0.66407-0.01512 1.16406 0 1.10158 0.0548 2.14065h3.6875v0.97656h-3.62502q0.249827 3.05469 1.15627 4.92185 0.906256 1.85938 1.44529 1.85938 0.351496 0 0.429694-0.52343 0.0858-0.52342 0.187465-1.94532l0.976555 0.1406q-0.0858 2.08596-0.336 2.89062-0.242268 0.8047-1.0625 0.8047-0.43748 0-0.867175-0.2657t-1.02346-0.98438q-0.593726-0.72658-1.07811-1.8672-0.476561-1.14063-0.710929-2.57813-0.234331-1.43747-0.328064-2.45311h-3.43748v4.46095q2.27342-0.4297 3.21872-0.67189l0.06236 0.97655q-0.69532 0.24227-5.56252 1.12502zm2.28129-9.62499v2.75781h3.37497q-0.04687-1.04689-0.04687-3.13281-2.10157 0.2812-3.3281 0.37493zm-1.48441 11.6016v-0.9922h5.99222v0.9922z"/>
  <path d="m98.0437 178.493q-1.26561-1.14845-2.53126-2.10157l0.820347-0.82031q1.74217 1.25782 2.53123 1.99219zm1.71096 3.29688v-5.92188h8.52345v5.92188zm1.17967-3.4297h6.18751v-1.56249h-6.18751zm6.18751 0.89843h-6.18751v1.58597h6.18751zm-10.125 2.96875q-1.08597-1.03903-2.56252-2.08592l0.789052-0.88283q1.51563 1.08594 2.59378 2.00784zm1.21092 6.96877v-0.97655h0.992202v-5.05471h9.76563v5.05471h0.91404v0.97655zm2.21873-0.97655h1.66409v-4.12502h-1.66409zm2.80472 0h1.63279v-4.12502h-1.63279zm2.78124 0h1.72656v-4.12502h-1.72656zm-10.2031 0.96094-1.04685-0.71875q0.64063-0.78127 1.49216-2.41406 0.859389-1.64066 1.26565-2.77346l1.04685 0.39062q-0.281197 1.00781-1.1328 2.69533-0.851566 1.68748-1.62501 2.82032z"/>
 </g>
 <rect transform="scale(1,-1)" x=".499642" y="-35.2992" width="121.43" height="34.7991" fill="#efe3e3" stroke-width="3.77953"/>
 <path d="m0.499627 35.2991h121.43v-34.7991" fill="none" stroke="#b32d38" stroke-width=".999999px"/>
 <g transform="translate(-.00198061 -.00149955)" fill="#b32d38" stroke-width="3.14961">
  <path d="m79.0062 13.8556v-0.91408h6.51564v-1.10937h1.3203v1.10937h6.59377v0.91408zm2.125 4.14841v-2.97657h10.3281v2.97657zm9.1719-2.17187h-8.00002v1.36721h8.00002zm1.27344 10.1016h-1.81251l-0.164032-1.03128h1.4219q0.61716 0 0.61716-0.523427v-4.3047h-10.7656v5.95314h-1.24218v-6.85157h13.25v5.66408q0 0.499994-0.36737 0.796876-0.359434 0.296693-0.937475 0.296693zm-7.4922-1.4219v0.390615h-1.14062v-3.6875h6.57812v3.29688zm4.27344-2.47658h-4.27344v1.62501h4.27344z"/>
  <path d="m98.0437 14.9517q-1.26561-1.14841-2.53126-2.10153l0.820347-0.820347q1.74217 1.25783 2.53123 1.99219zm1.71096 3.29688v-5.92188h8.52345v5.92188zm1.17967-3.4297h6.18751v-1.5625h-6.18751zm6.18751 0.898469h-6.18751v1.58593h6.18751zm-10.125 2.96875q-1.08597-1.03907-2.56252-2.08596l0.789052-0.882785q1.51563 1.08594 2.59378 2.0078zm1.21092 6.96874v-0.976555h0.992202v-5.05471h9.76563v5.05471h0.91404v0.976555zm2.21873-0.976555h1.66409v-4.12502h-1.66409zm2.80472 0h1.63279v-4.12502h-1.63279zm2.78124 0h1.72656v-4.12502h-1.72656zm-10.2031 0.960945-1.04685-0.718753q0.64063-0.781266 1.49216-2.41406 0.859389-1.64062 1.26565-2.77346l1.04685 0.390652q-0.281197 1.00781-1.1328 2.6953-0.851566 1.68748-1.62501 2.82032z"/>
 </g>
 <g fill="#458547">
  <path d="m68.45 112.708-29.8091-24.2272v-31.1973h59.6205v31.1973z"/>
  <path d="m68.4515 116.092-29.8105-24.2266v-2.47584l29.8105 24.2285 29.8105-24.2285v2.47584z"/>
  <path d="m68.4515 120.419-29.8105-24.2266v-2.47584l29.8105 24.2285 29.8105-24.2285v2.47584z"/>
 </g>
 <g transform="translate(-.00198061 -.981406)" fill="#fff" stroke-width="3.14961" aria-label="熱機関">
  <path d="m57.5606 79.2154q-0.322266-0.350911-0.837892-0.809245-0.651693 1.58268-2.32031 2.97201l-0.644532-0.623048q1.49675-1.16732 2.14128-3.07227-0.666016-0.565756-1.23177-1.0026l0.58724-0.623048q0.264974 0.200521 0.895183 0.687501 0.121745-0.637371 0.121745-1.31771v-0.88086h-1.4681v-0.809245h1.4681v-2.12696h1.11003v2.12696h2.16276v4.2181q0 0.716147 0.136068 1.46094 0.14323 0.744793 0.515626 0.744793 0.222005 0 0.315104-0.322266 0.0931-0.322266 0.171875-1.48242l0.737631 0.136068q-0.05729 1.36068-0.157552 1.80469-0.10026 0.436849-0.408203 0.673177-0.300782 0.236329-0.644532 0.24349-0.866538 0-1.26042-0.959636-0.393881-0.966798-0.422527-2.95768v-2.75h-1.21029q0 1.73308-0.286459 2.90756 0.888022 0.730469 1.1888 1.06706zm-10.0547-1.71159-0.272136-0.63737q1.72591-0.544272 2.1556-1.89063h-1.76172v-0.773438h2.76432v-0.945314h-2.34896v-0.759115h2.34896v-0.766277h1.03125v0.766277h2.39193v0.759115h-2.39193v0.945314h2.67839v0.773438h-1.96224v0.973959q0 0.372396 0.479818 0.372396h0.601563q0.494141 0 0.494141-0.458333v-0.365235l0.730469 0.06445v0.594402q0 0.307943-0.164713 0.508464-0.164714 0.200521-0.372396 0.272135-0.207683 0.06445-0.716147 0.06445-1.03841 0-1.26042-0.02865-0.214844-0.03581-0.436849-0.236329-0.222006-0.207682-0.222006-0.472656v-1.28906h-0.938152q-0.315104 1.00977-1.12435 1.67578-0.809245 0.658855-1.70443 0.852214zm6.30925 3.02214q-1.23177 0.24349-6.11589 0.7806l-0.193359-0.93099q1.0599-0.06445 2.82878-0.24349v-1.36784h-2.34896v-0.794923h2.34896v-0.973959h1.03125v0.973959h2.40625v0.794923h-2.40625v1.25326q1.64714-0.186198 2.46354-0.315104zm5.7793 3.81706q-1.05274-1.92643-1.66146-2.73568l0.973959-0.43685q0.250651 0.315105 0.902345 1.33203 0.651693 1.01693 0.859375 1.42513zm-7.56967 0.0931q-0.236328-1.29623-0.723308-2.60677l1.06706-0.222005q0.608724 1.83334 0.773438 2.59961zm3.60222 0q-0.143229-0.508465-0.988282-2.54948l1.03125-0.279297q0.737631 1.41797 1.08138 2.55664zm-7.25456 0.128907-0.945313-0.508464q1.0599-1.153 1.67578-2.39193l0.988283 0.315105q-0.222006 0.522787-0.816407 1.41081-0.594402 0.888022-0.902345 1.17448z"/>
  <path d="m71.862 77.8189-0.136068-0.673178 0.401042-0.05013q0.43685-0.53711 1.0599-1.48242-0.358073-0.522787-1.41081-1.91927l0.522787-0.479818 0.171875 0.243489q0.623047-1.0026 0.973959-1.90495l0.751954 0.286458q-0.451172 0.97396-1.30339 2.20573l0.694662 0.952474q0.58724-0.93099 0.923829-1.57552l0.716147 0.315105q-0.923829 1.51107-2.23438 3.24414 1.02409-0.143229 1.63281-0.257813l-0.264974-0.859375 0.658854-0.214844q0.408204 1.11719 0.658855 2.12696l-0.701823 0.207682q-0.04297-0.193359-0.186199-0.694662-1.10286 0.272136-2.92904 0.529949zm-5.35678 6.70313-0.580078-0.565756q0.708985-0.694662 1.22461-1.86198 0.515626-1.16732 0.58724-2.4349h-1.41081v-0.809245h4.20378q-0.250651-1.60417-0.250651-4.04623 0-0.350912 0.01432-1.32487v-1.91211h1.04557l-0.01432 3.3444q0 2.68555 0.214844 3.93881h1.73308l-0.393881-0.866538 0.751954-0.222005 0.494141 1.08854h1.46094v0.809245h-3.88151q0.300782 1.23177 0.809246 2.10547 0.93099-0.945314 1.33919-1.61133l0.837891 0.494141q-0.716147 1.0026-1.64714 1.86198 0.837891 0.923829 1.31771 0.923829 0.222005 0 0.336588-0.24349 0.114584-0.243489 0.214844-1.66146l0.809246 0.136068q-0.07162 1.8763-0.264974 2.38477-0.186198 0.508464-0.83073 0.508464-1.02409 0-2.32032-1.41797-1.04557 0.837892-2.16276 1.36784l-0.522788-0.615886q1.2461-0.687501 2.16276-1.45378-0.744792-1.153-1.10286-2.77865h-1.95508q-0.03581 0.623048-0.179037 1.26042 0.866537 0.852214 1.68294 1.43229l-0.551433 0.716146q-0.479818-0.401042-1.38216-1.27474-0.58724 1.63998-1.79037 2.72852zm-4.2181-3.25847-0.644532-0.494141q0.644532-1.04557 1.33919-2.75 0.694662-1.71159 0.923829-2.85026h-1.70443v-0.787762h1.76172v-2.77149h1.04557v2.77149h1.2461v0.787762h-1.2461v1.56836q0.716147 0.880861 1.28906 1.45378l-0.58724 0.658855-0.701824-0.859376v6.66732h-1.04557v-6.59571q-0.680339 1.74024-1.67578 3.20118zm4.08204-3.27995-0.128907-0.716146 0.379558-0.03581q0.429688-0.551432 1.06706-1.53971-0.809245-1.21029-1.36068-1.88347l0.508464-0.472656 0.222005 0.307943q0.393881-0.637371 0.97396-2.00521l0.723307 0.24349q-0.551432 1.12435-1.30339 2.29883l0.644532 0.866538q0.666016-1.07422 0.988282-1.69727l0.6875 0.293621q-0.630208 1.19596-2.32748 3.49479 0.708985-0.0931 1.58268-0.250651l-0.229167-0.909506 0.630209-0.150391q0.34375 1.19596 0.508464 2.05534l-0.630209 0.164713q-0.02865-0.15039-0.143229-0.601563-1.08854 0.264975-2.79297 0.53711z"/>
  <path d="m78.5293 76.2935v8.31446h-1.08854v-12.64h5.19206v4.32552zm0-2.51368h3.05078v-1.06706h-3.05078zm3.05078 0.716147h-3.05078v1.04557h3.05078zm6.89649 10.0261h-1.2819l-0.136068-0.959636h1.0026q0.19336 0 0.350912-0.14323 0.157552-0.143229 0.157552-0.322266v-6.80339h-4.18946v-4.32552h5.29232v11.4727q0 1.08138-1.19596 1.08138zm-3.05078-10.7422h3.14388v-1.06706h-3.14388zm3.14388 0.716147h-3.14388v1.04557h3.14388zm-5.14193 6.78191q-1.0026 2.01953-3.60938 2.6569l-0.286459-0.716147q1.05274-0.264974 1.8763-0.888021 0.83073-0.623048 1.153-1.38932h-2.89323v-0.809245h3.2155v-1.29622h-2.90039v-0.794923h1.63281l-0.558595-1.12435 0.866538-0.207682 0.651693 1.33203h1.68294l0.723308-1.375 0.909506 0.222005-0.730469 1.153h1.89779v0.794923h-3.18685v1.29622h3.47331v0.809245h-3.13672q1.03125 1.53255 2.69987 2.23438l-0.508464 0.759116q-1.9694-0.802084-2.97201-2.6569z"/>
 </g>
</svg>
