<?xml version="1.0" encoding="UTF-8"?>
<svg width="148.558" height="102.907" version="1.1" viewBox="0 0 148.55782 102.90702" xmlns="http://www.w3.org/2000/svg" xmlns:xlink="http://www.w3.org/1999/xlink">
 <defs>
  <marker id="DotM" overflow="visible" orient="auto">
   <path transform="matrix(.4 0 0 .4 2.96 .4)" d="m-2.5-1c0 2.76-2.24 5-5 5s-5-2.24-5-5 2.24-5 5-5 5 2.24 5 5z" fill-rule="evenodd" stroke="#000" stroke-width="1pt"/>
  </marker>
  <path id="g0-48-1" d="m2.4269-3.94999c0.06695-0.14226 0.07532-0.20921 0.07532-0.26779 0-0.25943-0.23432-0.46028-0.49375-0.46028-0.31801 0-0.41843 0.25943-0.46028 0.39333l-1.10465 3.62361c-0.008369 0.016737-0.041843 0.125529-0.041843 0.133898 0 0.100423 0.259427 0.18411 0.326376 0.18411 0.05858 0 0.066949-0.016738 0.125529-0.142267z"/>
  <path id="g2-101-7" d="m3.68219-1.90804c0.17574 0 0.23432 0 0.23432-0.18411 0-0.73644-0.41006-1.64025-1.65698-1.64025-1.09629 0-1.93315 0.87033-1.93315 1.89967 0 1.06282 0.928914 1.91642 2.04194 1.91642 1.12976 0 1.54819-0.903811 1.54819-1.08792 0-0.03348-0.01673-0.11716-0.14226-0.11716-0.1088 0-0.12553 0.05021-0.15064 0.133893-0.25943 0.677858-0.89544 0.803387-1.19671 0.803387-0.39333 0-0.76991-0.175741-1.02097-0.493748-0.30964-0.393322-0.31801-0.903812-0.31801-1.23018zm-2.5859-0.21759c0.09205-1.17997 0.84523-1.37245 1.16324-1.37245 1.02934 0 1.06281 1.16324 1.07118 1.37245z"/>
  <path id="g2-113-3" d="m4.23452-3.69056h-0.25106l-0.30127 0.72807c-0.25943-0.40169-0.67786-0.72807-1.27203-0.72807-1.07955 0-2.0252 0.82012-2.0252 1.89131 0 1.04607 0.895444 1.88294 1.94988 1.88294 0.66949 0 1.02934-0.35985 1.23856-0.569066v1.44777c0 0.359849-0.08369 0.359849-0.62765 0.359849v0.30127c0.01674 0 0.60254-0.03347 0.95403-0.03347 0.30963 0 0.88707 0.0251 0.96239 0.03347v-0.30127c-0.54396 0-0.62765 0-0.62765-0.359849zm-0.62765 2.48548c0 0.15063 0 0.18411-0.12553 0.401693-0.25105 0.410062-0.66948 0.652752-1.09628 0.652752-0.6946 0-1.23856-0.753176-1.23856-1.64024 0-0.97913 0.66112-1.63188 1.33061-1.63188 0.70296 0 1.12976 0.68622 1.12976 1.15486z"/>
  <path id="g1-68-7" d="m1.90087-0.932503c-0.11955 0.466251-0.14346 0.561893-1.08792 0.561893-0.203237 0-0.334744 0-0.334744 0.227148 0 0.143462 0.107596 0.143462 0.334744 0.143462h3.95716c2.48668 0 4.84185-2.52254 4.84185-5.14072 0-1.68568-1.01619-3.02466-2.80947-3.02466h-4.01694c-0.22714 0-0.35865 0-0.35865 0.22715 0 0.14346 0.1076 0.14346 0.3467 0.14346 0.15542 0 0.37061 0.01196 0.51407 0.02391 0.19128 0.02391 0.26301 0.05978 0.26301 0.19128 0 0.04782-0.01195 0.08369-0.04782 0.22715zm2.58232-6.40797c0.10759-0.41843 0.1315-0.4543 0.64558-0.4543h1.2792c1.17161 0 2.16389 0.63362 2.16389 2.21171 0 0.5858-0.23911 2.54645-1.2553 3.86152-0.3467 0.44234-1.29116 1.35093-2.76164 1.35093h-1.35093c-0.16738 0-0.19129 0-0.26302-0.011955-0.11955-0.011956-0.15542-0.023911-0.15542-0.119552 0-0.035866 0-0.059776 0.05978-0.274969z"/>
  <path id="g1-88-4" d="m5.79826-4.91357-1.00424-2.37908c-0.03586-0.09564-0.05977-0.14346-0.05977-0.15542 0-0.07173 0.20323-0.29888 0.70535-0.3467 0.11955-0.01195 0.2391-0.02391 0.2391-0.22715 0-0.14346-0.14346-0.14346-0.17932-0.14346-0.49016 0-1.00424 0.03587-1.50635 0.03587-0.29888 0-1.0401-0.03587-1.33898-0.03587-0.07173 0-0.2152 0-0.2152 0.2391 0 0.13151 0.11956 0.13151 0.27497 0.13151 0.71731 0 0.78904 0.11955 0.89664 0.38257l1.41071 3.33549-2.52254 2.71382-0.15542 0.13151c-0.5858 0.633622-1.14769 0.824904-1.75741 0.86077-0.155417 0.011955-0.263013 0.011955-0.263013 0.239103 0 0.011955 0 0.131507 0.155417 0.131507 0.358655 0 0.753173-0.0358655 1.12378-0.0358655 0.44234 0 0.9086 0.0358655 1.33898 0.0358655 0.07173 0 0.21519 0 0.21519-0.239103 0-0.119552-0.11955-0.131507-0.14346-0.131507-0.10759-0.011955-0.4782-0.035866-0.4782-0.37061 0-0.191283 0.17932-0.38257 0.32279-0.53798l1.21942-1.29116 1.07597-1.17161 1.20747 2.85729c0.04782 0.131506 0.05978 0.143462 0.05978 0.167372 0 0.095641-0.22715 0.298879-0.6934 0.3467-0.13151 0.011955-0.23911 0.02391-0.23911 0.227148 0 0.143462 0.13151 0.143462 0.17933 0.143462 0.33474 0 1.17161-0.0358655 1.50635-0.0358655 0.29888 0 1.02815 0.0358655 1.32702 0.0358655 0.08369 0 0.22715 0 0.22715-0.227148 0-0.143462-0.11955-0.143462-0.21519-0.143462-0.801-0.011955-0.82491-0.047821-1.02814-0.526028-0.46626-1.11183-1.26725-2.97683-1.54222-3.69414 0.81295-0.83687 2.06824-2.25953 2.45081-2.59428 0.3467-0.28692 0.80099-0.57384 1.5183-0.60971 0.15547-0.01195 0.26297-0.01195 0.26297-0.2391 0-0.01196 0-0.13151-0.1554-0.13151-0.35862 0-0.75314 0.03587-1.12375 0.03587-0.44235 0-0.89664-0.03587-1.32703-0.03587-0.07173 0-0.22715 0-0.22715 0.2391 0 0.08369 0.05978 0.11956 0.14347 0.13151 0.10759 0.01196 0.4782 0.03587 0.4782 0.37061 0 0.16737-0.1315 0.32279-0.22715 0.43039z"/>
 </defs>
 <rect x=".5" y=".49994" width="147.558" height="101.907" fill="#e5e5e5"/>
 <use transform="matrix(1.6 0 0 1.6 -255.193 -116)" x="228.784" y="88.2603" width="100%" height="100%" fill="#ff0000" stroke-width=".833333" xlink:href="#g1-88-4"/>
 <use transform="matrix(1.28 0 0 1.28 -257.151 -96.0216)" x="205.49899" y="88.2603" width="100%" height="100%" stroke-width="1.04167" xlink:href="#g1-68-7"/>
 <g transform="translate(163.713 6.86288)">
  <rect x="-157.213" y="33.5265" width="88.6262" height="56.0177" rx="10.2531" ry="10.2531" fill="#bebebe"/>
  <g transform="translate(-25.082 70.3441)" stroke-width="1.04167">
   <use transform="matrix(1.28 0 0 1.28 -389.782 -132.695)" x="205.49899" y="88.2603" width="100%" height="100%" xlink:href="#g1-68-7"/>
   <use transform="matrix(1.28 0 0 1.28 -389.782 -132.695)" x="215.692" y="83.324097" width="100%" height="100%" xlink:href="#g2-101-7"/>
   <use transform="matrix(1.28 0 0 1.28 -389.782 -132.695)" x="219.92599" y="83.324097" width="100%" height="100%" xlink:href="#g2-113-3"/>
  </g>
 </g>
 <path d="m76.4705 82.8627c22.0522-0.318743 50.8621-5.07161 54.4032-55.4302" fill="none" marker-end="url(#DotM)" marker-start="url(#DotM)" stroke="#000" stroke-width="1px"/>
 <g transform="translate(147.742 127.882)" fill="#ff0000" stroke-width=".833333">
  <use transform="matrix(1.6 0 0 1.6 -462.266 -188.745)" x="228.784" y="88.2603" width="100%" height="100%" xlink:href="#g1-88-4"/>
  <use transform="matrix(1.6 0 0 1.6 -462.266 -188.745)" x="239.59" y="83.324097" width="100%" height="100%" xlink:href="#g0-48-1"/>
 </g>
</svg>
