<?xml version="1.0" encoding="UTF-8"?>
<svg width="158.03" height="123.44" version="1.1" viewBox="0 0 158.03008 123.43981" xmlns="http://www.w3.org/2000/svg"><defs><marker id="Arrow1Lend1-6" overflow="visible" orient="auto"><path transform="matrix(-.8 0 0 -.8 -10 0)" d="m0 0 5-5-17.5 5 17.5 5z" fill="#f00" fill-rule="evenodd" stroke="#f00" stroke-width="1pt"/></marker><marker id="marker10458" overflow="visible" orient="auto"><path transform="matrix(-.8 0 0 -.8 -10 0)" d="m0 0 5-5-17.5 5 17.5 5z" fill-rule="evenodd" stroke="#000" stroke-width="1pt"/></marker></defs><g transform="translate(16.1579 -248.45)"><path d="m75.2048 322.575s-14.8411-2.90731-14.8411-2.90731m32.5768 6.38165s-17.7357-3.47434-17.7357-3.47434m39.3043 7.69952l-21.5686-4.22518m48.3631 9.4741s-26.7945-5.24892-26.7945-5.24892m-67.6552-8.13086l13.5098-2.47597m1.2931 5.86972s13.548-2.96241 13.548-2.96241m4.4142 7.08047l13.3215-3.60613m8.93232 8.70809l12.6363-4.48291m15.6558 10.9692l11.1387-5.7203m-79.6469-9.98603s-14.8029-3.39375-14.8029-3.39375m32.7651 7.51181s-17.9622-4.11806-17.9622-4.11806m40.216 9.22002l-22.2538-5.10196m50.5459 11.5883l-28.2921-6.48631m-70.8052-9.72059l15.7862-2.89318m-1.26864 6.90794l16.0715-3.51419m1.86706 8.47501l16.0952-4.35695m6.63514 10.6429l15.6187-5.54094m14.1192 13.7648s14.1729-7.2785 14.1729-7.2785m-84.5797-12.1921l-14.5176-4.01476m32.4562 8.97558l-17.9386-4.96082m40.6689 11.2468s-22.7303-6.28595-22.7303-6.28595m52.4682 14.5098s-29.7379-8.22387-29.7379-8.22387m-73.8775-11.836l18.691-3.42554m-4.85492 8.25074l19.3725-4.23598m-1.89717 10.3304s19.8358-5.36954 19.8358-5.36954m2.93212 13.3096l19.7982-7.02369m11.0956 17.7976s18.6423-9.57378 18.6423-9.57378m-126.094-15.9401l12.5079 5.91108 16.2304 7.67028 21.9052 10.3521 31.1867 14.7384m-45.5154-37.9664l-13.8361-4.8252m31.3114 10.9196l-17.4753-6.09438m40.2432 14.0345s-22.7679-7.9401-22.7679-7.9401m53.6617 18.7141l-30.8938-10.774m-76.558-14.74s22.4787-4.11972 22.4787-4.11972m-9.97079 10.0308l23.8068-5.2056m-7.57645 12.8759l25.0518-6.7815m-3.14659 17.1336s25.9145-9.19353 25.9145-9.19353m5.27223 23.932l25.6216-13.158" color="#000000" fill="none" stroke="#000" stroke-width=".3"/><path d="m-10.5796 332.573 72.7078 20.6009" color="#000000" fill="none" marker="none" marker-end="url(#Arrow1Lend1-6)" stroke="#f00"/><g stroke-linejoin="round" stroke-miterlimit="1e5" stroke-width="1.33333"><path d="m114.3 308.576c0.0956-0.21042 0.0956-0.24867 0.0956-0.3443 0-0.21042-0.17216-0.38258-0.38256-0.38258-0.17216 0-0.30606 0.0956-0.43995 0.43995l-3.34745 8.77987c-0.0383 0.11479-0.0956 0.22956-0.0956 0.34432 0 0.0574 0 0.0956 0.0956 0.32519l3.34745 8.77987c0.0765 0.2104 0.17216 0.45907 0.43995 0.45907 0.2104 0 0.38256-0.17214 0.38256-0.38256 0-0.0574 0-0.0956-0.0956-0.30605l-3.38571-8.87552z"/><path d="m118.889 319.996c-0.76513 1.28159-1.51114 1.54939-2.35278 1.60677-0.22954 0.0191-0.4017 0.0191-0.4017 0.38257 0 0.11477 0.0956 0.21041 0.24867 0.21041 0.51646 0 1.10944-0.0574 1.64503-0.0574 0.63123 0 1.30072 0.0574 1.91283 0.0574 0.11477 0 0.36344 0 0.36344-0.36344 0-0.21041-0.17216-0.22954-0.30607-0.22954-0.43993-0.0383-0.89902-0.19128-0.89902-0.66949 0-0.22954 0.11477-0.43995 0.26779-0.70774l1.45376-2.44842h4.80119c0.0383 0.40168 0.30606 3.00314 0.30606 3.19442 0 0.57385-0.99467 0.63123-1.37725 0.63123-0.26779 0-0.45907 0-0.45907 0.38257 0 0.21041 0.22954 0.21041 0.26779 0.21041 0.78428 0 1.60679-0.0574 2.39104-0.0574 0.47821 0 1.68328 0.0574 2.16149 0.0574 0.11477 0 0.34432 0 0.34432-0.38257 0-0.21041-0.1913-0.21041-0.43995-0.21041-1.18595 0-1.18595-0.1339-1.24335-0.68862l-1.16681-11.9552c-0.0383-0.38256-0.0383-0.45907-0.36344-0.45907-0.30605 0-0.38258 0.1339-0.49734 0.32518zm2.29539-2.81185 3.76826-6.31234 0.61211 6.31234z"/><path d="m134.979 317.739c0.0957-0.22955 0.0957-0.26781 0.0957-0.32519 0-0.0574 0-0.0956-0.0957-0.32518l-3.34744-8.79901c-0.11477-0.32518-0.22955-0.43995-0.43995-0.43995-0.21041 0-0.38257 0.17216-0.38257 0.38258 0 0.0574 0 0.0956 0.0956 0.30604l3.3857 8.87552-3.3857 8.83727c-0.0956 0.2104-0.0956 0.24865-0.0956 0.3443 0 0.21042 0.17215 0.38256 0.38257 0.38256 0.24866 0 0.32518-0.19128 0.4017-0.38256z"/><path d="m3.99166 254.24c0.0956-0.21042 0.0956-0.24867 0.0956-0.3443 0-0.21042-0.17216-0.38258-0.38256-0.38258-0.17216 0-0.30606 0.0957-0.43995 0.43995l-3.34746 8.77987c-0.0382 0.11479-0.0956 0.22956-0.0956 0.34432 0 0.0574 0 0.0956 0.0956 0.32519l3.34746 8.77987c0.0765 0.2104 0.17216 0.45907 0.43995 0.45907 0.2104 0 0.38256-0.17214 0.38256-0.38256 0-0.0574 0-0.0956-0.0956-0.30605l-3.38571-8.87552z"/><path d="m8.57993 265.66c-0.76514 1.28159-1.51114 1.54939-2.35279 1.60677-0.22954 0.0191-0.40169 0.0191-0.40169 0.38257 0 0.11477 0.0956 0.21041 0.24867 0.21041 0.51646 0 1.10944-0.0574 1.64502-0.0574 0.63124 0 1.30072 0.0574 1.91284 0.0574 0.11476 0 0.36344 0 0.36344-0.36344 0-0.21041-0.17216-0.22954-0.30607-0.22954-0.43993-0.0383-0.89902-0.19128-0.89902-0.66949 0-0.22954 0.11477-0.43995 0.26779-0.70774l1.45376-2.44842h4.80118c0.0383 0.40168 0.30607 3.00314 0.30607 3.19442 0 0.57385-0.99467 0.63123-1.37725 0.63123-0.26779 0-0.45907 0-0.45907 0.38257 0 0.21041 0.22953 0.21041 0.26779 0.21041 0.78427 0 1.60678-0.0574 2.39104-0.0574 0.47821 0 1.68328 0.0574 2.16149 0.0574 0.11477 0 0.34432 0 0.34432-0.38257 0-0.21041-0.1913-0.21041-0.43995-0.21041-1.18596 0-1.18596-0.1339-1.24335-0.68862l-1.16681-11.9552c-0.0383-0.38256-0.0383-0.45907-0.36344-0.45907-0.30605 0-0.38258 0.1339-0.49735 0.32518zm2.29539-2.81185 3.76826-6.31234 0.61211 6.31234z"/><path d="m24.6708 263.403c0.0957-0.22955 0.0957-0.26781 0.0957-0.32519 0-0.0574 0-0.0956-0.0957-0.32518l-3.34744-8.79901c-0.11477-0.32518-0.22955-0.43995-0.43996-0.43995-0.2104 0-0.38256 0.17216-0.38256 0.38258 0 0.0574 0 0.0956 0.0956 0.30604l3.38569 8.87552-3.38569 8.83727c-0.0956 0.2104-0.0956 0.24865-0.0956 0.3443 0 0.21042 0.17215 0.38256 0.38256 0.38256 0.24866 0 0.32519-0.19128 0.4017-0.38256z"/><path d="m33.2466 249.472c0-0.20085 0-0.52221-0.32136-0.52221-0.33473 0-0.33473 0.30797-0.33473 0.52221v8.1142h-4.0839c-0.20084 0-0.53559 0-0.53559 0.32136 0 0.33474 0.30797 0.33474 0.53559 0.33474h8.82388c0.21424 0 0.53558 0 0.53558-0.32135 0-0.33475-0.30796-0.33475-0.53558-0.33475h-4.08389z"/></g><g fill="#f00" stroke-linejoin="round" stroke-miterlimit="1e5" stroke-width="1.33333"><path d="m74.105 354.316c0.11477-0.4782 0.30605-1.24332 0.30605-1.41548 0-0.61212-0.49733-0.84165-0.89902-0.84165-0.36344 0-0.746 0.19128-0.97554 0.47821-0.28693-0.30605-0.91816-0.8034-2.0276-0.8034-3.32832 0-5.39417 3.02228-5.39417 5.64285 0 2.35278 1.7598 3.15616 3.34745 3.15616 1.3581 0 2.35277-0.746 2.65883-1.03292 0.72687 1.03292 1.98933 1.03292 2.19975 1.03292 0.70774 0 1.26246-0.40169 1.66416-1.09031 0.4782-0.76513 0.72688-1.79806 0.72688-1.89369 0-0.26781-0.28693-0.26781-0.45909-0.26781-0.21042 0-0.28693 0-0.38256 0.0956-0.0383 0.0383-0.0383 0.0765-0.15303 0.55472-0.38257 1.53026-0.82252 1.91283-1.30072 1.91283-0.21041 0-0.43995-0.0765-0.43995-0.70775 0-0.32518 0.0765-0.63124 0.26779-1.39636 0.13391-0.5356 0.32519-1.30072 0.42082-1.72155zm-3.17529 4.28474c-0.55472 0.65036-1.45375 1.24334-2.37191 1.24334-1.18595 0-1.28158-1.03293-1.28158-1.45376 0-0.99467 0.65035-3.34744 0.9564-4.09344 0.59299-1.39636 1.53027-1.87457 2.31453-1.87457 1.12857 0 1.58764 0.89902 1.58764 1.10944l-0.0383 0.26779z"/><path d="m80.8452 354.733c0-0.36152-0.0268-0.37491-0.40169-0.37491-0.85695 0.84355-2.07543 0.85694-2.62441 0.85694v0.48203c0.32137 0 1.20508 0 1.94153-0.37491v6.82879c0 0.44186 0 0.61593-1.33898 0.61593h-0.50882v0.48203c0.24101-0.0134 1.88796-0.0536 2.38338-0.0536 0.41509 0 2.10221 0.0402 2.39678 0.0536v-0.48203h-0.50881c-1.33898 0-1.33898-0.17407-1.33898-0.61593z"/><path d="m35.748 310.475c0.11476-0.4782 0.30604-1.24332 0.30604-1.41548 0-0.61212-0.49732-0.84165-0.89902-0.84165-0.36344 0-0.746 0.19128-0.97554 0.47821-0.28692-0.30605-0.91816-0.8034-2.0276-0.8034-3.32832 0-5.39417 3.02228-5.39417 5.64285 0 2.35278 1.75981 3.15616 3.34745 3.15616 1.3581 0 2.35277-0.746 2.65884-1.03292 0.72686 1.03292 1.98932 1.03292 2.19974 1.03292 0.70774 0 1.26246-0.40169 1.66416-1.09031 0.47821-0.76513 0.72688-1.79806 0.72688-1.89369 0-0.26781-0.28693-0.26781-0.45909-0.26781-0.21041 0-0.28693 0-0.38256 0.0956-0.0383 0.0383-0.0383 0.0765-0.15302 0.55472-0.38258 1.53026-0.82253 1.91283-1.30072 1.91283-0.21042 0-0.43995-0.0765-0.43995-0.70775 0-0.32518 0.0765-0.63124 0.26779-1.39636 0.1339-0.5356 0.32518-1.30072 0.42081-1.72155zm-3.1753 4.28474c-0.55472 0.65036-1.45374 1.24334-2.3719 1.24334-1.18596 0-1.28159-1.03293-1.28159-1.45376 0-0.99467 0.65035-3.34744 0.9564-4.09344 0.59299-1.39636 1.53027-1.87457 2.31453-1.87457 1.12858 0 1.58765 0.89902 1.58765 1.10944l-0.0383 0.26779z"/><path d="m44.7644 316.971h-0.45525c-0.0402 0.29458-0.17406 1.08458-0.34814 1.21847-0.10711 0.0803-1.13813 0.0803-1.32559 0.0803h-2.46371c1.40592-1.24524 1.87456-1.62017 2.67795-2.24948 0.99085-0.79 1.91474-1.62016 1.91474-2.89219 0-1.62017-1.41931-2.61101-3.1332-2.61101-1.66034 0-2.78508 1.16491-2.78508 2.39676 0 0.68289 0.57576 0.74983 0.70966 0.74983 0.32136 0 0.70966-0.22762 0.70966-0.70965 0-0.24102-0.0937-0.70966-0.79-0.70966 0.41509-0.95068 1.32558-1.24525 1.95491-1.24525 1.33898 0 2.03525 1.0444 2.03525 2.12898 0 1.16491-0.83018 2.0888-1.25864 2.57083l-3.22695 3.18677c-0.13389 0.12051-0.13389 0.14729-0.13389 0.5222h5.51658z"/></g><g fill="none"><path d="m-10.5796 332.573 66.3438-4.14783" color="#000000" marker="none" marker-end="url(#Arrow1Lend1-6)" stroke="#f00"/><path d="m-10.5796 332.573v-78.2168" color="#000000" color-rendering="auto" image-rendering="auto" marker-end="url(#marker10458)" shape-rendering="auto" solid-color="#000000" stroke="#000" style="isolation:auto;mix-blend-mode:normal"/><path d="m-10.5796 316.319 16.2282 0.90337v16.2534" color="#000000" color-rendering="auto" image-rendering="auto" shape-rendering="auto" solid-color="#000000" stroke="#000" style="isolation:auto;mix-blend-mode:normal"/></g></g></svg>
