<?xml version="1.0" encoding="UTF-8"?>
<svg width="238.472" height="199.39" version="1.1" viewBox="0 0 238.47147 199.39018" xmlns="http://www.w3.org/2000/svg">
 <path d="m116.317 146.889h78.9407" fill="none" stroke="#555" stroke-dasharray="2.95997937, 2.95997937" stroke-linejoin="round" stroke-width="1.51999px"/>
 <path d="m209.04 117.962h-1.41126l-1.323 5.02751c-1.14665 0.0883-2.20508 0.26461-3.1753 0.52922l-3.08708-4.14552c-0.35295 0.0884-0.7056 0.26461-1.05839 0.35295l-0.0883 0.0883h-0.0883c-0.17627 0.0884-0.26461 0.0884-0.44104 0.17627-0.17627 0.0883-0.441 0.17627-0.61739 0.26461 0 0-0.0883 0-0.0883 0.0883-0.35295 0.0883-0.70561 0.26461-1.05844 0.441l0.70565 5.02755c-0.97021 0.52918-1.76404 1.05839-2.64604 1.67583l-4.3219-2.73426-0.79382 0.79383h-0.0883s0 0.0883-0.0883 0.0883c-0.17626 0.17626-0.2646 0.35295-0.441 0.441-0.0883 0.17626-0.2646 0.2646-0.35295 0.35295l-0.0883 0.0883c-0.26461 0.26461-0.52921 0.61739-0.79382 0.882l2.55786 4.41012c-0.70561 0.79382-1.23482 1.5876-1.76404 2.46964l-5.02747-0.88204c-0.17626 0.35295-0.35295 0.70565-0.52921 1.05844-0.0883 0-0.0883 0.0883-0.0883 0.0883-0.0883 0.17626-0.17627 0.441-0.26461 0.61743-0.0883 0.17627-0.17627 0.26461-0.17627 0.441-0.0883 0.0883-0.0883 0.0883-0.0883 0.17627-0.17627 0.35295-0.26461 0.7056-0.441 1.05843l4.0573 3.17525c-0.35295 1.05844-0.52922 2.11687-0.70561 3.1753l-5.02751 1.14661c0 0.441-0.0883 0.79382-0.0883 1.14665v2.73454l4.9393 1.41122c0.17627 1.05843 0.35295 2.11686 0.61743 3.1753l-4.14551 2.99886c0.0883 0.35295 0.26461 0.79382 0.35295 1.14661l0.0883 0.0883c0 0.17626 0.0883 0.26461 0.0883 0.35295 0.0883 0.26461 0.17627 0.52917 0.35295 0.79378 0.17627 0.35295 0.35295 0.79382 0.52922 1.14665l5.02751-0.70561c0.52922 0.882 1.05843 1.76404 1.67582 2.55782l-2.73425 4.32191c0.26461 0.35295 0.52921 0.61743 0.79382 0.88204v0.0883h0.0883c0.0883 0.17627 0.26461 0.26461 0.35295 0.441l0.441 0.441 0.0883 0.0883c0.26461 0.26461 0.52922 0.52922 0.88204 0.79382l4.41008-2.55786c0.79383 0.61743 1.58765 1.23482 2.46969 1.76404l-0.88204 5.02751c0.35295 0.17627 0.70561 0.35295 1.05843 0.52922l0.0884 0.0883c0.17626 0.0883 0.35295 0.17627 0.52921 0.17627 0.17627 0.0883 0.35295 0.17626 0.52922 0.2646 0.0883 0 0.0883 0.0884 0.17626 0.0884 0.35295 0.17626 0.70561 0.2646 1.05844 0.44104l3.17525-4.0573c1.05843 0.26461 2.11687 0.52922 3.17526 0.70561l1.14665 5.02751h1.1466c0.0883 0 0.0883 0 0.0883 0.0883h1.4996c0.441 0 0.79383 0 1.14661-0.0883l1.41126-4.93934c1.05839-0.0883 2.11682-0.26461 3.17525-0.52917l2.99887 4.14547c0.35294-0.0883 0.7056-0.26461 1.05843-0.35295 0.0883 0 0.0883 0 0.0883-0.0883h0.0883c0.17627-0.0883 0.35295-0.0883 0.441-0.17627 0.26461-0.0883 0.44104-0.17626 0.61743-0.26461 0.441-0.17626 0.79383-0.35295 1.23483-0.52921l-0.70561-5.11569c0.882-0.44104 1.76404-1.05843 2.55786-1.58765l4.32191 2.73426c0.35295-0.26461 0.61739-0.52922 0.882-0.79383l0.0883-0.0883 0.441-0.441c0.17626-0.0883 0.2646-0.26461 0.44104-0.35295 0-0.0883 0-0.0883 0.0883-0.0883 0.26461-0.26461 0.52917-0.61743 0.79378-0.88204l-2.55782-4.41008c0.61739-0.79382 1.23482-1.67582 1.76404-2.46965l5.02751 0.882c0.17627-0.35295 0.35295-0.7056 0.52922-1.05843 0-0.0883 0-0.0883 0.0883-0.17626 0.0883-0.0883 0.0883-0.26461 0.17627-0.441 0.0883-0.17627 0.17626-0.35295 0.2646-0.52922v-0.17627h0.0883c0.0884-0.35295 0.26461-0.70565 0.35295-1.05843l-3.96928-3.17525c0.26461-1.05844 0.52921-2.11687 0.70565-3.1753l4.93929-1.23482c0.0883-0.35295 0.0883-0.70561 0.0883-1.14661v-0.17627c0.0883-0.17626 0.0883-0.44104 0.0883-0.61743v-0.79382c0-0.35295 0-0.70561-0.0883-1.14661l-4.93929-1.32304c-0.0883-1.05843-0.26461-2.11687-0.52922-3.1753l4.14551-2.99886c-0.17626-0.441-0.2646-0.79383-0.441-1.14661v-0.17668c-0.0883-0.0883-0.17626-0.26461-0.17626-0.35295-0.0883-0.26461-0.17627-0.441-0.26461-0.70561l-0.0883-0.0883c-0.17627-0.35295-0.26461-0.70561-0.441-1.05843l-5.11573 0.70565c-0.441-0.88205-1.05843-1.76409-1.67586-2.55787l2.73429-4.3219c-0.17626-0.35295-0.44104-0.61744-0.70565-0.88204-0.0883-0.0883-0.0883-0.0883-0.0883-0.17627-0.17626-0.0883-0.26461-0.26461-0.441-0.35295-0.0883-0.17627-0.26461-0.26461-0.35295-0.441-0.0883 0-0.0883-0.0883-0.0883-0.0883h-0.0883c-0.26461-0.26461-0.52922-0.52922-0.79382-0.79378l-4.41004 2.55782c-0.79383-0.61739-1.67582-1.23482-2.55787-1.76404l0.97026-5.02751c-0.35295-0.17627-0.70565-0.35295-1.05843-0.52922-0.0883 0-0.0883-0.0883-0.17627-0.0883-0.17626-0.0883-0.35295-0.17627-0.52921-0.26461-0.17627 0-0.35295-0.0883-0.52922-0.17626 0 0 0-0.0884-0.0883-0.0884-0.35295-0.17626-0.70561-0.2646-1.14665-0.441l-3.08704 4.0573c-1.05843-0.35295-2.11686-0.52922-3.17529-0.70565l-1.23483-5.02751c-0.35295 0-0.70561 0-1.14661-0.0883h-1.32291z" fill="#555" stroke-width="3.02362"/>
 <path d="m195.28 146.889c0 6.26234 4.14551 11.7309 10.2314 13.3185 5.99773 1.67586 12.4365-0.97022 15.5235-6.43873 3.17529-5.38034 2.29325-12.2601-2.20504-16.6702-4.41008-4.41012-11.2017-5.29212-16.6702-2.20504" fill="none" stroke="#fff" stroke-linejoin="round" stroke-width="2.23998px"/>
 <path d="m193.605 139.835h11.5545l-5.73312-9.96685z" fill="#fff" stroke-width="3.02362"/>
 <path d="m38.643 23.3118v142.799h36.1084v-45.6907c6.8e-4 21.1121 17.1157 38.2262 38.2276 38.2262h30.3488v-23.5107h-30.3488c-8.12703-2.7e-4 -14.7153-6.5884-14.7155-14.7155v-97.1078z" fill="#b0cbb0"/>
 <g stroke-width="1.33334">
  <path d="m16.7521 149.767c2.96489-1.12857 5.77675-4.53343 5.77675-8.22516 0-3.07968-2.0276-5.14549-4.87771-5.14549-4.13171 0-8.33995 4.34211-8.33995 8.79897 0 3.1753 2.14239 5.10728 4.89687 5.10728 0.478186 0 1.12857-0.0767 1.87453-0.28687-0.07635 1.18594-0.07635 1.22423-0.07635 1.47289 0 0.61209 0 2.1041 1.58767 2.1041 2.27626 0 3.19442-3.50049 3.19442-3.7109 0-0.13379-0.133795-0.19124-0.210519-0.19124-0.153071 0-0.191245 0.0956-0.229418 0.21052-0.459099 1.35814-1.56854 1.83632-2.23805 1.83632-0.879874 0-1.16682-0.51643-1.3581-1.97019zm-3.61523-0.15307c-1.49201-0.59297-2.14235-2.08498-2.14235-3.80651 0-1.31989 0.49731-4.03609 1.95107-6.10194 1.39635-1.95111 3.19442-2.83098 4.59081-2.83098 1.91278 0 3.30917 1.492 3.30917 4.05521 0 1.91282-0.975534 6.38884-4.18908 8.18687-0.09562-0.66946-0.286867-2.06585-1.68329-2.06585-1.01382 0-1.95111 0.95641-1.95111 1.95111 0 0.38256 0.114897 0.59297 0.114897 0.61209zm1.18594 0.21052c-0.267969 0-0.879875 0-0.879875-0.8225 0-0.76513 0.726879-1.53026 1.53026-1.53026s1.16682 0.45907 1.16682 1.62588c0 0.28687-0.0189 0.30614-0.21052 0.38257-0.497348 0.21052-1.07119 0.34431-1.60679 0.34431z" fill="#00f"/>
  <path d="m32.1575 149.226h-0.455244c-0.147402 1.31221-0.348095 3.0395-2.87883 3.0395h-1.33897c-0.629291 0-0.642671-0.10696-0.642671-0.52222v-7.04304c0-0.44183 0-0.61591 1.25862-0.61591h0.468624v-0.48204c-0.281197 0.0151-1.99506 0.0537-2.3432 0.0537-0.5088 0-2.02186-0.0537-2.03524-0.0537v0.48204h0.32126c1.03102 0 1.05782 0.13379 1.05782 0.60253v6.97611c0 0.45524-0.02646 0.60253-1.05782 0.60253h-0.32126v0.48204h7.56522z" fill="#00f"/>
  <path d="m16.7547 59.1717c2.96489-1.12857 5.77675-4.53343 5.77675-8.22516 0-3.07967-2.0276-5.14549-4.87771-5.14549-4.13171 0-8.33995 4.34211-8.33995 8.79897 0 3.1753 2.14239 5.10728 4.89687 5.10728 0.478186 0 1.12853-0.07673 1.87453-0.286867-0.07635 1.18594-0.07635 1.22423-0.07635 1.47288 0 0.612095 0 2.1041 1.58767 2.1041 2.27626 0 3.19438-3.50049 3.19438-3.71089 0-0.133796-0.133796-0.191245-0.21052-0.191245-0.153071 0-0.191244 0.09562-0.229417 0.21052-0.459062 1.35814-1.5685 1.83632-2.23801 1.83632-0.879875 0-1.16682-0.516435-1.3581-1.97019zm-3.61523-0.153071c-1.49201-0.592971-2.14239-2.08498-2.14239-3.80652 0-1.31989 0.497349-4.03608 1.95111-6.10194 1.39635-1.95111 3.19442-2.83098 4.59077-2.83098 1.91282 0 3.30921 1.49201 3.30921 4.05521 0 1.91282-0.975535 6.38884-4.18908 8.18688-0.09562-0.669468-0.286866-2.06585-1.68333-2.06585-1.01378 0-1.95107 0.95641-1.95107 1.95111 0 0.382564 0.114898 0.59297 0.114898 0.612095zm1.18594 0.210519c-0.267969 0-0.879912 0-0.879912-0.822501 0-0.765128 0.726879-1.53026 1.53026-1.53026s1.16685 0.459062 1.16685 1.62588c0 0.286867-0.0189 0.306142-0.21052 0.382564-0.497348 0.21052-1.07119 0.344315-1.60679 0.344315z" fill="#f00"/>
  <path d="m32.5871 54.092c0-0.455244 0.02646-0.602532 1.05778-0.602532h0.32126v-0.482042c-0.669468 0.02646-1.52644 0.05367-2.00844 0.05367-0.495421 0-1.35239-0.02646-2.02186-0.05367v0.482042h0.32126c1.03102 0 1.05782 0.133795 1.05782 0.602532v3.06626h-4.4722v-3.06626c0-0.455244 0.02646-0.602532 1.05778-0.602532h0.32126v-0.482042c-0.669468 0.02646-1.52644 0.05367-2.00848 0.05367-0.495421 0-1.35235-0.02646-2.02186-0.05367v0.482042h0.32126c1.03102 0 1.05778 0.133795 1.05778 0.602532v6.97611c0 0.455244-0.02646 0.602532-1.05778 0.602532h-0.32126v0.482041c0.669506-0.02646 1.52644-0.05367 2.00848-0.05367 0.495421 0 1.35239 0.02646 2.02186 0.05367v-0.482041h-0.32126c-1.03098 0-1.05778-0.133795-1.05778-0.602532v-3.42781h4.4722v3.42781c0 0.455244-0.02646 0.602532-1.05782 0.602532h-0.32126v0.482041c0.669469-0.02646 1.52644-0.05367 2.00844-0.05367 0.49542 0 1.35239 0.02646 2.02186 0.05367v-0.482041h-0.32126c-1.03102 0-1.05778-0.133795-1.05778-0.602532z" fill="#f00"/>
 </g>
 <path d="m140.822 121.309c0.47825-0.84165 0.93729-1.53026 2.14241-1.62591 0.17216-0.0191 0.36336-0.0191 0.36336-0.38256 0-0.0765-0.0765-0.21041-0.22944-0.21041-0.4592 0-0.99472 0.0574-1.47296 0.0574-0.6504 0-1.35809-0.0574-1.98929-0.0574-0.11488 0-0.36349 0-0.36349 0.36344 0 0.21041 0.17213 0.22953 0.28685 0.22953 0.4592 0.0191 1.12864 0.17216 1.12864 0.746 0 0.21042-0.0957 0.36344-0.24864 0.63123l-5.16466 9.00943-0.70774-9.48763c-0.0191-0.38256-0.0574-0.87989 1.33898-0.89903 0.32518 0 0.51646 0 0.51646-0.38256 0-0.19128-0.21042-0.21041-0.28693-0.21041-0.76512 0-1.56851 0.0574-2.33365 0.0574-0.43995 0-1.56851-0.0574-2.00846-0.0574-0.11477 0-0.36344 0-0.36344 0.38256 0 0.21041 0.19128 0.21041 0.45909 0.21041 0.84163 0 0.97553 0.11477 1.01379 0.47821l0.11477 1.47288-4.83946 8.43557-0.72686-9.69803c0-0.22956 0-0.66949 1.45374-0.68863 0.19128 0 0.4017 0 0.4017-0.38256 0-0.21041-0.22954-0.21041-0.2678-0.21041-0.76513 0-1.56852 0.0574-2.35278 0.0574-0.66949 0-1.35811-0.0574-2.00847-0.0574-0.0956 0-0.34431 0-0.34431 0.36344 0 0.22953 0.17216 0.22953 0.47821 0.22953 0.95641 0 0.97555 0.17216 1.0138 0.70775l0.86077 11.6874c0.0191 0.34431 0.0383 0.49734 0.30605 0.49734 0.22953 0 0.28693-0.11477 0.45909-0.4017l5.62371-9.75541 0.70774 9.65977c0.0383 0.4017 0.0765 0.49734 0.30605 0.49734 0.24867 0 0.36344-0.19129 0.45907-0.36344z" fill="#008000" stroke-width="1.33333"/>
 <rect x=".501623" y="164.093" width="121.43" height="34.7991" fill="#e2e2f1" stroke-width="3.77953"/>
 <path d="m0.501608 164.093h121.43v34.7991" fill="none" stroke="#2f2f76" stroke-width=".999999px"/>
 <g fill="#2f2f76" stroke-width="3.14961">
  <path d="m80.8393 189.673v-8.46093q-0.773443 1.42969-1.6797 2.49997l-0.734363-0.61716q2.75781-4.18753 3.52343-7.73439l1.22657 0.1954q-0.531251 1.84373-1.68748 4.375h0.54686v9.74219zm2.0078-2.46875-0.164031-1.00781q0.312567-0.0469 1.25-0.2109v-9.2578q1.24997-0.0151 4.10155-0.42191 2.85936-0.40623 4.07811-0.79688l0.58594 0.97659q-0.812485 0.21884-3.02344 0.54686-0.01512 0.66407-0.01512 1.16406 0 1.10158 0.0548 2.14065h3.6875v0.97656h-3.62502q0.249827 3.05469 1.15627 4.92185 0.906256 1.85938 1.44529 1.85938 0.351496 0 0.429694-0.52343 0.0858-0.52342 0.187465-1.94532l0.976555 0.1406q-0.0858 2.08596-0.336 2.89062-0.242268 0.8047-1.0625 0.8047-0.43748 0-0.867175-0.2657t-1.02346-0.98438q-0.593726-0.72658-1.07811-1.8672-0.476561-1.14063-0.710929-2.57813-0.234331-1.43747-0.328064-2.45311h-3.43748v4.46095q2.27342-0.4297 3.21872-0.67189l0.06236 0.97655q-0.69532 0.24227-5.56252 1.12502zm2.28129-9.62499v2.75781h3.37497q-0.04687-1.04689-0.04687-3.13281-2.10157 0.2812-3.3281 0.37493zm-1.48441 11.6016v-0.9922h5.99222v0.9922z"/>
  <path d="m98.0437 178.493q-1.26561-1.14845-2.53126-2.10157l0.820347-0.82031q1.74217 1.25782 2.53123 1.99219zm1.71096 3.29688v-5.92188h8.52345v5.92188zm1.17967-3.4297h6.18751v-1.56249h-6.18751zm6.18751 0.89843h-6.18751v1.58597h6.18751zm-10.125 2.96875q-1.08597-1.03903-2.56252-2.08592l0.789052-0.88283q1.51563 1.08594 2.59378 2.00784zm1.21092 6.96877v-0.97655h0.992202v-5.05471h9.76563v5.05471h0.91404v0.97655zm2.21873-0.97655h1.66409v-4.12502h-1.66409zm2.80472 0h1.63279v-4.12502h-1.63279zm2.78124 0h1.72656v-4.12502h-1.72656zm-10.2031 0.96094-1.04685-0.71875q0.64063-0.78127 1.49216-2.41406 0.859389-1.64066 1.26565-2.77346l1.04685 0.39062q-0.281197 1.00781-1.1328 2.69533-0.851566 1.68748-1.62501 2.82032z"/>
 </g>
 <rect transform="scale(1,-1)" x=".501623" y="-35.3007" width="121.43" height="34.7991" fill="#efe3e3" stroke-width="3.77953"/>
 <path d="m0.501608 35.3006h121.43v-34.7991" fill="none" stroke="#b32d38" stroke-width=".999999px"/>
 <g fill="#b32d38" stroke-width="3.14961">
  <path d="m79.0062 13.8556v-0.91408h6.51564v-1.10937h1.3203v1.10937h6.59377v0.91408zm2.125 4.14841v-2.97657h10.3281v2.97657zm9.1719-2.17187h-8.00002v1.36721h8.00002zm1.27344 10.1016h-1.81251l-0.164032-1.03128h1.4219q0.61716 0 0.61716-0.523427v-4.3047h-10.7656v5.95314h-1.24218v-6.85157h13.25v5.66408q0 0.499994-0.36737 0.796876-0.359434 0.296693-0.937475 0.296693zm-7.4922-1.4219v0.390615h-1.14062v-3.6875h6.57812v3.29688zm4.27344-2.47658h-4.27344v1.62501h4.27344z"/>
  <path d="m98.0437 14.9517q-1.26561-1.14841-2.53126-2.10153l0.820347-0.820347q1.74217 1.25783 2.53123 1.99219zm1.71096 3.29688v-5.92188h8.52345v5.92188zm1.17967-3.4297h6.18751v-1.5625h-6.18751zm6.18751 0.898469h-6.18751v1.58593h6.18751zm-10.125 2.96875q-1.08597-1.03907-2.56252-2.08596l0.789052-0.882785q1.51563 1.08594 2.59378 2.0078zm1.21092 6.96874v-0.976555h0.992202v-5.05471h9.76563v5.05471h0.91404v0.976555zm2.21873-0.976555h1.66409v-4.12502h-1.66409zm2.80472 0h1.63279v-4.12502h-1.63279zm2.78124 0h1.72656v-4.12502h-1.72656zm-10.2031 0.960945-1.04685-0.718753q0.64063-0.781266 1.49216-2.41406 0.859389-1.64062 1.26565-2.77346l1.04685 0.390652q-0.281197 1.00781-1.1328 2.6953-0.851566 1.68748-1.62501 2.82032z"/>
 </g>
 <path d="m68.452 57.738-29.8091 24.2272v39.4348h59.6205v-39.4348z" fill="#458547"/>
 <g fill="#fff" stroke-width="3.14961">
  <path d="m60.0062 93.6365h-7.362q-0.816409 0-1.43946-0.150425-0.615886-0.143245-1.04557-0.436838-0.422525-0.300851-0.658855-0.773443-0.229153-0.479812-0.229153-1.56117v-8.94467h1.21745v4.46158q6.05144-1.12433 8.52216-2.27736l0.601565 1.08854q-1.12435 0.486992-4.06054 1.19596-2.9362 0.709002-5.06313 0.988309v3.38737q0 0.780586 0.164712 1.16016 0.171855 0.37954 0.751953 0.565757 0.580078 0.17915 1.5612 0.17915h7.03971z"/>
  <path d="m74.4149 88.6588h-11.845v-1.05989h11.845z"/>
  <path d="m89.8123 88.9461-0.751953 0.995453q-1.48958-0.995453-3.55925-1.95508-2.06966-0.959661-3.68816-1.44662v7.59829h-1.27474v-12.5397h1.28906v3.83857q4.24676 1.27472 7.98501 3.5091z"/>
  <path d="m54.535 112.364h-1.26042v-8.80143h-5.9082v-1.02406h5.9082v-2.40628h1.26042v2.40628h5.76499v1.02406h-5.76499zm6.5599-1.74021-0.973962 0.77345q-1.16016-1.08855-2.16276-2.88609-1.0026-1.79751-1.42513-3.22983l1.16732-0.25059q0.988283 3.05076 3.39454 5.5931zm-9.78256-5.2995q-1.11002 3.73829-3.78841 6.05862l-0.866537-0.68749q1.39648-1.31774 2.25586-2.89323 0.86654-1.58272 1.13151-2.69991zm5.92252-4.81248v-0.0227q0-0.644528 0.472657-1.08137 0.479819-0.436876 1.11002-0.436876 0.701825 0 1.14584 0.458344 0.45117 0.451163 0.45117 1.05275 0 0.6875-0.479815 1.12434-0.479819 0.42969-1.08854 0.42969-0.701825 0-1.16016-0.45834-0.451174-0.46549-0.451174-1.06704zm2.62826 0v-0.0302q0-0.40823-0.3151-0.709005-0.315099-0.300851-0.73047-0.300851-0.401042 0-0.716145 0.308032-0.307956 0.300854-0.307956 0.716144 0 0.41537 0.307956 0.72329 0.307956 0.30803 0.716145 0.30803 0.422529 0 0.73047-0.29367 0.3151-0.30085 0.3151-0.72329z"/>
  <path d="m68.865 103.433-0.809242 0.93812q-2.55664-1.5755-5.09896-2.6569l0.615886-0.89518q2.67839 1.0026 5.29232 2.61396zm6.2448 1.81902q-1.20313 2.09828-3.1224 3.63084-1.91927 1.52538-3.9961 2.27736-2.06966 0.74479-4.87695 1.04556l-0.250659-1.10286q2.33464-0.23622 4.18228-0.85221 1.84766-0.62306 3.12956-1.49677 1.28906-0.88086 2.16992-1.74021 0.880862-0.86653 1.7832-2.37763z"/>
  <path d="m87.9074 101.785q-0.264982 3.25848-1.30339 5.3353-1.03125 2.07681-3.42318 3.48045-2.39193 1.40364-5.9082 1.76172l-0.293631-1.08136q3.74544-0.35793 6.5384-2.33466 2.80013-1.97654 3.10808-6.80338h-9.81121v-1.05989h10.4056q-0.143244-0.29367-0.150388-0.66603 0-0.6302 0.458333-1.06704 0.465494-0.436838 1.15299-0.451162 0.644531 0 1.0957 0.436838 0.458332 0.436838 0.472657 1.10286 0 0.63738-0.458336 1.07422-0.458333 0.43684-1.11003 0.45116-0.429687 0-0.773439-0.17914zm0.744795-0.32958q0.415362 0 0.723307-0.29367 0.3151-0.29367 0.3151-0.71614 0-0.4297-0.307956-0.737614-0.300775-0.308032-0.73047-0.308032-0.415367 0-0.723308 0.308032-0.307956 0.300854-0.307956 0.716144 0 0.41537 0.300775 0.72329 0.307956 0.30803 0.73047 0.30803z"/>
 </g>
 <path d="m68.4535 54.3541-29.8105 24.2266v2.47584l29.8105-24.2285 29.8105 24.2285v-2.47584z" fill="#458547"/>
 <path d="m68.4535 50.0274-29.8105 24.2266v2.47584l29.8105-24.2285 29.8105 24.2285v-2.47584z" fill="#458547"/>
</svg>
