<?xml version="1.0" encoding="UTF-8"?>
<svg width="220.038" height="135.319" version="1.1" viewBox="0 0 220.03751 135.31889" xmlns="http://www.w3.org/2000/svg"><g transform="translate(38.5902 -242.51)"><g fill="none" stroke-miterlimit="1e5"><path d="m1.05006 347.646 1.80295-13.4713 1.80296-11.8702 1.80295-10.3883 1.80296-9.02036 1.80295-7.76097 1.80296-6.60504 1.80295-5.54748 1.80296-4.58338 1.80295-3.70791 1.80295-2.91634 1.80296-2.20409 1.80295-1.56669 1.80296-0.99974 1.80295-0.49902 1.80296-0.0603 1.80295 0.32028 1.80296 0.64678 1.80295 0.92297 1.80296 1.15252 1.80295 1.339 1.80295 1.48591 1.80296 1.59656 1.80295 1.67419 1.80296 1.72195 1.80295 1.7428 1.80296 1.73967 1.80295 1.71534 1.80296 1.67246 1.80295 1.61359 1.80296 1.54117 1.80295 1.45753 1.80295 1.36489 1.80296 1.26532 1.80295 1.16086 1.80296 1.05332 1.80295 0.9445 1.80296 0.83603 1.80295 0.72946 1.80296 0.62618 1.80295 0.52752 1.80296 0.43466 1.80295 0.34868 1.80295 0.27055 1.80296 0.20111 1.80295 0.14111 1.80296 0.0912 1.80295 0.0518 1.80296 0.0234 1.80295 6e-3 1.80295 4.8e-4 1.80295 6e-3 1.80297 0.0234 1.80295 0.0518 1.80296 0.0912 1.80295 0.14111 1.80295 0.20111 1.80296 0.27055 1.80295 0.34868 1.80296 0.43466 1.80295 0.52752 1.80295 0.62618 1.80295 0.72946 1.80297 0.83603 1.80295 0.9445 1.80296 1.05333 1.80295 1.16085 1.80295 1.26533 1.80296 1.36488 1.80295 1.45754 1.80296 1.54117 1.80295 1.61359 1.80295 1.67245 1.80295 1.71534 1.80297 1.73968 1.80295 1.7428 1.80296 1.72194 1.80295 1.67419 1.80295 1.59656 1.80296 1.48591 1.80295 1.33901 1.80295 1.15251 1.80296 0.92297 1.80295 0.64678 1.80295 0.32028 1.80297-0.0603 1.80295-0.49901 1.80296-0.99975 1.80295-1.56668 1.80295-2.2041 1.80296-2.91634 1.80295-3.7079 1.80297-4.58338 1.80295-5.54749 1.80295-6.60504 1.80295-7.76097 1.80296-9.02035 1.80295-10.3883 1.80296-11.8702 1.80295-13.4713" clip-path="url(#p7939fd919c)" stroke="#00f" stroke-linecap="square" stroke-linejoin="round" stroke-width="2.5"/><g stroke="#000"><g stroke-linecap="square" stroke-width="1.25"><path d="m1.05006 246.507h178.492"/><path d="m179.543 351.222v-104.715"/><path d="m1.05006 351.222h178.492"/><path d="m1.05006 351.222v-104.715"/></g><path d="m9.16335 351.222v-104.715" clip-path="url(#p7939fd919c)" stroke-dasharray="1.25, 3.75" stroke-linejoin="round" stroke-width=".625"/></g></g><g stroke-linejoin="round" stroke-miterlimit="1e5"><path d="m9.16335 351.222v-5" stroke="#000" stroke-width=".625"/><path d="m9.16335 246.507v5" stroke="#000" stroke-width=".625"/><g stroke-width=".075"><path d="m0.85183 359.258h4.69453v0.62227h-4.69453z"/><path d="m7.27195 361.299h1.2082v-4.17188l-1.31484 0.26368v-0.67383l1.30781-0.26367h0.73945v4.8457h1.20821v0.62227h-3.14883z"/><path d="m11.9148 360.99h0.77344v0.93047h-0.77344z"/><path d="m15.8808 356.94q-0.57071 0-0.85899 0.5625-0.28711 0.56132-0.28711 1.68984 0 1.12383 0.28711 1.68633 0.28828 0.5625 0.85899 0.5625 0.57539 0 0.8625-0.5625 0.28828-0.5625 0.28828-1.68633 0-1.12852-0.28828-1.68984-0.28711-0.5625-0.8625-0.5625m0-0.58594q0.91992 0 1.40507 0.72773 0.48516 0.72657 0.48516 2.11055 0 1.38047-0.48516 2.1082-0.48515 0.72657-1.40507 0.72657-0.91875 0-1.40391-0.72657-0.48516-0.72773-0.48516-2.1082 0-1.38398 0.48516-2.11055 0.48516-0.72773 1.40391-0.72773"/></g></g><g stroke="#000" stroke-linejoin="round" stroke-miterlimit="1e5" stroke-width=".625"><path d="m49.7298 351.222v-104.715" clip-path="url(#p7939fd919c)" fill="none" stroke-dasharray="1.25, 3.75"/><path d="m49.7298 351.222v-5"/><path d="m49.7298 246.507v5"/></g><g stroke-linejoin="round" stroke-miterlimit="1e5" stroke-width=".075"><path d="m41.4183 359.258h4.69453v0.62227h-4.69453z"/><path d="m49.2916 356.94q-0.5707 0-0.85898 0.5625-0.28711 0.56132-0.28711 1.68984 0 1.12383 0.28711 1.68633 0.28828 0.5625 0.85898 0.5625 0.57539 0 0.8625-0.5625 0.28828-0.5625 0.28828-1.68633 0-1.12852-0.28828-1.68984-0.28711-0.5625-0.8625-0.5625m0-0.58594q0.91993 0 1.40508 0.72773 0.48516 0.72657 0.48516 2.11055 0 1.38047-0.48516 2.1082-0.48515 0.72657-1.40508 0.72657-0.91875 0-1.4039-0.72657-0.48516-0.72773-0.48516-2.1082 0-1.38398 0.48516-2.11055 0.48515-0.72773 1.4039-0.72773"/><path d="m52.4812 360.99h0.77344v0.93047h-0.77344z"/><path d="m54.8735 356.453h2.9039v0.62343h-2.22656v1.33946q0.16055-0.0551 0.32109-0.082 0.16172-0.0269 0.32344-0.0269 0.91524 0 1.44961 0.50156 0.53555 0.50156 0.53555 1.3582 0 0.88243-0.54961 1.37227-0.54961 0.48867-1.54922 0.48867-0.34453 0-0.70195-0.0586-0.35625-0.0586-0.73711-0.17578v-0.74422q0.32929 0.1793 0.68086 0.26719 0.35156 0.0879 0.74297 0.0879 0.63398 0 1.00312-0.33281 0.37031-0.33282 0.37031-0.90469 0-0.5707-0.37031-0.90352-0.36914-0.33398-1.00312-0.33398-0.29649 0-0.5918 0.0656-0.29414 0.0656-0.60117 0.20508z"/></g><g stroke="#000" stroke-linejoin="round" stroke-miterlimit="1e5" stroke-width=".625"><path d="m90.2963 351.222v-104.715" clip-path="url(#p7939fd919c)" fill="none" stroke-dasharray="1.25, 3.75"/><path d="m90.2963 351.222v-5"/><path d="m90.2963 246.507v5"/></g><g stroke-linejoin="round" stroke-miterlimit="1e5" stroke-width=".075"><path d="m86.7162 356.94q-0.5707 0-0.85898 0.5625-0.28711 0.56132-0.28711 1.68984 0 1.12383 0.28711 1.68633 0.28828 0.5625 0.85898 0.5625 0.57539 0 0.8625-0.5625 0.28829-0.5625 0.28829-1.68633 0-1.12852-0.28829-1.68984-0.28711-0.5625-0.8625-0.5625m0-0.58594q0.91993 0 1.40508 0.72773 0.48516 0.72657 0.48516 2.11055 0 1.38047-0.48516 2.1082-0.48515 0.72657-1.40508 0.72657-0.91875 0-1.4039-0.72657-0.48516-0.72773-0.48516-2.1082 0-1.38398 0.48516-2.11055 0.48515-0.72773 1.4039-0.72773"/><path d="m89.9059 360.99h0.77344v0.93047h-0.77344z"/><path d="m93.872 356.94q-0.57071 0-0.85899 0.5625-0.28711 0.56132-0.28711 1.68984 0 1.12383 0.28711 1.68633 0.28828 0.5625 0.85899 0.5625 0.57539 0 0.8625-0.5625 0.28828-0.5625 0.28828-1.68633 0-1.12852-0.28828-1.68984-0.28711-0.5625-0.8625-0.5625m0-0.58594q0.91992 0 1.40507 0.72773 0.48516 0.72657 0.48516 2.11055 0 1.38047-0.48516 2.1082-0.48515 0.72657-1.40507 0.72657-0.91875 0-1.40391-0.72657-0.48516-0.72773-0.48516-2.1082 0-1.38398 0.48516-2.11055 0.48516-0.72773 1.40391-0.72773"/></g><g stroke="#000" stroke-linejoin="round" stroke-miterlimit="1e5" stroke-width=".625"><path d="m130.863 351.222v-104.715" clip-path="url(#p7939fd919c)" fill="none" stroke-dasharray="1.25, 3.75"/><path d="m130.863 351.222v-5"/><path d="m130.863 246.507v5"/></g><g stroke-linejoin="round" stroke-miterlimit="1e5" stroke-width=".075"><path d="m127.283 356.94q-0.5707 0-0.85898 0.5625-0.28711 0.56132-0.28711 1.68984 0 1.12383 0.28711 1.68633 0.28828 0.5625 0.85898 0.5625 0.57539 0 0.8625-0.5625 0.28828-0.5625 0.28828-1.68633 0-1.12852-0.28828-1.68984-0.28711-0.5625-0.8625-0.5625m0-0.58594q0.91993 0 1.40508 0.72773 0.48516 0.72657 0.48516 2.11055 0 1.38047-0.48516 2.1082-0.48515 0.72657-1.40508 0.72657-0.91875 0-1.4039-0.72657-0.48516-0.72773-0.48516-2.1082 0-1.38398 0.48516-2.11055 0.48515-0.72773 1.4039-0.72773"/><path d="m130.472 360.99h0.77344v0.93047h-0.77344z"/><path d="m132.865 356.453h2.9039v0.62343h-2.22656v1.33946q0.16055-0.0551 0.32109-0.082 0.16172-0.0269 0.32344-0.0269 0.91524 0 1.44961 0.50156 0.53555 0.50156 0.53555 1.3582 0 0.88243-0.54961 1.37227-0.54961 0.48867-1.54922 0.48867-0.34453 0-0.70195-0.0586-0.35625-0.0586-0.73711-0.17578v-0.74422q0.32929 0.1793 0.68086 0.26719 0.35156 0.0879 0.74297 0.0879 0.63398 0 1.00312-0.33281 0.37031-0.33282 0.37031-0.90469 0-0.5707-0.37031-0.90352-0.36914-0.33398-1.00312-0.33398-0.29649 0-0.5918 0.0656-0.29414 0.0656-0.60117 0.20508z"/></g><g stroke="#000" stroke-linejoin="round" stroke-miterlimit="1e5" stroke-width=".625"><path d="m171.429 351.222v-104.715" clip-path="url(#p7939fd919c)" fill="none" stroke-dasharray="1.25, 3.75"/><path d="m171.429 351.222v-5"/><path d="m171.429 246.507v5"/></g><g stroke-linejoin="round" stroke-miterlimit="1e5"><g stroke-width=".075"><path d="m166.396 361.299h1.2082v-4.17188l-1.31484 0.26368v-0.67383l1.30781-0.26367h0.73945v4.8457h1.20821v0.62227h-3.14883z"/><path d="m171.039 360.99h0.77344v0.93047h-0.77344z"/><path d="m175.005 356.94q-0.57071 0-0.85899 0.5625-0.28711 0.56132-0.28711 1.68984 0 1.12383 0.28711 1.68633 0.28828 0.5625 0.85899 0.5625 0.57539 0 0.8625-0.5625 0.28828-0.5625 0.28828-1.68633 0-1.12852-0.28828-1.68984-0.28711-0.5625-0.8625-0.5625m0-0.58594q0.91992 0 1.40507 0.72773 0.48516 0.72657 0.48516 2.11055 0 1.38047-0.48516 2.1082-0.48515 0.72657-1.40507 0.72657-0.91875 0-1.40391-0.72657-0.48516-0.72773-0.48516-2.1082 0-1.38398 0.48516-2.11055 0.48516-0.72773 1.40391-0.72773"/></g><path d="m92.826 371.86-1.97812 2.66094 2.07968 2.80781h-1.05937l-1.59219-2.14843-1.59062 2.14843h-1.06094l2.125-2.86093-1.94375-2.60782h1.05937l1.45 1.94844 1.45-1.94844z" stroke-width=".1"/></g><g stroke="#000" stroke-linejoin="round" stroke-miterlimit="1e5" stroke-width=".625"><path d="m1.05006 351.222h178.492" clip-path="url(#p7939fd919c)" fill="none" stroke-dasharray="1.25, 3.75"/><path d="m1.05006 351.222h5"/><path d="m179.543 351.222h-5"/></g><g stroke-linejoin="round" stroke-miterlimit="1e5" stroke-width=".075"><path d="m-21.3675 350.629h4.69453v0.62226h-4.69453z"/><path d="m-13.4943 348.311q-0.5707 0-0.85898 0.5625-0.28711 0.56133-0.28711 1.68984 0 1.12383 0.28711 1.68633 0.28828 0.5625 0.85898 0.5625 0.57539 0 0.8625-0.5625 0.28828-0.5625 0.28828-1.68633 0-1.12851-0.28828-1.68984-0.28711-0.5625-0.8625-0.5625m0-0.58594q0.91993 0 1.40508 0.72774 0.48516 0.72656 0.48516 2.11054 0 1.38047-0.48516 2.10821-0.48515 0.72656-1.40508 0.72656-0.91875 0-1.4039-0.72656-0.48516-0.72774-0.48516-2.10821 0-1.38398 0.48516-2.11054 0.48515-0.72774 1.4039-0.72774"/><path d="m-10.3046 352.361h0.77344v0.93047h-0.77344z"/><path d="m-5.67875 350.343q0.53086 0.11367 0.82852 0.47344 0.29882 0.35859 0.29882 0.88594 0 0.80859-0.55664 1.25273-0.55664 0.44297-1.58203 0.44297-0.34336 0-0.70781-0.068t-0.75234-0.20391v-0.71367q0.30703 0.1793 0.67265 0.2707 0.3668 0.0914 0.76641 0.0914 0.69492 0 1.05937-0.27422 0.36446-0.27421 0.36446-0.79804 0-0.48399-0.33867-0.75586-0.33868-0.27305-0.94219-0.27305h-0.6375v-0.6082h0.66679q0.54493 0 0.83438-0.21797t0.28945-0.62813q0-0.4207-0.29883-0.6457-0.29765-0.22617-0.85429-0.22617-0.30469 0-0.65274 0.0668-0.34804 0.0656-0.76523 0.2039v-0.65859q0.42187-0.11719 0.78984-0.17578 0.36797-0.0586 0.69375-0.0586 0.84258 0 1.33242 0.3832 0.49102 0.38203 0.49102 1.0336 0 0.45468-0.26016 0.76758-0.26015 0.31289-0.73945 0.43359"/></g><g stroke="#000" stroke-linejoin="round" stroke-miterlimit="1e5" stroke-width=".625"><path d="m1.05006 333.77h178.492" clip-path="url(#p7939fd919c)" fill="none" stroke-dasharray="1.25, 3.75"/><path d="m1.05006 333.77h5"/><path d="m179.543 333.77h-5"/></g><g stroke-linejoin="round" stroke-miterlimit="1e5" stroke-width=".075"><path d="m-21.3675 333.177h4.69453v0.62227h-4.69453z"/><path d="m-13.4943 330.859q-0.5707 0-0.85898 0.5625-0.28711 0.56133-0.28711 1.68985 0 1.12382 0.28711 1.68632 0.28828 0.5625 0.85898 0.5625 0.57539 0 0.8625-0.5625 0.28828-0.5625 0.28828-1.68632 0-1.12852-0.28828-1.68985-0.28711-0.5625-0.8625-0.5625m0-0.58594q0.91993 0 1.40508 0.72774 0.48516 0.72656 0.48516 2.11055 0 1.38046-0.48516 2.1082-0.48515 0.72656-1.40508 0.72656-0.91875 0-1.4039-0.72656-0.48516-0.72774-0.48516-2.1082 0-1.38399 0.48516-2.11055 0.48515-0.72774 1.4039-0.72774"/><path d="m-10.3046 334.909h0.77344v0.93047h-0.77344z"/><path d="m-7.28305 335.217h2.58164v0.62227h-3.47109v-0.62227q0.4207-0.43593 1.14727-1.16953 0.72773-0.73476 0.91406-0.94804 0.35508-0.39844 0.4957-0.675 0.1418-0.27657 0.1418-0.54375 0-0.43594-0.30586-0.71016-0.30586-0.27539-0.79688-0.27539-0.34804 0-0.73476 0.1207-0.38555 0.12071-0.825 0.3668v-0.74766q0.44648-0.17929 0.83437-0.2707 0.38907-0.0914 0.71133-0.0914 0.84961 0 1.35469 0.42539 0.50508 0.42422 0.50508 1.13438 0 0.3375-0.12656 0.63984-0.1254 0.30117-0.45938 0.71133-0.0914 0.10664-0.58242 0.61406-0.48985 0.50742-1.38399 1.41914"/></g><g stroke="#000" stroke-linejoin="round" stroke-miterlimit="1e5" stroke-width=".625"><path d="m1.05006 316.317h178.492" clip-path="url(#p7939fd919c)" fill="none" stroke-dasharray="1.25, 3.75"/><path d="m1.05006 316.317h5"/><path d="m179.543 316.317h-5"/></g><g stroke-linejoin="round" stroke-miterlimit="1e5" stroke-width=".075"><path d="m-21.3675 315.724h4.69453v0.62227h-4.69453z"/><path d="m-13.4943 313.406q-0.5707 0-0.85898 0.5625-0.28711 0.56133-0.28711 1.68985 0 1.12382 0.28711 1.68632 0.28828 0.5625 0.85898 0.5625 0.57539 0 0.8625-0.5625 0.28828-0.5625 0.28828-1.68632 0-1.12852-0.28828-1.68985-0.28711-0.5625-0.8625-0.5625m0-0.58594q0.91993 0 1.40508 0.72774 0.48516 0.72656 0.48516 2.11055 0 1.38046-0.48516 2.1082-0.48515 0.72656-1.40508 0.72656-0.91875 0-1.4039-0.72656-0.48516-0.72774-0.48516-2.1082 0-1.38399 0.48516-2.11055 0.48515-0.72774 1.4039-0.72774"/><path d="m-10.3046 317.456h0.77344v0.93047h-0.77344z"/><path d="m-7.79164 317.764h1.2082v-4.17188l-1.31484 0.26367v-0.67383l1.30781-0.26367h0.73946v4.84571h1.2082v0.62226h-3.14883z"/></g><g stroke="#000" stroke-linejoin="round" stroke-miterlimit="1e5" stroke-width=".625"><path d="m1.05006 298.865h178.492" clip-path="url(#p7939fd919c)" fill="none" stroke-dasharray="1.25, 3.75"/><path d="m1.05006 298.865h5"/><path d="m179.543 298.865h-5"/></g><g stroke-linejoin="round" stroke-miterlimit="1e5" stroke-width=".075"><path d="m-13.4937 295.954q-0.5707 0-0.85898 0.5625-0.28711 0.56133-0.28711 1.68985 0 1.12382 0.28711 1.68632 0.28828 0.5625 0.85898 0.5625 0.57539 0 0.8625-0.5625 0.28828-0.5625 0.28828-1.68632 0-1.12852-0.28828-1.68985-0.28711-0.5625-0.8625-0.5625m0-0.58593q0.91993 0 1.40508 0.72773 0.48516 0.72656 0.48516 2.11055 0 1.38047-0.48516 2.1082-0.48515 0.72656-1.40508 0.72656-0.91875 0-1.4039-0.72656-0.48516-0.72773-0.48516-2.1082 0-1.38399 0.48516-2.11055 0.48515-0.72773 1.4039-0.72773"/><path d="m-10.304 300.004h0.77344v0.93047h-0.77344z"/><path d="m-6.33792 295.954q-0.57071 0-0.85899 0.5625-0.28711 0.56133-0.28711 1.68985 0 1.12382 0.28711 1.68632 0.28828 0.5625 0.85899 0.5625 0.57539 0 0.8625-0.5625 0.28828-0.5625 0.28828-1.68632 0-1.12852-0.28828-1.68985-0.28711-0.5625-0.8625-0.5625m0-0.58593q0.91992 0 1.40507 0.72773 0.48516 0.72656 0.48516 2.11055 0 1.38047-0.48516 2.1082-0.48515 0.72656-1.40507 0.72656-0.91875 0-1.40391-0.72656-0.48516-0.72773-0.48516-2.1082 0-1.38399 0.48516-2.11055 0.48516-0.72773 1.40391-0.72773"/></g><g stroke="#000" stroke-linejoin="round" stroke-miterlimit="1e5" stroke-width=".625"><path d="m1.05006 281.412h178.492" clip-path="url(#p7939fd919c)" fill="none" stroke-dasharray="1.25, 3.75"/><path d="m1.05006 281.412h5"/><path d="m179.543 281.412h-5"/></g><g stroke-linejoin="round" stroke-miterlimit="1e5" stroke-width=".075"><path d="m-13.4937 278.501q-0.5707 0-0.85898 0.5625-0.28711 0.56133-0.28711 1.68985 0 1.12382 0.28711 1.68632 0.28828 0.5625 0.85898 0.5625 0.57539 0 0.8625-0.5625 0.28828-0.5625 0.28828-1.68632 0-1.12852-0.28828-1.68985-0.28711-0.5625-0.8625-0.5625m0-0.58593q0.91993 0 1.40508 0.72773 0.48516 0.72656 0.48516 2.11055 0 1.38047-0.48516 2.1082-0.48515 0.72656-1.40508 0.72656-0.91875 0-1.4039-0.72656-0.48516-0.72773-0.48516-2.1082 0-1.38399 0.48516-2.11055 0.48515-0.72773 1.4039-0.72773"/><path d="m-10.304 282.551h0.77344v0.93047h-0.77344z"/><path d="m-7.79105 282.859h1.2082v-4.17188l-1.31484 0.26367v-0.67383l1.30781-0.26367h0.73946v4.84571h1.2082v0.62226h-3.14883z"/></g><g stroke="#000" stroke-linejoin="round" stroke-miterlimit="1e5" stroke-width=".625"><path d="m1.05006 263.96h178.492" clip-path="url(#p7939fd919c)" fill="none" stroke-dasharray="1.25, 3.75"/><path d="m1.05006 263.96h5"/><path d="m179.543 263.96h-5"/></g><g stroke-linejoin="round" stroke-miterlimit="1e5" stroke-width=".075"><path d="m-13.4937 261.049q-0.5707 0-0.85898 0.5625-0.28711 0.56133-0.28711 1.68985 0 1.12382 0.28711 1.68632 0.28828 0.5625 0.85898 0.5625 0.57539 0 0.8625-0.5625 0.28828-0.5625 0.28828-1.68632 0-1.12852-0.28828-1.68985-0.28711-0.5625-0.8625-0.5625m0-0.58594q0.91993 0 1.40508 0.72774 0.48516 0.72656 0.48516 2.11055 0 1.38046-0.48516 2.1082-0.48515 0.72656-1.40508 0.72656-0.91875 0-1.4039-0.72656-0.48516-0.72774-0.48516-2.1082 0-1.38399 0.48516-2.11055 0.48515-0.72774 1.4039-0.72774"/><path d="m-10.304 265.099h0.77344v0.93047h-0.77344z"/><path d="m-7.28246 265.407h2.58164v0.62227h-3.47109v-0.62227q0.4207-0.43593 1.14727-1.16953 0.72773-0.73476 0.91406-0.94804 0.35508-0.39844 0.4957-0.675 0.1418-0.27657 0.1418-0.54375 0-0.43594-0.30586-0.71016-0.30586-0.27539-0.79688-0.27539-0.34804 0-0.73476 0.1207-0.38555 0.12071-0.825 0.3668v-0.74766q0.44648-0.17929 0.83437-0.2707 0.38907-0.0914 0.71133-0.0914 0.84961 0 1.35469 0.42539 0.50508 0.42422 0.50508 1.13438 0 0.3375-0.12656 0.63984-0.1254 0.30117-0.45938 0.71133-0.0914 0.10664-0.58242 0.61406-0.48985 0.50742-1.38399 1.41914"/></g><g stroke="#000" stroke-linejoin="round" stroke-miterlimit="1e5" stroke-width=".625"><path d="m1.05006 246.507h178.492" clip-path="url(#p7939fd919c)" fill="none" stroke-dasharray="1.25, 3.75"/><path d="m1.05006 246.507h5"/><path d="m179.543 246.507h-5"/></g><g stroke-linejoin="round" stroke-miterlimit="1e5"><g stroke-width=".075"><path d="m-13.4937 243.596q-0.5707 0-0.85898 0.5625-0.28711 0.56133-0.28711 1.68985 0 1.12382 0.28711 1.68632 0.28828 0.5625 0.85898 0.5625 0.57539 0 0.8625-0.5625 0.28828-0.5625 0.28828-1.68632 0-1.12852-0.28828-1.68985-0.28711-0.5625-0.8625-0.5625m0-0.58594q0.91993 0 1.40508 0.72774 0.48516 0.72656 0.48516 2.11055 0 1.38046-0.48516 2.1082-0.48515 0.72656-1.40508 0.72656-0.91875 0-1.4039-0.72656-0.48516-0.72774-0.48516-2.1082 0-1.38399 0.48516-2.11055 0.48515-0.72774 1.4039-0.72774"/><path d="m-10.304 247.646h0.77344v0.93047h-0.77344z"/><path d="m-5.67816 245.628q0.53086 0.11367 0.82852 0.47344 0.29882 0.35859 0.29882 0.88594 0 0.80859-0.55664 1.25273-0.55664 0.44297-1.58203 0.44297-0.34336 0-0.70781-0.068t-0.75234-0.2039v-0.71368q0.30703 0.1793 0.67265 0.27071 0.3668 0.0914 0.76641 0.0914 0.69492 0 1.05937-0.27422 0.36446-0.27422 0.36446-0.79805 0-0.48398-0.33867-0.75586-0.33868-0.27305-0.94219-0.27305h-0.6375v-0.6082h0.66679q0.54493 0 0.83438-0.21797t0.28945-0.62812q0-0.42071-0.29883-0.64571-0.29765-0.22617-0.85429-0.22617-0.30469 0-0.65274 0.0668-0.34804 0.0656-0.76523 0.20391v-0.6586q0.42187-0.11719 0.78984-0.17578 0.36797-0.0586 0.69375-0.0586 0.84258 0 1.33242 0.3832 0.49102 0.38203 0.49102 1.0336 0 0.45468-0.26016 0.76757-0.26015 0.31289-0.73945 0.4336"/></g><g stroke-width=".1"><path d="m-38.0902 303.775h0.74844v0.85937q0 0.48281 0.19531 0.67188 0.19531 0.1875 0.70313 0.1875h0.48281v-1.47969h0.69844v1.47969h4.77031v0.90312h-4.77031v0.85938h-0.69844v-0.85938h-0.38125q-0.9125 0-1.32969-0.425-0.41875-0.425-0.41875-1.34687z"/><path d="m-38.0792 300.865q1.12187 0.65312 2.22187 0.97187 1.09844 0.31719 2.22657 0.31719 1.12656 0 2.23281-0.32031 1.10625-0.32032 2.225-0.96875v0.78125q-1.14844 0.73125-2.25625 1.09531t-2.20156 0.36406q-1.08906 0-2.19219-0.36094-1.10469-0.3625-2.25625-1.09843z"/><path d="m-35.9605 294.575 2.66094 1.97812 2.80781-2.07969v1.05938l-2.14844 1.59219 2.14844 1.59062v1.06094l-2.86094-2.125-2.60781 1.94375v-1.05938l1.94844-1.45-1.94844-1.45z"/><path d="m-38.0792 293.344v-0.78125q1.15156-0.73125 2.25625-1.09532 1.10313-0.36406 2.19219-0.36406 1.09375 0 2.20156 0.36406 1.10781 0.36407 2.25625 1.09532v0.78125q-1.11875-0.64844-2.225-0.96875t-2.23281-0.32031q-1.12813 0-2.22657 0.32031-1.1 0.32031-2.22187 0.96875"/></g></g><g fill="#00f"><path d="m13.0217 258.707-0.6289-0.48535q0.66992-1.0459 1.35351-2.69336 0.6836-1.6543 0.89551-2.74805h-1.70215v-0.7793h1.77051v-2.67285h1.02539v2.67285h1.34668v0.7793h-1.34668v1.51758q0.82031 0.99121 1.29883 1.33984l-0.35547 0.86133q-0.40332-0.38965-0.94336-1.05957v6.37109h-1.02539v-6.35742q-0.62207 1.68164-1.68848 3.25391zm6.11133 1.23047-0.12305-0.81348h0.89551q0.42383 0 0.62891-0.16406 0.21191-0.16407 0.33496-0.66992 0.12305-0.50586 0.15039-2.72071l0.0273-3.05566h-2.02343l-0.0752-0.10254 0.58106-1.96875h-2.50879v-0.74512h9.1123v0.74512h-5.63281l-0.45117 1.40137h1.91406v2.75488q0 2.05078-0.12305 3.34961-0.11621 1.29883-0.44433 1.58594-0.32129 0.28027-0.64258 0.35546-0.32129 0.0752-1.62012 0.0478zm6.22754-0.11621q-0.65625-0.82032-1.20996-1.81153-0.58789 1.06641-1.33301 1.90039l-0.65625-0.51269q0.85449-0.97071 1.50391-2.36524-0.81348-1.83886-1.1416-3.52051l0.76562-0.18457q0.28711 1.32618 0.82031 2.61817 0.65625-1.81836 0.65625-3.31543h-2.24218v-0.74512h3.24023q-0.0273 2.63184-1.1416 5.16113 0.62891 1.19629 1.44238 2.11915zm-7.23926-1.85254v0.32812h-0.81347v-4.74414h2.72754v4.41602zm1.11426-3.78711h-1.11426v3.13086h1.11426zm-2.58398 7.30078v-0.81348h9.50879v0.81348z"/><path d="m39.6067 260.778-0.7041 0.86132q-1.90722-1.08691-3.34961-2.94628-1.44238-1.85938-2.18066-3.7461-0.66309 2.25586-2.23535 4.0127-1.56543 1.75-3.97168 2.63183l-0.39649-0.7998q2.24219-0.80664 3.86231-2.80274 1.62012-2.00293 1.90722-4.2041h-5.42773v-0.90234h5.62598v-3.43848h1.1416v3.43848h5.62598v0.90234h-5.50977q0.56055 1.92774 2.11914 3.96485 1.55859 2.03027 3.49316 3.02832z"/><path d="m139.195 344.908-0.6289-0.48535q0.66992-1.0459 1.35351-2.69336 0.6836-1.6543 0.89551-2.74805h-1.70215v-0.7793h1.77051v-2.67285h1.02539v2.67285h1.34668v0.7793h-1.34668v1.51758q0.82031 0.99121 1.29883 1.33984l-0.35547 0.86133q-0.40332-0.38965-0.94336-1.05957v6.37109h-1.02539v-6.35742q-0.62207 1.68164-1.68848 3.25391zm6.11133 1.23047-0.12305-0.81348h0.89551q0.42383 0 0.62891-0.16406 0.21191-0.16406 0.33496-0.66992t0.15039-2.72071l0.0273-3.05566h-2.02343l-0.0752-0.10254 0.58106-1.96875h-2.50879v-0.74512h9.1123v0.74512h-5.63281l-0.45117 1.40137h1.91406v2.75488q0 2.05078-0.12305 3.34961-0.11621 1.29883-0.44433 1.58594-0.32129 0.28027-0.64258 0.35547t-1.62012 0.0478zm6.22754-0.11621q-0.65625-0.82032-1.20996-1.81153-0.58789 1.06641-1.33301 1.90039l-0.65625-0.51269q0.85449-0.97071 1.50391-2.36524-0.81348-1.83886-1.1416-3.5205l0.76562-0.18457q0.28711 1.32617 0.82031 2.61816 0.65625-1.81836 0.65625-3.31543h-2.24218v-0.74512h3.24023q-0.0273 2.63184-1.1416 5.16114 0.62891 1.19628 1.44238 2.11914zm-7.23926-1.85254v0.32812h-0.81347v-4.74414h2.72754v4.41602zm1.11426-3.78711h-1.11426v3.13086h1.11426zm-2.58398 7.30078v-0.81348h9.50879v0.81348z"/><path d="m158.439 347.84h-2.03028l-0.10937-1.01856h1.79785q0.65625 0 0.65625-0.51269v-10.6504h1.15527v11.0811q0 0.50586-0.41699 0.7998-0.41015 0.30079-1.05273 0.30079zm6.55566-3.06934q-0.80664-1.25781-1.64746-3.35645-0.84082-2.09863-1.18262-3.26074l1.07325-0.28027q0.49218 1.69531 1.30566 3.49316t1.44922 2.80274zm-11.5254 0.082-0.85449-0.56738q1.05273-1.26465 1.74316-3.08985 0.69727-1.82519 0.85449-3.15136l1.12793 0.17089q-0.2871 1.77051-1.0664 3.60938-0.77246 1.83203-1.80469 3.02832z"/></g></g></svg>
