<?xml version="1.0" encoding="UTF-8"?>
<svg width="181.251" height="97.7508" version="1.1" viewBox="0 0 181.25078 97.750755" xmlns="http://www.w3.org/2000/svg"><g transform="translate(-46.5175 -281.294)"><path d="m47.0175 281.794v96.7508h180.251v-96.7508z" color="#000000" color-rendering="auto" dominant-baseline="auto" fill="#e5e5e5" image-rendering="auto" shape-rendering="auto" solid-color="#000000" style="font-feature-settings:normal;font-variant-alternates:normal;font-variant-caps:normal;font-variant-ligatures:normal;font-variant-numeric:normal;font-variant-position:normal;isolation:auto;mix-blend-mode:normal;shape-padding:0;text-decoration-color:#000000;text-decoration-line:none;text-decoration-style:solid;text-indent:0;text-orientation:mixed;text-transform:none;white-space:normal"/><path d="m145.768 362.719h-82.7537v-65.3492h82.7537" fill="#fff"/><g><path d="m170.831 363.119h-107.92v-65.899h107.92" fill="none" stroke="#555" stroke-width="3.56749"/><g stroke-linejoin="round"><g stroke-miterlimit="1e5" stroke-width="1.33333"><path d="m80.4521 307.586c0.13389-0.53559 0.2104-0.65035 0.43995-0.70775 0.17215-0.0382 0.80338-0.0382 1.20508-0.0382 1.93195 0 2.79273 0.0765 2.79273 1.56853 0 0.28691-0.0765 1.03291-0.15304 1.53026-0.0191 0.0765-0.0574 0.30604-0.0574 0.36344 0 0.11472 0.0574 0.24865 0.22953 0.24865 0.21042 0 0.24867-0.15296 0.28693-0.43993l0.51646-3.32832c0.0191-0.0765 0.0383-0.26781 0.0383-0.32519 0-0.21041-0.19128-0.21041-0.51646-0.21041h-10.6162c-0.45907 0-0.4782 0.0192-0.61209 0.38256l-1.14771 3.36657c-0.0191 0.0382-0.11477 0.30607-0.11477 0.34432 0 0.11472 0.0956 0.2104 0.22954 0.2104 0.19129 0 0.21041-0.0957 0.32518-0.40168 1.03293-2.96489 1.53027-3.3092 4.36125-3.3092h0.746c0.5356 0 0.5356 0.0765 0.5356 0.22954 0 0.11472-0.0574 0.34432-0.0765 0.40169l-2.56318 10.2145c-0.17216 0.70775-0.22955 0.91816-2.27627 0.91816-0.68862 0-0.80339 0-0.80339 0.36344 0 0.22954 0.21041 0.22954 0.32518 0.22954 0.51646 0 1.05206-0.0382 1.56851-0.0382 0.5356 0 1.09032-0.0192 1.62591-0.0192 0.53558 0 1.07118 0.0192 1.58764 0.0192 0.55472 0 1.12858 0.0382 1.66416 0.0382 0.19128 0 0.42084 0 0.42084-0.38256 0-0.21042-0.15303-0.21042-0.65037-0.21042-0.47821 0-0.72688 0-1.22421-0.0382-0.55472-0.0574-0.70774-0.11472-0.70774-0.42081 0-0.0192 0-0.11472 0.0765-0.4017z"/><path d="m88.8986 319.177c0-1.26247-0.47821-2.00847-1.22421-2.00847-0.63123 0-1.01381 0.47821-1.01381 1.01381 0 0.51646 0.38258 1.01379 1.01381 1.01379 0.22954 0 0.47821-0.0765 0.66949-0.24867 0.0574-0.0382 0.0765-0.0574 0.0957-0.0574 0.0191 0 0.0382 0.0192 0.0382 0.28691 0 1.41551-0.6695 2.5632-1.30073 3.19443-0.2104 0.2104-0.2104 0.24868-0.2104 0.30605 0 0.13392 0.0956 0.21042 0.19128 0.21042 0.21041 0 1.74067-1.47288 1.74067-3.7109z"/><path d="m105.51 308.312c0.93728-1.492 1.74067-1.5494 2.44842-1.58765 0.22953-0.019 0.24865-0.34431 0.24865-0.36344 0-0.15296-0.0956-0.22954-0.24865-0.22954-0.49735 0-1.05207 0.0574-1.56853 0.0574-0.63123 0-1.28159-0.0574-1.8937-0.0574-0.11477 0-0.36344 0-0.36344 0.36344 0 0.21042 0.17216 0.22954 0.30607 0.22954 0.51646 0.0382 0.87988 0.22953 0.87988 0.63123 0 0.28693-0.28691 0.70774-0.28691 0.72688l-5.87238 9.33459-1.30072-10.1188c0-0.32519 0.43995-0.57386 1.31984-0.57386 0.26781 0 0.47821 0 0.47821-0.38256 0-0.17216-0.15303-0.21042-0.2678-0.21042-0.76512 0-1.58764 0.0574-2.3719 0.0574-0.3443 0-0.70774-0.0192-1.05205-0.0192-0.3443 0-0.70774-0.0382-1.03293-0.0382-0.1339 0-0.36344 0-0.36344 0.36344 0 0.22954 0.17216 0.22954 0.47821 0.22954 1.07119 0 1.09031 0.17216 1.1477 0.65037l1.51113 11.8021c0.0574 0.38257 0.13389 0.43995 0.38256 0.43995 0.30605 0 0.38256-0.0957 0.5356-0.34431z"/></g><path d="m146.643 327.545h67.1751" fill="none" stroke="#6261dd" stroke-width="10"/></g></g><g><rect x="142.489" y="298.745" width="5.57107" height="62.7516" rx="3.88909" ry="3.88909" fill="#6563e1"/><path d="m176.277 345.767c0.78107-1.24333 1.45056-1.29116 2.04035-1.32304 0.19128-0.0159 0.20721-0.28692 0.20721-0.30287 0-0.12746-0.0797-0.19128-0.20721-0.19128-0.41445 0-0.87672 0.0479-1.30711 0.0479-0.52603 0-1.06799-0.0479-1.57808-0.0479-0.0956 0-0.30287 0-0.30287 0.30287 0 0.17535 0.14347 0.19128 0.25506 0.19128 0.43038 0.0319 0.73324 0.19128 0.73324 0.52603 0 0.2391-0.2391 0.58978-0.2391 0.60573l-4.89365 7.77883-1.08393-8.43238c0-0.27098 0.36663-0.47821 1.09986-0.47821 0.22318 0 0.39851 0 0.39851-0.3188 0-0.14347-0.12752-0.17535-0.22316-0.17535-0.6376 0-1.32304 0.0479-1.97658 0.0479-0.28692 0-0.58979-0.016-0.87671-0.016s-0.58979-0.0319-0.86078-0.0319c-0.11158 0-0.30286 0-0.30286 0.30287 0 0.19128 0.14346 0.19128 0.3985 0.19128 0.89266 0 0.90859 0.14347 0.95642 0.54197l1.25928 9.83511c0.0478 0.31881 0.11157 0.36663 0.3188 0.36663 0.25504 0 0.3188-0.0797 0.44633-0.28692z" fill="#dd3838" stroke-linejoin="round" stroke-miterlimit="1e5" stroke-width="1.33333"/><path d="m137.987 342.936-8.6165 6.6328 8.6165 6.63281-1.55923-4.77818h17.1713l-1.55923 4.77818 8.6165-6.63281-8.6165-6.6328 1.55923 4.77818h-17.1713z" color="#000000" color-rendering="auto" dominant-baseline="auto" fill="#f00" image-rendering="auto" shape-rendering="auto" solid-color="#000000" style="font-feature-settings:normal;font-variant-alternates:normal;font-variant-caps:normal;font-variant-ligatures:normal;font-variant-numeric:normal;font-variant-position:normal;isolation:auto;mix-blend-mode:normal;shape-padding:0;text-decoration-color:#000000;text-decoration-line:none;text-decoration-style:solid;text-indent:0;text-orientation:mixed;text-transform:none;white-space:normal"/></g></g></svg>
