<svg xmlns="http://www.w3.org/2000/svg" xml:space="preserve" width="192.751" height="110.751" viewBox="0 0 192.751 110.751"><path fill="#cacaca" d="M0 0v110.751h192.751V0Z" color="#000" style="font-variant-ligatures:normal;font-variant-position:normal;font-variant-caps:normal;font-variant-numeric:normal;font-variant-alternates:normal;font-feature-settings:normal;text-indent:0;text-decoration-line:none;text-decoration-style:solid;text-decoration-color:#000;text-transform:none;text-orientation:mixed;white-space:normal;shape-padding:0;isolation:auto;mix-blend-mode:normal"/><path fill="#fff" d="M10.185 9.98h171.497v89.155H10.185z"/><path d="M30.355 22.546c.133-.536.21-.65.44-.708.172-.038.803-.038 1.205-.038 1.931 0 2.792.077 2.792 1.569 0 .286-.076 1.032-.153 1.53a3 3 0 0 0-.057.363c0 .115.057.249.23.249.21 0 .248-.153.286-.44l.517-3.328c.019-.077.038-.268.038-.326 0-.21-.191-.21-.516-.21H24.52c-.459 0-.478.02-.612.383l-1.147 3.366c-.02.038-.115.306-.115.345 0 .114.096.21.23.21.19 0 .21-.096.325-.402 1.032-2.965 1.53-3.309 4.36-3.309h.747c.535 0 .535.077.535.23 0 .114-.057.344-.076.401l-2.563 10.215c-.172.708-.23.918-2.277.918-.688 0-.803 0-.803.363 0 .23.21.23.325.23.517 0 1.052-.038 1.569-.038.535 0 1.09-.02 1.626-.02s1.07.02 1.587.02c.555 0 1.129.038 1.664.038.192 0 .421 0 .421-.383 0-.21-.153-.21-.65-.21-.478 0-.727 0-1.224-.038-.555-.058-.708-.115-.708-.421 0-.02 0-.115.076-.402zm7.453 5.964c0-.362-.026-.375-.401-.375-.857.844-2.076.857-2.625.857v.482c.322 0 1.205 0 1.942-.375v6.829c0 .442 0 .616-1.34.616h-.508v.482a102 102 0 0 1 2.383-.054c.415 0 2.103.04 2.397.054v-.482h-.509c-1.339 0-1.339-.174-1.339-.616zm122.144-5.964c.134-.536.21-.65.44-.708.172-.038.803-.038 1.205-.038 1.932 0 2.793.077 2.793 1.569 0 .286-.077 1.032-.153 1.53-.02.076-.058.306-.058.363 0 .115.058.249.23.249.21 0 .248-.153.287-.44l.516-3.328c.02-.077.038-.268.038-.326 0-.21-.19-.21-.516-.21h-10.616c-.46 0-.479.02-.612.383l-1.148 3.366c-.02.038-.115.306-.115.345 0 .114.096.21.23.21.19 0 .21-.096.325-.402 1.033-2.965 1.53-3.309 4.361-3.309h.746c.536 0 .536.077.536.23 0 .114-.058.344-.077.401l-2.563 10.215c-.172.708-.23.918-2.276.918-.689 0-.804 0-.804.363 0 .23.21.23.326.23.516 0 1.052-.038 1.568-.038.536 0 1.09-.02 1.626-.02s1.071.02 1.588.02c.554 0 1.128.038 1.664.038.191 0 .42 0 .42-.383 0-.21-.152-.21-.65-.21-.478 0-.727 0-1.224-.038-.555-.058-.708-.115-.708-.421 0-.02 0-.115.077-.402zm9.73 12.043h-.455c-.04.295-.175 1.085-.349 1.218-.107.08-1.138.08-1.325.08h-2.464c1.406-1.244 1.875-1.62 2.678-2.249.99-.79 1.915-1.62 1.915-2.892 0-1.62-1.42-2.61-3.133-2.61-1.66 0-2.785 1.164-2.785 2.396 0 .683.575.75.71.75.32 0 .709-.228.709-.71 0-.241-.094-.71-.79-.71.415-.95 1.325-1.245 1.955-1.245 1.339 0 2.035 1.045 2.035 2.13 0 1.164-.83 2.088-1.259 2.57l-3.227 3.187c-.133.12-.133.147-.133.522h5.516z"/><path fill="#6563e1" d="M96.475 10.875v89h-5.571v-89z"/><path fill="red" d="m86.486 75.235-8.617 6.633 8.617 6.633-1.56-4.779h17.172l-1.56 4.779 8.617-6.633-8.616-6.633 1.559 4.778H84.927z" color="#000" style="font-variant-ligatures:normal;font-variant-position:normal;font-variant-caps:normal;font-variant-numeric:normal;font-variant-alternates:normal;font-feature-settings:normal;text-indent:0;text-decoration-line:none;text-decoration-style:solid;text-decoration-color:#000;text-transform:none;text-orientation:mixed;white-space:normal;shape-padding:0;isolation:auto;mix-blend-mode:normal"/><path fill="#dd3838" d="M121.859 85.845c2.47-.94 4.814-3.778 4.814-6.854 0-2.567-1.69-4.288-4.065-4.288-3.443 0-6.95 3.618-6.95 7.332 0 2.646 1.786 4.256 4.081 4.256.398 0 .94-.063 1.562-.239-.064.989-.064 1.02-.064 1.228 0 .51 0 1.753 1.323 1.753 1.897 0 2.662-2.917 2.662-3.092 0-.112-.111-.16-.175-.16-.127 0-.16.08-.191.176-.383 1.131-1.307 1.53-1.865 1.53-.733 0-.973-.43-1.132-1.642m-3.013-.127c-1.243-.495-1.785-1.738-1.785-3.173 0-1.1.414-3.363 1.626-5.085 1.164-1.625 2.662-2.359 3.826-2.359 1.594 0 2.757 1.244 2.757 3.38 0 1.594-.813 5.324-3.49 6.822-.08-.558-.24-1.721-1.403-1.721-.845 0-1.626.797-1.626 1.625 0 .32.095.495.095.51m.989.175c-.224 0-.734 0-.734-.686 0-.637.606-1.275 1.276-1.275.669 0 .972.383.972 1.355 0 .24-.016.255-.175.319a3.5 3.5 0 0 1-1.34.287"/><path fill="none" stroke="#555" stroke-width="3.567" d="M10.875 10.875h171v89h-171z"/></svg>