<?xml version="1.0" encoding="UTF-8"?>
<svg width="200" height="30" version="1.1" viewBox="0 0 52.916666 7.9375001" xmlns="http://www.w3.org/2000/svg" xmlns:xlink="http://www.w3.org/1999/xlink"><defs><linearGradient id="linearGradient770"><stop stop-color="#fd0000" offset="0"/><stop offset="1"/></linearGradient><linearGradient id="linearGradient110" x1="-830" x2="-830" y1="-1665.5" y2="-1727.5" gradientTransform="matrix(.066604 0 0 .066604 82.844 117.02)" gradientUnits="userSpaceOnUse" xlink:href="#linearGradient770"/></defs><g fill="url(#linearGradient110)"><path d="m1.2689 5.1079v0.48959q0 0.56832 0.044285 0.64459 0.046745 0.071348 0.31491 0.09595 0.039364 0.00738 0.039364 0.059046 0 0.056586-0.034444 0.056586-0.32476-0.00984-0.5265-0.00984-0.22634 0-0.54126 0.00984-0.034444 0-0.034444-0.056586 0-0.054126 0.046745-0.059046 0.24357-0.017222 0.28047-0.09595 0.041825-0.081189 0.041825-0.64459v-1.7542q0-0.31983-0.029523-0.4084-0.034444-0.10087-0.1427-0.10087l-0.15992 0.00984q-0.061507 0-0.061507-0.081189 0-0.044285 0.056586-0.056586 0.36166-0.083649 0.65935-0.19928 0.061507 0 0.061507 0.049205-0.014762 0.18698-0.014762 0.31245 0.14024-0.19436 0.33952-0.30015 0.16976-0.08857 0.33952-0.08857 0.50682 0 0.78729 0.34936 0.24603 0.30999 0.24603 0.81927 0 0.58308-0.3469 0.91522-0.29523 0.28047-0.74054 0.28047-0.34936 0-0.62491-0.23619zm0.60523-1.8969q-0.30261 0-0.50928 0.25833-0.095951 0.11809-0.095951 0.29277v0.80451q0 0.19928 0.09103 0.33706 0.18944 0.28785 0.5142 0.28785 0.31245 0 0.50928-0.30507 0.1796-0.28293 0.1796-0.72824 0-0.46253-0.22388-0.72578-0.18944-0.22142-0.46499-0.22142z"/><path d="m4.1154 3.4398q0.29277-0.46007 0.77744-0.46007 0.33952 0 0.53142 0.19682 0.1796 0.18452 0.1796 0.49943l-0.00738 0.54864v0.31737q0 0.44285 0.036904 0.5142 0.031984 0.066427 0.28293 0.09103 0.044285 0.00738 0.044285 0.061507 0 0.054126-0.049205 0.054126-0.30261-0.00984-0.48467-0.00984-0.18698 0-0.49943 0.00984-0.049205 0-0.049205-0.054126t0.049205-0.061507q0.22634-0.017222 0.26325-0.09103 0.039364-0.081189 0.039364-0.5142v-0.7799q0-0.17714-0.051666-0.27801-0.12547-0.25341-0.43793-0.25341-0.3223 0-0.51912 0.27801-0.10579 0.155-0.10579 0.38872v0.64459q0 0.44777 0.029523 0.5142 0.029523 0.066427 0.29523 0.09103 0.044285 0.00738 0.044285 0.061507 0 0.054126-0.044285 0.054126-0.31245-0.00984-0.46991-0.00984-0.20174 0-0.52404 0.00984-0.039364 0-0.039364-0.054126t0.039364-0.061507q0.155-0.014762 0.2042-0.034444 0.041825-0.017222 0.063967-0.056586 0.044285-0.076268 0.044285-0.5142v-2.2118q0-0.31245-0.039364-0.41332-0.041825-0.10087-0.1427-0.10087l-0.17468 0.00984q-0.041825 0-0.041825-0.063967 0-0.054126 0.061507-0.066427 0.28047-0.059047 0.66427-0.20174 0.054126 0 0.054126 0.034444-0.024603 0.61999-0.024603 1.1957z"/><path d="m7.2572 5.2579q-0.098411-0.25587-0.23619-0.58308l-0.36904-0.9226q-0.15008-0.37888-0.24111-0.48959-0.063967-0.078728-0.26817-0.09103-0.039364-0.00738-0.039364-0.054126 0-0.061507 0.039364-0.061507 0.32476 0.00984 0.5142 0.00984 0.20174 0 0.53634-0.00984 0.039364 0 0.039364 0.061507 0 0.046745-0.039364 0.054126-0.18698 0.012301-0.24849 0.049205-0.044285 0.027063-0.044285 0.086109 0 0.10087 0.13531 0.44531l0.26079 0.64951q0.031983 0.078728 0.08857 0.22388 0.039364 0.10579 0.068888 0.1796 0.083649-0.23373 0.155-0.41332l0.23865-0.63967q0.095951-0.26817 0.095951-0.38872 0-0.10825-0.061507-0.14762-0.061507-0.039364-0.21896-0.044285-0.039364 0-0.039364-0.054126 0-0.061507 0.039364-0.061507 0.29277 0.00984 0.45023 0.00984 0.13531 0 0.39856-0.00984 0.044285 0 0.044285 0.061507 0 0.049205-0.044285 0.054126-0.1427 0.00738-0.22142 0.086109-0.09103 0.083649-0.24849 0.49451l-0.35182 0.91276-0.3223 0.77006q-0.43301 1.0186-0.99641 1.0186-0.18206 0-0.18206-0.12055 0-0.10825 0.098411-0.21158 0.086109-0.09103 0.1673-0.09103 0.046745 0 0.12301 0.024603 0.073808 0.024603 0.12055 0.024603 0.068888 0 0.17468-0.13039 0.19928-0.23619 0.3838-0.69134zm1.0235-2.0863zm-0.22634 0z"/><path d="m10.195 3.0363q0.0049 0.15992 0.04182 0.5388v0.014762q0 0.029523-0.06643 0.029523-0.0369 0-0.04921-0.034444-0.16976-0.46499-0.56832-0.46499-0.18944 0-0.29277 0.11071-0.09103 0.09595-0.09103 0.24849 0 0.12547 0.08857 0.20666 0.09349 0.08857 0.34444 0.1919l0.18206 0.076268q0.34444 0.1427 0.46991 0.31983 0.10333 0.1427 0.10333 0.36412 0 0.3346-0.24111 0.52896-0.22142 0.17714-0.58554 0.17714-0.31245 0-0.63475-0.12547-0.049195-0.1796-0.10578-0.48467l-0.00492-0.039364q0-0.041825 0.061507-0.041825 0.039364 0 0.054126 0.029523 0.10825 0.25095 0.30753 0.39118 0.16976 0.12301 0.35428 0.12301 0.2165 0 0.33952-0.13778 0.10825-0.11809 0.10825-0.29523 0-0.15746-0.10087-0.26325-0.098412-0.10087-0.31738-0.19436l-0.17714-0.076268q-0.34936-0.15008-0.46499-0.30753-0.098411-0.13531-0.098411-0.36166 0-0.26571 0.21896-0.43301 0.1919-0.14762 0.46991-0.14762 0.13531 0 0.3346 0.046745 0.08857 0.014762 0.19436 0.014762 0.05659 0 0.12547-0.00492z"/><path d="m11.201 3.8359q0-0.31491-0.03937-0.41086-0.04429-0.10087-0.14762-0.10087l-0.18698 0.00984q-0.03936 0-0.03936-0.066427 0-0.046745 0.06151-0.066427 0.37888-0.09103 0.66919-0.20666 0.05905 0 0.05905 0.046745-0.01968 0.47975-0.01968 0.86601v0.62983q0 0.46499 0.02952 0.51912 0.0369 0.066427 0.30015 0.086109 0.03937 0.00738 0.03937 0.054126 0 0.066427-0.03937 0.066427-0.30261-0.00984-0.48959-0.00984-0.22142 0-0.5142 0.00984-0.03936 0-0.03936-0.066427 0-0.046745 0.03936-0.054126 0.2288-0.024603 0.27801-0.086109 0.03937-0.054126 0.03937-0.51912zm0.15008-2.2241q0.11317 0 0.20174 0.098411 0.07627 0.086109 0.07627 0.18206 0 0.12547-0.09595 0.21158-0.08365 0.071348-0.18206 0.071348-0.11809 0-0.20666-0.09349-0.07873-0.081189-0.07873-0.18944 0-0.11317 0.10087-0.20174 0.08365-0.078728 0.18452-0.078728z"/><path d="m13.408 2.9797q0.30507 0 0.56832 0.11071 0.18698 0.081189 0.18698 0.21158 0 0.155-0.05905 0.23619-0.04428 0.066427-0.11071 0.066427-0.08611 0-0.23618-0.22142l-0.03198-0.044285q-0.13778-0.2042-0.33706-0.2042-0.29523 0-0.46991 0.30261-0.15992 0.27555-0.15992 0.71594 0 0.44777 0.25095 0.72824 0.20174 0.22634 0.46007 0.22634 0.26079 0 0.42071-0.09103 0.13039-0.076268 0.25833-0.24849 0.01968-0.024603 0.03444-0.024603 0.03444 0 0.06397 0.024603 0.02706 0.019682 0.02706 0.041825 0 0.00738-0.0098 0.029523-0.31245 0.50435-0.86601 0.50435-0.48713 0-0.79221-0.3592-0.27063-0.3223-0.27063-0.80451 0-0.56094 0.35428-0.90784 0.30015-0.29277 0.7184-0.29277z"/><path d="m16.04 3.0363q0.0049 0.15992 0.04182 0.5388v0.014762q0 0.029523-0.06643 0.029523-0.0369 0-0.04921-0.034444-0.16976-0.46499-0.56832-0.46499-0.18944 0-0.29277 0.11071-0.09103 0.09595-0.09103 0.24849 0 0.12547 0.08857 0.20666 0.09349 0.08857 0.34444 0.1919l0.18206 0.076268q0.34444 0.1427 0.46991 0.31983 0.10333 0.1427 0.10333 0.36412 0 0.3346-0.24111 0.52896-0.22142 0.17714-0.58554 0.17714-0.31245 0-0.63475-0.12547-0.04921-0.1796-0.10579-0.48467l-0.0049-0.039364q0-0.041825 0.06151-0.041825 0.03936 0 0.05413 0.029523 0.10825 0.25095 0.30753 0.39118 0.16976 0.12301 0.35428 0.12301 0.2165 0 0.33952-0.13778 0.10825-0.11809 0.10825-0.29523 0-0.15746-0.10087-0.26325-0.09841-0.10087-0.31738-0.19436l-0.17716-0.076268q-0.34936-0.15008-0.46499-0.30753-0.098411-0.13531-0.098411-0.36166 0-0.26571 0.21896-0.43301 0.1919-0.14762 0.46991-0.14762 0.13532 0 0.3346 0.046745 0.08857 0.014762 0.19436 0.014762 0.05659 0 0.12547-0.00492z"/><path d="m17.157 4.7437q0.13285 0 0.21896 0.09595 0.07873 0.086109 0.07873 0.21158 0 0.13039-0.09841 0.2165-0.08611 0.076268-0.19928 0.076268-0.13778 0-0.22634-0.09595-0.07627-0.083649-0.07627-0.19682 0-0.14516 0.09841-0.23127 0.08365-0.076268 0.2042-0.076268z"/><path d="m18.71 3.4398q0.29277-0.46007 0.77744-0.46007 0.33952 0 0.53142 0.19682 0.1796 0.18452 0.1796 0.49943l-0.0074 0.54864v0.31737q0 0.44285 0.0369 0.5142 0.03198 0.066427 0.28293 0.09103 0.04428 0.00738 0.04428 0.061507 0 0.054126-0.04921 0.054126-0.30261-0.00984-0.48467-0.00984-0.18698 0-0.49943 0.00984-0.04921 0-0.04921-0.054126t0.04921-0.061507q0.22634-0.017222 0.26325-0.09103 0.03936-0.081189 0.03936-0.5142v-0.7799q0-0.17714-0.05167-0.27801-0.12547-0.25341-0.43793-0.25341-0.3223 0-0.51912 0.27801-0.10579 0.155-0.10579 0.38872v0.64459q0 0.44777 0.02952 0.5142 0.02952 0.066427 0.29523 0.09103 0.04429 0.00738 0.04429 0.061507 0 0.054126-0.04429 0.054126-0.31245-0.00984-0.46991-0.00984-0.20174 0-0.52404 0.00984-0.03937 0-0.03937-0.054126t0.03937-0.061507q0.155-0.014762 0.2042-0.034444 0.04182-0.017222 0.06397-0.056586 0.04428-0.076268 0.04428-0.5142v-2.2118q0-0.31245-0.03937-0.41332-0.04182-0.10087-0.1427-0.10087l-0.17468 0.00984q-0.04183 0-0.04183-0.063967 0-0.054126 0.06151-0.066427 0.28047-0.059047 0.66427-0.20174 0.05413 0 0.05413 0.034444-0.0246 0.61999-0.0246 1.1957z"/><path d="m21.209 3.2577-0.31245 0.00492q-0.04921 0-0.04921-0.066427 0-0.063967 0.04921-0.073808 0.22634-0.051666 0.3592-0.20174 0.12793-0.14516 0.20174-0.34444 0.01476-0.044285 0.07381-0.044285 0.06643 0 0.06643 0.051666-0.01476 0.36904-0.01476 0.48221 0.28293 0 0.68642-0.00984 0.02952 0 0.02952 0.029523l-0.04675 0.1427q-0.0123 0.034444-0.04921 0.034444-0.18206-0.014762-0.62983-0.014762l-0.0098 1.2351q0 0.36658 0.10087 0.50436 0.09841 0.13039 0.26571 0.13039 0.18206 0 0.31737-0.13778 0.01476-0.014762 0.02952-0.014762 0.02706 0 0.05412 0.031983 0.02214 0.027063 0.02214 0.049205 0 0.014762-0.01476 0.029523-0.24357 0.26817-0.52896 0.26817-0.31245 0-0.46991-0.17222-0.1501-0.17222-0.1501-0.5388l0.0098-0.68395z"/><path d="m23.377 3.0781h0.75776q0.32476 0 0.65935-0.08857 0.06397 0 0.06397 0.046745-0.0246 0.27555-0.0246 0.8734v0.62983q0 0.46253 0.02952 0.51666 0.0369 0.071348 0.30507 0.09103 0.03936 0.00738 0.03936 0.054126 0 0.061507-0.03936 0.061507-0.31245-0.00984-0.48959-0.00984-0.23865 0-0.52158 0.00984-0.03937 0-0.03937-0.061507 0-0.046745 0.04429-0.054126 0.21896-0.019682 0.27063-0.09103 0.03936-0.063967 0.03936-0.51666v-0.71594q0-0.30753-0.03936-0.44285-0.0246-0.083649-0.08611-0.10825-0.05659-0.022142-0.20666-0.022142h-0.7676q-0.0049 0.17714-0.0049 0.59292v0.69626q0 0.44285 0.03937 0.51174 0.0369 0.066427 0.31984 0.09103 0.04428 0.00738 0.04428 0.059046 0 0.061507-0.04428 0.061507-0.31492-0.00984-0.53634-0.00984-0.23126 0-0.54618 0.00984-0.04429 0-0.04429-0.061507 0-0.051666 0.04429-0.059046 0.26571-0.019682 0.30261-0.09103 0.04675-0.081189 0.04675-0.51174v-0.70118q0-0.25095-0.0098-0.58308-0.16484 0-0.41825 0.014762-0.0246 0-0.0246-0.029523l0.03937-0.1427q0.0123-0.024603 0.05166-0.024603 0.12547 0.00492 0.35182 0.00492-0.0049-0.081189-0.0049-0.27309 0-0.59538 0.46499-0.98411 0.40594-0.33706 0.90292-0.33706 0.52158 0 0.52158 0.21158 0 0.155-0.07873 0.26325-0.06643 0.08857-0.1427 0.08857-0.08857 0-0.24111-0.15008l-0.03444-0.034444q-0.16238-0.16238-0.35428-0.16238-0.17714 0-0.32968 0.15254-0.14516 0.14516-0.21896 0.3961-0.09103 0.31983-0.09103 0.82911z"/><path d="m28.228 2.4704h0.35428q-0.26571 0.70856-0.44777 1.3015-0.10579 0.33706-0.10579 0.42809 0 0.15254 0.19682 0.15254 0.36904 0 0.63475-0.37396 0.24111-0.33706 0.24111-0.79713 0-0.69134-0.43301-1.0801-0.37888-0.34198-0.98411-0.34198-0.45023 0-0.83649 0.24111-0.38134 0.23619-0.60523 0.64705-0.23127 0.42809-0.23127 0.94228 0 0.7676 0.48713 1.2055 0.4084 0.36658 1.0186 0.36658 0.69872 0 1.2055-0.36904 0.02214-0.014762 0.03936-0.014762 0.07627 0 0.07627 0.071348 0 0.022142-0.01968 0.034444-0.37642 0.27309-0.68642 0.3715-0.28047 0.08857-0.64951 0.08857-0.89062 0-1.3876-0.53634-0.43547-0.46499-0.43547-1.208 0-0.56586 0.28539-1.0333 0.26817-0.44531 0.73316-0.70364 0.46499-0.25833 1.0013-0.25833 0.81927 0 1.3064 0.48959 0.42317 0.42563 0.42317 1.0628 0 0.58308-0.41579 0.98411-0.36412 0.35182-0.85371 0.35182-0.41824 0-0.41824-0.28293 0-0.066427 0.0098-0.10579-0.28293 0.3838-0.60031 0.3838-0.5142 0-0.5142-0.5388 0-0.36412 0.18944-0.73316 0.1796-0.34936 0.46253-0.57324 0.29031-0.23127 0.57324-0.23127t0.34198 0.19682zm-0.34198 0.066427q-0.20666 0-0.42071 0.23373-0.2042 0.22142-0.3346 0.56586-0.13531 0.3592-0.13531 0.70364 0 0.30261 0.20174 0.30261 0.41824 0 0.7307-0.93736 0.14024-0.41825 0.14024-0.63229 0-0.23619-0.18206-0.23619z"/><path d="m30.458 5.2382q-0.1919-0.059046-0.26079-0.14516-0.05659-0.073808-0.05659-0.19682 0-0.26817 0.46253-0.47483-0.55356-0.18206-0.55356-0.68395 0-0.3469 0.29523-0.57078 0.24603-0.18698 0.5757-0.18698 0.22388 0 0.46007 0.11071 0.41824 0 0.7799-0.034444 0.02952 0 0.02952 0.029523l-0.05905 0.15254q-0.01722 0.034444-0.05166 0.034444-0.16976-0.014762-0.49944-0.014762 0.19682 0.18698 0.19682 0.44777 0 0.36658-0.26079 0.5757-0.2288 0.18698-0.59538 0.18698-0.06397 0-0.14024-0.014762-0.29769 0.155-0.29769 0.34198 0 0.155 0.33706 0.155l0.50928-0.00984q0.84633 0 0.84633 0.63967 0 0.41579-0.34444 0.65197-0.3223 0.22142-0.88078 0.22142-0.46499 0-0.75038-0.20912-0.24111-0.17468-0.24111-0.42071 0-0.39118 0.49943-0.58554zm0.17468 0.046745q-0.04921 0.024603-0.12055 0.073808-0.17468 0.15254-0.17468 0.38872 0 0.27555 0.2165 0.43055 0.18944 0.13531 0.48959 0.13531 0.3838 0 0.61015-0.21404 0.18944-0.17468 0.18944-0.42071 0-0.20912-0.15254-0.29769-0.13531-0.081189-0.42317-0.081189h-0.30507q-0.16976 0-0.32968-0.014761zm0.28785-2.1749q-0.23126 0-0.36166 0.1796-0.11563 0.16238-0.11563 0.42563 0 0.31245 0.155 0.48221 0.12793 0.14024 0.32722 0.14024 0.22142 0 0.35428-0.18452 0.12301-0.16976 0.12301-0.43793 0-0.29769-0.15992-0.46499-0.13039-0.14024-0.3223-0.14024z"/><path d="m34.692 3.4841q0.3223-0.49943 0.77252-0.49943 0.32722 0 0.5142 0.20174 0.17222 0.18452 0.17222 0.48959l-0.0074 0.55356v0.31737q0 0.45515 0.03198 0.5142 0.03198 0.066427 0.29277 0.09103 0.03936 0.00738 0.03936 0.056586 0 0.054126-0.03936 0.054126-0.28293-0.00984-0.48467-0.00984-0.18206 0-0.51666 0.00984-0.04429 0-0.04429-0.054126 0-0.049205 0.04429-0.056586 0.22634-0.017222 0.27063-0.09103 0.03936-0.066427 0.03936-0.5142v-0.77006q0-0.17714-0.05659-0.28785-0.12055-0.25833-0.40348-0.25833-0.28293 0-0.48467 0.28785-0.07381 0.10333-0.09595 0.1796-0.01968 0.073808-0.01968 0.2042v0.64459q0 0.44285 0.03936 0.5142 0.04182 0.068887 0.30015 0.09103 0.03936 0.00738 0.03936 0.061507 0 0.049205-0.03936 0.049205-0.31245-0.00984-0.48959-0.00984-0.20174 0-0.5142 0.00984-0.03936 0-0.03936-0.049205 0-0.054126 0.04428-0.061507 0.23373-0.022142 0.26817-0.09103 0.03937-0.081189 0.03937-0.5142v-0.7799q0-0.17714-0.05167-0.27801-0.12301-0.25833-0.41086-0.25833-0.27801 0-0.47975 0.28785-0.10579 0.15254-0.10579 0.3838v0.64459q0 0.44777 0.02952 0.5142 0.02952 0.066427 0.28785 0.09103 0.03444 0.00738 0.03444 0.056586 0 0.054126-0.03444 0.054126-0.29277-0.00984-0.49205-0.00984-0.18206 0-0.49451 0.00984-0.03936 0-0.03936-0.054126 0-0.049205 0.03936-0.056586 0.21896-0.017222 0.26325-0.09103 0.04429-0.076268 0.04429-0.5142v-0.70364q0-0.30507-0.03444-0.40348-0.0369-0.11071-0.14762-0.11071l-0.17468 0.00984q-0.04182 0-0.04182-0.071348 0-0.041825 0.06151-0.061507 0.3346-0.078729 0.65443-0.2042 0.05412 0 0.05412 0.044285-0.0098 0.27063-0.0098 0.4084 0.30999-0.46991 0.74054-0.46991 0.25587 0 0.42809 0.14516 0.15008 0.13039 0.20666 0.35428z"/><path d="m38.227 5.066q-0.1796 0.15992-0.34936 0.22142-0.15746 0.056586-0.36904 0.056586-0.27555 0-0.44039-0.15992-0.14024-0.13778-0.14024-0.34936 0-0.28047 0.17222-0.44285 0.12547-0.12547 0.59784-0.26817 0.28539-0.086109 0.39856-0.16976 0.11071-0.086109 0.11071-0.1919v-0.13039q0-0.51666-0.3223-0.51666-0.21158 0-0.34198 0.12055-0.09103 0.09103-0.09103 0.24849 0 0.09595-0.10087 0.15992-0.09103 0.056586-0.22142 0.056586-0.13532 0-0.13532-0.13531 0-0.2288 0.30753-0.41825 0.27309-0.1673 0.59784-0.1673 0.39856 0 0.54864 0.1673 0.13039 0.14516 0.12793 0.47729l-0.0098 1.0899q-0.0074 0.42809 0.18944 0.42809 0.06889 0 0.12301-0.039364 0.02952-0.017222 0.04428-0.017222 0.02214 0 0.03936 0.027063 0.01722 0.024603 0.01722 0.049205 0 0.017222-0.01968 0.029523-0.17714 0.12793-0.37396 0.12793-0.26817 0-0.3592-0.25341zm-0.01968-1.0333q-0.07381 0.09595-0.46253 0.23865-0.23619 0.08857-0.33214 0.21158-0.08611 0.11071-0.08611 0.28047 0 0.1796 0.12301 0.29277 0.10579 0.09595 0.24357 0.09595 0.23865 0 0.38626-0.14024 0.12301-0.11809 0.12301-0.28293z"/><path d="m39.642 3.8359q0-0.31491-0.03936-0.41086-0.04429-0.10087-0.14762-0.10087l-0.18698 0.00984q-0.03936 0-0.03936-0.066427 0-0.046745 0.06151-0.066427 0.37888-0.09103 0.66919-0.20666 0.05905 0 0.05905 0.046745-0.01968 0.47975-0.01968 0.86601v0.62983q0 0.46499 0.02952 0.51912 0.0369 0.066427 0.30015 0.086109 0.03936 0.00738 0.03936 0.054126 0 0.066427-0.03936 0.066427-0.30261-0.00984-0.48959-0.00984-0.22142 0-0.5142 0.00984-0.03936 0-0.03936-0.066427 0-0.046745 0.03936-0.054126 0.2288-0.024603 0.27801-0.086109 0.03936-0.054126 0.03936-0.51912zm0.15008-2.2241q0.11317 0 0.20174 0.098411 0.07627 0.086109 0.07627 0.18206 0 0.12547-0.09595 0.21158-0.08365 0.071348-0.18206 0.071348-0.11809 0-0.20666-0.09349-0.07873-0.081189-0.07873-0.18944 0-0.11317 0.10087-0.20174 0.08365-0.078728 0.18452-0.078728z"/><path d="m41.022 4.5371v-2.2069q0-0.31491-0.03936-0.41332-0.03936-0.10087-0.15746-0.10087l-0.17714 0.00984q-0.03936 0-0.03936-0.059047 0-0.059046 0.05659-0.071348 0.28785-0.059047 0.68396-0.20174 0.04921 0 0.04921 0.041824-0.01968 0.46499-0.01968 1.1982v1.8034q0 0.45269 0.03936 0.51912 0.04182 0.066427 0.28785 0.09103 0.04675 0.00738 0.04675 0.061507 0 0.054126-0.04428 0.054126-0.30261-0.00984-0.47975-0.00984-0.20174 0-0.52404 0.00984-0.03936 0-0.03936-0.054126t0.03936-0.061507q0.23126-0.017222 0.26817-0.09103 0.04921-0.09103 0.04921-0.51912z"/><path d="m42.547 4.7437q0.13285 0 0.21896 0.09595 0.07873 0.086109 0.07873 0.21158 0 0.13039-0.09841 0.2165-0.08611 0.076268-0.19928 0.076268-0.13778 0-0.22634-0.09595-0.07627-0.083649-0.07627-0.19682 0-0.14516 0.09841-0.23127 0.08365-0.076268 0.2042-0.076268z"/><path d="m44.575 2.9797q0.30507 0 0.56832 0.11071 0.18698 0.081189 0.18698 0.21158 0 0.155-0.05905 0.23619-0.04429 0.066427-0.11071 0.066427-0.08611 0-0.23619-0.22142l-0.03198-0.044285q-0.13777-0.2042-0.33706-0.2042-0.29523 0-0.46991 0.30261-0.15992 0.27555-0.15992 0.71594 0 0.44777 0.25095 0.72824 0.20174 0.22634 0.46007 0.22634 0.26079 0 0.42071-0.09103 0.13039-0.076268 0.25833-0.24849 0.01968-0.024603 0.03444-0.024603 0.03444 0 0.06397 0.024603 0.02706 0.019682 0.02706 0.041825 0 0.00738-0.0098 0.029523-0.31245 0.50435-0.86601 0.50435-0.48713 0-0.79221-0.3592-0.27063-0.3223-0.27063-0.80451 0-0.56094 0.35428-0.90784 0.30015-0.29277 0.7184-0.29277z"/><path d="m46.912 2.9797q0.48713 0 0.79959 0.35428 0.28539 0.3223 0.28539 0.81435 0 0.55602-0.35182 0.90046-0.30015 0.29523-0.73316 0.29523-0.49205 0-0.80205-0.36166-0.27555-0.3223-0.27555-0.80205 0-0.55356 0.36166-0.90538 0.30507-0.29523 0.71594-0.29523zm0 0.15008q-0.31491 0-0.48959 0.29277-0.15992 0.27063-0.15992 0.74054 0 0.55356 0.2042 0.81435 0.16484 0.21404 0.44531 0.21404 0.31738 0 0.49697-0.29277 0.16484-0.27063 0.16484-0.73562 0-0.56094-0.21158-0.82419-0.16976-0.20912-0.45023-0.20912z"/><path d="m50.595 3.4841q0.3223-0.49943 0.77252-0.49943 0.32722 0 0.5142 0.20174 0.17222 0.18452 0.17222 0.48959l-0.0074 0.55356v0.31737q0 0.45515 0.03198 0.5142 0.03198 0.066427 0.29277 0.09103 0.03937 0.00738 0.03937 0.056586 0 0.054126-0.03937 0.054126-0.28293-0.00984-0.48467-0.00984-0.18206 0-0.51666 0.00984-0.04429 0-0.04429-0.054126 0-0.049205 0.04429-0.056586 0.22634-0.017222 0.27063-0.09103 0.03936-0.066427 0.03936-0.5142v-0.77006q0-0.17714-0.05659-0.28785-0.12055-0.25833-0.40348-0.25833t-0.48467 0.28785q-0.07381 0.10333-0.09595 0.1796-0.01968 0.073808-0.01968 0.2042v0.64459q0 0.44285 0.03937 0.5142 0.04182 0.068887 0.30015 0.09103 0.03937 0.00738 0.03937 0.061507 0 0.049205-0.03937 0.049205-0.31245-0.00984-0.48959-0.00984-0.20174 0-0.5142 0.00984-0.03936 0-0.03936-0.049205 0-0.054126 0.04429-0.061507 0.23372-0.022142 0.26817-0.09103 0.03936-0.081189 0.03936-0.5142v-0.7799q0-0.17714-0.05166-0.27801-0.12301-0.25833-0.41086-0.25833-0.27801 0-0.47975 0.28785-0.10579 0.15254-0.10579 0.3838v0.64459q0 0.44777 0.02952 0.5142 0.02952 0.066427 0.28785 0.09103 0.03444 0.00738 0.03444 0.056586 0 0.054126-0.03444 0.054126-0.29277-0.00984-0.49205-0.00984-0.18206 0-0.49451 0.00984-0.03936 0-0.03936-0.054126 0-0.049205 0.03936-0.056586 0.21896-0.017222 0.26325-0.09103 0.04429-0.076268 0.04429-0.5142v-0.70364q0-0.30507-0.03444-0.40348-0.0369-0.11071-0.14762-0.11071l-0.17468 0.00984q-0.04183 0-0.04183-0.071348 0-0.041825 0.06151-0.061507 0.3346-0.078729 0.65443-0.2042 0.05413 0 0.05413 0.044285-0.0098 0.27063-0.0098 0.4084 0.30999-0.46991 0.74054-0.46991 0.25587 0 0.42809 0.14516 0.15008 0.13039 0.20666 0.35428z"/></g></svg>
