<svg width="200" height="30" viewBox="0 0 52.917 7.938" xmlns="http://www.w3.org/2000/svg" xmlns:xlink="http://www.w3.org/1999/xlink">
<defs>
<linearGradient id="a">
<stop stop-color="#fd0000" offset="0"/>
<stop offset="1"/>
</linearGradient>
<linearGradient id="b" x1="-830" x2="-830" y1="-1665.5" y2="-1727.5" gradientTransform="matrix(.0666 0 0 .0666 82.844 117.02)" gradientUnits="userSpaceOnUse" xlink:href="#a"/>
</defs>
<g fill="url(#b)">
<path d="M1.269 5.108v.49q0 .568.044.644.047.071.315.096.04.007.04.06 0 .056-.035.056-.325-.01-.526-.01-.227 0-.542.01-.034 0-.034-.057 0-.054.047-.059.243-.017.28-.096Q.9 6.161.9 5.597V3.843q0-.32-.03-.408-.034-.101-.142-.101l-.16.01q-.062 0-.062-.081 0-.045.057-.057.361-.084.66-.2.06 0 .06.05-.014.187-.014.312.14-.194.34-.3.17-.088.339-.088.507 0 .787.35.246.31.246.818 0 .583-.347.916-.295.28-.74.28-.35 0-.625-.236zm.605-1.897q-.302 0-.51.258-.095.118-.095.293v.805q0 .199.09.337.19.288.515.288.313 0 .51-.306.179-.282.179-.728 0-.462-.224-.726-.19-.221-.465-.221zM4.115 3.44q.293-.46.778-.46.34 0 .531.197.18.184.18.499l-.008.549v.317q0 .443.037.514.032.067.283.091.045.008.045.062t-.05.054q-.302-.01-.484-.01-.187 0-.5.01-.049 0-.049-.054t.05-.062q.226-.017.263-.09.039-.082.039-.515v-.78q0-.177-.052-.278-.125-.253-.438-.253-.322 0-.519.278-.106.155-.106.388v.645q0 .448.03.514.03.067.295.091.044.008.044.062t-.044.054q-.312-.01-.47-.01-.201 0-.524.01-.04 0-.04-.054t.04-.062q.155-.015.204-.034.042-.017.064-.057.045-.076.045-.514V2.33q0-.312-.04-.413-.042-.101-.142-.101l-.175.01q-.042 0-.042-.064 0-.054.062-.067.28-.059.664-.201.054 0 .054.034-.025.62-.025 1.196zM7.257 5.258q-.098-.256-.236-.583l-.369-.923q-.15-.379-.241-.49-.064-.078-.268-.09-.04-.008-.04-.055 0-.061.04-.061.324.01.514.01.202 0 .536-.01.04 0 .04.061 0 .047-.04.055-.187.012-.248.049-.045.027-.045.086 0 .1.136.445l.26.65q.033.078.09.224.038.105.068.18.084-.235.155-.414l.239-.64q.096-.268.096-.388 0-.109-.062-.148-.061-.04-.219-.044-.04 0-.04-.055 0-.061.04-.061.293.01.45.01.136 0 .399-.01.044 0 .044.061 0 .05-.044.055-.143.007-.221.086-.092.083-.249.494l-.352.913-.322.77q-.433 1.019-.997 1.019-.182 0-.182-.12 0-.11.099-.212.086-.092.167-.092.047 0 .123.025.074.025.12.025.07 0 .175-.13.2-.237.384-.692zm1.024-2.086zm-.227 0zM10.195 3.036q.005.16.042.54v.014q0 .03-.067.03-.037 0-.049-.035-.17-.465-.568-.465-.19 0-.293.11-.09.097-.09.25 0 .125.088.206.093.088.344.192l.182.076q.345.143.47.32.103.143.103.364 0 .335-.24.529-.222.177-.586.177-.313 0-.635-.125-.05-.18-.106-.485l-.005-.04q0-.041.062-.041.04 0 .054.03.108.25.307.39.17.123.355.123.216 0 .34-.137.107-.118.107-.296 0-.157-.1-.263-.099-.1-.318-.194l-.177-.076q-.35-.15-.465-.308-.098-.135-.098-.362 0-.265.219-.433.192-.147.47-.147.135 0 .334.046.089.015.195.015.056 0 .125-.005zM11.201 3.836q0-.315-.04-.411-.044-.1-.147-.1l-.187.009q-.04 0-.04-.066 0-.047.062-.067.38-.09.67-.207.058 0 .058.047-.02.48-.02.866v.63q0 .465.03.52.037.066.3.085.04.008.04.054 0 .067-.04.067-.302-.01-.49-.01-.22 0-.513.01-.04 0-.04-.067 0-.046.04-.054.228-.024.278-.086.039-.054.039-.519zm.15-2.224q.113 0 .202.098.076.086.076.182 0 .126-.096.212-.084.071-.182.071-.118 0-.207-.093-.078-.081-.078-.19 0-.113.1-.201.084-.08.185-.08zM13.408 2.98q.305 0 .568.11.187.082.187.212 0 .155-.059.236-.044.067-.11.067-.087 0-.237-.222l-.032-.044q-.137-.204-.337-.204-.295 0-.47.302-.16.276-.16.716 0 .448.251.728.202.227.46.227.261 0 .421-.091.13-.076.259-.249.02-.024.034-.024.034 0 .064.024.027.02.027.042 0 .008-.01.03-.312.504-.866.504-.487 0-.792-.36-.27-.321-.27-.804 0-.56.354-.908.3-.292.718-.292zM16.04 3.036q.005.16.042.54v.014q0 .03-.067.03-.037 0-.049-.035-.17-.465-.568-.465-.19 0-.293.11-.09.097-.09.25 0 .125.088.206.093.088.344.192l.182.076q.345.143.47.32.103.143.103.364 0 .335-.24.529-.222.177-.586.177-.313 0-.635-.125-.05-.18-.106-.485l-.005-.04q0-.041.062-.041.04 0 .054.03.108.25.307.39.17.123.355.123.216 0 .34-.137.108-.118.108-.296 0-.157-.101-.263-.099-.1-.318-.194l-.177-.076q-.35-.15-.465-.308-.098-.135-.098-.362 0-.265.219-.433.192-.147.47-.147.135 0 .334.046.089.015.195.015.056 0 .125-.005zM17.157 4.744q.133 0 .219.096.079.086.079.211 0 .13-.099.217-.086.076-.199.076-.138 0-.226-.096-.077-.084-.077-.197 0-.145.099-.231.083-.076.204-.076zM18.71 3.44q.293-.46.777-.46.34 0 .532.197.18.184.18.499l-.008.549v.317q0 .443.037.514.032.067.283.091.044.008.044.062t-.049.054q-.303-.01-.485-.01-.187 0-.5.01-.048 0-.048-.054t.049-.062q.226-.017.263-.09.04-.082.04-.515v-.78q0-.177-.052-.278-.126-.253-.438-.253-.322 0-.52.278-.105.155-.105.388v.645q0 .448.03.514.029.067.295.091.044.008.044.062t-.044.054q-.313-.01-.47-.01-.202 0-.524.01-.04 0-.04-.054t.04-.062q.155-.015.204-.034.042-.017.064-.057.044-.076.044-.514V2.33q0-.312-.04-.413-.041-.101-.142-.101l-.175.01q-.041 0-.041-.064 0-.054.061-.067.28-.059.664-.201.055 0 .055.034-.025.62-.025 1.196zM21.209 3.258l-.312.005q-.05 0-.05-.067 0-.064.05-.074.226-.051.359-.201.128-.146.201-.345.015-.044.074-.044.067 0 .067.052-.015.369-.015.482.283 0 .686-.01.03 0 .03.03l-.047.142q-.012.035-.049.035-.182-.015-.63-.015l-.01 1.235q0 .367.101.504.099.13.266.13.182 0 .317-.137.015-.015.03-.015.027 0 .054.032.022.027.022.05 0 .014-.015.029-.243.268-.529.268-.312 0-.47-.172-.15-.172-.15-.539l.01-.684zM23.377 3.078h.758q.325 0 .66-.088.063 0 .063.046-.025.276-.025.874v.63q0 .462.03.516.037.072.305.091.04.008.04.054 0 .062-.04.062-.312-.01-.49-.01-.238 0-.521.01-.04 0-.04-.062 0-.046.045-.054.219-.02.27-.09.04-.065.04-.517v-.716q0-.308-.04-.443-.024-.084-.086-.109-.056-.022-.206-.022h-.768q-.005.177-.005.593v.697q0 .442.04.511.036.067.32.091.044.008.044.06 0 .06-.045.06-.315-.009-.536-.009-.231 0-.546.01-.044 0-.044-.062 0-.051.044-.059.266-.02.302-.09.047-.082.047-.512v-.702q0-.25-.01-.583-.164 0-.418.015-.024 0-.024-.03l.039-.142q.012-.025.052-.025.125.005.351.005-.004-.081-.004-.273 0-.595.465-.984.405-.337.902-.337.522 0 .522.211 0 .155-.079.264-.066.088-.142.088-.089 0-.242-.15l-.034-.034q-.162-.163-.354-.163-.177 0-.33.153-.145.145-.219.396-.09.32-.09.83zM28.228 2.47h.354q-.265.709-.447 1.302-.106.337-.106.428 0 .153.197.153.369 0 .634-.374.241-.337.241-.798 0-.69-.433-1.08-.378-.342-.984-.342-.45 0-.836.241-.382.237-.605.648-.232.428-.232.942 0 .767.487 1.205.409.367 1.019.367.699 0 1.206-.37.022-.014.039-.014.076 0 .076.071 0 .023-.02.035-.376.273-.686.371-.28.089-.65.089-.89 0-1.387-.536-.436-.465-.436-1.208 0-.566.286-1.034.268-.445.733-.703.465-.259 1.001-.259.82 0 1.307.49.423.426.423 1.063 0 .583-.416.984-.364.352-.854.352-.418 0-.418-.283 0-.067.01-.106-.283.384-.6.384-.515 0-.515-.54 0-.363.19-.732.18-.35.462-.573.29-.232.574-.232t.342.197zm-.342.067q-.207 0-.42.234-.205.221-.335.565-.136.36-.136.704 0 .303.202.303.418 0 .73-.938.141-.418.141-.632 0-.236-.182-.236zM30.458 5.238q-.192-.059-.26-.145-.057-.074-.057-.197 0-.268.462-.475-.553-.182-.553-.684 0-.346.295-.57.246-.187.576-.187.223 0 .46.11.418 0 .78-.034.029 0 .029.03l-.059.152q-.017.034-.052.034-.17-.014-.5-.014.198.187.198.447 0 .367-.261.576-.229.187-.595.187-.064 0-.14-.015-.298.155-.298.342 0 .155.337.155l.509-.01q.846 0 .846.64 0 .416-.344.652-.322.222-.881.222-.465 0-.75-.21-.241-.174-.241-.42 0-.391.499-.586zm.175.047q-.05.025-.12.074-.176.152-.176.388 0 .276.217.431.19.135.49.135.383 0 .61-.214.19-.174.19-.42 0-.21-.153-.298-.136-.081-.424-.081h-.305q-.17 0-.33-.015zm.288-2.175q-.232 0-.362.18-.116.162-.116.425 0 .313.155.482.128.14.327.14.222 0 .355-.184.123-.17.123-.438 0-.297-.16-.465-.13-.14-.322-.14zM34.692 3.484q.322-.5.773-.5.327 0 .514.202.172.185.172.49l-.007.554v.317q0 .455.032.514.032.067.292.091.04.008.04.057 0 .054-.04.054-.283-.01-.484-.01-.182 0-.517.01-.044 0-.044-.054 0-.05.044-.057.226-.017.27-.09.04-.067.04-.515v-.77q0-.177-.057-.288-.12-.258-.403-.258-.283 0-.485.288-.074.103-.096.18-.02.073-.02.203v.645q0 .443.04.514.042.069.3.091.04.008.04.062 0 .049-.04.049-.312-.01-.49-.01-.201 0-.514.01-.04 0-.04-.05 0-.053.045-.06.234-.023.268-.092.04-.081.04-.514v-.78q0-.177-.052-.278-.123-.258-.41-.258-.279 0-.48.288-.106.152-.106.383v.645q0 .448.03.514.029.067.287.091.034.008.034.057 0 .054-.034.054-.293-.01-.492-.01-.182 0-.495.01-.039 0-.039-.054 0-.05.04-.057.218-.017.263-.09.044-.077.044-.515v-.704q0-.305-.034-.403-.037-.11-.148-.11l-.175.009q-.042 0-.042-.071 0-.042.062-.062.335-.079.654-.204.055 0 .055.044-.01.27-.01.409.31-.47.74-.47.256 0 .428.145.15.13.207.354zM38.227 5.066q-.18.16-.35.221-.157.057-.368.057-.276 0-.44-.16-.141-.138-.141-.35 0-.28.172-.442.126-.126.598-.268.285-.086.399-.17.11-.086.11-.192v-.13q0-.517-.322-.517-.212 0-.342.12-.091.092-.091.249 0 .096-.1.16-.092.057-.222.057-.136 0-.136-.136 0-.229.308-.418.273-.167.598-.167.398 0 .548.167.13.145.128.477l-.01 1.09q-.007.428.19.428.069 0 .123-.04.03-.016.044-.016.022 0 .04.027.017.024.017.049 0 .017-.02.03-.177.127-.374.127-.268 0-.359-.253zm-.02-1.033q-.073.096-.462.238-.236.089-.332.212-.086.11-.086.28 0 .18.123.293.105.096.243.096.239 0 .386-.14.123-.118.123-.283zM39.642 3.836q0-.315-.04-.411-.044-.1-.147-.1l-.187.009q-.04 0-.04-.066 0-.047.062-.067.38-.09.67-.207.058 0 .058.047-.02.48-.02.866v.63q0 .465.03.52.037.066.3.085.04.008.04.054 0 .067-.04.067-.302-.01-.49-.01-.22 0-.513.01-.04 0-.04-.067 0-.046.04-.054.228-.024.278-.086.039-.054.039-.519zm.15-2.224q.113 0 .202.098.076.086.076.182 0 .126-.096.212-.084.071-.182.071-.118 0-.207-.093-.078-.081-.078-.19 0-.113.1-.201.084-.08.185-.08zM41.022 4.537V2.33q0-.315-.04-.413-.039-.101-.157-.101l-.177.01q-.04 0-.04-.06 0-.058.057-.07.288-.06.684-.202.05 0 .05.042-.02.465-.02 1.198v1.803q0 .453.04.52.04.066.287.09.047.008.047.062t-.045.054q-.302-.01-.48-.01-.201 0-.523.01-.04 0-.04-.054t.04-.062q.23-.017.268-.09.049-.092.049-.52zM42.547 4.744q.133 0 .219.096.079.086.079.211 0 .13-.099.217-.086.076-.199.076-.138 0-.226-.096-.077-.084-.077-.197 0-.145.099-.231.083-.076.204-.076zM44.575 2.98q.305 0 .568.11.187.082.187.212 0 .155-.059.236-.044.067-.11.067-.087 0-.237-.222l-.032-.044q-.137-.204-.337-.204-.295 0-.47.302-.16.276-.16.716 0 .448.251.728.202.227.46.227.261 0 .421-.091.13-.076.259-.249.02-.024.034-.024.034 0 .064.024.027.02.027.042 0 .008-.01.03-.312.504-.866.504-.487 0-.792-.36-.27-.321-.27-.804 0-.56.354-.908.3-.292.718-.292zM46.912 2.98q.487 0 .8.354.285.322.285.814 0 .556-.352.9-.3.296-.733.296-.492 0-.802-.362-.276-.322-.276-.802 0-.553.362-.905.305-.295.716-.295zm0 .15q-.315 0-.49.293-.16.27-.16.74 0 .554.205.814.165.214.445.214.317 0 .497-.292.165-.27.165-.736 0-.56-.212-.824-.17-.21-.45-.21zM50.595 3.484q.322-.5.773-.5.327 0 .514.202.172.185.172.49l-.007.554v.317q0 .455.032.514.032.067.292.091.04.008.04.057 0 .054-.04.054-.283-.01-.484-.01-.182 0-.517.01-.044 0-.044-.054 0-.05.044-.057.226-.017.27-.09.04-.067.04-.515v-.77q0-.177-.057-.288-.12-.258-.403-.258t-.485.288q-.074.103-.096.18-.02.073-.02.203v.645q0 .443.04.514.042.069.3.091.04.008.04.062 0 .049-.04.049-.312-.01-.49-.01-.201 0-.514.01-.04 0-.04-.05 0-.053.045-.06.234-.023.268-.092.04-.081.04-.514v-.78q0-.177-.052-.278-.123-.258-.41-.258-.279 0-.48.288-.106.152-.106.383v.645q0 .448.03.514.029.067.287.091.035.008.035.057 0 .054-.035.054-.293-.01-.492-.01-.182 0-.494.01-.04 0-.04-.054 0-.05.04-.057.218-.017.263-.09.044-.077.044-.515v-.704q0-.305-.034-.403-.037-.11-.148-.11l-.175.009q-.042 0-.042-.071 0-.042.062-.062.335-.079.654-.204.055 0 .055.044-.01.27-.01.409.31-.47.74-.47.256 0 .428.145.15.13.207.354z"/>
</g>
</svg>
