<svg xmlns="http://www.w3.org/2000/svg" width="180" height="18" viewBox="0 0 47.625 4.763"><g fill="none" stroke="#b0bbd4" stroke-width=".196"><path d="m45.233.434-.136.135-.27.271-.136.135-.135.135-.271.271-.136.135-.135.135-.136.136-.135.135-.135.135-.059.059m-2.88 1.255.176-.077.177-.077.177-.077.176-.077.177-.077.177-.077.177-.077.353-.154.177-.077.176-.077.177-.077.177-.077.177-.077.176-.077.23-.1.104.16.104.162.104.16.104.162.104.16.104.162.208.322.104.16.104.162.104.16.104.162.104.16.207.323.104.16.104.162.208.322.104.161.104.161.102.158"/><path d="m42.266 1.94-.571.511-.143.128-.713.64-.143.127-.028.025.429.636.107.159 1.287 1.907.107.16.121.18.188-.047.188-.045.375-.092.188-.045.188-.046.376-.091L44.41 6l.375-.091.188-.046.188-.046.376-.091.187-.046.11-.026.103-.16.207-.32.104-.16.31-.481.104-.16.207-.32.028-.044.182-.282.104-.16.003-.005-.101-.162-.102-.163-.101-.162-.406-.65-.102-.163-.304-.487-.102-.163-.71-1.137-.026-.042-.174.083-.174.083-.173.083-.174.083-.348.166-.174.083-.174.083-.174.083-.174.083-.173.083-.174.083-.174.083-.174.083-.174.083-.144.069-.028.024zm-6.712-.59.128-.045.202-.066.373-.121.552-.167.41-.113.105-.029.207-.05.207-.05.052-.012.402-.08.211-.027.111-.015h.227l.117.045.07.197.07.197.14.395.063.176.003.12-.128.167-.003.003-.273.216-.18.112-.18.11-.053.034-.188.098-.188.099-.17.089-.385.178-.193.088-.08.037-.195.08-.197.081-.196.081-.15.062-.78.287-.202.065-.202.066-.202.066-.17.055-.41.115-.204.057-.113.032-.415.094-.207.047-.014.003-.21.032-.21.032-.093.014-.213.007-.157.005"/><path d="m31.92 3.064.055.075.207.022.363-.039.418-.082.092-.018.207-.052.412-.104.019-.005.204-.06.204-.06.324-.094.202-.066.202-.066.202-.066.18-.058.2-.071.2-.072.2-.071.192-.069.753-.292.196-.083.195-.082.196-.083.087-.037.192-.09.37-.173.373-.2.055-.029.177-.115.11-.072.143-.14.008-.092m-2.374 4.253.077.194.155.39.057.144.01.008.174.122.127.088.043-.204.035-.166-.005-.01-.076-.195-.077-.195-.076-.195-.052-.133M34.736.473l.127.32.077.195.077.194.078.195.046.117.077.194.06.15.009.003.016-.001.024-.004.03-.007.034-.009.038-.011.04-.013.04-.014.04-.016.037-.015.033-.014.028-.014.02-.012.015-.01.006-.007-.002-.005-.076-.194-.057-.145-.076-.195L35.4.96l-.076-.195-.158-.427c-.149.034-.3.09-.43.135z"/><path d="m39.204 1.706-.146.189-.129.166-.128.166-.257.333-.128.166-.513.665-.129.166-.513.665-.128.166-.129.167-.128.166-.006.008-.012.014-.018.017-.025.018-.03.017-.035.018-.038.017-.039.015-.039.012-.037.01-.034.007-.03.003h-.024l-.026-.004-.06-.01-.21-.036-.21-.036-.63-.108-.42-.072-.21-.035-.42-.072-.42-.072-.42-.071-.42-.072-.42-.072-.01-.002-.208-.048-.068-.105-.017-.039-.084-.192-.084-.192-.168-.383-.084-.192.087-.122.044-.033.17-.126.138-.081.183-.107.03-.015.19-.096.189-.096.092-.042.192-.088.193-.088.137-.058.196-.083.195-.083.365-.144.197-.078.381-.141.2-.074.042-.015"/></g></svg>