<?xml version="1.0" encoding="UTF-8"?>
<svg width="122.957" height="83.832" version="1.1" viewBox="0 0 122.95646 83.831985" xmlns="http://www.w3.org/2000/svg" xmlns:xlink="http://www.w3.org/1999/xlink">
 <defs>
  <symbol id="symbol5379">
   <path d="m94.8594 6.75822c-0.645585 0.17932-0.96837 0.78903-0.96837 1.23735 0 0.39453 0.30486 0.82491 0.89664 0.82491 0.627645 0 1.29116-0.52005 1.29116-1.39875 0-0.95045-0.95043-1.57809-2.04434-1.57809-1.02216 0-1.68567 0.77112-1.9188 1.0939-0.44832-0.75318-1.45256-1.0939-2.47472-1.0939-2.25952 0-3.47896 2.20573-3.47896 2.79751 0 0.25106 0.26899 0.25106 0.430386 0.25106 0.215193 0 0.340728 0 0.412458-0.23312 0.52005-1.63188 1.8112-2.16987 2.54644-2.16987 0.68145 0 1.00424 0.32279 1.00424 0.89664 0 0.34073-0.251055 1.32702-0.412455 1.97261l-0.609705 2.45677c-0.268995 1.09391-0.91458 1.63188-1.52428 1.63188-0.08967 0-0.502125 0-0.860775-0.26898 0.64557-0.17932 0.96837-0.78904 0.96837-1.23736 0-0.39452-0.30486-0.82491-0.89664-0.82491-0.627648 0-1.29116 0.52005-1.29116 1.39876 0 0.95043 0.950436 1.57808 2.04434 1.57808 1.02216 0 1.68567-0.77111 1.9188-1.09389 0.44832 0.75316 1.45256 1.09389 2.47472 1.09389 2.25952 0 3.47895-2.20572 3.47895-2.7975 0-0.25107-0.26898-0.25107-0.43038-0.25107-0.21519 0-0.340725 0-0.412455 0.23313-0.52005 1.63188-1.8112 2.16985-2.54644 2.16985-0.68145 0-1.00424-0.32278-1.00424-0.89662 0-0.37659 0.23313-1.32704 0.394515-1.99055 0.125535-0.46624 0.53799-2.15193 0.627645-2.43885 0.268995-1.07596 0.89664-1.63188 1.52428-1.63188 0.08967 0 0.502125 0 0.860776 0.269z" stroke-linejoin="round" stroke-miterlimit="1e5" stroke-width="1.5"/>
  </symbol>
  <symbol id="symbol5392">
   <path d="m105.99 18.2532c0-0.0539 0-0.0897-0.30486-0.39452-2.24159-2.25952-2.81544-5.64882-2.81544-8.39253 0-3.1203 0.68145-6.2406 2.88717-8.4822 0.23313-0.21519 0.23313-0.25105 0.23313-0.30484 0-0.12555-0.0717-0.17934-0.17933-0.17934-0.17932 0-1.79328 1.21944-2.8513 3.49689-0.91458 1.9726-1.12977 3.96313-1.12977 5.46949 0 1.39875 0.19727 3.56862 1.18356 5.59502 1.07596 2.20573 2.61819 3.37135 2.79751 3.37135 0.1076 0 0.17933-0.0539 0.17933-0.17932z" stroke-linejoin="round" stroke-miterlimit="1e5" stroke-width="1.5"/>
  </symbol>
  <symbol id="symbol5401">
   <path d="m110.723 6.77622h1.68569c0.35865 0 0.53799 0 0.53799-0.35865 0-0.19726-0.17934-0.19726-0.50213-0.19726h-1.57807c0.64557-2.54645 0.73524-2.9051 0.73524-3.01271 0-0.30484-0.21519-0.48418-0.52005-0.48418-0.0538 0-0.55592 0.018-0.71732 0.64558l-0.69937 2.85131h-1.68568c-0.35866 0-0.53799 0-0.53799 0.34072 0 0.21519 0.14347 0.21519 0.50212 0.21519h1.57809c-1.29116 5.09291-1.36289 5.39777-1.36289 5.72055 0 0.96837 0.68144 1.64982 1.64981 1.64982 1.82914 0 2.8513-2.61819 2.8513-2.76165 0-0.17932-0.14346-0.17932-0.21519-0.17932-0.1614 0-0.17932 0.0539-0.26899 0.25105-0.77111 1.86501-1.72154 2.29539-2.33126 2.29539-0.37659 0-0.55591-0.23311-0.55591-0.82491 0-0.43038 0.0359-0.5559 0.10759-0.86076z" stroke-linejoin="round" stroke-miterlimit="1e5" stroke-width="1.5"/>
  </symbol>
  <symbol id="symbol4203">
   <circle cx="70.4376" cy="61.298" r="9.5" color="#000000" color-rendering="auto" fill="#cacaca" image-rendering="auto" shape-rendering="auto" solid-color="#000000" stroke="#555" stroke-linejoin="round" stroke-miterlimit="100" style="isolation:auto;mix-blend-mode:normal"/>
  </symbol>
 </defs>
 <path d="m91.6562 9.82545h5.00325c0.25105 0 0.59178 0 0.59178-0.35865s-0.34073-0.35866-0.59178-0.35866h-5.00325v-5.02116c0-0.25106 0-0.59178-0.35865-0.59178s-0.35865 0.34072-0.35865 0.59178v5.02116h-5.02118c-0.25105 0-0.59178 0-0.59178 0.35866 0 0.35867 0.34073 0.35865 0.59178 0.35865h5.02118v5.02118c0 0.25105 0 0.59178 0.35865 0.59178s0.35865-0.34073 0.35865-0.59178z" stroke-linejoin="round" stroke-miterlimit="1e5" stroke-width="1.5"/>
 <use transform="translate(-33.1428 .00023)" width="100%" height="100%" xlink:href="#symbol5379"/>
 <use transform="translate(-85.4289 39.251)" width="100%" height="100%" xlink:href="#symbol5379"/>
 <use transform="translate(-33.1428 .00023)" width="100%" height="100%" xlink:href="#symbol5392"/>
 <use transform="translate(-85.4292 39.251)" width="100%" height="100%" xlink:href="#symbol5392"/>
 <use transform="matrix(-1 0 0 1 224.286 3e-4)" width="100%" height="100%" xlink:href="#symbol5392"/>
 <use transform="matrix(-1 0 0 1 135.062 39.251)" width="100%" height="100%" xlink:href="#symbol5392"/>
 <use transform="translate(-33.1428 .00023)" width="100%" height="100%" xlink:href="#symbol5401"/>
 <use transform="translate(-85.4303 39.251)" width="100%" height="100%" xlink:href="#symbol5401"/>
 <use transform="translate(3.93671 -.55568)" width="100%" height="100%" xlink:href="#symbol5401"/>
 <use transform="translate(-41.0216 12.034)" width="100%" height="100%" xlink:href="#symbol4203"/>
 <use transform="translate(36.8356 -28.7726)" width="100%" height="100%" xlink:href="#symbol4203"/>
 <path d="m106.937 6.11345c-2.24159 0.53799-3.98107 2.86925-3.98107 5.0391 0 1.72155 1.1477 3.01271 2.83337 3.01271 2.09814 0 3.58656-2.81544 3.58656-5.29016 0-1.63188-0.71731-2.52852-1.32703-3.33549-0.64557-0.80698-1.70361-2.15193-1.70361-2.94097 0-0.39453 0.35866-0.82491 0.98631-0.82491 0.53797 0 0.89664 0.23313 1.27323 0.48418 0.35865 0.21519 0.7173 0.44832 0.98629 0.44832 0.44832 0 0.71732-0.43038 0.71732-0.71731 0-0.39452-0.28694-0.44832-0.93251-0.59178-0.9325-0.19725-1.18356-0.19725-1.47049-0.19725-1.39875 0-2.04434 0.7711-2.04434 1.84707 0 0.96837 0.52005 1.9726 1.07597 3.06649zm0.2152 0.39453c0.44832 0.8249 0.9863 1.79327 0.9863 3.08442 0 1.18358-0.68145 4.17834-2.3492 4.17834-0.98629 0-1.72153-0.75318-1.72153-2.11606 0-1.12977 0.66351-4.50113 3.08443-5.1467z" stroke-linejoin="round" stroke-miterlimit="1e5" stroke-width="1.5"/>
</svg>
