<?xml version="1.0" encoding="UTF-8"?>
<svg width="156.365" height="104.353" version="1.1" viewBox="0 0 156.36516 104.35338" xmlns="http://www.w3.org/2000/svg"><defs><marker id="marker6157" overflow="visible" orient="auto"><path transform="matrix(-.4 0 0 -.4 -4 0)" d="m0 0 5-5-17.5 5 17.5 5z" fill="#f00" fill-rule="evenodd" stroke="#f00" stroke-width="1pt"/></marker><marker id="marker1615-7" overflow="visible" orient="auto"><path transform="matrix(-.4 0 0 -.4 -4 0)" d="m0 0 5-5-17.5 5 17.5 5z" fill="#040404" fill-rule="evenodd" stroke="#040404" stroke-width="1pt"/></marker><marker id="marker5971" overflow="visible" orient="auto"><path transform="matrix(-.4 0 0 -.4 -4 0)" d="m0 0 5-5-17.5 5 17.5 5z" fill="#040404" fill-rule="evenodd" stroke="#040404" stroke-width="1pt"/></marker></defs><g transform="translate(43.8969 -252.279)"><path d="m26.7975 274.854 73.2739 13.5242" color="#000000" color-rendering="auto" fill="none" image-rendering="auto" marker-end="url(#marker6157)" shape-rendering="auto" solid-color="#000000" stroke="#f00" stroke-width="2" style="isolation:auto;mix-blend-mode:normal"/><g stroke-linejoin="round" stroke-miterlimit="1e5" stroke-width="1.33333"><path d="m-36.8047 305.672c0-0.5165-0.439952-1.0138-1.01379-1.0138-0.650368 0-1.03293 0.5356-1.03293 1.0138 0 0.5164 0.439952 1.0138 1.01379 1.0138 0.650368 0 1.03293-0.5356 1.03293-1.0138z"/><path d="m-33.871 310.05c-0.688624 0.1913-1.03293 0.8416-1.03293 1.3199 0 0.4208 0.325184 0.8799 0.956416 0.8799 0.669488 0 1.37723-0.5548 1.37723-1.492 0-1.0138-1.01379-1.6833-2.18062-1.6833-1.0903 0-1.79805 0.8225-2.04672 1.1668-0.478208-0.8034-1.54939-1.1668-2.6397-1.1668-2.41016 0-3.71089 2.3527-3.71089 2.984 0 0.2678 0.286924 0.2678 0.459079 0.2678 0.229539 0 0.363443 0 0.439955-0.2487 0.55472-1.7407 1.93195-2.3145 2.71621-2.3145 0.72688 0 1.07118 0.3443 1.07118 0.9564 0 0.3634-0.267792 1.4155-0.439952 2.1041l-0.650352 2.62058c-0.286928 1.16683-0.975552 1.74067-1.6259 1.74067-0.09565 0-0.5356 0-0.91816-0.28691 0.688608-0.19128 1.03293-0.84165 1.03293-1.31986 0-0.42082-0.325184-0.8799-0.956416-0.8799-0.669491 0-1.37724 0.55472-1.37724 1.49201 0 1.01379 1.0138 1.68328 2.18063 1.68328 1.0903 0 1.79805-0.82251 2.04672-1.16681 0.478208 0.80337 1.54939 1.16681 2.6397 1.16681 2.41016 0 3.71088-2.35277 3.71088-2.984 0-0.26781-0.286912-0.26781-0.459072-0.26781-0.229536 0-0.36344 0-0.439952 0.24868-0.55472 1.74067-1.93195 2.31451-2.71621 2.31451-0.72688 0-1.07118-0.34431-1.07118-0.9564 0-0.4017 0.248672-1.41551 0.420816-2.12325 0.133904-0.49733 0.573856-2.2954 0.669488-2.6014 0.286928-1.1477 0.956416-1.7407 1.6259-1.7407 0.09565 0 0.5356 0 0.91816 0.2869z"/><path d="m-21.9987 322.312c0-0.0574 0-0.0957-0.325184-0.42081-2.39102-2.41016-3.00314-6.02541-3.00314-8.95202 0-3.3283 0.72688-6.6567 3.07965-9.0477 0.248672-0.2295 0.248672-0.2678 0.248672-0.3252 0-0.1339-0.07651-0.1913-0.19128-0.1913-0.19128 0-1.91283 1.3008-3.04139 3.7301-0.975552 2.1041-1.20509 4.2273-1.20509 5.8341 0 1.49198 0.210416 3.80651 1.26246 5.968 1.1477 2.35278 2.79274 3.59611 2.98402 3.59611 0.114768 0 0.19128-0.0574 0.19128-0.19128z"/><path d="m-16.9513 310.07h1.79806c0.38256 0 0.573856 0 0.573856-0.3825 0-0.2104-0.191296-0.2104-0.5356-0.2104h-1.68328c0.688608-2.7162 0.784256-3.0988 0.784256-3.2136 0-0.3252-0.229536-0.5165-0.55472-0.5165-0.05739 0-0.592976 0.019-0.765136 0.6887l-0.746 3.0414h-1.79806c-0.382564 0-0.573848 0-0.573848 0.3634 0 0.2295 0.153026 0.2295 0.535592 0.2295h1.68329c-1.37724 5.43247-1.45375 5.75765-1.45375 6.10196 0 1.03292 0.72687 1.7598 1.7598 1.7598 1.95109 0 3.04139-2.79273 3.04139-2.94576 0-0.19128-0.153024-0.19128-0.229536-0.19128-0.17216 0-0.19128 0.0574-0.286928 0.2678-0.822512 1.98934-1.8363 2.44841-2.48667 2.44841-0.401696 0-0.592976-0.24865-0.592976-0.8799 0-0.45907 0.03826-0.59296 0.114768-0.91815z"/><path d="m-8.48205 312.939c0-1.492-0.2104-3.8065-1.26246-5.968-1.1477-2.3528-2.79272-3.5962-2.98401-3.5962-0.11477 0-0.191282 0.077-0.191282 0.1913 0 0.058 0 0.096 0.363437 0.44 1.87457 1.8937 2.96488 4.9351 2.96488 8.9329 0 3.27091-0.707744 6.63749-3.07964 9.04765-0.248667 0.22953-0.248667 0.26779-0.248667 0.32518 0 0.11472 0.07651 0.19128 0.191282 0.19128 0.191283 0 1.91282-1.30072 3.0414-3.73001 0.975536-2.1041 1.20507-4.22735 1.20507-5.8341z"/><path d="m44.2457 330.076c0-0.5165-0.439952-1.0138-1.01379-1.0138-0.650368 0-1.03293 0.5356-1.03293 1.0138 0 0.5164 0.439952 1.0138 1.01379 1.0138 0.650368 0 1.03293-0.5356 1.03293-1.0138z"/><path d="m47.1794 334.454c-0.688624 0.1913-1.03293 0.8416-1.03293 1.3199 0 0.4208 0.325184 0.8799 0.956416 0.8799 0.669488 0 1.37723-0.5548 1.37723-1.492 0-1.0138-1.01379-1.6833-2.18062-1.6833-1.0903 0-1.79805 0.8225-2.04672 1.1668-0.478208-0.8034-1.54939-1.1668-2.6397-1.1668-2.41016 0-3.71089 2.3527-3.71089 2.984 0 0.2678 0.286923 0.2678 0.459078 0.2678 0.229539 0 0.363443 0 0.439955-0.2487 0.55472-1.7407 1.93195-2.3145 2.71621-2.3145 0.72688 0 1.07118 0.3443 1.07118 0.9564 0 0.3634-0.267792 1.4155-0.439952 2.1041l-0.650352 2.62058c-0.286928 1.16683-0.975552 1.74067-1.6259 1.74067-0.09565 0-0.5356 0-0.91816-0.28691 0.688608-0.19128 1.03293-0.84165 1.03293-1.31986 0-0.42082-0.325184-0.8799-0.956416-0.8799-0.669491 0-1.37724 0.55472-1.37724 1.49201 0 1.01379 1.0138 1.68328 2.18063 1.68328 1.0903 0 1.79805-0.82251 2.04672-1.16681 0.478208 0.80337 1.54939 1.16681 2.6397 1.16681 2.41016 0 3.71088-2.35277 3.71088-2.984 0-0.26781-0.286912-0.26781-0.459072-0.26781-0.229536 0-0.36344 0-0.439952 0.24868-0.55472 1.74067-1.93195 2.31451-2.71621 2.31451-0.72688 0-1.07118-0.34431-1.07118-0.9564 0-0.4017 0.248672-1.41551 0.420816-2.12325 0.133904-0.49733 0.573856-2.2954 0.669488-2.6014 0.286928-1.1477 0.956416-1.7407 1.6259-1.7407 0.09565 0 0.5356 0 0.91816 0.2869z"/><path d="m59.0517 346.716c0-0.0574 0-0.0957-0.325184-0.42081-2.39102-2.41016-3.00314-6.02541-3.00314-8.95202 0-3.3283 0.72688-6.6567 3.07965-9.0477 0.248672-0.2295 0.248672-0.2678 0.248672-0.3252 0-0.1339-0.07651-0.1913-0.19128-0.1913-0.19128 0-1.91283 1.3008-3.04139 3.7301-0.975552 2.1041-1.20509 4.2273-1.20509 5.8341 0 1.49198 0.210416 3.80651 1.26246 5.968 1.1477 2.35278 2.79274 3.59611 2.98402 3.59611 0.114768 0 0.19128-0.0574 0.19128-0.19128z"/><path d="m64.099 334.474h1.79806c0.38256 0 0.573856 0 0.573856-0.3825 0-0.2104-0.191296-0.2104-0.5356-0.2104h-1.68328c0.688608-2.7162 0.784256-3.0988 0.784256-3.2136 0-0.3252-0.229536-0.5165-0.55472-0.5165-0.05739 0-0.592976 0.019-0.765136 0.6887l-0.746 3.0414h-1.79806c-0.382565 0-0.573848 0-0.573848 0.3634 0 0.2295 0.153025 0.2295 0.535592 0.2295h1.68329c-1.37724 5.43247-1.45375 5.75765-1.45375 6.10196 0 1.03292 0.72687 1.7598 1.7598 1.7598 1.95109 0 3.04139-2.79273 3.04139-2.94576 0-0.19128-0.153024-0.19128-0.229536-0.19128-0.17216 0-0.19128 0.0574-0.286928 0.2678-0.822512 1.98934-1.8363 2.44841-2.48667 2.44841-0.401696 0-0.592976-0.24865-0.592976-0.8799 0-0.45907 0.03826-0.59296 0.114768-0.91815z"/><path d="m79.1149 337.725h5.3368c0.26779 0 0.63123 0 0.63123-0.38254 0-0.3826-0.36344-0.3826-0.63123-0.3826h-5.3368v-5.3559c0-0.2678 0-0.6312-0.38256-0.6312s-0.38256 0.3634-0.38256 0.6312v5.3559h-5.35592c-0.267795 0-0.631233 0-0.631233 0.3826 0 0.38256 0.363438 0.38254 0.631233 0.38254h5.35592v5.35592c0 0.2678 0 0.63124 0.38256 0.63124s0.38256-0.36344 0.38256-0.63124z"/><path d="m95.4149 333.766c-2.39102 0.5738-4.24647 3.0605-4.24647 5.37503 0 1.83632 1.22422 3.21355 3.02227 3.21355 2.23801 0 3.82566-3.00313 3.82566-5.64278 0-1.7407-0.76514-2.6971-1.4155-3.5579-0.68861-0.8608-1.81719-2.2954-1.81719-3.137 0-0.4209 0.38258-0.8799 1.05207-0.8799 0.57384 0 0.95641 0.2486 1.35811 0.5164 0.38256 0.2296 0.76512 0.4782 1.05205 0.4782 0.4782 0 0.76513-0.459 0.76513-0.7651 0-0.4208-0.30606-0.4782-0.99467-0.6312-0.99467-0.2104-1.26246-0.2104-1.56853-0.2104-1.492 0-2.18062 0.8225-2.18062 1.9702 0 1.0329 0.55472 2.1041 1.14769 3.2709zm0.22956 0.4208c0.4782 0.8799 1.05204 1.9128 1.05204 3.29007 0 1.26248-0.72688 4.4569-2.5058 4.4569-1.05205 0-1.83631-0.80339-1.83631-2.25714 0-1.20509 0.70775-4.80123 3.29007-5.48983z"/><path d="m103.499 334.474h1.79806c0.38256 0 0.57386 0 0.57386-0.3825 0-0.2104-0.1913-0.2104-0.5356-0.2104h-1.68328c0.68861-2.7162 0.78425-3.0988 0.78425-3.2136 0-0.3252-0.22953-0.5165-0.55472-0.5165-0.0574 0-0.59297 0.019-0.76513 0.6887l-0.746 3.0414h-1.79806c-0.38257 0-0.573849 0-0.573849 0.3634 0 0.2295 0.153029 0.2295 0.535589 0.2295h1.68329c-1.37724 5.43247-1.45375 5.75765-1.45375 6.10196 0 1.03292 0.72687 1.7598 1.7598 1.7598 1.95109 0 3.04139-2.79273 3.04139-2.94576 0-0.19128-0.15302-0.19128-0.22953-0.19128-0.17216 0-0.19128 0.0574-0.28693 0.2678-0.82251 1.98934-1.8363 2.44841-2.48667 2.44841-0.4017 0-0.59298-0.24865-0.59298-0.8799 0-0.45907 0.0383-0.59296 0.11477-0.91815z"/><path d="m111.968 337.343c0-1.492-0.2104-3.8065-1.26247-5.968-1.14769-2.3528-2.79272-3.5962-2.984-3.5962-0.11477 0-0.19129 0.077-0.19129 0.1913 0 0.058 0 0.096 0.36344 0.44 1.87457 1.8937 2.96488 4.9351 2.96488 8.9329 0 3.27091-0.70775 6.63749-3.07965 9.04765-0.24867 0.22953-0.24867 0.26779-0.24867 0.32518 0 0.11472 0.0765 0.19128 0.19129 0.19128 0.19128 0 1.91282-1.30072 3.04139-3.73001 0.97554-2.1041 1.20508-4.22735 1.20508-5.8341z"/></g><g fill="#ff0505" stroke-linejoin="round" stroke-miterlimit="1e5" stroke-width="1.33333"><path d="m48.6097 255.019c0-0.4591-0.38256-0.9564-0.95641-0.9564-0.53559 0-0.95642 0.4208-0.95642 0.9564s0.42083 0.9564 0.95642 0.9564c0.57385 0 0.95641-0.4973 0.95641-0.9564zm3.69176 0c0-0.5356-0.42083-0.9564-0.95641-0.9564-0.57386 0-0.95642 0.4973-0.95642 0.9564s0.38256 0.9564 0.95642 0.9564c0.53558 0 0.95641-0.4208 0.95641-0.9564z"/><path d="m53.4578 259.454c-0.68862 0.1913-1.03293 0.8416-1.03293 1.3199 0 0.4208 0.32519 0.8799 0.95642 0.8799 0.66949 0 1.37723-0.5548 1.37723-1.492 0-1.0138-1.01379-1.6833-2.18062-1.6833-1.09031 0-1.79805 0.8225-2.04672 1.1668-0.47821-0.8034-1.5494-1.1668-2.6397-1.1668-2.41016 0-3.71089 2.3527-3.71089 2.984 0 0.2678 0.28692 0.2678 0.45908 0.2678 0.22954 0 0.36344 0 0.43995-0.2487 0.55472-1.7407 1.93196-2.3145 2.71621-2.3145 0.72688 0 1.07119 0.3443 1.07119 0.9564 0 0.3634-0.2678 1.4155-0.43996 2.1041l-0.65035 2.62058c-0.28693 1.16683-0.97555 1.74067-1.6259 1.74067-0.0957 0-0.5356 0-0.91816-0.28691 0.68861-0.19128 1.03293-0.84165 1.03293-1.31986 0-0.42082-0.32519-0.8799-0.95642-0.8799-0.66949 0-1.37724 0.55472-1.37724 1.49201 0 1.01379 1.0138 1.68328 2.18063 1.68328 1.09031 0 1.79805-0.82251 2.04672-1.16681 0.47821 0.80337 1.54939 1.16681 2.6397 1.16681 2.41016 0 3.71088-2.35277 3.71088-2.984 0-0.26781-0.28691-0.26781-0.45907-0.26781-0.22954 0-0.36344 0-0.43996 0.24868-0.55472 1.74067-1.93195 2.31451-2.7162 2.31451-0.72688 0-1.07119-0.34431-1.07119-0.9564 0-0.4017 0.24867-1.41551 0.42082-2.12325 0.1339-0.49733 0.57385-2.2954 0.66949-2.6014 0.28692-1.1477 0.95641-1.7407 1.6259-1.7407 0.0957 0 0.5356 0 0.91816 0.2869z"/><path d="m65.3301 271.716c0-0.0574 0-0.0957-0.32519-0.42081-2.39102-2.41016-3.00313-6.02541-3.00313-8.95202 0-3.3283 0.72688-6.6567 3.07965-9.0477 0.24867-0.2295 0.24867-0.2678 0.24867-0.3252 0-0.1339-0.0765-0.1913-0.19128-0.1913-0.19128 0-1.91283 1.3008-3.04139 3.7301-0.97556 2.1041-1.20509 4.2273-1.20509 5.8341 0 1.49198 0.21041 3.80651 1.26246 5.968 1.1477 2.35278 2.79274 3.59611 2.98402 3.59611 0.11477 0 0.19128-0.0574 0.19128-0.19128z"/><path d="m70.379 259.474h1.79806c0.38256 0 0.57386 0 0.57386-0.3825 0-0.2104-0.1913-0.2104-0.5356-0.2104h-1.68328c0.68861-2.7162 0.78425-3.0988 0.78425-3.2136 0-0.3252-0.22953-0.5165-0.55472-0.5165-0.0574 0-0.59297 0.019-0.76513 0.6887l-0.746 3.0414h-1.79806c-0.38256 0-0.57385 0-0.57385 0.3634 0 0.2295 0.15303 0.2295 0.53559 0.2295h1.68329c-1.37723 5.43247-1.45375 5.75765-1.45375 6.10196 0 1.03292 0.72687 1.7598 1.7598 1.7598 1.95109 0 3.04139-2.79273 3.04139-2.94576 0-0.19128-0.15302-0.19128-0.22953-0.19128-0.17216 0-0.19128 0.0574-0.28693 0.2678-0.82251 1.98934-1.8363 2.44841-2.48667 2.44841-0.4017 0-0.59298-0.24865-0.59298-0.8799 0-0.45907 0.0383-0.59296 0.11477-0.91815z"/><path d="m78.8483 262.343c0-1.492-0.2104-3.8065-1.26247-5.968-1.14769-2.3528-2.79272-3.5962-2.984-3.5962-0.11477 0-0.19129 0.077-0.19129 0.1913 0 0.058 0 0.096 0.36344 0.44 1.87457 1.8937 2.96488 4.9351 2.96488 8.9329 0 3.27091-0.70775 6.63749-3.07965 9.04765-0.24867 0.22953-0.24867 0.26779-0.24867 0.32518 0 0.11472 0.0765 0.19128 0.19129 0.19128 0.19128 0 1.91282-1.30072 3.04139-3.73001 0.97554-2.1041 1.20508-4.22735 1.20508-5.8341z"/><path d="m88.7081 262.343c0-0.5547-0.45907-1.0138-1.01379-1.0138s-1.01381 0.4591-1.01381 1.0138 0.45909 1.01378 1.01381 1.01378 1.01379-0.45908 1.01379-1.01378z"/><path d="m99.6293 258.766c-2.39103 0.5738-4.24647 3.0605-4.24647 5.37503 0 1.83632 1.22421 3.21355 3.02226 3.21355 2.23802 0 3.82566-3.00313 3.82566-5.64278 0-1.7407-0.76513-2.6971-1.4155-3.5579-0.68861-0.8608-1.81718-2.2954-1.81718-3.137 0-0.4209 0.38257-0.8799 1.05206-0.8799 0.57384 0 0.95642 0.2486 1.35811 0.5164 0.38256 0.2296 0.76512 0.4782 1.05205 0.4782 0.47821 0 0.76514-0.459 0.76514-0.7651 0-0.4208-0.30607-0.4782-0.99468-0.6312-0.99467-0.2104-1.26246-0.2104-1.56852-0.2104-1.492 0-2.18063 0.8225-2.18063 1.9702 0 1.0329 0.55472 2.1041 1.1477 3.2709zm0.22955 0.4208c0.478209 0.8799 1.05205 1.9128 1.05205 3.29007 0 1.26248-0.72688 4.4569-2.50581 4.4569-1.05205 0-1.8363-0.80339-1.8363-2.25714 0-1.20509 0.70774-4.80123 3.29006-5.48983z"/><path d="m107.713 259.474h1.79807c0.38256 0 0.57385 0 0.57385-0.3825 0-0.2104-0.19129-0.2104-0.5356-0.2104h-1.68328c0.68861-2.7162 0.78426-3.0988 0.78426-3.2136 0-0.3252-0.22954-0.5165-0.55472-0.5165-0.0574 0-0.59298 0.019-0.76514 0.6887l-0.746 3.0414h-1.79806c-0.38256 0-0.57384 0-0.57384 0.3634 0 0.2295 0.15302 0.2295 0.53559 0.2295h1.68329c-1.37724 5.43247-1.45375 5.75765-1.45375 6.10196 0 1.03292 0.72687 1.7598 1.7598 1.7598 1.95108 0 3.04139-2.79273 3.04139-2.94576 0-0.19128-0.15303-0.19128-0.22954-0.19128-0.17216 0-0.19128 0.0574-0.28693 0.2678-0.82251 1.98934-1.8363 2.44841-2.48667 2.44841-0.40169 0-0.59297-0.24865-0.59297-0.8799 0-0.45907 0.0383-0.59296 0.11476-0.91815z"/></g><path d="m-20.4542 355.258 47.2517-80.4041" color="#000000" color-rendering="auto" fill="none" image-rendering="auto" marker-end="url(#marker1615-7)" shape-rendering="auto" solid-color="#000000" stroke="#040404" stroke-width="2" style="isolation:auto;mix-blend-mode:normal"/><path d="m-20.4542 355.258 120.526-66.8799" color="#000000" color-rendering="auto" fill="none" image-rendering="auto" marker-end="url(#marker5971)" shape-rendering="auto" solid-color="#000000" stroke="#040404" stroke-width="2" style="isolation:auto;mix-blend-mode:normal"/></g></svg>
