<?xml version="1.0" encoding="UTF-8"?>
<svg width="202" height="75.5053" version="1.1" viewBox="0 0 202.00002 75.505341" xmlns="http://www.w3.org/2000/svg" xmlns:xlink="http://www.w3.org/1999/xlink">
 <defs>
  <symbol id="symbol5812">
   <path d="m4.9377 0.71c0-0.019 0-0.21041-0.24865-0.21041-0.43996 0-1.83632 0.15296-2.33365 0.19129-0.15304 0.019-0.36344 0.0382-0.36344 0.38256 0 0.22954 0.17214 0.22954 0.45907 0.22954 0.91816 0 0.95642 0.13392 0.95642 0.32518l-0.0574 0.38256-2.77359 11.0179c-0.0765 0.26779-0.0765 0.30605-0.0765 0.42082 0 0.43995 0.38256 0.5356 0.55471 0.5356 0.24867 0 0.5356-0.17216 0.65037-0.4017 0.0957-0.17216 0.95642-3.71088 1.07118-4.18909 0.65036 0.0574 2.21888 0.36343 2.21888 1.62591 0 0.13392 0 0.2104-0.0574 0.40168-0.0383 0.22955-0.0765 0.45909-0.0765 0.6695 0 1.12856 0.76514 1.8937 1.75981 1.8937 0.57384 0 1.0903-0.30607 1.51113-1.01381 0.47821-0.84163 0.68861-1.8937 0.68861-1.93195 0-0.19128-0.17214-0.19128-0.22953-0.19128-0.19128 0-0.21042 0.0765-0.2678 0.3443-0.38257 1.39637-0.82251 2.37191-1.66416 2.37191-0.36344 0-0.61211-0.2104-0.61211-0.89903 0-0.32518 0.0765-0.76513 0.15303-1.07118 0.0765-0.32519 0.0765-0.4017 0.0765-0.59298 0-1.24334-1.20508-1.79806-2.83099-2.00846 0.59298-0.34432 1.20509-0.95642 1.64503-1.41549 0.91816-1.01381 1.79806-1.83632 2.73534-1.83632 0.11477 0 0.1339 0 0.17216 0.019 0.22954 0.0382 0.24867 0.0382 0.4017 0.15312 0.0382 0.0192 0.0382 0.0382 0.0765 0.0765-0.91816 0.0574-1.09032 0.80338-1.09032 1.03293 0 0.30605 0.21041 0.66949 0.72688 0.66949 0.49734 0 1.05206-0.42084 1.05206-1.16684 0-0.57384-0.43995-1.20507-1.30073-1.20507-0.53559 0-1.41549 0.15296-2.79272 1.68328-0.65037 0.72688-1.39637 1.492-2.12324 1.77893z" stroke-linejoin="round" stroke-miterlimit="1e5" stroke-width="1.07453"/>
  </symbol>
  <symbol id="symbol5819">
   <path d="m28.1963 4.249c0.22953-0.11472 0.36344-0.21042 0.36344-0.42083 0-0.21042-0.17216-0.38256-0.38258-0.38256-0.0574 0-0.0956 0-0.3443 0.13392l-10.5971 4.99246c-0.21042 0.0957-0.36344 0.1913-0.36344 0.42083 0 0.22954 0.15302 0.32519 0.36344 0.42082l10.5971 4.99248c0.24867 0.13392 0.28692 0.13392 0.3443 0.13392 0.21042 0 0.38258-0.17216 0.38258-0.38258 0-0.2104-0.13391-0.30604-0.36344-0.42081l-10.0423-4.74381z" stroke-linejoin="round" stroke-miterlimit="1e5" stroke-width="1.07453"/>
  </symbol>
  <symbol id="symbol5828">
   <path d="m44.2197 7.654c0-1.53027-0.0956-3.06053-0.76514-4.47601-0.8799-1.83632-2.44842-2.14237-3.25181-2.14237-1.14769 0-2.54406 0.49733-3.32831 2.27625-0.61211 1.31986-0.70775 2.81186-0.70775 4.34213 0 1.43461 0.0765 3.15616 0.86077 4.60991 0.82252 1.54939 2.21888 1.93195 3.15617 1.93195 1.03293 0 2.48668-0.40168 3.32832-2.21888 0.6121-1.31984 0.70775-2.81186 0.70775-4.32298zm-4.03607 6.12104c-0.746 0-1.87457-0.47821-2.21888-2.31453-0.21041-1.14769-0.21041-2.90748-0.21041-4.03606 0-1.22421 0-2.48667 0.15302-3.5196 0.36344-2.27626 1.79806-2.44842 2.27627-2.44842 0.63123 0 1.8937 0.34431 2.25714 2.23802 0.19128 1.07118 0.19128 2.52493 0.19128 3.73 0 1.43462 0 2.73534-0.21042 3.95955-0.28692 1.81719-1.37723 2.39104-2.238 2.39104z" stroke-linejoin="round" stroke-miterlimit="1e5" stroke-width="1.07453"/>
  </symbol>
 </defs>
 <path d="m0.5 23.52h201" color="#000000" color-rendering="auto" fill="none" image-rendering="auto" shape-rendering="auto" solid-color="#000000" stroke="#000" stroke-width=".2" style="isolation:auto;mix-blend-mode:normal"/>
 <path d="m0.5 70.645h201" color="#000000" color-rendering="auto" fill="none" image-rendering="auto" shape-rendering="auto" solid-color="#000000" stroke="#000" stroke-width=".2" style="isolation:auto;mix-blend-mode:normal"/>
 <g fill="#f00" stroke-linejoin="round" stroke-miterlimit="1e5" stroke-width="1.07453">
  <path d="m3.35 22.648h13.0781l-0.871879-3.48751 8.71876 4.35939-8.71876 4.35937 0.871879-3.4875h-13.0781v-1.74375" clip-path="url(#pc49e36dc86)"/>
  <path d="m27.7625 22.648h7.84689l-0.871887-3.48751 8.71876 4.35939-8.71876 4.35937 0.871887-3.4875h-7.84689v-1.74375" clip-path="url(#pc49e36dc86)"/>
  <path d="m52.175 22.648h2.61563l-0.871887-3.48751 8.71876 4.35939-8.71876 4.35937 0.871887-3.4875h-2.61563v-1.74375" clip-path="url(#pc49e36dc86)"/>
  <path d="m76.5875 22.996h0.523134l-0.523134-2.0925 5.23125 2.61564-5.23125 2.61561 0.523134-2.09248h-0.523134v-1.04627" clip-path="url(#pc49e36dc86)"/>
  <path d="m100.128 23.52 0.43594 0.75507h0.87187l0.43594-0.75507-0.43594-0.75507h-0.87187l-0.43594 0.75507 0.43594 0.75507" clip-path="url(#pc49e36dc86)"/>
  <path d="m125.412 24.043h-0.52313l0.52313 2.09248-5.23126-2.61561 5.23126-2.61564-0.52313 2.0925h0.52313v1.04627" clip-path="url(#pc49e36dc86)"/>
  <path d="m149.825 24.391h-2.61563l0.87187 3.4875-8.71875-4.35937 8.71875-4.35939-0.87187 3.48751h2.61563v1.74375" clip-path="url(#pc49e36dc86)"/>
  <path d="m174.237 24.391h-7.84688l0.87187 3.4875-8.71876-4.35937 8.71876-4.35939-0.87187 3.48751h7.84688v1.74375" clip-path="url(#pc49e36dc86)"/>
  <path d="m198.65 24.391h-13.0781l0.87187 3.4875-8.71876-4.35937 8.71876-4.35939-0.87187 3.48751h13.0781v1.74375" clip-path="url(#pc49e36dc86)"/>
 </g>
 <g fill="#00f" shape-rendering="auto" stroke-linejoin="round" stroke-miterlimit="1e5" stroke-width="1.07453">
  <path d="m24.275 71.517h-13.0781l0.87187 3.48751-8.71876-4.35938 8.71876-4.35937-0.87187 3.4875h13.0781v1.74374" clip-path="url(#p735a84c319)" color="#000000" color-rendering="auto" image-rendering="auto" solid-color="#000000" style="isolation:auto;mix-blend-mode:normal"/>
  <path d="m43.4562 71.517h-7.8468l0.871801 3.48751-8.7187-4.35938 8.7187-4.35937-0.871801 3.4875h7.8468v1.74374" clip-path="url(#p735a84c319)" color="#000000" color-rendering="auto" image-rendering="auto" solid-color="#000000" style="isolation:auto;mix-blend-mode:normal"/>
  <path d="m62.6375 71.517h-2.6156l0.871801 3.48751-8.7187-4.35938 8.7187-4.35937-0.871801 3.4875h2.6156v1.74374" clip-path="url(#p735a84c319)" color="#000000" color-rendering="auto" image-rendering="auto" solid-color="#000000" style="isolation:auto;mix-blend-mode:normal"/>
  <path d="m81.8187 71.169h-0.523108l0.523108 2.0925-5.2312-2.61563 5.2312-2.61563-0.523108 2.09251h0.523108v1.04625" clip-path="url(#p735a84c319)" color="#000000" color-rendering="auto" image-rendering="auto" solid-color="#000000" style="isolation:auto;mix-blend-mode:normal"/>
  <path d="m101.871 70.645-0.436-0.75507h-0.8719l-0.4359 0.75507 0.4359 0.75507h0.8719l0.436-0.75507-0.436-0.75507" clip-path="url(#p735a84c319)" color="#000000" color-rendering="auto" image-rendering="auto" solid-color="#000000" style="isolation:auto;mix-blend-mode:normal"/>
  <path d="m120.181 70.122h0.5232l-0.5232-2.09251 5.2313 2.61563-5.2313 2.61563 0.5232-2.0925h-0.5232v-1.04625" clip-path="url(#p735a84c319)" color="#000000" color-rendering="auto" image-rendering="auto" solid-color="#000000" style="isolation:auto;mix-blend-mode:normal"/>
  <path d="m139.362 69.774h2.6156l-0.8719-3.4875 8.7188 4.35937-8.7188 4.35938 0.8719-3.48751h-2.6156v-1.74374" clip-path="url(#p735a84c319)" color="#000000" color-rendering="auto" image-rendering="auto" solid-color="#000000" style="isolation:auto;mix-blend-mode:normal"/>
  <path d="m158.543 69.774h7.8469l-0.8719-3.4875 8.7188 4.35937-8.7188 4.35938 0.8719-3.48751h-7.8469v-1.74374" clip-path="url(#p735a84c319)" color="#000000" color-rendering="auto" image-rendering="auto" solid-color="#000000" style="isolation:auto;mix-blend-mode:normal"/>
  <path d="m177.725 69.774h13.0781l-0.8719-3.4875 8.7188 4.35937-8.7188 4.35938 0.8719-3.48751h-13.0781v-1.74374" clip-path="url(#p735a84c319)" color="#000000" color-rendering="auto" image-rendering="auto" solid-color="#000000" style="isolation:auto;mix-blend-mode:normal"/>
 </g>
 <g fill="#ff0000">
  <use xlink:href="#symbol5812"/>
  <use xlink:href="#symbol5819"/>
  <use xlink:href="#symbol5828"/>
 </g>
 <g>
  <use transform="translate(-1e-5,47.126)" width="100%" height="100%" fill="#0000ff" xlink:href="#symbol5812"/>
  <use width="100%" height="100%" fill="#ff0000" xlink:href="#symbol5819"/>
  <use transform="matrix(-1 0 0 1 45.4321 47.1253)" width="100%" height="100%" fill="#0000ff" xlink:href="#symbol5819"/>
  <use transform="translate(-.0016 47.125)" width="100%" height="100%" fill="#0000ff" xlink:href="#symbol5828"/>
 </g>
</svg>
