<?xml version="1.0" encoding="UTF-8"?>
<svg width="167.611" height="117.673" version="1.1" viewBox="0 0 167.61007 117.6718" xmlns="http://www.w3.org/2000/svg">
 <defs>
  <marker id="marker6157" overflow="visible" orient="auto">
   <path transform="matrix(-.4 0 0 -.4 -4 0)" d="m0 0 5-5-17.5 5 17.5 5z" fill="#f00" fill-rule="evenodd" stroke="#f00" stroke-width="1pt"/>
  </marker>
 </defs>
 <path d="m167.11 51.4605c-65.1237 0-129.662 14.966-165.292 64.7066h165.292z" color="#000000" color-rendering="auto" fill="#dcdcdc" image-rendering="auto" shape-rendering="auto" solid-color="#000000" style="isolation:auto;mix-blend-mode:normal"/>
 <g fill="none">
  <path d="m1.72054 116.3c35.6103-49.8482 100.207-64.8385 165.389-64.8385" color="#000000" color-rendering="auto" image-rendering="auto" shape-rendering="auto" solid-color="#000000" stroke="#555" stroke-linejoin="round" stroke-miterlimit="100" stroke-width="2.99999" style="isolation:auto;mix-blend-mode:normal"/>
  <g>
   <path d="m17.282 86.4547 101.647-38.7396" stroke="#000" stroke-width=".999994px"/>
   <path d="m79.6039 62.7565-4.3782-11.5391-11.4877 4.39777" stroke="#000" stroke-width=".999994px"/>
   <path d="m68.1088 67.0837-19.6406-51.5341" marker-end="url(#marker6157)" stroke="#f00" stroke-width="1.99998"/>
  </g>
 </g>
 <g stroke-linejoin="round" stroke-miterlimit="1e5">
  <circle cx="68.1055" cy="67.0849" r="4.99997" color="#000000" stroke-width=".825696"/>
  <path d="m68.6535 7.43245h2.23797c0.363438 0 0.707724 0 0.707724-0.554713 0-0.344301-0.32515-0.344301-0.650332-0.344301h-2.14236l0.631228-3.46218c0.05744-0.344299 0.05744-0.382555 0.248671-0.554714 0.248654-0.229533 0.459069-0.229533 0.554716-0.229533 0.267791 0 0.439934 0.03826 0.669484 0.133888-0.459085 0.229549-0.803387 0.726872-0.803387 1.24333 0 0.573847 0.459069 0.879892 0.937274 0.879892 0.784252 0 1.37722-0.688615 1.37722-1.41547 0-0.975541-0.99465-1.53026-2.1806-1.53026-0.899034 0-1.9702 0.363436-2.63968 1.43461-0.439949 0.707735-0.554717 1.45373-0.918154 3.50044h-1.87453c-0.363438 0-0.68862 0-0.68862 0.554713 0 0.344301 0.325182 0.344301 0.631228 0.344301h1.75978l-1.45372 8.14854c-0.03824 0.172151-0.24867 1.37721-0.344318 1.645-0.03824 0.09565-0.344301 0.975542-0.95641 0.975542-0.363406 0-0.516445-0.05739-0.650332-0.114768 0.478189-0.229549 0.841627-0.726872 0.841627-1.26245 0-0.573846-0.459085-0.879895-0.937274-0.879895-0.784252 0-1.37722 0.688602-1.37722 1.41547 0 1.03292 1.09031 1.53024 2.08495 1.53024 1.43462 0 2.42927-1.41547 2.58229-1.66414 0.822507-1.26244 1.26246-3.6917 1.31985-4.01688z" fill="#f00" stroke-width="1.59998"/>
  <path d="m78.6353 1.1293c-0.241007 0.107119-0.37491 0.321356-0.37491 0.589145 0 0.361516 0.254399 0.629321 0.629324 0.629321 0.361502 0 0.642685-0.227629 0.642685-0.656105 0-1.19166-1.86116-1.19166-2.23607-1.19166-2.00844 0-3.25368 1.5398-3.25368 3.07961 0 1.68709 1.4327 3.02605 3.18673 3.02605 1.99504 0 2.46368-1.57998 2.46368-1.74064 0-0.160668-0.174063-0.160686-0.227615-0.160686-0.174079 0-0.187455 0.04018-0.254415 0.227628-0.294558 0.830156-1.0042 1.24523-1.82098 1.24523-0.923882 0-2.12895-0.68287-2.12895-2.61098 0-1.70048 0.830155-2.63776 2.0754-2.63776 0.174063 0 0.816763 0 1.29879 0.200846z" fill="#f00" stroke-width="1.59998"/>
 </g>
</svg>
