<?xml version="1.0" encoding="UTF-8"?>
<svg width="205.922" height="72.7508" version="1.1" viewBox="0 0 205.92166 72.750809" xmlns="http://www.w3.org/2000/svg"><defs><marker id="DotMv" overflow="visible" orient="auto"><path transform="matrix(.4 0 0 .4 2.96 .4)" d="m-2.5-1c0 2.76-2.24 5-5 5s-5-2.24-5-5 2.24-5 5-5 5 2.24 5 5z" fill="#f00" fill-rule="evenodd" stroke="#f00" stroke-width="1pt"/></marker><marker id="DotMy" overflow="visible" orient="auto"><path transform="matrix(.4 0 0 .4 2.96 .4)" d="m-2.5-1c0 2.76-2.24 5-5 5s-5-2.24-5-5 2.24-5 5-5 5 2.24 5 5z" fill="#f00" fill-rule="evenodd" stroke="#f00" stroke-width="1pt"/></marker><marker id="DotMvX" overflow="visible" orient="auto"><path transform="matrix(.4 0 0 .4 2.96 .4)" d="m-2.5-1c0 2.76-2.24 5-5 5s-5-2.24-5-5 2.24-5 5-5 5 2.24 5 5z" fill="#008100" fill-rule="evenodd" stroke="#008100" stroke-width="1pt"/></marker><marker id="DotMy8" overflow="visible" orient="auto"><path transform="matrix(.4 0 0 .4 2.96 .4)" d="m-2.5-1c0 2.76-2.24 5-5 5s-5-2.24-5-5 2.24-5 5-5 5 2.24 5 5z" fill="#008100" fill-rule="evenodd" stroke="#008100" stroke-width="1pt"/></marker></defs><g transform="translate(14.3894 -293.794)"><g fill="none"><path d="m9.4737 358.646c0-22.4246 27.9934-40.6032 68.4849-40.6032" color="#000000" stroke="#f00" stroke-width="1.5"/><path d="m77.9586 318.043c78.2917 0 88.9415 22.6609 88.9415 45.0854" color="#000000" stroke="#008100" stroke-width="1.5"/><g stroke-dasharray="2, 1"><path d="m9.4737 336.221v22.4246" color="#000000" marker="none" marker-end="url(#DotMy)" marker-start="url(#DotMv)" stroke="#f00"/><path d="m37.4671 318.043h40.4915" color="#000000" marker="none" marker-end="url(#DotMy)" marker-start="url(#DotMv)" stroke="#f00"/><path d="m156.25 318.043h-78.2917" color="#000000" color-rendering="auto" image-rendering="auto" marker="none" marker-end="url(#DotMy8)" marker-start="url(#DotMvX)" shape-rendering="auto" solid-color="#000000" stroke="#008100" style="isolation:auto;mix-blend-mode:normal"/><path d="m166.9 340.704v22.4246" color="#000000" marker="none" marker-end="url(#DotMy8)" marker-start="url(#DotMvX)" stroke="#008100"/></g></g><g shape-rendering="auto" stroke-width=".939987"><g fill="#008100"><path d="m81.3749 339.037c-0.072 0.252-0.09 0.27-0.108 0.288-0.108 0.036-0.306 0.036-0.468 0.036-0.306 0-0.63 0-0.63 0.504 0 0.198 0.144 0.342 0.342 0.342 0.522 0 1.116-0.054 1.656-0.054 0.63 0 1.314 0.054 1.926 0.054 0.126 0 0.468 0 0.468-0.522 0-0.306-0.288-0.324-0.468-0.324-0.252 0-0.54 0-0.774-0.018l0.774-3.132c0.27 0.252 0.864 0.648 1.818 0.648 3.132 0 5.076-2.844 5.076-5.31 0-2.214-1.656-2.97-3.15-2.97-1.278 0-2.214 0.702-2.502 0.972-0.684-0.972-1.872-0.972-2.07-0.972-0.666 0-1.188 0.378-1.566 1.026-0.45 0.72-0.684 1.692-0.684 1.782 0 0.252 0.27 0.252 0.432 0.252 0.198 0 0.27 0 0.36-0.09 0.036-0.036 0.036-0.072 0.144-0.522 0.36-1.44 0.774-1.8 1.224-1.8 0.198 0 0.414 0.072 0.414 0.666 0 0.27-0.036 0.522-0.108 0.774zm4.14-8.64c0.522-0.612 1.368-1.17 2.232-1.17 1.116 0 1.206 0.972 1.206 1.368 0 0.936-0.612 3.15-0.9 3.852-0.558 1.314-1.44 1.764-2.178 1.764-1.062 0-1.494-0.846-1.494-1.044l0.036-0.252z" color="#000000" color-rendering="auto" image-rendering="auto" solid-color="#000000" style="isolation:auto;mix-blend-mode:normal"/><path d="m94.4354 323.595c0.06-0.156 0.108-0.24 0.108-0.36 0-0.396-0.36-0.66-0.696-0.66-0.48 0-0.612 0.42-0.66 0.588l-1.524 5.172c-0.048 0.144-0.048 0.18-0.048 0.192 0 0.108 0.072 0.132 0.192 0.168 0.216 0.096 0.24 0.096 0.264 0.096 0.036 0 0.108 0 0.192-0.204z" color="#000000" color-rendering="auto" image-rendering="auto" solid-color="#000000" style="isolation:auto;mix-blend-mode:normal"/><path d="m95.0234 333.521c0-0.32399-0.024-0.33599-0.348-0.33599-0.492 0.47999-1.128 0.76799-2.268 0.76799v0.396c0.324 0 0.972 0 1.668-0.324v6.156c0 0.44401-0.036 0.58801-1.176 0.58801h-0.42v0.39599c0.492-0.036 1.524-0.036 2.064-0.036s1.584 0 2.076 0.036v-0.39599h-0.42c-1.14 0-1.176-0.144-1.176-0.58801z" color="#000000" color-rendering="auto" image-rendering="auto" solid-color="#000000" style="isolation:auto;mix-blend-mode:normal"/></g><path d="m18.7543 363.917c-0.072 0.252-0.09 0.27-0.108 0.288-0.108 0.036-0.306 0.036-0.468 0.036-0.306 0-0.63 0-0.63 0.504 0 0.198 0.144 0.342 0.342 0.342 0.522 0 1.116-0.054 1.656-0.054 0.63 0 1.314 0.054 1.926 0.054 0.126 0 0.468 0 0.468-0.522 0-0.306-0.288-0.324-0.468-0.324-0.252 0-0.54 0-0.774-0.018l0.774-3.132c0.27 0.252 0.864 0.648 1.818 0.648 3.132 0 5.076-2.844 5.076-5.31 0-2.214-1.656-2.97-3.15-2.97-1.278 0-2.214 0.702-2.502 0.972-0.684-0.972-1.872-0.972-2.07-0.972-0.666 0-1.188 0.378-1.566 1.026-0.45 0.72-0.684 1.692-0.684 1.782 0 0.252 0.27 0.252 0.432 0.252 0.198 0 0.27 0 0.36-0.09 0.036-0.036 0.036-0.072 0.144-0.522 0.36-1.44 0.774-1.8 1.224-1.8 0.198 0 0.414 0.072 0.414 0.666 0 0.27-0.036 0.522-0.108 0.774zm4.14-8.64c0.522-0.612 1.368-1.17 2.232-1.17 1.116 0 1.206 0.972 1.206 1.368 0 0.936-0.612 3.15-0.9 3.852-0.558 1.314-1.44 1.764-2.178 1.764-1.062 0-1.494-0.846-1.494-1.044l0.036-0.252z" color="#000000" color-rendering="auto" fill="#f00" image-rendering="auto" solid-color="#000000" style="isolation:auto;mix-blend-mode:normal"/><path d="m32.4028 358.401c0-0.324-0.024-0.336-0.348-0.336-0.492 0.48-1.128 0.768-2.268 0.768v0.396c0.324 0 0.972 0 1.668-0.324v6.156c0 0.444-0.036 0.588-1.176 0.588h-0.42v0.396c0.492-0.036 1.524-0.036 2.064-0.036s1.584 0 2.076 0.036v-0.396h-0.42c-1.14 0-1.176-0.144-1.176-0.588z" color="#000000" color-rendering="auto" fill="#f00" image-rendering="auto" solid-color="#000000" style="isolation:auto;mix-blend-mode:normal"/><g fill="#008100"><path d="m141.908 363.917c-0.072 0.252-0.09 0.27-0.108 0.288-0.108 0.036-0.306 0.036-0.468 0.036-0.306 0-0.63 0-0.63 0.504 0 0.198 0.144 0.342 0.342 0.342 0.522 0 1.116-0.054 1.656-0.054 0.63 0 1.314 0.054 1.926 0.054 0.126 0 0.468 0 0.468-0.522 0-0.306-0.288-0.324-0.468-0.324-0.252 0-0.54 0-0.774-0.018l0.774-3.132c0.27 0.252 0.864 0.648 1.818 0.648 3.132 0 5.076-2.844 5.076-5.31 0-2.214-1.656-2.97-3.15-2.97-1.278 0-2.214 0.702-2.502 0.972-0.684-0.972-1.872-0.972-2.07-0.972-0.666 0-1.188 0.378-1.566 1.026-0.45 0.72-0.684 1.692-0.684 1.782 0 0.252 0.27 0.252 0.432 0.252 0.198 0 0.27 0 0.36-0.09 0.036-0.036 0.036-0.072 0.144-0.522 0.36-1.44 0.774-1.8 1.224-1.8 0.198 0 0.414 0.072 0.414 0.666 0 0.27-0.036 0.522-0.108 0.774zm4.14-8.64c0.522-0.612 1.368-1.17 2.232-1.17 1.116 0 1.206 0.972 1.206 1.368 0 0.936-0.612 3.15-0.9 3.852-0.558 1.314-1.44 1.764-2.178 1.764-1.062 0-1.494-0.846-1.494-1.044l0.036-0.252z" color="#000000" color-rendering="auto" image-rendering="auto" solid-color="#000000" style="isolation:auto;mix-blend-mode:normal"/><path d="m154.969 348.475c0.06-0.156 0.108-0.24 0.108-0.36 0-0.396-0.36-0.66-0.696-0.66-0.48 0-0.612 0.42-0.66 0.588l-1.524 5.172c-0.048 0.144-0.048 0.18-0.048 0.192 0 0.108 0.072 0.132 0.192 0.168 0.216 0.096 0.24 0.096 0.264 0.096 0.036 0 0.108 0 0.192-0.204z" color="#000000" color-rendering="auto" image-rendering="auto" solid-color="#000000" style="isolation:auto;mix-blend-mode:normal"/><path d="m155.173 363.597c0.192-0.18 0.696-0.576 0.888-0.744 0.744-0.684 1.452-1.344 1.452-2.436 0-1.428-1.2-2.352-2.7-2.352-1.44 0-2.388 1.092-2.388 2.16 0 0.588 0.468 0.672 0.636 0.672 0.252 0 0.624-0.18 0.624-0.63599 0-0.62401-0.6-0.62401-0.744-0.62401 0.348-0.87599 1.152-1.176 1.74-1.176 1.116 0 1.692 0.948 1.692 1.956 0 1.24801-0.876 2.16-2.292 3.612l-1.512 1.56c-0.144 0.132-0.144 0.156-0.144 0.456h4.74l0.348-2.148h-0.372c-0.036 0.24-0.132 0.84001-0.276 1.068-0.072 0.096-0.984 0.096-1.176 0.096h-2.136z" color="#000000" color-rendering="auto" image-rendering="auto" solid-color="#000000" style="isolation:auto;mix-blend-mode:normal"/></g><path d="m60.8422 339.037c-0.072 0.252-0.09 0.27-0.108 0.288-0.108 0.036-0.306 0.036-0.468 0.036-0.306 0-0.63 0-0.63 0.504 0 0.198 0.144 0.342 0.342 0.342 0.522 0 1.116-0.054 1.656-0.054 0.63 0 1.314 0.054 1.926 0.054 0.126 0 0.468 0 0.468-0.522 0-0.306-0.288-0.324-0.468-0.324-0.252 0-0.54 0-0.774-0.018l0.774-3.132c0.27 0.252 0.864 0.648 1.818 0.648 3.132 0 5.076-2.844 5.076-5.31 0-2.214-1.656-2.97-3.15-2.97-1.278 0-2.214 0.702-2.502 0.972-0.684-0.972-1.872-0.972-2.07-0.972-0.666 0-1.188 0.378-1.566 1.026-0.45 0.72-0.684 1.692-0.684 1.782 0 0.252 0.27 0.252 0.432 0.252 0.198 0 0.27 0 0.36-0.09 0.036-0.036 0.036-0.072 0.144-0.522 0.36-1.44 0.774-1.8 1.224-1.8 0.198 0 0.414 0.072 0.414 0.666 0 0.27-0.036 0.522-0.108 0.774zm4.14-8.64c0.522-0.612 1.368-1.17 2.232-1.17 1.116 0 1.206 0.972 1.206 1.368 0 0.936-0.612 3.15-0.9 3.852-0.558 1.314-1.44 1.764-2.178 1.764-1.062 0-1.494-0.846-1.494-1.044l0.036-0.252z" color="#000000" color-rendering="auto" fill="#f00" image-rendering="auto" solid-color="#000000" style="isolation:auto;mix-blend-mode:normal"/><path d="m74.1067 338.717c0.192-0.18 0.696-0.576 0.888-0.74399 0.744-0.68401 1.452-1.344 1.452-2.43601 0-1.428-1.2-2.35199-2.7-2.35199-1.44 0-2.388 1.09199-2.388 2.16 0 0.58799 0.468 0.67199 0.636 0.67199 0.252 0 0.624-0.18 0.624-0.636 0-0.62399-0.6-0.62399-0.744-0.62399 0.348-0.87601 1.152-1.176 1.74-1.176 1.116 0 1.692 0.94799 1.692 1.95599 0 1.248-0.876 2.16001-2.292 3.61201l-1.512 1.56c-0.144 0.132-0.144 0.156-0.144 0.456h4.74l0.348-2.14801h-0.372c-0.036 0.24001-0.132 0.84-0.276 1.068-0.072 0.096-0.984 0.096-1.176 0.096h-2.136z" color="#000000" color-rendering="auto" fill="#f00" image-rendering="auto" solid-color="#000000" style="isolation:auto;mix-blend-mode:normal"/><g fill="#008100"><path d="m152.246 296.89c0.072-0.252 0.072-0.288 0.072-0.306 0-0.234-0.198-0.324-0.396-0.324-0.072 0-0.09 0-0.126 0.018l-2.322 0.108c-0.252 0.018-0.576 0.036-0.576 0.54 0 0.324 0.324 0.324 0.468 0.324 0.198 0 0.522 0 0.756 0.036l-2.592 10.386c-0.018 0.072-0.072 0.342-0.072 0.414 0 0.432 0.342 0.81 0.864 0.81 0.108 0 0.918 0 1.17-1.008l1.08-4.266c0.09-0.342 0.09-0.378 0.36-0.738 0.288-0.396 1.188-1.62 2.682-1.62 0.468 0 0.9 0.18 0.9 1.062 0 1.044-0.792 3.15-1.134 4.032-0.198 0.486-0.252 0.612-0.252 0.918 0 1.044 1.044 1.62 2.034 1.62 1.908 0 2.808-2.448 2.808-2.808 0-0.252-0.27-0.252-0.432-0.252-0.216 0-0.342 0-0.414 0.234-0.576 1.998-1.566 2.178-1.854 2.178-0.126 0-0.306 0-0.306-0.378 0-0.396 0.198-0.882 0.306-1.17 0.342-0.882 1.17-2.988 1.17-3.996 0-1.656-1.386-2.088-2.682-2.088-0.396 0-1.494 0-2.718 1.116z" color="#000000" color-rendering="auto" image-rendering="auto" solid-color="#000000" style="isolation:auto;mix-blend-mode:normal"/><path d="m161.755 295.314c0.06-0.156 0.108-0.24 0.108-0.36 0-0.396-0.36-0.66-0.696-0.66-0.48 0-0.612 0.42-0.66 0.588l-1.524 5.172c-0.048 0.144-0.048 0.18-0.048 0.192 0 0.108 0.072 0.132 0.192 0.168 0.216 0.096 0.24 0.096 0.264 0.096 0.036 0 0.108 0 0.192-0.204z" color="#000000" color-rendering="auto" image-rendering="auto" solid-color="#000000" style="isolation:auto;mix-blend-mode:normal"/><path d="m162.343 305.559c0-0.324-0.024-0.336-0.348-0.336-0.492 0.48-1.128 0.76799-2.268 0.76799v0.396c0.324 0 0.972 0 1.668-0.324v6.156c0 0.44401-0.036 0.58801-1.176 0.58801h-0.42v0.396c0.492-0.036 1.524-0.036 2.064-0.036s1.584 0 2.076 0.036v-0.396h-0.42c-1.14 0-1.176-0.144-1.176-0.58801z" color="#000000" color-rendering="auto" image-rendering="auto" solid-color="#000000" style="isolation:auto;mix-blend-mode:normal"/></g><path d="m-9.1014 322.965c0.072-0.252 0.072-0.288 0.072-0.306 0-0.234-0.198-0.324-0.396-0.324-0.072 0-0.09 0-0.126 0.018l-2.322 0.108c-0.252 0.018-0.576 0.036-0.576 0.54 0 0.324 0.324 0.324 0.468 0.324 0.198 0 0.522 0 0.756 0.036l-2.592 10.386c-0.018 0.072-0.072 0.342-0.072 0.414 0 0.432 0.342 0.81 0.864 0.81 0.108 0 0.918 0 1.17-1.008l1.08-4.266c0.09-0.342 0.09-0.378 0.36-0.738 0.288-0.396 1.188-1.62 2.682-1.62 0.468 0 0.9 0.18 0.9 1.062 0 1.044-0.792 3.15-1.134 4.032-0.198 0.486-0.252 0.612-0.252 0.918 0 1.044 1.044 1.62 2.034 1.62 1.908 0 2.808-2.448 2.808-2.808 0-0.252-0.27-0.252-0.432-0.252-0.216 0-0.342 0-0.414 0.234-0.576 1.998-1.566 2.178-1.854 2.178-0.126 0-0.306 0-0.306-0.378 0-0.396 0.198-0.882 0.306-1.17 0.342-0.882 1.17-2.988 1.17-3.996 0-1.656-1.386-2.088-2.682-2.088-0.396 0-1.494 0-2.718 1.116z" color="#000000" color-rendering="auto" fill="#f00" image-rendering="auto" solid-color="#000000" style="isolation:auto;mix-blend-mode:normal"/><path d="m0.9951 331.633c0-0.32401-0.024-0.33601-0.348-0.33601-0.492 0.48-1.128 0.768-2.268 0.768v0.396c0.324 0 0.972 0 1.668-0.324v6.156c0 0.444-0.036 0.588-1.176 0.588h-0.42v0.39601c0.492-0.036 1.524-0.036 2.064-0.036s1.584 0 2.076 0.036v-0.39601h-0.42c-1.14 0-1.176-0.144-1.176-0.588z" color="#000000" color-rendering="auto" fill="#f00" image-rendering="auto" solid-color="#000000" style="isolation:auto;mix-blend-mode:normal"/><g fill="#008100"><path d="m178.98 331.097c0.072-0.252 0.072-0.288 0.072-0.306 0-0.234-0.198-0.324-0.396-0.324-0.072 0-0.09 0-0.126 0.018l-2.322 0.108c-0.252 0.018-0.576 0.036-0.576 0.54 0 0.324 0.324 0.324 0.468 0.324 0.198 0 0.522 0 0.756 0.036l-2.592 10.386c-0.018 0.072-0.072 0.342-0.072 0.414 0 0.432 0.342 0.81 0.864 0.81 0.108 0 0.918 0 1.17-1.008l1.08-4.266c0.09-0.342 0.09-0.378 0.36-0.738 0.288-0.396 1.188-1.62 2.682-1.62 0.468 0 0.9 0.18 0.9 1.062 0 1.044-0.792 3.15-1.134 4.032-0.198 0.486-0.252 0.612-0.252 0.918 0 1.044 1.044 1.62 2.034 1.62 1.908 0 2.808-2.448 2.808-2.808 0-0.252-0.27-0.252-0.432-0.252-0.216 0-0.342 0-0.414 0.234-0.576 1.998-1.566 2.178-1.854 2.178-0.126 0-0.306 0-0.306-0.378 0-0.396 0.198-0.882 0.306-1.17 0.342-0.882 1.17-2.988 1.17-3.996 0-1.656-1.386-2.088-2.682-2.088-0.396 0-1.494 0-2.718 1.116z" color="#000000" color-rendering="auto" image-rendering="auto" solid-color="#000000" style="isolation:auto;mix-blend-mode:normal"/><path d="m188.488 329.521c0.06-0.156 0.108-0.24 0.108-0.36 0-0.396-0.36-0.66-0.696-0.66-0.48 0-0.612 0.42-0.66 0.588l-1.524 5.172c-0.048 0.144-0.048 0.18-0.048 0.192 0 0.108 0.072 0.132 0.192 0.168 0.216 0.096 0.24 0.096 0.264 0.096 0.036 0 0.108 0 0.192-0.204z" color="#000000" color-rendering="auto" image-rendering="auto" solid-color="#000000" style="isolation:auto;mix-blend-mode:normal"/><path d="m188.692 344.961c0.192-0.18 0.696-0.57599 0.888-0.74399 0.744-0.68401 1.452-1.34401 1.452-2.43601 0-1.428-1.2-2.352-2.7-2.352-1.44 0-2.388 1.092-2.388 2.16 0 0.588 0.468 0.672 0.636 0.672 0.252 0 0.624-0.18 0.624-0.636 0-0.62399-0.6-0.62399-0.744-0.62399 0.348-0.87601 1.152-1.17601 1.74-1.17601 1.116 0 1.692 0.948 1.692 1.956 0 1.248-0.876 2.16-2.292 3.612l-1.512 1.56c-0.144 0.13201-0.144 0.15601-0.144 0.45601h4.74l0.348-2.14801h-0.372c-0.036 0.24001-0.132 0.84001-0.276 1.068-0.072 0.096-0.984 0.096-1.176 0.096h-2.136z" color="#000000" color-rendering="auto" image-rendering="auto" solid-color="#000000" style="isolation:auto;mix-blend-mode:normal"/></g><path d="m34.8348 296.89c0.072-0.252 0.072-0.288 0.072-0.306 0-0.234-0.198-0.324-0.396-0.324-0.072 0-0.09 0-0.126 0.018l-2.322 0.108c-0.252 0.018-0.576 0.036-0.576 0.54 0 0.324 0.324 0.324 0.468 0.324 0.198 0 0.522 0 0.756 0.036l-2.592 10.386c-0.018 0.072-0.072 0.342-0.072 0.414 0 0.432 0.342 0.81 0.864 0.81 0.108 0 0.918 0 1.17-1.008l1.08-4.266c0.09-0.342 0.09-0.378 0.36-0.738 0.288-0.396 1.188-1.62 2.682-1.62 0.468 0 0.9 0.18 0.9 1.062 0 1.044-0.792 3.15-1.134 4.032-0.198 0.486-0.252 0.612-0.252 0.918 0 1.044 1.044 1.62 2.034 1.62 1.908 0 2.808-2.448 2.808-2.808 0-0.252-0.27-0.252-0.432-0.252-0.216 0-0.342 0-0.414 0.234-0.576 1.998-1.566 2.178-1.854 2.178-0.126 0-0.306 0-0.306-0.378 0-0.396 0.198-0.882 0.306-1.17 0.342-0.882 1.17-2.988 1.17-3.996 0-1.656-1.386-2.088-2.682-2.088-0.396 0-1.494 0-2.718 1.116z" color="#000000" color-rendering="auto" fill="#f00" image-rendering="auto" solid-color="#000000" style="isolation:auto;mix-blend-mode:normal"/><path d="m44.5473 310.755c0.192-0.18 0.696-0.576 0.888-0.744 0.744-0.684 1.452-1.344 1.452-2.436 0-1.428-1.2-2.35199-2.7-2.35199-1.44 0-2.388 1.09199-2.388 2.15999 0 0.588 0.468 0.672 0.636 0.672 0.252 0 0.624-0.18 0.624-0.636 0-0.62399-0.6-0.62399-0.744-0.62399 0.348-0.87601 1.152-1.176 1.74-1.176 1.116 0 1.692 0.948 1.692 1.95599 0 1.248-0.876 2.16-2.292 3.612l-1.512 1.56c-0.144 0.132-0.144 0.156-0.144 0.456h4.74l0.348-2.148h-0.372c-0.036 0.24-0.132 0.84-0.276 1.068-0.072 0.096-0.984 0.096-1.176 0.096h-2.136z" color="#000000" color-rendering="auto" fill="#f00" image-rendering="auto" solid-color="#000000" style="isolation:auto;mix-blend-mode:normal"/></g></g></svg>
