<?xml version="1.0" encoding="UTF-8"?>
<svg width="181.295" height="117.289" version="1.1" viewBox="0 0 181.29529 117.28809" xmlns="http://www.w3.org/2000/svg" xmlns:xlink="http://www.w3.org/1999/xlink">
 <defs>
  <symbol id="symbol4825">
   <path d="m46.295 74.516c-0.64559 0.17932-0.96837 0.78903-0.96837 1.23735 0 0.39453 0.30486 0.82491 0.89664 0.82491 0.62764 0 1.29115-0.52005 1.29115-1.39875 0-0.95045-0.95043-1.57809-2.04433-1.57809-1.02216 0-1.68567 0.77112-1.9188 1.0939-0.44832-0.75318-1.45256-1.0939-2.47472-1.0939-2.25952 0-3.47896 2.20573-3.47896 2.79751 0 0.25106 0.26899 0.25106 0.43039 0.25106 0.21519 0 0.34073 0 0.41246-0.23312 0.52005-1.63188 1.8112-2.16987 2.54644-2.16987 0.68145 0 1.00424 0.32279 1.00424 0.89664 0 0.34073-0.25106 1.32702-0.41246 1.97261l-0.6097 2.45677c-0.269 1.09391-0.91458 1.63188-1.52429 1.63188-0.0897 0-0.50212 0-0.86077-0.26898 0.64557-0.17932 0.96837-0.78904 0.96837-1.23736 0-0.39452-0.30486-0.82491-0.89664-0.82491-0.62765 0-1.29116 0.52005-1.29116 1.39876 0 0.95043 0.95043 1.57808 2.04434 1.57808 1.02216 0 1.68567-0.77111 1.9188-1.09389 0.44832 0.75316 1.45255 1.09389 2.47471 1.09389 2.25953 0 3.47895-2.20572 3.47895-2.7975 0-0.25107-0.26898-0.25107-0.43038-0.25107-0.21519 0-0.34072 0-0.41245 0.23313-0.52005 1.63188-1.81121 2.16985-2.54645 2.16985-0.68145 0-1.00423-0.32278-1.00423-0.89662 0-0.37659 0.23313-1.32704 0.39451-1.99055 0.12554-0.46624 0.53799-2.15193 0.62765-2.43885 0.26899-1.07596 0.89664-1.63188 1.52428-1.63188 0.0897 0 0.50213 0 0.86078 0.269z" stroke-width="1.5"/>
  </symbol>
  <symbol id="symbol4832">
   <path d="m157.695 49.967h-0.4268c-0.0377 0.27616-0.16318 1.01679-0.32638 1.14232-0.10041 0.0753-1.067 0.0753-1.24274 0.0753h-2.30973c1.31805-1.16742 1.7574-1.51891 2.51058-2.10889 0.92892-0.74063 1.79507-1.5189 1.79507-2.71143 0-1.5189-1.33061-2.44782-2.93738-2.44782-1.55656 0-2.61101 1.0921-2.61101 2.24697 0 0.6402 0.53977 0.70296 0.6653 0.70296 0.30128 0 0.66531-0.21339 0.66531-0.6653 0-0.22596-0.0879-0.66531-0.74062-0.66531 0.38914-0.89125 1.24273-1.16742 1.83273-1.16742 1.25529 0 1.90804 0.97913 1.90804 1.99592 0 1.0921-0.77829 1.95825-1.17997 2.41015l-3.02526 2.9876c-0.12553 0.11295-0.12553 0.13815-0.12553 0.48957h5.1718z" stroke-width="1.5"/>
  </symbol>
  <symbol id="symbol4841">
   <path d="m52.7053 76.413c0-0.33892-0.0251-0.35148-0.37659-0.35148-0.80339 0.79083-1.94571 0.80339-2.46038 0.80339v0.4519c0.30128 0 1.12976 0 1.82018-0.35148v6.40199c0 0.41425 0 0.57744-1.25529 0.57744h-0.47702v0.4519c0.22595-0.012 1.76996-0.0503 2.23442-0.0503 0.38914 0 1.97082 0.0377 2.24698 0.0503v-0.4519h-0.47701c-1.25529 0-1.25529-0.16319-1.25529-0.57744z" stroke-width="1.5"/>
  </symbol>
  <marker id="marker13102-9-1-6" overflow="visible" orient="auto">
   <path transform="matrix(-.4 0 0 -.4 -4 0)" d="m0 0 5-5-17.5 5 17.5 5z" fill="#f00" fill-rule="evenodd" stroke="#f00" stroke-width="1pt"/>
  </marker>
 </defs>
 <circle cx="133.425" cy="37.9999" r="36.5" color="#000000" color-rendering="auto" fill="#dcdcdc" image-rendering="auto" shape-rendering="auto" solid-color="#000000" stroke="#555" stroke-width="2" style="isolation:auto;mix-blend-mode:normal"/>
 <circle cx="51.5" cy="65.7888" r="50" color="#000000" color-rendering="auto" fill="#ffdcdc" image-rendering="auto" shape-rendering="auto" solid-color="#000000" stroke="#f00" stroke-linejoin="round" stroke-miterlimit="1e5" stroke-width="2" style="isolation:auto;mix-blend-mode:normal"/>
 <use transform="translate(87.3222 -18.8967)" width="100%" height="100%" xlink:href="#symbol4825"/>
 <use transform="translate(-15.5317 13.2482)" width="100%" height="100%" xlink:href="#symbol4832"/>
 <use transform="translate(5.599 22.3922)" width="100%" height="100%" xlink:href="#symbol4825"/>
 <use transform="translate(5.599 22.3922)" width="100%" height="100%" xlink:href="#symbol4841"/>
 <path d="m17.5533 47.8704c0.78426 2.00846 1.7024 4.93509 2.00846 5.37505 0.30605 0.42082 0.49733 0.42082 1.01379 0.42082h0.42084c0.19128-0.0191 0.2104-0.1339 0.2104-0.19128 0-0.0574-0.0382-0.0957-0.0957-0.17216-0.1913-0.21041-0.30607-0.49733-0.43996-0.8799l-3.90218-10.884c-0.40169-1.10944-1.43461-1.35811-2.33365-1.35811-0.0957 0-0.3443 0-0.3443 0.21042 0 0.15302 0.15296 0.19128 0.17216 0.19128 0.63123 0.11477 0.76512 0.22954 1.24333 1.53027l1.85544 5.20288-5.27939 5.24115c-0.22955 0.22954-0.34432 0.34431-0.34432 0.59298 0 0.32518 0.26781 0.55472 0.57386 0.55472 0.30604 0 0.4782-0.21042 0.63123-0.4017z" stroke-linejoin="round" stroke-miterlimit="1e5" stroke-width="1.33333"/>
 <path d="m26.3273 47.8084c0-0.36152-0.0267-0.37491-0.40169-0.37491-0.85695 0.84355-2.07542 0.85694-2.6244 0.85694v0.48203c0.32136 0 1.20507 0 1.94152-0.37491v6.82879c0 0.44187 0 0.61593-1.33898 0.61593h-0.50882v0.48203c0.24101-0.0134 1.88795-0.0536 2.38338-0.0536 0.41509 0 2.10221 0.0402 2.39678 0.0536v-0.48203h-0.50881c-1.33898 0-1.33898-0.17406-1.33898-0.61593z" stroke-linejoin="round" stroke-miterlimit="1e5" stroke-width="1.33333"/>
 <g fill="#f00" stroke-linejoin="round" stroke-miterlimit="1e5" stroke-width="1.33333">
  <path d="m45.3423 40.8115c0.0382-0.0574 0.0957-0.19128 0.0957-0.26779 0-0.13389-0.0192-0.15303-0.45908-0.15303h-13.1985c-0.43996 0-0.45908 0.0191-0.45908 0.15303 0 0.0765 0.0574 0.21041 0.0957 0.26779l6.44622 12.9116c0.13392 0.24867 0.19128 0.36344 0.51647 0.36344 0.32518 0 0.38256-0.11477 0.51646-0.36344zm-11.6491 0.95642h10.5014l-5.24115 10.5206z"/>
  <path d="m50.7893 47.8084c0-0.36152-0.0267-0.37491-0.40169-0.37491-0.85695 0.84355-2.07542 0.85694-2.6244 0.85694v0.48203c0.32136 0 1.20507 0 1.94152-0.37491v6.82879c0 0.44187 0 0.61593-1.33898 0.61593h-0.50882v0.48203c0.24101-0.0134 1.88795-0.0536 2.38338-0.0536 0.41509 0 2.10221 0.0402 2.39678 0.0536v-0.48203h-0.50881c-1.33898 0-1.33898-0.17406-1.33898-0.61593z"/>
  <path d="m69.4223 40.1612c0-0.0574-0.0382-0.19128-0.21041-0.19128-0.0574 0-0.0765 0.0191-0.28693 0.22953l-1.33898 1.47288c-0.17214-0.26781-1.05205-1.70242-3.1753-1.70242-4.2656 0-8.56946 4.22734-8.56946 8.6651 0 3.04139 2.12323 5.24114 5.22202 5.24114 0.84165 0 1.70242-0.17215 2.39104-0.45908 0.9564-0.38256 1.31984-0.78426 1.66414-1.16683 0.17216 0.47821 0.6695 1.18595 0.86078 1.18595 0.0957 0 0.13392-0.0574 0.13392-0.0765 0.0382-0.0383 0.22956-0.76513 0.32519-1.16682l0.36344-1.47288c0.0765-0.32518 0.17216-0.65035 0.24867-0.97553 0.2104-0.86079 0.22954-0.89904 1.31984-0.91816 0.0957 0 0.30606-0.0191 0.30606-0.38256 0-0.13391-0.0957-0.21042-0.24867-0.21042-0.43995 0-1.56851 0.0574-2.00846 0.0574-0.59297 0-2.08499-0.0574-2.67797-0.0574-0.17214 0-0.40169 0-0.40169 0.38256 0 0.21042 0.15312 0.21042 0.57385 0.21042 0.019 0 0.57384 0 1.01379 0.0383 0.49735 0.0574 0.59298 0.11477 0.59298 0.36344 0 0.17215-0.2104 1.03293-0.4017 1.74067-0.53558 2.10411-3.02226 2.31452-3.69174 2.31452-1.83632 0-3.84478-1.09031-3.84478-4.01693 0-0.59297 0.19128-3.74914 2.19974-6.23582 1.03293-1.30072 2.88837-2.46754 4.78208-2.46754 1.95107 0 3.07965 1.47286 3.07965 3.69174 0 0.76514-0.0574 0.78428-0.0574 0.97556s0.21042 0.19128 0.28693 0.19128c0.24867 0 0.24867-0.0383 0.3443-0.38256z"/>
 </g>
 <path d="m98.8632 49.7231-75.6432 25.6587" color="#000000" color-rendering="auto" fill="none" image-rendering="auto" marker-end="url(#marker13102-9-1-6)" shape-rendering="auto" solid-color="#000000" stroke="#f00" stroke-linejoin="round" stroke-miterlimit="1e5" stroke-width="3" style="isolation:auto;mix-blend-mode:normal"/>
</svg>
