<?xml version="1.0" encoding="UTF-8"?>
<svg width="171.414" height="109.695" version="1.1" viewBox="0 0 171.41422 109.69493" xmlns="http://www.w3.org/2000/svg" xmlns:xlink="http://www.w3.org/1999/xlink">
 <defs>
  <marker id="DotMv" overflow="visible" orient="auto">
   <path transform="matrix(.4 0 0 .4 2.96 .4)" d="m-2.5-1c0 2.76-2.24 5-5 5s-5-2.24-5-5 2.24-5 5-5 5 2.24 5 5z" fill="#f00" fill-rule="evenodd" stroke="#f00" stroke-width="1pt"/>
  </marker>
  <marker id="DotMy" overflow="visible" orient="auto">
   <path transform="matrix(.4 0 0 .4 2.96 .4)" d="m-2.5-1c0 2.76-2.24 5-5 5s-5-2.24-5-5 2.24-5 5-5 5 2.24 5 5z" fill="#f00" fill-rule="evenodd" stroke="#f00" stroke-width="1pt"/>
  </marker>
  <symbol id="symbol4876">
   <path d="m156.714 99.43c0-0.345 0-0.36-0.3-0.36-0.36 0.405-1.11 0.96-2.655 0.96v0.435c0.345 0 1.095 0 1.92-0.39v7.815c0 0.54-0.045 0.72-1.365 0.72h-0.465v0.435c0.405-0.03 1.86-0.03 2.355-0.03s1.935 0 2.34 0.03v-0.435h-0.465c-1.32 0-1.365-0.18-1.365-0.72z" stroke-width="1.25"/>
  </symbol>
  <symbol id="symbol4883">
   <path d="m168.574 88.422c0.192-0.18 0.696-0.57599 0.888-0.74399 0.744-0.68401 1.452-1.34401 1.452-2.43601 0-1.428-1.2-2.35199-2.7-2.35199-1.44 0-2.388 1.09199-2.388 2.15999 0 0.58801 0.468 0.67201 0.636 0.67201 0.252 0 0.624-0.18001 0.624-0.63601 0-0.62399-0.6-0.62399-0.744-0.62399 0.348-0.87601 1.152-1.17601 1.74-1.17601 1.116 0 1.692 0.94801 1.692 1.956 0 1.248-0.876 2.16001-2.292 3.61201l-1.512 1.56c-0.144 0.132-0.144 0.156-0.144 0.456h4.74l0.348-2.148h-0.372c-0.036 0.24-0.132 0.84-0.276 1.06799-0.072 0.096-0.984 0.096-1.176 0.096h-2.136z" stroke-width="1.5"/>
  </symbol>
  <symbol id="symbol4892">
   <path d="m44.1501 79.143c0-1.245-0.075-2.46-0.615-3.6-0.615-1.245-1.695-1.575-2.43-1.575-0.87 0-1.935 0.435-2.49 1.68-0.42 0.945-0.57 1.875-0.57 3.495 0 1.455 0.105 2.55 0.645 3.615 0.585 1.14 1.62 1.5 2.4 1.5 1.305 0 2.055-0.78 2.49-1.65 0.54-1.125 0.57-2.595 0.57-3.465zm-3.06 4.815c-0.48 0-1.455-0.27-1.74-1.905-0.165-0.9-0.165-2.04-0.165-3.09 0-1.23 0-2.34 0.24-3.225 0.255-1.005 1.02-1.47 1.665-1.47 0.57 0 1.44 0.345 1.725 1.635 0.195 0.855 0.195 2.04 0.195 3.06 0 1.005 0 2.145-0.165 3.06-0.285 1.65-1.23 1.935-1.755 1.935z" stroke-width="1.25"/>
  </symbol>
  <symbol id="symbol4903">
   <path d="m17.0663 76.398c0-1.53-0.48-3.015-1.71-3.015-2.1 0-4.335 4.395-4.335 7.695 0 0.69 0.15 3.015 1.725 3.015 2.04 0 4.32-4.29 4.32-7.695zm-4.545 2.115c0.225-0.885 0.54-2.145 1.14-3.21 0.495-0.9 1.02-1.62 1.68-1.62 0.495 0 0.825 0.42 0.825 1.86 0 0.54-0.045 1.29-0.48 2.97zm3.06 0.45c-0.375 1.47-0.69 2.415-1.23 3.36-0.435 0.765-0.96 1.47-1.59 1.47-0.465 0-0.84-0.36-0.84-1.845 0-0.975 0.24-1.995 0.48-2.985z" stroke-width="1.25"/>
   <path d="m31.9651 79.083c0.21 0 0.48 0 0.48-0.27 0-0.285-0.255-0.285-0.48-0.285h-8.835c-0.21 0-0.48 0-0.48 0.27 0 0.285 0.255 0.285 0.48 0.285zm0 2.79c0.21 0 0.48 0 0.48-0.27 0-0.285-0.255-0.285-0.48-0.285h-8.835c-0.21 0-0.48 0-0.48 0.27 0 0.285 0.255 0.285 0.48 0.285z" stroke-width="1.25"/>
  </symbol>
  <symbol id="symbol4918">
   <path d="m1.706 65.533c-0.072 0.252-0.09 0.27-0.108 0.288-0.108 0.036-0.306 0.036-0.468 0.036-0.306 0-0.63 0-0.63 0.504 0 0.198 0.144 0.342 0.342 0.342 0.522 0 1.116-0.054 1.656-0.054 0.63 0 1.314 0.054 1.926 0.054 0.126 0 0.468 0 0.468-0.522 0-0.306-0.288-0.324-0.468-0.324-0.252 0-0.54 0-0.774-0.018l0.774-3.132c0.27 0.252 0.864 0.648 1.818 0.648 3.132 0 5.076-2.844 5.076-5.31 0-2.214-1.656-2.97-3.15-2.97-1.278 0-2.214 0.702-2.502 0.972-0.684-0.972-1.872-0.972-2.07-0.972-0.666 0-1.188 0.378-1.566 1.026-0.45 0.72-0.684 1.692-0.684 1.782 0 0.252 0.27 0.252 0.432 0.252 0.198 0 0.27 0 0.36-0.09 0.036-0.036 0.036-0.072 0.144-0.522 0.36-1.44 0.774-1.8 1.224-1.8 0.198 0 0.414 0.072 0.414 0.666 0 0.27-0.036 0.522-0.108 0.774zm4.14-8.64c0.522-0.612 1.368-1.17 2.232-1.17 1.116 0 1.206 0.972 1.206 1.368 0 0.936-0.612 3.15-0.9 3.852-0.558 1.314-1.44 1.764-2.178 1.764-1.062 0-1.494-0.846-1.494-1.044l0.036-0.252z" stroke-width="1.5"/>
  </symbol>
  <symbol id="symbol4934">
   <path d="m15.509 1.13c0.072-0.252 0.072-0.288 0.072-0.306 0-0.234-0.198-0.324-0.396-0.324-0.072 0-0.09 0-0.126 0.018l-2.322 0.108c-0.252 0.018-0.576 0.036-0.576 0.54 0 0.324 0.324 0.324 0.468 0.324 0.198 0 0.522 0 0.756 0.036l-2.592 10.386c-0.018 0.072-0.072 0.342-0.072 0.414 0 0.432 0.342 0.81 0.864 0.81 0.108 0 0.918 0 1.17-1.008l1.08-4.266c0.09-0.342 0.09-0.378 0.36-0.738 0.288-0.396 1.188-1.62 2.682-1.62 0.468 0 0.9 0.18 0.9 1.062 0 1.044-0.792 3.15-1.134 4.032-0.198 0.486-0.252 0.612-0.252 0.918 0 1.044 1.044 1.62 2.034 1.62 1.908 0 2.808-2.448 2.808-2.808 0-0.252-0.27-0.252-0.432-0.252-0.216 0-0.342 0-0.414 0.234-0.576 1.998-1.566 2.178-1.854 2.178-0.126 0-0.306 0-0.306-0.378 0-0.396 0.198-0.882 0.306-1.17 0.342-0.882 1.17-2.988 1.17-3.996 0-1.656-1.386-2.088-2.682-2.088-0.396 0-1.494 0-2.718 1.116z" stroke-width="1.5"/>
  </symbol>
  <symbol id="symbol4952">
   <path d="m15.3545 60.018c0-0.324-0.024-0.336-0.348-0.336-0.492 0.48-1.128 0.768-2.268 0.768v0.396c0.324 0 0.972 0 1.668-0.324v6.156c0 0.444-0.036 0.588-1.176 0.588h-0.42v0.396c0.492-0.036 1.524-0.036 2.064-0.036s1.584 0 2.076 0.036v-0.396h-0.42c-1.14 0-1.176-0.144-1.176-0.588z" stroke-width="1.5"/>
  </symbol>
 </defs>
 <use transform="translate(-10.502 -53.909)" width="100%" height="100%" xlink:href="#symbol4883"/>
 <use transform="translate(114.964 25.102)" width="100%" height="100%" xlink:href="#symbol4903"/>
 <use transform="translate(153.604 23.209)" width="100%" height="100%" xlink:href="#symbol4918"/>
 <use transform="translate(132.85 19.519)" width="100%" height="100%" xlink:href="#symbol4934"/>
 <use transform="translate(10.251,-50.22)" width="100%" height="100%" xlink:href="#symbol4952"/>
 <g fill="none" stroke="#f00">
  <path d="m146.101 88.999c-13.4168-59.1324-110.052-78.4854-123.092-25.6879" color="#000000" stroke-width="1.5"/>
  <path d="m132.684 29.867 13.4168 59.1324" color="#000000" color-rendering="auto" image-rendering="auto" marker-end="url(#DotMy)" marker-start="url(#DotMv)" shape-rendering="auto" solid-color="#000000" stroke-dasharray="1.99999988, 0.99999994" style="isolation:auto;mix-blend-mode:normal"/>
  <path d="m36.0493 10.514-13.0409 52.7975" color="#000000" color-rendering="auto" image-rendering="auto" marker-end="url(#DotMy)" marker-start="url(#DotMv)" shape-rendering="auto" solid-color="#000000" stroke-dasharray="1.99999988, 0.99999994" style="isolation:auto;mix-blend-mode:normal"/>
 </g>
 <use xlink:href="#symbol4876"/>
 <use width="100%" height="100%" xlink:href="#symbol4883"/>
 <use xlink:href="#symbol4892"/>
 <use width="100%" height="100%" xlink:href="#symbol4903"/>
 <use width="100%" height="100%" xlink:href="#symbol4918"/>
 <use width="100%" height="100%" xlink:href="#symbol4934"/>
 <use width="100%" height="100%" xlink:href="#symbol4952"/>
</svg>
