<?xml version="1.0" encoding="UTF-8"?>
<svg width="194.233" height="144.425" version="1.1" viewBox="0 0 194.23303 144.42506" xmlns="http://www.w3.org/2000/svg">
 <defs>
  <marker id="Arrow1Lend" overflow="visible" orient="auto">
   <path transform="matrix(-.8 0 0 -.8 -10 0)" d="m0 0 5-5-17.5 5 17.5 5z" fill-rule="evenodd" stroke="#000" stroke-width="1pt"/>
  </marker>
 </defs>
 <path d="m18.2844 101.859v-99.4171" color="#000000" fill="none" marker="none" marker-end="url(#Arrow1Lend)" stroke="#000" stroke-linecap="round" stroke-miterlimit="1e5" stroke-width="1px" style="font-variant-east_asian:normal"/>
 <g stroke-linejoin="round" stroke-miterlimit="1e5" stroke-width="1.5">
  <path d="m58.0163 128.162c-0.576 0.108-0.792 0.54-0.792 0.882 0 0.432 0.342 0.576 0.594 0.576 0.54 0 0.918-0.468 0.918-0.954 0-0.756-0.864-1.098-1.62-1.098-1.098 0-1.71 1.08-1.872 1.422-0.414-1.35-1.53-1.422-1.854-1.422-1.836 0-2.808 2.358-2.808 2.754 0 0.072 0.072 0.162 0.198 0.162 0.144 0 0.18-0.108 0.216-0.18 0.612-1.998 1.818-2.376 2.34-2.376 0.81 0 0.972 0.756 0.972 1.188 0 0.396-0.108 0.81-0.324 1.674l-0.612 2.466c-0.27 1.08-0.792 2.07-1.746 2.07-0.09 0-0.54 0-0.918-0.234 0.648-0.126 0.792-0.666 0.792-0.882 0-0.36-0.27-0.576-0.612-0.576-0.432 0-0.9 0.378-0.9 0.954 0 0.756 0.846 1.098 1.62 1.098 0.864 0 1.476-0.684 1.854-1.422 0.288 1.062 1.188 1.422 1.854 1.422 1.836 0 2.808-2.358 2.808-2.754 0-0.09-0.072-0.162-0.18-0.162-0.162 0-0.18 0.09-0.234 0.234-0.486 1.584-1.53 2.322-2.34 2.322-0.63 0-0.972-0.468-0.972-1.206 0-0.396 0.072-0.684 0.36-1.872l0.63-2.448c0.27-1.08 0.882-1.872 1.71-1.872 0.036 0 0.54 0 0.918 0.234z"/>
  <path d="m94.219 87.507c-0.486 0.684-1.188 1.296-2.07 1.296-0.216 0-1.08-0.036-1.35-0.864 0.054 0.018 0.144 0.018 0.18 0.018 0.54 0 0.9-0.468 0.9-0.882s-0.342-0.558-0.612-0.558c-0.288 0-0.918 0.216-0.918 1.098 0 0.918 0.774 1.548 1.8 1.548 1.8 0 3.618-1.656 4.122-3.654l1.764-7.02c0.018-0.09 0.054-0.198 0.054-0.306 0-0.27-0.216-0.45-0.486-0.45-0.162 0-0.54 0.072-0.684 0.612l-1.332 5.292c-0.09 0.324-0.09 0.36-0.234 0.558-0.36 0.504-0.954 1.116-1.818 1.116-1.008 0-1.098-0.99-1.098-1.476 0-1.026 0.486-2.412 0.972-3.708 0.198-0.522 0.306-0.774 0.306-1.134 0-0.756-0.54-1.44-1.422-1.44-1.656 0-2.322 2.61-2.322 2.754 0 0.072 0.072 0.162 0.198 0.162 0.162 0 0.18-0.072 0.252-0.324 0.432-1.512 1.116-2.232 1.818-2.232 0.162 0 0.468 0 0.468 0.594 0 0.468-0.198 0.99-0.468 1.674-0.882 2.358-0.882 2.952-0.882 3.384 0 1.71 1.224 2.106 2.124 2.106 0.522 0 1.17-0.162 1.8-0.828l0.018 0.018c-0.27 1.062-0.45 1.764-1.08 2.646z"/>
  <path d="m5.0222 42.952c0.774-0.882 1.404-1.44 2.304-2.25 1.08-0.936 1.548-1.386 1.8-1.656 1.26-1.242 1.89-2.286 1.89-2.43s-0.144-0.144-0.18-0.144c-0.126 0-0.162 0.072-0.252 0.198-0.45 0.774-0.882 1.152-1.35 1.152-0.378 0-0.576-0.162-0.918-0.594-0.378-0.45-0.684-0.756-1.206-0.756-1.314 0-2.106 1.638-2.106 2.016 0 0.054 0.018 0.162 0.18 0.162 0.144 0 0.162-0.072 0.216-0.198 0.306-0.72 1.17-0.846 1.512-0.846 0.378 0 0.738 0.126 1.116 0.288 0.684 0.288 0.972 0.288 1.152 0.288 0.126 0 0.198 0 0.288-0.018-0.594 0.702-1.566 1.566-2.376 2.304l-1.818 1.674c-1.098 1.116-1.764 2.178-1.764 2.304 0 0.108 0.09 0.144 0.198 0.144s0.126-0.018 0.252-0.234c0.288-0.45 0.864-1.116 1.53-1.116 0.378 0 0.558 0.126 0.918 0.576 0.342 0.396 0.648 0.774 1.224 0.774 1.764 0 2.772-2.286 2.772-2.7 0-0.072-0.018-0.18-0.198-0.18-0.144 0-0.162 0.072-0.216 0.252-0.396 1.062-1.458 1.494-2.16 1.494-0.378 0-0.738-0.126-1.116-0.288-0.72-0.288-0.918-0.288-1.152-0.288-0.18 0-0.378 0-0.54 0.072z"/>
  <path d="m157.975 40.809c-0.648 0.18-0.972 0.792-0.972 1.242 0 0.396 0.306 0.828 0.9 0.828 0.63 0 1.296-0.522 1.296-1.404 0-0.954-0.954-1.584-2.052-1.584-1.026 0-1.692 0.774-1.926 1.098-0.45-0.756-1.458-1.098-2.484-1.098-2.268 0-3.492 2.214-3.492 2.808 0 0.252 0.27 0.252 0.432 0.252 0.216 0 0.342 0 0.414-0.234 0.522-1.638 1.818-2.178 2.556-2.178 0.684 0 1.008 0.324 1.008 0.9 0 0.342-0.252 1.332-0.414 1.98l-0.612 2.466c-0.27 1.098-0.918 1.638-1.53 1.638-0.09 0-0.504 0-0.864-0.27 0.648-0.18 0.972-0.792 0.972-1.242 0-0.396-0.306-0.828-0.9-0.828-0.63 0-1.296 0.522-1.296 1.404 0 0.954 0.954 1.584 2.052 1.584 1.026 0 1.692-0.774 1.926-1.098 0.45 0.756 1.458 1.098 2.484 1.098 2.268 0 3.492-2.214 3.492-2.808 0-0.252-0.27-0.252-0.432-0.252-0.216 0-0.342 0-0.414 0.234-0.522 1.638-1.818 2.178-2.556 2.178-0.684 0-1.008-0.324-1.008-0.9 0-0.378 0.234-1.332 0.396-1.998 0.126-0.468 0.54-2.16 0.63-2.448 0.27-1.08 0.9-1.638 1.53-1.638 0.09 0 0.504 0 0.864 0.27z"/>
  <path d="m14.216 104.99c0-3.06-2.124-4.644-5.238-4.644-5.562 0-8.478 4.77-8.478 8.37 0 3.15 2.25 4.59 5.256 4.59 5.526 0 8.46-4.608 8.46-8.316zm-8.28 7.56c-0.594 0-1.422-0.126-2.106-0.828-0.792-0.792-0.792-1.998-0.792-2.412 0-1.134 0.54-4.5 2.016-6.354 1.206-1.476 2.7-1.89 3.744-1.89 1.494 0 2.97 0.81 2.97 3.096 0 1.17-0.648 4.32-1.818 6.012-1.35 1.98-2.988 2.376-4.014 2.376z"/>
 </g>
 <g fill="none" shape-rendering="auto" stroke="#000">
  <path d="m18.3092 101.61 86.7459-8.52229 86.7459-8.52228" color="#000000" color-rendering="auto" image-rendering="auto" marker-end="url(#Arrow1Lend)" solid-color="#000000" stroke-linecap="round" stroke-miterlimit="1e5" stroke-width="1px" style="isolation:auto;mix-blend-mode:normal"/>
  <path d="m61.3974 122.473-43.113-20.6146" color="#000000" color-rendering="auto" image-rendering="auto" solid-color="#000000" stroke-dasharray="4, 4" stroke-width=".5" style="isolation:auto;mix-blend-mode:normal"/>
  <path d="m18.2844 101.859 43.113 20.6146 43.113 20.6146" color="#000000" color-rendering="auto" image-rendering="auto" marker-end="url(#Arrow1Lend)" solid-color="#000000" stroke-linecap="round" stroke-miterlimit="1e5" stroke-width="1px" style="isolation:auto;mix-blend-mode:normal"/>
  <path d="m61.3974 62.925-43.113-20.6146m0-4e-4 86.7583-8.64667m43.113 20.6147-2e-5 59.5487m-86.7583-50.9017 86.7583-8.64667m-86.7583 68.1947 1e-5 -59.5487m86.7583 50.9027-86.7583 8.64667m43.6453-88.8107 43.113 20.6146m-43.113 38.9344v-59.5487m43.113 80.1637-43.113-20.6146" color="#000000" color-rendering="auto" image-rendering="auto" solid-color="#000000" stroke-dasharray="4.00000001, 4.00000000999999990" stroke-linecap="round" stroke-miterlimit="100" stroke-width=".5" style="isolation:auto;mix-blend-mode:normal"/>
 </g>
 <circle cx="148.406" cy="53.5557" r="2.5" color="#000000" stroke-width=".825701"/>
</svg>
