<?xml version="1.0" encoding="UTF-8"?>
<svg width="180.647" height="126.446" version="1.1" viewBox="0 0 180.64738 126.44569" xmlns="http://www.w3.org/2000/svg">
 <defs>
  <marker id="marker5071" overflow="visible" orient="auto">
   <path transform="matrix(-.8 0 0 -.8 -10 0)" d="m0 0 5-5-17.5 5 17.5 5z" fill="#00f" fill-rule="evenodd" stroke="#00f" stroke-width="1pt"/>
  </marker>
  <marker id="marker2839" overflow="visible" orient="auto">
   <path transform="matrix(-.4 0 0 -.4 -4 0)" d="m0 0 5-5-17.5 5 17.5 5z" fill="#008000" fill-rule="evenodd" stroke="#008000" stroke-width="1pt"/>
  </marker>
  <marker id="marker3937" overflow="visible" orient="auto">
   <path transform="matrix(-.4 0 0 -.4 -4 0)" d="m0 0 5-5-17.5 5 17.5 5z" fill="#008000" fill-rule="evenodd" stroke="#008000" stroke-width="1pt"/>
  </marker>
  <marker id="marker11509-3" overflow="visible" orient="auto">
   <path transform="matrix(-.4 0 0 -.4 -4 0)" d="m0 0 5-5-17.5 5 17.5 5z" fill="#f00" fill-rule="evenodd" stroke="#f00" stroke-width="1pt"/>
  </marker>
  <marker id="marker13589" overflow="visible" orient="auto">
   <path transform="matrix(-.4 0 0 -.4 -4 0)" d="m0 0 5-5-17.5 5 17.5 5z" fill="#f00" fill-rule="evenodd" stroke="#f00" stroke-width="1pt"/>
  </marker>
  <marker id="marker2234" overflow="visible" orient="auto">
   <path transform="matrix(-.4 0 0 -.4 -4 0)" d="m0 0 5-5-17.5 5 17.5 5z" fill-rule="evenodd" stroke="#000" stroke-width="1pt"/>
  </marker>
  <marker id="marker2228" overflow="visible" orient="auto">
   <path transform="matrix(-.4 0 0 -.4 -4 0)" d="m0 0 5-5-17.5 5 17.5 5z" fill-rule="evenodd" stroke="#000" stroke-width="1pt"/>
  </marker>
  <marker id="marker3276" overflow="visible" orient="auto">
   <path transform="matrix(-.4 0 0 -.4 -4 0)" d="m0 0 5-5-17.5 5 17.5 5z" fill="#008000" fill-rule="evenodd" stroke="#008000" stroke-width="1pt"/>
  </marker>
 </defs>
 <g fill="none" shape-rendering="auto" stroke-linejoin="round">
  <path d="m86.1648 117.741c-3.22358-4.9501-8.0145-8.3928-13.4325-10.4292" color="#000000" color-rendering="auto" image-rendering="auto" marker-end="url(#marker7268)" solid-color="#000000" stroke="#000" stroke-dasharray="1.00000001, 2.00000002" stroke-width=".5" style="isolation:auto;mix-blend-mode:normal"/>
  <path d="m92.0363 70.295c-3.84701-5.0132-9.20406-8.3217-15.1058-10.2596" color="#000000" color-rendering="auto" image-rendering="auto" solid-color="#000000" stroke="#000" stroke-width=".3" style="isolation:auto;mix-blend-mode:normal"/>
  <path d="m108.42 19.01c-4.36031-1.2202-8.76423-2.2585-13.1813-3.1247-23.0852-4.4886-47.0651-4.3089-70.084 0.5048" color="#000000" color-rendering="auto" image-rendering="auto" solid-color="#000000" stroke="#bbb" stroke-width=".5" style="isolation:auto;mix-blend-mode:normal"/>
  <path d="m25.1542 16.39 21.2417 34.206m12.7624 20.5517 4.16819 6.71214" color="#000000" color-rendering="auto" image-rendering="auto" solid-color="#000000" stroke="#bbb" stroke-width=".5" style="isolation:auto;mix-blend-mode:normal"/>
  <path d="m63.3266 77.86c14.6894-3.8995 29.3787-7.7996 44.0681-11.6992" color="#000000" color-rendering="auto" image-rendering="auto" solid-color="#000000" stroke="#000" stroke-width=".3" style="isolation:auto;mix-blend-mode:normal"/>
  <path d="m107.395 66.155c19.3279-5.1315 38.6559-10.2623 57.9837-15.3939" color="#000000" color-rendering="auto" image-rendering="auto" solid-color="#000000" stroke="#000" stroke-width=".3" style="isolation:auto;mix-blend-mode:normal"/>
  <g stroke-width=".5">
   <path d="m165.378 50.761c-15.6328-15.6095-35.7815-25.8245-56.9589-31.7506" color="#000000" color-rendering="auto" image-rendering="auto" marker-end="url(#marker5071)" solid-color="#000000" stroke="#00f" style="isolation:auto;mix-blend-mode:normal"/>
   <path d="m27.6916 61.975c-0.8457-15.1968-1.69227-30.3936-2.53737-45.5905" color="#000000" color-rendering="auto" image-rendering="auto" solid-color="#000000" stroke="#bbb" style="isolation:auto;mix-blend-mode:normal"/>
   <path d="m63.3266 77.855c-0.38404 15.7909-0.76771 31.5819-1.1515 47.3728" color="#000000" color-rendering="auto" image-rendering="auto" solid-color="#000000" stroke="#000" style="isolation:auto;mix-blend-mode:normal"/>
  </g>
  <path d="m62.1748 125.228c-11.4944-21.0843-22.989-42.1685-34.4831-63.2529" color="#000000" color-rendering="auto" image-rendering="auto" marker-end="url(#marker2839)" solid-color="#000000" stroke="#008000" stroke-linecap="round" stroke-width="1.5" style="isolation:auto;mix-blend-mode:normal"/>
  <path d="m62.1748 125.228c30.5885-9.1944 61.1772-18.388 91.7656-27.5828" color="#000000" color-rendering="auto" image-rendering="auto" marker-end="url(#marker3937)" solid-color="#000000" stroke="#008000" stroke-linecap="round" stroke-width="1.5" style="isolation:auto;mix-blend-mode:normal"/>
  <path d="m153.94 97.645c3.81263-15.628 7.62553-31.2559 11.438-46.8839" color="#000000" color-rendering="auto" image-rendering="auto" solid-color="#000000" stroke="#000" stroke-width=".5" style="isolation:auto;mix-blend-mode:normal"/>
  <path d="m108.413 18.972c-15.0287 19.6273-30.0573 39.2546-45.0861 58.8817" color="#000000" color-rendering="auto" image-rendering="auto" solid-color="#000000" stroke="#000" stroke-width=".3" style="isolation:auto;mix-blend-mode:normal"/>
  <path d="m103.228 64.707c-5.95506-1.9324-12.0436-3.4341-18.1687-4.511-5.27132-0.94055-10.5963-1.57118-15.9399-1.8942m-32.0318 1.73903c-3.15286 0.53711-6.28735 1.18233-9.396 1.93517" color="#000000" color-rendering="auto" image-rendering="auto" marker-end="url(#marker7268)" solid-color="#000000" stroke="#bbb" stroke-dasharray="1.00000001, 2.00000002" stroke-width=".5" style="isolation:auto;mix-blend-mode:normal"/>
  <g stroke="#000" stroke-dasharray="1.00000001, 2.00000002" stroke-width=".5">
   <path d="m153.94 97.645c-13.2286-15.7151-31.2585-26.625-50.7124-32.938" color="#000000" color-rendering="auto" image-rendering="auto" marker-end="url(#marker7268)" solid-color="#000000" style="isolation:auto;mix-blend-mode:normal"/>
   <path d="m103.256 64.687c1.71899-15.2382 3.43752-30.4765 5.15626-45.7148" color="#000000" color-rendering="auto" image-rendering="auto" marker-end="url(#marker7268)" solid-color="#000000" style="isolation:auto;mix-blend-mode:normal"/>
   <path d="m103.256 64.687c-13.6938 20.1802-27.3879 40.3602-41.0817 60.5405" color="#000000" color-rendering="auto" image-rendering="auto" marker-end="url(#marker7268)" solid-color="#000000" style="isolation:auto;mix-blend-mode:normal"/>
  </g>
  <path d="m62.1748 125.228 103.204-74.4667" color="#000000" color-rendering="auto" image-rendering="auto" marker-end="url(#marker11509-3)" solid-color="#000000" stroke="#f00" stroke-width="1.5" style="isolation:auto;mix-blend-mode:normal"/>
  <path d="m62.1748 125.228 103.204-74.4667" color="#000000" color-rendering="auto" image-rendering="auto" marker-end="url(#marker13589)" solid-color="#000000" stroke="#f00" stroke-linecap="round" stroke-width="1.5" style="isolation:auto;mix-blend-mode:normal"/>
  <path d="m62.1748 125.228 1.28899-52.9939m0.431855-17.7547 0.929928-38.2318" color="#000000" color-rendering="auto" image-rendering="auto" marker-end="url(#marker2228)" solid-color="#000000" stroke="#000" style="isolation:auto;mix-blend-mode:normal"/>
  <path d="m62.1748 125.228 1.15722-47.5766" color="#000000" color-rendering="auto" image-rendering="auto" marker-end="url(#marker3276)" solid-color="#000000" stroke="#008000" stroke-linecap="round" stroke-width="1.5" style="isolation:auto;mix-blend-mode:normal"/>
 </g>
 <path d="m148.033 18.417c0-1.05207-0.28692-3.26775-1.91283-3.26775-2.21569 0-4.67048 4.49514-4.67048 8.14546 0 1.49837 0.46227 3.26774 1.91283 3.26774 2.24757 0 4.67048-4.57485 4.67048-8.14545zm-4.89365 2.1838c0.27098-1.02017 0.5898-2.29539 1.2274-3.42715 0.43038-0.78106 1.02017-1.67372 1.73749-1.67372 0.78107 0 0.87671 1.02018 0.87671 1.92878 0 0.78106-0.12752 1.59401-0.51008 3.17209zm3.18805 0.51009c-0.17535 0.73326-0.51009 2.08818-1.11581 3.23587-0.55791 1.08393-1.16364 1.865-1.84907 1.865-0.52603 0-0.86077-0.46227-0.86077-1.94471 0-0.66948 0.0956-1.59401 0.51008-3.15616z" fill="#00f" stroke-width="1.33333"/>
 <g stroke-width="1.25">
  <path d="m107.119 1.6c0.0956-0.38257 0.14345-0.54197 0.44632-0.58978 0.14347-0.016 0.65355-0.016 0.97236-0.016 1.13175 0 2.90112 0 2.90112 1.57808 0 0.54197-0.25504 1.64184-0.87672 2.26352-0.41444 0.41444-1.25927 0.92453-2.69389 0.92453h-1.78531zm2.29539 4.36762c1.60996-0.35068 3.50685-1.4665 3.50685-3.07646 0-1.37086-1.43463-2.39104-3.52279-2.39104h-4.54297c-0.3188 0-0.46227 0-0.46227 0.3188 0 0.17535 0.14347 0.17535 0.44634 0.17535 0.0319 0 0.33474 0 0.60573 0.0319 0.28692 0.0319 0.43037 0.0479 0.43037 0.25504 0 0.0637-0.0159 0.1116-0.0638 0.30286l-2.13599 8.55991c-0.1594 0.62167-0.19128 0.74919-1.45056 0.74919-0.28692 0-0.43038 0-0.43038 0.3188 0 0.17534 0.19128 0.17534 0.22316 0.17534 0.44633 0 1.56214-0.0479 2.00848-0.0479s1.57808 0.0479 2.0244 0.0479c0.12752 0 0.31881 0 0.31881-0.3188 0-0.17534-0.14346-0.17534-0.44633-0.17534-0.58979 0-1.03612 0-1.03612-0.28692 0-0.0956 0.0319-0.17535 0.0478-0.27099l1.05205-4.22416h1.89689c1.45056 0 1.73748 0.89265 1.73748 1.45056 0 0.23911-0.12752 0.73325-0.22316 1.09988-0.11159 0.44632-0.25505 1.03611-0.25505 1.35492 0 1.72153 1.91283 1.72153 2.12005 1.72153 1.35492 0 1.91283-1.60996 1.91283-1.83312 0-0.19128-0.17534-0.19128-0.19128-0.19128-0.14347 0-0.17535 0.1116-0.20723 0.22316-0.39851 1.17958-1.08393 1.45056-1.45056 1.45056-0.52603 0-0.6376-0.35068-0.6376-0.97236 0-0.49414 0.0956-1.30709 0.1594-1.81717 0.0319-0.22317 0.0638-0.52603 0.0638-0.7492 0-1.2274-1.068-1.72155-1.49839-1.88095z"/>
  <path d="m121.867 4.995c-0.57385 0.1594-0.86077 0.70136-0.86077 1.09987 0 0.35069 0.27099 0.73325 0.79701 0.73325 0.55791 0 1.1477-0.46227 1.1477-1.24333 0-0.84484-0.84483-1.40275-1.81719-1.40275-0.90858 0-1.49837 0.68544-1.7056 0.97236-0.3985-0.66949-1.29116-0.97236-2.19974-0.97236-2.00847 0-3.09241 1.96065-3.09241 2.48668 0 0.22316 0.2391 0.22316 0.38256 0.22316 0.19129 0 0.30287 0 0.36663-0.20721 0.46227-1.45056 1.60996-1.92878 2.26351-1.92878 0.60573 0 0.89265 0.28692 0.89265 0.79702 0 0.30286-0.22316 1.17957-0.36662 1.75342l-0.54196 2.1838c-0.23911 0.97236-0.81296 1.45056-1.35492 1.45056-0.0797 0-0.44633 0-0.76513-0.23909 0.57384-0.1594 0.86077-0.70137 0.86077-1.09988 0-0.35068-0.27098-0.73325-0.79701-0.73325-0.55791 0-1.1477 0.46226-1.1477 1.24334 0 0.84483 0.84483 1.40274 1.81719 1.40274 0.90858 0 1.49837-0.68543 1.7056-0.97235 0.3985 0.66948 1.29116 0.97235 2.19974 0.97235 2.00847 0 3.0924-1.96064 3.0924-2.48667 0-0.22317-0.23909-0.22317-0.38256-0.22317-0.19128 0-0.30287 0-0.36663 0.20722-0.46226 1.45056-1.60995 1.92876-2.2635 1.92876-0.60573 0-0.89265-0.28692-0.89265-0.797 0-0.33474 0.20722-1.17958 0.35068-1.76937 0.11158-0.41444 0.47821-1.91283 0.5579-2.16787 0.23911-0.95641 0.79702-1.45056 1.35492-1.45056 0.0797 0 0.44633 0 0.76513 0.23911z"/>
  <path d="m179.063 46.546c-0.57385 0.1594-0.86077 0.70136-0.86077 1.09987 0 0.35069 0.27099 0.73325 0.79701 0.73325 0.55791 0 1.1477-0.46227 1.1477-1.24333 0-0.84484-0.84483-1.40275-1.81719-1.40275-0.90859 0-1.49837 0.68544-1.7056 0.97236-0.39851-0.66949-1.29116-0.97236-2.19975-0.97236-2.00846 0-3.0924 1.96065-3.0924 2.48668 0 0.22316 0.2391 0.22316 0.38256 0.22316 0.19128 0 0.30287 0 0.36663-0.20721 0.46227-1.45056 1.60996-1.92878 2.26351-1.92878 0.60573 0 0.89265 0.28692 0.89265 0.79702 0 0.30286-0.22316 1.17957-0.36663 1.75342l-0.54196 2.1838c-0.2391 0.97236-0.81296 1.45056-1.35492 1.45056-0.0797 0-0.44633 0-0.76513-0.23909 0.57384-0.1594 0.86077-0.70137 0.86077-1.09988 0-0.35068-0.27098-0.73325-0.79701-0.73325-0.55791 0-1.1477 0.46226-1.1477 1.24334 0 0.84483 0.84483 1.40274 1.81719 1.40274 0.90859 0 1.49838-0.68543 1.7056-0.97235 0.39851 0.66948 1.29116 0.97235 2.19975 0.97235 2.00847 0 3.0924-1.96064 3.0924-2.48667 0-0.22317-0.23909-0.22317-0.38256-0.22317-0.19128 0-0.30287 0-0.36663 0.20722-0.46226 1.45056-1.60996 1.92876-2.2635 1.92876-0.60574 0-0.89266-0.28692-0.89266-0.797 0-0.33474 0.20723-1.17958 0.35068-1.76937 0.11159-0.41444 0.47822-1.91283 0.55791-2.16787 0.23911-0.95641 0.79701-1.45056 1.35492-1.45056 0.0797 0 0.44633 0 0.76513 0.23911z" fill="#f00"/>
 </g>
 <g fill="#008000" stroke-width=".5625">
  <path d="m3.2577 95.449c1.06799 0 2.10411-0.0956 2.7736-0.3188 1.35492-0.46227 1.57808-1.37086 1.57808-1.88095 0-0.92453-0.87672-1.53027-2.18381-1.53027-2.88519 0-4.92553 1.99254-4.92553 4.46327 0 1.83312 1.22739 2.86924 3.3315 2.86924 0.41445 0 1.51432-0.016 2.47073-0.38256 0.92454-0.36663 1.56215-1.02017 1.56215-1.21147 0-0.12746-0.25504-0.41444-0.39851-0.41444-0.0956 0-0.12752 0.0479-0.2391 0.17535-0.86076 0.90859-2.10411 1.25927-3.34744 1.25927-1.1477 0-1.56215-0.6376-1.56215-1.5462 0-0.30286 0.0638-0.82888 0.23911-1.48244zm-0.55791-0.57384c0.28692-1.16364 0.66948-1.59403 0.94047-1.84907 0.55791-0.55791 1.29116-0.73325 1.78531-0.73325 0.57385 0 1.2274 0.25504 1.2274 0.97236 0 1.60996-2.40698 1.60996-3.95318 1.60996z"/>
  <path d="m18.2864 94.492-3.18804-3.1721c-0.19129-0.19128-0.22317-0.22316-0.35069-0.22316-0.1594 0-0.3188 0.14346-0.3188 0.31881 0 0.1116 0.0319 0.14345 0.20723 0.3188l3.18804 3.20399-3.18804 3.20398c-0.17535 0.17534-0.20723 0.20722-0.20723 0.3188 0 0.17535 0.1594 0.3188 0.3188 0.3188 0.12752 0 0.1594-0.0319 0.35069-0.22316l3.17211-3.1721 3.29963 3.29962c0.0319 0.016 0.14345 0.0956 0.23909 0.0956 0.19128 0 0.31881-0.14345 0.31881-0.3188 0-0.0319 0-0.0956-0.0478-0.17534-0.0159-0.0319-2.55044-2.5345-3.34744-3.34744l2.91705-2.91707c0.0797-0.0956 0.3188-0.30287 0.39851-0.39851 0.0159-0.0319 0.0797-0.0956 0.0797-0.20721 0-0.17535-0.12753-0.31881-0.31881-0.31881-0.12752 0-0.19128 0.0637-0.36663 0.2391z"/>
  <path d="m36.5242 92.532c-0.57385 0.1594-0.86077 0.70136-0.86077 1.09987 0 0.35069 0.27098 0.73325 0.79701 0.73325 0.55791 0 1.14769-0.46226 1.14769-1.24333 0-0.84484-0.84482-1.40275-1.81718-1.40275-0.90859 0-1.49838 0.68544-1.7056 0.97236-0.39851-0.66949-1.29116-0.97236-2.19975-0.97236-2.00847 0-3.09241 1.96066-3.09241 2.48668 0 0.22316 0.23911 0.22316 0.38257 0.22316 0.19128 0 0.30287 0 0.36663-0.20721 0.46226-1.45056 1.60996-1.92877 2.2635-1.92877 0.60574 0 0.89266 0.28692 0.89266 0.79701 0 0.30287-0.22316 1.17957-0.36663 1.75343l-0.54196 2.1838c-0.23911 0.97236-0.81296 1.45056-1.35492 1.45056-0.0797 0-0.44633 0-0.76513-0.2391 0.57384-0.1594 0.86077-0.70137 0.86077-1.09988 0-0.35068-0.27099-0.73325-0.79701-0.73325-0.55791 0-1.1477 0.46227-1.1477 1.24335 0 0.84482 0.84483 1.40273 1.81719 1.40273 0.90859 0 1.49837-0.68543 1.7056-0.97235 0.39851 0.66948 1.29116 0.97235 2.19975 0.97235 2.00846 0 3.0924-1.96064 3.0924-2.48667 0-0.22317-0.2391-0.22317-0.38256-0.22317-0.19128 0-0.30287 0-0.36663 0.20723-0.46227 1.45056-1.60996 1.92876-2.26351 1.92876-0.60573 0-0.89265-0.28692-0.89265-0.797 0-0.33475 0.20723-1.17959 0.35068-1.76938 0.11159-0.41444 0.47821-1.91282 0.55791-2.16786 0.2391-0.95642 0.79701-1.45056 1.35492-1.45056 0.0797 0 0.44633 0 0.76513 0.2391z"/>
 </g>
 <path d="m64.0915 4.628c1.06799 0 2.10411-0.0956 2.7736-0.3188 1.35492-0.46227 1.57808-1.37086 1.57808-1.88095 0-0.92453-0.87672-1.53027-2.18381-1.53027-2.88519 0-4.92553 1.99254-4.92553 4.46327 0 1.83312 1.2274 2.86924 3.3315 2.86924 0.414453 0 1.51432-0.016 2.47073-0.38256 0.924534-0.36663 1.56215-1.02017 1.56215-1.21147 0-0.12746-0.25504-0.41444-0.398506-0.41444-0.09564 0-0.127521 0.0479-0.239107 0.17535-0.86076 0.90859-2.10411 1.25927-3.34744 1.25927-1.14769 0-1.56215-0.6376-1.56215-1.5462 0-0.30286 0.06376-0.82888 0.239107-1.48244zm-0.557907-0.57384c0.28692-1.16364 0.66948-1.59403 0.940467-1.84907 0.557907-0.55791 1.29116-0.73325 1.78531-0.73325 0.573853 0 1.2274 0.25504 1.2274 0.97236 0 1.60996-2.40697 1.60996-3.95317 1.60996z" stroke-width="1.33333"/>
 <g fill="#008000" stroke-width=".5625">
  <path d="m41.9684 62.405h2.70982c2.26352 0 4.47922-1.65779 4.47922-3.4431 0-1.2274-1.05206-2.40697-3.14023-2.40697h-5.16464c-0.30285 0-0.4782 0-0.4782 0.30287 0 0.19128 0.14347 0.19128 0.46227 0.19128 0.20722 0 0.49414 0.016 0.68542 0.0319 0.25504 0.0319 0.35068 0.0797 0.35068 0.25504 0 0.0637-0.0159 0.1116-0.0638 0.30287l-2.13598 8.55991c-0.1594 0.62166-0.19128 0.74918-1.45056 0.74918-0.27098 0-0.44633 0-0.44633 0.30287 0 0.19128 0.19129 0.19128 0.23911 0.19128 0.44632 0 1.57808-0.0479 2.0244-0.0479 0.33475 0 0.68543 0.016 1.02018 0.016 0.35069 0 0.70137 0.0319 1.03612 0.0319 0.11157 0 0.3188 0 0.3188-0.3188 0-0.17535-0.14347-0.17535-0.44632-0.17535-0.5898 0-1.03612 0-1.03612-0.28692 0-0.0956 0.0319-0.17534 0.0478-0.27098zm1.14769-4.75019c0.14345-0.55791 0.17533-0.60573 0.86077-0.60573h1.53026c1.32304 0 2.16788 0.43038 2.16788 1.53026 0 0.62167-0.31882 1.99252-0.94048 2.56638-0.79702 0.7173-1.75343 0.84482-2.45479 0.84482h-2.24757z"/>
  <path d="m51.8464 52.916c0-0.16738 0-0.424-0.2678-0.424-0.27896 0-0.27896 0.27894-0.27896 0.4798v10.1874c0 0.20084 0 0.4798 0.27896 0.4798 0.2678 0 0.2678-0.25664 0.2678-0.42402zm2.46595 0.0559c0-0.20085 0-0.4798-0.27896-0.4798-0.26779 0-0.26779 0.25663-0.26779 0.424v10.299c0 0.16737 0 0.42401 0.26779 0.42401 0.27896 0 0.27896-0.27896 0.27896-0.4798z"/>
  <path d="m65.4198 61.05c-0.57385 0.1594-0.86077 0.70136-0.86077 1.09986 0 0.3507 0.27098 0.73326 0.79701 0.73326 0.55791 0 1.14769-0.46227 1.14769-1.24334 0-0.84484-0.84482-1.40274-1.81718-1.40274-0.90859 0-1.49838 0.68544-1.7056 0.97236-0.39851-0.6695-1.29116-0.97236-2.19975-0.97236-2.00847 0-3.09241 1.96065-3.09241 2.48668 0 0.22316 0.2391 0.22316 0.38257 0.22316 0.19128 0 0.30287 0 0.36663-0.20722 0.46226-1.45056 1.60996-1.92877 2.2635-1.92877 0.60574 0 0.89266 0.28692 0.89266 0.79701 0 0.30287-0.22316 1.17958-0.36663 1.75343l-0.54196 2.1838c-0.23911 0.97236-0.81296 1.45056-1.35492 1.45056-0.0797 0-0.44633 0-0.76513-0.23909 0.57384-0.1594 0.86077-0.70138 0.86077-1.09988 0-0.35068-0.27099-0.73326-0.79701-0.73326-0.55791 0-1.1477 0.46227-1.1477 1.24335 0 0.84483 0.84483 1.40273 1.81719 1.40273 0.90859 0 1.49837-0.68542 1.7056-0.97234 0.39851 0.66948 1.29116 0.97234 2.19975 0.97234 2.00846 0 3.0924-1.96064 3.0924-2.48666 0-0.22318-0.2391-0.22318-0.38256-0.22318-0.19128 0-0.30287 0-0.36663 0.20723-0.46227 1.45056-1.60996 1.92876-2.26351 1.92876-0.60573 0-0.89265-0.28692-0.89265-0.797 0-0.33475 0.20723-1.17959 0.35068-1.76937 0.11159-0.41444 0.47821-1.91283 0.55791-2.16787 0.2391-0.95641 0.79701-1.45056 1.35492-1.45056 0.0797 0 0.44633 0 0.76513 0.23911z"/>
  <path d="m134.017 120.19h2.70983c2.26352 0 4.47921-1.65779 4.47921-3.4431 0-1.2274-1.05205-2.40697-3.14022-2.40697h-5.16464c-0.30286 0-0.4782 0-0.4782 0.30287 0 0.19128 0.14346 0.19128 0.46226 0.19128 0.20723 0 0.49415 0.016 0.68543 0.0319 0.25504 0.0319 0.35068 0.0797 0.35068 0.25504 0 0.0637-0.0159 0.1116-0.0638 0.30287l-2.13599 8.55991c-0.1594 0.62166-0.19128 0.74918-1.45056 0.74918-0.27098 0-0.44632 0-0.44632 0.30287 0 0.19128 0.19128 0.19128 0.2391 0.19128 0.44633 0 1.57809-0.0479 2.02441-0.0479 0.33475 0 0.68543 0.016 1.02017 0.016 0.3507 0 0.70138 0.0319 1.03612 0.0319 0.11158 0 0.3188 0 0.3188-0.3188 0-0.17535-0.14346-0.17535-0.44632-0.17535-0.5898 0-1.03612 0-1.03612-0.28692 0-0.0956 0.0319-0.17534 0.0478-0.27098zm1.1477-4.75019c0.14345-0.55791 0.17533-0.60573 0.86077-0.60573h1.53025c1.32304 0 2.16788 0.43038 2.16788 1.53026 0 0.62167-0.31881 1.99252-0.94048 2.56638-0.79701 0.7173-1.75342 0.84482-2.45478 0.84482h-2.24758z"/>
  <path d="m146.852 111.337c0-0.16737 0-0.43517-0.2678-0.43517-0.27894 0-0.27894 0.25664-0.27894 0.43517v6.76184h-3.40324c-0.16738 0-0.44633 0-0.44633 0.2678 0 0.27895 0.25664 0.27895 0.44633 0.27895h7.35322c0.17854 0 0.44632 0 0.44632-0.2678 0-0.27895-0.25664-0.27895-0.44632-0.27895h-3.40324z"/>
  <path d="m160.901 118.835c-0.57385 0.1594-0.86077 0.70136-0.86077 1.09986 0 0.3507 0.27098 0.73326 0.79701 0.73326 0.55791 0 1.14769-0.46227 1.14769-1.24334 0-0.84484-0.84482-1.40274-1.81718-1.40274-0.90859 0-1.49838 0.68544-1.7056 0.97236-0.39851-0.6695-1.29116-0.97236-2.19975-0.97236-2.00847 0-3.09241 1.96065-3.09241 2.48668 0 0.22316 0.23911 0.22316 0.38257 0.22316 0.19128 0 0.30287 0 0.36663-0.20722 0.46226-1.45056 1.60996-1.92877 2.2635-1.92877 0.60574 0 0.89266 0.28692 0.89266 0.79701 0 0.30287-0.22316 1.17958-0.36663 1.75343l-0.54196 2.1838c-0.23911 0.97236-0.81296 1.45056-1.35492 1.45056-0.0797 0-0.44633 0-0.76513-0.23909 0.57384-0.1594 0.86077-0.70138 0.86077-1.09988 0-0.35068-0.27099-0.73326-0.79701-0.73326-0.55791 0-1.1477 0.46227-1.1477 1.24335 0 0.84483 0.84483 1.40273 1.81719 1.40273 0.90859 0 1.49837-0.68542 1.7056-0.97234 0.39851 0.66948 1.29116 0.97234 2.19975 0.97234 2.00846 0 3.0924-1.96064 3.0924-2.48666 0-0.22318-0.2391-0.22318-0.38256-0.22318-0.19128 0-0.30287 0-0.36663 0.20723-0.46227 1.45056-1.60996 1.92876-2.26351 1.92876-0.60573 0-0.89265-0.28692-0.89265-0.797 0-0.33475 0.20723-1.17959 0.35068-1.76937 0.11159-0.41444 0.47821-1.91283 0.55791-2.16787 0.2391-0.95641 0.79701-1.45056 1.35492-1.45056 0.0797 0 0.44633 0 0.76513 0.23911z"/>
 </g>
 <path d="M 62.1748,125.228 108.39,19.002" color="#000000" color-rendering="auto" fill="none" image-rendering="auto" marker-end="url(#marker2234)" shape-rendering="auto" solid-color="#000000" stroke="#000" stroke-linecap="round" stroke-linejoin="round" stroke-width="1.5" style="isolation:auto;mix-blend-mode:normal"/>
</svg>
