<?xml version="1.0" encoding="UTF-8"?>
<svg width="111.694" height="163.23" version="1.1" viewBox="0 0 111.69385 163.22968" xmlns="http://www.w3.org/2000/svg" xmlns:xlink="http://www.w3.org/1999/xlink">
 <defs>
  <symbol id="g4057">
   <path d="m31.43 130.633c0.0957-0.42083 0.28693-1.12857 0.28693-1.24334 0-0.3443-0.26781-0.51646-0.55472-0.51646-0.22956 0-0.57386 0.15303-0.70776 0.5356-0.0574 0.13389-0.9564 3.78738-1.0903 4.28471-0.13392 0.57385-0.17216 0.91815-0.17216 1.26247 0 0.2104 0 0.24866 0.0192 0.34431-0.43996 1.01379-1.01381 1.60676-1.75981 1.60676-1.53025 0-1.53025-1.41549-1.53025-1.74067 0-0.61209 0.0957-1.35809 0.99467-3.71087 0.2104-0.57383 0.32518-0.84164 0.32518-1.2242 0-0.86077-0.63123-1.56851-1.56852-1.56851-1.81719 0-2.52493 2.77359-2.52493 2.94574 0 0.19128 0.1913 0.19128 0.22955 0.19128 0.19128 0 0.2104-0.0383 0.30605-0.34431 0.51645-1.77892 1.26246-2.37189 1.93195-2.37189 0.17214 0 0.47821 0.0191 0.47821 0.63123 0 0.4782-0.21042 1.01379-0.34432 1.33897-0.84163 2.25713-1.07118 3.13703-1.07118 3.86391 0 1.74066 1.28159 2.41014 2.71621 2.41014 0.32519 0 1.22421 0 1.98933-1.33897 0.49734 1.2242 1.8172 1.33897 2.39104 1.33897 1.4346 0 2.27625-1.20507 2.77358-2.35277 0.65036-1.49199 1.26246-4.05517 1.26246-4.97333 0-1.05206-0.51647-1.33897-0.84165-1.33897-0.47821 0-0.9564 0.49733-0.9564 0.91814 0 0.24867 0.11472 0.36344 0.28691 0.51647 0.21042 0.21041 0.68863 0.70774 0.68863 1.62589 0 0.65037-0.55472 2.52492-1.05207 3.50047-0.49732 1.0138-1.16681 1.68328-2.10407 1.68328-0.89904 0-1.4155-0.57384-1.4155-1.66416 0-0.53558 0.13392-1.12855 0.21041-1.39634z" stroke-linejoin="round" stroke-miterlimit="1e5" stroke-width="1.59999"/>
   <path d="m40.722 131.471c0-0.36152-0.0267-0.37491-0.4017-0.37491-0.85694 0.84355-2.0754 0.85694-2.62438 0.85694v0.48203c0.32136 0 1.20506 0 1.9415-0.37491v6.82876c0 0.44187 0 0.61593-1.33895 0.61593h-0.50882v0.48203c0.24101-0.0134 1.88793-0.0536 2.38336-0.0536 0.41508 0 2.1022 0.0402 2.39678 0.0536v-0.48203h-0.50882c-1.33897 0-1.33897-0.17406-1.33897-0.61593z" stroke-linejoin="round" stroke-miterlimit="1e5" stroke-width="1.59999"/>
  </symbol>
  <symbol id="g4053">
   <path d="m76.979 130.633c0.0957-0.42083 0.28693-1.12857 0.28693-1.24334 0-0.3443-0.26781-0.51646-0.55472-0.51646-0.22955 0-0.57385 0.15303-0.70776 0.5356-0.0574 0.13389-0.95639 3.78738-1.0903 4.28471-0.13392 0.57385-0.17216 0.91815-0.17216 1.26247 0 0.2104 0 0.24866 0.0192 0.34431-0.43995 1.01379-1.0138 1.60676-1.7598 1.60676-1.53026 0-1.53026-1.41549-1.53026-1.74067 0-0.61209 0.0957-1.35809 0.99467-3.71087 0.2104-0.57383 0.32519-0.84164 0.32519-1.2242 0-0.86077-0.63123-1.56851-1.56853-1.56851-1.81716 0-2.52491 2.77359-2.52491 2.94574 0 0.19128 0.19128 0.19128 0.22954 0.19128 0.19128 0 0.21041-0.0383 0.30605-0.34431 0.51646-1.77892 1.26246-2.37189 1.93195-2.37189 0.17214 0 0.4782 0.0191 0.4782 0.63123 0 0.4782-0.21041 1.01379-0.34432 1.33897-0.84163 2.25713-1.07118 3.13703-1.07118 3.86391 0 1.74066 1.2816 2.41014 2.71622 2.41014 0.32518 0 1.22421 0 1.98933-1.33897 0.49734 1.2242 1.81719 1.33897 2.39103 1.33897 1.43462 0 2.27627-1.20507 2.77358-2.35277 0.65037-1.49199 1.26246-4.05517 1.26246-4.97333 0-1.05206-0.51646-1.33897-0.84164-1.33897-0.47821 0-0.95639 0.49733-0.95639 0.91814 0 0.24867 0.11472 0.36344 0.28692 0.51647 0.2104 0.21041 0.6886 0.70774 0.6886 1.62589 0 0.65037-0.55472 2.52492-1.05204 3.50047-0.49733 1.0138-1.16682 1.68328-2.1041 1.68328-0.89904 0-1.4155-0.57384-1.4155-1.66416 0-0.53558 0.13392-1.12855 0.21042-1.39634z" stroke-linejoin="round" stroke-miterlimit="1e5" stroke-width="1.59999"/>
   <path d="m88.547 137.55h-0.45525c-0.0402 0.29457-0.17407 1.08457-0.34815 1.21847-0.10704 0.0803-1.13812 0.0803-1.32556 0.0803h-2.46371c1.40592-1.24524 1.87456-1.62016 2.67793-2.24947 0.99085-0.79 1.91474-1.62016 1.91474-2.89219 0-1.62015-1.41931-2.61099-3.13318-2.61099-1.66034 0-2.78509 1.1649-2.78509 2.39675 0 0.68288 0.57576 0.74983 0.70967 0.74983 0.32136 0 0.70966-0.22762 0.70966-0.70965 0-0.24102-0.0938-0.70966-0.79-0.70966 0.41509-0.95067 1.32558-1.24525 1.95491-1.24525 1.33896 0 2.03523 1.0444 2.03523 2.12897 0 1.16491-0.83016 2.0888-1.25862 2.57083l-3.22694 3.18676c-0.13392 0.12051-0.13392 0.1473-0.13392 0.5222h5.51656z" stroke-linejoin="round" stroke-miterlimit="1e5" stroke-width="1.59999"/>
  </symbol>
 </defs>
 <g fill="#dcdcdc" shape-rendering="auto" stroke="#555" stroke-width="2">
  <path d="m71.7323 104.222a28.798 28.7546 0 0 0 -24.6514 13.955 21.0226 20.9908 0 0 0 -14.8933 -6.19213 21.0226 20.9908 0 0 0 -21.024 20.9902 21.0226 20.9908 0 0 0 21.024 20.9925 21.0226 20.9908 0 0 0 14.8888 -6.1944 28.798 28.7546 0 0 0 24.6559 13.9572 28.798 28.7546 0 0 0 28.7979 -28.7553 28.798 28.7546 0 0 0 -28.7979 -28.7531z" color="#000000" color-rendering="auto" image-rendering="auto" solid-color="#000000" style="isolation:auto;mix-blend-mode:normal"/>
  <ellipse cx="81.3958" cy="30.2544" rx="28.798" ry="28.7546" color="#000000" color-rendering="auto" image-rendering="auto" solid-color="#000000" style="isolation:auto;mix-blend-mode:normal"/>
  <ellipse cx="22.5226" cy="30.2544" rx="21.0226" ry="20.9908" color="#000000" color-rendering="auto" image-rendering="auto" solid-color="#000000" style="isolation:auto;mix-blend-mode:normal"/>
 </g>
 <path d="m58.0899 83.9898h-6.58996v-24.5292h-7.20981v24.5292h-6.58997l10.1949 14.8615z" color="#000000" color-rendering="auto" fill="#f00" image-rendering="auto" shape-rendering="auto" solid-color="#000000" stroke-linejoin="round" stroke-miterlimit="1e5" style="isolation:auto;mix-blend-mode:normal"/>
 <path d="m56.8912 132.718h5.33679c0.2678 0 0.63124 0 0.63124-0.38255 0-0.38256-0.36344-0.38258-0.63124-0.38258h-5.33679v-5.35589c0-0.26779 0-0.63123-0.38256-0.63123s-0.38256 0.36344-0.38256 0.63123v5.35589h-5.35589c-0.26779 0-0.63123 0-0.63123 0.38258 0 0.38257 0.36344 0.38255 0.63123 0.38255h5.35589v5.3559c0 0.2678 0 0.63123 0.38256 0.63123s0.38256-0.36343 0.38256-0.63123z" stroke-linejoin="round" stroke-miterlimit="1e5" stroke-width="1.59999"/>
 <path d="m74.5546 78.544q-1.38672-0.572916-3.14453-1.88151-1.7513-1.30859-2.91666-2.71484-0.904947 1.25-2.61718 2.58463-1.71224 1.32812-3.46354 2.08984l-0.436197-0.716145q1.6927-0.813801 3.32031-2.11588 1.63411-1.30208 2.43489-2.49348h1.4388q1.02864 1.33463 2.7539 2.59765 1.73177 1.25651 3.16406 1.8164zm-2.62369-0.423177h-6.78384v-0.787759h6.78384zm0.208333 6.20442h-7.34374v0.651041h-1.02213v-5.07161h9.39452v5.03254h-1.02864zm-7.34374-0.787759h7.34374v-2.84505h-7.34374z" fill="#f00"/>
 <path d="m79.7694 73.3877q-0.410156 1.45182-1.71224 3.84765h0.384114v7.86457h-1.03516v-6.72525q-0.703123 1.13281-1.45833 1.99218l-0.664062-0.533853q1.17838-1.45182 2.16796-3.46354 0.996092-2.01172 1.28906-3.15755zm8.64582 8.82811-0.664062 0.735675q-1.00911-0.865884-2.0638-2.22656-1.05469-1.36719-1.71875-2.55859v3.46354h1.73828v0.774738h-1.73828v2.59765h-0.97656v-2.59765h-1.89453v-0.774738h1.89453v-3.45052q-1.95312 3.24218-3.90624 4.75911l-0.553384-0.598958q0.878904-0.742186 2.14192-2.3177 1.26302-1.58203 1.97265-3.23567h-3.42447v-0.80078h3.74348v-2.76041h1.04166v2.76041h3.91926v0.80078h-3.71744q0.273438 0.651041 1.47786 2.41536 1.21094 1.75781 2.72786 3.01432z" fill="#f00"/>
 <use width="100%" height="100%" xlink:href="#g4057"/>
 <use transform="translate(-10.336 -104.07)" width="100%" height="100%" xlink:href="#g4057"/>
 <use width="100%" height="100%" xlink:href="#g4053"/>
 <use transform="translate(2.774 -104.07)" width="100%" height="100%" xlink:href="#g4053"/>
</svg>
