<?xml version="1.0" encoding="UTF-8"?>
<svg width="104.005" height="126.998" version="1.1" viewBox="0 0 104.00462 126.99804" xmlns="http://www.w3.org/2000/svg"><g transform="translate(54.8594 -243.813)"><g shape-rendering="auto"><path d="m-18.8536 263.405v8.3327c-1.92854 0.27648-3.8516 0.55293-5.40496 0.82937-1.55335 0.27645-2.72674 0.55292-3.29995 0.82939-0.57321 0.27644-0.53991 0.55289 0.0902 0.82936 0.63018 0.27645 1.85718 0.55291 3.44532 0.82937s3.53096 0.55291 5.45855 0.82935c1.92759 0.27645 3.8296 0.55294 5.34591 0.82938s2.63676 0.55289 3.15125 0.82938c0.5145 0.27643 0.41701 0.55291-0.27069 0.82934-0.6877 0.27646-1.96515 0.5529-3.58721 0.82937-1.62206 0.27646-3.58197 0.55292-5.50666 0.82938-1.9247 0.27646-3.80376 0.55292-5.28148 0.82936-1.47775 0.27647-2.54413 0.55291-2.9994 0.82938-0.45525 0.27645-0.29366 0.55289 0.50653 0.82934 0.80018 0.27646 2.22115 0.5529 3.93502 0.82938 1.71387 0.27645 3.71314 0.55289 5.61755 0.82936s3.70333 0.55291 5.05657 0.82936c1.35327 0.27645 2.25124 0.55291 2.5263 0.82936 0.27507 0.27644-0.0777 0.55291-0.98788 0.82939-0.91025 0.27644-2.37625 0.55288-4.11732 0.82934-1.74107 0.27648-3.74944 0.55292-5.64323 0.82938-1.89381 0.27646-3.66236 0.55294-4.97134 0.82938-1.30898 0.27646-2.14893 0.5529-2.18 0.82936-0.0311 0.27647 0.75216 0.55291 2.01463 0.82936 1.26247 0.27648 3.00005 0.55294 4.88107 0.82936 1.88103 0.27646 3.89625 0.55292 5.66324 0.82938 1.767 0.27646 3.27501 0.55293 4.23981 0.82939 0.9648 0.27645 1.37829 0.55289 1.16515 0.82933-0.21315 0.27647-1.05521 0.55292-2.3633 0.82938-1.30808 0.27648-3.07777 0.55292-4.97133 0.82937-1.89357 0.27646-3.90165 0.55292-5.64323 0.82936-1.74159 0.27647-3.20599 0.55292-4.11732 0.82936-0.91134 0.27648-1.26175 0.55294-0.98789 0.82938 0.27385 0.27644 1.17391 0.55289 2.52629 0.82935 1.35238 0.27647 3.15237 0.55291 5.05658 0.82937 1.90423 0.27647 3.90311 0.55291 5.61754 0.82936 1.71445 0.27648 3.13375 0.55295 3.99071 0.82939 0.85694 0.27644 1.14391 0.55292 0.80962 0.82937-0.33429 0.27646-1.29142 0.55291-2.68675 0.82937-1.39533 0.27644-3.22381 0.55289-5.13676 0.82936-1.91294 0.27645-3.90063 0.55291-5.58619 0.82939-1.68555 0.27645-3.05834 0.55291-3.86003 0.82933-0.80169 0.27645-1.02494 0.55295-0.57109 0.8294s1.57624 0.55291 3.09179 0.82935c1.51556 0.27644 3.41835 0.55293 5.34591 0.82938 1.92755 0.27645 3.86972 0.55289 5.45856 0.82936 1.58884 0.27645 2.81397 0.55289 3.4453 0.82935 0.63136 0.27645 0.66231 0.55293 0.0902 0.82937-0.57204 0.27646-1.74731 0.55293-3.29994 0.82938-1.55263 0.27644-3.47641 0.55291-5.40496 0.82936v18.7844" color="#000000" color-rendering="auto" fill="none" image-rendering="auto" solid-color="#000000" stroke="#555" stroke-width="1.09506" style="isolation:auto;mix-blend-mode:normal" title="sin(-10*x)"/><rect transform="rotate(90)" x="244.313" y="-48.6452" width="19.0919" height="103.005" color="#000000" color-rendering="auto" fill="#cacaca" image-rendering="auto" solid-color="#000000" style="isolation:auto;mix-blend-mode:normal"/><path d="m48.6452 263.405h-103.005" color="#000000" color-rendering="auto" fill="none" image-rendering="auto" solid-color="#000000" stroke="#555" stroke-width="3.11614" style="isolation:auto;mix-blend-mode:normal"/><g><path d="m-24.8094 361.579h3.84752v-29.3805h4.20942v29.3805h3.84753l-5.95223 8.67682z" color="#000000" color-rendering="auto" fill="#f00" image-rendering="auto" solid-color="#000000" style="isolation:auto;mix-blend-mode:normal"/><path d="m-12.9049 302.818h-3.84752v29.3805h-4.20942v-29.3805h-3.84753l5.95223-8.67682z" color="#000000" color-rendering="auto" fill="#f00" image-rendering="auto" solid-color="#000000" style="isolation:auto;mix-blend-mode:normal"/><circle transform="rotate(-90)" cx="-332.199" cy="-18.8571" r="12.8255" color="#000000" color-rendering="auto" fill="#cacaca" image-rendering="auto" solid-color="#000000" stroke="#555" stroke-width="1.19668" style="isolation:auto;mix-blend-mode:normal"/></g></g><g stroke-linejoin="round" stroke-miterlimit="1e5" stroke-width="1.33333"><path d="m7.65985 303.678h2.238c0.36344 0 0.70774 0 0.70774-0.55472 0-0.34431-0.32516-0.34431-0.65035-0.34431h-2.14237l0.63124-3.46222c0.0574-0.3443 0.0574-0.38256 0.24867-0.55472 0.24865-0.22954 0.45907-0.22954 0.55472-0.22954 0.26779 0 0.43993 0.0382 0.66949 0.13392-0.45909 0.22956-0.8034 0.72688-0.8034 1.24335 0 0.57385 0.45908 0.8799 0.93728 0.8799 0.78428 0 1.37725-0.68862 1.37725-1.41549 0-0.97555-0.99467-1.53027-2.18062-1.53027-0.89904 0-1.97023 0.36344-2.63971 1.43463-0.43996 0.70774-0.55472 1.45374-0.91816 3.50048h-1.87456c-0.36344 0-0.68863 0-0.68863 0.55472 0 0.3443 0.32519 0.3443 0.63123 0.3443h1.75981l-1.45374 8.14864c-0.0383 0.17216-0.24867 1.37723-0.34432 1.64502-0.0383 0.0957-0.34431 0.97556-0.95642 0.97556-0.36342 0-0.51646-0.0574-0.65035-0.11472 0.47821-0.22956 0.84165-0.72688 0.84165-1.26247 0-0.57385-0.45909-0.8799-0.9373-0.8799-0.78425 0-1.37723 0.68861-1.37723 1.41549 0 1.03292 1.09032 1.53025 2.08498 1.53025 1.43462 0 2.42929-1.41549 2.58232-1.66416 0.82251-1.26246 1.26246-3.69174 1.31985-4.01693z"/><path d="m17.5078 310.324c0-0.22763 0-0.34813-0.18745-0.34813-0.067 0-0.0937 0-0.26781 0.16067-0.0268 0.0128-0.16067 0.13392-0.24101 0.20085-0.40169-0.28118-0.91051-0.36152-1.40593-0.36152-1.91474 0-2.36999 1.00422-2.36999 1.67371 0 0.42848 0.18745 0.77661 0.50881 1.04442 0.50881 0.44185 1.01762 0.53558 1.84778 0.66949 0.66951 0.12048 1.75407 0.30795 1.75407 1.20507 0 0.52221-0.36152 1.13813-1.64695 1.13813-1.28542 0-1.75405-0.84356-1.99507-1.75405-0.0402-0.17408-0.0536-0.22763-0.24102-0.22763-0.22762 0-0.22762 0.0938-0.22762 0.36152v1.64694c0 0.22763 0 0.34814 0.18745 0.34814 0.12051 0 0.37492-0.28118 0.64272-0.57576 0.58914 0.54898 1.3122 0.57576 1.63354 0.57576 1.74068 0 2.3834-0.93729 2.3834-1.88796 0-0.50882-0.22764-0.9105-0.57576-1.23186-0.50882-0.46864-1.12476-0.57576-1.5934-0.6561-1.07118-0.18745-1.94151-0.34814-1.94151-1.05779 0-0.42848 0.36151-0.95069 1.63355-0.95069 1.55321 0 1.62017 1.08458 1.64694 1.47288 0.0134 0.14736 0.17408 0.14736 0.22763 0.14736 0.22763 0 0.22763-0.0938 0.22763-0.34814z"/><path d="m22.1922 318.063c-0.87034 0-1.00424 0-1.00424-0.57576v-2.18252c0.0669 0.0669 0.69627 0.7766 1.82101 0.7766 1.76745 0 3.28049-1.3256 3.28049-3.02609 0-1.64695-1.36576-3.01271-3.06625-3.01271-0.76322 0-1.53983 0.28119-2.08882 0.81679v-0.81679l-2.00846 0.14736v0.48204c0.93729 0 1.00424 0.0669 1.00424 0.62932v6.18608c0 0.57576-0.1339 0.57576-1.00424 0.57576v0.48204c0.0268 0 0.96406-0.0536 1.52643-0.0536 0.49542 0 1.41933 0.0402 1.53984 0.0536zm-1.00424-6.57438c0.40169-0.66949 1.1783-1.01762 1.88795-1.01762 1.12475 0 1.99509 1.17829 1.99509 2.58423 0 1.52643-1.00424 2.65117-2.14237 2.65117-1.1783 0-1.7005-1.03101-1.74067-1.11135z"/><path d="m7.65985 355.297h2.238c0.36344 0 0.70775 0 0.70775-0.55472 0-0.34431-0.32517-0.34431-0.65035-0.34431h-2.14237l0.63123-3.46222c0.0574-0.3443 0.0574-0.38256 0.24867-0.55472 0.24866-0.22954 0.45907-0.22954 0.55472-0.22954 0.26779 0 0.43994 0.0382 0.66949 0.13392-0.45909 0.22956-0.80339 0.72688-0.80339 1.24335 0 0.57385 0.45907 0.8799 0.93728 0.8799 0.78427 0 1.37725-0.68862 1.37725-1.41549 0-0.97555-0.99468-1.53027-2.18063-1.53027-0.89904 0-1.97022 0.36344-2.63971 1.43463-0.43995 0.70774-0.55472 1.45374-0.91816 3.50048h-1.87456c-0.36344 0-0.68862 0-0.68862 0.55472 0 0.3443 0.32518 0.3443 0.63123 0.3443h1.75981l-1.45375 8.14864c-0.0383 0.17216-0.24867 1.37723-0.34432 1.64502-0.0383 0.0957-0.3443 0.97556-0.95641 0.97556-0.36343 0-0.51647-0.0574-0.65036-0.11472 0.47821-0.22956 0.84165-0.72688 0.84165-1.26247 0-0.57385-0.45909-0.8799-0.93729-0.8799-0.78426 0-1.37724 0.68861-1.37724 1.41549 0 1.03292 1.09032 1.53025 2.08498 1.53025 1.43462 0 2.4293-1.41549 2.58232-1.66416 0.82251-1.26246 1.26246-3.69174 1.31986-4.01693z"/><path d="m14.3595 365.183c0.20085 0.12048 0.68288 0.41508 1.45949 0.41508 1.37915 0 2.38337-0.92389 2.38337-1.96829 0-0.52221-0.24101-0.9373-0.56237-1.28543 0.60255-0.42848 1.12476-0.44187 1.35237-0.44187-0.0535 0.0536-0.12049 0.10704-0.12049 0.32136 0 0.26779 0.20083 0.42848 0.42846 0.42848 0.18746 0 0.42848-0.13392 0.42848-0.44187 0-0.30797-0.25442-0.68288-0.79-0.68288-0.20085 0-0.9239 0.0402-1.55322 0.61594-0.40169-0.29458-0.96406-0.48204-1.55321-0.48204-1.37915 0-2.38339 0.92389-2.38339 1.96831 0 0.52219 0.2678 1.00422 0.64272 1.35237-0.10712 0.12048-0.4017 0.56236-0.4017 1.08457 0 0.17407 0.0402 0.80338 0.56237 1.19168-0.60254 0.20085-1.29881 0.64271-1.29881 1.33898 0 0.97745 1.47287 1.7139 3.2805 1.7139 1.7005 0 3.2805-0.66949 3.2805-1.74067 0-0.4017-0.16067-1.12475-0.89712-1.52645-0.79-0.41507-1.58-0.41507-2.8788-0.41507-0.29458 0-0.77661 0-0.88373-0.0128-0.42848-0.0938-0.66949-0.49542-0.66949-0.88373 0-0.33475 0.0937-0.44187 0.17407-0.54897zm1.47288 0.0128c-1.31221 0-1.31221-1.2854-1.31221-1.56659 0-0.21424 0-0.74984 0.26781-1.09797 0.18745-0.22763 0.54897-0.46864 1.03101-0.46864 1.31219 0 1.31219 1.28543 1.31219 1.56661 0 0.21423 0 0.74983-0.26779 1.09795-0.18746 0.22764-0.54898 0.46864-1.03101 0.46864zm0 2.32983c1.19169 0 2.86541 0 2.86541 1.05779 0 0.70966-1.0578 1.3256-2.46372 1.3256s-2.46372-0.62933-2.46372-1.3256c0-0.46864 0.42848-1.0444 1.28542-1.05779z"/></g></g></svg>
