<?xml version="1.0" encoding="UTF-8"?>
<svg width="171.425" height="117.29" version="1.1" viewBox="0 0 171.42499 117.28954" xmlns="http://www.w3.org/2000/svg"><g transform="translate(37.1411 -251.525)"><g><circle cx="14.3589" cy="317.314" r="50" color="#000000" color-rendering="auto" fill="#dcdcdc" image-rendering="auto" shape-rendering="auto" solid-color="#000000" stroke="#3d3d3d" stroke-width="2" style="isolation:auto;mix-blend-mode:normal"/><circle cx="96.2839" cy="289.525" r="36.5" color="#000000" color-rendering="auto" fill="#dcdcdc" image-rendering="auto" shape-rendering="auto" solid-color="#000000" stroke="#3d3d3d" stroke-width="2" style="isolation:auto;mix-blend-mode:normal"/><path d="m61.709 301.253 34.575-11.7281" fill="none" stroke="#000" stroke-width="1px"/><path d="m14.359 317.314 47.3629-16.0658" fill="none" stroke="#000" stroke-width="1px"/></g><circle cx="14.3589" cy="317.314" r="3.07798" color="#000000"/><circle cx="96.2839" cy="289.525" r="3.07798" color="#000000"/><g stroke-width="1.5"><path d="m9.15389 326.041c-0.64559 0.17932-0.96837 0.78903-0.96837 1.23735 0 0.39453 0.30486 0.82491 0.89664 0.82491 0.62764 0 1.29115-0.52005 1.29115-1.39875 0-0.95045-0.95043-1.57809-2.04433-1.57809-1.02216 0-1.68567 0.77112-1.9188 1.0939-0.44832-0.75318-1.45256-1.0939-2.47472-1.0939-2.25952 0-3.47896 2.20573-3.47896 2.79751 0 0.25106 0.26899 0.25106 0.43039 0.25106 0.21519 0 0.34073 0 0.41246-0.23312 0.52005-1.63188 1.8112-2.16987 2.54644-2.16987 0.68145 0 1.00424 0.32279 1.00424 0.89664 0 0.34073-0.25106 1.32702-0.41246 1.97261l-0.6097 2.45677c-0.269 1.09391-0.91458 1.63188-1.52429 1.63188-0.0897 0-0.50212 0-0.86077-0.26898 0.64557-0.17932 0.96837-0.78904 0.96837-1.23736 0-0.39452-0.30486-0.82491-0.89664-0.82491-0.62765 0-1.29116 0.52005-1.29116 1.39876 0 0.95043 0.95043 1.57808 2.04434 1.57808 1.02216 0 1.68567-0.77111 1.9188-1.09389 0.44832 0.75316 1.45255 1.09389 2.47471 1.09389 2.25953 0 3.47895-2.20572 3.47895-2.7975 0-0.25107-0.26898-0.25107-0.43038-0.25107-0.21519 0-0.34072 0-0.41245 0.23313-0.52005 1.63188-1.81121 2.16985-2.54645 2.16985-0.68145 0-1.00423-0.32278-1.00423-0.89662 0-0.37659 0.23313-1.32704 0.39451-1.99055 0.12554-0.46624 0.53799-2.15193 0.62765-2.43885 0.26899-1.07596 0.89664-1.63188 1.52428-1.63188 0.0897 0 0.50213 0 0.86078 0.269z"/><path d="m15.5642 327.938c0-0.33892-0.0251-0.35148-0.37659-0.35148-0.80339 0.79083-1.94571 0.80339-2.46038 0.80339v0.4519c0.30128 0 1.12976 0 1.82018-0.35148v6.40199c0 0.41425 0 0.57744-1.25529 0.57744h-0.47702v0.4519c0.22595-0.012 1.76996-0.0503 2.23442-0.0503 0.38914 0 1.97082 0.0377 2.24698 0.0503v-0.4519h-0.47701c-1.25529 0-1.25529-0.16319-1.25529-0.57744z"/><path d="m112.008 293.896c-0.64558 0.17932-0.96837 0.78903-0.96837 1.23735 0 0.39453 0.30486 0.82491 0.89664 0.82491 0.62765 0 1.29116-0.52005 1.29116-1.39875 0-0.95045-0.95043-1.57809-2.04434-1.57809-1.02216 0-1.68567 0.77112-1.9188 1.0939-0.44832-0.75318-1.45255-1.0939-2.47471-1.0939-2.25953 0-3.47896 2.20573-3.47896 2.79751 0 0.25106 0.26899 0.25106 0.43038 0.25106 0.2152 0 0.34073 0 0.41246-0.23312 0.52005-1.63188 1.81121-2.16987 2.54645-2.16987 0.68145 0 1.00423 0.32279 1.00423 0.89664 0 0.34073-0.25105 1.32702-0.41245 1.97261l-0.60971 2.45677c-0.26899 1.09391-0.91458 1.63188-1.52428 1.63188-0.0897 0-0.50213 0-0.86078-0.26898 0.64557-0.17932 0.96837-0.78904 0.96837-1.23736 0-0.39452-0.30486-0.82491-0.89664-0.82491-0.62765 0-1.29116 0.52005-1.29116 1.39876 0 0.95043 0.95044 1.57808 2.04434 1.57808 1.02216 0 1.68567-0.77111 1.9188-1.09389 0.44832 0.75316 1.45256 1.09389 2.47472 1.09389 2.25952 0 3.47895-2.20572 3.47895-2.7975 0-0.25107-0.26898-0.25107-0.43038-0.25107-0.21519 0-0.34073 0-0.41246 0.23313-0.52005 1.63188-1.8112 2.16985-2.54644 2.16985-0.68145 0-1.00424-0.32278-1.00424-0.89662 0-0.37659 0.23313-1.32704 0.39452-1.99055 0.12553-0.46624 0.53799-2.15193 0.62764-2.43885 0.269-1.07596 0.89664-1.63188 1.52429-1.63188 0.0897 0 0.50212 0 0.86077 0.269z"/><path d="m120.554 301.492h-0.4268c-0.0377 0.27616-0.16318 1.01679-0.32638 1.14232-0.10041 0.0753-1.067 0.0753-1.24274 0.0753h-2.30973c1.31805-1.16742 1.7574-1.51891 2.51058-2.10889 0.92892-0.74063 1.79507-1.5189 1.79507-2.71143 0-1.5189-1.33061-2.44782-2.93738-2.44782-1.55656 0-2.61101 1.0921-2.61101 2.24697 0 0.6402 0.53977 0.70296 0.6653 0.70296 0.30128 0 0.66531-0.21339 0.66531-0.6653 0-0.22596-0.0879-0.66531-0.74062-0.66531 0.38914-0.89125 1.24273-1.16742 1.83273-1.16742 1.25529 0 1.90804 0.97913 1.90804 1.99592 0 1.0921-0.77829 1.95825-1.17997 2.41015l-3.02526 2.9876c-0.12553 0.11295-0.12553 0.13815-0.12553 0.48957h5.1718z"/><path d="m27.608 290.402c0.10759-0.43039 0.16138-0.60972 0.50211-0.66351 0.1614-0.018 0.73524-0.018 1.0939-0.018 1.27322 0 3.26376 0 3.26376 1.77534 0 0.60972-0.28692 1.84707-0.98631 2.54646-0.46624 0.46625-1.41667 1.0401-3.03063 1.0401h-2.00847zm2.58231 4.91357c1.8112-0.39452 3.94521-1.64981 3.94521-3.46101 0-1.54223-1.61396-2.68992-3.96314-2.68992h-5.11084c-0.35865 0-0.52005 0-0.52005 0.35865 0 0.19726 0.1614 0.19726 0.50212 0.19726 0.0359 0 0.37659 0 0.68145 0.0359 0.32279 0.0359 0.48417 0.0539 0.48417 0.28692 0 0.0717-0.0179 0.12555-0.0717 0.34073l-2.40298 9.62989c-0.17933 0.69938-0.21519 0.84284-1.63188 0.84284-0.32279 0-0.48418 0-0.48418 0.35865 0 0.19726 0.21519 0.19726 0.25105 0.19726 0.50212 0 1.75741-0.0539 2.25954-0.0539 0.50212 0 1.77534 0.0539 2.27745 0.0539 0.14346 0 0.35866 0 0.35866-0.35865 0-0.19726-0.1614-0.19726-0.50212-0.19726-0.66351 0-1.16564 0-1.16564-0.32279 0-0.10755 0.0359-0.19726 0.0538-0.30486l1.18356-4.75218h2.134c1.63188 0 1.95467 1.00424 1.95467 1.63188 0 0.269-0.14346 0.82491-0.25106 1.23737-0.12553 0.50211-0.28693 1.16562-0.28693 1.52428 0 1.93673 2.15193 1.93673 2.38506 1.93673 1.52428 0 2.15193-1.81121 2.15193-2.06226 0-0.21519-0.19725-0.21519-0.21519-0.21519-0.1614 0-0.19727 0.12555-0.23313 0.25105-0.44832 1.32702-1.21943 1.63188-1.63188 1.63188-0.59178 0-0.7173-0.39451-0.7173-1.0939 0-0.55592 0.10759-1.47048 0.17932-2.04432 0.0359-0.25107 0.0717-0.59178 0.0717-0.84285 0-1.38083-1.2015-1.93674-1.68568-2.11607z"/><path d="m38.6529 296.118c0-0.33892-0.0251-0.35148-0.37659-0.35148-0.80339 0.79083-1.94571 0.80339-2.46038 0.80339v0.4519c0.30128 0 1.12976 0 1.82018-0.35148v6.40199c0 0.41425 0 0.57744-1.25529 0.57744h-0.47702v0.4519c0.22595-0.012 1.76996-0.0503 2.23442-0.0503 0.38914 0 1.97082 0.0377 2.24698 0.0503v-0.4519h-0.47701c-1.25529 0-1.25529-0.16319-1.25529-0.57744z"/><path d="m72.7267 275.863c0.1076-0.43039 0.16139-0.60972 0.50211-0.66351 0.1614-0.018 0.73524-0.018 1.09391-0.018 1.27321 0 3.26376 0 3.26376 1.77534 0 0.60972-0.28692 1.84707-0.98631 2.54646-0.46625 0.46625-1.41668 1.0401-3.03063 1.0401h-2.00847zm2.58231 4.91357c1.81121-0.39452 3.94521-1.64981 3.94521-3.46101 0-1.54223-1.61395-2.68992-3.96313-2.68992h-5.11085c-0.35865 0-0.52005 0-0.52005 0.35865 0 0.19726 0.1614 0.19726 0.50213 0.19726 0.0359 0 0.37659 0 0.68145 0.0359 0.32278 0.0359 0.48417 0.0539 0.48417 0.28692 0 0.0717-0.0179 0.12555-0.0717 0.34073l-2.40299 9.62989c-0.17932 0.69938-0.21519 0.84284-1.63188 0.84284-0.32279 0-0.48418 0-0.48418 0.35865 0 0.19726 0.21519 0.19726 0.25106 0.19726 0.50212 0 1.75741-0.0539 2.25953-0.0539 0.50213 0 1.77534 0.0539 2.27745 0.0539 0.14346 0 0.35867 0 0.35867-0.35865 0-0.19726-0.1614-0.19726-0.50213-0.19726-0.66351 0-1.16563 0-1.16563-0.32279 0-0.10755 0.0359-0.19726 0.0538-0.30486l1.18356-4.75218h2.13401c1.63188 0 1.95466 1.00424 1.95466 1.63188 0 0.269-0.14346 0.82491-0.25105 1.23737-0.12554 0.50211-0.28694 1.16562-0.28694 1.52428 0 1.93673 2.15193 1.93673 2.38506 1.93673 1.52429 0 2.15193-1.81121 2.15193-2.06226 0-0.21519-0.19725-0.21519-0.21519-0.21519-0.1614 0-0.19726 0.12555-0.23313 0.25105-0.44832 1.32702-1.21942 1.63188-1.63188 1.63188-0.59178 0-0.7173-0.39451-0.7173-1.0939 0-0.55592 0.1076-1.47048 0.17933-2.04432 0.0359-0.25107 0.0717-0.59178 0.0717-0.84285 0-1.38083-1.2015-1.93674-1.68569-2.11607z"/><path d="m85.9056 287.279h-0.42679c-0.0377 0.27616-0.16319 1.01679-0.32639 1.14232-0.10041 0.0753-1.06699 0.0753-1.24273 0.0753h-2.30973c1.31805-1.16742 1.7574-1.51891 2.51058-2.10889 0.92892-0.74063 1.79506-1.5189 1.79506-2.71143 0-1.5189-1.3306-2.44782-2.93737-2.44782-1.55657 0-2.61102 1.0921-2.61102 2.24697 0 0.6402 0.53978 0.70296 0.66531 0.70296 0.30127 0 0.66531-0.21339 0.66531-0.6653 0-0.22596-0.0879-0.66531-0.74063-0.66531 0.38915-0.89125 1.24274-1.16742 1.83273-1.16742 1.25529 0 1.90805 0.97913 1.90805 1.99592 0 1.0921-0.77829 1.95825-1.17998 2.41015l-3.02526 2.9876c-0.12553 0.11295-0.12553 0.13815-0.12553 0.48957h5.1718z"/></g></g></svg>
