<?xml version="1.0" encoding="UTF-8"?>
<svg width="184.064" height="126.264" version="1.1" viewBox="0 0 184.06444 126.26435" xmlns="http://www.w3.org/2000/svg" xmlns:xlink="http://www.w3.org/1999/xlink">
 <defs>
  <marker id="marker5660" overflow="visible" orient="auto">
   <path transform="scale(.8) rotate(180) translate(12.5)" d="m0 0l5-5-17.5 5 17.5 5-5-5z" fill="#008000" fill-rule="evenodd" stroke="#008000" stroke-width="1pt"/>
  </marker>
  <marker id="Arrow1Lend" overflow="visible" orient="auto">
   <path transform="matrix(-.8 0 0 -.8 -10 0)" d="m0 0 5-5-17.5 5 17.5 5z" fill-rule="evenodd" stroke="#000" stroke-width="1pt"/>
  </marker>
  <marker id="Arrow1Lend1" overflow="visible" orient="auto">
   <path transform="matrix(-.8 0 0 -.8 -10 0)" d="m0 0 5-5-17.5 5 17.5 5z" fill="#f00" fill-rule="evenodd" stroke="#f00" stroke-width="1pt"/>
  </marker>
  <symbol id="symbol5697">
   <path d="m148.422 17.874c0-1.80102-1.32603-1.80102-1.34582-1.80102-0.79166 0-1.50415 0.83124-1.50415 1.50415 0 0.55415 0.41562 0.79165 0.59375 0.89061 0.83124 0.49478 0.98957 0.85103 0.98957 1.24686 0 0.43541-1.1479 4.76973-3.4635 4.76973-1.42498 0-1.42498-1.18749-1.42498-1.54373 0-1.1479 0.55416-2.59268 1.18748-4.17599 0.15833-0.39583 0.21771-0.57395 0.21771-0.89061 0-1.14791-1.1479-1.78123-2.23643-1.78123-2.09789 0-3.08746 2.69163-3.08746 3.08746 0 0.27708 0.29687 0.27708 0.47499 0.27708 0.2375 0 0.37604 0 0.4552-0.25729 0.63333-2.13747 1.68227-2.39476 2.03852-2.39476 0.13854 0 0.33645 0 0.33645 0.41562 0 0.4552-0.23749 1.02915-0.29687 1.18748-0.9104 2.29581-1.20727 3.18642-1.20727 4.13641 0 2.09789 1.70206 2.65205 3.42391 2.65205 3.40412 0 4.8489-5.62076 4.8489-7.32282z" stroke-width="1.64928"/>
  </symbol>
 </defs>
 <g fill="none">
  <g stroke="#000">
   <path d="m117.397 76.95l-14.8411-2.90731m32.5768 6.38165-17.7357-3.47434m39.3043 7.69952l-21.5686-4.22518m48.3631 9.4741l-26.7945-5.24892m-67.6552-8.13086 13.5098-2.47597m1.2931 5.86972l13.548-2.96241m4.4142 7.08047 13.3215-3.60613m8.93232 8.70809 12.6363-4.48291m15.6558 10.9692 11.1387-5.7203m-79.6469-9.98603l-14.8029-3.39375m32.7651 7.51181s-17.9622-4.11806-17.9622-4.11806m40.216 9.22002s-22.2538-5.10196-22.2538-5.10196m50.5459 11.5883-28.2921-6.48631m-70.8052-9.72059l15.7862-2.89318m-1.26864 6.90794 16.0715-3.51419m1.86706 8.47501s16.0952-4.35695 16.0952-4.35695m6.63514 10.6429l15.6187-5.54094m14.1192 13.7648s14.1729-7.2785 14.1729-7.2785m-84.5797-12.1921-14.5176-4.01476m32.4562 8.97558s-17.9386-4.96082-17.9386-4.96082m40.6689 11.2468-22.7303-6.28595m52.4682 14.5098l-29.7379-8.22387m-73.8775-11.836 18.691-3.42554m-4.85492 8.25074 19.3725-4.23598m-1.89717 10.3304 19.8358-5.36954m2.93212 13.3096 19.7982-7.02369m11.0956 17.7976 18.6423-9.57378m-126.094-15.9401 12.5079 5.91108 16.2304 7.67028 21.9052 10.3521 31.1867 14.7384m-45.5154-37.9664-13.8361-4.8252m31.3114 10.9196-17.4753-6.09438m40.2432 14.0345s-22.7679-7.9401-22.7679-7.9401m53.6617 18.7141-30.8938-10.774m-76.558-14.74l22.4787-4.11972m-9.97079 10.0308 23.8068-5.2056m-7.57645 12.8759 25.0518-6.7815m-3.14659 17.1336 25.9145-9.19353m5.27223 23.932 25.6216-13.158" color="#000000" stroke-linecap="round" stroke-width=".3"/>
   <path d="m138.262 93.053v-60.2504" color="#000000" stroke-dasharray="2.8, 2.8" stroke-width=".7"/>
   <path d="m31.6126 33.564 106.649-0.76109" color="#000000" stroke-dasharray="2.8, 2.8" stroke-width=".7"/>
  </g>
  <path d="m31.6126 86.948v-78.2168" color="#000000" marker="none" marker-end="url(#marker5660)" stroke="#008000" stroke-width=".800002"/>
  <g stroke-linecap="round">
   <path d="m31.6126 86.948v-53.3841" color="#000000" marker="none" marker-end="url(#Arrow1Lend1)" stroke="#f00"/>
   <path d="m31.6126 86.948 106.649 6.10521" color="#000000" marker="none" marker-end="url(#Arrow1Lend1)" stroke="#f00"/>
   <path d="m31.6126 86.948 106.649-54.1452" color="#000000" marker="none" marker-end="url(#Arrow1Lend)" stroke="#000"/>
  </g>
 </g>
 <path d="m17.5685 30.851c0-0.2111 0-0.50138-0.30352-0.50138-0.30344 0-0.30344 0.29028-0.30344 0.51458v8.03532h-3.85272c-0.22432 0-0.51456 0-0.51456 0.30346 0 0.30347 0.29024 0.30347 0.51456 0.30347h8.3256c0.21112 0 0.50136 0 0.50136-0.30347 0-0.30346-0.29024-0.30346-0.50136-0.30346h-3.86592z" fill="#f00" stroke-width="1.64928"/>
 <path d="m160.74 63.775c0-0.21111 0-0.48819-0.30344-0.48819s-0.30344 0.32986-0.30344 0.54097v12.1123c0 0.21111 0 0.54097 0.30344 0.54097s0.30344-0.27708 0.30344-0.48818zm2.7972 0.0528c0-0.2111 0-0.54097-0.30344-0.54097-0.30352 0-0.30352 0.27708-0.30352 0.4882v12.2179c0 0.2111 0 0.48818 0.30352 0.48818 0.30344 0 0.30344-0.32985 0.30344-0.54096z" fill="#f00" stroke-width="1.64928"/>
 <path d="m109.729 109.52c-0.058-0.0227-0.22588-0.0623-0.3728-3e-3 -0.0817 0.033-0.0788 0.0471-5e-3 0.23277l0.32047 0.76059c-1.34887-0.18858-2.70271-0.0306-3.80262 0.41307-2.1909 0.88372-2.06391 2.7042 0.3697 3.74742 1.66873 0.71535 3.57489 0.71279 4.78912 0.45034l2.44548-0.57477c0.82213-0.20255 2.07031-0.48761 3.83613 0.22428 1.97835 0.79759 2.70937 2.31166 1.02537 3.1189-1.11952 0.53665-3.60072 1.26835-6.37556 0.0658-0.5272-0.22848-0.96081-0.49678-1.0733-0.56149-0.0689-0.0458-0.0725-0.0634-0.11587-0.0822-0.21671-0.0938-0.36491-0.0458-0.45547-5e-3 -0.0906 0.041-0.10527 0.0669-0.0947 0.11975 0.014 0.0707 4.08088 2.77633 4.14984 2.80669 0.1381 0.0608 0.32201 0.0571 0.43193 4e-3 0.0915-0.0442 0.0867-0.0632-0.0162-0.30997 0 0-0.40994-0.9902-0.40994-0.9902 2.09345 0.20057 3.62049-0.244 4.63419-0.73404 2.32675-1.12478 1.29655-3.2642-1.41012-4.34019-1.47212-0.58521-2.75361-0.62151-3.29766-0.62911-0.86595-0.0245-1.20177 0.0519-3.19415 0.51529-0.50304 0.11279-1.33339 0.29656-1.53134 0.34696-0.65731 0.12568-1.85044 0.13162-2.92772-0.32343-1.62067-0.68458-1.88822-1.95772-0.25431-2.621 1.40224-0.56924 3.2576-0.64889 5.48276 0.23311 0.64623 0.25616 0.94563 0.42926 1.06783 0.47774 0.0204 8e-3 0.20405 0.0809 0.40229-4e-3 0.16482-0.0705 0.12004-0.10171-0.16042-0.26649l-3.45826-2.07196" stroke-linejoin="round" stroke-miterlimit="1e5" stroke-width="1.33333"/>
 <g transform="matrix(1.6 0 0 1.6 -317.292 -125.257)" fill="#008000">
  <path d="m225.628 79.9049 3.25182 1.47049 0.14346-0.263021-3.38332-1.91284-3.38332 1.91284 0.13151 0.263021z"/>
  <path d="m224.722 83.7651c-0.16738-0.597762-0.82491-0.908602-1.4705-0.908602-0.44234 0-0.77708 0.25106-1.0401 0.681451-0.29888 0.478212-0.45429 1.12378-0.45429 1.18356 0 0.167371 0.17932 0.167371 0.28692 0.167371 0.13151 0 0.17933 0 0.23911-0.05977 0.0239-0.02391 0.0239-0.04782 0.0956-0.346701 0.23911-0.932512 0.50212-1.19552 0.81296-1.19552 0.17933 0 0.27497 0.11955 0.27497 0.442341 0 0.203241-0.0478 0.394521-0.16738 0.872732-0.0837 0.334741-0.20324 0.812952-0.26301 1.07596l-0.43039 1.67373c-0.0359 0.167373-0.0956 0.394522-0.0956 0.478208 0 0.251058 0.19128 0.526028 0.56189 0.526028 0.62168 0 0.76514-0.549938 0.84883-0.908594 0.11955-0.44234 0.21519-0.824911 0.33475-1.33898 0.0478-0.15542 0.3467-1.3868 0.37061-1.42267 0.0119-0.07173 0.3467-0.609712 0.74122-0.932503 0.33474-0.263011 0.72926-0.466251 1.23138-0.466251 0.31083 0 0.59777 0.11955 0.59777 0.705352 0 0.681452-0.52604 2.0802-0.75319 2.67797-0.13151 0.322791-0.16737 0.406481-0.16737 0.609717 0 0.693402 0.6934 1.07597 1.35094 1.07597 1.26725 0 1.86501-1.6259 1.86501-1.86501 0-0.16738-0.17933-0.16738-0.28692-0.16738-0.14347 0-0.22715 0-0.27497 0.15542-0.39452 1.32703-1.0401 1.44658-1.23139 1.44658-0.0837 0-0.20323 0-0.20323-0.251059 0-0.274969 0.11955-0.573848 0.2391-0.872729 0.19128-0.490161 0.74122-1.88892 0.74122-2.55842 0-1.09987-0.92055-1.3868-1.78133-1.3868-0.25106 0-1.12379 0-1.9726 0.908602z"/>
 </g>
 <use width="100%" height="100%" xlink:href="#symbol5697"/>
 <use transform="translate(-137.849 22.639)" width="100%" height="100%" fill="#ff0000" xlink:href="#symbol5697"/>
 <use transform="translate(8.676,56.316)" width="100%" height="100%" fill="#ff0000" xlink:href="#symbol5697"/>
</svg>
