<?xml version="1.0" encoding="UTF-8"?>
<svg width="192.322" height="144.279" version="1.1" viewBox="0 0 192.32161 144.27963" xmlns="http://www.w3.org/2000/svg">
 <path d="m20.2513 121.35v-96.036c0-13.1232 10.5649-23.6881 23.6881-23.6881h66.509c13.1232 0 23.6881 10.5649 23.6881 23.6881v96.036" fill="none" stroke="#5e5bff" stroke-linejoin="round" stroke-miterlimit="100" stroke-width="2.25215"/>
 <path d="m55.4847 51.9984-11.0935-10.3512-3.87501-11.9307 13.4255-8.31267 16.8557-6.64829 4.16558 15.4536-1.94537 12.898-13.1711-0.66218z" fill="#8e8e8e"/>
 <path d="m40.5163 29.7164 13.4255-8.31267 1.69295 9.49267-3.70217 8.88447z" fill="#a0a0a0"/>
 <path d="m40.5163 29.7164 3.87501 11.9307 11.0935 10.3512-3.55219-12.2175z" fill="#8e8e8e"/>
 <path d="m55.4847 51.9984 4.36184-9.55344-4.22861-11.5464-3.68541 8.88237z" fill="#575757"/>
 <path d="m73.0177 43.1074-13.1711-0.66218-4.19026-11.4274 12.5925-1.69629z" fill="#8e8e8e"/>
 <path d="m73.0177 43.1074 1.94537-12.898-4.16558-15.4536-2.54866 14.5657z" fill="#575757"/>
 <path d="m53.9418 21.4044 16.8557-6.64829-2.54866 14.5657-12.5925 1.69629z" fill="#a0a0a0"/>
 <g stroke="#000">
  <path d="m84.9083 48.7634c12.9954-9.63436 27.0574-29.1732 26.6445-31.6507" fill="none" stroke-miterlimit="1e5" stroke-width=".724012px"/>
  <path d="m91.1169 43.3214c-0.985688 0 12.8764-27.6965 20.3698-26.0413 6.86456 1.51634-5.11968 22.4456-20.3698 26.0413z" fill="#fff" fill-opacity=".990521" stroke-miterlimit="1e5" stroke-width=".724012px"/>
  <g transform="translate(-.000846322 .000177181)" fill="none" stroke-miterlimit="100">
   <path d="m91.6416 43.0392c6.52683-6.19557 12.6413-13.737 16.3313-19.1328" stroke-width=".434407"/>
   <g stroke-width=".289605">
    <path d="m96.5603 34.8802-0.330583 3.52665 3.84822-0.63536"/>
    <path d="m99.0431 31.3622-0.277443 4.25415 4.77545-1.30838"/>
    <path d="m101.924 27.1742-0.28448 5.07732 5.02678-1.65217"/>
   </g>
  </g>
 </g>
 <path d="m70.1931 59.2944v28.2388h-9.51923l16.5 15.7612 16.5-15.7612h-9.51923v-28.2388z" fill="#f00"/>
 <rect x="98.2944" y="91.3984" width="92.877" height="21.3611" fill="#fffefe" stroke="#5e5bff" stroke-miterlimit="100" stroke-width="1.3"/>
 <path d="m115.781 107.799h-1.90874l-0.11647-0.89732h1.71463q0.25882 0 0.43999-0.15383 0.18116-0.15382 0.18116-0.33969v-8.8386h-8.89665v10.3512h-0.9576v-11.1011h10.8377v9.94742q0 0.42303-0.37528 0.72427-0.3688 0.30765-0.91878 0.30765zm-7.57024-8.12715v-0.77553h6.77439v0.77553zm1.58522 5.56979v0.65376h-0.97701v-4.62119h5.69386v3.96743zm0-0.76272h3.73983v-2.46763h-3.73983z"/>
 <path d="m128.192 107.857h-1.66287l-0.12293-0.92296h1.36523q0.22646 0 0.40116-0.14742 0.18117-0.15382 0.18117-0.34611v-2.97397h-5.00153v-0.78836h5.00153v-1.47416h-5.1633v-0.78836h3.29338v-1.78182h-2.84692v-0.80118h2.84692v-1.59594h1.04172v1.59594h3.04104v0.80118h-3.04104v1.78182h3.52631v0.78836h-1.65639v1.47416h1.30699v0.78836h-1.30699v3.41622q0 0.43585-0.35587 0.70504-0.35587 0.2692-0.84761 0.2692zm-7.92611-2.21126v0.85887h-0.9576v-9.55645h3.40985v8.69758zm1.48817-7.93486h-1.48817v3.05089h1.48817zm-1.48817 3.78797v3.38418h1.48817v-3.38418zm5.15036 5.01857q-0.49175-0.67299-1.67581-2.12793l0.76997-0.50634q0.88643 0.96783 1.74697 2.08948z"/>
 <path d="m134.798 107.267-0.92525 0.21151q-0.66644-2.1087-0.66644-4.57633 0-2.69196 0.88643-5.80693l0.99642 0.17305q-0.8929 2.91628-0.8929 5.68516 0 2.27535 0.60174 4.31354zm8.76077-8.46685q-1.02877-0.0192-1.94108-0.0192-1.33936 0-4.84625 0.17947 0-0.28842-0.0388-0.86527 3.3322-0.19229 5.41564-0.19229 1.03525 0 1.37816 0.0192v0.0577q0 0.29483 0.0324 0.8204zm0.0777 8.15279q-1.35228 0.141-2.64634 0.141-1.79874 0-2.69164-0.2051-0.88643-0.2115-1.34583-0.69222-0.45939-0.4807-0.45939-1.23702 0-1.10241 0.97055-2.32662l0.75055 0.39739q-0.79584 0.86527-0.79584 1.87156 0 0.49993 0.42703 0.80758 0.43351 0.30765 1.15172 0.41021 0.72467 0.0961 2.05108 0.0961 1.34582 0 2.58811-0.15382z"/>
 <path d="m154.073 97.8714v0.60249h-0.94465v-0.60249h-3.57161v0.62813h-0.9576v-0.62813h-3.21574v-0.73707h3.21574v-0.79478h0.9576v0.79478h3.57161v-0.79478h0.94465v0.79478h3.39691v0.73707zm-3.55219 2.66632q-0.78937 0.78196-1.4364 1.21138l-0.53703-0.49352q1.82462-1.36521 2.64634-2.9291l0.93173 0.17305q-0.17471 0.32047-0.4594 0.72427h4.39334l0.25881 0.24996q-0.86702 1.62799-2.47813 2.70478 1.75992 0.80758 3.73336 1.11524l-0.44645 0.76271q-2.3746-0.44865-4.10216-1.39084-1.79227 0.95501-4.26393 1.36522l-0.22645-0.68582q2.14813-0.37815 3.701-1.1601-1.09995-0.75632-1.71463-1.64723zm0.60174-0.634537-0.0583 0.0641q0.73762 1.05116 1.9411 1.77541 1.34581-0.86527 1.94755-1.83951zm-3.28044 0.935787q-0.72466-0.71785-1.75344-1.46776l0.64703-0.63454q0.71172 0.5384 1.7858 1.44853zm-0.73113 2.3202q-0.6988-0.66657-1.7664-1.46134l0.63409-0.66657q0.62115 0.46788 1.81168 1.42929zm-0.79586 4.57634-0.79584-0.5448q0.49821-0.57685 1.06759-1.58313 0.56939-1.00628 0.8088-1.68568l0.85407 0.29483q-0.23292 0.66018-0.84113 1.78182-0.60174 1.11524-1.09349 1.73696zm9.00018-0.22433h-4.71684v0.35893h-0.98349v-3.8008h6.67734v3.8008h-0.97701zm-4.71684-0.73709h4.71684v-1.98051h-4.71684z"/>
 <path d="m161.999 107.517-0.0388-0.91655q1.22935 0.13459 2.57518 0.13459 1.92167 6e-3 3.1575-0.60248 1.24229-0.60889 1.24229-1.76259 0-0.63453-0.20704-0.99346-0.20706-0.35893-0.82821-0.68581-0.61468-0.32688-1.66933-0.32688-1.34582 6e-3 -2.84046 0.51275-1.48817 0.50635-2.31636 1.29471l-0.64703-0.62813q1.29406-1.64721 1.75992-3.99306h-3.26103v-0.85246h3.40338q0.16175-1.11524 0.16175-1.87796l1.06113 0.0128q-0.0388 0.98064-0.14882 1.86514h7.16908v0.85246h-7.31142q-0.27822 1.59594-1.16465 3.03165 0.83466-0.44866 2.00579-0.72426 1.17112-0.27561 2.18696-0.27561 1.60462 0 2.64634 0.72426 1.04172 0.72427 1.04172 2.01257 0 1.6344-1.43641 2.47403-1.4364 0.83322-4.01804 0.83322-1.43641 0-2.52342-0.10895z"/>
 <path d="m179.74 106.671q2.42635-0.57685 2.42635-2.47404 0-1.17293-0.8929-1.81387-0.8929-0.64095-2.38107-0.64095-1.0223 0-1.99931 0.25638-0.97055 0.25639-2.23873 1.04474-1.2617 0.78836-1.75992 1.20497l-0.47879-0.78836q3.9404-2.5189 7.69964-5.30059l-6.54793 0.0257v-0.85246h7.90023l0.45291 0.65377-4.56156 3.12779 0.0517 0.0769q0.78938-0.23715 1.57228-0.23715 1.85698 0 3.04751 0.84604 1.197 0.84604 1.197 2.33944 0 1.74977-1.46228 2.67273-1.46229 0.91655-3.921 0.91655-3.37749 0-3.37749-1.83951 0-0.72426 0.69879-1.21779 0.69879-0.49352 1.53346-0.49352 1.17112 0 2.00579 0.64735 0.83466 0.64735 1.03525 1.84592zm-0.95113 0.16664q-0.37528-1.83951-2.01874-1.83951-0.52409 0-0.94466 0.25638-0.4141 0.25638-0.4141 0.6794 0 0.98064 2.29048 0.98064 0.49822 0 1.08702-0.0769z"/>
 <rect transform="rotate(-90)" x="-143.78" y=".498798" width="23.4958" height="153.39" color="#000000" color-rendering="auto" fill="#cacaca" image-rendering="auto" shape-rendering="auto" solid-color="#000000" stroke-linejoin="round" stroke-miterlimit="1e5" style="isolation:auto;mix-blend-mode:normal"/>
 <path d="m0.498869 120.284h153.39" color="#000000" color-rendering="auto" fill="none" image-rendering="auto" shape-rendering="auto" solid-color="#000000" stroke="#555" stroke-linejoin="round" stroke-miterlimit="100" stroke-width="3.00001" style="isolation:auto;mix-blend-mode:normal"/>
</svg>
