<?xml version="1.0" encoding="UTF-8"?>
<svg width="172.422" height="118.62" version="1.1" viewBox="0 0 172.421 118.61927" xmlns="http://www.w3.org/2000/svg">
 <defs>
  <marker id="marker2311" overflow="visible" orient="auto">
   <path transform="matrix(-.4 0 0 -.4 -4 0)" d="m0 0 5-5-17.5 5 17.5 5z" fill="#008000" fill-rule="evenodd" stroke="#008000" stroke-width="1pt"/>
  </marker>
  <marker id="marker2229" overflow="visible" orient="auto">
   <path transform="matrix(-.4 0 0 -.4 -4 0)" d="m0 0 5-5-17.5 5 17.5 5z" fill="#008000" fill-rule="evenodd" stroke="#008000" stroke-width="1pt"/>
  </marker>
  <marker id="marker1410" overflow="visible" orient="auto">
   <path transform="matrix(-.4 0 0 -.4 -4 0)" d="m0 0 5-5-17.5 5 17.5 5z" fill="#f00" fill-rule="evenodd" stroke="#f00" stroke-width="1pt"/>
  </marker>
  <marker id="marker1370" overflow="visible" orient="auto">
   <path transform="matrix(-.4 0 0 -.4 -4 0)" d="m0 0 5-5-17.5 5 17.5 5z" fill="#f00" fill-rule="evenodd" stroke="#f00" stroke-width="1pt"/>
  </marker>
  <marker id="Arrow1Mend" overflow="visible" orient="auto">
   <path transform="matrix(-.4 0 0 -.4 -4 0)" d="m0 0 5-5-17.5 5 17.5 5z" fill="#f00" fill-rule="evenodd" stroke="#f00" stroke-width="1pt"/>
  </marker>
 </defs>
 <rect x=".499998" y="12" width="171.421" height="106.119" color="#000000" color-rendering="auto" fill="#dcdcdc" image-rendering="auto" shape-rendering="auto" solid-color="#000000" stroke-linejoin="round" stroke-miterlimit="1e5" stroke-width=".999995" style="isolation:auto;mix-blend-mode:normal"/>
 <g fill="none" shape-rendering="auto" stroke-linejoin="round">
  <path d="m0.499998 11.9999h171.421" color="#000000" color-rendering="auto" image-rendering="auto" solid-color="#000000" stroke="#555" stroke-miterlimit="100" stroke-width="2.99999" style="isolation:auto;mix-blend-mode:normal"/>
  <path d="m132.448 79.8003h-88.1377" color="#000000" color-rendering="auto" image-rendering="auto" solid-color="#000000" stroke="#000" stroke-dasharray="1.79999584, 1.79999584" stroke-width=".299999" style="isolation:auto;mix-blend-mode:normal"/>
  <path d="m132.448 79.8003v-74.1757" color="#000000" color-rendering="auto" image-rendering="auto" solid-color="#000000" stroke="#000" stroke-dasharray="1.79999584, 1.79999584" stroke-width=".299999" style="isolation:auto;mix-blend-mode:normal"/>
 </g>
 <circle transform="rotate(-26.402)" cx="37.1322" cy="24.5746" r="4.99999" color="#000000" fill="#5e5bff"/>
 <g fill="none" shape-rendering="auto" stroke="#f00" stroke-linecap="round">
  <path d="m44.3099 5.62465 88.1377 74.1757" color="#000000" color-rendering="auto" image-rendering="auto" marker-end="url(#Arrow1Mend)" solid-color="#000000" stroke-width="1.99999" style="isolation:auto;mix-blend-mode:normal"/>
  <path d="m44.3099 5.62465 88.1377 2e-6" color="#000000" color-rendering="auto" image-rendering="auto" marker-end="url(#marker1410)" solid-color="#000000" style="isolation:auto;mix-blend-mode:normal"/>
  <path d="m44.3099 5.62465 2e-6 74.1757" color="#000000" color-rendering="auto" image-rendering="auto" marker-end="url(#marker1370)" solid-color="#000000" style="isolation:auto;mix-blend-mode:normal"/>
 </g>
 <g fill="#008000" stroke-linejoin="round" stroke-miterlimit="1e5" stroke-width="1.59999">
  <path d="m152.22 45.6381h3.25176c2.71621 0 5.37502-1.98933 5.37502-4.13168 0-1.47287-1.26246-2.88835-3.76824-2.88835h-6.19753c-0.36341 0-0.57382 0-0.57382 0.363437 0 0.229533 0.17216 0.229533 0.5547 0.229533 0.24867 0 0.59297 0.01914 0.82251 0.03826 0.30605 0.03826 0.42081 0.09565 0.42081 0.306047 0 0.07651-0.019 0.133903-0.0765 0.363437l-2.56315 10.2718c-0.19128 0.745997-0.22954 0.899022-1.74067 0.899022-0.32517 0-0.53558 0-0.53558 0.363434 0 0.229538 0.22953 0.229538 0.28692 0.229538 0.53559 0 1.89369-0.05739 2.42928-0.05739 0.40169 0 0.82249 0.01914 1.22418 0.01914 0.42083 0 0.84165 0.03826 1.24334 0.03826 0.13392 0 0.38256 0 0.38256-0.382562 0-0.21041-0.17216-0.21041-0.53558-0.21041-0.70776 0-1.24334 0-1.24334-0.344306 0-0.114768 0.0382-0.210409 0.0574-0.325178zm1.37722-5.70018c0.17215-0.669484 0.2104-0.726876 1.03293-0.726876h1.83628c1.58764 0 2.60145 0.516461 2.60145 1.83631 0 0.745994-0.38258 2.391-1.12858 3.07962-0.95641 0.860762-2.1041 1.01378-2.94573 1.01378h-2.69706z"/>
  <path d="m164.074 34.2512c0-0.200846 0-0.508795-0.32135-0.508795-0.33475 0-0.33475 0.334733-0.33475 0.575755v12.2248c0 0.241007 0 0.575757 0.33475 0.575757 0.32135 0 0.32135-0.307967 0.32135-0.508813zm2.95911 0.06696c0-0.241022 0-0.575755-0.33475-0.575755-0.32134 0-0.32134 0.307949-0.32134 0.508795v12.3587c0 0.200847 0 0.508813 0.32134 0.508813 0.33475 0 0.33475-0.33475 0.33475-0.575757z"/>
  <path d="m80.8839 106.968h3.25176c2.7162 0 5.37501-1.98933 5.37501-4.13168 0-1.47287-1.26245-2.88835-3.76825-2.88835h-6.19751c-0.36342 0-0.57384 0-0.57384 0.363441 0 0.22953 0.17216 0.22953 0.55472 0.22953 0.24867 0 0.59298 0.0191 0.82251 0.0383 0.30605 0.0383 0.42081 0.0957 0.42081 0.30605 0 0.0765-0.019 0.1339-0.0765 0.36344l-2.56318 10.2718c-0.19128 0.746-0.22953 0.89903-1.74065 0.89903-0.32518 0-0.5356 0-0.5356 0.36343 0 0.22954 0.22955 0.22954 0.28693 0.22954 0.53558 0 1.89369-0.0574 2.42927-0.0574 0.4017 0 0.82251 0.0191 1.2242 0.0191 0.42083 0 0.84165 0.0383 1.24333 0.0383 0.13392 0 0.38256 0 0.38256-0.38256 0-0.21041-0.17216-0.21041-0.53557-0.21041-0.70776 0-1.24334 0-1.24334-0.34431 0-0.11477 0.0382-0.21041 0.0574-0.32518zm1.37721-5.70018c0.17214-0.66948 0.2104-0.72688 1.03292-0.72688h1.8363c1.58763 0 2.60143 0.51647 2.60143 1.83631 0 0.746-0.38257 2.39101-1.12857 3.07963-0.95641 0.86076-2.10409 1.01378-2.94572 1.01378h-2.69706z"/>
  <path d="m96.2857 96.3448c0-0.20085 0-0.5222-0.32136-0.5222-0.33473 0-0.33473 0.30796-0.33473 0.5222v8.11414h-4.08386c-0.20085 0-0.53558 0-0.53558 0.32136 0 0.33474 0.30795 0.33474 0.53558 0.33474h8.82381c0.21424 0 0.53558 0 0.53558-0.32136 0-0.33474-0.30797-0.33474-0.53558-0.33474h-4.08386z"/>
 </g>
 <path d="m141.578 67.5441v-47.7218" fill="none" marker-end="url(#marker2311)" stroke="#008000" stroke-width="1.99999"/>
 <path d="m113.211 89.0231h-47.7218" fill="none" marker-end="url(#marker2229)" stroke="#008000" stroke-width="1.99999"/>
</svg>
