<?xml version="1.0" encoding="UTF-8"?>
<svg width="175.254" height="93.8403" version="1.1" viewBox="0 0 175.25374 93.840256" xmlns="http://www.w3.org/2000/svg" xmlns:xlink="http://www.w3.org/1999/xlink">
 <defs>
  <symbol id="g4821">
   <path d="m74.575 15.389c0-0.0574-0.0383-0.19128-0.21042-0.19128-0.0574 0-0.0765 0.0192-0.28692 0.22953l-1.33898 1.47288c-0.17214-0.26781-1.05205-1.70241-3.1753-1.70241-4.2656 0-8.56945 4.22734-8.56945 8.6651 0 3.04139 2.12323 5.24114 5.22201 5.24114 0.84165 0 1.70242-0.17215 2.39104-0.45908 0.9564-0.38256 1.31984-0.78425 1.66415-1.16683 0.17216 0.47821 0.6695 1.18595 0.86078 1.18595 0.0956 0 0.13389-0.0574 0.13389-0.0765 0.0383-0.0382 0.22955-0.76512 0.32518-1.16681l0.36344-1.47288c0.0765-0.32519 0.17216-0.65035 0.24868-0.97554 0.2104-0.86078 0.22953-0.89904 1.31984-0.91816 0.0956 0 0.30606-0.0192 0.30606-0.38256 0-0.13392-0.0956-0.21041-0.24867-0.21041-0.43995 0-1.56851 0.0574-2.00847 0.0574-0.59297 0-2.08499-0.0574-2.67796-0.0574-0.17215 0-0.4017 0-0.4017 0.38256 0 0.21041 0.15304 0.21041 0.57386 0.21041 0.0191 0 0.57384 0 1.01379 0.0382 0.49734 0.0574 0.59297 0.11472 0.59297 0.36344 0 0.17215-0.2104 1.03293-0.40169 1.74067-0.53559 2.10412-3.02226 2.31452-3.69175 2.31452-1.83632 0-3.84478-1.09031-3.84478-4.01693 0-0.59298 0.19128-3.74914 2.19974-6.23583 1.03293-1.30072 2.88837-2.46753 4.78208-2.46753 1.95108 0 3.07965 1.47286 3.07965 3.69174 0 0.76514-0.0574 0.78427-0.0574 0.97555s0.21042 0.19128 0.28693 0.19128c0.24867 0 0.24867-0.0382 0.3443-0.38256z" stroke-linejoin="round" stroke-miterlimit="1e5" stroke-width="1.6"/>
   <path d="m93.4762 22.428c0.28692 0 0.65036 0 0.65036-0.38256s-0.36344-0.38258-0.63123-0.38258h-11.4578c-0.26779 0-0.63123 0-0.63123 0.38258 0 0.38257 0.36344 0.38256 0.65037 0.38256zm0.0191 3.71088c0.26779 0 0.63123 0 0.63123-0.38256s-0.36344-0.38256-0.65036-0.38256h-11.4196c-0.28693 0-0.65037 0-0.65037 0.38256s0.36344 0.38256 0.63123 0.38256z" stroke-linejoin="round" stroke-miterlimit="1e5" stroke-width="1.6"/>
  </symbol>
 </defs>
 <g stroke-linejoin="round">
  <path d="m173.37 1.237c-14.446 34.5899-48.2568 57.1162-85.7422 57.125-37.5247-0.0361-71.3465-22.6336-85.7422-57.2871v92.2648h171.484z" color="#000000" color-rendering="auto" fill="#cacaca" image-rendering="auto" shape-rendering="auto" solid-color="#000000" stroke-miterlimit="1e5" stroke-width=".999999" style="isolation:auto;mix-blend-mode:normal"/>
  <path d="m173.37 1.237c-14.446 34.5899-48.2568 57.1162-85.7422 57.125-37.5247-0.0361-71.3465-22.6336-85.7422-57.2871" color="#000000" color-rendering="auto" fill="none" image-rendering="auto" shape-rendering="auto" solid-color="#000000" stroke="#555" stroke-miterlimit="100" stroke-width="3" style="isolation:auto;mix-blend-mode:normal"/>
  <path d="m113.333 79.298c0.32516 0 0.66948 0 0.66948-0.38256s-0.34432-0.38258-0.66948-0.38258h-10.3484c-0.32519 0-0.66949 0-0.66949 0.38258 0 0.38257 0.3443 0.38256 0.66949 0.38256z" stroke-miterlimit="1e5" stroke-width="1.6"/>
  <path d="m108.293 24.284h5.3368c0.26779 0 0.63123 0 0.63123-0.38256s-0.36344-0.38258-0.63123-0.38258h-5.3368v-5.3559c0-0.2678 0-0.63124-0.38256-0.63124s-0.38256 0.36344-0.38256 0.63124v5.3559h-5.35592c-0.2678 0-0.63124 0-0.63124 0.38258 0 0.38257 0.36344 0.38256 0.63124 0.38256h5.35592v5.35592c0 0.26779 0 0.63123 0.38256 0.63123s0.38256-0.36344 0.38256-0.63123z" stroke-miterlimit="1e5" stroke-width="1.6"/>
 </g>
 <use width="100%" height="100%" xlink:href="#g4821"/>
 <use transform="translate(.25819 55.015)" width="100%" height="100%" xlink:href="#g4821"/>
</svg>
