<?xml version="1.0" encoding="UTF-8" standalone="no"?>
<!-- Created with Inkscape (http://www.inkscape.org/) -->

<svg
   xmlns:dc="http://purl.org/dc/elements/1.1/"
   xmlns:cc="http://creativecommons.org/ns#"
   xmlns:rdf="http://www.w3.org/1999/02/22-rdf-syntax-ns#"
   xmlns:svg="http://www.w3.org/2000/svg"
   xmlns="http://www.w3.org/2000/svg"
   xmlns:sodipodi="http://sodipodi.sourceforge.net/DTD/sodipodi-0.dtd"
   xmlns:inkscape="http://www.inkscape.org/namespaces/inkscape"
   width="129.66664"
   height="116.5984"
   viewBox="0 0 129.66664 116.5984"
   version="1.1"
   id="svg8"
   inkscape:version="0.92.1 r15371"
   sodipodi:docname="P1C1_6.svg">
  <defs
     id="defs2">
    <marker
       style="overflow:visible"
       id="Arrow1Lend-3-1-1"
       refX="0"
       refY="0"
       orient="auto"
       inkscape:stockid="Arrow1Lend">
      <path
         transform="matrix(-0.8,0,0,-0.8,-10,0)"
         style="fill-rule:evenodd;stroke:#000000;stroke-width:1.00000003pt"
         d="M 0,0 5,-5 -12.5,0 5,5 Z"
         id="path3837-1-5-3"
         inkscape:connector-curvature="0" />
    </marker>
    <marker
       style="overflow:visible"
       id="marker1252"
       refX="0"
       refY="0"
       orient="auto"
       inkscape:stockid="Arrow1Lend">
      <path
         transform="matrix(-0.8,0,0,-0.8,-10,0)"
         style="fill-rule:evenodd;stroke:#000000;stroke-width:1.00000003pt"
         d="M 0,0 5,-5 -12.5,0 5,5 Z"
         id="path1250"
         inkscape:connector-curvature="0" />
    </marker>
  </defs>
  <sodipodi:namedview
     id="base"
     pagecolor="#ffffff"
     bordercolor="#666666"
     borderopacity="1.0"
     inkscape:pageopacity="0.0"
     inkscape:pageshadow="2"
     inkscape:zoom="0.35"
     inkscape:cx="187.34982"
     inkscape:cy="42.395055"
     inkscape:document-units="px"
     inkscape:current-layer="layer1"
     showgrid="false"
     units="px"
     inkscape:window-width="659"
     inkscape:window-height="359"
     inkscape:window-x="104"
     inkscape:window-y="104"
     inkscape:window-maximized="0"
     fit-margin-top="0.5"
     fit-margin-left="0.5"
     fit-margin-bottom="0.5"
     fit-margin-right="0.5" />
  <metadata
     id="metadata5">
    <rdf:RDF>
      <cc:Work
         rdf:about="">
        <dc:format>image/svg+xml</dc:format>
        <dc:type
           rdf:resource="http://purl.org/dc/dcmitype/StillImage" />
        <dc:title></dc:title>
      </cc:Work>
    </rdf:RDF>
  </metadata>
  <g
     inkscape:label="レイヤー 1"
     inkscape:groupmode="layer"
     id="layer1"
     transform="translate(-32.309533,-260.44186)">
    <path
       inkscape:connector-curvature="0"
       sodipodi:nodetypes="ccc"
       id="path4357"
       d="m 104.17943,311.24895 25.53741,-18.54776 20.23786,24.22679"
       style="color:#000000;display:inline;overflow:visible;visibility:visible;fill:none;stroke:#414141;stroke-width:0.99999994;stroke-linecap:butt;stroke-linejoin:miter;stroke-miterlimit:4;stroke-dasharray:none;stroke-dashoffset:0;stroke-opacity:1;marker:none;enable-background:accumulate" />
    <circle
       id="path4349"
       style="color:#000000;display:inline;overflow:visible;visibility:visible;fill:none;stroke:#009da3;stroke-width:0.5;stroke-linecap:butt;stroke-linejoin:miter;stroke-miterlimit:4;stroke-dasharray:none;stroke-dashoffset:0;stroke-opacity:1;marker:none;enable-background:accumulate"
       cx="129.71684"
       cy="292.7012"
       r="31.509333" />
    <path
       inkscape:connector-curvature="0"
       style="color:#000000;display:inline;overflow:visible;visibility:visible;fill:none;stroke:#009da3;stroke-width:0.5;stroke-linecap:butt;stroke-linejoin:miter;stroke-miterlimit:4;stroke-dasharray:none;stroke-dashoffset:0;stroke-opacity:1;marker:none;enable-background:accumulate"
       d="M 64.369739,310.65135 109.07882,268.89368"
       id="path4425"
       sodipodi:nodetypes="cc" />
    <path
       inkscape:connector-curvature="0"
       style="color:#000000;display:inline;overflow:visible;visibility:visible;fill:none;stroke:#009da3;stroke-width:0.5;stroke-linecap:butt;stroke-linejoin:miter;stroke-miterlimit:4;stroke-dasharray:none;stroke-dashoffset:0;stroke-opacity:1;marker:none;enable-background:accumulate"
       d="m 68.837988,322.73948 60.597232,1.46628"
       id="path4427"
       sodipodi:nodetypes="cc" />
    <ellipse
       ry="7.1299787"
       rx="7.1563349"
       id="path4408"
       style="color:#000000;display:inline;overflow:visible;visibility:visible;fill:none;stroke:#009da3;stroke-width:0.5;stroke-linecap:butt;stroke-linejoin:miter;stroke-miterlimit:4;stroke-dasharray:none;stroke-dashoffset:0;stroke-opacity:1;marker:none;enable-background:accumulate"
       cx="69.485527"
       cy="315.63657" />
    <path
       style="color:#000000;display:inline;overflow:visible;visibility:visible;fill:none;stroke:#414141;stroke-width:0.99999994;stroke-linecap:butt;stroke-linejoin:miter;stroke-miterlimit:4;stroke-dasharray:none;stroke-dashoffset:0;stroke-opacity:1;marker:none;enable-background:accumulate"
       d="m 45.169888,333.29092 24.315642,-17.65435 36.75292,43.98195"
       id="path983"
       sodipodi:nodetypes="ccc"
       inkscape:connector-curvature="0" />
    <path
       style="stroke-width:1.49999988;stroke-linecap:butt;stroke-linejoin:round;stroke-miterlimit:100000"
       d="m 128.45993,369.12425 h 1.656 c 0.342,0 0.522,0 0.522,-0.324 0,-0.198 -0.108,-0.198 -0.468,-0.198 h -1.584 l 0.666,-2.628 c 0.072,-0.252 0.072,-0.288 0.072,-0.414 0,-0.288 -0.234,-0.45 -0.468,-0.45 -0.144,0 -0.558,0.054 -0.702,0.63 l -0.702,2.862 h -1.69201 c -0.36,0 -0.522,0 -0.522,0.342 0,0.18 0.126,0.18 0.468,0.18 h 1.60201 l -1.18801,4.752 c -0.144,0.63 -0.198,0.81 -0.198,1.044 0,0.846 0.594,1.62 1.60201,1.62 1.818,0 2.79,-2.628 2.79,-2.754 0,-0.108 -0.072,-0.162 -0.18,-0.162 -0.036,0 -0.108,0 -0.144,0.072 -0.018,0.018 -0.036,0.036 -0.162,0.324 -0.378,0.9 -1.206,2.16 -2.25,2.16 -0.54,0 -0.576,-0.45 -0.576,-0.846 0,-0.018 0,-0.36 0.054,-0.576 z"
       id="use971-3"
       inkscape:connector-curvature="0" />
    <path
       style="stroke-width:1.49999988;stroke-linecap:butt;stroke-linejoin:round;stroke-miterlimit:100000"
       d="m 40.837533,294.11306 c -0.576,0.108 -0.792,0.54 -0.792,0.882 0,0.432 0.342,0.576 0.594,0.576 0.539999,0 0.917999,-0.468 0.917999,-0.954 0,-0.756 -0.863999,-1.098 -1.619999,-1.098 -1.098,0 -1.71,1.08 -1.872,1.422 -0.414,-1.35 -1.53,-1.422 -1.854,-1.422 -1.836,0 -2.808,2.358 -2.808,2.754 0,0.072 0.072,0.162 0.198,0.162 0.144,0 0.18,-0.108 0.216,-0.18 0.612,-1.998 1.818,-2.376 2.34,-2.376 0.81,0 0.972,0.756 0.972,1.188 0,0.396 -0.108,0.81 -0.324,1.674 l -0.612,2.466 c -0.27,1.08 -0.792,2.07 -1.746,2.07 -0.09,0 -0.54,0 -0.918,-0.234 0.648,-0.126 0.792,-0.666 0.792,-0.882 0,-0.36 -0.27,-0.57601 -0.612,-0.57601 -0.432,0 -0.9,0.37801 -0.9,0.95401 0,0.756 0.846,1.098 1.62,1.098 0.864,0 1.476,-0.684 1.854,-1.422 0.288,1.062 1.188,1.422 1.854,1.422 1.836,0 2.808,-2.35801 2.808,-2.754 0,-0.09 -0.072,-0.16201 -0.18,-0.16201 -0.162,0 -0.18,0.09 -0.234,0.23401 -0.486,1.584 -1.53,2.322 -2.34,2.322 -0.63,0 -0.972,-0.468 -0.972,-1.206 0,-0.39601 0.072,-0.68401 0.36,-1.87201 l 0.63,-2.44799 c 0.27,-1.08 0.882,-1.872 1.71,-1.872 0.036,0 0.54,0 0.918,0.234 z"
       id="use973-3"
       inkscape:connector-curvature="0" />
    <path
       inkscape:connector-curvature="0"
       id="path975-4"
       d="M 36.829982,371.10043 V 306.8018"
       style="color:#000000;display:inline;overflow:visible;visibility:visible;fill:none;stroke:#000000;stroke-width:0.60000002;stroke-linecap:butt;stroke-linejoin:miter;stroke-miterlimit:4;stroke-dasharray:none;stroke-dashoffset:0;stroke-opacity:1;marker:none;marker-end:url(#Arrow1Lend-3-1-1);enable-background:accumulate" />
    <path
       style="color:#000000;display:inline;overflow:visible;visibility:visible;fill:none;stroke:#000000;stroke-width:0.60000002;stroke-linecap:butt;stroke-linejoin:miter;stroke-miterlimit:4;stroke-dasharray:none;stroke-dashoffset:0;stroke-opacity:1;marker:none;marker-end:url(#Arrow1Lend-3-1-1);enable-background:accumulate"
       d="M 36.829981,371.10042 H 119.21556"
       id="path977-2"
       inkscape:connector-curvature="0" />
  </g>
</svg>
