<?xml version="1.0" encoding="UTF-8"?>
<svg width="166.015" height="122.664" version="1.1" viewBox="0 0 166.01448 122.66374" xmlns="http://www.w3.org/2000/svg" xmlns:xlink="http://www.w3.org/1999/xlink">
 <defs>
  <marker id="Arrow1Lend" overflow="visible" orient="auto">
   <path transform="matrix(-.8 0 0 -.8 -10 0)" d="m0 0 5-5-17.5 5 17.5 5z" fill-rule="evenodd" stroke="#000" stroke-width="1pt"/>
  </marker>
  <symbol id="symbol4812">
   <path d="m111.722 85.4051c-0.018-0.054-0.09-0.198-0.09-0.252 0-0.018 0.018-0.036 0.324-0.26999l1.74599-1.368c2.41198-1.87199 3.20398-2.50198 4.44597-2.60998 0.126-0.018 0.306-0.018 0.306-0.324 0-0.108-0.054-0.198-0.198-0.198-0.198 0-0.414 0.036-0.61199 0.036h-0.684c-0.558 0-1.15199-0.036-1.69199-0.036-0.126 0-0.342 0-0.342 0.324 0 0.18 0.126 0.198 0.234 0.198 0.198 0.018 0.432 0.09 0.432 0.342 0 0.35999-0.54 0.79199-0.684 0.89999l-7.05596 5.48997 1.494-5.93997c0.162-0.61199 0.19799-0.79199 1.47599-0.79199 0.342 0 0.50399 0 0.50399-0.342 0-0.18-0.17999-0.18-0.26999-0.18-0.324 0-0.702 0.036-1.044 0.036h-2.12399c-0.32399 0-0.71999-0.036-1.04399-0.036-0.144 0-0.342 0-0.342 0.342 0 0.18 0.162 0.18 0.432 0.18 1.09799 0 1.09799 0.144 1.09799 0.342 0 0.036 0 0.144-0.072 0.41399l-2.42998 9.68395c-0.162 0.62999-0.198 0.80999-1.45799 0.80999-0.342 0-0.522 0-0.522 0.324 0 0.198 0.162 0.198 0.27 0.198 0.342 0 0.70199-0.036 1.04399-0.036h2.10599c0.342 0 0.72 0.036 1.06199 0.036 0.144 0 0.342 0 0.342-0.342 0-0.18-0.162-0.18-0.432-0.18-1.09799 0-1.09799-0.144-1.09799-0.324 0-0.126 0.108-0.57599 0.18-0.86399l0.702-2.78998 2.73598-2.14199c0.522 1.15199 1.47599 3.45598 2.21399 5.21997 0.054 0.108 0.09 0.216 0.09 0.342 0 0.53999-0.72 0.55799-0.882 0.55799s-0.342 0-0.342 0.342c0 0.18 0.198 0.18 0.252 0.18 0.63 0 1.29599-0.036 1.92599-0.036h0.864c0.26999 0 0.57599 0.036 0.84599 0.036 0.108 0 0.306 0 0.306-0.342 0-0.18-0.162-0.18-0.342-0.18-0.666-0.018-0.89999-0.162-1.16999-0.80999z" stroke-width="1.49999"/>
  </symbol>
  <symbol id="symbol4823">
   <path d="m72.1735 24.9832c-0.68862 0.191279-1.03292 0.841622-1.03292 1.31982 0 0.420828 0.325182 0.879894 0.95641 0.879894 0.669468 0 1.37721-0.554714 1.37721-1.49198 0-1.0138-1.01379-1.68327-2.1806-1.68327-1.0903 0-1.79802 0.822518-2.04669 1.16682-0.478205-0.803383-1.54938-1.16682-2.63966-1.16682-2.41013 0-3.71086 2.35275-3.71086 2.98398 0 0.267788 0.286926 0.267788 0.459085 0.267788 0.229534 0 0.363438 0 0.439949-0.248653 0.554717-1.74064 1.93192-2.3145 2.71618-2.3145 0.72686 0 1.07116 0.3443 1.07116 0.956405 0 0.363435-0.26779 1.41547-0.439949 2.10408l-0.650332 2.62053c-0.286926 1.16682-0.975546 1.74066-1.62589 1.74066-0.09568 0-0.53558 0-0.918138-0.28692 0.688588-0.191282 1.03291-0.841635 1.03291-1.31984 0-0.420811-0.325182-0.879893-0.956394-0.879893-0.669484 0-1.37722 0.554713-1.37722 1.49199 0 1.01379 1.01379 1.68327 2.1806 1.68327 1.0903 0 1.79804-0.822505 2.04671-1.16681 0.478189 0.803378 1.54937 1.16681 2.63966 1.16681 2.41013 0 3.71082-2.35274 3.71082-2.98396 0-0.267805-0.28691-0.267805-0.459069-0.267805-0.229535 0-0.363422 0-0.439933 0.248669-0.554717 1.74064-1.93194 2.3145-2.71618 2.3145-0.726876 0-1.07118-0.344305-1.07118-0.956402 0-0.401686 0.248671-1.41548 0.420814-2.12322 0.133919-0.497322 0.573852-2.29536 0.669484-2.60141 0.28691-1.14768 0.956394-1.74064 1.62588-1.74064 0.09568 0 0.535597 0 0.918155 0.286925z" stroke-linejoin="round" stroke-miterlimit="1e5" stroke-width="1.59998"/>
  </symbol>
 </defs>
 <g shape-rendering="auto">
  <rect transform="rotate(-90)" x="-122.164" y="90.1979" width="121.664" height="75.3165" color="#000000" color-rendering="auto" fill="#dcdcdc" image-rendering="auto" solid-color="#000000" stroke-linejoin="round" stroke-miterlimit="1e5" stroke-width=".999995" style="isolation:auto;mix-blend-mode:normal"/>
  <path d="m90.1979 122.164v-121.664" color="#000000" color-rendering="auto" fill="none" image-rendering="auto" solid-color="#000000" stroke="#555" stroke-linejoin="round" stroke-miterlimit="100" stroke-width="2.99999" style="isolation:auto;mix-blend-mode:normal"/>
  <g stroke-width=".999997">
   <circle cx="17.9376" cy="85.7778" r="9.99714" color="#000000" color-rendering="auto" fill="#f44" image-rendering="auto" solid-color="#000000" style="isolation:auto;mix-blend-mode:normal"/>
   <path d="m17.9376 97.6167a17.4383 17.4383 0 0 0 -17.4373 17.4387h34.8759a17.4383 17.4383 0 0 0 -17.4387 -17.4387z" color="#000000" color-rendering="auto" fill="#f44" image-rendering="auto" solid-color="#000000" style="isolation:auto;mix-blend-mode:normal"/>
   <circle cx="136.332" cy="85.7784" r="9.99714" color="#000000" color-rendering="auto" fill="#44f" image-rendering="auto" solid-color="#000000" style="isolation:auto;mix-blend-mode:normal"/>
   <path d="m136.332 97.6165a17.4383 17.4383 0 0 0 -17.4373 17.4387h34.8759a17.4383 17.4383 0 0 0 -17.4387 -17.4387z" color="#000000" color-rendering="auto" fill="#44f" image-rendering="auto" solid-color="#000000" style="isolation:auto;mix-blend-mode:normal"/>
  </g>
 </g>
 <path d="m122.189 79.5571c0.06-0.156 0.108-0.24 0.108-0.36 0-0.396-0.36-0.66-0.696-0.66-0.47999 0-0.61199 0.42-0.65999 0.588l-1.52399 5.17197c-0.048 0.144-0.048 0.18-0.048 0.192 0 0.108 0.072 0.132 0.19199 0.168 0.216 0.096 0.24 0.096 0.264 0.096 0.036 0 0.108 0 0.192-0.204z" fill="#00f" stroke-width="1.49999"/>
 <path d="m136.066 75.7845-93.7529-50.8104" color="#000000" color-rendering="auto" fill="none" image-rendering="auto" marker-end="url(#Arrow1Lend)" solid-color="#000000" stroke="#000" stroke-dasharray="1.99998803, 1.99998803" stroke-width=".499997" style="isolation:auto;mix-blend-mode:normal"/>
 <path d="m78.4103 18.4358c0.107199-0.227613 0.120479-0.33473 0.120479-0.428458 0-0.415084-0.37491-0.736438-0.789995-0.736438-0.508813 0-0.669484 0.415082-0.736443 0.629319l-1.76741 5.79771c-0.0128 0.02678-0.06704 0.200843-0.06704 0.214233 0 0.160675 0.415085 0.294573 0.522205 0.294573 0.09376 0 0.107039-0.02678 0.200846-0.227624z" stroke-linejoin="round" stroke-miterlimit="1e5" stroke-width="1.59998"/>
 <path d="m18.8298 75.8208 17.4006-48.5323" color="#000000" color-rendering="auto" fill="none" image-rendering="auto" marker-end="url(#Arrow1Lend)" solid-color="#000000" stroke="#000" stroke-dasharray="1.99998803, 1.99998803" stroke-width=".499997" style="isolation:auto;mix-blend-mode:normal"/>
 <circle transform="rotate(-26.402)" cx="23.9151" cy="37.0936" r="4.99999" color="#000000" fill="#5e5bff"/>
 <use width="100%" height="100%" fill="#0000ff" stroke-width="1.49999" style="font-variant-east_asian:normal" xlink:href="#symbol4812"/>
 <use transform="translate(-70.4469 -4e-4)" width="100%" height="100%" fill="#ff0000" stroke-width="1.49999" style="font-variant-east_asian:normal" xlink:href="#symbol4812"/>
 <use width="100%" height="100%" xlink:href="#symbol4823"/>
 <use transform="translate(-47.5266 5.00064)" width="100%" height="100%" xlink:href="#symbol4823"/>
</svg>
