<?xml version="1.0" encoding="UTF-8"?>
<svg width="187.678" height="110.574" version="1.1" viewBox="0 0 187.67776 110.57377" xmlns="http://www.w3.org/2000/svg"><defs><marker id="marker5972" overflow="visible" orient="auto"><path transform="matrix(-.4 0 0 -.4 -4 0)" d="m0 0 5-5-17.5 5 17.5 5z" fill="#fff" fill-rule="evenodd" stroke="#fff" stroke-width="1pt"/></marker></defs><g transform="translate(70.9817 -246.311)"><g shape-rendering="auto"><rect transform="rotate(90)" x="277.206" y="-13.7199" width="49.7226" height="84.2017" color="#000000" color-rendering="auto" fill="#8b8b8b" image-rendering="auto" solid-color="#000000" style="isolation:auto;mix-blend-mode:normal"/><path d="m13.7199 277.206v49.7226" color="#000000" color-rendering="auto" fill="none" image-rendering="auto" solid-color="#000000" stroke="#3d3d3d" stroke-width="5" style="isolation:auto;mix-blend-mode:normal"/><path d="m-53.1539 297.568h55.3727" color="#000000" color-rendering="auto" fill="none" image-rendering="auto" marker-end="url(#marker5972)" solid-color="#000000" stroke="#fff" stroke-width="2" style="isolation:auto;mix-blend-mode:normal"/><g><circle cx="87.0446" cy="317.04" r="13.435" color="#000000" color-rendering="auto" fill="#f44" image-rendering="auto" solid-color="#000000" style="isolation:auto;mix-blend-mode:normal"/><path d="m87.0436 332.95a23.435 23.435 0 0 0 -23.4336 23.4355h46.8691a23.435 23.435 0 0 0 -23.4355 -23.4355z" color="#000000" color-rendering="auto" fill="#f44" image-rendering="auto" solid-color="#000000" style="isolation:auto;mix-blend-mode:normal"/><circle cx="-2.76587" cy="254.82" r="7.64412" color="#000000" color-rendering="auto" fill="#44f" image-rendering="auto" solid-color="#000000" style="isolation:auto;mix-blend-mode:normal"/><path d="m-2.76644 263.872a13.3338 13.3338 0 0 0 -13.333 13.3341h26.6671a13.3338 13.3338 0 0 0 -13.3341 -13.3341z" color="#000000" color-rendering="auto" fill="#44f" image-rendering="auto" solid-color="#000000" style="isolation:auto;mix-blend-mode:normal"/></g></g><g stroke-width="1.5"><path d="m109.464 296.427c-0.018-0.054-0.09-0.198-0.09-0.252 0-0.018 0.018-0.036 0.324-0.27l1.746-1.368c2.412-1.872 3.204-2.502 4.446-2.61 0.126-0.018 0.306-0.018 0.306-0.324 0-0.108-0.054-0.198-0.198-0.198-0.198 0-0.414 0.036-0.612 0.036h-0.684c-0.558 0-1.152-0.036-1.692-0.036-0.126 0-0.342 0-0.342 0.324 0 0.18 0.126 0.198 0.234 0.198 0.198 0.018 0.432 0.09 0.432 0.342 0 0.36-0.54 0.792-0.684 0.9l-7.056 5.49 1.494-5.94c0.162-0.612 0.198-0.792 1.476-0.792 0.342 0 0.504 0 0.504-0.342 0-0.18-0.18-0.18-0.27-0.18-0.324 0-0.702 0.036-1.044 0.036h-2.124c-0.324 0-0.72-0.036-1.044-0.036-0.144 0-0.342 0-0.342 0.342 0 0.18 0.162 0.18 0.432 0.18 1.098 0 1.098 0.144 1.098 0.342 0 0.036 0 0.144-0.072 0.414l-2.43 9.684c-0.162 0.63-0.198 0.81-1.458 0.81-0.342 0-0.522 0-0.522 0.324 0 0.198 0.162 0.198 0.27 0.198 0.342 0 0.702-0.036 1.044-0.036h2.106c0.342 0 0.72 0.036 1.062 0.036 0.144 0 0.342 0 0.342-0.342 0-0.18-0.162-0.18-0.432-0.18-1.098 0-1.098-0.144-1.098-0.324 0-0.126 0.108-0.576 0.18-0.864l0.702-2.79 2.736-2.142c0.522 1.152 1.476 3.456 2.214 5.22 0.054 0.108 0.09 0.216 0.09 0.342 0 0.54-0.72 0.558-0.882 0.558s-0.342 0-0.342 0.342c0 0.18 0.198 0.18 0.252 0.18 0.63 0 1.296-0.036 1.926-0.036h0.864c0.27 0 0.576 0.036 0.846 0.036 0.108 0 0.306 0 0.306-0.342 0-0.18-0.162-0.18-0.342-0.18-0.666-0.018-0.9-0.162-1.17-0.81z" fill="#f00"/><path d="m19.1597 253.679c-0.018-0.054-0.09-0.198-0.09-0.252 0-0.018 0.018-0.036 0.324-0.27l1.746-1.368c2.412-1.872 3.204-2.502 4.446-2.61 0.126-0.018 0.306-0.018 0.306-0.324 0-0.108-0.054-0.198-0.198-0.198-0.198 0-0.414 0.036-0.612 0.036h-0.684c-0.558 0-1.152-0.036-1.692-0.036-0.126 0-0.342 0-0.342 0.324 0 0.18 0.126 0.198 0.234 0.198 0.198 0.018 0.432 0.09 0.432 0.342 0 0.36-0.54 0.792-0.684 0.9l-7.056 5.49 1.494-5.94c0.162-0.612 0.198-0.792 1.476-0.792 0.342 0 0.504 0 0.504-0.342 0-0.18-0.18-0.18-0.27-0.18-0.324 0-0.702 0.036-1.044 0.036h-2.124c-0.324 0-0.72-0.036-1.044-0.036-0.144 0-0.342 0-0.342 0.342 0 0.18 0.162 0.18 0.432 0.18 1.098 0 1.098 0.144 1.098 0.342 0 0.036 0 0.144-0.072 0.414l-2.43 9.684c-0.162 0.63-0.198 0.81-1.458 0.81-0.342 0-0.522 0-0.522 0.324 0 0.198 0.162 0.198 0.27 0.198 0.342 0 0.702-0.036 1.044-0.036h2.106c0.342 0 0.72 0.036 1.062 0.036 0.144 0 0.342 0 0.342-0.342 0-0.18-0.162-0.18-0.432-0.18-1.098 0-1.098-0.144-1.098-0.324 0-0.126 0.108-0.576 0.18-0.864l0.702-2.79 2.736-2.142c0.522 1.152 1.476 3.456 2.214 5.22 0.054 0.108 0.09 0.216 0.09 0.342 0 0.54-0.72 0.558-0.882 0.558s-0.342 0-0.342 0.342c0 0.18 0.198 0.18 0.252 0.18 0.63 0 1.296-0.036 1.926-0.036h0.864c0.27 0 0.576 0.036 0.846 0.036 0.108 0 0.306 0 0.306-0.342 0-0.18-0.162-0.18-0.342-0.18-0.666-0.018-0.9-0.162-1.17-0.81z" fill="#00f"/><path d="m29.6267 247.831c0.06-0.156 0.108-0.24 0.108-0.36 0-0.396-0.36-0.66-0.696-0.66-0.48 0-0.612 0.42-0.66 0.588l-1.524 5.172c-0.048 0.144-0.048 0.18-0.048 0.192 0 0.108 0.072 0.132 0.192 0.168 0.216 0.096 0.24 0.096 0.264 0.096 0.036 0 0.108 0 0.192-0.204z" fill="#00f"/></g><g fill="#fff" stroke-width="1.5"><path d="m-43.9918 305.386c0-1.638-1.206-1.638-1.224-1.638-0.72 0-1.368 0.756-1.368 1.368 0 0.504 0.378 0.72 0.54 0.81 0.756 0.45 0.9 0.774 0.9 1.134 0 0.396-1.044 4.338-3.15 4.338-1.296 0-1.296-1.08-1.296-1.404 0-1.044 0.504-2.358 1.08-3.798 0.144-0.36 0.198-0.522 0.198-0.81 0-1.044-1.044-1.62-2.034-1.62-1.908 0-2.808 2.448-2.808 2.808 0 0.252 0.27 0.252 0.432 0.252 0.216 0 0.342 0 0.414-0.234 0.576-1.944 1.53-2.178 1.854-2.178 0.126 0 0.306 0 0.306 0.378 0 0.414-0.216 0.936-0.27 1.08-0.828 2.088-1.098 2.898-1.098 3.762 0 1.908 1.548 2.412 3.114 2.412 3.096 0 4.41-5.112 4.41-6.66z"/><path d="m-34.9439 310.642c0.108-0.276 0.312-0.804 1.02-0.816v-0.396c-0.396 0.036-0.42 0.036-0.936 0.036-0.384 0-0.708 0-1.092-0.036v0.396c0.528 0.024 0.66 0.336 0.66 0.552 0 0.144-0.036 0.216-0.06 0.3l-1.14 2.988-1.236-3.276c-0.06-0.156-0.06-0.192-0.06-0.24 0-0.312 0.384-0.324 0.672-0.324v-0.396c-0.468 0.036-1.104 0.036-1.224 0.036-0.264 0-0.756 0-1.116-0.036v0.396c0.732 0 0.756 0.06 0.984 0.696l-1.104 2.964-1.188-3.108c-0.012-0.048-0.06-0.18-0.06-0.228 0-0.324 0.456-0.324 0.672-0.324v-0.396c-0.516 0.036-1.056 0.036-1.284 0.036-0.216 0-0.828 0-1.176-0.036v0.396c0.6 0 0.72 0.048 0.852 0.384l1.608 4.224c0.072 0.18 0.108 0.288 0.3 0.288 0.204 0 0.252-0.132 0.312-0.288l1.272-3.372 1.272 3.372c0.06 0.156 0.108 0.288 0.312 0.288 0.192 0 0.24-0.12 0.288-0.252z"/><path d="m-28.9694 311.026c0-1.176-1.14-1.776-2.232-1.776-0.996 0-1.884 0.384-1.884 1.176 0 0.36 0.252 0.576 0.564 0.576 0.336 0 0.564-0.24 0.564-0.564 0-0.288-0.18-0.492-0.444-0.552 0.444-0.3 1.092-0.3 1.176-0.3 0.672 0 1.344 0.468 1.344 1.452v0.372c-0.696 0.036-1.5 0.072-2.34 0.42-1.056 0.456-1.26 1.152-1.26 1.548 0 1.032 1.212 1.344 2.04 1.344 0.876 0 1.416-0.492 1.68-0.972 0.06 0.456 0.372 0.912 0.9 0.912 0.12 0 1.14-0.048 1.14-1.14v-0.66h-0.372v0.66c0 0.492-0.18 0.684-0.432 0.684-0.444 0-0.444-0.552-0.444-0.684zm-0.912 1.884c0 1.164-0.984 1.476-1.464 1.476-0.624 0-1.152-0.42-1.152-0.996 0-0.792 0.744-1.608 2.616-1.668z"/><path d="m-25.3424 306.274-1.788 0.132v0.396c0.816 0 0.912 0.084 0.912 0.672v6.192c0 0.54-0.144 0.54-0.912 0.54v0.396c0.468-0.036 1.14-0.036 1.344-0.036 0.24 0 0.888 0 1.356 0.036v-0.396c-0.768 0-0.912 0-0.912-0.54z"/><path d="m-21.8009 306.274-1.788 0.132v0.396c0.816 0 0.912 0.084 0.912 0.672v6.192c0 0.54-0.144 0.54-0.912 0.54v0.396c0.468-0.036 1.14-0.036 1.344-0.036 0.24 0 0.888 0 1.356 0.036v-0.396c-0.768 0-0.912 0-0.912-0.54z"/></g></g></svg>
