<?xml version="1.0" encoding="UTF-8"?>
<svg width="177.837" height="99.7646" version="1.1" viewBox="0 0 177.8372 99.764589" xmlns="http://www.w3.org/2000/svg" xmlns:xlink="http://www.w3.org/1999/xlink">
 <defs>
  <symbol id="symbol5283">
   <path d="m8.46568 48.6732 1.9e-4 -34.3516 2.03906 2.03906-2.5391-8.88675-2.53907 8.88672 2.03907-2.03906v35.3516h35.3516l-2.03906 2.03906 8.88672-2.53906-8.88672-2.53906 2.03906 2.03906z" color="#000000" color-rendering="auto" dominant-baseline="auto" image-rendering="auto" shape-rendering="auto" solid-color="#000000" style="font-feature-settings:normal;font-variant-alternates:normal;font-variant-caps:normal;font-variant-ligatures:normal;font-variant-numeric:normal;font-variant-position:normal;isolation:auto;mix-blend-mode:normal;shape-padding:0;text-decoration-color:#000000;text-decoration-line:none;text-decoration-style:solid;text-indent:0;text-orientation:mixed;text-transform:none;white-space:normal"/>
  </symbol>
 </defs>
 <path d="m77.5019 79.9973c29.231-11.5852 51.9344-36.2367 62.6197-66.6041" color="#000000" color-rendering="auto" fill="none" image-rendering="auto" solid-color="#000000" stroke="#000" stroke-dasharray="3.00000522, 3.00000522" stroke-linejoin="round" stroke-miterlimit="1e5" stroke-width=".500001" style="isolation:auto;mix-blend-mode:normal"/>
 <use transform="translate(113.172 -1.74565)" width="100%" height="100%" fill="#0000ff" xlink:href="#symbol5283"/>
 <use transform="translate(97.769 14.1102)" width="100%" height="100%" fill="#8383ff" xlink:href="#symbol5283"/>
 <use transform="translate(84.8712 23.4056)" width="100%" height="100%" fill="#c8c8ff" xlink:href="#symbol5283"/>
 <use transform="matrix(0 -1 -1 0 70.2057 85.9411)" width="100%" height="100%" fill="#c8c8ff" xlink:href="#symbol5283"/>
 <use transform="matrix(-.258819 -.965926 -.965926 .258819 70.7383 73.0549)" width="100%" height="100%" fill="#8383ff" xlink:href="#symbol5283"/>
 <use transform="matrix(-.5 -.866025 -.866025 .5 67.9176 60.4701)" width="100%" height="100%" fill="#0000ff" xlink:href="#symbol5283"/>
 <g fill="#00f">
  <path d="m29.3144 98.4117h-9.32943v0.70964h-0.963542v-11.0547h11.2891v11.0026h-0.996094zm-9.32943-0.78776h9.32943v-8.76953h-9.32943zm1.98568-1.90104v-4.99349h5.22135v4.99349zm4.21875-4.23177h-3.22266v3.42448h3.22266z"/>
  <path d="m31.8665 97.0315v-0.74869h2.5v-1.1263h-2.14844v-4.80469h2.17448v-1.10026h-2.44792v-0.7487h2.44792v-1.1263h0.963541v1.1263h2.36979v0.7487h-2.36979v1.10026h2.13542v4.80469h-2.16146v1.1263h2.36979v0.74869h-2.36979v2.23307h-0.963542v-2.23307zm1.25-4.68099h1.30208v-1.32812h-1.30208zm2.17448 0h1.27604v-1.32812h-1.27604zm1.27604 0.67058h-1.27604v1.4388h1.27604zm-2.14844 0h-1.30208v1.4388h1.30208zm4.04297-4.13411v-0.80079h5.33203v0.80079zm-0.800781 10.1823-0.208333-0.82683q0.332031-0.0195 0.800781-0.0651 0.807291-1.97266 1.71224-5.48177h-1.875v-0.80729h5.97005v0.80729h-3.02734q-0.859375 3.15755-1.79036 5.3776 1.95312-0.22786 3.41797-0.48828-0.559896-1.3737-1.07422-2.52604l0.898437-0.28646q0.540365 1.08073 1.72526 4.12109l-0.9375 0.27344q-0.123698-0.34505-0.3125-0.83333-1.47135 0.27994-5.29948 0.73567z"/>
  <path d="m103.721 91.7711q0 2.05078-0.63803 4.07552-0.63151 2.01823-1.84896 3.41797l-0.70312-0.52083q1.04818-1.24349 1.60807-3.11198 0.56641-1.86849 0.56641-4.08203v-0.83985h-1.66016v-0.78776h1.66016v-2.55859h1.01562v2.55859h3.0599v1.79036l-7e-3 1.92057q-7e-3 1.0026-0.0781 2.07682-0.0651 1.07422-0.23438 1.79036-0.16276 0.71615-0.3776 1.0026-0.20834 0.28646-0.53386 0.44271t-0.72265 0.15625h-1.41927l-0.11719-0.91146h1.02865q0.36458 0 0.58594-0.0846 0.22135-0.0911 0.35807-0.29297 0.13672-0.20182 0.22786-0.58593 0.0977-0.38412 0.16276-1.00911 0.0716-0.625 0.0911-1.24349 0.0195-0.625 0.0195-2.87109v-1.39323h-2.04427zm8.0013 6.30859h-2.53255v0.96354h-1.01562v-10.6576h4.5638v10.5664h-1.01562zm-2.53255-0.84635h2.53255v-8.03385h-2.53255z"/>
  <path d="m126.611 96.2177-0.4948 0.77474q-2.1875-0.87891-3.77604-2.52604v3.09896h-0.97005v-3.03385q-1.60156 1.61458-3.57422 2.40885l-0.36458-0.67057q1.13932-0.5013 2.20703-1.35417 1.07422-0.85287 1.45182-1.34766h-2.89714v-3.26823h3.15104v-1.08724h-3.6849v-0.80078h3.6849v-0.9375h1.00911v0.9375h3.76302v0.80078h-3.76302v1.08724h3.18359v3.26823h-2.9362q0.66406 0.76172 1.80339 1.51042 1.14583 0.7487 2.20703 1.13932zm-2.05729-3.33333v-1.875h-2.20052v1.875zm-3.20964 0v-1.875h-2.17448v1.875zm-4.29688-3.13802-0.91146 0.54037q-0.58594-1.04167-1.5625-2.23307l0.82682-0.51433q1.02214 1.26302 1.64714 2.20703zm9.77865 8.32031-0.18881 0.88542-3.63281 0.013q-2.74088 0-3.37891-0.0586t-1.30859-0.20834q-0.67057-0.14323-1.17188-0.48177-0.49479-0.34505-0.72265-0.74869-1.08073 1.10677-2.13542 1.62109l-0.35157-0.8724q0.35808-0.15625 1.0026-0.57943 0.65105-0.42969 0.91146-0.68359v-3.97135h-1.72526v-0.80729h2.7474v4.17969q0 0.61198 0.42969 1.0026 0.42969 0.38411 1.00912 0.52083 0.57943 0.13021 1.08724 0.20182 0.50781 0.0716 2.94922 0.0716 3.15104 0 4.47917-0.0846z"/>
  <path d="m129.411 89.1734v3.11198q0 2.49349-0.44271 4.14714-0.4362 1.65364-1.17188 2.66927l-0.65755-0.5013q1.29557-2.18099 1.29557-5.72917v-4.51172h5.08464v-1.10677h1.0612v1.10677h5.13672v0.8138zm2.44792 4.24479v-1.94662h-1.90755v-0.76172h1.90755v-0.96354h0.97656v0.96354h3.34635v-0.96354h1.02214v0.96354h2.10937v0.76172h-2.10937v1.94662zm0.97656-1.94662v1.23698h3.34635v-1.23698zm1.91406 6.46484q-2.07031 0.95052-5.14974 1.28906l-0.21485-0.80729q0.87891-0.0781 1.6276-0.21484 0.75521-0.13672 1.25-0.27995 0.50131-0.14323 1.48438-0.48177-1.60156-0.9375-2.42188-2.33724h-1.07422v-0.77474h7.96875l0.2474 0.27994q-0.83984 1.66667-2.75391 2.81901 1.73177 0.63803 3.97786 0.85938l-0.39714 0.85286q-2.44792-0.29296-4.54427-1.20443zm-6e-3 -0.93099q1.52344-0.82682 2.2526-1.90104h-4.57682q0.82031 1.13932 2.32422 1.90104z"/>
 </g>
 <g fill="#f00">
  <path d="m23.8902 16.3427h4.79688v0.960939h-4.79688v3.98438h-1.19531v-14.0078h1.19531v1.88281h4.58594v0.945314h-4.58594v2.5625h4.17969v0.960939h-4.17969zm-9.7422 1.25781-0.25-1q1.69531-0.242188 4.75782-0.781251 0.02344-0.296875 0.02344-0.835938v-1.35156h-4.15626v-0.960939h4.15625v-2.5625h-4.20313v-0.945314h4.20313v-1.76563h1.19531v7.42188q0 0.390626-0.02344 0.789064 0.648439-0.117188 1.25-0.250001v0.898439q-0.460938 0.125-1.35938 0.3125-0.3125 1.96875-1.32031 3.10157-1 1.125-2.71094 1.75781l-0.523438-0.796875q1.02344-0.406251 1.98438-1.28125 0.968751-0.875001 1.33594-2.53125-2.00782 0.382813-4.35938 0.781251z"/>
  <path d="m31.7652 21.4521v-14.2656h1.17188v14.2656zm3.71094-11.2813h-1.11719v-0.812501h1.1875l0.148437-1.79688h8.1797l-0.08594 1.79688h1.22656v0.812501h-1.25781l-0.08594 1.84375h-8.35157zm3.57813-0.781251 0.08594-1.0625h-2.41406l-0.09375 1.0625zm1.15625-1.0625-0.08594 1.0625h2.5625l0.05469-1.0625zm-1.29688 2.90625 0.08594-1.09375h-2.42969l-0.09375 1.09375zm1.15625-1.09375-0.09375 1.09375h2.60156l0.0625-1.09375zm-6.21876 2.00781-0.640626-1.97656 0.804688-0.242188 0.648438 1.92188zm-3.35938 2.57813-0.984376-0.210938q0.414063-1.74219 0.445313-4.35938l0.992188 0.03125q-0.04687 2.91406-0.453125 4.53907zm4.60157 4.24219v-6.05469h8.85938v6.05469zm1.17188-4.34375h6.51563v-0.945314h-6.51563zm0 1.70313h6.51563v-0.984376h-6.51563zm6.51563 0.718751h-6.51563v1.05469h6.51563zm1.75781 4.40626q-1.98438-0.578126-3.60157-1.64844l0.664063-0.773439q1.42188 0.890626 3.50782 1.46875zm-10.25 0.01563-0.390625-0.851564q1.91406-0.539063 3.47657-1.5625l0.718751 0.750001q-0.640626 0.453125-1.78906 0.960938-1.14844 0.515626-2.01563 0.703126z"/>
  <path d="m50.734 21.0771v-1h4.66407v-4.34375h-3.83594v-0.960939h3.83594v-3.44532h-2.5625q-0.585938 1.39844-1.36719 2.5l-0.945314-0.492188q0.679689-0.992189 1.32813-2.60157 0.648438-1.60938 0.851563-2.88282l1.22656 0.179688q-0.234375 1.05469-0.718751 2.33594h2.1875v-3.16407h1.24219v3.16407h4v0.960939h-4v3.44532h3.625v0.960939h-3.625v4.34375h4.34376v1zm-2.64844 0.406251v-14.2188h1.14844v14.2188zm2.0625-9.60157-0.507813-2.14844 0.914063-0.210938 0.507813 2.11719zm-3.51563 2.74219-1.00781-0.210938q0.445313-1.71875 0.554688-4.35938l1.04688 0.03906q-0.03125 0.898438-0.21875 2.36719-0.179688 1.46094-0.375001 2.16406z"/>
  <path d="m68.7028 21.4677v-5.73438q-4.32813 0.242188-6.03907 0.28125l-0.148437-1.04688q1.25 0.03906 4.79688-0.101563 0.296875-0.21875 0.59375-0.460938-0.07031-0.07031-3.78907-3.40625l0.820313-0.679689q0.210938 0.156251 0.992189 0.843751 1.14063-1.17969 1.95313-2.20313-2.96094 0.164063-4.64844 0.179688l-0.125-0.898438q3.3125-0.046875 6.8672-0.335938 3.55469-0.296875 4.70313-0.593751l0.554688 0.914064q-1.74219 0.375-5.84376 0.648438-1.20313 1.50781-2.70313 2.95313l2.07813 1.86719q2.50782-2.13282 3.85157-3.88282l1.17969 0.585939q-2.26563 2.5-4.88282 4.40625 3.11719-0.140625 5.04688-0.296875-0.671875-0.726563-1.19531-1.21875l0.898438-0.640626q0.507813 0.429688 1.53125 1.51563 1.02344 1.08594 1.53906 1.71875l-0.984376 0.687501q-0.500001-0.617188-1.04688-1.24219-1.46094 0.132813-4.74219 0.328126v5.81251zm6.95313-0.640626q-0.968751-0.617188-2.22656-1.71875-1.25-1.10938-1.74219-1.80469l0.929688-0.625001q2.11719 2.25 3.86719 3.23438zm-12.8281 0.0625-0.617188-0.812501q1.32813-0.851563 2.0625-1.48438 0.734376-0.640626 1.78906-1.76563l1.05469 0.625001q-0.742188 0.898438-2.04688 1.9375-1.29688 1.03125-2.24219 1.5z"/>
 </g>
</svg>
