<?xml version="1.0" encoding="UTF-8"?>
<svg width="228.396" height="127.353" version="1.1" viewBox="0 0 228.39584 127.35297" xmlns="http://www.w3.org/2000/svg"><defs><marker id="marker13102-9-1" overflow="visible" orient="auto"><path transform="matrix(-.4 0 0 -.4 -4 0)" d="m0 0 5-5-17.5 5 17.5 5z" fill="#f00" fill-rule="evenodd" stroke="#f00" stroke-width="1pt"/></marker><marker id="marker9486-3" overflow="visible" orient="auto"><path transform="matrix(-.4 0 0 -.4 -4 0)" d="m0 0 5-5-17.5 5 17.5 5z" fill-rule="evenodd" stroke="#000" stroke-width="1pt"/></marker><marker id="marker6590-0" overflow="visible" orient="auto"><path transform="matrix(-.4 0 0 -.4 -4 0)" d="m0 0 5-5-17.5 5 17.5 5z" fill="#00f" fill-rule="evenodd" stroke="#00f" stroke-width="1pt"/></marker><marker id="marker12858-9" overflow="visible" orient="auto"><path transform="matrix(-.4 0 0 -.4 -4 0)" d="m0 0 5-5-17.5 5 17.5 5z" fill="#f00" fill-rule="evenodd" stroke="#f00" stroke-width="1pt"/></marker><marker id="marker12620-3-9" overflow="visible" orient="auto"><path transform="matrix(-.4 0 0 -.4 -4 0)" d="m0 0 5-5-17.5 5 17.5 5z" fill="#00f" fill-rule="evenodd" stroke="#00f" stroke-width="1pt"/></marker></defs><g transform="translate(-25.8021 -260.779)"><g shape-rendering="auto"><circle cx="124.481" cy="343.158" r="34.1992" color="#000000" color-rendering="auto" fill="#ffdcdc" image-rendering="auto" solid-color="#000000" stroke="#f00" stroke-width="2" style="isolation:auto;mix-blend-mode:normal"/><rect x="159.994" y="300.632" width="50" height="86" color="#000000" color-rendering="auto" fill="#c6c6ff" image-rendering="auto" solid-color="#000000" stroke="#00f" stroke-width="2" style="isolation:auto;mix-blend-mode:normal"/><g fill="none"><path d="m26.3021 343.632h57.4735" color="#000000" color-rendering="auto" image-rendering="auto" marker-end="url(#marker13102-9-1)" solid-color="#000000" stroke="#f00" stroke-width="3" style="isolation:auto;mix-blend-mode:normal"/><path d="m120.913 278.632h70.2228" color="#000000" color-rendering="auto" image-rendering="auto" marker-end="url(#marker9486-3)" solid-color="#000000" stroke="#000" stroke-width="3" style="isolation:auto;mix-blend-mode:normal"/><path d="m253.568 343.632h-37.3364" color="#000000" color-rendering="auto" image-rendering="auto" marker-end="url(#marker6590-0)" solid-color="#000000" stroke="#00f" stroke-width="3" style="isolation:auto;mix-blend-mode:normal"/><path d="m158.994 343.632h-35.4628" color="#000000" color-rendering="auto" image-rendering="auto" marker-end="url(#marker12858-9)" solid-color="#000000" stroke="#f00" stroke-width="2" style="isolation:auto;mix-blend-mode:normal"/><path d="m158.994 343.632h35.4628" color="#000000" color-rendering="auto" image-rendering="auto" marker-end="url(#marker12620-3-9)" solid-color="#000000" stroke="#00f" stroke-width="2" style="isolation:auto;mix-blend-mode:normal"/></g></g><g stroke-linejoin="round" stroke-miterlimit="1e5" stroke-width="1.5"><path d="m51.1549 361.769h2.106c0.342 0 0.666 0 0.666-0.522 0-0.324-0.306-0.324-0.612-0.324h-2.016l0.594-3.258c0.054-0.324 0.054-0.36 0.234-0.522 0.234-0.216 0.432-0.216 0.522-0.216 0.252 0 0.414 0.036 0.63 0.126-0.432 0.216-0.756 0.684-0.756 1.17 0 0.54 0.432 0.828 0.882 0.828 0.738 0 1.296-0.648 1.296-1.332 0-0.918-0.936-1.44-2.052-1.44-0.846 0-1.854 0.342-2.484 1.35-0.414 0.666-0.522 1.368-0.864 3.294h-1.764c-0.342 0-0.648 0-0.648 0.522 0 0.324 0.306 0.324 0.594 0.324h1.656l-1.368 7.668c-0.036 0.162-0.234 1.296-0.324 1.548-0.036 0.09-0.324 0.918-0.9 0.918-0.342 0-0.486-0.054-0.612-0.108 0.45-0.216 0.792-0.684 0.792-1.188 0-0.54-0.432-0.828-0.882-0.828-0.738 0-1.296 0.648-1.296 1.332 0 0.972 1.026 1.44 1.962 1.44 1.35 0 2.286-1.332 2.43-1.566 0.774-1.188 1.188-3.474 1.242-3.78z" fill="#f00"/><path d="m57.8659 371.736c-0.552 0.876-1.044 0.996-1.476 1.032-0.12 0.012-0.264 0.024-0.264 0.228 0 0.036 0.024 0.168 0.168 0.168 0.108 0 0.18-0.036 1.02-0.036 0.816 0 1.092 0.036 1.152 0.036s0.24 0 0.24-0.228c0-0.156-0.156-0.168-0.216-0.168-0.252-0.012-0.504-0.108-0.504-0.372 0-0.18 0.096-0.336 0.324-0.684l0.816-1.32h3.288l0.252 2.028c0 0.168-0.216 0.348-0.78 0.348-0.18 0-0.336 0-0.336 0.228 0 0.012 0.012 0.168 0.204 0.168 0.12 0 0.576-0.024 0.684-0.036h0.756c1.08 0 1.284 0.036 1.38 0.036 0.048 0 0.24 0 0.24-0.228 0-0.168-0.156-0.168-0.348-0.168-0.66 0-0.672-0.108-0.708-0.408l-0.948-7.416c-0.036-0.264-0.048-0.348-0.252-0.348-0.216 0-0.288 0.12-0.36 0.24zm1.512-1.74 2.484-3.948 0.504 3.948z" fill="#f00"/><path d="m239.667 361.769h2.106c0.342 0 0.666 0 0.666-0.522 0-0.324-0.306-0.324-0.612-0.324h-2.016l0.594-3.258c0.054-0.324 0.054-0.36 0.234-0.522 0.234-0.216 0.432-0.216 0.522-0.216 0.252 0 0.414 0.036 0.63 0.126-0.432 0.216-0.756 0.684-0.756 1.17 0 0.54 0.432 0.828 0.882 0.828 0.738 0 1.296-0.648 1.296-1.332 0-0.918-0.936-1.44-2.052-1.44-0.846 0-1.854 0.342-2.484 1.35-0.414 0.666-0.522 1.368-0.864 3.294h-1.764c-0.342 0-0.648 0-0.648 0.522 0 0.324 0.306 0.324 0.594 0.324h1.656l-1.368 7.668c-0.036 0.162-0.234 1.296-0.324 1.548-0.036 0.09-0.324 0.918-0.9 0.918-0.342 0-0.486-0.054-0.612-0.108 0.45-0.216 0.792-0.684 0.792-1.188 0-0.54-0.432-0.828-0.882-0.828-0.738 0-1.296 0.648-1.296 1.332 0 0.972 1.026 1.44 1.962 1.44 1.35 0 2.286-1.332 2.43-1.566 0.774-1.188 1.188-3.474 1.242-3.78z" fill="#00f"/><path d="m246.186 372.216c-0.108 0.456-0.132 0.552-1.02 0.552-0.228 0-0.372 0-0.372 0.228 0 0.168 0.156 0.168 0.36 0.168h4.452c1.98 0 3.456-1.404 3.456-2.568 0-0.876-0.756-1.584-1.956-1.716 1.392-0.264 2.592-1.176 2.592-2.232 0-0.9-0.876-1.68-2.388-1.68h-4.188c-0.216 0-0.372 0-0.372 0.228 0 0.168 0.144 0.168 0.348 0.168 0.396 0 0.744 0 0.744 0.192 0 0.048-0.012 0.06-0.048 0.216zm1.872-3.48 0.732-2.928c0.108-0.408 0.12-0.444 0.612-0.444h1.728c1.176 0 1.44 0.768 1.44 1.26 0 1.02-1.092 2.112-2.628 2.112zm-0.828 4.032c-0.108-0.024-0.144-0.024-0.144-0.108 0-0.096 0.024-0.192 0.048-0.264l0.84-3.324h2.436c1.116 0 1.488 0.756 1.488 1.428 0 1.176-1.152 2.268-2.592 2.268z" fill="#00f"/></g><path d="m154.071 263.709c0.108-0.45 0.288-1.17 0.288-1.332 0-0.576-0.468-0.792-0.846-0.792-0.342 0-0.702 0.18-0.918 0.45-0.27-0.288-0.864-0.756-1.908-0.756-3.132 0-5.076 2.844-5.076 5.31 0 2.214 1.656 2.97 3.15 2.97 1.278 0 2.214-0.702 2.502-0.972 0.684 0.972 1.872 0.972 2.07 0.972 0.666 0 1.188-0.378 1.566-1.026 0.45-0.72 0.684-1.692 0.684-1.782 0-0.252-0.27-0.252-0.432-0.252-0.198 0-0.27 0-0.36 0.09-0.036 0.036-0.036 0.072-0.144 0.522-0.36 1.44-0.774 1.8-1.224 1.8-0.198 0-0.414-0.072-0.414-0.666 0-0.306 0.072-0.594 0.252-1.314 0.126-0.504 0.306-1.224 0.396-1.62zm-2.988 4.032c-0.522 0.612-1.368 1.17-2.232 1.17-1.116 0-1.206-0.972-1.206-1.368 0-0.936 0.612-3.15 0.9-3.852 0.558-1.314 1.44-1.764 2.178-1.764 1.062 0 1.494 0.846 1.494 1.044l-0.036 0.252z" stroke-linejoin="round" stroke-miterlimit="1e5" stroke-width="1.5"/><g fill="#f00" stroke-linejoin="round" stroke-miterlimit="1e5"><path d="m121.077 358.042h2.238c0.36344 0 0.70775 0 0.70775-0.55472 0-0.3443-0.32517-0.3443-0.65035-0.3443h-2.14237l0.63123-3.46223c0.0574-0.34431 0.0574-0.38256 0.24867-0.55472 0.24866-0.22954 0.45907-0.22954 0.55472-0.22954 0.26779 0 0.43994 0.0383 0.66949 0.13393-0.45909 0.22955-0.80339 0.72687-0.80339 1.24333 0 0.57387 0.45906 0.87992 0.93728 0.87992 0.78427 0 1.37725-0.68863 1.37725-1.41549 0-0.97556-0.99468-1.53028-2.18063-1.53028-0.89904 0-1.97022 0.36344-2.63971 1.43463-0.43995 0.70774-0.55473 1.45374-0.91816 3.50047h-1.87456c-0.36344 0-0.68862 0-0.68862 0.55473 0 0.3443 0.32518 0.3443 0.63123 0.3443h1.75981l-1.45375 8.14863c-0.0383 0.17217-0.24867 1.37724-0.34431 1.64503-0.0383 0.0956-0.34431 0.97556-0.95643 0.97556-0.36342 0-0.51646-0.0575-0.65035-0.11475 0.47822-0.22955 0.84165-0.72687 0.84165-1.26246 0-0.57386-0.45908-0.87991-0.9373-0.87991-0.78425 0-1.37722 0.68861-1.37722 1.4155 0 1.03292 1.09031 1.53025 2.08497 1.53025 1.43463 0 2.4293-1.41549 2.58232-1.66417 0.82251-1.26246 1.26247-3.69173 1.31986-4.01692z"/><path d="m131.059 351.739c-0.241 0.107-0.37491 0.32135-0.37491 0.58915 0 0.36151 0.2544 0.62932 0.62933 0.62932 0.36152 0 0.6427-0.22762 0.6427-0.65611 0-1.19167-1.86118-1.19167-2.2361-1.19167-2.00846 0-3.25371 1.53982-3.25371 3.07965 0 1.6871 1.43271 3.02608 3.18678 3.02608 1.99507 0 2.46371-1.58 2.46371-1.74066 0-0.16067-0.17406-0.1607-0.22761-0.1607-0.17409 0-0.18747 0.0401-0.25443 0.22764-0.29457 0.83016-1.00422 1.24525-1.821 1.24525-0.92389 0-2.12897-0.68289-2.12897-2.61101 0-1.70049 0.83015-2.63779 2.07541-2.63779 0.17407 0 0.81677 0 1.2988 0.20085z"/><path d="m128.608 368.758c-0.46866 0.72304-0.89713 1.07116-1.68713 1.12473-0.1339 0.0127-0.30796 0.0127-0.30796 0.28118 0 0.14737 0.1205 0.20085 0.18746 0.20085 0.34813 0 0.78999-0.0536 1.15152-0.0536 0.42847 0 0.97745 0.0536 1.37914 0.0536 0.067 0 0.26779 0 0.26779-0.29457 0-0.17406-0.17406-0.18746-0.22761-0.18746-0.10713-0.0127-0.58915-0.0401-0.58915-0.40169 0-0.16068 0.13389-0.38831 0.20085-0.50883l1.07119-1.66031h3.82946l0.32136 2.2227c-0.0535 0.13393-0.1339 0.34813-0.9239 0.34813-0.16067 0-0.34812 0-0.34812 0.29458 0 0.0536 0.0401 0.18745 0.21423 0.18745 0.3883 0 1.33898-0.0536 1.72728-0.0536 0.24101 0 0.54897 0.0127 0.79 0.0127 0.24101 0.0128 0.52219 0.0401 0.76321 0.0401 0.17408 0 0.2678-0.10725 0.2678-0.28118 0-0.20085-0.16067-0.20085-0.37491-0.20085-0.77661 0-0.8034-0.10725-0.84355-0.42848l-1.17831-8.26085c-0.0401-0.28119-0.067-0.37491-0.32135-0.37491-0.2544 0-0.33474 0.1205-0.45525 0.30795zm1.76744-1.92815 2.81186-4.37845 0.62932 4.37845z"/></g><g fill="#00f" stroke-linejoin="round" stroke-miterlimit="1e5"><path d="m183.285 358.042h2.238c0.36345 0 0.70775 0 0.70775-0.55472 0-0.3443-0.32517-0.3443-0.65035-0.3443h-2.14237l0.63123-3.46223c0.0574-0.34431 0.0574-0.38256 0.24868-0.55472 0.24865-0.22954 0.45906-0.22954 0.55471-0.22954 0.2678 0 0.43994 0.0383 0.66949 0.13393-0.45909 0.22955-0.80339 0.72687-0.80339 1.24333 0 0.57387 0.45908 0.87992 0.93728 0.87992 0.78427 0 1.37725-0.68863 1.37725-1.41549 0-0.97556-0.99468-1.53028-2.18063-1.53028-0.89904 0-1.97022 0.36344-2.63971 1.43463-0.43995 0.70774-0.55471 1.45374-0.91816 3.50047h-1.87455c-0.36345 0-0.68863 0-0.68863 0.55473 0 0.3443 0.32518 0.3443 0.63123 0.3443h1.75981l-1.45375 8.14863c-0.0383 0.17217-0.24866 1.37724-0.34431 1.64503-0.0382 0.0956-0.3443 0.97556-0.95642 0.97556-0.36342 0-0.51647-0.0575-0.65036-0.11475 0.47821-0.22955 0.84165-0.72687 0.84165-1.26246 0-0.57386-0.45909-0.87991-0.93729-0.87991-0.78426 0-1.37723 0.68861-1.37723 1.4155 0 1.03292 1.09032 1.53025 2.08497 1.53025 1.43463 0 2.4293-1.41549 2.58233-1.66417 0.82251-1.26246 1.26246-3.69173 1.31985-4.01692z"/><path d="m193.265 351.739c-0.24102 0.107-0.37492 0.32135-0.37492 0.58915 0 0.36151 0.2544 0.62932 0.62933 0.62932 0.36152 0 0.6427-0.22762 0.6427-0.65611 0-1.19167-1.86118-1.19167-2.23609-1.19167-2.00846 0-3.25372 1.53982-3.25372 3.07965 0 1.6871 1.43271 3.02608 3.18677 3.02608 1.99508 0 2.46371-1.58 2.46371-1.74066 0-0.16067-0.17406-0.1607-0.22761-0.1607-0.17409 0-0.18746 0.0401-0.25441 0.22764-0.29459 0.83016-1.00423 1.24525-1.82101 1.24525-0.92389 0-2.12898-0.68289-2.12898-2.61101 0-1.70049 0.83016-2.63779 2.07543-2.63779 0.17406 0 0.81676 0 1.2988 0.20085z"/><path d="m190.601 369.321c-0.1205 0.45525-0.1473 0.56237-1.1783 0.56237-0.22764 0-0.4017 0-0.4017 0.28118 0 0.20085 0.16068 0.20085 0.4017 0.20085h5.18184c2.24949 0 3.97676-1.53982 3.97676-2.86541 0-0.95069-0.87034-1.76745-2.28965-1.91475 1.62016-0.29457 2.97254-1.31219 2.97254-2.46371 0-1.01763-1.03101-1.90136-2.77169-1.90136h-4.87389c-0.2544 0-0.42846 0-0.42846 0.29457 0 0.18746 0.16068 0.18746 0.42846 0.18746 0.0134 0 0.2678 0 0.50883 0.0267 0.28117 0.0267 0.30796 0.0536 0.30796 0.18745 0 0.0267 0 0.0937-0.0535 0.29458zm2.14236-3.89643 0.81678-3.2671c0.10712-0.41509 0.1205-0.45527 0.68287-0.45527h2.03525c1.36577 0 1.67373 0.89713 1.67373 1.40594 0 1.08458-1.21848 2.31643-3.0127 2.31643zm-0.64271 4.4588c-0.41507 0-0.42846-0.0127-0.42846-0.13392 0-0.0128 0-0.0804 0.0535-0.28118l0.9239-3.6688h2.83863c1.25863 0 1.74067 0.83017 1.74067 1.60678 0 1.32559-1.35238 2.4771-2.97252 2.4771z"/></g></g></svg>
