<?xml version="1.0" encoding="UTF-8"?>
<svg width="124.374" height="86.5237" version="1.1" viewBox="0 0 124.37357 86.523705" xmlns="http://www.w3.org/2000/svg"><defs><marker id="marker8044" overflow="visible" orient="auto"><path transform="matrix(-.4 0 0 -.4 -4 0)" d="m0 0 5-5-17.5 5 17.5 5z" fill="#f00" fill-rule="evenodd" stroke="#f00" stroke-width="1pt"/></marker><marker id="marker8282" overflow="visible" orient="auto"><path transform="matrix(-.4 0 0 -.4 -4 0)" d="m0 0 5-5-17.5 5 17.5 5z" fill="#00f" fill-rule="evenodd" stroke="#00f" stroke-width="1pt"/></marker></defs><g transform="translate(10.7582 -346.908)"><g shape-rendering="auto"><g><circle cx="26.603" cy="397.732" r="34.1992" color="#000000" color-rendering="auto" fill="#ffdcdc" image-rendering="auto" solid-color="#000000" stroke="#f00" stroke-width="2" style="isolation:auto;mix-blend-mode:normal"/><path d="m-7.67589 365.018c-0.717315 1.20148-1.41669 1.45253-2.20574 1.50635-0.215193 0.018-0.376588 0.018-0.376588 0.35865 0 0.1075 0.08966 0.19726 0.233127 0.19726 0.484184 0 1.0401-0.0539 1.54221-0.0539 0.59178 0 1.21942 0.0539 1.79328 0.0539 0.1076 0 0.340725 0 0.340725-0.34073 0-0.19726-0.1614-0.21518-0.286935-0.21518-0.41244-0.0359-0.842835-0.17933-0.842835-0.62765 0-0.21519 0.1076-0.41245 0.251055-0.66352l1.3629-2.29538h4.50111c0.035862 0.37657 0.286935 2.81543 0.286935 2.99476 0 0.53797-0.932505 0.59179-1.29117 0.59179-0.251055 0-0.43038 0-0.43038 0.35865 0 0.19726 0.21519 0.19726 0.251055 0.19726 0.735255 0 1.50636-0.0539 2.2416-0.0539 0.44832 0 1.57808 0.0539 2.0264 0.0539 0.1076 0 0.3228 0 0.3228-0.35865 0-0.19726-0.17934-0.19726-0.412455-0.19726-1.11183 0-1.11183-0.12555-1.16564-0.64559l-1.09389-11.208c-0.0358625-0.35865-0.0358625-0.43037-0.340725-0.43037-0.28692 0-0.358665 0.12555-0.46626 0.30486zm2.15193-2.63612 3.53274-5.91781 0.573855 5.91781z" color="#000000" color-rendering="auto" fill="#f00" image-rendering="auto" solid-color="#000000" stroke-linejoin="round" stroke-miterlimit="1e5" style="isolation:auto;mix-blend-mode:normal"/><path d="m63.0964 358.257c-0.179325 0.69938-0.2152 0.84284-1.63188 0.84284-0.304863 0-0.484188 0-0.484188 0.35865 0 0.19726 0.1614 0.19726 0.484188 0.19726h6.40199c2.83338 0 4.94944-2.11606 4.94944-3.87347 0-1.29116-1.0401-2.33126-2.77958-2.52853 1.865-0.34071 3.74795-1.66775 3.74795-3.37135 0-1.32702-1.18356-2.47472-3.33549-2.47472h-6.02541c-0.340725 0-0.52005 0-0.52005 0.35865 0 0.19727 0.1614 0.19727 0.502112 0.19727 0.03588 0 0.376588 0 0.68145 0.0359 0.322788 0.0359 0.484188 0.0539 0.484188 0.28691 0 0.0718-0.018 0.12555-0.07175 0.34073zm2.70785-5.16463 1.11182-4.44732c0.161387-0.62765 0.19725-0.68145 0.968375-0.68145h2.31331c1.57809 0 1.95469 1.05804 1.95469 1.84707 0 1.57808-1.54222 3.2817-3.73002 3.2817zm-0.806988 6.00747c-0.25105 0-0.286912 0-0.394512-0.018-0.179325-0.018-0.233125-0.0359-0.233125-0.17932 0-0.0539 0-0.0897 0.08962-0.41247l1.23736-5.00322h3.38929c1.72155 0 2.06228 1.32701 2.06228 2.09814 0 1.77533-1.59601 3.51481-3.71209 3.51481z" color="#000000" color-rendering="auto" fill="#00f" image-rendering="auto" solid-color="#000000" stroke-linejoin="round" stroke-miterlimit="1e5" style="isolation:auto;mix-blend-mode:normal"/><rect x="62.1154" y="363.533" width="50" height="68.398" color="#000000" color-rendering="auto" fill="#c6c6ff" image-rendering="auto" solid-color="#000000" stroke="#00f" stroke-width="2" style="isolation:auto;mix-blend-mode:normal"/></g><g><path d="m61.1154 398.206h-44.3801" color="#000000" color-rendering="auto" fill="none" image-rendering="auto" marker-end="url(#marker8044)" solid-color="#000000" stroke="#f00" stroke-width="2" style="isolation:auto;mix-blend-mode:normal"/><path d="m61.1154 398.206h44.3801" color="#000000" color-rendering="auto" fill="none" image-rendering="auto" marker-end="url(#marker8282)" solid-color="#000000" stroke="#00f" stroke-width="2" style="isolation:auto;mix-blend-mode:normal"/><g><path d="m41.7703 392.829v10.753" color="#000000" color-rendering="auto" fill="#ffdcdc" image-rendering="auto" solid-color="#000000" stroke="#f00" style="isolation:auto;mix-blend-mode:normal"/><path d="m76.9383 392.829v10.753" color="#000000" color-rendering="auto" fill="none" image-rendering="auto" solid-color="#000000" stroke="#00f" style="isolation:auto;mix-blend-mode:normal"/><path d="m45.2925 392.829v10.753" color="#000000" color-rendering="auto" fill="#ffdcdc" image-rendering="auto" solid-color="#000000" stroke="#f00" style="isolation:auto;mix-blend-mode:normal"/><path d="m80.4604 392.829v10.753" color="#000000" color-rendering="auto" fill="none" image-rendering="auto" solid-color="#000000" stroke="#00f" style="isolation:auto;mix-blend-mode:normal"/></g></g></g><g fill="#f00" stroke-linejoin="round" stroke-miterlimit="1e5"><path d="m23.687 412.616h2.238c0.363438 0 0.70775 0 0.70775-0.55473 0-0.3443-0.325175-0.3443-0.65035-0.3443h-2.14238l0.631238-3.46222c0.05738-0.34431 0.05738-0.38256 0.248662-0.55473 0.248663-0.22953 0.459075-0.22953 0.554725-0.22953 0.267788 0 0.439938 0.0383 0.669488 0.13392-0.459088 0.22955-0.803388 0.72688-0.803388 1.24334 0 0.57386 0.459063 0.87991 0.937275 0.87991 0.784275 0 1.37725-0.68862 1.37725-1.41549 0-0.97556-0.994675-1.53027-2.18062-1.53027-0.899037 0-1.97022 0.36344-2.63971 1.43462-0.43995 0.70774-0.554725 1.45374-0.918163 3.50048h-1.87456c-0.363437 0-0.688612 0-0.688612 0.55472 0 0.3443 0.325175 0.3443 0.631225 0.3443h1.75981l-1.45375 8.14864c-0.03825 0.17216-0.248675 1.37724-0.344312 1.64502-0.03825 0.0956-0.344313 0.97557-0.956425 0.97557-0.363425 0-0.516463-0.0575-0.65035-0.11475 0.478212-0.22955 0.84165-0.72688 0.84165-1.26247 0-0.57386-0.459088-0.87991-0.9373-0.87991-0.784251 0-1.37723 0.68861-1.37723 1.4155 0 1.03293 1.09031 1.53025 2.08498 1.53025 1.43462 0 2.4293-1.41549 2.58231-1.66416 0.822512-1.26246 1.26248-3.69174 1.31986-4.01693z"/><path d="m33.6687 406.313c-0.241 0.107-0.374913 0.32135-0.374913 0.58915 0 0.36152 0.254401 0.62933 0.629338 0.62933 0.361513 0 0.6427-0.22763 0.6427-0.65611 0-1.19168-1.86119-1.19168-2.2361-1.19168-2.00846 0-3.25371 1.53983-3.25371 3.07965 0 1.6871 1.43271 3.02609 3.18678 3.02609 1.99508 0 2.46371-1.58 2.46371-1.74066 0-0.16068-0.174063-0.1607-0.227613-0.1607-0.174087 0-0.187462 0.0401-0.254425 0.22763-0.294575 0.83017-1.00422 1.24525-1.821 1.24525-0.923887 0-2.12897-0.68288-2.12897-2.61101 0-1.70049 0.83015-2.63779 2.07541-2.63779 0.174075 0 0.816775 0 1.2988 0.20085z"/><path d="m31.2184 423.332c-0.468663 0.72303-0.897125 1.07116-1.68712 1.12472-0.1339 0.0127-0.307963 0.0127-0.307963 0.28119 0 0.14736 0.1205 0.20085 0.187463 0.20085 0.348125 0 0.789987-0.0536 1.15151-0.0536 0.428475 0 0.97745 0.0536 1.37915 0.0536 0.067 0 0.267787 0 0.267787-0.29458 0-0.17406-0.174062-0.18746-0.227612-0.18746-0.107125-0.0128-0.58915-0.0401-0.58915-0.40169 0-0.16067 0.133887-0.38831 0.20085-0.50882l1.07119-1.66031h3.82946l0.321363 2.2227c-0.0535 0.13392-0.1339 0.34812-0.923901 0.34812-0.160674 0-0.348125 0-0.348125 0.29459 0 0.0536 0.04013 0.18745 0.214238 0.18745 0.3883 0 1.33898-0.0536 1.72728-0.0536 0.241012 0 0.548975 0.0127 0.79 0.0127 0.241012 0.0128 0.522187 0.0401 0.763212 0.0401 0.174075 0 0.2678-0.10725 0.2678-0.28119 0-0.20085-0.160674-0.20085-0.374912-0.20085-0.776613 0-0.8034-0.10725-0.84355-0.42847l-1.17831-8.26085c-0.04013-0.28119-0.067-0.37492-0.32135-0.37492-0.2544 0-0.334737 0.1205-0.45525 0.30795zm1.76744-1.92815 2.81186-4.37845 0.629325 4.37845z"/></g><g fill="#00f" stroke-linejoin="round" stroke-miterlimit="1e5"><path d="m85.4337 412.616h2.238c0.36345 0 0.70775 0 0.70775-0.55473 0-0.3443-0.325175-0.3443-0.65035-0.3443h-2.14238l0.631238-3.46222c0.05738-0.34431 0.05738-0.38256 0.248675-0.55473 0.24865-0.22953 0.459062-0.22953 0.554712-0.22953 0.2678 0 0.439938 0.0383 0.669488 0.13392-0.459088 0.22955-0.803388 0.72688-0.803388 1.24334 0 0.57386 0.459075 0.87991 0.937275 0.87991 0.784275 0 1.37725-0.68862 1.37725-1.41549 0-0.97556-0.994675-1.53027-2.18062-1.53027-0.899037 0-1.97022 0.36344-2.63971 1.43462-0.43995 0.70774-0.554713 1.45374-0.918163 3.50048h-1.87455c-0.36345 0-0.688625 0-0.688625 0.55472 0 0.3443 0.325175 0.3443 0.631225 0.3443h1.75981l-1.45375 8.14864c-0.03825 0.17216-0.248663 1.37724-0.344313 1.64502-0.03825 0.0956-0.3443 0.97557-0.956412 0.97557-0.363425 0-0.516475-0.0575-0.650363-0.11475 0.478213-0.22955 0.84165-0.72688 0.84165-1.26247 0-0.57386-0.459087-0.87991-0.937287-0.87991-0.784263 0-1.37724 0.68861-1.37724 1.4155 0 1.03293 1.09032 1.53025 2.08498 1.53025 1.43462 0 2.4293-1.41549 2.58232-1.66416 0.822513-1.26246 1.26246-3.69174 1.31985-4.01693z"/><path d="m95.4139 406.313c-0.241013 0.107-0.374913 0.32135-0.374913 0.58915 0 0.36152 0.254401 0.62933 0.629326 0.62933 0.361525 0 0.6427-0.22763 0.6427-0.65611 0-1.19168-1.86118-1.19168-2.23609-1.19168-2.00846 0-3.25372 1.53983-3.25372 3.07965 0 1.6871 1.43271 3.02609 3.18678 3.02609 1.99508 0 2.46371-1.58 2.46371-1.74066 0-0.16068-0.174063-0.1607-0.227613-0.1607-0.174087 0-0.187462 0.0401-0.254412 0.22763-0.294588 0.83017-1.00422 1.24525-1.82101 1.24525-0.923887 0-2.12898-0.68288-2.12898-2.61101 0-1.70049 0.830163-2.63779 2.07542-2.63779 0.174063 0 0.816763 0 1.2988 0.20085z"/><path d="m92.7494 423.895c-0.1205 0.45525-0.1473 0.56236-1.1783 0.56236-0.227637 0-0.4017 0-0.4017 0.28119 0 0.20085 0.160675 0.20085 0.4017 0.20085h5.18184c2.24949 0 3.97676-1.53983 3.97676-2.86541 0-0.95069-0.870335-1.76745-2.28965-1.91475 1.62016-0.29458 2.97254-1.31219 2.97254-2.46372 0-1.01762-1.03101-1.90136-2.77169-1.90136h-4.87389c-0.2544 0-0.428462 0-0.428462 0.29458 0 0.18746 0.160675 0.18746 0.428462 0.18746 0.01337 0 0.2678 0 0.508825 0.0267 0.281175 0.0268 0.307963 0.0536 0.307963 0.18745 0 0.0267 0 0.0937-0.0535 0.29457zm2.14236-3.89644 0.816775-3.2671c0.107125-0.41509 0.1205-0.45526 0.682875-0.45526h2.03525c1.36576 0 1.67372 0.89712 1.67372 1.40594 0 1.08457-1.21848 2.31642-3.0127 2.31642zm-0.642713 4.4588c-0.415075 0-0.428462-0.0128-0.428462-0.13391 0-0.0127 0-0.0804 0.0535-0.28119l0.9239-3.6688h2.83862c1.25864 0 1.74068 0.83018 1.74068 1.60679 0 1.32559-1.35238 2.4771-2.97252 2.4771z"/></g></g></svg>
