<?xml version="1.0" encoding="UTF-8"?>
<svg width="174.971" height="116.476" version="1.1" viewBox="0 0 174.97055 116.47588" xmlns="http://www.w3.org/2000/svg">
 <defs>
  <marker id="Arrow1MendV-1" overflow="visible" orient="auto">
   <path transform="matrix(-.4 0 0 -.4 -4 0)" d="m0 0 5-5-17.5 5 17.5 5z" fill="#f00" fill-rule="evenodd" stroke="#f00" stroke-width="1pt"/>
  </marker>
  <marker id="Arrow1Mend-15-2" overflow="visible" orient="auto">
   <path transform="matrix(-.4 0 0 -.4 -4 0)" d="m0 0 5-5-17.5 5 17.5 5z" fill-rule="evenodd" stroke="#000" stroke-width="1pt"/>
  </marker>
 </defs>
 <g transform="translate(-9.65758 -269.075)">
  <ellipse cx="113.883" cy="303.544" rx="69.7454" ry="33.4692" color="#000000" fill="#ffe8e8" stroke="#f00" stroke-width="1px"/>
  <path d="m10.5611 273.983v110.58h169.465c-39.3247-8.97726-116.172-37.7574-169.465-110.58z" color="#000000" opacity=".15"/>
  <g fill="none">
   <path d="m53.303 319.959-24.1094 28.0011" marker-end="url(#Arrow1MendV-1)" stroke="#f00" stroke-width="1px"/>
   <g stroke="#000">
    <path d="m47.4175 314.601 5.06685-5.89513 6.16199 5.25494" color="#000000" stroke-width=".465"/>
    <path d="m53.3365 319.926 16.0847-18.7502" marker-end="url(#Arrow1Mend-15-2)"/>
    <path d="m180.026 384.563c-39.3247-8.97726-116.172-37.7574-169.465-110.58" color="#000000"/>
   </g>
  </g>
  <g stroke-width="1.33333">
   <path d="m88.2003 365.655c0-0.0574-0.0383-0.19128-0.21042-0.19128-0.0574 0-0.0765 0.0192-0.28693 0.22954l-1.33897 1.47288c-0.17215-0.26781-1.05205-1.70242-3.1753-1.70242-4.2656 0-8.56946 4.22735-8.56946 8.66511 0 3.04139 2.12324 5.24113 5.22202 5.24113 0.84165 0 1.70242-0.17214 2.39104-0.45907 0.9564-0.38256 1.31984-0.78425 1.66415-1.16683 0.17216 0.47821 0.6695 1.18595 0.86078 1.18595 0.0956 0 0.13389-0.0574 0.13389-0.0765 0.0383-0.0382 0.22955-0.76512 0.32518-1.16681l0.36344-1.47288c0.0765-0.32519 0.17216-0.65036 0.24867-0.97554 0.2104-0.86078 0.22954-0.89904 1.31984-0.91816 0.0956 0 0.30607-0.0192 0.30607-0.38256 0-0.13392-0.0956-0.21042-0.24867-0.21042-0.43996 0-1.56852 0.0574-2.00847 0.0574-0.59297 0-2.08499-0.0574-2.67797-0.0574-0.17214 0-0.40169 0-0.40169 0.38256 0 0.21042 0.15304 0.21042 0.57385 0.21042 0.0191 0 0.57384 0 1.0138 0.0382 0.49734 0.0574 0.59297 0.11472 0.59297 0.36344 0 0.17214-0.2104 1.03293-0.40169 1.74067-0.53559 2.10411-3.02226 2.31451-3.69175 2.31451-1.83632 0-3.84478-1.0903-3.84478-4.01692 0-0.59298 0.19128-3.74914 2.19974-6.23583 1.03293-1.30072 2.88837-2.46753 4.78208-2.46753 1.95107 0 3.07965 1.47286 3.07965 3.69174 0 0.76514-0.0574 0.78427-0.0574 0.97555s0.21041 0.19128 0.28693 0.19128c0.24867 0 0.24867-0.0382 0.3443-0.38256z"/>
   <path d="m106.87 367.587c0.21042-0.0957 0.36344-0.19128 0.36344-0.42082 0-0.21042-0.15302-0.38258-0.38258-0.38258-0.0956 0-0.26779 0.0765-0.3443 0.11472l-10.5779 4.99248c-0.32518 0.15296-0.38256 0.28693-0.38256 0.43996 0 0.17216 0.11477 0.30604 0.38256 0.42083l10.5779 4.97334c0.24867 0.13392 0.28693 0.13392 0.3443 0.13392 0.21042 0 0.38258-0.17214 0.38258-0.38256 0-0.17214-0.0765-0.28693-0.4017-0.43995l-10.0041-4.70555zm-0.30605 13.9828c0.32517 0 0.66949 0 0.66949-0.38257 0-0.38258-0.4017-0.38256-0.68862-0.38256h-10.3101c-0.28693 0-0.68863 0-0.68863 0.38256s0.34431 0.38257 0.66949 0.38257z"/>
   <path d="m122.894 372.829c0-1.53027-0.0957-3.06053-0.76514-4.47602-0.8799-1.83632-2.44842-2.14237-3.25181-2.14237-1.14769 0-2.54406 0.49733-3.32831 2.27626-0.61211 1.31986-0.70775 2.81186-0.70775 4.34213 0 1.43461 0.0765 3.15616 0.86077 4.6099 0.82252 1.54939 2.21888 1.93195 3.15617 1.93195 1.03293 0 2.48667-0.40168 3.32832-2.21888 0.6121-1.31984 0.70775-2.81185 0.70775-4.32297zm-4.03607 6.12104c-0.746 0-1.87457-0.47821-2.21888-2.31453-0.21041-1.1477-0.21041-2.90749-0.21041-4.03606 0-1.22421 0-2.48668 0.15302-3.5196 0.36344-2.27626 1.79806-2.44842 2.27627-2.44842 0.63123 0 1.8937 0.3443 2.25714 2.23802 0.19128 1.07118 0.19128 2.52492 0.19128 3.73 0 1.43462 0 2.73534-0.21042 3.95955-0.28693 1.81718-1.37723 2.39104-2.238 2.39104z"/>
  </g>
  <g fill="#f00" stroke-width=".768">
   <path d="m136.806 297.058c0.17216-0.68862 0.21042-0.8799 1.60674-0.8799 0.49744 0 0.6504 0 0.6504-0.38256 0-0.21042-0.2104-0.21042-0.26784-0.21042-0.53552 0-1.91278 0.0574-2.44837 0.0574-0.55472 0-1.91283-0.0574-2.46755-0.0574-0.15302 0-0.36344 0-0.36344 0.38256 0 0.21042 0.17216 0.21042 0.5356 0.21042 0.0383 0 0.4017 0 0.72688 0.0382 0.3443 0.0382 0.51645 0.0574 0.51645 0.30604 0 0.0765-0.0191 0.11472-0.0765 0.36344l-1.1477 4.66732h-5.83411l1.12856-4.49514c0.17216-0.68862 0.22953-0.8799 1.60678-0.8799 0.49733 0 0.65035 0 0.65035-0.38256 0-0.21042-0.2104-0.21042-0.26779-0.21042-0.53558 0-1.91283 0.0574-2.44841 0.0574-0.55472 0-1.91284-0.0574-2.46756-0.0574-0.15302 0-0.36344 0-0.36344 0.38256 0 0.21042 0.17216 0.21042 0.5356 0.21042 0.0383 0 0.4017 0 0.72688 0.0382 0.34431 0.0382 0.51645 0.0574 0.51645 0.30604 0 0.0765-0.0191 0.13392-0.0765 0.36344l-2.56318 10.2719c-0.19128 0.746-0.22954 0.89903-1.74067 0.89903-0.34431 0-0.51647 0-0.51647 0.38256 0 0.21041 0.22954 0.21041 0.2678 0.21041 0.53559 0 1.8937-0.0574 2.42929-0.0574 0.40169 0 0.82251 0.0192 1.22421 0.0192 0.42081 0 0.84164 0.0382 1.24334 0.0382 0.15302 0 0.38256 0 0.38256-0.38256 0-0.21041-0.17216-0.21041-0.53558-0.21041-0.70776 0-1.24335 0-1.24335-0.34431 0-0.11472 0.0383-0.21041 0.0574-0.32518l1.30072-5.24115h5.83412c-0.80338 3.17529-1.24333 4.99248-1.31984 5.2794-0.1913 0.6121-0.55472 0.63124-1.74068 0.63124-0.28692 0-0.45908 0-0.45908 0.38256 0 0.21041 0.22953 0.21041 0.26779 0.21041 0.5356 0 1.89371-0.0574 2.42929-0.0574 0.4017 0 0.82252 0.0192 1.22421 0.0192 0.42083 0 0.84165 0.0382 1.24335 0.0382 0.15302 0 0.38256 0 0.38256-0.38256 0-0.21041-0.17216-0.21041-0.53559-0.21041-0.70776 0-1.24334 0-1.24334-0.34431 0-0.11472 0.0382-0.21041 0.0574-0.32518z"/>
   <path d="m157.831 297.287c0.21042-0.0957 0.36344-0.19128 0.36344-0.42082 0-0.21042-0.15302-0.38258-0.38257-0.38258-0.0956 0-0.26779 0.0765-0.34431 0.11472l-10.5779 4.99248c-0.32519 0.15296-0.38256 0.28693-0.38256 0.43996 0 0.17216 0.11477 0.30604 0.38256 0.42083l10.5779 4.97334c0.24868 0.13392 0.28693 0.13392 0.34431 0.13392 0.21041 0 0.38257-0.17214 0.38257-0.38256 0-0.17214-0.0765-0.28693-0.40169-0.43995l-10.0041-4.70555zm-0.30604 13.9828c0.32516 0 0.66948 0 0.66948-0.38257 0-0.38258-0.40169-0.38256-0.68862-0.38256h-10.3101c-0.28693 0-0.68862 0-0.68862 0.38256s0.3443 0.38257 0.66949 0.38257z"/>
   <path d="m173.853 302.528c0-1.53027-0.0957-3.06053-0.76514-4.47602-0.8799-1.83632-2.44842-2.14237-3.25181-2.14237-1.14769 0-2.54406 0.49733-3.32831 2.27626-0.61211 1.31986-0.70775 2.81186-0.70775 4.34213 0 1.43461 0.0765 3.15616 0.86077 4.6099 0.82252 1.54939 2.21888 1.93195 3.15617 1.93195 1.03293 0 2.48667-0.40168 3.32832-2.21888 0.6121-1.31984 0.70775-2.81185 0.70775-4.32297zm-4.03607 6.12104c-0.746 0-1.87457-0.47821-2.21888-2.31453-0.21041-1.1477-0.21041-2.90749-0.21041-4.03606 0-1.22421 0-2.48668 0.15302-3.5196 0.36344-2.27626 1.79806-2.44842 2.27627-2.44842 0.63123 0 1.8937 0.3443 2.25714 2.23802 0.19128 1.07118 0.19128 2.52492 0.19128 3.73 0 1.43462 0 2.73534-0.21042 3.95955-0.28693 1.81718-1.37723 2.39104-2.238 2.39104z"/>
   <path d="m27.382 354.605c0.0383-0.0574 0.0957-0.19128 0.0957-0.2678 0-0.13392-0.0191-0.15296-0.45909-0.15296h-13.1985c-0.43995 0-0.45908 0.0192-0.45908 0.15296 0 0.0765 0.0574 0.21042 0.0956 0.2678l6.44623 12.9116c0.1339 0.24867 0.19128 0.36344 0.51646 0.36344 0.32519 0 0.38256-0.11472 0.51647-0.36344zm-11.6491 0.95641h10.5014l-5.24115 10.5206z"/>
   <path d="m42.9384 355.657c0.17216-0.68862 0.21041-0.8799 1.60673-0.8799 0.49744 0 0.6504 0 0.6504-0.38256 0-0.21042-0.2104-0.21042-0.26784-0.21042-0.53552 0-1.91278 0.0574-2.44836 0.0574-0.55472 0-1.91284-0.0574-2.46756-0.0574-0.15302 0-0.36344 0-0.36344 0.38256 0 0.21042 0.17216 0.21042 0.5356 0.21042 0.0383 0 0.4017 0 0.72688 0.0382 0.34431 0.0382 0.51645 0.0574 0.51645 0.30604 0 0.0765-0.0191 0.11472-0.0765 0.36344l-1.1477 4.66732h-5.83411l1.12856-4.49514c0.17216-0.68862 0.22954-0.8799 1.60679-0.8799 0.49732 0 0.65035 0 0.65035-0.38256 0-0.21042-0.2104-0.21042-0.26779-0.21042-0.53559 0-1.91284 0.0574-2.44842 0.0574-0.55472 0-1.91283-0.0574-2.46755-0.0574-0.15303 0-0.36344 0-0.36344 0.38256 0 0.21042 0.17216 0.21042 0.5356 0.21042 0.0383 0 0.40169 0 0.72688 0.0382 0.3443 0.0382 0.51645 0.0574 0.51645 0.30604 0 0.0765-0.0191 0.13392-0.0765 0.36344l-2.56318 10.2719c-0.19128 0.746-0.22954 0.89903-1.74067 0.89903-0.34431 0-0.51646 0-0.51646 0.38256 0 0.21041 0.22954 0.21041 0.26779 0.21041 0.53559 0 1.89371-0.0574 2.42929-0.0574 0.4017 0 0.82251 0.0192 1.22421 0.0192 0.42082 0 0.84165 0.0382 1.24334 0.0382 0.15303 0 0.38256 0 0.38256-0.38256 0-0.21041-0.17216-0.21041-0.53558-0.21041-0.70776 0-1.24334 0-1.24334-0.34431 0-0.11472 0.0383-0.21041 0.0574-0.32518l1.30072-5.24115h5.83411c-0.80338 3.17529-1.24333 4.99248-1.31984 5.2794-0.1913 0.6121-0.55472 0.63124-1.74067 0.63124-0.28693 0-0.45909 0-0.45909 0.38256 0 0.21041 0.22954 0.21041 0.26779 0.21041 0.5356 0 1.89371-0.0574 2.4293-0.0574 0.40169 0 0.82251 0.0192 1.22421 0.0192 0.42083 0 0.84164 0.0382 1.24334 0.0382 0.15302 0 0.38256 0 0.38256-0.38256 0-0.21041-0.17216-0.21041-0.53558-0.21041-0.70776 0-1.24335 0-1.24335-0.34431 0-0.11472 0.0383-0.21041 0.0574-0.32518z"/>
  </g>
  <path d="m82.0834 290.12c0.0383-0.0574 0.0956-0.19128 0.0956-0.2678 0-0.13392-0.0191-0.15296-0.45908-0.15296h-13.1985c-0.43995 0-0.45908 0.0192-0.45908 0.15296 0 0.0765 0.0574 0.21042 0.0956 0.2678l6.44622 12.9116c0.13391 0.24867 0.19128 0.36344 0.51647 0.36344 0.32518 0 0.38256-0.11472 0.51646-0.36344zm-11.6491 0.95641h10.5014l-5.24115 10.5206z" stroke-width="1.33333"/>
  <path d="m97.5809 289.469c0-0.0574-0.0383-0.19128-0.21041-0.19128-0.0574 0-0.0765 0.0192-0.28693 0.22954l-1.33898 1.47288c-0.17214-0.26781-1.05205-1.70242-3.17529-1.70242-4.2656 0-8.56946 4.22735-8.56946 8.66511 0 3.04139 2.12323 5.24113 5.22202 5.24113 0.84164 0 1.70241-0.17214 2.39104-0.45907 0.9564-0.38256 1.31984-0.78425 1.66414-1.16683 0.17216 0.47821 0.6695 1.18595 0.86078 1.18595 0.0956 0 0.13389-0.0574 0.13389-0.0765 0.0383-0.0382 0.22955-0.76512 0.32519-1.16681l0.36344-1.47288c0.0765-0.32519 0.17216-0.65036 0.24867-0.97554 0.2104-0.86078 0.22953-0.89904 1.31984-0.91816 0.0957 0 0.30606-0.0192 0.30606-0.38256 0-0.13392-0.0956-0.21042-0.24867-0.21042-0.43995 0-1.56851 0.0574-2.00846 0.0574-0.59298 0-2.085-0.0574-2.67797-0.0574-0.17215 0-0.4017 0-0.4017 0.38256 0 0.21042 0.15304 0.21042 0.57386 0.21042 0.0191 0 0.57384 0 1.01379 0.0382 0.49734 0.0574 0.59298 0.11472 0.59298 0.36344 0 0.17214-0.2104 1.03293-0.4017 1.74067-0.53558 2.10411-3.02226 2.31451-3.69174 2.31451-1.83632 0-3.84479-1.0903-3.84479-4.01692 0-0.59298 0.19128-3.74914 2.19975-6.23583 1.03292-1.30072 2.88836-2.46753 4.78208-2.46753 1.95107 0 3.07964 1.47286 3.07964 3.69174 0 0.76514-0.0574 0.78427-0.0574 0.97555s0.21042 0.19128 0.28693 0.19128c0.24867 0 0.24867-0.0382 0.3443-0.38256z" stroke-width="1.33333"/>
  <g fill="#00f">
   <path d="m36.4189 322.548c-0.68862 0.19128-1.03293 0.84163-1.03293 1.31984 0 0.42083 0.32519 0.8799 0.95642 0.8799 0.66949 0 1.37723-0.55472 1.37723-1.492 0-1.01381-1.01379-1.6833-2.18062-1.6833-1.09031 0-1.79805 0.82253-2.04672 1.16684-0.47821-0.8034-1.5494-1.16684-2.6397-1.16684-2.41016 0-3.71089 2.35279-3.71089 2.98402 0 0.26779 0.28692 0.26779 0.45908 0.26779 0.22954 0 0.36344 0 0.43995-0.24865 0.55472-1.74068 1.93196-2.31453 2.71621-2.31453 0.72688 0 1.07119 0.3443 1.07119 0.95641 0 0.36344-0.2678 1.41549-0.43996 2.10412l-0.65035 2.62056c-0.28693 1.16683-0.97555 1.74067-1.6259 1.74067-0.0956 0-0.5356 0-0.91816-0.28691 0.68861-0.19128 1.03293-0.84165 1.03293-1.31986 0-0.42082-0.32519-0.8799-0.95642-0.8799-0.66949 0-1.37724 0.55472-1.37724 1.49201 0 1.01379 1.0138 1.68328 2.18063 1.68328 1.09031 0 1.79805-0.82251 2.04672-1.16681 0.47821 0.80337 1.54939 1.16681 2.6397 1.16681 2.41016 0 3.71088-2.35277 3.71088-2.984 0-0.26781-0.28691-0.26781-0.45907-0.26781-0.22954 0-0.36344 0-0.43996 0.24868-0.55472 1.74067-1.93195 2.31451-2.7162 2.31451-0.72688 0-1.07119-0.34431-1.07119-0.9564 0-0.4017 0.24867-1.41551 0.42082-2.12325 0.1339-0.49733 0.57385-2.29539 0.66949-2.60144 0.28692-1.1477 0.95641-1.74067 1.6259-1.74067 0.0957 0 0.5356 0 0.91816 0.28693z" stroke-width="1.33333"/>
   <path d="m43.9811 316.978c-0.24101 0.10704-0.37491 0.32136-0.37491 0.58916 0 0.36152 0.2544 0.62932 0.62932 0.62932 0.36152 0 0.64271-0.22763 0.64271-0.65611 0-1.19168-1.86119-1.19168-2.2361-1.19168-2.00846 0-3.25372 1.53983-3.25372 3.07965 0 1.6871 1.43271 3.0261 3.18678 3.0261 1.99507 0 2.46371-1.58 2.46371-1.74068 0-0.16067-0.17406-0.16068-0.22762-0.16068-0.17408 0-0.18745 0.0402-0.25441 0.22763-0.29458 0.83016-1.00423 1.24525-1.82101 1.24525-0.92389 0-2.12898-0.68288-2.12898-2.61101 0-1.7005 0.83016-2.63779 2.07543-2.63779 0.17406 0 0.81677 0 1.2988 0.20084z" stroke-width="1.33333"/>
   <circle cx="52.957" cy="320.251" r="3.75"/>
  </g>
 </g>
</svg>
