<?xml version="1.0" encoding="UTF-8"?>
<svg width="212.159" height="109.315" version="1.1" viewBox="0 0 212.15898 109.31487" xmlns="http://www.w3.org/2000/svg"><g transform="translate(14.6509 -252.655)"><path d="m-13.5022 280.64c68.6732-58.5422 137.346 38.5725 206.02 0" color="#000000" color-rendering="auto" fill="none" image-rendering="auto" shape-rendering="auto" solid-color="#000000" stroke="#00f" stroke-width="2" style="isolation:auto;mix-blend-mode:normal"/><path d="m42.0178 330.866c-5.2057-0.0817-10.42 0.32288-15.6367 1.31054v2.01758c5.19734-1.00814 10.3965-1.40983 15.6055-1.32812 5.61103 0.088 11.2343 0.74576 16.8672 1.79492v-2.04102c-5.60166-1.02496-11.2133-1.6657-16.8359-1.7539zm-17.6367 1.72656c-11.5237 2.52188-23.0558 8.00263-34.5312 17.7852l1.29688 1.52344c11.1127-9.47328 22.1701-14.7902 33.2344-17.2754zm36.4727 0.41015v2.04102c9.2453 1.87277 18.5184 4.77689 27.8144 7.98438v-2.11914c-9.24737-3.17836-18.5171-6.05399-27.8144-7.90626zm29.8144 8.60157v2.11914c0.83529 0.29177 1.67022 0.57566 2.50586 0.87109 7.15175 2.52842 14.3164 5.15761 21.4941 7.58203v-2.11328c-6.93067-2.35265-13.8734-4.89669-20.8281-7.35547-1.0568-0.37362-2.1145-0.73539-3.17188-1.10351zm105.359 8.66406c-3.62203 2.03443-7.2414 3.66518-10.8594 4.97852v2.11718c3.94851-1.38555 7.89577-3.1382 11.8398-5.35351zm-79.3594 0.46289v2.11328c8.31359 2.75674 16.6447 5.1923 25 6.76367v-2.03711c-8.31108-1.58991-16.6461-4.05336-25-6.83984zm66.5 5.22461c-4.8331 1.58981-9.66453 2.5776-14.5 3.0918v1.99804c4.83119-0.50115 9.66633-1.47022 14.5-3.00781zm-39.5 1.97266v2.03125c0.39511 0.0677 0.79034 0.14337 1.18555 0.20703 7.25243 1.16824 14.5287 1.62609 21.8144 1.0625v-1.99414c-7.15101 0.56527-14.3114 0.11436-21.4961-1.04297-0.50105-0.0807-1.00268-0.17628-1.50391-0.26367z" color="#000000" color-rendering="auto" dominant-baseline="auto" fill="#00f" image-rendering="auto" shape-rendering="auto" solid-color="#000000" style="font-feature-settings:normal;font-variant-alternates:normal;font-variant-caps:normal;font-variant-ligatures:normal;font-variant-numeric:normal;font-variant-position:normal;isolation:auto;mix-blend-mode:normal;shape-padding:0;text-decoration-color:#000000;text-decoration-line:none;text-decoration-style:solid;text-indent:0;text-orientation:mixed;text-transform:none;white-space:normal"/><g stroke-linejoin="round" stroke-miterlimit="1e5" stroke-width="1.33333"><path d="m99.1556 335.58c0.160441-0.53101-0.146227-1.10325-0.677238-1.26369s-1.10326 0.14624-1.2637 0.67726c-0.160441 0.53101 0.146252 1.10324 0.677263 1.26368 0.531012 0.16044 1.10324-0.14623 1.26368-0.67725z"/><path d="m107.273 338.033c0.16044-0.53101-0.14623-1.10325-0.67724-1.26369-0.53101-0.16045-1.10326 0.14624-1.2637 0.67725s0.14625 1.10325 0.67726 1.26369c0.53102 0.16044 1.10324-0.14624 1.26368-0.67725z"/><path d="m115.392 340.486c0.16044-0.53102-0.14623-1.10326-0.67724-1.2637s-1.10326 0.14625-1.2637 0.67726 0.14625 1.10324 0.67726 1.26368 1.10324-0.14623 1.26368-0.67724z"/><path d="m-7.81364 260.481c-0.0574 0.28692-0.17214 0.72688-0.17214 0.82252 0 0.34431 0.26779 0.51647 0.55472 0.51647 0.22954 0 0.57384-0.15296 0.70774-0.5356 0.0191-0.0382 0.24868-0.93728 0.36344-1.41549l0.42082-1.72155c0.11477-0.42082 0.22954-0.84163 0.32518-1.28159 0.0765-0.32518 0.22954-0.8799 0.24868-0.95641 0.28691-0.59298 1.30072-2.33365 3.1179-2.33365 0.86077 0 1.03293 0.70774 1.03293 1.33898 0 0.4782-0.1339 1.0138-0.28693 1.58764l-0.53558 2.21888-0.38258 1.45375c-0.0765 0.38257-0.24866 1.03293-0.24866 1.12857 0 0.34431 0.2678 0.51647 0.55471 0.51647 0.59299 0 0.70776-0.47821 0.86078-1.09032 0.2678-1.07119 0.97554-3.86391 1.1477-4.60991 0.0574-0.24867 1.07118-2.54406 3.15616-2.54406 0.82251 0 1.03293 0.65037 1.03293 1.33898 0 1.09032-0.80339 3.27092-1.18595 4.28473-0.17216 0.45907-0.24868 0.66949-0.24868 1.05205 0 0.89904 0.66949 1.56853 1.56853 1.56853 1.79805 0 2.50583-2.79274 2.50583-2.94576 0-0.19128-0.17216-0.19128-0.22957-0.19128-0.19128 0-0.19128 0.0574-0.28693 0.3443-0.28691 1.01381-0.89902 2.37191-1.95107 2.37191-0.32519 0-0.45909-0.19128-0.45909-0.63124 0-0.4782 0.17216-0.93728 0.3443-1.35809 0.36344-0.99467 1.16684-3.11792 1.16684-4.20823 0-1.24334-0.76514-2.04672-2.19975-2.04672s-2.41017 0.84164-3.11792 1.85544c-0.0191-0.24867-0.0765-0.89904-0.61209-1.35811-0.47821-0.40169-1.09032-0.49733-1.56853-0.49733-1.72154 0-2.65882 1.22421-2.984 1.66416-0.0956-1.09032-0.89903-1.66416-1.75981-1.66416-0.87991 0-1.24333 0.746-1.41549 1.09031-0.34431 0.66949-0.59298 1.79806-0.59298 1.85544 0 0.19128 0.19129 0.19128 0.22954 0.19128 0.19129 0 0.21041-0.0192 0.32518-0.43995 0.32519-1.3581 0.70775-2.27626 1.39637-2.27626 0.30605 0 0.59298 0.15296 0.59298 0.8799 0 0.4017-0.0574 0.6121-0.30607 1.60677z"/><path d="m-8.18013 334.02c-1.49345 1.40301-1.80912 3.96918-0.853035 5.6443 0.758552 1.32903 2.21348 1.82009 3.51481 1.07735 1.61976-0.92448 1.52827-3.75382 0.43786-5.66429-0.71904-1.2598-1.66789-1.63593-2.49415-1.99026-0.853952-0.33854-2.26337-0.91064-2.61103-1.51977-0.173836-0.30457-0.08659-0.79486 0.397956-1.07141 0.415314-0.23705 0.794918-0.21511 1.19627-0.18723 0.371693 8e-3 0.751293 0.03 0.958959-0.0885 0.346095-0.19754 0.364126-0.64832 0.237699-0.86983-0.173832-0.30456-0.41905-0.21967-0.980639-0.046-0.806806 0.25861-1.00062 0.36923-1.22213 0.49566-1.07982 0.61632-1.23846 1.49606-0.764362 2.32671 0.426682 0.74757 1.27065 1.29369 2.18181 1.89322zm0.339971 0.20975c0.70957 0.43927 1.55157 0.94981 2.12048 1.94657 0.52151 0.91372 1.31498 3.52593 0.027491 4.26077-0.761409 0.43458-1.66088 0.17709-2.2614-0.87505-0.4978-0.87218-1.47106-3.76721 0.113428-5.33229z"/><path d="m-0.974915 336.845c0.0770124 0.23136 0.175665 0.59718 0.215177 0.66641 0.142226 0.24919 0.407157 0.26317 0.614823 0.14465 0.166126-0.0948 0.352127-0.34775 0.290979-0.68001-0.002004-0.0356-0.207201-0.78106-0.321679-1.17457l-0.40658-1.4198c-0.0908035-0.35196-0.181537-0.70395-0.294043-1.06187-0.0789194-0.26698-0.19735-0.73165-0.215103-0.79493-0.037296-0.54767-0.022597-2.22626 1.29258-2.97691 0.62298-0.35557 1.03993 0.0855 1.30068 0.54239 0.197541 0.34611 0.321879 0.78905 0.448172 1.26758l0.528955 1.82715 0.32362 1.21017c0.102624 0.30851 0.246722 0.85029 0.286234 0.91952 0.142226 0.24919 0.407157 0.26317 0.614805 0.14465 0.429175-0.24495 0.314697-0.63846 0.172597-1.14469-0.248677-0.88589-0.890067-3.19946-1.07362-3.81049-0.061209-0.20367-0.275644-2.28374 1.23335-3.14501 0.595292-0.33976 1.01623 0.044 1.30068 0.5424 0.450392 0.78911 0.769712 2.69918 0.911622 3.59095 0.065031 0.40337 0.096577 0.58726 0.254606 0.86414 0.371377 0.65067 1.13247 0.85866 1.78315 0.48728 1.30133-0.74274 0.659953-3.05634 0.596741-3.16709-0.079014-0.13844-0.203617-0.0673-0.245166-0.0436-0.138438 0.079-0.114694 0.12062-0.06544 0.36772 0.211138 0.85226 0.329129 2.08802-0.432289 2.5226-0.235353 0.13433-0.411274 0.0512-0.593007-0.26721-0.197541-0.3461-0.262581-0.74946-0.311818-1.12514-0.147847-0.87001-0.443469-2.73858-0.893851-3.52768-0.513603-0.89986-1.39923-1.16524-2.43752-0.57263-1.03829 0.59261-1.39669 1.60473-1.49013 2.63083-0.116533-0.1721-0.426787-0.61905-1.00401-0.73009-0.512039-0.0932-0.994552 0.0905-1.34066 0.288-1.24595 0.71113-1.41861 1.98432-1.47222 2.43706-0.519611-0.74961-1.3381-0.83306-1.96109-0.47748-0.636824 0.36347-0.5917 1.05351-0.574068 1.37381 0.027358 0.62677 0.313583 1.54629 0.337282 1.58781 0.079014 0.13844 0.217452 0.0594 0.24514 0.0436 0.138447-0.079 0.144359-0.10081 0.05362-0.45273-0.325662-1.11725-0.42806-1.93979 0.070335-2.22425 0.221501-0.12642 0.49234-0.13424 0.792629 0.39188 0.165935 0.29073 0.211332 0.4667 0.442216 1.28932z"/><path d="m11.296 325.506c-0.149334-0.26164-0.174233-0.26028-0.445594-0.1054-0.271754 0.96451-1.14809 1.47753-1.54541 1.7043l0.199117 0.34887c0.232583-0.13275 0.872169-0.4978 1.2503-1.07336l2.82085 4.94231c0.182531 0.31981 0.254432 0.44578-0.714652 0.99889l-0.36825 0.21019 0.199117 0.34886c0.169125-0.10885 1.34424-0.8187 1.7028-1.02335 0.300412-0.17146 1.53807-0.83929 1.75682-0.95125l-0.199118-0.34886-0.368259 0.21018c-0.969075 0.55311-1.04098 0.42713-1.22351 0.10733z"/><path d="m31.6593 319.603c-1.97359 0.55116-3.44253 2.67885-3.3716 4.6063 0.05628 1.52924 1.11796 2.63864 2.61533 2.58353 1.86375-0.0686 3.09386-2.61816 3.01296-4.81642-0.05335-1.44958-0.719834-2.2226-1.28783-2.91949-0.599832-0.69573-1.58364-1.85585-1.60943-2.55675-0.0129-0.35045 0.291638-0.74447 0.849161-0.76499 0.477877-0.0176 0.804102 0.17777 1.14682 0.38847 0.325619 0.17942 0.651824 0.37479 0.890772 0.366 0.398241-0.0147 0.62311-0.40575 0.613731-0.66063-0.0129-0.35044-0.269533-0.38886-0.847675-0.49519-0.834777-0.14473-1.05779-0.13652-1.31267-0.12714-1.24249 0.0457-1.79074 0.75178-1.75557 1.70755 0.03166 0.86019 0.52643 1.73524 1.056 2.68876zm0.204057 0.34341c0.425206 0.71809 0.934738 1.5607 0.976945 2.70762 0.03869 1.05136-0.468733 3.73384-1.95017 3.78836-0.876117 0.0322-1.55384-0.61276-1.5984-1.8234-0.03693-1.00356 0.442252-4.01999 2.57162-4.67258z"/><path d="m36.7335 325.446c-0.03897 0.24071-0.121087 0.6106-0.118156 0.69026 0.01055 0.28672 0.238837 0.42189 0.477785 0.4131 0.191151-7e-3 0.473189-0.14497 0.572977-0.46773 0.01472-0.0325 0.178356-0.78815 0.259276-1.18991l0.297684-1.44656c0.08264-0.35396 0.165357-0.70792 0.231531-1.07722 0.05379-0.27315 0.164184-0.7398 0.177779-0.8041 0.220756-0.5026 1.01168-1.98325 2.52498-2.03894 0.716825-0.0264 0.881877 0.55773 0.901222 1.0834 0.01466 0.39824-0.08043 0.84837-0.190283 1.33094l-0.378017 1.86423-0.274053 1.22236c-0.05203 0.32094-0.175415 0.8678-0.172483 0.94746 0.01055 0.28673 0.238837 0.42189 0.477765 0.4131 0.493826-0.0182 0.574745-0.41993 0.68342-0.93437 0.190181-0.90026 0.693986-3.24763 0.814497-3.87416 0.04015-0.20885 0.814081-2.15144 2.55038-2.21534 0.684967-0.0252 0.880119 0.50995 0.901222 1.0834 0.03341 0.90799-0.568795 2.74855-0.85631 3.60454-0.129304 0.38758-0.186573 0.56515-0.174849 0.88374 0.02755 0.74869 0.605603 1.28571 1.3543 1.25815 1.49736-0.0551 2.00119-2.4025 1.9965-2.52993-0.0059-0.15929-0.149235-0.15402-0.197043-0.15226-0.159292 6e-3 -0.15753 0.0537-0.228396 0.29552-0.207859 0.85306-0.675984 2.0028-1.5521 2.03504-0.270807 0.01-0.388173-0.14522-0.401656-0.5116-0.01465-0.39824 0.114639-0.78581 0.245105-1.14153 0.272173-0.83947 0.87615-2.63227 0.842737-3.54024-0.0381-1.03542-0.699913-1.681-1.8946-1.63703-1.1947 0.044-1.98133 0.77475-2.53965 1.64071-0.02351-0.20651-0.09131-0.74635-0.551356-1.11224-0.410551-0.31987-0.923226-0.38075-1.32147-0.36609-1.43364 0.0528-2.17666 1.10096-2.43398 1.47731-0.113061-0.90506-0.799684-1.35831-1.51652-1.33193-0.732754 0.027-1.01255 0.65934-1.14536 0.95134-0.266219 0.56809-0.438712 1.51555-0.436954 1.56333 0.0059 0.15929 0.165154 0.15343 0.197013 0.15226 0.159302-6e-3 0.174643-0.0224 0.257324-0.37634 0.229176-1.14095 0.519622-1.91729 1.09309-1.93839 0.254868-9e-3 0.498493 0.1092 0.520772 0.71458 0.01231 0.33453-0.02901 0.51149-0.205637 1.34745z"/><path d="m54.9451 326.078-0.379114 0.014c-0.02445 0.24655-0.111713 0.90853-0.252582 1.02538-0.08668 0.0701-0.945338 0.10174-1.10144 0.10748l-2.05171 0.0755c1.13264-1.0801 1.51143-1.40669 2.16118-1.95538 0.800941-0.68826 1.54488-1.4079 1.5059-2.46721-0.04965-1.34922-1.26198-2.13088-2.68925-2.07835-1.38267 0.0509-2.28363 1.05545-2.24588 2.08131 0.02093 0.56868 0.502455 0.60678 0.613959 0.60268 0.267619-0.01 0.584015-0.2113 0.569242-0.61272-0.0074-0.20071-0.0998-0.58812-0.679643-0.56678 0.316542-0.8044 1.06575-1.07762 1.58984-1.09691 1.11506-0.041 1.7269 0.80737 1.76014 1.71057 0.0357 0.9701-0.627328 1.76493-0.969375 2.17948l-2.58964 2.75275c-0.107812 0.10443-0.106988 0.12682-0.0955 0.43898l4.59405-0.16906z"/><path d="m67.9673 322.827c-2.04538 0.12348-3.9292 1.89438-4.26548 3.7936-0.266809 1.50683 0.53764 2.81481 2.01306 3.07606 1.83644 0.32517 3.57556-1.90843 3.9591-4.07448 0.252911-1.42834-0.235971-2.32432-0.644573-3.12513-0.439983-0.80639-1.15762-2.14756-1.03533-2.83819 0.06114-0.34532 0.441772-0.66643 0.991136-0.56916 0.470876 0.0834 0.748673 0.34301 1.03939 0.62112 0.280567 0.24393 0.558352 0.50357 0.79379 0.54526 0.392406 0.0695 0.694555-0.26553 0.739024-0.51667 0.06114-0.34531-0.181672-0.43688-0.724489-0.6625-0.785624-0.31716-1.00537-0.35607-1.25651-0.40054-1.2243-0.21678-1.90886 0.35808-2.07562 1.29986-0.150079 0.84758 0.149473 1.80716 0.466511 2.85077zm0.127226 0.37867c0.264552 0.79149 0.585347 1.72246 0.385242 2.85257-0.183432 1.03596-1.24402 3.55158-2.70375 3.29311-0.863281-0.15286-1.39008-0.92604-1.17886-2.11894 0.175093-0.98886 1.27834-3.83689 3.49737-4.02674z"/><path d="m71.6982 329.607c-0.08876 0.22711-0.246874 0.57144-0.260772 0.64993-0.05003 0.28252 0.144711 0.4627 0.380149 0.50439 0.18835 0.0334 0.4931-0.0421 0.658577-0.33667 0.02122-0.0286 0.340237-0.73296 0.503894-1.10869l0.595443-1.35152c0.155278-0.32864 0.310635-0.65726 0.453036-1.00437 0.110071-0.25572 0.316197-0.68868 0.34302-0.74868 0.321583-0.44489 1.40639-1.72593 2.89752-1.4619 0.706323 0.12506 0.744765 0.73083 0.653049 1.2488-0.06948 0.3924-0.257182 0.81244-0.466125 1.26108l-0.761877 1.74293-0.525148 1.13731c-0.118409 0.30281-0.354125 0.81146-0.368023 0.88995-0.05003 0.28252 0.144702 0.4627 0.380139 0.50439 0.486591 0.0862 0.650248-0.28957 0.864751-0.76961 0.375381-0.84008 1.3619-3.02886 1.61156-3.616 0.0832-0.19572 1.24862-1.93194 2.95948-1.629 0.674931 0.11951 0.7531 0.68375 0.653049 1.2488-0.158418 0.89468-1.1345 2.56729-1.59571 3.3436-0.207964 0.35169-0.30132 0.51324-0.356904 0.82716-0.130627 0.73772 0.321454 1.38436 1.05918 1.51498 1.47543 0.26125 2.46198-1.92755 2.48421-2.05311 0.02779-0.15696-0.11348-0.18197-0.160587-0.19032-0.156959-0.0278-0.16531 0.0194-0.285464 0.24084-0.382739 0.79021-1.08234 1.81568-1.94562 1.66282-0.266829-0.0472-0.348918-0.22366-0.284996-0.58466 0.06948-0.39241 0.277455-0.74409 0.479851-1.06439 0.442751-0.76339 1.41048-2.38894 1.5689-3.2836 0.180652-1.02025-0.330465-1.79065-1.50766-1.99909-1.1772-0.20844-2.1 0.34043-2.82806 1.0695 0.02048-0.20683 0.0678-0.74885-0.30494-1.20336-0.334031-0.3991-0.822424-0.56651-1.21482-0.63599-1.41265-0.25013-2.35961 0.61823-2.69038 0.93199 0.07994-0.90857-0.49592-1.49618-1.20225-1.62125-0.722019-0.12784-1.12863 0.43149-1.31992 0.689-0.3798 0.49934-0.747832 1.38929-0.756168 1.43636-0.02779 0.15696 0.129176 0.18476 0.160568 0.19031 0.156958 0.0278 0.175444 0.0148 0.330751-0.31375 0.464155-1.06717 0.911485-1.765 1.47655-1.66494 0.251133 0.0445 0.464358 0.21166 0.358736 0.80817-0.05837 0.32963-0.136003 0.49394-0.484609 1.27399z"/><path d="m87.1159 331.935c0.857009 0.15175 1.36724 0.85402 1.15908 2.02965-0.24124 1.36242-1.1043 1.62888-1.74156 1.51604-0.439493-0.0778-1.38496-0.36994-1.73165-1.09985 0.520296 0.0695 0.705348-0.27171 0.746203-0.50244 0.06226-0.3516-0.156687-0.65099-0.497289-0.7113-0.307644-0.0545-0.64836 0.0778-0.728128 0.52832-0.182873 1.0328 0.84112 1.90534 2.17058 2.14074 1.52723 0.27042 2.76293-0.56462 2.95748-1.66335 0.151746-0.857-0.399687-1.83852-1.56354-2.30523 1.22758-0.21324 1.79102-0.96336 1.90969-1.63358 0.153691-0.86798-0.731363-1.69327-1.95095-1.90922-1.21959-0.21594-2.25856 0.21199-2.41419 1.09097-0.06615 0.37358 0.138609 0.62513 0.468221 0.6835 0.340612 0.0603 0.6051-0.15349 0.659574-0.46114 0.05642-0.31862-0.12247-0.58826-0.45919-0.67055 0.470159-0.41535 1.24969-0.40197 1.65621-0.32999 0.494419 0.0876 1.14382 0.45183 0.974565 1.40772-0.08171 0.46147-0.325019 0.93965-0.671005 1.22967-0.436498 0.35331-0.748034 0.32082-1.30323 0.2565-0.278575-0.0267-0.300553-0.0306-0.357432-0.0293-0.02196-4e-3 -0.113769 3e-3 -0.135172 0.12338-0.02724 0.15382 0.07165 0.17133 0.25844 0.20441z"/></g><path d="m89.3023 316.85 16.6646-19.7595-10.8266 4.67978 0.12985-18.1335-11.5386 0.11279-0.12758 18.1384-10.7144-4.22796z" color="#000000" color-rendering="auto" fill="#f00" image-rendering="auto" shape-rendering="auto" solid-color="#000000" style="isolation:auto;mix-blend-mode:normal;text-decoration-color:#000000;text-decoration-line:none;text-decoration-style:solid;text-indent:0;text-transform:none;white-space:normal"/></g></svg>
