<?xml version="1.0" encoding="UTF-8"?>
<svg width="237.98" height="143.281" version="1.1" viewBox="0 0 237.97958 143.28079" xmlns="http://www.w3.org/2000/svg" xmlns:xlink="http://www.w3.org/1999/xlink">
 <defs>
  <marker id="Arrow1Lend-3-1" overflow="visible" orient="auto">
   <path transform="matrix(-.8 0 0 -.8 -10 0)" d="m0 0 5-5-17.5 5 17.5 5z" fill-rule="evenodd" stroke="#000" stroke-width="1pt"/>
  </marker>
  <symbol id="symbol10600">
   <path d="m8.528 57.462c-0.576 0.108-0.792 0.54-0.792 0.882 0 0.432 0.342 0.576 0.594 0.576 0.539999 0 0.917999-0.468 0.917999-0.954 0-0.756-0.863999-1.098-1.62-1.098-1.098 0-1.71 1.08-1.872 1.422-0.414-1.35-1.53-1.422-1.854-1.422-1.836 0-2.808 2.358-2.808 2.754 0 0.072 0.072 0.162 0.198 0.162 0.144 0 0.18-0.108 0.216-0.18 0.612-1.998 1.818-2.376 2.34-2.376 0.81 0 0.972 0.756 0.972 1.188 0 0.396-0.108 0.81-0.324 1.67399l-0.612 2.466c-0.27 1.08-0.792 2.07-1.746 2.07-0.09 0-0.54 0-0.918-0.234 0.648-0.126 0.792-0.666 0.792-0.882 0-0.36-0.27-0.576-0.612-0.576-0.432 0-0.9 0.378-0.9 0.954 0 0.756 0.846 1.09801 1.62 1.09801 0.864 0 1.476-0.68401 1.854-1.42201 0.288 1.062 1.188 1.42201 1.854 1.42201 1.836 0 2.808-2.35801 2.808-2.75401 0-0.09-0.072-0.162-0.18-0.162-0.162 0-0.18 0.09-0.234 0.234-0.486 1.584-1.53 2.322-2.34 2.322-0.63 0-0.972-0.468-0.972-1.206 0-0.396 0.072-0.684 0.36-1.872l0.63-2.44799c0.27-1.08 0.882-1.872 1.71-1.872 0.036 0 0.54 0 0.918001 0.234z" stroke-linejoin="round" stroke-miterlimit="1e5" stroke-width="1.5"/>
  </symbol>
  <symbol id="symbol10607">
   <path d="m96.1503 132.473h1.656c0.342 0 0.522 0 0.522-0.324 0-0.198-0.108-0.198-0.468-0.198h-1.584l0.666-2.628c0.072-0.252 0.072-0.288 0.072-0.414 0-0.288-0.234-0.45-0.468-0.45-0.144 0-0.558 0.054-0.702 0.63l-0.702 2.862h-1.692c-0.36 0-0.522 0-0.522 0.342 0 0.18 0.126 0.18 0.468 0.18h1.602l-1.188 4.752c-0.144 0.63-0.198 0.81-0.198 1.044 0 0.846 0.594 1.62 1.602 1.62 1.818 0 2.79-2.628 2.79-2.754 0-0.108-0.072-0.162-0.18-0.162-0.036 0-0.108005 0-0.144005 0.072-0.018 0.018-0.036 0.036-0.162 0.324-0.378 0.9-1.206 2.16-2.25 2.16-0.54 0-0.576-0.45-0.576-0.846 0-0.018 0-0.36 0.054-0.576z" stroke-linejoin="round" stroke-miterlimit="1e5" stroke-width="1.5"/>
  </symbol>
 </defs>
 <g fill="none" stroke="#414141">
  <path d="m213.673 132.761c-20.9582-31.3705-43.1263-61.8829-66.1406-87.4578" color="#000000"/>
  <path d="m103.417 58.9281c-11.2875-20.8598-24.2913-38.9163-39.6344-48.3264" color="#000000"/>
  <path d="m11.0095 84.21c41.5483-41.5226 35.5187 56.8687 66.0686 40.3276" color="#000000"/>
 </g>
 <circle cx="40.3251" cy="80.556" r="2.5" color="#000000" fill="#5e5bff" stroke-width="1.41891"/>
 <circle cx="86.7193" cy="32.259" r="31.5093" color="#000000" fill="none" stroke="#009da3" stroke-width=".5"/>
 <circle cx="86.7193" cy="32.259" r="9.90219" color="#000000" color-rendering="auto" fill="none" image-rendering="auto" shape-rendering="auto" solid-color="#000000" stroke="#009da3" stroke-width=".5" style="isolation:auto;mix-blend-mode:normal"/>
 <circle cx="86.4469" cy="32.5314" r="2.5" color="#000000" fill="#5e5bff" stroke-width=".901748"/>
 <circle cx="182.378" cy="87.679" r="54.8519" color="#000000" fill="none" stroke="#009da3" stroke-width=".5"/>
 <circle cx="182.105" cy="87.9514" r="2.5" color="#000000" fill="#5e5bff" stroke-width=".901748"/>
 <g fill="none" stroke="#009da3" stroke-width=".5">
  <path d="m33.6928 77.848 24.1209-58.1417" color="#000000"/>
  <path d="m42.8816 87.217 57.5699-26.597" color="#000000"/>
  <path d="m78.5523 37.872 59.9558 82.737" color="#000000"/>
  <path d="m87.6824 22.417 101.088 10.7731" color="#000000"/>
  <ellipse cx="40.3251" cy="80.556" rx="7.15633" ry="7.12998" color="#000000"/>
 </g>
 <g stroke-linejoin="round" stroke-miterlimit="1e5" stroke-width="1.5">
  <path d="m144.205 107.15c0-0.054 0-0.09-0.306-0.396-1.8-1.818-2.808-4.788-2.808-8.46 0-3.492 0.846-6.498 2.934-8.622 0.18-0.162 0.18-0.198 0.18-0.252 0-0.108-0.09-0.144-0.162-0.144-0.234 0-1.71 1.296-2.592 3.06-0.918 1.818-1.332 3.744-1.332 5.958 0 1.602 0.252 3.744 1.188 5.67 1.062 2.16 2.538 3.33 2.736 3.33 0.072 0 0.162-0.036 0.162-0.144z"/>
  <path d="m155.083 102.848c0-1.044-0.342-1.818-1.08-1.818-0.576 0-0.864 0.468-0.864 0.864s0.27 0.882 0.882 0.882c0.234 0 0.432-0.072 0.594-0.234 0.036-0.036 0.054-0.036 0.072-0.036 0.036 0 0.036 0.252 0.036 0.342 0 0.594-0.108 1.764-1.152 2.934-0.198 0.216-0.198 0.252-0.198 0.288 0 0.09 0.09 0.18 0.18 0.18 0.144 0 1.53-1.332 1.53-3.402z"/>
  <path d="m177.561 98.294c0-1.368-0.18-3.6-1.188-5.688-1.062-2.16-2.538-3.33-2.736-3.33-0.072 0-0.162 0.036-0.162 0.144 0 0.054 0 0.09 0.306 0.396 1.8 1.818 2.808 4.788 2.808 8.46 0 3.492-0.846 6.498-2.934 8.622-0.18 0.162-0.18 0.198-0.18 0.252 0 0.108 0.09 0.144 0.162 0.144 0.234 0 1.71-1.296 2.592-3.06 0.918-1.836 1.332-3.78 1.332-5.94z"/>
 </g>
 <path d="m4.5204 134.449v-64.2986" color="#000000" fill="none" marker="none" marker-end="url(#Arrow1Lend-3-1)" stroke="#000" stroke-linecap="round" stroke-width=".499999"/>
 <path d="m4.5204 134.449h82.3856" color="#000000" fill="none" marker="none" marker-end="url(#Arrow1Lend-3-1)" stroke="#000" stroke-linecap="round" stroke-width=".499999"/>
 <path d="m25.5045 95.346h3.0127c2.47472 0 4.94943-1.82915 4.94943-3.87348 0-1.39875-1.18356-2.67198-3.44308-2.67198h-5.54121c-0.340725 0-0.502125 0-0.502125 0.34072 0 0.17933 0.1614 0.17933 0.43038 0.17933 1.0939 0 1.0939 0.1434 1.0939 0.34072 0 0.0359 0 0.1434-0.07173 0.41246l-2.42092 9.64782c-0.1614 0.62764-0.197265 0.80697-1.45255 0.80697-0.340722 0-0.52005 0-0.52005 0.32278 0 0.19727 0.161394 0.19727 0.26899 0.19727 0.340724 0 0.699375-0.0359 1.0401-0.0359h2.09812c0.340725 0 0.717315 0.0359 1.05804 0.0359 0.14346 0 0.340725 0 0.340725-0.34073 0-0.17932-0.1614-0.17932-0.430395-0.17932-1.07596 0-1.09389-0.12555-1.09389-0.30486 0-0.0897 0.01792-0.21519 0.03586-0.30486zm1.29116-5.32604c0.1614-0.66351 0.23313-0.69937 0.932505-0.69937h1.77534c1.34496 0 2.45679 0.43038 2.45679 1.77534 0 0.46626-0.23313 1.99054-1.05802 2.81544-0.30486 0.3228-1.16564 1.00423-2.79752 1.00423h-2.52852z" stroke-linejoin="round" stroke-miterlimit="1e5" stroke-width="1.5"/>
 <use xlink:href="#symbol10600"/>
 <use xlink:href="#symbol10607"/>
 <use transform="translate(162.473,37.97)" width="100%" height="100%" xlink:href="#symbol10600"/>
 <use transform="translate(52.6767,-36.933)" width="100%" height="100%" xlink:href="#symbol10607"/>
</svg>
