<?xml version="1.0" encoding="UTF-8"?>
<svg width="170.98" height="112.363" version="1.1" viewBox="0 0 170.97952 112.36274" xmlns="http://www.w3.org/2000/svg">
 <path d="m0.90346 0.795284v110.58h169.465c-39.3247-8.97726-116.172-37.7574-169.465-110.58z" color="#000000" opacity=".15"/>
 <path d="m170.368 111.375c-39.3247-8.97726-116.172-37.7574-169.465-110.58" color="#000000" fill="none" stroke="#000"/>
 <g stroke-width="1.33333">
  <path d="m78.5427 92.4673c0-0.0574-0.0383-0.19128-0.21042-0.19128-0.0574 0-0.0765 0.0192-0.28693 0.22954l-1.33897 1.47288c-0.17215-0.26781-1.05205-1.70242-3.1753-1.70242-4.2656 0-8.56946 4.22735-8.56946 8.66511 0 3.04139 2.12324 5.24113 5.22202 5.24113 0.84165 0 1.70242-0.17214 2.39104-0.45907 0.9564-0.38256 1.31984-0.78425 1.66415-1.16683 0.17216 0.47821 0.6695 1.18595 0.86078 1.18595 0.0956 0 0.13389-0.0574 0.13389-0.0765 0.0383-0.0382 0.22955-0.76512 0.32518-1.16681l0.36344-1.47288c0.0765-0.32519 0.17216-0.65036 0.24867-0.97554 0.2104-0.86078 0.22954-0.89904 1.31984-0.91816 0.0956 0 0.30607-0.0192 0.30607-0.38256 0-0.13392-0.0956-0.21042-0.24867-0.21042-0.43996 0-1.56852 0.0574-2.00847 0.0574-0.59297 0-2.08499-0.0574-2.67797-0.0574-0.17214 0-0.40169 0-0.40169 0.38256 0 0.21042 0.15304 0.21042 0.57385 0.21042 0.0191 0 0.57384 0 1.0138 0.0382 0.49734 0.0574 0.59297 0.11472 0.59297 0.36344 0 0.17214-0.2104 1.03293-0.40169 1.74067-0.53559 2.10411-3.02226 2.31451-3.69175 2.31451-1.83632 0-3.84478-1.0903-3.84478-4.01692 0-0.59298 0.19128-3.74914 2.19974-6.23583 1.03293-1.30072 2.88837-2.46753 4.78208-2.46753 1.95107 0 3.07965 1.47286 3.07965 3.69174 0 0.76514-0.0574 0.78427-0.0574 0.97555s0.21041 0.19128 0.28693 0.19128c0.24867 0 0.24867-0.0382 0.3443-0.38256z"/>
  <path d="m97.2124 94.3993c0.21042-0.0957 0.36344-0.19128 0.36344-0.42082 0-0.21042-0.15302-0.38258-0.38258-0.38258-0.0956 0-0.26779 0.0765-0.3443 0.11472l-10.5779 4.99248c-0.32518 0.15296-0.38256 0.28693-0.38256 0.43996 0 0.17216 0.11477 0.30604 0.38256 0.42083l10.5779 4.97334c0.24867 0.13392 0.28693 0.13392 0.3443 0.13392 0.21042 0 0.38258-0.17214 0.38258-0.38256 0-0.17214-0.0765-0.28693-0.4017-0.43995l-10.0041-4.70555zm-0.30605 13.9828c0.32517 0 0.66949 0 0.66949-0.38257 0-0.38258-0.4017-0.38256-0.68862-0.38256h-10.3101c-0.28693 0-0.68863 0-0.68863 0.38256s0.34431 0.38257 0.66949 0.38257z"/>
  <path d="m113.236 99.6413c0-1.53027-0.0957-3.06053-0.76514-4.47602-0.8799-1.83632-2.44842-2.14237-3.25181-2.14237-1.14769 0-2.54406 0.49733-3.32831 2.27626-0.61211 1.31986-0.70775 2.81186-0.70775 4.34213 0 1.43461 0.0765 3.15616 0.86077 4.6099 0.82252 1.54939 2.21888 1.93195 3.15617 1.93195 1.03293 0 2.48667-0.40168 3.32832-2.21888 0.6121-1.31984 0.70775-2.81185 0.70775-4.32297zm-4.03607 6.12104c-0.746 0-1.87457-0.47821-2.21888-2.31453-0.21041-1.1477-0.21041-2.90749-0.21041-4.03606 0-1.22421 0-2.48668 0.15302-3.5196 0.36344-2.27626 1.79806-2.44842 2.27627-2.44842 0.63123 0 1.8937 0.3443 2.25714 2.23802 0.19128 1.07118 0.19128 2.52492 0.19128 3.73 0 1.43462 0 2.73534-0.21042 3.95955-0.28693 1.81718-1.37723 2.39104-2.238 2.39104z"/>
 </g>
</svg>
