<?xml version="1.0" encoding="UTF-8"?>
<svg width="118.056" height="87.6838" version="1.1" viewBox="0 0 118.0558 87.68383" xmlns="http://www.w3.org/2000/svg"><g transform="translate(-23.8292 -272.042)"><g fill="none" stroke="#000" stroke-linejoin="round"><path d="m118.212 314.141 1.09312-2.36346 0.0327-0.0709-1.67142-2.00808-1.67143-2.00809-1.67168-2.00808-1.67143-2.00808-1.67142-2.00809-1.67142-2.00808-1.67143-2.00809-1.67142-2.00782-1.67142-2.00808-1.67143-2.00809-1.67142-2.00808-1.67169-2.00808-1.67142-2.00809-1.67143-2.00808-1.67142-2.00809-1.67142-2.00808-1.67143-2.00808-1.67142-2.00809-1.67142-2.00808-0.4255-0.51124-2.18465 1.45241-2.18439 1.45216-2.18439 1.45242-2.18466 1.45216-2.18439 1.45242-2.18439 1.45242-2.18465 1.45216-2.18439 1.45242-2.18439 1.45216-2.18439 1.45241-2.18466 1.45216-2.18439 1.45242-2.18439 1.45242-2.18465 1.45216-2.18439 1.45242-1.81211 1.20485-0.32617 0.38811"/><path d="m87.1544 273.042-1.56867 2.08731-1.56841 2.08732-1.56841 2.08731-1.56867 2.08732-1.56841 2.08706-1.56841 2.08731-1.56841 2.08732-1.56867 2.08732-1.56841 2.08731-1.5684 2.08706-1.56868 2.08731-1.56841 2.08732-0.67921 0.90403"/><path d="m31.2392 321.442 2.23393-1.37708 2.23392-1.37735 2.23392-1.37708 2.23392-1.37734 2.23392-1.37708 2.23392-1.37735 2.23393-1.37708 2.23392-1.37734 2.23392-1.37735 2.23392-1.37708 2.23392-1.37734 2.23392-1.37708 2.23393-1.37735 2.23392-1.37708 2.23392-1.37734 2.23392-1.37709 0.67131-0.41382 1.70199 1.98288 1.70198 1.98315 1.70199 1.98288 1.70172 1.98315 1.70198 1.98288 1.70199 1.98315 1.70199 1.98288 1.70198 1.98289 1.70199 1.98314 1.70198 1.98289 1.70199 1.98314 1.70198 1.98289 1.70199 1.98314 1.70172 1.98289 1.70199 1.98315 1.70198 1.98288 1.70199 1.98315 1.70198 1.98288 1.70199 1.98289 1.70198 1.98314 1.70199 1.98289 1.66615 1.94132"/><path d="m50.0524 299.036-1.68012 2.00107-1.68012 2.00107-1.68012 2.00107-1.68012 2.00107-1.68011 2.00081-1.68012 2.00107-1.68012 2.00107-1.68012 2.00107-1.68011 2.00107-1.68012 2.00107-1.68012 2.00081-0.33197 0.39564 1.74204 1.94886 1.74203 1.94885 1.74203 1.94885 1.74203 1.94886 1.74203 1.94911 1.74204 1.94886 1.74203 1.94885 1.74203 1.94886 1.74203 1.94885 1.74203 1.94885 1.74204 1.94886 1.74203 1.94885 1.74203 1.94886 1.74203 1.94885 1.74204 1.94886 1.74203 1.94885 1.74203 1.94886 1.74203 1.94911 1.96967 2.20344 2.44258-0.97391 2.44233-0.97417 2.44258-0.97391 2.44233-0.9739 2.44258-0.97391 2.44233-0.97417 2.44258-0.97391 2.44232-0.9739 2.44259-0.97417 2.44259-0.97391 2.44232-0.97391 2.44259-0.97416 2.44232-0.97391 2.44258-0.97391 2.44233-0.97391 2.44258-0.97416 1.4156-0.5645 1.09312-2.36346 1.09312-2.36372 1.09311-2.36372 1.09312-2.36346 1.09312-2.36372 1.09312-2.36372 1.09311-2.36372 1.09312-2.36346 1.09312-2.36372 1.09312-2.36372 0.29666-0.64165"/><path d="m25.5673 291.915 2.5269 0.73491 2.52716 0.73491 2.52689 0.73491 2.52716 0.73491 2.5269 0.73492 2.52715 0.73517 2.5269 0.73491 2.52716 0.73491 2.52689 0.73491 1.74204 0.50657 1.89431 0.55099 0.22526 7e-3 0.28902-0.0356 0.34277-0.0774 0.38387-0.11716 0.41022-0.15223 0.42101-0.18236 0.4147-0.20471 0.37728-0.21172 0.0145-8e-3 0.35278-0.22523 0.2993-0.22211 0.23343-0.2099 0.15834-0.18886 0.0767-0.16054-7e-3 -0.12547-0.0906-0.086-2.54218-0.68296-0.19338-0.052-0.86337-0.23198-2.54192-0.6827-2.54191-0.68296-2.54218-0.68295-2.54191-0.68296-2.54191-0.68296-2.54191-0.68295-2.54218-0.68296-2.54191-0.68269-2.54192-0.68296-2.54217-0.68296-0.56276-0.15119-0.2337-0.0135-0.23422 0.0356-0.22526 0.0839-0.20787 0.12859-0.18259 0.1686-0.14991 0.20185-0.11144 0.22756-0.069 0.24419-0.0235 0.25147 0.0227 0.24938 0.068 0.23718 0.11039 0.21588 0.14913 0.18678 0.18126 0.14989 0.20708 0.10781z"/><path d="m140.642 323.011 0.15281-0.46474 0.0819-0.47462 8e-3 -0.46656-0.0661-0.44058-0.13779-0.39772-0.20471-0.33979-0.26399-0.26861-0.31274-0.18704-0.34988-0.0979-2.54218-0.68295-2.54191-0.68296-2.54191-0.68296-2.54191-0.68269-2.54218-0.68296-2.54191-0.68296-2.54192-0.68295-2.54191-0.68296-1.00275-0.26939-2.54296-0.68296-2.54192-0.68295-2.54191-0.68296-2.54191-0.68295-2.54218-0.68296-2.54191-0.68296-2.54191-0.68295-2.54218-0.6827-2.54191-0.68296-2.54191-0.68295-2.54192-0.68296-2.54217-0.68295-2.54191-0.68296-2.54192-0.68296-1.56814-0.4211-0.24503 6e-3 -0.22052 0.0844-0.18758 0.16002-0.14754 0.2299-0.10144 0.29069-0.0516 0.34083 5.3e-4 0.37772 0.053 0.40032 0.10328 0.40707 0.14964 0.39824 0.19049 0.37382 0.22342 0.33433 0.24818 0.28238 0.26294 0.219 0.26715 0.14755 2.52716 0.73491 2.5269 0.73491 2.52716 0.73491 2.52689 0.73518 2.52716 0.73491 2.52689 0.73491 2.52716 0.73491 2.5269 0.73491 2.52689 0.73492 2.52716 0.73491 2.73082 0.7944 2.52716 0.73491 2.52689 0.73491 1.63349 0.47514 2.52716 0.73491 2.52689 0.73491 2.52716 0.73491 2.52689 0.73491 2.52716 0.73492 2.5269 0.73491 2.52716 0.73491 2.52689 0.73517 1.49095 0.43357 0.35041 0.094 0.37307 2e-3 0.3815-0.0912 0.37491-0.18003 0.35436-0.26185 0.32063-0.33382 0.27427-0.39278 0.21762-0.43721z"/><path d="m139.55 319.874-0.37386-5e-3 -0.38281 0.0886-0.37755 0.17873-0.35752 0.26211-0.32327 0.33512-0.27664 0.39564-0.21947 0.44058-0.15333 0.46864-0.0814 0.47799-7e-3 0.4689 0.0685 0.44214 0.14095 0.39772 0.20761 0.33824 0.26637 0.26601 0.31431 0.1834"/></g><g fill="#f00"><g stroke-width="1.33333"><path d="m51.8379 279.823c-0.57385 0.1594-0.86077 0.70136-0.86077 1.09987 0 0.35069 0.27099 0.73325 0.79701 0.73325 0.55791 0 1.1477-0.46226 1.1477-1.24333 0-0.84484-0.84483-1.40275-1.81719-1.40275-0.90859 0-1.49837 0.68544-1.7056 0.97236-0.39851-0.66949-1.29116-0.97236-2.19975-0.97236-2.00846 0-3.0924 1.96066-3.0924 2.48668 0 0.22316 0.2391 0.22316 0.38256 0.22316 0.19128 0 0.30287 0 0.36663-0.20721 0.46227-1.45056 1.60996-1.92877 2.26351-1.92877 0.60573 0 0.89265 0.28692 0.89265 0.79701 0 0.30287-0.22316 1.17957-0.36663 1.75343l-0.54196 2.1838c-0.2391 0.97236-0.81296 1.45056-1.35492 1.45056-0.0797 0-0.44633 0-0.76513-0.2391 0.57384-0.1594 0.86077-0.70137 0.86077-1.09988 0-0.35068-0.27098-0.73325-0.79701-0.73325-0.55791 0-1.1477 0.46227-1.1477 1.24335 0 0.84482 0.84483 1.40273 1.81719 1.40273 0.90859 0 1.49838-0.68543 1.7056-0.97235 0.39851 0.66948 1.29116 0.97235 2.19975 0.97235 2.00847 0 3.0924-1.96064 3.0924-2.48667 0-0.22317-0.23909-0.22317-0.38256-0.22317-0.19128 0-0.30287 0-0.36663 0.20723-0.46226 1.45056-1.60996 1.92876-2.2635 1.92876-0.60574 0-0.89266-0.28692-0.89266-0.797 0-0.33475 0.20723-1.17959 0.35068-1.76938 0.11159-0.41444 0.47822-1.91282 0.55791-2.16786 0.23911-0.95642 0.79701-1.45056 1.35492-1.45056 0.0797 0 0.44633 0 0.76513 0.2391z"/><path d="m59.5556 285.047c0-1.2274-0.14507-2.1089-0.65834-2.88996-0.3459-0.51328-1.0377-0.9596-1.93036-0.9596-2.58869 0-2.58869 3.04617-2.58869 3.84956 0 0.80338 0 3.78261 2.58869 3.78261 2.5887 0 2.5887-2.97923 2.5887-3.78261zm-2.5887 3.47019c-0.51328 0-1.19392-0.30127-1.41709-1.21625-0.15621-0.65833-0.15621-1.57329-0.15621-2.399 0-0.81454 0-1.66257 0.16737-2.27626 0.23432-0.8815 0.94844-1.11581 1.40593-1.11581 0.60254 0 1.18276 0.36821 1.38362 1.01538 0.17852 0.60255 0.18968 1.40593 0.18968 2.37669 0 0.82571 0 1.65141-0.14506 2.35438-0.22316 1.01539-0.98192 1.26087-1.42824 1.26087z"/><path d="m91.5619 291.073c-0.57385 0.1594-0.86077 0.70136-0.86077 1.09987 0 0.35069 0.27099 0.73325 0.79701 0.73325 0.55791 0 1.1477-0.46226 1.1477-1.24333 0-0.84484-0.84483-1.40275-1.81719-1.40275-0.90859 0-1.49837 0.68544-1.7056 0.97236-0.39851-0.66949-1.29116-0.97236-2.19975-0.97236-2.00846 0-3.0924 1.96066-3.0924 2.48668 0 0.22316 0.2391 0.22316 0.38256 0.22316 0.19128 0 0.30287 0 0.36663-0.20721 0.46227-1.45056 1.60996-1.92877 2.26351-1.92877 0.60573 0 0.89265 0.28692 0.89265 0.79701 0 0.30287-0.22316 1.17957-0.36663 1.75343l-0.54196 2.1838c-0.2391 0.97236-0.81296 1.45056-1.35492 1.45056-0.0797 0-0.44633 0-0.76513-0.2391 0.57384-0.1594 0.86077-0.70137 0.86077-1.09988 0-0.35068-0.27098-0.73325-0.79701-0.73325-0.55791 0-1.1477 0.46227-1.1477 1.24335 0 0.84482 0.84483 1.40273 1.81719 1.40273 0.90859 0 1.49838-0.68543 1.7056-0.97235 0.39851 0.66948 1.29116 0.97235 2.19975 0.97235 2.00847 0 3.0924-1.96064 3.0924-2.48667 0-0.22317-0.23909-0.22317-0.38256-0.22317-0.19128 0-0.30287 0-0.36663 0.20723-0.46226 1.45056-1.60996 1.92876-2.2635 1.92876-0.60574 0-0.89266-0.28692-0.89266-0.797 0-0.33475 0.20723-1.17959 0.35068-1.76938 0.11159-0.41444 0.47822-1.91282 0.55791-2.16786 0.23911-0.95642 0.79701-1.45056 1.35492-1.45056 0.0797 0 0.44633 0 0.76513 0.2391z"/><path d="m97.2599 292.76c0-0.30127-0.0223-0.31243-0.33475-0.31243-0.71412 0.70296-1.72952 0.71412-2.187 0.71412v0.40169c0.2678 0 1.00423 0 1.61794-0.31243v5.69066c0 0.36822 0 0.51328-1.11582 0.51328h-0.42401v0.40169c0.20084-0.0107 1.57329-0.0447 1.98615-0.0447 0.3459 0 1.75184 0.0335 1.99732 0.0447v-0.40169h-0.42402c-1.11581 0-1.11581-0.14505-1.11581-0.51328z"/></g><circle cx="54.2263" cy="298.926" r="2.592"/><circle cx="80.1543" cy="306.049" r="2.592"/></g></g></svg>
