<?xml version="1.0" encoding="UTF-8"?>
<svg width="141.491" height="68.9385" version="1.1" viewBox="0 0 141.49058 68.938399" xmlns="http://www.w3.org/2000/svg">
 <ellipse cx="70.7453" cy="34.4692" rx="69.7454" ry="33.4692" color="#000000" fill="#ffe8e8" stroke="#f00" stroke-width="1px"/>
 <g fill="#f00" stroke-width=".768">
  <path d="m93.6683 27.9832c0.17216-0.68862 0.21042-0.8799 1.60674-0.8799 0.49744 0 0.6504 0 0.6504-0.38256 0-0.21042-0.2104-0.21042-0.26784-0.21042-0.53552 0-1.91278 0.0574-2.44837 0.0574-0.55472 0-1.91283-0.0574-2.46755-0.0574-0.15302 0-0.36344 0-0.36344 0.38256 0 0.21042 0.17216 0.21042 0.5356 0.21042 0.0383 0 0.4017 0 0.72688 0.0382 0.3443 0.0382 0.51645 0.0574 0.51645 0.30604 0 0.0765-0.0191 0.11472-0.0765 0.36344l-1.1477 4.66732h-5.83411l1.12856-4.49514c0.17216-0.68862 0.22953-0.8799 1.60678-0.8799 0.49733 0 0.65035 0 0.65035-0.38256 0-0.21042-0.2104-0.21042-0.26779-0.21042-0.53558 0-1.91283 0.0574-2.44841 0.0574-0.55472 0-1.91284-0.0574-2.46756-0.0574-0.15302 0-0.36344 0-0.36344 0.38256 0 0.21042 0.17216 0.21042 0.5356 0.21042 0.0383 0 0.4017 0 0.72688 0.0382 0.34431 0.0382 0.51645 0.0574 0.51645 0.30604 0 0.0765-0.0191 0.13392-0.0765 0.36344l-2.56318 10.2719c-0.19128 0.746-0.22954 0.89903-1.74067 0.89903-0.34431 0-0.51647 0-0.51647 0.38256 0 0.21041 0.22954 0.21041 0.2678 0.21041 0.53559 0 1.8937-0.0574 2.42929-0.0574 0.40169 0 0.82251 0.0192 1.22421 0.0192 0.42081 0 0.84164 0.0382 1.24334 0.0382 0.15302 0 0.38256 0 0.38256-0.38256 0-0.21041-0.17216-0.21041-0.53558-0.21041-0.70776 0-1.24335 0-1.24335-0.34431 0-0.11472 0.0383-0.21041 0.0574-0.32518l1.30072-5.24115h5.83412c-0.80338 3.17529-1.24333 4.99248-1.31984 5.2794-0.1913 0.6121-0.55472 0.63124-1.74068 0.63124-0.28692 0-0.45908 0-0.45908 0.38256 0 0.21041 0.22953 0.21041 0.26779 0.21041 0.5356 0 1.89371-0.0574 2.42929-0.0574 0.4017 0 0.82252 0.0192 1.22421 0.0192 0.42083 0 0.84165 0.0382 1.24335 0.0382 0.15302 0 0.38256 0 0.38256-0.38256 0-0.21041-0.17216-0.21041-0.53559-0.21041-0.70776 0-1.24334 0-1.24334-0.34431 0-0.11472 0.0382-0.21041 0.0574-0.32518z"/>
  <path d="m114.693 28.2122c0.21042-0.0957 0.36344-0.19128 0.36344-0.42082 0-0.21042-0.15302-0.38258-0.38257-0.38258-0.0956 0-0.26779 0.0765-0.34431 0.11472l-10.5779 4.99248c-0.32519 0.15296-0.38256 0.28693-0.38256 0.43996 0 0.17216 0.11477 0.30604 0.38256 0.42083l10.5779 4.97334c0.24868 0.13392 0.28693 0.13392 0.34431 0.13392 0.21041 0 0.38257-0.17214 0.38257-0.38256 0-0.17214-0.0765-0.28693-0.40169-0.43995l-10.0041-4.70555zm-0.30604 13.9828c0.32516 0 0.66948 0 0.66948-0.38257 0-0.38258-0.40169-0.38256-0.68862-0.38256h-10.3101c-0.28693 0-0.68862 0-0.68862 0.38256s0.3443 0.38257 0.66949 0.38257z"/>
  <path d="m130.715 33.4532c0-1.53027-0.0957-3.06053-0.76514-4.47602-0.8799-1.83632-2.44842-2.14237-3.25181-2.14237-1.14769 0-2.54406 0.49733-3.32831 2.27626-0.61211 1.31986-0.70775 2.81186-0.70775 4.34213 0 1.43461 0.0765 3.15616 0.86077 4.6099 0.82252 1.54939 2.21888 1.93195 3.15617 1.93195 1.03293 0 2.48667-0.40168 3.32832-2.21888 0.6121-1.31984 0.70775-2.81185 0.70775-4.32297zm-4.03607 6.12104c-0.746 0-1.87457-0.47821-2.21888-2.31453-0.21041-1.1477-0.21041-2.90749-0.21041-4.03606 0-1.22421 0-2.48668 0.15302-3.5196 0.36344-2.27626 1.79806-2.44842 2.27627-2.44842 0.63123 0 1.8937 0.3443 2.25714 2.23802 0.19128 1.07118 0.19128 2.52492 0.19128 3.73 0 1.43462 0 2.73534-0.21042 3.95955-0.28693 1.81718-1.37723 2.39104-2.238 2.39104z"/>
 </g>
</svg>
