<?xml version="1.0" encoding="UTF-8"?>
<svg width="199.455" height="73.004" version="1.1" viewBox="0 0 199.45525 73.004005" xmlns="http://www.w3.org/2000/svg"><g transform="translate(42.5848 -267.953)"><g shape-rendering="auto"><rect x="-42.0848" y="283.942" width="28.2843" height="56.5158" color="#000000" color-rendering="auto" fill="#cacaca" image-rendering="auto" solid-color="#000000" style="isolation:auto;mix-blend-mode:normal"/><path d="m-13.8005 283.942v56.5158" color="#000000" color-rendering="auto" fill="none" image-rendering="auto" solid-color="#000000" stroke="#555" stroke-width="3.56749" style="isolation:auto;mix-blend-mode:normal"/><path d="m-13.8005 312.199h10.7349c0.35616 2.42772 0.71232 4.84855 1.06846 6.80398 0.35616 1.95542 0.71231 3.43253 1.06848 4.15411 0.35613 0.72157 0.71228 0.67966 1.06844-0.11359 0.35615-0.7933 0.71232-2.33789 1.06846-4.3371 0.35616-1.99922 0.71232-4.44492 1.06846-6.87145 0.35615-2.42653 0.71231-4.82085 1.06846-6.72965 0.35613-1.90879 0.71229-3.31925 1.06848-3.96692 0.35612-0.64767 0.7123-0.52494 1.06843 0.34076 0.35614 0.86571 0.71229 2.47381 1.06846 4.51573 0.35615 2.04191 0.71231 4.50912 1.06846 6.932 0.35617 2.42289 0.71232 4.78832 1.06847 6.64854 0.35616 1.86025 0.7123 3.20265 1.06846 3.77576 0.35614 0.57309 0.71229 0.36968 1.06845-0.56755 0.35615-0.93722 0.71232-2.60726 1.06847-4.68982 0.35616-2.08255 0.71227-4.56877 1.06843-6.98558 0.35618-2.4168 0.71231-4.75094 1.06848-6.56075 0.35615-1.8098 0.71228-3.0828 1.06844-3.58077s0.71231-0.21404 1.06847 0.79377c0.35615 1.00781 0.7123 2.73809 1.06845 4.85918 0.35616 2.12108 0.71232 4.62383 1.06848 7.03213 0.35616 2.40828 0.71231 4.70878 1.06845 6.46634 0.35615 1.75755 0.71231 2.95986 1.06847 3.38218 0.35615 0.42234 0.7123 0.0583 1.06847-1.01919 0.35613-1.07737 0.71227-2.86615 1.06843-5.02364s0.7123-4.67424 1.06846-7.07159 0.7123-4.6619 1.06846-6.36542c0.35615-1.70355 0.7123-2.83395 1.06846-3.1802 0.35614-0.34627 0.7123 0.0978 1.06847 1.24358 0.35615 1.14586 0.71228 2.99132 1.06844 5.18304 0.35616 2.19173 0.7123 4.71995 1.06848 7.10393 0.35615 2.384 0.7123 4.61033 1.06845 6.25812 0.35616 1.6478 0.71229 2.70516 1.06847 2.97501 0.35616 0.26985 0.71228-0.25353 1.06844-1.46673 0.35615-1.21319 0.7123-3.11351 1.06847-5.33724 0.35615-2.22375 0.71228-4.76088 1.06844-7.12913 0.35616-2.36823 0.71231-4.55408 1.06847-6.14447 0.35616-1.5904 0.71231-2.57367 1.06846-2.76682 0.35615-0.19317 0.71229 0.40909 1.06844 1.68838 0.35617 1.27931 0.71231 3.23254 1.06847 5.48606 0.35616 2.25354 0.7123 4.79702 1.06846 7.14713 0.35616 2.3501 0.71229 4.49327 1.06845 6.02467 0.35616 1.53141 0.71231 2.43957 1.06846 2.55586 0.35617 0.11628 0.71232-0.56425 1.06845-1.90836 0.35616-1.34413 0.71231-3.34831 1.06848-5.62936 0.35615-2.28105 0.71229-4.82833 1.06845-7.15793s0.71231-4.42793 1.06845-5.8988c0.356176-1.47086 0.712306-2.30302 1.06845-2.34231 0.35617-0.0393 0.71233 0.71882 1.06847 2.12641 0.35616 1.40759 0.71231 3.46071 1.06845 5.76698 0.35616 2.30626 0.71231 4.85479 1.06847 7.16154s0.71232 4.35813 1.06847 5.76697c0.35615 1.40885 0.7123 2.16413 1.06844 2.12642 0.35618-0.0378 0.71231-0.87268 1.06846-2.34232 0.35617-1.46964 0.71232-3.56963 1.06847-5.8988 0.35616-2.32915 0.7123-4.87636 1.06846-7.15793 0.35616-2.28158 0.71231-4.28395 1.06845-5.62935 0.35616-1.3454 0.7123-2.02311 1.06846-1.90837 0.35616 0.11475 0.71231 1.02566 1.06845 2.55586 0.35616 1.53021 0.7123 3.67496 1.06846 6.02467s0.71232 4.89303 1.06847 7.14713c0.35616 2.25409 0.71232 4.20544 1.06845 5.48605 0.35616 1.28061 0.71232 1.88003 1.06847 1.68841 0.35616-0.19164 0.7123-1.17759 1.06845-2.76683 0.35617-1.58925 0.71232-3.77659 1.06845-6.14449 0.35615-2.36791 0.7123-4.90475 1.06846-7.12911 0.35616-2.22437 0.71232-4.12272 1.06847-5.33725 0.35616-1.21452 0.71229-1.73505 1.06844-1.46673 0.35617 0.26832 0.71232 1.32834 1.06847 2.97501 0.35617 1.64667 0.71231 3.87442 1.06846 6.25811 0.35616 2.38371 0.71232 4.91155 1.06846 7.10393 0.35616 2.19238 0.71232 4.03583 1.06846 5.18305 0.35616 1.14723 0.71232 1.58833 1.06846 1.24359 0.35613-0.34473 0.71229-1.47777 1.06845-3.18019 0.35616-1.70243 0.71231-3.96834 1.06846-6.36543 0.35617-2.39712 0.71231-4.91339 1.06846-7.07159 0.35616-2.15821 0.71232-3.94489 1.06846-5.02366 0.35614-1.07875 0.71231-1.44 1.06846-1.01918 0.35615 0.42081 0.71232 1.62569 1.06847 3.38219 0.35613 1.75649 0.71229 4.05825 1.06844 6.46635 0.35616 2.40809 0.71232 4.91028 1.06848 7.03212 0.35614 2.12184 0.71229 3.84996 1.06843 4.85916 0.35616 1.00921 0.71232 1.29024 1.06847 0.79378 0.35616-0.49645 0.71231-1.772 1.06846-3.58077 0.35615-1.80879 0.71231-4.14409 1.06847-6.56075 0.35613-2.41666 0.71229-4.90224 1.06844-6.98558 0.35616-2.08334 0.71232-3.75117 1.06847-4.68981 0.35616-0.93865 0.71232-1.13917 1.06846-0.56755 0.35613 0.5716 0.7123 1.91649 1.06846 3.77574 0.35613 1.85925 0.71229 4.22577 1.06844 6.64855 0.35616 2.42278 0.71232 4.88926 1.06846 6.93201 0.35615 2.04274 0.71234 3.64858 1.06846 4.51573 0.35616 0.86713 0.71232 0.98693 1.06847 0.34076 0.35616-0.64618 0.71232-2.05909 1.06846-3.96693 0.35614-1.90785 0.7123-4.30316 1.06846-6.72965 0.35615-2.42648 0.7123-4.87135 1.06845-6.87145 0.35616-2.0001 0.71229-3.54234 1.06845-4.33709 0.35615-0.79477 0.712309-0.83374 1.06846-0.11359 0.35615 0.7201 0.71232 2.19958 1.06847 4.1541 0.35614 1.95451 0.71232 4.37624 1.06845 6.80397h24.1996" color="#000000" color-rendering="auto" fill="none" image-rendering="auto" solid-color="#000000" stroke="#555" stroke-width="1.44161" style="isolation:auto;mix-blend-mode:normal" title="sin(-10*x)"/><path d="m49.6634 276.575v6.58996h67.022v7.20981h-67.022v6.58997l-14.8615-10.1949z" color="#000000" color-rendering="auto" fill="#f00" image-rendering="auto" solid-color="#000000" style="isolation:auto;mix-blend-mode:normal"/><circle cx="136.229" cy="312.199" r="19.543" color="#000000" color-rendering="auto" fill="#cacaca" image-rendering="auto" solid-color="#000000" stroke="#555" stroke-width="1.19668" style="isolation:auto;mix-blend-mode:normal"/></g><g fill="#f00"><path d="m59.1717 272.023q-0.06805 2.57358-1.26204 4.578-1.1878 2.00442-3.5696 3.04375l-0.476359-0.71145q2.09103-0.94034 3.17985-2.7901 1.09501-1.84976 1.09501-3.96554v-0.15466h-3.71189v-0.79187h3.71189v-2.50553h1.03314v2.50553h5.32656v2.21476q0 1.75696-0.154662 2.93858-0.148475 1.17543-0.4578 1.98586-0.160848 0.43306-0.538224 0.71764-0.371189 0.29076-0.810429 0.38356-0.290765 0.0619-1.81264 0.0619h-0.711446l-0.129916-0.89704h1.83739q1.13213 0 1.44145-1.25585 0.31551-1.25586 0.31551-4.05215v-1.30535z" color="#000000" style="text-decoration-line:none;text-indent:0;text-transform:none"/><path d="m69.7877 279.131-0.847548 0.54441q-0.804243-1.32391-1.924-2.63544l0.723819-0.50729q1.35484 1.6023 2.04773 2.59832z" color="#000000" style="text-decoration-line:none;text-indent:0;text-transform:none"/><path d="m81.8328 272.747q0 1.94874-0.606275 3.87274-0.600089 1.91781-1.75696 3.2479l-0.66814-0.49492q0.996024-1.18161 1.52806-2.95714 0.538224-1.77552 0.538224-3.87892v-0.79806h-1.57755v-0.74856h1.57755v-2.43129h0.965091v2.43129h2.90765v1.70128l-0.0062 1.82501q-0.0062 0.95272-0.07424 1.97349-0.06186 1.02077-0.222713 1.70129-0.154662 0.68051-0.358816 0.95271-0.197968 0.27221-0.507292 0.42068-0.309324 0.14848-0.6867 0.14848h-1.34865l-0.111357-0.86611h0.977465q0.346443 0 0.556783-0.0804 0.210341-0.0866 0.340257-0.27839 0.129916-0.19178 0.216527-0.55679 0.0928-0.365 0.154662-0.9589 0.06805-0.5939 0.08661-1.18162 0.01856-0.5939 0.01856-2.72824v-1.32391h-1.94256zm7.60319 5.9947h-2.40654v0.9156h-0.965092v-10.1273h4.33672v10.0407h-0.965091zm-2.40654-0.80424h2.40654v-7.63412h-2.40654z" color="#000000" style="text-decoration-line:none;text-indent:0;text-transform:none"/><path d="m103.584 276.972-0.47018 0.73619q-2.07865-0.83518-3.58816-2.40036v2.94477h-0.921786v-2.8829q-1.52188 1.53425-3.39638 2.289l-0.346443-0.63721q1.08264-0.47636 2.09722-1.28679 1.02077-0.81043 1.37959-1.2806h-2.75298v-3.10562h2.99426v-1.03314h-3.50155v-0.76094h3.50155v-0.89085h0.958905v0.89085h3.57578v0.76094h-3.57578v1.03314h3.02519v3.10562h-2.79011q0.631018 0.72382 1.71366 1.43526 1.08882 0.71145 2.09722 1.08264zm-1.95493-3.16748v-1.78171h-2.09103v1.78171zm-3.04994 0v-1.78171h-2.06629v1.78171zm-4.08308-2.98189-0.866108 0.51348q-0.556784-0.98984-1.48476-2.12196l0.785683-0.48874q0.971278 1.20018 1.56518 2.09722zm9.2921 7.90633-0.17941 0.84136-3.45206 0.0124q-2.6045 0-3.21078-0.0557-0.606275-0.0557-1.24348-0.19797-0.637208-0.1361-1.11357-0.4578-0.470173-0.32789-0.6867-0.71145-1.02696 1.05171-2.02917 1.54044l-0.334071-0.82899q0.340257-0.14848 0.952719-0.5506 0.618648-0.40831 0.866108-0.64958v-3.77375h-1.63942v-0.76713h2.6107v3.97172q0 0.58153 0.408308 0.95272 0.408307 0.36501 0.958905 0.49492 0.550597 0.12373 1.03314 0.19178 0.482546 0.0681 2.80248 0.0681 2.99426 0 4.2563-0.0804z" color="#000000" style="text-decoration-line:none;text-indent:0;text-transform:none"/><path d="m106.245 270.278v2.95714q0 2.36942-0.42068 3.94079-0.41449 1.57137-1.11356 2.53646l-0.62484-0.47636q1.23111-2.07247 1.23111-5.4441v-4.28724h4.83164v-1.0517h1.0084v1.0517h4.88114v0.77331zm2.32612 4.03359v-1.84976h-1.81264v-0.72382h1.81264v-0.9156h0.92797v0.9156h3.17986v-0.9156h0.97127v0.9156h2.00443v0.72382h-2.00443v1.84976zm0.92797-1.84976v1.17543h3.17986v-1.17543zm1.81883 6.14318q-1.9673 0.90323-4.89351 1.22492l-0.20415-0.76712q0.83517-0.0742 1.54662-0.20415 0.71763-0.12992 1.1878-0.26602 0.47636-0.13611 1.41052-0.4578-1.52187-0.89086-2.30137-2.22095h-1.02077v-0.73619h7.57226l0.23508 0.26602q-0.79805 1.58374-2.61688 2.67874 1.6456 0.60628 3.77994 0.81662l-0.37737 0.81043q-2.32612-0.27839-4.31817-1.1445zm-6e-3 -0.88467q1.44764-0.78568 2.14053-1.80645h-4.3491q0.7795 1.08263 2.20857 1.80645z" color="#000000" style="text-decoration-line:none;text-indent:0;text-transform:none"/></g></g></svg>
