<?xml version="1.0" encoding="UTF-8"?>
<svg width="181.295" height="117.289" version="1.1" viewBox="0 0 181.29529 117.28809" xmlns="http://www.w3.org/2000/svg" xmlns:xlink="http://www.w3.org/1999/xlink">
 <defs>
  <marker id="marker8282" overflow="visible" orient="auto">
   <path transform="matrix(-.4 0 0 -.4 -4 0)" d="m0 0 5-5-17.5 5 17.5 5z" fill="#00f" fill-rule="evenodd" stroke="#00f" stroke-width="1pt"/>
  </marker>
  <marker id="marker8044" overflow="visible" orient="auto">
   <path transform="matrix(-.4 0 0 -.4 -4 0)" d="m0 0 5-5-17.5 5 17.5 5z" fill="#f00" fill-rule="evenodd" stroke="#f00" stroke-width="1pt"/>
  </marker>
  <symbol id="symbol4940">
   <path d="m140.32 51.6673h2.23802c0.36345 0 0.70775 0 0.70775-0.55472 0-0.34431-0.32517-0.34431-0.65035-0.34431h-2.14239l0.63123-3.46223c0.0574-0.34431 0.0574-0.38256 0.24869-0.55472 0.24866-0.22954 0.45907-0.22954 0.55472-0.22954 0.26779 0 0.43994 0.0383 0.66949 0.13389-0.45909 0.22955-0.80339 0.72688-0.80339 1.24335 0 0.57385 0.45907 0.8799 0.93728 0.8799 0.78427 0 1.37725-0.68862 1.37725-1.41549 0-0.97556-0.99467-1.53028-2.18063-1.53028-0.89906 0-1.97024 0.36344-2.63973 1.43463-0.43996 0.70775-0.55472 1.45375-0.91816 3.50049h-1.87457c-0.36344 0-0.68862 0-0.68862 0.55472 0 0.34431 0.32518 0.34431 0.63123 0.34431h1.75981l-1.45374 8.14867c-0.0382 0.17215-0.24868 1.37723-0.34432 1.64503-0.0382 0.0956-0.34431 0.97555-0.95642 0.97555-0.36343 0-0.51647-0.0574-0.65035-0.11477 0.4782-0.22955 0.84164-0.72688 0.84164-1.26246 0-0.57386-0.45908-0.87992-0.93729-0.87992-0.78426 0-1.37724 0.68862-1.37724 1.4155 0 1.03293 1.09032 1.53026 2.08498 1.53026 1.43463 0 2.4293-1.41549 2.58233-1.66416 0.82251-1.26247 1.26246-3.69177 1.31985-4.01695z" stroke-linejoin="round" stroke-miterlimit="1e5" stroke-width="1.60001"/>
   <path d="m150.3 45.3641c-0.24101 0.10712-0.37492 0.32136-0.37492 0.58915 0 0.36153 0.2544 0.62933 0.62933 0.62933 0.36152 0 0.64271-0.22763 0.64271-0.65611 0-1.19168-1.86119-1.19168-2.2361-1.19168-2.00847 0-3.25373 1.53983-3.25373 3.07965 0 1.68712 1.43272 3.0261 3.18678 3.0261 1.99508 0 2.46372-1.58 2.46372-1.74067s-0.17406-0.16069-0.22762-0.16069c-0.17408 0-0.18745 0.0402-0.25441 0.22764-0.29458 0.83016-1.00423 1.24525-1.82101 1.24525-0.92389 0-2.12898-0.68288-2.12898-2.61102 0-1.7005 0.83016-2.6378 2.07542-2.6378 0.17407 0 0.81677 0 1.29881 0.20085z" stroke-linejoin="round" stroke-miterlimit="1e5" stroke-width="1.60001"/>
  </symbol>
 </defs>
 <g shape-rendering="auto">
  <circle cx="133.425" cy="37.9999" r="36.5" color="#000000" color-rendering="auto" fill="#c6c6ff" image-rendering="auto" solid-color="#000000" stroke="#00f" stroke-width="2" style="font-variant-east_asian:normal;isolation:auto;mix-blend-mode:normal"/>
  <circle cx="51.5" cy="65.7888" r="50" color="#000000" color-rendering="auto" fill="#ffdcdc" image-rendering="auto" solid-color="#000000" stroke="#f00" stroke-linejoin="round" stroke-miterlimit="1e5" stroke-width="2" style="isolation:auto;mix-blend-mode:normal"/>
  <path d="m98.8634 49.7231-53.3345 18.499" color="#000000" color-rendering="auto" fill="none" image-rendering="auto" marker-end="url(#marker8044)" solid-color="#000000" stroke="#f00" stroke-width="2" style="isolation:auto;mix-blend-mode:normal"/>
  <path d="m98.8634 49.7231 53.3345-18.499" color="#000000" color-rendering="auto" fill="none" image-rendering="auto" marker-end="url(#marker8282)" solid-color="#000000" stroke="#00f" stroke-width="2" style="isolation:auto;mix-blend-mode:normal"/>
  <g>
   <path d="m73.4238 51.1774 4.38219 13.2174" color="#000000" color-rendering="auto" fill="#ffdcdc" image-rendering="auto" solid-color="#000000" stroke="#f00" style="isolation:auto;mix-blend-mode:normal"/>
   <path d="m115.687 36.5183 4.38218 13.2174" color="#000000" color-rendering="auto" fill="none" image-rendering="auto" solid-color="#000000" stroke="#00f" style="isolation:auto;mix-blend-mode:normal"/>
   <path d="m77.6566 49.7092 4.38219 13.2174" color="#000000" color-rendering="auto" fill="#ffdcdc" image-rendering="auto" solid-color="#000000" stroke="#f00" style="isolation:auto;mix-blend-mode:normal"/>
   <path d="m119.92 35.0502 4.38218 13.2174" color="#000000" color-rendering="auto" fill="none" image-rendering="auto" solid-color="#000000" stroke="#00f" style="isolation:auto;mix-blend-mode:normal"/>
  </g>
 </g>
 <g stroke-linejoin="round" stroke-miterlimit="1e5" stroke-width="1.60001">
  <path d="m70.0507 83.9729c0-0.36152-0.02672-0.37492-0.401697-0.37492-0.856945 0.84356-2.07543 0.85695-2.6244 0.85695v0.48203c0.321361 0 1.20507 0 1.94152-0.37491v6.82881c0 0.44187 0 0.61594-1.33898 0.61594h-0.508817v0.48203c0.241009-0.0134 1.88796-0.0536 2.38338-0.0536 0.415089 0 2.10221 0.0402 2.39679 0.0536v-0.48203h-0.508817c-1.33898 0-1.33898-0.17407-1.33898-0.61594z" fill="#f00"/>
  <path d="m151.853 61.5531h-0.45526c-0.0402 0.29457-0.17407 1.08458-0.34815 1.21847-0.10704 0.0803-1.13813 0.0803-1.32558 0.0803h-2.46372c1.40592-1.24525 1.87456-1.62018 2.67796-2.24949 0.99085-0.79 1.91475-1.62017 1.91475-2.8922 0-1.62017-1.41933-2.61102-3.13322-2.61102-1.66034 0-2.78509 1.16492-2.78509 2.39678 0 0.68288 0.57576 0.74983 0.70966 0.74983 0.32136 0 0.70967-0.22762 0.70967-0.70966 0-0.24102-0.0938-0.70966-0.79-0.70966 0.41509-0.95068 1.32558-1.24525 1.95491-1.24525 1.33898 0 2.03525 1.0444 2.03525 2.12898 0 1.16491-0.83017 2.08881-1.25864 2.57084l-3.22695 3.18678c-0.13392 0.12052-0.13392 0.1473-0.13392 0.52221h5.5166z" fill="#00f"/>
  <use width="100%" height="100%" fill="#0000ff" style="font-variant-east_asian:normal" xlink:href="#symbol4940"/>
  <use transform="translate(-79.526 28.4989)" width="100%" height="100%" fill="#ff0000" style="font-variant-east_asian:normal" xlink:href="#symbol4940"/>
 </g>
</svg>
