<?xml version="1.0" encoding="UTF-8"?>
<svg width="220.357" height="122.25" version="1.1" viewBox="0 0 220.35692 122.24995" xmlns="http://www.w3.org/2000/svg"><defs><marker id="marker6225" overflow="visible" orient="auto"><path transform="matrix(-.8 0 0 -.8 -10 0)" d="m0 0 5-5-17.5 5 17.5 5z" fill="#00f" fill-rule="evenodd" stroke="#00f" stroke-width="1pt"/></marker><marker id="marker5617" overflow="visible" orient="auto"><path transform="matrix(-.4 0 0 -.4 -4 0)" d="m0 0 5-5-17.5 5 17.5 5z" fill="#f00" fill-rule="evenodd" stroke="#f00" stroke-width="1pt"/></marker><marker id="marker2105" overflow="visible" orient="auto"><path transform="matrix(-.4 0 0 -.4 -4 0)" d="m0 0 5-5-17.5 5 17.5 5z" fill="#008000" fill-rule="evenodd" stroke="#008000" stroke-width="1pt"/></marker><marker id="marker5409" overflow="visible" orient="auto"><path transform="matrix(-.4 0 0 -.4 -4 0)" d="m0 0 5-5-17.5 5 17.5 5z" fill-rule="evenodd" stroke="#000" stroke-width="1pt"/></marker></defs><g transform="translate(98.7499 -243.33)"><g><path d="m-0.16904 353.185 12.9113-4.45446 3.96434 11.5076" fill="none" stroke="#040404" stroke-linejoin="round" stroke-width=".6"/><path d="m79.1625 265.006c0.114768-0.45909 0.172144-0.65037 0.535584-0.70774 0.17216-0.0192 0.784256-0.0192 1.16683-0.0192 1.3581 0 3.48134 0 3.48134 1.8937 0 0.65036-0.306048 1.9702-1.05206 2.71622-0.497328 0.49733-1.51112 1.10944-3.23267 1.10944h-2.14237zm2.75446 5.24114c1.93195-0.42082 4.20822-1.7598 4.20822-3.69175 0-1.64503-1.72155-2.86925-4.22734-2.86925h-5.45157c-0.38256 0-0.554721 0-0.554721 0.38256 0 0.21042 0.172161 0.21042 0.5356 0.21042 0.03826 0 0.401696 0 0.726881 0.0383 0.344304 0.0383 0.516447 0.0575 0.516447 0.30605 0 0.0764-0.01912 0.13392-0.07651 0.36343l-2.56318 10.2719c-0.19128 0.74601-0.229536 0.89903-1.74067 0.89903-0.344308 0-0.516463 0-0.516463 0.38256 0 0.21041 0.22954 0.21041 0.267796 0.21041 0.535592 0 1.87457-0.0575 2.41017-0.0575 0.535599 0 1.8937 0.0575 2.42928 0.0575 0.153024 0 0.382575 0 0.382575-0.38256 0-0.21041-0.17216-0.21041-0.535599-0.21041-0.707745 0-1.24334 0-1.24334-0.3443 0-0.11472 0.03826-0.21042 0.0574-0.32519l1.26246-5.06899h2.27627c1.74067 0 2.08498 1.07118 2.08498 1.74067 0 0.28693-0.153024 0.8799-0.267792 1.31985-0.133904 0.53559-0.306065 1.24334-0.306065 1.62591 0 2.06583 2.29539 2.06583 2.54406 2.06583 1.6259 0 2.29539-1.93195 2.29539-2.19974 0-0.22954-0.210399-0.22954-0.229536-0.22954-0.172159 0-0.210415 0.13392-0.248671 0.2678-0.478208 1.41549-1.30072 1.74067-1.74067 1.74067-0.631232 0-0.76512-0.42082-0.76512-1.16683 0-0.59297 0.114768-1.56851 0.19128-2.18061 0.03826-0.2678 0.07651-0.63123 0.07651-0.89904 0-1.47288-1.2816-2.06586-1.79806-2.25714z" fill="#000808" stroke-width="1.33333"/><path d="m96.8598 269.08c-0.688624 0.19128-1.03293 0.84163-1.03293 1.31984 0 0.42083 0.325184 0.8799 0.956416 0.8799 0.669488 0 1.37723-0.55472 1.37723-1.49199 0-1.01381-1.01379-1.6833-2.18062-1.6833-1.0903 0-1.79805 0.82253-2.04672 1.16683-0.478208-0.80339-1.54939-1.16683-2.6397-1.16683-2.41016 0-3.71089 2.35278-3.71089 2.98401 0 0.2678 0.286922 0.2678 0.459078 0.2678 0.229539 0 0.363443 0 0.439955-0.24866 0.55472-1.74067 1.93195-2.31453 2.71621-2.31453 0.72688 0 1.07118 0.3443 1.07118 0.95642 0 0.36343-0.267792 1.41549-0.439952 2.10411l-0.650352 2.62056c-0.286928 1.16683-0.975552 1.74067-1.6259 1.74067-0.09565 0-0.5356 0-0.91816-0.28691 0.688608-0.19128 1.03293-0.84164 1.03293-1.31986 0-0.42081-0.325184-0.8799-0.956416-0.8799-0.669491 0-1.37724 0.55472-1.37724 1.49201 0 1.0138 1.0138 1.68329 2.18063 1.68329 1.0903 0 1.79805-0.82252 2.04672-1.16682 0.478208 0.80338 1.54939 1.16682 2.6397 1.16682 2.41016 0 3.71088-2.35277 3.71088-2.984 0-0.26781-0.286912-0.26781-0.459072-0.26781-0.229536 0-0.36344 0-0.439952 0.24867-0.55472 1.74067-1.93195 2.31451-2.71621 2.31451-0.72688 0-1.07118-0.34431-1.07118-0.9564 0-0.40169 0.248672-1.4155 0.420816-2.12325 0.133904-0.49732 0.573856-2.29539 0.669488-2.60144 0.286928-1.14769 0.956416-1.74067 1.6259-1.74067 0.09565 0 0.5356 0 0.91816 0.28693z" fill="#000808" stroke-width="1.33333"/></g><g fill="#00f" stroke-width="1.33333"><path d="m72.8078 354.376c0-3.1179 1.56853-3.92129 2.58233-3.92129 0.172152 0 1.37723 0.0192 2.04673 0.70776-0.784272 0.0575-0.89904 0.63123-0.89904 0.87989 0 0.49734 0.344316 0.8799 0.8799 0.8799 0.497328 0 0.879912-0.32519 0.879912-0.89903 0-1.30071-1.45375-2.04673-2.92663-2.04673-2.39104 0-4.15084 2.06586-4.15084 4.43776 0 2.44843 1.89371 4.34212 4.11258 4.34212 2.56319 0 3.17528-2.29538 3.17528-2.48668s-0.19128-0.19128-0.248652-0.19128c-0.172164 0-0.21042 0.0764-0.248676 0.19128-0.554724 1.77895-1.79807 2.00848-2.5058 2.00848-1.0138 0-2.6971-0.82252-2.6971-3.90218z"/><path d="m88.0497 354.452c0-2.44841-1.91282-4.47601-4.22735-4.47601-2.39102 0-4.24648 2.08499-4.24648 4.47601 0 2.46756 1.98934 4.30387 4.22736 4.30387 2.31451 0 4.24646-1.87456 4.24646-4.30387zm-4.22735 3.82567c-0.822516 0-1.66416-0.4017-2.18063-1.2816-0.4782-0.84165-0.4782-2.00846-0.4782-2.69709 0-0.74599 0-1.77893 0.459084-2.62057 0.516468-0.87989 1.41548-1.28159 2.18063-1.28159 0.841632 0 1.66416 0.42081 2.16149 1.24333s0.49734 1.93196 0.49734 2.65883c0 0.68863 0 1.72155-0.420828 2.5632-0.420816 0.86077-1.26247 1.41549-2.21888 1.41549z"/><path d="m92.5469 354.835c0.420828 0.0764 1.98935 0.38256 1.98935 1.75978 0 0.97556-0.669492 1.74068-2.16149 1.74068-1.60679 0-2.2954-1.09031-2.65884-2.71622-0.05736-0.24866-0.07656-0.32517-0.267792-0.32517-0.248664 0-0.248664 0.13392-0.248664 0.4782v2.52493c0 0.32519 0 0.45908 0.210408 0.45908 0.09564 0 0.11472-0.0192 0.478212-0.38257 0.03828-0.0383 0.03828-0.0764 0.38256-0.43995 0.841644 0.8034 1.70242 0.82252 2.10412 0.82252 2.19974 0 3.07964-1.2816 3.07964-2.65882 0-1.01381-0.57384-1.58765-0.803388-1.81719-0.631236-0.61211-1.37724-0.76513-2.18063-0.91815-1.07118-0.21042-2.35277-0.45908-2.35277-1.56852 0-0.66951 0.497328-1.45376 2.14237-1.45376 2.1041 0 2.19974 1.72155 2.238 2.31453 0.01908 0.17214 0.19128 0.17214 0.229536 0.17214 0.248664 0 0.248664-0.0956 0.248664-0.45907v-1.93196c0-0.32517 0-0.45908-0.210408-0.45908-0.09564 0-0.133896 0-0.38256 0.22955-0.05736 0.0764-0.248676 0.24866-0.325188 0.30605-0.726864-0.5356-1.51114-0.5356-1.79804-0.5356-2.33365 0-3.06053 1.2816-3.06053 2.35278 0 0.66949 0.306048 1.20509 0.822516 1.6259 0.612108 0.49733 1.14769 0.61212 2.52492 0.87992z"/><path d="m108.072 348.982c0-1.26248-0.3443-3.9213-2.29539-3.9213-2.65883 0-5.60458 5.39417-5.60458 9.77456 0 1.79804 0.55472 3.92128 2.2954 3.92128 2.69708 0 5.60457-5.48982 5.60457-9.77454zm-5.87238 2.62056c0.32518-1.2242 0.70776-2.75446 1.47288-4.11258 0.51646-0.93727 1.22421-2.00846 2.08499-2.00846 0.93728 0 1.05205 1.22422 1.05205 2.31454 0 0.93727-0.15302 1.91281-0.61209 3.8065zm3.82566 0.61211c-0.21042 0.87991-0.61211 2.50582-1.33897 3.88305-0.66949 1.30071-1.39637 2.238-2.21888 2.238-0.63124 0-1.03293-0.55473-1.03293-2.33366 0-0.80337 0.11472-1.91281 0.6121-3.78739z"/></g><path d="m119.806 324.273c-0.68862 0.19128-1.03292 0.84163-1.03292 1.31984 0 0.42083 0.32518 0.8799 0.95641 0.8799 0.66949 0 1.37723-0.55472 1.37723-1.492 0-1.0138-1.01379-1.68329-2.18062-1.68329-1.0903 0-1.79805 0.82253-2.04672 1.16683-0.47821-0.80339-1.54939-1.16683-2.6397-1.16683-2.41016 0-3.71089 2.35278-3.71089 2.98401 0 0.2678 0.28693 0.2678 0.45908 0.2678 0.22954 0 0.36345 0 0.43996-0.24866 0.55472-1.74067 1.93195-2.31453 2.71621-2.31453 0.72688 0 1.07118 0.34431 1.07118 0.95642 0 0.36344-0.26779 1.41549-0.43995 2.10411l-0.65035 2.62056c-0.28693 1.16683-0.97556 1.74067-1.62591 1.74067-0.0956 0-0.5356 0-0.91816-0.28691 0.68861-0.19128 1.03293-0.84165 1.03293-1.31986 0-0.42081-0.32518-0.8799-0.95642-0.8799-0.66949 0-1.37723 0.55472-1.37723 1.49202 0 1.01379 1.01379 1.68328 2.18063 1.68328 1.0903 0 1.79804-0.82252 2.04672-1.16682 0.4782 0.80338 1.54939 1.16682 2.63969 1.16682 2.41016 0 3.71088-2.35277 3.71088-2.984 0-0.26781-0.28691-0.26781-0.45907-0.26781-0.22954 0-0.36344 0-0.43995 0.24867-0.55472 1.74067-1.93195 2.31451-2.71621 2.31451-0.72688 0-1.07118-0.3443-1.07118-0.9564 0-0.40169 0.24867-1.4155 0.42081-2.12325 0.13391-0.49732 0.57386-2.29539 0.66949-2.60144 0.28693-1.14769 0.95642-1.74067 1.6259-1.74067 0.0957 0 0.5356 0 0.91816 0.28693z" fill="#ff0808" stroke-width=".75"/><path d="m55.2997 330.275c0-1.26248-0.3443-3.92129-2.29539-3.92129-2.65883 0-5.60458 5.39416-5.60458 9.77454 0 1.79805 0.55472 3.9213 2.2954 3.9213 2.69709 0 5.60457-5.48983 5.60457-9.77455zm-5.87238 2.62056c0.32518-1.2242 0.70776-2.75446 1.47288-4.11257 0.51646-0.93728 1.22421-2.00847 2.08499-2.00847 0.93728 0 1.05205 1.22421 1.05205 2.31453 0 0.93728-0.15302 1.91282-0.6121 3.80651zm3.82566 0.61212c-0.21041 0.8799-0.61211 2.5058-1.33897 3.88304-0.66949 1.30072-1.39637 2.238-2.21888 2.238-0.63123 0-1.03293-0.55472-1.03293-2.33365 0-0.80338 0.11477-1.91282 0.6121-3.78739z" fill="#00f" stroke-width="1.33333"/><g fill="none" stroke-linejoin="round"><path transform="scale(1,-1)" d="m44.0154-350.556a41.7499 41.7499 0 0 1 -11.4922 17.2382" marker-end="url(#marker6225)" stroke="#00f" stroke-width=".5"/><path transform="matrix(.945509 -.325595 .325702 .945472 0 0)" d="m-114.402 240.368a105.667 105.652 0 0 1 74.776 30.9113 105.667 105.652 0 0 1 30.9826 74.7375" stroke="#bbb" stroke-width=".5"/><path d="m-12.518 314.467 86.4877-29.7828 17.1856 49.8875" stroke="#0404ff" stroke-dasharray="2.40000004, 2.40000004" stroke-width=".4"/><g stroke-width="1.5"><path d="m4.61769 364.371 97.8062-33.6804" marker-end="url(#marker5617)" stroke="#f00"/><path d="m4.61769 364.371-33.6866-97.7881" marker-end="url(#marker2105)" stroke="#008000"/><path d="m4.61769 364.371 67.8593-78.0622" marker-end="url(#marker5409)" stroke="#000"/></g></g><g fill="#00f"><ellipse transform="matrix(.945509 -.325595 .325702 .945472 0 0)" cx="-114.619" cy="293.091" rx="2.98089" ry="2.98045"/><ellipse transform="matrix(.945509 -.325595 .325702 .945472 0 0)" cx="-22.7858" cy="346.02" rx="2.98089" ry="2.98045"/><g><path d="m-53.8137 323.507c0.420828 0.0764 1.98934 0.38256 1.98934 1.7598 0 0.97555-0.669492 1.74067-2.16149 1.74067-1.60678 0-2.2954-1.09031-2.65883-2.71621-0.05736-0.24868-0.07656-0.32519-0.267792-0.32519-0.248676 0-0.248676 0.13392-0.248676 0.47821v2.52494c0 0.32517 0 0.45908 0.210408 0.45908 0.09564 0 0.11484-0.0192 0.478212-0.38257 0.03828-0.0383 0.03828-0.0764 0.382572-0.43996 0.841644 0.80339 1.70242 0.82253 2.1041 0.82253 2.19974 0 3.07964-1.2816 3.07964-2.65883 0-1.01381-0.57384-1.58765-0.803388-1.81718-0.631236-0.61212-1.37723-0.76515-2.18062-0.91817-1.07119-0.21041-2.35278-0.45907-2.35278-1.56851 0-0.6695 0.49734-1.45376 2.14237-1.45376 2.10412 0 2.19974 1.72155 2.238 2.31453 0.0192 0.17214 0.19128 0.17214 0.229536 0.17214 0.248676 0 0.248676-0.0956 0.248676-0.45907v-1.93195c0-0.32519 0-0.45908-0.21042-0.45908-0.09564 0-0.133884 0-0.38256 0.22954-0.05736 0.0764-0.248676 0.24866-0.325188 0.30605-0.726864-0.53559-1.51112-0.53559-1.79804-0.53559-2.33365 0-3.06053 1.2816-3.06053 2.35278 0 0.66949 0.30606 1.20508 0.822516 1.6259 0.612108 0.49733 1.14769 0.61211 2.52493 0.8799z"/><path d="m-46.8898 318.763-2.67796 0.21039v0.59298c1.24334 0 1.41548 0.11472 1.41548 1.05207v5.1455c0 0.86077-0.210396 0.86077-1.492 0.86077v0.59297c0.612108-0.0192 1.64504-0.0575 2.10412-0.0575 0.66948 0 1.33897 0.0383 1.98934 0.0575v-0.59297c-1.26246 0-1.33898-0.0956-1.33898-0.84165zm0.07656-3.32832c0-0.61211-0.478212-1.01381-1.01381-1.01381-0.59298 0-1.0138 0.51647-1.0138 1.01381 0 0.51646 0.420816 1.01379 1.0138 1.01379 0.535596 0 1.01381-0.4017 1.01381-1.01379z"/><path d="m-42.877 320.637v5.12639c0 0.86077-0.21042 0.86077-1.49201 0.86077v0.59297c0.66948-0.0192 1.64503-0.0575 2.16149-0.0575 0.497328 0 1.49201 0.0383 2.14237 0.0575v-0.59297c-1.2816 0-1.492 0-1.492-0.86077v-3.5196c0-1.98935 1.35809-3.06053 2.5823-3.06053 1.20509 0 1.4155 1.03293 1.4155 2.12323v4.4569c0 0.86077-0.210408 0.86077-1.49201 0.86077v0.59297c0.66948-0.0192 1.64503-0.0575 2.1615-0.0575 0.497328 0 1.492 0.0383 2.14235 0.0575v-0.59297c-0.994656 0-1.47286 0-1.492-0.57386v-3.65349c0-1.64504 0-2.23801-0.59298-2.92662-0.267792-0.32518-0.899016-0.70774-2.00846-0.70774-1.39637 0-2.29538 0.82251-2.83099 2.00846v-2.00846l-2.69707 0.21039v0.59298c1.33898 0 1.49201 0.13392 1.49201 1.07118z"/><path d="m-22.4154 317.653c0-1.26248-0.344304-3.9213-2.2954-3.9213-2.65883 0-5.60458 5.39416-5.60458 9.77454 0 1.79806 0.554724 3.9213 2.2954 3.9213 2.69708 0 5.60458-5.48982 5.60458-9.77454zm-5.87238 2.62056c0.325176-1.22422 0.70776-2.75447 1.47288-4.11258 0.516456-0.93728 1.2242-2.00846 2.08499-2.00846 0.937284 0 1.05205 1.2242 1.05205 2.31452 0 0.93728-0.153024 1.91282-0.612096 3.80652zm3.82566 0.61211c-0.21042 0.8799-0.612108 2.5058-1.33897 3.88304-0.669492 1.30072-1.39637 2.238-2.21888 2.238-0.631236 0-1.03292-0.55472-1.03292-2.33365 0-0.80338 0.11472-1.91281 0.612096-3.78739z"/></g></g><g fill="#008000" stroke-width=".75"><path d="m-98.2499 267.207h3.67265v-0.76512h-2.9075v-21.4045h2.9075v-0.76513h-3.67265z"/><path d="m-84.0463 248.45c0-1.47288-0.174084-2.53066-0.789996-3.46795-0.415092-0.61593-1.24525-1.15152-2.31643-1.15152-3.10644 0-3.10644 3.65541-3.10644 4.61947 0 0.96407 0 4.53914 3.10644 4.53914 3.10643 0 3.10643-3.57507 3.10643-4.53914zm-3.10643 4.16423c-0.615936 0-1.4327-0.36152-1.70052-1.45949-0.187452-0.79-0.187452-1.88796-0.187452-2.8788 0-0.97746 0-1.99509 0.200844-2.73152 0.281184-1.05779 1.13813-1.33897 1.68713-1.33897 0.723036 0 1.41931 0.44185 1.66033 1.21845 0.214224 0.72306 0.227616 1.68713 0.227616 2.85204 0 0.99084 0 1.98168-0.17406 2.82525-0.267792 1.21847-1.1783 1.51304-1.71389 1.51304z"/><path d="m-68.0574 249.695c0.214248 0 0.535608 0 0.535608-0.32135 0-0.33475-0.307968-0.33475-0.535608-0.33475h-7.9803c-0.214236 0-0.535596 0-0.535596 0.32136 0 0.33474 0.307968 0.33474 0.535596 0.33474z"/><path d="m-61.6234 244.205c0-0.36153-0.02676-0.37492-0.4017-0.37492-0.856944 0.84355-2.07542 0.85695-2.6244 0.85695v0.48202c0.32136 0 1.20508 0 1.94152-0.3749v6.82878c0 0.44188 0 0.61594-1.33897 0.61594h-0.508812v0.48202c0.241008-0.0128 1.88795-0.0536 2.38337-0.0536 0.415092 0 2.10221 0.0402 2.39678 0.0536v-0.48202h-0.508812c-1.33897 0-1.33897-0.17406-1.33897-0.61594z"/><path d="m-86.4698 257.298c0-0.36151-0.02676-0.3749-0.401688-0.3749-0.856944 0.84355-2.07542 0.85694-2.6244 0.85694v0.48203c0.32136 0 1.20506 0 1.94152-0.37492v6.82879c0 0.44187 0 0.61594-1.33897 0.61594h-0.508824v0.48203c0.241008-0.0128 1.88796-0.0536 2.38338-0.0536 0.415092 0 2.10221 0.0402 2.39678 0.0536v-0.48203h-0.508812c-1.33898 0-1.33898-0.17407-1.33898-0.61594z"/><path d="m-59.155 261.542c0-1.47288-0.174084-2.53068-0.790008-3.46795-0.41508-0.61594-1.24524-1.15152-2.31643-1.15152-3.10643 0-3.10643 3.6554-3.10643 4.61947 0 0.96405 0 4.53913 3.10643 4.53913 3.10644 0 3.10644-3.57508 3.10644-4.53913zm-3.10644 4.16421c-0.615936 0-1.4327-0.36151-1.70051-1.45948-0.187452-0.79-0.187452-1.88795-0.187452-2.8788 0-0.97745 0-1.99509 0.200844-2.73152 0.281184-1.0578 1.13813-1.33898 1.68712-1.33898 0.723048 0 1.41931 0.44186 1.66034 1.21847 0.214224 0.72306 0.227616 1.68711 0.227616 2.85203 0 0.99085 0 1.98168-0.174072 2.82525-0.267792 1.21846-1.1783 1.51303-1.71389 1.51303z"/><path d="m-51.1579 267.207v-22.9347h-3.67264v0.76513h2.90749v21.4045h-2.90749v0.76512z"/><path d="m-33.8402 252.861c-0.688632 0.19128-1.03292 0.84163-1.03292 1.31983 0 0.42084 0.325176 0.87991 0.956412 0.87991 0.66948 0 1.37723-0.55472 1.37723-1.49201 0-1.01381-1.0138-1.68329-2.18063-1.68329-1.0903 0-1.79804 0.82253-2.04671 1.16684-0.478212-0.8034-1.54939-1.16684-2.6397-1.16684-2.41016 0-3.71089 2.35278-3.71089 2.98402 0 0.26779 0.28692 0.26779 0.459084 0.26779 0.229536 0 0.363444 0 0.439956-0.24866 0.554712-1.74067 1.93195-2.31453 2.7162-2.31453 0.726888 0 1.07119 0.34431 1.07119 0.95642 0 0.36344-0.267792 1.41549-0.439956 2.10411l-0.650352 2.62056c-0.286932 1.16683-0.975552 1.74067-1.6259 1.74067-0.09564 0-0.535596 0-0.918156-0.2869 0.688608-0.19128 1.03292-0.84166 1.03292-1.31986 0-0.42082-0.325188-0.87991-0.956412-0.87991-0.669492 0-1.37724 0.55472-1.37724 1.49202 0 1.01379 1.0138 1.68327 2.18063 1.68327 1.09031 0 1.79804-0.8225 2.04672-1.1668 0.478212 0.80337 1.54939 1.1668 2.6397 1.1668 2.41015 0 3.71087-2.35276 3.71087-2.98399 0-0.26781-0.286908-0.26781-0.459072-0.26781-0.229536 0-0.363432 0-0.439944 0.24867-0.554724 1.74067-1.93195 2.31451-2.71621 2.31451-0.726876 0-1.07118-0.3443-1.07118-0.9564 0-0.4017 0.248676-1.4155 0.420816-2.12324 0.133908-0.49733 0.573852-2.2954 0.669492-2.60144 0.28692-1.1477 0.956412-1.74068 1.62589-1.74068 0.09564 0 0.535608 0 0.918168 0.28694z"/></g></g></svg>
