<?xml version="1.0" encoding="UTF-8"?>
<svg width="176.601" height="112.813" version="1.1" viewBox="0 0 176.60118 112.81308" xmlns="http://www.w3.org/2000/svg"><defs><marker id="DotM-0-9" overflow="visible" orient="auto"><path transform="matrix(.4 0 0 .4 2.96 .4)" d="m-2.5-1c0 2.76-2.24 5-5 5s-5-2.24-5-5 2.24-5 5-5 5 2.24 5 5z" fill-rule="evenodd" stroke="#000" stroke-width="1pt"/></marker></defs><g transform="translate(79.7292 -233.763)"><g stroke-width="1.5"><path d="m-56.4312 312.592c-0.648 0.18-0.972 0.792-0.972 1.242 0 0.396 0.306 0.828 0.9 0.828 0.63 0 1.296-0.522 1.296-1.404 0-0.954-0.954-1.584-2.052-1.584-1.026 0-1.692 0.774-1.926 1.098-0.45-0.756-1.458-1.098-2.484-1.098-2.268 0-3.492 2.214-3.492 2.808 0 0.252 0.27 0.252 0.432 0.252 0.216 0 0.342 0 0.414-0.234 0.522-1.638 1.818-2.178 2.556-2.178 0.684 0 1.008 0.324 1.008 0.9 0 0.342-0.252 1.332-0.414 1.98l-0.612 2.466c-0.27 1.098-0.918 1.638-1.53 1.638-0.09 0-0.504 0-0.864-0.27 0.648-0.18 0.972-0.792 0.972-1.242 0-0.396-0.306-0.828-0.9-0.828-0.63 0-1.296 0.522-1.296 1.404 0 0.954 0.954 1.584 2.052 1.584 1.026 0 1.692-0.774 1.926-1.098 0.45 0.756 1.458 1.098 2.484 1.098 2.268 0 3.492-2.214 3.492-2.808 0-0.252-0.27-0.252-0.432-0.252-0.216 0-0.342 0-0.414 0.234-0.522 1.638-1.818 2.178-2.556 2.178-0.684 0-1.008-0.324-1.008-0.9 0-0.378 0.234-1.332 0.396-1.998 0.126-0.468 0.54-2.16 0.63-2.448 0.27-1.08 0.9-1.638 1.53-1.638 0.09 0 0.504 0 0.864 0.27z"/><path d="m-50.4477 314.865c0-0.324-0.024-0.336-0.348-0.336-0.492 0.48-1.128 0.768-2.268 0.768v0.396c0.324 0 0.972 0 1.668-0.324v6.156c0 0.444-0.036 0.588-1.176 0.588h-0.42v0.396c0.492-0.036 1.524-0.036 2.064-0.036s1.584 0 2.076 0.036v-0.396h-0.42c-1.14 0-1.176-0.144-1.176-0.588z"/><path d="m51.1276 336.158c-0.648 0.18-0.972 0.792-0.972 1.242 0 0.396 0.306 0.828 0.9 0.828 0.63 0 1.296-0.522 1.296-1.404 0-0.954-0.954-1.584-2.052-1.584-1.026 0-1.692 0.774-1.926 1.098-0.45-0.756-1.458-1.098-2.484-1.098-2.268 0-3.492 2.214-3.492 2.808 0 0.252 0.27 0.252 0.432 0.252 0.216 0 0.342 0 0.414-0.234 0.522-1.638 1.818-2.178 2.556-2.178 0.684 0 1.008 0.324 1.008 0.9 0 0.342-0.252 1.332-0.414 1.98l-0.612 2.466c-0.27 1.098-0.918 1.638-1.53 1.638-0.09 0-0.504 0-0.864-0.27 0.648-0.18 0.972-0.792 0.972-1.242 0-0.396-0.306-0.828-0.9-0.828-0.63 0-1.296 0.522-1.296 1.404 0 0.954 0.954 1.584 2.052 1.584 1.026 0 1.692-0.774 1.926-1.098 0.45 0.756 1.458 1.098 2.484 1.098 2.268 0 3.492-2.214 3.492-2.808 0-0.252-0.27-0.252-0.432-0.252-0.216 0-0.342 0-0.414 0.234-0.522 1.638-1.818 2.178-2.556 2.178-0.684 0-1.008-0.324-1.008-0.9 0-0.378 0.234-1.332 0.396-1.998 0.126-0.468 0.54-2.16 0.63-2.448 0.27-1.08 0.9-1.638 1.53-1.638 0.09 0 0.504 0 0.864 0.27z"/><path d="m56.7256 343.628c0.192-0.18 0.696-0.576 0.888-0.744 0.744-0.684 1.452-1.344 1.452-2.436 0-1.428-1.2-2.352-2.7-2.352-1.44 0-2.388 1.092-2.388 2.16 0 0.588 0.468 0.672 0.636 0.672 0.252 0 0.624-0.18 0.624-0.636 0-0.624-0.6-0.624-0.744-0.624 0.348-0.876 1.152-1.176 1.74-1.176 1.116 0 1.692 0.948 1.692 1.956 0 1.248-0.876 2.16-2.292 3.612l-1.512 1.56c-0.144 0.132-0.144 0.156-0.144 0.456h4.74l0.348-2.148h-0.372c-0.036 0.24-0.132 0.84-0.276 1.068-0.072 0.096-0.984 0.096-1.176 0.096h-2.136z"/></g><path d="m90.4118 326.038 5.96024-12.9391-4.71684 1.91373v-25.7274h-2.59985v25.6988l-4.71684-1.88517z" color="#000000" fill="#f00" style="text-decoration-line:none;text-indent:0;text-transform:none"/><path d="m95.0679 273.917c0.072-0.288 0.072-0.396 0.072-0.468 0-0.576-0.468-0.792-0.846-0.792-0.36 0-0.684 0.162-0.918 0.432-0.252-0.27-0.846-0.738-1.908-0.738-3.186 0-5.058 2.844-5.058 5.202 0 2.124 1.602 2.934 3.15 2.934 0.936 0 1.656-0.36 1.98-0.558-0.108 0.45-0.216 0.9-0.342 1.35-0.126 0.522-0.252 1.062-0.882 1.566-0.756 0.63-1.35 0.63-1.836 0.63-0.432 0-0.756 0-1.224-0.072 0.522-0.378 0.558-0.972 0.558-1.044 0-0.396-0.306-0.828-0.9-0.828s-1.278 0.504-1.278 1.332c0 1.188 1.584 1.26 2.862 1.26 1.62 0 4.104-0.378 4.644-2.538zm-3.15 4.536c-0.072 0.252-0.072 0.324-0.288 0.522-0.954 0.864-1.8 0.864-1.962 0.864-0.702 0-1.224-0.396-1.224-1.35 0-0.864 0.594-3.024 0.864-3.69 0.63-1.548 1.656-1.8 2.196-1.8 1.116 0 1.512 0.882 1.512 1.008 0 0.036 0 0.072-0.054 0.27z" fill="#f00" stroke-width="1.5"/><g shape-rendering="auto"><path d="m65.24 250.374-33.3715 70.2093-71.5574-17.2458-30.9085-48.7209" color="#000000" color-rendering="auto" fill="none" image-rendering="auto" marker-end="url(#DotM-0-9)" marker-start="url(#DotM-0-9)" solid-color="#000000" stroke="#000" stroke-width="1px" style="isolation:auto;mix-blend-mode:normal"/><circle transform="rotate(139.851)" cx="225.922" cy="-206.272" r="9.46436" color="#000000" color-rendering="auto" fill="#b8b8b8" image-rendering="auto" solid-color="#000000" stroke="#373737" stroke-width="2" style="isolation:auto;mix-blend-mode:normal"/><circle transform="rotate(139.851)" cx="182.345" cy="-265.593" r="12.9303" color="#000000" color-rendering="auto" fill="#b8b8b8" image-rendering="auto" solid-color="#000000" stroke="#373737" stroke-width="2" style="isolation:auto;mix-blend-mode:normal"/></g><g stroke-width="1.5"><path d="m-70.7692 240.936c0.108-0.45 0.288-1.17 0.288-1.332 0-0.576-0.468-0.792-0.846-0.792-0.342 0-0.702 0.18-0.918 0.45-0.27-0.288-0.864-0.756-1.908-0.756-3.132 0-5.076 2.844-5.076 5.31 0 2.214 1.656 2.97 3.15 2.97 1.278 0 2.214-0.702 2.502-0.972 0.684 0.972 1.872 0.972 2.07 0.972 0.666 0 1.188-0.378 1.566-1.026 0.45-0.72 0.684-1.692 0.684-1.782 0-0.252-0.27-0.252-0.432-0.252-0.198 0-0.27 0-0.36 0.09-0.036 0.036-0.036 0.072-0.144 0.522-0.36 1.44-0.774 1.8-1.224 1.8-0.198 0-0.414-0.072-0.414-0.666 0-0.306 0.072-0.594 0.252-1.314 0.126-0.504 0.306-1.224 0.396-1.62zm-2.988 4.032c-0.522 0.612-1.368 1.17-2.232 1.17-1.116 0-1.206-0.972-1.206-1.368 0-0.936 0.612-3.15 0.9-3.852 0.558-1.314 1.44-1.764 2.178-1.764 1.062 0 1.494 0.846 1.494 1.044l-0.036 0.252z"/><path d="m-64.8802 241.698c0-0.324-0.024-0.336-0.348-0.336-0.492 0.48-1.128 0.768-2.268 0.768v0.396c0.324 0 0.972 0 1.668-0.324v6.156c0 0.444-0.036 0.588-1.176 0.588h-0.42v0.396c0.492-0.036 1.524-0.036 2.064-0.036s1.584 0 2.076 0.036v-0.396h-0.42c-1.14 0-1.176-0.144-1.176-0.588z"/><path d="m69.3692 236.693c0.108-0.45 0.288-1.17 0.288-1.332 0-0.576-0.468-0.792-0.846-0.792-0.342 0-0.702 0.18-0.918 0.45-0.27-0.288-0.864-0.756-1.908-0.756-3.132 0-5.076 2.844-5.076 5.31 0 2.214 1.656 2.97 3.15 2.97 1.278 0 2.214-0.702 2.502-0.972 0.684 0.972 1.872 0.972 2.07 0.972 0.666 0 1.188-0.378 1.566-1.026 0.45-0.72 0.684-1.692 0.684-1.782 0-0.252-0.27-0.252-0.432-0.252-0.198 0-0.27 0-0.36 0.09-0.036 0.036-0.036 0.072-0.144 0.522-0.36 1.44-0.774 1.8-1.224 1.8-0.198 0-0.414-0.072-0.414-0.666 0-0.306 0.072-0.594 0.252-1.314 0.126-0.504 0.306-1.224 0.396-1.62zm-2.988 4.032c-0.522 0.612-1.368 1.17-2.232 1.17-1.116 0-1.206-0.972-1.206-1.368 0-0.936 0.612-3.15 0.9-3.852 0.558-1.314 1.44-1.764 2.178-1.764 1.062 0 1.494 0.846 1.494 1.044l-0.036 0.252z"/><path d="m74.8742 242.651c0.192-0.18 0.696-0.576 0.888-0.744 0.744-0.684 1.452-1.344 1.452-2.436 0-1.428-1.2-2.352-2.7-2.352-1.44 0-2.388 1.092-2.388 2.16 0 0.588 0.468 0.672 0.636 0.672 0.252 0 0.624-0.18 0.624-0.636 0-0.624-0.6-0.624-0.744-0.624 0.348-0.876 1.152-1.176 1.74-1.176 1.116 0 1.692 0.948 1.692 1.956 0 1.24801-0.876 2.16-2.292 3.612l-1.512 1.56c-0.144 0.132-0.144 0.156-0.144 0.456h4.74l0.348-2.148h-0.372c-0.036 0.24-0.132 0.84001-0.276 1.068-0.072 0.096-0.984 0.096-1.176 0.096h-2.136z"/><path d="m-48.2924 264.886c0.018-0.072 0.054-0.18 0.054-0.27 0-0.18-0.18-0.18-0.216-0.18-0.018 0-0.666 0.054-0.99 0.09-0.306 0.018-0.576 0.054-0.9 0.072-0.432 0.036-0.558 0.054-0.558 0.378 0 0.18 0.18 0.18 0.36 0.18 0.918 0 0.918 0.162 0.918 0.342 0 0.072 0 0.108-0.09 0.432l-2.232 8.928c-0.054 0.198-0.09 0.342-0.09 0.63 0 0.9 0.666 1.62 1.584 1.62 0.594 0 0.99-0.396 1.278-0.954 0.306-0.594 0.558-1.728 0.558-1.8 0-0.09-0.072-0.162-0.18-0.162-0.162 0-0.18 0.09-0.252 0.36-0.324 1.242-0.648 2.196-1.368 2.196-0.54 0-0.54-0.576-0.54-0.828 0-0.072 0-0.45 0.126-0.954z"/><path d="m-43.8464 271.984c0-0.324-0.024-0.336-0.348-0.336-0.492 0.48-1.128 0.768-2.268 0.768v0.396c0.324 0 0.972 0 1.668-0.324v6.156c0 0.444-0.036 0.588-1.176 0.588h-0.42v0.396c0.492-0.036 1.524-0.036 2.064-0.036s1.584 0 2.076 0.036v-0.396h-0.42c-1.14 0-1.176-0.144-1.176-0.588z"/><path d="m-3.8047 293.927c0.018-0.072 0.054-0.18 0.054-0.27 0-0.18-0.18-0.18-0.216-0.18-0.018 0-0.666 0.054-0.99 0.09-0.306 0.018-0.576 0.054-0.9 0.072-0.432 0.036-0.558 0.054-0.558 0.378 0 0.18 0.18 0.18 0.36 0.18 0.918 0 0.918 0.162 0.918 0.342 0 0.072 0 0.108-0.09 0.432l-2.232 8.928c-0.054 0.198-0.09 0.342-0.09 0.63 0 0.9 0.666 1.62 1.584 1.62 0.594 0 0.99-0.396 1.278-0.954 0.306-0.594 0.558-1.728 0.558-1.8 0-0.09-0.072-0.162-0.18-0.162-0.162 0-0.18 0.09-0.252 0.36-0.324 1.242-0.648 2.196-1.368 2.196-0.54 0-0.54-0.576-0.54-0.828 0-0.072 0-0.45 0.126-0.954z"/><path d="m0.2573 306.221c0.192-0.18 0.696-0.576 0.888-0.744 0.744-0.684 1.452-1.344 1.452-2.436 0-1.428-1.2-2.352-2.7-2.352-1.44 0-2.388 1.092-2.388 2.16 0 0.588 0.468 0.672 0.636 0.672 0.252 0 0.624-0.18 0.624-0.636 0-0.624-0.6-0.624-0.744-0.624 0.348-0.876 1.152-1.176 1.74-1.176 1.116 0 1.692 0.948 1.692 1.956 0 1.248-0.876 2.16-2.292 3.612l-1.512 1.56c-0.144 0.132-0.144 0.156-0.144 0.456h4.74l0.348-2.148h-0.372c-0.036 0.24-0.132 0.84-0.276 1.068-0.072 0.096-0.984 0.096-1.176 0.096h-2.136z"/><path d="m38.8901 269.093c0.018-0.072 0.054-0.18 0.054-0.27 0-0.18-0.18-0.18-0.216-0.18-0.018 0-0.666 0.054-0.99 0.09-0.306 0.018-0.576 0.054-0.9 0.072-0.432 0.036-0.558 0.054-0.558 0.378 0 0.18 0.18 0.18 0.36 0.18 0.918 0 0.918 0.162 0.918 0.342 0 0.072 0 0.108-0.09 0.432l-2.232 8.928c-0.054 0.198-0.09 0.342-0.09 0.63 0 0.9 0.666 1.62 1.584 1.62 0.594 0 0.99-0.396 1.278-0.954 0.306-0.594 0.558-1.728 0.558-1.8 0-0.09-0.072-0.162-0.18-0.162-0.162 0-0.18 0.09-0.252 0.36-0.324 1.242-0.648 2.196-1.368 2.196-0.54 0-0.54-0.576-0.54-0.828 0-0.072 0-0.45 0.126-0.954z"/><path d="m42.6041 279.827c0.948 0 1.548 0.69601 1.548 1.95601 0 1.5-0.852 1.944-1.488 1.944-0.66 0-1.56-0.24-1.98-0.87601 0.432 0 0.732-0.276 0.732-0.67199 0-0.384-0.276-0.66001-0.66-0.66001-0.324 0-0.66 0.20401-0.66 0.68401 0 1.14 1.224 1.88399 2.592 1.88399 1.596 0 2.712-1.104 2.712-2.30399 0-0.996-0.792-1.90801-2.016-2.17201 0.948-0.33599 1.656-1.152 1.656-2.11199 0-0.96001-1.08-1.644-2.328-1.644-1.284 0-2.256 0.69599-2.256 1.608 0 0.444 0.3 0.63599 0.612 0.63599 0.372 0 0.612-0.26399 0.612-0.61199 0-0.44401-0.384-0.61201-0.648-0.62401 0.504-0.65999 1.428-0.69599 1.644-0.69599 0.312 0 1.224 0.096 1.224 1.332 0 0.83999-0.348 1.344-0.516 1.536-0.36 0.372-0.636 0.396-1.368 0.44399-0.228 0.012-0.324 0.024-0.324 0.18 0 0.168 0.108 0.168 0.312 0.168z"/></g></g></svg>
