<?xml version="1.0" encoding="UTF-8"?>
<svg width="176.731" height="93.2173" version="1.1" viewBox="0 0 176.73103 93.217339" xmlns="http://www.w3.org/2000/svg"><g transform="translate(62.6512 -206.418)"><g><path d="m-18.4395 214.077c48.819-26.4557 42.0986 35.9767 109.472 13.2782l21.9099 65.2211c-90.4363 27.546-113.633-50.5843-174.655 0z" color="#000000" color-rendering="auto" fill="#ebeaff" image-rendering="auto" shape-rendering="auto" solid-color="#000000" stroke="#00f" style="isolation:auto;mix-blend-mode:normal"/><path d="m11.1884 242.279 16.6766 9.22008-0.99205 15.0444-19.8586-9.96119z" color="#000000" color-rendering="auto" fill="none" image-rendering="auto" shape-rendering="auto" solid-color="#000000" stroke="#f00" style="isolation:auto;mix-blend-mode:normal"/><g stroke-linejoin="round" stroke-miterlimit="1e5" stroke-width="1.5"><path d="m-5.75848 217.283c0-0.0538-0.0359-0.17932-0.19725-0.17932-0.0897 0-0.1076 0.018-0.3228 0.26898l-0.86076 1.02217c-0.46626-0.84283-1.39877-1.29115-2.56439-1.29115-2.27746 0-4.42939 2.06226-4.42939 4.23213 0 1.45254 0.95043 2.27745 1.86501 2.54644l1.9188 0.50211c0.66351 0.1614 1.64982 0.4304 1.64982 1.90088 0 1.61395-1.4705 3.29962-3.2279 3.29962-1.14771 0-3.13824-0.39451-3.13824-2.61817 0-0.4304 0.0897-0.86078 0.1076-0.96837 0.0179-0.0717 0.0359-0.0897 0.0359-0.12555 0-0.17933-0.12552-0.19725-0.21519-0.19725-0.0897 0-0.12553 0.018-0.17932 0.0717-0.0717 0.0717-1.07597 4.1604-1.07597 4.21419 0 0.10755 0.0897 0.17932 0.19726 0.17932 0.0897 0 0.1076-0.018 0.32279-0.26898l0.8787-1.02217c0.77111 1.0401 1.99055 1.29115 3.03065 1.29115 2.43885 0 4.55491-2.38504 4.55491-4.6087 0-1.23737-0.60972-1.84709-0.87871-2.09814-0.41244-0.41246-0.68144-0.48419-2.27745-0.89664-0.39453-0.10755-1.0401-0.28692-1.2015-0.32279-0.48419-0.1614-1.09389-0.68145-1.09389-1.63188 0-1.45255 1.43461-2.97684 3.13822-2.97684 1.48842 0 2.58233 0.77111 2.58233 2.77958 0 0.57385-0.0718 0.89664-0.0718 1.00423 0 0.018 0 0.17933 0.21521 0.17933 0.17932 0 0.19725-0.0539 0.26898-0.35865z" fill="#00f"/><path d="m-1.24159 258.736c-0.64559 0.17932-0.96837 0.78903-0.96837 1.23735 0 0.39453 0.30486 0.82491 0.89664 0.82491 0.62764 0 1.29115-0.52005 1.29115-1.39875 0-0.95045-0.95043-1.57809-2.04433-1.57809-1.02216 0-1.68567 0.77112-1.9188 1.0939-0.44832-0.75318-1.45256-1.0939-2.47472-1.0939-2.25952 0-3.47895 2.20573-3.47895 2.79751 0 0.25106 0.26899 0.25106 0.43038 0.25106 0.21519 0 0.34073 0 0.41246-0.23312 0.52005-1.63188 1.8112-2.16987 2.54644-2.16987 0.68145 0 1.00424 0.32279 1.00424 0.89664 0 0.34073-0.25106 1.32702-0.41246 1.97261l-0.6097 2.45677c-0.269 1.09391-0.91458 1.63188-1.52429 1.63188-0.0897 0-0.50212 0-0.86077-0.26898 0.64557-0.17932 0.96837-0.78904 0.96837-1.23736 0-0.39452-0.30486-0.82491-0.89664-0.82491-0.62765 0-1.29116 0.52005-1.29116 1.39876 0 0.95043 0.95043 1.57808 2.04434 1.57808 1.02216 0 1.68567-0.77111 1.9188-1.09389 0.44832 0.75316 1.45255 1.09389 2.47471 1.09389 2.25953 0 3.47895-2.20572 3.47895-2.7975 0-0.25107-0.26898-0.25107-0.43038-0.25107-0.21519 0-0.34072 0-0.41245 0.23313-0.52005 1.63188-1.81121 2.16985-2.54645 2.16985-0.68145 0-1.00423-0.32278-1.00423-0.89662 0-0.37659 0.23313-1.32704 0.39451-1.99055 0.12554-0.46624 0.53799-2.15193 0.62765-2.43885 0.26899-1.07596 0.89664-1.63188 1.52428-1.63188 0.0897 0 0.50213 0 0.86078 0.269z"/><path d="m5.03061 260.771c0-0.20084-0.15063-0.477-0.50211-0.477-0.33894 0-0.70298 0.32637-0.70298 0.6904 0 0.21341 0.1632 0.47702 0.50213 0.47702 0.36403 0 0.70296-0.35148 0.70296-0.69042zm-2.5608 6.37689c-0.0502 0.16318-0.11297 0.31383-0.11297 0.52722 0 0.58999 0.50211 1.06701 1.19253 1.06701 1.25529 0 1.80762-1.73231 1.80762-1.9206 0-0.16319-0.1632-0.16319-0.20085-0.16319-0.17574 0-0.18829 0.0753-0.23851 0.21339-0.28871 1.00424-0.84104 1.5189-1.33061 1.5189-0.25105 0-0.31381-0.16318-0.31381-0.43935 0-0.28872 0.0879-0.52722 0.20083-0.80338 0.12554-0.33893 0.26361-0.67785 0.4017-1.00424 0.11298-0.30126 0.56489-1.44358 0.61509-1.59421 0.0377-0.12555 0.0753-0.27617 0.0753-0.4017 0-0.58998-0.50211-1.067-1.19253-1.067-1.24274 0-1.82017 1.7072-1.82017 1.9206 0 0.16319 0.17574 0.16319 0.2134 0.16319 0.17574 0 0.18829-0.0627 0.22595-0.20085 0.32638-1.07955 0.87871-1.53146 1.34317-1.53146 0.20085 0 0.31381 0.10035 0.31381 0.43935 0 0.28872-0.0753 0.47702-0.38913 1.25529z"/></g></g><g fill="#f00" stroke-linejoin="round" stroke-miterlimit="1e5" stroke-width="1.5"><path d="m40.3808 245.927c-2.24159 0.53799-3.98107 2.86925-3.98107 5.0391 0 1.72155 1.1477 3.01271 2.83337 3.01271 2.09814 0 3.58656-2.81544 3.58656-5.29016 0-1.63188-0.71731-2.52852-1.32703-3.33549-0.64557-0.80698-1.70361-2.15193-1.70361-2.94097 0-0.39453 0.35866-0.82491 0.98631-0.82491 0.53797 0 0.89664 0.23313 1.27323 0.48418 0.35865 0.21519 0.7173 0.44832 0.98629 0.44832 0.44832 0 0.71732-0.43038 0.71732-0.71731 0-0.39452-0.28694-0.44832-0.93251-0.59178-0.9325-0.19725-1.18356-0.19725-1.47049-0.19725-1.39875 0-2.04434 0.7711-2.04434 1.84707 0 0.96837 0.52005 1.9726 1.07597 3.06649zm0.2152 0.39453c0.44832 0.8249 0.9863 1.79327 0.9863 3.08442 0 1.18358-0.68145 4.17834-2.3492 4.17834-0.98629 0-1.72153-0.75318-1.72153-2.11606 0-1.12977 0.66351-4.50113 3.08443-5.1467z"/><path d="m51.2772 247.056c-0.50211 0.0179-0.86077 0.41246-0.86077 0.80697 0 0.25106 0.1614 0.52005 0.55591 0.52005 0.39452 0 0.82491-0.30486 0.82491-1.00423 0-0.80697-0.7711-1.54221-2.13399-1.54221-2.36713 0-3.03064 1.82913-3.03064 2.61817 0 1.39875 1.32702 1.66775 1.84707 1.77534 0.9325 0.17933 1.86501 0.37659 1.86501 1.36289 0 0.46626-0.41246 1.9726-2.56439 1.9726-0.25105 0-1.63188 0-2.04432-0.95043 0.68144 0.0897 1.12976-0.44832 1.12976-0.95043 0-0.41245-0.28692-0.62766-0.66351-0.62766-0.46625 0-1.00424 0.37659-1.00424 1.18358 0 1.02216 1.02216 1.73947 2.56439 1.73947 2.90511 0 3.60448-2.16987 3.60448-2.97684 0-0.64558-0.34072-1.0939-0.55591-1.30909-0.48419-0.50211-1.00424-0.59178-1.79328-0.75318-0.64559-0.1434-1.36289-0.26898-1.36289-1.07597 0-0.52005 0.43038-1.61394 2.00847-1.61394 0.44831 0 1.34495 0.12555 1.61394 0.82491z"/><path d="m56.7072 248.608c0-0.20084-0.15063-0.477-0.50211-0.477-0.33894 0-0.70298 0.32637-0.70298 0.6904 0 0.21341 0.1632 0.47702 0.50213 0.47702 0.36403 0 0.70296-0.35148 0.70296-0.69042zm-2.5608 6.37689c-0.0502 0.16318-0.11297 0.31383-0.11297 0.52722 0 0.58999 0.50211 1.06701 1.19253 1.06701 1.25529 0 1.80762-1.73231 1.80762-1.9206 0-0.16319-0.1632-0.16319-0.20085-0.16319-0.17574 0-0.18829 0.0753-0.23851 0.21339-0.28871 1.00424-0.84104 1.5189-1.33061 1.5189-0.25105 0-0.31381-0.16318-0.31381-0.43935 0-0.28872 0.0879-0.52722 0.20083-0.80338 0.12554-0.33893 0.26361-0.67785 0.4017-1.00424 0.11298-0.30126 0.56489-1.44358 0.61509-1.59421 0.0377-0.12555 0.0753-0.27617 0.0753-0.4017 0-0.58998-0.50211-1.067-1.19253-1.067-1.24274 0-1.82017 1.7072-1.82017 1.9206 0 0.16319 0.17574 0.16319 0.2134 0.16319 0.17574 0 0.18829-0.0627 0.22595-0.20085 0.32638-1.07955 0.87871-1.53146 1.34317-1.53146 0.20085 0 0.31381 0.10035 0.31381 0.43935 0 0.28872-0.0753 0.47702-0.38913 1.25529z"/></g><circle cx="7.01439" cy="256.582" r="1.5"/></g></svg>
