<?xml version="1.0" encoding="UTF-8"?>
<svg width="151.43" height="97.8685" version="1.1" viewBox="0 0 151.43005 97.868492" xmlns="http://www.w3.org/2000/svg">
 <defs>
  <marker id="Arrow1Lend1-6-3" overflow="visible" orient="auto">
   <path transform="matrix(-.8 0 0 -.8 -10 0)" d="m0 0 5-5-17.5 5 17.5 5z" fill="#f00" fill-rule="evenodd" stroke="#f00" stroke-width="1pt"/>
  </marker>
 </defs>
 <g fill="none" stroke-linecap="round">
  <path d="m87.4356 50.595-14.241-2.78539m31.2596 6.11403-17.0185-3.32864m37.715 7.37664-20.6965-4.048m46.4075 9.0768s-25.7111-5.0288-25.7111-5.0288m-64.9195-7.78989 12.9635-2.37214m1.24081 5.62357 13.0002-2.83818m4.2357 6.78354 12.7828-3.4549m8.57112 8.34291 12.1253-4.29491m15.0228 10.5092 10.6883-5.48042m-76.4263-9.56726-14.2043-3.25143m31.4402 7.19679l-17.2359-3.94536m38.5899 8.83337-21.354-4.88801m48.502 11.1023s-27.1481-6.21431-27.1481-6.21431m-67.9421-9.31295 15.1479-2.77185m-1.21734 6.61825 15.4216-3.36682m1.79156 8.11961l15.4444-4.17425m6.36684 10.1966 14.9871-5.30858m13.5483 13.1876 13.5998-6.97327m-81.1596-11.6809-13.9305-3.8464m31.1438 8.59919s-17.2132-4.75279-17.2132-4.75279m39.0244 10.7751l-21.8112-6.02234m50.3466 13.9013s-28.5354-7.879-28.5354-7.879m-70.8901-11.3396l17.9352-3.28189m-4.65861 7.90474 18.5891-4.05834m-1.82046 9.89715s19.0337-5.14436 19.0337-5.14436m2.81357 12.7515 18.9976-6.72915m10.647 17.0513 17.8885-9.1723m-120.995-15.2717 12.0021 5.66319 15.5741 7.34863 21.0194 9.918 29.9256 14.1204m-43.675-36.3743-13.2766-4.62285m30.0453 10.4617-16.7687-5.83881m38.6159 13.4459-21.8472-7.60713m51.4918 17.9293-29.6446-10.3222m-73.4622-14.1218l21.5697-3.94696m-9.56761 9.61015l22.8442-4.9873m-7.27009 12.3359s24.0388-6.49712 24.0388-6.49712m-3.01935 16.4151l24.8666-8.80799m5.05903 22.9284 24.5856-12.6062" color="#000000" stroke="#000" stroke-width=".3"/>
  <path d="m5.5782 60.182v-57.7413" color="#000000" color-rendering="auto" image-rendering="auto" marker-end="url(#Arrow1Lend1-6-3)" shape-rendering="auto" solid-color="#000000" stroke="#f00" style="isolation:auto;mix-blend-mode:normal"/>
  <path d="m5.5782 60.182 83.8636-1.14987" color="#000000" marker="none" marker-end="url(#Arrow1Lend1-6-3)" stroke="#f00"/>
 </g>
 <path d="m97.7609 36.721c0-0.48419-0.41245-0.95045-0.95043-0.95045-0.60972 0-0.96837 0.50213-0.96837 0.95045 0 0.48418 0.41246 0.95043 0.95043 0.95043 0.60972 0 0.96837-0.50211 0.96837-0.95043z" stroke-width="1.5"/>
 <path d="m100.511 40.826c-0.64559 0.17932-0.96837 0.78903-0.96837 1.23735 0 0.39453 0.30486 0.82491 0.89664 0.82491 0.62764 0 1.29115-0.52005 1.29115-1.39875 0-0.95045-0.95043-1.57809-2.04433-1.57809-1.02216 0-1.68567 0.77112-1.9188 1.0939-0.44832-0.75318-1.45256-1.0939-2.47472-1.0939-2.25952 0-3.47896 2.20573-3.47896 2.79751 0 0.25106 0.26899 0.25106 0.430386 0.25106 0.215193 0 0.340728 0 0.412458-0.23312 0.52005-1.63188 1.8112-2.16987 2.54644-2.16987 0.68145 0 1.00424 0.32279 1.00424 0.89664 0 0.34073-0.25106 1.32702-0.41246 1.97261l-0.6097 2.45677c-0.269 1.09391-0.91458 1.63188-1.52429 1.63188-0.08967 0-0.502125 0-0.860775-0.26898 0.64557-0.17932 0.968374-0.78904 0.968374-1.23736 0-0.39452-0.304864-0.82491-0.896644-0.82491-0.627648 0-1.29116 0.52005-1.29116 1.39876 0 0.95043 0.950436 1.57807 2.04434 1.57807 1.02216 0 1.68567-0.7711 1.9188-1.09388 0.44832 0.75316 1.45255 1.09388 2.47471 1.09388 2.25953 0 3.47895-2.20571 3.47895-2.79749 0-0.25107-0.26898-0.25107-0.43038-0.25107-0.21519 0-0.34072 0-0.41245 0.23313-0.52005 1.63188-1.81121 2.16985-2.54645 2.16985-0.68145 0-1.00423-0.32278-1.00423-0.89662 0-0.37659 0.23313-1.32704 0.39451-1.99055 0.12554-0.46624 0.53799-2.15193 0.62765-2.43885 0.26899-1.07596 0.89664-1.63188 1.52428-1.63188 0.0897 0 0.502131 0 0.860781 0.269z" stroke-width="1.5"/>
 <g stroke-width="1.33333">
  <path d="m27.5907 3.699c0.03824-0.0574 0.09568-0.19128 0.09568-0.2678 0-0.13392-0.0192-0.15296-0.459088-0.15296h-13.1985c-0.439952 0-0.459088 0.0192-0.459088 0.15296 0 0.0765 0.05744 0.21042 0.09568 0.2678l6.44622 12.9116c0.13392 0.24867 0.19128 0.36344 0.516464 0.36344s0.38256-0.11472 0.516464-0.36344zm-11.6491 0.95641h10.5014l-5.24115 10.5206z"/>
  <path d="m43.0898 3.048c0-0.0574-0.03824-0.19128-0.210416-0.19128-0.05744 0-0.07648 0.0192-0.286928 0.22954l-1.33898 1.47288c-0.172144-0.26781-1.05205-1.70242-3.1753-1.70242-4.2656 0-8.56947 4.22735-8.56947 8.66511 0 3.04139 2.12325 5.24113 5.22203 5.24113 0.841648 0 1.70242-0.17214 2.39104-0.45907 0.9564-0.38256 1.31984-0.78425 1.66414-1.16683 0.17216 0.47821 0.669504 1.18595 0.860784 1.18595 0.09568 0 0.13392-0.0574 0.13392-0.0765 0.03824-0.0382 0.229552-0.76512 0.325184-1.16681l0.36344-1.47288c0.07648-0.32519 0.17216-0.65036 0.248672-0.97554 0.2104-0.86078 0.229536-0.89904 1.31984-0.91816 0.09568 0 0.306064-0.0192 0.306064-0.38256 0-0.13392-0.09568-0.21042-0.248672-0.21042-0.439952 0-1.56851 0.0574-2.00846 0.0574-0.592976 0-2.08499-0.0574-2.67797-0.0574-0.172144 0-0.401696 0-0.401696 0.38256 0 0.21042 0.15312 0.21042 0.573856 0.21042 0.01904 0 0.57384 0 1.01379 0.0382 0.497344 0.0574 0.592976 0.11472 0.592976 0.36344 0 0.17214-0.2104 1.03293-0.401696 1.74067-0.535584 2.10411-3.02226 2.31451-3.69174 2.31451-1.83632 0-3.84478-1.0903-3.84478-4.01692 0-0.59298 0.19128-3.74914 2.19974-6.23583 1.03293-1.30072 2.88837-2.46753 4.78208-2.46753 1.95107 0 3.07965 1.47286 3.07965 3.69174 0 0.76514-0.05744 0.78427-0.05744 0.97555s0.210416 0.19128 0.286928 0.19128c0.248672 0 0.248672-0.0382 0.344304-0.38256z"/>
  <path d="m111.41 73.284c-1.5223-0.43705-3.07647-0.8442-4.8312-1.07582-2.26188-0.29498-3.47964-3e-3 -3.96065 0.1915-0.6931 0.28022-1.07407 0.76727 0.15161 1.48213 0.91091 0.55003 2.33049 1.02599 3.87117 1.49586 1.46696 0.44739 3.30357 0.97195 5.31438 1.21928 2.15332 0.26959 3.3908-6.2e-4 3.93737-0.26279 0.59678-0.28625 0.99595-0.80963-0.4523-1.59214-1.02756-0.55564-2.50385-1.01976-4.03037-1.45802m4.02909 2.91599c-0.43524 0.20754-1.61426 0.36987-3.77213-0.12091-1.32809-0.30402-3.14335-0.85091-4.29002-1.19638-1.22875-0.3702-2.47972-0.74708-3.39789-1.09092-1.96926-0.74998-1.2623-1.15284-0.97454-1.26977 0.37797-0.15359 1.45366-0.36317 3.47989 0.0765 1.15197 0.25532 2.58136 0.6705 3.78228 1.0193 1.44898 0.42087 2.78123 0.80782 3.9309 1.23244 1.75246 0.63501 1.73994 1.11206 1.24151 1.34971m-13.8674 1.29832c0.18939-0.083 0.42855-0.18781 0.0378-0.31389-0.3891-0.12557-0.62864-0.0216-0.80565 0.0552l-8.02269 3.48146c-0.19864 0.0862-0.469075 0.20356-0.07439 0.34575 0.396419 0.14281 0.666558 0.0244 0.879157-0.0687l7.98575-3.49975m3.89172 1.25273c0.1753-0.0807 0.41246-0.18988 6e-3 -0.32118-0.40517-0.13074-0.64278-0.0225-0.83097 0.0633l-7.94242 3.61867c-0.211641 0.0964-0.480621 0.21897-0.06855 0.36742 0.413901 0.14911 0.682526 0.0255 0.879817-0.0654l7.95657-3.66279m-24.6851 2.05653c-0.05515-0.0212-0.214514-0.0583-0.352905-3e-3 -0.04615 0.0185-0.04328 0.0318-0.01063 0.17785l0.342239 0.99683c-0.402737-0.0451-2.51605-0.29931-4.29115 0.41203-3.6871 1.47755-3.42022 4.8819 1.19277 6.92678 3.31813 1.47088 7.74363 1.64113 10.4913 0.32317 0.72942-0.34988 1.27204-0.78487 1.53222-1.1982 0.374379-0.55898 0.227429-0.88497 0.08722-1.19195 0.677998 0.14696 1.88717 0.26997 2.04496 0.19475 0.07879-0.0375 0.04538-0.0783 0.02374-0.0869-0.01178-0.0322-0.671287-0.43061-1.04088-0.64502 0 0-1.3257-0.77995-1.3257-0.77995-0.291737-0.16848-0.566481-0.34326-0.855451-0.51006-0.751842-0.4406-0.777031-0.46363 0.08779-0.86791 0.07717-0.0346 0.226299-0.11827-0.160086-0.26787-0.141914-0.055-0.299923-0.0521-0.42334 3e-3 -0.355912 0.1581-1.21585 0.59103-1.57781 0.75192-0.490559 0.21807-1.79983 0.74838-2.30168 0.9713-0.14629 0.065-0.341809 0.15182 0.06529 0.31817 0.22472 0.0918 0.355069 0.0335 0.712369-0.12647 0.01618-8e-3 0.484575-0.21693 0.894953-0.36588 0.476821-0.16158 0.617806-0.17275 0.884355-0.0663 0.184959 0.0739 0.940668 0.52576 1.55417 0.90874 1.89203 1.15065 0.01809 2.25081-0.560679 2.52611-1.61041 0.76603-4.64119 1.08814-7.85646-0.30965-0.636715-0.2768-3.7718-1.78983-4.48484-3.63079-0.373824-0.91881 0.1027-2.04659 1.71666-2.69794 1.62992-0.65778 3.99395-0.47055 6.2048 0.3942 0.775901 0.30349 0.748577 0.33107 0.943704 0.40744 0.195567 0.0766 0.367113 3e-3 0.429391-0.0236 0.202087-0.0865 0.16292-0.10182-0.110914-0.27171l-3.8553-2.26898" stroke-linejoin="round" stroke-miterlimit="1e5"/>
 </g>
</svg>
