<?xml version="1.0" encoding="UTF-8"?>
<svg width="205.656" height="80.2849" version="1.1" viewBox="0 0 205.65527 80.284778" xmlns="http://www.w3.org/2000/svg" xmlns:xlink="http://www.w3.org/1999/xlink">
 <defs>
  <marker id="marker1420" overflow="visible" orient="auto">
   <path transform="matrix(-.4 0 0 -.4 -4 0)" d="m0 0 5-5-17.5 5 17.5 5z" fill="#ff0007" fill-rule="evenodd" stroke="#ff0007" stroke-width="1pt"/>
  </marker>
  <marker id="marker1368" overflow="visible" orient="auto">
   <path transform="matrix(-.4 0 0 -.4 -4 0)" d="m0 0 5-5-17.5 5 17.5 5z" fill="#ff0007" fill-rule="evenodd" stroke="#ff0007" stroke-width="1pt"/>
  </marker>
  <marker id="Arrow1Mend" overflow="visible" orient="auto">
   <path transform="matrix(-.4 0 0 -.4 -4 0)" d="m0 0 5-5-17.5 5 17.5 5z" fill="#ff0007" fill-rule="evenodd" stroke="#ff0007" stroke-width="1pt"/>
  </marker>
  <symbol id="g958">
   <path d="m134.413 5.57944q-0.33059-1.16021-0.64872-1.96487l0.87328-0.199606q0.54268 1.40348 0.67991 1.94616zm-0.21831 9.28169v-2.02101h-3.21865v-0.754761h3.21865v-1.20387h-2.73835v-4.70322h4.57846q0.89823-1.74032 1.23507-2.64478l0.97932 0.224557q-0.39922 0.929416-1.29121 2.42022h0.9918v4.70322h-2.80697v1.20387h3.26232v0.754761h-3.26232v2.02101zm-1.84012-6.69928h1.86507v-1.35358h-1.86507zm2.75082 0h1.91497v-1.35358h-1.91497zm1.91497 0.64872h-1.91497v1.38477h1.91497zm-2.80072 0h-1.86507v1.38477h1.86507zm-2.04597-2.83815q-0.51149-1.2912-0.87327-1.98359l0.84832-0.286934q0.37426 0.798425 0.87328 1.95864-0.31812 0.130992-0.84833 0.311885zm-4.29777 1.44714-0.0936 1.91497h2.71339q0 1.29744-0.0499 2.33913-0.0437 1.03546-0.13723 1.80893-0.0499 0.424163-0.13099 0.586343-0.0811 0.16218-0.24327 0.311885-0.16218 0.155942-0.41169 0.274458-0.24327 0.124754-0.5302 0.16218-0.0312 0-1.66546 0.03119l-0.14347-0.848326h1.26625q0.67991 0 0.88575-0.467827 0.20585-0.467827 0.20585-3.51806h-1.83388v0.336836h-0.88576l0.16842-3.58667h2.57617v-2.13329h-2.69469v-0.704859h3.63658v3.49311z"/>
   <path d="m143.245 14.5867v-0.798425h3.7239v-3.46816h-3.06271v-0.767236h3.06271v-2.75082h-2.04596q-0.46783 1.11655-1.0916 1.99606l-0.75476-0.392975q0.54268-0.792187 1.06041-2.07715t0.67991-2.30171l0.97931 0.143467q-0.18713 0.842088-0.57386 1.86507h1.74655v-2.52627h0.99179v2.52627h3.1937v0.767236h-3.1937v2.75082h2.89429v0.767236h-2.89429v3.46816h3.46816v0.798425zm-2.11458 0.32436v-11.3526h0.91694v11.3526zm1.64675-7.66612-0.40545-1.71537 0.72981-0.168418 0.40545 1.69041zm-2.80696 2.18943-0.80466-0.168418q0.35554-1.37229 0.44287-3.48063l0.83585 0.031188q-0.0249 0.717335-0.17465 1.89002-0.14347 1.16645-0.29941 1.72784z"/>
   <path d="m155.378 14.5929-0.14347-0.804662q0.66743-0.01871 2.46389-0.187131v-1.12902h-2.34537v-0.679908h2.34537v-0.935654h-2.05844v-3.81747h2.05844v-0.823375h-2.32042v-0.673671h2.32042v-0.848326q-1.22259 0.08109-2.07091 0.106041l-0.131-0.692384q2.70716-0.056139 4.84669-0.442876l0.29941 0.704859q-0.72357 0.137229-2.04596 0.255745v0.916941h2.33289v0.673671h-2.33289v0.823375h2.05844v3.81747h-2.05844v0.935654h2.24557v0.679908h-2.24557v1.0417q1.59061-0.16218 2.33289-0.274459v0.704859q-0.95436 0.193369-5.55154 0.64872zm4.435-6.9176h-1.2413v0.979318h1.2413zm-2.08963 0h-1.23506v0.979318h1.23506zm2.08963 1.56566h-1.2413v0.991794h1.2413zm-2.08963 0h-1.23506v0.991794h1.23506zm-5.12115-2.23933-0.56139-0.548917q1.50329-1.35982 2.23933-2.7633l0.84833 0.286934q-0.39297 0.736048-1.15397 1.64051-0.75476 0.898228-1.3723 1.38477zm8.78891-2.32042v-0.704859h2.57617v0.704859zm-7.72226 10.1612v-5.20847q-0.73605 0.910703-1.27873 1.40348l-0.50525-0.530204q0.69862-0.673671 1.46586-1.76527 0.76723-1.0916 1.21635-2.07091l0.8109 0.286934q-0.31812 0.779712-1.05417 1.81517h0.26822v6.06927zm8.60802-0.03743h-1.21635l-0.0873-0.754761h0.88575q0.21208 0 0.36179-0.118516 0.15594-0.118516 0.15594-0.299409v-5.69501h-1.15397v-0.717335h2.94419v0.717335h-0.86081v5.87591q0 0.991793-1.02921 0.991793z"/>
   <path d="m171.465 5.59192h-1.73407q-0.0561 2.85686-3.89856 3.55548l-0.24327-0.661195q1.57813-0.286934 2.37032-0.966842 0.79843-0.686146 0.85457-1.92745h-2.66974v1.16021h-0.86704v-1.89002h5.04006v-1.26625h0.99179v1.26625h5.196v1.79646h-0.87328v-1.06665h-3.28102v2.08339q0 0.180893 0.0998 0.299409 0.10604 0.112278 0.27446 0.155942 0.17465 0.043664 0.57387 0.043664 0.71733 0 0.98555-0.018713 0.27446-0.024951 0.41793-0.218319 0.1497-0.193368 0.1497-0.923178l0.75476 0.074852v0.835851q0 0.355548-0.23703 0.586343-0.2308 0.224557-0.5302 0.286934-0.29941 0.062377-1.34111 0.062377-0.73605 0-1.12902-0.012475-0.38674-0.018713-0.64872-0.280696-0.25575-0.261983-0.25575-0.642482zm-0.59258 5.83848q-0.65495 1.30368-2.18943 2.26428-1.52823 0.954367-3.24983 1.20387l-0.28694-0.72981q1.74032-0.330597 3.06895-1.17892 1.32863-0.848327 1.85883-1.93992h-4.87788v-0.804662h5.13362v-1.25378h1.00427v1.25378h5.31452v0.804662h-5.08996q1.41596 2.13953 5.0151 3.00033l-0.40545 0.767236q-1.73407-0.355548-3.17498-1.25378-1.43467-0.904465-2.12082-2.13329z"/>
  </symbol>
 </defs>
 <g fill="none">
  <path d="m17.3162 5.49999h88.3398" stroke="#000" stroke-dasharray="1.79999734,1.79999734" stroke-width=".3"/>
  <g stroke="#ff0007" stroke-linejoin="round">
   <path d="M 61.4203,59.0342 C 55.36495,44.5249 48.613,30.101 39.0774,18.45 33.30277,11.4745 25.7963,5.4226 17.3162,5.5 12.79478,5.53946 8.57089,7.29789 4.7391,9.9936" color="#000000" stroke-miterlimit="1e5" stroke-width=".999998"/>
   <path d="m61.3904 59.1036c5.95589-14.2855 12.6224-28.5134 21.9212-40.0762 5.79145-7.11542 13.3015-13.3831 21.8834-13.458 3.82951-0.03496 7.46047 1.18005 10.823 3.1656" color="#000000" marker-end="url(#Arrow1Mend)" stroke-miterlimit="1e5" stroke-width=".999998"/>
   <path d="m61.4203 59.0342c3.77718-7.35463 8.01679-14.344 13.0178-20.5626 5.79145-7.11542 13.3015-13.3831 21.8834-13.458 8.48007-0.07741 15.9866 5.97447 21.7612 12.95" color="#000000" marker-end="url(#marker1368)" stroke-dasharray="2.79999322, 2.79999322" stroke-miterlimit="100" stroke-width=".699998"/>
  </g>
 </g>
 <path d="m134.8 32.6974h3.82994v0.767236h-3.82994v3.18122h-0.95437v-11.1842h0.95437v1.50328h3.66153v0.754761h-3.66153v2.04596h3.33717v0.767236h-3.33717zm-7.7784 1.00427-0.19961-0.798425q1.35358-0.193368 3.79876-0.623769 0.0187-0.237032 0.0187-0.667433v-1.07912h-3.31845v-0.767236h3.31845v-2.04596h-3.35588v-0.754761h3.35588v-1.40972h0.95437v5.92581q0 0.311885-0.0187 0.630007 0.51773-0.09356 0.99804-0.199606v0.717335q-0.36803 0.0998-1.08536 0.249507-0.24951 1.5719-1.05417 2.47636-0.79843 0.898228-2.16448 1.40348l-0.41793-0.636245q0.81714-0.32436 1.58438-1.02298 0.77347-0.698622 1.06664-2.02101-1.60309 0.305647-3.48063 0.62377z"/>
 <path d="m138.486 50.3279q-1.49704 2.65102-3.70519 4.35391l-0.67991-0.62377q1.74032-1.39724 2.90053-3.31845l-6.34997 0.948129v3.91727q0 0.879515 0.43664 1.31615 0.44288 0.430401 1.65923 0.430401h5.31451v0.923178h-5.58274q-2.88805 0-2.88805-2.59488v-3.83618l-2.65725 0.399212-0.11228-0.916941 2.81943-0.399212v-2.90053h1.08536v2.75082l7.11721-0.99803zm0.26822-1.60932-0.71733 0.293171q-0.41793-0.973079-0.89199-1.7216l0.64872-0.311884q0.50525 0.779711 0.9606 1.74032zm-1.81517 0.380499-0.71733 0.32436q-0.45535-1.03546-0.90447-1.75279l0.67368-0.305647q0.55515 0.860801 0.94812 1.73408z"/>
 <path d="m150.456 58.2248h-9.95535v-9.08208h9.95535zm-1.0604-0.873277v-7.37919h-7.8595v7.37919z"/>
 <circle transform="rotate(-26.402)" cx="13.0644" cy="12.6263" r="4.99999" color="#000000" fill="#5e5bff"/>
 <path d="m61.3904 55.5681h56.1891" fill="none" marker-end="url(#marker1420)" stroke="#ff0007" stroke-dasharray="2.79999322, 2.79999322" stroke-linejoin="round" stroke-miterlimit="100" stroke-width=".699998"/>
 <g shape-rendering="auto">
  <path d="m43.3262 61.0653 9.10386-2.67149-5.78878-7.49145 8.94168 3.1689-0.262535-9.44992 5.36399 7.7989 5.36399-7.7989-0.262526 9.44992 8.94167-3.1689-5.78878 7.49145 9.10386 2.67149-9.10386 2.67148 5.78878 7.49145-8.94167-3.1689 0.262526 9.44992-5.36399-7.7989-5.36399 7.7989 0.262535-9.44992-8.94168 3.1689 5.78878-7.49145z" color="#000000" color-rendering="auto" fill="#f4ff00" image-rendering="auto" solid-color="#000000" stroke="#c2c216" stroke-miterlimit="5" style="isolation:auto;mix-blend-mode:normal"/>
  <rect x=".499999" y="62.0764" width="204.655" height="17.7084" color="#000000" color-rendering="auto" fill="#cacaca" image-rendering="auto" solid-color="#000000" stroke-linejoin="round" stroke-miterlimit="1e5" stroke-width=".999996" style="isolation:auto;mix-blend-mode:normal"/>
  <path d="m0.500002 62.0764h204.655" color="#000000" color-rendering="auto" fill="none" image-rendering="auto" solid-color="#000000" stroke="#555" stroke-linejoin="round" stroke-miterlimit="100" stroke-width="2.99999" style="isolation:auto;mix-blend-mode:normal"/>
 </g>
 <use width="100%" height="100%" fill="#ff0000" xlink:href="#g958"/>
 <use transform="translate(12.987 21.8908)" width="100%" height="100%" xlink:href="#g958"/>
 <use transform="translate(25.705 43.9999)" width="100%" height="100%" xlink:href="#g958"/>
</svg>
