<?xml version="1.0" encoding="UTF-8"?>
<svg width="129.667" height="116.598" version="1.1" viewBox="0 0 129.66664 116.5984" xmlns="http://www.w3.org/2000/svg">
 <defs>
  <marker id="Arrow1Lend-3-1-1" overflow="visible" orient="auto">
   <path transform="matrix(-.8 0 0 -.8 -10 0)" d="m0 0 5-5-17.5 5 17.5 5z" fill-rule="evenodd" stroke="#000" stroke-width="1pt"/>
  </marker>
 </defs>
 <g transform="translate(-32.3095 -260.442)">
  <g fill="none">
   <path d="m45.1699 333.291 24.3156-17.6544 36.7529 43.982" color="#000000" stroke="#414141"/>
   <path d="m104.179 311.249 25.5374-18.5478 20.2379 24.2268" color="#000000" stroke="#414141"/>
   <g stroke="#009da3" stroke-width=".5">
    <circle cx="129.717" cy="292.701" r="31.5093" color="#000000"/>
    <path d="m64.3697 310.651 44.7091-41.7577" color="#000000"/>
    <path d="m68.838 322.739 60.5972 1.46628" color="#000000"/>
    <ellipse cx="69.4855" cy="315.637" rx="7.15633" ry="7.12998" color="#000000"/>
   </g>
  </g>
  <path d="m128.46 369.124h1.656c0.342 0 0.522 0 0.522-0.324 0-0.198-0.108-0.198-0.468-0.198h-1.584l0.666-2.628c0.072-0.252 0.072-0.288 0.072-0.414 0-0.288-0.234-0.45-0.468-0.45-0.144 0-0.558 0.054-0.702 0.63l-0.702 2.862h-1.69201c-0.36 0-0.522 0-0.522 0.342 0 0.18 0.126 0.18 0.468 0.18h1.60201l-1.18801 4.752c-0.144 0.63-0.198 0.81-0.198 1.044 0 0.846 0.594 1.62 1.60201 1.62 1.818 0 2.79-2.628 2.79-2.754 0-0.108-0.072-0.162-0.18-0.162-0.036 0-0.108 0-0.144 0.072-0.018 0.018-0.036 0.036-0.162 0.324-0.378 0.9-1.206 2.16-2.25 2.16-0.54 0-0.576-0.45-0.576-0.846 0-0.018 0-0.36 0.054-0.576z" stroke-linejoin="round" stroke-miterlimit="1e5" stroke-width="1.5"/>
  <path d="m40.8375 294.113c-0.576 0.108-0.792 0.54-0.792 0.882 0 0.432 0.342 0.576 0.594 0.576 0.539999 0 0.917999-0.468 0.917999-0.954 0-0.756-0.863999-1.098-1.62-1.098-1.098 0-1.71 1.08-1.872 1.422-0.414-1.35-1.53-1.422-1.854-1.422-1.836 0-2.808 2.358-2.808 2.754 0 0.072 0.072 0.162 0.198 0.162 0.144 0 0.18-0.108 0.216-0.18 0.612-1.998 1.818-2.376 2.34-2.376 0.81 0 0.972 0.756 0.972 1.188 0 0.396-0.108 0.81-0.324 1.674l-0.612 2.466c-0.27 1.08-0.792 2.07-1.746 2.07-0.09 0-0.54 0-0.918-0.234 0.648-0.126 0.792-0.666 0.792-0.882 0-0.36-0.27-0.57601-0.612-0.57601-0.432 0-0.9 0.37801-0.9 0.95401 0 0.756 0.846 1.098 1.62 1.098 0.864 0 1.476-0.684 1.854-1.422 0.288 1.062 1.188 1.422 1.854 1.422 1.836 0 2.808-2.35801 2.808-2.754 0-0.09-0.072-0.16201-0.18-0.16201-0.162 0-0.18 0.09-0.234 0.23401-0.486 1.584-1.53 2.322-2.34 2.322-0.63 0-0.972-0.468-0.972-1.206 0-0.39601 0.072-0.68401 0.36-1.87201l0.63-2.44799c0.27-1.08 0.882-1.872 1.71-1.872 0.036 0 0.54 0 0.918 0.234z" stroke-linejoin="round" stroke-miterlimit="1e5" stroke-width="1.5"/>
  <path d="m36.83 371.1v-64.2986" color="#000000" fill="none" marker="none" marker-end="url(#Arrow1Lend-3-1-1)" stroke="#000" stroke-width=".5"/>
  <path d="m36.83 371.1h82.3856" color="#000000" fill="none" marker="none" marker-end="url(#Arrow1Lend-3-1-1)" stroke="#000" stroke-width=".5"/>
  <circle cx="69.4855" cy="315.637" r="2.5" color="#000000" fill="#5e5bff" stroke-linejoin="round" stroke-miterlimit="1e5" stroke-width=".901749"/>
  <circle cx="129.717" cy="292.701" r="2.5" color="#000000" fill="#5e5bff" stroke-linejoin="round" stroke-miterlimit="1e5" stroke-width=".901749"/>
 </g>
</svg>
