<?xml version="1.0" encoding="UTF-8"?>
<svg width="158.436" height="138.883" version="1.1" viewBox="0 0 158.43613 138.88218" xmlns="http://www.w3.org/2000/svg">
 <defs>
  <marker id="marker1173" overflow="visible" orient="auto">
   <path transform="scale(.8) rotate(180) translate(12.5)" d="m0 0l5-5-17.5 5 17.5 5-5-5z" fill-rule="evenodd" stroke="#000" stroke-width="1pt"/>
  </marker>
  <marker id="Arrow1Lend" overflow="visible" orient="auto">
   <path transform="scale(.8) rotate(180) translate(12.5)" d="m0 0l5-5-17.5 5 17.5 5-5-5z" fill-rule="evenodd" stroke="#000" stroke-width="1pt"/>
  </marker>
 </defs>
 <circle transform="rotate(70.0751)" cx="88.9141" cy="-41.6951" r="50" color="#000000" color-rendering="auto" fill="none" image-rendering="auto" shape-rendering="auto" solid-color="#000000" stroke="#f00" stroke-width="2" style="isolation:auto;mix-blend-mode:normal"/>
 <path d="m69.5001 69.3826 31.2448 39.0527" fill="none" stroke="#000"/>
 <circle transform="rotate(60)" cx="94.837" cy="-25.4976" r="2.5" color="#000000"/>
 <g stroke-width=".999996">
  <path d="m64.241 56.6968c0-3.05999-2.12399-4.64398-5.23798-4.64398-5.56198 0-8.47797 4.76998-8.47797 8.36997 0 3.14999 2.24999 4.58998 5.25598 4.58998 5.52598 0 8.45997-4.60798 8.45997-8.31597zm-8.27997 7.55997c-0.593998 0-1.422-0.125999-2.10599-0.827997-0.791997-0.791997-0.791997-1.99799-0.791997-2.41199 0-1.134 0.539998-4.49998 2.01599-6.35398 1.206-1.47599 2.69999-1.88999 3.74399-1.88999 1.49399 0 2.96999 0.809997 2.96999 3.09599 0 1.17-0.647998 4.31998-1.81799 6.01198-1.34999 1.97999-2.98799 2.37599-4.01398 2.37599z"/>
  <ellipse transform="rotate(-16.3269)" cx="66.194" cy="132.371" rx="7.5" ry="7.49999" color="#000000" fill="#5e5bff" stroke-linejoin="round" stroke-miterlimit="1e5"/>
  <path d="m92.2775 76.5989c0.018-0.072 0.054-0.179999 0.054-0.269999 0-0.179999-0.179999-0.179999-0.215999-0.179999-0.018 0-0.665998 0.054-0.989996 0.09-0.305999 0.018-0.575998 0.054-0.899997 0.072-0.431998 0.036-0.557998 0.054-0.557998 0.377999 0 0.179999 0.179999 0.179999 0.359999 0.179999 0.917996 0 0.917996 0.16201 0.917996 0.341999 0 0.072 0 0.107999-0.09 0.431998l-2.23199 8.92798c-0.054 0.197999-0.09 0.341998-0.09 0.629997 0 0.899997 0.665998 1.61999 1.58399 1.61999 0.593998 0 0.989997-0.395998 1.278-0.953996 0.305998-0.593998 0.557997-1.72799 0.557997-1.79999 0-0.09-0.072-0.162-0.179999-0.162-0.161999 0-0.179999 0.09-0.251999 0.359999-0.323999 1.242-0.647998 2.19599-1.368 2.19599-0.539998 0-0.539998-0.575998-0.539998-0.827997 0-0.072 0-0.449999 0.126-0.953997z"/>
 </g>
 <g fill="#f00" stroke-linejoin="round" stroke-miterlimit="1e5" stroke-width="1.6">
  <path d="m123.244 13.2321c0-0.05739-0.0382-0.19128-0.21041-0.19128-0.0574 0-0.0765 0.01912-0.28693 0.229536l-1.33898 1.47288c-0.17214-0.267808-1.05205-1.70242-3.17529-1.70242-4.2656 0-8.56946 4.22734-8.56946 8.6651 0 3.04139 2.12323 5.24114 5.22202 5.24114 0.84165 0 1.70241-0.172155 2.39104-0.45908 0.9564-0.382564 1.31984-0.784257 1.66414-1.16682 0.17216 0.478208 0.6695 1.18595 0.86078 1.18595 0.0957 0 0.13392-0.05739 0.13392-0.07651 0.0382-0.03826 0.22956-0.765131 0.32519-1.16682l0.36344-1.47288c0.0765-0.325184 0.17216-0.650352 0.24867-0.975536 0.2104-0.860784 0.22954-0.89904 1.31984-0.91816 0.0957 0 0.30606-0.01914 0.30606-0.38256 0-0.133904-0.0957-0.210416-0.24867-0.210416-0.43995 0-1.56851 0.05738-2.00846 0.05738-0.59298 0-2.08499-0.05738-2.67797-0.05738-0.17214 0-0.40169 0-0.40169 0.38256 0 0.210416 0.15312 0.210416 0.57385 0.210416 0.019 0 0.57384 0 1.01379 0.03826 0.49735 0.05739 0.59298 0.114768 0.59298 0.36344 0 0.172144-0.2104 1.03293-0.4017 1.74067-0.53558 2.10411-3.02225 2.31452-3.69174 2.31452-1.83632 0-3.84478-1.09031-3.84478-4.01693 0-0.592976 0.19128-3.74914 2.19974-6.23582 1.03293-1.30072 2.88837-2.46754 4.78208-2.46754 1.95107 0 3.07965 1.47286 3.07965 3.69174 0 0.765136-0.0574 0.784272-0.0574 0.975552s0.21041 0.19128 0.28692 0.19128c0.24868 0 0.24868-0.03826 0.34431-0.38256z"/>
  <path d="m142.143 20.2713c0.28693 0 0.65037 0 0.65037-0.38256s-0.36344-0.382576-0.63123-0.382576h-11.4578c-0.26779 0-0.63123 0-0.63123 0.382576s0.36344 0.38256 0.65037 0.38256zm0.0192 3.71088c0.2678 0 0.63123 0 0.63123-0.38256s-0.36343-0.38256-0.65036-0.38256h-11.4196c-0.28693 0-0.65037 0-0.65037 0.38256s0.36344 0.38256 0.63123 0.38256z"/>
  <path d="m157.936 20.4053c0-1.53027-0.0957-3.06053-0.76514-4.47602-0.8799-1.83632-2.44841-2.14237-3.2518-2.14237-1.1477 0-2.54407 0.497328-3.32832 2.27626-0.6121 1.31986-0.70775 2.81186-0.70775 4.34213 0 1.43461 0.0765 3.15616 0.86077 4.60991 0.82253 1.54939 2.21888 1.93196 3.15618 1.93196 1.03292 0 2.48667-0.401694 3.32832-2.21889 0.61209-1.31984 0.70774-2.81186 0.70774-4.32298zm-4.03606 6.12104c-0.746 0-1.87458-0.478206-2.21888-2.31453-0.21042-1.1477-0.21042-2.90749-0.21042-4.03606 0-1.22421 0-2.48667 0.15296-3.5196 0.36344-2.27626 1.79806-2.44842 2.27627-2.44842 0.63123 0 1.8937 0.344304 2.25714 2.23802 0.19128 1.07118 0.19128 2.52493 0.19128 3.73 0 1.43462 0 2.73534-0.21042 3.95955-0.28693 1.81719-1.37723 2.39104-2.238 2.39104z"/>
 </g>
 <path d="m0.500032 69.399 136.912-0.01752" fill="none" marker-end="url(#Arrow1Lend)" stroke="#000" stroke-width=".5"/>
 <path d="m69.5165 138.382-0.017518-136.912" fill="none" marker-end="url(#marker1173)" stroke="#000" stroke-width=".5"/>
</svg>
