<?xml version="1.0" encoding="UTF-8"?>
<svg width="90.9097" height="103.86" version="1.1" viewBox="0 0 90.909729 103.86019" xmlns="http://www.w3.org/2000/svg">
 <g transform="translate(-28.8308 -289.668)">
  <g fill="none" stroke="#000" stroke-linejoin="round">
   <path d="m73.4398 327.466 1.55602-0.65074 2.44601-0.96508 2.44628-0.96508 2.06346-0.81414 2.46709-0.91156 2.46708-0.91156 1.75547-0.64867 2.48975-0.84973 2.48975-0.84973 1.28202-0.43747 2.51556-0.77206 2.51557-0.77206 0.636-0.19509 2.54719-0.66478 2.35116-0.61359 2.58644-0.4941 1.35948-0.25952 2.62991-0.15794 0.17494-0.0104 1.47567 0.47097 1.00565 2.40113 1.00591 2.40087 1.00564 2.40113 1.00591 2.40113 0.89895 2.14628 0.12383 1.50022-1.46593 2.15849-0.0316 0.0465-1.9478 1.74935-1.25857 1.13029-2.14092 1.51399-2.14092 1.51399-0.63732 0.45071-2.24525 1.35916-2.24525 1.35942-2.03448 1.2316-2.31349 1.2433-2.31349 1.2433-2.31322 1.24304-0.95454 0.51306-2.3646 1.14588-2.36434 1.14562-2.3646 1.14588-1.80289 0.87389-2.40728 1.05574-2.40728 1.05574-2.40728 1.05574-2.1981 0.96403-2.44653 0.96404-2.44628 0.96429-2.44654 0.96404-2.05766 0.81103-2.48553 0.86168-2.48527 0.86168-2.48553 0.86143-1.36396 0.47279-2.52742 0.73362-2.52716 0.73361-2.52742 0.73361-0.16309 0.0473-2.57458 0.55151-2.57458 0.55125-1.12921 0.24185-2.62333 0.24134-1.93489 0.17821"/>
   <path d="m29.8308 351.401 0.73164 0.90039 2.5788 0.11664 2.59803-0.43175 1.85427-0.30835 2.54744-0.66322 2.54718-0.66321 1.12921-0.29381 2.50767-0.79674 2.50766-0.79674 2.50766-0.79674 0.22395-0.0712 2.47525-0.88999 2.47526-0.88974 2.47525-0.89 1.45433-0.52294 2.44628-0.96481 2.44627-0.96456 2.44628-0.96481 2.17148-0.85623 2.41808-1.03158 2.41808-1.03184 2.41783-1.03158 2.32376-0.99131 2.38805-1.09782 2.38778-1.09782 2.38779-1.09782 1.9233-0.88429 2.35248-1.17004 2.35221-1.17004 2.35248-1.17004 1.04675-0.52059 2.30559-1.25707 2.30558-1.25706 2.1288-1.16069 2.23471-1.37605 2.23471-1.37604 0.65919-0.40577 2.10272-1.56517 1.29915-0.96689 1.673-1.84884 0.0279-1.15082"/>
   <path d="m87.4486 370.584 1.0939 2.36346 1.09391 2.3632 1.09391 2.3632 0.81121 1.75298 0.14042 0.0943 2.22971 1.38358 1.62611 1.00923 0.38281-2.57024 0.30984-2.08134-0.0585-0.13405-1.08363-2.36787-1.0839-2.36762-1.08389-2.36787-0.73797-1.61271"/>
   <path d="m52.6917 292.094-0.4197 0.17431-0.35172 0.15093-0.27032 0.1221-0.17863 0.0886-0.0806 0.0517 1.09391 2.3632 1.09391 2.3632 1.09391 2.36346 1.0939 2.3632 1.09391 2.3632 1.09391 2.36346 1.09364 2.3632 1.09391 2.36346 1.09391 2.3632 1.09391 2.3632 1.0939 2.36346 1.09391 2.3632 1.09365 2.3632 1.0939 2.36346 1.09391 2.3632 0.65708 1.41943 1.09391 2.3632 0.84362 1.82312 0.11013 0.02 0.20181-0.0221 0.28586-0.0639 0.35937-0.10314 0.41891-0.13872 0.46159-0.16859 0.48662-0.19172 0.49241-0.20782 0.47846-0.21536 0.44578-0.21431 0.39572-0.20523 0.33039-0.18756 0.2524-0.1634 0.16546-0.13249 0.0719-0.0966-0.0235-0.0577-1.08363-2.36762-0.8033-1.75454-1.08364-2.36788-1.08389-2.36787-1.0839-2.36762-1.08363-2.36788-1.0839-2.36787-1.08389-2.36762-1.08364-2.36788-1.08389-2.36787-1.0839-2.36762-1.08363-2.36787-1.0839-2.36788-1.08389-2.36762-1.08364-2.36787-1.08389-2.36788-1.0839-2.36788-0.57857-1.26434-0.0108-0.0164-0.11013 0.0221-0.20629 0.0605-0.29482 0.0966-0.37201 0.1291-0.43551 0.15691-0.48188 0.17821-0.50928 0.19301-0.51691 0.20003-0.50375 0.19925-0.47108 0.19016"/>
   <path d="m118.741 329.244-1.66458 2.45516-1.46434 2.15954-1.46434 2.15953-1.46434 2.15953-1.46434 2.15954-1.46434 2.15979-1.46434 2.15954-1.46434 2.15953-1.46434 2.15954-1.46434 2.15953-1.46434 2.15979-1.46434 2.15954-1.46434 2.15953-1.46434 2.15954-1.46434 2.15953-1.46407 2.15954-1.46434 2.15979-1.46434 2.15953-0.069 0.10158-0.13068 0.19249-0.21657 0.21874-0.29481 0.23639-0.36174 0.24497-0.4147 0.2442-0.45158 0.23354-0.47054 0.21379-0.47134 0.18548-0.4529 0.1499-0.41733 0.10858-0.3649 0.0629-0.2985 0.0151-0.31932-0.0359-0.74614-0.0836-2.61779-0.29355-2.61753-0.29355-2.61779-0.29355-2.61779-0.29355-2.61779-0.29355-2.61779-0.29355-2.61779-0.29354-2.61779-0.29381-2.61779-0.29355-2.61779-0.29355-2.61779-0.29355-2.61779-0.29355-2.61779-0.29355-2.61779-0.29355-2.61779-0.29355-2.61779-0.29355-2.6178-0.29355-2.61779-0.29354-0.12909-0.0221-2.59645-0.44162-0.90843-1.25551-0.23896-0.47279-1.17585-2.32475-1.17558-2.32476-1.17585-2.32475-1.17584-2.32475-1.17558-2.32476 0.9901-1.57789 0.52192-0.44162 1.99944-1.69168 1.64824-1.10275 2.17991-1.45918 0.36753-0.21535 2.26501-1.32695 2.26502-1.32694 1.10312-0.58918 2.31639-1.23784 2.31612-1.23784 1.65035-0.8209 2.35248-1.16978 2.35222-1.17004 2.01156-0.94092 2.38014-1.11341 2.38041-1.11367 2.19545-0.97053 2.40386-1.06275 2.40412-1.06275 0.52166-0.21821"/>
  </g>
  <g fill="#f00">
   <path d="m109.721 384.022c-0.57385 0.1594-0.86077 0.70136-0.86077 1.09987 0 0.35069 0.27099 0.73325 0.79701 0.73325 0.55791 0 1.1477-0.46226 1.1477-1.24333 0-0.84484-0.84483-1.40275-1.81719-1.40275-0.90859 0-1.49837 0.68544-1.7056 0.97236-0.39851-0.66949-1.29116-0.97236-2.19975-0.97236-2.00846 0-3.0924 1.96066-3.0924 2.48668 0 0.22316 0.2391 0.22316 0.38256 0.22316 0.19128 0 0.30287 0 0.36663-0.20721 0.46227-1.45056 1.60996-1.92877 2.26351-1.92877 0.60573 0 0.89265 0.28692 0.89265 0.79701 0 0.30287-0.22316 1.17957-0.36663 1.75343l-0.54196 2.1838c-0.2391 0.97236-0.81296 1.45056-1.35492 1.45056-0.0797 0-0.44633 0-0.76513-0.2391 0.57384-0.1594 0.86077-0.70137 0.86077-1.09988 0-0.35068-0.27098-0.73325-0.79701-0.73325-0.55791 0-1.1477 0.46227-1.1477 1.24335 0 0.84482 0.84483 1.40273 1.81719 1.40273 0.90859 0 1.49838-0.68543 1.7056-0.97235 0.39851 0.66948 1.29116 0.97235 2.19975 0.97235 2.00847 0 3.0924-1.96064 3.0924-2.48667 0-0.22317-0.23909-0.22317-0.38256-0.22317-0.19128 0-0.30287 0-0.36663 0.20723-0.46226 1.45056-1.60996 1.92876-2.2635 1.92876-0.60574 0-0.89266-0.28692-0.89266-0.797 0-0.33475 0.20723-1.17959 0.35068-1.76938 0.11159-0.41444 0.47822-1.91282 0.55791-2.16786 0.23911-0.95642 0.79701-1.45056 1.35492-1.45056 0.0797 0 0.44633 0 0.76513 0.2391z" stroke-width="1.33333"/>
   <path d="m117.438 389.246c0-1.2274-0.14507-2.1089-0.65834-2.88996-0.3459-0.51328-1.0377-0.9596-1.93036-0.9596-2.58869 0-2.58869 3.04617-2.58869 3.84956 0 0.80338 0 3.78261 2.58869 3.78261 2.5887 0 2.5887-2.97923 2.5887-3.78261zm-2.5887 3.47018c-0.51328 0-1.19392-0.30126-1.41709-1.21624-0.15621-0.65833-0.15621-1.57329-0.15621-2.399 0-0.81454 0-1.66257 0.16737-2.27626 0.23432-0.8815 0.94844-1.11581 1.40593-1.11581 0.60254 0 1.18276 0.36821 1.38362 1.01538 0.17852 0.60255 0.18968 1.40593 0.18968 2.37669 0 0.82571 0 1.6514-0.14506 2.35438-0.22316 1.01539-0.98192 1.26086-1.42824 1.26086z" stroke-width="1.33333"/>
   <circle cx="95.7291" cy="382.129" r="2.592"/>
  </g>
 </g>
</svg>
