<?xml version="1.0" encoding="UTF-8"?>
<svg width="142.723" height="103.634" version="1.1" viewBox="0 0 142.7226 103.6338" xmlns="http://www.w3.org/2000/svg"><defs><marker id="marker46978" overflow="visible" orient="auto"><path transform="matrix(-.4 0 0 -.4 -4 0)" d="m0 0 5-5-17.5 5 17.5 5z" fill-rule="evenodd" stroke="#000" stroke-width="1pt"/></marker><marker id="marker45600" overflow="visible" orient="auto"><path transform="matrix(-.4 0 0 -.4 -4 0)" d="m0 0 5-5-17.5 5 17.5 5z" fill="#f00" fill-rule="evenodd" stroke="#f00" stroke-width="1pt"/></marker><marker id="marker45679" overflow="visible" orient="auto"><path transform="matrix(-.4 0 0 -.4 -4 0)" d="m0 0 5-5-17.5 5 17.5 5z" fill="#f00" fill-rule="evenodd" stroke="#f00" stroke-width="1pt"/></marker></defs><g transform="translate(17.0756 -298.353)"><g shape-rendering="auto"><path d="m-4.41026 314.886 18.5035 16.1104" color="#000000" color-rendering="auto" fill="none" image-rendering="auto" marker-end="url(#marker46978)" solid-color="#000000" stroke="#000" style="isolation:auto;mix-blend-mode:normal"/><path transform="matrix(0 .840677 -.843494 0 249.677 611.261)" d="m-313.248 279.726-3.55454-12.0657-9.96772 7.67206 4.21637-11.8507-12.5736 0.34794 10.3768-7.10907-10.3768-7.10907 12.5736 0.34794-4.21637-11.8507 9.96772 7.67206 3.55454-12.0657 3.55453 12.0657 9.96772-7.67206-4.21636 11.8507 12.5736-0.34794-10.3768 7.10907 10.3768 7.10907-12.5736-0.34794 4.21636 11.8507-9.96772-7.67206z" color="#000000" color-rendering="auto" fill="#f4ff00" image-rendering="auto" solid-color="#000000" stroke="#c2c216" stroke-miterlimit="5" stroke-width="1.18753" style="isolation:auto;mix-blend-mode:normal"/><rect x="-16.5756" y="348.209" width="141.723" height="53.2776" color="#000000" color-rendering="auto" fill="#dcdcdc" image-rendering="auto" solid-color="#000000" style="isolation:auto;mix-blend-mode:normal"/></g><g fill="#f00" stroke-width="1.5"><path d="m93.6626 382.258c0-0.48419-0.412455-0.95045-0.95043-0.95045-0.60972 0-0.96837 0.50213-0.96837 0.95045 0 0.48418 0.412455 0.95043 0.95043 0.95043 0.60972 0 0.96837-0.50211 0.96837-0.95043z"/><path d="m96.413 386.362c-0.645586 0.17932-0.968371 0.78903-0.968371 1.23735 0 0.39453 0.30486 0.82491 0.89664 0.82491 0.627645 0 1.29116-0.52005 1.29116-1.39875 0-0.95045-0.950431-1.57809-2.04434-1.57809-1.02216 0-1.68567 0.77112-1.9188 1.0939-0.44832-0.75318-1.45256-1.0939-2.47472-1.0939-2.25952 0-3.47896 2.20573-3.47896 2.79751 0 0.25106 0.26899 0.25106 0.430385 0.25106 0.215193 0 0.340728 0 0.412459-0.23312 0.520049-1.63188 1.8112-2.16987 2.54644-2.16987 0.681449 0 1.00424 0.32279 1.00424 0.89664 0 0.34073-0.251055 1.32702-0.412455 1.97261l-0.609705 2.45677c-0.268995 1.09391-0.91458 1.63188-1.52429 1.63188-0.08967 0-0.502125 0-0.860774-0.26898 0.645569-0.17932 0.968369-0.78904 0.968369-1.23736 0-0.39452-0.30486-0.82491-0.89664-0.82491-0.627648 0-1.29116 0.52005-1.29116 1.39876 0 0.95043 0.950436 1.57808 2.04434 1.57808 1.02216 0 1.68567-0.77111 1.9188-1.09389 0.44832 0.75316 1.45256 1.09389 2.47472 1.09389 2.25952 0 3.47895-2.20572 3.47895-2.7975 0-0.25107-0.26898-0.25107-0.43038-0.25107-0.215189 0-0.340725 0-0.412454 0.23313-0.520051 1.63188-1.81121 2.16985-2.54645 2.16985-0.681449 0-1.00423-0.32278-1.00423-0.89662 0-0.37659 0.233129-1.32704 0.394514-1.99055 0.125535-0.46624 0.537991-2.15193 0.627646-2.43885 0.268994-1.07596 0.89664-1.63188 1.52428-1.63188 0.08967 0 0.502124 0 0.860775 0.269z"/><path d="m101.267 388.498c0-0.36403-0.30128-0.71551-0.72807-0.71551-0.37659 0-0.715521 0.30127-0.715521 0.71551 0 0.45191 0.364041 0.72807 0.715521 0.72807 0.40168 0 0.72807-0.31381 0.72807-0.72807zm-1.90805 2.3474v0.4519c0.790829 0 0.903809 0.0753 0.903809 0.69042v3.26376c0 0.53978-0.12553 0.53978-0.941467 0.53978v0.4519c0.0251 0 0.903807-0.0503 1.40593-0.0503 0.43935 0 0.89126 0.012 1.33061 0.0503v-0.4519c-0.72807 0-0.85359 0-0.85359-0.52722v-4.55672z"/><path d="m109.128 392.44c0-1.09211-0.53977-1.73231-1.88293-1.73231-1.02935 0-1.69465 0.56489-2.04613 1.21764h-0.0126v-1.21764l-1.84527 0.13815v0.45191c0.84104 0 0.94146 0.0879 0.94146 0.70297v3.25121c0 0.53977-0.12552 0.53977-0.94146 0.53977v0.45191c0.0251 0 0.90381-0.0503 1.43103-0.0503 0.46446 0 1.33061 0.0376 1.44359 0.0503v-0.45191c-0.81594 0-0.94148 0-0.94148-0.53977v-2.25953c0-1.31806 1.0419-1.93315 1.8704-1.93315 0.8787 0 0.99168 0.6904 0.99168 1.3306v2.86208c0 0.53977-0.12554 0.53977-0.94148 0.53977v0.45191c0.0251 0 0.90381-0.0503 1.43103-0.0503 0.46446 0 1.33062 0.0376 1.44359 0.0503v-0.45191c-0.81594 0-0.94146 0-0.94146-0.53977z"/><path d="m94.2249 299.803c0-0.48419-0.412455-0.95045-0.95043-0.95045-0.60972 0-0.96837 0.50213-0.96837 0.95045 0 0.48418 0.412455 0.95043 0.95043 0.95043 0.60972 0 0.96837-0.50211 0.96837-0.95043z"/><path d="m96.9752 303.908c-0.645585 0.17932-0.968371 0.78903-0.968371 1.23735 0 0.39453 0.30486 0.82491 0.89664 0.82491 0.627646 0 1.29116-0.52005 1.29116-1.39875 0-0.95045-0.95043-1.57809-2.04434-1.57809-1.02216 0-1.68567 0.77112-1.9188 1.0939-0.44832-0.75318-1.45255-1.0939-2.47471-1.0939-2.25953 0-3.47896 2.20573-3.47896 2.79751 0 0.25106 0.26899 0.25106 0.430385 0.25106 0.215194 0 0.340728 0 0.412459-0.23312 0.520049-1.63188 1.8112-2.16987 2.54644-2.16987 0.68145 0 1.00424 0.32279 1.00424 0.89664 0 0.34073-0.251055 1.32702-0.412455 1.97261l-0.609705 2.45677c-0.268995 1.09391-0.91458 1.63188-1.52428 1.63188-0.08967 0-0.502126 0-0.860775-0.26898 0.645569-0.17932 0.968369-0.78904 0.968369-1.23736 0-0.39452-0.30486-0.82491-0.89664-0.82491-0.627648 0-1.29116 0.52005-1.29116 1.39876 0 0.95043 0.950436 1.57808 2.04434 1.57808 1.02216 0 1.68567-0.77111 1.9188-1.09389 0.44832 0.75316 1.45256 1.09389 2.47472 1.09389 2.25952 0 3.47895-2.20572 3.47895-2.7975 0-0.25107-0.26898-0.25107-0.43038-0.25107-0.21519 0-0.340726 0-0.412455 0.23313-0.520051 1.63188-1.8112 2.16985-2.54644 2.16985-0.68145 0-1.00424-0.32278-1.00424-0.89662 0-0.37659 0.233129-1.32704 0.394515-1.99055 0.125534-0.46624 0.53799-2.15193 0.627645-2.43885 0.268995-1.07596 0.89664-1.63188 1.52428-1.63188 0.08967 0 0.502124 0 0.860775 0.269z"/><path d="m105.822 311.115c0-1.5691-1.34316-2.92482-3.07546-2.92482-1.73231 0-3.07547 1.35572-3.07547 2.92482 0 1.55657 1.38081 2.79932 3.07547 2.79932 1.69465 0 3.07546-1.24275 3.07546-2.79932zm-3.07546 2.39762c-0.46446 0-1.14233-0.15063-1.55657-0.76574-0.33892-0.51466-0.37659-1.16742-0.37659-1.74484 0-0.53978 0.0126-1.2804 0.45191-1.82018 0.31383-0.36403 0.84105-0.6402 1.48125-0.6402 0.74062 0 1.26784 0.35148 1.54401 0.74063 0.35148 0.48955 0.38913 1.1172 0.38913 1.71975s-0.0376 1.26784-0.40169 1.78251c-0.33892 0.47701-0.91636 0.72807-1.53145 0.72807z"/><path d="m110.834 308.391v0.4519c0.84105 0 0.94148 0.0879 0.94148 0.70298v2.14654c0 1.10466-0.71552 1.87038-1.66955 1.87038-1.14231 0-1.19253-0.53977-1.19253-1.17996v-4.12992l-1.93315 0.13815v0.45191c0.94147 0 0.94147 0.0376 0.94147 1.15488v1.88293c0 0.86615 0 2.03358 2.09634 2.03358 0.27617 0 1.19253 0 1.79507-1.05445h0.0126v1.05445l1.88293-0.12555v-0.4519c-0.84103 0-0.94146-0.0879-0.94146-0.70296v-4.38098z"/><path d="m116.717 308.83h1.95827v-0.4519h-1.95827v-2.30975h-0.42679c-0.0125 1.12977-0.52722 2.37251-1.73231 2.41016v0.35149h1.16742v3.38928c0 1.40594 1.05446 1.69466 1.75742 1.69466 0.84105 0 1.41847-0.71553 1.41847-1.70721v-0.69041h-0.42679v0.67787c0 0.85359-0.4017 1.31805-0.89126 1.31805-0.86616 0-0.86616-1.05444-0.86616-1.2804z"/></g><g><path d="m80.3313 306.507 1e-5 82.8264" color="#000000" color-rendering="auto" fill="none" image-rendering="auto" shape-rendering="auto" solid-color="#000000" stroke="#000" stroke-dasharray="3, 3" stroke-width=".5" style="isolation:auto;mix-blend-mode:normal"/><text x="74.511032" y="333.3692" color="#000000" fill="#000000" font-family="Tahoma" letter-spacing="0px" stroke-miterlimit="1e5" stroke-width="1px" word-spacing="0px" style="line-height:0%;text-decoration-line:none;text-indent:0;text-transform:none" xml:space="preserve"><tspan x="74.511032" y="333.3692" font-size="16px" stroke-linejoin="round" stroke-miterlimit="1e5" style="line-height:1.25">=</tspan></text><text x="74.511032" y="374.78238" color="#000000" fill="#000000" font-family="Tahoma" letter-spacing="0px" stroke-miterlimit="1e5" stroke-width="1px" word-spacing="0px" style="line-height:0%;text-decoration-line:none;text-indent:0;text-transform:none" xml:space="preserve"><tspan x="74.511032" y="374.78238" font-size="16px" stroke-linejoin="round" stroke-miterlimit="1e5" style="line-height:1.25">=</tspan></text><path d="m33.1341 347.92 47.1972 41.4132" color="#000000" color-rendering="auto" fill="none" image-rendering="auto" marker-end="url(#marker45600)" shape-rendering="auto" solid-color="#000000" stroke="#f00" style="isolation:auto;mix-blend-mode:normal"/><path d="m-16.5756 348.209h141.723" color="#000000" color-rendering="auto" fill="none" image-rendering="auto" shape-rendering="auto" solid-color="#000000" stroke="#3d3d3d" stroke-width="3" style="isolation:auto;mix-blend-mode:normal"/></g><circle transform="rotate(-26.402)" cx="-144.064" cy="279.678" r="5.99618" color="#000000" fill="#5e62ff"/><path d="m33.1341 347.92 47.1972-41.4132" color="#000000" color-rendering="auto" fill="none" image-rendering="auto" marker-end="url(#marker45679)" shape-rendering="auto" solid-color="#000000" stroke="#f00" style="isolation:auto;mix-blend-mode:normal"/></g></svg>
