<?xml version="1.0" encoding="UTF-8"?>
<svg width="169.185" height="53.3182" version="1.1" viewBox="0 0 169.18423 53.318186" xmlns="http://www.w3.org/2000/svg">
 <path d="m1.39714 52.377c2.94684-5.99375 6.17804-11.1822 9.64831-15.665 10.6203-13.719 23.4797-20.8291 37.2803-24.1863 18.4383-4.48545 38.5566-2.27206 57.2597-0.17134 20.2804 2.27788 38.8966 4.42329 51.9025-2.24803 4.04047-2.07255 7.53947-4.99603 10.3787-9.03082" fill="none" stroke="#545454" stroke-width="2"/>
 <path d="m88.7929 25.9225c-0.688624 0.19128-1.03293 0.84163-1.03293 1.31984 0 0.42083 0.325184 0.8799 0.956416 0.8799 0.669488 0 1.37723-0.55472 1.37723-1.492 0-1.01381-1.01379-1.6833-2.18062-1.6833-1.0903 0-1.79805 0.82253-2.04672 1.16684-0.478208-0.8034-1.54939-1.16684-2.6397-1.16684-2.41016 0-3.71088 2.35279-3.71088 2.98402 0 0.26779 0.286928 0.26779 0.459072 0.26779 0.229536 0 0.36344 0 0.439952-0.24865 0.55472-1.74068 1.93195-2.31453 2.71621-2.31453 0.72688 0 1.07118 0.3443 1.07118 0.95641 0 0.36344-0.267792 1.41549-0.439952 2.10412l-0.650352 2.62056c-0.286928 1.16683-0.975552 1.74067-1.6259 1.74067-0.09568 0-0.5356 0-0.91816-0.28691 0.688608-0.19128 1.03293-0.84165 1.03293-1.31986 0-0.42082-0.325184-0.8799-0.956416-0.8799-0.669488 0-1.37723 0.55472-1.37723 1.49201 0 1.01379 1.01379 1.68328 2.18062 1.68328 1.0903 0 1.79805-0.82251 2.04672-1.16681 0.478208 0.80337 1.54939 1.16681 2.6397 1.16681 2.41016 0 3.71088-2.35277 3.71088-2.984 0-0.26781-0.286912-0.26781-0.459072-0.26781-0.229536 0-0.36344 0-0.439952 0.24868-0.55472 1.74067-1.93195 2.31451-2.71621 2.31451-0.72688 0-1.07118-0.34431-1.07118-0.9564 0-0.4017 0.248672-1.41551 0.420816-2.12325 0.13392-0.49733 0.573856-2.29539 0.669488-2.60144 0.286928-1.1477 0.956416-1.74067 1.6259-1.74067 0.09568 0 0.5356 0 0.91816 0.28693z" stroke-width="1.33333"/>
 <circle transform="rotate(-26.402)" cx="71.25" cy="46.916" r="7.5" color="#000000" fill="#5e5bff" stroke-linejoin="round" stroke-miterlimit="1e5" stroke-width=".999999"/>
</svg>
