<?xml version="1.0" encoding="UTF-8"?>
<svg width="213.406" height="59.8192" version="1.1" viewBox="0 0 213.40607 59.819183" xmlns="http://www.w3.org/2000/svg"><defs><marker id="Arrow1Mend" overflow="visible" orient="auto"><path transform="matrix(-.4 0 0 -.4 -4 0)" d="m0 0 5-5-17.5 5 17.5 5z" fill="#f00" fill-rule="evenodd" stroke="#f00" stroke-width="1pt"/></marker></defs><g transform="translate(58.1316 -311.689)"><g fill="none" shape-rendering="auto"><path d="m-54.0642 345.478c68.6732-58.5422 137.346 38.5725 206.02 0" color="#000000" color-rendering="auto" image-rendering="auto" solid-color="#000000" stroke="#00f" stroke-width="2" style="isolation:auto;mix-blend-mode:normal"/><path d="m-57.2488 341.689 6.36922 7.57846" color="#000000" color-rendering="auto" image-rendering="auto" solid-color="#000000" stroke="#000" style="isolation:auto;mix-blend-mode:normal"/><path d="m149.575 341.139 4.7612 8.67935" color="#000000" color-rendering="auto" image-rendering="auto" solid-color="#000000" stroke="#000" style="isolation:auto;mix-blend-mode:normal"/><path d="m43.22 335.961 29.4956 10.3454" color="#000000" color-rendering="auto" image-rendering="auto" marker-end="url(#Arrow1Mend)" solid-color="#000000" stroke="#f00" stroke-width="2" style="isolation:auto;mix-blend-mode:normal"/><path d="m44.913 331.309-3.27649 9.34156" color="#000000" color-rendering="auto" image-rendering="auto" solid-color="#000000" stroke="#000" style="isolation:auto;mix-blend-mode:normal"/><path d="m77.6084 342.777-3.2765 9.34156" color="#000000" color-rendering="auto" image-rendering="auto" solid-color="#000000" stroke="#000" style="isolation:auto;mix-blend-mode:normal"/></g><g fill="#f00" stroke-width="1.5"><path d="m59.1769 318.268c-2.24158 0.53799-3.98106 2.86925-3.98106 5.0391 0 1.72155 1.1477 3.01271 2.83337 3.01271 2.09814 0 3.58656-2.81544 3.58656-5.29016 0-1.63188-0.71732-2.52852-1.32704-3.33549-0.64557-0.80698-1.70361-2.15193-1.70361-2.94097 0-0.39453 0.35867-0.82491 0.98631-0.82491 0.53798 0 0.89664 0.23313 1.27323 0.48418 0.35865 0.21519 0.7173 0.44832 0.9863 0.44832 0.44832 0 0.71731-0.43038 0.71731-0.71731 0-0.39452-0.28693-0.44832-0.9325-0.59178-0.93251-0.19725-1.18356-0.19725-1.4705-0.19725-1.39875 0-2.04433 0.7711-2.04433 1.84707 0 0.96837 0.52005 1.9726 1.07596 3.06649zm0.21521 0.39453c0.44832 0.8249 0.98629 1.79327 0.98629 3.08442 0 1.18358-0.68145 4.17834-2.34919 4.17834-0.9863 0-1.72154-0.75318-1.72154-2.11606 0-1.12977 0.66351-4.50113 3.08444-5.1467z"/><path d="m72.6736 318.913c-0.64559 0.17932-0.96837 0.78903-0.96837 1.23735 0 0.39453 0.30486 0.82491 0.89664 0.82491 0.62764 0 1.29115-0.52005 1.29115-1.39875 0-0.95045-0.95043-1.57809-2.04433-1.57809-1.02216 0-1.68567 0.77112-1.9188 1.0939-0.44832-0.75318-1.45256-1.0939-2.47472-1.0939-2.25952 0-3.47895 2.20573-3.47895 2.79751 0 0.25106 0.26899 0.25106 0.43038 0.25106 0.21519 0 0.34073 0 0.41246-0.23312 0.52005-1.63188 1.8112-2.16987 2.54644-2.16987 0.68145 0 1.00424 0.32279 1.00424 0.89664 0 0.34073-0.25106 1.32702-0.41246 1.97261l-0.6097 2.45677c-0.269 1.09391-0.91458 1.63188-1.52429 1.63188-0.0897 0-0.50212 0-0.86077-0.26898 0.64557-0.17932 0.96837-0.78904 0.96837-1.23736 0-0.39452-0.30486-0.82491-0.89664-0.82491-0.62765 0-1.29116 0.52005-1.29116 1.39876 0 0.95043 0.95043 1.57808 2.04434 1.57808 1.02216 0 1.68567-0.77111 1.9188-1.09389 0.44832 0.75316 1.45255 1.09389 2.47471 1.09389 2.25953 0 3.47895-2.20572 3.47895-2.7975 0-0.25107-0.26898-0.25107-0.43038-0.25107-0.21519 0-0.34072 0-0.41245 0.23313-0.52005 1.63188-1.81121 2.16985-2.54645 2.16985-0.68145 0-1.00423-0.32278-1.00423-0.89662 0-0.37659 0.23313-1.32704 0.39451-1.99055 0.12554-0.46624 0.53799-2.15193 0.62765-2.43885 0.26899-1.07596 0.89664-1.63188 1.52428-1.63188 0.0897 0 0.50213 0 0.86078 0.269z"/><path d="m78.9473 320.948c0-0.20084-0.15063-0.477-0.50211-0.477-0.33894 0-0.70298 0.32637-0.70298 0.6904 0 0.21341 0.1632 0.47702 0.50213 0.47702 0.36403 0 0.70296-0.35148 0.70296-0.69042zm-2.5608 6.37689c-0.0502 0.16318-0.11297 0.31383-0.11297 0.52722 0 0.58999 0.50211 1.06701 1.19253 1.06701 1.25529 0 1.80762-1.73231 1.80762-1.9206 0-0.16319-0.1632-0.16319-0.20085-0.16319-0.17574 0-0.18829 0.0753-0.23851 0.21339-0.28871 1.00424-0.84104 1.5189-1.33061 1.5189-0.25105 0-0.31381-0.16318-0.31381-0.43934 0-0.28873 0.0879-0.52723 0.20083-0.80339 0.12554-0.33893 0.26361-0.67785 0.4017-1.00424 0.11298-0.30125 0.56489-1.44358 0.61509-1.59421 0.0377-0.12555 0.0753-0.27617 0.0753-0.4017 0-0.58998-0.50211-1.067-1.19253-1.067-1.24274 0-1.82017 1.7072-1.82017 1.9206 0 0.16319 0.17574 0.16319 0.2134 0.16319 0.17574 0 0.18829-0.0627 0.22595-0.20085 0.32638-1.07955 0.87871-1.53146 1.34317-1.53146 0.20085 0 0.31381 0.10035 0.31381 0.43935 0 0.28872-0.0753 0.47702-0.38913 1.25529z"/></g><g stroke-width="1.5"><path d="m42.5597 346.774c-0.64559 0.17932-0.96837 0.78903-0.96837 1.23735 0 0.39453 0.30486 0.82491 0.89664 0.82491 0.62764 0 1.29115-0.52005 1.29115-1.39875 0-0.95045-0.95043-1.57809-2.04433-1.57809-1.02216 0-1.68567 0.77112-1.9188 1.0939-0.44832-0.75318-1.45256-1.0939-2.47472-1.0939-2.25952 0-3.47896 2.20573-3.47896 2.79751 0 0.25106 0.269 0.25106 0.43039 0.25106 0.21519 0 0.34073 0 0.41246-0.23312 0.52005-1.63188 1.8112-2.16987 2.54644-2.16987 0.68145 0 1.00424 0.32279 1.00424 0.89664 0 0.34073-0.25106 1.32702-0.41246 1.97261l-0.6097 2.45677c-0.269 1.09391-0.91458 1.63188-1.52429 1.63188-0.0897 0-0.50212 0-0.86077-0.26898 0.64557-0.17932 0.96837-0.78904 0.96837-1.23736 0-0.39452-0.30486-0.82491-0.89664-0.82491-0.62765 0-1.29116 0.52005-1.29116 1.39876 0 0.95043 0.95043 1.57808 2.04434 1.57808 1.02216 0 1.68567-0.77111 1.9188-1.09389 0.44832 0.75316 1.45255 1.09389 2.47471 1.09389 2.25953 0 3.47895-2.20572 3.47895-2.7975 0-0.25107-0.26898-0.25107-0.43038-0.25107-0.21519 0-0.34072 0-0.41245 0.23313-0.52005 1.63188-1.81121 2.16985-2.54645 2.16985-0.68145 0-1.00423-0.32278-1.00423-0.89662 0-0.37659 0.23313-1.32704 0.39451-1.99055 0.12554-0.46624 0.53799-2.15193 0.62765-2.43885 0.26899-1.07596 0.89664-1.63188 1.52428-1.63188 0.0897 0 0.50213 0 0.86078 0.269z"/><path d="m48.8334 348.809c0-0.20084-0.15063-0.477-0.50211-0.477-0.33894 0-0.70298 0.32637-0.70298 0.6904 0 0.21341 0.1632 0.47702 0.50213 0.47702 0.36403 0 0.70296-0.35148 0.70296-0.69042zm-2.5608 6.37689c-0.0502 0.16318-0.11297 0.31383-0.11297 0.52722 0 0.58999 0.50211 1.06701 1.19253 1.06701 1.25529 0 1.80762-1.73231 1.80762-1.9206 0-0.16319-0.1632-0.16319-0.20085-0.16319-0.17574 0-0.18829 0.0753-0.23851 0.21339-0.28871 1.00424-0.84104 1.5189-1.33061 1.5189-0.25105 0-0.31381-0.16318-0.31381-0.43935 0-0.28872 0.0879-0.52722 0.20083-0.80338 0.12554-0.33893 0.26361-0.67785 0.4017-1.00424 0.11298-0.30126 0.56489-1.44358 0.61509-1.59421 0.0377-0.12555 0.0753-0.27617 0.0753-0.4017 0-0.58998-0.50211-1.067-1.19253-1.067-1.24274 0-1.82017 1.7072-1.82017 1.9206 0 0.16319 0.17574 0.16319 0.2134 0.16319 0.17574 0 0.18829-0.0627 0.22595-0.20085 0.32638-1.07955 0.87871-1.53146 1.34317-1.53146 0.20085 0 0.31381 0.10035 0.31381 0.43935 0 0.28872-0.0753 0.47702-0.38913 1.25529z"/><path d="m76.463 359.646c-0.64558 0.17933-0.96837 0.78903-0.96837 1.23735 0 0.39453 0.30486 0.82491 0.89664 0.82491 0.62765 0 1.29116-0.52005 1.29116-1.39875 0-0.95044-0.95043-1.57809-2.04434-1.57809-1.02216 0-1.68567 0.77112-1.9188 1.09391-0.44832-0.75318-1.45255-1.09391-2.47471-1.09391-2.25953 0-3.47896 2.20574-3.47896 2.79752 0 0.25105 0.26899 0.25105 0.43038 0.25105 0.2152 0 0.34073 0 0.41246-0.23311 0.52005-1.63188 1.81121-2.16987 2.54645-2.16987 0.68145 0 1.00423 0.32278 1.00423 0.89664 0 0.34072-0.25105 1.32702-0.41245 1.9726l-0.60971 2.45678c-0.26899 1.0939-0.91458 1.63188-1.52428 1.63188-0.0897 0-0.50213 0-0.86078-0.26898 0.64557-0.17933 0.96837-0.78905 0.96837-1.23737 0-0.39451-0.30486-0.82491-0.89664-0.82491-0.62765 0-1.29116 0.52005-1.29116 1.39877 0 0.95043 0.95044 1.57807 2.04434 1.57807 1.02216 0 1.68567-0.7711 1.9188-1.09389 0.44832 0.75317 1.45256 1.09389 2.47472 1.09389 2.25952 0 3.47895-2.20572 3.47895-2.7975 0-0.25107-0.26898-0.25107-0.43038-0.25107-0.21519 0-0.34073 0-0.41246 0.23313-0.52005 1.63188-1.8112 2.16986-2.54644 2.16986-0.68145 0-1.00424-0.32279-1.00424-0.89663 0-0.37659 0.23313-1.32703 0.39452-1.99054 0.12553-0.46625 0.53799-2.15193 0.62764-2.43885 0.269-1.07597 0.89664-1.63188 1.52429-1.63188 0.0897 0 0.50212 0 0.86077 0.26899z"/><path d="m82.7352 361.681c0-0.20083-0.15063-0.477-0.50211-0.477-0.33894 0-0.70298 0.32637-0.70298 0.69041 0 0.2134 0.1632 0.47701 0.50213 0.47701 0.36403 0 0.70296-0.35148 0.70296-0.69042zm-2.5608 6.37689c-0.0502 0.16319-0.11297 0.31383-0.11297 0.52722 0 0.59 0.50211 1.06701 1.19253 1.06701 1.25529 0 1.80762-1.7323 1.80762-1.9206 0-0.16318-0.1632-0.16318-0.20085-0.16318-0.17574 0-0.18829 0.0753-0.23851 0.21339-0.28871 1.00423-0.84104 1.5189-1.33061 1.5189-0.25105 0-0.31381-0.16319-0.31381-0.43935 0-0.28872 0.0879-0.52722 0.20083-0.80339 0.12554-0.33892 0.26361-0.67785 0.4017-1.00423 0.11298-0.30126 0.56489-1.44359 0.61509-1.59422 0.0377-0.12555 0.0753-0.27616 0.0753-0.4017 0-0.58998-0.50211-1.06699-1.19253-1.06699-1.24273 0-1.82017 1.70719-1.82017 1.9206 0 0.16318 0.17574 0.16318 0.2134 0.16318 0.17574 0 0.1883-0.0627 0.22596-0.20085 0.32637-1.07955 0.8787-1.53145 1.34316-1.53145 0.20085 0 0.31381 0.10035 0.31381 0.43935 0 0.28872-0.0753 0.47701-0.38913 1.25529z"/><path d="m89.535 366.69h3.8412c0.16319 0 0.46446 0 0.46446-0.30126 0-0.31383-0.28872-0.31383-0.46446-0.31383h-3.8412v-3.85375c0-0.16319 0-0.46445-0.30127-0.46445-0.31382 0-0.31382 0.28871-0.31382 0.46445v3.85375h-3.85375c-0.16319 0-0.46446 0-0.46446 0.30128 0 0.31381 0.28872 0.31381 0.46446 0.31381h3.85375v3.85376c0 0.16318 0 0.46446 0.30126 0.46446 0.31383 0 0.31383-0.28872 0.31383-0.46446z"/><path d="m98.8962 361.543c0-0.33893-0.0251-0.35148-0.37659-0.35148-0.80339 0.79083-1.94571 0.80338-2.46038 0.80338v0.45191c0.30128 0 1.12976 0 1.82018-0.35148v6.40198c0 0.41426 0 0.57744-1.25529 0.57744h-0.47702v0.45191c0.22595-0.012 1.76996-0.0503 2.23442-0.0503 0.38914 0 1.97082 0.0376 2.24698 0.0503v-0.45191h-0.47701c-1.25529 0-1.25529-0.16318-1.25529-0.57744z"/></g><path d="m-36.3291 312.368c0-0.0539-0.0359-0.17933-0.19726-0.17933-0.0538 0-0.0717 0.018-0.269 0.21519l-1.25529 1.38083c-0.16138-0.25107-0.98629-1.59602-2.97684-1.59602-3.999 0-8.03386 3.96314-8.03386 8.12354 0 2.9589 2.11606 4.91356 4.85977 4.91356 1.56015 0 2.92304-0.71729 3.87348-1.54221 1.66775-1.47047 1.97259-3.10235 1.97259-3.15616 0-0.17933-0.17932-0.17933-0.21519-0.17933-0.10759 0-0.19726 0.0358-0.23313 0.17933-0.16138 0.52005-0.57384 1.79328-1.8112 2.83338-1.23735 1.00424-2.36712 1.30908-3.29963 1.30908-1.61394 0-3.51481-0.93251-3.51481-3.73 0-1.02218 0.37659-3.92728 2.16985-6.02542 1.09391-1.27321 2.77959-2.16985 4.37561-2.16985 1.82913 0 2.88717 1.38081 2.88717 3.46101 0 0.71731-0.0538 0.73525-0.0538 0.91458s0.19727 0.17933 0.269 0.17933c0.23313 0 0.23313-0.0358 0.32278-0.35866z" color="#000000" color-rendering="auto" image-rendering="auto" shape-rendering="auto" solid-color="#000000" style="isolation:auto;mix-blend-mode:normal"/></g></svg>
