<?xml version="1.0" encoding="UTF-8"?>
<svg width="84.9858" height="80.0968" version="1.1" viewBox="0 0 84.985902 80.096941" xmlns="http://www.w3.org/2000/svg" xmlns:xlink="http://www.w3.org/1999/xlink">
 <defs>
  <marker id="marker6157" overflow="visible" orient="auto">
   <path transform="matrix(-.4 0 0 -.4 -4 0)" d="m0 0 5-5-17.5 5 17.5 5z" fill="#f00" fill-rule="evenodd" stroke="#f00" stroke-width="1pt"/>
  </marker>
  <symbol id="symbol4086">
   <path d="m10.0255 14.7685c-0.688625 0.19128-1.03293 0.841633-1.03293 1.31984 0 0.420833 0.325185 0.879907 0.956418 0.879907 0.669489 0 1.37723-0.554722 1.37723-1.492 0-1.01381-1.01379-1.6833-2.18063-1.6833-1.0903 0-1.79805 0.822531-2.04672 1.16684-0.478209-0.803395-1.5494-1.16684-2.6397-1.16684-2.41018 0-3.7109 2.35279-3.7109 2.98402 0 0.267794 0.286913 0.267794 0.459073 0.267794 0.229536 0 0.363441 0 0.439953-0.248656 0.55472-1.74068 1.93197-2.31454 2.71623-2.31454 0.726881 0 1.07118 0.344306 1.07118 0.956419 0 0.363442-0.267792 1.41549-0.439953 2.10412l-0.650352 2.62057c-0.286929 1.16684-0.975554 1.74068-1.62592 1.74068-0.09568 0-0.535601 0-0.918161-0.286924 0.688609-0.191283 1.03293-0.841648 1.03293-1.31986 0-0.420818-0.325184-0.879907-0.956417-0.879907-0.669489 0-1.37723 0.554721-1.37723 1.49202 0 1.0138 1.01379 1.68329 2.18063 1.68329 1.09032 0 1.79807-0.822518 2.04674-1.16683 0.478209 0.803388 1.54939 1.16683 2.6397 1.16683 2.41016 0 3.71088-2.35278 3.71088-2.98401 0-0.267808-0.286912-0.267808-0.459072-0.267808-0.229537 0-0.363441 0-0.439953 0.248672-0.554721 1.74068-1.93196 2.31453-2.71621 2.31453-0.726881 0-1.07119-0.34431-1.07119-0.956416 0-0.401692 0.248673-1.4155 0.420817-2.12325 0.13392-0.497328 0.573857-2.2954 0.669489-2.60145 0.286928-1.1477 0.956417-1.74068 1.62591-1.74068 0.09568 0 0.535601 0 0.918162 0.28693z" stroke-linejoin="round" stroke-miterlimit="1e5" stroke-width="1.6"/>
  </symbol>
  <symbol id="symbol4093">
   <path d="m16.716 16.9396c0-0.214224-0.16067-0.508802-0.53558-0.508802-0.36154 0-0.74984 0.34813-0.74984 0.736435 0 0.227632 0.17408 0.508817 0.5356 0.508817 0.3883 0 0.74982-0.374913 0.74982-0.73645zm-2.73152 6.80204c-0.0536 0.174068-0.12048 0.334745-0.12048 0.562374 0 0.629321 0.53558 1.13813 1.27203 1.13813 1.33898 0 1.92813-1.84779 1.92813-2.04864 0-0.174064-0.17408-0.174064-0.21424-0.174064-0.18745 0-0.20084 0.08034-0.25441 0.227616-0.30795 1.07119-0.89711 1.62017-1.41932 1.62017-0.26779 0-0.33473-0.174067-0.33473-0.468643 0-0.307966 0.0938-0.562374 0.21422-0.856949 0.13392-0.361524 0.28119-0.723046 0.42848-1.07119 0.12048-0.321345 0.60255-1.53983 0.6561-1.7005 0.0402-0.133904 0.0803-0.294576 0.0803-0.428481 0-0.629312-0.53559-1.13813-1.27203-1.13813-1.32559 0-1.94153 1.82101-1.94153 2.04865 0 0.174065 0.18746 0.174065 0.22763 0.174065 0.18746 0 0.20085-0.06694 0.24103-0.214241 0.34813-1.15152 0.93728-1.63356 1.43271-1.63356 0.21424 0 0.33473 0.10712 0.33473 0.468642 0 0.307968-0.0803 0.508817-0.41507 1.33898z" stroke-linejoin="round" stroke-miterlimit="1e5" stroke-width="1.6"/>
  </symbol>
  <symbol id="symbol4102">
   <path d="m81.0164 75.0577c0-1.47289-0.17409-2.53068-0.79001-3.46796-0.41508-0.615936-1.24525-1.15152-2.31643-1.15152-3.10645 0-3.10645 3.65542-3.10645 4.61949 0 0.964065 0 4.53915 3.10645 4.53915 3.10644 0 3.10644-3.57509 3.10644-4.53915zm-3.10644 4.16424c-0.61594 0-1.43272-0.361525-1.70053-1.45949-0.187456-0.790006-0.187456-1.88796-0.187456-2.87881 0-0.977457 0-1.99509 0.200848-2.73153 0.281185-1.0578 1.13815-1.33898 1.68714-1.33898 0.72304 0 1.41931 0.441857 1.66034 1.21847 0.21422 0.723057 0.22761 1.68712 0.22761 2.85204 0 0.990851 0 1.98169-0.17406 2.82526-0.26779 1.21847-1.17831 1.51304-1.71389 1.51304z" stroke-linejoin="round" stroke-miterlimit="1e5" stroke-width="1.6"/>
  </symbol>
 </defs>
 <path d="m79.4859 59.9325-59.9606-51.2246" marker-end="url(#marker6157)" stroke="#f00" stroke-width="1.99999"/>
 <circle cx="79.4859" cy="59.9325" r="5" color="#000000" stroke-width=".825702"/>
 <circle cx="15.7703" cy="5.50001" r="5" color="#000000" stroke-width=".825702"/>
 <use width="100%" height="100%" xlink:href="#symbol4086"/>
 <use width="100%" height="100%" xlink:href="#symbol4093"/>
 <use transform="translate(61.7293 54.0209)" width="100%" height="100%" xlink:href="#symbol4086"/>
 <use width="100%" height="100%" xlink:href="#symbol4102"/>
 <g fill="#ff0000">
  <use transform="translate(50.6442,6.8837)" width="100%" height="100%" xlink:href="#symbol4086"/>
  <use transform="translate(50.6441 6.88364)" width="100%" height="100%" xlink:href="#symbol4093"/>
  <use transform="translate(-5.6931 -47.1372)" width="100%" height="100%" xlink:href="#symbol4102"/>
 </g>
</svg>
