<?xml version="1.0" encoding="UTF-8"?>
<svg width="212.937" height="98.8458" version="1.1" viewBox="0 0 212.93678 98.845848" xmlns="http://www.w3.org/2000/svg" xmlns:xlink="http://www.w3.org/1999/xlink">
 <defs>
  <marker id="marker5913" overflow="visible" orient="auto">
   <path transform="matrix(-.4 0 0 -.4 -4 0)" d="m0 0 5-5-17.5 5 17.5 5z" fill="#fff" fill-rule="evenodd" stroke="#fff" stroke-width="1pt"/>
  </marker>
  <symbol id="g1019">
   <rect x="162.68" y="39.222" width="5.00915" height="8.10498" color="#000000" color-rendering="auto" fill="#696969" image-rendering="auto" shape-rendering="auto" solid-color="#000000" style="isolation:auto;mix-blend-mode:normal"/>
   <rect x="172.803" y="39.222" width="5.00915" height="8.10498" color="#000000" color-rendering="auto" fill="#696969" image-rendering="auto" shape-rendering="auto" solid-color="#000000" style="isolation:auto;mix-blend-mode:normal"/>
   <rect x="182.926" y="39.222" width="5.00915" height="8.10498" color="#000000" color-rendering="auto" fill="#696969" image-rendering="auto" shape-rendering="auto" solid-color="#000000" style="isolation:auto;mix-blend-mode:normal"/>
   <rect x="193.049" y="39.222" width="5.00915" height="8.10498" color="#000000" color-rendering="auto" fill="#ff4747" image-rendering="auto" shape-rendering="auto" solid-color="#000000" style="isolation:auto;mix-blend-mode:normal"/>
   <path d="m153.708 46.577h53.6803l5.04904 35.648h-63.7784z" color="#000000" color-rendering="auto" fill="#696969" image-rendering="auto" shape-rendering="auto" solid-color="#000000" style="isolation:auto;mix-blend-mode:normal"/>
   <rect x="155.587" y="48.668" width="49.5613" height="29.8695" rx="0" ry="0" color="#000000" color-rendering="auto" fill="#fff" image-rendering="auto" shape-rendering="auto" solid-color="#000000" style="isolation:auto;mix-blend-mode:normal"/>
   <path d="m198.777 63.8602-3.17412 3.47469m-5.84698-8.73759-1.50352 4.4333m-8.94879-5.93696 0.16705 4.70718m-10.4603-2.45165 1.83765 4.29635m26.3157-1.13863-2.84001 3.7212m-6.59458-8.23225-1.16941 4.54285m-9.37835-5.29466 0.50119 4.67978m-10.5718-1.67243 2.17177 4.13203m26.1597-3.07947-2.50589 3.94031m-7.27855-7.6995-0.83529 4.62501m-9.74424-4.62499 0.8353 4.62501m-10.6197-0.865817 2.50589 3.94031m25.8256-4.9929-2.17176 4.13203m-7.89892-7.13938-0.50118 4.67979m-10.0466-3.92793 1.16942 4.54284m-10.604-0.03179 2.84001 3.7212m25.3133-6.87894-1.83765 4.29635m-8.45567-6.55186-0.16705 4.70719m-10.2853-3.20349 1.50354 4.43329m-10.5246 0.829583 3.17413 3.47471m34.4545-6.08982-4.60992 5.52102m-5.51635-10.8825-2.04884 6.8856m-9.34966-8.12283 0.51222 7.2005m-11.5926-4.31357 3.07328 6.46572m27.6847-4.1562-4.09771 5.8779m-6.41023-10.4145-1.53663 7.03255m-9.92542-7.44495 1.02444 7.13751m-11.8504-3.42576 3.58551 6.19281m27.2615-6.19283-3.58548 6.1928m-7.2405-9.90452-1.02441 7.13752m-10.4377-6.72508 1.53664 7.03254m-12.0445-2.49596 4.09772 5.87791m26.6602-8.18746-3.07327 6.46572m-8.00715-9.35267-0.51221 7.2005m-10.8863-5.96324 2.04885 6.88558m-12.175-1.52417 4.60992 5.52102m38.3027-6.69462-7.86292 7.86292m-3.18846-14.8917-3.93145 10.28m-8.7102-12.6228 1e-5 11.0856m-12.6416-8.74269 3.93147 10.28m-14.9828-3.25119 7.86292 7.86292" color="#000000" color-rendering="auto" fill="none" image-rendering="auto" shape-rendering="auto" solid-color="#000000" stroke="#000" stroke-width=".321744" style="isolation:auto;mix-blend-mode:normal"/>
   <path d="m160.608 64.004a27.947 27.947 0 0 1 39.523 0" color="#000000" color-rendering="auto" fill="none" image-rendering="auto" shape-rendering="auto" solid-color="#000000" style="isolation:auto;mix-blend-mode:normal"/>
   <path d="m197.308 54.426-13.9114 22.2598 1.71242 0.68181z" color="#000000" color-rendering="auto" fill="#f00" image-rendering="auto" shape-rendering="auto" solid-color="#000000" style="isolation:auto;mix-blend-mode:normal"/>
   <path d="m180.596 73.667a10.4245 10.4126 0 0 0 -7.5236 3.04778 10.4245 10.4126 0 0 0 -1.54118 1.98263h17.8232a10.4245 10.4126 0 0 0 -1.53958 -1.98263 10.4245 10.4126 0 0 0 -7.21883 -3.04778z" color="#000000" color-rendering="auto" fill="#696969" image-rendering="auto" shape-rendering="auto" solid-color="#000000" style="isolation:auto;mix-blend-mode:normal"/>
  </symbol>
 </defs>
 <use width="100%" height="100%" xlink:href="#g1019"/>
 <use transform="matrix(.764864 0 0 .764864 -71.65 -29.1274)" width="100%" height="100%" stroke-width="1.30742" xlink:href="#g1019"/>
 <g shape-rendering="auto">
  <rect transform="rotate(90)" x="38.531" y="-70.2016" width="41.2226" height="69.7017" color="#000000" color-rendering="auto" fill="#8b8b8b" image-rendering="auto" solid-color="#000000" stroke-linejoin="round" stroke-miterlimit="1e5" style="font-variant-east_asian:normal;isolation:auto;mix-blend-mode:normal"/>
  <path d="m70.2016 38.531v41.2226" color="#000000" color-rendering="auto" fill="none" image-rendering="auto" solid-color="#000000" stroke="#3d3d3d" stroke-width="5" style="isolation:auto;mix-blend-mode:normal"/>
  <path d="m17.3278 59.142h42.2762" color="#000000" color-rendering="auto" fill="none" image-rendering="auto" marker-end="url(#marker5913)" solid-color="#000000" stroke="#fff" stroke-width="2" style="isolation:auto;mix-blend-mode:normal"/>
  <circle cx="148.446" cy="59" r="13.435" color="#000000" color-rendering="auto" fill="#f44" image-rendering="auto" solid-color="#000000" style="isolation:auto;mix-blend-mode:normal"/>
  <path d="m148.446 74.91a23.435 23.435 0 0 0 -23.4336 23.4355h46.8691a23.435 23.435 0 0 0 -23.4355 -23.4355z" color="#000000" color-rendering="auto" fill="#f44" image-rendering="auto" solid-color="#000000" style="isolation:auto;mix-blend-mode:normal"/>
  <circle cx="41.7158" cy="16.144" r="7.64412" color="#000000" color-rendering="auto" fill="#44f" image-rendering="auto" solid-color="#000000" style="isolation:auto;mix-blend-mode:normal"/>
  <path d="m41.7153 25.197a13.3338 13.3338 0 0 0 -13.333 13.3341h26.6671a13.3338 13.3338 0 0 0 -13.3341 -13.3341z" color="#000000" color-rendering="auto" fill="#44f" image-rendering="auto" solid-color="#000000" style="isolation:auto;mix-blend-mode:normal"/>
 </g>
 <g stroke-width="1.5">
  <path d="m124.366 42.888c-0.018-0.054-0.09-0.198-0.09-0.252 0-0.018 0.018-0.036 0.324-0.27l1.746-1.368c2.412-1.872 3.204-2.502 4.446-2.61 0.126-0.018 0.306-0.018 0.306-0.324 0-0.108-0.054-0.198-0.198-0.198-0.198 0-0.414 0.036-0.612 0.036h-0.684c-0.558 0-1.152-0.036-1.692-0.036-0.126 0-0.342 0-0.342 0.324 0 0.18 0.126 0.198 0.234 0.198 0.198 0.018 0.432 0.09 0.432 0.342 0 0.36-0.54 0.792-0.684 0.9l-7.056 5.49 1.494-5.94c0.162-0.612 0.198-0.792 1.476-0.792 0.342 0 0.504 0 0.504-0.342 0-0.18-0.18-0.18-0.27-0.18-0.324 0-0.702 0.036-1.044 0.036h-2.124c-0.324 0-0.72-0.036-1.044-0.036-0.144 0-0.342 0-0.342 0.342 0 0.18 0.162 0.18 0.432 0.18 1.098 0 1.098 0.144 1.098 0.342 0 0.036 0 0.144-0.072 0.414l-2.43 9.684c-0.162 0.63-0.198 0.81-1.458 0.81-0.342 0-0.522 0-0.522 0.324 0 0.198 0.162 0.198 0.27 0.198 0.342 0 0.702-0.036 1.044-0.036h2.106c0.342 0 0.72 0.036 1.062 0.036 0.144 0 0.342 0 0.342-0.342 0-0.18-0.162-0.18-0.432-0.18-1.098 0-1.098-0.144-1.098-0.324 0-0.126 0.108-0.576 0.18-0.864l0.702-2.79 2.736-2.142c0.522 1.152 1.476 3.456 2.214 5.22 0.054 0.108 0.09 0.216 0.09 0.342 0 0.54-0.72 0.558-0.882 0.558s-0.342 0-0.342 0.342c0 0.18 0.198 0.18 0.252 0.18 0.63 0 1.296-0.036 1.926-0.036h0.864c0.27 0 0.576 0.036 0.846 0.036 0.108 0 0.306 0 0.306-0.342 0-0.18-0.162-0.18-0.342-0.18-0.666-0.018-0.9-0.162-1.17-0.81z" fill="#f00"/>
  <path d="m17.6084 7.368c-0.018-0.054-0.09-0.198-0.09-0.252 0-0.018 0.018-0.036 0.324-0.27l1.746-1.368c2.412-1.872 3.204-2.502 4.446-2.61 0.126-0.018 0.306-0.018 0.306-0.324 0-0.108-0.054-0.198-0.198-0.198-0.198 0-0.414 0.036-0.612 0.036h-0.684c-0.558 0-1.152-0.036-1.692-0.036-0.126 0-0.342 0-0.342 0.324 0 0.18 0.126 0.198 0.234 0.198 0.198 0.018 0.432 0.09 0.432 0.342 0 0.36-0.54 0.792-0.684 0.9l-7.056 5.49 1.494-5.94c0.162-0.612 0.198-0.792 1.476-0.792 0.342 0 0.504 0 0.504-0.342 0-0.18-0.18-0.18-0.27-0.18-0.324 0-0.702 0.036-1.044 0.036h-2.124c-0.324 0-0.72-0.036-1.044-0.036-0.144 0-0.342 0-0.342 0.342 0 0.18 0.162 0.18 0.432 0.18 1.098 0 1.098 0.144 1.098 0.342 0 0.036 0 0.144-0.072 0.414l-2.43 9.684c-0.162 0.63-0.198 0.81-1.458 0.81-0.342 0-0.522 0-0.522 0.324 0 0.198 0.162 0.198 0.27 0.198 0.342 0 0.702-0.036 1.044-0.036h2.106c0.342 0 0.72 0.036 1.062 0.036 0.144 0 0.342 0 0.342-0.342 0-0.18-0.162-0.18-0.432-0.18-1.098 0-1.098-0.144-1.098-0.324 0-0.126 0.108-0.576 0.18-0.864l0.702-2.79 2.736-2.142c0.522 1.152 1.476 3.456 2.214 5.22 0.054 0.108 0.09 0.216 0.09 0.342 0 0.54-0.72 0.558-0.882 0.558s-0.342 0-0.342 0.342c0 0.18 0.198 0.18 0.252 0.18 0.63 0 1.296-0.036 1.926-0.036h0.864c0.27 0 0.576 0.036 0.846 0.036 0.108 0 0.306 0 0.306-0.342 0-0.18-0.162-0.18-0.342-0.18-0.666-0.018-0.9-0.162-1.17-0.81z" fill="#00f"/>
  <path d="m28.0754 1.52c0.06-0.156 0.108-0.24 0.108-0.36 0-0.396-0.36-0.66-0.696-0.66-0.48 0-0.612 0.42-0.66 0.588l-1.524 5.172c-0.048 0.144-0.048 0.18-0.048 0.192 0 0.108 0.072 0.132 0.192 0.168 0.216 0.096 0.24 0.096 0.264 0.096 0.036 0 0.108 0 0.192-0.204z" fill="#00f"/>
 </g>
</svg>
