<?xml version="1.0" encoding="UTF-8"?>
<svg width="156.586" height="111.086" version="1.1" viewBox="0 0 156.58568 111.0856" xmlns="http://www.w3.org/2000/svg">
 <g transform="translate(6.86426 -263.198)">
  <circle cx="33.7623" cy="307.755" r="9.49998" color="#000000" color-rendering="auto" fill="#fff" image-rendering="auto" shape-rendering="auto" solid-color="#000000" stroke="#d7d7d7" stroke-width=".999998" style="isolation:auto;mix-blend-mode:normal"/>
  <circle cx="43.5183" cy="296.119" r="9.49998" color="#000000" color-rendering="auto" fill="#f8f8f8" image-rendering="auto" shape-rendering="auto" solid-color="#000000" stroke="#878787" stroke-width=".999998" style="isolation:auto;mix-blend-mode:normal"/>
  <path d="m148.883 285.466c-16.7284-15.3934-38.0777-24.902-58.9315-19.947-24.1023 5.45095-44.0125 25.6132-60.2232 47.5529-13.5702 18.4978-25.1186 39.1572-35.644 60.4908" color="#000000" fill="none" stroke="#0f0000" stroke-dasharray="1.99999976, 3.99999951" stroke-linejoin="round" stroke-miterlimit="100"/>
  <circle cx="54.0412" cy="285.589" r="9.49998" color="#000000" color-rendering="auto" fill="#cacaca" image-rendering="auto" shape-rendering="auto" solid-color="#000000" stroke="#555" stroke-width=".999998" style="isolation:auto;mix-blend-mode:normal"/>
  <g stroke-linejoin="round" stroke-miterlimit="1e5" stroke-width="1.5">
   <path d="m15.6863 272.092c-0.645585 0.17932-0.96837 0.78903-0.96837 1.23735 0 0.39453 0.30486 0.82491 0.89664 0.82491 0.627645 0 1.29116-0.52005 1.29116-1.39875 0-0.95045-0.95043-1.57809-2.04434-1.57809-1.02216 0-1.68567 0.77112-1.9188 1.0939-0.44832-0.75318-1.45256-1.0939-2.47472-1.0939-2.25952 0-3.47896 2.20573-3.47896 2.79751 0 0.25106 0.26899 0.25106 0.430386 0.25106 0.215193 0 0.340728 0 0.412458-0.23312 0.52005-1.63188 1.8112-2.16987 2.54644-2.16987 0.68145 0 1.00424 0.32279 1.00424 0.89664 0 0.34073-0.251055 1.32702-0.412455 1.97261l-0.609705 2.45677c-0.268995 1.09391-0.91458 1.63188-1.52428 1.63188-0.08967 0-0.502125 0-0.860775-0.26898 0.64557-0.17932 0.96837-0.78904 0.96837-1.23736 0-0.39452-0.30486-0.82491-0.89664-0.82491-0.627648 0-1.29116 0.52005-1.29116 1.39876 0 0.95043 0.950436 1.57808 2.04434 1.57808 1.02216 0 1.68567-0.77111 1.9188-1.09389 0.44832 0.75316 1.45256 1.09389 2.47472 1.09389 2.25952 0 3.47895-2.20572 3.47895-2.7975 0-0.25107-0.26898-0.25107-0.43038-0.25107-0.21519 0-0.340725 0-0.412455 0.23313-0.52005 1.63188-1.8112 2.16985-2.54644 2.16985-0.68145 0-1.00424-0.32278-1.00424-0.89662 0-0.37659 0.23313-1.32704 0.394515-1.99055 0.125535-0.46624 0.53799-2.15193 0.627645-2.43885 0.268995-1.07596 0.89664-1.63188 1.52428-1.63188 0.08967 0 0.502125 0 0.860775 0.269z"/>
   <path d="m26.8165 283.587c0-0.0539 0-0.0897-0.30486-0.39452-2.24158-2.25952-2.81544-5.64882-2.81544-8.39253 0-3.1203 0.68145-6.2406 2.88717-8.4822 0.23313-0.21519 0.23313-0.25105 0.23313-0.30484 0-0.12555-0.07173-0.17934-0.179325-0.17934-0.179325 0-1.79328 1.21944-2.8513 3.49689-0.91458 1.9726-1.12977 3.96313-1.12977 5.46949 0 1.39875 0.197265 3.56862 1.18356 5.59502 1.07596 2.20573 2.61819 3.37135 2.79752 3.37135 0.107595 0 0.179325-0.0539 0.179325-0.17932z"/>
   <path d="m31.5484 272.11h1.68568c0.35865 0 0.53799 0 0.53799-0.35865 0-0.19726-0.17934-0.19726-0.502125-0.19726h-1.57808c0.64557-2.54645 0.73524-2.9051 0.73524-3.01271 0-0.30484-0.21519-0.48418-0.52005-0.48418-0.0538 0-0.555915 0.018-0.717315 0.64558l-0.699375 2.85131h-1.68568c-0.358654 0-0.537982 0-0.537982 0.34072 0 0.21519 0.143461 0.21519 0.502117 0.21519h1.57808c-1.29116 5.09291-1.36289 5.39777-1.36289 5.72055 0 0.96837 0.681441 1.64982 1.64981 1.64982 1.82914 0 2.8513-2.61819 2.8513-2.76165 0-0.17932-0.14346-0.17932-0.21519-0.17932-0.1614 0-0.179325 0.0539-0.268995 0.25105-0.771105 1.86501-1.72154 2.29539-2.33126 2.29539-0.37659 0-0.555915-0.23311-0.555915-0.82491 0-0.43038 0.03586-0.5559 0.107595-0.86076z"/>
   <path d="m39.4884 274.8c0-1.39876-0.19725-3.56862-1.18356-5.59501-1.07596-2.20574-2.61818-3.37137-2.79751-3.37137-0.107597 0-0.179327 0.0717-0.179327 0.17934 0 0.0539 0 0.0897 0.340722 0.41244 1.75741 1.77535 2.77957 4.62666 2.77957 8.3746 0 3.0665-0.66351 6.22266-2.88717 8.48219-0.233126 0.21519-0.233126 0.25105-0.233126 0.30486 0 0.10755 0.07173 0.17932 0.179327 0.17932 0.179328 0 1.79327-1.21942 2.85131-3.49689 0.914565-1.97259 1.12976-3.96313 1.12976-5.46948z"/>
  </g>
 </g>
</svg>
