<?xml version="1.0" encoding="UTF-8"?>
<svg width="184.064" height="126.264" version="1.1" viewBox="0 0 184.06444 126.26435" xmlns="http://www.w3.org/2000/svg"><defs><marker id="Arrow1Lend" overflow="visible" orient="auto"><path transform="matrix(-.8 0 0 -.8 -10 0)" d="m0 0 5-5-17.5 5 17.5 5z" fill-rule="evenodd" stroke="#000" stroke-width="1pt"/></marker><marker id="Arrow1Lend1" overflow="visible" orient="auto"><path transform="matrix(-.8 0 0 -.8 -10 0)" d="m0 0 5-5-17.5 5 17.5 5z" fill="#f00" fill-rule="evenodd" stroke="#f00" stroke-width="1pt"/></marker></defs><g transform="translate(17.7465 -241.323)"><g fill="none"><g stroke="#000"><path d="m99.6506 318.273s-14.8411-2.90731-14.8411-2.90731m32.5768 6.38165l-17.7357-3.47434m39.3043 7.69952s-21.5686-4.22518-21.5686-4.22518m48.3631 9.4741s-26.7945-5.24892-26.7945-5.24892m-67.6552-8.13086l13.5098-2.47597m1.2931 5.86972s13.548-2.96241 13.548-2.96241m4.4142 7.08047l13.3215-3.60613m8.93232 8.70809l12.6363-4.48291m15.6558 10.9692l11.1387-5.7203m-79.6469-9.98603s-14.8029-3.39375-14.8029-3.39375m32.7651 7.51181s-17.9622-4.11806-17.9622-4.11806m40.216 9.22002s-22.2538-5.10196-22.2538-5.10196m50.5459 11.5883l-28.2921-6.48631m-70.8052-9.72059s15.7862-2.89318 15.7862-2.89318m-1.26864 6.90794l16.0715-3.51419m1.86706 8.47501s16.0952-4.35695 16.0952-4.35695m6.63514 10.6429s15.6187-5.54094 15.6187-5.54094m14.1192 13.7648s14.1729-7.2785 14.1729-7.2785m-84.5797-12.1921l-14.5176-4.01476m32.4562 8.97558s-17.9386-4.96082-17.9386-4.96082m40.6689 11.2468l-22.7303-6.28595m52.4682 14.5098s-29.7379-8.22387-29.7379-8.22387m-73.8775-11.836l18.691-3.42554m-4.85492 8.25074l19.3725-4.23598m-1.89717 10.3304l19.8358-5.36954m2.93212 13.3096l19.7982-7.02369m11.0956 17.7976l18.6423-9.57378m-126.094-15.9401l12.5079 5.91108 16.2304 7.67028 21.9052 10.3521 31.1867 14.7384m-45.5154-37.9664l-13.8361-4.8252m31.3114 10.9196l-17.4753-6.09438m40.2432 14.0345s-22.7679-7.9401-22.7679-7.9401m53.6617 18.7141l-30.8938-10.774m-76.558-14.74s22.4787-4.11972 22.4787-4.11972m-9.97079 10.0308l23.8068-5.2056m-7.57645 12.8759l25.0518-6.7815m-3.14659 17.1336l25.9145-9.19353m5.27223 23.932l25.6216-13.158" color="#000000" stroke-width=".3"/><path d="m120.515 334.376v-60.2504" color="#000000" stroke-dasharray="2.8, 2.8" stroke-width=".7"/><path d="m13.8661 274.887 106.649-0.76109" color="#000000" stroke-dasharray="2.8, 2.8" stroke-width=".7"/><path d="m13.8661 328.271v-78.2168" color="#000000" marker="none" marker-end="url(#Arrow1Lend)" opacity=".533582" stroke-width=".8"/></g><g><path d="m13.8661 328.271v-53.3841" color="#000000" marker="none" marker-end="url(#Arrow1Lend1)" stroke="#f00"/><path d="m13.8661 328.271 106.649 6.10521" color="#000000" marker="none" marker-end="url(#Arrow1Lend1)" stroke="#f00"/><path d="m13.8661 328.271 106.649-54.1452" color="#000000" marker="none" marker-end="url(#Arrow1Lend)" stroke="#000"/></g></g><path d="m130.676 259.197c0-1.80102-1.32603-1.80102-1.34582-1.80102-0.79166 0-1.50415 0.83124-1.50415 1.50415 0 0.55415 0.41562 0.79165 0.59375 0.89061 0.83124 0.49478 0.98957 0.85103 0.98957 1.24686 0 0.43541-1.1479 4.76973-3.4635 4.76973-1.42498 0-1.42498-1.18749-1.42498-1.54373 0-1.1479 0.55416-2.59268 1.18748-4.17599 0.15833-0.39583 0.21771-0.57395 0.21771-0.89061 0-1.14791-1.1479-1.78123-2.23643-1.78123-2.09789 0-3.08746 2.69163-3.08746 3.08746 0 0.27708 0.29687 0.27708 0.47499 0.27708 0.2375 0 0.37604 0 0.4552-0.25729 0.63333-2.13747 1.68227-2.39476 2.03852-2.39476 0.13854 0 0.33645 0 0.33645 0.41562 0 0.4552-0.23749 1.02915-0.29687 1.18748-0.9104 2.29581-1.20727 3.18642-1.20727 4.13641 0 2.09789 1.70206 2.65205 3.42391 2.65205 3.40412 0 4.8489-5.62076 4.8489-7.32282z" stroke-width="1.64928"/><g fill="#f00" stroke-width="1.64928"><path d="m-7.17267 281.836c0-1.80102-1.326-1.80102-1.34584-1.80102-0.7916 0-1.50408 0.83124-1.50408 1.50416 0 0.55416 0.4156 0.79165 0.59368 0.8906 0.83128 0.49479 0.9896 0.85104 0.9896 1.24687 0 0.43541-1.14792 4.76973-3.46352 4.76973-1.42496 0-1.42496-1.18749-1.42496-1.54373 0-1.14791 0.55416-2.59268 1.18752-4.17599 0.15832-0.39583 0.21768-0.57396 0.21768-0.89062 0-1.1479-1.14792-1.78122-2.23648-1.78122-2.09784 0-3.08744 2.69163-3.08744 3.08746 0 0.27708 0.29688 0.27708 0.47504 0.27708 0.23744 0 0.376 0 0.4552-0.25729 0.63328-2.13748 1.68224-2.39477 2.03848-2.39477 0.13856 0 0.33648 0 0.33648 0.41563 0 0.4552-0.23752 1.02915-0.29688 1.18748-0.9104 2.29581-1.20728 3.18642-1.20728 4.13641 0 2.09788 1.70208 2.65204 3.42392 2.65204 3.40408 0 4.84888-5.62076 4.84888-7.32282z"/><path d="m-0.17803 272.174c0-0.2111 0-0.50138-0.30352-0.50138-0.30344 0-0.30344 0.29028-0.30344 0.51458v8.03532h-3.85272c-0.22432 0-0.51456 0-0.51456 0.30346 0 0.30347 0.29024 0.30347 0.51456 0.30347h8.3256c0.21112 0 0.50136 0 0.50136-0.30347 0-0.30346-0.29024-0.30346-0.50136-0.30346h-3.86592z"/><path d="m139.352 315.513c0-1.80102-1.326-1.80102-1.34576-1.80102-0.79168 0-1.50416 0.83124-1.50416 1.50416 0 0.55416 0.4156 0.79165 0.59368 0.8906 0.83128 0.49479 0.9896 0.85104 0.9896 1.24687 0 0.43541-1.14792 4.76973-3.46352 4.76973-1.42496 0-1.42496-1.18749-1.42496-1.54373 0-1.14791 0.55416-2.59268 1.18752-4.17599 0.15832-0.39583 0.21768-0.57396 0.21768-0.89062 0-1.1479-1.14792-1.78122-2.2364-1.78122-2.09792 0-3.08752 2.69163-3.08752 3.08746 0 0.27708 0.29688 0.27708 0.47504 0.27708 0.23752 0 0.376 0 0.4552-0.25729 0.63328-2.13748 1.68224-2.39477 2.03848-2.39477 0.13856 0 0.33648 0 0.33648 0.41563 0 0.4552-0.23752 1.02915-0.29688 1.18748-0.9104 2.29581-1.20728 3.18642-1.20728 4.13641 0 2.09788 1.70208 2.65204 3.42392 2.65204 3.40416 0 4.84888-5.62076 4.84888-7.32282z"/><path d="m142.994 305.098c0-0.21111 0-0.48819-0.30344-0.48819s-0.30344 0.32986-0.30344 0.54097v12.1123c0 0.21111 0 0.54097 0.30344 0.54097s0.30344-0.27708 0.30344-0.48818zm2.7972 0.0528c0-0.2111 0-0.54097-0.30344-0.54097-0.30352 0-0.30352 0.27708-0.30352 0.4882v12.2179c0 0.2111 0 0.48818 0.30352 0.48818 0.30344 0 0.30344-0.32985 0.30344-0.54096z"/></g><path d="m91.9825 350.843c-0.058-0.0227-0.22588-0.0623-0.3728-3e-3 -0.0817 0.033-0.0788 0.0471-5e-3 0.23277l0.32047 0.76059c-1.34887-0.18858-2.70271-0.0306-3.80262 0.41307-2.1909 0.88372-2.06391 2.7042 0.3697 3.74742 1.66873 0.71535 3.57489 0.71279 4.78912 0.45034l2.44548-0.57477c0.82213-0.20255 2.07031-0.48761 3.83613 0.22428 1.97835 0.79759 2.70937 2.31166 1.02537 3.1189-1.11952 0.53665-3.60072 1.26835-6.37556 0.0658-0.5272-0.22848-0.96081-0.49678-1.0733-0.56149-0.0689-0.0458-0.0725-0.0634-0.11587-0.0822-0.21671-0.0938-0.36491-0.0458-0.45547-5e-3 -0.0906 0.041-0.10527 0.0669-0.0947 0.11975 0.014 0.0707 4.08088 2.77633 4.14984 2.80669 0.1381 0.0608 0.32201 0.0571 0.43193 4e-3 0.0915-0.0442 0.0867-0.0632-0.0162-0.30997 0 0-0.40994-0.9902-0.40994-0.9902 2.09345 0.20057 3.62049-0.244 4.63419-0.73404 2.32675-1.12478 1.29655-3.2642-1.41012-4.34019-1.47212-0.58521-2.75361-0.62151-3.29766-0.62911-0.86595-0.0245-1.20177 0.0519-3.19415 0.51529-0.50304 0.11279-1.33339 0.29656-1.53134 0.34696-0.65731 0.12568-1.85044 0.13162-2.92772-0.32343-1.62067-0.68458-1.88822-1.95772-0.25431-2.621 1.40224-0.56924 3.2576-0.64889 5.48276 0.23311 0.64623 0.25616 0.94563 0.42926 1.06783 0.47774 0.0204 8e-3 0.20405 0.0809 0.40229-4e-3 0.16482-0.0705 0.12004-0.10171-0.16042-0.26649l-3.45826-2.07196" stroke-linejoin="round" stroke-miterlimit="1e5" stroke-width="1.33333"/><path d="m24.1853 243.277c-0.267808-0.95642-1.31986-1.45376-2.35278-1.45376-0.707744 0-1.24333 0.40169-1.66416 1.09032-0.478208 0.76513-0.72688 1.79804-0.72688 1.89369 0 0.26779 0.286928 0.26779 0.459088 0.26779 0.210416 0 0.286928 0 0.38256-0.0957 0.03824-0.0382 0.03824-0.0765 0.15296-0.55472 0.382576-1.49201 0.803392-1.91283 1.30074-1.91283 0.286912 0 0.439936 0.19128 0.439936 0.70775 0 0.32518-0.07648 0.63123-0.267792 1.39636-0.13392 0.53559-0.325184 1.30072-0.420816 1.72154l-0.688624 2.67797c-0.05744 0.26779-0.15296 0.63123-0.15296 0.76512 0 0.40169 0.306048 0.84165 0.899024 0.84165 0.994672 0 1.22421-0.87991 1.35811-1.45375 0.19128-0.70774 0.344304-1.31985 0.5356-2.14237 0.07648-0.24867 0.55472-2.21888 0.592976-2.27627 0.01904-0.11472 0.55472-0.97553 1.18595-1.492 0.535584-0.42081 1.16682-0.746 1.97021-0.746 0.497328 0 0.956416 0.19128 0.956416 1.12856 0 1.09032-0.841648 3.32832-1.20509 4.28474-0.210416 0.51646-0.267792 0.65037-0.267792 0.97555 0 1.10944 1.10944 1.72154 2.16149 1.72154 2.0276 0 2.98402-2.60144 2.98402-2.984 0-0.26781-0.286928-0.26781-0.459072-0.26781-0.229552 0-0.36344 0-0.439952 0.24867-0.631232 2.12323-1.66416 2.31451-1.97022 2.31451-0.13392 0-0.325168 0-0.325168-0.40168 0-0.43995 0.19128-0.91816 0.38256-1.39637 0.306048-0.78425 1.18595-3.02227 1.18595-4.09345 0-1.75979-1.47288-2.21888-2.85011-2.21888-0.401696 0-1.79806 0-3.15616 1.45376z" fill="#727272" stroke-linejoin="round" stroke-miterlimit="1e5" stroke-width="1.64928"/></g></svg>
