<?xml version="1.0" encoding="UTF-8"?>
<svg width="222.58" height="138.02" version="1.1" viewBox="0 0 222.58015 138.01984" xmlns="http://www.w3.org/2000/svg" xmlns:xlink="http://www.w3.org/1999/xlink">
 <defs>
  <marker id="marker10329" overflow="visible" orient="auto">
   <path transform="matrix(-.4 0 0 -.4 -4 0)" d="m0 0 5-5-17.5 5 17.5 5z" fill="#f00" fill-rule="evenodd" stroke="#f00" stroke-width="1pt"/>
  </marker>
  <marker id="marker12683" overflow="visible" orient="auto">
   <path transform="matrix(-.4 0 0 -.4 -4 0)" d="m0 0 5-5-17.5 5 17.5 5z" fill="#00f" fill-rule="evenodd" stroke="#00f" stroke-width="1pt"/>
  </marker>
  <symbol id="symbol6494">
   <path d="m33.0664 52.104c0-0.36152-0.027-0.37491-0.4017-0.37491-0.8569 0.84355-2.0754 0.85695-2.6244 0.85695v0.48203c0.3214 0 1.2051 0 1.9415-0.37491v6.82878c0 0.44187 0 0.61594-1.339 0.61594h-0.5088v0.48203c0.241-0.0128 1.888-0.0536 2.3834-0.0536 0.4151 0 2.1022 0.0402 2.3968 0.0536v-0.48203h-0.5088c-1.339 0-1.339-0.17407-1.339-0.61594z" fill="#f00" stroke-linejoin="round" stroke-miterlimit="1e5"/>
  </symbol>
  <symbol id="symbol6538">
   <path d="m190.282 28.012h-0.4553c-0.04 0.29458-0.1741 1.08458-0.3481 1.21848-0.1071 0.0803-1.1382 0.0803-1.3256 0.0803h-2.4637c1.4059-1.24524 1.8745-1.62017 2.6779-2.24948 0.9909-0.79 1.9148-1.62016 1.9148-2.8922 0-1.62016-1.4194-2.611-3.1332-2.611-1.6604 0-2.7851 1.16491-2.7851 2.39676 0 0.68288 0.5757 0.74983 0.7096 0.74983 0.3214 0 0.7097-0.22762 0.7097-0.70965 0-0.24102-0.094-0.70966-0.79-0.70966 0.4151-0.95068 1.3256-1.24525 1.9549-1.24525 1.339 0 2.0353 1.0444 2.0353 2.12897 0 1.16492-0.8302 2.0888-1.2587 2.57084l-3.2269 3.18676c-0.1339 0.12048-0.1339 0.14736-0.1339 0.52221h5.5166z" fill="#00f" stroke-linejoin="round" stroke-miterlimit="1e5"/>
  </symbol>
  <symbol id="g6550">
   <path d="m193.942 30.235c0 0.73645-0.1339 1.59339-1.0444 2.45033-0.054 0.0536-0.094 0.0938-0.094 0.16068 0 0.0938 0.1071 0.18745 0.1875 0.18745 0.1874 0 1.3256-1.07118 1.3256-2.66456 0-0.83017-0.3214-1.45949-0.9373-1.45949-0.4419 0-0.7632 0.34813-0.7632 0.76322 0 0.42848 0.3079 0.77661 0.7766 0.77661 0.3213 0 0.5356-0.21424 0.549-0.21424z" stroke-linejoin="round" stroke-miterlimit="1e5"/>
   <path d="m198.467 22.188c0-0.3883-0.3214-0.76321-0.7766-0.76321-0.4017 0-0.7633 0.32136-0.7633 0.76321 0 0.48204 0.3883 0.77661 0.7633 0.77661 0.4284 0 0.7766-0.33473 0.7766-0.77661zm-2.0353 2.50389v0.48203c0.8436 0 0.9641 0.0803 0.9641 0.73645v3.48135c0 0.57576-0.1339 0.57576-1.0043 0.57576v0.48203c0.027 0 0.9641-0.0536 1.4997-0.0536 0.4686 0 0.9507 0.0128 1.4193 0.0536v-0.48203c-0.7766 0-0.9105 0-0.9105-0.56237v-4.8605z" stroke-linejoin="round" stroke-miterlimit="1e5"/>
   <path d="m206.853 26.392c0-1.16491-0.5758-1.84779-2.0085-1.84779-1.098 0-1.8076 0.60255-2.1825 1.29882h-0.013v-1.29882l-1.9683 0.14736v0.48203c0.8971 0 1.0042 0.0938 1.0042 0.74984v3.46796c0 0.57576-0.1339 0.57576-1.0042 0.57576v0.48203c0.027 0 0.9641-0.0536 1.5264-0.0536 0.4954 0 1.4193 0.0402 1.5398 0.0536v-0.48203c-0.8703 0-1.0042 0-1.0042-0.57576v-2.41016c0-1.40594 1.1114-2.06204 1.9951-2.06204 0.9373 0 1.0578 0.73644 1.0578 1.41932v3.05288c0 0.57576-0.1339 0.57576-1.0043 0.57576v0.48203c0.027 0 0.9641-0.0536 1.5265-0.0536 0.4954 0 1.4193 0.0402 1.5398 0.0536v-0.48203c-0.8703 0-1.0042 0-1.0042-0.57576z" stroke-linejoin="round" stroke-miterlimit="1e5"/>
   <path d="m212.196 20.632c0 0.30605 0 0.70774 0.4017 0.70774 0.4208 0 0.4208-0.38256 0.4208-0.70774v-10.8649c0-0.30604 0-0.70774-0.4017-0.70774-0.4208 0-0.4208 0.38256-0.4208 0.70774z" stroke-linejoin="round" stroke-miterlimit="1e5"/>
   <path d="m212.196 32.109c0 0.30605 0 0.70775 0.4017 0.70775 0.4208 0 0.4208-0.38256 0.4208-0.70775v-10.8649c0-0.30605 0-0.70774-0.4017-0.70774-0.4208 0-0.4208 0.38256-0.4208 0.70774z" stroke-linejoin="round" stroke-miterlimit="1e5"/>
  </symbol>
  <symbol id="symbol6567">
   <path d="m158.212 21.206c0-3.00314-1.7789-3.94042-3.1944-3.94042-2.6206 0-5.1455 2.73533-5.1455 5.43242 0 1.77893 1.1477 3.23269 3.0988 3.23269 1.205 0 2.5823-0.43995 4.036-1.60679 0.2487 1.01381 0.8799 1.60679 1.7407 1.60679 1.0138 0 1.6068-1.05207 1.6068-1.35811 0-0.13392-0.1148-0.19128-0.2296-0.19128-0.1339 0-0.1912 0.0574-0.2486 0.19128-0.3443 0.93728-1.0329 0.93728-1.0712 0.93728-0.593 0-0.593-1.492-0.593-1.95108 0-0.40169 0-0.43995 0.1913-0.66948 1.798-2.25714 2.1997-4.47602 2.1997-4.49516 0-0.0382-0.019-0.19128-0.2295-0.19128-0.1913 0-0.1913 0.0574-0.2869 0.4017-0.3443 1.20507-0.9756 2.65883-1.8746 3.78739zm-1.2816 2.62058c-1.6833 1.47288-3.1561 1.68328-3.9213 1.68328-1.1477 0-1.7215-0.86077-1.7215-2.08498 0-0.93728 0.4973-3.00314 1.1094-3.97869 0.8991-1.39635 1.932-1.75979 2.6015-1.75979 1.8937 0 1.8937 2.50581 1.8937 3.99781 0 0.70774 0 1.81718 0.038 2.14237z" stroke-linejoin="round" stroke-miterlimit="1e5"/>
  </symbol>
  <symbol id="g6578">
   <path d="m167.311 32.109c0 0.30605 0 0.70775 0.4017 0.70775 0.4208 0 0.4208-0.38256 0.4208-0.70775v-10.8649c0-0.30605 0-0.70774-0.4017-0.70774-0.4208 0-0.4208 0.38256-0.4208 0.70774z" stroke-linejoin="round" stroke-miterlimit="1e5"/>
   <path d="m178.233 13.672c0-0.51646-0.44-1.0138-1.0138-1.0138-0.6504 0-1.033 0.5356-1.033 1.0138 0 0.51647 0.44 1.0138 1.0138 1.0138 0.6504 0 1.033-0.53559 1.033-1.0138z" stroke-linejoin="round" stroke-miterlimit="1e5"/>
   <path d="m181.166 18.05c-0.6887 0.19128-1.033 0.84163-1.033 1.31984 0 0.42083 0.3252 0.8799 0.9565 0.8799 0.6694 0 1.3772-0.55472 1.3772-1.492 0-1.0138-1.0138-1.68329-2.1806-1.68329-1.0903 0-1.7981 0.82253-2.0468 1.16683-0.4782-0.80339-1.5493-1.16683-2.6397-1.16683-2.4101 0-3.7108 2.35278-3.7108 2.98401 0 0.2678 0.2869 0.2678 0.459 0.2678 0.2296 0 0.3635 0 0.44-0.24866 0.5547-1.74067 1.9319-2.31453 2.7162-2.31453 0.7269 0 1.0712 0.34431 1.0712 0.95642 0 0.36344-0.2678 1.41549-0.44 2.10411l-0.6503 2.62056c-0.2869 1.16683-0.9756 1.74067-1.6259 1.74067-0.096 0-0.5356 0-0.9182-0.28691 0.6886-0.19128 1.0329-0.84165 1.0329-1.31986 0-0.42081-0.3251-0.8799-0.9564-0.8799-0.6695 0-1.3772 0.55472-1.3772 1.49202 0 1.01379 1.0138 1.68328 2.1806 1.68328 1.0903 0 1.7981-0.82252 2.0467-1.16682 0.4782 0.80338 1.5494 1.16682 2.6397 1.16682 2.4102 0 3.7109-2.35277 3.7109-2.984 0-0.26781-0.2869-0.26781-0.4591-0.26781-0.2295 0-0.3634 0-0.4399 0.24867-0.5547 1.74067-1.932 2.31451-2.7162 2.31451-0.7269 0-1.0712-0.3443-1.0712-0.9564 0-0.40169 0.2487-1.4155 0.4208-2.12325 0.1339-0.49732 0.5739-2.29539 0.6695-2.60144 0.2869-1.14769 0.9564-1.74067 1.6259-1.74067 0.096 0 0.5356 0 0.9182 0.28693z" stroke-linejoin="round" stroke-miterlimit="1e5"/>
   <path d="m187.403 11.089c0.1071-0.22762 0.1205-0.33474 0.1205-0.42847 0-0.41509-0.3749-0.73645-0.79-0.73645-0.5089 0-0.6695 0.41509-0.7365 0.62933l-1.7674 5.79778c-0.013 0.0267-0.067 0.20085-0.067 0.21424 0 0.16067 0.4151 0.29457 0.5222 0.29457 0.094 0 0.1071-0.0267 0.2009-0.22763z" stroke-linejoin="round" stroke-miterlimit="1e5"/>
  </symbol>
  <symbol id="symbol6590">
   <path d="m167.311 20.632c0 0.30605 0 0.70774 0.4017 0.70774 0.4208 0 0.4208-0.38256 0.4208-0.70774v-10.8649c0-0.30604 0-0.70774-0.4017-0.70774-0.4208 0-0.4208 0.38256-0.4208 0.70774z" stroke-linejoin="round" stroke-miterlimit="1e5"/>
   <use xlink:href="#g6578"/>
  </symbol>
 </defs>
 <ellipse transform="matrix(.791522 -.61114 .611277 .791417 0 0)" cx="112.151" cy="178.046" rx="10.6054" ry="10.8252" color="#000000" color-rendering="auto" fill="#dcdcdc" image-rendering="auto" shape-rendering="auto" solid-color="#000000" stroke="#555" stroke-width="2" style="font-variant-east_asian:normal;isolation:auto;mix-blend-mode:normal"/>
 <ellipse transform="matrix(.791522 -.61114 .611277 .791417 0 0)" cx="-22.9268" cy="90.2546" rx="14.9961" ry="15.3068" color="#000000" color-rendering="auto" fill="#dcdcdc" image-rendering="auto" shape-rendering="auto" solid-color="#000000" stroke="#555" stroke-width="2" style="font-variant-east_asian:normal;isolation:auto;mix-blend-mode:normal"/>
 <g fill="none" shape-rendering="auto" stroke-width="2">
  <path d="m53.1325 85.441h37.2647" color="#000000" color-rendering="auto" image-rendering="auto" marker-end="url(#marker10329)" solid-color="#000000" stroke="#f00" style="isolation:auto;mix-blend-mode:normal"/>
  <path d="m185.922 72.368h-77.2298" color="#000000" color-rendering="auto" image-rendering="auto" marker-end="url(#marker12683)" solid-color="#000000" stroke="#00f" style="isolation:auto;mix-blend-mode:normal"/>
  <path d="m90.3972 85.441-19.7815 33.8488" color="#000000" color-rendering="auto" image-rendering="auto" marker-end="url(#marker10329)" solid-color="#000000" stroke="#f00" style="isolation:auto;mix-blend-mode:normal"/>
  <path d="m108.692 72.368 39.7643-68.4595" color="#000000" color-rendering="auto" image-rendering="auto" marker-end="url(#marker12683)" solid-color="#000000" stroke="#00f" style="isolation:auto;mix-blend-mode:normal"/>
 </g>
 <path d="m90.3775 77.7431 5.2314-1.52439-3.32642-4.27474 5.13818 1.80822-0.150859-5.39229 3.08232 4.45017 3.08232-4.45017-0.15086 5.39229 5.13818-1.80822-3.32642 4.27474 5.2314 1.52439-5.2314 1.52439 3.32642 4.27474-5.13818-1.80822 0.15086 5.39229-3.08232-4.45017-3.08232 4.45017 0.150859-5.39229-5.13818 1.80822 3.32642-4.27474z" color="#000000" color-rendering="auto" fill="#f4ff00" image-rendering="auto" shape-rendering="auto" solid-color="#000000" stroke="#c2c216" stroke-miterlimit="5" stroke-width="1.27368" style="isolation:auto;mix-blend-mode:normal"/>
 <use width="100%" height="100%" fill="#ff0000" xlink:href="#symbol6494"/>
 <use transform="translate(5.5669,74.316)" width="100%" height="100%" fill="#ff0000" xlink:href="#symbol6494"/>
 <g fill="#00f">
  <use width="100%" height="100%" xlink:href="#symbol6538"/>
  <use transform="translate(9.0621,79.171)" width="100%" height="100%" xlink:href="#symbol6538"/>
  <use width="100%" height="100%" xlink:href="#g6550"/>
  <use transform="translate(9.062,79.171)" width="100%" height="100%" xlink:href="#g6550"/>
 </g>
 <use transform="translate(-149.371 104.487)" width="100%" height="100%" fill="#ff0000" xlink:href="#g6550"/>
 <use transform="translate(-154.938 30.171)" width="100%" height="100%" fill="#ff0000" xlink:href="#g6550"/>
 <use width="100%" height="100%" fill="#0000ff" xlink:href="#symbol6567"/>
 <use transform="translate(-149.372 104.487)" width="100%" height="100%" fill="#ff0000" xlink:href="#symbol6567"/>
 <use width="100%" height="100%" fill="#0000ff" xlink:href="#symbol6590"/>
 <use transform="translate(9.0616,79.171)" width="100%" height="100%" fill="#0000ff" xlink:href="#symbol6590"/>
 <use transform="translate(-154.939 30.171)" width="100%" height="100%" fill="#ff0000" xlink:href="#symbol6590"/>
 <use transform="translate(-149.372 104.487)" width="100%" height="100%" fill="#ff0000" xlink:href="#symbol6590"/>
</svg>
