<?xml version="1.0" encoding="UTF-8"?>
<svg width="167.611" height="117.673" version="1.1" viewBox="0 0 167.61007 117.6718" xmlns="http://www.w3.org/2000/svg">
 <defs>
  <marker id="marker6157" overflow="visible" orient="auto">
   <path transform="matrix(-.4 0 0 -.4 -4 0)" d="m0 0 5-5-17.5 5 17.5 5z" fill="#f00" fill-rule="evenodd" stroke="#f00" stroke-width="1pt"/>
  </marker>
 </defs>
 <path d="m167.11 51.4605c-65.1237 0-129.662 14.966-165.292 64.7066h165.292z" color="#000000" color-rendering="auto" fill="#dcdcdc" image-rendering="auto" shape-rendering="auto" solid-color="#000000" style="isolation:auto;mix-blend-mode:normal"/>
 <g fill="none">
  <path d="m1.72054 116.3c35.6103-49.8482 100.207-64.8385 165.389-64.8385" color="#000000" color-rendering="auto" image-rendering="auto" shape-rendering="auto" solid-color="#000000" stroke="#555" stroke-linejoin="round" stroke-miterlimit="100" stroke-width="2.99999" style="isolation:auto;mix-blend-mode:normal"/>
  <path d="m17.282 86.4547 101.647-38.7396" stroke="#000" stroke-width=".999994px"/>
  <path d="m79.6039 62.7565-4.3782-11.5391-11.4877 4.39777" stroke="#000" stroke-width=".999994px"/>
  <path d="m68.1088 67.0837-19.6406-51.5341" marker-end="url(#marker6157)" stroke="#f00" stroke-width="1.99998"/>
 </g>
 <g stroke-linejoin="round" stroke-miterlimit="1e5">
  <circle cx="68.1055" cy="67.0849" r="4.99997" color="#000000" stroke-width=".825696"/>
  <path d="m71.9916 5.22346c0.0382-0.05738 0.0957-0.191279 0.0957-0.267789 0-0.133887-0.0192-0.153023-0.459087-0.153023h-13.1984c-0.439949 0-0.459069 0.01914-0.459069 0.153023 0 0.07651 0.05744 0.210414 0.09568 0.267789l6.44616 12.9114c0.133919 0.248666 0.191279 0.363435 0.516461 0.363435s0.382558-0.114767 0.516461-0.363435zm-11.649 0.956405h10.5013l-5.24109 10.5204z" fill="#f00" stroke-width="1.59998"/>
  <path d="m87.4905 4.57311c0-0.05739-0.0382-0.191277-0.21042-0.191277-0.0574 0-0.0765 0.01912-0.28692 0.229533l-1.33896 1.47286c-0.17214-0.267805-1.05204-1.7024-3.17526-1.7024-4.26556 0-8.56936 4.2273-8.56936 8.66501 0 3.04136 2.1232 5.24108 5.22196 5.24108 0.84164 0 1.7024-0.172154 2.39101-0.459074 0.95639-0.382562 1.31983-0.784251 1.66413-1.16681 0.17216 0.478204 0.66949 1.18594 0.86076 1.18594 0.0957 0 0.13392-0.05739 0.13392-0.07651 0.0382-0.03826 0.22955-0.765124 0.32519-1.16681l0.36343-1.47286c0.0765-0.32518 0.17216-0.650345 0.24867-0.975525 0.2104-0.860775 0.22954-0.899031 1.31984-0.918151 0.0957 0 0.30606-0.01914 0.30606-0.382556 0-0.133903-0.0957-0.210413-0.24867-0.210413-0.43995 0-1.5685 0.05738-2.00845 0.05738-0.59298 0-2.08497-0.05738-2.67794-0.05738-0.17214 0-0.4017 0-0.4017 0.382556 0 0.210413 0.15312 0.210413 0.57386 0.210413 0.019 0 0.57383 0 1.01378 0.03826 0.49735 0.05739 0.59298 0.114768 0.59298 0.363437 0 0.172141-0.2104 1.03292-0.4017 1.74065-0.53558 2.10408-3.02222 2.31449-3.6917 2.31449-1.8363 0-3.84475-1.0903-3.84475-4.01689 0-0.592969 0.19128-3.74909 2.19973-6.23576 1.03291-1.3007 2.88834-2.46751 4.78202-2.46751 1.95105 0 3.07962 1.47285 3.07962 3.6917 0 0.765127-0.0574 0.784263-0.0574 0.975542 0 0.191277 0.21041 0.191277 0.28692 0.191277 0.24867 0 0.24867-0.03826 0.34431-0.382556z" fill="#f00" stroke-width="1.59998"/>
 </g>
</svg>
