<?xml version="1.0" encoding="UTF-8"?>
<svg width="180.566" height="90.9664" version="1.1" viewBox="0 0 180.56641 90.966377" xmlns="http://www.w3.org/2000/svg">
 <path d="m40.6172 41.054-0.89257 0.0332-0.93555 0.0352-0.89258 0.13672-0.93554 0.27344-0.89258 0.68554-0.93555 1.7461-0.89258 3.5957-0.93555 5.68555-0.89257 5.7539-0.89258 3.69727-0.93359 1.74609-0.89258 0.75391-0.93555 0.27344-0.89258 0.13867-0.93555 0.0332-0.89257 0.0352h-13.6856l-0.93555-0.0352-0.89257-0.0332-0.93555-0.0684-0.89258-0.24024-0.93555-0.54882-0.89258-1.36914-0.93359-3.04883-0.89258-5.27344-0.93554-5.99219-0.89258-4.28125-0.93555-2.1914-0.89258-0.92579-0.88476-0.35742v49.1543h179.566v-25.1172l-0.71484-0.28906-0.89258-0.92383-0.93554-2.1914-0.89258-4.28125-0.93555-5.99415-0.89258-5.27343-0.93555-3.04883-0.89257-1.36914-0.93555-0.54688-0.89258-0.24023-0.93359-0.0684-0.89258-0.0352-0.93555-0.0332h-13.6875l-0.89258 0.0332-0.93359 0.0352-0.89258 0.13672-0.93554 0.27344-0.89258 0.7539-0.93555 1.7461-0.89258 3.69921-0.89258 5.75391-0.93554 5.68359-0.89258 3.59571-0.93359 1.74805-0.89258 0.68359-0.93555 0.27539-0.89258 0.13672-0.93554 0.0332-0.89258 0.0352h-13.6856l-0.93555-0.0352-0.89257-0.0332-0.93555-0.10352-0.89258-0.20508-0.93555-0.58203-0.89257-1.43945-0.93555-3.11523-0.89258-5.3086-0.93359-5.95898-0.89258-4.21289-0.93555-2.12305-0.89258-0.92383-0.89257-0.34375-0.93555-0.13672-0.89258-0.0684h-0.93555l-0.89257-0.0332h-12.793l-0.89258 0.0332-0.93555 0.0352-0.89258 0.0684-0.93554 0.16992-0.89258 0.44531-0.93359 1.13086-0.89258 2.60352-0.93555 4.79297-0.89258 6.0625-0.93554 4.79492-0.89258 2.60156-0.93555 1.13086-0.89258 0.44531-0.93554 0.17188-0.89258 0.0684-0.9336 0.0332-0.89257 0.0352h-12.7949l-0.89257-0.0352h-0.93555l-0.89258-0.0684-0.93359-0.13672-0.89258-0.34179-0.89258-0.92579-0.93555-2.12304-0.89257-4.21289-0.93555-5.95899-0.89258-5.30664-0.93555-3.11718-0.89257-1.4375-0.9336-0.58204-0.89258-0.20703-0.93554-0.10156-0.89258-0.0352-0.93555-0.0332h-13.6856z" color="#000000" color-rendering="auto" fill="#cacaca" image-rendering="auto" shape-rendering="auto" solid-color="#000000" stroke-linejoin="round" stroke-miterlimit="1e5" style="font-variant-east_asian:normal;isolation:auto;mix-blend-mode:normal"/>
 <path d="m40.5899 39.554-0.92187 0.0352-1.02149 0.0371-1.07617 0.16601-1.30078 0.37891-1.37109 1.05469-1.17579 2.19531-0.95312 3.83594-0.94531 5.75195-0.88477 5.69922-0.83398 3.44922-0.70703 1.32421-0.42969 0.36329-0.53711 0.1582-0.70899 0.10937-0.84961 0.0312-0.86523 0.0332h-13.6289l-0.90625-0.0332-0.86718-0.0332-0.76563-0.0566-0.56055-0.15039-0.45507-0.26758-0.58399-0.89648-0.84375-2.75196-0.875-5.16796-0.93945-6.02149-0.93164-4.46289-1.10156-2.58203-1.30665-1.35547-1.39453-0.5625-0.34765-0.0527v3.14648l0.0273 0.0117 0.47852 0.49609 0.76953 1.80078 0.85351 4.09961 0.93164 5.96289 0.91016 5.37891 1.02344 3.3457 1.20117 1.8418 1.41602 0.83008 1.22461 0.33008 1.10546 0.0801 0.91797 0.0332 0.96485 0.0371h13.7422l0.91993-0.0371 1.02148-0.0352 1.07617-0.16797 1.33399-0.38867 1.35547-1.14453 1.16015-2.16797 0.95117-3.94531 0.90039-5.8086 0.92579-5.61914 0.83203-3.35546 0.69531-1.29688 0.41406-0.31641 0.57031-0.16796 0.70899-0.10743 0.84961-0.0332 0.86328-0.0312h13.6309l0.90625 0.0312 0.83789 0.0332 0.79492 0.0879 0.5625 0.12891 0.42578 0.26563 0.60352 0.9707 0.85156 2.83789 0.875 5.20508 0.93945 5.99023 0.9336 4.4043 1.10547 2.50976 1.31054 1.35743 1.35938 0.52148 1.14843 0.16797 1.00196 0.0762h0.96289l0.89258 0.0352h12.8535l0.91992-0.0371 0.96094-0.0332 1.00196-0.0762 1.22265-0.22461 1.36524-0.68164 1.3125-1.58593 1.01562-2.95899 0.96094-4.92969 0.89258-6.0625 0.91015-4.6582 0.76953-2.24805 0.5586-0.67382 0.41601-0.20899 0.64844-0.11719 0.78711-0.0605 0.90625-0.0352 0.86328-0.0312h12.7383l0.89258 0.0332h0.90625l0.7832 0.0606 0.71875 0.10547 0.42774 0.16406 0.47461 0.49219 0.76562 1.73633 0.85157 4.02148 0.92968 5.92774 0.91016 5.41015 1.01953 3.39453 1.18164 1.90625 1.44531 0.90039 1.22071 0.2793 1.07617 0.11914 0.94726 0.0352 0.96485 0.0371h13.7422l0.91992-0.0371 1.01953-0.0352 1.07812-0.16601 1.30078-0.38282 1.3711-1.04882 1.17383-2.19922 0.95312-3.83594 0.94531-5.75 0.88477-5.69922 0.83203-3.45117 0.71094-1.32422 0.42969-0.36328 0.5371-0.1582 0.70899-0.10743 0.84766-0.0332 0.86328-0.0312h13.6328l0.90625 0.0312 0.86523 0.0352 0.76563 0.0566 0.56055 0.15039 0.45703 0.26562 0.58398 0.89649 0.84375 2.75195 0.875 5.16797 0.93945 6.02344 0.93165 4.46289 1.10156 2.58398 1.30664 1.35156 1.39258 0.5625 0.17968 0.0273v-3.28125l-0.33593-0.34766-0.76953-1.79883-0.85352-4.09961-0.93164-5.96484-0.91016-5.37891-1.02734-3.3457-1.20117-1.8418-1.41407-0.82812-1.2246-0.33008-1.10157-0.0801-0.91992-0.0371-0.96484-0.0332h-13.7422l-0.92188 0.0332-1.01953 0.0391-1.07617 0.16601-1.33398 0.38867-1.35547 1.14454-1.16016 2.16796-0.95312 3.94727-0.90039 5.80859-0.92578 5.61719-0.83204 3.35547-0.69336 1.29687-0.41406 0.31836-0.57031 0.16797-0.70703 0.10742-0.85156 0.0312-0.86524 0.0332h-13.6289l-0.90626-0.0332-0.83789-0.0312-0.79492-0.0879-0.56445-0.13086-0.42578-0.26367-0.60352-0.97265-0.85156-2.83594-0.875-5.20703-0.9375-5.99024-0.93359-4.40429-1.10547-2.50977-1.31055-1.35547-1.35742-0.52344-1.15235-0.16796-1.00195-0.0762h-0.96484l-0.89258-0.0332h-12.8477l-0.92187 0.0332-0.96484 0.0371-0.99805 0.0762-1.22266 0.22265-1.36914 0.68164-1.30859 1.58789-1.01563 2.95899-0.96093 4.92773-0.89258 6.0625-0.91016 4.66016-0.76953 2.24414-0.55859 0.67578-0.41993 0.20898-0.64843 0.11914-0.78321 0.0606-0.90625 0.0332-0.86523 0.0332h-12.7363l-0.89258-0.0352h-0.9082l-0.7832-0.0606-0.71875-0.10546-0.42579-0.16211-0.4746-0.49414-0.76563-1.73633-0.85156-4.02149-0.93164-5.92773-0.91016-5.4082-1.01953-3.39649-1.18164-1.9043-1.44141-0.89843-1.22265-0.28516-1.07618-0.11523-0.94726-0.0371-0.96484-0.0352h-13.7402z" color="#000000" color-rendering="auto" fill="#555" image-rendering="auto" shape-rendering="auto" solid-color="#000000" style="isolation:auto;mix-blend-mode:normal;text-decoration-color:#000000;text-decoration-line:none;text-decoration-style:solid;text-indent:0;text-transform:none;white-space:normal"/>
 <g stroke-width="1.5">
  <path d="m114.535 7.117c0.0717-0.25105 0.0717-0.28692 0.0717-0.41246 0-0.32278-0.25106-0.48418-0.52005-0.48418-0.17933 0-0.46625 0.10755-0.62765 0.37659-0.0359 0.0897-0.17932 0.64559-0.25105 0.96837-0.12555 0.46624-0.25106 0.95043-0.35865 1.43461l-0.80699 3.2279c-0.0717 0.26899-0.84283 1.52429-2.02639 1.52429-0.91457 0-1.11183-0.78903-1.11183-1.45256 0-0.82489 0.30486-1.93672 0.91456-3.51481 0.28694-0.73524 0.35867-0.93251 0.35867-1.29116 0-0.80697-0.57386-1.47048-1.4705-1.47048-1.70361 0-2.36712 2.60025-2.36712 2.76163 0 0.17933 0.17933 0.17933 0.21519 0.17933 0.17933 0 0.19727-0.0358 0.28692-0.32279 0.48419-1.68568 1.2015-2.22366 1.81122-2.22366 0.1434 0 0.44832 0 0.44832 0.57385 0 0.44831-0.17934 0.91458-0.30486 1.2553-0.71731 1.90086-1.0401 2.92303-1.0401 3.76587 0 1.59601 1.12976 2.13401 2.1878 2.13401 0.69937 0 1.30909-0.30486 1.8112-0.80699-0.23313 0.93251-0.44832 1.81122-1.16563 2.76165-0.46625 0.60972-1.14769 1.12977-1.97259 1.12977-0.25107 0-1.05804-0.0538-1.3629-0.75318 0.28694 0 0.52005 0 0.77112-0.21519 0.17933-0.1614 0.35865-0.39453 0.35865-0.73526 0-0.55591-0.48418-0.62764-0.66351-0.62764-0.41245 0-1.00423 0.28693-1.00423 1.16564 0 0.89663 0.78904 1.56014 1.90087 1.56014 1.84707 0 3.69414-1.63187 4.19626-3.65827z"/>
  <path d="m132.291 8.139c0.25107-0.10755 0.35866-0.23313 0.35866-0.39454 0-0.17932-0.0717-0.28692-0.35866-0.41245l-9.88094-4.66251c-0.25107-0.12555-0.3228-0.12555-0.35866-0.12555-0.21519 0-0.35865 0.1614-0.35865 0.35867 0 0.21519 0.1434 0.30484 0.34072 0.39451l9.41469 4.42939-9.37882 4.42939c-0.35867 0.1614-0.37659 0.30485-0.37659 0.41245 0 0.19726 0.1614 0.35865 0.35865 0.35865 0.0539 0 0.0897 0 0.3228-0.12555zm-0.26898 8.26699c0.30484 0 0.62764 0 0.62764-0.35867 0-0.35866-0.37659-0.35864-0.64558-0.35864h-9.66574c-0.269 0-0.64559 0-0.64559 0.35864 0 0.35866 0.32279 0.35867 0.62765 0.35867z"/>
  <path d="m145.662 6.776h1.54221c0.35865 0 0.53799 0 0.53799-0.35865 0-0.19726-0.17934-0.19726-0.48418-0.19726h-1.48842l0.37659-2.04433c0.0717-0.37659 0.32278-1.64981 0.43038-1.865 0.1614-0.34073 0.46625-0.60972 0.84283-0.60972 0.0717 0 0.53799 0 0.87872 0.32279-0.78904 0.0717-0.96837 0.69937-0.96837 0.96836 0 0.41246 0.32279 0.62765 0.66351 0.62765 0.46625 0 0.9863-0.39452 0.9863-1.07596 0-0.8249-0.8249-1.23735-1.56015-1.23735-0.60971 0-1.73948 0.32278-2.27745 2.09812-0.10755 0.37659-0.1614 0.55592-0.59178 2.81544h-1.23737c-0.34072 0-0.53799 0-0.53799 0.34072 0 0.21519 0.1614 0.21519 0.50213 0.21519h1.18356l-1.34496 7.08344c-0.32279 1.73949-0.62765 3.37137-1.56015 3.37137-0.0717 0-0.52005 0-0.86076-0.3228 0.82489-0.0539 0.98629-0.69937 0.98629-0.96837 0-0.41245-0.32278-0.62764-0.66351-0.62764-0.46624 0-0.98629 0.39452-0.98629 1.07596 0 0.80699 0.78903 1.23737 1.52427 1.23737 0.98631 0 1.70361-1.05804 2.02641-1.73948 0.57384-1.12977 0.98629-3.29962 1.00423-3.42516z"/>
  <path d="m158.683 18.253c0-0.0539 0-0.0897-0.30486-0.39452-2.24159-2.25952-2.81544-5.64881-2.81544-8.39252 0-3.12031 0.68145-6.24061 2.88717-8.48221 0.23313-0.21519 0.23313-0.25105 0.23313-0.30484 0-0.12555-0.0717-0.17934-0.17933-0.17934-0.17932 0-1.79328 1.21944-2.8513 3.49689-0.91458 1.97261-1.12977 3.96313-1.12977 5.4695 0 1.39875 0.19726 3.56862 1.18356 5.59501 1.07596 2.20574 2.61819 3.37136 2.79752 3.37136 0.10755 0 0.17932-0.0539 0.17932-0.17933z"/>
  <path d="m165.71 8.534c0.10755-0.46626 0.52005-2.11607 1.77534-2.11607 0.0897 0 0.52005 0 0.89664 0.23314-0.50212 0.0897-0.86077 0.53797-0.86077 0.96836 0 0.28693 0.19725 0.62765 0.68143 0.62765 0.39453 0 0.96837-0.3228 0.96837-1.0401 0-0.9325-1.05802-1.18356-1.66774-1.18356-1.0401 0-1.66775 0.95043-1.88294 1.36289-0.44832-1.18356-1.41669-1.36289-1.93674-1.36289-1.86501 0-2.88717 2.31332-2.88717 2.76163 0 0.17933 0.17933 0.17933 0.2152 0.17933 0.14339 0 0.19726-0.0358 0.23312-0.19725 0.60972-1.90087 1.79328-2.3492 2.40299-2.3492 0.34072 0 0.96837 0.1614 0.96837 1.2015 0 0.55592-0.30486 1.75741-0.96837 4.268-0.28692 1.11183-0.91457 1.865-1.70361 1.865-0.10755 0-0.52005 0-0.89664-0.23312 0.44832-0.0897 0.84285-0.46626 0.84285-0.96837 0-0.48418-0.39453-0.62764-0.66352-0.62764-0.53798 0-0.9863 0.46624-0.9863 1.0401 0 0.82489 0.89664 1.18356 1.68569 1.18356 1.18356 0 1.82913-1.25531 1.88293-1.3629 0.21519 0.6635 0.86077 1.3629 1.93674 1.3629 1.84707 0 2.86923-2.31333 2.86923-2.76165 0-0.17933-0.16138-0.17933-0.21519-0.17933-0.1614 0-0.19726 0.0717-0.23313 0.19727-0.59178 1.9188-1.8112 2.34918-2.38505 2.34918-0.69937 0-0.98631-0.57384-0.98631-1.18356 0-0.39452 0.10755-0.78905 0.30486-1.57808z"/>
  <path d="m175.114 9.466c0-1.39877-0.19725-3.56862-1.18356-5.59502-1.07597-2.20573-2.61818-3.37137-2.7975-3.37137-0.10755 0-0.17933 0.0717-0.17933 0.17934 0 0.0539 0 0.0897 0.34073 0.41244 1.7574 1.77536 2.77956 4.62666 2.77956 8.37461 0 3.06649-0.66351 6.22266-2.88716 8.48218-0.23313 0.21519-0.23313 0.25106-0.23313 0.30486 0 0.10755 0.0717 0.17933 0.17933 0.17933 0.17932 0 1.79326-1.21943 2.8513-3.49689 0.91457-1.97259 1.12976-3.96314 1.12976-5.46948z"/>
 </g>
</svg>
