<?xml version="1.0" encoding="UTF-8"?>
<svg width="168.109" height="97.975" version="1.1" viewBox="0 0 168.10938 97.974998" xmlns="http://www.w3.org/2000/svg"><g transform="translate(49.769 -278.325)" fill="#f00" stroke-linejoin="round" stroke-miterlimit="1e5" stroke-width="1.25"><path d="m-49.269 371.441h13.95l-0.871876-2.61563 8.71875 3.4875-8.71875 3.4875 0.871876-2.61562h-13.95v-1.74375"/><path d="m-20.2065 371.441h13.95l-0.871876-2.61563 8.71875 3.4875-8.71875 3.4875 0.871876-2.61562h-13.95v-1.74375"/><path d="m8.85602 371.441h13.95l-0.871876-2.61563 8.71875 3.4875-8.71875 3.4875 0.871876-2.61562h-13.95v-1.74375"/><path d="m37.9185 371.441h13.95l-0.87187-2.61563 8.71875 3.4875-8.71875 3.4875 0.87187-2.61562h-13.95v-1.74375"/><path d="m66.981 371.441h13.95l-0.87187-2.61563 8.71875 3.4875-8.71875 3.4875 0.87187-2.61562h-13.95v-1.74375"/><path d="m96.0435 371.441h13.95l-0.87187-2.61563 8.71875 3.4875-8.71875 3.4875 0.87187-2.61562h-13.95v-1.74375"/><path d="m-49.269 341.441h13.95l-0.871876-2.61563 8.71875 3.4875-8.71875 3.4875 0.871876-2.61562h-13.95v-1.74375"/><path d="m-20.2065 341.441h13.95l-0.871876-2.61563 8.71875 3.4875-8.71875 3.4875 0.871876-2.61562h-13.95v-1.74375"/><path d="m8.85602 341.441h13.95l-0.871876-2.61563 8.71875 3.4875-8.71875 3.4875 0.871876-2.61562h-13.95v-1.74375"/><path d="m37.9185 341.441h13.95l-0.87187-2.61563 8.71875 3.4875-8.71875 3.4875 0.87187-2.61562h-13.95v-1.74375"/><path d="m66.981 341.441h13.95l-0.87187-2.61563 8.71875 3.4875-8.71875 3.4875 0.87187-2.61562h-13.95v-1.74375"/><path d="m96.0435 341.441h13.95l-0.87187-2.61563 8.71875 3.4875-8.71875 3.4875 0.87187-2.61562h-13.95v-1.74375"/><path d="m-49.269 311.441h13.95l-0.871876-2.61562 8.71875 3.4875-8.71875 3.4875 0.871876-2.61563h-13.95v-1.74375"/><path d="m-20.2065 311.441h13.95l-0.871876-2.61562 8.71875 3.4875-8.71875 3.4875 0.871876-2.61563h-13.95v-1.74375"/><path d="m8.85602 311.441h13.95l-0.871876-2.61562 8.71875 3.4875-8.71875 3.4875 0.871876-2.61563h-13.95v-1.74375"/><path d="m37.9185 311.441h13.95l-0.87187-2.61562 8.71875 3.4875-8.71875 3.4875 0.87187-2.61563h-13.95v-1.74375"/><path d="m66.981 311.441h13.95l-0.87187-2.61562 8.71875 3.4875-8.71875 3.4875 0.87187-2.61563h-13.95v-1.74375"/><path d="m96.0435 311.441h13.95l-0.87187-2.61562 8.71875 3.4875-8.71875 3.4875 0.87187-2.61563h-13.95v-1.74375"/><path d="m-49.269 281.441h13.95l-0.871876-2.61562 8.71875 3.4875-8.71875 3.4875 0.871876-2.61563h-13.95v-1.74375"/><path d="m-20.2065 281.441h13.95l-0.871876-2.61562 8.71875 3.4875-8.71875 3.4875 0.871876-2.61563h-13.95v-1.74375"/><path d="m8.85602 281.441h13.95l-0.871876-2.61562 8.71875 3.4875-8.71875 3.4875 0.871876-2.61563h-13.95v-1.74375"/><path d="m37.9185 281.441h13.95l-0.87187-2.61562 8.71875 3.4875-8.71875 3.4875 0.87187-2.61563h-13.95v-1.74375"/><path d="m66.981 281.441h13.95l-0.87187-2.61562 8.71875 3.4875-8.71875 3.4875 0.87187-2.61563h-13.95v-1.74375"/><path d="m96.0435 281.441h13.95l-0.87187-2.61562 8.71875 3.4875-8.71875 3.4875 0.87187-2.61563h-13.95v-1.74375"/></g></svg>
