<?xml version="1.0" encoding="UTF-8"?>
<svg width="222.58" height="138.02" version="1.1" viewBox="0 0 222.58015 138.01984" xmlns="http://www.w3.org/2000/svg"><defs><marker id="marker10329" overflow="visible" orient="auto"><path transform="matrix(-.4 0 0 -.4 -4 0)" d="m0 0 5-5-17.5 5 17.5 5z" fill="#f00" fill-rule="evenodd" stroke="#f00" stroke-width="1pt"/></marker><marker id="marker12683" overflow="visible" orient="auto"><path transform="matrix(-.4 0 0 -.4 -4 0)" d="m0 0 5-5-17.5 5 17.5 5z" fill="#00f" fill-rule="evenodd" stroke="#00f" stroke-width="1pt"/></marker></defs><g transform="translate(91.29 -255.445)"><g shape-rendering="auto"><g><ellipse transform="matrix(.791522 -.61114 .611277 .791417 0 0)" cx="-116.245" cy="324.445" rx="10.6054" ry="10.8252" color="#000000" color-rendering="auto" fill="#dcdcdc" image-rendering="auto" solid-color="#000000" stroke="#3d3d3d" stroke-width="2" style="isolation:auto;mix-blend-mode:normal"/><ellipse transform="matrix(.791522 -.61114 .611277 .791417 0 0)" cx="-251.323" cy="236.654" rx="14.9961" ry="15.3068" color="#000000" color-rendering="auto" fill="#dcdcdc" image-rendering="auto" solid-color="#000000" stroke="#3d3d3d" stroke-width="2" style="isolation:auto;mix-blend-mode:normal"/><path d="m-38.1575 340.886h37.2647" color="#000000" color-rendering="auto" fill="none" image-rendering="auto" marker-end="url(#marker10329)" solid-color="#000000" stroke="#f00" stroke-width="2" style="isolation:auto;mix-blend-mode:normal"/><path d="m94.6318 327.813h-77.2298" color="#000000" color-rendering="auto" fill="none" image-rendering="auto" marker-end="url(#marker12683)" solid-color="#000000" stroke="#00f" stroke-width="2" style="isolation:auto;mix-blend-mode:normal"/></g><path transform="matrix(0 .428858 -.433576 0 120.37 467.527)" d="m-313.248 279.726-3.55454-12.0657-9.96772 7.67206 4.21637-11.8507-12.5736 0.34794 10.3768-7.10907-10.3768-7.10907 12.5736 0.34794-4.21637-11.8507 9.96772 7.67206 3.55454-12.0657 3.55453 12.0657 9.96772-7.67206-4.21636 11.8507 12.5736-0.34794-10.3768 7.10907 10.3768 7.10907-12.5736-0.34794 4.21636 11.8507-9.96772-7.67206z" color="#000000" color-rendering="auto" fill="#f4ff00" image-rendering="auto" solid-color="#000000" stroke="#c2c216" stroke-miterlimit="5" stroke-width="2.95372" style="isolation:auto;mix-blend-mode:normal"/><path d="m-0.8928 340.886-19.7815 33.8488" color="#000000" color-rendering="auto" fill="none" image-rendering="auto" marker-end="url(#marker10329)" solid-color="#000000" stroke="#f00" stroke-width="2" style="isolation:auto;mix-blend-mode:normal"/><path d="m17.402 327.813 39.7643-68.4595" color="#000000" color-rendering="auto" fill="none" image-rendering="auto" marker-end="url(#marker12683)" solid-color="#000000" stroke="#00f" stroke-width="2" style="isolation:auto;mix-blend-mode:normal"/></g><g fill="#f00" stroke-linejoin="round" stroke-miterlimit="1e5"><g stroke-width=".625"><path d="m-82.4501 381.138c0-3.00314-1.7789-3.94042-3.1944-3.94042-2.6206 0-5.1455 2.73533-5.1455 5.43242 0 1.77893 1.1477 3.23269 3.0988 3.23269 1.205 0 2.5823-0.43995 4.036-1.60679 0.2487 1.01381 0.8799 1.60679 1.7407 1.60679 1.0138 0 1.6068-1.05207 1.6068-1.35811 0-0.13392-0.1148-0.19128-0.2296-0.19128-0.1338 0-0.1912 0.0574-0.2486 0.19128-0.3443 0.93728-1.0329 0.93728-1.0712 0.93728-0.593 0-0.593-1.492-0.593-1.95108 0-0.40169 0-0.43995 0.1913-0.66948 1.7981-2.25714 2.1997-4.47602 2.1997-4.49516 0-0.0382-0.019-0.19128-0.2295-0.19128-0.1913 0-0.1913 0.0574-0.2869 0.4017-0.3443 1.20507-0.9756 2.65883-1.8746 3.78739zm-1.2816 2.62058c-1.6833 1.47288-3.1561 1.68328-3.9213 1.68328-1.1477 0-1.7215-0.86077-1.7215-2.08498 0-0.93728 0.4973-3.00314 1.1094-3.97869 0.8991-1.39635 1.932-1.75979 2.6015-1.75979 1.8937 0 1.8937 2.50581 1.8937 3.99781 0 0.70774 0 1.81718 0.038 2.14237z"/><path d="m-73.3511 380.564c0 0.30605 0 0.70774 0.4017 0.70774 0.4208 0 0.4208-0.38256 0.4208-0.70774v-10.8649c0-0.30604 0-0.70774-0.4017-0.70774-0.4208 0-0.4208 0.38256-0.4208 0.70774z"/><path d="m-73.3511 392.041c0 0.30605 0 0.70775 0.4017 0.70775 0.4208 0 0.4208-0.38256 0.4208-0.70775v-10.8649c0-0.30605 0-0.70774-0.4017-0.70774-0.4208 0-0.4208 0.38256-0.4208 0.70774z"/><path d="m-62.4296 373.603c0-0.51646-0.44-1.0138-1.0138-1.0138-0.6504 0-1.033 0.5356-1.033 1.0138 0 0.51647 0.44 1.0138 1.0138 1.0138 0.6504 0 1.033-0.53559 1.033-1.0138z"/><path d="m-59.4959 377.982c-0.6887 0.19128-1.033 0.84163-1.033 1.31984 0 0.42083 0.3252 0.8799 0.9565 0.8799 0.6694 0 1.3772-0.55472 1.3772-1.492 0-1.0138-1.0138-1.68329-2.1806-1.68329-1.0903 0-1.7981 0.82253-2.0468 1.16683-0.4782-0.80339-1.5493-1.16683-2.6397-1.16683-2.4101 0-3.7108 2.35278-3.7108 2.98401 0 0.2678 0.2869 0.2678 0.459 0.2678 0.2296 0 0.3635 0 0.44-0.24866 0.5547-1.74067 1.9319-2.31453 2.7162-2.31453 0.7269 0 1.0712 0.34431 1.0712 0.95642 0 0.36344-0.2678 1.41549-0.44 2.10411l-0.6503 2.62056c-0.2869 1.16683-0.9756 1.74067-1.6259 1.74067-0.096 0-0.5356 0-0.9182-0.28691 0.6886-0.19128 1.0329-0.84165 1.0329-1.31986 0-0.42081-0.3251-0.8799-0.9564-0.8799-0.6695 0-1.3772 0.55472-1.3772 1.49202 0 1.01379 1.0138 1.68328 2.1806 1.68328 1.0903 0 1.7981-0.82252 2.0467-1.16682 0.4782 0.80338 1.5494 1.16682 2.6397 1.16682 2.4102 0 3.7109-2.35277 3.7109-2.984 0-0.26781-0.2869-0.26781-0.4591-0.26781-0.2295 0-0.3634 0-0.4399 0.24867-0.5547 1.74067-1.932 2.31451-2.7162 2.31451-0.7269 0-1.0712-0.3443-1.0712-0.9564 0-0.40169 0.2487-1.4155 0.4208-2.12325 0.1339-0.49732 0.5739-2.29539 0.6695-2.60144 0.2869-1.14769 0.9564-1.74067 1.6259-1.74067 0.096 0 0.5356 0 0.9182 0.28693z"/><path d="m-53.2592 371.02c0.1071-0.22762 0.1205-0.33474 0.1205-0.42847 0-0.41509-0.3749-0.73645-0.79-0.73645-0.5088 0-0.6695 0.41509-0.7365 0.62933l-1.7674 5.79778c-0.013 0.0267-0.067 0.20085-0.067 0.21424 0 0.16067 0.4151 0.29457 0.5222 0.29457 0.094 0 0.1071-0.0267 0.2009-0.22763z"/><path d="m-52.6567 381.865c0-0.36152-0.027-0.37491-0.4017-0.37491-0.8569 0.84355-2.0754 0.85695-2.6244 0.85695v0.48203c0.3214 0 1.2051 0 1.9415-0.37491v6.82878c0 0.44187 0 0.61594-1.339 0.61594h-0.5088v0.48203c0.241-0.0128 1.888-0.0536 2.3834-0.0536 0.4151 0 2.1022 0.0402 2.3968 0.0536v-0.48203h-0.5088c-1.339 0-1.339-0.17407-1.339-0.61594z"/><path d="m-46.7202 390.167c0 0.73645-0.1339 1.59339-1.0444 2.45033-0.054 0.0536-0.094 0.0938-0.094 0.16068 0 0.0938 0.1071 0.18745 0.1875 0.18745 0.1874 0 1.3256-1.07118 1.3256-2.66456 0-0.83017-0.3214-1.45949-0.9373-1.45949-0.4419 0-0.7632 0.34813-0.7632 0.76322 0 0.42848 0.3079 0.77661 0.7766 0.77661 0.3213 0 0.5356-0.21424 0.549-0.21424z"/><path d="m-42.1938 382.12c0-0.3883-0.3214-0.76321-0.7766-0.76321-0.4017 0-0.7632 0.32136-0.7632 0.76321 0 0.48204 0.3883 0.77661 0.7632 0.77661 0.4284 0 0.7766-0.33473 0.7766-0.77661zm-2.0353 2.50389v0.48203c0.8436 0 0.9641 0.0803 0.9641 0.73645v3.48135c0 0.57576-0.1339 0.57576-1.0042 0.57576v0.48203c0.027 0 0.964-0.0536 1.4996-0.0536 0.4687 0 0.9507 0.0128 1.4193 0.0536v-0.48203c-0.7766 0-0.9105 0-0.9105-0.56237v-4.8605z"/><path d="m-33.8097 386.324c0-1.16491-0.5758-1.84779-2.0085-1.84779-1.098 0-1.8076 0.60255-2.1825 1.29882h-0.013v-1.29882l-1.9683 0.14736v0.48203c0.8971 0 1.0042 0.0938 1.0042 0.74984v3.46796c0 0.57576-0.1339 0.57576-1.0042 0.57576v0.48203c0.027 0 0.9641-0.0536 1.5264-0.0536 0.4954 0 1.4193 0.0402 1.5398 0.0536v-0.48203c-0.8703 0-1.0042 0-1.0042-0.57576v-2.41016c0-1.40594 1.1114-2.06204 1.9951-2.06204 0.9373 0 1.0578 0.73644 1.0578 1.41932v3.05288c0 0.57576-0.1339 0.57576-1.0043 0.57576v0.48203c0.027 0 0.9641-0.0536 1.5265-0.0536 0.4954 0 1.4193 0.0402 1.5398 0.0536v-0.48203c-0.8703 0-1.0042 0-1.0042-0.57576z"/><path d="m-28.4647 380.564c0 0.30605 0 0.70774 0.4017 0.70774 0.4208 0 0.4208-0.38256 0.4208-0.70774v-10.8649c0-0.30604 0-0.70774-0.4017-0.70774-0.4208 0-0.4208 0.38256-0.4208 0.70774z"/><path d="m-28.4647 392.041c0 0.30605 0 0.70775 0.4017 0.70775 0.4208 0 0.4208-0.38256 0.4208-0.70775v-10.8649c0-0.30605 0-0.70774-0.4017-0.70774-0.4208 0-0.4208 0.38256-0.4208 0.70774z"/></g><g><path d="m-78.918 306.248c0 0.30605 0 0.70774 0.4017 0.70774 0.4208 0 0.4208-0.38256 0.4208-0.70774v-10.8649c0-0.30604 0-0.70774-0.4017-0.70774-0.4208 0-0.4208 0.38256-0.4208 0.70774z"/><path d="m-78.918 317.725c0 0.30605 0 0.70775 0.4017 0.70775 0.4208 0 0.4208-0.38256 0.4208-0.70775v-10.8649c0-0.30605 0-0.70774-0.4017-0.70774-0.4208 0-0.4208 0.38256-0.4208 0.70774z"/><path d="m-67.9965 299.287c0-0.51646-0.44-1.0138-1.0138-1.0138-0.6504 0-1.033 0.5356-1.033 1.0138 0 0.51647 0.44 1.0138 1.0138 1.0138 0.6504 0 1.033-0.53559 1.033-1.0138z"/><path d="m-65.0628 303.666c-0.6887 0.19128-1.033 0.84163-1.033 1.31984 0 0.42083 0.3252 0.8799 0.9565 0.8799 0.6694 0 1.3772-0.55472 1.3772-1.492 0-1.0138-1.0138-1.68329-2.1806-1.68329-1.0903 0-1.7981 0.82253-2.0468 1.16683-0.4782-0.80339-1.5493-1.16683-2.6397-1.16683-2.4101 0-3.7108 2.35278-3.7108 2.98401 0 0.2678 0.2869 0.2678 0.459 0.2678 0.2296 0 0.3635 0 0.44-0.24866 0.5547-1.74067 1.9319-2.31453 2.7162-2.31453 0.7269 0 1.0712 0.34431 1.0712 0.95642 0 0.36344-0.2678 1.41549-0.44 2.10411l-0.6503 2.62056c-0.2869 1.16683-0.9756 1.74067-1.6259 1.74067-0.096 0-0.5356 0-0.9182-0.28691 0.6886-0.19128 1.0329-0.84165 1.0329-1.31986 0-0.42081-0.3251-0.8799-0.9564-0.8799-0.6695 0-1.3772 0.55472-1.3772 1.49202 0 1.01379 1.0138 1.68328 2.1806 1.68328 1.0903 0 1.7981-0.82252 2.0467-1.16682 0.4782 0.80338 1.5494 1.16682 2.6397 1.16682 2.4102 0 3.7109-2.35277 3.7109-2.984 0-0.26781-0.2869-0.26781-0.4591-0.26781-0.2295 0-0.3634 0-0.4399 0.24867-0.5547 1.74067-1.932 2.31451-2.7162 2.31451-0.7269 0-1.0712-0.3443-1.0712-0.9564 0-0.40169 0.2487-1.4155 0.4208-2.12325 0.1339-0.49732 0.5739-2.29539 0.6695-2.60144 0.2869-1.14769 0.9564-1.74067 1.6259-1.74067 0.096 0 0.5356 0 0.9182 0.28693z"/><path d="m-58.8261 296.704c0.1071-0.22762 0.1205-0.33474 0.1205-0.42847 0-0.41509-0.3749-0.73645-0.79-0.73645-0.5088 0-0.6695 0.41509-0.7365 0.62933l-1.7674 5.79778c-0.013 0.0267-0.067 0.20085-0.067 0.21424 0 0.16067 0.4151 0.29457 0.5222 0.29457 0.094 0 0.1071-0.0267 0.2009-0.22763z"/><path d="m-58.2236 307.549c0-0.36152-0.027-0.37491-0.4017-0.37491-0.8569 0.84355-2.0754 0.85695-2.6244 0.85695v0.48203c0.3214 0 1.2051 0 1.9415-0.37491v6.82878c0 0.44187 0 0.61594-1.339 0.61594h-0.5088v0.48203c0.241-0.0128 1.888-0.0536 2.3834-0.0536 0.4151 0 2.1022 0.0402 2.3968 0.0536v-0.48203h-0.5088c-1.339 0-1.339-0.17407-1.339-0.61594z"/><path d="m-52.2871 315.851c0 0.73645-0.1339 1.59339-1.0444 2.45033-0.054 0.0536-0.094 0.0938-0.094 0.16068 0 0.0938 0.1071 0.18745 0.1875 0.18745 0.1874 0 1.3256-1.07118 1.3256-2.66456 0-0.83017-0.3214-1.45949-0.9373-1.45949-0.4419 0-0.7632 0.34813-0.7632 0.76322 0 0.42848 0.3079 0.77661 0.7766 0.77661 0.3213 0 0.5356-0.21424 0.549-0.21424z"/><path d="m-47.7607 307.803c0-0.3883-0.3214-0.76321-0.7766-0.76321-0.4017 0-0.7632 0.32136-0.7632 0.76321 0 0.48204 0.3883 0.77661 0.7632 0.77661 0.4284 0 0.7766-0.33473 0.7766-0.77661zm-2.0353 2.50389v0.48203c0.8436 0 0.9641 0.0803 0.9641 0.73645v3.48135c0 0.57576-0.1339 0.57576-1.0042 0.57576v0.48203c0.027 0 0.964-0.0536 1.4996-0.0536 0.4687 0 0.9507 0.0128 1.4193 0.0536v-0.48203c-0.7766 0-0.9105 0-0.9105-0.56237v-4.8605z"/><path d="m-39.3766 312.008c0-1.16491-0.5758-1.84779-2.0085-1.84779-1.098 0-1.8076 0.60255-2.1825 1.29882h-0.013v-1.29882l-1.9683 0.14736v0.48203c0.8971 0 1.0042 0.0938 1.0042 0.74984v3.46796c0 0.57576-0.1339 0.57576-1.0042 0.57576v0.48203c0.027 0 0.9641-0.0536 1.5264-0.0536 0.4954 0 1.4193 0.0402 1.5398 0.0536v-0.48203c-0.8703 0-1.0042 0-1.0042-0.57576v-2.41016c0-1.40594 1.1114-2.06204 1.9951-2.06204 0.9373 0 1.0578 0.73644 1.0578 1.41932v3.05288c0 0.57576-0.1339 0.57576-1.0043 0.57576v0.48203c0.027 0 0.9641-0.0536 1.5265-0.0536 0.4954 0 1.4193 0.0402 1.5398 0.0536v-0.48203c-0.8703 0-1.0042 0-1.0042-0.57576z"/><path d="m-34.0316 306.248c0 0.30605 0 0.70774 0.4017 0.70774 0.4208 0 0.4208-0.38256 0.4208-0.70774v-10.8649c0-0.30604 0-0.70774-0.4017-0.70774-0.4208 0-0.4208 0.38256-0.4208 0.70774z"/><path d="m-34.0316 317.725c0 0.30605 0 0.70775 0.4017 0.70775 0.4208 0 0.4208-0.38256 0.4208-0.70775v-10.8649c0-0.30605 0-0.70774-0.4017-0.70774-0.4208 0-0.4208 0.38256-0.4208 0.70774z"/></g></g><g fill="#00f" stroke-linejoin="round" stroke-miterlimit="1e5"><g><path d="m66.9222 276.651c0-3.00314-1.7789-3.94042-3.1944-3.94042-2.6206 0-5.1455 2.73533-5.1455 5.43242 0 1.77893 1.1477 3.23269 3.0988 3.23269 1.205 0 2.5823-0.43995 4.036-1.60679 0.2487 1.01381 0.8799 1.60679 1.7407 1.60679 1.0138 0 1.6068-1.05207 1.6068-1.35811 0-0.13392-0.1148-0.19128-0.2296-0.19128-0.1339 0-0.1912 0.0574-0.2486 0.19128-0.3443 0.93728-1.0329 0.93728-1.0712 0.93728-0.593 0-0.593-1.492-0.593-1.95108 0-0.40169 0-0.43995 0.1913-0.66948 1.798-2.25714 2.1997-4.47602 2.1997-4.49516 0-0.0382-0.019-0.19128-0.2295-0.19128-0.1913 0-0.1913 0.0574-0.2869 0.4017-0.3443 1.20507-0.9756 2.65883-1.8746 3.78739zm-1.2816 2.62058c-1.6833 1.47288-3.1561 1.68328-3.9213 1.68328-1.1477 0-1.7215-0.86077-1.7215-2.08498 0-0.93728 0.4973-3.00314 1.1094-3.97869 0.8991-1.39635 1.932-1.75979 2.6015-1.75979 1.8937 0 1.8937 2.50581 1.8937 3.99781 0 0.70774 0 1.81718 0.038 2.14237z"/><path d="m76.0212 276.077c0 0.30605 0 0.70774 0.4017 0.70774 0.4208 0 0.4208-0.38256 0.4208-0.70774v-10.8649c0-0.30604 0-0.70774-0.4017-0.70774-0.4208 0-0.4208 0.38256-0.4208 0.70774z"/><path d="m76.0212 287.554c0 0.30605 0 0.70775 0.4017 0.70775 0.4208 0 0.4208-0.38256 0.4208-0.70775v-10.8649c0-0.30605 0-0.70774-0.4017-0.70774-0.4208 0-0.4208 0.38256-0.4208 0.70774z"/><path d="m86.9427 269.117c0-0.51646-0.44-1.0138-1.0138-1.0138-0.6504 0-1.033 0.5356-1.033 1.0138 0 0.51647 0.44 1.0138 1.0138 1.0138 0.6504 0 1.033-0.53559 1.033-1.0138z"/><path d="m89.8764 273.495c-0.6887 0.19128-1.033 0.84163-1.033 1.31984 0 0.42083 0.3252 0.8799 0.9565 0.8799 0.6694 0 1.3772-0.55472 1.3772-1.492 0-1.0138-1.0138-1.68329-2.1806-1.68329-1.0903 0-1.7981 0.82253-2.0468 1.16683-0.4782-0.80339-1.5493-1.16683-2.6397-1.16683-2.4101 0-3.7108 2.35278-3.7108 2.98401 0 0.2678 0.2869 0.2678 0.459 0.2678 0.2296 0 0.3635 0 0.44-0.24866 0.5547-1.74067 1.9319-2.31453 2.7162-2.31453 0.7269 0 1.0712 0.34431 1.0712 0.95642 0 0.36344-0.2678 1.41549-0.44 2.10411l-0.6503 2.62056c-0.2869 1.16683-0.9756 1.74067-1.6259 1.74067-0.096 0-0.5356 0-0.9182-0.28691 0.6886-0.19128 1.0329-0.84165 1.0329-1.31986 0-0.42081-0.3251-0.8799-0.9564-0.8799-0.6695 0-1.3772 0.55472-1.3772 1.49202 0 1.01379 1.0138 1.68328 2.1806 1.68328 1.0903 0 1.7981-0.82252 2.0467-1.16682 0.4782 0.80338 1.5494 1.16682 2.6397 1.16682 2.4102 0 3.7109-2.35277 3.7109-2.984 0-0.26781-0.2869-0.26781-0.4591-0.26781-0.2295 0-0.3634 0-0.4399 0.24867-0.5547 1.74067-1.932 2.31451-2.7162 2.31451-0.7269 0-1.0712-0.3443-1.0712-0.9564 0-0.40169 0.2487-1.4155 0.4208-2.12325 0.1339-0.49732 0.5739-2.29539 0.6695-2.60144 0.2869-1.14769 0.9564-1.74067 1.6259-1.74067 0.096 0 0.5356 0 0.9182 0.28693z"/><path d="m96.1131 266.534c0.1071-0.22762 0.1205-0.33474 0.1205-0.42847 0-0.41509-0.3749-0.73645-0.79-0.73645-0.5089 0-0.6695 0.41509-0.7365 0.62933l-1.7674 5.79778c-0.013 0.0267-0.067 0.20085-0.067 0.21424 0 0.16067 0.4151 0.29457 0.5222 0.29457 0.094 0 0.1071-0.0267 0.2009-0.22763z"/><path d="m98.9919 283.457h-0.4553c-0.04 0.29458-0.1741 1.08458-0.3481 1.21848-0.1071 0.0803-1.1382 0.0803-1.3256 0.0803h-2.4637c1.4059-1.24524 1.8745-1.62017 2.6779-2.24948 0.9909-0.79 1.9148-1.62016 1.9148-2.8922 0-1.62016-1.4194-2.611-3.1332-2.611-1.6604 0-2.7851 1.16491-2.7851 2.39676 0 0.68288 0.5757 0.74983 0.7096 0.74983 0.3214 0 0.7097-0.22762 0.7097-0.70965 0-0.24102-0.094-0.70966-0.79-0.70966 0.4151-0.95068 1.3256-1.24525 1.9549-1.24525 1.339 0 2.0353 1.0444 2.0353 2.12897 0 1.16492-0.8302 2.0888-1.2587 2.57084l-3.2269 3.18676c-0.1339 0.12048-0.1339 0.14736-0.1339 0.52221h5.5166z"/><path d="m102.652 285.68c0 0.73645-0.1339 1.59339-1.0444 2.45033-0.054 0.0536-0.094 0.0938-0.094 0.16068 0 0.0938 0.1071 0.18745 0.1875 0.18745 0.1874 0 1.3256-1.07118 1.3256-2.66456 0-0.83017-0.3214-1.45949-0.9373-1.45949-0.4419 0-0.7632 0.34813-0.7632 0.76322 0 0.42848 0.3079 0.77661 0.7766 0.77661 0.3213 0 0.5356-0.21424 0.549-0.21424z"/><path d="m107.177 277.633c0-0.3883-0.3214-0.76321-0.7766-0.76321-0.4017 0-0.7633 0.32136-0.7633 0.76321 0 0.48204 0.3883 0.77661 0.7633 0.77661 0.4284 0 0.7766-0.33473 0.7766-0.77661zm-2.0353 2.50389v0.48203c0.8436 0 0.9641 0.0803 0.9641 0.73645v3.48135c0 0.57576-0.1339 0.57576-1.0043 0.57576v0.48203c0.027 0 0.9641-0.0536 1.4997-0.0536 0.4686 0 0.9507 0.0128 1.4193 0.0536v-0.48203c-0.7766 0-0.9105 0-0.9105-0.56237v-4.8605z"/><path d="m115.563 281.837c0-1.16491-0.5758-1.84779-2.0085-1.84779-1.098 0-1.8076 0.60255-2.1825 1.29882h-0.013v-1.29882l-1.9683 0.14736v0.48203c0.8971 0 1.0042 0.0938 1.0042 0.74984v3.46796c0 0.57576-0.1339 0.57576-1.0042 0.57576v0.48203c0.027 0 0.9641-0.0536 1.5264-0.0536 0.4954 0 1.4193 0.0402 1.5398 0.0536v-0.48203c-0.8703 0-1.0042 0-1.0042-0.57576v-2.41016c0-1.40594 1.1114-2.06204 1.9951-2.06204 0.9373 0 1.0578 0.73644 1.0578 1.41932v3.05288c0 0.57576-0.1339 0.57576-1.0043 0.57576v0.48203c0.027 0 0.9641-0.0536 1.5265-0.0536 0.4954 0 1.4193 0.0402 1.5398 0.0536v-0.48203c-0.8703 0-1.0042 0-1.0042-0.57576z"/><path d="m120.906 276.077c0 0.30605 0 0.70774 0.4017 0.70774 0.4208 0 0.4208-0.38256 0.4208-0.70774v-10.8649c0-0.30604 0-0.70774-0.4017-0.70774-0.4208 0-0.4208 0.38256-0.4208 0.70774z"/><path d="m120.906 287.554c0 0.30605 0 0.70775 0.4017 0.70775 0.4208 0 0.4208-0.38256 0.4208-0.70775v-10.8649c0-0.30605 0-0.70774-0.4017-0.70774-0.4208 0-0.4208 0.38256-0.4208 0.70774z"/></g><g stroke-width=".625"><path d="m85.0828 355.248c0 0.30605 0 0.70774 0.4017 0.70774 0.4208 0 0.4208-0.38256 0.4208-0.70774v-10.8649c0-0.30604 0-0.70774-0.4017-0.70774-0.4208 0-0.4208 0.38256-0.4208 0.70774z"/><path d="m85.0828 366.725c0 0.30605 0 0.70775 0.4017 0.70775 0.4208 0 0.4208-0.38256 0.4208-0.70775v-10.8649c0-0.30605 0-0.70774-0.4017-0.70774-0.4208 0-0.4208 0.38256-0.4208 0.70774z"/><path d="m96.0043 348.287c0-0.51646-0.44-1.0138-1.0138-1.0138-0.6504 0-1.033 0.5356-1.033 1.0138 0 0.51647 0.44 1.0138 1.0138 1.0138 0.6504 0 1.033-0.53559 1.033-1.0138z"/><path d="m98.938 352.666c-0.6886 0.19128-1.0329 0.84163-1.0329 1.31984 0 0.42083 0.3251 0.8799 0.9564 0.8799 0.6695 0 1.3772-0.55472 1.3772-1.492 0-1.0138-1.0138-1.68329-2.1806-1.68329-1.0903 0-1.7981 0.82253-2.0467 1.16683-0.4783-0.80339-1.5494-1.16683-2.6397-1.16683-2.4102 0-3.7109 2.35278-3.7109 2.98401 0 0.2678 0.2869 0.2678 0.459 0.2678 0.2296 0 0.3635 0 0.44-0.24866 0.5547-1.74067 1.932-2.31453 2.7162-2.31453 0.7269 0 1.0712 0.34431 1.0712 0.95642 0 0.36344-0.2678 1.41549-0.44 2.10411l-0.6503 2.62056c-0.2869 1.16683-0.9756 1.74067-1.6259 1.74067-0.096 0-0.5356 0-0.9182-0.28691 0.6886-0.19128 1.033-0.84165 1.033-1.31986 0-0.42081-0.3252-0.8799-0.9565-0.8799-0.6695 0-1.3772 0.55472-1.3772 1.49202 0 1.01379 1.0138 1.68328 2.1806 1.68328 1.0903 0 1.7981-0.82252 2.0468-1.16682 0.4782 0.80338 1.5493 1.16682 2.6396 1.16682 2.4102 0 3.7109-2.35277 3.7109-2.984 0-0.26781-0.2869-0.26781-0.459-0.26781-0.2296 0-0.3635 0-0.44 0.24867-0.5547 1.74067-1.9319 2.31451-2.7162 2.31451-0.7269 0-1.0712-0.3443-1.0712-0.9564 0-0.40169 0.2487-1.4155 0.4208-2.12325 0.1339-0.49732 0.5739-2.29539 0.6695-2.60144 0.2869-1.14769 0.9564-1.74067 1.6259-1.74067 0.096 0 0.5356 0 0.9182 0.28693z"/><path d="m105.175 345.704c0.1071-0.22762 0.1205-0.33474 0.1205-0.42847 0-0.41509-0.3749-0.73645-0.79-0.73645-0.5088 0-0.6695 0.41509-0.7365 0.62933l-1.7674 5.79778c-0.013 0.0267-0.067 0.20085-0.067 0.21424 0 0.16067 0.4151 0.29457 0.5222 0.29457 0.094 0 0.1072-0.0267 0.2009-0.22763z"/><path d="m108.054 362.628h-0.4553c-0.04 0.29458-0.174 1.08458-0.3481 1.21848-0.1071 0.0803-1.1382 0.0803-1.3256 0.0803h-2.4637c1.4059-1.24524 1.8745-1.62017 2.6779-2.24948 0.9909-0.79 1.9148-1.62016 1.9148-2.8922 0-1.62016-1.4193-2.611-3.1332-2.611-1.6604 0-2.7851 1.16491-2.7851 2.39676 0 0.68288 0.5757 0.74983 0.7096 0.74983 0.3214 0 0.7097-0.22762 0.7097-0.70965 0-0.24102-0.094-0.70966-0.79-0.70966 0.4151-0.95068 1.3256-1.24525 1.9549-1.24525 1.339 0 2.0353 1.0444 2.0353 2.12897 0 1.16492-0.8302 2.0888-1.2587 2.57084l-3.2269 3.18676c-0.1339 0.12048-0.1339 0.14736-0.1339 0.52221h5.5166z"/><path d="m111.714 364.851c0 0.73645-0.1339 1.59339-1.0444 2.45033-0.054 0.0536-0.094 0.0938-0.094 0.16068 0 0.0938 0.1071 0.18745 0.1875 0.18745 0.1875 0 1.3256-1.07118 1.3256-2.66456 0-0.83017-0.3214-1.45949-0.9373-1.45949-0.4419 0-0.7632 0.34813-0.7632 0.76322 0 0.42848 0.3079 0.77661 0.7766 0.77661 0.3213 0 0.5356-0.21424 0.549-0.21424z"/><path d="m116.238 356.803c0-0.3883-0.3214-0.76321-0.7766-0.76321-0.4017 0-0.7633 0.32136-0.7633 0.76321 0 0.48204 0.3884 0.77661 0.7633 0.77661 0.4284 0 0.7766-0.33473 0.7766-0.77661zm-2.0353 2.50389v0.48203c0.8436 0 0.9641 0.0803 0.9641 0.73645v3.48135c0 0.57576-0.1339 0.57576-1.0042 0.57576v0.48203c0.027 0 0.964-0.0536 1.4996-0.0536 0.4687 0 0.9507 0.0128 1.4193 0.0536v-0.48203c-0.7766 0-0.9105 0-0.9105-0.56237v-4.8605z"/><path d="m124.624 361.008c0-1.16491-0.5758-1.84779-2.0085-1.84779-1.0979 0-1.8076 0.60255-2.1825 1.29882h-0.013v-1.29882l-1.9683 0.14736v0.48203c0.8971 0 1.0042 0.0938 1.0042 0.74984v3.46796c0 0.57576-0.1339 0.57576-1.0042 0.57576v0.48203c0.027 0 0.9641-0.0536 1.5264-0.0536 0.4955 0 1.4193 0.0402 1.5399 0.0536v-0.48203c-0.8704 0-1.0043 0-1.0043-0.57576v-2.41016c0-1.40594 1.1114-2.06204 1.9951-2.06204 0.9373 0 1.0578 0.73644 1.0578 1.41932v3.05288c0 0.57576-0.1339 0.57576-1.0042 0.57576v0.48203c0.027 0 0.964-0.0536 1.5264-0.0536 0.4954 0 1.4193 0.0402 1.5398 0.0536v-0.48203c-0.8703 0-1.0042 0-1.0042-0.57576z"/><path d="m129.968 355.248c0 0.30605 0 0.70774 0.4017 0.70774 0.4208 0 0.4208-0.38256 0.4208-0.70774v-10.8649c0-0.30604 0-0.70774-0.4017-0.70774-0.4208 0-0.4208 0.38256-0.4208 0.70774z"/><path d="m129.968 366.725c0 0.30605 0 0.70775 0.4017 0.70775 0.4208 0 0.4208-0.38256 0.4208-0.70775v-10.8649c0-0.30605 0-0.70774-0.4017-0.70774-0.4208 0-0.4208 0.38256-0.4208 0.70774z"/></g></g></g></svg>
