<?xml version="1.0" encoding="UTF-8"?>
<svg width="228.554" height="117.105" version="1.1" viewBox="0 0 228.554 117.1054" xmlns="http://www.w3.org/2000/svg">
 <defs>
  <marker id="marker4309" overflow="visible" orient="auto">
   <path transform="matrix(-.8 0 0 -.8 -10 0)" d="m0 0 5-5-17.5 5 17.5 5z" fill-rule="evenodd" stroke="#000" stroke-width="1pt"/>
  </marker>
  <marker id="Arrow1Mend" overflow="visible" orient="auto">
   <path transform="matrix(-.4 0 0 -.4 -4 0)" d="m0 0 5-5-17.5 5 17.5 5z" fill="#f00" fill-rule="evenodd" stroke="#f00" stroke-width="1pt"/>
  </marker>
  <marker id="marker7753" overflow="visible" orient="auto">
   <path transform="matrix(-.4 0 0 -.4 -4 0)" d="m0 0 5-5-17.5 5 17.5 5z" fill="#f00" fill-rule="evenodd" stroke="#f00" stroke-width="1pt"/>
  </marker>
 </defs>
 <g transform="translate(-2.86586 -254.474)">
  <g fill="none" shape-rendering="auto">
   <path d="m3.36586 345.817h225.613" color="#000000" color-rendering="auto" image-rendering="auto" marker-end="url(#marker4309)" solid-color="#000000" stroke="#000" style="isolation:auto;mix-blend-mode:normal"/>
   <path d="m14.1452 345.817h187.232" color="#000000" color-rendering="auto" image-rendering="auto" solid-color="#000000" stroke="#008000" stroke-width="2" style="isolation:auto;mix-blend-mode:normal"/>
   <path d="m12.869 297.363c68.6732-58.5422 137.346 38.5725 206.02 0" color="#000000" color-rendering="auto" image-rendering="auto" solid-color="#000000" stroke="#00f" stroke-width="2" style="isolation:auto;mix-blend-mode:normal"/>
   <g stroke="#000">
    <path d="m14.0756 340.725v9.8995" color="#000000" color-rendering="auto" image-rendering="auto" solid-color="#000000" style="isolation:auto;mix-blend-mode:normal"/>
    <path d="m9.68442 293.574 6.36922 7.57847" color="#000000" color-rendering="auto" image-rendering="auto" solid-color="#000000" style="isolation:auto;mix-blend-mode:normal"/>
    <path d="m201.347 340.725v9.8995" color="#000000" color-rendering="auto" image-rendering="auto" solid-color="#000000" style="isolation:auto;mix-blend-mode:normal"/>
    <path d="m216.508 293.023 4.7612 8.67935" color="#000000" color-rendering="auto" image-rendering="auto" solid-color="#000000" style="isolation:auto;mix-blend-mode:normal"/>
   </g>
   <path d="m83.083 345.817h31.2573" color="#000000" color-rendering="auto" image-rendering="auto" marker-end="url(#Arrow1Mend)" solid-color="#000000" stroke="#f00" stroke-width="2" style="isolation:auto;mix-blend-mode:normal"/>
   <path d="m110.153 287.846 29.4956 10.3454" color="#000000" color-rendering="auto" image-rendering="auto" marker-end="url(#marker7753)" solid-color="#000000" stroke="#f00" stroke-width="2" style="isolation:auto;mix-blend-mode:normal"/>
   <g stroke="#000">
    <path d="m83.1411 340.725v9.8995" color="#000000" color-rendering="auto" image-rendering="auto" solid-color="#000000" style="isolation:auto;mix-blend-mode:normal"/>
    <path d="m111.846 283.194-3.27649 9.34156" color="#000000" color-rendering="auto" image-rendering="auto" solid-color="#000000" style="isolation:auto;mix-blend-mode:normal"/>
    <path d="m117.789 340.725v9.8995" color="#000000" color-rendering="auto" image-rendering="auto" solid-color="#000000" style="isolation:auto;mix-blend-mode:normal"/>
    <path d="m144.542 294.662-3.2765 9.34156" color="#000000" color-rendering="auto" image-rendering="auto" solid-color="#000000" style="isolation:auto;mix-blend-mode:normal"/>
    <g stroke-dasharray="2, 2" stroke-width=".5">
     <path d="m83.1411 345.817 27.0669-57.9523" color="#000000" color-rendering="auto" image-rendering="auto" solid-color="#000000" style="isolation:auto;mix-blend-mode:normal"/>
     <path d="m142.918 299.291-25.1286 46.526" color="#000000" color-rendering="auto" image-rendering="auto" solid-color="#000000" style="isolation:auto;mix-blend-mode:normal"/>
     <path d="m14.0756 345.817-1.20656-48.454" color="#000000" color-rendering="auto" image-rendering="auto" solid-color="#000000" style="isolation:auto;mix-blend-mode:normal"/>
     <path d="m201.347 345.817 17.5413-48.454" color="#000000" color-rendering="auto" image-rendering="auto" solid-color="#000000" style="isolation:auto;mix-blend-mode:normal"/>
    </g>
   </g>
  </g>
  <g fill="#008000" style="font-variant-east_asian:normal">
   <path d="m97.5176 327.902c-2.24159 0.53799-3.98107 2.86925-3.98107 5.0391 0 1.72155 1.1477 3.01271 2.83337 3.01271 2.09814 0 3.58656-2.81544 3.58656-5.29015 0-1.63189-0.71731-2.52853-1.32703-3.3355-0.64557-0.80698-1.70361-2.15193-1.70361-2.94097 0-0.39453 0.35866-0.82491 0.98631-0.82491 0.53797 0 0.89664 0.23313 1.27323 0.48418 0.35865 0.21519 0.7173 0.44832 0.98629 0.44832 0.44832 0 0.71732-0.43038 0.71732-0.71731 0-0.39452-0.28694-0.44832-0.93251-0.59178-0.9325-0.19725-1.18356-0.19725-1.47049-0.19725-1.39875 0-2.04434 0.7711-2.04434 1.84707 0 0.96837 0.52005 1.9726 1.07597 3.06649zm0.2152 0.39454c0.44832 0.82489 0.9863 1.79326 0.9863 3.08441 0 1.18358-0.68145 4.17834-2.3492 4.17834-0.98629 0-1.72153-0.75318-1.72153-2.11606 0-1.12977 0.66351-4.50113 3.08443-5.14669z" style="font-variant-east_asian:normal"/>
   <path d="m109.562 326.772c0-1.18358-0.32279-3.67622-2.15193-3.67622-2.49266 0-5.2543 5.05703-5.2543 9.16364 0 1.68567 0.52005 3.67621 2.15194 3.67621 2.52852 0 5.25429-5.1467 5.25429-9.16363zm-5.50536 2.45677c0.30486-1.14769 0.66352-2.58231 1.38082-3.85554 0.48419-0.8787 1.1477-1.88293 1.95468-1.88293 0.8787 0 0.9863 1.14769 0.9863 2.16987 0 0.8787-0.14346 1.79327-0.57384 3.5686zm3.58656 0.57386c-0.19727 0.82491-0.57386 2.34919-1.25529 3.64035-0.62765 1.21942-1.3091 2.09813-2.0802 2.09813-0.59178 0-0.96837-0.52006-0.96837-2.1878 0-0.75317 0.10759-1.79326 0.57384-3.55068z" style="font-variant-east_asian:normal"/>
   <path d="m113.858 330.583c0-0.20084-0.15063-0.477-0.50211-0.477-0.33894 0-0.70298 0.32637-0.70298 0.6904 0 0.21341 0.1632 0.47702 0.50213 0.47702 0.36403 0 0.70296-0.35148 0.70296-0.69042zm-2.5608 6.37689c-0.0502 0.16318-0.11297 0.31383-0.11297 0.52722 0 0.58999 0.50211 1.06701 1.19253 1.06701 1.25529 0 1.80762-1.7323 1.80762-1.9206 0-0.16319-0.1632-0.16319-0.20085-0.16319-0.17574 0-0.18829 0.0753-0.23851 0.21339-0.28871 1.00424-0.84104 1.51891-1.33061 1.51891-0.25105 0-0.31381-0.16319-0.31381-0.43935 0-0.28872 0.0879-0.52723 0.20083-0.80339 0.12554-0.33893 0.26361-0.67785 0.4017-1.00424 0.11298-0.30125 0.56489-1.44358 0.61509-1.59421 0.0377-0.12555 0.0753-0.27617 0.0753-0.4017 0-0.58998-0.50211-1.067-1.19253-1.067-1.24274 0-1.82017 1.7072-1.82017 1.9206 0 0.16319 0.17574 0.16319 0.2134 0.16319 0.17574 0 0.18829-0.0627 0.22595-0.20085 0.32638-1.07955 0.87871-1.53146 1.34317-1.53146 0.20085 0 0.31381 0.10035 0.31381 0.43935 0 0.28872-0.0753 0.47702-0.38913 1.25529z" style="font-variant-east_asian:normal"/>
  </g>
  <g stroke-linejoin="round" stroke-miterlimit="1e5" stroke-width="1.5">
   <path d="m86.0473 357.942c0-1.18358-0.32278-3.67622-2.15193-3.67622-2.49265 0-5.25429 5.05703-5.25429 9.16364 0 1.68567 0.52005 3.67621 2.15193 3.67621 2.52852 0 5.25429-5.1467 5.25429-9.16363zm-5.50536 2.45677c0.30486-1.14769 0.66353-2.58231 1.38083-3.85554 0.48418-0.8787 1.14769-1.88293 1.95468-1.88293 0.8787 0 0.98629 1.14769 0.98629 2.16987 0 0.8787-0.14346 1.79326-0.57384 3.5686zm3.58656 0.57386c-0.19726 0.82491-0.57385 2.34919-1.25529 3.64035-0.62764 1.21942-1.30909 2.09812-2.0802 2.09812-0.59178 0-0.96837-0.52005-0.96837-2.18779 0-0.75316 0.1076-1.79326 0.57384-3.55068z"/>
   <path d="m90.343 361.753c0-0.20084-0.15063-0.477-0.50211-0.477-0.33894 0-0.70297 0.32637-0.70297 0.6904 0 0.21341 0.1632 0.47702 0.50212 0.47702 0.36404 0 0.70296-0.35148 0.70296-0.69042zm-2.5608 6.37689c-0.0502 0.16318-0.11297 0.31383-0.11297 0.52722 0 0.59 0.50212 1.06701 1.19254 1.06701 1.25529 0 1.80762-1.73231 1.80762-1.9206 0-0.16319-0.1632-0.16319-0.20085-0.16319-0.17574 0-0.1883 0.0753-0.23852 0.21339-0.2887 1.00424-0.84103 1.51891-1.3306 1.51891-0.25106 0-0.31382-0.16319-0.31382-0.43936 0-0.28871 0.0879-0.52721 0.20084-0.80338 0.12553-0.33892 0.26361-0.67785 0.4017-1.00424 0.11298-0.30126 0.56488-1.44358 0.61509-1.59421 0.0377-0.12555 0.0753-0.27617 0.0753-0.4017 0-0.58998-0.50211-1.067-1.19253-1.067-1.24273 0-1.82017 1.7072-1.82017 1.9206 0 0.16319 0.17575 0.16319 0.2134 0.16319 0.17574 0 0.1883-0.0627 0.22596-0.20085 0.32637-1.07955 0.8787-1.53146 1.34316-1.53146 0.20085 0 0.31382 0.10035 0.31382 0.43935 0 0.28872-0.0753 0.47702-0.38913 1.25529z"/>
   <path d="m228.283 357.942c0-1.18358-0.32278-3.67622-2.15193-3.67622-2.49265 0-5.25429 5.05703-5.25429 9.16364 0 1.68567 0.52005 3.67621 2.15193 3.67621 2.52852 0 5.25429-5.14671 5.25429-9.16363zm-5.50536 2.45677c0.30486-1.14769 0.66353-2.58231 1.38083-3.85554 0.48418-0.8787 1.14769-1.88293 1.95468-1.88293 0.8787 0 0.98629 1.14769 0.98629 2.16987 0 0.8787-0.14346 1.79326-0.57384 3.5686zm3.58656 0.57386c-0.19726 0.82491-0.57385 2.34919-1.25529 3.64035-0.62764 1.21942-1.30909 2.09812-2.0802 2.09812-0.59178 0-0.96837-0.52005-0.96837-2.18779 0-0.75317 0.1076-1.79327 0.57384-3.55068z"/>
   <path d="m120.696 357.942c0-1.18357-0.32279-3.67621-2.15193-3.67621-2.49266 0-5.2543 5.05702-5.2543 9.16363 0 1.68567 0.52005 3.67622 2.15194 3.67622 2.52852 0 5.25429-5.14671 5.25429-9.16364zm-5.50536 2.45678c0.30486-1.1477 0.66352-2.58231 1.38082-3.85554 0.48419-0.8787 1.1477-1.88294 1.95468-1.88294 0.8787 0 0.9863 1.1477 0.9863 2.16987 0 0.8787-0.14346 1.79327-0.57384 3.56861zm3.58656 0.57385c-0.19727 0.82491-0.57386 2.3492-1.25529 3.64035-0.62765 1.21943-1.3091 2.09813-2.0802 2.09813-0.59178 0-0.96837-0.52005-0.96837-2.1878 0-0.75316 0.10759-1.79326 0.57384-3.55068z"/>
   <path d="m124.991 361.753c0-0.20083-0.15063-0.477-0.50211-0.477-0.33894 0-0.70297 0.32637-0.70297 0.69041 0 0.2134 0.1632 0.47701 0.50212 0.47701 0.36404 0 0.70296-0.35148 0.70296-0.69042zm-2.5608 6.37689c-0.0502 0.16319-0.11297 0.31383-0.11297 0.52722 0 0.59 0.50212 1.06701 1.19254 1.06701 1.25529 0 1.80762-1.7323 1.80762-1.9206 0-0.16318-0.1632-0.16318-0.20085-0.16318-0.17574 0-0.1883 0.0753-0.23852 0.21339-0.2887 1.00423-0.84103 1.5189-1.3306 1.5189-0.25106 0-0.31382-0.16319-0.31382-0.43935 0-0.28872 0.0879-0.52722 0.20084-0.80339 0.12553-0.33892 0.26361-0.67785 0.4017-1.00423 0.11298-0.30126 0.56488-1.44359 0.61509-1.59422 0.0377-0.12555 0.0753-0.27616 0.0753-0.4017 0-0.58998-0.50211-1.06699-1.19253-1.06699-1.24273 0-1.82016 1.70719-1.82016 1.9206 0 0.16318 0.17574 0.16318 0.2134 0.16318 0.17574 0 0.18829-0.0627 0.22595-0.20085 0.32637-1.07955 0.8787-1.53145 1.34316-1.53145 0.20085 0 0.31382 0.10035 0.31382 0.43935 0 0.28872-0.0753 0.47701-0.38913 1.25529z"/>
   <path d="m131.79 366.761h3.8412c0.16318 0 0.46446 0 0.46446-0.30126 0-0.31383-0.28872-0.31383-0.46446-0.31383h-3.8412v-3.85375c0-0.16319 0-0.46445-0.30128-0.46445-0.31381 0-0.31381 0.28871-0.31381 0.46445v3.85375h-3.85375c-0.16319 0-0.46446 0-0.46446 0.30128 0 0.31381 0.28871 0.31381 0.46446 0.31381h3.85375v3.85376c0 0.16318 0 0.46446 0.30126 0.46446 0.31383 0 0.31383-0.28872 0.31383-0.46446z"/>
   <path d="m141.151 361.615c0-0.33893-0.0251-0.35148-0.37659-0.35148-0.80338 0.79083-1.94571 0.80338-2.46037 0.80338v0.45191c0.30127 0 1.12975 0 1.82017-0.35148v6.40198c0 0.41426 0 0.57744-1.25529 0.57744h-0.47701v0.45191c0.22594-0.012 1.76995-0.0503 2.23441-0.0503 0.38915 0 1.97082 0.0376 2.24699 0.0503v-0.45191h-0.47702c-1.25529 0-1.25529-0.16318-1.25529-0.57744z"/>
  </g>
  <g fill="#f00" shape-rendering="auto">
   <path d="m125.24 271.714c-2.24159 0.53799-3.98107 2.86924-3.98107 5.0391 0 1.72155 1.1477 3.0127 2.83337 3.0127 2.09814 0 3.58656-2.81544 3.58656-5.29015 0-1.63188-0.71731-2.52852-1.32703-3.33549-0.64557-0.80699-1.70361-2.15193-1.70361-2.94098 0-0.39453 0.35866-0.82491 0.98631-0.82491 0.53797 0 0.89664 0.23313 1.27323 0.48419 0.35865 0.21519 0.7173 0.44832 0.98629 0.44832 0.44832 0 0.71732-0.43038 0.71732-0.71732 0-0.39451-0.28694-0.44832-0.93251-0.59178-0.9325-0.19725-1.18356-0.19725-1.47049-0.19725-1.39875 0-2.04434 0.77111-2.04434 1.84707 0 0.96837 0.52005 1.97261 1.07597 3.0665zm0.2152 0.39453c0.44832 0.82489 0.9863 1.79326 0.9863 3.08442 0 1.18357-0.68145 4.17834-2.3492 4.17834-0.98629 0-1.72153-0.75318-1.72153-2.11607 0-1.12977 0.66351-4.50112 3.08443-5.14669z" color="#000000" color-rendering="auto" image-rendering="auto" solid-color="#000000" style="isolation:auto;mix-blend-mode:normal"/>
   <path d="m138.737 272.36c-0.64559 0.17933-0.96837 0.78903-0.96837 1.23735 0 0.39453 0.30486 0.82491 0.89664 0.82491 0.62764 0 1.29115-0.52005 1.29115-1.39875 0-0.95044-0.95043-1.57809-2.04433-1.57809-1.02216 0-1.68567 0.77112-1.9188 1.09391-0.44832-0.75318-1.45256-1.09391-2.47472-1.09391-2.25952 0-3.47896 2.20574-3.47896 2.79752 0 0.25105 0.26899 0.25105 0.43039 0.25105 0.21519 0 0.34073 0 0.41246-0.23311 0.52005-1.63188 1.8112-2.16987 2.54644-2.16987 0.68145 0 1.00424 0.32278 1.00424 0.89664 0 0.34072-0.25106 1.32702-0.41246 1.9726l-0.6097 2.45678c-0.269 1.0939-0.91458 1.63188-1.52429 1.63188-0.0897 0-0.50212 0-0.86077-0.26898 0.64557-0.17933 0.96837-0.78905 0.96837-1.23737 0-0.39451-0.30486-0.82491-0.89664-0.82491-0.62765 0-1.29116 0.52005-1.29116 1.39877 0 0.95043 0.95043 1.57807 2.04434 1.57807 1.02216 0 1.68567-0.7711 1.9188-1.09389 0.44832 0.75317 1.45255 1.09389 2.47471 1.09389 2.25953 0 3.47895-2.20572 3.47895-2.7975 0-0.25107-0.26898-0.25107-0.43038-0.25107-0.21519 0-0.34072 0-0.41245 0.23313-0.52005 1.63188-1.81121 2.16986-2.54645 2.16986-0.68145 0-1.00423-0.32279-1.00423-0.89663 0-0.37659 0.23313-1.32703 0.39451-1.99054 0.12554-0.46625 0.53799-2.15193 0.62765-2.43885 0.26899-1.07597 0.89664-1.63188 1.52428-1.63188 0.0897 0 0.50213 0 0.86078 0.26899z" color="#000000" color-rendering="auto" image-rendering="auto" solid-color="#000000" style="isolation:auto;mix-blend-mode:normal"/>
   <path d="m145.01 274.395c0-0.20083-0.15063-0.477-0.50211-0.477-0.33894 0-0.70297 0.32637-0.70297 0.69041 0 0.2134 0.1632 0.47701 0.50212 0.47701 0.36404 0 0.70296-0.35148 0.70296-0.69042zm-2.5608 6.37689c-0.0502 0.16319-0.11297 0.31383-0.11297 0.52722 0 0.59 0.50212 1.06701 1.19254 1.06701 1.25529 0 1.80762-1.7323 1.80762-1.9206 0-0.16318-0.1632-0.16318-0.20085-0.16318-0.17574 0-0.1883 0.0753-0.23852 0.21339-0.2887 1.00423-0.84103 1.5189-1.3306 1.5189-0.25106 0-0.31382-0.16319-0.31382-0.43935 0-0.28872 0.0879-0.52722 0.20084-0.80339 0.12553-0.33892 0.26361-0.67785 0.4017-1.00423 0.11298-0.30126 0.56488-1.44359 0.61509-1.59422 0.0377-0.12555 0.0753-0.27616 0.0753-0.4017 0-0.58998-0.50211-1.06699-1.19253-1.06699-1.24273 0-1.82016 1.70719-1.82016 1.9206 0 0.16318 0.17574 0.16318 0.2134 0.16318 0.17574 0 0.18829-0.0627 0.22595-0.20085 0.32637-1.07955 0.8787-1.53145 1.34316-1.53145 0.20085 0 0.31382 0.10035 0.31382 0.43935 0 0.28872-0.0753 0.47701-0.38913 1.25529z" color="#000000" color-rendering="auto" image-rendering="auto" solid-color="#000000" style="isolation:auto;mix-blend-mode:normal"/>
  </g>
  <g stroke-linejoin="round" stroke-miterlimit="1e5">
   <g stroke-width="1.5">
    <path d="m159.821 268.435c0-0.52005-0.43038-0.95044-0.95043-0.95044s-0.95044 0.43039-0.95044 0.95044 0.43039 0.95043 0.95044 0.95043 0.95043-0.43038 0.95043-0.95043z"/>
    <path d="m164.214 273.687c0.269 0 0.60972 0 0.60972-0.35865s-0.34072-0.35866-0.59178-0.35866h-10.7417c-0.25106 0-0.59179 0-0.59179 0.35866 0 0.35867 0.34073 0.35865 0.60973 0.35865zm0.0179 3.47895c0.25106 0 0.59178 0 0.59178-0.35865s-0.34072-0.35865-0.60972-0.35865h-10.7058c-0.269 0-0.60973 0-0.60973 0.35865s0.34073 0.35865 0.59179 0.35865z"/>
    <path d="m182.229 255.171c0-0.0179 0-0.19726-0.23313-0.19726-0.26899 0-1.9726 0.1614-2.27746 0.19726-0.14346 0.018-0.25106 0.10755-0.25106 0.34073 0 0.21519 0.1614 0.21519 0.43038 0.21519 0.86078 0 0.89664 0.12555 0.89664 0.30486l-0.0538 0.35865-1.07596 4.25007c-0.3228-0.66351-0.84285-1.1477-1.64982-1.1477-2.09813 0-4.32179 2.63612-4.32179 5.25429 0 1.68569 0.9863 2.86925 2.38505 2.86925 0.35866 0 1.2553-0.0717 2.33127-1.34496 0.14346 0.75318 0.7711 1.34496 1.63188 1.34496 0.62764 0 1.0401-0.41246 1.32702-0.98631 0.30486-0.64557 0.53797-1.73948 0.53797-1.77534 0-0.17933-0.16138-0.17933-0.21519-0.17933-0.17932 0-0.19726 0.0717-0.25105 0.32279-0.30486 1.16563-0.62765 2.22366-1.36289 2.22366-0.48418 0-0.53799-0.46625-0.53799-0.82491 0-0.43038 0.0359-0.5559 0.1076-0.86076zm-3.73002 10.1141c-0.0897 0.3228-0.0897 0.35866-0.35865 0.66352-0.78904 0.9863-1.52428 1.27322-2.02641 1.27322-0.89662 0-1.14769-0.9863-1.14769-1.68567 0-0.89664 0.57385-3.10238 0.98631-3.92727 0.55591-1.05804 1.36288-1.72155 2.0802-1.72155 1.16562 0 1.41669 1.47048 1.41669 1.57807 0 0.10755-0.0359 0.21521-0.0538 0.30486z"/>
    <path d="m191.886 260.228c-0.64558 0.17933-0.96837 0.78903-0.96837 1.23735 0 0.39453 0.30486 0.82491 0.89664 0.82491 0.62765 0 1.29116-0.52005 1.29116-1.39875 0-0.95044-0.95043-1.57809-2.04434-1.57809-1.02216 0-1.68567 0.77112-1.9188 1.09391-0.44832-0.75318-1.45255-1.09391-2.47471-1.09391-2.25953 0-3.47896 2.20574-3.47896 2.79752 0 0.25105 0.26899 0.25105 0.43038 0.25105 0.2152 0 0.34073 0 0.41246-0.23311 0.52005-1.63188 1.81121-2.16987 2.54645-2.16987 0.68145 0 1.00423 0.32278 1.00423 0.89664 0 0.34072-0.25105 1.32702-0.41245 1.9726l-0.60971 2.45678c-0.26899 1.0939-0.91458 1.63188-1.52428 1.63188-0.0897 0-0.50213 0-0.86078-0.26898 0.64557-0.17933 0.96837-0.78905 0.96837-1.23737 0-0.39451-0.30486-0.82491-0.89664-0.82491-0.62765 0-1.29116 0.52005-1.29116 1.39877 0 0.95043 0.95044 1.57807 2.04434 1.57807 1.02216 0 1.68567-0.7711 1.9188-1.09389 0.44832 0.75317 1.45256 1.09389 2.47472 1.09389 2.25952 0 3.47895-2.20572 3.47895-2.7975 0-0.25107-0.26898-0.25107-0.43038-0.25107-0.21519 0-0.34073 0-0.41246 0.23313-0.52005 1.63188-1.8112 2.16986-2.54644 2.16986-0.68145 0-1.00424-0.32279-1.00424-0.89663 0-0.37659 0.23313-1.32703 0.39452-1.99054 0.12553-0.46625 0.53799-2.15193 0.62764-2.43885 0.269-1.07597 0.89664-1.63188 1.52429-1.63188 0.0897 0 0.50212 0 0.86077 0.26899z"/>
   </g>
   <rect x="172.976" y="274.709" width="21.152" height=".717271"/>
   <g stroke-width="1.5">
    <path d="m183.679 279.604c0-0.0179 0-0.19727-0.23313-0.19727-0.269 0-1.97261 0.1614-2.27747 0.19727-0.14346 0.018-0.25105 0.10755-0.25105 0.34072 0 0.21519 0.1614 0.21519 0.43038 0.21519 0.86077 0 0.89664 0.12555 0.89664 0.30486l-0.0538 0.35865-1.07597 4.25007c-0.3228-0.66351-0.84285-1.14769-1.64982-1.14769-2.09812 0-4.32178 2.63611-4.32178 5.25429 0 1.68568 0.98629 2.86924 2.38504 2.86924 0.35867 0 1.25531-0.0717 2.33127-1.34496 0.14346 0.75318 0.77111 1.34496 1.63188 1.34496 0.62765 0 1.0401-0.41245 1.32702-0.98631 0.30486-0.64557 0.53798-1.73947 0.53798-1.77534 0-0.17932-0.16139-0.17932-0.21519-0.17932-0.17933 0-0.19727 0.0717-0.25106 0.32278-0.30486 1.16564-0.62764 2.22366-1.36288 2.22366-0.48419 0-0.53799-0.46624-0.53799-0.82491 0-0.43038 0.0359-0.5559 0.10759-0.86076zm-3.73002 10.1141c-0.0897 0.3228-0.0897 0.35867-0.35865 0.66353-0.78905 0.98629-1.52429 1.27321-2.02641 1.27321-0.89663 0-1.1477-0.98629-1.1477-1.68567 0-0.89664 0.57386-3.10237 0.98631-3.92727 0.55592-1.05804 1.36289-1.72155 2.0802-1.72155 1.16562 0 1.41669 1.47048 1.41669 1.57808 0 0.10755-0.0359 0.2152-0.0538 0.30486z"/>
    <path d="m191.884 282.886c0-1.18358-0.32278-3.67622-2.15193-3.67622-2.49265 0-5.25429 5.05703-5.25429 9.16364 0 1.68567 0.52005 3.67621 2.15193 3.67621 2.52852 0 5.25429-5.14671 5.25429-9.16363zm-5.50536 2.45677c0.30486-1.14769 0.66353-2.58231 1.38083-3.85554 0.48418-0.8787 1.14769-1.88293 1.95468-1.88293 0.8787 0 0.98629 1.14769 0.98629 2.16987 0 0.8787-0.14346 1.79326-0.57384 3.5686zm3.58656 0.57386c-0.19726 0.82491-0.57385 2.34919-1.25529 3.64035-0.62764 1.21942-1.30909 2.09812-2.0802 2.09812-0.59178 0-0.96837-0.52005-0.96837-2.18779 0-0.75317 0.1076-1.79327 0.57384-3.55068z"/>
    <path d="m201.014 271.714c-2.24158 0.53799-3.98106 2.86924-3.98106 5.0391 0 1.72155 1.1477 3.0127 2.83337 3.0127 2.09814 0 3.58656-2.81544 3.58656-5.29015 0-1.63188-0.71732-2.52852-1.32704-3.33549-0.64557-0.80699-1.70361-2.15193-1.70361-2.94098 0-0.39453 0.35867-0.82491 0.98631-0.82491 0.53798 0 0.89664 0.23313 1.27323 0.48419 0.35865 0.21519 0.7173 0.44832 0.9863 0.44832 0.44832 0 0.71731-0.43038 0.71731-0.71732 0-0.39451-0.28693-0.44832-0.9325-0.59178-0.93251-0.19725-1.18356-0.19725-1.4705-0.19725-1.39875 0-2.04433 0.77111-2.04433 1.84707 0 0.96837 0.52005 1.97261 1.07596 3.0665zm0.21521 0.39453c0.44832 0.82489 0.98629 1.79326 0.98629 3.08442 0 1.18357-0.68145 4.17834-2.34919 4.17834-0.9863 0-1.72154-0.75318-1.72154-2.11607 0-1.12977 0.66351-4.50112 3.08444-5.14669z"/>
    <path d="m213.058 270.585c0-1.18357-0.32279-3.67621-2.15193-3.67621-2.49266 0-5.2543 5.05702-5.2543 9.16363 0 1.68567 0.52005 3.67622 2.15194 3.67622 2.52852 0 5.25429-5.14671 5.25429-9.16364zm-5.50536 2.45678c0.30486-1.1477 0.66352-2.58231 1.38082-3.85554 0.48419-0.8787 1.1477-1.88294 1.95468-1.88294 0.8787 0 0.9863 1.1477 0.9863 2.16987 0 0.8787-0.14346 1.79327-0.57384 3.56861zm3.58656 0.57385c-0.19727 0.82491-0.57386 2.3492-1.25529 3.64035-0.62765 1.21943-1.3091 2.09813-2.0802 2.09813-0.59178 0-0.96837-0.52005-0.96837-2.1878 0-0.75316 0.10759-1.79326 0.57384-3.55068z"/>
    <path d="m217.352 274.395c0-0.20083-0.15063-0.477-0.50211-0.477-0.33894 0-0.70298 0.32637-0.70298 0.69041 0 0.2134 0.1632 0.47701 0.50213 0.47701 0.36403 0 0.70296-0.35148 0.70296-0.69042zm-2.5608 6.37689c-0.0502 0.16319-0.11297 0.31383-0.11297 0.52722 0 0.59 0.50211 1.06701 1.19253 1.06701 1.25529 0 1.80762-1.7323 1.80762-1.9206 0-0.16318-0.1632-0.16318-0.20085-0.16318-0.17574 0-0.18829 0.0753-0.23851 0.21339-0.28871 1.00423-0.84104 1.5189-1.33061 1.5189-0.25105 0-0.31381-0.16319-0.31381-0.43935 0-0.28872 0.0879-0.52722 0.20083-0.80339 0.12554-0.33892 0.26361-0.67785 0.4017-1.00423 0.11298-0.30126 0.56489-1.44359 0.61509-1.59422 0.0377-0.12555 0.0753-0.27616 0.0753-0.4017 0-0.58998-0.50211-1.06699-1.19253-1.06699-1.24274 0-1.82017 1.70719-1.82017 1.9206 0 0.16318 0.17574 0.16318 0.2134 0.16318 0.17574 0 0.18829-0.0627 0.22595-0.20085 0.32638-1.07955 0.87871-1.53145 1.34317-1.53145 0.20085 0 0.31381 0.10035 0.31381 0.43935 0 0.28872-0.0753 0.47701-0.38913 1.25529z"/>
   </g>
  </g>
 </g>
</svg>
