<?xml version="1.0" encoding="UTF-8"?>
<svg width="188.143" height="121.46" version="1.1" viewBox="0 0 188.14174 121.4592" xmlns="http://www.w3.org/2000/svg" xmlns:xlink="http://www.w3.org/1999/xlink">
 <defs>
  <marker id="Arrow1Mend" overflow="visible" orient="auto">
   <path transform="matrix(-.4 0 0 -.4 -4 0)" d="m0 0 5-5-17.5 5 17.5 5z" fill-rule="evenodd" stroke="#000" stroke-width="1pt"/>
  </marker>
  <symbol id="symbol5295">
   <path d="m154.151 54.7205v-33.5197" fill="none" marker-end="url(#Arrow1Mend)" stroke="#000" stroke-width="1.99999"/>
   <path d="m159.736 60.3471h-5.20282v-5.20282c1.33895 0.09563 2.62055 0.669481 3.57694 1.62588 0.95641 0.956406 1.53025 2.23797 1.62588 3.57693zm-10.0805-4.11253c-1.20506 1.18594-1.85543 2.81182-1.85543 4.4951s0.65037 3.30915 1.85543 4.49509c1.18593 1.18594 2.81182 1.85542 4.49509 1.85542s3.30915-0.669483 4.49508-1.85542c1.18595-1.18594 1.85543-2.81183 1.85543-4.49509s-0.66948-3.30916-1.85543-4.4951c-1.18593-1.18594-2.81182-1.85542-4.49508-1.85542-1.68325 0-3.30916 0.669481-4.49509 1.85542zm4.87765 10.0805v-5.20283h5.20282c-0.0957 1.33896-0.66949 2.62054-1.62588 3.57695-0.95638 0.9564-2.23799 1.53024-3.57694 1.62588zm-5.96795-5.20283h5.20282v5.20283c-1.33895-0.09565-2.62054-0.669483-3.57694-1.62588-0.95638-0.956403-1.53025-2.23799-1.62588-3.57695zm5.20282-5.96795v5.20282h-5.20282c0.0957-1.33896 0.66949-2.62053 1.62588-3.57693 0.95641-0.956404 2.23799-1.53025 3.57694-1.62588z" stroke-linejoin="round" stroke-miterlimit="1e5" stroke-width="1.59998"/>
  </symbol>
  <symbol id="symbol4917">
   <path d="m126.997 80.6931c1.56849-0.516457 2.67792-1.85542 2.67792-3.36653 0-1.56849-1.68325-2.63966-3.51956-2.63966-1.93192 0-3.38566 1.14768-3.38566 2.6014 0 0.631223 0.42083 0.994659 0.97553 0.994659 0.59297 0 0.97553-0.420812 0.97553-0.975523 0-0.956403-0.89902-0.956403-1.18594-0.956403 0.59297-0.937284 1.85542-1.18594 2.54403-1.18594 0.78425 0 1.83631 0.42081 1.83631 2.14234 0 0.229533-0.0382 1.33896-0.5356 2.1806-0.57384 0.918132-1.2242 0.975523-1.70239 0.994643-0.15296 0.01914-0.61209 0.05739-0.746 0.05739-0.15295 0.01912-0.28692 0.03826-0.28692 0.229533 0 0.210413 0.13392 0.210413 0.45908 0.210413h0.84161c1.56852 0 2.27625 1.3007 2.27625 3.17525 0 2.6014-1.31984 3.15612-2.16146 3.15612-0.82251 0-2.25711-0.325175-2.92659-1.45373 0.66948 0.09565 1.26245-0.325174 1.26245-1.05204 0-0.688599-0.51646-1.07117-1.07117-1.07117-0.45907 0-1.07116 0.267789-1.07116 1.10943 0 1.74065 1.7789 3.0031 3.86384 3.0031 2.33362 0 4.07428-1.74065 4.07428-3.6917 0-1.56851-1.20506-3.06049-3.19438-3.46218z" fill="#f00" stroke-linejoin="round" stroke-miterlimit="1e5" stroke-width="1.59998"/>
   <path d="m139.777 81.3052c0-1.53025-0.0957-3.06049-0.76513-4.47596-0.8799-1.8363-2.44839-2.14234-3.25177-2.14234-1.14767 0-2.54402 0.497321-3.32827 2.27622-0.61209 1.31984-0.70774 2.81182-0.70774 4.34207 0 1.43459 0.0765 3.15612 0.86076 4.60985 0.82251 1.54937 2.21885 1.93193 3.15613 1.93193 1.03292 0 2.48664-0.401689 3.32828-2.21886 0.61209-1.31982 0.70774-2.81182 0.70774-4.32292zm-4.03602 6.12096c-0.74598 0-1.87455-0.4782-2.21885-2.3145-0.21042-1.14768-0.21042-2.90745-0.21042-4.03601 0-1.22419 0-2.48664 0.15296-3.51955 0.36344-2.27623 1.79805-2.44838 2.27624-2.44838 0.63123 0 1.89369 0.344298 2.25711 2.23799 0.19128 1.07117 0.19128 2.52489 0.19128 3.72995 0 1.4346 0 2.73531-0.2104 3.9595-0.28693 1.81717-1.37722 2.39101-2.23799 2.39101z" fill="#f00" stroke-linejoin="round" stroke-miterlimit="1e5" stroke-width="1.59998"/>
   <path d="m145.722 85.9724c0 0.86076-0.21041 0.86076-1.49197 0.86076v0.592969c0.63121-0.01914 1.53023-0.05739 2.08495-0.05739 0.57383 0 1.33896 0.01914 2.10408 0.05739v-0.592969c-1.28158 0-1.49199 0-1.49199-0.86076v-1.97019l1.22418-1.05204c1.47287 2.02757 2.27624 3.09874 2.27624 3.44304 0 0.363431-0.32516 0.439944-0.6886 0.439944v0.592969c0.5356-0.01914 1.66413-0.05739 2.06583-0.05739 0.55471 0 1.10941 0.01914 1.66413 0.05739v-0.592969c-0.70774 0-1.12854 0-1.85541-1.01378l-2.42927-3.42392c-0.0192-0.03826-0.11472-0.153023-0.11472-0.210415 0-0.07651 1.35809-1.22419 1.54937-1.37721 1.20508-0.975523 2.00844-1.01378 2.41013-1.03292v-0.592967c-0.5547 0.05739-0.80337 0.05739-1.33895 0.05739-0.68862 0-1.87455-0.03826-2.14234-0.05739v0.592967c0.36344 0.01914 0.55472 0.229535 0.55472 0.478202 0 0.382572-0.26779 0.612105-0.42082 0.74599l-2.69705 2.33362v-9.18145l-2.75443 0.210413v0.592969c1.33895 0 1.49197 0.133903 1.49197 1.07117z" fill="#f00" stroke-linejoin="round" stroke-miterlimit="1e5" stroke-width="1.59998"/>
   <path d="m155.856 80.8461v5.12631c0 0.86076-0.2104 0.86076-1.49198 0.86076v0.592969c0.66947-0.01914 1.645-0.05739 2.16146-0.05739 0.49732 0 1.49199 0.03826 2.14234 0.05739v-0.592969c-1.28158 0-1.49198 0-1.49198-0.86076v-3.51955c0-1.98932 1.35807-3.06049 2.58227-3.06049 1.20507 0 1.41548 1.03292 1.41548 2.1232v4.45683c0 0.86076-0.21041 0.86076-1.49199 0.86076v0.592969c0.66949-0.01914 1.64502-0.05739 2.16148-0.05739 0.49732 0 1.49197 0.03826 2.14232 0.05739v-0.592969c-1.28156 0-1.49198 0-1.49198-0.86076v-3.51955c0-1.98932 1.35809-3.06049 2.58229-3.06049 1.20507 0 1.41546 1.03292 1.41546 2.1232v4.45683c0 0.86076-0.21039 0.86076-1.49197 0.86076v0.592969c0.66947-0.01914 1.645-0.05739 2.16146-0.05739 0.49734 0 1.49199 0.03826 2.14234 0.05739v-0.592969c-0.99467 0-1.47287 0-1.49199-0.573839v-3.65345c0-1.64502 0-2.23799-0.59296-2.92659-0.26779-0.32518-0.89902-0.707734-2.00844-0.707734-1.60677 0-2.4484 1.14768-2.77356 1.87454-0.26781-1.66414-1.68329-1.87454-2.54403-1.87454-1.39636 0-2.29536 0.8225-2.83096 2.00844v-2.00844l-2.69704 0.210397v0.592967c1.33897 0 1.49198 0.133903 1.49198 1.07117z" fill="#f00" stroke-linejoin="round" stroke-miterlimit="1e5" stroke-width="1.59998"/>
   <path d="m178.029 73.807c0.0957-0.248669 0.0957-0.325178 0.0957-0.344298 0-0.210413-0.17215-0.382572-0.38256-0.382572-0.13392 0-0.26779 0.05739-0.32518 0.172159l-6.63741 18.229c-0.0957 0.248653-0.0957 0.325163-0.0957 0.344299 0 0.210413 0.17214 0.382556 0.38255 0.382556 0.24866 0 0.30605-0.133887 0.42082-0.459066z" fill="#f00" stroke-linejoin="round" stroke-miterlimit="1e5" stroke-width="1.59998"/>
   <path d="m183.14 83.7153c0.42083 0.07651 1.98933 0.382554 1.98933 1.75977 0 0.975533-0.66948 1.74065-2.16147 1.74065-1.60676 0-2.29536-1.0903-2.65878-2.71618-0.0574-0.248669-0.0765-0.325181-0.26781-0.325181-0.24866 0-0.24866 0.133904-0.24866 0.478202v2.5249c0 0.325176 0 0.459072 0.2104 0.459072 0.0957 0 0.11472-0.01913 0.47821-0.382562 0.0382-0.03826 0.0382-0.07651 0.38256-0.439943 0.84164 0.803378 1.7024 0.822505 2.10408 0.822505 2.19971 0 3.07961-1.28158 3.07961-2.65879 0-1.0138-0.57384-1.58763-0.80339-1.81716-0.63121-0.612103-1.3772-0.765124-2.18059-0.918147-1.07116-0.210413-2.35274-0.459066-2.35274-1.56849 0-0.669494 0.49733-1.45374 2.14234-1.45374 2.1041 0 2.19973 1.72153 2.23799 2.3145 0.0192 0.172142 0.19126 0.172142 0.22951 0.172142 0.24867 0 0.24867-0.09563 0.24867-0.459066v-1.93193c0-0.325178 0-0.459081-0.21041-0.459081-0.0957 0-0.13392 0-0.38254 0.229548-0.0574 0.07651-0.24867 0.248653-0.32518 0.306045-0.72686-0.535593-1.51113-0.535593-1.79804-0.535593-2.33362 0-3.06048 1.28158-3.06048 2.35275 0 0.66948 0.30605 1.20507 0.82251 1.62588 0.61209 0.497321 1.14767 0.612103 2.52488 0.879892z" fill="#f00" stroke-linejoin="round" stroke-miterlimit="1e5" stroke-width="1.59998"/>
  </symbol>
 </defs>
 <g stroke-linejoin="round">
  <path d="m40.9371 32.6613c10.0787-19.0396 30.0913-32.0115 53.1338-32.0115 31.14 0 56.7466 23.691 59.7792 54.0324m-1.5e-4 12.0965c-0.23272 2.32771-0.59829 4.61627-1.08904 6.858m-7.41077 18.4148c-10.5581 17.2486-29.5746 28.758-51.2793 28.758-31.1308 0-56.7316-23.6771-59.7765-54.0056m-0.01379-12.0094c0.246465-2.51336 0.647806-4.98128 1.19435-7.39408" fill="none" stroke="#000" stroke-dasharray="1.79998936, 1.79998936" stroke-width=".299998"/>
  <path d="m99.6563 60.7296c0 1.49198-0.592973 2.90745-1.62588 3.9595-1.05204 1.05204-2.48666 1.62588-3.9595 1.62588-1.49201 0-2.90747-0.573842-3.95951-1.62588-1.05203-1.05204-1.62588-2.46752-1.62588-3.9595s0.573836-2.90747 1.62588-3.95951c1.05206-1.05204 2.46751-1.62588 3.95951-1.62588 1.47284 0 2.90745 0.573834 3.9595 1.62588 1.03291 1.05204 1.62588 2.46751 1.62588 3.95951zm-10.0805-4.4951c-1.20505 1.18594-1.85541 2.81182-1.85541 4.4951s0.650365 3.30915 1.85541 4.49509c1.18594 1.18594 2.81182 1.85542 4.49511 1.85542 1.68327 0 3.30913-0.669483 4.49508-1.85542 1.18594-1.18594 1.85542-2.81183 1.85542-4.49509s-0.669471-3.30916-1.85542-4.4951c-1.18594-1.18594-2.81182-1.85542-4.49508-1.85542-1.68327 0-3.30916 0.669481-4.49511 1.85542zm4.49511 3.17526c-0.344318 0-0.68862 0.153023-0.937291 0.382556-0.229534 0.248669-0.382557 0.592969-0.382557 0.937285 0 0.344315 0.152959 0.688599 0.382557 0.937268 0.248671 0.229533 0.592973 0.382556 0.937291 0.382556s0.688588-0.153023 0.918122-0.382556c0.248671-0.248669 0.382574-0.592969 0.382574-0.937268 0-0.3443-0.133919-0.688616-0.382574-0.937285-0.229534-0.229533-0.57382-0.382556-0.918122-0.382556z" stroke-miterlimit="1e5" stroke-width="1.59998"/>
  <g stroke-miterlimit="1e5" stroke-width=".999994" aria-label="太陽">
   <path d="m94.1002 51.1708-0.709633 0.787758q-1.7513-0.97005-3.22916-2.72135-1.47786-1.75781-2.20702-3.84114-0.507812 2.41536-2.11588 4.12108-1.60807 1.70572-3.83463 2.45442l-0.390624-0.742186q2.12239-0.761717 3.6914-2.59765 1.56901-1.84244 1.84244-4.15364h-5.16926v-0.826821h5.33202v-3.19661h1.11328v3.19661h5.41665v0.826821h-5.24738q0.546873 1.85546 1.99218 3.71744 1.45182 1.86197 3.51562 2.97525zm-4.43358-0.09115-0.80729 0.664061q-0.592446-0.677082-2.29817-2.10937l0.709634-0.65104q1.28906 1.04166 2.39583 2.09635z"/>
   <path d="m98.0716 44.3088q1.0612 1.62109 1.0612 2.99478v0.03906q0 0.781248-0.201823 1.32161-0.201822 0.533853-0.572915 0.774738-0.371093 0.234374-1.08073 0.234374h-0.266927l-0.195312-0.781248h0.143229q0.09766 0.0065 0.149739 0.0065 0.423176 0 0.631509-0.09115 0.214843-0.09114 0.358072-0.384113 0.149739-0.292968 0.149739-1.03515 0-0.761717-0.33203-1.64062-0.32552-0.885414-0.677082-1.28906-0.01953-0.02604-0.01953-0.104166 0-0.05859 0.0065-0.08464 0.260416-0.638019 0.559894-1.56901t0.299478-1.1914h-1.58202v10.651h-0.924477v-11.3541h3.5677l0.104166 0.16276q-0.117187 0.501301-0.546874 1.74479-0.429686 1.23698-0.631508 1.59505zm2.07682 0.436197v-3.93879h6.32811v3.93879zm0.98307-2.31119h4.37499v-0.963539h-4.37499zm4.37499 0.63802h-4.37499v0.996091h4.37499zm-6.1979 8.71743-0.507812-0.501301q2.13542-1.49088 3.22916-3.13801h-1.29557q-0.48828 0.559894-1.19791 1.13932l-0.501301-0.462239q1.08073-0.930987 1.92057-2.38281h-1.3737v-0.774738h7.65623v0.774738h-5.29295q-0.22136 0.403645-0.63151 0.97005h5.52733v0.48828q0 1.39974-0.11068 2.25911-0.11067 0.859373-0.27343 1.14583-0.15625 0.279947-0.4362 0.455728-0.27344 0.175781-0.54036 0.240885-0.26693 0.0651-0.88542 0.0651-0.33854 0-0.76172-0.0065l-0.16276-0.8138h0.98307q0.79427 0 1.00912-0.774737 0.22135-0.774738 0.22135-2.01171 0-0.149739-7e-3 -0.312499h-0.6901q-1.00912 2.27213-3.1901 3.83463l-0.5664-0.47526q1.92707-1.52994 2.819-3.35937h-1.24349q-0.59244 1.01562-1.73176 2.09635-1.13932 1.08073-1.96614 1.54296z"/>
  </g>
 </g>
 <use width="100%" height="100%" xlink:href="#symbol5295"/>
 <use transform="matrix(1 0 0 -1 -120.16 121.459)" width="100%" height="100%" xlink:href="#symbol5295"/>
 <use width="100%" height="100%" xlink:href="#symbol4917"/>
 <use transform="translate(-120.16 -43.8293)" width="100%" height="100%" xlink:href="#symbol4917"/>
</svg>
