<?xml version="1.0" encoding="UTF-8"?>
<svg width="189.901" height="195.773" version="1.1" viewBox="0 0 189.90147 195.77289" xmlns="http://www.w3.org/2000/svg"><g transform="translate(43.5222 -200.855)"><g fill="#008000"><g stroke-linejoin="round" stroke-miterlimit="1e5" stroke-width="1.25"><path d="m-32.6357 386.052-6.03636 6.03636 1.08752 0.46608-5.12689 2.95184 2.95184-5.12689 0.46608 1.08753 6.03636-6.03636 0.62144 0.62144" clip-path="url(#pffe454a974)"/><path d="m-22.5109 387.313-5.54652 4.15989 1.01068 0.61519-5.49281 2.19713 3.64723-4.65791 0.307597 1.14251 5.54652-4.15989 0.52731 0.70308" clip-path="url(#pffe454a974)"/><path d="m-12.4062 388.575-5.0486 2.5243 0.884325 0.78607-5.79725 1.1791 4.42163-3.93034 0.09826 1.1791 5.0486-2.52429 0.393033 0.78606" clip-path="url(#pffe454a974)"/><path d="m-2.32424 389.829-4.64934 1.16234 0.692745 0.95918-5.91498-0.10657 5.16895-2.87756-0.159864 1.17234 4.64934-1.16234 0.213152 0.85261" clip-path="url(#pffe454a974)"/><path d="m7.74106 391.063h-4.4919l0.439425 1.09856-5.71252-1.53799 5.71252-1.53799-0.439425 1.09856h4.4919v0.87886" clip-path="url(#pffe454a974)"/><path d="m17.8064 392.27-4.64934-1.16233 0.159863 1.17233-5.16895-2.87755 5.91498-0.10658-0.692745 0.95919 4.64934 1.16233-0.213152 0.85261" clip-path="url(#pffe454a974)"/><path d="m27.8883 393.458-5.0486-2.52429-0.09826 1.1791-4.42163-3.93034 5.79725 1.1791-0.884325 0.78607 5.0486 2.5243-0.393032 0.78606" clip-path="url(#pffe454a974)"/><path d="m37.993 394.637-5.54652-4.15989-0.307597 1.1425-3.64723-4.6579 5.49281 2.19712-1.01068 0.6152 5.54652 4.15989-0.52731 0.70308" clip-path="url(#pffe454a974)"/><path d="m48.1178 395.817-6.03636-6.03636-0.46608 1.08753-2.95184-5.12689 5.12689 2.95184-1.08752 0.46608 6.03636 6.03636-0.62144 0.62144" clip-path="url(#pffe454a974)"/><path d="m-33.8155 375.505-4.15989 5.54653 1.1425 0.30759-4.6579 3.64723 2.19712-5.49281 0.615195 1.01068 4.15989-5.54653 0.70308 0.52731" clip-path="url(#pffe454a974)"/><path d="m-23.6845 376.772-3.5951 3.5951 1.08752 0.46608-5.12689 2.95185 2.95184-5.12689 0.46608 1.08752 3.59511-3.5951 0.62144 0.62144" clip-path="url(#pffe454a974)"/><path d="m-13.5796 378.048-2.93626 1.95751 0.974996 0.67031-5.60623 1.88906 3.89999-4.44842 0.243749 1.15781 2.93627-1.95751 0.487498 0.73124" clip-path="url(#pffe454a974)"/><path d="m-3.52625 379.278-2.81683 0.93894 0.688558 0.81375-5.32067 0.31298 4.44433-2.94201-0.0626 1.06413 2.81683-0.93894 0.250385 0.75115" clip-path="url(#pffe454a974)"/><path d="m6.52044 380.499h-2.81683l0.375578 0.93894-4.8825-1.31452 4.8825-1.31452-0.375578 0.93894h2.81683v0.75116" clip-path="url(#pffe454a974)"/><path d="m16.5671 381.72-2.81683-0.93894 0.0626 1.06413-4.44433-2.94201 5.32067 0.31298-0.688558 0.81375 2.81683 0.93894-0.250385 0.75115" clip-path="url(#pffe454a974)"/><path d="m26.6204 382.93-2.93627-1.95751-0.243749 1.15781-3.89999-4.44842 5.60623 1.88906-0.974996 0.67031 2.93626 1.95751-0.487498 0.73124" clip-path="url(#pffe454a974)"/><path d="m36.7253 384.096-3.59511-3.59511-0.46608 1.08752-2.95184-5.12688 5.12689 2.95184-1.08752 0.46608 3.5951 3.59511-0.62144 0.62144" clip-path="url(#pffe454a974)"/><path d="m46.8564 385.27-4.15989-5.54653-0.615195 1.01068-2.19712-5.49281 4.6579 3.64723-1.1425 0.30759 4.15989 5.54653-0.70308 0.52731" clip-path="url(#pffe454a974)"/><path d="m-34.9947 364.938-2.5243 5.04859 1.1791 0.0983-3.93034 4.42163 1.1791-5.79725 0.786068 0.88433 2.5243-5.0486 0.786068 0.39304" clip-path="url(#pffe454a974)"/><path d="m-24.8502 366.205-1.95751 2.93627 1.15781 0.24375-4.44842 3.89999 1.88906-5.60624 0.67031 0.975 1.95751-2.93626 0.731248 0.48749" clip-path="url(#pffe454a974)"/><path d="m-14.7936 367.433-1.87788 1.87788 0.876346 0.37558-4.13135 2.37865 2.37865-4.13135 0.375577 0.87635 1.87788-1.87789 0.50077 0.50078" clip-path="url(#pffe454a974)"/><path d="m-4.74687 368.653-1.87788 0.93894 0.563365 0.50077-3.69317 0.75115 2.81683-2.50384 0.0626 0.75115 1.87788-0.93894 0.250385 0.50077" clip-path="url(#pffe454a974)"/><path d="m5.29981 369.874h-1.87788l0.250385 0.62596-3.255-0.87635 3.255-0.87635-0.250385 0.62597h1.87788v0.50077" clip-path="url(#pffe454a974)"/><path d="m15.3465 371.095-1.87788-0.93894-0.0626 0.75115-2.81683-2.50385 3.69317 0.75116-0.563365 0.50077 1.87788 0.93894-0.250385 0.50077" clip-path="url(#pffe454a974)"/><path d="m25.3932 372.315-1.87788-1.87789-0.375577 0.87635-2.37865-4.13135 4.13135 2.37865-0.876346 0.37558 1.87788 1.87788-0.50077 0.50078" clip-path="url(#pffe454a974)"/><path d="m35.4498 373.529-1.95751-2.93626-0.67031 0.97499-1.88906-5.60622 4.44842 3.89998-1.15781 0.24375 1.95751 2.93627-0.731248 0.48749" clip-path="url(#pffe454a974)"/><path d="m45.5943 374.703-2.5243-5.0486-0.786068 0.88433-1.1791-5.79725 3.93034 4.42163-1.1791 0.0983 2.5243 5.0486-0.786068 0.39303" clip-path="url(#pffe454a974)"/><path d="m-36.182 354.348-1.16234 4.64934 1.17234-0.15987-2.87756 5.16895-0.106575-5.91498 0.959186 0.69274 1.16234-4.64934 0.85261 0.21316" clip-path="url(#pffe454a974)"/><path d="m-26.0609 355.587-0.938943 2.81682 1.06413-0.0626-2.94202 4.44433 0.312981-5.32067 0.81375 0.68856 0.938941-2.81683 0.751155 0.25038" clip-path="url(#pffe454a974)"/><path d="m-16.0142 356.807-0.938942 1.87789 0.751153 0.0626-2.50385 2.81683 0.751154-3.69318 0.500769 0.56337 0.938942-1.87789 0.50077 0.25039" clip-path="url(#pffe454a974)"/><path d="m24.1726 361.69-0.938943-1.87788-0.500768 0.56336-0.751154-3.69317 2.50385 2.81683-0.751153 0.0626 0.938942 1.87788-0.50077 0.25039" clip-path="url(#pffe454a974)"/><path d="m34.2192 362.911-0.938941-2.81683-0.81375 0.68856-0.312981-5.32067 2.94202 4.44432-1.06413-0.0626 0.938942 2.81683-0.751155 0.25038" clip-path="url(#pffe454a974)"/><path d="m44.3404 364.113-1.16234-4.64934-0.959186 0.69274 0.106575-5.91498 2.87756 5.16895-1.17234-0.15987 1.16234 4.64934-0.85261 0.21316" clip-path="url(#pffe454a974)"/><path d="m-37.3895 343.741v4.4919l1.09856-0.43942-1.53799 5.71252-1.53799-5.71252 1.09856 0.43942v-4.4919h0.87885" clip-path="url(#pffe454a974)"/><path d="m-27.2815 344.962v2.81682l0.938941-0.37557-1.31452 4.8825-1.31452-4.8825 0.938941 0.37557v-2.81682h0.751155" clip-path="url(#pffe454a974)"/><path d="m-17.2348 346.182v1.87789l0.625961-0.25039-0.876346 3.255-0.876346-3.255 0.625961 0.25039v-1.87789h0.50077" clip-path="url(#pffe454a974)"/><path d="m22.9519 351.065v-1.87789l-0.625961 0.25039 0.876346-3.255 0.876346 3.255-0.625961-0.25039v1.87789h-0.50077" clip-path="url(#pffe454a974)"/><path d="m32.9986 352.285v-2.81683l-0.938941 0.37557 1.31452-4.88249 1.31452 4.88249-0.938942-0.37557v2.81683h-0.751155" clip-path="url(#pffe454a974)"/><path d="m43.1066 353.506v-4.4919l-1.09856 0.43942 1.53799-5.71252 1.53799 5.71252-1.09856-0.43942v4.4919h-0.87885" clip-path="url(#pffe454a974)"/><path d="m-38.6233 333.134 1.16234 4.64934 0.959186-0.69274-0.106575 5.91498-2.87756-5.16895 1.17234 0.15987-1.16234-4.64934 0.85261-0.21316" clip-path="url(#pffe454a974)"/><path d="m-28.5021 334.336 0.938941 2.81683 0.81375-0.68856 0.312981 5.32068-2.94202-4.44433 1.06413 0.0626-0.938942-2.81683 0.751154-0.25038" clip-path="url(#pffe454a974)"/><path d="m-18.4554 335.557 0.938943 1.87788 0.500768-0.56336 0.751154 3.69317-2.50385-2.81683 0.751154-0.0626-0.938943-1.87788 0.50077-0.25039" clip-path="url(#pffe454a974)"/><path d="m21.7313 340.44 0.938942-1.87789-0.751153-0.0626 2.50385-2.81683-0.751154 3.69317-0.500769-0.56336-0.938942 1.87788-0.50077-0.25038" clip-path="url(#pffe454a974)"/><path d="m31.778 341.66 0.938943-2.81682-1.06413 0.0626 2.94202-4.44433-0.312981 5.32067-0.81375-0.68856-0.938941 2.81683-0.751156-0.25038" clip-path="url(#pffe454a974)"/><path d="m41.8991 342.899 1.16234-4.64934-1.17234 0.15987 2.87756-5.16895 0.106575 5.91498-0.959186-0.69274-1.16234 4.64934-0.85261-0.21316" clip-path="url(#pffe454a974)"/><path d="m-39.8772 322.545 2.5243 5.0486 0.786068-0.88433 1.1791 5.79725-3.93034-4.42163 1.1791-0.0983-2.5243-5.0486 0.786068-0.39303" clip-path="url(#pffe454a974)"/><path d="m-29.7327 323.718 1.95751 2.93626 0.67031-0.97499 1.88906 5.60623-4.44842-3.89999 1.15781-0.24375-1.95751-2.93627 0.731248-0.48749" clip-path="url(#pffe454a974)"/><path d="m-19.6761 324.932 1.87788 1.87789 0.375577-0.87635 2.37865 4.13135-4.13135-2.37865 0.876346-0.37558-1.87788-1.87788 0.50077-0.50078" clip-path="url(#pffe454a974)"/><path d="m-9.62937 326.153 1.87788 0.93894 0.0626-0.75115 2.81683 2.50384-3.69317-0.75115 0.563365-0.50077-1.87788-0.93894 0.250385-0.50077" clip-path="url(#pffe454a974)"/><path d="m0.41731 327.373h1.87788l-0.250385-0.62597 3.255 0.87635-3.255 0.87635 0.250385-0.62596h-1.87788v-0.50077" clip-path="url(#pffe454a974)"/><path d="m10.464 328.594 1.87788-0.93894-0.563365-0.50077 3.69317-0.75115-2.81683 2.50384-0.0626-0.75115-1.87788 0.93894-0.250385-0.50077" clip-path="url(#pffe454a974)"/><path d="m20.5107 329.814 1.87788-1.87788-0.876346-0.37558 4.13135-2.37865-2.37865 4.13135-0.375577-0.87635-1.87788 1.87789-0.50077-0.50078" clip-path="url(#pffe454a974)"/><path d="m30.5673 331.042 1.95751-2.93627-1.15781-0.24375 4.44842-3.89998-1.88906 5.60622-0.67031-0.97499-1.95751 2.93626-0.731248-0.48749" clip-path="url(#pffe454a974)"/><path d="m40.7118 332.31 2.5243-5.04859-1.1791-0.0983 3.93034-4.42163-1.1791 5.79725-0.786068-0.88433-2.5243 5.0486-0.786068-0.39304" clip-path="url(#pffe454a974)"/><path d="m-41.1393 311.977 4.15989 5.54653 0.615195-1.01068 2.19712 5.49281-4.6579-3.64723 1.1425-0.30759-4.15989-5.54653 0.70308-0.52731" clip-path="url(#pffe454a974)"/><path d="m-31.0082 313.151 3.59511 3.59511 0.46608-1.08752 2.95184 5.12689-5.12689-2.95185 1.08752-0.46608-3.5951-3.5951 0.62144-0.62145" clip-path="url(#pffe454a974)"/><path d="m-20.9033 314.317 2.93627 1.95751 0.243749-1.15781 3.89999 4.44842-5.60623-1.88906 0.974996-0.67031-2.93626-1.95751 0.487498-0.73124" clip-path="url(#pffe454a974)"/><path d="m-10.85 315.527 2.81683 0.93894-0.0626-1.06413 4.44433 2.94201-5.32067-0.31298 0.688558-0.81375-2.81683-0.93894 0.250385-0.75115" clip-path="url(#pffe454a974)"/><path d="m-0.803315 316.748h2.81683l-0.375578-0.93894 4.8825 1.31452-4.8825 1.31452 0.375578-0.93894h-2.81683v-0.75116" clip-path="url(#pffe454a974)"/><path d="m9.24337 317.969 2.81683-0.93894-0.688558-0.81375 5.32067-0.31298-4.44433 2.94201 0.0626-1.06413-2.81683 0.93894-0.250385-0.75115" clip-path="url(#pffe454a974)"/><path d="m19.2967 319.199 2.93626-1.95751-0.974996-0.67031 5.60623-1.88906-3.89999 4.44842-0.243749-1.15781-2.93627 1.95751-0.487498-0.73124" clip-path="url(#pffe454a974)"/><path d="m29.4016 320.475 3.5951-3.59511-1.08752-0.46608 5.12689-2.95184-2.95184 5.12688-0.46608-1.08752-3.59511 3.59511-0.62144-0.62144" clip-path="url(#pffe454a974)"/><path d="m39.5326 321.742 4.15989-5.54653-1.1425-0.30759 4.6579-3.64723-2.19712 5.49281-0.615195-1.01068-4.15989 5.54653-0.70308-0.52731" clip-path="url(#pffe454a974)"/><path d="m-42.4007 301.43 6.03636 6.03636 0.46608-1.08753 2.95184 5.12689-5.12689-2.95184 1.08752-0.46608-6.03636-6.03636 0.62144-0.62144" clip-path="url(#pffe454a974)"/><path d="m-32.2759 302.61 5.54652 4.15989 0.307597-1.14251 3.64723 4.65791-5.49281-2.19713 1.01068-0.61519-5.54652-4.15989 0.52731-0.70308" clip-path="url(#pffe454a974)"/><path d="m-22.1712 303.789 5.0486 2.52429 0.09826-1.1791 4.42163 3.93034-5.79725-1.1791 0.884325-0.78607-5.0486-2.5243 0.393032-0.78606" clip-path="url(#pffe454a974)"/><path d="m-12.0892 304.977 4.64934 1.16233-0.159864-1.17233 5.16895 2.87755-5.91498 0.10658 0.692745-0.95919-4.64934-1.16233 0.213152-0.85261" clip-path="url(#pffe454a974)"/><path d="m-2.02394 306.184h4.4919l-0.439425-1.09857 5.71252 1.53799-5.71252 1.53799 0.439425-1.09856h-4.4919v-0.87885" clip-path="url(#pffe454a974)"/><path d="m8.04136 307.418 4.64934-1.16234-0.692745-0.95918 5.91498 0.10657-5.16895 2.87756 0.159863-1.17234-4.64934 1.16234-0.213152-0.85261" clip-path="url(#pffe454a974)"/><path d="m18.1233 308.672 5.0486-2.5243-0.884325-0.78607 5.79725-1.1791-4.42163 3.93034-0.09826-1.1791-5.0486 2.52429-0.393033-0.78606" clip-path="url(#pffe454a974)"/><path d="m28.228 309.934 5.54652-4.15989-1.01068-0.6152 5.49281-2.19712-3.64723 4.6579-0.307597-1.1425-5.54652 4.15989-0.52731-0.70308" clip-path="url(#pffe454a974)"/><path d="m38.3528 311.195 6.03636-6.03636-1.08752-0.46608 5.12689-2.95184-2.95184 5.12689-0.46608-1.08753-6.03636 6.03636-0.62144-0.62144" clip-path="url(#pffe454a974)"/></g><path d="m5.2992 349.197c0.036-0.09 0.09-0.2152 0.09-0.251 0-0.018 0-0.1973-0.2152-0.1973-0.1614 0-0.1973 0.1076-0.2331 0.2152-1.1657 2.6541-1.8292 3.8556-4.8957 3.8556h-2.6182c-0.251 0-0.2869 0-0.3945-0.018-0.1793-0.018-0.2331-0.036-0.2331-0.1794 0-0.054 0-0.09 0.09-0.4124l1.2195-4.8957h1.7753c1.5243 0 1.5243 0.3766 1.5243 0.8249 0 0.1256 0 0.3408-0.1255 0.8787-0.036 0.09-0.054 0.1436-0.054 0.1973 0 0.09 0.072 0.1973 0.2331 0.1973 0.1434 0 0.1973-0.09 0.269-0.3587l1.0222-4.1962c0-0.1076-0.09-0.1973-0.2152-0.1973-0.1614 0-0.1973 0.1075-0.2511 0.3228-0.3766 1.3629-0.6994 1.7753-2.3492 1.7753h-1.6857l1.076-4.3218c0.1614-0.6276 0.1793-0.6993 0.9684-0.6993h2.5285c2.1878 0 2.7258 0.52 2.7258 1.9905 0 0.4304 0 0.4662-0.072 0.9504 0 0.1076-0.018 0.2331-0.018 0.3228 0 0.09 0.054 0.2152 0.2152 0.2152 0.1972 0 0.2152-0.1075 0.251-0.4483l0.3587-3.1024c0.054-0.4841-0.036-0.4841-0.4842-0.4841h-9.056c-0.3587 0-0.538 0-0.538 0.3587 0 0.1972 0.1614 0.1972 0.5021 0.1972 0.6635 0 1.1656 0 1.1656 0.3228 0 0.072 0 0.1076-0.09 0.4304l-2.3671 9.4864c-0.1794 0.6994-0.2152 0.8429-1.6319 0.8429-0.3049 0-0.5021 0-0.5021 0.3407 0 0.2152 0.1614 0.2152 0.5021 0.2152h9.3071c0.4124 0 0.4304-0.018 0.5559-0.3049z" color="#000000" color-rendering="auto" image-rendering="auto" shape-rendering="auto" solid-color="#000000" style="isolation:auto;mix-blend-mode:normal"/></g><path d="m12.4328 354.007v-0.4519h-1.3934v-5.5986c0-0.2636 0-0.3515-0.2761-0.3515-0.1507 0-0.2009 0-0.3264 0.1758l-4.155 5.7743v0.4519h3.6905v1.0294c0 0.4268 0 0.5774-1.0168 0.5774h-0.3389v0.4519c0.6277-0.025 1.431-0.05 1.883-0.05 0.4644 0 1.2678 0.025 1.8954 0.05v-0.4519h-0.3389c-1.0168 0-1.0168-0.1506-1.0168-0.5774v-1.0294zm-2.3725-5.0462v4.5943h-3.314z" color="#000000" color-rendering="auto" fill="#008f00" image-rendering="auto" shape-rendering="auto" solid-color="#000000" style="isolation:auto;mix-blend-mode:normal"/><g fill="#008000"><g stroke-linejoin="round" stroke-miterlimit="1e5" stroke-width="1.25"><path d="m63.8829 295.741-6.03636-6.03635-0.46608 1.08752-2.95184-5.12689 5.12689 2.95184-1.08752 0.46608 6.03636 6.03636-0.62144 0.62144" clip-path="url(#pe30911f7b6)"/><path d="m72.7933 295.694-4.15989-5.54652-0.615195 1.01068-2.19712-5.49281 4.6579 3.64723-1.1425 0.30759 4.15989 5.54652-0.70308 0.52731" clip-path="url(#pe30911f7b6)"/><path d="m81.7031 295.627-2.5243-5.0486-0.786068 0.88433-1.1791-5.79725 3.93034 4.42163-1.1791 0.0983 2.5243 5.0486-0.786068 0.39303" clip-path="url(#pe30911f7b6)"/><path d="m90.621 295.537-1.16234-4.64935-0.959186 0.69275 0.106576-5.91498 2.87756 5.16895-1.17234-0.15987 1.16234 4.64934-0.85261 0.21316" clip-path="url(#pe30911f7b6)"/><path d="m99.5592 295.43v-4.4919l-1.09856 0.43942 1.53799-5.71252 1.53799 5.71252-1.09857-0.43942v4.4919h-0.878845" clip-path="url(#pe30911f7b6)"/><path d="m108.524 295.324 1.16234-4.64934-1.17234 0.15987 2.87756-5.16895 0.10657 5.91498-0.95918-0.69275-1.16234 4.64935-0.85261-0.21316" clip-path="url(#pe30911f7b6)"/><path d="m117.508 295.234 2.52429-5.04859-1.1791-0.0983 3.93034-4.42163-1.1791 5.79725-0.78607-0.88433-2.5243 5.0486-0.78606-0.39304" clip-path="url(#pe30911f7b6)"/><path d="m126.501 295.167 4.15989-5.54652-1.1425-0.30759 4.6579-3.64723-2.19713 5.49281-0.61519-1.01068-4.15989 5.54652-0.70308-0.52731" clip-path="url(#pe30911f7b6)"/><path d="m135.493 295.12 6.03635-6.03636-1.08752-0.46608 5.12689-2.95184-2.95184 5.12689-0.46608-1.08753-6.03636 6.03636-0.62144-0.62144" clip-path="url(#pe30911f7b6)"/><path d="m63.9299 284.061-5.54652-4.15988-0.307598 1.1425-3.64723-4.6579 5.49281 2.19712-1.01068 0.6152 5.54652 4.15988-0.52731 0.70308" clip-path="url(#pe30911f7b6)"/><path d="m72.8341 284.02-3.59511-3.5951-0.46608 1.08752-2.95184-5.12688 5.12689 2.95184-1.08752 0.46608 3.5951 3.59511-0.62144 0.62144" clip-path="url(#pe30911f7b6)"/><path d="m81.7305 283.953-1.95751-2.93626-0.67031 0.97499-1.88906-5.60622 4.44842 3.89998-1.15781 0.24375 1.95751 2.93627-0.731248 0.48749" clip-path="url(#pe30911f7b6)"/><path d="m90.6718 283.835-0.938941-2.81683-0.81375 0.68856-0.312981-5.32067 2.94202 4.44432-1.06413-0.0626 0.938942 2.81683-0.751155 0.25038" clip-path="url(#pe30911f7b6)"/><path d="m99.623 283.71v-2.81682l-0.938942 0.37558 1.31452-4.8825 1.31452 4.8825-0.93894-0.37558v2.81682h-0.751158" clip-path="url(#pe30911f7b6)"/><path d="m108.574 283.585 0.93895-2.81682-1.06414 0.0626 2.94202-4.44433-0.31298 5.32067-0.81375-0.68856-0.93894 2.81683-0.75116-0.25038" clip-path="url(#pe30911f7b6)"/><path d="m117.535 283.466 1.95751-2.93627-1.15781-0.24375 4.44842-3.89998-1.88906 5.60622-0.67031-0.97499-1.95751 2.93626-0.73124-0.48749" clip-path="url(#pe30911f7b6)"/><path d="m126.542 283.399 3.59511-3.5951-1.08753-0.46608 5.12689-2.95184-2.95184 5.12688-0.46608-1.08752-3.59511 3.5951-0.62144-0.62144" clip-path="url(#pe30911f7b6)"/><path d="m135.54 283.358 5.54652-4.15988-1.01067-0.6152 5.49281-2.19712-3.64723 4.6579-0.3076-1.1425-5.54652 4.15988-0.52731-0.70308" clip-path="url(#pe30911f7b6)"/><path d="m63.9971 272.382-5.0486-2.52429-0.09826 1.1791-4.42163-3.93034 5.79725 1.1791-0.884325 0.78607 5.0486 2.5243-0.393032 0.78606" clip-path="url(#pe30911f7b6)"/><path d="m72.9011 272.355-2.93627-1.95751-0.243749 1.15781-3.89999-4.44842 5.60623 1.88906-0.974996 0.67031 2.93626 1.95751-0.487498 0.73124" clip-path="url(#pe30911f7b6)"/><path d="m81.8457 272.239-1.87788-1.87788-0.375577 0.87635-2.37865-4.13135 4.13135 2.37865-0.876346 0.37558 1.87788 1.87788-0.50077 0.50077" clip-path="url(#pe30911f7b6)"/><path d="m90.797 272.114-0.938943-1.87788-0.500768 0.56336-0.751154-3.69317 2.50385 2.81683-0.751154 0.0626 0.938943 1.87788-0.50077 0.25039" clip-path="url(#pe30911f7b6)"/><path d="m99.7482 271.989v-1.87789l-0.625961 0.25039 0.876346-3.255 0.87635 3.255-0.62596-0.25039v1.87789h-0.500775" clip-path="url(#pe30911f7b6)"/><path d="m108.699 271.864 0.93894-1.87789-0.75116-0.0626 2.50385-2.81683-0.75115 3.69317-0.50077-0.56336-0.93895 1.87788-0.50076-0.25038" clip-path="url(#pe30911f7b6)"/><path d="m117.651 271.739 1.87788-1.87788-0.87635-0.37558 4.13135-2.37865-2.37865 4.13135-0.37558-0.87635-1.87788 1.87788-0.50077-0.50077" clip-path="url(#pe30911f7b6)"/><path d="m126.609 271.623 2.93627-1.95751-0.975-0.67031 5.60623-1.88906-3.89999 4.44842-0.24375-1.15781-2.93626 1.95751-0.4875-0.73124" clip-path="url(#pe30911f7b6)"/><path d="m135.607 271.596 5.0486-2.5243-0.88433-0.78607 5.79725-1.1791-4.42163 3.93034-0.0983-1.1791-5.0486 2.52429-0.39303-0.78606" clip-path="url(#pe30911f7b6)"/><path d="m64.087 260.695-4.64934-1.16234 0.159864 1.17234-5.16895-2.87756 5.91498-0.10657-0.692745 0.95919 4.64934 1.16233-0.213152 0.85261" clip-path="url(#pe30911f7b6)"/><path d="m73.0196 260.644-2.81683-0.93894 0.0626 1.06413-4.44433-2.94202 5.32067 0.31299-0.688557 0.81375 2.81683 0.93894-0.250385 0.75115" clip-path="url(#pe30911f7b6)"/><path d="m81.9709 260.519-1.87788-0.93894-0.0626 0.75115-2.81683-2.50385 3.69317 0.75116-0.563364 0.50077 1.87788 0.93894-0.250384 0.50077" clip-path="url(#pe30911f7b6)"/><path d="m117.776 260.018 1.87788-0.93894-0.56336-0.50077 3.69317-0.75116-2.81683 2.50385-0.0626-0.75115-1.87788 0.93894-0.25039-0.50077" clip-path="url(#pe30911f7b6)"/><path d="m126.727 259.893 2.81682-0.93894-0.68855-0.81375 5.32067-0.31299-4.44433 2.94202 0.0626-1.06413-2.81682 0.93894-0.25039-0.75115" clip-path="url(#pe30911f7b6)"/><path d="m135.697 259.842 4.64934-1.16233-0.69274-0.95919 5.91498 0.10657-5.16895 2.87756 0.15987-1.17234-4.64934 1.16234-0.21316-0.85261" clip-path="url(#pe30911f7b6)"/><path d="m64.1936 248.987h-4.4919l0.439425 1.09857-5.71252-1.53799 5.71252-1.53799-0.439425 1.09856h4.4919v0.87885" clip-path="url(#pe30911f7b6)"/><path d="m73.1448 248.923h-2.81683l0.375578 0.93894-4.8825-1.31452 4.8825-1.31452-0.375578 0.93894h2.81683v0.75116" clip-path="url(#pe30911f7b6)"/><path d="m82.0961 248.798h-1.87788l0.250385 0.62597-3.255-0.87635 3.255-0.87635-0.250385 0.62596h1.87788v0.50077" clip-path="url(#pe30911f7b6)"/><path d="m117.901 248.297h1.87789l-0.25039-0.62596 3.255 0.87635-3.255 0.87635 0.25039-0.62597h-1.87789v-0.50077" clip-path="url(#pe30911f7b6)"/><path d="m126.852 248.172h2.81683l-0.37558-0.93894 4.8825 1.31452-4.8825 1.31452 0.37558-0.93894h-2.81683v-0.75116" clip-path="url(#pe30911f7b6)"/><path d="m135.804 248.108h4.4919l-0.43943-1.09856 5.71253 1.53799-5.71253 1.53799 0.43943-1.09857h-4.4919v-0.87885" clip-path="url(#pe30911f7b6)"/><path d="m64.3002 237.254-4.64934 1.16234 0.692745 0.95918-5.91498-0.10657 5.16895-2.87756-0.159864 1.17234 4.64934-1.16234 0.213152 0.85261" clip-path="url(#pe30911f7b6)"/><path d="m73.27 237.203-2.81683 0.93894 0.688557 0.81375-5.32067 0.31299 4.44433-2.94202-0.0626 1.06413 2.81683-0.93894 0.250385 0.75115" clip-path="url(#pe30911f7b6)"/><path d="m82.2213 237.078-1.87788 0.93894 0.563365 0.50077-3.69317 0.75116 2.81683-2.50385 0.0626 0.75115 1.87788-0.93894 0.250385 0.50077" clip-path="url(#pe30911f7b6)"/><path d="m118.026 236.577 1.87789 0.93894 0.0626-0.75115 2.81682 2.50384-3.69317-0.75115 0.56337-0.50077-1.87789-0.93894 0.25039-0.50077" clip-path="url(#pe30911f7b6)"/><path d="m126.978 236.452 2.81683 0.93894-0.0626-1.06413 4.44433 2.94202-5.32068-0.31299 0.68856-0.81375-2.81683-0.93894 0.25039-0.75115" clip-path="url(#pe30911f7b6)"/><path d="m135.91 236.401 4.64934 1.16234-0.15987-1.17234 5.16895 2.87756-5.91498 0.10657 0.69275-0.95919-4.64935-1.16233 0.21316-0.85261" clip-path="url(#pe30911f7b6)"/><path d="m64.3901 225.5-5.0486 2.5243 0.884325 0.78607-5.79725 1.1791 4.42163-3.93034 0.09826 1.1791 5.0486-2.52429 0.393032 0.78606" clip-path="url(#pe30911f7b6)"/><path d="m73.3886 225.472-2.93626 1.95751 0.974996 0.67031-5.60623 1.88906 3.89999-4.44842 0.243749 1.15781 2.93627-1.95751 0.487498 0.73124" clip-path="url(#pe30911f7b6)"/><path d="m82.3465 225.357-1.87788 1.87789 0.876346 0.37558-4.13135 2.37865 2.37865-4.13135 0.375577 0.87635 1.87788-1.87788 0.50077 0.50076" clip-path="url(#pe30911f7b6)"/><path d="m91.2977 225.232-0.938942 1.87789 0.751153 0.0626-2.50385 2.81682 0.751154-3.69317 0.500768 0.56336 0.938943-1.87788 0.50077 0.25038" clip-path="url(#pe30911f7b6)"/><path d="m100.249 225.107v1.87788l0.62596-0.25038-0.87635 3.255-0.876346-3.255 0.625961 0.25038v-1.87788h0.500765" clip-path="url(#pe30911f7b6)"/><path d="m109.2 224.981 0.93895 1.87788 0.50077-0.56336 0.75115 3.69317-2.50385-2.81683 0.75116-0.0626-0.93894-1.87788 0.50077-0.25039" clip-path="url(#pe30911f7b6)"/><path d="m118.151 224.856 1.87788 1.87788 0.37558-0.87635 2.37865 4.13135-4.13135-2.37865 0.87635-0.37558-1.87788-1.87789 0.50077-0.50076" clip-path="url(#pe30911f7b6)"/><path d="m127.096 224.741 2.93626 1.95751 0.24375-1.15781 3.89999 4.44842-5.60623-1.88906 0.975-0.67031-2.93627-1.95751 0.4875-0.73124" clip-path="url(#pe30911f7b6)"/><path d="m136 224.714 5.04859 2.52429 0.0983-1.1791 4.42163 3.93034-5.79724-1.1791 0.88432-0.78607-5.04859-2.5243 0.39303-0.78606" clip-path="url(#pe30911f7b6)"/><path d="m64.4572 213.737-5.54652 4.1599 1.01068 0.61519-5.49281 2.19713 3.64723-4.65791 0.307598 1.14251 5.54652-4.1599 0.52731 0.70308" clip-path="url(#pe30911f7b6)"/><path d="m73.4556 213.697-3.5951 3.59511 1.08752 0.46608-5.12689 2.95185 2.95184-5.12689 0.46608 1.08752 3.59511-3.59511 0.62144 0.62144" clip-path="url(#pe30911f7b6)"/><path d="m82.4617 213.63-1.95751 2.93627 1.15781 0.24375-4.44842 3.89999 1.88906-5.60624 0.67031 0.975 1.95751-2.93626 0.731248 0.48749" clip-path="url(#pe30911f7b6)"/><path d="m91.4229 213.511-0.938942 2.81682 1.06413-0.0626-2.94202 4.44433 0.312981-5.32067 0.81375 0.68856 0.938941-2.81683 0.751156 0.25038" clip-path="url(#pe30911f7b6)"/><path d="m100.374 213.386v2.81683l0.93894-0.37558-1.31452 4.88251-1.31452-4.88251 0.938942 0.37558v-2.81683h0.751157" clip-path="url(#pe30911f7b6)"/><path d="m109.325 213.261 0.93894 2.81683 0.81375-0.68856 0.31298 5.32068-2.94202-4.44433 1.06414 0.0626-0.93895-2.81683 0.75116-0.25038" clip-path="url(#pe30911f7b6)"/><path d="m118.267 213.142 1.95751 2.93626 0.67031-0.975 1.88906 5.60624-4.44842-3.89999 1.15781-0.24375-1.95751-2.93627 0.73124-0.48749" clip-path="url(#pe30911f7b6)"/><path d="m127.163 213.075 3.59511 3.59511 0.46608-1.08752 2.95184 5.12689-5.12689-2.95185 1.08753-0.46608-3.59511-3.59511 0.62144-0.62144" clip-path="url(#pe30911f7b6)"/><path d="m136.067 213.034 5.54652 4.1599 0.3076-1.14251 3.64723 4.65791-5.49281-2.19713 1.01067-0.61519-5.54652-4.1599 0.52731-0.70308" clip-path="url(#pe30911f7b6)"/><path d="m64.5043 201.976-6.03636 6.03636 1.08752 0.46608-5.12689 2.95184 2.95184-5.12689 0.46608 1.08752 6.03636-6.03635 0.62144 0.62144" clip-path="url(#pe30911f7b6)"/><path d="m73.4964 201.929-4.15989 5.54652 1.1425 0.3076-4.6579 3.64723 2.19712-5.49281 0.615195 1.01067 4.15989-5.54652 0.70308 0.52731" clip-path="url(#pe30911f7b6)"/><path d="m82.4891 201.862-2.5243 5.04859 1.1791 0.0983-3.93034 4.42162 1.1791-5.79725 0.786068 0.88433 2.5243-5.0486 0.786068 0.39304" clip-path="url(#pe30911f7b6)"/><path d="m91.4736 201.772-1.16234 4.64934 1.17234-0.15987-2.87756 5.16895-0.106575-5.91498 0.959186 0.69275 1.16234-4.64935 0.85261 0.21316" clip-path="url(#pe30911f7b6)"/><path d="m100.438 201.665v4.4919l1.09857-0.43943-1.53799 5.71253-1.53799-5.71253 1.09856 0.43943v-4.4919h0.878845" clip-path="url(#pe30911f7b6)"/><path d="m109.376 201.559 1.16234 4.64935 0.95919-0.69275-0.10658 5.91498-2.87756-5.16895 1.17234 0.15987-1.16233-4.64934 0.85261-0.21316" clip-path="url(#pe30911f7b6)"/><path d="m118.294 201.469 2.5243 5.0486 0.78607-0.88433 1.1791 5.79725-3.93034-4.42163 1.1791-0.0983-2.52429-5.0486 0.78606-0.39303" clip-path="url(#pe30911f7b6)"/><path d="m127.204 201.402 4.15989 5.54652 0.61519-1.01067 2.19713 5.49281-4.6579-3.64723 1.1425-0.3076-4.15989-5.54652 0.70308-0.52731" clip-path="url(#pe30911f7b6)"/><path d="m136.114 201.355 6.03636 6.03635 0.46608-1.08752 2.95184 5.12689-5.12689-2.95184 1.08753-0.46608-6.03636-6.03636 0.62144-0.62144" clip-path="url(#pe30911f7b6)"/></g><path d="m102.591 249.122c0.036-0.09 0.09-0.2152 0.09-0.251 0-0.018 0-0.1973-0.2152-0.1973-0.1613 0-0.1972 0.1076-0.2331 0.2152-1.1656 2.6541-1.8291 3.8556-4.8956 3.8556h-2.6182c-0.2511 0-0.2869 0-0.3945-0.018-0.1794-0.018-0.2331-0.036-0.2331-0.1794 0-0.054 0-0.09 0.09-0.4124l1.2194-4.8957h1.7754c1.5243 0 1.5243 0.3766 1.5243 0.8249 0 0.1256 0 0.3408-0.1256 0.8787-0.036 0.09-0.054 0.1436-0.054 0.1973 0 0.09 0.072 0.1973 0.2332 0.1973 0.1434 0 0.1972-0.09 0.269-0.3587l1.0221-4.1962c0-0.1076-0.09-0.1973-0.2152-0.1973-0.1614 0-0.1972 0.1075-0.251 0.3228-0.3766 1.3629-0.6994 1.7753-2.3492 1.7753h-1.6857l1.076-4.3218c0.1614-0.6276 0.1793-0.6993 0.9683-0.6993h2.5286c2.1878 0 2.7257 0.52 2.7257 1.9905 0 0.4304 0 0.4662-0.072 0.9504 0 0.1076-0.018 0.2331-0.018 0.3228 0 0.09 0.054 0.2152 0.2152 0.2152 0.1972 0 0.2152-0.1075 0.251-0.4483l0.3587-3.1024c0.054-0.4841-0.036-0.4841-0.4842-0.4841h-9.0561c-0.3586 0-0.5379 0-0.5379 0.3587 0 0.1972 0.1614 0.1972 0.5021 0.1972 0.6635 0 1.1656 0 1.1656 0.3228 0 0.072 0 0.1076-0.09 0.4304l-2.3671 9.4864c-0.1793 0.6994-0.2152 0.8429-1.6318 0.8429-0.3049 0-0.5022 0-0.5022 0.3407 0 0.2152 0.1614 0.2152 0.5022 0.2152h9.307c0.4125 0 0.4304-0.018 0.556-0.3049z" color="#000000" color-rendering="auto" image-rendering="auto" shape-rendering="auto" solid-color="#000000" style="isolation:auto;mix-blend-mode:normal"/></g><path d="m109.421 253.705h-0.4268c-0.038 0.2761-0.1632 1.0168-0.3264 1.1423-0.1004 0.075-1.0669 0.075-1.2427 0.075h-2.3097c1.318-1.1674 1.7574-1.5189 2.5106-2.1089 0.9289-0.7406 1.795-1.5189 1.795-2.7114 0-1.5189-1.3306-2.4478-2.9373-2.4478-1.5566 0-2.6111 1.0921-2.6111 2.2469 0 0.6402 0.5398 0.703 0.6653 0.703 0.3013 0 0.6654-0.2134 0.6654-0.6653 0-0.226-0.088-0.6653-0.7407-0.6653 0.3892-0.8913 1.2428-1.1674 1.8328-1.1674 1.2552 0 1.908 0.9791 1.908 1.9959 0 1.0921-0.7783 1.9582-1.18 2.4101l-3.0252 2.9876c-0.1256 0.113-0.1256 0.1382-0.1256 0.4896h5.1718z" color="#000000" color-rendering="auto" fill="#008f00" image-rendering="auto" shape-rendering="auto" solid-color="#000000" style="isolation:auto;mix-blend-mode:normal"/><g fill="#f00"><g stroke-linejoin="round" stroke-miterlimit="1e5" stroke-width="1.25"><path d="m-32.6357 285.976-6.03636 6.03636 1.08752 0.46608-5.12689 2.95184 2.95184-5.12689 0.46608 1.08753 6.03636-6.03636 0.62144 0.62144" clip-path="url(#p75e85dd5f0)"/><path d="m-23.6436 285.929-4.15989 5.54652 1.1425 0.3076-4.6579 3.64723 2.19712-5.49281 0.615195 1.01067 4.15989-5.54652 0.70308 0.52731" clip-path="url(#p75e85dd5f0)"/><path d="m-14.6509 285.862-2.5243 5.04859 1.1791 0.0983-3.93034 4.42162 1.1791-5.79725 0.786068 0.88433 2.5243-5.0486 0.786068 0.39304" clip-path="url(#p75e85dd5f0)"/><path d="m-5.66638 285.772-1.16234 4.64934 1.17234-0.15987-2.87756 5.16895-0.106575-5.91498 0.959186 0.69275 1.16234-4.64935 0.85261 0.21316" clip-path="url(#p75e85dd5f0)"/><path d="m3.29798 285.665v4.4919l1.09856-0.43943-1.53799 5.71253-1.53799-5.71253 1.09856 0.43943v-4.4919h0.87885" clip-path="url(#p75e85dd5f0)"/><path d="m12.2361 285.559 1.16234 4.64935 0.959186-0.69275-0.106575 5.91498-2.87756-5.16895 1.17234 0.15987-1.16234-4.64934 0.85261-0.21316" clip-path="url(#p75e85dd5f0)"/><path d="m21.1541 285.469 2.5243 5.0486 0.786068-0.88433 1.1791 5.79725-3.93034-4.42163 1.1791-0.0983-2.5243-5.0486 0.786068-0.39303" clip-path="url(#p75e85dd5f0)"/><path d="m30.0638 285.402 4.15989 5.54652 0.615195-1.01067 2.19712 5.49281-4.6579-3.64723 1.1425-0.3076-4.15989-5.54652 0.70308-0.52731" clip-path="url(#p75e85dd5f0)"/><path d="m38.9743 285.355 6.03636 6.03635 0.46608-1.08752 2.95184 5.12689-5.12689-2.95184 1.08752-0.46608-6.03636-6.03636 0.62144-0.62144" clip-path="url(#p75e85dd5f0)"/><path d="m-32.6828 276.738-5.54652 4.15988 1.01068 0.6152-5.49281 2.19712 3.64723-4.6579 0.307597 1.1425 5.54652-4.15988 0.52731 0.70308" clip-path="url(#p75e85dd5f0)"/><path d="m-23.6845 276.697-3.5951 3.5951 1.08752 0.46608-5.12689 2.95185 2.95184-5.12689 0.46608 1.08752 3.59511-3.5951 0.62144 0.62144" clip-path="url(#p75e85dd5f0)"/><path d="m-14.6783 276.63-1.95751 2.93627 1.15781 0.24375-4.44842 3.89998 1.88906-5.60623 0.67031 0.975 1.95751-2.93626 0.731248 0.48749" clip-path="url(#p75e85dd5f0)"/><path d="m-5.71711 276.511-0.938942 2.81682 1.06413-0.0626-2.94202 4.44433 0.312981-5.32067 0.81375 0.68856 0.938941-2.81683 0.751155 0.25038" clip-path="url(#p75e85dd5f0)"/><path d="m3.23414 276.386v2.81682l0.938941-0.37558-1.31452 4.8825-1.31452-4.8825 0.938941 0.37558v-2.81682h0.751155" clip-path="url(#p75e85dd5f0)"/><path d="m12.1854 276.261 0.938941 2.81683 0.81375-0.68856 0.312981 5.32068-2.94202-4.44433 1.06413 0.0626-0.938942-2.81683 0.751155-0.25038" clip-path="url(#p75e85dd5f0)"/><path d="m21.1267 276.142 1.95751 2.93626 0.67031-0.975 1.88906 5.60623-4.44842-3.89998 1.15781-0.24375-1.95751-2.93627 0.731248-0.48749" clip-path="url(#p75e85dd5f0)"/><path d="m30.023 276.075 3.59511 3.5951 0.46608-1.08752 2.95184 5.12689-5.12689-2.95185 1.08752-0.46608-3.5951-3.5951 0.62144-0.62144" clip-path="url(#p75e85dd5f0)"/><path d="m38.9272 276.034 5.54652 4.15988 0.307597-1.1425 3.64723 4.6579-5.49281-2.19712 1.01068-0.6152-5.54652-4.15988 0.52731-0.70308" clip-path="url(#p75e85dd5f0)"/><path d="m-32.7499 267.5-5.0486 2.5243 0.884325 0.78607-5.79725 1.1791 4.42163-3.93034 0.09826 1.1791 5.0486-2.52429 0.393032 0.78606" clip-path="url(#p75e85dd5f0)"/><path d="m-23.7514 267.472-2.93626 1.95751 0.974996 0.67031-5.60623 1.88906 3.89999-4.44842 0.243749 1.15781 2.93627-1.95751 0.487498 0.73124" clip-path="url(#p75e85dd5f0)"/><path d="m-14.7936 267.357-1.87788 1.87789 0.876346 0.37558-4.13135 2.37865 2.37865-4.13135 0.375577 0.87635 1.87788-1.87788 0.50077 0.50076" clip-path="url(#p75e85dd5f0)"/><path d="m-5.8423 267.232-0.938942 1.87789 0.751154 0.0626-2.50385 2.81682 0.751154-3.69317 0.500769 0.56336 0.938942-1.87788 0.50077 0.25038" clip-path="url(#p75e85dd5f0)"/><path d="m3.10894 267.107v1.87788l0.625961-0.25038-0.876346 3.255-0.876346-3.255 0.625961 0.25038v-1.87788h0.50077" clip-path="url(#p75e85dd5f0)"/><path d="m12.0602 266.981 0.938942 1.87788 0.500769-0.56336 0.751154 3.69317-2.50385-2.81683 0.751154-0.0626-0.938943-1.87788 0.50077-0.25039" clip-path="url(#p75e85dd5f0)"/><path d="m21.0114 266.856 1.87788 1.87788 0.375577-0.87635 2.37865 4.13135-4.13135-2.37865 0.876346-0.37558-1.87788-1.87789 0.50077-0.50076" clip-path="url(#p75e85dd5f0)"/><path d="m29.9561 266.741 2.93627 1.95751 0.243749-1.15781 3.89999 4.44842-5.60623-1.88906 0.974996-0.67031-2.93626-1.95751 0.487498-0.73124" clip-path="url(#p75e85dd5f0)"/><path d="m38.8601 266.714 5.0486 2.52429 0.09826-1.1791 4.42163 3.93034-5.79725-1.1791 0.884325-0.78607-5.0486-2.5243 0.393033-0.78606" clip-path="url(#p75e85dd5f0)"/><path d="m-32.8399 258.254-4.64934 1.16233 0.692745 0.95919-5.91498-0.10657 5.16895-2.87756-0.159863 1.17234 4.64934-1.16234 0.213152 0.85261" clip-path="url(#p75e85dd5f0)"/><path d="m-23.87 258.203-2.81683 0.93894 0.688558 0.81375-5.32067 0.31299 4.44433-2.94202-0.0626 1.06413 2.81683-0.93894 0.250385 0.75115" clip-path="url(#p75e85dd5f0)"/><path d="m-14.9187 258.078-1.87788 0.93894 0.563364 0.50077-3.69317 0.75116 2.81683-2.50385 0.0626 0.75115 1.87788-0.93894 0.250385 0.50077" clip-path="url(#p75e85dd5f0)"/><path d="m20.8863 257.577 1.87788 0.93894 0.0626-0.75115 2.81683 2.50385-3.69317-0.75116 0.563365-0.50077-1.87788-0.93894 0.250385-0.50077" clip-path="url(#p75e85dd5f0)"/><path d="m29.8375 257.452 2.81683 0.93894-0.0626-1.06413 4.44433 2.94202-5.32067-0.31299 0.688557-0.81375-2.81683-0.93894 0.250385-0.75115" clip-path="url(#p75e85dd5f0)"/><path d="m38.7701 257.401 4.64934 1.16234-0.159863-1.17234 5.16895 2.87756-5.91498 0.10657 0.692745-0.95919-4.64934-1.16233 0.213152-0.85261" clip-path="url(#p75e85dd5f0)"/><path d="m-32.9464 248.987h-4.4919l0.439425 1.09857-5.71252-1.53799 5.71252-1.53799-0.439425 1.09856h4.4919v0.87885" clip-path="url(#p75e85dd5f0)"/><path d="m-23.9952 248.923h-2.81683l0.375577 0.93894-4.8825-1.31452 4.8825-1.31452-0.375577 0.93894h2.81683v0.75116" clip-path="url(#p75e85dd5f0)"/><path d="m-15.0439 248.798h-1.87788l0.250385 0.62597-3.255-0.87635 3.255-0.87635-0.250385 0.62596h1.87788v0.50077" clip-path="url(#p75e85dd5f0)"/><path d="m20.7611 248.297h1.87788l-0.250385-0.62596 3.255 0.87635-3.255 0.87635 0.250385-0.62597h-1.87788v-0.50077" clip-path="url(#p75e85dd5f0)"/><path d="m29.7123 248.172h2.81683l-0.375578-0.93894 4.8825 1.31452-4.8825 1.31452 0.375578-0.93894h-2.81683v-0.75116" clip-path="url(#p75e85dd5f0)"/><path d="m38.6636 248.108h4.4919l-0.439425-1.09856 5.71252 1.53799-5.71252 1.53799 0.439425-1.09857h-4.4919v-0.87885" clip-path="url(#p75e85dd5f0)"/><path d="m-33.053 239.695-4.64934-1.16234 0.159863 1.17234-5.16895-2.87756 5.91498-0.10657-0.692745 0.95919 4.64934 1.16233-0.213152 0.85261" clip-path="url(#p75e85dd5f0)"/><path d="m-24.1204 239.644-2.81683-0.93894 0.0626 1.06413-4.44433-2.94202 5.32067 0.31299-0.688558 0.81375 2.81683 0.93894-0.250385 0.75115" clip-path="url(#p75e85dd5f0)"/><path d="m-15.1691 239.519-1.87788-0.93894-0.06259 0.75115-2.81683-2.50385 3.69317 0.75116-0.563365 0.50077 1.87788 0.93894-0.250385 0.50077" clip-path="url(#p75e85dd5f0)"/><path d="m20.6359 239.018 1.87788-0.93894-0.563364-0.50077 3.69317-0.75116-2.81683 2.50385-0.0626-0.75115-1.87788 0.93894-0.250385-0.50077" clip-path="url(#p75e85dd5f0)"/><path d="m29.5871 238.893 2.81683-0.93894-0.688557-0.81375 5.32067-0.31299-4.44433 2.94202 0.0626-1.06413-2.81683 0.93894-0.250385-0.75115" clip-path="url(#p75e85dd5f0)"/><path d="m38.557 238.842 4.64934-1.16234-0.692745-0.95918 5.91498 0.10657-5.16895 2.87756 0.159863-1.17234-4.64934 1.16234-0.213152-0.85261" clip-path="url(#p75e85dd5f0)"/><path d="m-33.143 230.382-5.0486-2.52429-0.09826 1.1791-4.42163-3.93034 5.79725 1.1791-0.884325 0.78607 5.0486 2.5243-0.393032 0.78606" clip-path="url(#p75e85dd5f0)"/><path d="m-24.2389 230.355-2.93627-1.95751-0.243749 1.15781-3.89999-4.44842 5.60623 1.88906-0.974996 0.67031 2.93626 1.95751-0.487498 0.73124" clip-path="url(#p75e85dd5f0)"/><path d="m-15.2943 230.239-1.87788-1.87788-0.375577 0.87635-2.37865-4.13135 4.13135 2.37865-0.876346 0.37558 1.87788 1.87788-0.50077 0.50077" clip-path="url(#p75e85dd5f0)"/><path d="m-6.34308 230.114-0.938942-1.87788-0.500769 0.56336-0.751154-3.69317 2.50385 2.81683-0.751154 0.0626 0.938942 1.87788-0.50077 0.25039" clip-path="url(#p75e85dd5f0)"/><path d="m2.60818 229.989v-1.87789l-0.625961 0.25039 0.876346-3.255 0.876346 3.255-0.625961-0.25039v1.87789h-0.50077" clip-path="url(#p75e85dd5f0)"/><path d="m11.5594 229.864 0.938942-1.87789-0.751153-0.0626 2.50385-2.81683-0.751154 3.69317-0.500769-0.56336-0.938942 1.87788-0.50077-0.25038" clip-path="url(#p75e85dd5f0)"/><path d="m20.5107 229.739 1.87788-1.87788-0.876346-0.37558 4.13135-2.37865-2.37865 4.13135-0.375577-0.87635-1.87788 1.87788-0.50077-0.50077" clip-path="url(#p75e85dd5f0)"/><path d="m29.4686 229.623 2.93626-1.95751-0.974996-0.67031 5.60623-1.88906-3.89999 4.44842-0.243749-1.15781-2.93627 1.95751-0.487498-0.73124" clip-path="url(#p75e85dd5f0)"/><path d="m38.467 229.596 5.0486-2.5243-0.884325-0.78607 5.79725-1.1791-4.42163 3.93034-0.09826-1.1791-5.0486 2.52429-0.393033-0.78606" clip-path="url(#p75e85dd5f0)"/><path d="m-33.2101 221.061-5.54652-4.1599-0.307597 1.14251-3.64723-4.65791 5.49281 2.19713-1.01068 0.61519 5.54652 4.1599-0.52731 0.70308" clip-path="url(#p75e85dd5f0)"/><path d="m-24.3059 221.02-3.59511-3.59511-0.46608 1.08752-2.95184-5.12689 5.12689 2.95185-1.08752 0.46608 3.5951 3.5951-0.62144 0.62144" clip-path="url(#p75e85dd5f0)"/><path d="m-15.4096 220.953-1.95751-2.93626-0.67031 0.97499-1.88906-5.60623 4.44842 3.89999-1.15781 0.24375 1.95751 2.93627-0.731248 0.48749" clip-path="url(#p75e85dd5f0)"/><path d="m-6.46827 220.835-0.938941-2.81683-0.81375 0.68856-0.312981-5.32068 2.94202 4.44433-1.06413-0.0626 0.938942 2.81683-0.751155 0.25038" clip-path="url(#p75e85dd5f0)"/><path d="m2.48298 220.71v-2.81683l-0.938941 0.37558 1.31452-4.88251 1.31452 4.8825-0.938941-0.37557v2.81683h-0.751155" clip-path="url(#p75e85dd5f0)"/><path d="m11.4342 220.585 0.938942-2.81682-1.06413 0.0626 2.94202-4.44433-0.312981 5.32067-0.81375-0.68856-0.938942 2.81683-0.751155-0.25038" clip-path="url(#p75e85dd5f0)"/><path d="m20.3954 220.466 1.95751-2.93627-1.15781-0.24375 4.44842-3.89999-1.88906 5.60623-0.67031-0.97499-1.95751 2.93626-0.731248-0.48749" clip-path="url(#p75e85dd5f0)"/><path d="m29.4016 220.399 3.5951-3.5951-1.08752-0.46608 5.12689-2.95185-2.95184 5.12689-0.46608-1.08752-3.59511 3.5951-0.62144-0.62144" clip-path="url(#p75e85dd5f0)"/><path d="m38.3999 220.358 5.54652-4.1599-1.01068-0.61519 5.49281-2.19713-3.64723 4.65791-0.307597-1.14251-5.54652 4.1599-0.52731-0.70308" clip-path="url(#p75e85dd5f0)"/><path d="m-33.2572 211.741-6.03636-6.03635-0.46608 1.08752-2.95184-5.12689 5.12689 2.95184-1.08752 0.46608 6.03636 6.03636-0.62144 0.62144" clip-path="url(#p75e85dd5f0)"/><path d="m-24.3467 211.694-4.15989-5.54652-0.615195 1.01068-2.19712-5.49281 4.6579 3.64723-1.1425 0.30759 4.15989 5.54652-0.70308 0.52731" clip-path="url(#p75e85dd5f0)"/><path d="m-15.437 211.627-2.5243-5.0486-0.786068 0.88433-1.1791-5.79725 3.93034 4.42163-1.1791 0.0983 2.5243 5.0486-0.786068 0.39303" clip-path="url(#p75e85dd5f0)"/><path d="m-6.519 211.537-1.16234-4.64935-0.959186 0.69275 0.106576-5.91498 2.87756 5.16895-1.17234-0.15987 1.16234 4.64934-0.85261 0.21316" clip-path="url(#p75e85dd5f0)"/><path d="m2.41914 211.43v-4.4919l-1.09856 0.43942 1.53799-5.71252 1.53799 5.71252-1.09856-0.43942v4.4919h-0.87885" clip-path="url(#p75e85dd5f0)"/><path d="m11.3835 211.324 1.16234-4.64934-1.17234 0.15987 2.87756-5.16895 0.106575 5.91498-0.959186-0.69275-1.16234 4.64935-0.85261-0.21316" clip-path="url(#p75e85dd5f0)"/><path d="m20.368 211.234 2.5243-5.04859-1.1791-0.0983 3.93034-4.42163-1.1791 5.79725-0.786068-0.88433-2.5243 5.0486-0.786068-0.39304" clip-path="url(#p75e85dd5f0)"/><path d="m29.3608 211.167 4.15989-5.54652-1.1425-0.30759 4.6579-3.64723-2.19712 5.49281-0.615195-1.01068-4.15989 5.54652-0.70308-0.52731" clip-path="url(#p75e85dd5f0)"/><path d="m38.3528 211.12 6.03636-6.03636-1.08752-0.46608 5.12689-2.95184-2.95184 5.12689-0.46608-1.08752-6.03636 6.03635-0.62144-0.62144" clip-path="url(#p75e85dd5f0)"/></g><path d="m5.6507 249.122c0.036-0.09 0.09-0.2152 0.09-0.251 0-0.018 0-0.1973-0.2151-0.1973-0.1614 0-0.1973 0.1076-0.2332 0.2152-1.1656 2.6541-1.8291 3.8556-4.8956 3.8556h-2.6182c-0.251 0-0.2869 0-0.3945-0.018-0.1793-0.018-0.2331-0.036-0.2331-0.1794 0-0.054 0-0.09 0.09-0.4124l1.2195-4.8957h1.7753c1.5243 0 1.5243 0.3766 1.5243 0.8249 0 0.1256 0 0.3408-0.1255 0.8787-0.036 0.09-0.054 0.1436-0.054 0.1973 0 0.09 0.072 0.1973 0.2331 0.1973 0.1434 0 0.1972-0.09 0.269-0.3587l1.0221-4.1962c0-0.1076-0.09-0.1973-0.2152-0.1973-0.1613 0-0.1972 0.1075-0.251 0.3228-0.3766 1.3629-0.6994 1.7753-2.3492 1.7753h-1.6857l1.076-4.3218c0.1614-0.6276 0.1793-0.6993 0.9684-0.6993h2.5285c2.1878 0 2.7257 0.52 2.7257 1.9905 0 0.4304 0 0.4662-0.072 0.9504 0 0.1076-0.018 0.2331-0.018 0.3228 0 0.09 0.054 0.2152 0.2152 0.2152 0.1972 0 0.2152-0.1075 0.251-0.4483l0.3587-3.1024c0.054-0.4841-0.036-0.4841-0.4842-0.4841h-9.056c-0.3587 0-0.538 0-0.538 0.3587 0 0.1972 0.1614 0.1972 0.5021 0.1972 0.6635 0 1.1656 0 1.1656 0.3228 0 0.072 0 0.1076-0.09 0.4304l-2.3672 9.4864c-0.1793 0.6994-0.2151 0.8429-1.6318 0.8429-0.3049 0-0.5022 0-0.5022 0.3407 0 0.2152 0.1614 0.2152 0.5022 0.2152h9.3071c0.4124 0 0.4304-0.018 0.5559-0.3049z" color="#000000" color-rendering="auto" image-rendering="auto" shape-rendering="auto" solid-color="#000000" style="isolation:auto;mix-blend-mode:normal"/><path d="m10.349 248.006c0-0.339-0.025-0.3515-0.3766-0.3515-0.8033 0.7908-1.9457 0.8034-2.4603 0.8034v0.4519c0.3012 0 1.1297 0 1.8201-0.3515v6.402c0 0.4142 0 0.5774-1.2552 0.5774h-0.4771v0.4519c0.226-0.012 1.77-0.05 2.2345-0.05 0.3891 0 1.9708 0.038 2.2469 0.05v-0.4519h-0.477c-1.2553 0-1.2553-0.1632-1.2553-0.5774z" color="#000000" color-rendering="auto" image-rendering="auto" shape-rendering="auto" solid-color="#000000" style="isolation:auto;mix-blend-mode:normal"/></g><g fill="#00f"><g stroke-linejoin="round" stroke-miterlimit="1e5" stroke-width="1.25"><path d="m54.7393 385.741 6.03636 6.03635 0.46608-1.08752 2.95184 5.12689-5.12689-2.95184 1.08752-0.46608-6.03636-6.03636 0.62144-0.62144" clip-path="url(#pbed49c8f34)"/><path d="m64.8641 386.921 5.54652 4.15989 0.307597-1.14251 3.64723 4.65791-5.49281-2.19713 1.01068-0.61519-5.54652-4.15989 0.52731-0.70308" clip-path="url(#pbed49c8f34)"/><path d="m74.9689 388.1 5.0486 2.52429 0.09826-1.1791 4.42163 3.93034-5.79725-1.1791 0.884324-0.78607-5.04859-2.5243 0.393032-0.78606" clip-path="url(#pbed49c8f34)"/><path d="m85.0508 389.287 4.64934 1.16234-0.159863-1.17234 5.16895 2.87755-5.91498 0.10658 0.692745-0.95919-4.64934-1.16233 0.213152-0.85261" clip-path="url(#pbed49c8f34)"/><path d="m95.1161 390.495h4.4919l-0.439425-1.09857 5.71252 1.53799-5.71252 1.53799 0.439425-1.09857h-4.4919v-0.87884" clip-path="url(#pbed49c8f34)"/><path d="m105.181 391.729 4.64934-1.16234-0.69274-0.95918 5.91498 0.10657-5.16895 2.87756 0.15986-1.17234-4.64934 1.16234-0.21315-0.85261" clip-path="url(#pbed49c8f34)"/><path d="m115.263 392.982 5.0486-2.5243-0.88433-0.78607 5.79725-1.1791-4.42163 3.93034-0.0983-1.1791-5.0486 2.52429-0.39303-0.78606" clip-path="url(#pbed49c8f34)"/><path d="m125.368 394.245 5.54652-4.15989-1.01068-0.6152 5.49281-2.19712-3.64722 4.6579-0.3076-1.1425-5.54652 4.15989-0.52731-0.70308" clip-path="url(#pbed49c8f34)"/><path d="m135.493 395.506 6.03635-6.03636-1.08752-0.46608 5.12689-2.95184-2.95184 5.12689-0.46608-1.08753-6.03636 6.03636-0.62144-0.62144" clip-path="url(#pbed49c8f34)"/><path d="m56.0008 375.288 4.15989 5.54653 0.615195-1.01068 2.19712 5.49281-4.6579-3.64723 1.1425-0.30759-4.15989-5.54653 0.70308-0.52731" clip-path="url(#pbed49c8f34)"/><path d="m66.1318 376.462 3.59511 3.5951 0.46608-1.08752 2.95184 5.12689-5.12689-2.95185 1.08752-0.46608-3.5951-3.5951 0.62144-0.62144" clip-path="url(#pbed49c8f34)"/><path d="m76.2367 377.627 2.93627 1.95751 0.243749-1.15781 3.89999 4.44842-5.60623-1.88906 0.974996-0.67031-2.93626-1.95751 0.487498-0.73124" clip-path="url(#pbed49c8f34)"/><path d="m86.29 378.838 2.81683 0.93894-0.0626-1.06413 4.44433 2.94201-5.32067-0.31298 0.688557-0.81375-2.81683-0.93894 0.250385-0.75115" clip-path="url(#pbed49c8f34)"/><path d="m96.3367 380.059h2.81683l-0.375577-0.93894 4.8825 1.31452-4.8825 1.31452 0.375577-0.93894h-2.81683v-0.75116" clip-path="url(#pbed49c8f34)"/><path d="m106.383 381.279 2.81682-0.93894-0.68855-0.81375 5.32067-0.31298-4.44433 2.94201 0.0626-1.06413-2.81682 0.93894-0.25039-0.75115" clip-path="url(#pbed49c8f34)"/><path d="m116.437 382.51 2.93626-1.95751-0.975-0.67031 5.60624-1.88906-3.89999 4.44842-0.24375-1.15781-2.93627 1.95751-0.48749-0.73124" clip-path="url(#pbed49c8f34)"/><path d="m126.542 383.785 3.59511-3.59511-1.08753-0.46608 5.12689-2.95184-2.95184 5.12688-0.46608-1.08752-3.59511 3.59511-0.62144-0.62144" clip-path="url(#pbed49c8f34)"/><path d="m136.673 385.053 4.15989-5.54653-1.1425-0.30759 4.6579-3.64723-2.19712 5.49281-0.6152-1.01068-4.15989 5.54653-0.70308-0.52731" clip-path="url(#pbed49c8f34)"/><path d="m57.2629 364.855 2.5243 5.0486 0.786068-0.88433 1.1791 5.79725-3.93034-4.42163 1.1791-0.0983-2.5243-5.0486 0.786068-0.39303" clip-path="url(#pbed49c8f34)"/><path d="m67.4073 366.029 1.95751 2.93626 0.67031-0.97499 1.88906 5.60623-4.44842-3.89999 1.15781-0.24375-1.95751-2.93627 0.731248-0.48749" clip-path="url(#pbed49c8f34)"/><path d="m77.464 367.243 1.87788 1.87789 0.375577-0.87635 2.37865 4.13135-4.13135-2.37865 0.876346-0.37558-1.87788-1.87788 0.50077-0.50078" clip-path="url(#pbed49c8f34)"/><path d="m87.5107 368.463 1.87788 0.93894 0.0626-0.75115 2.81683 2.50384-3.69317-0.75115 0.563364-0.50077-1.87788-0.93894 0.250385-0.50077" clip-path="url(#pbed49c8f34)"/><path d="m97.5573 369.684h1.87788l-0.250385-0.62597 3.255 0.87635-3.255 0.87635 0.250385-0.62596h-1.87788v-0.50077" clip-path="url(#pbed49c8f34)"/><path d="m107.604 370.905 1.87789-0.93894-0.56337-0.50077 3.69318-0.75115-2.81683 2.50384-0.0626-0.75115-1.87789 0.93894-0.25038-0.50077" clip-path="url(#pbed49c8f34)"/><path d="m117.651 372.125 1.87788-1.87788-0.87635-0.37558 4.13135-2.37865-2.37865 4.13135-0.37558-0.87635-1.87788 1.87789-0.50077-0.50078" clip-path="url(#pbed49c8f34)"/><path d="m127.707 373.352 1.95751-2.93627-1.15781-0.24375 4.44842-3.89998-1.88905 5.60622-0.67031-0.97499-1.95751 2.93626-0.73125-0.48749" clip-path="url(#pbed49c8f34)"/><path d="m137.852 374.62 2.52429-5.04859-1.1791-0.0983 3.93034-4.42163-1.1791 5.79725-0.78607-0.88433-2.5243 5.0486-0.78606-0.39304" clip-path="url(#pbed49c8f34)"/><path d="m58.5168 354.445 1.16234 4.64934 0.959186-0.69274-0.106575 5.91498-2.87756-5.16895 1.17234 0.15987-1.16234-4.64934 0.85261-0.21316" clip-path="url(#pbed49c8f34)"/><path d="m68.6379 355.647 0.938942 2.81683 0.81375-0.68856 0.312981 5.32068-2.94202-4.44433 1.06413 0.0626-0.938943-2.81683 0.751155-0.25038" clip-path="url(#pbed49c8f34)"/><path d="m78.6846 356.868 0.938942 1.87788 0.500769-0.56336 0.751154 3.69317-2.50385-2.81683 0.751154-0.0626-0.938943-1.87788 0.50077-0.25039" clip-path="url(#pbed49c8f34)"/><path d="m118.871 361.75 0.93894-1.87789-0.75115-0.0626 2.50385-2.81683-0.75116 3.69317-0.50077-0.56336-0.93894 1.87788-0.50077-0.25038" clip-path="url(#pbed49c8f34)"/><path d="m128.918 362.971 0.93894-2.81682-1.06413 0.0626 2.94202-4.44433-0.31298 5.32067-0.81375-0.68856-0.93894 2.81683-0.75116-0.25038" clip-path="url(#pbed49c8f34)"/><path d="m139.039 364.21 1.16233-4.64934-1.17233 0.15987 2.87755-5.16895 0.10658 5.91498-0.95919-0.69274-1.16233 4.64934-0.85261-0.21316" clip-path="url(#pbed49c8f34)"/><path d="m59.7505 344.052v4.4919l1.09856-0.43942-1.53799 5.71252-1.53799-5.71252 1.09856 0.43942v-4.4919h0.87885" clip-path="url(#pbed49c8f34)"/><path d="m69.8585 345.272v2.81682l0.938942-0.37557-1.31452 4.8825-1.31452-4.8825 0.938941 0.37557v-2.81682h0.751155" clip-path="url(#pbed49c8f34)"/><path d="m79.9052 346.493v1.87789l0.625961-0.25039-0.876346 3.255-0.876346-3.255 0.625961 0.25039v-1.87789h0.50077" clip-path="url(#pbed49c8f34)"/><path d="m120.092 351.376v-1.87789l-0.62596 0.25039 0.87635-3.255 0.87635 3.255-0.62597-0.25039v1.87789h-0.50077" clip-path="url(#pbed49c8f34)"/><path d="m130.139 352.596v-2.81683l-0.93894 0.37557 1.31451-4.88249 1.31452 4.88249-0.93894-0.37557v2.81683h-0.75115" clip-path="url(#pbed49c8f34)"/><path d="m140.247 353.817v-4.4919l-1.09856 0.43942 1.53799-5.71252 1.53799 5.71252-1.09857-0.43942v4.4919h-0.87885" clip-path="url(#pbed49c8f34)"/><path d="m60.958 333.658-1.16234 4.64934 1.17234-0.15987-2.87756 5.16895-0.106575-5.91498 0.959186 0.69274 1.16234-4.64934 0.85261 0.21316" clip-path="url(#pbed49c8f34)"/><path d="m71.0792 334.898-0.938942 2.81682 1.06413-0.0626-2.94202 4.44433 0.312981-5.32067 0.81375 0.68856 0.938941-2.81683 0.751155 0.25038" clip-path="url(#pbed49c8f34)"/><path d="m81.1258 336.118-0.938943 1.87789 0.751154 0.0626-2.50385 2.81683 0.751154-3.69318 0.500768 0.56337 0.938943-1.87789 0.50077 0.25039" clip-path="url(#pbed49c8f34)"/><path d="m121.313 341.001-0.93894-1.87788-0.50077 0.56336-0.75116-3.69317 2.50385 2.81683-0.75115 0.0626 0.93894 1.87788-0.50077 0.25039" clip-path="url(#pbed49c8f34)"/><path d="m131.359 342.221-0.93894-2.81683-0.81375 0.68856-0.31298-5.32067 2.94202 4.44432-1.06414-0.0626 0.93895 2.81683-0.75116 0.25038" clip-path="url(#pbed49c8f34)"/><path d="m141.48 343.423-1.16234-4.64934-0.95918 0.69274 0.10657-5.91498 2.87756 5.16895-1.17234-0.15987 1.16234 4.64934-0.85261 0.21316" clip-path="url(#pbed49c8f34)"/><path d="m62.1454 323.248-2.5243 5.04859 1.1791 0.0983-3.93034 4.42162 1.1791-5.79725 0.786068 0.88433 2.5243-5.0486 0.786068 0.39304" clip-path="url(#pbed49c8f34)"/><path d="m72.2898 324.516-1.95751 2.93627 1.15781 0.24375-4.44842 3.89999 1.88906-5.60623 0.67031 0.97499 1.95751-2.93626 0.731248 0.48749" clip-path="url(#pbed49c8f34)"/><path d="m82.3465 325.743-1.87788 1.87788 0.876346 0.37558-4.13135 2.37865 2.37865-4.13135 0.375577 0.87635 1.87788-1.87789 0.50077 0.50078" clip-path="url(#pbed49c8f34)"/><path d="m92.3932 326.964-1.87788 0.93894 0.563365 0.50077-3.69317 0.75115 2.81683-2.50384 0.0626 0.75115 1.87788-0.93894 0.250385 0.50077" clip-path="url(#pbed49c8f34)"/><path d="m102.44 328.185h-1.87789l0.25039 0.62596-3.255-0.87635 3.255-0.87635-0.25039 0.62597h1.87789v0.50077" clip-path="url(#pbed49c8f34)"/><path d="m112.487 329.405-1.87788-0.93894-0.0626 0.75115-2.81683-2.50384 3.69317 0.75115-0.56336 0.50077 1.87788 0.93894-0.25038 0.50077" clip-path="url(#pbed49c8f34)"/><path d="m122.533 330.626-1.87788-1.87789-0.37558 0.87635-2.37865-4.13135 4.13135 2.37865-0.87635 0.37558 1.87788 1.87789-0.50077 0.50077" clip-path="url(#pbed49c8f34)"/><path d="m132.59 331.84-1.95751-2.93626-0.67031 0.975-1.88906-5.60623 4.44843 3.89998-1.15781 0.24375 1.95751 2.93627-0.73125 0.48749" clip-path="url(#pbed49c8f34)"/><path d="m142.734 333.013-2.5243-5.0486-0.78607 0.88433-1.1791-5.79725 3.93034 4.42163-1.1791 0.0983 2.52429 5.0486-0.78606 0.39303" clip-path="url(#pbed49c8f34)"/><path d="m63.3245 312.815-4.15989 5.54653 1.1425 0.30759-4.6579 3.64723 2.19712-5.49281 0.615195 1.01068 4.15989-5.54653 0.70308 0.52731" clip-path="url(#pbed49c8f34)"/><path d="m73.4556 314.083-3.5951 3.5951 1.08752 0.46608-5.12689 2.95185 2.95184-5.12689 0.46608 1.08752 3.59511-3.5951 0.62144 0.62144" clip-path="url(#pbed49c8f34)"/><path d="m83.5605 315.359-2.93626 1.95751 0.974996 0.67031-5.60623 1.88906 3.89999-4.44842 0.243749 1.15781 2.93627-1.95751 0.487498 0.73124" clip-path="url(#pbed49c8f34)"/><path d="m93.6138 316.589-2.81683 0.93894 0.688557 0.81375-5.32067 0.31298 4.44433-2.94201-0.0626 1.06413 2.81683-0.93894 0.250385 0.75115" clip-path="url(#pbed49c8f34)"/><path d="m103.66 317.81h-2.81683l0.37557 0.93894-4.8825-1.31452 4.8825-1.31452-0.37557 0.93894h2.81683v0.75116" clip-path="url(#pbed49c8f34)"/><path d="m113.707 319.03-2.81683-0.93894 0.0626 1.06413-4.44433-2.94201 5.32067 0.31298-0.68856 0.81375 2.81683 0.93894-0.25038 0.75115" clip-path="url(#pbed49c8f34)"/><path d="m123.76 320.241-2.93627-1.95751-0.24375 1.15781-3.89999-4.44842 5.60623 1.88906-0.97499 0.67031 2.93626 1.95751-0.48749 0.73124" clip-path="url(#pbed49c8f34)"/><path d="m133.865 321.407-3.59511-3.59511-0.46608 1.08752-2.95184-5.12688 5.12689 2.95184-1.08753 0.46608 3.59511 3.59511-0.62144 0.62144" clip-path="url(#pbed49c8f34)"/><path d="m143.996 322.58-4.15989-5.54653-0.61519 1.01068-2.19713-5.49281 4.65791 3.64723-1.14251 0.30759 4.15989 5.54653-0.70308 0.52731" clip-path="url(#pbed49c8f34)"/><path d="m64.5043 302.362-6.03636 6.03636 1.08752 0.46608-5.12689 2.95184 2.95184-5.12689 0.46608 1.08753 6.03636-6.03636 0.62144 0.62144" clip-path="url(#pbed49c8f34)"/><path d="m74.6291 303.624-5.54652 4.15989 1.01068 0.61519-5.49281 2.19713 3.64723-4.65791 0.307598 1.14251 5.54652-4.15989 0.52731 0.70308" clip-path="url(#pbed49c8f34)"/><path d="m84.7339 304.886-5.0486 2.5243 0.884325 0.78607-5.79725 1.1791 4.42163-3.93034 0.09826 1.1791 5.0486-2.52429 0.393033 0.78606" clip-path="url(#pbed49c8f34)"/><path d="m94.8158 306.14-4.64934 1.16234 0.692745 0.95918-5.91498-0.10657 5.16895-2.87756-0.159863 1.17234 4.64934-1.16234 0.213152 0.85261" clip-path="url(#pbed49c8f34)"/><path d="m104.881 307.374h-4.4919l0.43943 1.09856-5.71253-1.53799 5.71253-1.53799-0.43943 1.09857h4.4919v0.87885" clip-path="url(#pbed49c8f34)"/><path d="m114.946 308.581-4.64934-1.16233 0.15986 1.17233-5.16894-2.87755 5.91498-0.10658-0.69275 0.95919 4.64934 1.16233-0.21315 0.85261" clip-path="url(#pbed49c8f34)"/><path d="m125.028 309.769-5.04859-2.52429-0.0983 1.1791-4.42163-3.93034 5.79725 1.1791-0.88433 0.78607 5.0486 2.5243-0.39304 0.78606" clip-path="url(#pbed49c8f34)"/><path d="m135.133 310.948-5.54652-4.15989-0.3076 1.1425-3.64722-4.6579 5.49281 2.19712-1.01068 0.6152 5.54652 4.15989-0.52731 0.70308" clip-path="url(#pbed49c8f34)"/><path d="m145.258 312.127-6.03636-6.03636-0.46608 1.08753-2.95184-5.12689 5.12689 2.95184-1.08753 0.46608 6.03636 6.03636-0.62144 0.62144" clip-path="url(#pbed49c8f34)"/></g><path d="m102.34 349.383c0.036-0.09 0.09-0.2152 0.09-0.251 0-0.018 0-0.1973-0.2151-0.1973-0.1614 0-0.1973 0.1076-0.2332 0.2152-1.1656 2.6541-1.8291 3.8556-4.8956 3.8556h-2.6182c-0.251 0-0.2869 0-0.3945-0.018-0.1793-0.018-0.2331-0.036-0.2331-0.1794 0-0.054 0-0.09 0.09-0.4124l1.2195-4.8957h1.7753c1.5243 0 1.5243 0.3766 1.5243 0.8249 0 0.1256 0 0.3408-0.1256 0.8787-0.036 0.09-0.054 0.1436-0.054 0.1973 0 0.09 0.072 0.1973 0.2331 0.1973 0.1434 0 0.1972-0.09 0.269-0.3587l1.0221-4.1962c0-0.1076-0.09-0.1973-0.2152-0.1973-0.1613 0-0.1972 0.1075-0.251 0.3228-0.3766 1.3629-0.6994 1.7753-2.3492 1.7753h-1.6857l1.076-4.3218c0.1614-0.6276 0.1793-0.6993 0.9684-0.6993h2.5285c2.1878 0 2.7257 0.52 2.7257 1.9905 0 0.4304 0 0.4662-0.072 0.9504 0 0.1076-0.018 0.2331-0.018 0.3228 0 0.09 0.054 0.2152 0.2152 0.2152 0.1972 0 0.2152-0.1075 0.251-0.4483l0.3587-3.1024c0.054-0.4841-0.036-0.4841-0.4842-0.4841h-9.056c-0.3587 0-0.538 0-0.538 0.3587 0 0.1972 0.1614 0.1972 0.5021 0.1972 0.6635 0 1.1656 0 1.1656 0.3228 0 0.072 0 0.1076-0.09 0.4304l-2.3672 9.4864c-0.1793 0.6994-0.2152 0.8429-1.6318 0.8429-0.3049 0-0.5022 0-0.5022 0.3407 0 0.2152 0.1614 0.2152 0.5022 0.2152h9.3071c0.4124 0 0.4303-0.018 0.5559-0.3049z" color="#000000" color-rendering="auto" image-rendering="auto" shape-rendering="auto" solid-color="#000000" style="isolation:auto;mix-blend-mode:normal"/><path d="m109.547 348.669c0.1256-0.1506 0.1256-0.1757 0.1256-0.5021h-3.2889c-0.5021 0-0.6402-0.012-1.0921-0.05-0.6528-0.05-0.6779-0.1382-0.7155-0.3515h-0.4268l-0.4394 2.6863h0.4268c0.025-0.1883 0.1506-1.0168 0.3515-1.1423 0.1004-0.075 1.1172-0.075 1.3055-0.075h2.7365c-0.4017 0.5272-1.0419 1.3055-1.3055 1.657-1.6444 2.1591-1.795 4.155-1.795 4.8956 0 0.1382 0 0.7155 0.59 0.7155 0.6025 0 0.6025-0.5648 0.6025-0.728v-0.5021c0-2.4353 0.5021-3.5525 1.0419-4.2304z" color="#000000" color-rendering="auto" image-rendering="auto" shape-rendering="auto" solid-color="#000000" style="isolation:auto;mix-blend-mode:normal"/></g></g></svg>
