<?xml version="1.0" encoding="UTF-8"?>
<svg width="221.371" height="86.2396" version="1.1" viewBox="0 0 221.37082 86.239609" xmlns="http://www.w3.org/2000/svg"><defs><marker id="marker10010" overflow="visible" orient="auto"><path transform="matrix(-.4 0 0 -.4 -4 0)" d="m0 0 5-5-17.5 5 17.5 5z" fill="#fff" fill-rule="evenodd" stroke="#fff" stroke-width="1pt"/></marker><marker id="marker6255" overflow="visible" orient="auto"><path transform="matrix(-.4 0 0 -.4 -4 0)" d="m0 0 5-5-17.5 5 17.5 5z" fill="#fff" fill-rule="evenodd" stroke="#fff" stroke-width="1pt"/></marker><marker id="marker7304-5" overflow="visible" orient="auto"><path transform="matrix(-.4 0 0 -.4 -4 0)" d="m0 0 5-5-17.5 5 17.5 5z" fill="#f00" fill-rule="evenodd" stroke="#f00" stroke-width="1pt"/></marker></defs><g transform="translate(42.114 -252.764)"><g shape-rendering="auto"><g><path transform="matrix(0 .57225 -.57554 0 191.08 492.048)" d="m-313.248 279.726-3.55454-12.0657-9.96772 7.67206 4.21637-11.8507-12.5736 0.34794 10.3768-7.10907-10.3768-7.10907 12.5736 0.34794-4.21637-11.8507 9.96772 7.67206 3.55454-12.0657 3.55453 12.0657 9.96772-7.67206-4.21636 11.8507 12.5736-0.34794-10.3768 7.10907 10.3768 7.10907-12.5736-0.34794 4.21636 11.8507-9.96772-7.67206z" color="#000000" color-rendering="auto" fill="#f4ff00" image-rendering="auto" solid-color="#000000" stroke="#c2c216" stroke-miterlimit="5" stroke-width="1.74249" style="isolation:auto;mix-blend-mode:normal"/><rect transform="rotate(90)" x="253.264" y="-16.4247" width="38.7226" height="58.0387" color="#000000" color-rendering="auto" fill="#8b8b8b" image-rendering="auto" solid-color="#000000" style="isolation:auto;mix-blend-mode:normal"/><rect transform="rotate(90)" x="299.781" y="-40.8268" width="38.7226" height="82.4408" color="#000000" color-rendering="auto" fill="#8b8b8b" image-rendering="auto" solid-color="#000000" style="isolation:auto;mix-blend-mode:normal"/></g><path d="m16.4248 253.264v38.7226" color="#000000" color-rendering="auto" fill="none" image-rendering="auto" solid-color="#000000" stroke="#3d3d3d" stroke-width="5" style="isolation:auto;mix-blend-mode:normal"/><path d="m40.8269 299.781v38.7226" color="#000000" color-rendering="auto" fill="none" image-rendering="auto" solid-color="#000000" stroke="#3d3d3d" stroke-width="5" style="isolation:auto;mix-blend-mode:normal"/></g><g fill="#fff" stroke-width="1.5"><path d="m-17.352 278.164c0-1.638-1.206-1.638-1.224-1.638-0.72 0-1.368 0.756-1.368 1.368 0 0.504 0.378 0.72 0.54 0.81 0.756 0.45 0.9 0.774 0.9 1.134 0 0.396-1.044 4.338-3.15 4.338-1.296 0-1.296-1.08-1.296-1.404 0-1.044 0.504-2.358 1.08-3.798 0.144-0.36 0.198-0.522 0.198-0.81 0-1.044-1.044-1.62-2.034-1.62-1.908 0-2.808 2.448-2.808 2.808 0 0.252 0.27 0.252 0.432 0.252 0.216 0 0.342 0 0.414-0.234 0.576-1.944 1.53-2.178 1.854-2.178 0.126 0 0.306 0 0.306 0.378 0 0.414-0.216 0.936-0.27 1.08-0.828 2.088-1.098 2.898-1.098 3.762 0 1.908 1.548 2.412 3.114 2.412 3.096 0 4.41-5.112 4.41-6.66z"/><path d="m-8.30405 283.42c0.108-0.276 0.312-0.804 1.02-0.816v-0.396c-0.396 0.036-0.42 0.036-0.936 0.036-0.384 0-0.708 0-1.092-0.036v0.396c0.528 0.024 0.66 0.336 0.66 0.552 0 0.144-0.036 0.216-0.06 0.3l-1.14 2.988-1.236-3.276c-0.06-0.156-0.06-0.192-0.06-0.24 0-0.312 0.384-0.324 0.672-0.324v-0.396c-0.468 0.036-1.104 0.036-1.224 0.036-0.264 0-0.756 0-1.116-0.036v0.396c0.732 0 0.756 0.06 0.984 0.696l-1.104 2.964-1.188-3.108c-0.012-0.048-0.06-0.18-0.06-0.228 0-0.324 0.456-0.324 0.672-0.324v-0.396c-0.516 0.036-1.056 0.036-1.284 0.036-0.216 0-0.828 0-1.176-0.036v0.396c0.6 0 0.72 0.048 0.852 0.384l1.608 4.224c0.072 0.18 0.108 0.288 0.3 0.288 0.204 0 0.252-0.132 0.312-0.288l1.272-3.372 1.272 3.372c0.06 0.156 0.108 0.288 0.312 0.288 0.192 0 0.24-0.12 0.288-0.252z"/><path d="m-2.32955 283.804c0-1.176-1.14-1.776-2.232-1.776-0.996 0-1.884 0.384-1.884 1.176 0 0.36 0.252 0.576 0.564 0.576 0.336 0 0.564-0.24 0.564-0.564 0-0.288-0.18-0.492-0.444-0.552 0.444-0.3 1.092-0.3 1.176-0.3 0.672 0 1.344 0.468 1.344 1.452v0.372c-0.696 0.036-1.5 0.072-2.34 0.42-1.056 0.456-1.26 1.152-1.26 1.548 0 1.032 1.212 1.344 2.04 1.344 0.876 0 1.416-0.492 1.68-0.972 0.06 0.456 0.372 0.912 0.9 0.912 0.12 0 1.14-0.048 1.14-1.14v-0.66h-0.372v0.66c0 0.492-0.18 0.684-0.432 0.684-0.444 0-0.444-0.552-0.444-0.684zm-0.912 1.884c0 1.164-0.984 1.476-1.464 1.476-0.624 0-1.152-0.42-1.152-0.996 0-0.792 0.744-1.608 2.616-1.668z"/><path d="m1.29745 279.052-1.788 0.132v0.396c0.816 0 0.912 0.084 0.912 0.672v6.192c0 0.54-0.144 0.54-0.912 0.54v0.396c0.468-0.036 1.14-0.036 1.344-0.036 0.24 0 0.888 0 1.356 0.036v-0.396c-0.768 0-0.912 0-0.912-0.54z"/><path d="m4.83896 279.052-1.788 0.132v0.396c0.816 0 0.912 0.084 0.912 0.672v6.192c0 0.54-0.144 0.54-0.912 0.54v0.396c0.468-0.036 1.14-0.036 1.344-0.036 0.24 0 0.888 0 1.356 0.036v-0.396c-0.768 0-0.912 0-0.912-0.54z"/></g><path d="m-26.514 266.275h33.6188" color="#000000" color-rendering="auto" fill="none" image-rendering="auto" marker-end="url(#marker10010)" shape-rendering="auto" solid-color="#000000" stroke="#fff" stroke-width="2" style="isolation:auto;mix-blend-mode:normal"/><path d="m92.8653 278.968c0.252 0 0.576 0 0.576-0.324 0-0.342-0.306-0.342-0.576-0.342h-10.602c-0.252 0-0.576 0-0.576 0.324 0 0.342 0.306 0.342 0.576 0.342zm0 3.34799c0.252 0 0.576 0 0.576-0.32399 0-0.34201-0.306-0.34201-0.576-0.34201h-10.602c-0.252 0-0.576 0-0.576 0.324 0 0.342 0.306 0.342 0.576 0.342z" fill="#f00" stroke-width="1.5"/><path d="m108.729 279.058c0-1.728 0-6.066-4.248-6.066-4.266 0-4.266 4.32-4.266 6.066 0 1.728 0 5.958 4.248 5.958s4.266-4.17601 4.266-5.958zm-4.248 5.36399c-0.576 0-1.008-0.234-1.368-0.61199-0.45-0.45-0.738-0.738-0.738-4.968 0-1.26 0-2.412 0.144-3.348 0.252-1.782 1.548-1.908 1.944-1.908 0.576 0 1.692 0.27 1.944 1.782 0.162 0.918 0.162 2.376 0.162 3.474 0 4.24799-0.27 4.49999-0.81 5.04-0.36 0.36-0.846 0.53999-1.278 0.53999z" fill="#f00" stroke-width="1.5"/><g shape-rendering="auto"><g fill="#f00"><circle transform="rotate(90)" cx="266.275" cy="-47.3307" r="6.71751" color="#000000" color-rendering="auto" image-rendering="auto" solid-color="#000000" style="isolation:auto;mix-blend-mode:normal"/><g stroke-width="1.5"><path d="m130.545 325.648c0.252 0 0.576 0 0.576-0.324 0-0.342-0.306-0.342-0.576-0.342h-10.602c-0.252 0-0.576 0-0.576 0.324 0 0.342 0.306 0.342 0.576 0.342zm0 3.348c0.252 0 0.576 0 0.576-0.324 0-0.342-0.306-0.342-0.576-0.342h-10.602c-0.252 0-0.576 0-0.576 0.324 0 0.342 0.306 0.342 0.576 0.342z" color="#000000" color-rendering="auto" image-rendering="auto" solid-color="#000000" style="isolation:auto;mix-blend-mode:normal"/><path d="m145.023 328.456h-0.396c-0.054 0.306-0.198 1.296-0.378 1.584-0.126 0.162-1.152 0.162-1.692 0.162h-3.33c0.486-0.414 1.584-1.566 2.052-1.998 2.736-2.52 3.744-3.456 3.744-5.238 0-2.07-1.638-3.456-3.726-3.456s-3.312 1.782-3.312 3.33c0 0.918 0.792 0.918 0.846 0.918 0.378 0 0.846-0.27 0.846-0.846 0-0.504-0.342-0.846-0.846-0.846-0.162 0-0.198 0-0.252 0.018 0.342-1.224 1.314-2.052 2.484-2.052 1.53 0 2.466 1.278 2.466 2.934 0 1.53-0.882 2.862-1.908 4.014l-3.636 4.068v0.432h6.57z" color="#000000" color-rendering="auto" image-rendering="auto" solid-color="#000000" style="isolation:auto;mix-blend-mode:normal"/><path d="m155.654 324.964c0-1.638-1.206-1.638-1.224-1.638-0.72 0-1.368 0.756-1.368 1.368 0 0.504 0.378 0.72 0.54 0.81 0.756 0.45 0.9 0.774 0.9 1.134 0 0.396-1.044 4.338-3.15 4.338-1.296 0-1.296-1.08-1.296-1.404 0-1.044 0.504-2.358 1.08-3.798 0.144-0.36 0.198-0.522 0.198-0.81 0-1.044-1.044-1.62-2.034-1.62-1.908 0-2.808 2.448-2.808 2.808 0 0.252 0.27 0.252 0.432 0.252 0.216 0 0.342 0 0.414-0.234 0.576-1.944 1.53-2.178 1.854-2.178 0.126 0 0.306 0 0.306 0.378 0 0.414-0.216 0.936-0.27 1.08-0.828 2.088-1.098 2.898-1.098 3.762 0 1.908 1.548 2.412 3.114 2.412 3.096 0 4.41-5.112 4.41-6.66z" color="#000000" color-rendering="auto" image-rendering="auto" solid-color="#000000" style="isolation:auto;mix-blend-mode:normal"/><path d="m164.702 330.219c0.108-0.276 0.312-0.804 1.02-0.816v-0.396c-0.396 0.036-0.42 0.036-0.936 0.036-0.384 0-0.708 0-1.092-0.036v0.396c0.528 0.024 0.66 0.336 0.66 0.552 0 0.144-0.036 0.216-0.06 0.3l-1.14 2.988-1.236-3.276c-0.06-0.156-0.06-0.192-0.06-0.24 0-0.312 0.384-0.324 0.672-0.324v-0.396c-0.468 0.036-1.104 0.036-1.224 0.036-0.264 0-0.756 0-1.116-0.036v0.396c0.732 0 0.756 0.06 0.984 0.696l-1.104 2.964-1.188-3.108c-0.012-0.048-0.06-0.18-0.06-0.228 0-0.324 0.456-0.324 0.672-0.324v-0.396c-0.516 0.036-1.056 0.036-1.284 0.036-0.216 0-0.828 0-1.176-0.036v0.396c0.6 0 0.72 0.048 0.852 0.384l1.608 4.224c0.072 0.18 0.108 0.288 0.3 0.288 0.204 0 0.252-0.132 0.312-0.288l1.272-3.372 1.272 3.372c0.06 0.156 0.108 0.288 0.312 0.288 0.192 0 0.24-0.12 0.288-0.252z" color="#000000" color-rendering="auto" image-rendering="auto" solid-color="#000000" style="isolation:auto;mix-blend-mode:normal"/><path d="m170.676 330.603c0-1.176-1.14-1.776-2.232-1.776-0.996 0-1.884 0.384-1.884 1.176 0 0.36 0.252 0.576 0.564 0.576 0.336 0 0.564-0.24 0.564-0.564 0-0.288-0.18-0.492-0.444-0.552 0.444-0.3 1.092-0.3 1.176-0.3 0.672 0 1.344 0.468 1.344 1.452v0.372c-0.696 0.036-1.5 0.072-2.34 0.42-1.056 0.456-1.26 1.152-1.26 1.548 0 1.032 1.212 1.344 2.04 1.344 0.876 0 1.416-0.492 1.68-0.972 0.06 0.456 0.372 0.912 0.9 0.912 0.12 0 1.14-0.048 1.14-1.14v-0.66h-0.372v0.66c0 0.492-0.18 0.684-0.432 0.684-0.444 0-0.444-0.552-0.444-0.684zm-0.912 1.884c0 1.164-0.984 1.476-1.464 1.476-0.624 0-1.152-0.42-1.152-0.996 0-0.792 0.744-1.608 2.616-1.668z" color="#000000" color-rendering="auto" image-rendering="auto" solid-color="#000000" style="isolation:auto;mix-blend-mode:normal"/><path d="m174.303 325.851-1.788 0.132v0.396c0.816 0 0.912 0.084 0.912 0.672v6.192c0 0.54-0.144 0.54-0.912 0.54v0.396c0.468-0.036 1.14-0.036 1.344-0.036 0.24 0 0.888 0 1.356 0.036v-0.396c-0.768 0-0.912 0-0.912-0.54z" color="#000000" color-rendering="auto" image-rendering="auto" solid-color="#000000" style="isolation:auto;mix-blend-mode:normal"/><path d="m177.845 325.851-1.788 0.132v0.396c0.816 0 0.912 0.084 0.912 0.672v6.192c0 0.54-0.144 0.54-0.912 0.54v0.396c0.468-0.036 1.14-0.036 1.344-0.036 0.24 0 0.888 0 1.356 0.036v-0.396c-0.768 0-0.912 0-0.912-0.54z" color="#000000" color-rendering="auto" image-rendering="auto" solid-color="#000000" style="isolation:auto;mix-blend-mode:normal"/></g><circle transform="rotate(90)" cx="312.792" cy="-77.2198" r="6.71751" color="#000000" color-rendering="auto" image-rendering="auto" solid-color="#000000" style="isolation:auto;mix-blend-mode:normal"/></g><path d="m-2.11191 312.792h33.6188" color="#000000" color-rendering="auto" fill="none" image-rendering="auto" marker-end="url(#marker6255)" solid-color="#000000" stroke="#fff" stroke-width="2" style="isolation:auto;mix-blend-mode:normal"/><path d="m77.2198 312.792h67.2375" color="#000000" color-rendering="auto" fill="none" image-rendering="auto" marker-end="url(#marker7304-5)" solid-color="#000000" stroke="#f00" stroke-width="2" style="isolation:auto;mix-blend-mode:normal"/></g><g fill="#f00" stroke-width="1.5"><path d="m58.5163 273.584c0-0.48419-0.41245-0.95045-0.95043-0.95045-0.60972 0-0.96837 0.50213-0.96837 0.95045 0 0.48418 0.41246 0.95043 0.95043 0.95043 0.60972 0 0.96837-0.50211 0.96837-0.95043z"/><path d="m61.2667 277.689c-0.64559 0.17932-0.96837 0.78903-0.96837 1.23735 0 0.39453 0.30486 0.82491 0.89664 0.82491 0.62764 0 1.29115-0.52005 1.29115-1.39875 0-0.95045-0.95043-1.57809-2.04433-1.57809-1.02216 0-1.68567 0.77112-1.9188 1.0939-0.44832-0.75318-1.45256-1.0939-2.47472-1.0939-2.25952 0-3.47896 2.20573-3.47896 2.79751 0 0.25106 0.26899 0.25106 0.43039 0.25106 0.21519 0 0.34073 0 0.41246-0.23312 0.52005-1.63188 1.8112-2.16987 2.54644-2.16987 0.68145 0 1.00424 0.32279 1.00424 0.89664 0 0.34073-0.25106 1.32702-0.41246 1.97261l-0.6097 2.45677c-0.269 1.09391-0.91458 1.63188-1.52429 1.63188-0.0897 0-0.50212 0-0.86077-0.26898 0.64557-0.17932 0.96837-0.78904 0.96837-1.23736 0-0.39452-0.30486-0.82491-0.89664-0.82491-0.62765 0-1.29116 0.52005-1.29116 1.39876 0 0.95043 0.95043 1.57807 2.04434 1.57807 1.02216 0 1.68567-0.7711 1.9188-1.09388 0.44832 0.75316 1.45255 1.09388 2.47471 1.09388 2.25953 0 3.47895-2.20571 3.47895-2.79749 0-0.25107-0.26898-0.25107-0.43038-0.25107-0.21519 0-0.34072 0-0.41245 0.23313-0.52005 1.63188-1.81121 2.16985-2.54645 2.16985-0.68145 0-1.00423-0.32278-1.00423-0.89662 0-0.37659 0.23313-1.32704 0.39451-1.99055 0.12554-0.46624 0.53799-2.15193 0.62765-2.43885 0.26899-1.07596 0.89664-1.63188 1.52428-1.63188 0.0897 0 0.50213 0 0.86078 0.269z"/><path d="m66.1204 279.825c0-0.36403-0.30127-0.71551-0.72807-0.71551-0.37659 0-0.71552 0.30127-0.71552 0.71551 0 0.45191 0.36404 0.72807 0.71552 0.72807 0.40169 0 0.72807-0.31381 0.72807-0.72807zm-1.90805 2.3474v0.4519c0.79084 0 0.90382 0.0753 0.90382 0.69042v3.26376c0 0.53978-0.12554 0.53978-0.94148 0.53978v0.4519c0.0251 0 0.90381-0.0503 1.40594-0.0503 0.43935 0 0.89125 0.012 1.3306 0.0503v-0.4519c-0.72807 0-0.85359 0-0.85359-0.52722v-4.55672z"/><path d="m73.982 283.767c0-1.09211-0.53978-1.73231-1.88294-1.73231-1.02934 0-1.69465 0.56489-2.04613 1.21764h-0.0126v-1.21764l-1.84528 0.13815v0.45191c0.84105 0 0.94147 0.0879 0.94147 0.70297v3.25121c0 0.53977-0.12552 0.53977-0.94147 0.53977v0.45191c0.0251 0 0.90382-0.0503 1.43104-0.0503 0.46446 0 1.33061 0.0377 1.44359 0.0503v-0.45191c-0.81594 0-0.94148 0-0.94148-0.53977v-2.25953c0-1.31806 1.0419-1.93315 1.8704-1.93315 0.8787 0 0.99168 0.6904 0.99168 1.3306v2.86208c0 0.53977-0.12554 0.53977-0.94148 0.53977v0.45191c0.0251 0 0.90381-0.0503 1.43103-0.0503 0.46446 0 1.33062 0.0377 1.44359 0.0503v-0.45191c-0.81594 0-0.94146 0-0.94146-0.53977z"/><path d="m87.4586 320.382c0-0.48419-0.41245-0.95045-0.95043-0.95045-0.60972 0-0.96837 0.50213-0.96837 0.95045 0 0.48418 0.41246 0.95043 0.95043 0.95043 0.60972 0 0.96837-0.50211 0.96837-0.95043z"/><path d="m90.209 324.487c-0.64558 0.17932-0.96837 0.78903-0.96837 1.23735 0 0.39453 0.30486 0.82491 0.89664 0.82491 0.62765 0 1.29116-0.52005 1.29116-1.39875 0-0.95045-0.95043-1.57809-2.04434-1.57809-1.02216 0-1.68567 0.77112-1.9188 1.0939-0.44832-0.75318-1.45255-1.0939-2.47471-1.0939-2.25953 0-3.47896 2.20573-3.47896 2.79751 0 0.25106 0.26899 0.25106 0.43038 0.25106 0.2152 0 0.34073 0 0.41246-0.23312 0.52005-1.63188 1.81121-2.16987 2.54645-2.16987 0.68145 0 1.00423 0.32279 1.00423 0.89664 0 0.34073-0.25105 1.32702-0.41245 1.97261l-0.60971 2.45677c-0.26899 1.09391-0.91458 1.63188-1.52428 1.63188-0.0897 0-0.50213 0-0.86078-0.26898 0.64557-0.17932 0.96837-0.78904 0.96837-1.23736 0-0.39452-0.30486-0.82491-0.89664-0.82491-0.62765 0-1.29116 0.52005-1.29116 1.39876 0 0.95043 0.95044 1.57807 2.04434 1.57807 1.02216 0 1.68567-0.7711 1.9188-1.09388 0.44832 0.75316 1.45256 1.09388 2.47472 1.09388 2.25952 0 3.47895-2.20571 3.47895-2.79749 0-0.25107-0.26898-0.25107-0.43038-0.25107-0.21519 0-0.34073 0-0.41246 0.23313-0.52005 1.63188-1.8112 2.16985-2.54644 2.16985-0.68145 0-1.00424-0.32278-1.00424-0.89662 0-0.37659 0.23313-1.32704 0.39452-1.99055 0.12553-0.46624 0.53799-2.15193 0.62764-2.43885 0.269-1.07596 0.89664-1.63188 1.52429-1.63188 0.0897 0 0.50212 0 0.86077 0.269z"/><path d="m99.056 331.694c0-1.5691-1.34316-2.92482-3.07546-2.92482-1.73231 0-3.07547 1.35572-3.07547 2.92482 0 1.55657 1.38081 2.79931 3.07547 2.79931 1.69465 0 3.07546-1.24274 3.07546-2.79931zm-3.07546 2.39762c-0.46446 0-1.14233-0.15063-1.55657-0.76574-0.33892-0.51466-0.37659-1.16742-0.37659-1.74484 0-0.53978 0.0126-1.2804 0.45191-1.82018 0.31383-0.36403 0.84105-0.6402 1.48125-0.6402 0.74062 0 1.26784 0.35148 1.54401 0.74063 0.35148 0.48955 0.38913 1.1172 0.38913 1.71975s-0.0376 1.26784-0.40169 1.78251c-0.33892 0.47701-0.91636 0.72807-1.53145 0.72807z"/><path d="m104.068 328.97v0.4519c0.84105 0 0.94148 0.0879 0.94148 0.70298v2.14654c0 1.10466-0.71552 1.87038-1.66955 1.87038-1.14231 0-1.19253-0.53977-1.19253-1.17996v-4.12992l-1.93314 0.13815v0.45191c0.94146 0 0.94146 0.0377 0.94146 1.15488v1.88293c0 0.86615 0 2.03358 2.09634 2.03358 0.27617 0 1.19253 0 1.79507-1.05445h0.0126v1.05445l1.88294-0.12555v-0.4519c-0.84104 0-0.94146-0.0879-0.94146-0.70296v-4.38098z"/><path d="m109.951 329.409h1.95826v-0.4519h-1.95826v-2.30975h-0.4268c-0.0126 1.12977-0.52722 2.37251-1.7323 2.41016v0.35149h1.16742v3.38928c0 1.40594 1.05445 1.69465 1.75741 1.69465 0.84105 0 1.41848-0.71552 1.41848-1.7072v-0.69041h-0.4268v0.67787c0 0.85359-0.4017 1.31805-0.89125 1.31805-0.86616 0-0.86616-1.05444-0.86616-1.2804z"/></g></g></svg>
