<?xml version="1.0" encoding="UTF-8"?>
<svg width="163.405" height="89.1093" version="1.1" viewBox="0 0 163.40517 89.109291" xmlns="http://www.w3.org/2000/svg">
 <g stroke-linejoin="round" stroke-miterlimit="1e5">
  <g stroke-width="1.5">
   <path d="m98.237 7.117c0.0717-0.25106 0.0717-0.28692 0.0717-0.41246 0-0.32278-0.25106-0.48418-0.52005-0.48418-0.17933 0-0.46625 0.10755-0.62765 0.37659-0.0359 0.0897-0.17932 0.64559-0.25105 0.96837-0.12555 0.46624-0.25106 0.95043-0.35865 1.43461l-0.80699 3.2279c-0.0717 0.26899-0.84283 1.52428-2.02639 1.52428-0.91457 0-1.11183-0.78902-1.11183-1.45255 0-0.8249 0.30486-1.93673 0.91456-3.51481 0.28694-0.73525 0.35867-0.93251 0.35867-1.29116 0-0.80697-0.57386-1.47048-1.4705-1.47048-1.70361 0-2.36712 2.60025-2.36712 2.76163 0 0.17933 0.17933 0.17933 0.21519 0.17933 0.17933 0 0.19727-0.0358 0.28692-0.32279 0.48419-1.68568 1.2015-2.22366 1.81122-2.22366 0.1434 0 0.44832 0 0.44832 0.57384 0 0.44833-0.17934 0.91458-0.30486 1.25531-0.71731 1.90086-1.0401 2.92303-1.0401 3.76587 0 1.59601 1.12976 2.13401 2.1878 2.13401 0.69937 0 1.30909-0.30487 1.8112-0.80699-0.23313 0.93251-0.44832 1.81122-1.16563 2.76165-0.46625 0.60972-1.14769 1.12977-1.97259 1.12977-0.25107 0-1.05804-0.0539-1.3629-0.75318 0.28694 0 0.52005 0 0.77112-0.21519 0.17933-0.1614 0.35865-0.39453 0.35865-0.73526 0-0.55591-0.48418-0.62764-0.66351-0.62764-0.41245 0-1.00423 0.28693-1.00423 1.16563 0 0.89664 0.78904 1.56015 1.90087 1.56015 1.84707 0 3.69414-1.63188 4.19626-3.65827z"/>
   <path d="m115.994 8.139c0.25107-0.10755 0.35866-0.23314 0.35866-0.39454 0-0.17932-0.0717-0.28692-0.35866-0.41245l-9.88094-4.66251c-0.25107-0.12555-0.3228-0.12555-0.35866-0.12555-0.21519 0-0.35865 0.1614-0.35865 0.35867 0 0.21519 0.1434 0.30484 0.34072 0.39451l9.41469 4.4294-9.37882 4.42937c-0.35867 0.16141-0.37659 0.30487-0.37659 0.41246 0 0.19726 0.1614 0.35865 0.35865 0.35865 0.0539 0 0.0897 0 0.3228-0.12555zm-0.26898 8.26699c0.30484 0 0.62764 0 0.62764-0.35867 0-0.35866-0.37659-0.35864-0.64558-0.35864h-9.66574c-0.269 0-0.64559 0-0.64559 0.35864 0 0.35865 0.32279 0.35867 0.62765 0.35867z"/>
   <path d="m129.364 6.777h1.54221c0.35866 0 0.53799 0 0.53799-0.35865 0-0.19726-0.17934-0.19726-0.48418-0.19726h-1.48842l0.37659-2.04434c0.0717-0.37659 0.32278-1.6498 0.43038-1.86499 0.1614-0.34073 0.46624-0.60972 0.84283-0.60972 0.0717 0 0.53799 0 0.87872 0.32278-0.78904 0.0717-0.96837 0.69938-0.96837 0.96838 0 0.41245 0.32279 0.62764 0.66351 0.62764 0.46625 0 0.9863-0.39452 0.9863-1.07597 0-0.82489-0.8249-1.23734-1.56015-1.23734-0.60971 0-1.73948 0.32278-2.27745 2.09812-0.10755 0.37659-0.1614 0.55592-0.59178 2.81544h-1.23737c-0.34072 0-0.53799 0-0.53799 0.34072 0 0.21519 0.1614 0.21519 0.50213 0.21519h1.18356l-1.34496 7.08344c-0.32279 1.73949-0.62765 3.37137-1.56015 3.37137-0.0717 0-0.52005 0-0.86076-0.3228 0.82489-0.0539 0.98629-0.69938 0.98629-0.96837 0-0.41245-0.32278-0.62764-0.66351-0.62764-0.46624 0-0.98629 0.39453-0.98629 1.07596 0 0.80698 0.78903 1.23737 1.52427 1.23737 0.98631 0 1.70361-1.05804 2.02641-1.73948 0.57384-1.12977 0.98629-3.29963 1.00423-3.42516z"/>
   <path d="m142.385 18.254c0-0.0539 0-0.0897-0.30486-0.39451-2.24159-2.25953-2.81544-5.64882-2.81544-8.39253 0-3.12031 0.68145-6.24061 2.88717-8.4822 0.23313-0.21519 0.23313-0.25106 0.23313-0.30485 0-0.12555-0.0717-0.17934-0.17933-0.17934-0.17932 0-1.79328 1.21944-2.8513 3.49689-0.91458 1.97261-1.12977 3.96313-1.12977 5.4695 0 1.39875 0.19726 3.56862 1.18356 5.59501 1.07596 2.20574 2.61819 3.37135 2.79752 3.37135 0.10754 0 0.17932-0.0539 0.17932-0.17932z"/>
   <path d="m149.412 8.534c0.10755-0.46626 0.52005-2.11607 1.77534-2.11607 0.0897 0 0.52005 0 0.89664 0.23313-0.50212 0.0897-0.86077 0.53798-0.86077 0.96837 0 0.28692 0.19725 0.62765 0.68143 0.62765 0.39453 0 0.96837-0.3228 0.96837-1.0401 0-0.9325-1.05802-1.18356-1.66774-1.18356-1.0401 0-1.66775 0.95043-1.88294 1.36289-0.44832-1.18356-1.41669-1.36289-1.93674-1.36289-1.865 0-2.88717 2.31332-2.88717 2.76163 0 0.17933 0.17933 0.17933 0.21519 0.17933 0.1434 0 0.19727-0.0358 0.23313-0.19725 0.60972-1.90088 1.79328-2.3492 2.40299-2.3492 0.34072 0 0.96837 0.1614 0.96837 1.2015 0 0.55592-0.30486 1.7574-0.96837 4.268-0.28692 1.11183-0.91457 1.86499-1.70361 1.86499-0.10755 0-0.52005 0-0.89664-0.23311 0.44832-0.0897 0.84285-0.46626 0.84285-0.96837 0-0.48418-0.39453-0.62764-0.66353-0.62764-0.53797 0-0.98629 0.46624-0.98629 1.0401 0 0.82489 0.89664 1.18356 1.68569 1.18356 1.18356 0 1.82913-1.25531 1.88293-1.36291 0.21519 0.66351 0.86078 1.36291 1.93674 1.36291 1.84707 0 2.86923-2.31333 2.86923-2.76166 0-0.17932-0.16138-0.17932-0.21519-0.17932-0.1614 0-0.19726 0.0717-0.23313 0.19726-0.59178 1.91881-1.8112 2.34918-2.38505 2.34918-0.69937 0-0.98631-0.57383-0.98631-1.18356 0-0.39451 0.10755-0.78904 0.30486-1.57807z"/>
   <path d="m158.816 9.467c0-1.39877-0.19725-3.56863-1.18356-5.59502-1.07597-2.20573-2.61818-3.37137-2.7975-3.37137-0.10755 0-0.17933 0.0717-0.17933 0.17934 0 0.0539 0 0.0897 0.34073 0.41244 1.7574 1.77536 2.77956 4.62666 2.77956 8.37461 0 3.06649-0.66351 6.22266-2.88716 8.48218-0.23313 0.21519-0.23313 0.25106-0.23313 0.30486 0 0.10755 0.0717 0.17933 0.17933 0.17933 0.17932 0 1.79326-1.21943 2.8513-3.49689 0.91457-1.97259 1.12976-3.96314 1.12976-5.46948z"/>
  </g>
  <path d="m0.5 88.609v-55.8459l1.64046-0.0393 1.64046 0.34179 1.64045 0.74899 1.64046 1.15246 1.64045 1.52264 1.64046 1.83231 1.64046 2.05854 1.64045 2.18427 1.64045 2.19958 1.64047 2.10234 1.64045 1.89838 1.64045 1.60106 1.64046 1.23036 1.64046 0.81143 1.64045 0.37284 1.64046-0.0555 1.64045-0.44421 1.64046-0.767 1.64046-1.00208 1.64045-1.13384 1.64046-1.15404 1.64046-1.06228 1.64045-0.86611 1.64045-0.58044 1.64047-0.2265 1.64045 0.16963 1.64045 0.5789 1.64046 0.97134 1.64046 1.31815 1.64045 1.59377 1.64046 1.77767 1.64045 1.85581 1.64047 1.82161 1.64046 1.67645 1.64045 1.42952 1.64045 1.09725 1.64047 0.70209 1.64045 0.2709 1.64045-0.16687 1.64047-0.58132 1.64045-0.94421 1.64045-1.23092 1.64046-1.42224 1.64046-1.5057 1.64045-1.47642 1.64046-1.33755 1.64045-1.09993 1.64046-0.78141 1.64047-0.40556h1.64045l1.64046 0.40556 1.64046 0.78141 1.64045 1.09993 1.64046 1.33755 1.64045 1.47642 1.64046 1.5057 1.64046 1.42224 1.64045 1.23092 1.64046 0.94421 1.64045 0.58132 1.64046 0.16687 1.64045-0.2709 1.64046-0.70209 1.64046-1.09725 1.64045-1.42952 1.64045-1.67645 1.64047-1.82161 1.64044-1.85581 1.64045-1.77767 1.64046-1.59377 1.64046-1.31815 1.64045-0.97134 1.64046-0.5789 1.64045-0.16963 1.64046 0.2265 1.64046 0.58044 1.64045 0.86611 1.64045 1.06228 1.64047 1.15404 1.64045 1.13384 1.64045 1.00208 1.64047 0.767 1.64045 0.44421 1.64045 0.0555 1.64046-0.37284 1.64046-0.81143 1.64045-1.23036 1.64046-1.60106 1.64045-1.89838 1.64047-2.10234 1.64045-2.19958 1.64045-2.18427 1.64046-2.05854 1.64046-1.83231 1.64045-1.52264 1.64046-1.15246 1.64045-0.74899 1.64046-0.34179 1.64046 0.0393v55.8459z" clip-path="url(#p825fbd034e)" color="#000000" color-rendering="auto" fill="#cacaca" image-rendering="auto" shape-rendering="auto" solid-color="#000000" style="font-variant-east_asian:normal;isolation:auto;mix-blend-mode:normal"/>
 </g>
 <path d="m3.3652 31.474-1.61523 0.0391-1.25 0.0312 0.0605 2.5 1.25-0.0312 1.46875-0.0352 1.33203 0.28126 1.38086 0.64062 1.45117 1.03516 1.50977 1.42578 1.55273 1.76172 1.58203 2.01562 1.60352 2.16797 1.61328 2.19922a1.25012 1.25012 0 0 0 0.0156 0.0215l1.61524 2.10157a1.25012 1.25012 0 0 0 0.0391 0.0488l1.61328 1.89844a1.25012 1.25012 0 0 0 0.0723 0.0781l1.61523 1.59961a1.25012 1.25012 0 0 0 0.12305 0.10742l1.61328 1.23047a1.25012 1.25012 0 0 0 0.19726 0.12304l1.61329 0.81055a1.25012 1.25012 0 0 0 0.28125 0.10156l1.61523 0.37305a1.25012 1.25012 0 0 0 0.32422 0.0312l1.61328-0.0566a1.25012 1.25012 0 0 0 0.28906 -0.043l1.61524-0.44531a1.25012 1.25012 0 0 0 0.20312 -0.0762l1.61524-0.76563a1.25012 1.25012 0 0 0 0.12304 -0.0684l1.61524-1.00195a1.25012 1.25012 0 0 0 0.0586 -0.0391l1.61524-1.13282a1.25012 1.25012 0 0 0 8e-3 -6e-3l1.5957-1.14062 1.54688-1.01758 1.48437-0.79687 1.40625-0.50586 1.33399-0.1875 1.3125 0.13867 1.35742 0.48633 1.43164 0.86132 1.5 1.22461 1.54883 1.52735 1.58203 1.74414 1.60547 1.8457a1.25012 1.25012 0 0 0 8e-3 8e-3l1.61523 1.82227a1.25012 1.25012 0 0 0 0.0352 0.0371l1.61328 1.67773a1.25012 1.25012 0 0 0 0.0723 0.0684l1.61523 1.42969a1.25012 1.25012 0 0 0 0.125 0.0977l1.61524 1.09765a1.25012 1.25012 0 0 0 0.20312 0.11133l1.61523 0.70313a1.25012 1.25012 0 0 0 0.29102 0.0859l1.61523 0.27149a1.25012 1.25012 0 0 0 0.33594 0.01l1.61328-0.16601a1.25012 1.25012 0 0 0 0.29492 -0.0684l1.61524-0.58008a1.25012 1.25012 0 0 0 0.20703 -0.0977l1.61523-0.94531a1.25012 1.25012 0 0 0 0.12696 -0.084l1.61523-1.23047a1.25012 1.25012 0 0 0 0.0684 -0.0566l1.61328-1.42188a1.25012 1.25012 0 0 0 0.0273 -0.0234l1.60937-1.50196 1.58789-1.45117 1.54492-1.28125 1.49024-1.01562 1.41601-0.68555 1.33985-0.33594h1.30664l1.33984 0.33594 1.41602 0.68555 1.49023 1.01562 1.54492 1.28125 1.58789 1.45117 1.60938 1.50196a1.25012 1.25012 0 0 0 0.0273 0.0234l1.61524 1.42188a1.25012 1.25012 0 0 0 0.0684 0.0566l1.61328 1.23047a1.25012 1.25012 0 0 0 0.12695 0.084l1.61524 0.94531a1.25012 1.25012 0 0 0 0.20703 0.0977l1.61523 0.58008a1.25012 1.25012 0 0 0 0.29492 0.0684l1.61329 0.16601a1.25012 1.25012 0 0 0 0.33593 -0.01l1.61524-0.27149a1.25012 1.25012 0 0 0 0.29101 -0.0859l1.61524-0.70313a1.25012 1.25012 0 0 0 0.20312 -0.11133l1.61524-1.09765a1.25012 1.25012 0 0 0 0.125 -0.0977l1.61523-1.42969a1.25012 1.25012 0 0 0 0.0723 -0.0684l1.61523-1.67773a1.25012 1.25012 0 0 0 0.0332 -0.0371l1.61524-1.82227a1.25012 1.25012 0 0 0 8e-3 -8e-3l1.60547-1.8457 1.58398-1.74414 1.54688-1.52735 1.5-1.22461 1.43164-0.86132 1.35742-0.48633 1.3125-0.13867 1.33399 0.1875 1.40625 0.50586 1.48437 0.79687 1.54688 1.01758 1.5957 1.14062a1.25012 1.25012 0 0 0 8e-3 6e-3l1.61524 1.13282a1.25012 1.25012 0 0 0 0.0586 0.0391l1.61523 1.00195a1.25012 1.25012 0 0 0 0.12305 0.0684l1.61524 0.76563a1.25012 1.25012 0 0 0 0.20312 0.0762l1.61523 0.44531a1.25012 1.25012 0 0 0 0.28907 0.043l1.61523 0.0566a1.25012 1.25012 0 0 0 0.32422 -0.0312l1.61328-0.37305a1.25012 1.25012 0 0 0 0.28125 -0.10156l1.61328-0.81055a1.25012 1.25012 0 0 0 0.19727 -0.12304l1.61328-1.23047a1.25012 1.25012 0 0 0 0.12305 -0.10742l1.61523-1.59961a1.25012 1.25012 0 0 0 0.0723 -0.0781l1.61328-1.89844a1.25012 1.25012 0 0 0 0.0391 -0.0488l1.61523-2.10157a1.25012 1.25012 0 0 0 0.0156 -0.0215l1.61328-2.19922 1.60352-2.16797 1.58203-2.01562 1.55273-1.76172 1.50977-1.42578 1.45117-1.03516 1.38086-0.64062 1.33203-0.28126 1.46875 0.0352 1.25 0.0312 0.0605-2.5-1.25-0.0312-1.61524-0.0391a1.25012 1.25012 0 0 0 -0.28906 0.0273l-1.61328 0.3418a1.25012 1.25012 0 0 0 -0.26758 0.0898l-1.61523 0.74805a1.25012 1.25012 0 0 0 -0.19922 0.11719l-1.61524 1.15234a1.25012 1.25012 0 0 0 -0.13086 0.10742l-1.61523 1.52344a1.25012 1.25012 0 0 0 -0.0801 0.082l-1.61523 1.83203a1.25012 1.25012 0 0 0 -0.0449 0.0547l-1.61524 2.05859a1.25012 1.25012 0 0 0 -0.0215 0.0293l-1.61328 2.1836a1.25012 1.25012 0 0 0 -4e-3 4e-3l-1.60547 2.18945-1.58789 2.06641-1.56055 1.83398-1.51953 1.50586-1.45703 1.11133-1.37695 0.69141-1.3086 0.30273-1.30273-0.0449-1.36719-0.37695-1.45117-0.68946-1.52539-0.94726-1.58203-1.10938-1.60938-1.15039a1.25012 1.25012 0 0 0 -0.041 -0.0273l-1.61328-1.0625a1.25012 1.25012 0 0 0 -0.0977 -0.0586l-1.61328-0.86524a1.25012 1.25012 0 0 0 -0.16797 -0.0742l-1.61524-0.58203a1.25012 1.25012 0 0 0 -0.25 -0.0605l-1.61328-0.22656a1.25012 1.25012 0 0 0 -0.30468 -6e-3l-1.61524 0.16992a1.25012 1.25012 0 0 0 -0.29101 0.0664l-1.61329 0.58008a1.25012 1.25012 0 0 0 -0.22265 0.10547l-1.61524 0.9707a1.25012 1.25012 0 0 0 -0.14648 0.10352l-1.61523 1.3164a1.25012 1.25012 0 0 0 -0.0859 0.0801l-1.61524 1.59375a1.25012 1.25012 0 0 0 -0.0469 0.0488l-1.61524 1.77734a1.25012 1.25012 0 0 0 -0.0176 0.0195l-1.61133 1.85157-1.59375 1.79882-1.56055 1.6211-1.51758 1.34375-1.45312 0.98633-1.36524 0.5957-1.29687 0.2168-1.29492-0.13477-1.36328-0.49023-1.44922-0.84766-1.51758-1.1582-1.56836-1.38086-1.60156-1.49219a1.25012 1.25012 0 0 0 -0.01 -0.01l-1.61523-1.47656a1.25012 1.25012 0 0 0 -0.0449 -0.0391l-1.61524-1.33789a1.25012 1.25012 0 0 0 -0.0937 -0.0703l-1.61328-1.09961a1.25012 1.25012 0 0 0 -0.16016 -0.0918l-1.61523-0.78125a1.25012 1.25012 0 0 0 -0.24024 -0.0879l-1.61328-0.40625a1.25012 1.25012 0 0 0 -0.30468 -0.0371h-1.61524a1.25012 1.25012 0 0 0 -0.30469 0.0371l-1.61328 0.40625a1.25012 1.25012 0 0 0 -0.24023 0.0879l-1.61524 0.78125a1.25012 1.25012 0 0 0 -0.1582 0.0918l-1.61523 1.09961a1.25012 1.25012 0 0 0 -0.0937 0.0703l-1.61524 1.33789a1.25012 1.25012 0 0 0 -0.0449 0.0391l-1.61523 1.47656a1.25012 1.25012 0 0 0 -0.01 0.01l-1.60156 1.49219-1.56836 1.38086-1.51758 1.1582-1.44922 0.84766-1.36328 0.49023-1.29492 0.13477-1.29688-0.2168-1.36523-0.5957-1.45313-0.98633-1.51562-1.34375-1.5625-1.6211-1.59375-1.79882-1.61133-1.85157a1.25012 1.25012 0 0 0 -0.0176 -0.0195l-1.61523-1.77734a1.25012 1.25012 0 0 0 -0.0469 -0.0488l-1.61523-1.59375a1.25012 1.25012 0 0 0 -0.0859 -0.0801l-1.61523-1.3164a1.25012 1.25012 0 0 0 -0.14649 -0.10352l-1.61523-0.9707a1.25012 1.25012 0 0 0 -0.22071 -0.10547l-1.61523-0.58008a1.25012 1.25012 0 0 0 -0.29101 -0.0664l-1.61524-0.16992a1.25012 1.25012 0 0 0 -0.30469 6e-3l-1.61328 0.22656a1.25012 1.25012 0 0 0 -0.25 0.0605l-1.61523 0.58203a1.25012 1.25012 0 0 0 -0.16797 0.0742l-1.61328 0.86524a1.25012 1.25012 0 0 0 -0.0977 0.0586l-1.61328 1.0625a1.25012 1.25012 0 0 0 -0.041 0.0273l-1.60937 1.15039-1.58203 1.10938-1.52344 0.94726-1.45312 0.68946-1.36719 0.37695-1.30274 0.0449-1.30859-0.30273-1.37695-0.69141-1.45703-1.11133-1.51954-1.50586-1.56054-1.83398-1.58789-2.06641-1.60547-2.18945a1.25012 1.25012 0 0 0 -2e-3 -4e-3l-1.61524-2.1836a1.25012 1.25012 0 0 0 -0.0215 -0.0293l-1.61524-2.05859a1.25012 1.25012 0 0 0 -0.0449 -0.0547l-1.61523-1.83203a1.25012 1.25012 0 0 0 -0.0801 -0.082l-1.61524-1.52344a1.25012 1.25012 0 0 0 -0.13086 -0.10742l-1.61523-1.15234a1.25012 1.25012 0 0 0 -0.19922 -0.11719l-1.61523-0.74805a1.25012 1.25012 0 0 0 -0.26758 -0.0898l-1.61328-0.3418a1.25012 1.25012 0 0 0 -0.28907 -0.0273z" clip-path="url(#p825fbd034e)" color="#000000" color-rendering="auto" fill="#555" image-rendering="auto" shape-rendering="auto" solid-color="#000000" style="isolation:auto;mix-blend-mode:normal;text-decoration-color:#000000;text-decoration-line:none;text-decoration-style:solid;text-indent:0;text-transform:none;white-space:normal"/>
</svg>
