<?xml version="1.0" encoding="UTF-8"?>
<svg width="112.426" height="104.221" version="1.1" viewBox="0 0 112.42613 104.22099" xmlns="http://www.w3.org/2000/svg">
 <path d="m61.8214 84.567-56.9422-68.1953" fill="none" stroke="#000" stroke-width="1px"/>
 <path d="m105.966 86.549 5.96024-12.9391-4.71684 1.91373v-25.7274h-2.59985v25.6988l-4.71684-1.88517z" color="#000000" fill="#f00" style="text-decoration-line:none;text-indent:0;text-transform:none"/>
 <g stroke-width="1.5">
  <path d="m57.3199 98.267c0.036-0.108 0.486-1.008 1.152-1.584 0.468-0.432 1.08-0.72 1.782-0.72 0.72 0 0.972 0.54 0.972 1.26 0 0.108 0 0.468-0.216 1.314l-0.45 1.854c-0.144 0.54-0.486 1.872-0.522 2.07-0.072 0.27-0.18 0.738-0.18 0.81 0 0.252 0.198 0.45 0.468 0.45 0.54 0 0.63-0.414 0.792-1.062l1.08-4.302c0.036-0.144 0.972-2.394 2.952-2.394 0.72 0 0.972 0.54 0.972 1.26 0 1.008-0.702 2.97-1.098 4.05-0.162 0.432-0.252 0.666-0.252 0.99 0 0.81 0.558 1.458 1.422 1.458 1.674 0 2.304-2.646 2.304-2.754 0-0.09-0.072-0.162-0.18-0.162-0.162 0-0.18 0.054-0.27 0.36-0.414 1.44-1.08 2.196-1.8 2.196-0.18 0-0.468-0.018-0.468-0.594 0-0.468 0.216-1.044 0.288-1.242 0.324-0.864 1.134-2.988 1.134-4.032 0-1.08-0.63-1.89-1.998-1.89-1.206 0-2.178 0.684-2.898 1.746-0.054-0.972-0.648-1.746-1.998-1.746-1.602 0-2.448 1.134-2.772 1.584-0.054-1.026-0.792-1.584-1.584-1.584-0.522003 0-0.936003 0.252-1.278 0.936-0.324 0.648-0.576001 1.746-0.576001 1.818s0.072 0.162 0.198001 0.162c0.144 0 0.162-0.018 0.27-0.432 0.27-1.062 0.612-2.124 1.332-2.124 0.414 0 0.558 0.288 0.558 0.828 0 0.396-0.18 1.098-0.306 1.656l-0.504003 1.944c-0.072 0.342-0.27 1.152-0.36 1.476-0.126 0.468-0.324 1.314-0.324 1.404 0 0.252 0.198 0.45 0.468 0.45 0.216 0 0.468003-0.108 0.612003-0.378 0.036-0.09 0.198-0.72 0.288-1.08l0.396-1.62z"/>
  <path d="m26.2768 52.93c0.018-0.072 0.054-0.18 0.054-0.27 0-0.18-0.18-0.18-0.216-0.18-0.018 0-0.666 0.054-0.99 0.09-0.306 0.018-0.576001 0.054-0.900001 0.072-0.432 0.036-0.558 0.054-0.558 0.37799 0 0.18001 0.18 0.18001 0.36 0.18001 0.918001 0 0.918001 0.16199 0.918001 0.34199 0 0.072 0 0.108-0.09 0.43201l-2.232 8.928c-0.054 0.198-0.09 0.342-0.09 0.63 0 0.9 0.666 1.62 1.584 1.62 0.594001 0 0.990001-0.396 1.278-0.954 0.306-0.594 0.558-1.728 0.558-1.8 0-0.09-0.072-0.162-0.18-0.162-0.162 0-0.18 0.09-0.252 0.36-0.324 1.242-0.648 2.196-1.368 2.196-0.54 0-0.54-0.576-0.54-0.828 0-0.072 0-0.45 0.126-0.954z"/>
  <path d="m110.622 34.428c0.072-0.288 0.072-0.396 0.072-0.468 0-0.576-0.468-0.792-0.846-0.792-0.36 0-0.684 0.162-0.918 0.432-0.252-0.27-0.846-0.738-1.908-0.738-3.186 0-5.058 2.844-5.058 5.202 0 2.124 1.602 2.934 3.15 2.934 0.936 0 1.656-0.36 1.98-0.558-0.108 0.45-0.216 0.9-0.342 1.35-0.126 0.522-0.252 1.062-0.882 1.566-0.756 0.63-1.35 0.63-1.836 0.63-0.432 0-0.756 0-1.224-0.072 0.522-0.378 0.558-0.972 0.558-1.044 0-0.396-0.306-0.828-0.9-0.828s-1.278 0.504-1.278 1.332c0 1.188 1.584 1.26 2.862 1.26 1.62 0 4.104-0.378 4.644-2.538zm-3.15 4.536c-0.072 0.252-0.072 0.324-0.288 0.522-0.954 0.864-1.8 0.864-1.962 0.864-0.702 0-1.224-0.396-1.224-1.35 0-0.864 0.594-3.024 0.864-3.69 0.63-1.548 1.656-1.8 2.196-1.8 1.116 0 1.512 0.882 1.512 1.008 0 0.036 0 0.072-0.054 0.27z" fill="#f00"/>
  <path d="m78.7018 67.492c-0.648 0.18-0.972 0.792-0.972 1.242 0 0.396 0.306 0.828 0.9 0.828 0.63 0 1.296-0.522 1.296-1.404 0-0.954-0.954-1.584-2.052-1.584-1.026 0-1.692 0.774-1.926 1.098-0.45-0.756-1.458-1.098-2.484-1.098-2.268 0-3.492 2.214-3.492 2.808 0 0.252 0.27 0.252 0.432 0.252 0.216 0 0.342 0 0.414-0.234 0.522-1.638 1.818-2.178 2.556-2.178 0.684 0 1.008 0.324 1.008 0.9 0 0.342-0.252 1.332-0.414 1.98l-0.612 2.466c-0.27 1.098-0.918 1.638-1.53 1.638-0.09 0-0.504 0-0.864-0.27 0.648-0.18 0.972-0.792 0.972-1.242 0-0.396-0.306-0.828-0.9-0.828-0.63 0-1.296 0.522-1.296 1.404 0 0.954 0.954 1.584 2.052 1.584 1.026 0 1.692-0.774 1.926-1.098 0.45 0.756 1.458 1.098 2.484 1.098 2.268 0 3.492-2.214 3.492-2.808 0-0.252-0.27-0.252-0.432-0.252-0.216 0-0.342 0-0.414 0.234-0.522 1.638-1.818 2.178-2.556 2.178-0.684 0-1.008-0.324-1.008-0.9 0-0.378 0.234-1.332 0.396-1.998 0.126-0.468 0.54-2.16 0.63-2.448 0.27-1.08 0.9-1.638 1.53-1.638 0.09 0 0.504 0 0.864 0.27z"/>
  <path d="m22.5543 8.294c0.108-0.45 0.288-1.17 0.288-1.332 0-0.576-0.468-0.792-0.846-0.792-0.342 0-0.702 0.18-0.918 0.45-0.27-0.288-0.864-0.756-1.908-0.756-3.132 0-5.076 2.844-5.076 5.31 0 2.214 1.656 2.97 3.15 2.97 1.278 0 2.214-0.702 2.502-0.972 0.684 0.972 1.872 0.972 2.07 0.972 0.666 0 1.188-0.378 1.566-1.026 0.45-0.72 0.684-1.692 0.684-1.782 0-0.252-0.27-0.252-0.432-0.252-0.198 0-0.27 0-0.36 0.09-0.036 0.036-0.036 0.072-0.144 0.522-0.36 1.44-0.774 1.8-1.224 1.8-0.198 0-0.414-0.072-0.414-0.666 0-0.306 0.072-0.594 0.252-1.314 0.126-0.504 0.306-1.224 0.396-1.62zm-2.988 4.032c-0.522 0.612-1.368 1.17-2.232 1.17-1.116 0-1.206-0.972-1.206-1.368 0-0.936 0.612-3.15 0.9-3.852 0.558-1.314 1.44-1.764 2.178-1.764 1.062 0 1.494 0.846 1.494 1.044l-0.036 0.252z"/>
  <path d="m33.5253 18.374c0-0.054 0-0.09-0.306-0.396-1.8-1.818-2.808-4.788-2.808-8.46 0-3.492 0.846-6.498 2.934-8.622 0.18-0.162 0.18-0.198 0.18-0.252 0-0.108-0.09-0.144-0.162-0.144-0.234 0-1.71 1.296-2.592 3.06-0.918 1.818-1.332 3.744-1.332 5.958 0 1.602 0.252 3.744 1.188 5.67 1.062 2.16 2.538 3.33 2.736 3.33 0.072 0 0.162-0.036 0.162-0.144z"/>
  <path d="m38.1483 6.764h1.656c0.342 0 0.522 0 0.522-0.324 0-0.198-0.108-0.198-0.468-0.198h-1.584l0.666-2.628c0.072-0.252 0.072-0.288 0.072-0.414 0-0.288-0.234-0.45-0.468-0.45-0.144 0-0.558 0.054-0.702 0.63l-0.702 2.862h-1.692c-0.36 0-0.522 0-0.522 0.342 0 0.18 0.126 0.18 0.468 0.18h1.602l-1.188 4.752c-0.144 0.63-0.198 0.81-0.198 1.044 0 0.846 0.594 1.62 1.602 1.62 1.818 0 2.79-2.628 2.79-2.754 0-0.108-0.072-0.162-0.18-0.162-0.036 0-0.108 0-0.144 0.072-0.018 0.018-0.036 0.036-0.162 0.324-0.378 0.9-1.206 2.16-2.25 2.16-0.54 0-0.576-0.45-0.576-0.846 0-0.018 0-0.36 0.054-0.576z" fill="#f00"/>
  <path d="m45.9708 9.518c0-1.368-0.18-3.6-1.188-5.688-1.062-2.16-2.538-3.33-2.736-3.33-0.072 0-0.162 0.036-0.162 0.144 0 0.054 0 0.09 0.306 0.396 1.8 1.818 2.808 4.788 2.808 8.46 0 3.492-0.846 6.498-2.934 8.622-0.18 0.162-0.18 0.198-0.18 0.252 0 0.108 0.09 0.144 0.162 0.144 0.234 0 1.71-1.296 2.592-3.06 0.918-1.836 1.332-3.78 1.332-5.94z"/>
 </g>
 <ellipse transform="rotate(-26.402)" cx="17.769" cy="103.236" rx="7.50001" ry="7.50001" color="#000000" fill="#5e5bff" stroke-linejoin="round" stroke-miterlimit="1e5"/>
 <circle cx="4.8792" cy="16.3717" r="4" color="#000000" stroke-linejoin="round" stroke-miterlimit="1e5" stroke-width=".825702"/>
</svg>
