<?xml version="1.0" encoding="UTF-8"?>
<svg width="178.246" height="60.7209" version="1.1" viewBox="0 0 178.24551 60.720913" xmlns="http://www.w3.org/2000/svg"><defs><marker id="DotS" overflow="visible" orient="auto"><path transform="matrix(.2 0 0 .2 1.48 .2)" d="m-2.5-1c0 2.76-2.24 5-5 5s-5-2.24-5-5 2.24-5 5-5 5 2.24 5 5z" fill="#545454" fill-rule="evenodd" stroke="#545454" stroke-width="1pt"/></marker></defs><g transform="translate(31.9799 -268.381)"><path d="m-21.5216 328.16c2.94684-5.99375 6.17804-11.1822 9.64831-15.665 10.6203-13.719 23.4797-20.8291 37.2803-24.1863 18.4383-4.48545 38.5566-2.27206 57.2597-0.17134 20.2804 2.27788 38.8966 4.42329 51.9025-2.24803 4.04047-2.07255 7.53947-4.99603 10.3787-9.03082" fill="none" marker-mid="url(#DotS)" stroke="#545454" stroke-width="2"/><circle transform="rotate(-8.81163)" cx="17.2025" cy="292.207" r="6.14186" color="#000000" fill="#3338f6"/><g stroke-width="1.33333"><path d="m-22.6656 303.606c0.260136 0 0.535592 0 0.535592-0.30605 0-0.30604-0.275456-0.30605-0.535592-0.30605h-8.27872c-0.260144 0-0.535592 0-0.535592 0.30605 0 0.30607 0.275448 0.30605 0.535592 0.30605z"/><path d="m-16.3944 297.332c0-0.36726 0-0.39786-0.351968-0.39786-0.94876 0.97936-2.29538 0.97936-2.78507 0.97936v0.47439c0.306048 0 1.20891 0 2.00465-0.39788v7.92676c0 0.5509-0.04592 0.73453-1.42314 0.73453h-0.489688v0.47438c0.535592-0.0459 1.86692-0.0459 2.47902-0.0459 0.612112 0 1.94342 0 2.47903 0.0459v-0.47438h-0.489696c-1.37724 0-1.42314-0.16833-1.42314-0.73453z"/><path d="m12.4757 272.018c0-1.00999-0.27544-3.13704-1.83631-3.13704-2.12706 0-4.48366 4.31532-4.48366 7.81964 0 1.43844 0.443776 3.13703 1.83631 3.13703 2.15767 0 4.48366-4.39186 4.48366-7.81963zm-4.6979 2.09644c0.260144-0.97936 0.566208-2.20356 1.1783-3.29006 0.413168-0.74982 0.97936-1.60677 1.66799-1.60677 0.749824 0 0.84164 0.97937 0.84164 1.85163 0 0.74982-0.122424 1.53024-0.48968 3.0452zm3.06053 0.48969c-0.168336 0.70393-0.489688 2.00465-1.07118 3.10643-0.535584 1.04058-1.11709 1.7904-1.7751 1.7904-0.504984 0-0.826336-0.44377-0.826336-1.86692 0-0.64269 0.091808-1.53024 0.489672-3.02991z"/><path d="m27.8582 274.665c0.229544 0 0.520296 0 0.520296-0.30605s-0.290752-0.30605-0.504984-0.30605h-9.16627c-0.21424 0-0.504992 0-0.504992 0.30605 0 0.30607 0.290752 0.30605 0.520296 0.30605zm0.01528 2.9687c0.214232 0 0.504984 0 0.504984-0.30604 0-0.30605-0.290752-0.30605-0.520296-0.30605h-9.13566c-0.229544 0-0.520296 0-0.520296 0.30605 0 0.30604 0.290752 0.30604 0.504992 0.30604z"/><path d="m40.4933 274.772c0-1.22422-0.07648-2.44843-0.612112-3.58082-0.70392-1.46905-1.95873-1.71389-2.60145-1.71389-0.918152 0-2.03525 0.39786-2.66265 1.821-0.489688 1.05589-0.5662 2.24949-0.5662 3.47371 0 1.14769 0.0612 2.52493 0.688616 3.68792 0.658024 1.23951 1.7751 1.54556 2.52494 1.54556 0.826344 0 1.98934-0.32135 2.66266-1.77511 0.48968-1.05587 0.5662-2.24948 0.5662-3.45837zm-3.22886 4.89683c-0.5968 0-1.49966-0.38257-1.7751-1.85162-0.168328-0.91816-0.168328-2.326-0.168328-3.22885 0-0.97937 0-1.98935 0.122416-2.81568 0.290752-1.82101 1.43846-1.95874 1.82102-1.95874 0.504992 0 1.51496 0.27544 1.80571 1.79042 0.153024 0.85694 0.153024 2.01993 0.153024 2.984 0 1.14769 0 2.18827-0.168336 3.16764-0.229536 1.45374-1.10178 1.91283-1.7904 1.91283z"/><path d="m82.7235 272.337c0-0.36726 0-0.39786-0.35196-0.39786-0.94876 0.97937-2.29538 0.97937-2.78507 0.97937v0.47438c0.30604 0 1.2089 0 2.00464-0.39788v7.92676c0 0.5509-0.0459 0.73453-1.42314 0.73453h-0.48969v0.47438c0.53559-0.046 1.86692-0.046 2.47903-0.046s1.94342 0 2.47902 0.046v-0.47438h-0.48969c-1.37724 0-1.42314-0.16834-1.42314-0.73453z"/><path d="m128.771 278.437 1.62207-1.57616c2.38721-2.11176 3.30537-2.9381 3.30537-4.46837 0-1.7445-1.37723-2.9687-3.24416-2.9687-1.72919 0-2.86158 1.40783-2.86158 2.76977 0 0.85694 0.76513 0.85694 0.81103 0.85694 0.26015 0 0.79574-0.18363 0.79574-0.81103 0-0.39788-0.27544-0.79574-0.81103-0.79574-0.12242 0-0.15303 0-0.19894 0.0154 0.35196-0.99467 1.1783-1.56087 2.06585-1.56087 1.39254 0 2.05055 1.23951 2.05055 2.49432 0 1.22421-0.76513 2.43312-1.60677 3.38188l-2.93811 3.27476c-0.16832 0.16834-0.16832 0.19894-0.16832 0.5662h5.67727l0.42847-2.66266h-0.38257c-0.0765 0.45909-0.18363 1.13239-0.33665 1.36194-0.10712 0.12236-1.11709 0.12236-1.45375 0.12236z"/></g><g stroke-width="1.33333"><path d="m64.5142 304.862c-0.688624 0.19128-1.03293 0.84163-1.03293 1.31984 0 0.42083 0.325184 0.8799 0.956416 0.8799 0.669488 0 1.37723-0.55472 1.37723-1.492 0-1.01381-1.01379-1.6833-2.18062-1.6833-1.0903 0-1.79805 0.82253-2.04672 1.16684-0.478208-0.8034-1.54939-1.16684-2.6397-1.16684-2.41016 0-3.71088 2.35279-3.71088 2.98402 0 0.26779 0.286928 0.26779 0.459072 0.26779 0.229536 0 0.36344 0 0.439952-0.24865 0.55472-1.74068 1.93195-2.31453 2.71621-2.31453 0.72688 0 1.07118 0.3443 1.07118 0.95641 0 0.36344-0.267792 1.41549-0.439952 2.10412l-0.650352 2.62056c-0.286928 1.16683-0.975552 1.74067-1.6259 1.74067-0.09568 0-0.5356 0-0.91816-0.28691 0.688608-0.19128 1.03293-0.84165 1.03293-1.31986 0-0.42082-0.325184-0.8799-0.956416-0.8799-0.669488 0-1.37723 0.55472-1.37723 1.49201 0 1.01379 1.01379 1.68328 2.18062 1.68328 1.0903 0 1.79805-0.82251 2.04672-1.16681 0.478208 0.80337 1.54939 1.16681 2.6397 1.16681 2.41016 0 3.71088-2.35277 3.71088-2.984 0-0.26781-0.286912-0.26781-0.459072-0.26781-0.229536 0-0.36344 0-0.439952 0.24868-0.55472 1.74067-1.93195 2.31451-2.71621 2.31451-0.72688 0-1.07118-0.34431-1.07118-0.9564 0-0.4017 0.248672-1.41551 0.420816-2.12325 0.13392-0.49733 0.573856-2.29539 0.669488-2.60144 0.286928-1.1477 0.956416-1.74067 1.6259-1.74067 0.09568 0 0.5356 0 0.91816 0.28693z"/><path d="m76.3882 317.124c0-0.0574 0-0.0957-0.325184-0.42081-2.39102-2.41016-3.00314-6.02541-3.00314-8.95204 0-3.32832 0.726881-6.65664 3.07965-9.04768 0.248672-0.22953 0.248672-0.26779 0.248672-0.32516 0-0.13392-0.07648-0.1913-0.19128-0.1913-0.19128 0-1.91283 1.30074-3.04139 3.73002-0.975552 2.10411-1.20509 4.22734-1.20509 5.83412 0 1.492 0.210416 3.80653 1.26246 5.96802 1.1477 2.35279 2.79274 3.59611 2.98402 3.59611 0.11472 0 0.19128-0.0574 0.19128-0.19128z"/><path d="m86.1985 302.969c0-1.26248-0.344304-3.9213-2.29539-3.9213-2.65883 0-5.60459 5.39416-5.60459 9.77455 0 1.79805 0.55472 3.92129 2.29541 3.92129 2.69709 0 5.60458-5.48982 5.60458-9.77454zm-5.87238 2.62056c0.325184-1.22421 0.70776-2.75446 1.47288-4.11258 0.516464-0.93728 1.22421-2.00846 2.08499-2.00846 0.93728 0 1.05205 1.22421 1.05205 2.31453 0 0.93728-0.15296 1.91281-0.612096 3.80651zm3.82566 0.61211c-0.210416 0.87991-0.612112 2.50581-1.33898 3.88304-0.669488 1.30072-1.39637 2.238-2.21888 2.238-0.631232 0-1.03293-0.55472-1.03293-2.33365 0-0.80337 0.11472-1.91281 0.612096-3.78739z"/><path d="m92.5 307.751c0-1.49201-0.2104-3.80652-1.26246-5.96801-1.1477-2.35279-2.79272-3.59613-2.984-3.59613-0.11472 0-0.19128 0.0765-0.19128 0.1913 0 0.0574 0 0.0957 0.36344 0.43993 1.87456 1.89371 2.96486 4.93511 2.96486 8.93291 0 3.27093-0.707744 6.63751-3.07963 9.04767-0.248672 0.22954-0.248672 0.26779-0.248672 0.32518 0 0.11472 0.07648 0.19128 0.19128 0.19128 0.19128 0 1.91282-1.30072 3.04139-3.73001 0.975536-2.1041 1.20507-4.22735 1.20507-5.83412z"/></g></g></svg>
