<?xml version="1.0" encoding="UTF-8"?>
<svg width="167.611" height="107.416" version="1.1" viewBox="0 0 167.60999 107.41505" xmlns="http://www.w3.org/2000/svg">
 <defs>
  <marker id="marker6157" overflow="visible" orient="auto">
   <path transform="matrix(-.4 0 0 -.4 -4 0)" d="m0 0 5-5-17.5 5 17.5 5z" fill="#f00" fill-rule="evenodd" stroke="#f00" stroke-width="1pt"/>
  </marker>
 </defs>
 <path d="m167.11 41.2038c-65.1237 0-129.662 14.966-165.292 64.7066h165.292z" color="#000000" color-rendering="auto" fill="#dcdcdc" image-rendering="auto" shape-rendering="auto" solid-color="#000000" style="isolation:auto;mix-blend-mode:normal"/>
 <g fill="none">
  <path d="m1.72054 106.043c35.6103-49.8482 100.207-64.8385 165.389-64.8385" color="#000000" color-rendering="auto" image-rendering="auto" shape-rendering="auto" solid-color="#000000" stroke="#555" stroke-linejoin="round" stroke-miterlimit="100" stroke-width="2.99999" style="isolation:auto;mix-blend-mode:normal"/>
  <path d="m17.282 76.198 101.647-38.7396" stroke="#000" stroke-width=".999994px"/>
  <path d="m79.6039 52.4998-4.3782-11.5391-11.4877 4.39777" stroke="#000" stroke-width=".999994px"/>
  <path d="m68.1088 56.827-19.6406-51.5341" marker-end="url(#marker6157)" stroke="#f00" stroke-width="1.99998"/>
 </g>
 <circle cx="68.1055" cy="56.8282" r="4.99997" color="#000000" stroke-linejoin="round" stroke-miterlimit="1e5" stroke-width=".825696"/>
 <g fill="#f00" stroke-width="1.49999">
  <path d="m69.7597 2.13159c0-1.63187-1.20149-1.63187-1.21943-1.63187-0.717294 0-1.36288 0.753174-1.36288 1.36288 0 0.502116 0.376587 0.717304 0.537985 0.806963 0.753164 0.448317 0.896633 0.771114 0.896633 1.12976 0 0.394506-1.04009 4.32175-3.13821 4.32175-1.29114 0-1.29114-1.07594-1.29114-1.39874 0-1.04009 0.502106-2.34916 1.07595-3.78379 0.143398-0.358647 0.197268-0.520045 0.197268-0.806963 0-1.04009-1.04009-1.61394-2.02639-1.61394-1.90084 0-2.79748 2.43884-2.79748 2.79749 0 0.251058 0.268992 0.251058 0.430376 0.251058 0.215203 0 0.340722 0 0.412451-0.233118 0.573835-1.93672 1.52427-2.16985 1.84705-2.16985 0.125544 0 0.304853 0 0.304853 0.376587 0 0.412457-0.215188 0.932502-0.268988 1.07596-0.824903 2.08018-1.09388 2.88714-1.09388 3.74791 0 1.90086 1.5422 2.40297 3.10233 2.40297 3.0844 0 4.39349-5.09287 4.39349-6.63506z"/>
  <path d="m79.6716 7.12055c0.251058-0.627635 0.665314-0.753174 1.05445-0.765713v-0.451897c-0.338937 0.0377-0.539775 0.0503-0.903802 0.0503-0.376587 0-0.853603-0.012-1.23019-0.0503v0.451897c0.439347 0.012 0.652755 0.251057 0.652755 0.552325 0 0.100349 0 0.125549-0.0753 0.301257l-1.21763 3.12566-1.35571-3.42692c-0.025-0.0628-0.0627-0.163199-0.0627-0.238508 0-0.276168 0.326357-0.313817 0.677834-0.313817v-0.451897c-0.451896 0.0377-0.903802 0.0503-1.3557 0.0503-0.364037 0-0.740624-0.025-1.10465-0.0503v0.451897c0.288717 0 0.552325 0 0.715523 0.100349 0.175739 0.125549 0.288708 0.539785 0.288708 0.552325 0 0.0251-0.0251 0.100499-0.0503 0.150649l-1.17997 2.98762-1.26783-3.23862c-0.0753-0.175749-0.0753-0.188289-0.0753-0.238508 0-0.313817 0.451896-0.313817 0.677844-0.313817v-0.451897c-0.025 0-0.916362 0.0503-1.41847 0.0503-0.389136 0-0.790833-0.012-1.17996-0.0503v0.451897c0.489545 0 0.765713 0 0.903802 0.364036l1.74484 4.43114c0.0753 0.188288 0.112949 0.288718 0.338917 0.288718 0.225958 0 0.263608-0.10035 0.326367-0.263608l1.41848-3.59012 1.39336 3.55245c0.0753 0.188299 0.125549 0.301278 0.351487 0.301278 0.225958 0 0.263607-0.0879 0.338927-0.288718z"/>
  <path d="m86.2949 7.94954c0-0.665304 0-1.1423-0.577415-1.60676-0.514676-0.426807-1.11721-0.627645-1.85782-0.627645-1.19252 0-2.03356 0.451906-2.03356 1.21762 0 0.401696 0.276158 0.615084 0.602545 0.615084 0.338917 0 0.589975-0.251058 0.589975-0.589975 0-0.213408-0.100349-0.477016-0.439346-0.577435 0.451896-0.313817 1.17996-0.313817 1.25528-0.313817 0.702964 0 1.46868 0.464456 1.46868 1.51889v0.389147c-0.690404 0.0251-1.51889 0.0627-2.43525 0.401676-1.12975 0.414257-1.48124 1.10465-1.48124 1.66954 0 1.07954 1.3055 1.39337 2.19675 1.39337 1.00422 0 1.59422-0.564885 1.85782-1.05445 0.0502 0.514675 0.389127 0.991671 0.966562 0.991671 0.0251 0 1.24272 0 1.24272-1.19252v-0.690394h-0.426786v0.677855c0 0.125548 0 0.728063-0.464456 0.728063s-0.464456-0.589985-0.464456-0.753173zm-0.991672 1.5942c0 1.20508-1.05443 1.544-1.61932 1.544-0.640184 0-1.24272-0.426787-1.24272-1.04187 0-0.690404 0.602535-1.65698 2.86204-1.74485z"/>
  <path d="m90.4039 2.60158-1.88294 0.138149v0.451906c0.841042 0 0.941461 0.0879 0.941461 0.702964v6.42704c0 0.539766-0.125548 0.539766-0.941461 0.539766v0.451906c0.025 0 0.903802-0.0503 1.40592-0.0503 0.47702 0 0.94145 0.012 1.41847 0.0503v-0.451906c-0.81593 0-0.94145 0-0.94145-0.539766z"/>
  <path d="m94.4479 2.60158-1.88293 0.138149v0.451906c0.84104 0 0.94146 0.0879 0.94146 0.702964v6.42704c0 0.539766-0.12555 0.539766-0.94146 0.539766v0.451906c0.025 0 0.9038-0.0503 1.40592-0.0503 0.47701 0 0.94145 0.012 1.41846 0.0503v-0.451906c-0.81593 0-0.94145 0-0.94145-0.539766z"/>
 </g>
</svg>
