<?xml version="1.0" encoding="UTF-8"?>
<svg width="203.105" height="133.291" version="1.1" viewBox="0 0 203.10509 133.29056" xmlns="http://www.w3.org/2000/svg" xmlns:xlink="http://www.w3.org/1999/xlink">
 <defs>
  <marker id="Arrow1Mend" overflow="visible" orient="auto">
   <path transform="scale(.4) rotate(180) translate(10)" d="m0 0l5-5-17.5 5 17.5 5-5-5z" fill="#555" fill-rule="evenodd" stroke="#555" stroke-width="1pt"/>
  </marker>
  <marker id="Arrow1Lend" overflow="visible" orient="auto">
   <path transform="matrix(-.8 0 0 -.8 -10 0)" d="m0 0 5-5-17.5 5 17.5 5z" fill-rule="evenodd" stroke="#000" stroke-width="1pt"/>
  </marker>
  <marker id="marker7148" overflow="visible" orient="auto">
   <path transform="matrix(-.4 0 0 -.4 -4 0)" d="m0 0 5-5-17.5 5 17.5 5z" fill="#fff" fill-rule="evenodd" stroke="#fff" stroke-width="1pt"/>
  </marker>
  <symbol id="g1390">
   <path d="m137.878 52.081c-0.0538 0.269-0.16139 0.68145-0.16139 0.77112 0 0.32279 0.25106 0.48419 0.52005 0.48419 0.21519 0 0.53798-0.1434 0.66351-0.50213 0.0179-0.0358 0.23313-0.8787 0.34073-1.32702l0.39451-1.61395c0.1076-0.39452 0.21519-0.78903 0.30486-1.20148 0.0717-0.30487 0.21519-0.82492 0.23313-0.89664 0.26898-0.55592 1.21943-2.1878 2.92304-2.1878 0.80697 0 0.96837 0.66351 0.96837 1.25529 0 0.44832-0.12554 0.95045-0.269 1.48842l-0.50211 2.0802-0.35866 1.36288c-0.0717 0.35867-0.23312 0.96837-0.23312 1.05804 0 0.32279 0.25106 0.48419 0.52004 0.48419 0.55593 0 0.66352-0.44832 0.80698-1.02217 0.25106-1.00424 0.91457-3.62241 1.07597-4.32179 0.0538-0.23313 1.00423-2.38506 2.9589-2.38506 0.7711 0 0.96837 0.60972 0.96837 1.25529 0 1.02217-0.75318 3.06649-1.11183 4.01694-0.1614 0.43038-0.23313 0.62764-0.23313 0.98629 0 0.84285 0.62764 1.4705 1.47049 1.4705 1.68567 0 2.34921-2.61819 2.34921-2.76165 0-0.17933-0.1614-0.17933-0.21522-0.17933-0.17932 0-0.17932 0.0539-0.26899 0.32279-0.26898 0.95044-0.84284 2.22366-1.82913 2.22366-0.30486 0-0.4304-0.17933-0.4304-0.59178 0-0.44832 0.1614-0.8787 0.32279-1.27322 0.34072-0.9325 1.0939-2.92305 1.0939-3.94521 0-1.16563-0.71731-1.91879-2.06226-1.91879-1.34494 0-2.25954 0.78902-2.92305 1.73947-0.0179-0.23313-0.0717-0.84285-0.57384-1.27323-0.44832-0.37659-1.02217-0.46624-1.47049-0.46624-1.61394 0-2.49264 1.14769-2.7975 1.56014-0.0897-1.02217-0.84284-1.56014-1.64982-1.56014-0.82491 0-1.16563 0.69937-1.32702 1.02215-0.32279 0.62765-0.55592 1.68569-0.55592 1.73948 0 0.17932 0.17933 0.17932 0.21519 0.17932 0.17933 0 0.19727-0.018 0.30486-0.41245 0.30486-1.27321 0.66351-2.13399 1.3091-2.13399 0.28692 0 0.55591 0.1434 0.55591 0.82491 0 0.37659-0.0538 0.57384-0.28693 1.50634z" stroke-width="1.5"/>
   <path d="m157.054 41.79c0-0.43038-0.35865-0.89664-0.89664-0.89664-0.50211 0-0.89664 0.39453-0.89664 0.89664s0.39453 0.89664 0.89664 0.89664c0.53799 0 0.89664-0.46626 0.89664-0.89664zm3.46103 0c0-0.50211-0.39453-0.89664-0.89664-0.89664-0.53799 0-0.89664 0.46626-0.89664 0.89664s0.35865 0.89664 0.89664 0.89664c0.50211 0 0.89664-0.39451 0.89664-0.89664z" stroke-width="1.5"/>
   <path d="m161.599 45.948c-0.64559 0.17933-0.96837 0.78903-0.96837 1.23735 0 0.39454 0.30486 0.82491 0.89664 0.82491 0.62765 0 1.29116-0.52005 1.29116-1.39874 0-0.95045-0.95043-1.57809-2.04434-1.57809-1.02216 0-1.68567 0.77111-1.9188 1.0939-0.44832-0.75318-1.45256-1.0939-2.47472-1.0939-2.25952 0-3.47895 2.20573-3.47895 2.79751 0 0.25105 0.26899 0.25105 0.43038 0.25105 0.21519 0 0.34073 0 0.41246-0.23311 0.52005-1.63188 1.8112-2.16987 2.54644-2.16987 0.68145 0 1.00424 0.32278 1.00424 0.89664 0 0.34072-0.25106 1.32702-0.41246 1.9726l-0.6097 2.45678c-0.269 1.0939-0.91458 1.63188-1.52429 1.63188-0.0897 0-0.50212 0-0.86077-0.26898 0.64557-0.17932 0.96837-0.78905 0.96837-1.23736 0-0.39452-0.30486-0.82492-0.89664-0.82492-0.62765 0-1.29116 0.52005-1.29116 1.39877 0 0.95043 0.95043 1.57807 2.04434 1.57807 1.02216 0 1.68567-0.7711 1.9188-1.09388 0.44832 0.75316 1.45255 1.09388 2.47471 1.09388 2.25953 0 3.47896-2.20572 3.47896-2.7975 0-0.25107-0.26898-0.25107-0.43038-0.25107-0.21519 0-0.34073 0-0.41246 0.23313-0.52005 1.63188-1.81121 2.16986-2.54645 2.16986-0.68145 0-1.00423-0.32278-1.00423-0.89663 0-0.37659 0.23313-1.32703 0.39451-1.99054 0.12554-0.46625 0.53799-2.15193 0.62765-2.43885 0.26899-1.07597 0.89664-1.63188 1.52428-1.63188 0.0897 0 0.50213 0 0.86078 0.26899z" stroke-width="1.5"/>
  </symbol>
  <symbol id="g1385">
   <path d="m181.107 47.275c0.269 0 0.60972 0 0.60972-0.35865s-0.34072-0.35866-0.59178-0.35866h-10.7417c-0.25106 0-0.59179 0-0.59179 0.35866 0 0.35867 0.34073 0.35865 0.60973 0.35865zm0.0179 3.47895c0.25106 0 0.59178 0 0.59178-0.35865 0-0.35864-0.34072-0.35864-0.60972-0.35864h-10.7058c-0.269 0-0.60973 0-0.60973 0.35864 0 0.35865 0.34073 0.35865 0.59179 0.35865z" stroke-width="1.5"/>
   <path d="m195.356 46.02h2.09812c0.34073 0 0.66351 0 0.66351-0.52005 0-0.32278-0.30484-0.32278-0.6097-0.32278h-2.00847l0.59178-3.24583c0.0538-0.32279 0.0538-0.35865 0.23313-0.52005 0.23311-0.21519 0.43038-0.21519 0.52005-0.21519 0.25105 0 0.41244 0.0359 0.62764 0.12555-0.43039 0.2152-0.75318 0.68145-0.75318 1.16563 0 0.53799 0.43038 0.82491 0.8787 0.82491 0.73526 0 1.29117-0.64558 1.29117-1.32702 0-0.91458-0.9325-1.43463-2.04433-1.43463-0.84285 0-1.84709 0.34073-2.47473 1.34496-0.41246 0.66351-0.52005 1.36289-0.86078 3.2817h-1.7574c-0.34072 0-0.64558 0-0.64558 0.52005 0 0.32278 0.30486 0.32278 0.59178 0.32278h1.64982l-1.36289 7.63936c-0.0359 0.1614-0.23313 1.29115-0.3228 1.54221-0.0359 0.0897-0.32278 0.91458-0.89664 0.91458-0.34071 0-0.48418-0.0539-0.6097-0.10755 0.44832-0.21521 0.78904-0.68146 0.78904-1.18356 0-0.538-0.43039-0.82492-0.87871-0.82492-0.73524 0-1.29116 0.64557-1.29116 1.32702 0 0.96837 1.02218 1.43462 1.95467 1.43462 1.34496 0 2.27746-1.32702 2.42092-1.56015 0.77111-1.18356 1.18356-3.46101 1.23737-3.76587z" stroke-width="1.5"/>
  </symbol>
 </defs>
 <g shape-rendering="auto">
  <path d="m41.9878 74.492 57.1469-41.713" color="#000000" color-rendering="auto" fill="none" image-rendering="auto" marker-end="url(#Arrow1Lend)" solid-color="#000000" stroke="#000" stroke-dasharray="1.99999999, 1.99999999" stroke-width=".5" style="isolation:auto;mix-blend-mode:normal"/>
  <path d="m185.416 103.899-72.0957-70.4164" color="#000000" color-rendering="auto" fill="none" image-rendering="auto" marker-end="url(#Arrow1Lend)" solid-color="#000000" stroke="#000" stroke-dasharray="1.99999999, 1.99999999" stroke-width=".5" style="isolation:auto;mix-blend-mode:normal"/>
  <rect transform="rotate(90)" x="93.563" y="-62.2016" width="39.2273" height="61.7017" color="#000000" color-rendering="auto" fill="#8b8b8b" image-rendering="auto" solid-color="#000000" style="isolation:auto;mix-blend-mode:normal"/>
  <path d="m62.2016 93.563v39.2273" color="#000000" color-rendering="auto" fill="none" image-rendering="auto" solid-color="#000000" stroke="#3d3d3d" stroke-width="5" style="isolation:auto;mix-blend-mode:normal"/>
  <circle cx="185.42" cy="103.939" r="9.85191" color="#000000" color-rendering="auto" fill="#f44" image-rendering="auto" solid-color="#000000" style="isolation:auto;mix-blend-mode:normal"/>
  <path d="m185.42 115.605a17.1849 17.1849 0 0 0 -17.1839 17.1853h34.3691a17.1849 17.1849 0 0 0 -17.1853 -17.1853z" color="#000000" color-rendering="auto" fill="#f44" image-rendering="auto" solid-color="#000000" style="isolation:auto;mix-blend-mode:normal"/>
  <circle cx="41.894" cy="74.531" r="6.49867" color="#000000" color-rendering="auto" fill="#44f" image-rendering="auto" solid-color="#000000" style="isolation:auto;mix-blend-mode:normal"/>
  <path d="m41.8935 82.227a11.3358 11.3358 0 0 0 -11.3351 11.336h22.6711a11.3358 11.3358 0 0 0 -11.336 -11.336z" color="#000000" color-rendering="auto" fill="#44f" image-rendering="auto" solid-color="#000000" style="isolation:auto;mix-blend-mode:normal"/>
 </g>
 <g stroke-width="1.5">
  <path d="m158.228 107.845c-0.018-0.054-0.09-0.198-0.09-0.252 0-0.018 0.018-0.036 0.324-0.27l1.746-1.368c2.412-1.872 3.204-2.502 4.446-2.61 0.126-0.018 0.306-0.018 0.306-0.324 0-0.108-0.054-0.198-0.198-0.198-0.198 0-0.414 0.036-0.612 0.036h-0.684c-0.558 0-1.152-0.036-1.692-0.036-0.126 0-0.342 0-0.342 0.324 0 0.18 0.126 0.198 0.234 0.198 0.198 0.018 0.432 0.09 0.432 0.342 0 0.36-0.54 0.792-0.684 0.9l-7.056 5.49 1.494-5.94c0.162-0.612 0.198-0.792 1.476-0.792 0.342 0 0.504 0 0.504-0.342 0-0.18-0.18-0.18-0.27-0.18-0.324 0-0.702 0.036-1.044 0.036h-2.124c-0.324 0-0.72-0.036-1.044-0.036-0.144 0-0.342 0-0.342 0.342 0 0.18 0.162 0.18 0.432 0.18 1.098 0 1.098 0.144 1.098 0.342 0 0.036 0 0.144-0.072 0.414l-2.43 9.684c-0.162 0.63-0.198 0.81-1.458 0.81-0.342 0-0.522 0-0.522 0.324 0 0.198 0.162 0.198 0.27 0.198 0.342 0 0.702-0.036 1.044-0.036h2.106c0.342 0 0.72 0.036 1.062 0.036 0.144 0 0.342 0 0.342-0.342 0-0.18-0.162-0.18-0.432-0.18-1.098 0-1.098-0.144-1.098-0.324 0-0.126 0.108-0.576 0.18-0.864l0.702-2.79 2.736-2.142c0.522 1.152 1.476 3.456 2.214 5.22 0.054 0.108 0.09 0.216 0.09 0.342 0 0.54-0.72 0.558-0.882 0.558s-0.342 0-0.342 0.342c0 0.18 0.198 0.18 0.252 0.18 0.63 0 1.296-0.036 1.926-0.036h0.864c0.27 0 0.576 0.036 0.846 0.036 0.108 0 0.306 0 0.306-0.342 0-0.18-0.162-0.18-0.342-0.18-0.666-0.018-0.9-0.162-1.17-0.81z" fill="#f00"/>
  <path d="m18.0972 73.229c-0.018-0.054-0.09-0.198-0.09-0.252 0-0.018 0.018-0.036 0.324-0.27l1.746-1.368c2.412-1.872 3.204-2.502 4.446-2.61 0.126-0.018 0.306-0.018 0.306-0.324 0-0.108-0.054-0.198-0.198-0.198-0.198 0-0.414 0.036-0.612 0.036h-0.684c-0.558 0-1.152-0.036-1.692-0.036-0.126 0-0.342 0-0.342 0.324 0 0.18 0.126 0.198 0.234 0.198 0.198 0.018 0.432 0.09 0.432 0.342 0 0.36-0.54 0.792-0.684 0.9l-7.056 5.49 1.494-5.94c0.162-0.612 0.198-0.792 1.476-0.792 0.342 0 0.504 0 0.504-0.342 0-0.18-0.18-0.18-0.27-0.18-0.324 0-0.702 0.036-1.044 0.036h-2.124c-0.324 0-0.72-0.036-1.044-0.036-0.144 0-0.342 0-0.342 0.342 0 0.18 0.162 0.18 0.432 0.18 1.098 0 1.098 0.144 1.098 0.342 0 0.036 0 0.144-0.072 0.414l-2.43 9.684c-0.162 0.63-0.198 0.81-1.458 0.81-0.342 0-0.522 0-0.522 0.324 0 0.198 0.162 0.198 0.27 0.198 0.342 0 0.702-0.036 1.044-0.036h2.106c0.342 0 0.72 0.036 1.062 0.036 0.144 0 0.342 0 0.342-0.342 0-0.18-0.162-0.18-0.432-0.18-1.098 0-1.098-0.144-1.098-0.324 0-0.126 0.108-0.576 0.18-0.864l0.702-2.79 2.736-2.142c0.522 1.152 1.476 3.456 2.214 5.22 0.054 0.108 0.09 0.216 0.09 0.342 0 0.54-0.72 0.558-0.882 0.558s-0.342 0-0.342 0.342c0 0.18 0.198 0.18 0.252 0.18 0.63 0 1.296-0.036 1.926-0.036h0.864c0.27 0 0.576 0.036 0.846 0.036 0.108 0 0.306 0 0.306-0.342 0-0.18-0.162-0.18-0.342-0.18-0.666-0.018-0.9-0.162-1.17-0.81z" fill="#00f"/>
  <path d="m28.5642 67.381c0.06-0.156 0.108-0.24 0.108-0.36 0-0.396-0.36-0.66-0.696-0.66-0.48 0-0.612 0.42-0.66 0.588l-1.524 5.172c-0.048 0.144-0.048 0.18-0.048 0.192 0 0.108 0.072 0.132 0.192 0.168 0.216 0.096 0.24 0.096 0.264 0.096 0.036 0 0.108 0 0.192-0.204z" fill="#00f"/>
 </g>
 <g fill="none">
  <path d="m18.5661 113.177h33.7562" color="#000000" color-rendering="auto" image-rendering="auto" marker-end="url(#marker7148)" shape-rendering="auto" solid-color="#000000" stroke="#fff" stroke-width="2" style="isolation:auto;mix-blend-mode:normal"/>
  <path d="m106.631 63.189c-2.27792-12.8881-3.1613-25.6343 0.1942-36.0515 4.66162-14.4721 17.5043-24.4493 46.1544-24.0676" color="#000000" color-rendering="auto" image-rendering="auto" shape-rendering="auto" solid-color="#000000" stroke="#555" stroke-width=".5" style="isolation:auto;mix-blend-mode:normal"/>
  <path d="m106.825 27.138 9.13529-24.7886" marker-end="url(#Arrow1Mend)" stroke="#555"/>
 </g>
 <circle transform="rotate(-37.3181)" cx="68.5037" cy="86.3441" r="5" color="#000000" fill="#5e5bff" style="font-variant-east_asian:normal"/>
 <path d="m39.036 30.073c0.10043-0.21339 0.11298-0.31382 0.11298-0.40169 0-0.38914-0.35148-0.69042-0.74062-0.69042-0.47702 0-0.62765 0.38915-0.69042 0.59l-1.65698 5.43541c-0.0126 0.0251-0.0628 0.1883-0.0628 0.20085 0 0.15063 0.38914 0.27617 0.48957 0.27617 0.0879 0 0.10042-0.0251 0.18829-0.21341z" stroke-width="1.5"/>
 <use width="100%" height="100%" xlink:href="#g1390"/>
 <use transform="translate(-128.41 -9.349)" width="100%" height="100%" xlink:href="#g1390"/>
 <use width="100%" height="100%" xlink:href="#g1385"/>
 <use transform="translate(-123.379 -9.349)" width="100%" height="100%" xlink:href="#g1385"/>
</svg>
