<?xml version="1.0" encoding="UTF-8"?>
<svg width="105.702" height="97.0164" version="1.1" viewBox="0 0 105.7027 97.016589" xmlns="http://www.w3.org/2000/svg">
 <path d="m99.2425 61.8345 5.96024-12.9391-4.71684 1.91373v-25.7274h-2.59985v25.6988l-4.71684-1.88517z" color="#000000" fill="#f00" style="text-decoration-line:none;text-indent:0;text-transform:none"/>
 <path d="m103.898 9.71354c0.072-0.288 0.072-0.396 0.072-0.468 0-0.576-0.468-0.792-0.846-0.792-0.36 0-0.684 0.162-0.918 0.432-0.252-0.27-0.846-0.738-1.908-0.738-3.186 0-5.058 2.844-5.058 5.202 0 2.124 1.602 2.934 3.15 2.934 0.936 0 1.656-0.36 1.98-0.558-0.108 0.45-0.216 0.9-0.342 1.35-0.126003 0.522-0.252003 1.062-0.882003 1.566-0.756 0.63-1.35 0.63-1.836 0.63-0.432 0-0.756 0-1.224-0.072 0.522-0.378 0.558-0.972 0.558-1.044 0-0.396-0.306-0.828-0.9-0.828s-1.278 0.504-1.278 1.332c0 1.188 1.584 1.26 2.862 1.26 1.62 0 4.104-0.378 4.644-2.538zm-3.15 4.536c-0.072 0.252-0.072 0.324-0.288 0.522-0.954003 0.864-1.8 0.864-1.962 0.864-0.702 0-1.224-0.396-1.224-1.35 0-0.864 0.594-3.024 0.864-3.69 0.63-1.548 1.656-1.8 2.196-1.8 1.116 0 1.512 0.882 1.512 1.008 0 0.036 0 0.072-0.054 0.27z" fill="#f00" stroke-width="1.5"/>
 <g fill="none">
  <path d="m45.3838 47.8323c18.2456-20.4673 32.6802-44.3006 21.1741-46.6894-11.5024-2.38808-7.75538 25.2032 0.82806 51.2346" color="#000000" stroke="#008000"/>
  <path d="m67.386 52.3774c8.6015 26.086 22.0596 50.6057 29.8955 41.8204 7.8256-8.77363-17.9904-19.3341-44.8499-24.9133" color="#000000" stroke="#0000f9"/>
  <path d="m52.4316 69.2846c-26.8739-5.58224-54.7924-6.17796-51.1046 4.99165 3.68954 11.1748 25.7843-5.94661 44.0567-26.444" color="#000000" stroke="#f00"/>
 </g>
 <ellipse transform="rotate(-26.402)" cx="9.76782" cy="66.6256" rx="5.00001" ry="5" color="#000000" fill="#5e5bff" stroke-linejoin="round" stroke-miterlimit="1e5"/>
</svg>
