<?xml version="1.0" encoding="UTF-8"?>
<svg width="214.962" height="78.8217" version="1.1" viewBox="0 0 214.96194 78.821709" xmlns="http://www.w3.org/2000/svg"><g transform="translate(90.3381 -302.187)"><g stroke-linejoin="round" stroke-miterlimit="1e5" stroke-width="1.5"><path d="m-60.4215 370.628c-0.64559 0.17932-0.96837 0.78903-0.96837 1.23735 0 0.39453 0.30486 0.82491 0.89664 0.82491 0.62764 0 1.29115-0.52005 1.29115-1.39875 0-0.95045-0.95043-1.57809-2.04433-1.57809-1.02216 0-1.68567 0.77112-1.9188 1.0939-0.44832-0.75318-1.45256-1.0939-2.47472-1.0939-2.25952 0-3.47896 2.20573-3.47896 2.79751 0 0.25106 0.26899 0.25106 0.43039 0.25106 0.21519 0 0.34073 0 0.41246-0.23312 0.52005-1.63188 1.8112-2.16987 2.54644-2.16987 0.68145 0 1.00424 0.32279 1.00424 0.89664 0 0.34073-0.25106 1.32702-0.41246 1.97261l-0.6097 2.45677c-0.269 1.09391-0.91458 1.63188-1.52429 1.63188-0.0897 0-0.50212 0-0.86077-0.26898 0.64557-0.17932 0.96837-0.78904 0.96837-1.23736 0-0.39452-0.30486-0.82491-0.89664-0.82491-0.62765 0-1.29116 0.52005-1.29116 1.39876 0 0.95043 0.95043 1.57808 2.04434 1.57808 1.02216 0 1.68567-0.77111 1.9188-1.09389 0.44832 0.75316 1.45255 1.09389 2.47471 1.09389 2.25953 0 3.47895-2.20572 3.47895-2.7975 0-0.25107-0.26898-0.25107-0.43038-0.25107-0.21519 0-0.34072 0-0.41245 0.23313-0.52005 1.63188-1.81121 2.16985-2.54645 2.16985-0.68145 0-1.00423-0.32278-1.00423-0.89662 0-0.37659 0.23313-1.32704 0.39451-1.99055 0.12554-0.46624 0.53799-2.15193 0.62765-2.43885 0.26899-1.07596 0.89664-1.63188 1.52428-1.63188 0.0897 0 0.50213 0 0.86078 0.269z"/><path d="m-54.0112 372.525c0-0.33892-0.0251-0.35148-0.37659-0.35148-0.80339 0.79083-1.94571 0.80339-2.46038 0.80339v0.4519c0.30128 0 1.12976 0 1.82018-0.35148v6.40199c0 0.41425 0 0.57744-1.25529 0.57744h-0.47702v0.4519c0.22595-0.012 1.76996-0.0503 2.23442-0.0503 0.38914 0 1.97082 0.0377 2.24698 0.0503v-0.4519h-0.47701c-1.25529 0-1.25529-0.16319-1.25529-0.57744z"/><path d="m103.377 362.628c-0.64558 0.17932-0.96837 0.78903-0.96837 1.23735 0 0.39453 0.30486 0.82491 0.89664 0.82491 0.62765 0 1.29116-0.52005 1.29116-1.39875 0-0.95045-0.95043-1.57809-2.04434-1.57809-1.02216 0-1.68567 0.77112-1.9188 1.0939-0.44832-0.75318-1.45255-1.0939-2.47471-1.0939-2.25953 0-3.47896 2.20573-3.47896 2.79751 0 0.25106 0.26899 0.25106 0.43038 0.25106 0.2152 0 0.34073 0 0.41246-0.23312 0.52005-1.63188 1.81121-2.16987 2.54645-2.16987 0.68145 0 1.00423 0.32279 1.00423 0.89664 0 0.34073-0.25105 1.32702-0.41245 1.97261l-0.60971 2.45677c-0.26899 1.09391-0.91458 1.63188-1.52428 1.63188-0.0897 0-0.50213 0-0.86078-0.26898 0.64557-0.17932 0.96837-0.78904 0.96837-1.23736 0-0.39452-0.30486-0.82491-0.89664-0.82491-0.62765 0-1.29116 0.52005-1.29116 1.39876 0 0.95043 0.95044 1.57808 2.04434 1.57808 1.02216 0 1.68567-0.77111 1.9188-1.09389 0.44832 0.75316 1.45256 1.09389 2.47472 1.09389 2.25952 0 3.47895-2.20572 3.47895-2.7975 0-0.25107-0.26898-0.25107-0.43038-0.25107-0.21519 0-0.34073 0-0.41246 0.23313-0.52005 1.63188-1.8112 2.16985-2.54644 2.16985-0.68145 0-1.00424-0.32278-1.00424-0.89662 0-0.37659 0.23313-1.32704 0.39452-1.99055 0.12553-0.46624 0.53799-2.15193 0.62764-2.43885 0.269-1.07596 0.89664-1.63188 1.52429-1.63188 0.0897 0 0.50212 0 0.86077 0.269z"/><path d="m111.923 370.224h-0.4268c-0.0377 0.27616-0.16318 1.01679-0.32638 1.14232-0.10041 0.0753-1.067 0.0753-1.24274 0.0753h-2.30973c1.31805-1.16742 1.7574-1.51891 2.51058-2.10889 0.92892-0.74063 1.79507-1.5189 1.79507-2.71143 0-1.5189-1.33061-2.44782-2.93738-2.44782-1.55656 0-2.61101 1.0921-2.61101 2.24697 0 0.6402 0.53977 0.70296 0.6653 0.70296 0.30128 0 0.66531-0.21339 0.66531-0.6653 0-0.22596-0.0879-0.66531-0.74062-0.66531 0.38914-0.89125 1.24273-1.16742 1.83273-1.16742 1.25529 0 1.90804 0.97913 1.90804 1.99592 0 1.0921-0.77829 1.95825-1.17997 2.41015l-3.02526 2.9876c-0.12553 0.11295-0.12553 0.13815-0.12553 0.48957h5.1718z"/></g><path d="m-60.8154 334.947h54.6667 109.333" color="#000000" color-rendering="auto" fill="none" image-rendering="auto" shape-rendering="auto" solid-color="#000000" stroke="#000" stroke-dasharray="4, 4" style="isolation:auto;mix-blend-mode:normal"/><path d="m-6.14875 326.447v17" color="#000000" color-rendering="auto" fill="none" image-rendering="auto" shape-rendering="auto" solid-color="#000000" stroke="#000" stroke-width="3" style="isolation:auto;mix-blend-mode:normal"/><g stroke-linejoin="round" stroke-miterlimit="1e5" stroke-width="1.5"><path d="m-35.6379 309.556c-0.05385 0.26899-0.161385 0.68145-0.161385 0.77112 0 0.32279 0.251055 0.48418 0.52005 0.48418 0.21519 0 0.537975-0.14339 0.66351-0.50212 0.01785-0.0358 0.23313-0.8787 0.340725-1.32702l0.394515-1.61396c0.10755-0.39451 0.21519-0.78902 0.30486-1.20148 0.0717-0.30486 0.21519-0.82491 0.23313-0.89664 0.26898-0.55591 1.21942-2.18779 2.92304-2.18779 0.80697 0 0.96837 0.66351 0.96837 1.25529 0 0.44832-0.12555 0.95044-0.268995 1.48842l-0.50211 2.0802-0.358665 1.36288c-0.0717 0.35866-0.233115 0.96837-0.233115 1.05804 0 0.32279 0.251055 0.48418 0.520035 0.48418 0.55593 0 0.663525-0.44831 0.806985-1.02217 0.251055-1.00424 0.914565-3.62241 1.07596-4.32178 0.05385-0.23314 1.00424-2.38506 2.9589-2.38506 0.771105 0 0.96837 0.60971 0.96837 1.25529 0 1.02217-0.75318 3.06649-1.11183 4.01693-0.1614 0.43038-0.23313 0.62765-0.23313 0.9863 0 0.84285 0.627645 1.47049 1.4705 1.47049 1.68567 0 2.34921-2.61819 2.34921-2.76165 0-0.17932-0.1614-0.17932-0.21522-0.17932-0.179325 0-0.179325 0.0539-0.268995 0.32278-0.26898 0.95045-0.842835 2.22366-1.82913 2.22366-0.30486 0-0.430395-0.17932-0.430395-0.59178 0-0.44832 0.1614-0.8787 0.322785-1.27321 0.340725-0.9325 1.0939-2.92305 1.0939-3.94521 0-1.16563-0.717315-1.9188-2.06226-1.9188s-2.25954 0.78903-2.92305 1.73947c-0.018-0.23313-0.0717-0.84284-0.57384-1.27322-0.44832-0.3766-1.02218-0.46625-1.4705-0.46625-1.61394 0-2.49264 1.14769-2.7975 1.56015-0.0897-1.02217-0.842835-1.56015-1.64982-1.56015-0.82491 0-1.16562 0.69937-1.32702 1.02216-0.322785 0.62764-0.555915 1.68568-0.555915 1.73948 0 0.17932 0.179325 0.17932 0.21519 0.17932 0.179325 0 0.197265-0.018 0.30486-0.41246 0.30486-1.27321 0.66351-2.13398 1.3091-2.13398 0.28692 0 0.555915 0.14339 0.555915 0.8249 0 0.3766-0.05385 0.57385-0.286935 1.50635z"/><path d="m-15.1897 311.019h-0.426795c-0.03765 0.27616-0.163185 1.01679-0.326385 1.14232-0.10035 0.0753-1.067 0.0753-1.24274 0.0753h-2.30973c1.31805-1.16742 1.7574-1.51891 2.51058-2.10889 0.92892-0.74063 1.79506-1.5189 1.79506-2.71143 0-1.5189-1.3306-2.44782-2.93738-2.44782-1.55656 0-2.61102 1.0921-2.61102 2.24697 0 0.6402 0.539775 0.70296 0.66531 0.70296 0.301275 0 0.66531-0.21339 0.66531-0.6653 0-0.22596-0.0879-0.66531-0.74064-0.66531 0.38916-0.89125 1.24275-1.16742 1.83274-1.16742 1.25529 0 1.90804 0.97913 1.90804 1.99592 0 1.0921-0.77829 1.95825-1.17998 2.41015l-3.02528 2.9876c-0.12555 0.11295-0.12555 0.13815-0.12555 0.48957h5.1718z"/><path d="m-5.05988 303.835c0-0.52005-0.43038-0.95044-0.95043-0.95044s-0.950445 0.43039-0.950445 0.95044 0.430395 0.95043 0.950445 0.95043 0.95043-0.43038 0.95043-0.95043zm0 5.82815c0-0.52005-0.43038-0.95045-0.95043-0.95045s-0.950445 0.4304-0.950445 0.95045 0.430395 0.95043 0.950445 0.95043 0.95043-0.43038 0.95043-0.95043z"/><path d="m3.01859 309.556c-0.05385 0.26899-0.161385 0.68145-0.161385 0.77112 0 0.32279 0.251055 0.48418 0.52005 0.48418 0.21519 0 0.537975-0.14339 0.66351-0.50212 0.018-0.0358 0.23313-0.8787 0.340725-1.32702l0.394515-1.61396c0.10755-0.39451 0.21519-0.78902 0.30486-1.20148 0.0717-0.30486 0.21519-0.82491 0.23313-0.89664 0.26898-0.55591 1.21942-2.18779 2.92304-2.18779 0.80697 0 0.96837 0.66351 0.96837 1.25529 0 0.44832-0.12555 0.95044-0.268995 1.48842l-0.50211 2.0802-0.358665 1.36288c-0.0717 0.35866-0.233115 0.96837-0.233115 1.05804 0 0.32279 0.251055 0.48418 0.520035 0.48418 0.55593 0 0.663525-0.44831 0.806985-1.02217 0.251055-1.00424 0.914565-3.62241 1.07596-4.32178 0.05385-0.23314 1.00424-2.38506 2.9589-2.38506 0.771105 0 0.96837 0.60971 0.96837 1.25529 0 1.02217-0.75318 3.06649-1.11183 4.01693-0.1614 0.43038-0.23313 0.62765-0.23313 0.9863 0 0.84285 0.627645 1.47049 1.4705 1.47049 1.68567 0 2.34921-2.61819 2.34921-2.76165 0-0.17932-0.1614-0.17932-0.21522-0.17932-0.179325 0-0.179325 0.0539-0.268995 0.32278-0.26898 0.95045-0.842835 2.22366-1.82913 2.22366-0.30486 0-0.430395-0.17932-0.430395-0.59178 0-0.44832 0.1614-0.8787 0.322785-1.27321 0.340725-0.9325 1.0939-2.92305 1.0939-3.94521 0-1.16563-0.717315-1.9188-2.06226-1.9188s-2.25954 0.78903-2.92305 1.73947c-0.01785-0.23313-0.0717-0.84284-0.57384-1.27322-0.44832-0.3766-1.02218-0.46625-1.4705-0.46625-1.61394 0-2.49264 1.14769-2.7975 1.56015-0.0897-1.02217-0.842835-1.56015-1.64982-1.56015-0.82491 0-1.16562 0.69937-1.32702 1.02216-0.322785 0.62764-0.555915 1.68568-0.555915 1.73948 0 0.17932 0.17934 0.17932 0.215205 0.17932 0.179325 0 0.19725-0.018 0.304845-0.41246 0.30486-1.27321 0.66351-2.13398 1.3091-2.13398 0.28692 0 0.555915 0.14339 0.555915 0.8249 0 0.3766-0.05385 0.57385-0.286935 1.50635z"/><path d="m21.3328 305.32c0-0.33892-0.02505-0.35148-0.37659-0.35148-0.803385 0.79083-1.94571 0.80339-2.46038 0.80339v0.4519c0.301275 0 1.12976 0 1.82018-0.35148v6.40199c0 0.41425 0 0.57744-1.25529 0.57744h-0.477015v0.4519c0.225945-0.012 1.76996-0.0502 2.23442-0.0502 0.389145 0 1.97082 0.0376 2.24698 0.0502v-0.4519h-0.477015c-1.25529 0-1.25529-0.16319-1.25529-0.57744z"/></g><circle cx="-60.8154" cy="334.947" r="28.0227" color="#000000" color-rendering="auto" fill="#dcdcdc" image-rendering="auto" shape-rendering="auto" solid-color="#000000" stroke="#3d3d3d" stroke-width="2" style="isolation:auto;mix-blend-mode:normal"/><circle cx="103.185" cy="334.447" r="19.9392" color="#000000" color-rendering="auto" fill="#dcdcdc" image-rendering="auto" shape-rendering="auto" solid-color="#000000" stroke="#3d3d3d" stroke-width="2" style="isolation:auto;mix-blend-mode:normal"/><g stroke-linejoin="round" stroke-miterlimit="1e5"><g stroke-width="1.5"><path d="m93.4895 336.007c-0.0538 0.26899-0.16139 0.68145-0.16139 0.77112 0 0.32278 0.25106 0.48418 0.52006 0.48418 0.21519 0 0.53797-0.1434 0.66351-0.50212 0.0179-0.0358 0.23313-0.8787 0.34072-1.32702l0.39452-1.61396c0.10759-0.39451 0.21519-0.78903 0.30486-1.20148 0.0717-0.30486 0.21519-0.82491 0.23313-0.89664 0.26898-0.55592 1.21942-2.1878 2.92303-2.1878 0.80697 0 0.96837 0.66351 0.96837 1.25529 0 0.44832-0.12553 0.95045-0.26899 1.48842l-0.50211 2.0802-0.35867 1.36289c-0.0717 0.35866-0.23311 0.96837-0.23311 1.05804 0 0.32278 0.25105 0.48418 0.52003 0.48418 0.55593 0 0.66353-0.44832 0.80699-1.02217 0.25105-1.00424 0.91456-3.62241 1.07596-4.32179 0.0538-0.23313 1.00424-2.38506 2.9589-2.38506 0.77111 0 0.96837 0.60972 0.96837 1.25529 0 1.02218-0.75318 3.0665-1.11183 4.01694-0.1614 0.43038-0.23313 0.62765-0.23313 0.9863 0 0.84285 0.62765 1.47049 1.4705 1.47049 1.68567 0 2.34921-2.61819 2.34921-2.76165 0-0.17932-0.1614-0.17932-0.21522-0.17932-0.17933 0-0.17933 0.0539-0.269 0.32278-0.26898 0.95045-0.84283 2.22366-1.82913 2.22366-0.30486 0-0.43039-0.17932-0.43039-0.59178 0-0.44832 0.1614-0.8787 0.32278-1.27321 0.34073-0.93251 1.09391-2.92305 1.09391-3.94521 0-1.16564-0.71732-1.9188-2.06226-1.9188-1.34495 0-2.25954 0.78903-2.92305 1.73947-0.0179-0.23313-0.0717-0.84285-0.57384-1.27323-0.44832-0.37659-1.02218-0.46624-1.4705-0.46624-1.61394 0-2.49264 1.14769-2.7975 1.56015-0.0897-1.02218-0.84283-1.56015-1.64982-1.56015-0.82491 0-1.16562 0.69937-1.32702 1.02216-0.32279 0.62764-0.55591 1.68568-0.55591 1.73947 0 0.17933 0.17933 0.17933 0.21519 0.17933 0.17933 0 0.19726-0.018 0.30486-0.41246 0.30485-1.27321 0.66351-2.13399 1.30909-2.13399 0.28692 0 0.55592 0.1434 0.55592 0.82491 0 0.37659-0.0538 0.57384-0.28694 1.50635z"/><path d="m113.938 337.47h-0.42679c-0.0377 0.27616-0.16319 1.01679-0.32639 1.14232-0.10041 0.0753-1.06699 0.0753-1.24273 0.0753h-2.30973c1.31805-1.16742 1.7574-1.51891 2.51058-2.10889 0.92892-0.74063 1.79506-1.5189 1.79506-2.71143 0-1.5189-1.3306-2.44782-2.93737-2.44782-1.55657 0-2.61102 1.0921-2.61102 2.24697 0 0.6402 0.53978 0.70296 0.66531 0.70296 0.30127 0 0.66531-0.21339 0.66531-0.6653 0-0.22596-0.0879-0.66531-0.74063-0.66531 0.38915-0.89125 1.24274-1.16742 1.83273-1.16742 1.25529 0 1.90805 0.97913 1.90805 1.99592 0 1.0921-0.77829 1.95825-1.17998 2.41015l-3.02526 2.9876c-0.12553 0.11295-0.12553 0.13815-0.12553 0.48957h5.1718z"/><path d="m-70.3096 336.507c-0.0538 0.26899-0.16139 0.68145-0.16139 0.77112 0 0.32278 0.25106 0.48418 0.52005 0.48418 0.21519 0 0.53798-0.1434 0.66351-0.50212 0.0179-0.0358 0.23313-0.8787 0.34073-1.32702l0.39451-1.61396c0.1076-0.39451 0.21519-0.78903 0.30486-1.20148 0.0717-0.30486 0.21519-0.82491 0.23313-0.89664 0.26898-0.55592 1.21943-2.1878 2.92304-2.1878 0.80697 0 0.96837 0.66351 0.96837 1.25529 0 0.44832-0.12554 0.95045-0.269 1.48842l-0.50211 2.0802-0.35866 1.36289c-0.0717 0.35866-0.23312 0.96837-0.23312 1.05804 0 0.32278 0.25106 0.48418 0.52004 0.48418 0.55593 0 0.66352-0.44832 0.80698-1.02217 0.25106-1.00424 0.91457-3.62241 1.07597-4.32179 0.0538-0.23313 1.00423-2.38506 2.9589-2.38506 0.7711 0 0.96837 0.60972 0.96837 1.25529 0 1.02218-0.75318 3.0665-1.11183 4.01694-0.1614 0.43038-0.23313 0.62765-0.23313 0.9863 0 0.84285 0.62764 1.47049 1.47049 1.47049 1.68567 0 2.34921-2.61819 2.34921-2.76165 0-0.17932-0.1614-0.17932-0.21522-0.17932-0.17932 0-0.17932 0.0539-0.26899 0.32278-0.26898 0.95045-0.84284 2.22366-1.82913 2.22366-0.30486 0-0.4304-0.17932-0.4304-0.59178 0-0.44832 0.1614-0.8787 0.32279-1.27321 0.34072-0.93251 1.0939-2.92305 1.0939-3.94521 0-1.16564-0.71731-1.9188-2.06226-1.9188-1.34494 0-2.25954 0.78903-2.92305 1.73947-0.0179-0.23313-0.0717-0.84285-0.57384-1.27323-0.44832-0.37659-1.02217-0.46624-1.47049-0.46624-1.61394 0-2.49264 1.14769-2.7975 1.56015-0.0897-1.02218-0.84284-1.56015-1.64982-1.56015-0.82491 0-1.16563 0.69937-1.32702 1.02216-0.32279 0.62764-0.55592 1.68568-0.55592 1.73947 0 0.17933 0.17933 0.17933 0.21519 0.17933 0.17933 0 0.19726-0.018 0.30486-0.41246 0.30486-1.27321 0.66351-2.13399 1.3091-2.13399 0.28692 0 0.55591 0.1434 0.55591 0.82491 0 0.37659-0.0538 0.57384-0.28693 1.50635z"/><path d="m-51.9955 332.271c0-0.33892-0.0251-0.35148-0.37659-0.35148-0.80339 0.79083-1.94571 0.80339-2.46038 0.80339v0.4519c0.30128 0 1.12976 0 1.82018-0.35148v6.40199c0 0.41425 0 0.57744-1.25529 0.57744h-0.47702v0.4519c0.22595-0.012 1.76996-0.0503 2.23442-0.0503 0.38914 0 1.97082 0.0376 2.24698 0.0503v-0.4519h-0.47701c-1.25529 0-1.25529-0.16319-1.25529-0.57744z"/></g><path d="m-6.21136 349.591c-0.688624 0.19128-1.03293 0.84163-1.03293 1.31984 0 0.42083 0.325184 0.8799 0.956416 0.8799 0.669488 0 1.37723-0.55472 1.37723-1.492 0-1.01381-1.01379-1.6833-2.18062-1.6833-1.0903 0-1.79805 0.82253-2.04672 1.16684-0.478208-0.8034-1.54939-1.16684-2.6397-1.16684-2.41016 0-3.71088 2.35279-3.71088 2.98402 0 0.26779 0.286928 0.26779 0.459072 0.26779 0.229536 0 0.36344 0 0.439952-0.24865 0.55472-1.74068 1.93195-2.31453 2.71621-2.31453 0.72688 0 1.07118 0.3443 1.07118 0.95641 0 0.36344-0.267792 1.41549-0.439952 2.10412l-0.650352 2.62056c-0.286928 1.16683-0.975552 1.74067-1.6259 1.74067-0.09568 0-0.5356 0-0.91816-0.28691 0.688608-0.19128 1.03293-0.84165 1.03293-1.31986 0-0.42082-0.325184-0.8799-0.956416-0.8799-0.669488 0-1.37723 0.55472-1.37723 1.49201 0 1.01379 1.01379 1.68328 2.18062 1.68328 1.0903 0 1.79805-0.82251 2.04672-1.16681 0.478208 0.80337 1.54939 1.16681 2.6397 1.16681 2.41016 0 3.71088-2.35277 3.71088-2.984 0-0.26781-0.286912-0.26781-0.459072-0.26781-0.229536 0-0.36344 0-0.439952 0.24868-0.55472 1.74067-1.93195 2.31451-2.71621 2.31451-0.72688 0-1.07118-0.34431-1.07118-0.9564 0-0.4017 0.248672-1.41551 0.420816-2.12325 0.13392-0.49733 0.573856-2.29539 0.669488-2.60144 0.286928-1.1477 0.956416-1.74067 1.6259-1.74067 0.09568 0 0.5356 0 0.91816 0.28693z" fill="#f00" stroke-width="1.2"/><path d="m-1.92958 357.747c0.200848 0.12048 0.68288 0.41507 1.45949 0.41507 1.37915 0 2.38338-0.92389 2.38338-1.96829 0-0.52221-0.241008-0.9373-0.562368-1.28542 0.602544-0.42848 1.12475-0.44188 1.35237-0.44188-0.0536 0.0536-0.12048 0.10704-0.12048 0.32136 0 0.2678 0.200832 0.42848 0.428464 0.42848 0.187456 0 0.42848-0.13392 0.42848-0.44187 0-0.30797-0.254416-0.68288-0.79-0.68288-0.200848 0-0.923904 0.0402-1.55322 0.61594-0.401696-0.29458-0.964064-0.48203-1.55322-0.48203-1.37915 0-2.38338 0.92388-2.38338 1.9683 0 0.52219 0.267792 1.00422 0.642704 1.35237-0.10704 0.12048-0.401696 0.56237-0.401696 1.08457 0 0.17407 0.04016 0.80338 0.562368 1.19168-0.602528 0.20085-1.2988 0.64271-1.2988 1.33898 0 0.97746 1.47286 1.7139 3.2805 1.7139 1.7005 0 3.2805-0.66948 3.2805-1.74067 0-0.40169-0.160672-1.12475-0.89712-1.52645-0.79-0.41507-1.58-0.41507-2.8788-0.41507-0.294576 0-0.776608 0-0.883728-0.0128-0.42848-0.0938-0.669488-0.49542-0.669488-0.88373 0-0.33475 0.09376-0.44187 0.174064-0.54897zm1.47288 0.0128c-1.31221 0-1.31221-1.28541-1.31221-1.5666 0-0.21424 0-0.74984 0.267808-1.09796 0.187456-0.22764 0.548976-0.46864 1.03101-0.46864 1.31219 0 1.31219 1.28542 1.31219 1.5666 0 0.21423 0 0.74983-0.267792 1.09796-0.187456 0.22763-0.548976 0.46864-1.03101 0.46864zm0 2.32982c1.1917 0 2.86541 0 2.86541 1.05779 0 0.70967-1.05779 1.3256-2.46371 1.3256-1.40592 0-2.46373-0.62933-2.46373-1.3256 0-0.46864 0.42848-1.0444 1.28542-1.05779z" fill="#f00" stroke-width="1.2"/></g></g></svg>
