<?xml version="1.0" encoding="UTF-8"?>
<svg width="180.505" height="128.349" version="1.1" viewBox="0 0 180.50537 128.34943" xmlns="http://www.w3.org/2000/svg"><defs><marker id="marker3596" overflow="visible" orient="auto"><path transform="matrix(-.8 0 0 -.8 -10 0)" d="m0 0 5-5-17.5 5 17.5 5z" fill-rule="evenodd" stroke="#000" stroke-width="1pt"/></marker></defs><g transform="translate(64.5384 -257.423)"><path d="m115.091 359.516-5.11996-5.59996-4.87996-5.83996-4.79997-6.23995-4.55996-6.55995-4.47997-7.11995-4.47997-7.51995-4.39996-7.75994-4.31997-7.91994-4.31997-7.83994-4.31997-7.67994-4.23997-7.11995-4.07997-6.39995-3.91997-5.59996-3.83997-4.71996-3.59997-4.07997-3.43998-3.35998m-6.71995 2.55998 3.35998 3.35998 3.51997 3.99997 3.67997 4.79996 3.91998 5.51996 4.07997 6.31995 4.15996 7.11995 4.23997 7.43994 4.31997 7.75995 4.39997 7.83994 4.39997 7.67994 4.39996 7.43995 4.47997 7.11994 4.55997 6.55995 4.63996 6.15996 4.87997 5.91995 4.95996 5.67996m-7.83994 1.75999-4.87997-5.67996-4.79996-5.91995-4.55997-6.15996-4.55996-6.47995-4.39997-6.95995-4.39997-7.27995-4.31997-7.51994-4.31996-7.67994-4.31997-7.51995-4.23997-7.35994-4.07997-6.87995-3.99997-6.23995-3.83997-5.43996-3.59998-4.63997-3.43997-3.99997-3.27997-3.43997m-6.95995 4.23997 3.11998 3.43997 3.27997 3.91997 3.51998 4.63997 3.75996 5.27996 3.91997 5.99995 4.07997 6.63995 4.15997 6.95995 4.23997 7.27995 4.23997 7.35994 4.31997 7.27995 4.31997 7.03995 4.39996 6.79994 4.39997 6.31996 4.47997 6.07995 4.63996 5.83996 4.87997 5.75996m-8.79994 1.51999-4.63996-5.67996-4.55997-5.75996-4.39997-5.99995-4.31996-6.15996-4.31997-6.47995-4.23997-6.71995-4.23997-6.87995-4.15997-6.95995-4.15997-6.79995-4.07997-6.63995-3.91996-6.23995-3.83998-5.75996-3.59997-5.03996-3.35997-4.47997-3.19998-3.83997-2.95998-3.43997m-7.11995 6.39995 2.79998 3.35998 3.03998 3.75997 3.27998 4.31996 3.43997 4.71997 3.59997 5.35996 3.83998 5.75995 3.91997 6.07996 3.99996 6.31995 4.07997 6.39996 4.15997 6.39995 4.15997 6.23995 4.15997 6.15996 4.15997 5.91995 4.31997 5.75996 4.39997 5.67996 4.47996 5.67996m-9.67993 1.19999-4.31996-5.59996-4.23997-5.51996-4.15997-5.51996-4.07997-5.59996-3.99997-5.67996-3.99997-5.75995-3.91997-5.75996-3.91997-5.75996-3.91997-5.67996-3.75997-5.43996-3.59998-5.27996-3.43997-4.87996-3.27998-4.39997-3.03998-4.07997-2.87997-3.67997-2.71998-3.27997m-6.95995 7.67994 2.47998 3.27997 2.71998 3.51998 2.87998 3.83997 3.03998 4.07997 3.27997 4.39996 3.35998 4.63997 3.59997 4.79996 3.59997 4.95997 3.75998 5.11996 3.75997 5.11996 3.83997 5.11996 3.83997 5.19997 2.63998 3.67997 5.19996 6.79995 3.99997 5.35996 4.15997 5.51996m-10.3199 1.11999-3.91997-5.35996-3.83996-5.19996-3.75998-4.95997-3.67997-4.87996-3.67997-4.63997-3.59998-4.55996-3.51997-4.47997-3.51997-4.31997-3.35998-4.31996-3.35997-4.15997-3.11998-3.99997-3.03998-3.91997-2.87998-3.67998-2.63998-3.59997-2.55998-3.43998-2.31998-3.19997m-6.79995 7.67994 2.15998 3.19998 2.31999 3.35997 2.47998 3.27998 2.63998 3.43997 2.71998 3.43998 2.95998 3.43997 3.03997 3.51998 3.19998 3.51997 3.19998 3.67997 3.27997 3.83997 3.35998 3.91998 3.43997 4.15996 3.43998 4.39997 3.51997 4.71997 3.59997 4.95996 3.75998 5.35996m-10.5599 1.19999-3.51997-5.19996-3.35997-4.79996-3.27998-4.47997-3.27998-3.99997-3.11997-3.67997-3.11998-3.35998-3.03998-3.19998-2.95998-3.03997-2.87997-2.87998-2.71998-2.87998-2.71998-2.95998-2.55999-2.95998-2.39998-3.11997-2.23998-3.11998-2.07999-3.19998-2.07998-3.11997m-6.63995 6.71995 1.83999 3.19997 1.91998 3.03998 2.07999 2.95998 2.15998 2.79998 2.31998 2.63998 2.39999 2.47998 2.47998 2.31998 2.63998 2.39998 2.63998 2.39999 2.79998 2.55998 2.79998 2.87998 2.87997 3.27997 2.95998 3.67998 3.11998 4.15996 3.11998 4.71997 3.27997 5.11996m-48.1596-44.6397 1.75999 3.11998 1.75998 3.03998 1.83999 2.79998 1.99998 2.63998 2.07999 2.23998 2.15998 2.07998 2.23999 1.91999 2.31998 1.91999 2.39998 1.91998 2.47998 2.15999 2.55998 2.39998 2.63998 2.87998 2.71998 3.43997 2.79998 3.99997 2.87998 4.55997 3.03998 5.03996m-10.2399 1.75999-2.87998-5.03997-2.63998-4.47996-2.55998-3.91997-2.47999-3.19998-2.39998-2.55998-2.31998-2.15998-2.23998-1.75999-2.07999-1.51999-2.07998-1.51999-1.99999-1.59999-1.91998-1.83998-1.83999-1.99999-1.83999-2.47998-1.67998-2.71998-1.59999-2.95998-1.51999-3.19997m-6.79995 4.15996 1.43999 3.19998 1.43999 2.95998 1.51999 2.63998 1.59998 2.39998 1.59999 1.83999 1.75999 1.59999 1.75999 1.35999 1.83998 1.27999 1.91999 1.27999 1.99998 1.51999 1.99999 1.91998 2.15998 2.39998 2.23999 3.03998 2.31998 3.83997 2.47998 4.47997 2.55998 5.03996m-37.5197-37.3597 1.27999 3.19998 1.27999 2.95997 1.35999 2.71998 1.43999 2.23999 1.43999 1.83998 1.51999 1.43999 1.59999 1.19999 1.59998 1.12 1.75999 1.11999 1.75999 1.35999 1.75999 1.67998 1.91998 2.31999 2.07999 3.03998 2.07998 3.75997 2.23998 4.39996 2.31999 5.19997m-34.4798-36.7197 1.19999 3.19997 1.11999 3.03998 1.27999 2.63998 1.2 2.23999 1.27999 1.75998 1.35999 1.43999 1.35999 1.11999 1.43999 0.96 1.51998 1.03999 1.51999 1.27999 1.67999 1.59999 1.67999 2.23998 1.75999 3.03998 1.91998 3.75997 1.99999 4.47997 2.07998 5.27996l10.0799-2.39998 10.0799-2.23999 10.2399-1.99998 10.2399-1.75999 10.4799-1.51999 10.5599-1.35999 10.5599-1.19999 10.4799-1.19999 10.3199-1.11999 10.0799-1.19999 9.67993-1.19999 9.27993-1.43999 8.79994-1.51999 8.23994-1.67999 7.83994-1.75999 7.51994-1.91998m-5.11996-5.59996-7.35994 1.83998-7.75995 1.75999-8.23994 1.59999-8.55993 1.59999-9.11993 1.43999-9.51993 1.27999-9.91993 1.27999-10.0799 1.27999-10.3199 1.19999-10.3199 1.35999-10.3199 1.43999-10.2399 1.59999-10.0799 1.75998-9.91993 1.99999-9.83993 2.07998-9.83992 2.31999m-1.99999-4.47997 9.59993-2.23998 9.59993-2.15999 9.75993-1.99998 9.83992-1.83999 9.99993-1.75999 10.0799-1.51998 10.0799-1.51999 11.8399-1.59999 8.15994-1.27999 9.67993-1.43999 9.35993-1.43999 8.95993-1.51999 8.47994-1.67999 8.07994-1.67998 7.67994-1.75999 7.35995-1.75999m-4.79997-6.23995-7.19994 1.83998-7.59995 1.75999-7.99994 1.75999-8.39994 1.75999-8.87993 1.75998-9.19993 1.67999-9.51993 1.67999-9.67993 1.75998-9.83992 1.67999-9.83993 1.75999-9.91993 1.83999-9.67993 1.91998-9.59992 1.91999-9.51993 2.07998-9.35993 2.23999-9.43993 2.23998m-1.75999-3.03998 9.11993-2.23998 9.19993-2.23999 9.27993-2.23998 9.35993-2.15998 9.43993-2.15999 9.59993-2.15998 9.67993-2.15999 9.59993-2.15998 9.51993-2.07998 9.27993-2.07999 9.11993-1.99998 8.71994-1.99999 8.31993-1.91999 7.83995-1.91998 7.59994-1.83999 7.19995-1.83998m-4.47997-7.11995-7.19995 1.83999-7.51994 1.99998-7.83994 2.07999-8.23994 2.23998-8.55994 2.31998-8.95993 2.47998-9.11993 2.55998-9.35993 2.63998-9.35993 2.63999-9.35993 2.63998-9.35993 2.55998-9.19994 2.55998-9.11993 2.47998-9.03993 2.39998-8.95993 2.31998-8.87994 2.31999m-1.67999-1.59999 8.79994-2.39998 8.71993-2.55998 8.71994-2.63998 8.87993-2.71998 8.95994-3.03998 9.03993-3.03998 9.11993-3.19998 9.11993-3.27997 9.11994-3.19998 8.95993-3.19997 8.79993-2.95998 8.47994-2.79998 8.15994-2.55998 7.75994-2.31999 7.51995-2.15998 7.11994-1.91999m-4.39996-7.75994-7.11995 1.99999-7.43995 2.31998-7.75994 2.55998-8.07994 2.95998-8.39994 3.27998-8.55993 3.59997-8.79993 3.83997-8.87994 3.83997-8.87993 3.91997-8.87994 3.83997-8.79993 3.67998-8.63994 3.43997-8.63993 3.11998-8.47994 2.87998-8.47994 2.71998-8.55994 2.47998m-1.51998-1.03999 8.31993-2.55998 8.31994-2.87998 8.31994-3.11998 8.31994-3.51997 8.39994-3.91998 8.47993-4.31996 8.63994-4.47997 8.55994-4.55997 8.63993-4.63996 8.63994-4.47997 8.39993-4.23997 8.31994-3.83997 7.99994-3.35997 7.67995-2.87998 7.35994-2.47998 7.19995-2.07999m-4.31997-7.83994-7.19995 2.15998-7.35994 2.71998-7.59995 3.11998-7.91994 3.83997-8.15993 4.31997-8.31994 4.87996-8.31994 5.19996-8.39994 5.27997-8.39994 5.35996-8.31993 5.11996-8.23994 4.79996-8.07994 4.39997-8.07994 3.91997-8.07994 3.35998-8.07994 3.03997-8.15994 2.71998m-1.35999-1.11999 7.91994-2.79998 7.91994-3.19997 7.83994-3.59998 7.83994-4.23997 7.83995-4.79996 7.99994-5.35996 7.99994-5.75996 8.07994-5.99995 8.15994-5.91996 8.15994-5.83996 8.15994-5.51996 7.99993-4.87996 7.83994-4.15997 7.51995-3.51997 7.35994-2.79998 7.11995-2.39998m-4.23997-7.11995-7.03994 2.39998-7.27995 3.03998-7.51995 3.75997-7.67993 4.55997-7.91995 5.35996-7.91994 5.99995-7.91994 6.47995-7.91994 6.55996-7.91994 6.55995-7.75994 6.23995-7.67995 5.83996-7.59994 5.19996-7.59994 4.47997-7.67995 3.83997-7.67994 3.35997-7.75994 2.79998m-1.27999-1.75998 7.59994-2.87998 7.51994-3.35998 7.43995-3.99997 7.35994-4.71996 7.35995-5.59996 7.43994-6.15996 7.59995-6.71995 7.59994-7.03994 7.67995-7.03995 7.75994-6.95995 7.75994-6.47995 7.67994-5.75996 7.59994-4.79996 7.43995-3.99997 7.19995-3.11998 7.03994-2.47998m-3.91997-5.59996-7.03995 2.55998-7.11994 3.19998-7.35994 4.15997-7.43995 5.03996-7.51994 6.07995-7.59995 6.79995-7.51994 7.27995-7.51995 7.43994-7.35994 7.27995-7.35995 7.03995-7.19994 6.47995-7.19995 5.75996-7.19995 4.87996-7.19994 4.07997-7.35995 3.51997-7.35995 2.87998m-1.27999-2.63998 7.27995-2.95998 7.19995-3.43997 7.03995-4.15997 7.03994-4.95996 6.95995-5.91996 7.03995-6.63995 7.11995-7.19995 7.19994-7.59994 7.27995-7.67994 7.35994-7.51995 7.35995-7.03994 7.43995-6.23996 7.27994-5.19996 7.27994-4.15997 7.03995-3.35997 6.87995-2.47998m-3.59997-4.07997-6.79995 2.55998-6.95995 3.35997-7.11994 4.23997-7.19995 5.27996-7.27995 6.31996-7.19994 7.11994-7.19995 7.67994-7.11995 7.75994-6.95995 7.67995-6.87995 7.35994-6.87994 6.79995-6.79995 5.91996-6.87995 5.03996-6.87995 4.15997-7.03995 3.43998-7.11995 2.87997m-1.19999-3.19997 7.03995-2.87998 6.87995-3.43998 6.79995-4.15996 6.63995-4.95997 6.71995-5.99995 6.63995-6.71995 6.79995-7.43995 6.79995-7.67994 6.95995-7.83994 6.95995-7.67994 7.11994-7.19995 7.11995-6.39995 7.03995-5.27996 6.95995-4.23997 6.87994-3.27998 6.71995-2.55998m-62.5595 52.1596-1.99999 2.15999-1.91998 2.07998-1.91999 2.15998-0.95999 1.04-1.99999 1.99998-1.99998 2.07999-1.99999 1.99998-0.63999 0.64-2.15998 1.91998-2.15999 1.91999-2.15998 1.91998-0.24 0.24-2.23998 1.67999-2.31999 1.75999-2.07998 1.51999-2.47998 1.51998-2.47999 1.51999-1.83998 1.11999-2.55998 1.27999-2.63998 1.28-1.67999 0.87999-2.63998 1.11999-2.71998 1.03999-1.67999 0.72 0.95999 2.71998 0.24 0.47999 1.03999 2.71998 0.08 0.32 1.19999 2.55998 0.08 0.08 1.2 2.23999 1.27999 1.75998 1.35999 1.43999 1.35999 1.11999 1.43999 0.96 1.51998 1.03999 1.51999 1.27999 1.67999 1.59999 1.67999 2.23998 1.43999 2.47998 0.32 0.56 1.27999 2.55998 0.63999 1.19999 1.11999 2.63998 0.88 1.83999 1.03999 2.71998 1.03999 2.55998 2.79998-0.72 2.79998-0.63999 2.79998-0.64 1.67999-0.39999 2.79998-0.64 2.79997-0.63999 2.87998-0.56 1.59999-0.4 2.87998-0.55999 2.79998-0.56 2.79998-0.48 1.75999-0.39999 2.79998-0.48 2.79997-0.48 2.87998-0.47999 1.75999-0.32 2.87998-0.4 2.87998-0.39999 2.79998-0.4 1.91998-0.32 2.87998-0.4 2.87998-0.31999 2.79998-0.4 1.99998-0.24 2.87998-0.32 2.87998-0.31999 2.79998-0.4 1.99999-0.16 2.87997-0.32 2.87998-0.31999 2.87998-0.32 1.83998-0.24 2.87998-0.32 2.87998-0.32 2.87998-0.31999 1.67999-0.16 2.87998-0.32 2.87998-0.4 2.87997-0.31999 1.43999-0.16 2.87998-0.32 2.79998-0.4 2.87998-0.39999 1.11999-0.08 2.87998-0.48 2.87998-0.4 2.79998-0.39999 0.71999-0.16 2.87998-0.48 2.79998-0.48 2.79998-0.47999 0.32-0.08 2.79998-0.56 2.79998-0.55999 2.63998-0.56 2.79998-0.64 2.79998-0.63999 2.23998-0.48 2.79998-0.71999 2.79998-0.72 1.91998-0.47999-1.91998-2.07999-1.91999-2.15998-1.27999-1.35999-1.83999-2.23998-1.83998-2.15999-1.19999-1.43999-1.75999-2.31998-1.75999-2.23998-1.27999-1.67999-1.59999-2.31998-1.67998-2.39999-1.27999-1.83998-1.51999-2.39998-1.59999-2.47999-1.35999-2.23998-1.51999-2.47998-1.43999-2.47998-1.43999-2.47998-0.08-0.08-1.35999-2.47999-1.43999-2.47998-1.43999-2.55998-0.15999-0.24-1.35999-2.55998-1.35999-2.47998-1.43999-2.55998-0.16-0.32-1.43999-2.55998-1.35999-2.47998-1.35999-2.55998-0.16-0.32-1.43999-2.47998-1.43999-2.47998-1.35999-2.47998-0.08-0.16-1.43999-2.47998-1.43999-2.39998-1.35999-2.23999-1.51999-2.39998-1.51998-2.39998-1.04-1.59999-1.67998-2.39998-1.67999-2.31998-0.56-0.88-1.83998-2.23998-1.75999-2.23998-0.24-0.24-1.91999-2.15999-1.67998-1.91998-2.07999-1.99999-1.35999-1.35999-2.71998 1.04-2.63998 0.95999-1.35999 0.55999-2.63998 1.2-2.55998 1.27999-1.67998 0.79999-2.47998 1.51999-2.39999 1.43999-2.07998 1.27999-2.31998 1.75999-2.31999 1.67998-2.23998 1.75999-0.16 0.08-2.15998 1.91999-2.15999 1.91998-2.15998 1.91999-0.64 0.63999-1.99998 1.99999-2.07999 2.07998-1.99998 2.07999-1.03999 1.03999-1.91999 2.07998-1.91999 2.15998-1.91998 2.07999-1.19999 1.35999-1.91999 2.07998-1.91998 2.15999-1.91999 2.15998-1.19999 1.43999-1.91999 2.15998-1.83998 2.15999-1.91999 2.07998-1.11999 1.27999" fill="none" stroke="#8e8e8e" stroke-width=".399997px"/><path d="m2.71133 356.25c10.067-7.73534 15.9064-11.6155 23.0859-19.3785 10.5277-11.3834 13.5103-18.8757 17.5138-25.7146" color="#000000" color-rendering="auto" fill="none" image-rendering="auto" marker-end="url(#marker3596)" shape-rendering="auto" solid-color="#000000" stroke="#000" style="isolation:auto;mix-blend-mode:normal"/><circle transform="rotate(-8.81163)" cx="-51.8934" cy="352.461" r="6.49537" color="#000000" fill="#3338f6"/></g></svg>
