<?xml version="1.0" encoding="UTF-8"?>
<svg width="159.957" height="140.83" version="1.1" viewBox="0 0 159.95663 140.83022" xmlns="http://www.w3.org/2000/svg">
 <defs>
  <marker id="marker11509-30" overflow="visible" orient="auto">
   <path transform="matrix(-.4 0 0 -.4 -4 0)" d="m0 0 5-5-17.5 5 17.5 5z" fill="#f00" fill-rule="evenodd" stroke="#f00" stroke-width="1pt"/>
  </marker>
  <marker id="marker5980" overflow="visible" orient="auto">
   <path transform="matrix(-.4 0 0 -.4 -4 0)" d="m0 0 5-5-17.5 5 17.5 5z" fill-rule="evenodd" stroke="#000" stroke-width="1pt"/>
  </marker>
  <marker id="marker6790" overflow="visible" orient="auto">
   <path transform="matrix(-.4 0 0 -.4 -4 0)" d="m0 0 5-5-17.5 5 17.5 5z" fill-rule="evenodd" stroke="#000" stroke-width="1pt"/>
  </marker>
  <marker id="Arrow2Mstart" overflow="visible" orient="auto">
   <path transform="scale(.6)" d="m8.71859 4.03374-10.9259-4.01772 10.9259-4.01772c-1.7455 2.37206-1.73544 5.61745-6e-7 8.03544z" fill="#00f" fill-rule="evenodd" stroke="#00f" stroke-linejoin="round" stroke-width=".625"/>
  </marker>
 </defs>
 <path d="m94.0625 79.839-75.3697-6.79289" color="#000000" color-rendering="auto" fill="none" image-rendering="auto" marker-end="url(#marker5980)" shape-rendering="auto" solid-color="#000000" stroke="#000" stroke-linecap="round" stroke-linejoin="round" stroke-width="1.2" style="isolation:auto;mix-blend-mode:normal"/>
 <path d="m94.0625 79.839-40.4286 32.2444" color="#000000" color-rendering="auto" fill="none" image-rendering="auto" marker-end="url(#marker6790)" shape-rendering="auto" solid-color="#000000" stroke="#000" stroke-linecap="round" stroke-linejoin="round" stroke-width="1.2" style="isolation:auto;mix-blend-mode:normal"/>
 <path d="m131.36 94.228c0.0522 0.0897 0.21964 0.39236 0.21334 0.39583 0.0351-0.0193-0.0608-0.16567-0.21334-0.39583zm-21.5295-56.0496c-0.0989-0.0903-0.16366 0.0247-0.25704 0.1748 0.14516-0.0985 0.24819-0.18288 0.25704-0.1748zm-6.75238 25.2257c-0.2491 0.16035-0.85327 0.31403-1.18494 0.48838 0.33993-0.14583 0.92344-0.27674 1.18494-0.41384-2e-3 -0.0395 2e-3 -0.035 0-0.0744zm3.5e-4 0.07439-3.5e-4 1e-5c0.14326 2.36019 0.0807 2.66354 0.0744 4.45448-0.40858 0.61913-0.47659 0.79573-1.12326 1.54992-0.0138 0.0162-0.0271 0.0326-0.0411 0.0488-1.40951 1.6351-3.02963 2.86572-2.95594 2.9585 9e-3 0.0109 1.73091-0.85335 3.2978-2.66291l0.0437-0.0488c0.58396-0.68702 0.46553-0.78892 0.78654-1.37771-0.0207 2.53934 0.0494 6.62617 0.10791 6.629-0.0449-2e-3 0.22163-3.18614 0.27246-7.29731 1e-3 -0.10791-4e-3 -0.22166-2e-3 -0.33157 0.0109-1.3803 0.0769-2.5257-0.0232-4.16401l6e-4 -0.06414c-0.0135-0.21685 0.0134-0.32963-2e-3 -0.55007-0.0412-0.56488-0.0884-1.1318-0.14395-1.69901-0.31765-3.24146-1.18316-8.81242-1.44969-10.6671 0.20464 0.63228 0.49419 1.59908 0.51406 1.59362 0.0598-0.0173-0.20316-0.96927-0.60659-2.75542-0.042-0.18583-0.0573-0.58267-0.10278-0.7917-0.0144-0.22014-0.0806-0.60506-0.0719-0.76339l-0.0463-0.1388c-0.32653-1.61893-0.72473-3.36121-0.71971-5.51088 2e-3 -1.3096 0.062-2.65679 0.20821-4.01751 0.29611-2.755 0.90031-5.19026 1.77869-7.3487 0.92591-2.29337 2.10295-3.39061 2.99963-4.06634-0.15026 0.60763-0.3292 1.21461-0.39584 1.8224-0.33124 3.01353 0.19043 5.88415 0.72227 7.96302 0.29696 1.30448 0.66002 2.28581 1.59364 2.53954 1.26595 0.31054 1.60337-0.14333 1.78126-0.42925-0.29677 0.20155-0.85334 0.47503-1.72728 0.22618-0.8252-0.21035-1.01278-1.10521-1.34687-2.40844-0.47221-2.06988-0.94143-4.9148-0.59375-7.84222 0.0908-0.76223 0.2855-1.52515 0.50892-2.27992 7e-3 -0.0221 9e-3 -0.0448 0.0154-0.0668 0.31267-1.03609 0.72059-2.05023 1.31602-2.9765 0.11015-0.17135 0.22441-0.33919 0.34443-0.5038 0.27948-0.32627 0.47496-0.72701 0.73-0.68885 0.11594-0.0843 0.20583 0.23594 0.35727 0.49351 0.58849 1.49466 0.66138 3.2453 0.80454 4.77318 0.27845 3.03677 0.37762 5.44556 0.3984 7.46953-2e-3 2.44722-0.58572 3.59659-0.55005 3.62936 0.034 0.0311 0.69084-1.18668 0.78139-3.35691 0.15174 1.80417 0.44339 4.41641 1.13096 7.88078 0.33406 1.68092 0.92086 3.51678 1.31862 5.4492-0.14132 0.11554-0.42962 0.74405-1.14382 1.0667-0.0756 0.0383-0.15403 0.0719-0.23391 0.10278-0.95121 0.36684-2.03975 0.38549-2.03318 0.5038-3.8e-4 -7e-3 0.97528 0.37468 2.19253-0.0849 0.094-0.0354 0.1872-0.0748 0.27761-0.12081 0.79401-0.43818 0.93258-0.93632 0.98959-1.25948 0.0375 0.19174 0.0987 0.34241 0.13108 0.5372 0.24944 1.493 0.19226 3.12941 0.60661 4.77577 0.66184 2.6059 1.73544 5.1339 3.05104 7.64944 0.51542 0.98533 1.09745 1.93048 1.7093 2.85826 0.45213 0.68561 0.91877 1.35989 1.38286 2.03059 0.64059 0.92253 1.08924 1.97247 1.48825 3.03048 0.90164 2.39606 1.71264 4.59076 2.73487 6.7678 1.17435 2.50109 2.49458 4.73386 3.27724 6.90918 0.96867 2.68342 1.33748 5.17662 1.90722 7.06853 0.70691 2.344 1.5697 3.65052 1.9612 4.24112-0.25632-0.44018-0.99635-1.67153-1.7273-4.30795-0.49628-1.78671-0.86894-4.16879-1.71187-6.7421 1.1821 2.264 2.56565 4.75628 4.21799 7.16108 1.53083 2.21865 3.38066 3.59687 5.38237 5.68052 1.88933 1.96526 3.40297 4.15148 5.15361 6.39253 0.56224 0.71977 1.13814 1.42816 1.74272 2.11285 5.38437 6.09607 4.91831 5.41964 8.72929 9.29336 4.01601 4.08218 6.27164 6.3219 6.3077 6.28715 0.0458-0.044-2.13069-2.36013-6.08665-6.50049-3.68605-3.85789-3.30826-3.36089-8.61106-9.37819-0.59574-0.67581-1.16601-1.37674-1.72473-2.09228-1.73872-2.22672-3.26962-4.42822-5.19472-6.42081-2.04024-2.1102-3.876-3.45023-5.37209-5.60084-2.76204-3.95416-5.18774-8.75697-6.39254-11.0912l-2e-3 -2e-3c-0.52601-1.05999-0.95338-2.05106-1.47797-3.1847-1.00144-2.16415-1.79582-4.34703-2.69375-6.7498-0.40006-1.07284-0.86674-2.15588-1.53709-3.13072-0.46322-0.67143-0.92652-1.34301-1.37514-2.02289-0.60716-0.92011-1.18266-1.85093-1.68874-2.81712-1.30689-2.49464-2.37274-4.98601-3.03563-7.54664-0.4085-1.56282-0.36361-3.1961-0.6323-4.73721-0.40189-2.29407-1.16577-4.31861-1.56279-6.1946-1.17313-5.53805-1.3235-7.9311-1.44199-8.90377 0.019-1.88245-9e-3 -3.98461-0.22876-6.68812-0.11989-1.51814-0.18972-3.30191-0.80195-4.89915-0.068-0.30749-0.30051-0.72375-0.79426-0.7814l-2e-3 -4.5e-4c-0.56014 0.074-0.87118 0.53511-1.07441 0.87136-0.12515 0.17193-0.2451 0.34822-0.35985 0.52693-0.71111 1.10722-1.14588 2.32588-1.46511 3.56254-0.93675 0.514-2.23986 1.42023-3.38005 4.05348-0.93544 2.17461-1.57595 4.65692-1.87638 7.44639-0.14852 1.37965-0.20462 2.74558-0.19278 4.06891 0.0252 2.88342 0.654 5.57355 1.11298 7.26644 5e-3 0.0189 5e-3 9e-3 0.0109 0.0283 0.0231 0.28607-0.0191 0.39078 0.0231 0.80454 0.26237 2.61878 0.90663 6.77047 1.3186 10.9755 0.0553 0.56424 0.10605 1.12772 0.14907 1.68873 0.0312 0.40612-0.0119 0.35069 0.0132 0.74798m-1.18589 0.48827c-0.82561 0.35418-1.56014 0.7277-2.87882 1.00244-1.58709 0.33461-3.26245 0.0925-5.38752-0.51664-2.19786-0.6333-3.84299-1.24802-6.46706-2.12571-0.96574-0.32454-2.05032-0.67729-3.17442-0.69915-1.58923-0.0269-3.45657-0.0177-5.18187-0.15679-3.27541-0.26356-6.75549-0.67303-10.4306-1.26976-1.46458-0.23752-2.91326-0.57799-4.41591-0.95619-1.60021-0.39456-3.19495-0.0542-4.81174 0.0488-4.78419 0.28982-10.0436 0.59224-15.1601 1.24407-2.54804 0.30756-5.57076 0.42775-7.5492 2.3339-0.950823 0.94288-1.30819 2.38426-1.00244 3.68335 0.329952 1.31272 1.50455 2.20608 2.77344 2.53953 1.12663 0.30067 2.28075 0.43744 3.43916 0.48323 1.00604 0.0398 2.01489 0.0119 3.00991-0.0308 1.61384-0.0666 3.19451-0.32383 4.75777-0.29303 1.6888 0.0306 3.39887 0.22846 5.11144 0.34189 2.10824 0.13936 4.95963 0.20359 7.01288 0.30585 2.01551 0.0998 3.23971 0.39138 5.19745 0.712 2.64974 0.43494 5.17263 0.86242 7.61088 1.64503 1.61812 0.52351 3.10969 1.2649 4.27968 2.34933-1.10684 0.20877-3.47083 0.75609-9.05544 1.74527-1.53374 0.27086-3.78946 0.43651-5.55973 1.01017-1.18002 0.39851-2.03262 1.35159-2.74773 2.36475-1.17667 1.6452-2.27659 3.40318-3.43916 5.10991-0.03794 0.0558-0.07758 0.11147-0.115666 0.16707-0.984274 1.4334-2.07967 2.76554-2.78115 4.37736-0.494773 1.14807-0.614338 2.40458-0.457529 3.5831 0.145597 1.14849 0.546928 2.26438 1.35973 3.04332 1.11242 1.03834 2.73519 1.55314 3.8787 2.06402 1.46992 0.66273 2.48073 1.14274 3.45973 1.53965 0.13705 0.21502 1.66781 1.6513 4.35165 4.04064 0.09182 0.0817 0.239128 0.18478 0.33415 0.26987-0.13893 0.45655-0.260848 0.5598-0.311016 1.67847-0.02899 0.6206 0.08762 1.42038 0.606608 2.06659 0.739862 0.899 1.63795 1.40438 2.71175 2.15398 1.19012 0.83637 2.80167 1.96274 3.9918 2.79913 0.01345 9e-3 0.685705 0.4843 0.699142 0.49352 0.737037 0.5303 1.46244 1.17038 2.42643 1.34172 0.930642 0.14481 1.86751-0.057 2.66034-0.21848 1.28095-0.25486 2.52024-0.57687 3.47515-0.83793 0.69644-0.19037 0.58336-0.18904 1.07186-0.33673 0.0317-9e-3 0.0386-0.0136 0.0693-0.0231 0.87138-0.26535 1.72736-0.52475 1.9689-0.61689 0.33614-0.0792 0.67214-0.18503 0.99217-0.35985 0.0283-0.015 0.026-0.0634 0.054-0.0798 0.17244 0.0717 0.0984 0.0501 0.28275 0.12595 2.53558 1.04342 6.36873 2.54144 10.3895 3.51884 0.58413 0.14221 1.17478 0.27735 1.76842 0.40355 4.14081 0.88011 7.70849 1.13761 10.9755 0.75055 0.94623-0.11358 1.6994-0.33217 2.36476-0.57577 0.8246 1.10264 0.88429 1.40418 2.80941 3.35948 1.71976 1.74652 4.22734 4.10393 6.08152 6.36683 0.14302 0.17439 0.28456 0.34901 0.42668 0.52435 2.81818 3.47678 5.60581 7.33483 7.45152 9.85997 1.93739 2.6506 3.04644 4.12493 3.09987 4.0869 0.0444-0.0316-0.97192-1.5719-2.84027-4.27197-1.81025-2.61612-4.49522-6.42667-7.35898-9.96021-0.14269-0.17607-0.28547-0.35192-0.42926-0.52693-1.90471-2.31627-4.40001-4.61708-6.16119-6.34626-1.85254-1.81846-1.97961-2.08283-2.8891-3.13843 1.61024-0.624 2.42718-1.4747 2.79143-1.79926-0.29664 0.14897-1.38174 0.81051-3.1487 1.40857-0.0521 0.0177-0.10595 0.0317-0.15938 0.0488-0.69361 0.22268-1.14411 0.52826-2.07429 0.61689-3.24004 0.31447-6.72542 0.026-10.847-0.84822-0.5891-0.1249-1.17444-0.25677-1.75556-0.39585-3.96517-0.95045-7.83952-2.40192-10.3818-3.36204-0.14631-0.0553-0.0898-0.0298-0.22877-0.0823 0.51181-0.38181 1.02265-0.8653 1.06157-1.52938 8e-3 -0.12937 1e-3 -0.26056-0.0205-0.39327-0.18727-0.73686-0.8554-1.04794-1.51652-1.19265-0.0506-0.10889-5e-3 -0.1274-0.0772-0.24676-0.0724-0.12054-0.10963-0.0912-0.18251-0.18764 0.56641-0.47359 0.88542-1.20121 0.88936-1.94577 2.8e-4 -0.0484-0.0337-0.0906-0.036-0.1388 4e-3 0.0119 0.0596 0.14715 0.0642 0.1465-0.0939 0.0134 0.22339-0.63831-0.42154-1.65532-0.56698-0.87188-1.4451-1.43308-2.78885-2.09228-0.71584-0.35718-1.5123-0.68051-2.30306-1.00501-0.361211-2.14707-0.610401-3.74193-1.09498-6.32057-8.07e-4 -4e-3 -0.0022-7e-3 -0.0022-0.0109-0.0011-8e-3 -0.0044-0.0158-0.0054-0.0232-0.419782-2.22789-0.994308-4.57911-1.52423-7.07367-0.04883-0.22977-2.94e-4 -0.48265-0.03597-0.71713-0.0033-0.0202 4.03e-4 -0.0414-0.0022-0.0617-0.128301-0.87285-0.212185-1.75833-0.12853-2.66548 0.0044-0.0533-0.01341-0.10344-0.0076-0.1568 0.0054-0.0482-0.01351-0.0932-0.0076-0.14137 0.200947-1.65813 0.625318-3.57988 0.616893-5.39522-0.0065-1.49717-0.468373-3.06576-1.52423-4.2411-0.05853-0.0644-0.145065-0.0949-0.205624-0.15682-0.01286-0.0132-0.03074-0.0204-0.04371-0.0335-0.153021-0.15413-0.349162-0.25583-0.514076-0.39584 0.03324-0.21976-0.26421-1.32934-0.172216-2.78372 0.0044-0.0744 0.0087-0.14913 0.01548-0.22361 0.143005-1.66842 0.63793-3.19958 0.524354-3.23354-0.01689-5e-3 -0.806516 1.30249-0.974165 3.19497-0.0076 0.0792-0.01373 0.15956-0.01798 0.23906-0.06845 1.46453 0.316115 2.3382 0.498653 2.70916-1.17372-0.95699-2.54474-1.67598-4.02778-2.15139-2.47358-0.7992-5.01704-1.23718-7.66744-1.67589-1.96265-0.32563-3.20332-0.62266-5.24628-0.72741-2.07388-0.10594-4.9208-0.17349-7.0026-0.31356-1.67858-0.11265-3.39446-0.30972-5.13201-0.34446-1.61744-0.03-3.20863 0.2257-4.78604 0.29045-0.9907 0.0399-1.98779 0.0662-2.97393 0.0283-1.13552-0.0436-2.25567-0.1708-3.33892-0.46266-1.14426-0.31361-2.21215-1.09718-2.45214-2.20795-0.27025-1.15014 0.04341-2.44955 0.876499-3.25926 1.7776-1.78388 4.71636-1.87224 7.28959-2.2208 5.09335-0.65622 10.3493-0.9672 15.1318-1.26976 1.6601-0.0997 3.21007-0.44786 4.69094-0.072 1.50735 0.37448 2.96621 0.71276 4.44932 0.94848 3.68752 0.58529 7.18109 0.98097 10.4666 1.22863 1.74713 0.13187 3.61706 0.11134 5.20244 0.12858 1.0617 8e-3 2.12263 0.3511 3.0896 0.66573 2.61124 0.85376 4.29374 1.46263 6.49276 2.07429 2.14192 0.59891 3.86668 0.82243 5.48775 0.46266 1.36288-0.30587 2.04706-0.75378 2.84284-1.17208zm10.3792-17.0776c-0.0841-0.0517-0.44508 0.54669-1.12069 0.78654-0.14697 0.0576-0.29894 0.10703-0.45752 0.15164-0.94193 0.26489-1.90384 0.40671-1.88923 0.52436 7e-3 0.0562 0.90893 0.22234 2.01261-0.09 0.1738-0.0493 0.34187-0.10963 0.50379-0.1825 0.95437-0.45338 0.93578-1.1993 0.95104-1.19009zm-75.4688 15.0059c0.0072 0.0132-0.09542 0.0653-0.169645 0.10791 0.115521-0.0405 0.189313-0.0723 0.169645-0.10791zm-0.169645 0.10791c-0.464292 0.16303-1.87658 0.4874-3.26181 1.96377-0.451627 0.47358-0.790226 1.14473-0.807097 1.84553-0.0081 0.33516 0.05872 0.66798 0.215911 0.97931 0.575268 1.03532 1.69559 1.5573 2.44957 1.84296 1.22093 0.47309 1.96173 0.29032 1.9612 0.29559 0.0061-0.0632-0.757357-0.0995-1.82754-0.60662-0.705221-0.33945-1.74969-0.87028-2.18996-1.74271-0.130617-0.22954-0.181227-0.48733-0.169646-0.75569 0.02413-0.55896 0.318619-1.14035 0.686292-1.57049 1.21668-1.39353 2.55296-2.0277 2.94308-2.25165zm12.1913 2.27735c-0.09877 2e-5 -0.241726 0.80139-0.169646 1.87638 5e-3 0.0753 0.01118 0.15064 0.01798 0.22618 0.105194 1.1593 0.369202 2.06089 0.478091 2.04602 0.13878-0.019 0.07438-0.95358-0.02826-2.08715-0.114219-1.25774 0.09366 1.0367-0.02057-0.22105-0.09477-1.03606-0.14544-1.84039-0.277601-1.84038zm13.3847 0.21875c-0.06135-0.0109-0.518936 1.07283-0.508935 2.54468 3.8e-5 7e-3 -5.4e-5 0.0109 0 0.0154 0.01905 1.46702 0.503061 2.53082 0.562914 2.51897 0.11585-0.0227-0.09986-1.22928-0.110521-2.52153v-0.018c-0.01318-1.29848 0.173412-2.51965 0.05655-2.53952zm16.4779 10.1578c0.122982 0.11661 0.292113 0.18235 0.406114 0.30846 0.985675 1.07546 1.42158 2.55834 1.43684 3.97895 0.01842 1.75468-0.398037 3.66427-0.593753 5.34894-0.0109 0.0932 0.02387 0.17942 0.01548 0.27246-1.07648 0.31317-1.42874 0.48667-3.54454 0.86108-1.47549 0.26195-2.77454 0.36594-4.41591 0.57319-0.547464 0.0691-1.08975 0.14534-1.62962 0.23904-0.850854 0.13835-1.69689 0.42984-2.24394 1.10784-0.566066 0.73194-1.03388 1.4506-1.5268 2.03575-0.879192 1.04544-0.980054 1.1214-1.48311 1.65016-0.141848-0.0914-0.300506-0.21867-0.439535-0.30586-2.02188-1.26814-3.3532-1.89054-3.38005-1.84553-0.05576 0.0935 1.20229 0.84428 3.1667 2.17196 0.120904 0.0817 0.259941 0.19334 0.382987 0.2776 0.03637 0.0248 0.07654 0.0571 0.1131 0.0823 0.105902 0.0728 0.221725 0.16174 0.329008 0.23648 0.03648 0.0254 0.07389 0.0566 0.11052 0.0823 0.716969 0.50181 1.43099 0.98969 2.18482 1.58078 0.06091 0.0478 0.121878 0.0959 0.182497 0.14396 1.13806 0.91785 2.09257 1.66856 2.4727 2.77599 0.277313 0.7473 0.19748 1.34163 0.136229 1.90465-0.160097-0.45359-0.407379-0.88533-0.737698-1.20036-1.38836-1.35293-3.01236-2.02561-4.23855-2.32362-1.55708-0.39694-1.93218 0.25486-2.11285 0.52179 0.275084-0.18333 0.94556-0.56167 2.03831-0.24676 1.17278 0.35147 2.71291 1.04543 4.01236 2.34933 0.610308 0.62863 1.04987 1.64589 0.601468 2.39815-0.108551 0.20935-0.259051 0.39103-0.439534 0.54235-0.120668 0.10115-0.266234 0.15498-0.418972 0.19278-0.0031 6e-5 -2e-3 -2e-3 -0.0051-2e-3 -0.05637 4e-3 -0.180277 0.0297-0.305875 0.0617-0.140002 0.0189-0.280429 0.0344-0.418971 0.0617-0.08623 0.017-0.156804 0.0605-0.244186 0.0693-0.202623 0.0205-0.369904 0.17775-0.568054 0.1542-0.285991-0.0351-0.522756-0.17785-0.794245-0.25188-0.259847-0.0709-0.516436-0.13957-0.760832-0.23905-0.884882-0.36022-1.7003-0.81769-2.31848-1.34431-0.707593-0.60829-0.9984-1.35425-0.981885-1.98176 0.02533-1.1248 0.491313-1.64284 0.457527-1.67075 0.0166 0.0137-0.605255 0.36484-0.706853 1.6579-0.0517 0.70049 0.227817 1.5658 0.994736 2.26194 0.16338 0.14987 0.4044 0.27515 0.591186 0.42153-1.23646-0.47956-2.2485-0.92861-4.15373-1.81726-1.16124-0.54624-2.75499-1.0643-3.75018-2.03316-0.723171-0.68393-1.07185-1.71739-1.21579-2.80685-0.13965-1.11302-0.02307-2.29276 0.442103-3.35177 0.66799-1.53681 1.75306-2.83913 2.7503-4.29766 0.03833-0.0559 0.07492-0.11358 0.1131-0.16966 1.16942-1.71672 2.26632-3.47429 3.42631-5.1099 0.707214-0.98389 1.47578-1.88459 2.51897-2.21824 1.68542-0.5643 3.94076-0.75287 5.49546-1.04871 5.72726-1.08734 8.01323-1.78112 9.0503-2.05888zm-15.5559 20.5707c0.05057 0.0419 0.08853-7e-3 0.146512-0.0925-0.08428 0.0562-0.137259 0.10017-0.146512 0.0925zm28.8525-17.1418c-0.0344-8e-3 -0.27993 0.76878-0.65287 2.26193-0.33718 1.35-0.90815 3.78192-0.96132 6.24088-0.04 2.00439 0.27332 3.91012 0.59376 6.05324 0.11765 0.78726 0.22804 1.56127 0.30845 2.33647 0.70056 6.75247 0.60564 12.298 0.71198 12.2967-0.0957 1e-3 0.43235-5.22866-0.26731-12.3404-0.0774-0.78698-0.18797-1.57014-0.30589-2.3596-0.32215-2.15659-0.64513-4.01633-0.62973-5.9787 0.0146-2.37641 0.52479-4.85793 0.79167-6.19461 0.3009-1.50665 0.46127-2.30406 0.41126-2.31591zm-24.8504 3.34148c-0.109586 0.0451 0.34766 1.21481 0.652877 2.50098 0.01172 0.0495 0.02506 0.0995 0.03598 0.1491 0.27605 1.2287 0.28701 2.38528 0.400978 2.3853 0.05152 2e-5 0.333079-1.07004 0.03856-2.48041-0.01118-0.0529-0.02078-0.10682-0.03342-0.15937-0.347001-1.44812-1.03694-2.41954-1.09498-2.3956zm12.8262 3.31579c-0.06627 0.89676 0.0098 1.77098 0.14138 2.6295-1.14907 0.15483-3.60668 0.45628-7.9142 1.71187-1.3e-5 0-0.04883 0.0132-0.04884 0.0132-3.63661 1.06409-4.92411 1.73449-6.39767 2.38017-0.162544-0.10924-0.331167-0.24048-0.490941-0.34443 0.551807-0.47025 0.677245-0.47109 1.6142-1.51396 0.530064-0.59134 1.02067-1.30997 1.58335-2.01259 0.426956-0.55992 1.18064-0.78091 1.98947-0.92535 0.531744-0.0888 1.06782-0.16276 1.61163-0.23133 1.60088-0.20185 2.97016-0.32859 4.43647-0.61688 2.19442-0.43276 2.44622-0.6849 3.47515-1.08985zm0.143942 2.70919c0.03641 0.22781-0.0098 0.47594 0.03858 0.69914 0.54538 2.50795 1.13623 4.86002 1.56793 7.08139 0.0054 0.0293 0.0076 0.0426 0.01286 0.072-0.444209 0.20939-1.51623 0.92157-3.21554 1.76328-0.104855 0.052-0.210681 0.10213-0.316158 0.15163-1.04505 0.49301-1.33298 0.54537-2.03317 0.76856-0.488921-0.64577-0.456646-0.73298-1.15152-1.53709-0.366389-0.42399-0.733601-0.82916-1.10012-1.21323-1.42251-1.48987-2.62977-2.15283-2.67062-2.09742-0.05542 0.0753 1.0691 0.95061 2.35704 2.38789 0.35459 0.39534 0.704591 0.79332 1.07185 1.21835 0.652359 0.75501 0.703755 0.75403 1.21322 1.34689 0.05219 0.0607 0.07319 0.0805 0.123378 0.13878 0.603995 0.70064 1.27112 1.46855 1.49595 1.66047-0.714685-0.10507-1.54496-0.30108-2.08971-0.29816-1.00924 7e-3 -1.54738 0.0634-1.54737 0.1054 3.2e-5 0.0508 0.5388 0.0843 1.53966 0.15423 0.655047 0.0458 1.58922 0.26771 2.47527 0.4601 0.0098 1e-3 0.133664 0.15581 0.138797 0.15165 0.0022-2e-3 -0.109531-0.13971-0.110512-0.14652 0.410583 0.0899 0.681202 0.0735 1.14381 0.21077 0.990307 0.29418 2.00779 0.6334 3.05104 1.02815 0.292647 0.11068 0.54417 0.23533 0.827662 0.34957 0.09264 0.0374 0.178201 0.078 0.269881 0.11568 0.6888 0.28312 1.39296 0.56121 2.0306 0.86108 0.54204 0.25946 0.71014 0.52103 1.09756 0.74798-0.40207-0.13213-0.81142-0.27778-1.18495-0.32644-0.67628-0.10431-1.13023 0.13757-1.6836 0.22105-0.076 0.0119-0.15786 0.0132-0.23132 0.0283-0.378415 0.0796-0.880643-0.0378-1.19009 0.1568-0.587933 0.38903-0.748987 1.05633-0.783965 1.42654-0.0109 0.10963-0.01831 0.20933-0.02572 0.29817v0.0132c-0.0011 0.0164-0.0011 0.0154 0 0.0154 1e-3 0 0.0011-5.7e-4 0.0022 0.0132 0.0033 0.0398 0.0087 0.0817 0.01286 0.11568 0.0242 0.21668 0.04763 0.32435 0.06682 0.32387 0.01918-4.8e-4 0.03324-0.10867 0.04632-0.32644 0.0022-0.0341 0.0054-0.0758 0.0076-0.11568 6.65e-4 -0.0134 0.0011-0.0132 0.0022-0.0132s0.0022-1e-3 0.0054-5e-3c0.01897-0.087 0.03978-0.18524 0.06169-0.29303 0.07096-0.33728 0.264319-0.93527 0.755691-1.20035 0.281192-0.16327 0.753412-0.0419 1.09497-0.0977 0.0722-0.0119 0.15626-0.0132 0.23134-0.0205 0.50807-0.0514 0.91018-0.24373 1.56536-0.14137 1.02893 0.1869 2.29802 0.56517 2.80942 1.52938 0.17095 0.30172 0.25328 0.6566 0.24932 1.01529-7e-3 0.62149-0.26306 1.23977-0.7197 1.6142-8e-3 7e-3 -0.0205 4e-3 -0.0283 0.0109-0.0317 0.0268-0.0824 0.0216-0.11568 0.0463-0.80834 0.59946-1.9989 0.59923-2.9585 0.55778-0.036-1e-3 -0.0804 4e-3 -0.11566 2e-3 -0.0391-2e-3 -0.044-0.0227-0.0823-0.0256-1.03909-0.082-1.79433-0.14691-2.23365-0.69914-0.574297-0.66331-0.58063-1.22143-0.568052-1.53451-0.09385 0.32422-0.224578 0.89412 0.354711 1.70159 0.520594 0.67417 1.39621 0.86533 2.50097 0.93561 9e-3 8.2e-4 0.0199-8e-4 0.0282 0 0.0561 5e-3 0.13175-2e-3 0.19021 2e-3 0.35782 0.0312 0.75566 0.0337 1.16438 0.0154-0.25928 0.0694-0.57077 0.0706-0.79682 0.1645-0.0689-5e-3 -0.24681-0.0109-0.33415-0.0154-0.0484-2e-3 -0.13113-5e-3 -0.18507-8e-3 -0.67509-0.0319-0.83751-0.0607-2.3159-0.1079-1.35457-0.0435-3.34931-0.0937-5.16133-0.25448-1.22141-0.10889-2.46678-0.42238-3.56768-1.04615-0.111547-0.0632-0.220936-0.12845-0.329009-0.19792-1.76846-1.12826-3.4672-2.66673-4.86315-3.86327-0.01975-0.017-0.04977-0.0373-0.0694-0.0539-0.04569-0.0391-0.114416-0.0903-0.159363-0.12845-2.65519-2.26229-4.20532-3.53923-4.51615-3.71677 0.554008 0.2219 1.10376 0.42424 1.71958 0.60147 0.740312 0.42617 1.56108 0.77848 2.49841 0.90477 0.800932 0.11028 1.67304-0.10388 2.30306-0.63745 0.218699-0.18524 0.405635-0.40761 0.550059-0.66574 0.146485-0.29232 0.06592-0.59298 0.0694-0.89447 0.315069-0.55336 0.638976-1.38064 0.197919-2.84542-0.404151-1.24463-1.40515-2.11292-2.55238-3.00991-0.06129-0.0487-0.123417-0.0957-0.185067-0.14394-0.673386-0.52795-1.32009-0.93761-1.97662-1.38286 1.60752-0.54096 3.01647-1.05929 6.38482-2.04344-2.6e-5 0 0.05142-0.0132 0.0514-0.0132 4.0414-1.17864 6.60442-1.73931 7.78825-2.06658zm1.21065 18.7689c0.05232-0.18073 0.09559-0.30605-0.0076-0.30331 0.01264-3.2e-4 0.0121 0.1927 0.0076 0.30331zm23.7966-16.8256c-0.0524 0.0173 0.0812 0.63891 0.3907 1.72987 0.30008 1.0578 0.77914 2.60358 1.49081 4.01236 0.21565 0.42687 0.45076 0.83605 0.70686 1.22864 1.37236 2.07759 3.08573 2.52021 3.54712 2.70404-0.32082-0.2215-1.99268-1.03741-3.17698-2.94051-0.24151-0.38252-0.46393-0.78028-0.67344-1.19522-0.6781-1.34297-1.21866-2.90233-1.58849-3.90955-0.39068-1.06399-0.63539-1.64989-0.69658-1.62963zm6.13549 9.67491c0.0375 0.0259 0.136 0.078 0.13108 0.0874 0.0132-0.0252-0.0448-0.0531-0.13108-0.0874zm-29.5106-3.69364c0.473005 2.44099 0.731558 3.95643 1.09498 6.00955-0.198812-0.0795-0.37009-0.17248-0.573196-0.24932-1.05343-0.39862-2.08964-0.73275-3.09473-1.0076-0.631008-0.17274-1.02598-0.14001-1.56793-0.22362-0.124747-0.22984-0.78537-1.04439-1.30832-1.74529 0.714108-0.11607 0.957761-0.0109 2.09486-0.53207 0.10939-0.0503 0.218431-0.10322 0.326437-0.15679 1.84714-0.91693 2.68884-1.75867 3.02791-2.09486zm29.4874 7.02742c-0.0668-0.0888-1.84744 1.41177-4.28739 2.34675-0.16282 0.063-0.3253 0.12239-0.49094 0.17993-2.65966 0.92374-5.28387 1.27371-5.26413 1.39057-4e-3 -0.0234 2.49259 0.0464 5.41064-0.96388 0.17082-0.0591 0.34096-0.12161 0.50894-0.18764 2.70633-1.07312 4.08919-2.81047 4.12288-2.76573zm-36.7075 0.90477c-0.03552-0.0109-0.590645 0.69037-0.573195 1.82239 1.3e-4 8e-3 -2.04e-4 0.0178 0 0.0256 0.04452 1.12859 0.649934 1.77256 0.681151 1.76071 0.110099-0.0413-0.211563-0.89129-0.228764-1.77614-2.67e-4 -7e-3 2.14e-4 -0.014 0-0.0205-0.02684-0.89511 0.234526-1.77868 0.120811-1.81211zm-6.55703 0.70171c1.34142 1.20217 2.91646 2.66301 4.66009 3.78103 0.115456 0.0736 0.233317 0.14391 0.352142 0.21077 1.17343 0.66038 2.48079 0.98612 3.75275 1.0847 1.86674 0.14507 3.80469 0.15039 5.19216 0.14907 1.45835-1e-3 1.60417-0.0468 2.28249-0.0796-0.0143 8e-3 -0.0424 5e-3 -0.0566 0.0132-0.64437 0.34469-0.91037 0.86426-0.9896 1.20552-0.0717 0.3231 3e-3 0.47932 0.018 0.47808 0.0258-2e-3 0.0181-0.16352 0.12852-0.4344 0.1184-0.29965 0.39216-0.71247 0.97674-0.98187 0.0145-7e-3 0.0419-4e-3 0.0566-0.0109 0.0433-0.0194 0.12226-9e-3 0.16707-0.0283 0.24343-0.10158 0.50409-0.196 0.78397-0.27502 0.60957-0.17212 1.30783-0.27074 2.10001-0.20822 0.17941 0.0217 0.35989 0.099 0.54747 0.14909 0.0634 0.017 0.12332 0.0308 0.18508 0.0514 0.4637 0.15516 0.8734 0.38036 0.91762 0.79681 0.0214 0.0938 0.0297 0.18786 0.0257 0.28275-0.0265 0.55625-0.50356 1.08006-1.00502 1.41112-0.0273 0.018-0.0265 0.0604-0.054 0.0771-0.0895 0.0526-0.19627 9e-3 -0.29047 0.0514-0.82485 0.37475-1.7915 0.48187-2.5421 0.45754-0.047-2e-3 -0.0502-0.0227-0.0952-0.0257-0.0488-4e-3 -0.0566-0.0274-0.10279-0.0308-0.6216-0.0474-1.10104-0.085-1.388-0.3907-0.38073-0.36989-0.37698-0.73574-0.39841-0.82509-0.0341 0.13921-0.14681 0.48662 0.23134 0.9716 0.34066 0.40626 0.91067 0.55298 1.6399 0.61176 0.0409 2e-3 0.0502 0.0308 0.0925 0.0335h2e-3c0.38333 0.0351 0.83403 0.0474 1.30318 0.0109-0.39494 0.0921-0.82918 0.19609-1.23892 0.29301-0.0339 8e-3 -0.0421 9e-3 -0.0772 0.018-0.49634 0.11752-0.39497 0.0772-1.09755 0.24161-0.94893 0.22213-2.21708 0.51861-3.47516 0.74542-0.80111 0.14081-1.69821 0.32856-2.51382 0.18249-0.80378-0.12318-1.45942-0.7425-2.2388-1.28262-0.232804-0.16471-0.465344-0.3292-0.699143-0.49352-1.36526-0.95946-2.73111-1.89915-4.01236-2.77343-1.10802-0.76088-1.97253-1.20819-2.6809-2.03574-0.465776-0.52796-0.594617-1.25807-0.596327-1.83525-8.6e-5 -1.01514 0.06436-1.11524 0.136229-1.5962zm19.4423 4.30796c0.0341 0.0786 0.0132 0.0983 0.0591 0.18506-0.0159-6.7e-4 -0.0331-0.0119-0.0488-0.0132-0.41042-0.0254-0.64119 0.16728-1.01017 0.21077 0.34754-0.0801 0.68621-0.19023 0.99989-0.38298zm-1.98434 0.74798c0.0119 4.1e-4 0.019-4.2e-4 0.0309 0l-0.0515 5e-3c8e-3 -1e-3 0.0136-2e-3 0.0205-5e-3zm-7.73169 1.34944c-0.07913-0.017-0.432698 0.58516-0.444677 1.47283-1.75e-4 0.0132 1.1e-5 0.0254 0 0.0386 0.0065 0.87997 0.369643 1.45665 0.444677 1.4394 0.113782-0.0262 0.0011-0.72234 0.0076-1.4394 0-0.0109-6.6e-5 -0.0229 0-0.0335 0.0054-0.77838 0.155964-1.44296-0.0076-1.47797zm39.5761 3.82473c-0.0318-0.0396-0.10279 8e-3 -0.22362 0.11567 0.0388-0.0194 0.22003-0.12015 0.22362-0.11567z"/>
 <path d="m52.892 101.778a72.3147 28.233 3.71122 0 1 -29.5093 -21.6385" fill="none" marker="none" marker-start="url(#Arrow2Mstart)" stroke="#00f" stroke-linejoin="round" stroke-width="1.5"/>
 <g stroke-width="1.33333">
  <g fill="#f00">
   <path d="m45.8335 10.229c0.11472-0.4782 0.306048-1.24332 0.306048-1.41548 0-0.61212-0.497328-0.84165-0.899024-0.84165-0.36344 0-0.746 0.19128-0.975536 0.47821-0.286928-0.30605-0.91816-0.8034-2.0276-0.8034-3.32832 0-5.39418 3.02228-5.39418 5.64285 0 2.35277 1.75981 3.15616 3.34746 3.15616 1.3581 0 2.35277-0.746 2.65883-1.03293 0.726864 1.03293 1.98933 1.03293 2.19974 1.03293 0.707744 0 1.26246-0.40169 1.66416-1.0903 0.478208-0.76514 0.72688-1.79807 0.72688-1.8937 0-0.26781-0.286928-0.26781-0.459088-0.26781-0.210416 0-0.286928 0-0.38256 0.0957-0.03824 0.0382-0.03824 0.0765-0.15296 0.55472-0.382576 1.53026-0.822528 1.91282-1.30072 1.91282-0.210416 0-0.439952-0.0765-0.439952-0.70774 0-0.32517 0.07648-0.63124 0.267792-1.39636 0.13392-0.5356 0.325184-1.30072 0.420816-1.72155zm-3.1753 4.28474c-0.55472 0.65035-1.45374 1.24333-2.3719 1.24333-1.18595 0-1.28158-1.03291-1.28158-1.45375 0-0.99467 0.650352-3.34744 0.9564-4.09344 0.592992-1.39636 1.53027-1.87457 2.31453-1.87457 1.12858 0 1.58765 0.89902 1.58765 1.10944l-0.03824 0.26779z"/>
   <path d="m59.7801 10.975-3.82565-3.80652c-0.229552-0.22954-0.267808-0.2678-0.420832-0.2678-0.19128 0-0.38256 0.17216-0.38256 0.38258 0 0.13392 0.03824 0.17214 0.248672 0.38256l3.82565 3.84478-3.82565 3.84479c-0.210416 0.2104-0.248672 0.24865-0.248672 0.38256 0 0.21041 0.19128 0.38256 0.38256 0.38256 0.15296 0 0.19128-0.0382 0.420832-0.26779l3.80653-3.80653 3.95955 3.95955c0.03824 0.0192 0.172144 0.11472 0.286912 0.11472 0.229536 0 0.382576-0.17214 0.382576-0.38256 0-0.0382 0-0.11472-0.05744-0.21042-0.0192-0.0382-3.06053-3.04139-4.01693-4.01692l3.50046-3.50048c0.09568-0.11472 0.38256-0.36344 0.478208-0.47821 0.0192-0.0382 0.09568-0.11472 0.09568-0.24866 0-0.21041-0.15312-0.38257-0.382576-0.38257-0.15296 0-0.229536 0.0765-0.439952 0.28692z"/>
   <path d="m76.7862 3.688c0.07648-0.26779 0.07648-0.30605 0.07648-0.32517 0-0.24867-0.2104-0.34432-0.420816-0.34432-0.07648 0-0.09568 0-0.13392 0.0192l-2.46754 0.11472c-0.267809 0.0192-0.612113 0.0382-0.612113 0.57384 0 0.34432 0.36344 0.34432 0.497345 0.34432 0.2104 0 0.55472 0 0.803376 0.0382-0.15296 0.65036-0.344304 1.47288-0.535584 2.19975l-1.31986 5.27941c-0.267808 1.07118-0.267808 1.30072-0.267808 1.74067 0 2.44841 1.8172 3.1179 3.25182 3.1179 3.46221 0 5.43243-3.1179 5.43243-5.64283 0-2.35278-1.75981-3.15618-3.34746-3.15618-0.91816 0-1.68328 0.36344-2.08498 0.61212zm-1.0903 12.0699c-0.746 0-1.37723-0.40168-1.37723-1.58763 0-0.61212 0.19128-1.31986 0.325168-1.91284 0.191296-0.72688 0.516464-2.04672 0.650368-2.62057 0.09568-0.32519 1.18595-1.30072 2.35277-1.30072 1.18597 0 1.2816 1.03293 1.2816 1.45374 0 0.99467-0.650352 3.34746-0.956416 4.09346-0.650352 1.54939-1.72154 1.87456-2.27626 1.87456z"/>
  </g>
  <path d="m9.4903 68.144c0.114768-0.47821 0.306048-1.24333 0.306048-1.41549 0-0.61211-0.497328-0.84165-0.899024-0.84165-0.36344 0-0.746 0.19128-0.975536 0.47821-0.286928-0.30605-0.91816-0.80339-2.0276-0.80339-3.32832 0-5.39417 3.02227-5.39417 5.64285 0 2.35276 1.7598 3.15616 3.34745 3.15616 1.3581 0 2.35277-0.746 2.65883-1.03293 0.726864 1.03293 1.98933 1.03293 2.19974 1.03293 0.707744 0 1.26246-0.4017 1.66416-1.09031 0.478208-0.76513 0.72688-1.79806 0.72688-1.89369 0-0.26781-0.286928-0.26781-0.459088-0.26781-0.210416 0-0.286928 0-0.38256 0.0957-0.03826 0.0382-0.03826 0.0765-0.153024 0.55472-0.382576 1.53025-0.822528 1.91281-1.30072 1.91281-0.210416 0-0.439952-0.0765-0.439952-0.70774 0-0.32517 0.07651-0.63123 0.267792-1.39635 0.133904-0.5356 0.325184-1.30072 0.420816-1.72155zm-3.1753 4.28473c-0.55472 0.65036-1.45374 1.24333-2.3719 1.24333-1.18595 0-1.28158-1.03291-1.28158-1.45374 0-0.99467 0.650352-3.34744 0.9564-4.09344 0.592992-1.39637 1.53027-1.87458 2.31453-1.87458 1.12858 0 1.58765 0.89903 1.58765 1.10944l-0.03826 0.26779z"/>
  <path d="m42.0644 114.282c0.07651-0.2678 0.07651-0.30605 0.07651-0.32517 0-0.24867-0.2104-0.34432-0.420816-0.34432-0.07651 0-0.09565 0-0.133904 0.0192l-2.46754 0.11472c-0.267808 0.0192-0.612112 0.0382-0.612112 0.57384 0 0.34432 0.36344 0.34432 0.497344 0.34432 0.2104 0 0.55472 0 0.803376 0.0382-0.153024 0.65035-0.344304 1.47288-0.535584 2.19974l-1.31986 5.27941c-0.267795 1.07118-0.267795 1.30072-0.267795 1.74067 0 2.44842 1.81719 3.11791 3.25181 3.11791 3.46221 0 5.43243-3.11791 5.43243-5.64284 0-2.35278-1.75981-3.15617-3.34746-3.15617-0.91816 0-1.68328 0.36344-2.08498 0.61211zm-1.0903 12.0699c-0.746 0-1.37723-0.40168-1.37723-1.58763 0-0.61211 0.19128-1.31986 0.325168-1.91283 0.191296-0.72688 0.516464-2.04672 0.650368-2.62058 0.09563-0.32518 1.18595-1.30072 2.35277-1.30072 1.18597 0 1.2816 1.03293 1.2816 1.45375 0 0.99467-0.650352 3.34745-0.956416 4.09345-0.650352 1.54939-1.72154 1.87456-2.27626 1.87456z"/>
 </g>
 <path d="m94.0625 79.839 0.1585-76.9739" color="#000000" color-rendering="auto" fill="none" image-rendering="auto" marker-end="url(#marker11509-30)" shape-rendering="auto" solid-color="#000000" stroke="#f00" stroke-linecap="round" stroke-linejoin="round" stroke-width="1.2" style="isolation:auto;mix-blend-mode:normal"/>
</svg>
