<?xml version="1.0" encoding="UTF-8"?>
<svg width="240.647" height="134.216" version="1.1" viewBox="0 0 240.64732 134.21567" xmlns="http://www.w3.org/2000/svg">
 <defs>
  <marker id="Arrow1Lend-171-3" overflow="visible" orient="auto">
   <path transform="matrix(-.8 0 0 -.8 -10 0)" d="m0 0 5-5-17.5 5 17.5 5z" fill-rule="evenodd" stroke="#000" stroke-width="1pt"/>
  </marker>
 </defs>
 <g fill="none">
  <g stroke="#000">
   <path d="m61.5753 96.566c0.39388-7e-3 0.78778-0.0143 1.18167-0.0214 0.0587 1.22095 0.11741 2.44189 0.17606 3.66284m-1.69876-7.85596c0.43576-8e-3 0.87153-0.0156 1.30729-0.0233 0.0718 1.40562 0.14358 2.81123 0.21539 4.21685m-0.67751-8.21416c0.0815-2e-3 0.16309-3e-3 0.24463-5e-3 0.0725 1.33381 0.14494 2.66763 0.21749 4.00144m-0.25086-4.57701 0.0333 0.57513m0.21753 4.00178c0.95105-0.0586 1.90209-0.11728 2.85314-0.176 0.18432 1.39775 0.36856 2.79551 0.55297 4.19325-1.12793 0.0707-2.20855 0.1382-3.19071 0.1993m-0.43289-8.21799c0.81951-0.0499 1.63903-0.0997 2.45855-0.1496l0.0299-2e-3c0.19414 1.3256 0.38811 2.65122 0.58219 3.97683m-0.5822-3.97665c0.81643-0.0854 1.63287-0.17056 2.44931-0.2558 0.31344 1.31163 0.62681 2.62328 0.94023 3.93492-0.93577 0.0992-1.87154 0.19849-2.80732 0.2977m-1.20805-7.68988 0.0216-1e-3c0.19743 1.21364 0.39485 2.42729 0.59226 3.64093l0.0119 0.0735m-0.60778-3.73428 4e-3 0.0197m0 6e-5c0.68961-0.071 1.37922-0.14208 2.06883-0.2131 0.34674 1.29282 0.68392 2.55012 0.98469 3.67161m-1.46383-5.25962c0.15968 0.52935 0.31941 1.05869 0.47914 1.58803m-2.94265 16.6576c1.04322-0.0662 2.08644-0.13239 3.12966-0.1986 0.14732 1.39199 0.29464 2.78397 0.4419 4.17596m-0.95835-8.53732c0.18097 1.52863 0.36018 3.04139 0.51643 4.36126m1.73793-8.85224c0.29471 1.38426 0.58936 2.76854 0.88413 4.15279-1.10235 0.11895-2.18453 0.23553-3.13849 0.338m3.13849-0.338c0.28633 1.51632 0.56888 3.01262 0.81633 4.32291-1.14613 0.12553-2.29226 0.25099-3.43837 0.3766m3.43837-0.3766c0.24613 1.48019 0.49231 2.96037 0.73844 4.44056-1.12882 0.12561-2.25764 0.25124-3.38647 0.3768m3.38647-0.37685c0.11166 0.77279 0.22329 1.54558 0.33491 2.31838m-0.33491-2.31838c1.22783-0.19646 2.5321-0.40506 3.59724-0.5754 0.25219 1.2941 0.5021 2.5759 0.71982 3.69297m-0.71982-3.69285c1.14995-0.24381 2.29989-0.48766 3.44983-0.73147 0.33953 1.38764 0.67904 2.77529 1.01858 4.16293m-8.80409-7.29672c1.11377-0.17516 2.22753-0.35041 3.34133-0.5254 0.3314 1.46354 0.66288 2.92706 0.99435 4.39059m-5.15201-8.1881c1.01709-0.15729 2.03419-0.31458 3.05129-0.4718 0.3885 1.4992 0.77022 2.97229 1.10636 4.26929m1e-5 9e-5c1.06871-0.22269 2.13743-0.44538 3.20616-0.66799 0.41271 1.44237 0.82534 2.88476 1.23802 4.32714m-5.55055-7.92844c0.97658-0.19996 1.95316-0.39992 2.92974-0.59984 0.4863 1.47721 0.96156 2.9214 1.38279 4.20112m-8.24796-7.28236c0.91024-0.13841 1.82048-0.27683 2.73073-0.4152 0.41363 1.40674 0.83918 2.85342 1.2047 4.09629m-4.87566-7.61601c0.79455-0.11898 1.58913-0.23782 2.38368-0.3568 0.42912 1.29214 0.85818 2.5843 1.28728 3.87645m0 5e-5c0.87456-0.17605 1.74913-0.35207 2.6237-0.52808 0.50144 1.33586 1.02878 2.74046 1.51074 4.02455m-5.42172-7.37292c0.764-0.15127 1.52802-0.30246 2.29204-0.45366 0.53962 1.26736 1.07928 2.53471 1.61894 3.80206m-7.27934-6.66326c0.73256-0.10803 1.3581-0.2002 2.01445-0.2969 0.4513 1.20393 0.90258 2.40787 1.35391 3.61179m-2.40311-6.0861c0.38763 0.91414 0.68657 1.61913 1.0492 2.47434m0-6e-5c0.69595-0.13565 1.32376-0.25794 1.93859-0.37771 0.5691 1.17861 1.13823 2.35721 1.70736 3.53581m-3.33783-6.50668c0.53038 0.9664 1.07867 1.9655 1.63047 2.97086m3.3263 7.33787c0.88198-0.22455 1.7194-0.43782 2.48903-0.63386 0.59611 1.30532 1.22705 2.68709 1.79862 3.93861-0.92564 0.23992-1.85127 0.47986-2.77691 0.71977m-3.12968-7.82658c0.72547-0.18159 1.45094-0.36321 2.1764-0.54484 0.64391 1.23766 1.28776 2.47534 1.93157 3.71305m-1.93157-3.71303c0.6792-0.20997 1.3584-0.41992 2.0376-0.62988 0.74052 1.20351 1.48102 2.40702 2.22148 3.61056-0.77584 0.24412-1.55168 0.48825-2.32751 0.73238m-5.81533-6.70405c0.61422-0.15126 1.22843-0.30254 1.84265-0.45382 0.68034 1.14829 1.36077 2.29653 2.04111 3.44482m-4.42206-6.52352 0.25584-0.062c0.7472 1.10433 1.47782 2.18404 2.12511 3.14069 0.57578-0.17495 1.15154-0.34995 1.72731-0.52495 0.80632 1.14543 1.66323 2.36237 2.3514 3.33988m-6.20382-5.95562c0.46673-0.13961 0.93347-0.27919 1.40021-0.41878 0.88722 1.09786 1.6889 2.08997 2.45221 3.03452m-3.88318-2.65523 0.0308 0.0395m1.28317-0.54384 0.11704 0.12506m6.3401 23.904c1.08826-0.29244 2.17653-0.58486 3.26479-0.8773 0.38241 1.30306 0.76479 2.60613 1.14719 3.90919m-1.14719-3.90917c1.07799-0.35853 2.10337-0.6996 3.04366-1.01233 0.34844 1.02197 0.69697 2.04392 1.0454 3.0659m-8.59187-5.50343c1.06407-0.28088 2.11785-0.5589 3.03645-0.80126 0.48878 1.41705 0.97758 2.8341 1.46635 4.25116m-3.10868-8.37079c0.57826 1.45047 1.14074 2.86143 1.64234 4.11959m-1.11345-8.79058c0.72312 1.34484 1.44096 2.6796 2.06482 3.83978-0.86455 0.27713-1.72914 0.55416-2.59371 0.83122m2.59371-0.83125c0.66325 1.41887 1.30605 2.79384 1.88194 4.02578-0.94446 0.30831-1.88888 0.6167-2.83332 0.92505m2.83332-0.92505c0.55883 1.38798 1.11784 2.77589 1.67669 4.16386 0.93066-0.3779 1.86129-0.75584 2.79194-1.13376 0.2192 0.56635 0.43828 1.13275 0.65741 1.69913m-0.65741-1.69913c0.84965-0.41998 1.6132-0.79752 2.36445-1.16892m-6.83308-1.86116c0.86725-0.34549 1.73451-0.69099 2.60178-1.03644 0.66043 1.43838 1.29153 2.81336 1.86685 4.06654m-6.35057-7.05588c0.79494-0.31062 1.58986-0.62127 2.38478-0.93193 0.69959 1.30712 1.39937 2.61414 2.09894 3.92127 0.78115-0.37861 1.56233-0.75717 2.34352-1.13569 0.69093 1.34503 1.38628 2.69848 1.97721 3.84871m-6.41967-6.63426c0.71708-0.34059 1.43416-0.68118 2.15121-1.02182 0.76373 1.26913 1.52744 2.53827 2.29125 3.80736m-8.89206-5.69336c0.71429-0.27384 1.42856-0.54776 2.14284-0.82164 0.75486 1.22057 1.50987 2.44104 2.26476 3.66159l0.042 0.0679m-6.67108-6.51841c0.62629-0.23561 1.25251-0.47139 1.87874-0.70716 0.82856 1.16531 1.657 2.33072 2.48558 3.49603m0 5e-5c0.64542-0.30045 1.29079-0.601 1.93618-0.90151 0.80085 1.14618 1.63157 2.3351 2.46613 3.52948l0.0557 0.0797m-6.94356-6.2037c0.55999-0.25569 1.11997-0.51142 1.67996-0.76712l0.0206-9e-3c0.90709 1.12367 1.81413 2.24738 2.72124 3.37104m-8.65191-5.22769c0.53173-0.1965 1.06341-0.39314 1.5951-0.58975 0.87832 1.0742 1.75666 2.14837 2.63504 3.22252m-6.68235-5.66729c0.43171-0.15699 0.86344-0.31391 1.29516-0.47085 1.01055 1.07055 1.86908 1.98014 2.75215 2.91563m0-1e-5c0.48217-0.21609 0.96435-0.43215 1.44652-0.64822 0.93873 1.00544 1.91066 2.04628 2.88904 3.09422m-7.08771-5.36163 0.20193-0.0889m1.22496-0.19862c0.89864 0.82835 1.83931 1.69543 2.77179 2.55494m-4.23722-2.30246 0.0385 0.035m4.19868 2.26743c0.42828-0.23306 0.85655-0.46615 1.28482-0.69924 1.04634 0.99436 2.0475 1.94564 3.11127 2.95669-0.50235 0.27893-1.00469 0.55786-1.50705 0.83677m-4.03486-5.76668c0.78969 0.6411 1.61082 1.30766 2.43064 1.97322m-0.40309-1.83522c0.5673 0.40946 0.96422 0.69583 1.51382 1.09241-0.3702 0.24766-0.74047 0.49522-1.11074 0.7428m9.1385 14.581c0.68813-0.4069 1.37627-0.8138 2.06439-1.22073 0.32908 0.58121 0.583067 1.02964 0.906197 1.6002m-5.26184-4.18683c0.63284-0.36635 1.26566-0.73275 1.8985-1.09909 0.86452 1.29674 1.70776 2.56168 2.45713 3.68569m1e-5 0c0.36836-0.26948 0.736747-0.53892 1.10513-0.80836m-3.56227-2.8773c0.50056-0.35808 1.0012-0.71603 1.50182-1.07401l0.12605-0.0902c0.60419 0.82826 1.20832 1.65657 1.81248 2.48485l0.0157 0.0215m-7.87633-3.85221c0.61368-0.34794 1.17082-0.66373 1.71217-0.97056 0.91865 1.18056 1.88558 2.42347 2.70813 3.48063m-5.63449-6.71788c1.02281 1.13148 2.04616 2.26341 2.92635 3.23723m-4.92688-6.93675c1.13313 0.96561 2.18923 1.86539 3.29958 2.81154-0.43303 0.29598-0.86603 0.59198-1.29905 0.88798m1.29905-0.88798c1.09448 1.09346 2.1753 2.17324 3.09914 3.09619-0.49059 0.34301-0.98122 0.68597-1.47183 1.02895m1.47183-1.0289c0.93355 1.09043 1.86715 2.18081 2.80067 3.27127l0.0635 0.0742m0-5e-5c0.34127-0.30834 0.68249-0.61672 1.02372-0.92509m-3.88788-2.42035c0.4068-0.35852 0.8136-0.71703 1.22041-1.07554 0.76695 0.82234 1.50564 1.61453 2.17251 2.32966m-6.49206-4.35035c0.36031-0.30977 0.72065-0.61949 1.08099-0.92923 1.1335 1.03251 2.26139 2.05984 3.23856 2.94994m0-1e-5c0.14462-0.16747 0.28917-0.33499 0.43376-0.50249m-3.67232-2.44749c0.16039-0.18052 0.32075-0.36107 0.48113-0.54161m-4.8617-1.34074c0.24684-0.20699 0.49362-0.41406 0.74043-0.6211m0.698 0.23645c1.02855 0.79257 2.05667 1.58473 2.94215 2.26699" color="#000000" stroke-width=".1"/>
   <path d="m120.66 44.559 4e-3 -7.5e-4 0.36686-0.0731c0.083 0.27823 0.16594 0.55646 0.24891 0.83469m-0.24891-0.8347c0.61124-0.12996 1.22248-0.25993 1.83372-0.3899 0.2727 0.86309 0.5454 1.72618 0.81812 2.58927l-0.52528 0.1122m0.52528-0.1122 0.13358 0.43724m5.34937-1.75731c-0.31415-0.8512-0.62836-1.70238-0.94251-2.55358 0.57815-0.15518 1.15633-0.3102 1.73452-0.46522 0.32761 0.84688 0.65512 1.6938 0.98273 2.54067-0.59156 0.15946-1.18315 0.31882-1.77474 0.4782m1.77474-0.4782c0.17714 0.47414 0.35428 0.94829 0.53141 1.42243l1e-3 4e-3m-1.64408 0.91226c-0.22113-0.6202-0.44237-1.24037-0.66359-1.86054m-6.30107-1.26919c0.60359-0.13641 1.20719-0.2728 1.8108-0.40913 0.28666 0.85935 0.5735 1.71864 0.86024 2.57796-0.61765 0.14014-1.23528 0.28036-1.85292 0.42057m4.54044-3.87366c-0.58708 0.14896-1.17416 0.29791-1.76125 0.44685-0.59549 0.14277-1.191 0.28549-1.78651 0.42822m4.49027 1.67845c-0.60066 0.15314-1.20133 0.30624-1.802 0.45934-0.3005-0.85538-0.60112-1.71071-0.90176-2.56604m-0.92627 3.0062c0.15535 0.48173 0.31079 0.96342 0.46622 1.44512l4e-3 0.0118m1.35802-1.89701c-0.60934 0.14672-1.21869 0.29343-1.82803 0.44017m2.46686 1.44052-3e-3 -0.01c-0.21188-0.62354-0.42363-1.24713-0.63545-1.87069m-7.89717-3.76048c0.25718-0.051 0.51431-0.10226 0.77147-0.1534 0.26451 0.85834 0.52892 1.71671 0.79331 2.57509m-0.79331-2.57519c0.5966-0.12625 1.19319-0.2526 1.78978-0.37892 0.27908 0.8547 0.55819 1.70938 0.83725 2.56409m-3.63605-4.69412 0.19834-0.0392c0.27022 0.84937 0.54045 1.69875 0.81068 2.54812m-0.95248-2.97983c0.0473 0.14387 0.0945 0.28777 0.1418 0.43165m2.60046 2.16906c0.58914-0.13261 1.1783-0.26515 1.76746-0.39772 0.29349 0.85085 0.58705 1.70168 0.88059 2.55251m-5.24851-4.32405c0.58153-0.12263 1.16307-0.24518 1.74462-0.36776 0.28533 0.84563 0.57062 1.69127 0.85584 2.53694m-1.98326-4.99178c0.0844-0.0187 0.16917-0.0357 0.25375-0.0536 0.29124 0.83601 0.58248 1.67201 0.87367 2.50804m-0.96492-2.76186 0.0913 0.25383m7.92569 6.32217c-0.32177-0.84263-0.64345-1.68529-0.96519-2.52792 0.56447-0.15071 1.12892-0.30148 1.69338-0.45224 0.33547 0.83828 0.67089 1.67657 1.00635 2.51485m-3.49577 0.9122c-0.30767-0.84686-0.61544-1.69369-0.92316-2.54053 0.57308-0.14474 1.14614-0.28954 1.7192-0.43435m-3.46314 0.85054c0.58131-0.13878 1.16262-0.27751 1.74394-0.41627m-4.36725-1.72302c0.57433-0.12872 1.14866-0.25739 1.723-0.38608 0.30018 0.84173 0.60019 1.68352 0.90031 2.52527m3.46314-0.85054c-0.32899-0.83345-0.65803-1.66687-0.98707-2.50029 0.55032-0.14647 1.10073-0.29264 1.65113-0.43883 0.34304 0.82903 0.68621 1.65801 1.02932 2.48701m-3.41258 0.88652c-0.31472-0.83767-0.62937-1.67536-0.94403-2.51305 0.55873-0.14049 1.11744-0.28106 1.67616-0.42162m-3.37638 0.82556c0.56674-0.13467 1.13348-0.26934 1.70022-0.40402m-4.29689-1.71801c0.55918-0.12475 1.11836-0.24953 1.67754-0.37431 0.33853 0.91967 0.60863 1.65305 0.91913 2.49625m3.37638-0.82556c-0.33602-0.82366-0.67206-1.64731-1.00807-2.47097 0.53592-0.14176 1.07181-0.28367 1.6077-0.42556 0.35048 0.81919 0.70097 1.63837 1.0515 2.45754m-3.32729 0.86048c-0.32137-0.82793-0.64269-1.65588-0.96407-2.4838 0.54405-0.13623 1.08811-0.27247 1.63216-0.40871m-3.28744 0.80028c0.55172-0.13063 1.1035-0.26102 1.65528-0.39143m-2.2169-1.08538c0.18713 0.49236 0.37438 0.98468 0.56162 1.477m4.89513-1.22581c-0.35767-0.8087-0.71527-1.61744-1.0728-2.4262l-0.0276-0.0603m-0.50748 2.91207c-0.34284-0.81325-0.68567-1.62651-1.02841-2.4398 0.52113-0.13732 1.04225-0.27465 1.56337-0.41197m-1.56348 0.4119-0.0273-0.0626m-0.57654 2.91111c-0.28925-0.72175-0.60619-1.51236-0.87594-2.18526m1.0548-0.55728c0.14165-0.0353 0.2833-0.0707 0.42494-0.106m3.68741 4.47207c0.54156-0.15209 1.08317-0.30397 1.62477-0.45586 0.35699 0.82442 0.71396 1.64884 1.07092 2.47327-0.55544 0.1566-1.1109 0.31312-1.66637 0.46964m-2.08081-4.94454c0.57132-0.15951 1.07467-0.30023 1.58228-0.44211 0.36469 0.81453 0.7294 1.62906 1.09398 2.44364m-3.74893-4.42785 0.40281-0.11202m1.27503-0.0155c0.34112 0.7368 0.68417 1.4786 0.97675 2.11157m-6e-5 6.4e-4c0.51836-0.15251 1.04915-0.30894 1.49348-0.43981l0.0624-0.0184c0.37863 0.8097 0.75718 1.61944 1.13573 2.42918-0.53249 0.15759-1.06501 0.31507-1.59754 0.47255m-0.15532-4.1786c0.20574 0.42556 0.41145 0.85113 0.61716 1.2767 0.40829-0.12665 0.81659-0.25326 1.22488-0.37989m0.5458 0.40323c0.31136 0.63897 0.62269 1.27796 0.93417 1.91688-0.56667 0.17653-1.06558 0.33206-1.56916 0.48903m2.21046-0.69985c-0.21371 0.0701-0.42746 0.14009-0.64119 0.21014m-2.09567 3.43442c0.35328 0.84419 0.73654 1.75995 1.04678 2.50127-0.56894 0.16109-1.13788 0.32219-1.7068 0.48331m1.18664-5.93047c0.3705 0.81969 0.74106 1.63936 1.11154 2.45906-0.54609 0.16218-1.09213 0.32455-1.63816 0.4869m2.09577-3.43487c0.42482 0.90189 0.75971 1.6128 1.15145 2.44432-0.53638 0.16785-1.07272 0.3358-1.60906 0.50374m2.19756-0.69756c-0.19619 0.0645-0.39234 0.12925-0.5885 0.19388m-2.20053 3.49186c0.34067 0.84244 0.68134 1.68488 1.02206 2.52731-0.58203 0.1656-1.16409 0.33111-1.74613 0.49665m1.31544-6.01209c0.36218 0.82904 0.72431 1.6581 1.08647 2.48715-0.55929 0.16699-1.11857 0.33399-1.67784 0.50103m2.20044-3.49183c0.27328 0.60065 0.54666 1.20127 0.82001 1.80189m-0.052 0.78313c-0.4302 0.13528-0.86039 0.27058-1.29058 0.40587m-0.65578 3.02822 0.22891 0.58618m0.42687-3.61445c0.24203 0.57367 0.48415 1.1473 0.72623 1.72095m-0.5607 1.06097c-0.27379 0.0821-0.54754 0.16428-0.82131 0.24642" color="#000000" stroke-width=".1"/>
   <g stroke-linejoin="round">
    <path d="m90.3094 45.279c0.9788-0.018 1.9576-0.0361 2.9364-0.0543 0.145 3.02858 0.2905 6.05713 0.435 9.08573m-4.2134-19.4898c1.0811-0.02 2.1622-0.0398 3.2433-0.0595 0.1788 3.48785 0.3567 6.97575 0.536 10.4636m-1.6851-20.3813 0.5161-9e-3 0.093-2e-3c0.1802 3.30967 0.361 6.6193 0.54 9.92904m-0.6248-11.3554c0.026 0.47559 0.055 0.951 0.084 1.42642m0.5406 9.9292c2.3615-0.14581 4.723-0.29092 7.0844-0.4369 0.4577 3.46833 0.9149 6.93671 1.373 10.405-2.6225 0.16408-5.4152 0.3385-7.9226 0.4954m-1.0749-20.3925c2.0349-0.1239 4.0697-0.24732 6.1046-0.3712l0.074-4e-3c0.4817 3.28932 0.9639 6.57859 1.446 9.86786m-1.4458-9.86838c2.0272-0.21181 4.0545-0.42325 6.0817-0.63491 0.7782 3.25467 1.5564 6.50933 2.3346 9.76399-2.3236 0.24607-4.647 0.49278-6.9706 0.73876m-2.9988-19.0816 0.053-3e-3c0.5258 3.23016 1.0463 6.42836 1.5005 9.21695m-1.5101-9.26974 0.01 0.0527m0 8e-5c1.7123-0.17613 3.4246-0.35254 5.1369-0.52854 0.861 3.20793 1.6982 6.32777 2.4448 9.11062m-3.6341-13.0498c0.3979 1.3183 0.8358 2.7685 1.1893 3.93915m-7.31 41.3335c2.5914-0.16425 5.1829-0.32913 7.7743-0.4934 0.3658 3.45445 0.7319 6.90887 1.0973 10.3634m-2.3796-21.1851c0.4256 3.58805 0.8695 7.34424 1.2826 10.8219m4.315-21.9657c0.7318 3.43486 1.4632 6.86981 2.1953 10.3046-2.5793 0.27772-5.3225 0.57305-7.7929 0.83912m7.7929-0.83912c0.7109 3.76255 1.4126 7.4754 2.0269 10.7267-2.8458 0.31139-5.6917 0.62293-8.5375 0.93436m8.5375-0.93436c0.612 3.67278 1.2212 7.34605 1.834 11.0187-2.803 0.31186-5.6061 0.62343-8.4091 0.93541m8.4087-0.93537c0.277 1.91684 0.5543 3.83364 0.8313 5.75049m-0.8313-5.75049c2.9773-0.47595 5.9547-0.95146 8.932-1.42755 0.6259 3.21048 1.2466 6.39118 1.7873 9.16222m-1.787-9.16222c2.8553-0.60503 5.7106-1.20999 8.5659-1.81501 0.843 3.4427 1.6858 6.88543 2.5288 10.3281m-21.8603-18.1043c2.7655-0.43453 5.5311-0.86908 8.2966-1.30352 0.8231 3.63154 1.6457 7.26318 2.469 10.8947m-12.7925-20.3178c2.5255-0.39026 5.0509-0.78035 7.5764-1.1705 0.915 3.53139 1.8323 7.06216 2.7467 10.5937m4e-4 0c2.6536-0.55246 5.3072-1.10529 7.9609-1.65758 1.0248 3.57905 2.0494 7.15814 3.074 10.7372m-13.782-19.6734c2.4248-0.49614 4.8496-0.99239 7.2745-1.48841 1.1442 3.4749 2.2896 6.94943 3.4333 10.4245m-20.4795-18.0702c2.2601-0.34335 4.5202-0.68703 6.7804-1.03031l0.066 0.22333c0.9752 3.3137 1.9505 6.62738 2.9257 9.94109m-12.1067-18.8981c1.9728-0.29522 3.9458-0.59001 5.9186-0.88523 1.0659 3.20617 2.1305 6.41274 3.1964 9.61891 2.1715-0.43693 4.3431-0.87356 6.5147-1.31039 1.2502 3.32885 2.5009 6.65752 3.7511 9.9864m-13.4622-18.2949c1.897-0.37541 3.7942-0.75041 5.6912-1.12581 1.34 3.14478 2.6798 6.2896 4.0199 9.43433m-18.0747-16.5339c1.6673-0.24565 3.3346-0.4913 5.0019-0.73676 1.1928 3.17997 2.3195 6.18379 3.3617 8.96219m-5.967-15.1022c0.8683 2.04669 1.737 4.09324 2.6053 6.13993 1.728-0.33659 3.2869-0.64003 4.8135-0.9373 1.5182 3.14242 2.9012 6.00394 4.2394 8.77364m-8.2877-16.1452c1.3926 2.53582 2.8481 5.18631 4.0483 7.37159m8.2593 18.208c2.0601-0.52421 4.1202-1.0484 6.1802-1.57279 1.4888 3.25764 2.9772 6.51547 4.466 9.77314-2.2984 0.59531-4.5967 1.19077-6.8951 1.78603m-7.771-19.4207c1.8013-0.45061 3.6027-0.90119 5.404-1.35188 1.5988 3.07107 3.1976 6.1422 4.7961 9.21344m-4.7961-9.21344c1.861-0.57506 3.3603-1.0378 5.0594-1.563 1.8387 2.98636 3.6775 5.97268 5.516 8.95914-1.9264 0.60574-3.8529 1.21151-5.7793 1.8173m-14.4395-16.6352c1.5251-0.37534 3.0502-0.75064 4.5753-1.12615 1.6797 2.83341 3.4618 5.838 5.0681 8.54787m-10.9718-16.1892 0.6271-0.15187c1.7292 2.55392 3.607 5.32707 5.1352 7.58453l0.1414 0.20868c1.4297-0.43414 2.8593-0.86838 4.289-1.3026 1.946 2.76262 3.8924 5.52492 5.8385 8.28747m-15.4041-14.7781c1.1589-0.34637 2.3178-0.69289 3.4767-1.03916 2.0704 2.56027 3.9854 4.92857 6.0889 7.52977m-9.6401-6.58612 0.074 0.0955m3.1877-1.34781 0.289 0.30865m15.7425 59.3146c2.7021-0.72572 5.4044-1.45114 8.1065-2.17686 0.9492 3.23207 1.8984 6.46416 2.8474 9.69627m-2.8474-9.69627c2.6767-0.88957 5.2227-1.73596 7.5575-2.51201 0.8652 2.53553 1.7302 5.07114 2.5954 7.60667m-21.3334-13.655c2.4637-0.64984 4.9274-1.29939 7.3911-1.94926l0.1485-0.0391c1.2136 3.51625 2.4273 7.03243 3.6409 10.5487m-7.7189-20.7709c1.3596 3.40731 2.7184 6.81494 4.078 10.2222m-2.7647-21.8127c1.7092 3.17585 3.4175 6.35218 5.1271 9.52784-2.3446 0.75109-4.3364 1.38883-6.4402 2.0626m6.44-2.0626c1.5578 3.32972 3.1151 6.65971 4.6729 9.98944-2.3924 0.78042-4.952 1.6157-7.0351 2.29539m7.0351-2.29539c1.3876 3.44409 2.7756 6.88804 4.1633 10.3321 2.3108-0.93768 4.6216-1.87562 6.9324-2.81328 0.5438 1.40414 1.0873 2.80837 1.6309 4.21258m-1.6309-4.21258c1.956-0.96637 3.9121-1.93265 5.868-2.89914m-16.9637-4.61965c2.1535-0.85722 4.3068-1.71473 6.4603-2.5718 1.545 3.36359 3.0905 6.72694 4.6354 10.0906m-15.7686-17.5082c1.9739-0.77076 3.9477-1.54162 5.9215-2.31248 1.737 3.2435 3.4747 6.4866 5.2117 9.73012 2.0774-1.00621 3.9934-1.93407 5.8189-2.81817 1.628 3.16724 3.2563 6.3343 4.8845 9.50144l0.023 0.0451m-15.9383-16.4585c1.7805-0.84518 3.561-1.69023 5.3415-2.5355 1.8966 3.14903 3.7922 6.2986 5.6891 9.44745m-22.079-14.1273c1.7736-0.67946 3.5471-1.35928 5.3207-2.03881 2.0056 3.24116 3.9973 6.4583 5.7277 9.25417m-16.5644-16.1745c1.6874-0.63442 3.1628-1.18953 4.6649-1.75461 2.0575 2.8915 4.1142 5.7835 6.1718 8.67494 1.6026-0.74544 3.205-1.49135 4.8075-2.23696 2.1967 3.14181 4.3631 6.2403 6.2617 8.95563m-17.241-15.3936c1.4-0.63875 2.9331-1.33846 4.1714-1.90349l0.051-0.0233c2.2522 2.78829 4.5045 5.57654 6.7568 8.36481m-21.4826-12.9709c1.3203-0.48763 2.6404-0.9755 3.9606-1.4634 2.181 2.66535 4.3617 5.33098 6.5428 7.99626m-16.5923-14.0626c1.072-0.38946 2.1439-0.779 3.2159-1.16836 2.3167 2.45257 4.4763 4.73914 6.8336 7.23473 1.1973-0.53617 2.3945-1.07237 3.5918-1.60846 2.391 2.55947 4.7825 5.11846 7.1735 7.67789m-17.5989-13.3042 0.4981-0.21916m3.0471-0.49225c2.3695 2.18268 4.5072 4.15195 6.8802 6.33769m-10.5193-5.71158 0.094 0.0853m10.4254 5.62627c1.0634-0.57835 2.1268-1.1567 3.1902-1.73508 2.6551 2.52162 5.073 4.81744 7.7253 7.33664-1.2474 0.69205-2.4946 1.38429-3.742 2.07633m-10.0196-14.3101c2.1193 1.71968 4.3015 3.48955 6.0363 4.89709m-1.0045-4.55642c1.3042 0.94049 2.6437 1.90646 3.7624 2.71316-0.9969 0.66645-1.8708 1.2504-2.7579 1.84324m22.6909 36.1809c1.7086-1.00974 3.4174-2.01929 5.1259-3.02915 0.7499 1.32338 1.4998 2.64674 2.2498 3.97009m-13.0648-10.3884c1.5713-0.90906 3.1426-1.81822 4.714-2.72725 2.0337 3.04848 4.0672 6.09712 6.101 9.14555 0.9147-0.66871 1.8295-1.33736 2.7443-2.00606m-8.8453-7.13949c1.3363-0.95533 2.8027-2.00302 4.042-2.8888 1.5841 2.1704 3.1786 4.35494 4.5394 6.21884m-19.5568-9.55843c1.5238-0.86336 2.9072-1.64701 4.2514-2.40842 2.2415 2.87891 4.483 5.75778 6.7243 8.6368m-13.9905-16.6695c2.4114 2.66585 4.7184 5.21579 7.1708 7.9273l0.095 0.10542m-12.2332-17.2126c2.9126 2.48017 5.2367 4.45908 8.1929 6.97648-1.0752 0.73442-2.1503 1.469-3.2255 2.2034m3.2255-2.2034c2.7034 2.69893 5.3886 5.37992 7.6952 7.68292-1.2181 0.85111-2.4363 1.70213-3.6545 2.5532m3.6545-2.5532c2.4366 2.84435 4.8914 5.70913 7.1118 8.3012 0.8462-0.76398 1.6922-1.52813 2.5383-2.29221m-9.6501-6.00899c1.0101-0.88961 2.0202-1.77921 3.0303-2.66883 1.7969 1.92536 3.5936 3.85098 5.3904 5.77648m-16.1159-10.7906c0.8947-0.76859 1.7894-1.53729 2.6842-2.30576 2.8144 2.56207 5.615 5.11121 8.0413 7.31985 0.359-0.41569 0.7182-0.8312 1.0773-1.24675m-9.1184-6.0731c0.3981-0.44792 0.7963-0.89579 1.1944-1.34367m-12.0715-3.32705c0.613-0.5138 1.226-1.02767 1.839-1.54157m1.7377 0.59107c2.3999 1.84794 4.7998 3.69587 7.1997 5.54387l0.1007 0.0773" color="#000000" stroke-width=".3"/>
    <path d="m169.314 115.772c0.6172-0.12308 1.2344-0.24611 1.8517-0.36907 0.4142 1.38914 0.8285 2.77829 1.2428 4.16743m-1.2428-4.16748c3.0636-0.65144 6.1271-1.30282 9.1907-1.95426 1.3669 4.32597 2.7335 8.652 4.1005 12.9779-0.8743 0.18675-1.7485 0.37348-2.6228 0.56019m2.6228-0.56019c0.2237 0.73228 0.4474 1.46455 0.6711 2.19681m26.8098-8.81326c-1.5745-4.26637-3.1495-8.5326-4.7239-12.799 2.8979-0.77714 5.7953-1.55569 8.6935-2.33178 1.6422 4.24463 3.2833 8.4897 4.9255 12.7343-2.9649 0.79934-5.9301 1.59778-8.8951 2.39683m8.8951-2.39683c0.8905 2.38373 1.7811 4.76744 2.6717 7.15113m-8.2404 4.57236c-1.1087-3.10888-2.2173-6.2178-3.3264-9.32656m-31.5814-6.36143c3.0254-0.68311 6.0503-1.36812 9.0759-2.05063 1.4366 4.30727 2.8745 8.6141 4.3115 12.9212-3.0957 0.70236-6.1913 1.40532-9.2869 2.10798m22.757-19.4155c-5.9122 1.52416-11.8391 2.98451-17.7816 4.38602m22.5055 8.41271c-3.0106 0.76741-6.0211 1.53508-9.0317 2.3023-1.5062-4.28728-3.0128-8.57446-4.5197-12.8615m-4.6426 15.0676c0.7862 2.43773 1.5727 4.87533 2.3593 7.31294m6.803-9.51895c-3.054 0.73574-6.1083 1.47032-9.1623 2.20621m12.3642 7.22085c-1.0672-3.1423-2.1346-6.28454-3.2019-9.42681m-39.5818-18.8481c1.2892-0.25606 2.5782-0.51224 3.8673-0.76884 1.3256 4.30221 2.651 8.60442 3.9761 12.9068m-3.9761-12.9073c2.9903-0.63254 5.9803-1.26638 8.9705-1.89922 1.3986 4.28397 2.7979 8.56768 4.1963 12.8517m-18.2282-23.527c0.3327-0.0658 0.6654-0.13159 0.9982-0.19738 1.3544 4.25721 2.7087 8.51446 4.0632 12.7717m-4.7708-14.926c0.2359 0.71809 0.4717 1.43618 0.7076 2.15427m13.0337 10.8717c2.9528-0.66481 5.9057-1.32878 8.8586-1.99344 1.471 4.26462 2.9424 8.52909 4.4136 12.7937m-26.3059-21.673c2.9146-0.61475 5.8295-1.22874 8.7441-1.84328 1.4299 4.23851 2.8604 8.47686 4.2896 12.7156m-9.9404-25.0196c0.424-0.0889 0.848-0.17776 1.2719-0.26659 1.4596 4.19029 2.9197 8.38039 4.3789 12.5708m-4.838-13.848c0.153 0.42574 0.3061 0.85149 0.4591 1.27724m39.7241 31.6879c-1.6128-4.22332-3.2247-8.44704-4.8376-12.6704 2.8292-0.75554 5.6583-1.51093 8.4874-2.26672 1.6815 4.20152 3.3623 8.40339 5.0439 12.6049m-17.5211 4.57212c-1.5419-4.24467-3.0847-8.48905-4.6269-12.7336 2.8722-0.72581 5.7446-1.45078 8.6167-2.17704m-17.3575 4.26306c2.9135-0.69589 5.8273-1.39053 8.7408-2.08642m-21.889-8.6361c2.8786-0.64527 5.7572-1.28994 8.6358-1.93511 1.5048 4.21881 3.0079 8.43822 4.5124 12.6571m17.3575-4.26307c-1.6489-4.17736-3.298-8.35467-4.9472-12.5319 2.7585-0.73319 5.5166-1.46798 8.2756-2.1995 1.7192 4.1553 3.4395 8.31016 5.159 12.4654m-17.1041 4.44341c-1.5774-4.19856-3.1545-8.39722-4.7315-12.5959 2.8003-0.70447 5.6008-1.40833 8.401-2.11324m-16.9227 4.13786c2.8406-0.67504 5.6811-1.34993 8.5217-2.02503m-21.5364-8.61099c2.8026-0.62567 5.6054-1.25019 8.408-1.87611 1.5351 4.17074 3.0711 8.34113 4.6067 12.5117m16.9227-4.13787c-1.6841-4.12839-3.3685-8.25658-5.0525-12.385 2.686-0.71078 5.3721-1.4215 8.0579-2.13299 1.7567 4.10589 3.5132 8.21188 5.2702 12.3177m-16.6766 4.31289c-1.611-4.14964-3.221-8.29968-4.832-12.4493 2.7268-0.68286 5.4536-1.36557 8.1805-2.04853m-16.4769 4.01116c2.7654-0.65389 5.5306-1.30939 8.2964-1.96192m-11.1132-5.44513c0.9388 2.4694 1.8774 4.93884 2.8168 7.408m24.5347-6.14399c-1.8263-4.16719-3.6718-8.32535-5.5375-12.4744m-2.5211 14.6073c-1.7183-4.07621-3.4367-8.15232-5.1544-12.2287 2.6118-0.68832 5.2238-1.3765 7.8357-2.06487m-7.8363 2.06452c-0.047-0.10746-0.094-0.21493-0.1403-0.32239m-2.886 14.5996c-1.4635-3.65202-2.9276-7.30383-4.3913-10.9558m5.2752-2.78725c0.7141-0.17808 1.4283-0.35618 2.1424-0.53432m18.4816 22.4149c2.7145-0.76145 5.4285-1.52466 8.1434-2.28486 1.7892 4.13215 3.5785 8.2643 5.3675 12.3965-2.784 0.78441-5.5677 1.57007-8.3519 2.35392m-10.4292-24.783c2.6435-0.73855 5.2872-1.47654 7.9305-2.21594 1.8275 4.08278 3.6563 8.16496 5.4831 12.248m-18.7899-22.1932c0.6686-0.18608 1.3372-0.37203 2.0059-0.55792m6.4021-0.0837c1.6325 3.52861 3.2676 7.056 4.897 10.586m-3e-4 3e-3c2.5996-0.76471 5.1987-1.53128 7.7982-2.29664 1.8977 4.05842 3.7951 8.11689 5.6923 12.1755-2.669 0.78922-5.3377 1.58-8.0069 2.36851m-0.781-20.9489c1.032 2.13467 2.0639 4.2693 3.0957 6.40404 2.0469-0.63502 4.0938-1.26959 6.1407-1.90458m2.72925 2.01133c1.56224 3.20604 3.1236 6.41251 4.68693 9.618-2.62141 0.81764-5.24353 1.63297-7.86478 2.45111m11.0837-3.50928c-1.07276 0.35169-2.14554 0.70333-3.21838 1.05476m-10.5036 17.214c1.7488 4.17896 3.4977 8.35788 5.24652 12.5368-2.85142 0.80766-5.70322 1.61453-8.55462 2.42244m5.9475-29.7246c1.8568 4.10854 3.71464 8.21663 5.57116 12.3253-2.73689 0.81333-5.47396 1.62621-8.21056 2.44044m10.5041-17.2162c1.92383 4.08373 3.84702 8.16776 5.77115 12.2514-2.68822 0.84175-5.3767 1.6825-8.06472 2.52484m11.0115-3.49541c-0.98228 0.32353-1.96455 0.64713-2.94676 0.97087m-11.0292 17.5019c1.70751 4.22247 3.41497 8.44494 5.12264 12.6674-2.91713 0.83022-5.83451 1.65934-8.75171 2.4893m6.59306-30.1337c1.81532 4.15525 3.63029 8.31071 5.44546 12.4661-2.803 0.83754-5.60655 1.67327-8.40945 2.51126m11.0288-17.5017c1.3687 3.00831 2.73785 6.01642 4.10687 9.02458m-0.26773 3.93523c-2.15282 0.67702-4.30576 1.35367-6.45845 2.0311m-3.28681 15.178c0.38161 0.97728 0.76323 1.95455 1.14486 2.93183m2.14195-18.1101c1.21365 2.87681 2.42789 5.75333 3.64176 8.63002m-2.8197 5.31575c-1.36967 0.41081-2.73931 0.82172-4.10887 1.23285" color="#000000" stroke-width=".3"/>
    <g stroke-width=".5">
     <path d="m92.312 125.144c4.19351 2.13213 8.86643 4.47843 13.06 6.61045" marker-end="url(#Arrow1Lend-171-3)"/>
     <path d="m28.6523 124.794c-4.82847 2.15089-10.133 4.43861-14.5755 6.41926" marker-end="url(#Arrow1Lend-171-3)"/>
     <path d="m61.1423 70.902c-0.225745-7.95233-0.486096-15.9037-0.729478-23.8555" marker-end="url(#Arrow1Lend-171-3)"/>
    </g>
   </g>
  </g>
  <g stroke="#009da3" stroke-linejoin="round" stroke-width=".8">
   <ellipse cx="125.678" cy="37.19" rx="36.314" ry="36.29" color="#000000"/>
   <ellipse cx="126.973" cy="40.043" rx="7.74735" ry="7.7419" color="#000000"/>
   <ellipse cx="200.917" cy="93.216" rx="38.8303" ry="38.8039" color="#000000"/>
   <path d="m211.352 55.821-82.885-23.4262" color="#000000"/>
   <path d="m169.916 116.61-49.4382-72.3734" color="#000000"/>
  </g>
 </g>
 <g stroke-linejoin="round">
  <g stroke-miterlimit="1e5">
   <path d="m8.5404 120.507c-0.576861 0.10816-0.793183 0.54081-0.793183 0.88332 0 0.43264 0.342511 0.57686 0.594887 0.57686 0.540807 0 0.919372-0.4687 0.919372-0.95543 0-0.75713-0.865291-1.09964-1.62242-1.09964-1.09964 0-1.71256 1.08162-1.8748 1.42413-0.414619-1.35202-1.53229-1.42413-1.85677-1.42413-1.83874 0-2.81219 2.36153-2.81219 2.75812 0 0.0721 0.0721 0.16224 0.19829 0.16224 0.14422 0 0.18027-0.10816 0.21633-0.18027 0.61291-2.00098 1.82071-2.37955 2.34349-2.37955 0.811211 0 0.973453 0.75713 0.973453 1.18978 0 0.39659-0.108161 0.81121-0.324484 1.6765l-0.612915 2.46968c-0.27041 1.08162-0.79319 2.0731-1.74861 2.0731-0.0901 0-0.54081 0-0.91937-0.23435 0.64896-0.12619 0.79318-0.667 0.79318-0.88332 0-0.36054-0.2704-0.57686-0.61292-0.57686-0.43264 0-0.90134 0.37856-0.90134 0.95542 0 0.75713 0.84726 1.09964 1.62242 1.09964 0.86529 0 1.47821-0.68502 1.85677-1.42412 0.28843 1.06359 1.18978 1.42412 1.85677 1.42412 1.83874 0 2.8122-2.36152 2.8122-2.75811 0-0.0901-0.07211-0.16224-0.180269-0.16224-0.162242 0-0.180269 0.0901-0.23435 0.23435-0.486726 1.58636-1.53229 2.32547-2.3435 2.32547-0.630941 0-0.973453-0.4687-0.973453-1.20781 0-0.39659 0.07211-0.68502 0.360538-1.87479l0.630942-2.45166c0.270403-1.08162 0.883318-1.8748 1.71256-1.8748 0.03605 0 0.540807 0 0.919372 0.23435z"/>
   <path d="m114.327 132.057c-0.48672 0.68502-1.18977 1.29794-2.07309 1.29794-0.21632 0-1.08161-0.0361-1.35202-0.86529 0.0541 0.018 0.14422 0.018 0.18027 0.018 0.54081 0 0.90135-0.4687 0.90135-0.88332 0-0.41461-0.34252-0.55883-0.61292-0.55883-0.28843 0-0.91937 0.21632-0.91937 1.09964 0 0.91937 0.77516 1.55032 1.80269 1.55032 1.80269 0 3.62341-1.65848 4.12816-3.65947l1.76664-7.03049c0.018-0.0901 0.0541-0.19829 0.0541-0.30645 0-0.27041-0.21633-0.45068-0.48673-0.45068-0.16224 0-0.54081 0.0721-0.68502 0.61292l-1.33399 5.29991c-0.0901 0.32448-0.0901 0.36054-0.23435 0.55883-0.36054 0.50475-0.95543 1.11767-1.82072 1.11767-1.00951 0-1.09964-0.99148-1.09964-1.47821 0-1.02753 0.48673-2.4156 0.97345-3.71354 0.1983-0.52278 0.30646-0.77516 0.30646-1.13569 0-0.75713-0.54081-1.44215-1.42413-1.44215-1.65847 0-2.32547 2.6139-2.32547 2.75811 0 0.0721 0.0721 0.16224 0.1983 0.16224 0.16224 0 0.18027-0.0721 0.25238-0.32448 0.43264-1.51426 1.11766-2.23534 1.82071-2.23534 0.16225 0 0.4687 0 0.4687 0.59489 0 0.4687-0.19829 0.99148-0.4687 1.6765-0.88331 2.36153-0.88331 2.95641-0.88331 3.38906 0 1.71255 1.22582 2.10915 2.12717 2.10915 0.52278 0 1.17175-0.16225 1.80269-0.82924l0.018 0.018c-0.27041 1.06358-0.45068 1.76663-1.08162 2.64995z"/>
   <g stroke-width="1.5">
    <path d="m28.4609 33.29c0-0.0538-0.03587-0.17932-0.197265-0.17932-0.05379 0-0.07173 0.0179-0.268995 0.21519l-1.25529 1.38082c-0.161385-0.25107-0.986295-1.59601-2.97684-1.59601-3.999 0-8.03387 3.96313-8.03387 8.12353 0 2.85131 1.99053 4.91357 4.89564 4.91357 0.789045 0 1.59602-0.16139 2.2416-0.43038 0.896625-0.35865 1.23735-0.73524 1.56014-1.09391 0.1614 0.44832 0.62766 1.11183 0.806985 1.11183 0.08966 0 0.12552-0.0538 0.12552-0.0717 0.03586-0.0359 0.215205-0.7173 0.30486-1.09389l0.340725-1.38082c0.07173-0.30486 0.1614-0.60971 0.23313-0.91457 0.19725-0.80698 0.21519-0.84285 1.23735-0.86077 0.08967 0 0.286935-0.018 0.286935-0.35865 0-0.12555-0.08967-0.19727-0.23313-0.19727-0.412455 0-1.47048 0.0539-1.88294 0.0539-0.555915 0-1.95468-0.0539-2.5106-0.0539-0.161385 0-0.37659 0-0.37659 0.35865 0 0.19727 0.143475 0.19727 0.53799 0.19727 0.01792 0 0.537975 0 0.95043 0.0359 0.46626 0.0539 0.555915 0.10755 0.555915 0.34072 0 0.16139-0.19725 0.96837-0.37659 1.63188-0.50211 1.97261-2.83336 2.16986-3.46101 2.16986-1.72155 0-3.60448-1.02216-3.60448-3.76587 0-0.55592 0.179325-3.51482 2.06226-5.84609 0.96837-1.21942 2.70784-2.31331 4.4832-2.31331 1.82913 0 2.88717 1.38081 2.88717 3.46101 0 0.71731-0.05381 0.73525-0.05381 0.91458 0 0.17932 0.197265 0.17932 0.268995 0.17932 0.23313 0 0.23313-0.0358 0.322785-0.35865z"/>
    <path d="m37.8032 50.057c0-0.0538 0-0.0897-0.30486-0.39451-2.24158-2.25953-2.81544-5.64882-2.81544-8.39253 0-3.1203 0.68145-6.2406 2.88717-8.4822 0.23313-0.21519 0.23313-0.25106 0.23313-0.30485 0-0.12555-0.07173-0.17934-0.179325-0.17934-0.179325 0-1.79328 1.21944-2.8513 3.49689-0.91458 1.97261-1.12977 3.96314-1.12977 5.4695 0 1.39875 0.197265 3.56862 1.18356 5.59501 1.07596 2.20574 2.61819 3.37136 2.79752 3.37136 0.107595 0 0.179325-0.0539 0.179325-0.17933z"/>
    <path d="m48.4529 38.562c-0.645585 0.17933-0.96837 0.78903-0.96837 1.23735 0 0.39453 0.30486 0.82491 0.89664 0.82491 0.627645 0 1.29116-0.52005 1.29116-1.39875 0-0.95044-0.95043-1.57809-2.04434-1.57809-1.02216 0-1.68567 0.77112-1.9188 1.09391-0.44832-0.75318-1.45256-1.09391-2.47472-1.09391-2.25952 0-3.47896 2.20574-3.47896 2.79752 0 0.25105 0.268991 0.25105 0.430386 0.25105 0.215193 0 0.340728 0 0.412458-0.23311 0.52005-1.63188 1.8112-2.16987 2.54644-2.16987 0.68145 0 1.00424 0.32278 1.00424 0.89664 0 0.34072-0.251055 1.32702-0.412455 1.9726l-0.609705 2.45678c-0.268995 1.0939-0.91458 1.63188-1.52428 1.63188-0.08967 0-0.502125 0-0.860775-0.26898 0.64557-0.17933 0.96837-0.78905 0.96837-1.23737 0-0.39451-0.30486-0.82491-0.89664-0.82491-0.627648 0-1.29116 0.52005-1.29116 1.39877 0 0.95043 0.950436 1.57807 2.04434 1.57807 1.02216 0 1.68567-0.7711 1.9188-1.09389 0.44832 0.75317 1.45256 1.09389 2.47472 1.09389 2.25952 0 3.47895-2.20572 3.47895-2.7975 0-0.25107-0.26898-0.25107-0.43038-0.25107-0.21519 0-0.340725 0-0.412455 0.23313-0.52005 1.63188-1.8112 2.16986-2.54644 2.16986-0.68145 0-1.00424-0.32279-1.00424-0.89663 0-0.37659 0.23313-1.32703 0.394515-1.99054 0.125535-0.46625 0.53799-2.15193 0.627645-2.43885 0.268995-1.07597 0.89664-1.63188 1.52428-1.63188 0.08967 0 0.502125 0 0.860775 0.26899z"/>
    <path d="m55.842 41.27c0-1.39877-0.19725-3.56862-1.18356-5.59502-1.07596-2.20573-2.61818-3.37137-2.79751-3.37137-0.107595 0-0.179327 0.0717-0.179327 0.17934 0 0.0538 0 0.0897 0.340722 0.41244 1.75741 1.77536 2.77957 4.62666 2.77957 8.37461 0 3.06649-0.66351 6.22266-2.88717 8.48218-0.233126 0.21519-0.233126 0.25106-0.233126 0.30486 0 0.10755 0.07173 0.17933 0.179327 0.17933 0.179328 0 1.79327-1.21943 2.85131-3.49689 0.914565-1.97259 1.12976-3.96314 1.12976-5.46948z"/>
   </g>
  </g>
  <path d="m58.3728 68.5072 2.7701 2.39699m-10.8982-1.71023-2.25735 0.99845c-1.88506 0.65584-3.77028 1.31122-5.65549 1.96662m5.65549-1.96662c2.03786-0.14193 4.07572-0.28387 6.11358-0.42581l0.23777-0.0166-0.896867 0.59131c-2.41056 0.33435-4.82116 0.66851-7.2317 1.00304l1.77721-1.15202m6.35135-0.44233c2.01392 0.34128 4.0279 0.68225 6.04188 1.02324l0.761756 0.129c-2.84397-0.20722-5.02687-0.36642-7.7005-0.56098m-7.2317 1.00304-1.22412 1.26518c-2.61202 1.13221-4.61754 2.00174-7.07203 3.06571l1.81918-1.84487 5.72014-2.19573 0.756839-0.29029m7.2317-1.00304-0.606084 0.64575c-2.61662 0.54065-5.23315 1.08169-7.84974 1.62247m16.1563-1.7072c-3.05245 0.031-5.37796 0.0545-8.30658 0.0846m-7.84974 1.62247-0.615582 1.33281c-2.72344 1.35531-4.79808 2.38798-7.40879 3.68697l0.952338-1.95407m14.9218-4.68818-0.290176 0.67634c-2.72496 0.75996-5.45009 1.51932-8.17514 2.27894m16.7719-3.04002c-3.14618 0.27838-5.54942 0.49141-8.59676 0.76108m-14.6316 4.01184c-2.00399 1.44939-4.22534 3.05618-6.01982 4.35385l-1.27316 2.52244c-1.67618 1.97879-3.52989 4.1664-5.02612 5.93288 0.516456-1.00603 1.03296-2.01203 1.54953-3.018m9.81721-7.8371c-2.11336 1.64098-4.22723 3.28131-6.34064 4.92222m-5.02612 5.93288-0.187821 3.05347-0.0032 0.0495c-1.20381 2.37254-2.53226 4.99249-3.60498 7.10724 0.0876-1.17547 0.175167-2.35094 0.262962-3.52639 0.953257-1.80373 1.90667-3.60738 2.86008-5.41103l0.672873-1.27284m5.02612-5.93288-0.105356 2.583c-1.70882 2.15679-3.59177 4.53398-5.1116 6.4529m11.5576-13.9581-0.02602 1.99139c-2.13995 1.838-4.28015 3.6757-6.41999 5.51382m13.8548-11.1922 0.02826 1.35085c-2.73116 1.58389-4.81742 2.79378-7.46303 4.32752m15.61-7.95731 0.04039 0.68123c-2.72904 0.98309-5.45826 1.96571-8.18739 2.94856m16.7437-4.39086c-3.12936 0.52754-5.52134 0.93073-8.55632 1.4423m-8.18739 2.94856 0.682387 1.31658c-2.63734 1.81259-4.65582 3.20016-7.21944 4.96257l-0.925984-1.95163m15.6504-7.27608 0.371986 0.66013c-2.8815 1.31848-5.08342 2.32656-7.87699 3.60501m16.0613-5.70744c-3.00226 0.77126-5.29128 1.35923-8.18434 2.10243m-31.159 25.6899c-0.65822 2.4855-1.3863 5.23489-1.97423 7.45473 0.449975 1.26806 0.900023 2.5361 1.35007 3.80413-0.09441 2.55121-0.199611 5.37433-0.283984 7.65388m0.908201-18.9127c0.436003 1.16569 0.871946 2.3314 1.30809 3.49703-0.644212 2.58724-1.28834 5.17451-1.93224 7.76183m4.22913-18.3661c0.410072 1.02268 0.820097 2.04538 1.22994 3.06816-1.17565 2.51202-2.35132 5.02402-3.52682 7.53611m7.40849-17.0572 1.10585 2.54383c-1.66279 2.32554-3.32499 4.6515-4.98752 6.97723m11.2276-13.0832c-2.07988 2.03551-4.16002 4.07074-6.24012 6.10602m-4.98752 6.97723c0.885314 0.96839 1.77061 1.93681 2.65601 2.90512-1.09631 2.65072-2.1928 5.30137-3.28905 7.95212-0.964448-1.10717-1.92906-2.2142-2.89378-3.32113m8.51434-14.5133c0.771144 0.79972 1.54222 1.59951 2.31312 2.39947-1.5482 2.4943-3.09639 4.9886-4.64463 7.48288m8.57163-15.9884 1.86606 1.83202c-1.93102 2.22449-3.86205 4.44898-5.79306 6.67347m11.1464-13.4681 1.32126 1.22909c-2.22499 1.85503-4.44974 3.71036-6.67464 5.5655m13.2304-10.3996 0.692204 0.6124c-2.66071 1.54985-4.68856 2.73088-7.24793 4.2217m14.7401-6.93653c-2.7626 1.00106-4.87092 1.76508-7.49213 2.71483m-32.4753 36.3364c1.00904 1.20651 2.0183 2.41285 3.02767 3.61909-0.08373 2.60329-0.167406 5.20659-0.25125 7.80988m2.0496-15.8697c-0.599336 2.68662-1.19879 5.37322-1.79835 8.05979m29.4477-39.9555 0.987872 0.54083c-2.10599 1.59047-4.21196 3.18095-6.31796 4.7714l-1.91784-1.09053m14.7401-6.93653c-2.39997 1.20141-4.29087 2.14756-6.50426 3.25566m-30.4355 39.4146c1.54902 1.08947 3.0979 2.17915 4.64677 3.26883-0.066 2.6509-0.131547 5.30181-0.19699 7.95272m-2.65141-19.2813c1.47307 0.99824 2.94623 1.99634 4.41941 2.99443-0.523924 2.77801-1.04743 5.55611-1.57098 8.33419m0.440628-19.2807c1.34048 0.87076 2.68093 1.74157 4.02139 2.61236-0.963429 2.77815-1.92742 5.5561-2.89103 8.33419m3.51428-18.4294c1.1537 0.71643 2.30739 1.43287 3.46094 2.14954-1.56057 3.03521-2.6874 5.22894-4.08419 7.9457m6.4163-16.7687c0.917411 0.54472 1.83482 1.08945 2.75225 1.63415-1.69485 2.39625-3.38966 4.79253-5.08433 7.1889m10.9246-13.298c-1.94673 2.03638-3.89369 4.07255-5.84026 6.10908m-9.16852 15.1346c1.75166 0.73172 3.50333 1.46342 5.255 2.19511-0.780572 2.88732-1.56163 5.77451-2.34222 8.66182-2.04612-0.88927-4.02688-1.75025-5.8038-2.52279m6.97522-16.2799c1.49711 0.60015 2.99426 1.2002 4.49142 1.80021l-0.0096 0.0235c-1.10352 2.77243-2.20745 5.54469-3.31111 8.31706m3.91353-17.3297c1.18053 0.45421 2.36114 0.90823 3.54154 1.36277-1.37835 2.542-2.75646 5.08414-4.13446 7.62633m6.43318-15.0982 2.44458 0.90546c-1.74675 2.41819-3.0779 4.26112-4.7433 6.5664m8.61668-12.2432 1.24681 0.4466c-1.70362 1.73998-3.59322 3.67065-5.12019 5.23025m10.3776-8.93252c-1.86962 1.31667-3.62047 2.54954-5.25745 3.70227m-27.0356 42.2368c2.03957 0.91961 4.07952 1.83838 6.1191 2.75797-0.04073 2.6916-0.08145 5.38319-0.12227 8.07479m1.37794-16.6442c-0.41833 2.85651-0.8372 5.71294-1.25568 8.56942m20.9165-44.9948 1.45699 0.33435c-1.22684 1.84859-2.59337 3.90848-3.70056 5.57652l-2.87662-0.68062m10.3776-8.93252c-1.26657 1.34578-2.5335 2.69121-3.80046 4.03662m-22.3735 44.6605c2.45241 0.70066 4.90466 1.40185 7.35701 2.10274-0.0099 2.7232-0.01972 5.44641-0.03034 8.16961m-6.07067-18.8418c2.32168 0.63982 4.64312 1.28055 6.96479 1.92042-0.287699 2.91726-0.575494 5.83451-0.863471 8.75174m-3.7591-19.334c2.09526 0.55585 4.1906 1.11138 6.28579 1.6675-0.554383 2.9716-1.10877 5.94319-1.66322 8.91478m-1.30196-18.9228 0.03432 0.01c1.77132 0.45125 3.54259 0.90273 5.31385 1.35422-0.7942 2.88169-1.58856 5.76334-2.38299 8.64497m1.16928-17.6344c1.39805 0.34278 2.79612 0.6855 4.1942 1.02813-0.993585 2.65373-1.98705 5.30751-2.98049 7.9613m6.4062-14.8752c-1.1422 2.30449-2.28361 4.60937-3.42571 6.91391m-2.98049 7.9613c1.99353 0.28572 3.98706 0.57142 5.98059 0.85712-0.437629 2.94654-0.875716 5.89302-1.3136 8.83952-2.59596-0.38723-4.67334-0.69717-7.04999-1.05175m5.36348-16.6063c1.55783 0.21468 3.11564 0.42955 4.67343 0.64452-0.557827 2.72462-1.11549 5.44928-1.67332 8.1739m0.425606-15.7323c1.06425 0.14175 2.1285 0.2835 3.19281 0.42479-0.648619 2.37778-1.29664 4.75571-1.94511 7.13353m2.45285-13.1349 1.61051 0.20802c-0.706093 1.93113-1.41217 3.86226-2.11825 5.79339m4.3082-10.038c-0.730008 1.41487-1.45999 2.82975-2.18995 4.24464m-16.627 46.5552c2.75916 0.44413 5.51831 0.88838 8.27748 1.33248 0.0252 2.7437 0.04988 5.4874 0.07455 8.2311m-7.48846-18.3153c2.6091 0.4049 5.2182 0.80987 7.82736 1.21442-0.137505 2.95661-0.27537 5.91321-0.413283 8.8698m1.2992-17.9473c-0.295458 3.02583-0.590482 6.0517-0.885852 9.07753m10.1261-43.2625c-0.163679 1.43914-0.327319 2.87828-0.490894 4.31743l-1.69907-0.0728m-8.34948 47.8877c2.93891 0.16197 5.87785 0.32351 8.81676 0.48545 0.06235 2.75196 0.124712 5.50391 0.18693 8.25587m-8.59032-17.6111c2.77744 0.14696 5.5549 0.29342 8.33233 0.44052 0.02376 2.97159 0.04729 5.94319 0.07103 8.91478m-7.51756-18.4328c2.49871 0.12609 4.9974 0.25263 7.49611 0.37867-0.01648 3.04644-0.03306 6.09287-0.0498 9.13931m-6.13288-18.3575c2.10078 0.1013 4.4461 0.21455 6.35012 0.3069-0.05552 2.97048-0.111626 5.94094-0.16762 8.91141m-4.50919-17.3921c1.65096 0.0761 3.30192 0.15245 4.95288 0.2288-0.09188 2.75064-0.184002 5.50127-0.275999 8.2519m-2.73169-15.6142c1.12537 0.0499 2.25074 0.10008 3.37608 0.15059-0.122384 2.40417-0.246079 4.80828-0.368267 7.21246m0.809549-13.083c-0.146967 1.95684-0.294103 3.91366-0.441234 5.87049m-0.368315 7.21246c1.67191-0.0659 3.3438-0.13204 5.01569-0.19827 0.381575 2.73808 0.802253 5.75475 1.14137 8.18985-2.28853 0.0925-4.4285 0.17921-6.43288 0.2606m0.644395-15.4644c1.13947-0.0438 2.27892-0.088 3.41835-0.13271 0.45348 2.6366 0.810882 4.71626 1.22902 7.14639m-4.20614-12.8847 1.7193-0.0651c0.419359 1.93448 0.838589 3.86898 1.25782 5.80349m-2.48624-10.0558c0.409414 1.41744 0.818883 2.83487 1.22842 4.25228m-2.95108 48.3655c2.97824-0.13005 5.95649-0.26003 8.93474-0.38989 0.100419 2.74736 0.20027 5.49474 0.300424 8.24211m-9.30611-16.7669c2.81461-0.12016 5.62925-0.23982 8.44386-0.35999 0.187204 2.96161 0.37451 5.92321 0.561963 8.8848m-8.9562-17.6641c2.53192-0.10479 5.06381-0.21023 7.59572-0.31528 0.266053 3.03156 0.532225 6.06311 0.798518 9.09465m-1.79375-17.951c0.331834 2.95211 0.663583 5.90422 0.995231 8.85635m1.36048 17.9794c2.87464-0.41505 5.74935-0.8296 8.62402-1.2444 0.13605 2.73025 0.272111 5.4605 0.40849 8.19073m-9.59445-15.8311c2.71809-0.38007 5.4362-0.76008 8.1543-1.14009 0.343923 2.92683 0.687821 5.85366 1.03169 8.78049m-9.9845-16.735c2.44703-0.33107 4.89406-0.66213 7.34107-0.99326 0.537229 2.98261 1.07454 5.9652 1.61174 8.94782m-9.94804-16.8109c2.02548-0.2652 4.05099-0.53011 6.0765-0.79503l0.147658-0.0193c0.703962 2.89249 1.40828 5.78488 2.11212 8.6774m-9.47741-16.0529c1.61982-0.20514 3.23963-0.41043 4.85943-0.61577 0.838016 2.67302 1.76078 5.61586 2.50586 7.99127m-8.59432-14.5219c1.10535-0.13594 2.21069-0.27194 3.31601-0.4081 1.02435 2.56338 1.81881 4.55224 2.77244 6.93868m-7.34628-12.3341 1.67056-0.20066c1.02201 1.97016 2.01671 3.88744 2.90332 5.5961m-5.80226-9.64771c0.966502 1.35041 1.93277 2.70099 2.89898 4.05161m5.67572 12.5348c1.49736-0.33438 2.99471-0.66883 4.49204-1.00334 1.37957 2.81912 2.42976 4.96706 3.75113 7.66762-1.91244 0.44232-3.82487 0.88466-5.7373 1.32699m-5.2783-14.93 2.9946-0.6485 0.08093-0.0174c1.39772 2.20192 2.942 4.6362 4.189 6.60127m-10.1678-11.5314 1.55475-0.32792c1.61784 1.92267 2.96347 3.52204 4.42401 5.25809m-8.87774-8.98178c1.48459 1.24121 2.96916 2.48245 4.45373 3.72369m11.3824 47.2597c2.63621-0.67624 5.27239-1.3526 7.90856-2.02901 0.168511 2.70167 0.336526 5.40337 0.50461 8.10506m-9.44492-14.8565c2.49517-0.61927 4.99022-1.23906 7.48539-1.85833 0.48522 2.86989 0.969934 5.73987 1.45486 8.60981m-10.552-15.6993c2.4744-0.59309 4.50871-1.08008 6.75122-1.61789 0.781807 2.9025 1.56401 5.8049 2.34591 8.70738m-5.47194-17.0939c1.04207 2.79548 2.08392 5.59104 3.12603 8.3865m2.34591 8.70738c2.377-0.90779 4.33128-1.6529 6.48557-2.47593 0.602936 2.79451 1.20634 5.58893 1.80938 8.38342-2.28004 0.90074-4.55987 1.80202-6.84009 2.70232m-3.80077-17.3172c1.91665-0.70528 3.83342-1.41027 5.75017-2.11528l0.11557-0.0425c0.988553 2.79643 1.97714 5.59285 2.96579 8.38924m-11.9575-14.6179c1.66816-0.59068 3.33627-1.18149 5.00436-1.77237 1.3645 2.73883 2.80652 5.63141 3.98737 8.00107m-12.7428-13.8963c1.31224-0.44803 2.62449-0.89603 3.93681-1.34382 1.60594 2.41321 3.21229 4.82615 4.81867 7.23907m-12.9445-12.4965 2.70932-0.89385c1.80533 2.05058 3.61092 4.10093 5.41649 6.1513m-12.5498-10.5156 1.37734-0.44109c2.12657 1.77534 3.77439 3.15116 5.756 4.80534m-11.5871-8.08793c1.93303 1.08802 4.08661 2.30072 5.83107 3.28259m24.7537 42.9694c0.194966 2.66325 0.389985 5.3265 0.58499 7.98975m-19.5826-46.1539 2.2356-1.08227c2.14345 1.87838 4.50105 3.94455 6.40406 5.61262-1.07435 0.5404-2.14871 1.08079-3.22318 1.62095m-11.1725-10.9566 1.14568-0.53654c2.28659 1.42237 4.80931 2.99254 6.84591 4.25961m-13.8227-7.00566c2.32336 0.91452 4.89759 1.92783 6.97675 2.74605m23.608 43.506c1.94429-1.14445 3.79858-2.23594 5.4934-3.23359 0.214728 2.61728 0.430151 5.23451 0.64497 7.85179m-7.94778-13.0016c1.74054-0.98834 3.48107-1.97671 5.2216-2.96507 0.693688 2.70496 1.38723 5.40996 2.08118 8.11486m-10.2686-13.539c1.58089-0.86304 3.16179-1.72609 4.74268-2.58913 1.14829 2.67108 2.29637 5.34224 3.44471 8.0133m-12.1748-13.4252c1.35652-0.71036 2.7129-1.42098 4.06918-2.1318 1.70979 2.76714 3.01345 4.87689 4.66087 7.54374m-10.3256-14.272c1.88822 2.24275 3.77641 4.48551 5.66468 6.72822m8.10558 15.557c1.25754-1.10303 2.51492-2.20624 3.77227-3.3095 0.754182 2.6065 1.50803 5.21309 2.26196 7.81966-1.31782 1.20141-2.63545 2.40304-3.95305 3.6047m-5.52589-16.1282c1.14993-0.96514 2.29976-1.93039 3.44962-2.89562 1.36296 2.74912 2.55385 5.1514 3.76736 7.59942m-11.8778-12.2475c0.99548-0.79712 1.99108-1.5941 2.98632-2.39152 1.70812 2.3465 3.41597 4.6932 5.12417 7.03964m-13.7752-11.3763 2.39095-1.8259c2.08644 2.05444 4.17337 4.1084 6.26005 6.1626m-15.0551-9.94932 1.67794-1.2245c2.37229 1.67051 4.74463 3.34095 7.11708 5.01122m-15.6409-8.04634 0.87083-0.60997c2.80639 1.33656 4.9465 2.35596 7.65301 3.64509m-15.5006-5.78116c2.62175 0.71387 5.51347 1.50068 7.84758 2.13607m32.1836 37.2776c0.25234 2.84312 0.44636 5.02386 0.68398 7.69883m-25.2145-41.3314 1.06234-1.31505c2.51187 1.45798 5.02338 2.91658 7.53503 4.37494l-1.48029 1.95133m-14.7701-8.65631 0.564101-0.65858c2.98102 1.09275 5.25966 1.92853 8.15125 2.98862m-16.5629-4.46611c2.81551 0.49459 5.91202 1.0385 8.41168 1.47749m-50.0252 41.2613c0.454061 1.32207 0.908093 2.64415 1.36201 3.96627 1.02016 1.25836 2.04031 2.51672 3.06046 3.77509 1.56708 1.13713 3.13404 2.2744 4.70102 3.41168 2.05488 0.95555 4.34255 2.01895 6.19386 2.88003 2.48288 0.7325 4.96578 1.46493 7.44862 2.19756 2.79421 0.46456 5.58841 0.92919 8.38258 1.39397 2.97639 0.17036 5.95281 0.34017 8.92922 0.51025 3.01603-0.13469 6.03208-0.26916 9.04811-0.40379 2.91069-0.43223 5.82145-0.86398 8.73221-1.29578 2.66828-0.7048 5.33644-1.41007 8.00477-2.11468 2.30673-0.93935 4.61353-1.87854 6.92037-2.81762 1.98563-1.20552 3.80615-2.3108 5.55346-3.3716 1.33075-1.25244 2.66136-2.50505 3.99195-3.75766 0.77508-1.32334 1.55021-2.64665 2.32538-3.96994 0.21248-1.33709 0.42496-2.67418 0.63771-4.01123m-3.64694 0.28234c0.76919-1.26961 1.53859-2.53909 2.30822-3.80843 0.2334 2.51247 0.46727 5.02489 0.70112 7.53732m-5.27124-11.5486c0.740184-1.16691 1.48038-2.3338 2.22058-3.5007 0.78225 2.50145 1.62489 5.19566 2.34972 7.51187m-8.33753-11.6106c0.685667-1.02352 1.3714-2.04699 2.05694-3.0706 1.31029 2.38979 2.62075 4.77949 3.93099 7.16931m-11.1121-11.1384 1.77505-2.49336 0.0367-0.0517c1.7897 2.17142 3.57944 4.3428 5.36929 6.5141m-11.9609-12.083c2.19731 1.85616 4.3944 3.71258 6.5916 5.56887m5.36929 6.5141 0.60977-2.9978 0.0239-0.1183c1.4542 2.48876 2.56759 4.39348 3.93958 6.74199-0.21417 1.18116-0.42834 2.36232-0.64232 3.54351m-9.30028-13.6834 0.60271-2.59187c1.80027 1.99642 3.60031 3.99306 5.40025 5.98979m-12.5946-8.96679 0.5344-1.99627c2.22022 1.65742 4.44002 3.31541 6.65991 4.97327m-14.7293-7.35194 0.4158-1.35298c2.80522 1.36764 4.94518 2.41115 7.65362 3.73165m-16.2207-5.36729 0.237785-0.68154c3.04765 0.84767 5.37606 1.49568 8.32927 2.31718m-16.9787-3.11313c2.89693 0.26663 6.07985 0.55954 8.64947 0.79595m31.9826 23.7539c0.78267 2.40089 1.64873 5.05944 2.34804 7.20633-0.21029 1.26194-0.44026 2.6441-0.64078 3.84911m-2.60086-14.5026c0.29782 1.14906 0.59563 2.29812 0.89352 3.44716m-31.9826-23.7539-0.09434-0.67788c3.00717 0.6087 5.29858 1.07243 8.188 1.65737l0.23565 1.33769m-16.9787-3.11313c2.86372 0.0393 6.0129 0.0827 8.5551 0.118m22.7372 11.7-0.58985-2.53742c1.93265 2.02762 3.42377 3.59209 5.2311 5.48812l0.74153 2.96812 0.0174 0.071m-12.0602-10.9631-0.40754-1.96357c2.3909 1.62384 4.22016 2.86631 6.4776 4.39942m-13.9593-7.50519c2.75538 1.14397 4.85549 2.01545 7.48172 3.10577l-1.30992-1.85741c2.23632 1.42551 4.01151 2.5577 6.06609 3.86747l1.72143 2.38936m-13.9593-7.50519-0.86561-1.27193c2.59996 0.93079 4.61768 1.65364 7.03741 2.52029m-14.3598-2.90573-0.419795-0.64849c2.8581 0.38141 5.04609 0.67351 7.74219 1.03393m-15.8775-0.50351c2.71818-0.17733 5.71569-0.37285 8.1353-0.53046m-8.1353 0.53043c2.46711-0.37457 5.20065-0.79015 7.40849-1.1254l0.726813 0.59497m7.74219 1.03394-1.45302-1.16058c2.29585 0.7213 4.30592 1.35298 6.34921 1.99498l2.14122 1.6858m-15.5064-4.14919c2.57804 0.17173 4.66781 0.31204 7.01598 0.46838l-1.9773-1.00794c1.8164 0.51503 3.63283 1.02991 5.44927 1.54479m-10.4879-1.00518-1.00352-0.51941c2.01407-6e-3 4.02813-0.0132 6.0422-0.02m-12.4472 1.66501c2.12214-0.54512 4.48806-1.15204 6.40497-1.64485m-6.40497 1.64482c1.72128-0.69003 3.44264-1.37988 5.16401-2.06971l1.24097 0.42489m-1.24097-0.42489c1.62001-0.13894 3.24003-0.2779 4.86004-0.41687l2.42312 0.82163m-7.28316-0.40469-1.43126-0.31569c1.17123-0.23631 2.34246-0.47262 3.51365-0.70913m-7.2464 3.09446c1.24426-0.79511 2.48851-1.59024 3.73275-2.38539l-1.56824-0.19517 2.05114-0.88863m-4.21564 3.46919c0.72149-0.8602 1.44299-1.72039 2.16451-2.58056l-1.64666-0.0675 0.521512-0.95103m-1.03935 3.59919 0.517841-2.64816-1.66536 0.0618-1.02374-0.89413m2.17126 3.4805-1.14752-2.58637-1.62278 0.18934-2.53343-0.71946m48.9819 42.2478c-0.25805-2.72415-0.45851-4.84598-0.69802-7.3752-0.32552-1.24642-0.65105-2.49285-0.97653-3.73928-0.75326-2.29993-1.58964-4.85197-2.26503-6.91421-1.40533-2.33931-2.50133-4.16435-3.80506-6.33392-0.690097-0.95066-1.38016-1.90135-2.07043-2.85189-1.62122-1.66924-3.42433-3.52465-4.8821-5.02559-0.918193-0.72002-1.83636-1.44007-2.75466-2.15995-1.8046-1.12306-3.81854-2.37639-5.45265-3.39334l-2.7323-1.38481-0.14494-0.0734-2.90174-0.98224c-1.16441-0.39773-2.36553-0.68-3.55288-1.0009l-1.41777-0.38328-2.77764-0.60782-3.03076-0.37472-3.06169-0.12549-0.114614-5e-3 -3.062 0.1132-0.148616 5e-3 -3.04361 0.35361-0.08891 0.0112-2.94403 0.59712-2.64988 0.81093-2.91124 0.95471-1.73277 0.56805c-1.08956 0.48087-2.17912 0.96177-3.26883 1.44231l-2.5987 1.67141c-1.81774 1.26905-3.84309 2.68313-5.4836 3.82833-0.78511 0.79015-1.57023 1.58029-2.35539 2.37039-1.57908 1.80827-3.33284 3.81512-4.74973 5.43733l-1.43158 2.70476c-1.2362 2.29367-2.56381 4.88041-3.65092 6.99711-0.642444 2.38055-1.35447 5.01974-1.9298 7.15157-0.10249 1.27651-0.205033 2.55302-0.307405 3.82954-0.09865 2.49725-0.197048 4.9945-0.295951 7.49174m38.8432-45.1358-1.52041 0.30988c-1.31901-0.14412-2.63802-0.28824-3.95704-0.43231m-2.64988 0.81093c1.7484 0.0138 3.49681 0.0275 5.24521 0.0412l-1.1512 0.51482m2.51292-0.93481-1.36171 0.41999m5.65243 1.66715c-1.4303-0.69559-2.86053-1.39133-4.29072-2.08714m-1.36171 0.41999c1.88406 0.556 3.76824 1.11157 5.65243 1.66715" fill="none" stroke="#000" stroke-width=".3"/>
 </g>
 <g fill="none" stroke="#009da3" stroke-linejoin="round" stroke-width=".8">
  <circle cx="75.8478" cy="93.272" r="14.625" color="#000000"/>
  <path d="m82.8781 106.103 63.1462-38.8554" color="#000000"/>
  <path d="m62.2659 87.903 30.9959-67.2243" color="#000000"/>
 </g>
</svg>
