<?xml version="1.0" encoding="UTF-8"?>
<svg width="182.286" height="144.19" version="1.1" viewBox="0 0 182.28616 144.19044" xmlns="http://www.w3.org/2000/svg">
 <defs>
  <marker id="marker5692" overflow="visible" orient="auto">
   <path transform="matrix(-.8 0 0 -.8 -10 0)" d="m0 0 5-5-17.5 5 17.5 5z" fill-rule="evenodd" stroke="#000" stroke-width="1pt"/>
  </marker>
  <marker id="marker6250" overflow="visible" orient="auto">
   <path transform="matrix(-.8 0 0 -.8 -10 0)" d="m0 0 5-5-17.5 5 17.5 5z" fill-rule="evenodd" stroke="#000" stroke-width="1pt"/>
  </marker>
  <marker id="marker9432" overflow="visible" orient="auto">
   <path transform="matrix(-.4 0 0 -.4 -4 0)" d="m0 0 5-5-17.5 5 17.5 5z" fill="#f00" fill-rule="evenodd" stroke="#f00" stroke-width="1pt"/>
  </marker>
  <marker id="marker5368" overflow="visible" orient="auto">
   <path transform="matrix(-.4 0 0 -.4 -4 0)" d="m0 0 5-5-17.5 5 17.5 5z" fill="#f00" fill-rule="evenodd" stroke="#f00" stroke-width="1pt"/>
  </marker>
  <marker id="marker5228" overflow="visible" orient="auto">
   <path transform="matrix(-.4 0 0 -.4 -4 0)" d="m0 0 5-5-17.5 5 17.5 5z" fill="#f00" fill-rule="evenodd" stroke="#f00" stroke-width="1pt"/>
  </marker>
  <marker id="marker5403" overflow="visible" orient="auto">
   <path transform="matrix(-.4 0 0 -.4 -4 0)" d="m0 0 5-5-17.5 5 17.5 5z" fill="#f00" fill-rule="evenodd" stroke="#f00" stroke-width="1pt"/>
  </marker>
 </defs>
 <g shape-rendering="auto">
  <path d="m0.5 134.19h165.431" color="#000000" color-rendering="auto" fill="none" image-rendering="auto" marker-end="url(#marker5692)" solid-color="#000000" stroke="#000" stroke-width=".8" style="isolation:auto;mix-blend-mode:normal"/>
  <path d="m11.5 143.69v-105.482" color="#000000" color-rendering="auto" fill="none" image-rendering="auto" marker-end="url(#marker6250)" solid-color="#000000" stroke="#000" stroke-width=".8" style="isolation:auto;mix-blend-mode:normal"/>
  <path d="m1.77867 69.8911h125.343l9.72133 64.2989h-125.343z" color="#000000" color-rendering="auto" fill="#e2fbe2" image-rendering="auto" solid-color="#000000" stroke="#008400" style="isolation:auto;mix-blend-mode:normal"/>
  <path d="m66.9597 7.641c35.8826-21.543 48.5833 17.844 98.1033-0.63942l16.104 53.1097c-66.4718 22.4308-83.5215-41.191-128.374 0z" color="#000000" color-rendering="auto" fill="#ebeaff" image-rendering="auto" solid-color="#000000" stroke="#00f" style="isolation:auto;mix-blend-mode:normal"/>
 </g>
 <g fill="none" shape-rendering="auto">
  <path d="m91.8809 22.666 18.7005 6.59925 1.26185 17.6198" color="#000000" color-rendering="auto" image-rendering="auto" solid-color="#000000" stroke="#000" stroke-width=".8" style="isolation:auto;mix-blend-mode:normal"/>
  <path d="m89.7296 40.203 20.7761 6.27811" color="#000000" color-rendering="auto" image-rendering="auto" marker-end="url(#marker9432)" solid-color="#000000" stroke="#f00" stroke-linecap="round" style="isolation:auto;mix-blend-mode:normal"/>
  <path d="m89.7296 40.203 1.9519-15.9114" color="#000000" color-rendering="auto" image-rendering="auto" marker-end="url(#marker5368)" solid-color="#000000" stroke="#f00" stroke-linecap="round" style="isolation:auto;mix-blend-mode:normal"/>
  <path d="m66.1758 106.616h25.4312v19.2009" color="#000000" color-rendering="auto" image-rendering="auto" solid-color="#000000" stroke="#000" stroke-width=".8" style="isolation:auto;mix-blend-mode:normal"/>
  <path d="m66.1758 125.816h25.4312" color="#000000" color-rendering="auto" image-rendering="auto" marker-end="url(#marker5228)" solid-color="#000000" stroke="#f00" stroke-linecap="round" style="isolation:auto;mix-blend-mode:normal"/>
  <path d="m66.1758 125.816v-19.2009" color="#000000" color-rendering="auto" image-rendering="auto" marker-end="url(#marker5403)" solid-color="#000000" stroke="#f00" stroke-linecap="round" style="isolation:auto;mix-blend-mode:normal"/>
  <g stroke="#000" stroke-dasharray="2, 2" stroke-width=".5">
   <path d="m11.5 134.19 41.2932-74.0791" color="#000000" color-rendering="auto" image-rendering="auto" solid-color="#000000" style="isolation:auto;mix-blend-mode:normal"/>
   <path d="m1.77867 69.8911 65.181-61.6705" color="#000000" color-rendering="auto" image-rendering="auto" solid-color="#000000" style="isolation:auto;mix-blend-mode:normal"/>
   <path d="m127.122 69.8911 37.9416-62.3666" color="#000000" color-rendering="auto" image-rendering="auto" solid-color="#000000" style="isolation:auto;mix-blend-mode:normal"/>
   <path d="m136.843 134.19 44.3242-74.079" color="#000000" color-rendering="auto" image-rendering="auto" solid-color="#000000" style="isolation:auto;mix-blend-mode:normal"/>
  </g>
 </g>
 <g stroke-linejoin="round" stroke-miterlimit="1e5" stroke-width="1.5">
  <path d="m179.385 131.447c0-1.18357-0.32279-3.67621-2.15193-3.67621-2.49266 0-5.2543 5.05702-5.2543 9.16363 0 1.68567 0.52005 3.67622 2.15194 3.67622 2.52852 0 5.25429-5.14671 5.25429-9.16364zm-5.50536 2.45678c0.30486-1.1477 0.66352-2.58231 1.38082-3.85554 0.48419-0.8787 1.1477-1.88294 1.95468-1.88294 0.8787 0 0.9863 1.1477 0.9863 2.16987 0 0.8787-0.14346 1.79327-0.57384 3.56861zm3.58656 0.57385c-0.19727 0.82491-0.57386 2.3492-1.25529 3.64035-0.62765 1.21943-1.3091 2.09813-2.0802 2.09813-0.59178 0-0.96837-0.52005-0.96837-2.1878 0-0.75316 0.10759-1.79326 0.57384-3.55068z"/>
  <path d="m13.7596 15.258c0-0.0358 0.0538-0.23313 0.0538-0.25105 0-0.018 0-0.17934-0.2152-0.17934-0.17932 0-0.19725 0.0539-0.26899 0.35866l-1.0401 4.14246c-2.8513 0.0897-5.48742 2.47472-5.48742 4.91358 0 1.70361 1.25531 3.1203 3.4431 3.24582-0.14348 0.55592-0.269 1.12977-0.41246 1.68569-0.2152 0.84283-0.39452 1.52428-0.39452 1.57807 0 0.17933 0.12553 0.19727 0.21519 0.19727 0.0897 0 0.12553-0.018 0.17933-0.0717 0.0359-0.0358 0.14346-0.46626 0.19726-0.71732l0.68145-2.67198c2.88716-0.0897 5.48742-2.51058 5.48742-4.91356 0-1.41669-0.95043-3.06651-3.44309-3.24584zm-3.42516 11.8356c-1.07597-0.0538-2.36712-0.68145-2.36712-2.47472 0-2.15194 1.54221-4.66252 4.21419-4.89565zm2.31333-7.37037c1.36288 0.0717 2.38506 0.89664 2.38506 2.47473 0 2.11606-1.54223 4.68045-4.23213 4.89564z"/>
 </g>
 <g fill="#f00">
  <g fill="#008000" stroke-linejoin="round" stroke-miterlimit="1e5" stroke-width="1.5">
   <path d="m99.4327 121.844c-2.24158 0.53799-3.98106 2.86924-3.98106 5.0391 0 1.72155 1.1477 3.0127 2.83337 3.0127 2.09814 0 3.58656-2.81544 3.58656-5.29015 0-1.63188-0.71732-2.52852-1.32704-3.33549-0.64557-0.80699-1.70361-2.15193-1.70361-2.94098 0-0.39453 0.35867-0.82491 0.98631-0.82491 0.53798 0 0.89664 0.23313 1.27323 0.48419 0.35865 0.21519 0.7173 0.44832 0.9863 0.44832 0.44832 0 0.71731-0.43038 0.71731-0.71732 0-0.39451-0.28693-0.44832-0.9325-0.59178-0.93251-0.19725-1.18356-0.19725-1.4705-0.19725-1.39875 0-2.04433 0.77111-2.04433 1.84707 0 0.96837 0.52005 1.97261 1.07596 3.0665zm0.21521 0.39453c0.44832 0.82489 0.98629 1.79326 0.98629 3.08442 0 1.18357-0.68145 4.17834-2.34919 4.17834-0.9863 0-1.72154-0.75318-1.72154-2.11607 0-1.12977 0.66351-4.50112 3.08444-5.14669z"/>
   <path d="m111.477 120.714c0-1.18357-0.32279-3.67621-2.15193-3.67621-2.49266 0-5.2543 5.05702-5.2543 9.16363 0 1.68567 0.52005 3.67622 2.15194 3.67622 2.52852 0 5.25429-5.14671 5.25429-9.16364zm-5.50536 2.45678c0.30486-1.1477 0.66352-2.58231 1.38082-3.85554 0.48419-0.8787 1.1477-1.88294 1.95468-1.88294 0.8787 0 0.9863 1.1477 0.9863 2.16987 0 0.8787-0.14346 1.79327-0.57384 3.56861zm3.58656 0.57385c-0.19727 0.82491-0.57386 2.3492-1.25529 3.64035-0.62765 1.21943-1.3091 2.09813-2.0802 2.09813-0.59178 0-0.96837-0.52005-0.96837-2.1878 0-0.75316 0.10759-1.79326 0.57384-3.55068z"/>
   <path d="m115.771 124.525c0-0.20084-0.15063-0.477-0.50211-0.477-0.33894 0-0.70298 0.32637-0.70298 0.6904 0 0.21341 0.1632 0.47702 0.50213 0.47702 0.36403 0 0.70296-0.35148 0.70296-0.69042zm-2.5608 6.37689c-0.0502 0.16318-0.11297 0.31383-0.11297 0.52722 0 0.58999 0.50211 1.06701 1.19253 1.06701 1.25529 0 1.80762-1.73231 1.80762-1.9206 0-0.16319-0.1632-0.16319-0.20085-0.16319-0.17574 0-0.18829 0.0753-0.23851 0.21339-0.28871 1.00424-0.84104 1.5189-1.33061 1.5189-0.25105 0-0.31381-0.16318-0.31381-0.43935 0-0.28872 0.0879-0.52722 0.20083-0.80338 0.12554-0.33893 0.26361-0.67785 0.4017-1.00424 0.11298-0.30126 0.56489-1.44358 0.61509-1.59421 0.0377-0.12555 0.0753-0.27617 0.0753-0.4017 0-0.58998-0.50211-1.067-1.19253-1.067-1.24274 0-1.82017 1.7072-1.82017 1.9206 0 0.16319 0.17574 0.16319 0.2134 0.16319 0.17574 0 0.18829-0.0627 0.22595-0.20085 0.32638-1.07955 0.87871-1.53146 1.34317-1.53146 0.20085 0 0.31381 0.10035 0.31381 0.43935 0 0.28872-0.0753 0.47702-0.38913 1.25529z"/>
   <path d="m41.7521 104.193c-2.24159 0.53799-3.98107 2.86924-3.98107 5.0391 0 1.72155 1.1477 3.0127 2.83337 3.0127 2.09814 0 3.58656-2.81544 3.58656-5.29015 0-1.63188-0.71731-2.52852-1.32703-3.33549-0.64557-0.80699-1.70361-2.15193-1.70361-2.94098 0-0.39453 0.35866-0.82491 0.98631-0.82491 0.53797 0 0.89664 0.23313 1.27323 0.48419 0.35865 0.21519 0.7173 0.44832 0.98629 0.44832 0.44832 0 0.71732-0.43038 0.71732-0.71732 0-0.39451-0.28694-0.44832-0.93251-0.59178-0.9325-0.19725-1.18356-0.19725-1.47049-0.19725-1.39875 0-2.04434 0.77111-2.04434 1.84707 0 0.96837 0.52005 1.97261 1.07597 3.0665zm0.2152 0.39453c0.44832 0.82489 0.9863 1.79326 0.9863 3.08442 0 1.18357-0.68145 4.17834-2.3492 4.17834-0.98629 0-1.72153-0.75318-1.72153-2.11607 0-1.12977 0.66351-4.50112 3.08443-5.14669z"/>
   <path d="m53.4734 100.014c0-0.0358 0.0538-0.23313 0.0538-0.25105 0-0.018 0-0.17934-0.21519-0.17934-0.17932 0-0.19725 0.0539-0.26899 0.35866l-1.0401 4.14246c-2.85131 0.0897-5.48742 2.47472-5.48742 4.91358 0 1.70361 1.2553 3.1203 3.4431 3.24582-0.14348 0.55592-0.269 1.12977-0.41246 1.68569-0.2152 0.84283-0.39453 1.52428-0.39453 1.57807 0 0.17933 0.12554 0.19727 0.21519 0.19727 0.0897 0 0.12554-0.018 0.17934-0.0717 0.0359-0.0358 0.14346-0.46626 0.19725-0.71732l0.68145-2.67198c2.88717-0.0897 5.48742-2.51058 5.48742-4.91356 0-1.41669-0.95043-3.06651-3.44308-3.24584zm-3.42516 11.8356c-1.07596-0.0538-2.36712-0.68145-2.36712-2.47472 0-2.15194 1.54221-4.66252 4.21419-4.89565zm2.31333-7.37037c1.36289 0.0717 2.38506 0.89664 2.38506 2.47473 0 2.11606-1.54222 4.68045-4.23213 4.89564z"/>
   <path d="m60.3494 106.873c0-0.20084-0.15063-0.477-0.50211-0.477-0.33894 0-0.70297 0.32637-0.70297 0.6904 0 0.21341 0.1632 0.47702 0.50212 0.47702 0.36404 0 0.70296-0.35148 0.70296-0.69042zm-2.5608 6.37689c-0.0502 0.16318-0.11297 0.31383-0.11297 0.52722 0 0.58999 0.50212 1.06701 1.19254 1.06701 1.25529 0 1.80762-1.73231 1.80762-1.9206 0-0.16319-0.1632-0.16319-0.20085-0.16319-0.17574 0-0.1883 0.0753-0.23852 0.21339-0.2887 1.00424-0.84103 1.5189-1.3306 1.5189-0.25106 0-0.31382-0.16318-0.31382-0.43935 0-0.28872 0.0879-0.52722 0.20084-0.80338 0.12553-0.33893 0.26361-0.67785 0.4017-1.00424 0.11298-0.30126 0.56488-1.44358 0.61509-1.59421 0.0377-0.12555 0.0753-0.27617 0.0753-0.4017 0-0.58998-0.50211-1.067-1.19253-1.067-1.24273 0-1.82017 1.7072-1.82017 1.9206 0 0.16319 0.17575 0.16319 0.21341 0.16319 0.17574 0 0.18829-0.0627 0.22595-0.20085 0.32637-1.07955 0.8787-1.53146 1.34316-1.53146 0.20085 0 0.31382 0.10035 0.31382 0.43935 0 0.28872-0.0753 0.47702-0.38913 1.25529z"/>
  </g>
  <path d="m96.1121 54.368-20.8904 32.9402 10.6543-5.79554-9.85687 33.5037 4.09634 1.20982 9.85879-33.513 5.79994 10.6581z" color="#000000" color-rendering="auto" image-rendering="auto" shape-rendering="auto" solid-color="#000000" style="isolation:auto;mix-blend-mode:normal;text-decoration-color:#000000;text-decoration-line:none;text-decoration-style:solid;text-indent:0;text-transform:none;white-space:normal"/>
 </g>
 <g fill="#f00" shape-rendering="auto">
  <path d="m118.887 45.401c-2.24159 0.53799-3.98107 2.86925-3.98107 5.0391 0 1.72155 1.1477 3.01271 2.83337 3.01271 2.09814 0 3.58656-2.81544 3.58656-5.29016 0-1.63188-0.71731-2.52852-1.32703-3.33549-0.64557-0.80698-1.70361-2.15193-1.70361-2.94097 0-0.39453 0.35866-0.82491 0.98631-0.82491 0.53797 0 0.89664 0.23313 1.27323 0.48418 0.35865 0.21519 0.7173 0.44832 0.98629 0.44832 0.44832 0 0.71732-0.43038 0.71732-0.71731 0-0.39452-0.28694-0.44832-0.93251-0.59178-0.9325-0.19725-1.18356-0.19725-1.47049-0.19725-1.39875 0-2.04434 0.7711-2.04434 1.84707 0 0.96837 0.52005 1.9726 1.07597 3.06649zm0.2152 0.39453c0.44832 0.8249 0.9863 1.79327 0.9863 3.08442 0 1.18358-0.68145 4.17834-2.3492 4.17834-0.98629 0-1.72153-0.75318-1.72153-2.11606 0-1.12977 0.66351-4.50113 3.08443-5.1467z" color="#000000" color-rendering="auto" image-rendering="auto" solid-color="#000000" style="isolation:auto;mix-blend-mode:normal"/>
  <path d="m132.384 46.047c-0.64558 0.17932-0.96837 0.78903-0.96837 1.23735 0 0.39453 0.30486 0.82491 0.89664 0.82491 0.62765 0 1.29116-0.52005 1.29116-1.39875 0-0.95045-0.95043-1.57809-2.04434-1.57809-1.02216 0-1.68567 0.77112-1.9188 1.0939-0.44832-0.75318-1.45255-1.0939-2.47471-1.0939-2.25953 0-3.47896 2.20573-3.47896 2.79751 0 0.25106 0.26899 0.25106 0.43039 0.25106 0.21519 0 0.34072 0 0.41245-0.23312 0.52005-1.63188 1.81121-2.16987 2.54645-2.16987 0.68145 0 1.00423 0.32279 1.00423 0.89664 0 0.34073-0.25105 1.32702-0.41245 1.97261l-0.60971 2.45677c-0.26899 1.09391-0.91458 1.63188-1.52428 1.63188-0.0897 0-0.50213 0-0.86078-0.26898 0.64557-0.17932 0.96837-0.78904 0.96837-1.23736 0-0.39452-0.30486-0.82491-0.89664-0.82491-0.62764 0-1.29116 0.52005-1.29116 1.39876 0 0.95043 0.95044 1.57808 2.04434 1.57808 1.02216 0 1.68567-0.77111 1.9188-1.09389 0.44832 0.75316 1.45256 1.09389 2.47472 1.09389 2.25952 0 3.47895-2.20572 3.47895-2.7975 0-0.25107-0.26898-0.25107-0.43038-0.25107-0.21519 0-0.34073 0-0.41246 0.23313-0.52005 1.63188-1.8112 2.16985-2.54644 2.16985-0.68145 0-1.00424-0.32278-1.00424-0.89662 0-0.37659 0.23313-1.32704 0.39452-1.99055 0.12553-0.46624 0.53799-2.15193 0.62764-2.43885 0.269-1.07596 0.89664-1.63188 1.52429-1.63188 0.0897 0 0.50212 0 0.86077 0.269z" color="#000000" color-rendering="auto" image-rendering="auto" solid-color="#000000" style="isolation:auto;mix-blend-mode:normal"/>
  <path d="m138.656 48.082c0-0.20084-0.15063-0.477-0.50211-0.477-0.33894 0-0.70298 0.32637-0.70298 0.6904 0 0.21341 0.1632 0.47702 0.50213 0.47702 0.36403 0 0.70296-0.35148 0.70296-0.69042zm-2.5608 6.37689c-0.0502 0.16318-0.11297 0.31383-0.11297 0.52722 0 0.58999 0.50211 1.06701 1.19253 1.06701 1.25529 0 1.80762-1.73231 1.80762-1.9206 0-0.16319-0.1632-0.16319-0.20085-0.16319-0.17574 0-0.18829 0.0753-0.23851 0.21339-0.28871 1.00424-0.84104 1.5189-1.33061 1.5189-0.25105 0-0.31381-0.16318-0.31381-0.43935 0-0.28872 0.0879-0.52722 0.20083-0.80338 0.12554-0.33893 0.26361-0.67785 0.4017-1.00424 0.11298-0.30126 0.56489-1.44358 0.61509-1.59421 0.0377-0.12555 0.0753-0.27617 0.0753-0.4017 0-0.58998-0.50211-1.067-1.19253-1.067-1.24273 0-1.82017 1.7072-1.82017 1.9206 0 0.16319 0.17574 0.16319 0.2134 0.16319 0.17574 0 0.1883-0.0627 0.22596-0.20085 0.32637-1.07955 0.8787-1.53146 1.34316-1.53146 0.20085 0 0.31381 0.10035 0.31381 0.43935 0 0.28872-0.0753 0.47702-0.38913 1.25529z" color="#000000" color-rendering="auto" image-rendering="auto" solid-color="#000000" style="isolation:auto;mix-blend-mode:normal"/>
  <path d="m91.1984 8.757c-2.24159 0.53799-3.98107 2.86925-3.98107 5.0391 0 1.72155 1.1477 3.01271 2.83337 3.01271 2.09814 0 3.58656-2.81544 3.58656-5.29016 0-1.63188-0.71731-2.52852-1.32703-3.33549-0.64557-0.80698-1.70361-2.15193-1.70361-2.94097 0-0.39453 0.35866-0.82491 0.98631-0.82491 0.53797 0 0.89664 0.23313 1.27323 0.48418 0.35865 0.21519 0.7173 0.44832 0.98629 0.44832 0.44832 0 0.71732-0.43038 0.71732-0.71731 0-0.39452-0.28694-0.44832-0.93251-0.59178-0.9325-0.19725-1.18356-0.19725-1.47049-0.19725-1.39875 0-2.04434 0.7711-2.04434 1.84707 0 0.96837 0.52005 1.9726 1.07597 3.06649zm0.2152 0.39453c0.44832 0.8249 0.9863 1.79327 0.9863 3.08442 0 1.18358-0.68145 4.17834-2.3492 4.17834-0.98629 0-1.72153-0.75318-1.72153-2.11606 0-1.12977 0.66351-4.50113 3.08443-5.1467z" color="#000000" color-rendering="auto" image-rendering="auto" solid-color="#000000" style="isolation:auto;mix-blend-mode:normal"/>
  <path d="m105.43 9.833c0.0897-0.32279 0.0897-0.35865 0.0897-0.41246 0-0.39451-0.28692-0.78903-0.84285-0.78903-0.93249 0-1.1477 0.84284-1.27322 1.32702l-0.46626 1.86501c-0.21519 0.86076-0.55591 2.24159-0.75316 2.97683-0.0897 0.39453-0.64559 0.82491-0.69938 0.86077-0.19726 0.12555-0.62766 0.43038-1.21944 0.43038-1.05802 0-1.07596-0.89662-1.07596-1.30908 0-1.0939 0.55591-2.49265 1.05804-3.78381 0.17932-0.46626 0.23313-0.59178 0.23313-0.89664 0-1.0401-1.0401-1.61395-2.02641-1.61395-1.90087 0-2.79751 2.43886-2.79751 2.79751 0 0.25106 0.26899 0.25106 0.43039 0.25106 0.21519 0 0.34072 0 0.41245-0.23312 0.59178-1.99054 1.57808-2.16987 1.84707-2.16987 0.12554 0 0.30486 0 0.30486 0.37659 0 0.41246-0.19726 0.8787-0.30486 1.16562-0.69937 1.79328-1.07596 2.81546-1.07596 3.73002 0 2.04434 1.79328 2.33126 2.8513 2.33126 0.44832 0 1.05804-0.0717 1.72155-0.53798-0.50212 2.20572-1.84707 3.37136-3.08443 3.37136-0.23313 0-0.73524-0.0358-1.09391-0.25106 0.57386-0.23313 0.86078-0.71731 0.86078-1.2015 0-0.64558-0.52005-0.82491-0.8787-0.82491-0.66351 0-1.29116 0.57386-1.29116 1.36289 0 0.91458 0.95043 1.56015 2.40299 1.56015 2.06226 0 4.42939-1.38081 4.98531-3.60447z" color="#000000" color-rendering="auto" image-rendering="auto" solid-color="#000000" style="isolation:auto;mix-blend-mode:normal"/>
  <path d="m110.399 13.132c0-0.20084-0.15063-0.477-0.50211-0.477-0.33894 0-0.70298 0.32637-0.70298 0.6904 0 0.21341 0.1632 0.47702 0.50213 0.47702 0.36403 0 0.70296-0.35148 0.70296-0.69042zm-2.5608 6.37689c-0.0502 0.16318-0.11297 0.31383-0.11297 0.52722 0 0.58999 0.50211 1.06701 1.19253 1.06701 1.25529 0 1.80762-1.73231 1.80762-1.9206 0-0.16319-0.1632-0.16319-0.20085-0.16319-0.17574 0-0.18829 0.0753-0.23851 0.21339-0.28871 1.00424-0.84104 1.5189-1.33061 1.5189-0.25105 0-0.31381-0.16318-0.31381-0.43935 0-0.28872 0.0879-0.52722 0.20083-0.80338 0.12554-0.33893 0.26361-0.67785 0.4017-1.00424 0.11298-0.30126 0.56489-1.44358 0.61509-1.59421 0.0377-0.12555 0.0753-0.27617 0.0753-0.4017 0-0.58998-0.50211-1.067-1.19253-1.067-1.24274 0-1.82017 1.7072-1.82017 1.9206 0 0.16319 0.17574 0.16319 0.2134 0.16319 0.17574 0 0.18829-0.0627 0.22595-0.20085 0.32638-1.07955 0.87871-1.53146 1.34317-1.53146 0.20085 0 0.31381 0.10035 0.31381 0.43935 0 0.28872-0.0753 0.47702-0.38913 1.25529z" color="#000000" color-rendering="auto" image-rendering="auto" solid-color="#000000" style="isolation:auto;mix-blend-mode:normal"/>
 </g>
</svg>
