<?xml version="1.0" encoding="UTF-8"?>
<svg width="209.67" height="140.882" version="1.1" viewBox="0 0 209.66986 140.88177" xmlns="http://www.w3.org/2000/svg"><defs><marker id="marker7067" overflow="visible" orient="auto"><path transform="matrix(.4 0 0 .4 4 0)" d="m0 0 5-5-17.5 5 17.5 5z" fill="#00f" fill-rule="evenodd" stroke="#00f" stroke-width="1pt"/></marker><marker id="marker7227" overflow="visible" orient="auto"><path transform="matrix(-.4 0 0 -.4 -4 0)" d="m0 0 5-5-17.5 5 17.5 5z" fill="#00f" fill-rule="evenodd" stroke="#00f" stroke-width="1pt"/></marker><marker id="Arrow1Mstart" overflow="visible" orient="auto"><path transform="matrix(.4 0 0 .4 4 0)" d="m0 0 5-5-17.5 5 17.5 5z" fill="#00f" fill-rule="evenodd" stroke="#00f" stroke-width="1pt"/></marker><marker id="marker5278" overflow="visible" orient="auto"><path transform="matrix(-.4 0 0 -.4 -4 0)" d="m0 0 5-5-17.5 5 17.5 5z" fill="#00f" fill-rule="evenodd" stroke="#00f" stroke-width="1pt"/></marker><marker id="marker7607" overflow="visible" orient="auto"><path transform="matrix(-.8 0 0 -.8 -10 0)" d="m0 0 5-5-17.5 5 17.5 5z" fill="#6d6d6d" fill-rule="evenodd" stroke="#6d6d6d" stroke-width="1pt"/></marker><marker id="marker6391" overflow="visible" orient="auto"><path transform="matrix(.4 0 0 .4 4 0)" d="m0 0 5-5-17.5 5 17.5 5z" fill="#f00" fill-rule="evenodd" stroke="#f00" stroke-width="1pt"/></marker><marker id="marker6527" overflow="visible" orient="auto"><path transform="matrix(-.4 0 0 -.4 -4 0)" d="m0 0 5-5-17.5 5 17.5 5z" fill="#f00" fill-rule="evenodd" stroke="#f00" stroke-width="1pt"/></marker><marker id="marker6753" overflow="visible" orient="auto"><path transform="matrix(.4 0 0 .4 4 0)" d="m0 0 5-5-17.5 5 17.5 5z" fill="#00f" fill-rule="evenodd" stroke="#00f" stroke-width="1pt"/></marker><marker id="marker6901" overflow="visible" orient="auto"><path transform="matrix(-.4 0 0 -.4 -4 0)" d="m0 0 5-5-17.5 5 17.5 5z" fill="#00f" fill-rule="evenodd" stroke="#00f" stroke-width="1pt"/></marker><marker id="marker6395" overflow="visible" orient="auto"><path transform="matrix(-.4 0 0 -.4 -4 0)" d="m0 0 5-5-17.5 5 17.5 5z" fill="#f00" fill-rule="evenodd" stroke="#f00" stroke-width="1pt"/></marker><marker id="marker8009" overflow="visible" orient="auto"><path transform="matrix(-.4 0 0 -.4 -4 0)" d="m0 0 5-5-17.5 5 17.5 5z" fill="#00f" fill-rule="evenodd" stroke="#00f" stroke-width="1pt"/></marker></defs><g transform="translate(107.692 -234.014)"><g shape-rendering="auto"><g stroke="#00f"><path d="m21.6869 258.662v39.7294h39.7294" color="#000000" color-rendering="auto" fill="none" image-rendering="auto" marker="none" marker-end="url(#marker7227)" marker-start="url(#marker7067)" opacity=".4" solid-color="#000000" style="isolation:auto;mix-blend-mode:normal"/><path d="m48.1732 265.284v33.1078m-6.62156-33.1078v33.1078m-6.62156-33.1078v33.1078m-6.62157-33.1078v33.1078m-6.62156-6.62156h33.1078m-33.1078-6.62155h33.1078m-33.1078-6.62157h33.1078m-33.1078-6.62156h33.1078" color="#000000" color-rendering="auto" fill="#fff" image-rendering="auto" opacity=".4" solid-color="#000000" stroke-width=".4" style="isolation:auto;mix-blend-mode:normal"/><path d="m-16.4039 280.812v39.7294h39.7294" color="#000000" color-rendering="auto" fill="none" image-rendering="auto" marker="none" marker-end="url(#marker5278)" marker-start="url(#Arrow1Mstart)" opacity=".2" solid-color="#000000" style="isolation:auto;mix-blend-mode:normal"/><path d="m10.0823 287.433v33.1078m-6.62156-33.1078v33.1078m-6.62156-33.1078v33.1078m-6.62157-33.1078v33.1078m-6.62156-6.62156h33.1078m-33.1078-6.62155h33.1078m-33.1078-6.62157h33.1078m-33.1078-6.62156h33.1078" color="#000000" color-rendering="auto" fill="#fff" image-rendering="auto" opacity=".2" solid-color="#000000" stroke-width=".4" style="isolation:auto;mix-blend-mode:normal"/></g><g><path d="m-104.653 371.857 164.431-95.615" color="#000000" color-rendering="auto" fill="none" image-rendering="auto" marker-end="url(#marker7607)" solid-color="#000000" stroke="#6d6d6d" style="isolation:auto;mix-blend-mode:normal"/><path d="m-104.653 332.128v39.7294h39.7294" color="#000000" color-rendering="auto" fill="none" image-rendering="auto" marker="none" marker-end="url(#marker6527)" marker-start="url(#marker6391)" solid-color="#000000" stroke="#f00" style="isolation:auto;mix-blend-mode:normal"/><path d="m-78.1667 338.749v33.1078m-6.62156-33.1078v33.1078m-6.62156-33.1078v33.1078m-6.62157-33.1078v33.1078m-6.62157-6.62156h33.1078m-33.1078-6.62155h33.1078m-33.1078-6.62157h33.1078m-33.1078-6.62156h33.1078" color="#000000" color-rendering="auto" fill="#fff" image-rendering="auto" solid-color="#000000" stroke="#f00" stroke-width=".4" style="isolation:auto;mix-blend-mode:normal"/><path d="m59.7777 236.513v39.7294h39.7294" color="#000000" color-rendering="auto" fill="none" image-rendering="auto" marker="none" marker-end="url(#marker6901)" marker-start="url(#marker6753)" solid-color="#000000" stroke="#00f" style="isolation:auto;mix-blend-mode:normal"/><path d="m86.264 243.134v33.1078m-6.62156-33.1078v33.1078m-6.62156-33.1078v33.1078m-6.62157-33.1078v33.1078m-6.62156-6.62156h33.1078m-33.1078-6.62155h33.1078m-33.1078-6.62157h33.1078m-33.1078-6.62156h33.1078" color="#000000" color-rendering="auto" fill="#fff" image-rendering="auto" solid-color="#000000" stroke="#00f" stroke-width=".4" style="isolation:auto;mix-blend-mode:normal"/></g><path d="m-104.653 371.857 149.952-25.5428" color="#000000" color-rendering="auto" fill="none" image-rendering="auto" marker-end="url(#marker6395)" solid-color="#000000" stroke="#f00" stroke-linecap="round" stroke-width="3" style="isolation:auto;mix-blend-mode:normal"/><path d="m59.7777 276.242-7.84058 62.6579" color="#000000" color-rendering="auto" fill="none" image-rendering="auto" marker-end="url(#marker8009)" solid-color="#000000" stroke="#00f" stroke-linecap="round" stroke-width="3" style="isolation:auto;mix-blend-mode:normal"/><circle cx="51.0965" cy="344.873" r="5.95152" color="#000000" color-rendering="auto" image-rendering="auto" solid-color="#000000" stroke="#fff" style="isolation:auto;mix-blend-mode:normal"/></g><g stroke-width="1.5"><path d="m-93.1438 323.9c-0.018-0.054-0.09-0.198-0.09-0.252 0-0.018 0.018-0.036 0.324-0.27l1.746-1.368c2.412-1.872 3.204-2.502 4.446-2.61 0.126-0.018 0.306-0.018 0.306-0.324 0-0.108-0.054-0.198-0.198-0.198-0.198 0-0.414 0.036-0.612 0.036h-0.684c-0.558 0-1.152-0.036-1.692-0.036-0.126 0-0.342 0-0.342 0.324 0 0.18 0.126 0.198 0.234 0.198 0.198 0.018 0.432 0.09 0.432 0.342 0 0.36-0.54 0.792-0.684 0.9l-7.056 5.49 1.494-5.94c0.162-0.612 0.198-0.792 1.476-0.792 0.342 0 0.504 0 0.504-0.342 0-0.18-0.18-0.18-0.27-0.18-0.324 0-0.702 0.036-1.044 0.036h-2.124c-0.324 0-0.72-0.036-1.044-0.036-0.144 0-0.342 0-0.342 0.342 0 0.18 0.162 0.18 0.432 0.18 1.098 0 1.098 0.144 1.098 0.342 0 0.036 0 0.144-0.072 0.414l-2.43 9.684c-0.162 0.63-0.198 0.81-1.458 0.81-0.342 0-0.522 0-0.522 0.324 0 0.198 0.162 0.198 0.27 0.198 0.342 0 0.702-0.036 1.044-0.036h2.106c0.342 0 0.72 0.036 1.062 0.036 0.144 0 0.342 0 0.342-0.342 0-0.18-0.162-0.18-0.432-0.18-1.098 0-1.098-0.144-1.098-0.324 0-0.126 0.108-0.576 0.18-0.864l0.702-2.79 2.736-2.142c0.522 1.152 1.476 3.456 2.214 5.22 0.054 0.108 0.09 0.216 0.09 0.342 0 0.54-0.72 0.558-0.882 0.558s-0.342 0-0.342 0.342c0 0.18 0.198 0.18 0.252 0.18 0.63 0 1.296-0.036 1.926-0.036h0.864c0.27 0 0.576 0.036 0.846 0.036 0.108 0 0.306 0 0.306-0.342 0-0.18-0.162-0.18-0.342-0.18-0.666-0.018-0.9-0.162-1.17-0.81z" fill="#f00"/><path d="m42.6337 241.383c-0.018-0.054-0.09-0.198-0.09-0.252 0-0.018 0.018-0.036 0.324-0.27l1.746-1.368c2.412-1.872 3.204-2.502 4.446-2.61 0.126-0.018 0.306-0.018 0.306-0.324 0-0.108-0.054-0.198-0.198-0.198-0.198 0-0.414 0.036-0.612 0.036h-0.684c-0.558 0-1.152-0.036-1.692-0.036-0.126 0-0.342 0-0.342 0.324 0 0.18 0.126 0.198 0.234 0.198 0.198 0.018 0.432 0.09 0.432 0.342 0 0.36-0.54 0.792-0.684 0.9l-7.056 5.49 1.494-5.94c0.162-0.612 0.198-0.792 1.476-0.792 0.342 0 0.504 0 0.504-0.342 0-0.18-0.18-0.18-0.27-0.18-0.324 0-0.702 0.036-1.044 0.036h-2.124c-0.324 0-0.72-0.036-1.044-0.036-0.144 0-0.342 0-0.342 0.342 0 0.18 0.162 0.18 0.432 0.18 1.098 0 1.098 0.144 1.098 0.342 0 0.036 0 0.144-0.072 0.414l-2.43 9.684c-0.162 0.63-0.198 0.81-1.458 0.81-0.342 0-0.522 0-0.522 0.324 0 0.198 0.162 0.198 0.27 0.198 0.342 0 0.702-0.036 1.044-0.036h2.106c0.342 0 0.72 0.036 1.062 0.036 0.144 0 0.342 0 0.342-0.342 0-0.18-0.162-0.18-0.432-0.18-1.098 0-1.098-0.144-1.098-0.324 0-0.126 0.108-0.576 0.18-0.864l0.702-2.79 2.736-2.142c0.522 1.152 1.476 3.456 2.214 5.22 0.054 0.108 0.09 0.216 0.09 0.342 0 0.54-0.72 0.558-0.882 0.558s-0.342 0-0.342 0.342c0 0.18 0.198 0.18 0.252 0.18 0.63 0 1.296-0.036 1.926-0.036h0.864c0.27 0 0.576 0.036 0.846 0.036 0.108 0 0.306 0 0.306-0.342 0-0.18-0.162-0.18-0.342-0.18-0.666-0.018-0.9-0.162-1.17-0.81z" fill="#00f"/><path d="m53.1007 235.534c0.06-0.156 0.108-0.24 0.108-0.36 0-0.396-0.36-0.66-0.696-0.66-0.48 0-0.612 0.42-0.66 0.588l-1.524 5.172c-0.048 0.144-0.048 0.18-0.048 0.192 0 0.108 0.072 0.132 0.192 0.168 0.216 0.096 0.24 0.096 0.264 0.096 0.036 0 0.108 0 0.192-0.204z" fill="#00f"/><path d="m30.9352 364.471c-0.648 0.18-0.972 0.792-0.972 1.242 0 0.396 0.306 0.828 0.9 0.828 0.63 0 1.296-0.522 1.296-1.404 0-0.954-0.954-1.584-2.052-1.584-1.026 0-1.692 0.774-1.926 1.098-0.45-0.756-1.458-1.098-2.484-1.098-2.268 0-3.492 2.214-3.492 2.808 0 0.252 0.27 0.252 0.432 0.252 0.216 0 0.342 0 0.414-0.234 0.522-1.638 1.818-2.178 2.556-2.178 0.684 0 1.008 0.324 1.008 0.9 0 0.342-0.252 1.332-0.414 1.98l-0.612 2.466c-0.27 1.098-0.918 1.638-1.53 1.638-0.09 0-0.504 0-0.864-0.27 0.648-0.18 0.972-0.792 0.972-1.242 0-0.396-0.306-0.828-0.9-0.828-0.63 0-1.296 0.522-1.296 1.404 0 0.954 0.954 1.584 2.052 1.584 1.026 0 1.692-0.774 1.926-1.098 0.45 0.756 1.458 1.098 2.484 1.098 2.268 0 3.492-2.214 3.492-2.808 0-0.252-0.27-0.252-0.432-0.252-0.216 0-0.342 0-0.414 0.234-0.522 1.638-1.818 2.178-2.556 2.178-0.684 0-1.008-0.324-1.008-0.9 0-0.378 0.234-1.332 0.396-1.998 0.126-0.468 0.54-2.16 0.63-2.448 0.27-1.08 0.9-1.638 1.53-1.638 0.09 0 0.504 0 0.864 0.27z" fill="#f00"/></g><path d="m-54.6672 325.723h1.656c0.342 0 0.522 0 0.522-0.324 0-0.198-0.108-0.198-0.468-0.198h-1.584l0.666-2.628c0.072-0.252 0.072-0.288 0.072-0.414 0-0.288-0.234-0.45-0.468-0.45-0.144 0-0.558 0.054-0.702 0.63l-0.702 2.862h-1.692c-0.36 0-0.522 0-0.522 0.342 0 0.18 0.126 0.18 0.468 0.18h1.602l-1.188 4.752c-0.144 0.63-0.198 0.81-0.198 1.044 0 0.846 0.594 1.62 1.602 1.62 1.818 0 2.79-2.628 2.79-2.754 0-0.108-0.072-0.162-0.18-0.162-0.036 0-0.108 0-0.144 0.072-0.018 0.018-0.036 0.036-0.162 0.324-0.378 0.9-1.206 2.16-2.25 2.16-0.54 0-0.576-0.45-0.576-0.846 0-0.018 0-0.36 0.054-0.576z" stroke-width="1.5"/><path d="m-42.1828 326.443c0-1.638-1.206-1.638-1.224-1.638-0.72 0-1.368 0.756-1.368 1.368 0 0.504 0.378 0.72 0.54 0.81 0.756 0.45 0.9 0.774 0.9 1.134 0 0.396-1.044 4.338-3.15 4.338-1.296 0-1.296-1.08-1.296-1.404 0-1.044 0.504-2.358 1.08-3.798 0.144-0.36 0.198-0.522 0.198-0.81 0-1.044-1.044-1.62-2.034-1.62-1.908 0-2.808 2.448-2.808 2.808 0 0.252 0.27 0.252 0.432 0.252 0.216 0 0.342 0 0.414-0.234 0.576-1.944 1.53-2.178 1.854-2.178 0.126 0 0.306 0 0.306 0.378 0 0.414-0.216 0.936-0.27 1.08-0.828 2.088-1.098 2.898-1.098 3.762 0 1.908 1.548 2.412 3.114 2.412 3.096 0 4.41-5.112 4.41-6.66z" stroke-width="1.5"/><path d="m77.2715 319.46c-0.648 0.18-0.972 0.792-0.972 1.242 0 0.396 0.306 0.828 0.9 0.828 0.63 0 1.296-0.522 1.296-1.404 0-0.954-0.954-1.584-2.052-1.584-1.026 0-1.692 0.774-1.926 1.098-0.45-0.756-1.458-1.098-2.484-1.098-2.268 0-3.492 2.214-3.492 2.808 0 0.252 0.27 0.252 0.432 0.252 0.216 0 0.342 0 0.414-0.234 0.522-1.638 1.818-2.178 2.556-2.178 0.684 0 1.008 0.324 1.008 0.9 0 0.342-0.252 1.332-0.414 1.98l-0.612 2.466c-0.27 1.098-0.918 1.638-1.53 1.638-0.09 0-0.504 0-0.864-0.27 0.648-0.18 0.972-0.792 0.972-1.242 0-0.396-0.306-0.828-0.9-0.828-0.63 0-1.296 0.522-1.296 1.404 0 0.954 0.954 1.584 2.052 1.584 1.026 0 1.692-0.774 1.926-1.098 0.45 0.756 1.458 1.098 2.484 1.098 2.268 0 3.492-2.214 3.492-2.808 0-0.252-0.27-0.252-0.432-0.252-0.216 0-0.342 0-0.414 0.234-0.522 1.638-1.818 2.178-2.556 2.178-0.684 0-1.008-0.324-1.008-0.9 0-0.378 0.234-1.332 0.396-1.998 0.126-0.468 0.54-2.16 0.63-2.448 0.27-1.08 0.9-1.638 1.53-1.638 0.09 0 0.504 0 0.864 0.27z" color="#000000" color-rendering="auto" fill="#00f" image-rendering="auto" shape-rendering="auto" solid-color="#000000" stroke-width="1.2" style="isolation:auto;mix-blend-mode:normal"/><path d="m82.667 313.558c0.06-0.156 0.108-0.24 0.108-0.36 0-0.396-0.36-0.66-0.696-0.66-0.48 0-0.612 0.42-0.66 0.588l-1.524 5.172c-0.048 0.144-0.048 0.18-0.048 0.192 0 0.108 0.072 0.132 0.192 0.168 0.216 0.096 0.24 0.096 0.264 0.096 0.036 0 0.108 0 0.192-0.204z" color="#000000" color-rendering="auto" fill="#00f" image-rendering="auto" shape-rendering="auto" solid-color="#000000" stroke-width="1.2" style="isolation:auto;mix-blend-mode:normal"/></g></svg>
