<?xml version="1.0" encoding="UTF-8"?>
<svg width="163.605" height="83.165" version="1.1" viewBox="0 0 163.60552 83.164984" xmlns="http://www.w3.org/2000/svg">
 <path d="m162.93 53.7936c-4.30298-0.765399-8.33084 1.59161-10.9466 4.86256-4.44997 4.6939-7.15098 11.2171-12.8749 14.5705-4.23575 1.93475-7.91292-2.10065-11.2305-4.15978-3.3397-2.65729-8.32821-3.60533-11.8818-0.799305-5.48308 3.6699-8.29388 10.5183-14.4434 13.2564-4.69529 0.980431-7.87283-3.54209-11.0773-6.18885-3.13126-3.11556-7.89653-6.0564-12.3088-3.71704-5.34354 2.35186-8.28107 8.43185-14.0015 10.0221-4.55621 0.402822-7.39599-4.05285-10.1872-6.96043-3.35583-3.76427-7.28659-8.9021-12.9638-8.0412-5.66175 0.796393-9.04857 6.99644-14.868 7.13742-5.03094-1.14243-7.60344-6.25503-10.6145-9.97081-3.23102-4.19038-6.6527-9.67674-12.472-10.0739-0.844983 0.02027-1.68995 0.04102-2.53491 0.0623" clip-path="url(#p825fbd034e)" color="#000000" color-rendering="auto" fill="none" image-rendering="auto" shape-rendering="auto" solid-color="#000000" stroke="#f00" stroke-width="2" style="isolation:auto;mix-blend-mode:normal;text-decoration-color:#000000;text-decoration-line:none;text-decoration-style:solid;text-indent:0;text-transform:none;white-space:normal"/>
 <circle transform="rotate(-26.402)" cx="1.29479" cy="77.6544" r="5.00001" color="#000000" fill="#5e5bff"/>
 <g transform="matrix(1.6 0 0 1.6 -308.261 -102.078)" stroke-linejoin="round" stroke-miterlimit="1e5">
  <path d="m202.884 83.7053c0.0478-0.16737 0.0478-0.19128 0.0478-0.27497 0-0.21519-0.16737-0.32279-0.3467-0.32279-0.11955 0-0.31083 0.07173-0.41843 0.25106-0.0239 0.05978-0.11955 0.43039-0.16737 0.645581-0.0837 0.31083-0.16737 0.63362-0.2391 0.956411l-0.53799 2.15193c-0.0478 0.179331-0.56189 1.01619-1.35093 1.01619-0.60971 0-0.74122-0.526028-0.74122-0.968374 0-0.549931 0.20324-1.29115 0.60971-2.34321 0.19129-0.490161 0.23911-0.621671 0.23911-0.860771 0-0.537981-0.38257-0.980321-0.98033-0.980321-1.13574 0-1.57808 1.7335-1.57808 1.84109 0 0.11955 0.11955 0.11955 0.14346 0.11955 0.11955 0 0.1315-0.02391 0.19128-0.215191 0.32279-1.12379 0.801-1.48244 1.20748-1.48244 0.0956 0 0.29888 0 0.29888 0.38256 0 0.298881-0.11956 0.609721-0.20324 0.836871-0.47821 1.26724-0.6934 1.94869-0.6934 2.51058 0 1.06401 0.75317 1.42267 1.45853 1.42267 0.46625 0 0.87273-0.203238 1.20747-0.537983-0.15542 0.621669-0.29888 1.20747-0.77709 1.8411-0.31083 0.40648-0.76513 0.75318-1.31506 0.75318-0.16738 0-0.70536-0.03587-0.9086-0.50212 0.19129 0 0.3467 0 0.51408-0.14346 0.11955-0.1076 0.2391-0.263021 0.2391-0.490171 0-0.370605-0.32279-0.418426-0.44234-0.418426-0.27497 0-0.6695 0.191283-0.6695 0.777087 0 0.59776 0.52604 1.0401 1.26726 1.0401 1.23138 0 2.46276-1.08792 2.79751-2.43886z"/>
  <path d="m214.876 84.3509c0.17933 0 0.40648 0 0.40648-0.2391s-0.22715-0.23911-0.39452-0.23911h-7.16115c-0.16738 0-0.39453 0-0.39453 0.23911s0.22715 0.2391 0.40649 0.2391zm0.012 2.3193c0.16737 0 0.39452 0 0.39452-0.2391s-0.22715-0.2391-0.40648-0.2391h-7.13723c-0.17934 0-0.40649 0-0.40649 0.2391s0.22715 0.2391 0.39453 0.2391z"/>
  <path d="m223.636 83.4782h1.02814c0.2391 0 0.35866 0 0.35866-0.2391 0-0.13151-0.11956-0.13151-0.32279-0.13151h-0.99228l0.25106-1.36289c0.0478-0.25106 0.21519-1.09987 0.28692-1.24333 0.1076-0.22715 0.31083-0.40648 0.56189-0.40648 0.0478 0 0.35866 0 0.58581 0.21519-0.52603 0.04782-0.64558 0.46625-0.64558 0.64558 0 0.274971 0.21519 0.418431 0.44234 0.418431 0.31083 0 0.65753-0.26301 0.65753-0.717311 0-0.54993-0.54993-0.824901-1.0401-0.824901-0.40647 0-1.15965 0.215191-1.5183 1.39875-0.0717 0.25106-0.1076 0.37061-0.39453 1.87696h-0.82491c-0.22715 0-0.35866 0-0.35866 0.22715 0 0.14346 0.1076 0.14346 0.33475 0.14346h0.78904l-0.89664 4.7223c-0.21519 1.15966-0.41843 2.24758-1.0401 2.24758-0.0478 0-0.3467 0-0.57384-0.2152 0.54993-0.03586 0.65753-0.46625 0.65753-0.64558 0-0.274971-0.21519-0.418428-0.44234-0.418428-0.31083 0-0.65753 0.263017-0.65753 0.717308 0 0.53799 0.52602 0.824911 1.01618 0.824911 0.65754 0 1.13574-0.705361 1.35094-1.15965 0.38256-0.753177 0.65753-2.19976 0.66949-2.28344z"/>
  <path d="m232.315 91.1295c0-0.03587 0-0.05978-0.20324-0.26301-1.4944-1.50635-1.87697-3.76588-1.87697-5.59503 0-2.0802 0.4543-4.1604 1.92479-5.65481 0.15542-0.14346 0.15542-0.16737 0.15542-0.20323 0-0.08369-0.0478-0.11956-0.11955-0.11956-0.11955 0-1.19553 0.812961-1.90088 2.33126-0.60972 1.31507-0.75318 2.64209-0.75318 3.64633 0 0.932501 0.13151 2.37908 0.78904 3.73001 0.71731 1.47049 1.74547 2.24757 1.86502 2.24757 0.0717 0 0.11955-0.03586 0.11955-0.11955z"/>
  <path d="m235.471 83.4782h1.12379c0.2391 0 0.35866 0 0.35866-0.2391 0-0.13151-0.11956-0.13151-0.33475-0.13151h-1.05205c0.43038-1.69763 0.49016-1.93673 0.49016-2.00847 0-0.203231-0.14346-0.322791-0.3467-0.322791-0.0359 0-0.37061 0.01196-0.47821 0.430391l-0.46625 1.90087h-1.12379c-0.2391 0-0.35866 0-0.35866 0.22715 0 0.14346 0.0957 0.14346 0.33475 0.14346h1.05206c-0.86078 3.39527-0.9086 3.59851-0.9086 3.8137 0 0.64558 0.4543 1.09988 1.09988 1.09988 1.21943 0 1.90087-1.74546 1.90087-1.8411 0-0.11955-0.0956-0.11955-0.14346-0.11955-0.1076 0-0.11955 0.03586-0.17933 0.16737-0.51407 1.24334-1.14769 1.53026-1.55417 1.53026-0.25106 0-0.37061-0.155417-0.37061-0.549939 0-0.286924 0.0239-0.370605 0.0717-0.573845z"/>
  <path d="m239.736 88.2483c0-0.789042-0.29888-1.2553-0.76513-1.2553-0.39452 0-0.63363 0.298881-0.63363 0.633626 0 0.322791 0.23911 0.633625 0.63363 0.633625 0.14346 0 0.29888-0.04782 0.41843-0.155417 0.0359-0.02391 0.0478-0.03587 0.0598-0.03587s0.0239 0.01196 0.0239 0.179328c0 0.884683-0.41844 1.602-0.81296 1.99652-0.1315 0.1315-0.1315 0.15542-0.1315 0.19128 0 0.08369 0.0598 0.131511 0.11955 0.131511 0.13151 0 1.08792-0.920551 1.08792-2.31931z"/>
  <path d="m246.603 84.6498c0.0717-0.31084 0.34671-1.41071 1.18357-1.41071 0.0598 0 0.3467 0 0.59776 0.15542-0.33475 0.05977-0.57385 0.35865-0.57385 0.645581 0 0.19128 0.1315 0.41843 0.45429 0.41843 0.26302 0 0.64558-0.2152 0.64558-0.693401 0-0.62167-0.70535-0.78904-1.11183-0.78904-0.6934 0-1.11184 0.63362-1.2553 0.908591-0.29888-0.789041-0.94446-0.908591-1.29116-0.908591-1.24334 0-1.92478 1.54221-1.92478 1.84109 0 0.11955 0.11955 0.11955 0.14346 0.11955 0.0956 0 0.13151-0.02391 0.15542-0.131501 0.40648-1.26725 1.19552-1.56613 1.60199-1.56613 0.22715 0 0.64558 0.1076 0.64558 0.801001 0 0.37061-0.20324 1.1716-0.64558 2.84533-0.19128 0.741216-0.60971 1.24333-1.13574 1.24333-0.0717 0-0.3467 0-0.59776-0.155417 0.29888-0.05978 0.5619-0.310834 0.5619-0.64558 0-0.322787-0.26302-0.418427-0.44235-0.418427-0.35865 0-0.65753 0.31083-0.65753 0.693396 0 0.549938 0.59776 0.789042 1.12379 0.789042 0.78904 0 1.21942-0.836863 1.25529-0.908594 0.14346 0.442342 0.57385 0.908594 1.29116 0.908594 1.23139 0 1.91283-1.54222 1.91283-1.8411 0-0.11955-0.10759-0.11955-0.14346-0.11955-0.1076 0-0.13151 0.04782-0.15542 0.13151-0.39452 1.2792-1.20747 1.56612-1.59004 1.56612-0.46625 0-0.65754-0.382565-0.65754-0.789042 0-0.263012 0.0717-0.526032 0.20324-1.05205z"/>
  <path d="m252.872 85.2715c0-0.932511-0.1315-2.37908-0.78904-3.73001-0.71731-1.47049-1.74545-2.24758-1.86501-2.24758-0.0717 0-0.11955 0.04782-0.11955 0.11956 0 0.03586 0 0.05977 0.22715 0.27496 1.17161 1.18357 1.85305 3.08444 1.85305 5.58308 0 2.04433-0.44234 4.14844-1.92478 5.6548-0.15542 0.14346-0.15542 0.16737-0.15542 0.20324 0 0.07173 0.0478 0.11955 0.11955 0.11955 0.11956 0 1.19552-0.812951 1.90088-2.33126 0.60971-1.31507 0.75317-2.6421 0.75317-3.64633z"/>
 </g>
 <path d="m129.438 54.1869 5.96023-12.9391-4.71683 1.91373v-25.7274h-2.59985v25.6988l-4.71684-1.88517z" color="#000000" fill="#f00" stroke-width=".999999" style="text-decoration-line:none;text-indent:0;text-transform:none"/>
 <path d="m134.094 2.06592c0.072-0.288 0.072-0.396 0.072-0.468 0-0.576-0.468-0.791999-0.84599-0.791999-0.36 0-0.684 0.162-0.918 0.431999-0.25201-0.269999-0.846-0.737999-1.908-0.737999-3.186 0-5.058 2.844-5.058 5.202 0 2.124 1.602 2.934 3.15 2.934 0.936 0 1.656-0.36 1.98-0.558-0.108 0.45-0.216 0.899999-0.342 1.35-0.126 0.521999-0.252 1.062-0.882 1.566-0.756 0.63-1.35 0.63-1.836 0.63-0.432 0-0.756 0-1.224-0.072 0.522-0.378 0.558-0.971999 0.558-1.044 0-0.396-0.306-0.827999-0.9-0.827999s-1.278 0.503999-1.278 1.332c0 1.188 1.584 1.26 2.862 1.26 1.62 0 4.104-0.378 4.64399-2.538zm-3.14999 4.536c-0.072 0.252-0.072 0.324-0.288 0.522-0.954 0.863999-1.8 0.863999-1.962 0.863999-0.702 0-1.224-0.396-1.224-1.35 0-0.863999 0.594-3.024 0.864-3.69 0.63-1.548 1.656-1.8 2.196-1.8 1.116 0 1.512 0.882 1.512 1.008 0 0.036 0 0.072-0.054 0.269999z" fill="#f00" stroke-width="1.5"/>
</svg>
