<?xml version="1.0" encoding="UTF-8"?>
<svg width="162.533" height="126.355" version="1.1" viewBox="0 0 162.53326 126.35534" xmlns="http://www.w3.org/2000/svg" xmlns:xlink="http://www.w3.org/1999/xlink">
 <defs>
  <marker id="Arrow1Lend" overflow="visible" orient="auto">
   <path transform="matrix(-.8 0 0 -.8 -10 0)" d="m0 0 5-5-17.5 5 17.5 5z" fill-rule="evenodd" stroke="#000" stroke-width="1pt"/>
  </marker>
  <symbol id="symbol4904">
   <path d="m49.2256 43.387c0.018-0.072 0.054-0.18 0.054-0.27 0-0.18-0.18-0.18-0.216-0.18-0.018 0-0.666 0.054-0.99 0.09-0.306 0.018-0.576 0.054-0.9 0.072-0.432 0.036-0.558 0.054-0.558 0.378 0 0.18 0.18 0.18 0.36 0.18 0.918 0 0.918 0.162 0.918 0.342 0 0.072 0 0.108-0.09 0.432l-2.232 8.92799c-0.054 0.198-0.09 0.342-0.09 0.63 0 0.90001 0.666 1.62 1.584 1.62 0.594 0 0.99-0.39599 1.278-0.95399 0.306-0.59401 0.558-1.728 0.558-1.8 0-0.09-0.072-0.16201-0.18-0.16201-0.162 0-0.18 0.09-0.252 0.36001-0.324 1.242-0.648 2.19599-1.368 2.19599-0.54 0-0.54-0.57599-0.54-0.828 0-0.072 0-0.44999 0.126-0.954z" stroke-width="1.5"/>
  </symbol>
  <symbol id="symbol4911">
   <path d="m30.7841 59.497c0-1.836-0.576-3.618-2.052-3.618-2.52 0-5.202 5.274-5.202 9.23399 0 0.828 0.18 3.61801 2.07 3.61801 2.448 0 5.184-5.148 5.184-9.234zm-5.454 2.538c0.27-1.062 0.648-2.574 1.368-3.852 0.594-1.08 1.224-1.944 2.016-1.944 0.594 0 0.99 0.504 0.99 2.232 0 0.648-0.054 1.548-0.576 3.564zm3.672 0.54c-0.45 1.76399-0.828 2.89799-1.476 4.03199-0.522 0.918-1.152 1.764-1.908 1.764-0.558 0-1.008-0.432-1.008-2.214 0-1.17 0.288-2.39399 0.576-3.58199z" stroke-width="1.5"/>
  </symbol>
  <symbol id="symbol4920">
   <path d="m42.5416 86.295c0.036-0.108 0.486-1.008 1.152-1.584 0.468-0.432 1.08-0.72 1.782-0.72 0.72 0 0.972 0.54 0.972 1.26 0 0.108 0 0.468-0.216 1.314l-0.45 1.85399c-0.144 0.54001-0.486 1.87201-0.522 2.07-0.072 0.27-0.18 0.738-0.18 0.81 0 0.25201 0.198 0.45 0.468 0.45 0.54 0 0.63-0.414 0.792-1.062l1.08-4.30199c0.036-0.144 0.972-2.394 2.952-2.394 0.72 0 0.972 0.54 0.972 1.26 0 1.008-0.702 2.96999-1.098 4.05-0.162 0.432-0.252 0.66599-0.252 0.99 0 0.80999 0.558 1.45799 1.422 1.45799 1.674 0 2.304-2.646 2.304-2.754 0-0.09-0.072-0.162-0.18-0.162-0.162 0-0.18 0.054-0.27 0.36-0.414 1.44-1.08 2.196-1.8 2.196-0.18 0-0.468-0.018-0.468-0.594 0-0.468 0.216-1.044 0.288-1.242 0.324-0.864 1.134-2.98799 1.134-4.03199 0-1.08-0.63-1.89-1.998-1.89-1.206 0-2.178 0.684-2.898 1.746-0.054-0.972-0.648-1.746-1.998-1.746-1.602 0-2.448 1.134-2.772 1.584-0.054-1.026-0.792-1.584-1.584-1.584-0.522 0-0.936 0.252-1.278 0.936-0.324 0.648-0.576 1.746-0.576 1.818s0.072 0.162 0.198 0.162c0.144 0 0.162-0.018 0.27-0.432 0.27-1.062 0.612-2.124 1.332-2.124 0.414 0 0.558 0.288 0.558 0.828 0 0.396-0.18 1.098-0.306 1.656l-0.504 1.94399c-0.072 0.342-0.27 1.152-0.36 1.476-0.126 0.46801-0.324 1.31401-0.324 1.404 0 0.25201 0.198 0.45 0.468 0.45 0.216 0 0.468-0.108 0.612-0.378 0.036-0.09 0.198-0.71999 0.288-1.07999l0.396-1.62z" stroke-width="1.5"/>
  </symbol>
  <symbol id="symbol4931">
   <path d="m53.6716 50.485c0-0.324-0.024-0.336-0.348-0.336-0.492 0.48-1.128 0.768-2.268 0.768v0.396c0.324 0 0.972 0 1.668-0.324v6.156c0 0.444-0.036 0.588-1.176 0.588h-0.42v0.396c0.492-0.036 1.524-0.036 2.064-0.036s1.584 0 2.076 0.036v-0.396h-0.42c-1.14 0-1.176-0.144-1.176-0.588z" stroke-width="1.5"/>
  </symbol>
  <symbol id="symbol4944">
   <path d="m92.3769 80.368c0.192-0.18 0.696-0.576 0.888-0.744 0.744-0.684 1.452-1.344 1.452-2.436 0-1.428-1.2-2.352-2.7-2.352-1.44 0-2.388 1.092-2.388 2.16 0 0.588 0.468 0.672 0.636 0.672 0.252 0 0.624-0.18 0.624-0.636 0-0.624-0.6-0.624-0.744-0.624 0.348-0.876 1.152-1.176 1.74-1.176 1.116 0 1.692 0.948 1.692 1.956 0 1.248-0.876 2.16-2.292 3.612l-1.512 1.56c-0.144 0.132-0.144 0.156-0.144 0.456h4.74l0.348-2.148h-0.372c-0.036 0.24-0.132 0.84-0.276 1.068-0.072 0.096-0.984 0.096-1.176 0.096h-2.136z" stroke-width="1.5"/>
  </symbol>
 </defs>
 <path d="m71.5498 117.206v-45.6551" fill="none" stroke="#000" stroke-dasharray="1.99999739, 1.99999739" stroke-linejoin="round" stroke-miterlimit="1e5" stroke-width=".499999"/>
 <path d="m24.9437 28.8186 46.8561 56.7263 44.0174 5.48007" fill="none" stroke="#000" stroke-linecap="round"/>
 <path d="m156.073 89.8246 5.96024-12.9391-4.71684 1.91373v-25.7274h-2.59985v25.6988l-4.71684-1.88517z" color="#000000" fill="#f00" style="text-decoration-line:none;text-indent:0;text-transform:none"/>
 <path d="m160.729 37.7036c0.072-0.288 0.072-0.396 0.072-0.468 0-0.576-0.468-0.792-0.846-0.792-0.36 0-0.684 0.162-0.918 0.432-0.252-0.27-0.846-0.738-1.908-0.738-3.186 0-5.058 2.844-5.058 5.202 0 2.124 1.602 2.934 3.15 2.934 0.936 0 1.656-0.36 1.98-0.558-0.108 0.45-0.216 0.9-0.342 1.35-0.126 0.522-0.252 1.062-0.882 1.566-0.756 0.63-1.35 0.63-1.836 0.63-0.432 0-0.756 0-1.224-0.072 0.522-0.378 0.558-0.972 0.558-1.044 0-0.396-0.306-0.828-0.9-0.828s-1.278 0.504-1.278 1.332c0 1.188 1.584 1.26 2.862 1.26 1.62 0 4.104-0.378 4.644-2.538zm-3.15 4.536c-0.072 0.252-0.072 0.324-0.288 0.522-0.954 0.864-1.8 0.864-1.962 0.864-0.702 0-1.224-0.396-1.224-1.35 0-0.864 0.594-3.024 0.864-3.69 0.63-1.548 1.656-1.8 2.196-1.8 1.116 0 1.512 0.882 1.512 1.008 0 0.036 0 0.072-0.054 0.27z" fill="#f00" stroke-width="1.5"/>
 <g fill="none" stroke="#000">
  <path d="m41.8775 49.2876a26.0576 26.0576 0 0 1 -17.0329 5.95981" color="#000000" stroke-width=".500001"/>
  <path d="m85.6157 87.4506a13.9463 13.9463 0 0 1 -14.0292 12.0416" color="#000000" stroke-width=".500001"/>
  <path d="m24.9437 125.855v-124.385" marker-end="url(#Arrow1Lend)" stroke-width=".5"/>
  <path d="m0.500001 28.8186h142.693" marker-end="url(#Arrow1Lend)" stroke-width=".5"/>
 </g>
 <g stroke-linejoin="round" stroke-miterlimit="1e5">
  <path d="m21.1358 17.0746c0-3.06001-2.12401-4.64402-5.23801-4.64402-5.56202 0-8.47803 4.77002-8.47803 8.37003 0 3.15001 2.25001 4.59001 5.25602 4.59001 5.52601 0 8.46002-4.60801 8.46002-8.31602zm-8.28002 7.56002c-0.59401 0-1.42201-0.126-2.10601-0.828-0.792-0.792-0.792-1.998-0.792-2.412 0-1.13401 0.54-4.50002 2.016-6.35402 1.20601-1.47601 2.70001-1.89001 3.74401-1.89001 1.49401 0 2.97001 0.81 2.97001 3.09601 0 1.17-0.648 4.32001-1.818 6.01202-1.35001 1.98-2.98801 2.376-4.01401 2.376z" stroke-width="1.5"/>
  <ellipse transform="rotate(-26.402)" cx="26.2716" cy="108.55" rx="5.00001" ry="5" color="#000000" fill="#5e5bff"/>
  <ellipse transform="rotate(-26.402)" cx="63.2612" cy="133.031" rx="7.50001" ry="7.50001" color="#000000" fill="#5e5bff"/>
 </g>
 <use transform="translate(7.81173 .970589)" width="100%" height="100%" xlink:href="#symbol4904"/>
 <use transform="translate(46.901 25.6576)" width="100%" height="100%" xlink:href="#symbol4904"/>
 <use transform="translate(7.81173 .970589)" width="100%" height="100%" xlink:href="#symbol4911"/>
 <use transform="translate(57.7718 42.0066)" width="100%" height="100%" xlink:href="#symbol4911"/>
 <use transform="translate(7.81173 .970589)" width="100%" height="100%" xlink:href="#symbol4920"/>
 <use transform="translate(82.6404 13.5366)" width="100%" height="100%" xlink:href="#symbol4920"/>
 <use transform="translate(7.81173 .970589)" width="100%" height="100%" xlink:href="#symbol4931"/>
 <use transform="translate(-11.0678 14.0926)" width="100%" height="100%" xlink:href="#symbol4931"/>
 <use transform="translate(12.1572 37.1106)" width="100%" height="100%" xlink:href="#symbol4931"/>
 <use transform="translate(7.81173 .970589)" width="100%" height="100%" xlink:href="#symbol4944"/>
 <use transform="translate(-.198471 30.4416)" width="100%" height="100%" xlink:href="#symbol4944"/>
 <use transform="translate(47.8981 24.9896)" width="100%" height="100%" xlink:href="#symbol4944"/>
</svg>
