<?xml version="1.0" encoding="UTF-8"?>
<svg width="149.178" height="75.6839" version="1.1" viewBox="0 0 149.17807 75.683891" xmlns="http://www.w3.org/2000/svg">
 <defs>
  <marker id="Arrow1Lstart" overflow="visible" orient="auto">
   <path transform="matrix(.8 0 0 .8 10 0)" d="m0 0 5-5-17.5 5 17.5 5z" fill="#f00" fill-rule="evenodd" stroke="#f00" stroke-width="1pt"/>
  </marker>
  <marker id="marker2873" overflow="visible" orient="auto">
   <path transform="matrix(-.8 0 0 -.8 -10 0)" d="m0 0 5-5-17.5 5 17.5 5z" fill="#f00" fill-rule="evenodd" stroke="#f00" stroke-width="1pt"/>
  </marker>
 </defs>
 <g transform="translate(11.7319 -269.471)" stroke-linejoin="round">
  <g stroke-miterlimit="1e5">
   <path d="m43.1082 271.669h93.3381l-53.7401 57.2756h-93.3381z" fill="#e4e4e4" stroke="#000"/>
   <path d="m81.295 290.313c-0.87297 0.031-1.49654 0.71709-1.49654 1.403 0 0.43648 0.28061 0.90415 0.96651 0.90415s1.43418-0.53003 1.43418-1.74596c0-1.40299-1.34064-2.68127-3.71014-2.68127-4.11549 0-5.26907 3.18011-5.26907 4.55194 0 2.43186 2.30715 2.89953 3.21131 3.0866 1.62125 0.31177 3.2425 0.65474 3.2425 2.3695 0 0.81064-0.7171 3.42957-4.45843 3.42957-0.43648 0-2.83718 0-3.55426-1.65242 1.18475 0.15595 1.9642-0.77944 1.9642-1.65241 0-0.71709-0.49884-1.09125-1.15357-1.09125-0.81063 0-1.74596 0.65474-1.74596 2.05776 0 1.77712 1.77712 3.02424 4.45842 3.02424 5.05081 0 6.26674-3.77252 6.26674-5.17552 0-1.12241-0.59238-1.90185-0.96651-2.27598-0.8418-0.87297-1.74595-1.02887-3.11778-1.30948-1.12241-0.24931-2.36951-0.46764-2.36951-1.87066 0-0.90416 0.74826-2.80599 3.49192-2.80599 0.77942 0 2.33831 0.21828 2.80599 1.43418z" stroke-width="1.5"/>
   <path d="m38.2171 338.438c0.11477-0.4782 0.30605-1.24332 0.30605-1.41548 0-0.61212-0.49733-0.84165-0.89903-0.84165-0.36344 0-0.746 0.19128-0.97553 0.47821-0.28693-0.30605-0.91816-0.8034-2.0276-0.8034-3.32832 0-5.39417 3.02228-5.39417 5.64285 0 2.35277 1.7598 3.15616 3.34745 3.15616 1.35809 0 2.35277-0.746 2.65883-1.03293 0.72686 1.03293 1.98933 1.03293 2.19974 1.03293 0.70775 0 1.26247-0.40169 1.66416-1.0903 0.47821-0.76514 0.72688-1.79807 0.72688-1.8937 0-0.26781-0.28692-0.26781-0.45908-0.26781-0.21042 0-0.28693 0-0.38256 0.0957-0.0383 0.0382-0.0383 0.0765-0.15303 0.55472-0.38257 1.53026-0.82253 1.91282-1.30072 1.91282-0.21041 0-0.43995-0.0765-0.43995-0.70774 0-0.32517 0.0765-0.63124 0.26779-1.39636 0.13391-0.5356 0.32519-1.30072 0.42082-1.72155zm-3.1753 4.28474c-0.55472 0.65035-1.45374 1.24333-2.3719 1.24333-1.18595 0-1.28158-1.03291-1.28158-1.45375 0-0.99467 0.65035-3.34744 0.9564-4.09344 0.59299-1.39636 1.53027-1.87457 2.31452-1.87457 1.12858 0 1.58765 0.89902 1.58765 1.10944l-0.0383 0.26779z" fill="#f00" stroke-width="1.33333"/>
   <path d="m4.06357 287.211c0.0765-0.26779 0.0765-0.30605 0.0765-0.32517 0-0.24867-0.2104-0.34432-0.42081-0.34432-0.0765 0-0.0956 0-0.13391 0.0192l-2.46753 0.11472c-0.26781 0.0192-0.61212 0.0382-0.61212 0.57384 0 0.34432 0.36344 0.34432 0.49735 0.34432 0.2104 0 0.55472 0 0.80337 0.0382-0.15302 0.65036-0.3443 1.47288-0.53558 2.19975l-1.31986 5.27941c-0.26779 1.07118-0.26779 1.30072-0.26779 1.74067 0 2.44841 1.81719 3.1179 3.25181 3.1179 3.46221 0 5.43243-3.1179 5.43243-5.64283 0-2.35278-1.75981-3.15618-3.34745-3.15618-0.91816 0-1.68328 0.36344-2.08498 0.61212zm-1.0903 12.0699c-0.746 0-1.37724-0.40168-1.37724-1.58763 0-0.61212 0.19128-1.31986 0.32517-1.91284 0.1913-0.72688 0.51647-2.04672 0.65037-2.62057 0.0956-0.32519 1.18595-1.30072 2.35277-1.30072 1.18597 0 1.2816 1.03293 1.2816 1.45374 0 0.99467-0.65035 3.34746-0.95642 4.09346-0.65035 1.54939-1.72153 1.87456-2.27625 1.87456z" fill="#f00" stroke-width="1.33333"/>
  </g>
  <path d="m5.46357 311.607a23.6573 23.6573 0 0 1 7.56107 17.5175" fill="none" stroke="#260000" stroke-miterlimit="100" stroke-width="1.2"/>
  <path d="m82.7061 328.945h-93.3381l53.7401-57.2756" fill="none" marker="none" marker-end="url(#marker2873)" marker-start="url(#Arrow1Lstart)" stroke="#f00" stroke-miterlimit="100" stroke-width="1.2"/>
  <path d="m26.0253 312.839c0-1.26248-0.34431-3.9213-2.2954-3.9213-2.65883 0-5.60458 5.39416-5.60458 9.77455 0 1.79805 0.55472 3.92129 2.2954 3.92129 2.69709 0 5.60458-5.48982 5.60458-9.77454zm-5.87239 2.62056c0.32519-1.22421 0.70776-2.75446 1.47288-4.11258 0.51647-0.93728 1.22421-2.00846 2.08499-2.00846 0.93728 0 1.05205 1.22421 1.05205 2.31453 0 0.93728-0.15302 1.91281-0.61209 3.80651zm3.82567 0.61211c-0.21042 0.87991-0.61212 2.50581-1.33898 3.88304-0.66949 1.30072-1.39637 2.238-2.21888 2.238-0.63123 0-1.03293-0.55472-1.03293-2.33365 0-0.80337 0.11477-1.91281 0.6121-3.78739z" stroke-miterlimit="1e5" stroke-width="1.33333"/>
 </g>
</svg>
