<?xml version="1.0" encoding="UTF-8"?>
<svg width="228.554" height="106.424" version="1.1" viewBox="0 0 228.554 106.42437" xmlns="http://www.w3.org/2000/svg">
 <defs>
  <marker id="Arrow1Lend" overflow="visible" orient="auto">
   <path transform="matrix(-.8 0 0 -.8 -10 0)" d="m0 0 5-5-17.5 5 17.5 5z" fill-rule="evenodd" stroke="#000" stroke-width="1pt"/>
  </marker>
  <marker id="Arrow1Mend-6" overflow="visible" orient="auto">
   <path transform="matrix(-.4 0 0 -.4 -4 0)" d="m0 0 5-5-17.5 5 17.5 5z" fill="#f00" fill-rule="evenodd" stroke="#f00" stroke-width="1pt"/>
  </marker>
 </defs>
 <g transform="translate(117.134 -234.1)">
  <g fill="none" shape-rendering="auto">
   <path d="m-116.634 318.736h225.613" color="#000000" color-rendering="auto" image-rendering="auto" marker-end="url(#Arrow1Lend)" solid-color="#000000" stroke="#000" style="isolation:auto;mix-blend-mode:normal"/>
   <path d="m-107.131 270.282c68.6732-58.5422 137.346 38.5725 206.02 0" color="#000000" color-rendering="auto" image-rendering="auto" solid-color="#000000" stroke="#00f" stroke-width="2" style="isolation:auto;mix-blend-mode:normal"/>
   <g stroke="#000">
    <path d="m-105.924 313.644v9.8995" color="#000000" color-rendering="auto" image-rendering="auto" solid-color="#000000" style="isolation:auto;mix-blend-mode:normal"/>
    <path d="m-110.316 266.493 6.36922 7.57847" color="#000000" color-rendering="auto" image-rendering="auto" solid-color="#000000" style="isolation:auto;mix-blend-mode:normal"/>
    <path d="m81.3474 313.644v9.8995" color="#000000" color-rendering="auto" image-rendering="auto" solid-color="#000000" style="isolation:auto;mix-blend-mode:normal"/>
    <path d="m96.5082 265.942 4.7612 8.67935" color="#000000" color-rendering="auto" image-rendering="auto" solid-color="#000000" style="isolation:auto;mix-blend-mode:normal"/>
    <path d="m-105.924 318.736-1.20656-48.454" color="#000000" color-rendering="auto" image-rendering="auto" solid-color="#000000" stroke-dasharray="2, 2" stroke-width=".5" style="isolation:auto;mix-blend-mode:normal"/>
    <path d="m81.3474 318.736 17.5413-48.454" color="#000000" color-rendering="auto" image-rendering="auto" solid-color="#000000" stroke-dasharray="2, 2" stroke-width=".5" style="isolation:auto;mix-blend-mode:normal"/>
   </g>
  </g>
  <g stroke-linejoin="round" stroke-miterlimit="1e5">
   <g stroke-width="1.5">
    <path d="m-33.9527 330.861c0-1.18358-0.32278-3.67621-2.15193-3.67621-2.49265 0-5.25429 5.05702-5.25429 9.16363 0 1.68567 0.52005 3.67622 2.15193 3.67622 2.52852 0 5.25429-5.14671 5.25429-9.16364zm-5.50536 2.45678c0.30486-1.1477 0.66353-2.58231 1.38083-3.85555 0.48418-0.87869 1.14769-1.88293 1.95468-1.88293 0.8787 0 0.98629 1.1477 0.98629 2.16987 0 0.8787-0.14346 1.79326-0.57384 3.56861zm3.58656 0.57385c-0.19726 0.82491-0.57385 2.34919-1.25529 3.64035-0.62764 1.21943-1.30909 2.09812-2.0802 2.09812-0.59178 0-0.96837-0.52004-0.96837-2.18779 0-0.75316 0.1076-1.79326 0.57384-3.55068z"/>
    <path d="m-86.7029 298.682c0-0.0539-0.03585-0.17933-0.197265-0.17933-0.05385 0-0.0717 0.018-0.268995 0.21519l-1.25529 1.38083c-0.161385-0.25107-0.986295-1.59602-2.97684-1.59602-3.999 0-8.03386 3.96314-8.03386 8.12354 0 2.9589 2.11606 4.91357 4.85978 4.91357 1.56015 0 2.92304-0.71731 3.87348-1.54222 1.66774-1.47048 1.97259-3.10235 1.97259-3.15616 0-0.17933-0.179325-0.17933-0.21519-0.17933-0.10755 0-0.197265 0.0358-0.23313 0.17933-0.161385 0.52005-0.57384 1.79328-1.8112 2.83338-1.23735 1.00423-2.36712 1.30908-3.29962 1.30908-1.61394 0-3.51482-0.93251-3.51482-3.73001 0-1.02217 0.37659-3.92726 2.16986-6.0254 1.0939-1.27322 2.77959-2.16986 4.3756-2.16986 1.82913 0 2.88717 1.38081 2.88717 3.46101 0 0.71731-0.05385 0.73526-0.05385 0.91458s0.197265 0.17932 0.268995 0.17932c0.23313 0 0.23313-0.0358 0.322785-0.35864z" fill="#008000"/>
    <path d="m-81.1493 307.722c0-1.31805-0.50211-2.72398-1.7323-2.72398-1.88294 0-3.8914 3.36418-3.8914 6.23881 0 1.49379 0.57744 2.72399 1.7323 2.72399 1.90804 0 3.8914-3.42696 3.8914-6.23882zm-4.20522 1.53146c0.6402-2.71143 1.71975-3.90396 2.46038-3.90396 0.803385 0 0.803385 1.39338 0.803385 1.63188 0 0.48957-0.10035 1.21764-0.364035 2.27208zm2.78674 0.4519c-0.35148 1.36827-0.6402 2.04614-1.01679 2.66123-0.389145 0.65275-0.891255 1.24273-1.44358 1.24273-0.690405 0-0.803385-0.95401-0.803385-1.63188 0-0.82848 0.2385-1.80762 0.364035-2.27208z" fill="#008000"/>
   </g>
   <g stroke-width="1.33333">
    <path d="m1.62327 242.611c-0.826349 0.22953-1.23951 1.00995-1.23951 1.5838 0 0.505 0.390221 1.05589 1.1477 1.05589 0.803386 0 1.65268-0.66567 1.65268-1.7904 0-1.21657-1.21655-2.01996-2.61675-2.01996-1.30836 0-2.15766 0.98704-2.45606 1.4002-0.57385-0.96407-1.85927-1.4002-3.16764-1.4002-2.89219 0-4.45306 2.82334-4.45306 3.58082 0 0.32135 0.344314 0.32135 0.550886 0.32135 0.275443 0 0.436128 0 0.527942-0.29838 0.665664-2.08881 2.31834-2.77744 3.25945-2.77744 0.872256 0 1.28542 0.41317 1.28542 1.1477 0 0.43613-0.32135 1.69859-0.527942 2.52494l-0.780422 3.14467c-0.344314 1.4002-1.17066 2.0888-1.95108 2.0888-0.114816 0-0.64272 0-1.10179-0.34429 0.82633-0.22954 1.23951-1.00998 1.23951-1.58383 0-0.50498-0.390221-1.05588-1.1477-1.05588-0.803386 0-1.65268 0.66566-1.65268 1.79042 0 1.21655 1.21655 2.01993 2.61675 2.01993 1.30836 0 2.15766-0.98701 2.45606-1.40018 0.57385 0.96406 1.85927 1.40018 3.16764 1.40018 2.89219 0 4.45306-2.82332 4.45306-3.5808 0-0.32137-0.344294-0.32137-0.550886-0.32137-0.275443 0-0.436128 0-0.527942 0.29841-0.665664 2.08881-2.31834 2.77741-3.25945 2.77741-0.872256 0-1.28542-0.41316-1.28542-1.14768 0-0.48203 0.298406-1.6986 0.504979-2.54789 0.160704-0.5968 0.688627-2.75447 0.803386-3.12173 0.344314-1.37724 1.1477-2.08881 1.95108-2.08881 0.114816 0 0.64272 0 1.10179 0.34432z"/>
    <path d="m15.872 257.325c0-0.0689 0-0.11482-0.390221-0.50498-2.86923-2.8922-3.60376-7.23049-3.60376-10.7424 0-3.99399 0.872256-7.98797 3.69558-10.8572 0.298407-0.27544 0.298407-0.32135 0.298407-0.3902 0-0.1607-0.09178-0.22956-0.229536-0.22956-0.229536 0-2.2954 1.56089-3.64967 4.47602-1.17066 2.52494-1.4461 5.07282-1.4461 7.00096 0 1.7904 0.252499 4.56783 1.51496 7.16162 1.37724 2.82334 3.35128 4.31533 3.58082 4.31533 0.137664 0 0.229536-0.0689 0.229536-0.22953z"/>
    <path d="m27.6444 240.339c0-1.51498-0.413165-4.70555-2.75447-4.70555-3.1906 0-6.72551 6.47299-6.72551 11.7294 0 2.15766 0.665664 4.70555 2.75449 4.70555 3.23651 0 6.72549-6.58779 6.72549-11.7294zm-7.04686 3.14467c0.390221-1.46905 0.849312-3.30535 1.76746-4.93509 0.619757-1.12473 1.46905-2.41016 2.50199-2.41016 1.12474 0 1.26246 1.46905 1.26246 2.77744 0 1.12473-0.183552 2.29538-0.734516 4.56781zm4.5908 0.73454c-0.252499 1.05588-0.734534 3.00697-1.60677 4.65965-0.803386 1.56086-1.67564 2.6856-2.66266 2.6856-0.757478 0-1.23951-0.66567-1.23951-2.80038 0-0.96405 0.137664-2.29538 0.734516-4.54487z"/>
    <path d="m35.2061 246.077c0-1.79042-0.25248-4.56784-1.51496-7.16162-1.37724-2.82334-3.35126-4.31536-3.5808-4.31536-0.137664 0-0.229536 0.0918-0.229536 0.22956 0 0.0689 0 0.11482 0.436128 0.52792 2.24947 2.27246 3.55784 5.92213 3.55784 10.7195 0 3.92511-0.849293 7.965-3.69556 10.8572-0.298407 0.27544-0.298407 0.32135-0.298407 0.39022 0 0.13766 0.09178 0.22953 0.229536 0.22953 0.229536 0 2.29538-1.56086 3.64967-4.47602 1.17064-2.52491 1.44609-5.07281 1.44609-7.00093z"/>
   </g>
  </g>
  <path d="m-9.80548 260.813-24.5963 52.6624" color="#000000" color-rendering="auto" fill="none" image-rendering="auto" marker-end="url(#Arrow1Mend-6)" shape-rendering="auto" solid-color="#000000" stroke="#f00" stroke-width="2" style="isolation:auto;mix-blend-mode:normal"/>
  <circle cx="-9.80248" cy="260.814" r="3.8007" style="font-variant-east_asian:normal"/>
  <g fill="#f00">
   <path d="m-8.84045 300.7v-11.2829h1.02686v11.2829zm-6.75964 0.0882-0.119696-0.89456h1.77653q0.875666 0 1.20325-0.66147 0.333887-0.66778 0.333887-2.55141 0-0.10079-0.0126-0.66777h-4.40983l-0.0756 0.59218h-0.976461l0.579577-4.13264h4.59252v-1.80173h-4.98311v-0.79377h5.99737v3.40817h-4.73742l-0.289789 1.88362h5.35479q0 1.43005-0.0252 2.14192t-0.176393 1.54344q-0.144894 0.83157-0.365386 1.15285-0.214191 0.31499-0.648874 0.54808t-0.982762 0.23309z"/>
   <path d="m4.50243 296.971-0.692973 0.69928q-0.686673-0.45989-1.69463-0.73078-1.00796-0.27718-1.94662-0.27718-2.04112 0-2.74039 0.42838-0.692973 0.42208-0.692973 1.17175 0 0.65518 0.806369 1.02686 0.806368 0.37169 3.16878 0.37169 2.09152 0 3.70426-0.26459l0.025199 0.90716q-1.40485 0.23309-3.75465 0.23309-2.71519 0-3.83655-0.57957-1.12136-0.58588-1.12136-1.69464 0-1.18435 1.06466-1.80173 1.07096-0.62367 2.86009-0.62367 1.92772 0 3.37037 0.54178-0.629975-0.81267-1.16545-1.82063h-6.52655v-0.81267h6.13596q-0.346486-0.78117-0.573278-1.50564h-5.2036v-0.81267h4.94531q-0.201592-0.80637-0.308688-1.57494l1.00166-0.0882q0.182693 1.12766 0.321288 1.66314h3.64126v0.81267h-3.41447q0.170093 0.52918 0.566978 1.50564h3.45227v0.81267h-3.04278q0.52288 0.97016 1.65054 2.4128z"/>
   <path d="m7.9358 290.614v-0.75597h11.1065v0.75597zm1.63164 3.67906q0 1.79543-0.466182 3.50896-0.459882 1.70723-1.39225 2.92939l-0.655174-0.54178q0.692973-0.95127 1.10876-2.501 0.415784-1.55604 0.415784-3.28848v-2.72149h9.84022v2.6144zm7.93139-1.92143h-7.93139v1.21586h7.93139zm-3.34517 5.2351q-0.440982 1.23475-1.77023 2.11042-1.32925 0.87566-2.89789 1.14655l-0.277189-0.72447q1.43634-0.28979 2.6459-1.11506 1.20955-0.82526 1.57494-2.13561h-3.33887v-0.78747h3.50266v-1.34185h1.02686v1.34185h4.43503v0.78747h-4.38463q1.21585 2.28051 4.52952 3.13097l-0.541778 0.80637q-3.25697-0.93866-4.50432-3.21917z"/>
   <path d="m31.8182 295.66q-0.711872 2.51991-2.09782 3.70426t-3.56566 1.18435q-0.850467 0-1.51194-0.17009t-1.13396-0.50398q-0.472481-0.34019-0.75597-0.84417-0.283489-0.51028-0.365386-1.10245-0.0756-0.59218-0.0756-1.95923 0-2.32461 0.277189-5.70757h1.03316q-0.333887 3.24437-0.333887 5.75797 0 0.87567 0.0378 1.48044 0.0441 0.59848 0.365386 1.10876 0.327587 0.51028 0.970162 0.77487t1.59384 0.26459q1.70723 0 2.84119-0.95756 1.13396-0.96387 1.83953-3.35777z"/>
  </g>
  <path d="m-91.7472 243.524c0-0.0539-0.0359-0.17933-0.19726-0.17933-0.0538 0-0.0717 0.018-0.269 0.21519l-1.25529 1.38083c-0.16138-0.25107-0.98629-1.59602-2.97684-1.59602-3.999 0-8.03387 3.96314-8.03387 8.12354 0 2.9589 2.11607 4.91356 4.85978 4.91356 1.56015 0 2.92304-0.71729 3.87348-1.5422 1.66775-1.47048 1.97259-3.10237 1.97259-3.15617 0-0.17933-0.17932-0.17933-0.21519-0.17933-0.10759 0-0.19726 0.0359-0.23313 0.17933-0.16138 0.52005-0.57384 1.79328-1.8112 2.83338-1.23735 1.00424-2.36712 1.30908-3.29963 1.30908-1.61394 0-3.51481-0.9325-3.51481-3.73001 0-1.02217 0.37659-3.92726 2.16985-6.0254 1.09391-1.27322 2.77959-2.16986 4.37561-2.16986 1.82913 0 2.88717 1.38081 2.88717 3.46101 0 0.71732-0.0538 0.73526-0.0538 0.91458 0 0.17933 0.19727 0.17933 0.269 0.17933 0.23313 0 0.23313-0.0359 0.32278-0.35865z" fill="#00f"/>
  <path d="m-105.918 318.736h187.206" color="#000000" color-rendering="auto" fill="none" image-rendering="auto" shape-rendering="auto" solid-color="#000000" stroke="#008000" stroke-width="2" style="isolation:auto;mix-blend-mode:normal"/>
  <circle cx="-36.8589" cy="318.594" r="3.8007"/>
 </g>
</svg>
