<?xml version="1.0" encoding="UTF-8"?>
<svg width="142.723" height="112.156" version="1.1" viewBox="0 0 142.7226 112.15635" xmlns="http://www.w3.org/2000/svg" xmlns:xlink="http://www.w3.org/1999/xlink">
 <defs>
  <marker id="Arrow1Lend1-6-2" overflow="visible" orient="auto">
   <path transform="matrix(-.8 0 0 -.8 -10 0)" d="m0 0 5-5-17.5 5 17.5 5z" fill="#f00" fill-rule="evenodd" stroke="#f00" stroke-width="1pt"/>
  </marker>
  <symbol id="symbol5396">
   <path d="m9.1406 78.786h1.68568c0.35865 0 0.53799 0 0.53799-0.35865 0-0.19726-0.17934-0.19726-0.502125-0.19726h-1.57808c0.64557-2.54645 0.73524-2.9051 0.73524-3.01271 0-0.30484-0.21519-0.48418-0.52005-0.48418-0.05385 0-0.555915 0.018-0.717315 0.64558l-0.699375 2.85131h-1.68567c-0.35865 0-0.53799 0-0.53799 0.34072 0 0.21519 0.1434 0.21519 0.502125 0.21519h1.57808c-1.29116 5.09291-1.36288 5.39777-1.36288 5.72055 0 0.96837 0.681435 1.64982 1.6498 1.64982 1.82914 0 2.8513-2.61819 2.8513-2.76165 0-0.17932-0.1434-0.17932-0.21519-0.17932-0.1614 0-0.179325 0.0539-0.268995 0.25105-0.771105 1.86501-1.72154 2.29539-2.33126 2.29539-0.37659 0-0.555915-0.23311-0.555915-0.82491 0-0.43038 0.03585-0.5559 0.10755-0.86076z" stroke-width="1.5"/>
  </symbol>
  <symbol id="symbol5401">
   <path d="m38.4992 5.413c-2.24158 0.53799-3.98106 2.86925-3.98106 5.0391 0 1.72155 1.1477 3.01271 2.83336 3.01271 2.09814 0 3.58656-2.81544 3.58656-5.29016 0-1.63188-0.717315-2.52852-1.32704-3.33549-0.64557-0.80698-1.70361-2.15193-1.70361-2.94097 0-0.39453 0.358665-0.82491 0.98631-0.82491 0.537975 0 0.89664 0.23313 1.27323 0.48418 0.35865 0.21519 0.7173 0.44832 0.986295 0.44832 0.44832 0 0.717315-0.43038 0.717315-0.71731 0-0.39452-0.286935-0.44832-0.932505-0.59178-0.932505-0.19725-1.18356-0.19725-1.4705-0.19725-1.39875 0-2.04434 0.7711-2.04434 1.84707 0 0.96837 0.52005 1.9726 1.07596 3.06649zm0.215205 0.39453c0.44832 0.8249 0.986295 1.79327 0.986295 3.08442 0 1.18358-0.68145 4.17834-2.3492 4.17834-0.986295 0-1.72154-0.75318-1.72154-2.11606 0-1.12977 0.66351-4.50113 3.08444-5.1467z" stroke-width="1.5"/>
  </symbol>
 </defs>
 <rect x="56.4079" y="77.721" width="13.435" height="13.435" color="#000000" color-rendering="auto" fill="none" image-rendering="auto" shape-rendering="auto" solid-color="#000000" stroke="#000" stroke-width=".500002" style="isolation:auto;mix-blend-mode:normal"/>
 <g fill="#f00" stroke-width="1.5">
  <path d="m83.4766 60.643c0-1.63188-1.2015-1.63188-1.21944-1.63188-0.7173 0-1.36289 0.75318-1.36289 1.36289 0 0.50212 0.37659 0.71731 0.53799 0.80697 0.75317 0.44832 0.89664 0.77112 0.89664 1.12977 0 0.39451-1.0401 4.32179-3.13824 4.32179-1.29115 0-1.29115-1.07595-1.29115-1.39875 0-1.0401 0.50211-2.34918 1.07596-3.78382 0.1434-0.35865 0.19727-0.52005 0.19727-0.80697 0-1.0401-1.0401-1.61395-2.02641-1.61395-1.90086 0-2.7975 2.43886-2.7975 2.79751 0 0.25106 0.268995 0.25106 0.43038 0.25106 0.215205 0 0.340725 0 0.412455-0.23312 0.57384-1.93674 1.52428-2.16987 1.84707-2.16987 0.125545 0 0.304855 0 0.304855 0.37659 0 0.41246-0.21519 0.93251-0.26899 1.07597-0.82491 2.0802-1.09389 2.88717-1.09389 3.74794 0 1.90088 1.54221 2.40299 3.10236 2.40299 3.08443 0 4.39353-5.09291 4.39353-6.63512z"/>
  <path d="m93.3886 65.632c0.25106-0.62764 0.66532-0.75318 1.05446-0.76572v-0.4519c-0.33894 0.0377-0.53978 0.0503-0.90381 0.0503-0.37659 0-0.85361-0.012-1.2302-0.0503v0.4519c0.43935 0.012 0.65276 0.25106 0.65276 0.55233 0 0.10035 0 0.12555-0.0753 0.30126l-1.21764 3.12569-1.35572-3.42695c-0.025-0.0628-0.0627-0.1632-0.0627-0.23851 0-0.27617 0.32636-0.31382 0.67784-0.31382v-0.4519c-0.4519 0.0377-0.90381 0.0503-1.35571 0.0503-0.36404 0-0.74063-0.025-1.10466-0.0503v0.4519c0.28872 0 0.55233 0 0.71553 0.10035 0.17574 0.12555 0.28871 0.53979 0.28871 0.55233 0 0.0251-0.0251 0.1005-0.0503 0.15065l-1.17998 2.98765-1.26784-3.23865c-0.0753-0.17575-0.0753-0.18829-0.0753-0.23851 0-0.31382 0.4519-0.31382 0.67785-0.31382v-0.4519c-0.025 0-0.91637 0.0503-1.41848 0.0503-0.38914 0-0.79084-0.012-1.17997-0.0503v0.4519c0.48955 0 0.76572 0 0.90381 0.36404l1.74486 4.43118c0.0753 0.18829 0.11295 0.28872 0.33892 0.28872 0.22596 0 0.26361-0.10035 0.32637-0.26361l1.41849-3.59015 1.39337 3.55248c0.0753 0.1883 0.12555 0.30128 0.35149 0.30128 0.22596 0 0.26361-0.0879 0.33893-0.28872z"/>
  <path d="m100.012 66.461c0-0.66531 0-1.14231-0.57742-1.60677-0.51468-0.42681-1.11722-0.62765-1.85784-0.62765-1.19253 0-2.03358 0.45191-2.03358 1.21763 0 0.4017 0.27616 0.61509 0.60255 0.61509 0.33892 0 0.58998-0.25106 0.58998-0.58998 0-0.21341-0.10035-0.47702-0.43935-0.57744 0.4519-0.31382 1.17997-0.31382 1.25529-0.31382 0.70297 0 1.46869 0.46446 1.46869 1.5189v0.38915c-0.69041 0.0251-1.5189 0.0627-2.43527 0.40168-1.12976 0.41426-1.48125 1.10466-1.48125 1.66955 0 1.07955 1.30551 1.39338 2.19677 1.39338 1.00423 0 1.59423-0.56489 1.85784-1.05446 0.0502 0.51468 0.38913 0.99168 0.96657 0.99168 0.0251 0 1.24273 0 1.24273-1.19253v-0.6904h-0.42679v0.67786c0 0.12555 0 0.72807-0.46446 0.72807s-0.46446-0.58999-0.46446-0.75318zm-0.99168 1.59421c0 1.20509-1.05444 1.54401-1.61933 1.54401-0.64019 0-1.24273-0.42679-1.24273-1.04188 0-0.69041 0.60254-1.65699 2.86206-1.74486z"/>
  <path d="m104.121 61.113-1.88295 0.13815v0.45191c0.84105 0 0.94147 0.0879 0.94147 0.70297v6.4271c0 0.53977-0.12555 0.53977-0.94147 0.53977v0.45191c0.025 0 0.90381-0.0503 1.40593-0.0503 0.47702 0 0.94146 0.012 1.41848 0.0503v-0.45191c-0.81594 0-0.94146 0-0.94146-0.53977z"/>
  <path d="m108.165 61.113-1.88295 0.13815v0.45191c0.84105 0 0.94147 0.0879 0.94147 0.70297v6.4271c0 0.53977-0.12555 0.53977-0.94147 0.53977v0.45191c0.025 0 0.90381-0.0503 1.40593-0.0503 0.47702 0 0.94146 0.012 1.41848 0.0503v-0.45191c-0.81594 0-0.94146 0-0.94146-0.53977z"/>
  <path d="m118.045 62.652c0-0.52005-0.43039-0.95044-0.95044-0.95044s-0.95044 0.43039-0.95044 0.95044 0.43039 0.95043 0.95044 0.95043 0.95044-0.43038 0.95044-0.95043z"/>
 </g>
 <g shape-rendering="auto">
  <rect x=".5" y="91.656" width="141.723" height="20" color="#000000" color-rendering="auto" fill="#dcdcdc" image-rendering="auto" solid-color="#000000" style="isolation:auto;mix-blend-mode:normal"/>
  <rect x=".5" y="20.238" width="141.723" height="20" color="#000000" color-rendering="auto" fill="#dcdcdc" image-rendering="auto" solid-color="#000000" style="isolation:auto;mix-blend-mode:normal"/>
  <path d="m0.5 20.238h141.723" color="#000000" color-rendering="auto" fill="none" image-rendering="auto" solid-color="#000000" stroke="#555" stroke-linejoin="round" stroke-miterlimit="100" stroke-width="3.00001" style="font-variant-east_asian:normal;isolation:auto;mix-blend-mode:normal"/>
 </g>
 <path d="m23.2179 9.125h5.00325c0.251055 0 0.59178 0 0.59178-0.35865 0-0.35864-0.340725-0.35866-0.59178-0.35866h-5.00325v-5.02116c0-0.25106 0-0.59178-0.35865-0.59178s-0.35865 0.34072-0.35865 0.59178v5.02116h-5.02118c-0.251055 0-0.59178 0-0.59178 0.35866 0 0.35867 0.340725 0.35865 0.59178 0.35865h5.02118v5.02118c0 0.25105 0 0.59178 0.35865 0.59178s0.35865-0.34073 0.35865-0.59178z" stroke-width="1.5"/>
 <path d="m0.5 91.656h141.723" color="#000000" color-rendering="auto" fill="none" image-rendering="auto" shape-rendering="auto" solid-color="#000000" stroke="#555" stroke-linejoin="round" stroke-miterlimit="100" stroke-width="3.00001" style="font-variant-east_asian:normal;isolation:auto;mix-blend-mode:normal"/>
 <circle transform="rotate(-26.402)" cx="21.8018" cy="113.153" r="4.00001" color="#000000" fill="#f00"/>
 <circle transform="rotate(-26.402)" cx="53.776" cy="48.7469" r="4.00001" color="#000000" fill="#f00"/>
 <path d="m69.8429 91.566v-70.0949" color="#000000" color-rendering="auto" fill="none" image-rendering="auto" marker-end="url(#Arrow1Lend1-6-2)" shape-rendering="auto" solid-color="#000000" stroke="#f00" style="isolation:auto;mix-blend-mode:normal"/>
 <use width="100%" height="100%" xlink:href="#symbol5396"/>
 <use transform="translate(0,-72.709)" width="100%" height="100%" xlink:href="#symbol5396"/>
 <use transform="translate(36.9375,-72.709)" width="100%" height="100%" xlink:href="#symbol5396"/>
 <use transform="translate(126.722 -18.824)" width="100%" height="100%" fill="#ff0000" xlink:href="#symbol5396"/>
 <use width="100%" height="100%" xlink:href="#symbol5401"/>
 <use transform="translate(89.7844 53.885)" width="100%" height="100%" fill="#ff0000" xlink:href="#symbol5401"/>
</svg>
