<?xml version="1.0" encoding="UTF-8"?>
<svg width="111.694" height="163.23" version="1.1" viewBox="0 0 111.69385 163.22968" xmlns="http://www.w3.org/2000/svg" xmlns:xlink="http://www.w3.org/1999/xlink">
 <defs>
  <symbol id="g4044">
   <path d="m90.0851 93.9619c-0.05744 0.286925-0.17216 0.726874-0.17216 0.822515 0 0.344309 0.267808 0.516464 0.554736 0.516464 0.229536 0 0.57384-0.153024 0.707744-0.535592 0.0192-0.03826 0.248672-0.937285 0.36344-1.41549l0.420816-1.72155c0.11472-0.420816 0.229536-0.841632 0.325184-1.28158 0.07648-0.325184 0.229535-0.879904 0.248671-0.956416 0.286912-0.592976 1.30072-2.33365 3.1179-2.33365 0.860768 0 1.03293 0.707744 1.03293 1.33898 0 0.478208-0.13392 1.01381-0.286928 1.58765l-0.535584 2.21888-0.382576 1.45375c-0.07648 0.382567-0.248656 1.03293-0.248656 1.12857 0 0.344309 0.267792 0.516464 0.554704 0.516464 0.592992 0 0.70776-0.478206 0.860784-1.09031 0.267792-1.07119 0.975536-3.86391 1.1477-4.60991 0.05744-0.248672 1.07118-2.54406 3.15616-2.54406 0.82251 0 1.03292 0.650368 1.03292 1.33898 0 1.09032-0.80339 3.27093-1.18595 4.28474-0.17216 0.459072-0.24867 0.669488-0.24867 1.05205 0 0.899029 0.66949 1.56852 1.56853 1.56852 1.79805 0 2.50581-2.79273 2.50581-2.94576 0-0.19128-0.17216-0.19128-0.22956-0.19128-0.19128 0-0.19128 0.05738-0.28692 0.344304-0.28692 1.0138-0.89903 2.37191-1.95108 2.37191-0.32518 0-0.45908-0.191283-0.45908-0.631232 0-0.478208 0.17216-0.937285 0.3443-1.3581 0.36344-0.994672 1.16683-3.11792 1.16683-4.20822 0-1.24334-0.76513-2.04672-2.19974-2.04672s-2.41018 0.841631-3.11792 1.85544c-0.0192-0.248672-0.07648-0.89904-0.612096-1.35811-0.478208-0.401696-1.09032-0.497327-1.56853-0.497327-1.72154 0-2.65882 1.22421-2.984 1.66416-0.09568-1.09032-0.899023-1.66416-1.75981-1.66416-0.879904 0-1.24334 0.745999-1.41549 1.0903-0.34432 0.669488-0.592976 1.79806-0.592976 1.85544 0 0.19128 0.19128 0.19128 0.229536 0.19128 0.19128 0 0.2104-0.01912 0.325184-0.439952 0.325168-1.3581 0.707744-2.27626 1.39637-2.27626 0.306048 0 0.592976 0.153024 0.592976 0.879904 0 0.401696-0.05744 0.612096-0.306064 1.60677z" stroke-linejoin="round" stroke-miterlimit="1e5" stroke-width="1.33333"/>
   <path d="m109.62 89.4438c0-0.36152-0.0267-0.374912-0.4017-0.374912-0.85694 0.843551-2.07542 0.856943-2.6244 0.856943v0.482032c0.32136 0 1.20508 0 1.94152-0.374912v6.82879c0 0.441864 0 0.615931-1.33897 0.615931h-0.50882v0.482032c0.24101-0.01344 1.88795-0.05355 2.38338-0.05355 0.41509 0 2.10221 0.04018 2.39678 0.05355v-0.482032h-0.50881c-1.33898 0-1.33898-0.174067-1.33898-0.615931z" stroke-linejoin="round" stroke-miterlimit="1e5" stroke-width="1.33333"/>
  </symbol>
  <symbol id="g4107">
   <path d="m69.8241 135.989c-0.0574 0.28692-0.17214 0.72687-0.17214 0.82251 0 0.34431 0.26779 0.51647 0.55472 0.51647 0.22954 0 0.57384-0.15303 0.70774-0.53559 0.019-0.0383 0.24868-0.93729 0.36344-1.41549l0.42082-1.72155c0.11472-0.42082 0.22954-0.84164 0.32518-1.28158 0.0765-0.32519 0.22954-0.87991 0.24868-0.95642 0.28691-0.59298 1.30072-2.33365 3.1179-2.33365 0.86077 0 1.03293 0.70774 1.03293 1.33898 0 0.47821-0.13392 1.01381-0.28693 1.58765l-0.53558 2.21888-0.38258 1.45375c-0.0765 0.38257-0.24866 1.03293-0.24866 1.12857 0 0.34431 0.2678 0.51646 0.55471 0.51646 0.59299 0 0.70776-0.4782 0.86078-1.09031 0.26779-1.07119 0.97554-3.86391 1.1477-4.60991 0.0574-0.24867 1.07118-2.54406 3.15616-2.54406 0.82251 0 1.03293 0.65037 1.03293 1.33898 0 1.09032-0.8034 3.27093-1.18596 4.28474-0.17216 0.45908-0.24867 0.66949-0.24867 1.05205 0 0.89903 0.66949 1.56852 1.56853 1.56852 1.79805 0 2.50582-2.79273 2.50582-2.94576 0-0.19128-0.17216-0.19128-0.22956-0.19128-0.19128 0-0.19128 0.0574-0.28693 0.34431-0.28691 1.0138-0.89903 2.37191-1.95107 2.37191-0.32519 0-0.45909-0.19128-0.45909-0.63123 0-0.47821 0.17216-0.93729 0.3443-1.3581 0.36344-0.99468 1.16683-3.11792 1.16683-4.20822 0-1.24334-0.76513-2.04672-2.19974-2.04672s-2.41018 0.84163-3.11792 1.85544c-0.0192-0.24868-0.0765-0.89904-0.6121-1.35811-0.4782-0.4017-1.09032-0.49733-1.56852-0.49733-1.72154 0-2.65882 1.22421-2.984 1.66416-0.0957-1.09032-0.89903-1.66416-1.75981-1.66416-0.87991 0-1.24333 0.746-1.41549 1.0903-0.3443 0.66949-0.59298 1.79806-0.59298 1.85544 0 0.19128 0.19128 0.19128 0.22954 0.19128 0.19128 0 0.21042-0.0191 0.32518-0.43995 0.32519-1.3581 0.70775-2.27626 1.39637-2.27626 0.30605 0 0.59298 0.15302 0.59298 0.8799 0 0.4017-0.0574 0.6121-0.30607 1.60677z" stroke-linejoin="round" stroke-miterlimit="1e5" stroke-width="1.33333"/>
   <path d="m91.6351 137.55h-0.45525c-0.0402 0.29458-0.17406 1.08458-0.34814 1.21847-0.10704 0.0803-1.13813 0.0803-1.32559 0.0803h-2.46371c1.40592-1.24524 1.87456-1.62017 2.67795-2.24948 0.99085-0.79 1.91474-1.62016 1.91474-2.89219 0-1.62016-1.41931-2.61101-3.1332-2.61101-1.66034 0-2.78509 1.16491-2.78509 2.39677 0 0.68288 0.57576 0.74982 0.70967 0.74982 0.32136 0 0.70966-0.22761 0.70966-0.70964 0-0.24103-0.0938-0.70967-0.79002-0.70967 0.41511-0.95067 1.3256-1.24525 1.95493-1.24525 1.33898 0 2.03525 1.0444 2.03525 2.12898 0 1.16491-0.83018 2.0888-1.25864 2.57083l-3.22696 3.18677c-0.13392 0.12051-0.13392 0.1473-0.13392 0.5222h5.51659z" stroke-linejoin="round" stroke-miterlimit="1e5" stroke-width="1.33333"/>
  </symbol>
 </defs>
 <path d="m71.7323 104.222a28.798 28.7546 0 0 0 -24.6514 13.955 21.0226 20.9908 0 0 0 -14.8933 -6.19213 21.0226 20.9908 0 0 0 -21.024 20.9902 21.0226 20.9908 0 0 0 21.024 20.9925 21.0226 20.9908 0 0 0 14.8888 -6.1944 28.798 28.7546 0 0 0 24.6559 13.9572 28.798 28.7546 0 0 0 28.7979 -28.7553 28.798 28.7546 0 0 0 -28.7979 -28.7531z" color="#000000" color-rendering="auto" fill="#dcdcdc" image-rendering="auto" shape-rendering="auto" solid-color="#000000" stroke="#555" stroke-width="2" style="isolation:auto;mix-blend-mode:normal"/>
 <path d="m56.8921 132.718h5.33681c0.26778 0 0.63122 0 0.63122-0.38256s-0.36344-0.38257-0.63122-0.38257h-5.33681v-5.35591c0-0.26779 0-0.63123-0.38255-0.63123-0.38257 0-0.38257 0.36344-0.38257 0.63123v5.35591h-5.35592c-0.26778 0-0.63122 0-0.63122 0.38257 0 0.38258 0.36344 0.38256 0.63122 0.38256h5.35592v5.35592c0 0.2678 0 0.63123 0.38257 0.63123 0.38255 0 0.38255-0.36343 0.38255-0.63123z" stroke-linejoin="round" stroke-miterlimit="1e5" stroke-width="1.33333"/>
 <use transform="translate(-68.8979 42.0267)" width="100%" height="100%" xlink:href="#g4044"/>
 <ellipse cx="81.3958" cy="30.2544" rx="28.798" ry="28.7546" color="#000000" color-rendering="auto" fill="#dcdcdc" image-rendering="auto" shape-rendering="auto" solid-color="#000000" stroke="#555" stroke-width="2" style="isolation:auto;mix-blend-mode:normal"/>
 <ellipse cx="22.5226" cy="30.2544" rx="21.0226" ry="20.9908" color="#000000" color-rendering="auto" fill="#dcdcdc" image-rendering="auto" shape-rendering="auto" solid-color="#000000" stroke="#555" stroke-width="2" style="isolation:auto;mix-blend-mode:normal"/>
 <use transform="translate(-77.6897 -62.0434)" width="100%" height="100%" xlink:href="#g4044"/>
 <path d="m58.0899 83.9898h-6.58996v-24.5292h-7.20981v24.5292h-6.58997l10.1949 14.8615z" color="#000000" color-rendering="auto" fill="#f00" image-rendering="auto" shape-rendering="auto" solid-color="#000000" stroke-linejoin="round" stroke-miterlimit="1e5" style="isolation:auto;mix-blend-mode:normal"/>
 <g transform="translate(5.35521 .986454)" fill="#f00">
  <path d="m68.8711 77.5575q-1.38672-0.572916-3.14452-1.88151-1.7513-1.30859-2.91666-2.71484-0.904947 1.25-2.61718 2.58463-1.71224 1.32812-3.46354 2.08984l-0.436197-0.716145q1.6927-0.813801 3.32031-2.11588 1.63411-1.30208 2.43489-2.49348h1.4388q1.02864 1.33463 2.7539 2.59765 1.73177 1.25651 3.16406 1.8164zm-2.62369-0.423176h-6.78384v-0.78776h6.78384zm0.208332 6.20442h-7.34374v0.651041h-1.02213v-5.07161h9.39452v5.03254h-1.02864zm-7.34374-0.787759h7.34374v-2.84505h-7.34374z"/>
  <path d="m74.086 72.4013q-0.410156 1.45182-1.71224 3.84765h0.384113v7.86457h-1.03515v-6.72525q-0.703123 1.13281-1.45833 1.99218l-0.664062-0.533853q1.17838-1.45182 2.16797-3.46354 0.996091-2.01172 1.28906-3.15755zm8.64582 8.82811-0.664062 0.735675q-1.00911-0.865884-2.0638-2.22656-1.05469-1.36719-1.71875-2.55859v3.46354h1.73828v0.774738h-1.73828v2.59765h-0.976559v-2.59765h-1.89453v-0.774738h1.89453v-3.45052q-1.95312 3.24218-3.90624 4.75911l-0.553384-0.598958q0.878904-0.742186 2.14192-2.3177 1.26302-1.58203 1.97265-3.23567h-3.42447v-0.800779h3.74348v-2.76041h1.04166v2.76041h3.91926v0.800779h-3.71744q0.273437 0.651042 1.47786 2.41536 1.21094 1.75781 2.72786 3.01432z"/>
 </g>
 <use width="100%" height="100%" xlink:href="#g4107"/>
 <use transform="translate(1.2305 -104.07)" width="100%" height="100%" xlink:href="#g4107"/>
</svg>
