<?xml version="1.0" encoding="UTF-8"?>
<svg width="212.937" height="98.8458" version="1.1" viewBox="0 0 212.93678 98.845848" xmlns="http://www.w3.org/2000/svg"><defs><marker id="marker5913" overflow="visible" orient="auto"><path transform="matrix(-.4 0 0 -.4 -4 0)" d="m0 0 5-5-17.5 5 17.5 5z" fill="#fff" fill-rule="evenodd" stroke="#fff" stroke-width="1pt"/></marker></defs><g transform="translate(29.3255 -283.604)"><g shape-rendering="auto"><g fill="#696969"><rect x="133.355" y="322.826" width="5.00915" height="8.10498" color="#000000" color-rendering="auto" image-rendering="auto" solid-color="#000000" style="isolation:auto;mix-blend-mode:normal"/><rect x="143.477" y="322.826" width="5.00915" height="8.10498" color="#000000" color-rendering="auto" image-rendering="auto" solid-color="#000000" style="isolation:auto;mix-blend-mode:normal"/><rect x="153.6" y="322.826" width="5.00915" height="8.10498" color="#000000" color-rendering="auto" image-rendering="auto" solid-color="#000000" style="isolation:auto;mix-blend-mode:normal"/></g><g><rect x="163.723" y="322.826" width="5.00915" height="8.10498" color="#000000" color-rendering="auto" fill="#ff4747" image-rendering="auto" solid-color="#000000" style="isolation:auto;mix-blend-mode:normal"/><path d="m124.382 330.181h53.6803l5.04904 35.648h-63.7784z" color="#000000" color-rendering="auto" fill="#696969" image-rendering="auto" solid-color="#000000" style="isolation:auto;mix-blend-mode:normal"/><rect x="126.262" y="332.272" width="49.5613" height="29.8695" rx="0" ry="0" color="#000000" color-rendering="auto" fill="#fff" image-rendering="auto" solid-color="#000000" style="isolation:auto;mix-blend-mode:normal"/></g><path transform="matrix(.885502 0 0 .885502 -628.684 214.623)" d="m901.337 150.018-3.58454 3.92398m-6.60301-9.86739-1.69793 5.00654m-10.1059-6.70463 0.18866 5.31583m-11.8129-2.76866 2.07527 4.85188m29.7184-1.28586-3.20723 4.20236m-7.44727-9.2967-1.32062 5.13025m-10.591-5.97928 0.56599 5.28489m-11.9388-1.88868 2.45259 4.66631m29.5422-3.47765-2.8299 4.4498m-8.21969-8.69507-0.9433 5.22304m-11.0042-5.22302 0.94331 5.22304m-11.9929-0.97777 2.82991 4.4498m29.1649-5.6385-2.45258 4.66631m-8.92027-8.06252-0.56598 5.2849m-11.3456-4.43582 1.32063 5.13024m-11.9751-0.0359 3.20724 4.20236m28.5864-7.76841-2.07526 4.85188m-9.54901-7.39904-0.18865 5.31584m-11.6152-3.61771 1.69795 5.00653m-11.8854 0.93685 3.58455 3.924m38.9096-6.87725-5.206 6.2349m-6.22962-12.2896-2.31377 7.77593m-10.5586-9.17314 0.57846 8.13154m-13.0916-4.87133 3.47067 7.30176m31.2644-4.69361-4.62755 6.63793m-7.2391-11.7611-1.73532 7.94188m-11.2088-8.4076 1.1569 8.06041m-13.3827-3.86872 4.04912 6.99356m30.7865-6.99358-4.0491 6.99355m-8.17671-11.1852-1.15687 8.06042m-11.7873-7.59465 1.73534 7.94187m-13.6019-2.8187 4.62756 6.63794m30.1075-9.24612-3.47065 7.30176m-9.0425-10.562-0.57844 8.13155m-12.2939-6.7343 2.31378 7.77591m-13.7493-1.72125 5.206 6.2349m43.2553-7.56026-8.87962 8.87962m-3.60073-16.8172-4.4398 11.6092m-9.83646-14.255 2e-5 12.519m-14.2762-9.87315 4.43982 11.6092m-16.9201-3.67158 8.87962 8.87962" color="#000000" color-rendering="auto" fill="none" image-rendering="auto" solid-color="#000000" stroke="#000" stroke-width=".363347" style="isolation:auto;mix-blend-mode:normal"/><path d="m131.282 347.608a27.947 27.947 0 0 1 39.523 0" color="#000000" color-rendering="auto" fill="none" image-rendering="auto" solid-color="#000000" style="isolation:auto;mix-blend-mode:normal"/><path d="m167.983 338.03-13.9114 22.2598 1.71242 0.68181z" color="#000000" color-rendering="auto" fill="#f00" image-rendering="auto" solid-color="#000000" style="isolation:auto;mix-blend-mode:normal"/><g fill="#696969"><path d="m151.271 357.271a10.4245 10.4126 0 0 0 -7.5236 3.04778 10.4245 10.4126 0 0 0 -1.54118 1.98263h17.8232a10.4245 10.4126 0 0 0 -1.53958 -1.98263 10.4245 10.4126 0 0 0 -7.21883 -3.04778z" color="#000000" color-rendering="auto" image-rendering="auto" solid-color="#000000" style="isolation:auto;mix-blend-mode:normal"/><rect x="22.9985" y="284.674" width="3.90959" height="6.32586" color="#000000" color-rendering="auto" image-rendering="auto" solid-color="#000000" style="isolation:auto;mix-blend-mode:normal"/><rect x="30.8991" y="284.674" width="3.90959" height="6.32586" color="#000000" color-rendering="auto" image-rendering="auto" solid-color="#000000" style="isolation:auto;mix-blend-mode:normal"/><rect x="38.7998" y="284.674" width="3.90959" height="6.32586" color="#000000" color-rendering="auto" image-rendering="auto" solid-color="#000000" style="isolation:auto;mix-blend-mode:normal"/></g><g><rect x="46.7004" y="284.674" width="3.90959" height="6.32586" color="#000000" color-rendering="auto" fill="#ff4747" image-rendering="auto" solid-color="#000000" style="isolation:auto;mix-blend-mode:normal"/><path d="m15.9954 290.414h41.8969l3.94072 27.8229h-49.7784z" color="#000000" color-rendering="auto" fill="#696969" image-rendering="auto" solid-color="#000000" style="isolation:auto;mix-blend-mode:normal"/><rect x="17.4632" y="292.046" width="38.6821" height="23.3129" rx="0" ry="0" color="#000000" color-rendering="auto" fill="#fff" image-rendering="auto" solid-color="#000000" style="isolation:auto;mix-blend-mode:normal"/></g><path transform="matrix(.691125 0 0 .691125 -571.764 200.223)" d="m901.337 150.018-3.58454 3.92398m-6.60301-9.86739-1.69793 5.00654m-10.1059-6.70463 0.18866 5.31583m-11.8129-2.76866 2.07527 4.85188m29.7184-1.28586-3.20723 4.20236m-7.44727-9.2967-1.32062 5.13025m-10.591-5.97928 0.56599 5.28489m-11.9388-1.88868 2.45259 4.66631m29.5422-3.47765-2.8299 4.4498m-8.21969-8.69507-0.9433 5.22304m-11.0042-5.22302 0.94331 5.22304m-11.9929-0.97777 2.82991 4.4498m29.1649-5.6385-2.45258 4.66631m-8.92027-8.06252-0.56598 5.2849m-11.3456-4.43582 1.32063 5.13024m-11.9751-0.0359 3.20724 4.20236m28.5864-7.76841-2.07526 4.85188m-9.54901-7.39904-0.18865 5.31584m-11.6152-3.61771 1.69795 5.00653m-11.8854 0.93685 3.58455 3.924m38.9096-6.87725-5.206 6.2349m-6.22962-12.2896-2.31377 7.77593m-10.5586-9.17314 0.57846 8.13154m-13.0916-4.87133 3.47067 7.30176m31.2644-4.69361-4.62755 6.63793m-7.2391-11.7611-1.73532 7.94188m-11.2088-8.4076 1.1569 8.06041m-13.3827-3.86872 4.04912 6.99356m30.7865-6.99358-4.0491 6.99355m-8.17671-11.1852-1.15687 8.06042m-11.7873-7.59465 1.73534 7.94187m-13.6019-2.8187 4.62756 6.63794m30.1075-9.24612-3.47065 7.30176m-9.0425-10.562-0.57844 8.13155m-12.2939-6.7343 2.31378 7.77591m-13.7493-1.72125 5.206 6.2349m43.2553-7.56026-8.87962 8.87962m-3.60073-16.8172-4.4398 11.6092m-9.83646-14.255 2e-5 12.519m-14.2762-9.87315 4.43982 11.6092m-16.9201-3.67158 8.87962 8.87962" color="#000000" color-rendering="auto" fill="none" image-rendering="auto" solid-color="#000000" stroke="#000" stroke-width=".363347" style="isolation:auto;mix-blend-mode:normal"/><path d="m21.3806 304.016a21.8123 21.8123 0 0 1 30.8473 0" color="#000000" color-rendering="auto" fill="none" image-rendering="auto" solid-color="#000000" style="isolation:auto;mix-blend-mode:normal"/><g><path d="m50.026 296.541-10.8577 17.3735 1.33652 0.53215z" color="#000000" color-rendering="auto" fill="#f00" image-rendering="auto" solid-color="#000000" style="isolation:auto;mix-blend-mode:normal"/><path d="m36.9821 311.557a8.13621 8.12691 0 0 0 -5.87209 2.37876 8.13621 8.12691 0 0 0 -1.20288 1.54743h13.9108a8.13621 8.12691 0 0 0 -1.20163 -1.54743 8.13621 8.12691 0 0 0 -5.63422 -2.37876z" color="#000000" color-rendering="auto" fill="#696969" image-rendering="auto" solid-color="#000000" style="isolation:auto;mix-blend-mode:normal"/><rect transform="rotate(90)" x="322.135" y="-40.8761" width="41.2226" height="69.7017" color="#000000" color-rendering="auto" fill="#8b8b8b" image-rendering="auto" solid-color="#000000" style="isolation:auto;mix-blend-mode:normal"/></g><path d="m40.8761 322.135v41.2226" color="#000000" color-rendering="auto" fill="none" image-rendering="auto" solid-color="#000000" stroke="#3d3d3d" stroke-width="5" style="isolation:auto;mix-blend-mode:normal"/><path d="m-11.9977 342.746h42.2762" color="#000000" color-rendering="auto" fill="none" image-rendering="auto" marker-end="url(#marker5913)" solid-color="#000000" stroke="#fff" stroke-width="2" style="isolation:auto;mix-blend-mode:normal"/><g><circle cx="119.121" cy="342.604" r="13.435" color="#000000" color-rendering="auto" fill="#f44" image-rendering="auto" solid-color="#000000" style="isolation:auto;mix-blend-mode:normal"/><path d="m119.12 358.514a23.435 23.435 0 0 0 -23.4336 23.4355h46.8691a23.435 23.435 0 0 0 -23.4355 -23.4355z" color="#000000" color-rendering="auto" fill="#f44" image-rendering="auto" solid-color="#000000" style="isolation:auto;mix-blend-mode:normal"/><circle cx="12.3903" cy="299.748" r="7.64412" color="#000000" color-rendering="auto" fill="#44f" image-rendering="auto" solid-color="#000000" style="isolation:auto;mix-blend-mode:normal"/><path d="m12.3898 308.801a13.3338 13.3338 0 0 0 -13.333 13.3341h26.6671a13.3338 13.3338 0 0 0 -13.3341 -13.3341z" color="#000000" color-rendering="auto" fill="#44f" image-rendering="auto" solid-color="#000000" style="isolation:auto;mix-blend-mode:normal"/></g></g><g stroke-width="1.5"><path d="m95.0405 326.492c-0.018-0.054-0.09-0.198-0.09-0.252 0-0.018 0.018-0.036 0.324-0.27l1.746-1.368c2.412-1.872 3.204-2.502 4.446-2.61 0.126-0.018 0.306-0.018 0.306-0.324 0-0.108-0.054-0.198-0.198-0.198-0.198 0-0.414 0.036-0.612 0.036h-0.684c-0.558 0-1.152-0.036-1.692-0.036-0.126 0-0.342 0-0.342 0.324 0 0.18 0.126 0.198 0.234 0.198 0.198 0.018 0.432 0.09 0.432 0.342 0 0.36-0.54 0.792-0.684 0.9l-7.056 5.49 1.494-5.94c0.162-0.612 0.198-0.792 1.476-0.792 0.342 0 0.504 0 0.504-0.342 0-0.18-0.18-0.18-0.27-0.18-0.324 0-0.702 0.036-1.044 0.036h-2.124c-0.324 0-0.72-0.036-1.044-0.036-0.144 0-0.342 0-0.342 0.342 0 0.18 0.162 0.18 0.432 0.18 1.098 0 1.098 0.144 1.098 0.342 0 0.036 0 0.144-0.072 0.414l-2.43 9.684c-0.162 0.63-0.198 0.81-1.458 0.81-0.342 0-0.522 0-0.522 0.324 0 0.198 0.162 0.198 0.27 0.198 0.342 0 0.702-0.036 1.044-0.036h2.106c0.342 0 0.72 0.036 1.062 0.036 0.144 0 0.342 0 0.342-0.342 0-0.18-0.162-0.18-0.432-0.18-1.098 0-1.098-0.144-1.098-0.324 0-0.126 0.108-0.576 0.18-0.864l0.702-2.79 2.736-2.142c0.522 1.152 1.476 3.456 2.214 5.22 0.054 0.108 0.09 0.216 0.09 0.342 0 0.54-0.72 0.558-0.882 0.558s-0.342 0-0.342 0.342c0 0.18 0.198 0.18 0.252 0.18 0.63 0 1.296-0.036 1.926-0.036h0.864c0.27 0 0.576 0.036 0.846 0.036 0.108 0 0.306 0 0.306-0.342 0-0.18-0.162-0.18-0.342-0.18-0.666-0.018-0.9-0.162-1.17-0.81z" fill="#f00"/><path d="m-11.7171 290.972c-0.018-0.054-0.09-0.198-0.09-0.252 0-0.018 0.018-0.036 0.324-0.27l1.746-1.368c2.412-1.872 3.204-2.502 4.446-2.61 0.126-0.018 0.306-0.018 0.306-0.324 0-0.108-0.054-0.198-0.198-0.198-0.198 0-0.414 0.036-0.612 0.036h-0.684c-0.558 0-1.152-0.036-1.692-0.036-0.126 0-0.342 0-0.342 0.324 0 0.18 0.126 0.198 0.234 0.198 0.198 0.018 0.432 0.09 0.432 0.342 0 0.36-0.54 0.792-0.684 0.9l-7.056 5.49 1.494-5.94c0.162-0.612 0.198-0.792 1.476-0.792 0.342 0 0.504 0 0.504-0.342 0-0.18-0.18-0.18-0.27-0.18-0.324 0-0.702 0.036-1.044 0.036h-2.124c-0.324 0-0.72-0.036-1.044-0.036-0.144 0-0.342 0-0.342 0.342 0 0.18 0.162 0.18 0.432 0.18 1.098 0 1.098 0.144 1.098 0.342 0 0.036 0 0.144-0.072 0.414l-2.43 9.684c-0.162 0.63-0.198 0.81-1.458 0.81-0.342 0-0.522 0-0.522 0.324 0 0.198 0.162 0.198 0.27 0.198 0.342 0 0.702-0.036 1.044-0.036h2.106c0.342 0 0.72 0.036 1.062 0.036 0.144 0 0.342 0 0.342-0.342 0-0.18-0.162-0.18-0.432-0.18-1.098 0-1.098-0.144-1.098-0.324 0-0.126 0.108-0.576 0.18-0.864l0.702-2.79 2.736-2.142c0.522 1.152 1.476 3.456 2.214 5.22 0.054 0.108 0.09 0.216 0.09 0.342 0 0.54-0.72 0.558-0.882 0.558s-0.342 0-0.342 0.342c0 0.18 0.198 0.18 0.252 0.18 0.63 0 1.296-0.036 1.926-0.036h0.864c0.27 0 0.576 0.036 0.846 0.036 0.108 0 0.306 0 0.306-0.342 0-0.18-0.162-0.18-0.342-0.18-0.666-0.018-0.9-0.162-1.17-0.81z" fill="#00f"/><path d="m-1.25015 285.124c0.06-0.156 0.108-0.24 0.108-0.36 0-0.396-0.36-0.66-0.696-0.66-0.48 0-0.612 0.42-0.66 0.588l-1.524 5.172c-0.048 0.144-0.048 0.18-0.048 0.192 0 0.108 0.072 0.132 0.192 0.168 0.216 0.096 0.24 0.096 0.264 0.096 0.036 0 0.108 0 0.192-0.204z" fill="#00f"/></g></g></svg>
