<?xml version="1.0" encoding="UTF-8"?>
<svg width="237.98" height="143.281" version="1.1" viewBox="0 0 237.97958 143.28079" xmlns="http://www.w3.org/2000/svg"><defs><marker id="Arrow1Lend-3-1" overflow="visible" orient="auto"><path transform="matrix(-.8 0 0 -.8 -10 0)" d="m0 0 5-5-17.5 5 17.5 5z" fill-rule="evenodd" stroke="#000" stroke-width="1pt"/></marker></defs><g transform="translate(46.1326 -267.101)"><g fill="none"><circle cx="40.5867" cy="299.36" r="31.5093" color="#000000" stroke="#009da3" stroke-width=".5"/><circle cx="40.5867" cy="299.36" r="9.90219" color="#000000" color-rendering="auto" image-rendering="auto" shape-rendering="auto" solid-color="#000000" stroke="#009da3" stroke-width=".5" style="isolation:auto;mix-blend-mode:normal"/><path d="m57.0638 325.543c-11.2875-20.8598-23.836-38.3208-39.1791-47.7309" color="#000000" stroke="#414141"/></g><g><circle cx="40.5867" cy="299.36" r="2.77239" color="#000000" fill="#5e5bff"/><circle cx="136.245" cy="354.78" r="54.8519" color="#000000" fill="none" stroke="#009da3" stroke-width=".5"/><path d="m167.253 399.475c-20.9582-31.3705-42.4015-61.1681-65.4158-86.743" color="#000000" fill="none" stroke="#414141"/><circle cx="136.245" cy="354.78" r="2.77239" color="#000000" fill="#5e5bff"/></g><g fill="none"><g stroke="#009da3" stroke-width=".5"><path d="m-12.4398 344.949 24.1209-58.1417" color="#000000"/><path d="m-3.25096 354.318 57.5699-26.597" color="#000000"/><path d="m32.4197 304.973 59.9558 82.737" color="#000000"/><path d="m41.5498 289.518 101.088 10.7731" color="#000000"/><ellipse cx="-5.8075" cy="347.657" rx="7.15633" ry="7.12998" color="#000000"/></g><path d="m-35.1231 351.311c41.5483-41.5226 35.5187 56.8687 66.0686 40.3276" color="#000000" stroke="#414141"/></g><ellipse cx="-5.8075" cy="347.657" rx="1.76516" ry="1.75866" color="#000000" fill="#5e5bff"/><g><g stroke-linejoin="round" stroke-miterlimit="1e5" stroke-width="1.5"><path d="m98.0721 374.251c0-0.054 0-0.09-0.306-0.396-1.8-1.818-2.808-4.788-2.808-8.46 0-3.492 0.846-6.498 2.934-8.622 0.18-0.162 0.18-0.198 0.18-0.252 0-0.108-0.09-0.144-0.162-0.144-0.234 0-1.71 1.296-2.592 3.06-0.918 1.818-1.332 3.744-1.332 5.958 0 1.602 0.252 3.744 1.188 5.67 1.062 2.16 2.538 3.33 2.736 3.33 0.072 0 0.162-0.036 0.162-0.144z"/><path d="m102.694 362.641h1.656c0.342 0 0.522 0 0.522-0.324 0-0.198-0.108-0.198-0.468-0.198h-1.584l0.666-2.628c0.072-0.252 0.072-0.288 0.072-0.414 0-0.288-0.234-0.45-0.468-0.45-0.144 0-0.558 0.054-0.702 0.63l-0.702 2.862h-1.692c-0.36 0-0.522 0-0.522 0.342 0 0.18 0.126 0.18 0.468 0.18h1.602l-1.188 4.752c-0.144 0.63-0.198 0.81-0.198 1.044 0 0.846 0.594 1.62 1.602 1.62 1.818 0 2.79-2.628 2.79-2.754 0-0.108-0.072-0.162-0.18-0.162-0.036 0-0.108 0-0.144 0.072-0.018 0.018-0.036 0.036-0.162 0.324-0.378 0.9-1.206 2.16-2.25 2.16-0.54 0-0.576-0.45-0.576-0.846 0-0.018 0-0.36 0.054-0.576z"/><path d="m108.95 369.949c0-1.044-0.342-1.818-1.08-1.818-0.576 0-0.864 0.468-0.864 0.864s0.27 0.882 0.882 0.882c0.234 0 0.432-0.072 0.594-0.234 0.036-0.036 0.054-0.036 0.072-0.036 0.036 0 0.036 0.252 0.036 0.342 0 0.594-0.108 1.764-1.152 2.934-0.198 0.216-0.198 0.252-0.198 0.288 0 0.09 0.09 0.18 0.18 0.18 0.144 0 1.53-1.332 1.53-3.402z"/><path d="m124.868 362.533c-0.576 0.108-0.792 0.54-0.792 0.882 0 0.432 0.342 0.576 0.594 0.576 0.54 0 0.918-0.468 0.918-0.954 0-0.756-0.864-1.098-1.62-1.098-1.098 0-1.71 1.08-1.872 1.422-0.414-1.35-1.53-1.422-1.854-1.422-1.836 0-2.808 2.358-2.808 2.754 0 0.072 0.072 0.162 0.198 0.162 0.144 0 0.18-0.108 0.216-0.18 0.612-1.998 1.818-2.376 2.34-2.376 0.81 0 0.972 0.756 0.972 1.188 0 0.396-0.108 0.81-0.324 1.674l-0.612 2.466c-0.27 1.08-0.792 2.07-1.746 2.07-0.09 0-0.54 0-0.918-0.234 0.648-0.126 0.792-0.666 0.792-0.882 0-0.36-0.27-0.576-0.612-0.576-0.432 0-0.9 0.378-0.9 0.954 0 0.756 0.846 1.098 1.62 1.098 0.864 0 1.476-0.684 1.854-1.422 0.288 1.062 1.188 1.422 1.854 1.422 1.836 0 2.808-2.358 2.808-2.754 0-0.09-0.072-0.162-0.18-0.162-0.162 0-0.18 0.09-0.234 0.234-0.486 1.584-1.53 2.322-2.34 2.322-0.63 0-0.972-0.468-0.972-1.206 0-0.396 0.072-0.684 0.36-1.872l0.63-2.448c0.27-1.08 0.882-1.872 1.71-1.872 0.036 0 0.54 0 0.918 0.234z"/><path d="m131.428 365.395c0-1.368-0.18-3.6-1.188-5.688-1.062-2.16-2.538-3.33-2.736-3.33-0.072 0-0.162 0.036-0.162 0.144 0 0.054 0 0.09 0.306 0.396 1.8 1.818 2.808 4.788 2.808 8.46 0 3.492-0.846 6.498-2.934 8.622-0.18 0.162-0.18 0.198-0.18 0.252 0 0.108 0.09 0.144 0.162 0.144 0.234 0 1.71-1.296 2.592-3.06 0.918-1.836 1.332-3.78 1.332-5.94z"/><path d="m50.0177 399.574h1.656c0.342 0 0.522 0 0.522-0.324 0-0.198-0.108-0.198-0.468-0.198h-1.584l0.666-2.628c0.072-0.252 0.072-0.288 0.072-0.414 0-0.288-0.234-0.45-0.468-0.45-0.144 0-0.558 0.054-0.702 0.63l-0.702 2.862h-1.692c-0.36 0-0.522 0-0.522 0.342 0 0.18 0.126 0.18 0.468 0.18h1.602l-1.188 4.752c-0.144 0.63-0.198 0.81-0.198 1.044 0 0.846 0.594 1.62 1.602 1.62 1.818 0 2.79-2.628 2.79-2.754 0-0.108-0.072-0.162-0.18-0.162-0.036 0-0.108005 0-0.144005 0.072-0.018 0.018-0.036 0.036-0.162 0.324-0.378 0.9-1.206 2.16-2.25 2.16-0.54 0-0.576-0.45-0.576-0.846 0-0.018 0-0.36 0.054-0.576z"/><path d="m-37.6046 324.563c-0.576 0.108-0.792 0.54-0.792 0.882 0 0.432 0.342 0.576 0.594 0.576 0.539999 0 0.917999-0.468 0.917999-0.954 0-0.756-0.863999-1.098-1.62-1.098-1.098 0-1.71 1.08-1.872 1.422-0.414-1.35-1.53-1.422-1.854-1.422-1.836 0-2.808 2.358-2.808 2.754 0 0.072 0.072 0.162 0.198 0.162 0.144 0 0.18-0.108 0.216-0.18 0.612-1.998 1.818-2.376 2.34-2.376 0.81 0 0.972 0.756 0.972 1.188 0 0.396-0.108 0.81-0.324 1.67399l-0.612 2.466c-0.27 1.08-0.792 2.07-1.746 2.07-0.09 0-0.54 0-0.918-0.234 0.648-0.126 0.792-0.666 0.792-0.882 0-0.36-0.27-0.576-0.612-0.576-0.432 0-0.9 0.378-0.9 0.954 0 0.756 0.846 1.09801 1.62 1.09801 0.864 0 1.476-0.68401 1.854-1.42201 0.288 1.062 1.188 1.42201 1.854 1.42201 1.836 0 2.808-2.35801 2.808-2.75401 0-0.09-0.072-0.162-0.18-0.162-0.162 0-0.18 0.09-0.234 0.234-0.486 1.584-1.53 2.322-2.34 2.322-0.63 0-0.972-0.468-0.972-1.206 0-0.396 0.072-0.684 0.36-1.872l0.63-2.44799c0.27-1.08 0.882-1.872 1.71-1.872 0.036 0 0.54 0 0.918 0.234z"/></g><path d="m-41.6122 401.55v-64.2986" color="#000000" fill="none" marker="none" marker-end="url(#Arrow1Lend-3-1)" stroke="#000" stroke-width=".6"/><path d="m-41.6122 401.55h82.3856" color="#000000" fill="none" marker="none" marker-end="url(#Arrow1Lend-3-1)" stroke="#000" stroke-width=".6"/><path d="m-20.6281 362.447h3.0127c2.47472 0 4.94943-1.82915 4.94943-3.87348 0-1.39875-1.18356-2.67198-3.44308-2.67198h-5.54121c-0.340725 0-0.502125 0-0.502125 0.34072 0 0.17933 0.1614 0.17933 0.43038 0.17933 1.0939 0 1.0939 0.1434 1.0939 0.34072 0 0.0359 0 0.1434-0.07173 0.41246l-2.42092 9.64782c-0.1614 0.62764-0.197265 0.80697-1.45255 0.80697-0.340722 0-0.52005 0-0.52005 0.32278 0 0.19727 0.161394 0.19727 0.26899 0.19727 0.340724 0 0.699375-0.0359 1.0401-0.0359h2.09812c0.340725 0 0.717315 0.0359 1.05804 0.0359 0.14346 0 0.340725 0 0.340725-0.34073 0-0.17932-0.1614-0.17932-0.430395-0.17932-1.07596 0-1.09389-0.12555-1.09389-0.30486 0-0.0897 0.01792-0.21519 0.03586-0.30486zm1.29116-5.32604c0.1614-0.66351 0.23313-0.69937 0.932505-0.69937h1.77534c1.34496 0 2.45679 0.43038 2.45679 1.77534 0 0.46626-0.23313 1.99054-1.05802 2.81544-0.30486 0.3228-1.16564 1.00423-2.79752 1.00423h-2.52852z" stroke-linejoin="round" stroke-miterlimit="1e5" stroke-width="1.5"/></g></g></svg>
