<?xml version="1.0" encoding="UTF-8"?>
<svg width="160.184" height="119.975" version="1.1" viewBox="0 0 160.18382 119.97502" xmlns="http://www.w3.org/2000/svg" xmlns:xlink="http://www.w3.org/1999/xlink">
 <defs>
  <marker id="Arrow1Lend1-6" overflow="visible" orient="auto">
   <path transform="matrix(-.8 0 0 -.8 -10 0)" d="m0 0 5-5-17.5 5 17.5 5z" fill="#f00" fill-rule="evenodd" stroke="#f00" stroke-width="1pt"/>
  </marker>
  <symbol id="symbol4915">
   <path d="m134.862 65.585c-0.64559 0.17932-0.96837 0.78903-0.96837 1.23735 0 0.39453 0.30486 0.82491 0.89664 0.82491 0.62764 0 1.29115-0.52005 1.29115-1.39875 0-0.95045-0.95043-1.57809-2.04433-1.57809-1.02216 0-1.68567 0.77112-1.9188 1.0939-0.44832-0.75318-1.45255-1.0939-2.47471-1.0939-2.25953 0-3.47896 2.20573-3.47896 2.79751 0 0.25106 0.26899 0.25106 0.43038 0.25106 0.2152 0 0.34073 0 0.41246-0.23312 0.52005-1.63188 1.81121-2.16987 2.54645-2.16987 0.68145 0 1.00423 0.32279 1.00423 0.89664 0 0.34073-0.25105 1.32702-0.41245 1.97261l-0.60971 2.45677c-0.26899 1.09391-0.91458 1.63188-1.52428 1.63188-0.0897 0-0.50213 0-0.86078-0.26898 0.64557-0.17932 0.96837-0.78904 0.96837-1.23736 0-0.39452-0.30486-0.82491-0.89664-0.82491-0.62765 0-1.29116 0.52005-1.29116 1.39876 0 0.95043 0.95044 1.57808 2.04434 1.57808 1.02216 0 1.68567-0.77111 1.9188-1.09389 0.44832 0.75316 1.45256 1.09389 2.47472 1.09389 2.25952 0 3.47894-2.20572 3.47894-2.7975 0-0.25107-0.26898-0.25107-0.43038-0.25107-0.21519 0-0.34072 0-0.41245 0.23313-0.52005 1.63188-1.8112 2.16985-2.54644 2.16985-0.68145 0-1.00424-0.32278-1.00424-0.89662 0-0.37659 0.23313-1.32704 0.39452-1.99055 0.12553-0.46624 0.53799-2.15193 0.62764-2.43885 0.269-1.07596 0.89664-1.63188 1.52428-1.63188 0.0897 0 0.50213 0 0.86078 0.269z" stroke-width="1.5"/>
  </symbol>
  <symbol id="symbol4920">
   <use xlink:href="#symbol4915"/>
  </symbol>
 </defs>
 <g fill="none" stroke-linecap="round">
  <path d="m93.5164 70.66-14.8411-2.90731m32.5768 6.38165s-17.7357-3.47434-17.7357-3.47434m39.3043 7.69952-21.5686-4.22518m48.3631 9.4741-26.7945-5.24892m-67.6552-8.13086 13.5098-2.47597m1.2931 5.86972 13.548-2.96241m4.4142 7.08047 13.3215-3.60613m8.93232 8.70809 12.6363-4.48291m15.6558 10.9692 11.1387-5.7203m-79.6469-9.98603-14.8029-3.39375m32.7651 7.51181-17.9622-4.11806m40.2161 9.22002s-22.2538-5.10196-22.2538-5.10196m50.5459 11.5883-28.2921-6.48631m-70.8052-9.72059 15.7862-2.89318m-1.26864 6.90794 16.0715-3.51419m1.86706 8.47501 16.0952-4.35695m6.63514 10.6429 15.6187-5.54094m14.1192 13.7648s14.1729-7.2785 14.1729-7.2785m-84.5797-12.1921-14.5176-4.01476m32.4562 8.97558-17.9386-4.96082m40.6689 11.2468-22.7303-6.28595m52.4682 14.5098-29.7379-8.22387m-73.8775-11.836 18.691-3.42554m-4.85492 8.25074 19.3725-4.23598m-1.89717 10.3304 19.8358-5.36954m2.93212 13.3096 19.7982-7.02369m11.0956 17.7976 18.6423-9.57378m-126.094-15.9401 12.5079 5.91108 16.2304 7.67028 21.9052 10.3521 31.1867 14.7384m-45.5154-37.9664-13.8361-4.8252m31.3114 10.9196-17.4753-6.09438m40.2432 14.0345s-22.7679-7.9401-22.7679-7.9401m53.6617 18.7141-30.8938-10.774m-76.558-14.74 22.4787-4.11972m-9.97079 10.0308 23.8068-5.2056m-7.57645 12.8759 25.0518-6.7815m-3.14659 17.1336 25.9145-9.19353m5.27223 23.932 25.6216-13.158" color="#000000" stroke="#000" stroke-width=".3"/>
  <path d="m7.73203 80.658v-78.2168" color="#000000" color-rendering="auto" image-rendering="auto" marker-end="url(#Arrow1Lend1-6)" shape-rendering="auto" solid-color="#000000" stroke="#f00" style="isolation:auto;mix-blend-mode:normal"/>
  <path d="m7.73203 80.658 106.649 6.10521" color="#000000" marker="none" marker-end="url(#Arrow1Lend1-6)" stroke="#f00"/>
 </g>
 <path d="m121.364 64.94c-2.24158 0.53799-3.98106 2.86925-3.98106 5.0391 0 1.72155 1.1477 3.01271 2.83337 3.01271 2.09814 0 3.58656-2.81544 3.58656-5.29016 0-1.63188-0.71732-2.52852-1.32704-3.33549-0.64557-0.80698-1.70361-2.15193-1.70361-2.94097 0-0.39453 0.35867-0.82491 0.98631-0.82491 0.53798 0 0.89664 0.23313 1.27323 0.48418 0.35865 0.21519 0.7173 0.44832 0.9863 0.44832 0.44832 0 0.71731-0.43038 0.71731-0.71731 0-0.39452-0.28693-0.44832-0.9325-0.59178-0.93251-0.19725-1.18356-0.19725-1.4705-0.19725-1.39875 0-2.04433 0.7711-2.04433 1.84707 0 0.96837 0.52005 1.9726 1.07596 3.06649zm0.21521 0.39453c0.44832 0.8249 0.98629 1.79327 0.98629 3.08442 0 1.18358-0.68145 4.17834-2.34919 4.17834-0.9863 0-1.72154-0.75318-1.72154-2.11606 0-1.12977 0.66351-4.50113 3.08444-5.1467z" stroke-width="1.5"/>
 <path d="m119.446 94.311c-1.59005-0.45655-3.21338-0.88186-5.0462-1.12382-2.36254-0.30814-3.63449-3e-3 -4.13691 0.20005-0.72394 0.29272-1.12187 0.8015 0.15836 1.54825 0.95144 0.57458 2.4342 1.07177 4.04344 1.56261 1.53224 0.46735 3.45058 1.01531 5.55088 1.27368 2.24915 0.28162 3.5417-6.5e-4 4.11259-0.27452 0.62334-0.29902 1.04027-0.84575-0.47243-1.66317-1.07329-0.58044-2.61528-1.06526-4.20973-1.52308m4.20839 3.0461c-0.45461 0.2168-1.6861 0.38637-3.94-0.12631-1.38719-0.31758-3.28323-0.88887-4.48093-1.24976-1.28343-0.38671-2.59007-0.78041-3.5491-1.13959-2.05689-0.78344-1.31847-1.20428-1.01791-1.32643 0.39479-0.16044 1.51835-0.37937 3.63475 0.0799 1.20323 0.26671 2.69624 0.70041 3.9506 1.06478 1.51346 0.43964 2.905 0.84386 4.10583 1.28742 1.83045 0.66335 1.81737 1.16168 1.29676 1.40994m-14.4845 1.35624c0.19782-0.0867 0.44762-0.19619 0.0395-0.32789-0.40642-0.13117-0.65661-0.0226-0.8415 0.0577l-8.37971 3.6368c-0.20748 0.0901-0.48995 0.21264-0.0777 0.36117 0.41406 0.14919 0.69622 0.0255 0.91828-0.0718l8.34113-3.6559m4.06491 1.30862c0.1831-0.0843 0.43082-0.19835 6e-3 -0.33551-0.4232-0.13657-0.67138-0.0235-0.86795 0.0661l-8.29587 3.78013c-0.22106 0.10073-0.50201 0.22874-0.0716 0.38381 0.43232 0.15577 0.7129 0.0266 0.91897-0.0683l8.31065-3.82622m-25.7837 2.14829c-0.0576-0.0221-0.22406-0.0609-0.36861-3e-3 -0.0482 0.0193-0.0452 0.0332-0.0111 0.18579l0.35747 1.0413c-0.42066-0.0471-2.62802-0.31266-4.48211 0.43042-3.85118 1.54347-3.57242 5.09972 1.24585 7.23583 3.46579 1.53651 8.08823 1.71436 10.9582 0.33759 0.76188-0.36549 1.32865-0.81989 1.60041-1.25166 0.39104-0.58392 0.23755-0.92445 0.0911-1.24513 0.70817 0.15352 1.97115 0.28202 2.13596 0.20344 0.0823-0.0392 0.0474-0.0818 0.0248-0.0908-0.0123-0.0336-0.70116-0.44982-1.0872-0.6738l-1.38469-0.81475c-0.30472-0.176-0.59169-0.35857-0.89352-0.53282-0.7853-0.46025-0.81161-0.48431 0.0917-0.90663 0.0806-0.0361 0.23637-0.12355-0.16721-0.27982-0.14823-0.0574-0.31327-0.0544-0.44218 3e-3 -0.37175 0.16515-1.26996 0.6174-1.64802 0.78547-0.51239 0.2278-1.87993 0.78177-2.40411 1.01463-0.1528 0.0679-0.35702 0.1586 0.0682 0.33237 0.23472 0.0959 0.37087 0.035 0.74407-0.13211 0.0169-8e-3 0.50614-0.22661 0.93478-0.38221 0.49804-0.16879 0.6453-0.18046 0.92371-0.0692 0.19319 0.0772 0.98253 0.54921 1.62333 0.94928 1.97623 1.20199 0.0189 2.35124-0.58563 2.63882-1.68208 0.80021-4.84773 1.13669-8.20609-0.32346-0.66505-0.28916-3.93965-1.86969-4.68442-3.79279-0.39046-0.95981 0.10727-2.13791 1.79305-2.81832 1.70245-0.68713 4.17169-0.49154 6.48092 0.41179 0.81043 0.31703 0.78189 0.34584 0.9857 0.42562 0.20427 0.08 0.38345 3e-3 0.4485-0.0247 0.21108-0.0904 0.17017-0.10636-0.11585-0.28383l-4.02687-2.37022" stroke-linejoin="round" stroke-miterlimit="1e5" stroke-width="1.33333"/>
 <path d="m7.73203 64.405 16.2282 0.90337v16.2534" color="#000000" color-rendering="auto" fill="none" image-rendering="auto" shape-rendering="auto" solid-color="#000000" stroke="#f00" style="isolation:auto;mix-blend-mode:normal"/>
 <path d="m31.5059 4.233c0.03824-0.0574 0.09568-0.19128 0.09568-0.2678 0-0.13392-0.0192-0.15296-0.459088-0.15296h-13.1985c-0.439952 0-0.459088 0.0192-0.459088 0.15296 0 0.0765 0.05744 0.21042 0.09568 0.2678l6.44622 12.9116c0.13392 0.24867 0.19128 0.36344 0.516464 0.36344s0.38256-0.11472 0.516464-0.36344zm-11.6491 0.95641h10.5014l-5.24115 10.5206z" stroke-linejoin="round" stroke-miterlimit="1e5" stroke-width="1.33333"/>
 <path d="m47.005 3.582c0-0.0574-0.03824-0.19128-0.210416-0.19128-0.05744 0-0.07648 0.0192-0.286928 0.22954l-1.33898 1.47288c-0.172144-0.26781-1.05205-1.70242-3.1753-1.70242-4.2656 0-8.56947 4.22735-8.56947 8.66511 0 3.04139 2.12325 5.24113 5.22203 5.24113 0.841648 0 1.70242-0.17214 2.39104-0.45907 0.9564-0.38256 1.31984-0.78425 1.66414-1.16683 0.17216 0.47821 0.669504 1.18595 0.860784 1.18595 0.09568 0 0.13392-0.0574 0.13392-0.0765 0.03824-0.0382 0.229552-0.76512 0.325184-1.16681l0.36344-1.47288c0.07648-0.32519 0.17216-0.65036 0.248672-0.97554 0.2104-0.86078 0.229536-0.89904 1.31984-0.91816 0.09568 0 0.306064-0.0192 0.306064-0.38256 0-0.13392-0.09568-0.21042-0.248672-0.21042-0.439952 0-1.56851 0.0574-2.00846 0.0574-0.592976 0-2.08499-0.0574-2.67797-0.0574-0.172144 0-0.401696 0-0.401696 0.38256 0 0.21042 0.15312 0.21042 0.573856 0.21042 0.01904 0 0.57384 0 1.01379 0.0382 0.497344 0.0574 0.592976 0.11472 0.592976 0.36344 0 0.17214-0.2104 1.03293-0.401696 1.74067-0.535584 2.10411-3.02226 2.31451-3.69174 2.31451-1.83632 0-3.84478-1.0903-3.84478-4.01692 0-0.59298 0.19128-3.74914 2.19974-6.23583 1.03293-1.30072 2.88837-2.46753 4.78208-2.46753 1.95107 0 3.07965 1.47286 3.07965 3.69174 0 0.76514-0.05744 0.78427-0.05744 0.97555s0.210416 0.19128 0.286928 0.19128c0.248672 0 0.248672-0.0382 0.344304-0.38256z" stroke-linejoin="round" stroke-miterlimit="1e5" stroke-width="1.33333"/>
 <use width="100%" height="100%" xlink:href="#symbol4920"/>
 <use transform="translate(-125.167 20.944)" width="100%" height="100%" xlink:href="#symbol4920"/>
</svg>
