<?xml version="1.0" encoding="UTF-8"?>
<svg width="209.67" height="140.882" version="1.1" viewBox="0 0 209.66986 140.88177" xmlns="http://www.w3.org/2000/svg" xmlns:xlink="http://www.w3.org/1999/xlink">
 <defs>
  <marker id="marker7607" overflow="visible" orient="auto">
   <path transform="matrix(-.8 0 0 -.8 -10 0)" d="m0 0 5-5-17.5 5 17.5 5z" fill="#6d6d6d" fill-rule="evenodd" stroke="#6d6d6d" stroke-width="1pt"/>
  </marker>
  <marker id="marker6395" overflow="visible" orient="auto">
   <path transform="matrix(-.4 0 0 -.4 -4 0)" d="m0 0 5-5-17.5 5 17.5 5z" fill="#f00" fill-rule="evenodd" stroke="#f00" stroke-width="1pt"/>
  </marker>
  <marker id="marker8009" overflow="visible" orient="auto">
   <path transform="matrix(-.4 0 0 -.4 -4 0)" d="m0 0 5-5-17.5 5 17.5 5z" fill="#00f" fill-rule="evenodd" stroke="#00f" stroke-width="1pt"/>
  </marker>
  <symbol id="symbol4807">
   <path d="m184.964 85.446c-0.648 0.18-0.972 0.792-0.972 1.242 0 0.396 0.306 0.828 0.9 0.828 0.63 0 1.296-0.522 1.296-1.404 0-0.954-0.954-1.584-2.052-1.584-1.026 0-1.692 0.774-1.926 1.098-0.45-0.756-1.458-1.098-2.484-1.098-2.268 0-3.492 2.214-3.492 2.808 0 0.252 0.27 0.252 0.432 0.252 0.216 0 0.342 0 0.414-0.234 0.522-1.638 1.818-2.178 2.556-2.178 0.684 0 1.008 0.324 1.008 0.9 0 0.342-0.252 1.332-0.414 1.98l-0.612 2.466c-0.27 1.098-0.918 1.638-1.53 1.638-0.09 0-0.504 0-0.864-0.27 0.648-0.18 0.972-0.792 0.972-1.242 0-0.396-0.306-0.828-0.9-0.828-0.63 0-1.296 0.522-1.296 1.404 0 0.954 0.954 1.584 2.052 1.584 1.026 0 1.692-0.774 1.926-1.098 0.45 0.756 1.458 1.098 2.484 1.098 2.268 0 3.492-2.214 3.492-2.808 0-0.252-0.27-0.252-0.432-0.252-0.216 0-0.342 0-0.414 0.234-0.522 1.638-1.818 2.178-2.556 2.178-0.684 0-1.008-0.324-1.008-0.9 0-0.378 0.234-1.332 0.396-1.998 0.126-0.468 0.54-2.16 0.63-2.448 0.27-1.08 0.9-1.638 1.53-1.638 0.09 0 0.504 0 0.864 0.27z" color="#000000" color-rendering="auto" image-rendering="auto" shape-rendering="auto" solid-color="#000000" stroke-width="1.2" style="isolation:auto;mix-blend-mode:normal"/>
  </symbol>
  <symbol id="symbol5283">
   <path d="m7.96583 7.47391-2.53907 8.88672 2.03907-2.03906v35.3516h35.3516l-2.03906 2.03906 8.88672-2.53906-8.88672-2.53906 2.03906 2.03906h-8.16602v-5.91992h6.42188v-0.400391h-6.42188v-6.2207h6.42188v-0.40039h-6.42188v-6.22266h6.42188v-0.398437h-6.42188v-6.22266h6.42188v-0.400391h-6.42188v-6.42188h-0.40039v6.42188h-6.2207v-6.42188h-0.40039v6.42188h-6.2207v-6.42188h-0.4004v6.42188h-6.22265v-6.42188h-0.39844v6.42188h-5.92187v-8.16602l2.03906 2.03906zm0.5 15.4141h5.92187v6.22266h-5.92187zm6.32031 0h6.22265v6.22266h-6.22265zm6.62305 0h6.2207v6.22266h-6.2207zm6.62109 0h6.2207v6.22266h-6.2207zm-19.5645 6.62109h5.92187v6.22266h-5.92187zm6.32031 0h6.22265v6.22266h-6.22265zm6.62305 0h6.2207v6.22266h-6.2207zm6.62109 0h6.2207v6.22266h-6.2207zm-19.5645 6.62305h5.92187v6.2207h-5.92187zm6.32031 0h6.22265v6.2207h-6.22265zm6.62305 0h6.2207v6.2207h-6.2207zm6.62109 0h6.2207v6.2207h-6.2207zm-19.5645 6.62109h5.92187v5.91992h-5.92187zm6.32031 0h6.22265v5.91992h-6.22265zm6.62305 0h6.2207v5.91992h-6.2207zm6.62109 0h6.2207v5.91992h-6.2207z" color="#000000" color-rendering="auto" dominant-baseline="auto" image-rendering="auto" shape-rendering="auto" solid-color="#000000" style="font-feature-settings:normal;font-variant-alternates:normal;font-variant-caps:normal;font-variant-ligatures:normal;font-variant-numeric:normal;font-variant-position:normal;isolation:auto;mix-blend-mode:normal;shape-padding:0;text-decoration-color:#000000;text-decoration-line:none;text-decoration-style:solid;text-indent:0;text-orientation:mixed;text-transform:none;white-space:normal"/>
  </symbol>
 </defs>
 <g>
  <g>
   <use transform="translate(159.513 -6.52957)" width="100%" height="100%" fill="#0000ff" xlink:href="#symbol5283"/>
   <use transform="translate(121.416 15.6089)" width="100%" height="100%" fill="#8383ff" xlink:href="#symbol5283"/>
   <use transform="translate(83.3145 37.3545)" width="100%" height="100%" fill="#c8c8ff" xlink:href="#symbol5283"/>
   <use transform="translate(-4.42683 88.1699)" width="100%" height="100%" fill="#ff0000" xlink:href="#symbol5283"/>
  </g>
  <use transform="translate(-46.337,45.011)" width="100%" height="100%" fill="#ff0101" xlink:href="#symbol4807"/>
 </g>
 <g fill="none" shape-rendering="auto">
  <path d="m3.039 137.843 164.431-95.615" color="#000000" color-rendering="auto" image-rendering="auto" marker-end="url(#marker7607)" solid-color="#000000" stroke="#6d6d6d" style="isolation:auto;mix-blend-mode:normal"/>
  <path d="m3.039 137.843 149.952-25.5428" color="#000000" color-rendering="auto" image-rendering="auto" marker-end="url(#marker6395)" solid-color="#000000" stroke="#f00" stroke-linecap="round" stroke-width="3" style="isolation:auto;mix-blend-mode:normal"/>
  <path d="m167.47 42.228-7.84058 62.6579" color="#000000" color-rendering="auto" image-rendering="auto" marker-end="url(#marker8009)" solid-color="#000000" stroke="#00f" stroke-linecap="round" stroke-width="3" style="isolation:auto;mix-blend-mode:normal"/>
 </g>
 <circle cx="158.788" cy="110.859" r="5.95152" color="#000000" color-rendering="auto" image-rendering="auto" shape-rendering="auto" solid-color="#000000" stroke="#fff" style="isolation:auto;mix-blend-mode:normal"/>
 <g stroke-width="1.5">
  <path d="m14.5482 89.886c-0.018-0.054-0.09-0.198-0.09-0.252 0-0.018 0.018-0.036 0.324-0.27l1.746-1.368c2.412-1.872 3.204-2.502 4.446-2.61 0.126-0.018 0.306-0.018 0.306-0.324 0-0.108-0.054-0.198-0.198-0.198-0.198 0-0.414 0.036-0.612 0.036h-0.684c-0.558 0-1.152-0.036-1.692-0.036-0.126 0-0.342 0-0.342 0.324 0 0.18 0.126 0.198 0.234 0.198 0.198 0.018 0.432 0.09 0.432 0.342 0 0.36-0.54 0.792-0.684 0.9l-7.056 5.49 1.494-5.94c0.162-0.612 0.198-0.792 1.476-0.792 0.342 0 0.504 0 0.504-0.342 0-0.18-0.18-0.18-0.27-0.18-0.324 0-0.702 0.036-1.044 0.036h-2.124c-0.324 0-0.72-0.036-1.044-0.036-0.144 0-0.342 0-0.342 0.342 0 0.18 0.162 0.18 0.432 0.18 1.098 0 1.098 0.144 1.098 0.342 0 0.036 0 0.144-0.072 0.414l-2.43 9.684c-0.162 0.63-0.198 0.81-1.458 0.81-0.342 0-0.522 0-0.522 0.324 0 0.198 0.162 0.198 0.27 0.198 0.342 0 0.702-0.036 1.044-0.036h2.106c0.342 0 0.72 0.036 1.062 0.036 0.144 0 0.342 0 0.342-0.342 0-0.18-0.162-0.18-0.432-0.18-1.098 0-1.098-0.144-1.098-0.324 0-0.126 0.108-0.576 0.18-0.864l0.702-2.79 2.736-2.142c0.522 1.152 1.476 3.456 2.214 5.22 0.054 0.108 0.09 0.216 0.09 0.342 0 0.54-0.72 0.558-0.882 0.558s-0.342 0-0.342 0.342c0 0.18 0.198 0.18 0.252 0.18 0.63 0 1.296-0.036 1.926-0.036h0.864c0.27 0 0.576 0.036 0.846 0.036 0.108 0 0.306 0 0.306-0.342 0-0.18-0.162-0.18-0.342-0.18-0.666-0.018-0.9-0.162-1.17-0.81z" fill="#f00"/>
  <path d="m150.326 7.369c-0.018-0.054-0.09-0.198-0.09-0.252 0-0.018 0.018-0.036 0.324-0.27l1.746-1.368c2.412-1.872 3.204-2.502 4.446-2.61 0.126-0.018 0.306-0.018 0.306-0.324 0-0.108-0.054-0.198-0.198-0.198-0.198 0-0.414 0.036-0.612 0.036h-0.684c-0.558 0-1.152-0.036-1.692-0.036-0.126 0-0.342 0-0.342 0.324 0 0.18 0.126 0.198 0.234 0.198 0.198 0.018 0.432 0.09 0.432 0.342 0 0.36-0.54 0.792-0.684 0.9l-7.056 5.49 1.494-5.94c0.162-0.612 0.198-0.792 1.476-0.792 0.342 0 0.504 0 0.504-0.342 0-0.18-0.18-0.18-0.27-0.18-0.324 0-0.702 0.036-1.044 0.036h-2.124c-0.324 0-0.72-0.036-1.044-0.036-0.144 0-0.342 0-0.342 0.342 0 0.18 0.162 0.18 0.432 0.18 1.098 0 1.098 0.144 1.098 0.342 0 0.036 0 0.144-0.072 0.414l-2.43 9.684c-0.162 0.63-0.198 0.81-1.458 0.81-0.342 0-0.522 0-0.522 0.324 0 0.198 0.162 0.198 0.27 0.198 0.342 0 0.702-0.036 1.044-0.036h2.106c0.342 0 0.72 0.036 1.062 0.036 0.144 0 0.342 0 0.342-0.342 0-0.18-0.162-0.18-0.432-0.18-1.098 0-1.098-0.144-1.098-0.324 0-0.126 0.108-0.576 0.18-0.864l0.702-2.79 2.736-2.142c0.522 1.152 1.476 3.456 2.214 5.22 0.054 0.108 0.09 0.216 0.09 0.342 0 0.54-0.72 0.558-0.882 0.558s-0.342 0-0.342 0.342c0 0.18 0.198 0.18 0.252 0.18 0.63 0 1.296-0.036 1.926-0.036h0.864c0.27 0 0.576 0.036 0.846 0.036 0.108 0 0.306 0 0.306-0.342 0-0.18-0.162-0.18-0.342-0.18-0.666-0.018-0.9-0.162-1.17-0.81z" fill="#00f"/>
  <path d="m160.793 1.52c0.06-0.156 0.108-0.24 0.108-0.36 0-0.396-0.36-0.66-0.696-0.66-0.48 0-0.612 0.42-0.66 0.588l-1.524 5.172c-0.048 0.144-0.048 0.18-0.048 0.192 0 0.108 0.072 0.132 0.192 0.168 0.216 0.096 0.24 0.096 0.264 0.096 0.036 0 0.108 0 0.192-0.204z" fill="#00f"/>
  <path d="m53.0248 91.709h1.656c0.342 0 0.522 0 0.522-0.324 0-0.198-0.108-0.198-0.468-0.198h-1.584l0.666-2.628c0.072-0.252 0.072-0.288 0.072-0.414 0-0.288-0.234-0.45-0.468-0.45-0.144 0-0.558 0.054-0.702 0.63l-0.702 2.862h-1.692c-0.36 0-0.522 0-0.522 0.342 0 0.18 0.126 0.18 0.468 0.18h1.602l-1.188 4.752c-0.144 0.63-0.198 0.81-0.198 1.044 0 0.846 0.594 1.62 1.602 1.62 1.818 0 2.79-2.628 2.79-2.754 0-0.108-0.072-0.162-0.18-0.162-0.036 0-0.108 0-0.144 0.072-0.018 0.018-0.036 0.036-0.162 0.324-0.378 0.9-1.206 2.16-2.25 2.16-0.54 0-0.576-0.45-0.576-0.846 0-0.018 0-0.36 0.054-0.576z"/>
  <path d="m65.5092 92.429c0-1.638-1.206-1.638-1.224-1.638-0.72 0-1.368 0.756-1.368 1.368 0 0.504 0.378 0.72 0.54 0.81 0.756 0.45 0.9 0.774 0.9 1.134 0 0.396-1.044 4.338-3.15 4.338-1.296 0-1.296-1.08-1.296-1.404 0-1.044 0.504-2.358 1.08-3.798 0.144-0.36 0.198-0.522 0.198-0.81 0-1.044-1.044-1.62-2.034-1.62-1.908 0-2.808 2.448-2.808 2.808 0 0.252 0.27 0.252 0.432 0.252 0.216 0 0.342 0 0.414-0.234 0.576-1.944 1.53-2.178 1.854-2.178 0.126 0 0.306 0 0.306 0.378 0 0.414-0.216 0.936-0.27 1.08-0.828 2.088-1.098 2.898-1.098 3.762 0 1.908 1.548 2.412 3.114 2.412 3.096 0 4.41-5.112 4.41-6.66z"/>
 </g>
 <path d="m190.359 79.544c0.06-0.156 0.108-0.24 0.108-0.36 0-0.396-0.36-0.66-0.696-0.66-0.48 0-0.612 0.42-0.66 0.588l-1.524 5.172c-0.048 0.144-0.048 0.18-0.048 0.192 0 0.108 0.072 0.132 0.192 0.168 0.216 0.096 0.24 0.096 0.264 0.096 0.036 0 0.108 0 0.192-0.204z" color="#000000" color-rendering="auto" fill="#00f" image-rendering="auto" shape-rendering="auto" solid-color="#000000" stroke-width="1.2" style="isolation:auto;mix-blend-mode:normal"/>
 <use width="100%" height="100%" fill="#0001ec" xlink:href="#symbol4807"/>
</svg>
