<?xml version="1.0" encoding="UTF-8"?>
<svg width="180.504" height="135.525" version="1.1" viewBox="0 0 180.50418 135.52483" xmlns="http://www.w3.org/2000/svg"><defs><marker id="Arrow1Mend-8-4-7-14" overflow="visible" orient="auto"><path transform="matrix(-.4 0 0 -.4 -4 0)" d="m0 0 5-5-17.5 5 17.5 5z" fill-rule="evenodd" stroke="#000" stroke-width="1pt"/></marker></defs><g transform="translate(35.9664 -210.979)"><g fill="none"><path d="m143.657 320.293-5.12237-5.64128-4.91427-5.85233-4.73869-6.16862-4.59908-6.59644-4.49806-7.10365-4.43329-7.522-4.39271-7.7986-4.36247-7.91764-4.33082-7.85956-4.28477-7.60596-4.21367-7.1393-4.1063-6.44808-3.95922-5.57976-3.79285-4.7465-3.61986-4.0133-3.44687-3.38966m-6.72564 2.53253 3.35217 3.41095 3.53294 4.01704 3.71714 4.72809 3.89763 5.53548 4.0614 6.37707 4.18373 7.04815 4.26606 7.50302 4.3193 7.75375 4.35385 7.81585 4.38205 7.70832 4.41602 7.44954 4.46899 7.05507 4.55361 6.57603 4.67709 6.17465 4.8377 5.88165s5.03199 5.69161 5.03199 5.69161m-7.86001 1.79101-4.93067-5.72352-4.74992-5.88453-4.60427-6.14389-4.4966-6.50731-4.42668-6.94465-4.38464-7.30377-4.35587-7.53666-4.32793-7.62752-4.28938-7.55938-4.22863-7.31498-4.1348-6.8788-3.99837-6.23992-3.81904-5.44175-3.6262-4.67518-3.43247-3.99922-3.24595-3.42215m-6.97376 4.23671 3.12622 3.42157 3.31676 3.95667 3.51652 4.58203 3.71975 5.28878 3.91143 6.02542 4.06083 6.61715 4.16531 7.02573 4.23497 7.26064 4.27844 7.33568 4.30778 7.26667 4.33313 7.07001 4.36709 6.7592 4.42292 6.37936 4.51676 6.06856 4.6486 5.85491 4.81554 5.73243m-8.75864 1.53712-4.684-5.71403-4.52971-5.78591-4.41026-5.94031-4.32881-6.18212-4.28304-6.48633-4.25483-6.73331-4.23007-6.88398-4.19784-6.9248-4.14719-6.84172-4.06945-6.62118-3.95462-6.25112-3.79572-5.72324-3.59453-5.07054-3.38556-4.44287-3.18292-3.88622-2.99266-3.40719m-7.09752 6.37246 2.84443 3.37873 3.03094 3.78731 3.23127 4.25799 3.44081 4.78503 3.64577 5.33248 3.81098 5.77872 3.93389 6.09874 4.01996 6.29887 4.07781 6.38943 4.1158 6.38167 4.14286 6.28793 4.16877 6.11973 4.2082 5.90983 4.28074 5.75486 4.38954 5.67435 4.53345 5.66544m-9.70304 1.25247-4.36335-5.59241-4.22863-5.52829-4.12703-5.52282-4.0591-5.57717-4.02283-5.67867-3.99492-5.75686-3.96267-5.78706-3.91777-5.75945-3.85243-5.66315-3.75918-5.48946-3.63165-5.22984-3.46413-4.87819-3.2615-4.45293-3.05743-4.04062-2.8637-3.66827-2.68525-3.34021m-7.01664 7.67209 2.51916 3.29678 2.68612 3.5389 2.86802 3.80714 3.06174 4.09669 3.25631 4.39112 3.42097 4.63925 3.54961 4.8316 3.64807 4.97365 3.72032 5.07228 3.7727 5.13523 3.81213 5.17089 3.84466 5.18785 2.66152 3.67405 5.17115 6.78936 4.04672 5.35865 4.1751 5.5024m-10.3147 1.1412-3.97073-5.40379-3.8461-5.17664-3.74968-4.97853-3.68145-4.81091-3.6377-4.67375-3.59741-4.55932-3.54991-4.45898-3.48976-4.36408-3.41203-4.26662-3.31158-4.16023-3.18493-4.03919-3.02865-3.89829-2.84729-3.73699-2.66885-3.57167-2.50218-3.40863-2.34991-3.25223m-6.833 7.73909 2.18066 3.21082 2.31624 3.28499 2.46447 3.34654 2.62394 3.39196 2.78772 3.42329 2.93192 3.45838 3.05253 3.50755 3.15183 3.57511 3.2333 3.66741 3.30006 3.79047 3.35591 3.95206 3.40571 4.15995 3.45808 4.41699 3.53092 4.69705 3.62907 4.99348 3.75198 5.30488m-10.5694 1.23177-3.52228-5.2146-3.39936-4.82096-3.29777-4.42994-3.21775-4.04206-3.15529-3.672-3.09541-3.37615-3.03123-3.15964-2.95956-3.01357-2.87694-2.92934-2.7811-2.90085-2.66999-2.92215-2.54104-2.98683-2.39856-3.07682-2.26011-3.14267-2.13173-3.17431-2.0143-3.17631m-6.68821 6.77759 1.8531 3.1513 1.95241 3.08316 2.06064 2.969 2.17692 2.80454 2.29695 2.60643 2.40806 2.45147 2.50794 2.36606 2.59774 2.35657 2.6792 2.43046 2.75433 2.59522 2.82514 2.85946 2.89422 3.23325 2.9679 3.70623 3.05569 4.19272 3.16163 4.67146 3.28539 5.14098m-48.1474-44.6533 1.69854 3.1398 1.78143 3.01587 1.87038 2.83359 1.96536 2.58687 2.06351 2.29792 2.15707 2.06618 2.24427 1.92499 2.3266 1.88215 2.40461 1.9457 2.48088 2.12396 2.55629 2.4276 2.63373 2.86779 2.71632 3.42905 2.81191 4.00181 2.92155 4.55731 3.0462 5.09411m-10.3084 1.77089-2.8093-5.08062-2.68497-4.488s-2.57269-3.86897-2.57269-3.86897-2.47225-3.22606-2.47225-3.22606l-2.38302-2.59349-2.30041-2.1001-2.22268-1.76571-2.14785-1.57708-2.07389-1.52275-1.9999-1.59319-1.92506-1.77865-1.84793-2.07019-1.76904-2.43103-1.69279-2.74101-1.62024-2.97648-1.55231-3.14267m-6.77803 4.15131 1.41214 3.15907 1.46826 2.96182 1.52669 2.68723 1.58715 2.32897 1.64931 1.91522 1.71236 1.57766 1.77596 1.35857 1.84188 1.26713 1.91009 1.31457 1.98235 1.51067 2.06006 1.86922 2.1444 2.40401 2.23765 3.09293 2.34014 3.79191 2.45238 4.46128 2.57471 5.09986m-37.5575-37.3627 1.27685 3.18725 1.32262 2.96786 1.36925 2.66508 1.41731 2.27233 1.46568 1.81975 1.51691 1.44915 1.57074 1.2056 1.6283 1.09893 1.69076 1.14119 1.75898 1.34419 1.83468 1.72085 1.91816 2.28757 2.01199 3.02019 2.1136 3.76258 2.22326 4.47277 2.34157 5.14789m-34.469-36.706 1.14386 3.2249 1.18129 2.99115 1.21929 2.66882 1.25671 2.25306 1.29469 1.77319 1.33615 1.37984 1.38133 1.11934 1.43143 1.0029 1.48783 1.04199 1.55116 1.25047 1.62226 1.64177 1.70314 2.23294 1.79381 2.99863 1.89197 3.77466 1.99674 4.51676 2.10841 5.2212l10.0689-2.38561 10.0968-2.20045 10.1768-1.99543 10.3084-1.77089 10.4687-1.54143 10.5634-1.3577 10.5694-1.23177 10.4868-1.16017 10.3147-1.1412 10.0539-1.17253 9.70304-1.25247 9.26351-1.3787 8.75864-1.53712 8.28313-1.67829 7.86001-1.79101 7.48927-1.87612m-5.12237-5.64128-7.39889 1.82579-7.75869 1.7591-8.168 1.66938-8.6271 1.55552-9.11296 1.42729-9.53294 1.3255-9.86566 1.26254-10.1103 1.23981-10.2681 1.25908-10.3397 1.32205-10.3265 1.43132-10.2295 1.5883-10.0715 1.78438-9.94224 1.97619-9.86366 2.15242-9.83572 2.3123m-1.99674-4.51676 9.6092-2.26831 9.63454-2.14093 9.70965-2.00291 9.83488-1.85369 9.98943-1.70245l10.0888-1.58082 10.11-1.49457 11.8258-1.59413 8.13491-1.26993 9.68375-1.43218 9.37203-1.47156 8.97279-1.53885 8.50821-1.62452 8.06668-1.699 7.67091-1.75622 7.32232-1.79647m-4.73869-6.16862-7.26072 1.79044-7.59809 1.78698-7.97917 1.77433-8.40171 1.75277-8.84327 1.7243-9.21832 1.7036-9.50616 1.69613-9.70995 1.70216-9.83228 1.72372-9.87688 1.76168-9.84667 1.81804-9.74565 1.89336-9.59566 1.98653-9.4771 2.07997-9.408 2.17026-9.38757 2.25623m-1.79381-2.99863l9.16939-2.27779 9.18234-2.243 9.2425-2.2131 9.35159-2.18952 9.49407-2.17054 9.59682-2.15387 9.63655-2.13661 9.60891-2.11764 9.50817-2.09579 9.33029-2.06876 9.06922-2.03626 8.72266-1.99659 8.3076-1.95001 7.90549-1.90228 7.54108-1.8557 7.21525-1.81085m-4.49806-7.10365-7.18618 1.85943-7.49877 1.96612-7.8459 2.08773-8.22355 2.22288-8.60839 2.36319-8.92328 2.47732-9.15212 2.55958-9.30121 2.60989-9.37692 2.63144-9.38613 2.62456-9.33575 2.59262-9.23358 2.536-9.10088 2.46382-9.00388 2.40258-8.9561 2.35944-8.95437 2.33242m-1.62226-1.64177 8.74195-2.4115 8.73072-2.50781 8.76353-2.63346 8.845-2.79132 8.96473-2.96786 9.06548-3.10931 9.12563-3.20047 9.13542-3.2387 9.08649-3.22146 8.96933-3.14555 8.77534-3.00839 8.49642-2.80857 8.14525-2.55958 7.79439-2.32149 7.46739-2.11189 7.16891-1.93189m-4.39271-7.7986-7.15825 2.02217-7.44121 2.28355-7.7463 2.59148-8.06754 2.94227-8.38215 3.31088-8.62221 3.603-8.77936 3.79738-8.8637 3.89771-8.88557 3.90721-8.8568 3.8313-8.78858 3.67373-8.69128 3.43912-8.5868 3.14957-8.5232 2.8885-8.50735 2.67429-8.53413 2.50522m-1.48783-1.04199 8.3312-2.60442 8.28802-2.84767 8.28544-3.15101 8.33004-3.51819 8.41669-3.92388 8.50822-4.25684 8.58306-4.48514 8.62911-4.60388 8.63314-4.60591 8.58191-4.48455 8.46217-4.23298 8.26212-3.84625 7.98694-3.35315 7.69681-2.88332 7.41529-2.47188 7.14963-2.12396m-4.33082-7.85956-7.13811 2.22977-7.38537 2.66625-7.6424 3.18206-7.89916 3.77207-8.13489 4.3891-8.29464 4.8687-8.37755 5.17405-8.3971 5.31294-8.36891 5.29539-8.30817 5.13091-8.22902 4.82961-8.14555 4.3983-8.07733 3.87759-8.05343 3.40663-8.07444 3.01587-8.13433 2.70045m-1.38133-1.11934 7.94492-2.78671 7.86922-3.16884 7.82949-3.64125 7.83296-4.20939 7.88188-4.83937 7.95586-5.3644 8.03674-5.73761 8.10986-5.94807 8.15907-5.98431 8.16798-5.83191 8.11993-5.47798 7.99933-4.91154 7.8033-4.17662 7.57908-3.47131 7.34794-2.85429 7.1194-2.33271m-4.21367-7.1393-7.08946 2.42386-7.29901 3.02364-7.50511 3.73296-7.69709 4.54265-7.85569 5.38394-7.9406 6.02686-7.9573 6.4225-7.92303 6.58437-7.85685 6.52888-7.77481 6.27384-7.69393 5.83508-7.63089 5.22466-7.60095 4.49692-7.61679 3.84224-7.67377 3.29735-7.76416 2.85602m-1.29469-1.77319 7.59317-2.90258 7.49014-3.39282 7.41817-3.99721 7.38537-4.72465 7.39745-5.53317 7.44984-6.21548 7.52813-6.7103 7.61592-7.00388 7.69537-7.0772 7.74948-6.90957 7.75896-6.48115 7.70574-5.7747 7.58138-4.84483 7.41817-3.94746 7.23598-3.16079 7.04456-2.49487m-3.95922-5.57976-6.98297 2.53915-7.15739 3.25452-7.31888 4.10043-7.45616 5.06307-7.55202 6.06021-7.57965 6.81325-7.54972 7.26581-7.48092 7.4369-7.39257 7.34891-7.30275 7.02544-7.2282 6.48776-7.18589 5.75084-7.18905 4.88049-7.23628 4.09927-7.3203 3.44946-7.43257 2.92185m-1.21929-2.66882 7.28261-2.91811 7.16286-3.47161 7.07018-4.15305 7.01146-4.97307 6.99563-5.88625 7.02873-6.66143 7.09839-7.22931 7.18819-7.57404 7.28175-7.67237 7.36031-7.49929 7.40581-7.03062 7.39773-6.24509 7.3252-5.20223 7.2092-4.19358 7.06645-3.30743 6.90726-2.55756m-3.61986-4.0133-6.82034 2.55382-6.96598 3.32525-7.09349 4.23613-7.19136 5.27268-7.24575 6.344-7.23857 7.14966-7.18273 7.62866-7.09781 7.80264-7.00225 7.69768-6.91388 7.33999-6.84941 6.75258-6.82465 5.95354-6.85027 5.01246-6.9182 4.16771-7.01722 3.46557-7.14128 2.89482m-1.14386-3.2249 7.00829-2.85717 6.88193-3.43739 6.77803-4.15131 6.70404-5.00959 6.67009-5.96504 6.68821-6.77759 6.74752-7.3745 6.833-7.73909 6.92856-7.84719 7.01664-7.67209 7.07939-7.18818 7.09752-6.37246 7.0578-5.28706 6.97376-4.23671 6.85976-3.31405 6.72564-2.53253m-62.5721 52.1894-1.94204 2.12223-1.94177 2.12253-1.94204 2.12224-0.92167 1.0075-2.02091 2.04777-2.02062 2.04776-2.02064 2.04749-0.62604 0.63457-2.1444 1.9178-2.14468 1.91782-2.1444 1.91809-0.23661 0.21133-2.30501 1.72229-2.30472 1.72229-2.09431 1.56501-2.45383 1.50291-2.45411 1.5029-1.87009 1.1455-2.57471 1.28583-2.57444 1.28611-1.73278 0.86545-2.6651 1.08657-2.66481 1.08628-1.67838 0.68432 0.96137 2.71023 0.18249 0.51467 1.05637 2.67486 0.12492 0.31629 1.19482 2.61564 0.0245 0.0531 1.25671 2.25306 1.29469 1.77318 1.33615 1.37984 1.38133 1.11934 1.43142 1.0029 1.48784 1.042 1.55117 1.25046 1.62225 1.64178 1.70315 2.23293 1.47632 2.46814 0.31749 0.53049 1.28865 2.57106 0.60331 1.2036 1.16287 2.63029 0.83386 1.88647 1.07682 2.66653 1.0316 2.55467 2.80068-0.66361 2.80066-0.66361 2.80067-0.66332 1.66687-0.39506 2.81218-0.61272 2.81219-0.61302 2.81218-0.613 1.66026-0.36171 2.82427-0.55378 2.82457-0.55378 2.82455-0.55378 1.70343-0.3341 2.83665-0.48735 2.83665-0.48737 2.83665-0.48735 1.79841-0.30881 2.84788-0.4195 2.84759-0.41921 2.84758-0.41922 1.92565-0.2835 2.85478-0.36689 2.85478-0.36688 2.85506-0.36718 1.99875-0.25676 2.85882-0.33324 2.8591-0.33325 2.8591-0.33295 1.99242-0.23232 2.86083-0.31657 2.86082-0.31628 2.86112-0.31657 1.90406-0.21075 2.86082-0.31657 2.86082-0.31628 2.86084-0.31657 1.73221-0.19178 2.85911-0.33324 2.85909-0.33354 2.85882-0.33354 1.4769-0.17222 2.85449-0.36833 2.85478-0.3686 2.8545-0.36832 1.13926-0.14722 2.84701-0.42353 2.84702-0.42382 2.84701-0.4238 0.72247-0.10754 2.83492-0.49742 2.83492-0.49742 2.83493-0.49772 0.25387-0.0446 2.82111-0.5716 2.82082-0.5716 2.6412-0.53509 2.80643-0.63946 2.80614-0.63947 2.24744-0.51208 2.79203-0.69927 2.79175-0.69955 1.9055-0.47729-1.9337-2.12972-1.9337-2.12971-1.25498-1.38186-1.84965-2.20303-1.84994-2.20275-1.21468-1.44655-1.75236-2.28095-1.75236-2.28096-1.23397-1.6067-1.64499-2.35945-1.645-2.35945-1.30909-1.87755-1.53878-2.42989-1.53851-2.43018-1.42077-2.24358-1.4602-2.47762-1.46049-2.47791-1.46021-2.47762-0.0524-0.0889-1.41126-2.5058-1.41157-2.5058-1.41155-2.50609-0.15832-0.28091-1.38796-2.51903-1.38795-2.51874-1.38796-2.51902-0.19861-0.36085-1.38796-2.51873-1.38796-2.51903-1.38795-2.51875-0.16695-0.30305-1.41156-2.50551-1.41185-2.5058-1.41156-2.5058-0.0498-0.0888-1.46193-2.47677-1.46193-2.47676-1.28981-2.18578-1.54482-2.42615-1.54483-2.42587-1.01664-1.59606-1.6643-2.34594-1.66456-2.34565-0.63037-0.88817-1.79554-2.24703-1.79582-2.2473-0.20149-0.25217-1.92679-2.13604-1.69307-1.87726-2.05113-2.01729-1.39574-1.37237-2.6933 1.01439-2.69331 1.01411-1.33902 0.50404-2.59112 1.25189-2.59141 1.2519-1.67725 0.81025-2.45928 1.49399-2.45929 1.49399-2.05518 1.24873-2.303 1.72517-2.3027 1.72487-2.30271 1.72517-0.14939 0.11184-2.14064 1.92213-2.14095 1.92211-2.14066 1.92212-0.67527 0.60611-2.01861 2.04978-2.01861 2.0495-2.01862 2.04978-1.02354 1.03912-1.94148 2.12281-1.94119 2.12282-1.94146 2.12281-1.19252 1.30366-1.90405 2.15645-1.90377 2.15644-1.90404 2.15646-1.2167 1.37784-1.90406 2.15645-1.90376 2.15645-1.90405 2.15617-1.12113 1.27001" stroke="#8e8e8e" stroke-width=".40879"/><path d="m53.4605 262.469-26.5598-49.256" color="#000000" color-rendering="auto" image-rendering="auto" marker-end="url(#Arrow1Mend-8-4-7-14)" shape-rendering="auto" solid-color="#000000" stroke="#000" style="isolation:auto;mix-blend-mode:normal"/><path d="m20.3951 307.616 33.0654-45.1471" color="#000000" color-rendering="auto" image-rendering="auto" marker-end="url(#Arrow1Mend-8-4-7-14)" shape-rendering="auto" solid-color="#000000" stroke="#000" style="isolation:auto;mix-blend-mode:normal"/></g><circle transform="rotate(-26.402)" cx="-119.011" cy="284.685" r="5.99618" color="#000000" fill="#5e62ff"/><g stroke-linejoin="round" stroke-miterlimit="1e5" stroke-width="1.5"><path d="m54.4973 280.815c0-0.48419-0.412455-0.95045-0.95043-0.95045-0.60972 0-0.96837 0.50213-0.96837 0.95045 0 0.48418 0.412455 0.95043 0.95043 0.95043 0.60972 0 0.96837-0.50211 0.96837-0.95043z"/><path d="m57.2477 284.919c-0.645586 0.17932-0.968371 0.78903-0.968371 1.23735 0 0.39453 0.30486 0.82491 0.89664 0.82491 0.627645 0 1.29116-0.52005 1.29116-1.39875 0-0.95045-0.950431-1.57809-2.04434-1.57809-1.02216 0-1.68567 0.77112-1.9188 1.0939-0.44832-0.75318-1.45256-1.0939-2.47472-1.0939-2.25952 0-3.47896 2.20573-3.47896 2.79751 0 0.25106 0.26899 0.25106 0.430385 0.25106 0.215193 0 0.340728 0 0.412459-0.23312 0.520049-1.63188 1.8112-2.16987 2.54644-2.16987 0.681449 0 1.00424 0.32279 1.00424 0.89664 0 0.34073-0.251055 1.32702-0.412455 1.97261l-0.609705 2.45677c-0.268995 1.09391-0.91458 1.63188-1.52429 1.63188-0.08967 0-0.502125 0-0.860774-0.26898 0.645569-0.17932 0.968369-0.78904 0.968369-1.23736 0-0.39452-0.30486-0.82491-0.89664-0.82491-0.627648 0-1.29116 0.52005-1.29116 1.39876 0 0.95043 0.950436 1.57808 2.04434 1.57808 1.02216 0 1.68567-0.77111 1.9188-1.09389 0.44832 0.75316 1.45256 1.09389 2.47472 1.09389 2.25952 0 3.47895-2.20572 3.47895-2.7975 0-0.25107-0.26898-0.25107-0.43038-0.25107-0.215189 0-0.340725 0-0.412454 0.23313-0.520051 1.63188-1.81121 2.16985-2.54645 2.16985-0.681449 0-1.00423-0.32278-1.00423-0.89662 0-0.37659 0.233129-1.32704 0.394514-1.99055 0.125535-0.46624 0.537991-2.15193 0.627646-2.43885 0.268994-1.07596 0.89664-1.63188 1.52428-1.63188 0.08967 0 0.502124 0 0.860775 0.269z"/><path d="m62.1014 287.055c0-0.36403-0.301275-0.71551-0.728071-0.71551-0.376589 0-0.715519 0.30127-0.715519 0.71551 0 0.45191 0.364039 0.72807 0.715519 0.72807 0.401685 0 0.728071-0.31381 0.728071-0.72807zm-1.90805 2.3474v0.4519c0.790833 0 0.903813 0.0753 0.903813 0.69042v3.26376c0 0.53978-0.125536 0.53978-0.941471 0.53978v0.4519c0.0251 0 0.903806-0.0503 1.40593-0.0503 0.439349 0 0.891255 0.012 1.3306 0.0503v-0.4519c-0.728069 0-0.853589 0-0.853589-0.52722v-4.55672z"/><path d="m69.963 290.997c0-1.09211-0.539775-1.73231-1.88294-1.73231-1.02934 0-1.69466 0.56489-2.04614 1.21764h-0.01255v-1.21764l-1.84528 0.13815v0.45191c0.841042 0 0.941467 0.0879 0.941467 0.70297v3.25121c0 0.53977-0.125526 0.53977-0.941467 0.53977v0.45191c0.0251 0 0.903817-0.0503 1.43104-0.0503 0.46446 0 1.3306 0.0376 1.44358 0.0503v-0.45191c-0.81594 0-0.941475 0-0.941475-0.53977v-2.25953c0-1.31806 1.0419-1.93315 1.8704-1.93315 0.8787 0 0.99168 0.6904 0.99168 1.3306v2.86208c0 0.53977-0.125535 0.53977-0.941475 0.53977v0.45191c0.02511 0 0.90381-0.0503 1.43103-0.0503 0.46446 0 1.33062 0.0376 1.44358 0.0503v-0.45191c-0.81594 0-0.94146 0-0.94146-0.53977z"/><path d="m5.14537 224.773c0-0.48419-0.412454-0.95045-0.95043-0.95045-0.60972 0-0.96837 0.50213-0.96837 0.95045 0 0.48418 0.412455 0.95043 0.95043 0.95043 0.60972 0 0.96837-0.50211 0.96837-0.95043z"/><path d="m7.89573 228.878c-0.645585 0.17932-0.96837 0.78903-0.96837 1.23735 0 0.39453 0.30486 0.82491 0.89664 0.82491 0.627646 0 1.29116-0.52005 1.29116-1.39875 0-0.95045-0.95043-1.57809-2.04434-1.57809-1.02216 0-1.68567 0.77112-1.9188 1.0939-0.44832-0.75318-1.45255-1.0939-2.47471-1.0939-2.25953 0-3.47896 2.20573-3.47896 2.79751 0 0.25106 0.26899 0.25106 0.430386 0.25106 0.215194 0 0.340728 0 0.412458-0.23312 0.52005-1.63188 1.8112-2.16987 2.54644-2.16987 0.68145 0 1.00424 0.32279 1.00424 0.89664 0 0.34073-0.251055 1.32702-0.412455 1.97261l-0.609705 2.45677c-0.268995 1.09391-0.91458 1.63188-1.52428 1.63188-0.0896704 0-0.502126 0-0.860775-0.26898 0.64557-0.17932 0.96837-0.78904 0.96837-1.23736 0-0.39452-0.30486-0.82491-0.89664-0.82491-0.627648 0-1.29116 0.52005-1.29116 1.39876 0 0.95043 0.950436 1.57808 2.04434 1.57808 1.02216 0 1.68567-0.77111 1.9188-1.09389 0.44832 0.75316 1.45256 1.09389 2.47472 1.09389 2.25952 0 3.47895-2.20572 3.47895-2.7975 0-0.25107-0.26898-0.25107-0.43038-0.25107-0.21519 0-0.340726 0-0.412455 0.23313-0.52005 1.63188-1.8112 2.16985-2.54644 2.16985-0.68145 0-1.00424-0.32278-1.00424-0.89662 0-0.37659 0.23313-1.32704 0.394515-1.99055 0.125534-0.46624 0.53799-2.15193 0.627645-2.43885 0.268995-1.07596 0.89664-1.63188 1.52428-1.63188 0.08967 0 0.502125 0 0.860775 0.269z"/><path d="m16.7428 236.085c0-1.5691-1.34316-2.92482-3.07546-2.92482-1.73231 0-3.07547 1.35572-3.07547 2.92482 0 1.55657 1.38082 2.79932 3.07547 2.79932 1.69465 0 3.07546-1.24275 3.07546-2.79932zm-3.07546 2.39762c-0.46446 0-1.14233-0.15063-1.55657-0.76574-0.338925-0.51466-0.37659-1.16742-0.37659-1.74484 0-0.53978 0.01255-1.2804 0.451905-1.82018 0.313831-0.36403 0.841051-0.6402 1.48125-0.6402 0.740624 0 1.26784 0.35148 1.54401 0.74063 0.35148 0.48955 0.389131 1.1172 0.389131 1.71975s-0.03765 1.26784-0.401686 1.78251c-0.338925 0.47701-0.916365 0.72807-1.53145 0.72807z"/><path d="m21.7544 233.361v0.4519c0.841049 0 0.941474 0.0879 0.941474 0.70298v2.14654c0 1.10466-0.715514 1.87038-1.66954 1.87038-1.14231 0-1.19253-0.53977-1.19253-1.17996v-4.12992l-1.93315 0.13815v0.45191c0.941468 0 0.941468 0.0376 0.941468 1.15488v1.88293c0 0.86615 0 2.03358 2.09634 2.03358 0.276164 0 1.19253 0 1.79506-1.05445h0.01255v1.05445l1.88294-0.12555v-0.4519c-0.841035 0-0.94146-0.0879-0.94146-0.70296v-4.38098z"/><path d="m27.6374 233.8h1.95826v-0.4519h-1.95826v-2.30975h-0.426796c-0.01255 1.12977-0.52722 2.37251-1.7323 2.41016v0.35149h1.16742v3.38928c0 1.40594 1.05446 1.69466 1.75742 1.69466 0.841047 0 1.41847-0.71553 1.41847-1.70721v-0.69041h-0.426792v0.67787c0 0.85359-0.401699 1.31805-0.891254 1.31805-0.86616 0-0.86616-1.05444-0.86616-1.2804z"/></g></g></svg>
