<?xml version="1.0" encoding="UTF-8"?>
<svg width="115.621" height="132.907" version="1.1" viewBox="0 0 115.62075 132.90732" xmlns="http://www.w3.org/2000/svg"><defs><marker id="DotM-0-9" overflow="visible" orient="auto"><path transform="matrix(.4 0 0 .4 2.96 .4)" d="m-2.5-1c0 2.76-2.24 5-5 5s-5-2.24-5-5 2.24-5 5-5 5 2.24 5 5z" fill-rule="evenodd" stroke="#000" stroke-width="1pt"/></marker></defs><g transform="translate(-5.04677 -238.002)"><path d="m114.207 329.767 5.96024-12.9391-4.71684 1.91373v-25.7274h-2.59985v25.6988l-4.71684-1.88517z" color="#000000" fill="#f00" style="text-decoration-line:none;text-indent:0;text-transform:none"/><path d="m118.863 277.645c0.072-0.288 0.072-0.396 0.072-0.468 0-0.576-0.468-0.792-0.846-0.792-0.36 0-0.684 0.162-0.918 0.432-0.252-0.27-0.846-0.738-1.908-0.738-3.186 0-5.058 2.844-5.058 5.202 0 2.124 1.602 2.934 3.15 2.934 0.936 0 1.656-0.36 1.98-0.558-0.108 0.45-0.216 0.9-0.342 1.35-0.126 0.522-0.252 1.062-0.882 1.566-0.756 0.63-1.35 0.63-1.836 0.63-0.432 0-0.756 0-1.224-0.072 0.522-0.378 0.558-0.972 0.558-1.044 0-0.396-0.306-0.828-0.9-0.828s-1.278 0.504-1.278 1.332c0 1.188 1.584 1.26 2.862 1.26 1.62 0 4.104-0.378 4.644-2.538zm-3.15 4.536c-0.072 0.252-0.072 0.324-0.288 0.522-0.954 0.864-1.8 0.864-1.962 0.864-0.702 0-1.224-0.396-1.224-1.35 0-0.864 0.594-3.024 0.864-3.69 0.63-1.548 1.656-1.8 2.196-1.8 1.116 0 1.512 0.882 1.512 1.008 0 0.036 0 0.072-0.054 0.27z" fill="#f00" stroke-width="1.5"/><g shape-rendering="auto"><path d="m68.1976 246.673-32.0427 55.7593 41.6184 54.052" color="#000000" color-rendering="auto" fill="none" image-rendering="auto" marker-end="url(#DotM-0-9)" marker-start="url(#DotM-0-9)" solid-color="#000000" stroke="#000" stroke-width="1px" style="isolation:auto;mix-blend-mode:normal"/><circle transform="rotate(139.851)" cx="167.365" cy="-254.483" r="9.46436" color="#000000" color-rendering="auto" fill="#b8b8b8" image-rendering="auto" solid-color="#000000" stroke="#373737" stroke-width="2" style="isolation:auto;mix-blend-mode:normal"/><circle transform="rotate(139.851)" cx="170.405" cy="-322.633" r="12.9303" color="#000000" color-rendering="auto" fill="#b8b8b8" image-rendering="auto" solid-color="#000000" stroke="#373737" stroke-width="2" style="isolation:auto;mix-blend-mode:normal"/></g><g stroke-width="1.5"><path d="m61.0031 273.114c0.018-0.072 0.054-0.18 0.054-0.27 0-0.18-0.18-0.18-0.216-0.18-0.018 0-0.666 0.054-0.99 0.09-0.306 0.018-0.576 0.054-0.9 0.072-0.432 0.036-0.558 0.054-0.558 0.378 0 0.18 0.18 0.18 0.36 0.18 0.918 0 0.918 0.162 0.918 0.342 0 0.072 0 0.108-0.09 0.432l-2.232 8.928c-0.054 0.198-0.09 0.342-0.09 0.63 0 0.9 0.666 1.62 1.584 1.62 0.594 0 0.99-0.396 1.278-0.954 0.306-0.594 0.558-1.728 0.558-1.8 0-0.09-0.072-0.162-0.18-0.162-0.162 0-0.18 0.09-0.252 0.36-0.324 1.242-0.648 2.196-1.368 2.196-0.54 0-0.54-0.576-0.54-0.828 0-0.072 0-0.45 0.126-0.954z"/><path d="m65.4491 280.212c0-0.32401-0.024-0.33601-0.348-0.33601-0.492 0.48001-1.128 0.768-2.268 0.768v0.396c0.324 0 0.972 0 1.668-0.324v6.156c0 0.444-0.036 0.588-1.176 0.588h-0.42v0.39601c0.492-0.036 1.524-0.036 2.064-0.036s1.584 0 2.076 0.036v-0.39601h-0.42c-1.14 0-1.176-0.144-1.176-0.588z"/><path d="m63.9908 316.155c0.018-0.072 0.054-0.18 0.054-0.27 0-0.18-0.18-0.18-0.216-0.18-0.018 0-0.666 0.054-0.99 0.09-0.306 0.018-0.576 0.054-0.9 0.072-0.432 0.036-0.558 0.054-0.558 0.378 0 0.18 0.18 0.18 0.36 0.18 0.918 0 0.918 0.162 0.918 0.342 0 0.072 0 0.108-0.09 0.432l-2.232 8.928c-0.054 0.198-0.09 0.342-0.09 0.63 0 0.9 0.666 1.62 1.584 1.62 0.594 0 0.99-0.396 1.278-0.954 0.306-0.594 0.558-1.728 0.558-1.8 0-0.09-0.072-0.162-0.18-0.162-0.162 0-0.18 0.09-0.252 0.36-0.324 1.242-0.648 2.196-1.368 2.196-0.54 0-0.54-0.576-0.54-0.828 0-0.072 0-0.45 0.126-0.954z"/><path d="m68.0528 328.449c0.192-0.18 0.696-0.57599 0.888-0.74399 0.744-0.68401 1.452-1.344 1.452-2.43601 0-1.428-1.2-2.352-2.7-2.352-1.44 0-2.388 1.092-2.388 2.16 0 0.588 0.468 0.672 0.636 0.672 0.252 0 0.624-0.18 0.624-0.636 0-0.624-0.6-0.624-0.744-0.624 0.348-0.876 1.152-1.17599 1.74-1.17599 1.116 0 1.692 0.94799 1.692 1.95599 0 1.248-0.876 2.16-2.292 3.612l-1.512 1.56c-0.144 0.132-0.144 0.156-0.144 0.45601h4.74l0.348-2.14801h-0.372c-0.036 0.24-0.132 0.84-0.276 1.068-0.072 0.096-0.984 0.096-1.176 0.096h-2.136z"/><path d="m14.5108 298.127c-0.648 0.18-0.972 0.792-0.972 1.242 0 0.396 0.306 0.828 0.9 0.828 0.63 0 1.296-0.522 1.296-1.404 0-0.954-0.954-1.584-2.052-1.584-1.026 0-1.692 0.774-1.926 1.098-0.45-0.756-1.458-1.098-2.484-1.098-2.268 0-3.492 2.214-3.492 2.808 0 0.252 0.27 0.252 0.432 0.252 0.216 0 0.342 0 0.414-0.234 0.522-1.638 1.818-2.178 2.556-2.178 0.684 0 1.008 0.324 1.008 0.9 0 0.342-0.252 1.332-0.414 1.98l-0.612 2.466c-0.27 1.098-0.918 1.638-1.53 1.638-0.09 0-0.504 0-0.864-0.27 0.648-0.18 0.972-0.792 0.972-1.242 0-0.396-0.306-0.828-0.9-0.828-0.63 0-1.296 0.522-1.296 1.404 0 0.954 0.954 1.584 2.052 1.584 1.026 0 1.692-0.774 1.926-1.098 0.45 0.756 1.458 1.098 2.484 1.098 2.268 0 3.492-2.214 3.492-2.808 0-0.252-0.27-0.252-0.432-0.252-0.216 0-0.342 0-0.414 0.234-0.522 1.638-1.818 2.178-2.556 2.178-0.684 0-1.008-0.324-1.008-0.9 0-0.378 0.234-1.332 0.396-1.998 0.126-0.468 0.54-2.16 0.63-2.448 0.27-1.08 0.9-1.638 1.53-1.638 0.09 0 0.504 0 0.864 0.27z"/><path d="m20.4943 300.401c0-0.324-0.024-0.336-0.348-0.336-0.492 0.48-1.128 0.768-2.268 0.768v0.396c0.324 0 0.972 0 1.668-0.324v6.156c0 0.444-0.036 0.588-1.176 0.588h-0.42v0.396c0.492-0.036 1.524-0.036 2.064-0.036s1.584 0 2.076 0.036v-0.396h-0.42c-1.14 0-1.176-0.144-1.176-0.588z"/><path d="m51.4231 353.386c-0.648 0.18-0.972 0.792-0.972 1.242 0 0.396 0.306 0.828 0.9 0.828 0.63 0 1.296-0.522 1.296-1.404 0-0.954-0.954-1.584-2.052-1.584-1.026 0-1.692 0.774-1.926 1.098-0.45-0.756-1.458-1.098-2.484-1.098-2.268 0-3.492 2.214-3.492 2.808 0 0.252 0.27 0.252 0.432 0.252 0.216 0 0.342 0 0.414-0.234 0.522-1.638 1.818-2.178 2.556-2.178 0.684 0 1.008 0.324 1.008 0.9 0 0.342-0.252 1.332-0.414 1.98l-0.612 2.466c-0.27 1.098-0.918 1.638-1.53 1.638-0.09 0-0.504 0-0.864-0.27 0.648-0.18 0.972-0.792 0.972-1.242 0-0.396-0.306-0.828-0.9-0.828-0.63 0-1.296 0.522-1.296 1.404 0 0.954 0.954 1.584 2.052 1.584 1.026 0 1.692-0.774 1.926-1.098 0.45 0.756 1.458 1.098 2.484 1.098 2.268 0 3.492-2.214 3.492-2.808 0-0.252-0.27-0.252-0.432-0.252-0.216 0-0.342 0-0.414 0.234-0.522 1.638-1.818 2.178-2.556 2.178-0.684 0-1.008-0.324-1.008-0.9 0-0.378 0.234-1.332 0.396-1.998 0.126-0.468 0.54-2.16 0.63-2.448 0.27-1.08 0.9-1.638 1.53-1.638 0.09 0 0.504 0 0.864 0.27z"/><path d="m57.0212 360.856c0.192-0.18 0.696-0.576 0.888-0.744 0.744-0.684 1.452-1.344 1.452-2.436 0-1.428-1.2-2.352-2.7-2.352-1.44 0-2.388 1.092-2.388 2.16 0 0.588 0.468 0.672 0.636 0.672 0.252 0 0.624-0.18 0.624-0.636 0-0.624-0.6-0.624-0.744-0.624 0.348-0.876 1.152-1.176 1.74-1.176 1.116 0 1.692 0.948 1.692 1.956 0 1.248-0.876 2.16-2.292 3.612l-1.512 1.56c-0.144 0.132-0.144 0.156-0.144 0.456h4.74l0.348-2.148h-0.372c-0.036 0.24-0.132 0.84-0.276 1.068-0.072 0.096-0.984 0.096-1.176 0.096h-2.136z"/><path d="m57.9414 243.146c0-3.06-2.124-4.644-5.238-4.644-5.562 0-8.478 4.77-8.478 8.37 0 3.15 2.25 4.59 5.256 4.59 5.526 0 8.46-4.608 8.46-8.316zm-8.28 7.56c-0.594 0-1.422-0.126-2.106-0.828-0.792-0.792-0.792-1.998-0.792-2.412 0-1.134 0.54-4.5 2.016-6.354 1.206-1.476 2.7-1.89 3.744-1.89 1.494 0 2.97 0.81 2.97 3.096 0 1.17-0.648 4.32-1.818 6.012-1.35 1.98-2.988 2.376-4.014 2.376z"/></g></g></svg>
