<?xml version="1.0" encoding="UTF-8"?>
<svg width="169.525" height="98.9363" version="1.1" viewBox="0 0 169.524 98.935319" xmlns="http://www.w3.org/2000/svg">
 <defs>
  <marker id="marker6157" overflow="visible" orient="auto">
   <path transform="matrix(-.4 0 0 -.4 -4 0)" d="m0 0 5-5-17.5 5 17.5 5z" fill="#f00" fill-rule="evenodd" stroke="#f00" stroke-width="1pt"/>
  </marker>
 </defs>
 <path d="m168.568 51.8218h-167.61l-3.4e-4 46.6137h167.61z" color="#000000" color-rendering="auto" fill="#f0f0f0" image-rendering="auto" shape-rendering="auto" solid-color="#000000" style="isolation:auto;mix-blend-mode:normal"/>
 <path d="m0.957774 51.8218h167.61" color="#000000" color-rendering="auto" fill="none" image-rendering="auto" shape-rendering="auto" solid-color="#000000" stroke="#bebebe" stroke-linejoin="round" stroke-miterlimit="100" stroke-width="2.99999" style="isolation:auto;mix-blend-mode:normal"/>
 <path d="m84.7617 63.0636v-45.8264" fill="none" marker-end="url(#marker6157)" stroke="#f00" stroke-width="1.99998"/>
 <path d="m100.425 7.43217h2.23797c0.36343 0 0.70772 0 0.70772-0.554713 0-0.344301-0.32515-0.344301-0.65033-0.344301h-2.14236l0.63123-3.46218c0.0574-0.344299 0.0574-0.382555 0.24867-0.554714 0.24865-0.229533 0.45907-0.229533 0.55471-0.229533 0.26779 0 0.43994 0.03826 0.66949 0.133888-0.45909 0.229549-0.80339 0.726872-0.80339 1.24333 0 0.573847 0.45907 0.879892 0.93727 0.879892 0.78426 0 1.37722-0.688615 1.37722-1.41547 0-0.975541-0.99465-1.53026-2.1806-1.53026-0.89903 0-1.97019 0.363436-2.63967 1.43461-0.439949 0.707735-0.554717 1.45373-0.918154 3.50044h-1.87453c-0.363438 0-0.68862 0-0.68862 0.554713 0 0.344301 0.325182 0.344301 0.631228 0.344301h1.75978l-1.45372 8.14854c-0.03824 0.172151-0.24867 1.37721-0.344318 1.645-0.03824 0.09565-0.344301 0.975542-0.95641 0.975542-0.363406 0-0.516445-0.05739-0.650332-0.114768 0.478189-0.229549 0.841627-0.726872 0.841627-1.26245 0-0.573846-0.459085-0.879895-0.937274-0.879895-0.784252 0-1.37722 0.688602-1.37722 1.41547 0 1.03292 1.09031 1.53024 2.08495 1.53024 1.43462 0 2.42927-1.41547 2.58229-1.66414 0.822507-1.26244 1.26246-3.6917 1.31985-4.01688z" fill="#f00" stroke-linejoin="round" stroke-miterlimit="1e5" stroke-width="1.59998"/>
 <path d="m110.406 1.12902c-0.24101 0.107119-0.37491 0.321356-0.37491 0.589145 0 0.361516 0.2544 0.629321 0.62932 0.629321 0.3615 0 0.64269-0.227629 0.64269-0.656105 0-1.19166-1.86116-1.19166-2.23607-1.19166-2.00844 0-3.25368 1.5398-3.25368 3.07961 0 1.68709 1.4327 3.02605 3.18673 3.02605 1.99504 0 2.46368-1.57998 2.46368-1.74064 0-0.160668-0.17407-0.160686-0.22762-0.160686-0.17408 0-0.18745 0.04018-0.25441 0.227628-0.29456 0.830156-1.0042 1.24523-1.82098 1.24523-0.92389 0-2.12895-0.68287-2.12895-2.61098 0-1.70048 0.83015-2.63776 2.0754-2.63776 0.17406 0 0.81676 0 1.29879 0.200846z" fill="#f00" stroke-linejoin="round" stroke-miterlimit="1e5" stroke-width="1.59998"/>
 <path d="m0.957435 51.7784c22.5641 5.38408 52.5741 8.39544 83.8042 8.40934 31.2128-0.0051 61.2212-3.00463 83.8062-8.37703l-3.4e-4 46.6248h-167.61z" fill="#dcdcdc"/>
 <path d="m0.957435 51.7784c22.5641 7.22531 68.0333 11.2851 83.8042 11.2851s61.2212-4.03214 83.8062-11.2418" fill="none" stroke="#555" stroke-linejoin="round" stroke-miterlimit="100" stroke-width="2.99999"/>
 <circle cx="84.762" cy="63.0636" r="4.99997" color="#000000" stroke-linejoin="round" stroke-miterlimit="1e5" stroke-width=".825696"/>
</svg>
