<?xml version="1.0" encoding="UTF-8"?>
<svg width="206.63" height="115.368" version="1.1" viewBox="0 0 206.63002 115.36773" xmlns="http://www.w3.org/2000/svg"><defs><clipPath id="clipPath3983-9"><path d="m87.6838 54.4343a14.0605 19.0425 0 0 1 19.8845 -1e-6l-9.94224 13.4651zm-76.737-17.7776l5.75 49.75 164.25-10-5-41z" color="#000000" color-rendering="auto" fill="#fff" image-rendering="auto" shape-rendering="auto" solid-color="#000000" stroke="#000" stroke-width=".866931" style="isolation:auto;mix-blend-mode:normal"/></clipPath></defs><g transform="translate(31.8864 -246.771)"><g shape-rendering="auto"><path d="m48.8547 348.008-8.70092 13.0514h-62.3566l-8.70092-13.0514" color="#000000" color-rendering="auto" fill="none" image-rendering="auto" solid-color="#000000" stroke="#000" stroke-width="1.16012" style="isolation:auto;mix-blend-mode:normal"/><g><rect x="-15.0477" y="343.95" width="15.004" height="15.004" color="#000000" color-rendering="auto" image-rendering="auto" solid-color="#000000" style="isolation:auto;mix-blend-mode:normal"/><rect x="1.47342" y="343.95" width="15.004" height="15.004" color="#000000" color-rendering="auto" image-rendering="auto" solid-color="#000000" style="isolation:auto;mix-blend-mode:normal"/><rect x="17.9945" y="343.95" width="15.004" height="15.004" color="#000000" color-rendering="auto" image-rendering="auto" solid-color="#000000" style="isolation:auto;mix-blend-mode:normal"/><rect x="-7.22395" y="335.471" width="6.96187" height="6.96187" color="#000000" color-rendering="auto" image-rendering="auto" solid-color="#000000" style="isolation:auto;mix-blend-mode:normal"/><rect x="1.25502" y="335.471" width="6.96187" height="6.96187" color="#000000" color-rendering="auto" image-rendering="auto" solid-color="#000000" style="isolation:auto;mix-blend-mode:normal"/><rect x="9.73398" y="335.471" width="6.96187" height="6.96187" color="#000000" color-rendering="auto" image-rendering="auto" solid-color="#000000" style="isolation:auto;mix-blend-mode:normal"/><rect x="18.2129" y="335.471" width="6.96187" height="6.96187" color="#000000" color-rendering="auto" image-rendering="auto" solid-color="#000000" style="isolation:auto;mix-blend-mode:normal"/></g><path d="m-30.9038 348.008 39.8792-85.9136 39.8792 85.9136" color="#000000" color-rendering="auto" fill="none" image-rendering="auto" solid-color="#000000" stroke="#000" stroke-dasharray="1.8, 1.8" stroke-width=".3" style="isolation:auto;mix-blend-mode:normal"/><path d="m173.761 348.008-8.70092 13.0514h-62.3566l-8.70093-13.0514" color="#000000" color-rendering="auto" fill="none" image-rendering="auto" solid-color="#000000" stroke="#000" stroke-width="1.16012" style="isolation:auto;mix-blend-mode:normal"/><rect x="122.599" y="336.393" width="22.5661" height="22.5661" color="#000000" color-rendering="auto" fill="#f00" image-rendering="auto" solid-color="#000000" style="isolation:auto;mix-blend-mode:normal"/><g fill="none" stroke="#000"><path d="m94.0025 348.008 39.8792-85.9136 39.8792 85.9136" color="#000000" color-rendering="auto" image-rendering="auto" solid-color="#000000" stroke-dasharray="1.8, 1.8" stroke-width=".3" style="isolation:auto;mix-blend-mode:normal"/><path transform="translate(-26.1975 198.916)" d="m29.1729 63.924c22.6203-3.67304 45.5366-5.52148 68.4531-5.52148 22.9166 0 45.8329 1.84845 68.4531 5.52148" clip-path="url(#clipPath3983-9)" color="#000000" color-rendering="auto" image-rendering="auto" solid-color="#000000" stroke-width="3.37861" style="isolation:auto;mix-blend-mode:normal"/><path transform="matrix(-.593996 -.804468 .593996 -.804468 0 0)" d="m-209.221-105.708a16.7379 16.7379 0 0 1 -16.7379 16.7379v-16.7379z" color="#000000" color-rendering="auto" image-rendering="auto" solid-color="#000000" stroke-width=".886795" style="isolation:auto;mix-blend-mode:normal"/></g><path d="m133.351 317.379c0.162-0.666 0.234-0.702 0.936-0.702h2.34c2.034 0 2.034 1.728 2.034 1.89 0 1.458-1.458 3.312-3.834 3.312h-2.592zm3.042 4.644c1.962-0.36 3.744-1.728 3.744-3.384 0-1.404-1.242-2.484-3.276-2.484h-5.778c-0.342 0-0.504 0-0.504 0.342 0 0.18 0.162 0.18 0.432 0.18 1.098 0 1.098 0.144 1.098 0.342 0 0.036 0 0.144-0.072 0.414l-2.43 9.684c-0.162 0.63-0.198 0.81-1.458 0.81-0.342 0-0.522 0-0.522 0.324 0 0.198 0.108 0.198 0.468 0.198h6.174c2.754 0 4.878-2.088 4.878-3.906 0-1.476-1.296-2.376-2.754-2.52zm-2.556 5.904h-2.43c-0.252 0-0.288 0-0.396-0.018-0.198-0.018-0.216-0.054-0.216-0.198 0-0.126 0.036-0.234 0.072-0.396l1.26-5.076h3.384c2.124 0 2.124 1.98 2.124 2.124 0 1.728-1.566 3.564-3.798 3.564z" color="#000000" color-rendering="auto" fill="#f00" image-rendering="auto" solid-color="#000000" style="isolation:auto;mix-blend-mode:normal"/></g><g stroke-linejoin="round" stroke-miterlimit="1e5" stroke-width="1.5"><path d="m-4.07966 322.484c1.47048-0.48419 2.51058-1.73948 2.51058-3.15617 0-1.47048-1.57808-2.47471-3.29962-2.47471-1.8112 0-3.1741 1.07596-3.1741 2.43885 0 0.59178 0.39452 0.9325 0.91457 0.9325 0.555915 0 0.914565-0.39451 0.914565-0.91456 0-0.89664-0.842835-0.89664-1.11183-0.89664 0.555915-0.87872 1.73948-1.11183 2.38506-1.11183 0.73524 0 1.72155 0.39452 1.72155 2.00847 0 0.21519-0.03587 1.25529-0.502125 2.04433-0.537975 0.86076-1.1477 0.91457-1.59602 0.93249-0.14346 0.018-0.57384 0.0539-0.699375 0.0539-0.14346 0.0178-0.268995 0.0358-0.268995 0.21519 0 0.19726 0.125535 0.19726 0.430395 0.19726h0.78903c1.4705 0 2.134 1.21942 2.134 2.97684 0 2.43885-1.23736 2.9589-2.0264 2.9589-0.77112 0-2.11606-0.30486-2.74372-1.36289 0.62766 0.0897 1.18358-0.30486 1.18358-0.98631 0-0.64557-0.484185-1.00423-1.00424-1.00423-0.430392 0-1.00424 0.25105-1.00424 1.0401 0 1.63188 1.66775 2.81544 3.62242 2.81544 2.1878 0 3.81968-1.63188 3.81968-3.46101 0-1.4705-1.12976-2.86925-2.99476-3.24583z"/><path d="m3.09543 327.846c0-0.52005-0.43038-0.95045-0.95043-0.95045s-0.950445 0.4304-0.950445 0.95045 0.430395 0.95043 0.950445 0.95043 0.95043-0.43038 0.95043-0.95043z"/><path d="m9.88808 325.837v1.56015c0 0.64557-0.03587 0.84283-1.36288 0.84283h-0.37659v0.55592c0.73524-0.0539 1.66774-0.0539 2.42092-0.0539s1.70361 0 2.43885 0.0539v-0.55592h-0.37659c-1.32702 0-1.36288-0.19726-1.36288-0.84283v-1.56015h1.79326v-0.55592h-1.79326v-8.1594c0-0.35866 0-0.46626-0.286935-0.46626-0.161385 0-0.21519 0-0.35865 0.21519l-5.50535 8.41047v0.55592zm0.107595-0.55592h-4.37559l4.37559-6.68892z"/><path d="m16.7583 326.734c-0.717315 1.20148-1.41669 1.45254-2.20574 1.50634-0.215193 0.018-0.376587 0.018-0.376587 0.35865 0 0.10755 0.08966 0.19727 0.233126 0.19727 0.484185 0 1.0401-0.0539 1.54221-0.0539 0.59178 0 1.21942 0.0539 1.79328 0.0539 0.107595 0 0.340725 0 0.340725-0.34073 0-0.19726-0.1614-0.21519-0.286935-0.21519-0.41244-0.0359-0.842835-0.17932-0.842835-0.62764 0-0.21519 0.107595-0.41246 0.251055-0.66351l1.3629-2.29539h4.50111c0.03587 0.37657 0.286935 2.81544 0.286935 2.99476 0 0.53798-0.932505 0.59178-1.29117 0.59178-0.251055 0-0.43038 0-0.43038 0.35865 0 0.19727 0.21519 0.19727 0.251055 0.19727 0.735255 0 1.50636-0.0539 2.2416-0.0539 0.44832 0 1.57807 0.0539 2.02639 0.0539 0.1076 0 0.3228 0 0.3228-0.35865 0-0.19727-0.17934-0.19727-0.41245-0.19727-1.11183 0-1.11183-0.12555-1.16564-0.64558l-1.09389-11.208c-0.03587-0.35865-0.03587-0.43038-0.340725-0.43038-0.28692 0-0.358665 0.12555-0.46626 0.30486zm2.15193-2.63612 3.53274-5.91781 0.573855 5.91781z"/></g></g></svg>
