<?xml version="1.0" encoding="UTF-8"?>
<svg width="172.769" height="126.946" version="1.1" viewBox="0 0 172.76947 126.94599" xmlns="http://www.w3.org/2000/svg" xmlns:xlink="http://www.w3.org/1999/xlink">
 <defs>
  <marker id="marker1399" overflow="visible" orient="auto">
   <path transform="matrix(-.8 0 0 -.8 -10 0)" d="m0 0 5-5-17.5 5 17.5 5z" fill-rule="evenodd" stroke="#000" stroke-width="1pt"/>
  </marker>
  <marker id="Arrow1Lend" overflow="visible" orient="auto">
   <path transform="matrix(-.8 0 0 -.8 -10 0)" d="m0 0 5-5-17.5 5 17.5 5z" fill-rule="evenodd" stroke="#000" stroke-width="1pt"/>
  </marker>
  <symbol id="symbol5603">
   <path d="m21.578 91.123c0.018-0.072 0.054-0.18 0.054-0.27 0-0.18-0.18-0.18-0.216-0.18-0.018 0-0.666 0.054-0.99 0.09-0.306 0.018-0.576 0.054-0.9 0.072-0.432 0.036-0.558 0.054-0.558 0.378 0 0.18 0.18 0.18 0.36 0.18 0.918 0 0.918 0.162 0.918 0.342 0 0.072 0 0.108-0.09 0.432l-2.232 8.928c-0.054 0.198-0.09 0.342-0.09 0.63 0 0.9 0.666 1.62 1.584 1.62 0.594 0 0.99-0.396 1.278-0.954 0.306-0.594 0.558-1.728 0.558-1.8 0-0.09-0.072-0.162-0.18-0.162-0.162 0-0.18 0.09-0.252 0.36-0.324 1.242-0.648 2.196-1.368 2.196-0.54 0-0.54-0.576-0.54-0.828 0-0.072 0-0.45 0.126-0.954z" stroke-width="1.5"/>
  </symbol>
  <symbol id="symbol5610">
   <path d="m60.2225 94.111c0-1.836-0.576-3.618-2.052-3.618-2.52 0-5.202 5.274-5.202 9.234 0 0.828 0.18 3.618 2.07 3.618 2.448 0 5.184-5.148 5.184-9.234zm-5.454 2.538c0.27-1.062 0.648-2.574 1.368-3.852 0.594-1.08 1.224-1.944 2.016-1.944 0.594 0 0.99 0.504 0.99 2.232 0 0.648-0.054 1.548-0.576 3.564zm3.672 0.54c-0.45 1.764-0.828 2.898-1.476 4.032-0.522 0.918-1.152 1.764-1.908 1.764-0.558 0-1.008-0.432-1.008-2.214 0-1.17 0.288-2.394 0.576-3.582z" stroke-width="1.5"/>
  </symbol>
 </defs>
 <path d="m65.1017 96.419h57.063v-68.9141" fill="none" stroke="#000" stroke-dasharray="2, 2" stroke-width=".5"/>
 <path d="m122.164 96.419-57.2855-68.571" fill="none" stroke="#000" stroke-linecap="round" stroke-width="1px"/>
 <path d="m166.309 98.4 5.96024-12.9391-4.71684 1.91372v-25.7274h-2.59985v25.6988l-4.71684-1.88517z" color="#000000" fill="#f00" style="text-decoration-line:none;text-indent:0;text-transform:none"/>
 <path d="m128.977 110.119c0.036-0.108 0.486-1.008 1.152-1.584 0.468-0.432 1.08-0.72 1.782-0.72 0.72 0 0.972 0.54 0.972 1.26 0 0.108 0 0.468-0.216 1.314l-0.45 1.854c-0.144 0.54-0.486 1.872-0.522 2.07-0.072 0.27-0.18 0.738-0.18 0.81 0 0.252 0.198 0.45 0.468 0.45 0.54 0 0.63-0.414 0.792-1.062l1.08-4.302c0.036-0.144 0.972-2.394 2.952-2.394 0.72 0 0.972 0.54 0.972 1.26 0 1.008-0.702 2.97-1.098 4.05-0.162 0.432-0.252 0.666-0.252 0.99 0 0.81 0.558 1.458 1.422 1.458 1.674 0 2.304-2.646 2.304-2.754 0-0.09-0.072-0.162-0.18-0.162-0.162 0-0.18 0.054-0.27 0.36-0.414 1.44-1.08 2.196-1.8 2.196-0.18 0-0.468-0.018-0.468-0.594 0-0.468 0.216-1.044 0.288-1.242 0.324-0.864 1.134-2.988 1.134-4.032 0-1.08-0.63-1.89-1.998-1.89-1.206 0-2.178 0.684-2.898 1.746-0.054-0.972-0.648-1.746-1.998-1.746-1.602 0-2.448 1.134-2.772 1.584-0.054-1.026-0.792-1.584-1.584-1.584-0.522 0-0.936 0.252-1.278 0.936-0.324 0.648-0.576 1.746-0.576 1.818s0.072 0.162 0.198 0.162c0.144 0 0.162-0.018 0.27-0.432 0.27-1.062 0.612-2.124 1.332-2.124 0.414 0 0.558 0.288 0.558 0.828 0 0.396-0.18 1.098-0.306 1.656l-0.504 1.944c-0.072 0.342-0.27 1.152-0.36 1.476-0.126 0.468-0.324 1.314-0.324 1.404 0 0.252 0.198 0.45 0.468 0.45 0.216 0 0.468-0.108 0.612-0.378 0.036-0.09 0.198-0.72 0.288-1.08l0.396-1.62z" stroke-width="1.5"/>
 <path d="m170.965 46.279c0.072-0.288 0.072-0.396 0.072-0.468 0-0.576-0.468-0.792-0.846-0.792-0.36 0-0.684 0.162-0.918 0.432-0.252-0.27-0.846-0.738-1.908-0.738-3.186 0-5.058 2.844-5.058 5.202 0 2.124 1.602 2.934 3.15 2.934 0.936 0 1.656-0.36 1.98-0.558-0.108 0.45-0.216 0.9-0.342 1.35-0.126 0.522-0.252 1.062-0.882 1.566-0.756 0.63-1.35 0.63-1.836 0.63-0.432 0-0.756 0-1.224-0.072 0.522-0.378 0.558-0.972 0.558-1.044 0-0.396-0.306-0.828-0.9-0.828s-1.278 0.504-1.278 1.332c0 1.188 1.584 1.26 2.862 1.26 1.62 0 4.104-0.378 4.644-2.538zm-3.15 4.536c-0.072 0.252-0.072 0.324-0.288 0.522-0.954 0.864-1.8 0.864-1.962 0.864-0.702 0-1.224-0.396-1.224-1.35 0-0.864 0.594-3.024 0.864-3.69 0.63-1.548 1.656-1.8 2.196-1.8 1.116 0 1.512 0.882 1.512 1.008 0 0.036 0 0.072-0.054 0.27z" fill="#f00" stroke-width="1.5"/>
 <path d="m81.8125 48.317a26.0576 26.0576 0 0 1 -17.0329 5.95981" color="#000000" fill="none" stroke="#000" stroke-width=".500001"/>
 <g stroke-width="1.5">
  <path d="m10.868 99.025c0.306 0 0.63 0 0.63-0.36s-0.324-0.36-0.63-0.36h-9.738c-0.306 0-0.63 0-0.63 0.36s0.324 0.36 0.63 0.36z"/>
  <path d="m32.168 96.505c-0.216 0-0.882 0-0.882 0.738 0 0.432 0.306 0.738 0.738 0.738 0.414 0 0.756-0.252 0.756-0.774 0-1.206-1.26-2.07-2.718-2.07-2.106 0-3.78 1.872-3.78 4.14 0 2.304 1.728 4.068 3.762 4.068 2.376 0 2.916-2.16 2.916-2.322s-0.126-0.162-0.18-0.162c-0.162 0-0.18 0.054-0.234 0.27-0.396 1.278-1.368 1.818-2.34 1.818-1.098 0-2.556-0.954-2.556-3.69 0-2.988 1.53-3.726 2.43-3.726 0.684 0 1.674 0.27 2.088 0.972z"/>
  <path d="m41.747 99.313c0-2.322-1.764-4.176-3.852-4.176-2.16 0-3.87 1.908-3.87 4.176 0 2.304 1.8 4.032 3.852 4.032 2.124 0 3.87-1.764 3.87-4.032zm-3.852 3.636c-0.666 0-1.476-0.288-1.998-1.17-0.486-0.81-0.504-1.872-0.504-2.628 0-0.684 0-1.782 0.558-2.592 0.504-0.774 1.296-1.062 1.926-1.062 0.702 0 1.458 0.324 1.944 1.026 0.558 0.828 0.558 1.962 0.558 2.628 0 0.63 0 1.746-0.468 2.592-0.504 0.864-1.332 1.206-2.016 1.206z"/>
  <path d="m48.2015 95.551c0-0.324 0-0.414-0.18-0.414-0.144 0-0.486 0.396-0.612 0.558-0.558-0.45-1.116-0.558-1.692-0.558-2.178 0-2.826 1.188-2.826 2.178 0 0.198 0 0.828 0.684 1.458 0.576 0.504 1.188 0.63 2.016 0.792 0.99 0.198 1.224 0.252 1.674 0.612 0.324 0.27 0.558 0.666 0.558 1.17 0 0.774-0.45 1.638-2.034 1.638-1.188 0-2.052-0.684-2.448-2.484-0.072-0.324-0.072-0.342-0.09-0.36-0.036-0.072-0.108-0.072-0.162-0.072-0.198 0-0.198 0.09-0.198 0.414v2.448c0 0.324 0 0.414 0.18 0.414 0.09 0 0.108-0.018 0.414-0.396 0.09-0.126 0.09-0.162 0.36-0.45 0.684 0.846 1.656 0.846 1.962 0.846 1.89 0 2.826-1.044 2.826-2.466 0-0.972-0.594-1.548-0.756-1.71-0.648-0.558-1.134-0.666-2.322-0.882-0.54-0.108-1.854-0.36-1.854-1.44 0-0.558 0.378-1.386 1.998-1.386 1.962 0 2.07 1.674 2.106 2.232 0.018 0.144 0.144 0.144 0.198 0.144 0.198 0 0.198-0.09 0.198-0.414z"/>
  <path d="m118.529 15.495c0-0.324 0-0.414-0.18-0.414-0.144 0-0.486 0.396-0.612 0.558-0.558-0.45-1.116-0.558-1.692-0.558-2.178 0-2.826 1.188-2.826 2.178 0 0.198 0 0.828 0.684 1.458 0.576 0.504 1.188 0.63 2.016 0.792 0.99 0.198 1.224 0.252 1.674 0.612 0.324 0.27 0.558 0.666 0.558 1.17 0 0.774-0.45 1.638-2.034 1.638-1.188 0-2.052-0.684-2.448-2.484-0.072-0.324-0.072-0.342-0.09-0.36-0.036-0.072-0.108-0.072-0.162-0.072-0.198 0-0.198 0.09-0.198 0.414v2.448c0 0.324 0 0.414 0.18 0.414 0.09 0 0.108-0.018 0.414-0.396 0.09-0.126 0.09-0.162 0.36-0.45 0.684 0.846 1.656 0.846 1.962 0.846 1.89 0 2.826-1.044 2.826-2.466 0-0.972-0.594-1.548-0.756-1.71-0.648-0.558-1.134-0.666-2.322-0.882-0.54-0.108-1.854-0.36-1.854-1.44 0-0.558 0.378-1.386 1.998-1.386 1.962 0 2.07 1.674 2.106 2.232 0.018 0.144 0.144 0.144 0.198 0.144 0.198 0 0.198-0.09 0.198-0.414z"/>
  <path d="m122.71 12.021c0-0.468-0.378-0.882-0.882-0.882-0.468 0-0.864 0.378-0.864 0.864 0 0.54 0.432 0.882 0.864 0.882 0.558 0 0.882-0.468 0.882-0.864zm-2.484 3.348v0.522c1.152 0 1.314 0.108 1.314 0.99v4.896c0 0.81-0.198 0.81-1.368 0.81v0.522c0.504-0.036 1.368-0.036 1.89-0.036 0.198 0 1.242 0 1.854 0.036v-0.522c-1.17 0-1.242-0.09-1.242-0.792v-6.624z"/>
  <path d="m132.484 18.735c0-1.674 0-2.178-0.414-2.754-0.522-0.702-1.368-0.81-1.98-0.81-1.746 0-2.43 1.494-2.574 1.854h-0.018v-1.854l-2.448 0.198v0.522c1.224 0 1.368 0.126 1.368 1.008v4.878c0 0.81-0.198 0.81-1.368 0.81v0.522c0.468-0.036 1.44-0.036 1.944-0.036 0.522 0 1.494 0 1.962 0.036v-0.522c-1.152 0-1.368 0-1.368-0.81v-3.348c0-1.89 1.242-2.898 2.358-2.898s1.368 0.918 1.368 2.016v4.23c0 0.81-0.198 0.81-1.368 0.81v0.522c0.468-0.036 1.44-0.036 1.944-0.036 0.522 0 1.494 0 1.962 0.036v-0.522c-0.9 0-1.35 0-1.368-0.54z"/>
 </g>
 <path d="m64.8788 125.553v-124.385" fill="none" marker-end="url(#Arrow1Lend)" stroke="#000" stroke-width=".500001"/>
 <circle transform="rotate(-26.402)" cx="66.5483" cy="140.684" r="7.50002" color="#000000" fill="#5e5bff" stroke-linejoin="round" stroke-miterlimit="1e5"/>
 <path d="m34.701 27.848h124.385" fill="none" marker-end="url(#marker1399)" stroke="#000" stroke-width=".500001"/>
 <use width="100%" height="100%" xlink:href="#symbol5603"/>
 <use transform="translate(80.0423 -40.341)" width="100%" height="100%" xlink:href="#symbol5603"/>
 <use transform="translate(86.9753,-80.056)" width="100%" height="100%" xlink:href="#symbol5603"/>
 <use width="100%" height="100%" xlink:href="#symbol5610"/>
 <use transform="translate(17.9694 -35.202)" width="100%" height="100%" xlink:href="#symbol5610"/>
 <use transform="translate(85.0178,-80.056)" width="100%" height="100%" xlink:href="#symbol5610"/>
 <path d="m59.573 15.9148c0-3.06002-2.12402-4.64402-5.23804-4.64402-5.56202 0-8.47804 4.77002-8.47804 8.37004 0 3.15002 2.25001 4.59002 5.25602 4.59002 5.52604 0 8.46006-4.60802 8.46006-8.31604zm-8.28006 7.56004c-0.594 0-1.422-0.126-2.106-0.828-0.792-0.792-0.792-1.99802-0.792-2.41202 0-1.134 0.54-4.50002 2.016-6.35403 1.206-1.47601 2.70002-1.89001 3.74402-1.89001 1.49402 0 2.97002 0.81 2.97002 3.09602 0 1.17-0.648 4.32002-1.81801 6.01203-1.35001 1.98001-2.98801 2.37601-4.01403 2.37601z" stroke-linejoin="round" stroke-miterlimit="1e5" stroke-width="1.50001"/>
</svg>
