<?xml version="1.0" encoding="UTF-8"?>
<svg width="139.823" height="143.795" version="1.1" viewBox="0 0 139.82354 143.79457" xmlns="http://www.w3.org/2000/svg">
 <g transform="matrix(1.51287 0 0 1.51287 -81.3734 -455.995)" fill="#00f" stroke-width=".660996">
  <g stroke-linejoin="round" stroke-miterlimit="1e5" stroke-width=".826244">
   <path d="m54.7393 385.741 6.03636 6.03635 0.46608-1.08752 2.95184 5.12689-5.12689-2.95184 1.08752-0.46608-6.03636-6.03636 0.62144-0.62144" clip-path="url(#pbed49c8f34)"/>
   <path d="m64.8641 386.921 5.54652 4.15989 0.307597-1.14251 3.64723 4.65791-5.49281-2.19713 1.01068-0.61519-5.54652-4.15989 0.52731-0.70308" clip-path="url(#pbed49c8f34)"/>
   <path d="m74.9689 388.1 5.0486 2.52429 0.09826-1.1791 4.42163 3.93034-5.79725-1.1791 0.884324-0.78607-5.04859-2.5243 0.393032-0.78606" clip-path="url(#pbed49c8f34)"/>
   <path d="m85.0508 389.287 4.64934 1.16234-0.159863-1.17234 5.16895 2.87755-5.91498 0.10658 0.692745-0.95919-4.64934-1.16233 0.213152-0.85261" clip-path="url(#pbed49c8f34)"/>
   <path d="m95.1161 390.495h4.4919l-0.439425-1.09857 5.71252 1.53799-5.71252 1.53799 0.439425-1.09857h-4.4919v-0.87884" clip-path="url(#pbed49c8f34)"/>
   <path d="m105.181 391.729 4.64934-1.16234-0.69274-0.95918 5.91498 0.10657-5.16895 2.87756 0.15986-1.17234-4.64934 1.16234-0.21315-0.85261" clip-path="url(#pbed49c8f34)"/>
   <path d="m115.263 392.982 5.0486-2.5243-0.88433-0.78607 5.79725-1.1791-4.42163 3.93034-0.0983-1.1791-5.0486 2.52429-0.39303-0.78606" clip-path="url(#pbed49c8f34)"/>
   <path d="m125.368 394.245 5.54652-4.15989-1.01068-0.6152 5.49281-2.19712-3.64722 4.6579-0.3076-1.1425-5.54652 4.15989-0.52731-0.70308" clip-path="url(#pbed49c8f34)"/>
   <path d="m135.493 395.506 6.03635-6.03636-1.08752-0.46608 5.12689-2.95184-2.95184 5.12689-0.46608-1.08753-6.03636 6.03636-0.62144-0.62144" clip-path="url(#pbed49c8f34)"/>
   <path d="m56.0008 375.288 4.15989 5.54653 0.615195-1.01068 2.19712 5.49281-4.6579-3.64723 1.1425-0.30759-4.15989-5.54653 0.70308-0.52731" clip-path="url(#pbed49c8f34)"/>
   <path d="m66.1318 376.462 3.59511 3.5951 0.46608-1.08752 2.95184 5.12689-5.12689-2.95185 1.08752-0.46608-3.5951-3.5951 0.62144-0.62144" clip-path="url(#pbed49c8f34)"/>
   <path d="m76.2367 377.627 2.93627 1.95751 0.243749-1.15781 3.89999 4.44842-5.60623-1.88906 0.974996-0.67031-2.93626-1.95751 0.487498-0.73124" clip-path="url(#pbed49c8f34)"/>
   <path d="m86.29 378.838 2.81683 0.93894-0.0626-1.06413 4.44433 2.94201-5.32067-0.31298 0.688557-0.81375-2.81683-0.93894 0.250385-0.75115" clip-path="url(#pbed49c8f34)"/>
   <path d="m96.3367 380.059h2.81683l-0.375577-0.93894 4.8825 1.31452-4.8825 1.31452 0.375577-0.93894h-2.81683v-0.75116" clip-path="url(#pbed49c8f34)"/>
   <path d="m106.383 381.279 2.81682-0.93894-0.68855-0.81375 5.32067-0.31298-4.44433 2.94201 0.0626-1.06413-2.81682 0.93894-0.25039-0.75115" clip-path="url(#pbed49c8f34)"/>
   <path d="m116.437 382.51 2.93626-1.95751-0.975-0.67031 5.60624-1.88906-3.89999 4.44842-0.24375-1.15781-2.93627 1.95751l-0.48749-0.73124" clip-path="url(#pbed49c8f34)"/>
   <path d="m126.542 383.785 3.59511-3.59511-1.08753-0.46608 5.12689-2.95184-2.95184 5.12688-0.46608-1.08752-3.59511 3.59511-0.62144-0.62144" clip-path="url(#pbed49c8f34)"/>
   <path d="m136.673 385.053 4.15989-5.54653-1.1425-0.30759 4.6579-3.64723-2.19712 5.49281-0.6152-1.01068-4.15989 5.54653-0.70308-0.52731" clip-path="url(#pbed49c8f34)"/>
   <path d="m57.2629 364.855 2.5243 5.0486 0.786068-0.88433 1.1791 5.79725-3.93034-4.42163 1.1791-0.0983-2.5243-5.0486 0.786068-0.39303" clip-path="url(#pbed49c8f34)"/>
   <path d="m67.4073 366.029 1.95751 2.93626 0.67031-0.97499 1.88906 5.60623-4.44842-3.89999 1.15781-0.24375-1.95751-2.93627 0.731248-0.48749" clip-path="url(#pbed49c8f34)"/>
   <path d="m77.464 367.243 1.87788 1.87789 0.375577-0.87635 2.37865 4.13135-4.13135-2.37865 0.876346-0.37558-1.87788-1.87788 0.50077-0.50078" clip-path="url(#pbed49c8f34)"/>
   <path d="m87.5107 368.463 1.87788 0.93894 0.0626-0.75115 2.81683 2.50384-3.69317-0.75115 0.563364-0.50077-1.87788-0.93894 0.250385-0.50077" clip-path="url(#pbed49c8f34)"/>
   <path d="m97.5573 369.684h1.87788l-0.250385-0.62597 3.255 0.87635-3.255 0.87635 0.250385-0.62596h-1.87788v-0.50077" clip-path="url(#pbed49c8f34)"/>
   <path d="m107.604 370.905 1.87789-0.93894-0.56337-0.50077 3.69318-0.75115-2.81683 2.50384-0.0626-0.75115-1.87789 0.93894-0.25038-0.50077" clip-path="url(#pbed49c8f34)"/>
   <path d="m117.651 372.125 1.87788-1.87788-0.87635-0.37558 4.13135-2.37865-2.37865 4.13135-0.37558-0.87635-1.87788 1.87789-0.50077-0.50078" clip-path="url(#pbed49c8f34)"/>
   <path d="m127.707 373.352 1.95751-2.93627-1.15781-0.24375 4.44842-3.89998-1.88905 5.60622-0.67031-0.97499-1.95751 2.93626-0.73125-0.48749" clip-path="url(#pbed49c8f34)"/>
   <path d="m137.852 374.62 2.52429-5.04859-1.1791-0.0983 3.93034-4.42163-1.1791 5.79725-0.78607-0.88433-2.5243 5.0486-0.78606-0.39304" clip-path="url(#pbed49c8f34)"/>
   <path d="m58.5168 354.445 1.16234 4.64934 0.959186-0.69274-0.106575 5.91498-2.87756-5.16895 1.17234 0.15987-1.16234-4.64934 0.85261-0.21316" clip-path="url(#pbed49c8f34)"/>
   <path d="m68.6379 355.647 0.938942 2.81683 0.81375-0.68856 0.312981 5.32068-2.94202-4.44433 1.06413 0.0626-0.938943-2.81683 0.751155-0.25038" clip-path="url(#pbed49c8f34)"/>
   <path d="m78.6846 356.868 0.938942 1.87788 0.500769-0.56336 0.751154 3.69317-2.50385-2.81683 0.751154-0.0626-0.938943-1.87788 0.50077-0.25039" clip-path="url(#pbed49c8f34)"/>
   <path d="m118.871 361.75 0.93894-1.87789-0.75115-0.0626 2.50385-2.81683-0.75116 3.69317-0.50077-0.56336-0.93894 1.87788-0.50077-0.25038" clip-path="url(#pbed49c8f34)"/>
   <path d="m128.918 362.971 0.93894-2.81682-1.06413 0.0626 2.94202-4.44433-0.31298 5.32067-0.81375-0.68856-0.93894 2.81683-0.75116-0.25038" clip-path="url(#pbed49c8f34)"/>
   <path d="m139.039 364.21 1.16233-4.64934-1.17233 0.15987 2.87755-5.16895 0.10658 5.91498-0.95919-0.69274-1.16233 4.64934l-0.85261-0.21316" clip-path="url(#pbed49c8f34)"/>
   <path d="m59.7505 344.052v4.4919l1.09856-0.43942-1.53799 5.71252-1.53799-5.71252 1.09856 0.43942v-4.4919h0.87885" clip-path="url(#pbed49c8f34)"/>
   <path d="m69.8585 345.272v2.81682l0.938942-0.37557-1.31452 4.8825-1.31452-4.8825 0.938941 0.37557v-2.81682h0.751155" clip-path="url(#pbed49c8f34)"/>
   <path d="m79.9052 346.493v1.87789l0.625961-0.25039-0.876346 3.255-0.876346-3.255 0.625961 0.25039v-1.87789h0.50077" clip-path="url(#pbed49c8f34)"/>
   <path d="m120.092 351.376v-1.87789l-0.62596 0.25039 0.87635-3.255 0.87635 3.255-0.62597-0.25039v1.87789h-0.50077" clip-path="url(#pbed49c8f34)"/>
   <path d="m130.139 352.596v-2.81683l-0.93894 0.37557 1.31451-4.88249 1.31452 4.88249-0.93894-0.37557v2.81683h-0.75115" clip-path="url(#pbed49c8f34)"/>
   <path d="m140.247 353.817v-4.4919l-1.09856 0.43942 1.53799-5.71252 1.53799 5.71252-1.09857-0.43942v4.4919h-0.87885" clip-path="url(#pbed49c8f34)"/>
   <path d="m60.958 333.658-1.16234 4.64934 1.17234-0.15987-2.87756 5.16895-0.106575-5.91498 0.959186 0.69274 1.16234-4.64934 0.85261 0.21316" clip-path="url(#pbed49c8f34)"/>
   <path d="m71.0792 334.898-0.938942 2.81682 1.06413-0.0626-2.94202 4.44433 0.312981-5.32067 0.81375 0.68856 0.938941-2.81683 0.751155 0.25038" clip-path="url(#pbed49c8f34)"/>
   <path d="m81.1258 336.118-0.938943 1.87789 0.751154 0.0626-2.50385 2.81683 0.751154-3.69318 0.500768 0.56337 0.938943-1.87789 0.50077 0.25039" clip-path="url(#pbed49c8f34)"/>
   <path d="m121.313 341.001-0.93894-1.87788-0.50077 0.56336-0.75116-3.69317 2.50385 2.81683-0.75115 0.0626 0.93894 1.87788-0.50077 0.25039" clip-path="url(#pbed49c8f34)"/>
   <path d="m131.359 342.221-0.93894-2.81683-0.81375 0.68856-0.31298-5.32067 2.94202 4.44432-1.06414-0.0626 0.93895 2.81683-0.75116 0.25038" clip-path="url(#pbed49c8f34)"/>
   <path d="m141.48 343.423-1.16234-4.64934-0.95918 0.69274 0.10657-5.91498 2.87756 5.16895-1.17234-0.15987 1.16234 4.64934-0.85261 0.21316" clip-path="url(#pbed49c8f34)"/>
   <path d="m62.1454 323.248-2.5243 5.04859 1.1791 0.0983-3.93034 4.42162 1.1791-5.79725 0.786068 0.88433 2.5243-5.0486 0.786068 0.39304" clip-path="url(#pbed49c8f34)"/>
   <path d="m72.2898 324.516-1.95751 2.93627 1.15781 0.24375-4.44842 3.89999 1.88906-5.60623 0.67031 0.97499 1.95751-2.93626 0.731248 0.48749" clip-path="url(#pbed49c8f34)"/>
   <path d="m82.3465 325.743-1.87788 1.87788 0.876346 0.37558-4.13135 2.37865 2.37865-4.13135 0.375577 0.87635 1.87788-1.87789 0.50077 0.50078" clip-path="url(#pbed49c8f34)"/>
   <path d="m92.3932 326.964-1.87788 0.93894 0.563365 0.50077-3.69317 0.75115 2.81683-2.50384 0.0626 0.75115 1.87788-0.93894 0.250385 0.50077" clip-path="url(#pbed49c8f34)"/>
   <path d="m102.44 328.185h-1.87789l0.25039 0.62596-3.255-0.87635 3.255-0.87635-0.25039 0.62597h1.87789v0.50077" clip-path="url(#pbed49c8f34)"/>
   <path d="m112.487 329.405-1.87788-0.93894-0.0626 0.75115-2.81683-2.50384 3.69317 0.75115-0.56336 0.50077 1.87788 0.93894-0.25038 0.50077" clip-path="url(#pbed49c8f34)"/>
   <path d="m122.533 330.626-1.87788-1.87789-0.37558 0.87635-2.37865-4.13135 4.13135 2.37865-0.87635 0.37558 1.87788 1.87789-0.50077 0.50077" clip-path="url(#pbed49c8f34)"/>
   <path d="m132.59 331.84-1.95751-2.93626-0.67031 0.975-1.88906-5.60623 4.44843 3.89998-1.15781 0.24375 1.95751 2.93627l-0.73125 0.48749" clip-path="url(#pbed49c8f34)"/>
   <path d="m142.734 333.013-2.5243-5.0486-0.78607 0.88433-1.1791-5.79725 3.93034 4.42163-1.1791 0.0983 2.52429 5.0486-0.78606 0.39303" clip-path="url(#pbed49c8f34)"/>
   <path d="m63.3245 312.815-4.15989 5.54653 1.1425 0.30759-4.6579 3.64723 2.19712-5.49281 0.615195 1.01068 4.15989-5.54653 0.70308 0.52731" clip-path="url(#pbed49c8f34)"/>
   <path d="m73.4556 314.083-3.5951 3.5951 1.08752 0.46608-5.12689 2.95185 2.95184-5.12689 0.46608 1.08752 3.59511-3.5951 0.62144 0.62144" clip-path="url(#pbed49c8f34)"/>
   <path d="m83.5605 315.359-2.93626 1.95751 0.974996 0.67031-5.60623 1.88906 3.89999-4.44842 0.243749 1.15781 2.93627-1.95751 0.487498 0.73124" clip-path="url(#pbed49c8f34)"/>
   <path d="m93.6138 316.589-2.81683 0.93894 0.688557 0.81375-5.32067 0.31298 4.44433-2.94201-0.0626 1.06413 2.81683-0.93894 0.250385 0.75115" clip-path="url(#pbed49c8f34)"/>
   <path d="m103.66 317.81h-2.81683l0.37557 0.93894-4.8825-1.31452 4.8825-1.31452-0.37557 0.93894h2.81683v0.75116" clip-path="url(#pbed49c8f34)"/>
   <path d="m113.707 319.03-2.81683-0.93894 0.0626 1.06413-4.44433-2.94201 5.32067 0.31298-0.68856 0.81375 2.81683 0.93894-0.25038 0.75115" clip-path="url(#pbed49c8f34)"/>
   <path d="m123.76 320.241-2.93627-1.95751-0.24375 1.15781-3.89999-4.44842 5.60623 1.88906-0.97499 0.67031 2.93626 1.95751-0.48749 0.73124" clip-path="url(#pbed49c8f34)"/>
   <path d="m133.865 321.407-3.59511-3.59511-0.46608 1.08752-2.95184-5.12688 5.12689 2.95184-1.08753 0.46608 3.59511 3.59511-0.62144 0.62144" clip-path="url(#pbed49c8f34)"/>
   <path d="m143.996 322.58-4.15989-5.54653-0.61519 1.01068-2.19713-5.49281 4.65791 3.64723-1.14251 0.30759 4.15989 5.54653-0.70308 0.52731" clip-path="url(#pbed49c8f34)"/>
   <path d="m64.5043 302.362-6.03636 6.03636 1.08752 0.46608-5.12689 2.95184 2.95184-5.12689 0.46608 1.08753 6.03636-6.03636 0.62144 0.62144" clip-path="url(#pbed49c8f34)"/>
   <path d="m74.6291 303.624-5.54652 4.15989 1.01068 0.61519-5.49281 2.19713 3.64723-4.65791 0.307598 1.14251 5.54652-4.15989 0.52731 0.70308" clip-path="url(#pbed49c8f34)"/>
   <path d="m84.7339 304.886-5.0486 2.5243 0.884325 0.78607-5.79725 1.1791 4.42163-3.93034 0.09826 1.1791 5.0486-2.52429 0.393033 0.78606" clip-path="url(#pbed49c8f34)"/>
   <path d="m94.8158 306.14-4.64934 1.16234 0.692745 0.95918-5.91498-0.10657 5.16895-2.87756-0.159863 1.17234 4.64934-1.16234 0.213152 0.85261" clip-path="url(#pbed49c8f34)"/>
   <path d="m104.881 307.374h-4.4919l0.43943 1.09856-5.71253-1.53799 5.71253-1.53799-0.43943 1.09857h4.4919v0.87885" clip-path="url(#pbed49c8f34)"/>
   <path d="m114.946 308.581-4.64934-1.16233 0.15986 1.17233-5.16894-2.87755 5.91498-0.10658-0.69275 0.95919 4.64934 1.16233-0.21315 0.85261" clip-path="url(#pbed49c8f34)"/>
   <path d="m125.028 309.769-5.04859-2.52429-0.0983 1.1791-4.42163-3.93034 5.79725 1.1791-0.88433 0.78607 5.0486 2.5243-0.39304 0.78606" clip-path="url(#pbed49c8f34)"/>
   <path d="m135.133 310.948-5.54652-4.15989-0.3076 1.1425-3.64722-4.6579 5.49281 2.19712-1.01068 0.6152 5.54652 4.15989-0.52731 0.70308" clip-path="url(#pbed49c8f34)"/>
   <path d="m145.258 312.127-6.03636-6.03636-0.46608 1.08753-2.95184-5.12689 5.12689 2.95184-1.08753 0.46608 6.03636 6.03636-0.62144 0.62144" clip-path="url(#pbed49c8f34)"/>
  </g>
 </g>
</svg>
