<?xml version="1.0" encoding="UTF-8"?>
<svg width="220.383" height="137.517" version="1.1" viewBox="0 0 220.38293 137.51668" xmlns="http://www.w3.org/2000/svg"><defs><marker id="marker1615" overflow="visible" orient="auto"><path transform="matrix(-.4 0 0 -.4 -4 0)" d="m0 0 5-5-17.5 5 17.5 5z" fill="#f00" fill-rule="evenodd" stroke="#f00" stroke-width="1pt"/></marker></defs><g transform="translate(61.62 -224.268)"><g fill="none"><path d="m58.8101 306.671 20.8018 39.4577" color="#000000" color-rendering="auto" image-rendering="auto" marker-end="url(#marker1615)" shape-rendering="auto" solid-color="#000000" stroke="#f00" stroke-width="1.5" style="isolation:auto;mix-blend-mode:normal"/><g stroke="#000"><path d="m-53.5804 249.846 33.4728 5.68051" color="#000000" color-rendering="auto" image-rendering="auto" shape-rendering="auto" solid-color="#000000" stroke-width="1.5" style="isolation:auto;mix-blend-mode:normal"/><path d="m9.71603 270.475-29.8236-14.9491" color="#000000" stroke-linejoin="round" stroke-width="1.5"/><path d="m58.8101 306.671-49.0941-36.1964" color="#000000" stroke-dasharray="2, 2" stroke-linejoin="round"/></g></g><g shape-rendering="auto"><g><circle cx="-53.5804" cy="249.846" r="4.54298" color="#000000" color-rendering="auto" image-rendering="auto" solid-color="#000000" style="isolation:auto;mix-blend-mode:normal"/><circle cx="-20.4437" cy="254.856" r="2.90751" color="#000000" color-rendering="auto" image-rendering="auto" solid-color="#000000" style="isolation:auto;mix-blend-mode:normal"/><circle cx="9.41931" cy="270.073" r="2.90751" color="#000000" color-rendering="auto" image-rendering="auto" solid-color="#000000" style="isolation:auto;mix-blend-mode:normal"/><circle cx="58.8101" cy="306.671" r="2.90751" color="#000000" color-rendering="auto" image-rendering="auto" solid-color="#000000" style="isolation:auto;mix-blend-mode:normal"/></g><circle cx="83.9917" cy="353.644" r="7.04298" color="#000000" color-rendering="auto" fill="#cacaca" image-rendering="auto" solid-color="#000000" stroke="#555" stroke-width="1.19668" style="isolation:auto;mix-blend-mode:normal"/></g><g stroke-linejoin="round" stroke-miterlimit="1e5" stroke-width="1.33333"><path d="m-8.15649 239.713c0.0957-0.34431 0.0957-0.38256 0.0957-0.43995 0-0.42082-0.30605-0.84164-0.89904-0.84164-0.99465 0-1.22421 0.89903-1.35809 1.41549l-0.49735 1.98935c-0.22953 0.91814-0.59297 2.39102-0.80337 3.17528-0.0957 0.42083-0.68863 0.8799-0.746 0.91816-0.21042 0.13392-0.66951 0.45907-1.30074 0.45907-1.12856 0-1.1477-0.9564-1.1477-1.39635 0-1.16684 0.59298-2.65884 1.12858-4.03607 0.19128-0.49734 0.24867-0.63123 0.24867-0.95641 0-1.10944-1.10944-1.72156-2.1615-1.72156-2.02759 0-2.98401 2.60146-2.98401 2.98402 0 0.26779 0.28693 0.26779 0.45908 0.26779 0.22954 0 0.36344 0 0.43995-0.24865 0.63123-2.12325 1.68328-2.31453 1.97021-2.31453 0.1339 0 0.32518 0 0.32518 0.40169 0 0.43996-0.21041 0.93728-0.32518 1.24333-0.746 1.91283-1.1477 3.00315-1.1477 3.97869 0 2.18062 1.91284 2.48667 3.0414 2.48667 0.4782 0 1.12857-0.0765 1.83632-0.57384-0.5356 2.35277-1.97021 3.59611-3.29007 3.59611-0.24867 0-0.78425-0.0382-1.16683-0.26779 0.61211-0.24867 0.91816-0.76513 0.91816-1.2816 0-0.68862-0.55472-0.8799-0.93728-0.8799-0.70774 0-1.37724 0.61211-1.37724 1.45374 0 0.97555 1.0138 1.66416 2.56319 1.66416 2.19975 0 4.72469-1.47286 5.31767-3.84477z"/><path d="m2.32517 251.515c0-0.0574 0-0.0957-0.32518-0.42081-2.39103-2.41016-3.00314-6.02541-3.00314-8.95204 0-3.32832 0.72688-6.65664 3.07965-9.04768 0.24867-0.22953 0.24867-0.26779 0.24867-0.32516 0-0.13392-0.0765-0.1913-0.19128-0.1913-0.19128 0-1.91283 1.30074-3.04139 3.73002-0.97555 2.10411-1.20509 4.22734-1.20509 5.83412 0 1.492 0.21042 3.80653 1.26246 5.96802 1.1477 2.35278 2.79274 3.59611 2.98402 3.59611 0.11477 0 0.19128-0.0574 0.19128-0.19128z"/><path d="m8.48197 238.565c-2.39102 0.57386-4.24647 3.06053-4.24647 5.37504 0 1.83632 1.22422 3.21355 3.02227 3.21355 2.23801 0 3.82566-3.00313 3.82566-5.64283 0-1.74067-0.76514-2.69709-1.4155-3.55785-0.68861-0.86079-1.81719-2.2954-1.81719-3.13704 0-0.42084 0.38258-0.87991 1.05207-0.87991 0.57384 0 0.95641 0.24867 1.35811 0.51647 0.38256 0.22953 0.76512 0.4782 1.05205 0.4782 0.4782 0 0.76513-0.45907 0.76513-0.76513 0-0.42082-0.30606-0.47821-0.99467-0.63123-0.99467-0.2104-1.26246-0.2104-1.56853-0.2104-1.492 0-2.18062 0.82251-2.18062 1.9702 0 1.03293 0.55472 2.10412 1.14769 3.27093zm0.22956 0.42083c0.4782 0.87989 1.05204 1.91282 1.05204 3.29005 0 1.26248-0.72688 4.4569-2.5058 4.4569-1.05205 0-1.83631-0.80339-1.83631-2.25714 0-1.20509 0.70775-4.8012 3.29007-5.48981z"/><path d="m16.5661 239.273h1.79806c0.38256 0 0.57386 0 0.57386-0.38256 0-0.21042-0.1913-0.21042-0.5356-0.21042h-1.68328c0.6886-2.71621 0.78425-3.09877 0.78425-3.21355 0-0.32517-0.22953-0.51647-0.55472-0.51647-0.0574 0-0.59297 0.0192-0.76513 0.68863l-0.746 3.04139h-1.79806c-0.38257 0-0.57385 0-0.57385 0.36344 0 0.22954 0.15303 0.22954 0.53559 0.22954h1.68329c-1.37724 5.43243-1.45375 5.75761-1.45375 6.10192 0 1.03292 0.72687 1.7598 1.7598 1.7598 1.95109 0 3.04139-2.79273 3.04139-2.94576 0-0.19128-0.15302-0.19128-0.22953-0.19128-0.17216 0-0.19128 0.0574-0.28693 0.2678-0.82251 1.98934-1.83631 2.44841-2.48667 2.44841-0.4017 0-0.59298-0.24865-0.59298-0.8799 0-0.45907 0.0383-0.59296 0.11477-0.91815z"/><path d="m25.037 242.142c0-1.49201-0.2104-3.80652-1.26246-5.96801-1.1477-2.35279-2.79272-3.59613-2.98401-3.59613-0.11477 0-0.19128 0.0765-0.19128 0.1913 0 0.0574 0 0.0957 0.36344 0.43993 1.87457 1.89371 2.96487 4.93511 2.96487 8.93291 0 3.27093-0.70774 6.63751-3.07964 9.04767-0.24867 0.22953-0.24867 0.26779-0.24867 0.32518 0 0.11472 0.0765 0.19128 0.19128 0.19128 0.19129 0 1.91283-1.30072 3.0414-3.73001 0.97554-2.1041 1.20507-4.22735 1.20507-5.83412z"/><path d="m23.1684 257.506c0.0957-0.34431 0.0957-0.38256 0.0957-0.43995 0-0.42082-0.30605-0.84164-0.89904-0.84164-0.99466 0-1.22421 0.89903-1.3581 1.41549l-0.49734 1.98935c-0.22954 0.91814-0.59298 2.39102-0.80338 3.17528-0.0957 0.42083-0.68862 0.8799-0.746 0.91816-0.21041 0.13392-0.6695 0.45907-1.30073 0.45907-1.12856 0-1.1477-0.9564-1.1477-1.39635 0-1.16684 0.59298-2.65884 1.12858-4.03607 0.19128-0.49734 0.24867-0.63123 0.24867-0.95641 0-1.10944-1.10944-1.72156-2.16151-1.72156-2.02759 0-2.984 2.60146-2.984 2.98402 0 0.26779 0.28692 0.26779 0.45907 0.26779 0.22954 0 0.36344 0 0.43996-0.24865 0.63123-2.12325 1.68328-2.31453 1.97021-2.31453 0.1339 0 0.32518 0 0.32518 0.40169 0 0.43996-0.21042 0.93728-0.32518 1.24333-0.746 1.91283-1.1477 3.00315-1.1477 3.97869 0 2.18062 1.91283 2.48667 3.04139 2.48667 0.47821 0 1.12858-0.0765 1.83632-0.57384-0.5356 2.35277-1.97021 3.59611-3.29006 3.59611-0.24867 0-0.78426-0.0382-1.16683-0.26779 0.61211-0.24867 0.91816-0.76513 0.91816-1.2816 0-0.68862-0.55472-0.8799-0.93728-0.8799-0.70775 0-1.37724 0.61211-1.37724 1.45374 0 0.97555 1.0138 1.66416 2.56319 1.66416 2.19974 0 4.72469-1.47286 5.31766-3.84477z"/><path d="m33.6501 269.308c0-0.0574 0-0.0957-0.32519-0.42081-2.39102-2.41016-3.00313-6.02541-3.00313-8.95204 0-3.32832 0.72688-6.65664 3.07964-9.04768 0.24868-0.22953 0.24868-0.26779 0.24868-0.32516 0-0.13392-0.0765-0.1913-0.19128-0.1913-0.19128 0-1.91284 1.30074-3.0414 3.73002-0.97555 2.10411-1.20508 4.22734-1.20508 5.83412 0 1.492 0.21041 3.80653 1.26246 5.96802 1.1477 2.35278 2.79274 3.59611 2.98402 3.59611 0.11476 0 0.19128-0.0574 0.19128-0.19128z"/><path d="m37.1879 263.244 2.02758-1.97021c2.98402-2.6397 4.13171-3.67262 4.13171-5.58546 0-2.18062-1.72153-3.71088-4.0552-3.71088-2.16149 0-3.57698 1.7598-3.57698 3.46221 0 1.07119 0.95642 1.07119 1.0138 1.07119 0.32518 0 0.99467-0.22954 0.99467-1.0138 0-0.49734-0.3443-0.99467-1.01379-0.99467-0.15303 0-0.19128 0-0.24867 0.0192 0.43995-1.24334 1.47288-1.95109 2.58232-1.95109 1.74067 0 2.56318 1.5494 2.56318 3.11791 0 1.53025-0.95642 3.04139-2.00846 4.22734l-3.67264 4.09346c-0.21041 0.21041-0.21041 0.24867-0.21041 0.70774h7.0966l0.53558-3.32832h-0.47821c-0.0956 0.57386-0.22953 1.41549-0.42081 1.70242-0.13391 0.15296-1.39637 0.15296-1.81719 0.15296z"/><path d="m49.3365 256.358c-2.39103 0.57386-4.24647 3.06053-4.24647 5.37504 0 1.83632 1.22421 3.21355 3.02226 3.21355 2.23802 0 3.82566-3.00313 3.82566-5.64283 0-1.74067-0.76513-2.69709-1.4155-3.55785-0.68861-0.86079-1.81718-2.2954-1.81718-3.13704 0-0.42084 0.38257-0.87991 1.05206-0.87991 0.57384 0 0.95642 0.24867 1.35811 0.51647 0.38256 0.22953 0.76512 0.4782 1.05205 0.4782 0.47821 0 0.76514-0.45907 0.76514-0.76513 0-0.42082-0.30607-0.47821-0.99468-0.63123-0.99467-0.2104-1.26246-0.2104-1.56852-0.2104-1.492 0-2.18063 0.82251-2.18063 1.9702 0 1.03293 0.55472 2.10412 1.1477 3.27093zm0.22955 0.42083c0.47821 0.87989 1.05205 1.91282 1.05205 3.29005 0 1.26248-0.72688 4.4569-2.50581 4.4569-1.05205 0-1.8363-0.80339-1.8363-2.25714 0-1.20509 0.70774-4.8012 3.29006-5.48981z"/><path d="m57.4207 257.066h1.79807c0.38256 0 0.57385 0 0.57385-0.38256 0-0.21042-0.19129-0.21042-0.5356-0.21042h-1.68328c0.68861-2.71621 0.78426-3.09877 0.78426-3.21355 0-0.32517-0.22954-0.51647-0.55472-0.51647-0.0574 0-0.59298 0.0192-0.76514 0.68863l-0.746 3.04139h-1.79806c-0.38256 0-0.57384 0-0.57384 0.36344 0 0.22954 0.15302 0.22954 0.53559 0.22954h1.68329c-1.37724 5.43243-1.45375 5.75761-1.45375 6.10192 0 1.03292 0.72687 1.7598 1.7598 1.7598 1.95108 0 3.04139-2.79273 3.04139-2.94576 0-0.19128-0.15303-0.19128-0.22954-0.19128-0.17216 0-0.19128 0.0574-0.28693 0.2678-0.82251 1.98934-1.8363 2.44841-2.48667 2.44841-0.40169 0-0.59297-0.24865-0.59297-0.8799 0-0.45907 0.0383-0.59296 0.11476-0.91815z"/><path d="m65.8899 259.935c0-1.49201-0.2104-3.80652-1.26246-5.96801-1.1477-2.35279-2.79273-3.59613-2.98401-3.59613-0.11477 0-0.19128 0.0765-0.19128 0.1913 0 0.0574 0 0.0957 0.36344 0.43993 1.87457 1.89371 2.96487 4.93511 2.96487 8.93291 0 3.27093-0.70774 6.63751-3.07964 9.04767-0.24867 0.22953-0.24867 0.26779-0.24867 0.32518 0 0.11472 0.0765 0.19128 0.19128 0.19128 0.19128 0 1.91282-1.30072 3.0414-3.73001 0.97554-2.1041 1.20507-4.22735 1.20507-5.83412z"/><path d="m71.7047 290.652c0.09565-0.34431 0.09565-0.38256 0.09565-0.43995 0-0.42082-0.306048-0.84164-0.89904-0.84164-0.994656 0-1.22421 0.89903-1.3581 1.41549l-0.497344 1.98935c-0.229536 0.91814-0.592976 2.39102-0.803376 3.17528-0.09565 0.42083-0.688629 0.8799-0.745999 0.91816-0.21042 0.13392-0.66951 0.45907-1.30074 0.45907-1.12856 0-1.14769-0.9564-1.14769-1.39635 0-1.16684 0.59297-2.65884 1.12857-4.03607 0.19128-0.49734 0.24867-0.63123 0.24867-0.95641 0-1.10944-1.10944-1.72156-2.1615-1.72156-2.02759 0-2.98401 2.60146-2.98401 2.98402 0 0.26779 0.28693 0.26779 0.45908 0.26779 0.22954 0 0.36344 0 0.43995-0.24865 0.63124-2.12325 1.68328-2.31453 1.97021-2.31453 0.13391 0 0.32519 0 0.32519 0.40169 0 0.43996-0.21042 0.93728-0.32519 1.24333-0.746 1.91283-1.14769 3.00315-1.14769 3.97869 0 2.18062 1.91283 2.48667 3.04139 2.48667 0.47821 0 1.12857-0.0765 1.83632-0.57384-0.535599 2.35277-1.97021 3.59611-3.29007 3.59611-0.24867 0-0.78425-0.0382-1.16683-0.26779 0.61211-0.24867 0.91816-0.76513 0.91816-1.2816 0-0.68862-0.55472-0.8799-0.93728-0.8799-0.70774 0-1.37724 0.61211-1.37724 1.45374 0 0.97555 1.0138 1.66416 2.56319 1.66416 2.19975 0 4.72469-1.47286 5.31767-3.84477z"/><path d="m82.1863 302.454c0-0.0574 0-0.0957-0.325184-0.42081-2.39102-2.41016-3.00314-6.02541-3.00314-8.95204 0-3.32832 0.72688-6.65664 3.07965-9.04768 0.248672-0.22953 0.248672-0.26779 0.248672-0.32516 0-0.13392-0.07651-0.1913-0.19128-0.1913-0.19128 0-1.91283 1.30074-3.04139 3.73002-0.975552 2.10411-1.20509 4.22734-1.20509 5.83412 0 1.492 0.210416 3.80653 1.26246 5.96802 1.1477 2.35278 2.79274 3.59611 2.98402 3.59611 0.114768 0 0.19128-0.0574 0.19128-0.19128z"/><path d="m87.2336 290.212h1.79806c0.38256 0 0.573856 0 0.573856-0.38256 0-0.21042-0.191296-0.21042-0.5356-0.21042h-1.68328c0.688608-2.71621 0.784256-3.09877 0.784256-3.21355 0-0.32517-0.229536-0.51647-0.55472-0.51647-0.05739 0-0.592976 0.0192-0.765136 0.68863l-0.746 3.04139h-1.79806c-0.382565 0-0.573848 0-0.573848 0.36344 0 0.22954 0.153025 0.22954 0.535592 0.22954h1.68329c-1.37724 5.43243-1.45375 5.75761-1.45375 6.10192 0 1.03292 0.72687 1.7598 1.7598 1.7598 1.95109 0 3.04139-2.79273 3.04139-2.94576 0-0.19128-0.153024-0.19128-0.229536-0.19128-0.17216 0-0.19128 0.0574-0.286928 0.2678-0.822512 1.98934-1.8363 2.44841-2.48667 2.44841-0.401696 0-0.592976-0.24865-0.592976-0.8799 0-0.45907 0.03826-0.59296 0.114768-0.91815z"/><path d="m95.7029 293.082c0-1.49201-0.2104-3.80652-1.26246-5.96801-1.1477-2.35279-2.79272-3.59613-2.98401-3.59613-0.114769 0-0.191281 0.0765-0.191281 0.1913 0 0.0574 0 0.0957 0.363436 0.43993 1.87457 1.89371 2.96488 4.93511 2.96488 8.93291 0 3.27093-0.707744 6.63751-3.07964 9.04767-0.248667 0.22953-0.248667 0.26779-0.248667 0.32518 0 0.11472 0.07651 0.19128 0.191281 0.19128 0.191283 0 1.91282-1.30072 3.0414-3.73001 0.975536-2.1041 1.20507-4.22735 1.20507-5.83412z"/><path d="m94.8646 332.652c0.09565-0.34431 0.09565-0.38256 0.09565-0.43995 0-0.42082-0.306048-0.84164-0.89904-0.84164-0.994656 0-1.22421 0.89903-1.3581 1.41549l-0.497344 1.98935c-0.229536 0.91814-0.592976 2.39102-0.803376 3.17528-0.09565 0.42083-0.688624 0.8799-0.746 0.91816-0.210416 0.13392-0.669504 0.45907-1.30074 0.45907-1.12856 0-1.1477-0.9564-1.1477-1.39635 0-1.16684 0.592976-2.65884 1.12858-4.03607 0.19128-0.49734 0.248672-0.63123 0.248672-0.95641 0-1.10944-1.10944-1.72156-2.1615-1.72156-2.02759 0-2.98401 2.60146-2.98401 2.98402 0 0.26779 0.286925 0.26779 0.459078 0.26779 0.229539 0 0.363439 0 0.439951-0.24865 0.631235-2.12325 1.68328-2.31453 1.97021-2.31453 0.133904 0 0.325184 0 0.325184 0.40169 0 0.43996-0.210416 0.93728-0.325184 1.24333-0.746 1.91283-1.1477 3.00315-1.1477 3.97869 0 2.18062 1.91283 2.48667 3.04139 2.48667 0.478208 0 1.12858-0.0765 1.83632-0.57384-0.5356 2.35277-1.97021 3.59611-3.29006 3.59611-0.248672 0-0.784256-0.0382-1.16683-0.26779 0.612112-0.24867 0.91816-0.76513 0.91816-1.2816 0-0.68862-0.55472-0.8799-0.93728-0.8799-0.707744 0-1.37724 0.61211-1.37724 1.45374 0 0.97555 1.0138 1.66416 2.56319 1.66416 2.19974 0 4.72469-1.47286 5.31766-3.84477z"/><path d="m105.346 344.454c0-0.0574 0-0.0957-0.32519-0.42081-2.39102-2.41016-3.00313-6.02541-3.00313-8.95204 0-3.32832 0.72688-6.65664 3.07964-9.04768 0.24868-0.22953 0.24868-0.26779 0.24868-0.32516 0-0.13392-0.0765-0.1913-0.19128-0.1913-0.19128 0-1.91284 1.30074-3.0414 3.73002-0.97555 2.10411-1.20508 4.22734-1.20508 5.83412 0 1.492 0.21041 3.80653 1.26246 5.96802 1.1477 2.35278 2.79274 3.59611 2.98402 3.59611 0.11476 0 0.19128-0.0574 0.19128-0.19128z"/><path d="m110.394 332.212h1.79806c0.38256 0 0.57386 0 0.57386-0.38256 0-0.21042-0.1913-0.21042-0.5356-0.21042h-1.68328c0.68861-2.71621 0.78426-3.09877 0.78426-3.21355 0-0.32517-0.22954-0.51647-0.55472-0.51647-0.0574 0-0.59298 0.0192-0.76514 0.68863l-0.746 3.04139h-1.79806c-0.38256 0-0.57385 0-0.57385 0.36344 0 0.22954 0.15303 0.22954 0.5356 0.22954h1.68329c-1.37724 5.43243-1.45375 5.75761-1.45375 6.10192 0 1.03292 0.72687 1.7598 1.75979 1.7598 1.95109 0 3.0414-2.79273 3.0414-2.94576 0-0.19128-0.15303-0.19128-0.22954-0.19128-0.17216 0-0.19128 0.0574-0.28693 0.2678-0.82251 1.98934-1.8363 2.44841-2.48667 2.44841-0.4017 0-0.59298-0.24865-0.59298-0.8799 0-0.45907 0.0383-0.59296 0.11477-0.91815z"/><path d="m125.41 335.464h5.3368c0.26779 0 0.63123 0 0.63123-0.38256s-0.36344-0.38257-0.63123-0.38257h-5.3368v-5.35591c0-0.26779 0-0.63123-0.38256-0.63123s-0.38256 0.36344-0.38256 0.63123v5.35591h-5.35592c-0.26779 0-0.63123 0-0.63123 0.38257 0 0.38258 0.36344 0.38256 0.63123 0.38256h5.35592v5.35592c0 0.2678 0 0.63124 0.38256 0.63124s0.38256-0.36344 0.38256-0.63124z"/><path d="m141.71 331.505c-2.39103 0.57386-4.24647 3.06053-4.24647 5.37504 0 1.83632 1.22421 3.21355 3.02226 3.21355 2.23801 0 3.82566-3.00313 3.82566-5.64283 0-1.74067-0.76513-2.69709-1.4155-3.55785-0.68861-0.86079-1.81719-2.2954-1.81719-3.13704 0-0.42084 0.38258-0.87991 1.05207-0.87991 0.57384 0 0.95641 0.24867 1.35811 0.51647 0.38256 0.22953 0.76512 0.4782 1.05205 0.4782 0.47821 0 0.76513-0.45907 0.76513-0.76513 0-0.42082-0.30606-0.47821-0.99467-0.63123-0.99467-0.2104-1.26246-0.2104-1.56853-0.2104-1.492 0-2.18062 0.82251-2.18062 1.9702 0 1.03293 0.55472 2.10412 1.1477 3.27093zm0.22955 0.42083c0.47821 0.87989 1.05205 1.91282 1.05205 3.29005 0 1.26248-0.72688 4.4569-2.50581 4.4569-1.05205 0-1.83631-0.80339-1.83631-2.25714 0-1.20509 0.70775-4.8012 3.29007-5.48981z"/><path d="m149.794 332.212h1.79806c0.38256 0 0.57386 0 0.57386-0.38256 0-0.21042-0.1913-0.21042-0.5356-0.21042h-1.68328c0.68861-2.71621 0.78426-3.09877 0.78426-3.21355 0-0.32517-0.22954-0.51647-0.55472-0.51647-0.0574 0-0.59298 0.0192-0.76514 0.68863l-0.746 3.04139h-1.79806c-0.38256 0-0.57385 0-0.57385 0.36344 0 0.22954 0.15303 0.22954 0.5356 0.22954h1.68329c-1.37724 5.43243-1.45376 5.75761-1.45376 6.10192 0 1.03292 0.72688 1.7598 1.7598 1.7598 1.95109 0 3.0414-2.79273 3.0414-2.94576 0-0.19128-0.15303-0.19128-0.22954-0.19128-0.17216 0-0.19128 0.0574-0.28693 0.2678-0.82251 1.98934-1.8363 2.44841-2.48667 2.44841-0.4017 0-0.59298-0.24865-0.59298-0.8799 0-0.45907 0.0383-0.59296 0.11477-0.91815z"/><path d="m158.263 335.082c0-1.49201-0.2104-3.80652-1.26247-5.96801-1.14769-2.35279-2.79272-3.59613-2.984-3.59613-0.11477 0-0.19128 0.0765-0.19128 0.1913 0 0.0574 0 0.0957 0.36343 0.43993 1.87457 1.89371 2.96488 4.93511 2.96488 8.93291 0 3.27093-0.70775 6.63751-3.07965 9.04767-0.24866 0.22953-0.24866 0.26779-0.24866 0.32518 0 0.11472 0.0765 0.19128 0.19128 0.19128 0.19128 0 1.91282-1.30072 3.0414-3.73001 0.97553-2.1041 1.20507-4.22735 1.20507-5.83412z"/></g><g fill="#f00"><path d="m28.626 329.148h2.238c0.36344 0 0.707744 0 0.707744-0.55472 0-0.34431-0.325168-0.34431-0.650352-0.34431h-2.14237l0.631232-3.46222c0.05738-0.3443 0.05738-0.38256 0.248672-0.55472 0.248656-0.22954 0.459072-0.22954 0.55472-0.22954 0.267792 0 0.439936 0.0382 0.669488 0.13392-0.459088 0.22956-0.803392 0.72688-0.803392 1.24335 0 0.57385 0.459072 0.8799 0.93728 0.8799 0.784272 0 1.37725-0.68862 1.37725-1.41549 0-0.97555-0.994672-1.53027-2.18062-1.53027-0.89904 0-1.97022 0.36344-2.63971 1.43463-0.439952 0.70774-0.55472 1.45374-0.91816 3.50048h-1.87456c-0.36344 0-0.688624 0-0.688624 0.55472 0 0.3443 0.325184 0.3443 0.631232 0.3443h1.75981l-1.45374 8.14864c-0.03826 0.17216-0.248672 1.37723-0.34432 1.64502-0.03826 0.0957-0.344304 0.97556-0.956416 0.97556-0.363424 0-0.516464-0.0574-0.650352-0.11472 0.478208-0.22956 0.841648-0.72688 0.841648-1.26247 0-0.57385-0.459088-0.8799-0.937296-0.8799-0.784256 0-1.37723 0.68861-1.37723 1.41549 0 1.03292 1.09032 1.53025 2.08498 1.53025 1.43462 0 2.4293-1.41549 2.58232-1.66416 0.822512-1.26246 1.26246-3.69174 1.31986-4.01693z"/><path d="m41.3214 331.96c0-0.55472-0.459072-1.0138-1.01379-1.0138s-1.01381 0.45908-1.01381 1.0138 0.459088 1.0138 1.01381 1.0138 1.01379-0.45908 1.01379-1.0138z"/><path d="m52.2426 328.383c-2.39102 0.57386-4.24647 3.06053-4.24647 5.37504 0 1.83632 1.22421 3.21355 3.02226 3.21355 2.23802 0 3.82566-3.00313 3.82566-5.64283 0-1.74067-0.765136-2.69709-1.4155-3.55785-0.688608-0.86079-1.81718-2.2954-1.81718-3.13704 0-0.42084 0.382576-0.87991 1.05206-0.87991 0.57384 0 0.956416 0.24867 1.35811 0.51647 0.38256 0.22953 0.76512 0.4782 1.05205 0.4782 0.478208 0 0.765136-0.45907 0.765136-0.76513 0-0.42082-0.306064-0.47821-0.994672-0.63123-0.994672-0.2104-1.26246-0.2104-1.56853-0.2104-1.492 0-2.18062 0.82251-2.18062 1.9702 0 1.03293 0.55472 2.10412 1.1477 3.27093zm0.229552 0.42083c0.478208 0.87989 1.05205 1.91282 1.05205 3.29005 0 1.26248-0.72688 4.4569-2.50581 4.4569-1.05205 0-1.8363-0.80339-1.8363-2.25714 0-1.20509 0.707744-4.8012 3.29006-5.48981z"/><path d="m60.3268 329.091h1.79806c0.38256 0 0.573856 0 0.573856-0.38256 0-0.21042-0.191296-0.21042-0.5356-0.21042h-1.68328c0.688608-2.71621 0.784256-3.09877 0.784256-3.21355 0-0.32517-0.229536-0.51647-0.55472-0.51647-0.05739 0-0.592976 0.0192-0.765136 0.68863l-0.746 3.04139h-1.79806c-0.382564 0-0.573848 0-0.573848 0.36344 0 0.22954 0.153026 0.22954 0.535592 0.22954h1.68329c-1.37724 5.43243-1.45375 5.75761-1.45375 6.10192 0 1.03292 0.72687 1.7598 1.7598 1.7598 1.95109 0 3.04139-2.79273 3.04139-2.94576 0-0.19128-0.153024-0.19128-0.229536-0.19128-0.17216 0-0.19128 0.0574-0.286928 0.2678-0.822512 1.98934-1.8363 2.44841-2.48667 2.44841-0.401696 0-0.592976-0.24865-0.592976-0.8799 0-0.45907 0.03826-0.59296 0.114768-0.91815z"/></g><g stroke-linejoin="round" stroke-miterlimit="1e5" stroke-width="1.6"><path d="m-50.6951 231.903c0.0956-0.34431 0.0956-0.38256 0.0956-0.43995 0-0.42082-0.30605-0.84164-0.89904-0.84164-0.99466 0-1.22421 0.89903-1.3581 1.41549l-0.49734 1.98935c-0.22954 0.91814-0.59298 2.39102-0.80338 3.17528-0.0956 0.42083-0.68862 0.8799-0.746 0.91816-0.21041 0.13392-0.6695 0.45907-1.30073 0.45907-1.12856 0-1.1477-0.9564-1.1477-1.39635 0-1.16684 0.59298-2.65884 1.12858-4.03607 0.19128-0.49734 0.24867-0.63123 0.24867-0.95641 0-1.10944-1.10944-1.72156-2.16151-1.72156-2.02759 0-2.984 2.60146-2.984 2.98402 0 0.26779 0.28692 0.26779 0.45907 0.26779 0.22954 0 0.36344 0 0.43996-0.24865 0.63123-2.12325 1.68328-2.31453 1.97021-2.31453 0.1339 0 0.32518 0 0.32518 0.40169 0 0.43996-0.21042 0.93728-0.32518 1.24333-0.746 1.91283-1.1477 3.00315-1.1477 3.97869 0 2.18062 1.91283 2.48667 3.04139 2.48667 0.47821 0 1.12858-0.0765 1.83632-0.57384-0.5356 2.35277-1.97021 3.59611-3.29006 3.59611-0.24867 0-0.78426-0.0382-1.16683-0.26779 0.61211-0.24867 0.91816-0.76513 0.91816-1.2816 0-0.68862-0.55472-0.8799-0.93728-0.8799-0.70775 0-1.37724 0.61211-1.37724 1.45374 0 0.97555 1.0138 1.66416 2.56319 1.66416 2.19974 0 4.72469-1.47286 5.31766-3.84477z"/><path d="m-40.2134 243.705c0-0.0574 0-0.0957-0.32519-0.42081-2.39102-2.41016-3.00313-6.02541-3.00313-8.95204 0-3.32832 0.72688-6.65664 3.07964-9.04768 0.24868-0.22953 0.24868-0.26779 0.24868-0.32516 0-0.13392-0.0765-0.1913-0.19128-0.1913-0.19128 0-1.91284 1.30074-3.0414 3.73002-0.97555 2.10411-1.20508 4.22734-1.20508 5.83412 0 1.492 0.21041 3.80653 1.26246 5.96802 1.1477 2.35278 2.79274 3.59611 2.98402 3.59611 0.11476 0 0.19128-0.0574 0.19128-0.19128z"/><path d="m-30.3059 232.994c0-1.53027-0.0957-3.06053-0.76514-4.47602-0.8799-1.83632-2.44841-2.14237-3.25181-2.14237-1.14769 0-2.54406 0.49733-3.32831 2.27626-0.61211 1.31986-0.70775 2.81186-0.70775 4.34213 0 1.43461 0.0765 3.15616 0.86077 4.6099 0.82253 1.54939 2.21888 1.93195 3.15617 1.93195 1.03293 0 2.48668-0.40168 3.32832-2.21888 0.6121-1.31984 0.70775-2.81185 0.70775-4.32297zm-4.03607 6.12104c-0.746 0-1.87457-0.47821-2.21888-2.31453-0.21041-1.1477-0.21041-2.90749-0.21041-4.03606 0-1.22421 0-2.48668 0.15302-3.5196 0.36344-2.27626 1.79807-2.44842 2.27627-2.44842 0.63124 0 1.8937 0.3443 2.25714 2.23802 0.19128 1.07118 0.19128 2.52492 0.19128 3.73 0 1.43462 0 2.73534-0.21042 3.95955-0.28692 1.81718-1.37723 2.39104-2.238 2.39104z"/><path d="m-24.0488 234.333c0-1.49201-0.2104-3.80652-1.26247-5.96801-1.14769-2.35279-2.79272-3.59613-2.984-3.59613-0.11477 0-0.19129 0.0765-0.19129 0.1913 0 0.0574 0 0.0957 0.36344 0.43993 1.87457 1.89371 2.96488 4.93511 2.96488 8.93291 0 3.27093-0.70775 6.63751-3.07965 9.04767-0.24867 0.22953-0.24867 0.26779-0.24867 0.32518 0 0.11472 0.0765 0.19128 0.19129 0.19128 0.19128 0 1.91282-1.30072 3.04139-3.73001 0.97554-2.1041 1.20508-4.22735 1.20508-5.83412z"/></g></g></svg>
