<?xml version="1.0" encoding="UTF-8" standalone="no"?>
<svg
   xmlns:dc="http://purl.org/dc/elements/1.1/"
   xmlns:cc="http://creativecommons.org/ns#"
   xmlns:rdf="http://www.w3.org/1999/02/22-rdf-syntax-ns#"
   xmlns:svg="http://www.w3.org/2000/svg"
   xmlns="http://www.w3.org/2000/svg"
   xmlns:xlink="http://www.w3.org/1999/xlink"
   xmlns:sodipodi="http://sodipodi.sourceforge.net/DTD/sodipodi-0.dtd"
   xmlns:inkscape="http://www.inkscape.org/namespaces/inkscape"
   width="122.491"
   height="130.294"
   version="1.1"
   viewBox="0 0 122.49133 130.29385"
   id="svg5927"
   sodipodi:docname="P1C2_5.svg"
   inkscape:version="0.92.1 r15371">
  <metadata
     id="metadata5933">
    <rdf:RDF>
      <cc:Work
         rdf:about="">
        <dc:format>image/svg+xml</dc:format>
        <dc:type
           rdf:resource="http://purl.org/dc/dcmitype/StillImage" />
        <dc:title></dc:title>
      </cc:Work>
    </rdf:RDF>
  </metadata>
  <defs
     id="defs5931">
    <symbol
       id="symbol6042">
      <path
         style="stroke-width:1.33333004;stroke-linejoin:round;stroke-miterlimit:100000"
         d="m 93.5702,83.334 h 2.238 c 0.36344,0 0.70775,0 0.70775,-0.55472 0,-0.3443 -0.32517,-0.3443 -0.65035,-0.3443 h -2.14237 l 0.63123,-3.46223 c 0.0574,-0.3443 0.0574,-0.38256 0.24867,-0.55472 0.24866,-0.22953 0.45907,-0.22953 0.55472,-0.22953 0.26779,0 0.43994,0.0382 0.66949,0.13392 -0.45909,0.22955 -0.80339,0.72688 -0.80339,1.24334 0,0.57386 0.45907,0.87991 0.93728,0.87991 0.78427,0 1.37725,-0.68863 1.37725,-1.41549 0,-0.97555 -0.99468,-1.53027 -2.18063,-1.53027 -0.89904,0 -1.97022,0.36344 -2.63971,1.43462 -0.43995,0.70774 -0.55472,1.45374 -0.91816,3.50048 h -1.87456 c -0.36344,0 -0.68862,0 -0.68862,0.55472 0,0.3443 0.32518,0.3443 0.63123,0.3443 h 1.75981 l -1.45375,8.14864 c -0.0383,0.17216 -0.24867,1.37724 -0.34432,1.64503 -0.0382,0.0957 -0.3443,0.97555 -0.95641,0.97555 -0.36343,0 -0.51647,-0.0574 -0.65036,-0.11472 0.47821,-0.22955 0.84165,-0.72688 0.84165,-1.26246 0,-0.57386 -0.45909,-0.87991 -0.93729,-0.87991 -0.78426,0 -1.37724,0.68861 -1.37724,1.41549 0,1.03293 1.09032,1.53026 2.08498,1.53026 1.43462,0 2.4293,-1.41549 2.58232,-1.66416 0.82251,-1.26247 1.26246,-3.69175 1.31986,-4.01693 z"
         id="path5919"
         inkscape:connector-curvature="0" />
    </symbol>
    <symbol
       id="symbol6047">
      <use
         xlink:href="#symbol6042"
         id="use6045" />
    </symbol>
  </defs>
  <sodipodi:namedview
     pagecolor="#ffffff"
     bordercolor="#666666"
     borderopacity="1"
     objecttolerance="10"
     gridtolerance="10"
     guidetolerance="10"
     inkscape:pageopacity="0"
     inkscape:pageshadow="2"
     inkscape:window-width="777"
     inkscape:window-height="480"
     id="namedview5929"
     showgrid="false"
     inkscape:snap-global="false"
     inkscape:zoom="1.8112882"
     inkscape:cx="86.077164"
     inkscape:cy="67.650818"
     inkscape:window-x="0"
     inkscape:window-y="374"
     inkscape:window-maximized="0"
     inkscape:current-layer="svg5927" />
  <path
     inkscape:connector-curvature="0"
     id="path5891"
     title="sin(-10*x)"
     style="color:#000000;isolation:auto;mix-blend-mode:normal;solid-color:#000000;fill:none;stroke:#555555;stroke-width:1.00000272;color-rendering:auto;image-rendering:auto;shape-rendering:auto;stroke-miterlimit:4;stroke-dasharray:none"
     d="m 76.4418,129.7 -1.43082,-8.20894 c -1.94182,0.0906 -3.87824,0.18032 -5.45045,0.20655 -1.5722,0.0262 -2.77009,-0.0128 -3.37671,-0.15493 -0.60661,-0.14208 -0.61573,-0.38831 -0.0369,-0.73703 0.57889,-0.34872 1.74575,-0.79994 3.26838,-1.31316 1.52263,-0.51322 3.39467,-1.08734 5.25171,-1.65884 1.85704,-0.57149 3.68887,-1.13864 5.14074,-1.63951 1.45187,-0.50087 2.51375,-0.93377 2.97867,-1.26267 0.46494,-0.32884 0.32698,-0.55264 -0.39243,-0.67504 -0.71941,-0.12244 -2.0198,-0.14358 -3.6597,-0.10559 -1.63989,0.038 -3.61261,0.13403 -5.55063,0.224 -1.93804,0.09 -3.83111,0.17211 -5.32881,0.18535 -1.49772,0.0132 -2.59018,-0.0442 -3.08061,-0.20653 -0.49041,-0.16234 -0.37314,-0.43059 0.37324,-0.8085 0.74637,-0.37792 2.10432,-0.86242 3.7508,-1.39726 1.6465,-0.53479 3.57415,-1.11859 5.40835,-1.68614 1.8342,-0.56753 3.56448,-1.11693 4.8557,-1.58981 1.29125,-0.47289 2.13396,-0.8676 2.36301,-1.15534 0.22907,-0.28774 -0.16039,-0.4677 -1.09897,-0.55194 -0.93865,-0.0842 -2.4248,-0.073 -4.18193,-0.0145 -1.75714,0.0584 -3.7776,0.16279 -5.68518,0.24746 -1.90761,0.0847 -3.69182,0.1478 -5.02327,0.13208 -1.33146,-0.0158 -2.20086,-0.11203 -2.27339,-0.34722 -0.0726,-0.23519 0.65714,-0.61019 1.85894,-1.06748 1.2018,-0.45731 2.87164,-0.9962 4.68281,-1.55968 1.81117,-0.56352 3.75453,-1.15007 5.45336,-1.69401 1.69883,-0.54394 3.14252,-1.0434 4.05106,-1.44959 0.90855,-0.40619 1.27398,-0.71769 1.02209,-0.92159 -0.25191,-0.20393 -1.12339,-0.29985 -2.45397,-0.31575 -1.33058,-0.0159 -3.1159,0.0474 -5.02326,0.13207 -1.90737,0.0846 -3.92755,0.18893 -5.68518,0.24747 -1.75765,0.0585 -3.24222,0.0695 -4.18193,-0.0145 -0.93973,-0.0841 -1.32686,-0.2644 -1.09899,-0.55193 0.22787,-0.28753 1.07264,-0.6826 2.36301,-1.15533 1.29037,-0.47275 3.0217,-1.02234 4.85571,-1.58983 1.83402,-0.56751 3.76129,-1.15124 5.40833,-1.68615 1.64706,-0.53492 3.00336,-1.01916 3.80567,-1.40681 0.80229,-0.38765 1.04307,-0.67747 0.67183,-0.86057 -0.37125,-0.18312 -1.35609,-0.25929 -2.77261,-0.26022 -1.41653,-9e-4 -3.25977,0.0726 -5.18623,0.1605 -1.92645,0.088 -3.92654,0.18876 -5.62899,0.23765 -1.70244,0.0489 -3.09676,0.0441 -3.92846,-0.0587 -0.83171,-0.10285 -1.09357,-0.30507 -0.68838,-0.62352 0.40519,-0.31844 1.46898,-0.75168 2.9201,-1.25243 1.45113,-0.50074 3.28373,-1.06802 5.14074,-1.63951 1.857,-0.5715 3.7284,-1.1455 5.25172,-1.65885 1.52332,-0.51333 2.68834,-0.96421 3.26836,-1.31314 0.58007,-0.34892 0.56863,-0.59477 -0.0369,-0.73704 -0.60547,-0.14228 -1.80521,-0.18101 -3.3767,-0.15492 -1.57149,0.0261 -3.50862,0.11592 -5.45044,0.20656 l -4.04114,-23.1849" />
  <path
     inkscape:connector-curvature="0"
     id="path5893"
     title="sin(-10*x)"
     style="color:#000000;isolation:auto;mix-blend-mode:normal;solid-color:#000000;fill:none;stroke:#555555;stroke-width:1.00000272;color-rendering:auto;image-rendering:auto;shape-rendering:auto;stroke-miterlimit:4;stroke-dasharray:none"
     d="m 121.5981,4.531 -5.7977,5.98503 c -1.64383,-1.07484 -3.28369,-2.14589 -4.65801,-2.95972 -1.37431,-0.81383 -2.47574,-1.36326 -3.14608,-1.4951 -0.67032,-0.13187 -0.90501,0.15827 -0.71106,0.86367 0.19402,0.70544 0.81671,1.82612 1.69879,3.19809 0.88207,1.37197 2.0189,2.99071 3.14481,4.59883 1.12589,1.60814 2.23338,3.19852 3.06388,4.52049 0.83051,1.32197 1.37666,2.36852 1.48755,2.9935 0.11095,0.62492 -0.21771,0.82409 -0.97025,0.61255 -0.75256,-0.21151 -1.9287,-0.83337 -3.35239,-1.69498 -1.42368,-0.86161 -3.09002,-1.9583 -4.73106,-3.03048 -1.64105,-1.07218 -3.24932,-2.11261 -4.56931,-2.87382 -1.32003,-0.7612 -2.34457,-1.2362 -2.9302,-1.28598 -0.5856,-0.0498 -0.72814,0.3296 -0.412,1.15332 0.31611,0.82372 1.07813,2.07936 2.0505,3.53882 0.97239,1.45944 2.14978,3.11744 3.259,4.70948 1.10923,1.59203 2.14272,3.11063 2.85609,4.31915 0.71339,1.20854 1.09974,2.1003 1.03869,2.55865 -0.061,0.45834 -0.57303,0.47988 -1.48542,0.11359 -0.91239,-0.36637 -2.22397,-1.11942 -3.73312,-2.06384 -1.50918,-0.94441 -3.21031,-2.07482 -4.82915,-3.12551 -1.61887,-1.05069 -3.14778,-2.01421 -4.34657,-2.65801 -1.1988,-0.64378 -2.06071,-0.96124 -2.34165,-0.71588 -0.28096,0.24535 0.023,1.05728 0.67119,2.20264 0.64814,1.14539 1.63755,2.62134 2.73002,4.19705 1.09245,1.57575 2.28128,3.24487 3.29181,4.74128 1.01054,1.49641 1.83506,2.81263 2.26941,3.75089 0.43436,0.93826 0.47276,1.49291 0.0611,1.61157 -0.41173,0.11868 -1.27516,-0.20024 -2.47332,-0.8434 -1.19818,-0.64314 -2.72788,-1.60749 -4.34655,-2.65801 -1.61869,-1.05054 -3.31963,-2.18074 -4.82914,-3.12553 -1.50954,-0.94477 -2.81997,-1.6967 -3.73314,-2.06382 -0.91322,-0.36709 -1.42351,-0.34393 -1.48542,0.11358 -0.0619,0.45749 0.32596,1.3507 1.0387,2.55863 0.71273,1.20794 1.74699,2.72729 2.85608,4.31917 1.1091,1.5919 2.28621,3.24964 3.259,4.70946 0.97278,1.45987 1.73358,2.71437 2.09049,3.57759 0.3569,0.86319 0.30439,1.32985 -0.19433,1.36423 -0.49873,0.0344 -1.44481,-0.3646 -2.70563,-1.06846 -1.26081,-0.70388 -2.83274,-1.70913 -4.46536,-2.77313 -1.63259,-1.06402 -3.31889,-2.18003 -4.7882,-3.0858 -1.46927,-0.9058 -2.71391,-1.59398 -3.54831,-1.88484 -0.83443,-0.29083 -1.25344,-0.17915 -1.18607,0.4036 0.0674,0.58274 0.61492,1.63065 1.44487,2.95209 0.82997,1.32145 1.93801,2.91237 3.06389,4.52048 1.12587,1.60812 2.26225,3.22639 3.14481,4.59886 0.88259,1.37244 1.50395,2.49181 1.69879,3.19805 0.19486,0.70626 -0.0416,0.99479 -0.71107,0.86368 C 84.66757,53.84168 83.56479,53.29094 82.19099,52.47762 80.8172,51.66429 79.17681,50.59276 77.533,49.51788 l -13.0698,13.4921" />
  <path
     inkscape:connector-curvature="0"
     id="path5895"
     title="sin(-10*x)"
     style="color:#000000;isolation:auto;mix-blend-mode:normal;solid-color:#000000;fill:none;stroke:#555555;stroke-width:1.00000272;color-rendering:auto;image-rendering:auto;shape-rendering:auto;stroke-miterlimit:4;stroke-dasharray:none"
     d="m 0.6876,85.895 7.82845,-2.85468 c 0.92044,1.71711 1.83898,3.42909 2.63086,4.79375 0.79187,1.36464 1.45361,2.37231 1.90972,2.81611 0.45609,0.44382 0.7044,0.31783 0.74828,-0.36887 0.0438,-0.68675 -0.1168,-1.93421 -0.40116,-3.52096 -0.28435,-1.58675 -0.6902,-3.50671 -1.09087,-5.41235 -0.40065,-1.90566 -0.7925,-3.78729 -1.05224,-5.30655 -0.25976,-1.51925 -0.38391,-2.66661 -0.3004,-3.24469 0.0834,-0.57805 0.37659,-0.58118 0.87189,-0.0298 0.49533,0.55136 1.19268,1.65681 2.00812,3.086 0.81543,1.42919 1.74659,3.17579 2.66571,4.88929 0.91911,1.71351 1.82258,3.38416 2.58853,4.67775 0.766,1.29361 1.39104,2.20075 1.80675,2.53376 0.4157,0.33299 0.62004,0.0865 0.60563,-0.76 -0.0144,-0.84647 -0.24149,-2.27616 -0.5689,-3.98103 -0.32744,-1.70487 -0.75265,-3.67786 -1.14533,-5.56175 -0.39269,-1.88388 -0.74927,-3.66865 -0.95315,-5.03469 -0.20389,-1.3661 -0.2518,-2.30443 -0.0863,-2.65756 0.16548,-0.35313 0.54607,-0.11642 1.11765,0.64396 0.57155,0.76047 1.33349,2.04305 2.18969,3.58405 0.85622,1.54098 1.80398,3.33312 2.7125,5.01759 0.90853,1.6845 1.77416,3.25131 2.48231,4.38637 0.70817,1.13506 1.25564,1.82947 1.52602,1.76395 0.27039,-0.0655 0.26177,-0.89606 0.089,-2.17685 -0.17276,-1.28079 -0.5083,-3.00793 -0.89303,-4.86982 -0.38468,-1.86191 -0.81534,-3.84989 -1.16096,-5.60467 -0.34563,-1.75479 -0.60251,-3.26626 -0.67331,-4.26738 -0.0708,-1.00112 0.0472,-1.4843 0.37997,-1.37876 0.33277,0.10553 0.88097,0.80193 1.58883,1.93615 0.70788,1.1342 1.57387,2.7021 2.4823,4.38635 0.90845,1.68427 1.85612,3.47613 2.71248,5.01761 0.85639,1.54148 1.61779,2.82256 2.18972,3.58403 0.57196,0.76148 0.95174,0.99597 1.11763,0.64397 0.16589,-0.35198 0.11726,-1.29228 -0.0863,-2.65753 -0.20357,-1.36526 -0.56051,-3.15103 -0.95313,-5.03472 -0.39264,-1.88371 -0.81772,-3.85633 -1.14533,-5.56173 -0.3276,-1.70542 -0.5541,-3.13355 -0.58797,-4.03335 -0.0339,-0.89979 0.12757,-1.26411 0.50181,-1.04476 0.37426,0.21935 0.96187,1.02385 1.69962,2.24003 0.73775,1.21619 1.62387,2.83931 2.53897,4.54178 0.91507,1.70247 1.85576,3.47517 2.69296,4.96401 0.83717,1.48884 1.5672,2.68385 2.10154,3.34232 0.53437,0.65847 0.87063,0.77349 0.97486,0.25239 0.10424,-0.52109 -0.0205,-1.67027 -0.28005,-3.18882 -0.2595,-1.51855 -0.65161,-3.40091 -1.05224,-5.30654 -0.40064,-1.90561 -0.80629,-3.82496 -1.09087,-5.41237 -0.28459,-1.5874 -0.44461,-2.83309 -0.40116,-3.52093 0.0434,-0.68786 0.29257,-0.81166 0.74829,-0.36887 0.45569,0.44271 1.11807,1.45214 1.90971,2.81611 0.79161,1.36396 1.71043,3.07661 2.63084,4.79375 l 17.6477,-6.43532" />
  <path
     inkscape:connector-curvature="0"
     id="path5899"
     style="color:#000000;isolation:auto;mix-blend-mode:normal;solid-color:#000000;fill:#ff0000;color-rendering:auto;image-rendering:auto;shape-rendering:auto"
     d="m 75.143,93.985 -3.25766,0.56781 -3.60546,-20.6853 -3.56407,0.62122 3.60546,20.6853 -3.25766,0.56782 6.3202,6.46814 z" />
  <path
     inkscape:connector-curvature="0"
     id="path5901"
     style="color:#000000;isolation:auto;mix-blend-mode:normal;solid-color:#000000;fill:#ff0000;color-rendering:auto;image-rendering:auto;shape-rendering:auto"
     d="m 109.5068,23.985 -2.37512,-2.30077 -33.4258,34.5058 -2.59852,-2.51718 33.4258,-34.5058 -2.37512,-2.30078 8.86301,-1.79693 z" />
  <path
     inkscape:connector-curvature="0"
     id="path5903"
     style="color:#000000;isolation:auto;mix-blend-mode:normal;solid-color:#000000;fill:#ff0000;color-rendering:auto;image-rendering:auto;shape-rendering:auto"
     d="m 24.6804,71.942 1.13285,3.10666 27.4343,-10.0041 1.23942,3.39888 -27.4343,10.0041 1.13287,3.10667 -8.75863,-2.25131 z" />
  <circle
     transform="rotate(-90)"
     cx="-63.009998"
     cy="64.463203"
     r="11.0229"
     style="color:#000000;isolation:auto;mix-blend-mode:normal;solid-color:#000000;fill:#cacaca;stroke:#555555;stroke-width:1.00000272;color-rendering:auto;image-rendering:auto;shape-rendering:auto;stroke-miterlimit:4;stroke-dasharray:none"
     id="circle5907" />
  <path
     style="stroke-width:1.33333004;stroke-linejoin:round;stroke-miterlimit:100000"
     d="m 21.20892,52.088 c 0,-0.36152 -0.0268,-0.37491 -0.4017,-0.37491 -0.85694,0.84355 -2.07542,0.85694 -2.6244,0.85694 v 0.48203 c 0.32136,0 1.20507,0 1.94152,-0.37491 v 6.82879 c 0,0.44187 0,0.61593 -1.33897,0.61593 h -0.50882 v 0.48203 c 0.24101,-0.0128 1.88795,-0.0536 2.38338,-0.0536 0.41508,0 2.1022,0.0402 2.39678,0.0536 v -0.48203 h -0.50882 c -1.33897,0 -1.33897,-0.17406 -1.33897,-0.61593 z"
     id="path5913"
     inkscape:connector-curvature="0" />
  <path
     style="stroke-width:1.33333004;stroke-linejoin:round;stroke-miterlimit:100000"
     d="m 87.5436,16.167 h -0.45524 c -0.0402,0.29458 -0.17407,1.08458 -0.34815,1.21848 -0.1071,0.0803 -1.13813,0.0803 -1.32558,0.0803 h -2.46371 c 1.40592,-1.24525 1.87456,-1.62018 2.67795,-2.24949 0.99085,-0.79 1.91473,-1.62016 1.91473,-2.89219 0,-1.62016 -1.41931,-2.61101 -3.1332,-2.61101 -1.66033,0 -2.78508,1.16491 -2.78508,2.39677 0,0.68288 0.57576,0.74982 0.70966,0.74982 0.32136,0 0.70966,-0.22761 0.70966,-0.70964 0,-0.24103 -0.0937,-0.70967 -0.79,-0.70967 0.41509,-0.95067 1.32559,-1.24525 1.95492,-1.24525 1.33897,0 2.03524,1.0444 2.03524,2.12898 0,1.16491 -0.83017,2.0888 -1.25864,2.57083 l -3.22694,3.18677 c -0.1339,0.12048 -0.1339,0.14736 -0.1339,0.52221 h 5.51659 z"
     id="path5917"
     inkscape:connector-curvature="0" />
  <path
     style="stroke-width:1.33333004;stroke-linejoin:round;stroke-miterlimit:100000"
     d="m 101.9972,91.132 c 1.0444,0 1.79424,0.72306 1.79424,2.15576 0,1.66034 -0.96406,2.15576 -1.74067,2.15576 -0.5356,0 -1.7139,-0.14736 -2.27627,-0.93729 0.62933,-0.0267 0.77661,-0.46864 0.77661,-0.74983 0,-0.42848 -0.32135,-0.73643 -0.73644,-0.73643 -0.37491,0 -0.74983,0.22762 -0.74983,0.77661 0,1.25864 1.39254,2.07541 3.0127,2.07541 1.86118,0 3.14661,-1.24525 3.14661,-2.58423 0,-1.0444 -0.85695,-2.08881 -2.32983,-2.39677 1.40592,-0.50881 1.91474,-1.51305 1.91474,-2.32982 0,-1.05779 -1.21846,-1.84779 -2.70474,-1.84779 -1.48627,0 -2.62439,0.72304 -2.62439,1.79422 0,0.45527 0.29457,0.70967 0.69627,0.70967 0.41508,0 0.68288,-0.30797 0.68288,-0.68288 0,-0.38831 -0.2678,-0.66949 -0.68288,-0.69628 0.46864,-0.58915 1.39254,-0.73643 1.88796,-0.73643 0.60253,0 1.4461,0.29458 1.4461,1.45949 0,0.56237 -0.18746,1.1783 -0.5356,1.59338 -0.44186,0.50881 -0.81677,0.5356 -1.48626,0.57576 -0.33475,0.0267 -0.36153,0.0267 -0.42848,0.0402 -0.0268,0 -0.1339,0.0267 -0.1339,0.17406 0,0.18746 0.12051,0.18746 0.34814,0.18746 z"
     id="path5921"
     inkscape:connector-curvature="0" />
  <use
     height="100%"
     width="100%"
     y="0"
     x="0"
     xlink:href="#symbol6047"
     id="use6054" />
  <use
     id="use6052"
     xlink:href="#symbol6047"
     x="0"
     y="0"
     width="100%"
     height="100%"
     transform="translate(-81.61841,-35)" />
  <use
     xlink:href="#symbol6047"
     id="use6050"
     transform="translate(-17.56001,-77)"
     x="0"
     y="0"
     width="100%"
     height="100%" />
</svg>
