<?xml version="1.0" encoding="UTF-8"?>
<svg width="136.336" height="118.946" version="1.1" viewBox="0 0 136.33643 118.94599" xmlns="http://www.w3.org/2000/svg"><g transform="translate(45.3111 -227.839)"><path d="m40.4206 324.258-56.9422-68.1953" fill="none" stroke="#000" stroke-width="1px"/><g><path d="m77.342 255.687-5.41512-2.40625 1.32899 2.0625h-118.067v0.71875h118.047l-1.30915 2.0625z" color="#000000" style="text-decoration-line:none;text-indent:0;text-transform:none"/><path d="m-16.8654 228.339 2.40625 6.13754-2.0625-1.50628v113.315h-0.71875v-113.292l-2.0625 1.48381z" color="#000000" style="text-decoration-line:none;text-indent:0;text-transform:none"/><circle transform="rotate(-8.81163)" cx="-9.72838" cy="326.623" r="6.49537" color="#000000" fill="#3338f6"/><path d="m84.5651 326.239 5.96024-12.9391-4.71684 1.91373v-25.7274h-2.59985v25.6988l-4.71684-1.88517z" color="#000000" fill="#f00" style="text-decoration-line:none;text-indent:0;text-transform:none"/></g><g stroke-width="1.5"><path d="m35.9191 337.958c0.036-0.108 0.486-1.008 1.152-1.584 0.468-0.432 1.08-0.72 1.782-0.72 0.72 0 0.972 0.54 0.972 1.26 0 0.108 0 0.468-0.216 1.314l-0.45 1.854c-0.144 0.54-0.486 1.872-0.522 2.07-0.072 0.27-0.18 0.738-0.18 0.81 0 0.252 0.198 0.45 0.468 0.45 0.54 0 0.63-0.414 0.792-1.062l1.08-4.302c0.036-0.144 0.972-2.394 2.952-2.394 0.72 0 0.972 0.54 0.972 1.26 0 1.008-0.702 2.97-1.098 4.05-0.162 0.432-0.252 0.666-0.252 0.99 0 0.81 0.558 1.458 1.422 1.458 1.674 0 2.304-2.646 2.304-2.754 0-0.09-0.072-0.162-0.18-0.162-0.162 0-0.18 0.054-0.27 0.36-0.414 1.44-1.08 2.196-1.8 2.196-0.18 0-0.468-0.018-0.468-0.594 0-0.468 0.216-1.044 0.288-1.242 0.324-0.864 1.134-2.988 1.134-4.032 0-1.08-0.63-1.89-1.998-1.89-1.206 0-2.178 0.684-2.898 1.746-0.054-0.972-0.648-1.746-1.998-1.746-1.602 0-2.448 1.134-2.772 1.584-0.054-1.026-0.792-1.584-1.584-1.584-0.522 0-0.936 0.252-1.278 0.936-0.324 0.648-0.576 1.746-0.576 1.818s0.072 0.162 0.198 0.162c0.144 0 0.162-0.018 0.27-0.432 0.27-1.062 0.612-2.124 1.332-2.124 0.414 0 0.558 0.288 0.558 0.828 0 0.396-0.18 1.098-0.306 1.656l-0.504 1.944c-0.072 0.342-0.27 1.152-0.36 1.476-0.126 0.468-0.324 1.314-0.324 1.404 0 0.252 0.198 0.45 0.468 0.45 0.216 0 0.468-0.108 0.612-0.378 0.036-0.09 0.198-0.72 0.288-1.08l0.396-1.62z"/><path d="m19.876 278.621c0.018-0.072 0.054-0.18 0.054-0.27 0-0.18-0.18-0.18-0.216-0.18-0.018 0-0.666 0.054-0.99 0.09-0.306 0.018-0.576 0.054-0.9 0.072-0.432 0.036-0.558 0.054-0.558 0.378 0 0.18 0.18 0.18 0.36 0.18 0.918 0 0.918 0.16201 0.918 0.342 0 0.072 0 0.108-0.09 0.432l-2.232 8.92801c-0.054 0.198-0.09 0.342-0.09 0.63 0 0.9 0.666 1.62 1.584 1.62 0.594 0 0.99-0.396 1.278-0.954 0.306-0.594 0.558-1.728 0.558-1.8 0-0.09-0.072-0.162-0.18-0.162-0.162 0-0.18 0.09-0.252 0.36-0.324 1.242-0.648 2.196-1.368 2.196-0.54 0-0.54-0.576-0.54-0.828 0-0.072 0-0.45 0.126-0.954z"/><path d="m89.2213 274.118c0.072-0.288 0.072-0.396 0.072-0.468 0-0.576-0.468-0.792-0.846-0.792-0.36 0-0.684 0.162-0.918 0.432-0.252-0.27-0.846-0.738-1.908-0.738-3.186 0-5.058 2.844-5.058 5.202 0 2.124 1.602 2.934 3.15 2.934 0.936 0 1.656-0.36 1.98-0.558-0.108 0.45-0.216 0.9-0.342 1.35-0.126 0.522-0.252 1.062-0.882 1.566-0.756 0.63-1.35 0.63-1.836 0.63-0.432 0-0.756 0-1.224-0.072 0.522-0.378 0.558-0.972 0.558-1.044 0-0.396-0.306-0.828-0.9-0.828s-1.278 0.504-1.278 1.332c0 1.188 1.584 1.26 2.862 1.26 1.62 0 4.104-0.378 4.644-2.538zm-3.15 4.536c-0.072 0.252-0.072 0.324-0.288 0.522-0.954 0.864-1.8 0.864-1.962 0.864-0.702 0-1.224-0.396-1.224-1.35 0-0.864 0.594-3.024 0.864-3.69 0.63-1.548 1.656-1.8 2.196-1.8 1.116 0 1.512 0.882 1.512 1.008 0 0.036 0 0.072-0.054 0.27z" fill="#f00"/></g><path d="m-23.1496 267.556c0-3.06-2.124-4.644-5.238-4.644-5.562 0-8.478 4.77-8.478 8.37 0 3.15 2.25 4.59 5.256 4.59 5.526 0 8.46-4.608 8.46-8.316zm-8.28 7.56c-0.594 0-1.422-0.126-2.106-0.828-0.792-0.792-0.792-1.998-0.792-2.412 0-1.134 0.54-4.5 2.016-6.354 1.206-1.476 2.7-1.89 3.744-1.89 1.494 0 2.97 0.81 2.97 3.096 0 1.17-0.648 4.32-1.818 6.012-1.35 1.98-2.988 2.376-4.014 2.376z" stroke-width="1.5"/><path d="m57.301 307.182c-0.648 0.18-0.972 0.792-0.972 1.242 0 0.396 0.306 0.828 0.9 0.828 0.63 0 1.296-0.522 1.296-1.404 0-0.954-0.954-1.584-2.052-1.584-1.026 0-1.692 0.774-1.926 1.098-0.45-0.756-1.458-1.098-2.484-1.098-2.268 0-3.492 2.214-3.492 2.808 0 0.252 0.27 0.252 0.432 0.252 0.216 0 0.342 0 0.414-0.234 0.522-1.638 1.818-2.178 2.556-2.178 0.684 0 1.008 0.324 1.008 0.9 0 0.342-0.252 1.332-0.414 1.98l-0.612 2.466c-0.27 1.098-0.918 1.638-1.53 1.638-0.09 0-0.504 0-0.864-0.27 0.648-0.18 0.972-0.792 0.972-1.242 0-0.396-0.306-0.828-0.9-0.828-0.63 0-1.296 0.522-1.296 1.404 0 0.954 0.954 1.584 2.052 1.584 1.026 0 1.692-0.774 1.926-1.098 0.45 0.756 1.458 1.098 2.484 1.098 2.268 0 3.492-2.214 3.492-2.808 0-0.252-0.27-0.252-0.432-0.252-0.216 0-0.342 0-0.414 0.234-0.522 1.638-1.818 2.178-2.556 2.178-0.684 0-1.008-0.324-1.008-0.9 0-0.378 0.234-1.332 0.396-1.998 0.126-0.468 0.54-2.16 0.63-2.448 0.27-1.08 0.9-1.638 1.53-1.638 0.09 0 0.504 0 0.864 0.27z" stroke-width="1.5"/></g></svg>
