<?xml version="1.0" encoding="UTF-8"?>
<svg width="203.113" height="124.699" version="1.1" viewBox="0 0 203.11266 124.69894" xmlns="http://www.w3.org/2000/svg">
 <defs>
  <marker id="Arrow1Mstart" overflow="visible" orient="auto">
   <path transform="matrix(.4 0 0 .4 4 0)" d="m0 0 5-5-17.5 5 17.5 5z" fill-rule="evenodd" stroke="#000" stroke-width="1pt"/>
  </marker>
 </defs>
 <path d="m157.8 61.5547 1.20399 43.7753" fill="none" stroke="#000" stroke-dasharray="4, 4" stroke-linejoin="round" stroke-width="2"/>
 <g transform="translate(-.000372723 -.000345046)" fill="#f00">
  <path d="m22.5586 111.443v-0.83938h5.42364v-5.2041h-4.9071v-0.82001h10.8537v0.82001h-4.89419v5.2041h5.4882v0.83938h-5.4882v4.20977h-1.05244v-4.20977zm9.16207-1.44631-0.878113-0.28409q0.794176-1.41402 1.49796-3.42206l1.05244 0.30992q-0.955593 2.23403-1.67229 3.39623zm-6.41151-0.0387q-0.723151-1.94347-1.37528-3.29292l0.974963-0.34866q0.529451 1.05244 1.38819 3.30583z" color="#000000" style="text-decoration-line:none;text-indent:0;text-transform:none"/>
  <path d="m36.1823 107.55-0.548821-0.64567q1.54961-1.09119 2.73765-2.93135l0.955593 0.35512q-0.626301 0.92331-1.53024 1.84662-0.897482 0.92331-1.61418 1.37528zm4.61655-2.21465v-0.82h6.63104v0.82zm-3.19607 10.3243v-5.32033q-0.865199 1.00079-1.65937 1.64646l-0.626301-0.5811q1.02016-0.8652 2.01449-2.19529 1.00079-1.33008 1.52378-2.40189l0.968507 0.27118q-0.581104 1.12347-1.56898 2.44064h0.368032v6.14033zm6.8764-0.18079h-2.00804l-0.109764-0.94268h1.60772q0.535907 0 0.535907-0.44551v-5.04269h-4.39702v-0.80709h7.87719v0.80709h-2.4019v5.47529q0 0.4326-0.335749 0.69087-0.329292 0.26472-0.768348 0.26472z" color="#000000" style="text-decoration-line:none;text-indent:0;text-transform:none"/>
  <path d="m56.9341 107.769q-0.484253-0.4778-0.832916-0.78126l-0.794175-0.69087q-0.845829 0.56819-1.47213 0.82l-0.426143-0.58756q0.916853-0.46488 1.93701-1.27843 1.02662-0.81354 1.49796-1.46567l0.94268 0.21953q-0.232442 0.40031-0.47134 0.65858h3.37686l0.251812 0.23244q-0.619844 1.64001-2.43418 2.87969-1.81434 1.23969-4.72631 1.82725l-0.271182-0.71669q1.89827-0.33575 3.42206-1.11701zm-0.987877-1.9241q0.684411 0.51654 1.71748 1.50441 1.343-0.85874 1.96284-1.94347h-3.11859q-0.219528 0.18725-0.561734 0.43906zm-6.81829 7.21214-0.632758-0.44551q0.581104-0.68441 1.32363-2.00158 0.742522-1.31717 1.09118-2.34379h-1.91764v-0.79417h1.98867v-2.12426q-0.826459 0.13559-1.82725 0.25827l-0.174331-0.73606q2.9378-0.30993 4.4293-0.90394l0.413229 0.72315q-0.690868 0.25181-1.85953 0.48425v2.29859h1.41402v0.79417h-1.41402v0.64568q0.4326 0.49071 1.54961 1.38819l-0.484253 0.75543q-0.368032-0.32929-1.06536-1.02661v5.65608h-0.98142v-5.4301q-1.12992 2.1178-1.85308 2.80221zm8.07089 0.42615q-0.464883-0.49717-0.96205-0.90394l-1.12992-0.9556q-0.839372 0.56174-1.48504 0.83938l-0.406773-0.63922q1.00725-0.52945 2.04032-1.34945 1.03953-0.82 1.57544-1.54961l0.94268 0.25827q-0.167874 0.28409-0.516537 0.6715h3.86111l0.271182 0.24535q-0.322835 0.95559-1.26552 2.13072-0.94268 1.17512-2.75056 2.09843-1.80142 0.92331-3.71261 1.27197l-0.297009-0.71024q2.23402-0.45843 3.83529-1.40756zm-1.40756-2.34379q1.4463 1.11701 2.18237 1.82079 1.4463-1.08472 2.11134-2.35024h-3.63513q-0.361576 0.30347-0.658584 0.52945z" color="#000000" style="text-decoration-line:none;text-indent:0;text-transform:none"/>
  <path d="m70.7967 115.453-0.103307-0.87811h1.02016q0.497167 0 0.729608-0.22598 0.232442-0.22599 0.355119-1.16867 0.129135-0.94913 0.129135-3.1315l-0.01291-2.53749h-1.36237q-0.0452 2.75056-0.800632 4.82962-0.748978 2.0726-2.11134 3.28646l-0.632758-0.52299q1.08473-0.97496 1.80788-2.93135 0.723152-1.96284 0.742522-4.66174h-1.22678v-0.78126h1.22678v-2.78284h0.994333v2.78284h2.37607v3.55765q-0.02583 1.4915-0.122678 2.62788-0.09039 1.13638-0.219528 1.57543-0.07102 0.23245-0.219528 0.41969-0.142048 0.18724-0.355119 0.31638-0.213072 0.13559-0.464883 0.18724-0.167875 0.0323-1.74977 0.0387zm-8.43892 0.0129-0.193702-0.80709q0.826459-0.0517 3.03465-0.29055v-1.11056h-2.77638v-0.74252h2.77638v-0.97496h-2.42772v-3.95151h2.42772v-0.85874h-2.7893v-0.72961h2.7893v-0.8652q-1.37528 0.10976-2.23402 0.10976h-0.109765l-0.109764-0.70378q3.14442-0.0775 5.26222-0.52299l0.335749 0.72961q-0.716695 0.1485-2.16945 0.29701v0.95559h2.68599v0.72961h-2.68599v0.85874h2.45355v3.95151h-2.45355v0.97496h2.62788v0.74252h-2.62788v1.00079q1.69166-0.18724 2.19528-0.27118v0.72315q-1.03953 0.29701-6.0112 0.75544zm5.37844-7.18632h-1.58835v0.9685h1.58835zm-2.5052 0h-1.58189v0.9685h1.58189zm2.5052 1.60772h-1.58835v0.96851h1.58835zm-2.5052 0h-1.58189v0.96851h1.58189z" color="#000000" style="text-decoration-line:none;text-indent:0;text-transform:none"/>
  <path d="m123.474 18.388h-9.25247v0.70378h-0.95559v-10.9635h11.1959v10.9118h-0.98788zm-9.25247-0.78127h9.25247v-8.69718h-9.25247zm1.9693-1.88535v-4.9523h5.17828v4.9523zm4.18395-4.19687h-3.19607v3.39623h3.19607z" color="#000000" style="text-decoration-line:none;text-indent:0;text-transform:none"/>
  <path d="m126.005 17.019v-0.74252h2.47938v-1.11701h-2.13072v-4.76505h2.15654v-1.09118h-2.42772v-0.74253h2.42772v-1.11701h0.95559v1.11701h2.35024v0.74253h-2.35024v1.09118h2.1178v4.76505h-2.14363v1.11701h2.35024v0.74252h-2.35024v2.21466h-0.95559v-2.21466zm1.23969-4.64237h1.29134v-1.31717h-1.29134zm2.15654 0h1.26552v-1.31717h-1.26552zm1.26552 0.66504h-1.26552v1.42693h1.26552zm-2.13072 0h-1.29134v1.42693h1.29134zm4.00962-4.10001v-0.79418h5.28805v0.79418zm-0.79418 10.0983-0.20661-0.82q0.32929-0.0194 0.79418-0.0646 0.80063-1.95639 1.69811-5.43655h-1.85953v-0.80064h5.9208v0.80064h-3.00237q-0.85229 3.1315-1.7756 5.33324 1.93701-0.22599 3.38977-0.48426-0.55528-1.36236-1.06536-2.5052l0.89102-0.28409q0.53591 1.07181 1.71103 4.08709l-0.92977 0.27119q-0.12267-0.34221-0.30992-0.82646-1.45922 0.27763-5.25576 0.7296z" color="#000000" style="text-decoration-line:none;text-indent:0;text-transform:none"/>
 </g>
 <g transform="translate(-.000372723 -.000345046)" fill="none" stroke="#000" stroke-linejoin="round" stroke-width=".25">
  <path d="m157.804 61.733-2.17804-1.06057"/>
  <path d="m146.655 59.983 1.72275 0.0135"/>
  <path d="m149.937 59.036-0.57145 0.11608-2.71077 0.83074-4.43212 1.4545-0.31908 0.10489-3.34426 1.47733-0.1656 0.10676"/>
  <path d="m157.804 61.733-1.56367-1.35426"/>
  <path d="m157.804 61.733-0.76691-1.72954"/>
  <path d="m157.804 61.733 0.29669-1.52116"/>
  <path d="m157.804 61.733 0.9703-1.158"/>
  <path d="m157.804 61.733 1.4256-0.91232"/>
  <path d="m202.489 101.808-0.4385-4.64132-0.27523-2.91178-0.99922-3.82924-1.44985-4.43107-0.8672-2.65026-2.39963-3.99752-1.49323-2.48896-2.11833-2.92064-3.2477-3.34673-1.74701-1.8004-2.81806-2.21158-3.9591-2.46658-1.61965-1.00882-2.94308-1.49318-3.57798-1.21255-4.47643-1.21114-2.84139-0.62236-1.18908-0.14731"/>
  <path d="m157.804 61.733 1.77826-0.71373"/>
  <path d="m157.804 61.733 2.04743-0.52632"/>
  <path d="m170.539 60.027-2.47939-0.84146-2.3931 0.20558"/>
  <path d="m170.539 60.027 4.48716 1.27361 1.08786 0.30862"/>
  <path d="m157.804 61.733 2.3012-0.3501"/>
  <path d="m172.561 61.06-2.0227-1.03213-3.92505 0.0131"/>
  <path d="m172.561 61.06 4.44984 1.39995 0.74872 0.23542"/>
  <path d="m157.804 61.733 2.56383-0.16736"/>
  <path d="m174.048 62.248-1.4867-1.18877-4.65464-0.31094-0.28829-0.0191"/>
  <path d="m174.048 62.248 2.53584 0.90906"/>
  <path d="m181.248 64.829-2.1911-1.72628-1.10885-0.3487"/>
  <path d="m181.248 64.829 3.93158 2.50947 2.27413 1.45123 1.761 2.44746"/>
  <path d="m189.215 71.237 3.21598 3.37704 2.13606 2.24327 0.77624 3.11225"/>
  <path d="m157.804 61.733 2.86098 0.0396"/>
  <path d="m174.933 63.551-0.8854-1.30252-4.62384-0.61816-0.66942-0.0895"/>
  <path d="m174.933 63.551 0.31628 0.13146"/>
  <path d="m182.588 66.732-1.33976-1.9025-2.91742-1.04565"/>
  <path d="m182.588 66.732 3.85694 2.62228 2.77001 1.88338 0.60364 2.59851"/>
  <path d="m157.804 61.733 3.23231 0.29789"/>
  <path d="m183.005 68.742-0.41704-2.01065-3.76364-1.56405"/>
  <path d="m183.005 68.742 3.73565 2.79244 3.0779 2.30108"/>
  <path d="m189.201 76.49 0.6167-2.65445 3.12082 3.46468 2.40382 2.66937"/>
  <path d="m194.694 83.161 0.64842-3.19149 2.35064 4.02689 1.67983 2.87775"/>
  <path d="m199.373 86.874-0.91385-3.53041"/>
  <path d="m198.716 90.503 0.65682-3.62878 1.44332 4.43294 0.9591 2.94722-0.5374 3.23158-0.11848 0.71047"/>
  <path d="m189.201 76.49 2.96408 3.59987 2.52884 3.07122"/>
  <path d="m192.59 86.306 2.10434-3.14487 2.24008 4.0889 1.78199 3.25303"/>
  <path d="m196.445 94.089 0.84761-1.33794 1.42419-2.24747 1.39014 4.45019 0.51174 1.6377 0.50148 1.60554"/>
  <path d="m198.758 102.097 2.36137-3.90009 0.4315 4.64179 0.28596 3.07727"/>
  <path d="m115.231 105.502 1.39294 4.06186 2.93515 3.62364 0.19639 0.24242 3.77297 2.74116 1.03607 0.75289 4.22873 1.96822 2.10807 0.98132 4.47364 1.32117 3.14694 0.92957 4.60145 0.76594 3.97449 0.66151 4.65743 0.26619 4.47737 0.2564 4.66023-0.20838 4.59679-0.20512 4.61452-0.68576 4.31922-0.64147 4.50956-1.1925 3.67967-0.97339 4.3197-1.76031 2.76022-1.1249 3.98568-2.42229 1.69569-1.03073 3.39418-3.19802 0.68994-0.65033 2.35484-4.02409 0.0243-0.0415 0.65215-4.10801"/>
  <path d="m157.804 61.733 3.75338 0.65965"/>
  <path d="m182.458 70.787 0.54672-2.04468-3.58637-1.75006"/>
  <path d="m182.458 70.787 3.56118 3.01155 3.18239 2.69174-1.85336 2.60643"/>
  <path d="m187.348 79.097 2.74202 3.77143 2.49992 3.4381"/>
  <path d="m189.061 89.272 1.25812-1.05731 2.27087-1.90809 2.06935 4.17794 0.0849 0.17156 1.70036 3.43297"/>
  <path d="m192.585 97.478 3.50427-3.07728 0.35547-0.31188 1.29404 4.4791 1.01975 3.52901"/>
  <path d="m194.714 105.788 3.44409-3.14395 0.59991-0.54776 0.41237 4.64365 0.28736 3.24091"/>
  <path d="m157.804 61.733 4.5007 1.22606 0.11055 0.0303"/>
  <path d="m189.061 89.272 1.83983 4.28376 1.68403 3.92247"/>
  <path d="m187.243 100.515 4.05473-2.30481 1.28704-0.73191 1.15736 4.51639 0.97217 3.79427"/>
  <path d="m189.095 109.1 4.01787-2.36775 1.60193-0.94402 0.38112 4.64645 0.27849 3.39475"/>
  <path d="m157.804 61.733 4.33976 1.70996 1.91307 0.75335"/>
  <path d="m184.293 81.546 3.05551-2.44933-3.32188-3.27307-2.99952-2.95607"/>
  <path d="m184.293 81.546 2.44907 3.96769 1.00809 1.63304 1.3113 2.12487-4.09298 2.23628-0.75898 0.41491"/>
  <path d="m163.77 65.094 2.52465 2.10995"/>
  <path d="m180.13 83.729 2.5433-1.33375"/>
  <path d="m180.13 83.729 0.57471 1.15427 2.07775 4.17374 1.42699 2.86564"/>
  <path d="m178.208 94.133 4.37707-1.61206 1.62385-0.59811 1.55248 4.39611 1.48157 4.19565"/>
  <path d="m180.608 103.05 4.35701-1.66474 2.27787-0.87083 0.98243 4.55741 0.86907 4.0283"/>
  <path d="m182.096 111.868 4.33788-1.71556 2.6604-1.05217 0.3396 4.64971 0.25844 3.53274"/>
  <path d="m157.804 61.733 4.06313 2.28989 1.90234 1.07176"/>
  <path d="m178.208 94.133 1.21147 4.50194 1.18862 4.41522"/>
  <path d="m172.95 104.953 4.52729-1.12491 3.13108-0.77806 0.77577 4.59704 0.71233 4.22083"/>
  <path d="m174.006 113.946 4.51795-1.16033 3.57285-0.91745 0.28969 4.65251 0.22671 3.64742"/>
  <path d="m157.804 61.733 3.57611 2.9929 0.9801 0.82048"/>
  <path d="m162.361 65.546 1.40926-0.45173 0.85788-0.40232"/>
  <path d="m160.77 65.882 1.59027-0.33565 2.02503 2.40924"/>
  <path d="m171.173 77.691 3.5873-1.2256"/>
  <path d="m171.173 77.691 2.04696 4.18913 0.80096 1.63956 0.98942 2.02417"/>
  <path d="m175.01 85.544 3.42264-1.21347 1.69709-0.60138-2.58202-3.88284-1.80159-2.70946"/>
  <path d="m169.14 86.903 4.54455-1.05218 1.32529-0.30675 1.62665 4.36954 1.57161 4.21943-4.53615 1.08807-2.3707 0.56875"/>
  <path d="m163.74 71.613 1.72834 4.32991 1.10838 2.77612"/>
  <path d="m166.577 78.719 4.59586-1.02793-2.49665-3.93785-1.02815-1.62186"/>
  <path d="m161.605 79.35 4.62758-0.58692 0.3438-0.0438 1.26885 4.05114 1.29451 4.13272"/>
  <path d="m162.772 87.737 4.62571-0.60604 1.74187-0.22796 1.10185 4.52991 1.0594 4.35695"/>
  <path d="m163.791 96.807 4.62244-0.62608 2.88804-0.39113 0.82569 4.58818 0.82288 4.57513"/>
  <path d="m164.608 106.121 4.61965-0.6466 3.72258-0.52119 0.54346 4.63013 0.51221 4.36255"/>
  <path d="m165.182 115.22 4.61732-0.66664 4.20587-0.60744 0.23185 4.65578 0.18612 3.73226"/>
  <path d="m157.804 61.733 2.71124 3.79334 0.2547 0.35569"/>
  <path d="m159.061 66.087 1.70921-0.20559 1.50443 2.90386"/>
  <path d="m164.608 106.121 0.29389 4.65297 0.28082 4.446"/>
  <path d="m156.042 115.619 4.6607-0.20372 4.48016-0.1958 0.16981 4.65904 0.13761 3.78215"/>
  <path d="m157.804 61.733 1.25673 4.35462"/>
  <path d="m157.302 66.154 1.75914-0.0671 0.98616 4.55648 0.30042 1.38736"/>
  <path d="m160.348 72.031 3.39231-0.41816"/>
  <path d="m156.851 72.166 3.49681-0.1352 0.7893 4.59424 0.46835 2.72438"/>
  <path d="m156.473 79.553 4.66163-0.18414 0.47022-0.0186 0.43804 3.14814 0.64282 4.61708 0.0863 0.62189"/>
  <path d="m156.191 88.004 4.66117-0.18881 1.92007-0.0778 0.52013 4.63294 0.49822 4.43713"/>
  <path d="m156.02 97.13 0.0588-2e-3 4.6607-0.19394 3.05131-0.1268 0.40724 4.64412 0.40958 4.66977-4.6607 0.19906-3.97776 0.16969"/>
  <path d="m156.473 79.553-0.1031 3.09639-0.1558 4.65904-0.0233 0.69555"/>
  <path d="m149.695 87.689 4.6593 0.22517 1.83703 0.089-0.0872 4.6609-0.0835 4.43388-4.7e-4 0.0317"/>
  <path d="m148.35 96.742 4.6593 0.23542 3.01026 0.15245-0.0252 4.66183-6e-3 1.11791-0.0196 3.57983"/>
  <path d="m147.444 106.039 4.65837 0.24614 3.86626 0.20466 0.0369 4.66137 0.0354 4.46837"/>
  <path d="m147.022 115.122 4.65743 0.2564 4.36215 0.24055 0.10543 4.6609 0.0858 3.79427"/>
  <path d="m157.804 61.733-0.50241 4.42175"/>
  <path d="m155.564 66.079 1.73814 0.075-0.34893 4.64879-0.10216 1.36312"/>
  <path d="m153.397 72.013 3.45436 0.15338-0.23791 4.65577-0.13948 2.73044-4.65977-0.21538-0.40724-0.0191"/>
  <path d="m147.022 115.122 0.042 4.66137 0.0341 3.76816"/>
  <path d="m157.804 61.733-2.13652 4.14437-0.10403 0.20233"/>
  <path d="m153.916 65.866 1.64764 0.21305-1.59959 4.37933-0.56772 1.55425"/>
  <path d="m150.13 71.578 3.26636 0.43541-1.22547 4.49774-0.76457 2.80736"/>
  <path d="m146.625 78.658 4.62104 0.63774 0.16001 0.0219-0.77531 3.7924-0.93624 4.57886"/>
  <path d="m143.576 86.812 4.61778 0.66244 1.50117 0.21538-0.28549 1.92068-0.45623 3.07355-0.11896 0.80137-0.48375 3.25722"/>
  <path d="m141.138 95.665 4.61358 0.68902 2.59835 0.38833-0.23838 2.44793-0.45203 4.63993-0.21551 2.20878"/>
  <path d="m139.436 104.795 4.60938 0.71559 3.39838 0.52819-0.21692 4.65671-0.20572 4.42688-4.60565-0.74217-3.863-0.62235"/>
  <path d="m146.625 78.658-1.63318 4.36674-0.35033 0.93703-1.06593 2.84932"/>
  <path d="m138.104 85.415 0.0355 9e-3 4.51982 1.15287 0.91619 0.23403-0.49355 1.79247-1.2376 4.49448-0.70627 2.56634"/>
  <path d="m134.707 93.958 4.50862 1.19669 1.9224 0.51047-0.0672 0.36083-0.85461 4.58305-0.77997 4.18633"/>
  <path d="m132.311 102.828 4.49649 1.24098 2.62914 0.72585-0.45716 4.63899-0.42637 4.32386"/>
  <path d="m131.026 111.604 4.48436 1.2834 3.04198 0.87037-0.0173 4.66183-0.014 3.70477"/>
  <path d="m157.804 61.733-3.19498 3.39661-0.69321 0.73704"/>
  <path d="m152.425 65.524 1.4909 0.34218-2.57642 3.88657-1.20961 1.82465"/>
  <path d="m147.511 70.958 2.61887 0.62003-2.06841 4.1784-1.43632 2.90246-4.29077-1.05311"/>
  <path d="m131.026 111.604-0.0709 4.66137-0.0546 3.60826"/>
  <path d="m157.804 61.733-3.81215 2.68708-1.56694 1.10439"/>
  <path d="m151.15 65.067 1.27538 0.45732-2.66132 2.72158"/>
  <path d="m142.334 77.605-2.22049 4.09962-2.00964 3.71036"/>
  <path d="m133.509 83.572 4.32902 1.737 0.2659 0.10629-9e-3 0.0242-0.88726 2.23022-1.72276 4.33225-0.77763 1.95564"/>
  <path d="m129.331 91.709 2.81013 1.17525 2.56616 1.07316-0.72119 2.66936-1.21567 4.50054-0.4595 1.70064"/>
  <path d="m126.373 100.245 4.27678 1.86101 1.6607 0.72258-0.67501 4.61242-0.60924 4.16349-4.25205-1.91835-2.0087-0.90626"/>
  <path d="m133.509 83.572-1.6663 3.24464-0.46322 0.90206-0.91059 1.7743-1.13824 2.21623"/>
  <path d="m125.217 89.034 1.46618 0.95382 2.6478 1.72161-1.52635 4.40544-1.43119 4.12992"/>
  <path d="m121.852 97.178 3.85974 2.61809 0.66148 0.44893-0.863 4.58119-0.74452 3.9537"/>
  <path d="m120.012 105.432 3.81309 2.68522 0.94044 0.66198-0.11522 4.66044-0.0863 3.48426"/>
  <path d="m157.804 61.733-4.17041 2.08943-2.48406 1.24472"/>
  <path d="m150.139 64.513 1.01088 0.55383-3.153 2.38359"/>
  <path d="m138.711 76.21 3.62323 1.39575 2.7285-3.78121 1.83984-2.55003"/>
  <path d="m138.711 76.21-2.69071 3.80825-2.51111 3.55419-2.63613-1.63911"/>
  <path d="m157.804 61.733-4.385 1.59062-3.28035 1.1897"/>
  <path d="m149.854 64.261 0.28456 0.25221-2.22003 1.29459"/>
  <path d="m129.968 81.37 0.56305 0.35011"/>
  <path d="m129.968 81.37-2.457 3.96303-2.29466 3.70056"/>
  <path d="m122.5 86.059 2.7173 2.97518-1.02021 2.46891-1.78059 4.30894-0.56399 1.36592"/>
  <path d="m118.891 93.777 0.98663 1.13329 1.97418 2.26752-1.01462 4.55042-0.82522 3.70429"/>
  <path d="m116.915 101.726 2.9902 3.57796 0.10729 0.12866-0.14974 4.65904-0.10729 3.33881"/>
  <path d="m130.827 80.381-0.85834 0.98924-2.3665-2.45725"/>
  <path d="m127.602 78.913-2.70984 3.79473-2.39263 3.35093"/>
  <path d="m121.241 82.917 1.25859 3.14208-1.97465 4.22362-1.63365 3.49452"/>
  <path d="m117.553 90.195 1.33836 3.58169-0.74358 2.99057-1.12517 4.52431-0.10776 0.43402"/>
  <path d="m115.533 97.83 0.74778 2.10901 0.63396 1.78689-0.17307 4.65857-0.11802 3.17984"/>
  <path d="m157.804 61.733-4.51795 1.16173-2.26761 0.58273"/>
  <path d="m133.038 70.662 0.32281 0.68062"/>
  <path d="m133.038 70.662-3.53599 3.03998-3.03172 2.60643"/>
  <path d="m126.471 76.308 1.13124 2.60504 3.33167-3.26329 1.45918-1.42932"/>
  <path d="m126.579 73.663-0.10776 2.64512-2.89364 3.65675-2.33618 2.95187"/>
  <path d="m121.436 79.739-0.19546 3.17751-2.10713 4.15883-1.58093 3.1197"/>
  <path d="m117.822 86.584-0.26916 3.61153-1.19235 4.50706-0.82756 3.12763"/>
  <path d="m136.093 64.608-0.19173 0.12307-3.82288 2.6717-1.78712 1.24891-2.40989 2.42788-3.06577 3.51316-1.79365 2.05541-2.17944 4.12153-1.2222 2.31134-1.79785 3.50243-1.21334 4.50147-0.76084 2.82275-0.31488 3.922-0.18333 4.65811-0.11896 3.01434"/>
  <path d="m157.804 61.733-4.60005 0.7762-0.91992 0.15523"/>
  <path d="m121.436 79.739-2.17711 4.12293-1.43726 2.72158"/>
  <path d="m157.804 61.733-4.69242 0.41584"/>
  <path d="m133.066 68.622-0.0271 2.03956 0.689-0.39999"/>
  <path d="m133.066 68.622-3.68294 2.86144-2.80407 2.17941"/>
  <path d="m134.04 66.621-3.77763 2.7351-2.38096 1.72394-1.30244 2.58313-3.01212 3.55931-2.12999 2.51692 1.58513-3.09079"/>
  <path d="m141.275 63.481-1.0664 0.46292"/>
  <path d="m134.04 66.621-0.97403 2.00132 1.61312-0.8037"/>
  <path d="m157.804 61.733-4.09204 0.0415"/>
  <path d="m157.804 61.733-3.60316-0.26293"/>
  <path d="m142.527 62.185-1.25252 1.29599"/>
  <path d="m142.527 62.185-3.35826 1.29039"/>
  <path d="m136.065 64.668-0.16374 0.0629-1.86129 1.88945 1.43679-0.62376"/>
  <path d="m145.597 61.759-3.0695 0.42609 1.81838-1.17945"/>
  <path d="m144.346 61.005-4.40553 1.53375-1.38081 0.48063"/>
  <path d="m155.087 60.93 2.7173 0.8023-3.1642-0.53658"/>
  <path d="m146.655 59.983-2.30912 1.02234 2.69958-0.18834"/>
  <path d="m138.605 76.147 0.10589 0.0629 0.31955-0.33472"/>
  <path d="m140.915 64.262 0.36013-0.78086 2.79521-0.57854"/>
  <path d="m142.143 64.428-0.52993 0.14778"/>
  <path d="m149.691 59.188-0.32515-0.0354"/>
  <path d="m162.696 69.599 1.04354 2.01392 2.08661-0.4522"/>
  <path d="m164.558 58.697 0.66009-0.13333"/>
  <path d="m170.059 62.563 4.5716 0.92678 0.30275 0.0611 0.042 0.23915"/>
  <path d="m171.633 63.935 1.74141 0.4853"/>
  <path d="m180.192 69.47 2.26621 1.31697-1.46665 1.93559"/>
  <path d="m182.268 79.139 2.0241 2.4069-1.52775 0.80091"/>
  <path d="m42.8557 27.628 1.74388 0.51488 1.85686 0.54856"/>
  <path d="m43.7233 27.36-0.867581 0.26803"/>
  <path d="m39.5146 27.602 2.90452 0.0229 0.43655 3e-3 -0.733392 0.32815"/>
  <path d="m43.7233 27.36-2.52084-0.27588"/>
  <path d="m44.5505 26.532-1.47259 0.17133-1.87545 0.381-1.68782 0.51749-2.75959 0.90604-0.198669 0.0653-2.08225 0.92026-1.65529 1.06605-2.38026 1.66426-1.11272 0.77797-1.50048 1.51239-1.90885 2.18843-1.11679 1.28036-0.301199 0.56946-1.35699 2.56769-0.459786 0.87003-0.361032 0.70363-0.758371 1.47812-0.755467 2.80407-0.473727 1.75835-0.196056 2.44311-0.114147 2.90164-0.07407 1.8777 0.535013 2.85402 0.329373 1.75719 0.849283 2.50845"/>
  <path d="m72.0403 64.15 1.01571-2.72072 0.21871-0.58573 0.40431-2.56043 0.373231-2.87986 0.226553-1.74819-0.273025-2.89119-0.171367-1.81382-0.622149-2.38531-0.867581-2.65278-0.575096-1.75835-0.57161-0.9525-0.311074-0.51894-0.896626-1.49467-0.644514-1.07447-1.31894-1.81933-2.02213-2.08476-1.08774-1.12151-1.75462-1.37764-2.46507-1.53649-1.00845-0.62842-1.83246-0.93014-2.22777-0.75532-2.78718-0.75445-1.76915-0.38768-1.93064-0.23929-0.8731-0.0357"/>
  <path d="m48.8341 27.17-0.549245-0.0685"/>
  <path d="m48.8341 27.17 2.23823-0.45244"/>
  <path d="m49.7458 27.371-0.91173-0.20124-0.53908 0.34499"/>
  <path d="m49.7458 27.371 2.89378-0.24858 0.201864-0.0174 1.54375 0.52417"/>
  <path d="m50.5364 27.642-0.790611-0.27123-1.44035 0.57818"/>
  <path d="m50.5364 27.642 2.90452-0.01 0.94426-3e-3"/>
  <path d="m55.6446 28.272-1.2594-0.64293 2.79386 0.79336 0.677335 0.19224"/>
  <path d="m48.3121 28.214 2.22428-0.57179 0.639286 0.33135"/>
  <path d="m51.1757 27.974 2.89784 0.19369 1.57106 0.10483"/>
  <path d="m56.5703 29.013-0.925672-0.74052 2.77062 0.87207 1.27363 0.40074 1.36426 1.07534"/>
  <path d="m51.6384 28.353-0.462691-0.37925-2.85892 0.43472"/>
  <path d="m51.6384 28.353 2.87896 0.38507 2.05292 0.27472"/>
  <path d="m57.1215 29.824-0.551278-0.81136 2.73374 0.98037 1.7491 0.62726"/>
  <path d="m61.8873 31.805-0.834179-1.18511 2.44793 1.56321 1.41596 0.904 1.09646 1.52458"/>
  <path d="m48.3208 28.569 2.89813-0.18905 0.419413-0.0276 0.267507 0.41382"/>
  <path d="m51.9059 28.767 2.84643 0.57702 2.36922 0.48031"/>
  <path d="m57.2717 30.677-0.150164-0.85348 2.68204 1.11513 2.0837 0.86625"/>
  <path d="m62.1469 33.058-0.259664-1.25248 2.40146 1.63348 1.7247 1.1732"/>
  <path d="m66.3893 36.231-0.375846-1.61867 2.00238 2.10364 1.32998 1.39738 0.280867 1.12616 0.202446 0.81253"/>
  <path d="m69.8291 40.052 0.133898 0.22912 0.679949 1.16537 1.46359 2.50844 0.02963 0.0511 0.202446 0.34703"/>
  <path d="m72.3386 44.353-0.101368-0.39233-0.467629-1.80685"/>
  <path d="m71.9297 46.613 0.408957-2.26044 0.898659 2.76138 0.59717 1.83588-0.408376 2.4556"/>
  <path d="m51.966 29.199-0.06012-0.4324-2.90423-0.0401-0.677335-9e-3"/>
  <path d="m51.966 29.199 2.79793 0.77972 2.50777 0.69869"/>
  <path d="m57.0068 31.541 0.264892-0.86306 2.60971 1.27426 2.26553 1.10612"/>
  <path d="m61.8065 34.332 0.34041-1.27368 2.32594 1.73948 1.9164 1.43339"/>
  <path d="m66.0053 37.884 0.383978-1.65352 1.94313 2.15823 0.825175 0.91678 0.671526 0.74603-0.03166 0.15711-0.35958 1.76967-0.01249 0.0613"/>
  <path d="m57.0068 31.541 2.51067 1.45982 2.28906 1.33118"/>
  <path d="m60.8634 35.576 0.943099-1.24493 2.21731 1.87596 1.98147 1.67675"/>
  <path d="m64.8513 39.508 1.15397-1.62361 1.84553 2.24244 1.54114 1.87219 0.0334 0.041"/>
  <path d="m68.1152 43.999 1.31023-1.95901 1.39998 2.55694 1.1043 2.01651"/>
  <path d="m70.5152 48.847 1.4145-2.23344 0.865548 2.77213 0.630862 2.02029"/>
  <path d="m71.9558 53.835 1.47027-2.42946 0.268668 2.89148 0.178048 1.91691"/>
  <path d="m73.8728 56.214 0.406052-2.55898"/>
  <path d="m51.8144 29.634 0.151616-0.43472-2.89232-0.26658-0.745591-0.0685"/>
  <path d="m72.3915 58.747 1.4662-2.5067 0.0151-0.0258-0.37207 2.88015-0.225972 1.74935-1.44936 2.53109"/>
  <path d="m51.8144 29.634 2.72648 1.00129 2.46594 0.90546-0.676754 0.83895"/>
  <path d="m70.5152 48.847 0.805715 2.79013 0.634928 2.19831"/>
  <path d="m69.4379 56.135 2.14441-1.95844 0.373521-0.34121 0.25676 2.89264 0.178919 2.01883"/>
  <path d="m51.4551 30.054 0.35929-0.42021-2.86066-0.50296-0.621858-0.10948"/>
  <path d="m69.8486 61.144 2.11333-1.99212 0.429579-0.40511-0.352609 2.88248-0.213483 1.74557"/>
  <path d="m51.4551 30.054 2.62162 1.25045 2.25333 1.07504"/>
  <path d="m71.3711 63.813 0.454267-0.43879-0.20593 0.56366"/>
  <path d="m23.0128 66.154 0.485055 1.1038 1.7584 2.31155 0.945713 1.24319 1.6367 2.08882 2.28673 1.79059 0.938452 0.7347 2.09706 1.59951 2.60362 1.28733 0.108048 0.0534 2.72648 0.99228 2.50225 0.79104 2.7837 0.49978 2.31607 0.14461 0.630282 0.0392 2.76743-0.13039 0.214644-0.0102 2.88768-0.45883 2.66926-0.75503 2.33959-1.01552 2.6588-1.16913 0.178338-0.0787 2.44503-1.57308 2.17781-1.92126 0.649451-0.57267 2.06715-2.04003 0.03398-0.0334 1.62305-2.40855 0.762437-1.13109 0.04647-0.0819"/>
  <path d="m55.2612 33.161 1.06886-0.78117 2.37358 1.67385 2.1598 1.52313"/>
  <path d="m59.3406 36.741 1.52284-1.16449 2.06831 2.03887 1.9196 1.89252"/>
  <path d="m62.9489 41.034 1.90246-1.52574 1.70728 2.34931 0.766504 1.05443 0.79003 1.08724"/>
  <path d="m65.9179 45.846 2.19727-1.84722 0.736587 1.48799 1.28845 2.60254 0.374974 0.75735-2.18188 1.91691-0.221325 0.19428"/>
  <path d="m70.3386 67.447-0.03253 0.0891-2.07412 2.03306-0.25676 0.25178"/>
  <path d="m67.9752 69.821-1.5789 2.43759-0.576839 0.89064-2.44503 1.56756-0.440617 0.28256"/>
  <path d="m59.3406 36.741 1.86877 2.22328 1.73952 2.06936"/>
  <path d="m60.3569 42.394 2.592-1.35993 1.52488 2.47157 0.322692 0.523 1.12144 1.81789"/>
  <path d="m62.8969 47.498 2.42324-1.32479 0.597751-0.32669 0.32124 0.74806 1.14554 2.66874 0.727292 1.69505"/>
  <path d="m64.786 52.85 2.52461-1.43572 0.801358-0.45592 0.720613 2.81336 0.605302 2.36354"/>
  <path d="m65.9388 58.198 2.50167-1.47492 0.997413-0.58805 0.2373 2.89438 0.1734 2.11467"/>
  <path d="m50.9003 30.443 0.554764-0.38913-2.80228-0.76375-0.316593-0.0862"/>
  <path d="m66.3112 63.295 1.82433-1.10903 1.71309-1.04194-0.196055 1.8051"/>
  <path d="m50.9003 30.443 2.46507 1.5362 1.89578 1.18133"/>
  <path d="m53.8371 33.851 1.42409-0.69027 2.18275 1.91575 1.89665 1.66455-2.05321 1.03439"/>
  <path d="m65.9388 58.198 0.211449 2.89642 0.01801 0.2448 0.142903 1.95583-2.24839 0.91678-2.1598 0.88048"/>
  <path d="m46.4564 28.691 1.89346 1.06749 1.82085 1.02656"/>
  <path d="m50.1707 30.786 0.729616-0.34238-2.5583-1.00855"/>
  <path d="m65.9025 67.914 2.41889-1.50744"/>
  <path d="m49.2933 31.067 0.877456-0.28139 2.22806 1.86289 1.43832 1.20253"/>
  <path d="m65.9025 67.914-0.811815 2.7881-0.338377 1.16246"/>
  <path d="m64.7523 71.865 2.45258-1.55565 0.770279-0.48874 0.93061-2.75093 0.104272-0.30782"/>
  <path d="m52.1112 34.421 1.72587-0.57034 1.91757 2.18117 1.53272 1.74325"/>
  <path d="m60.7522 73.569 2.67187-1.13807 1.32824-0.56569-1.45749 2.51193-0.361033 0.62203"/>
  <path d="m54.7799 38.632 2.50747-0.85696 1.60765 2.41872 1.46185 2.19946"/>
  <path d="m59.3676 76.537 2.66693-1.15055 0.89924-0.38768-2.12785 1.97673-0.258793 0.24016-2.66432 1.15665-0.34012 0.14752"/>
  <path d="m57.1692 43.524 2.73722-0.97079 0.450491-0.15972 1.29368 2.59992 1.24633 2.50409"/>
  <path d="m59.1605 48.874 2.72531-1.00419 1.01106-0.37258 0.966625 2.73844 0.922477 2.61357"/>
  <path d="m60.6549 54.429 2.71282-1.03701 1.41828-0.54246 0.611692 2.83892 0.541113 2.50931-2.70092 1.06866-1.65645 0.65543"/>
  <path d="m54.7799 38.632 1.2745 2.60951 1.11476 2.28222"/>
  <path d="m59.3676 76.537-1.82491 1.98283"/>
  <path d="m53.5144 44.371 2.82959-0.65542 0.825175-0.19109 1.01281 2.72189 0.978534 2.62838"/>
  <path d="m54.0997 79.492 2.79531-0.78901 0.647709-0.18295-2.17229 0.95918"/>
  <path d="m54.8601 49.906 2.82436-0.67779 1.47608-0.35428 0.754305 2.80436 0.740073 2.75035"/>
  <path d="m55.8865 55.614 2.81884-0.70073 1.94952-0.48467 0.483022 2.8636 0.44352 2.62925"/>
  <path d="m56.5438 61.216 2.81303-0.7228 2.22457-0.5715 0.180371 2.89816 0.14116 2.27206"/>
  <path d="m46.4564 28.691 1.90653 1.59631 0.930319 0.77913"/>
  <path d="m56.8041 66.441 2.8078-0.74283 2.29109-0.60635-0.18008 2.89845-0.106306 1.71537"/>
  <path d="m61.6166 69.706 2.67971-1.12006 1.6062-0.6714 0.232942-2.63447"/>
  <path d="m48.3031 31.276 0.08365-0.0177 0.906502-0.19137 1.86819 2.22357 0.949779 1.1308"/>
  <path d="m56.6623 71.049 2.80316-0.75997 2.15109-0.58341-0.634348 2.83398-0.230038 1.02888"/>
  <path d="m50.1521 34.846 1.9591-0.42485 1.5545 2.45298 1.11418 1.75806-2.86154 0.64033"/>
  <path d="m56.1372 74.845 2.79938-0.77391 1.81562-0.50209-1.22774 2.63215-0.156844 0.33628-2.79677 0.78349-1.30529 0.3659"/>
  <path d="m56.5438 61.216 0.144355 2.90019 0.11589 2.32491"/>
  <path d="m46.4564 28.691 1.68811 2.36295 0.158587 0.22158"/>
  <path d="m51.2416 67.268 2.87315-0.42717 2.6893-0.39959-0.08946 2.90252-0.05228 1.7055"/>
  <path d="m47.2389 31.404 1.06422-0.12806 0.0883 0.17046 1.3355 2.57872 0.425222 0.82095"/>
  <path d="m51.2605 71.871 2.87141-0.43705 2.53042-0.38506-0.39821 2.87666-0.126928 0.91882"/>
  <path d="m48.04 35.107 2.11217-0.26049 1.07613 2.69721 0.690115 1.72931"/>
  <path d="m51.1106 75.624 2.87025-0.44517 2.15632-0.33425-0.851606 2.77619-0.02004 0.0656"/>
  <path d="m48.823 39.666 2.88129-0.3656 0.214063-0.0273 0.867581 2.77154 0.728454 2.32637"/>
  <path d="m50.8056 78.388 2.86909-0.45099 1.59081-0.25003-1.16588 1.8054"/>
  <path d="m49.5497 44.89 2.88013-0.37752 1.08455-0.142 0.686048 2.82178 0.659617 2.71405"/>
  <path d="m50.365 80.084 2.86851-0.45476 0.866129-0.13735-1.39853 0.74225"/>
  <path d="m50.1838 50.54 2.87809-0.39001 1.79819-0.24364 0.514101 2.85808 0.512358 2.84996"/>
  <path d="m50.6924 56.342 2.87635-0.40278 2.31781-0.32466 0.338377 2.88422 0.318917 2.71753-2.87461 0.41526-2.61901 0.37839"/>
  <path d="m50.8056 78.388-0.440616 1.69649"/>
  <path d="m49.5497 44.89 0.323854 2.88596 0.310203 2.764"/>
  <path d="m46.5038 80.266 2.90133-0.13677 0.1795-8e-3 0.780445-0.0366-0.551569 0.60897"/>
  <path d="m45.3454 50.741 0.0366-1e-3 2.90191-0.12081 1.89985-0.079 0.253565 2.89293 0.255017 2.9089"/>
  <path d="m45.3138 56.572 2.90191-0.124 2.47669-0.1057 0.182985 2.89845 0.174852 2.76951"/>
  <path d="m45.3588 62.259 2.90191-0.1269 2.7895-0.12197 0.105725 2.90222 0.08568 2.35599"/>
  <path d="m46.4564 28.691 0.782479 2.71259"/>
  <path d="m45.4779 67.526 2.90162-0.1298 2.86212-0.12778 0.01191 2.90368 7e-3 1.69969"/>
  <path d="m46.1436 31.446 0.727583-0.0279 0.367713-0.0139 0.04183 0.19341 0.614016 2.83833 0.145226 0.67082"/>
  <path d="m45.6638 72.127 2.90133-0.13242 2.6954-0.12284-0.11589 2.90164-0.03398 0.85115"/>
  <path d="m45.8627 35.191 2.17723-0.0842 0.491445 2.86186 0.291614 1.69707"/>
  <path d="m45.9054 75.865 0.145517-7e-3 2.90162-0.13416 0.523686-0.0241 1.63438-0.0758-0.304975 2.76342-1.26202 0.0592-2.90162 0.13561-0.451653 0.0212"/>
  <path d="m45.6278 39.792 2.90249-0.11471 0.292776-0.0116 0.400243 2.87609 0.326468 2.34844-2.90191 0.11761-1.19579 0.0485"/>
  <path d="m46.4564 28.691-0.275349 2.42423-0.03747 0.33018"/>
  <path d="m45.4779 67.526 0.117343 2.90165 0.06855 1.6994"/>
  <path d="m45.0614 31.399 1.08223 0.0468-0.217258 2.89583-0.06361 0.84912"/>
  <path d="m40.14 71.8 2.89959 0.17134 2.62424 0.15507 0.187342 2.89786 0.05432 0.8407"/>
  <path d="m43.7119 35.095 2.1508 0.0955-0.148131 2.90019-0.08684 1.70086"/>
  <path d="m40.767 75.554 2.8993 0.1754 2.2391 0.13561 0.205931 1.9808 0.079 0.75764"/>
  <path d="m42.4729 39.646 2.90162 0.13445 0.253274 0.0116-0.09672 2.90251-0.079 2.3618"/>
  <path d="m41.6329 78.323 2.899 0.17859 1.60243 0.0987 0.05606 3e-3 0.313398 1.66223"/>
  <path d="m41.4072 44.86 2.90104 0.14026 1.1438 0.0555-0.05432 2.90338-0.05199 2.76196-2.91e-4 0.0197"/>
  <path d="m42.6898 80.028 2.89871 0.18063 0.596008 0.0369 0.319207 0.02 0.32763 0.56773"/>
  <path d="m40.5701 50.5 2.90104 0.14665 1.87429 0.095-0.01568 2.90397-0.0038 0.69637-0.0122 2.22995"/>
  <path d="m40.006 56.291 2.90046 0.15333 2.40727 0.12748 0.02295 2.90368 0.02207 2.78345"/>
  <path d="m39.7429 61.949 2.89988 0.15972 2.71602 0.14984 0.06564 2.90339 0.05344 2.36353-2.89959-0.1661-2.78805-0.15943"/>
  <path d="m41.4072 44.86-0.177757 1.19643-0.284062 1.91459-0.07407 0.49919-0.301199 2.029"/>
  <path d="m42.6898 80.028 1.19521 0.62145"/>
  <path d="m36.0797 49.829 2.87257 0.42921 1.61782 0.2419-0.148421 1.52487-0.281448 2.89032-0.134189 1.3759"/>
  <path d="m35.0201 55.516 2.86996 0.44576 2.11595 0.32902-0.13506 2.90077-0.12809 2.75761"/>
  <path d="m34.47 61.099 2.86764 0.46202 2.40524 0.38797 0.02614 2.90367 0.0212 2.34728"/>
  <path d="m46.4564 28.691-1.06974 2.07604-0.325307 0.63161"/>
  <path d="m34.4506 66.311 2.86502 0.47713 2.47465 0.41207 0.220163 2.89554 0.129542 1.70463"/>
  <path d="m44.0355 31.266 1.02588 0.13271-0.995961 2.72799-0.35348 0.96818"/>
  <path d="m34.9522 70.913 2.8627 0.4899 2.32507 0.39784 0.478375 2.86447 0.148712 0.88949"/>
  <path d="m41.6782 34.824 2.03375 0.27123-0.763018 2.80175-0.476051 1.74877"/>
  <path d="m35.9365 74.709 2.86096 0.50036 1.96956 0.34441 0.865838 2.76864"/>
  <path d="m39.496 39.235 2.87722 0.39726 0.09962 0.0136-0.581486 2.8453-0.484184 2.36935-2.87519-0.41265-0.934676-0.13417"/>
  <path d="m37.3429 77.561 2.85979 0.5079 1.43019 0.25381 1.05696 1.7055-2.85921-0.51197-0.736878-0.13184"/>
  <path d="m34.4506 66.311 0.31456 2.88684 0.187051 1.71479"/>
  <path d="m44.0355 31.266-1.60417 2.42104-0.753143 1.13661"/>
  <path d="m30.3383 69.513 2.77963 0.84302 1.83421 0.5564 0.728745 2.81104 0.255598 0.98589"/>
  <path d="m39.8457 34.39 1.83246 0.43414-1.28787 2.60283-0.894303 1.80801"/>
  <path d="m31.6335 73.378 2.77469 0.8587 1.52836 0.47305 1.28438 2.60457 0.12199 0.24713"/>
  <path d="m36.8244 38.579 2.67158 0.65601-1.01687 2.72014-0.881813 2.3586"/>
  <path d="m33.5121 76.359 2.77121 0.86945 1.05957 0.33221 1.75085 1.8234"/>
  <path d="m34.1906 43.444 2.81419 0.71845 0.592523 0.15129-0.307298 1.11658-0.77057 2.79971-0.439745 1.59863"/>
  <path d="m33.5121 76.359 2.21238 1.88148 0.14813 0.12574 2.76946 0.87496 0.451654 0.14288 2.00761 0.76548"/>
  <path d="m32.0755 48.765 2.80722 0.74545 1.19695 0.31798-0.04183 0.22477-0.532109 2.85489-0.485636 2.60776"/>
  <path d="m30.5835 54.291 2.79967 0.77303 1.63699 0.45215-0.284644 2.88974-0.265473 2.69343"/>
  <path d="m29.7839 59.758 2.79212 0.79947 1.89404 0.54217-0.01075 2.90396-0.0087 2.30778-2.78544-0.82298-1.95939-0.57905"/>
  <path d="m46.4564 28.691-1.69421 1.8022-0.726712 0.77274-0.928286-0.21315"/>
  <path d="m32.0755 48.765-0.449039 1.66281-0.756919 2.80349-0.286096 1.05937"/>
  <path d="m26.8866 52.681 2.66287 1.15926 1.03401 0.45012-0.420284 2.87318-0.379331 2.59353"/>
  <path d="m25.8857 57.998 2.64718 1.19498 1.25098 0.56453-0.04415 2.90368-0.0058 0.39465-0.0012 0.0682-0.02701 1.78478"/>
  <path d="m46.4564 28.691-1.80168 1.27048-1.54753 1.09131"/>
  <path d="m25.7602 63.072 2.01167 0.93682 1.93383 0.90052 0.395305 2.87696 0.2373 1.72728"/>
  <path d="m42.3131 30.768 0.794097 0.28488-2.02997 2.07692-1.23152 1.25974"/>
  <path d="m26.4977 67.679 2.62075 1.25161 1.2199 0.58283 0.922767 2.75325 0.37236 1.11135"/>
  <path d="m38.2886 33.812 1.55711 0.5776-1.69886 2.35541-1.32243 1.83356"/>
  <path d="m28.0423 71.631 2.61175 1.27048 0.979406 0.47655 1.54811 2.45704 0.330534 0.52475-2.60594-1.28268-0.603269-0.29679"/>
  <path d="m34.5685 37.709 2.25594 0.86945-1.38255 2.55375-1.25127 2.31126"/>
  <path d="m31.3297 42.296 2.6954 1.08201 0.165558 0.0662-0.55186 1.38839-0.0064 0.016-0.01481 0.0378-1.07264 2.69866-0.469371 1.18046-1.59778-0.66849-1.74968-0.73209"/>
  <path d="m26.4977 67.679 1.05725 2.70476 0.487379 1.24725"/>
  <path d="m38.2886 33.812-2.00528 2.10073-1.71483 1.79639"/>
  <path d="m25.301 69.557 2.31636 1.75196 0.424932 0.32147 1.69334 2.35918 0.567254 0.79017"/>
  <path d="m32.8153 36.667 1.75317 1.04223-1.67533 2.37225-1.5635 2.21399"/>
  <path d="m25.301 69.557 1.75549 2.3133 0.782188 1.03061 2.30968 1.76097 0.154521 0.1179 2.28354 1.79436 0.574514 0.45157"/>
  <path d="m29.1251 40.924 2.20453 1.37155-0.560864 1.09276-0.476632 0.9284-0.855382 1.66716-0.153359 0.29882-0.555345 1.08173"/>
  <path d="m26.1666 45.698 2.43428 1.58383 0.127218 0.0828-0.95036 2.74425-0.891108 2.57262"/>
  <path d="m24.0715 50.771 2.4032 1.63087 0.411861 0.27965-0.537336 2.85373-0.463562 2.46285"/>
  <path d="m22.926 55.913 2.37416 1.67269 0.585552 0.41236-0.07174 2.9031-0.0084 0.34557-0.04531 1.82485-1.54462-1.12267-1.44965-1.05385"/>
  <path d="m46.4564 28.691-1.81271 0.90865-2.33059 1.16826"/>
  <path d="m41.6837 30.423 0.62941 0.34499-2.31636 1.75197-1.70815 1.29197-1.22164-0.69579"/>
  <path d="m24.0715 50.771-0.631733 2.83456-0.51381 2.30749"/>
  <path d="m20.9974 53.604 1.8618 2.22879 0.06681 0.0802-0.09324 2.90223-0.0668 2.07982"/>
  <path d="m46.4564 28.691-1.82026 0.66036-2.73025 0.99083-0.222196 0.0807"/>
  <path d="m20.8162 58.487 1.82753 2.25725 0.12228 0.15101 0.276511 1.57191"/>
  <path d="m41.2428 30.033 0.440907 0.39087-2.50864 1.46331-2.1081 1.22983"/>
  <path d="m36.2252 32.332 0.841731 0.78407-2.22922 1.86144-2.02242 1.68924"/>
  <path d="m31.6265 35.498 1.18882 1.16885-1.90217 2.19453-1.78802 2.06239"/>
  <path d="m27.6517 39.393 0.505387 0.52504 0.968077 1.00564-0.773765 1.24842-1.52981 2.46837-0.175143 0.28256-0.479827 0.77448"/>
  <path d="m24.4747 43.845 1.69188 1.85331-1.10866 2.68414-0.986377 2.3888-1.8435-2.11844"/>
  <path d="m36.2252 32.332-2.39216 1.64684-2.20657 1.51906"/>
  <path d="m23.7181 65.836 1.13683 2.67252 0.446135 1.04891-1.80313-2.29965"/>
  <path d="m31.0366 34.253 0.589909 1.24493-2.07412 2.03278-1.58587 1.55391-0.31485 0.3084"/>
  <path d="m26.9473 37.771 0.538499 1.24028 0.165848 0.38245-0.713932 1.00013-0.560573 0.78581-1.68724 2.36383-0.194022 0.27152-0.0212 0.0299"/>
  <path d="m23.6911 41.887 0.763018 1.90587 0.02062 0.0514-1.22948 2.631-1.01716 2.17681"/>
  <path d="m21.3947 46.421 0.833308 2.23112-0.700571 2.81801-0.530076 2.13354"/>
  <path d="m21.3947 46.421-0.742396 2.80756-0.515263 1.94827 0.86032 2.42684-0.107758 2.90193-0.07348 1.9808"/>
  <path d="m46.4564 28.691-1.82607 0.46957-2.81274 0.72367-0.574805 0.14781"/>
  <path d="m19.9489 55.956 0.867291 2.53023 0.528623 2.85547 0.32095 1.7328"/>
  <path d="m41.0058 29.611 0.237009 0.42108-2.64021 1.21037-2.37735 1.08957-0.434516-0.83983"/>
  <path d="m46.4564 28.691-1.83072 0.30898-2.86415 0.48351-0.755757 0.12748"/>
  <path d="m40.9802 29.177 0.02556 0.43443-2.73199 0.98561-2.48308 0.89558"/>
  <path d="m35.7727 30.631 0.01801 0.86189-2.51154 1.45837-2.24258 1.30243"/>
  <path d="m31.0534 32.983-0.01685 1.27048-2.20163 1.89368-1.88765 1.62361"/>
  <path d="m27.0144 36.123-0.06709 1.64771-0.816462 1.03236-1.80168 2.27758-0.638124 0.80672"/>
  <path d="m23.8128 39.908-0.121699 1.97934-0.607336 1.19963-1.31226 2.59063-0.376717 0.7437 0.167591-2.2497 0.775508-1.46912 1.35554-2.56856 0.119375-0.22592"/>
  <path d="m31.0534 32.983-2.29312 1.78245-1.74591 1.35761"/>
  <path d="m31.6599 31.736-2.35208 1.70375-1.48247 1.07389-0.810943 1.60909-1.87545 2.21717-0.232362 0.27472-1.09384 1.29314 0.694182-1.35441 0.292775-0.57092"/>
  <path d="m46.4564 28.691-1.83537 0.16262-2.8932 0.25642-0.747624 0.0665"/>
  <path d="m41.165 28.745-0.184728 0.43153-2.79735 0.78088-2.41017 0.67285"/>
  <path d="m36.1648 29.78-0.39211 0.85029-2.59955 1.29545-2.11972 1.05676 0.606465-1.24667"/>
  <path d="m46.4564 28.691-1.83972 0.0186-2.90423 0.0299-0.547503 6e-3"/>
  <path d="m41.5513 28.333-0.386302 0.41207-2.84411 0.58863-2.15603 0.44634"/>
  <path d="m36.9447 28.973-0.779865 0.8073-2.66432 1.15665-1.8406 0.79918 1.1589-1.17698 2.71108-1.04224 1.41479-0.54391"/>
  <path d="m42.1223 27.956 2.48424 0.42137 1.84989 0.31392-1.84437-0.13475-2.89668-0.21141-0.164106-0.0119"/>
  <path d="m38.0769 28.238 2.89726-0.20212 1.14816-0.0802-0.571029 0.37723-2.87693 0.39958-1.72964 0.24016 1.13218-0.7347"/>
  <path d="m39.5146 27.602-1.43774 0.63684-2.74303 0.9554-0.859739 0.2994"/>
  <path d="m71.198 41.201 0.438002-0.1934-0.749076-0.32554"/>
  <path d="m26.0356 64.791 0.46211 2.8877-2.32972-1.73425-0.260536-0.19369"/>
  <path d="m44.5705 27.187-0.847249 0.17308 0.865258 0.42165"/>
  <path d="m44.5685 27.127-1.4906-0.42398"/>
  <path d="m48.2787 26.853 0.862934-0.37462"/>
 </g>
 <path d="m49.5984 80.7027 0.0712 2.90309 0.0645 2.62577 2.47989 1.51151 1.02848 0.62698-1.34218 2.57523-1.34218 2.57524-1.34218 2.57552-0.86148 1.65295-0.94832-2.74484-0.94833-2.74483-0.94833-2.74482-0.94832-2.74483-0.94833-2.74483-0.66717-1.93055 2.48017 1.5115 0.87688 0.53433-0.0883-2.90251-0.0137-0.44373" color="#000000" fill="#d0dfff" stroke="#000df2" stroke-width=".8"/>
 <path d="m48.3495 29.7587-8e-3 -0.32437-6e-3 -0.23058-5e-3 -0.18266-4e-3 -0.15739-4e-3 -0.14666-3e-3 -0.14781-4e-3 -0.16117-3e-3 -0.11616-2e-3 -0.0781-7e-3 -0.26484-0.0105-0.43443-0.0102-0.41353-5e-3 -0.22622-5.7e-4 -0.0224-0.0102-0.41032-0.0712-2.9031-0.0712-2.90309-0.0418-1.70376 2.70004 1.0704 1.20683 0.47857-0.92102-2.75412-0.92103-2.75383-0.92131-2.75412-0.92102-2.75412-0.92132-2.75413-0.92102-2.75412-0.74966-2.24128-0.99015 2.73002-0.98986 2.73002-0.98987 2.73001-0.99015 2.73032-0.98986 2.73001-0.21058 0.5808 2.70004 1.07069 1.01892 0.40394 0.0883 2.90251 0.0883 2.90281 0.0883 2.90251 0.0122 0.40249 0.0116 0.38217 1e-3 0.0334 5e-3 0.17975 2e-3 0.0598 0.018 0.59473 0.0111 0.36126" color="#000000" fill="#d0dfff" stroke="#000df2" stroke-width=".8"/>
 <g transform="translate(-.000372723 -.000345046)" stroke-width=".9">
  <path d="m27.7719 64.008-1.06857 0.48177-0.46589 0.20996-0.20187 0.0909-1.21438 0.54769-0.91376 0.41207-0.18938 0.0851-0.23613 0.10659-0.37468 0.169-0.0944 0.0424-2.64777 1.19382-2.08719 0.94118 2.47524 1.51935 1.1377 0.69841-2.86706 0.4655-2.86705 0.46551-2.86677 0.46521-2.86705 0.46551-2.86705 0.4655-2.86677 0.46551-2.91062 0.47248 2.03084-2.07605 2.03084-2.07605 2.03084-2.07604 2.03084-2.07634 1.41827-1.44965 2.47524 1.51935 0.96024 0.58951 2.65676-1.1735 2.65706-1.1732 1.59313-0.70363 3e-3 -1e-3 0.20071-0.0889 0.93961-0.41498 0.10165-0.0447 0.13478-0.0595 1.17313-0.51807" color="#000000" fill="#c5ffca" stroke="#139800"/>
  <path d="m69.9903 39.188 2.87576-0.40742 2.87577-0.40743 2.87577-0.40772 2.87577-0.40742 2.12379-0.30086-1.60737 2.41843-1.60765 2.41871-1.40434 2.11293-2.66373-1.15752-1.05725-0.45941-2.64777 1.19382-0.28435 0.12836" color="#000000" fill="#c5ffca" stroke="#139800"/>
  <path d="m22.3207 42.694-0.55244-0.28488-2.70614 1.05501-1.34858 0.52562-1.1284-2.676-1.12841-2.67572-0.66484-1.57627 2.87083 0.44111 2.87083 0.44082 2.87083 0.44112 1.09413 0.16785" color="#000000" fill="#ffdbdb" stroke="#f00"/>
  <path d="m64.0628 64.212 1.74301 0.89849 0.32966 0.16988 1.55508 0.80178 0.63087 0.32525 0.68866 0.35486 0.2861 0.14752 0.20302 0.10455 0.68111 0.35138 0.1583 0.0813 0.0139 7e-3 2.25682 1.16362-2.57429 1.34454-1.60097 0.83664 2.85805 0.51748 2.85776 0.51749 2.85805 0.51748 2.85806 0.51749 2.85804 0.51748 2.85806 0.5175 2.42643 0.43936-1.72557-2.33594-1.72529-2.33596-1.72558-2.33595-1.72528-2.33624-0.43742-0.59182-2.57429 1.34453-1.4084 0.73587-2.59461-1.30533-2.05176-1.03207-0.18734-0.0941-0.23351-0.11762-0.24835-0.12487-0.0157-8e-3 -1.45401-0.73151-0.24891-0.12516-1.51704-0.76316" color="#000000" fill="#ffdbdb" stroke="#f00"/>
  <path d="m180.577 58.726-0.50055-0.16736-0.19266-0.0648-8.37442-3.44276-2.61048-0.80743-2.283-0.68389-0.41658 0.34638 0.33868 0.13798 0.59618 0.24289 0.59756 0.24334 0.59898 0.24383-1.55107-0.0811-1.43586-0.0756-3.02845 0.28111-0.33962 0.041-1.6425 0.20046-1.67237 0.44428-0.6666 0.18973 0.90219 0.2937 1.50208 0.48856 1.51796 0.77246 0.92039 0.46852 0.66755-0.1944 1.67423-0.45453 1.64297-0.20839 1.63272-0.20744 1.61032-0.13705 1.5604 0.076 1.55015 0.0756 0.61204 0.2494 0.61343 0.24988 0.61484 0.25033 0.61669 0.25082 0.61764 0.25174 0.6195 0.2522 0.62089 0.25315 0.6223 0.2536 0.86674-0.13706 8.7e-4 -4.7e-4 0.40818 0.021 8e-3 4.6e-4 0.21878 0.0107 0.17307 9e-3 0.13295 0.0107 0.48561 0.0396 0.0107 8.7e-4 0.16001 0.013 0.66661 0.36222 0.65915 0.35803 0.55232 0.55943 0.49823 0.65219 0.44501 0.72491-2.25033-1.46008-2.16872-1.30159" color="#000000" fill="#c5ffca" stroke="#139800"/>
  <path d="m163.444 58.106 0.58497 0.31002 0.52901 0.28065 0.41937 0.22189 0.26963 0.18507 0.41938 0.28765 0.83361 0.57153 0.11383 0.0774 1.00481 0.68902 0.41238 0.28251 0.72399 0.52865 0.23465 0.1711 0.56819 0.41444 0.50146 0.43681 0.9955 0.86756 0.57891 0.50395 0.92505 0.80604 0.21364-0.0839 0.45997-0.18088 0.14274-0.056 0.52947-0.20838 0.67081-0.26388 0.40025-0.15756 0.26871-0.10535 5e-3 -2e-3 0.66196-0.2606 0.52152-0.20512 0.0881-0.0344 0.056-0.0219 6e-3 -4e-3 0.65774-0.25873 0.51828-0.20373 0.0284-0.0112 0.11662-0.0458 0.043 0.11608 0.0154 0.0414 0.36712 0.98785 6e-3 0.0177 0.34053 0.91651 0.14647 0.44987 0.58266 1.78781 0.0116 0.0368 0.0783 0.24568 0.14041 0.43867 0.49542 1.55101 0.0592 0.24241 0.55606 2.26239 0.13574 0.55289 0.10776 0.43729 0.0354 0.14497 0.341 1.38737 0.52014 2.67076 0.26217 1.52442 0.11848 0.68902 0.0924 0.53659 0.40397 2.67122 0.0209 0.13753-0.11289-0.089-2.33992-1.85588-2.50691-1.90436-1.6593-1.19483-0.42077-0.30349-0.2701-0.19439-0.20899-0.15058-0.50707-0.32633-2.15518-1.38597-2.66272-1.71228-1.62805-0.8769-0.66616-0.35896-0.47954-0.25827-1.34163-0.71232-1.43818-0.76361-1.22081-0.57621-0.47116-0.22189-1.1317-0.53425 0.69927-0.27505 0.0107-4e-3 0.68667-0.26992 0.696-0.27365 0.6946-0.27318 0.0336-0.0135 0.65868-0.2592 0.69134-0.27179 0.55885-0.22004 0.13062-0.0512 0.68761-0.27039-1.50536-1.32722-0.67082-0.59159-0.30882-0.27179-0.51873-0.45779-0.0518-0.0382-1.47551-1.09134-0.16607-0.11561-0.85788-0.59672-0.50707-0.35243-0.014-0.01-0.37132-0.25827-0.29716-0.20699-0.26263-0.18274-0.21972-0.15244-0.034-0.0238-0.2076-0.14452-0.0615-0.043-0.0546-0.0378-0.29809-0.16082-0.45529-0.24569-0.67361-0.36314-0.10451-0.0569-0.60551-0.31328 0.85928-0.39439 0.1712-0.0788 0.68806-0.3156 0.30603-0.14033 0.29948-0.13752 0.40585-0.18648 1.47738-0.42981 0.21971-0.0639 1.01928-0.29696z" color="#000000" fill="#ffdbdb" stroke="#f00"/>
  <path d="m141.887 57.298-2.02736 1.17012-2.16451 1.3743-2.10806 1.44704 0.11008-0.72118 0.15767-0.64893 0.20619-0.55663 0.30602-0.35523 0.30928-0.35943 0.36154-0.0522 0.0667-0.01 0.10869-0.01 0.33307-0.0294 0.4469 0.12448 0.0336 0.01 0.02 5e-3 0.16094-0.0583 0.5318-0.19207 0.69134-0.25033 0.0769-0.0279 0.44315-0.1599 0.14602-0.0532 0.0234-9e-3 0.68807-0.24847 0.58126-0.21026 0.10547-0.0382 0.39184-0.14171 0.29343-0.10578 0.68341-0.24755 0.68201-0.2466 1.33742-0.0704 1.34723-0.0714 1.40133 0.14218 1.42559 0.21212 1.43493 0.21351 1.4755 0.45919 0.58871 0.19627 1.02815-0.46479 1.69615-0.76688 1.69477-0.48343 1.01834-0.29043-0.59057-0.19206-1.47926-0.44894-1.44004-0.20465-1.43073-0.20373-1.4074-0.13426-1.35375 0.0774-1.34442 0.077 0.66848-0.24196 0.66708-0.24102 0.66568-0.24102 0.66428-0.24008 0.66241-0.23961 0.66148-0.23916 0.66009-0.23868 0.65822-0.23823-2.55077 0.60978-2.48686 0.77945-2.46586 0.79904-5.55683 2.09643-1.36215 0.40511-0.23698 0.11469-0.15159 0.0466-0.75619 0.22984-0.49867 0.17994-0.33728 0.16782-0.52619 0.1655-0.64984 0.2289" color="#000000" fill="#ffdbdb" stroke="#f00"/>
 </g>
 <path d="m142.966 47.1627 0.0279 0.67597 0.035 0.84146 0.62603-1.05312m-2.76583-10.1637 0.0378 0.87177 0.0374 0.86989 0.0378 0.86851 0.0374 0.8671 0.0374 0.86524 0.0374 0.8643 0.0374 0.86244 0.0374 0.8615 0.12267 0.84847 0.4497 0.83026 0.77298 0.79439 0.43197 0.29556 0.53693 0.36735 0.11522 0.0792 0.0369 0.0177 1.33695 0.65639 1.66351 0.58086 1.88835 0.48298 2.07681 0.37248 2.22235 0.25452 2.31939 0.13008 2.3665 2e-3 2.36138-0.12586 2.30492-0.25034 0.0205 0.87875 0.02 0.87783 0.0196 0.87549 0.02 0.87456 0.02 0.87269 0.0182 0.78879 2e-3 0.083 0.02 0.8699 2e-3 0.12027 0.0172 0.74776 0.67455-0.46105 1.60331-1.09601 0.3037-0.20744 0.36946-0.30722 0.036-0.0304 0.85555-0.71138 0.27662-0.23031 0.0849-0.0704 3e-3 -2e-3 4e-3 -3e-3 0.048-0.0396 0.65261-0.5431 2.03997-2.06566 1.69522-2.16823 1.23526-2.25586 0.80375-2.29921 0.36292-2.31443-0.01-0.86553-0.0107-0.86709-0.0107-0.86803-0.39464-0.30816-0.84248-0.34264-1.28286-0.40371-1.75539-0.50628-2.11507-0.61909-2.42201-0.75149-2.69072-0.92304 0.0206 0.90345 0.0205 0.90254 0.0206 0.9002 0.0205 0.89927 0.0206 0.89741 0.0205 0.89553 0.0206 0.89414 0.0205 0.89275-2.32126 0.24474-2.37769 0.12307-2.38329-8.7e-4 -2.33525-0.12586-2.23729-0.24615-2.09126-0.36177-0.0172-4e-3 -0.53553-0.13193-0.15393-0.0378-0.57006-0.14078-0.41798-0.10299-0.0402-0.01-0.1656-0.041-0.0107-3e-3 -0.23-0.0774-0.25423-0.0858-0.2337-0.0788-0.12503-0.0424-0.31022-0.10439-0.10074-0.0335-0.31813-0.10718-0.0919-0.0312-0.26636-0.12634-0.39511-0.18741-0.13343-0.063-0.0789-0.0378-0.3536-0.16736-0.15488-0.0732-0.65635-0.43402-0.4343-0.28716-0.46089-0.45826-0.31628-0.31421-0.2813-0.50348-0.16979-0.30348-0.12223-0.82515 0.20807-0.82607 0.52945-0.8107 0.83502-0.77992-0.0364-0.86385-0.036-0.8657-0.036-0.86711-0.0364-0.86849-0.036-0.87037-0.0364-0.87129-0.0364-0.8727-0.0364-0.87456 1.43119 0.45547 1.83611 0.53891 2.12998 0.63214 2.37023 0.7417 2.57829 0.88947 2.68605 1.02887 2.73037 1.17385 2.70144 1.34541-2.63381 1.1911-2.64965 1.36405-2.59228 1.51509-2.47194 1.66568-2.01802 1.63817-1.83159-0.40651-2.23801-0.81061-1.89074-1.06151-0.92608-1.00361z" color="#000000" fill="#d0dfff" stroke="#000df2" stroke-width=".8"/>
 <path d="m156.333 8.22566 0.95708 34.7979m0.1946 7.07579 0.20496 7.45186" fill="none" marker-start="url(#Arrow1Mstart)" stroke="#000" stroke-linejoin="round" stroke-width="2"/>
 <path d="m156.839 59.5547-0.36759-0.1902-0.41331-0.21445-0.47861-0.24801-0.52854-0.27364-0.0956-0.0494-0.75199-0.25081-0.74638-0.24893-0.89986-0.29976-0.67687 0.30627-1.70969 0.80651-0.23325 0.14358-0.24631 0.15152-0.89285 0.55008-0.31115 0.1916-0.10917 0.0672-1.33228 0.82049-0.25052 0.1543-1.19793 0.78738-0.48469 0.31887-0.88166 0.69789-0.16048 0.1268-0.59477 0.47084-1.3323 1.05498-0.11988 0.0946-0.19173 0.15151-0.21832-0.0984-0.37458-0.16875-0.32375-0.14545-0.26823-0.12121-0.43804-0.19673-0.0909-0.0416-0.0616-0.0275-0.58918-0.26525-0.1698-0.0764-0.12781-0.0578-0.2897-0.13006-0.47675-0.21492-9e-3 -4e-3 -0.10031-0.0452-0.58499-0.26339-0.5831-0.26247-1.03281 2.05261-0.01 0.0177-0.0186 0.0424-0.0737 0.16643-0.33309 0.75242-0.18147 0.40978-0.37878 0.85638-0.4189 0.965-0.56305 1.29646-0.0532 0.15756-0.33494 0.98925-0.36619 1.08062-0.09 0.26665-0.8504 2.51086-0.0279 0.10073-0.0933 0.34078-0.60877 2.21717-0.6736 2.7379-0.19033 0.86477-0.16654 0.75568-0.12875 0.58367-0.13062 0.59205 0.47209-0.37947 0.71747-0.57761 1.20074-0.96593 0.19266-0.14777 2.26341-1.73608 2.52044-1.82324 0.75524-0.48297 0.0822-0.0526 0.42543-0.27178 1.38549-0.88576 2.65059-1.69457 2.78821-1.475 4e-3 -2e-3 1.04306-0.54311 0.60831-0.31653 0.66428-0.34591 0.48842-0.25407 2.86471-1.31697-0.61716-0.27832-0.61624-0.27691-0.53133-0.23962-0.083-0.0372-0.61251-0.27599-0.61157-0.27504-0.45995-0.20699-0.14975-0.0676-0.6083-0.27412-0.57518-0.25872-0.0318-0.0144 0.0406-0.0321 1.24646-0.99577 0.17214-0.13799 0.19125-0.15245 1.57207-1.25636 0.0709-0.0564 1.09345-0.72726 0.59477-0.39531 0.67082-0.4177 0.82755-0.5156 0.19872-0.124 0.40165-0.25034 0.23931-0.14871 0.24957-0.15571 0.34894-0.21725 0.0901-0.0564 0.35918-0.22377 0.0877-0.042 0.53927-0.25825 0.61435-0.29371 0.4721-0.2261 0.32467-0.14917 0.3536-0.16178z" color="#000000" fill="#c5ffca" stroke="#139800" stroke-width=".9"/>
</svg>
