<?xml version="1.0" encoding="UTF-8"?>
<svg width="214.962" height="78.8217" version="1.1" viewBox="0 0 214.96194 78.821709" xmlns="http://www.w3.org/2000/svg" xmlns:xlink="http://www.w3.org/1999/xlink">
 <defs>
  <symbol id="symbol6758">
   <path d="m20.0285 34.32c-0.0538 0.26899-0.16139 0.68145-0.16139 0.77112 0 0.32278 0.25106 0.48418 0.52005 0.48418 0.21519 0 0.53798-0.1434 0.66351-0.50212 0.0179-0.0358 0.23313-0.8787 0.34073-1.32702l0.39451-1.61396c0.1076-0.39451 0.21519-0.78903 0.30486-1.20148 0.0717-0.30486 0.21519-0.82491 0.23313-0.89664 0.26898-0.55592 1.21943-2.1878 2.92304-2.1878 0.80697 0 0.96837 0.66351 0.96837 1.25529 0 0.44832-0.12554 0.95045-0.269 1.48842l-0.50211 2.0802-0.35866 1.36289c-0.0717 0.35866-0.23312 0.96837-0.23312 1.05804 0 0.32278 0.25106 0.48418 0.52004 0.48418 0.55593 0 0.66352-0.44832 0.80698-1.02217 0.25106-1.00424 0.91457-3.62241 1.07597-4.32179 0.0538-0.23313 1.00423-2.38506 2.9589-2.38506 0.7711 0 0.96837 0.60972 0.96837 1.25529 0 1.02218-0.75318 3.0665-1.11183 4.01694-0.1614 0.43038-0.23313 0.62765-0.23313 0.9863 0 0.84285 0.62764 1.47049 1.47049 1.47049 1.68567 0 2.34921-2.61819 2.34921-2.76165 0-0.17932-0.1614-0.17932-0.21522-0.17932-0.17932 0-0.17932 0.0539-0.26899 0.32278-0.26898 0.95045-0.84284 2.22366-1.82913 2.22366-0.30486 0-0.4304-0.17932-0.4304-0.59178 0-0.44832 0.1614-0.8787 0.32279-1.27321 0.34072-0.93251 1.0939-2.92305 1.0939-3.94521 0-1.16564-0.71731-1.9188-2.06226-1.9188-1.34494 0-2.25954 0.78903-2.92305 1.73947-0.0179-0.23313-0.0717-0.84285-0.57384-1.27323-0.44832-0.37659-1.02217-0.46624-1.47049-0.46624-1.61394 0-2.49264 1.14769-2.7975 1.56015-0.0897-1.02218-0.84284-1.56015-1.64982-1.56015-0.82491 0-1.16563 0.69937-1.32702 1.02216-0.32279 0.62764-0.55592 1.68568-0.55592 1.73947 0 0.17933 0.17933 0.17933 0.21519 0.17933 0.17933 0 0.19726-0.018 0.30486-0.41246 0.30486-1.27321 0.66351-2.13399 1.3091-2.13399 0.28692 0 0.55591 0.1434 0.55591 0.82491 0 0.37659-0.0538 0.57384-0.28693 1.50635z" stroke-linejoin="round" stroke-miterlimit="1e5" stroke-width="1.5"/>
  </symbol>
  <symbol id="symbol6769">
   <path d="m111.671 3.133c0-0.33892-0.0251-0.35148-0.37659-0.35148-0.80338 0.79083-1.94571 0.80339-2.46038 0.80339v0.4519c0.30128 0 1.12976 0 1.82018-0.35148v6.40199c0 0.41425 0 0.57744-1.25529 0.57744h-0.47702v0.4519c0.22595-0.012 1.76997-0.0502 2.23442-0.0502 0.38915 0 1.97082 0.0376 2.24699 0.0502v-0.4519h-0.47702c-1.25529 0-1.25529-0.16319-1.25529-0.57744z" stroke-linejoin="round" stroke-miterlimit="1e5" stroke-width="1.5"/>
  </symbol>
  <symbol id="symbol6774">
   <path d="m75.1484 8.832h-0.426795c-0.03765 0.27616-0.163185 1.01679-0.326385 1.14232-0.10035 0.0753-1.067 0.0753-1.24274 0.0753h-2.30973c1.31805-1.16742 1.7574-1.51891 2.51058-2.10889 0.92892-0.74063 1.79506-1.5189 1.79506-2.71143 0-1.5189-1.3306-2.44782-2.93738-2.44782-1.55656 0-2.61102 1.0921-2.61102 2.24697 0 0.6402 0.539775 0.70296 0.66531 0.70296 0.301275 0 0.66531-0.21339 0.66531-0.6653 0-0.22596-0.0879-0.66531-0.74064-0.66531 0.38916-0.89125 1.24275-1.16742 1.83274-1.16742 1.25529 0 1.90804 0.97913 1.90804 1.99592 0 1.0921-0.77829 1.95825-1.17998 2.41015l-3.02528 2.9876c-0.12555 0.11295-0.12555 0.13815-0.12555 0.48957h5.1718z" stroke-linejoin="round" stroke-miterlimit="1e5" stroke-width="1.5"/>
  </symbol>
  <symbol id="symbol6787">
   <path d="m29.9166 68.441c-0.64559 0.17932-0.96837 0.78903-0.96837 1.23735 0 0.39453 0.30486 0.82491 0.89664 0.82491 0.62764 0 1.29115-0.52005 1.29115-1.39875 0-0.95045-0.95043-1.57809-2.04433-1.57809-1.02216 0-1.68567 0.77112-1.9188 1.0939-0.44832-0.75318-1.45256-1.0939-2.47472-1.0939-2.25952 0-3.47896 2.20573-3.47896 2.79751 0 0.25106 0.26899 0.25106 0.43039 0.25106 0.21519 0 0.34073 0 0.41246-0.23312 0.52005-1.63188 1.8112-2.16987 2.54644-2.16987 0.68145 0 1.00424 0.32279 1.00424 0.89664 0 0.34073-0.25106 1.32702-0.41246 1.97261l-0.6097 2.45677c-0.269 1.09391-0.91458 1.63188-1.52429 1.63188-0.0897 0-0.50212 0-0.86077-0.26898 0.64557-0.17932 0.96837-0.78904 0.96837-1.23736 0-0.39452-0.30486-0.82491-0.89664-0.82491-0.62765 0-1.29116 0.52005-1.29116 1.39876 0 0.95043 0.95043 1.57808 2.04434 1.57808 1.02216 0 1.68567-0.77111 1.9188-1.09389 0.44832 0.75316 1.45255 1.09389 2.47471 1.09389 2.25953 0 3.47895-2.20572 3.47895-2.7975 0-0.25107-0.26898-0.25107-0.43038-0.25107-0.21519 0-0.34072 0-0.41245 0.23313-0.52005 1.63188-1.81121 2.16985-2.54645 2.16985-0.68145 0-1.00423-0.32278-1.00423-0.89662 0-0.37659 0.23313-1.32704 0.39451-1.99055 0.12554-0.46624 0.53799-2.15193 0.62765-2.43885 0.26899-1.07596 0.89664-1.63188 1.52428-1.63188 0.0897 0 0.50213 0 0.86078 0.269z" stroke-linejoin="round" stroke-miterlimit="1e5" stroke-width="1.5"/>
  </symbol>
 </defs>
 <path d="m29.5227 32.76h164" color="#000000" color-rendering="auto" fill="none" image-rendering="auto" shape-rendering="auto" solid-color="#000000" stroke="#000" stroke-dasharray="4, 4" style="isolation:auto;mix-blend-mode:normal"/>
 <path d="m84.1894 24.26v17" color="#000000" color-rendering="auto" fill="none" image-rendering="auto" shape-rendering="auto" solid-color="#000000" stroke="#000" stroke-width="3" style="isolation:auto;mix-blend-mode:normal"/>
 <path d="m85.2782 1.648c0-0.52005-0.43038-0.95044-0.95043-0.95044s-0.950445 0.43039-0.950445 0.95044 0.430395 0.95043 0.950445 0.95043 0.95043-0.43038 0.95043-0.95043zm0 5.82815c0-0.52005-0.43038-0.95045-0.95043-0.95045s-0.950445 0.4304-0.950445 0.95045 0.430395 0.95043 0.950445 0.95043 0.95043-0.43038 0.95043-0.95043z" stroke-linejoin="round" stroke-miterlimit="1e5" stroke-width="1.5"/>
 <circle cx="29.5227" cy="32.76" r="28.0227" color="#000000" color-rendering="auto" fill="#dcdcdc" image-rendering="auto" shape-rendering="auto" solid-color="#000000" stroke="#555" stroke-width="2" style="font-variant-east_asian:normal;isolation:auto;mix-blend-mode:normal"/>
 <path d="m213.462 32.26a19.9392 19.9392 0 0 1 -19.9392 19.9392 19.9392 19.9392 0 0 1 -19.9392 -19.9392 19.9392 19.9392 0 0 1 19.9392 -19.9392 19.9392 19.9392 0 0 1 19.9392 19.9392z" color="#000000" color-rendering="auto" fill="#dcdcdc" image-rendering="auto" shape-rendering="auto" solid-color="#000000" stroke="#555" stroke-width="2" style="font-variant-east_asian:normal;isolation:auto;mix-blend-mode:normal"/>
 <path d="m88.4085 55.56c0.200848 0.12048 0.68288 0.41507 1.45949 0.41507 1.37915 0 2.38338-0.92389 2.38338-1.96829 0-0.52221-0.241008-0.9373-0.562368-1.28542 0.602544-0.42848 1.12475-0.44188 1.35237-0.44188-0.0536 0.0536-0.12048 0.10704-0.12048 0.32136 0 0.2678 0.200832 0.42848 0.428464 0.42848 0.187456 0 0.42848-0.13392 0.42848-0.44187 0-0.30797-0.254416-0.68288-0.79-0.68288-0.200848 0-0.923904 0.0402-1.55322 0.61594-0.401696-0.29458-0.964064-0.48203-1.55322-0.48203-1.37915 0-2.38338 0.92388-2.38338 1.9683 0 0.52219 0.267792 1.00422 0.642704 1.35237-0.10704 0.12048-0.401696 0.56237-0.401696 1.08457 0 0.17407 0.04016 0.80338 0.562368 1.19168-0.602528 0.20085-1.2988 0.64271-1.2988 1.33898 0 0.97746 1.47286 1.7139 3.2805 1.7139 1.7005 0 3.2805-0.66948 3.2805-1.74067 0-0.40169-0.160672-1.12475-0.89712-1.52645-0.79-0.41507-1.58-0.41507-2.8788-0.41507-0.294576 0-0.776608 0-0.883728-0.0128-0.42848-0.0938-0.669488-0.49542-0.669488-0.88373 0-0.33475 0.09376-0.44187 0.174064-0.54897zm1.47288 0.0128c-1.31221 0-1.31221-1.28541-1.31221-1.5666 0-0.21424 0-0.74984 0.267808-1.09796 0.187456-0.22764 0.548976-0.46864 1.03101-0.46864 1.31219 0 1.31219 1.28542 1.31219 1.5666 0 0.21423 0 0.74983-0.267792 1.09796-0.187456 0.22763-0.548976 0.46864-1.03101 0.46864zm0 2.32982c1.1917 0 2.86541 0 2.86541 1.05779 0 0.70967-1.05779 1.3256-2.46371 1.3256s-2.46373-0.62933-2.46373-1.3256c0-0.46864 0.42848-1.0444 1.28542-1.05779z" fill="#f00" stroke-linejoin="round" stroke-miterlimit="1e5" stroke-width="1.2"/>
 <use width="100%" height="100%" xlink:href="#symbol6758"/>
 <use transform="translate(34.6717 -26.951)" width="100%" height="100%" xlink:href="#symbol6758"/>
 <use transform="translate(73.3282 -26.951)" width="100%" height="100%" xlink:href="#symbol6758"/>
 <use transform="translate(163.799 -.5)" width="100%" height="100%" xlink:href="#symbol6758"/>
 <use width="100%" height="100%" xlink:href="#symbol6769"/>
 <use transform="translate(-73.3283,26.951)" width="100%" height="100%" xlink:href="#symbol6769"/>
 <use transform="translate(-75.344,67.205)" width="100%" height="100%" xlink:href="#symbol6769"/>
 <use width="100%" height="100%" xlink:href="#symbol6774"/>
 <use transform="translate(129.128 26.451)" width="100%" height="100%" xlink:href="#symbol6774"/>
 <use transform="translate(127.113 59.205)" width="100%" height="100%" xlink:href="#symbol6774"/>
 <use width="100%" height="100%" xlink:href="#symbol6787"/>
 <use transform="translate(163.798 -8)" width="100%" height="100%" xlink:href="#symbol6787"/>
 <use transform="matrix(1.05458 0 0 1.05458 52.5495 -24.7693)" width="100%" height="100%" fill="#ff0000" stroke-width=".948249" xlink:href="#symbol6787"/>
</svg>
