<?xml version="1.0" encoding="UTF-8"?>
<svg width="217.843" height="137.977" version="1.1" viewBox="0 0 217.84354 137.97715" xmlns="http://www.w3.org/2000/svg" xmlns:xlink="http://www.w3.org/1999/xlink">
 <defs>
  <marker id="marker1615" overflow="visible" orient="auto">
   <path transform="matrix(-.4 0 0 -.4 -4 0)" d="m0 0 5-5-17.5 5 17.5 5z" fill="#f00" fill-rule="evenodd" stroke="#f00" stroke-width="1pt"/>
  </marker>
  <symbol id="symbol7177">
   <path d="m10.925 7.63485c0.0956-0.34431 0.0956-0.38256 0.0956-0.43995 0-0.42082-0.30605-0.84164-0.89904-0.84164-0.99466 0-1.22421 0.89903-1.3581 1.41549l-0.49734 1.98935c-0.22954 0.918139-0.59298 2.39102-0.80338 3.17528-0.0956 0.42083-0.68862 0.8799-0.746 0.91816-0.21041 0.13392-0.6695 0.45907-1.30073 0.45907-1.12856 0-1.1477-0.9564-1.1477-1.39635 0-1.16684 0.59298-2.65884 1.12858-4.03607 0.19128-0.49734 0.24867-0.63123 0.24867-0.95641 0-1.10944-1.10944-1.72156-2.16151-1.72156-2.02759 0-2.984 2.60146-2.984 2.98402 0 0.26779 0.28692 0.26779 0.45907 0.26779 0.22954 0 0.36344 0 0.43996-0.24865 0.63123-2.12325 1.68328-2.31453 1.97021-2.31453 0.1339 0 0.32518 0 0.32518 0.40169 0 0.43996-0.21042 0.93728-0.32518 1.24333-0.746 1.91283-1.1477 3.00315-1.1477 3.97869 0 2.18062 1.91283 2.48667 3.04139 2.48667 0.47821 0 1.12858-0.0765 1.83632-0.57384-0.5356 2.35277-1.97021 3.59611-3.29006 3.59611-0.24867 0-0.78426-0.0382-1.16683-0.26779 0.61211-0.24867 0.91816-0.76513 0.91816-1.2816 0-0.68862-0.55472-0.8799-0.93728-0.8799-0.70775 0-1.37724 0.61211-1.37724 1.45374 0 0.97555 1.0138 1.66416 2.56319 1.66416 2.19974 0 4.72469-1.47286 5.31766-3.84477z" stroke-linejoin="round" stroke-miterlimit="1e5" stroke-width="1.6"/>
  </symbol>
  <symbol id="symbol7242">
   <use width="100%" height="100%" xlink:href="#symbol7177"/>
  </symbol>
  <symbol id="symbol7307">
   <use width="100%" height="100%" xlink:href="#symbol7242"/>
  </symbol>
  <symbol id="symbol7312">
   <path d="m21.4066 19.4368c0-0.0574 0-0.0957-0.32519-0.42081-2.39102-2.41016-3.00313-6.02541-3.00313-8.95204 0-3.32832 0.72688-6.65664 3.07964-9.04768 0.24868-0.22953 0.24868-0.26779 0.24868-0.32516 0-0.13392-0.0765-0.1913-0.19128-0.1913-0.19128 0-1.91284 1.30074-3.0414 3.73002-0.97555 2.10411-1.20508 4.22734-1.20508 5.83412 0 1.492 0.21041 3.80653 1.26246 5.96802 1.1477 2.35278 2.79274 3.59611 2.98402 3.59611 0.11476 0 0.19128-0.0574 0.19128-0.19128z" stroke-linejoin="round" stroke-miterlimit="1e5" stroke-width="1.6"/>
  </symbol>
  <symbol id="symbol7317">
   <path d="m70.102 14.2968c-2.39102 0.57386-4.24647 3.06053-4.24647 5.37504 0 1.83632 1.22422 3.21355 3.02227 3.21355 2.23801 0 3.82566-3.00313 3.82566-5.64283 0-1.74067-0.76514-2.69709-1.4155-3.55785-0.68861-0.86079-1.81719-2.2954-1.81719-3.13704 0-0.42084 0.38258-0.879909 1.05207-0.879909 0.57384 0 0.95641 0.24867 1.35811 0.516469 0.38256 0.22953 0.76512 0.4782 1.05205 0.4782 0.4782 0 0.76513-0.45907 0.76513-0.765129 0-0.42082-0.30606-0.47821-0.99467-0.63123-0.99467-0.2104-1.26246-0.2104-1.56853-0.2104-1.492 0-2.18062 0.82251-2.18062 1.9702 0 1.03293 0.55472 2.10412 1.14769 3.27093zm0.22956 0.42083c0.4782 0.87989 1.05204 1.91282 1.05204 3.29005 0 1.26248-0.72688 4.4569-2.5058 4.4569-1.05205 0-1.83631-0.80339-1.83631-2.25714 0-1.20509 0.70775-4.8012 3.29007-5.48981z" stroke-linejoin="round" stroke-miterlimit="1e5" stroke-width="1.33333"/>
  </symbol>
  <symbol id="symbol7322">
   <path d="m78.1862 15.0048h1.79806c0.38256 0 0.57386 0 0.57386-0.38256 0-0.21042-0.1913-0.21042-0.5356-0.21042h-1.68328c0.6886-2.71621 0.78425-3.09877 0.78425-3.21355 0-0.32517-0.22953-0.51647-0.55472-0.51647-0.0574 0-0.59297 0.0192-0.76513 0.68863l-0.746 3.04139h-1.79806c-0.38257 0-0.57385 0-0.57385 0.36344 0 0.22954 0.15303 0.22954 0.53559 0.22954h1.68329c-1.37724 5.43243-1.45375 5.75761-1.45375 6.10192 0 1.03292 0.72687 1.7598 1.7598 1.7598 1.95109 0 3.04139-2.79273 3.04139-2.94576 0-0.19128-0.15302-0.19128-0.22953-0.19128-0.17216 0-0.19128 0.0574-0.28693 0.2678-0.82251 1.98934-1.83631 2.44841-2.48667 2.44841-0.4017 0-0.59298-0.24865-0.59298-0.8799 0-0.45907 0.0383-0.59296 0.11477-0.91815z" stroke-linejoin="round" stroke-miterlimit="1e5" stroke-width="1.33333"/>
  </symbol>
  <symbol id="symbol7327">
   <path d="m37.5712 10.0648c0-1.49201-0.2104-3.80652-1.26247-5.96801-1.14769-2.35279-2.79272-3.59613-2.984-3.59613-0.11477 0-0.19129 0.0765-0.19129 0.1913 0 0.0574 0 0.0957 0.36344 0.43993 1.87457 1.89371 2.96488 4.93511 2.96488 8.93291 0 3.27093-0.70775 6.63751-3.07965 9.04767-0.24867 0.22953-0.24867 0.26779-0.24867 0.32518 0 0.11472 0.0765 0.19128 0.19129 0.19128 0.19128 0 1.91282-1.30072 3.04139-3.73001 0.97554-2.1041 1.20508-4.22735 1.20508-5.83412z" stroke-linejoin="round" stroke-miterlimit="1e5" stroke-width="1.6"/>
  </symbol>
 </defs>
 <g fill="none">
  <path d="m117.89 80.5041 20.4436 38.7782" color="#000000" color-rendering="auto" image-rendering="auto" marker-end="url(#marker1615)" shape-rendering="auto" solid-color="#000000" stroke="#f00" stroke-width="2" style="isolation:auto;mix-blend-mode:normal"/>
  <path d="m5.5 23.6791 33.4728 5.68051" color="#000000" color-rendering="auto" image-rendering="auto" shape-rendering="auto" solid-color="#000000" stroke="#000" style="isolation:auto;mix-blend-mode:normal"/>
  <path d="m68.7964 44.3081-29.8236-14.9491" color="#000000" stroke="#000" stroke-linejoin="round"/>
  <path d="m117.89 80.5041-49.0941-36.1964" color="#000000" stroke="#0f0000" stroke-dasharray="2, 4"/>
 </g>
 <path d="m184.49 107.297h5.3368c0.26779 0 0.63123 0 0.63123-0.38256s-0.36344-0.38257-0.63123-0.38257h-5.3368v-5.35591c0-0.26779 0-0.63123-0.38256-0.63123s-0.38256 0.36344-0.38256 0.63123v5.35591h-5.35592c-0.26779 0-0.63123 0-0.63123 0.38257 0 0.38258 0.36344 0.38256 0.63123 0.38256h5.35592v5.35592c0 0.2678 0 0.63124 0.38256 0.63124s0.38256-0.36344 0.38256-0.63124z" stroke-linejoin="round" stroke-miterlimit="1e5" stroke-width="1.33333"/>
 <path d="m87.7064 102.981h2.238c0.36344 0 0.707744 0 0.707744-0.55472 0-0.34431-0.325168-0.34431-0.650352-0.34431h-2.14237l0.631232-3.46222c0.05738-0.3443 0.05738-0.38256 0.248672-0.554723 0.248656-0.22954 0.459072-0.22954 0.55472-0.22954 0.267792 0 0.439936 0.0382 0.669488 0.13392-0.459088 0.229563-0.803392 0.726883-0.803392 1.24335 0 0.57385 0.459072 0.879899 0.93728 0.879899 0.784272 0 1.37725-0.688619 1.37725-1.41549 0-0.975559-0.994672-1.53027-2.18062-1.53027-0.89904 0-1.97022 0.36344-2.63971 1.43463-0.439952 0.70774-0.55472 1.45374-0.91816 3.50048h-1.87456c-0.36344 0-0.688624 0-0.688624 0.55472 0 0.3443 0.325184 0.3443 0.631232 0.3443h1.75981l-1.45374 8.14864c-0.03826 0.17216-0.248672 1.37723-0.34432 1.64502-0.03826 0.0957-0.344304 0.97556-0.956416 0.97556-0.363424 0-0.516464-0.0574-0.650352-0.11472 0.478208-0.22956 0.841648-0.72688 0.841648-1.26247 0-0.57385-0.459088-0.8799-0.937296-0.8799-0.784256 0-1.37723 0.68861-1.37723 1.41549 0 1.03292 1.09032 1.53025 2.08498 1.53025 1.43462 0 2.4293-1.41549 2.58232-1.66416 0.822512-1.26246 1.26246-3.69174 1.31986-4.01693z" fill="#f00"/>
 <path d="m100.401 105.793c0-0.55472-0.45907-1.0138-1.01379-1.0138s-1.01381 0.45908-1.01381 1.0138 0.45909 1.0138 1.01381 1.0138 1.01379-0.45908 1.01379-1.0138z" fill="#f00"/>
 <g stroke-linejoin="round">
  <g stroke-miterlimit="1e5" stroke-width=".825701">
   <circle cx="5.5" cy="23.6791" r="5" color="#000000"/>
   <circle cx="38.9729" cy="29.359" r="2.5" color="#000000"/>
   <circle cx="68.7964" cy="44.3077" r="2.5" color="#000000"/>
   <circle cx="117.89" cy="80.5041" r="2.5" color="#000000"/>
  </g>
  <circle cx="143.072" cy="127.477" r="9.5" color="#000000" color-rendering="auto" fill="#cacaca" image-rendering="auto" shape-rendering="auto" solid-color="#000000" stroke="#555" stroke-miterlimit="100" style="isolation:auto;mix-blend-mode:normal"/>
 </g>
 <use transform="translate(143.02 96.8503)" width="100%" height="100%" xlink:href="#symbol7307"/>
 <use transform="translate(143.019 96.8503)" width="100%" height="100%" xlink:href="#symbol7312"/>
 <use transform="translate(41.2214 87.9195)" width="100%" height="100%" fill="#ff0000" xlink:href="#symbol7317"/>
 <use transform="translate(130.688 89.0415)" width="100%" height="100%" xlink:href="#symbol7317"/>
 <use transform="translate(41.2212 87.9195)" width="100%" height="100%" fill="#ff0000" xlink:href="#symbol7322"/>
 <use transform="translate(91.2882 89.0405)" width="100%" height="100%" xlink:href="#symbol7322"/>
 <use transform="translate(130.688 89.0405)" width="100%" height="100%" xlink:href="#symbol7322"/>
 <path d="m93.3497 39.291 1.62206-1.57617c2.38722-2.11176 3.30537-2.9381 3.30537-4.46837 0-1.7445-1.37723-2.9687-3.24416-2.9687-1.72919 0-2.86158 1.40784-2.86158 2.76977 0 0.856952 0.765136 0.856952 0.81104 0.856952 0.260144 0 0.795736-0.183632 0.795736-0.81104 0-0.397872-0.27544-0.795736-0.811032-0.795736-0.122424 0-0.153024 0-0.198936 0.01536 0.35196-0.994672 1.1783-1.56087 2.06586-1.56087 1.39254 0 2.05054 1.23952 2.05054 2.49433 0 1.2242-0.765136 2.43311-1.60677 3.38187l-2.93811 3.27477c-0.168328 0.168328-0.168328 0.198936-0.168328 0.566192h5.67728l0.42847-2.66266h-0.38257c-0.0765 0.459088-0.18362 1.13239-0.33665 1.36194-0.107127 0.122368-1.1171 0.122368-1.45375 0.122368z" stroke-linejoin="round" stroke-miterlimit="1e5" stroke-width="1.33333"/>
 <path d="m29.1016 7.08067c0-1.22422-0.07656-2.44842-0.612112-3.58082-0.70392-1.46906-1.95873-1.7139-2.60145-1.7139-0.918152 0-2.03525 0.397864-2.66265 1.82101-0.489688 1.05589-0.5662 2.24949-0.5662 3.4737 0 1.14769 0.0612 2.52493 0.688616 3.68792 0.658024 1.23951 1.7751 1.54556 2.52494 1.54556 0.826344 0 1.98934-0.321344 2.66266-1.7751 0.48968-1.05587 0.5662-2.24948 0.5662-3.45838zm-3.22886 4.89683c-0.5968 0-1.49966-0.382568-1.7751-1.85162-0.168328-0.91816-0.168328-2.32599-0.168328-3.22885 0-0.979368 0-1.98934 0.122416-2.81568 0.290752-1.82101 1.43846-1.95874 1.82102-1.95874 0.504992 0 1.51496 0.27544 1.80571 1.79042 0.153024 0.856944 0.153024 2.01994 0.153024 2.984 0 1.1477 0 2.18827-0.168336 3.16764-0.229536 1.45374-1.10178 1.91283-1.7904 1.91283z" stroke-linejoin="round" stroke-miterlimit="1e5" stroke-width="1.6"/>
 <g stroke-width="1.25">
  <use transform="matrix(.8 0 0 .8 4.05028 .0999863)" width="100%" height="100%" xlink:href="#symbol7307"/>
  <use transform="matrix(.8 0 0 .8 41.2632 10.8228)" width="100%" height="100%" xlink:href="#symbol7307"/>
  <use transform="matrix(.8 0 0 .8 73.3941 28.5928)" width="100%" height="100%" xlink:href="#symbol7307"/>
  <use transform="matrix(.8 0 0 .8 121.062 60.7665)" width="100%" height="100%" xlink:href="#symbol7307"/>
  <use transform="matrix(.8 0 0 .8 4.05028 .0999863)" width="100%" height="100%" xlink:href="#symbol7312"/>
  <use transform="matrix(.8 0 0 .8 41.2631 10.8229)" width="100%" height="100%" xlink:href="#symbol7312"/>
  <use transform="matrix(.8 0 0 .8 73.3942 28.5928)" width="100%" height="100%" xlink:href="#symbol7312"/>
  <use transform="matrix(.8 0 0 .8 121.061 60.7665)" width="100%" height="100%" xlink:href="#symbol7312"/>
  <use transform="matrix(.8 0 0 .8 7.23227 4.57486)" width="100%" height="100%" xlink:href="#symbol7317"/>
  <use transform="matrix(.8 0 0 .8 46.9873 22.3448)" width="100%" height="100%" xlink:href="#symbol7317"/>
  <use transform="matrix(.8 0 0 .8 7.23227 4.57486)" width="100%" height="100%" xlink:href="#symbol7322"/>
  <use transform="matrix(.8 0 0 .8 46.9872 22.3448)" width="100%" height="100%" xlink:href="#symbol7322"/>
  <use transform="matrix(.8 0 0 .8 79.6764 54.5185)" width="100%" height="100%" xlink:href="#symbol7322"/>
  <use transform="matrix(.8 0 0 .8 4.05028 .0999863)" width="100%" height="100%" xlink:href="#symbol7327"/>
  <use transform="matrix(.8 0 0 .8 46.5009 10.8221)" width="100%" height="100%" xlink:href="#symbol7327"/>
  <use transform="matrix(.8 0 0 .8 86.2544 28.592)" width="100%" height="100%" xlink:href="#symbol7327"/>
  <use transform="matrix(.8 0 0 .8 118.944 60.7665)" width="100%" height="100%" xlink:href="#symbol7327"/>
 </g>
 <use transform="translate(179.772 96.8503)" width="100%" height="100%" xlink:href="#symbol7327"/>
</svg>
